<?xml version="1.0" encoding="UTF-8" standalone="no"?>
<!DOCTYPE svg PUBLIC "-//W3C//DTD SVG 1.1//EN"
 "http://www.w3.org/Graphics/SVG/1.1/DTD/svg11.dtd">
<!-- Generated by graphviz version 2.44.0 ()
 -->
<!-- Title: align.h Pages: 1 -->
<svg width="575pt" height="378pt"
 viewBox="0.00 0.00 574.69 378.00" xmlns="http://www.w3.org/2000/svg" xmlns:xlink="http://www.w3.org/1999/xlink">
<g id="graph0" class="graph" transform="scale(1 1) rotate(0) translate(4 374)">
<title>align.h</title>
<polygon fill="white" stroke="transparent" points="-4,4 -4,-374 570.69,-374 570.69,4 -4,4"/>
<!-- Node1 -->
<g id="node1" class="node">
<title>Node1</title>
<g id="a_node1"><a xlink:title=" ">
<polygon fill="#bfbfbf" stroke="black" points="333.5,-348.5 333.5,-369.5 385.5,-369.5 385.5,-348.5 333.5,-348.5"/>
<text text-anchor="middle" x="359.5" y="-355.9" font-family="DejaVuSans" font-size="12.00">align.h</text>
</a>
</g>
</g>
<!-- Node2 -->
<g id="node2" class="node">
<title>Node2</title>
<g id="a_node2"><a xlink:href="global_8h.html" target="_top" xlink:title=" ">
<polygon fill="white" stroke="black" points="193.5,-116.5 193.5,-137.5 251.5,-137.5 251.5,-116.5 193.5,-116.5"/>
<text text-anchor="middle" x="222.5" y="-123.9" font-family="DejaVuSans" font-size="12.00">global.h</text>
</a>
</g>
</g>
<!-- Node1&#45;&gt;Node2 -->
<g id="edge1" class="edge">
<title>Node1&#45;&gt;Node2</title>
<path fill="none" stroke="midnightblue" d="M333.25,-354.61C282.33,-346.64 169.79,-321.95 108.5,-254 83.88,-226.71 66.11,-203.89 87.5,-174 109.06,-143.88 151.52,-133.25 183.09,-129.62"/>
<polygon fill="midnightblue" stroke="midnightblue" points="183.71,-133.08 193.33,-128.64 183.05,-126.11 183.71,-133.08"/>
</g>
<!-- Node9 -->
<g id="node9" class="node">
<title>Node9</title>
<g id="a_node9"><a xlink:href="mem_8h.html" target="_top" xlink:title=" ">
<polygon fill="white" stroke="black" points="404,-232.5 404,-253.5 457,-253.5 457,-232.5 404,-232.5"/>
<text text-anchor="middle" x="430.5" y="-239.9" font-family="DejaVuSans" font-size="12.00">mem.h</text>
</a>
</g>
</g>
<!-- Node1&#45;&gt;Node9 -->
<g id="edge8" class="edge">
<title>Node1&#45;&gt;Node9</title>
<path fill="none" stroke="midnightblue" d="M365.55,-348.28C377.4,-329.27 403.8,-286.88 419.04,-262.4"/>
<polygon fill="midnightblue" stroke="midnightblue" points="422.15,-264.03 424.46,-253.69 416.2,-260.33 422.15,-264.03"/>
</g>
<!-- Node11 -->
<g id="node11" class="node">
<title>Node11</title>
<g id="a_node11"><a xlink:href="box_8h.html" target="_top" xlink:title=" ">
<polygon fill="white" stroke="black" points="237.5,-290.5 237.5,-311.5 283.5,-311.5 283.5,-290.5 237.5,-290.5"/>
<text text-anchor="middle" x="260.5" y="-297.9" font-family="DejaVuSans" font-size="12.00">box.h</text>
</a>
</g>
</g>
<!-- Node1&#45;&gt;Node11 -->
<g id="edge12" class="edge">
<title>Node1&#45;&gt;Node11</title>
<path fill="none" stroke="midnightblue" d="M342.26,-348.25C326.92,-339.57 304.28,-326.76 286.71,-316.82"/>
<polygon fill="midnightblue" stroke="midnightblue" points="287.97,-313.52 277.55,-311.64 284.53,-319.61 287.97,-313.52"/>
</g>
<!-- Node16 -->
<g id="node16" class="node">
<title>Node16</title>
<g id="a_node16"><a xlink:href="lexer_8h.html" target="_top" xlink:title=" ">
<polygon fill="white" stroke="black" points="333.5,-232.5 333.5,-253.5 385.5,-253.5 385.5,-232.5 333.5,-232.5"/>
<text text-anchor="middle" x="359.5" y="-239.9" font-family="DejaVuSans" font-size="12.00">lexer.h</text>
</a>
</g>
</g>
<!-- Node1&#45;&gt;Node16 -->
<g id="edge23" class="edge">
<title>Node1&#45;&gt;Node16</title>
<path fill="none" stroke="midnightblue" d="M359.5,-348.28C359.5,-329.6 359.5,-288.37 359.5,-263.72"/>
<polygon fill="midnightblue" stroke="midnightblue" points="363,-263.69 359.5,-253.69 356,-263.7 363,-263.69"/>
</g>
<!-- Node17 -->
<g id="node17" class="node">
<title>Node17</title>
<g id="a_node17"><a xlink:href="eqtb_8h.html" target="_top" xlink:title=" ">
<polygon fill="white" stroke="black" points="480.5,-232.5 480.5,-253.5 530.5,-253.5 530.5,-232.5 480.5,-232.5"/>
<text text-anchor="middle" x="505.5" y="-239.9" font-family="DejaVuSans" font-size="12.00">eqtb.h</text>
</a>
</g>
</g>
<!-- Node1&#45;&gt;Node17 -->
<g id="edge27" class="edge">
<title>Node1&#45;&gt;Node17</title>
<path fill="none" stroke="midnightblue" d="M371.7,-348.48C396.75,-328.91 454.26,-284.01 485.09,-259.94"/>
<polygon fill="midnightblue" stroke="midnightblue" points="487.3,-262.65 493.03,-253.74 482.99,-257.13 487.3,-262.65"/>
</g>
<!-- Node3 -->
<g id="node3" class="node">
<title>Node3</title>
<g id="a_node3"><a xlink:href="global__macros_8h.html" target="_top" xlink:title=" ">
<polygon fill="white" stroke="black" points="170.5,-58.5 170.5,-79.5 274.5,-79.5 274.5,-58.5 170.5,-58.5"/>
<text text-anchor="middle" x="222.5" y="-65.9" font-family="DejaVuSans" font-size="12.00">global_macros.h</text>
</a>
</g>
</g>
<!-- Node2&#45;&gt;Node3 -->
<g id="edge2" class="edge">
<title>Node2&#45;&gt;Node3</title>
<path fill="none" stroke="midnightblue" d="M222.5,-116.25C222.5,-108.94 222.5,-98.69 222.5,-89.7"/>
<polygon fill="midnightblue" stroke="midnightblue" points="226,-89.64 222.5,-79.64 219,-89.64 226,-89.64"/>
</g>
<!-- Node5 -->
<g id="node5" class="node">
<title>Node5</title>
<g id="a_node5"><a xlink:href="global__const_8h.html" target="_top" xlink:title=" ">
<polygon fill="white" stroke="black" points="388,-58.5 388,-79.5 481,-79.5 481,-58.5 388,-58.5"/>
<text text-anchor="middle" x="434.5" y="-65.9" font-family="DejaVuSans" font-size="12.00">global_const.h</text>
</a>
</g>
</g>
<!-- Node2&#45;&gt;Node5 -->
<g id="edge4" class="edge">
<title>Node2&#45;&gt;Node5</title>
<path fill="none" stroke="midnightblue" d="M251.53,-118.33C286.84,-109 346.86,-93.15 388.48,-82.16"/>
<polygon fill="midnightblue" stroke="midnightblue" points="389.61,-85.48 398.38,-79.54 387.82,-78.71 389.61,-85.48"/>
</g>
<!-- Node6 -->
<g id="node6" class="node">
<title>Node6</title>
<g id="a_node6"><a xlink:href="tex__types_8h.html" target="_top" xlink:title=" ">
<polygon fill="white" stroke="black" points="70,-58.5 70,-79.5 147,-79.5 147,-58.5 70,-58.5"/>
<text text-anchor="middle" x="108.5" y="-65.9" font-family="DejaVuSans" font-size="12.00">tex_types.h</text>
</a>
</g>
</g>
<!-- Node2&#45;&gt;Node6 -->
<g id="edge5" class="edge">
<title>Node2&#45;&gt;Node6</title>
<path fill="none" stroke="midnightblue" d="M202.9,-116.37C184.77,-107.46 157.59,-94.11 137.04,-84.02"/>
<polygon fill="midnightblue" stroke="midnightblue" points="138.36,-80.77 127.84,-79.5 135.27,-87.05 138.36,-80.77"/>
</g>
<!-- Node4 -->
<g id="node4" class="node">
<title>Node4</title>
<g id="a_node4"><a xlink:title=" ">
<polygon fill="white" stroke="#bfbfbf" points="193,-0.5 193,-21.5 252,-21.5 252,-0.5 193,-0.5"/>
<text text-anchor="middle" x="222.5" y="-7.9" font-family="DejaVuSans" font-size="12.00">assert.h</text>
</a>
</g>
</g>
<!-- Node3&#45;&gt;Node4 -->
<g id="edge3" class="edge">
<title>Node3&#45;&gt;Node4</title>
<path fill="none" stroke="midnightblue" d="M222.5,-58.25C222.5,-50.94 222.5,-40.69 222.5,-31.7"/>
<polygon fill="midnightblue" stroke="midnightblue" points="226,-31.64 222.5,-21.64 219,-31.64 226,-31.64"/>
</g>
<!-- Node7 -->
<g id="node7" class="node">
<title>Node7</title>
<g id="a_node7"><a xlink:title=" ">
<polygon fill="white" stroke="#bfbfbf" points="76,-0.5 76,-21.5 141,-21.5 141,-0.5 76,-0.5"/>
<text text-anchor="middle" x="108.5" y="-7.9" font-family="DejaVuSans" font-size="12.00">stdbool.h</text>
</a>
</g>
</g>
<!-- Node6&#45;&gt;Node7 -->
<g id="edge6" class="edge">
<title>Node6&#45;&gt;Node7</title>
<path fill="none" stroke="midnightblue" d="M108.5,-58.25C108.5,-50.94 108.5,-40.69 108.5,-31.7"/>
<polygon fill="midnightblue" stroke="midnightblue" points="112,-31.64 108.5,-21.64 105,-31.64 112,-31.64"/>
</g>
<!-- Node8 -->
<g id="node8" class="node">
<title>Node8</title>
<g id="a_node8"><a xlink:title=" ">
<polygon fill="white" stroke="#bfbfbf" points="0,-0.5 0,-21.5 55,-21.5 55,-0.5 0,-0.5"/>
<text text-anchor="middle" x="27.5" y="-7.9" font-family="DejaVuSans" font-size="12.00">stdint.h</text>
</a>
</g>
</g>
<!-- Node6&#45;&gt;Node8 -->
<g id="edge7" class="edge">
<title>Node6&#45;&gt;Node8</title>
<path fill="none" stroke="midnightblue" d="M94.39,-58.25C82.08,-49.73 64,-37.24 49.75,-27.38"/>
<polygon fill="midnightblue" stroke="midnightblue" points="51.66,-24.45 41.45,-21.64 47.68,-30.21 51.66,-24.45"/>
</g>
<!-- Node9&#45;&gt;Node2 -->
<g id="edge9" class="edge">
<title>Node9&#45;&gt;Node2</title>
<path fill="none" stroke="midnightblue" d="M427.22,-232.04C421.78,-217.13 409.5,-189.15 389.5,-174 352.09,-145.65 298.21,-134.77 261.86,-130.6"/>
<polygon fill="midnightblue" stroke="midnightblue" points="261.94,-127.09 251.64,-129.54 261.23,-134.05 261.94,-127.09"/>
</g>
<!-- Node10 -->
<g id="node10" class="node">
<title>Node10</title>
<g id="a_node10"><a xlink:href="tex__constant_8h.html" target="_top" xlink:title=" ">
<polygon fill="white" stroke="black" points="458.5,-174.5 458.5,-195.5 552.5,-195.5 552.5,-174.5 458.5,-174.5"/>
<text text-anchor="middle" x="505.5" y="-181.9" font-family="DejaVuSans" font-size="12.00">tex_constant.h</text>
</a>
</g>
</g>
<!-- Node9&#45;&gt;Node10 -->
<g id="edge10" class="edge">
<title>Node9&#45;&gt;Node10</title>
<path fill="none" stroke="midnightblue" d="M443.56,-232.25C454.86,-223.81 471.38,-211.47 484.53,-201.66"/>
<polygon fill="midnightblue" stroke="midnightblue" points="486.67,-204.43 492.59,-195.64 482.48,-198.82 486.67,-204.43"/>
</g>
<!-- Node10&#45;&gt;Node5 -->
<g id="edge11" class="edge">
<title>Node10&#45;&gt;Node5</title>
<path fill="none" stroke="midnightblue" d="M499.45,-174.28C487.6,-155.27 461.2,-112.88 445.96,-88.4"/>
<polygon fill="midnightblue" stroke="midnightblue" points="448.8,-86.33 440.54,-79.69 442.85,-90.03 448.8,-86.33"/>
</g>
<!-- Node11&#45;&gt;Node2 -->
<g id="edge13" class="edge">
<title>Node11&#45;&gt;Node2</title>
<path fill="none" stroke="midnightblue" d="M255,-290.37C245.13,-272.48 224.77,-232.6 217.5,-196 214.33,-180.04 216.01,-161.6 218.24,-147.96"/>
<polygon fill="midnightblue" stroke="midnightblue" points="221.74,-148.26 220.15,-137.78 214.87,-146.97 221.74,-148.26"/>
</g>
<!-- Node11&#45;&gt;Node9 -->
<g id="edge14" class="edge">
<title>Node11&#45;&gt;Node9</title>
<path fill="none" stroke="midnightblue" d="M283.78,-292.33C312.21,-282.97 360.63,-267.02 394.03,-256.02"/>
<polygon fill="midnightblue" stroke="midnightblue" points="395.47,-259.23 403.87,-252.77 393.28,-252.58 395.47,-259.23"/>
</g>
<!-- Node12 -->
<g id="node12" class="node">
<title>Node12</title>
<g id="a_node12"><a xlink:href="texmath_8h.html" target="_top" xlink:title=" ">
<polygon fill="white" stroke="black" points="226.5,-174.5 226.5,-195.5 294.5,-195.5 294.5,-174.5 226.5,-174.5"/>
<text text-anchor="middle" x="260.5" y="-181.9" font-family="DejaVuSans" font-size="12.00">texmath.h</text>
</a>
</g>
</g>
<!-- Node11&#45;&gt;Node12 -->
<g id="edge15" class="edge">
<title>Node11&#45;&gt;Node12</title>
<path fill="none" stroke="midnightblue" d="M260.5,-290.28C260.5,-271.6 260.5,-230.37 260.5,-205.72"/>
<polygon fill="midnightblue" stroke="midnightblue" points="264,-205.69 260.5,-195.69 257,-205.7 264,-205.69"/>
</g>
<!-- Node13 -->
<g id="node13" class="node">
<title>Node13</title>
<g id="a_node13"><a xlink:href="str_8h.html" target="_top" xlink:title=" ">
<polygon fill="white" stroke="black" points="118,-232.5 118,-253.5 157,-253.5 157,-232.5 118,-232.5"/>
<text text-anchor="middle" x="137.5" y="-239.9" font-family="DejaVuSans" font-size="12.00">str.h</text>
</a>
</g>
</g>
<!-- Node11&#45;&gt;Node13 -->
<g id="edge17" class="edge">
<title>Node11&#45;&gt;Node13</title>
<path fill="none" stroke="midnightblue" d="M239.36,-290.37C219.25,-281.22 188.85,-267.38 166.49,-257.2"/>
<polygon fill="midnightblue" stroke="midnightblue" points="167.7,-253.91 157.15,-252.95 164.8,-260.28 167.7,-253.91"/>
</g>
<!-- Node12&#45;&gt;Node2 -->
<g id="edge16" class="edge">
<title>Node12&#45;&gt;Node2</title>
<path fill="none" stroke="midnightblue" d="M253.88,-174.25C248.6,-166.46 241.05,-155.33 234.68,-145.94"/>
<polygon fill="midnightblue" stroke="midnightblue" points="237.55,-143.95 229.04,-137.64 231.76,-147.88 237.55,-143.95"/>
</g>
<!-- Node13&#45;&gt;Node2 -->
<g id="edge20" class="edge">
<title>Node13&#45;&gt;Node2</title>
<path fill="none" stroke="midnightblue" d="M123.94,-232.31C106.87,-218.92 81.4,-194.11 95.5,-174 115.19,-145.92 153.84,-134.91 183.35,-130.63"/>
<polygon fill="midnightblue" stroke="midnightblue" points="183.87,-134.09 193.36,-129.38 183.01,-127.15 183.87,-134.09"/>
</g>
<!-- Node13&#45;&gt;Node8 -->
<g id="edge19" class="edge">
<title>Node13&#45;&gt;Node8</title>
<path fill="none" stroke="midnightblue" d="M123.35,-232.19C112.17,-223.77 96.94,-210.69 87.5,-196 52.92,-142.18 36.59,-66.64 30.49,-31.46"/>
<polygon fill="midnightblue" stroke="midnightblue" points="33.93,-30.83 28.86,-21.53 27.02,-31.96 33.93,-30.83"/>
</g>
<!-- Node14 -->
<g id="node14" class="node">
<title>Node14</title>
<g id="a_node14"><a xlink:title=" ">
<polygon fill="white" stroke="#bfbfbf" points="312.5,-174.5 312.5,-195.5 364.5,-195.5 364.5,-174.5 312.5,-174.5"/>
<text text-anchor="middle" x="338.5" y="-181.9" font-family="DejaVuSans" font-size="12.00">stdio.h</text>
</a>
</g>
</g>
<!-- Node13&#45;&gt;Node14 -->
<g id="edge18" class="edge">
<title>Node13&#45;&gt;Node14</title>
<path fill="none" stroke="midnightblue" d="M157.19,-236.6C186.65,-228.51 244.18,-212.65 302.41,-196.29"/>
<polygon fill="midnightblue" stroke="midnightblue" points="303.45,-199.63 312.13,-193.56 301.56,-192.9 303.45,-199.63"/>
</g>
<!-- Node15 -->
<g id="node15" class="node">
<title>Node15</title>
<g id="a_node15"><a xlink:href="charset_8h.html" target="_top" xlink:title=" ">
<polygon fill="white" stroke="black" points="105,-174.5 105,-195.5 170,-195.5 170,-174.5 105,-174.5"/>
<text text-anchor="middle" x="137.5" y="-181.9" font-family="DejaVuSans" font-size="12.00">charset.h</text>
</a>
</g>
</g>
<!-- Node13&#45;&gt;Node15 -->
<g id="edge21" class="edge">
<title>Node13&#45;&gt;Node15</title>
<path fill="none" stroke="midnightblue" d="M137.5,-232.25C137.5,-224.94 137.5,-214.69 137.5,-205.7"/>
<polygon fill="midnightblue" stroke="midnightblue" points="141,-205.64 137.5,-195.64 134,-205.64 141,-205.64"/>
</g>
<!-- Node15&#45;&gt;Node2 -->
<g id="edge22" class="edge">
<title>Node15&#45;&gt;Node2</title>
<path fill="none" stroke="midnightblue" d="M152.31,-174.25C165.23,-165.73 184.19,-153.24 199.16,-143.38"/>
<polygon fill="midnightblue" stroke="midnightblue" points="201.44,-146.07 207.86,-137.64 197.59,-140.22 201.44,-146.07"/>
</g>
<!-- Node16&#45;&gt;Node2 -->
<g id="edge25" class="edge">
<title>Node16&#45;&gt;Node2</title>
<path fill="none" stroke="midnightblue" d="M365.88,-232.19C374.25,-217.97 386.41,-191.43 373.5,-174 347.96,-139.53 297.19,-130.01 261.6,-127.82"/>
<polygon fill="midnightblue" stroke="midnightblue" points="261.69,-124.33 251.54,-127.37 261.37,-131.32 261.69,-124.33"/>
</g>
<!-- Node16&#45;&gt;Node10 -->
<g id="edge26" class="edge">
<title>Node16&#45;&gt;Node10</title>
<path fill="none" stroke="midnightblue" d="M384.6,-232.37C408.46,-223.22 444.53,-209.38 471.07,-199.21"/>
<polygon fill="midnightblue" stroke="midnightblue" points="472.65,-202.35 480.73,-195.5 470.14,-195.81 472.65,-202.35"/>
</g>
<!-- Node16&#45;&gt;Node14 -->
<g id="edge24" class="edge">
<title>Node16&#45;&gt;Node14</title>
<path fill="none" stroke="midnightblue" d="M355.84,-232.25C353.04,-224.78 349.09,-214.24 345.67,-205.11"/>
<polygon fill="midnightblue" stroke="midnightblue" points="348.9,-203.78 342.12,-195.64 342.35,-206.23 348.9,-203.78"/>
</g>
<!-- Node17&#45;&gt;Node2 -->
<g id="edge28" class="edge">
<title>Node17&#45;&gt;Node2</title>
<path fill="none" stroke="midnightblue" d="M523.29,-232.39C545.72,-219.09 579.31,-194.39 561.5,-174 522.98,-129.91 342.74,-126.45 261.9,-127.18"/>
<polygon fill="midnightblue" stroke="midnightblue" points="261.6,-123.69 251.64,-127.31 261.68,-130.69 261.6,-123.69"/>
</g>
<!-- Node17&#45;&gt;Node10 -->
<g id="edge29" class="edge">
<title>Node17&#45;&gt;Node10</title>
<path fill="none" stroke="midnightblue" d="M505.5,-232.25C505.5,-224.94 505.5,-214.69 505.5,-205.7"/>
<polygon fill="midnightblue" stroke="midnightblue" points="509,-205.64 505.5,-195.64 502,-205.64 509,-205.64"/>
</g>
</g>
</svg>
