<?xml version="1.0" encoding="UTF-8" standalone="no"?>
<!DOCTYPE svg PUBLIC "-//W3C//DTD SVG 1.1//EN"
 "http://www.w3.org/Graphics/SVG/1.1/DTD/svg11.dtd">
<!-- Generated by graphviz version 2.44.0 ()
 -->
<!-- Title: align.c Pages: 1 -->
<svg width="742pt" height="726pt"
 viewBox="0.00 0.00 741.50 726.00" xmlns="http://www.w3.org/2000/svg" xmlns:xlink="http://www.w3.org/1999/xlink">
<g id="graph0" class="graph" transform="scale(1 1) rotate(0) translate(4 722)">
<title>align.c</title>
<polygon fill="white" stroke="transparent" points="-4,4 -4,-722 737.5,-722 737.5,4 -4,4"/>
<!-- Node1 -->
<g id="node1" class="node">
<title>Node1</title>
<g id="a_node1"><a xlink:title=" ">
<polygon fill="#bfbfbf" stroke="black" points="352.5,-696.5 352.5,-717.5 403.5,-717.5 403.5,-696.5 352.5,-696.5"/>
<text text-anchor="middle" x="378" y="-703.9" font-family="DejaVuSans" font-size="12.00">align.c</text>
</a>
</g>
</g>
<!-- Node2 -->
<g id="node2" class="node">
<title>Node2</title>
<g id="a_node2"><a xlink:title=" ">
<polygon fill="white" stroke="#bfbfbf" points="62.5,-638.5 62.5,-659.5 115.5,-659.5 115.5,-638.5 62.5,-638.5"/>
<text text-anchor="middle" x="89" y="-645.9" font-family="DejaVuSans" font-size="12.00">math.h</text>
</a>
</g>
</g>
<!-- Node1&#45;&gt;Node2 -->
<g id="edge1" class="edge">
<title>Node1&#45;&gt;Node2</title>
<path fill="none" stroke="midnightblue" d="M352.35,-702.13C308.13,-695.29 214.55,-680.06 125.64,-659.98"/>
<polygon fill="midnightblue" stroke="midnightblue" points="126.2,-656.51 115.67,-657.7 124.64,-663.34 126.2,-656.51"/>
</g>
<!-- Node3 -->
<g id="node3" class="node">
<title>Node3</title>
<g id="a_node3"><a xlink:href="mem_8h.html" target="_top" xlink:title=" ">
<polygon fill="white" stroke="black" points="146.5,-522.5 146.5,-543.5 199.5,-543.5 199.5,-522.5 146.5,-522.5"/>
<text text-anchor="middle" x="173" y="-529.9" font-family="DejaVuSans" font-size="12.00">mem.h</text>
</a>
</g>
</g>
<!-- Node1&#45;&gt;Node3 -->
<g id="edge2" class="edge">
<title>Node1&#45;&gt;Node3</title>
<path fill="none" stroke="midnightblue" d="M352.31,-703.22C322.29,-698.78 272.59,-687.56 240,-660 235.44,-656.14 199.69,-586.52 182.36,-552.46"/>
<polygon fill="midnightblue" stroke="midnightblue" points="185.46,-550.84 177.81,-543.51 179.22,-554.01 185.46,-550.84"/>
</g>
<!-- Node13 -->
<g id="node13" class="node">
<title>Node13</title>
<g id="a_node13"><a xlink:href="scan_8h.html" target="_top" xlink:title=" ">
<polygon fill="white" stroke="black" points="222,-406.5 222,-427.5 274,-427.5 274,-406.5 222,-406.5"/>
<text text-anchor="middle" x="248" y="-413.9" font-family="DejaVuSans" font-size="12.00">scan.h</text>
</a>
</g>
</g>
<!-- Node1&#45;&gt;Node13 -->
<g id="edge28" class="edge">
<title>Node1&#45;&gt;Node13</title>
<path fill="none" stroke="midnightblue" d="M353.2,-696.4C317.02,-680.58 254,-645.37 254,-592 254,-592 254,-592 254,-532 254,-498.94 251.45,-460.56 249.68,-437.83"/>
<polygon fill="midnightblue" stroke="midnightblue" points="253.16,-437.43 248.86,-427.75 246.18,-438 253.16,-437.43"/>
</g>
<!-- Node19 -->
<g id="node19" class="node">
<title>Node19</title>
<g id="a_node19"><a xlink:href="dviout_8h.html" target="_top" xlink:title=" ">
<polygon fill="white" stroke="black" points="358.5,-580.5 358.5,-601.5 417.5,-601.5 417.5,-580.5 358.5,-580.5"/>
<text text-anchor="middle" x="388" y="-587.9" font-family="DejaVuSans" font-size="12.00">dviout.h</text>
</a>
</g>
</g>
<!-- Node1&#45;&gt;Node19 -->
<g id="edge26" class="edge">
<title>Node1&#45;&gt;Node19</title>
<path fill="none" stroke="midnightblue" d="M378.85,-696.28C380.49,-677.6 384.11,-636.37 386.27,-611.72"/>
<polygon fill="midnightblue" stroke="midnightblue" points="389.76,-611.96 387.15,-601.69 382.79,-611.35 389.76,-611.96"/>
</g>
<!-- Node20 -->
<g id="node20" class="node">
<title>Node20</title>
<g id="a_node20"><a xlink:href="print_8h.html" target="_top" xlink:title=" ">
<polygon fill="white" stroke="black" points="134,-638.5 134,-659.5 184,-659.5 184,-638.5 134,-638.5"/>
<text text-anchor="middle" x="159" y="-645.9" font-family="DejaVuSans" font-size="12.00">print.h</text>
</a>
</g>
</g>
<!-- Node1&#45;&gt;Node20 -->
<g id="edge29" class="edge">
<title>Node1&#45;&gt;Node20</title>
<path fill="none" stroke="midnightblue" d="M352.45,-699.47C313.2,-689.43 237.97,-670.19 193.78,-658.89"/>
<polygon fill="midnightblue" stroke="midnightblue" points="194.61,-655.49 184.05,-656.41 192.87,-662.27 194.61,-655.49"/>
</g>
<!-- Node22 -->
<g id="node22" class="node">
<title>Node22</title>
<g id="a_node22"><a xlink:href="pack_8h.html" target="_top" xlink:title=" ">
<polygon fill="white" stroke="black" points="444,-638.5 444,-659.5 496,-659.5 496,-638.5 444,-638.5"/>
<text text-anchor="middle" x="470" y="-645.9" font-family="DejaVuSans" font-size="12.00">pack.h</text>
</a>
</g>
</g>
<!-- Node1&#45;&gt;Node22 -->
<g id="edge35" class="edge">
<title>Node1&#45;&gt;Node22</title>
<path fill="none" stroke="midnightblue" d="M394.03,-696.25C408.14,-687.65 428.93,-675 445.19,-665.1"/>
<polygon fill="midnightblue" stroke="midnightblue" points="447.44,-667.83 454.16,-659.64 443.8,-661.85 447.44,-667.83"/>
</g>
<!-- Node23 -->
<g id="node23" class="node">
<title>Node23</title>
<g id="a_node23"><a xlink:href="mmode_8h.html" target="_top" xlink:title=" ">
<polygon fill="white" stroke="black" points="414,-522.5 414,-543.5 480,-543.5 480,-522.5 414,-522.5"/>
<text text-anchor="middle" x="447" y="-529.9" font-family="DejaVuSans" font-size="12.00">mmode.h</text>
</a>
</g>
</g>
<!-- Node1&#45;&gt;Node23 -->
<g id="edge36" class="edge">
<title>Node1&#45;&gt;Node23</title>
<path fill="none" stroke="midnightblue" d="M382.94,-696.43C392.17,-678.33 412.34,-637.65 426,-602 432.14,-585.98 437.8,-567.33 441.69,-553.62"/>
<polygon fill="midnightblue" stroke="midnightblue" points="445.11,-554.39 444.41,-543.82 438.36,-552.52 445.11,-554.39"/>
</g>
<!-- Node24 -->
<g id="node24" class="node">
<title>Node24</title>
<g id="a_node24"><a xlink:href="error_8h.html" target="_top" xlink:title=" ">
<polygon fill="white" stroke="black" points="514.5,-638.5 514.5,-659.5 565.5,-659.5 565.5,-638.5 514.5,-638.5"/>
<text text-anchor="middle" x="540" y="-645.9" font-family="DejaVuSans" font-size="12.00">error.h</text>
</a>
</g>
</g>
<!-- Node1&#45;&gt;Node24 -->
<g id="edge38" class="edge">
<title>Node1&#45;&gt;Node24</title>
<path fill="none" stroke="midnightblue" d="M403.67,-697.13C430.92,-687.71 474.18,-672.75 504.65,-662.22"/>
<polygon fill="midnightblue" stroke="midnightblue" points="506.14,-665.41 514.45,-658.83 503.86,-658.79 506.14,-665.41"/>
</g>
<!-- Node25 -->
<g id="node25" class="node">
<title>Node25</title>
<g id="a_node25"><a xlink:href="expand_8h.html" target="_top" xlink:title=" ">
<polygon fill="white" stroke="black" points="584,-638.5 584,-659.5 650,-659.5 650,-638.5 584,-638.5"/>
<text text-anchor="middle" x="617" y="-645.9" font-family="DejaVuSans" font-size="12.00">expand.h</text>
</a>
</g>
</g>
<!-- Node1&#45;&gt;Node25 -->
<g id="edge39" class="edge">
<title>Node1&#45;&gt;Node25</title>
<path fill="none" stroke="midnightblue" d="M403.51,-700.08C439.31,-691.77 506.76,-676.07 574.06,-660.21"/>
<polygon fill="midnightblue" stroke="midnightblue" points="575.06,-663.58 583.99,-657.87 573.45,-656.76 575.06,-663.58"/>
</g>
<!-- Node26 -->
<g id="node26" class="node">
<title>Node26</title>
<g id="a_node26"><a xlink:href="texfunc_8h.html" target="_top" xlink:title=" ">
<polygon fill="white" stroke="black" points="668.5,-638.5 668.5,-659.5 733.5,-659.5 733.5,-638.5 668.5,-638.5"/>
<text text-anchor="middle" x="701" y="-645.9" font-family="DejaVuSans" font-size="12.00">texfunc.h</text>
</a>
</g>
</g>
<!-- Node1&#45;&gt;Node26 -->
<g id="edge40" class="edge">
<title>Node1&#45;&gt;Node26</title>
<path fill="none" stroke="midnightblue" d="M403.68,-702.42C451.65,-695.61 558.29,-679.83 658.5,-659.98"/>
<polygon fill="midnightblue" stroke="midnightblue" points="659.37,-663.37 668.49,-657.98 658,-656.51 659.37,-663.37"/>
</g>
<!-- Node27 -->
<g id="node27" class="node">
<title>Node27</title>
<g id="a_node27"><a xlink:href="align_8h.html" target="_top" xlink:title=" ">
<polygon fill="white" stroke="black" points="292,-406.5 292,-427.5 344,-427.5 344,-406.5 292,-406.5"/>
<text text-anchor="middle" x="318" y="-413.9" font-family="DejaVuSans" font-size="12.00">align.h</text>
</a>
</g>
</g>
<!-- Node1&#45;&gt;Node27 -->
<g id="edge41" class="edge">
<title>Node1&#45;&gt;Node27</title>
<path fill="none" stroke="midnightblue" d="M370.71,-696.22C357.28,-677.19 330,-633.45 330,-592 330,-592 330,-592 330,-532 330,-498.8 324.9,-460.46 321.35,-437.78"/>
<polygon fill="midnightblue" stroke="midnightblue" points="324.78,-437.03 319.72,-427.72 317.87,-438.16 324.78,-437.03"/>
</g>
<!-- Node4 -->
<g id="node4" class="node">
<title>Node4</title>
<g id="a_node4"><a xlink:href="tex__types_8h.html" target="_top" xlink:title=" ">
<polygon fill="white" stroke="black" points="106.5,-58.5 106.5,-79.5 183.5,-79.5 183.5,-58.5 106.5,-58.5"/>
<text text-anchor="middle" x="145" y="-65.9" font-family="DejaVuSans" font-size="12.00">tex_types.h</text>
</a>
</g>
</g>
<!-- Node3&#45;&gt;Node4 -->
<g id="edge3" class="edge">
<title>Node3&#45;&gt;Node4</title>
<path fill="none" stroke="midnightblue" d="M156.1,-522.48C128.31,-505.44 76,-466.85 76,-418 76,-418 76,-418 76,-184 76,-144.82 106.2,-107.58 126.64,-86.87"/>
<polygon fill="midnightblue" stroke="midnightblue" points="129.2,-89.26 133.91,-79.77 124.31,-84.25 129.2,-89.26"/>
</g>
<!-- Node7 -->
<g id="node7" class="node">
<title>Node7</title>
<g id="a_node7"><a xlink:href="global_8h.html" target="_top" xlink:title=" ">
<polygon fill="white" stroke="black" points="165,-464.5 165,-485.5 223,-485.5 223,-464.5 165,-464.5"/>
<text text-anchor="middle" x="194" y="-471.9" font-family="DejaVuSans" font-size="12.00">global.h</text>
</a>
</g>
</g>
<!-- Node3&#45;&gt;Node7 -->
<g id="edge6" class="edge">
<title>Node3&#45;&gt;Node7</title>
<path fill="none" stroke="midnightblue" d="M176.66,-522.25C179.46,-514.78 183.41,-504.24 186.83,-495.11"/>
<polygon fill="midnightblue" stroke="midnightblue" points="190.15,-496.23 190.38,-485.64 183.6,-493.78 190.15,-496.23"/>
</g>
<!-- Node5 -->
<g id="node5" class="node">
<title>Node5</title>
<g id="a_node5"><a xlink:title=" ">
<polygon fill="white" stroke="#bfbfbf" points="112.5,-0.5 112.5,-21.5 177.5,-21.5 177.5,-0.5 112.5,-0.5"/>
<text text-anchor="middle" x="145" y="-7.9" font-family="DejaVuSans" font-size="12.00">stdbool.h</text>
</a>
</g>
</g>
<!-- Node4&#45;&gt;Node5 -->
<g id="edge4" class="edge">
<title>Node4&#45;&gt;Node5</title>
<path fill="none" stroke="midnightblue" d="M145,-58.25C145,-50.94 145,-40.69 145,-31.7"/>
<polygon fill="midnightblue" stroke="midnightblue" points="148.5,-31.64 145,-21.64 141.5,-31.64 148.5,-31.64"/>
</g>
<!-- Node6 -->
<g id="node6" class="node">
<title>Node6</title>
<g id="a_node6"><a xlink:title=" ">
<polygon fill="white" stroke="#bfbfbf" points="208.5,-0.5 208.5,-21.5 263.5,-21.5 263.5,-0.5 208.5,-0.5"/>
<text text-anchor="middle" x="236" y="-7.9" font-family="DejaVuSans" font-size="12.00">stdint.h</text>
</a>
</g>
</g>
<!-- Node4&#45;&gt;Node6 -->
<g id="edge5" class="edge">
<title>Node4&#45;&gt;Node6</title>
<path fill="none" stroke="midnightblue" d="M160.85,-58.25C174.81,-49.65 195.37,-37 211.46,-27.1"/>
<polygon fill="midnightblue" stroke="midnightblue" points="213.65,-29.86 220.33,-21.64 209.98,-23.9 213.65,-29.86"/>
</g>
<!-- Node8 -->
<g id="node8" class="node">
<title>Node8</title>
<g id="a_node8"><a xlink:title=" ">
<polygon fill="white" stroke="#bfbfbf" points="104,-406.5 104,-427.5 166,-427.5 166,-406.5 104,-406.5"/>
<text text-anchor="middle" x="135" y="-413.9" font-family="DejaVuSans" font-size="12.00">setjmp.h</text>
</a>
</g>
</g>
<!-- Node7&#45;&gt;Node8 -->
<g id="edge7" class="edge">
<title>Node7&#45;&gt;Node8</title>
<path fill="none" stroke="midnightblue" d="M183.72,-464.25C175.18,-456.14 162.82,-444.41 152.69,-434.79"/>
<polygon fill="midnightblue" stroke="midnightblue" points="154.82,-431.99 145.16,-427.64 150,-437.07 154.82,-431.99"/>
</g>
<!-- Node9 -->
<g id="node9" class="node">
<title>Node9</title>
<g id="a_node9"><a xlink:href="str_8h.html" target="_top" xlink:title=" ">
<polygon fill="white" stroke="black" points="272.5,-116.5 272.5,-137.5 311.5,-137.5 311.5,-116.5 272.5,-116.5"/>
<text text-anchor="middle" x="292" y="-123.9" font-family="DejaVuSans" font-size="12.00">str.h</text>
</a>
</g>
</g>
<!-- Node7&#45;&gt;Node9 -->
<g id="edge8" class="edge">
<title>Node7&#45;&gt;Node9</title>
<path fill="none" stroke="midnightblue" d="M190.77,-464.15C180.35,-430.93 149.55,-320.16 171,-232 177.86,-203.8 180.38,-194.43 201,-174 218.35,-156.81 243.43,-144.79 262.86,-137.36"/>
<polygon fill="midnightblue" stroke="midnightblue" points="264.23,-140.58 272.44,-133.89 261.85,-134 264.23,-140.58"/>
</g>
<!-- Node7&#45;&gt;Node13 -->
<g id="edge15" class="edge">
<title>Node7&#45;&gt;Node13</title>
<path fill="none" stroke="midnightblue" d="M203.41,-464.25C211.15,-456.22 222.31,-444.64 231.53,-435.08"/>
<polygon fill="midnightblue" stroke="midnightblue" points="234.28,-437.27 238.7,-427.64 229.24,-432.41 234.28,-437.27"/>
</g>
<!-- Node18 -->
<g id="node18" class="node">
<title>Node18</title>
<g id="a_node18"><a xlink:href="fonts_8h.html" target="_top" xlink:title=" ">
<polygon fill="white" stroke="black" points="400,-406.5 400,-427.5 452,-427.5 452,-406.5 400,-406.5"/>
<text text-anchor="middle" x="426" y="-413.9" font-family="DejaVuSans" font-size="12.00">fonts.h</text>
</a>
</g>
</g>
<!-- Node7&#45;&gt;Node18 -->
<g id="edge23" class="edge">
<title>Node7&#45;&gt;Node18</title>
<path fill="none" stroke="midnightblue" d="M223.38,-466.91C265.78,-456.67 344.04,-437.78 389.9,-426.71"/>
<polygon fill="midnightblue" stroke="midnightblue" points="390.82,-430.09 399.71,-424.34 389.17,-423.29 390.82,-430.09"/>
</g>
<!-- Node9&#45;&gt;Node4 -->
<g id="edge14" class="edge">
<title>Node9&#45;&gt;Node4</title>
<path fill="none" stroke="midnightblue" d="M272.48,-118.56C248.76,-109.53 208.33,-94.13 179.36,-83.09"/>
<polygon fill="midnightblue" stroke="midnightblue" points="180.61,-79.82 170.02,-79.53 178.11,-86.36 180.61,-79.82"/>
</g>
<!-- Node9&#45;&gt;Node6 -->
<g id="edge10" class="edge">
<title>Node9&#45;&gt;Node6</title>
<path fill="none" stroke="midnightblue" d="M287.23,-116.28C277.93,-97.35 257.25,-55.25 245.2,-30.72"/>
<polygon fill="midnightblue" stroke="midnightblue" points="248.31,-29.13 240.76,-21.69 242.03,-32.21 248.31,-29.13"/>
</g>
<!-- Node10 -->
<g id="node10" class="node">
<title>Node10</title>
<g id="a_node10"><a xlink:title=" ">
<polygon fill="white" stroke="#bfbfbf" points="342,-0.5 342,-21.5 394,-21.5 394,-0.5 342,-0.5"/>
<text text-anchor="middle" x="368" y="-7.9" font-family="DejaVuSans" font-size="12.00">stdio.h</text>
</a>
</g>
</g>
<!-- Node9&#45;&gt;Node10 -->
<g id="edge9" class="edge">
<title>Node9&#45;&gt;Node10</title>
<path fill="none" stroke="midnightblue" d="M295.84,-116.3C301.46,-102.68 312.7,-77.37 326,-58 333.14,-47.6 342.5,-37.12 350.57,-28.8"/>
<polygon fill="midnightblue" stroke="midnightblue" points="353.22,-31.1 357.8,-21.55 348.26,-26.16 353.22,-31.1"/>
</g>
<!-- Node11 -->
<g id="node11" class="node">
<title>Node11</title>
<g id="a_node11"><a xlink:href="global__const_8h.html" target="_top" xlink:title=" ">
<polygon fill="white" stroke="black" points="430.5,-58.5 430.5,-79.5 523.5,-79.5 523.5,-58.5 430.5,-58.5"/>
<text text-anchor="middle" x="477" y="-65.9" font-family="DejaVuSans" font-size="12.00">global_const.h</text>
</a>
</g>
</g>
<!-- Node9&#45;&gt;Node11 -->
<g id="edge11" class="edge">
<title>Node9&#45;&gt;Node11</title>
<path fill="none" stroke="midnightblue" d="M311.8,-120.01C341.15,-111.12 396.88,-94.25 435.44,-82.58"/>
<polygon fill="midnightblue" stroke="midnightblue" points="436.78,-85.83 445.34,-79.58 434.75,-79.13 436.78,-85.83"/>
</g>
<!-- Node11&#45;&gt;Node10 -->
<g id="edge13" class="edge">
<title>Node11&#45;&gt;Node10</title>
<path fill="none" stroke="midnightblue" d="M458.01,-58.25C440.82,-49.41 415.28,-36.29 395.79,-26.28"/>
<polygon fill="midnightblue" stroke="midnightblue" points="397.26,-23.1 386.77,-21.64 394.06,-29.33 397.26,-23.1"/>
</g>
<!-- Node12 -->
<g id="node12" class="node">
<title>Node12</title>
<g id="a_node12"><a xlink:title=" ">
<polygon fill="white" stroke="#bfbfbf" points="447.5,-0.5 447.5,-21.5 506.5,-21.5 506.5,-0.5 447.5,-0.5"/>
<text text-anchor="middle" x="477" y="-7.9" font-family="DejaVuSans" font-size="12.00">assert.h</text>
</a>
</g>
</g>
<!-- Node11&#45;&gt;Node12 -->
<g id="edge12" class="edge">
<title>Node11&#45;&gt;Node12</title>
<path fill="none" stroke="midnightblue" d="M477,-58.25C477,-50.94 477,-40.69 477,-31.7"/>
<polygon fill="midnightblue" stroke="midnightblue" points="480.5,-31.64 477,-21.64 473.5,-31.64 480.5,-31.64"/>
</g>
<!-- Node14 -->
<g id="node14" class="node">
<title>Node14</title>
<g id="a_node14"><a xlink:href="lexer_8h.html" target="_top" xlink:title=" ">
<polygon fill="white" stroke="black" points="226,-348.5 226,-369.5 278,-369.5 278,-348.5 226,-348.5"/>
<text text-anchor="middle" x="252" y="-355.9" font-family="DejaVuSans" font-size="12.00">lexer.h</text>
</a>
</g>
</g>
<!-- Node13&#45;&gt;Node14 -->
<g id="edge16" class="edge">
<title>Node13&#45;&gt;Node14</title>
<path fill="none" stroke="midnightblue" d="M248.7,-406.25C249.22,-398.94 249.95,-388.69 250.59,-379.7"/>
<polygon fill="midnightblue" stroke="midnightblue" points="254.09,-379.87 251.31,-369.64 247.11,-379.37 254.09,-379.87"/>
</g>
<!-- Node14&#45;&gt;Node10 -->
<g id="edge17" class="edge">
<title>Node14&#45;&gt;Node10</title>
<path fill="none" stroke="midnightblue" d="M274.05,-348.44C289.36,-340.72 309.08,-328.43 321,-312 339.43,-286.6 340,-275.38 340,-244 340,-244 340,-244 340,-126 340,-91.85 352,-53.56 360.29,-31.18"/>
<polygon fill="midnightblue" stroke="midnightblue" points="363.66,-32.15 363.99,-21.56 357.13,-29.64 363.66,-32.15"/>
</g>
<!-- Node15 -->
<g id="node15" class="node">
<title>Node15</title>
<g id="a_node15"><a xlink:href="tex_8h.html" target="_top" xlink:title=" ">
<polygon fill="white" stroke="black" points="197,-290.5 197,-311.5 239,-311.5 239,-290.5 197,-290.5"/>
<text text-anchor="middle" x="218" y="-297.9" font-family="DejaVuSans" font-size="12.00">tex.h</text>
</a>
</g>
</g>
<!-- Node14&#45;&gt;Node15 -->
<g id="edge18" class="edge">
<title>Node14&#45;&gt;Node15</title>
<path fill="none" stroke="midnightblue" d="M246.08,-348.25C241.4,-340.54 234.73,-329.56 229.07,-320.23"/>
<polygon fill="midnightblue" stroke="midnightblue" points="232.04,-318.37 223.85,-311.64 226.05,-322.01 232.04,-318.37"/>
</g>
<!-- Node15&#45;&gt;Node4 -->
<g id="edge19" class="edge">
<title>Node15&#45;&gt;Node4</title>
<path fill="none" stroke="midnightblue" d="M204.04,-290.4C193.14,-282.1 178.63,-269.08 171,-254 143.53,-199.68 142.43,-125.49 143.75,-90.22"/>
<polygon fill="midnightblue" stroke="midnightblue" points="147.26,-89.99 144.25,-79.83 140.27,-89.65 147.26,-89.99"/>
</g>
<!-- Node16 -->
<g id="node16" class="node">
<title>Node16</title>
<g id="a_node16"><a xlink:href="tex__constant_8h.html" target="_top" xlink:title=" ">
<polygon fill="white" stroke="black" points="180,-232.5 180,-253.5 274,-253.5 274,-232.5 180,-232.5"/>
<text text-anchor="middle" x="227" y="-239.9" font-family="DejaVuSans" font-size="12.00">tex_constant.h</text>
</a>
</g>
</g>
<!-- Node15&#45;&gt;Node16 -->
<g id="edge20" class="edge">
<title>Node15&#45;&gt;Node16</title>
<path fill="none" stroke="midnightblue" d="M219.57,-290.25C220.74,-282.94 222.39,-272.69 223.83,-263.7"/>
<polygon fill="midnightblue" stroke="midnightblue" points="227.32,-264.07 225.45,-253.64 220.41,-262.96 227.32,-264.07"/>
</g>
<!-- Node17 -->
<g id="node17" class="node">
<title>Node17</title>
<g id="a_node17"><a xlink:href="box_8h.html" target="_top" xlink:title=" ">
<polygon fill="white" stroke="black" points="210,-174.5 210,-195.5 256,-195.5 256,-174.5 210,-174.5"/>
<text text-anchor="middle" x="233" y="-181.9" font-family="DejaVuSans" font-size="12.00">box.h</text>
</a>
</g>
</g>
<!-- Node16&#45;&gt;Node17 -->
<g id="edge21" class="edge">
<title>Node16&#45;&gt;Node17</title>
<path fill="none" stroke="midnightblue" d="M228.05,-232.25C228.83,-224.94 229.93,-214.69 230.89,-205.7"/>
<polygon fill="midnightblue" stroke="midnightblue" points="234.38,-205.96 231.97,-195.64 227.42,-205.21 234.38,-205.96"/>
</g>
<!-- Node17&#45;&gt;Node9 -->
<g id="edge22" class="edge">
<title>Node17&#45;&gt;Node9</title>
<path fill="none" stroke="midnightblue" d="M243.28,-174.25C251.82,-166.14 264.18,-154.41 274.31,-144.79"/>
<polygon fill="midnightblue" stroke="midnightblue" points="277,-147.07 281.84,-137.64 272.18,-141.99 277,-147.07"/>
</g>
<!-- Node18&#45;&gt;Node10 -->
<g id="edge24" class="edge">
<title>Node18&#45;&gt;Node10</title>
<path fill="none" stroke="midnightblue" d="M424.57,-406.27C421.8,-386.61 416,-340.74 416,-302 416,-302 416,-302 416,-242 416,-162.58 388.24,-70.93 374.94,-31.59"/>
<polygon fill="midnightblue" stroke="midnightblue" points="378.18,-30.24 371.61,-21.93 371.56,-32.53 378.18,-30.24"/>
</g>
<!-- Node18&#45;&gt;Node11 -->
<g id="edge25" class="edge">
<title>Node18&#45;&gt;Node11</title>
<path fill="none" stroke="midnightblue" d="M432.79,-406.46C445.58,-387.52 472,-343.4 472,-302 472,-302 472,-302 472,-184 472,-150.95 474.12,-112.57 475.6,-89.83"/>
<polygon fill="midnightblue" stroke="midnightblue" points="479.1,-89.97 476.28,-79.75 472.12,-89.49 479.1,-89.97"/>
</g>
<!-- Node19&#45;&gt;Node18 -->
<g id="edge27" class="edge">
<title>Node19&#45;&gt;Node18</title>
<path fill="none" stroke="midnightblue" d="M390.15,-580.26C396.21,-552.82 413.52,-474.51 421.66,-437.64"/>
<polygon fill="midnightblue" stroke="midnightblue" points="425.13,-438.15 423.87,-427.63 418.3,-436.64 425.13,-438.15"/>
</g>
<!-- Node20&#45;&gt;Node4 -->
<g id="edge30" class="edge">
<title>Node20&#45;&gt;Node4</title>
<path fill="none" stroke="midnightblue" d="M133.53,-638.77C106.3,-628.6 65.24,-612.32 52,-602 21.99,-578.61 0,-572.05 0,-534 0,-534 0,-534 0,-184 0,-131.27 60,-99.21 102.81,-83.04"/>
<polygon fill="midnightblue" stroke="midnightblue" points="104.24,-86.24 112.46,-79.55 101.86,-79.66 104.24,-86.24"/>
</g>
<!-- Node20&#45;&gt;Node9 -->
<g id="edge34" class="edge">
<title>Node20&#45;&gt;Node9</title>
<path fill="none" stroke="midnightblue" d="M172.68,-638.35C210.38,-610.79 315.46,-527.32 353,-428 391.59,-325.89 328.99,-194.52 302.73,-146.57"/>
<polygon fill="midnightblue" stroke="midnightblue" points="305.67,-144.65 297.73,-137.64 299.57,-148.07 305.67,-144.65"/>
</g>
<!-- Node20&#45;&gt;Node15 -->
<g id="edge31" class="edge">
<title>Node20&#45;&gt;Node15</title>
<path fill="none" stroke="midnightblue" d="M135.38,-638.49C100.17,-622.57 38,-586.96 38,-534 38,-534 38,-534 38,-416 38,-346.27 135.61,-317.42 187.07,-307.05"/>
<polygon fill="midnightblue" stroke="midnightblue" points="187.83,-310.47 197,-305.17 186.52,-303.59 187.83,-310.47"/>
</g>
<!-- Node21 -->
<g id="node21" class="node">
<title>Node21</title>
<g id="a_node21"><a xlink:href="texmac_8h.html" target="_top" xlink:title=" ">
<polygon fill="white" stroke="black" points="122.5,-580.5 122.5,-601.5 187.5,-601.5 187.5,-580.5 122.5,-580.5"/>
<text text-anchor="middle" x="155" y="-587.9" font-family="DejaVuSans" font-size="12.00">texmac.h</text>
</a>
</g>
</g>
<!-- Node20&#45;&gt;Node21 -->
<g id="edge32" class="edge">
<title>Node20&#45;&gt;Node21</title>
<path fill="none" stroke="midnightblue" d="M158.3,-638.25C157.78,-630.94 157.05,-620.69 156.41,-611.7"/>
<polygon fill="midnightblue" stroke="midnightblue" points="159.89,-611.37 155.69,-601.64 152.91,-611.87 159.89,-611.37"/>
</g>
<!-- Node21&#45;&gt;Node3 -->
<g id="edge33" class="edge">
<title>Node21&#45;&gt;Node3</title>
<path fill="none" stroke="midnightblue" d="M158.14,-580.25C160.51,-572.86 163.85,-562.47 166.76,-553.41"/>
<polygon fill="midnightblue" stroke="midnightblue" points="170.17,-554.23 169.9,-543.64 163.51,-552.09 170.17,-554.23"/>
</g>
<!-- Node23&#45;&gt;Node18 -->
<g id="edge37" class="edge">
<title>Node23&#45;&gt;Node18</title>
<path fill="none" stroke="midnightblue" d="M445.21,-522.28C441.77,-503.6 434.17,-462.37 429.63,-437.72"/>
<polygon fill="midnightblue" stroke="midnightblue" points="433.04,-436.9 427.79,-427.69 426.16,-438.16 433.04,-436.9"/>
</g>
<!-- Node27&#45;&gt;Node14 -->
<g id="edge42" class="edge">
<title>Node27&#45;&gt;Node14</title>
<path fill="none" stroke="midnightblue" d="M306.5,-406.25C296.76,-397.97 282.57,-385.94 271.12,-376.22"/>
<polygon fill="midnightblue" stroke="midnightblue" points="273.25,-373.44 263.36,-369.64 268.73,-378.78 273.25,-373.44"/>
</g>
<!-- Node28 -->
<g id="node28" class="node">
<title>Node28</title>
<g id="a_node28"><a xlink:href="eqtb_8h.html" target="_top" xlink:title=" ">
<polygon fill="white" stroke="black" points="262,-290.5 262,-311.5 312,-311.5 312,-290.5 262,-290.5"/>
<text text-anchor="middle" x="287" y="-297.9" font-family="DejaVuSans" font-size="12.00">eqtb.h</text>
</a>
</g>
</g>
<!-- Node27&#45;&gt;Node28 -->
<g id="edge43" class="edge">
<title>Node27&#45;&gt;Node28</title>
<path fill="none" stroke="midnightblue" d="M315.36,-406.28C310.26,-387.52 298.96,-346 292.27,-321.38"/>
<polygon fill="midnightblue" stroke="midnightblue" points="295.64,-320.43 289.64,-311.69 288.88,-322.26 295.64,-320.43"/>
</g>
<!-- Node28&#45;&gt;Node4 -->
<g id="edge44" class="edge">
<title>Node28&#45;&gt;Node4</title>
<path fill="none" stroke="midnightblue" d="M287.77,-290.23C289.05,-267.73 289.42,-211.36 265,-174 239.93,-135.64 196.83,-103.25 169.68,-85.25"/>
<polygon fill="midnightblue" stroke="midnightblue" points="171.43,-82.21 161.13,-79.71 167.62,-88.09 171.43,-82.21"/>
</g>
<!-- Node28&#45;&gt;Node16 -->
<g id="edge45" class="edge">
<title>Node28&#45;&gt;Node16</title>
<path fill="none" stroke="midnightblue" d="M276.55,-290.25C267.77,-282.05 255.04,-270.17 244.69,-260.51"/>
<polygon fill="midnightblue" stroke="midnightblue" points="247.03,-257.91 237.33,-253.64 242.25,-263.02 247.03,-257.91"/>
</g>
</g>
</svg>
