<?xml version="1.0" encoding="UTF-8" standalone="no"?>
<!DOCTYPE svg PUBLIC "-//W3C//DTD SVG 1.1//EN"
 "http://www.w3.org/Graphics/SVG/1.1/DTD/svg11.dtd">
<!-- Generated by graphviz version 2.47.3 (20210711.2253)
 -->
<!-- Title: align.h Pages: 1 -->
<svg width="578pt" height="378pt"
 viewBox="0.00 0.00 577.56 378.00" xmlns="http://www.w3.org/2000/svg" xmlns:xlink="http://www.w3.org/1999/xlink">
<g id="graph0" class="graph" transform="scale(1 1) rotate(0) translate(4 374)">
<title>align.h</title>
<polygon fill="white" stroke="transparent" points="-4,4 -4,-374 573.56,-374 573.56,4 -4,4"/>
<!-- Node1 -->
<g id="node1" class="node">
<title>Node1</title>
<g id="a_node1"><a xlink:title=" ">
<polygon fill="#bfbfbf" stroke="black" points="339.5,-348.5 339.5,-369.5 391.5,-369.5 391.5,-348.5 339.5,-348.5"/>
<text text-anchor="middle" x="365.5" y="-355.9" font-family="DejaVuSans" font-size="12.00">align.h</text>
</a>
</g>
</g>
<!-- Node2 -->
<g id="node2" class="node">
<title>Node2</title>
<g id="a_node2"><a xlink:href="global_8h.html" target="_top" xlink:title=" ">
<polygon fill="white" stroke="black" points="257.5,-116.5 257.5,-137.5 315.5,-137.5 315.5,-116.5 257.5,-116.5"/>
<text text-anchor="middle" x="286.5" y="-123.9" font-family="DejaVuSans" font-size="12.00">global.h</text>
</a>
</g>
</g>
<!-- Node1&#45;&gt;Node2 -->
<g id="edge1" class="edge">
<title>Node1&#45;&gt;Node2</title>
<path fill="none" stroke="midnightblue" d="M339.49,-354.28C275.93,-343.55 114.03,-305.98 60.5,-196 56.22,-187.21 54.31,-181.57 60.5,-174 83.63,-145.68 188.78,-134.36 247.15,-130.19"/>
<polygon fill="midnightblue" stroke="midnightblue" points="247.74,-133.66 257.48,-129.49 247.26,-126.68 247.74,-133.66"/>
</g>
<!-- Node10 -->
<g id="node10" class="node">
<title>Node10</title>
<g id="a_node10"><a xlink:href="mem_8h.html" target="_top" xlink:title=" ">
<polygon fill="white" stroke="black" points="410,-232.5 410,-253.5 463,-253.5 463,-232.5 410,-232.5"/>
<text text-anchor="middle" x="436.5" y="-239.9" font-family="DejaVuSans" font-size="12.00">mem.h</text>
</a>
</g>
</g>
<!-- Node1&#45;&gt;Node10 -->
<g id="edge9" class="edge">
<title>Node1&#45;&gt;Node10</title>
<path fill="none" stroke="midnightblue" d="M371.55,-348.28C383.4,-329.27 409.8,-286.88 425.04,-262.4"/>
<polygon fill="midnightblue" stroke="midnightblue" points="428.15,-264.03 430.46,-253.69 422.2,-260.33 428.15,-264.03"/>
</g>
<!-- Node12 -->
<g id="node12" class="node">
<title>Node12</title>
<g id="a_node12"><a xlink:href="box_8h.html" target="_top" xlink:title=" ">
<polygon fill="white" stroke="black" points="288.5,-290.5 288.5,-311.5 334.5,-311.5 334.5,-290.5 288.5,-290.5"/>
<text text-anchor="middle" x="311.5" y="-297.9" font-family="DejaVuSans" font-size="12.00">box.h</text>
</a>
</g>
</g>
<!-- Node1&#45;&gt;Node12 -->
<g id="edge13" class="edge">
<title>Node1&#45;&gt;Node12</title>
<path fill="none" stroke="midnightblue" d="M356.09,-348.25C348.35,-340.22 337.19,-328.64 327.97,-319.08"/>
<polygon fill="midnightblue" stroke="midnightblue" points="330.26,-316.41 320.8,-311.64 325.22,-321.27 330.26,-316.41"/>
</g>
<!-- Node17 -->
<g id="node17" class="node">
<title>Node17</title>
<g id="a_node17"><a xlink:href="lexer_8h.html" target="_top" xlink:title=" ">
<polygon fill="white" stroke="black" points="339.5,-232.5 339.5,-253.5 391.5,-253.5 391.5,-232.5 339.5,-232.5"/>
<text text-anchor="middle" x="365.5" y="-239.9" font-family="DejaVuSans" font-size="12.00">lexer.h</text>
</a>
</g>
</g>
<!-- Node1&#45;&gt;Node17 -->
<g id="edge24" class="edge">
<title>Node1&#45;&gt;Node17</title>
<path fill="none" stroke="midnightblue" d="M365.5,-348.28C365.5,-329.6 365.5,-288.37 365.5,-263.72"/>
<polygon fill="midnightblue" stroke="midnightblue" points="369,-263.69 365.5,-253.69 362,-263.7 369,-263.69"/>
</g>
<!-- Node18 -->
<g id="node18" class="node">
<title>Node18</title>
<g id="a_node18"><a xlink:href="eqtb_8h.html" target="_top" xlink:title=" ">
<polygon fill="white" stroke="black" points="483.5,-232.5 483.5,-253.5 533.5,-253.5 533.5,-232.5 483.5,-232.5"/>
<text text-anchor="middle" x="508.5" y="-239.9" font-family="DejaVuSans" font-size="12.00">eqtb.h</text>
</a>
</g>
</g>
<!-- Node1&#45;&gt;Node18 -->
<g id="edge28" class="edge">
<title>Node1&#45;&gt;Node18</title>
<path fill="none" stroke="midnightblue" d="M377.69,-348.28C402.28,-328.68 458.04,-284.23 488.21,-260.18"/>
<polygon fill="midnightblue" stroke="midnightblue" points="490.7,-262.67 496.34,-253.69 486.34,-257.19 490.7,-262.67"/>
</g>
<!-- Node3 -->
<g id="node3" class="node">
<title>Node3</title>
<g id="a_node3"><a xlink:href="global__macros_8h.html" target="_top" xlink:title=" ">
<polygon fill="white" stroke="black" points="234.5,-58.5 234.5,-79.5 338.5,-79.5 338.5,-58.5 234.5,-58.5"/>
<text text-anchor="middle" x="286.5" y="-65.9" font-family="DejaVuSans" font-size="12.00">global_macros.h</text>
</a>
</g>
</g>
<!-- Node2&#45;&gt;Node3 -->
<g id="edge2" class="edge">
<title>Node2&#45;&gt;Node3</title>
<path fill="none" stroke="midnightblue" d="M286.5,-116.25C286.5,-108.94 286.5,-98.69 286.5,-89.7"/>
<polygon fill="midnightblue" stroke="midnightblue" points="290,-89.64 286.5,-79.64 283,-89.64 290,-89.64"/>
</g>
<!-- Node5 -->
<g id="node5" class="node">
<title>Node5</title>
<g id="a_node5"><a xlink:href="global__const_8h.html" target="_top" xlink:title=" ">
<polygon fill="white" stroke="black" points="417,-58.5 417,-79.5 510,-79.5 510,-58.5 417,-58.5"/>
<text text-anchor="middle" x="463.5" y="-65.9" font-family="DejaVuSans" font-size="12.00">global_const.h</text>
</a>
</g>
</g>
<!-- Node2&#45;&gt;Node5 -->
<g id="edge4" class="edge">
<title>Node2&#45;&gt;Node5</title>
<path fill="none" stroke="midnightblue" d="M315.73,-116.75C345.18,-107.43 390.85,-92.99 423.62,-82.62"/>
<polygon fill="midnightblue" stroke="midnightblue" points="424.86,-85.9 433.34,-79.54 422.75,-79.22 424.86,-85.9"/>
</g>
<!-- Node6 -->
<g id="node6" class="node">
<title>Node6</title>
<g id="a_node6"><a xlink:href="tex__types_8h.html" target="_top" xlink:title=" ">
<polygon fill="white" stroke="black" points="109,-58.5 109,-79.5 186,-79.5 186,-58.5 109,-58.5"/>
<text text-anchor="middle" x="147.5" y="-65.9" font-family="DejaVuSans" font-size="12.00">tex_types.h</text>
</a>
</g>
</g>
<!-- Node2&#45;&gt;Node6 -->
<g id="edge5" class="edge">
<title>Node2&#45;&gt;Node6</title>
<path fill="none" stroke="midnightblue" d="M262.61,-116.37C239.99,-107.26 205.85,-93.51 180.61,-83.34"/>
<polygon fill="midnightblue" stroke="midnightblue" points="181.67,-79.99 171.08,-79.5 179.05,-86.48 181.67,-79.99"/>
</g>
<!-- Node4 -->
<g id="node4" class="node">
<title>Node4</title>
<g id="a_node4"><a xlink:title=" ">
<polygon fill="white" stroke="#bfbfbf" points="257,-0.5 257,-21.5 316,-21.5 316,-0.5 257,-0.5"/>
<text text-anchor="middle" x="286.5" y="-7.9" font-family="DejaVuSans" font-size="12.00">assert.h</text>
</a>
</g>
</g>
<!-- Node3&#45;&gt;Node4 -->
<g id="edge3" class="edge">
<title>Node3&#45;&gt;Node4</title>
<path fill="none" stroke="midnightblue" d="M286.5,-58.25C286.5,-50.94 286.5,-40.69 286.5,-31.7"/>
<polygon fill="midnightblue" stroke="midnightblue" points="290,-31.64 286.5,-21.64 283,-31.64 290,-31.64"/>
</g>
<!-- Node7 -->
<g id="node7" class="node">
<title>Node7</title>
<g id="a_node7"><a xlink:title=" ">
<polygon fill="white" stroke="#bfbfbf" points="166,-0.5 166,-21.5 231,-21.5 231,-0.5 166,-0.5"/>
<text text-anchor="middle" x="198.5" y="-7.9" font-family="DejaVuSans" font-size="12.00">stdbool.h</text>
</a>
</g>
</g>
<!-- Node6&#45;&gt;Node7 -->
<g id="edge6" class="edge">
<title>Node6&#45;&gt;Node7</title>
<path fill="none" stroke="midnightblue" d="M156.38,-58.25C163.7,-50.22 174.24,-38.64 182.95,-29.08"/>
<polygon fill="midnightblue" stroke="midnightblue" points="185.57,-31.39 189.72,-21.64 180.4,-26.68 185.57,-31.39"/>
</g>
<!-- Node8 -->
<g id="node8" class="node">
<title>Node8</title>
<g id="a_node8"><a xlink:title=" ">
<polygon fill="white" stroke="#bfbfbf" points="0,-0.5 0,-21.5 55,-21.5 55,-0.5 0,-0.5"/>
<text text-anchor="middle" x="27.5" y="-7.9" font-family="DejaVuSans" font-size="12.00">stdint.h</text>
</a>
</g>
</g>
<!-- Node6&#45;&gt;Node8 -->
<g id="edge7" class="edge">
<title>Node6&#45;&gt;Node8</title>
<path fill="none" stroke="midnightblue" d="M126.87,-58.37C107.61,-49.38 78.65,-35.87 56.96,-25.75"/>
<polygon fill="midnightblue" stroke="midnightblue" points="58.4,-22.56 47.86,-21.5 55.44,-28.9 58.4,-22.56"/>
</g>
<!-- Node9 -->
<g id="node9" class="node">
<title>Node9</title>
<g id="a_node9"><a xlink:title=" ">
<polygon fill="white" stroke="#bfbfbf" points="89,-0.5 89,-21.5 148,-21.5 148,-0.5 89,-0.5"/>
<text text-anchor="middle" x="118.5" y="-7.9" font-family="DejaVuSans" font-size="12.00">stddef.h</text>
</a>
</g>
</g>
<!-- Node6&#45;&gt;Node9 -->
<g id="edge8" class="edge">
<title>Node6&#45;&gt;Node9</title>
<path fill="none" stroke="midnightblue" d="M142.45,-58.25C138.5,-50.62 132.89,-39.79 128.09,-30.53"/>
<polygon fill="midnightblue" stroke="midnightblue" points="131.2,-28.91 123.49,-21.64 124.98,-32.13 131.2,-28.91"/>
</g>
<!-- Node10&#45;&gt;Node2 -->
<g id="edge10" class="edge">
<title>Node10&#45;&gt;Node2</title>
<path fill="none" stroke="midnightblue" d="M432.49,-232.39C426.03,-217.93 412.02,-190.54 392.5,-174 372.99,-157.47 346.63,-145.99 325.07,-138.64"/>
<polygon fill="midnightblue" stroke="midnightblue" points="326.14,-135.31 315.55,-135.55 323.98,-141.97 326.14,-135.31"/>
</g>
<!-- Node11 -->
<g id="node11" class="node">
<title>Node11</title>
<g id="a_node11"><a xlink:href="tex__constant_8h.html" target="_top" xlink:title=" ">
<polygon fill="white" stroke="black" points="461.5,-174.5 461.5,-195.5 555.5,-195.5 555.5,-174.5 461.5,-174.5"/>
<text text-anchor="middle" x="508.5" y="-181.9" font-family="DejaVuSans" font-size="12.00">tex_constant.h</text>
</a>
</g>
</g>
<!-- Node10&#45;&gt;Node11 -->
<g id="edge11" class="edge">
<title>Node10&#45;&gt;Node11</title>
<path fill="none" stroke="midnightblue" d="M449.04,-232.25C459.78,-223.89 475.45,-211.71 488,-201.94"/>
<polygon fill="midnightblue" stroke="midnightblue" points="490.36,-204.54 496.1,-195.64 486.06,-199.02 490.36,-204.54"/>
</g>
<!-- Node11&#45;&gt;Node5 -->
<g id="edge12" class="edge">
<title>Node11&#45;&gt;Node5</title>
<path fill="none" stroke="midnightblue" d="M504.66,-174.28C497.22,-155.43 480.72,-113.62 471.02,-89.05"/>
<polygon fill="midnightblue" stroke="midnightblue" points="474.25,-87.71 467.33,-79.69 467.74,-90.28 474.25,-87.71"/>
</g>
<!-- Node12&#45;&gt;Node2 -->
<g id="edge14" class="edge">
<title>Node12&#45;&gt;Node2</title>
<path fill="none" stroke="midnightblue" d="M309.07,-290.33C304.59,-272.04 295.05,-231.07 290.5,-196 288.41,-179.87 287.41,-161.45 286.93,-147.86"/>
<polygon fill="midnightblue" stroke="midnightblue" points="290.43,-147.62 286.64,-137.72 283.43,-147.82 290.43,-147.62"/>
</g>
<!-- Node12&#45;&gt;Node10 -->
<g id="edge15" class="edge">
<title>Node12&#45;&gt;Node10</title>
<path fill="none" stroke="midnightblue" d="M332.99,-290.37C353.14,-281.34 383.49,-267.75 406.12,-257.61"/>
<polygon fill="midnightblue" stroke="midnightblue" points="407.6,-260.78 415.29,-253.5 404.74,-254.4 407.6,-260.78"/>
</g>
<!-- Node13 -->
<g id="node13" class="node">
<title>Node13</title>
<g id="a_node13"><a xlink:href="texmath_8h.html" target="_top" xlink:title=" ">
<polygon fill="white" stroke="black" points="299.5,-174.5 299.5,-195.5 367.5,-195.5 367.5,-174.5 299.5,-174.5"/>
<text text-anchor="middle" x="333.5" y="-181.9" font-family="DejaVuSans" font-size="12.00">texmath.h</text>
</a>
</g>
</g>
<!-- Node12&#45;&gt;Node13 -->
<g id="edge16" class="edge">
<title>Node12&#45;&gt;Node13</title>
<path fill="none" stroke="midnightblue" d="M313.38,-290.28C316.98,-271.6 324.94,-230.37 329.7,-205.72"/>
<polygon fill="midnightblue" stroke="midnightblue" points="333.17,-206.18 331.63,-195.69 326.3,-204.85 333.17,-206.18"/>
</g>
<!-- Node14 -->
<g id="node14" class="node">
<title>Node14</title>
<g id="a_node14"><a xlink:href="str_8h.html" target="_top" xlink:title=" ">
<polygon fill="white" stroke="black" points="144,-232.5 144,-253.5 183,-253.5 183,-232.5 144,-232.5"/>
<text text-anchor="middle" x="163.5" y="-239.9" font-family="DejaVuSans" font-size="12.00">str.h</text>
</a>
</g>
</g>
<!-- Node12&#45;&gt;Node14 -->
<g id="edge18" class="edge">
<title>Node12&#45;&gt;Node14</title>
<path fill="none" stroke="midnightblue" d="M288.38,-291.25C262.6,-281.5 220.86,-265.7 192.81,-255.09"/>
<polygon fill="midnightblue" stroke="midnightblue" points="193.74,-251.7 183.15,-251.44 191.27,-258.25 193.74,-251.7"/>
</g>
<!-- Node13&#45;&gt;Node2 -->
<g id="edge17" class="edge">
<title>Node13&#45;&gt;Node2</title>
<path fill="none" stroke="midnightblue" d="M325.31,-174.25C318.64,-166.3 309.05,-154.87 301.07,-145.37"/>
<polygon fill="midnightblue" stroke="midnightblue" points="303.7,-143.05 294.59,-137.64 298.34,-147.55 303.7,-143.05"/>
</g>
<!-- Node14&#45;&gt;Node2 -->
<g id="edge21" class="edge">
<title>Node14&#45;&gt;Node2</title>
<path fill="none" stroke="midnightblue" d="M163.69,-232.47C164.46,-218.12 167.9,-190.87 182.5,-174 199.19,-154.71 225.53,-143.17 247.52,-136.48"/>
<polygon fill="midnightblue" stroke="midnightblue" points="248.59,-139.81 257.27,-133.73 246.7,-133.08 248.59,-139.81"/>
</g>
<!-- Node14&#45;&gt;Node8 -->
<g id="edge20" class="edge">
<title>Node14&#45;&gt;Node8</title>
<path fill="none" stroke="midnightblue" d="M143.8,-238.88C120.16,-234.04 81.14,-222.37 60.5,-196 22.23,-147.11 22.73,-68.54 25.43,-31.95"/>
<polygon fill="midnightblue" stroke="midnightblue" points="28.94,-31.9 26.33,-21.64 21.97,-31.29 28.94,-31.9"/>
</g>
<!-- Node15 -->
<g id="node15" class="node">
<title>Node15</title>
<g id="a_node15"><a xlink:title=" ">
<polygon fill="white" stroke="#bfbfbf" points="191.5,-174.5 191.5,-195.5 243.5,-195.5 243.5,-174.5 191.5,-174.5"/>
<text text-anchor="middle" x="217.5" y="-181.9" font-family="DejaVuSans" font-size="12.00">stdio.h</text>
</a>
</g>
</g>
<!-- Node14&#45;&gt;Node15 -->
<g id="edge19" class="edge">
<title>Node14&#45;&gt;Node15</title>
<path fill="none" stroke="midnightblue" d="M172.91,-232.25C180.65,-224.22 191.81,-212.64 201.03,-203.08"/>
<polygon fill="midnightblue" stroke="midnightblue" points="203.78,-205.27 208.2,-195.64 198.74,-200.41 203.78,-205.27"/>
</g>
<!-- Node16 -->
<g id="node16" class="node">
<title>Node16</title>
<g id="a_node16"><a xlink:href="charset_8h.html" target="_top" xlink:title=" ">
<polygon fill="white" stroke="black" points="70,-174.5 70,-195.5 135,-195.5 135,-174.5 70,-174.5"/>
<text text-anchor="middle" x="102.5" y="-181.9" font-family="DejaVuSans" font-size="12.00">charset.h</text>
</a>
</g>
</g>
<!-- Node14&#45;&gt;Node16 -->
<g id="edge22" class="edge">
<title>Node14&#45;&gt;Node16</title>
<path fill="none" stroke="midnightblue" d="M152.87,-232.25C143.95,-224.05 131.01,-212.17 120.48,-202.51"/>
<polygon fill="midnightblue" stroke="midnightblue" points="122.74,-199.83 113,-195.64 118,-204.98 122.74,-199.83"/>
</g>
<!-- Node16&#45;&gt;Node2 -->
<g id="edge23" class="edge">
<title>Node16&#45;&gt;Node2</title>
<path fill="none" stroke="midnightblue" d="M134.13,-174.37C165.51,-164.82 213.67,-150.17 247.42,-139.89"/>
<polygon fill="midnightblue" stroke="midnightblue" points="248.85,-143.12 257.4,-136.86 246.82,-136.42 248.85,-143.12"/>
</g>
<!-- Node17&#45;&gt;Node2 -->
<g id="edge26" class="edge">
<title>Node17&#45;&gt;Node2</title>
<path fill="none" stroke="midnightblue" d="M370.8,-232.43C377.73,-218.52 387.74,-192.36 376.5,-174 365.27,-155.65 344.15,-144.32 325.19,-137.5"/>
<polygon fill="midnightblue" stroke="midnightblue" points="326.13,-134.13 315.53,-134.33 323.94,-140.78 326.13,-134.13"/>
</g>
<!-- Node17&#45;&gt;Node11 -->
<g id="edge27" class="edge">
<title>Node17&#45;&gt;Node11</title>
<path fill="none" stroke="midnightblue" d="M390.08,-232.37C413.45,-223.22 448.79,-209.38 474.78,-199.21"/>
<polygon fill="midnightblue" stroke="midnightblue" points="476.2,-202.41 484.24,-195.5 473.65,-195.89 476.2,-202.41"/>
</g>
<!-- Node17&#45;&gt;Node15 -->
<g id="edge25" class="edge">
<title>Node17&#45;&gt;Node15</title>
<path fill="none" stroke="midnightblue" d="M340.06,-232.37C315.77,-223.18 278.98,-209.26 252.05,-199.07"/>
<polygon fill="midnightblue" stroke="midnightblue" points="253.2,-195.77 242.61,-195.5 250.72,-202.31 253.2,-195.77"/>
</g>
<!-- Node18&#45;&gt;Node2 -->
<g id="edge29" class="edge">
<title>Node18&#45;&gt;Node2</title>
<path fill="none" stroke="midnightblue" d="M526.21,-232.47C548.54,-219.25 582.01,-194.64 564.5,-174 534.33,-138.42 394.83,-130.33 325.64,-128.51"/>
<polygon fill="midnightblue" stroke="midnightblue" points="325.64,-125.01 315.56,-128.27 325.48,-132.01 325.64,-125.01"/>
</g>
<!-- Node18&#45;&gt;Node11 -->
<g id="edge30" class="edge">
<title>Node18&#45;&gt;Node11</title>
<path fill="none" stroke="midnightblue" d="M508.5,-232.25C508.5,-224.94 508.5,-214.69 508.5,-205.7"/>
<polygon fill="midnightblue" stroke="midnightblue" points="512,-205.64 508.5,-195.64 505,-205.64 512,-205.64"/>
</g>
</g>
</svg>
