<?xml version="1.0" encoding="UTF-8" standalone="no"?>
<!DOCTYPE svg PUBLIC "-//W3C//DTD SVG 1.1//EN"
 "http://www.w3.org/Graphics/SVG/1.1/DTD/svg11.dtd">
<!-- Generated by graphviz version 2.44.0 ()
 -->
<!-- Title: align.h Pages: 1 -->
<svg width="387pt" height="146pt"
 viewBox="0.00 0.00 386.50 146.00" xmlns="http://www.w3.org/2000/svg" xmlns:xlink="http://www.w3.org/1999/xlink">
<g id="graph0" class="graph" transform="scale(1 1) rotate(0) translate(4 142)">
<title>align.h</title>
<polygon fill="white" stroke="transparent" points="-4,4 -4,-142 382.5,-142 382.5,4 -4,4"/>
<!-- Node1 -->
<g id="node1" class="node">
<title>Node1</title>
<g id="a_node1"><a xlink:title=" ">
<polygon fill="#bfbfbf" stroke="black" points="138.5,-116.5 138.5,-137.5 190.5,-137.5 190.5,-116.5 138.5,-116.5"/>
<text text-anchor="middle" x="164.5" y="-123.9" font-family="DejaVuSans" font-size="12.00">align.h</text>
</a>
</g>
</g>
<!-- Node2 -->
<g id="node2" class="node">
<title>Node2</title>
<g id="a_node2"><a xlink:href="align_8c.html" target="_top" xlink:title=" ">
<polygon fill="white" stroke="black" points="0,-58.5 0,-79.5 51,-79.5 51,-58.5 0,-58.5"/>
<text text-anchor="middle" x="25.5" y="-65.9" font-family="DejaVuSans" font-size="12.00">align.c</text>
</a>
</g>
</g>
<!-- Node1&#45;&gt;Node2 -->
<g id="edge1" class="edge">
<title>Node1&#45;&gt;Node2</title>
<path fill="none" stroke="midnightblue" d="M131.04,-112.52C105.72,-102.32 71.59,-88.57 49.08,-79.5"/>
<polygon fill="midnightblue" stroke="midnightblue" points="130.02,-115.88 140.61,-116.37 132.64,-109.39 130.02,-115.88"/>
</g>
<!-- Node3 -->
<g id="node3" class="node">
<title>Node3</title>
<g id="a_node3"><a xlink:href="lexer_8c.html" target="_top" xlink:title=" ">
<polygon fill="white" stroke="black" points="69,-58.5 69,-79.5 120,-79.5 120,-58.5 69,-58.5"/>
<text text-anchor="middle" x="94.5" y="-65.9" font-family="DejaVuSans" font-size="12.00">lexer.c</text>
</a>
</g>
</g>
<!-- Node1&#45;&gt;Node3 -->
<g id="edge2" class="edge">
<title>Node1&#45;&gt;Node3</title>
<path fill="none" stroke="midnightblue" d="M144.41,-109.93C132.17,-100.14 116.95,-87.96 106.55,-79.64"/>
<polygon fill="midnightblue" stroke="midnightblue" points="142.31,-112.73 152.31,-116.25 146.68,-107.27 142.31,-112.73"/>
</g>
<!-- Node4 -->
<g id="node4" class="node">
<title>Node4</title>
<g id="a_node4"><a xlink:href="mem_8c.html" target="_top" xlink:title=" ">
<polygon fill="white" stroke="black" points="138.5,-58.5 138.5,-79.5 190.5,-79.5 190.5,-58.5 138.5,-58.5"/>
<text text-anchor="middle" x="164.5" y="-65.9" font-family="DejaVuSans" font-size="12.00">mem.c</text>
</a>
</g>
</g>
<!-- Node1&#45;&gt;Node4 -->
<g id="edge3" class="edge">
<title>Node1&#45;&gt;Node4</title>
<path fill="none" stroke="midnightblue" d="M164.5,-106.16C164.5,-97.16 164.5,-86.92 164.5,-79.64"/>
<polygon fill="midnightblue" stroke="midnightblue" points="161,-106.25 164.5,-116.25 168,-106.25 161,-106.25"/>
</g>
<!-- Node5 -->
<g id="node5" class="node">
<title>Node5</title>
<g id="a_node5"><a xlink:href="printout_8c.html" target="_top" xlink:title=" ">
<polygon fill="white" stroke="black" points="209,-58.5 209,-79.5 274,-79.5 274,-58.5 209,-58.5"/>
<text text-anchor="middle" x="241.5" y="-65.9" font-family="DejaVuSans" font-size="12.00">printout.c</text>
</a>
</g>
</g>
<!-- Node1&#45;&gt;Node5 -->
<g id="edge4" class="edge">
<title>Node1&#45;&gt;Node5</title>
<path fill="none" stroke="midnightblue" d="M186.21,-110.21C199.74,-100.37 216.7,-88.04 228.24,-79.64"/>
<polygon fill="midnightblue" stroke="midnightblue" points="183.94,-107.53 177.91,-116.25 188.06,-113.19 183.94,-107.53"/>
</g>
<!-- Node6 -->
<g id="node6" class="node">
<title>Node6</title>
<g id="a_node6"><a xlink:href="tex__header_8h.html" target="_top" xlink:title=" ">
<polygon fill="white" stroke="black" points="292.5,-58.5 292.5,-79.5 378.5,-79.5 378.5,-58.5 292.5,-58.5"/>
<text text-anchor="middle" x="335.5" y="-65.9" font-family="DejaVuSans" font-size="12.00">tex_header.h</text>
</a>
</g>
</g>
<!-- Node1&#45;&gt;Node6 -->
<g id="edge5" class="edge">
<title>Node1&#45;&gt;Node6</title>
<path fill="none" stroke="midnightblue" d="M200.54,-114.2C231.97,-103.9 277.01,-89.15 306.26,-79.58"/>
<polygon fill="midnightblue" stroke="midnightblue" points="199.26,-110.93 190.84,-117.37 201.44,-117.59 199.26,-110.93"/>
</g>
<!-- Node7 -->
<g id="node7" class="node">
<title>Node7</title>
<g id="a_node7"><a xlink:href="tex_8c.html" target="_top" xlink:title=" ">
<polygon fill="white" stroke="black" points="315,-0.5 315,-21.5 356,-21.5 356,-0.5 315,-0.5"/>
<text text-anchor="middle" x="335.5" y="-7.9" font-family="DejaVuSans" font-size="12.00">tex.c</text>
</a>
</g>
</g>
<!-- Node6&#45;&gt;Node7 -->
<g id="edge6" class="edge">
<title>Node6&#45;&gt;Node7</title>
<path fill="none" stroke="midnightblue" d="M335.5,-48.16C335.5,-39.16 335.5,-28.92 335.5,-21.64"/>
<polygon fill="midnightblue" stroke="midnightblue" points="332,-48.25 335.5,-58.25 339,-48.25 332,-48.25"/>
</g>
</g>
</svg>
