<?xml version="1.0" encoding="UTF-8" standalone="no"?>
<!DOCTYPE svg PUBLIC "-//W3C//DTD SVG 1.1//EN"
 "http://www.w3.org/Graphics/SVG/1.1/DTD/svg11.dtd">
<!-- Generated by graphviz version 2.44.0 ()
 -->
<!-- Title: align.h Pages: 1 -->
<svg width="731pt" height="204pt"
 viewBox="0.00 0.00 730.50 204.00" xmlns="http://www.w3.org/2000/svg" xmlns:xlink="http://www.w3.org/1999/xlink">
<g id="graph0" class="graph" transform="scale(1 1) rotate(0) translate(4 200)">
<title>align.h</title>
<polygon fill="white" stroke="transparent" points="-4,4 -4,-200 726.5,-200 726.5,4 -4,4"/>
<!-- Node1 -->
<g id="node1" class="node">
<title>Node1</title>
<g id="a_node1"><a xlink:title=" ">
<polygon fill="#bfbfbf" stroke="black" points="299.5,-174.5 299.5,-195.5 351.5,-195.5 351.5,-174.5 299.5,-174.5"/>
<text text-anchor="middle" x="325.5" y="-181.9" font-family="DejaVuSans" font-size="12.00">align.h</text>
</a>
</g>
</g>
<!-- Node2 -->
<g id="node2" class="node">
<title>Node2</title>
<g id="a_node2"><a xlink:href="align_8c.html" target="_top" xlink:title=" ">
<polygon fill="white" stroke="black" points="0,-58.5 0,-79.5 51,-79.5 51,-58.5 0,-58.5"/>
<text text-anchor="middle" x="25.5" y="-65.9" font-family="DejaVuSans" font-size="12.00">align.c</text>
</a>
</g>
</g>
<!-- Node1&#45;&gt;Node2 -->
<g id="edge1" class="edge">
<title>Node1&#45;&gt;Node2</title>
<path fill="none" stroke="midnightblue" d="M289.56,-174.13C259.34,-165.53 215.16,-152.22 177.5,-138 128.82,-119.62 73.45,-93.47 44.86,-79.56"/>
<polygon fill="midnightblue" stroke="midnightblue" points="288.67,-177.52 299.25,-176.87 290.57,-170.78 288.67,-177.52"/>
</g>
<!-- Node3 -->
<g id="node3" class="node">
<title>Node3</title>
<g id="a_node3"><a xlink:href="lexer_8c.html" target="_top" xlink:title=" ">
<polygon fill="white" stroke="black" points="187,-116.5 187,-137.5 238,-137.5 238,-116.5 187,-116.5"/>
<text text-anchor="middle" x="212.5" y="-123.9" font-family="DejaVuSans" font-size="12.00">lexer.c</text>
</a>
</g>
</g>
<!-- Node1&#45;&gt;Node3 -->
<g id="edge2" class="edge">
<title>Node1&#45;&gt;Node3</title>
<path fill="none" stroke="midnightblue" d="M296.92,-169.84C276.49,-159.71 249.56,-146.37 231.67,-137.5"/>
<polygon fill="midnightblue" stroke="midnightblue" points="295.56,-173.07 306.07,-174.37 298.67,-166.8 295.56,-173.07"/>
</g>
<!-- Node4 -->
<g id="node4" class="node">
<title>Node4</title>
<g id="a_node4"><a xlink:href="main__ctrl_8h.html" target="_top" xlink:title=" ">
<polygon fill="white" stroke="black" points="256.5,-116.5 256.5,-137.5 330.5,-137.5 330.5,-116.5 256.5,-116.5"/>
<text text-anchor="middle" x="293.5" y="-123.9" font-family="DejaVuSans" font-size="12.00">main_ctrl.h</text>
</a>
</g>
</g>
<!-- Node1&#45;&gt;Node4 -->
<g id="edge3" class="edge">
<title>Node1&#45;&gt;Node4</title>
<path fill="none" stroke="midnightblue" d="M314.84,-165.34C309.53,-156.06 303.35,-145.24 299.01,-137.64"/>
<polygon fill="midnightblue" stroke="midnightblue" points="311.93,-167.3 319.93,-174.25 318,-163.83 311.93,-167.3"/>
</g>
<!-- Node11 -->
<g id="node11" class="node">
<title>Node11</title>
<g id="a_node11"><a xlink:href="tex__header_8h.html" target="_top" xlink:title=" ">
<polygon fill="white" stroke="black" points="636.5,-58.5 636.5,-79.5 722.5,-79.5 722.5,-58.5 636.5,-58.5"/>
<text text-anchor="middle" x="679.5" y="-65.9" font-family="DejaVuSans" font-size="12.00">tex_header.h</text>
</a>
</g>
</g>
<!-- Node1&#45;&gt;Node11 -->
<g id="edge18" class="edge">
<title>Node1&#45;&gt;Node11</title>
<path fill="none" stroke="midnightblue" d="M334.56,-165.23C343.26,-149.37 357.97,-127.46 377.5,-116 474.33,-59.2 516.8,-98.6 627.5,-80 630.4,-79.51 633.39,-78.99 636.4,-78.45"/>
<polygon fill="midnightblue" stroke="midnightblue" points="331.42,-163.68 329.93,-174.17 337.64,-166.9 331.42,-163.68"/>
</g>
<!-- Node13 -->
<g id="node13" class="node">
<title>Node13</title>
<g id="a_node13"><a xlink:href="mem_8c.html" target="_top" xlink:title=" ">
<polygon fill="white" stroke="black" points="386.5,-116.5 386.5,-137.5 438.5,-137.5 438.5,-116.5 386.5,-116.5"/>
<text text-anchor="middle" x="412.5" y="-123.9" font-family="DejaVuSans" font-size="12.00">mem.c</text>
</a>
</g>
</g>
<!-- Node1&#45;&gt;Node13 -->
<g id="edge16" class="edge">
<title>Node1&#45;&gt;Node13</title>
<path fill="none" stroke="midnightblue" d="M349.16,-168.77C364.58,-158.85 384.23,-146.2 397.52,-137.64"/>
<polygon fill="midnightblue" stroke="midnightblue" points="347.17,-165.89 340.65,-174.25 350.96,-171.78 347.17,-165.89"/>
</g>
<!-- Node14 -->
<g id="node14" class="node">
<title>Node14</title>
<g id="a_node14"><a xlink:href="printout_8c.html" target="_top" xlink:title=" ">
<polygon fill="white" stroke="black" points="457,-116.5 457,-137.5 522,-137.5 522,-116.5 457,-116.5"/>
<text text-anchor="middle" x="489.5" y="-123.9" font-family="DejaVuSans" font-size="12.00">printout.c</text>
</a>
</g>
</g>
<!-- Node1&#45;&gt;Node14 -->
<g id="edge17" class="edge">
<title>Node1&#45;&gt;Node14</title>
<path fill="none" stroke="midnightblue" d="M361.55,-171.69C391.67,-161.41 433.98,-146.96 461.57,-137.54"/>
<polygon fill="midnightblue" stroke="midnightblue" points="360.18,-168.46 351.85,-175 362.44,-175.08 360.18,-168.46"/>
</g>
<!-- Node4&#45;&gt;Node2 -->
<g id="edge4" class="edge">
<title>Node4&#45;&gt;Node2</title>
<path fill="none" stroke="midnightblue" d="M246.8,-116.06C246.7,-116.04 246.6,-116.02 246.5,-116 163.55,-99.19 141.75,-99.96 59.5,-80 56.75,-79.33 53.89,-78.58 51.05,-77.8"/>
<polygon fill="midnightblue" stroke="midnightblue" points="245.81,-119.43 256.31,-118.02 247.22,-112.57 245.81,-119.43"/>
</g>
<!-- Node5 -->
<g id="node5" class="node">
<title>Node5</title>
<g id="a_node5"><a xlink:href="build__box_8c.html" target="_top" xlink:title=" ">
<polygon fill="white" stroke="black" points="69,-58.5 69,-79.5 146,-79.5 146,-58.5 69,-58.5"/>
<text text-anchor="middle" x="107.5" y="-65.9" font-family="DejaVuSans" font-size="12.00">build_box.c</text>
</a>
</g>
</g>
<!-- Node4&#45;&gt;Node5 -->
<g id="edge5" class="edge">
<title>Node4&#45;&gt;Node5</title>
<path fill="none" stroke="midnightblue" d="M251.84,-113.46C217.69,-103.18 170.11,-88.85 139.06,-79.5"/>
<polygon fill="midnightblue" stroke="midnightblue" points="250.94,-116.84 261.53,-116.37 252.96,-110.14 250.94,-116.84"/>
</g>
<!-- Node6 -->
<g id="node6" class="node">
<title>Node6</title>
<g id="a_node6"><a xlink:href="main__ctrl_8c.html" target="_top" xlink:title=" ">
<polygon fill="white" stroke="black" points="172.5,-0.5 172.5,-21.5 246.5,-21.5 246.5,-0.5 172.5,-0.5"/>
<text text-anchor="middle" x="209.5" y="-7.9" font-family="DejaVuSans" font-size="12.00">main_ctrl.c</text>
</a>
</g>
</g>
<!-- Node4&#45;&gt;Node6 -->
<g id="edge12" class="edge">
<title>Node4&#45;&gt;Node6</title>
<path fill="none" stroke="midnightblue" d="M254.44,-112.97C229.55,-103.79 200.67,-91.19 193.5,-80 181.72,-61.62 194.42,-35.47 202.99,-21.56"/>
<polygon fill="midnightblue" stroke="midnightblue" points="253.49,-116.35 264.08,-116.44 255.86,-109.76 253.49,-116.35"/>
</g>
<!-- Node7 -->
<g id="node7" class="node">
<title>Node7</title>
<g id="a_node7"><a xlink:href="build__math_8c.html" target="_top" xlink:title=" ">
<polygon fill="white" stroke="black" points="202.5,-58.5 202.5,-79.5 286.5,-79.5 286.5,-58.5 202.5,-58.5"/>
<text text-anchor="middle" x="244.5" y="-65.9" font-family="DejaVuSans" font-size="12.00">build_math.c</text>
</a>
</g>
</g>
<!-- Node4&#45;&gt;Node7 -->
<g id="edge7" class="edge">
<title>Node4&#45;&gt;Node7</title>
<path fill="none" stroke="midnightblue" d="M278.19,-108.5C269.86,-98.98 259.86,-87.56 252.94,-79.64"/>
<polygon fill="midnightblue" stroke="midnightblue" points="275.75,-111.02 284.96,-116.25 281.01,-106.41 275.75,-111.02"/>
</g>
<!-- Node8 -->
<g id="node8" class="node">
<title>Node8</title>
<g id="a_node8"><a xlink:href="extension_8c.html" target="_top" xlink:title=" ">
<polygon fill="white" stroke="black" points="305,-58.5 305,-79.5 382,-79.5 382,-58.5 305,-58.5"/>
<text text-anchor="middle" x="343.5" y="-65.9" font-family="DejaVuSans" font-size="12.00">extension.c</text>
</a>
</g>
</g>
<!-- Node4&#45;&gt;Node8 -->
<g id="edge9" class="edge">
<title>Node4&#45;&gt;Node8</title>
<path fill="none" stroke="midnightblue" d="M309.12,-108.5C317.63,-98.98 327.82,-87.56 334.89,-79.64"/>
<polygon fill="midnightblue" stroke="midnightblue" points="306.26,-106.46 302.21,-116.25 311.48,-111.12 306.26,-106.46"/>
</g>
<!-- Node9 -->
<g id="node9" class="node">
<title>Node9</title>
<g id="a_node9"><a xlink:href="indep__process_8c.html" target="_top" xlink:title=" ">
<polygon fill="white" stroke="black" points="400.5,-58.5 400.5,-79.5 504.5,-79.5 504.5,-58.5 400.5,-58.5"/>
<text text-anchor="middle" x="452.5" y="-65.9" font-family="DejaVuSans" font-size="12.00">indep_process.c</text>
</a>
</g>
</g>
<!-- Node4&#45;&gt;Node9 -->
<g id="edge10" class="edge">
<title>Node4&#45;&gt;Node9</title>
<path fill="none" stroke="midnightblue" d="M330.63,-112.92C359.7,-102.69 399.44,-88.69 425.52,-79.5"/>
<polygon fill="midnightblue" stroke="midnightblue" points="329.1,-109.75 320.83,-116.37 331.43,-116.35 329.1,-109.75"/>
</g>
<!-- Node10 -->
<g id="node10" class="node">
<title>Node10</title>
<g id="a_node10"><a xlink:href="page__builder_8c.html" target="_top" xlink:title=" ">
<polygon fill="white" stroke="black" points="523,-58.5 523,-79.5 618,-79.5 618,-58.5 523,-58.5"/>
<text text-anchor="middle" x="570.5" y="-65.9" font-family="DejaVuSans" font-size="12.00">page_builder.c</text>
</a>
</g>
</g>
<!-- Node4&#45;&gt;Node10 -->
<g id="edge13" class="edge">
<title>Node4&#45;&gt;Node10</title>
<path fill="none" stroke="midnightblue" d="M340.67,-116.46C391.68,-106.15 472.51,-89.81 523.47,-79.51"/>
<polygon fill="midnightblue" stroke="midnightblue" points="339.68,-113.09 330.57,-118.51 341.07,-119.95 339.68,-113.09"/>
</g>
<!-- Node4&#45;&gt;Node11 -->
<g id="edge14" class="edge">
<title>Node4&#45;&gt;Node11</title>
<path fill="none" stroke="midnightblue" d="M340.7,-116.63C341.98,-116.41 343.25,-116.2 344.5,-116 469.67,-95.79 502.29,-99.98 627.5,-80 630.41,-79.54 633.4,-79.03 636.41,-78.51"/>
<polygon fill="midnightblue" stroke="midnightblue" points="340.01,-113.2 330.77,-118.39 341.23,-120.09 340.01,-113.2"/>
</g>
<!-- Node5&#45;&gt;Node6 -->
<g id="edge6" class="edge">
<title>Node5&#45;&gt;Node6</title>
<path fill="none" stroke="midnightblue" d="M134.23,-53.32C152.45,-43.32 176.06,-30.36 191.94,-21.64"/>
<polygon fill="midnightblue" stroke="midnightblue" points="132.35,-50.36 125.27,-58.25 135.72,-56.5 132.35,-50.36"/>
</g>
<!-- Node7&#45;&gt;Node6 -->
<g id="edge8" class="edge">
<title>Node7&#45;&gt;Node6</title>
<path fill="none" stroke="midnightblue" d="M233.02,-49.63C227.18,-40.29 220.32,-29.32 215.53,-21.64"/>
<polygon fill="midnightblue" stroke="midnightblue" points="230.14,-51.62 238.4,-58.25 236.07,-47.91 230.14,-51.62"/>
</g>
<!-- Node9&#45;&gt;Node6 -->
<g id="edge11" class="edge">
<title>Node9&#45;&gt;Node6</title>
<path fill="none" stroke="midnightblue" d="M401.18,-56.17C354.97,-45.52 288.15,-30.12 246.84,-20.6"/>
<polygon fill="midnightblue" stroke="midnightblue" points="400.47,-59.6 411,-58.44 402.04,-52.78 400.47,-59.6"/>
</g>
<!-- Node12 -->
<g id="node12" class="node">
<title>Node12</title>
<g id="a_node12"><a xlink:href="tex_8c.html" target="_top" xlink:title=" ">
<polygon fill="white" stroke="black" points="659,-0.5 659,-21.5 700,-21.5 700,-0.5 659,-0.5"/>
<text text-anchor="middle" x="679.5" y="-7.9" font-family="DejaVuSans" font-size="12.00">tex.c</text>
</a>
</g>
</g>
<!-- Node11&#45;&gt;Node12 -->
<g id="edge15" class="edge">
<title>Node11&#45;&gt;Node12</title>
<path fill="none" stroke="midnightblue" d="M679.5,-48.16C679.5,-39.16 679.5,-28.92 679.5,-21.64"/>
<polygon fill="midnightblue" stroke="midnightblue" points="676,-48.25 679.5,-58.25 683,-48.25 676,-48.25"/>
</g>
</g>
</svg>
