<?xml version="1.0" encoding="UTF-8" standalone="no"?>
<!DOCTYPE svg PUBLIC "-//W3C//DTD SVG 1.1//EN"
 "http://www.w3.org/Graphics/SVG/1.1/DTD/svg11.dtd">
<!-- Generated by graphviz version 2.44.0 ()
 -->
<!-- Title: align.h Pages: 1 -->
<svg width="310pt" height="436pt"
 viewBox="0.00 0.00 309.96 436.00" xmlns="http://www.w3.org/2000/svg" xmlns:xlink="http://www.w3.org/1999/xlink">
<g id="graph0" class="graph" transform="scale(1 1) rotate(0) translate(4 432)">
<title>align.h</title>
<polygon fill="white" stroke="transparent" points="-4,4 -4,-432 305.96,-432 305.96,4 -4,4"/>
<!-- Node1 -->
<g id="node1" class="node">
<title>Node1</title>
<g id="a_node1"><a xlink:title=" ">
<polygon fill="#bfbfbf" stroke="black" points="167,-406.5 167,-427.5 219,-427.5 219,-406.5 167,-406.5"/>
<text text-anchor="middle" x="193" y="-413.9" font-family="DejaVuSans" font-size="12.00">align.h</text>
</a>
</g>
</g>
<!-- Node2 -->
<g id="node2" class="node">
<title>Node2</title>
<g id="a_node2"><a xlink:href="lexer_8h.html" target="_top" xlink:title=" ">
<polygon fill="white" stroke="black" points="140,-348.5 140,-369.5 192,-369.5 192,-348.5 140,-348.5"/>
<text text-anchor="middle" x="166" y="-355.9" font-family="DejaVuSans" font-size="12.00">lexer.h</text>
</a>
</g>
</g>
<!-- Node1&#45;&gt;Node2 -->
<g id="edge1" class="edge">
<title>Node1&#45;&gt;Node2</title>
<path fill="none" stroke="midnightblue" d="M188.3,-406.25C184.66,-398.7 179.51,-388.02 175.07,-378.82"/>
<polygon fill="midnightblue" stroke="midnightblue" points="178.14,-377.13 170.65,-369.64 171.84,-380.17 178.14,-377.13"/>
</g>
<!-- Node13 -->
<g id="node13" class="node">
<title>Node13</title>
<g id="a_node13"><a xlink:href="eqtb_8h.html" target="_top" xlink:title=" ">
<polygon fill="white" stroke="black" points="211,-290.5 211,-311.5 261,-311.5 261,-290.5 211,-290.5"/>
<text text-anchor="middle" x="236" y="-297.9" font-family="DejaVuSans" font-size="12.00">eqtb.h</text>
</a>
</g>
</g>
<!-- Node1&#45;&gt;Node13 -->
<g id="edge16" class="edge">
<title>Node1&#45;&gt;Node13</title>
<path fill="none" stroke="midnightblue" d="M196.67,-406.28C203.77,-387.43 219.55,-345.62 228.81,-321.05"/>
<polygon fill="midnightblue" stroke="midnightblue" points="232.09,-322.29 232.34,-311.69 225.54,-319.82 232.09,-322.29"/>
</g>
<!-- Node3 -->
<g id="node3" class="node">
<title>Node3</title>
<g id="a_node3"><a xlink:title=" ">
<polygon fill="white" stroke="#bfbfbf" points="12,-0.5 12,-21.5 64,-21.5 64,-0.5 12,-0.5"/>
<text text-anchor="middle" x="38" y="-7.9" font-family="DejaVuSans" font-size="12.00">stdio.h</text>
</a>
</g>
</g>
<!-- Node2&#45;&gt;Node3 -->
<g id="edge2" class="edge">
<title>Node2&#45;&gt;Node3</title>
<path fill="none" stroke="midnightblue" d="M139.7,-352.69C92.89,-341.53 0,-310.95 0,-244 0,-244 0,-244 0,-126 0,-90.9 16.41,-52.7 27.66,-30.63"/>
<polygon fill="midnightblue" stroke="midnightblue" points="30.81,-32.17 32.39,-21.7 24.62,-28.9 30.81,-32.17"/>
</g>
<!-- Node4 -->
<g id="node4" class="node">
<title>Node4</title>
<g id="a_node4"><a xlink:href="tex_8h.html" target="_top" xlink:title=" ">
<polygon fill="white" stroke="black" points="145,-290.5 145,-311.5 187,-311.5 187,-290.5 145,-290.5"/>
<text text-anchor="middle" x="166" y="-297.9" font-family="DejaVuSans" font-size="12.00">tex.h</text>
</a>
</g>
</g>
<!-- Node2&#45;&gt;Node4 -->
<g id="edge3" class="edge">
<title>Node2&#45;&gt;Node4</title>
<path fill="none" stroke="midnightblue" d="M166,-348.25C166,-340.94 166,-330.69 166,-321.7"/>
<polygon fill="midnightblue" stroke="midnightblue" points="169.5,-321.64 166,-311.64 162.5,-321.64 169.5,-321.64"/>
</g>
<!-- Node5 -->
<g id="node5" class="node">
<title>Node5</title>
<g id="a_node5"><a xlink:href="tex__types_8h.html" target="_top" xlink:title=" ">
<polygon fill="white" stroke="black" points="216.5,-58.5 216.5,-79.5 293.5,-79.5 293.5,-58.5 216.5,-58.5"/>
<text text-anchor="middle" x="255" y="-65.9" font-family="DejaVuSans" font-size="12.00">tex_types.h</text>
</a>
</g>
</g>
<!-- Node4&#45;&gt;Node5 -->
<g id="edge4" class="edge">
<title>Node4&#45;&gt;Node5</title>
<path fill="none" stroke="midnightblue" d="M167.99,-290.32C170.7,-277.13 175.71,-252.78 180,-232 185.32,-206.22 182.37,-198.5 192,-174 204.72,-141.63 227.16,-107.84 241.54,-87.88"/>
<polygon fill="midnightblue" stroke="midnightblue" points="244.43,-89.86 247.52,-79.73 238.78,-85.72 244.43,-89.86"/>
</g>
<!-- Node8 -->
<g id="node8" class="node">
<title>Node8</title>
<g id="a_node8"><a xlink:href="tex__constant_8h.html" target="_top" xlink:title=" ">
<polygon fill="white" stroke="black" points="189,-232.5 189,-253.5 283,-253.5 283,-232.5 189,-232.5"/>
<text text-anchor="middle" x="236" y="-239.9" font-family="DejaVuSans" font-size="12.00">tex_constant.h</text>
</a>
</g>
</g>
<!-- Node4&#45;&gt;Node8 -->
<g id="edge7" class="edge">
<title>Node4&#45;&gt;Node8</title>
<path fill="none" stroke="midnightblue" d="M178.19,-290.25C188.63,-281.89 203.87,-269.71 216.07,-259.94"/>
<polygon fill="midnightblue" stroke="midnightblue" points="218.32,-262.62 223.95,-253.64 213.95,-257.16 218.32,-262.62"/>
</g>
<!-- Node6 -->
<g id="node6" class="node">
<title>Node6</title>
<g id="a_node6"><a xlink:title=" ">
<polygon fill="white" stroke="#bfbfbf" points="233.5,-0.5 233.5,-21.5 298.5,-21.5 298.5,-0.5 233.5,-0.5"/>
<text text-anchor="middle" x="266" y="-7.9" font-family="DejaVuSans" font-size="12.00">stdbool.h</text>
</a>
</g>
</g>
<!-- Node5&#45;&gt;Node6 -->
<g id="edge5" class="edge">
<title>Node5&#45;&gt;Node6</title>
<path fill="none" stroke="midnightblue" d="M256.92,-58.25C258.35,-50.94 260.36,-40.69 262.13,-31.7"/>
<polygon fill="midnightblue" stroke="midnightblue" points="265.61,-32.13 264.11,-21.64 258.74,-30.78 265.61,-32.13"/>
</g>
<!-- Node7 -->
<g id="node7" class="node">
<title>Node7</title>
<g id="a_node7"><a xlink:title=" ">
<polygon fill="white" stroke="#bfbfbf" points="160.5,-0.5 160.5,-21.5 215.5,-21.5 215.5,-0.5 160.5,-0.5"/>
<text text-anchor="middle" x="188" y="-7.9" font-family="DejaVuSans" font-size="12.00">stdint.h</text>
</a>
</g>
</g>
<!-- Node5&#45;&gt;Node7 -->
<g id="edge6" class="edge">
<title>Node5&#45;&gt;Node7</title>
<path fill="none" stroke="midnightblue" d="M243.33,-58.25C233.43,-49.97 219.04,-37.94 207.41,-28.22"/>
<polygon fill="midnightblue" stroke="midnightblue" points="209.45,-25.37 199.54,-21.64 204.97,-30.74 209.45,-25.37"/>
</g>
<!-- Node9 -->
<g id="node9" class="node">
<title>Node9</title>
<g id="a_node9"><a xlink:href="box_8h.html" target="_top" xlink:title=" ">
<polygon fill="white" stroke="black" points="201,-174.5 201,-195.5 247,-195.5 247,-174.5 201,-174.5"/>
<text text-anchor="middle" x="224" y="-181.9" font-family="DejaVuSans" font-size="12.00">box.h</text>
</a>
</g>
</g>
<!-- Node8&#45;&gt;Node9 -->
<g id="edge8" class="edge">
<title>Node8&#45;&gt;Node9</title>
<path fill="none" stroke="midnightblue" d="M233.91,-232.25C232.34,-224.94 230.15,-214.69 228.22,-205.7"/>
<polygon fill="midnightblue" stroke="midnightblue" points="231.58,-204.69 226.07,-195.64 224.74,-206.15 231.58,-204.69"/>
</g>
<!-- Node10 -->
<g id="node10" class="node">
<title>Node10</title>
<g id="a_node10"><a xlink:href="str_8h.html" target="_top" xlink:title=" ">
<polygon fill="white" stroke="black" points="93.5,-116.5 93.5,-137.5 132.5,-137.5 132.5,-116.5 93.5,-116.5"/>
<text text-anchor="middle" x="113" y="-123.9" font-family="DejaVuSans" font-size="12.00">str.h</text>
</a>
</g>
</g>
<!-- Node9&#45;&gt;Node10 -->
<g id="edge9" class="edge">
<title>Node9&#45;&gt;Node10</title>
<path fill="none" stroke="midnightblue" d="M204.92,-174.37C187.26,-165.46 160.79,-152.11 140.79,-142.02"/>
<polygon fill="midnightblue" stroke="midnightblue" points="142.34,-138.88 131.83,-137.5 139.18,-145.13 142.34,-138.88"/>
</g>
<!-- Node10&#45;&gt;Node3 -->
<g id="edge10" class="edge">
<title>Node10&#45;&gt;Node3</title>
<path fill="none" stroke="midnightblue" d="M97.03,-116.41C84.68,-108.2 68.03,-95.3 58,-80 48.42,-65.38 43.31,-46.05 40.67,-31.74"/>
<polygon fill="midnightblue" stroke="midnightblue" points="44.07,-30.84 39.03,-21.52 37.15,-31.95 44.07,-30.84"/>
</g>
<!-- Node10&#45;&gt;Node5 -->
<g id="edge15" class="edge">
<title>Node10&#45;&gt;Node5</title>
<path fill="none" stroke="midnightblue" d="M132.74,-118.21C155.55,-109.22 193.46,-94.27 221.03,-83.4"/>
<polygon fill="midnightblue" stroke="midnightblue" points="222.65,-86.52 230.67,-79.59 220.08,-80.01 222.65,-86.52"/>
</g>
<!-- Node10&#45;&gt;Node7 -->
<g id="edge11" class="edge">
<title>Node10&#45;&gt;Node7</title>
<path fill="none" stroke="midnightblue" d="M129.58,-116.34C142.16,-108.19 158.97,-95.39 169,-80 178.51,-65.42 183.31,-46.08 185.71,-31.76"/>
<polygon fill="midnightblue" stroke="midnightblue" points="189.22,-31.93 187.16,-21.53 182.29,-30.95 189.22,-31.93"/>
</g>
<!-- Node11 -->
<g id="node11" class="node">
<title>Node11</title>
<g id="a_node11"><a xlink:href="global__const_8h.html" target="_top" xlink:title=" ">
<polygon fill="white" stroke="black" points="66.5,-58.5 66.5,-79.5 159.5,-79.5 159.5,-58.5 66.5,-58.5"/>
<text text-anchor="middle" x="113" y="-65.9" font-family="DejaVuSans" font-size="12.00">global_const.h</text>
</a>
</g>
</g>
<!-- Node10&#45;&gt;Node11 -->
<g id="edge12" class="edge">
<title>Node10&#45;&gt;Node11</title>
<path fill="none" stroke="midnightblue" d="M113,-116.25C113,-108.94 113,-98.69 113,-89.7"/>
<polygon fill="midnightblue" stroke="midnightblue" points="116.5,-89.64 113,-79.64 109.5,-89.64 116.5,-89.64"/>
</g>
<!-- Node11&#45;&gt;Node3 -->
<g id="edge14" class="edge">
<title>Node11&#45;&gt;Node3</title>
<path fill="none" stroke="midnightblue" d="M99.94,-58.25C88.64,-49.81 72.12,-37.47 58.97,-27.66"/>
<polygon fill="midnightblue" stroke="midnightblue" points="61.02,-24.82 50.91,-21.64 56.83,-30.43 61.02,-24.82"/>
</g>
<!-- Node12 -->
<g id="node12" class="node">
<title>Node12</title>
<g id="a_node12"><a xlink:title=" ">
<polygon fill="white" stroke="#bfbfbf" points="83.5,-0.5 83.5,-21.5 142.5,-21.5 142.5,-0.5 83.5,-0.5"/>
<text text-anchor="middle" x="113" y="-7.9" font-family="DejaVuSans" font-size="12.00">assert.h</text>
</a>
</g>
</g>
<!-- Node11&#45;&gt;Node12 -->
<g id="edge13" class="edge">
<title>Node11&#45;&gt;Node12</title>
<path fill="none" stroke="midnightblue" d="M113,-58.25C113,-50.94 113,-40.69 113,-31.7"/>
<polygon fill="midnightblue" stroke="midnightblue" points="116.5,-31.64 113,-21.64 109.5,-31.64 116.5,-31.64"/>
</g>
<!-- Node13&#45;&gt;Node5 -->
<g id="edge17" class="edge">
<title>Node13&#45;&gt;Node5</title>
<path fill="none" stroke="midnightblue" d="M254.88,-290.37C267.97,-282.54 284.36,-270.15 292,-254 318.61,-197.69 284.86,-122.9 266.05,-88.61"/>
<polygon fill="midnightblue" stroke="midnightblue" points="268.97,-86.66 260.99,-79.7 262.88,-90.12 268.97,-86.66"/>
</g>
<!-- Node13&#45;&gt;Node8 -->
<g id="edge18" class="edge">
<title>Node13&#45;&gt;Node8</title>
<path fill="none" stroke="midnightblue" d="M236,-290.25C236,-282.94 236,-272.69 236,-263.7"/>
<polygon fill="midnightblue" stroke="midnightblue" points="239.5,-263.64 236,-253.64 232.5,-263.64 239.5,-263.64"/>
</g>
</g>
</svg>
