<?xml version="1.0" encoding="UTF-8" standalone="no"?>
<!DOCTYPE svg PUBLIC "-//W3C//DTD SVG 1.1//EN"
 "http://www.w3.org/Graphics/SVG/1.1/DTD/svg11.dtd">
<!-- Generated by graphviz version 2.44.0 ()
 -->
<!-- Title: box_display.c Pages: 1 -->
<svg width="795pt" height="726pt"
 viewBox="0.00 0.00 795.00 726.00" xmlns="http://www.w3.org/2000/svg" xmlns:xlink="http://www.w3.org/1999/xlink">
<g id="graph0" class="graph" transform="scale(1 1) rotate(0) translate(4 722)">
<title>box_display.c</title>
<polygon fill="white" stroke="transparent" points="-4,4 -4,-722 791,-722 791,4 -4,4"/>
<!-- Node1 -->
<g id="node1" class="node">
<title>Node1</title>
<g id="a_node1"><a xlink:title=" ">
<polygon fill="#bfbfbf" stroke="black" points="332,-696.5 332,-717.5 421,-717.5 421,-696.5 332,-696.5"/>
<text text-anchor="middle" x="376.5" y="-703.9" font-family="DejaVuSans" font-size="12.00">box_display.c</text>
</a>
</g>
</g>
<!-- Node2 -->
<g id="node2" class="node">
<title>Node2</title>
<g id="a_node2"><a xlink:title=" ">
<polygon fill="white" stroke="#bfbfbf" points="0,-638.5 0,-659.5 53,-659.5 53,-638.5 0,-638.5"/>
<text text-anchor="middle" x="26.5" y="-645.9" font-family="DejaVuSans" font-size="12.00">math.h</text>
</a>
</g>
</g>
<!-- Node1&#45;&gt;Node2 -->
<g id="edge1" class="edge">
<title>Node1&#45;&gt;Node2</title>
<path fill="none" stroke="midnightblue" d="M331.76,-700.64C271.47,-693.13 160.91,-678.3 67.5,-660 66.06,-659.72 64.6,-659.42 63.12,-659.11"/>
<polygon fill="midnightblue" stroke="midnightblue" points="63.85,-655.68 53.33,-656.92 62.32,-662.52 63.85,-655.68"/>
</g>
<!-- Node3 -->
<g id="node3" class="node">
<title>Node3</title>
<g id="a_node3"><a xlink:href="tex__types_8h.html" target="_top" xlink:title=" ">
<polygon fill="white" stroke="black" points="166,-58.5 166,-79.5 243,-79.5 243,-58.5 166,-58.5"/>
<text text-anchor="middle" x="204.5" y="-65.9" font-family="DejaVuSans" font-size="12.00">tex_types.h</text>
</a>
</g>
</g>
<!-- Node1&#45;&gt;Node3 -->
<g id="edge2" class="edge">
<title>Node1&#45;&gt;Node3</title>
<path fill="none" stroke="midnightblue" d="M331.72,-702.3C287.62,-697.3 219.24,-685.8 165.5,-660 122.2,-639.21 81.5,-640.03 81.5,-592 81.5,-592 81.5,-592 81.5,-184 81.5,-135.09 134.46,-101.28 170.88,-83.82"/>
<polygon fill="midnightblue" stroke="midnightblue" points="172.58,-86.89 180.2,-79.53 169.65,-80.53 172.58,-86.89"/>
</g>
<!-- Node6 -->
<g id="node6" class="node">
<title>Node6</title>
<g id="a_node6"><a xlink:href="tex__constant_8h.html" target="_top" xlink:title=" ">
<polygon fill="white" stroke="black" points="525.5,-232.5 525.5,-253.5 619.5,-253.5 619.5,-232.5 525.5,-232.5"/>
<text text-anchor="middle" x="572.5" y="-239.9" font-family="DejaVuSans" font-size="12.00">tex_constant.h</text>
</a>
</g>
</g>
<!-- Node1&#45;&gt;Node6 -->
<g id="edge5" class="edge">
<title>Node1&#45;&gt;Node6</title>
<path fill="none" stroke="midnightblue" d="M421.02,-697.41C499.79,-680.94 655.5,-642.04 655.5,-592 655.5,-592 655.5,-592 655.5,-358 655.5,-316.39 618.92,-279.78 594.32,-259.88"/>
<polygon fill="midnightblue" stroke="midnightblue" points="596.25,-256.94 586.21,-253.55 591.94,-262.46 596.25,-256.94"/>
</g>
<!-- Node7 -->
<g id="node7" class="node">
<title>Node7</title>
<g id="a_node7"><a xlink:href="box_8h.html" target="_top" xlink:title=" ">
<polygon fill="white" stroke="black" points="549.5,-174.5 549.5,-195.5 595.5,-195.5 595.5,-174.5 549.5,-174.5"/>
<text text-anchor="middle" x="572.5" y="-181.9" font-family="DejaVuSans" font-size="12.00">box.h</text>
</a>
</g>
</g>
<!-- Node1&#45;&gt;Node7 -->
<g id="edge44" class="edge">
<title>Node1&#45;&gt;Node7</title>
<path fill="none" stroke="midnightblue" d="M421.14,-702.48C467.61,-697.55 541.7,-686.05 600.5,-660 647.32,-639.26 693.5,-643.2 693.5,-592 693.5,-592 693.5,-592 693.5,-300 693.5,-251.12 640.54,-217.02 604.69,-199.54"/>
<polygon fill="midnightblue" stroke="midnightblue" points="606.08,-196.32 595.54,-195.25 603.11,-202.66 606.08,-196.32"/>
</g>
<!-- Node12 -->
<g id="node12" class="node">
<title>Node12</title>
<g id="a_node12"><a xlink:href="mem_8h.html" target="_top" xlink:title=" ">
<polygon fill="white" stroke="black" points="244,-522.5 244,-543.5 297,-543.5 297,-522.5 244,-522.5"/>
<text text-anchor="middle" x="270.5" y="-529.9" font-family="DejaVuSans" font-size="12.00">mem.h</text>
</a>
</g>
</g>
<!-- Node1&#45;&gt;Node12 -->
<g id="edge14" class="edge">
<title>Node1&#45;&gt;Node12</title>
<path fill="none" stroke="midnightblue" d="M366.36,-696.34C348.74,-679.02 312.33,-640.84 291.5,-602 283.3,-586.71 277.77,-567.73 274.46,-553.71"/>
<polygon fill="midnightblue" stroke="midnightblue" points="277.82,-552.71 272.27,-543.69 270.99,-554.21 277.82,-552.71"/>
</g>
<!-- Node18 -->
<g id="node18" class="node">
<title>Node18</title>
<g id="a_node18"><a xlink:href="texfunc_8h.html" target="_top" xlink:title=" ">
<polygon fill="white" stroke="black" points="722,-522.5 722,-543.5 787,-543.5 787,-522.5 722,-522.5"/>
<text text-anchor="middle" x="754.5" y="-529.9" font-family="DejaVuSans" font-size="12.00">texfunc.h</text>
</a>
</g>
</g>
<!-- Node1&#45;&gt;Node18 -->
<g id="edge25" class="edge">
<title>Node1&#45;&gt;Node18</title>
<path fill="none" stroke="midnightblue" d="M421.01,-705.32C500.87,-703.23 664.22,-694.71 707.5,-660 740.16,-633.81 750.12,-582.5 753.17,-554.1"/>
<polygon fill="midnightblue" stroke="midnightblue" points="756.68,-554.06 754.07,-543.8 749.71,-553.45 756.68,-554.06"/>
</g>
<!-- Node19 -->
<g id="node19" class="node">
<title>Node19</title>
<g id="a_node19"><a xlink:href="texmath_8h.html" target="_top" xlink:title=" ">
<polygon fill="white" stroke="black" points="109.5,-580.5 109.5,-601.5 177.5,-601.5 177.5,-580.5 109.5,-580.5"/>
<text text-anchor="middle" x="143.5" y="-587.9" font-family="DejaVuSans" font-size="12.00">texmath.h</text>
</a>
</g>
</g>
<!-- Node1&#45;&gt;Node19 -->
<g id="edge27" class="edge">
<title>Node1&#45;&gt;Node19</title>
<path fill="none" stroke="midnightblue" d="M331.83,-703.62C291.97,-699.58 233.57,-688.78 191.5,-660 173.5,-647.69 160.04,-626.25 152.02,-610.74"/>
<polygon fill="midnightblue" stroke="midnightblue" points="155.07,-609.01 147.55,-601.55 148.78,-612.07 155.07,-609.01"/>
</g>
<!-- Node20 -->
<g id="node20" class="node">
<title>Node20</title>
<g id="a_node20"><a xlink:href="print_8h.html" target="_top" xlink:title=" ">
<polygon fill="white" stroke="black" points="351.5,-638.5 351.5,-659.5 401.5,-659.5 401.5,-638.5 351.5,-638.5"/>
<text text-anchor="middle" x="376.5" y="-645.9" font-family="DejaVuSans" font-size="12.00">print.h</text>
</a>
</g>
</g>
<!-- Node1&#45;&gt;Node20 -->
<g id="edge29" class="edge">
<title>Node1&#45;&gt;Node20</title>
<path fill="none" stroke="midnightblue" d="M376.5,-696.25C376.5,-688.94 376.5,-678.69 376.5,-669.7"/>
<polygon fill="midnightblue" stroke="midnightblue" points="380,-669.64 376.5,-659.64 373,-669.64 380,-669.64"/>
</g>
<!-- Node22 -->
<g id="node22" class="node">
<title>Node22</title>
<g id="a_node22"><a xlink:href="hash_8h.html" target="_top" xlink:title=" ">
<polygon fill="white" stroke="black" points="488,-348.5 488,-369.5 541,-369.5 541,-348.5 488,-348.5"/>
<text text-anchor="middle" x="514.5" y="-355.9" font-family="DejaVuSans" font-size="12.00">hash.h</text>
</a>
</g>
</g>
<!-- Node1&#45;&gt;Node22 -->
<g id="edge35" class="edge">
<title>Node1&#45;&gt;Node22</title>
<path fill="none" stroke="midnightblue" d="M403.12,-696.5C441.15,-681.01 506.5,-646.48 506.5,-592 506.5,-592 506.5,-592 506.5,-474 506.5,-440.9 509.9,-402.53 512.26,-379.82"/>
<polygon fill="midnightblue" stroke="midnightblue" points="515.76,-380.06 513.35,-369.74 508.8,-379.31 515.76,-380.06"/>
</g>
<!-- Node4 -->
<g id="node4" class="node">
<title>Node4</title>
<g id="a_node4"><a xlink:title=" ">
<polygon fill="white" stroke="#bfbfbf" points="172,-0.5 172,-21.5 237,-21.5 237,-0.5 172,-0.5"/>
<text text-anchor="middle" x="204.5" y="-7.9" font-family="DejaVuSans" font-size="12.00">stdbool.h</text>
</a>
</g>
</g>
<!-- Node3&#45;&gt;Node4 -->
<g id="edge3" class="edge">
<title>Node3&#45;&gt;Node4</title>
<path fill="none" stroke="midnightblue" d="M204.5,-58.25C204.5,-50.94 204.5,-40.69 204.5,-31.7"/>
<polygon fill="midnightblue" stroke="midnightblue" points="208,-31.64 204.5,-21.64 201,-31.64 208,-31.64"/>
</g>
<!-- Node5 -->
<g id="node5" class="node">
<title>Node5</title>
<g id="a_node5"><a xlink:title=" ">
<polygon fill="white" stroke="#bfbfbf" points="286,-0.5 286,-21.5 341,-21.5 341,-0.5 286,-0.5"/>
<text text-anchor="middle" x="313.5" y="-7.9" font-family="DejaVuSans" font-size="12.00">stdint.h</text>
</a>
</g>
</g>
<!-- Node3&#45;&gt;Node5 -->
<g id="edge4" class="edge">
<title>Node3&#45;&gt;Node5</title>
<path fill="none" stroke="midnightblue" d="M223.49,-58.25C240.68,-49.41 266.22,-36.29 285.71,-26.28"/>
<polygon fill="midnightblue" stroke="midnightblue" points="287.44,-29.33 294.73,-21.64 284.24,-23.1 287.44,-29.33"/>
</g>
<!-- Node6&#45;&gt;Node7 -->
<g id="edge6" class="edge">
<title>Node6&#45;&gt;Node7</title>
<path fill="none" stroke="midnightblue" d="M572.5,-232.25C572.5,-224.94 572.5,-214.69 572.5,-205.7"/>
<polygon fill="midnightblue" stroke="midnightblue" points="576,-205.64 572.5,-195.64 569,-205.64 576,-205.64"/>
</g>
<!-- Node8 -->
<g id="node8" class="node">
<title>Node8</title>
<g id="a_node8"><a xlink:href="str_8h.html" target="_top" xlink:title=" ">
<polygon fill="white" stroke="black" points="440,-116.5 440,-137.5 479,-137.5 479,-116.5 440,-116.5"/>
<text text-anchor="middle" x="459.5" y="-123.9" font-family="DejaVuSans" font-size="12.00">str.h</text>
</a>
</g>
</g>
<!-- Node7&#45;&gt;Node8 -->
<g id="edge7" class="edge">
<title>Node7&#45;&gt;Node8</title>
<path fill="none" stroke="midnightblue" d="M553.07,-174.37C535.1,-165.46 508.16,-152.11 487.79,-142.02"/>
<polygon fill="midnightblue" stroke="midnightblue" points="489.19,-138.81 478.67,-137.5 486.08,-145.08 489.19,-138.81"/>
</g>
<!-- Node8&#45;&gt;Node3 -->
<g id="edge13" class="edge">
<title>Node8&#45;&gt;Node3</title>
<path fill="none" stroke="midnightblue" d="M439.91,-121.7C400.31,-113 309.67,-93.1 253.12,-80.68"/>
<polygon fill="midnightblue" stroke="midnightblue" points="253.84,-77.25 243.32,-78.53 252.34,-84.09 253.84,-77.25"/>
</g>
<!-- Node8&#45;&gt;Node5 -->
<g id="edge9" class="edge">
<title>Node8&#45;&gt;Node5</title>
<path fill="none" stroke="midnightblue" d="M447.3,-116.48C422.25,-96.91 364.74,-52.01 333.91,-27.94"/>
<polygon fill="midnightblue" stroke="midnightblue" points="336.01,-25.13 325.97,-21.74 331.7,-30.65 336.01,-25.13"/>
</g>
<!-- Node9 -->
<g id="node9" class="node">
<title>Node9</title>
<g id="a_node9"><a xlink:title=" ">
<polygon fill="white" stroke="#bfbfbf" points="377.5,-0.5 377.5,-21.5 429.5,-21.5 429.5,-0.5 377.5,-0.5"/>
<text text-anchor="middle" x="403.5" y="-7.9" font-family="DejaVuSans" font-size="12.00">stdio.h</text>
</a>
</g>
</g>
<!-- Node8&#45;&gt;Node9 -->
<g id="edge8" class="edge">
<title>Node8&#45;&gt;Node9</title>
<path fill="none" stroke="midnightblue" d="M449.67,-116.25C441.33,-107.47 429.62,-93.85 422.5,-80 414.63,-64.69 409.67,-45.71 406.81,-31.7"/>
<polygon fill="midnightblue" stroke="midnightblue" points="410.21,-30.88 404.94,-21.69 403.33,-32.16 410.21,-30.88"/>
</g>
<!-- Node10 -->
<g id="node10" class="node">
<title>Node10</title>
<g id="a_node10"><a xlink:href="global__const_8h.html" target="_top" xlink:title=" ">
<polygon fill="white" stroke="black" points="431,-58.5 431,-79.5 524,-79.5 524,-58.5 431,-58.5"/>
<text text-anchor="middle" x="477.5" y="-65.9" font-family="DejaVuSans" font-size="12.00">global_const.h</text>
</a>
</g>
</g>
<!-- Node8&#45;&gt;Node10 -->
<g id="edge10" class="edge">
<title>Node8&#45;&gt;Node10</title>
<path fill="none" stroke="midnightblue" d="M462.64,-116.25C465.01,-108.86 468.35,-98.47 471.26,-89.41"/>
<polygon fill="midnightblue" stroke="midnightblue" points="474.67,-90.23 474.4,-79.64 468.01,-88.09 474.67,-90.23"/>
</g>
<!-- Node10&#45;&gt;Node9 -->
<g id="edge12" class="edge">
<title>Node10&#45;&gt;Node9</title>
<path fill="none" stroke="midnightblue" d="M464.61,-58.25C453.57,-49.89 437.47,-37.71 424.56,-27.94"/>
<polygon fill="midnightblue" stroke="midnightblue" points="426.33,-24.89 416.24,-21.64 422.1,-30.47 426.33,-24.89"/>
</g>
<!-- Node11 -->
<g id="node11" class="node">
<title>Node11</title>
<g id="a_node11"><a xlink:title=" ">
<polygon fill="white" stroke="#bfbfbf" points="448,-0.5 448,-21.5 507,-21.5 507,-0.5 448,-0.5"/>
<text text-anchor="middle" x="477.5" y="-7.9" font-family="DejaVuSans" font-size="12.00">assert.h</text>
</a>
</g>
</g>
<!-- Node10&#45;&gt;Node11 -->
<g id="edge11" class="edge">
<title>Node10&#45;&gt;Node11</title>
<path fill="none" stroke="midnightblue" d="M477.5,-58.25C477.5,-50.94 477.5,-40.69 477.5,-31.7"/>
<polygon fill="midnightblue" stroke="midnightblue" points="481,-31.64 477.5,-21.64 474,-31.64 481,-31.64"/>
</g>
<!-- Node12&#45;&gt;Node3 -->
<g id="edge15" class="edge">
<title>Node12&#45;&gt;Node3</title>
<path fill="none" stroke="midnightblue" d="M258.45,-522.44C237.25,-504.44 195.5,-463.25 195.5,-418 195.5,-418 195.5,-418 195.5,-184 195.5,-150.88 199.32,-112.52 201.98,-89.81"/>
<polygon fill="midnightblue" stroke="midnightblue" points="205.48,-90.09 203.21,-79.74 198.53,-89.24 205.48,-90.09"/>
</g>
<!-- Node13 -->
<g id="node13" class="node">
<title>Node13</title>
<g id="a_node13"><a xlink:href="global_8h.html" target="_top" xlink:title=" ">
<polygon fill="white" stroke="black" points="262.5,-464.5 262.5,-485.5 320.5,-485.5 320.5,-464.5 262.5,-464.5"/>
<text text-anchor="middle" x="291.5" y="-471.9" font-family="DejaVuSans" font-size="12.00">global.h</text>
</a>
</g>
</g>
<!-- Node12&#45;&gt;Node13 -->
<g id="edge16" class="edge">
<title>Node12&#45;&gt;Node13</title>
<path fill="none" stroke="midnightblue" d="M274.16,-522.25C276.96,-514.78 280.91,-504.24 284.33,-495.11"/>
<polygon fill="midnightblue" stroke="midnightblue" points="287.65,-496.23 287.88,-485.64 281.1,-493.78 287.65,-496.23"/>
</g>
<!-- Node13&#45;&gt;Node8 -->
<g id="edge18" class="edge">
<title>Node13&#45;&gt;Node8</title>
<path fill="none" stroke="midnightblue" d="M315.99,-464.35C332.08,-456.78 352.35,-444.72 364.5,-428 401.7,-376.81 380.71,-350.42 399.5,-290 415.83,-237.48 439.55,-177.08 451.7,-147.03"/>
<polygon fill="midnightblue" stroke="midnightblue" points="454.95,-148.32 455.48,-137.74 448.47,-145.68 454.95,-148.32"/>
</g>
<!-- Node14 -->
<g id="node14" class="node">
<title>Node14</title>
<g id="a_node14"><a xlink:title=" ">
<polygon fill="white" stroke="#bfbfbf" points="223.5,-406.5 223.5,-427.5 285.5,-427.5 285.5,-406.5 223.5,-406.5"/>
<text text-anchor="middle" x="254.5" y="-413.9" font-family="DejaVuSans" font-size="12.00">setjmp.h</text>
</a>
</g>
</g>
<!-- Node13&#45;&gt;Node14 -->
<g id="edge17" class="edge">
<title>Node13&#45;&gt;Node14</title>
<path fill="none" stroke="midnightblue" d="M285.06,-464.25C279.96,-456.54 272.71,-445.56 266.55,-436.23"/>
<polygon fill="midnightblue" stroke="midnightblue" points="269.3,-434.06 260.87,-427.64 263.46,-437.92 269.3,-434.06"/>
</g>
<!-- Node15 -->
<g id="node15" class="node">
<title>Node15</title>
<g id="a_node15"><a xlink:href="scan_8h.html" target="_top" xlink:title=" ">
<polygon fill="white" stroke="black" points="303.5,-406.5 303.5,-427.5 355.5,-427.5 355.5,-406.5 303.5,-406.5"/>
<text text-anchor="middle" x="329.5" y="-413.9" font-family="DejaVuSans" font-size="12.00">scan.h</text>
</a>
</g>
</g>
<!-- Node13&#45;&gt;Node15 -->
<g id="edge19" class="edge">
<title>Node13&#45;&gt;Node15</title>
<path fill="none" stroke="midnightblue" d="M298.12,-464.25C303.4,-456.46 310.95,-445.33 317.32,-435.94"/>
<polygon fill="midnightblue" stroke="midnightblue" points="320.24,-437.88 322.96,-427.64 314.45,-433.95 320.24,-437.88"/>
</g>
<!-- Node16 -->
<g id="node16" class="node">
<title>Node16</title>
<g id="a_node16"><a xlink:href="lexer_8h.html" target="_top" xlink:title=" ">
<polygon fill="white" stroke="black" points="303.5,-348.5 303.5,-369.5 355.5,-369.5 355.5,-348.5 303.5,-348.5"/>
<text text-anchor="middle" x="329.5" y="-355.9" font-family="DejaVuSans" font-size="12.00">lexer.h</text>
</a>
</g>
</g>
<!-- Node15&#45;&gt;Node16 -->
<g id="edge20" class="edge">
<title>Node15&#45;&gt;Node16</title>
<path fill="none" stroke="midnightblue" d="M329.5,-406.25C329.5,-398.94 329.5,-388.69 329.5,-379.7"/>
<polygon fill="midnightblue" stroke="midnightblue" points="333,-379.64 329.5,-369.64 326,-379.64 333,-379.64"/>
</g>
<!-- Node16&#45;&gt;Node9 -->
<g id="edge21" class="edge">
<title>Node16&#45;&gt;Node9</title>
<path fill="none" stroke="midnightblue" d="M328.68,-348.43C327.09,-327.26 324.3,-274.94 331.5,-232 344.37,-155.19 379.01,-68.61 395.09,-31.06"/>
<polygon fill="midnightblue" stroke="midnightblue" points="398.33,-32.38 399.1,-21.82 391.91,-29.6 398.33,-32.38"/>
</g>
<!-- Node17 -->
<g id="node17" class="node">
<title>Node17</title>
<g id="a_node17"><a xlink:href="tex_8h.html" target="_top" xlink:title=" ">
<polygon fill="white" stroke="black" points="441.5,-290.5 441.5,-311.5 483.5,-311.5 483.5,-290.5 441.5,-290.5"/>
<text text-anchor="middle" x="462.5" y="-297.9" font-family="DejaVuSans" font-size="12.00">tex.h</text>
</a>
</g>
</g>
<!-- Node16&#45;&gt;Node17 -->
<g id="edge22" class="edge">
<title>Node16&#45;&gt;Node17</title>
<path fill="none" stroke="midnightblue" d="M352.36,-348.37C374.3,-339.14 407.57,-325.13 431.8,-314.93"/>
<polygon fill="midnightblue" stroke="midnightblue" points="433.39,-318.05 441.25,-310.95 430.68,-311.6 433.39,-318.05"/>
</g>
<!-- Node17&#45;&gt;Node3 -->
<g id="edge23" class="edge">
<title>Node17&#45;&gt;Node3</title>
<path fill="none" stroke="midnightblue" d="M450.58,-290.26C439.36,-281.04 422.14,-266.75 407.5,-254 338.09,-193.56 257.64,-119.37 222.49,-86.74"/>
<polygon fill="midnightblue" stroke="midnightblue" points="224.64,-83.97 214.93,-79.73 219.88,-89.1 224.64,-83.97"/>
</g>
<!-- Node17&#45;&gt;Node6 -->
<g id="edge24" class="edge">
<title>Node17&#45;&gt;Node6</title>
<path fill="none" stroke="midnightblue" d="M481.66,-290.25C499.01,-281.41 524.79,-268.29 544.46,-258.28"/>
<polygon fill="midnightblue" stroke="midnightblue" points="546.24,-261.3 553.56,-253.64 543.06,-255.06 546.24,-261.3"/>
</g>
<!-- Node18&#45;&gt;Node8 -->
<g id="edge26" class="edge">
<title>Node18&#45;&gt;Node8</title>
<path fill="none" stroke="midnightblue" d="M752.78,-522.28C749.46,-502.64 742.5,-456.81 742.5,-418 742.5,-418 742.5,-418 742.5,-242 742.5,-187.85 562.01,-147.48 489.31,-133.42"/>
<polygon fill="midnightblue" stroke="midnightblue" points="489.88,-129.97 479.4,-131.54 488.57,-136.84 489.88,-129.97"/>
</g>
<!-- Node19&#45;&gt;Node3 -->
<g id="edge28" class="edge">
<title>Node19&#45;&gt;Node3</title>
<path fill="none" stroke="midnightblue" d="M140.06,-580.38C133.43,-560.94 119.5,-515.44 119.5,-476 119.5,-476 119.5,-476 119.5,-184 119.5,-151.95 124.57,-141.86 143.5,-116 152.62,-103.55 166.05,-92.91 177.98,-85.02"/>
<polygon fill="midnightblue" stroke="midnightblue" points="180.12,-87.81 186.73,-79.53 176.4,-81.88 180.12,-87.81"/>
</g>
<!-- Node20&#45;&gt;Node3 -->
<g id="edge30" class="edge">
<title>Node20&#45;&gt;Node3</title>
<path fill="none" stroke="midnightblue" d="M355.5,-638.49C300.69,-612.07 157.5,-532.13 157.5,-418 157.5,-418 157.5,-418 157.5,-184 157.5,-147.82 177.98,-109.73 191.9,-88.02"/>
<polygon fill="midnightblue" stroke="midnightblue" points="194.94,-89.78 197.56,-79.51 189.11,-85.9 194.94,-89.78"/>
</g>
<!-- Node20&#45;&gt;Node8 -->
<g id="edge34" class="edge">
<title>Node20&#45;&gt;Node8</title>
<path fill="none" stroke="midnightblue" d="M383.14,-638.44C395.66,-619.46 421.5,-575.28 421.5,-534 421.5,-534 421.5,-534 421.5,-416 421.5,-359.79 425.43,-345.77 432.5,-290 439.02,-238.58 449.89,-178.5 455.65,-147.99"/>
<polygon fill="midnightblue" stroke="midnightblue" points="459.15,-148.3 457.59,-137.82 452.28,-146.99 459.15,-148.3"/>
</g>
<!-- Node20&#45;&gt;Node17 -->
<g id="edge31" class="edge">
<title>Node20&#45;&gt;Node17</title>
<path fill="none" stroke="midnightblue" d="M393.68,-638.34C406.79,-630.19 424.42,-617.39 435.5,-602 454.22,-575.99 459.5,-566.05 459.5,-534 459.5,-534 459.5,-534 459.5,-416 459.5,-382.97 460.77,-344.58 461.66,-321.84"/>
<polygon fill="midnightblue" stroke="midnightblue" points="465.16,-321.89 462.07,-311.76 458.17,-321.61 465.16,-321.89"/>
</g>
<!-- Node21 -->
<g id="node21" class="node">
<title>Node21</title>
<g id="a_node21"><a xlink:href="texmac_8h.html" target="_top" xlink:title=" ">
<polygon fill="white" stroke="black" points="300,-580.5 300,-601.5 365,-601.5 365,-580.5 300,-580.5"/>
<text text-anchor="middle" x="332.5" y="-587.9" font-family="DejaVuSans" font-size="12.00">texmac.h</text>
</a>
</g>
</g>
<!-- Node20&#45;&gt;Node21 -->
<g id="edge32" class="edge">
<title>Node20&#45;&gt;Node21</title>
<path fill="none" stroke="midnightblue" d="M368.84,-638.25C362.65,-630.38 353.79,-619.1 346.37,-609.65"/>
<polygon fill="midnightblue" stroke="midnightblue" points="349.01,-607.34 340.08,-601.64 343.5,-611.67 349.01,-607.34"/>
</g>
<!-- Node21&#45;&gt;Node12 -->
<g id="edge33" class="edge">
<title>Node21&#45;&gt;Node12</title>
<path fill="none" stroke="midnightblue" d="M321.7,-580.25C312.63,-572.05 299.48,-560.17 288.78,-550.51"/>
<polygon fill="midnightblue" stroke="midnightblue" points="290.94,-547.75 281.18,-543.64 286.25,-552.94 290.94,-547.75"/>
</g>
<!-- Node22&#45;&gt;Node8 -->
<g id="edge37" class="edge">
<title>Node22&#45;&gt;Node8</title>
<path fill="none" stroke="midnightblue" d="M512.62,-348.36C507.22,-320.93 490.91,-240.15 473.5,-174 471.2,-165.24 468.33,-155.65 465.79,-147.5"/>
<polygon fill="midnightblue" stroke="midnightblue" points="469.08,-146.28 462.72,-137.81 462.41,-148.4 469.08,-146.28"/>
</g>
<!-- Node22&#45;&gt;Node17 -->
<g id="edge36" class="edge">
<title>Node22&#45;&gt;Node17</title>
<path fill="none" stroke="midnightblue" d="M505.44,-348.25C497.99,-340.22 487.24,-328.64 478.36,-319.08"/>
<polygon fill="midnightblue" stroke="midnightblue" points="480.82,-316.59 471.45,-311.64 475.69,-321.35 480.82,-316.59"/>
</g>
<!-- Node23 -->
<g id="node23" class="node">
<title>Node23</title>
<g id="a_node23"><a xlink:href="fonts_8h.html" target="_top" xlink:title=" ">
<polygon fill="white" stroke="black" points="526.5,-116.5 526.5,-137.5 578.5,-137.5 578.5,-116.5 526.5,-116.5"/>
<text text-anchor="middle" x="552.5" y="-123.9" font-family="DejaVuSans" font-size="12.00">fonts.h</text>
</a>
</g>
</g>
<!-- Node22&#45;&gt;Node23 -->
<g id="edge38" class="edge">
<title>Node22&#45;&gt;Node23</title>
<path fill="none" stroke="midnightblue" d="M540.59,-348.48C558.64,-340.85 582.24,-328.65 598.5,-312 618.78,-291.24 621.64,-282.2 628.5,-254 637.28,-217.93 626.05,-204.22 604.5,-174 596.3,-162.5 584.71,-151.89 574.55,-143.76"/>
<polygon fill="midnightblue" stroke="midnightblue" points="576.53,-140.87 566.46,-137.56 572.27,-146.42 576.53,-140.87"/>
</g>
<!-- Node24 -->
<g id="node24" class="node">
<title>Node24</title>
<g id="a_node24"><a xlink:href="eqtb_8h.html" target="_top" xlink:title=" ">
<polygon fill="white" stroke="black" points="539.5,-290.5 539.5,-311.5 589.5,-311.5 589.5,-290.5 539.5,-290.5"/>
<text text-anchor="middle" x="564.5" y="-297.9" font-family="DejaVuSans" font-size="12.00">eqtb.h</text>
</a>
</g>
</g>
<!-- Node22&#45;&gt;Node24 -->
<g id="edge41" class="edge">
<title>Node22&#45;&gt;Node24</title>
<path fill="none" stroke="midnightblue" d="M523.21,-348.25C530.31,-340.3 540.51,-328.87 549,-319.37"/>
<polygon fill="midnightblue" stroke="midnightblue" points="551.84,-321.43 555.89,-311.64 546.62,-316.77 551.84,-321.43"/>
</g>
<!-- Node23&#45;&gt;Node9 -->
<g id="edge39" class="edge">
<title>Node23&#45;&gt;Node9</title>
<path fill="none" stroke="midnightblue" d="M552.47,-116.32C551.91,-101.79 548.73,-74.3 533.5,-58 526.81,-50.85 475.57,-34.05 439.46,-22.85"/>
<polygon fill="midnightblue" stroke="midnightblue" points="440.31,-19.45 429.72,-19.86 438.25,-26.14 440.31,-19.45"/>
</g>
<!-- Node23&#45;&gt;Node10 -->
<g id="edge40" class="edge">
<title>Node23&#45;&gt;Node10</title>
<path fill="none" stroke="midnightblue" d="M539.44,-116.25C528.14,-107.81 511.62,-95.47 498.47,-85.66"/>
<polygon fill="midnightblue" stroke="midnightblue" points="500.52,-82.82 490.41,-79.64 496.33,-88.43 500.52,-82.82"/>
</g>
<!-- Node24&#45;&gt;Node3 -->
<g id="edge42" class="edge">
<title>Node24&#45;&gt;Node3</title>
<path fill="none" stroke="midnightblue" d="M550.12,-290.46C508.59,-262.96 384.81,-181.34 280.5,-116 263.51,-105.36 244.17,-93.66 229.26,-84.72"/>
<polygon fill="midnightblue" stroke="midnightblue" points="230.98,-81.68 220.6,-79.55 227.39,-87.68 230.98,-81.68"/>
</g>
<!-- Node24&#45;&gt;Node6 -->
<g id="edge43" class="edge">
<title>Node24&#45;&gt;Node6</title>
<path fill="none" stroke="midnightblue" d="M565.89,-290.25C566.94,-282.94 568.4,-272.69 569.69,-263.7"/>
<polygon fill="midnightblue" stroke="midnightblue" points="573.17,-264.04 571.12,-253.64 566.24,-263.05 573.17,-264.04"/>
</g>
</g>
</svg>
