<?xml version="1.0" encoding="UTF-8" standalone="no"?>
<!DOCTYPE svg PUBLIC "-//W3C//DTD SVG 1.1//EN"
 "http://www.w3.org/Graphics/SVG/1.1/DTD/svg11.dtd">
<!-- Generated by graphviz version 2.44.0 ()
 -->
<!-- Title: box_copy.c Pages: 1 -->
<svg width="837pt" height="494pt"
 viewBox="0.00 0.00 837.00 494.00" xmlns="http://www.w3.org/2000/svg" xmlns:xlink="http://www.w3.org/1999/xlink">
<g id="graph0" class="graph" transform="scale(1 1) rotate(0) translate(4 490)">
<title>box_copy.c</title>
<polygon fill="white" stroke="transparent" points="-4,4 -4,-490 833,-490 833,4 -4,4"/>
<!-- Node1 -->
<g id="node1" class="node">
<title>Node1</title>
<g id="a_node1"><a xlink:title=" ">
<polygon fill="#bfbfbf" stroke="black" points="454.5,-464.5 454.5,-485.5 531.5,-485.5 531.5,-464.5 454.5,-464.5"/>
<text text-anchor="middle" x="493" y="-471.9" font-family="DejaVuSans" font-size="12.00">box_copy.c</text>
</a>
</g>
</g>
<!-- Node2 -->
<g id="node2" class="node">
<title>Node2</title>
<g id="a_node2"><a xlink:href="tex__constant_8h.html" target="_top" xlink:title=" ">
<polygon fill="white" stroke="black" points="100,-174.5 100,-195.5 194,-195.5 194,-174.5 100,-174.5"/>
<text text-anchor="middle" x="147" y="-181.9" font-family="DejaVuSans" font-size="12.00">tex_constant.h</text>
</a>
</g>
</g>
<!-- Node1&#45;&gt;Node2 -->
<g id="edge1" class="edge">
<title>Node1&#45;&gt;Node2</title>
<path fill="none" stroke="midnightblue" d="M454.32,-473.31C338.09,-470.19 0,-453.12 0,-360 0,-360 0,-360 0,-300 0,-246.86 60.74,-214.93 104.13,-198.9"/>
<polygon fill="midnightblue" stroke="midnightblue" points="105.38,-202.17 113.64,-195.54 103.05,-195.57 105.38,-202.17"/>
</g>
<!-- Node4 -->
<g id="node4" class="node">
<title>Node4</title>
<g id="a_node4"><a xlink:href="error_8h.html" target="_top" xlink:title=" ">
<polygon fill="white" stroke="black" points="686.5,-290.5 686.5,-311.5 737.5,-311.5 737.5,-290.5 686.5,-290.5"/>
<text text-anchor="middle" x="712" y="-297.9" font-family="DejaVuSans" font-size="12.00">error.h</text>
</a>
</g>
</g>
<!-- Node1&#45;&gt;Node4 -->
<g id="edge3" class="edge">
<title>Node1&#45;&gt;Node4</title>
<path fill="none" stroke="midnightblue" d="M507.15,-464.41C520.46,-455.29 540.84,-441.07 558,-428 607.78,-390.1 664.21,-342.76 692.96,-318.3"/>
<polygon fill="midnightblue" stroke="midnightblue" points="695.29,-320.92 700.63,-311.76 690.75,-315.59 695.29,-320.92"/>
</g>
<!-- Node14 -->
<g id="node14" class="node">
<title>Node14</title>
<g id="a_node14"><a xlink:href="extension_8h.html" target="_top" xlink:title=" ">
<polygon fill="white" stroke="black" points="305,-406.5 305,-427.5 383,-427.5 383,-406.5 305,-406.5"/>
<text text-anchor="middle" x="344" y="-413.9" font-family="DejaVuSans" font-size="12.00">extension.h</text>
</a>
</g>
</g>
<!-- Node1&#45;&gt;Node14 -->
<g id="edge17" class="edge">
<title>Node1&#45;&gt;Node14</title>
<path fill="none" stroke="midnightblue" d="M467.39,-464.37C442.93,-455.18 405.89,-441.26 378.78,-431.07"/>
<polygon fill="midnightblue" stroke="midnightblue" points="379.87,-427.74 369.28,-427.5 377.41,-434.3 379.87,-427.74"/>
</g>
<!-- Node19 -->
<g id="node19" class="node">
<title>Node19</title>
<g id="a_node19"><a xlink:href="box_8h.html" target="_top" xlink:title=" ">
<polygon fill="white" stroke="black" points="622,-290.5 622,-311.5 668,-311.5 668,-290.5 622,-290.5"/>
<text text-anchor="middle" x="645" y="-297.9" font-family="DejaVuSans" font-size="12.00">box.h</text>
</a>
</g>
</g>
<!-- Node1&#45;&gt;Node19 -->
<g id="edge49" class="edge">
<title>Node1&#45;&gt;Node19</title>
<path fill="none" stroke="midnightblue" d="M501.61,-464.26C526.38,-436.23 598.07,-355.11 629.7,-319.32"/>
<polygon fill="midnightblue" stroke="midnightblue" points="632.49,-321.44 636.49,-311.63 627.24,-316.81 632.49,-321.44"/>
</g>
<!-- Node3 -->
<g id="node3" class="node">
<title>Node3</title>
<g id="a_node3"><a xlink:href="global__const_8h.html" target="_top" xlink:title=" ">
<polygon fill="white" stroke="black" points="214.5,-58.5 214.5,-79.5 307.5,-79.5 307.5,-58.5 214.5,-58.5"/>
<text text-anchor="middle" x="261" y="-65.9" font-family="DejaVuSans" font-size="12.00">global_const.h</text>
</a>
</g>
</g>
<!-- Node2&#45;&gt;Node3 -->
<g id="edge2" class="edge">
<title>Node2&#45;&gt;Node3</title>
<path fill="none" stroke="midnightblue" d="M156.72,-174.28C176.15,-154.85 220.01,-110.99 244.2,-86.8"/>
<polygon fill="midnightblue" stroke="midnightblue" points="246.71,-89.24 251.31,-79.69 241.76,-84.29 246.71,-89.24"/>
</g>
<!-- Node5 -->
<g id="node5" class="node">
<title>Node5</title>
<g id="a_node5"><a xlink:href="global_8h.html" target="_top" xlink:title=" ">
<polygon fill="white" stroke="black" points="390,-116.5 390,-137.5 448,-137.5 448,-116.5 390,-116.5"/>
<text text-anchor="middle" x="419" y="-123.9" font-family="DejaVuSans" font-size="12.00">global.h</text>
</a>
</g>
</g>
<!-- Node4&#45;&gt;Node5 -->
<g id="edge4" class="edge">
<title>Node4&#45;&gt;Node5</title>
<path fill="none" stroke="midnightblue" d="M731.2,-290.38C771.27,-269.12 857.01,-216.63 819,-174 795.24,-147.35 554.56,-133.93 458.39,-129.61"/>
<polygon fill="midnightblue" stroke="midnightblue" points="458.35,-126.1 448.2,-129.16 458.04,-133.1 458.35,-126.1"/>
</g>
<!-- Node11 -->
<g id="node11" class="node">
<title>Node11</title>
<g id="a_node11"><a xlink:href="str_8h.html" target="_top" xlink:title=" ">
<polygon fill="white" stroke="black" points="624.5,-232.5 624.5,-253.5 663.5,-253.5 663.5,-232.5 624.5,-232.5"/>
<text text-anchor="middle" x="644" y="-239.9" font-family="DejaVuSans" font-size="12.00">str.h</text>
</a>
</g>
</g>
<!-- Node4&#45;&gt;Node11 -->
<g id="edge11" class="edge">
<title>Node4&#45;&gt;Node11</title>
<path fill="none" stroke="midnightblue" d="M700.16,-290.25C690.11,-281.97 675.5,-269.94 663.7,-260.22"/>
<polygon fill="midnightblue" stroke="midnightblue" points="665.65,-257.3 655.71,-253.64 661.2,-262.7 665.65,-257.3"/>
</g>
<!-- Node5&#45;&gt;Node3 -->
<g id="edge7" class="edge">
<title>Node5&#45;&gt;Node3</title>
<path fill="none" stroke="midnightblue" d="M391.84,-116.37C365.79,-107.14 326.29,-93.14 297.5,-82.94"/>
<polygon fill="midnightblue" stroke="midnightblue" points="298.4,-79.54 287.81,-79.5 296.06,-86.14 298.4,-79.54"/>
</g>
<!-- Node6 -->
<g id="node6" class="node">
<title>Node6</title>
<g id="a_node6"><a xlink:href="global__macros_8h.html" target="_top" xlink:title=" ">
<polygon fill="white" stroke="black" points="367,-58.5 367,-79.5 471,-79.5 471,-58.5 367,-58.5"/>
<text text-anchor="middle" x="419" y="-65.9" font-family="DejaVuSans" font-size="12.00">global_macros.h</text>
</a>
</g>
</g>
<!-- Node5&#45;&gt;Node6 -->
<g id="edge5" class="edge">
<title>Node5&#45;&gt;Node6</title>
<path fill="none" stroke="midnightblue" d="M419,-116.25C419,-108.94 419,-98.69 419,-89.7"/>
<polygon fill="midnightblue" stroke="midnightblue" points="422.5,-89.64 419,-79.64 415.5,-89.64 422.5,-89.64"/>
</g>
<!-- Node8 -->
<g id="node8" class="node">
<title>Node8</title>
<g id="a_node8"><a xlink:href="tex__types_8h.html" target="_top" xlink:title=" ">
<polygon fill="white" stroke="black" points="499.5,-58.5 499.5,-79.5 576.5,-79.5 576.5,-58.5 499.5,-58.5"/>
<text text-anchor="middle" x="538" y="-65.9" font-family="DejaVuSans" font-size="12.00">tex_types.h</text>
</a>
</g>
</g>
<!-- Node5&#45;&gt;Node8 -->
<g id="edge8" class="edge">
<title>Node5&#45;&gt;Node8</title>
<path fill="none" stroke="midnightblue" d="M439.46,-116.37C458.47,-107.42 487.02,-93.99 508.5,-83.88"/>
<polygon fill="midnightblue" stroke="midnightblue" points="510.25,-86.93 517.81,-79.5 507.27,-80.59 510.25,-86.93"/>
</g>
<!-- Node7 -->
<g id="node7" class="node">
<title>Node7</title>
<g id="a_node7"><a xlink:title=" ">
<polygon fill="white" stroke="#bfbfbf" points="389.5,-0.5 389.5,-21.5 448.5,-21.5 448.5,-0.5 389.5,-0.5"/>
<text text-anchor="middle" x="419" y="-7.9" font-family="DejaVuSans" font-size="12.00">assert.h</text>
</a>
</g>
</g>
<!-- Node6&#45;&gt;Node7 -->
<g id="edge6" class="edge">
<title>Node6&#45;&gt;Node7</title>
<path fill="none" stroke="midnightblue" d="M419,-58.25C419,-50.94 419,-40.69 419,-31.7"/>
<polygon fill="midnightblue" stroke="midnightblue" points="422.5,-31.64 419,-21.64 415.5,-31.64 422.5,-31.64"/>
</g>
<!-- Node9 -->
<g id="node9" class="node">
<title>Node9</title>
<g id="a_node9"><a xlink:title=" ">
<polygon fill="white" stroke="#bfbfbf" points="505.5,-0.5 505.5,-21.5 570.5,-21.5 570.5,-0.5 505.5,-0.5"/>
<text text-anchor="middle" x="538" y="-7.9" font-family="DejaVuSans" font-size="12.00">stdbool.h</text>
</a>
</g>
</g>
<!-- Node8&#45;&gt;Node9 -->
<g id="edge9" class="edge">
<title>Node8&#45;&gt;Node9</title>
<path fill="none" stroke="midnightblue" d="M538,-58.25C538,-50.94 538,-40.69 538,-31.7"/>
<polygon fill="midnightblue" stroke="midnightblue" points="541.5,-31.64 538,-21.64 534.5,-31.64 541.5,-31.64"/>
</g>
<!-- Node10 -->
<g id="node10" class="node">
<title>Node10</title>
<g id="a_node10"><a xlink:title=" ">
<polygon fill="white" stroke="#bfbfbf" points="608.5,-0.5 608.5,-21.5 663.5,-21.5 663.5,-0.5 608.5,-0.5"/>
<text text-anchor="middle" x="636" y="-7.9" font-family="DejaVuSans" font-size="12.00">stdint.h</text>
</a>
</g>
</g>
<!-- Node8&#45;&gt;Node10 -->
<g id="edge10" class="edge">
<title>Node8&#45;&gt;Node10</title>
<path fill="none" stroke="midnightblue" d="M555.07,-58.25C570.25,-49.57 592.66,-36.76 610.06,-26.82"/>
<polygon fill="midnightblue" stroke="midnightblue" points="612.18,-29.64 619.13,-21.64 608.71,-23.57 612.18,-29.64"/>
</g>
<!-- Node11&#45;&gt;Node5 -->
<g id="edge14" class="edge">
<title>Node11&#45;&gt;Node5</title>
<path fill="none" stroke="midnightblue" d="M643.09,-232.03C641.17,-217.1 635.35,-189.11 618,-174 594.48,-153.52 509.35,-139.47 458.36,-132.68"/>
<polygon fill="midnightblue" stroke="midnightblue" points="458.71,-129.2 448.34,-131.38 457.81,-136.14 458.71,-129.2"/>
</g>
<!-- Node11&#45;&gt;Node10 -->
<g id="edge13" class="edge">
<title>Node11&#45;&gt;Node10</title>
<path fill="none" stroke="midnightblue" d="M643.67,-232.41C642.46,-197.85 638.34,-79.24 636.69,-31.82"/>
<polygon fill="midnightblue" stroke="midnightblue" points="640.18,-31.5 636.33,-21.63 633.18,-31.75 640.18,-31.5"/>
</g>
<!-- Node12 -->
<g id="node12" class="node">
<title>Node12</title>
<g id="a_node12"><a xlink:title=" ">
<polygon fill="white" stroke="#bfbfbf" points="436,-174.5 436,-195.5 488,-195.5 488,-174.5 436,-174.5"/>
<text text-anchor="middle" x="462" y="-181.9" font-family="DejaVuSans" font-size="12.00">stdio.h</text>
</a>
</g>
</g>
<!-- Node11&#45;&gt;Node12 -->
<g id="edge12" class="edge">
<title>Node11&#45;&gt;Node12</title>
<path fill="none" stroke="midnightblue" d="M624.18,-235.9C593.9,-226.58 535.68,-208.67 497.85,-197.03"/>
<polygon fill="midnightblue" stroke="midnightblue" points="498.83,-193.67 488.24,-194.07 496.77,-200.36 498.83,-193.67"/>
</g>
<!-- Node13 -->
<g id="node13" class="node">
<title>Node13</title>
<g id="a_node13"><a xlink:href="charset_8h.html" target="_top" xlink:title=" ">
<polygon fill="white" stroke="black" points="544.5,-174.5 544.5,-195.5 609.5,-195.5 609.5,-174.5 544.5,-174.5"/>
<text text-anchor="middle" x="577" y="-181.9" font-family="DejaVuSans" font-size="12.00">charset.h</text>
</a>
</g>
</g>
<!-- Node11&#45;&gt;Node13 -->
<g id="edge15" class="edge">
<title>Node11&#45;&gt;Node13</title>
<path fill="none" stroke="midnightblue" d="M632.33,-232.25C622.43,-223.97 608.04,-211.94 596.41,-202.22"/>
<polygon fill="midnightblue" stroke="midnightblue" points="598.45,-199.37 588.54,-195.64 593.97,-204.74 598.45,-199.37"/>
</g>
<!-- Node13&#45;&gt;Node5 -->
<g id="edge16" class="edge">
<title>Node13&#45;&gt;Node5</title>
<path fill="none" stroke="midnightblue" d="M549.84,-174.37C523.79,-165.14 484.29,-151.14 455.5,-140.94"/>
<polygon fill="midnightblue" stroke="midnightblue" points="456.4,-137.54 445.81,-137.5 454.06,-144.14 456.4,-137.54"/>
</g>
<!-- Node14&#45;&gt;Node5 -->
<g id="edge19" class="edge">
<title>Node14&#45;&gt;Node5</title>
<path fill="none" stroke="midnightblue" d="M304.93,-409.9C222.44,-395.91 38,-358.34 38,-302 38,-302 38,-302 38,-242 38,-203.68 57.82,-193.17 91,-174 139.44,-146 303.76,-133.99 379.8,-129.84"/>
<polygon fill="midnightblue" stroke="midnightblue" points="380.12,-133.33 389.93,-129.3 379.75,-126.34 380.12,-133.33"/>
</g>
<!-- Node14&#45;&gt;Node12 -->
<g id="edge18" class="edge">
<title>Node14&#45;&gt;Node12</title>
<path fill="none" stroke="midnightblue" d="M358.4,-406.31C370.87,-397.57 389.06,-383.98 403,-370 446.7,-326.19 464.57,-313.92 480,-254 484.27,-237.41 478.46,-218.59 472.33,-204.96"/>
<polygon fill="midnightblue" stroke="midnightblue" points="475.31,-203.09 467.75,-195.67 469.04,-206.19 475.31,-203.09"/>
</g>
<!-- Node15 -->
<g id="node15" class="node">
<title>Node15</title>
<g id="a_node15"><a xlink:href="lexer_8h.html" target="_top" xlink:title=" ">
<polygon fill="white" stroke="black" points="180,-232.5 180,-253.5 232,-253.5 232,-232.5 180,-232.5"/>
<text text-anchor="middle" x="206" y="-239.9" font-family="DejaVuSans" font-size="12.00">lexer.h</text>
</a>
</g>
</g>
<!-- Node14&#45;&gt;Node15 -->
<g id="edge20" class="edge">
<title>Node14&#45;&gt;Node15</title>
<path fill="none" stroke="midnightblue" d="M328.67,-406.47C303.7,-390.16 254.32,-354.53 227,-312 217.62,-297.4 212.21,-278.35 209.24,-264.13"/>
<polygon fill="midnightblue" stroke="midnightblue" points="212.62,-263.13 207.35,-253.94 205.73,-264.41 212.62,-263.13"/>
</g>
<!-- Node16 -->
<g id="node16" class="node">
<title>Node16</title>
<g id="a_node16"><a xlink:href="eqtb_8h.html" target="_top" xlink:title=" ">
<polygon fill="white" stroke="black" points="236,-290.5 236,-311.5 286,-311.5 286,-290.5 236,-290.5"/>
<text text-anchor="middle" x="261" y="-297.9" font-family="DejaVuSans" font-size="12.00">eqtb.h</text>
</a>
</g>
</g>
<!-- Node14&#45;&gt;Node16 -->
<g id="edge24" class="edge">
<title>Node14&#45;&gt;Node16</title>
<path fill="none" stroke="midnightblue" d="M336.92,-406.28C323.02,-387.18 291.94,-344.5 274.16,-320.08"/>
<polygon fill="midnightblue" stroke="midnightblue" points="276.77,-317.72 268.06,-311.69 271.12,-321.84 276.77,-317.72"/>
</g>
<!-- Node17 -->
<g id="node17" class="node">
<title>Node17</title>
<g id="a_node17"><a xlink:href="hyphen_8h.html" target="_top" xlink:title=" ">
<polygon fill="white" stroke="black" points="328,-348.5 328,-369.5 394,-369.5 394,-348.5 328,-348.5"/>
<text text-anchor="middle" x="361" y="-355.9" font-family="DejaVuSans" font-size="12.00">hyphen.h</text>
</a>
</g>
</g>
<!-- Node14&#45;&gt;Node17 -->
<g id="edge27" class="edge">
<title>Node14&#45;&gt;Node17</title>
<path fill="none" stroke="midnightblue" d="M346.96,-406.25C349.2,-398.86 352.36,-388.47 355.11,-379.41"/>
<polygon fill="midnightblue" stroke="midnightblue" points="358.52,-380.23 358.07,-369.64 351.82,-378.19 358.52,-380.23"/>
</g>
<!-- Node15&#45;&gt;Node2 -->
<g id="edge23" class="edge">
<title>Node15&#45;&gt;Node2</title>
<path fill="none" stroke="midnightblue" d="M195.72,-232.25C187.18,-224.14 174.82,-212.41 164.69,-202.79"/>
<polygon fill="midnightblue" stroke="midnightblue" points="166.82,-199.99 157.16,-195.64 162,-205.07 166.82,-199.99"/>
</g>
<!-- Node15&#45;&gt;Node5 -->
<g id="edge22" class="edge">
<title>Node15&#45;&gt;Node5</title>
<path fill="none" stroke="midnightblue" d="M209.12,-232.02C214.31,-217.08 226.15,-189.08 246,-174 285.14,-144.28 341.94,-133.72 379.64,-130"/>
<polygon fill="midnightblue" stroke="midnightblue" points="380.08,-133.47 389.74,-129.12 379.47,-126.5 380.08,-133.47"/>
</g>
<!-- Node15&#45;&gt;Node12 -->
<g id="edge21" class="edge">
<title>Node15&#45;&gt;Node12</title>
<path fill="none" stroke="midnightblue" d="M232.43,-236.22C278.54,-226.13 373.73,-205.31 425.88,-193.9"/>
<polygon fill="midnightblue" stroke="midnightblue" points="426.69,-197.31 435.71,-191.75 425.19,-190.47 426.69,-197.31"/>
</g>
<!-- Node16&#45;&gt;Node2 -->
<g id="edge26" class="edge">
<title>Node16&#45;&gt;Node2</title>
<path fill="none" stroke="midnightblue" d="M235.91,-298.67C206.81,-295.62 160.03,-285.75 138,-254 128.17,-239.83 132.34,-219.92 137.82,-205.31"/>
<polygon fill="midnightblue" stroke="midnightblue" points="141.19,-206.34 141.86,-195.76 134.74,-203.61 141.19,-206.34"/>
</g>
<!-- Node16&#45;&gt;Node5 -->
<g id="edge25" class="edge">
<title>Node16&#45;&gt;Node5</title>
<path fill="none" stroke="midnightblue" d="M261.98,-290.16C263.69,-276.36 268.16,-250.84 279,-232 303.74,-189 354.15,-158.45 387.24,-142.02"/>
<polygon fill="midnightblue" stroke="midnightblue" points="389,-145.05 396.5,-137.57 385.97,-138.75 389,-145.05"/>
</g>
<!-- Node17&#45;&gt;Node2 -->
<g id="edge48" class="edge">
<title>Node17&#45;&gt;Node2</title>
<path fill="none" stroke="midnightblue" d="M327.57,-354.92C273.71,-347.9 169.67,-325.32 129,-254 120.25,-238.66 127.13,-218.95 134.78,-204.7"/>
<polygon fill="midnightblue" stroke="midnightblue" points="137.94,-206.22 140.01,-195.83 131.91,-202.67 137.94,-206.22"/>
</g>
<!-- Node17&#45;&gt;Node5 -->
<g id="edge28" class="edge">
<title>Node17&#45;&gt;Node5</title>
<path fill="none" stroke="midnightblue" d="M388.29,-348.39C406.87,-340.77 431.06,-328.64 448,-312 487.92,-272.78 489.05,-251.4 497,-196 498.39,-186.32 501.85,-182.49 497,-174 488.35,-158.85 472.54,-148.19 457.41,-140.98"/>
<polygon fill="midnightblue" stroke="midnightblue" points="458.7,-137.73 448.14,-136.92 455.9,-144.14 458.7,-137.73"/>
</g>
<!-- Node17&#45;&gt;Node13 -->
<g id="edge47" class="edge">
<title>Node17&#45;&gt;Node13</title>
<path fill="none" stroke="midnightblue" d="M394.01,-353.49C443.89,-344.63 536.42,-319.73 572,-254 579.91,-239.38 580.65,-220.33 579.7,-206.12"/>
<polygon fill="midnightblue" stroke="midnightblue" points="583.16,-205.53 578.68,-195.93 576.19,-206.23 583.16,-205.53"/>
</g>
<!-- Node17&#45;&gt;Node16 -->
<g id="edge46" class="edge">
<title>Node17&#45;&gt;Node16</title>
<path fill="none" stroke="midnightblue" d="M343.58,-348.25C327.95,-339.49 304.8,-326.53 286.98,-316.55"/>
<polygon fill="midnightblue" stroke="midnightblue" points="288.65,-313.47 278.22,-311.64 285.23,-319.58 288.65,-313.47"/>
</g>
<!-- Node18 -->
<g id="node18" class="node">
<title>Node18</title>
<g id="a_node18"><a xlink:href="mem_8h.html" target="_top" xlink:title=" ">
<polygon fill="white" stroke="black" points="288.5,-232.5 288.5,-253.5 341.5,-253.5 341.5,-232.5 288.5,-232.5"/>
<text text-anchor="middle" x="315" y="-239.9" font-family="DejaVuSans" font-size="12.00">mem.h</text>
</a>
</g>
</g>
<!-- Node17&#45;&gt;Node18 -->
<g id="edge29" class="edge">
<title>Node17&#45;&gt;Node18</title>
<path fill="none" stroke="midnightblue" d="M357.08,-348.28C349.47,-329.43 332.6,-287.62 322.69,-263.05"/>
<polygon fill="midnightblue" stroke="midnightblue" points="325.9,-261.66 318.91,-253.69 319.41,-264.28 325.9,-261.66"/>
</g>
<!-- Node17&#45;&gt;Node19 -->
<g id="edge32" class="edge">
<title>Node17&#45;&gt;Node19</title>
<path fill="none" stroke="midnightblue" d="M394.33,-352.66C441.95,-344.84 532.09,-329.3 608,-312 609.28,-311.71 610.58,-311.4 611.89,-311.09"/>
<polygon fill="midnightblue" stroke="midnightblue" points="613.15,-314.38 621.98,-308.53 611.42,-307.59 613.15,-314.38"/>
</g>
<!-- Node21 -->
<g id="node21" class="node">
<title>Node21</title>
<g id="a_node21"><a xlink:href="fonts_8h.html" target="_top" xlink:title=" ">
<polygon fill="white" stroke="black" points="387,-290.5 387,-311.5 439,-311.5 439,-290.5 387,-290.5"/>
<text text-anchor="middle" x="413" y="-297.9" font-family="DejaVuSans" font-size="12.00">fonts.h</text>
</a>
</g>
</g>
<!-- Node17&#45;&gt;Node21 -->
<g id="edge38" class="edge">
<title>Node17&#45;&gt;Node21</title>
<path fill="none" stroke="midnightblue" d="M370.06,-348.25C377.51,-340.22 388.26,-328.64 397.14,-319.08"/>
<polygon fill="midnightblue" stroke="midnightblue" points="399.81,-321.35 404.05,-311.64 394.68,-316.59 399.81,-321.35"/>
</g>
<!-- Node18&#45;&gt;Node2 -->
<g id="edge31" class="edge">
<title>Node18&#45;&gt;Node2</title>
<path fill="none" stroke="midnightblue" d="M288.38,-233.13C260.66,-223.89 216.98,-209.33 185.5,-198.83"/>
<polygon fill="midnightblue" stroke="midnightblue" points="186.34,-195.42 175.75,-195.58 184.13,-202.06 186.34,-195.42"/>
</g>
<!-- Node18&#45;&gt;Node5 -->
<g id="edge30" class="edge">
<title>Node18&#45;&gt;Node5</title>
<path fill="none" stroke="midnightblue" d="M319.26,-232.42C325.78,-218.48 339.24,-192.3 356,-174 366.96,-162.02 381.48,-151.18 393.81,-143.03"/>
<polygon fill="midnightblue" stroke="midnightblue" points="395.78,-145.92 402.32,-137.59 392.01,-140.02 395.78,-145.92"/>
</g>
<!-- Node19&#45;&gt;Node5 -->
<g id="edge33" class="edge">
<title>Node19&#45;&gt;Node5</title>
<path fill="none" stroke="midnightblue" d="M652.66,-290.47C659.25,-281.61 668.26,-267.76 672,-254 682.04,-217.05 670.81,-196.74 640,-174 611.64,-153.06 514,-138.84 458.45,-132.23"/>
<polygon fill="midnightblue" stroke="midnightblue" points="458.61,-128.72 448.27,-131.04 457.8,-135.67 458.61,-128.72"/>
</g>
<!-- Node19&#45;&gt;Node11 -->
<g id="edge37" class="edge">
<title>Node19&#45;&gt;Node11</title>
<path fill="none" stroke="midnightblue" d="M644.83,-290.25C644.7,-282.94 644.51,-272.69 644.35,-263.7"/>
<polygon fill="midnightblue" stroke="midnightblue" points="647.85,-263.58 644.17,-253.64 640.85,-263.7 647.85,-263.58"/>
</g>
<!-- Node19&#45;&gt;Node18 -->
<g id="edge34" class="edge">
<title>Node19&#45;&gt;Node18</title>
<path fill="none" stroke="midnightblue" d="M621.8,-296.06C565.28,-286.47 420.13,-261.84 351.72,-250.23"/>
<polygon fill="midnightblue" stroke="midnightblue" points="352.26,-246.77 341.81,-248.55 351.09,-253.67 352.26,-246.77"/>
</g>
<!-- Node20 -->
<g id="node20" class="node">
<title>Node20</title>
<g id="a_node20"><a xlink:href="texmath_8h.html" target="_top" xlink:title=" ">
<polygon fill="white" stroke="black" points="742,-174.5 742,-195.5 810,-195.5 810,-174.5 742,-174.5"/>
<text text-anchor="middle" x="776" y="-181.9" font-family="DejaVuSans" font-size="12.00">texmath.h</text>
</a>
</g>
</g>
<!-- Node19&#45;&gt;Node20 -->
<g id="edge35" class="edge">
<title>Node19&#45;&gt;Node20</title>
<path fill="none" stroke="midnightblue" d="M668.25,-290.55C685.95,-282.59 710.22,-269.95 728,-254 743.88,-239.75 757.41,-219.32 766.02,-204.57"/>
<polygon fill="midnightblue" stroke="midnightblue" points="769.09,-206.26 770.94,-195.83 762.99,-202.83 769.09,-206.26"/>
</g>
<!-- Node20&#45;&gt;Node5 -->
<g id="edge36" class="edge">
<title>Node20&#45;&gt;Node5</title>
<path fill="none" stroke="midnightblue" d="M741.96,-176.66C737.28,-175.72 732.53,-174.81 728,-174 631.29,-156.74 516.75,-140.88 458.02,-133.07"/>
<polygon fill="midnightblue" stroke="midnightblue" points="458.43,-129.6 448.06,-131.76 457.51,-136.54 458.43,-129.6"/>
</g>
<!-- Node21&#45;&gt;Node2 -->
<g id="edge41" class="edge">
<title>Node21&#45;&gt;Node2</title>
<path fill="none" stroke="midnightblue" d="M386.73,-298.27C330.96,-294.08 203.2,-281.66 171,-254 156.94,-241.92 151.11,-221.07 148.7,-205.63"/>
<polygon fill="midnightblue" stroke="midnightblue" points="152.16,-205.06 147.48,-195.55 145.21,-205.9 152.16,-205.06"/>
</g>
<!-- Node21&#45;&gt;Node5 -->
<g id="edge40" class="edge">
<title>Node21&#45;&gt;Node5</title>
<path fill="none" stroke="midnightblue" d="M406.18,-290.33C400.32,-281.38 392.3,-267.47 389,-254 379.68,-215.99 396.89,-171.43 408.87,-146.79"/>
<polygon fill="midnightblue" stroke="midnightblue" points="412.03,-148.31 413.45,-137.81 405.79,-145.14 412.03,-148.31"/>
</g>
<!-- Node21&#45;&gt;Node11 -->
<g id="edge42" class="edge">
<title>Node21&#45;&gt;Node11</title>
<path fill="none" stroke="midnightblue" d="M439.05,-293.68C482.4,-283.18 569.06,-262.17 614.56,-251.14"/>
<polygon fill="midnightblue" stroke="midnightblue" points="615.51,-254.51 624.4,-248.75 613.86,-247.71 615.51,-254.51"/>
</g>
<!-- Node21&#45;&gt;Node12 -->
<g id="edge39" class="edge">
<title>Node21&#45;&gt;Node12</title>
<path fill="none" stroke="midnightblue" d="M429.42,-290.22C441.21,-282.16 456.17,-269.55 463,-254 469.66,-238.81 468.71,-219.82 466.5,-205.77"/>
<polygon fill="midnightblue" stroke="midnightblue" points="469.89,-204.89 464.57,-195.73 463.02,-206.21 469.89,-204.89"/>
</g>
<!-- Node22 -->
<g id="node22" class="node">
<title>Node22</title>
<g id="a_node22"><a xlink:href="dump_8h.html" target="_top" xlink:title=" ">
<polygon fill="white" stroke="black" points="398,-232.5 398,-253.5 454,-253.5 454,-232.5 398,-232.5"/>
<text text-anchor="middle" x="426" y="-239.9" font-family="DejaVuSans" font-size="12.00">dump.h</text>
</a>
</g>
</g>
<!-- Node21&#45;&gt;Node22 -->
<g id="edge43" class="edge">
<title>Node21&#45;&gt;Node22</title>
<path fill="none" stroke="midnightblue" d="M415.26,-290.25C416.98,-282.86 419.39,-272.47 421.49,-263.41"/>
<polygon fill="midnightblue" stroke="midnightblue" points="424.91,-264.18 423.76,-253.64 418.09,-262.59 424.91,-264.18"/>
</g>
<!-- Node22&#45;&gt;Node5 -->
<g id="edge45" class="edge">
<title>Node22&#45;&gt;Node5</title>
<path fill="none" stroke="midnightblue" d="M425.4,-232.28C424.26,-213.6 421.72,-172.37 420.21,-147.72"/>
<polygon fill="midnightblue" stroke="midnightblue" points="423.7,-147.46 419.6,-137.69 416.71,-147.89 423.7,-147.46"/>
</g>
<!-- Node22&#45;&gt;Node12 -->
<g id="edge44" class="edge">
<title>Node22&#45;&gt;Node12</title>
<path fill="none" stroke="midnightblue" d="M432.27,-232.25C437.23,-224.54 444.28,-213.56 450.28,-204.23"/>
<polygon fill="midnightblue" stroke="midnightblue" points="453.34,-205.95 455.8,-195.64 447.45,-202.16 453.34,-205.95"/>
</g>
</g>
</svg>
