<?xml version="1.0" encoding="UTF-8" standalone="no"?>
<!DOCTYPE svg PUBLIC "-//W3C//DTD SVG 1.1//EN"
 "http://www.w3.org/Graphics/SVG/1.1/DTD/svg11.dtd">
<!-- Generated by graphviz version 2.44.0 ()
 -->
<!-- Title: box_destroy.c Pages: 1 -->
<svg width="717pt" height="610pt"
 viewBox="0.00 0.00 717.00 610.00" xmlns="http://www.w3.org/2000/svg" xmlns:xlink="http://www.w3.org/1999/xlink">
<g id="graph0" class="graph" transform="scale(1 1) rotate(0) translate(4 606)">
<title>box_destroy.c</title>
<polygon fill="white" stroke="transparent" points="-4,4 -4,-606 713,-606 713,4 -4,4"/>
<!-- Node1 -->
<g id="node1" class="node">
<title>Node1</title>
<g id="a_node1"><a xlink:title=" ">
<polygon fill="#bfbfbf" stroke="black" points="137.5,-580.5 137.5,-601.5 228.5,-601.5 228.5,-580.5 137.5,-580.5"/>
<text text-anchor="middle" x="183" y="-587.9" font-family="DejaVuSans" font-size="12.00">box_destroy.c</text>
</a>
</g>
</g>
<!-- Node2 -->
<g id="node2" class="node">
<title>Node2</title>
<g id="a_node2"><a xlink:href="tex__types_8h.html" target="_top" xlink:title=" ">
<polygon fill="white" stroke="black" points="198.5,-58.5 198.5,-79.5 275.5,-79.5 275.5,-58.5 198.5,-58.5"/>
<text text-anchor="middle" x="237" y="-65.9" font-family="DejaVuSans" font-size="12.00">tex_types.h</text>
</a>
</g>
</g>
<!-- Node1&#45;&gt;Node2 -->
<g id="edge1" class="edge">
<title>Node1&#45;&gt;Node2</title>
<path fill="none" stroke="midnightblue" d="M137.29,-582.14C83.09,-569.88 0,-540.57 0,-476 0,-476 0,-476 0,-184 0,-143.1 27.01,-137.18 62,-116 83.13,-103.21 144.33,-88.78 188.4,-79.54"/>
<polygon fill="midnightblue" stroke="midnightblue" points="189.28,-82.94 198.36,-77.48 187.86,-76.08 189.28,-82.94"/>
</g>
<!-- Node5 -->
<g id="node5" class="node">
<title>Node5</title>
<g id="a_node5"><a xlink:href="tex__constant_8h.html" target="_top" xlink:title=" ">
<polygon fill="white" stroke="black" points="180,-290.5 180,-311.5 274,-311.5 274,-290.5 180,-290.5"/>
<text text-anchor="middle" x="227" y="-297.9" font-family="DejaVuSans" font-size="12.00">tex_constant.h</text>
</a>
</g>
</g>
<!-- Node1&#45;&gt;Node5 -->
<g id="edge4" class="edge">
<title>Node1&#45;&gt;Node5</title>
<path fill="none" stroke="midnightblue" d="M179.7,-580.35C175.59,-567.2 169.43,-542.89 172,-522 181.28,-446.6 207.82,-359.88 220.32,-321.74"/>
<polygon fill="midnightblue" stroke="midnightblue" points="223.75,-322.52 223.59,-311.92 217.11,-320.31 223.75,-322.52"/>
</g>
<!-- Node6 -->
<g id="node6" class="node">
<title>Node6</title>
<g id="a_node6"><a xlink:href="box_8h.html" target="_top" xlink:title=" ">
<polygon fill="white" stroke="black" points="157,-232.5 157,-253.5 203,-253.5 203,-232.5 157,-232.5"/>
<text text-anchor="middle" x="180" y="-239.9" font-family="DejaVuSans" font-size="12.00">box.h</text>
</a>
</g>
</g>
<!-- Node1&#45;&gt;Node6 -->
<g id="edge52" class="edge">
<title>Node1&#45;&gt;Node6</title>
<path fill="none" stroke="midnightblue" d="M171.91,-580.23C152.41,-561.9 114,-520.19 114,-476 114,-476 114,-476 114,-358 114,-325.95 121.53,-317.5 138,-290 144.4,-279.31 153.54,-268.93 161.67,-260.74"/>
<polygon fill="midnightblue" stroke="midnightblue" points="164.27,-263.1 169.02,-253.63 159.4,-258.07 164.27,-263.1"/>
</g>
<!-- Node13 -->
<g id="node13" class="node">
<title>Node13</title>
<g id="a_node13"><a xlink:href="mem_8h.html" target="_top" xlink:title=" ">
<polygon fill="white" stroke="black" points="32.5,-348.5 32.5,-369.5 85.5,-369.5 85.5,-348.5 32.5,-348.5"/>
<text text-anchor="middle" x="59" y="-355.9" font-family="DejaVuSans" font-size="12.00">mem.h</text>
</a>
</g>
</g>
<!-- Node1&#45;&gt;Node13 -->
<g id="edge17" class="edge">
<title>Node1&#45;&gt;Node13</title>
<path fill="none" stroke="midnightblue" d="M152.61,-580.34C134.68,-573.1 113.02,-561.42 100,-544 62.51,-493.86 58.16,-415.91 58.35,-379.71"/>
<polygon fill="midnightblue" stroke="midnightblue" points="61.85,-379.58 58.54,-369.51 54.85,-379.45 61.85,-379.58"/>
</g>
<!-- Node16 -->
<g id="node16" class="node">
<title>Node16</title>
<g id="a_node16"><a xlink:href="error_8h.html" target="_top" xlink:title=" ">
<polygon fill="white" stroke="black" points="303.5,-522.5 303.5,-543.5 354.5,-543.5 354.5,-522.5 303.5,-522.5"/>
<text text-anchor="middle" x="329" y="-529.9" font-family="DejaVuSans" font-size="12.00">error.h</text>
</a>
</g>
</g>
<!-- Node1&#45;&gt;Node16 -->
<g id="edge24" class="edge">
<title>Node1&#45;&gt;Node16</title>
<path fill="none" stroke="midnightblue" d="M208.1,-580.37C231.96,-571.22 268.03,-557.38 294.57,-547.21"/>
<polygon fill="midnightblue" stroke="midnightblue" points="296.15,-550.35 304.23,-543.5 293.64,-543.81 296.15,-550.35"/>
</g>
<!-- Node17 -->
<g id="node17" class="node">
<title>Node17</title>
<g id="a_node17"><a xlink:href="pack_8h.html" target="_top" xlink:title=" ">
<polygon fill="white" stroke="black" points="373,-522.5 373,-543.5 425,-543.5 425,-522.5 373,-522.5"/>
<text text-anchor="middle" x="399" y="-529.9" font-family="DejaVuSans" font-size="12.00">pack.h</text>
</a>
</g>
</g>
<!-- Node1&#45;&gt;Node17 -->
<g id="edge25" class="edge">
<title>Node1&#45;&gt;Node17</title>
<path fill="none" stroke="midnightblue" d="M221.33,-580.45C257.82,-571.3 314.23,-557 363,-544 363.1,-543.97 363.2,-543.95 363.29,-543.92"/>
<polygon fill="midnightblue" stroke="midnightblue" points="363.93,-547.37 372.67,-541.38 362.1,-540.62 363.93,-547.37"/>
</g>
<!-- Node18 -->
<g id="node18" class="node">
<title>Node18</title>
<g id="a_node18"><a xlink:href="mmode_8h.html" target="_top" xlink:title=" ">
<polygon fill="white" stroke="black" points="181,-522.5 181,-543.5 247,-543.5 247,-522.5 181,-522.5"/>
<text text-anchor="middle" x="214" y="-529.9" font-family="DejaVuSans" font-size="12.00">mmode.h</text>
</a>
</g>
</g>
<!-- Node1&#45;&gt;Node18 -->
<g id="edge26" class="edge">
<title>Node1&#45;&gt;Node18</title>
<path fill="none" stroke="midnightblue" d="M188.4,-580.25C192.62,-572.62 198.62,-561.79 203.74,-552.53"/>
<polygon fill="midnightblue" stroke="midnightblue" points="206.88,-554.09 208.66,-543.64 200.76,-550.7 206.88,-554.09"/>
</g>
<!-- Node24 -->
<g id="node24" class="node">
<title>Node24</title>
<g id="a_node24"><a xlink:href="extension_8h.html" target="_top" xlink:title=" ">
<polygon fill="white" stroke="black" points="289,-464.5 289,-485.5 367,-485.5 367,-464.5 289,-464.5"/>
<text text-anchor="middle" x="328" y="-471.9" font-family="DejaVuSans" font-size="12.00">extension.h</text>
</a>
</g>
</g>
<!-- Node1&#45;&gt;Node24 -->
<g id="edge41" class="edge">
<title>Node1&#45;&gt;Node24</title>
<path fill="none" stroke="midnightblue" d="M200.15,-580.47C215.35,-571.73 237.89,-558.04 256,-544 276.41,-528.18 297.65,-507.52 311.73,-493.14"/>
<polygon fill="midnightblue" stroke="midnightblue" points="314.32,-495.49 318.76,-485.87 309.29,-490.62 314.32,-495.49"/>
</g>
<!-- Node3 -->
<g id="node3" class="node">
<title>Node3</title>
<g id="a_node3"><a xlink:title=" ">
<polygon fill="white" stroke="#bfbfbf" points="204.5,-0.5 204.5,-21.5 269.5,-21.5 269.5,-0.5 204.5,-0.5"/>
<text text-anchor="middle" x="237" y="-7.9" font-family="DejaVuSans" font-size="12.00">stdbool.h</text>
</a>
</g>
</g>
<!-- Node2&#45;&gt;Node3 -->
<g id="edge2" class="edge">
<title>Node2&#45;&gt;Node3</title>
<path fill="none" stroke="midnightblue" d="M237,-58.25C237,-50.94 237,-40.69 237,-31.7"/>
<polygon fill="midnightblue" stroke="midnightblue" points="240.5,-31.64 237,-21.64 233.5,-31.64 240.5,-31.64"/>
</g>
<!-- Node4 -->
<g id="node4" class="node">
<title>Node4</title>
<g id="a_node4"><a xlink:title=" ">
<polygon fill="white" stroke="#bfbfbf" points="347.5,-0.5 347.5,-21.5 402.5,-21.5 402.5,-0.5 347.5,-0.5"/>
<text text-anchor="middle" x="375" y="-7.9" font-family="DejaVuSans" font-size="12.00">stdint.h</text>
</a>
</g>
</g>
<!-- Node2&#45;&gt;Node4 -->
<g id="edge3" class="edge">
<title>Node2&#45;&gt;Node4</title>
<path fill="none" stroke="midnightblue" d="M260.72,-58.37C283.17,-49.26 317.07,-35.51 342.13,-25.34"/>
<polygon fill="midnightblue" stroke="midnightblue" points="343.64,-28.5 351.59,-21.5 341,-22.02 343.64,-28.5"/>
</g>
<!-- Node5&#45;&gt;Node6 -->
<g id="edge5" class="edge">
<title>Node5&#45;&gt;Node6</title>
<path fill="none" stroke="midnightblue" d="M218.81,-290.25C212.14,-282.3 202.55,-270.87 194.57,-261.37"/>
<polygon fill="midnightblue" stroke="midnightblue" points="197.2,-259.05 188.09,-253.64 191.84,-263.55 197.2,-259.05"/>
</g>
<!-- Node7 -->
<g id="node7" class="node">
<title>Node7</title>
<g id="a_node7"><a xlink:href="str_8h.html" target="_top" xlink:title=" ">
<polygon fill="white" stroke="black" points="405.5,-174.5 405.5,-195.5 444.5,-195.5 444.5,-174.5 405.5,-174.5"/>
<text text-anchor="middle" x="425" y="-181.9" font-family="DejaVuSans" font-size="12.00">str.h</text>
</a>
</g>
</g>
<!-- Node6&#45;&gt;Node7 -->
<g id="edge6" class="edge">
<title>Node6&#45;&gt;Node7</title>
<path fill="none" stroke="midnightblue" d="M203.05,-236.73C247.76,-226.51 346.18,-204.02 395.55,-192.73"/>
<polygon fill="midnightblue" stroke="midnightblue" points="396.33,-196.14 405.3,-190.5 394.77,-189.32 396.33,-196.14"/>
</g>
<!-- Node12 -->
<g id="node12" class="node">
<title>Node12</title>
<g id="a_node12"><a xlink:href="texmath_8h.html" target="_top" xlink:title=" ">
<polygon fill="white" stroke="black" points="141,-174.5 141,-195.5 209,-195.5 209,-174.5 141,-174.5"/>
<text text-anchor="middle" x="175" y="-181.9" font-family="DejaVuSans" font-size="12.00">texmath.h</text>
</a>
</g>
</g>
<!-- Node6&#45;&gt;Node12 -->
<g id="edge15" class="edge">
<title>Node6&#45;&gt;Node12</title>
<path fill="none" stroke="midnightblue" d="M179.13,-232.25C178.48,-224.94 177.56,-214.69 176.76,-205.7"/>
<polygon fill="midnightblue" stroke="midnightblue" points="180.24,-205.29 175.86,-195.64 173.26,-205.91 180.24,-205.29"/>
</g>
<!-- Node7&#45;&gt;Node2 -->
<g id="edge14" class="edge">
<title>Node7&#45;&gt;Node2</title>
<path fill="none" stroke="midnightblue" d="M420.59,-174.16C413.49,-159.41 398.15,-131.64 377,-116 350.14,-96.13 314.24,-84.56 285.53,-78"/>
<polygon fill="midnightblue" stroke="midnightblue" points="286.21,-74.56 275.7,-75.88 284.74,-81.41 286.21,-74.56"/>
</g>
<!-- Node7&#45;&gt;Node4 -->
<g id="edge8" class="edge">
<title>Node7&#45;&gt;Node4</title>
<path fill="none" stroke="midnightblue" d="M422.17,-174.26C414.19,-146.82 391.43,-68.51 380.71,-31.64"/>
<polygon fill="midnightblue" stroke="midnightblue" points="383.95,-30.26 377.8,-21.63 377.23,-32.21 383.95,-30.26"/>
</g>
<!-- Node8 -->
<g id="node8" class="node">
<title>Node8</title>
<g id="a_node8"><a xlink:title=" ">
<polygon fill="white" stroke="#bfbfbf" points="485,-58.5 485,-79.5 537,-79.5 537,-58.5 485,-58.5"/>
<text text-anchor="middle" x="511" y="-65.9" font-family="DejaVuSans" font-size="12.00">stdio.h</text>
</a>
</g>
</g>
<!-- Node7&#45;&gt;Node8 -->
<g id="edge7" class="edge">
<title>Node7&#45;&gt;Node8</title>
<path fill="none" stroke="midnightblue" d="M432.33,-174.28C446.8,-155.1 479.22,-112.12 497.61,-87.75"/>
<polygon fill="midnightblue" stroke="midnightblue" points="500.46,-89.79 503.69,-79.69 494.87,-85.57 500.46,-89.79"/>
</g>
<!-- Node9 -->
<g id="node9" class="node">
<title>Node9</title>
<g id="a_node9"><a xlink:href="global__const_8h.html" target="_top" xlink:title=" ">
<polygon fill="white" stroke="black" points="577.5,-116.5 577.5,-137.5 670.5,-137.5 670.5,-116.5 577.5,-116.5"/>
<text text-anchor="middle" x="624" y="-123.9" font-family="DejaVuSans" font-size="12.00">global_const.h</text>
</a>
</g>
</g>
<!-- Node7&#45;&gt;Node9 -->
<g id="edge9" class="edge">
<title>Node7&#45;&gt;Node9</title>
<path fill="none" stroke="midnightblue" d="M444.81,-178.43C476.21,-169.59 538.16,-152.15 580.33,-140.29"/>
<polygon fill="midnightblue" stroke="midnightblue" points="581.39,-143.63 590.07,-137.55 579.5,-136.89 581.39,-143.63"/>
</g>
<!-- Node11 -->
<g id="node11" class="node">
<title>Node11</title>
<g id="a_node11"><a xlink:href="charset_8h.html" target="_top" xlink:title=" ">
<polygon fill="white" stroke="black" points="303.5,-116.5 303.5,-137.5 368.5,-137.5 368.5,-116.5 303.5,-116.5"/>
<text text-anchor="middle" x="336" y="-123.9" font-family="DejaVuSans" font-size="12.00">charset.h</text>
</a>
</g>
</g>
<!-- Node7&#45;&gt;Node11 -->
<g id="edge12" class="edge">
<title>Node7&#45;&gt;Node11</title>
<path fill="none" stroke="midnightblue" d="M409.5,-174.25C395.84,-165.65 375.73,-153 360,-143.1"/>
<polygon fill="midnightblue" stroke="midnightblue" points="361.65,-140.01 351.32,-137.64 357.92,-145.93 361.65,-140.01"/>
</g>
<!-- Node9&#45;&gt;Node8 -->
<g id="edge11" class="edge">
<title>Node9&#45;&gt;Node8</title>
<path fill="none" stroke="midnightblue" d="M604.57,-116.37C586.6,-107.46 559.66,-94.11 539.29,-84.02"/>
<polygon fill="midnightblue" stroke="midnightblue" points="540.69,-80.81 530.17,-79.5 537.58,-87.08 540.69,-80.81"/>
</g>
<!-- Node10 -->
<g id="node10" class="node">
<title>Node10</title>
<g id="a_node10"><a xlink:title=" ">
<polygon fill="white" stroke="#bfbfbf" points="594.5,-58.5 594.5,-79.5 653.5,-79.5 653.5,-58.5 594.5,-58.5"/>
<text text-anchor="middle" x="624" y="-65.9" font-family="DejaVuSans" font-size="12.00">assert.h</text>
</a>
</g>
</g>
<!-- Node9&#45;&gt;Node10 -->
<g id="edge10" class="edge">
<title>Node9&#45;&gt;Node10</title>
<path fill="none" stroke="midnightblue" d="M624,-116.25C624,-108.94 624,-98.69 624,-89.7"/>
<polygon fill="midnightblue" stroke="midnightblue" points="627.5,-89.64 624,-79.64 620.5,-89.64 627.5,-89.64"/>
</g>
<!-- Node11&#45;&gt;Node2 -->
<g id="edge13" class="edge">
<title>Node11&#45;&gt;Node2</title>
<path fill="none" stroke="midnightblue" d="M318.76,-116.25C303.42,-107.57 280.78,-94.76 263.21,-84.82"/>
<polygon fill="midnightblue" stroke="midnightblue" points="264.47,-81.52 254.05,-79.64 261.03,-87.61 264.47,-81.52"/>
</g>
<!-- Node12&#45;&gt;Node2 -->
<g id="edge16" class="edge">
<title>Node12&#45;&gt;Node2</title>
<path fill="none" stroke="midnightblue" d="M180.29,-174.28C190.58,-155.35 213.48,-113.25 226.82,-88.72"/>
<polygon fill="midnightblue" stroke="midnightblue" points="230.02,-90.15 231.73,-79.69 223.87,-86.81 230.02,-90.15"/>
</g>
<!-- Node13&#45;&gt;Node2 -->
<g id="edge18" class="edge">
<title>Node13&#45;&gt;Node2</title>
<path fill="none" stroke="midnightblue" d="M55.99,-348.35C50.18,-328.85 38,-283.24 38,-244 38,-244 38,-244 38,-184 38,-141.88 68.47,-138.61 104,-116 129.86,-99.54 162.32,-88.17 188.7,-80.85"/>
<polygon fill="midnightblue" stroke="midnightblue" points="189.73,-84.2 198.49,-78.24 187.92,-77.43 189.73,-84.2"/>
</g>
<!-- Node13&#45;&gt;Node5 -->
<g id="edge19" class="edge">
<title>Node13&#45;&gt;Node5</title>
<path fill="none" stroke="midnightblue" d="M85.62,-349.13C113.34,-339.89 157.02,-325.33 188.5,-314.83"/>
<polygon fill="midnightblue" stroke="midnightblue" points="189.87,-318.06 198.25,-311.58 187.66,-311.42 189.87,-318.06"/>
</g>
<!-- Node14 -->
<g id="node14" class="node">
<title>Node14</title>
<g id="a_node14"><a xlink:href="global_8h.html" target="_top" xlink:title=" ">
<polygon fill="white" stroke="black" points="113,-116.5 113,-137.5 171,-137.5 171,-116.5 113,-116.5"/>
<text text-anchor="middle" x="142" y="-123.9" font-family="DejaVuSans" font-size="12.00">global.h</text>
</a>
</g>
</g>
<!-- Node13&#45;&gt;Node14 -->
<g id="edge20" class="edge">
<title>Node13&#45;&gt;Node14</title>
<path fill="none" stroke="midnightblue" d="M62.46,-348.41C74.98,-313.71 118.1,-194.24 135.06,-147.22"/>
<polygon fill="midnightblue" stroke="midnightblue" points="138.42,-148.23 138.52,-137.63 131.84,-145.85 138.42,-148.23"/>
</g>
<!-- Node14&#45;&gt;Node2 -->
<g id="edge23" class="edge">
<title>Node14&#45;&gt;Node2</title>
<path fill="none" stroke="midnightblue" d="M158.55,-116.25C173.26,-107.57 194.99,-94.76 211.85,-84.82"/>
<polygon fill="midnightblue" stroke="midnightblue" points="213.8,-87.74 220.64,-79.64 210.25,-81.71 213.8,-87.74"/>
</g>
<!-- Node14&#45;&gt;Node8 -->
<g id="edge21" class="edge">
<title>Node14&#45;&gt;Node8</title>
<path fill="none" stroke="midnightblue" d="M171.26,-121.56C238.04,-111.42 401.51,-86.62 474.62,-75.52"/>
<polygon fill="midnightblue" stroke="midnightblue" points="475.37,-78.95 484.73,-73.99 474.32,-72.03 475.37,-78.95"/>
</g>
<!-- Node15 -->
<g id="node15" class="node">
<title>Node15</title>
<g id="a_node15"><a xlink:title=" ">
<polygon fill="white" stroke="#bfbfbf" points="111,-58.5 111,-79.5 173,-79.5 173,-58.5 111,-58.5"/>
<text text-anchor="middle" x="142" y="-65.9" font-family="DejaVuSans" font-size="12.00">setjmp.h</text>
</a>
</g>
</g>
<!-- Node14&#45;&gt;Node15 -->
<g id="edge22" class="edge">
<title>Node14&#45;&gt;Node15</title>
<path fill="none" stroke="midnightblue" d="M142,-116.25C142,-108.94 142,-98.69 142,-89.7"/>
<polygon fill="midnightblue" stroke="midnightblue" points="145.5,-89.64 142,-79.64 138.5,-89.64 145.5,-89.64"/>
</g>
<!-- Node18&#45;&gt;Node11 -->
<g id="edge27" class="edge">
<title>Node18&#45;&gt;Node11</title>
<path fill="none" stroke="midnightblue" d="M208.39,-522.27C189.73,-488.52 132.99,-373.97 171,-290 181,-267.91 194.37,-270.65 212,-254 251.89,-216.32 296.54,-169.81 319.85,-145.19"/>
<polygon fill="midnightblue" stroke="midnightblue" points="322.58,-147.39 326.9,-137.72 317.49,-142.59 322.58,-147.39"/>
</g>
<!-- Node19 -->
<g id="node19" class="node">
<title>Node19</title>
<g id="a_node19"><a xlink:href="fonts_8h.html" target="_top" xlink:title=" ">
<polygon fill="white" stroke="black" points="444,-348.5 444,-369.5 496,-369.5 496,-348.5 444,-348.5"/>
<text text-anchor="middle" x="470" y="-355.9" font-family="DejaVuSans" font-size="12.00">fonts.h</text>
</a>
</g>
</g>
<!-- Node18&#45;&gt;Node19 -->
<g id="edge28" class="edge">
<title>Node18&#45;&gt;Node19</title>
<path fill="none" stroke="midnightblue" d="M247.07,-526.57C280.84,-520.14 334.12,-507.49 376,-486 412.87,-467.08 425.62,-462.21 449,-428 458.9,-413.51 464.28,-394.17 467.11,-379.82"/>
<polygon fill="midnightblue" stroke="midnightblue" points="470.62,-380.01 468.86,-369.57 463.72,-378.83 470.62,-380.01"/>
</g>
<!-- Node21 -->
<g id="node21" class="node">
<title>Node21</title>
<g id="a_node21"><a xlink:href="scan_8h.html" target="_top" xlink:title=" ">
<polygon fill="white" stroke="black" points="219,-464.5 219,-485.5 271,-485.5 271,-464.5 219,-464.5"/>
<text text-anchor="middle" x="245" y="-471.9" font-family="DejaVuSans" font-size="12.00">scan.h</text>
</a>
</g>
</g>
<!-- Node18&#45;&gt;Node21 -->
<g id="edge34" class="edge">
<title>Node18&#45;&gt;Node21</title>
<path fill="none" stroke="midnightblue" d="M219.4,-522.25C223.62,-514.62 229.62,-503.79 234.74,-494.53"/>
<polygon fill="midnightblue" stroke="midnightblue" points="237.88,-496.09 239.66,-485.64 231.76,-492.7 237.88,-496.09"/>
</g>
<!-- Node19&#45;&gt;Node5 -->
<g id="edge31" class="edge">
<title>Node19&#45;&gt;Node5</title>
<path fill="none" stroke="midnightblue" d="M443.99,-352.01C404.62,-342.93 329.11,-325.53 278.39,-313.84"/>
<polygon fill="midnightblue" stroke="midnightblue" points="279.12,-310.42 268.59,-311.58 277.55,-317.24 279.12,-310.42"/>
</g>
<!-- Node19&#45;&gt;Node7 -->
<g id="edge32" class="edge">
<title>Node19&#45;&gt;Node7</title>
<path fill="none" stroke="midnightblue" d="M467.45,-348.26C460.27,-320.82 439.78,-242.51 430.14,-205.64"/>
<polygon fill="midnightblue" stroke="midnightblue" points="433.44,-204.42 427.52,-195.63 426.67,-206.19 433.44,-204.42"/>
</g>
<!-- Node19&#45;&gt;Node8 -->
<g id="edge29" class="edge">
<title>Node19&#45;&gt;Node8</title>
<path fill="none" stroke="midnightblue" d="M483.05,-348.3C505.48,-330.39 549,-289.75 549,-244 549,-244 549,-244 549,-184 549,-148.9 532.59,-110.7 521.34,-88.63"/>
<polygon fill="midnightblue" stroke="midnightblue" points="524.38,-86.9 516.61,-79.7 518.19,-90.17 524.38,-86.9"/>
</g>
<!-- Node19&#45;&gt;Node9 -->
<g id="edge30" class="edge">
<title>Node19&#45;&gt;Node9</title>
<path fill="none" stroke="midnightblue" d="M496.12,-355.25C541.55,-349.88 632.09,-336.31 651,-312 689.41,-262.61 654.2,-182.56 634.82,-146.57"/>
<polygon fill="midnightblue" stroke="midnightblue" points="637.77,-144.68 629.84,-137.65 631.65,-148.09 637.77,-144.68"/>
</g>
<!-- Node20 -->
<g id="node20" class="node">
<title>Node20</title>
<g id="a_node20"><a xlink:href="macros_8h.html" target="_top" xlink:title=" ">
<polygon fill="white" stroke="black" points="577.5,-290.5 577.5,-311.5 642.5,-311.5 642.5,-290.5 577.5,-290.5"/>
<text text-anchor="middle" x="610" y="-297.9" font-family="DejaVuSans" font-size="12.00">macros.h</text>
</a>
</g>
</g>
<!-- Node19&#45;&gt;Node20 -->
<g id="edge33" class="edge">
<title>Node19&#45;&gt;Node20</title>
<path fill="none" stroke="midnightblue" d="M494.07,-348.37C516.84,-339.26 551.23,-325.51 576.65,-315.34"/>
<polygon fill="midnightblue" stroke="midnightblue" points="578.26,-318.46 586.25,-311.5 575.66,-311.97 578.26,-318.46"/>
</g>
<!-- Node22 -->
<g id="node22" class="node">
<title>Node22</title>
<g id="a_node22"><a xlink:href="lexer_8h.html" target="_top" xlink:title=" ">
<polygon fill="white" stroke="black" points="302,-406.5 302,-427.5 354,-427.5 354,-406.5 302,-406.5"/>
<text text-anchor="middle" x="328" y="-413.9" font-family="DejaVuSans" font-size="12.00">lexer.h</text>
</a>
</g>
</g>
<!-- Node21&#45;&gt;Node22 -->
<g id="edge35" class="edge">
<title>Node21&#45;&gt;Node22</title>
<path fill="none" stroke="midnightblue" d="M259.46,-464.25C272.07,-455.73 290.59,-443.24 305.2,-433.38"/>
<polygon fill="midnightblue" stroke="midnightblue" points="307.38,-436.14 313.71,-427.64 303.46,-430.33 307.38,-436.14"/>
</g>
<!-- Node22&#45;&gt;Node8 -->
<g id="edge36" class="edge">
<title>Node22&#45;&gt;Node8</title>
<path fill="none" stroke="midnightblue" d="M334.93,-406.31C341.41,-397.12 351.22,-382.85 359,-370 419.53,-269.97 433.84,-244.08 483,-138 490.53,-121.75 498.21,-102.9 503.62,-89.17"/>
<polygon fill="midnightblue" stroke="midnightblue" points="506.9,-90.39 507.27,-79.8 500.38,-87.84 506.9,-90.39"/>
</g>
<!-- Node23 -->
<g id="node23" class="node">
<title>Node23</title>
<g id="a_node23"><a xlink:href="tex_8h.html" target="_top" xlink:title=" ">
<polygon fill="white" stroke="black" points="308,-348.5 308,-369.5 350,-369.5 350,-348.5 308,-348.5"/>
<text text-anchor="middle" x="329" y="-355.9" font-family="DejaVuSans" font-size="12.00">tex.h</text>
</a>
</g>
</g>
<!-- Node22&#45;&gt;Node23 -->
<g id="edge37" class="edge">
<title>Node22&#45;&gt;Node23</title>
<path fill="none" stroke="midnightblue" d="M328.17,-406.25C328.3,-398.94 328.49,-388.69 328.65,-379.7"/>
<polygon fill="midnightblue" stroke="midnightblue" points="332.15,-379.7 328.83,-369.64 325.15,-379.58 332.15,-379.7"/>
</g>
<!-- Node23&#45;&gt;Node2 -->
<g id="edge39" class="edge">
<title>Node23&#45;&gt;Node2</title>
<path fill="none" stroke="midnightblue" d="M326.06,-348.28C316.13,-315.48 282.74,-205.89 253,-116 250.09,-107.19 246.73,-97.49 243.85,-89.27"/>
<polygon fill="midnightblue" stroke="midnightblue" points="247.15,-88.11 240.52,-79.84 240.55,-90.44 247.15,-88.11"/>
</g>
<!-- Node23&#45;&gt;Node5 -->
<g id="edge40" class="edge">
<title>Node23&#45;&gt;Node5</title>
<path fill="none" stroke="midnightblue" d="M311.23,-348.25C295.29,-339.49 271.67,-326.53 253.5,-316.55"/>
<polygon fill="midnightblue" stroke="midnightblue" points="255.01,-313.39 244.56,-311.64 251.64,-319.52 255.01,-313.39"/>
</g>
<!-- Node23&#45;&gt;Node9 -->
<g id="edge38" class="edge">
<title>Node23&#45;&gt;Node9</title>
<path fill="none" stroke="midnightblue" d="M341.3,-348.41C386.94,-312.83 546.86,-188.15 603.73,-143.8"/>
<polygon fill="midnightblue" stroke="midnightblue" points="605.91,-146.54 611.65,-137.63 601.61,-141.02 605.91,-146.54"/>
</g>
<!-- Node24&#45;&gt;Node22 -->
<g id="edge42" class="edge">
<title>Node24&#45;&gt;Node22</title>
<path fill="none" stroke="midnightblue" d="M328,-464.25C328,-456.94 328,-446.69 328,-437.7"/>
<polygon fill="midnightblue" stroke="midnightblue" points="331.5,-437.64 328,-427.64 324.5,-437.64 331.5,-437.64"/>
</g>
<!-- Node25 -->
<g id="node25" class="node">
<title>Node25</title>
<g id="a_node25"><a xlink:href="eqtb_8h.html" target="_top" xlink:title=" ">
<polygon fill="white" stroke="black" points="240,-348.5 240,-369.5 290,-369.5 290,-348.5 240,-348.5"/>
<text text-anchor="middle" x="265" y="-355.9" font-family="DejaVuSans" font-size="12.00">eqtb.h</text>
</a>
</g>
</g>
<!-- Node24&#45;&gt;Node25 -->
<g id="edge43" class="edge">
<title>Node24&#45;&gt;Node25</title>
<path fill="none" stroke="midnightblue" d="M319.42,-464.3C311.79,-455.33 300.69,-441.41 293,-428 283.99,-412.29 276.37,-393.11 271.36,-379.13"/>
<polygon fill="midnightblue" stroke="midnightblue" points="274.64,-377.91 268.07,-369.6 268.03,-380.2 274.64,-377.91"/>
</g>
<!-- Node26 -->
<g id="node26" class="node">
<title>Node26</title>
<g id="a_node26"><a xlink:href="hyphen_8h.html" target="_top" xlink:title=" ">
<polygon fill="white" stroke="black" points="374,-406.5 374,-427.5 440,-427.5 440,-406.5 374,-406.5"/>
<text text-anchor="middle" x="407" y="-413.9" font-family="DejaVuSans" font-size="12.00">hyphen.h</text>
</a>
</g>
</g>
<!-- Node24&#45;&gt;Node26 -->
<g id="edge46" class="edge">
<title>Node24&#45;&gt;Node26</title>
<path fill="none" stroke="midnightblue" d="M341.76,-464.25C353.66,-455.81 371.07,-443.47 384.91,-433.66"/>
<polygon fill="midnightblue" stroke="midnightblue" points="387.26,-436.28 393.4,-427.64 383.21,-430.57 387.26,-436.28"/>
</g>
<!-- Node25&#45;&gt;Node2 -->
<g id="edge44" class="edge">
<title>Node25&#45;&gt;Node2</title>
<path fill="none" stroke="midnightblue" d="M270.88,-348.29C278.13,-335.07 288.82,-310.69 283,-290 277.92,-271.95 267.24,-271.68 261,-254 240.78,-196.68 237.33,-123.91 236.91,-89.59"/>
<polygon fill="midnightblue" stroke="midnightblue" points="240.41,-89.49 236.87,-79.51 233.41,-89.52 240.41,-89.49"/>
</g>
<!-- Node25&#45;&gt;Node5 -->
<g id="edge45" class="edge">
<title>Node25&#45;&gt;Node5</title>
<path fill="none" stroke="midnightblue" d="M258.38,-348.25C253.1,-340.46 245.55,-329.33 239.18,-319.94"/>
<polygon fill="midnightblue" stroke="midnightblue" points="242.05,-317.95 233.54,-311.64 236.26,-321.88 242.05,-317.95"/>
</g>
<!-- Node26&#45;&gt;Node9 -->
<g id="edge47" class="edge">
<title>Node26&#45;&gt;Node9</title>
<path fill="none" stroke="midnightblue" d="M440.18,-410.73C518.63,-397.33 709,-358.95 709,-302 709,-302 709,-302 709,-242 709,-200.08 671.6,-163.61 646.42,-143.81"/>
<polygon fill="midnightblue" stroke="midnightblue" points="648.5,-141 638.42,-137.75 644.28,-146.58 648.5,-141"/>
</g>
<!-- Node26&#45;&gt;Node11 -->
<g id="edge48" class="edge">
<title>Node26&#45;&gt;Node11</title>
<path fill="none" stroke="midnightblue" d="M404.64,-406.42C394.51,-365.33 354.64,-203.62 340.78,-147.39"/>
<polygon fill="midnightblue" stroke="midnightblue" points="344.16,-146.49 338.37,-137.62 337.37,-148.17 344.16,-146.49"/>
</g>
<!-- Node26&#45;&gt;Node19 -->
<g id="edge50" class="edge">
<title>Node26&#45;&gt;Node19</title>
<path fill="none" stroke="midnightblue" d="M417.97,-406.25C427.19,-398.05 440.55,-386.17 451.43,-376.51"/>
<polygon fill="midnightblue" stroke="midnightblue" points="454,-378.9 459.15,-369.64 449.35,-373.67 454,-378.9"/>
</g>
<!-- Node26&#45;&gt;Node23 -->
<g id="edge49" class="edge">
<title>Node26&#45;&gt;Node23</title>
<path fill="none" stroke="midnightblue" d="M393.41,-406.25C381.67,-397.81 364.48,-385.47 350.81,-375.66"/>
<polygon fill="midnightblue" stroke="midnightblue" points="352.6,-372.63 342.43,-369.64 348.51,-378.32 352.6,-372.63"/>
</g>
<!-- Node26&#45;&gt;Node25 -->
<g id="edge51" class="edge">
<title>Node26&#45;&gt;Node25</title>
<path fill="none" stroke="midnightblue" d="M382.59,-406.37C359.39,-397.22 324.3,-383.38 298.49,-373.21"/>
<polygon fill="midnightblue" stroke="midnightblue" points="299.68,-369.91 289.09,-369.5 297.11,-376.43 299.68,-369.91"/>
</g>
</g>
</svg>
