<?xml version="1.0" encoding="UTF-8" standalone="no"?>
<!DOCTYPE svg PUBLIC "-//W3C//DTD SVG 1.1//EN"
 "http://www.w3.org/Graphics/SVG/1.1/DTD/svg11.dtd">
<!-- Generated by graphviz version 2.44.0 ()
 -->
<!-- Title: box_copy.c Pages: 1 -->
<svg width="517pt" height="668pt"
 viewBox="0.00 0.00 516.50 668.00" xmlns="http://www.w3.org/2000/svg" xmlns:xlink="http://www.w3.org/1999/xlink">
<g id="graph0" class="graph" transform="scale(1 1) rotate(0) translate(4 664)">
<title>box_copy.c</title>
<polygon fill="white" stroke="transparent" points="-4,4 -4,-664 512.5,-664 512.5,4 -4,4"/>
<!-- Node1 -->
<g id="node1" class="node">
<title>Node1</title>
<g id="a_node1"><a xlink:title=" ">
<polygon fill="#bfbfbf" stroke="black" points="90.5,-638.5 90.5,-659.5 167.5,-659.5 167.5,-638.5 90.5,-638.5"/>
<text text-anchor="middle" x="129" y="-645.9" font-family="DejaVuSans" font-size="12.00">box_copy.c</text>
</a>
</g>
</g>
<!-- Node2 -->
<g id="node2" class="node">
<title>Node2</title>
<g id="a_node2"><a xlink:href="tex__types_8h.html" target="_top" xlink:title=" ">
<polygon fill="white" stroke="black" points="161.5,-58.5 161.5,-79.5 238.5,-79.5 238.5,-58.5 161.5,-58.5"/>
<text text-anchor="middle" x="200" y="-65.9" font-family="DejaVuSans" font-size="12.00">tex_types.h</text>
</a>
</g>
</g>
<!-- Node1&#45;&gt;Node2 -->
<g id="edge1" class="edge">
<title>Node1&#45;&gt;Node2</title>
<path fill="none" stroke="midnightblue" d="M102.58,-638.44C64.84,-622.88 0,-588.25 0,-534 0,-534 0,-534 0,-184 0,-114.48 92.33,-86.8 151.52,-76.2"/>
<polygon fill="midnightblue" stroke="midnightblue" points="152.16,-79.64 161.44,-74.53 150.99,-72.74 152.16,-79.64"/>
</g>
<!-- Node5 -->
<g id="node5" class="node">
<title>Node5</title>
<g id="a_node5"><a xlink:href="tex__constant_8h.html" target="_top" xlink:title=" ">
<polygon fill="white" stroke="black" points="131,-232.5 131,-253.5 225,-253.5 225,-232.5 131,-232.5"/>
<text text-anchor="middle" x="178" y="-239.9" font-family="DejaVuSans" font-size="12.00">tex_constant.h</text>
</a>
</g>
</g>
<!-- Node1&#45;&gt;Node5 -->
<g id="edge4" class="edge">
<title>Node1&#45;&gt;Node5</title>
<path fill="none" stroke="midnightblue" d="M140.09,-638.23C159.59,-619.9 198,-578.19 198,-534 198,-534 198,-534 198,-358 198,-324.33 189.43,-285.89 183.51,-263.35"/>
<polygon fill="midnightblue" stroke="midnightblue" points="186.87,-262.39 180.87,-253.66 180.12,-264.23 186.87,-262.39"/>
</g>
<!-- Node6 -->
<g id="node6" class="node">
<title>Node6</title>
<g id="a_node6"><a xlink:href="box_8h.html" target="_top" xlink:title=" ">
<polygon fill="white" stroke="black" points="155,-174.5 155,-195.5 201,-195.5 201,-174.5 155,-174.5"/>
<text text-anchor="middle" x="178" y="-181.9" font-family="DejaVuSans" font-size="12.00">box.h</text>
</a>
</g>
</g>
<!-- Node1&#45;&gt;Node6 -->
<g id="edge30" class="edge">
<title>Node1&#45;&gt;Node6</title>
<path fill="none" stroke="midnightblue" d="M105.32,-638.34C89.44,-630.71 69.27,-618.57 57,-602 38.33,-576.78 38,-565.38 38,-534 38,-534 38,-534 38,-416 38,-326.1 67.19,-303.25 122,-232 130.96,-220.35 143.4,-209.76 154.28,-201.68"/>
<polygon fill="midnightblue" stroke="midnightblue" points="156.46,-204.43 162.57,-195.77 152.4,-198.73 156.46,-204.43"/>
</g>
<!-- Node11 -->
<g id="node11" class="node">
<title>Node11</title>
<g id="a_node11"><a xlink:href="mem_8h.html" target="_top" xlink:title=" ">
<polygon fill="white" stroke="black" points="94.5,-522.5 94.5,-543.5 147.5,-543.5 147.5,-522.5 94.5,-522.5"/>
<text text-anchor="middle" x="121" y="-529.9" font-family="DejaVuSans" font-size="12.00">mem.h</text>
</a>
</g>
</g>
<!-- Node1&#45;&gt;Node11 -->
<g id="edge13" class="edge">
<title>Node1&#45;&gt;Node11</title>
<path fill="none" stroke="midnightblue" d="M133.04,-638.28C138.01,-625.05 145.3,-600.66 141,-580 139.06,-570.67 135.12,-560.9 131.25,-552.78"/>
<polygon fill="midnightblue" stroke="midnightblue" points="134.35,-551.16 126.69,-543.84 128.11,-554.34 134.35,-551.16"/>
</g>
<!-- Node18 -->
<g id="node18" class="node">
<title>Node18</title>
<g id="a_node18"><a xlink:href="texmac_8h.html" target="_top" xlink:title=" ">
<polygon fill="white" stroke="black" points="66.5,-580.5 66.5,-601.5 131.5,-601.5 131.5,-580.5 66.5,-580.5"/>
<text text-anchor="middle" x="99" y="-587.9" font-family="DejaVuSans" font-size="12.00">texmac.h</text>
</a>
</g>
</g>
<!-- Node1&#45;&gt;Node18 -->
<g id="edge27" class="edge">
<title>Node1&#45;&gt;Node18</title>
<path fill="none" stroke="midnightblue" d="M123.77,-638.25C119.69,-630.62 113.89,-619.79 108.93,-610.53"/>
<polygon fill="midnightblue" stroke="midnightblue" points="111.97,-608.8 104.17,-601.64 105.8,-612.11 111.97,-608.8"/>
</g>
<!-- Node19 -->
<g id="node19" class="node">
<title>Node19</title>
<g id="a_node19"><a xlink:href="error_8h.html" target="_top" xlink:title=" ">
<polygon fill="white" stroke="black" points="226.5,-580.5 226.5,-601.5 277.5,-601.5 277.5,-580.5 226.5,-580.5"/>
<text text-anchor="middle" x="252" y="-587.9" font-family="DejaVuSans" font-size="12.00">error.h</text>
</a>
</g>
</g>
<!-- Node1&#45;&gt;Node19 -->
<g id="edge29" class="edge">
<title>Node1&#45;&gt;Node19</title>
<path fill="none" stroke="midnightblue" d="M150.14,-638.37C169.89,-629.38 199.57,-615.87 221.81,-605.75"/>
<polygon fill="midnightblue" stroke="midnightblue" points="223.48,-608.83 231.13,-601.5 220.58,-602.46 223.48,-608.83"/>
</g>
<!-- Node3 -->
<g id="node3" class="node">
<title>Node3</title>
<g id="a_node3"><a xlink:title=" ">
<polygon fill="white" stroke="#bfbfbf" points="162.5,-0.5 162.5,-21.5 227.5,-21.5 227.5,-0.5 162.5,-0.5"/>
<text text-anchor="middle" x="195" y="-7.9" font-family="DejaVuSans" font-size="12.00">stdbool.h</text>
</a>
</g>
</g>
<!-- Node2&#45;&gt;Node3 -->
<g id="edge2" class="edge">
<title>Node2&#45;&gt;Node3</title>
<path fill="none" stroke="midnightblue" d="M199.13,-58.25C198.48,-50.94 197.56,-40.69 196.76,-31.7"/>
<polygon fill="midnightblue" stroke="midnightblue" points="200.24,-31.29 195.86,-21.64 193.26,-31.91 200.24,-31.29"/>
</g>
<!-- Node4 -->
<g id="node4" class="node">
<title>Node4</title>
<g id="a_node4"><a xlink:title=" ">
<polygon fill="white" stroke="#bfbfbf" points="245.5,-0.5 245.5,-21.5 300.5,-21.5 300.5,-0.5 245.5,-0.5"/>
<text text-anchor="middle" x="273" y="-7.9" font-family="DejaVuSans" font-size="12.00">stdint.h</text>
</a>
</g>
</g>
<!-- Node2&#45;&gt;Node4 -->
<g id="edge3" class="edge">
<title>Node2&#45;&gt;Node4</title>
<path fill="none" stroke="midnightblue" d="M212.72,-58.25C223.6,-49.89 239.49,-37.71 252.22,-27.94"/>
<polygon fill="midnightblue" stroke="midnightblue" points="254.63,-30.51 260.43,-21.64 250.37,-24.95 254.63,-30.51"/>
</g>
<!-- Node5&#45;&gt;Node6 -->
<g id="edge5" class="edge">
<title>Node5&#45;&gt;Node6</title>
<path fill="none" stroke="midnightblue" d="M178,-232.25C178,-224.94 178,-214.69 178,-205.7"/>
<polygon fill="midnightblue" stroke="midnightblue" points="181.5,-205.64 178,-195.64 174.5,-205.64 181.5,-205.64"/>
</g>
<!-- Node7 -->
<g id="node7" class="node">
<title>Node7</title>
<g id="a_node7"><a xlink:href="str_8h.html" target="_top" xlink:title=" ">
<polygon fill="white" stroke="black" points="281.5,-116.5 281.5,-137.5 320.5,-137.5 320.5,-116.5 281.5,-116.5"/>
<text text-anchor="middle" x="301" y="-123.9" font-family="DejaVuSans" font-size="12.00">str.h</text>
</a>
</g>
</g>
<!-- Node6&#45;&gt;Node7 -->
<g id="edge6" class="edge">
<title>Node6&#45;&gt;Node7</title>
<path fill="none" stroke="midnightblue" d="M199.14,-174.37C219.25,-165.22 249.65,-151.38 272.01,-141.2"/>
<polygon fill="midnightblue" stroke="midnightblue" points="273.7,-144.28 281.35,-136.95 270.8,-137.91 273.7,-144.28"/>
</g>
<!-- Node7&#45;&gt;Node2 -->
<g id="edge12" class="edge">
<title>Node7&#45;&gt;Node2</title>
<path fill="none" stroke="midnightblue" d="M283.41,-116.25C267.62,-107.49 244.24,-94.53 226.24,-84.55"/>
<polygon fill="midnightblue" stroke="midnightblue" points="227.83,-81.43 217.39,-79.64 224.44,-87.55 227.83,-81.43"/>
</g>
<!-- Node7&#45;&gt;Node4 -->
<g id="edge8" class="edge">
<title>Node7&#45;&gt;Node4</title>
<path fill="none" stroke="midnightblue" d="M298.61,-116.28C294.03,-97.6 283.9,-56.37 277.84,-31.72"/>
<polygon fill="midnightblue" stroke="midnightblue" points="281.17,-30.57 275.38,-21.69 274.37,-32.24 281.17,-30.57"/>
</g>
<!-- Node8 -->
<g id="node8" class="node">
<title>Node8</title>
<g id="a_node8"><a xlink:title=" ">
<polygon fill="white" stroke="#bfbfbf" points="342,-0.5 342,-21.5 394,-21.5 394,-0.5 342,-0.5"/>
<text text-anchor="middle" x="368" y="-7.9" font-family="DejaVuSans" font-size="12.00">stdio.h</text>
</a>
</g>
</g>
<!-- Node7&#45;&gt;Node8 -->
<g id="edge7" class="edge">
<title>Node7&#45;&gt;Node8</title>
<path fill="none" stroke="midnightblue" d="M305.37,-116.06C311.43,-102.57 323,-77.89 335,-58 340.82,-48.36 348.04,-38.14 354.24,-29.78"/>
<polygon fill="midnightblue" stroke="midnightblue" points="357.21,-31.65 360.45,-21.56 351.63,-27.43 357.21,-31.65"/>
</g>
<!-- Node9 -->
<g id="node9" class="node">
<title>Node9</title>
<g id="a_node9"><a xlink:href="global__const_8h.html" target="_top" xlink:title=" ">
<polygon fill="white" stroke="black" points="415.5,-58.5 415.5,-79.5 508.5,-79.5 508.5,-58.5 415.5,-58.5"/>
<text text-anchor="middle" x="462" y="-65.9" font-family="DejaVuSans" font-size="12.00">global_const.h</text>
</a>
</g>
</g>
<!-- Node7&#45;&gt;Node9 -->
<g id="edge9" class="edge">
<title>Node7&#45;&gt;Node9</title>
<path fill="none" stroke="midnightblue" d="M320.74,-119.13C346.61,-110.13 392.51,-94.17 424.95,-82.89"/>
<polygon fill="midnightblue" stroke="midnightblue" points="426.26,-86.14 434.55,-79.55 423.96,-79.53 426.26,-86.14"/>
</g>
<!-- Node9&#45;&gt;Node8 -->
<g id="edge11" class="edge">
<title>Node9&#45;&gt;Node8</title>
<path fill="none" stroke="midnightblue" d="M445.63,-58.25C431.07,-49.57 409.57,-36.76 392.88,-26.82"/>
<polygon fill="midnightblue" stroke="midnightblue" points="394.57,-23.75 384.19,-21.64 390.99,-29.77 394.57,-23.75"/>
</g>
<!-- Node10 -->
<g id="node10" class="node">
<title>Node10</title>
<g id="a_node10"><a xlink:title=" ">
<polygon fill="white" stroke="#bfbfbf" points="432.5,-0.5 432.5,-21.5 491.5,-21.5 491.5,-0.5 432.5,-0.5"/>
<text text-anchor="middle" x="462" y="-7.9" font-family="DejaVuSans" font-size="12.00">assert.h</text>
</a>
</g>
</g>
<!-- Node9&#45;&gt;Node10 -->
<g id="edge10" class="edge">
<title>Node9&#45;&gt;Node10</title>
<path fill="none" stroke="midnightblue" d="M462,-58.25C462,-50.94 462,-40.69 462,-31.7"/>
<polygon fill="midnightblue" stroke="midnightblue" points="465.5,-31.64 462,-21.64 458.5,-31.64 465.5,-31.64"/>
</g>
<!-- Node11&#45;&gt;Node2 -->
<g id="edge14" class="edge">
<title>Node11&#45;&gt;Node2</title>
<path fill="none" stroke="midnightblue" d="M117.66,-522.19C105.61,-485.81 65,-355.04 65,-244 65,-244 65,-244 65,-184 65,-132.99 121.96,-100.15 161.88,-83.39"/>
<polygon fill="midnightblue" stroke="midnightblue" points="163.4,-86.56 171.37,-79.58 160.79,-80.06 163.4,-86.56"/>
</g>
<!-- Node12 -->
<g id="node12" class="node">
<title>Node12</title>
<g id="a_node12"><a xlink:href="global_8h.html" target="_top" xlink:title=" ">
<polygon fill="white" stroke="black" points="305,-464.5 305,-485.5 363,-485.5 363,-464.5 305,-464.5"/>
<text text-anchor="middle" x="334" y="-471.9" font-family="DejaVuSans" font-size="12.00">global.h</text>
</a>
</g>
</g>
<!-- Node11&#45;&gt;Node12 -->
<g id="edge15" class="edge">
<title>Node11&#45;&gt;Node12</title>
<path fill="none" stroke="midnightblue" d="M147.55,-525.02C184.61,-515.28 252.12,-497.53 294.93,-486.27"/>
<polygon fill="midnightblue" stroke="midnightblue" points="295.94,-489.62 304.73,-483.7 294.16,-482.85 295.94,-489.62"/>
</g>
<!-- Node12&#45;&gt;Node7 -->
<g id="edge17" class="edge">
<title>Node12&#45;&gt;Node7</title>
<path fill="none" stroke="midnightblue" d="M334,-464.24C334,-444.54 334,-398.59 334,-360 334,-360 334,-360 334,-300 334,-243.7 316.74,-178.86 307.18,-147.29"/>
<polygon fill="midnightblue" stroke="midnightblue" points="310.47,-146.09 304.16,-137.57 303.79,-148.16 310.47,-146.09"/>
</g>
<!-- Node13 -->
<g id="node13" class="node">
<title>Node13</title>
<g id="a_node13"><a xlink:title=" ">
<polygon fill="white" stroke="#bfbfbf" points="362,-406.5 362,-427.5 424,-427.5 424,-406.5 362,-406.5"/>
<text text-anchor="middle" x="393" y="-413.9" font-family="DejaVuSans" font-size="12.00">setjmp.h</text>
</a>
</g>
</g>
<!-- Node12&#45;&gt;Node13 -->
<g id="edge16" class="edge">
<title>Node12&#45;&gt;Node13</title>
<path fill="none" stroke="midnightblue" d="M344.28,-464.25C352.82,-456.14 365.18,-444.41 375.31,-434.79"/>
<polygon fill="midnightblue" stroke="midnightblue" points="378,-437.07 382.84,-427.64 373.18,-431.99 378,-437.07"/>
</g>
<!-- Node14 -->
<g id="node14" class="node">
<title>Node14</title>
<g id="a_node14"><a xlink:href="scan_8h.html" target="_top" xlink:title=" ">
<polygon fill="white" stroke="black" points="254,-406.5 254,-427.5 306,-427.5 306,-406.5 254,-406.5"/>
<text text-anchor="middle" x="280" y="-413.9" font-family="DejaVuSans" font-size="12.00">scan.h</text>
</a>
</g>
</g>
<!-- Node12&#45;&gt;Node14 -->
<g id="edge18" class="edge">
<title>Node12&#45;&gt;Node14</title>
<path fill="none" stroke="midnightblue" d="M324.59,-464.25C316.85,-456.22 305.69,-444.64 296.47,-435.08"/>
<polygon fill="midnightblue" stroke="midnightblue" points="298.76,-432.41 289.3,-427.64 293.72,-437.27 298.76,-432.41"/>
</g>
<!-- Node17 -->
<g id="node17" class="node">
<title>Node17</title>
<g id="a_node17"><a xlink:href="fonts_8h.html" target="_top" xlink:title=" ">
<polygon fill="white" stroke="black" points="426,-116.5 426,-137.5 478,-137.5 478,-116.5 426,-116.5"/>
<text text-anchor="middle" x="452" y="-123.9" font-family="DejaVuSans" font-size="12.00">fonts.h</text>
</a>
</g>
</g>
<!-- Node12&#45;&gt;Node17 -->
<g id="edge24" class="edge">
<title>Node12&#45;&gt;Node17</title>
<path fill="none" stroke="midnightblue" d="M363.21,-467.5C385.41,-461.09 415.09,-449.09 433,-428 453.31,-404.08 452,-391.38 452,-360 452,-360 452,-360 452,-242 452,-208.98 452,-170.59 452,-147.85"/>
<polygon fill="midnightblue" stroke="midnightblue" points="455.5,-147.76 452,-137.76 448.5,-147.76 455.5,-147.76"/>
</g>
<!-- Node15 -->
<g id="node15" class="node">
<title>Node15</title>
<g id="a_node15"><a xlink:href="lexer_8h.html" target="_top" xlink:title=" ">
<polygon fill="white" stroke="black" points="254,-348.5 254,-369.5 306,-369.5 306,-348.5 254,-348.5"/>
<text text-anchor="middle" x="280" y="-355.9" font-family="DejaVuSans" font-size="12.00">lexer.h</text>
</a>
</g>
</g>
<!-- Node14&#45;&gt;Node15 -->
<g id="edge19" class="edge">
<title>Node14&#45;&gt;Node15</title>
<path fill="none" stroke="midnightblue" d="M280,-406.25C280,-398.94 280,-388.69 280,-379.7"/>
<polygon fill="midnightblue" stroke="midnightblue" points="283.5,-379.64 280,-369.64 276.5,-379.64 283.5,-379.64"/>
</g>
<!-- Node15&#45;&gt;Node8 -->
<g id="edge20" class="edge">
<title>Node15&#45;&gt;Node8</title>
<path fill="none" stroke="midnightblue" d="M282.45,-348.38C294.39,-301.44 346.64,-95.98 363.05,-31.46"/>
<polygon fill="midnightblue" stroke="midnightblue" points="366.45,-32.29 365.52,-21.73 359.67,-30.56 366.45,-32.29"/>
</g>
<!-- Node16 -->
<g id="node16" class="node">
<title>Node16</title>
<g id="a_node16"><a xlink:href="tex_8h.html" target="_top" xlink:title=" ">
<polygon fill="white" stroke="black" points="226,-290.5 226,-311.5 268,-311.5 268,-290.5 226,-290.5"/>
<text text-anchor="middle" x="247" y="-297.9" font-family="DejaVuSans" font-size="12.00">tex.h</text>
</a>
</g>
</g>
<!-- Node15&#45;&gt;Node16 -->
<g id="edge21" class="edge">
<title>Node15&#45;&gt;Node16</title>
<path fill="none" stroke="midnightblue" d="M274.25,-348.25C269.76,-340.62 263.38,-329.79 257.92,-320.53"/>
<polygon fill="midnightblue" stroke="midnightblue" points="260.77,-318.48 252.68,-311.64 254.74,-322.04 260.77,-318.48"/>
</g>
<!-- Node16&#45;&gt;Node2 -->
<g id="edge22" class="edge">
<title>Node16&#45;&gt;Node2</title>
<path fill="none" stroke="midnightblue" d="M245.2,-290.31C242.74,-277.1 238.16,-252.74 234,-232 223.68,-180.56 210.79,-120.09 204.24,-89.64"/>
<polygon fill="midnightblue" stroke="midnightblue" points="207.66,-88.89 202.13,-79.85 200.82,-90.36 207.66,-88.89"/>
</g>
<!-- Node16&#45;&gt;Node5 -->
<g id="edge23" class="edge">
<title>Node16&#45;&gt;Node5</title>
<path fill="none" stroke="midnightblue" d="M234.98,-290.25C224.79,-281.97 209.96,-269.94 197.99,-260.22"/>
<polygon fill="midnightblue" stroke="midnightblue" points="199.85,-257.23 189.88,-253.64 195.44,-262.66 199.85,-257.23"/>
</g>
<!-- Node17&#45;&gt;Node8 -->
<g id="edge25" class="edge">
<title>Node17&#45;&gt;Node8</title>
<path fill="none" stroke="midnightblue" d="M441.2,-116.45C431.56,-107.58 417.38,-93.72 407,-80 395.24,-64.45 384.43,-45.02 377.19,-30.91"/>
<polygon fill="midnightblue" stroke="midnightblue" points="380.19,-29.09 372.59,-21.71 373.93,-32.22 380.19,-29.09"/>
</g>
<!-- Node17&#45;&gt;Node9 -->
<g id="edge26" class="edge">
<title>Node17&#45;&gt;Node9</title>
<path fill="none" stroke="midnightblue" d="M453.74,-116.25C455.05,-108.94 456.88,-98.69 458.48,-89.7"/>
<polygon fill="midnightblue" stroke="midnightblue" points="461.97,-90.1 460.28,-79.64 455.07,-88.87 461.97,-90.1"/>
</g>
<!-- Node18&#45;&gt;Node11 -->
<g id="edge28" class="edge">
<title>Node18&#45;&gt;Node11</title>
<path fill="none" stroke="midnightblue" d="M102.83,-580.25C105.77,-572.78 109.9,-562.24 113.49,-553.11"/>
<polygon fill="midnightblue" stroke="midnightblue" points="116.81,-554.23 117.21,-543.64 110.3,-551.67 116.81,-554.23"/>
</g>
</g>
</svg>
