<?xml version="1.0" encoding="UTF-8" standalone="no"?>
<!DOCTYPE svg PUBLIC "-//W3C//DTD SVG 1.1//EN"
 "http://www.w3.org/Graphics/SVG/1.1/DTD/svg11.dtd">
<!-- Generated by graphviz version 2.44.0 ()
 -->
<!-- Title: box.c Pages: 1 -->
<svg width="532pt" height="378pt"
 viewBox="0.00 0.00 532.00 378.00" xmlns="http://www.w3.org/2000/svg" xmlns:xlink="http://www.w3.org/1999/xlink">
<g id="graph0" class="graph" transform="scale(1 1) rotate(0) translate(4 374)">
<title>box.c</title>
<polygon fill="white" stroke="transparent" points="-4,4 -4,-374 528,-374 528,4 -4,4"/>
<!-- Node1 -->
<g id="node1" class="node">
<title>Node1</title>
<g id="a_node1"><a xlink:title=" ">
<polygon fill="#bfbfbf" stroke="black" points="50.5,-348.5 50.5,-369.5 95.5,-369.5 95.5,-348.5 50.5,-348.5"/>
<text text-anchor="middle" x="73" y="-355.9" font-family="DejaVuSans" font-size="12.00">box.c</text>
</a>
</g>
</g>
<!-- Node2 -->
<g id="node2" class="node">
<title>Node2</title>
<g id="a_node2"><a xlink:href="tex__constant_8h.html" target="_top" xlink:title=" ">
<polygon fill="white" stroke="black" points="0,-174.5 0,-195.5 94,-195.5 94,-174.5 0,-174.5"/>
<text text-anchor="middle" x="47" y="-181.9" font-family="DejaVuSans" font-size="12.00">tex_constant.h</text>
</a>
</g>
</g>
<!-- Node1&#45;&gt;Node2 -->
<g id="edge1" class="edge">
<title>Node1&#45;&gt;Node2</title>
<path fill="none" stroke="midnightblue" d="M68.64,-348.22C60.83,-330.09 44.71,-289.83 39,-254 37.46,-244.34 38.16,-241.74 39,-232 39.75,-223.34 41.27,-213.86 42.79,-205.77"/>
<polygon fill="midnightblue" stroke="midnightblue" points="46.26,-206.3 44.79,-195.81 39.39,-204.92 46.26,-206.3"/>
</g>
<!-- Node4 -->
<g id="node4" class="node">
<title>Node4</title>
<g id="a_node4"><a xlink:href="eqtb_8h.html" target="_top" xlink:title=" ">
<polygon fill="white" stroke="black" points="48,-232.5 48,-253.5 98,-253.5 98,-232.5 48,-232.5"/>
<text text-anchor="middle" x="73" y="-239.9" font-family="DejaVuSans" font-size="12.00">eqtb.h</text>
</a>
</g>
</g>
<!-- Node1&#45;&gt;Node4 -->
<g id="edge3" class="edge">
<title>Node1&#45;&gt;Node4</title>
<path fill="none" stroke="midnightblue" d="M73,-348.28C73,-329.6 73,-288.37 73,-263.72"/>
<polygon fill="midnightblue" stroke="midnightblue" points="76.5,-263.69 73,-253.69 69.5,-263.7 76.5,-263.69"/>
</g>
<!-- Node12 -->
<g id="node12" class="node">
<title>Node12</title>
<g id="a_node12"><a xlink:href="box_8h.html" target="_top" xlink:title=" ">
<polygon fill="white" stroke="black" points="175,-290.5 175,-311.5 221,-311.5 221,-290.5 175,-290.5"/>
<text text-anchor="middle" x="198" y="-297.9" font-family="DejaVuSans" font-size="12.00">box.h</text>
</a>
</g>
</g>
<!-- Node1&#45;&gt;Node12 -->
<g id="edge13" class="edge">
<title>Node1&#45;&gt;Node12</title>
<path fill="none" stroke="midnightblue" d="M94.49,-348.37C114.64,-339.34 144.99,-325.75 167.62,-315.61"/>
<polygon fill="midnightblue" stroke="midnightblue" points="169.1,-318.78 176.79,-311.5 166.24,-312.4 169.1,-318.78"/>
</g>
<!-- Node3 -->
<g id="node3" class="node">
<title>Node3</title>
<g id="a_node3"><a xlink:href="global__const_8h.html" target="_top" xlink:title=" ">
<polygon fill="white" stroke="black" points="27.5,-58.5 27.5,-79.5 120.5,-79.5 120.5,-58.5 27.5,-58.5"/>
<text text-anchor="middle" x="74" y="-65.9" font-family="DejaVuSans" font-size="12.00">global_const.h</text>
</a>
</g>
</g>
<!-- Node2&#45;&gt;Node3 -->
<g id="edge2" class="edge">
<title>Node2&#45;&gt;Node3</title>
<path fill="none" stroke="midnightblue" d="M49.3,-174.28C53.73,-155.6 63.49,-114.37 69.33,-89.72"/>
<polygon fill="midnightblue" stroke="midnightblue" points="72.8,-90.23 71.7,-79.69 65.99,-88.62 72.8,-90.23"/>
</g>
<!-- Node4&#45;&gt;Node2 -->
<g id="edge12" class="edge">
<title>Node4&#45;&gt;Node2</title>
<path fill="none" stroke="midnightblue" d="M68.47,-232.25C64.97,-224.7 60.01,-214.02 55.74,-204.82"/>
<polygon fill="midnightblue" stroke="midnightblue" points="58.86,-203.24 51.48,-195.64 52.51,-206.19 58.86,-203.24"/>
</g>
<!-- Node5 -->
<g id="node5" class="node">
<title>Node5</title>
<g id="a_node5"><a xlink:href="global_8h.html" target="_top" xlink:title=" ">
<polygon fill="white" stroke="black" points="170,-116.5 170,-137.5 228,-137.5 228,-116.5 170,-116.5"/>
<text text-anchor="middle" x="199" y="-123.9" font-family="DejaVuSans" font-size="12.00">global.h</text>
</a>
</g>
</g>
<!-- Node4&#45;&gt;Node5 -->
<g id="edge4" class="edge">
<title>Node4&#45;&gt;Node5</title>
<path fill="none" stroke="midnightblue" d="M83.74,-232.28C105.32,-212.76 154.12,-168.61 180.78,-144.49"/>
<polygon fill="midnightblue" stroke="midnightblue" points="183.22,-147 188.28,-137.69 178.52,-141.81 183.22,-147"/>
</g>
<!-- Node5&#45;&gt;Node3 -->
<g id="edge7" class="edge">
<title>Node5&#45;&gt;Node3</title>
<path fill="none" stroke="midnightblue" d="M177.51,-116.37C157.36,-107.34 127.01,-93.75 104.38,-83.61"/>
<polygon fill="midnightblue" stroke="midnightblue" points="105.76,-80.4 95.21,-79.5 102.9,-86.78 105.76,-80.4"/>
</g>
<!-- Node6 -->
<g id="node6" class="node">
<title>Node6</title>
<g id="a_node6"><a xlink:href="global__macros_8h.html" target="_top" xlink:title=" ">
<polygon fill="white" stroke="black" points="147,-58.5 147,-79.5 251,-79.5 251,-58.5 147,-58.5"/>
<text text-anchor="middle" x="199" y="-65.9" font-family="DejaVuSans" font-size="12.00">global_macros.h</text>
</a>
</g>
</g>
<!-- Node5&#45;&gt;Node6 -->
<g id="edge5" class="edge">
<title>Node5&#45;&gt;Node6</title>
<path fill="none" stroke="midnightblue" d="M199,-116.25C199,-108.94 199,-98.69 199,-89.7"/>
<polygon fill="midnightblue" stroke="midnightblue" points="202.5,-89.64 199,-79.64 195.5,-89.64 202.5,-89.64"/>
</g>
<!-- Node8 -->
<g id="node8" class="node">
<title>Node8</title>
<g id="a_node8"><a xlink:href="tex__types_8h.html" target="_top" xlink:title=" ">
<polygon fill="white" stroke="black" points="297.5,-58.5 297.5,-79.5 374.5,-79.5 374.5,-58.5 297.5,-58.5"/>
<text text-anchor="middle" x="336" y="-65.9" font-family="DejaVuSans" font-size="12.00">tex_types.h</text>
</a>
</g>
</g>
<!-- Node5&#45;&gt;Node8 -->
<g id="edge8" class="edge">
<title>Node5&#45;&gt;Node8</title>
<path fill="none" stroke="midnightblue" d="M222.55,-116.37C244.84,-107.26 278.49,-93.51 303.36,-83.34"/>
<polygon fill="midnightblue" stroke="midnightblue" points="304.82,-86.52 312.76,-79.5 302.18,-80.05 304.82,-86.52"/>
</g>
<!-- Node7 -->
<g id="node7" class="node">
<title>Node7</title>
<g id="a_node7"><a xlink:title=" ">
<polygon fill="white" stroke="#bfbfbf" points="169.5,-0.5 169.5,-21.5 228.5,-21.5 228.5,-0.5 169.5,-0.5"/>
<text text-anchor="middle" x="199" y="-7.9" font-family="DejaVuSans" font-size="12.00">assert.h</text>
</a>
</g>
</g>
<!-- Node6&#45;&gt;Node7 -->
<g id="edge6" class="edge">
<title>Node6&#45;&gt;Node7</title>
<path fill="none" stroke="midnightblue" d="M199,-58.25C199,-50.94 199,-40.69 199,-31.7"/>
<polygon fill="midnightblue" stroke="midnightblue" points="202.5,-31.64 199,-21.64 195.5,-31.64 202.5,-31.64"/>
</g>
<!-- Node9 -->
<g id="node9" class="node">
<title>Node9</title>
<g id="a_node9"><a xlink:title=" ">
<polygon fill="white" stroke="#bfbfbf" points="251.5,-0.5 251.5,-21.5 316.5,-21.5 316.5,-0.5 251.5,-0.5"/>
<text text-anchor="middle" x="284" y="-7.9" font-family="DejaVuSans" font-size="12.00">stdbool.h</text>
</a>
</g>
</g>
<!-- Node8&#45;&gt;Node9 -->
<g id="edge9" class="edge">
<title>Node8&#45;&gt;Node9</title>
<path fill="none" stroke="midnightblue" d="M326.94,-58.25C319.49,-50.22 308.74,-38.64 299.86,-29.08"/>
<polygon fill="midnightblue" stroke="midnightblue" points="302.32,-26.59 292.95,-21.64 297.19,-31.35 302.32,-26.59"/>
</g>
<!-- Node10 -->
<g id="node10" class="node">
<title>Node10</title>
<g id="a_node10"><a xlink:title=" ">
<polygon fill="white" stroke="#bfbfbf" points="414.5,-0.5 414.5,-21.5 469.5,-21.5 469.5,-0.5 414.5,-0.5"/>
<text text-anchor="middle" x="442" y="-7.9" font-family="DejaVuSans" font-size="12.00">stdint.h</text>
</a>
</g>
</g>
<!-- Node8&#45;&gt;Node10 -->
<g id="edge10" class="edge">
<title>Node8&#45;&gt;Node10</title>
<path fill="none" stroke="midnightblue" d="M354.46,-58.25C371.11,-49.45 395.8,-36.41 414.72,-26.41"/>
<polygon fill="midnightblue" stroke="midnightblue" points="416.54,-29.41 423.75,-21.64 413.27,-23.22 416.54,-29.41"/>
</g>
<!-- Node11 -->
<g id="node11" class="node">
<title>Node11</title>
<g id="a_node11"><a xlink:title=" ">
<polygon fill="white" stroke="#bfbfbf" points="334.5,-0.5 334.5,-21.5 393.5,-21.5 393.5,-0.5 334.5,-0.5"/>
<text text-anchor="middle" x="364" y="-7.9" font-family="DejaVuSans" font-size="12.00">stddef.h</text>
</a>
</g>
</g>
<!-- Node8&#45;&gt;Node11 -->
<g id="edge11" class="edge">
<title>Node8&#45;&gt;Node11</title>
<path fill="none" stroke="midnightblue" d="M340.88,-58.25C344.65,-50.7 349.99,-40.02 354.59,-30.82"/>
<polygon fill="midnightblue" stroke="midnightblue" points="357.84,-32.15 359.18,-21.64 351.58,-29.02 357.84,-32.15"/>
</g>
<!-- Node12&#45;&gt;Node5 -->
<g id="edge14" class="edge">
<title>Node12&#45;&gt;Node5</title>
<path fill="none" stroke="midnightblue" d="M198.06,-290.26C198.22,-262.82 198.67,-184.51 198.89,-147.64"/>
<polygon fill="midnightblue" stroke="midnightblue" points="202.39,-147.65 198.94,-137.63 195.39,-147.61 202.39,-147.65"/>
</g>
<!-- Node13 -->
<g id="node13" class="node">
<title>Node13</title>
<g id="a_node13"><a xlink:href="mem_8h.html" target="_top" xlink:title=" ">
<polygon fill="white" stroke="black" points="116.5,-232.5 116.5,-253.5 169.5,-253.5 169.5,-232.5 116.5,-232.5"/>
<text text-anchor="middle" x="143" y="-239.9" font-family="DejaVuSans" font-size="12.00">mem.h</text>
</a>
</g>
</g>
<!-- Node12&#45;&gt;Node13 -->
<g id="edge15" class="edge">
<title>Node12&#45;&gt;Node13</title>
<path fill="none" stroke="midnightblue" d="M188.42,-290.25C180.45,-282.14 168.94,-270.41 159.49,-260.79"/>
<polygon fill="midnightblue" stroke="midnightblue" points="161.97,-258.32 152.47,-253.64 156.98,-263.23 161.97,-258.32"/>
</g>
<!-- Node14 -->
<g id="node14" class="node">
<title>Node14</title>
<g id="a_node14"><a xlink:href="texmath_8h.html" target="_top" xlink:title=" ">
<polygon fill="white" stroke="black" points="226,-174.5 226,-195.5 294,-195.5 294,-174.5 226,-174.5"/>
<text text-anchor="middle" x="260" y="-181.9" font-family="DejaVuSans" font-size="12.00">texmath.h</text>
</a>
</g>
</g>
<!-- Node12&#45;&gt;Node14 -->
<g id="edge18" class="edge">
<title>Node12&#45;&gt;Node14</title>
<path fill="none" stroke="midnightblue" d="M203.29,-290.28C213.58,-271.35 236.48,-229.25 249.82,-204.72"/>
<polygon fill="midnightblue" stroke="midnightblue" points="253.02,-206.15 254.73,-195.69 246.87,-202.81 253.02,-206.15"/>
</g>
<!-- Node15 -->
<g id="node15" class="node">
<title>Node15</title>
<g id="a_node15"><a xlink:href="str_8h.html" target="_top" xlink:title=" ">
<polygon fill="white" stroke="black" points="363.5,-232.5 363.5,-253.5 402.5,-253.5 402.5,-232.5 363.5,-232.5"/>
<text text-anchor="middle" x="383" y="-239.9" font-family="DejaVuSans" font-size="12.00">str.h</text>
</a>
</g>
</g>
<!-- Node12&#45;&gt;Node15 -->
<g id="edge20" class="edge">
<title>Node12&#45;&gt;Node15</title>
<path fill="none" stroke="midnightblue" d="M221.06,-293.02C254.61,-282.86 316.9,-264.01 353.67,-252.88"/>
<polygon fill="midnightblue" stroke="midnightblue" points="354.77,-256.2 363.33,-249.96 352.74,-249.5 354.77,-256.2"/>
</g>
<!-- Node13&#45;&gt;Node2 -->
<g id="edge17" class="edge">
<title>Node13&#45;&gt;Node2</title>
<path fill="none" stroke="midnightblue" d="M126.28,-232.25C111.41,-223.57 89.45,-210.76 72.41,-200.82"/>
<polygon fill="midnightblue" stroke="midnightblue" points="73.93,-197.66 63.53,-195.64 70.4,-203.7 73.93,-197.66"/>
</g>
<!-- Node13&#45;&gt;Node5 -->
<g id="edge16" class="edge">
<title>Node13&#45;&gt;Node5</title>
<path fill="none" stroke="midnightblue" d="M147.77,-232.28C157.07,-213.35 177.75,-171.25 189.8,-146.72"/>
<polygon fill="midnightblue" stroke="midnightblue" points="192.97,-148.21 194.24,-137.69 186.69,-145.13 192.97,-148.21"/>
</g>
<!-- Node14&#45;&gt;Node5 -->
<g id="edge19" class="edge">
<title>Node14&#45;&gt;Node5</title>
<path fill="none" stroke="midnightblue" d="M249.37,-174.25C240.45,-166.05 227.51,-154.17 216.98,-144.51"/>
<polygon fill="midnightblue" stroke="midnightblue" points="219.24,-141.83 209.5,-137.64 214.5,-146.98 219.24,-141.83"/>
</g>
<!-- Node15&#45;&gt;Node5 -->
<g id="edge23" class="edge">
<title>Node15&#45;&gt;Node5</title>
<path fill="none" stroke="midnightblue" d="M373.38,-232.19C359.05,-217.97 330.79,-191.44 303,-174 281.78,-160.68 256.04,-149.26 235.48,-141.14"/>
<polygon fill="midnightblue" stroke="midnightblue" points="236.73,-137.87 226.14,-137.53 234.2,-144.39 236.73,-137.87"/>
</g>
<!-- Node15&#45;&gt;Node10 -->
<g id="edge22" class="edge">
<title>Node15&#45;&gt;Node10</title>
<path fill="none" stroke="midnightblue" d="M395.66,-232.16C405.5,-223.73 418.53,-210.64 425,-196 449.46,-140.64 447.1,-66.94 444.17,-32"/>
<polygon fill="midnightblue" stroke="midnightblue" points="447.62,-31.34 443.19,-21.72 440.65,-32.01 447.62,-31.34"/>
</g>
<!-- Node16 -->
<g id="node16" class="node">
<title>Node16</title>
<g id="a_node16"><a xlink:title=" ">
<polygon fill="white" stroke="#bfbfbf" points="472,-174.5 472,-195.5 524,-195.5 524,-174.5 472,-174.5"/>
<text text-anchor="middle" x="498" y="-181.9" font-family="DejaVuSans" font-size="12.00">stdio.h</text>
</a>
</g>
</g>
<!-- Node15&#45;&gt;Node16 -->
<g id="edge21" class="edge">
<title>Node15&#45;&gt;Node16</title>
<path fill="none" stroke="midnightblue" d="M402.51,-232.5C420.85,-223.57 448.52,-210.1 469.36,-199.95"/>
<polygon fill="midnightblue" stroke="midnightblue" points="470.94,-203.07 478.4,-195.55 467.87,-196.78 470.94,-203.07"/>
</g>
<!-- Node17 -->
<g id="node17" class="node">
<title>Node17</title>
<g id="a_node17"><a xlink:href="charset_8h.html" target="_top" xlink:title=" ">
<polygon fill="white" stroke="black" points="350.5,-174.5 350.5,-195.5 415.5,-195.5 415.5,-174.5 350.5,-174.5"/>
<text text-anchor="middle" x="383" y="-181.9" font-family="DejaVuSans" font-size="12.00">charset.h</text>
</a>
</g>
</g>
<!-- Node15&#45;&gt;Node17 -->
<g id="edge24" class="edge">
<title>Node15&#45;&gt;Node17</title>
<path fill="none" stroke="midnightblue" d="M383,-232.25C383,-224.94 383,-214.69 383,-205.7"/>
<polygon fill="midnightblue" stroke="midnightblue" points="386.5,-205.64 383,-195.64 379.5,-205.64 386.5,-205.64"/>
</g>
<!-- Node17&#45;&gt;Node5 -->
<g id="edge25" class="edge">
<title>Node17&#45;&gt;Node5</title>
<path fill="none" stroke="midnightblue" d="M351.37,-174.37C319.99,-164.82 271.83,-150.17 238.08,-139.89"/>
<polygon fill="midnightblue" stroke="midnightblue" points="238.68,-136.42 228.1,-136.86 236.65,-143.12 238.68,-136.42"/>
</g>
</g>
</svg>
