<?xml version="1.0" encoding="UTF-8" standalone="no"?>
<!DOCTYPE svg PUBLIC "-//W3C//DTD SVG 1.1//EN"
 "http://www.w3.org/Graphics/SVG/1.1/DTD/svg11.dtd">
<!-- Generated by graphviz version 2.44.0 ()
 -->
<!-- Title: box.c Pages: 1 -->
<svg width="580pt" height="436pt"
 viewBox="0.00 0.00 580.47 436.00" xmlns="http://www.w3.org/2000/svg" xmlns:xlink="http://www.w3.org/1999/xlink">
<g id="graph0" class="graph" transform="scale(1 1) rotate(0) translate(4 432)">
<title>box.c</title>
<polygon fill="white" stroke="transparent" points="-4,4 -4,-432 576.47,-432 576.47,4 -4,4"/>
<!-- Node1 -->
<g id="node1" class="node">
<title>Node1</title>
<g id="a_node1"><a xlink:title=" ">
<polygon fill="#bfbfbf" stroke="black" points="456.97,-406.5 456.97,-427.5 501.97,-427.5 501.97,-406.5 456.97,-406.5"/>
<text text-anchor="middle" x="479.47" y="-413.9" font-family="DejaVuSans" font-size="12.00">box.c</text>
</a>
</g>
</g>
<!-- Node2 -->
<g id="node2" class="node">
<title>Node2</title>
<g id="a_node2"><a xlink:href="tex__types_8h.html" target="_top" xlink:title=" ">
<polygon fill="white" stroke="black" points="325.97,-58.5 325.97,-79.5 402.97,-79.5 402.97,-58.5 325.97,-58.5"/>
<text text-anchor="middle" x="364.47" y="-65.9" font-family="DejaVuSans" font-size="12.00">tex_types.h</text>
</a>
</g>
</g>
<!-- Node1&#45;&gt;Node2 -->
<g id="edge1" class="edge">
<title>Node1&#45;&gt;Node2</title>
<path fill="none" stroke="midnightblue" d="M495.67,-406.31C522.31,-388.99 572.47,-350.02 572.47,-302 572.47,-302 572.47,-302 572.47,-184 572.47,-111.64 474.47,-84.91 413.01,-75.25"/>
<polygon fill="midnightblue" stroke="midnightblue" points="413.51,-71.79 403.11,-73.8 412.49,-78.72 413.51,-71.79"/>
</g>
<!-- Node5 -->
<g id="node5" class="node">
<title>Node5</title>
<g id="a_node5"><a xlink:href="tex__constant_8h.html" target="_top" xlink:title=" ">
<polygon fill="white" stroke="black" points="374.47,-290.5 374.47,-311.5 468.47,-311.5 468.47,-290.5 374.47,-290.5"/>
<text text-anchor="middle" x="421.47" y="-297.9" font-family="DejaVuSans" font-size="12.00">tex_constant.h</text>
</a>
</g>
</g>
<!-- Node1&#45;&gt;Node5 -->
<g id="edge4" class="edge">
<title>Node1&#45;&gt;Node5</title>
<path fill="none" stroke="midnightblue" d="M470.99,-406.35C463.49,-397.41 452.64,-383.51 445.47,-370 437.23,-354.47 430.8,-335.51 426.69,-321.56"/>
<polygon fill="midnightblue" stroke="midnightblue" points="429.96,-320.29 423.89,-311.61 423.23,-322.18 429.96,-320.29"/>
</g>
<!-- Node6 -->
<g id="node6" class="node">
<title>Node6</title>
<g id="a_node6"><a xlink:href="box_8h.html" target="_top" xlink:title=" ">
<polygon fill="white" stroke="black" points="398.47,-232.5 398.47,-253.5 444.47,-253.5 444.47,-232.5 398.47,-232.5"/>
<text text-anchor="middle" x="421.47" y="-239.9" font-family="DejaVuSans" font-size="12.00">box.h</text>
</a>
</g>
</g>
<!-- Node1&#45;&gt;Node6 -->
<g id="edge27" class="edge">
<title>Node1&#45;&gt;Node6</title>
<path fill="none" stroke="midnightblue" d="M489.41,-406.49C497.65,-397.87 508.75,-384.34 513.47,-370 516.53,-360.71 516.15,-357.4 513.47,-348 502.58,-309.8 467.6,-277.69 444.05,-259.66"/>
<polygon fill="midnightblue" stroke="midnightblue" points="446.07,-256.8 435.95,-253.66 441.91,-262.43 446.07,-256.8"/>
</g>
<!-- Node13 -->
<g id="node13" class="node">
<title>Node13</title>
<g id="a_node13"><a xlink:href="mem_8h.html" target="_top" xlink:title=" ">
<polygon fill="white" stroke="black" points="331.97,-348.5 331.97,-369.5 384.97,-369.5 384.97,-348.5 331.97,-348.5"/>
<text text-anchor="middle" x="358.47" y="-355.9" font-family="DejaVuSans" font-size="12.00">mem.h</text>
</a>
</g>
</g>
<!-- Node1&#45;&gt;Node13 -->
<g id="edge17" class="edge">
<title>Node1&#45;&gt;Node13</title>
<path fill="none" stroke="midnightblue" d="M458.67,-406.37C439.24,-397.38 410.05,-383.87 388.17,-373.75"/>
<polygon fill="midnightblue" stroke="midnightblue" points="389.54,-370.52 379,-369.5 386.6,-376.88 389.54,-370.52"/>
</g>
<!-- Node16 -->
<g id="node16" class="node">
<title>Node16</title>
<g id="a_node16"><a xlink:href="eqtb_8h.html" target="_top" xlink:title=" ">
<polygon fill="white" stroke="black" points="454.47,-348.5 454.47,-369.5 504.47,-369.5 504.47,-348.5 454.47,-348.5"/>
<text text-anchor="middle" x="479.47" y="-355.9" font-family="DejaVuSans" font-size="12.00">eqtb.h</text>
</a>
</g>
</g>
<!-- Node1&#45;&gt;Node16 -->
<g id="edge24" class="edge">
<title>Node1&#45;&gt;Node16</title>
<path fill="none" stroke="midnightblue" d="M479.47,-406.25C479.47,-398.94 479.47,-388.69 479.47,-379.7"/>
<polygon fill="midnightblue" stroke="midnightblue" points="482.97,-379.64 479.47,-369.64 475.97,-379.64 482.97,-379.64"/>
</g>
<!-- Node3 -->
<g id="node3" class="node">
<title>Node3</title>
<g id="a_node3"><a xlink:title=" ">
<polygon fill="white" stroke="#bfbfbf" points="331.97,-0.5 331.97,-21.5 396.97,-21.5 396.97,-0.5 331.97,-0.5"/>
<text text-anchor="middle" x="364.47" y="-7.9" font-family="DejaVuSans" font-size="12.00">stdbool.h</text>
</a>
</g>
</g>
<!-- Node2&#45;&gt;Node3 -->
<g id="edge2" class="edge">
<title>Node2&#45;&gt;Node3</title>
<path fill="none" stroke="midnightblue" d="M364.47,-58.25C364.47,-50.94 364.47,-40.69 364.47,-31.7"/>
<polygon fill="midnightblue" stroke="midnightblue" points="367.97,-31.64 364.47,-21.64 360.97,-31.64 367.97,-31.64"/>
</g>
<!-- Node4 -->
<g id="node4" class="node">
<title>Node4</title>
<g id="a_node4"><a xlink:title=" ">
<polygon fill="white" stroke="#bfbfbf" points="123.97,-0.5 123.97,-21.5 178.97,-21.5 178.97,-0.5 123.97,-0.5"/>
<text text-anchor="middle" x="151.47" y="-7.9" font-family="DejaVuSans" font-size="12.00">stdint.h</text>
</a>
</g>
</g>
<!-- Node2&#45;&gt;Node4 -->
<g id="edge3" class="edge">
<title>Node2&#45;&gt;Node4</title>
<path fill="none" stroke="midnightblue" d="M327.85,-58.37C289.01,-48.16 227.96,-32.11 188.83,-21.82"/>
<polygon fill="midnightblue" stroke="midnightblue" points="189.7,-18.43 179.14,-19.28 187.92,-25.2 189.7,-18.43"/>
</g>
<!-- Node5&#45;&gt;Node6 -->
<g id="edge5" class="edge">
<title>Node5&#45;&gt;Node6</title>
<path fill="none" stroke="midnightblue" d="M421.47,-290.25C421.47,-282.94 421.47,-272.69 421.47,-263.7"/>
<polygon fill="midnightblue" stroke="midnightblue" points="424.97,-263.64 421.47,-253.64 417.97,-263.64 424.97,-263.64"/>
</g>
<!-- Node7 -->
<g id="node7" class="node">
<title>Node7</title>
<g id="a_node7"><a xlink:href="str_8h.html" target="_top" xlink:title=" ">
<polygon fill="white" stroke="black" points="215.97,-174.5 215.97,-195.5 254.97,-195.5 254.97,-174.5 215.97,-174.5"/>
<text text-anchor="middle" x="235.47" y="-181.9" font-family="DejaVuSans" font-size="12.00">str.h</text>
</a>
</g>
</g>
<!-- Node6&#45;&gt;Node7 -->
<g id="edge6" class="edge">
<title>Node6&#45;&gt;Node7</title>
<path fill="none" stroke="midnightblue" d="M398.29,-235.02C364.46,-224.84 301.6,-205.91 264.66,-194.79"/>
<polygon fill="midnightblue" stroke="midnightblue" points="265.56,-191.4 254.98,-191.87 263.54,-198.11 265.56,-191.4"/>
</g>
<!-- Node12 -->
<g id="node12" class="node">
<title>Node12</title>
<g id="a_node12"><a xlink:href="texmath_8h.html" target="_top" xlink:title=" ">
<polygon fill="white" stroke="black" points="387.47,-174.5 387.47,-195.5 455.47,-195.5 455.47,-174.5 387.47,-174.5"/>
<text text-anchor="middle" x="421.47" y="-181.9" font-family="DejaVuSans" font-size="12.00">texmath.h</text>
</a>
</g>
</g>
<!-- Node6&#45;&gt;Node12 -->
<g id="edge15" class="edge">
<title>Node6&#45;&gt;Node12</title>
<path fill="none" stroke="midnightblue" d="M421.47,-232.25C421.47,-224.94 421.47,-214.69 421.47,-205.7"/>
<polygon fill="midnightblue" stroke="midnightblue" points="424.97,-205.64 421.47,-195.64 417.97,-205.64 424.97,-205.64"/>
</g>
<!-- Node7&#45;&gt;Node2 -->
<g id="edge14" class="edge">
<title>Node7&#45;&gt;Node2</title>
<path fill="none" stroke="midnightblue" d="M255.27,-177.85C275.21,-170.84 305.9,-157.73 326.47,-138 340.61,-124.44 350.91,-104.46 357.19,-89.66"/>
<polygon fill="midnightblue" stroke="midnightblue" points="360.61,-90.55 361.06,-79.97 354.1,-87.96 360.61,-90.55"/>
</g>
<!-- Node7&#45;&gt;Node4 -->
<g id="edge8" class="edge">
<title>Node7&#45;&gt;Node4</title>
<path fill="none" stroke="midnightblue" d="M215.64,-182.84C166.82,-179.54 42.91,-168.28 17.47,-138 -5.41,-110.77 -5.26,-86.9 15.47,-58 37.6,-27.16 81.52,-16.73 113.48,-13.35"/>
<polygon fill="midnightblue" stroke="midnightblue" points="114.16,-16.8 123.82,-12.45 113.55,-9.83 114.16,-16.8"/>
</g>
<!-- Node8 -->
<g id="node8" class="node">
<title>Node8</title>
<g id="a_node8"><a xlink:title=" ">
<polygon fill="white" stroke="#bfbfbf" points="104.47,-58.5 104.47,-79.5 156.47,-79.5 156.47,-58.5 104.47,-58.5"/>
<text text-anchor="middle" x="130.47" y="-65.9" font-family="DejaVuSans" font-size="12.00">stdio.h</text>
</a>
</g>
</g>
<!-- Node7&#45;&gt;Node8 -->
<g id="edge7" class="edge">
<title>Node7&#45;&gt;Node8</title>
<path fill="none" stroke="midnightblue" d="M215.7,-181.61C191.19,-177.48 150.32,-166.48 131.47,-138 122.12,-123.88 122.94,-104.23 125.46,-89.69"/>
<polygon fill="midnightblue" stroke="midnightblue" points="128.92,-90.24 127.58,-79.73 122.07,-88.79 128.92,-90.24"/>
</g>
<!-- Node9 -->
<g id="node9" class="node">
<title>Node9</title>
<g id="a_node9"><a xlink:href="global__const_8h.html" target="_top" xlink:title=" ">
<polygon fill="white" stroke="black" points="140.97,-116.5 140.97,-137.5 233.97,-137.5 233.97,-116.5 140.97,-116.5"/>
<text text-anchor="middle" x="187.47" y="-123.9" font-family="DejaVuSans" font-size="12.00">global_const.h</text>
</a>
</g>
</g>
<!-- Node7&#45;&gt;Node9 -->
<g id="edge9" class="edge">
<title>Node7&#45;&gt;Node9</title>
<path fill="none" stroke="midnightblue" d="M227.11,-174.25C220.29,-166.3 210.5,-154.87 202.35,-145.37"/>
<polygon fill="midnightblue" stroke="midnightblue" points="204.9,-142.96 195.73,-137.64 199.58,-147.51 204.9,-142.96"/>
</g>
<!-- Node11 -->
<g id="node11" class="node">
<title>Node11</title>
<g id="a_node11"><a xlink:href="charset_8h.html" target="_top" xlink:title=" ">
<polygon fill="white" stroke="black" points="251.97,-116.5 251.97,-137.5 316.97,-137.5 316.97,-116.5 251.97,-116.5"/>
<text text-anchor="middle" x="284.47" y="-123.9" font-family="DejaVuSans" font-size="12.00">charset.h</text>
</a>
</g>
</g>
<!-- Node7&#45;&gt;Node11 -->
<g id="edge12" class="edge">
<title>Node7&#45;&gt;Node11</title>
<path fill="none" stroke="midnightblue" d="M244,-174.25C250.96,-166.3 260.96,-154.87 269.27,-145.37"/>
<polygon fill="midnightblue" stroke="midnightblue" points="272.08,-147.47 276.03,-137.64 266.81,-142.86 272.08,-147.47"/>
</g>
<!-- Node9&#45;&gt;Node8 -->
<g id="edge11" class="edge">
<title>Node9&#45;&gt;Node8</title>
<path fill="none" stroke="midnightblue" d="M177.54,-116.25C169.29,-108.14 157.35,-96.41 147.56,-86.79"/>
<polygon fill="midnightblue" stroke="midnightblue" points="149.87,-84.15 140.28,-79.64 144.96,-89.15 149.87,-84.15"/>
</g>
<!-- Node10 -->
<g id="node10" class="node">
<title>Node10</title>
<g id="a_node10"><a xlink:title=" ">
<polygon fill="white" stroke="#bfbfbf" points="174.97,-58.5 174.97,-79.5 233.97,-79.5 233.97,-58.5 174.97,-58.5"/>
<text text-anchor="middle" x="204.47" y="-65.9" font-family="DejaVuSans" font-size="12.00">assert.h</text>
</a>
</g>
</g>
<!-- Node9&#45;&gt;Node10 -->
<g id="edge10" class="edge">
<title>Node9&#45;&gt;Node10</title>
<path fill="none" stroke="midnightblue" d="M190.43,-116.25C192.67,-108.86 195.83,-98.47 198.58,-89.41"/>
<polygon fill="midnightblue" stroke="midnightblue" points="201.99,-90.23 201.54,-79.64 195.29,-88.19 201.99,-90.23"/>
</g>
<!-- Node11&#45;&gt;Node2 -->
<g id="edge13" class="edge">
<title>Node11&#45;&gt;Node2</title>
<path fill="none" stroke="midnightblue" d="M298.4,-116.25C310.56,-107.73 328.42,-95.24 342.5,-85.38"/>
<polygon fill="midnightblue" stroke="midnightblue" points="344.51,-88.24 350.69,-79.64 340.49,-82.51 344.51,-88.24"/>
</g>
<!-- Node12&#45;&gt;Node2 -->
<g id="edge16" class="edge">
<title>Node12&#45;&gt;Node2</title>
<path fill="none" stroke="midnightblue" d="M419.01,-174.41C415.35,-160.92 407.78,-135.76 397.47,-116 392.33,-106.14 385.29,-96.02 379.03,-87.79"/>
<polygon fill="midnightblue" stroke="midnightblue" points="381.61,-85.4 372.68,-79.7 376.1,-89.72 381.61,-85.4"/>
</g>
<!-- Node13&#45;&gt;Node2 -->
<g id="edge18" class="edge">
<title>Node13&#45;&gt;Node2</title>
<path fill="none" stroke="midnightblue" d="M358.67,-348.42C359.52,-307.42 362.88,-146.29 364.06,-89.74"/>
<polygon fill="midnightblue" stroke="midnightblue" points="367.56,-89.69 364.27,-79.62 360.56,-89.54 367.56,-89.69"/>
</g>
<!-- Node13&#45;&gt;Node5 -->
<g id="edge19" class="edge">
<title>Node13&#45;&gt;Node5</title>
<path fill="none" stroke="midnightblue" d="M369.44,-348.25C378.66,-340.05 392.02,-328.17 402.9,-318.51"/>
<polygon fill="midnightblue" stroke="midnightblue" points="405.47,-320.9 410.62,-311.64 400.82,-315.67 405.47,-320.9"/>
</g>
<!-- Node14 -->
<g id="node14" class="node">
<title>Node14</title>
<g id="a_node14"><a xlink:href="global_8h.html" target="_top" xlink:title=" ">
<polygon fill="white" stroke="black" points="26.47,-116.5 26.47,-137.5 84.47,-137.5 84.47,-116.5 26.47,-116.5"/>
<text text-anchor="middle" x="55.47" y="-123.9" font-family="DejaVuSans" font-size="12.00">global.h</text>
</a>
</g>
</g>
<!-- Node13&#45;&gt;Node14 -->
<g id="edge20" class="edge">
<title>Node13&#45;&gt;Node14</title>
<path fill="none" stroke="midnightblue" d="M345.84,-348.41C298.96,-312.83 134.71,-188.15 76.29,-143.8"/>
<polygon fill="midnightblue" stroke="midnightblue" points="78.24,-140.89 68.16,-137.63 74.01,-146.46 78.24,-140.89"/>
</g>
<!-- Node14&#45;&gt;Node2 -->
<g id="edge23" class="edge">
<title>Node14&#45;&gt;Node2</title>
<path fill="none" stroke="midnightblue" d="M84.54,-120.73C137.66,-111.1 250.92,-90.58 315.91,-78.8"/>
<polygon fill="midnightblue" stroke="midnightblue" points="316.7,-82.21 325.91,-76.99 315.45,-75.33 316.7,-82.21"/>
</g>
<!-- Node14&#45;&gt;Node8 -->
<g id="edge21" class="edge">
<title>Node14&#45;&gt;Node8</title>
<path fill="none" stroke="midnightblue" d="M68.53,-116.25C79.83,-107.81 96.35,-95.47 109.5,-85.66"/>
<polygon fill="midnightblue" stroke="midnightblue" points="111.64,-88.43 117.55,-79.64 107.45,-82.82 111.64,-88.43"/>
</g>
<!-- Node15 -->
<g id="node15" class="node">
<title>Node15</title>
<g id="a_node15"><a xlink:title=" ">
<polygon fill="white" stroke="#bfbfbf" points="24.47,-58.5 24.47,-79.5 86.47,-79.5 86.47,-58.5 24.47,-58.5"/>
<text text-anchor="middle" x="55.47" y="-65.9" font-family="DejaVuSans" font-size="12.00">setjmp.h</text>
</a>
</g>
</g>
<!-- Node14&#45;&gt;Node15 -->
<g id="edge22" class="edge">
<title>Node14&#45;&gt;Node15</title>
<path fill="none" stroke="midnightblue" d="M55.47,-116.25C55.47,-108.94 55.47,-98.69 55.47,-89.7"/>
<polygon fill="midnightblue" stroke="midnightblue" points="58.97,-89.64 55.47,-79.64 51.97,-89.64 58.97,-89.64"/>
</g>
<!-- Node16&#45;&gt;Node2 -->
<g id="edge25" class="edge">
<title>Node16&#45;&gt;Node2</title>
<path fill="none" stroke="midnightblue" d="M481.9,-348.31C486.61,-328.74 496.47,-283.02 496.47,-244 496.47,-244 496.47,-244 496.47,-184 496.47,-133.47 440.39,-100.38 401.34,-83.46"/>
<polygon fill="midnightblue" stroke="midnightblue" points="402.4,-80.11 391.82,-79.51 399.71,-86.58 402.4,-80.11"/>
</g>
<!-- Node16&#45;&gt;Node5 -->
<g id="edge26" class="edge">
<title>Node16&#45;&gt;Node5</title>
<path fill="none" stroke="midnightblue" d="M469.37,-348.25C460.97,-340.14 448.82,-328.41 438.86,-318.79"/>
<polygon fill="midnightblue" stroke="midnightblue" points="441.08,-316.07 431.46,-311.64 436.22,-321.11 441.08,-316.07"/>
</g>
</g>
</svg>
