<?xml version="1.0" encoding="UTF-8" standalone="no"?>
<!DOCTYPE svg PUBLIC "-//W3C//DTD SVG 1.1//EN"
 "http://www.w3.org/Graphics/SVG/1.1/DTD/svg11.dtd">
<!-- Generated by graphviz version 2.44.0 ()
 -->
<!-- Title: box_copy.c Pages: 1 -->
<svg width="428pt" height="668pt"
 viewBox="0.00 0.00 427.50 668.00" xmlns="http://www.w3.org/2000/svg" xmlns:xlink="http://www.w3.org/1999/xlink">
<g id="graph0" class="graph" transform="scale(1 1) rotate(0) translate(4 664)">
<title>box_copy.c</title>
<polygon fill="white" stroke="transparent" points="-4,4 -4,-664 423.5,-664 423.5,4 -4,4"/>
<!-- Node1 -->
<g id="node1" class="node">
<title>Node1</title>
<g id="a_node1"><a xlink:title=" ">
<polygon fill="#bfbfbf" stroke="black" points="209.5,-638.5 209.5,-659.5 286.5,-659.5 286.5,-638.5 209.5,-638.5"/>
<text text-anchor="middle" x="248" y="-645.9" font-family="DejaVuSans" font-size="12.00">box_copy.c</text>
</a>
</g>
</g>
<!-- Node2 -->
<g id="node2" class="node">
<title>Node2</title>
<g id="a_node2"><a xlink:href="tex__types_8h.html" target="_top" xlink:title=" ">
<polygon fill="white" stroke="black" points="259.5,-58.5 259.5,-79.5 336.5,-79.5 336.5,-58.5 259.5,-58.5"/>
<text text-anchor="middle" x="298" y="-65.9" font-family="DejaVuSans" font-size="12.00">tex_types.h</text>
</a>
</g>
</g>
<!-- Node1&#45;&gt;Node2 -->
<g id="edge1" class="edge">
<title>Node1&#45;&gt;Node2</title>
<path fill="none" stroke="midnightblue" d="M264.03,-638.26C290.38,-620.88 340,-581.81 340,-534 340,-534 340,-534 340,-184 340,-148.52 321.86,-110.44 309.42,-88.5"/>
<polygon fill="midnightblue" stroke="midnightblue" points="312.29,-86.46 304.2,-79.62 306.26,-90.01 312.29,-86.46"/>
</g>
<!-- Node5 -->
<g id="node5" class="node">
<title>Node5</title>
<g id="a_node5"><a xlink:href="tex__constant_8h.html" target="_top" xlink:title=" ">
<polygon fill="white" stroke="black" points="104,-232.5 104,-253.5 198,-253.5 198,-232.5 104,-232.5"/>
<text text-anchor="middle" x="151" y="-239.9" font-family="DejaVuSans" font-size="12.00">tex_constant.h</text>
</a>
</g>
</g>
<!-- Node1&#45;&gt;Node5 -->
<g id="edge4" class="edge">
<title>Node1&#45;&gt;Node5</title>
<path fill="none" stroke="midnightblue" d="M209.4,-640.35C158.69,-627.8 76,-597.59 76,-534 76,-534 76,-534 76,-358 76,-317.7 109.12,-280.62 131.34,-260.28"/>
<polygon fill="midnightblue" stroke="midnightblue" points="133.76,-262.8 138.95,-253.56 129.13,-257.55 133.76,-262.8"/>
</g>
<!-- Node6 -->
<g id="node6" class="node">
<title>Node6</title>
<g id="a_node6"><a xlink:href="box_8h.html" target="_top" xlink:title=" ">
<polygon fill="white" stroke="black" points="128,-174.5 128,-195.5 174,-195.5 174,-174.5 128,-174.5"/>
<text text-anchor="middle" x="151" y="-181.9" font-family="DejaVuSans" font-size="12.00">box.h</text>
</a>
</g>
</g>
<!-- Node1&#45;&gt;Node6 -->
<g id="edge27" class="edge">
<title>Node1&#45;&gt;Node6</title>
<path fill="none" stroke="midnightblue" d="M209.25,-647.25C139.5,-643.62 0,-624.98 0,-534 0,-534 0,-534 0,-358 0,-283.78 80.39,-226.29 123.86,-200.64"/>
<polygon fill="midnightblue" stroke="midnightblue" points="125.86,-203.53 132.79,-195.51 122.37,-197.46 125.86,-203.53"/>
</g>
<!-- Node11 -->
<g id="node11" class="node">
<title>Node11</title>
<g id="a_node11"><a xlink:href="mem_8h.html" target="_top" xlink:title=" ">
<polygon fill="white" stroke="black" points="222.5,-522.5 222.5,-543.5 275.5,-543.5 275.5,-522.5 222.5,-522.5"/>
<text text-anchor="middle" x="249" y="-529.9" font-family="DejaVuSans" font-size="12.00">mem.h</text>
</a>
</g>
</g>
<!-- Node1&#45;&gt;Node11 -->
<g id="edge13" class="edge">
<title>Node1&#45;&gt;Node11</title>
<path fill="none" stroke="midnightblue" d="M251.31,-638.27C254.26,-629.06 258.36,-614.77 260,-602 262.11,-585.53 258.7,-566.92 255.13,-553.33"/>
<polygon fill="midnightblue" stroke="midnightblue" points="258.47,-552.29 252.34,-543.66 251.75,-554.23 258.47,-552.29"/>
</g>
<!-- Node17 -->
<g id="node17" class="node">
<title>Node17</title>
<g id="a_node17"><a xlink:href="texmac_8h.html" target="_top" xlink:title=" ">
<polygon fill="white" stroke="black" points="185.5,-580.5 185.5,-601.5 250.5,-601.5 250.5,-580.5 185.5,-580.5"/>
<text text-anchor="middle" x="218" y="-587.9" font-family="DejaVuSans" font-size="12.00">texmac.h</text>
</a>
</g>
</g>
<!-- Node1&#45;&gt;Node17 -->
<g id="edge24" class="edge">
<title>Node1&#45;&gt;Node17</title>
<path fill="none" stroke="midnightblue" d="M242.77,-638.25C238.69,-630.62 232.89,-619.79 227.93,-610.53"/>
<polygon fill="midnightblue" stroke="midnightblue" points="230.97,-608.8 223.17,-601.64 224.8,-612.11 230.97,-608.8"/>
</g>
<!-- Node18 -->
<g id="node18" class="node">
<title>Node18</title>
<g id="a_node18"><a xlink:href="error_8h.html" target="_top" xlink:title=" ">
<polygon fill="white" stroke="black" points="368.5,-580.5 368.5,-601.5 419.5,-601.5 419.5,-580.5 368.5,-580.5"/>
<text text-anchor="middle" x="394" y="-587.9" font-family="DejaVuSans" font-size="12.00">error.h</text>
</a>
</g>
</g>
<!-- Node1&#45;&gt;Node18 -->
<g id="edge26" class="edge">
<title>Node1&#45;&gt;Node18</title>
<path fill="none" stroke="midnightblue" d="M273.1,-638.37C296.96,-629.22 333.03,-615.38 359.57,-605.21"/>
<polygon fill="midnightblue" stroke="midnightblue" points="361.15,-608.35 369.23,-601.5 358.64,-601.81 361.15,-608.35"/>
</g>
<!-- Node3 -->
<g id="node3" class="node">
<title>Node3</title>
<g id="a_node3"><a xlink:title=" ">
<polygon fill="white" stroke="#bfbfbf" points="271.5,-0.5 271.5,-21.5 336.5,-21.5 336.5,-0.5 271.5,-0.5"/>
<text text-anchor="middle" x="304" y="-7.9" font-family="DejaVuSans" font-size="12.00">stdbool.h</text>
</a>
</g>
</g>
<!-- Node2&#45;&gt;Node3 -->
<g id="edge2" class="edge">
<title>Node2&#45;&gt;Node3</title>
<path fill="none" stroke="midnightblue" d="M299.05,-58.25C299.83,-50.94 300.93,-40.69 301.89,-31.7"/>
<polygon fill="midnightblue" stroke="midnightblue" points="305.38,-31.96 302.97,-21.64 298.42,-31.21 305.38,-31.96"/>
</g>
<!-- Node4 -->
<g id="node4" class="node">
<title>Node4</title>
<g id="a_node4"><a xlink:title=" ">
<polygon fill="white" stroke="#bfbfbf" points="198.5,-0.5 198.5,-21.5 253.5,-21.5 253.5,-0.5 198.5,-0.5"/>
<text text-anchor="middle" x="226" y="-7.9" font-family="DejaVuSans" font-size="12.00">stdint.h</text>
</a>
</g>
</g>
<!-- Node2&#45;&gt;Node4 -->
<g id="edge3" class="edge">
<title>Node2&#45;&gt;Node4</title>
<path fill="none" stroke="midnightblue" d="M285.46,-58.25C274.72,-49.89 259.05,-37.71 246.5,-27.94"/>
<polygon fill="midnightblue" stroke="midnightblue" points="248.44,-25.02 238.4,-21.64 244.14,-30.54 248.44,-25.02"/>
</g>
<!-- Node5&#45;&gt;Node6 -->
<g id="edge5" class="edge">
<title>Node5&#45;&gt;Node6</title>
<path fill="none" stroke="midnightblue" d="M151,-232.25C151,-224.94 151,-214.69 151,-205.7"/>
<polygon fill="midnightblue" stroke="midnightblue" points="154.5,-205.64 151,-195.64 147.5,-205.64 154.5,-205.64"/>
</g>
<!-- Node7 -->
<g id="node7" class="node">
<title>Node7</title>
<g id="a_node7"><a xlink:href="str_8h.html" target="_top" xlink:title=" ">
<polygon fill="white" stroke="black" points="157.5,-116.5 157.5,-137.5 196.5,-137.5 196.5,-116.5 157.5,-116.5"/>
<text text-anchor="middle" x="177" y="-123.9" font-family="DejaVuSans" font-size="12.00">str.h</text>
</a>
</g>
</g>
<!-- Node6&#45;&gt;Node7 -->
<g id="edge6" class="edge">
<title>Node6&#45;&gt;Node7</title>
<path fill="none" stroke="midnightblue" d="M155.53,-174.25C159.03,-166.7 163.99,-156.02 168.26,-146.82"/>
<polygon fill="midnightblue" stroke="midnightblue" points="171.49,-148.19 172.52,-137.64 165.14,-145.24 171.49,-148.19"/>
</g>
<!-- Node7&#45;&gt;Node2 -->
<g id="edge12" class="edge">
<title>Node7&#45;&gt;Node2</title>
<path fill="none" stroke="midnightblue" d="M196.71,-116.88C215.96,-107.97 245.52,-94.29 267.75,-84"/>
<polygon fill="midnightblue" stroke="midnightblue" points="269.47,-87.06 277.08,-79.68 266.53,-80.71 269.47,-87.06"/>
</g>
<!-- Node7&#45;&gt;Node4 -->
<g id="edge8" class="edge">
<title>Node7&#45;&gt;Node4</title>
<path fill="none" stroke="midnightblue" d="M184.29,-116.22C190.74,-107.2 200.02,-93.25 206,-80 213.11,-64.25 218.44,-45.31 221.8,-31.43"/>
<polygon fill="midnightblue" stroke="midnightblue" points="225.25,-32.06 224.07,-21.53 218.43,-30.5 225.25,-32.06"/>
</g>
<!-- Node8 -->
<g id="node8" class="node">
<title>Node8</title>
<g id="a_node8"><a xlink:title=" ">
<polygon fill="white" stroke="#bfbfbf" points="50,-0.5 50,-21.5 102,-21.5 102,-0.5 50,-0.5"/>
<text text-anchor="middle" x="76" y="-7.9" font-family="DejaVuSans" font-size="12.00">stdio.h</text>
</a>
</g>
</g>
<!-- Node7&#45;&gt;Node8 -->
<g id="edge7" class="edge">
<title>Node7&#45;&gt;Node8</title>
<path fill="none" stroke="midnightblue" d="M157.16,-119.85C138.44,-113.05 110.93,-100.28 95,-80 84.14,-66.18 79.48,-46.49 77.49,-31.86"/>
<polygon fill="midnightblue" stroke="midnightblue" points="80.96,-31.41 76.42,-21.83 74,-32.15 80.96,-31.41"/>
</g>
<!-- Node9 -->
<g id="node9" class="node">
<title>Node9</title>
<g id="a_node9"><a xlink:href="global__const_8h.html" target="_top" xlink:title=" ">
<polygon fill="white" stroke="black" points="104.5,-58.5 104.5,-79.5 197.5,-79.5 197.5,-58.5 104.5,-58.5"/>
<text text-anchor="middle" x="151" y="-65.9" font-family="DejaVuSans" font-size="12.00">global_const.h</text>
</a>
</g>
</g>
<!-- Node7&#45;&gt;Node9 -->
<g id="edge9" class="edge">
<title>Node7&#45;&gt;Node9</title>
<path fill="none" stroke="midnightblue" d="M172.47,-116.25C168.97,-108.7 164.01,-98.02 159.74,-88.82"/>
<polygon fill="midnightblue" stroke="midnightblue" points="162.86,-87.24 155.48,-79.64 156.51,-90.19 162.86,-87.24"/>
</g>
<!-- Node9&#45;&gt;Node8 -->
<g id="edge11" class="edge">
<title>Node9&#45;&gt;Node8</title>
<path fill="none" stroke="midnightblue" d="M137.94,-58.25C126.64,-49.81 110.12,-37.47 96.97,-27.66"/>
<polygon fill="midnightblue" stroke="midnightblue" points="99.02,-24.82 88.91,-21.64 94.83,-30.43 99.02,-24.82"/>
</g>
<!-- Node10 -->
<g id="node10" class="node">
<title>Node10</title>
<g id="a_node10"><a xlink:title=" ">
<polygon fill="white" stroke="#bfbfbf" points="121.5,-0.5 121.5,-21.5 180.5,-21.5 180.5,-0.5 121.5,-0.5"/>
<text text-anchor="middle" x="151" y="-7.9" font-family="DejaVuSans" font-size="12.00">assert.h</text>
</a>
</g>
</g>
<!-- Node9&#45;&gt;Node10 -->
<g id="edge10" class="edge">
<title>Node9&#45;&gt;Node10</title>
<path fill="none" stroke="midnightblue" d="M151,-58.25C151,-50.94 151,-40.69 151,-31.7"/>
<polygon fill="midnightblue" stroke="midnightblue" points="154.5,-31.64 151,-21.64 147.5,-31.64 154.5,-31.64"/>
</g>
<!-- Node11&#45;&gt;Node2 -->
<g id="edge14" class="edge">
<title>Node11&#45;&gt;Node2</title>
<path fill="none" stroke="midnightblue" d="M257.05,-522.34C271.88,-503.53 302,-460.12 302,-418 302,-418 302,-418 302,-184 302,-150.96 300.3,-112.58 299.12,-89.84"/>
<polygon fill="midnightblue" stroke="midnightblue" points="302.61,-89.55 298.57,-79.76 295.62,-89.93 302.61,-89.55"/>
</g>
<!-- Node12 -->
<g id="node12" class="node">
<title>Node12</title>
<g id="a_node12"><a xlink:href="global_8h.html" target="_top" xlink:title=" ">
<polygon fill="white" stroke="black" points="198,-464.5 198,-485.5 256,-485.5 256,-464.5 198,-464.5"/>
<text text-anchor="middle" x="227" y="-471.9" font-family="DejaVuSans" font-size="12.00">global.h</text>
</a>
</g>
</g>
<!-- Node11&#45;&gt;Node12 -->
<g id="edge15" class="edge">
<title>Node11&#45;&gt;Node12</title>
<path fill="none" stroke="midnightblue" d="M245.17,-522.25C242.23,-514.78 238.1,-504.24 234.51,-495.11"/>
<polygon fill="midnightblue" stroke="midnightblue" points="237.7,-493.67 230.79,-485.64 231.19,-496.23 237.7,-493.67"/>
</g>
<!-- Node12&#45;&gt;Node7 -->
<g id="edge17" class="edge">
<title>Node12&#45;&gt;Node7</title>
<path fill="none" stroke="midnightblue" d="M232.46,-464.28C242.75,-445.02 264,-400.37 264,-360 264,-360 264,-360 264,-300 264,-237.56 217.79,-174.77 192.72,-145.31"/>
<polygon fill="midnightblue" stroke="midnightblue" points="195.2,-142.82 185.98,-137.59 189.92,-147.43 195.2,-142.82"/>
</g>
<!-- Node13 -->
<g id="node13" class="node">
<title>Node13</title>
<g id="a_node13"><a xlink:title=" ">
<polygon fill="white" stroke="#bfbfbf" points="104,-406.5 104,-427.5 166,-427.5 166,-406.5 104,-406.5"/>
<text text-anchor="middle" x="135" y="-413.9" font-family="DejaVuSans" font-size="12.00">setjmp.h</text>
</a>
</g>
</g>
<!-- Node12&#45;&gt;Node13 -->
<g id="edge16" class="edge">
<title>Node12&#45;&gt;Node13</title>
<path fill="none" stroke="midnightblue" d="M210.97,-464.25C196.86,-455.65 176.07,-443 159.81,-433.1"/>
<polygon fill="midnightblue" stroke="midnightblue" points="161.2,-429.85 150.84,-427.64 157.56,-435.83 161.2,-429.85"/>
</g>
<!-- Node14 -->
<g id="node14" class="node">
<title>Node14</title>
<g id="a_node14"><a xlink:href="scan_8h.html" target="_top" xlink:title=" ">
<polygon fill="white" stroke="black" points="184,-406.5 184,-427.5 236,-427.5 236,-406.5 184,-406.5"/>
<text text-anchor="middle" x="210" y="-413.9" font-family="DejaVuSans" font-size="12.00">scan.h</text>
</a>
</g>
</g>
<!-- Node12&#45;&gt;Node14 -->
<g id="edge18" class="edge">
<title>Node12&#45;&gt;Node14</title>
<path fill="none" stroke="midnightblue" d="M224.04,-464.25C221.8,-456.86 218.64,-446.47 215.89,-437.41"/>
<polygon fill="midnightblue" stroke="midnightblue" points="219.18,-436.19 212.93,-427.64 212.48,-438.23 219.18,-436.19"/>
</g>
<!-- Node15 -->
<g id="node15" class="node">
<title>Node15</title>
<g id="a_node15"><a xlink:href="lexer_8h.html" target="_top" xlink:title=" ">
<polygon fill="white" stroke="black" points="155,-348.5 155,-369.5 207,-369.5 207,-348.5 155,-348.5"/>
<text text-anchor="middle" x="181" y="-355.9" font-family="DejaVuSans" font-size="12.00">lexer.h</text>
</a>
</g>
</g>
<!-- Node14&#45;&gt;Node15 -->
<g id="edge19" class="edge">
<title>Node14&#45;&gt;Node15</title>
<path fill="none" stroke="midnightblue" d="M204.95,-406.25C201,-398.62 195.39,-387.79 190.59,-378.53"/>
<polygon fill="midnightblue" stroke="midnightblue" points="193.7,-376.91 185.99,-369.64 187.48,-380.13 193.7,-376.91"/>
</g>
<!-- Node15&#45;&gt;Node8 -->
<g id="edge20" class="edge">
<title>Node15&#45;&gt;Node8</title>
<path fill="none" stroke="midnightblue" d="M154.77,-350.34C113.49,-336.48 38,-303.05 38,-244 38,-244 38,-244 38,-126 38,-90.9 54.41,-52.7 65.66,-30.63"/>
<polygon fill="midnightblue" stroke="midnightblue" points="68.81,-32.17 70.39,-21.7 62.62,-28.9 68.81,-32.17"/>
</g>
<!-- Node16 -->
<g id="node16" class="node">
<title>Node16</title>
<g id="a_node16"><a xlink:href="tex_8h.html" target="_top" xlink:title=" ">
<polygon fill="white" stroke="black" points="160,-290.5 160,-311.5 202,-311.5 202,-290.5 160,-290.5"/>
<text text-anchor="middle" x="181" y="-297.9" font-family="DejaVuSans" font-size="12.00">tex.h</text>
</a>
</g>
</g>
<!-- Node15&#45;&gt;Node16 -->
<g id="edge21" class="edge">
<title>Node15&#45;&gt;Node16</title>
<path fill="none" stroke="midnightblue" d="M181,-348.25C181,-340.94 181,-330.69 181,-321.7"/>
<polygon fill="midnightblue" stroke="midnightblue" points="184.5,-321.64 181,-311.64 177.5,-321.64 184.5,-321.64"/>
</g>
<!-- Node16&#45;&gt;Node2 -->
<g id="edge22" class="edge">
<title>Node16&#45;&gt;Node2</title>
<path fill="none" stroke="midnightblue" d="M186.74,-290.22C192.11,-280.96 200.3,-266.65 207,-254 238.58,-194.34 273.24,-122.24 289.14,-88.76"/>
<polygon fill="midnightblue" stroke="midnightblue" points="292.33,-90.21 293.45,-79.67 286,-87.21 292.33,-90.21"/>
</g>
<!-- Node16&#45;&gt;Node5 -->
<g id="edge23" class="edge">
<title>Node16&#45;&gt;Node5</title>
<path fill="none" stroke="midnightblue" d="M175.77,-290.25C171.69,-282.62 165.89,-271.79 160.93,-262.53"/>
<polygon fill="midnightblue" stroke="midnightblue" points="163.97,-260.8 156.17,-253.64 157.8,-264.11 163.97,-260.8"/>
</g>
<!-- Node17&#45;&gt;Node11 -->
<g id="edge25" class="edge">
<title>Node17&#45;&gt;Node11</title>
<path fill="none" stroke="midnightblue" d="M223.4,-580.25C227.62,-572.62 233.62,-561.79 238.74,-552.53"/>
<polygon fill="midnightblue" stroke="midnightblue" points="241.88,-554.09 243.66,-543.64 235.76,-550.7 241.88,-554.09"/>
</g>
</g>
</svg>
