<?xml version="1.0" encoding="UTF-8" standalone="no"?>
<!DOCTYPE svg PUBLIC "-//W3C//DTD SVG 1.1//EN"
 "http://www.w3.org/Graphics/SVG/1.1/DTD/svg11.dtd">
<!-- Generated by graphviz version 2.44.0 ()
 -->
<!-- Title: charset.h Pages: 1 -->
<svg width="4512pt" height="436pt"
 viewBox="0.00 0.00 4511.50 436.00" xmlns="http://www.w3.org/2000/svg" xmlns:xlink="http://www.w3.org/1999/xlink">
<g id="graph0" class="graph" transform="scale(1 1) rotate(0) translate(4 432)">
<title>charset.h</title>
<polygon fill="white" stroke="transparent" points="-4,4 -4,-432 4507.5,-432 4507.5,4 -4,4"/>
<!-- Node1 -->
<g id="node1" class="node">
<title>Node1</title>
<g id="a_node1"><a xlink:title=" ">
<polygon fill="#bfbfbf" stroke="black" points="963,-406.5 963,-427.5 1028,-427.5 1028,-406.5 963,-406.5"/>
<text text-anchor="middle" x="995.5" y="-413.9" font-family="DejaVuSans" font-size="12.00">charset.h</text>
</a>
</g>
</g>
<!-- Node2 -->
<g id="node2" class="node">
<title>Node2</title>
<g id="a_node2"><a xlink:href="charset_8c.html" target="_top" xlink:title=" ">
<polygon fill="white" stroke="black" points="0,-348.5 0,-369.5 65,-369.5 65,-348.5 0,-348.5"/>
<text text-anchor="middle" x="32.5" y="-355.9" font-family="DejaVuSans" font-size="12.00">charset.c</text>
</a>
</g>
</g>
<!-- Node1&#45;&gt;Node2 -->
<g id="edge1" class="edge">
<title>Node1&#45;&gt;Node2</title>
<path fill="none" stroke="midnightblue" d="M952.85,-416.27C821.84,-416.57 413.85,-413.68 79.5,-370 74.87,-369.39 70.01,-368.58 65.25,-367.67"/>
<polygon fill="midnightblue" stroke="midnightblue" points="952.89,-419.77 962.88,-416.24 952.87,-412.77 952.89,-419.77"/>
</g>
<!-- Node3 -->
<g id="node3" class="node">
<title>Node3</title>
<g id="a_node3"><a xlink:href="dviout_8h.html" target="_top" xlink:title=" ">
<polygon fill="white" stroke="black" points="3798,-174.5 3798,-195.5 3857,-195.5 3857,-174.5 3798,-174.5"/>
<text text-anchor="middle" x="3827.5" y="-181.9" font-family="DejaVuSans" font-size="12.00">dviout.h</text>
</a>
</g>
</g>
<!-- Node1&#45;&gt;Node3 -->
<g id="edge2" class="edge">
<title>Node1&#45;&gt;Node3</title>
<path fill="none" stroke="midnightblue" d="M1038.62,-415.88C1294.17,-415.02 2612.54,-408.75 3015.5,-370 3168.09,-355.33 3205.73,-344.69 3355.5,-312 3524.54,-275.1 3723.9,-217 3797.91,-194.92"/>
<polygon fill="midnightblue" stroke="midnightblue" points="1038.26,-412.38 1028.27,-415.91 1038.28,-419.38 1038.26,-412.38"/>
</g>
<!-- Node6 -->
<g id="node6" class="node">
<title>Node6</title>
<g id="a_node6"><a xlink:href="extension_8c.html" target="_top" xlink:title=" ">
<polygon fill="white" stroke="black" points="2435,-58.5 2435,-79.5 2512,-79.5 2512,-58.5 2435,-58.5"/>
<text text-anchor="middle" x="2473.5" y="-65.9" font-family="DejaVuSans" font-size="12.00">extension.c</text>
</a>
</g>
</g>
<!-- Node1&#45;&gt;Node6 -->
<g id="edge20" class="edge">
<title>Node1&#45;&gt;Node6</title>
<path fill="none" stroke="midnightblue" d="M952.63,-414.67C830.07,-410.59 479.85,-396.83 368.5,-370 292.98,-351.81 207.5,-379.68 207.5,-302 207.5,-302 207.5,-302 207.5,-184 207.5,-72.53 593.39,-125.02 704.5,-116 1057.41,-87.36 2208.94,-73 2434.85,-70.43"/>
<polygon fill="midnightblue" stroke="midnightblue" points="952.64,-418.17 962.75,-415 952.87,-411.18 952.64,-418.17"/>
</g>
<!-- Node14 -->
<g id="node10" class="node">
<title>Node14</title>
<g id="a_node10"><a xlink:href="tex__header_8h.html" target="_top" xlink:title=" ">
<polygon fill="white" stroke="black" points="1310.5,-58.5 1310.5,-79.5 1396.5,-79.5 1396.5,-58.5 1310.5,-58.5"/>
<text text-anchor="middle" x="1353.5" y="-65.9" font-family="DejaVuSans" font-size="12.00">tex_header.h</text>
</a>
</g>
</g>
<!-- Node1&#45;&gt;Node14 -->
<g id="edge208" class="edge">
<title>Node1&#45;&gt;Node14</title>
<path fill="none" stroke="midnightblue" d="M952.53,-416.54C807.3,-417.88 335.87,-418.33 193.5,-370 142.61,-352.72 93.5,-355.75 93.5,-302 93.5,-302 93.5,-302 93.5,-184 93.5,-129.52 143.68,-132.82 195.5,-116 302.97,-81.12 1113.39,-72.03 1310.42,-70.33"/>
<polygon fill="midnightblue" stroke="midnightblue" points="952.84,-420.03 962.81,-416.43 952.78,-413.03 952.84,-420.03"/>
</g>
<!-- Node18 -->
<g id="node14" class="node">
<title>Node18</title>
<g id="a_node14"><a xlink:href="eqtb_8c.html" target="_top" xlink:title=" ">
<polygon fill="white" stroke="black" points="2828,-174.5 2828,-195.5 2877,-195.5 2877,-174.5 2828,-174.5"/>
<text text-anchor="middle" x="2852.5" y="-181.9" font-family="DejaVuSans" font-size="12.00">eqtb.c</text>
</a>
</g>
</g>
<!-- Node1&#45;&gt;Node18 -->
<g id="edge17" class="edge">
<title>Node1&#45;&gt;Node18</title>
<path fill="none" stroke="midnightblue" d="M1038.21,-416.05C1192.74,-415.86 1737.05,-412.06 2183.5,-370 2356.22,-353.73 2400.6,-351.62 2569.5,-312 2651.33,-292.8 2673.73,-290.38 2749.5,-254 2784.66,-237.12 2821.88,-209.87 2840.47,-195.53"/>
<polygon fill="midnightblue" stroke="midnightblue" points="1038.18,-412.55 1028.19,-416.06 1038.19,-419.55 1038.18,-412.55"/>
</g>
<!-- Node19 -->
<g id="node15" class="node">
<title>Node19</title>
<g id="a_node15"><a xlink:href="error_8c.html" target="_top" xlink:title=" ">
<polygon fill="white" stroke="black" points="2759.5,-174.5 2759.5,-195.5 2809.5,-195.5 2809.5,-174.5 2759.5,-174.5"/>
<text text-anchor="middle" x="2784.5" y="-181.9" font-family="DejaVuSans" font-size="12.00">error.c</text>
</a>
</g>
</g>
<!-- Node1&#45;&gt;Node19 -->
<g id="edge18" class="edge">
<title>Node1&#45;&gt;Node19</title>
<path fill="none" stroke="midnightblue" d="M1038.28,-415.67C1272.07,-413.33 2396.04,-394.82 2707.5,-254 2737.4,-240.48 2764.1,-211.27 2776.75,-195.9"/>
<polygon fill="midnightblue" stroke="midnightblue" points="1038.1,-412.17 1028.14,-415.77 1038.17,-419.17 1038.1,-412.17"/>
</g>
<!-- Node20 -->
<g id="node16" class="node">
<title>Node20</title>
<g id="a_node16"><a xlink:href="expand_8c.html" target="_top" xlink:title=" ">
<polygon fill="white" stroke="black" points="1146,-174.5 1146,-195.5 1211,-195.5 1211,-174.5 1146,-174.5"/>
<text text-anchor="middle" x="1178.5" y="-181.9" font-family="DejaVuSans" font-size="12.00">expand.c</text>
</a>
</g>
</g>
<!-- Node1&#45;&gt;Node20 -->
<g id="edge19" class="edge">
<title>Node1&#45;&gt;Node20</title>
<path fill="none" stroke="midnightblue" d="M971.84,-400.61C924.09,-367.72 824.79,-288.97 874.5,-232 913.28,-187.55 1079.55,-207 1137.5,-196 1140.24,-195.48 1143.06,-194.9 1145.89,-194.27"/>
<polygon fill="midnightblue" stroke="midnightblue" points="970.13,-403.68 980.38,-406.38 974.05,-397.88 970.13,-403.68"/>
</g>
<!-- Node21 -->
<g id="node17" class="node">
<title>Node21</title>
<g id="a_node17"><a xlink:href="hash_8h.html" target="_top" xlink:title=" ">
<polygon fill="white" stroke="black" points="883,-232.5 883,-253.5 936,-253.5 936,-232.5 883,-232.5"/>
<text text-anchor="middle" x="909.5" y="-239.9" font-family="DejaVuSans" font-size="12.00">hash.h</text>
</a>
</g>
</g>
<!-- Node1&#45;&gt;Node21 -->
<g id="edge21" class="edge">
<title>Node1&#45;&gt;Node21</title>
<path fill="none" stroke="midnightblue" d="M986.08,-397.16C967.8,-360.59 928.09,-281.17 914.32,-253.63"/>
<polygon fill="midnightblue" stroke="midnightblue" points="983.03,-398.88 990.63,-406.26 989.29,-395.75 983.03,-398.88"/>
</g>
<!-- Node26 -->
<g id="node22" class="node">
<title>Node26</title>
<g id="a_node22"><a xlink:href="lexer_8c.html" target="_top" xlink:title=" ">
<polygon fill="white" stroke="black" points="662,-174.5 662,-195.5 713,-195.5 713,-174.5 662,-174.5"/>
<text text-anchor="middle" x="687.5" y="-181.9" font-family="DejaVuSans" font-size="12.00">lexer.c</text>
</a>
</g>
</g>
<!-- Node1&#45;&gt;Node26 -->
<g id="edge72" class="edge">
<title>Node1&#45;&gt;Node26</title>
<path fill="none" stroke="midnightblue" d="M952.82,-413.11C889.02,-408.01 772.8,-395.46 740.5,-370 684.63,-325.96 685.13,-226.97 686.8,-195.68"/>
<polygon fill="midnightblue" stroke="midnightblue" points="952.73,-416.62 962.97,-413.9 953.26,-409.64 952.73,-416.62"/>
</g>
<!-- Node28 -->
<g id="node24" class="node">
<title>Node28</title>
<g id="a_node24"><a xlink:href="hyphen_8h.html" target="_top" xlink:title=" ">
<polygon fill="white" stroke="black" points="1981.5,-232.5 1981.5,-253.5 2047.5,-253.5 2047.5,-232.5 1981.5,-232.5"/>
<text text-anchor="middle" x="2014.5" y="-239.9" font-family="DejaVuSans" font-size="12.00">hyphen.h</text>
</a>
</g>
</g>
<!-- Node1&#45;&gt;Node28 -->
<g id="edge32" class="edge">
<title>Node1&#45;&gt;Node28</title>
<path fill="none" stroke="midnightblue" d="M1038.4,-414.19C1219.37,-406.2 1914.66,-371.81 1990.5,-312 2008.59,-297.73 2013.07,-268.85 2014.16,-253.73"/>
<polygon fill="midnightblue" stroke="midnightblue" points="1038.04,-410.7 1028.2,-414.64 1038.35,-417.7 1038.04,-410.7"/>
</g>
<!-- Node33 -->
<g id="node28" class="node">
<title>Node33</title>
<g id="a_node28"><a xlink:href="print_8c.html" target="_top" xlink:title=" ">
<polygon fill="white" stroke="black" points="1382,-116.5 1382,-137.5 1431,-137.5 1431,-116.5 1382,-116.5"/>
<text text-anchor="middle" x="1406.5" y="-123.9" font-family="DejaVuSans" font-size="12.00">print.c</text>
</a>
</g>
</g>
<!-- Node1&#45;&gt;Node33 -->
<g id="edge84" class="edge">
<title>Node1&#45;&gt;Node33</title>
<path fill="none" stroke="midnightblue" d="M952.56,-413.69C798.61,-404.84 283.5,-370.15 283.5,-302 283.5,-302 283.5,-302 283.5,-242 283.5,-206.48 294.85,-191.96 325.5,-174 372.58,-146.42 1224.87,-131.01 1381.78,-128.4"/>
<polygon fill="midnightblue" stroke="midnightblue" points="952.4,-417.19 962.59,-414.26 952.8,-410.2 952.4,-417.19"/>
</g>
<!-- Node39 -->
<g id="node34" class="node">
<title>Node39</title>
<g id="a_node34"><a xlink:href="io_8h.html" target="_top" xlink:title=" ">
<polygon fill="white" stroke="black" points="716.5,-232.5 716.5,-253.5 752.5,-253.5 752.5,-232.5 716.5,-232.5"/>
<text text-anchor="middle" x="734.5" y="-239.9" font-family="DejaVuSans" font-size="12.00">io.h</text>
</a>
</g>
</g>
<!-- Node1&#45;&gt;Node39 -->
<g id="edge53" class="edge">
<title>Node1&#45;&gt;Node39</title>
<path fill="none" stroke="midnightblue" d="M952.78,-413.21C892.57,-408.38 787.1,-396.33 760.5,-370 728.12,-337.95 730.83,-276.97 733.27,-253.52"/>
<polygon fill="midnightblue" stroke="midnightblue" points="952.51,-416.7 962.75,-413.98 953.05,-409.72 952.51,-416.7"/>
</g>
<!-- Node42 -->
<g id="node37" class="node">
<title>Node42</title>
<g id="a_node37"><a xlink:href="io__fname_8c.html" target="_top" xlink:title=" ">
<polygon fill="white" stroke="black" points="1298,-174.5 1298,-195.5 1373,-195.5 1373,-174.5 1298,-174.5"/>
<text text-anchor="middle" x="1335.5" y="-181.9" font-family="DejaVuSans" font-size="12.00">io_fname.c</text>
</a>
</g>
</g>
<!-- Node1&#45;&gt;Node42 -->
<g id="edge71" class="edge">
<title>Node1&#45;&gt;Node42</title>
<path fill="none" stroke="midnightblue" d="M1038.14,-411.16C1129.11,-399.81 1337.12,-368.13 1375.5,-312 1401.54,-273.92 1362.03,-217.96 1343.85,-195.68"/>
<polygon fill="midnightblue" stroke="midnightblue" points="1037.66,-407.69 1028.16,-412.38 1038.51,-414.64 1037.66,-407.69"/>
</g>
<!-- Node44 -->
<g id="node39" class="node">
<title>Node44</title>
<g id="a_node39"><a xlink:href="mmode_8h.html" target="_top" xlink:title=" ">
<polygon fill="white" stroke="black" points="3599.5,-174.5 3599.5,-195.5 3665.5,-195.5 3665.5,-174.5 3599.5,-174.5"/>
<text text-anchor="middle" x="3632.5" y="-181.9" font-family="DejaVuSans" font-size="12.00">mmode.h</text>
</a>
</g>
</g>
<!-- Node1&#45;&gt;Node44 -->
<g id="edge73" class="edge">
<title>Node1&#45;&gt;Node44</title>
<path fill="none" stroke="midnightblue" d="M1038.55,-415.71C1284.16,-413.94 2510.41,-403.52 2886.5,-370 3156.16,-345.97 3229.5,-344.94 3484.5,-254 3532.71,-236.81 3586.73,-209.93 3614.25,-195.66"/>
<polygon fill="midnightblue" stroke="midnightblue" points="1038.23,-412.21 1028.26,-415.78 1038.28,-419.21 1038.23,-412.21"/>
</g>
<!-- Node47 -->
<g id="node42" class="node">
<title>Node47</title>
<g id="a_node42"><a xlink:href="print_8h.html" target="_top" xlink:title=" ">
<polygon fill="white" stroke="black" points="2887.5,-232.5 2887.5,-253.5 2937.5,-253.5 2937.5,-232.5 2887.5,-232.5"/>
<text text-anchor="middle" x="2912.5" y="-239.9" font-family="DejaVuSans" font-size="12.00">print.h</text>
</a>
</g>
</g>
<!-- Node1&#45;&gt;Node47 -->
<g id="edge85" class="edge">
<title>Node1&#45;&gt;Node47</title>
<path fill="none" stroke="midnightblue" d="M1038.38,-415.6C1313.89,-412.93 2824.9,-397.11 2863.5,-370 2902.88,-342.35 2910.61,-278.18 2912.13,-253.72"/>
<polygon fill="midnightblue" stroke="midnightblue" points="1038.34,-412.1 1028.37,-415.69 1038.41,-419.1 1038.34,-412.1"/>
</g>
<!-- Node51 -->
<g id="node46" class="node">
<title>Node51</title>
<g id="a_node46"><a xlink:href="str_8h.html" target="_top" xlink:title=" ">
<polygon fill="white" stroke="black" points="1178,-348.5 1178,-369.5 1217,-369.5 1217,-348.5 1178,-348.5"/>
<text text-anchor="middle" x="1197.5" y="-355.9" font-family="DejaVuSans" font-size="12.00">str.h</text>
</a>
</g>
</g>
<!-- Node1&#45;&gt;Node51 -->
<g id="edge116" class="edge">
<title>Node1&#45;&gt;Node51</title>
<path fill="none" stroke="midnightblue" d="M1038.31,-404.13C1081.3,-392.21 1145.65,-374.37 1177.77,-365.47"/>
<polygon fill="midnightblue" stroke="midnightblue" points="1037.11,-400.83 1028.4,-406.88 1038.98,-407.58 1037.11,-400.83"/>
</g>
<!-- Node4 -->
<g id="node4" class="node">
<title>Node4</title>
<g id="a_node4"><a xlink:href="align_8c.html" target="_top" xlink:title=" ">
<polygon fill="white" stroke="black" points="3868,-58.5 3868,-79.5 3919,-79.5 3919,-58.5 3868,-58.5"/>
<text text-anchor="middle" x="3893.5" y="-65.9" font-family="DejaVuSans" font-size="12.00">align.c</text>
</a>
</g>
</g>
<!-- Node3&#45;&gt;Node4 -->
<g id="edge3" class="edge">
<title>Node3&#45;&gt;Node4</title>
<path fill="none" stroke="midnightblue" d="M3838.17,-165.57C3852.35,-141.08 3876.89,-98.69 3887.89,-79.69"/>
<polygon fill="midnightblue" stroke="midnightblue" points="3835.11,-163.87 3833.13,-174.28 3841.17,-167.38 3835.11,-163.87"/>
</g>
<!-- Node5 -->
<g id="node5" class="node">
<title>Node5</title>
<g id="a_node5"><a xlink:href="dviout_8c.html" target="_top" xlink:title=" ">
<polygon fill="white" stroke="black" points="2176.5,-116.5 2176.5,-137.5 2234.5,-137.5 2234.5,-116.5 2176.5,-116.5"/>
<text text-anchor="middle" x="2205.5" y="-123.9" font-family="DejaVuSans" font-size="12.00">dviout.c</text>
</a>
</g>
</g>
<!-- Node3&#45;&gt;Node5 -->
<g id="edge4" class="edge">
<title>Node3&#45;&gt;Node5</title>
<path fill="none" stroke="midnightblue" d="M3787.56,-180.96C3756.7,-178.71 3712.92,-175.75 3674.5,-174 3052.27,-145.68 2894.08,-191.41 2273.5,-138 2260.66,-136.89 2246.55,-134.94 2234.53,-133.05"/>
<polygon fill="midnightblue" stroke="midnightblue" points="3787.67,-184.47 3797.9,-181.72 3788.19,-177.49 3787.67,-184.47"/>
</g>
<!-- Node3&#45;&gt;Node6 -->
<g id="edge5" class="edge">
<title>Node3&#45;&gt;Node6</title>
<path fill="none" stroke="midnightblue" d="M3821.98,-164.91C3816.22,-148.79 3805.46,-126.69 3787.5,-116 3731.33,-82.55 2723.11,-72.13 2512.05,-70.31"/>
<polygon fill="midnightblue" stroke="midnightblue" points="3818.66,-166.02 3825.07,-174.45 3825.32,-163.86 3818.66,-166.02"/>
</g>
<!-- Node7 -->
<g id="node7" class="node">
<title>Node7</title>
<g id="a_node7"><a xlink:href="main__ctrl_8h.html" target="_top" xlink:title=" ">
<polygon fill="white" stroke="red" points="3301.5,-116.5 3301.5,-137.5 3375.5,-137.5 3375.5,-116.5 3301.5,-116.5"/>
<text text-anchor="middle" x="3338.5" y="-123.9" font-family="DejaVuSans" font-size="12.00">main_ctrl.h</text>
</a>
</g>
</g>
<!-- Node3&#45;&gt;Node7 -->
<g id="edge6" class="edge">
<title>Node3&#45;&gt;Node7</title>
<path fill="none" stroke="midnightblue" d="M3787.58,-181.27C3709.85,-175.64 3532.88,-161.28 3385.5,-138 3382.29,-137.49 3378.96,-136.91 3375.63,-136.28"/>
<polygon fill="midnightblue" stroke="midnightblue" points="3787.65,-184.78 3797.88,-182.01 3788.15,-177.8 3787.65,-184.78"/>
</g>
<!-- Node12 -->
<g id="node8" class="node">
<title>Node12</title>
<g id="a_node8"><a xlink:href="page__builder_8c.html" target="_top" xlink:title=" ">
<polygon fill="white" stroke="black" points="3948,-58.5 3948,-79.5 4043,-79.5 4043,-58.5 3948,-58.5"/>
<text text-anchor="middle" x="3995.5" y="-65.9" font-family="DejaVuSans" font-size="12.00">page_builder.c</text>
</a>
</g>
</g>
<!-- Node3&#45;&gt;Node12 -->
<g id="edge14" class="edge">
<title>Node3&#45;&gt;Node12</title>
<path fill="none" stroke="midnightblue" d="M3850.15,-168.63C3885.29,-144.79 3951.92,-99.57 3981.15,-79.74"/>
<polygon fill="midnightblue" stroke="midnightblue" points="3847.84,-165.97 3841.53,-174.48 3851.77,-171.76 3847.84,-165.97"/>
</g>
<!-- Node3&#45;&gt;Node14 -->
<g id="edge16" class="edge">
<title>Node3&#45;&gt;Node14</title>
<path fill="none" stroke="midnightblue" d="M3811.6,-166.57C3794.45,-148.26 3767.8,-121.38 3754.5,-116 3697.65,-92.99 1715.63,-73.41 1396.64,-70.4"/>
<polygon fill="midnightblue" stroke="midnightblue" points="3809.37,-169.32 3818.74,-174.27 3814.51,-164.56 3809.37,-169.32"/>
</g>
<!-- Node16 -->
<g id="node12" class="node">
<title>Node16</title>
<g id="a_node12"><a xlink:href="math__formula_8c.html" target="_top" xlink:title=" ">
<polygon fill="white" stroke="black" points="3647.5,-116.5 3647.5,-137.5 3745.5,-137.5 3745.5,-116.5 3647.5,-116.5"/>
<text text-anchor="middle" x="3696.5" y="-123.9" font-family="DejaVuSans" font-size="12.00">math_formula.c</text>
</a>
</g>
</g>
<!-- Node3&#45;&gt;Node16 -->
<g id="edge13" class="edge">
<title>Node3&#45;&gt;Node16</title>
<path fill="none" stroke="midnightblue" d="M3795.65,-170.38C3771.82,-160.2 3739.84,-146.53 3718.73,-137.5"/>
<polygon fill="midnightblue" stroke="midnightblue" points="3794.41,-173.66 3804.98,-174.37 3797.16,-167.22 3794.41,-173.66"/>
</g>
<!-- Node17 -->
<g id="node13" class="node">
<title>Node17</title>
<g id="a_node13"><a xlink:href="scan_8c.html" target="_top" xlink:title=" ">
<polygon fill="white" stroke="black" points="4075,-116.5 4075,-137.5 4126,-137.5 4126,-116.5 4075,-116.5"/>
<text text-anchor="middle" x="4100.5" y="-123.9" font-family="DejaVuSans" font-size="12.00">scan.c</text>
</a>
</g>
</g>
<!-- Node3&#45;&gt;Node17 -->
<g id="edge15" class="edge">
<title>Node3&#45;&gt;Node17</title>
<path fill="none" stroke="midnightblue" d="M3867.29,-175.84C3924.15,-164.17 4027.04,-143.07 4074.83,-133.27"/>
<polygon fill="midnightblue" stroke="midnightblue" points="3866.33,-172.46 3857.24,-177.9 3867.73,-179.32 3866.33,-172.46"/>
</g>
<!-- Node7&#45;&gt;Node4 -->
<g id="edge7" class="edge">
<title>Node7&#45;&gt;Node4</title>
<path fill="none" stroke="midnightblue" d="M3385.2,-116.05C3385.3,-116.03 3385.4,-116.02 3385.5,-116 3569.38,-88.21 3793.42,-75.06 3868,-71.23"/>
<polygon fill="midnightblue" stroke="midnightblue" points="3384.9,-112.55 3375.63,-117.67 3386.07,-119.45 3384.9,-112.55"/>
</g>
<!-- Node7&#45;&gt;Node6 -->
<g id="edge8" class="edge">
<title>Node7&#45;&gt;Node6</title>
<path fill="none" stroke="midnightblue" d="M3291.32,-116.51C3290.03,-116.33 3288.76,-116.16 3287.5,-116 2990.82,-78.71 2629.49,-71.64 2512.23,-70.31"/>
<polygon fill="midnightblue" stroke="midnightblue" points="3290.85,-119.98 3301.27,-118.09 3291.94,-113.07 3290.85,-119.98"/>
</g>
<!-- Node7&#45;&gt;Node12 -->
<g id="edge9" class="edge">
<title>Node7&#45;&gt;Node12</title>
<path fill="none" stroke="midnightblue" d="M3385.2,-116.04C3385.3,-116.03 3385.4,-116.01 3385.5,-116 3625.07,-82.75 3688.02,-105.87 3928.5,-80 3934.81,-79.32 3941.45,-78.48 3947.98,-77.58"/>
<polygon fill="midnightblue" stroke="midnightblue" points="3384.93,-112.54 3375.61,-117.59 3386.04,-119.45 3384.93,-112.54"/>
</g>
<!-- Node13 -->
<g id="node9" class="node">
<title>Node13</title>
<g id="a_node9"><a xlink:href="printout_8c.html" target="_top" xlink:title=" ">
<polygon fill="white" stroke="black" points="3511,-58.5 3511,-79.5 3576,-79.5 3576,-58.5 3511,-58.5"/>
<text text-anchor="middle" x="3543.5" y="-65.9" font-family="DejaVuSans" font-size="12.00">printout.c</text>
</a>
</g>
</g>
<!-- Node7&#45;&gt;Node13 -->
<g id="edge10" class="edge">
<title>Node7&#45;&gt;Node13</title>
<path fill="none" stroke="midnightblue" d="M3383.64,-113.67C3422.07,-103.17 3476.37,-88.34 3510.75,-78.95"/>
<polygon fill="midnightblue" stroke="midnightblue" points="3382.46,-110.36 3373.74,-116.37 3384.31,-117.11 3382.46,-110.36"/>
</g>
<!-- Node7&#45;&gt;Node14 -->
<g id="edge11" class="edge">
<title>Node7&#45;&gt;Node14</title>
<path fill="none" stroke="midnightblue" d="M3291.24,-122.21C3262.91,-120.08 3226.16,-117.53 3193.5,-116 2475.72,-82.29 1599.18,-72.31 1396.65,-70.38"/>
<polygon fill="midnightblue" stroke="midnightblue" points="3291.04,-125.71 3301.27,-122.98 3291.57,-118.73 3291.04,-125.71"/>
</g>
<!-- Node15 -->
<g id="node11" class="node">
<title>Node15</title>
<g id="a_node11"><a xlink:href="tex_8c.html" target="_top" xlink:title=" ">
<polygon fill="white" stroke="black" points="1333,-0.5 1333,-21.5 1374,-21.5 1374,-0.5 1333,-0.5"/>
<text text-anchor="middle" x="1353.5" y="-7.9" font-family="DejaVuSans" font-size="12.00">tex.c</text>
</a>
</g>
</g>
<!-- Node14&#45;&gt;Node15 -->
<g id="edge12" class="edge">
<title>Node14&#45;&gt;Node15</title>
<path fill="none" stroke="midnightblue" d="M1353.5,-48.16C1353.5,-39.16 1353.5,-28.92 1353.5,-21.64"/>
<polygon fill="midnightblue" stroke="midnightblue" points="1350,-48.25 1353.5,-58.25 1357,-48.25 1350,-48.25"/>
</g>
<!-- Node21&#45;&gt;Node7 -->
<g id="edge29" class="edge">
<title>Node21&#45;&gt;Node7</title>
<path fill="none" stroke="midnightblue" d="M946.33,-241.81C1076.11,-240.82 1524.16,-234.63 1891.5,-196 1951.52,-189.69 1965.43,-179.83 2025.5,-174 2542.43,-123.82 2674.79,-163.87 3193.5,-138 3230.17,-136.17 3272,-133.19 3301.27,-130.96"/>
<polygon fill="midnightblue" stroke="midnightblue" points="946.12,-238.31 936.15,-241.88 946.17,-245.31 946.12,-238.31"/>
</g>
<!-- Node21&#45;&gt;Node14 -->
<g id="edge31" class="edge">
<title>Node21&#45;&gt;Node14</title>
<path fill="none" stroke="midnightblue" d="M899.16,-222.76C892.74,-207.92 887.6,-187.68 898.5,-174 949.9,-109.53 1207.1,-81.84 1310.43,-73.19"/>
<polygon fill="midnightblue" stroke="midnightblue" points="896.13,-224.54 903.62,-232.03 902.43,-221.5 896.13,-224.54"/>
</g>
<!-- Node21&#45;&gt;Node18 -->
<g id="edge24" class="edge">
<title>Node21&#45;&gt;Node18</title>
<path fill="none" stroke="midnightblue" d="M946.63,-241.69C1196.36,-239.53 2627.27,-225.89 2818.5,-196 2821.54,-195.52 2824.69,-194.85 2827.79,-194.08"/>
<polygon fill="midnightblue" stroke="midnightblue" points="946.25,-238.19 936.28,-241.78 946.31,-245.19 946.25,-238.19"/>
</g>
<!-- Node21&#45;&gt;Node20 -->
<g id="edge25" class="edge">
<title>Node21&#45;&gt;Node20</title>
<path fill="none" stroke="midnightblue" d="M946.16,-235.07C991.29,-226.44 1070.22,-210.99 1137.5,-196 1140.22,-195.39 1143.03,-194.75 1145.85,-194.09"/>
<polygon fill="midnightblue" stroke="midnightblue" points="945.42,-231.65 936.25,-236.96 946.73,-238.53 945.42,-231.65"/>
</g>
<!-- Node22 -->
<g id="node18" class="node">
<title>Node22</title>
<g id="a_node18"><a xlink:href="box__display_8c.html" target="_top" xlink:title=" ">
<polygon fill="white" stroke="black" points="1523,-116.5 1523,-137.5 1612,-137.5 1612,-116.5 1523,-116.5"/>
<text text-anchor="middle" x="1567.5" y="-123.9" font-family="DejaVuSans" font-size="12.00">box_display.c</text>
</a>
</g>
</g>
<!-- Node21&#45;&gt;Node22 -->
<g id="edge22" class="edge">
<title>Node21&#45;&gt;Node22</title>
<path fill="none" stroke="midnightblue" d="M915.56,-222.5C921.65,-206.51 932.72,-184.8 950.5,-174 1004.17,-141.39 1452.2,-145.84 1514.5,-138 1517.19,-137.66 1519.96,-137.27 1522.74,-136.84"/>
<polygon fill="midnightblue" stroke="midnightblue" points="912.23,-221.42 912.26,-232.01 918.85,-223.72 912.23,-221.42"/>
</g>
<!-- Node23 -->
<g id="node19" class="node">
<title>Node23</title>
<g id="a_node19"><a xlink:href="dump_8c.html" target="_top" xlink:title=" ">
<polygon fill="white" stroke="black" points="1449.5,-116.5 1449.5,-137.5 1505.5,-137.5 1505.5,-116.5 1449.5,-116.5"/>
<text text-anchor="middle" x="1477.5" y="-123.9" font-family="DejaVuSans" font-size="12.00">dump.c</text>
</a>
</g>
</g>
<!-- Node21&#45;&gt;Node23 -->
<g id="edge23" class="edge">
<title>Node21&#45;&gt;Node23</title>
<path fill="none" stroke="midnightblue" d="M904.04,-222.1C901.17,-206.85 900.41,-186.38 912.5,-174 953.58,-131.92 1382.51,-147.72 1440.5,-138 1443.39,-137.52 1446.38,-136.9 1449.34,-136.22"/>
<polygon fill="midnightblue" stroke="midnightblue" points="900.68,-223.14 906.34,-232.1 907.5,-221.57 900.68,-223.14"/>
</g>
<!-- Node24 -->
<g id="node20" class="node">
<title>Node24</title>
<g id="a_node20"><a xlink:href="fonts_8c.html" target="_top" xlink:title=" ">
<polygon fill="white" stroke="black" points="1229,-174.5 1229,-195.5 1280,-195.5 1280,-174.5 1229,-174.5"/>
<text text-anchor="middle" x="1254.5" y="-181.9" font-family="DejaVuSans" font-size="12.00">fonts.c</text>
</a>
</g>
</g>
<!-- Node21&#45;&gt;Node24 -->
<g id="edge26" class="edge">
<title>Node21&#45;&gt;Node24</title>
<path fill="none" stroke="midnightblue" d="M946.59,-238.2C1005.21,-231.83 1122.64,-217.52 1220.5,-196 1223.26,-195.39 1226.13,-194.68 1228.98,-193.92"/>
<polygon fill="midnightblue" stroke="midnightblue" points="945.92,-234.76 936.35,-239.3 946.67,-241.72 945.92,-234.76"/>
</g>
<!-- Node25 -->
<g id="node21" class="node">
<title>Node25</title>
<g id="a_node21"><a xlink:href="hash_8c.html" target="_top" xlink:title=" ">
<polygon fill="white" stroke="black" points="2895.5,-174.5 2895.5,-195.5 2947.5,-195.5 2947.5,-174.5 2895.5,-174.5"/>
<text text-anchor="middle" x="2921.5" y="-181.9" font-family="DejaVuSans" font-size="12.00">hash.c</text>
</a>
</g>
</g>
<!-- Node21&#45;&gt;Node25 -->
<g id="edge27" class="edge">
<title>Node21&#45;&gt;Node25</title>
<path fill="none" stroke="midnightblue" d="M946.35,-241.71C1200.39,-239.62 2687.92,-226.17 2886.5,-196 2889.37,-195.56 2892.35,-194.96 2895.29,-194.27"/>
<polygon fill="midnightblue" stroke="midnightblue" points="946.14,-238.21 936.17,-241.79 946.2,-245.21 946.14,-238.21"/>
</g>
<!-- Node21&#45;&gt;Node26 -->
<g id="edge28" class="edge">
<title>Node21&#45;&gt;Node26</title>
<path fill="none" stroke="midnightblue" d="M872.86,-233.56C834.88,-224.69 773.85,-210.09 721.5,-196 718.77,-195.26 715.92,-194.47 713.08,-193.66"/>
<polygon fill="midnightblue" stroke="midnightblue" points="872.4,-237.05 882.94,-235.91 873.99,-230.23 872.4,-237.05"/>
</g>
<!-- Node27 -->
<g id="node23" class="node">
<title>Node27</title>
<g id="a_node23"><a xlink:href="str_8c.html" target="_top" xlink:title=" ">
<polygon fill="white" stroke="black" points="784.5,-174.5 784.5,-195.5 822.5,-195.5 822.5,-174.5 784.5,-174.5"/>
<text text-anchor="middle" x="803.5" y="-181.9" font-family="DejaVuSans" font-size="12.00">str.c</text>
</a>
</g>
</g>
<!-- Node21&#45;&gt;Node27 -->
<g id="edge30" class="edge">
<title>Node21&#45;&gt;Node27</title>
<path fill="none" stroke="midnightblue" d="M881.98,-227.46C863.01,-217.44 838.33,-204.4 821.75,-195.64"/>
<polygon fill="midnightblue" stroke="midnightblue" points="880.56,-230.67 891.04,-232.25 883.83,-224.48 880.56,-230.67"/>
</g>
<!-- Node28&#45;&gt;Node7 -->
<g id="edge50" class="edge">
<title>Node28&#45;&gt;Node7</title>
<path fill="none" stroke="midnightblue" d="M2018.77,-222.51C2023.4,-206.48 2032.54,-184.72 2049.5,-174 2103.26,-140.04 3129.99,-141.19 3193.5,-138 3230.17,-136.16 3271.99,-133.18 3301.27,-130.95"/>
<polygon fill="midnightblue" stroke="midnightblue" points="2015.3,-221.93 2016.24,-232.49 2022.09,-223.65 2015.3,-221.93"/>
</g>
<!-- Node28&#45;&gt;Node14 -->
<g id="edge52" class="edge">
<title>Node28&#45;&gt;Node14</title>
<path fill="none" stroke="midnightblue" d="M1971.28,-240.67C1860.51,-236.88 1568.71,-224.43 1476.5,-196 1426.3,-180.52 1406.21,-179.11 1373.5,-138 1359.71,-120.67 1355.42,-94.09 1354.1,-79.84"/>
<polygon fill="midnightblue" stroke="midnightblue" points="1971.31,-244.17 1981.42,-241.01 1971.54,-237.18 1971.31,-244.17"/>
</g>
<!-- Node28&#45;&gt;Node23 -->
<g id="edge33" class="edge">
<title>Node28&#45;&gt;Node23</title>
<path fill="none" stroke="midnightblue" d="M1971.39,-240.77C1854.59,-237.09 1538.26,-224.56 1501.5,-196 1483.31,-181.87 1478.87,-152.92 1477.81,-137.76"/>
<polygon fill="midnightblue" stroke="midnightblue" points="1971.31,-244.27 1981.41,-241.08 1971.53,-237.28 1971.31,-244.27"/>
</g>
<!-- Node29 -->
<g id="node25" class="node">
<title>Node29</title>
<g id="a_node25"><a xlink:href="extension_8h.html" target="_top" xlink:title=" ">
<polygon fill="white" stroke="red" points="1733.5,-174.5 1733.5,-195.5 1811.5,-195.5 1811.5,-174.5 1733.5,-174.5"/>
<text text-anchor="middle" x="1772.5" y="-181.9" font-family="DejaVuSans" font-size="12.00">extension.h</text>
</a>
</g>
</g>
<!-- Node28&#45;&gt;Node29 -->
<g id="edge34" class="edge">
<title>Node28&#45;&gt;Node29</title>
<path fill="none" stroke="midnightblue" d="M1971.54,-232.06C1926.23,-221.57 1855.46,-205.2 1811.64,-195.06"/>
<polygon fill="midnightblue" stroke="midnightblue" points="1970.83,-235.49 1981.36,-234.33 1972.4,-228.67 1970.83,-235.49"/>
</g>
<!-- Node32 -->
<g id="node27" class="node">
<title>Node32</title>
<g id="a_node27"><a xlink:href="linebreak_8c.html" target="_top" xlink:title=" ">
<polygon fill="white" stroke="black" points="2282.5,-116.5 2282.5,-137.5 2356.5,-137.5 2356.5,-116.5 2282.5,-116.5"/>
<text text-anchor="middle" x="2319.5" y="-123.9" font-family="DejaVuSans" font-size="12.00">linebreak.c</text>
</a>
</g>
</g>
<!-- Node28&#45;&gt;Node32 -->
<g id="edge49" class="edge">
<title>Node28&#45;&gt;Node32</title>
<path fill="none" stroke="midnightblue" d="M2008.65,-222.46C2005.44,-207.4 2004.13,-187.03 2015.5,-174 2019.88,-168.99 2202.05,-143.85 2282.25,-133"/>
<polygon fill="midnightblue" stroke="midnightblue" points="2005.29,-223.47 2011.16,-232.3 2012.08,-221.74 2005.29,-223.47"/>
</g>
<!-- Node34 -->
<g id="node29" class="node">
<title>Node34</title>
<g id="a_node29"><a xlink:href="hyphen_8c.html" target="_top" xlink:title=" ">
<polygon fill="white" stroke="black" points="3180,-174.5 3180,-195.5 3245,-195.5 3245,-174.5 3180,-174.5"/>
<text text-anchor="middle" x="3212.5" y="-181.9" font-family="DejaVuSans" font-size="12.00">hyphen.c</text>
</a>
</g>
</g>
<!-- Node28&#45;&gt;Node34 -->
<g id="edge45" class="edge">
<title>Node28&#45;&gt;Node34</title>
<path fill="none" stroke="midnightblue" d="M2057.91,-240.39C2200.78,-235.04 2669.3,-216.95 3056.5,-196 3099.18,-193.69 3148.39,-190.44 3179.94,-188.28"/>
<polygon fill="midnightblue" stroke="midnightblue" points="2057.66,-236.9 2047.8,-240.77 2057.93,-243.9 2057.66,-236.9"/>
</g>
<!-- Node35 -->
<g id="node30" class="node">
<title>Node35</title>
<g id="a_node30"><a xlink:href="hyphen__init_8c.html" target="_top" xlink:title=" ">
<polygon fill="white" stroke="black" points="2539.5,-174.5 2539.5,-195.5 2627.5,-195.5 2627.5,-174.5 2539.5,-174.5"/>
<text text-anchor="middle" x="2583.5" y="-181.9" font-family="DejaVuSans" font-size="12.00">hyphen_init.c</text>
</a>
</g>
</g>
<!-- Node28&#45;&gt;Node35 -->
<g id="edge46" class="edge">
<title>Node28&#45;&gt;Node35</title>
<path fill="none" stroke="midnightblue" d="M2057.51,-237.77C2162.84,-227.4 2432.83,-200.83 2539.34,-190.35"/>
<polygon fill="midnightblue" stroke="midnightblue" points="2057.16,-234.28 2047.55,-238.75 2057.85,-241.25 2057.16,-234.28"/>
</g>
<!-- Node36 -->
<g id="node31" class="node">
<title>Node36</title>
<g id="a_node31"><a xlink:href="hyphen__post_8c.html" target="_top" xlink:title=" ">
<polygon fill="white" stroke="black" points="2058,-174.5 2058,-195.5 2153,-195.5 2153,-174.5 2058,-174.5"/>
<text text-anchor="middle" x="2105.5" y="-181.9" font-family="DejaVuSans" font-size="12.00">hyphen_post.c</text>
</a>
</g>
</g>
<!-- Node28&#45;&gt;Node36 -->
<g id="edge47" class="edge">
<title>Node28&#45;&gt;Node36</title>
<path fill="none" stroke="midnightblue" d="M2039.25,-226.77C2055.38,-216.85 2075.93,-204.2 2089.83,-195.64"/>
<polygon fill="midnightblue" stroke="midnightblue" points="2037.03,-224.02 2030.35,-232.25 2040.7,-229.99 2037.03,-224.02"/>
</g>
<!-- Node37 -->
<g id="node32" class="node">
<title>Node37</title>
<g id="a_node32"><a xlink:href="hyphen__pre_8c.html" target="_top" xlink:title=" ">
<polygon fill="white" stroke="black" points="2356,-174.5 2356,-195.5 2445,-195.5 2445,-174.5 2356,-174.5"/>
<text text-anchor="middle" x="2400.5" y="-181.9" font-family="DejaVuSans" font-size="12.00">hyphen_pre.c</text>
</a>
</g>
</g>
<!-- Node28&#45;&gt;Node37 -->
<g id="edge48" class="edge">
<title>Node28&#45;&gt;Node37</title>
<path fill="none" stroke="midnightblue" d="M2058.09,-235.68C2131.99,-224.95 2281.14,-203.32 2355.8,-192.49"/>
<polygon fill="midnightblue" stroke="midnightblue" points="2057.14,-232.28 2047.74,-237.18 2058.14,-239.2 2057.14,-232.28"/>
</g>
<!-- Node38 -->
<g id="node33" class="node">
<title>Node38</title>
<g id="a_node33"><a xlink:href="mem_8c.html" target="_top" xlink:title=" ">
<polygon fill="white" stroke="black" points="2171.5,-174.5 2171.5,-195.5 2223.5,-195.5 2223.5,-174.5 2171.5,-174.5"/>
<text text-anchor="middle" x="2197.5" y="-181.9" font-family="DejaVuSans" font-size="12.00">mem.c</text>
</a>
</g>
</g>
<!-- Node28&#45;&gt;Node38 -->
<g id="edge51" class="edge">
<title>Node28&#45;&gt;Node38</title>
<path fill="none" stroke="midnightblue" d="M2055.55,-229.44C2091.04,-218.58 2141.26,-203.21 2171.48,-193.96"/>
<polygon fill="midnightblue" stroke="midnightblue" points="2054.5,-226.1 2045.96,-232.37 2056.55,-232.79 2054.5,-226.1"/>
</g>
<!-- Node29&#45;&gt;Node5 -->
<g id="edge38" class="edge">
<title>Node29&#45;&gt;Node5</title>
<path fill="none" stroke="midnightblue" d="M1821.63,-174.6C1822.93,-174.39 1824.22,-174.19 1825.5,-174 1970.11,-152.43 2007.89,-159.57 2152.5,-138 2160.28,-136.84 2168.66,-135.36 2176.41,-133.91"/>
<polygon fill="midnightblue" stroke="midnightblue" points="1820.8,-171.18 1811.52,-176.29 1821.96,-178.09 1820.8,-171.18"/>
</g>
<!-- Node29&#45;&gt;Node6 -->
<g id="edge39" class="edge">
<title>Node29&#45;&gt;Node6</title>
<path fill="none" stroke="midnightblue" d="M1801.25,-170.07C1835.64,-154.1 1895.35,-128.52 1949.5,-116 2127.45,-74.86 2347.18,-69.93 2434.79,-69.74"/>
<polygon fill="midnightblue" stroke="midnightblue" points="1799.4,-167.08 1791.84,-174.5 1802.38,-173.41 1799.4,-167.08"/>
</g>
<!-- Node29&#45;&gt;Node7 -->
<g id="edge41" class="edge">
<title>Node29&#45;&gt;Node7</title>
<path fill="none" stroke="midnightblue" d="M1821.9,-177.82C1835.37,-176.34 1849.98,-174.92 1863.5,-174 2453.45,-133.67 2602.85,-166.35 3193.5,-138 3230.17,-136.24 3272,-133.25 3301.27,-131"/>
<polygon fill="midnightblue" stroke="midnightblue" points="1821.4,-174.36 1811.85,-178.96 1822.18,-181.31 1821.4,-174.36"/>
</g>
<!-- Node29&#45;&gt;Node13 -->
<g id="edge43" class="edge">
<title>Node29&#45;&gt;Node13</title>
<path fill="none" stroke="midnightblue" d="M1811.61,-171.35C1863.83,-155.13 1959.5,-127.69 2043.5,-116 2341.07,-74.6 3319.86,-70.46 3510.98,-70.05"/>
<polygon fill="midnightblue" stroke="midnightblue" points="1810.26,-168.11 1801.76,-174.44 1812.35,-174.79 1810.26,-168.11"/>
</g>
<!-- Node29&#45;&gt;Node14 -->
<g id="edge44" class="edge">
<title>Node29&#45;&gt;Node14</title>
<path fill="none" stroke="midnightblue" d="M1763.22,-165.13C1754.33,-149.22 1739.33,-127.27 1719.5,-116 1665.22,-85.14 1481.27,-74.61 1396.69,-71.33"/>
<polygon fill="midnightblue" stroke="midnightblue" points="1760.2,-166.91 1767.96,-174.12 1766.39,-163.64 1760.2,-166.91"/>
</g>
<!-- Node29&#45;&gt;Node22 -->
<g id="edge36" class="edge">
<title>Node29&#45;&gt;Node22</title>
<path fill="none" stroke="midnightblue" d="M1727.55,-171.72C1689.85,-161.42 1636.8,-146.93 1602.28,-137.5"/>
<polygon fill="midnightblue" stroke="midnightblue" points="1726.69,-175.11 1737.26,-174.37 1728.54,-168.36 1726.69,-175.11"/>
</g>
<!-- Node29&#45;&gt;Node23 -->
<g id="edge37" class="edge">
<title>Node29&#45;&gt;Node23</title>
<path fill="none" stroke="midnightblue" d="M1723.41,-176.56C1671.32,-168.36 1586.72,-154.16 1514.5,-138 1511.64,-137.36 1508.67,-136.65 1505.72,-135.9"/>
<polygon fill="midnightblue" stroke="midnightblue" points="1722.97,-180.03 1733.39,-178.12 1724.05,-173.12 1722.97,-180.03"/>
</g>
<!-- Node31 -->
<g id="node26" class="node">
<title>Node31</title>
<g id="a_node26"><a xlink:href="box__destroy_8c.html" target="_top" xlink:title=" ">
<polygon fill="white" stroke="black" points="2052,-116.5 2052,-137.5 2143,-137.5 2143,-116.5 2052,-116.5"/>
<text text-anchor="middle" x="2097.5" y="-123.9" font-family="DejaVuSans" font-size="12.00">box_destroy.c</text>
</a>
</g>
</g>
<!-- Node29&#45;&gt;Node31 -->
<g id="edge35" class="edge">
<title>Node29&#45;&gt;Node31</title>
<path fill="none" stroke="midnightblue" d="M1821.64,-174.69C1822.94,-174.46 1824.23,-174.23 1825.5,-174 1904.94,-159.79 1997.64,-144.36 2051.73,-135.47"/>
<polygon fill="midnightblue" stroke="midnightblue" points="1820.76,-171.3 1811.56,-176.54 1822.03,-178.18 1820.76,-171.3"/>
</g>
<!-- Node29&#45;&gt;Node32 -->
<g id="edge40" class="edge">
<title>Node29&#45;&gt;Node32</title>
<path fill="none" stroke="midnightblue" d="M1821.95,-178.43C1835.42,-176.95 1850.02,-175.38 1863.5,-174 2032.26,-156.73 2074.93,-157.07 2243.5,-138 2256.19,-136.56 2270.06,-134.8 2282.42,-133.15"/>
<polygon fill="midnightblue" stroke="midnightblue" points="1821.46,-174.96 1811.9,-179.54 1822.23,-181.92 1821.46,-174.96"/>
</g>
<!-- Node29&#45;&gt;Node33 -->
<g id="edge42" class="edge">
<title>Node29&#45;&gt;Node33</title>
<path fill="none" stroke="midnightblue" d="M1723.34,-179.49C1658.18,-172.99 1539.86,-159.37 1440.5,-138 1437.49,-137.35 1434.36,-136.58 1431.27,-135.75"/>
<polygon fill="midnightblue" stroke="midnightblue" points="1723.03,-182.98 1733.33,-180.47 1723.72,-176.01 1723.03,-182.98"/>
</g>
<!-- Node39&#45;&gt;Node5 -->
<g id="edge57" class="edge">
<title>Node39&#45;&gt;Node5</title>
<path fill="none" stroke="midnightblue" d="M706.32,-232.07C674.65,-219.49 630.35,-196.69 652.5,-174 681.62,-144.18 2111.05,-142.38 2152.5,-138 2160.32,-137.17 2168.72,-135.81 2176.47,-134.36"/>
<polygon fill="midnightblue" stroke="midnightblue" points="705.47,-235.49 716.06,-235.78 707.97,-228.95 705.47,-235.49"/>
</g>
<!-- Node39&#45;&gt;Node6 -->
<g id="edge60" class="edge">
<title>Node39&#45;&gt;Node6</title>
<path fill="none" stroke="midnightblue" d="M705.9,-241.6C638.4,-239.76 478.62,-229.58 530.5,-174 597.96,-101.73 2167.16,-74.66 2434.84,-70.57"/>
<polygon fill="midnightblue" stroke="midnightblue" points="706.19,-245.11 716.26,-241.84 706.35,-238.11 706.19,-245.11"/>
</g>
<!-- Node39&#45;&gt;Node7 -->
<g id="edge67" class="edge">
<title>Node39&#45;&gt;Node7</title>
<path fill="none" stroke="midnightblue" d="M762.58,-239.72C790.83,-237.49 835.67,-234.13 874.5,-232 1084.56,-220.5 1613.13,-231.44 1820.5,-196 1853.06,-190.44 1858.91,-179.4 1891.5,-174 2177.06,-126.73 2904.39,-151.96 3193.5,-138 3230.17,-136.23 3272,-133.24 3301.27,-130.99"/>
<polygon fill="midnightblue" stroke="midnightblue" points="762.3,-236.23 752.61,-240.51 762.86,-243.21 762.3,-236.23"/>
</g>
<!-- Node39&#45;&gt;Node14 -->
<g id="edge70" class="edge">
<title>Node39&#45;&gt;Node14</title>
<path fill="none" stroke="midnightblue" d="M706.1,-241.52C643.71,-239.81 497.8,-231.97 467.5,-196 461.2,-188.52 461.01,-181.31 467.5,-174 524.17,-110.15 1140.53,-79.13 1310.38,-71.76"/>
<polygon fill="midnightblue" stroke="midnightblue" points="706.31,-245.03 716.4,-241.77 706.48,-238.03 706.31,-245.03"/>
</g>
<!-- Node39&#45;&gt;Node19 -->
<g id="edge58" class="edge">
<title>Node39&#45;&gt;Node19</title>
<path fill="none" stroke="midnightblue" d="M762.57,-239.57C790.82,-237.23 835.65,-233.78 874.5,-232 1656.95,-196.09 1853.98,-230.41 2636.5,-196 2679.72,-194.1 2729.95,-190.39 2759.38,-188.06"/>
<polygon fill="midnightblue" stroke="midnightblue" points="762.28,-236.09 752.61,-240.41 762.86,-243.06 762.28,-236.09"/>
</g>
<!-- Node39&#45;&gt;Node20 -->
<g id="edge59" class="edge">
<title>Node39&#45;&gt;Node20</title>
<path fill="none" stroke="midnightblue" d="M762.6,-232.87C763.91,-232.55 765.22,-232.26 766.5,-232 928.87,-199.12 974.17,-223.7 1137.5,-196 1140.24,-195.53 1143.08,-194.99 1145.91,-194.39"/>
<polygon fill="midnightblue" stroke="midnightblue" points="761.31,-229.59 752.61,-235.63 763.18,-236.34 761.31,-229.59"/>
</g>
<!-- Node39&#45;&gt;Node22 -->
<g id="edge54" class="edge">
<title>Node39&#45;&gt;Node22</title>
<path fill="none" stroke="midnightblue" d="M706.49,-236.46C663.62,-226.84 589.66,-205.06 619.5,-174 653.97,-138.11 1465.06,-143.63 1514.5,-138 1517.2,-137.69 1519.96,-137.33 1522.75,-136.92"/>
<polygon fill="midnightblue" stroke="midnightblue" points="705.87,-239.91 716.38,-238.59 707.34,-233.06 705.87,-239.91"/>
</g>
<!-- Node39&#45;&gt;Node23 -->
<g id="edge56" class="edge">
<title>Node39&#45;&gt;Node23</title>
<path fill="none" stroke="midnightblue" d="M706.29,-239.27C652.1,-233.04 542.17,-215.01 581.5,-174 614.56,-139.53 1393.29,-145.28 1440.5,-138 1443.39,-137.55 1446.39,-136.97 1449.36,-136.3"/>
<polygon fill="midnightblue" stroke="midnightblue" points="706,-242.76 716.32,-240.36 706.76,-235.8 706,-242.76"/>
</g>
<!-- Node39&#45;&gt;Node24 -->
<g id="edge61" class="edge">
<title>Node39&#45;&gt;Node24</title>
<path fill="none" stroke="midnightblue" d="M762.78,-240.04C852.74,-233.69 1131.62,-213.11 1220.5,-196 1223.16,-195.49 1225.91,-194.86 1228.64,-194.16"/>
<polygon fill="midnightblue" stroke="midnightblue" points="762.26,-236.57 752.53,-240.76 762.75,-243.55 762.26,-236.57"/>
</g>
<!-- Node39&#45;&gt;Node26 -->
<g id="edge66" class="edge">
<title>Node39&#45;&gt;Node26</title>
<path fill="none" stroke="midnightblue" d="M719.81,-224.5C711.82,-214.98 702.24,-203.56 695.59,-195.64"/>
<polygon fill="midnightblue" stroke="midnightblue" points="717.2,-226.84 726.31,-232.25 722.57,-222.34 717.2,-226.84"/>
</g>
<!-- Node39&#45;&gt;Node27 -->
<g id="edge69" class="edge">
<title>Node39&#45;&gt;Node27</title>
<path fill="none" stroke="midnightblue" d="M754.3,-225.93C766.36,-216.14 781.37,-203.96 791.62,-195.64"/>
<polygon fill="midnightblue" stroke="midnightblue" points="752.08,-223.23 746.52,-232.25 756.49,-228.66 752.08,-223.23"/>
</g>
<!-- Node39&#45;&gt;Node33 -->
<g id="edge68" class="edge">
<title>Node39&#45;&gt;Node33</title>
<path fill="none" stroke="midnightblue" d="M705.89,-241.08C641.53,-238.08 494.62,-225.55 543.5,-174 573.11,-142.76 1243.21,-130.56 1381.62,-128.37"/>
<polygon fill="midnightblue" stroke="midnightblue" points="706.04,-244.59 716.18,-241.51 706.34,-237.59 706.04,-244.59"/>
</g>
<!-- Node39&#45;&gt;Node35 -->
<g id="edge62" class="edge">
<title>Node39&#45;&gt;Node35</title>
<path fill="none" stroke="midnightblue" d="M762.57,-239.59C790.82,-237.26 835.65,-233.83 874.5,-232 1576.13,-198.97 1752.98,-231.16 2454.5,-196 2482.77,-194.58 2514.46,-192.14 2539.36,-190.02"/>
<polygon fill="midnightblue" stroke="midnightblue" points="762.28,-236.1 752.61,-240.42 762.86,-243.08 762.28,-236.1"/>
</g>
<!-- Node40 -->
<g id="node35" class="node">
<title>Node40</title>
<g id="a_node35"><a xlink:href="debug_8c.html" target="_top" xlink:title=" ">
<polygon fill="white" stroke="black" points="1069,-174.5 1069,-195.5 1128,-195.5 1128,-174.5 1069,-174.5"/>
<text text-anchor="middle" x="1098.5" y="-181.9" font-family="DejaVuSans" font-size="12.00">debug.c</text>
</a>
</g>
</g>
<!-- Node39&#45;&gt;Node40 -->
<g id="edge55" class="edge">
<title>Node39&#45;&gt;Node40</title>
<path fill="none" stroke="midnightblue" d="M762.61,-232.93C763.92,-232.6 765.22,-232.29 766.5,-232 876.66,-207.33 1010.52,-193.64 1068.9,-188.45"/>
<polygon fill="midnightblue" stroke="midnightblue" points="761.3,-229.67 752.64,-235.76 763.21,-236.4 761.3,-229.67"/>
</g>
<!-- Node41 -->
<g id="node36" class="node">
<title>Node41</title>
<g id="a_node36"><a xlink:href="io_8c.html" target="_top" xlink:title=" ">
<polygon fill="white" stroke="black" points="731,-174.5 731,-195.5 766,-195.5 766,-174.5 731,-174.5"/>
<text text-anchor="middle" x="748.5" y="-181.9" font-family="DejaVuSans" font-size="12.00">io.c</text>
</a>
</g>
</g>
<!-- Node39&#45;&gt;Node41 -->
<g id="edge63" class="edge">
<title>Node39&#45;&gt;Node41</title>
<path fill="none" stroke="midnightblue" d="M739.39,-222.45C741.65,-213.38 744.25,-203 746.09,-195.64"/>
<polygon fill="midnightblue" stroke="midnightblue" points="735.97,-221.7 736.94,-232.25 742.76,-223.39 735.97,-221.7"/>
</g>
<!-- Node39&#45;&gt;Node42 -->
<g id="edge64" class="edge">
<title>Node39&#45;&gt;Node42</title>
<path fill="none" stroke="midnightblue" d="M763,-239.86C869.02,-231.86 1237.2,-203.82 1289.5,-196 1292.25,-195.59 1295.08,-195.11 1297.92,-194.59"/>
<polygon fill="midnightblue" stroke="midnightblue" points="762.46,-236.39 752.75,-240.63 762.99,-243.37 762.46,-236.39"/>
</g>
<!-- Node43 -->
<g id="node38" class="node">
<title>Node43</title>
<g id="a_node38"><a xlink:href="io__unix_8c.html" target="_top" xlink:title=" ">
<polygon fill="white" stroke="black" points="350,-174.5 350,-195.5 415,-195.5 415,-174.5 350,-174.5"/>
<text text-anchor="middle" x="382.5" y="-181.9" font-family="DejaVuSans" font-size="12.00">io_unix.c</text>
</a>
</g>
</g>
<!-- Node39&#45;&gt;Node43 -->
<g id="edge65" class="edge">
<title>Node39&#45;&gt;Node43</title>
<path fill="none" stroke="midnightblue" d="M706.03,-238.29C651.96,-231.11 530.8,-214.4 429.5,-196 424.82,-195.15 419.9,-194.18 415.07,-193.19"/>
<polygon fill="midnightblue" stroke="midnightblue" points="705.84,-241.79 716.22,-239.63 706.76,-234.85 705.84,-241.79"/>
</g>
<!-- Node44&#45;&gt;Node4 -->
<g id="edge74" class="edge">
<title>Node44&#45;&gt;Node4</title>
<path fill="none" stroke="midnightblue" d="M3616.19,-166.27C3604.6,-151.48 3593.1,-130.54 3605.5,-116 3639.18,-76.51 3803.6,-70.77 3867.77,-70.05"/>
<polygon fill="midnightblue" stroke="midnightblue" points="3613.73,-168.78 3622.85,-174.18 3619.09,-164.27 3613.73,-168.78"/>
</g>
<!-- Node44&#45;&gt;Node7 -->
<g id="edge77" class="edge">
<title>Node44&#45;&gt;Node7</title>
<path fill="none" stroke="midnightblue" d="M3589.35,-174.76C3588.05,-174.5 3586.77,-174.25 3585.5,-174 3496.87,-156.6 3474.13,-155.4 3385.5,-138 3382.31,-137.37 3379,-136.71 3375.68,-136.02"/>
<polygon fill="midnightblue" stroke="midnightblue" points="3588.9,-178.25 3599.4,-176.82 3590.31,-171.39 3588.9,-178.25"/>
</g>
<!-- Node44&#45;&gt;Node12 -->
<g id="edge80" class="edge">
<title>Node44&#45;&gt;Node12</title>
<path fill="none" stroke="midnightblue" d="M3628.23,-164.16C3626.22,-148.94 3626.45,-128.49 3638.5,-116 3683.6,-69.27 3864.16,-88.79 3928.5,-80 3934.79,-79.14 3941.41,-78.2 3947.94,-77.25"/>
<polygon fill="midnightblue" stroke="midnightblue" points="3624.81,-164.87 3629.96,-174.13 3631.7,-163.68 3624.81,-164.87"/>
</g>
<!-- Node44&#45;&gt;Node13 -->
<g id="edge82" class="edge">
<title>Node44&#45;&gt;Node13</title>
<path fill="none" stroke="midnightblue" d="M3604.08,-169.23C3591.39,-161.42 3577.16,-150.78 3567.5,-138 3553.91,-120.02 3547.57,-93.71 3545,-79.67"/>
<polygon fill="midnightblue" stroke="midnightblue" points="3602.55,-172.39 3612.95,-174.41 3606.08,-166.35 3602.55,-172.39"/>
</g>
<!-- Node44&#45;&gt;Node14 -->
<g id="edge83" class="edge">
<title>Node44&#45;&gt;Node14</title>
<path fill="none" stroke="midnightblue" d="M3608.83,-169.2C3580.84,-152.61 3532.25,-126.65 3486.5,-116 3381.09,-91.46 1689.84,-73.38 1396.65,-70.43"/>
<polygon fill="midnightblue" stroke="midnightblue" points="3607.13,-172.26 3617.5,-174.43 3610.74,-166.26 3607.13,-172.26"/>
</g>
<!-- Node44&#45;&gt;Node16 -->
<g id="edge78" class="edge">
<title>Node44&#45;&gt;Node16</title>
<path fill="none" stroke="midnightblue" d="M3651.19,-167.65C3662.32,-157.91 3676.07,-145.88 3685.48,-137.64"/>
<polygon fill="midnightblue" stroke="midnightblue" points="3648.87,-165.03 3643.65,-174.25 3653.48,-170.29 3648.87,-165.03"/>
</g>
<!-- Node44&#45;&gt;Node22 -->
<g id="edge76" class="edge">
<title>Node44&#45;&gt;Node22</title>
<path fill="none" stroke="midnightblue" d="M3589.18,-181.43C3549.88,-179.18 3490.32,-175.97 3438.5,-174 3066.32,-159.84 1860.3,-134.15 1612.33,-128.94"/>
<polygon fill="midnightblue" stroke="midnightblue" points="3589.03,-184.93 3599.21,-182.01 3589.43,-177.94 3589.03,-184.93"/>
</g>
<!-- Node44&#45;&gt;Node31 -->
<g id="edge75" class="edge">
<title>Node44&#45;&gt;Node31</title>
<path fill="none" stroke="midnightblue" d="M3589.18,-181.48C3549.87,-179.26 3490.31,-176.07 3438.5,-174 2873.83,-151.45 2730.57,-186.04 2167.5,-138 2159.67,-137.33 2151.38,-136.37 2143.35,-135.31"/>
<polygon fill="midnightblue" stroke="midnightblue" points="3589.03,-184.98 3599.21,-182.05 3589.43,-177.99 3589.03,-184.98"/>
</g>
<!-- Node45 -->
<g id="node40" class="node">
<title>Node45</title>
<g id="a_node40"><a xlink:href="mmode_8c.html" target="_top" xlink:title=" ">
<polygon fill="white" stroke="black" points="3119,-116.5 3119,-137.5 3184,-137.5 3184,-116.5 3119,-116.5"/>
<text text-anchor="middle" x="3151.5" y="-123.9" font-family="DejaVuSans" font-size="12.00">mmode.c</text>
</a>
</g>
</g>
<!-- Node44&#45;&gt;Node45 -->
<g id="edge79" class="edge">
<title>Node44&#45;&gt;Node45</title>
<path fill="none" stroke="midnightblue" d="M3589.31,-178.97C3494.24,-167.9 3268.61,-141.63 3184.16,-131.8"/>
<polygon fill="midnightblue" stroke="midnightblue" points="3589.1,-182.47 3599.44,-180.15 3589.91,-175.52 3589.1,-182.47"/>
</g>
<!-- Node46 -->
<g id="node41" class="node">
<title>Node46</title>
<g id="a_node41"><a xlink:href="pagebreak_8c.html" target="_top" xlink:title=" ">
<polygon fill="white" stroke="black" points="3394,-116.5 3394,-137.5 3477,-137.5 3477,-116.5 3394,-116.5"/>
<text text-anchor="middle" x="3435.5" y="-123.9" font-family="DejaVuSans" font-size="12.00">pagebreak.c</text>
</a>
</g>
</g>
<!-- Node44&#45;&gt;Node46 -->
<g id="edge81" class="edge">
<title>Node44&#45;&gt;Node46</title>
<path fill="none" stroke="midnightblue" d="M3589.3,-171.72C3553.13,-161.44 3502.25,-146.98 3469.08,-137.55"/>
<polygon fill="midnightblue" stroke="midnightblue" points="3588.51,-175.13 3599.08,-174.5 3590.42,-168.4 3588.51,-175.13"/>
</g>
<!-- Node47&#45;&gt;Node4 -->
<g id="edge86" class="edge">
<title>Node47&#45;&gt;Node4</title>
<path fill="none" stroke="midnightblue" d="M2947.93,-241.01C3148.39,-235.35 4131.85,-207.06 4142.5,-196 4155.22,-182.8 4158.77,-140.74 4135.5,-116 4074.83,-51.48 4026.34,-97.41 3939.5,-80 3932.93,-78.68 3925.85,-77.18 3919.26,-75.75"/>
<polygon fill="midnightblue" stroke="midnightblue" points="2947.57,-237.52 2937.67,-241.3 2947.76,-244.51 2947.57,-237.52"/>
</g>
<!-- Node47&#45;&gt;Node5 -->
<g id="edge90" class="edge">
<title>Node47&#45;&gt;Node5</title>
<path fill="none" stroke="midnightblue" d="M2947.55,-231.93C2989.09,-219.82 3053.17,-200.56 3056.5,-196 3062.27,-188.1 3063.25,-181.07 3056.5,-174 3026.42,-142.51 2316.85,-142.17 2273.5,-138 2260.67,-136.77 2246.57,-134.79 2234.54,-132.92"/>
<polygon fill="midnightblue" stroke="midnightblue" points="2946.41,-228.61 2937.78,-234.76 2948.36,-235.34 2946.41,-228.61"/>
</g>
<!-- Node47&#45;&gt;Node6 -->
<g id="edge95" class="edge">
<title>Node47&#45;&gt;Node6</title>
<path fill="none" stroke="midnightblue" d="M2947.68,-231.36C3027.32,-219.41 3210.06,-245.86 3254.5,-196 3261.01,-188.7 3258.36,-182.99 3254.5,-174 3239.75,-139.62 3227.78,-130.98 3193.5,-116 3130.95,-88.66 2652.82,-74.53 2512.25,-70.93"/>
<polygon fill="midnightblue" stroke="midnightblue" points="2946.8,-227.96 2937.6,-233.21 2948.07,-234.85 2946.8,-227.96"/>
</g>
<!-- Node47&#45;&gt;Node7 -->
<g id="edge104" class="edge">
<title>Node47&#45;&gt;Node7</title>
<path fill="none" stroke="midnightblue" d="M2947.62,-232.75C2948.93,-232.48 2950.22,-232.23 2951.5,-232 3025.4,-218.64 3222.22,-233.12 3287.5,-196 3311.1,-182.58 3327.12,-153.32 3334.27,-137.93"/>
<polygon fill="midnightblue" stroke="midnightblue" points="2946.55,-229.4 2937.56,-235.01 2948.08,-236.23 2946.55,-229.4"/>
</g>
<!-- Node47&#45;&gt;Node12 -->
<g id="edge109" class="edge">
<title>Node47&#45;&gt;Node12</title>
<path fill="none" stroke="midnightblue" d="M2947.82,-241.03C3149.78,-235.44 4149.68,-207.23 4160.5,-196 4171.93,-184.14 4178.23,-143.63 4155.5,-116 4128.51,-83.19 4079.76,-72.89 4043.14,-70.07"/>
<polygon fill="midnightblue" stroke="midnightblue" points="2947.66,-237.53 2937.76,-241.31 2947.85,-244.53 2947.66,-237.53"/>
</g>
<!-- Node47&#45;&gt;Node13 -->
<g id="edge112" class="edge">
<title>Node47&#45;&gt;Node13</title>
<path fill="none" stroke="midnightblue" d="M2947.73,-240.96C3118.24,-235.85 3850.33,-212.97 3866.5,-196 3954.64,-103.51 3674.59,-77.77 3576.3,-71.68"/>
<polygon fill="midnightblue" stroke="midnightblue" points="2947.44,-237.47 2937.54,-241.27 2947.64,-244.47 2947.44,-237.47"/>
</g>
<!-- Node47&#45;&gt;Node16 -->
<g id="edge105" class="edge">
<title>Node47&#45;&gt;Node16</title>
<path fill="none" stroke="midnightblue" d="M2947.77,-240.61C3100.07,-234.55 3694.27,-210.02 3707.5,-196 3722.44,-180.17 3710.58,-152.48 3702.47,-137.79"/>
<polygon fill="midnightblue" stroke="midnightblue" points="2947.43,-237.12 2937.58,-241.02 2947.71,-244.12 2947.43,-237.12"/>
</g>
<!-- Node47&#45;&gt;Node17 -->
<g id="edge113" class="edge">
<title>Node47&#45;&gt;Node17</title>
<path fill="none" stroke="midnightblue" d="M2947.74,-240.82C3133.11,-234.6 3987.89,-205.42 4013.5,-196 4046.96,-183.69 4077.73,-153.37 4092.05,-137.71"/>
<polygon fill="midnightblue" stroke="midnightblue" points="2947.59,-237.33 2937.71,-241.16 2947.82,-244.32 2947.59,-237.33"/>
</g>
<!-- Node47&#45;&gt;Node18 -->
<g id="edge91" class="edge">
<title>Node47&#45;&gt;Node18</title>
<path fill="none" stroke="midnightblue" d="M2894.67,-225.36C2884.29,-215.67 2871.57,-203.8 2862.83,-195.64"/>
<polygon fill="midnightblue" stroke="midnightblue" points="2892.35,-227.98 2902.05,-232.25 2897.13,-222.86 2892.35,-227.98"/>
</g>
<!-- Node47&#45;&gt;Node19 -->
<g id="edge93" class="edge">
<title>Node47&#45;&gt;Node19</title>
<path fill="none" stroke="midnightblue" d="M2881.07,-228.25C2857.82,-218.08 2826.76,-204.49 2806.22,-195.5"/>
<polygon fill="midnightblue" stroke="midnightblue" points="2879.93,-231.57 2890.5,-232.37 2882.74,-225.16 2879.93,-231.57"/>
</g>
<!-- Node47&#45;&gt;Node20 -->
<g id="edge94" class="edge">
<title>Node47&#45;&gt;Node20</title>
<path fill="none" stroke="midnightblue" d="M2877.29,-241.25C2642.1,-236.21 1305.51,-207.15 1220.5,-196 1217.53,-195.61 1214.46,-195.1 1211.4,-194.51"/>
<polygon fill="midnightblue" stroke="midnightblue" points="2877.28,-244.75 2887.35,-241.46 2877.43,-237.75 2877.28,-244.75"/>
</g>
<!-- Node47&#45;&gt;Node22 -->
<g id="edge87" class="edge">
<title>Node47&#45;&gt;Node22</title>
<path fill="none" stroke="midnightblue" d="M2877,-241.12C2682.24,-236.26 1750.07,-212.19 1691.5,-196 1668.9,-189.75 1611,-154.98 1583.05,-137.72"/>
<polygon fill="midnightblue" stroke="midnightblue" points="2877.16,-244.63 2887.25,-241.38 2877.34,-237.63 2877.16,-244.63"/>
</g>
<!-- Node47&#45;&gt;Node23 -->
<g id="edge89" class="edge">
<title>Node47&#45;&gt;Node23</title>
<path fill="none" stroke="midnightblue" d="M2877.22,-241.07C2678.48,-235.79 1705.39,-209.35 1643.5,-196 1586.88,-183.78 1524.9,-153.42 1495.25,-137.73"/>
<polygon fill="midnightblue" stroke="midnightblue" points="2877.3,-244.57 2887.39,-241.34 2877.49,-237.58 2877.3,-244.57"/>
</g>
<!-- Node47&#45;&gt;Node24 -->
<g id="edge96" class="edge">
<title>Node47&#45;&gt;Node24</title>
<path fill="none" stroke="midnightblue" d="M2877.3,-241.25C2647.75,-236.34 1370.61,-208.53 1289.5,-196 1286.5,-195.54 1283.4,-194.9 1280.33,-194.16"/>
<polygon fill="midnightblue" stroke="midnightblue" points="2877.36,-244.75 2887.43,-241.47 2877.51,-237.76 2877.36,-244.75"/>
</g>
<!-- Node47&#45;&gt;Node25 -->
<g id="edge97" class="edge">
<title>Node47&#45;&gt;Node25</title>
<path fill="none" stroke="midnightblue" d="M2915.69,-222.16C2917.14,-213.16 2918.78,-202.92 2919.95,-195.64"/>
<polygon fill="midnightblue" stroke="midnightblue" points="2912.2,-221.82 2914.07,-232.25 2919.11,-222.93 2912.2,-221.82"/>
</g>
<!-- Node47&#45;&gt;Node26 -->
<g id="edge102" class="edge">
<title>Node47&#45;&gt;Node26</title>
<path fill="none" stroke="midnightblue" d="M2877.04,-241.26C2594.69,-235.33 721.5,-196 721.5,-196 718.82,-195.59 716.06,-195.02 713.33,-194.36"/>
<polygon fill="midnightblue" stroke="midnightblue" points="2877.07,-244.76 2887.14,-241.47 2877.21,-237.76 2877.07,-244.76"/>
</g>
<!-- Node47&#45;&gt;Node27 -->
<g id="edge114" class="edge">
<title>Node47&#45;&gt;Node27</title>
<path fill="none" stroke="midnightblue" d="M2877.36,-241.31C2690.43,-237.61 1793.67,-219.37 1060.5,-196 971.46,-193.16 865.12,-188.67 822.52,-186.83"/>
<polygon fill="midnightblue" stroke="midnightblue" points="2877.37,-244.81 2887.44,-241.51 2877.51,-237.81 2877.37,-244.81"/>
</g>
<!-- Node47&#45;&gt;Node32 -->
<g id="edge103" class="edge">
<title>Node47&#45;&gt;Node32</title>
<path fill="none" stroke="midnightblue" d="M2947.56,-232.96C2999.08,-219.66 3089.22,-196.36 3089.5,-196 3095.48,-188.27 3096.2,-181.12 3089.5,-174 3064.09,-147.03 2506.83,-132.31 2356.55,-128.82"/>
<polygon fill="midnightblue" stroke="midnightblue" points="2946.62,-229.59 2937.81,-235.47 2948.37,-236.37 2946.62,-229.59"/>
</g>
<!-- Node47&#45;&gt;Node33 -->
<g id="edge111" class="edge">
<title>Node47&#45;&gt;Node33</title>
<path fill="none" stroke="midnightblue" d="M2877.24,-241.14C2672.09,-236.08 1639.04,-210.01 1573.5,-196 1573.5,-196 1476.11,-156.34 1430.07,-137.6"/>
<polygon fill="midnightblue" stroke="midnightblue" points="2877.37,-244.64 2887.45,-241.39 2877.54,-237.64 2877.37,-244.64"/>
</g>
<!-- Node47&#45;&gt;Node34 -->
<g id="edge98" class="edge">
<title>Node47&#45;&gt;Node34</title>
<path fill="none" stroke="midnightblue" d="M2947.64,-232.84C2948.94,-232.55 2950.23,-232.27 2951.5,-232 3045.85,-212 3070.75,-214.04 3165.5,-196 3170.17,-195.11 3175.09,-194.12 3179.92,-193.12"/>
<polygon fill="midnightblue" stroke="midnightblue" points="2946.52,-229.51 2937.6,-235.23 2948.14,-236.32 2946.52,-229.51"/>
</g>
<!-- Node47&#45;&gt;Node35 -->
<g id="edge99" class="edge">
<title>Node47&#45;&gt;Node35</title>
<path fill="none" stroke="midnightblue" d="M2877.04,-235.96C2816.6,-225.68 2693.77,-204.77 2627.78,-193.54"/>
<polygon fill="midnightblue" stroke="midnightblue" points="2876.78,-239.47 2887.23,-237.7 2877.96,-232.57 2876.78,-239.47"/>
</g>
<!-- Node47&#45;&gt;Node37 -->
<g id="edge100" class="edge">
<title>Node47&#45;&gt;Node37</title>
<path fill="none" stroke="midnightblue" d="M2877.43,-238.16C2786.91,-228.26 2545.44,-201.85 2445.15,-190.88"/>
<polygon fill="midnightblue" stroke="midnightblue" points="2877.14,-241.65 2887.46,-239.26 2877.9,-234.69 2877.14,-241.65"/>
</g>
<!-- Node47&#45;&gt;Node38 -->
<g id="edge106" class="edge">
<title>Node47&#45;&gt;Node38</title>
<path fill="none" stroke="midnightblue" d="M2877.34,-239.25C2752.65,-229.48 2333.3,-196.64 2223.82,-188.06"/>
<polygon fill="midnightblue" stroke="midnightblue" points="2877.23,-242.75 2887.47,-240.04 2877.78,-235.77 2877.23,-242.75"/>
</g>
<!-- Node47&#45;&gt;Node40 -->
<g id="edge88" class="edge">
<title>Node47&#45;&gt;Node40</title>
<path fill="none" stroke="midnightblue" d="M2877.26,-241.2C2631.51,-235.58 1182.2,-202.23 1137.5,-196 1134.45,-195.58 1131.3,-195 1128.17,-194.34"/>
<polygon fill="midnightblue" stroke="midnightblue" points="2877.34,-244.7 2887.42,-241.43 2877.5,-237.7 2877.34,-244.7"/>
</g>
<!-- Node47&#45;&gt;Node42 -->
<g id="edge101" class="edge">
<title>Node47&#45;&gt;Node42</title>
<path fill="none" stroke="midnightblue" d="M2877.21,-241.02C2720.48,-236.62 2071.78,-217.96 1539.5,-196 1481.4,-193.6 1414.02,-190.17 1373.09,-188.02"/>
<polygon fill="midnightblue" stroke="midnightblue" points="2877.13,-244.52 2887.22,-241.3 2877.32,-237.52 2877.13,-244.52"/>
</g>
<!-- Node47&#45;&gt;Node45 -->
<g id="edge107" class="edge">
<title>Node47&#45;&gt;Node45</title>
<path fill="none" stroke="midnightblue" d="M2947.65,-232.9C2948.95,-232.59 2950.24,-232.29 2951.5,-232 3029.3,-214.08 3067.3,-248.44 3127.5,-196 3144.87,-180.87 3149.67,-152.36 3150.99,-137.52"/>
<polygon fill="midnightblue" stroke="midnightblue" points="2946.51,-229.58 2937.63,-235.36 2948.18,-236.38 2946.51,-229.58"/>
</g>
<!-- Node47&#45;&gt;Node46 -->
<g id="edge110" class="edge">
<title>Node47&#45;&gt;Node46</title>
<path fill="none" stroke="midnightblue" d="M2947.62,-232.73C2948.92,-232.47 2950.22,-232.23 2951.5,-232 3110.71,-203.84 3159.22,-244.37 3313.5,-196 3356.31,-182.58 3400.96,-153.04 3422.43,-137.69"/>
<polygon fill="midnightblue" stroke="midnightblue" points="2946.55,-229.39 2937.55,-234.98 2948.08,-236.22 2946.55,-229.39"/>
</g>
<!-- Node48 -->
<g id="node43" class="node">
<title>Node48</title>
<g id="a_node43"><a xlink:href="eqtb__save_8c.html" target="_top" xlink:title=" ">
<polygon fill="white" stroke="black" points="2966,-174.5 2966,-195.5 3047,-195.5 3047,-174.5 2966,-174.5"/>
<text text-anchor="middle" x="3006.5" y="-181.9" font-family="DejaVuSans" font-size="12.00">eqtb_save.c</text>
</a>
</g>
</g>
<!-- Node47&#45;&gt;Node48 -->
<g id="edge92" class="edge">
<title>Node47&#45;&gt;Node48</title>
<path fill="none" stroke="midnightblue" d="M2937.6,-227.05C2954.33,-217.08 2975.82,-204.28 2990.31,-195.64"/>
<polygon fill="midnightblue" stroke="midnightblue" points="2935.67,-224.12 2928.87,-232.25 2939.26,-230.13 2935.67,-224.12"/>
</g>
<!-- Node49 -->
<g id="node44" class="node">
<title>Node49</title>
<g id="a_node44"><a xlink:href="pack_8c.html" target="_top" xlink:title=" ">
<polygon fill="white" stroke="black" points="3378,-174.5 3378,-195.5 3429,-195.5 3429,-174.5 3378,-174.5"/>
<text text-anchor="middle" x="3403.5" y="-181.9" font-family="DejaVuSans" font-size="12.00">pack.c</text>
</a>
</g>
</g>
<!-- Node47&#45;&gt;Node49 -->
<g id="edge108" class="edge">
<title>Node47&#45;&gt;Node49</title>
<path fill="none" stroke="midnightblue" d="M2947.61,-232.71C2948.92,-232.46 2950.22,-232.22 2951.5,-232 3132.69,-201.07 3182.22,-226.38 3363.5,-196 3368.16,-195.22 3373.07,-194.18 3377.8,-193.06"/>
<polygon fill="midnightblue" stroke="midnightblue" points="2946.56,-229.36 2937.55,-234.93 2948.06,-236.2 2946.56,-229.36"/>
</g>
<!-- Node50 -->
<g id="node45" class="node">
<title>Node50</title>
<g id="a_node45"><a xlink:href="texmath_8c.html" target="_top" xlink:title=" ">
<polygon fill="white" stroke="black" points="4065.5,-174.5 4065.5,-195.5 4133.5,-195.5 4133.5,-174.5 4065.5,-174.5"/>
<text text-anchor="middle" x="4099.5" y="-181.9" font-family="DejaVuSans" font-size="12.00">texmath.c</text>
</a>
</g>
</g>
<!-- Node47&#45;&gt;Node50 -->
<g id="edge115" class="edge">
<title>Node47&#45;&gt;Node50</title>
<path fill="none" stroke="midnightblue" d="M2947.9,-240.92C3128.15,-235.37 3939.86,-209.79 4051.5,-196 4055.98,-195.45 4060.66,-194.69 4065.27,-193.85"/>
<polygon fill="midnightblue" stroke="midnightblue" points="2947.54,-237.43 2937.65,-241.23 2947.75,-244.42 2947.54,-237.43"/>
</g>
<!-- Node51&#45;&gt;Node5 -->
<g id="edge133" class="edge">
<title>Node51&#45;&gt;Node5</title>
<path fill="none" stroke="midnightblue" d="M1171.94,-343.16C1118.73,-310.54 1005.39,-230.95 1060.5,-174 1102.71,-130.38 2092.17,-144.65 2152.5,-138 2160.32,-137.14 2168.71,-135.77 2176.46,-134.31"/>
<polygon fill="midnightblue" stroke="midnightblue" points="1170.16,-346.17 1180.53,-348.34 1173.77,-340.18 1170.16,-346.17"/>
</g>
<!-- Node51&#45;&gt;Node7 -->
<g id="edge187" class="edge">
<title>Node51&#45;&gt;Node7</title>
<path fill="none" stroke="midnightblue" d="M1227.34,-357.9C1438.07,-357.11 2704.73,-350.79 3087.5,-312 3278.46,-292.65 3410.37,-363.84 3503.5,-196 3508.24,-187.45 3509.41,-181.79 3503.5,-174 3495.65,-163.67 3421.84,-146.05 3375.64,-135.88"/>
<polygon fill="midnightblue" stroke="midnightblue" points="1227.04,-354.4 1217.05,-357.94 1227.07,-361.4 1227.04,-354.4"/>
</g>
<!-- Node51&#45;&gt;Node13 -->
<g id="edge189" class="edge">
<title>Node51&#45;&gt;Node13</title>
<path fill="none" stroke="midnightblue" d="M1227.58,-357.78C1558.22,-355.3 4503.5,-330.73 4503.5,-244 4503.5,-244 4503.5,-244 4503.5,-184 4503.5,-36.86 4325.21,-136.46 4179.5,-116 3949.83,-83.74 3670.13,-73.47 3576.1,-70.81"/>
<polygon fill="midnightblue" stroke="midnightblue" points="1227.31,-354.28 1217.33,-357.86 1227.36,-361.28 1227.31,-354.28"/>
</g>
<!-- Node51&#45;&gt;Node14 -->
<g id="edge207" class="edge">
<title>Node51&#45;&gt;Node14</title>
<path fill="none" stroke="midnightblue" d="M1167.51,-357.87C1025.93,-356.77 424.65,-346.62 266.5,-254 209.81,-220.8 167.99,-163.39 213.5,-116 252.18,-75.73 1107.26,-70.71 1310.46,-70.09"/>
<polygon fill="midnightblue" stroke="midnightblue" points="1167.6,-361.37 1177.63,-357.94 1167.65,-354.37 1167.6,-361.37"/>
</g>
<!-- Node51&#45;&gt;Node21 -->
<g id="edge182" class="edge">
<title>Node51&#45;&gt;Node21</title>
<path fill="none" stroke="midnightblue" d="M1167.59,-356.03C1125.59,-352.26 1047.65,-341.58 988.5,-312 958.72,-297.11 930.94,-268.49 917.66,-253.58"/>
<polygon fill="midnightblue" stroke="midnightblue" points="1167.45,-359.53 1177.71,-356.86 1168.03,-352.55 1167.45,-359.53"/>
</g>
<!-- Node51&#45;&gt;Node23 -->
<g id="edge132" class="edge">
<title>Node51&#45;&gt;Node23</title>
<path fill="none" stroke="midnightblue" d="M1167.37,-356.5C1002.29,-347.74 219.2,-299.33 340.5,-174 383.02,-130.06 1380.03,-147.04 1440.5,-138 1443.4,-137.57 1446.39,-136.99 1449.36,-136.33"/>
<polygon fill="midnightblue" stroke="midnightblue" points="1167.59,-360.01 1177.76,-357.04 1167.95,-353.02 1167.59,-360.01"/>
</g>
<!-- Node51&#45;&gt;Node24 -->
<g id="edge165" class="edge">
<title>Node51&#45;&gt;Node24</title>
<path fill="none" stroke="midnightblue" d="M1203.9,-338.69C1216.09,-301.92 1242.22,-223.05 1251.31,-195.63"/>
<polygon fill="midnightblue" stroke="midnightblue" points="1200.55,-337.67 1200.73,-348.26 1207.2,-339.87 1200.55,-337.67"/>
</g>
<!-- Node51&#45;&gt;Node27 -->
<g id="edge206" class="edge">
<title>Node51&#45;&gt;Node27</title>
<path fill="none" stroke="midnightblue" d="M1167.84,-356.64C1120.63,-353.56 1026.31,-343.63 953.5,-312 889.55,-284.22 831.83,-220.13 811.37,-195.7"/>
<polygon fill="midnightblue" stroke="midnightblue" points="1167.79,-360.14 1177.98,-357.24 1168.2,-353.15 1167.79,-360.14"/>
</g>
<!-- Node51&#45;&gt;Node34 -->
<g id="edge183" class="edge">
<title>Node51&#45;&gt;Node34</title>
<path fill="none" stroke="midnightblue" d="M1227.34,-357.1C1429.1,-350.9 2596.17,-312.91 2946.5,-254 3033.23,-239.42 3133.11,-210.53 3182.14,-195.54"/>
<polygon fill="midnightblue" stroke="midnightblue" points="1227.08,-353.61 1217.2,-357.41 1227.3,-360.6 1227.08,-353.61"/>
</g>
<!-- Node51&#45;&gt;Node39 -->
<g id="edge184" class="edge">
<title>Node51&#45;&gt;Node39</title>
<path fill="none" stroke="midnightblue" d="M1167.61,-355.21C1115.24,-349.88 1003.78,-336.52 912.5,-312 852.44,-295.86 784.6,-266.75 752.79,-252.43"/>
<polygon fill="midnightblue" stroke="midnightblue" points="1167.56,-358.72 1177.86,-356.23 1168.25,-351.76 1167.56,-358.72"/>
</g>
<!-- Node51&#45;&gt;Node42 -->
<g id="edge185" class="edge">
<title>Node51&#45;&gt;Node42</title>
<path fill="none" stroke="midnightblue" d="M1211.87,-340.09C1240.86,-303.95 1305.49,-223.41 1327.77,-195.63"/>
<polygon fill="midnightblue" stroke="midnightblue" points="1208.84,-338.27 1205.31,-348.26 1214.3,-342.65 1208.84,-338.27"/>
</g>
<!-- Node51&#45;&gt;Node43 -->
<g id="edge186" class="edge">
<title>Node51&#45;&gt;Node43</title>
<path fill="none" stroke="midnightblue" d="M1167.67,-355.52C1106.46,-350.13 962.44,-335.86 843.5,-312 677.95,-278.78 484.29,-218.76 411.83,-195.53"/>
<polygon fill="midnightblue" stroke="midnightblue" points="1167.51,-359.02 1177.77,-356.4 1168.11,-352.05 1167.51,-359.02"/>
</g>
<!-- Node51&#45;&gt;Node47 -->
<g id="edge188" class="edge">
<title>Node51&#45;&gt;Node47</title>
<path fill="none" stroke="midnightblue" d="M1227.39,-356.75C1339.77,-351.97 1747.71,-334.05 2083.5,-312 2408.27,-290.67 2489.35,-283.25 2813.5,-254 2838.62,-251.73 2867.29,-248.8 2887.29,-246.7"/>
<polygon fill="midnightblue" stroke="midnightblue" points="1227,-353.26 1217.16,-357.18 1227.29,-360.25 1227,-353.26"/>
</g>
<!-- Node52 -->
<g id="node47" class="node">
<title>Node52</title>
<g id="a_node47"><a xlink:href="box_8h.html" target="_top" xlink:title=" ">
<polygon fill="white" stroke="red" points="1320.5,-290.5 1320.5,-311.5 1366.5,-311.5 1366.5,-290.5 1320.5,-290.5"/>
<text text-anchor="middle" x="1343.5" y="-297.9" font-family="DejaVuSans" font-size="12.00">box.h</text>
</a>
</g>
</g>
<!-- Node51&#45;&gt;Node52 -->
<g id="edge117" class="edge">
<title>Node51&#45;&gt;Node52</title>
<path fill="none" stroke="midnightblue" d="M1226.68,-346.81C1254.19,-336.25 1294.9,-320.64 1320.28,-310.91"/>
<polygon fill="midnightblue" stroke="midnightblue" points="1225.27,-343.6 1217.19,-350.45 1227.78,-350.13 1225.27,-343.6"/>
</g>
<!-- Node56 -->
<g id="node48" class="node">
<title>Node56</title>
<g id="a_node48"><a xlink:href="error_8h.html" target="_top" xlink:title=" ">
<polygon fill="white" stroke="red" points="2375,-232.5 2375,-253.5 2426,-253.5 2426,-232.5 2375,-232.5"/>
<text text-anchor="middle" x="2400.5" y="-239.9" font-family="DejaVuSans" font-size="12.00">error.h</text>
</a>
</g>
</g>
<!-- Node51&#45;&gt;Node56 -->
<g id="edge134" class="edge">
<title>Node51&#45;&gt;Node56</title>
<path fill="none" stroke="midnightblue" d="M1227.35,-357.41C1332.29,-355.11 1693.99,-345.09 1990.5,-312 2136.78,-295.67 2310.28,-262.19 2374.73,-249.26"/>
<polygon fill="midnightblue" stroke="midnightblue" points="1227.11,-353.92 1217.18,-357.63 1227.26,-360.92 1227.11,-353.92"/>
</g>
<!-- Node57 -->
<g id="node49" class="node">
<title>Node57</title>
<g id="a_node49"><a xlink:href="fonts_8h.html" target="_top" xlink:title=" ">
<polygon fill="white" stroke="black" points="1929.5,-290.5 1929.5,-311.5 1981.5,-311.5 1981.5,-290.5 1929.5,-290.5"/>
<text text-anchor="middle" x="1955.5" y="-297.9" font-family="DejaVuSans" font-size="12.00">fonts.h</text>
</a>
</g>
</g>
<!-- Node51&#45;&gt;Node57 -->
<g id="edge166" class="edge">
<title>Node51&#45;&gt;Node57</title>
<path fill="none" stroke="midnightblue" d="M1227.57,-355.78C1350.58,-346.69 1814.32,-312.43 1929.49,-303.92"/>
<polygon fill="midnightblue" stroke="midnightblue" points="1227.1,-352.3 1217.39,-356.53 1227.62,-359.28 1227.1,-352.3"/>
</g>
<!-- Node58 -->
<g id="node50" class="node">
<title>Node58</title>
<g id="a_node50"><a xlink:href="scan_8h.html" target="_top" xlink:title=" ">
<polygon fill="white" stroke="black" points="3282.5,-232.5 3282.5,-253.5 3334.5,-253.5 3334.5,-232.5 3282.5,-232.5"/>
<text text-anchor="middle" x="3308.5" y="-239.9" font-family="DejaVuSans" font-size="12.00">scan.h</text>
</a>
</g>
</g>
<!-- Node51&#45;&gt;Node58 -->
<g id="edge190" class="edge">
<title>Node51&#45;&gt;Node58</title>
<path fill="none" stroke="midnightblue" d="M1227.22,-358.08C1433.18,-358.51 2650.59,-359 3017.5,-312 3116.82,-299.28 3231.78,-267.09 3282.35,-252.02"/>
<polygon fill="midnightblue" stroke="midnightblue" points="1227.16,-354.58 1217.15,-358.06 1227.14,-361.58 1227.16,-354.58"/>
</g>
<!-- Node52&#45;&gt;Node13 -->
<g id="edge129" class="edge">
<title>Node52&#45;&gt;Node13</title>
<path fill="none" stroke="midnightblue" d="M1376.63,-299.53C1535.87,-297.11 2223.52,-285.04 2435.5,-254 2578.42,-233.07 2609.06,-203.29 2750.5,-174 2909.2,-141.13 2949.86,-137.46 3110.5,-116 3259.61,-96.08 3438.55,-79.33 3510.84,-72.86"/>
<polygon fill="midnightblue" stroke="midnightblue" points="1376.45,-296.03 1366.5,-299.68 1376.56,-303.03 1376.45,-296.03"/>
</g>
<!-- Node52&#45;&gt;Node14 -->
<g id="edge131" class="edge">
<title>Node52&#45;&gt;Node14</title>
<path fill="none" stroke="midnightblue" d="M1310.14,-299.81C1162.38,-298.76 566.14,-292.2 383.5,-254 312.73,-239.2 272.51,-255.55 231.5,-196 211.33,-166.72 206.88,-141.65 231.5,-116 269.51,-76.4 1109.28,-70.87 1310.47,-70.12"/>
<polygon fill="midnightblue" stroke="midnightblue" points="1310.35,-303.31 1320.38,-299.88 1310.4,-296.31 1310.35,-303.31"/>
</g>
<!-- Node52&#45;&gt;Node17 -->
<g id="edge130" class="edge">
<title>Node52&#45;&gt;Node17</title>
<path fill="none" stroke="midnightblue" d="M1376.74,-299.37C1626.26,-294.65 3202.02,-264.57 3413.5,-254 3434.23,-252.96 4144.4,-211.24 4158.5,-196 4177.15,-175.84 4142.28,-151.05 4118.99,-137.67"/>
<polygon fill="midnightblue" stroke="midnightblue" points="1376.43,-295.88 1366.5,-299.57 1376.56,-302.88 1376.43,-295.88"/>
</g>
<!-- Node52&#45;&gt;Node18 -->
<g id="edge121" class="edge">
<title>Node52&#45;&gt;Node18</title>
<path fill="none" stroke="midnightblue" d="M1376.8,-299.26C1579.48,-294.68 2640.84,-270.04 2707.5,-254 2758.05,-241.84 2812.12,-211.16 2837.59,-195.51"/>
<polygon fill="midnightblue" stroke="midnightblue" points="1376.67,-295.76 1366.76,-299.48 1376.83,-302.76 1376.67,-295.76"/>
</g>
<!-- Node52&#45;&gt;Node20 -->
<g id="edge123" class="edge">
<title>Node52&#45;&gt;Node20</title>
<path fill="none" stroke="midnightblue" d="M1310.83,-289.36C1289.62,-281.53 1262.01,-269.55 1240.5,-254 1217.19,-237.16 1196.01,-210.38 1185.49,-195.97"/>
<polygon fill="midnightblue" stroke="midnightblue" points="1309.79,-292.7 1320.38,-292.76 1312.14,-286.11 1309.79,-292.7"/>
</g>
<!-- Node52&#45;&gt;Node22 -->
<g id="edge119" class="edge">
<title>Node52&#45;&gt;Node22</title>
<path fill="none" stroke="midnightblue" d="M1310.03,-300.4C1236.17,-300.48 1062.92,-296.08 1026.5,-254 1003.23,-227.11 1002.3,-200.05 1026.5,-174 1063.5,-134.17 1460.59,-145.05 1514.5,-138 1517.19,-137.65 1519.96,-137.25 1522.74,-136.81"/>
<polygon fill="midnightblue" stroke="midnightblue" points="1310.19,-303.9 1320.17,-300.35 1310.16,-296.9 1310.19,-303.9"/>
</g>
<!-- Node52&#45;&gt;Node24 -->
<g id="edge124" class="edge">
<title>Node52&#45;&gt;Node24</title>
<path fill="none" stroke="midnightblue" d="M1329.62,-282.22C1310.58,-257.83 1277.03,-214.86 1262.07,-195.69"/>
<polygon fill="midnightblue" stroke="midnightblue" points="1327,-284.55 1335.91,-290.28 1332.52,-280.24 1327,-284.55"/>
</g>
<!-- Node52&#45;&gt;Node26 -->
<g id="edge126" class="edge">
<title>Node52&#45;&gt;Node26</title>
<path fill="none" stroke="midnightblue" d="M1310.22,-299.78C1186.07,-298.65 754.66,-292.02 707.5,-254 689.87,-239.79 687.25,-210.88 687.17,-195.74"/>
<polygon fill="midnightblue" stroke="midnightblue" points="1310.25,-303.28 1320.28,-299.86 1310.31,-296.28 1310.25,-303.28"/>
</g>
<!-- Node52&#45;&gt;Node28 -->
<g id="edge125" class="edge">
<title>Node52&#45;&gt;Node28</title>
<path fill="none" stroke="midnightblue" d="M1376.84,-297.22C1491.25,-287.67 1867.2,-256.29 1981.34,-246.77"/>
<polygon fill="midnightblue" stroke="midnightblue" points="1376.27,-293.75 1366.6,-298.07 1376.85,-300.73 1376.27,-293.75"/>
</g>
<!-- Node52&#45;&gt;Node31 -->
<g id="edge118" class="edge">
<title>Node52&#45;&gt;Node31</title>
<path fill="none" stroke="midnightblue" d="M1310.5,-297.03C1220.54,-287.8 982.81,-255.21 1060.5,-174 1077.88,-155.83 1853.59,-134.37 2051.78,-129.17"/>
<polygon fill="midnightblue" stroke="midnightblue" points="1310.16,-300.51 1320.46,-298.02 1310.85,-293.55 1310.16,-300.51"/>
</g>
<!-- Node52&#45;&gt;Node38 -->
<g id="edge127" class="edge">
<title>Node52&#45;&gt;Node38</title>
<path fill="none" stroke="midnightblue" d="M1377.04,-299.54C1499.99,-297.57 1925.63,-288.38 2056.5,-254 2105.39,-241.16 2157.67,-211.08 2182.6,-195.59"/>
<polygon fill="midnightblue" stroke="midnightblue" points="1376.7,-296.04 1366.75,-299.69 1376.81,-303.04 1376.7,-296.04"/>
</g>
<!-- Node52&#45;&gt;Node40 -->
<g id="edge120" class="edge">
<title>Node52&#45;&gt;Node40</title>
<path fill="none" stroke="midnightblue" d="M1310.25,-290.5C1283.1,-282.26 1244.04,-269.26 1211.5,-254 1173.98,-236.4 1133.03,-209.7 1112.25,-195.56"/>
<polygon fill="midnightblue" stroke="midnightblue" points="1309.45,-293.92 1320.04,-293.43 1311.46,-287.21 1309.45,-293.92"/>
</g>
<!-- Node52&#45;&gt;Node44 -->
<g id="edge128" class="edge">
<title>Node52&#45;&gt;Node44</title>
<path fill="none" stroke="midnightblue" d="M1376.79,-299.43C1629.8,-295.09 3241.93,-266.97 3343.5,-254 3438.85,-241.82 3548.66,-211.3 3601.25,-195.62"/>
<polygon fill="midnightblue" stroke="midnightblue" points="1376.68,-295.93 1366.74,-299.6 1376.8,-302.93 1376.68,-295.93"/>
</g>
<!-- Node52&#45;&gt;Node48 -->
<g id="edge122" class="edge">
<title>Node52&#45;&gt;Node48</title>
<path fill="none" stroke="midnightblue" d="M1376.8,-299.36C1576.35,-295.48 2609.88,-274.49 2749.5,-254 2834.66,-241.5 2932.14,-211.13 2978.79,-195.55"/>
<polygon fill="midnightblue" stroke="midnightblue" points="1376.57,-295.87 1366.64,-299.56 1376.71,-302.86 1376.57,-295.87"/>
</g>
<!-- Node56&#45;&gt;Node4 -->
<g id="edge135" class="edge">
<title>Node56&#45;&gt;Node4</title>
<path fill="none" stroke="midnightblue" d="M2436.51,-241.17C2660.33,-235.99 3852.33,-207.83 3866.5,-196 3901.71,-166.61 3897.84,-103.49 3894.9,-79.51"/>
<polygon fill="midnightblue" stroke="midnightblue" points="2436.21,-237.68 2426.3,-241.41 2436.38,-244.68 2436.21,-237.68"/>
</g>
<!-- Node56&#45;&gt;Node5 -->
<g id="edge138" class="edge">
<title>Node56&#45;&gt;Node5</title>
<path fill="none" stroke="midnightblue" d="M2375.47,-227.37C2334.94,-203.67 2256.01,-157.53 2221.88,-137.58"/>
<polygon fill="midnightblue" stroke="midnightblue" points="2373.81,-230.45 2384.21,-232.48 2377.34,-224.41 2373.81,-230.45"/>
</g>
<!-- Node56&#45;&gt;Node6 -->
<g id="edge143" class="edge">
<title>Node56&#45;&gt;Node6</title>
<path fill="none" stroke="midnightblue" d="M2425.5,-226.65C2436.14,-218.81 2447.65,-208.31 2454.5,-196 2476.11,-157.14 2475.5,-101.63 2474.24,-79.57"/>
<polygon fill="midnightblue" stroke="midnightblue" points="2423.49,-223.79 2417.26,-232.36 2427.47,-229.54 2423.49,-223.79"/>
</g>
<!-- Node56&#45;&gt;Node7 -->
<g id="edge154" class="edge">
<title>Node56&#45;&gt;Node7</title>
<path fill="none" stroke="midnightblue" d="M2436.27,-235.86C2482.65,-227.72 2565.97,-212.43 2636.5,-196 2672.83,-187.54 2680.73,-180.3 2717.5,-174 2746.37,-169.06 3171.53,-139.51 3301.22,-130.56"/>
<polygon fill="midnightblue" stroke="midnightblue" points="2435.37,-232.47 2426.12,-237.64 2436.58,-239.36 2435.37,-232.47"/>
</g>
<!-- Node56&#45;&gt;Node12 -->
<g id="edge158" class="edge">
<title>Node56&#45;&gt;Node12</title>
<path fill="none" stroke="midnightblue" d="M2436.18,-241.3C2659.33,-236.84 3854.72,-212.27 3888.5,-196 3941.76,-170.35 3978.59,-104.39 3990.94,-79.61"/>
<polygon fill="midnightblue" stroke="midnightblue" points="2435.93,-237.8 2426.01,-241.5 2436.07,-244.8 2435.93,-237.8"/>
</g>
<!-- Node56&#45;&gt;Node13 -->
<g id="edge161" class="edge">
<title>Node56&#45;&gt;Node13</title>
<path fill="none" stroke="midnightblue" d="M2424.18,-227.08C2470.84,-198.66 2578.88,-137.68 2679.5,-116 2842.68,-80.84 3373.73,-72.06 3510.92,-70.35"/>
<polygon fill="midnightblue" stroke="midnightblue" points="2422.11,-224.24 2415.43,-232.47 2425.78,-230.2 2422.11,-224.24"/>
</g>
<!-- Node56&#45;&gt;Node14 -->
<g id="edge164" class="edge">
<title>Node56&#45;&gt;Node14</title>
<path fill="none" stroke="midnightblue" d="M2364.72,-241.28C2229.22,-238.34 1752.15,-225.93 1691.5,-196 1649.13,-175.09 1662.71,-139.1 1621.5,-116 1583.72,-94.82 1462.4,-80.37 1396.72,-73.88"/>
<polygon fill="midnightblue" stroke="midnightblue" points="2364.89,-244.78 2374.97,-241.5 2365.04,-237.79 2364.89,-244.78"/>
</g>
<!-- Node56&#45;&gt;Node16 -->
<g id="edge155" class="edge">
<title>Node56&#45;&gt;Node16</title>
<path fill="none" stroke="midnightblue" d="M2436.44,-241.27C2640.9,-237.03 3649.11,-215.18 3674.5,-196 3692.72,-182.24 3696.11,-153.13 3696.58,-137.85"/>
<polygon fill="midnightblue" stroke="midnightblue" points="2436.18,-237.77 2426.25,-241.48 2436.32,-244.77 2436.18,-237.77"/>
</g>
<!-- Node56&#45;&gt;Node17 -->
<g id="edge162" class="edge">
<title>Node56&#45;&gt;Node17</title>
<path fill="none" stroke="midnightblue" d="M2436.28,-241.3C2660.22,-236.86 3861.8,-212.34 3937.5,-196 3993.55,-183.9 4054.69,-153.2 4083.57,-137.52"/>
<polygon fill="midnightblue" stroke="midnightblue" points="2436.01,-237.8 2426.08,-241.5 2436.14,-244.8 2436.01,-237.8"/>
</g>
<!-- Node56&#45;&gt;Node18 -->
<g id="edge139" class="edge">
<title>Node56&#45;&gt;Node18</title>
<path fill="none" stroke="midnightblue" d="M2436.18,-240.2C2508.77,-236.07 2678.63,-224.04 2818.5,-196 2821.52,-195.4 2824.65,-194.65 2827.74,-193.83"/>
<polygon fill="midnightblue" stroke="midnightblue" points="2435.98,-236.71 2426.19,-240.75 2436.36,-243.7 2435.98,-236.71"/>
</g>
<!-- Node56&#45;&gt;Node19 -->
<g id="edge141" class="edge">
<title>Node56&#45;&gt;Node19</title>
<path fill="none" stroke="midnightblue" d="M2436.4,-238.63C2499.36,-232.4 2633.63,-217.72 2745.5,-196 2750.03,-195.12 2754.81,-194.03 2759.42,-192.9"/>
<polygon fill="midnightblue" stroke="midnightblue" points="2435.82,-235.17 2426.2,-239.62 2436.5,-242.14 2435.82,-235.17"/>
</g>
<!-- Node56&#45;&gt;Node20 -->
<g id="edge142" class="edge">
<title>Node56&#45;&gt;Node20</title>
<path fill="none" stroke="midnightblue" d="M2364.7,-241.02C2179.7,-235.9 1336.13,-211.86 1220.5,-196 1217.53,-195.59 1214.46,-195.07 1211.4,-194.47"/>
<polygon fill="midnightblue" stroke="midnightblue" points="2364.87,-244.53 2374.96,-241.3 2365.06,-237.53 2364.87,-244.53"/>
</g>
<!-- Node56&#45;&gt;Node23 -->
<g id="edge137" class="edge">
<title>Node56&#45;&gt;Node23</title>
<path fill="none" stroke="midnightblue" d="M2364.19,-241.11C2214.88,-237.32 1652.63,-221.44 1577.5,-196 1540.51,-183.48 1504.48,-153.25 1487.55,-137.66"/>
<polygon fill="midnightblue" stroke="midnightblue" points="2364.52,-244.62 2374.61,-241.38 2364.7,-237.63 2364.52,-244.62"/>
</g>
<!-- Node56&#45;&gt;Node24 -->
<g id="edge144" class="edge">
<title>Node56&#45;&gt;Node24</title>
<path fill="none" stroke="midnightblue" d="M2364.81,-241.03C2186.61,-236.09 1397.59,-213.43 1289.5,-196 1286.51,-195.52 1283.4,-194.86 1280.34,-194.12"/>
<polygon fill="midnightblue" stroke="midnightblue" points="2364.86,-244.53 2374.95,-241.31 2365.05,-237.53 2364.86,-244.53"/>
</g>
<!-- Node56&#45;&gt;Node25 -->
<g id="edge145" class="edge">
<title>Node56&#45;&gt;Node25</title>
<path fill="none" stroke="midnightblue" d="M2436.16,-240.87C2516.96,-237.82 2719.91,-227.41 2886.5,-196 2889.36,-195.46 2892.32,-194.79 2895.25,-194.06"/>
<polygon fill="midnightblue" stroke="midnightblue" points="2435.89,-237.38 2426.03,-241.24 2436.15,-244.37 2435.89,-237.38"/>
</g>
<!-- Node56&#45;&gt;Node26 -->
<g id="edge152" class="edge">
<title>Node56&#45;&gt;Node26</title>
<path fill="none" stroke="midnightblue" d="M2364.46,-240.93C2301.84,-239.07 2168.85,-235.15 2056.5,-232 1759.84,-223.69 1014.65,-242.26 721.5,-196 718.83,-195.58 716.07,-195.01 713.33,-194.35"/>
<polygon fill="midnightblue" stroke="midnightblue" points="2364.51,-244.43 2374.61,-241.23 2364.72,-237.43 2364.51,-244.43"/>
</g>
<!-- Node56&#45;&gt;Node27 -->
<g id="edge163" class="edge">
<title>Node56&#45;&gt;Node27</title>
<path fill="none" stroke="midnightblue" d="M2364.58,-240.83C2209.09,-235.74 1578.44,-214.97 1060.5,-196 971.48,-192.74 865.13,-188.49 822.52,-186.77"/>
<polygon fill="midnightblue" stroke="midnightblue" points="2364.84,-244.34 2374.95,-241.17 2365.07,-237.34 2364.84,-244.34"/>
</g>
<!-- Node56&#45;&gt;Node31 -->
<g id="edge136" class="edge">
<title>Node56&#45;&gt;Node31</title>
<path fill="none" stroke="midnightblue" d="M2365.16,-228.9C2341.38,-219.95 2309.4,-207.65 2281.5,-196 2259.47,-186.8 2254.71,-182.75 2232.5,-174 2197.14,-160.07 2155.64,-146.31 2128.09,-137.52"/>
<polygon fill="midnightblue" stroke="midnightblue" points="2364.22,-232.29 2374.81,-232.52 2366.67,-225.73 2364.22,-232.29"/>
</g>
<!-- Node56&#45;&gt;Node32 -->
<g id="edge153" class="edge">
<title>Node56&#45;&gt;Node32</title>
<path fill="none" stroke="midnightblue" d="M2377.59,-225.99C2367.33,-217.93 2355.72,-207.44 2347.5,-196 2334.23,-177.55 2325.88,-151.88 2322.02,-137.95"/>
<polygon fill="midnightblue" stroke="midnightblue" points="2375.69,-228.94 2385.78,-232.16 2379.9,-223.35 2375.69,-228.94"/>
</g>
<!-- Node56&#45;&gt;Node33 -->
<g id="edge160" class="edge">
<title>Node56&#45;&gt;Node33</title>
<path fill="none" stroke="midnightblue" d="M2364.23,-241.03C2209.95,-236.76 1612.42,-218.88 1531.5,-196 1487.28,-183.5 1441.33,-153.27 1419.51,-137.67"/>
<polygon fill="midnightblue" stroke="midnightblue" points="2364.47,-244.53 2374.56,-241.31 2364.66,-237.54 2364.47,-244.53"/>
</g>
<!-- Node56&#45;&gt;Node34 -->
<g id="edge146" class="edge">
<title>Node56&#45;&gt;Node34</title>
<path fill="none" stroke="midnightblue" d="M2436.36,-239.53C2571.57,-230.2 3049.42,-197.25 3179.56,-188.27"/>
<polygon fill="midnightblue" stroke="midnightblue" points="2435.88,-236.05 2426.14,-240.23 2436.36,-243.04 2435.88,-236.05"/>
</g>
<!-- Node56&#45;&gt;Node35 -->
<g id="edge147" class="edge">
<title>Node56&#45;&gt;Node35</title>
<path fill="none" stroke="midnightblue" d="M2436.24,-231.06C2469.99,-220.73 2520.11,-205.4 2552.29,-195.55"/>
<polygon fill="midnightblue" stroke="midnightblue" points="2434.87,-227.82 2426.33,-234.1 2436.92,-234.52 2434.87,-227.82"/>
</g>
<!-- Node56&#45;&gt;Node36 -->
<g id="edge148" class="edge">
<title>Node56&#45;&gt;Node36</title>
<path fill="none" stroke="midnightblue" d="M2364.9,-235.24C2311.97,-225.19 2212.44,-206.3 2153.24,-195.06"/>
<polygon fill="midnightblue" stroke="midnightblue" points="2364.36,-238.7 2374.84,-237.13 2365.66,-231.82 2364.36,-238.7"/>
</g>
<!-- Node56&#45;&gt;Node37 -->
<g id="edge149" class="edge">
<title>Node56&#45;&gt;Node37</title>
<path fill="none" stroke="midnightblue" d="M2400.5,-222.16C2400.5,-213.16 2400.5,-202.92 2400.5,-195.64"/>
<polygon fill="midnightblue" stroke="midnightblue" points="2397,-222.25 2400.5,-232.25 2404,-222.25 2397,-222.25"/>
</g>
<!-- Node56&#45;&gt;Node38 -->
<g id="edge156" class="edge">
<title>Node56&#45;&gt;Node38</title>
<path fill="none" stroke="midnightblue" d="M2365.09,-232.23C2324.72,-221.1 2259.68,-203.15 2223.64,-193.21"/>
<polygon fill="midnightblue" stroke="midnightblue" points="2364.22,-235.62 2374.79,-234.91 2366.08,-228.87 2364.22,-235.62"/>
</g>
<!-- Node56&#45;&gt;Node41 -->
<g id="edge150" class="edge">
<title>Node56&#45;&gt;Node41</title>
<path fill="none" stroke="midnightblue" d="M2364.46,-240.94C2301.84,-239.1 2168.85,-235.21 2056.5,-232 1771.84,-223.86 1055.08,-250.17 775.5,-196 772.46,-195.41 769.3,-194.52 766.27,-193.51"/>
<polygon fill="midnightblue" stroke="midnightblue" points="2364.51,-244.44 2374.61,-241.24 2364.72,-237.45 2364.51,-244.44"/>
</g>
<!-- Node56&#45;&gt;Node42 -->
<g id="edge151" class="edge">
<title>Node56&#45;&gt;Node42</title>
<path fill="none" stroke="midnightblue" d="M2364.48,-241.13C2236.46,-237.85 1791.55,-224.94 1425.5,-196 1408.26,-194.64 1389.22,-192.6 1373.11,-190.72"/>
<polygon fill="midnightblue" stroke="midnightblue" points="2364.77,-244.63 2374.85,-241.39 2364.94,-237.64 2364.77,-244.63"/>
</g>
<!-- Node56&#45;&gt;Node46 -->
<g id="edge159" class="edge">
<title>Node56&#45;&gt;Node46</title>
<path fill="none" stroke="midnightblue" d="M2436.02,-238.61C2491.15,-232.85 2600.35,-219.44 2690.5,-196 2717.99,-188.85 2722.69,-179.76 2750.5,-174 3026.87,-116.8 3104.48,-173.24 3384.5,-138 3387.54,-137.62 3390.68,-137.16 3393.83,-136.65"/>
<polygon fill="midnightblue" stroke="midnightblue" points="2435.65,-235.13 2426.05,-239.63 2436.36,-242.1 2435.65,-235.13"/>
</g>
<!-- Node56&#45;&gt;Node48 -->
<g id="edge140" class="edge">
<title>Node56&#45;&gt;Node48</title>
<path fill="none" stroke="midnightblue" d="M2436.15,-240.47C2524.6,-236.37 2761.11,-223.53 2956.5,-196 2959.57,-195.57 2962.73,-195.07 2965.91,-194.52"/>
<polygon fill="midnightblue" stroke="midnightblue" points="2435.94,-236.98 2426.11,-240.93 2436.26,-243.97 2435.94,-236.98"/>
</g>
<!-- Node56&#45;&gt;Node49 -->
<g id="edge157" class="edge">
<title>Node56&#45;&gt;Node49</title>
<path fill="none" stroke="midnightblue" d="M2436.2,-240.25C2553.42,-234.45 2937.24,-215.19 3254.5,-196 3297.85,-193.38 3348.26,-189.91 3377.93,-187.82"/>
<polygon fill="midnightblue" stroke="midnightblue" points="2435.82,-236.76 2426.01,-240.75 2436.17,-243.75 2435.82,-236.76"/>
</g>
<!-- Node57&#45;&gt;Node3 -->
<g id="edge169" class="edge">
<title>Node57&#45;&gt;Node3</title>
<path fill="none" stroke="midnightblue" d="M1991.78,-299.88C2240.11,-298.99 3681.9,-292.18 3765.5,-254 3792.53,-241.65 3813.01,-211.35 3822.19,-195.7"/>
<polygon fill="midnightblue" stroke="midnightblue" points="1991.49,-296.39 1981.5,-299.92 1991.51,-303.39 1991.49,-296.39"/>
</g>
<!-- Node57&#45;&gt;Node5 -->
<g id="edge168" class="edge">
<title>Node57&#45;&gt;Node5</title>
<path fill="none" stroke="midnightblue" d="M1945.33,-281.3C1932.2,-254.29 1913.88,-204.32 1939.5,-174 1970.49,-137.34 2105.25,-146.45 2152.5,-138 2160.24,-136.62 2168.61,-135.06 2176.36,-133.6"/>
<polygon fill="midnightblue" stroke="midnightblue" points="1942.34,-283.12 1950.01,-290.43 1948.57,-279.93 1942.34,-283.12"/>
</g>
<!-- Node57&#45;&gt;Node7 -->
<g id="edge174" class="edge">
<title>Node57&#45;&gt;Node7</title>
<path fill="none" stroke="midnightblue" d="M1991.98,-299.55C2197.64,-296.92 3207.99,-282.6 3343.5,-254 3411.01,-239.75 3448.89,-253.18 3487.5,-196 3492.97,-187.9 3493.31,-181.87 3487.5,-174 3480.69,-164.77 3417.58,-147.6 3375.71,-137.04"/>
<polygon fill="midnightblue" stroke="midnightblue" points="1991.67,-296.05 1981.72,-299.68 1991.76,-303.05 1991.67,-296.05"/>
</g>
<!-- Node57&#45;&gt;Node13 -->
<g id="edge179" class="edge">
<title>Node57&#45;&gt;Node13</title>
<path fill="none" stroke="midnightblue" d="M1991.57,-300.22C2226.22,-301.46 3538.66,-305.95 3935.5,-254 4044.31,-239.76 4107.63,-282.23 4175.5,-196 4190.94,-176.38 4175.51,-129.76 4158.5,-116 4135.66,-97.52 3699.86,-76.91 3576.05,-71.41"/>
<polygon fill="midnightblue" stroke="midnightblue" points="1991.54,-296.72 1981.52,-300.16 1991.5,-303.71 1991.54,-296.72"/>
</g>
<!-- Node57&#45;&gt;Node14 -->
<g id="edge181" class="edge">
<title>Node57&#45;&gt;Node14</title>
<path fill="none" stroke="midnightblue" d="M1919.04,-299.25C1739.9,-295.46 951.76,-277.72 707.5,-254 543.14,-238.04 447.77,-321.55 340.5,-196 241.68,-80.34 -174.75,-231.23 568.5,-116 848.77,-72.55 1191.13,-69.33 1310.22,-69.66"/>
<polygon fill="midnightblue" stroke="midnightblue" points="1919.18,-302.75 1929.25,-299.46 1919.33,-295.75 1919.18,-302.75"/>
</g>
<!-- Node57&#45;&gt;Node16 -->
<g id="edge175" class="edge">
<title>Node57&#45;&gt;Node16</title>
<path fill="none" stroke="midnightblue" d="M1991.71,-299.99C2219.83,-299.79 3453.7,-296.76 3615.5,-254 3668.55,-239.98 3696.24,-243.04 3724.5,-196 3736.2,-176.52 3718.09,-151.25 3705.97,-137.67"/>
<polygon fill="midnightblue" stroke="midnightblue" points="1991.61,-296.49 1981.62,-300 1991.62,-303.49 1991.61,-296.49"/>
</g>
<!-- Node57&#45;&gt;Node17 -->
<g id="edge180" class="edge">
<title>Node57&#45;&gt;Node17</title>
<path fill="none" stroke="midnightblue" d="M1992.07,-299.8C2277.36,-298.06 4137.34,-283.4 4213.5,-196 4241.78,-163.55 4167.58,-142.09 4126.17,-132.98"/>
<polygon fill="midnightblue" stroke="midnightblue" points="1991.83,-296.3 1981.86,-299.86 1991.88,-303.3 1991.83,-296.3"/>
</g>
<!-- Node57&#45;&gt;Node20 -->
<g id="edge170" class="edge">
<title>Node57&#45;&gt;Node20</title>
<path fill="none" stroke="midnightblue" d="M1918.96,-297.9C1839.66,-293.01 1645.99,-279.33 1485.5,-254 1384.66,-238.09 1267.33,-209.14 1211.41,-194.69"/>
<polygon fill="midnightblue" stroke="midnightblue" points="1919.18,-301.42 1929.38,-298.53 1919.61,-294.43 1919.18,-301.42"/>
</g>
<!-- Node57&#45;&gt;Node21 -->
<g id="edge172" class="edge">
<title>Node57&#45;&gt;Node21</title>
<path fill="none" stroke="midnightblue" d="M1919.3,-298.06C1754.8,-289.25 1079.62,-253.11 936.31,-245.44"/>
<polygon fill="midnightblue" stroke="midnightblue" points="1919.21,-301.56 1929.38,-298.6 1919.58,-294.57 1919.21,-301.56"/>
</g>
<!-- Node57&#45;&gt;Node24 -->
<g id="edge171" class="edge">
<title>Node57&#45;&gt;Node24</title>
<path fill="none" stroke="midnightblue" d="M1919.31,-295.94C1818.69,-284.32 1527.38,-248.35 1289.5,-196 1286.41,-195.32 1283.2,-194.53 1280.02,-193.69"/>
<polygon fill="midnightblue" stroke="midnightblue" points="1918.93,-299.42 1929.26,-297.08 1919.73,-292.47 1918.93,-299.42"/>
</g>
<!-- Node57&#45;&gt;Node28 -->
<g id="edge173" class="edge">
<title>Node57&#45;&gt;Node28</title>
<path fill="none" stroke="midnightblue" d="M1973.03,-283.36C1983.24,-273.67 1995.75,-261.8 2004.34,-253.64"/>
<polygon fill="midnightblue" stroke="midnightblue" points="1970.62,-280.82 1965.78,-290.25 1975.44,-285.9 1970.62,-280.82"/>
</g>
<!-- Node57&#45;&gt;Node40 -->
<g id="edge167" class="edge">
<title>Node57&#45;&gt;Node40</title>
<path fill="none" stroke="midnightblue" d="M1919.17,-299.23C1826.9,-296.82 1576.28,-287.47 1370.5,-254 1281.14,-239.47 1178.04,-210.16 1128.34,-195.21"/>
<polygon fill="midnightblue" stroke="midnightblue" points="1919.28,-302.73 1929.37,-299.48 1919.46,-295.74 1919.28,-302.73"/>
</g>
<!-- Node57&#45;&gt;Node44 -->
<g id="edge177" class="edge">
<title>Node57&#45;&gt;Node44</title>
<path fill="none" stroke="midnightblue" d="M1991.62,-299.96C2225.68,-299.59 3520.08,-295.67 3591.5,-254 3613.65,-241.08 3625.26,-211.04 3629.95,-195.57"/>
<polygon fill="midnightblue" stroke="midnightblue" points="1991.59,-296.46 1981.59,-299.98 1991.6,-303.46 1991.59,-296.46"/>
</g>
<!-- Node57&#45;&gt;Node45 -->
<g id="edge176" class="edge">
<title>Node57&#45;&gt;Node45</title>
<path fill="none" stroke="midnightblue" d="M1957.82,-280.15C1960.09,-266.06 1964.42,-247.06 1972.5,-232 1989.02,-201.23 1993.84,-188.74 2025.5,-174 2126.83,-126.84 2944.35,-127.22 3118.82,-127.85"/>
<polygon fill="midnightblue" stroke="midnightblue" points="1954.33,-279.84 1956.42,-290.22 1961.27,-280.8 1954.33,-279.84"/>
</g>
<!-- Node57&#45;&gt;Node49 -->
<g id="edge178" class="edge">
<title>Node57&#45;&gt;Node49</title>
<path fill="none" stroke="midnightblue" d="M1991.76,-299.57C2121.48,-297.77 2574.58,-289.18 2946.5,-254 3127.53,-236.88 3172.17,-226.07 3351.5,-196 3360.11,-194.56 3369.49,-192.81 3377.89,-191.18"/>
<polygon fill="midnightblue" stroke="midnightblue" points="1991.55,-296.07 1981.59,-299.71 1991.64,-303.07 1991.55,-296.07"/>
</g>
<!-- Node58&#45;&gt;Node4 -->
<g id="edge191" class="edge">
<title>Node58&#45;&gt;Node4</title>
<path fill="none" stroke="midnightblue" d="M3345.3,-241.33C3500.44,-238.31 4096.84,-224.93 4175.5,-196 4215.38,-181.33 4232.66,-176.08 4251.5,-138 4290.46,-59.25 4282.87,-136.99 3939.5,-80 3932.89,-78.9 3925.79,-77.48 3919.2,-76.06"/>
<polygon fill="midnightblue" stroke="midnightblue" points="3344.83,-237.83 3334.9,-241.53 3344.97,-244.83 3344.83,-237.83"/>
</g>
<!-- Node58&#45;&gt;Node5 -->
<g id="edge192" class="edge">
<title>Node58&#45;&gt;Node5</title>
<path fill="none" stroke="midnightblue" d="M3344.74,-236.24C3393.42,-227.1 3470.36,-206.86 3438.5,-174 3393.43,-127.51 2338,-143.72 2273.5,-138 2260.66,-136.86 2246.55,-134.9 2234.53,-133.02"/>
<polygon fill="midnightblue" stroke="midnightblue" points="3344.05,-232.81 3334.83,-238.02 3345.29,-239.7 3344.05,-232.81"/>
</g>
<!-- Node58&#45;&gt;Node7 -->
<g id="edge199" class="edge">
<title>Node58&#45;&gt;Node7</title>
<path fill="none" stroke="midnightblue" d="M3344.83,-236.88C3388.04,-229.97 3456.25,-216.14 3471.5,-196 3477.4,-188.2 3477.17,-181.96 3471.5,-174 3460.16,-158.08 3411.04,-144.09 3375.8,-135.84"/>
<polygon fill="midnightblue" stroke="midnightblue" points="3344.04,-233.46 3334.7,-238.45 3345.11,-240.38 3344.04,-233.46"/>
</g>
<!-- Node58&#45;&gt;Node12 -->
<g id="edge202" class="edge">
<title>Node58&#45;&gt;Node12</title>
<path fill="none" stroke="midnightblue" d="M3344.6,-241.87C3529.8,-241.03 4366.04,-235.07 4403.5,-196 4428.11,-170.34 4427.19,-142.51 4403.5,-116 4379.84,-89.52 4145.85,-76.4 4043.27,-71.88"/>
<polygon fill="midnightblue" stroke="midnightblue" points="3344.55,-238.37 3334.56,-241.91 3344.58,-245.37 3344.55,-238.37"/>
</g>
<!-- Node58&#45;&gt;Node13 -->
<g id="edge203" class="edge">
<title>Node58&#45;&gt;Node13</title>
<path fill="none" stroke="midnightblue" d="M3345.03,-241.41C3504.15,-238.66 4130.12,-225.96 4158.5,-196 4178.3,-175.1 4157.38,-132.14 4135.5,-116 4090.33,-82.69 3693.69,-72.77 3576.17,-70.54"/>
<polygon fill="midnightblue" stroke="midnightblue" points="3344.75,-237.91 3334.81,-241.58 3344.87,-244.91 3344.75,-237.91"/>
</g>
<!-- Node58&#45;&gt;Node14 -->
<g id="edge205" class="edge">
<title>Node58&#45;&gt;Node14</title>
<path fill="none" stroke="midnightblue" d="M3272.31,-240.99C3036.59,-234.44 1729.08,-198.01 1724.5,-196 1679.03,-176.04 1690.62,-138.79 1646.5,-116 1603.73,-93.9 1467.1,-79.54 1396.56,-73.41"/>
<polygon fill="midnightblue" stroke="midnightblue" points="3272.32,-244.5 3282.41,-241.28 3272.51,-237.5 3272.32,-244.5"/>
</g>
<!-- Node58&#45;&gt;Node17 -->
<g id="edge204" class="edge">
<title>Node58&#45;&gt;Node17</title>
<path fill="none" stroke="midnightblue" d="M3345.02,-240.66C3504.02,-234.77 4128.58,-210.7 4142.5,-196 4159.67,-177.86 4131.93,-151.61 4113.95,-137.62"/>
<polygon fill="midnightblue" stroke="midnightblue" points="3344.68,-237.18 3334.81,-241.04 3344.93,-244.17 3344.68,-237.18"/>
</g>
<!-- Node58&#45;&gt;Node20 -->
<g id="edge193" class="edge">
<title>Node58&#45;&gt;Node20</title>
<path fill="none" stroke="midnightblue" d="M3271.97,-240.91C3206.67,-238.98 3065.58,-234.89 2946.5,-232 2562.97,-222.7 1601.03,-244.7 1220.5,-196 1217.53,-195.62 1214.46,-195.11 1211.39,-194.53"/>
<polygon fill="midnightblue" stroke="midnightblue" points="3272.06,-244.41 3282.16,-241.21 3272.27,-237.42 3272.06,-244.41"/>
</g>
<!-- Node58&#45;&gt;Node24 -->
<g id="edge194" class="edge">
<title>Node58&#45;&gt;Node24</title>
<path fill="none" stroke="midnightblue" d="M3271.97,-240.92C3206.67,-239 3065.58,-234.94 2946.5,-232 2578.3,-222.91 1653.67,-251.04 1289.5,-196 1286.5,-195.55 1283.4,-194.91 1280.33,-194.18"/>
<polygon fill="midnightblue" stroke="midnightblue" points="3272.06,-244.42 3282.16,-241.22 3272.26,-237.43 3272.06,-244.42"/>
</g>
<!-- Node58&#45;&gt;Node25 -->
<g id="edge195" class="edge">
<title>Node58&#45;&gt;Node25</title>
<path fill="none" stroke="midnightblue" d="M3272.33,-238.95C3208.37,-233.19 3071.31,-219.15 2957.5,-196 2954.32,-195.35 2951.01,-194.58 2947.74,-193.75"/>
<polygon fill="midnightblue" stroke="midnightblue" points="3272.04,-242.44 3282.31,-239.84 3272.66,-235.47 3272.04,-242.44"/>
</g>
<!-- Node58&#45;&gt;Node34 -->
<g id="edge196" class="edge">
<title>Node58&#45;&gt;Node34</title>
<path fill="none" stroke="midnightblue" d="M3282.87,-227.05C3265.78,-217.08 3243.84,-204.28 3229.03,-195.64"/>
<polygon fill="midnightblue" stroke="midnightblue" points="3281.38,-230.23 3291.78,-232.25 3284.9,-224.18 3281.38,-230.23"/>
</g>
<!-- Node58&#45;&gt;Node35 -->
<g id="edge197" class="edge">
<title>Node58&#45;&gt;Node35</title>
<path fill="none" stroke="midnightblue" d="M3272.02,-239.18C3150.57,-229.8 2760.14,-199.64 2627.83,-189.42"/>
<polygon fill="midnightblue" stroke="midnightblue" points="3272.03,-242.69 3282.27,-239.97 3272.57,-235.71 3272.03,-242.69"/>
</g>
<!-- Node58&#45;&gt;Node42 -->
<g id="edge198" class="edge">
<title>Node58&#45;&gt;Node42</title>
<path fill="none" stroke="midnightblue" d="M3272.35,-240.97C3028.15,-234.04 1621.7,-194.12 1373.06,-187.07"/>
<polygon fill="midnightblue" stroke="midnightblue" points="3272.37,-244.48 3282.47,-241.26 3272.57,-237.48 3272.37,-244.48"/>
</g>
<!-- Node58&#45;&gt;Node44 -->
<g id="edge200" class="edge">
<title>Node58&#45;&gt;Node44</title>
<path fill="none" stroke="midnightblue" d="M3344.68,-235.75C3408.05,-224.79 3538.18,-202.3 3599.35,-191.73"/>
<polygon fill="midnightblue" stroke="midnightblue" points="3344,-232.31 3334.74,-237.46 3345.19,-239.21 3344,-232.31"/>
</g>
<!-- Node58&#45;&gt;Node49 -->
<g id="edge201" class="edge">
<title>Node58&#45;&gt;Node49</title>
<path fill="none" stroke="midnightblue" d="M3333.87,-227.05C3350.77,-217.08 3372.49,-204.28 3387.14,-195.64"/>
<polygon fill="midnightblue" stroke="midnightblue" points="3331.89,-224.15 3325.05,-232.25 3335.44,-230.18 3331.89,-224.15"/>
</g>
</g>
</svg>
