<?xml version="1.0" encoding="UTF-8" standalone="no"?>
<!DOCTYPE svg PUBLIC "-//W3C//DTD SVG 1.1//EN"
 "http://www.w3.org/Graphics/SVG/1.1/DTD/svg11.dtd">
<!-- Generated by graphviz version 2.47.3 (20210711.2253)
 -->
<!-- Title: debug.c Pages: 1 -->
<svg width="1138pt" height="378pt"
 viewBox="0.00 0.00 1137.50 378.00" xmlns="http://www.w3.org/2000/svg" xmlns:xlink="http://www.w3.org/1999/xlink">
<g id="graph0" class="graph" transform="scale(1 1) rotate(0) translate(4 374)">
<title>debug.c</title>
<polygon fill="white" stroke="transparent" points="-4,4 -4,-374 1133.5,-374 1133.5,4 -4,4"/>
<!-- Node1 -->
<g id="node1" class="node">
<title>Node1</title>
<g id="a_node1"><a xlink:title=" ">
<polygon fill="#bfbfbf" stroke="black" points="580,-348.5 580,-369.5 639,-369.5 639,-348.5 580,-348.5"/>
<text text-anchor="middle" x="609.5" y="-355.9" font-family="DejaVuSans" font-size="12.00">debug.c</text>
</a>
</g>
</g>
<!-- Node2 -->
<g id="node2" class="node">
<title>Node2</title>
<g id="a_node2"><a xlink:title=" ">
<polygon fill="white" stroke="#bfbfbf" points="0,-290.5 0,-311.5 53,-311.5 53,-290.5 0,-290.5"/>
<text text-anchor="middle" x="26.5" y="-297.9" font-family="DejaVuSans" font-size="12.00">math.h</text>
</a>
</g>
</g>
<!-- Node1&#45;&gt;Node2 -->
<g id="edge1" class="edge">
<title>Node1&#45;&gt;Node2</title>
<path fill="none" stroke="midnightblue" d="M579.93,-357.1C498,-354.24 261.36,-343.67 67.5,-312 66.05,-311.76 64.58,-311.5 63.1,-311.22"/>
<polygon fill="midnightblue" stroke="midnightblue" points="63.79,-307.79 53.28,-309.16 62.35,-314.64 63.79,-307.79"/>
</g>
<!-- Node3 -->
<g id="node3" class="node">
<title>Node3</title>
<g id="a_node3"><a xlink:href="global_8h.html" target="_top" xlink:title=" ">
<polygon fill="white" stroke="black" points="518.5,-116.5 518.5,-137.5 576.5,-137.5 576.5,-116.5 518.5,-116.5"/>
<text text-anchor="middle" x="547.5" y="-123.9" font-family="DejaVuSans" font-size="12.00">global.h</text>
</a>
</g>
</g>
<!-- Node1&#45;&gt;Node3 -->
<g id="edge2" class="edge">
<title>Node1&#45;&gt;Node3</title>
<path fill="none" stroke="midnightblue" d="M579.99,-356.82C483.27,-352.21 179.31,-331.65 131.5,-254 114.03,-225.63 156.23,-178.29 162.5,-174 218.06,-136.04 421.62,-129.31 508.16,-128.19"/>
<polygon fill="midnightblue" stroke="midnightblue" points="508.39,-131.69 518.35,-128.08 508.32,-124.69 508.39,-131.69"/>
</g>
<!-- Node11 -->
<g id="node11" class="node">
<title>Node11</title>
<g id="a_node11"><a xlink:href="tex__constant_8h.html" target="_top" xlink:title=" ">
<polygon fill="white" stroke="black" points="670.5,-174.5 670.5,-195.5 764.5,-195.5 764.5,-174.5 670.5,-174.5"/>
<text text-anchor="middle" x="717.5" y="-181.9" font-family="DejaVuSans" font-size="12.00">tex_constant.h</text>
</a>
</g>
</g>
<!-- Node1&#45;&gt;Node11 -->
<g id="edge10" class="edge">
<title>Node1&#45;&gt;Node11</title>
<path fill="none" stroke="midnightblue" d="M639.38,-357.9C697.5,-356.81 829.03,-349.95 931.5,-312 976.48,-295.34 999.44,-296.05 1022.5,-254 1027.2,-245.43 1028.88,-239.41 1022.5,-232 991.2,-195.63 854.27,-187.64 774.92,-186.12"/>
<polygon fill="midnightblue" stroke="midnightblue" points="774.66,-182.61 764.6,-185.95 774.54,-189.61 774.66,-182.61"/>
</g>
<!-- Node12 -->
<g id="node12" class="node">
<title>Node12</title>
<g id="a_node12"><a xlink:href="texmath_8h.html" target="_top" xlink:title=" ">
<polygon fill="white" stroke="black" points="873.5,-232.5 873.5,-253.5 941.5,-253.5 941.5,-232.5 873.5,-232.5"/>
<text text-anchor="middle" x="907.5" y="-239.9" font-family="DejaVuSans" font-size="12.00">texmath.h</text>
</a>
</g>
</g>
<!-- Node1&#45;&gt;Node12 -->
<g id="edge12" class="edge">
<title>Node1&#45;&gt;Node12</title>
<path fill="none" stroke="midnightblue" d="M639.33,-356.38C701.19,-352.49 840.75,-340.68 877.5,-312 892.56,-300.25 900.24,-279.34 904.03,-263.8"/>
<polygon fill="midnightblue" stroke="midnightblue" points="907.53,-264.15 906.16,-253.64 900.68,-262.72 907.53,-264.15"/>
</g>
<!-- Node13 -->
<g id="node13" class="node">
<title>Node13</title>
<g id="a_node13"><a xlink:href="io_8h.html" target="_top" xlink:title=" ">
<polygon fill="white" stroke="black" points="399.5,-290.5 399.5,-311.5 435.5,-311.5 435.5,-290.5 399.5,-290.5"/>
<text text-anchor="middle" x="417.5" y="-297.9" font-family="DejaVuSans" font-size="12.00">io.h</text>
</a>
</g>
</g>
<!-- Node1&#45;&gt;Node13 -->
<g id="edge14" class="edge">
<title>Node1&#45;&gt;Node13</title>
<path fill="none" stroke="midnightblue" d="M579.92,-349.37C543.25,-338.68 481.23,-320.59 445.37,-310.13"/>
<polygon fill="midnightblue" stroke="midnightblue" points="446.14,-306.71 435.56,-307.27 444.18,-313.43 446.14,-306.71"/>
</g>
<!-- Node17 -->
<g id="node17" class="node">
<title>Node17</title>
<g id="a_node17"><a xlink:href="mem_8h.html" target="_top" xlink:title=" ">
<polygon fill="white" stroke="black" points="960,-232.5 960,-253.5 1013,-253.5 1013,-232.5 960,-232.5"/>
<text text-anchor="middle" x="986.5" y="-239.9" font-family="DejaVuSans" font-size="12.00">mem.h</text>
</a>
</g>
</g>
<!-- Node1&#45;&gt;Node17 -->
<g id="edge25" class="edge">
<title>Node1&#45;&gt;Node17</title>
<path fill="none" stroke="midnightblue" d="M639.25,-358.12C693.35,-357.3 810.45,-350.74 899.5,-312 927.3,-299.91 953.95,-276.81 970.26,-260.92"/>
<polygon fill="midnightblue" stroke="midnightblue" points="972.81,-263.32 977.4,-253.77 967.86,-258.37 972.81,-263.32"/>
</g>
<!-- Node18 -->
<g id="node18" class="node">
<title>Node18</title>
<g id="a_node18"><a xlink:href="eqtb_8h.html" target="_top" xlink:title=" ">
<polygon fill="white" stroke="black" points="767.5,-232.5 767.5,-253.5 817.5,-253.5 817.5,-232.5 767.5,-232.5"/>
<text text-anchor="middle" x="792.5" y="-239.9" font-family="DejaVuSans" font-size="12.00">eqtb.h</text>
</a>
</g>
</g>
<!-- Node1&#45;&gt;Node18 -->
<g id="edge28" class="edge">
<title>Node1&#45;&gt;Node18</title>
<path fill="none" stroke="midnightblue" d="M624.79,-348.48C656.54,-328.69 729.87,-283.01 768.19,-259.15"/>
<polygon fill="midnightblue" stroke="midnightblue" points="770.49,-261.83 777.13,-253.58 766.79,-255.89 770.49,-261.83"/>
</g>
<!-- Node19 -->
<g id="node19" class="node">
<title>Node19</title>
<g id="a_node19"><a xlink:href="print_8h.html" target="_top" xlink:title=" ">
<polygon fill="white" stroke="black" points="477.5,-290.5 477.5,-311.5 527.5,-311.5 527.5,-290.5 477.5,-290.5"/>
<text text-anchor="middle" x="502.5" y="-297.9" font-family="DejaVuSans" font-size="12.00">print.h</text>
</a>
</g>
</g>
<!-- Node1&#45;&gt;Node19 -->
<g id="edge31" class="edge">
<title>Node1&#45;&gt;Node19</title>
<path fill="none" stroke="midnightblue" d="M590.86,-348.25C574.06,-339.45 549.14,-326.41 530.04,-316.41"/>
<polygon fill="midnightblue" stroke="midnightblue" points="531.41,-313.18 520.92,-311.64 528.16,-319.38 531.41,-313.18"/>
</g>
<!-- Node20 -->
<g id="node20" class="node">
<title>Node20</title>
<g id="a_node20"><a xlink:href="printout_8h.html" target="_top" xlink:title=" ">
<polygon fill="white" stroke="black" points="548.5,-174.5 548.5,-195.5 614.5,-195.5 614.5,-174.5 548.5,-174.5"/>
<text text-anchor="middle" x="581.5" y="-181.9" font-family="DejaVuSans" font-size="12.00">printout.h</text>
</a>
</g>
</g>
<!-- Node1&#45;&gt;Node20 -->
<g id="edge38" class="edge">
<title>Node1&#45;&gt;Node20</title>
<path fill="none" stroke="midnightblue" d="M605.01,-348.24C596.97,-330.13 580.38,-289.91 574.5,-254 572.92,-244.35 573.76,-241.75 574.5,-232 575.15,-223.36 576.49,-213.89 577.82,-205.79"/>
<polygon fill="midnightblue" stroke="midnightblue" points="581.29,-206.28 579.57,-195.82 574.39,-205.07 581.29,-206.28"/>
</g>
<!-- Node21 -->
<g id="node21" class="node">
<title>Node21</title>
<g id="a_node21"><a xlink:href="fonts_8h.html" target="_top" xlink:title=" ">
<polygon fill="white" stroke="black" points="255.5,-290.5 255.5,-311.5 307.5,-311.5 307.5,-290.5 255.5,-290.5"/>
<text text-anchor="middle" x="281.5" y="-297.9" font-family="DejaVuSans" font-size="12.00">fonts.h</text>
</a>
</g>
</g>
<!-- Node1&#45;&gt;Node21 -->
<g id="edge40" class="edge">
<title>Node1&#45;&gt;Node21</title>
<path fill="none" stroke="midnightblue" d="M579.81,-352.93C519.61,-342.65 383.35,-319.39 317.91,-308.22"/>
<polygon fill="midnightblue" stroke="midnightblue" points="318.11,-304.7 307.66,-306.47 316.93,-311.6 318.11,-304.7"/>
</g>
<!-- Node23 -->
<g id="node23" class="node">
<title>Node23</title>
<g id="a_node23"><a xlink:href="lexer_8h.html" target="_top" xlink:title=" ">
<polygon fill="white" stroke="black" points="583.5,-232.5 583.5,-253.5 635.5,-253.5 635.5,-232.5 583.5,-232.5"/>
<text text-anchor="middle" x="609.5" y="-239.9" font-family="DejaVuSans" font-size="12.00">lexer.h</text>
</a>
</g>
</g>
<!-- Node1&#45;&gt;Node23 -->
<g id="edge48" class="edge">
<title>Node1&#45;&gt;Node23</title>
<path fill="none" stroke="midnightblue" d="M609.5,-348.28C609.5,-329.6 609.5,-288.37 609.5,-263.72"/>
<polygon fill="midnightblue" stroke="midnightblue" points="613,-263.69 609.5,-253.69 606,-263.7 613,-263.69"/>
</g>
<!-- Node24 -->
<g id="node24" class="node">
<title>Node24</title>
<g id="a_node24"><a xlink:href="box_8h.html" target="_top" xlink:title=" ">
<polygon fill="white" stroke="black" points="822.5,-290.5 822.5,-311.5 868.5,-311.5 868.5,-290.5 822.5,-290.5"/>
<text text-anchor="middle" x="845.5" y="-297.9" font-family="DejaVuSans" font-size="12.00">box.h</text>
</a>
</g>
</g>
<!-- Node1&#45;&gt;Node24 -->
<g id="edge52" class="edge">
<title>Node1&#45;&gt;Node24</title>
<path fill="none" stroke="midnightblue" d="M639.39,-350.91C683.67,-340.4 766.41,-320.77 812.44,-309.84"/>
<polygon fill="midnightblue" stroke="midnightblue" points="813.3,-313.24 822.23,-307.52 811.69,-306.43 813.3,-313.24"/>
</g>
<!-- Node25 -->
<g id="node25" class="node">
<title>Node25</title>
<g id="a_node25"><a xlink:href="debug_8h.html" target="_top" xlink:title=" ">
<polygon fill="white" stroke="black" points="1069.5,-290.5 1069.5,-311.5 1129.5,-311.5 1129.5,-290.5 1069.5,-290.5"/>
<text text-anchor="middle" x="1099.5" y="-297.9" font-family="DejaVuSans" font-size="12.00">debug.h</text>
</a>
</g>
</g>
<!-- Node1&#45;&gt;Node25 -->
<g id="edge57" class="edge">
<title>Node1&#45;&gt;Node25</title>
<path fill="none" stroke="midnightblue" d="M639.15,-356.18C710.96,-351.52 899.77,-337.63 1055.5,-312 1056.76,-311.79 1058.04,-311.57 1059.33,-311.34"/>
<polygon fill="midnightblue" stroke="midnightblue" points="1060.17,-314.74 1069.3,-309.37 1058.81,-307.87 1060.17,-314.74"/>
</g>
<!-- Node4 -->
<g id="node4" class="node">
<title>Node4</title>
<g id="a_node4"><a xlink:href="global__macros_8h.html" target="_top" xlink:title=" ">
<polygon fill="white" stroke="black" points="523.5,-58.5 523.5,-79.5 627.5,-79.5 627.5,-58.5 523.5,-58.5"/>
<text text-anchor="middle" x="575.5" y="-65.9" font-family="DejaVuSans" font-size="12.00">global_macros.h</text>
</a>
</g>
</g>
<!-- Node3&#45;&gt;Node4 -->
<g id="edge3" class="edge">
<title>Node3&#45;&gt;Node4</title>
<path fill="none" stroke="midnightblue" d="M552.38,-116.25C556.15,-108.7 561.49,-98.02 566.09,-88.82"/>
<polygon fill="midnightblue" stroke="midnightblue" points="569.34,-90.15 570.68,-79.64 563.08,-87.02 569.34,-90.15"/>
</g>
<!-- Node6 -->
<g id="node6" class="node">
<title>Node6</title>
<g id="a_node6"><a xlink:href="global__const_8h.html" target="_top" xlink:title=" ">
<polygon fill="white" stroke="black" points="660,-58.5 660,-79.5 753,-79.5 753,-58.5 660,-58.5"/>
<text text-anchor="middle" x="706.5" y="-65.9" font-family="DejaVuSans" font-size="12.00">global_const.h</text>
</a>
</g>
</g>
<!-- Node3&#45;&gt;Node6 -->
<g id="edge5" class="edge">
<title>Node3&#45;&gt;Node6</title>
<path fill="none" stroke="midnightblue" d="M574.83,-116.37C601.04,-107.14 640.8,-93.14 669.77,-82.94"/>
<polygon fill="midnightblue" stroke="midnightblue" points="671.25,-86.12 679.52,-79.5 668.93,-79.52 671.25,-86.12"/>
</g>
<!-- Node7 -->
<g id="node7" class="node">
<title>Node7</title>
<g id="a_node7"><a xlink:href="tex__types_8h.html" target="_top" xlink:title=" ">
<polygon fill="white" stroke="black" points="404,-58.5 404,-79.5 481,-79.5 481,-58.5 404,-58.5"/>
<text text-anchor="middle" x="442.5" y="-65.9" font-family="DejaVuSans" font-size="12.00">tex_types.h</text>
</a>
</g>
</g>
<!-- Node3&#45;&gt;Node7 -->
<g id="edge6" class="edge">
<title>Node3&#45;&gt;Node7</title>
<path fill="none" stroke="midnightblue" d="M529.21,-116.25C512.72,-107.45 488.26,-94.41 469.52,-84.41"/>
<polygon fill="midnightblue" stroke="midnightblue" points="471.05,-81.26 460.58,-79.64 467.76,-87.44 471.05,-81.26"/>
</g>
<!-- Node5 -->
<g id="node5" class="node">
<title>Node5</title>
<g id="a_node5"><a xlink:title=" ">
<polygon fill="white" stroke="#bfbfbf" points="566,-0.5 566,-21.5 625,-21.5 625,-0.5 566,-0.5"/>
<text text-anchor="middle" x="595.5" y="-7.9" font-family="DejaVuSans" font-size="12.00">assert.h</text>
</a>
</g>
</g>
<!-- Node4&#45;&gt;Node5 -->
<g id="edge4" class="edge">
<title>Node4&#45;&gt;Node5</title>
<path fill="none" stroke="midnightblue" d="M578.98,-58.25C581.65,-50.78 585.41,-40.24 588.67,-31.11"/>
<polygon fill="midnightblue" stroke="midnightblue" points="591.99,-32.24 592.06,-21.64 585.4,-29.88 591.99,-32.24"/>
</g>
<!-- Node8 -->
<g id="node8" class="node">
<title>Node8</title>
<g id="a_node8"><a xlink:title=" ">
<polygon fill="white" stroke="#bfbfbf" points="406,-0.5 406,-21.5 471,-21.5 471,-0.5 406,-0.5"/>
<text text-anchor="middle" x="438.5" y="-7.9" font-family="DejaVuSans" font-size="12.00">stdbool.h</text>
</a>
</g>
</g>
<!-- Node7&#45;&gt;Node8 -->
<g id="edge7" class="edge">
<title>Node7&#45;&gt;Node8</title>
<path fill="none" stroke="midnightblue" d="M441.8,-58.25C441.28,-50.94 440.55,-40.69 439.91,-31.7"/>
<polygon fill="midnightblue" stroke="midnightblue" points="443.39,-31.37 439.19,-21.64 436.41,-31.87 443.39,-31.37"/>
</g>
<!-- Node9 -->
<g id="node9" class="node">
<title>Node9</title>
<g id="a_node9"><a xlink:title=" ">
<polygon fill="white" stroke="#bfbfbf" points="333,-0.5 333,-21.5 388,-21.5 388,-0.5 333,-0.5"/>
<text text-anchor="middle" x="360.5" y="-7.9" font-family="DejaVuSans" font-size="12.00">stdint.h</text>
</a>
</g>
</g>
<!-- Node7&#45;&gt;Node9 -->
<g id="edge8" class="edge">
<title>Node7&#45;&gt;Node9</title>
<path fill="none" stroke="midnightblue" d="M428.22,-58.25C415.75,-49.73 397.45,-37.24 383.02,-27.38"/>
<polygon fill="midnightblue" stroke="midnightblue" points="384.85,-24.39 374.62,-21.64 380.9,-30.17 384.85,-24.39"/>
</g>
<!-- Node10 -->
<g id="node10" class="node">
<title>Node10</title>
<g id="a_node10"><a xlink:title=" ">
<polygon fill="white" stroke="#bfbfbf" points="489,-0.5 489,-21.5 548,-21.5 548,-0.5 489,-0.5"/>
<text text-anchor="middle" x="518.5" y="-7.9" font-family="DejaVuSans" font-size="12.00">stddef.h</text>
</a>
</g>
</g>
<!-- Node7&#45;&gt;Node10 -->
<g id="edge9" class="edge">
<title>Node7&#45;&gt;Node10</title>
<path fill="none" stroke="midnightblue" d="M455.74,-58.25C467.18,-49.81 483.93,-37.47 497.25,-27.66"/>
<polygon fill="midnightblue" stroke="midnightblue" points="499.44,-30.39 505.41,-21.64 495.29,-24.76 499.44,-30.39"/>
</g>
<!-- Node11&#45;&gt;Node6 -->
<g id="edge11" class="edge">
<title>Node11&#45;&gt;Node6</title>
<path fill="none" stroke="midnightblue" d="M716.56,-174.28C714.76,-155.6 710.78,-114.37 708.4,-89.72"/>
<polygon fill="midnightblue" stroke="midnightblue" points="711.88,-89.31 707.44,-79.69 704.91,-89.98 711.88,-89.31"/>
</g>
<!-- Node12&#45;&gt;Node3 -->
<g id="edge13" class="edge">
<title>Node12&#45;&gt;Node3</title>
<path fill="none" stroke="midnightblue" d="M903.62,-232.19C897.04,-216.96 882.15,-187.93 859.5,-174 814.54,-146.36 660.38,-134.26 586.97,-129.97"/>
<polygon fill="midnightblue" stroke="midnightblue" points="586.93,-126.47 576.75,-129.4 586.54,-133.45 586.93,-126.47"/>
</g>
<!-- Node13&#45;&gt;Node3 -->
<g id="edge16" class="edge">
<title>Node13&#45;&gt;Node3</title>
<path fill="none" stroke="midnightblue" d="M399.28,-293.98C351,-277.11 226.49,-227.14 271.5,-174 301.37,-138.74 439.25,-130.48 508.13,-128.57"/>
<polygon fill="midnightblue" stroke="midnightblue" points="508.25,-132.07 518.16,-128.32 508.08,-125.07 508.25,-132.07"/>
</g>
<!-- Node13&#45;&gt;Node11 -->
<g id="edge17" class="edge">
<title>Node13&#45;&gt;Node11</title>
<path fill="none" stroke="midnightblue" d="M435.89,-296.29C445.58,-294.36 457.67,-291.99 468.5,-290 561.2,-272.93 599.96,-307.6 677.5,-254 694.34,-242.36 705.16,-221.12 711.24,-205.47"/>
<polygon fill="midnightblue" stroke="midnightblue" points="714.65,-206.31 714.71,-195.71 708.06,-203.96 714.65,-206.31"/>
</g>
<!-- Node14 -->
<g id="node14" class="node">
<title>Node14</title>
<g id="a_node14"><a xlink:title=" ">
<polygon fill="white" stroke="#bfbfbf" points="280.5,-174.5 280.5,-195.5 332.5,-195.5 332.5,-174.5 280.5,-174.5"/>
<text text-anchor="middle" x="306.5" y="-181.9" font-family="DejaVuSans" font-size="12.00">stdio.h</text>
</a>
</g>
</g>
<!-- Node13&#45;&gt;Node14 -->
<g id="edge15" class="edge">
<title>Node13&#45;&gt;Node14</title>
<path fill="none" stroke="midnightblue" d="M399.22,-294.56C379.89,-287.94 349.73,-274.95 331.5,-254 319.66,-240.39 313.24,-220.68 309.88,-205.98"/>
<polygon fill="midnightblue" stroke="midnightblue" points="313.26,-205.03 307.87,-195.9 306.39,-206.4 313.26,-205.03"/>
</g>
<!-- Node15 -->
<g id="node15" class="node">
<title>Node15</title>
<g id="a_node15"><a xlink:href="charset_8h.html" target="_top" xlink:title=" ">
<polygon fill="white" stroke="black" points="427,-174.5 427,-195.5 492,-195.5 492,-174.5 427,-174.5"/>
<text text-anchor="middle" x="459.5" y="-181.9" font-family="DejaVuSans" font-size="12.00">charset.h</text>
</a>
</g>
</g>
<!-- Node13&#45;&gt;Node15 -->
<g id="edge18" class="edge">
<title>Node13&#45;&gt;Node15</title>
<path fill="none" stroke="midnightblue" d="M421.08,-290.28C427.99,-271.52 443.29,-230 452.36,-205.38"/>
<polygon fill="midnightblue" stroke="midnightblue" points="455.76,-206.29 455.93,-195.69 449.19,-203.87 455.76,-206.29"/>
</g>
<!-- Node16 -->
<g id="node16" class="node">
<title>Node16</title>
<g id="a_node16"><a xlink:href="str_8h.html" target="_top" xlink:title=" ">
<polygon fill="white" stroke="black" points="374,-232.5 374,-253.5 413,-253.5 413,-232.5 374,-232.5"/>
<text text-anchor="middle" x="393.5" y="-239.9" font-family="DejaVuSans" font-size="12.00">str.h</text>
</a>
</g>
</g>
<!-- Node13&#45;&gt;Node16 -->
<g id="edge20" class="edge">
<title>Node13&#45;&gt;Node16</title>
<path fill="none" stroke="midnightblue" d="M413.32,-290.25C410.12,-282.78 405.6,-272.24 401.69,-263.11"/>
<polygon fill="midnightblue" stroke="midnightblue" points="404.79,-261.46 397.63,-253.64 398.35,-264.21 404.79,-261.46"/>
</g>
<!-- Node15&#45;&gt;Node3 -->
<g id="edge19" class="edge">
<title>Node15&#45;&gt;Node3</title>
<path fill="none" stroke="midnightblue" d="M474.83,-174.25C488.33,-165.65 508.21,-153 523.77,-143.1"/>
<polygon fill="midnightblue" stroke="midnightblue" points="525.79,-145.96 532.35,-137.64 522.03,-140.06 525.79,-145.96"/>
</g>
<!-- Node16&#45;&gt;Node3 -->
<g id="edge23" class="edge">
<title>Node16&#45;&gt;Node3</title>
<path fill="none" stroke="midnightblue" d="M394.32,-232.28C396.06,-217.69 401.39,-190.12 417.5,-174 441.76,-149.72 479.63,-138.2 508.25,-132.78"/>
<polygon fill="midnightblue" stroke="midnightblue" points="509.07,-136.19 518.34,-131.04 507.89,-129.29 509.07,-136.19"/>
</g>
<!-- Node16&#45;&gt;Node9 -->
<g id="edge22" class="edge">
<title>Node16&#45;&gt;Node9</title>
<path fill="none" stroke="midnightblue" d="M392.12,-232.41C387.17,-197.85 370.15,-79.24 363.34,-31.82"/>
<polygon fill="midnightblue" stroke="midnightblue" points="366.77,-31.03 361.88,-21.63 359.84,-32.03 366.77,-31.03"/>
</g>
<!-- Node16&#45;&gt;Node14 -->
<g id="edge21" class="edge">
<title>Node16&#45;&gt;Node14</title>
<path fill="none" stroke="midnightblue" d="M378.35,-232.25C365,-223.65 345.34,-211 329.96,-201.1"/>
<polygon fill="midnightblue" stroke="midnightblue" points="331.78,-198.11 321.48,-195.64 327.99,-204 331.78,-198.11"/>
</g>
<!-- Node16&#45;&gt;Node15 -->
<g id="edge24" class="edge">
<title>Node16&#45;&gt;Node15</title>
<path fill="none" stroke="midnightblue" d="M405,-232.25C414.74,-223.97 428.93,-211.94 440.38,-202.22"/>
<polygon fill="midnightblue" stroke="midnightblue" points="442.77,-204.78 448.14,-195.64 438.25,-199.44 442.77,-204.78"/>
</g>
<!-- Node17&#45;&gt;Node3 -->
<g id="edge26" class="edge">
<title>Node17&#45;&gt;Node3</title>
<path fill="none" stroke="midnightblue" d="M975.81,-232.43C958.19,-217.24 921.32,-187.94 884.5,-174 781.97,-135.19 650.9,-128.48 586.62,-127.72"/>
<polygon fill="midnightblue" stroke="midnightblue" points="586.55,-124.22 576.52,-127.64 586.49,-131.22 586.55,-124.22"/>
</g>
<!-- Node17&#45;&gt;Node11 -->
<g id="edge27" class="edge">
<title>Node17&#45;&gt;Node11</title>
<path fill="none" stroke="midnightblue" d="M959.82,-234.35C956.69,-233.52 953.53,-232.72 950.5,-232 890.89,-217.86 821.97,-204.63 774.64,-196.03"/>
<polygon fill="midnightblue" stroke="midnightblue" points="775.05,-192.54 764.59,-194.21 773.8,-199.43 775.05,-192.54"/>
</g>
<!-- Node18&#45;&gt;Node3 -->
<g id="edge29" class="edge">
<title>Node18&#45;&gt;Node3</title>
<path fill="none" stroke="midnightblue" d="M792.75,-232.05C792.54,-217.16 789.83,-189.2 773.5,-174 746.87,-149.22 644.2,-136.44 586.84,-131.11"/>
<polygon fill="midnightblue" stroke="midnightblue" points="586.96,-127.61 576.69,-130.2 586.33,-134.58 586.96,-127.61"/>
</g>
<!-- Node18&#45;&gt;Node11 -->
<g id="edge30" class="edge">
<title>Node18&#45;&gt;Node11</title>
<path fill="none" stroke="midnightblue" d="M779.44,-232.25C768.14,-223.81 751.62,-211.47 738.47,-201.66"/>
<polygon fill="midnightblue" stroke="midnightblue" points="740.52,-198.82 730.41,-195.64 736.33,-204.43 740.52,-198.82"/>
</g>
<!-- Node19&#45;&gt;Node3 -->
<g id="edge33" class="edge">
<title>Node19&#45;&gt;Node3</title>
<path fill="none" stroke="midnightblue" d="M505.05,-290.26C512.23,-262.82 532.72,-184.51 542.36,-147.64"/>
<polygon fill="midnightblue" stroke="midnightblue" points="545.83,-148.19 544.98,-137.63 539.06,-146.42 545.83,-148.19"/>
</g>
<!-- Node19&#45;&gt;Node11 -->
<g id="edge35" class="edge">
<title>Node19&#45;&gt;Node11</title>
<path fill="none" stroke="midnightblue" d="M527.82,-298.33C578.96,-294.39 691.73,-282.58 715.5,-254 726.56,-240.7 725.62,-220.36 722.79,-205.39"/>
<polygon fill="midnightblue" stroke="midnightblue" points="726.19,-204.58 720.54,-195.62 719.37,-206.15 726.19,-204.58"/>
</g>
<!-- Node19&#45;&gt;Node14 -->
<g id="edge32" class="edge">
<title>Node19&#45;&gt;Node14</title>
<path fill="none" stroke="midnightblue" d="M477.26,-295.84C448.12,-290.12 399.68,-277.72 364.5,-254 345.11,-240.93 328.45,-219.68 318.02,-204.41"/>
<polygon fill="midnightblue" stroke="midnightblue" points="320.78,-202.24 312.37,-195.8 314.93,-206.08 320.78,-202.24"/>
</g>
<!-- Node19&#45;&gt;Node15 -->
<g id="edge34" class="edge">
<title>Node19&#45;&gt;Node15</title>
<path fill="none" stroke="midnightblue" d="M498.83,-290.28C491.73,-271.43 475.95,-229.62 466.69,-205.05"/>
<polygon fill="midnightblue" stroke="midnightblue" points="469.96,-203.82 463.16,-195.69 463.41,-206.29 469.96,-203.82"/>
</g>
<!-- Node19&#45;&gt;Node16 -->
<g id="edge37" class="edge">
<title>Node19&#45;&gt;Node16</title>
<path fill="none" stroke="midnightblue" d="M483.51,-290.25C466.32,-281.41 440.78,-268.29 421.29,-258.28"/>
<polygon fill="midnightblue" stroke="midnightblue" points="422.76,-255.1 412.27,-253.64 419.56,-261.33 422.76,-255.1"/>
</g>
<!-- Node19&#45;&gt;Node18 -->
<g id="edge36" class="edge">
<title>Node19&#45;&gt;Node18</title>
<path fill="none" stroke="midnightblue" d="M527.55,-296C572.85,-288.65 671.28,-272.05 753.5,-254 754.77,-253.72 756.06,-253.43 757.36,-253.13"/>
<polygon fill="midnightblue" stroke="midnightblue" points="758.49,-256.46 767.39,-250.71 756.84,-249.65 758.49,-256.46"/>
</g>
<!-- Node20&#45;&gt;Node3 -->
<g id="edge39" class="edge">
<title>Node20&#45;&gt;Node3</title>
<path fill="none" stroke="midnightblue" d="M575.58,-174.25C570.9,-166.54 564.23,-155.56 558.57,-146.23"/>
<polygon fill="midnightblue" stroke="midnightblue" points="561.54,-144.37 553.35,-137.64 555.55,-148.01 561.54,-144.37"/>
</g>
<!-- Node21&#45;&gt;Node3 -->
<g id="edge42" class="edge">
<title>Node21&#45;&gt;Node3</title>
<path fill="none" stroke="midnightblue" d="M255.35,-298.38C208.27,-294.25 116.16,-279.97 138.5,-232 155.42,-195.68 170.87,-190.22 207.5,-174 260.63,-150.48 430.21,-136.1 507.92,-130.58"/>
<polygon fill="midnightblue" stroke="midnightblue" points="508.52,-134.05 518.26,-129.86 508.04,-127.06 508.52,-134.05"/>
</g>
<!-- Node21&#45;&gt;Node11 -->
<g id="edge43" class="edge">
<title>Node21&#45;&gt;Node11</title>
<path fill="none" stroke="midnightblue" d="M307.56,-297.63C385.62,-290.4 614.05,-268.26 644.5,-254 668.85,-242.6 690.51,-220.01 703.79,-204.01"/>
<polygon fill="midnightblue" stroke="midnightblue" points="706.76,-205.9 710.27,-195.9 701.3,-201.53 706.76,-205.9"/>
</g>
<!-- Node21&#45;&gt;Node14 -->
<g id="edge41" class="edge">
<title>Node21&#45;&gt;Node14</title>
<path fill="none" stroke="midnightblue" d="M282.9,-290.25C284.89,-276.99 288.79,-252.57 293.5,-232 295.51,-223.23 298.15,-213.63 300.53,-205.48"/>
<polygon fill="midnightblue" stroke="midnightblue" points="303.91,-206.38 303.42,-195.8 297.2,-204.37 303.91,-206.38"/>
</g>
<!-- Node21&#45;&gt;Node16 -->
<g id="edge44" class="edge">
<title>Node21&#45;&gt;Node16</title>
<path fill="none" stroke="midnightblue" d="M300.75,-290.37C318.57,-281.46 345.27,-268.11 365.46,-258.02"/>
<polygon fill="midnightblue" stroke="midnightblue" points="367.12,-261.1 374.5,-253.5 363.99,-254.84 367.12,-261.1"/>
</g>
<!-- Node22 -->
<g id="node22" class="node">
<title>Node22</title>
<g id="a_node22"><a xlink:href="dump_8h.html" target="_top" xlink:title=" ">
<polygon fill="white" stroke="black" points="147.5,-232.5 147.5,-253.5 203.5,-253.5 203.5,-232.5 147.5,-232.5"/>
<text text-anchor="middle" x="175.5" y="-239.9" font-family="DejaVuSans" font-size="12.00">dump.h</text>
</a>
</g>
</g>
<!-- Node21&#45;&gt;Node22 -->
<g id="edge45" class="edge">
<title>Node21&#45;&gt;Node22</title>
<path fill="none" stroke="midnightblue" d="M263.04,-290.25C246.39,-281.45 221.7,-268.41 202.78,-258.41"/>
<polygon fill="midnightblue" stroke="midnightblue" points="204.23,-255.22 193.75,-253.64 200.96,-261.41 204.23,-255.22"/>
</g>
<!-- Node22&#45;&gt;Node3 -->
<g id="edge47" class="edge">
<title>Node22&#45;&gt;Node3</title>
<path fill="none" stroke="midnightblue" d="M181.43,-232.17C191.22,-216.9 212.31,-187.82 238.5,-174 284.62,-149.66 435.8,-135.93 508.18,-130.61"/>
<polygon fill="midnightblue" stroke="midnightblue" points="508.55,-134.09 518.27,-129.88 508.05,-127.11 508.55,-134.09"/>
</g>
<!-- Node22&#45;&gt;Node14 -->
<g id="edge46" class="edge">
<title>Node22&#45;&gt;Node14</title>
<path fill="none" stroke="midnightblue" d="M198.02,-232.37C219.24,-223.3 251.23,-209.63 274.98,-199.48"/>
<polygon fill="midnightblue" stroke="midnightblue" points="276.45,-202.65 284.27,-195.5 273.7,-196.21 276.45,-202.65"/>
</g>
<!-- Node23&#45;&gt;Node3 -->
<g id="edge50" class="edge">
<title>Node23&#45;&gt;Node3</title>
<path fill="none" stroke="midnightblue" d="M615.54,-232.11C623.15,-218.26 634.03,-192.69 623.5,-174 615.3,-159.45 600.44,-148.98 586.02,-141.74"/>
<polygon fill="midnightblue" stroke="midnightblue" points="587.23,-138.44 576.68,-137.44 584.3,-144.8 587.23,-138.44"/>
</g>
<!-- Node23&#45;&gt;Node11 -->
<g id="edge51" class="edge">
<title>Node23&#45;&gt;Node11</title>
<path fill="none" stroke="midnightblue" d="M628.31,-232.25C645.35,-223.41 670.66,-210.29 689.97,-200.28"/>
<polygon fill="midnightblue" stroke="midnightblue" points="691.64,-203.35 698.9,-195.64 688.41,-197.14 691.64,-203.35"/>
</g>
<!-- Node23&#45;&gt;Node14 -->
<g id="edge49" class="edge">
<title>Node23&#45;&gt;Node14</title>
<path fill="none" stroke="midnightblue" d="M583.4,-237.18C529.26,-227.17 404.62,-204.13 342.73,-192.7"/>
<polygon fill="midnightblue" stroke="midnightblue" points="343.11,-189.21 332.64,-190.83 341.84,-196.09 343.11,-189.21"/>
</g>
<!-- Node24&#45;&gt;Node3 -->
<g id="edge53" class="edge">
<title>Node24&#45;&gt;Node3</title>
<path fill="none" stroke="midnightblue" d="M844.83,-290.34C842.59,-266.02 833.01,-202.16 793.5,-174 760.89,-150.76 647.69,-137.14 586.87,-131.33"/>
<polygon fill="midnightblue" stroke="midnightblue" points="587.15,-127.84 576.87,-130.4 586.5,-134.81 587.15,-127.84"/>
</g>
<!-- Node24&#45;&gt;Node12 -->
<g id="edge55" class="edge">
<title>Node24&#45;&gt;Node12</title>
<path fill="none" stroke="midnightblue" d="M856.3,-290.25C865.37,-282.05 878.52,-270.17 889.22,-260.51"/>
<polygon fill="midnightblue" stroke="midnightblue" points="891.75,-262.94 896.82,-253.64 887.06,-257.75 891.75,-262.94"/>
</g>
<!-- Node24&#45;&gt;Node16 -->
<g id="edge56" class="edge">
<title>Node24&#45;&gt;Node16</title>
<path fill="none" stroke="midnightblue" d="M822.46,-297.15C747.06,-287.8 507.65,-258.14 423.28,-247.69"/>
<polygon fill="midnightblue" stroke="midnightblue" points="423.46,-244.19 413.1,-246.43 422.6,-251.13 423.46,-244.19"/>
</g>
<!-- Node24&#45;&gt;Node17 -->
<g id="edge54" class="edge">
<title>Node24&#45;&gt;Node17</title>
<path fill="none" stroke="midnightblue" d="M868.78,-290.75C891.67,-281.66 926.85,-267.69 952.79,-257.39"/>
<polygon fill="midnightblue" stroke="midnightblue" points="954.23,-260.58 962.24,-253.64 951.65,-254.08 954.23,-260.58"/>
</g>
</g>
</svg>
