<?xml version="1.0" encoding="UTF-8" standalone="no"?>
<!DOCTYPE svg PUBLIC "-//W3C//DTD SVG 1.1//EN"
 "http://www.w3.org/Graphics/SVG/1.1/DTD/svg11.dtd">
<!-- Generated by graphviz version 2.44.0 ()
 -->
<!-- Title: dump.c Pages: 1 -->
<svg width="1204pt" height="552pt"
 viewBox="0.00 0.00 1204.00 552.00" xmlns="http://www.w3.org/2000/svg" xmlns:xlink="http://www.w3.org/1999/xlink">
<g id="graph0" class="graph" transform="scale(1 1) rotate(0) translate(4 548)">
<title>dump.c</title>
<polygon fill="white" stroke="transparent" points="-4,4 -4,-548 1200,-548 1200,4 -4,4"/>
<!-- Node1 -->
<g id="node1" class="node">
<title>Node1</title>
<g id="a_node1"><a xlink:title=" ">
<polygon fill="#bfbfbf" stroke="black" points="558,-522.5 558,-543.5 614,-543.5 614,-522.5 558,-522.5"/>
<text text-anchor="middle" x="586" y="-529.9" font-family="DejaVuSans" font-size="12.00">dump.c</text>
</a>
</g>
</g>
<!-- Node2 -->
<g id="node2" class="node">
<title>Node2</title>
<g id="a_node2"><a xlink:href="global__const_8h.html" target="_top" xlink:title=" ">
<polygon fill="white" stroke="black" points="128.5,-116.5 128.5,-137.5 221.5,-137.5 221.5,-116.5 128.5,-116.5"/>
<text text-anchor="middle" x="175" y="-123.9" font-family="DejaVuSans" font-size="12.00">global_const.h</text>
</a>
</g>
</g>
<!-- Node1&#45;&gt;Node2 -->
<g id="edge1" class="edge">
<title>Node1&#45;&gt;Node2</title>
<path fill="none" stroke="midnightblue" d="M557.74,-532.59C440.68,-534.29 0,-533.04 0,-418 0,-418 0,-418 0,-300 0,-220.96 91.93,-166.14 142.53,-141.95"/>
<polygon fill="midnightblue" stroke="midnightblue" points="144.17,-145.05 151.76,-137.66 141.22,-138.7 144.17,-145.05"/>
</g>
<!-- Node5 -->
<g id="node5" class="node">
<title>Node5</title>
<g id="a_node5"><a xlink:href="tex__types_8h.html" target="_top" xlink:title=" ">
<polygon fill="white" stroke="black" points="765.5,-58.5 765.5,-79.5 842.5,-79.5 842.5,-58.5 765.5,-58.5"/>
<text text-anchor="middle" x="804" y="-65.9" font-family="DejaVuSans" font-size="12.00">tex_types.h</text>
</a>
</g>
</g>
<!-- Node1&#45;&gt;Node5 -->
<g id="edge4" class="edge">
<title>Node1&#45;&gt;Node5</title>
<path fill="none" stroke="midnightblue" d="M614.18,-531.05C713.6,-526.94 1042,-506.64 1042,-418 1042,-418 1042,-418 1042,-184 1042,-100.88 922.45,-78.31 852.81,-72.22"/>
<polygon fill="midnightblue" stroke="midnightblue" points="852.75,-68.71 842.5,-71.41 852.2,-75.69 852.75,-68.71"/>
</g>
<!-- Node8 -->
<g id="node8" class="node">
<title>Node8</title>
<g id="a_node8"><a xlink:href="global_8h.html" target="_top" xlink:title=" ">
<polygon fill="white" stroke="black" points="840,-290.5 840,-311.5 898,-311.5 898,-290.5 840,-290.5"/>
<text text-anchor="middle" x="869" y="-297.9" font-family="DejaVuSans" font-size="12.00">global.h</text>
</a>
</g>
</g>
<!-- Node1&#45;&gt;Node8 -->
<g id="edge7" class="edge">
<title>Node1&#45;&gt;Node8</title>
<path fill="none" stroke="midnightblue" d="M603.81,-522.4C644.82,-499.72 747.82,-439.46 818,-370 833.31,-354.84 847.75,-334.85 857.33,-320.48"/>
<polygon fill="midnightblue" stroke="midnightblue" points="860.36,-322.24 862.88,-311.94 854.49,-318.42 860.36,-322.24"/>
</g>
<!-- Node10 -->
<g id="node10" class="node">
<title>Node10</title>
<g id="a_node10"><a xlink:href="str_8h.html" target="_top" xlink:title=" ">
<polygon fill="white" stroke="black" points="396.5,-174.5 396.5,-195.5 435.5,-195.5 435.5,-174.5 396.5,-174.5"/>
<text text-anchor="middle" x="416" y="-181.9" font-family="DejaVuSans" font-size="12.00">str.h</text>
</a>
</g>
</g>
<!-- Node1&#45;&gt;Node10 -->
<g id="edge11" class="edge">
<title>Node1&#45;&gt;Node10</title>
<path fill="none" stroke="midnightblue" d="M557.86,-530.7C461.69,-525.5 152,-502.23 152,-418 152,-418 152,-418 152,-358 152,-326.62 150.29,-313.57 171,-290 228.66,-224.38 334.77,-198.96 386.33,-190.15"/>
<polygon fill="midnightblue" stroke="midnightblue" points="387.15,-193.57 396.46,-188.52 386.03,-186.66 387.15,-193.57"/>
</g>
<!-- Node12 -->
<g id="node12" class="node">
<title>Node12</title>
<g id="a_node12"><a xlink:href="mem_8h.html" target="_top" xlink:title=" ">
<polygon fill="white" stroke="black" points="870.5,-348.5 870.5,-369.5 923.5,-369.5 923.5,-348.5 870.5,-348.5"/>
<text text-anchor="middle" x="897" y="-355.9" font-family="DejaVuSans" font-size="12.00">mem.h</text>
</a>
</g>
</g>
<!-- Node1&#45;&gt;Node12 -->
<g id="edge18" class="edge">
<title>Node1&#45;&gt;Node12</title>
<path fill="none" stroke="midnightblue" d="M614.4,-530.8C676.18,-527.62 820.11,-517.01 856,-486 887.21,-459.04 894.82,-408.04 896.57,-379.89"/>
<polygon fill="midnightblue" stroke="midnightblue" points="900.08,-379.83 897.01,-369.69 893.08,-379.53 900.08,-379.83"/>
</g>
<!-- Node16 -->
<g id="node16" class="node">
<title>Node16</title>
<g id="a_node16"><a xlink:href="eqtb_8h.html" target="_top" xlink:title=" ">
<polygon fill="white" stroke="black" points="622,-348.5 622,-369.5 672,-369.5 672,-348.5 622,-348.5"/>
<text text-anchor="middle" x="647" y="-355.9" font-family="DejaVuSans" font-size="12.00">eqtb.h</text>
</a>
</g>
</g>
<!-- Node1&#45;&gt;Node16 -->
<g id="edge26" class="edge">
<title>Node1&#45;&gt;Node16</title>
<path fill="none" stroke="midnightblue" d="M598.4,-522.47C618.77,-505.9 658.52,-469.57 673,-428 678.95,-410.93 670.14,-391.71 661.2,-378.07"/>
<polygon fill="midnightblue" stroke="midnightblue" points="663.83,-375.73 655.17,-369.62 658.13,-379.79 663.83,-375.73"/>
</g>
<!-- Node17 -->
<g id="node17" class="node">
<title>Node17</title>
<g id="a_node17"><a xlink:href="io_8h.html" target="_top" xlink:title=" ">
<polygon fill="white" stroke="black" points="568,-348.5 568,-369.5 604,-369.5 604,-348.5 568,-348.5"/>
<text text-anchor="middle" x="586" y="-355.9" font-family="DejaVuSans" font-size="12.00">io.h</text>
</a>
</g>
</g>
<!-- Node1&#45;&gt;Node17 -->
<g id="edge29" class="edge">
<title>Node1&#45;&gt;Node17</title>
<path fill="none" stroke="midnightblue" d="M586,-522.26C586,-494.82 586,-416.51 586,-379.64"/>
<polygon fill="midnightblue" stroke="midnightblue" points="589.5,-379.63 586,-369.63 582.5,-379.63 589.5,-379.63"/>
</g>
<!-- Node18 -->
<g id="node18" class="node">
<title>Node18</title>
<g id="a_node18"><a xlink:href="hash_8h.html" target="_top" xlink:title=" ">
<polygon fill="white" stroke="black" points="466.5,-406.5 466.5,-427.5 519.5,-427.5 519.5,-406.5 466.5,-406.5"/>
<text text-anchor="middle" x="493" y="-413.9" font-family="DejaVuSans" font-size="12.00">hash.h</text>
</a>
</g>
</g>
<!-- Node1&#45;&gt;Node18 -->
<g id="edge33" class="edge">
<title>Node1&#45;&gt;Node18</title>
<path fill="none" stroke="midnightblue" d="M578.07,-522.28C562.42,-503.1 527.36,-460.12 507.48,-435.75"/>
<polygon fill="midnightblue" stroke="midnightblue" points="509.94,-433.23 500.91,-427.69 504.52,-437.66 509.94,-433.23"/>
</g>
<!-- Node21 -->
<g id="node21" class="node">
<title>Node21</title>
<g id="a_node21"><a xlink:href="macros_8h.html" target="_top" xlink:title=" ">
<polygon fill="white" stroke="black" points="180.5,-290.5 180.5,-311.5 245.5,-311.5 245.5,-290.5 180.5,-290.5"/>
<text text-anchor="middle" x="213" y="-297.9" font-family="DejaVuSans" font-size="12.00">macros.h</text>
</a>
</g>
</g>
<!-- Node1&#45;&gt;Node21 -->
<g id="edge60" class="edge">
<title>Node1&#45;&gt;Node21</title>
<path fill="none" stroke="midnightblue" d="M557.72,-531.99C512.09,-530.81 420.72,-523.47 355,-486 286.43,-446.9 239.74,-360.13 221.53,-321.36"/>
<polygon fill="midnightblue" stroke="midnightblue" points="224.49,-319.42 217.16,-311.78 218.13,-322.33 224.49,-319.42"/>
</g>
<!-- Node22 -->
<g id="node22" class="node">
<title>Node22</title>
<g id="a_node22"><a xlink:href="hyphen_8h.html" target="_top" xlink:title=" ">
<polygon fill="white" stroke="black" points="382,-406.5 382,-427.5 448,-427.5 448,-406.5 382,-406.5"/>
<text text-anchor="middle" x="415" y="-413.9" font-family="DejaVuSans" font-size="12.00">hyphen.h</text>
</a>
</g>
</g>
<!-- Node1&#45;&gt;Node22 -->
<g id="edge47" class="edge">
<title>Node1&#45;&gt;Node22</title>
<path fill="none" stroke="midnightblue" d="M571.71,-522.48C542.12,-502.74 473.86,-457.24 437.99,-433.32"/>
<polygon fill="midnightblue" stroke="midnightblue" points="439.87,-430.37 429.61,-427.74 435.99,-436.2 439.87,-430.37"/>
</g>
<!-- Node23 -->
<g id="node23" class="node">
<title>Node23</title>
<g id="a_node23"><a xlink:href="error_8h.html" target="_top" xlink:title=" ">
<polygon fill="white" stroke="black" points="1070.5,-464.5 1070.5,-485.5 1121.5,-485.5 1121.5,-464.5 1070.5,-464.5"/>
<text text-anchor="middle" x="1096" y="-471.9" font-family="DejaVuSans" font-size="12.00">error.h</text>
</a>
</g>
</g>
<!-- Node1&#45;&gt;Node23 -->
<g id="edge53" class="edge">
<title>Node1&#45;&gt;Node23</title>
<path fill="none" stroke="midnightblue" d="M614,-530.7C687.15,-527 889.78,-514.75 1056,-486 1057.45,-485.75 1058.93,-485.47 1060.43,-485.18"/>
<polygon fill="midnightblue" stroke="midnightblue" points="1061.28,-488.57 1070.3,-483.02 1059.78,-481.74 1061.28,-488.57"/>
</g>
<!-- Node24 -->
<g id="node24" class="node">
<title>Node24</title>
<g id="a_node24"><a xlink:href="print_8h.html" target="_top" xlink:title=" ">
<polygon fill="white" stroke="black" points="614,-406.5 614,-427.5 664,-427.5 664,-406.5 614,-406.5"/>
<text text-anchor="middle" x="639" y="-413.9" font-family="DejaVuSans" font-size="12.00">print.h</text>
</a>
</g>
</g>
<!-- Node1&#45;&gt;Node24 -->
<g id="edge54" class="edge">
<title>Node1&#45;&gt;Node24</title>
<path fill="none" stroke="midnightblue" d="M590.52,-522.28C599.28,-503.43 618.72,-461.62 630.14,-437.05"/>
<polygon fill="midnightblue" stroke="midnightblue" points="633.45,-438.24 634.49,-427.69 627.1,-435.29 633.45,-438.24"/>
</g>
<!-- Node25 -->
<g id="node25" class="node">
<title>Node25</title>
<g id="a_node25"><a xlink:href="extension_8h.html" target="_top" xlink:title=" ">
<polygon fill="white" stroke="black" points="388,-464.5 388,-485.5 466,-485.5 466,-464.5 388,-464.5"/>
<text text-anchor="middle" x="427" y="-471.9" font-family="DejaVuSans" font-size="12.00">extension.h</text>
</a>
</g>
</g>
<!-- Node1&#45;&gt;Node25 -->
<g id="edge61" class="edge">
<title>Node1&#45;&gt;Node25</title>
<path fill="none" stroke="midnightblue" d="M558.67,-522.37C532.46,-513.14 492.7,-499.14 463.73,-488.94"/>
<polygon fill="midnightblue" stroke="midnightblue" points="464.57,-485.52 453.98,-485.5 462.25,-492.12 464.57,-485.52"/>
</g>
<!-- Node26 -->
<g id="node26" class="node">
<title>Node26</title>
<g id="a_node26"><a xlink:href="lexer_8h.html" target="_top" xlink:title=" ">
<polygon fill="white" stroke="black" points="312,-406.5 312,-427.5 364,-427.5 364,-406.5 312,-406.5"/>
<text text-anchor="middle" x="338" y="-413.9" font-family="DejaVuSans" font-size="12.00">lexer.h</text>
</a>
</g>
</g>
<!-- Node1&#45;&gt;Node26 -->
<g id="edge67" class="edge">
<title>Node1&#45;&gt;Node26</title>
<path fill="none" stroke="midnightblue" d="M557.75,-532.5C515.07,-531.86 433.4,-525.12 379,-486 362.27,-473.97 351.1,-452.8 344.7,-437.27"/>
<polygon fill="midnightblue" stroke="midnightblue" points="347.84,-435.7 341.02,-427.6 341.3,-438.19 347.84,-435.7"/>
</g>
<!-- Node27 -->
<g id="node27" class="node">
<title>Node27</title>
<g id="a_node27"><a xlink:href="dump_8h.html" target="_top" xlink:title=" ">
<polygon fill="white" stroke="black" points="1140,-464.5 1140,-485.5 1196,-485.5 1196,-464.5 1140,-464.5"/>
<text text-anchor="middle" x="1168" y="-471.9" font-family="DejaVuSans" font-size="12.00">dump.h</text>
</a>
</g>
</g>
<!-- Node1&#45;&gt;Node27 -->
<g id="edge68" class="edge">
<title>Node1&#45;&gt;Node27</title>
<path fill="none" stroke="midnightblue" d="M614.02,-531.41C693.53,-529.36 927.38,-520.74 1129.91,-485.9"/>
<polygon fill="midnightblue" stroke="midnightblue" points="1130.59,-489.34 1139.84,-484.17 1129.38,-482.44 1130.59,-489.34"/>
</g>
<!-- Node3 -->
<g id="node3" class="node">
<title>Node3</title>
<g id="a_node3"><a xlink:title=" ">
<polygon fill="white" stroke="#bfbfbf" points="145.5,-58.5 145.5,-79.5 204.5,-79.5 204.5,-58.5 145.5,-58.5"/>
<text text-anchor="middle" x="175" y="-65.9" font-family="DejaVuSans" font-size="12.00">assert.h</text>
</a>
</g>
</g>
<!-- Node2&#45;&gt;Node3 -->
<g id="edge2" class="edge">
<title>Node2&#45;&gt;Node3</title>
<path fill="none" stroke="midnightblue" d="M175,-116.25C175,-108.94 175,-98.69 175,-89.7"/>
<polygon fill="midnightblue" stroke="midnightblue" points="178.5,-89.64 175,-79.64 171.5,-89.64 178.5,-89.64"/>
</g>
<!-- Node4 -->
<g id="node4" class="node">
<title>Node4</title>
<g id="a_node4"><a xlink:title=" ">
<polygon fill="white" stroke="#bfbfbf" points="286,-58.5 286,-79.5 338,-79.5 338,-58.5 286,-58.5"/>
<text text-anchor="middle" x="312" y="-65.9" font-family="DejaVuSans" font-size="12.00">stdio.h</text>
</a>
</g>
</g>
<!-- Node2&#45;&gt;Node4 -->
<g id="edge3" class="edge">
<title>Node2&#45;&gt;Node4</title>
<path fill="none" stroke="midnightblue" d="M198.55,-116.37C220.84,-107.26 254.49,-93.51 279.36,-83.34"/>
<polygon fill="midnightblue" stroke="midnightblue" points="280.82,-86.52 288.76,-79.5 278.18,-80.05 280.82,-86.52"/>
</g>
<!-- Node6 -->
<g id="node6" class="node">
<title>Node6</title>
<g id="a_node6"><a xlink:title=" ">
<polygon fill="white" stroke="#bfbfbf" points="771.5,-0.5 771.5,-21.5 836.5,-21.5 836.5,-0.5 771.5,-0.5"/>
<text text-anchor="middle" x="804" y="-7.9" font-family="DejaVuSans" font-size="12.00">stdbool.h</text>
</a>
</g>
</g>
<!-- Node5&#45;&gt;Node6 -->
<g id="edge5" class="edge">
<title>Node5&#45;&gt;Node6</title>
<path fill="none" stroke="midnightblue" d="M804,-58.25C804,-50.94 804,-40.69 804,-31.7"/>
<polygon fill="midnightblue" stroke="midnightblue" points="807.5,-31.64 804,-21.64 800.5,-31.64 807.5,-31.64"/>
</g>
<!-- Node7 -->
<g id="node7" class="node">
<title>Node7</title>
<g id="a_node7"><a xlink:title=" ">
<polygon fill="white" stroke="#bfbfbf" points="575.5,-0.5 575.5,-21.5 630.5,-21.5 630.5,-0.5 575.5,-0.5"/>
<text text-anchor="middle" x="603" y="-7.9" font-family="DejaVuSans" font-size="12.00">stdint.h</text>
</a>
</g>
</g>
<!-- Node5&#45;&gt;Node7 -->
<g id="edge6" class="edge">
<title>Node5&#45;&gt;Node7</title>
<path fill="none" stroke="midnightblue" d="M769.45,-58.37C733.54,-48.37 677.52,-32.76 640.54,-22.46"/>
<polygon fill="midnightblue" stroke="midnightblue" points="641.22,-19.01 630.65,-19.7 639.34,-25.76 641.22,-19.01"/>
</g>
<!-- Node8&#45;&gt;Node4 -->
<g id="edge8" class="edge">
<title>Node8&#45;&gt;Node4</title>
<path fill="none" stroke="midnightblue" d="M859.26,-290.41C850.59,-281.51 837.93,-267.64 829,-254 807.44,-221.07 818.78,-201.88 791,-174 748.91,-131.76 727.19,-132.9 670,-116 555.87,-82.27 414.03,-73.27 348.42,-70.87"/>
<polygon fill="midnightblue" stroke="midnightblue" points="348.31,-67.36 338.19,-70.53 348.07,-74.36 348.31,-67.36"/>
</g>
<!-- Node8&#45;&gt;Node5 -->
<g id="edge10" class="edge">
<title>Node8&#45;&gt;Node5</title>
<path fill="none" stroke="midnightblue" d="M881.42,-290.18C891,-281.75 903.51,-268.67 909,-254 912.42,-244.84 910.87,-241.6 909,-232 898.36,-177.4 895.34,-160.53 862,-116 852.92,-103.87 839.89,-93.15 828.49,-85.12"/>
<polygon fill="midnightblue" stroke="midnightblue" points="830.42,-82.2 820.17,-79.52 826.51,-88.01 830.42,-82.2"/>
</g>
<!-- Node9 -->
<g id="node9" class="node">
<title>Node9</title>
<g id="a_node9"><a xlink:title=" ">
<polygon fill="white" stroke="#bfbfbf" points="838,-232.5 838,-253.5 900,-253.5 900,-232.5 838,-232.5"/>
<text text-anchor="middle" x="869" y="-239.9" font-family="DejaVuSans" font-size="12.00">setjmp.h</text>
</a>
</g>
</g>
<!-- Node8&#45;&gt;Node9 -->
<g id="edge9" class="edge">
<title>Node8&#45;&gt;Node9</title>
<path fill="none" stroke="midnightblue" d="M869,-290.25C869,-282.94 869,-272.69 869,-263.7"/>
<polygon fill="midnightblue" stroke="midnightblue" points="872.5,-263.64 869,-253.64 865.5,-263.64 872.5,-263.64"/>
</g>
<!-- Node10&#45;&gt;Node2 -->
<g id="edge14" class="edge">
<title>Node10&#45;&gt;Node2</title>
<path fill="none" stroke="midnightblue" d="M396.28,-179.42C359.42,-170.85 279.03,-152.17 225.97,-139.84"/>
<polygon fill="midnightblue" stroke="midnightblue" points="226.6,-136.4 216.07,-137.54 225.02,-143.22 226.6,-136.4"/>
</g>
<!-- Node10&#45;&gt;Node4 -->
<g id="edge12" class="edge">
<title>Node10&#45;&gt;Node4</title>
<path fill="none" stroke="midnightblue" d="M407.13,-174.28C389.48,-154.93 349.74,-111.37 327.61,-87.12"/>
<polygon fill="midnightblue" stroke="midnightblue" points="330.17,-84.72 320.84,-79.69 325,-89.44 330.17,-84.72"/>
</g>
<!-- Node10&#45;&gt;Node5 -->
<g id="edge17" class="edge">
<title>Node10&#45;&gt;Node5</title>
<path fill="none" stroke="midnightblue" d="M428.03,-174.33C447.42,-159.29 487.32,-130.51 526,-116 602.97,-87.13 698.68,-76.34 755.36,-72.34"/>
<polygon fill="midnightblue" stroke="midnightblue" points="755.73,-75.82 765.47,-71.66 755.26,-68.83 755.73,-75.82"/>
</g>
<!-- Node10&#45;&gt;Node7 -->
<g id="edge13" class="edge">
<title>Node10&#45;&gt;Node7</title>
<path fill="none" stroke="midnightblue" d="M424.03,-174.38C435.5,-160.85 457.44,-135.65 478,-116 512.87,-82.68 556.87,-47.51 582.29,-27.8"/>
<polygon fill="midnightblue" stroke="midnightblue" points="584.67,-30.38 590.46,-21.5 580.4,-24.84 584.67,-30.38"/>
</g>
<!-- Node11 -->
<g id="node11" class="node">
<title>Node11</title>
<g id="a_node11"><a xlink:href="charset_8h.html" target="_top" xlink:title=" ">
<polygon fill="white" stroke="black" points="596.5,-116.5 596.5,-137.5 661.5,-137.5 661.5,-116.5 596.5,-116.5"/>
<text text-anchor="middle" x="629" y="-123.9" font-family="DejaVuSans" font-size="12.00">charset.h</text>
</a>
</g>
</g>
<!-- Node10&#45;&gt;Node11 -->
<g id="edge15" class="edge">
<title>Node10&#45;&gt;Node11</title>
<path fill="none" stroke="midnightblue" d="M435.74,-178.07C440.41,-176.7 445.37,-175.27 450,-174 496.51,-161.19 550.14,-147.56 586.48,-138.49"/>
<polygon fill="midnightblue" stroke="midnightblue" points="587.39,-141.87 596.25,-136.06 585.7,-135.08 587.39,-141.87"/>
</g>
<!-- Node11&#45;&gt;Node5 -->
<g id="edge16" class="edge">
<title>Node11&#45;&gt;Node5</title>
<path fill="none" stroke="midnightblue" d="M659.08,-116.37C688.18,-107.06 732.45,-92.9 764.4,-82.67"/>
<polygon fill="midnightblue" stroke="midnightblue" points="765.85,-85.88 774.31,-79.5 763.72,-79.22 765.85,-85.88"/>
</g>
<!-- Node12&#45;&gt;Node5 -->
<g id="edge19" class="edge">
<title>Node12&#45;&gt;Node5</title>
<path fill="none" stroke="midnightblue" d="M908.09,-348.23C927.59,-329.9 966,-288.19 966,-244 966,-244 966,-244 966,-184 966,-127.86 900.12,-96.96 852.38,-81.94"/>
<polygon fill="midnightblue" stroke="midnightblue" points="853.39,-78.59 842.8,-79.06 851.37,-85.29 853.39,-78.59"/>
</g>
<!-- Node12&#45;&gt;Node8 -->
<g id="edge25" class="edge">
<title>Node12&#45;&gt;Node8</title>
<path fill="none" stroke="midnightblue" d="M892.12,-348.25C888.35,-340.7 883.01,-330.02 878.41,-320.82"/>
<polygon fill="midnightblue" stroke="midnightblue" points="881.42,-319.02 873.82,-311.64 875.16,-322.15 881.42,-319.02"/>
</g>
<!-- Node13 -->
<g id="node13" class="node">
<title>Node13</title>
<g id="a_node13"><a xlink:href="tex__constant_8h.html" target="_top" xlink:title=" ">
<polygon fill="white" stroke="black" points="606,-290.5 606,-311.5 700,-311.5 700,-290.5 606,-290.5"/>
<text text-anchor="middle" x="653" y="-297.9" font-family="DejaVuSans" font-size="12.00">tex_constant.h</text>
</a>
</g>
</g>
<!-- Node12&#45;&gt;Node13 -->
<g id="edge20" class="edge">
<title>Node12&#45;&gt;Node13</title>
<path fill="none" stroke="midnightblue" d="M870.42,-351.9C830.71,-342.78 755.12,-325.44 704.38,-313.79"/>
<polygon fill="midnightblue" stroke="midnightblue" points="705.11,-310.37 694.58,-311.54 703.54,-317.19 705.11,-310.37"/>
</g>
<!-- Node14 -->
<g id="node14" class="node">
<title>Node14</title>
<g id="a_node14"><a xlink:href="box_8h.html" target="_top" xlink:title=" ">
<polygon fill="white" stroke="black" points="622,-232.5 622,-253.5 668,-253.5 668,-232.5 622,-232.5"/>
<text text-anchor="middle" x="645" y="-239.9" font-family="DejaVuSans" font-size="12.00">box.h</text>
</a>
</g>
</g>
<!-- Node13&#45;&gt;Node14 -->
<g id="edge21" class="edge">
<title>Node13&#45;&gt;Node14</title>
<path fill="none" stroke="midnightblue" d="M651.61,-290.25C650.56,-282.94 649.1,-272.69 647.81,-263.7"/>
<polygon fill="midnightblue" stroke="midnightblue" points="651.26,-263.05 646.38,-253.64 644.33,-264.04 651.26,-263.05"/>
</g>
<!-- Node14&#45;&gt;Node10 -->
<g id="edge22" class="edge">
<title>Node14&#45;&gt;Node10</title>
<path fill="none" stroke="midnightblue" d="M621.78,-236.32C579.9,-226.08 491.79,-204.53 445.63,-193.25"/>
<polygon fill="midnightblue" stroke="midnightblue" points="446.19,-189.78 435.65,-190.8 444.53,-196.58 446.19,-189.78"/>
</g>
<!-- Node15 -->
<g id="node15" class="node">
<title>Node15</title>
<g id="a_node15"><a xlink:href="texmath_8h.html" target="_top" xlink:title=" ">
<polygon fill="white" stroke="black" points="714,-174.5 714,-195.5 782,-195.5 782,-174.5 714,-174.5"/>
<text text-anchor="middle" x="748" y="-181.9" font-family="DejaVuSans" font-size="12.00">texmath.h</text>
</a>
</g>
</g>
<!-- Node14&#45;&gt;Node15 -->
<g id="edge23" class="edge">
<title>Node14&#45;&gt;Node15</title>
<path fill="none" stroke="midnightblue" d="M662.94,-232.25C679.04,-223.49 702.89,-210.53 721.24,-200.55"/>
<polygon fill="midnightblue" stroke="midnightblue" points="723.15,-203.49 730.26,-195.64 719.81,-197.34 723.15,-203.49"/>
</g>
<!-- Node15&#45;&gt;Node5 -->
<g id="edge24" class="edge">
<title>Node15&#45;&gt;Node5</title>
<path fill="none" stroke="midnightblue" d="M752.77,-174.28C762.07,-155.35 782.75,-113.25 794.8,-88.72"/>
<polygon fill="midnightblue" stroke="midnightblue" points="797.97,-90.21 799.24,-79.69 791.69,-87.13 797.97,-90.21"/>
</g>
<!-- Node16&#45;&gt;Node5 -->
<g id="edge27" class="edge">
<title>Node16&#45;&gt;Node5</title>
<path fill="none" stroke="midnightblue" d="M669.96,-348.39C686.74,-340.5 709.23,-328.02 725,-312 766.62,-269.73 772.9,-252.49 791,-196 802.58,-159.86 804.45,-115.19 804.45,-89.91"/>
<polygon fill="midnightblue" stroke="midnightblue" points="807.95,-89.72 804.34,-79.76 800.95,-89.8 807.95,-89.72"/>
</g>
<!-- Node16&#45;&gt;Node13 -->
<g id="edge28" class="edge">
<title>Node16&#45;&gt;Node13</title>
<path fill="none" stroke="midnightblue" d="M648.05,-348.25C648.83,-340.94 649.93,-330.69 650.89,-321.7"/>
<polygon fill="midnightblue" stroke="midnightblue" points="654.38,-321.96 651.97,-311.64 647.42,-321.21 654.38,-321.96"/>
</g>
<!-- Node17&#45;&gt;Node10 -->
<g id="edge32" class="edge">
<title>Node17&#45;&gt;Node10</title>
<path fill="none" stroke="midnightblue" d="M576.37,-348.26C548.55,-320.11 467.81,-238.42 432.67,-202.87"/>
<polygon fill="midnightblue" stroke="midnightblue" points="435.04,-200.29 425.52,-195.63 430.06,-205.21 435.04,-200.29"/>
</g>
<!-- Node17&#45;&gt;Node11 -->
<g id="edge31" class="edge">
<title>Node17&#45;&gt;Node11</title>
<path fill="none" stroke="midnightblue" d="M604.08,-351.31C638.17,-338.69 708.61,-312.57 709,-312 714.57,-303.97 711.22,-299.52 709,-290 695.93,-234.01 660.57,-175.16 641.53,-146.24"/>
<polygon fill="midnightblue" stroke="midnightblue" points="644.24,-143.98 635.76,-137.62 638.42,-147.88 644.24,-143.98"/>
</g>
<!-- Node17&#45;&gt;Node13 -->
<g id="edge30" class="edge">
<title>Node17&#45;&gt;Node13</title>
<path fill="none" stroke="midnightblue" d="M597.67,-348.25C607.57,-339.97 621.96,-327.94 633.59,-318.22"/>
<polygon fill="midnightblue" stroke="midnightblue" points="636.03,-320.74 641.46,-311.64 631.55,-315.37 636.03,-320.74"/>
</g>
<!-- Node18&#45;&gt;Node10 -->
<g id="edge39" class="edge">
<title>Node18&#45;&gt;Node10</title>
<path fill="none" stroke="midnightblue" d="M486.16,-406.39C469.42,-382.23 426.74,-316.43 412,-254 408.26,-238.17 409.7,-219.73 411.82,-206.05"/>
<polygon fill="midnightblue" stroke="midnightblue" points="415.33,-206.3 413.67,-195.84 408.44,-205.05 415.33,-206.3"/>
</g>
<!-- Node18&#45;&gt;Node11 -->
<g id="edge34" class="edge">
<title>Node18&#45;&gt;Node11</title>
<path fill="none" stroke="midnightblue" d="M497.52,-406.42C517.01,-365.16 593.93,-202.27 620.17,-146.69"/>
<polygon fill="midnightblue" stroke="midnightblue" points="623.35,-148.16 624.46,-137.62 617.02,-145.17 623.35,-148.16"/>
</g>
<!-- Node18&#45;&gt;Node16 -->
<g id="edge46" class="edge">
<title>Node18&#45;&gt;Node16</title>
<path fill="none" stroke="midnightblue" d="M519.47,-406.37C545.17,-397.03 584.3,-382.8 612.44,-372.57"/>
<polygon fill="midnightblue" stroke="midnightblue" points="613.69,-375.84 621.89,-369.13 611.3,-369.26 613.69,-375.84"/>
</g>
<!-- Node19 -->
<g id="node19" class="node">
<title>Node19</title>
<g id="a_node19"><a xlink:href="tex_8h.html" target="_top" xlink:title=" ">
<polygon fill="white" stroke="black" points="394,-348.5 394,-369.5 436,-369.5 436,-348.5 394,-348.5"/>
<text text-anchor="middle" x="415" y="-355.9" font-family="DejaVuSans" font-size="12.00">tex.h</text>
</a>
</g>
</g>
<!-- Node18&#45;&gt;Node19 -->
<g id="edge35" class="edge">
<title>Node18&#45;&gt;Node19</title>
<path fill="none" stroke="midnightblue" d="M479.41,-406.25C467.67,-397.81 450.48,-385.47 436.81,-375.66"/>
<polygon fill="midnightblue" stroke="midnightblue" points="438.6,-372.63 428.43,-369.64 434.51,-378.32 438.6,-372.63"/>
</g>
<!-- Node20 -->
<g id="node20" class="node">
<title>Node20</title>
<g id="a_node20"><a xlink:href="fonts_8h.html" target="_top" xlink:title=" ">
<polygon fill="white" stroke="black" points="286,-348.5 286,-369.5 338,-369.5 338,-348.5 286,-348.5"/>
<text text-anchor="middle" x="312" y="-355.9" font-family="DejaVuSans" font-size="12.00">fonts.h</text>
</a>
</g>
</g>
<!-- Node18&#45;&gt;Node20 -->
<g id="edge40" class="edge">
<title>Node18&#45;&gt;Node20</title>
<path fill="none" stroke="midnightblue" d="M466.29,-407.74C434.97,-398.05 382.89,-381.93 348.02,-371.14"/>
<polygon fill="midnightblue" stroke="midnightblue" points="348.82,-367.73 338.23,-368.11 346.75,-374.41 348.82,-367.73"/>
</g>
<!-- Node19&#45;&gt;Node2 -->
<g id="edge36" class="edge">
<title>Node19&#45;&gt;Node2</title>
<path fill="none" stroke="midnightblue" d="M404.99,-348.41C368.09,-313.05 239.36,-189.68 192.35,-144.63"/>
<polygon fill="midnightblue" stroke="midnightblue" points="194.69,-142.02 185.05,-137.63 189.85,-147.08 194.69,-142.02"/>
</g>
<!-- Node19&#45;&gt;Node5 -->
<g id="edge37" class="edge">
<title>Node19&#45;&gt;Node5</title>
<path fill="none" stroke="midnightblue" d="M418.72,-348.43C433.58,-311.62 492.42,-178.09 587,-116 637.73,-82.7 708.23,-72.96 754.94,-70.4"/>
<polygon fill="midnightblue" stroke="midnightblue" points="755.28,-73.89 765.11,-69.94 754.96,-66.9 755.28,-73.89"/>
</g>
<!-- Node19&#45;&gt;Node13 -->
<g id="edge38" class="edge">
<title>Node19&#45;&gt;Node13</title>
<path fill="none" stroke="midnightblue" d="M436.12,-353.03C473.13,-344.32 550.66,-326.08 602.29,-313.93"/>
<polygon fill="midnightblue" stroke="midnightblue" points="603.31,-317.29 612.24,-311.59 601.71,-310.47 603.31,-317.29"/>
</g>
<!-- Node20&#45;&gt;Node2 -->
<g id="edge42" class="edge">
<title>Node20&#45;&gt;Node2</title>
<path fill="none" stroke="midnightblue" d="M285.7,-353.2C248.79,-345.88 184.61,-330.76 171,-312 134.95,-262.31 155.26,-183.57 167.64,-147.37"/>
<polygon fill="midnightblue" stroke="midnightblue" points="171.07,-148.17 171.16,-137.58 164.49,-145.81 171.07,-148.17"/>
</g>
<!-- Node20&#45;&gt;Node4 -->
<g id="edge41" class="edge">
<title>Node20&#45;&gt;Node4</title>
<path fill="none" stroke="midnightblue" d="M312,-348.24C312,-328.54 312,-282.59 312,-244 312,-244 312,-244 312,-184 312,-150.98 312,-112.59 312,-89.85"/>
<polygon fill="midnightblue" stroke="midnightblue" points="315.5,-89.76 312,-79.76 308.5,-89.76 315.5,-89.76"/>
</g>
<!-- Node20&#45;&gt;Node10 -->
<g id="edge44" class="edge">
<title>Node20&#45;&gt;Node10</title>
<path fill="none" stroke="midnightblue" d="M315.66,-348.33C324.14,-326.53 346.52,-272.28 374,-232 381.11,-221.57 390.47,-211.09 398.54,-202.78"/>
<polygon fill="midnightblue" stroke="midnightblue" points="401.19,-205.08 405.78,-195.54 396.24,-200.14 401.19,-205.08"/>
</g>
<!-- Node20&#45;&gt;Node13 -->
<g id="edge43" class="edge">
<title>Node20&#45;&gt;Node13</title>
<path fill="none" stroke="midnightblue" d="M338.19,-353.7C393.01,-344.7 520.91,-323.69 595.73,-311.41"/>
<polygon fill="midnightblue" stroke="midnightblue" points="596.62,-314.81 605.92,-309.73 595.49,-307.9 596.62,-314.81"/>
</g>
<!-- Node20&#45;&gt;Node21 -->
<g id="edge45" class="edge">
<title>Node20&#45;&gt;Node21</title>
<path fill="none" stroke="midnightblue" d="M294.76,-348.25C279.42,-339.57 256.78,-326.76 239.21,-316.82"/>
<polygon fill="midnightblue" stroke="midnightblue" points="240.47,-313.52 230.05,-311.64 237.03,-319.61 240.47,-313.52"/>
</g>
<!-- Node22&#45;&gt;Node2 -->
<g id="edge48" class="edge">
<title>Node22&#45;&gt;Node2</title>
<path fill="none" stroke="midnightblue" d="M381.72,-407.29C318.31,-390 184.03,-349.73 156,-312 119.4,-262.73 134.34,-233.07 151,-174 153.71,-164.4 158.56,-154.51 163.2,-146.36"/>
<polygon fill="midnightblue" stroke="midnightblue" points="166.23,-148.1 168.4,-137.73 160.24,-144.49 166.23,-148.1"/>
</g>
<!-- Node22&#45;&gt;Node11 -->
<g id="edge49" class="edge">
<title>Node22&#45;&gt;Node11</title>
<path fill="none" stroke="midnightblue" d="M405.34,-406.31C393.41,-393.11 375.77,-368.75 385,-348 430.05,-246.73 547.31,-172.43 601.19,-142.52"/>
<polygon fill="midnightblue" stroke="midnightblue" points="603.08,-145.47 610.18,-137.61 599.72,-139.33 603.08,-145.47"/>
</g>
<!-- Node22&#45;&gt;Node16 -->
<g id="edge52" class="edge">
<title>Node22&#45;&gt;Node16</title>
<path fill="none" stroke="midnightblue" d="M448.01,-408.12C451.05,-407.4 454.08,-406.68 457,-406 523.3,-390.46 542.54,-388.22 612.11,-370.13"/>
<polygon fill="midnightblue" stroke="midnightblue" points="613.01,-373.51 621.8,-367.59 611.24,-366.74 613.01,-373.51"/>
</g>
<!-- Node22&#45;&gt;Node19 -->
<g id="edge50" class="edge">
<title>Node22&#45;&gt;Node19</title>
<path fill="none" stroke="midnightblue" d="M415,-406.25C415,-398.94 415,-388.69 415,-379.7"/>
<polygon fill="midnightblue" stroke="midnightblue" points="418.5,-379.64 415,-369.64 411.5,-379.64 418.5,-379.64"/>
</g>
<!-- Node22&#45;&gt;Node20 -->
<g id="edge51" class="edge">
<title>Node22&#45;&gt;Node20</title>
<path fill="none" stroke="midnightblue" d="M397.06,-406.25C380.96,-397.49 357.11,-384.53 338.76,-374.55"/>
<polygon fill="midnightblue" stroke="midnightblue" points="340.19,-371.34 329.74,-369.64 336.85,-377.49 340.19,-371.34"/>
</g>
<!-- Node24&#45;&gt;Node5 -->
<g id="edge56" class="edge">
<title>Node24&#45;&gt;Node5</title>
<path fill="none" stroke="midnightblue" d="M664.06,-413.98C726.01,-408.69 884.74,-393.2 932,-370 971.51,-350.61 1004,-346.02 1004,-302 1004,-302 1004,-302 1004,-184 1004,-114.48 911.67,-86.8 852.48,-76.2"/>
<polygon fill="midnightblue" stroke="midnightblue" points="853.01,-72.74 842.56,-74.53 851.84,-79.64 853.01,-72.74"/>
</g>
<!-- Node24&#45;&gt;Node10 -->
<g id="edge59" class="edge">
<title>Node24&#45;&gt;Node10</title>
<path fill="none" stroke="midnightblue" d="M618.06,-406.41C601.16,-398.12 577.28,-385.1 559,-370 498.56,-320.06 447.69,-240.3 426.53,-204.47"/>
<polygon fill="midnightblue" stroke="midnightblue" points="429.41,-202.48 421.36,-195.6 423.36,-206 429.41,-202.48"/>
</g>
<!-- Node24&#45;&gt;Node11 -->
<g id="edge55" class="edge">
<title>Node24&#45;&gt;Node11</title>
<path fill="none" stroke="midnightblue" d="M648.28,-406.36C656.97,-397.21 670.2,-382.96 681,-370 701.71,-345.14 714.68,-342.67 725,-312 728.12,-302.73 726.39,-299.68 725,-290 716.95,-233.89 706.47,-219 672,-174 664.24,-163.87 654.62,-153.42 646.45,-145.04"/>
<polygon fill="midnightblue" stroke="midnightblue" points="648.7,-142.34 639.16,-137.72 643.74,-147.28 648.7,-142.34"/>
</g>
<!-- Node24&#45;&gt;Node16 -->
<g id="edge58" class="edge">
<title>Node24&#45;&gt;Node16</title>
<path fill="none" stroke="midnightblue" d="M640.39,-406.25C641.44,-398.94 642.9,-388.69 644.19,-379.7"/>
<polygon fill="midnightblue" stroke="midnightblue" points="647.67,-380.04 645.62,-369.64 640.74,-379.05 647.67,-380.04"/>
</g>
<!-- Node24&#45;&gt;Node19 -->
<g id="edge57" class="edge">
<title>Node24&#45;&gt;Node19</title>
<path fill="none" stroke="midnightblue" d="M613.74,-409.68C572.45,-399.36 490.63,-378.91 445.93,-367.73"/>
<polygon fill="midnightblue" stroke="midnightblue" points="446.74,-364.33 436.19,-365.3 445.04,-371.12 446.74,-364.33"/>
</g>
<!-- Node25&#45;&gt;Node16 -->
<g id="edge65" class="edge">
<title>Node25&#45;&gt;Node16</title>
<path fill="none" stroke="midnightblue" d="M449.75,-464.35C470.4,-455.42 501.59,-441.52 528,-428 561.28,-410.96 598.54,-389.22 622.36,-374.97"/>
<polygon fill="midnightblue" stroke="midnightblue" points="624.32,-377.87 631.09,-369.71 620.72,-371.87 624.32,-377.87"/>
</g>
<!-- Node25&#45;&gt;Node22 -->
<g id="edge66" class="edge">
<title>Node25&#45;&gt;Node22</title>
<path fill="none" stroke="midnightblue" d="M424.91,-464.25C423.34,-456.94 421.15,-446.69 419.22,-437.7"/>
<polygon fill="midnightblue" stroke="midnightblue" points="422.58,-436.69 417.07,-427.64 415.74,-438.15 422.58,-436.69"/>
</g>
<!-- Node25&#45;&gt;Node26 -->
<g id="edge62" class="edge">
<title>Node25&#45;&gt;Node26</title>
<path fill="none" stroke="midnightblue" d="M411.5,-464.25C397.84,-455.65 377.73,-443 362,-433.1"/>
<polygon fill="midnightblue" stroke="midnightblue" points="363.65,-430.01 353.32,-427.64 359.92,-435.93 363.65,-430.01"/>
</g>
<!-- Node26&#45;&gt;Node4 -->
<g id="edge63" class="edge">
<title>Node26&#45;&gt;Node4</title>
<path fill="none" stroke="midnightblue" d="M311.98,-411.65C266.75,-402.49 175.02,-376.5 139,-312 128.58,-293.34 120.77,-175.43 119,-138 118.54,-128.23 112.94,-123.67 119,-116 138.13,-91.77 225.09,-78.92 275.52,-73.39"/>
<polygon fill="midnightblue" stroke="midnightblue" points="276.11,-76.85 285.69,-72.32 275.37,-69.89 276.11,-76.85"/>
</g>
<!-- Node26&#45;&gt;Node19 -->
<g id="edge64" class="edge">
<title>Node26&#45;&gt;Node19</title>
<path fill="none" stroke="midnightblue" d="M351.41,-406.25C363.01,-397.81 379.97,-385.47 393.47,-375.66"/>
<polygon fill="midnightblue" stroke="midnightblue" points="395.71,-378.36 401.74,-369.64 391.6,-372.69 395.71,-378.36"/>
</g>
</g>
</svg>
