<?xml version="1.0" encoding="UTF-8" standalone="no"?>
<!DOCTYPE svg PUBLIC "-//W3C//DTD SVG 1.1//EN"
 "http://www.w3.org/Graphics/SVG/1.1/DTD/svg11.dtd">
<!-- Generated by graphviz version 2.44.0 ()
 -->
<!-- Title: dump.h Pages: 1 -->
<svg width="382pt" height="146pt"
 viewBox="0.00 0.00 382.00 146.00" xmlns="http://www.w3.org/2000/svg" xmlns:xlink="http://www.w3.org/1999/xlink">
<g id="graph0" class="graph" transform="scale(1 1) rotate(0) translate(4 142)">
<title>dump.h</title>
<polygon fill="white" stroke="transparent" points="-4,4 -4,-142 378,-142 378,4 -4,4"/>
<!-- Node1 -->
<g id="node1" class="node">
<title>Node1</title>
<g id="a_node1"><a xlink:title=" ">
<polygon fill="#bfbfbf" stroke="black" points="137,-116.5 137,-137.5 193,-137.5 193,-116.5 137,-116.5"/>
<text text-anchor="middle" x="165" y="-123.9" font-family="DejaVuSans" font-size="12.00">dump.h</text>
</a>
</g>
</g>
<!-- Node2 -->
<g id="node2" class="node">
<title>Node2</title>
<g id="a_node2"><a xlink:href="dump_8c.html" target="_top" xlink:title=" ">
<polygon fill="white" stroke="black" points="0,-58.5 0,-79.5 56,-79.5 56,-58.5 0,-58.5"/>
<text text-anchor="middle" x="28" y="-65.9" font-family="DejaVuSans" font-size="12.00">dump.c</text>
</a>
</g>
</g>
<!-- Node1&#45;&gt;Node2 -->
<g id="edge1" class="edge">
<title>Node1&#45;&gt;Node2</title>
<path fill="none" stroke="midnightblue" d="M132.02,-112.52C107.07,-102.32 73.43,-88.57 51.24,-79.5"/>
<polygon fill="midnightblue" stroke="midnightblue" points="130.87,-115.83 141.45,-116.37 133.52,-109.35 130.87,-115.83"/>
</g>
<!-- Node3 -->
<g id="node3" class="node">
<title>Node3</title>
<g id="a_node3"><a xlink:href="io_8c.html" target="_top" xlink:title=" ">
<polygon fill="white" stroke="black" points="74.5,-58.5 74.5,-79.5 109.5,-79.5 109.5,-58.5 74.5,-58.5"/>
<text text-anchor="middle" x="92" y="-65.9" font-family="DejaVuSans" font-size="12.00">io.c</text>
</a>
</g>
</g>
<!-- Node1&#45;&gt;Node3 -->
<g id="edge2" class="edge">
<title>Node1&#45;&gt;Node3</title>
<path fill="none" stroke="midnightblue" d="M144.05,-109.93C131.29,-100.14 115.41,-87.96 104.57,-79.64"/>
<polygon fill="midnightblue" stroke="midnightblue" points="142.22,-112.94 152.28,-116.25 146.48,-107.38 142.22,-112.94"/>
</g>
<!-- Node4 -->
<g id="node4" class="node">
<title>Node4</title>
<g id="a_node4"><a xlink:href="io__fname_8c.html" target="_top" xlink:title=" ">
<polygon fill="white" stroke="black" points="127.5,-58.5 127.5,-79.5 202.5,-79.5 202.5,-58.5 127.5,-58.5"/>
<text text-anchor="middle" x="165" y="-65.9" font-family="DejaVuSans" font-size="12.00">io_fname.c</text>
</a>
</g>
</g>
<!-- Node1&#45;&gt;Node4 -->
<g id="edge3" class="edge">
<title>Node1&#45;&gt;Node4</title>
<path fill="none" stroke="midnightblue" d="M165,-106.16C165,-97.16 165,-86.92 165,-79.64"/>
<polygon fill="midnightblue" stroke="midnightblue" points="161.5,-106.25 165,-116.25 168.5,-106.25 161.5,-106.25"/>
</g>
<!-- Node5 -->
<g id="node5" class="node">
<title>Node5</title>
<g id="a_node5"><a xlink:href="print_8c.html" target="_top" xlink:title=" ">
<polygon fill="white" stroke="black" points="220.5,-58.5 220.5,-79.5 269.5,-79.5 269.5,-58.5 220.5,-58.5"/>
<text text-anchor="middle" x="245" y="-65.9" font-family="DejaVuSans" font-size="12.00">print.c</text>
</a>
</g>
</g>
<!-- Node1&#45;&gt;Node5 -->
<g id="edge4" class="edge">
<title>Node1&#45;&gt;Node5</title>
<path fill="none" stroke="midnightblue" d="M187.16,-110.49C201.27,-100.61 219.12,-88.12 231.22,-79.64"/>
<polygon fill="midnightblue" stroke="midnightblue" points="185.12,-107.64 178.93,-116.25 189.13,-113.38 185.12,-107.64"/>
</g>
<!-- Node6 -->
<g id="node6" class="node">
<title>Node6</title>
<g id="a_node6"><a xlink:href="tex__header_8h.html" target="_top" xlink:title=" ">
<polygon fill="white" stroke="black" points="288,-58.5 288,-79.5 374,-79.5 374,-58.5 288,-58.5"/>
<text text-anchor="middle" x="331" y="-65.9" font-family="DejaVuSans" font-size="12.00">tex_header.h</text>
</a>
</g>
</g>
<!-- Node1&#45;&gt;Node6 -->
<g id="edge5" class="edge">
<title>Node1&#45;&gt;Node6</title>
<path fill="none" stroke="midnightblue" d="M202.98,-113.19C233.34,-102.95 275.23,-88.81 302.7,-79.55"/>
<polygon fill="midnightblue" stroke="midnightblue" points="201.52,-109.99 193.16,-116.5 203.75,-116.62 201.52,-109.99"/>
</g>
<!-- Node7 -->
<g id="node7" class="node">
<title>Node7</title>
<g id="a_node7"><a xlink:href="tex_8c.html" target="_top" xlink:title=" ">
<polygon fill="white" stroke="black" points="310.5,-0.5 310.5,-21.5 351.5,-21.5 351.5,-0.5 310.5,-0.5"/>
<text text-anchor="middle" x="331" y="-7.9" font-family="DejaVuSans" font-size="12.00">tex.c</text>
</a>
</g>
</g>
<!-- Node6&#45;&gt;Node7 -->
<g id="edge6" class="edge">
<title>Node6&#45;&gt;Node7</title>
<path fill="none" stroke="midnightblue" d="M331,-48.16C331,-39.16 331,-28.92 331,-21.64"/>
<polygon fill="midnightblue" stroke="midnightblue" points="327.5,-48.25 331,-58.25 334.5,-48.25 327.5,-48.25"/>
</g>
</g>
</svg>
