<?xml version="1.0" encoding="UTF-8" standalone="no"?>
<!DOCTYPE svg PUBLIC "-//W3C//DTD SVG 1.1//EN"
 "http://www.w3.org/Graphics/SVG/1.1/DTD/svg11.dtd">
<!-- Generated by graphviz version 2.44.0 ()
 -->
<!-- Title: dump.h Pages: 1 -->
<svg width="2127pt" height="378pt"
 viewBox="0.00 0.00 2126.87 378.00" xmlns="http://www.w3.org/2000/svg" xmlns:xlink="http://www.w3.org/1999/xlink">
<g id="graph0" class="graph" transform="scale(1 1) rotate(0) translate(4 374)">
<title>dump.h</title>
<polygon fill="white" stroke="transparent" points="-4,4 -4,-374 2122.87,-374 2122.87,4 -4,4"/>
<!-- Node1 -->
<g id="node1" class="node">
<title>Node1</title>
<g id="a_node1"><a xlink:title=" ">
<polygon fill="#bfbfbf" stroke="black" points="1896.37,-348.5 1896.37,-369.5 1952.37,-369.5 1952.37,-348.5 1896.37,-348.5"/>
<text text-anchor="middle" x="1924.37" y="-355.9" font-family="DejaVuSans" font-size="12.00">dump.h</text>
</a>
</g>
</g>
<!-- Node2 -->
<g id="node2" class="node">
<title>Node2</title>
<g id="a_node2"><a xlink:href="dump_8c.html" target="_top" xlink:title=" ">
<polygon fill="white" stroke="black" points="1321.37,-116.5 1321.37,-137.5 1377.37,-137.5 1377.37,-116.5 1321.37,-116.5"/>
<text text-anchor="middle" x="1349.37" y="-123.9" font-family="DejaVuSans" font-size="12.00">dump.c</text>
</a>
</g>
</g>
<!-- Node1&#45;&gt;Node2 -->
<g id="edge1" class="edge">
<title>Node1&#45;&gt;Node2</title>
<path fill="none" stroke="midnightblue" d="M1886.24,-353.55C1803.48,-343.07 1602.1,-313.17 1443.37,-254 1393.05,-235.24 1364.75,-242.2 1337.37,-196 1326.37,-177.44 1336.77,-151.36 1343.92,-137.51"/>
<polygon fill="midnightblue" stroke="midnightblue" points="1885.84,-357.02 1896.19,-354.78 1886.7,-350.08 1885.84,-357.02"/>
</g>
<!-- Node3 -->
<g id="node3" class="node">
<title>Node3</title>
<g id="a_node3"><a xlink:href="fonts_8h.html" target="_top" xlink:title=" ">
<polygon fill="white" stroke="black" points="724.37,-290.5 724.37,-311.5 776.37,-311.5 776.37,-290.5 724.37,-290.5"/>
<text text-anchor="middle" x="750.37" y="-297.9" font-family="DejaVuSans" font-size="12.00">fonts.h</text>
</a>
</g>
</g>
<!-- Node1&#45;&gt;Node3 -->
<g id="edge2" class="edge">
<title>Node1&#45;&gt;Node3</title>
<path fill="none" stroke="midnightblue" d="M1886.06,-356.17C1703.99,-347.49 928.74,-310.51 776.41,-303.24"/>
<polygon fill="midnightblue" stroke="midnightblue" points="1886.06,-359.68 1896.22,-356.66 1886.4,-352.68 1886.06,-359.68"/>
</g>
<!-- Node16 -->
<g id="node16" class="node">
<title>Node16</title>
<g id="a_node16"><a xlink:href="tex__header_8h.html" target="_top" xlink:title=" ">
<polygon fill="white" stroke="black" points="1183.37,-58.5 1183.37,-79.5 1269.37,-79.5 1269.37,-58.5 1183.37,-58.5"/>
<text text-anchor="middle" x="1226.37" y="-65.9" font-family="DejaVuSans" font-size="12.00">tex_header.h</text>
</a>
</g>
</g>
<!-- Node1&#45;&gt;Node16 -->
<g id="edge84" class="edge">
<title>Node1&#45;&gt;Node16</title>
<path fill="none" stroke="midnightblue" d="M1934.71,-339.37C1945.96,-317.3 1962.37,-279.1 1962.37,-244 1962.37,-244 1962.37,-244 1962.37,-184 1962.37,-96.82 1863.48,-134.9 1778.37,-116 1592.26,-74.66 1363.36,-69.76 1269.56,-69.66"/>
<polygon fill="midnightblue" stroke="midnightblue" points="1931.56,-337.83 1929.98,-348.3 1937.75,-341.1 1931.56,-337.83"/>
</g>
<!-- Node27 -->
<g id="node27" class="node">
<title>Node27</title>
<g id="a_node27"><a xlink:href="str_8c.html" target="_top" xlink:title=" ">
<polygon fill="white" stroke="black" points="813.37,-174.5 813.37,-195.5 851.37,-195.5 851.37,-174.5 813.37,-174.5"/>
<text text-anchor="middle" x="832.37" y="-181.9" font-family="DejaVuSans" font-size="12.00">str.c</text>
</a>
</g>
</g>
<!-- Node1&#45;&gt;Node27 -->
<g id="edge83" class="edge">
<title>Node1&#45;&gt;Node27</title>
<path fill="none" stroke="midnightblue" d="M1886.05,-356.87C1760.8,-352.97 1364.37,-338.76 1239.37,-312 1139.27,-290.57 1121.66,-260.64 1023.37,-232 950.47,-210.76 928.83,-218.7 856.37,-196 854.73,-195.49 853.05,-194.91 851.38,-194.29"/>
<polygon fill="midnightblue" stroke="midnightblue" points="1886.2,-360.38 1896.3,-357.19 1886.41,-353.38 1886.2,-360.38"/>
</g>
<!-- Node33 -->
<g id="node33" class="node">
<title>Node33</title>
<g id="a_node33"><a xlink:href="print_8c.html" target="_top" xlink:title=" ">
<polygon fill="white" stroke="black" points="1487.87,-116.5 1487.87,-137.5 1536.87,-137.5 1536.87,-116.5 1487.87,-116.5"/>
<text text-anchor="middle" x="1512.37" y="-123.9" font-family="DejaVuSans" font-size="12.00">print.c</text>
</a>
</g>
</g>
<!-- Node1&#45;&gt;Node33 -->
<g id="edge82" class="edge">
<title>Node1&#45;&gt;Node33</title>
<path fill="none" stroke="midnightblue" d="M1922.15,-338.01C1916.71,-299.42 1898.99,-214.87 1845.37,-174 1796.87,-137.03 1605.61,-129.77 1537.02,-128.34"/>
<polygon fill="midnightblue" stroke="midnightblue" points="1918.74,-338.93 1923.47,-348.41 1925.68,-338.05 1918.74,-338.93"/>
</g>
<!-- Node43 -->
<g id="node43" class="node">
<title>Node43</title>
<g id="a_node43"><a xlink:href="io_8c.html" target="_top" xlink:title=" ">
<polygon fill="white" stroke="black" points="1990.87,-290.5 1990.87,-311.5 2025.87,-311.5 2025.87,-290.5 1990.87,-290.5"/>
<text text-anchor="middle" x="2008.37" y="-297.9" font-family="DejaVuSans" font-size="12.00">io.c</text>
</a>
</g>
</g>
<!-- Node1&#45;&gt;Node43 -->
<g id="edge80" class="edge">
<title>Node1&#45;&gt;Node43</title>
<path fill="none" stroke="midnightblue" d="M1947.64,-342.49C1962.46,-332.61 1981.19,-320.12 1993.91,-311.64"/>
<polygon fill="midnightblue" stroke="midnightblue" points="1945.38,-339.79 1939,-348.25 1949.26,-345.61 1945.38,-339.79"/>
</g>
<!-- Node44 -->
<g id="node44" class="node">
<title>Node44</title>
<g id="a_node44"><a xlink:href="io__fname_8c.html" target="_top" xlink:title=" ">
<polygon fill="white" stroke="black" points="2043.87,-290.5 2043.87,-311.5 2118.87,-311.5 2118.87,-290.5 2043.87,-290.5"/>
<text text-anchor="middle" x="2081.37" y="-297.9" font-family="DejaVuSans" font-size="12.00">io_fname.c</text>
</a>
</g>
</g>
<!-- Node1&#45;&gt;Node44 -->
<g id="edge81" class="edge">
<title>Node1&#45;&gt;Node44</title>
<path fill="none" stroke="midnightblue" d="M1961.03,-344.92C1989.73,-334.69 2028.97,-320.69 2054.73,-311.5"/>
<polygon fill="midnightblue" stroke="midnightblue" points="1959.6,-341.72 1951.36,-348.37 1961.95,-348.31 1959.6,-341.72"/>
</g>
<!-- Node4 -->
<g id="node4" class="node">
<title>Node4</title>
<g id="a_node4"><a xlink:href="debug_8c.html" target="_top" xlink:title=" ">
<polygon fill="white" stroke="black" points="260.87,-232.5 260.87,-253.5 319.87,-253.5 319.87,-232.5 260.87,-232.5"/>
<text text-anchor="middle" x="290.37" y="-239.9" font-family="DejaVuSans" font-size="12.00">debug.c</text>
</a>
</g>
</g>
<!-- Node3&#45;&gt;Node4 -->
<g id="edge3" class="edge">
<title>Node3&#45;&gt;Node4</title>
<path fill="none" stroke="midnightblue" d="M713.94,-297.37C641.36,-291.82 473.69,-277.46 334.37,-254 329.74,-253.22 324.86,-252.26 320.1,-251.24"/>
<polygon fill="midnightblue" stroke="midnightblue" points="713.71,-300.86 723.94,-298.12 714.24,-293.88 713.71,-300.86"/>
</g>
<!-- Node5 -->
<g id="node5" class="node">
<title>Node5</title>
<g id="a_node5"><a xlink:href="dviout_8c.html" target="_top" xlink:title=" ">
<polygon fill="white" stroke="black" points="1073.37,-116.5 1073.37,-137.5 1131.37,-137.5 1131.37,-116.5 1073.37,-116.5"/>
<text text-anchor="middle" x="1102.37" y="-123.9" font-family="DejaVuSans" font-size="12.00">dviout.c</text>
</a>
</g>
</g>
<!-- Node3&#45;&gt;Node5 -->
<g id="edge4" class="edge">
<title>Node3&#45;&gt;Node5</title>
<path fill="none" stroke="midnightblue" d="M786.98,-297.53C852.2,-292.53 985.23,-279.48 1023.37,-254 1067.39,-224.6 1091.57,-161.49 1099.45,-137.51"/>
<polygon fill="midnightblue" stroke="midnightblue" points="786.46,-294.06 776.75,-298.29 786.98,-301.04 786.46,-294.06"/>
</g>
<!-- Node6 -->
<g id="node6" class="node">
<title>Node6</title>
<g id="a_node6"><a xlink:href="dviout_8h.html" target="_top" xlink:title=" ">
<polygon fill="white" stroke="black" points="907.87,-174.5 907.87,-195.5 966.87,-195.5 966.87,-174.5 907.87,-174.5"/>
<text text-anchor="middle" x="937.37" y="-181.9" font-family="DejaVuSans" font-size="12.00">dviout.h</text>
</a>
</g>
</g>
<!-- Node3&#45;&gt;Node6 -->
<g id="edge5" class="edge">
<title>Node3&#45;&gt;Node6</title>
<path fill="none" stroke="midnightblue" d="M774.61,-285.22C813.56,-261.48 889,-215.49 921.66,-195.58"/>
<polygon fill="midnightblue" stroke="midnightblue" points="772.71,-282.28 765.99,-290.48 776.35,-288.26 772.71,-282.28"/>
</g>
<!-- Node9 -->
<g id="node9" class="node">
<title>Node9</title>
<g id="a_node9"><a xlink:href="main__ctrl_8h.html" target="_top" xlink:title=" ">
<polygon fill="white" stroke="black" points="721.37,-116.5 721.37,-137.5 795.37,-137.5 795.37,-116.5 721.37,-116.5"/>
<text text-anchor="middle" x="758.37" y="-123.9" font-family="DejaVuSans" font-size="12.00">main_ctrl.h</text>
</a>
</g>
</g>
<!-- Node3&#45;&gt;Node9 -->
<g id="edge62" class="edge">
<title>Node3&#45;&gt;Node9</title>
<path fill="none" stroke="midnightblue" d="M713.91,-299.06C608.54,-295.14 316.59,-275.1 405.37,-174 415.74,-162.19 632.69,-140.09 721.23,-131.52"/>
<polygon fill="midnightblue" stroke="midnightblue" points="713.97,-302.56 724.09,-299.41 714.21,-295.57 713.97,-302.56"/>
</g>
<!-- Node15 -->
<g id="node15" class="node">
<title>Node15</title>
<g id="a_node15"><a xlink:href="printout_8c.html" target="_top" xlink:title=" ">
<polygon fill="white" stroke="black" points="286.87,-58.5 286.87,-79.5 351.87,-79.5 351.87,-58.5 286.87,-58.5"/>
<text text-anchor="middle" x="319.37" y="-65.9" font-family="DejaVuSans" font-size="12.00">printout.c</text>
</a>
</g>
</g>
<!-- Node3&#45;&gt;Node15 -->
<g id="edge77" class="edge">
<title>Node3&#45;&gt;Node15</title>
<path fill="none" stroke="midnightblue" d="M713.96,-299.33C605.17,-296.97 283.96,-287.28 185.37,-254 94.84,-223.44 50.21,-221.83 4.37,-138 -0.32,-129.42 -2.02,-123.4 4.37,-116 40.65,-74.03 213.74,-69.6 286.76,-69.64"/>
<polygon fill="midnightblue" stroke="midnightblue" points="714.04,-302.83 724.11,-299.54 714.18,-295.83 714.04,-302.83"/>
</g>
<!-- Node3&#45;&gt;Node16 -->
<g id="edge79" class="edge">
<title>Node3&#45;&gt;Node16</title>
<path fill="none" stroke="midnightblue" d="M786.75,-295.7C843.28,-288.73 955.45,-273.73 1049.37,-254 1184,-225.72 1214.16,-204.17 1348.37,-174 1391.79,-164.24 1516.87,-172.18 1545.37,-138 1551.63,-130.49 1551.77,-123.39 1545.37,-116 1510.2,-75.4 1348.35,-69.82 1269.62,-69.57"/>
<polygon fill="midnightblue" stroke="midnightblue" points="786.04,-292.26 776.54,-296.95 786.89,-299.21 786.04,-292.26"/>
</g>
<!-- Node18 -->
<g id="node18" class="node">
<title>Node18</title>
<g id="a_node18"><a xlink:href="math__formula_8c.html" target="_top" xlink:title=" ">
<polygon fill="white" stroke="black" points="419.37,-116.5 419.37,-137.5 517.37,-137.5 517.37,-116.5 419.37,-116.5"/>
<text text-anchor="middle" x="468.37" y="-123.9" font-family="DejaVuSans" font-size="12.00">math_formula.c</text>
</a>
</g>
</g>
<!-- Node3&#45;&gt;Node18 -->
<g id="edge63" class="edge">
<title>Node3&#45;&gt;Node18</title>
<path fill="none" stroke="midnightblue" d="M713.89,-300.62C632.64,-301.19 440.47,-297.76 396.37,-254 371,-228.83 370.48,-204.93 388.37,-174 398.72,-156.11 418.95,-144.57 436.48,-137.52"/>
<polygon fill="midnightblue" stroke="midnightblue" points="714.17,-304.12 724.14,-300.52 714.1,-297.12 714.17,-304.12"/>
</g>
<!-- Node19 -->
<g id="node19" class="node">
<title>Node19</title>
<g id="a_node19"><a xlink:href="scan_8c.html" target="_top" xlink:title=" ">
<polygon fill="white" stroke="black" points="1003.87,-116.5 1003.87,-137.5 1054.87,-137.5 1054.87,-116.5 1003.87,-116.5"/>
<text text-anchor="middle" x="1029.37" y="-123.9" font-family="DejaVuSans" font-size="12.00">scan.c</text>
</a>
</g>
</g>
<!-- Node3&#45;&gt;Node19 -->
<g id="edge78" class="edge">
<title>Node3&#45;&gt;Node19</title>
<path fill="none" stroke="midnightblue" d="M786.17,-289.85C849.67,-271.2 978.29,-230.21 1009.37,-196 1024.43,-179.42 1028.19,-152.05 1029.1,-137.61"/>
<polygon fill="midnightblue" stroke="midnightblue" points="785.19,-286.5 776.56,-292.65 787.14,-293.22 785.19,-286.5"/>
</g>
<!-- Node20 -->
<g id="node20" class="node">
<title>Node20</title>
<g id="a_node20"><a xlink:href="expand_8c.html" target="_top" xlink:title=" ">
<polygon fill="white" stroke="black" points="660.87,-174.5 660.87,-195.5 725.87,-195.5 725.87,-174.5 660.87,-174.5"/>
<text text-anchor="middle" x="693.37" y="-181.9" font-family="DejaVuSans" font-size="12.00">expand.c</text>
</a>
</g>
</g>
<!-- Node3&#45;&gt;Node20 -->
<g id="edge27" class="edge">
<title>Node3&#45;&gt;Node20</title>
<path fill="none" stroke="midnightblue" d="M740.99,-281.24C728.72,-256.7 707.67,-214.6 698.22,-195.69"/>
<polygon fill="midnightblue" stroke="midnightblue" points="737.91,-282.9 745.51,-290.28 744.17,-279.77 737.91,-282.9"/>
</g>
<!-- Node21 -->
<g id="node21" class="node">
<title>Node21</title>
<g id="a_node21"><a xlink:href="fonts_8c.html" target="_top" xlink:title=" ">
<polygon fill="white" stroke="black" points="743.87,-174.5 743.87,-195.5 794.87,-195.5 794.87,-174.5 743.87,-174.5"/>
<text text-anchor="middle" x="769.37" y="-181.9" font-family="DejaVuSans" font-size="12.00">fonts.c</text>
</a>
</g>
</g>
<!-- Node3&#45;&gt;Node21 -->
<g id="edge28" class="edge">
<title>Node3&#45;&gt;Node21</title>
<path fill="none" stroke="midnightblue" d="M753.66,-280.25C757.77,-255.58 764.64,-214.35 767.75,-195.69"/>
<polygon fill="midnightblue" stroke="midnightblue" points="750.18,-279.84 751.99,-290.28 757.09,-280.99 750.18,-279.84"/>
</g>
<!-- Node22 -->
<g id="node22" class="node">
<title>Node22</title>
<g id="a_node22"><a xlink:href="hash_8h.html" target="_top" xlink:title=" ">
<polygon fill="white" stroke="black" points="649.87,-232.5 649.87,-253.5 702.87,-253.5 702.87,-232.5 649.87,-232.5"/>
<text text-anchor="middle" x="676.37" y="-239.9" font-family="DejaVuSans" font-size="12.00">hash.h</text>
</a>
</g>
</g>
<!-- Node3&#45;&gt;Node22 -->
<g id="edge29" class="edge">
<title>Node3&#45;&gt;Node22</title>
<path fill="none" stroke="midnightblue" d="M729.5,-284.21C716.51,-274.37 700.21,-262.04 689.11,-253.64"/>
<polygon fill="midnightblue" stroke="midnightblue" points="727.39,-287 737.48,-290.25 731.62,-281.42 727.39,-287"/>
</g>
<!-- Node28 -->
<g id="node28" class="node">
<title>Node28</title>
<g id="a_node28"><a xlink:href="hyphen_8h.html" target="_top" xlink:title=" ">
<polygon fill="white" stroke="black" points="1452.37,-232.5 1452.37,-253.5 1518.37,-253.5 1518.37,-232.5 1452.37,-232.5"/>
<text text-anchor="middle" x="1485.37" y="-239.9" font-family="DejaVuSans" font-size="12.00">hyphen.h</text>
</a>
</g>
</g>
<!-- Node3&#45;&gt;Node28 -->
<g id="edge40" class="edge">
<title>Node3&#45;&gt;Node28</title>
<path fill="none" stroke="midnightblue" d="M786.82,-297.22C913.16,-287.6 1331.18,-255.75 1452.25,-246.52"/>
<polygon fill="midnightblue" stroke="midnightblue" points="786.23,-293.76 776.53,-298.01 786.77,-300.74 786.23,-293.76"/>
</g>
<!-- Node39 -->
<g id="node39" class="node">
<title>Node39</title>
<g id="a_node39"><a xlink:href="mmode_8c.html" target="_top" xlink:title=" ">
<polygon fill="white" stroke="black" points="13.87,-116.5 13.87,-137.5 78.87,-137.5 78.87,-116.5 13.87,-116.5"/>
<text text-anchor="middle" x="46.37" y="-123.9" font-family="DejaVuSans" font-size="12.00">mmode.c</text>
</a>
</g>
</g>
<!-- Node3&#45;&gt;Node39 -->
<g id="edge64" class="edge">
<title>Node3&#45;&gt;Node39</title>
<path fill="none" stroke="midnightblue" d="M713.99,-299.02C612.24,-295.94 326.49,-284.69 238.37,-254 161.18,-227.11 84.5,-162.49 57,-137.81"/>
<polygon fill="midnightblue" stroke="midnightblue" points="713.98,-302.53 724.08,-299.32 714.19,-295.53 713.98,-302.53"/>
</g>
<!-- Node40 -->
<g id="node40" class="node">
<title>Node40</title>
<g id="a_node40"><a xlink:href="mmode_8h.html" target="_top" xlink:title=" ">
<polygon fill="white" stroke="black" points="216.37,-174.5 216.37,-195.5 282.37,-195.5 282.37,-174.5 216.37,-174.5"/>
<text text-anchor="middle" x="249.37" y="-181.9" font-family="DejaVuSans" font-size="12.00">mmode.h</text>
</a>
</g>
</g>
<!-- Node3&#45;&gt;Node40 -->
<g id="edge65" class="edge">
<title>Node3&#45;&gt;Node40</title>
<path fill="none" stroke="midnightblue" d="M713.92,-299.37C604.26,-297.09 282.93,-287.6 251.37,-254 236.65,-238.33 241.85,-210.57 246.09,-195.83"/>
<polygon fill="midnightblue" stroke="midnightblue" points="714.09,-302.87 724.16,-299.57 714.23,-295.87 714.09,-302.87"/>
</g>
<!-- Node42 -->
<g id="node42" class="node">
<title>Node42</title>
<g id="a_node42"><a xlink:href="pack_8c.html" target="_top" xlink:title=" ">
<polygon fill="white" stroke="black" points="963.87,-232.5 963.87,-253.5 1014.87,-253.5 1014.87,-232.5 963.87,-232.5"/>
<text text-anchor="middle" x="989.37" y="-239.9" font-family="DejaVuSans" font-size="12.00">pack.c</text>
</a>
</g>
</g>
<!-- Node3&#45;&gt;Node42 -->
<g id="edge76" class="edge">
<title>Node3&#45;&gt;Node42</title>
<path fill="none" stroke="midnightblue" d="M786.27,-291.9C826.16,-282.86 892.44,-267.69 949.37,-254 953.96,-252.9 958.85,-251.7 963.57,-250.52"/>
<polygon fill="midnightblue" stroke="midnightblue" points="785.46,-288.5 776.48,-294.12 787.01,-295.33 785.46,-288.5"/>
</g>
<!-- Node6&#45;&gt;Node5 -->
<g id="edge7" class="edge">
<title>Node6&#45;&gt;Node5</title>
<path fill="none" stroke="midnightblue" d="M975.51,-171.06C1005.7,-160.81 1047.19,-146.73 1074.38,-137.5"/>
<polygon fill="midnightblue" stroke="midnightblue" points="974.08,-167.84 965.73,-174.37 976.33,-174.47 974.08,-167.84"/>
</g>
<!-- Node7 -->
<g id="node7" class="node">
<title>Node7</title>
<g id="a_node7"><a xlink:href="align_8c.html" target="_top" xlink:title=" ">
<polygon fill="white" stroke="black" points="480.87,-58.5 480.87,-79.5 531.87,-79.5 531.87,-58.5 480.87,-58.5"/>
<text text-anchor="middle" x="506.37" y="-65.9" font-family="DejaVuSans" font-size="12.00">align.c</text>
</a>
</g>
</g>
<!-- Node6&#45;&gt;Node7 -->
<g id="edge6" class="edge">
<title>Node6&#45;&gt;Node7</title>
<path fill="none" stroke="midnightblue" d="M897.64,-177.33C852.43,-169.41 776.53,-155.09 712.37,-138 646.5,-120.46 570.8,-93.73 532.09,-79.57"/>
<polygon fill="midnightblue" stroke="midnightblue" points="897.18,-180.8 907.63,-179.07 898.38,-173.91 897.18,-180.8"/>
</g>
<!-- Node8 -->
<g id="node8" class="node">
<title>Node8</title>
<g id="a_node8"><a xlink:href="extension_8c.html" target="_top" xlink:title=" ">
<polygon fill="white" stroke="black" points="1021.87,-58.5 1021.87,-79.5 1098.87,-79.5 1098.87,-58.5 1021.87,-58.5"/>
<text text-anchor="middle" x="1060.37" y="-65.9" font-family="DejaVuSans" font-size="12.00">extension.c</text>
</a>
</g>
</g>
<!-- Node6&#45;&gt;Node8 -->
<g id="edge8" class="edge">
<title>Node6&#45;&gt;Node8</title>
<path fill="none" stroke="midnightblue" d="M926.18,-165.11C919.12,-150.46 913.08,-130.31 923.37,-116 929.52,-107.44 986.6,-90.31 1025.12,-79.54"/>
<polygon fill="midnightblue" stroke="midnightblue" points="923.26,-167.06 931.05,-174.24 929.43,-163.77 923.26,-167.06"/>
</g>
<!-- Node6&#45;&gt;Node9 -->
<g id="edge9" class="edge">
<title>Node6&#45;&gt;Node9</title>
<path fill="none" stroke="midnightblue" d="M898.07,-171.71C865.21,-161.42 819,-146.97 788.87,-137.54"/>
<polygon fill="midnightblue" stroke="midnightblue" points="897.22,-175.11 907.81,-174.75 899.31,-168.43 897.22,-175.11"/>
</g>
<!-- Node14 -->
<g id="node14" class="node">
<title>Node14</title>
<g id="a_node14"><a xlink:href="page__builder_8c.html" target="_top" xlink:title=" ">
<polygon fill="white" stroke="black" points="710.87,-58.5 710.87,-79.5 805.87,-79.5 805.87,-58.5 710.87,-58.5"/>
<text text-anchor="middle" x="758.37" y="-65.9" font-family="DejaVuSans" font-size="12.00">page_builder.c</text>
</a>
</g>
</g>
<!-- Node6&#45;&gt;Node14 -->
<g id="edge24" class="edge">
<title>Node6&#45;&gt;Node14</title>
<path fill="none" stroke="midnightblue" d="M913.71,-168.93C876.4,-145.17 804.94,-99.66 773.66,-79.74"/>
<polygon fill="midnightblue" stroke="midnightblue" points="912.1,-172.06 922.42,-174.48 915.86,-166.15 912.1,-172.06"/>
</g>
<!-- Node6&#45;&gt;Node16 -->
<g id="edge26" class="edge">
<title>Node6&#45;&gt;Node16</title>
<path fill="none" stroke="midnightblue" d="M939.02,-164.31C941.4,-148.84 947.21,-127.97 961.37,-116 978.09,-101.87 1112.47,-83.76 1183.19,-75.08"/>
<polygon fill="midnightblue" stroke="midnightblue" points="935.53,-164.07 937.82,-174.42 942.48,-164.9 935.53,-164.07"/>
</g>
<!-- Node6&#45;&gt;Node18 -->
<g id="edge23" class="edge">
<title>Node6&#45;&gt;Node18</title>
<path fill="none" stroke="midnightblue" d="M897.62,-178.67C885.65,-177.11 872.48,-175.44 860.37,-174 712.11,-156.38 674.23,-158.69 526.37,-138 523.44,-137.59 520.42,-137.14 517.38,-136.68"/>
<polygon fill="midnightblue" stroke="midnightblue" points="897.4,-182.17 907.77,-180 898.31,-175.23 897.4,-182.17"/>
</g>
<!-- Node6&#45;&gt;Node19 -->
<g id="edge25" class="edge">
<title>Node6&#45;&gt;Node19</title>
<path fill="none" stroke="midnightblue" d="M962.39,-168.77C978.7,-158.85 999.47,-146.2 1013.53,-137.64"/>
<polygon fill="midnightblue" stroke="midnightblue" points="960.12,-166.06 953.4,-174.25 963.76,-172.04 960.12,-166.06"/>
</g>
<!-- Node9&#45;&gt;Node7 -->
<g id="edge10" class="edge">
<title>Node9&#45;&gt;Node7</title>
<path fill="none" stroke="midnightblue" d="M711.26,-116.41C657.51,-105.4 572.97,-87.85 541.37,-80 538.3,-79.24 535.1,-78.39 531.93,-77.52"/>
<polygon fill="midnightblue" stroke="midnightblue" points="710.75,-119.88 721.24,-118.45 712.15,-113.02 710.75,-119.88"/>
</g>
<!-- Node9&#45;&gt;Node8 -->
<g id="edge15" class="edge">
<title>Node9&#45;&gt;Node8</title>
<path fill="none" stroke="midnightblue" d="M805.51,-116.73C806.81,-116.48 808.1,-116.24 809.37,-116 899.44,-99.18 922.4,-97.35 1012.37,-80 1015.38,-79.42 1018.49,-78.81 1021.62,-78.18"/>
<polygon fill="midnightblue" stroke="midnightblue" points="804.57,-113.34 795.4,-118.66 805.88,-120.22 804.57,-113.34"/>
</g>
<!-- Node10 -->
<g id="node10" class="node">
<title>Node10</title>
<g id="a_node10"><a xlink:href="build__box_8c.html" target="_top" xlink:title=" ">
<polygon fill="white" stroke="black" points="823.87,-58.5 823.87,-79.5 900.87,-79.5 900.87,-58.5 823.87,-58.5"/>
<text text-anchor="middle" x="862.37" y="-65.9" font-family="DejaVuSans" font-size="12.00">build_box.c</text>
</a>
</g>
</g>
<!-- Node9&#45;&gt;Node10 -->
<g id="edge11" class="edge">
<title>Node9&#45;&gt;Node10</title>
<path fill="none" stroke="midnightblue" d="M785.37,-111.46C803.98,-101.44 828.2,-88.4 844.46,-79.64"/>
<polygon fill="midnightblue" stroke="midnightblue" points="783.63,-108.42 776.49,-116.25 786.95,-114.59 783.63,-108.42"/>
</g>
<!-- Node11 -->
<g id="node11" class="node">
<title>Node11</title>
<g id="a_node11"><a xlink:href="main__ctrl_8c.html" target="_top" xlink:title=" ">
<polygon fill="white" stroke="black" points="735.37,-0.5 735.37,-21.5 809.37,-21.5 809.37,-0.5 735.37,-0.5"/>
<text text-anchor="middle" x="772.37" y="-7.9" font-family="DejaVuSans" font-size="12.00">main_ctrl.c</text>
</a>
</g>
</g>
<!-- Node9&#45;&gt;Node11 -->
<g id="edge18" class="edge">
<title>Node9&#45;&gt;Node11</title>
<path fill="none" stroke="midnightblue" d="M731.4,-111.08C711.75,-98.11 690.35,-78.28 701.37,-58 710.77,-40.71 729.78,-28.92 745.77,-21.6"/>
<polygon fill="midnightblue" stroke="midnightblue" points="729.56,-114.05 739.9,-116.36 733.25,-108.11 729.56,-114.05"/>
</g>
<!-- Node12 -->
<g id="node12" class="node">
<title>Node12</title>
<g id="a_node12"><a xlink:href="build__math_8c.html" target="_top" xlink:title=" ">
<polygon fill="white" stroke="black" points="919.37,-58.5 919.37,-79.5 1003.37,-79.5 1003.37,-58.5 919.37,-58.5"/>
<text text-anchor="middle" x="961.37" y="-65.9" font-family="DejaVuSans" font-size="12.00">build_math.c</text>
</a>
</g>
</g>
<!-- Node9&#45;&gt;Node12 -->
<g id="edge13" class="edge">
<title>Node9&#45;&gt;Node12</title>
<path fill="none" stroke="midnightblue" d="M803.36,-113.59C840.66,-103.3 892.9,-88.89 926.93,-79.5"/>
<polygon fill="midnightblue" stroke="midnightblue" points="801.98,-110.34 793.27,-116.37 803.84,-117.09 801.98,-110.34"/>
</g>
<!-- Node13 -->
<g id="node13" class="node">
<title>Node13</title>
<g id="a_node13"><a xlink:href="indep__process_8c.html" target="_top" xlink:title=" ">
<polygon fill="white" stroke="black" points="550.37,-58.5 550.37,-79.5 654.37,-79.5 654.37,-58.5 550.37,-58.5"/>
<text text-anchor="middle" x="602.37" y="-65.9" font-family="DejaVuSans" font-size="12.00">indep_process.c</text>
</a>
</g>
</g>
<!-- Node9&#45;&gt;Node13 -->
<g id="edge16" class="edge">
<title>Node9&#45;&gt;Node13</title>
<path fill="none" stroke="midnightblue" d="M721.94,-112.92C693.42,-102.69 654.43,-88.69 628.84,-79.5"/>
<polygon fill="midnightblue" stroke="midnightblue" points="720.96,-116.29 731.55,-116.37 723.32,-109.7 720.96,-116.29"/>
</g>
<!-- Node9&#45;&gt;Node14 -->
<g id="edge19" class="edge">
<title>Node9&#45;&gt;Node14</title>
<path fill="none" stroke="midnightblue" d="M758.37,-106.16C758.37,-97.16 758.37,-86.92 758.37,-79.64"/>
<polygon fill="midnightblue" stroke="midnightblue" points="754.87,-106.25 758.37,-116.25 761.87,-106.25 754.87,-106.25"/>
</g>
<!-- Node9&#45;&gt;Node15 -->
<g id="edge20" class="edge">
<title>Node9&#45;&gt;Node15</title>
<path fill="none" stroke="midnightblue" d="M711.17,-116.61C709.89,-116.4 708.62,-116.2 707.37,-116 576.2,-95.39 418.77,-79.41 351.93,-73.02"/>
<polygon fill="midnightblue" stroke="midnightblue" points="710.65,-120.08 721.1,-118.36 711.86,-113.18 710.65,-120.08"/>
</g>
<!-- Node9&#45;&gt;Node16 -->
<g id="edge21" class="edge">
<title>Node9&#45;&gt;Node16</title>
<path fill="none" stroke="midnightblue" d="M805.56,-116.6C806.85,-116.39 808.12,-116.19 809.37,-116 945.27,-95.22 1107.46,-80.08 1183.29,-73.55"/>
<polygon fill="midnightblue" stroke="midnightblue" points="804.89,-113.17 795.63,-118.32 806.08,-120.06 804.89,-113.17"/>
</g>
<!-- Node10&#45;&gt;Node11 -->
<g id="edge12" class="edge">
<title>Node10&#45;&gt;Node11</title>
<path fill="none" stroke="midnightblue" d="M837.89,-52.77C821.94,-42.85 801.62,-30.2 787.87,-21.64"/>
<polygon fill="midnightblue" stroke="midnightblue" points="836.35,-55.93 846.69,-58.25 840.05,-49.99 836.35,-55.93"/>
</g>
<!-- Node12&#45;&gt;Node11 -->
<g id="edge14" class="edge">
<title>Node12&#45;&gt;Node11</title>
<path fill="none" stroke="midnightblue" d="M919.03,-55.46C884.34,-45.18 835.99,-30.85 804.44,-21.5"/>
<polygon fill="midnightblue" stroke="midnightblue" points="918.3,-58.89 928.88,-58.37 920.29,-52.18 918.3,-58.89"/>
</g>
<!-- Node13&#45;&gt;Node11 -->
<g id="edge17" class="edge">
<title>Node13&#45;&gt;Node11</title>
<path fill="none" stroke="midnightblue" d="M641.26,-55.19C672.4,-44.93 715.39,-30.77 743.53,-21.5"/>
<polygon fill="midnightblue" stroke="midnightblue" points="640,-51.92 631.59,-58.37 642.19,-58.57 640,-51.92"/>
</g>
<!-- Node17 -->
<g id="node17" class="node">
<title>Node17</title>
<g id="a_node17"><a xlink:href="tex_8c.html" target="_top" xlink:title=" ">
<polygon fill="white" stroke="black" points="1205.87,-0.5 1205.87,-21.5 1246.87,-21.5 1246.87,-0.5 1205.87,-0.5"/>
<text text-anchor="middle" x="1226.37" y="-7.9" font-family="DejaVuSans" font-size="12.00">tex.c</text>
</a>
</g>
</g>
<!-- Node16&#45;&gt;Node17 -->
<g id="edge22" class="edge">
<title>Node16&#45;&gt;Node17</title>
<path fill="none" stroke="midnightblue" d="M1226.37,-48.16C1226.37,-39.16 1226.37,-28.92 1226.37,-21.64"/>
<polygon fill="midnightblue" stroke="midnightblue" points="1222.87,-48.25 1226.37,-58.25 1229.87,-48.25 1222.87,-48.25"/>
</g>
<!-- Node22&#45;&gt;Node2 -->
<g id="edge31" class="edge">
<title>Node22&#45;&gt;Node2</title>
<path fill="none" stroke="midnightblue" d="M713.17,-240.58C816.09,-236.3 1105.32,-222.24 1196.37,-196 1217,-190.06 1219.9,-183.04 1239.37,-174 1268.47,-160.49 1302.66,-146.48 1325.1,-137.52"/>
<polygon fill="midnightblue" stroke="midnightblue" points="712.81,-237.09 702.96,-240.99 713.09,-244.08 712.81,-237.09"/>
</g>
<!-- Node22&#45;&gt;Node9 -->
<g id="edge37" class="edge">
<title>Node22&#45;&gt;Node9</title>
<path fill="none" stroke="midnightblue" d="M661.19,-224.03C651.01,-209.68 641.17,-189.48 651.37,-174 666.77,-150.61 696.83,-139.07 721.17,-133.39"/>
<polygon fill="midnightblue" stroke="midnightblue" points="658.53,-226.32 667.39,-232.12 664.08,-222.05 658.53,-226.32"/>
</g>
<!-- Node22&#45;&gt;Node16 -->
<g id="edge39" class="edge">
<title>Node22&#45;&gt;Node16</title>
<path fill="none" stroke="midnightblue" d="M713.33,-241.31C784.71,-239.19 937.83,-230.64 975.37,-196 1002.23,-171.22 968.05,-141.35 994.37,-116 1020.84,-90.5 1123.72,-78.17 1183.21,-73.06"/>
<polygon fill="midnightblue" stroke="midnightblue" points="712.91,-237.82 703.01,-241.59 713.1,-244.82 712.91,-237.82"/>
</g>
<!-- Node22&#45;&gt;Node20 -->
<g id="edge33" class="edge">
<title>Node22&#45;&gt;Node20</title>
<path fill="none" stroke="midnightblue" d="M682.3,-222.45C685.06,-213.38 688.21,-203 690.44,-195.64"/>
<polygon fill="midnightblue" stroke="midnightblue" points="678.89,-221.66 679.33,-232.25 685.59,-223.69 678.89,-221.66"/>
</g>
<!-- Node22&#45;&gt;Node21 -->
<g id="edge34" class="edge">
<title>Node22&#45;&gt;Node21</title>
<path fill="none" stroke="midnightblue" d="M701.2,-227.05C717.75,-217.08 739.01,-204.28 753.36,-195.64"/>
<polygon fill="midnightblue" stroke="midnightblue" points="699.33,-224.09 692.57,-232.25 702.94,-230.09 699.33,-224.09"/>
</g>
<!-- Node23 -->
<g id="node23" class="node">
<title>Node23</title>
<g id="a_node23"><a xlink:href="box__display_8c.html" target="_top" xlink:title=" ">
<polygon fill="white" stroke="black" points="312.87,-116.5 312.87,-137.5 401.87,-137.5 401.87,-116.5 312.87,-116.5"/>
<text text-anchor="middle" x="357.37" y="-123.9" font-family="DejaVuSans" font-size="12.00">box_display.c</text>
</a>
</g>
</g>
<!-- Node22&#45;&gt;Node23 -->
<g id="edge30" class="edge">
<title>Node22&#45;&gt;Node23</title>
<path fill="none" stroke="midnightblue" d="M639.68,-239.26C574.98,-233.86 443.81,-220.21 405.37,-196 382.87,-181.83 367.92,-152.9 361.29,-137.75"/>
<polygon fill="midnightblue" stroke="midnightblue" points="639.59,-242.76 649.84,-240.08 640.15,-235.78 639.59,-242.76"/>
</g>
<!-- Node24 -->
<g id="node24" class="node">
<title>Node24</title>
<g id="a_node24"><a xlink:href="eqtb_8c.html" target="_top" xlink:title=" ">
<polygon fill="white" stroke="black" points="414.87,-174.5 414.87,-195.5 463.87,-195.5 463.87,-174.5 414.87,-174.5"/>
<text text-anchor="middle" x="439.37" y="-181.9" font-family="DejaVuSans" font-size="12.00">eqtb.c</text>
</a>
</g>
</g>
<!-- Node22&#45;&gt;Node24 -->
<g id="edge32" class="edge">
<title>Node22&#45;&gt;Node24</title>
<path fill="none" stroke="midnightblue" d="M639.62,-234.4C598.83,-225.8 531.12,-211.02 473.37,-196 470.39,-195.23 467.28,-194.37 464.2,-193.5"/>
<polygon fill="midnightblue" stroke="midnightblue" points="639.13,-237.88 649.64,-236.51 640.57,-231.03 639.13,-237.88"/>
</g>
<!-- Node25 -->
<g id="node25" class="node">
<title>Node25</title>
<g id="a_node25"><a xlink:href="hash_8c.html" target="_top" xlink:title=" ">
<polygon fill="white" stroke="black" points="482.37,-174.5 482.37,-195.5 534.37,-195.5 534.37,-174.5 482.37,-174.5"/>
<text text-anchor="middle" x="508.37" y="-181.9" font-family="DejaVuSans" font-size="12.00">hash.c</text>
</a>
</g>
</g>
<!-- Node22&#45;&gt;Node25 -->
<g id="edge35" class="edge">
<title>Node22&#45;&gt;Node25</title>
<path fill="none" stroke="midnightblue" d="M639.95,-229.86C608.2,-219.28 562.9,-204.18 534.59,-194.74"/>
<polygon fill="midnightblue" stroke="midnightblue" points="639.16,-233.28 649.75,-233.13 641.37,-226.64 639.16,-233.28"/>
</g>
<!-- Node26 -->
<g id="node26" class="node">
<title>Node26</title>
<g id="a_node26"><a xlink:href="lexer_8c.html" target="_top" xlink:title=" ">
<polygon fill="white" stroke="black" points="552.87,-174.5 552.87,-195.5 603.87,-195.5 603.87,-174.5 552.87,-174.5"/>
<text text-anchor="middle" x="578.37" y="-181.9" font-family="DejaVuSans" font-size="12.00">lexer.c</text>
</a>
</g>
</g>
<!-- Node22&#45;&gt;Node26 -->
<g id="edge36" class="edge">
<title>Node22&#45;&gt;Node26</title>
<path fill="none" stroke="midnightblue" d="M650.2,-227.05C632.76,-217.08 610.36,-204.28 595.24,-195.64"/>
<polygon fill="midnightblue" stroke="midnightblue" points="648.88,-230.32 659.3,-232.25 652.35,-224.25 648.88,-230.32"/>
</g>
<!-- Node22&#45;&gt;Node27 -->
<g id="edge38" class="edge">
<title>Node22&#45;&gt;Node27</title>
<path fill="none" stroke="midnightblue" d="M712.9,-228.89C744.31,-217.61 788.37,-201.8 813.27,-192.86"/>
<polygon fill="midnightblue" stroke="midnightblue" points="711.42,-225.7 703.19,-232.37 713.78,-232.29 711.42,-225.7"/>
</g>
<!-- Node28&#45;&gt;Node2 -->
<g id="edge41" class="edge">
<title>Node28&#45;&gt;Node2</title>
<path fill="none" stroke="midnightblue" d="M1441.89,-240.15C1410.29,-236.25 1369.49,-225.37 1348.37,-196 1335.96,-178.75 1341.5,-152.14 1345.88,-137.86"/>
<polygon fill="midnightblue" stroke="midnightblue" points="1441.91,-243.67 1452.21,-241.22 1442.63,-236.71 1441.91,-243.67"/>
</g>
<!-- Node28&#45;&gt;Node9 -->
<g id="edge59" class="edge">
<title>Node28&#45;&gt;Node9</title>
<path fill="none" stroke="midnightblue" d="M1442.27,-241.09C1324.62,-238.23 999.99,-227.6 898.37,-196 879.74,-190.2 877.73,-182.91 860.37,-174 833.76,-160.34 802.25,-146.47 781.37,-137.58"/>
<polygon fill="midnightblue" stroke="midnightblue" points="1442.27,-244.59 1452.35,-241.33 1442.43,-237.6 1442.27,-244.59"/>
</g>
<!-- Node28&#45;&gt;Node16 -->
<g id="edge61" class="edge">
<title>Node28&#45;&gt;Node16</title>
<path fill="none" stroke="midnightblue" d="M1528.44,-239.64C1619.45,-234.21 1824.7,-219.48 1845.37,-196 1851.83,-188.66 1851.5,-181.61 1845.37,-174 1773.08,-84.25 1397.73,-71.81 1269.43,-70.2"/>
<polygon fill="midnightblue" stroke="midnightblue" points="1528.22,-236.15 1518.44,-240.23 1528.63,-243.14 1528.22,-236.15"/>
</g>
<!-- Node29 -->
<g id="node29" class="node">
<title>Node29</title>
<g id="a_node29"><a xlink:href="extension_8h.html" target="_top" xlink:title=" ">
<polygon fill="white" stroke="black" points="1109.37,-174.5 1109.37,-195.5 1187.37,-195.5 1187.37,-174.5 1109.37,-174.5"/>
<text text-anchor="middle" x="1148.37" y="-181.9" font-family="DejaVuSans" font-size="12.00">extension.h</text>
</a>
</g>
</g>
<!-- Node28&#45;&gt;Node29 -->
<g id="edge42" class="edge">
<title>Node28&#45;&gt;Node29</title>
<path fill="none" stroke="midnightblue" d="M1442.06,-234.8C1375.99,-223.82 1251.03,-203.06 1187.53,-192.51"/>
<polygon fill="midnightblue" stroke="midnightblue" points="1441.7,-238.29 1452.14,-236.48 1442.84,-231.39 1441.7,-238.29"/>
</g>
<!-- Node32 -->
<g id="node32" class="node">
<title>Node32</title>
<g id="a_node32"><a xlink:href="linebreak_8c.html" target="_top" xlink:title=" ">
<polygon fill="white" stroke="black" points="1395.37,-116.5 1395.37,-137.5 1469.37,-137.5 1469.37,-116.5 1395.37,-116.5"/>
<text text-anchor="middle" x="1432.37" y="-123.9" font-family="DejaVuSans" font-size="12.00">linebreak.c</text>
</a>
</g>
</g>
<!-- Node28&#45;&gt;Node32 -->
<g id="edge58" class="edge">
<title>Node28&#45;&gt;Node32</title>
<path fill="none" stroke="midnightblue" d="M1528.66,-239.35C1616.67,-233.53 1809.83,-218.33 1829.37,-196 1835.81,-188.64 1835.92,-181.26 1829.37,-174 1776.83,-115.8 1555.8,-150.35 1478.37,-138 1475.46,-137.54 1472.47,-137.01 1469.46,-136.44"/>
<polygon fill="midnightblue" stroke="midnightblue" points="1528.22,-235.88 1518.47,-240.02 1528.67,-242.86 1528.22,-235.88"/>
</g>
<!-- Node34 -->
<g id="node34" class="node">
<title>Node34</title>
<g id="a_node34"><a xlink:href="hyphen_8c.html" target="_top" xlink:title=" ">
<polygon fill="white" stroke="black" points="1357.87,-174.5 1357.87,-195.5 1422.87,-195.5 1422.87,-174.5 1357.87,-174.5"/>
<text text-anchor="middle" x="1390.37" y="-181.9" font-family="DejaVuSans" font-size="12.00">hyphen.c</text>
</a>
</g>
</g>
<!-- Node28&#45;&gt;Node34 -->
<g id="edge54" class="edge">
<title>Node28&#45;&gt;Node34</title>
<path fill="none" stroke="midnightblue" d="M1460,-227.05C1443.1,-217.08 1421.38,-204.28 1406.73,-195.64"/>
<polygon fill="midnightblue" stroke="midnightblue" points="1458.43,-230.18 1468.82,-232.25 1461.99,-224.15 1458.43,-230.18"/>
</g>
<!-- Node35 -->
<g id="node35" class="node">
<title>Node35</title>
<g id="a_node35"><a xlink:href="hyphen__init_8c.html" target="_top" xlink:title=" ">
<polygon fill="white" stroke="black" points="1441.37,-174.5 1441.37,-195.5 1529.37,-195.5 1529.37,-174.5 1441.37,-174.5"/>
<text text-anchor="middle" x="1485.37" y="-181.9" font-family="DejaVuSans" font-size="12.00">hyphen_init.c</text>
</a>
</g>
</g>
<!-- Node28&#45;&gt;Node35 -->
<g id="edge55" class="edge">
<title>Node28&#45;&gt;Node35</title>
<path fill="none" stroke="midnightblue" d="M1485.37,-222.16C1485.37,-213.16 1485.37,-202.92 1485.37,-195.64"/>
<polygon fill="midnightblue" stroke="midnightblue" points="1481.87,-222.25 1485.37,-232.25 1488.87,-222.25 1481.87,-222.25"/>
</g>
<!-- Node36 -->
<g id="node36" class="node">
<title>Node36</title>
<g id="a_node36"><a xlink:href="hyphen__post_8c.html" target="_top" xlink:title=" ">
<polygon fill="white" stroke="black" points="1547.87,-174.5 1547.87,-195.5 1642.87,-195.5 1642.87,-174.5 1547.87,-174.5"/>
<text text-anchor="middle" x="1595.37" y="-181.9" font-family="DejaVuSans" font-size="12.00">hyphen_post.c</text>
</a>
</g>
</g>
<!-- Node28&#45;&gt;Node36 -->
<g id="edge56" class="edge">
<title>Node28&#45;&gt;Node36</title>
<path fill="none" stroke="midnightblue" d="M1513.66,-227.6C1533.38,-217.56 1559.15,-204.44 1576.43,-195.64"/>
<polygon fill="midnightblue" stroke="midnightblue" points="1511.85,-224.59 1504.53,-232.25 1515.03,-230.83 1511.85,-224.59"/>
</g>
<!-- Node37 -->
<g id="node37" class="node">
<title>Node37</title>
<g id="a_node37"><a xlink:href="hyphen__pre_8c.html" target="_top" xlink:title=" ">
<polygon fill="white" stroke="black" points="1660.87,-174.5 1660.87,-195.5 1749.87,-195.5 1749.87,-174.5 1660.87,-174.5"/>
<text text-anchor="middle" x="1705.37" y="-181.9" font-family="DejaVuSans" font-size="12.00">hyphen_pre.c</text>
</a>
</g>
</g>
<!-- Node28&#45;&gt;Node37 -->
<g id="edge57" class="edge">
<title>Node28&#45;&gt;Node37</title>
<path fill="none" stroke="midnightblue" d="M1528.66,-230.98C1569.27,-220.64 1629.37,-205.35 1667.95,-195.52"/>
<polygon fill="midnightblue" stroke="midnightblue" points="1527.61,-227.64 1518.78,-233.49 1529.34,-234.42 1527.61,-227.64"/>
</g>
<!-- Node38 -->
<g id="node38" class="node">
<title>Node38</title>
<g id="a_node38"><a xlink:href="mem_8c.html" target="_top" xlink:title=" ">
<polygon fill="white" stroke="black" points="1768.37,-174.5 1768.37,-195.5 1820.37,-195.5 1820.37,-174.5 1768.37,-174.5"/>
<text text-anchor="middle" x="1794.37" y="-181.9" font-family="DejaVuSans" font-size="12.00">mem.c</text>
</a>
</g>
</g>
<!-- Node28&#45;&gt;Node38 -->
<g id="edge60" class="edge">
<title>Node28&#45;&gt;Node38</title>
<path fill="none" stroke="midnightblue" d="M1528.45,-236.29C1582.67,-228.76 1678.49,-214.28 1759.37,-196 1762.21,-195.36 1765.15,-194.63 1768.08,-193.85"/>
<polygon fill="midnightblue" stroke="midnightblue" points="1527.93,-232.83 1518.5,-237.66 1528.88,-239.76 1527.93,-232.83"/>
</g>
<!-- Node29&#45;&gt;Node2 -->
<g id="edge46" class="edge">
<title>Node29&#45;&gt;Node2</title>
<path fill="none" stroke="midnightblue" d="M1192.74,-171.64C1231.88,-160.73 1287.74,-145.17 1321.1,-135.88"/>
<polygon fill="midnightblue" stroke="midnightblue" points="1191.62,-168.32 1182.92,-174.37 1193.5,-175.06 1191.62,-168.32"/>
</g>
<!-- Node29&#45;&gt;Node5 -->
<g id="edge47" class="edge">
<title>Node29&#45;&gt;Node5</title>
<path fill="none" stroke="midnightblue" d="M1134,-166.5C1126.17,-156.98 1116.79,-145.56 1110.29,-137.64"/>
<polygon fill="midnightblue" stroke="midnightblue" points="1131.31,-168.74 1140.36,-174.25 1136.71,-164.3 1131.31,-168.74"/>
</g>
<!-- Node29&#45;&gt;Node8 -->
<g id="edge48" class="edge">
<title>Node29&#45;&gt;Node8</title>
<path fill="none" stroke="midnightblue" d="M1150.55,-163.95C1151.11,-149.48 1149.67,-130.09 1140.37,-116 1128.82,-98.48 1108.14,-86.84 1090.7,-79.66"/>
<polygon fill="midnightblue" stroke="midnightblue" points="1147.03,-164.07 1149.79,-174.3 1154.01,-164.59 1147.03,-164.07"/>
</g>
<!-- Node29&#45;&gt;Node9 -->
<g id="edge50" class="edge">
<title>Node29&#45;&gt;Node9</title>
<path fill="none" stroke="midnightblue" d="M1098.99,-176.91C1019.8,-165.54 866.15,-143.48 795.52,-133.33"/>
<polygon fill="midnightblue" stroke="midnightblue" points="1098.79,-180.42 1109.19,-178.37 1099.79,-173.49 1098.79,-180.42"/>
</g>
<!-- Node29&#45;&gt;Node15 -->
<g id="edge52" class="edge">
<title>Node29&#45;&gt;Node15</title>
<path fill="none" stroke="midnightblue" d="M1098.82,-181.57C1017.5,-176.96 850.92,-164.89 712.37,-138 677.43,-131.22 670.17,-123.47 635.37,-116 532.92,-94.01 409.51,-79.42 351.92,-73.28"/>
<polygon fill="midnightblue" stroke="midnightblue" points="1099.07,-185.09 1109.25,-182.15 1099.46,-178.1 1099.07,-185.09"/>
</g>
<!-- Node29&#45;&gt;Node16 -->
<g id="edge53" class="edge">
<title>Node29&#45;&gt;Node16</title>
<path fill="none" stroke="midnightblue" d="M1197.4,-172.13C1228.37,-163.52 1264.21,-151.13 1273.37,-138 1287.82,-117.28 1260.19,-92.91 1241.5,-79.7"/>
<polygon fill="midnightblue" stroke="midnightblue" points="1196.3,-168.8 1187.56,-174.78 1198.12,-175.56 1196.3,-168.8"/>
</g>
<!-- Node29&#45;&gt;Node23 -->
<g id="edge45" class="edge">
<title>Node29&#45;&gt;Node23</title>
<path fill="none" stroke="midnightblue" d="M1099.26,-181.11C939.75,-171.69 444.53,-142.27 410.37,-138 407.68,-137.66 404.91,-137.27 402.13,-136.85"/>
<polygon fill="midnightblue" stroke="midnightblue" points="1099.08,-184.6 1109.27,-181.7 1099.49,-177.61 1099.08,-184.6"/>
</g>
<!-- Node30 -->
<g id="node30" class="node">
<title>Node30</title>
<g id="a_node30"><a xlink:href="box__copy_8c.html" target="_top" xlink:title=" ">
<polygon fill="white" stroke="black" points="1187.87,-116.5 1187.87,-137.5 1264.87,-137.5 1264.87,-116.5 1187.87,-116.5"/>
<text text-anchor="middle" x="1226.37" y="-123.9" font-family="DejaVuSans" font-size="12.00">box_copy.c</text>
</a>
</g>
</g>
<!-- Node29&#45;&gt;Node30 -->
<g id="edge43" class="edge">
<title>Node29&#45;&gt;Node30</title>
<path fill="none" stroke="midnightblue" d="M1170.36,-168.21C1184.06,-158.37 1201.24,-146.04 1212.94,-137.64"/>
<polygon fill="midnightblue" stroke="midnightblue" points="1168.04,-165.57 1161.96,-174.25 1172.12,-171.26 1168.04,-165.57"/>
</g>
<!-- Node31 -->
<g id="node31" class="node">
<title>Node31</title>
<g id="a_node31"><a xlink:href="box__destroy_8c.html" target="_top" xlink:title=" ">
<polygon fill="white" stroke="black" points="535.87,-116.5 535.87,-137.5 626.87,-137.5 626.87,-116.5 535.87,-116.5"/>
<text text-anchor="middle" x="581.37" y="-123.9" font-family="DejaVuSans" font-size="12.00">box_destroy.c</text>
</a>
</g>
</g>
<!-- Node29&#45;&gt;Node31 -->
<g id="edge44" class="edge">
<title>Node29&#45;&gt;Node31</title>
<path fill="none" stroke="midnightblue" d="M1098.95,-179.22C1013.44,-170.93 832.35,-153.31 679.37,-138 662.35,-136.3 643.68,-134.4 627.23,-132.72"/>
<polygon fill="midnightblue" stroke="midnightblue" points="1098.85,-182.72 1109.14,-180.21 1099.53,-175.76 1098.85,-182.72"/>
</g>
<!-- Node29&#45;&gt;Node32 -->
<g id="edge49" class="edge">
<title>Node29&#45;&gt;Node32</title>
<path fill="none" stroke="midnightblue" d="M1197.44,-174.86C1245.61,-165.81 1321.14,-151.39 1386.37,-138 1389.25,-137.41 1392.23,-136.79 1395.23,-136.15"/>
<polygon fill="midnightblue" stroke="midnightblue" points="1196.78,-171.42 1187.59,-176.71 1198.07,-178.3 1196.78,-171.42"/>
</g>
<!-- Node29&#45;&gt;Node33 -->
<g id="edge51" class="edge">
<title>Node29&#45;&gt;Node33</title>
<path fill="none" stroke="midnightblue" d="M1197.9,-179.4C1262.81,-172.85 1379.94,-159.21 1478.37,-138 1481.38,-137.35 1484.51,-136.58 1487.6,-135.75"/>
<polygon fill="midnightblue" stroke="midnightblue" points="1197.16,-175.95 1187.56,-180.43 1197.86,-182.92 1197.16,-175.95"/>
</g>
<!-- Node40&#45;&gt;Node7 -->
<g id="edge66" class="edge">
<title>Node40&#45;&gt;Node7</title>
<path fill="none" stroke="midnightblue" d="M250.16,-164.45C251.87,-149.06 256.76,-128.23 270.37,-116 301.19,-88.31 426.11,-75.91 480.67,-71.73"/>
<polygon fill="midnightblue" stroke="midnightblue" points="246.67,-164.26 249.41,-174.49 253.65,-164.79 246.67,-164.26"/>
</g>
<!-- Node40&#45;&gt;Node9 -->
<g id="edge69" class="edge">
<title>Node40&#45;&gt;Node9</title>
<path fill="none" stroke="midnightblue" d="M292.52,-179.25C390.58,-168.46 628.79,-142.26 721.03,-132.11"/>
<polygon fill="midnightblue" stroke="midnightblue" points="291.93,-175.8 282.38,-180.37 292.7,-182.75 291.93,-175.8"/>
</g>
<!-- Node40&#45;&gt;Node14 -->
<g id="edge72" class="edge">
<title>Node40&#45;&gt;Node14</title>
<path fill="none" stroke="midnightblue" d="M258.84,-165C267.92,-149 283.21,-127.01 303.37,-116 373.94,-77.48 583.39,-88.21 663.37,-80 678.71,-78.43 695.45,-76.68 710.53,-75.08"/>
<polygon fill="midnightblue" stroke="midnightblue" points="255.64,-163.57 254,-174.04 261.81,-166.88 255.64,-163.57"/>
</g>
<!-- Node40&#45;&gt;Node15 -->
<g id="edge74" class="edge">
<title>Node40&#45;&gt;Node15</title>
<path fill="none" stroke="midnightblue" d="M237.36,-165.15C229.89,-150.82 223.29,-131.07 232.37,-116 244.1,-96.54 267.12,-84.88 286.54,-78.17"/>
<polygon fill="midnightblue" stroke="midnightblue" points="234.47,-167.14 242.48,-174.08 240.54,-163.66 234.47,-167.14"/>
</g>
<!-- Node40&#45;&gt;Node16 -->
<g id="edge75" class="edge">
<title>Node40&#45;&gt;Node16</title>
<path fill="none" stroke="midnightblue" d="M292.74,-180.84C405.38,-172.57 705.35,-150.06 804.37,-138 813.79,-136.85 1077.45,-94.15 1183.15,-77.01"/>
<polygon fill="midnightblue" stroke="midnightblue" points="292.15,-177.37 282.43,-181.6 292.66,-184.36 292.15,-177.37"/>
</g>
<!-- Node40&#45;&gt;Node18 -->
<g id="edge70" class="edge">
<title>Node40&#45;&gt;Node18</title>
<path fill="none" stroke="midnightblue" d="M292.47,-172.98C332.89,-162.64 392.72,-147.35 431.12,-137.52"/>
<polygon fill="midnightblue" stroke="midnightblue" points="291.45,-169.63 282.63,-175.49 293.19,-176.41 291.45,-169.63"/>
</g>
<!-- Node40&#45;&gt;Node23 -->
<g id="edge68" class="edge">
<title>Node40&#45;&gt;Node23</title>
<path fill="none" stroke="midnightblue" d="M277.15,-169.6C296.51,-159.56 321.81,-146.44 338.77,-137.64"/>
<polygon fill="midnightblue" stroke="midnightblue" points="275.45,-166.54 268.18,-174.25 278.67,-172.75 275.45,-166.54"/>
</g>
<!-- Node40&#45;&gt;Node31 -->
<g id="edge67" class="edge">
<title>Node40&#45;&gt;Node31</title>
<path fill="none" stroke="midnightblue" d="M292.66,-177.02C347.21,-168.18 443.8,-152.36 526.37,-138 529.43,-137.47 532.58,-136.91 535.76,-136.35"/>
<polygon fill="midnightblue" stroke="midnightblue" points="291.97,-173.59 282.66,-178.64 293.09,-180.5 291.97,-173.59"/>
</g>
<!-- Node40&#45;&gt;Node39 -->
<g id="edge71" class="edge">
<title>Node40&#45;&gt;Node39</title>
<path fill="none" stroke="midnightblue" d="M206.53,-172.18C168.49,-161.69 113.71,-146.58 79.09,-137.03"/>
<polygon fill="midnightblue" stroke="midnightblue" points="205.73,-175.59 216.3,-174.88 207.59,-168.84 205.73,-175.59"/>
</g>
<!-- Node41 -->
<g id="node41" class="node">
<title>Node41</title>
<g id="a_node41"><a xlink:href="pagebreak_8c.html" target="_top" xlink:title=" ">
<polygon fill="white" stroke="black" points="96.87,-116.5 96.87,-137.5 179.87,-137.5 179.87,-116.5 96.87,-116.5"/>
<text text-anchor="middle" x="138.37" y="-123.9" font-family="DejaVuSans" font-size="12.00">pagebreak.c</text>
</a>
</g>
</g>
<!-- Node40&#45;&gt;Node41 -->
<g id="edge73" class="edge">
<title>Node40&#45;&gt;Node41</title>
<path fill="none" stroke="midnightblue" d="M221.3,-169.84C201.23,-159.71 174.78,-146.37 157.2,-137.5"/>
<polygon fill="midnightblue" stroke="midnightblue" points="219.78,-172.99 230.29,-174.37 222.94,-166.74 219.78,-172.99"/>
</g>
</g>
</svg>
