<?xml version="1.0" encoding="UTF-8" standalone="no"?>
<!DOCTYPE svg PUBLIC "-//W3C//DTD SVG 1.1//EN"
 "http://www.w3.org/Graphics/SVG/1.1/DTD/svg11.dtd">
<!-- Generated by graphviz version 2.44.0 ()
 -->
<!-- Title: dviout.c Pages: 1 -->
<svg width="569pt" height="378pt"
 viewBox="0.00 0.00 568.50 378.00" xmlns="http://www.w3.org/2000/svg" xmlns:xlink="http://www.w3.org/1999/xlink">
<g id="graph0" class="graph" transform="scale(1 1) rotate(0) translate(4 374)">
<title>dviout.c</title>
<polygon fill="white" stroke="transparent" points="-4,4 -4,-374 564.5,-374 564.5,4 -4,4"/>
<!-- Node1 -->
<g id="node1" class="node">
<title>Node1</title>
<g id="a_node1"><a xlink:title=" ">
<polygon fill="#bfbfbf" stroke="black" points="253.5,-348.5 253.5,-369.5 311.5,-369.5 311.5,-348.5 253.5,-348.5"/>
<text text-anchor="middle" x="282.5" y="-355.9" font-family="DejaVuSans" font-size="12.00">dviout.c</text>
</a>
</g>
</g>
<!-- Node2 -->
<g id="node2" class="node">
<title>Node2</title>
<g id="a_node2"><a xlink:title=" ">
<polygon fill="white" stroke="#bfbfbf" points="179.5,-0.5 179.5,-21.5 231.5,-21.5 231.5,-0.5 179.5,-0.5"/>
<text text-anchor="middle" x="205.5" y="-7.9" font-family="DejaVuSans" font-size="12.00">stdio.h</text>
</a>
</g>
</g>
<!-- Node1&#45;&gt;Node2 -->
<g id="edge1" class="edge">
<title>Node1&#45;&gt;Node2</title>
<path fill="none" stroke="midnightblue" d="M265.78,-348.44C238.27,-331.32 186.5,-292.64 186.5,-244 186.5,-244 186.5,-244 186.5,-126 186.5,-92.38 194.64,-53.92 200.27,-31.37"/>
<polygon fill="midnightblue" stroke="midnightblue" points="203.66,-32.23 202.78,-21.67 196.88,-30.47 203.66,-32.23"/>
</g>
<!-- Node3 -->
<g id="node3" class="node">
<title>Node3</title>
<g id="a_node3"><a xlink:title=" ">
<polygon fill="white" stroke="#bfbfbf" points="368.5,-290.5 368.5,-311.5 422.5,-311.5 422.5,-290.5 368.5,-290.5"/>
<text text-anchor="middle" x="395.5" y="-297.9" font-family="DejaVuSans" font-size="12.00">stdlib.h</text>
</a>
</g>
</g>
<!-- Node1&#45;&gt;Node3 -->
<g id="edge2" class="edge">
<title>Node1&#45;&gt;Node3</title>
<path fill="none" stroke="midnightblue" d="M301.93,-348.37C319.9,-339.46 346.84,-326.11 367.21,-316.02"/>
<polygon fill="midnightblue" stroke="midnightblue" points="368.92,-319.08 376.33,-311.5 365.81,-312.81 368.92,-319.08"/>
</g>
<!-- Node4 -->
<g id="node4" class="node">
<title>Node4</title>
<g id="a_node4"><a xlink:href="tex_8h.html" target="_top" xlink:title=" ">
<polygon fill="white" stroke="black" points="52.5,-290.5 52.5,-311.5 94.5,-311.5 94.5,-290.5 52.5,-290.5"/>
<text text-anchor="middle" x="73.5" y="-297.9" font-family="DejaVuSans" font-size="12.00">tex.h</text>
</a>
</g>
</g>
<!-- Node1&#45;&gt;Node4 -->
<g id="edge3" class="edge">
<title>Node1&#45;&gt;Node4</title>
<path fill="none" stroke="midnightblue" d="M253.44,-350.21C214.23,-339.71 144.68,-321.07 104.5,-310.31"/>
<polygon fill="midnightblue" stroke="midnightblue" points="105.28,-306.89 94.71,-307.68 103.47,-313.65 105.28,-306.89"/>
</g>
<!-- Node10 -->
<g id="node10" class="node">
<title>Node10</title>
<g id="a_node10"><a xlink:href="str_8h.html" target="_top" xlink:title=" ">
<polygon fill="white" stroke="black" points="105,-116.5 105,-137.5 144,-137.5 144,-116.5 105,-116.5"/>
<text text-anchor="middle" x="124.5" y="-123.9" font-family="DejaVuSans" font-size="12.00">str.h</text>
</a>
</g>
</g>
<!-- Node1&#45;&gt;Node10 -->
<g id="edge16" class="edge">
<title>Node1&#45;&gt;Node10</title>
<path fill="none" stroke="midnightblue" d="M253.49,-353.27C228.5,-347.68 193.26,-335.92 172.5,-312 131.1,-264.31 124.77,-185.15 124.21,-148.18"/>
<polygon fill="midnightblue" stroke="midnightblue" points="127.71,-147.75 124.2,-137.75 120.71,-147.76 127.71,-147.75"/>
</g>
<!-- Node11 -->
<g id="node11" class="node">
<title>Node11</title>
<g id="a_node11"><a xlink:href="global__const_8h.html" target="_top" xlink:title=" ">
<polygon fill="white" stroke="black" points="253,-58.5 253,-79.5 346,-79.5 346,-58.5 253,-58.5"/>
<text text-anchor="middle" x="299.5" y="-65.9" font-family="DejaVuSans" font-size="12.00">global_const.h</text>
</a>
</g>
</g>
<!-- Node1&#45;&gt;Node11 -->
<g id="edge21" class="edge">
<title>Node1&#45;&gt;Node11</title>
<path fill="none" stroke="midnightblue" d="M292.89,-348.35C301.69,-339.64 314.04,-326.06 321.5,-312 336.21,-284.28 340.5,-275.38 340.5,-244 340.5,-244 340.5,-244 340.5,-184 340.5,-148.62 322.79,-110.51 310.65,-88.53"/>
<polygon fill="midnightblue" stroke="midnightblue" points="313.56,-86.57 305.55,-79.64 307.49,-90.06 313.56,-86.57"/>
</g>
<!-- Node13 -->
<g id="node13" class="node">
<title>Node13</title>
<g id="a_node13"><a xlink:href="fonts_8h.html" target="_top" xlink:title=" ">
<polygon fill="white" stroke="black" points="236.5,-174.5 236.5,-195.5 288.5,-195.5 288.5,-174.5 236.5,-174.5"/>
<text text-anchor="middle" x="262.5" y="-181.9" font-family="DejaVuSans" font-size="12.00">fonts.h</text>
</a>
</g>
</g>
<!-- Node1&#45;&gt;Node13 -->
<g id="edge17" class="edge">
<title>Node1&#45;&gt;Node13</title>
<path fill="none" stroke="midnightblue" d="M271.05,-348.39C261.9,-339.9 249.76,-326.62 244.5,-312 231.48,-275.79 244.5,-230.55 254.16,-205.31"/>
<polygon fill="midnightblue" stroke="midnightblue" points="257.5,-206.39 258.01,-195.8 251.01,-203.76 257.5,-206.39"/>
</g>
<!-- Node14 -->
<g id="node14" class="node">
<title>Node14</title>
<g id="a_node14"><a xlink:href="dvicmd_8h.html" target="_top" xlink:title=" ">
<polygon fill="white" stroke="black" points="441,-290.5 441,-311.5 506,-311.5 506,-290.5 441,-290.5"/>
<text text-anchor="middle" x="473.5" y="-297.9" font-family="DejaVuSans" font-size="12.00">dvicmd.h</text>
</a>
</g>
</g>
<!-- Node1&#45;&gt;Node14 -->
<g id="edge20" class="edge">
<title>Node1&#45;&gt;Node14</title>
<path fill="none" stroke="midnightblue" d="M311.51,-349.49C343.37,-340.15 394.83,-325.07 431.19,-314.41"/>
<polygon fill="midnightblue" stroke="midnightblue" points="432.4,-317.7 441.01,-311.52 430.43,-310.98 432.4,-317.7"/>
</g>
<!-- Node15 -->
<g id="node15" class="node">
<title>Node15</title>
<g id="a_node15"><a xlink:href="io_8h.html" target="_top" xlink:title=" ">
<polygon fill="white" stroke="black" points="524.5,-290.5 524.5,-311.5 560.5,-311.5 560.5,-290.5 524.5,-290.5"/>
<text text-anchor="middle" x="542.5" y="-297.9" font-family="DejaVuSans" font-size="12.00">io.h</text>
</a>
</g>
</g>
<!-- Node1&#45;&gt;Node15 -->
<g id="edge22" class="edge">
<title>Node1&#45;&gt;Node15</title>
<path fill="none" stroke="midnightblue" d="M311.55,-353.8C354.16,-347.3 436.18,-333.55 514.33,-311.99"/>
<polygon fill="midnightblue" stroke="midnightblue" points="515.65,-315.25 524.33,-309.18 513.76,-308.51 515.65,-315.25"/>
</g>
<!-- Node16 -->
<g id="node16" class="node">
<title>Node16</title>
<g id="a_node16"><a xlink:href="dviout_8h.html" target="_top" xlink:title=" ">
<polygon fill="white" stroke="black" points="253,-290.5 253,-311.5 312,-311.5 312,-290.5 253,-290.5"/>
<text text-anchor="middle" x="282.5" y="-297.9" font-family="DejaVuSans" font-size="12.00">dviout.h</text>
</a>
</g>
</g>
<!-- Node1&#45;&gt;Node16 -->
<g id="edge23" class="edge">
<title>Node1&#45;&gt;Node16</title>
<path fill="none" stroke="midnightblue" d="M282.5,-348.25C282.5,-340.94 282.5,-330.69 282.5,-321.7"/>
<polygon fill="midnightblue" stroke="midnightblue" points="286,-321.64 282.5,-311.64 279,-321.64 286,-321.64"/>
</g>
<!-- Node5 -->
<g id="node5" class="node">
<title>Node5</title>
<g id="a_node5"><a xlink:href="tex__types_8h.html" target="_top" xlink:title=" ">
<polygon fill="white" stroke="black" points="0,-58.5 0,-79.5 77,-79.5 77,-58.5 0,-58.5"/>
<text text-anchor="middle" x="38.5" y="-65.9" font-family="DejaVuSans" font-size="12.00">tex_types.h</text>
</a>
</g>
</g>
<!-- Node4&#45;&gt;Node5 -->
<g id="edge4" class="edge">
<title>Node4&#45;&gt;Node5</title>
<path fill="none" stroke="midnightblue" d="M54.62,-290.37C41.53,-282.54 25.14,-270.15 17.5,-254 -8.65,-198.68 15.69,-123.92 29.9,-89.2"/>
<polygon fill="midnightblue" stroke="midnightblue" points="33.21,-90.35 33.91,-79.77 26.77,-87.6 33.21,-90.35"/>
</g>
<!-- Node8 -->
<g id="node8" class="node">
<title>Node8</title>
<g id="a_node8"><a xlink:href="tex__constant_8h.html" target="_top" xlink:title=" ">
<polygon fill="white" stroke="black" points="26.5,-232.5 26.5,-253.5 120.5,-253.5 120.5,-232.5 26.5,-232.5"/>
<text text-anchor="middle" x="73.5" y="-239.9" font-family="DejaVuSans" font-size="12.00">tex_constant.h</text>
</a>
</g>
</g>
<!-- Node4&#45;&gt;Node8 -->
<g id="edge7" class="edge">
<title>Node4&#45;&gt;Node8</title>
<path fill="none" stroke="midnightblue" d="M73.5,-290.25C73.5,-282.94 73.5,-272.69 73.5,-263.7"/>
<polygon fill="midnightblue" stroke="midnightblue" points="77,-263.64 73.5,-253.64 70,-263.64 77,-263.64"/>
</g>
<!-- Node6 -->
<g id="node6" class="node">
<title>Node6</title>
<g id="a_node6"><a xlink:title=" ">
<polygon fill="white" stroke="#bfbfbf" points="0,-0.5 0,-21.5 65,-21.5 65,-0.5 0,-0.5"/>
<text text-anchor="middle" x="32.5" y="-7.9" font-family="DejaVuSans" font-size="12.00">stdbool.h</text>
</a>
</g>
</g>
<!-- Node5&#45;&gt;Node6 -->
<g id="edge5" class="edge">
<title>Node5&#45;&gt;Node6</title>
<path fill="none" stroke="midnightblue" d="M37.45,-58.25C36.67,-50.94 35.57,-40.69 34.61,-31.7"/>
<polygon fill="midnightblue" stroke="midnightblue" points="38.08,-31.21 33.53,-21.64 31.12,-31.96 38.08,-31.21"/>
</g>
<!-- Node7 -->
<g id="node7" class="node">
<title>Node7</title>
<g id="a_node7"><a xlink:title=" ">
<polygon fill="white" stroke="#bfbfbf" points="83,-0.5 83,-21.5 138,-21.5 138,-0.5 83,-0.5"/>
<text text-anchor="middle" x="110.5" y="-7.9" font-family="DejaVuSans" font-size="12.00">stdint.h</text>
</a>
</g>
</g>
<!-- Node5&#45;&gt;Node7 -->
<g id="edge6" class="edge">
<title>Node5&#45;&gt;Node7</title>
<path fill="none" stroke="midnightblue" d="M51.04,-58.25C61.78,-49.89 77.45,-37.71 90,-27.94"/>
<polygon fill="midnightblue" stroke="midnightblue" points="92.36,-30.54 98.1,-21.64 88.06,-25.02 92.36,-30.54"/>
</g>
<!-- Node9 -->
<g id="node9" class="node">
<title>Node9</title>
<g id="a_node9"><a xlink:href="box_8h.html" target="_top" xlink:title=" ">
<polygon fill="white" stroke="black" points="62.5,-174.5 62.5,-195.5 108.5,-195.5 108.5,-174.5 62.5,-174.5"/>
<text text-anchor="middle" x="85.5" y="-181.9" font-family="DejaVuSans" font-size="12.00">box.h</text>
</a>
</g>
</g>
<!-- Node8&#45;&gt;Node9 -->
<g id="edge8" class="edge">
<title>Node8&#45;&gt;Node9</title>
<path fill="none" stroke="midnightblue" d="M75.59,-232.25C77.16,-224.94 79.35,-214.69 81.28,-205.7"/>
<polygon fill="midnightblue" stroke="midnightblue" points="84.76,-206.15 83.43,-195.64 77.92,-204.69 84.76,-206.15"/>
</g>
<!-- Node9&#45;&gt;Node10 -->
<g id="edge9" class="edge">
<title>Node9&#45;&gt;Node10</title>
<path fill="none" stroke="midnightblue" d="M92.29,-174.25C97.72,-166.46 105.47,-155.33 112,-145.94"/>
<polygon fill="midnightblue" stroke="midnightblue" points="114.94,-147.85 117.78,-137.64 109.2,-143.85 114.94,-147.85"/>
</g>
<!-- Node10&#45;&gt;Node2 -->
<g id="edge10" class="edge">
<title>Node10&#45;&gt;Node2</title>
<path fill="none" stroke="midnightblue" d="M131.31,-116.3C140.6,-103.09 157.75,-78.72 172.5,-58 179.03,-48.83 186.32,-38.65 192.39,-30.21"/>
<polygon fill="midnightblue" stroke="midnightblue" points="195.4,-32.02 198.4,-21.85 189.72,-27.93 195.4,-32.02"/>
</g>
<!-- Node10&#45;&gt;Node5 -->
<g id="edge15" class="edge">
<title>Node10&#45;&gt;Node5</title>
<path fill="none" stroke="midnightblue" d="M109.52,-116.25C96.32,-107.65 76.89,-95 61.69,-85.1"/>
<polygon fill="midnightblue" stroke="midnightblue" points="63.6,-82.17 53.31,-79.64 59.78,-88.03 63.6,-82.17"/>
</g>
<!-- Node10&#45;&gt;Node7 -->
<g id="edge11" class="edge">
<title>Node10&#45;&gt;Node7</title>
<path fill="none" stroke="midnightblue" d="M123.31,-116.28C121.01,-97.6 115.95,-56.37 112.92,-31.72"/>
<polygon fill="midnightblue" stroke="midnightblue" points="116.38,-31.19 111.69,-21.69 109.44,-32.05 116.38,-31.19"/>
</g>
<!-- Node10&#45;&gt;Node11 -->
<g id="edge12" class="edge">
<title>Node10&#45;&gt;Node11</title>
<path fill="none" stroke="midnightblue" d="M144.23,-119.68C172.18,-110.74 223.88,-94.2 259.91,-82.67"/>
<polygon fill="midnightblue" stroke="midnightblue" points="261.17,-85.94 269.63,-79.56 259.04,-79.27 261.17,-85.94"/>
</g>
<!-- Node11&#45;&gt;Node2 -->
<g id="edge14" class="edge">
<title>Node11&#45;&gt;Node2</title>
<path fill="none" stroke="midnightblue" d="M283.13,-58.25C268.57,-49.57 247.07,-36.76 230.38,-26.82"/>
<polygon fill="midnightblue" stroke="midnightblue" points="232.07,-23.75 221.69,-21.64 228.49,-29.77 232.07,-23.75"/>
</g>
<!-- Node12 -->
<g id="node12" class="node">
<title>Node12</title>
<g id="a_node12"><a xlink:title=" ">
<polygon fill="white" stroke="#bfbfbf" points="270,-0.5 270,-21.5 329,-21.5 329,-0.5 270,-0.5"/>
<text text-anchor="middle" x="299.5" y="-7.9" font-family="DejaVuSans" font-size="12.00">assert.h</text>
</a>
</g>
</g>
<!-- Node11&#45;&gt;Node12 -->
<g id="edge13" class="edge">
<title>Node11&#45;&gt;Node12</title>
<path fill="none" stroke="midnightblue" d="M299.5,-58.25C299.5,-50.94 299.5,-40.69 299.5,-31.7"/>
<polygon fill="midnightblue" stroke="midnightblue" points="303,-31.64 299.5,-21.64 296,-31.64 303,-31.64"/>
</g>
<!-- Node13&#45;&gt;Node2 -->
<g id="edge18" class="edge">
<title>Node13&#45;&gt;Node2</title>
<path fill="none" stroke="midnightblue" d="M259.27,-174.26C250.14,-146.71 224,-67.83 211.85,-31.17"/>
<polygon fill="midnightblue" stroke="midnightblue" points="215.16,-30.02 208.69,-21.63 208.52,-32.23 215.16,-30.02"/>
</g>
<!-- Node13&#45;&gt;Node11 -->
<g id="edge19" class="edge">
<title>Node13&#45;&gt;Node11</title>
<path fill="none" stroke="midnightblue" d="M265.65,-174.28C271.74,-155.52 285.22,-114 293.21,-89.38"/>
<polygon fill="midnightblue" stroke="midnightblue" points="296.6,-90.29 296.35,-79.69 289.94,-88.13 296.6,-90.29"/>
</g>
<!-- Node16&#45;&gt;Node13 -->
<g id="edge24" class="edge">
<title>Node16&#45;&gt;Node13</title>
<path fill="none" stroke="midnightblue" d="M280.79,-290.28C277.52,-271.6 270.28,-230.37 265.96,-205.72"/>
<polygon fill="midnightblue" stroke="midnightblue" points="269.38,-204.94 264.2,-195.69 262.48,-206.15 269.38,-204.94"/>
</g>
</g>
</svg>
