<?xml version="1.0" encoding="UTF-8" standalone="no"?>
<!DOCTYPE svg PUBLIC "-//W3C//DTD SVG 1.1//EN"
 "http://www.w3.org/Graphics/SVG/1.1/DTD/svg11.dtd">
<!-- Generated by graphviz version 2.44.0 ()
 -->
<!-- Title: dviout.h Pages: 1 -->
<svg width="455pt" height="378pt"
 viewBox="0.00 0.00 454.50 378.00" xmlns="http://www.w3.org/2000/svg" xmlns:xlink="http://www.w3.org/1999/xlink">
<g id="graph0" class="graph" transform="scale(1 1) rotate(0) translate(4 374)">
<title>dviout.h</title>
<polygon fill="white" stroke="transparent" points="-4,4 -4,-374 450.5,-374 450.5,4 -4,4"/>
<!-- Node1 -->
<g id="node1" class="node">
<title>Node1</title>
<g id="a_node1"><a xlink:title=" ">
<polygon fill="#bfbfbf" stroke="black" points="293.5,-348.5 293.5,-369.5 352.5,-369.5 352.5,-348.5 293.5,-348.5"/>
<text text-anchor="middle" x="323" y="-355.9" font-family="DejaVuSans" font-size="12.00">dviout.h</text>
</a>
</g>
</g>
<!-- Node2 -->
<g id="node2" class="node">
<title>Node2</title>
<g id="a_node2"><a xlink:href="global_8h.html" target="_top" xlink:title=" ">
<polygon fill="white" stroke="black" points="164,-116.5 164,-137.5 222,-137.5 222,-116.5 164,-116.5"/>
<text text-anchor="middle" x="193" y="-123.9" font-family="DejaVuSans" font-size="12.00">global.h</text>
</a>
</g>
</g>
<!-- Node1&#45;&gt;Node2 -->
<g id="edge1" class="edge">
<title>Node1&#45;&gt;Node2</title>
<path fill="none" stroke="midnightblue" d="M330.04,-348.44C350.74,-319.13 407.3,-229.1 365,-174 348.93,-153.07 277.82,-139.6 232.21,-132.95"/>
<polygon fill="midnightblue" stroke="midnightblue" points="232.44,-129.45 222.05,-131.52 231.47,-136.38 232.44,-129.45"/>
</g>
<!-- Node10 -->
<g id="node10" class="node">
<title>Node10</title>
<g id="a_node10"><a xlink:href="charset_8h.html" target="_top" xlink:title=" ">
<polygon fill="white" stroke="black" points="290.5,-174.5 290.5,-195.5 355.5,-195.5 355.5,-174.5 290.5,-174.5"/>
<text text-anchor="middle" x="323" y="-181.9" font-family="DejaVuSans" font-size="12.00">charset.h</text>
</a>
</g>
</g>
<!-- Node1&#45;&gt;Node10 -->
<g id="edge9" class="edge">
<title>Node1&#45;&gt;Node10</title>
<path fill="none" stroke="midnightblue" d="M323,-348.26C323,-320.82 323,-242.51 323,-205.64"/>
<polygon fill="midnightblue" stroke="midnightblue" points="326.5,-205.63 323,-195.63 319.5,-205.63 326.5,-205.63"/>
</g>
<!-- Node11 -->
<g id="node11" class="node">
<title>Node11</title>
<g id="a_node11"><a xlink:href="fonts_8h.html" target="_top" xlink:title=" ">
<polygon fill="white" stroke="black" points="136,-290.5 136,-311.5 188,-311.5 188,-290.5 136,-290.5"/>
<text text-anchor="middle" x="162" y="-297.9" font-family="DejaVuSans" font-size="12.00">fonts.h</text>
</a>
</g>
</g>
<!-- Node1&#45;&gt;Node11 -->
<g id="edge11" class="edge">
<title>Node1&#45;&gt;Node11</title>
<path fill="none" stroke="midnightblue" d="M295.32,-348.37C268.34,-338.99 227.19,-324.68 197.75,-314.43"/>
<polygon fill="midnightblue" stroke="midnightblue" points="198.84,-311.11 188.25,-311.13 196.54,-317.72 198.84,-311.11"/>
</g>
<!-- Node3 -->
<g id="node3" class="node">
<title>Node3</title>
<g id="a_node3"><a xlink:href="global__macros_8h.html" target="_top" xlink:title=" ">
<polygon fill="white" stroke="black" points="130,-58.5 130,-79.5 234,-79.5 234,-58.5 130,-58.5"/>
<text text-anchor="middle" x="182" y="-65.9" font-family="DejaVuSans" font-size="12.00">global_macros.h</text>
</a>
</g>
</g>
<!-- Node2&#45;&gt;Node3 -->
<g id="edge2" class="edge">
<title>Node2&#45;&gt;Node3</title>
<path fill="none" stroke="midnightblue" d="M191.08,-116.25C189.65,-108.94 187.64,-98.69 185.87,-89.7"/>
<polygon fill="midnightblue" stroke="midnightblue" points="189.26,-88.78 183.89,-79.64 182.39,-90.13 189.26,-88.78"/>
</g>
<!-- Node5 -->
<g id="node5" class="node">
<title>Node5</title>
<g id="a_node5"><a xlink:href="global__const_8h.html" target="_top" xlink:title=" ">
<polygon fill="white" stroke="black" points="12.5,-58.5 12.5,-79.5 105.5,-79.5 105.5,-58.5 12.5,-58.5"/>
<text text-anchor="middle" x="59" y="-65.9" font-family="DejaVuSans" font-size="12.00">global_const.h</text>
</a>
</g>
</g>
<!-- Node2&#45;&gt;Node5 -->
<g id="edge4" class="edge">
<title>Node2&#45;&gt;Node5</title>
<path fill="none" stroke="midnightblue" d="M169.96,-116.37C148.26,-107.3 115.54,-93.63 91.25,-83.48"/>
<polygon fill="midnightblue" stroke="midnightblue" points="92.31,-80.13 81.73,-79.5 89.61,-86.59 92.31,-80.13"/>
</g>
<!-- Node6 -->
<g id="node6" class="node">
<title>Node6</title>
<g id="a_node6"><a xlink:href="tex__types_8h.html" target="_top" xlink:title=" ">
<polygon fill="white" stroke="black" points="294.5,-58.5 294.5,-79.5 371.5,-79.5 371.5,-58.5 294.5,-58.5"/>
<text text-anchor="middle" x="333" y="-65.9" font-family="DejaVuSans" font-size="12.00">tex_types.h</text>
</a>
</g>
</g>
<!-- Node2&#45;&gt;Node6 -->
<g id="edge5" class="edge">
<title>Node2&#45;&gt;Node6</title>
<path fill="none" stroke="midnightblue" d="M217.07,-116.37C239.84,-107.26 274.23,-93.51 299.65,-83.34"/>
<polygon fill="midnightblue" stroke="midnightblue" points="301.26,-86.46 309.25,-79.5 298.66,-79.97 301.26,-86.46"/>
</g>
<!-- Node4 -->
<g id="node4" class="node">
<title>Node4</title>
<g id="a_node4"><a xlink:title=" ">
<polygon fill="white" stroke="#bfbfbf" points="152.5,-0.5 152.5,-21.5 211.5,-21.5 211.5,-0.5 152.5,-0.5"/>
<text text-anchor="middle" x="182" y="-7.9" font-family="DejaVuSans" font-size="12.00">assert.h</text>
</a>
</g>
</g>
<!-- Node3&#45;&gt;Node4 -->
<g id="edge3" class="edge">
<title>Node3&#45;&gt;Node4</title>
<path fill="none" stroke="midnightblue" d="M182,-58.25C182,-50.94 182,-40.69 182,-31.7"/>
<polygon fill="midnightblue" stroke="midnightblue" points="185.5,-31.64 182,-21.64 178.5,-31.64 185.5,-31.64"/>
</g>
<!-- Node7 -->
<g id="node7" class="node">
<title>Node7</title>
<g id="a_node7"><a xlink:title=" ">
<polygon fill="white" stroke="#bfbfbf" points="304.5,-0.5 304.5,-21.5 369.5,-21.5 369.5,-0.5 304.5,-0.5"/>
<text text-anchor="middle" x="337" y="-7.9" font-family="DejaVuSans" font-size="12.00">stdbool.h</text>
</a>
</g>
</g>
<!-- Node6&#45;&gt;Node7 -->
<g id="edge6" class="edge">
<title>Node6&#45;&gt;Node7</title>
<path fill="none" stroke="midnightblue" d="M333.7,-58.25C334.22,-50.94 334.95,-40.69 335.59,-31.7"/>
<polygon fill="midnightblue" stroke="midnightblue" points="339.09,-31.87 336.31,-21.64 332.11,-31.37 339.09,-31.87"/>
</g>
<!-- Node8 -->
<g id="node8" class="node">
<title>Node8</title>
<g id="a_node8"><a xlink:title=" ">
<polygon fill="white" stroke="#bfbfbf" points="231.5,-0.5 231.5,-21.5 286.5,-21.5 286.5,-0.5 231.5,-0.5"/>
<text text-anchor="middle" x="259" y="-7.9" font-family="DejaVuSans" font-size="12.00">stdint.h</text>
</a>
</g>
</g>
<!-- Node6&#45;&gt;Node8 -->
<g id="edge7" class="edge">
<title>Node6&#45;&gt;Node8</title>
<path fill="none" stroke="midnightblue" d="M320.11,-58.25C309.07,-49.89 292.97,-37.71 280.06,-27.94"/>
<polygon fill="midnightblue" stroke="midnightblue" points="281.83,-24.89 271.74,-21.64 277.6,-30.47 281.83,-24.89"/>
</g>
<!-- Node9 -->
<g id="node9" class="node">
<title>Node9</title>
<g id="a_node9"><a xlink:title=" ">
<polygon fill="white" stroke="#bfbfbf" points="387.5,-0.5 387.5,-21.5 446.5,-21.5 446.5,-0.5 387.5,-0.5"/>
<text text-anchor="middle" x="417" y="-7.9" font-family="DejaVuSans" font-size="12.00">stddef.h</text>
</a>
</g>
</g>
<!-- Node6&#45;&gt;Node9 -->
<g id="edge8" class="edge">
<title>Node6&#45;&gt;Node9</title>
<path fill="none" stroke="midnightblue" d="M347.63,-58.25C360.4,-49.73 379.14,-37.24 393.93,-27.38"/>
<polygon fill="midnightblue" stroke="midnightblue" points="396.16,-30.1 402.54,-21.64 392.27,-24.28 396.16,-30.1"/>
</g>
<!-- Node10&#45;&gt;Node2 -->
<g id="edge10" class="edge">
<title>Node10&#45;&gt;Node2</title>
<path fill="none" stroke="midnightblue" d="M300.65,-174.37C279.6,-165.3 247.85,-151.63 224.28,-141.48"/>
<polygon fill="midnightblue" stroke="midnightblue" points="225.63,-138.24 215.06,-137.5 222.86,-144.67 225.63,-138.24"/>
</g>
<!-- Node11&#45;&gt;Node2 -->
<g id="edge13" class="edge">
<title>Node11&#45;&gt;Node2</title>
<path fill="none" stroke="midnightblue" d="M138.89,-290.49C123.97,-282.99 105.77,-270.94 97,-254 92.51,-245.32 94.75,-241.52 97,-232 103.62,-203.95 107.07,-195.74 126,-174 136.99,-161.38 152.18,-150.58 165.32,-142.62"/>
<polygon fill="midnightblue" stroke="midnightblue" points="167.12,-145.62 174.01,-137.58 163.61,-139.57 167.12,-145.62"/>
</g>
<!-- Node12 -->
<g id="node12" class="node">
<title>Node12</title>
<g id="a_node12"><a xlink:title=" ">
<polygon fill="white" stroke="#bfbfbf" points="144,-174.5 144,-195.5 196,-195.5 196,-174.5 144,-174.5"/>
<text text-anchor="middle" x="170" y="-181.9" font-family="DejaVuSans" font-size="12.00">stdio.h</text>
</a>
</g>
</g>
<!-- Node11&#45;&gt;Node12 -->
<g id="edge12" class="edge">
<title>Node11&#45;&gt;Node12</title>
<path fill="none" stroke="midnightblue" d="M164.49,-290.21C166.7,-280.95 169.78,-266.64 171,-254 172.57,-237.84 172.16,-219.42 171.45,-205.83"/>
<polygon fill="midnightblue" stroke="midnightblue" points="174.94,-205.47 170.82,-195.71 167.95,-205.91 174.94,-205.47"/>
</g>
<!-- Node13 -->
<g id="node13" class="node">
<title>Node13</title>
<g id="a_node13"><a xlink:href="tex__constant_8h.html" target="_top" xlink:title=" ">
<polygon fill="white" stroke="black" points="0,-116.5 0,-137.5 94,-137.5 94,-116.5 0,-116.5"/>
<text text-anchor="middle" x="47" y="-123.9" font-family="DejaVuSans" font-size="12.00">tex_constant.h</text>
</a>
</g>
</g>
<!-- Node11&#45;&gt;Node13 -->
<g id="edge14" class="edge">
<title>Node11&#45;&gt;Node13</title>
<path fill="none" stroke="midnightblue" d="M139.64,-290.35C124.03,-282.59 103.79,-270.28 91,-254 65.7,-221.8 54.36,-174 49.77,-147.49"/>
<polygon fill="midnightblue" stroke="midnightblue" points="53.21,-146.87 48.19,-137.54 46.3,-147.97 53.21,-146.87"/>
</g>
<!-- Node14 -->
<g id="node14" class="node">
<title>Node14</title>
<g id="a_node14"><a xlink:href="str_8h.html" target="_top" xlink:title=" ">
<polygon fill="white" stroke="black" points="218.5,-232.5 218.5,-253.5 257.5,-253.5 257.5,-232.5 218.5,-232.5"/>
<text text-anchor="middle" x="238" y="-239.9" font-family="DejaVuSans" font-size="12.00">str.h</text>
</a>
</g>
</g>
<!-- Node11&#45;&gt;Node14 -->
<g id="edge16" class="edge">
<title>Node11&#45;&gt;Node14</title>
<path fill="none" stroke="midnightblue" d="M175.24,-290.25C186.68,-281.81 203.43,-269.47 216.75,-259.66"/>
<polygon fill="midnightblue" stroke="midnightblue" points="218.94,-262.39 224.91,-253.64 214.79,-256.76 218.94,-262.39"/>
</g>
<!-- Node15 -->
<g id="node15" class="node">
<title>Node15</title>
<g id="a_node15"><a xlink:href="dump_8h.html" target="_top" xlink:title=" ">
<polygon fill="white" stroke="black" points="106,-232.5 106,-253.5 162,-253.5 162,-232.5 106,-232.5"/>
<text text-anchor="middle" x="134" y="-239.9" font-family="DejaVuSans" font-size="12.00">dump.h</text>
</a>
</g>
</g>
<!-- Node11&#45;&gt;Node15 -->
<g id="edge21" class="edge">
<title>Node11&#45;&gt;Node15</title>
<path fill="none" stroke="midnightblue" d="M157.12,-290.25C153.35,-282.7 148.01,-272.02 143.41,-262.82"/>
<polygon fill="midnightblue" stroke="midnightblue" points="146.42,-261.02 138.82,-253.64 140.16,-264.15 146.42,-261.02"/>
</g>
<!-- Node13&#45;&gt;Node5 -->
<g id="edge15" class="edge">
<title>Node13&#45;&gt;Node5</title>
<path fill="none" stroke="midnightblue" d="M49.09,-116.25C50.66,-108.94 52.85,-98.69 54.78,-89.7"/>
<polygon fill="midnightblue" stroke="midnightblue" points="58.26,-90.15 56.93,-79.64 51.42,-88.69 58.26,-90.15"/>
</g>
<!-- Node14&#45;&gt;Node2 -->
<g id="edge19" class="edge">
<title>Node14&#45;&gt;Node2</title>
<path fill="none" stroke="midnightblue" d="M234.16,-232.28C226.72,-213.43 210.22,-171.62 200.52,-147.05"/>
<polygon fill="midnightblue" stroke="midnightblue" points="203.75,-145.71 196.83,-137.69 197.24,-148.28 203.75,-145.71"/>
</g>
<!-- Node14&#45;&gt;Node8 -->
<g id="edge18" class="edge">
<title>Node14&#45;&gt;Node8</title>
<path fill="none" stroke="midnightblue" d="M238.88,-232.41C242.03,-197.85 252.86,-79.24 257.19,-31.82"/>
<polygon fill="midnightblue" stroke="midnightblue" points="260.7,-31.91 258.12,-21.63 253.73,-31.27 260.7,-31.91"/>
</g>
<!-- Node14&#45;&gt;Node10 -->
<g id="edge20" class="edge">
<title>Node14&#45;&gt;Node10</title>
<path fill="none" stroke="midnightblue" d="M252.81,-232.25C265.73,-223.73 284.69,-211.24 299.66,-201.38"/>
<polygon fill="midnightblue" stroke="midnightblue" points="301.94,-204.07 308.36,-195.64 298.09,-198.22 301.94,-204.07"/>
</g>
<!-- Node14&#45;&gt;Node12 -->
<g id="edge17" class="edge">
<title>Node14&#45;&gt;Node12</title>
<path fill="none" stroke="midnightblue" d="M226.16,-232.25C216.11,-223.97 201.5,-211.94 189.7,-202.22"/>
<polygon fill="midnightblue" stroke="midnightblue" points="191.65,-199.3 181.71,-195.64 187.2,-204.7 191.65,-199.3"/>
</g>
<!-- Node15&#45;&gt;Node2 -->
<g id="edge23" class="edge">
<title>Node15&#45;&gt;Node2</title>
<path fill="none" stroke="midnightblue" d="M131.64,-232.16C128.86,-218.36 125.72,-192.85 135,-174 141.42,-160.95 153.5,-150.45 164.98,-142.8"/>
<polygon fill="midnightblue" stroke="midnightblue" points="166.87,-145.74 173.53,-137.5 163.19,-139.79 166.87,-145.74"/>
</g>
<!-- Node15&#45;&gt;Node12 -->
<g id="edge22" class="edge">
<title>Node15&#45;&gt;Node12</title>
<path fill="none" stroke="midnightblue" d="M140.27,-232.25C145.23,-224.54 152.28,-213.56 158.28,-204.23"/>
<polygon fill="midnightblue" stroke="midnightblue" points="161.34,-205.95 163.8,-195.64 155.45,-202.16 161.34,-205.95"/>
</g>
</g>
</svg>
