<?xml version="1.0" encoding="UTF-8" standalone="no"?>
<!DOCTYPE svg PUBLIC "-//W3C//DTD SVG 1.1//EN"
 "http://www.w3.org/Graphics/SVG/1.1/DTD/svg11.dtd">
<!-- Generated by graphviz version 2.44.0 ()
 -->
<!-- Title: dviout.h Pages: 1 -->
<svg width="731pt" height="204pt"
 viewBox="0.00 0.00 730.50 204.00" xmlns="http://www.w3.org/2000/svg" xmlns:xlink="http://www.w3.org/1999/xlink">
<g id="graph0" class="graph" transform="scale(1 1) rotate(0) translate(4 200)">
<title>dviout.h</title>
<polygon fill="white" stroke="transparent" points="-4,4 -4,-200 726.5,-200 726.5,4 -4,4"/>
<!-- Node1 -->
<g id="node1" class="node">
<title>Node1</title>
<g id="a_node1"><a xlink:title=" ">
<polygon fill="#bfbfbf" stroke="black" points="345,-174.5 345,-195.5 404,-195.5 404,-174.5 345,-174.5"/>
<text text-anchor="middle" x="374.5" y="-181.9" font-family="DejaVuSans" font-size="12.00">dviout.h</text>
</a>
</g>
</g>
<!-- Node2 -->
<g id="node2" class="node">
<title>Node2</title>
<g id="a_node2"><a xlink:href="align_8c.html" target="_top" xlink:title=" ">
<polygon fill="white" stroke="black" points="0,-58.5 0,-79.5 51,-79.5 51,-58.5 0,-58.5"/>
<text text-anchor="middle" x="25.5" y="-65.9" font-family="DejaVuSans" font-size="12.00">align.c</text>
</a>
</g>
</g>
<!-- Node1&#45;&gt;Node2 -->
<g id="edge1" class="edge">
<title>Node1&#45;&gt;Node2</title>
<path fill="none" stroke="midnightblue" d="M334.93,-175.38C298.37,-167.05 242.75,-153.45 195.5,-138 140.97,-120.17 78.82,-93.68 46.91,-79.6"/>
<polygon fill="midnightblue" stroke="midnightblue" points="334.18,-178.8 344.71,-177.58 335.72,-171.97 334.18,-178.8"/>
</g>
<!-- Node3 -->
<g id="node3" class="node">
<title>Node3</title>
<g id="a_node3"><a xlink:href="dviout_8c.html" target="_top" xlink:title=" ">
<polygon fill="white" stroke="black" points="421.5,-116.5 421.5,-137.5 479.5,-137.5 479.5,-116.5 421.5,-116.5"/>
<text text-anchor="middle" x="450.5" y="-123.9" font-family="DejaVuSans" font-size="12.00">dviout.c</text>
</a>
</g>
</g>
<!-- Node1&#45;&gt;Node3 -->
<g id="edge2" class="edge">
<title>Node1&#45;&gt;Node3</title>
<path fill="none" stroke="midnightblue" d="M395.93,-168.21C409.28,-158.37 426.02,-146.04 437.41,-137.64"/>
<polygon fill="midnightblue" stroke="midnightblue" points="393.71,-165.5 387.74,-174.25 397.86,-171.13 393.71,-165.5"/>
</g>
<!-- Node4 -->
<g id="node4" class="node">
<title>Node4</title>
<g id="a_node4"><a xlink:href="extension_8c.html" target="_top" xlink:title=" ">
<polygon fill="white" stroke="black" points="69,-58.5 69,-79.5 146,-79.5 146,-58.5 69,-58.5"/>
<text text-anchor="middle" x="107.5" y="-65.9" font-family="DejaVuSans" font-size="12.00">extension.c</text>
</a>
</g>
</g>
<!-- Node1&#45;&gt;Node4 -->
<g id="edge3" class="edge">
<title>Node1&#45;&gt;Node4</title>
<path fill="none" stroke="midnightblue" d="M335.41,-171.54C309.36,-162.9 274.51,-150.7 244.5,-138 200.73,-119.47 151.19,-93.61 125.35,-79.73"/>
<polygon fill="midnightblue" stroke="midnightblue" points="334.35,-174.87 344.94,-174.67 336.54,-168.22 334.35,-174.87"/>
</g>
<!-- Node5 -->
<g id="node5" class="node">
<title>Node5</title>
<g id="a_node5"><a xlink:href="main__ctrl_8h.html" target="_top" xlink:title=" ">
<polygon fill="white" stroke="black" points="253.5,-116.5 253.5,-137.5 327.5,-137.5 327.5,-116.5 253.5,-116.5"/>
<text text-anchor="middle" x="290.5" y="-123.9" font-family="DejaVuSans" font-size="12.00">main_ctrl.h</text>
</a>
</g>
</g>
<!-- Node1&#45;&gt;Node5 -->
<g id="edge4" class="edge">
<title>Node1&#45;&gt;Node5</title>
<path fill="none" stroke="midnightblue" d="M351.24,-168.49C336.41,-158.61 317.68,-146.12 304.96,-137.64"/>
<polygon fill="midnightblue" stroke="midnightblue" points="349.61,-171.61 359.87,-174.25 353.49,-165.79 349.61,-171.61"/>
</g>
<!-- Node10 -->
<g id="node10" class="node">
<title>Node10</title>
<g id="a_node10"><a xlink:href="page__builder_8c.html" target="_top" xlink:title=" ">
<polygon fill="white" stroke="black" points="523,-58.5 523,-79.5 618,-79.5 618,-58.5 523,-58.5"/>
<text text-anchor="middle" x="570.5" y="-65.9" font-family="DejaVuSans" font-size="12.00">page_builder.c</text>
</a>
</g>
</g>
<!-- Node1&#45;&gt;Node10 -->
<g id="edge18" class="edge">
<title>Node1&#45;&gt;Node10</title>
<path fill="none" stroke="midnightblue" d="M370.24,-164.12C368.26,-149.17 368.39,-129.09 379.5,-116 388.83,-105.01 469.08,-88.49 522.55,-78.52"/>
<polygon fill="midnightblue" stroke="midnightblue" points="366.86,-165.1 372.02,-174.36 373.75,-163.9 366.86,-165.1"/>
</g>
<!-- Node11 -->
<g id="node11" class="node">
<title>Node11</title>
<g id="a_node11"><a xlink:href="tex__header_8h.html" target="_top" xlink:title=" ">
<polygon fill="white" stroke="black" points="636.5,-58.5 636.5,-79.5 722.5,-79.5 722.5,-58.5 636.5,-58.5"/>
<text text-anchor="middle" x="679.5" y="-65.9" font-family="DejaVuSans" font-size="12.00">tex_header.h</text>
</a>
</g>
</g>
<!-- Node1&#45;&gt;Node11 -->
<g id="edge20" class="edge">
<title>Node1&#45;&gt;Node11</title>
<path fill="none" stroke="midnightblue" d="M380.18,-164.53C385.79,-148.88 395.97,-127.64 412.5,-116 491.71,-60.22 532.14,-97.15 627.5,-80 630.4,-79.48 633.38,-78.93 636.38,-78.37"/>
<polygon fill="midnightblue" stroke="midnightblue" points="376.77,-163.7 377,-174.29 383.42,-165.86 376.77,-163.7"/>
</g>
<!-- Node13 -->
<g id="node13" class="node">
<title>Node13</title>
<g id="a_node13"><a xlink:href="math__formula_8c.html" target="_top" xlink:title=" ">
<polygon fill="white" stroke="black" points="497.5,-116.5 497.5,-137.5 595.5,-137.5 595.5,-116.5 497.5,-116.5"/>
<text text-anchor="middle" x="546.5" y="-123.9" font-family="DejaVuSans" font-size="12.00">math_formula.c</text>
</a>
</g>
</g>
<!-- Node1&#45;&gt;Node13 -->
<g id="edge17" class="edge">
<title>Node1&#45;&gt;Node13</title>
<path fill="none" stroke="midnightblue" d="M413.84,-171.19C445.36,-160.93 488.85,-146.77 517.32,-137.5"/>
<polygon fill="midnightblue" stroke="midnightblue" points="412.49,-167.95 404.07,-174.37 414.66,-174.61 412.49,-167.95"/>
</g>
<!-- Node14 -->
<g id="node14" class="node">
<title>Node14</title>
<g id="a_node14"><a xlink:href="scan_8c.html" target="_top" xlink:title=" ">
<polygon fill="white" stroke="black" points="613,-116.5 613,-137.5 664,-137.5 664,-116.5 613,-116.5"/>
<text text-anchor="middle" x="638.5" y="-123.9" font-family="DejaVuSans" font-size="12.00">scan.c</text>
</a>
</g>
</g>
<!-- Node1&#45;&gt;Node14 -->
<g id="edge19" class="edge">
<title>Node1&#45;&gt;Node14</title>
<path fill="none" stroke="midnightblue" d="M413.96,-177.21C459.96,-169.04 538.15,-154.36 604.5,-138 607.25,-137.32 610.11,-136.57 612.95,-135.78"/>
<polygon fill="midnightblue" stroke="midnightblue" points="413.33,-173.76 404.09,-178.95 414.55,-180.66 413.33,-173.76"/>
</g>
<!-- Node5&#45;&gt;Node2 -->
<g id="edge5" class="edge">
<title>Node5&#45;&gt;Node2</title>
<path fill="none" stroke="midnightblue" d="M243.61,-117.93C196.74,-109.57 122.76,-95.57 59.5,-80 56.75,-79.32 53.89,-78.57 51.05,-77.78"/>
<polygon fill="midnightblue" stroke="midnightblue" points="243.01,-121.38 253.47,-119.68 244.23,-114.49 243.01,-121.38"/>
</g>
<!-- Node5&#45;&gt;Node4 -->
<g id="edge10" class="edge">
<title>Node5&#45;&gt;Node4</title>
<path fill="none" stroke="midnightblue" d="M249.08,-113.32C215.51,-103.05 168.97,-88.81 138.55,-79.5"/>
<polygon fill="midnightblue" stroke="midnightblue" points="248.45,-116.79 259.04,-116.37 250.5,-110.1 248.45,-116.79"/>
</g>
<!-- Node6 -->
<g id="node6" class="node">
<title>Node6</title>
<g id="a_node6"><a xlink:href="build__box_8c.html" target="_top" xlink:title=" ">
<polygon fill="white" stroke="black" points="203,-58.5 203,-79.5 280,-79.5 280,-58.5 203,-58.5"/>
<text text-anchor="middle" x="241.5" y="-65.9" font-family="DejaVuSans" font-size="12.00">build_box.c</text>
</a>
</g>
</g>
<!-- Node5&#45;&gt;Node6 -->
<g id="edge6" class="edge">
<title>Node5&#45;&gt;Node6</title>
<path fill="none" stroke="midnightblue" d="M275.19,-108.5C266.86,-98.98 256.86,-87.56 249.94,-79.64"/>
<polygon fill="midnightblue" stroke="midnightblue" points="272.75,-111.02 281.96,-116.25 278.01,-106.41 272.75,-111.02"/>
</g>
<!-- Node7 -->
<g id="node7" class="node">
<title>Node7</title>
<g id="a_node7"><a xlink:href="main__ctrl_8c.html" target="_top" xlink:title=" ">
<polygon fill="white" stroke="black" points="254.5,-0.5 254.5,-21.5 328.5,-21.5 328.5,-0.5 254.5,-0.5"/>
<text text-anchor="middle" x="291.5" y="-7.9" font-family="DejaVuSans" font-size="12.00">main_ctrl.c</text>
</a>
</g>
</g>
<!-- Node5&#45;&gt;Node7 -->
<g id="edge13" class="edge">
<title>Node5&#45;&gt;Node7</title>
<path fill="none" stroke="midnightblue" d="M243.48,-113.25C211.38,-101.99 177.36,-83.41 193.5,-58 206.8,-37.06 232.44,-25.48 254.16,-19.18"/>
<polygon fill="midnightblue" stroke="midnightblue" points="242.73,-116.68 253.32,-116.5 244.93,-110.04 242.73,-116.68"/>
</g>
<!-- Node8 -->
<g id="node8" class="node">
<title>Node8</title>
<g id="a_node8"><a xlink:href="build__math_8c.html" target="_top" xlink:title=" ">
<polygon fill="white" stroke="black" points="298.5,-58.5 298.5,-79.5 382.5,-79.5 382.5,-58.5 298.5,-58.5"/>
<text text-anchor="middle" x="340.5" y="-65.9" font-family="DejaVuSans" font-size="12.00">build_math.c</text>
</a>
</g>
</g>
<!-- Node5&#45;&gt;Node8 -->
<g id="edge8" class="edge">
<title>Node5&#45;&gt;Node8</title>
<path fill="none" stroke="midnightblue" d="M306.12,-108.5C314.63,-98.98 324.82,-87.56 331.89,-79.64"/>
<polygon fill="midnightblue" stroke="midnightblue" points="303.26,-106.46 299.21,-116.25 308.48,-111.12 303.26,-106.46"/>
</g>
<!-- Node9 -->
<g id="node9" class="node">
<title>Node9</title>
<g id="a_node9"><a xlink:href="indep__process_8c.html" target="_top" xlink:title=" ">
<polygon fill="white" stroke="black" points="400.5,-58.5 400.5,-79.5 504.5,-79.5 504.5,-58.5 400.5,-58.5"/>
<text text-anchor="middle" x="452.5" y="-65.9" font-family="DejaVuSans" font-size="12.00">indep_process.c</text>
</a>
</g>
</g>
<!-- Node5&#45;&gt;Node9 -->
<g id="edge11" class="edge">
<title>Node5&#45;&gt;Node9</title>
<path fill="none" stroke="midnightblue" d="M327.94,-113.06C357.59,-102.81 398.32,-88.73 425.01,-79.5"/>
<polygon fill="midnightblue" stroke="midnightblue" points="326.66,-109.8 318.35,-116.37 328.94,-116.41 326.66,-109.8"/>
</g>
<!-- Node5&#45;&gt;Node10 -->
<g id="edge14" class="edge">
<title>Node5&#45;&gt;Node10</title>
<path fill="none" stroke="midnightblue" d="M337.55,-116.59C389.04,-106.29 471.13,-89.87 522.85,-79.53"/>
<polygon fill="midnightblue" stroke="midnightblue" points="336.8,-113.17 327.68,-118.56 338.17,-120.03 336.8,-113.17"/>
</g>
<!-- Node5&#45;&gt;Node11 -->
<g id="edge15" class="edge">
<title>Node5&#45;&gt;Node11</title>
<path fill="none" stroke="midnightblue" d="M338,-120.34C403.36,-112.37 524.62,-96.9 627.5,-80 630.4,-79.52 633.39,-79.01 636.4,-78.47"/>
<polygon fill="midnightblue" stroke="midnightblue" points="337.51,-116.88 328,-121.56 338.35,-123.83 337.51,-116.88"/>
</g>
<!-- Node6&#45;&gt;Node7 -->
<g id="edge7" class="edge">
<title>Node6&#45;&gt;Node7</title>
<path fill="none" stroke="midnightblue" d="M257.12,-50.5C265.63,-40.98 275.82,-29.56 282.89,-21.64"/>
<polygon fill="midnightblue" stroke="midnightblue" points="254.26,-48.46 250.21,-58.25 259.48,-53.12 254.26,-48.46"/>
</g>
<!-- Node8&#45;&gt;Node7 -->
<g id="edge9" class="edge">
<title>Node8&#45;&gt;Node7</title>
<path fill="none" stroke="midnightblue" d="M325.19,-50.5C316.86,-40.98 306.86,-29.56 299.94,-21.64"/>
<polygon fill="midnightblue" stroke="midnightblue" points="322.75,-53.02 331.96,-58.25 328.01,-48.41 322.75,-53.02"/>
</g>
<!-- Node9&#45;&gt;Node7 -->
<g id="edge12" class="edge">
<title>Node9&#45;&gt;Node7</title>
<path fill="none" stroke="midnightblue" d="M415.29,-55.06C385.82,-44.81 345.35,-30.73 318.82,-21.5"/>
<polygon fill="midnightblue" stroke="midnightblue" points="414.23,-58.39 424.82,-58.37 416.53,-51.78 414.23,-58.39"/>
</g>
<!-- Node12 -->
<g id="node12" class="node">
<title>Node12</title>
<g id="a_node12"><a xlink:href="tex_8c.html" target="_top" xlink:title=" ">
<polygon fill="white" stroke="black" points="659,-0.5 659,-21.5 700,-21.5 700,-0.5 659,-0.5"/>
<text text-anchor="middle" x="679.5" y="-7.9" font-family="DejaVuSans" font-size="12.00">tex.c</text>
</a>
</g>
</g>
<!-- Node11&#45;&gt;Node12 -->
<g id="edge16" class="edge">
<title>Node11&#45;&gt;Node12</title>
<path fill="none" stroke="midnightblue" d="M679.5,-48.16C679.5,-39.16 679.5,-28.92 679.5,-21.64"/>
<polygon fill="midnightblue" stroke="midnightblue" points="676,-48.25 679.5,-58.25 683,-48.25 676,-48.25"/>
</g>
</g>
</svg>
