<?xml version="1.0" encoding="UTF-8" standalone="no"?>
<!DOCTYPE svg PUBLIC "-//W3C//DTD SVG 1.1//EN"
 "http://www.w3.org/Graphics/SVG/1.1/DTD/svg11.dtd">
<!-- Generated by graphviz version 2.44.0 ()
 -->
<!-- Title: dviout.c Pages: 1 -->
<svg width="1319pt" height="494pt"
 viewBox="0.00 0.00 1319.10 494.00" xmlns="http://www.w3.org/2000/svg" xmlns:xlink="http://www.w3.org/1999/xlink">
<g id="graph0" class="graph" transform="scale(1 1) rotate(0) translate(4 490)">
<title>dviout.c</title>
<polygon fill="white" stroke="transparent" points="-4,4 -4,-490 1315.1,-490 1315.1,4 -4,4"/>
<!-- Node1 -->
<g id="node1" class="node">
<title>Node1</title>
<g id="a_node1"><a xlink:title=" ">
<polygon fill="#bfbfbf" stroke="black" points="412.6,-464.5 412.6,-485.5 470.6,-485.5 470.6,-464.5 412.6,-464.5"/>
<text text-anchor="middle" x="441.6" y="-471.9" font-family="DejaVuSans" font-size="12.00">dviout.c</text>
</a>
</g>
</g>
<!-- Node2 -->
<g id="node2" class="node">
<title>Node2</title>
<g id="a_node2"><a xlink:title=" ">
<polygon fill="white" stroke="#bfbfbf" points="36.1,-406.5 36.1,-427.5 89.1,-427.5 89.1,-406.5 36.1,-406.5"/>
<text text-anchor="middle" x="62.6" y="-413.9" font-family="DejaVuSans" font-size="12.00">math.h</text>
</a>
</g>
</g>
<!-- Node1&#45;&gt;Node2 -->
<g id="edge1" class="edge">
<title>Node1&#45;&gt;Node2</title>
<path fill="none" stroke="midnightblue" d="M412.5,-471.07C353.78,-464.93 217.06,-449.5 103.6,-428 102.16,-427.73 100.69,-427.44 99.21,-427.13"/>
<polygon fill="midnightblue" stroke="midnightblue" points="99.94,-423.71 89.42,-424.96 98.42,-430.54 99.94,-423.71"/>
</g>
<!-- Node3 -->
<g id="node3" class="node">
<title>Node3</title>
<g id="a_node3"><a xlink:title=" ">
<polygon fill="white" stroke="#bfbfbf" points="396.6,-174.5 396.6,-195.5 448.6,-195.5 448.6,-174.5 396.6,-174.5"/>
<text text-anchor="middle" x="422.6" y="-181.9" font-family="DejaVuSans" font-size="12.00">stdio.h</text>
</a>
</g>
</g>
<!-- Node1&#45;&gt;Node3 -->
<g id="edge2" class="edge">
<title>Node1&#45;&gt;Node3</title>
<path fill="none" stroke="midnightblue" d="M441.6,-464.24C441.6,-444.54 441.6,-398.59 441.6,-360 441.6,-360 441.6,-360 441.6,-300 441.6,-266.38 433.46,-227.92 427.83,-205.37"/>
<polygon fill="midnightblue" stroke="midnightblue" points="431.21,-204.47 425.32,-195.67 424.44,-206.23 431.21,-204.47"/>
</g>
<!-- Node4 -->
<g id="node4" class="node">
<title>Node4</title>
<g id="a_node4"><a xlink:title=" ">
<polygon fill="white" stroke="#bfbfbf" points="1173.6,-406.5 1173.6,-427.5 1227.6,-427.5 1227.6,-406.5 1173.6,-406.5"/>
<text text-anchor="middle" x="1200.6" y="-413.9" font-family="DejaVuSans" font-size="12.00">stdlib.h</text>
</a>
</g>
</g>
<!-- Node1&#45;&gt;Node4 -->
<g id="edge3" class="edge">
<title>Node1&#45;&gt;Node4</title>
<path fill="none" stroke="midnightblue" d="M470.86,-473.96C568.89,-473.43 894.43,-468.51 1159.6,-428 1160.86,-427.81 1162.14,-427.59 1163.43,-427.36"/>
<polygon fill="midnightblue" stroke="midnightblue" points="1164.28,-430.76 1173.38,-425.34 1162.89,-423.9 1164.28,-430.76"/>
</g>
<!-- Node5 -->
<g id="node5" class="node">
<title>Node5</title>
<g id="a_node5"><a xlink:href="tex__constant_8h.html" target="_top" xlink:title=" ">
<polygon fill="white" stroke="black" points="881.6,-174.5 881.6,-195.5 975.6,-195.5 975.6,-174.5 881.6,-174.5"/>
<text text-anchor="middle" x="928.6" y="-181.9" font-family="DejaVuSans" font-size="12.00">tex_constant.h</text>
</a>
</g>
</g>
<!-- Node1&#45;&gt;Node5 -->
<g id="edge4" class="edge">
<title>Node1&#45;&gt;Node5</title>
<path fill="none" stroke="midnightblue" d="M470.95,-472.4C604.19,-464.77 1145.6,-429.49 1145.6,-360 1145.6,-360 1145.6,-360 1145.6,-300 1145.6,-227.69 1050.01,-201.15 985.71,-191.47"/>
<polygon fill="midnightblue" stroke="midnightblue" points="986.07,-187.99 975.68,-190.06 985.1,-194.92 986.07,-187.99"/>
</g>
<!-- Node7 -->
<g id="node7" class="node">
<title>Node7</title>
<g id="a_node7"><a xlink:href="str_8h.html" target="_top" xlink:title=" ">
<polygon fill="white" stroke="black" points="186.1,-232.5 186.1,-253.5 225.1,-253.5 225.1,-232.5 186.1,-232.5"/>
<text text-anchor="middle" x="205.6" y="-239.9" font-family="DejaVuSans" font-size="12.00">str.h</text>
</a>
</g>
</g>
<!-- Node1&#45;&gt;Node7 -->
<g id="edge6" class="edge">
<title>Node1&#45;&gt;Node7</title>
<path fill="none" stroke="midnightblue" d="M415.04,-464.36C365.04,-444.62 257.88,-394.36 212.6,-312 204.57,-297.39 203.24,-278.35 203.68,-264.13"/>
<polygon fill="midnightblue" stroke="midnightblue" points="207.19,-264.13 204.32,-253.94 200.2,-263.7 207.19,-264.13"/>
</g>
<!-- Node15 -->
<g id="node15" class="node">
<title>Node15</title>
<g id="a_node15"><a xlink:href="fonts_8h.html" target="_top" xlink:title=" ">
<polygon fill="white" stroke="black" points="361.6,-290.5 361.6,-311.5 413.6,-311.5 413.6,-290.5 361.6,-290.5"/>
<text text-anchor="middle" x="387.6" y="-297.9" font-family="DejaVuSans" font-size="12.00">fonts.h</text>
</a>
</g>
</g>
<!-- Node1&#45;&gt;Node15 -->
<g id="edge18" class="edge">
<title>Node1&#45;&gt;Node15</title>
<path fill="none" stroke="midnightblue" d="M438.54,-464.26C429.93,-436.82 405.34,-358.51 393.76,-321.64"/>
<polygon fill="midnightblue" stroke="midnightblue" points="396.96,-320.13 390.62,-311.63 390.28,-322.22 396.96,-320.13"/>
</g>
<!-- Node17 -->
<g id="node17" class="node">
<title>Node17</title>
<g id="a_node17"><a xlink:href="dvicmd_8h.html" target="_top" xlink:title=" ">
<polygon fill="white" stroke="black" points="1246.1,-406.5 1246.1,-427.5 1311.1,-427.5 1311.1,-406.5 1246.1,-406.5"/>
<text text-anchor="middle" x="1278.6" y="-413.9" font-family="DejaVuSans" font-size="12.00">dvicmd.h</text>
</a>
</g>
</g>
<!-- Node1&#45;&gt;Node17 -->
<g id="edge26" class="edge">
<title>Node1&#45;&gt;Node17</title>
<path fill="none" stroke="midnightblue" d="M470.66,-474.16C573.76,-474.33 931.61,-471.64 1235.36,-427.92"/>
<polygon fill="midnightblue" stroke="midnightblue" points="1236.3,-431.32 1245.69,-426.41 1235.29,-424.39 1236.3,-431.32"/>
</g>
<!-- Node18 -->
<g id="node18" class="node">
<title>Node18</title>
<g id="a_node18"><a xlink:href="io_8h.html" target="_top" xlink:title=" ">
<polygon fill="white" stroke="black" points="115.6,-290.5 115.6,-311.5 151.6,-311.5 151.6,-290.5 115.6,-290.5"/>
<text text-anchor="middle" x="133.6" y="-297.9" font-family="DejaVuSans" font-size="12.00">io.h</text>
</a>
</g>
</g>
<!-- Node1&#45;&gt;Node18 -->
<g id="edge27" class="edge">
<title>Node1&#45;&gt;Node18</title>
<path fill="none" stroke="midnightblue" d="M412.28,-472.48C351.51,-468.76 214.56,-457.28 179.6,-428 147.59,-401.19 137.85,-350.13 134.89,-321.94"/>
<polygon fill="midnightblue" stroke="midnightblue" points="138.35,-321.37 134.01,-311.71 131.38,-321.97 138.35,-321.37"/>
</g>
<!-- Node19 -->
<g id="node19" class="node">
<title>Node19</title>
<g id="a_node19"><a xlink:href="eqtb_8h.html" target="_top" xlink:title=" ">
<polygon fill="white" stroke="black" points="1029.6,-232.5 1029.6,-253.5 1079.6,-253.5 1079.6,-232.5 1029.6,-232.5"/>
<text text-anchor="middle" x="1054.6" y="-239.9" font-family="DejaVuSans" font-size="12.00">eqtb.h</text>
</a>
</g>
</g>
<!-- Node1&#45;&gt;Node19 -->
<g id="edge33" class="edge">
<title>Node1&#45;&gt;Node19</title>
<path fill="none" stroke="midnightblue" d="M470.78,-472.33C548.35,-467.61 758.17,-452.83 822.6,-428 918.48,-391.04 1006.07,-299.63 1039.86,-261.32"/>
<polygon fill="midnightblue" stroke="midnightblue" points="1042.67,-263.43 1046.59,-253.59 1037.38,-258.84 1042.67,-263.43"/>
</g>
<!-- Node20 -->
<g id="node20" class="node">
<title>Node20</title>
<g id="a_node20"><a xlink:href="mem_8h.html" target="_top" xlink:title=" ">
<polygon fill="white" stroke="black" points="958.1,-232.5 958.1,-253.5 1011.1,-253.5 1011.1,-232.5 958.1,-232.5"/>
<text text-anchor="middle" x="984.6" y="-239.9" font-family="DejaVuSans" font-size="12.00">mem.h</text>
</a>
</g>
</g>
<!-- Node1&#45;&gt;Node20 -->
<g id="edge36" class="edge">
<title>Node1&#45;&gt;Node20</title>
<path fill="none" stroke="midnightblue" d="M470.67,-472.13C543.5,-467.15 732.02,-452.22 789.6,-428 875,-392.08 945.48,-300.79 972.62,-261.94"/>
<polygon fill="midnightblue" stroke="midnightblue" points="975.52,-263.89 978.29,-253.66 969.75,-259.93 975.52,-263.89"/>
</g>
<!-- Node21 -->
<g id="node21" class="node">
<title>Node21</title>
<g id="a_node21"><a xlink:href="print_8h.html" target="_top" xlink:title=" ">
<polygon fill="white" stroke="black" points="507.6,-290.5 507.6,-311.5 557.6,-311.5 557.6,-290.5 507.6,-290.5"/>
<text text-anchor="middle" x="532.6" y="-297.9" font-family="DejaVuSans" font-size="12.00">print.h</text>
</a>
</g>
</g>
<!-- Node1&#45;&gt;Node21 -->
<g id="edge39" class="edge">
<title>Node1&#45;&gt;Node21</title>
<path fill="none" stroke="midnightblue" d="M446.75,-464.26C461.39,-436.59 503.42,-357.15 522.7,-320.7"/>
<polygon fill="midnightblue" stroke="midnightblue" points="525.92,-322.11 527.5,-311.63 519.73,-318.84 525.92,-322.11"/>
</g>
<!-- Node22 -->
<g id="node22" class="node">
<title>Node22</title>
<g id="a_node22"><a xlink:href="error_8h.html" target="_top" xlink:title=" ">
<polygon fill="white" stroke="black" points="292.1,-290.5 292.1,-311.5 343.1,-311.5 343.1,-290.5 292.1,-290.5"/>
<text text-anchor="middle" x="317.6" y="-297.9" font-family="DejaVuSans" font-size="12.00">error.h</text>
</a>
</g>
</g>
<!-- Node1&#45;&gt;Node22 -->
<g id="edge46" class="edge">
<title>Node1&#45;&gt;Node22</title>
<path fill="none" stroke="midnightblue" d="M434.57,-464.26C414.45,-436.35 356.38,-355.79 330.41,-319.77"/>
<polygon fill="midnightblue" stroke="midnightblue" points="333.23,-317.7 324.54,-311.63 327.55,-321.79 333.23,-317.7"/>
</g>
<!-- Node23 -->
<g id="node23" class="node">
<title>Node23</title>
<g id="a_node23"><a xlink:href="extension_8h.html" target="_top" xlink:title=" ">
<polygon fill="white" stroke="black" points="702.6,-406.5 702.6,-427.5 780.6,-427.5 780.6,-406.5 702.6,-406.5"/>
<text text-anchor="middle" x="741.6" y="-413.9" font-family="DejaVuSans" font-size="12.00">extension.h</text>
</a>
</g>
</g>
<!-- Node1&#45;&gt;Node23 -->
<g id="edge49" class="edge">
<title>Node1&#45;&gt;Node23</title>
<path fill="none" stroke="midnightblue" d="M470.63,-468.58C521.89,-459.01 628.96,-439.03 692.08,-427.24"/>
<polygon fill="midnightblue" stroke="midnightblue" points="693.01,-430.63 702.19,-425.36 691.72,-423.75 693.01,-430.63"/>
</g>
<!-- Node28 -->
<g id="node28" class="node">
<title>Node28</title>
<g id="a_node28"><a xlink:href="scan_8h.html" target="_top" xlink:title=" ">
<polygon fill="white" stroke="black" points="221.6,-290.5 221.6,-311.5 273.6,-311.5 273.6,-290.5 221.6,-290.5"/>
<text text-anchor="middle" x="247.6" y="-297.9" font-family="DejaVuSans" font-size="12.00">scan.h</text>
</a>
</g>
</g>
<!-- Node1&#45;&gt;Node28 -->
<g id="edge70" class="edge">
<title>Node1&#45;&gt;Node28</title>
<path fill="none" stroke="midnightblue" d="M430.18,-464.18C419.42,-454.9 402.86,-440.56 388.6,-428 344.17,-388.87 292.36,-342.34 265.62,-318.26"/>
<polygon fill="midnightblue" stroke="midnightblue" points="267.93,-315.63 258.16,-311.54 263.25,-320.83 267.93,-315.63"/>
</g>
<!-- Node29 -->
<g id="node29" class="node">
<title>Node29</title>
<g id="a_node29"><a xlink:href="dviout_8h.html" target="_top" xlink:title=" ">
<polygon fill="white" stroke="black" points="3.1,-348.5 3.1,-369.5 62.1,-369.5 62.1,-348.5 3.1,-348.5"/>
<text text-anchor="middle" x="32.6" y="-355.9" font-family="DejaVuSans" font-size="12.00">dviout.h</text>
</a>
</g>
</g>
<!-- Node1&#45;&gt;Node29 -->
<g id="edge74" class="edge">
<title>Node1&#45;&gt;Node29</title>
<path fill="none" stroke="midnightblue" d="M412.51,-473.41C357.78,-471.46 236.46,-463.16 141.6,-428 123.75,-421.38 81.24,-393.36 54.89,-375.41"/>
<polygon fill="midnightblue" stroke="midnightblue" points="56.86,-372.52 46.63,-369.76 52.91,-378.3 56.86,-372.52"/>
</g>
<!-- Node6 -->
<g id="node6" class="node">
<title>Node6</title>
<g id="a_node6"><a xlink:href="global__const_8h.html" target="_top" xlink:title=" ">
<polygon fill="white" stroke="black" points="807.1,-58.5 807.1,-79.5 900.1,-79.5 900.1,-58.5 807.1,-58.5"/>
<text text-anchor="middle" x="853.6" y="-65.9" font-family="DejaVuSans" font-size="12.00">global_const.h</text>
</a>
</g>
</g>
<!-- Node5&#45;&gt;Node6 -->
<g id="edge5" class="edge">
<title>Node5&#45;&gt;Node6</title>
<path fill="none" stroke="midnightblue" d="M922.2,-174.28C909.64,-155.18 881.56,-112.5 865.49,-88.08"/>
<polygon fill="midnightblue" stroke="midnightblue" points="868.4,-86.13 859.97,-79.69 862.55,-89.97 868.4,-86.13"/>
</g>
<!-- Node7&#45;&gt;Node3 -->
<g id="edge7" class="edge">
<title>Node7&#45;&gt;Node3</title>
<path fill="none" stroke="midnightblue" d="M225.24,-236.93C261.71,-227.52 340.37,-207.22 386.62,-195.28"/>
<polygon fill="midnightblue" stroke="midnightblue" points="387.71,-198.62 396.52,-192.73 385.97,-191.84 387.71,-198.62"/>
</g>
<!-- Node8 -->
<g id="node8" class="node">
<title>Node8</title>
<g id="a_node8"><a xlink:title=" ">
<polygon fill="white" stroke="#bfbfbf" points="219.1,-0.5 219.1,-21.5 274.1,-21.5 274.1,-0.5 219.1,-0.5"/>
<text text-anchor="middle" x="246.6" y="-7.9" font-family="DejaVuSans" font-size="12.00">stdint.h</text>
</a>
</g>
</g>
<!-- Node7&#45;&gt;Node8 -->
<g id="edge8" class="edge">
<title>Node7&#45;&gt;Node8</title>
<path fill="none" stroke="midnightblue" d="M207.09,-232.3C209.15,-219.1 213,-194.74 216.6,-174 225.48,-122.77 236.88,-62.61 242.73,-32.04"/>
<polygon fill="midnightblue" stroke="midnightblue" points="246.24,-32.33 244.69,-21.85 239.37,-31.01 246.24,-32.33"/>
</g>
<!-- Node9 -->
<g id="node9" class="node">
<title>Node9</title>
<g id="a_node9"><a xlink:href="global_8h.html" target="_top" xlink:title=" ">
<polygon fill="white" stroke="black" points="587.6,-116.5 587.6,-137.5 645.6,-137.5 645.6,-116.5 587.6,-116.5"/>
<text text-anchor="middle" x="616.6" y="-123.9" font-family="DejaVuSans" font-size="12.00">global.h</text>
</a>
</g>
</g>
<!-- Node7&#45;&gt;Node9 -->
<g id="edge9" class="edge">
<title>Node7&#45;&gt;Node9</title>
<path fill="none" stroke="midnightblue" d="M207.44,-232.21C210.87,-217 219.75,-188 239.6,-174 293.33,-136.1 492.14,-129.34 577.38,-128.19"/>
<polygon fill="midnightblue" stroke="midnightblue" points="577.47,-131.69 587.43,-128.08 577.39,-124.69 577.47,-131.69"/>
</g>
<!-- Node14 -->
<g id="node14" class="node">
<title>Node14</title>
<g id="a_node14"><a xlink:href="charset_8h.html" target="_top" xlink:title=" ">
<polygon fill="white" stroke="black" points="46.1,-174.5 46.1,-195.5 111.1,-195.5 111.1,-174.5 46.1,-174.5"/>
<text text-anchor="middle" x="78.6" y="-181.9" font-family="DejaVuSans" font-size="12.00">charset.h</text>
</a>
</g>
</g>
<!-- Node7&#45;&gt;Node14 -->
<g id="edge16" class="edge">
<title>Node7&#45;&gt;Node14</title>
<path fill="none" stroke="midnightblue" d="M186.03,-233.37C165.73,-224.42 133.67,-210.29 109.85,-199.78"/>
<polygon fill="midnightblue" stroke="midnightblue" points="111.09,-196.5 100.53,-195.67 108.27,-202.91 111.09,-196.5"/>
</g>
<!-- Node9&#45;&gt;Node6 -->
<g id="edge12" class="edge">
<title>Node9&#45;&gt;Node6</title>
<path fill="none" stroke="midnightblue" d="M645.66,-119.13C684.89,-109.86 755.4,-93.2 803.33,-81.88"/>
<polygon fill="midnightblue" stroke="midnightblue" points="804.26,-85.25 813.19,-79.55 802.65,-78.44 804.26,-85.25"/>
</g>
<!-- Node10 -->
<g id="node10" class="node">
<title>Node10</title>
<g id="a_node10"><a xlink:href="global__macros_8h.html" target="_top" xlink:title=" ">
<polygon fill="white" stroke="black" points="564.6,-58.5 564.6,-79.5 668.6,-79.5 668.6,-58.5 564.6,-58.5"/>
<text text-anchor="middle" x="616.6" y="-65.9" font-family="DejaVuSans" font-size="12.00">global_macros.h</text>
</a>
</g>
</g>
<!-- Node9&#45;&gt;Node10 -->
<g id="edge10" class="edge">
<title>Node9&#45;&gt;Node10</title>
<path fill="none" stroke="midnightblue" d="M616.6,-116.25C616.6,-108.94 616.6,-98.69 616.6,-89.7"/>
<polygon fill="midnightblue" stroke="midnightblue" points="620.1,-89.64 616.6,-79.64 613.1,-89.64 620.1,-89.64"/>
</g>
<!-- Node12 -->
<g id="node12" class="node">
<title>Node12</title>
<g id="a_node12"><a xlink:href="tex__types_8h.html" target="_top" xlink:title=" ">
<polygon fill="white" stroke="black" points="347.1,-58.5 347.1,-79.5 424.1,-79.5 424.1,-58.5 347.1,-58.5"/>
<text text-anchor="middle" x="385.6" y="-65.9" font-family="DejaVuSans" font-size="12.00">tex_types.h</text>
</a>
</g>
</g>
<!-- Node9&#45;&gt;Node12 -->
<g id="edge13" class="edge">
<title>Node9&#45;&gt;Node12</title>
<path fill="none" stroke="midnightblue" d="M587.34,-118.91C548.77,-109.56 480.39,-92.98 434.05,-81.75"/>
<polygon fill="midnightblue" stroke="midnightblue" points="434.77,-78.32 424.22,-79.36 433.12,-85.12 434.77,-78.32"/>
</g>
<!-- Node11 -->
<g id="node11" class="node">
<title>Node11</title>
<g id="a_node11"><a xlink:title=" ">
<polygon fill="white" stroke="#bfbfbf" points="587.1,-0.5 587.1,-21.5 646.1,-21.5 646.1,-0.5 587.1,-0.5"/>
<text text-anchor="middle" x="616.6" y="-7.9" font-family="DejaVuSans" font-size="12.00">assert.h</text>
</a>
</g>
</g>
<!-- Node10&#45;&gt;Node11 -->
<g id="edge11" class="edge">
<title>Node10&#45;&gt;Node11</title>
<path fill="none" stroke="midnightblue" d="M616.6,-58.25C616.6,-50.94 616.6,-40.69 616.6,-31.7"/>
<polygon fill="midnightblue" stroke="midnightblue" points="620.1,-31.64 616.6,-21.64 613.1,-31.64 620.1,-31.64"/>
</g>
<!-- Node12&#45;&gt;Node8 -->
<g id="edge15" class="edge">
<title>Node12&#45;&gt;Node8</title>
<path fill="none" stroke="midnightblue" d="M361.7,-58.37C339.09,-49.26 304.94,-35.51 279.71,-25.34"/>
<polygon fill="midnightblue" stroke="midnightblue" points="280.76,-21.99 270.18,-21.5 278.15,-28.48 280.76,-21.99"/>
</g>
<!-- Node13 -->
<g id="node13" class="node">
<title>Node13</title>
<g id="a_node13"><a xlink:title=" ">
<polygon fill="white" stroke="#bfbfbf" points="353.1,-0.5 353.1,-21.5 418.1,-21.5 418.1,-0.5 353.1,-0.5"/>
<text text-anchor="middle" x="385.6" y="-7.9" font-family="DejaVuSans" font-size="12.00">stdbool.h</text>
</a>
</g>
</g>
<!-- Node12&#45;&gt;Node13 -->
<g id="edge14" class="edge">
<title>Node12&#45;&gt;Node13</title>
<path fill="none" stroke="midnightblue" d="M385.6,-58.25C385.6,-50.94 385.6,-40.69 385.6,-31.7"/>
<polygon fill="midnightblue" stroke="midnightblue" points="389.1,-31.64 385.6,-21.64 382.1,-31.64 389.1,-31.64"/>
</g>
<!-- Node14&#45;&gt;Node9 -->
<g id="edge17" class="edge">
<title>Node14&#45;&gt;Node9</title>
<path fill="none" stroke="midnightblue" d="M111.28,-180.03C127.08,-178.15 146.32,-175.89 163.6,-174 316.32,-157.26 498.26,-139.43 577.02,-131.81"/>
<polygon fill="midnightblue" stroke="midnightblue" points="577.81,-135.24 587.43,-130.8 577.14,-128.28 577.81,-135.24"/>
</g>
<!-- Node15&#45;&gt;Node3 -->
<g id="edge19" class="edge">
<title>Node15&#45;&gt;Node3</title>
<path fill="none" stroke="midnightblue" d="M390.58,-290.28C396.34,-271.52 409.09,-230 416.65,-205.38"/>
<polygon fill="midnightblue" stroke="midnightblue" points="420.03,-206.28 419.62,-195.69 413.34,-204.23 420.03,-206.28"/>
</g>
<!-- Node15&#45;&gt;Node5 -->
<g id="edge21" class="edge">
<title>Node15&#45;&gt;Node5</title>
<path fill="none" stroke="midnightblue" d="M413.8,-296.95C464.9,-290.77 581.32,-275.48 677.6,-254 711.92,-246.34 719.7,-241.36 753.6,-232 796.73,-220.09 846.04,-207.19 881.3,-198.09"/>
<polygon fill="midnightblue" stroke="midnightblue" points="882.5,-201.4 891.31,-195.52 880.76,-194.62 882.5,-201.4"/>
</g>
<!-- Node15&#45;&gt;Node7 -->
<g id="edge22" class="edge">
<title>Node15&#45;&gt;Node7</title>
<path fill="none" stroke="midnightblue" d="M361.52,-291.98C327.97,-281.65 269.86,-263.77 234.85,-253"/>
<polygon fill="midnightblue" stroke="midnightblue" points="235.78,-249.63 225.2,-250.03 233.73,-256.32 235.78,-249.63"/>
</g>
<!-- Node15&#45;&gt;Node9 -->
<g id="edge20" class="edge">
<title>Node15&#45;&gt;Node9</title>
<path fill="none" stroke="midnightblue" d="M361.5,-292.05C343.69,-285.11 321.43,-273.1 310.6,-254 288.18,-214.5 359.09,-175.96 362.6,-174 431.22,-135.66 525.06,-128.26 577.34,-127.41"/>
<polygon fill="midnightblue" stroke="midnightblue" points="577.56,-130.9 587.53,-127.31 577.5,-123.9 577.56,-130.9"/>
</g>
<!-- Node16 -->
<g id="node16" class="node">
<title>Node16</title>
<g id="a_node16"><a xlink:href="dump_8h.html" target="_top" xlink:title=" ">
<polygon fill="white" stroke="black" points="319.6,-232.5 319.6,-253.5 375.6,-253.5 375.6,-232.5 319.6,-232.5"/>
<text text-anchor="middle" x="347.6" y="-239.9" font-family="DejaVuSans" font-size="12.00">dump.h</text>
</a>
</g>
</g>
<!-- Node15&#45;&gt;Node16 -->
<g id="edge23" class="edge">
<title>Node15&#45;&gt;Node16</title>
<path fill="none" stroke="midnightblue" d="M380.63,-290.25C375.07,-282.46 367.12,-271.33 360.41,-261.94"/>
<polygon fill="midnightblue" stroke="midnightblue" points="363.14,-259.75 354.48,-253.64 357.45,-263.81 363.14,-259.75"/>
</g>
<!-- Node16&#45;&gt;Node3 -->
<g id="edge24" class="edge">
<title>Node16&#45;&gt;Node3</title>
<path fill="none" stroke="midnightblue" d="M360.66,-232.25C371.95,-223.81 388.48,-211.47 401.62,-201.66"/>
<polygon fill="midnightblue" stroke="midnightblue" points="403.76,-204.43 409.68,-195.64 399.58,-198.82 403.76,-204.43"/>
</g>
<!-- Node16&#45;&gt;Node9 -->
<g id="edge25" class="edge">
<title>Node16&#45;&gt;Node9</title>
<path fill="none" stroke="midnightblue" d="M350.44,-232.36C355.38,-217.35 367.07,-188.62 387.6,-174 417.53,-152.69 519.84,-138.5 577.06,-132.03"/>
<polygon fill="midnightblue" stroke="midnightblue" points="577.63,-135.49 587.19,-130.91 576.86,-128.53 577.63,-135.49"/>
</g>
<!-- Node18&#45;&gt;Node3 -->
<g id="edge28" class="edge">
<title>Node18&#45;&gt;Node3</title>
<path fill="none" stroke="midnightblue" d="M136.84,-290.31C142.42,-275.24 155.33,-246.42 176.6,-232 210.27,-209.17 326.3,-195.13 386.19,-189.23"/>
<polygon fill="midnightblue" stroke="midnightblue" points="386.72,-192.7 396.34,-188.26 386.05,-185.73 386.72,-192.7"/>
</g>
<!-- Node18&#45;&gt;Node5 -->
<g id="edge30" class="edge">
<title>Node18&#45;&gt;Node5</title>
<path fill="none" stroke="midnightblue" d="M151.77,-297.52C167.77,-295.37 191.71,-292.28 212.6,-290 387.4,-270.96 434.41,-289.66 606.6,-254 637.29,-247.64 643.21,-239.69 673.6,-232 740.65,-215.03 819.14,-201.85 871.14,-194.03"/>
<polygon fill="midnightblue" stroke="midnightblue" points="871.8,-197.47 881.18,-192.54 870.77,-190.55 871.8,-197.47"/>
</g>
<!-- Node18&#45;&gt;Node7 -->
<g id="edge32" class="edge">
<title>Node18&#45;&gt;Node7</title>
<path fill="none" stroke="midnightblue" d="M146.14,-290.25C156.88,-281.89 172.54,-269.71 185.1,-259.94"/>
<polygon fill="midnightblue" stroke="midnightblue" points="187.45,-262.54 193.2,-253.64 183.16,-257.02 187.45,-262.54"/>
</g>
<!-- Node18&#45;&gt;Node9 -->
<g id="edge29" class="edge">
<title>Node18&#45;&gt;Node9</title>
<path fill="none" stroke="midnightblue" d="M116.32,-290.37C79.41,-268.65 -0.87,-214.56 36.6,-174 73.19,-134.39 452.25,-128.86 577.02,-128.11"/>
<polygon fill="midnightblue" stroke="midnightblue" points="577.29,-131.61 587.27,-128.05 577.25,-124.61 577.29,-131.61"/>
</g>
<!-- Node18&#45;&gt;Node14 -->
<g id="edge31" class="edge">
<title>Node18&#45;&gt;Node14</title>
<path fill="none" stroke="midnightblue" d="M127.1,-290.4C121.08,-281.28 112.1,-267.05 105.6,-254 97.65,-238.06 90.31,-219.17 85.29,-205.36"/>
<polygon fill="midnightblue" stroke="midnightblue" points="88.58,-204.16 81.94,-195.91 81.98,-206.5 88.58,-204.16"/>
</g>
<!-- Node19&#45;&gt;Node5 -->
<g id="edge35" class="edge">
<title>Node19&#45;&gt;Node5</title>
<path fill="none" stroke="midnightblue" d="M1032.94,-232.37C1012.62,-223.34 982.03,-209.75 959.22,-199.61"/>
<polygon fill="midnightblue" stroke="midnightblue" points="960.53,-196.36 949.97,-195.5 957.69,-202.76 960.53,-196.36"/>
</g>
<!-- Node19&#45;&gt;Node9 -->
<g id="edge34" class="edge">
<title>Node19&#45;&gt;Node9</title>
<path fill="none" stroke="midnightblue" d="M1050.21,-232.1C1042.82,-216.75 1026.35,-187.55 1002.6,-174 944.07,-140.62 742.02,-131.33 655.94,-128.85"/>
<polygon fill="midnightblue" stroke="midnightblue" points="655.88,-125.35 645.79,-128.58 655.69,-132.35 655.88,-125.35"/>
</g>
<!-- Node20&#45;&gt;Node5 -->
<g id="edge38" class="edge">
<title>Node20&#45;&gt;Node5</title>
<path fill="none" stroke="midnightblue" d="M974.84,-232.25C966.73,-224.14 955,-212.41 945.39,-202.79"/>
<polygon fill="midnightblue" stroke="midnightblue" points="947.79,-200.24 938.24,-195.64 942.84,-205.19 947.79,-200.24"/>
</g>
<!-- Node20&#45;&gt;Node9 -->
<g id="edge37" class="edge">
<title>Node20&#45;&gt;Node9</title>
<path fill="none" stroke="midnightblue" d="M988.16,-232.28C992.82,-217.68 998.82,-190.11 984.6,-174 963.08,-149.62 746.39,-135.08 655.94,-130.02"/>
<polygon fill="midnightblue" stroke="midnightblue" points="655.98,-126.52 645.81,-129.47 655.6,-133.51 655.98,-126.52"/>
</g>
<!-- Node21&#45;&gt;Node3 -->
<g id="edge40" class="edge">
<title>Node21&#45;&gt;Node3</title>
<path fill="none" stroke="midnightblue" d="M528.78,-290.28C522.88,-276.18 510.44,-249.78 493.6,-232 481.61,-219.35 465.49,-208.55 451.64,-200.6"/>
<polygon fill="midnightblue" stroke="midnightblue" points="452.94,-197.31 442.49,-195.56 449.56,-203.45 452.94,-197.31"/>
</g>
<!-- Node21&#45;&gt;Node5 -->
<g id="edge43" class="edge">
<title>Node21&#45;&gt;Node5</title>
<path fill="none" stroke="midnightblue" d="M557.79,-296.15C599.17,-289.52 683.89,-274.64 753.6,-254 805.37,-238.67 863.41,-214.71 897.93,-199.7"/>
<polygon fill="midnightblue" stroke="midnightblue" points="899.69,-202.76 907.44,-195.54 896.88,-196.34 899.69,-202.76"/>
</g>
<!-- Node21&#45;&gt;Node7 -->
<g id="edge45" class="edge">
<title>Node21&#45;&gt;Node7</title>
<path fill="none" stroke="midnightblue" d="M507.48,-295.7C448.1,-285.53 299.28,-260.04 235.44,-249.11"/>
<polygon fill="midnightblue" stroke="midnightblue" points="235.7,-245.6 225.25,-247.37 234.52,-252.5 235.7,-245.6"/>
</g>
<!-- Node21&#45;&gt;Node9 -->
<g id="edge41" class="edge">
<title>Node21&#45;&gt;Node9</title>
<path fill="none" stroke="midnightblue" d="M557.61,-300.34C591.24,-299.27 649.99,-291.72 677.6,-254 688.02,-239.76 680.49,-197.38 667.6,-174 661.03,-162.09 650.19,-151.66 640.19,-143.76"/>
<polygon fill="midnightblue" stroke="midnightblue" points="642.21,-140.9 632.1,-137.74 638.03,-146.51 642.21,-140.9"/>
</g>
<!-- Node21&#45;&gt;Node14 -->
<g id="edge42" class="edge">
<title>Node21&#45;&gt;Node14</title>
<path fill="none" stroke="midnightblue" d="M507.48,-295.48C466.18,-287.9 381.43,-271.69 310.6,-254 301.22,-251.66 185.29,-217.5 120.95,-198.51"/>
<polygon fill="midnightblue" stroke="midnightblue" points="121.67,-195.07 111.09,-195.6 119.69,-201.79 121.67,-195.07"/>
</g>
<!-- Node21&#45;&gt;Node19 -->
<g id="edge44" class="edge">
<title>Node21&#45;&gt;Node19</title>
<path fill="none" stroke="midnightblue" d="M557.72,-299.33C628.87,-297.08 837.79,-288.01 1019.48,-253.88"/>
<polygon fill="midnightblue" stroke="midnightblue" points="1020.31,-257.29 1029.48,-251.97 1019,-250.41 1020.31,-257.29"/>
</g>
<!-- Node22&#45;&gt;Node7 -->
<g id="edge48" class="edge">
<title>Node22&#45;&gt;Node7</title>
<path fill="none" stroke="midnightblue" d="M298.34,-290.37C280.53,-281.46 253.82,-268.11 233.64,-258.02"/>
<polygon fill="midnightblue" stroke="midnightblue" points="235.11,-254.84 224.6,-253.5 231.98,-261.1 235.11,-254.84"/>
</g>
<!-- Node22&#45;&gt;Node9 -->
<g id="edge47" class="edge">
<title>Node22&#45;&gt;Node9</title>
<path fill="none" stroke="midnightblue" d="M343.11,-292.27C346.29,-291.44 349.51,-290.66 352.6,-290 408.36,-278.14 567.55,-295.53 606.6,-254 633.42,-225.48 627.71,-175.51 621.79,-147.84"/>
<polygon fill="midnightblue" stroke="midnightblue" points="625.12,-146.72 619.41,-137.79 618.31,-148.33 625.12,-146.72"/>
</g>
<!-- Node23&#45;&gt;Node3 -->
<g id="edge50" class="edge">
<title>Node23&#45;&gt;Node3</title>
<path fill="none" stroke="midnightblue" d="M702.25,-407.74C650.17,-395.07 558.01,-366.36 498.6,-312 468.81,-284.75 476.96,-266.25 455.6,-232 449.64,-222.45 442.4,-212.23 436.23,-203.86"/>
<polygon fill="midnightblue" stroke="midnightblue" points="438.85,-201.52 430.05,-195.62 433.25,-205.72 438.85,-201.52"/>
</g>
<!-- Node23&#45;&gt;Node9 -->
<g id="edge51" class="edge">
<title>Node23&#45;&gt;Node9</title>
<path fill="none" stroke="midnightblue" d="M780.93,-412.64C882.82,-402.05 1143.72,-361.94 1088.6,-232 1074.11,-197.86 1062.16,-189.79 1028.6,-174 962.98,-143.12 745.36,-132.35 655.72,-129.17"/>
<polygon fill="midnightblue" stroke="midnightblue" points="655.8,-125.67 645.69,-128.82 655.56,-132.66 655.8,-125.67"/>
</g>
<!-- Node23&#45;&gt;Node19 -->
<g id="edge56" class="edge">
<title>Node23&#45;&gt;Node19</title>
<path fill="none" stroke="midnightblue" d="M771.6,-406.49C796.72,-398.1 833.22,-384.92 863.6,-370 907.66,-348.35 916.59,-338.99 957.6,-312 983.96,-294.64 1013.58,-273.66 1033.08,-259.63"/>
<polygon fill="midnightblue" stroke="midnightblue" points="1035.21,-262.4 1041.27,-253.71 1031.12,-256.73 1035.21,-262.4"/>
</g>
<!-- Node24 -->
<g id="node24" class="node">
<title>Node24</title>
<g id="a_node24"><a xlink:href="lexer_8h.html" target="_top" xlink:title=" ">
<polygon fill="white" stroke="black" points="545.6,-232.5 545.6,-253.5 597.6,-253.5 597.6,-232.5 545.6,-232.5"/>
<text text-anchor="middle" x="571.6" y="-239.9" font-family="DejaVuSans" font-size="12.00">lexer.h</text>
</a>
</g>
</g>
<!-- Node23&#45;&gt;Node24 -->
<g id="edge52" class="edge">
<title>Node23&#45;&gt;Node24</title>
<path fill="none" stroke="midnightblue" d="M731.97,-406.26C704.15,-378.11 623.41,-296.42 588.27,-260.87"/>
<polygon fill="midnightblue" stroke="midnightblue" points="590.64,-258.29 581.12,-253.63 585.66,-263.21 590.64,-258.29"/>
</g>
<!-- Node25 -->
<g id="node25" class="node">
<title>Node25</title>
<g id="a_node25"><a xlink:href="hyphen_8h.html" target="_top" xlink:title=" ">
<polygon fill="white" stroke="black" points="788.6,-348.5 788.6,-369.5 854.6,-369.5 854.6,-348.5 788.6,-348.5"/>
<text text-anchor="middle" x="821.6" y="-355.9" font-family="DejaVuSans" font-size="12.00">hyphen.h</text>
</a>
</g>
</g>
<!-- Node23&#45;&gt;Node25 -->
<g id="edge57" class="edge">
<title>Node23&#45;&gt;Node25</title>
<path fill="none" stroke="midnightblue" d="M755.53,-406.25C767.69,-397.73 785.54,-385.24 799.63,-375.38"/>
<polygon fill="midnightblue" stroke="midnightblue" points="801.64,-378.24 807.82,-369.64 797.62,-372.51 801.64,-378.24"/>
</g>
<!-- Node24&#45;&gt;Node3 -->
<g id="edge53" class="edge">
<title>Node24&#45;&gt;Node3</title>
<path fill="none" stroke="midnightblue" d="M545.98,-232.37C521.53,-223.18 484.49,-209.26 457.38,-199.07"/>
<polygon fill="midnightblue" stroke="midnightblue" points="458.47,-195.74 447.88,-195.5 456.01,-202.3 458.47,-195.74"/>
</g>
<!-- Node24&#45;&gt;Node5 -->
<g id="edge55" class="edge">
<title>Node24&#45;&gt;Node5</title>
<path fill="none" stroke="midnightblue" d="M597.76,-235.06C602.35,-233.95 607.1,-232.89 611.6,-232 701.66,-214.26 807.37,-200.27 871.1,-192.57"/>
<polygon fill="midnightblue" stroke="midnightblue" points="871.84,-196.01 881.35,-191.35 871,-189.06 871.84,-196.01"/>
</g>
<!-- Node24&#45;&gt;Node9 -->
<g id="edge54" class="edge">
<title>Node24&#45;&gt;Node9</title>
<path fill="none" stroke="midnightblue" d="M575.43,-232.28C582.87,-213.43 599.38,-171.62 609.08,-147.05"/>
<polygon fill="midnightblue" stroke="midnightblue" points="612.35,-148.28 612.77,-137.69 605.84,-145.71 612.35,-148.28"/>
</g>
<!-- Node25&#45;&gt;Node5 -->
<g id="edge69" class="edge">
<title>Node25&#45;&gt;Node5</title>
<path fill="none" stroke="midnightblue" d="M829.22,-348.36C836.33,-339.2 847.1,-324.95 855.6,-312 879.86,-275.03 905.04,-229.76 918.56,-204.79"/>
<polygon fill="midnightblue" stroke="midnightblue" points="921.8,-206.17 923.46,-195.7 915.64,-202.85 921.8,-206.17"/>
</g>
<!-- Node25&#45;&gt;Node9 -->
<g id="edge58" class="edge">
<title>Node25&#45;&gt;Node9</title>
<path fill="none" stroke="midnightblue" d="M824.96,-348.49C834.89,-318.52 860.66,-225.03 815.6,-174 794.85,-150.5 707.82,-137.52 655.98,-131.74"/>
<polygon fill="midnightblue" stroke="midnightblue" points="656.11,-128.23 645.8,-130.64 655.37,-135.19 656.11,-128.23"/>
</g>
<!-- Node25&#45;&gt;Node14 -->
<g id="edge68" class="edge">
<title>Node25&#45;&gt;Node14</title>
<path fill="none" stroke="midnightblue" d="M788.56,-358.13C654.96,-358.38 159.26,-356.28 106.6,-312 75.71,-286.03 74.42,-234.24 76.37,-205.81"/>
<polygon fill="midnightblue" stroke="midnightblue" points="79.86,-206.11 77.26,-195.84 72.89,-205.49 79.86,-206.11"/>
</g>
<!-- Node25&#45;&gt;Node15 -->
<g id="edge66" class="edge">
<title>Node25&#45;&gt;Node15</title>
<path fill="none" stroke="midnightblue" d="M788.26,-353.7C708.32,-343.38 506.2,-317.3 423.61,-306.65"/>
<polygon fill="midnightblue" stroke="midnightblue" points="424.05,-303.17 413.68,-305.37 423.15,-310.12 424.05,-303.17"/>
</g>
<!-- Node25&#45;&gt;Node19 -->
<g id="edge67" class="edge">
<title>Node25&#45;&gt;Node19</title>
<path fill="none" stroke="midnightblue" d="M843.41,-348.43C863.96,-339.33 895.55,-325.12 922.6,-312 959.37,-294.17 1001.22,-272.34 1027.75,-258.31"/>
<polygon fill="midnightblue" stroke="midnightblue" points="1029.6,-261.29 1036.8,-253.52 1026.33,-255.11 1029.6,-261.29"/>
</g>
<!-- Node25&#45;&gt;Node20 -->
<g id="edge59" class="edge">
<title>Node25&#45;&gt;Node20</title>
<path fill="none" stroke="midnightblue" d="M837.26,-348.45C851.99,-339.37 874.57,-325.16 893.6,-312 918.41,-294.84 946.06,-273.91 964.3,-259.84"/>
<polygon fill="midnightblue" stroke="midnightblue" points="966.68,-262.42 972.44,-253.53 962.39,-256.89 966.68,-262.42"/>
</g>
<!-- Node26 -->
<g id="node26" class="node">
<title>Node26</title>
<g id="a_node26"><a xlink:href="box_8h.html" target="_top" xlink:title=" ">
<polygon fill="white" stroke="black" points="767.6,-290.5 767.6,-311.5 813.6,-311.5 813.6,-290.5 767.6,-290.5"/>
<text text-anchor="middle" x="790.6" y="-297.9" font-family="DejaVuSans" font-size="12.00">box.h</text>
</a>
</g>
</g>
<!-- Node25&#45;&gt;Node26 -->
<g id="edge60" class="edge">
<title>Node25&#45;&gt;Node26</title>
<path fill="none" stroke="midnightblue" d="M816.2,-348.25C811.97,-340.62 805.98,-329.79 800.85,-320.53"/>
<polygon fill="midnightblue" stroke="midnightblue" points="803.84,-318.7 795.93,-311.64 797.72,-322.09 803.84,-318.7"/>
</g>
<!-- Node26&#45;&gt;Node7 -->
<g id="edge65" class="edge">
<title>Node26&#45;&gt;Node7</title>
<path fill="none" stroke="midnightblue" d="M767.3,-297.77C675.35,-288.97 337.66,-256.64 235.24,-246.84"/>
<polygon fill="midnightblue" stroke="midnightblue" points="235.56,-243.35 225.27,-245.88 234.89,-250.32 235.56,-243.35"/>
</g>
<!-- Node26&#45;&gt;Node9 -->
<g id="edge61" class="edge">
<title>Node26&#45;&gt;Node9</title>
<path fill="none" stroke="midnightblue" d="M794.91,-290.21C804.31,-267.19 823.73,-208.94 796.6,-174 779.5,-151.99 703.46,-138.73 655.84,-132.44"/>
<polygon fill="midnightblue" stroke="midnightblue" points="656.22,-128.96 645.86,-131.17 655.33,-135.9 656.22,-128.96"/>
</g>
<!-- Node26&#45;&gt;Node20 -->
<g id="edge62" class="edge">
<title>Node26&#45;&gt;Node20</title>
<path fill="none" stroke="midnightblue" d="M813.61,-293.36C846.85,-283.76 908.63,-265.93 948.12,-254.53"/>
<polygon fill="midnightblue" stroke="midnightblue" points="949.25,-257.85 957.89,-251.71 947.31,-251.12 949.25,-257.85"/>
</g>
<!-- Node27 -->
<g id="node27" class="node">
<title>Node27</title>
<g id="a_node27"><a xlink:href="texmath_8h.html" target="_top" xlink:title=" ">
<polygon fill="white" stroke="black" points="719.6,-174.5 719.6,-195.5 787.6,-195.5 787.6,-174.5 719.6,-174.5"/>
<text text-anchor="middle" x="753.6" y="-181.9" font-family="DejaVuSans" font-size="12.00">texmath.h</text>
</a>
</g>
</g>
<!-- Node26&#45;&gt;Node27 -->
<g id="edge63" class="edge">
<title>Node26&#45;&gt;Node27</title>
<path fill="none" stroke="midnightblue" d="M787.44,-290.28C781.35,-271.52 767.88,-230 759.89,-205.38"/>
<polygon fill="midnightblue" stroke="midnightblue" points="763.16,-204.13 756.74,-195.69 756.5,-206.29 763.16,-204.13"/>
</g>
<!-- Node27&#45;&gt;Node9 -->
<g id="edge64" class="edge">
<title>Node27&#45;&gt;Node9</title>
<path fill="none" stroke="midnightblue" d="M730.05,-174.37C707.76,-165.26 674.1,-151.51 649.23,-141.34"/>
<polygon fill="midnightblue" stroke="midnightblue" points="650.42,-138.05 639.84,-137.5 647.77,-144.52 650.42,-138.05"/>
</g>
<!-- Node28&#45;&gt;Node7 -->
<g id="edge73" class="edge">
<title>Node28&#45;&gt;Node7</title>
<path fill="none" stroke="midnightblue" d="M240.28,-290.25C234.38,-282.38 225.92,-271.1 218.84,-261.65"/>
<polygon fill="midnightblue" stroke="midnightblue" points="221.63,-259.54 212.83,-253.64 216.03,-263.74 221.63,-259.54"/>
</g>
<!-- Node28&#45;&gt;Node9 -->
<g id="edge71" class="edge">
<title>Node28&#45;&gt;Node9</title>
<path fill="none" stroke="midnightblue" d="M221.35,-290.56C205.29,-283.26 186.07,-271.42 176.6,-254 158.14,-220.05 216.38,-174.13 216.6,-174 276.78,-137.86 488.72,-130.12 577.26,-128.45"/>
<polygon fill="midnightblue" stroke="midnightblue" points="577.49,-131.95 587.43,-128.28 577.37,-124.95 577.49,-131.95"/>
</g>
<!-- Node28&#45;&gt;Node24 -->
<g id="edge72" class="edge">
<title>Node28&#45;&gt;Node24</title>
<path fill="none" stroke="midnightblue" d="M273.86,-292.34C277.12,-291.49 280.43,-290.69 283.6,-290 373.3,-270.44 480.4,-255.51 535.27,-248.47"/>
<polygon fill="midnightblue" stroke="midnightblue" points="535.72,-251.94 545.2,-247.2 534.84,-244.99 535.72,-251.94"/>
</g>
<!-- Node29&#45;&gt;Node9 -->
<g id="edge75" class="edge">
<title>Node29&#45;&gt;Node9</title>
<path fill="none" stroke="midnightblue" d="M27.86,-348.26C13.71,-317.63 -24.37,-222.38 23.6,-174 62.5,-134.77 450.79,-128.98 577.11,-128.14"/>
<polygon fill="midnightblue" stroke="midnightblue" points="577.5,-131.64 587.48,-128.08 577.45,-124.64 577.5,-131.64"/>
</g>
<!-- Node29&#45;&gt;Node14 -->
<g id="edge76" class="edge">
<title>Node29&#45;&gt;Node14</title>
<path fill="none" stroke="midnightblue" d="M29.73,-348.32C23.82,-326.48 12.21,-272.16 29.6,-232 34.83,-219.91 44.98,-209.53 54.69,-201.71"/>
<polygon fill="midnightblue" stroke="midnightblue" points="57.06,-204.31 62.98,-195.52 52.87,-198.7 57.06,-204.31"/>
</g>
<!-- Node29&#45;&gt;Node15 -->
<g id="edge77" class="edge">
<title>Node29&#45;&gt;Node15</title>
<path fill="none" stroke="midnightblue" d="M62.39,-355.08C117.58,-349.38 239.52,-335.43 351.23,-312.06"/>
<polygon fill="midnightblue" stroke="midnightblue" points="352.26,-315.42 361.32,-309.92 350.81,-308.57 352.26,-315.42"/>
</g>
</g>
</svg>
