<?xml version="1.0" encoding="UTF-8" standalone="no"?>
<!DOCTYPE svg PUBLIC "-//W3C//DTD SVG 1.1//EN"
 "http://www.w3.org/Graphics/SVG/1.1/DTD/svg11.dtd">
<!-- Generated by graphviz version 2.44.0 ()
 -->
<!-- Title: eqtb.h Pages: 1 -->
<svg width="1065pt" height="204pt"
 viewBox="0.00 0.00 1065.00 204.00" xmlns="http://www.w3.org/2000/svg" xmlns:xlink="http://www.w3.org/1999/xlink">
<g id="graph0" class="graph" transform="scale(1 1) rotate(0) translate(4 200)">
<title>eqtb.h</title>
<polygon fill="white" stroke="transparent" points="-4,4 -4,-200 1061,-200 1061,4 -4,4"/>
<!-- Node1 -->
<g id="node1" class="node">
<title>Node1</title>
<g id="a_node1"><a xlink:title=" ">
<polygon fill="#bfbfbf" stroke="black" points="437.5,-174.5 437.5,-195.5 487.5,-195.5 487.5,-174.5 437.5,-174.5"/>
<text text-anchor="middle" x="462.5" y="-181.9" font-family="DejaVuSans" font-size="12.00">eqtb.h</text>
</a>
</g>
</g>
<!-- Node2 -->
<g id="node2" class="node">
<title>Node2</title>
<g id="a_node2"><a xlink:href="box_8c.html" target="_top" xlink:title=" ">
<polygon fill="white" stroke="black" points="0,-116.5 0,-137.5 45,-137.5 45,-116.5 0,-116.5"/>
<text text-anchor="middle" x="22.5" y="-123.9" font-family="DejaVuSans" font-size="12.00">box.c</text>
</a>
</g>
</g>
<!-- Node1&#45;&gt;Node2 -->
<g id="edge1" class="edge">
<title>Node1&#45;&gt;Node2</title>
<path fill="none" stroke="midnightblue" d="M427.2,-182.29C356.03,-178.34 190.51,-166.65 54.5,-138 51.42,-137.35 48.22,-136.53 45.08,-135.64"/>
<polygon fill="midnightblue" stroke="midnightblue" points="427.23,-185.79 437.4,-182.84 427.6,-178.8 427.23,-185.79"/>
</g>
<!-- Node3 -->
<g id="node3" class="node">
<title>Node3</title>
<g id="a_node3"><a xlink:href="dviout_8c.html" target="_top" xlink:title=" ">
<polygon fill="white" stroke="black" points="63.5,-116.5 63.5,-137.5 121.5,-137.5 121.5,-116.5 63.5,-116.5"/>
<text text-anchor="middle" x="92.5" y="-123.9" font-family="DejaVuSans" font-size="12.00">dviout.c</text>
</a>
</g>
</g>
<!-- Node1&#45;&gt;Node3 -->
<g id="edge2" class="edge">
<title>Node1&#45;&gt;Node3</title>
<path fill="none" stroke="midnightblue" d="M427.26,-180.08C367.14,-173.17 241.04,-157.66 135.5,-138 130.98,-137.16 126.22,-136.16 121.57,-135.13"/>
<polygon fill="midnightblue" stroke="midnightblue" points="427.02,-183.58 437.35,-181.23 427.81,-176.62 427.02,-183.58"/>
</g>
<!-- Node4 -->
<g id="node4" class="node">
<title>Node4</title>
<g id="a_node4"><a xlink:href="eqtb_8c.html" target="_top" xlink:title=" ">
<polygon fill="white" stroke="black" points="5,-58.5 5,-79.5 54,-79.5 54,-58.5 5,-58.5"/>
<text text-anchor="middle" x="29.5" y="-65.9" font-family="DejaVuSans" font-size="12.00">eqtb.c</text>
</a>
</g>
</g>
<!-- Node1&#45;&gt;Node4 -->
<g id="edge3" class="edge">
<title>Node1&#45;&gt;Node4</title>
<path fill="none" stroke="midnightblue" d="M426.97,-183.28C369.83,-181.1 254.81,-172.38 164.5,-138 147.68,-131.6 146.29,-124.64 130.5,-116 104.81,-101.94 74.02,-88.36 53.24,-79.64"/>
<polygon fill="midnightblue" stroke="midnightblue" points="427.16,-186.79 437.27,-183.63 427.39,-179.8 427.16,-186.79"/>
</g>
<!-- Node5 -->
<g id="node5" class="node">
<title>Node5</title>
<g id="a_node5"><a xlink:href="eqtb__save_8c.html" target="_top" xlink:title=" ">
<polygon fill="white" stroke="black" points="326,-116.5 326,-137.5 407,-137.5 407,-116.5 326,-116.5"/>
<text text-anchor="middle" x="366.5" y="-123.9" font-family="DejaVuSans" font-size="12.00">eqtb_save.c</text>
</a>
</g>
</g>
<!-- Node1&#45;&gt;Node5 -->
<g id="edge4" class="edge">
<title>Node1&#45;&gt;Node5</title>
<path fill="none" stroke="midnightblue" d="M436.87,-169.05C419.78,-159.08 397.84,-146.28 383.03,-137.64"/>
<polygon fill="midnightblue" stroke="midnightblue" points="435.38,-172.23 445.78,-174.25 438.9,-166.18 435.38,-172.23"/>
</g>
<!-- Node6 -->
<g id="node6" class="node">
<title>Node6</title>
<g id="a_node6"><a xlink:href="fonts_8c.html" target="_top" xlink:title=" ">
<polygon fill="white" stroke="black" points="72,-58.5 72,-79.5 123,-79.5 123,-58.5 72,-58.5"/>
<text text-anchor="middle" x="97.5" y="-65.9" font-family="DejaVuSans" font-size="12.00">fonts.c</text>
</a>
</g>
</g>
<!-- Node1&#45;&gt;Node6 -->
<g id="edge5" class="edge">
<title>Node1&#45;&gt;Node6</title>
<path fill="none" stroke="midnightblue" d="M427.24,-181.89C376.8,-177.95 281.83,-167.03 206.5,-138 186.73,-130.38 136.26,-96.61 111.56,-79.71"/>
<polygon fill="midnightblue" stroke="midnightblue" points="427.07,-185.39 437.3,-182.63 427.59,-178.41 427.07,-185.39"/>
</g>
<!-- Node7 -->
<g id="node7" class="node">
<title>Node7</title>
<g id="a_node7"><a xlink:href="hash_8h.html" target="_top" xlink:title=" ">
<polygon fill="white" stroke="black" points="216,-116.5 216,-137.5 269,-137.5 269,-116.5 216,-116.5"/>
<text text-anchor="middle" x="242.5" y="-123.9" font-family="DejaVuSans" font-size="12.00">hash.h</text>
</a>
</g>
</g>
<!-- Node1&#45;&gt;Node7 -->
<g id="edge6" class="edge">
<title>Node1&#45;&gt;Node7</title>
<path fill="none" stroke="midnightblue" d="M427.56,-175.11C383.54,-163.9 308.85,-144.89 269.15,-134.78"/>
<polygon fill="midnightblue" stroke="midnightblue" points="426.71,-178.5 437.26,-177.58 428.44,-171.72 426.71,-178.5"/>
</g>
<!-- Node13 -->
<g id="node13" class="node">
<title>Node13</title>
<g id="a_node13"><a xlink:href="tex__header_8h.html" target="_top" xlink:title=" ">
<polygon fill="white" stroke="black" points="528.5,-58.5 528.5,-79.5 614.5,-79.5 614.5,-58.5 528.5,-58.5"/>
<text text-anchor="middle" x="571.5" y="-65.9" font-family="DejaVuSans" font-size="12.00">tex_header.h</text>
</a>
</g>
</g>
<!-- Node1&#45;&gt;Node13 -->
<g id="edge24" class="edge">
<title>Node1&#45;&gt;Node13</title>
<path fill="none" stroke="midnightblue" d="M427.1,-180.32C374.01,-173.44 283.32,-155.58 316.5,-116 345.93,-80.89 474.45,-88.33 519.5,-80 522.39,-79.47 525.37,-78.91 528.38,-78.34"/>
<polygon fill="midnightblue" stroke="midnightblue" points="426.82,-183.81 437.17,-181.56 427.67,-176.87 426.82,-183.81"/>
</g>
<!-- Node15 -->
<g id="node15" class="node">
<title>Node15</title>
<g id="a_node15"><a xlink:href="io__fname_8c.html" target="_top" xlink:title=" ">
<polygon fill="white" stroke="black" points="425,-116.5 425,-137.5 500,-137.5 500,-116.5 425,-116.5"/>
<text text-anchor="middle" x="462.5" y="-123.9" font-family="DejaVuSans" font-size="12.00">io_fname.c</text>
</a>
</g>
</g>
<!-- Node1&#45;&gt;Node15 -->
<g id="edge16" class="edge">
<title>Node1&#45;&gt;Node15</title>
<path fill="none" stroke="midnightblue" d="M462.5,-164.16C462.5,-155.16 462.5,-144.92 462.5,-137.64"/>
<polygon fill="midnightblue" stroke="midnightblue" points="459,-164.25 462.5,-174.25 466,-164.25 459,-164.25"/>
</g>
<!-- Node16 -->
<g id="node16" class="node">
<title>Node16</title>
<g id="a_node16"><a xlink:href="math__formula_8c.html" target="_top" xlink:title=" ">
<polygon fill="white" stroke="black" points="517.5,-116.5 517.5,-137.5 615.5,-137.5 615.5,-116.5 517.5,-116.5"/>
<text text-anchor="middle" x="566.5" y="-123.9" font-family="DejaVuSans" font-size="12.00">math_formula.c</text>
</a>
</g>
</g>
<!-- Node1&#45;&gt;Node16 -->
<g id="edge17" class="edge">
<title>Node1&#45;&gt;Node16</title>
<path fill="none" stroke="midnightblue" d="M489.5,-169.46C508.11,-159.44 532.33,-146.4 548.59,-137.64"/>
<polygon fill="midnightblue" stroke="midnightblue" points="487.76,-166.42 480.62,-174.25 491.08,-172.59 487.76,-166.42"/>
</g>
<!-- Node17 -->
<g id="node17" class="node">
<title>Node17</title>
<g id="a_node17"><a xlink:href="mem_8c.html" target="_top" xlink:title=" ">
<polygon fill="white" stroke="black" points="633.5,-116.5 633.5,-137.5 685.5,-137.5 685.5,-116.5 633.5,-116.5"/>
<text text-anchor="middle" x="659.5" y="-123.9" font-family="DejaVuSans" font-size="12.00">mem.c</text>
</a>
</g>
</g>
<!-- Node1&#45;&gt;Node17 -->
<g id="edge18" class="edge">
<title>Node1&#45;&gt;Node17</title>
<path fill="none" stroke="midnightblue" d="M497.77,-174C530.59,-164.7 580.86,-150.43 624.5,-138 627.3,-137.2 630.22,-136.37 633.13,-135.54"/>
<polygon fill="midnightblue" stroke="midnightblue" points="496.42,-170.75 487.76,-176.84 498.33,-177.48 496.42,-170.75"/>
</g>
<!-- Node18 -->
<g id="node18" class="node">
<title>Node18</title>
<g id="a_node18"><a xlink:href="mmode_8c.html" target="_top" xlink:title=" ">
<polygon fill="white" stroke="black" points="704,-116.5 704,-137.5 769,-137.5 769,-116.5 704,-116.5"/>
<text text-anchor="middle" x="736.5" y="-123.9" font-family="DejaVuSans" font-size="12.00">mmode.c</text>
</a>
</g>
</g>
<!-- Node1&#45;&gt;Node18 -->
<g id="edge19" class="edge">
<title>Node1&#45;&gt;Node18</title>
<path fill="none" stroke="midnightblue" d="M497.58,-177.48C543.09,-168.91 624.9,-153.18 694.5,-138 697.58,-137.33 700.77,-136.61 703.97,-135.87"/>
<polygon fill="midnightblue" stroke="midnightblue" points="496.81,-174.06 487.63,-179.34 498.1,-180.94 496.81,-174.06"/>
</g>
<!-- Node19 -->
<g id="node19" class="node">
<title>Node19</title>
<g id="a_node19"><a xlink:href="pack_8c.html" target="_top" xlink:title=" ">
<polygon fill="white" stroke="black" points="787,-116.5 787,-137.5 838,-137.5 838,-116.5 787,-116.5"/>
<text text-anchor="middle" x="812.5" y="-123.9" font-family="DejaVuSans" font-size="12.00">pack.c</text>
</a>
</g>
</g>
<!-- Node1&#45;&gt;Node19 -->
<g id="edge20" class="edge">
<title>Node1&#45;&gt;Node19</title>
<path fill="none" stroke="midnightblue" d="M497.93,-180.5C556.69,-174.32 677.8,-160.02 778.5,-138 781.26,-137.4 784.13,-136.69 786.98,-135.93"/>
<polygon fill="midnightblue" stroke="midnightblue" points="497.29,-177.04 487.71,-181.56 498.01,-184.01 497.29,-177.04"/>
</g>
<!-- Node20 -->
<g id="node20" class="node">
<title>Node20</title>
<g id="a_node20"><a xlink:href="print_8c.html" target="_top" xlink:title=" ">
<polygon fill="white" stroke="black" points="856,-116.5 856,-137.5 905,-137.5 905,-116.5 856,-116.5"/>
<text text-anchor="middle" x="880.5" y="-123.9" font-family="DejaVuSans" font-size="12.00">print.c</text>
</a>
</g>
</g>
<!-- Node1&#45;&gt;Node20 -->
<g id="edge21" class="edge">
<title>Node1&#45;&gt;Node20</title>
<path fill="none" stroke="midnightblue" d="M497.69,-181.87C565.83,-177.28 720.23,-164.67 847.5,-138 850.2,-137.44 852.99,-136.75 855.75,-136.01"/>
<polygon fill="midnightblue" stroke="midnightblue" points="497.27,-178.39 487.52,-182.53 497.73,-185.37 497.27,-178.39"/>
</g>
<!-- Node21 -->
<g id="node21" class="node">
<title>Node21</title>
<g id="a_node21"><a xlink:href="printout_8c.html" target="_top" xlink:title=" ">
<polygon fill="white" stroke="black" points="923,-116.5 923,-137.5 988,-137.5 988,-116.5 923,-116.5"/>
<text text-anchor="middle" x="955.5" y="-123.9" font-family="DejaVuSans" font-size="12.00">printout.c</text>
</a>
</g>
</g>
<!-- Node1&#45;&gt;Node21 -->
<g id="edge22" class="edge">
<title>Node1&#45;&gt;Node21</title>
<path fill="none" stroke="midnightblue" d="M497.68,-182.08C574.03,-177.54 760.44,-164.5 914.5,-138 917.24,-137.53 920.08,-136.98 922.91,-136.38"/>
<polygon fill="midnightblue" stroke="midnightblue" points="497.43,-178.58 487.65,-182.66 497.84,-185.57 497.43,-178.58"/>
</g>
<!-- Node22 -->
<g id="node22" class="node">
<title>Node22</title>
<g id="a_node22"><a xlink:href="scan_8c.html" target="_top" xlink:title=" ">
<polygon fill="white" stroke="black" points="1006,-116.5 1006,-137.5 1057,-137.5 1057,-116.5 1006,-116.5"/>
<text text-anchor="middle" x="1031.5" y="-123.9" font-family="DejaVuSans" font-size="12.00">scan.c</text>
</a>
</g>
</g>
<!-- Node1&#45;&gt;Node22 -->
<g id="edge23" class="edge">
<title>Node1&#45;&gt;Node22</title>
<path fill="none" stroke="midnightblue" d="M497.54,-183.41C583.47,-181.43 811.27,-173.03 997.5,-138 1000.16,-137.5 1002.91,-136.88 1005.64,-136.19"/>
<polygon fill="midnightblue" stroke="midnightblue" points="497.46,-179.91 487.54,-183.62 497.61,-186.91 497.46,-179.91"/>
</g>
<!-- Node7&#45;&gt;Node4 -->
<g id="edge8" class="edge">
<title>Node7&#45;&gt;Node4</title>
<path fill="none" stroke="midnightblue" d="M205.71,-117.1C169.24,-108.16 111.84,-93.77 62.5,-80 59.85,-79.26 57.08,-78.46 54.33,-77.65"/>
<polygon fill="midnightblue" stroke="midnightblue" points="205.32,-120.61 215.87,-119.58 206.99,-113.81 205.32,-120.61"/>
</g>
<!-- Node7&#45;&gt;Node6 -->
<g id="edge10" class="edge">
<title>Node7&#45;&gt;Node6</title>
<path fill="none" stroke="midnightblue" d="M207.94,-112.65C181.5,-102.44 145.68,-88.61 122.1,-79.5"/>
<polygon fill="midnightblue" stroke="midnightblue" points="206.98,-116.04 217.57,-116.37 209.51,-109.51 206.98,-116.04"/>
</g>
<!-- Node8 -->
<g id="node8" class="node">
<title>Node8</title>
<g id="a_node8"><a xlink:href="box__display_8c.html" target="_top" xlink:title=" ">
<polygon fill="white" stroke="black" points="198,-58.5 198,-79.5 287,-79.5 287,-58.5 198,-58.5"/>
<text text-anchor="middle" x="242.5" y="-65.9" font-family="DejaVuSans" font-size="12.00">box_display.c</text>
</a>
</g>
</g>
<!-- Node7&#45;&gt;Node8 -->
<g id="edge7" class="edge">
<title>Node7&#45;&gt;Node8</title>
<path fill="none" stroke="midnightblue" d="M242.5,-106.16C242.5,-97.16 242.5,-86.92 242.5,-79.64"/>
<polygon fill="midnightblue" stroke="midnightblue" points="239,-106.25 242.5,-116.25 246,-106.25 239,-106.25"/>
</g>
<!-- Node9 -->
<g id="node9" class="node">
<title>Node9</title>
<g id="a_node9"><a xlink:href="expand_8c.html" target="_top" xlink:title=" ">
<polygon fill="white" stroke="black" points="305,-58.5 305,-79.5 370,-79.5 370,-58.5 305,-58.5"/>
<text text-anchor="middle" x="337.5" y="-65.9" font-family="DejaVuSans" font-size="12.00">expand.c</text>
</a>
</g>
</g>
<!-- Node7&#45;&gt;Node9 -->
<g id="edge9" class="edge">
<title>Node7&#45;&gt;Node9</title>
<path fill="none" stroke="midnightblue" d="M267.87,-111.05C284.77,-101.08 306.49,-88.28 321.14,-79.64"/>
<polygon fill="midnightblue" stroke="midnightblue" points="265.89,-108.15 259.05,-116.25 269.44,-114.18 265.89,-108.15"/>
</g>
<!-- Node10 -->
<g id="node10" class="node">
<title>Node10</title>
<g id="a_node10"><a xlink:href="hash_8c.html" target="_top" xlink:title=" ">
<polygon fill="white" stroke="black" points="388.5,-58.5 388.5,-79.5 440.5,-79.5 440.5,-58.5 388.5,-58.5"/>
<text text-anchor="middle" x="414.5" y="-65.9" font-family="DejaVuSans" font-size="12.00">hash.c</text>
</a>
</g>
</g>
<!-- Node7&#45;&gt;Node10 -->
<g id="edge11" class="edge">
<title>Node7&#45;&gt;Node10</title>
<path fill="none" stroke="midnightblue" d="M279.06,-114.1C311.87,-103.41 359.23,-87.99 388.38,-78.51"/>
<polygon fill="midnightblue" stroke="midnightblue" points="277.8,-110.83 269.38,-117.25 279.97,-117.48 277.8,-110.83"/>
</g>
<!-- Node11 -->
<g id="node11" class="node">
<title>Node11</title>
<g id="a_node11"><a xlink:href="lexer_8c.html" target="_top" xlink:title=" ">
<polygon fill="white" stroke="black" points="459,-58.5 459,-79.5 510,-79.5 510,-58.5 459,-58.5"/>
<text text-anchor="middle" x="484.5" y="-65.9" font-family="DejaVuSans" font-size="12.00">lexer.c</text>
</a>
</g>
</g>
<!-- Node7&#45;&gt;Node11 -->
<g id="edge12" class="edge">
<title>Node7&#45;&gt;Node11</title>
<path fill="none" stroke="midnightblue" d="M279.15,-117.01C280.62,-116.67 282.07,-116.33 283.5,-116 357.07,-99.05 376.28,-98.38 449.5,-80 452.56,-79.23 455.77,-78.38 458.94,-77.51"/>
<polygon fill="midnightblue" stroke="midnightblue" points="278.3,-113.62 269.38,-119.34 279.92,-120.43 278.3,-113.62"/>
</g>
<!-- Node12 -->
<g id="node12" class="node">
<title>Node12</title>
<g id="a_node12"><a xlink:href="str_8c.html" target="_top" xlink:title=" ">
<polygon fill="white" stroke="black" points="141.5,-58.5 141.5,-79.5 179.5,-79.5 179.5,-58.5 141.5,-58.5"/>
<text text-anchor="middle" x="160.5" y="-65.9" font-family="DejaVuSans" font-size="12.00">str.c</text>
</a>
</g>
</g>
<!-- Node7&#45;&gt;Node12 -->
<g id="edge13" class="edge">
<title>Node7&#45;&gt;Node12</title>
<path fill="none" stroke="midnightblue" d="M219.79,-110.49C205.32,-100.61 187.03,-88.12 174.62,-79.64"/>
<polygon fill="midnightblue" stroke="midnightblue" points="217.98,-113.5 228.22,-116.25 221.93,-107.72 217.98,-113.5"/>
</g>
<!-- Node7&#45;&gt;Node13 -->
<g id="edge14" class="edge">
<title>Node7&#45;&gt;Node13</title>
<path fill="none" stroke="midnightblue" d="M279.12,-116.9C280.6,-116.59 282.06,-116.28 283.5,-116 387.59,-95.41 414.94,-98.02 519.5,-80 522.4,-79.5 525.39,-78.97 528.39,-78.42"/>
<polygon fill="midnightblue" stroke="midnightblue" points="278.32,-113.49 269.33,-119.1 279.86,-120.32 278.32,-113.49"/>
</g>
<!-- Node14 -->
<g id="node14" class="node">
<title>Node14</title>
<g id="a_node14"><a xlink:href="tex_8c.html" target="_top" xlink:title=" ">
<polygon fill="white" stroke="black" points="551,-0.5 551,-21.5 592,-21.5 592,-0.5 551,-0.5"/>
<text text-anchor="middle" x="571.5" y="-7.9" font-family="DejaVuSans" font-size="12.00">tex.c</text>
</a>
</g>
</g>
<!-- Node13&#45;&gt;Node14 -->
<g id="edge15" class="edge">
<title>Node13&#45;&gt;Node14</title>
<path fill="none" stroke="midnightblue" d="M571.5,-48.16C571.5,-39.16 571.5,-28.92 571.5,-21.64"/>
<polygon fill="midnightblue" stroke="midnightblue" points="568,-48.25 571.5,-58.25 575,-48.25 568,-48.25"/>
</g>
</g>
</svg>
