<?xml version="1.0" encoding="UTF-8" standalone="no"?>
<!DOCTYPE svg PUBLIC "-//W3C//DTD SVG 1.1//EN"
 "http://www.w3.org/Graphics/SVG/1.1/DTD/svg11.dtd">
<!-- Generated by graphviz version 2.44.0 ()
 -->
<!-- Title: eqtb.h Pages: 1 -->
<svg width="366pt" height="378pt"
 viewBox="0.00 0.00 365.50 378.00" xmlns="http://www.w3.org/2000/svg" xmlns:xlink="http://www.w3.org/1999/xlink">
<g id="graph0" class="graph" transform="scale(1 1) rotate(0) translate(4 374)">
<title>eqtb.h</title>
<polygon fill="white" stroke="transparent" points="-4,4 -4,-374 361.5,-374 361.5,4 -4,4"/>
<!-- Node1 -->
<g id="node1" class="node">
<title>Node1</title>
<g id="a_node1"><a xlink:title=" ">
<polygon fill="#bfbfbf" stroke="black" points="12,-348.5 12,-369.5 62,-369.5 62,-348.5 12,-348.5"/>
<text text-anchor="middle" x="37" y="-355.9" font-family="DejaVuSans" font-size="12.00">eqtb.h</text>
</a>
</g>
</g>
<!-- Node2 -->
<g id="node2" class="node">
<title>Node2</title>
<g id="a_node2"><a xlink:href="tex__types_8h.html" target="_top" xlink:title=" ">
<polygon fill="white" stroke="black" points="37.5,-58.5 37.5,-79.5 114.5,-79.5 114.5,-58.5 37.5,-58.5"/>
<text text-anchor="middle" x="76" y="-65.9" font-family="DejaVuSans" font-size="12.00">tex_types.h</text>
</a>
</g>
</g>
<!-- Node1&#45;&gt;Node2 -->
<g id="edge1" class="edge">
<title>Node1&#45;&gt;Node2</title>
<path fill="none" stroke="midnightblue" d="M31.54,-348.28C21.25,-329.02 0,-284.37 0,-244 0,-244 0,-244 0,-184 0,-143.54 33.56,-106.51 56.08,-86.22"/>
<polygon fill="midnightblue" stroke="midnightblue" points="58.53,-88.73 63.79,-79.53 53.94,-83.44 58.53,-88.73"/>
</g>
<!-- Node5 -->
<g id="node5" class="node">
<title>Node5</title>
<g id="a_node5"><a xlink:href="tex__constant_8h.html" target="_top" xlink:title=" ">
<polygon fill="white" stroke="black" points="28,-290.5 28,-311.5 122,-311.5 122,-290.5 28,-290.5"/>
<text text-anchor="middle" x="75" y="-297.9" font-family="DejaVuSans" font-size="12.00">tex_constant.h</text>
</a>
</g>
</g>
<!-- Node1&#45;&gt;Node5 -->
<g id="edge4" class="edge">
<title>Node1&#45;&gt;Node5</title>
<path fill="none" stroke="midnightblue" d="M43.62,-348.25C48.9,-340.46 56.45,-329.33 62.82,-319.94"/>
<polygon fill="midnightblue" stroke="midnightblue" points="65.74,-321.88 68.46,-311.64 59.95,-317.95 65.74,-321.88"/>
</g>
<!-- Node3 -->
<g id="node3" class="node">
<title>Node3</title>
<g id="a_node3"><a xlink:title=" ">
<polygon fill="white" stroke="#bfbfbf" points="43.5,-0.5 43.5,-21.5 108.5,-21.5 108.5,-0.5 43.5,-0.5"/>
<text text-anchor="middle" x="76" y="-7.9" font-family="DejaVuSans" font-size="12.00">stdbool.h</text>
</a>
</g>
</g>
<!-- Node2&#45;&gt;Node3 -->
<g id="edge2" class="edge">
<title>Node2&#45;&gt;Node3</title>
<path fill="none" stroke="midnightblue" d="M76,-58.25C76,-50.94 76,-40.69 76,-31.7"/>
<polygon fill="midnightblue" stroke="midnightblue" points="79.5,-31.64 76,-21.64 72.5,-31.64 79.5,-31.64"/>
</g>
<!-- Node4 -->
<g id="node4" class="node">
<title>Node4</title>
<g id="a_node4"><a xlink:title=" ">
<polygon fill="white" stroke="#bfbfbf" points="148.5,-0.5 148.5,-21.5 203.5,-21.5 203.5,-0.5 148.5,-0.5"/>
<text text-anchor="middle" x="176" y="-7.9" font-family="DejaVuSans" font-size="12.00">stdint.h</text>
</a>
</g>
</g>
<!-- Node2&#45;&gt;Node4 -->
<g id="edge3" class="edge">
<title>Node2&#45;&gt;Node4</title>
<path fill="none" stroke="midnightblue" d="M93.42,-58.25C109.05,-49.49 132.2,-36.53 150.02,-26.55"/>
<polygon fill="midnightblue" stroke="midnightblue" points="151.77,-29.58 158.78,-21.64 148.35,-23.47 151.77,-29.58"/>
</g>
<!-- Node6 -->
<g id="node6" class="node">
<title>Node6</title>
<g id="a_node6"><a xlink:href="box_8h.html" target="_top" xlink:title=" ">
<polygon fill="white" stroke="black" points="52,-232.5 52,-253.5 98,-253.5 98,-232.5 52,-232.5"/>
<text text-anchor="middle" x="75" y="-239.9" font-family="DejaVuSans" font-size="12.00">box.h</text>
</a>
</g>
</g>
<!-- Node5&#45;&gt;Node6 -->
<g id="edge5" class="edge">
<title>Node5&#45;&gt;Node6</title>
<path fill="none" stroke="midnightblue" d="M75,-290.25C75,-282.94 75,-272.69 75,-263.7"/>
<polygon fill="midnightblue" stroke="midnightblue" points="78.5,-263.64 75,-253.64 71.5,-263.64 78.5,-263.64"/>
</g>
<!-- Node7 -->
<g id="node7" class="node">
<title>Node7</title>
<g id="a_node7"><a xlink:href="str_8h.html" target="_top" xlink:title=" ">
<polygon fill="white" stroke="black" points="146.5,-174.5 146.5,-195.5 185.5,-195.5 185.5,-174.5 146.5,-174.5"/>
<text text-anchor="middle" x="166" y="-181.9" font-family="DejaVuSans" font-size="12.00">str.h</text>
</a>
</g>
</g>
<!-- Node6&#45;&gt;Node7 -->
<g id="edge6" class="edge">
<title>Node6&#45;&gt;Node7</title>
<path fill="none" stroke="midnightblue" d="M90.85,-232.25C104.81,-223.65 125.37,-211 141.46,-201.1"/>
<polygon fill="midnightblue" stroke="midnightblue" points="143.65,-203.86 150.33,-195.64 139.98,-197.9 143.65,-203.86"/>
</g>
<!-- Node12 -->
<g id="node12" class="node">
<title>Node12</title>
<g id="a_node12"><a xlink:href="texmath_8h.html" target="_top" xlink:title=" ">
<polygon fill="white" stroke="black" points="35,-174.5 35,-195.5 103,-195.5 103,-174.5 35,-174.5"/>
<text text-anchor="middle" x="69" y="-181.9" font-family="DejaVuSans" font-size="12.00">texmath.h</text>
</a>
</g>
</g>
<!-- Node6&#45;&gt;Node12 -->
<g id="edge15" class="edge">
<title>Node6&#45;&gt;Node12</title>
<path fill="none" stroke="midnightblue" d="M73.95,-232.25C73.17,-224.94 72.07,-214.69 71.11,-205.7"/>
<polygon fill="midnightblue" stroke="midnightblue" points="74.58,-205.21 70.03,-195.64 67.62,-205.96 74.58,-205.21"/>
</g>
<!-- Node7&#45;&gt;Node2 -->
<g id="edge14" class="edge">
<title>Node7&#45;&gt;Node2</title>
<path fill="none" stroke="midnightblue" d="M146.3,-175.73C130.5,-168.14 108.9,-155.41 96,-138 85.49,-123.82 80.48,-104.18 78.1,-89.65"/>
<polygon fill="midnightblue" stroke="midnightblue" points="81.57,-89.15 76.75,-79.72 74.63,-90.1 81.57,-89.15"/>
</g>
<!-- Node7&#45;&gt;Node4 -->
<g id="edge8" class="edge">
<title>Node7&#45;&gt;Node4</title>
<path fill="none" stroke="midnightblue" d="M169.59,-174.3C172.78,-165.1 177.22,-150.82 179,-138 184.18,-100.6 181.02,-56.36 178.4,-31.51"/>
<polygon fill="midnightblue" stroke="midnightblue" points="181.87,-31.08 177.27,-21.54 174.92,-31.87 181.87,-31.08"/>
</g>
<!-- Node8 -->
<g id="node8" class="node">
<title>Node8</title>
<g id="a_node8"><a xlink:title=" ">
<polygon fill="white" stroke="#bfbfbf" points="226,-58.5 226,-79.5 278,-79.5 278,-58.5 226,-58.5"/>
<text text-anchor="middle" x="252" y="-65.9" font-family="DejaVuSans" font-size="12.00">stdio.h</text>
</a>
</g>
</g>
<!-- Node7&#45;&gt;Node8 -->
<g id="edge7" class="edge">
<title>Node7&#45;&gt;Node8</title>
<path fill="none" stroke="midnightblue" d="M177.02,-174.46C186.87,-165.61 201.36,-151.76 212,-138 224.01,-122.48 235.1,-103.04 242.54,-88.93"/>
<polygon fill="midnightblue" stroke="midnightblue" points="245.82,-90.21 247.28,-79.72 239.59,-87.01 245.82,-90.21"/>
</g>
<!-- Node9 -->
<g id="node9" class="node">
<title>Node9</title>
<g id="a_node9"><a xlink:href="global__const_8h.html" target="_top" xlink:title=" ">
<polygon fill="white" stroke="black" points="264.5,-116.5 264.5,-137.5 357.5,-137.5 357.5,-116.5 264.5,-116.5"/>
<text text-anchor="middle" x="311" y="-123.9" font-family="DejaVuSans" font-size="12.00">global_const.h</text>
</a>
</g>
</g>
<!-- Node7&#45;&gt;Node9 -->
<g id="edge9" class="edge">
<title>Node7&#45;&gt;Node9</title>
<path fill="none" stroke="midnightblue" d="M185.56,-176.45C208.86,-167.45 248.21,-152.25 276.63,-141.27"/>
<polygon fill="midnightblue" stroke="midnightblue" points="278.12,-144.45 286.18,-137.58 275.59,-137.92 278.12,-144.45"/>
</g>
<!-- Node11 -->
<g id="node11" class="node">
<title>Node11</title>
<g id="a_node11"><a xlink:href="charset_8h.html" target="_top" xlink:title=" ">
<polygon fill="white" stroke="black" points="104.5,-116.5 104.5,-137.5 169.5,-137.5 169.5,-116.5 104.5,-116.5"/>
<text text-anchor="middle" x="137" y="-123.9" font-family="DejaVuSans" font-size="12.00">charset.h</text>
</a>
</g>
</g>
<!-- Node7&#45;&gt;Node11 -->
<g id="edge12" class="edge">
<title>Node7&#45;&gt;Node11</title>
<path fill="none" stroke="midnightblue" d="M160.95,-174.25C157,-166.62 151.39,-155.79 146.59,-146.53"/>
<polygon fill="midnightblue" stroke="midnightblue" points="149.7,-144.91 141.99,-137.64 143.48,-148.13 149.7,-144.91"/>
</g>
<!-- Node9&#45;&gt;Node8 -->
<g id="edge11" class="edge">
<title>Node9&#45;&gt;Node8</title>
<path fill="none" stroke="midnightblue" d="M300.72,-116.25C292.18,-108.14 279.82,-96.41 269.69,-86.79"/>
<polygon fill="midnightblue" stroke="midnightblue" points="271.82,-83.99 262.16,-79.64 267,-89.07 271.82,-83.99"/>
</g>
<!-- Node10 -->
<g id="node10" class="node">
<title>Node10</title>
<g id="a_node10"><a xlink:title=" ">
<polygon fill="white" stroke="#bfbfbf" points="296.5,-58.5 296.5,-79.5 355.5,-79.5 355.5,-58.5 296.5,-58.5"/>
<text text-anchor="middle" x="326" y="-65.9" font-family="DejaVuSans" font-size="12.00">assert.h</text>
</a>
</g>
</g>
<!-- Node9&#45;&gt;Node10 -->
<g id="edge10" class="edge">
<title>Node9&#45;&gt;Node10</title>
<path fill="none" stroke="midnightblue" d="M313.61,-116.25C315.59,-108.86 318.37,-98.47 320.8,-89.41"/>
<polygon fill="midnightblue" stroke="midnightblue" points="324.21,-90.21 323.42,-79.64 317.45,-88.4 324.21,-90.21"/>
</g>
<!-- Node11&#45;&gt;Node2 -->
<g id="edge13" class="edge">
<title>Node11&#45;&gt;Node2</title>
<path fill="none" stroke="midnightblue" d="M126.37,-116.25C117.45,-108.05 104.51,-96.17 93.98,-86.51"/>
<polygon fill="midnightblue" stroke="midnightblue" points="96.24,-83.83 86.5,-79.64 91.5,-88.98 96.24,-83.83"/>
</g>
<!-- Node12&#45;&gt;Node2 -->
<g id="edge16" class="edge">
<title>Node12&#45;&gt;Node2</title>
<path fill="none" stroke="midnightblue" d="M66.48,-174.28C63.39,-161.05 58.93,-136.66 62,-116 63.33,-107.04 66.05,-97.42 68.74,-89.3"/>
<polygon fill="midnightblue" stroke="midnightblue" points="72.11,-90.27 72.14,-79.68 65.51,-87.94 72.11,-90.27"/>
</g>
</g>
</svg>
