<?xml version="1.0" encoding="UTF-8" standalone="no"?>
<!DOCTYPE svg PUBLIC "-//W3C//DTD SVG 1.1//EN"
 "http://www.w3.org/Graphics/SVG/1.1/DTD/svg11.dtd">
<!-- Generated by graphviz version 2.44.0 ()
 -->
<!-- Title: eqtb.h Pages: 1 -->
<svg width="560pt" height="204pt"
 viewBox="0.00 0.00 560.00 204.00" xmlns="http://www.w3.org/2000/svg" xmlns:xlink="http://www.w3.org/1999/xlink">
<g id="graph0" class="graph" transform="scale(1 1) rotate(0) translate(4 200)">
<title>eqtb.h</title>
<polygon fill="white" stroke="transparent" points="-4,4 -4,-200 556,-200 556,4 -4,4"/>
<!-- Node1 -->
<g id="node1" class="node">
<title>Node1</title>
<g id="a_node1"><a xlink:title=" ">
<polygon fill="#bfbfbf" stroke="black" points="254.5,-174.5 254.5,-195.5 304.5,-195.5 304.5,-174.5 254.5,-174.5"/>
<text text-anchor="middle" x="279.5" y="-181.9" font-family="DejaVuSans" font-size="12.00">eqtb.h</text>
</a>
</g>
</g>
<!-- Node2 -->
<g id="node2" class="node">
<title>Node2</title>
<g id="a_node2"><a xlink:href="eqtb_8c.html" target="_top" xlink:title=" ">
<polygon fill="white" stroke="black" points="0,-58.5 0,-79.5 49,-79.5 49,-58.5 0,-58.5"/>
<text text-anchor="middle" x="24.5" y="-65.9" font-family="DejaVuSans" font-size="12.00">eqtb.c</text>
</a>
</g>
</g>
<!-- Node1&#45;&gt;Node2 -->
<g id="edge1" class="edge">
<title>Node1&#45;&gt;Node2</title>
<path fill="none" stroke="midnightblue" d="M244.63,-176.09C213.79,-168.43 168,-155.42 130.5,-138 94.41,-121.23 56.06,-93.94 36.9,-79.56"/>
<polygon fill="midnightblue" stroke="midnightblue" points="243.94,-179.52 254.48,-178.48 245.59,-172.72 243.94,-179.52"/>
</g>
<!-- Node3 -->
<g id="node3" class="node">
<title>Node3</title>
<g id="a_node3"><a xlink:href="fonts_8c.html" target="_top" xlink:title=" ">
<polygon fill="white" stroke="black" points="67,-58.5 67,-79.5 118,-79.5 118,-58.5 67,-58.5"/>
<text text-anchor="middle" x="92.5" y="-65.9" font-family="DejaVuSans" font-size="12.00">fonts.c</text>
</a>
</g>
</g>
<!-- Node1&#45;&gt;Node3 -->
<g id="edge2" class="edge">
<title>Node1&#45;&gt;Node3</title>
<path fill="none" stroke="midnightblue" d="M244.55,-174.49C220.08,-166.88 187.29,-154.71 161.5,-138 135.81,-121.36 111.77,-94.01 100.02,-79.59"/>
<polygon fill="midnightblue" stroke="midnightblue" points="243.57,-177.85 254.15,-177.38 245.58,-171.15 243.57,-177.85"/>
</g>
<!-- Node4 -->
<g id="node4" class="node">
<title>Node4</title>
<g id="a_node4"><a xlink:href="hash_8h.html" target="_top" xlink:title=" ">
<polygon fill="white" stroke="black" points="171,-116.5 171,-137.5 224,-137.5 224,-116.5 171,-116.5"/>
<text text-anchor="middle" x="197.5" y="-123.9" font-family="DejaVuSans" font-size="12.00">hash.h</text>
</a>
</g>
</g>
<!-- Node1&#45;&gt;Node4 -->
<g id="edge3" class="edge">
<title>Node1&#45;&gt;Node4</title>
<path fill="none" stroke="midnightblue" d="M256.79,-168.49C242.32,-158.61 224.03,-146.12 211.62,-137.64"/>
<polygon fill="midnightblue" stroke="midnightblue" points="254.98,-171.5 265.22,-174.25 258.93,-165.72 254.98,-171.5"/>
</g>
<!-- Node9 -->
<g id="node9" class="node">
<title>Node9</title>
<g id="a_node9"><a xlink:href="tex__header_8h.html" target="_top" xlink:title=" ">
<polygon fill="white" stroke="black" points="416.5,-58.5 416.5,-79.5 502.5,-79.5 502.5,-58.5 416.5,-58.5"/>
<text text-anchor="middle" x="459.5" y="-65.9" font-family="DejaVuSans" font-size="12.00">tex_header.h</text>
</a>
</g>
</g>
<!-- Node1&#45;&gt;Node9 -->
<g id="edge16" class="edge">
<title>Node1&#45;&gt;Node9</title>
<path fill="none" stroke="midnightblue" d="M270.43,-164.76C264.91,-149.92 260.77,-129.68 271.5,-116 276.04,-110.22 362.22,-90.85 416.31,-79.16"/>
<polygon fill="midnightblue" stroke="midnightblue" points="267.22,-166.16 274.31,-174.03 273.68,-163.45 267.22,-166.16"/>
</g>
<!-- Node11 -->
<g id="node11" class="node">
<title>Node11</title>
<g id="a_node11"><a xlink:href="mem_8c.html" target="_top" xlink:title=" ">
<polygon fill="white" stroke="black" points="280.5,-116.5 280.5,-137.5 332.5,-137.5 332.5,-116.5 280.5,-116.5"/>
<text text-anchor="middle" x="306.5" y="-123.9" font-family="DejaVuSans" font-size="12.00">mem.c</text>
</a>
</g>
</g>
<!-- Node1&#45;&gt;Node11 -->
<g id="edge12" class="edge">
<title>Node1&#45;&gt;Node11</title>
<path fill="none" stroke="midnightblue" d="M288.64,-165.04C293.08,-155.83 298.23,-145.16 301.85,-137.64"/>
<polygon fill="midnightblue" stroke="midnightblue" points="285.39,-163.72 284.2,-174.25 291.7,-166.76 285.39,-163.72"/>
</g>
<!-- Node12 -->
<g id="node12" class="node">
<title>Node12</title>
<g id="a_node12"><a xlink:href="print_8c.html" target="_top" xlink:title=" ">
<polygon fill="white" stroke="black" points="351,-116.5 351,-137.5 400,-137.5 400,-116.5 351,-116.5"/>
<text text-anchor="middle" x="375.5" y="-123.9" font-family="DejaVuSans" font-size="12.00">print.c</text>
</a>
</g>
</g>
<!-- Node1&#45;&gt;Node12 -->
<g id="edge13" class="edge">
<title>Node1&#45;&gt;Node12</title>
<path fill="none" stroke="midnightblue" d="M305.13,-169.05C322.22,-159.08 344.16,-146.28 358.97,-137.64"/>
<polygon fill="midnightblue" stroke="midnightblue" points="303.1,-166.18 296.22,-174.25 306.62,-172.23 303.1,-166.18"/>
</g>
<!-- Node13 -->
<g id="node13" class="node">
<title>Node13</title>
<g id="a_node13"><a xlink:href="printout_8c.html" target="_top" xlink:title=" ">
<polygon fill="white" stroke="black" points="418,-116.5 418,-137.5 483,-137.5 483,-116.5 418,-116.5"/>
<text text-anchor="middle" x="450.5" y="-123.9" font-family="DejaVuSans" font-size="12.00">printout.c</text>
</a>
</g>
</g>
<!-- Node1&#45;&gt;Node13 -->
<g id="edge14" class="edge">
<title>Node1&#45;&gt;Node13</title>
<path fill="none" stroke="midnightblue" d="M314.43,-172.56C345.98,-162.23 391.86,-147.21 421.44,-137.52"/>
<polygon fill="midnightblue" stroke="midnightblue" points="313.15,-169.3 304.73,-175.74 315.32,-175.95 313.15,-169.3"/>
</g>
<!-- Node14 -->
<g id="node14" class="node">
<title>Node14</title>
<g id="a_node14"><a xlink:href="scan_8c.html" target="_top" xlink:title=" ">
<polygon fill="white" stroke="black" points="501,-116.5 501,-137.5 552,-137.5 552,-116.5 501,-116.5"/>
<text text-anchor="middle" x="526.5" y="-123.9" font-family="DejaVuSans" font-size="12.00">scan.c</text>
</a>
</g>
</g>
<!-- Node1&#45;&gt;Node14 -->
<g id="edge15" class="edge">
<title>Node1&#45;&gt;Node14</title>
<path fill="none" stroke="midnightblue" d="M314.8,-177.07C357.01,-168.61 429.71,-153.51 491.5,-138 494.56,-137.23 497.77,-136.38 500.94,-135.51"/>
<polygon fill="midnightblue" stroke="midnightblue" points="313.87,-173.68 304.75,-179.07 315.24,-180.55 313.87,-173.68"/>
</g>
<!-- Node4&#45;&gt;Node2 -->
<g id="edge4" class="edge">
<title>Node4&#45;&gt;Node2</title>
<path fill="none" stroke="midnightblue" d="M160.95,-114.17C127.35,-103.29 78.44,-87.46 49.22,-78"/>
<polygon fill="midnightblue" stroke="midnightblue" points="160.26,-117.62 170.85,-117.37 162.41,-110.96 160.26,-117.62"/>
</g>
<!-- Node4&#45;&gt;Node3 -->
<g id="edge6" class="edge">
<title>Node4&#45;&gt;Node3</title>
<path fill="none" stroke="midnightblue" d="M170.24,-111.46C151.45,-101.44 127,-88.4 110.58,-79.64"/>
<polygon fill="midnightblue" stroke="midnightblue" points="168.74,-114.63 179.21,-116.25 172.03,-108.45 168.74,-114.63"/>
</g>
<!-- Node5 -->
<g id="node5" class="node">
<title>Node5</title>
<g id="a_node5"><a xlink:href="expand_8c.html" target="_top" xlink:title=" ">
<polygon fill="white" stroke="black" points="333,-58.5 333,-79.5 398,-79.5 398,-58.5 333,-58.5"/>
<text text-anchor="middle" x="365.5" y="-65.9" font-family="DejaVuSans" font-size="12.00">expand.c</text>
</a>
</g>
</g>
<!-- Node4&#45;&gt;Node5 -->
<g id="edge5" class="edge">
<title>Node4&#45;&gt;Node5</title>
<path fill="none" stroke="midnightblue" d="M233.64,-113.95C264.49,-103.67 308.25,-89.08 336.75,-79.58"/>
<polygon fill="midnightblue" stroke="midnightblue" points="232.5,-110.64 224.12,-117.13 234.71,-117.28 232.5,-110.64"/>
</g>
<!-- Node6 -->
<g id="node6" class="node">
<title>Node6</title>
<g id="a_node6"><a xlink:href="hash_8c.html" target="_top" xlink:title=" ">
<polygon fill="white" stroke="black" points="136.5,-58.5 136.5,-79.5 188.5,-79.5 188.5,-58.5 136.5,-58.5"/>
<text text-anchor="middle" x="162.5" y="-65.9" font-family="DejaVuSans" font-size="12.00">hash.c</text>
</a>
</g>
</g>
<!-- Node4&#45;&gt;Node6 -->
<g id="edge7" class="edge">
<title>Node4&#45;&gt;Node6</title>
<path fill="none" stroke="midnightblue" d="M186.02,-107.63C180.18,-98.29 173.32,-87.32 168.53,-79.64"/>
<polygon fill="midnightblue" stroke="midnightblue" points="183.14,-109.62 191.4,-116.25 189.07,-105.91 183.14,-109.62"/>
</g>
<!-- Node7 -->
<g id="node7" class="node">
<title>Node7</title>
<g id="a_node7"><a xlink:href="lexer_8c.html" target="_top" xlink:title=" ">
<polygon fill="white" stroke="black" points="207,-58.5 207,-79.5 258,-79.5 258,-58.5 207,-58.5"/>
<text text-anchor="middle" x="232.5" y="-65.9" font-family="DejaVuSans" font-size="12.00">lexer.c</text>
</a>
</g>
</g>
<!-- Node4&#45;&gt;Node7 -->
<g id="edge8" class="edge">
<title>Node4&#45;&gt;Node7</title>
<path fill="none" stroke="midnightblue" d="M208.98,-107.63C214.82,-98.29 221.68,-87.32 226.47,-79.64"/>
<polygon fill="midnightblue" stroke="midnightblue" points="205.93,-105.91 203.6,-116.25 211.86,-109.62 205.93,-105.91"/>
</g>
<!-- Node8 -->
<g id="node8" class="node">
<title>Node8</title>
<g id="a_node8"><a xlink:href="str_8c.html" target="_top" xlink:title=" ">
<polygon fill="white" stroke="black" points="276.5,-58.5 276.5,-79.5 314.5,-79.5 314.5,-58.5 276.5,-58.5"/>
<text text-anchor="middle" x="295.5" y="-65.9" font-family="DejaVuSans" font-size="12.00">str.c</text>
</a>
</g>
</g>
<!-- Node4&#45;&gt;Node8 -->
<g id="edge9" class="edge">
<title>Node4&#45;&gt;Node8</title>
<path fill="none" stroke="midnightblue" d="M223.67,-111.05C241.11,-101.08 263.51,-88.28 278.63,-79.64"/>
<polygon fill="midnightblue" stroke="midnightblue" points="221.52,-108.25 214.57,-116.25 224.99,-114.32 221.52,-108.25"/>
</g>
<!-- Node4&#45;&gt;Node9 -->
<g id="edge10" class="edge">
<title>Node4&#45;&gt;Node9</title>
<path fill="none" stroke="midnightblue" d="M234.14,-117C235.61,-116.66 237.07,-116.32 238.5,-116 300.04,-102.09 371.59,-87.48 416.21,-78.56"/>
<polygon fill="midnightblue" stroke="midnightblue" points="233.3,-113.6 224.38,-119.31 234.91,-120.41 233.3,-113.6"/>
</g>
<!-- Node10 -->
<g id="node10" class="node">
<title>Node10</title>
<g id="a_node10"><a xlink:href="tex_8c.html" target="_top" xlink:title=" ">
<polygon fill="white" stroke="black" points="439,-0.5 439,-21.5 480,-21.5 480,-0.5 439,-0.5"/>
<text text-anchor="middle" x="459.5" y="-7.9" font-family="DejaVuSans" font-size="12.00">tex.c</text>
</a>
</g>
</g>
<!-- Node9&#45;&gt;Node10 -->
<g id="edge11" class="edge">
<title>Node9&#45;&gt;Node10</title>
<path fill="none" stroke="midnightblue" d="M459.5,-48.16C459.5,-39.16 459.5,-28.92 459.5,-21.64"/>
<polygon fill="midnightblue" stroke="midnightblue" points="456,-48.25 459.5,-58.25 463,-48.25 456,-48.25"/>
</g>
</g>
</svg>
