<?xml version="1.0" encoding="UTF-8" standalone="no"?>
<!DOCTYPE svg PUBLIC "-//W3C//DTD SVG 1.1//EN"
 "http://www.w3.org/Graphics/SVG/1.1/DTD/svg11.dtd">
<!-- Generated by graphviz version 2.44.0 ()
 -->
<!-- Title: eqtb.c Pages: 1 -->
<svg width="961pt" height="436pt"
 viewBox="0.00 0.00 961.00 436.00" xmlns="http://www.w3.org/2000/svg" xmlns:xlink="http://www.w3.org/1999/xlink">
<g id="graph0" class="graph" transform="scale(1 1) rotate(0) translate(4 432)">
<title>eqtb.c</title>
<polygon fill="white" stroke="transparent" points="-4,4 -4,-432 957,-432 957,4 -4,4"/>
<!-- Node1 -->
<g id="node1" class="node">
<title>Node1</title>
<g id="a_node1"><a xlink:title=" ">
<polygon fill="#bfbfbf" stroke="black" points="441.5,-406.5 441.5,-427.5 490.5,-427.5 490.5,-406.5 441.5,-406.5"/>
<text text-anchor="middle" x="466" y="-413.9" font-family="DejaVuSans" font-size="12.00">eqtb.c</text>
</a>
</g>
</g>
<!-- Node2 -->
<g id="node2" class="node">
<title>Node2</title>
<g id="a_node2"><a xlink:title=" ">
<polygon fill="white" stroke="#bfbfbf" points="38.5,-348.5 38.5,-369.5 87.5,-369.5 87.5,-348.5 38.5,-348.5"/>
<text text-anchor="middle" x="63" y="-355.9" font-family="DejaVuSans" font-size="12.00">time.h</text>
</a>
</g>
</g>
<!-- Node1&#45;&gt;Node2 -->
<g id="edge1" class="edge">
<title>Node1&#45;&gt;Node2</title>
<path fill="none" stroke="midnightblue" d="M441.12,-413.94C381.96,-408.8 228.39,-394.09 102,-370 100.54,-369.72 99.06,-369.42 97.56,-369.1"/>
<polygon fill="midnightblue" stroke="midnightblue" points="98.18,-365.66 87.65,-366.82 96.61,-372.48 98.18,-365.66"/>
</g>
<!-- Node3 -->
<g id="node3" class="node">
<title>Node3</title>
<g id="a_node3"><a xlink:href="charset_8h.html" target="_top" xlink:title=" ">
<polygon fill="white" stroke="black" points="568.5,-174.5 568.5,-195.5 633.5,-195.5 633.5,-174.5 568.5,-174.5"/>
<text text-anchor="middle" x="601" y="-181.9" font-family="DejaVuSans" font-size="12.00">charset.h</text>
</a>
</g>
</g>
<!-- Node1&#45;&gt;Node3 -->
<g id="edge2" class="edge">
<title>Node1&#45;&gt;Node3</title>
<path fill="none" stroke="midnightblue" d="M490.66,-415.73C565.32,-413.35 787.07,-394.36 840,-254 843.45,-244.85 846.23,-239.54 840,-232 815.58,-202.43 705.65,-191.67 643.74,-187.91"/>
<polygon fill="midnightblue" stroke="midnightblue" points="643.68,-184.4 633.5,-187.32 643.28,-191.39 643.68,-184.4"/>
</g>
<!-- Node11 -->
<g id="node11" class="node">
<title>Node11</title>
<g id="a_node11"><a xlink:href="print_8h.html" target="_top" xlink:title=" ">
<polygon fill="white" stroke="black" points="220,-290.5 220,-311.5 270,-311.5 270,-290.5 220,-290.5"/>
<text text-anchor="middle" x="245" y="-297.9" font-family="DejaVuSans" font-size="12.00">print.h</text>
</a>
</g>
</g>
<!-- Node1&#45;&gt;Node11 -->
<g id="edge10" class="edge">
<title>Node1&#45;&gt;Node11</title>
<path fill="none" stroke="midnightblue" d="M441.25,-412.52C409.47,-407.21 353.49,-394.95 312,-370 290.39,-357 270.8,-335.44 258.47,-320.08"/>
<polygon fill="midnightblue" stroke="midnightblue" points="260.98,-317.61 252.08,-311.86 255.45,-321.91 260.98,-317.61"/>
</g>
<!-- Node14 -->
<g id="node14" class="node">
<title>Node14</title>
<g id="a_node14"><a xlink:href="eqtb_8h.html" target="_top" xlink:title=" ">
<polygon fill="white" stroke="black" points="70,-232.5 70,-253.5 120,-253.5 120,-232.5 70,-232.5"/>
<text text-anchor="middle" x="95" y="-239.9" font-family="DejaVuSans" font-size="12.00">eqtb.h</text>
</a>
</g>
</g>
<!-- Node1&#45;&gt;Node14 -->
<g id="edge56" class="edge">
<title>Node1&#45;&gt;Node14</title>
<path fill="none" stroke="midnightblue" d="M441.36,-411.68C405.55,-404.99 337.36,-390.7 282,-370 228.75,-350.09 214.59,-344.58 168,-312 146.44,-296.92 124.77,-275.8 110.71,-261.12"/>
<polygon fill="midnightblue" stroke="midnightblue" points="113.13,-258.58 103.73,-253.7 108.03,-263.38 113.13,-258.58"/>
</g>
<!-- Node16 -->
<g id="node16" class="node">
<title>Node16</title>
<g id="a_node16"><a xlink:href="hash_8h.html" target="_top" xlink:title=" ">
<polygon fill="white" stroke="black" points="439.5,-348.5 439.5,-369.5 492.5,-369.5 492.5,-348.5 439.5,-348.5"/>
<text text-anchor="middle" x="466" y="-355.9" font-family="DejaVuSans" font-size="12.00">hash.h</text>
</a>
</g>
</g>
<!-- Node1&#45;&gt;Node16 -->
<g id="edge24" class="edge">
<title>Node1&#45;&gt;Node16</title>
<path fill="none" stroke="midnightblue" d="M466,-406.25C466,-398.94 466,-388.69 466,-379.7"/>
<polygon fill="midnightblue" stroke="midnightblue" points="469.5,-379.64 466,-369.64 462.5,-379.64 469.5,-379.64"/>
</g>
<!-- Node19 -->
<g id="node19" class="node">
<title>Node19</title>
<g id="a_node19"><a xlink:href="printout_8h.html" target="_top" xlink:title=" ">
<polygon fill="white" stroke="black" points="887,-348.5 887,-369.5 953,-369.5 953,-348.5 887,-348.5"/>
<text text-anchor="middle" x="920" y="-355.9" font-family="DejaVuSans" font-size="12.00">printout.h</text>
</a>
</g>
</g>
<!-- Node1&#45;&gt;Node19 -->
<g id="edge37" class="edge">
<title>Node1&#45;&gt;Node19</title>
<path fill="none" stroke="midnightblue" d="M490.89,-414.03C554.68,-408.81 729.11,-393.38 873,-370 874.27,-369.79 875.57,-369.57 876.87,-369.35"/>
<polygon fill="midnightblue" stroke="midnightblue" points="877.77,-372.74 886.95,-367.45 876.48,-365.86 877.77,-372.74"/>
</g>
<!-- Node20 -->
<g id="node20" class="node">
<title>Node20</title>
<g id="a_node20"><a xlink:href="texmath_8h.html" target="_top" xlink:title=" ">
<polygon fill="white" stroke="black" points="763,-232.5 763,-253.5 831,-253.5 831,-232.5 763,-232.5"/>
<text text-anchor="middle" x="797" y="-239.9" font-family="DejaVuSans" font-size="12.00">texmath.h</text>
</a>
</g>
</g>
<!-- Node1&#45;&gt;Node20 -->
<g id="edge39" class="edge">
<title>Node1&#45;&gt;Node20</title>
<path fill="none" stroke="midnightblue" d="M490.63,-414.34C547.05,-409.24 686.97,-389.1 767,-312 780.61,-298.89 788.47,-278.52 792.7,-263.5"/>
<polygon fill="midnightblue" stroke="midnightblue" points="796.12,-264.23 795.17,-253.68 789.33,-262.52 796.12,-264.23"/>
</g>
<!-- Node21 -->
<g id="node21" class="node">
<title>Node21</title>
<g id="a_node21"><a xlink:href="box_8h.html" target="_top" xlink:title=" ">
<polygon fill="white" stroke="black" points="712,-290.5 712,-311.5 758,-311.5 758,-290.5 712,-290.5"/>
<text text-anchor="middle" x="735" y="-297.9" font-family="DejaVuSans" font-size="12.00">box.h</text>
</a>
</g>
</g>
<!-- Node1&#45;&gt;Node21 -->
<g id="edge41" class="edge">
<title>Node1&#45;&gt;Node21</title>
<path fill="none" stroke="midnightblue" d="M490.78,-406.38C514.14,-397.24 550.08,-383.01 581,-370 624.03,-351.9 673.31,-329.92 704.29,-315.94"/>
<polygon fill="midnightblue" stroke="midnightblue" points="706.01,-319.01 713.68,-311.7 703.12,-312.63 706.01,-319.01"/>
</g>
<!-- Node22 -->
<g id="node22" class="node">
<title>Node22</title>
<g id="a_node22"><a xlink:href="mem_8h.html" target="_top" xlink:title=" ">
<polygon fill="white" stroke="black" points="290.5,-232.5 290.5,-253.5 343.5,-253.5 343.5,-232.5 290.5,-232.5"/>
<text text-anchor="middle" x="317" y="-239.9" font-family="DejaVuSans" font-size="12.00">mem.h</text>
</a>
</g>
</g>
<!-- Node1&#45;&gt;Node22 -->
<g id="edge51" class="edge">
<title>Node1&#45;&gt;Node22</title>
<path fill="none" stroke="midnightblue" d="M453.98,-406.26C432.93,-388.82 388.68,-350.46 358,-312 345.69,-296.57 334.32,-277.11 326.69,-262.97"/>
<polygon fill="midnightblue" stroke="midnightblue" points="329.59,-260.97 321.84,-253.75 323.39,-264.23 329.59,-260.97"/>
</g>
<!-- Node23 -->
<g id="node23" class="node">
<title>Node23</title>
<g id="a_node23"><a xlink:href="error_8h.html" target="_top" xlink:title=" ">
<polygon fill="white" stroke="black" points="642.5,-290.5 642.5,-311.5 693.5,-311.5 693.5,-290.5 642.5,-290.5"/>
<text text-anchor="middle" x="668" y="-297.9" font-family="DejaVuSans" font-size="12.00">error.h</text>
</a>
</g>
</g>
<!-- Node1&#45;&gt;Node23 -->
<g id="edge48" class="edge">
<title>Node1&#45;&gt;Node23</title>
<path fill="none" stroke="midnightblue" d="M482.87,-406.48C518.22,-386.53 600.25,-340.24 642.23,-316.54"/>
<polygon fill="midnightblue" stroke="midnightblue" points="644.04,-319.54 651.03,-311.58 640.6,-313.44 644.04,-319.54"/>
</g>
<!-- Node24 -->
<g id="node24" class="node">
<title>Node24</title>
<g id="a_node24"><a xlink:href="lexer_8h.html" target="_top" xlink:title=" ">
<polygon fill="white" stroke="black" points="0,-232.5 0,-253.5 52,-253.5 52,-232.5 0,-232.5"/>
<text text-anchor="middle" x="26" y="-239.9" font-family="DejaVuSans" font-size="12.00">lexer.h</text>
</a>
</g>
</g>
<!-- Node1&#45;&gt;Node24 -->
<g id="edge52" class="edge">
<title>Node1&#45;&gt;Node24</title>
<path fill="none" stroke="midnightblue" d="M441.21,-414.34C396.56,-410.68 300.26,-399.76 225,-370 153.79,-341.84 80.28,-287.46 45.93,-260.28"/>
<polygon fill="midnightblue" stroke="midnightblue" points="47.69,-257.2 37.69,-253.69 43.31,-262.67 47.69,-257.2"/>
</g>
<!-- Node4 -->
<g id="node4" class="node">
<title>Node4</title>
<g id="a_node4"><a xlink:href="global_8h.html" target="_top" xlink:title=" ">
<polygon fill="white" stroke="black" points="462,-116.5 462,-137.5 520,-137.5 520,-116.5 462,-116.5"/>
<text text-anchor="middle" x="491" y="-123.9" font-family="DejaVuSans" font-size="12.00">global.h</text>
</a>
</g>
</g>
<!-- Node3&#45;&gt;Node4 -->
<g id="edge3" class="edge">
<title>Node3&#45;&gt;Node4</title>
<path fill="none" stroke="midnightblue" d="M581.84,-174.25C564.49,-165.41 538.71,-152.29 519.04,-142.28"/>
<polygon fill="midnightblue" stroke="midnightblue" points="520.44,-139.06 509.94,-137.64 517.26,-145.3 520.44,-139.06"/>
</g>
<!-- Node5 -->
<g id="node5" class="node">
<title>Node5</title>
<g id="a_node5"><a xlink:href="global__macros_8h.html" target="_top" xlink:title=" ">
<polygon fill="white" stroke="black" points="429,-58.5 429,-79.5 533,-79.5 533,-58.5 429,-58.5"/>
<text text-anchor="middle" x="481" y="-65.9" font-family="DejaVuSans" font-size="12.00">global_macros.h</text>
</a>
</g>
</g>
<!-- Node4&#45;&gt;Node5 -->
<g id="edge4" class="edge">
<title>Node4&#45;&gt;Node5</title>
<path fill="none" stroke="midnightblue" d="M489.26,-116.25C487.95,-108.94 486.12,-98.69 484.52,-89.7"/>
<polygon fill="midnightblue" stroke="midnightblue" points="487.93,-88.87 482.72,-79.64 481.03,-90.1 487.93,-88.87"/>
</g>
<!-- Node7 -->
<g id="node7" class="node">
<title>Node7</title>
<g id="a_node7"><a xlink:href="global__const_8h.html" target="_top" xlink:title=" ">
<polygon fill="white" stroke="black" points="262.5,-58.5 262.5,-79.5 355.5,-79.5 355.5,-58.5 262.5,-58.5"/>
<text text-anchor="middle" x="309" y="-65.9" font-family="DejaVuSans" font-size="12.00">global_const.h</text>
</a>
</g>
</g>
<!-- Node4&#45;&gt;Node7 -->
<g id="edge6" class="edge">
<title>Node4&#45;&gt;Node7</title>
<path fill="none" stroke="midnightblue" d="M461.76,-117C431.4,-107.66 383.66,-92.97 349.64,-82.5"/>
<polygon fill="midnightblue" stroke="midnightblue" points="350.58,-79.13 340,-79.54 348.52,-85.82 350.58,-79.13"/>
</g>
<!-- Node8 -->
<g id="node8" class="node">
<title>Node8</title>
<g id="a_node8"><a xlink:href="tex__types_8h.html" target="_top" xlink:title=" ">
<polygon fill="white" stroke="black" points="551.5,-58.5 551.5,-79.5 628.5,-79.5 628.5,-58.5 551.5,-58.5"/>
<text text-anchor="middle" x="590" y="-65.9" font-family="DejaVuSans" font-size="12.00">tex_types.h</text>
</a>
</g>
</g>
<!-- Node4&#45;&gt;Node8 -->
<g id="edge7" class="edge">
<title>Node4&#45;&gt;Node8</title>
<path fill="none" stroke="midnightblue" d="M508.24,-116.25C523.58,-107.57 546.22,-94.76 563.79,-84.82"/>
<polygon fill="midnightblue" stroke="midnightblue" points="565.97,-87.61 572.95,-79.64 562.53,-81.52 565.97,-87.61"/>
</g>
<!-- Node6 -->
<g id="node6" class="node">
<title>Node6</title>
<g id="a_node6"><a xlink:title=" ">
<polygon fill="white" stroke="#bfbfbf" points="451.5,-0.5 451.5,-21.5 510.5,-21.5 510.5,-0.5 451.5,-0.5"/>
<text text-anchor="middle" x="481" y="-7.9" font-family="DejaVuSans" font-size="12.00">assert.h</text>
</a>
</g>
</g>
<!-- Node5&#45;&gt;Node6 -->
<g id="edge5" class="edge">
<title>Node5&#45;&gt;Node6</title>
<path fill="none" stroke="midnightblue" d="M481,-58.25C481,-50.94 481,-40.69 481,-31.7"/>
<polygon fill="midnightblue" stroke="midnightblue" points="484.5,-31.64 481,-21.64 477.5,-31.64 484.5,-31.64"/>
</g>
<!-- Node9 -->
<g id="node9" class="node">
<title>Node9</title>
<g id="a_node9"><a xlink:title=" ">
<polygon fill="white" stroke="#bfbfbf" points="551.5,-0.5 551.5,-21.5 616.5,-21.5 616.5,-0.5 551.5,-0.5"/>
<text text-anchor="middle" x="584" y="-7.9" font-family="DejaVuSans" font-size="12.00">stdbool.h</text>
</a>
</g>
</g>
<!-- Node8&#45;&gt;Node9 -->
<g id="edge8" class="edge">
<title>Node8&#45;&gt;Node9</title>
<path fill="none" stroke="midnightblue" d="M588.95,-58.25C588.17,-50.94 587.07,-40.69 586.11,-31.7"/>
<polygon fill="midnightblue" stroke="midnightblue" points="589.58,-31.21 585.03,-21.64 582.62,-31.96 589.58,-31.21"/>
</g>
<!-- Node10 -->
<g id="node10" class="node">
<title>Node10</title>
<g id="a_node10"><a xlink:title=" ">
<polygon fill="white" stroke="#bfbfbf" points="634.5,-0.5 634.5,-21.5 689.5,-21.5 689.5,-0.5 634.5,-0.5"/>
<text text-anchor="middle" x="662" y="-7.9" font-family="DejaVuSans" font-size="12.00">stdint.h</text>
</a>
</g>
</g>
<!-- Node8&#45;&gt;Node10 -->
<g id="edge9" class="edge">
<title>Node8&#45;&gt;Node10</title>
<path fill="none" stroke="midnightblue" d="M602.54,-58.25C613.28,-49.89 628.95,-37.71 641.5,-27.94"/>
<polygon fill="midnightblue" stroke="midnightblue" points="643.86,-30.54 649.6,-21.64 639.56,-25.02 643.86,-30.54"/>
</g>
<!-- Node11&#45;&gt;Node3 -->
<g id="edge13" class="edge">
<title>Node11&#45;&gt;Node3</title>
<path fill="none" stroke="midnightblue" d="M270.17,-299.06C317.5,-296.54 422.25,-287.33 503,-254 533.54,-241.39 564.08,-218.08 582.76,-202.31"/>
<polygon fill="midnightblue" stroke="midnightblue" points="585.18,-204.84 590.46,-195.66 580.61,-199.55 585.18,-204.84"/>
</g>
<!-- Node11&#45;&gt;Node4 -->
<g id="edge12" class="edge">
<title>Node11&#45;&gt;Node4</title>
<path fill="none" stroke="midnightblue" d="M245.32,-290.09C246.17,-276.22 249.2,-250.61 260,-232 279.27,-198.8 290.36,-192.49 324,-174 364.66,-151.66 416.96,-139.54 452.11,-133.43"/>
<polygon fill="midnightblue" stroke="midnightblue" points="452.69,-136.88 461.99,-131.8 451.55,-129.98 452.69,-136.88"/>
</g>
<!-- Node12 -->
<g id="node12" class="node">
<title>Node12</title>
<g id="a_node12"><a xlink:title=" ">
<polygon fill="white" stroke="#bfbfbf" points="384,-174.5 384,-195.5 436,-195.5 436,-174.5 384,-174.5"/>
<text text-anchor="middle" x="410" y="-181.9" font-family="DejaVuSans" font-size="12.00">stdio.h</text>
</a>
</g>
</g>
<!-- Node11&#45;&gt;Node12 -->
<g id="edge11" class="edge">
<title>Node11&#45;&gt;Node12</title>
<path fill="none" stroke="midnightblue" d="M247.68,-290.23C252.18,-275.57 262.61,-247.91 281,-232 307.42,-209.14 346.02,-197.37 374.11,-191.48"/>
<polygon fill="midnightblue" stroke="midnightblue" points="374.79,-194.92 383.93,-189.57 373.45,-188.05 374.79,-194.92"/>
</g>
<!-- Node13 -->
<g id="node13" class="node">
<title>Node13</title>
<g id="a_node13"><a xlink:href="tex__constant_8h.html" target="_top" xlink:title=" ">
<polygon fill="white" stroke="black" points="101,-174.5 101,-195.5 195,-195.5 195,-174.5 101,-174.5"/>
<text text-anchor="middle" x="148" y="-181.9" font-family="DejaVuSans" font-size="12.00">tex_constant.h</text>
</a>
</g>
</g>
<!-- Node11&#45;&gt;Node13 -->
<g id="edge14" class="edge">
<title>Node11&#45;&gt;Node13</title>
<path fill="none" stroke="midnightblue" d="M222.02,-290.48C205.99,-282.78 185.18,-270.5 172,-254 160.79,-239.97 154.61,-220.31 151.34,-205.74"/>
<polygon fill="midnightblue" stroke="midnightblue" points="154.74,-204.9 149.37,-195.77 147.87,-206.25 154.74,-204.9"/>
</g>
<!-- Node11&#45;&gt;Node14 -->
<g id="edge16" class="edge">
<title>Node11&#45;&gt;Node14</title>
<path fill="none" stroke="midnightblue" d="M219.89,-290.63C195.23,-281.42 157.4,-267.3 129.84,-257.01"/>
<polygon fill="midnightblue" stroke="midnightblue" points="130.78,-253.62 120.19,-253.4 128.33,-260.18 130.78,-253.62"/>
</g>
<!-- Node15 -->
<g id="node15" class="node">
<title>Node15</title>
<g id="a_node15"><a xlink:href="str_8h.html" target="_top" xlink:title=" ">
<polygon fill="white" stroke="black" points="588.5,-232.5 588.5,-253.5 627.5,-253.5 627.5,-232.5 588.5,-232.5"/>
<text text-anchor="middle" x="608" y="-239.9" font-family="DejaVuSans" font-size="12.00">str.h</text>
</a>
</g>
</g>
<!-- Node11&#45;&gt;Node15 -->
<g id="edge19" class="edge">
<title>Node11&#45;&gt;Node15</title>
<path fill="none" stroke="midnightblue" d="M270.4,-297.73C325.92,-292.5 462.09,-278.14 574,-254 575.47,-253.68 576.96,-253.34 578.47,-252.97"/>
<polygon fill="midnightblue" stroke="midnightblue" points="579.6,-256.29 588.35,-250.31 577.78,-249.53 579.6,-256.29"/>
</g>
<!-- Node13&#45;&gt;Node7 -->
<g id="edge15" class="edge">
<title>Node13&#45;&gt;Node7</title>
<path fill="none" stroke="midnightblue" d="M161.45,-174.48C189.2,-154.83 253.04,-109.63 286.93,-85.63"/>
<polygon fill="midnightblue" stroke="midnightblue" points="289.11,-88.37 295.25,-79.74 285.06,-82.66 289.11,-88.37"/>
</g>
<!-- Node14&#45;&gt;Node4 -->
<g id="edge17" class="edge">
<title>Node14&#45;&gt;Node4</title>
<path fill="none" stroke="midnightblue" d="M90.81,-232.26C85.24,-217.65 77.69,-190.06 92,-174 115.7,-147.41 355.78,-133.96 451.71,-129.62"/>
<polygon fill="midnightblue" stroke="midnightblue" points="452.04,-133.1 461.87,-129.16 451.73,-126.11 452.04,-133.1"/>
</g>
<!-- Node14&#45;&gt;Node13 -->
<g id="edge18" class="edge">
<title>Node14&#45;&gt;Node13</title>
<path fill="none" stroke="midnightblue" d="M104.23,-232.25C111.83,-224.22 122.79,-212.64 131.84,-203.08"/>
<polygon fill="midnightblue" stroke="midnightblue" points="134.54,-205.31 138.87,-195.64 129.46,-200.5 134.54,-205.31"/>
</g>
<!-- Node15&#45;&gt;Node3 -->
<g id="edge23" class="edge">
<title>Node15&#45;&gt;Node3</title>
<path fill="none" stroke="midnightblue" d="M606.78,-232.25C605.87,-224.94 604.59,-214.69 603.46,-205.7"/>
<polygon fill="midnightblue" stroke="midnightblue" points="606.92,-205.13 602.21,-195.64 599.97,-206 606.92,-205.13"/>
</g>
<!-- Node15&#45;&gt;Node4 -->
<g id="edge22" class="edge">
<title>Node15&#45;&gt;Node4</title>
<path fill="none" stroke="midnightblue" d="M597.39,-232.22C587.41,-222.98 572.07,-208.67 559,-196 541.36,-178.91 521.54,-159 507.86,-145.16"/>
<polygon fill="midnightblue" stroke="midnightblue" points="510.1,-142.45 500.59,-137.78 505.12,-147.36 510.1,-142.45"/>
</g>
<!-- Node15&#45;&gt;Node10 -->
<g id="edge21" class="edge">
<title>Node15&#45;&gt;Node10</title>
<path fill="none" stroke="midnightblue" d="M617.56,-232.35C625.55,-223.64 636.51,-210.06 642,-196 664.06,-139.53 664.47,-66.35 663.15,-31.77"/>
<polygon fill="midnightblue" stroke="midnightblue" points="666.64,-31.42 662.67,-21.6 659.65,-31.75 666.64,-31.42"/>
</g>
<!-- Node15&#45;&gt;Node12 -->
<g id="edge20" class="edge">
<title>Node15&#45;&gt;Node12</title>
<path fill="none" stroke="midnightblue" d="M588.29,-236.43C555.13,-227.05 487.7,-207.98 445.94,-196.16"/>
<polygon fill="midnightblue" stroke="midnightblue" points="446.74,-192.75 436.16,-193.4 444.83,-199.49 446.74,-192.75"/>
</g>
<!-- Node16&#45;&gt;Node3 -->
<g id="edge26" class="edge">
<title>Node16&#45;&gt;Node3</title>
<path fill="none" stroke="midnightblue" d="M492.7,-351.01C532.67,-338.91 606.51,-309.83 636,-254 645.12,-236.73 632.2,-216.85 619.56,-203.06"/>
<polygon fill="midnightblue" stroke="midnightblue" points="621.83,-200.38 612.32,-195.72 616.84,-205.3 621.83,-200.38"/>
</g>
<!-- Node16&#45;&gt;Node4 -->
<g id="edge25" class="edge">
<title>Node16&#45;&gt;Node4</title>
<path fill="none" stroke="midnightblue" d="M454.17,-348.31C421.12,-320.06 332.95,-235.91 375,-174 392.09,-148.84 425.31,-137.44 451.84,-132.28"/>
<polygon fill="midnightblue" stroke="midnightblue" points="452.73,-135.68 461.99,-130.53 451.55,-128.78 452.73,-135.68"/>
</g>
<!-- Node16&#45;&gt;Node14 -->
<g id="edge36" class="edge">
<title>Node16&#45;&gt;Node14</title>
<path fill="none" stroke="midnightblue" d="M439.13,-356.26C391.73,-352.51 290.74,-341.5 211,-312 192.23,-305.06 146.58,-276.91 118.46,-259.08"/>
<polygon fill="midnightblue" stroke="midnightblue" points="120.32,-256.12 110.01,-253.69 116.56,-262.02 120.32,-256.12"/>
</g>
<!-- Node16&#45;&gt;Node15 -->
<g id="edge27" class="edge">
<title>Node16&#45;&gt;Node15</title>
<path fill="none" stroke="midnightblue" d="M478.11,-348.28C502.52,-328.68 557.89,-284.23 587.85,-260.18"/>
<polygon fill="midnightblue" stroke="midnightblue" points="590.32,-262.68 595.92,-253.69 585.93,-257.23 590.32,-262.68"/>
</g>
<!-- Node17 -->
<g id="node17" class="node">
<title>Node17</title>
<g id="a_node17"><a xlink:href="fonts_8h.html" target="_top" xlink:title=" ">
<polygon fill="white" stroke="black" points="440,-290.5 440,-311.5 492,-311.5 492,-290.5 440,-290.5"/>
<text text-anchor="middle" x="466" y="-297.9" font-family="DejaVuSans" font-size="12.00">fonts.h</text>
</a>
</g>
</g>
<!-- Node16&#45;&gt;Node17 -->
<g id="edge28" class="edge">
<title>Node16&#45;&gt;Node17</title>
<path fill="none" stroke="midnightblue" d="M466,-348.25C466,-340.94 466,-330.69 466,-321.7"/>
<polygon fill="midnightblue" stroke="midnightblue" points="469.5,-321.64 466,-311.64 462.5,-321.64 469.5,-321.64"/>
</g>
<!-- Node17&#45;&gt;Node4 -->
<g id="edge30" class="edge">
<title>Node17&#45;&gt;Node4</title>
<path fill="none" stroke="midnightblue" d="M477.15,-290.33C486.07,-281.8 497.89,-268.5 503,-254 515.71,-217.91 505.58,-172.62 497.8,-147.35"/>
<polygon fill="midnightblue" stroke="midnightblue" points="501.12,-146.24 494.68,-137.82 494.47,-148.42 501.12,-146.24"/>
</g>
<!-- Node17&#45;&gt;Node12 -->
<g id="edge29" class="edge">
<title>Node17&#45;&gt;Node12</title>
<path fill="none" stroke="midnightblue" d="M456.17,-290.25C447.83,-281.47 436.12,-267.85 429,-254 421.13,-238.69 416.17,-219.71 413.31,-205.7"/>
<polygon fill="midnightblue" stroke="midnightblue" points="416.71,-204.88 411.44,-195.69 409.83,-206.16 416.71,-204.88"/>
</g>
<!-- Node17&#45;&gt;Node13 -->
<g id="edge31" class="edge">
<title>Node17&#45;&gt;Node13</title>
<path fill="none" stroke="midnightblue" d="M439.69,-295.43C403.3,-288.66 335.86,-274.54 281,-254 241.63,-239.26 198.8,-215.93 172.67,-200.79"/>
<polygon fill="midnightblue" stroke="midnightblue" points="174.23,-197.65 163.83,-195.61 170.69,-203.69 174.23,-197.65"/>
</g>
<!-- Node17&#45;&gt;Node15 -->
<g id="edge32" class="edge">
<title>Node17&#45;&gt;Node15</title>
<path fill="none" stroke="midnightblue" d="M490.41,-290.37C515.02,-280.67 553,-265.69 579.1,-255.4"/>
<polygon fill="midnightblue" stroke="midnightblue" points="580.45,-258.63 588.47,-251.7 577.88,-252.12 580.45,-258.63"/>
</g>
<!-- Node18 -->
<g id="node18" class="node">
<title>Node18</title>
<g id="a_node18"><a xlink:href="dump_8h.html" target="_top" xlink:title=" ">
<polygon fill="white" stroke="black" points="438,-232.5 438,-253.5 494,-253.5 494,-232.5 438,-232.5"/>
<text text-anchor="middle" x="466" y="-239.9" font-family="DejaVuSans" font-size="12.00">dump.h</text>
</a>
</g>
</g>
<!-- Node17&#45;&gt;Node18 -->
<g id="edge33" class="edge">
<title>Node17&#45;&gt;Node18</title>
<path fill="none" stroke="midnightblue" d="M466,-290.25C466,-282.94 466,-272.69 466,-263.7"/>
<polygon fill="midnightblue" stroke="midnightblue" points="469.5,-263.64 466,-253.64 462.5,-263.64 469.5,-263.64"/>
</g>
<!-- Node18&#45;&gt;Node4 -->
<g id="edge35" class="edge">
<title>Node18&#45;&gt;Node4</title>
<path fill="none" stroke="midnightblue" d="M468.13,-232.28C472.23,-213.6 481.27,-172.37 486.68,-147.72"/>
<polygon fill="midnightblue" stroke="midnightblue" points="490.15,-148.21 488.87,-137.69 483.31,-146.71 490.15,-148.21"/>
</g>
<!-- Node18&#45;&gt;Node12 -->
<g id="edge34" class="edge">
<title>Node18&#45;&gt;Node12</title>
<path fill="none" stroke="midnightblue" d="M456.25,-232.25C448.14,-224.14 436.41,-212.41 426.79,-202.79"/>
<polygon fill="midnightblue" stroke="midnightblue" points="429.19,-200.24 419.64,-195.64 424.24,-205.19 429.19,-200.24"/>
</g>
<!-- Node19&#45;&gt;Node4 -->
<g id="edge38" class="edge">
<title>Node19&#45;&gt;Node4</title>
<path fill="none" stroke="midnightblue" d="M916.83,-348.26C909.17,-325.83 887.91,-269.6 856,-232 827.81,-198.79 817.18,-190.82 777,-174 693.98,-139.25 587.26,-130.61 530.55,-128.55"/>
<polygon fill="midnightblue" stroke="midnightblue" points="530.33,-125.04 520.23,-128.23 530.12,-132.04 530.33,-125.04"/>
</g>
<!-- Node20&#45;&gt;Node4 -->
<g id="edge40" class="edge">
<title>Node20&#45;&gt;Node4</title>
<path fill="none" stroke="midnightblue" d="M793.49,-232.28C787.5,-217.16 773.78,-188.28 752,-174 716.1,-150.46 593.85,-136.8 530.22,-131.12"/>
<polygon fill="midnightblue" stroke="midnightblue" points="530.43,-127.62 520.16,-130.24 529.82,-134.6 530.43,-127.62"/>
</g>
<!-- Node21&#45;&gt;Node4 -->
<g id="edge42" class="edge">
<title>Node21&#45;&gt;Node4</title>
<path fill="none" stroke="midnightblue" d="M732.33,-290.4C725.26,-266.76 703.71,-205.37 663,-174 624.28,-144.17 567.77,-133.64 530.22,-129.95"/>
<polygon fill="midnightblue" stroke="midnightblue" points="530.42,-126.45 520.16,-129.08 529.82,-133.43 530.42,-126.45"/>
</g>
<!-- Node21&#45;&gt;Node15 -->
<g id="edge47" class="edge">
<title>Node21&#45;&gt;Node15</title>
<path fill="none" stroke="midnightblue" d="M713.17,-290.37C692.19,-281.12 660.36,-267.09 637.21,-256.88"/>
<polygon fill="midnightblue" stroke="midnightblue" points="638.44,-253.6 627.88,-252.76 635.62,-260 638.44,-253.6"/>
</g>
<!-- Node21&#45;&gt;Node20 -->
<g id="edge46" class="edge">
<title>Node21&#45;&gt;Node20</title>
<path fill="none" stroke="midnightblue" d="M745.8,-290.25C754.87,-282.05 768.02,-270.17 778.72,-260.51"/>
<polygon fill="midnightblue" stroke="midnightblue" points="781.25,-262.94 786.32,-253.64 776.56,-257.75 781.25,-262.94"/>
</g>
<!-- Node21&#45;&gt;Node22 -->
<g id="edge43" class="edge">
<title>Node21&#45;&gt;Node22</title>
<path fill="none" stroke="midnightblue" d="M711.7,-292.39C708.46,-291.49 705.16,-290.66 702,-290 635.82,-276.13 436.39,-255.7 353.62,-247.55"/>
<polygon fill="midnightblue" stroke="midnightblue" points="353.96,-244.06 343.66,-246.57 353.27,-251.03 353.96,-244.06"/>
</g>
<!-- Node22&#45;&gt;Node4 -->
<g id="edge44" class="edge">
<title>Node22&#45;&gt;Node4</title>
<path fill="none" stroke="midnightblue" d="M317.9,-232.19C319.76,-217.48 325.39,-189.75 342,-174 371.78,-145.76 418.54,-134.83 451.72,-130.62"/>
<polygon fill="midnightblue" stroke="midnightblue" points="452.43,-134.06 461.98,-129.47 451.66,-127.11 452.43,-134.06"/>
</g>
<!-- Node22&#45;&gt;Node13 -->
<g id="edge45" class="edge">
<title>Node22&#45;&gt;Node13</title>
<path fill="none" stroke="midnightblue" d="M290.22,-233.13C262.34,-223.89 218.39,-209.33 186.73,-198.83"/>
<polygon fill="midnightblue" stroke="midnightblue" points="187.51,-195.41 176.92,-195.58 185.31,-202.05 187.51,-195.41"/>
</g>
<!-- Node23&#45;&gt;Node4 -->
<g id="edge49" class="edge">
<title>Node23&#45;&gt;Node4</title>
<path fill="none" stroke="midnightblue" d="M669.05,-290.34C671,-267.1 672.55,-207.51 642,-174 613.55,-142.8 564.66,-132.49 530.23,-129.23"/>
<polygon fill="midnightblue" stroke="midnightblue" points="530.29,-125.73 520.05,-128.43 529.74,-132.7 530.29,-125.73"/>
</g>
<!-- Node23&#45;&gt;Node15 -->
<g id="edge50" class="edge">
<title>Node23&#45;&gt;Node15</title>
<path fill="none" stroke="midnightblue" d="M657.55,-290.25C648.77,-282.05 636.04,-270.17 625.69,-260.51"/>
<polygon fill="midnightblue" stroke="midnightblue" points="628.03,-257.91 618.33,-253.64 623.25,-263.02 628.03,-257.91"/>
</g>
<!-- Node24&#45;&gt;Node4 -->
<g id="edge54" class="edge">
<title>Node24&#45;&gt;Node4</title>
<path fill="none" stroke="midnightblue" d="M30.65,-232.08C38.45,-216.69 55.73,-187.43 80,-174 143.3,-138.96 361.62,-130.58 451.68,-128.6"/>
<polygon fill="midnightblue" stroke="midnightblue" points="451.83,-132.1 461.76,-128.4 451.69,-125.1 451.83,-132.1"/>
</g>
<!-- Node24&#45;&gt;Node12 -->
<g id="edge53" class="edge">
<title>Node24&#45;&gt;Node12</title>
<path fill="none" stroke="midnightblue" d="M52.27,-234.05C55.2,-233.29 58.15,-232.59 61,-232 173.85,-208.57 309.83,-194.7 373.62,-189.02"/>
<polygon fill="midnightblue" stroke="midnightblue" points="374.29,-192.47 383.95,-188.11 373.68,-185.5 374.29,-192.47"/>
</g>
<!-- Node24&#45;&gt;Node13 -->
<g id="edge55" class="edge">
<title>Node24&#45;&gt;Node13</title>
<path fill="none" stroke="midnightblue" d="M46.97,-232.37C66.56,-223.38 96,-209.87 118.05,-199.75"/>
<polygon fill="midnightblue" stroke="midnightblue" points="119.67,-202.85 127.3,-195.5 116.75,-196.49 119.67,-202.85"/>
</g>
</g>
</svg>
