<?xml version="1.0" encoding="UTF-8" standalone="no"?>
<!DOCTYPE svg PUBLIC "-//W3C//DTD SVG 1.1//EN"
 "http://www.w3.org/Graphics/SVG/1.1/DTD/svg11.dtd">
<!-- Generated by graphviz version 2.44.0 ()
 -->
<!-- Title: eqtb.h Pages: 1 -->
<svg width="618pt" height="204pt"
 viewBox="0.00 0.00 617.50 204.00" xmlns="http://www.w3.org/2000/svg" xmlns:xlink="http://www.w3.org/1999/xlink">
<g id="graph0" class="graph" transform="scale(1 1) rotate(0) translate(4 200)">
<title>eqtb.h</title>
<polygon fill="white" stroke="transparent" points="-4,4 -4,-200 613.5,-200 613.5,4 -4,4"/>
<!-- Node1 -->
<g id="node1" class="node">
<title>Node1</title>
<g id="a_node1"><a xlink:title=" ">
<polygon fill="#bfbfbf" stroke="black" points="267.5,-174.5 267.5,-195.5 317.5,-195.5 317.5,-174.5 267.5,-174.5"/>
<text text-anchor="middle" x="292.5" y="-181.9" font-family="DejaVuSans" font-size="12.00">eqtb.h</text>
</a>
</g>
</g>
<!-- Node2 -->
<g id="node2" class="node">
<title>Node2</title>
<g id="a_node2"><a xlink:href="box_8c.html" target="_top" xlink:title=" ">
<polygon fill="white" stroke="black" points="71,-116.5 71,-137.5 116,-137.5 116,-116.5 71,-116.5"/>
<text text-anchor="middle" x="93.5" y="-123.9" font-family="DejaVuSans" font-size="12.00">box.c</text>
</a>
</g>
</g>
<!-- Node1&#45;&gt;Node2 -->
<g id="edge1" class="edge">
<title>Node1&#45;&gt;Node2</title>
<path fill="none" stroke="midnightblue" d="M257.51,-174.15C216.74,-162.68 150.55,-144.05 116.05,-134.34"/>
<polygon fill="midnightblue" stroke="midnightblue" points="256.72,-177.57 267.3,-176.91 258.62,-170.83 256.72,-177.57"/>
</g>
<!-- Node3 -->
<g id="node3" class="node">
<title>Node3</title>
<g id="a_node3"><a xlink:href="eqtb_8c.html" target="_top" xlink:title=" ">
<polygon fill="white" stroke="black" points="0,-58.5 0,-79.5 49,-79.5 49,-58.5 0,-58.5"/>
<text text-anchor="middle" x="24.5" y="-65.9" font-family="DejaVuSans" font-size="12.00">eqtb.c</text>
</a>
</g>
</g>
<!-- Node1&#45;&gt;Node3 -->
<g id="edge2" class="edge">
<title>Node1&#45;&gt;Node3</title>
<path fill="none" stroke="midnightblue" d="M257.57,-173.82C230.74,-165.5 193.06,-152.75 161.5,-138 144.17,-129.9 141.44,-124.9 124.5,-116 98.45,-102.31 67.55,-88.45 47.07,-79.57"/>
<polygon fill="midnightblue" stroke="midnightblue" points="256.7,-177.21 267.29,-176.78 258.75,-170.52 256.7,-177.21"/>
</g>
<!-- Node4 -->
<g id="node4" class="node">
<title>Node4</title>
<g id="a_node4"><a xlink:href="fonts_8c.html" target="_top" xlink:title=" ">
<polygon fill="white" stroke="black" points="67,-58.5 67,-79.5 118,-79.5 118,-58.5 67,-58.5"/>
<text text-anchor="middle" x="92.5" y="-65.9" font-family="DejaVuSans" font-size="12.00">fonts.c</text>
</a>
</g>
</g>
<!-- Node1&#45;&gt;Node4 -->
<g id="edge3" class="edge">
<title>Node1&#45;&gt;Node4</title>
<path fill="none" stroke="midnightblue" d="M262.96,-169.9C244.98,-161.12 221.67,-149.36 201.5,-138 166.91,-118.52 127.72,-93.25 107.06,-79.67"/>
<polygon fill="midnightblue" stroke="midnightblue" points="261.82,-173.24 272.35,-174.46 264.88,-166.94 261.82,-173.24"/>
</g>
<!-- Node5 -->
<g id="node5" class="node">
<title>Node5</title>
<g id="a_node5"><a xlink:href="hash_8h.html" target="_top" xlink:title=" ">
<polygon fill="white" stroke="black" points="211,-116.5 211,-137.5 264,-137.5 264,-116.5 211,-116.5"/>
<text text-anchor="middle" x="237.5" y="-123.9" font-family="DejaVuSans" font-size="12.00">hash.h</text>
</a>
</g>
</g>
<!-- Node1&#45;&gt;Node5 -->
<g id="edge4" class="edge">
<title>Node1&#45;&gt;Node5</title>
<path fill="none" stroke="midnightblue" d="M275.88,-167.08C266.41,-157.44 254.9,-145.72 246.97,-137.64"/>
<polygon fill="midnightblue" stroke="midnightblue" points="273.42,-169.56 282.92,-174.25 278.41,-164.66 273.42,-169.56"/>
</g>
<!-- Node11 -->
<g id="node11" class="node">
<title>Node11</title>
<g id="a_node11"><a xlink:href="tex__header_8h.html" target="_top" xlink:title=" ">
<polygon fill="white" stroke="black" points="523.5,-58.5 523.5,-79.5 609.5,-79.5 609.5,-58.5 523.5,-58.5"/>
<text text-anchor="middle" x="566.5" y="-65.9" font-family="DejaVuSans" font-size="12.00">tex_header.h</text>
</a>
</g>
</g>
<!-- Node1&#45;&gt;Node11 -->
<g id="edge18" class="edge">
<title>Node1&#45;&gt;Node11</title>
<path fill="none" stroke="midnightblue" d="M292.62,-164.44C293.82,-149.04 298.07,-128.2 311.5,-116 379.01,-54.69 423.8,-96.45 513.5,-80 516.72,-79.41 520.06,-78.79 523.41,-78.17"/>
<polygon fill="midnightblue" stroke="midnightblue" points="289.12,-164.35 292.2,-174.49 296.11,-164.64 289.12,-164.35"/>
</g>
<!-- Node13 -->
<g id="node13" class="node">
<title>Node13</title>
<g id="a_node13"><a xlink:href="mem_8c.html" target="_top" xlink:title=" ">
<polygon fill="white" stroke="black" points="320.5,-116.5 320.5,-137.5 372.5,-137.5 372.5,-116.5 320.5,-116.5"/>
<text text-anchor="middle" x="346.5" y="-123.9" font-family="DejaVuSans" font-size="12.00">mem.c</text>
</a>
</g>
</g>
<!-- Node1&#45;&gt;Node13 -->
<g id="edge14" class="edge">
<title>Node1&#45;&gt;Node13</title>
<path fill="none" stroke="midnightblue" d="M309.1,-166.79C318.33,-157.21 329.49,-145.64 337.2,-137.64"/>
<polygon fill="midnightblue" stroke="midnightblue" points="306.33,-164.62 301.91,-174.25 311.37,-169.48 306.33,-164.62"/>
</g>
<!-- Node14 -->
<g id="node14" class="node">
<title>Node14</title>
<g id="a_node14"><a xlink:href="print_8c.html" target="_top" xlink:title=" ">
<polygon fill="white" stroke="black" points="391,-116.5 391,-137.5 440,-137.5 440,-116.5 391,-116.5"/>
<text text-anchor="middle" x="415.5" y="-123.9" font-family="DejaVuSans" font-size="12.00">print.c</text>
</a>
</g>
</g>
<!-- Node1&#45;&gt;Node14 -->
<g id="edge15" class="edge">
<title>Node1&#45;&gt;Node14</title>
<path fill="none" stroke="midnightblue" d="M323.01,-170.11C345.31,-159.96 374.98,-146.45 394.63,-137.5"/>
<polygon fill="midnightblue" stroke="midnightblue" points="321.3,-167.04 313.64,-174.37 324.2,-173.41 321.3,-167.04"/>
</g>
<!-- Node15 -->
<g id="node15" class="node">
<title>Node15</title>
<g id="a_node15"><a xlink:href="printout_8c.html" target="_top" xlink:title=" ">
<polygon fill="white" stroke="black" points="458,-116.5 458,-137.5 523,-137.5 523,-116.5 458,-116.5"/>
<text text-anchor="middle" x="490.5" y="-123.9" font-family="DejaVuSans" font-size="12.00">printout.c</text>
</a>
</g>
</g>
<!-- Node1&#45;&gt;Node15 -->
<g id="edge16" class="edge">
<title>Node1&#45;&gt;Node15</title>
<path fill="none" stroke="midnightblue" d="M327.37,-174.14C364.18,-163.73 421.75,-147.44 457.74,-137.27"/>
<polygon fill="midnightblue" stroke="midnightblue" points="326.25,-170.82 317.58,-176.91 328.15,-177.55 326.25,-170.82"/>
</g>
<!-- Node16 -->
<g id="node16" class="node">
<title>Node16</title>
<g id="a_node16"><a xlink:href="scan_8c.html" target="_top" xlink:title=" ">
<polygon fill="white" stroke="black" points="541,-116.5 541,-137.5 592,-137.5 592,-116.5 541,-116.5"/>
<text text-anchor="middle" x="566.5" y="-123.9" font-family="DejaVuSans" font-size="12.00">scan.c</text>
</a>
</g>
</g>
<!-- Node1&#45;&gt;Node16 -->
<g id="edge17" class="edge">
<title>Node1&#45;&gt;Node16</title>
<path fill="none" stroke="midnightblue" d="M327.71,-178.22C374.51,-170.32 459.66,-155.14 531.5,-138 534.57,-137.27 537.78,-136.44 540.95,-135.58"/>
<polygon fill="midnightblue" stroke="midnightblue" points="327.06,-174.78 317.77,-179.89 328.22,-181.69 327.06,-174.78"/>
</g>
<!-- Node5&#45;&gt;Node3 -->
<g id="edge6" class="edge">
<title>Node5&#45;&gt;Node3</title>
<path fill="none" stroke="midnightblue" d="M200.71,-117.1C164.24,-108.16 106.84,-93.77 57.5,-80 54.85,-79.26 52.08,-78.46 49.33,-77.65"/>
<polygon fill="midnightblue" stroke="midnightblue" points="200.32,-120.61 210.87,-119.58 201.99,-113.81 200.32,-120.61"/>
</g>
<!-- Node5&#45;&gt;Node4 -->
<g id="edge8" class="edge">
<title>Node5&#45;&gt;Node4</title>
<path fill="none" stroke="midnightblue" d="M202.94,-112.65C176.5,-102.44 140.68,-88.61 117.1,-79.5"/>
<polygon fill="midnightblue" stroke="midnightblue" points="201.98,-116.04 212.57,-116.37 204.51,-109.51 201.98,-116.04"/>
</g>
<!-- Node6 -->
<g id="node6" class="node">
<title>Node6</title>
<g id="a_node6"><a xlink:href="box__display_8c.html" target="_top" xlink:title=" ">
<polygon fill="white" stroke="black" points="193,-58.5 193,-79.5 282,-79.5 282,-58.5 193,-58.5"/>
<text text-anchor="middle" x="237.5" y="-65.9" font-family="DejaVuSans" font-size="12.00">box_display.c</text>
</a>
</g>
</g>
<!-- Node5&#45;&gt;Node6 -->
<g id="edge5" class="edge">
<title>Node5&#45;&gt;Node6</title>
<path fill="none" stroke="midnightblue" d="M237.5,-106.16C237.5,-97.16 237.5,-86.92 237.5,-79.64"/>
<polygon fill="midnightblue" stroke="midnightblue" points="234,-106.25 237.5,-116.25 241,-106.25 234,-106.25"/>
</g>
<!-- Node7 -->
<g id="node7" class="node">
<title>Node7</title>
<g id="a_node7"><a xlink:href="expand_8c.html" target="_top" xlink:title=" ">
<polygon fill="white" stroke="black" points="300,-58.5 300,-79.5 365,-79.5 365,-58.5 300,-58.5"/>
<text text-anchor="middle" x="332.5" y="-65.9" font-family="DejaVuSans" font-size="12.00">expand.c</text>
</a>
</g>
</g>
<!-- Node5&#45;&gt;Node7 -->
<g id="edge7" class="edge">
<title>Node5&#45;&gt;Node7</title>
<path fill="none" stroke="midnightblue" d="M262.87,-111.05C279.77,-101.08 301.49,-88.28 316.14,-79.64"/>
<polygon fill="midnightblue" stroke="midnightblue" points="260.89,-108.15 254.05,-116.25 264.44,-114.18 260.89,-108.15"/>
</g>
<!-- Node8 -->
<g id="node8" class="node">
<title>Node8</title>
<g id="a_node8"><a xlink:href="hash_8c.html" target="_top" xlink:title=" ">
<polygon fill="white" stroke="black" points="383.5,-58.5 383.5,-79.5 435.5,-79.5 435.5,-58.5 383.5,-58.5"/>
<text text-anchor="middle" x="409.5" y="-65.9" font-family="DejaVuSans" font-size="12.00">hash.c</text>
</a>
</g>
</g>
<!-- Node5&#45;&gt;Node8 -->
<g id="edge9" class="edge">
<title>Node5&#45;&gt;Node8</title>
<path fill="none" stroke="midnightblue" d="M274.06,-114.1C306.87,-103.41 354.23,-87.99 383.38,-78.51"/>
<polygon fill="midnightblue" stroke="midnightblue" points="272.8,-110.83 264.38,-117.25 274.97,-117.48 272.8,-110.83"/>
</g>
<!-- Node9 -->
<g id="node9" class="node">
<title>Node9</title>
<g id="a_node9"><a xlink:href="lexer_8c.html" target="_top" xlink:title=" ">
<polygon fill="white" stroke="black" points="454,-58.5 454,-79.5 505,-79.5 505,-58.5 454,-58.5"/>
<text text-anchor="middle" x="479.5" y="-65.9" font-family="DejaVuSans" font-size="12.00">lexer.c</text>
</a>
</g>
</g>
<!-- Node5&#45;&gt;Node9 -->
<g id="edge10" class="edge">
<title>Node5&#45;&gt;Node9</title>
<path fill="none" stroke="midnightblue" d="M274.15,-117.01C275.62,-116.67 277.07,-116.33 278.5,-116 352.07,-99.05 371.28,-98.38 444.5,-80 447.56,-79.23 450.77,-78.38 453.94,-77.51"/>
<polygon fill="midnightblue" stroke="midnightblue" points="273.3,-113.62 264.38,-119.34 274.92,-120.43 273.3,-113.62"/>
</g>
<!-- Node10 -->
<g id="node10" class="node">
<title>Node10</title>
<g id="a_node10"><a xlink:href="str_8c.html" target="_top" xlink:title=" ">
<polygon fill="white" stroke="black" points="136.5,-58.5 136.5,-79.5 174.5,-79.5 174.5,-58.5 136.5,-58.5"/>
<text text-anchor="middle" x="155.5" y="-65.9" font-family="DejaVuSans" font-size="12.00">str.c</text>
</a>
</g>
</g>
<!-- Node5&#45;&gt;Node10 -->
<g id="edge11" class="edge">
<title>Node5&#45;&gt;Node10</title>
<path fill="none" stroke="midnightblue" d="M214.79,-110.49C200.32,-100.61 182.03,-88.12 169.62,-79.64"/>
<polygon fill="midnightblue" stroke="midnightblue" points="212.98,-113.5 223.22,-116.25 216.93,-107.72 212.98,-113.5"/>
</g>
<!-- Node5&#45;&gt;Node11 -->
<g id="edge12" class="edge">
<title>Node5&#45;&gt;Node11</title>
<path fill="none" stroke="midnightblue" d="M274.12,-116.9C275.6,-116.59 277.06,-116.28 278.5,-116 382.15,-95.46 409.35,-97.8 513.5,-80 516.73,-79.45 520.07,-78.86 523.42,-78.26"/>
<polygon fill="midnightblue" stroke="midnightblue" points="273.32,-113.49 264.33,-119.1 274.86,-120.32 273.32,-113.49"/>
</g>
<!-- Node12 -->
<g id="node12" class="node">
<title>Node12</title>
<g id="a_node12"><a xlink:href="tex_8c.html" target="_top" xlink:title=" ">
<polygon fill="white" stroke="black" points="546,-0.5 546,-21.5 587,-21.5 587,-0.5 546,-0.5"/>
<text text-anchor="middle" x="566.5" y="-7.9" font-family="DejaVuSans" font-size="12.00">tex.c</text>
</a>
</g>
</g>
<!-- Node11&#45;&gt;Node12 -->
<g id="edge13" class="edge">
<title>Node11&#45;&gt;Node12</title>
<path fill="none" stroke="midnightblue" d="M566.5,-48.16C566.5,-39.16 566.5,-28.92 566.5,-21.64"/>
<polygon fill="midnightblue" stroke="midnightblue" points="563,-48.25 566.5,-58.25 570,-48.25 563,-48.25"/>
</g>
</g>
</svg>
