<?xml version="1.0" encoding="UTF-8" standalone="no"?>
<!DOCTYPE svg PUBLIC "-//W3C//DTD SVG 1.1//EN"
 "http://www.w3.org/Graphics/SVG/1.1/DTD/svg11.dtd">
<!-- Generated by graphviz version 2.44.0 ()
 -->
<!-- Title: eqtb_save.c Pages: 1 -->
<svg width="627pt" height="726pt"
 viewBox="0.00 0.00 626.50 726.00" xmlns="http://www.w3.org/2000/svg" xmlns:xlink="http://www.w3.org/1999/xlink">
<g id="graph0" class="graph" transform="scale(1 1) rotate(0) translate(4 722)">
<title>eqtb_save.c</title>
<polygon fill="white" stroke="transparent" points="-4,4 -4,-722 622.5,-722 622.5,4 -4,4"/>
<!-- Node1 -->
<g id="node1" class="node">
<title>Node1</title>
<g id="a_node1"><a xlink:title=" ">
<polygon fill="#bfbfbf" stroke="black" points="377.5,-696.5 377.5,-717.5 458.5,-717.5 458.5,-696.5 377.5,-696.5"/>
<text text-anchor="middle" x="418" y="-703.9" font-family="DejaVuSans" font-size="12.00">eqtb_save.c</text>
</a>
</g>
</g>
<!-- Node2 -->
<g id="node2" class="node">
<title>Node2</title>
<g id="a_node2"><a xlink:href="lexer_8h.html" target="_top" xlink:title=" ">
<polygon fill="white" stroke="black" points="300,-348.5 300,-369.5 352,-369.5 352,-348.5 300,-348.5"/>
<text text-anchor="middle" x="326" y="-355.9" font-family="DejaVuSans" font-size="12.00">lexer.h</text>
</a>
</g>
</g>
<!-- Node1&#45;&gt;Node2 -->
<g id="edge1" class="edge">
<title>Node1&#45;&gt;Node2</title>
<path fill="none" stroke="midnightblue" d="M418,-696.24C418,-676.54 418,-630.59 418,-592 418,-592 418,-592 418,-474 418,-430.86 377.6,-394.83 350.34,-375.44"/>
<polygon fill="midnightblue" stroke="midnightblue" points="352.25,-372.5 342.03,-369.74 348.3,-378.28 352.25,-372.5"/>
</g>
<!-- Node13 -->
<g id="node13" class="node">
<title>Node13</title>
<g id="a_node13"><a xlink:href="error_8h.html" target="_top" xlink:title=" ">
<polygon fill="white" stroke="black" points="484.5,-638.5 484.5,-659.5 535.5,-659.5 535.5,-638.5 484.5,-638.5"/>
<text text-anchor="middle" x="510" y="-645.9" font-family="DejaVuSans" font-size="12.00">error.h</text>
</a>
</g>
</g>
<!-- Node1&#45;&gt;Node13 -->
<g id="edge16" class="edge">
<title>Node1&#45;&gt;Node13</title>
<path fill="none" stroke="midnightblue" d="M434.03,-696.25C448.14,-687.65 468.93,-675 485.19,-665.1"/>
<polygon fill="midnightblue" stroke="midnightblue" points="487.44,-667.83 494.16,-659.64 483.8,-661.85 487.44,-667.83"/>
</g>
<!-- Node14 -->
<g id="node14" class="node">
<title>Node14</title>
<g id="a_node14"><a xlink:href="mem_8h.html" target="_top" xlink:title=" ">
<polygon fill="white" stroke="black" points="139.5,-522.5 139.5,-543.5 192.5,-543.5 192.5,-522.5 139.5,-522.5"/>
<text text-anchor="middle" x="166" y="-529.9" font-family="DejaVuSans" font-size="12.00">mem.h</text>
</a>
</g>
</g>
<!-- Node1&#45;&gt;Node14 -->
<g id="edge17" class="edge">
<title>Node1&#45;&gt;Node14</title>
<path fill="none" stroke="midnightblue" d="M377.42,-705.39C313.15,-701.87 190.59,-684.16 145,-602 136.25,-586.22 144.31,-566.32 152.86,-552.13"/>
<polygon fill="midnightblue" stroke="midnightblue" points="155.81,-554.02 158.37,-543.74 149.95,-550.17 155.81,-554.02"/>
</g>
<!-- Node18 -->
<g id="node18" class="node">
<title>Node18</title>
<g id="a_node18"><a xlink:href="print_8h.html" target="_top" xlink:title=" ">
<polygon fill="white" stroke="black" points="247,-638.5 247,-659.5 297,-659.5 297,-638.5 247,-638.5"/>
<text text-anchor="middle" x="272" y="-645.9" font-family="DejaVuSans" font-size="12.00">print.h</text>
</a>
</g>
</g>
<!-- Node1&#45;&gt;Node18 -->
<g id="edge24" class="edge">
<title>Node1&#45;&gt;Node18</title>
<path fill="none" stroke="midnightblue" d="M392.9,-696.37C369.04,-687.22 332.97,-673.38 306.43,-663.21"/>
<polygon fill="midnightblue" stroke="midnightblue" points="307.36,-659.81 296.77,-659.5 304.85,-666.35 307.36,-659.81"/>
</g>
<!-- Node20 -->
<g id="node20" class="node">
<title>Node20</title>
<g id="a_node20"><a xlink:href="macros_8h.html" target="_top" xlink:title=" ">
<polygon fill="white" stroke="black" points="553.5,-638.5 553.5,-659.5 618.5,-659.5 618.5,-638.5 553.5,-638.5"/>
<text text-anchor="middle" x="586" y="-645.9" font-family="DejaVuSans" font-size="12.00">macros.h</text>
</a>
</g>
</g>
<!-- Node1&#45;&gt;Node20 -->
<g id="edge30" class="edge">
<title>Node1&#45;&gt;Node20</title>
<path fill="none" stroke="midnightblue" d="M446.88,-696.37C474.82,-687.06 517.31,-672.9 547.99,-662.67"/>
<polygon fill="midnightblue" stroke="midnightblue" points="549.12,-665.98 557.5,-659.5 546.9,-659.34 549.12,-665.98"/>
</g>
<!-- Node21 -->
<g id="node21" class="node">
<title>Node21</title>
<g id="a_node21"><a xlink:href="texfunc_8h.html" target="_top" xlink:title=" ">
<polygon fill="white" stroke="black" points="446.5,-580.5 446.5,-601.5 511.5,-601.5 511.5,-580.5 446.5,-580.5"/>
<text text-anchor="middle" x="479" y="-587.9" font-family="DejaVuSans" font-size="12.00">texfunc.h</text>
</a>
</g>
</g>
<!-- Node1&#45;&gt;Node21 -->
<g id="edge31" class="edge">
<title>Node1&#45;&gt;Node21</title>
<path fill="none" stroke="midnightblue" d="M423.2,-696.28C433.33,-677.35 455.86,-635.25 468.98,-610.72"/>
<polygon fill="midnightblue" stroke="midnightblue" points="472.18,-612.16 473.81,-601.69 466.01,-608.86 472.18,-612.16"/>
</g>
<!-- Node22 -->
<g id="node22" class="node">
<title>Node22</title>
<g id="a_node22"><a xlink:href="eqtb_8h.html" target="_top" xlink:title=" ">
<polygon fill="white" stroke="black" points="0,-290.5 0,-311.5 50,-311.5 50,-290.5 0,-290.5"/>
<text text-anchor="middle" x="25" y="-297.9" font-family="DejaVuSans" font-size="12.00">eqtb.h</text>
</a>
</g>
</g>
<!-- Node1&#45;&gt;Node22 -->
<g id="edge33" class="edge">
<title>Node1&#45;&gt;Node22</title>
<path fill="none" stroke="midnightblue" d="M377.42,-702.9C277.01,-694.12 25,-664.82 25,-592 25,-592 25,-592 25,-416 25,-382.98 25,-344.59 25,-321.85"/>
<polygon fill="midnightblue" stroke="midnightblue" points="28.5,-321.76 25,-311.76 21.5,-321.76 28.5,-321.76"/>
</g>
<!-- Node3 -->
<g id="node3" class="node">
<title>Node3</title>
<g id="a_node3"><a xlink:title=" ">
<polygon fill="white" stroke="#bfbfbf" points="317,-0.5 317,-21.5 369,-21.5 369,-0.5 317,-0.5"/>
<text text-anchor="middle" x="343" y="-7.9" font-family="DejaVuSans" font-size="12.00">stdio.h</text>
</a>
</g>
</g>
<!-- Node2&#45;&gt;Node3 -->
<g id="edge2" class="edge">
<title>Node2&#45;&gt;Node3</title>
<path fill="none" stroke="midnightblue" d="M326.7,-348.4C329.27,-312.86 338.2,-185.32 342,-80 342.59,-63.78 342.83,-45.36 342.93,-31.79"/>
<polygon fill="midnightblue" stroke="midnightblue" points="346.43,-31.71 342.99,-21.69 339.43,-31.67 346.43,-31.71"/>
</g>
<!-- Node4 -->
<g id="node4" class="node">
<title>Node4</title>
<g id="a_node4"><a xlink:href="tex_8h.html" target="_top" xlink:title=" ">
<polygon fill="white" stroke="black" points="262,-290.5 262,-311.5 304,-311.5 304,-290.5 262,-290.5"/>
<text text-anchor="middle" x="283" y="-297.9" font-family="DejaVuSans" font-size="12.00">tex.h</text>
</a>
</g>
</g>
<!-- Node2&#45;&gt;Node4 -->
<g id="edge3" class="edge">
<title>Node2&#45;&gt;Node4</title>
<path fill="none" stroke="midnightblue" d="M318.51,-348.25C312.47,-340.38 303.81,-329.1 296.56,-319.65"/>
<polygon fill="midnightblue" stroke="midnightblue" points="299.27,-317.44 290.4,-311.64 293.72,-321.71 299.27,-317.44"/>
</g>
<!-- Node5 -->
<g id="node5" class="node">
<title>Node5</title>
<g id="a_node5"><a xlink:href="tex__types_8h.html" target="_top" xlink:title=" ">
<polygon fill="white" stroke="black" points="77.5,-58.5 77.5,-79.5 154.5,-79.5 154.5,-58.5 77.5,-58.5"/>
<text text-anchor="middle" x="116" y="-65.9" font-family="DejaVuSans" font-size="12.00">tex_types.h</text>
</a>
</g>
</g>
<!-- Node4&#45;&gt;Node5 -->
<g id="edge4" class="edge">
<title>Node4&#45;&gt;Node5</title>
<path fill="none" stroke="midnightblue" d="M278.66,-290.44C272.39,-276.97 260.1,-251.84 247,-232 227.45,-202.38 160.88,-122.96 130.87,-87.51"/>
<polygon fill="midnightblue" stroke="midnightblue" points="133.54,-85.24 124.41,-79.88 128.2,-89.77 133.54,-85.24"/>
</g>
<!-- Node8 -->
<g id="node8" class="node">
<title>Node8</title>
<g id="a_node8"><a xlink:href="tex__constant_8h.html" target="_top" xlink:title=" ">
<polygon fill="white" stroke="black" points="144,-232.5 144,-253.5 238,-253.5 238,-232.5 144,-232.5"/>
<text text-anchor="middle" x="191" y="-239.9" font-family="DejaVuSans" font-size="12.00">tex_constant.h</text>
</a>
</g>
</g>
<!-- Node4&#45;&gt;Node8 -->
<g id="edge7" class="edge">
<title>Node4&#45;&gt;Node8</title>
<path fill="none" stroke="midnightblue" d="M266.97,-290.25C252.86,-281.65 232.07,-269 215.81,-259.1"/>
<polygon fill="midnightblue" stroke="midnightblue" points="217.2,-255.85 206.84,-253.64 213.56,-261.83 217.2,-255.85"/>
</g>
<!-- Node6 -->
<g id="node6" class="node">
<title>Node6</title>
<g id="a_node6"><a xlink:title=" ">
<polygon fill="white" stroke="#bfbfbf" points="82.5,-0.5 82.5,-21.5 147.5,-21.5 147.5,-0.5 82.5,-0.5"/>
<text text-anchor="middle" x="115" y="-7.9" font-family="DejaVuSans" font-size="12.00">stdbool.h</text>
</a>
</g>
</g>
<!-- Node5&#45;&gt;Node6 -->
<g id="edge5" class="edge">
<title>Node5&#45;&gt;Node6</title>
<path fill="none" stroke="midnightblue" d="M115.83,-58.25C115.7,-50.94 115.51,-40.69 115.35,-31.7"/>
<polygon fill="midnightblue" stroke="midnightblue" points="118.85,-31.58 115.17,-21.64 111.85,-31.7 118.85,-31.58"/>
</g>
<!-- Node7 -->
<g id="node7" class="node">
<title>Node7</title>
<g id="a_node7"><a xlink:title=" ">
<polygon fill="white" stroke="#bfbfbf" points="165.5,-0.5 165.5,-21.5 220.5,-21.5 220.5,-0.5 165.5,-0.5"/>
<text text-anchor="middle" x="193" y="-7.9" font-family="DejaVuSans" font-size="12.00">stdint.h</text>
</a>
</g>
</g>
<!-- Node5&#45;&gt;Node7 -->
<g id="edge6" class="edge">
<title>Node5&#45;&gt;Node7</title>
<path fill="none" stroke="midnightblue" d="M129.41,-58.25C141.01,-49.81 157.97,-37.47 171.47,-27.66"/>
<polygon fill="midnightblue" stroke="midnightblue" points="173.71,-30.36 179.74,-21.64 169.6,-24.69 173.71,-30.36"/>
</g>
<!-- Node9 -->
<g id="node9" class="node">
<title>Node9</title>
<g id="a_node9"><a xlink:href="box_8h.html" target="_top" xlink:title=" ">
<polygon fill="white" stroke="black" points="230,-174.5 230,-195.5 276,-195.5 276,-174.5 230,-174.5"/>
<text text-anchor="middle" x="253" y="-181.9" font-family="DejaVuSans" font-size="12.00">box.h</text>
</a>
</g>
</g>
<!-- Node8&#45;&gt;Node9 -->
<g id="edge8" class="edge">
<title>Node8&#45;&gt;Node9</title>
<path fill="none" stroke="midnightblue" d="M201.8,-232.25C210.87,-224.05 224.02,-212.17 234.72,-202.51"/>
<polygon fill="midnightblue" stroke="midnightblue" points="237.25,-204.94 242.32,-195.64 232.56,-199.75 237.25,-204.94"/>
</g>
<!-- Node10 -->
<g id="node10" class="node">
<title>Node10</title>
<g id="a_node10"><a xlink:href="str_8h.html" target="_top" xlink:title=" ">
<polygon fill="white" stroke="black" points="266.5,-116.5 266.5,-137.5 305.5,-137.5 305.5,-116.5 266.5,-116.5"/>
<text text-anchor="middle" x="286" y="-123.9" font-family="DejaVuSans" font-size="12.00">str.h</text>
</a>
</g>
</g>
<!-- Node9&#45;&gt;Node10 -->
<g id="edge9" class="edge">
<title>Node9&#45;&gt;Node10</title>
<path fill="none" stroke="midnightblue" d="M258.75,-174.25C263.24,-166.62 269.62,-155.79 275.08,-146.53"/>
<polygon fill="midnightblue" stroke="midnightblue" points="278.26,-148.04 280.32,-137.64 272.23,-144.48 278.26,-148.04"/>
</g>
<!-- Node10&#45;&gt;Node3 -->
<g id="edge10" class="edge">
<title>Node10&#45;&gt;Node3</title>
<path fill="none" stroke="midnightblue" d="M295.78,-116.23C304.09,-107.43 315.78,-93.81 323,-80 331.01,-64.68 336.25,-45.7 339.35,-31.69"/>
<polygon fill="midnightblue" stroke="midnightblue" points="342.82,-32.18 341.39,-21.69 335.96,-30.79 342.82,-32.18"/>
</g>
<!-- Node10&#45;&gt;Node5 -->
<g id="edge15" class="edge">
<title>Node10&#45;&gt;Node5</title>
<path fill="none" stroke="midnightblue" d="M266.5,-119.58C239.35,-110.63 189.59,-94.24 154.74,-82.76"/>
<polygon fill="midnightblue" stroke="midnightblue" points="155.49,-79.32 144.89,-79.52 153.3,-85.97 155.49,-79.32"/>
</g>
<!-- Node10&#45;&gt;Node7 -->
<g id="edge11" class="edge">
<title>Node10&#45;&gt;Node7</title>
<path fill="none" stroke="midnightblue" d="M266.45,-118.64C249.61,-111.33 225.89,-98.51 212,-80 201.45,-65.93 196.76,-46.28 194.67,-31.72"/>
<polygon fill="midnightblue" stroke="midnightblue" points="198.14,-31.29 193.53,-21.75 191.19,-32.09 198.14,-31.29"/>
</g>
<!-- Node11 -->
<g id="node11" class="node">
<title>Node11</title>
<g id="a_node11"><a xlink:href="global__const_8h.html" target="_top" xlink:title=" ">
<polygon fill="white" stroke="black" points="221.5,-58.5 221.5,-79.5 314.5,-79.5 314.5,-58.5 221.5,-58.5"/>
<text text-anchor="middle" x="268" y="-65.9" font-family="DejaVuSans" font-size="12.00">global_const.h</text>
</a>
</g>
</g>
<!-- Node10&#45;&gt;Node11 -->
<g id="edge12" class="edge">
<title>Node10&#45;&gt;Node11</title>
<path fill="none" stroke="midnightblue" d="M282.86,-116.25C280.49,-108.86 277.15,-98.47 274.24,-89.41"/>
<polygon fill="midnightblue" stroke="midnightblue" points="277.49,-88.09 271.1,-79.64 270.83,-90.23 277.49,-88.09"/>
</g>
<!-- Node11&#45;&gt;Node3 -->
<g id="edge14" class="edge">
<title>Node11&#45;&gt;Node3</title>
<path fill="none" stroke="midnightblue" d="M281.06,-58.25C292.36,-49.81 308.88,-37.47 322.03,-27.66"/>
<polygon fill="midnightblue" stroke="midnightblue" points="324.17,-30.43 330.09,-21.64 319.98,-24.82 324.17,-30.43"/>
</g>
<!-- Node12 -->
<g id="node12" class="node">
<title>Node12</title>
<g id="a_node12"><a xlink:title=" ">
<polygon fill="white" stroke="#bfbfbf" points="238.5,-0.5 238.5,-21.5 297.5,-21.5 297.5,-0.5 238.5,-0.5"/>
<text text-anchor="middle" x="268" y="-7.9" font-family="DejaVuSans" font-size="12.00">assert.h</text>
</a>
</g>
</g>
<!-- Node11&#45;&gt;Node12 -->
<g id="edge13" class="edge">
<title>Node11&#45;&gt;Node12</title>
<path fill="none" stroke="midnightblue" d="M268,-58.25C268,-50.94 268,-40.69 268,-31.7"/>
<polygon fill="midnightblue" stroke="midnightblue" points="271.5,-31.64 268,-21.64 264.5,-31.64 271.5,-31.64"/>
</g>
<!-- Node14&#45;&gt;Node5 -->
<g id="edge18" class="edge">
<title>Node14&#45;&gt;Node5</title>
<path fill="none" stroke="midnightblue" d="M158.41,-522.26C144.42,-503.32 116,-459.71 116,-418 116,-418 116,-418 116,-184 116,-150.98 116,-112.59 116,-89.85"/>
<polygon fill="midnightblue" stroke="midnightblue" points="119.5,-89.76 116,-79.76 112.5,-89.76 119.5,-89.76"/>
</g>
<!-- Node15 -->
<g id="node15" class="node">
<title>Node15</title>
<g id="a_node15"><a xlink:href="global_8h.html" target="_top" xlink:title=" ">
<polygon fill="white" stroke="black" points="172,-464.5 172,-485.5 230,-485.5 230,-464.5 172,-464.5"/>
<text text-anchor="middle" x="201" y="-471.9" font-family="DejaVuSans" font-size="12.00">global.h</text>
</a>
</g>
</g>
<!-- Node14&#45;&gt;Node15 -->
<g id="edge19" class="edge">
<title>Node14&#45;&gt;Node15</title>
<path fill="none" stroke="midnightblue" d="M172.1,-522.25C176.91,-514.54 183.78,-503.56 189.6,-494.23"/>
<polygon fill="midnightblue" stroke="midnightblue" points="192.64,-495.98 194.97,-485.64 186.71,-492.27 192.64,-495.98"/>
</g>
<!-- Node15&#45;&gt;Node10 -->
<g id="edge21" class="edge">
<title>Node15&#45;&gt;Node10</title>
<path fill="none" stroke="midnightblue" d="M204.08,-464.15C206.97,-454.85 211.38,-440.51 215,-428 232.71,-366.9 234.3,-350.8 253,-290 265.97,-247.82 277.47,-239.49 285,-196 287.77,-180 287.85,-161.57 287.34,-147.94"/>
<polygon fill="midnightblue" stroke="midnightblue" points="290.82,-147.58 286.81,-137.77 283.83,-147.94 290.82,-147.58"/>
</g>
<!-- Node16 -->
<g id="node16" class="node">
<title>Node16</title>
<g id="a_node16"><a xlink:title=" ">
<polygon fill="white" stroke="#bfbfbf" points="144,-406.5 144,-427.5 206,-427.5 206,-406.5 144,-406.5"/>
<text text-anchor="middle" x="175" y="-413.9" font-family="DejaVuSans" font-size="12.00">setjmp.h</text>
</a>
</g>
</g>
<!-- Node15&#45;&gt;Node16 -->
<g id="edge20" class="edge">
<title>Node15&#45;&gt;Node16</title>
<path fill="none" stroke="midnightblue" d="M196.47,-464.25C192.97,-456.7 188.01,-446.02 183.74,-436.82"/>
<polygon fill="midnightblue" stroke="midnightblue" points="186.86,-435.24 179.48,-427.64 180.51,-438.19 186.86,-435.24"/>
</g>
<!-- Node17 -->
<g id="node17" class="node">
<title>Node17</title>
<g id="a_node17"><a xlink:href="scan_8h.html" target="_top" xlink:title=" ">
<polygon fill="white" stroke="black" points="300,-406.5 300,-427.5 352,-427.5 352,-406.5 300,-406.5"/>
<text text-anchor="middle" x="326" y="-413.9" font-family="DejaVuSans" font-size="12.00">scan.h</text>
</a>
</g>
</g>
<!-- Node15&#45;&gt;Node17 -->
<g id="edge22" class="edge">
<title>Node15&#45;&gt;Node17</title>
<path fill="none" stroke="midnightblue" d="M222.49,-464.37C242.64,-455.34 272.99,-441.75 295.62,-431.61"/>
<polygon fill="midnightblue" stroke="midnightblue" points="297.1,-434.78 304.79,-427.5 294.24,-428.4 297.1,-434.78"/>
</g>
<!-- Node17&#45;&gt;Node2 -->
<g id="edge23" class="edge">
<title>Node17&#45;&gt;Node2</title>
<path fill="none" stroke="midnightblue" d="M326,-406.25C326,-398.94 326,-388.69 326,-379.7"/>
<polygon fill="midnightblue" stroke="midnightblue" points="329.5,-379.64 326,-369.64 322.5,-379.64 329.5,-379.64"/>
</g>
<!-- Node18&#45;&gt;Node4 -->
<g id="edge26" class="edge">
<title>Node18&#45;&gt;Node4</title>
<path fill="none" stroke="midnightblue" d="M272,-638.24C272,-618.54 272,-572.59 272,-534 272,-534 272,-534 272,-416 272,-382.83 276.67,-344.48 279.93,-321.79"/>
<polygon fill="midnightblue" stroke="midnightblue" points="283.41,-322.14 281.42,-311.73 276.49,-321.1 283.41,-322.14"/>
</g>
<!-- Node18&#45;&gt;Node5 -->
<g id="edge25" class="edge">
<title>Node18&#45;&gt;Node5</title>
<path fill="none" stroke="midnightblue" d="M246.93,-645.26C218.59,-640.88 172.8,-629.75 145,-602 83.41,-540.51 78,-505.03 78,-418 78,-418 78,-418 78,-184 78,-148.9 94.41,-110.7 105.66,-88.63"/>
<polygon fill="midnightblue" stroke="midnightblue" points="108.81,-90.17 110.39,-79.7 102.62,-86.9 108.81,-90.17"/>
</g>
<!-- Node18&#45;&gt;Node10 -->
<g id="edge29" class="edge">
<title>Node18&#45;&gt;Node10</title>
<path fill="none" stroke="midnightblue" d="M291.81,-638.46C322.99,-621.91 380,-584.71 380,-534 380,-534 380,-534 380,-300 380,-236.55 330.13,-174.27 303.04,-145.13"/>
<polygon fill="midnightblue" stroke="midnightblue" points="305.49,-142.64 296.06,-137.81 300.43,-147.47 305.49,-142.64"/>
</g>
<!-- Node19 -->
<g id="node19" class="node">
<title>Node19</title>
<g id="a_node19"><a xlink:href="texmac_8h.html" target="_top" xlink:title=" ">
<polygon fill="white" stroke="black" points="154.5,-580.5 154.5,-601.5 219.5,-601.5 219.5,-580.5 154.5,-580.5"/>
<text text-anchor="middle" x="187" y="-587.9" font-family="DejaVuSans" font-size="12.00">texmac.h</text>
</a>
</g>
</g>
<!-- Node18&#45;&gt;Node19 -->
<g id="edge27" class="edge">
<title>Node18&#45;&gt;Node19</title>
<path fill="none" stroke="midnightblue" d="M257.19,-638.25C244.27,-629.73 225.31,-617.24 210.34,-607.38"/>
<polygon fill="midnightblue" stroke="midnightblue" points="211.91,-604.22 201.64,-601.64 208.06,-610.07 211.91,-604.22"/>
</g>
<!-- Node19&#45;&gt;Node14 -->
<g id="edge28" class="edge">
<title>Node19&#45;&gt;Node14</title>
<path fill="none" stroke="midnightblue" d="M183.34,-580.25C180.54,-572.78 176.59,-562.24 173.17,-553.11"/>
<polygon fill="midnightblue" stroke="midnightblue" points="176.4,-551.78 169.62,-543.64 169.85,-554.23 176.4,-551.78"/>
</g>
<!-- Node21&#45;&gt;Node10 -->
<g id="edge32" class="edge">
<title>Node21&#45;&gt;Node10</title>
<path fill="none" stroke="midnightblue" d="M475.7,-580.37C469.34,-560.91 456,-515.37 456,-476 456,-476 456,-476 456,-242 456,-175.13 364.13,-144.97 315.46,-133.68"/>
<polygon fill="midnightblue" stroke="midnightblue" points="316.02,-130.22 305.5,-131.5 314.52,-137.06 316.02,-130.22"/>
</g>
<!-- Node22&#45;&gt;Node5 -->
<g id="edge34" class="edge">
<title>Node22&#45;&gt;Node5</title>
<path fill="none" stroke="midnightblue" d="M24.98,-290.46C25.31,-261.93 29.31,-175.53 64,-116 70.92,-104.12 82,-93.7 92.15,-85.79"/>
<polygon fill="midnightblue" stroke="midnightblue" points="94.37,-88.5 100.36,-79.76 90.23,-82.86 94.37,-88.5"/>
</g>
<!-- Node22&#45;&gt;Node8 -->
<g id="edge35" class="edge">
<title>Node22&#45;&gt;Node8</title>
<path fill="none" stroke="midnightblue" d="M50.21,-291.49C77.55,-282.27 121.48,-267.45 153.01,-256.82"/>
<polygon fill="midnightblue" stroke="midnightblue" points="154.41,-260.04 162.77,-253.52 152.17,-253.4 154.41,-260.04"/>
</g>
</g>
</svg>
