<?xml version="1.0" encoding="UTF-8" standalone="no"?>
<!DOCTYPE svg PUBLIC "-//W3C//DTD SVG 1.1//EN"
 "http://www.w3.org/Graphics/SVG/1.1/DTD/svg11.dtd">
<!-- Generated by graphviz version 2.44.0 ()
 -->
<!-- Title: eqtb.c Pages: 1 -->
<svg width="893pt" height="436pt"
 viewBox="0.00 0.00 892.74 436.00" xmlns="http://www.w3.org/2000/svg" xmlns:xlink="http://www.w3.org/1999/xlink">
<g id="graph0" class="graph" transform="scale(1 1) rotate(0) translate(4 432)">
<title>eqtb.c</title>
<polygon fill="white" stroke="transparent" points="-4,4 -4,-432 888.74,-432 888.74,4 -4,4"/>
<!-- Node1 -->
<g id="node1" class="node">
<title>Node1</title>
<g id="a_node1"><a xlink:title=" ">
<polygon fill="#bfbfbf" stroke="black" points="519.24,-406.5 519.24,-427.5 568.24,-427.5 568.24,-406.5 519.24,-406.5"/>
<text text-anchor="middle" x="543.74" y="-413.9" font-family="DejaVuSans" font-size="12.00">eqtb.c</text>
</a>
</g>
</g>
<!-- Node2 -->
<g id="node2" class="node">
<title>Node2</title>
<g id="a_node2"><a xlink:title=" ">
<polygon fill="white" stroke="#bfbfbf" points="122.24,-348.5 122.24,-369.5 171.24,-369.5 171.24,-348.5 122.24,-348.5"/>
<text text-anchor="middle" x="146.74" y="-355.9" font-family="DejaVuSans" font-size="12.00">time.h</text>
</a>
</g>
</g>
<!-- Node1&#45;&gt;Node2 -->
<g id="edge1" class="edge">
<title>Node1&#45;&gt;Node2</title>
<path fill="none" stroke="midnightblue" d="M518.83,-413.87C460.33,-408.62 309.75,-393.77 185.74,-370 184.28,-369.72 182.79,-369.42 181.29,-369.1"/>
<polygon fill="midnightblue" stroke="midnightblue" points="181.92,-365.65 171.39,-366.81 180.35,-372.47 181.92,-365.65"/>
</g>
<!-- Node3 -->
<g id="node3" class="node">
<title>Node3</title>
<g id="a_node3"><a xlink:href="charset_8h.html" target="_top" xlink:title=" ">
<polygon fill="white" stroke="black" points="501.24,-174.5 501.24,-195.5 566.24,-195.5 566.24,-174.5 501.24,-174.5"/>
<text text-anchor="middle" x="533.74" y="-181.9" font-family="DejaVuSans" font-size="12.00">charset.h</text>
</a>
</g>
</g>
<!-- Node1&#45;&gt;Node3 -->
<g id="edge2" class="edge">
<title>Node1&#45;&gt;Node3</title>
<path fill="none" stroke="midnightblue" d="M549.55,-406.3C561.44,-385.3 586.65,-333.97 577.74,-290 571.34,-258.46 555.06,-224.61 544.2,-204.38"/>
<polygon fill="midnightblue" stroke="midnightblue" points="547.26,-202.68 539.37,-195.61 541.12,-206.06 547.26,-202.68"/>
</g>
<!-- Node12 -->
<g id="node12" class="node">
<title>Node12</title>
<g id="a_node12"><a xlink:href="print_8h.html" target="_top" xlink:title=" ">
<polygon fill="white" stroke="black" points="373.74,-290.5 373.74,-311.5 423.74,-311.5 423.74,-290.5 373.74,-290.5"/>
<text text-anchor="middle" x="398.74" y="-297.9" font-family="DejaVuSans" font-size="12.00">print.h</text>
</a>
</g>
</g>
<!-- Node1&#45;&gt;Node12 -->
<g id="edge11" class="edge">
<title>Node1&#45;&gt;Node12</title>
<path fill="none" stroke="midnightblue" d="M531.37,-406.28C506.44,-386.68 449.9,-342.23 419.31,-318.18"/>
<polygon fill="midnightblue" stroke="midnightblue" points="421.09,-315.12 411.07,-311.69 416.77,-320.63 421.09,-315.12"/>
</g>
<!-- Node15 -->
<g id="node15" class="node">
<title>Node15</title>
<g id="a_node15"><a xlink:href="eqtb_8h.html" target="_top" xlink:title=" ">
<polygon fill="white" stroke="black" points="12.74,-232.5 12.74,-253.5 62.74,-253.5 62.74,-232.5 12.74,-232.5"/>
<text text-anchor="middle" x="37.74" y="-239.9" font-family="DejaVuSans" font-size="12.00">eqtb.h</text>
</a>
</g>
</g>
<!-- Node1&#45;&gt;Node15 -->
<g id="edge57" class="edge">
<title>Node1&#45;&gt;Node15</title>
<path fill="none" stroke="midnightblue" d="M518.88,-414.44C470.5,-410.82 360.79,-399.78 273.74,-370 190.18,-341.42 100.57,-285.8 59.98,-259.06"/>
<polygon fill="midnightblue" stroke="midnightblue" points="61.9,-256.13 51.63,-253.51 58.03,-261.96 61.9,-256.13"/>
</g>
<!-- Node17 -->
<g id="node17" class="node">
<title>Node17</title>
<g id="a_node17"><a xlink:href="hash_8h.html" target="_top" xlink:title=" ">
<polygon fill="white" stroke="black" points="310.24,-348.5 310.24,-369.5 363.24,-369.5 363.24,-348.5 310.24,-348.5"/>
<text text-anchor="middle" x="336.74" y="-355.9" font-family="DejaVuSans" font-size="12.00">hash.h</text>
</a>
</g>
</g>
<!-- Node1&#45;&gt;Node17 -->
<g id="edge25" class="edge">
<title>Node1&#45;&gt;Node17</title>
<path fill="none" stroke="midnightblue" d="M519.18,-409.36C483.07,-399.59 415.39,-381.28 373.38,-369.91"/>
<polygon fill="midnightblue" stroke="midnightblue" points="374.12,-366.49 363.55,-367.25 372.29,-373.24 374.12,-366.49"/>
</g>
<!-- Node20 -->
<g id="node20" class="node">
<title>Node20</title>
<g id="a_node20"><a xlink:href="printout_8h.html" target="_top" xlink:title=" ">
<polygon fill="white" stroke="black" points="818.74,-348.5 818.74,-369.5 884.74,-369.5 884.74,-348.5 818.74,-348.5"/>
<text text-anchor="middle" x="851.74" y="-355.9" font-family="DejaVuSans" font-size="12.00">printout.h</text>
</a>
</g>
</g>
<!-- Node1&#45;&gt;Node20 -->
<g id="edge38" class="edge">
<title>Node1&#45;&gt;Node20</title>
<path fill="none" stroke="midnightblue" d="M568.42,-411.51C620.72,-402 743.26,-379.72 808.72,-367.82"/>
<polygon fill="midnightblue" stroke="midnightblue" points="809.51,-371.24 818.72,-366 808.25,-364.35 809.51,-371.24"/>
</g>
<!-- Node21 -->
<g id="node21" class="node">
<title>Node21</title>
<g id="a_node21"><a xlink:href="texmath_8h.html" target="_top" xlink:title=" ">
<polygon fill="white" stroke="black" points="772.74,-232.5 772.74,-253.5 840.74,-253.5 840.74,-232.5 772.74,-232.5"/>
<text text-anchor="middle" x="806.74" y="-239.9" font-family="DejaVuSans" font-size="12.00">texmath.h</text>
</a>
</g>
</g>
<!-- Node1&#45;&gt;Node21 -->
<g id="edge40" class="edge">
<title>Node1&#45;&gt;Node21</title>
<path fill="none" stroke="midnightblue" d="M568.28,-410.7C595.67,-404.05 640.62,-390.91 674.74,-370 724.21,-339.67 770.47,-288.23 792.78,-261.42"/>
<polygon fill="midnightblue" stroke="midnightblue" points="795.52,-263.6 799.16,-253.64 790.11,-259.16 795.52,-263.6"/>
</g>
<!-- Node22 -->
<g id="node22" class="node">
<title>Node22</title>
<g id="a_node22"><a xlink:href="box_8h.html" target="_top" xlink:title=" ">
<polygon fill="white" stroke="black" points="666.74,-290.5 666.74,-311.5 712.74,-311.5 712.74,-290.5 666.74,-290.5"/>
<text text-anchor="middle" x="689.74" y="-297.9" font-family="DejaVuSans" font-size="12.00">box.h</text>
</a>
</g>
</g>
<!-- Node1&#45;&gt;Node22 -->
<g id="edge42" class="edge">
<title>Node1&#45;&gt;Node22</title>
<path fill="none" stroke="midnightblue" d="M568.57,-410.4C592.26,-404 627.78,-391.52 651.74,-370 666.61,-356.63 676.98,-336.02 683.09,-320.99"/>
<polygon fill="midnightblue" stroke="midnightblue" points="686.36,-322.23 686.64,-311.64 679.82,-319.75 686.36,-322.23"/>
</g>
<!-- Node23 -->
<g id="node23" class="node">
<title>Node23</title>
<g id="a_node23"><a xlink:href="mem_8h.html" target="_top" xlink:title=" ">
<polygon fill="white" stroke="black" points="663.24,-232.5 663.24,-253.5 716.24,-253.5 716.24,-232.5 663.24,-232.5"/>
<text text-anchor="middle" x="689.74" y="-239.9" font-family="DejaVuSans" font-size="12.00">mem.h</text>
</a>
</g>
</g>
<!-- Node1&#45;&gt;Node23 -->
<g id="edge52" class="edge">
<title>Node1&#45;&gt;Node23</title>
<path fill="none" stroke="midnightblue" d="M562.46,-406.43C577.17,-398.24 597.47,-385.35 611.74,-370 639.66,-339.96 635.78,-324.64 657.74,-290 663.7,-280.59 670.74,-270.39 676.69,-261.99"/>
<polygon fill="midnightblue" stroke="midnightblue" points="679.64,-263.87 682.62,-253.71 673.95,-259.8 679.64,-263.87"/>
</g>
<!-- Node24 -->
<g id="node24" class="node">
<title>Node24</title>
<g id="a_node24"><a xlink:href="error_8h.html" target="_top" xlink:title=" ">
<polygon fill="white" stroke="black" points="518.24,-290.5 518.24,-311.5 569.24,-311.5 569.24,-290.5 518.24,-290.5"/>
<text text-anchor="middle" x="543.74" y="-297.9" font-family="DejaVuSans" font-size="12.00">error.h</text>
</a>
</g>
</g>
<!-- Node1&#45;&gt;Node24 -->
<g id="edge49" class="edge">
<title>Node1&#45;&gt;Node24</title>
<path fill="none" stroke="midnightblue" d="M543.74,-406.28C543.74,-387.6 543.74,-346.37 543.74,-321.72"/>
<polygon fill="midnightblue" stroke="midnightblue" points="547.24,-321.69 543.74,-311.69 540.24,-321.7 547.24,-321.69"/>
</g>
<!-- Node25 -->
<g id="node25" class="node">
<title>Node25</title>
<g id="a_node25"><a xlink:href="lexer_8h.html" target="_top" xlink:title=" ">
<polygon fill="white" stroke="black" points="194.74,-232.5 194.74,-253.5 246.74,-253.5 246.74,-232.5 194.74,-232.5"/>
<text text-anchor="middle" x="220.74" y="-239.9" font-family="DejaVuSans" font-size="12.00">lexer.h</text>
</a>
</g>
</g>
<!-- Node1&#45;&gt;Node25 -->
<g id="edge53" class="edge">
<title>Node1&#45;&gt;Node25</title>
<path fill="none" stroke="midnightblue" d="M519.04,-413.82C464.6,-408.62 336.27,-394.11 300.74,-370 261.95,-343.69 238.03,-291.65 227.34,-263.38"/>
<polygon fill="midnightblue" stroke="midnightblue" points="230.57,-262.03 223.88,-253.81 223.99,-264.41 230.57,-262.03"/>
</g>
<!-- Node4 -->
<g id="node4" class="node">
<title>Node4</title>
<g id="a_node4"><a xlink:href="global_8h.html" target="_top" xlink:title=" ">
<polygon fill="white" stroke="black" points="487.74,-116.5 487.74,-137.5 545.74,-137.5 545.74,-116.5 487.74,-116.5"/>
<text text-anchor="middle" x="516.74" y="-123.9" font-family="DejaVuSans" font-size="12.00">global.h</text>
</a>
</g>
</g>
<!-- Node3&#45;&gt;Node4 -->
<g id="edge3" class="edge">
<title>Node3&#45;&gt;Node4</title>
<path fill="none" stroke="midnightblue" d="M530.77,-174.25C528.53,-166.86 525.38,-156.47 522.63,-147.41"/>
<polygon fill="midnightblue" stroke="midnightblue" points="525.92,-146.19 519.66,-137.64 519.22,-148.23 525.92,-146.19"/>
</g>
<!-- Node5 -->
<g id="node5" class="node">
<title>Node5</title>
<g id="a_node5"><a xlink:href="global__macros_8h.html" target="_top" xlink:title=" ">
<polygon fill="white" stroke="black" points="622.74,-58.5 622.74,-79.5 726.74,-79.5 726.74,-58.5 622.74,-58.5"/>
<text text-anchor="middle" x="674.74" y="-65.9" font-family="DejaVuSans" font-size="12.00">global_macros.h</text>
</a>
</g>
</g>
<!-- Node4&#45;&gt;Node5 -->
<g id="edge4" class="edge">
<title>Node4&#45;&gt;Node5</title>
<path fill="none" stroke="midnightblue" d="M543.9,-116.37C569.94,-107.14 609.45,-93.14 638.23,-82.94"/>
<polygon fill="midnightblue" stroke="midnightblue" points="639.67,-86.14 647.93,-79.5 637.33,-79.54 639.67,-86.14"/>
</g>
<!-- Node7 -->
<g id="node7" class="node">
<title>Node7</title>
<g id="a_node7"><a xlink:href="global__const_8h.html" target="_top" xlink:title=" ">
<polygon fill="white" stroke="black" points="416.24,-58.5 416.24,-79.5 509.24,-79.5 509.24,-58.5 416.24,-58.5"/>
<text text-anchor="middle" x="462.74" y="-65.9" font-family="DejaVuSans" font-size="12.00">global_const.h</text>
</a>
</g>
</g>
<!-- Node4&#45;&gt;Node7 -->
<g id="edge6" class="edge">
<title>Node4&#45;&gt;Node7</title>
<path fill="none" stroke="midnightblue" d="M507.33,-116.25C499.59,-108.22 488.42,-96.64 479.2,-87.08"/>
<polygon fill="midnightblue" stroke="midnightblue" points="481.5,-84.41 472.03,-79.64 476.46,-89.27 481.5,-84.41"/>
</g>
<!-- Node8 -->
<g id="node8" class="node">
<title>Node8</title>
<g id="a_node8"><a xlink:href="tex__types_8h.html" target="_top" xlink:title=" ">
<polygon fill="white" stroke="black" points="527.24,-58.5 527.24,-79.5 604.24,-79.5 604.24,-58.5 527.24,-58.5"/>
<text text-anchor="middle" x="565.74" y="-65.9" font-family="DejaVuSans" font-size="12.00">tex_types.h</text>
</a>
</g>
</g>
<!-- Node4&#45;&gt;Node8 -->
<g id="edge7" class="edge">
<title>Node4&#45;&gt;Node8</title>
<path fill="none" stroke="midnightblue" d="M525.27,-116.25C532.23,-108.3 542.22,-96.87 550.54,-87.37"/>
<polygon fill="midnightblue" stroke="midnightblue" points="553.35,-89.47 557.3,-79.64 548.08,-84.86 553.35,-89.47"/>
</g>
<!-- Node6 -->
<g id="node6" class="node">
<title>Node6</title>
<g id="a_node6"><a xlink:title=" ">
<polygon fill="white" stroke="#bfbfbf" points="645.24,-0.5 645.24,-21.5 704.24,-21.5 704.24,-0.5 645.24,-0.5"/>
<text text-anchor="middle" x="674.74" y="-7.9" font-family="DejaVuSans" font-size="12.00">assert.h</text>
</a>
</g>
</g>
<!-- Node5&#45;&gt;Node6 -->
<g id="edge5" class="edge">
<title>Node5&#45;&gt;Node6</title>
<path fill="none" stroke="midnightblue" d="M674.74,-58.25C674.74,-50.94 674.74,-40.69 674.74,-31.7"/>
<polygon fill="midnightblue" stroke="midnightblue" points="678.24,-31.64 674.74,-21.64 671.24,-31.64 678.24,-31.64"/>
</g>
<!-- Node9 -->
<g id="node9" class="node">
<title>Node9</title>
<g id="a_node9"><a xlink:title=" ">
<polygon fill="white" stroke="#bfbfbf" points="472.24,-0.5 472.24,-21.5 537.24,-21.5 537.24,-0.5 472.24,-0.5"/>
<text text-anchor="middle" x="504.74" y="-7.9" font-family="DejaVuSans" font-size="12.00">stdbool.h</text>
</a>
</g>
</g>
<!-- Node8&#45;&gt;Node9 -->
<g id="edge8" class="edge">
<title>Node8&#45;&gt;Node9</title>
<path fill="none" stroke="midnightblue" d="M555.11,-58.25C546.19,-50.05 533.25,-38.17 522.72,-28.51"/>
<polygon fill="midnightblue" stroke="midnightblue" points="524.97,-25.83 515.24,-21.64 520.24,-30.98 524.97,-25.83"/>
</g>
<!-- Node10 -->
<g id="node10" class="node">
<title>Node10</title>
<g id="a_node10"><a xlink:title=" ">
<polygon fill="white" stroke="#bfbfbf" points="373.24,-0.5 373.24,-21.5 428.24,-21.5 428.24,-0.5 373.24,-0.5"/>
<text text-anchor="middle" x="400.74" y="-7.9" font-family="DejaVuSans" font-size="12.00">stdint.h</text>
</a>
</g>
</g>
<!-- Node8&#45;&gt;Node10 -->
<g id="edge9" class="edge">
<title>Node8&#45;&gt;Node10</title>
<path fill="none" stroke="midnightblue" d="M537.37,-58.37C509.97,-49.07 468.3,-34.93 438.19,-24.71"/>
<polygon fill="midnightblue" stroke="midnightblue" points="439.05,-21.31 428.46,-21.41 436.8,-27.94 439.05,-21.31"/>
</g>
<!-- Node11 -->
<g id="node11" class="node">
<title>Node11</title>
<g id="a_node11"><a xlink:title=" ">
<polygon fill="white" stroke="#bfbfbf" points="555.24,-0.5 555.24,-21.5 614.24,-21.5 614.24,-0.5 555.24,-0.5"/>
<text text-anchor="middle" x="584.74" y="-7.9" font-family="DejaVuSans" font-size="12.00">stddef.h</text>
</a>
</g>
</g>
<!-- Node8&#45;&gt;Node11 -->
<g id="edge10" class="edge">
<title>Node8&#45;&gt;Node11</title>
<path fill="none" stroke="midnightblue" d="M569.05,-58.25C571.58,-50.78 575.15,-40.24 578.25,-31.11"/>
<polygon fill="midnightblue" stroke="midnightblue" points="581.57,-32.24 581.46,-21.64 574.94,-29.99 581.57,-32.24"/>
</g>
<!-- Node12&#45;&gt;Node3 -->
<g id="edge14" class="edge">
<title>Node12&#45;&gt;Node3</title>
<path fill="none" stroke="midnightblue" d="M423.76,-293.97C446.31,-287.43 479.15,-274.99 500.74,-254 514.52,-240.6 523.33,-220.28 528.35,-205.34"/>
<polygon fill="midnightblue" stroke="midnightblue" points="531.75,-206.17 531.35,-195.59 525.06,-204.12 531.75,-206.17"/>
</g>
<!-- Node12&#45;&gt;Node4 -->
<g id="edge13" class="edge">
<title>Node12&#45;&gt;Node4</title>
<path fill="none" stroke="midnightblue" d="M404.63,-290.33C417.74,-268.95 450.54,-216.26 480.74,-174 487.56,-164.45 495.58,-154.13 502.31,-145.69"/>
<polygon fill="midnightblue" stroke="midnightblue" points="505.21,-147.66 508.76,-137.68 499.76,-143.27 505.21,-147.66"/>
</g>
<!-- Node13 -->
<g id="node13" class="node">
<title>Node13</title>
<g id="a_node13"><a xlink:title=" ">
<polygon fill="white" stroke="#bfbfbf" points="307.74,-174.5 307.74,-195.5 359.74,-195.5 359.74,-174.5 307.74,-174.5"/>
<text text-anchor="middle" x="333.74" y="-181.9" font-family="DejaVuSans" font-size="12.00">stdio.h</text>
</a>
</g>
</g>
<!-- Node12&#45;&gt;Node13 -->
<g id="edge12" class="edge">
<title>Node12&#45;&gt;Node13</title>
<path fill="none" stroke="midnightblue" d="M393.19,-290.28C382.35,-271.27 358.18,-228.88 344.23,-204.4"/>
<polygon fill="midnightblue" stroke="midnightblue" points="347.26,-202.65 339.26,-195.69 341.18,-206.12 347.26,-202.65"/>
</g>
<!-- Node14 -->
<g id="node14" class="node">
<title>Node14</title>
<g id="a_node14"><a xlink:href="tex__constant_8h.html" target="_top" xlink:title=" ">
<polygon fill="white" stroke="black" points="119.74,-174.5 119.74,-195.5 213.74,-195.5 213.74,-174.5 119.74,-174.5"/>
<text text-anchor="middle" x="166.74" y="-181.9" font-family="DejaVuSans" font-size="12.00">tex_constant.h</text>
</a>
</g>
</g>
<!-- Node12&#45;&gt;Node14 -->
<g id="edge15" class="edge">
<title>Node12&#45;&gt;Node14</title>
<path fill="none" stroke="midnightblue" d="M373.55,-292.33C370.59,-291.5 367.6,-290.71 364.74,-290 285.96,-270.53 245.2,-309.22 185.74,-254 172.58,-241.78 168.26,-221.29 166.97,-205.99"/>
<polygon fill="midnightblue" stroke="midnightblue" points="170.46,-205.77 166.48,-195.96 163.47,-206.11 170.46,-205.77"/>
</g>
<!-- Node12&#45;&gt;Node15 -->
<g id="edge17" class="edge">
<title>Node12&#45;&gt;Node15</title>
<path fill="none" stroke="midnightblue" d="M373.59,-292.16C370.62,-291.37 367.62,-290.62 364.74,-290 259.81,-267.32 133.42,-253.21 73.11,-247.26"/>
<polygon fill="midnightblue" stroke="midnightblue" points="73.27,-243.76 62.98,-246.28 72.6,-250.73 73.27,-243.76"/>
</g>
<!-- Node16 -->
<g id="node16" class="node">
<title>Node16</title>
<g id="a_node16"><a xlink:href="str_8h.html" target="_top" xlink:title=" ">
<polygon fill="white" stroke="black" points="453.24,-232.5 453.24,-253.5 492.24,-253.5 492.24,-232.5 453.24,-232.5"/>
<text text-anchor="middle" x="472.74" y="-239.9" font-family="DejaVuSans" font-size="12.00">str.h</text>
</a>
</g>
</g>
<!-- Node12&#45;&gt;Node16 -->
<g id="edge20" class="edge">
<title>Node12&#45;&gt;Node16</title>
<path fill="none" stroke="midnightblue" d="M411.63,-290.25C422.66,-281.89 438.77,-269.71 451.67,-259.94"/>
<polygon fill="midnightblue" stroke="midnightblue" points="454.13,-262.47 459.99,-253.64 449.91,-256.89 454.13,-262.47"/>
</g>
<!-- Node14&#45;&gt;Node7 -->
<g id="edge16" class="edge">
<title>Node14&#45;&gt;Node7</title>
<path fill="none" stroke="midnightblue" d="M191.46,-174.48C244.24,-154.15 368.02,-106.48 428.4,-83.22"/>
<polygon fill="midnightblue" stroke="midnightblue" points="429.8,-86.44 437.87,-79.58 427.28,-79.9 429.8,-86.44"/>
</g>
<!-- Node15&#45;&gt;Node4 -->
<g id="edge18" class="edge">
<title>Node15&#45;&gt;Node4</title>
<path fill="none" stroke="midnightblue" d="M40.28,-232.13C44.78,-216.81 55.75,-187.66 76.74,-174 142.34,-131.29 382.48,-127.43 477.58,-127.63"/>
<polygon fill="midnightblue" stroke="midnightblue" points="477.63,-131.13 487.64,-127.67 477.66,-124.13 477.63,-131.13"/>
</g>
<!-- Node15&#45;&gt;Node14 -->
<g id="edge19" class="edge">
<title>Node15&#45;&gt;Node14</title>
<path fill="none" stroke="midnightblue" d="M59.91,-232.37C80.71,-223.34 112.03,-209.75 135.38,-199.61"/>
<polygon fill="midnightblue" stroke="midnightblue" points="137.07,-202.69 144.85,-195.5 134.28,-196.27 137.07,-202.69"/>
</g>
<!-- Node16&#45;&gt;Node3 -->
<g id="edge24" class="edge">
<title>Node16&#45;&gt;Node3</title>
<path fill="none" stroke="midnightblue" d="M483.36,-232.25C492.28,-224.05 505.22,-212.17 515.76,-202.51"/>
<polygon fill="midnightblue" stroke="midnightblue" points="518.23,-204.98 523.23,-195.64 513.5,-199.83 518.23,-204.98"/>
</g>
<!-- Node16&#45;&gt;Node4 -->
<g id="edge23" class="edge">
<title>Node16&#45;&gt;Node4</title>
<path fill="none" stroke="midnightblue" d="M474.77,-232.09C477.69,-218.64 483.63,-193.99 491.74,-174 495.56,-164.56 500.84,-154.56 505.55,-146.31"/>
<polygon fill="midnightblue" stroke="midnightblue" points="508.65,-147.95 510.71,-137.56 502.62,-144.39 508.65,-147.95"/>
</g>
<!-- Node16&#45;&gt;Node10 -->
<g id="edge22" class="edge">
<title>Node16&#45;&gt;Node10</title>
<path fill="none" stroke="midnightblue" d="M467.67,-232.48C454.89,-207.99 421.38,-140.51 406.74,-80 402.9,-64.16 401.46,-45.72 400.94,-32.04"/>
<polygon fill="midnightblue" stroke="midnightblue" points="404.43,-31.74 400.69,-21.83 397.43,-31.91 404.43,-31.74"/>
</g>
<!-- Node16&#45;&gt;Node13 -->
<g id="edge21" class="edge">
<title>Node16&#45;&gt;Node13</title>
<path fill="none" stroke="midnightblue" d="M453.12,-234.1C430.72,-225.07 393.72,-210.17 366.84,-199.34"/>
<polygon fill="midnightblue" stroke="midnightblue" points="368.03,-196.04 357.44,-195.55 365.41,-202.53 368.03,-196.04"/>
</g>
<!-- Node17&#45;&gt;Node3 -->
<g id="edge27" class="edge">
<title>Node17&#45;&gt;Node3</title>
<path fill="none" stroke="midnightblue" d="M363.33,-352.4C406.22,-341.77 489.21,-314.1 522.74,-254 530.92,-239.33 533.43,-220.29 534.04,-206.09"/>
<polygon fill="midnightblue" stroke="midnightblue" points="537.54,-205.96 534.18,-195.91 530.54,-205.86 537.54,-205.96"/>
</g>
<!-- Node17&#45;&gt;Node4 -->
<g id="edge26" class="edge">
<title>Node17&#45;&gt;Node4</title>
<path fill="none" stroke="midnightblue" d="M310.2,-353.8C238.03,-341.77 41.1,-304.81 3.74,-254 -2.06,-246.12 0.38,-241.18 3.74,-232 15.33,-200.31 22.87,-189.7 52.74,-174 126.19,-135.38 379.61,-129.12 477.61,-128.15"/>
<polygon fill="midnightblue" stroke="midnightblue" points="477.72,-131.65 487.69,-128.07 477.66,-124.65 477.72,-131.65"/>
</g>
<!-- Node17&#45;&gt;Node15 -->
<g id="edge37" class="edge">
<title>Node17&#45;&gt;Node15</title>
<path fill="none" stroke="midnightblue" d="M322.18,-348.37C299.74,-333.9 254.97,-306.49 213.74,-290 210.41,-288.67 123.34,-266.1 72.94,-253.08"/>
<polygon fill="midnightblue" stroke="midnightblue" points="73.64,-249.65 63.08,-250.54 71.89,-256.43 73.64,-249.65"/>
</g>
<!-- Node17&#45;&gt;Node16 -->
<g id="edge28" class="edge">
<title>Node17&#45;&gt;Node16</title>
<path fill="none" stroke="midnightblue" d="M363.25,-350.08C384.04,-342.82 412.73,-330.38 432.74,-312 447.65,-298.3 458.68,-277.74 465.34,-262.81"/>
<polygon fill="midnightblue" stroke="midnightblue" points="468.59,-264.11 469.24,-253.53 462.14,-261.39 468.59,-264.11"/>
</g>
<!-- Node18 -->
<g id="node18" class="node">
<title>Node18</title>
<g id="a_node18"><a xlink:href="fonts_8h.html" target="_top" xlink:title=" ">
<polygon fill="white" stroke="black" points="303.74,-290.5 303.74,-311.5 355.74,-311.5 355.74,-290.5 303.74,-290.5"/>
<text text-anchor="middle" x="329.74" y="-297.9" font-family="DejaVuSans" font-size="12.00">fonts.h</text>
</a>
</g>
</g>
<!-- Node17&#45;&gt;Node18 -->
<g id="edge29" class="edge">
<title>Node17&#45;&gt;Node18</title>
<path fill="none" stroke="midnightblue" d="M335.52,-348.25C334.6,-340.94 333.32,-330.69 332.2,-321.7"/>
<polygon fill="midnightblue" stroke="midnightblue" points="335.65,-321.13 330.94,-311.64 328.71,-322 335.65,-321.13"/>
</g>
<!-- Node18&#45;&gt;Node4 -->
<g id="edge31" class="edge">
<title>Node18&#45;&gt;Node4</title>
<path fill="none" stroke="midnightblue" d="M303.69,-296.15C258.71,-289.09 168.87,-273.02 143.74,-254 113.07,-230.79 85.12,-202.69 110.74,-174 134.93,-146.91 380.31,-133.72 477.45,-129.53"/>
<polygon fill="midnightblue" stroke="midnightblue" points="477.88,-133.02 487.73,-129.1 477.59,-126.02 477.88,-133.02"/>
</g>
<!-- Node18&#45;&gt;Node13 -->
<g id="edge30" class="edge">
<title>Node18&#45;&gt;Node13</title>
<path fill="none" stroke="midnightblue" d="M330.08,-290.28C330.73,-271.6 332.18,-230.37 333.04,-205.72"/>
<polygon fill="midnightblue" stroke="midnightblue" points="336.54,-205.81 333.4,-195.69 329.55,-205.57 336.54,-205.81"/>
</g>
<!-- Node18&#45;&gt;Node14 -->
<g id="edge32" class="edge">
<title>Node18&#45;&gt;Node14</title>
<path fill="none" stroke="midnightblue" d="M303.48,-297.07C258.82,-291.5 171.09,-277.73 152.74,-254 141.95,-240.06 148.06,-219.85 155.28,-205.09"/>
<polygon fill="midnightblue" stroke="midnightblue" points="158.58,-206.34 160.26,-195.88 152.42,-203.01 158.58,-206.34"/>
</g>
<!-- Node18&#45;&gt;Node16 -->
<g id="edge33" class="edge">
<title>Node18&#45;&gt;Node16</title>
<path fill="none" stroke="midnightblue" d="M354.32,-290.37C379.1,-280.67 417.35,-265.69 443.63,-255.4"/>
<polygon fill="midnightblue" stroke="midnightblue" points="445.03,-258.61 453.07,-251.7 442.48,-252.09 445.03,-258.61"/>
</g>
<!-- Node19 -->
<g id="node19" class="node">
<title>Node19</title>
<g id="a_node19"><a xlink:href="dump_8h.html" target="_top" xlink:title=" ">
<polygon fill="white" stroke="black" points="264.74,-232.5 264.74,-253.5 320.74,-253.5 320.74,-232.5 264.74,-232.5"/>
<text text-anchor="middle" x="292.74" y="-239.9" font-family="DejaVuSans" font-size="12.00">dump.h</text>
</a>
</g>
</g>
<!-- Node18&#45;&gt;Node19 -->
<g id="edge34" class="edge">
<title>Node18&#45;&gt;Node19</title>
<path fill="none" stroke="midnightblue" d="M323.29,-290.25C318.2,-282.54 310.95,-271.56 304.78,-262.23"/>
<polygon fill="midnightblue" stroke="midnightblue" points="307.54,-260.06 299.11,-253.64 301.7,-263.92 307.54,-260.06"/>
</g>
<!-- Node19&#45;&gt;Node4 -->
<g id="edge36" class="edge">
<title>Node19&#45;&gt;Node4</title>
<path fill="none" stroke="midnightblue" d="M290.36,-232.28C287.43,-217.7 284.43,-190.14 298.74,-174 304.68,-167.3 416.21,-146.2 477.38,-135.06"/>
<polygon fill="midnightblue" stroke="midnightblue" points="478.25,-138.46 487.46,-133.23 477,-131.57 478.25,-138.46"/>
</g>
<!-- Node19&#45;&gt;Node13 -->
<g id="edge35" class="edge">
<title>Node19&#45;&gt;Node13</title>
<path fill="none" stroke="midnightblue" d="M299.88,-232.25C305.58,-224.46 313.73,-213.33 320.6,-203.94"/>
<polygon fill="midnightblue" stroke="midnightblue" points="323.59,-205.78 326.68,-195.64 317.94,-201.64 323.59,-205.78"/>
</g>
<!-- Node20&#45;&gt;Node4 -->
<g id="edge39" class="edge">
<title>Node20&#45;&gt;Node4</title>
<path fill="none" stroke="midnightblue" d="M854.1,-348.26C858.92,-326.31 867.94,-271.79 849.74,-232 833.63,-196.79 819.61,-190.82 784.74,-174 709.59,-137.77 610.48,-129.64 556.3,-128.08"/>
<polygon fill="midnightblue" stroke="midnightblue" points="556.17,-124.57 546.09,-127.85 556.01,-131.57 556.17,-124.57"/>
</g>
<!-- Node21&#45;&gt;Node4 -->
<g id="edge41" class="edge">
<title>Node21&#45;&gt;Node4</title>
<path fill="none" stroke="midnightblue" d="M802.79,-232.3C796.11,-217.22 781.09,-188.39 758.74,-174 725.75,-152.76 615.73,-138.34 556.05,-131.87"/>
<polygon fill="midnightblue" stroke="midnightblue" points="556.18,-128.36 545.87,-130.79 555.45,-135.33 556.18,-128.36"/>
</g>
<!-- Node22&#45;&gt;Node4 -->
<g id="edge43" class="edge">
<title>Node22&#45;&gt;Node4</title>
<path fill="none" stroke="midnightblue" d="M700.75,-290.18C713.86,-277.24 732.99,-253.58 724.74,-232 712.36,-199.67 702.01,-192.49 672.74,-174 636.87,-151.35 589.37,-139.44 556.25,-133.47"/>
<polygon fill="midnightblue" stroke="midnightblue" points="556.48,-129.96 546.03,-131.73 555.3,-136.86 556.48,-129.96"/>
</g>
<!-- Node22&#45;&gt;Node16 -->
<g id="edge48" class="edge">
<title>Node22&#45;&gt;Node16</title>
<path fill="none" stroke="midnightblue" d="M666.51,-294.01C626.73,-283.74 545.64,-262.81 502.03,-251.56"/>
<polygon fill="midnightblue" stroke="midnightblue" points="502.87,-248.16 492.31,-249.05 501.12,-254.94 502.87,-248.16"/>
</g>
<!-- Node22&#45;&gt;Node21 -->
<g id="edge47" class="edge">
<title>Node22&#45;&gt;Node21</title>
<path fill="none" stroke="midnightblue" d="M709.85,-290.37C728.55,-281.42 756.61,-267.99 777.73,-257.88"/>
<polygon fill="midnightblue" stroke="midnightblue" points="779.38,-260.98 786.89,-253.5 776.35,-254.66 779.38,-260.98"/>
</g>
<!-- Node22&#45;&gt;Node23 -->
<g id="edge44" class="edge">
<title>Node22&#45;&gt;Node23</title>
<path fill="none" stroke="midnightblue" d="M689.74,-290.25C689.74,-282.94 689.74,-272.69 689.74,-263.7"/>
<polygon fill="midnightblue" stroke="midnightblue" points="693.24,-263.64 689.74,-253.64 686.24,-263.64 693.24,-263.64"/>
</g>
<!-- Node23&#45;&gt;Node4 -->
<g id="edge45" class="edge">
<title>Node23&#45;&gt;Node4</title>
<path fill="none" stroke="midnightblue" d="M686.32,-232.2C680.72,-217.51 668.22,-189.81 648.74,-174 621.88,-152.21 584.03,-140.42 555.73,-134.26"/>
<polygon fill="midnightblue" stroke="midnightblue" points="556.28,-130.8 545.78,-132.23 554.88,-137.66 556.28,-130.8"/>
</g>
<!-- Node23&#45;&gt;Node14 -->
<g id="edge46" class="edge">
<title>Node23&#45;&gt;Node14</title>
<path fill="none" stroke="midnightblue" d="M663.08,-239.15C581.93,-230.46 336.62,-204.19 224.17,-192.15"/>
<polygon fill="midnightblue" stroke="midnightblue" points="224.35,-188.65 214.04,-191.06 223.61,-195.61 224.35,-188.65"/>
</g>
<!-- Node24&#45;&gt;Node4 -->
<g id="edge50" class="edge">
<title>Node24&#45;&gt;Node4</title>
<path fill="none" stroke="midnightblue" d="M552.12,-290.18C559.08,-281.36 568.52,-267.72 572.74,-254 583.2,-220.01 590.21,-206.02 574.74,-174 568.45,-161 556.51,-150.55 545.09,-142.91"/>
<polygon fill="midnightblue" stroke="midnightblue" points="546.9,-139.92 536.56,-137.63 543.22,-145.87 546.9,-139.92"/>
</g>
<!-- Node24&#45;&gt;Node16 -->
<g id="edge51" class="edge">
<title>Node24&#45;&gt;Node16</title>
<path fill="none" stroke="midnightblue" d="M531.37,-290.25C520.78,-281.89 505.33,-269.71 492.95,-259.94"/>
<polygon fill="midnightblue" stroke="midnightblue" points="494.98,-257.09 484.96,-253.64 490.65,-262.58 494.98,-257.09"/>
</g>
<!-- Node25&#45;&gt;Node4 -->
<g id="edge55" class="edge">
<title>Node25&#45;&gt;Node4</title>
<path fill="none" stroke="midnightblue" d="M227.02,-232.32C237.34,-217.27 259.4,-188.47 285.74,-174 347.01,-140.35 429.46,-131.13 477.48,-128.71"/>
<polygon fill="midnightblue" stroke="midnightblue" points="477.63,-132.21 487.47,-128.29 477.33,-125.22 477.63,-132.21"/>
</g>
<!-- Node25&#45;&gt;Node13 -->
<g id="edge54" class="edge">
<title>Node25&#45;&gt;Node13</title>
<path fill="none" stroke="midnightblue" d="M240.16,-232.37C258.14,-223.46 285.08,-210.11 305.45,-200.02"/>
<polygon fill="midnightblue" stroke="midnightblue" points="307.16,-203.08 314.56,-195.5 304.05,-196.81 307.16,-203.08"/>
</g>
<!-- Node25&#45;&gt;Node14 -->
<g id="edge56" class="edge">
<title>Node25&#45;&gt;Node14</title>
<path fill="none" stroke="midnightblue" d="M211.33,-232.25C203.59,-224.22 192.42,-212.64 183.2,-203.08"/>
<polygon fill="midnightblue" stroke="midnightblue" points="185.5,-200.41 176.03,-195.64 180.46,-205.27 185.5,-200.41"/>
</g>
</g>
</svg>
