<?xml version="1.0" encoding="UTF-8" standalone="no"?>
<!DOCTYPE svg PUBLIC "-//W3C//DTD SVG 1.1//EN"
 "http://www.w3.org/Graphics/SVG/1.1/DTD/svg11.dtd">
<!-- Generated by graphviz version 2.44.0 ()
 -->
<!-- Title: eqtb_save.c Pages: 1 -->
<svg width="529pt" height="378pt"
 viewBox="0.00 0.00 528.73 378.00" xmlns="http://www.w3.org/2000/svg" xmlns:xlink="http://www.w3.org/1999/xlink">
<g id="graph0" class="graph" transform="scale(1 1) rotate(0) translate(4 374)">
<title>eqtb_save.c</title>
<polygon fill="white" stroke="transparent" points="-4,4 -4,-374 524.73,-374 524.73,4 -4,4"/>
<!-- Node1 -->
<g id="node1" class="node">
<title>Node1</title>
<g id="a_node1"><a xlink:title=" ">
<polygon fill="#bfbfbf" stroke="black" points="212.33,-348.5 212.33,-369.5 293.33,-369.5 293.33,-348.5 212.33,-348.5"/>
<text text-anchor="middle" x="252.83" y="-355.9" font-family="DejaVuSans" font-size="12.00">eqtb_save.c</text>
</a>
</g>
</g>
<!-- Node2 -->
<g id="node2" class="node">
<title>Node2</title>
<g id="a_node2"><a xlink:href="lexer_8h.html" target="_top" xlink:title=" ">
<polygon fill="white" stroke="black" points="276.83,-232.5 276.83,-253.5 328.83,-253.5 328.83,-232.5 276.83,-232.5"/>
<text text-anchor="middle" x="302.83" y="-239.9" font-family="DejaVuSans" font-size="12.00">lexer.h</text>
</a>
</g>
</g>
<!-- Node1&#45;&gt;Node2 -->
<g id="edge1" class="edge">
<title>Node1&#45;&gt;Node2</title>
<path fill="none" stroke="midnightblue" d="M257.09,-348.28C265.36,-329.43 283.7,-287.62 294.47,-263.05"/>
<polygon fill="midnightblue" stroke="midnightblue" points="297.77,-264.26 298.58,-253.69 291.36,-261.45 297.77,-264.26"/>
</g>
<!-- Node12 -->
<g id="node12" class="node">
<title>Node12</title>
<g id="a_node12"><a xlink:href="error_8h.html" target="_top" xlink:title=" ">
<polygon fill="white" stroke="black" points="417.33,-290.5 417.33,-311.5 468.33,-311.5 468.33,-290.5 417.33,-290.5"/>
<text text-anchor="middle" x="442.83" y="-297.9" font-family="DejaVuSans" font-size="12.00">error.h</text>
</a>
</g>
</g>
<!-- Node1&#45;&gt;Node12 -->
<g id="edge11" class="edge">
<title>Node1&#45;&gt;Node12</title>
<path fill="none" stroke="midnightblue" d="M285.49,-348.37C319.49,-338.35 372.54,-322.72 407.49,-312.41"/>
<polygon fill="midnightblue" stroke="midnightblue" points="408.68,-315.72 417.28,-309.53 406.7,-309 408.68,-315.72"/>
</g>
<!-- Node15 -->
<g id="node15" class="node">
<title>Node15</title>
<g id="a_node15"><a xlink:href="mem_8h.html" target="_top" xlink:title=" ">
<polygon fill="white" stroke="black" points="99.33,-232.5 99.33,-253.5 152.33,-253.5 152.33,-232.5 99.33,-232.5"/>
<text text-anchor="middle" x="125.83" y="-239.9" font-family="DejaVuSans" font-size="12.00">mem.h</text>
</a>
</g>
</g>
<!-- Node1&#45;&gt;Node15 -->
<g id="edge19" class="edge">
<title>Node1&#45;&gt;Node15</title>
<path fill="none" stroke="midnightblue" d="M242,-348.28C220.26,-328.76 171.07,-284.61 144.2,-260.49"/>
<polygon fill="midnightblue" stroke="midnightblue" points="146.41,-257.77 136.63,-253.69 141.73,-262.98 146.41,-257.77"/>
</g>
<!-- Node16 -->
<g id="node16" class="node">
<title>Node16</title>
<g id="a_node16"><a xlink:href="print_8h.html" target="_top" xlink:title=" ">
<polygon fill="white" stroke="black" points="331.83,-290.5 331.83,-311.5 381.83,-311.5 381.83,-290.5 331.83,-290.5"/>
<text text-anchor="middle" x="356.83" y="-297.9" font-family="DejaVuSans" font-size="12.00">print.h</text>
</a>
</g>
</g>
<!-- Node1&#45;&gt;Node16 -->
<g id="edge22" class="edge">
<title>Node1&#45;&gt;Node16</title>
<path fill="none" stroke="midnightblue" d="M270.95,-348.25C287.28,-339.45 311.5,-326.41 330.06,-316.41"/>
<polygon fill="midnightblue" stroke="midnightblue" points="331.78,-319.47 338.92,-311.64 328.46,-313.3 331.78,-319.47"/>
</g>
<!-- Node17 -->
<g id="node17" class="node">
<title>Node17</title>
<g id="a_node17"><a xlink:href="eqtb_8h.html" target="_top" xlink:title=" ">
<polygon fill="white" stroke="black" points="170.83,-232.5 170.83,-253.5 220.83,-253.5 220.83,-232.5 170.83,-232.5"/>
<text text-anchor="middle" x="195.83" y="-239.9" font-family="DejaVuSans" font-size="12.00">eqtb.h</text>
</a>
</g>
</g>
<!-- Node1&#45;&gt;Node17 -->
<g id="edge37" class="edge">
<title>Node1&#45;&gt;Node17</title>
<path fill="none" stroke="midnightblue" d="M247.97,-348.28C238.51,-329.35 217.46,-287.25 205.19,-262.72"/>
<polygon fill="midnightblue" stroke="midnightblue" points="208.28,-261.07 200.68,-253.69 202.02,-264.2 208.28,-261.07"/>
</g>
<!-- Node18 -->
<g id="node18" class="node">
<title>Node18</title>
<g id="a_node18"><a xlink:href="box_8h.html" target="_top" xlink:title=" ">
<polygon fill="white" stroke="black" points="102.83,-290.5 102.83,-311.5 148.83,-311.5 148.83,-290.5 102.83,-290.5"/>
<text text-anchor="middle" x="125.83" y="-297.9" font-family="DejaVuSans" font-size="12.00">box.h</text>
</a>
</g>
</g>
<!-- Node1&#45;&gt;Node18 -->
<g id="edge31" class="edge">
<title>Node1&#45;&gt;Node18</title>
<path fill="none" stroke="midnightblue" d="M231,-348.37C210.52,-339.34 179.69,-325.75 156.7,-315.61"/>
<polygon fill="midnightblue" stroke="midnightblue" points="157.94,-312.33 147.38,-311.5 155.12,-318.74 157.94,-312.33"/>
</g>
<!-- Node3 -->
<g id="node3" class="node">
<title>Node3</title>
<g id="a_node3"><a xlink:title=" ">
<polygon fill="white" stroke="#bfbfbf" points="330.83,-174.5 330.83,-195.5 382.83,-195.5 382.83,-174.5 330.83,-174.5"/>
<text text-anchor="middle" x="356.83" y="-181.9" font-family="DejaVuSans" font-size="12.00">stdio.h</text>
</a>
</g>
</g>
<!-- Node2&#45;&gt;Node3 -->
<g id="edge2" class="edge">
<title>Node2&#45;&gt;Node3</title>
<path fill="none" stroke="midnightblue" d="M312.24,-232.25C319.98,-224.22 331.14,-212.64 340.36,-203.08"/>
<polygon fill="midnightblue" stroke="midnightblue" points="343.11,-205.27 347.53,-195.64 338.07,-200.41 343.11,-205.27"/>
</g>
<!-- Node4 -->
<g id="node4" class="node">
<title>Node4</title>
<g id="a_node4"><a xlink:href="global_8h.html" target="_top" xlink:title=" ">
<polygon fill="white" stroke="black" points="286.83,-116.5 286.83,-137.5 344.83,-137.5 344.83,-116.5 286.83,-116.5"/>
<text text-anchor="middle" x="315.83" y="-123.9" font-family="DejaVuSans" font-size="12.00">global.h</text>
</a>
</g>
</g>
<!-- Node2&#45;&gt;Node4 -->
<g id="edge3" class="edge">
<title>Node2&#45;&gt;Node4</title>
<path fill="none" stroke="midnightblue" d="M303.94,-232.28C306.07,-213.6 310.77,-172.37 313.58,-147.72"/>
<polygon fill="midnightblue" stroke="midnightblue" points="317.07,-148.03 314.73,-137.69 310.11,-147.23 317.07,-148.03"/>
</g>
<!-- Node11 -->
<g id="node11" class="node">
<title>Node11</title>
<g id="a_node11"><a xlink:href="tex__constant_8h.html" target="_top" xlink:title=" ">
<polygon fill="white" stroke="black" points="180.83,-174.5 180.83,-195.5 274.83,-195.5 274.83,-174.5 180.83,-174.5"/>
<text text-anchor="middle" x="227.83" y="-181.9" font-family="DejaVuSans" font-size="12.00">tex_constant.h</text>
</a>
</g>
</g>
<!-- Node2&#45;&gt;Node11 -->
<g id="edge10" class="edge">
<title>Node2&#45;&gt;Node11</title>
<path fill="none" stroke="midnightblue" d="M289.77,-232.25C278.47,-223.81 261.95,-211.47 248.8,-201.66"/>
<polygon fill="midnightblue" stroke="midnightblue" points="250.85,-198.82 240.75,-195.64 246.66,-204.43 250.85,-198.82"/>
</g>
<!-- Node5 -->
<g id="node5" class="node">
<title>Node5</title>
<g id="a_node5"><a xlink:href="global__macros_8h.html" target="_top" xlink:title=" ">
<polygon fill="white" stroke="black" points="167.83,-58.5 167.83,-79.5 271.83,-79.5 271.83,-58.5 167.83,-58.5"/>
<text text-anchor="middle" x="219.83" y="-65.9" font-family="DejaVuSans" font-size="12.00">global_macros.h</text>
</a>
</g>
</g>
<!-- Node4&#45;&gt;Node5 -->
<g id="edge4" class="edge">
<title>Node4&#45;&gt;Node5</title>
<path fill="none" stroke="midnightblue" d="M299.11,-116.25C284.24,-107.57 262.28,-94.76 245.24,-84.82"/>
<polygon fill="midnightblue" stroke="midnightblue" points="246.76,-81.66 236.36,-79.64 243.24,-87.7 246.76,-81.66"/>
</g>
<!-- Node7 -->
<g id="node7" class="node">
<title>Node7</title>
<g id="a_node7"><a xlink:href="global__const_8h.html" target="_top" xlink:title=" ">
<polygon fill="white" stroke="black" points="385.33,-58.5 385.33,-79.5 478.33,-79.5 478.33,-58.5 385.33,-58.5"/>
<text text-anchor="middle" x="431.83" y="-65.9" font-family="DejaVuSans" font-size="12.00">global_const.h</text>
</a>
</g>
</g>
<!-- Node4&#45;&gt;Node7 -->
<g id="edge6" class="edge">
<title>Node4&#45;&gt;Node7</title>
<path fill="none" stroke="midnightblue" d="M335.77,-116.37C354.31,-107.42 382.13,-93.99 403.07,-83.88"/>
<polygon fill="midnightblue" stroke="midnightblue" points="404.67,-87 412.15,-79.5 401.62,-80.7 404.67,-87"/>
</g>
<!-- Node8 -->
<g id="node8" class="node">
<title>Node8</title>
<g id="a_node8"><a xlink:href="tex__types_8h.html" target="_top" xlink:title=" ">
<polygon fill="white" stroke="black" points="290.33,-58.5 290.33,-79.5 367.33,-79.5 367.33,-58.5 290.33,-58.5"/>
<text text-anchor="middle" x="328.83" y="-65.9" font-family="DejaVuSans" font-size="12.00">tex_types.h</text>
</a>
</g>
</g>
<!-- Node4&#45;&gt;Node8 -->
<g id="edge7" class="edge">
<title>Node4&#45;&gt;Node8</title>
<path fill="none" stroke="midnightblue" d="M318.1,-116.25C319.81,-108.86 322.22,-98.47 324.33,-89.41"/>
<polygon fill="midnightblue" stroke="midnightblue" points="327.74,-90.18 326.59,-79.64 320.92,-88.59 327.74,-90.18"/>
</g>
<!-- Node6 -->
<g id="node6" class="node">
<title>Node6</title>
<g id="a_node6"><a xlink:title=" ">
<polygon fill="white" stroke="#bfbfbf" points="190.33,-0.5 190.33,-21.5 249.33,-21.5 249.33,-0.5 190.33,-0.5"/>
<text text-anchor="middle" x="219.83" y="-7.9" font-family="DejaVuSans" font-size="12.00">assert.h</text>
</a>
</g>
</g>
<!-- Node5&#45;&gt;Node6 -->
<g id="edge5" class="edge">
<title>Node5&#45;&gt;Node6</title>
<path fill="none" stroke="midnightblue" d="M219.83,-58.25C219.83,-50.94 219.83,-40.69 219.83,-31.7"/>
<polygon fill="midnightblue" stroke="midnightblue" points="223.33,-31.64 219.83,-21.64 216.33,-31.64 223.33,-31.64"/>
</g>
<!-- Node9 -->
<g id="node9" class="node">
<title>Node9</title>
<g id="a_node9"><a xlink:title=" ">
<polygon fill="white" stroke="#bfbfbf" points="296.33,-0.5 296.33,-21.5 361.33,-21.5 361.33,-0.5 296.33,-0.5"/>
<text text-anchor="middle" x="328.83" y="-7.9" font-family="DejaVuSans" font-size="12.00">stdbool.h</text>
</a>
</g>
</g>
<!-- Node8&#45;&gt;Node9 -->
<g id="edge8" class="edge">
<title>Node8&#45;&gt;Node9</title>
<path fill="none" stroke="midnightblue" d="M328.83,-58.25C328.83,-50.94 328.83,-40.69 328.83,-31.7"/>
<polygon fill="midnightblue" stroke="midnightblue" points="332.33,-31.64 328.83,-21.64 325.33,-31.64 332.33,-31.64"/>
</g>
<!-- Node10 -->
<g id="node10" class="node">
<title>Node10</title>
<g id="a_node10"><a xlink:title=" ">
<polygon fill="white" stroke="#bfbfbf" points="429.33,-0.5 429.33,-21.5 484.33,-21.5 484.33,-0.5 429.33,-0.5"/>
<text text-anchor="middle" x="456.83" y="-7.9" font-family="DejaVuSans" font-size="12.00">stdint.h</text>
</a>
</g>
</g>
<!-- Node8&#45;&gt;Node10 -->
<g id="edge9" class="edge">
<title>Node8&#45;&gt;Node10</title>
<path fill="none" stroke="midnightblue" d="M350.83,-58.37C371.47,-49.34 402.55,-35.75 425.72,-25.61"/>
<polygon fill="midnightblue" stroke="midnightblue" points="427.36,-28.72 435.11,-21.5 424.55,-22.3 427.36,-28.72"/>
</g>
<!-- Node12&#45;&gt;Node4 -->
<g id="edge12" class="edge">
<title>Node12&#45;&gt;Node4</title>
<path fill="none" stroke="midnightblue" d="M457.81,-290.47C469.59,-282.21 485.51,-269.21 494.83,-254 513.73,-223.16 532.27,-202.38 509.83,-174 490.9,-150.06 405.99,-137.27 354.99,-131.63"/>
<polygon fill="midnightblue" stroke="midnightblue" points="355.27,-128.15 344.96,-130.57 354.53,-135.11 355.27,-128.15"/>
</g>
<!-- Node13 -->
<g id="node13" class="node">
<title>Node13</title>
<g id="a_node13"><a xlink:href="str_8h.html" target="_top" xlink:title=" ">
<polygon fill="white" stroke="black" points="423.33,-232.5 423.33,-253.5 462.33,-253.5 462.33,-232.5 423.33,-232.5"/>
<text text-anchor="middle" x="442.83" y="-239.9" font-family="DejaVuSans" font-size="12.00">str.h</text>
</a>
</g>
</g>
<!-- Node12&#45;&gt;Node13 -->
<g id="edge13" class="edge">
<title>Node12&#45;&gt;Node13</title>
<path fill="none" stroke="midnightblue" d="M442.83,-290.25C442.83,-282.94 442.83,-272.69 442.83,-263.7"/>
<polygon fill="midnightblue" stroke="midnightblue" points="446.33,-263.64 442.83,-253.64 439.33,-263.64 446.33,-263.64"/>
</g>
<!-- Node13&#45;&gt;Node3 -->
<g id="edge14" class="edge">
<title>Node13&#45;&gt;Node3</title>
<path fill="none" stroke="midnightblue" d="M427.85,-232.25C414.66,-223.65 395.23,-211 380.02,-201.1"/>
<polygon fill="midnightblue" stroke="midnightblue" points="381.93,-198.17 371.64,-195.64 378.11,-204.03 381.93,-198.17"/>
</g>
<!-- Node13&#45;&gt;Node4 -->
<g id="edge16" class="edge">
<title>Node13&#45;&gt;Node4</title>
<path fill="none" stroke="midnightblue" d="M454.07,-232.11C468.44,-218.25 489.88,-192.66 475.83,-174 461.29,-154.7 397.49,-140.98 354.97,-133.8"/>
<polygon fill="midnightblue" stroke="midnightblue" points="355.37,-130.31 344.93,-132.15 354.23,-137.22 355.37,-130.31"/>
</g>
<!-- Node13&#45;&gt;Node10 -->
<g id="edge15" class="edge">
<title>Node13&#45;&gt;Node10</title>
<path fill="none" stroke="midnightblue" d="M458.45,-232.48C470.08,-224.4 485.06,-211.63 491.83,-196 501.67,-173.27 534.08,-200.54 487.83,-58 484.51,-47.77 478.19,-37.72 472.12,-29.63"/>
<polygon fill="midnightblue" stroke="midnightblue" points="474.77,-27.33 465.79,-21.71 469.3,-31.71 474.77,-27.33"/>
</g>
<!-- Node14 -->
<g id="node14" class="node">
<title>Node14</title>
<g id="a_node14"><a xlink:href="charset_8h.html" target="_top" xlink:title=" ">
<polygon fill="white" stroke="black" points="401.33,-174.5 401.33,-195.5 466.33,-195.5 466.33,-174.5 401.33,-174.5"/>
<text text-anchor="middle" x="433.83" y="-181.9" font-family="DejaVuSans" font-size="12.00">charset.h</text>
</a>
</g>
</g>
<!-- Node13&#45;&gt;Node14 -->
<g id="edge17" class="edge">
<title>Node13&#45;&gt;Node14</title>
<path fill="none" stroke="midnightblue" d="M441.26,-232.25C440.09,-224.94 438.44,-214.69 437,-205.7"/>
<polygon fill="midnightblue" stroke="midnightblue" points="440.42,-204.96 435.38,-195.64 433.51,-206.07 440.42,-204.96"/>
</g>
<!-- Node14&#45;&gt;Node4 -->
<g id="edge18" class="edge">
<title>Node14&#45;&gt;Node4</title>
<path fill="none" stroke="midnightblue" d="M413.55,-174.37C394.69,-165.42 366.38,-151.99 345.09,-141.88"/>
<polygon fill="midnightblue" stroke="midnightblue" points="346.39,-138.63 335.85,-137.5 343.38,-144.95 346.39,-138.63"/>
</g>
<!-- Node15&#45;&gt;Node4 -->
<g id="edge20" class="edge">
<title>Node15&#45;&gt;Node4</title>
<path fill="none" stroke="midnightblue" d="M128.56,-232.11C133.15,-217.29 143.85,-189.42 162.83,-174 195.37,-147.57 242.82,-136.31 276.23,-131.53"/>
<polygon fill="midnightblue" stroke="midnightblue" points="277.08,-134.94 286.55,-130.19 276.18,-128 277.08,-134.94"/>
</g>
<!-- Node15&#45;&gt;Node11 -->
<g id="edge21" class="edge">
<title>Node15&#45;&gt;Node11</title>
<path fill="none" stroke="midnightblue" d="M143.6,-232.25C159.54,-223.49 183.16,-210.53 201.33,-200.55"/>
<polygon fill="midnightblue" stroke="midnightblue" points="203.19,-203.52 210.27,-195.64 199.82,-197.39 203.19,-203.52"/>
</g>
<!-- Node16&#45;&gt;Node3 -->
<g id="edge23" class="edge">
<title>Node16&#45;&gt;Node3</title>
<path fill="none" stroke="midnightblue" d="M356.83,-290.28C356.83,-271.6 356.83,-230.37 356.83,-205.72"/>
<polygon fill="midnightblue" stroke="midnightblue" points="360.33,-205.69 356.83,-195.69 353.33,-205.7 360.33,-205.69"/>
</g>
<!-- Node16&#45;&gt;Node4 -->
<g id="edge24" class="edge">
<title>Node16&#45;&gt;Node4</title>
<path fill="none" stroke="midnightblue" d="M382.24,-296.15C408.13,-290.94 447.8,-279.22 471.83,-254 497.11,-227.46 514.23,-203.01 491.83,-174 475.28,-152.56 401.89,-139.2 355.27,-132.72"/>
<polygon fill="midnightblue" stroke="midnightblue" points="355.56,-129.23 345.18,-131.36 354.63,-136.16 355.56,-129.23"/>
</g>
<!-- Node16&#45;&gt;Node11 -->
<g id="edge26" class="edge">
<title>Node16&#45;&gt;Node11</title>
<path fill="none" stroke="midnightblue" d="M331.47,-291.33C312.27,-283.79 286.14,-271.34 267.83,-254 253.28,-240.23 242.3,-220 235.56,-205.18"/>
<polygon fill="midnightblue" stroke="midnightblue" points="238.75,-203.74 231.58,-195.94 232.32,-206.51 238.75,-203.74"/>
</g>
<!-- Node16&#45;&gt;Node13 -->
<g id="edge30" class="edge">
<title>Node16&#45;&gt;Node13</title>
<path fill="none" stroke="midnightblue" d="M371.81,-290.25C385.01,-281.65 404.44,-269 419.64,-259.1"/>
<polygon fill="midnightblue" stroke="midnightblue" points="421.55,-262.03 428.02,-253.64 417.73,-256.17 421.55,-262.03"/>
</g>
<!-- Node16&#45;&gt;Node14 -->
<g id="edge25" class="edge">
<title>Node16&#45;&gt;Node14</title>
<path fill="none" stroke="midnightblue" d="M363.4,-290.28C376.3,-271.18 405.12,-228.5 421.62,-204.08"/>
<polygon fill="midnightblue" stroke="midnightblue" points="424.59,-205.94 427.28,-195.69 418.78,-202.02 424.59,-205.94"/>
</g>
<!-- Node16&#45;&gt;Node17 -->
<g id="edge27" class="edge">
<title>Node16&#45;&gt;Node17</title>
<path fill="none" stroke="midnightblue" d="M331.67,-291.25C304.58,-281.83 261.27,-266.76 230.85,-256.18"/>
<polygon fill="midnightblue" stroke="midnightblue" points="231.67,-252.76 221.08,-252.78 229.37,-259.37 231.67,-252.76"/>
</g>
<!-- Node17&#45;&gt;Node4 -->
<g id="edge28" class="edge">
<title>Node17&#45;&gt;Node4</title>
<path fill="none" stroke="midnightblue" d="M187.23,-232.39C175.8,-218.42 158.54,-192.2 171.83,-174 195.61,-141.44 242.7,-131.4 276.56,-128.57"/>
<polygon fill="midnightblue" stroke="midnightblue" points="276.86,-132.05 286.61,-127.9 276.4,-125.07 276.86,-132.05"/>
</g>
<!-- Node17&#45;&gt;Node11 -->
<g id="edge29" class="edge">
<title>Node17&#45;&gt;Node11</title>
<path fill="none" stroke="midnightblue" d="M201.4,-232.25C205.76,-224.62 211.95,-213.79 217.24,-204.53"/>
<polygon fill="midnightblue" stroke="midnightblue" points="220.4,-206.06 222.32,-195.64 214.32,-202.59 220.4,-206.06"/>
</g>
<!-- Node18&#45;&gt;Node4 -->
<g id="edge32" class="edge">
<title>Node18&#45;&gt;Node4</title>
<path fill="none" stroke="midnightblue" d="M104.75,-290.4C61.82,-269.59 -28.58,-218.62 9.83,-174 43.78,-134.56 201.58,-128.47 276.34,-127.84"/>
<polygon fill="midnightblue" stroke="midnightblue" points="276.76,-131.34 286.75,-127.78 276.73,-124.34 276.76,-131.34"/>
</g>
<!-- Node18&#45;&gt;Node13 -->
<g id="edge36" class="edge">
<title>Node18&#45;&gt;Node13</title>
<path fill="none" stroke="midnightblue" d="M148.88,-295.93C205.32,-285.96 350.35,-260.34 413.13,-249.25"/>
<polygon fill="midnightblue" stroke="midnightblue" points="413.93,-252.66 423.17,-247.47 412.71,-245.77 413.93,-252.66"/>
</g>
<!-- Node18&#45;&gt;Node15 -->
<g id="edge33" class="edge">
<title>Node18&#45;&gt;Node15</title>
<path fill="none" stroke="midnightblue" d="M125.83,-290.25C125.83,-282.94 125.83,-272.69 125.83,-263.7"/>
<polygon fill="midnightblue" stroke="midnightblue" points="129.33,-263.64 125.83,-253.64 122.33,-263.64 129.33,-263.64"/>
</g>
<!-- Node19 -->
<g id="node19" class="node">
<title>Node19</title>
<g id="a_node19"><a xlink:href="texmath_8h.html" target="_top" xlink:title=" ">
<polygon fill="white" stroke="black" points="18.83,-174.5 18.83,-195.5 86.83,-195.5 86.83,-174.5 18.83,-174.5"/>
<text text-anchor="middle" x="52.83" y="-181.9" font-family="DejaVuSans" font-size="12.00">texmath.h</text>
</a>
</g>
</g>
<!-- Node18&#45;&gt;Node19 -->
<g id="edge34" class="edge">
<title>Node18&#45;&gt;Node19</title>
<path fill="none" stroke="midnightblue" d="M117.91,-290.42C110.53,-281.31 99.41,-267.09 90.83,-254 80.33,-237.98 69.82,-218.87 62.52,-205"/>
<polygon fill="midnightblue" stroke="midnightblue" points="65.53,-203.2 57.82,-195.94 59.32,-206.43 65.53,-203.2"/>
</g>
<!-- Node19&#45;&gt;Node4 -->
<g id="edge35" class="edge">
<title>Node19&#45;&gt;Node4</title>
<path fill="none" stroke="midnightblue" d="M86.94,-176.74C135.7,-166.35 225.11,-147.32 276.56,-136.36"/>
<polygon fill="midnightblue" stroke="midnightblue" points="277.58,-139.72 286.63,-134.22 276.12,-132.88 277.58,-139.72"/>
</g>
</g>
</svg>
