<?xml version="1.0" encoding="UTF-8" standalone="no"?>
<!DOCTYPE svg PUBLIC "-//W3C//DTD SVG 1.1//EN"
 "http://www.w3.org/Graphics/SVG/1.1/DTD/svg11.dtd">
<!-- Generated by graphviz version 2.44.0 ()
 -->
<!-- Title: eqtb.c Pages: 1 -->
<svg width="737pt" height="726pt"
 viewBox="0.00 0.00 736.50 726.00" xmlns="http://www.w3.org/2000/svg" xmlns:xlink="http://www.w3.org/1999/xlink">
<g id="graph0" class="graph" transform="scale(1 1) rotate(0) translate(4 722)">
<title>eqtb.c</title>
<polygon fill="white" stroke="transparent" points="-4,4 -4,-722 732.5,-722 732.5,4 -4,4"/>
<!-- Node1 -->
<g id="node1" class="node">
<title>Node1</title>
<g id="a_node1"><a xlink:title=" ">
<polygon fill="#bfbfbf" stroke="black" points="414.5,-696.5 414.5,-717.5 463.5,-717.5 463.5,-696.5 414.5,-696.5"/>
<text text-anchor="middle" x="439" y="-703.9" font-family="DejaVuSans" font-size="12.00">eqtb.c</text>
</a>
</g>
</g>
<!-- Node2 -->
<g id="node2" class="node">
<title>Node2</title>
<g id="a_node2"><a xlink:title=" ">
<polygon fill="white" stroke="#bfbfbf" points="79.5,-638.5 79.5,-659.5 128.5,-659.5 128.5,-638.5 79.5,-638.5"/>
<text text-anchor="middle" x="104" y="-645.9" font-family="DejaVuSans" font-size="12.00">time.h</text>
</a>
</g>
</g>
<!-- Node1&#45;&gt;Node2 -->
<g id="edge1" class="edge">
<title>Node1&#45;&gt;Node2</title>
<path fill="none" stroke="midnightblue" d="M414.3,-702.98C363.31,-696.58 242.85,-680.51 143,-660 141.55,-659.7 140.06,-659.38 138.57,-659.05"/>
<polygon fill="midnightblue" stroke="midnightblue" points="139.21,-655.61 128.67,-656.71 137.6,-662.42 139.21,-655.61"/>
</g>
<!-- Node3 -->
<g id="node3" class="node">
<title>Node3</title>
<g id="a_node3"><a xlink:href="print_8h.html" target="_top" xlink:title=" ">
<polygon fill="white" stroke="black" points="185,-638.5 185,-659.5 235,-659.5 235,-638.5 185,-638.5"/>
<text text-anchor="middle" x="210" y="-645.9" font-family="DejaVuSans" font-size="12.00">print.h</text>
</a>
</g>
</g>
<!-- Node1&#45;&gt;Node3 -->
<g id="edge2" class="edge">
<title>Node1&#45;&gt;Node3</title>
<path fill="none" stroke="midnightblue" d="M414.49,-700.01C373.73,-690.04 291.86,-670.02 245.02,-658.56"/>
<polygon fill="midnightblue" stroke="midnightblue" points="245.57,-655.1 235.03,-656.12 243.91,-661.89 245.57,-655.1"/>
</g>
<!-- Node9 -->
<g id="node9" class="node">
<title>Node9</title>
<g id="a_node9"><a xlink:href="box_8h.html" target="_top" xlink:title=" ">
<polygon fill="white" stroke="black" points="347,-174.5 347,-195.5 393,-195.5 393,-174.5 347,-174.5"/>
<text text-anchor="middle" x="370" y="-181.9" font-family="DejaVuSans" font-size="12.00">box.h</text>
</a>
</g>
</g>
<!-- Node1&#45;&gt;Node9 -->
<g id="edge43" class="edge">
<title>Node1&#45;&gt;Node9</title>
<path fill="none" stroke="midnightblue" d="M451.13,-696.36C460.99,-687.85 474.46,-674.56 482,-660 546.13,-536.18 562.91,-478.95 515,-348 491.19,-282.92 426.95,-227.87 392.52,-201.93"/>
<polygon fill="midnightblue" stroke="midnightblue" points="394.18,-198.8 384.06,-195.69 390.03,-204.44 394.18,-198.8"/>
</g>
<!-- Node16 -->
<g id="node16" class="node">
<title>Node16</title>
<g id="a_node16"><a xlink:href="global_8h.html" target="_top" xlink:title=" ">
<polygon fill="white" stroke="black" points="323,-464.5 323,-485.5 381,-485.5 381,-464.5 323,-464.5"/>
<text text-anchor="middle" x="352" y="-471.9" font-family="DejaVuSans" font-size="12.00">global.h</text>
</a>
</g>
</g>
<!-- Node1&#45;&gt;Node16 -->
<g id="edge28" class="edge">
<title>Node1&#45;&gt;Node16</title>
<path fill="none" stroke="midnightblue" d="M435.37,-696.41C422.25,-661.71 377.05,-542.24 359.27,-495.22"/>
<polygon fill="midnightblue" stroke="midnightblue" points="362.45,-493.75 355.64,-485.63 355.91,-496.22 362.45,-493.75"/>
</g>
<!-- Node20 -->
<g id="node20" class="node">
<title>Node20</title>
<g id="a_node20"><a xlink:href="hash_8h.html" target="_top" xlink:title=" ">
<polygon fill="white" stroke="black" points="382.5,-348.5 382.5,-369.5 435.5,-369.5 435.5,-348.5 382.5,-348.5"/>
<text text-anchor="middle" x="409" y="-355.9" font-family="DejaVuSans" font-size="12.00">hash.h</text>
</a>
</g>
</g>
<!-- Node1&#45;&gt;Node20 -->
<g id="edge29" class="edge">
<title>Node1&#45;&gt;Node20</title>
<path fill="none" stroke="midnightblue" d="M445.2,-696.38C456.88,-677.29 481,-632.92 481,-592 481,-592 481,-592 481,-474 481,-442.62 478.78,-432.52 462,-406 454.47,-394.1 442.93,-383.56 432.54,-375.59"/>
<polygon fill="midnightblue" stroke="midnightblue" points="434.34,-372.57 424.19,-369.52 430.22,-378.23 434.34,-372.57"/>
</g>
<!-- Node22 -->
<g id="node22" class="node">
<title>Node22</title>
<g id="a_node22"><a xlink:href="eqtb_8h.html" target="_top" xlink:title=" ">
<polygon fill="white" stroke="black" points="264,-290.5 264,-311.5 314,-311.5 314,-290.5 264,-290.5"/>
<text text-anchor="middle" x="289" y="-297.9" font-family="DejaVuSans" font-size="12.00">eqtb.h</text>
</a>
</g>
</g>
<!-- Node1&#45;&gt;Node22 -->
<g id="edge45" class="edge">
<title>Node1&#45;&gt;Node22</title>
<path fill="none" stroke="midnightblue" d="M431.45,-696.16C409.09,-666.41 342.93,-574.06 314,-486 295.11,-428.49 290.48,-356.35 289.35,-321.99"/>
<polygon fill="midnightblue" stroke="midnightblue" points="292.85,-321.76 289.09,-311.86 285.85,-321.94 292.85,-321.76"/>
</g>
<!-- Node23 -->
<g id="node23" class="node">
<title>Node23</title>
<g id="a_node23"><a xlink:href="printout_8h.html" target="_top" xlink:title=" ">
<polygon fill="white" stroke="black" points="593,-638.5 593,-659.5 659,-659.5 659,-638.5 593,-638.5"/>
<text text-anchor="middle" x="626" y="-645.9" font-family="DejaVuSans" font-size="12.00">printout.h</text>
</a>
</g>
</g>
<!-- Node1&#45;&gt;Node23 -->
<g id="edge38" class="edge">
<title>Node1&#45;&gt;Node23</title>
<path fill="none" stroke="midnightblue" d="M463.83,-698.56C494.53,-689.37 547.23,-673.59 584.2,-662.52"/>
<polygon fill="midnightblue" stroke="midnightblue" points="585.6,-665.75 594.18,-659.53 583.59,-659.05 585.6,-665.75"/>
</g>
<!-- Node24 -->
<g id="node24" class="node">
<title>Node24</title>
<g id="a_node24"><a xlink:href="texfunc_8h.html" target="_top" xlink:title=" ">
<polygon fill="white" stroke="black" points="555.5,-522.5 555.5,-543.5 620.5,-543.5 620.5,-522.5 555.5,-522.5"/>
<text text-anchor="middle" x="588" y="-529.9" font-family="DejaVuSans" font-size="12.00">texfunc.h</text>
</a>
</g>
</g>
<!-- Node1&#45;&gt;Node24 -->
<g id="edge39" class="edge">
<title>Node1&#45;&gt;Node24</title>
<path fill="none" stroke="midnightblue" d="M463.62,-700.68C486.52,-694.53 520.16,-682.27 541,-660 569.33,-629.72 580.97,-580.8 585.45,-553.68"/>
<polygon fill="midnightblue" stroke="midnightblue" points="588.95,-553.92 586.95,-543.52 582.03,-552.89 588.95,-553.92"/>
</g>
<!-- Node25 -->
<g id="node25" class="node">
<title>Node25</title>
<g id="a_node25"><a xlink:href="texmath_8h.html" target="_top" xlink:title=" ">
<polygon fill="white" stroke="black" points="0,-580.5 0,-601.5 68,-601.5 68,-580.5 0,-580.5"/>
<text text-anchor="middle" x="34" y="-587.9" font-family="DejaVuSans" font-size="12.00">texmath.h</text>
</a>
</g>
</g>
<!-- Node1&#45;&gt;Node25 -->
<g id="edge41" class="edge">
<title>Node1&#45;&gt;Node25</title>
<path fill="none" stroke="midnightblue" d="M414.36,-704.49C366.94,-700.97 260.24,-690.12 176,-660 157.26,-653.3 154.77,-646.96 137,-638 113.75,-626.28 86.87,-614.33 66.4,-605.55"/>
<polygon fill="midnightblue" stroke="midnightblue" points="67.77,-602.32 57.2,-601.62 65.03,-608.76 67.77,-602.32"/>
</g>
<!-- Node26 -->
<g id="node26" class="node">
<title>Node26</title>
<g id="a_node26"><a xlink:href="error_8h.html" target="_top" xlink:title=" ">
<polygon fill="white" stroke="black" points="677.5,-638.5 677.5,-659.5 728.5,-659.5 728.5,-638.5 677.5,-638.5"/>
<text text-anchor="middle" x="703" y="-645.9" font-family="DejaVuSans" font-size="12.00">error.h</text>
</a>
</g>
</g>
<!-- Node1&#45;&gt;Node26 -->
<g id="edge44" class="edge">
<title>Node1&#45;&gt;Node26</title>
<path fill="none" stroke="midnightblue" d="M463.54,-701.74C503.97,-694.57 587.27,-679.21 667.66,-659.93"/>
<polygon fill="midnightblue" stroke="midnightblue" points="668.55,-663.31 677.45,-657.56 666.91,-656.51 668.55,-663.31"/>
</g>
<!-- Node4 -->
<g id="node4" class="node">
<title>Node4</title>
<g id="a_node4"><a xlink:href="tex__types_8h.html" target="_top" xlink:title=" ">
<polygon fill="white" stroke="black" points="189.5,-58.5 189.5,-79.5 266.5,-79.5 266.5,-58.5 189.5,-58.5"/>
<text text-anchor="middle" x="228" y="-65.9" font-family="DejaVuSans" font-size="12.00">tex_types.h</text>
</a>
</g>
</g>
<!-- Node3&#45;&gt;Node4 -->
<g id="edge3" class="edge">
<title>Node3&#45;&gt;Node4</title>
<path fill="none" stroke="midnightblue" d="M188.29,-638.37C155.21,-622.06 96,-585.64 96,-534 96,-534 96,-534 96,-184 96,-133.47 152.08,-100.38 191.13,-83.46"/>
<polygon fill="midnightblue" stroke="midnightblue" points="192.76,-86.58 200.65,-79.51 190.07,-80.11 192.76,-86.58"/>
</g>
<!-- Node7 -->
<g id="node7" class="node">
<title>Node7</title>
<g id="a_node7"><a xlink:href="tex_8h.html" target="_top" xlink:title=" ">
<polygon fill="white" stroke="black" points="340,-290.5 340,-311.5 382,-311.5 382,-290.5 340,-290.5"/>
<text text-anchor="middle" x="361" y="-297.9" font-family="DejaVuSans" font-size="12.00">tex.h</text>
</a>
</g>
</g>
<!-- Node3&#45;&gt;Node7 -->
<g id="edge6" class="edge">
<title>Node3&#45;&gt;Node7</title>
<path fill="none" stroke="midnightblue" d="M205.56,-638.48C196.99,-619.2 179,-574 179,-534 179,-534 179,-534 179,-474 179,-391.7 278.52,-337.07 330.37,-314.18"/>
<polygon fill="midnightblue" stroke="midnightblue" points="331.95,-317.31 339.77,-310.16 329.2,-310.88 331.95,-317.31"/>
</g>
<!-- Node10 -->
<g id="node10" class="node">
<title>Node10</title>
<g id="a_node10"><a xlink:href="str_8h.html" target="_top" xlink:title=" ">
<polygon fill="white" stroke="black" points="350.5,-116.5 350.5,-137.5 389.5,-137.5 389.5,-116.5 350.5,-116.5"/>
<text text-anchor="middle" x="370" y="-123.9" font-family="DejaVuSans" font-size="12.00">str.h</text>
</a>
</g>
</g>
<!-- Node3&#45;&gt;Node10 -->
<g id="edge27" class="edge">
<title>Node3&#45;&gt;Node10</title>
<path fill="none" stroke="midnightblue" d="M198.91,-638.23C179.41,-619.9 141,-578.19 141,-534 141,-534 141,-534 141,-474 141,-322.26 198.91,-283.47 304,-174 315.6,-161.92 330.81,-151.06 343.7,-142.94"/>
<polygon fill="midnightblue" stroke="midnightblue" points="345.88,-145.71 352.6,-137.52 342.24,-139.73 345.88,-145.71"/>
</g>
<!-- Node14 -->
<g id="node14" class="node">
<title>Node14</title>
<g id="a_node14"><a xlink:href="texmac_8h.html" target="_top" xlink:title=" ">
<polygon fill="white" stroke="black" points="207.5,-580.5 207.5,-601.5 272.5,-601.5 272.5,-580.5 207.5,-580.5"/>
<text text-anchor="middle" x="240" y="-587.9" font-family="DejaVuSans" font-size="12.00">texmac.h</text>
</a>
</g>
</g>
<!-- Node3&#45;&gt;Node14 -->
<g id="edge17" class="edge">
<title>Node3&#45;&gt;Node14</title>
<path fill="none" stroke="midnightblue" d="M215.23,-638.25C219.31,-630.62 225.11,-619.79 230.07,-610.53"/>
<polygon fill="midnightblue" stroke="midnightblue" points="233.2,-612.11 234.83,-601.64 227.03,-608.8 233.2,-612.11"/>
</g>
<!-- Node5 -->
<g id="node5" class="node">
<title>Node5</title>
<g id="a_node5"><a xlink:title=" ">
<polygon fill="white" stroke="#bfbfbf" points="194.5,-0.5 194.5,-21.5 259.5,-21.5 259.5,-0.5 194.5,-0.5"/>
<text text-anchor="middle" x="227" y="-7.9" font-family="DejaVuSans" font-size="12.00">stdbool.h</text>
</a>
</g>
</g>
<!-- Node4&#45;&gt;Node5 -->
<g id="edge4" class="edge">
<title>Node4&#45;&gt;Node5</title>
<path fill="none" stroke="midnightblue" d="M227.83,-58.25C227.7,-50.94 227.51,-40.69 227.35,-31.7"/>
<polygon fill="midnightblue" stroke="midnightblue" points="230.85,-31.58 227.17,-21.64 223.85,-31.7 230.85,-31.58"/>
</g>
<!-- Node6 -->
<g id="node6" class="node">
<title>Node6</title>
<g id="a_node6"><a xlink:title=" ">
<polygon fill="white" stroke="#bfbfbf" points="277.5,-0.5 277.5,-21.5 332.5,-21.5 332.5,-0.5 277.5,-0.5"/>
<text text-anchor="middle" x="305" y="-7.9" font-family="DejaVuSans" font-size="12.00">stdint.h</text>
</a>
</g>
</g>
<!-- Node4&#45;&gt;Node6 -->
<g id="edge5" class="edge">
<title>Node4&#45;&gt;Node6</title>
<path fill="none" stroke="midnightblue" d="M241.41,-58.25C253.01,-49.81 269.97,-37.47 283.47,-27.66"/>
<polygon fill="midnightblue" stroke="midnightblue" points="285.71,-30.36 291.74,-21.64 281.6,-24.69 285.71,-30.36"/>
</g>
<!-- Node7&#45;&gt;Node4 -->
<g id="edge7" class="edge">
<title>Node7&#45;&gt;Node4</title>
<path fill="none" stroke="midnightblue" d="M345.27,-290.45C332.83,-282.17 315.8,-269.17 305,-254 267.08,-200.73 281.51,-175.32 254,-116 249.67,-106.67 244.15,-96.69 239.31,-88.41"/>
<polygon fill="midnightblue" stroke="midnightblue" points="242.19,-86.41 234.05,-79.63 236.18,-90.01 242.19,-86.41"/>
</g>
<!-- Node8 -->
<g id="node8" class="node">
<title>Node8</title>
<g id="a_node8"><a xlink:href="tex__constant_8h.html" target="_top" xlink:title=" ">
<polygon fill="white" stroke="black" points="314,-232.5 314,-253.5 408,-253.5 408,-232.5 314,-232.5"/>
<text text-anchor="middle" x="361" y="-239.9" font-family="DejaVuSans" font-size="12.00">tex_constant.h</text>
</a>
</g>
</g>
<!-- Node7&#45;&gt;Node8 -->
<g id="edge8" class="edge">
<title>Node7&#45;&gt;Node8</title>
<path fill="none" stroke="midnightblue" d="M361,-290.25C361,-282.94 361,-272.69 361,-263.7"/>
<polygon fill="midnightblue" stroke="midnightblue" points="364.5,-263.64 361,-253.64 357.5,-263.64 364.5,-263.64"/>
</g>
<!-- Node8&#45;&gt;Node9 -->
<g id="edge9" class="edge">
<title>Node8&#45;&gt;Node9</title>
<path fill="none" stroke="midnightblue" d="M362.57,-232.25C363.74,-224.94 365.39,-214.69 366.83,-205.7"/>
<polygon fill="midnightblue" stroke="midnightblue" points="370.32,-206.07 368.45,-195.64 363.41,-204.96 370.32,-206.07"/>
</g>
<!-- Node9&#45;&gt;Node10 -->
<g id="edge10" class="edge">
<title>Node9&#45;&gt;Node10</title>
<path fill="none" stroke="midnightblue" d="M370,-174.25C370,-166.94 370,-156.69 370,-147.7"/>
<polygon fill="midnightblue" stroke="midnightblue" points="373.5,-147.64 370,-137.64 366.5,-147.64 373.5,-147.64"/>
</g>
<!-- Node10&#45;&gt;Node4 -->
<g id="edge16" class="edge">
<title>Node10&#45;&gt;Node4</title>
<path fill="none" stroke="midnightblue" d="M350.26,-118.21C327.45,-109.22 289.54,-94.27 261.97,-83.4"/>
<polygon fill="midnightblue" stroke="midnightblue" points="262.92,-80.01 252.33,-79.59 260.35,-86.52 262.92,-80.01"/>
</g>
<!-- Node10&#45;&gt;Node6 -->
<g id="edge12" class="edge">
<title>Node10&#45;&gt;Node6</title>
<path fill="none" stroke="midnightblue" d="M357.6,-116.31C347.47,-107.77 333.48,-94.46 325,-80 316.26,-65.09 311.09,-46.07 308.2,-31.94"/>
<polygon fill="midnightblue" stroke="midnightblue" points="311.6,-31.04 306.35,-21.83 304.71,-32.3 311.6,-31.04"/>
</g>
<!-- Node11 -->
<g id="node11" class="node">
<title>Node11</title>
<g id="a_node11"><a xlink:title=" ">
<polygon fill="white" stroke="#bfbfbf" points="448,-0.5 448,-21.5 500,-21.5 500,-0.5 448,-0.5"/>
<text text-anchor="middle" x="474" y="-7.9" font-family="DejaVuSans" font-size="12.00">stdio.h</text>
</a>
</g>
</g>
<!-- Node10&#45;&gt;Node11 -->
<g id="edge11" class="edge">
<title>Node10&#45;&gt;Node11</title>
<path fill="none" stroke="midnightblue" d="M388.21,-116.36C402.5,-108.13 422.22,-95.22 436,-80 449.15,-65.48 459.58,-45.62 466.17,-31.11"/>
<polygon fill="midnightblue" stroke="midnightblue" points="469.5,-32.22 470.26,-21.65 463.08,-29.44 469.5,-32.22"/>
</g>
<!-- Node12 -->
<g id="node12" class="node">
<title>Node12</title>
<g id="a_node12"><a xlink:href="global__const_8h.html" target="_top" xlink:title=" ">
<polygon fill="white" stroke="black" points="333.5,-58.5 333.5,-79.5 426.5,-79.5 426.5,-58.5 333.5,-58.5"/>
<text text-anchor="middle" x="380" y="-65.9" font-family="DejaVuSans" font-size="12.00">global_const.h</text>
</a>
</g>
</g>
<!-- Node10&#45;&gt;Node12 -->
<g id="edge13" class="edge">
<title>Node10&#45;&gt;Node12</title>
<path fill="none" stroke="midnightblue" d="M371.74,-116.25C373.05,-108.94 374.88,-98.69 376.48,-89.7"/>
<polygon fill="midnightblue" stroke="midnightblue" points="379.97,-90.1 378.28,-79.64 373.07,-88.87 379.97,-90.1"/>
</g>
<!-- Node12&#45;&gt;Node11 -->
<g id="edge15" class="edge">
<title>Node12&#45;&gt;Node11</title>
<path fill="none" stroke="midnightblue" d="M396.37,-58.25C410.93,-49.57 432.43,-36.76 449.12,-26.82"/>
<polygon fill="midnightblue" stroke="midnightblue" points="451.01,-29.77 457.81,-21.64 447.43,-23.75 451.01,-29.77"/>
</g>
<!-- Node13 -->
<g id="node13" class="node">
<title>Node13</title>
<g id="a_node13"><a xlink:title=" ">
<polygon fill="white" stroke="#bfbfbf" points="350.5,-0.5 350.5,-21.5 409.5,-21.5 409.5,-0.5 350.5,-0.5"/>
<text text-anchor="middle" x="380" y="-7.9" font-family="DejaVuSans" font-size="12.00">assert.h</text>
</a>
</g>
</g>
<!-- Node12&#45;&gt;Node13 -->
<g id="edge14" class="edge">
<title>Node12&#45;&gt;Node13</title>
<path fill="none" stroke="midnightblue" d="M380,-58.25C380,-50.94 380,-40.69 380,-31.7"/>
<polygon fill="midnightblue" stroke="midnightblue" points="383.5,-31.64 380,-21.64 376.5,-31.64 383.5,-31.64"/>
</g>
<!-- Node15 -->
<g id="node15" class="node">
<title>Node15</title>
<g id="a_node15"><a xlink:href="mem_8h.html" target="_top" xlink:title=" ">
<polygon fill="white" stroke="black" points="213.5,-522.5 213.5,-543.5 266.5,-543.5 266.5,-522.5 213.5,-522.5"/>
<text text-anchor="middle" x="240" y="-529.9" font-family="DejaVuSans" font-size="12.00">mem.h</text>
</a>
</g>
</g>
<!-- Node14&#45;&gt;Node15 -->
<g id="edge18" class="edge">
<title>Node14&#45;&gt;Node15</title>
<path fill="none" stroke="midnightblue" d="M240,-580.25C240,-572.94 240,-562.69 240,-553.7"/>
<polygon fill="midnightblue" stroke="midnightblue" points="243.5,-553.64 240,-543.64 236.5,-553.64 243.5,-553.64"/>
</g>
<!-- Node15&#45;&gt;Node4 -->
<g id="edge19" class="edge">
<title>Node15&#45;&gt;Node4</title>
<path fill="none" stroke="midnightblue" d="M233.37,-522.03C210.16,-486.16 134,-359.62 134,-244 134,-244 134,-244 134,-184 134,-140.48 175.28,-104.58 203.13,-85.31"/>
<polygon fill="midnightblue" stroke="midnightblue" points="205.24,-88.11 211.63,-79.65 201.36,-82.28 205.24,-88.11"/>
</g>
<!-- Node15&#45;&gt;Node16 -->
<g id="edge20" class="edge">
<title>Node15&#45;&gt;Node16</title>
<path fill="none" stroke="midnightblue" d="M259.25,-522.37C277.07,-513.46 303.77,-500.11 323.96,-490.02"/>
<polygon fill="midnightblue" stroke="midnightblue" points="325.62,-493.1 333,-485.5 322.49,-486.84 325.62,-493.1"/>
</g>
<!-- Node16&#45;&gt;Node10 -->
<g id="edge22" class="edge">
<title>Node16&#45;&gt;Node10</title>
<path fill="none" stroke="midnightblue" d="M340.2,-464.18C309.73,-437.57 232.29,-361.22 255,-290 274.26,-229.58 325.17,-172.39 352.34,-144.95"/>
<polygon fill="midnightblue" stroke="midnightblue" points="354.99,-147.25 359.63,-137.72 350.07,-142.28 354.99,-147.25"/>
</g>
<!-- Node17 -->
<g id="node17" class="node">
<title>Node17</title>
<g id="a_node17"><a xlink:title=" ">
<polygon fill="white" stroke="#bfbfbf" points="321,-406.5 321,-427.5 383,-427.5 383,-406.5 321,-406.5"/>
<text text-anchor="middle" x="352" y="-413.9" font-family="DejaVuSans" font-size="12.00">setjmp.h</text>
</a>
</g>
</g>
<!-- Node16&#45;&gt;Node17 -->
<g id="edge21" class="edge">
<title>Node16&#45;&gt;Node17</title>
<path fill="none" stroke="midnightblue" d="M352,-464.25C352,-456.94 352,-446.69 352,-437.7"/>
<polygon fill="midnightblue" stroke="midnightblue" points="355.5,-437.64 352,-427.64 348.5,-437.64 355.5,-437.64"/>
</g>
<!-- Node18 -->
<g id="node18" class="node">
<title>Node18</title>
<g id="a_node18"><a xlink:href="scan_8h.html" target="_top" xlink:title=" ">
<polygon fill="white" stroke="black" points="401,-406.5 401,-427.5 453,-427.5 453,-406.5 401,-406.5"/>
<text text-anchor="middle" x="427" y="-413.9" font-family="DejaVuSans" font-size="12.00">scan.h</text>
</a>
</g>
</g>
<!-- Node16&#45;&gt;Node18 -->
<g id="edge23" class="edge">
<title>Node16&#45;&gt;Node18</title>
<path fill="none" stroke="midnightblue" d="M365.06,-464.25C376.36,-455.81 392.88,-443.47 406.03,-433.66"/>
<polygon fill="midnightblue" stroke="midnightblue" points="408.17,-436.43 414.09,-427.64 403.98,-430.82 408.17,-436.43"/>
</g>
<!-- Node19 -->
<g id="node19" class="node">
<title>Node19</title>
<g id="a_node19"><a xlink:href="lexer_8h.html" target="_top" xlink:title=" ">
<polygon fill="white" stroke="black" points="454,-348.5 454,-369.5 506,-369.5 506,-348.5 454,-348.5"/>
<text text-anchor="middle" x="480" y="-355.9" font-family="DejaVuSans" font-size="12.00">lexer.h</text>
</a>
</g>
</g>
<!-- Node18&#45;&gt;Node19 -->
<g id="edge24" class="edge">
<title>Node18&#45;&gt;Node19</title>
<path fill="none" stroke="midnightblue" d="M436.23,-406.25C443.83,-398.22 454.79,-386.64 463.84,-377.08"/>
<polygon fill="midnightblue" stroke="midnightblue" points="466.54,-379.31 470.87,-369.64 461.46,-374.5 466.54,-379.31"/>
</g>
<!-- Node19&#45;&gt;Node7 -->
<g id="edge26" class="edge">
<title>Node19&#45;&gt;Node7</title>
<path fill="none" stroke="midnightblue" d="M459.54,-348.37C440.53,-339.42 411.98,-325.99 390.5,-315.88"/>
<polygon fill="midnightblue" stroke="midnightblue" points="391.73,-312.59 381.19,-311.5 388.75,-318.93 391.73,-312.59"/>
</g>
<!-- Node19&#45;&gt;Node11 -->
<g id="edge25" class="edge">
<title>Node19&#45;&gt;Node11</title>
<path fill="none" stroke="midnightblue" d="M483.12,-348.27C493.25,-315.45 523.7,-205.78 509,-116 503.99,-85.42 491.22,-51.72 482.57,-31.2"/>
<polygon fill="midnightblue" stroke="midnightblue" points="485.67,-29.55 478.49,-21.76 479.25,-32.33 485.67,-29.55"/>
</g>
<!-- Node20&#45;&gt;Node7 -->
<g id="edge30" class="edge">
<title>Node20&#45;&gt;Node7</title>
<path fill="none" stroke="midnightblue" d="M400.64,-348.25C393.82,-340.3 384.03,-328.87 375.88,-319.37"/>
<polygon fill="midnightblue" stroke="midnightblue" points="378.43,-316.96 369.27,-311.64 373.12,-321.51 378.43,-316.96"/>
</g>
<!-- Node20&#45;&gt;Node10 -->
<g id="edge31" class="edge">
<title>Node20&#45;&gt;Node10</title>
<path fill="none" stroke="midnightblue" d="M411.12,-348.22C416.78,-319.74 430.01,-235.01 402,-174 397.41,-164 390.63,-153.86 384.49,-145.65"/>
<polygon fill="midnightblue" stroke="midnightblue" points="387.12,-143.34 378.21,-137.6 381.6,-147.64 387.12,-143.34"/>
</g>
<!-- Node21 -->
<g id="node21" class="node">
<title>Node21</title>
<g id="a_node21"><a xlink:href="fonts_8h.html" target="_top" xlink:title=" ">
<polygon fill="white" stroke="black" points="448,-116.5 448,-137.5 500,-137.5 500,-116.5 448,-116.5"/>
<text text-anchor="middle" x="474" y="-123.9" font-family="DejaVuSans" font-size="12.00">fonts.h</text>
</a>
</g>
</g>
<!-- Node20&#45;&gt;Node21 -->
<g id="edge32" class="edge">
<title>Node20&#45;&gt;Node21</title>
<path fill="none" stroke="midnightblue" d="M414.35,-348.39C419.25,-339.26 426.42,-325.03 431,-312 451.42,-253.88 465.02,-182.03 470.82,-147.86"/>
<polygon fill="midnightblue" stroke="midnightblue" points="474.3,-148.22 472.48,-137.79 467.4,-147.08 474.3,-148.22"/>
</g>
<!-- Node20&#45;&gt;Node22 -->
<g id="edge35" class="edge">
<title>Node20&#45;&gt;Node22</title>
<path fill="none" stroke="midnightblue" d="M388.37,-348.37C369.11,-339.38 340.15,-325.87 318.46,-315.75"/>
<polygon fill="midnightblue" stroke="midnightblue" points="319.9,-312.56 309.36,-311.5 316.94,-318.9 319.9,-312.56"/>
</g>
<!-- Node21&#45;&gt;Node11 -->
<g id="edge33" class="edge">
<title>Node21&#45;&gt;Node11</title>
<path fill="none" stroke="midnightblue" d="M474,-116.28C474,-97.6 474,-56.37 474,-31.72"/>
<polygon fill="midnightblue" stroke="midnightblue" points="477.5,-31.69 474,-21.69 470.5,-31.7 477.5,-31.69"/>
</g>
<!-- Node21&#45;&gt;Node12 -->
<g id="edge34" class="edge">
<title>Node21&#45;&gt;Node12</title>
<path fill="none" stroke="midnightblue" d="M457.63,-116.25C443.07,-107.57 421.57,-94.76 404.88,-84.82"/>
<polygon fill="midnightblue" stroke="midnightblue" points="406.57,-81.75 396.19,-79.64 402.99,-87.77 406.57,-81.75"/>
</g>
<!-- Node22&#45;&gt;Node4 -->
<g id="edge36" class="edge">
<title>Node22&#45;&gt;Node4</title>
<path fill="none" stroke="midnightblue" d="M285.01,-290.24C281.32,-281.01 275.85,-266.71 272,-254 254.11,-194.98 238.79,-123.55 231.9,-89.66"/>
<polygon fill="midnightblue" stroke="midnightblue" points="235.29,-88.8 229.89,-79.69 228.43,-90.18 235.29,-88.8"/>
</g>
<!-- Node22&#45;&gt;Node8 -->
<g id="edge37" class="edge">
<title>Node22&#45;&gt;Node8</title>
<path fill="none" stroke="midnightblue" d="M301.54,-290.25C312.28,-281.89 327.95,-269.71 340.5,-259.94"/>
<polygon fill="midnightblue" stroke="midnightblue" points="342.86,-262.54 348.6,-253.64 338.56,-257.02 342.86,-262.54"/>
</g>
<!-- Node24&#45;&gt;Node10 -->
<g id="edge40" class="edge">
<title>Node24&#45;&gt;Node10</title>
<path fill="none" stroke="midnightblue" d="M588,-522.24C588,-502.54 588,-456.59 588,-418 588,-418 588,-418 588,-300 588,-267.95 584.87,-256.33 564,-232 519.18,-179.75 441.37,-149.53 399.2,-136.22"/>
<polygon fill="midnightblue" stroke="midnightblue" points="400.12,-132.84 389.53,-133.27 398.07,-139.53 400.12,-132.84"/>
</g>
<!-- Node25&#45;&gt;Node4 -->
<g id="edge42" class="edge">
<title>Node25&#45;&gt;Node4</title>
<path fill="none" stroke="midnightblue" d="M35.72,-580.28C39.04,-560.64 46,-514.81 46,-476 46,-476 46,-476 46,-184 46,-149.8 55.73,-137.89 82,-116 109.52,-93.08 148.52,-81.54 179.3,-75.76"/>
<polygon fill="midnightblue" stroke="midnightblue" points="180.13,-79.16 189.39,-74.01 178.94,-72.27 180.13,-79.16"/>
</g>
</g>
</svg>
