<?xml version="1.0" encoding="UTF-8" standalone="no"?>
<!DOCTYPE svg PUBLIC "-//W3C//DTD SVG 1.1//EN"
 "http://www.w3.org/Graphics/SVG/1.1/DTD/svg11.dtd">
<!-- Generated by graphviz version 2.44.0 ()
 -->
<!-- Title: eqtb_save.c Pages: 1 -->
<svg width="636pt" height="378pt"
 viewBox="0.00 0.00 636.00 378.00" xmlns="http://www.w3.org/2000/svg" xmlns:xlink="http://www.w3.org/1999/xlink">
<g id="graph0" class="graph" transform="scale(1 1) rotate(0) translate(4 374)">
<title>eqtb_save.c</title>
<polygon fill="white" stroke="transparent" points="-4,4 -4,-374 632,-374 632,4 -4,4"/>
<!-- Node1 -->
<g id="node1" class="node">
<title>Node1</title>
<g id="a_node1"><a xlink:title=" ">
<polygon fill="#bfbfbf" stroke="black" points="190.5,-348.5 190.5,-369.5 271.5,-369.5 271.5,-348.5 190.5,-348.5"/>
<text text-anchor="middle" x="231" y="-355.9" font-family="DejaVuSans" font-size="12.00">eqtb_save.c</text>
</a>
</g>
</g>
<!-- Node2 -->
<g id="node2" class="node">
<title>Node2</title>
<g id="a_node2"><a xlink:href="lexer_8h.html" target="_top" xlink:title=" ">
<polygon fill="white" stroke="black" points="178,-232.5 178,-253.5 230,-253.5 230,-232.5 178,-232.5"/>
<text text-anchor="middle" x="204" y="-239.9" font-family="DejaVuSans" font-size="12.00">lexer.h</text>
</a>
</g>
</g>
<!-- Node1&#45;&gt;Node2 -->
<g id="edge1" class="edge">
<title>Node1&#45;&gt;Node2</title>
<path fill="none" stroke="midnightblue" d="M228.7,-348.28C224.27,-329.6 214.51,-288.37 208.67,-263.72"/>
<polygon fill="midnightblue" stroke="midnightblue" points="212.01,-262.62 206.3,-253.69 205.2,-264.23 212.01,-262.62"/>
</g>
<!-- Node12 -->
<g id="node12" class="node">
<title>Node12</title>
<g id="a_node12"><a xlink:href="error_8h.html" target="_top" xlink:title=" ">
<polygon fill="white" stroke="black" points="328.5,-290.5 328.5,-311.5 379.5,-311.5 379.5,-290.5 328.5,-290.5"/>
<text text-anchor="middle" x="354" y="-297.9" font-family="DejaVuSans" font-size="12.00">error.h</text>
</a>
</g>
</g>
<!-- Node1&#45;&gt;Node12 -->
<g id="edge12" class="edge">
<title>Node1&#45;&gt;Node12</title>
<path fill="none" stroke="midnightblue" d="M252.14,-348.37C271.89,-339.38 301.57,-325.87 323.81,-315.75"/>
<polygon fill="midnightblue" stroke="midnightblue" points="325.48,-318.83 333.13,-311.5 322.58,-312.46 325.48,-318.83"/>
</g>
<!-- Node15 -->
<g id="node15" class="node">
<title>Node15</title>
<g id="a_node15"><a xlink:href="mem_8h.html" target="_top" xlink:title=" ">
<polygon fill="white" stroke="black" points="106.5,-232.5 106.5,-253.5 159.5,-253.5 159.5,-232.5 106.5,-232.5"/>
<text text-anchor="middle" x="133" y="-239.9" font-family="DejaVuSans" font-size="12.00">mem.h</text>
</a>
</g>
</g>
<!-- Node1&#45;&gt;Node15 -->
<g id="edge20" class="edge">
<title>Node1&#45;&gt;Node15</title>
<path fill="none" stroke="midnightblue" d="M222.64,-348.28C206.08,-329.01 168.89,-285.75 147.99,-261.43"/>
<polygon fill="midnightblue" stroke="midnightblue" points="150.51,-259 141.33,-253.69 145.2,-263.56 150.51,-259"/>
</g>
<!-- Node16 -->
<g id="node16" class="node">
<title>Node16</title>
<g id="a_node16"><a xlink:href="print_8h.html" target="_top" xlink:title=" ">
<polygon fill="white" stroke="black" points="233,-290.5 233,-311.5 283,-311.5 283,-290.5 233,-290.5"/>
<text text-anchor="middle" x="258" y="-297.9" font-family="DejaVuSans" font-size="12.00">print.h</text>
</a>
</g>
</g>
<!-- Node1&#45;&gt;Node16 -->
<g id="edge23" class="edge">
<title>Node1&#45;&gt;Node16</title>
<path fill="none" stroke="midnightblue" d="M235.7,-348.25C239.34,-340.7 244.49,-330.02 248.93,-320.82"/>
<polygon fill="midnightblue" stroke="midnightblue" points="252.16,-322.17 253.35,-311.64 245.86,-319.13 252.16,-322.17"/>
</g>
<!-- Node17 -->
<g id="node17" class="node">
<title>Node17</title>
<g id="a_node17"><a xlink:href="eqtb_8h.html" target="_top" xlink:title=" ">
<polygon fill="white" stroke="black" points="0,-232.5 0,-253.5 50,-253.5 50,-232.5 0,-232.5"/>
<text text-anchor="middle" x="25" y="-239.9" font-family="DejaVuSans" font-size="12.00">eqtb.h</text>
</a>
</g>
</g>
<!-- Node1&#45;&gt;Node17 -->
<g id="edge38" class="edge">
<title>Node1&#45;&gt;Node17</title>
<path fill="none" stroke="midnightblue" d="M213.79,-348.48C177.74,-328.53 94.1,-282.24 51.28,-258.54"/>
<polygon fill="midnightblue" stroke="midnightblue" points="52.75,-255.36 42.31,-253.58 49.36,-261.48 52.75,-255.36"/>
</g>
<!-- Node18 -->
<g id="node18" class="node">
<title>Node18</title>
<g id="a_node18"><a xlink:href="box_8h.html" target="_top" xlink:title=" ">
<polygon fill="white" stroke="black" points="398,-290.5 398,-311.5 444,-311.5 444,-290.5 398,-290.5"/>
<text text-anchor="middle" x="421" y="-297.9" font-family="DejaVuSans" font-size="12.00">box.h</text>
</a>
</g>
</g>
<!-- Node1&#45;&gt;Node18 -->
<g id="edge32" class="edge">
<title>Node1&#45;&gt;Node18</title>
<path fill="none" stroke="midnightblue" d="M264.35,-348.5C294.36,-339.9 339.92,-326.73 388.25,-312.19"/>
<polygon fill="midnightblue" stroke="midnightblue" points="389.38,-315.5 397.94,-309.26 387.36,-308.8 389.38,-315.5"/>
</g>
<!-- Node3 -->
<g id="node3" class="node">
<title>Node3</title>
<g id="a_node3"><a xlink:title=" ">
<polygon fill="white" stroke="#bfbfbf" points="216,-174.5 216,-195.5 268,-195.5 268,-174.5 216,-174.5"/>
<text text-anchor="middle" x="242" y="-181.9" font-family="DejaVuSans" font-size="12.00">stdio.h</text>
</a>
</g>
</g>
<!-- Node2&#45;&gt;Node3 -->
<g id="edge2" class="edge">
<title>Node2&#45;&gt;Node3</title>
<path fill="none" stroke="midnightblue" d="M210.62,-232.25C215.9,-224.46 223.45,-213.33 229.82,-203.94"/>
<polygon fill="midnightblue" stroke="midnightblue" points="232.74,-205.88 235.46,-195.64 226.95,-201.95 232.74,-205.88"/>
</g>
<!-- Node4 -->
<g id="node4" class="node">
<title>Node4</title>
<g id="a_node4"><a xlink:href="global_8h.html" target="_top" xlink:title=" ">
<polygon fill="white" stroke="black" points="303,-116.5 303,-137.5 361,-137.5 361,-116.5 303,-116.5"/>
<text text-anchor="middle" x="332" y="-123.9" font-family="DejaVuSans" font-size="12.00">global.h</text>
</a>
</g>
</g>
<!-- Node2&#45;&gt;Node4 -->
<g id="edge3" class="edge">
<title>Node2&#45;&gt;Node4</title>
<path fill="none" stroke="midnightblue" d="M201.32,-232.12C198.06,-217.81 194.45,-191.17 207,-174 226.69,-147.06 263.89,-135.88 292.61,-131.25"/>
<polygon fill="midnightblue" stroke="midnightblue" points="293.34,-134.68 302.76,-129.82 292.37,-127.74 293.34,-134.68"/>
</g>
<!-- Node11 -->
<g id="node11" class="node">
<title>Node11</title>
<g id="a_node11"><a xlink:href="tex__constant_8h.html" target="_top" xlink:title=" ">
<polygon fill="white" stroke="black" points="28,-174.5 28,-195.5 122,-195.5 122,-174.5 28,-174.5"/>
<text text-anchor="middle" x="75" y="-181.9" font-family="DejaVuSans" font-size="12.00">tex_constant.h</text>
</a>
</g>
</g>
<!-- Node2&#45;&gt;Node11 -->
<g id="edge10" class="edge">
<title>Node2&#45;&gt;Node11</title>
<path fill="none" stroke="midnightblue" d="M181.82,-232.37C161.02,-223.34 129.71,-209.75 106.35,-199.61"/>
<polygon fill="midnightblue" stroke="midnightblue" points="107.45,-196.27 96.89,-195.5 104.67,-202.69 107.45,-196.27"/>
</g>
<!-- Node5 -->
<g id="node5" class="node">
<title>Node5</title>
<g id="a_node5"><a xlink:href="global__macros_8h.html" target="_top" xlink:title=" ">
<polygon fill="white" stroke="black" points="261,-58.5 261,-79.5 365,-79.5 365,-58.5 261,-58.5"/>
<text text-anchor="middle" x="313" y="-65.9" font-family="DejaVuSans" font-size="12.00">global_macros.h</text>
</a>
</g>
</g>
<!-- Node4&#45;&gt;Node5 -->
<g id="edge4" class="edge">
<title>Node4&#45;&gt;Node5</title>
<path fill="none" stroke="midnightblue" d="M328.69,-116.25C326.16,-108.78 322.58,-98.24 319.49,-89.11"/>
<polygon fill="midnightblue" stroke="midnightblue" points="322.8,-87.99 316.27,-79.64 316.17,-90.24 322.8,-87.99"/>
</g>
<!-- Node7 -->
<g id="node7" class="node">
<title>Node7</title>
<g id="a_node7"><a xlink:href="global__const_8h.html" target="_top" xlink:title=" ">
<polygon fill="white" stroke="black" points="118.5,-58.5 118.5,-79.5 211.5,-79.5 211.5,-58.5 118.5,-58.5"/>
<text text-anchor="middle" x="165" y="-65.9" font-family="DejaVuSans" font-size="12.00">global_const.h</text>
</a>
</g>
</g>
<!-- Node4&#45;&gt;Node7 -->
<g id="edge6" class="edge">
<title>Node4&#45;&gt;Node7</title>
<path fill="none" stroke="midnightblue" d="M303.29,-116.37C275.64,-107.1 233.64,-93.02 203.18,-82.8"/>
<polygon fill="midnightblue" stroke="midnightblue" points="203.93,-79.36 193.33,-79.5 201.7,-86 203.93,-79.36"/>
</g>
<!-- Node8 -->
<g id="node8" class="node">
<title>Node8</title>
<g id="a_node8"><a xlink:href="tex__types_8h.html" target="_top" xlink:title=" ">
<polygon fill="white" stroke="black" points="383.5,-58.5 383.5,-79.5 460.5,-79.5 460.5,-58.5 383.5,-58.5"/>
<text text-anchor="middle" x="422" y="-65.9" font-family="DejaVuSans" font-size="12.00">tex_types.h</text>
</a>
</g>
</g>
<!-- Node4&#45;&gt;Node8 -->
<g id="edge7" class="edge">
<title>Node4&#45;&gt;Node8</title>
<path fill="none" stroke="midnightblue" d="M347.68,-116.25C361.49,-107.65 381.82,-95 397.73,-85.1"/>
<polygon fill="midnightblue" stroke="midnightblue" points="399.86,-87.9 406.5,-79.64 396.16,-81.95 399.86,-87.9"/>
</g>
<!-- Node6 -->
<g id="node6" class="node">
<title>Node6</title>
<g id="a_node6"><a xlink:title=" ">
<polygon fill="white" stroke="#bfbfbf" points="283.5,-0.5 283.5,-21.5 342.5,-21.5 342.5,-0.5 283.5,-0.5"/>
<text text-anchor="middle" x="313" y="-7.9" font-family="DejaVuSans" font-size="12.00">assert.h</text>
</a>
</g>
</g>
<!-- Node5&#45;&gt;Node6 -->
<g id="edge5" class="edge">
<title>Node5&#45;&gt;Node6</title>
<path fill="none" stroke="midnightblue" d="M313,-58.25C313,-50.94 313,-40.69 313,-31.7"/>
<polygon fill="midnightblue" stroke="midnightblue" points="316.5,-31.64 313,-21.64 309.5,-31.64 316.5,-31.64"/>
</g>
<!-- Node9 -->
<g id="node9" class="node">
<title>Node9</title>
<g id="a_node9"><a xlink:title=" ">
<polygon fill="white" stroke="#bfbfbf" points="383.5,-0.5 383.5,-21.5 448.5,-21.5 448.5,-0.5 383.5,-0.5"/>
<text text-anchor="middle" x="416" y="-7.9" font-family="DejaVuSans" font-size="12.00">stdbool.h</text>
</a>
</g>
</g>
<!-- Node8&#45;&gt;Node9 -->
<g id="edge8" class="edge">
<title>Node8&#45;&gt;Node9</title>
<path fill="none" stroke="midnightblue" d="M420.95,-58.25C420.17,-50.94 419.07,-40.69 418.11,-31.7"/>
<polygon fill="midnightblue" stroke="midnightblue" points="421.58,-31.21 417.03,-21.64 414.62,-31.96 421.58,-31.21"/>
</g>
<!-- Node10 -->
<g id="node10" class="node">
<title>Node10</title>
<g id="a_node10"><a xlink:title=" ">
<polygon fill="white" stroke="#bfbfbf" points="466.5,-0.5 466.5,-21.5 521.5,-21.5 521.5,-0.5 466.5,-0.5"/>
<text text-anchor="middle" x="494" y="-7.9" font-family="DejaVuSans" font-size="12.00">stdint.h</text>
</a>
</g>
</g>
<!-- Node8&#45;&gt;Node10 -->
<g id="edge9" class="edge">
<title>Node8&#45;&gt;Node10</title>
<path fill="none" stroke="midnightblue" d="M434.54,-58.25C445.28,-49.89 460.95,-37.71 473.5,-27.94"/>
<polygon fill="midnightblue" stroke="midnightblue" points="475.86,-30.54 481.6,-21.64 471.56,-25.02 475.86,-30.54"/>
</g>
<!-- Node11&#45;&gt;Node7 -->
<g id="edge11" class="edge">
<title>Node11&#45;&gt;Node7</title>
<path fill="none" stroke="midnightblue" d="M82.67,-174.28C97.82,-155.1 131.74,-112.12 150.98,-87.75"/>
<polygon fill="midnightblue" stroke="midnightblue" points="153.9,-89.71 157.35,-79.69 148.4,-85.38 153.9,-89.71"/>
</g>
<!-- Node12&#45;&gt;Node4 -->
<g id="edge13" class="edge">
<title>Node12&#45;&gt;Node4</title>
<path fill="none" stroke="midnightblue" d="M372.68,-290.49C385.92,-282.65 402.74,-270.2 411,-254 427.17,-222.31 431.98,-204.7 414,-174 404.55,-157.87 387.15,-146.96 370.8,-139.84"/>
<polygon fill="midnightblue" stroke="midnightblue" points="371.94,-136.53 361.36,-136.07 369.35,-143.03 371.94,-136.53"/>
</g>
<!-- Node13 -->
<g id="node13" class="node">
<title>Node13</title>
<g id="a_node13"><a xlink:href="str_8h.html" target="_top" xlink:title=" ">
<polygon fill="white" stroke="black" points="362.5,-232.5 362.5,-253.5 401.5,-253.5 401.5,-232.5 362.5,-232.5"/>
<text text-anchor="middle" x="382" y="-239.9" font-family="DejaVuSans" font-size="12.00">str.h</text>
</a>
</g>
</g>
<!-- Node12&#45;&gt;Node13 -->
<g id="edge14" class="edge">
<title>Node12&#45;&gt;Node13</title>
<path fill="none" stroke="midnightblue" d="M358.88,-290.25C362.65,-282.7 367.99,-272.02 372.59,-262.82"/>
<polygon fill="midnightblue" stroke="midnightblue" points="375.84,-264.15 377.18,-253.64 369.58,-261.02 375.84,-264.15"/>
</g>
<!-- Node13&#45;&gt;Node3 -->
<g id="edge15" class="edge">
<title>Node13&#45;&gt;Node3</title>
<path fill="none" stroke="midnightblue" d="M362.24,-234.1C339.68,-225.07 302.42,-210.17 275.35,-199.34"/>
<polygon fill="midnightblue" stroke="midnightblue" points="276.46,-196.02 265.88,-195.55 273.86,-202.51 276.46,-196.02"/>
</g>
<!-- Node13&#45;&gt;Node4 -->
<g id="edge17" class="edge">
<title>Node13&#45;&gt;Node4</title>
<path fill="none" stroke="midnightblue" d="M388.58,-232.25C396.93,-218.56 409.09,-193.17 399,-174 391.81,-160.34 378.52,-149.95 365.66,-142.53"/>
<polygon fill="midnightblue" stroke="midnightblue" points="366.95,-139.25 356.47,-137.65 363.66,-145.43 366.95,-139.25"/>
</g>
<!-- Node13&#45;&gt;Node10 -->
<g id="edge16" class="edge">
<title>Node13&#45;&gt;Node10</title>
<path fill="none" stroke="midnightblue" d="M389.33,-232.42C396.14,-223.32 406.34,-209.1 414,-196 442.88,-146.57 448,-132.85 470,-80 476.68,-63.95 483.18,-45.3 487.72,-31.6"/>
<polygon fill="midnightblue" stroke="midnightblue" points="491.14,-32.4 490.91,-21.81 484.49,-30.23 491.14,-32.4"/>
</g>
<!-- Node14 -->
<g id="node14" class="node">
<title>Node14</title>
<g id="a_node14"><a xlink:href="charset_8h.html" target="_top" xlink:title=" ">
<polygon fill="white" stroke="black" points="324.5,-174.5 324.5,-195.5 389.5,-195.5 389.5,-174.5 324.5,-174.5"/>
<text text-anchor="middle" x="357" y="-181.9" font-family="DejaVuSans" font-size="12.00">charset.h</text>
</a>
</g>
</g>
<!-- Node13&#45;&gt;Node14 -->
<g id="edge18" class="edge">
<title>Node13&#45;&gt;Node14</title>
<path fill="none" stroke="midnightblue" d="M377.65,-232.25C374.28,-224.7 369.51,-214.02 365.4,-204.82"/>
<polygon fill="midnightblue" stroke="midnightblue" points="368.58,-203.35 361.3,-195.64 362.19,-206.2 368.58,-203.35"/>
</g>
<!-- Node14&#45;&gt;Node4 -->
<g id="edge19" class="edge">
<title>Node14&#45;&gt;Node4</title>
<path fill="none" stroke="midnightblue" d="M352.65,-174.25C349.28,-166.7 344.51,-156.02 340.4,-146.82"/>
<polygon fill="midnightblue" stroke="midnightblue" points="343.58,-145.35 336.3,-137.64 337.19,-148.2 343.58,-145.35"/>
</g>
<!-- Node15&#45;&gt;Node4 -->
<g id="edge21" class="edge">
<title>Node15&#45;&gt;Node4</title>
<path fill="none" stroke="midnightblue" d="M139.44,-232.22C149.58,-217.55 170.64,-189.88 195,-174 224.95,-154.47 264.01,-142.43 292.75,-135.59"/>
<polygon fill="midnightblue" stroke="midnightblue" points="293.86,-138.93 302.84,-133.31 292.31,-132.11 293.86,-138.93"/>
</g>
<!-- Node15&#45;&gt;Node11 -->
<g id="edge22" class="edge">
<title>Node15&#45;&gt;Node11</title>
<path fill="none" stroke="midnightblue" d="M122.9,-232.25C114.5,-224.14 102.35,-212.41 92.39,-202.79"/>
<polygon fill="midnightblue" stroke="midnightblue" points="94.61,-200.07 84.99,-195.64 89.75,-205.11 94.61,-200.07"/>
</g>
<!-- Node16&#45;&gt;Node3 -->
<g id="edge24" class="edge">
<title>Node16&#45;&gt;Node3</title>
<path fill="none" stroke="midnightblue" d="M256.64,-290.28C254.01,-271.6 248.23,-230.37 244.77,-205.72"/>
<polygon fill="midnightblue" stroke="midnightblue" points="248.22,-205.11 243.36,-195.69 241.28,-206.08 248.22,-205.11"/>
</g>
<!-- Node16&#45;&gt;Node4 -->
<g id="edge25" class="edge">
<title>Node16&#45;&gt;Node4</title>
<path fill="none" stroke="midnightblue" d="M262.19,-290.26C274.05,-262.71 307.98,-183.83 323.75,-147.17"/>
<polygon fill="midnightblue" stroke="midnightblue" points="327.12,-148.2 327.86,-137.63 320.69,-145.44 327.12,-148.2"/>
</g>
<!-- Node16&#45;&gt;Node11 -->
<g id="edge27" class="edge">
<title>Node16&#45;&gt;Node11</title>
<path fill="none" stroke="midnightblue" d="M232.93,-299.82C197.87,-298.19 134.32,-290.05 97,-254 84.06,-241.5 78.72,-221.34 76.52,-206.21"/>
<polygon fill="midnightblue" stroke="midnightblue" points="79.95,-205.39 75.38,-195.83 72.99,-206.15 79.95,-205.39"/>
</g>
<!-- Node16&#45;&gt;Node13 -->
<g id="edge31" class="edge">
<title>Node16&#45;&gt;Node13</title>
<path fill="none" stroke="midnightblue" d="M279.32,-290.37C299.58,-281.22 330.23,-267.38 352.78,-257.2"/>
<polygon fill="midnightblue" stroke="midnightblue" points="354.52,-260.25 362.19,-252.95 351.63,-253.87 354.52,-260.25"/>
</g>
<!-- Node16&#45;&gt;Node14 -->
<g id="edge26" class="edge">
<title>Node16&#45;&gt;Node14</title>
<path fill="none" stroke="midnightblue" d="M270.75,-290.18C281.79,-281.35 297.84,-267.71 310,-254 323.77,-238.47 336.99,-218.79 345.87,-204.6"/>
<polygon fill="midnightblue" stroke="midnightblue" points="349.04,-206.12 351.29,-195.77 343.08,-202.46 349.04,-206.12"/>
</g>
<!-- Node16&#45;&gt;Node17 -->
<g id="edge28" class="edge">
<title>Node16&#45;&gt;Node17</title>
<path fill="none" stroke="midnightblue" d="M232.85,-294.19C195.83,-285.6 124.49,-268.93 64,-254 62.74,-253.69 61.46,-253.37 60.16,-253.05"/>
<polygon fill="midnightblue" stroke="midnightblue" points="60.71,-249.58 50.16,-250.52 59,-256.36 60.71,-249.58"/>
</g>
<!-- Node17&#45;&gt;Node4 -->
<g id="edge29" class="edge">
<title>Node17&#45;&gt;Node4</title>
<path fill="none" stroke="midnightblue" d="M20.25,-232.33C13.88,-217.81 4.9,-190.32 19,-174 53.93,-133.56 216.62,-128.02 292.65,-127.69"/>
<polygon fill="midnightblue" stroke="midnightblue" points="292.78,-131.19 302.78,-127.67 292.77,-124.19 292.78,-131.19"/>
</g>
<!-- Node17&#45;&gt;Node11 -->
<g id="edge30" class="edge">
<title>Node17&#45;&gt;Node11</title>
<path fill="none" stroke="midnightblue" d="M33.71,-232.25C40.81,-224.3 51.01,-212.87 59.5,-203.37"/>
<polygon fill="midnightblue" stroke="midnightblue" points="62.34,-205.43 66.39,-195.64 57.12,-200.77 62.34,-205.43"/>
</g>
<!-- Node18&#45;&gt;Node4 -->
<g id="edge33" class="edge">
<title>Node18&#45;&gt;Node4</title>
<path fill="none" stroke="midnightblue" d="M425.6,-290.2C435.45,-267.64 455.81,-211.16 432,-174 418.59,-153.07 392.99,-141.53 371.05,-135.25"/>
<polygon fill="midnightblue" stroke="midnightblue" points="371.84,-131.84 361.28,-132.71 370.08,-138.61 371.84,-131.84"/>
</g>
<!-- Node18&#45;&gt;Node13 -->
<g id="edge37" class="edge">
<title>Node18&#45;&gt;Node13</title>
<path fill="none" stroke="midnightblue" d="M414.21,-290.25C408.78,-282.46 401.03,-271.33 394.5,-261.94"/>
<polygon fill="midnightblue" stroke="midnightblue" points="397.3,-259.85 388.72,-253.64 391.56,-263.85 397.3,-259.85"/>
</g>
<!-- Node18&#45;&gt;Node15 -->
<g id="edge34" class="edge">
<title>Node18&#45;&gt;Node15</title>
<path fill="none" stroke="midnightblue" d="M397.69,-292.3C394.78,-291.46 391.83,-290.67 389,-290 295.7,-267.9 267.56,-274.8 169.67,-253.93"/>
<polygon fill="midnightblue" stroke="midnightblue" points="170.17,-250.46 159.66,-251.75 168.68,-257.3 170.17,-250.46"/>
</g>
<!-- Node19 -->
<g id="node19" class="node">
<title>Node19</title>
<g id="a_node19"><a xlink:href="texmath_8h.html" target="_top" xlink:title=" ">
<polygon fill="white" stroke="black" points="560,-174.5 560,-195.5 628,-195.5 628,-174.5 560,-174.5"/>
<text text-anchor="middle" x="594" y="-181.9" font-family="DejaVuSans" font-size="12.00">texmath.h</text>
</a>
</g>
</g>
<!-- Node18&#45;&gt;Node19 -->
<g id="edge35" class="edge">
<title>Node18&#45;&gt;Node19</title>
<path fill="none" stroke="midnightblue" d="M444.23,-295.81C470.98,-290.07 515.18,-277.65 546,-254 563.12,-240.87 576.59,-219.93 584.86,-204.75"/>
<polygon fill="midnightblue" stroke="midnightblue" points="588.03,-206.24 589.52,-195.75 581.81,-203.02 588.03,-206.24"/>
</g>
<!-- Node19&#45;&gt;Node4 -->
<g id="edge36" class="edge">
<title>Node19&#45;&gt;Node4</title>
<path fill="none" stroke="midnightblue" d="M559.75,-176.68C511.09,-166.28 422.18,-147.27 371.03,-136.34"/>
<polygon fill="midnightblue" stroke="midnightblue" points="371.53,-132.87 361.02,-134.2 370.07,-139.72 371.53,-132.87"/>
</g>
</g>
</svg>
