<?xml version="1.0" encoding="UTF-8" standalone="no"?>
<!DOCTYPE svg PUBLIC "-//W3C//DTD SVG 1.1//EN"
 "http://www.w3.org/Graphics/SVG/1.1/DTD/svg11.dtd">
<!-- Generated by graphviz version 2.44.0 ()
 -->
<!-- Title: error.h Pages: 1 -->
<svg width="2575pt" height="204pt"
 viewBox="0.00 0.00 2574.50 204.00" xmlns="http://www.w3.org/2000/svg" xmlns:xlink="http://www.w3.org/1999/xlink">
<g id="graph0" class="graph" transform="scale(1 1) rotate(0) translate(4 200)">
<title>error.h</title>
<polygon fill="white" stroke="transparent" points="-4,4 -4,-200 2570.5,-200 2570.5,4 -4,4"/>
<!-- Node1 -->
<g id="node1" class="node">
<title>Node1</title>
<g id="a_node1"><a xlink:title=" ">
<polygon fill="#bfbfbf" stroke="black" points="1242,-174.5 1242,-195.5 1293,-195.5 1293,-174.5 1242,-174.5"/>
<text text-anchor="middle" x="1267.5" y="-181.9" font-family="DejaVuSans" font-size="12.00">error.h</text>
</a>
</g>
</g>
<!-- Node2 -->
<g id="node2" class="node">
<title>Node2</title>
<g id="a_node2"><a xlink:href="align_8c.html" target="_top" xlink:title=" ">
<polygon fill="white" stroke="black" points="0,-58.5 0,-79.5 51,-79.5 51,-58.5 0,-58.5"/>
<text text-anchor="middle" x="25.5" y="-65.9" font-family="DejaVuSans" font-size="12.00">align.c</text>
</a>
</g>
</g>
<!-- Node1&#45;&gt;Node2 -->
<g id="edge1" class="edge">
<title>Node1&#45;&gt;Node2</title>
<path fill="none" stroke="midnightblue" d="M1231.43,-184.18C1067.53,-184.75 392.08,-184.2 186.5,-138 131.44,-125.62 71.4,-95.34 42.68,-79.7"/>
<polygon fill="midnightblue" stroke="midnightblue" points="1231.92,-187.68 1241.91,-184.14 1231.89,-180.68 1231.92,-187.68"/>
</g>
<!-- Node3 -->
<g id="node3" class="node">
<title>Node3</title>
<g id="a_node3"><a xlink:href="box__copy_8c.html" target="_top" xlink:title=" ">
<polygon fill="white" stroke="black" points="422,-116.5 422,-137.5 499,-137.5 499,-116.5 422,-116.5"/>
<text text-anchor="middle" x="460.5" y="-123.9" font-family="DejaVuSans" font-size="12.00">box_copy.c</text>
</a>
</g>
</g>
<!-- Node1&#45;&gt;Node3 -->
<g id="edge2" class="edge">
<title>Node1&#45;&gt;Node3</title>
<path fill="none" stroke="midnightblue" d="M1231.69,-183.67C1122.64,-182.26 785.19,-175.01 508.5,-138 505.46,-137.59 502.33,-137.1 499.19,-136.56"/>
<polygon fill="midnightblue" stroke="midnightblue" points="1231.78,-187.17 1241.82,-183.79 1231.86,-180.17 1231.78,-187.17"/>
</g>
<!-- Node4 -->
<g id="node4" class="node">
<title>Node4</title>
<g id="a_node4"><a xlink:href="box__destroy_8c.html" target="_top" xlink:title=" ">
<polygon fill="white" stroke="black" points="517,-116.5 517,-137.5 608,-137.5 608,-116.5 517,-116.5"/>
<text text-anchor="middle" x="562.5" y="-123.9" font-family="DejaVuSans" font-size="12.00">box_destroy.c</text>
</a>
</g>
</g>
<!-- Node1&#45;&gt;Node4 -->
<g id="edge3" class="edge">
<title>Node1&#45;&gt;Node4</title>
<path fill="none" stroke="midnightblue" d="M1231.69,-182.84C1133.29,-179.35 850.61,-167.35 617.5,-138 614.42,-137.61 611.25,-137.16 608.06,-136.68"/>
<polygon fill="midnightblue" stroke="midnightblue" points="1231.58,-186.34 1241.7,-183.19 1231.83,-179.34 1231.58,-186.34"/>
</g>
<!-- Node5 -->
<g id="node5" class="node">
<title>Node5</title>
<g id="a_node5"><a xlink:href="dump_8c.html" target="_top" xlink:title=" ">
<polygon fill="white" stroke="black" points="626.5,-116.5 626.5,-137.5 682.5,-137.5 682.5,-116.5 626.5,-116.5"/>
<text text-anchor="middle" x="654.5" y="-123.9" font-family="DejaVuSans" font-size="12.00">dump.c</text>
</a>
</g>
</g>
<!-- Node1&#45;&gt;Node5 -->
<g id="edge4" class="edge">
<title>Node1&#45;&gt;Node5</title>
<path fill="none" stroke="midnightblue" d="M1231.68,-183.43C1140.74,-181.48 893.78,-173.1 691.5,-138 688.62,-137.5 685.63,-136.88 682.66,-136.19"/>
<polygon fill="midnightblue" stroke="midnightblue" points="1231.67,-186.93 1241.74,-183.63 1231.81,-179.93 1231.67,-186.93"/>
</g>
<!-- Node6 -->
<g id="node6" class="node">
<title>Node6</title>
<g id="a_node6"><a xlink:href="dviout_8c.html" target="_top" xlink:title=" ">
<polygon fill="white" stroke="black" points="700.5,-116.5 700.5,-137.5 758.5,-137.5 758.5,-116.5 700.5,-116.5"/>
<text text-anchor="middle" x="729.5" y="-123.9" font-family="DejaVuSans" font-size="12.00">dviout.c</text>
</a>
</g>
</g>
<!-- Node1&#45;&gt;Node6 -->
<g id="edge5" class="edge">
<title>Node1&#45;&gt;Node6</title>
<path fill="none" stroke="midnightblue" d="M1231.79,-182.66C1149.54,-179.14 940.55,-167.79 768.5,-138 765.33,-137.45 762.04,-136.78 758.78,-136.04"/>
<polygon fill="midnightblue" stroke="midnightblue" points="1231.73,-186.16 1241.87,-183.08 1232.02,-179.16 1231.73,-186.16"/>
</g>
<!-- Node7 -->
<g id="node7" class="node">
<title>Node7</title>
<g id="a_node7"><a xlink:href="eqtb_8c.html" target="_top" xlink:title=" ">
<polygon fill="white" stroke="black" points="777,-116.5 777,-137.5 826,-137.5 826,-116.5 777,-116.5"/>
<text text-anchor="middle" x="801.5" y="-123.9" font-family="DejaVuSans" font-size="12.00">eqtb.c</text>
</a>
</g>
</g>
<!-- Node1&#45;&gt;Node7 -->
<g id="edge6" class="edge">
<title>Node1&#45;&gt;Node7</title>
<path fill="none" stroke="midnightblue" d="M1231.72,-182.37C1157.32,-178.5 980.75,-166.85 835.5,-138 832.48,-137.4 829.35,-136.65 826.25,-135.84"/>
<polygon fill="midnightblue" stroke="midnightblue" points="1231.78,-185.88 1241.94,-182.89 1232.13,-178.89 1231.78,-185.88"/>
</g>
<!-- Node8 -->
<g id="node8" class="node">
<title>Node8</title>
<g id="a_node8"><a xlink:href="eqtb__save_8c.html" target="_top" xlink:title=" ">
<polygon fill="white" stroke="black" points="844,-116.5 844,-137.5 925,-137.5 925,-116.5 844,-116.5"/>
<text text-anchor="middle" x="884.5" y="-123.9" font-family="DejaVuSans" font-size="12.00">eqtb_save.c</text>
</a>
</g>
</g>
<!-- Node1&#45;&gt;Node8 -->
<g id="edge7" class="edge">
<title>Node1&#45;&gt;Node8</title>
<path fill="none" stroke="midnightblue" d="M1231.67,-179.77C1170.54,-172.39 1042.26,-156.2 934.5,-138 931.44,-137.48 928.29,-136.92 925.12,-136.34"/>
<polygon fill="midnightblue" stroke="midnightblue" points="1231.59,-183.28 1241.94,-181 1232.42,-176.33 1231.59,-183.28"/>
</g>
<!-- Node9 -->
<g id="node9" class="node">
<title>Node9</title>
<g id="a_node9"><a xlink:href="error_8c.html" target="_top" xlink:title=" ">
<polygon fill="white" stroke="black" points="943.5,-116.5 943.5,-137.5 993.5,-137.5 993.5,-116.5 943.5,-116.5"/>
<text text-anchor="middle" x="968.5" y="-123.9" font-family="DejaVuSans" font-size="12.00">error.c</text>
</a>
</g>
</g>
<!-- Node1&#45;&gt;Node9 -->
<g id="edge8" class="edge">
<title>Node1&#45;&gt;Node9</title>
<path fill="none" stroke="midnightblue" d="M1231.66,-178.99C1180.66,-171.57 1084.36,-156.54 1003.5,-138 1000.3,-137.27 996.95,-136.42 993.65,-135.53"/>
<polygon fill="midnightblue" stroke="midnightblue" points="1231.44,-182.49 1241.84,-180.45 1232.44,-175.56 1231.44,-182.49"/>
</g>
<!-- Node10 -->
<g id="node10" class="node">
<title>Node10</title>
<g id="a_node10"><a xlink:href="expand_8c.html" target="_top" xlink:title=" ">
<polygon fill="white" stroke="black" points="1012,-116.5 1012,-137.5 1077,-137.5 1077,-116.5 1012,-116.5"/>
<text text-anchor="middle" x="1044.5" y="-123.9" font-family="DejaVuSans" font-size="12.00">expand.c</text>
</a>
</g>
</g>
<!-- Node1&#45;&gt;Node10 -->
<g id="edge9" class="edge">
<title>Node1&#45;&gt;Node10</title>
<path fill="none" stroke="midnightblue" d="M1232,-175.08C1189.44,-164.4 1118.69,-146.63 1077.35,-136.25"/>
<polygon fill="midnightblue" stroke="midnightblue" points="1231.37,-178.54 1241.92,-177.58 1233.07,-171.75 1231.37,-178.54"/>
</g>
<!-- Node11 -->
<g id="node11" class="node">
<title>Node11</title>
<g id="a_node11"><a xlink:href="extension_8c.html" target="_top" xlink:title=" ">
<polygon fill="white" stroke="black" points="69,-58.5 69,-79.5 146,-79.5 146,-58.5 69,-58.5"/>
<text text-anchor="middle" x="107.5" y="-65.9" font-family="DejaVuSans" font-size="12.00">extension.c</text>
</a>
</g>
</g>
<!-- Node1&#45;&gt;Node11 -->
<g id="edge10" class="edge">
<title>Node1&#45;&gt;Node11</title>
<path fill="none" stroke="midnightblue" d="M1231.76,-184.37C1073.72,-185.68 436.95,-187.72 244.5,-138 196.68,-125.65 146.03,-95.35 121.9,-79.7"/>
<polygon fill="midnightblue" stroke="midnightblue" points="1231.92,-187.86 1241.89,-184.28 1231.86,-180.86 1231.92,-187.86"/>
</g>
<!-- Node12 -->
<g id="node12" class="node">
<title>Node12</title>
<g id="a_node12"><a xlink:href="fonts_8c.html" target="_top" xlink:title=" ">
<polygon fill="white" stroke="black" points="1095,-116.5 1095,-137.5 1146,-137.5 1146,-116.5 1095,-116.5"/>
<text text-anchor="middle" x="1120.5" y="-123.9" font-family="DejaVuSans" font-size="12.00">fonts.c</text>
</a>
</g>
</g>
<!-- Node1&#45;&gt;Node12 -->
<g id="edge11" class="edge">
<title>Node1&#45;&gt;Node12</title>
<path fill="none" stroke="midnightblue" d="M1232.82,-170.79C1205.98,-160.56 1169.45,-146.65 1145.44,-137.5"/>
<polygon fill="midnightblue" stroke="midnightblue" points="1231.64,-174.08 1242.23,-174.37 1234.13,-167.54 1231.64,-174.08"/>
</g>
<!-- Node13 -->
<g id="node13" class="node">
<title>Node13</title>
<g id="a_node13"><a xlink:href="hash_8c.html" target="_top" xlink:title=" ">
<polygon fill="white" stroke="black" points="1164.5,-116.5 1164.5,-137.5 1216.5,-137.5 1216.5,-116.5 1164.5,-116.5"/>
<text text-anchor="middle" x="1190.5" y="-123.9" font-family="DejaVuSans" font-size="12.00">hash.c</text>
</a>
</g>
</g>
<!-- Node1&#45;&gt;Node13 -->
<g id="edge12" class="edge">
<title>Node1&#45;&gt;Node13</title>
<path fill="none" stroke="midnightblue" d="M1245.79,-168.21C1232.26,-158.37 1215.3,-146.04 1203.76,-137.64"/>
<polygon fill="midnightblue" stroke="midnightblue" points="1243.94,-171.19 1254.09,-174.25 1248.06,-165.53 1243.94,-171.19"/>
</g>
<!-- Node14 -->
<g id="node14" class="node">
<title>Node14</title>
<g id="a_node14"><a xlink:href="hyphen_8c.html" target="_top" xlink:title=" ">
<polygon fill="white" stroke="black" points="1235,-116.5 1235,-137.5 1300,-137.5 1300,-116.5 1235,-116.5"/>
<text text-anchor="middle" x="1267.5" y="-123.9" font-family="DejaVuSans" font-size="12.00">hyphen.c</text>
</a>
</g>
</g>
<!-- Node1&#45;&gt;Node14 -->
<g id="edge13" class="edge">
<title>Node1&#45;&gt;Node14</title>
<path fill="none" stroke="midnightblue" d="M1267.5,-164.16C1267.5,-155.16 1267.5,-144.92 1267.5,-137.64"/>
<polygon fill="midnightblue" stroke="midnightblue" points="1264,-164.25 1267.5,-174.25 1271,-164.25 1264,-164.25"/>
</g>
<!-- Node15 -->
<g id="node15" class="node">
<title>Node15</title>
<g id="a_node15"><a xlink:href="hyphen__init_8c.html" target="_top" xlink:title=" ">
<polygon fill="white" stroke="black" points="1318.5,-116.5 1318.5,-137.5 1406.5,-137.5 1406.5,-116.5 1318.5,-116.5"/>
<text text-anchor="middle" x="1362.5" y="-123.9" font-family="DejaVuSans" font-size="12.00">hyphen_init.c</text>
</a>
</g>
</g>
<!-- Node1&#45;&gt;Node15 -->
<g id="edge14" class="edge">
<title>Node1&#45;&gt;Node15</title>
<path fill="none" stroke="midnightblue" d="M1292.87,-169.05C1309.77,-159.08 1331.49,-146.28 1346.14,-137.64"/>
<polygon fill="midnightblue" stroke="midnightblue" points="1290.89,-166.15 1284.05,-174.25 1294.44,-172.18 1290.89,-166.15"/>
</g>
<!-- Node16 -->
<g id="node16" class="node">
<title>Node16</title>
<g id="a_node16"><a xlink:href="hyphen__post_8c.html" target="_top" xlink:title=" ">
<polygon fill="white" stroke="black" points="1425,-116.5 1425,-137.5 1520,-137.5 1520,-116.5 1425,-116.5"/>
<text text-anchor="middle" x="1472.5" y="-123.9" font-family="DejaVuSans" font-size="12.00">hyphen_post.c</text>
</a>
</g>
</g>
<!-- Node1&#45;&gt;Node16 -->
<g id="edge15" class="edge">
<title>Node1&#45;&gt;Node16</title>
<path fill="none" stroke="midnightblue" d="M1303.1,-174.27C1340.89,-163.95 1400.23,-147.74 1437.71,-137.5"/>
<polygon fill="midnightblue" stroke="midnightblue" points="1301.77,-171.01 1293.05,-177.02 1303.62,-177.76 1301.77,-171.01"/>
</g>
<!-- Node17 -->
<g id="node17" class="node">
<title>Node17</title>
<g id="a_node17"><a xlink:href="hyphen__pre_8c.html" target="_top" xlink:title=" ">
<polygon fill="white" stroke="black" points="1538,-116.5 1538,-137.5 1627,-137.5 1627,-116.5 1538,-116.5"/>
<text text-anchor="middle" x="1582.5" y="-123.9" font-family="DejaVuSans" font-size="12.00">hyphen_pre.c</text>
</a>
</g>
</g>
<!-- Node1&#45;&gt;Node17 -->
<g id="edge16" class="edge">
<title>Node1&#45;&gt;Node17</title>
<path fill="none" stroke="midnightblue" d="M1303.25,-177.87C1353.71,-169.19 1448.69,-152.72 1529.5,-138 1532.26,-137.5 1535.11,-136.97 1537.97,-136.44"/>
<polygon fill="midnightblue" stroke="midnightblue" points="1302.44,-174.46 1293.18,-179.6 1303.63,-181.36 1302.44,-174.46"/>
</g>
<!-- Node18 -->
<g id="node18" class="node">
<title>Node18</title>
<g id="a_node18"><a xlink:href="io_8c.html" target="_top" xlink:title=" ">
<polygon fill="white" stroke="black" points="1645,-116.5 1645,-137.5 1680,-137.5 1680,-116.5 1645,-116.5"/>
<text text-anchor="middle" x="1662.5" y="-123.9" font-family="DejaVuSans" font-size="12.00">io.c</text>
</a>
</g>
</g>
<!-- Node1&#45;&gt;Node18 -->
<g id="edge17" class="edge">
<title>Node1&#45;&gt;Node18</title>
<path fill="none" stroke="midnightblue" d="M1303.79,-182.4C1370.55,-178.82 1516.97,-167.96 1636.5,-138 1639.22,-137.32 1642.04,-136.43 1644.78,-135.47"/>
<polygon fill="midnightblue" stroke="midnightblue" points="1303.2,-178.93 1293.39,-182.93 1303.56,-185.92 1303.2,-178.93"/>
</g>
<!-- Node19 -->
<g id="node19" class="node">
<title>Node19</title>
<g id="a_node19"><a xlink:href="io__fname_8c.html" target="_top" xlink:title=" ">
<polygon fill="white" stroke="black" points="1698,-116.5 1698,-137.5 1773,-137.5 1773,-116.5 1698,-116.5"/>
<text text-anchor="middle" x="1735.5" y="-123.9" font-family="DejaVuSans" font-size="12.00">io_fname.c</text>
</a>
</g>
</g>
<!-- Node1&#45;&gt;Node19 -->
<g id="edge18" class="edge">
<title>Node1&#45;&gt;Node19</title>
<path fill="none" stroke="midnightblue" d="M1303.36,-181.37C1376.37,-175.75 1547.37,-161.13 1689.5,-138 1692.24,-137.55 1695.07,-137.05 1697.91,-136.51"/>
<polygon fill="midnightblue" stroke="midnightblue" points="1303.02,-177.89 1293.32,-182.14 1303.55,-184.87 1303.02,-177.89"/>
</g>
<!-- Node20 -->
<g id="node20" class="node">
<title>Node20</title>
<g id="a_node20"><a xlink:href="lexer_8c.html" target="_top" xlink:title=" ">
<polygon fill="white" stroke="black" points="1791,-116.5 1791,-137.5 1842,-137.5 1842,-116.5 1791,-116.5"/>
<text text-anchor="middle" x="1816.5" y="-123.9" font-family="DejaVuSans" font-size="12.00">lexer.c</text>
</a>
</g>
</g>
<!-- Node1&#45;&gt;Node20 -->
<g id="edge19" class="edge">
<title>Node1&#45;&gt;Node20</title>
<path fill="none" stroke="midnightblue" d="M1303.26,-183.22C1387.5,-180.87 1604.68,-171.75 1782.5,-138 1785.16,-137.5 1787.91,-136.87 1790.64,-136.18"/>
<polygon fill="midnightblue" stroke="midnightblue" points="1303.1,-179.73 1293.2,-183.49 1303.29,-186.72 1303.1,-179.73"/>
</g>
<!-- Node21 -->
<g id="node21" class="node">
<title>Node21</title>
<g id="a_node21"><a xlink:href="linebreak_8c.html" target="_top" xlink:title=" ">
<polygon fill="white" stroke="black" points="1860.5,-116.5 1860.5,-137.5 1934.5,-137.5 1934.5,-116.5 1860.5,-116.5"/>
<text text-anchor="middle" x="1897.5" y="-123.9" font-family="DejaVuSans" font-size="12.00">linebreak.c</text>
</a>
</g>
</g>
<!-- Node1&#45;&gt;Node21 -->
<g id="edge20" class="edge">
<title>Node1&#45;&gt;Node21</title>
<path fill="none" stroke="midnightblue" d="M1303.39,-182.86C1395.1,-179.6 1645.35,-168.38 1851.5,-138 1854.41,-137.57 1857.41,-137.06 1860.42,-136.51"/>
<polygon fill="midnightblue" stroke="midnightblue" points="1303.13,-179.37 1293.26,-183.22 1303.37,-186.37 1303.13,-179.37"/>
</g>
<!-- Node22 -->
<g id="node22" class="node">
<title>Node22</title>
<g id="a_node22"><a xlink:href="main__ctrl_8h.html" target="_top" xlink:title=" ">
<polygon fill="white" stroke="black" points="253.5,-116.5 253.5,-137.5 327.5,-137.5 327.5,-116.5 253.5,-116.5"/>
<text text-anchor="middle" x="290.5" y="-123.9" font-family="DejaVuSans" font-size="12.00">main_ctrl.h</text>
</a>
</g>
</g>
<!-- Node1&#45;&gt;Node22 -->
<g id="edge21" class="edge">
<title>Node1&#45;&gt;Node22</title>
<path fill="none" stroke="midnightblue" d="M1231.94,-184.07C1108.41,-183.93 686.54,-180.17 341.5,-138 337.02,-137.45 332.35,-136.74 327.72,-135.94"/>
<polygon fill="midnightblue" stroke="midnightblue" points="1231.97,-187.57 1241.98,-184.08 1231.98,-180.57 1231.97,-187.57"/>
</g>
<!-- Node27 -->
<g id="node27" class="node">
<title>Node27</title>
<g id="a_node27"><a xlink:href="page__builder_8c.html" target="_top" xlink:title=" ">
<polygon fill="white" stroke="black" points="523,-58.5 523,-79.5 618,-79.5 618,-58.5 523,-58.5"/>
<text text-anchor="middle" x="570.5" y="-65.9" font-family="DejaVuSans" font-size="12.00">page_builder.c</text>
</a>
</g>
</g>
<!-- Node1&#45;&gt;Node27 -->
<g id="edge37" class="edge">
<title>Node1&#45;&gt;Node27</title>
<path fill="none" stroke="midnightblue" d="M1231.33,-183.51C1067.95,-181.13 405.45,-169.53 375.5,-138 368.77,-130.91 369.43,-123.67 375.5,-116 380.17,-110.1 467.58,-91.17 523.77,-79.51"/>
<polygon fill="midnightblue" stroke="midnightblue" points="1231.74,-187.02 1241.79,-183.66 1231.84,-180.02 1231.74,-187.02"/>
</g>
<!-- Node28 -->
<g id="node28" class="node">
<title>Node28</title>
<g id="a_node28"><a xlink:href="tex__header_8h.html" target="_top" xlink:title=" ">
<polygon fill="white" stroke="black" points="636.5,-58.5 636.5,-79.5 722.5,-79.5 722.5,-58.5 636.5,-58.5"/>
<text text-anchor="middle" x="679.5" y="-65.9" font-family="DejaVuSans" font-size="12.00">tex_header.h</text>
</a>
</g>
</g>
<!-- Node1&#45;&gt;Node28 -->
<g id="edge43" class="edge">
<title>Node1&#45;&gt;Node28</title>
<path fill="none" stroke="midnightblue" d="M1231.84,-183.43C1073.68,-180.75 442.08,-168.16 413.5,-138 362.45,-84.13 271.47,-144.17 627.5,-80 630.4,-79.48 633.38,-78.93 636.38,-78.37"/>
<polygon fill="midnightblue" stroke="midnightblue" points="1231.92,-186.93 1241.98,-183.6 1232.04,-179.94 1231.92,-186.93"/>
</g>
<!-- Node30 -->
<g id="node30" class="node">
<title>Node30</title>
<g id="a_node30"><a xlink:href="math__formula_8c.html" target="_top" xlink:title=" ">
<polygon fill="white" stroke="black" points="1952.5,-116.5 1952.5,-137.5 2050.5,-137.5 2050.5,-116.5 1952.5,-116.5"/>
<text text-anchor="middle" x="2001.5" y="-123.9" font-family="DejaVuSans" font-size="12.00">math_formula.c</text>
</a>
</g>
</g>
<!-- Node1&#45;&gt;Node30 -->
<g id="edge34" class="edge">
<title>Node1&#45;&gt;Node30</title>
<path fill="none" stroke="midnightblue" d="M1303.32,-182.86C1404.3,-179.37 1699.81,-167.22 1943.5,-138 1946.34,-137.66 1949.25,-137.27 1952.19,-136.86"/>
<polygon fill="midnightblue" stroke="midnightblue" points="1302.94,-179.37 1293.07,-183.21 1303.18,-186.37 1302.94,-179.37"/>
</g>
<!-- Node31 -->
<g id="node31" class="node">
<title>Node31</title>
<g id="a_node31"><a xlink:href="mem_8c.html" target="_top" xlink:title=" ">
<polygon fill="white" stroke="black" points="2068.5,-116.5 2068.5,-137.5 2120.5,-137.5 2120.5,-116.5 2068.5,-116.5"/>
<text text-anchor="middle" x="2094.5" y="-123.9" font-family="DejaVuSans" font-size="12.00">mem.c</text>
</a>
</g>
</g>
<!-- Node1&#45;&gt;Node31 -->
<g id="edge35" class="edge">
<title>Node1&#45;&gt;Node31</title>
<path fill="none" stroke="midnightblue" d="M1303.36,-182.97C1437.67,-178.94 1910.93,-163.22 2059.5,-138 2062.37,-137.51 2065.33,-136.88 2068.27,-136.17"/>
<polygon fill="midnightblue" stroke="midnightblue" points="1303.09,-179.47 1293.2,-183.27 1303.3,-186.47 1303.09,-179.47"/>
</g>
<!-- Node32 -->
<g id="node32" class="node">
<title>Node32</title>
<g id="a_node32"><a xlink:href="pack_8c.html" target="_top" xlink:title=" ">
<polygon fill="white" stroke="black" points="2139,-116.5 2139,-137.5 2190,-137.5 2190,-116.5 2139,-116.5"/>
<text text-anchor="middle" x="2164.5" y="-123.9" font-family="DejaVuSans" font-size="12.00">pack.c</text>
</a>
</g>
</g>
<!-- Node1&#45;&gt;Node32 -->
<g id="edge36" class="edge">
<title>Node1&#45;&gt;Node32</title>
<path fill="none" stroke="midnightblue" d="M1303.69,-183.15C1445.93,-179.66 1966.72,-165.24 2129.5,-138 2132.49,-137.5 2135.59,-136.83 2138.66,-136.09"/>
<polygon fill="midnightblue" stroke="midnightblue" points="1303.27,-179.66 1293.36,-183.4 1303.44,-186.66 1303.27,-179.66"/>
</g>
<!-- Node33 -->
<g id="node33" class="node">
<title>Node33</title>
<g id="a_node33"><a xlink:href="pagebreak_8c.html" target="_top" xlink:title=" ">
<polygon fill="white" stroke="black" points="2208,-116.5 2208,-137.5 2291,-137.5 2291,-116.5 2208,-116.5"/>
<text text-anchor="middle" x="2249.5" y="-123.9" font-family="DejaVuSans" font-size="12.00">pagebreak.c</text>
</a>
</g>
</g>
<!-- Node1&#45;&gt;Node33 -->
<g id="edge38" class="edge">
<title>Node1&#45;&gt;Node33</title>
<path fill="none" stroke="midnightblue" d="M1303.29,-184.14C1427.65,-184.2 1852.3,-181.05 2199.5,-138 2202.22,-137.66 2205.02,-137.26 2207.83,-136.81"/>
<polygon fill="midnightblue" stroke="midnightblue" points="1303.2,-180.64 1293.19,-184.12 1303.19,-187.64 1303.2,-180.64"/>
</g>
<!-- Node34 -->
<g id="node34" class="node">
<title>Node34</title>
<g id="a_node34"><a xlink:href="print_8c.html" target="_top" xlink:title=" ">
<polygon fill="white" stroke="black" points="2309,-116.5 2309,-137.5 2358,-137.5 2358,-116.5 2309,-116.5"/>
<text text-anchor="middle" x="2333.5" y="-123.9" font-family="DejaVuSans" font-size="12.00">print.c</text>
</a>
</g>
</g>
<!-- Node1&#45;&gt;Node34 -->
<g id="edge39" class="edge">
<title>Node1&#45;&gt;Node34</title>
<path fill="none" stroke="midnightblue" d="M1303.42,-183.6C1462.29,-181.66 2102.66,-171.83 2300.5,-138 2303.21,-137.54 2306.02,-136.92 2308.79,-136.21"/>
<polygon fill="midnightblue" stroke="midnightblue" points="1303.2,-180.1 1293.24,-183.72 1303.28,-187.1 1303.2,-180.1"/>
</g>
<!-- Node35 -->
<g id="node35" class="node">
<title>Node35</title>
<g id="a_node35"><a xlink:href="printout_8c.html" target="_top" xlink:title=" ">
<polygon fill="white" stroke="black" points="2376,-116.5 2376,-137.5 2441,-137.5 2441,-116.5 2376,-116.5"/>
<text text-anchor="middle" x="2408.5" y="-123.9" font-family="DejaVuSans" font-size="12.00">printout.c</text>
</a>
</g>
</g>
<!-- Node1&#45;&gt;Node35 -->
<g id="edge40" class="edge">
<title>Node1&#45;&gt;Node35</title>
<path fill="none" stroke="midnightblue" d="M1303.56,-183.45C1468.84,-180.78 2155,-168.06 2367.5,-138 2370.26,-137.61 2373.1,-137.12 2375.94,-136.56"/>
<polygon fill="midnightblue" stroke="midnightblue" points="1303.38,-179.95 1293.44,-183.61 1303.49,-186.95 1303.38,-179.95"/>
</g>
<!-- Node36 -->
<g id="node36" class="node">
<title>Node36</title>
<g id="a_node36"><a xlink:href="scan_8c.html" target="_top" xlink:title=" ">
<polygon fill="white" stroke="black" points="2459,-116.5 2459,-137.5 2510,-137.5 2510,-116.5 2459,-116.5"/>
<text text-anchor="middle" x="2484.5" y="-123.9" font-family="DejaVuSans" font-size="12.00">scan.c</text>
</a>
</g>
</g>
<!-- Node1&#45;&gt;Node36 -->
<g id="edge41" class="edge">
<title>Node1&#45;&gt;Node36</title>
<path fill="none" stroke="midnightblue" d="M1303.51,-183.8C1476.3,-182.64 2221.53,-175.53 2450.5,-138 2453.17,-137.56 2455.93,-136.98 2458.66,-136.31"/>
<polygon fill="midnightblue" stroke="midnightblue" points="1303.39,-180.3 1293.42,-183.86 1303.44,-187.3 1303.39,-180.3"/>
</g>
<!-- Node37 -->
<g id="node37" class="node">
<title>Node37</title>
<g id="a_node37"><a xlink:href="str_8c.html" target="_top" xlink:title=" ">
<polygon fill="white" stroke="black" points="2528.5,-116.5 2528.5,-137.5 2566.5,-137.5 2566.5,-116.5 2528.5,-116.5"/>
<text text-anchor="middle" x="2547.5" y="-123.9" font-family="DejaVuSans" font-size="12.00">str.c</text>
</a>
</g>
</g>
<!-- Node1&#45;&gt;Node37 -->
<g id="edge42" class="edge">
<title>Node1&#45;&gt;Node37</title>
<path fill="none" stroke="midnightblue" d="M1303.33,-184.16C1481.97,-184.72 2277.34,-184.54 2519.5,-138 2522.44,-137.43 2525.49,-136.61 2528.44,-135.68"/>
<polygon fill="midnightblue" stroke="midnightblue" points="1303.18,-180.66 1293.17,-184.12 1303.15,-187.66 1303.18,-180.66"/>
</g>
<!-- Node22&#45;&gt;Node2 -->
<g id="edge22" class="edge">
<title>Node22&#45;&gt;Node2</title>
<path fill="none" stroke="midnightblue" d="M243.61,-117.93C196.74,-109.57 122.76,-95.57 59.5,-80 56.75,-79.32 53.89,-78.57 51.05,-77.78"/>
<polygon fill="midnightblue" stroke="midnightblue" points="243.01,-121.38 253.47,-119.68 244.23,-114.49 243.01,-121.38"/>
</g>
<!-- Node22&#45;&gt;Node11 -->
<g id="edge27" class="edge">
<title>Node22&#45;&gt;Node11</title>
<path fill="none" stroke="midnightblue" d="M249.08,-113.32C215.51,-103.05 168.97,-88.81 138.55,-79.5"/>
<polygon fill="midnightblue" stroke="midnightblue" points="248.45,-116.79 259.04,-116.37 250.5,-110.1 248.45,-116.79"/>
</g>
<!-- Node23 -->
<g id="node23" class="node">
<title>Node23</title>
<g id="a_node23"><a xlink:href="build__box_8c.html" target="_top" xlink:title=" ">
<polygon fill="white" stroke="black" points="203,-58.5 203,-79.5 280,-79.5 280,-58.5 203,-58.5"/>
<text text-anchor="middle" x="241.5" y="-65.9" font-family="DejaVuSans" font-size="12.00">build_box.c</text>
</a>
</g>
</g>
<!-- Node22&#45;&gt;Node23 -->
<g id="edge23" class="edge">
<title>Node22&#45;&gt;Node23</title>
<path fill="none" stroke="midnightblue" d="M275.19,-108.5C266.86,-98.98 256.86,-87.56 249.94,-79.64"/>
<polygon fill="midnightblue" stroke="midnightblue" points="272.75,-111.02 281.96,-116.25 278.01,-106.41 272.75,-111.02"/>
</g>
<!-- Node24 -->
<g id="node24" class="node">
<title>Node24</title>
<g id="a_node24"><a xlink:href="main__ctrl_8c.html" target="_top" xlink:title=" ">
<polygon fill="white" stroke="black" points="254.5,-0.5 254.5,-21.5 328.5,-21.5 328.5,-0.5 254.5,-0.5"/>
<text text-anchor="middle" x="291.5" y="-7.9" font-family="DejaVuSans" font-size="12.00">main_ctrl.c</text>
</a>
</g>
</g>
<!-- Node22&#45;&gt;Node24 -->
<g id="edge30" class="edge">
<title>Node22&#45;&gt;Node24</title>
<path fill="none" stroke="midnightblue" d="M243.48,-113.25C211.38,-101.99 177.36,-83.41 193.5,-58 206.8,-37.06 232.44,-25.48 254.16,-19.18"/>
<polygon fill="midnightblue" stroke="midnightblue" points="242.73,-116.68 253.32,-116.5 244.93,-110.04 242.73,-116.68"/>
</g>
<!-- Node25 -->
<g id="node25" class="node">
<title>Node25</title>
<g id="a_node25"><a xlink:href="build__math_8c.html" target="_top" xlink:title=" ">
<polygon fill="white" stroke="black" points="298.5,-58.5 298.5,-79.5 382.5,-79.5 382.5,-58.5 298.5,-58.5"/>
<text text-anchor="middle" x="340.5" y="-65.9" font-family="DejaVuSans" font-size="12.00">build_math.c</text>
</a>
</g>
</g>
<!-- Node22&#45;&gt;Node25 -->
<g id="edge25" class="edge">
<title>Node22&#45;&gt;Node25</title>
<path fill="none" stroke="midnightblue" d="M306.12,-108.5C314.63,-98.98 324.82,-87.56 331.89,-79.64"/>
<polygon fill="midnightblue" stroke="midnightblue" points="303.26,-106.46 299.21,-116.25 308.48,-111.12 303.26,-106.46"/>
</g>
<!-- Node26 -->
<g id="node26" class="node">
<title>Node26</title>
<g id="a_node26"><a xlink:href="indep__process_8c.html" target="_top" xlink:title=" ">
<polygon fill="white" stroke="black" points="400.5,-58.5 400.5,-79.5 504.5,-79.5 504.5,-58.5 400.5,-58.5"/>
<text text-anchor="middle" x="452.5" y="-65.9" font-family="DejaVuSans" font-size="12.00">indep_process.c</text>
</a>
</g>
</g>
<!-- Node22&#45;&gt;Node26 -->
<g id="edge28" class="edge">
<title>Node22&#45;&gt;Node26</title>
<path fill="none" stroke="midnightblue" d="M327.94,-113.06C357.59,-102.81 398.32,-88.73 425.01,-79.5"/>
<polygon fill="midnightblue" stroke="midnightblue" points="326.66,-109.8 318.35,-116.37 328.94,-116.41 326.66,-109.8"/>
</g>
<!-- Node22&#45;&gt;Node27 -->
<g id="edge31" class="edge">
<title>Node22&#45;&gt;Node27</title>
<path fill="none" stroke="midnightblue" d="M337.55,-116.59C389.04,-106.29 471.13,-89.87 522.85,-79.53"/>
<polygon fill="midnightblue" stroke="midnightblue" points="336.8,-113.17 327.68,-118.56 338.17,-120.03 336.8,-113.17"/>
</g>
<!-- Node22&#45;&gt;Node28 -->
<g id="edge32" class="edge">
<title>Node22&#45;&gt;Node28</title>
<path fill="none" stroke="midnightblue" d="M338,-120.34C403.36,-112.37 524.62,-96.9 627.5,-80 630.4,-79.52 633.39,-79.01 636.4,-78.47"/>
<polygon fill="midnightblue" stroke="midnightblue" points="337.51,-116.88 328,-121.56 338.35,-123.83 337.51,-116.88"/>
</g>
<!-- Node23&#45;&gt;Node24 -->
<g id="edge24" class="edge">
<title>Node23&#45;&gt;Node24</title>
<path fill="none" stroke="midnightblue" d="M257.12,-50.5C265.63,-40.98 275.82,-29.56 282.89,-21.64"/>
<polygon fill="midnightblue" stroke="midnightblue" points="254.26,-48.46 250.21,-58.25 259.48,-53.12 254.26,-48.46"/>
</g>
<!-- Node25&#45;&gt;Node24 -->
<g id="edge26" class="edge">
<title>Node25&#45;&gt;Node24</title>
<path fill="none" stroke="midnightblue" d="M325.19,-50.5C316.86,-40.98 306.86,-29.56 299.94,-21.64"/>
<polygon fill="midnightblue" stroke="midnightblue" points="322.75,-53.02 331.96,-58.25 328.01,-48.41 322.75,-53.02"/>
</g>
<!-- Node26&#45;&gt;Node24 -->
<g id="edge29" class="edge">
<title>Node26&#45;&gt;Node24</title>
<path fill="none" stroke="midnightblue" d="M415.29,-55.06C385.82,-44.81 345.35,-30.73 318.82,-21.5"/>
<polygon fill="midnightblue" stroke="midnightblue" points="414.23,-58.39 424.82,-58.37 416.53,-51.78 414.23,-58.39"/>
</g>
<!-- Node29 -->
<g id="node29" class="node">
<title>Node29</title>
<g id="a_node29"><a xlink:href="tex_8c.html" target="_top" xlink:title=" ">
<polygon fill="white" stroke="black" points="659,-0.5 659,-21.5 700,-21.5 700,-0.5 659,-0.5"/>
<text text-anchor="middle" x="679.5" y="-7.9" font-family="DejaVuSans" font-size="12.00">tex.c</text>
</a>
</g>
</g>
<!-- Node28&#45;&gt;Node29 -->
<g id="edge33" class="edge">
<title>Node28&#45;&gt;Node29</title>
<path fill="none" stroke="midnightblue" d="M679.5,-48.16C679.5,-39.16 679.5,-28.92 679.5,-21.64"/>
<polygon fill="midnightblue" stroke="midnightblue" points="676,-48.25 679.5,-58.25 683,-48.25 676,-48.25"/>
</g>
</g>
</svg>
