<?xml version="1.0" encoding="UTF-8" standalone="no"?>
<!DOCTYPE svg PUBLIC "-//W3C//DTD SVG 1.1//EN"
 "http://www.w3.org/Graphics/SVG/1.1/DTD/svg11.dtd">
<!-- Generated by graphviz version 2.44.0 ()
 -->
<!-- Title: error.c Pages: 1 -->
<svg width="528pt" height="378pt"
 viewBox="0.00 0.00 527.50 378.00" xmlns="http://www.w3.org/2000/svg" xmlns:xlink="http://www.w3.org/1999/xlink">
<g id="graph0" class="graph" transform="scale(1 1) rotate(0) translate(4 374)">
<title>error.c</title>
<polygon fill="white" stroke="transparent" points="-4,4 -4,-374 523.5,-374 523.5,4 -4,4"/>
<!-- Node1 -->
<g id="node1" class="node">
<title>Node1</title>
<g id="a_node1"><a xlink:title=" ">
<polygon fill="#bfbfbf" stroke="black" points="270,-348.5 270,-369.5 320,-369.5 320,-348.5 270,-348.5"/>
<text text-anchor="middle" x="295" y="-355.9" font-family="DejaVuSans" font-size="12.00">error.c</text>
</a>
</g>
</g>
<!-- Node2 -->
<g id="node2" class="node">
<title>Node2</title>
<g id="a_node2"><a xlink:href="tex__types_8h.html" target="_top" xlink:title=" ">
<polygon fill="white" stroke="black" points="131.5,-58.5 131.5,-79.5 208.5,-79.5 208.5,-58.5 131.5,-58.5"/>
<text text-anchor="middle" x="170" y="-65.9" font-family="DejaVuSans" font-size="12.00">tex_types.h</text>
</a>
</g>
</g>
<!-- Node1&#45;&gt;Node2 -->
<g id="edge1" class="edge">
<title>Node1&#45;&gt;Node2</title>
<path fill="none" stroke="midnightblue" d="M269.85,-353.86C198.51,-341.43 0,-301.65 0,-244 0,-244 0,-244 0,-184 0,-125.03 71.43,-94.61 121.68,-80.51"/>
<polygon fill="midnightblue" stroke="midnightblue" points="122.67,-83.87 131.42,-77.9 120.86,-77.1 122.67,-83.87"/>
</g>
<!-- Node5 -->
<g id="node5" class="node">
<title>Node5</title>
<g id="a_node5"><a xlink:href="global_8h.html" target="_top" xlink:title=" ">
<polygon fill="white" stroke="black" points="226,-290.5 226,-311.5 284,-311.5 284,-290.5 226,-290.5"/>
<text text-anchor="middle" x="255" y="-297.9" font-family="DejaVuSans" font-size="12.00">global.h</text>
</a>
</g>
</g>
<!-- Node1&#45;&gt;Node5 -->
<g id="edge4" class="edge">
<title>Node1&#45;&gt;Node5</title>
<path fill="none" stroke="midnightblue" d="M288.03,-348.25C282.47,-340.46 274.52,-329.33 267.82,-319.94"/>
<polygon fill="midnightblue" stroke="midnightblue" points="270.55,-317.75 261.89,-311.64 264.85,-321.81 270.55,-317.75"/>
</g>
<!-- Node15 -->
<g id="node15" class="node">
<title>Node15</title>
<g id="a_node15"><a xlink:href="texfunc_8h.html" target="_top" xlink:title=" ">
<polygon fill="white" stroke="black" points="302.5,-290.5 302.5,-311.5 367.5,-311.5 367.5,-290.5 302.5,-290.5"/>
<text text-anchor="middle" x="335" y="-297.9" font-family="DejaVuSans" font-size="12.00">texfunc.h</text>
</a>
</g>
</g>
<!-- Node1&#45;&gt;Node15 -->
<g id="edge19" class="edge">
<title>Node1&#45;&gt;Node15</title>
<path fill="none" stroke="midnightblue" d="M301.97,-348.25C307.53,-340.46 315.48,-329.33 322.18,-319.94"/>
<polygon fill="midnightblue" stroke="midnightblue" points="325.15,-321.81 328.11,-311.64 319.45,-317.75 325.15,-321.81"/>
</g>
<!-- Node16 -->
<g id="node16" class="node">
<title>Node16</title>
<g id="a_node16"><a xlink:href="macros_8h.html" target="_top" xlink:title=" ">
<polygon fill="white" stroke="black" points="385.5,-290.5 385.5,-311.5 450.5,-311.5 450.5,-290.5 385.5,-290.5"/>
<text text-anchor="middle" x="418" y="-297.9" font-family="DejaVuSans" font-size="12.00">macros.h</text>
</a>
</g>
</g>
<!-- Node1&#45;&gt;Node16 -->
<g id="edge21" class="edge">
<title>Node1&#45;&gt;Node16</title>
<path fill="none" stroke="midnightblue" d="M316.14,-348.37C335.89,-339.38 365.57,-325.87 387.81,-315.75"/>
<polygon fill="midnightblue" stroke="midnightblue" points="389.48,-318.83 397.13,-311.5 386.58,-312.46 389.48,-318.83"/>
</g>
<!-- Node17 -->
<g id="node17" class="node">
<title>Node17</title>
<g id="a_node17"><a xlink:href="print_8h.html" target="_top" xlink:title=" ">
<polygon fill="white" stroke="black" points="135,-290.5 135,-311.5 185,-311.5 185,-290.5 135,-290.5"/>
<text text-anchor="middle" x="160" y="-297.9" font-family="DejaVuSans" font-size="12.00">print.h</text>
</a>
</g>
</g>
<!-- Node1&#45;&gt;Node17 -->
<g id="edge22" class="edge">
<title>Node1&#45;&gt;Node17</title>
<path fill="none" stroke="midnightblue" d="M271.79,-348.37C249.83,-339.26 216.67,-325.51 192.16,-315.34"/>
<polygon fill="midnightblue" stroke="midnightblue" points="193.48,-312.1 182.9,-311.5 190.8,-318.57 193.48,-312.1"/>
</g>
<!-- Node19 -->
<g id="node19" class="node">
<title>Node19</title>
<g id="a_node19"><a xlink:href="error_8h.html" target="_top" xlink:title=" ">
<polygon fill="white" stroke="black" points="468.5,-290.5 468.5,-311.5 519.5,-311.5 519.5,-290.5 468.5,-290.5"/>
<text text-anchor="middle" x="494" y="-297.9" font-family="DejaVuSans" font-size="12.00">error.h</text>
</a>
</g>
</g>
<!-- Node1&#45;&gt;Node19 -->
<g id="edge27" class="edge">
<title>Node1&#45;&gt;Node19</title>
<path fill="none" stroke="midnightblue" d="M320.19,-351.1C350.74,-342.7 404.06,-327.96 458.57,-312.39"/>
<polygon fill="midnightblue" stroke="midnightblue" points="459.74,-315.69 468.39,-309.57 457.81,-308.96 459.74,-315.69"/>
</g>
<!-- Node3 -->
<g id="node3" class="node">
<title>Node3</title>
<g id="a_node3"><a xlink:title=" ">
<polygon fill="white" stroke="#bfbfbf" points="137.5,-0.5 137.5,-21.5 202.5,-21.5 202.5,-0.5 137.5,-0.5"/>
<text text-anchor="middle" x="170" y="-7.9" font-family="DejaVuSans" font-size="12.00">stdbool.h</text>
</a>
</g>
</g>
<!-- Node2&#45;&gt;Node3 -->
<g id="edge2" class="edge">
<title>Node2&#45;&gt;Node3</title>
<path fill="none" stroke="midnightblue" d="M170,-58.25C170,-50.94 170,-40.69 170,-31.7"/>
<polygon fill="midnightblue" stroke="midnightblue" points="173.5,-31.64 170,-21.64 166.5,-31.64 173.5,-31.64"/>
</g>
<!-- Node4 -->
<g id="node4" class="node">
<title>Node4</title>
<g id="a_node4"><a xlink:title=" ">
<polygon fill="white" stroke="#bfbfbf" points="338.5,-0.5 338.5,-21.5 393.5,-21.5 393.5,-0.5 338.5,-0.5"/>
<text text-anchor="middle" x="366" y="-7.9" font-family="DejaVuSans" font-size="12.00">stdint.h</text>
</a>
</g>
</g>
<!-- Node2&#45;&gt;Node4 -->
<g id="edge3" class="edge">
<title>Node2&#45;&gt;Node4</title>
<path fill="none" stroke="midnightblue" d="M203.69,-58.37C238.51,-48.43 292.71,-32.94 328.77,-22.64"/>
<polygon fill="midnightblue" stroke="midnightblue" points="329.78,-25.99 338.43,-19.88 327.86,-19.26 329.78,-25.99"/>
</g>
<!-- Node6 -->
<g id="node6" class="node">
<title>Node6</title>
<g id="a_node6"><a xlink:title=" ">
<polygon fill="white" stroke="#bfbfbf" points="188,-232.5 188,-253.5 250,-253.5 250,-232.5 188,-232.5"/>
<text text-anchor="middle" x="219" y="-239.9" font-family="DejaVuSans" font-size="12.00">setjmp.h</text>
</a>
</g>
</g>
<!-- Node5&#45;&gt;Node6 -->
<g id="edge5" class="edge">
<title>Node5&#45;&gt;Node6</title>
<path fill="none" stroke="midnightblue" d="M248.73,-290.25C243.77,-282.54 236.72,-271.56 230.72,-262.23"/>
<polygon fill="midnightblue" stroke="midnightblue" points="233.55,-260.16 225.2,-253.64 227.66,-263.95 233.55,-260.16"/>
</g>
<!-- Node7 -->
<g id="node7" class="node">
<title>Node7</title>
<g id="a_node7"><a xlink:href="str_8h.html" target="_top" xlink:title=" ">
<polygon fill="white" stroke="black" points="338.5,-232.5 338.5,-253.5 377.5,-253.5 377.5,-232.5 338.5,-232.5"/>
<text text-anchor="middle" x="358" y="-239.9" font-family="DejaVuSans" font-size="12.00">str.h</text>
</a>
</g>
</g>
<!-- Node5&#45;&gt;Node7 -->
<g id="edge6" class="edge">
<title>Node5&#45;&gt;Node7</title>
<path fill="none" stroke="midnightblue" d="M272.94,-290.25C289.04,-281.49 312.89,-268.53 331.24,-258.55"/>
<polygon fill="midnightblue" stroke="midnightblue" points="333.15,-261.49 340.26,-253.64 329.81,-255.34 333.15,-261.49"/>
</g>
<!-- Node11 -->
<g id="node11" class="node">
<title>Node11</title>
<g id="a_node11"><a xlink:href="scan_8h.html" target="_top" xlink:title=" ">
<polygon fill="white" stroke="black" points="268,-232.5 268,-253.5 320,-253.5 320,-232.5 268,-232.5"/>
<text text-anchor="middle" x="294" y="-239.9" font-family="DejaVuSans" font-size="12.00">scan.h</text>
</a>
</g>
</g>
<!-- Node5&#45;&gt;Node11 -->
<g id="edge13" class="edge">
<title>Node5&#45;&gt;Node11</title>
<path fill="none" stroke="midnightblue" d="M261.79,-290.25C267.22,-282.46 274.97,-271.33 281.5,-261.94"/>
<polygon fill="midnightblue" stroke="midnightblue" points="284.44,-263.85 287.28,-253.64 278.7,-259.85 284.44,-263.85"/>
</g>
<!-- Node7&#45;&gt;Node2 -->
<g id="edge12" class="edge">
<title>Node7&#45;&gt;Node2</title>
<path fill="none" stroke="midnightblue" d="M338.36,-235.18C335.23,-234.11 332.03,-233.02 329,-232 280.24,-215.61 256.35,-231.37 219,-196 188.59,-167.21 176.77,-117.35 172.39,-89.77"/>
<polygon fill="midnightblue" stroke="midnightblue" points="175.84,-89.17 170.98,-79.75 168.91,-90.14 175.84,-89.17"/>
</g>
<!-- Node7&#45;&gt;Node4 -->
<g id="edge8" class="edge">
<title>Node7&#45;&gt;Node4</title>
<path fill="none" stroke="midnightblue" d="M377.77,-236.99C397.24,-230.89 425.9,-218.5 439,-196 472.47,-138.5 413.57,-62.74 382.87,-29.22"/>
<polygon fill="midnightblue" stroke="midnightblue" points="385.14,-26.53 375.74,-21.65 380.04,-31.33 385.14,-26.53"/>
</g>
<!-- Node8 -->
<g id="node8" class="node">
<title>Node8</title>
<g id="a_node8"><a xlink:title=" ">
<polygon fill="white" stroke="#bfbfbf" points="286,-116.5 286,-137.5 338,-137.5 338,-116.5 286,-116.5"/>
<text text-anchor="middle" x="312" y="-123.9" font-family="DejaVuSans" font-size="12.00">stdio.h</text>
</a>
</g>
</g>
<!-- Node7&#45;&gt;Node8 -->
<g id="edge7" class="edge">
<title>Node7&#45;&gt;Node8</title>
<path fill="none" stroke="midnightblue" d="M350.26,-232.34C343.46,-223.4 333.78,-209.5 328,-196 321.3,-180.34 317.13,-161.4 314.74,-147.48"/>
<polygon fill="midnightblue" stroke="midnightblue" points="318.19,-146.9 313.18,-137.56 311.28,-147.99 318.19,-146.9"/>
</g>
<!-- Node9 -->
<g id="node9" class="node">
<title>Node9</title>
<g id="a_node9"><a xlink:href="global__const_8h.html" target="_top" xlink:title=" ">
<polygon fill="white" stroke="black" points="336.5,-174.5 336.5,-195.5 429.5,-195.5 429.5,-174.5 336.5,-174.5"/>
<text text-anchor="middle" x="383" y="-181.9" font-family="DejaVuSans" font-size="12.00">global_const.h</text>
</a>
</g>
</g>
<!-- Node7&#45;&gt;Node9 -->
<g id="edge9" class="edge">
<title>Node7&#45;&gt;Node9</title>
<path fill="none" stroke="midnightblue" d="M362.35,-232.25C365.72,-224.7 370.49,-214.02 374.6,-204.82"/>
<polygon fill="midnightblue" stroke="midnightblue" points="377.81,-206.2 378.7,-195.64 371.42,-203.35 377.81,-206.2"/>
</g>
<!-- Node9&#45;&gt;Node8 -->
<g id="edge11" class="edge">
<title>Node9&#45;&gt;Node8</title>
<path fill="none" stroke="midnightblue" d="M370.63,-174.25C360.04,-165.89 344.59,-153.71 332.21,-143.94"/>
<polygon fill="midnightblue" stroke="midnightblue" points="334.24,-141.09 324.23,-137.64 329.91,-146.58 334.24,-141.09"/>
</g>
<!-- Node10 -->
<g id="node10" class="node">
<title>Node10</title>
<g id="a_node10"><a xlink:title=" ">
<polygon fill="white" stroke="#bfbfbf" points="356.5,-116.5 356.5,-137.5 415.5,-137.5 415.5,-116.5 356.5,-116.5"/>
<text text-anchor="middle" x="386" y="-123.9" font-family="DejaVuSans" font-size="12.00">assert.h</text>
</a>
</g>
</g>
<!-- Node9&#45;&gt;Node10 -->
<g id="edge10" class="edge">
<title>Node9&#45;&gt;Node10</title>
<path fill="none" stroke="midnightblue" d="M383.52,-174.25C383.91,-166.94 384.46,-156.69 384.94,-147.7"/>
<polygon fill="midnightblue" stroke="midnightblue" points="388.44,-147.82 385.48,-137.64 381.45,-147.44 388.44,-147.82"/>
</g>
<!-- Node12 -->
<g id="node12" class="node">
<title>Node12</title>
<g id="a_node12"><a xlink:href="lexer_8h.html" target="_top" xlink:title=" ">
<polygon fill="white" stroke="black" points="228,-174.5 228,-195.5 280,-195.5 280,-174.5 228,-174.5"/>
<text text-anchor="middle" x="254" y="-181.9" font-family="DejaVuSans" font-size="12.00">lexer.h</text>
</a>
</g>
</g>
<!-- Node11&#45;&gt;Node12 -->
<g id="edge14" class="edge">
<title>Node11&#45;&gt;Node12</title>
<path fill="none" stroke="midnightblue" d="M287.03,-232.25C281.47,-224.46 273.52,-213.33 266.82,-203.94"/>
<polygon fill="midnightblue" stroke="midnightblue" points="269.55,-201.75 260.89,-195.64 263.85,-205.81 269.55,-201.75"/>
</g>
<!-- Node12&#45;&gt;Node8 -->
<g id="edge15" class="edge">
<title>Node12&#45;&gt;Node8</title>
<path fill="none" stroke="midnightblue" d="M264.1,-174.25C272.5,-166.14 284.65,-154.41 294.61,-144.79"/>
<polygon fill="midnightblue" stroke="midnightblue" points="297.25,-147.11 302.01,-137.64 292.39,-142.07 297.25,-147.11"/>
</g>
<!-- Node13 -->
<g id="node13" class="node">
<title>Node13</title>
<g id="a_node13"><a xlink:href="tex_8h.html" target="_top" xlink:title=" ">
<polygon fill="white" stroke="black" points="226,-116.5 226,-137.5 268,-137.5 268,-116.5 226,-116.5"/>
<text text-anchor="middle" x="247" y="-123.9" font-family="DejaVuSans" font-size="12.00">tex.h</text>
</a>
</g>
</g>
<!-- Node12&#45;&gt;Node13 -->
<g id="edge16" class="edge">
<title>Node12&#45;&gt;Node13</title>
<path fill="none" stroke="midnightblue" d="M252.78,-174.25C251.87,-166.94 250.59,-156.69 249.46,-147.7"/>
<polygon fill="midnightblue" stroke="midnightblue" points="252.92,-147.13 248.21,-137.64 245.97,-148 252.92,-147.13"/>
</g>
<!-- Node13&#45;&gt;Node2 -->
<g id="edge17" class="edge">
<title>Node13&#45;&gt;Node2</title>
<path fill="none" stroke="midnightblue" d="M233.59,-116.25C221.99,-107.81 205.03,-95.47 191.53,-85.66"/>
<polygon fill="midnightblue" stroke="midnightblue" points="193.4,-82.69 183.26,-79.64 189.29,-88.36 193.4,-82.69"/>
</g>
<!-- Node14 -->
<g id="node14" class="node">
<title>Node14</title>
<g id="a_node14"><a xlink:href="tex__constant_8h.html" target="_top" xlink:title=" ">
<polygon fill="white" stroke="black" points="227,-58.5 227,-79.5 321,-79.5 321,-58.5 227,-58.5"/>
<text text-anchor="middle" x="274" y="-65.9" font-family="DejaVuSans" font-size="12.00">tex_constant.h</text>
</a>
</g>
</g>
<!-- Node13&#45;&gt;Node14 -->
<g id="edge18" class="edge">
<title>Node13&#45;&gt;Node14</title>
<path fill="none" stroke="midnightblue" d="M251.7,-116.25C255.34,-108.7 260.49,-98.02 264.93,-88.82"/>
<polygon fill="midnightblue" stroke="midnightblue" points="268.16,-90.17 269.35,-79.64 261.86,-87.13 268.16,-90.17"/>
</g>
<!-- Node15&#45;&gt;Node7 -->
<g id="edge20" class="edge">
<title>Node15&#45;&gt;Node7</title>
<path fill="none" stroke="midnightblue" d="M339.01,-290.25C342.07,-282.78 346.4,-272.24 350.15,-263.11"/>
<polygon fill="midnightblue" stroke="midnightblue" points="353.48,-264.22 354.04,-253.64 347,-261.56 353.48,-264.22"/>
</g>
<!-- Node17&#45;&gt;Node2 -->
<g id="edge23" class="edge">
<title>Node17&#45;&gt;Node2</title>
<path fill="none" stroke="midnightblue" d="M160.42,-290.41C161.92,-255.85 167.08,-137.24 169.14,-89.82"/>
<polygon fill="midnightblue" stroke="midnightblue" points="172.64,-89.77 169.58,-79.63 165.65,-89.47 172.64,-89.77"/>
</g>
<!-- Node17&#45;&gt;Node7 -->
<g id="edge26" class="edge">
<title>Node17&#45;&gt;Node7</title>
<path fill="none" stroke="midnightblue" d="M185.06,-293.73C216.38,-285.78 271.8,-271.32 328.54,-253.99"/>
<polygon fill="midnightblue" stroke="midnightblue" points="329.88,-257.24 338.4,-250.95 327.82,-250.55 329.88,-257.24"/>
</g>
<!-- Node17&#45;&gt;Node13 -->
<g id="edge24" class="edge">
<title>Node17&#45;&gt;Node13</title>
<path fill="none" stroke="midnightblue" d="M161.71,-290.44C164.32,-276.98 169.99,-251.87 179,-232 193.68,-199.63 217.63,-165.85 232.84,-145.88"/>
<polygon fill="midnightblue" stroke="midnightblue" points="235.79,-147.78 239.15,-137.73 230.26,-143.5 235.79,-147.78"/>
</g>
<!-- Node18 -->
<g id="node18" class="node">
<title>Node18</title>
<g id="a_node18"><a xlink:href="texmac_8h.html" target="_top" xlink:title=" ">
<polygon fill="white" stroke="black" points="28.5,-232.5 28.5,-253.5 93.5,-253.5 93.5,-232.5 28.5,-232.5"/>
<text text-anchor="middle" x="61" y="-239.9" font-family="DejaVuSans" font-size="12.00">texmac.h</text>
</a>
</g>
</g>
<!-- Node17&#45;&gt;Node18 -->
<g id="edge25" class="edge">
<title>Node17&#45;&gt;Node18</title>
<path fill="none" stroke="midnightblue" d="M142.76,-290.25C127.42,-281.57 104.78,-268.76 87.21,-258.82"/>
<polygon fill="midnightblue" stroke="midnightblue" points="88.47,-255.52 78.05,-253.64 85.03,-261.61 88.47,-255.52"/>
</g>
</g>
</svg>
