<?xml version="1.0" encoding="UTF-8" standalone="no"?>
<!DOCTYPE svg PUBLIC "-//W3C//DTD SVG 1.1//EN"
 "http://www.w3.org/Graphics/SVG/1.1/DTD/svg11.dtd">
<!-- Generated by graphviz version 2.44.0 ()
 -->
<!-- Title: error.c Pages: 1 -->
<svg width="845pt" height="494pt"
 viewBox="0.00 0.00 845.00 494.00" xmlns="http://www.w3.org/2000/svg" xmlns:xlink="http://www.w3.org/1999/xlink">
<g id="graph0" class="graph" transform="scale(1 1) rotate(0) translate(4 490)">
<title>error.c</title>
<polygon fill="white" stroke="transparent" points="-4,4 -4,-490 841,-490 841,4 -4,4"/>
<!-- Node1 -->
<g id="node1" class="node">
<title>Node1</title>
<g id="a_node1"><a xlink:title=" ">
<polygon fill="#bfbfbf" stroke="black" points="469.5,-464.5 469.5,-485.5 519.5,-485.5 519.5,-464.5 469.5,-464.5"/>
<text text-anchor="middle" x="494.5" y="-471.9" font-family="DejaVuSans" font-size="12.00">error.c</text>
</a>
</g>
</g>
<!-- Node2 -->
<g id="node2" class="node">
<title>Node2</title>
<g id="a_node2"><a xlink:title=" ">
<polygon fill="white" stroke="#bfbfbf" points="0,-406.5 0,-427.5 59,-427.5 59,-406.5 0,-406.5"/>
<text text-anchor="middle" x="29.5" y="-413.9" font-family="DejaVuSans" font-size="12.00">stdarg.h</text>
</a>
</g>
</g>
<!-- Node1&#45;&gt;Node2 -->
<g id="edge1" class="edge">
<title>Node1&#45;&gt;Node2</title>
<path fill="none" stroke="midnightblue" d="M469.21,-472.25C403.58,-467.5 222.51,-452.99 73.5,-428 72.05,-427.76 70.58,-427.5 69.09,-427.22"/>
<polygon fill="midnightblue" stroke="midnightblue" points="69.72,-423.78 59.23,-425.24 68.35,-430.64 69.72,-423.78"/>
</g>
<!-- Node3 -->
<g id="node3" class="node">
<title>Node3</title>
<g id="a_node3"><a xlink:href="tex__types_8h.html" target="_top" xlink:title=" ">
<polygon fill="white" stroke="black" points="276,-58.5 276,-79.5 353,-79.5 353,-58.5 276,-58.5"/>
<text text-anchor="middle" x="314.5" y="-65.9" font-family="DejaVuSans" font-size="12.00">tex_types.h</text>
</a>
</g>
</g>
<!-- Node1&#45;&gt;Node3 -->
<g id="edge2" class="edge">
<title>Node1&#45;&gt;Node3</title>
<path fill="none" stroke="midnightblue" d="M469.35,-472.43C380.61,-466.23 87.5,-439.71 87.5,-360 87.5,-360 87.5,-360 87.5,-184 87.5,-104.88 198.98,-80.67 265.69,-73.26"/>
<polygon fill="midnightblue" stroke="midnightblue" points="266.4,-76.71 275.99,-72.21 265.69,-69.74 266.4,-76.71"/>
</g>
<!-- Node6 -->
<g id="node6" class="node">
<title>Node6</title>
<g id="a_node6"><a xlink:href="global_8h.html" target="_top" xlink:title=" ">
<polygon fill="white" stroke="black" points="643.5,-116.5 643.5,-137.5 701.5,-137.5 701.5,-116.5 643.5,-116.5"/>
<text text-anchor="middle" x="672.5" y="-123.9" font-family="DejaVuSans" font-size="12.00">global.h</text>
</a>
</g>
</g>
<!-- Node1&#45;&gt;Node6 -->
<g id="edge5" class="edge">
<title>Node1&#45;&gt;Node6</title>
<path fill="none" stroke="midnightblue" d="M509.53,-464.39C543.94,-441.08 625.5,-377.82 625.5,-302 625.5,-302 625.5,-302 625.5,-242 625.5,-205.82 645.98,-167.73 659.9,-146.02"/>
<polygon fill="midnightblue" stroke="midnightblue" points="662.94,-147.78 665.56,-137.51 657.11,-143.9 662.94,-147.78"/>
</g>
<!-- Node9 -->
<g id="node9" class="node">
<title>Node9</title>
<g id="a_node9"><a xlink:href="macros_8h.html" target="_top" xlink:title=" ">
<polygon fill="white" stroke="black" points="624,-406.5 624,-427.5 689,-427.5 689,-406.5 624,-406.5"/>
<text text-anchor="middle" x="656.5" y="-413.9" font-family="DejaVuSans" font-size="12.00">macros.h</text>
</a>
</g>
</g>
<!-- Node1&#45;&gt;Node9 -->
<g id="edge9" class="edge">
<title>Node1&#45;&gt;Node9</title>
<path fill="none" stroke="midnightblue" d="M519.81,-465.25C546.44,-456.05 588.62,-441.47 619.08,-430.93"/>
<polygon fill="midnightblue" stroke="midnightblue" points="620.62,-434.11 628.93,-427.53 618.33,-427.49 620.62,-434.11"/>
</g>
<!-- Node10 -->
<g id="node10" class="node">
<title>Node10</title>
<g id="a_node10"><a xlink:href="print_8h.html" target="_top" xlink:title=" ">
<polygon fill="white" stroke="black" points="384.5,-406.5 384.5,-427.5 434.5,-427.5 434.5,-406.5 384.5,-406.5"/>
<text text-anchor="middle" x="409.5" y="-413.9" font-family="DejaVuSans" font-size="12.00">print.h</text>
</a>
</g>
</g>
<!-- Node1&#45;&gt;Node10 -->
<g id="edge10" class="edge">
<title>Node1&#45;&gt;Node10</title>
<path fill="none" stroke="midnightblue" d="M479.69,-464.25C466.77,-455.73 447.81,-443.24 432.84,-433.38"/>
<polygon fill="midnightblue" stroke="midnightblue" points="434.41,-430.22 424.14,-427.64 430.56,-436.07 434.41,-430.22"/>
</g>
<!-- Node20 -->
<g id="node20" class="node">
<title>Node20</title>
<g id="a_node20"><a xlink:href="io_8h.html" target="_top" xlink:title=" ">
<polygon fill="white" stroke="black" points="137.5,-348.5 137.5,-369.5 173.5,-369.5 173.5,-348.5 137.5,-348.5"/>
<text text-anchor="middle" x="155.5" y="-355.9" font-family="DejaVuSans" font-size="12.00">io.h</text>
</a>
</g>
</g>
<!-- Node1&#45;&gt;Node20 -->
<g id="edge33" class="edge">
<title>Node1&#45;&gt;Node20</title>
<path fill="none" stroke="midnightblue" d="M469.3,-465.52C407.25,-444.66 247.48,-390.93 183.05,-369.26"/>
<polygon fill="midnightblue" stroke="midnightblue" points="184.15,-365.94 173.55,-366.07 181.92,-372.58 184.15,-365.94"/>
</g>
<!-- Node21 -->
<g id="node21" class="node">
<title>Node21</title>
<g id="a_node21"><a xlink:href="debug_8h.html" target="_top" xlink:title=" ">
<polygon fill="white" stroke="black" points="707.5,-406.5 707.5,-427.5 767.5,-427.5 767.5,-406.5 707.5,-406.5"/>
<text text-anchor="middle" x="737.5" y="-413.9" font-family="DejaVuSans" font-size="12.00">debug.h</text>
</a>
</g>
</g>
<!-- Node1&#45;&gt;Node21 -->
<g id="edge37" class="edge">
<title>Node1&#45;&gt;Node21</title>
<path fill="none" stroke="midnightblue" d="M519.54,-468.51C557.91,-460.06 633.52,-443.24 697.5,-428 697.6,-427.98 697.7,-427.95 697.8,-427.93"/>
<polygon fill="midnightblue" stroke="midnightblue" points="698.48,-431.36 707.38,-425.61 696.83,-424.56 698.48,-431.36"/>
</g>
<!-- Node22 -->
<g id="node22" class="node">
<title>Node22</title>
<g id="a_node22"><a xlink:href="lexer_8h.html" target="_top" xlink:title=" ">
<polygon fill="white" stroke="black" points="468.5,-406.5 468.5,-427.5 520.5,-427.5 520.5,-406.5 468.5,-406.5"/>
<text text-anchor="middle" x="494.5" y="-413.9" font-family="DejaVuSans" font-size="12.00">lexer.h</text>
</a>
</g>
</g>
<!-- Node1&#45;&gt;Node22 -->
<g id="edge38" class="edge">
<title>Node1&#45;&gt;Node22</title>
<path fill="none" stroke="midnightblue" d="M494.5,-464.25C494.5,-456.94 494.5,-446.69 494.5,-437.7"/>
<polygon fill="midnightblue" stroke="midnightblue" points="498,-437.64 494.5,-427.64 491,-437.64 498,-437.64"/>
</g>
<!-- Node23 -->
<g id="node23" class="node">
<title>Node23</title>
<g id="a_node23"><a xlink:href="error_8h.html" target="_top" xlink:title=" ">
<polygon fill="white" stroke="black" points="786,-406.5 786,-427.5 837,-427.5 837,-406.5 786,-406.5"/>
<text text-anchor="middle" x="811.5" y="-413.9" font-family="DejaVuSans" font-size="12.00">error.h</text>
</a>
</g>
</g>
<!-- Node1&#45;&gt;Node23 -->
<g id="edge41" class="edge">
<title>Node1&#45;&gt;Node23</title>
<path fill="none" stroke="midnightblue" d="M519.58,-470.91C567.47,-464.79 675.33,-450 775.95,-427.9"/>
<polygon fill="midnightblue" stroke="midnightblue" points="776.97,-431.25 785.97,-425.67 775.45,-424.42 776.97,-431.25"/>
</g>
<!-- Node4 -->
<g id="node4" class="node">
<title>Node4</title>
<g id="a_node4"><a xlink:title=" ">
<polygon fill="white" stroke="#bfbfbf" points="283,-0.5 283,-21.5 348,-21.5 348,-0.5 283,-0.5"/>
<text text-anchor="middle" x="315.5" y="-7.9" font-family="DejaVuSans" font-size="12.00">stdbool.h</text>
</a>
</g>
</g>
<!-- Node3&#45;&gt;Node4 -->
<g id="edge3" class="edge">
<title>Node3&#45;&gt;Node4</title>
<path fill="none" stroke="midnightblue" d="M314.67,-58.25C314.8,-50.94 314.99,-40.69 315.15,-31.7"/>
<polygon fill="midnightblue" stroke="midnightblue" points="318.65,-31.7 315.33,-21.64 311.65,-31.58 318.65,-31.7"/>
</g>
<!-- Node5 -->
<g id="node5" class="node">
<title>Node5</title>
<g id="a_node5"><a xlink:title=" ">
<polygon fill="white" stroke="#bfbfbf" points="210,-0.5 210,-21.5 265,-21.5 265,-0.5 210,-0.5"/>
<text text-anchor="middle" x="237.5" y="-7.9" font-family="DejaVuSans" font-size="12.00">stdint.h</text>
</a>
</g>
</g>
<!-- Node3&#45;&gt;Node5 -->
<g id="edge4" class="edge">
<title>Node3&#45;&gt;Node5</title>
<path fill="none" stroke="midnightblue" d="M301.09,-58.25C289.49,-49.81 272.53,-37.47 259.03,-27.66"/>
<polygon fill="midnightblue" stroke="midnightblue" points="260.9,-24.69 250.76,-21.64 256.79,-30.36 260.9,-24.69"/>
</g>
<!-- Node6&#45;&gt;Node3 -->
<g id="edge8" class="edge">
<title>Node6&#45;&gt;Node3</title>
<path fill="none" stroke="midnightblue" d="M643.2,-121.42C581.8,-111.81 439.06,-89.48 363.48,-77.66"/>
<polygon fill="midnightblue" stroke="midnightblue" points="363.69,-74.15 353.27,-76.06 362.61,-81.07 363.69,-74.15"/>
</g>
<!-- Node7 -->
<g id="node7" class="node">
<title>Node7</title>
<g id="a_node7"><a xlink:title=" ">
<polygon fill="white" stroke="#bfbfbf" points="579.5,-58.5 579.5,-79.5 631.5,-79.5 631.5,-58.5 579.5,-58.5"/>
<text text-anchor="middle" x="605.5" y="-65.9" font-family="DejaVuSans" font-size="12.00">stdio.h</text>
</a>
</g>
</g>
<!-- Node6&#45;&gt;Node7 -->
<g id="edge6" class="edge">
<title>Node6&#45;&gt;Node7</title>
<path fill="none" stroke="midnightblue" d="M660.83,-116.25C650.93,-107.97 636.54,-95.94 624.91,-86.22"/>
<polygon fill="midnightblue" stroke="midnightblue" points="626.95,-83.37 617.04,-79.64 622.47,-88.74 626.95,-83.37"/>
</g>
<!-- Node8 -->
<g id="node8" class="node">
<title>Node8</title>
<g id="a_node8"><a xlink:title=" ">
<polygon fill="white" stroke="#bfbfbf" points="649.5,-58.5 649.5,-79.5 711.5,-79.5 711.5,-58.5 649.5,-58.5"/>
<text text-anchor="middle" x="680.5" y="-65.9" font-family="DejaVuSans" font-size="12.00">setjmp.h</text>
</a>
</g>
</g>
<!-- Node6&#45;&gt;Node8 -->
<g id="edge7" class="edge">
<title>Node6&#45;&gt;Node8</title>
<path fill="none" stroke="midnightblue" d="M673.89,-116.25C674.94,-108.94 676.4,-98.69 677.69,-89.7"/>
<polygon fill="midnightblue" stroke="midnightblue" points="681.17,-90.04 679.12,-79.64 674.24,-89.05 681.17,-90.04"/>
</g>
<!-- Node10&#45;&gt;Node3 -->
<g id="edge13" class="edge">
<title>Node10&#45;&gt;Node3</title>
<path fill="none" stroke="midnightblue" d="M409.94,-406.42C411.28,-367.41 412.26,-217.78 354.5,-116 348.48,-105.4 339.78,-95.02 332.03,-86.82"/>
<polygon fill="midnightblue" stroke="midnightblue" points="334.52,-84.35 325.01,-79.68 329.53,-89.26 334.52,-84.35"/>
</g>
<!-- Node11 -->
<g id="node11" class="node">
<title>Node11</title>
<g id="a_node11"><a xlink:href="charset_8h.html" target="_top" xlink:title=" ">
<polygon fill="white" stroke="black" points="138,-116.5 138,-137.5 203,-137.5 203,-116.5 138,-116.5"/>
<text text-anchor="middle" x="170.5" y="-123.9" font-family="DejaVuSans" font-size="12.00">charset.h</text>
</a>
</g>
</g>
<!-- Node10&#45;&gt;Node11 -->
<g id="edge11" class="edge">
<title>Node10&#45;&gt;Node11</title>
<path fill="none" stroke="midnightblue" d="M384.02,-410.95C357.76,-404.77 316.64,-392.26 287.5,-370 212.3,-312.56 182.82,-194.28 173.82,-147.58"/>
<polygon fill="midnightblue" stroke="midnightblue" points="177.23,-146.77 171.99,-137.56 170.34,-148.03 177.23,-146.77"/>
</g>
<!-- Node12 -->
<g id="node12" class="node">
<title>Node12</title>
<g id="a_node12"><a xlink:href="tex_8h.html" target="_top" xlink:title=" ">
<polygon fill="white" stroke="black" points="455.5,-348.5 455.5,-369.5 497.5,-369.5 497.5,-348.5 455.5,-348.5"/>
<text text-anchor="middle" x="476.5" y="-355.9" font-family="DejaVuSans" font-size="12.00">tex.h</text>
</a>
</g>
</g>
<!-- Node10&#45;&gt;Node12 -->
<g id="edge14" class="edge">
<title>Node10&#45;&gt;Node12</title>
<path fill="none" stroke="midnightblue" d="M421.17,-406.25C431.07,-397.97 445.46,-385.94 457.09,-376.22"/>
<polygon fill="midnightblue" stroke="midnightblue" points="459.53,-378.74 464.96,-369.64 455.05,-373.37 459.53,-378.74"/>
</g>
<!-- Node17 -->
<g id="node17" class="node">
<title>Node17</title>
<g id="a_node17"><a xlink:href="str_8h.html" target="_top" xlink:title=" ">
<polygon fill="white" stroke="black" points="221,-174.5 221,-195.5 260,-195.5 260,-174.5 221,-174.5"/>
<text text-anchor="middle" x="240.5" y="-181.9" font-family="DejaVuSans" font-size="12.00">str.h</text>
</a>
</g>
</g>
<!-- Node10&#45;&gt;Node17 -->
<g id="edge32" class="edge">
<title>Node10&#45;&gt;Node17</title>
<path fill="none" stroke="midnightblue" d="M384.22,-406.38C349.51,-391.74 288.04,-360.35 258.5,-312 238.33,-278.99 237.33,-232.19 238.71,-205.91"/>
<polygon fill="midnightblue" stroke="midnightblue" points="242.22,-205.92 239.43,-195.7 235.24,-205.43 242.22,-205.92"/>
</g>
<!-- Node19 -->
<g id="node19" class="node">
<title>Node19</title>
<g id="a_node19"><a xlink:href="eqtb_8h.html" target="_top" xlink:title=" ">
<polygon fill="white" stroke="black" points="349.5,-348.5 349.5,-369.5 399.5,-369.5 399.5,-348.5 349.5,-348.5"/>
<text text-anchor="middle" x="374.5" y="-355.9" font-family="DejaVuSans" font-size="12.00">eqtb.h</text>
</a>
</g>
</g>
<!-- Node10&#45;&gt;Node19 -->
<g id="edge29" class="edge">
<title>Node10&#45;&gt;Node19</title>
<path fill="none" stroke="midnightblue" d="M403.4,-406.25C398.59,-398.54 391.72,-387.56 385.9,-378.23"/>
<polygon fill="midnightblue" stroke="midnightblue" points="388.79,-376.27 380.53,-369.64 382.86,-379.98 388.79,-376.27"/>
</g>
<!-- Node11&#45;&gt;Node3 -->
<g id="edge12" class="edge">
<title>Node11&#45;&gt;Node3</title>
<path fill="none" stroke="midnightblue" d="M195.25,-116.37C218.78,-107.22 254.37,-93.38 280.54,-83.21"/>
<polygon fill="midnightblue" stroke="midnightblue" points="282.02,-86.39 290.07,-79.5 279.48,-79.86 282.02,-86.39"/>
</g>
<!-- Node12&#45;&gt;Node3 -->
<g id="edge18" class="edge">
<title>Node12&#45;&gt;Node3</title>
<path fill="none" stroke="midnightblue" d="M474.92,-348.27C471.88,-328.62 465.5,-282.77 465.5,-244 465.5,-244 465.5,-244 465.5,-184 465.5,-130.14 403.55,-98.51 359.01,-82.72"/>
<polygon fill="midnightblue" stroke="midnightblue" points="360.12,-79.4 349.52,-79.5 357.87,-86.03 360.12,-79.4"/>
</g>
<!-- Node13 -->
<g id="node13" class="node">
<title>Node13</title>
<g id="a_node13"><a xlink:href="global__const_8h.html" target="_top" xlink:title=" ">
<polygon fill="white" stroke="black" points="494,-116.5 494,-137.5 587,-137.5 587,-116.5 494,-116.5"/>
<text text-anchor="middle" x="540.5" y="-123.9" font-family="DejaVuSans" font-size="12.00">global_const.h</text>
</a>
</g>
</g>
<!-- Node12&#45;&gt;Node13 -->
<g id="edge15" class="edge">
<title>Node12&#45;&gt;Node13</title>
<path fill="none" stroke="midnightblue" d="M479.17,-348.41C488.81,-313.78 521.93,-194.74 535.07,-147.52"/>
<polygon fill="midnightblue" stroke="midnightblue" points="538.51,-148.2 537.82,-137.63 531.77,-146.33 538.51,-148.2"/>
</g>
<!-- Node15 -->
<g id="node15" class="node">
<title>Node15</title>
<g id="a_node15"><a xlink:href="tex__constant_8h.html" target="_top" xlink:title=" ">
<polygon fill="white" stroke="black" points="267.5,-290.5 267.5,-311.5 361.5,-311.5 361.5,-290.5 267.5,-290.5"/>
<text text-anchor="middle" x="314.5" y="-297.9" font-family="DejaVuSans" font-size="12.00">tex_constant.h</text>
</a>
</g>
</g>
<!-- Node12&#45;&gt;Node15 -->
<g id="edge19" class="edge">
<title>Node12&#45;&gt;Node15</title>
<path fill="none" stroke="midnightblue" d="M455.32,-350.68C429.05,-341.6 383.81,-325.96 351.7,-314.86"/>
<polygon fill="midnightblue" stroke="midnightblue" points="352.79,-311.53 342.19,-311.57 350.5,-318.15 352.79,-311.53"/>
</g>
<!-- Node13&#45;&gt;Node7 -->
<g id="edge17" class="edge">
<title>Node13&#45;&gt;Node7</title>
<path fill="none" stroke="midnightblue" d="M551.82,-116.25C561.42,-107.97 575.39,-95.94 586.67,-86.22"/>
<polygon fill="midnightblue" stroke="midnightblue" points="589.02,-88.82 594.31,-79.64 584.45,-83.52 589.02,-88.82"/>
</g>
<!-- Node14 -->
<g id="node14" class="node">
<title>Node14</title>
<g id="a_node14"><a xlink:title=" ">
<polygon fill="white" stroke="#bfbfbf" points="502,-58.5 502,-79.5 561,-79.5 561,-58.5 502,-58.5"/>
<text text-anchor="middle" x="531.5" y="-65.9" font-family="DejaVuSans" font-size="12.00">assert.h</text>
</a>
</g>
</g>
<!-- Node13&#45;&gt;Node14 -->
<g id="edge16" class="edge">
<title>Node13&#45;&gt;Node14</title>
<path fill="none" stroke="midnightblue" d="M538.93,-116.25C537.76,-108.94 536.11,-98.69 534.67,-89.7"/>
<polygon fill="midnightblue" stroke="midnightblue" points="538.09,-88.96 533.05,-79.64 531.18,-90.07 538.09,-88.96"/>
</g>
<!-- Node16 -->
<g id="node16" class="node">
<title>Node16</title>
<g id="a_node16"><a xlink:href="box_8h.html" target="_top" xlink:title=" ">
<polygon fill="white" stroke="black" points="290.5,-232.5 290.5,-253.5 336.5,-253.5 336.5,-232.5 290.5,-232.5"/>
<text text-anchor="middle" x="313.5" y="-239.9" font-family="DejaVuSans" font-size="12.00">box.h</text>
</a>
</g>
</g>
<!-- Node15&#45;&gt;Node16 -->
<g id="edge20" class="edge">
<title>Node15&#45;&gt;Node16</title>
<path fill="none" stroke="midnightblue" d="M314.33,-290.25C314.2,-282.94 314.01,-272.69 313.85,-263.7"/>
<polygon fill="midnightblue" stroke="midnightblue" points="317.35,-263.58 313.67,-253.64 310.35,-263.7 317.35,-263.58"/>
</g>
<!-- Node16&#45;&gt;Node17 -->
<g id="edge21" class="edge">
<title>Node16&#45;&gt;Node17</title>
<path fill="none" stroke="midnightblue" d="M300.78,-232.25C289.9,-223.89 274.01,-211.71 261.28,-201.94"/>
<polygon fill="midnightblue" stroke="midnightblue" points="263.13,-198.95 253.07,-195.64 258.87,-204.51 263.13,-198.95"/>
</g>
<!-- Node18 -->
<g id="node18" class="node">
<title>Node18</title>
<g id="a_node18"><a xlink:href="texmath_8h.html" target="_top" xlink:title=" ">
<polygon fill="white" stroke="black" points="279.5,-174.5 279.5,-195.5 347.5,-195.5 347.5,-174.5 279.5,-174.5"/>
<text text-anchor="middle" x="313.5" y="-181.9" font-family="DejaVuSans" font-size="12.00">texmath.h</text>
</a>
</g>
</g>
<!-- Node16&#45;&gt;Node18 -->
<g id="edge27" class="edge">
<title>Node16&#45;&gt;Node18</title>
<path fill="none" stroke="midnightblue" d="M313.5,-232.25C313.5,-224.94 313.5,-214.69 313.5,-205.7"/>
<polygon fill="midnightblue" stroke="midnightblue" points="317,-205.64 313.5,-195.64 310,-205.64 317,-205.64"/>
</g>
<!-- Node17&#45;&gt;Node3 -->
<g id="edge26" class="edge">
<title>Node17&#45;&gt;Node3</title>
<path fill="none" stroke="midnightblue" d="M246.81,-174.28C259.15,-155.27 286.67,-112.88 302.56,-88.4"/>
<polygon fill="midnightblue" stroke="midnightblue" points="305.7,-89.99 308.21,-79.69 299.83,-86.18 305.7,-89.99"/>
</g>
<!-- Node17&#45;&gt;Node5 -->
<g id="edge23" class="edge">
<title>Node17&#45;&gt;Node5</title>
<path fill="none" stroke="midnightblue" d="M240.33,-174.26C239.85,-146.82 238.49,-68.51 237.84,-31.64"/>
<polygon fill="midnightblue" stroke="midnightblue" points="241.34,-31.57 237.67,-21.63 234.34,-31.69 241.34,-31.57"/>
</g>
<!-- Node17&#45;&gt;Node7 -->
<g id="edge22" class="edge">
<title>Node17&#45;&gt;Node7</title>
<path fill="none" stroke="midnightblue" d="M260.17,-177.38C263.61,-176.24 267.16,-175.08 270.5,-174 379.23,-139.01 508.46,-99.46 569.78,-80.82"/>
<polygon fill="midnightblue" stroke="midnightblue" points="570.83,-84.16 579.38,-77.91 568.79,-77.46 570.83,-84.16"/>
</g>
<!-- Node17&#45;&gt;Node11 -->
<g id="edge25" class="edge">
<title>Node17&#45;&gt;Node11</title>
<path fill="none" stroke="midnightblue" d="M228.31,-174.25C217.87,-165.89 202.63,-153.71 190.43,-143.94"/>
<polygon fill="midnightblue" stroke="midnightblue" points="192.55,-141.16 182.55,-137.64 188.18,-146.62 192.55,-141.16"/>
</g>
<!-- Node17&#45;&gt;Node13 -->
<g id="edge24" class="edge">
<title>Node17&#45;&gt;Node13</title>
<path fill="none" stroke="midnightblue" d="M260.06,-177C263.51,-175.9 267.09,-174.85 270.5,-174 343.09,-155.83 428.45,-142.62 483.46,-135.13"/>
<polygon fill="midnightblue" stroke="midnightblue" points="484.26,-138.56 493.71,-133.76 483.33,-131.62 484.26,-138.56"/>
</g>
<!-- Node18&#45;&gt;Node3 -->
<g id="edge28" class="edge">
<title>Node18&#45;&gt;Node3</title>
<path fill="none" stroke="midnightblue" d="M313.59,-174.28C313.75,-155.6 314.11,-114.37 314.33,-89.72"/>
<polygon fill="midnightblue" stroke="midnightblue" points="317.83,-89.73 314.41,-79.69 310.83,-89.66 317.83,-89.73"/>
</g>
<!-- Node19&#45;&gt;Node3 -->
<g id="edge30" class="edge">
<title>Node19&#45;&gt;Node3</title>
<path fill="none" stroke="midnightblue" d="M374.12,-348.3C373.55,-335.1 372.36,-310.73 370.5,-290 365.86,-238.28 369.45,-224.29 356.5,-174 348.57,-143.19 333.65,-109.34 323.9,-88.89"/>
<polygon fill="midnightblue" stroke="midnightblue" points="326.97,-87.21 319.45,-79.74 320.68,-90.27 326.97,-87.21"/>
</g>
<!-- Node19&#45;&gt;Node15 -->
<g id="edge31" class="edge">
<title>Node19&#45;&gt;Node15</title>
<path fill="none" stroke="midnightblue" d="M364.05,-348.25C355.27,-340.05 342.54,-328.17 332.19,-318.51"/>
<polygon fill="midnightblue" stroke="midnightblue" points="334.53,-315.91 324.83,-311.64 329.75,-321.02 334.53,-315.91"/>
</g>
<!-- Node20&#45;&gt;Node11 -->
<g id="edge35" class="edge">
<title>Node20&#45;&gt;Node11</title>
<path fill="none" stroke="midnightblue" d="M153.53,-348.27C148.29,-320.61 135.31,-239.27 149.5,-174 151.54,-164.61 155.68,-154.84 159.74,-146.73"/>
<polygon fill="midnightblue" stroke="midnightblue" points="162.89,-148.27 164.52,-137.8 156.72,-144.96 162.89,-148.27"/>
</g>
<!-- Node20&#45;&gt;Node15 -->
<g id="edge34" class="edge">
<title>Node20&#45;&gt;Node15</title>
<path fill="none" stroke="midnightblue" d="M173.74,-351.58C199.02,-342.67 245.28,-326.38 277.85,-314.91"/>
<polygon fill="midnightblue" stroke="midnightblue" points="279.21,-318.14 287.48,-311.52 276.88,-311.54 279.21,-318.14"/>
</g>
<!-- Node20&#45;&gt;Node17 -->
<g id="edge36" class="edge">
<title>Node20&#45;&gt;Node17</title>
<path fill="none" stroke="midnightblue" d="M160.31,-348.26C173.99,-320.59 213.24,-241.15 231.26,-204.7"/>
<polygon fill="midnightblue" stroke="midnightblue" points="234.45,-206.15 235.74,-195.63 228.17,-203.05 234.45,-206.15"/>
</g>
<!-- Node22&#45;&gt;Node7 -->
<g id="edge39" class="edge">
<title>Node22&#45;&gt;Node7</title>
<path fill="none" stroke="midnightblue" d="M510.7,-406.31C537.34,-388.99 587.5,-350.02 587.5,-302 587.5,-302 587.5,-302 587.5,-242 587.5,-212.76 597.92,-128.45 602.9,-89.79"/>
<polygon fill="midnightblue" stroke="midnightblue" points="606.39,-90.14 604.21,-79.78 599.45,-89.24 606.39,-90.14"/>
</g>
<!-- Node22&#45;&gt;Node12 -->
<g id="edge40" class="edge">
<title>Node22&#45;&gt;Node12</title>
<path fill="none" stroke="midnightblue" d="M491.36,-406.25C488.99,-398.86 485.65,-388.47 482.74,-379.41"/>
<polygon fill="midnightblue" stroke="midnightblue" points="485.99,-378.09 479.6,-369.64 479.33,-380.23 485.99,-378.09"/>
</g>
</g>
</svg>
