<?xml version="1.0" encoding="UTF-8" standalone="no"?>
<!DOCTYPE svg PUBLIC "-//W3C//DTD SVG 1.1//EN"
 "http://www.w3.org/Graphics/SVG/1.1/DTD/svg11.dtd">
<!-- Generated by graphviz version 2.47.3 (20210711.2253)
 -->
<!-- Title: error.h Pages: 1 -->
<svg width="349pt" height="320pt"
 viewBox="0.00 0.00 348.50 320.00" xmlns="http://www.w3.org/2000/svg" xmlns:xlink="http://www.w3.org/1999/xlink">
<g id="graph0" class="graph" transform="scale(1 1) rotate(0) translate(4 316)">
<title>error.h</title>
<polygon fill="white" stroke="transparent" points="-4,4 -4,-316 344.5,-316 344.5,4 -4,4"/>
<!-- Node1 -->
<g id="node1" class="node">
<title>Node1</title>
<g id="a_node1"><a xlink:title=" ">
<polygon fill="#bfbfbf" stroke="black" points="141,-290.5 141,-311.5 192,-311.5 192,-290.5 141,-290.5"/>
<text text-anchor="middle" x="166.5" y="-297.9" font-family="DejaVuSans" font-size="12.00">error.h</text>
</a>
</g>
</g>
<!-- Node2 -->
<g id="node2" class="node">
<title>Node2</title>
<g id="a_node2"><a xlink:href="global_8h.html" target="_top" xlink:title=" ">
<polygon fill="white" stroke="black" points="147.5,-116.5 147.5,-137.5 205.5,-137.5 205.5,-116.5 147.5,-116.5"/>
<text text-anchor="middle" x="176.5" y="-123.9" font-family="DejaVuSans" font-size="12.00">global.h</text>
</a>
</g>
</g>
<!-- Node1&#45;&gt;Node2 -->
<g id="edge1" class="edge">
<title>Node1&#45;&gt;Node2</title>
<path fill="none" stroke="midnightblue" d="M173.07,-290.23C184.6,-272.42 208.04,-233.11 216.5,-196 218.67,-186.47 219.92,-183.16 216.5,-174 212.39,-163 204.32,-152.89 196.5,-144.97"/>
<polygon fill="midnightblue" stroke="midnightblue" points="198.6,-142.13 188.92,-137.82 193.8,-147.23 198.6,-142.13"/>
</g>
<!-- Node10 -->
<g id="node10" class="node">
<title>Node10</title>
<g id="a_node10"><a xlink:href="str_8h.html" target="_top" xlink:title=" ">
<polygon fill="white" stroke="black" points="78,-232.5 78,-253.5 117,-253.5 117,-232.5 78,-232.5"/>
<text text-anchor="middle" x="97.5" y="-239.9" font-family="DejaVuSans" font-size="12.00">str.h</text>
</a>
</g>
</g>
<!-- Node1&#45;&gt;Node10 -->
<g id="edge9" class="edge">
<title>Node1&#45;&gt;Node10</title>
<path fill="none" stroke="midnightblue" d="M154.48,-290.25C144.29,-281.97 129.46,-269.94 117.49,-260.22"/>
<polygon fill="midnightblue" stroke="midnightblue" points="119.35,-257.23 109.38,-253.64 114.94,-262.66 119.35,-257.23"/>
</g>
<!-- Node3 -->
<g id="node3" class="node">
<title>Node3</title>
<g id="a_node3"><a xlink:href="global__macros_8h.html" target="_top" xlink:title=" ">
<polygon fill="white" stroke="black" points="236.5,-58.5 236.5,-79.5 340.5,-79.5 340.5,-58.5 236.5,-58.5"/>
<text text-anchor="middle" x="288.5" y="-65.9" font-family="DejaVuSans" font-size="12.00">global_macros.h</text>
</a>
</g>
</g>
<!-- Node2&#45;&gt;Node3 -->
<g id="edge2" class="edge">
<title>Node2&#45;&gt;Node3</title>
<path fill="none" stroke="midnightblue" d="M195.75,-116.37C213.57,-107.46 240.27,-94.11 260.46,-84.02"/>
<polygon fill="midnightblue" stroke="midnightblue" points="262.12,-87.1 269.5,-79.5 258.99,-80.84 262.12,-87.1"/>
</g>
<!-- Node5 -->
<g id="node5" class="node">
<title>Node5</title>
<g id="a_node5"><a xlink:href="global__const_8h.html" target="_top" xlink:title=" ">
<polygon fill="white" stroke="black" points="30,-58.5 30,-79.5 123,-79.5 123,-58.5 30,-58.5"/>
<text text-anchor="middle" x="76.5" y="-65.9" font-family="DejaVuSans" font-size="12.00">global_const.h</text>
</a>
</g>
</g>
<!-- Node2&#45;&gt;Node5 -->
<g id="edge4" class="edge">
<title>Node2&#45;&gt;Node5</title>
<path fill="none" stroke="midnightblue" d="M159.08,-116.25C143.45,-107.49 120.3,-94.53 102.48,-84.55"/>
<polygon fill="midnightblue" stroke="midnightblue" points="104.15,-81.47 93.72,-79.64 100.73,-87.58 104.15,-81.47"/>
</g>
<!-- Node6 -->
<g id="node6" class="node">
<title>Node6</title>
<g id="a_node6"><a xlink:href="tex__types_8h.html" target="_top" xlink:title=" ">
<polygon fill="white" stroke="black" points="141,-58.5 141,-79.5 218,-79.5 218,-58.5 141,-58.5"/>
<text text-anchor="middle" x="179.5" y="-65.9" font-family="DejaVuSans" font-size="12.00">tex_types.h</text>
</a>
</g>
</g>
<!-- Node2&#45;&gt;Node6 -->
<g id="edge5" class="edge">
<title>Node2&#45;&gt;Node6</title>
<path fill="none" stroke="midnightblue" d="M177.02,-116.25C177.41,-108.94 177.96,-98.69 178.44,-89.7"/>
<polygon fill="midnightblue" stroke="midnightblue" points="181.94,-89.82 178.98,-79.64 174.95,-89.44 181.94,-89.82"/>
</g>
<!-- Node4 -->
<g id="node4" class="node">
<title>Node4</title>
<g id="a_node4"><a xlink:title=" ">
<polygon fill="white" stroke="#bfbfbf" points="259,-0.5 259,-21.5 318,-21.5 318,-0.5 259,-0.5"/>
<text text-anchor="middle" x="288.5" y="-7.9" font-family="DejaVuSans" font-size="12.00">assert.h</text>
</a>
</g>
</g>
<!-- Node3&#45;&gt;Node4 -->
<g id="edge3" class="edge">
<title>Node3&#45;&gt;Node4</title>
<path fill="none" stroke="midnightblue" d="M288.5,-58.25C288.5,-50.94 288.5,-40.69 288.5,-31.7"/>
<polygon fill="midnightblue" stroke="midnightblue" points="292,-31.64 288.5,-21.64 285,-31.64 292,-31.64"/>
</g>
<!-- Node7 -->
<g id="node7" class="node">
<title>Node7</title>
<g id="a_node7"><a xlink:title=" ">
<polygon fill="white" stroke="#bfbfbf" points="161,-0.5 161,-21.5 226,-21.5 226,-0.5 161,-0.5"/>
<text text-anchor="middle" x="193.5" y="-7.9" font-family="DejaVuSans" font-size="12.00">stdbool.h</text>
</a>
</g>
</g>
<!-- Node6&#45;&gt;Node7 -->
<g id="edge6" class="edge">
<title>Node6&#45;&gt;Node7</title>
<path fill="none" stroke="midnightblue" d="M181.94,-58.25C183.79,-50.86 186.38,-40.47 188.65,-31.41"/>
<polygon fill="midnightblue" stroke="midnightblue" points="192.06,-32.19 191.09,-21.64 185.27,-30.5 192.06,-32.19"/>
</g>
<!-- Node8 -->
<g id="node8" class="node">
<title>Node8</title>
<g id="a_node8"><a xlink:title=" ">
<polygon fill="white" stroke="#bfbfbf" points="0,-0.5 0,-21.5 55,-21.5 55,-0.5 0,-0.5"/>
<text text-anchor="middle" x="27.5" y="-7.9" font-family="DejaVuSans" font-size="12.00">stdint.h</text>
</a>
</g>
</g>
<!-- Node6&#45;&gt;Node8 -->
<g id="edge7" class="edge">
<title>Node6&#45;&gt;Node8</title>
<path fill="none" stroke="midnightblue" d="M153.37,-58.37C128.42,-49.18 90.64,-35.26 62.98,-25.07"/>
<polygon fill="midnightblue" stroke="midnightblue" points="63.88,-21.67 53.29,-21.5 61.46,-28.24 63.88,-21.67"/>
</g>
<!-- Node9 -->
<g id="node9" class="node">
<title>Node9</title>
<g id="a_node9"><a xlink:title=" ">
<polygon fill="white" stroke="#bfbfbf" points="84,-0.5 84,-21.5 143,-21.5 143,-0.5 84,-0.5"/>
<text text-anchor="middle" x="113.5" y="-7.9" font-family="DejaVuSans" font-size="12.00">stddef.h</text>
</a>
</g>
</g>
<!-- Node6&#45;&gt;Node9 -->
<g id="edge8" class="edge">
<title>Node6&#45;&gt;Node9</title>
<path fill="none" stroke="midnightblue" d="M168,-58.25C158.26,-49.97 144.07,-37.94 132.62,-28.22"/>
<polygon fill="midnightblue" stroke="midnightblue" points="134.75,-25.44 124.86,-21.64 130.23,-30.78 134.75,-25.44"/>
</g>
<!-- Node10&#45;&gt;Node2 -->
<g id="edge12" class="edge">
<title>Node10&#45;&gt;Node2</title>
<path fill="none" stroke="midnightblue" d="M86.05,-232.36C71.36,-218.81 49.28,-193.59 62.5,-174 79.15,-149.32 111.5,-137.88 137.5,-132.58"/>
<polygon fill="midnightblue" stroke="midnightblue" points="138.25,-136 147.46,-130.77 137,-129.11 138.25,-136"/>
</g>
<!-- Node10&#45;&gt;Node8 -->
<g id="edge11" class="edge">
<title>Node10&#45;&gt;Node8</title>
<path fill="none" stroke="midnightblue" d="M85.67,-232.2C75.99,-223.59 62.63,-210.24 54.5,-196 23.2,-141.13 15.73,-120.99 20.5,-58 21.15,-49.36 22.49,-39.89 23.82,-31.79"/>
<polygon fill="midnightblue" stroke="midnightblue" points="27.29,-32.28 25.57,-21.82 20.39,-31.07 27.29,-32.28"/>
</g>
<!-- Node11 -->
<g id="node11" class="node">
<title>Node11</title>
<g id="a_node11"><a xlink:title=" ">
<polygon fill="white" stroke="#bfbfbf" points="71.5,-174.5 71.5,-195.5 123.5,-195.5 123.5,-174.5 71.5,-174.5"/>
<text text-anchor="middle" x="97.5" y="-181.9" font-family="DejaVuSans" font-size="12.00">stdio.h</text>
</a>
</g>
</g>
<!-- Node10&#45;&gt;Node11 -->
<g id="edge10" class="edge">
<title>Node10&#45;&gt;Node11</title>
<path fill="none" stroke="midnightblue" d="M97.5,-232.25C97.5,-224.94 97.5,-214.69 97.5,-205.7"/>
<polygon fill="midnightblue" stroke="midnightblue" points="101,-205.64 97.5,-195.64 94,-205.64 101,-205.64"/>
</g>
<!-- Node12 -->
<g id="node12" class="node">
<title>Node12</title>
<g id="a_node12"><a xlink:href="charset_8h.html" target="_top" xlink:title=" ">
<polygon fill="white" stroke="black" points="142,-174.5 142,-195.5 207,-195.5 207,-174.5 142,-174.5"/>
<text text-anchor="middle" x="174.5" y="-181.9" font-family="DejaVuSans" font-size="12.00">charset.h</text>
</a>
</g>
</g>
<!-- Node10&#45;&gt;Node12 -->
<g id="edge13" class="edge">
<title>Node10&#45;&gt;Node12</title>
<path fill="none" stroke="midnightblue" d="M110.91,-232.25C122.51,-223.81 139.47,-211.47 152.97,-201.66"/>
<polygon fill="midnightblue" stroke="midnightblue" points="155.21,-204.36 161.24,-195.64 151.1,-198.69 155.21,-204.36"/>
</g>
<!-- Node12&#45;&gt;Node2 -->
<g id="edge14" class="edge">
<title>Node12&#45;&gt;Node2</title>
<path fill="none" stroke="midnightblue" d="M174.85,-174.25C175.11,-166.94 175.48,-156.69 175.8,-147.7"/>
<polygon fill="midnightblue" stroke="midnightblue" points="179.3,-147.76 176.16,-137.64 172.3,-147.51 179.3,-147.76"/>
</g>
</g>
</svg>
