<?xml version="1.0" encoding="UTF-8" standalone="no"?>
<!DOCTYPE svg PUBLIC "-//W3C//DTD SVG 1.1//EN"
 "http://www.w3.org/Graphics/SVG/1.1/DTD/svg11.dtd">
<!-- Generated by graphviz version 2.44.0 ()
 -->
<!-- Title: expand.c Pages: 1 -->
<svg width="975pt" height="726pt"
 viewBox="0.00 0.00 975.00 726.00" xmlns="http://www.w3.org/2000/svg" xmlns:xlink="http://www.w3.org/1999/xlink">
<g id="graph0" class="graph" transform="scale(1 1) rotate(0) translate(4 722)">
<title>expand.c</title>
<polygon fill="white" stroke="transparent" points="-4,4 -4,-722 971,-722 971,4 -4,4"/>
<!-- Node1 -->
<g id="node1" class="node">
<title>Node1</title>
<g id="a_node1"><a xlink:title=" ">
<polygon fill="#bfbfbf" stroke="black" points="419.5,-696.5 419.5,-717.5 484.5,-717.5 484.5,-696.5 419.5,-696.5"/>
<text text-anchor="middle" x="452" y="-703.9" font-family="DejaVuSans" font-size="12.00">expand.c</text>
</a>
</g>
</g>
<!-- Node2 -->
<g id="node2" class="node">
<title>Node2</title>
<g id="a_node2"><a xlink:title=" ">
<polygon fill="white" stroke="#bfbfbf" points="0,-638.5 0,-659.5 54,-659.5 54,-638.5 0,-638.5"/>
<text text-anchor="middle" x="27" y="-645.9" font-family="DejaVuSans" font-size="12.00">stdlib.h</text>
</a>
</g>
</g>
<!-- Node1&#45;&gt;Node2 -->
<g id="edge1" class="edge">
<title>Node1&#45;&gt;Node2</title>
<path fill="none" stroke="midnightblue" d="M419.44,-703.43C353,-697.89 197.16,-683.4 68,-660 66.74,-659.77 65.47,-659.53 64.18,-659.27"/>
<polygon fill="midnightblue" stroke="midnightblue" points="64.76,-655.82 54.25,-657.13 63.29,-662.66 64.76,-655.82"/>
</g>
<!-- Node3 -->
<g id="node3" class="node">
<title>Node3</title>
<g id="a_node3"><a xlink:href="tex_8h.html" target="_top" xlink:title=" ">
<polygon fill="white" stroke="black" points="566,-290.5 566,-311.5 608,-311.5 608,-290.5 566,-290.5"/>
<text text-anchor="middle" x="587" y="-297.9" font-family="DejaVuSans" font-size="12.00">tex.h</text>
</a>
</g>
</g>
<!-- Node1&#45;&gt;Node3 -->
<g id="edge2" class="edge">
<title>Node1&#45;&gt;Node3</title>
<path fill="none" stroke="midnightblue" d="M484.57,-704.67C518.7,-701.54 571.77,-691.51 604,-660 623.4,-641.04 618.72,-628.79 623,-602 639.84,-496.51 607.11,-369.02 593.02,-321.28"/>
<polygon fill="midnightblue" stroke="midnightblue" points="596.34,-320.18 590.09,-311.62 589.64,-322.21 596.34,-320.18"/>
</g>
<!-- Node8 -->
<g id="node8" class="node">
<title>Node8</title>
<g id="a_node8"><a xlink:href="box_8h.html" target="_top" xlink:title=" ">
<polygon fill="white" stroke="black" points="442,-174.5 442,-195.5 488,-195.5 488,-174.5 442,-174.5"/>
<text text-anchor="middle" x="465" y="-181.9" font-family="DejaVuSans" font-size="12.00">box.h</text>
</a>
</g>
</g>
<!-- Node1&#45;&gt;Node8 -->
<g id="edge51" class="edge">
<title>Node1&#45;&gt;Node8</title>
<path fill="none" stroke="midnightblue" d="M421.28,-696.44C404.09,-689.33 384.14,-677.75 374,-660 369.15,-651.51 373.25,-647.75 374,-638 387.12,-467.85 441.5,-267.61 459.32,-205.41"/>
<polygon fill="midnightblue" stroke="midnightblue" points="462.7,-206.31 462.12,-195.74 455.98,-204.37 462.7,-206.31"/>
</g>
<!-- Node13 -->
<g id="node13" class="node">
<title>Node13</title>
<g id="a_node13"><a xlink:href="texmac_8h.html" target="_top" xlink:title=" ">
<polygon fill="white" stroke="black" points="549.5,-580.5 549.5,-601.5 614.5,-601.5 614.5,-580.5 549.5,-580.5"/>
<text text-anchor="middle" x="582" y="-587.9" font-family="DejaVuSans" font-size="12.00">texmac.h</text>
</a>
</g>
</g>
<!-- Node1&#45;&gt;Node13 -->
<g id="edge15" class="edge">
<title>Node1&#45;&gt;Node13</title>
<path fill="none" stroke="midnightblue" d="M484.75,-704.96C516.51,-701.99 563.13,-692.03 586,-660 595.95,-646.06 593.36,-626.13 589.24,-611.44"/>
<polygon fill="midnightblue" stroke="midnightblue" points="592.54,-610.27 586.12,-601.84 585.88,-612.43 592.54,-610.27"/>
</g>
<!-- Node14 -->
<g id="node14" class="node">
<title>Node14</title>
<g id="a_node14"><a xlink:href="mem_8h.html" target="_top" xlink:title=" ">
<polygon fill="white" stroke="black" points="506.5,-522.5 506.5,-543.5 559.5,-543.5 559.5,-522.5 506.5,-522.5"/>
<text text-anchor="middle" x="533" y="-529.9" font-family="DejaVuSans" font-size="12.00">mem.h</text>
</a>
</g>
</g>
<!-- Node1&#45;&gt;Node14 -->
<g id="edge50" class="edge">
<title>Node1&#45;&gt;Node14</title>
<path fill="none" stroke="midnightblue" d="M456.59,-696.26C469.62,-668.59 507.03,-589.15 524.19,-552.7"/>
<polygon fill="midnightblue" stroke="midnightblue" points="527.37,-554.17 528.46,-543.63 521.04,-551.19 527.37,-554.17"/>
</g>
<!-- Node15 -->
<g id="node15" class="node">
<title>Node15</title>
<g id="a_node15"><a xlink:href="global_8h.html" target="_top" xlink:title=" ">
<polygon fill="white" stroke="black" points="270,-464.5 270,-485.5 328,-485.5 328,-464.5 270,-464.5"/>
<text text-anchor="middle" x="299" y="-471.9" font-family="DejaVuSans" font-size="12.00">global.h</text>
</a>
</g>
</g>
<!-- Node1&#45;&gt;Node15 -->
<g id="edge26" class="edge">
<title>Node1&#45;&gt;Node15</title>
<path fill="none" stroke="midnightblue" d="M419.37,-705.53C385.84,-703.11 334.96,-693.66 309,-660 271.46,-611.33 284.64,-532.08 293.55,-495.56"/>
<polygon fill="midnightblue" stroke="midnightblue" points="296.99,-496.24 296.11,-485.68 290.21,-494.48 296.99,-496.24"/>
</g>
<!-- Node17 -->
<g id="node17" class="node">
<title>Node17</title>
<g id="a_node17"><a xlink:href="scan_8h.html" target="_top" xlink:title=" ">
<polygon fill="white" stroke="black" points="209,-406.5 209,-427.5 261,-427.5 261,-406.5 209,-406.5"/>
<text text-anchor="middle" x="235" y="-413.9" font-family="DejaVuSans" font-size="12.00">scan.h</text>
</a>
</g>
</g>
<!-- Node1&#45;&gt;Node17 -->
<g id="edge41" class="edge">
<title>Node1&#45;&gt;Node17</title>
<path fill="none" stroke="midnightblue" d="M419.19,-703.12C360.12,-695.95 242,-671.65 242,-592 242,-592 242,-592 242,-532 242,-498.92 239.03,-460.55 236.96,-437.82"/>
<polygon fill="midnightblue" stroke="midnightblue" points="240.43,-437.37 236,-427.75 233.46,-438.03 240.43,-437.37"/>
</g>
<!-- Node18 -->
<g id="node18" class="node">
<title>Node18</title>
<g id="a_node18"><a xlink:href="lexer_8h.html" target="_top" xlink:title=" ">
<polygon fill="white" stroke="black" points="193,-348.5 193,-369.5 245,-369.5 245,-348.5 193,-348.5"/>
<text text-anchor="middle" x="219" y="-355.9" font-family="DejaVuSans" font-size="12.00">lexer.h</text>
</a>
</g>
</g>
<!-- Node1&#45;&gt;Node18 -->
<g id="edge29" class="edge">
<title>Node1&#45;&gt;Node18</title>
<path fill="none" stroke="midnightblue" d="M419.39,-702.28C369.99,-696.02 279.46,-681.86 256,-660 232.4,-638.01 213.56,-553.64 200,-428 198.95,-418.28 198.1,-415.59 200,-406 201.86,-396.6 205.68,-386.71 209.41,-378.52"/>
<polygon fill="midnightblue" stroke="midnightblue" points="212.56,-380.05 213.77,-369.52 206.26,-376.99 212.56,-380.05"/>
</g>
<!-- Node19 -->
<g id="node19" class="node">
<title>Node19</title>
<g id="a_node19"><a xlink:href="macros_8h.html" target="_top" xlink:title=" ">
<polygon fill="white" stroke="black" points="389.5,-638.5 389.5,-659.5 454.5,-659.5 454.5,-638.5 389.5,-638.5"/>
<text text-anchor="middle" x="422" y="-645.9" font-family="DejaVuSans" font-size="12.00">macros.h</text>
</a>
</g>
</g>
<!-- Node1&#45;&gt;Node19 -->
<g id="edge25" class="edge">
<title>Node1&#45;&gt;Node19</title>
<path fill="none" stroke="midnightblue" d="M446.77,-696.25C442.69,-688.62 436.89,-677.79 431.93,-668.53"/>
<polygon fill="midnightblue" stroke="midnightblue" points="434.97,-666.8 427.17,-659.64 428.8,-670.11 434.97,-666.8"/>
</g>
<!-- Node20 -->
<g id="node20" class="node">
<title>Node20</title>
<g id="a_node20"><a xlink:href="texfunc_8h.html" target="_top" xlink:title=" ">
<polygon fill="white" stroke="black" points="110.5,-580.5 110.5,-601.5 175.5,-601.5 175.5,-580.5 110.5,-580.5"/>
<text text-anchor="middle" x="143" y="-587.9" font-family="DejaVuSans" font-size="12.00">texfunc.h</text>
</a>
</g>
</g>
<!-- Node1&#45;&gt;Node20 -->
<g id="edge27" class="edge">
<title>Node1&#45;&gt;Node20</title>
<path fill="none" stroke="midnightblue" d="M419.03,-703.38C357.38,-697.98 227.52,-684.05 190,-660 171.76,-648.31 158.69,-626.77 151.04,-611.05"/>
<polygon fill="midnightblue" stroke="midnightblue" points="154.12,-609.38 146.79,-601.73 147.75,-612.28 154.12,-609.38"/>
</g>
<!-- Node21 -->
<g id="node21" class="node">
<title>Node21</title>
<g id="a_node21"><a xlink:href="printout_8h.html" target="_top" xlink:title=" ">
<polygon fill="white" stroke="black" points="511,-638.5 511,-659.5 577,-659.5 577,-638.5 511,-638.5"/>
<text text-anchor="middle" x="544" y="-645.9" font-family="DejaVuSans" font-size="12.00">printout.h</text>
</a>
</g>
</g>
<!-- Node1&#45;&gt;Node21 -->
<g id="edge30" class="edge">
<title>Node1&#45;&gt;Node21</title>
<path fill="none" stroke="midnightblue" d="M468.03,-696.25C482.14,-687.65 502.93,-675 519.19,-665.1"/>
<polygon fill="midnightblue" stroke="midnightblue" points="521.44,-667.83 528.16,-659.64 517.8,-661.85 521.44,-667.83"/>
</g>
<!-- Node22 -->
<g id="node22" class="node">
<title>Node22</title>
<g id="a_node22"><a xlink:href="print_8h.html" target="_top" xlink:title=" ">
<polygon fill="white" stroke="black" points="671,-638.5 671,-659.5 721,-659.5 721,-638.5 671,-638.5"/>
<text text-anchor="middle" x="696" y="-645.9" font-family="DejaVuSans" font-size="12.00">print.h</text>
</a>
</g>
</g>
<!-- Node1&#45;&gt;Node22 -->
<g id="edge31" class="edge">
<title>Node1&#45;&gt;Node22</title>
<path fill="none" stroke="midnightblue" d="M484.73,-698.97C525.26,-690.2 596.35,-674.58 657,-660 658.26,-659.7 659.55,-659.38 660.84,-659.07"/>
<polygon fill="midnightblue" stroke="midnightblue" points="662,-662.39 670.85,-656.57 660.3,-655.59 662,-662.39"/>
</g>
<!-- Node23 -->
<g id="node23" class="node">
<title>Node23</title>
<g id="a_node23"><a xlink:href="fonts_8h.html" target="_top" xlink:title=" ">
<polygon fill="white" stroke="black" points="68,-232.5 68,-253.5 120,-253.5 120,-232.5 68,-232.5"/>
<text text-anchor="middle" x="94" y="-239.9" font-family="DejaVuSans" font-size="12.00">fonts.h</text>
</a>
</g>
</g>
<!-- Node1&#45;&gt;Node23 -->
<g id="edge36" class="edge">
<title>Node1&#45;&gt;Node23</title>
<path fill="none" stroke="midnightblue" d="M419.31,-706.29C364.17,-705.61 250.25,-699.07 164,-660 120.87,-640.46 82,-639.35 82,-592 82,-592 82,-592 82,-358 82,-324.8 87.1,-286.46 90.65,-263.78"/>
<polygon fill="midnightblue" stroke="midnightblue" points="94.13,-264.16 92.28,-253.72 87.22,-263.03 94.13,-264.16"/>
</g>
<!-- Node24 -->
<g id="node24" class="node">
<title>Node24</title>
<g id="a_node24"><a xlink:href="texmath_8h.html" target="_top" xlink:title=" ">
<polygon fill="white" stroke="black" points="785,-522.5 785,-543.5 853,-543.5 853,-522.5 785,-522.5"/>
<text text-anchor="middle" x="819" y="-529.9" font-family="DejaVuSans" font-size="12.00">texmath.h</text>
</a>
</g>
</g>
<!-- Node1&#45;&gt;Node24 -->
<g id="edge39" class="edge">
<title>Node1&#45;&gt;Node24</title>
<path fill="none" stroke="midnightblue" d="M484.61,-706.47C562.43,-706.88 755.81,-703.39 800,-660 828.3,-632.21 826.28,-581.54 822.53,-553.67"/>
<polygon fill="midnightblue" stroke="midnightblue" points="825.95,-552.91 820.95,-543.57 819.03,-553.99 825.95,-552.91"/>
</g>
<!-- Node25 -->
<g id="node25" class="node">
<title>Node25</title>
<g id="a_node25"><a xlink:href="error_8h.html" target="_top" xlink:title=" ">
<polygon fill="white" stroke="black" points="739.5,-638.5 739.5,-659.5 790.5,-659.5 790.5,-638.5 739.5,-638.5"/>
<text text-anchor="middle" x="765" y="-645.9" font-family="DejaVuSans" font-size="12.00">error.h</text>
</a>
</g>
</g>
<!-- Node1&#45;&gt;Node25 -->
<g id="edge42" class="edge">
<title>Node1&#45;&gt;Node25</title>
<path fill="none" stroke="midnightblue" d="M484.76,-701.82C535.2,-695.11 635.05,-680.77 729.47,-659.9"/>
<polygon fill="midnightblue" stroke="midnightblue" points="730.48,-663.26 739.47,-657.66 728.95,-656.43 730.48,-663.26"/>
</g>
<!-- Node26 -->
<g id="node26" class="node">
<title>Node26</title>
<g id="a_node26"><a xlink:href="hash_8h.html" target="_top" xlink:title=" ">
<polygon fill="white" stroke="black" points="433.5,-348.5 433.5,-369.5 486.5,-369.5 486.5,-348.5 433.5,-348.5"/>
<text text-anchor="middle" x="460" y="-355.9" font-family="DejaVuSans" font-size="12.00">hash.h</text>
</a>
</g>
</g>
<!-- Node1&#45;&gt;Node26 -->
<g id="edge43" class="edge">
<title>Node1&#45;&gt;Node26</title>
<path fill="none" stroke="midnightblue" d="M425.04,-696.49C408.83,-689.22 389.55,-677.43 380,-660 375.3,-651.42 378.63,-647.68 380,-638 394.09,-538.09 435.33,-423.79 452.43,-379.21"/>
<polygon fill="midnightblue" stroke="midnightblue" points="455.7,-380.47 456.06,-369.88 449.18,-377.93 455.7,-380.47"/>
</g>
<!-- Node28 -->
<g id="node28" class="node">
<title>Node28</title>
<g id="a_node28"><a xlink:href="io_8h.html" target="_top" xlink:title=" ">
<polygon fill="white" stroke="black" points="847,-638.5 847,-659.5 883,-659.5 883,-638.5 847,-638.5"/>
<text text-anchor="middle" x="865" y="-645.9" font-family="DejaVuSans" font-size="12.00">io.h</text>
</a>
</g>
</g>
<!-- Node1&#45;&gt;Node28 -->
<g id="edge52" class="edge">
<title>Node1&#45;&gt;Node28</title>
<path fill="none" stroke="midnightblue" d="M484.7,-704.07C551.01,-699.72 705.81,-687.31 833,-660 834.28,-659.73 835.58,-659.42 836.89,-659.1"/>
<polygon fill="midnightblue" stroke="midnightblue" points="838.19,-662.37 846.88,-656.29 836.3,-655.63 838.19,-662.37"/>
</g>
<!-- Node29 -->
<g id="node29" class="node">
<title>Node29</title>
<g id="a_node29"><a xlink:href="expand_8h.html" target="_top" xlink:title=" ">
<polygon fill="white" stroke="black" points="901,-638.5 901,-659.5 967,-659.5 967,-638.5 901,-638.5"/>
<text text-anchor="middle" x="934" y="-645.9" font-family="DejaVuSans" font-size="12.00">expand.h</text>
</a>
</g>
</g>
<!-- Node1&#45;&gt;Node29 -->
<g id="edge53" class="edge">
<title>Node1&#45;&gt;Node29</title>
<path fill="none" stroke="midnightblue" d="M484.76,-704.03C556.54,-699.41 733.15,-686.34 890.29,-660.11"/>
<polygon fill="midnightblue" stroke="midnightblue" points="891.33,-663.48 900.61,-658.36 890.17,-656.58 891.33,-663.48"/>
</g>
<!-- Node4 -->
<g id="node4" class="node">
<title>Node4</title>
<g id="a_node4"><a xlink:href="tex__types_8h.html" target="_top" xlink:title=" ">
<polygon fill="white" stroke="black" points="604.5,-58.5 604.5,-79.5 681.5,-79.5 681.5,-58.5 604.5,-58.5"/>
<text text-anchor="middle" x="643" y="-65.9" font-family="DejaVuSans" font-size="12.00">tex_types.h</text>
</a>
</g>
</g>
<!-- Node3&#45;&gt;Node4 -->
<g id="edge3" class="edge">
<title>Node3&#45;&gt;Node4</title>
<path fill="none" stroke="midnightblue" d="M597.77,-290.18C606.46,-281.57 618.15,-268.22 624,-254 647.04,-197.96 646.44,-124.58 644.53,-89.86"/>
<polygon fill="midnightblue" stroke="midnightblue" points="648.01,-89.4 643.86,-79.65 641.02,-89.85 648.01,-89.4"/>
</g>
<!-- Node7 -->
<g id="node7" class="node">
<title>Node7</title>
<g id="a_node7"><a xlink:href="tex__constant_8h.html" target="_top" xlink:title=" ">
<polygon fill="white" stroke="black" points="521,-232.5 521,-253.5 615,-253.5 615,-232.5 521,-232.5"/>
<text text-anchor="middle" x="568" y="-239.9" font-family="DejaVuSans" font-size="12.00">tex_constant.h</text>
</a>
</g>
</g>
<!-- Node3&#45;&gt;Node7 -->
<g id="edge6" class="edge">
<title>Node3&#45;&gt;Node7</title>
<path fill="none" stroke="midnightblue" d="M583.69,-290.25C581.16,-282.78 577.58,-272.24 574.49,-263.11"/>
<polygon fill="midnightblue" stroke="midnightblue" points="577.8,-261.99 571.27,-253.64 571.17,-264.24 577.8,-261.99"/>
</g>
<!-- Node5 -->
<g id="node5" class="node">
<title>Node5</title>
<g id="a_node5"><a xlink:title=" ">
<polygon fill="white" stroke="#bfbfbf" points="610.5,-0.5 610.5,-21.5 675.5,-21.5 675.5,-0.5 610.5,-0.5"/>
<text text-anchor="middle" x="643" y="-7.9" font-family="DejaVuSans" font-size="12.00">stdbool.h</text>
</a>
</g>
</g>
<!-- Node4&#45;&gt;Node5 -->
<g id="edge4" class="edge">
<title>Node4&#45;&gt;Node5</title>
<path fill="none" stroke="midnightblue" d="M643,-58.25C643,-50.94 643,-40.69 643,-31.7"/>
<polygon fill="midnightblue" stroke="midnightblue" points="646.5,-31.64 643,-21.64 639.5,-31.64 646.5,-31.64"/>
</g>
<!-- Node6 -->
<g id="node6" class="node">
<title>Node6</title>
<g id="a_node6"><a xlink:title=" ">
<polygon fill="white" stroke="#bfbfbf" points="494.5,-0.5 494.5,-21.5 549.5,-21.5 549.5,-0.5 494.5,-0.5"/>
<text text-anchor="middle" x="522" y="-7.9" font-family="DejaVuSans" font-size="12.00">stdint.h</text>
</a>
</g>
</g>
<!-- Node4&#45;&gt;Node6 -->
<g id="edge5" class="edge">
<title>Node4&#45;&gt;Node6</title>
<path fill="none" stroke="midnightblue" d="M622.2,-58.37C602.78,-49.38 573.58,-35.87 551.7,-25.75"/>
<polygon fill="midnightblue" stroke="midnightblue" points="553.07,-22.52 542.53,-21.5 550.13,-28.88 553.07,-22.52"/>
</g>
<!-- Node7&#45;&gt;Node8 -->
<g id="edge7" class="edge">
<title>Node7&#45;&gt;Node8</title>
<path fill="none" stroke="midnightblue" d="M550.06,-232.25C533.96,-223.49 510.11,-210.53 491.76,-200.55"/>
<polygon fill="midnightblue" stroke="midnightblue" points="493.19,-197.34 482.74,-195.64 489.85,-203.49 493.19,-197.34"/>
</g>
<!-- Node9 -->
<g id="node9" class="node">
<title>Node9</title>
<g id="a_node9"><a xlink:href="str_8h.html" target="_top" xlink:title=" ">
<polygon fill="white" stroke="black" points="394.5,-116.5 394.5,-137.5 433.5,-137.5 433.5,-116.5 394.5,-116.5"/>
<text text-anchor="middle" x="414" y="-123.9" font-family="DejaVuSans" font-size="12.00">str.h</text>
</a>
</g>
</g>
<!-- Node8&#45;&gt;Node9 -->
<g id="edge8" class="edge">
<title>Node8&#45;&gt;Node9</title>
<path fill="none" stroke="midnightblue" d="M456.12,-174.25C448.8,-166.22 438.26,-154.64 429.55,-145.08"/>
<polygon fill="midnightblue" stroke="midnightblue" points="432.1,-142.68 422.78,-137.64 426.93,-147.39 432.1,-142.68"/>
</g>
<!-- Node9&#45;&gt;Node4 -->
<g id="edge14" class="edge">
<title>Node9&#45;&gt;Node4</title>
<path fill="none" stroke="midnightblue" d="M433.52,-121.23C468.84,-112.59 544.3,-94.14 594.34,-81.9"/>
<polygon fill="midnightblue" stroke="midnightblue" points="595.42,-85.24 604.3,-79.46 593.76,-78.44 595.42,-85.24"/>
</g>
<!-- Node9&#45;&gt;Node6 -->
<g id="edge10" class="edge">
<title>Node9&#45;&gt;Node6</title>
<path fill="none" stroke="midnightblue" d="M423.21,-116.28C441.54,-96.93 482.81,-53.37 505.78,-29.12"/>
<polygon fill="midnightblue" stroke="midnightblue" points="508.48,-31.36 512.82,-21.69 503.4,-26.55 508.48,-31.36"/>
</g>
<!-- Node10 -->
<g id="node10" class="node">
<title>Node10</title>
<g id="a_node10"><a xlink:title=" ">
<polygon fill="white" stroke="#bfbfbf" points="69,-0.5 69,-21.5 121,-21.5 121,-0.5 69,-0.5"/>
<text text-anchor="middle" x="95" y="-7.9" font-family="DejaVuSans" font-size="12.00">stdio.h</text>
</a>
</g>
</g>
<!-- Node9&#45;&gt;Node10 -->
<g id="edge9" class="edge">
<title>Node9&#45;&gt;Node10</title>
<path fill="none" stroke="midnightblue" d="M394.16,-124.97C337.36,-121.67 175.49,-109.81 133,-80 116.45,-68.39 106.27,-47.15 100.66,-31.49"/>
<polygon fill="midnightblue" stroke="midnightblue" points="103.91,-30.15 97.49,-21.72 97.25,-32.31 103.91,-30.15"/>
</g>
<!-- Node11 -->
<g id="node11" class="node">
<title>Node11</title>
<g id="a_node11"><a xlink:href="global__const_8h.html" target="_top" xlink:title=" ">
<polygon fill="white" stroke="black" points="142.5,-58.5 142.5,-79.5 235.5,-79.5 235.5,-58.5 142.5,-58.5"/>
<text text-anchor="middle" x="189" y="-65.9" font-family="DejaVuSans" font-size="12.00">global_const.h</text>
</a>
</g>
</g>
<!-- Node9&#45;&gt;Node11 -->
<g id="edge11" class="edge">
<title>Node9&#45;&gt;Node11</title>
<path fill="none" stroke="midnightblue" d="M394.43,-121.13C359.62,-112.46 286.01,-94.15 237.03,-81.95"/>
<polygon fill="midnightblue" stroke="midnightblue" points="237.83,-78.55 227.28,-79.53 236.13,-85.34 237.83,-78.55"/>
</g>
<!-- Node11&#45;&gt;Node10 -->
<g id="edge13" class="edge">
<title>Node11&#45;&gt;Node10</title>
<path fill="none" stroke="midnightblue" d="M172.63,-58.25C158.07,-49.57 136.57,-36.76 119.88,-26.82"/>
<polygon fill="midnightblue" stroke="midnightblue" points="121.57,-23.75 111.19,-21.64 117.99,-29.77 121.57,-23.75"/>
</g>
<!-- Node12 -->
<g id="node12" class="node">
<title>Node12</title>
<g id="a_node12"><a xlink:title=" ">
<polygon fill="white" stroke="#bfbfbf" points="159.5,-0.5 159.5,-21.5 218.5,-21.5 218.5,-0.5 159.5,-0.5"/>
<text text-anchor="middle" x="189" y="-7.9" font-family="DejaVuSans" font-size="12.00">assert.h</text>
</a>
</g>
</g>
<!-- Node11&#45;&gt;Node12 -->
<g id="edge12" class="edge">
<title>Node11&#45;&gt;Node12</title>
<path fill="none" stroke="midnightblue" d="M189,-58.25C189,-50.94 189,-40.69 189,-31.7"/>
<polygon fill="midnightblue" stroke="midnightblue" points="192.5,-31.64 189,-21.64 185.5,-31.64 192.5,-31.64"/>
</g>
<!-- Node13&#45;&gt;Node14 -->
<g id="edge16" class="edge">
<title>Node13&#45;&gt;Node14</title>
<path fill="none" stroke="midnightblue" d="M573.46,-580.25C566.51,-572.3 556.51,-560.87 548.19,-551.37"/>
<polygon fill="midnightblue" stroke="midnightblue" points="550.66,-548.86 541.44,-543.64 545.39,-553.47 550.66,-548.86"/>
</g>
<!-- Node14&#45;&gt;Node4 -->
<g id="edge17" class="edge">
<title>Node14&#45;&gt;Node4</title>
<path fill="none" stroke="midnightblue" d="M539.35,-522.2C555.02,-497.61 595.84,-430.88 618,-370 645.08,-295.62 644.8,-274.36 656,-196 661.04,-160.76 666.27,-151.04 660,-116 658.36,-106.81 655,-97.05 651.7,-88.89"/>
<polygon fill="midnightblue" stroke="midnightblue" points="654.86,-87.38 647.68,-79.59 648.43,-90.16 654.86,-87.38"/>
</g>
<!-- Node14&#45;&gt;Node15 -->
<g id="edge18" class="edge">
<title>Node14&#45;&gt;Node15</title>
<path fill="none" stroke="midnightblue" d="M506.16,-525.58C464.89,-515.7 385.65,-496.74 338.03,-485.34"/>
<polygon fill="midnightblue" stroke="midnightblue" points="338.63,-481.88 328.09,-482.96 337,-488.69 338.63,-481.88"/>
</g>
<!-- Node15&#45;&gt;Node9 -->
<g id="edge20" class="edge">
<title>Node15&#45;&gt;Node9</title>
<path fill="none" stroke="midnightblue" d="M297.57,-464.27C294.8,-444.61 289,-398.74 289,-360 289,-360 289,-360 289,-242 289,-190.23 348.25,-155.71 385.17,-139.23"/>
<polygon fill="midnightblue" stroke="midnightblue" points="386.66,-142.39 394.47,-135.24 383.9,-135.96 386.66,-142.39"/>
</g>
<!-- Node16 -->
<g id="node16" class="node">
<title>Node16</title>
<g id="a_node16"><a xlink:title=" ">
<polygon fill="white" stroke="#bfbfbf" points="317,-406.5 317,-427.5 379,-427.5 379,-406.5 317,-406.5"/>
<text text-anchor="middle" x="348" y="-413.9" font-family="DejaVuSans" font-size="12.00">setjmp.h</text>
</a>
</g>
</g>
<!-- Node15&#45;&gt;Node16 -->
<g id="edge19" class="edge">
<title>Node15&#45;&gt;Node16</title>
<path fill="none" stroke="midnightblue" d="M307.54,-464.25C314.49,-456.3 324.49,-444.87 332.81,-435.37"/>
<polygon fill="midnightblue" stroke="midnightblue" points="335.61,-437.47 339.56,-427.64 330.34,-432.86 335.61,-437.47"/>
</g>
<!-- Node15&#45;&gt;Node17 -->
<g id="edge21" class="edge">
<title>Node15&#45;&gt;Node17</title>
<path fill="none" stroke="midnightblue" d="M287.85,-464.25C278.49,-456.05 264.91,-444.17 253.87,-434.51"/>
<polygon fill="midnightblue" stroke="midnightblue" points="255.85,-431.59 246.02,-427.64 251.24,-436.86 255.85,-431.59"/>
</g>
<!-- Node17&#45;&gt;Node18 -->
<g id="edge22" class="edge">
<title>Node17&#45;&gt;Node18</title>
<path fill="none" stroke="midnightblue" d="M232.21,-406.25C230.1,-398.86 227.13,-388.47 224.55,-379.41"/>
<polygon fill="midnightblue" stroke="midnightblue" points="227.87,-378.3 221.76,-369.64 221.14,-380.22 227.87,-378.3"/>
</g>
<!-- Node18&#45;&gt;Node3 -->
<g id="edge24" class="edge">
<title>Node18&#45;&gt;Node3</title>
<path fill="none" stroke="midnightblue" d="M245.25,-354.36C298.84,-346.87 424.66,-329.03 530,-312 538.46,-310.63 547.61,-309.07 556.06,-307.58"/>
<polygon fill="midnightblue" stroke="midnightblue" points="556.67,-311.03 565.91,-305.84 555.45,-304.14 556.67,-311.03"/>
</g>
<!-- Node18&#45;&gt;Node10 -->
<g id="edge23" class="edge">
<title>Node18&#45;&gt;Node10</title>
<path fill="none" stroke="midnightblue" d="M192.68,-353.93C142.48,-344.51 38,-316.23 38,-244 38,-244 38,-244 38,-126 38,-88.46 63.03,-50.62 79.91,-29.36"/>
<polygon fill="midnightblue" stroke="midnightblue" points="82.68,-31.5 86.34,-21.55 77.28,-27.05 82.68,-31.5"/>
</g>
<!-- Node20&#45;&gt;Node9 -->
<g id="edge28" class="edge">
<title>Node20&#45;&gt;Node9</title>
<path fill="none" stroke="midnightblue" d="M143.15,-580.37C143.99,-546.93 149.37,-433.28 184,-348 219.35,-260.96 231.05,-233.18 304,-174 327.81,-154.69 360.88,-142.33 384.53,-135.34"/>
<polygon fill="midnightblue" stroke="midnightblue" points="385.67,-138.65 394.35,-132.58 383.78,-131.91 385.67,-138.65"/>
</g>
<!-- Node22&#45;&gt;Node3 -->
<g id="edge33" class="edge">
<title>Node22&#45;&gt;Node3</title>
<path fill="none" stroke="midnightblue" d="M699.3,-638.37C705.66,-618.91 719,-573.37 719,-534 719,-534 719,-534 719,-474 719,-403.61 648.56,-344.27 610.59,-317.41"/>
<polygon fill="midnightblue" stroke="midnightblue" points="612.36,-314.37 602.14,-311.58 608.39,-320.14 612.36,-314.37"/>
</g>
<!-- Node22&#45;&gt;Node4 -->
<g id="edge32" class="edge">
<title>Node22&#45;&gt;Node4</title>
<path fill="none" stroke="midnightblue" d="M705.53,-638.27C722.69,-619.67 757,-577.1 757,-534 757,-534 757,-534 757,-184 757,-136.8 707.53,-102.31 673.76,-84.27"/>
<polygon fill="midnightblue" stroke="midnightblue" points="675.21,-81.08 664.71,-79.63 672.01,-87.31 675.21,-81.08"/>
</g>
<!-- Node22&#45;&gt;Node9 -->
<g id="edge35" class="edge">
<title>Node22&#45;&gt;Node9</title>
<path fill="none" stroke="midnightblue" d="M693.85,-638.3C689.7,-618.7 681,-572.93 681,-534 681,-534 681,-534 681,-474 681,-363.5 692.72,-318.53 624,-232 577.52,-173.48 489.62,-145.39 443.67,-134.2"/>
<polygon fill="midnightblue" stroke="midnightblue" points="444.27,-130.74 433.74,-131.88 442.68,-137.56 444.27,-130.74"/>
</g>
<!-- Node22&#45;&gt;Node13 -->
<g id="edge34" class="edge">
<title>Node22&#45;&gt;Node13</title>
<path fill="none" stroke="midnightblue" d="M676.4,-638.37C658.27,-629.46 631.09,-616.11 610.54,-606.02"/>
<polygon fill="midnightblue" stroke="midnightblue" points="611.86,-602.77 601.34,-601.5 608.77,-609.05 611.86,-602.77"/>
</g>
<!-- Node23&#45;&gt;Node10 -->
<g id="edge37" class="edge">
<title>Node23&#45;&gt;Node10</title>
<path fill="none" stroke="midnightblue" d="M94.04,-232.41C94.19,-197.85 94.71,-79.24 94.91,-31.82"/>
<polygon fill="midnightblue" stroke="midnightblue" points="98.41,-31.65 94.96,-21.63 91.41,-31.62 98.41,-31.65"/>
</g>
<!-- Node23&#45;&gt;Node11 -->
<g id="edge38" class="edge">
<title>Node23&#45;&gt;Node11</title>
<path fill="none" stroke="midnightblue" d="M99.38,-232.26C114.66,-204.59 158.54,-125.15 178.67,-88.7"/>
<polygon fill="midnightblue" stroke="midnightblue" points="181.91,-90.08 183.68,-79.63 175.78,-86.69 181.91,-90.08"/>
</g>
<!-- Node24&#45;&gt;Node4 -->
<g id="edge40" class="edge">
<title>Node24&#45;&gt;Node4</title>
<path fill="none" stroke="midnightblue" d="M817.28,-522.28C813.96,-502.64 807,-456.81 807,-418 807,-418 807,-418 807,-184 807,-149.8 796.83,-138.41 771,-116 748.72,-96.67 717.7,-85.25 691.78,-78.63"/>
<polygon fill="midnightblue" stroke="midnightblue" points="692.3,-75.15 681.76,-76.24 690.68,-81.96 692.3,-75.15"/>
</g>
<!-- Node26&#45;&gt;Node3 -->
<g id="edge44" class="edge">
<title>Node26&#45;&gt;Node3</title>
<path fill="none" stroke="midnightblue" d="M481.83,-348.37C502.43,-339.29 533.51,-325.58 556.55,-315.43"/>
<polygon fill="midnightblue" stroke="midnightblue" points="558.14,-318.55 565.87,-311.32 555.31,-312.15 558.14,-318.55"/>
</g>
<!-- Node26&#45;&gt;Node9 -->
<g id="edge45" class="edge">
<title>Node26&#45;&gt;Node9</title>
<path fill="none" stroke="midnightblue" d="M458.08,-348.41C451.16,-313.78 427.35,-194.74 417.9,-147.52"/>
<polygon fill="midnightblue" stroke="midnightblue" points="421.32,-146.75 415.93,-137.63 414.46,-148.12 421.32,-146.75"/>
</g>
<!-- Node26&#45;&gt;Node23 -->
<g id="edge46" class="edge">
<title>Node26&#45;&gt;Node23</title>
<path fill="none" stroke="midnightblue" d="M433.38,-349.71C368.65,-329.55 202.96,-277.94 129.73,-255.13"/>
<polygon fill="midnightblue" stroke="midnightblue" points="130.61,-251.74 120.03,-252.11 128.53,-258.42 130.61,-251.74"/>
</g>
<!-- Node27 -->
<g id="node27" class="node">
<title>Node27</title>
<g id="a_node27"><a xlink:href="eqtb_8h.html" target="_top" xlink:title=" ">
<polygon fill="white" stroke="black" points="471,-290.5 471,-311.5 521,-311.5 521,-290.5 471,-290.5"/>
<text text-anchor="middle" x="496" y="-297.9" font-family="DejaVuSans" font-size="12.00">eqtb.h</text>
</a>
</g>
</g>
<!-- Node26&#45;&gt;Node27 -->
<g id="edge47" class="edge">
<title>Node26&#45;&gt;Node27</title>
<path fill="none" stroke="midnightblue" d="M466.27,-348.25C471.23,-340.54 478.28,-329.56 484.28,-320.23"/>
<polygon fill="midnightblue" stroke="midnightblue" points="487.34,-321.95 489.8,-311.64 481.45,-318.16 487.34,-321.95"/>
</g>
<!-- Node27&#45;&gt;Node4 -->
<g id="edge48" class="edge">
<title>Node27&#45;&gt;Node4</title>
<path fill="none" stroke="midnightblue" d="M496.91,-290.31C498.48,-276.69 502.5,-251.39 512,-232 541.38,-172.03 596.53,-114.29 624.99,-86.76"/>
<polygon fill="midnightblue" stroke="midnightblue" points="627.44,-89.26 632.26,-79.83 622.61,-84.19 627.44,-89.26"/>
</g>
<!-- Node27&#45;&gt;Node7 -->
<g id="edge49" class="edge">
<title>Node27&#45;&gt;Node7</title>
<path fill="none" stroke="midnightblue" d="M508.54,-290.25C519.28,-281.89 534.95,-269.71 547.5,-259.94"/>
<polygon fill="midnightblue" stroke="midnightblue" points="549.86,-262.54 555.6,-253.64 545.56,-257.02 549.86,-262.54"/>
</g>
</g>
</svg>
