<?xml version="1.0" encoding="UTF-8" standalone="no"?>
<!DOCTYPE svg PUBLIC "-//W3C//DTD SVG 1.1//EN"
 "http://www.w3.org/Graphics/SVG/1.1/DTD/svg11.dtd">
<!-- Generated by graphviz version 2.44.0 ()
 -->
<!-- Title: expand.c Pages: 1 -->
<svg width="897pt" height="552pt"
 viewBox="0.00 0.00 897.00 552.00" xmlns="http://www.w3.org/2000/svg" xmlns:xlink="http://www.w3.org/1999/xlink">
<g id="graph0" class="graph" transform="scale(1 1) rotate(0) translate(4 548)">
<title>expand.c</title>
<polygon fill="white" stroke="transparent" points="-4,4 -4,-548 893,-548 893,4 -4,4"/>
<!-- Node1 -->
<g id="node1" class="node">
<title>Node1</title>
<g id="a_node1"><a xlink:title=" ">
<polygon fill="#bfbfbf" stroke="black" points="395.5,-522.5 395.5,-543.5 460.5,-543.5 460.5,-522.5 395.5,-522.5"/>
<text text-anchor="middle" x="428" y="-529.9" font-family="DejaVuSans" font-size="12.00">expand.c</text>
</a>
</g>
</g>
<!-- Node2 -->
<g id="node2" class="node">
<title>Node2</title>
<g id="a_node2"><a xlink:title=" ">
<polygon fill="white" stroke="#bfbfbf" points="0,-464.5 0,-485.5 54,-485.5 54,-464.5 0,-464.5"/>
<text text-anchor="middle" x="27" y="-471.9" font-family="DejaVuSans" font-size="12.00">stdlib.h</text>
</a>
</g>
</g>
<!-- Node1&#45;&gt;Node2 -->
<g id="edge1" class="edge">
<title>Node1&#45;&gt;Node2</title>
<path fill="none" stroke="midnightblue" d="M395.05,-529.04C331.47,-523.05 187.57,-508.15 68,-486 66.74,-485.77 65.47,-485.52 64.18,-485.26"/>
<polygon fill="midnightblue" stroke="midnightblue" points="64.77,-481.81 54.26,-483.1 63.28,-488.65 64.77,-481.81"/>
</g>
<!-- Node3 -->
<g id="node3" class="node">
<title>Node3</title>
<g id="a_node3"><a xlink:href="tex_8h.html" target="_top" xlink:title=" ">
<polygon fill="white" stroke="black" points="589,-116.5 589,-137.5 631,-137.5 631,-116.5 589,-116.5"/>
<text text-anchor="middle" x="610" y="-123.9" font-family="DejaVuSans" font-size="12.00">tex.h</text>
</a>
</g>
</g>
<!-- Node1&#45;&gt;Node3 -->
<g id="edge2" class="edge">
<title>Node1&#45;&gt;Node3</title>
<path fill="none" stroke="midnightblue" d="M460.57,-532.12C537.84,-531.71 729.29,-526.55 776,-486 799.7,-465.43 795,-449.38 795,-418 795,-418 795,-418 795,-300 795,-216.78 693.34,-162.42 640.74,-139.87"/>
<polygon fill="midnightblue" stroke="midnightblue" points="641.8,-136.52 631.22,-135.91 639.11,-142.98 641.8,-136.52"/>
</g>
<!-- Node8 -->
<g id="node8" class="node">
<title>Node8</title>
<g id="a_node8"><a xlink:href="texmac_8h.html" target="_top" xlink:title=" ">
<polygon fill="white" stroke="black" points="148.5,-406.5 148.5,-427.5 213.5,-427.5 213.5,-406.5 148.5,-406.5"/>
<text text-anchor="middle" x="181" y="-413.9" font-family="DejaVuSans" font-size="12.00">texmac.h</text>
</a>
</g>
</g>
<!-- Node1&#45;&gt;Node8 -->
<g id="edge7" class="edge">
<title>Node1&#45;&gt;Node8</title>
<path fill="none" stroke="midnightblue" d="M395.37,-528.88C341.47,-523.14 237.01,-509.29 209,-486 194.46,-473.91 187.38,-453.06 183.98,-437.63"/>
<polygon fill="midnightblue" stroke="midnightblue" points="187.38,-436.74 182.11,-427.55 180.5,-438.02 187.38,-436.74"/>
</g>
<!-- Node9 -->
<g id="node9" class="node">
<title>Node9</title>
<g id="a_node9"><a xlink:href="mem_8h.html" target="_top" xlink:title=" ">
<polygon fill="white" stroke="black" points="142.5,-348.5 142.5,-369.5 195.5,-369.5 195.5,-348.5 142.5,-348.5"/>
<text text-anchor="middle" x="169" y="-355.9" font-family="DejaVuSans" font-size="12.00">mem.h</text>
</a>
</g>
</g>
<!-- Node1&#45;&gt;Node9 -->
<g id="edge50" class="edge">
<title>Node1&#45;&gt;Node9</title>
<path fill="none" stroke="midnightblue" d="M395.31,-532.21C347.2,-531.14 255.91,-523.76 190,-486 160.22,-468.94 151.11,-460.12 139,-428 132.43,-410.57 142.81,-391.17 153.11,-377.57"/>
<polygon fill="midnightblue" stroke="midnightblue" points="156.06,-379.5 159.69,-369.55 150.65,-375.06 156.06,-379.5"/>
</g>
<!-- Node10 -->
<g id="node10" class="node">
<title>Node10</title>
<g id="a_node10"><a xlink:href="global_8h.html" target="_top" xlink:title=" ">
<polygon fill="white" stroke="black" points="252,-290.5 252,-311.5 310,-311.5 310,-290.5 252,-290.5"/>
<text text-anchor="middle" x="281" y="-297.9" font-family="DejaVuSans" font-size="12.00">global.h</text>
</a>
</g>
</g>
<!-- Node1&#45;&gt;Node10 -->
<g id="edge26" class="edge">
<title>Node1&#45;&gt;Node10</title>
<path fill="none" stroke="midnightblue" d="M395.43,-528.71C347.27,-523.1 260.71,-509.9 242,-486 202.83,-435.96 245.75,-355.67 268.59,-320.04"/>
<polygon fill="midnightblue" stroke="midnightblue" points="271.57,-321.88 274.16,-311.61 265.73,-318.02 271.57,-321.88"/>
</g>
<!-- Node16 -->
<g id="node16" class="node">
<title>Node16</title>
<g id="a_node16"><a xlink:href="scan_8h.html" target="_top" xlink:title=" ">
<polygon fill="white" stroke="black" points="455,-232.5 455,-253.5 507,-253.5 507,-232.5 455,-232.5"/>
<text text-anchor="middle" x="481" y="-239.9" font-family="DejaVuSans" font-size="12.00">scan.h</text>
</a>
</g>
</g>
<!-- Node1&#45;&gt;Node16 -->
<g id="edge41" class="edge">
<title>Node1&#45;&gt;Node16</title>
<path fill="none" stroke="midnightblue" d="M460.7,-527.52C503.84,-520.86 576.19,-506.85 592,-486 649.05,-410.75 544.36,-301.5 499.74,-260.42"/>
<polygon fill="midnightblue" stroke="midnightblue" points="501.93,-257.68 492.16,-253.57 497.23,-262.88 501.93,-257.68"/>
</g>
<!-- Node17 -->
<g id="node17" class="node">
<title>Node17</title>
<g id="a_node17"><a xlink:href="lexer_8h.html" target="_top" xlink:title=" ">
<polygon fill="white" stroke="black" points="530,-174.5 530,-195.5 582,-195.5 582,-174.5 530,-174.5"/>
<text text-anchor="middle" x="556" y="-181.9" font-family="DejaVuSans" font-size="12.00">lexer.h</text>
</a>
</g>
</g>
<!-- Node1&#45;&gt;Node17 -->
<g id="edge29" class="edge">
<title>Node1&#45;&gt;Node17</title>
<path fill="none" stroke="midnightblue" d="M460.59,-527.94C507.4,-521.44 590.31,-507.23 611,-486 690.17,-404.76 635.06,-334.28 586,-232 581.39,-222.38 575.07,-212.38 569.43,-204.17"/>
<polygon fill="midnightblue" stroke="midnightblue" points="572.11,-201.91 563.47,-195.78 566.41,-205.96 572.11,-201.91"/>
</g>
<!-- Node18 -->
<g id="node18" class="node">
<title>Node18</title>
<g id="a_node18"><a xlink:href="tex__inc_8h.html" target="_top" xlink:title=" ">
<polygon fill="white" stroke="black" points="429.5,-406.5 429.5,-427.5 494.5,-427.5 494.5,-406.5 429.5,-406.5"/>
<text text-anchor="middle" x="462" y="-413.9" font-family="DejaVuSans" font-size="12.00">tex_inc.h</text>
</a>
</g>
</g>
<!-- Node1&#45;&gt;Node18 -->
<g id="edge23" class="edge">
<title>Node1&#45;&gt;Node18</title>
<path fill="none" stroke="midnightblue" d="M415.02,-522.43C398.97,-509.37 375.15,-485.17 387,-464 395.08,-449.57 409.74,-439.11 423.97,-431.86"/>
<polygon fill="midnightblue" stroke="midnightblue" points="425.62,-434.95 433.19,-427.54 422.65,-428.61 425.62,-434.95"/>
</g>
<!-- Node19 -->
<g id="node19" class="node">
<title>Node19</title>
<g id="a_node19"><a xlink:href="macros_8h.html" target="_top" xlink:title=" ">
<polygon fill="white" stroke="black" points="395.5,-464.5 395.5,-485.5 460.5,-485.5 460.5,-464.5 395.5,-464.5"/>
<text text-anchor="middle" x="428" y="-471.9" font-family="DejaVuSans" font-size="12.00">macros.h</text>
</a>
</g>
</g>
<!-- Node1&#45;&gt;Node19 -->
<g id="edge25" class="edge">
<title>Node1&#45;&gt;Node19</title>
<path fill="none" stroke="midnightblue" d="M428,-522.25C428,-514.94 428,-504.69 428,-495.7"/>
<polygon fill="midnightblue" stroke="midnightblue" points="431.5,-495.64 428,-485.64 424.5,-495.64 431.5,-495.64"/>
</g>
<!-- Node20 -->
<g id="node20" class="node">
<title>Node20</title>
<g id="a_node20"><a xlink:href="texfunc_8h.html" target="_top" xlink:title=" ">
<polygon fill="white" stroke="black" points="346.5,-406.5 346.5,-427.5 411.5,-427.5 411.5,-406.5 346.5,-406.5"/>
<text text-anchor="middle" x="379" y="-413.9" font-family="DejaVuSans" font-size="12.00">texfunc.h</text>
</a>
</g>
</g>
<!-- Node1&#45;&gt;Node20 -->
<g id="edge27" class="edge">
<title>Node1&#45;&gt;Node20</title>
<path fill="none" stroke="midnightblue" d="M412.38,-522.48C400.75,-514.4 385.77,-501.63 379,-486 372.41,-470.78 373.05,-451.79 374.97,-437.75"/>
<polygon fill="midnightblue" stroke="midnightblue" points="378.45,-438.16 376.68,-427.72 371.55,-436.99 378.45,-438.16"/>
</g>
<!-- Node21 -->
<g id="node21" class="node">
<title>Node21</title>
<g id="a_node21"><a xlink:href="printout_8h.html" target="_top" xlink:title=" ">
<polygon fill="white" stroke="black" points="517,-464.5 517,-485.5 583,-485.5 583,-464.5 517,-464.5"/>
<text text-anchor="middle" x="550" y="-471.9" font-family="DejaVuSans" font-size="12.00">printout.h</text>
</a>
</g>
</g>
<!-- Node1&#45;&gt;Node21 -->
<g id="edge30" class="edge">
<title>Node1&#45;&gt;Node21</title>
<path fill="none" stroke="midnightblue" d="M448.97,-522.37C468.56,-513.38 498,-499.87 520.05,-489.75"/>
<polygon fill="midnightblue" stroke="midnightblue" points="521.67,-492.85 529.3,-485.5 518.75,-486.49 521.67,-492.85"/>
</g>
<!-- Node22 -->
<g id="node22" class="node">
<title>Node22</title>
<g id="a_node22"><a xlink:href="print_8h.html" target="_top" xlink:title=" ">
<polygon fill="white" stroke="black" points="251,-464.5 251,-485.5 301,-485.5 301,-464.5 251,-464.5"/>
<text text-anchor="middle" x="276" y="-471.9" font-family="DejaVuSans" font-size="12.00">print.h</text>
</a>
</g>
</g>
<!-- Node1&#45;&gt;Node22 -->
<g id="edge31" class="edge">
<title>Node1&#45;&gt;Node22</title>
<path fill="none" stroke="midnightblue" d="M401.87,-522.37C376.7,-513.1 338.45,-499.01 310.73,-488.79"/>
<polygon fill="midnightblue" stroke="midnightblue" points="311.63,-485.4 301.03,-485.22 309.21,-491.96 311.63,-485.4"/>
</g>
<!-- Node23 -->
<g id="node23" class="node">
<title>Node23</title>
<g id="a_node23"><a xlink:href="fonts_8h.html" target="_top" xlink:title=" ">
<polygon fill="white" stroke="black" points="525,-232.5 525,-253.5 577,-253.5 577,-232.5 525,-232.5"/>
<text text-anchor="middle" x="551" y="-239.9" font-family="DejaVuSans" font-size="12.00">fonts.h</text>
</a>
</g>
</g>
<!-- Node1&#45;&gt;Node23 -->
<g id="edge36" class="edge">
<title>Node1&#45;&gt;Node23</title>
<path fill="none" stroke="midnightblue" d="M437.98,-522.3C446.93,-513.33 460.12,-499.41 470,-486 487.73,-461.95 492.64,-455.63 504,-428 527.55,-370.74 541.84,-298.49 547.78,-264.04"/>
<polygon fill="midnightblue" stroke="midnightblue" points="551.28,-264.32 549.48,-253.88 544.38,-263.17 551.28,-264.32"/>
</g>
<!-- Node24 -->
<g id="node24" class="node">
<title>Node24</title>
<g id="a_node24"><a xlink:href="texmath_8h.html" target="_top" xlink:title=" ">
<polygon fill="white" stroke="black" points="51,-348.5 51,-369.5 119,-369.5 119,-348.5 51,-348.5"/>
<text text-anchor="middle" x="85" y="-355.9" font-family="DejaVuSans" font-size="12.00">texmath.h</text>
</a>
</g>
</g>
<!-- Node1&#45;&gt;Node24 -->
<g id="edge39" class="edge">
<title>Node1&#45;&gt;Node24</title>
<path fill="none" stroke="midnightblue" d="M395.05,-529.95C331.32,-525.42 194.11,-512.78 156,-486 119,-460 98.92,-408.22 90.27,-379.81"/>
<polygon fill="midnightblue" stroke="midnightblue" points="93.53,-378.49 87.41,-369.84 86.8,-380.42 93.53,-378.49"/>
</g>
<!-- Node25 -->
<g id="node25" class="node">
<title>Node25</title>
<g id="a_node25"><a xlink:href="error_8h.html" target="_top" xlink:title=" ">
<polygon fill="white" stroke="black" points="715.5,-464.5 715.5,-485.5 766.5,-485.5 766.5,-464.5 715.5,-464.5"/>
<text text-anchor="middle" x="741" y="-471.9" font-family="DejaVuSans" font-size="12.00">error.h</text>
</a>
</g>
</g>
<!-- Node1&#45;&gt;Node25 -->
<g id="edge42" class="edge">
<title>Node1&#45;&gt;Node25</title>
<path fill="none" stroke="midnightblue" d="M460.51,-527.36C511.83,-519.85 614.67,-504.04 701,-486 702.45,-485.7 703.92,-485.38 705.4,-485.05"/>
<polygon fill="midnightblue" stroke="midnightblue" points="706.3,-488.43 715.25,-482.75 704.71,-481.62 706.3,-488.43"/>
</g>
<!-- Node26 -->
<g id="node26" class="node">
<title>Node26</title>
<g id="a_node26"><a xlink:href="hash_8h.html" target="_top" xlink:title=" ">
<polygon fill="white" stroke="black" points="676.5,-290.5 676.5,-311.5 729.5,-311.5 729.5,-290.5 676.5,-290.5"/>
<text text-anchor="middle" x="703" y="-297.9" font-family="DejaVuSans" font-size="12.00">hash.h</text>
</a>
</g>
</g>
<!-- Node1&#45;&gt;Node26 -->
<g id="edge43" class="edge">
<title>Node1&#45;&gt;Node26</title>
<path fill="none" stroke="midnightblue" d="M460.72,-529.95C518.39,-525.65 634.71,-513.71 663,-486 708.08,-441.84 707.92,-359.66 705.11,-321.91"/>
<polygon fill="midnightblue" stroke="midnightblue" points="708.58,-321.36 704.2,-311.71 701.61,-321.98 708.58,-321.36"/>
</g>
<!-- Node28 -->
<g id="node28" class="node">
<title>Node28</title>
<g id="a_node28"><a xlink:href="expand_8h.html" target="_top" xlink:title=" ">
<polygon fill="white" stroke="black" points="823,-464.5 823,-485.5 889,-485.5 889,-464.5 823,-464.5"/>
<text text-anchor="middle" x="856" y="-471.9" font-family="DejaVuSans" font-size="12.00">expand.h</text>
</a>
</g>
</g>
<!-- Node1&#45;&gt;Node28 -->
<g id="edge51" class="edge">
<title>Node1&#45;&gt;Node28</title>
<path fill="none" stroke="midnightblue" d="M460.5,-529.07C526.47,-522.89 680.68,-507.35 809,-486 810.27,-485.79 811.56,-485.57 812.87,-485.33"/>
<polygon fill="midnightblue" stroke="midnightblue" points="813.77,-488.72 822.95,-483.42 812.47,-481.85 813.77,-488.72"/>
</g>
<!-- Node4 -->
<g id="node4" class="node">
<title>Node4</title>
<g id="a_node4"><a xlink:href="tex__types_8h.html" target="_top" xlink:title=" ">
<polygon fill="white" stroke="black" points="202.5,-58.5 202.5,-79.5 279.5,-79.5 279.5,-58.5 202.5,-58.5"/>
<text text-anchor="middle" x="241" y="-65.9" font-family="DejaVuSans" font-size="12.00">tex_types.h</text>
</a>
</g>
</g>
<!-- Node3&#45;&gt;Node4 -->
<g id="edge3" class="edge">
<title>Node3&#45;&gt;Node4</title>
<path fill="none" stroke="midnightblue" d="M588.84,-122.79C531.34,-114.06 371.13,-89.75 289.76,-77.4"/>
<polygon fill="midnightblue" stroke="midnightblue" points="290.18,-73.92 279.77,-75.88 289.13,-80.84 290.18,-73.92"/>
</g>
<!-- Node7 -->
<g id="node7" class="node">
<title>Node7</title>
<g id="a_node7"><a xlink:href="tex__constant_8h.html" target="_top" xlink:title=" ">
<polygon fill="white" stroke="black" points="595,-58.5 595,-79.5 689,-79.5 689,-58.5 595,-58.5"/>
<text text-anchor="middle" x="642" y="-65.9" font-family="DejaVuSans" font-size="12.00">tex_constant.h</text>
</a>
</g>
</g>
<!-- Node3&#45;&gt;Node7 -->
<g id="edge6" class="edge">
<title>Node3&#45;&gt;Node7</title>
<path fill="none" stroke="midnightblue" d="M615.57,-116.25C619.93,-108.62 626.12,-97.79 631.41,-88.53"/>
<polygon fill="midnightblue" stroke="midnightblue" points="634.57,-90.06 636.49,-79.64 628.49,-86.59 634.57,-90.06"/>
</g>
<!-- Node5 -->
<g id="node5" class="node">
<title>Node5</title>
<g id="a_node5"><a xlink:title=" ">
<polygon fill="white" stroke="#bfbfbf" points="203.5,-0.5 203.5,-21.5 268.5,-21.5 268.5,-0.5 203.5,-0.5"/>
<text text-anchor="middle" x="236" y="-7.9" font-family="DejaVuSans" font-size="12.00">stdbool.h</text>
</a>
</g>
</g>
<!-- Node4&#45;&gt;Node5 -->
<g id="edge4" class="edge">
<title>Node4&#45;&gt;Node5</title>
<path fill="none" stroke="midnightblue" d="M240.13,-58.25C239.48,-50.94 238.56,-40.69 237.76,-31.7"/>
<polygon fill="midnightblue" stroke="midnightblue" points="241.24,-31.29 236.86,-21.64 234.26,-31.91 241.24,-31.29"/>
</g>
<!-- Node6 -->
<g id="node6" class="node">
<title>Node6</title>
<g id="a_node6"><a xlink:title=" ">
<polygon fill="white" stroke="#bfbfbf" points="286.5,-0.5 286.5,-21.5 341.5,-21.5 341.5,-0.5 286.5,-0.5"/>
<text text-anchor="middle" x="314" y="-7.9" font-family="DejaVuSans" font-size="12.00">stdint.h</text>
</a>
</g>
</g>
<!-- Node4&#45;&gt;Node6 -->
<g id="edge5" class="edge">
<title>Node4&#45;&gt;Node6</title>
<path fill="none" stroke="midnightblue" d="M253.72,-58.25C264.6,-49.89 280.49,-37.71 293.22,-27.94"/>
<polygon fill="midnightblue" stroke="midnightblue" points="295.63,-30.51 301.43,-21.64 291.37,-24.95 295.63,-30.51"/>
</g>
<!-- Node8&#45;&gt;Node9 -->
<g id="edge8" class="edge">
<title>Node8&#45;&gt;Node9</title>
<path fill="none" stroke="midnightblue" d="M178.91,-406.25C177.34,-398.94 175.15,-388.69 173.22,-379.7"/>
<polygon fill="midnightblue" stroke="midnightblue" points="176.58,-378.69 171.07,-369.64 169.74,-380.15 176.58,-378.69"/>
</g>
<!-- Node9&#45;&gt;Node4 -->
<g id="edge9" class="edge">
<title>Node9&#45;&gt;Node4</title>
<path fill="none" stroke="midnightblue" d="M170.29,-348.26C172.78,-328.59 178,-282.71 178,-244 178,-244 178,-244 178,-184 178,-145.67 205.62,-108.12 224.28,-87.12"/>
<polygon fill="midnightblue" stroke="midnightblue" points="226.95,-89.4 231.16,-79.67 221.8,-84.65 226.95,-89.4"/>
</g>
<!-- Node9&#45;&gt;Node10 -->
<g id="edge10" class="edge">
<title>Node9&#45;&gt;Node10</title>
<path fill="none" stroke="midnightblue" d="M188.25,-348.37C206.07,-339.46 232.77,-326.11 252.96,-316.02"/>
<polygon fill="midnightblue" stroke="midnightblue" points="254.62,-319.1 262,-311.5 251.49,-312.84 254.62,-319.1"/>
</g>
<!-- Node11 -->
<g id="node11" class="node">
<title>Node11</title>
<g id="a_node11"><a xlink:title=" ">
<polygon fill="white" stroke="#bfbfbf" points="252,-232.5 252,-253.5 314,-253.5 314,-232.5 252,-232.5"/>
<text text-anchor="middle" x="283" y="-239.9" font-family="DejaVuSans" font-size="12.00">setjmp.h</text>
</a>
</g>
</g>
<!-- Node10&#45;&gt;Node11 -->
<g id="edge11" class="edge">
<title>Node10&#45;&gt;Node11</title>
<path fill="none" stroke="midnightblue" d="M281.35,-290.25C281.61,-282.94 281.98,-272.69 282.3,-263.7"/>
<polygon fill="midnightblue" stroke="midnightblue" points="285.8,-263.76 282.66,-253.64 278.8,-263.51 285.8,-263.76"/>
</g>
<!-- Node12 -->
<g id="node12" class="node">
<title>Node12</title>
<g id="a_node12"><a xlink:href="str_8h.html" target="_top" xlink:title=" ">
<polygon fill="white" stroke="black" points="332.5,-232.5 332.5,-253.5 371.5,-253.5 371.5,-232.5 332.5,-232.5"/>
<text text-anchor="middle" x="352" y="-239.9" font-family="DejaVuSans" font-size="12.00">str.h</text>
</a>
</g>
</g>
<!-- Node10&#45;&gt;Node12 -->
<g id="edge12" class="edge">
<title>Node10&#45;&gt;Node12</title>
<path fill="none" stroke="midnightblue" d="M293.37,-290.25C303.96,-281.89 319.41,-269.71 331.79,-259.94"/>
<polygon fill="midnightblue" stroke="midnightblue" points="334.09,-262.58 339.77,-253.64 329.76,-257.09 334.09,-262.58"/>
</g>
<!-- Node10&#45;&gt;Node16 -->
<g id="edge19" class="edge">
<title>Node10&#45;&gt;Node16</title>
<path fill="none" stroke="midnightblue" d="M310.08,-291.86C345.78,-281.86 406.34,-264.91 444.96,-254.09"/>
<polygon fill="midnightblue" stroke="midnightblue" points="446.07,-257.42 454.75,-251.35 444.18,-250.68 446.07,-257.42"/>
</g>
<!-- Node12&#45;&gt;Node4 -->
<g id="edge18" class="edge">
<title>Node12&#45;&gt;Node4</title>
<path fill="none" stroke="midnightblue" d="M338.21,-232.32C326.82,-223.78 310.83,-210.48 300,-196 274.55,-161.98 256.22,-115.24 247.24,-89.31"/>
<polygon fill="midnightblue" stroke="midnightblue" points="250.47,-87.93 243.97,-79.57 243.84,-90.16 250.47,-87.93"/>
</g>
<!-- Node12&#45;&gt;Node6 -->
<g id="edge14" class="edge">
<title>Node12&#45;&gt;Node6</title>
<path fill="none" stroke="midnightblue" d="M350.42,-232.41C344.69,-197.78 325.03,-78.74 317.23,-31.52"/>
<polygon fill="midnightblue" stroke="midnightblue" points="320.67,-30.93 315.59,-21.63 313.77,-32.07 320.67,-30.93"/>
</g>
<!-- Node13 -->
<g id="node13" class="node">
<title>Node13</title>
<g id="a_node13"><a xlink:title=" ">
<polygon fill="white" stroke="#bfbfbf" points="476,-116.5 476,-137.5 528,-137.5 528,-116.5 476,-116.5"/>
<text text-anchor="middle" x="502" y="-123.9" font-family="DejaVuSans" font-size="12.00">stdio.h</text>
</a>
</g>
</g>
<!-- Node12&#45;&gt;Node13 -->
<g id="edge13" class="edge">
<title>Node12&#45;&gt;Node13</title>
<path fill="none" stroke="midnightblue" d="M352.19,-232.31C352.99,-217.77 356.6,-190.26 372,-174 378.73,-166.89 429.96,-150.08 466.06,-138.87"/>
<polygon fill="midnightblue" stroke="midnightblue" points="467.27,-142.16 475.79,-135.87 465.2,-135.47 467.27,-142.16"/>
</g>
<!-- Node14 -->
<g id="node14" class="node">
<title>Node14</title>
<g id="a_node14"><a xlink:href="global__const_8h.html" target="_top" xlink:title=" ">
<polygon fill="white" stroke="black" points="380.5,-174.5 380.5,-195.5 473.5,-195.5 473.5,-174.5 380.5,-174.5"/>
<text text-anchor="middle" x="427" y="-181.9" font-family="DejaVuSans" font-size="12.00">global_const.h</text>
</a>
</g>
</g>
<!-- Node12&#45;&gt;Node14 -->
<g id="edge15" class="edge">
<title>Node12&#45;&gt;Node14</title>
<path fill="none" stroke="midnightblue" d="M365.06,-232.25C376.36,-223.81 392.88,-211.47 406.03,-201.66"/>
<polygon fill="midnightblue" stroke="midnightblue" points="408.17,-204.43 414.09,-195.64 403.98,-198.82 408.17,-204.43"/>
</g>
<!-- Node14&#45;&gt;Node13 -->
<g id="edge17" class="edge">
<title>Node14&#45;&gt;Node13</title>
<path fill="none" stroke="midnightblue" d="M440.06,-174.25C451.36,-165.81 467.88,-153.47 481.03,-143.66"/>
<polygon fill="midnightblue" stroke="midnightblue" points="483.17,-146.43 489.09,-137.64 478.98,-140.82 483.17,-146.43"/>
</g>
<!-- Node15 -->
<g id="node15" class="node">
<title>Node15</title>
<g id="a_node15"><a xlink:title=" ">
<polygon fill="white" stroke="#bfbfbf" points="397.5,-116.5 397.5,-137.5 456.5,-137.5 456.5,-116.5 397.5,-116.5"/>
<text text-anchor="middle" x="427" y="-123.9" font-family="DejaVuSans" font-size="12.00">assert.h</text>
</a>
</g>
</g>
<!-- Node14&#45;&gt;Node15 -->
<g id="edge16" class="edge">
<title>Node14&#45;&gt;Node15</title>
<path fill="none" stroke="midnightblue" d="M427,-174.25C427,-166.94 427,-156.69 427,-147.7"/>
<polygon fill="midnightblue" stroke="midnightblue" points="430.5,-147.64 427,-137.64 423.5,-147.64 430.5,-147.64"/>
</g>
<!-- Node16&#45;&gt;Node17 -->
<g id="edge20" class="edge">
<title>Node16&#45;&gt;Node17</title>
<path fill="none" stroke="midnightblue" d="M494.06,-232.25C505.36,-223.81 521.88,-211.47 535.03,-201.66"/>
<polygon fill="midnightblue" stroke="midnightblue" points="537.17,-204.43 543.09,-195.64 532.98,-198.82 537.17,-204.43"/>
</g>
<!-- Node17&#45;&gt;Node3 -->
<g id="edge22" class="edge">
<title>Node17&#45;&gt;Node3</title>
<path fill="none" stroke="midnightblue" d="M565.41,-174.25C573.15,-166.22 584.31,-154.64 593.53,-145.08"/>
<polygon fill="midnightblue" stroke="midnightblue" points="596.28,-147.27 600.7,-137.64 591.24,-142.41 596.28,-147.27"/>
</g>
<!-- Node17&#45;&gt;Node13 -->
<g id="edge21" class="edge">
<title>Node17&#45;&gt;Node13</title>
<path fill="none" stroke="midnightblue" d="M546.59,-174.25C538.85,-166.22 527.69,-154.64 518.47,-145.08"/>
<polygon fill="midnightblue" stroke="midnightblue" points="520.76,-142.41 511.3,-137.64 515.72,-147.27 520.76,-142.41"/>
</g>
<!-- Node18&#45;&gt;Node14 -->
<g id="edge24" class="edge">
<title>Node18&#45;&gt;Node14</title>
<path fill="none" stroke="midnightblue" d="M460.54,-406.41C455.27,-371.78 437.16,-252.74 429.97,-205.52"/>
<polygon fill="midnightblue" stroke="midnightblue" points="433.43,-204.99 428.47,-195.63 426.51,-206.04 433.43,-204.99"/>
</g>
<!-- Node20&#45;&gt;Node12 -->
<g id="edge28" class="edge">
<title>Node20&#45;&gt;Node12</title>
<path fill="none" stroke="midnightblue" d="M377.47,-406.26C373.16,-378.82 360.87,-300.51 355.08,-263.64"/>
<polygon fill="midnightblue" stroke="midnightblue" points="358.52,-262.97 353.51,-253.63 351.61,-264.06 358.52,-262.97"/>
</g>
<!-- Node22&#45;&gt;Node3 -->
<g id="edge33" class="edge">
<title>Node22&#45;&gt;Node3</title>
<path fill="none" stroke="midnightblue" d="M301.1,-470.95C378.78,-460.84 610,-425.25 610,-360 610,-360 610,-360 610,-242 610,-208.98 610,-170.59 610,-147.85"/>
<polygon fill="midnightblue" stroke="midnightblue" points="613.5,-147.76 610,-137.76 606.5,-147.76 613.5,-147.76"/>
</g>
<!-- Node22&#45;&gt;Node4 -->
<g id="edge32" class="edge">
<title>Node22&#45;&gt;Node4</title>
<path fill="none" stroke="midnightblue" d="M270.82,-464.23C257.67,-438.48 224,-366.26 224,-302 224,-302 224,-302 224,-184 224,-150.62 231.22,-112.34 236.25,-89.71"/>
<polygon fill="midnightblue" stroke="midnightblue" points="239.72,-90.22 238.56,-79.69 232.9,-88.64 239.72,-90.22"/>
</g>
<!-- Node22&#45;&gt;Node8 -->
<g id="edge34" class="edge">
<title>Node22&#45;&gt;Node8</title>
<path fill="none" stroke="midnightblue" d="M259.45,-464.25C244.74,-455.57 223.01,-442.76 206.15,-432.82"/>
<polygon fill="midnightblue" stroke="midnightblue" points="207.75,-429.71 197.36,-427.64 204.2,-435.74 207.75,-429.71"/>
</g>
<!-- Node22&#45;&gt;Node12 -->
<g id="edge35" class="edge">
<title>Node22&#45;&gt;Node12</title>
<path fill="none" stroke="midnightblue" d="M280.06,-464.2C283.84,-454.94 289.55,-440.62 294,-428 314.92,-368.69 336.36,-297.39 346.3,-263.6"/>
<polygon fill="midnightblue" stroke="midnightblue" points="349.76,-264.23 349.21,-253.65 343.04,-262.27 349.76,-264.23"/>
</g>
<!-- Node23&#45;&gt;Node13 -->
<g id="edge37" class="edge">
<title>Node23&#45;&gt;Node13</title>
<path fill="none" stroke="midnightblue" d="M543.39,-232.28C536.68,-223.31 527.06,-209.38 521,-196 513.9,-180.32 508.87,-161.37 505.78,-147.47"/>
<polygon fill="midnightblue" stroke="midnightblue" points="509.18,-146.63 503.71,-137.56 502.33,-148.06 509.18,-146.63"/>
</g>
<!-- Node23&#45;&gt;Node14 -->
<g id="edge38" class="edge">
<title>Node23&#45;&gt;Node14</title>
<path fill="none" stroke="midnightblue" d="M529.68,-232.37C509.78,-223.38 479.86,-209.87 457.44,-199.75"/>
<polygon fill="midnightblue" stroke="midnightblue" points="458.59,-196.43 448.04,-195.5 455.71,-202.81 458.59,-196.43"/>
</g>
<!-- Node24&#45;&gt;Node4 -->
<g id="edge40" class="edge">
<title>Node24&#45;&gt;Node4</title>
<path fill="none" stroke="midnightblue" d="M88.73,-348.41C95.91,-329.01 111,-283.58 111,-244 111,-244 111,-244 111,-184 111,-133.77 166.53,-100.5 205.01,-83.48"/>
<polygon fill="midnightblue" stroke="midnightblue" points="206.54,-86.63 214.38,-79.5 203.81,-80.19 206.54,-86.63"/>
</g>
<!-- Node26&#45;&gt;Node3 -->
<g id="edge44" class="edge">
<title>Node26&#45;&gt;Node3</title>
<path fill="none" stroke="midnightblue" d="M697.73,-290.26C682.77,-262.59 639.82,-183.15 620.11,-146.7"/>
<polygon fill="midnightblue" stroke="midnightblue" points="623.04,-144.77 615.21,-137.63 616.89,-148.09 623.04,-144.77"/>
</g>
<!-- Node26&#45;&gt;Node12 -->
<g id="edge45" class="edge">
<title>Node26&#45;&gt;Node12</title>
<path fill="none" stroke="midnightblue" d="M676.33,-295.74C612.09,-285.5 449.15,-259.5 381.81,-248.76"/>
<polygon fill="midnightblue" stroke="midnightblue" points="382.29,-245.29 371.86,-247.17 381.18,-252.2 382.29,-245.29"/>
</g>
<!-- Node26&#45;&gt;Node23 -->
<g id="edge46" class="edge">
<title>Node26&#45;&gt;Node23</title>
<path fill="none" stroke="midnightblue" d="M676.87,-290.37C651.92,-281.18 614.14,-267.26 586.48,-257.07"/>
<polygon fill="midnightblue" stroke="midnightblue" points="587.38,-253.67 576.79,-253.5 584.96,-260.24 587.38,-253.67"/>
</g>
<!-- Node27 -->
<g id="node27" class="node">
<title>Node27</title>
<g id="a_node27"><a xlink:href="eqtb_8h.html" target="_top" xlink:title=" ">
<polygon fill="white" stroke="black" points="649,-116.5 649,-137.5 699,-137.5 699,-116.5 649,-116.5"/>
<text text-anchor="middle" x="674" y="-123.9" font-family="DejaVuSans" font-size="12.00">eqtb.h</text>
</a>
</g>
</g>
<!-- Node26&#45;&gt;Node27 -->
<g id="edge47" class="edge">
<title>Node26&#45;&gt;Node27</title>
<path fill="none" stroke="midnightblue" d="M704.34,-290.29C706.97,-268.83 711.58,-215.98 700,-174 697.3,-164.21 692.07,-154.29 687.01,-146.18"/>
<polygon fill="midnightblue" stroke="midnightblue" points="689.76,-143.99 681.3,-137.6 683.93,-147.87 689.76,-143.99"/>
</g>
<!-- Node27&#45;&gt;Node4 -->
<g id="edge48" class="edge">
<title>Node27&#45;&gt;Node4</title>
<path fill="none" stroke="midnightblue" d="M648.87,-118.09C645.9,-117.31 642.89,-116.59 640,-116 515.18,-90.64 365.35,-78.05 289.75,-72.92"/>
<polygon fill="midnightblue" stroke="midnightblue" points="289.79,-69.42 279.58,-72.24 289.33,-76.4 289.79,-69.42"/>
</g>
<!-- Node27&#45;&gt;Node7 -->
<g id="edge49" class="edge">
<title>Node27&#45;&gt;Node7</title>
<path fill="none" stroke="midnightblue" d="M668.43,-116.25C664.07,-108.62 657.88,-97.79 652.59,-88.53"/>
<polygon fill="midnightblue" stroke="midnightblue" points="655.51,-86.59 647.51,-79.64 649.43,-90.06 655.51,-86.59"/>
</g>
</g>
</svg>
