<?xml version="1.0" encoding="UTF-8" standalone="no"?>
<!DOCTYPE svg PUBLIC "-//W3C//DTD SVG 1.1//EN"
 "http://www.w3.org/Graphics/SVG/1.1/DTD/svg11.dtd">
<!-- Generated by graphviz version 2.44.0 ()
 -->
<!-- Title: expand.c Pages: 1 -->
<svg width="957pt" height="378pt"
 viewBox="0.00 0.00 957.00 378.00" xmlns="http://www.w3.org/2000/svg" xmlns:xlink="http://www.w3.org/1999/xlink">
<g id="graph0" class="graph" transform="scale(1 1) rotate(0) translate(4 374)">
<title>expand.c</title>
<polygon fill="white" stroke="transparent" points="-4,4 -4,-374 953,-374 953,4 -4,4"/>
<!-- Node1 -->
<g id="node1" class="node">
<title>Node1</title>
<g id="a_node1"><a xlink:title=" ">
<polygon fill="#bfbfbf" stroke="black" points="424.5,-348.5 424.5,-369.5 489.5,-369.5 489.5,-348.5 424.5,-348.5"/>
<text text-anchor="middle" x="457" y="-355.9" font-family="DejaVuSans" font-size="12.00">expand.c</text>
</a>
</g>
</g>
<!-- Node2 -->
<g id="node2" class="node">
<title>Node2</title>
<g id="a_node2"><a xlink:title=" ">
<polygon fill="white" stroke="#bfbfbf" points="0,-290.5 0,-311.5 54,-311.5 54,-290.5 0,-290.5"/>
<text text-anchor="middle" x="27" y="-297.9" font-family="DejaVuSans" font-size="12.00">stdlib.h</text>
</a>
</g>
</g>
<!-- Node1&#45;&gt;Node2 -->
<g id="edge1" class="edge">
<title>Node1&#45;&gt;Node2</title>
<path fill="none" stroke="midnightblue" d="M424.27,-355.48C357.11,-350.02 199.01,-335.63 68,-312 66.74,-311.77 65.47,-311.53 64.18,-311.28"/>
<polygon fill="midnightblue" stroke="midnightblue" points="64.76,-307.82 54.25,-309.14 63.29,-314.66 64.76,-307.82"/>
</g>
<!-- Node3 -->
<g id="node3" class="node">
<title>Node3</title>
<g id="a_node3"><a xlink:href="tex_8h.html" target="_top" xlink:title=" ">
<polygon fill="white" stroke="black" points="88,-116.5 88,-137.5 130,-137.5 130,-116.5 88,-116.5"/>
<text text-anchor="middle" x="109" y="-123.9" font-family="DejaVuSans" font-size="12.00">tex.h</text>
</a>
</g>
</g>
<!-- Node1&#45;&gt;Node3 -->
<g id="edge2" class="edge">
<title>Node1&#45;&gt;Node3</title>
<path fill="none" stroke="midnightblue" d="M424.44,-356.95C355.29,-354.11 196.66,-344.17 155,-312 104.24,-272.81 104.09,-186.74 106.92,-147.81"/>
<polygon fill="midnightblue" stroke="midnightblue" points="110.42,-148.02 107.8,-137.76 103.45,-147.41 110.42,-148.02"/>
</g>
<!-- Node8 -->
<g id="node8" class="node">
<title>Node8</title>
<g id="a_node8"><a xlink:href="texmac_8h.html" target="_top" xlink:title=" ">
<polygon fill="white" stroke="black" points="186.5,-232.5 186.5,-253.5 251.5,-253.5 251.5,-232.5 186.5,-232.5"/>
<text text-anchor="middle" x="219" y="-239.9" font-family="DejaVuSans" font-size="12.00">texmac.h</text>
</a>
</g>
</g>
<!-- Node1&#45;&gt;Node8 -->
<g id="edge7" class="edge">
<title>Node1&#45;&gt;Node8</title>
<path fill="none" stroke="midnightblue" d="M424.43,-357.11C383.97,-354.54 314.38,-345.18 266,-312 248.14,-299.75 235,-278.31 227.22,-262.77"/>
<polygon fill="midnightblue" stroke="midnightblue" points="230.32,-261.12 222.89,-253.57 223.99,-264.11 230.32,-261.12"/>
</g>
<!-- Node9 -->
<g id="node9" class="node">
<title>Node9</title>
<g id="a_node9"><a xlink:href="tex__inc_8h.html" target="_top" xlink:title=" ">
<polygon fill="white" stroke="black" points="624.5,-232.5 624.5,-253.5 689.5,-253.5 689.5,-232.5 624.5,-232.5"/>
<text text-anchor="middle" x="657" y="-239.9" font-family="DejaVuSans" font-size="12.00">tex_inc.h</text>
</a>
</g>
</g>
<!-- Node1&#45;&gt;Node9 -->
<g id="edge8" class="edge">
<title>Node1&#45;&gt;Node9</title>
<path fill="none" stroke="midnightblue" d="M489.54,-349.39C515.22,-341.77 551.36,-329.19 580,-312 603.48,-297.9 626.5,-276.25 641.16,-261.18"/>
<polygon fill="midnightblue" stroke="midnightblue" points="644.04,-263.23 648.39,-253.57 638.97,-258.41 644.04,-263.23"/>
</g>
<!-- Node13 -->
<g id="node13" class="node">
<title>Node13</title>
<g id="a_node13"><a xlink:href="macros_8h.html" target="_top" xlink:title=" ">
<polygon fill="white" stroke="black" points="645.5,-290.5 645.5,-311.5 710.5,-311.5 710.5,-290.5 645.5,-290.5"/>
<text text-anchor="middle" x="678" y="-297.9" font-family="DejaVuSans" font-size="12.00">macros.h</text>
</a>
</g>
</g>
<!-- Node1&#45;&gt;Node13 -->
<g id="edge12" class="edge">
<title>Node1&#45;&gt;Node13</title>
<path fill="none" stroke="midnightblue" d="M489.61,-349.74C528.29,-339.94 592.89,-323.57 635.47,-312.78"/>
<polygon fill="midnightblue" stroke="midnightblue" points="636.42,-316.15 645.26,-310.3 634.7,-309.36 636.42,-316.15"/>
</g>
<!-- Node14 -->
<g id="node14" class="node">
<title>Node14</title>
<g id="a_node14"><a xlink:href="global_8h.html" target="_top" xlink:title=" ">
<polygon fill="white" stroke="black" points="371,-290.5 371,-311.5 429,-311.5 429,-290.5 371,-290.5"/>
<text text-anchor="middle" x="400" y="-297.9" font-family="DejaVuSans" font-size="12.00">global.h</text>
</a>
</g>
</g>
<!-- Node1&#45;&gt;Node14 -->
<g id="edge13" class="edge">
<title>Node1&#45;&gt;Node14</title>
<path fill="none" stroke="midnightblue" d="M447.07,-348.25C438.82,-340.14 426.88,-328.41 417.09,-318.79"/>
<polygon fill="midnightblue" stroke="midnightblue" points="419.4,-316.15 409.81,-311.64 414.5,-321.15 419.4,-316.15"/>
</g>
<!-- Node17 -->
<g id="node17" class="node">
<title>Node17</title>
<g id="a_node17"><a xlink:href="scan_8h.html" target="_top" xlink:title=" ">
<polygon fill="white" stroke="black" points="308,-232.5 308,-253.5 360,-253.5 360,-232.5 308,-232.5"/>
<text text-anchor="middle" x="334" y="-239.9" font-family="DejaVuSans" font-size="12.00">scan.h</text>
</a>
</g>
</g>
<!-- Node1&#45;&gt;Node17 -->
<g id="edge38" class="edge">
<title>Node1&#45;&gt;Node17</title>
<path fill="none" stroke="midnightblue" d="M424.31,-348.8C404.07,-341.64 378.83,-329.88 362,-312 349.31,-298.52 342.01,-278.49 338.07,-263.65"/>
<polygon fill="midnightblue" stroke="midnightblue" points="341.38,-262.45 335.67,-253.52 334.57,-264.06 341.38,-262.45"/>
</g>
<!-- Node18 -->
<g id="node18" class="node">
<title>Node18</title>
<g id="a_node18"><a xlink:href="lexer_8h.html" target="_top" xlink:title=" ">
<polygon fill="white" stroke="black" points="264,-174.5 264,-195.5 316,-195.5 316,-174.5 264,-174.5"/>
<text text-anchor="middle" x="290" y="-181.9" font-family="DejaVuSans" font-size="12.00">lexer.h</text>
</a>
</g>
</g>
<!-- Node1&#45;&gt;Node18 -->
<g id="edge26" class="edge">
<title>Node1&#45;&gt;Node18</title>
<path fill="none" stroke="midnightblue" d="M424.4,-349.93C400.21,-342.8 367.33,-330.6 343,-312 317.29,-292.35 311.31,-283.92 299,-254 292.7,-238.69 290.59,-219.94 289.97,-206.02"/>
<polygon fill="midnightblue" stroke="midnightblue" points="293.47,-205.55 289.75,-195.63 286.47,-205.7 293.47,-205.55"/>
</g>
<!-- Node19 -->
<g id="node19" class="node">
<title>Node19</title>
<g id="a_node19"><a xlink:href="texfunc_8h.html" target="_top" xlink:title=" ">
<polygon fill="white" stroke="black" points="485.5,-290.5 485.5,-311.5 550.5,-311.5 550.5,-290.5 485.5,-290.5"/>
<text text-anchor="middle" x="518" y="-297.9" font-family="DejaVuSans" font-size="12.00">texfunc.h</text>
</a>
</g>
</g>
<!-- Node1&#45;&gt;Node19 -->
<g id="edge24" class="edge">
<title>Node1&#45;&gt;Node19</title>
<path fill="none" stroke="midnightblue" d="M467.63,-348.25C476.55,-340.05 489.49,-328.17 500.02,-318.51"/>
<polygon fill="midnightblue" stroke="midnightblue" points="502.5,-320.98 507.5,-311.64 497.76,-315.83 502.5,-320.98"/>
</g>
<!-- Node20 -->
<g id="node20" class="node">
<title>Node20</title>
<g id="a_node20"><a xlink:href="printout_8h.html" target="_top" xlink:title=" ">
<polygon fill="white" stroke="black" points="729,-290.5 729,-311.5 795,-311.5 795,-290.5 729,-290.5"/>
<text text-anchor="middle" x="762" y="-297.9" font-family="DejaVuSans" font-size="12.00">printout.h</text>
</a>
</g>
</g>
<!-- Node1&#45;&gt;Node20 -->
<g id="edge27" class="edge">
<title>Node1&#45;&gt;Node20</title>
<path fill="none" stroke="midnightblue" d="M489.51,-352.96C537.51,-345.39 630.35,-330.19 718.66,-312.19"/>
<polygon fill="midnightblue" stroke="midnightblue" points="719.48,-315.59 728.57,-310.15 718.07,-308.74 719.48,-315.59"/>
</g>
<!-- Node21 -->
<g id="node21" class="node">
<title>Node21</title>
<g id="a_node21"><a xlink:href="print_8h.html" target="_top" xlink:title=" ">
<polygon fill="white" stroke="black" points="164,-290.5 164,-311.5 214,-311.5 214,-290.5 164,-290.5"/>
<text text-anchor="middle" x="189" y="-297.9" font-family="DejaVuSans" font-size="12.00">print.h</text>
</a>
</g>
</g>
<!-- Node1&#45;&gt;Node21 -->
<g id="edge28" class="edge">
<title>Node1&#45;&gt;Node21</title>
<path fill="none" stroke="midnightblue" d="M424.27,-351.99C379.72,-343.68 297.58,-327.9 228,-312 226.74,-311.71 225.45,-311.41 224.15,-311.1"/>
<polygon fill="midnightblue" stroke="midnightblue" points="224.67,-307.63 214.13,-308.65 223.01,-314.43 224.67,-307.63"/>
</g>
<!-- Node22 -->
<g id="node22" class="node">
<title>Node22</title>
<g id="a_node22"><a xlink:href="fonts_8h.html" target="_top" xlink:title=" ">
<polygon fill="white" stroke="black" points="554,-232.5 554,-253.5 606,-253.5 606,-232.5 554,-232.5"/>
<text text-anchor="middle" x="580" y="-239.9" font-family="DejaVuSans" font-size="12.00">fonts.h</text>
</a>
</g>
</g>
<!-- Node1&#45;&gt;Node22 -->
<g id="edge33" class="edge">
<title>Node1&#45;&gt;Node22</title>
<path fill="none" stroke="midnightblue" d="M489.68,-351.08C512.42,-344.63 541.82,-332.79 560,-312 571.75,-298.56 576.6,-278.53 578.61,-263.68"/>
<polygon fill="midnightblue" stroke="midnightblue" points="582.11,-263.84 579.65,-253.53 575.14,-263.12 582.11,-263.84"/>
</g>
<!-- Node23 -->
<g id="node23" class="node">
<title>Node23</title>
<g id="a_node23"><a xlink:href="texmath_8h.html" target="_top" xlink:title=" ">
<polygon fill="white" stroke="black" points="344,-174.5 344,-195.5 412,-195.5 412,-174.5 344,-174.5"/>
<text text-anchor="middle" x="378" y="-181.9" font-family="DejaVuSans" font-size="12.00">texmath.h</text>
</a>
</g>
</g>
<!-- Node1&#45;&gt;Node23 -->
<g id="edge36" class="edge">
<title>Node1&#45;&gt;Node23</title>
<path fill="none" stroke="midnightblue" d="M459.13,-348.32C463.5,-326.01 471.26,-270.02 449,-232 440.86,-218.1 426.66,-207.66 413.09,-200.28"/>
<polygon fill="midnightblue" stroke="midnightblue" points="414.38,-197.01 403.88,-195.65 411.24,-203.27 414.38,-197.01"/>
</g>
<!-- Node24 -->
<g id="node24" class="node">
<title>Node24</title>
<g id="a_node24"><a xlink:href="error_8h.html" target="_top" xlink:title=" ">
<polygon fill="white" stroke="black" points="813.5,-290.5 813.5,-311.5 864.5,-311.5 864.5,-290.5 813.5,-290.5"/>
<text text-anchor="middle" x="839" y="-297.9" font-family="DejaVuSans" font-size="12.00">error.h</text>
</a>
</g>
</g>
<!-- Node1&#45;&gt;Node24 -->
<g id="edge39" class="edge">
<title>Node1&#45;&gt;Node24</title>
<path fill="none" stroke="midnightblue" d="M489.8,-355.27C550.06,-349.9 682.54,-336.49 803.68,-311.79"/>
<polygon fill="midnightblue" stroke="midnightblue" points="804.41,-315.21 813.49,-309.75 802.99,-308.35 804.41,-315.21"/>
</g>
<!-- Node25 -->
<g id="node25" class="node">
<title>Node25</title>
<g id="a_node25"><a xlink:href="expand_8h.html" target="_top" xlink:title=" ">
<polygon fill="white" stroke="black" points="883,-290.5 883,-311.5 949,-311.5 949,-290.5 883,-290.5"/>
<text text-anchor="middle" x="916" y="-297.9" font-family="DejaVuSans" font-size="12.00">expand.h</text>
</a>
</g>
</g>
<!-- Node1&#45;&gt;Node25 -->
<g id="edge40" class="edge">
<title>Node1&#45;&gt;Node25</title>
<path fill="none" stroke="midnightblue" d="M489.63,-355.78C558.58,-350.8 724.25,-337.28 872.42,-312.1"/>
<polygon fill="midnightblue" stroke="midnightblue" points="873.35,-315.49 882.61,-310.35 872.16,-308.59 873.35,-315.49"/>
</g>
<!-- Node4 -->
<g id="node4" class="node">
<title>Node4</title>
<g id="a_node4"><a xlink:href="tex__types_8h.html" target="_top" xlink:title=" ">
<polygon fill="white" stroke="black" points="339.5,-58.5 339.5,-79.5 416.5,-79.5 416.5,-58.5 339.5,-58.5"/>
<text text-anchor="middle" x="378" y="-65.9" font-family="DejaVuSans" font-size="12.00">tex_types.h</text>
</a>
</g>
</g>
<!-- Node3&#45;&gt;Node4 -->
<g id="edge3" class="edge">
<title>Node3&#45;&gt;Node4</title>
<path fill="none" stroke="midnightblue" d="M130.02,-119.68C134.61,-118.39 139.45,-117.09 144,-116 207.56,-100.7 281.75,-86.77 329.26,-78.35"/>
<polygon fill="midnightblue" stroke="midnightblue" points="330.03,-81.76 339.28,-76.58 328.82,-74.87 330.03,-81.76"/>
</g>
<!-- Node7 -->
<g id="node7" class="node">
<title>Node7</title>
<g id="a_node7"><a xlink:href="tex__constant_8h.html" target="_top" xlink:title=" ">
<polygon fill="white" stroke="black" points="62,-58.5 62,-79.5 156,-79.5 156,-58.5 62,-58.5"/>
<text text-anchor="middle" x="109" y="-65.9" font-family="DejaVuSans" font-size="12.00">tex_constant.h</text>
</a>
</g>
</g>
<!-- Node3&#45;&gt;Node7 -->
<g id="edge6" class="edge">
<title>Node3&#45;&gt;Node7</title>
<path fill="none" stroke="midnightblue" d="M109,-116.25C109,-108.94 109,-98.69 109,-89.7"/>
<polygon fill="midnightblue" stroke="midnightblue" points="112.5,-89.64 109,-79.64 105.5,-89.64 112.5,-89.64"/>
</g>
<!-- Node5 -->
<g id="node5" class="node">
<title>Node5</title>
<g id="a_node5"><a xlink:title=" ">
<polygon fill="white" stroke="#bfbfbf" points="345.5,-0.5 345.5,-21.5 410.5,-21.5 410.5,-0.5 345.5,-0.5"/>
<text text-anchor="middle" x="378" y="-7.9" font-family="DejaVuSans" font-size="12.00">stdbool.h</text>
</a>
</g>
</g>
<!-- Node4&#45;&gt;Node5 -->
<g id="edge4" class="edge">
<title>Node4&#45;&gt;Node5</title>
<path fill="none" stroke="midnightblue" d="M378,-58.25C378,-50.94 378,-40.69 378,-31.7"/>
<polygon fill="midnightblue" stroke="midnightblue" points="381.5,-31.64 378,-21.64 374.5,-31.64 381.5,-31.64"/>
</g>
<!-- Node6 -->
<g id="node6" class="node">
<title>Node6</title>
<g id="a_node6"><a xlink:title=" ">
<polygon fill="white" stroke="#bfbfbf" points="439.5,-0.5 439.5,-21.5 494.5,-21.5 494.5,-0.5 439.5,-0.5"/>
<text text-anchor="middle" x="467" y="-7.9" font-family="DejaVuSans" font-size="12.00">stdint.h</text>
</a>
</g>
</g>
<!-- Node4&#45;&gt;Node6 -->
<g id="edge5" class="edge">
<title>Node4&#45;&gt;Node6</title>
<path fill="none" stroke="midnightblue" d="M393.5,-58.25C407.16,-49.65 427.27,-37 443,-27.1"/>
<polygon fill="midnightblue" stroke="midnightblue" points="445.08,-29.93 451.68,-21.64 441.35,-24.01 445.08,-29.93"/>
</g>
<!-- Node10 -->
<g id="node10" class="node">
<title>Node10</title>
<g id="a_node10"><a xlink:href="global__const_8h.html" target="_top" xlink:title=" ">
<polygon fill="white" stroke="black" points="582.5,-174.5 582.5,-195.5 675.5,-195.5 675.5,-174.5 582.5,-174.5"/>
<text text-anchor="middle" x="629" y="-181.9" font-family="DejaVuSans" font-size="12.00">global_const.h</text>
</a>
</g>
</g>
<!-- Node9&#45;&gt;Node10 -->
<g id="edge9" class="edge">
<title>Node9&#45;&gt;Node10</title>
<path fill="none" stroke="midnightblue" d="M652.12,-232.25C648.35,-224.7 643.01,-214.02 638.41,-204.82"/>
<polygon fill="midnightblue" stroke="midnightblue" points="641.42,-203.02 633.82,-195.64 635.16,-206.15 641.42,-203.02"/>
</g>
<!-- Node11 -->
<g id="node11" class="node">
<title>Node11</title>
<g id="a_node11"><a xlink:title=" ">
<polygon fill="white" stroke="#bfbfbf" points="599.5,-116.5 599.5,-137.5 658.5,-137.5 658.5,-116.5 599.5,-116.5"/>
<text text-anchor="middle" x="629" y="-123.9" font-family="DejaVuSans" font-size="12.00">assert.h</text>
</a>
</g>
</g>
<!-- Node10&#45;&gt;Node11 -->
<g id="edge10" class="edge">
<title>Node10&#45;&gt;Node11</title>
<path fill="none" stroke="midnightblue" d="M629,-174.25C629,-166.94 629,-156.69 629,-147.7"/>
<polygon fill="midnightblue" stroke="midnightblue" points="632.5,-147.64 629,-137.64 625.5,-147.64 632.5,-147.64"/>
</g>
<!-- Node12 -->
<g id="node12" class="node">
<title>Node12</title>
<g id="a_node12"><a xlink:title=" ">
<polygon fill="white" stroke="#bfbfbf" points="517,-116.5 517,-137.5 569,-137.5 569,-116.5 517,-116.5"/>
<text text-anchor="middle" x="543" y="-123.9" font-family="DejaVuSans" font-size="12.00">stdio.h</text>
</a>
</g>
</g>
<!-- Node10&#45;&gt;Node12 -->
<g id="edge11" class="edge">
<title>Node10&#45;&gt;Node12</title>
<path fill="none" stroke="midnightblue" d="M614.02,-174.25C600.82,-165.65 581.39,-153 566.19,-143.1"/>
<polygon fill="midnightblue" stroke="midnightblue" points="568.1,-140.17 557.81,-137.64 564.28,-146.03 568.1,-140.17"/>
</g>
<!-- Node15 -->
<g id="node15" class="node">
<title>Node15</title>
<g id="a_node15"><a xlink:title=" ">
<polygon fill="white" stroke="#bfbfbf" points="378,-232.5 378,-253.5 440,-253.5 440,-232.5 378,-232.5"/>
<text text-anchor="middle" x="409" y="-239.9" font-family="DejaVuSans" font-size="12.00">setjmp.h</text>
</a>
</g>
</g>
<!-- Node14&#45;&gt;Node15 -->
<g id="edge14" class="edge">
<title>Node14&#45;&gt;Node15</title>
<path fill="none" stroke="midnightblue" d="M401.57,-290.25C402.74,-282.94 404.39,-272.69 405.83,-263.7"/>
<polygon fill="midnightblue" stroke="midnightblue" points="409.32,-264.07 407.45,-253.64 402.41,-262.96 409.32,-264.07"/>
</g>
<!-- Node16 -->
<g id="node16" class="node">
<title>Node16</title>
<g id="a_node16"><a xlink:href="str_8h.html" target="_top" xlink:title=" ">
<polygon fill="white" stroke="black" points="496.5,-232.5 496.5,-253.5 535.5,-253.5 535.5,-232.5 496.5,-232.5"/>
<text text-anchor="middle" x="516" y="-239.9" font-family="DejaVuSans" font-size="12.00">str.h</text>
</a>
</g>
</g>
<!-- Node14&#45;&gt;Node16 -->
<g id="edge15" class="edge">
<title>Node14&#45;&gt;Node16</title>
<path fill="none" stroke="midnightblue" d="M419.94,-290.37C438.48,-281.42 466.3,-267.99 487.24,-257.88"/>
<polygon fill="midnightblue" stroke="midnightblue" points="488.84,-261 496.32,-253.5 485.79,-254.7 488.84,-261"/>
</g>
<!-- Node14&#45;&gt;Node17 -->
<g id="edge20" class="edge">
<title>Node14&#45;&gt;Node17</title>
<path fill="none" stroke="midnightblue" d="M388.5,-290.25C378.76,-281.97 364.57,-269.94 353.12,-260.22"/>
<polygon fill="midnightblue" stroke="midnightblue" points="355.25,-257.44 345.36,-253.64 350.73,-262.78 355.25,-257.44"/>
</g>
<!-- Node16&#45;&gt;Node4 -->
<g id="edge19" class="edge">
<title>Node16&#45;&gt;Node4</title>
<path fill="none" stroke="midnightblue" d="M503.23,-232.2C492.18,-223.38 476.12,-209.74 464,-196 432.93,-160.77 403.64,-113.89 388.57,-88.4"/>
<polygon fill="midnightblue" stroke="midnightblue" points="391.58,-86.62 383.52,-79.75 385.54,-90.15 391.58,-86.62"/>
</g>
<!-- Node16&#45;&gt;Node6 -->
<g id="edge17" class="edge">
<title>Node16&#45;&gt;Node6</title>
<path fill="none" stroke="midnightblue" d="M513.96,-232.41C506.58,-197.78 481.22,-78.74 471.16,-31.52"/>
<polygon fill="midnightblue" stroke="midnightblue" points="474.56,-30.68 469.05,-21.63 467.71,-32.14 474.56,-30.68"/>
</g>
<!-- Node16&#45;&gt;Node10 -->
<g id="edge18" class="edge">
<title>Node16&#45;&gt;Node10</title>
<path fill="none" stroke="midnightblue" d="M535.43,-232.37C553.4,-223.46 580.34,-210.11 600.71,-200.02"/>
<polygon fill="midnightblue" stroke="midnightblue" points="602.42,-203.08 609.83,-195.5 599.31,-196.81 602.42,-203.08"/>
</g>
<!-- Node16&#45;&gt;Node12 -->
<g id="edge16" class="edge">
<title>Node16&#45;&gt;Node12</title>
<path fill="none" stroke="midnightblue" d="M518.3,-232.28C522.73,-213.6 532.49,-172.37 538.33,-147.72"/>
<polygon fill="midnightblue" stroke="midnightblue" points="541.8,-148.23 540.7,-137.69 534.99,-146.62 541.8,-148.23"/>
</g>
<!-- Node17&#45;&gt;Node18 -->
<g id="edge21" class="edge">
<title>Node17&#45;&gt;Node18</title>
<path fill="none" stroke="midnightblue" d="M326.34,-232.25C320.15,-224.38 311.29,-213.1 303.87,-203.65"/>
<polygon fill="midnightblue" stroke="midnightblue" points="306.51,-201.34 297.58,-195.64 301,-205.67 306.51,-201.34"/>
</g>
<!-- Node18&#45;&gt;Node3 -->
<g id="edge23" class="edge">
<title>Node18&#45;&gt;Node3</title>
<path fill="none" stroke="midnightblue" d="M263.68,-175.86C230.84,-165.7 174.77,-148.35 139.92,-137.57"/>
<polygon fill="midnightblue" stroke="midnightblue" points="140.85,-134.19 130.26,-134.58 138.78,-140.88 140.85,-134.19"/>
</g>
<!-- Node18&#45;&gt;Node12 -->
<g id="edge22" class="edge">
<title>Node18&#45;&gt;Node12</title>
<path fill="none" stroke="midnightblue" d="M316.17,-178.18C322.35,-176.81 328.91,-175.35 335,-174 395.25,-160.64 465.32,-145.16 506.82,-135.99"/>
<polygon fill="midnightblue" stroke="midnightblue" points="507.72,-139.38 516.73,-133.8 506.21,-132.54 507.72,-139.38"/>
</g>
<!-- Node19&#45;&gt;Node16 -->
<g id="edge25" class="edge">
<title>Node19&#45;&gt;Node16</title>
<path fill="none" stroke="midnightblue" d="M517.65,-290.25C517.39,-282.94 517.02,-272.69 516.7,-263.7"/>
<polygon fill="midnightblue" stroke="midnightblue" points="520.2,-263.51 516.34,-253.64 513.2,-263.76 520.2,-263.51"/>
</g>
<!-- Node21&#45;&gt;Node3 -->
<g id="edge30" class="edge">
<title>Node21&#45;&gt;Node3</title>
<path fill="none" stroke="midnightblue" d="M176.55,-290.34C166.38,-281.82 152.37,-268.52 144,-254 124.25,-219.73 115.17,-173.75 111.39,-147.87"/>
<polygon fill="midnightblue" stroke="midnightblue" points="114.84,-147.25 110.04,-137.8 107.9,-148.18 114.84,-147.25"/>
</g>
<!-- Node21&#45;&gt;Node4 -->
<g id="edge29" class="edge">
<title>Node21&#45;&gt;Node4</title>
<path fill="none" stroke="midnightblue" d="M183.77,-290.27C177.19,-276.61 167.79,-251.25 177,-232 212.38,-158.05 299.8,-107.08 346.85,-84"/>
<polygon fill="midnightblue" stroke="midnightblue" points="348.46,-87.1 355.96,-79.62 345.43,-80.79 348.46,-87.1"/>
</g>
<!-- Node21&#45;&gt;Node8 -->
<g id="edge31" class="edge">
<title>Node21&#45;&gt;Node8</title>
<path fill="none" stroke="midnightblue" d="M194.23,-290.25C198.31,-282.62 204.11,-271.79 209.07,-262.53"/>
<polygon fill="midnightblue" stroke="midnightblue" points="212.2,-264.11 213.83,-253.64 206.03,-260.8 212.2,-264.11"/>
</g>
<!-- Node21&#45;&gt;Node16 -->
<g id="edge32" class="edge">
<title>Node21&#45;&gt;Node16</title>
<path fill="none" stroke="midnightblue" d="M214.12,-295.7C273.49,-285.53 422.31,-260.04 486.15,-249.11"/>
<polygon fill="midnightblue" stroke="midnightblue" points="487.08,-252.5 496.35,-247.37 485.9,-245.6 487.08,-252.5"/>
</g>
<!-- Node22&#45;&gt;Node10 -->
<g id="edge35" class="edge">
<title>Node22&#45;&gt;Node10</title>
<path fill="none" stroke="midnightblue" d="M588.54,-232.25C595.49,-224.3 605.49,-212.87 613.81,-203.37"/>
<polygon fill="midnightblue" stroke="midnightblue" points="616.61,-205.47 620.56,-195.64 611.34,-200.86 616.61,-205.47"/>
</g>
<!-- Node22&#45;&gt;Node12 -->
<g id="edge34" class="edge">
<title>Node22&#45;&gt;Node12</title>
<path fill="none" stroke="midnightblue" d="M576.85,-232.28C570.76,-213.52 557.28,-172 549.29,-147.38"/>
<polygon fill="midnightblue" stroke="midnightblue" points="552.56,-146.13 546.15,-137.69 545.9,-148.29 552.56,-146.13"/>
</g>
<!-- Node23&#45;&gt;Node4 -->
<g id="edge37" class="edge">
<title>Node23&#45;&gt;Node4</title>
<path fill="none" stroke="midnightblue" d="M378,-174.28C378,-155.6 378,-114.37 378,-89.72"/>
<polygon fill="midnightblue" stroke="midnightblue" points="381.5,-89.69 378,-79.69 374.5,-89.7 381.5,-89.69"/>
</g>
</g>
</svg>
