<?xml version="1.0" encoding="UTF-8" standalone="no"?>
<!DOCTYPE svg PUBLIC "-//W3C//DTD SVG 1.1//EN"
 "http://www.w3.org/Graphics/SVG/1.1/DTD/svg11.dtd">
<!-- Generated by graphviz version 2.44.0 ()
 -->
<!-- Title: expand.c Pages: 1 -->
<svg width="1266pt" height="436pt"
 viewBox="0.00 0.00 1266.00 436.00" xmlns="http://www.w3.org/2000/svg" xmlns:xlink="http://www.w3.org/1999/xlink">
<g id="graph0" class="graph" transform="scale(1 1) rotate(0) translate(4 432)">
<title>expand.c</title>
<polygon fill="white" stroke="transparent" points="-4,4 -4,-432 1262,-432 1262,4 -4,4"/>
<!-- Node1 -->
<g id="node1" class="node">
<title>Node1</title>
<g id="a_node1"><a xlink:title=" ">
<polygon fill="#bfbfbf" stroke="black" points="700.5,-406.5 700.5,-427.5 765.5,-427.5 765.5,-406.5 700.5,-406.5"/>
<text text-anchor="middle" x="733" y="-413.9" font-family="DejaVuSans" font-size="12.00">expand.c</text>
</a>
</g>
</g>
<!-- Node2 -->
<g id="node2" class="node">
<title>Node2</title>
<g id="a_node2"><a xlink:title=" ">
<polygon fill="white" stroke="#bfbfbf" points="0,-348.5 0,-369.5 54,-369.5 54,-348.5 0,-348.5"/>
<text text-anchor="middle" x="27" y="-355.9" font-family="DejaVuSans" font-size="12.00">stdlib.h</text>
</a>
</g>
</g>
<!-- Node1&#45;&gt;Node2 -->
<g id="edge1" class="edge">
<title>Node1&#45;&gt;Node2</title>
<path fill="none" stroke="midnightblue" d="M700.26,-415.7C603.19,-414.4 308.72,-407.4 68,-370 66.74,-369.8 65.46,-369.59 64.17,-369.36"/>
<polygon fill="midnightblue" stroke="midnightblue" points="64.72,-365.9 54.22,-367.32 63.31,-372.75 64.72,-365.9"/>
</g>
<!-- Node3 -->
<g id="node3" class="node">
<title>Node3</title>
<g id="a_node3"><a xlink:href="charset_8h.html" target="_top" xlink:title=" ">
<polygon fill="white" stroke="black" points="152.5,-174.5 152.5,-195.5 217.5,-195.5 217.5,-174.5 152.5,-174.5"/>
<text text-anchor="middle" x="185" y="-181.9" font-family="DejaVuSans" font-size="12.00">charset.h</text>
</a>
</g>
</g>
<!-- Node1&#45;&gt;Node3 -->
<g id="edge2" class="edge">
<title>Node1&#45;&gt;Node3</title>
<path fill="none" stroke="midnightblue" d="M700.27,-415.07C609.66,-412.13 357.15,-401.28 281,-370 216.95,-343.69 194.27,-321.05 177,-254 172.88,-238.01 175.59,-219.36 178.92,-205.64"/>
<polygon fill="midnightblue" stroke="midnightblue" points="182.34,-206.41 181.62,-195.84 175.59,-204.55 182.34,-206.41"/>
</g>
<!-- Node11 -->
<g id="node11" class="node">
<title>Node11</title>
<g id="a_node11"><a xlink:href="tex__constant_8h.html" target="_top" xlink:title=" ">
<polygon fill="white" stroke="black" points="426,-174.5 426,-195.5 520,-195.5 520,-174.5 426,-174.5"/>
<text text-anchor="middle" x="473" y="-181.9" font-family="DejaVuSans" font-size="12.00">tex_constant.h</text>
</a>
</g>
</g>
<!-- Node1&#45;&gt;Node11 -->
<g id="edge10" class="edge">
<title>Node1&#45;&gt;Node11</title>
<path fill="none" stroke="midnightblue" d="M722.16,-406.41C682.1,-370.97 542.15,-247.17 491.49,-202.35"/>
<polygon fill="midnightblue" stroke="midnightblue" points="493.7,-199.64 483.89,-195.63 489.06,-204.88 493.7,-199.64"/>
</g>
<!-- Node12 -->
<g id="node12" class="node">
<title>Node12</title>
<g id="a_node12"><a xlink:href="lexer_8h.html" target="_top" xlink:title=" ">
<polygon fill="white" stroke="black" points="711,-232.5 711,-253.5 763,-253.5 763,-232.5 711,-232.5"/>
<text text-anchor="middle" x="737" y="-239.9" font-family="DejaVuSans" font-size="12.00">lexer.h</text>
</a>
</g>
</g>
<!-- Node1&#45;&gt;Node12 -->
<g id="edge11" class="edge">
<title>Node1&#45;&gt;Node12</title>
<path fill="none" stroke="midnightblue" d="M733.23,-406.26C733.86,-378.82 735.69,-300.51 736.54,-263.64"/>
<polygon fill="midnightblue" stroke="midnightblue" points="740.04,-263.71 736.78,-253.63 733.04,-263.55 740.04,-263.71"/>
</g>
<!-- Node14 -->
<g id="node14" class="node">
<title>Node14</title>
<g id="a_node14"><a xlink:href="printout_8h.html" target="_top" xlink:title=" ">
<polygon fill="white" stroke="black" points="1192,-348.5 1192,-369.5 1258,-369.5 1258,-348.5 1192,-348.5"/>
<text text-anchor="middle" x="1225" y="-355.9" font-family="DejaVuSans" font-size="12.00">printout.h</text>
</a>
</g>
</g>
<!-- Node1&#45;&gt;Node14 -->
<g id="edge15" class="edge">
<title>Node1&#45;&gt;Node14</title>
<path fill="none" stroke="midnightblue" d="M765.71,-412.35C834.84,-404.64 1000.84,-386.05 1140,-370 1153.64,-368.43 1168.52,-366.69 1181.95,-365.1"/>
<polygon fill="midnightblue" stroke="midnightblue" points="1182.38,-368.58 1191.9,-363.93 1181.56,-361.62 1182.38,-368.58"/>
</g>
<!-- Node15 -->
<g id="node15" class="node">
<title>Node15</title>
<g id="a_node15"><a xlink:href="print_8h.html" target="_top" xlink:title=" ">
<polygon fill="white" stroke="black" points="393,-290.5 393,-311.5 443,-311.5 443,-290.5 393,-290.5"/>
<text text-anchor="middle" x="418" y="-297.9" font-family="DejaVuSans" font-size="12.00">print.h</text>
</a>
</g>
</g>
<!-- Node1&#45;&gt;Node15 -->
<g id="edge17" class="edge">
<title>Node1&#45;&gt;Node15</title>
<path fill="none" stroke="midnightblue" d="M700.5,-415.09C653.02,-412.6 562.97,-403.44 495,-370 469.93,-357.67 446.7,-334.96 432.45,-319.19"/>
<polygon fill="midnightblue" stroke="midnightblue" points="435.08,-316.88 425.86,-311.67 429.82,-321.5 435.08,-316.88"/>
</g>
<!-- Node18 -->
<g id="node18" class="node">
<title>Node18</title>
<g id="a_node18"><a xlink:href="fonts_8h.html" target="_top" xlink:title=" ">
<polygon fill="white" stroke="black" points="761,-290.5 761,-311.5 813,-311.5 813,-290.5 761,-290.5"/>
<text text-anchor="middle" x="787" y="-297.9" font-family="DejaVuSans" font-size="12.00">fonts.h</text>
</a>
</g>
</g>
<!-- Node1&#45;&gt;Node18 -->
<g id="edge30" class="edge">
<title>Node1&#45;&gt;Node18</title>
<path fill="none" stroke="midnightblue" d="M737.6,-406.28C746.53,-387.43 766.34,-345.62 777.97,-321.05"/>
<polygon fill="midnightblue" stroke="midnightblue" points="781.29,-322.23 782.41,-311.69 774.96,-319.23 781.29,-322.23"/>
</g>
<!-- Node20 -->
<g id="node20" class="node">
<title>Node20</title>
<g id="a_node20"><a xlink:href="texmath_8h.html" target="_top" xlink:title=" ">
<polygon fill="white" stroke="black" points="1163,-232.5 1163,-253.5 1231,-253.5 1231,-232.5 1163,-232.5"/>
<text text-anchor="middle" x="1197" y="-239.9" font-family="DejaVuSans" font-size="12.00">texmath.h</text>
</a>
</g>
</g>
<!-- Node1&#45;&gt;Node20 -->
<g id="edge38" class="edge">
<title>Node1&#45;&gt;Node20</title>
<path fill="none" stroke="midnightblue" d="M765.67,-413.86C815.01,-409.79 910.87,-398.64 987,-370 1061.84,-341.85 1140.05,-287.06 1176.29,-259.96"/>
<polygon fill="midnightblue" stroke="midnightblue" points="1178.71,-262.53 1184.57,-253.7 1174.49,-256.94 1178.71,-262.53"/>
</g>
<!-- Node21 -->
<g id="node21" class="node">
<title>Node21</title>
<g id="a_node21"><a xlink:href="scan_8h.html" target="_top" xlink:title=" ">
<polygon fill="white" stroke="black" points="653,-290.5 653,-311.5 705,-311.5 705,-290.5 653,-290.5"/>
<text text-anchor="middle" x="679" y="-297.9" font-family="DejaVuSans" font-size="12.00">scan.h</text>
</a>
</g>
</g>
<!-- Node1&#45;&gt;Node21 -->
<g id="edge40" class="edge">
<title>Node1&#45;&gt;Node21</title>
<path fill="none" stroke="midnightblue" d="M728.4,-406.28C719.47,-387.43 699.66,-345.62 688.03,-321.05"/>
<polygon fill="midnightblue" stroke="midnightblue" points="691.04,-319.23 683.59,-311.69 684.71,-322.23 691.04,-319.23"/>
</g>
<!-- Node22 -->
<g id="node22" class="node">
<title>Node22</title>
<g id="a_node22"><a xlink:href="error_8h.html" target="_top" xlink:title=" ">
<polygon fill="white" stroke="black" points="831.5,-290.5 831.5,-311.5 882.5,-311.5 882.5,-290.5 831.5,-290.5"/>
<text text-anchor="middle" x="857" y="-297.9" font-family="DejaVuSans" font-size="12.00">error.h</text>
</a>
</g>
</g>
<!-- Node1&#45;&gt;Node22 -->
<g id="edge44" class="edge">
<title>Node1&#45;&gt;Node22</title>
<path fill="none" stroke="midnightblue" d="M743.57,-406.28C764.8,-386.76 812.83,-342.61 839.07,-318.49"/>
<polygon fill="midnightblue" stroke="midnightblue" points="841.46,-321.04 846.45,-311.69 836.72,-315.89 841.46,-321.04"/>
</g>
<!-- Node23 -->
<g id="node23" class="node">
<title>Node23</title>
<g id="a_node23"><a xlink:href="hash_8h.html" target="_top" xlink:title=" ">
<polygon fill="white" stroke="black" points="290.5,-348.5 290.5,-369.5 343.5,-369.5 343.5,-348.5 290.5,-348.5"/>
<text text-anchor="middle" x="317" y="-355.9" font-family="DejaVuSans" font-size="12.00">hash.h</text>
</a>
</g>
</g>
<!-- Node1&#45;&gt;Node23 -->
<g id="edge47" class="edge">
<title>Node1&#45;&gt;Node23</title>
<path fill="none" stroke="midnightblue" d="M700.36,-411.61C624.01,-401.33 434.19,-375.78 353.85,-364.96"/>
<polygon fill="midnightblue" stroke="midnightblue" points="354.09,-361.46 343.71,-363.6 353.15,-368.4 354.09,-361.46"/>
</g>
<!-- Node24 -->
<g id="node24" class="node">
<title>Node24</title>
<g id="a_node24"><a xlink:href="mem_8h.html" target="_top" xlink:title=" ">
<polygon fill="white" stroke="black" points="969.5,-232.5 969.5,-253.5 1022.5,-253.5 1022.5,-232.5 969.5,-232.5"/>
<text text-anchor="middle" x="996" y="-239.9" font-family="DejaVuSans" font-size="12.00">mem.h</text>
</a>
</g>
</g>
<!-- Node1&#45;&gt;Node24 -->
<g id="edge53" class="edge">
<title>Node1&#45;&gt;Node24</title>
<path fill="none" stroke="midnightblue" d="M749.45,-406.36C764.94,-397.2 788.73,-382.96 809,-370 869.26,-331.49 938.74,-283.78 973.6,-259.61"/>
<polygon fill="midnightblue" stroke="midnightblue" points="975.86,-262.3 982.08,-253.72 971.87,-256.55 975.86,-262.3"/>
</g>
<!-- Node25 -->
<g id="node25" class="node">
<title>Node25</title>
<g id="a_node25"><a xlink:href="box_8h.html" target="_top" xlink:title=" ">
<polygon fill="white" stroke="black" points="977,-290.5 977,-311.5 1023,-311.5 1023,-290.5 977,-290.5"/>
<text text-anchor="middle" x="1000" y="-297.9" font-family="DejaVuSans" font-size="12.00">box.h</text>
</a>
</g>
</g>
<!-- Node1&#45;&gt;Node25 -->
<g id="edge56" class="edge">
<title>Node1&#45;&gt;Node25</title>
<path fill="none" stroke="midnightblue" d="M765.65,-412.89C821.42,-407.02 932.02,-392.82 963,-370 979.18,-358.08 989.08,-336.89 994.52,-321.33"/>
<polygon fill="midnightblue" stroke="midnightblue" points="997.9,-322.22 997.59,-311.63 991.23,-320.1 997.9,-322.22"/>
</g>
<!-- Node26 -->
<g id="node26" class="node">
<title>Node26</title>
<g id="a_node26"><a xlink:href="io_8h.html" target="_top" xlink:title=" ">
<polygon fill="white" stroke="black" points="339,-290.5 339,-311.5 375,-311.5 375,-290.5 339,-290.5"/>
<text text-anchor="middle" x="357" y="-297.9" font-family="DejaVuSans" font-size="12.00">io.h</text>
</a>
</g>
</g>
<!-- Node1&#45;&gt;Node26 -->
<g id="edge61" class="edge">
<title>Node1&#45;&gt;Node26</title>
<path fill="none" stroke="midnightblue" d="M700.18,-414.91C647.54,-412.2 541.74,-402.78 459,-370 427.29,-357.44 395.3,-333.95 375.81,-318.14"/>
<polygon fill="midnightblue" stroke="midnightblue" points="377.96,-315.37 368.03,-311.69 373.49,-320.76 377.96,-315.37"/>
</g>
<!-- Node27 -->
<g id="node27" class="node">
<title>Node27</title>
<g id="a_node27"><a xlink:href="expand_8h.html" target="_top" xlink:title=" ">
<polygon fill="white" stroke="black" points="1041,-232.5 1041,-253.5 1107,-253.5 1107,-232.5 1041,-232.5"/>
<text text-anchor="middle" x="1074" y="-239.9" font-family="DejaVuSans" font-size="12.00">expand.h</text>
</a>
</g>
</g>
<!-- Node1&#45;&gt;Node27 -->
<g id="edge67" class="edge">
<title>Node1&#45;&gt;Node27</title>
<path fill="none" stroke="midnightblue" d="M758.15,-406.45C780.15,-397.8 812.77,-384.26 840,-370 899.43,-338.88 908.62,-321.22 968,-290 991.3,-277.75 1018.56,-265.97 1039.61,-257.4"/>
<polygon fill="midnightblue" stroke="midnightblue" points="1041.13,-260.56 1049.09,-253.58 1038.51,-254.07 1041.13,-260.56"/>
</g>
<!-- Node4 -->
<g id="node4" class="node">
<title>Node4</title>
<g id="a_node4"><a xlink:href="global_8h.html" target="_top" xlink:title=" ">
<polygon fill="white" stroke="black" points="759,-116.5 759,-137.5 817,-137.5 817,-116.5 759,-116.5"/>
<text text-anchor="middle" x="788" y="-123.9" font-family="DejaVuSans" font-size="12.00">global.h</text>
</a>
</g>
</g>
<!-- Node3&#45;&gt;Node4 -->
<g id="edge3" class="edge">
<title>Node3&#45;&gt;Node4</title>
<path fill="none" stroke="midnightblue" d="M217.76,-177.39C224.75,-176.14 232.1,-174.93 239,-174 429.12,-148.5 658.31,-134.72 748.66,-129.95"/>
<polygon fill="midnightblue" stroke="midnightblue" points="748.92,-133.44 758.73,-129.42 748.56,-126.45 748.92,-133.44"/>
</g>
<!-- Node5 -->
<g id="node5" class="node">
<title>Node5</title>
<g id="a_node5"><a xlink:href="global__macros_8h.html" target="_top" xlink:title=" ">
<polygon fill="white" stroke="black" points="736,-58.5 736,-79.5 840,-79.5 840,-58.5 736,-58.5"/>
<text text-anchor="middle" x="788" y="-65.9" font-family="DejaVuSans" font-size="12.00">global_macros.h</text>
</a>
</g>
</g>
<!-- Node4&#45;&gt;Node5 -->
<g id="edge4" class="edge">
<title>Node4&#45;&gt;Node5</title>
<path fill="none" stroke="midnightblue" d="M788,-116.25C788,-108.94 788,-98.69 788,-89.7"/>
<polygon fill="midnightblue" stroke="midnightblue" points="791.5,-89.64 788,-79.64 784.5,-89.64 791.5,-89.64"/>
</g>
<!-- Node7 -->
<g id="node7" class="node">
<title>Node7</title>
<g id="a_node7"><a xlink:href="global__const_8h.html" target="_top" xlink:title=" ">
<polygon fill="white" stroke="black" points="858.5,-58.5 858.5,-79.5 951.5,-79.5 951.5,-58.5 858.5,-58.5"/>
<text text-anchor="middle" x="905" y="-65.9" font-family="DejaVuSans" font-size="12.00">global_const.h</text>
</a>
</g>
</g>
<!-- Node4&#45;&gt;Node7 -->
<g id="edge6" class="edge">
<title>Node4&#45;&gt;Node7</title>
<path fill="none" stroke="midnightblue" d="M808.11,-116.37C826.81,-107.42 854.87,-93.99 875.99,-83.88"/>
<polygon fill="midnightblue" stroke="midnightblue" points="877.64,-86.98 885.15,-79.5 874.62,-80.66 877.64,-86.98"/>
</g>
<!-- Node8 -->
<g id="node8" class="node">
<title>Node8</title>
<g id="a_node8"><a xlink:href="tex__types_8h.html" target="_top" xlink:title=" ">
<polygon fill="white" stroke="black" points="640.5,-58.5 640.5,-79.5 717.5,-79.5 717.5,-58.5 640.5,-58.5"/>
<text text-anchor="middle" x="679" y="-65.9" font-family="DejaVuSans" font-size="12.00">tex_types.h</text>
</a>
</g>
</g>
<!-- Node4&#45;&gt;Node8 -->
<g id="edge7" class="edge">
<title>Node4&#45;&gt;Node8</title>
<path fill="none" stroke="midnightblue" d="M769.01,-116.25C751.82,-107.41 726.28,-94.29 706.79,-84.28"/>
<polygon fill="midnightblue" stroke="midnightblue" points="708.26,-81.1 697.77,-79.64 705.06,-87.33 708.26,-81.1"/>
</g>
<!-- Node6 -->
<g id="node6" class="node">
<title>Node6</title>
<g id="a_node6"><a xlink:title=" ">
<polygon fill="white" stroke="#bfbfbf" points="758.5,-0.5 758.5,-21.5 817.5,-21.5 817.5,-0.5 758.5,-0.5"/>
<text text-anchor="middle" x="788" y="-7.9" font-family="DejaVuSans" font-size="12.00">assert.h</text>
</a>
</g>
</g>
<!-- Node5&#45;&gt;Node6 -->
<g id="edge5" class="edge">
<title>Node5&#45;&gt;Node6</title>
<path fill="none" stroke="midnightblue" d="M788,-58.25C788,-50.94 788,-40.69 788,-31.7"/>
<polygon fill="midnightblue" stroke="midnightblue" points="791.5,-31.64 788,-21.64 784.5,-31.64 791.5,-31.64"/>
</g>
<!-- Node9 -->
<g id="node9" class="node">
<title>Node9</title>
<g id="a_node9"><a xlink:title=" ">
<polygon fill="white" stroke="#bfbfbf" points="652.5,-0.5 652.5,-21.5 717.5,-21.5 717.5,-0.5 652.5,-0.5"/>
<text text-anchor="middle" x="685" y="-7.9" font-family="DejaVuSans" font-size="12.00">stdbool.h</text>
</a>
</g>
</g>
<!-- Node8&#45;&gt;Node9 -->
<g id="edge8" class="edge">
<title>Node8&#45;&gt;Node9</title>
<path fill="none" stroke="midnightblue" d="M680.05,-58.25C680.83,-50.94 681.93,-40.69 682.89,-31.7"/>
<polygon fill="midnightblue" stroke="midnightblue" points="686.38,-31.96 683.97,-21.64 679.42,-31.21 686.38,-31.96"/>
</g>
<!-- Node10 -->
<g id="node10" class="node">
<title>Node10</title>
<g id="a_node10"><a xlink:title=" ">
<polygon fill="white" stroke="#bfbfbf" points="579.5,-0.5 579.5,-21.5 634.5,-21.5 634.5,-0.5 579.5,-0.5"/>
<text text-anchor="middle" x="607" y="-7.9" font-family="DejaVuSans" font-size="12.00">stdint.h</text>
</a>
</g>
</g>
<!-- Node8&#45;&gt;Node10 -->
<g id="edge9" class="edge">
<title>Node8&#45;&gt;Node10</title>
<path fill="none" stroke="midnightblue" d="M666.46,-58.25C655.72,-49.89 640.05,-37.71 627.5,-27.94"/>
<polygon fill="midnightblue" stroke="midnightblue" points="629.44,-25.02 619.4,-21.64 625.14,-30.54 629.44,-25.02"/>
</g>
<!-- Node12&#45;&gt;Node4 -->
<g id="edge13" class="edge">
<title>Node12&#45;&gt;Node4</title>
<path fill="none" stroke="midnightblue" d="M738.63,-232.41C741.15,-218.9 746.7,-193.74 756,-174 760.69,-164.05 767.48,-153.91 773.6,-145.69"/>
<polygon fill="midnightblue" stroke="midnightblue" points="776.49,-147.68 779.85,-137.63 770.96,-143.39 776.49,-147.68"/>
</g>
<!-- Node12&#45;&gt;Node11 -->
<g id="edge14" class="edge">
<title>Node12&#45;&gt;Node11</title>
<path fill="none" stroke="midnightblue" d="M710.72,-236.43C668.36,-227.44 584.09,-209.56 528.12,-197.69"/>
<polygon fill="midnightblue" stroke="midnightblue" points="528.52,-194.2 518.01,-195.55 527.07,-201.05 528.52,-194.2"/>
</g>
<!-- Node13 -->
<g id="node13" class="node">
<title>Node13</title>
<g id="a_node13"><a xlink:title=" ">
<polygon fill="white" stroke="#bfbfbf" points="765,-174.5 765,-195.5 817,-195.5 817,-174.5 765,-174.5"/>
<text text-anchor="middle" x="791" y="-181.9" font-family="DejaVuSans" font-size="12.00">stdio.h</text>
</a>
</g>
</g>
<!-- Node12&#45;&gt;Node13 -->
<g id="edge12" class="edge">
<title>Node12&#45;&gt;Node13</title>
<path fill="none" stroke="midnightblue" d="M746.41,-232.25C754.15,-224.22 765.31,-212.64 774.53,-203.08"/>
<polygon fill="midnightblue" stroke="midnightblue" points="777.28,-205.27 781.7,-195.64 772.24,-200.41 777.28,-205.27"/>
</g>
<!-- Node14&#45;&gt;Node4 -->
<g id="edge16" class="edge">
<title>Node14&#45;&gt;Node4</title>
<path fill="none" stroke="midnightblue" d="M1229.42,-348.32C1238.72,-326.5 1258.01,-272.21 1240,-232 1224.17,-196.67 1210.3,-189.91 1175,-174 1113.49,-146.28 912.95,-133.83 827.33,-129.68"/>
<polygon fill="midnightblue" stroke="midnightblue" points="827.39,-126.18 817.23,-129.21 827.06,-133.18 827.39,-126.18"/>
</g>
<!-- Node15&#45;&gt;Node3 -->
<g id="edge20" class="edge">
<title>Node15&#45;&gt;Node3</title>
<path fill="none" stroke="midnightblue" d="M392.73,-292.58C353.89,-281.08 282.85,-259.71 272,-254 245.46,-240.04 218.88,-217.75 202.21,-202.53"/>
<polygon fill="midnightblue" stroke="midnightblue" points="204.57,-199.94 194.87,-195.69 199.8,-205.07 204.57,-199.94"/>
</g>
<!-- Node15&#45;&gt;Node4 -->
<g id="edge19" class="edge">
<title>Node15&#45;&gt;Node4</title>
<path fill="none" stroke="midnightblue" d="M414.11,-290.31C405.45,-267.01 387.59,-207.28 417,-174 438.73,-149.41 657.67,-134.96 748.67,-129.98"/>
<polygon fill="midnightblue" stroke="midnightblue" points="749.06,-133.46 758.85,-129.43 748.68,-126.47 749.06,-133.46"/>
</g>
<!-- Node15&#45;&gt;Node11 -->
<g id="edge21" class="edge">
<title>Node15&#45;&gt;Node11</title>
<path fill="none" stroke="midnightblue" d="M422.69,-290.28C431.82,-271.35 452.13,-229.25 463.97,-204.72"/>
<polygon fill="midnightblue" stroke="midnightblue" points="467.13,-206.22 468.32,-195.69 460.82,-203.18 467.13,-206.22"/>
</g>
<!-- Node15&#45;&gt;Node13 -->
<g id="edge18" class="edge">
<title>Node15&#45;&gt;Node13</title>
<path fill="none" stroke="midnightblue" d="M443.2,-291.56C444.82,-291.03 446.43,-290.51 448,-290 498.96,-273.53 513.43,-274.27 563,-254 582.87,-245.88 585.9,-239.53 606,-232 656.15,-213.22 716.8,-199.81 754.65,-192.47"/>
<polygon fill="midnightblue" stroke="midnightblue" points="755.52,-195.87 764.69,-190.57 754.22,-188.99 755.52,-195.87"/>
</g>
<!-- Node16 -->
<g id="node16" class="node">
<title>Node16</title>
<g id="a_node16"><a xlink:href="eqtb_8h.html" target="_top" xlink:title=" ">
<polygon fill="white" stroke="black" points="281,-232.5 281,-253.5 331,-253.5 331,-232.5 281,-232.5"/>
<text text-anchor="middle" x="306" y="-239.9" font-family="DejaVuSans" font-size="12.00">eqtb.h</text>
</a>
</g>
</g>
<!-- Node15&#45;&gt;Node16 -->
<g id="edge22" class="edge">
<title>Node15&#45;&gt;Node16</title>
<path fill="none" stroke="midnightblue" d="M398.75,-290.37C380.93,-281.46 354.23,-268.11 334.04,-258.02"/>
<polygon fill="midnightblue" stroke="midnightblue" points="335.51,-254.84 325,-253.5 332.38,-261.1 335.51,-254.84"/>
</g>
<!-- Node17 -->
<g id="node17" class="node">
<title>Node17</title>
<g id="a_node17"><a xlink:href="str_8h.html" target="_top" xlink:title=" ">
<polygon fill="white" stroke="black" points="615.5,-232.5 615.5,-253.5 654.5,-253.5 654.5,-232.5 615.5,-232.5"/>
<text text-anchor="middle" x="635" y="-239.9" font-family="DejaVuSans" font-size="12.00">str.h</text>
</a>
</g>
</g>
<!-- Node15&#45;&gt;Node17 -->
<g id="edge25" class="edge">
<title>Node15&#45;&gt;Node17</title>
<path fill="none" stroke="midnightblue" d="M443.17,-293.52C447.77,-292.35 452.53,-291.13 457,-290 520.95,-273.81 537.34,-271.31 601,-254 602.45,-253.61 603.93,-253.2 605.42,-252.78"/>
<polygon fill="midnightblue" stroke="midnightblue" points="606.62,-256.08 615.26,-249.95 604.68,-249.35 606.62,-256.08"/>
</g>
<!-- Node16&#45;&gt;Node4 -->
<g id="edge23" class="edge">
<title>Node16&#45;&gt;Node4</title>
<path fill="none" stroke="midnightblue" d="M313.73,-232.05C326.35,-216.63 353.01,-187.33 383,-174 447.93,-145.14 660.25,-133.25 748.73,-129.47"/>
<polygon fill="midnightblue" stroke="midnightblue" points="749.05,-132.96 758.89,-129.05 748.76,-125.96 749.05,-132.96"/>
</g>
<!-- Node16&#45;&gt;Node11 -->
<g id="edge24" class="edge">
<title>Node16&#45;&gt;Node11</title>
<path fill="none" stroke="midnightblue" d="M331,-233.62C358.42,-224.42 402.76,-209.55 434.6,-198.88"/>
<polygon fill="midnightblue" stroke="midnightblue" points="436.1,-202.07 444.47,-195.57 433.87,-195.43 436.1,-202.07"/>
</g>
<!-- Node17&#45;&gt;Node3 -->
<g id="edge29" class="edge">
<title>Node17&#45;&gt;Node3</title>
<path fill="none" stroke="midnightblue" d="M615.37,-239.56C547.63,-231.13 322.54,-203.12 227.71,-191.32"/>
<polygon fill="midnightblue" stroke="midnightblue" points="227.97,-187.82 217.61,-190.06 227.1,-194.77 227.97,-187.82"/>
</g>
<!-- Node17&#45;&gt;Node4 -->
<g id="edge28" class="edge">
<title>Node17&#45;&gt;Node4</title>
<path fill="none" stroke="midnightblue" d="M637.43,-232.29C641.54,-217.71 651.23,-190.16 669,-174 691.32,-153.7 723.59,-141.98 748.89,-135.45"/>
<polygon fill="midnightblue" stroke="midnightblue" points="750,-138.79 758.91,-133.04 748.37,-131.98 750,-138.79"/>
</g>
<!-- Node17&#45;&gt;Node10 -->
<g id="edge27" class="edge">
<title>Node17&#45;&gt;Node10</title>
<path fill="none" stroke="midnightblue" d="M633.83,-232.41C629.63,-197.85 615.19,-79.24 609.41,-31.82"/>
<polygon fill="midnightblue" stroke="midnightblue" points="612.86,-31.13 608.17,-21.63 605.91,-31.98 612.86,-31.13"/>
</g>
<!-- Node17&#45;&gt;Node13 -->
<g id="edge26" class="edge">
<title>Node17&#45;&gt;Node13</title>
<path fill="none" stroke="midnightblue" d="M654.76,-234.91C679.98,-225.85 724.1,-210.02 755.28,-198.82"/>
<polygon fill="midnightblue" stroke="midnightblue" points="756.69,-202.04 764.92,-195.36 754.32,-195.45 756.69,-202.04"/>
</g>
<!-- Node18&#45;&gt;Node4 -->
<g id="edge32" class="edge">
<title>Node18&#45;&gt;Node4</title>
<path fill="none" stroke="midnightblue" d="M813.37,-291.11C839.23,-281.79 875.93,-266.76 884,-254 910.77,-211.68 850.9,-165.83 814.09,-142.87"/>
<polygon fill="midnightblue" stroke="midnightblue" points="815.66,-139.73 805.3,-137.54 812.04,-145.72 815.66,-139.73"/>
</g>
<!-- Node18&#45;&gt;Node11 -->
<g id="edge33" class="edge">
<title>Node18&#45;&gt;Node11</title>
<path fill="none" stroke="midnightblue" d="M760.97,-295.29C725.29,-288.41 659.54,-274.2 606,-254 566.67,-239.16 523.82,-215.85 497.68,-200.75"/>
<polygon fill="midnightblue" stroke="midnightblue" points="499.24,-197.61 488.84,-195.58 495.71,-203.65 499.24,-197.61"/>
</g>
<!-- Node18&#45;&gt;Node13 -->
<g id="edge31" class="edge">
<title>Node18&#45;&gt;Node13</title>
<path fill="none" stroke="midnightblue" d="M787.34,-290.28C788,-271.6 789.44,-230.37 790.31,-205.72"/>
<polygon fill="midnightblue" stroke="midnightblue" points="793.81,-205.81 790.66,-195.69 786.81,-205.57 793.81,-205.81"/>
</g>
<!-- Node18&#45;&gt;Node17 -->
<g id="edge34" class="edge">
<title>Node18&#45;&gt;Node17</title>
<path fill="none" stroke="midnightblue" d="M760.87,-290.37C733.96,-280.46 692.11,-265.04 664.14,-254.74"/>
<polygon fill="midnightblue" stroke="midnightblue" points="665.11,-251.36 654.52,-251.19 662.69,-257.93 665.11,-251.36"/>
</g>
<!-- Node19 -->
<g id="node19" class="node">
<title>Node19</title>
<g id="a_node19"><a xlink:href="dump_8h.html" target="_top" xlink:title=" ">
<polygon fill="white" stroke="black" points="819,-232.5 819,-253.5 875,-253.5 875,-232.5 819,-232.5"/>
<text text-anchor="middle" x="847" y="-239.9" font-family="DejaVuSans" font-size="12.00">dump.h</text>
</a>
</g>
</g>
<!-- Node18&#45;&gt;Node19 -->
<g id="edge35" class="edge">
<title>Node18&#45;&gt;Node19</title>
<path fill="none" stroke="midnightblue" d="M797.45,-290.25C806.23,-282.05 818.96,-270.17 829.31,-260.51"/>
<polygon fill="midnightblue" stroke="midnightblue" points="831.75,-263.02 836.67,-253.64 826.97,-257.91 831.75,-263.02"/>
</g>
<!-- Node19&#45;&gt;Node4 -->
<g id="edge37" class="edge">
<title>Node19&#45;&gt;Node4</title>
<path fill="none" stroke="midnightblue" d="M845.25,-232.3C842.52,-218.67 836.45,-193.35 826,-174 820.39,-163.61 812.24,-153.35 804.93,-145.17"/>
<polygon fill="midnightblue" stroke="midnightblue" points="807.39,-142.68 798.02,-137.75 802.27,-147.45 807.39,-142.68"/>
</g>
<!-- Node19&#45;&gt;Node13 -->
<g id="edge36" class="edge">
<title>Node19&#45;&gt;Node13</title>
<path fill="none" stroke="midnightblue" d="M837.25,-232.25C829.14,-224.14 817.41,-212.41 807.79,-202.79"/>
<polygon fill="midnightblue" stroke="midnightblue" points="810.19,-200.24 800.64,-195.64 805.24,-205.19 810.19,-200.24"/>
</g>
<!-- Node20&#45;&gt;Node4 -->
<g id="edge39" class="edge">
<title>Node20&#45;&gt;Node4</title>
<path fill="none" stroke="midnightblue" d="M1193.15,-232.14C1186.61,-216.84 1171.79,-187.7 1149,-174 1095.44,-141.79 909.08,-131.89 827.15,-129.06"/>
<polygon fill="midnightblue" stroke="midnightblue" points="827.11,-125.55 817,-128.72 826.88,-132.55 827.11,-125.55"/>
</g>
<!-- Node21&#45;&gt;Node4 -->
<g id="edge41" class="edge">
<title>Node21&#45;&gt;Node4</title>
<path fill="none" stroke="midnightblue" d="M681.27,-290.4C684.68,-276.89 691.83,-251.71 702,-232 719.85,-197.42 750.74,-163.92 770.24,-144.67"/>
<polygon fill="midnightblue" stroke="midnightblue" points="772.84,-147.03 777.58,-137.56 767.97,-142 772.84,-147.03"/>
</g>
<!-- Node21&#45;&gt;Node12 -->
<g id="edge42" class="edge">
<title>Node21&#45;&gt;Node12</title>
<path fill="none" stroke="midnightblue" d="M689.1,-290.25C697.5,-282.14 709.65,-270.41 719.61,-260.79"/>
<polygon fill="midnightblue" stroke="midnightblue" points="722.25,-263.11 727.01,-253.64 717.39,-258.07 722.25,-263.11"/>
</g>
<!-- Node21&#45;&gt;Node17 -->
<g id="edge43" class="edge">
<title>Node21&#45;&gt;Node17</title>
<path fill="none" stroke="midnightblue" d="M671.34,-290.25C665.15,-282.38 656.29,-271.1 648.87,-261.65"/>
<polygon fill="midnightblue" stroke="midnightblue" points="651.51,-259.34 642.58,-253.64 646,-263.67 651.51,-259.34"/>
</g>
<!-- Node22&#45;&gt;Node4 -->
<g id="edge45" class="edge">
<title>Node22&#45;&gt;Node4</title>
<path fill="none" stroke="midnightblue" d="M871.37,-290.19C882.07,-281.94 895.84,-269.1 902,-254 915.88,-219.96 905.5,-201.41 881,-174 866.59,-157.87 845.23,-146.76 826.62,-139.5"/>
<polygon fill="midnightblue" stroke="midnightblue" points="827.79,-136.19 817.19,-136.04 825.38,-142.77 827.79,-136.19"/>
</g>
<!-- Node22&#45;&gt;Node17 -->
<g id="edge46" class="edge">
<title>Node22&#45;&gt;Node17</title>
<path fill="none" stroke="midnightblue" d="M831.42,-292.57C828.25,-291.69 825.05,-290.81 822,-290 766.71,-275.31 701.79,-259.7 664.81,-250.97"/>
<polygon fill="midnightblue" stroke="midnightblue" points="665.25,-247.48 654.71,-248.6 663.65,-254.29 665.25,-247.48"/>
</g>
<!-- Node23&#45;&gt;Node3 -->
<g id="edge49" class="edge">
<title>Node23&#45;&gt;Node3</title>
<path fill="none" stroke="midnightblue" d="M295.58,-348.47C264.77,-333.44 209.14,-301.03 186,-254 178.68,-239.12 179.09,-220.1 180.95,-205.96"/>
<polygon fill="midnightblue" stroke="midnightblue" points="184.45,-206.28 182.64,-195.84 177.54,-205.13 184.45,-206.28"/>
</g>
<!-- Node23&#45;&gt;Node4 -->
<g id="edge48" class="edge">
<title>Node23&#45;&gt;Node4</title>
<path fill="none" stroke="midnightblue" d="M290.38,-351.86C266.75,-345.29 232.43,-332.88 209,-312 158.25,-266.76 96.67,-223.75 143,-174 184.3,-129.65 614.71,-127.39 748.53,-127.77"/>
<polygon fill="midnightblue" stroke="midnightblue" points="748.72,-131.27 758.73,-127.8 748.74,-124.27 748.72,-131.27"/>
</g>
<!-- Node23&#45;&gt;Node16 -->
<g id="edge52" class="edge">
<title>Node23&#45;&gt;Node16</title>
<path fill="none" stroke="midnightblue" d="M316.06,-348.28C314.26,-329.6 310.28,-288.37 307.9,-263.72"/>
<polygon fill="midnightblue" stroke="midnightblue" points="311.38,-263.31 306.94,-253.69 304.41,-263.98 311.38,-263.31"/>
</g>
<!-- Node23&#45;&gt;Node17 -->
<g id="edge50" class="edge">
<title>Node23&#45;&gt;Node17</title>
<path fill="none" stroke="midnightblue" d="M343.71,-349.14C371,-340.03 414.56,-325.33 452,-312 506.58,-292.57 569.86,-268.77 605.89,-255.1"/>
<polygon fill="midnightblue" stroke="midnightblue" points="607.19,-258.35 615.3,-251.52 604.7,-251.8 607.19,-258.35"/>
</g>
<!-- Node23&#45;&gt;Node18 -->
<g id="edge51" class="edge">
<title>Node23&#45;&gt;Node18</title>
<path fill="none" stroke="midnightblue" d="M343.51,-355.12C407.33,-348.15 574.61,-329.62 714,-312 725.85,-310.5 738.78,-308.77 750.41,-307.16"/>
<polygon fill="midnightblue" stroke="midnightblue" points="751.24,-310.58 760.66,-305.74 750.28,-303.65 751.24,-310.58"/>
</g>
<!-- Node24&#45;&gt;Node4 -->
<g id="edge54" class="edge">
<title>Node24&#45;&gt;Node4</title>
<path fill="none" stroke="midnightblue" d="M992.72,-232.04C987.28,-217.13 975,-189.15 955,-174 917.59,-145.65 863.71,-134.77 827.36,-130.6"/>
<polygon fill="midnightblue" stroke="midnightblue" points="827.44,-127.09 817.14,-129.54 826.73,-134.05 827.44,-127.09"/>
</g>
<!-- Node24&#45;&gt;Node11 -->
<g id="edge55" class="edge">
<title>Node24&#45;&gt;Node11</title>
<path fill="none" stroke="midnightblue" d="M969.35,-239.15C888.2,-230.46 642.88,-204.19 530.43,-192.15"/>
<polygon fill="midnightblue" stroke="midnightblue" points="530.61,-188.65 520.3,-191.06 529.87,-195.61 530.61,-188.65"/>
</g>
<!-- Node25&#45;&gt;Node4 -->
<g id="edge57" class="edge">
<title>Node25&#45;&gt;Node4</title>
<path fill="none" stroke="midnightblue" d="M1023,-296.51C1062.89,-289.38 1138.58,-270.45 1116,-232 1089.2,-186.36 1061.61,-192.43 1012,-174 949.51,-150.79 872.62,-138.24 827.11,-132.35"/>
<polygon fill="midnightblue" stroke="midnightblue" points="827.43,-128.86 817.07,-131.09 826.56,-135.8 827.43,-128.86"/>
</g>
<!-- Node25&#45;&gt;Node17 -->
<g id="edge60" class="edge">
<title>Node25&#45;&gt;Node17</title>
<path fill="none" stroke="midnightblue" d="M976.89,-296.45C913.24,-286.69 735.43,-259.41 664.63,-248.55"/>
<polygon fill="midnightblue" stroke="midnightblue" points="665.02,-245.07 654.61,-247.01 663.96,-251.98 665.02,-245.07"/>
</g>
<!-- Node25&#45;&gt;Node20 -->
<g id="edge59" class="edge">
<title>Node25&#45;&gt;Node20</title>
<path fill="none" stroke="midnightblue" d="M1023.37,-293.36C1055.41,-284.25 1113.56,-267.72 1153.68,-256.31"/>
<polygon fill="midnightblue" stroke="midnightblue" points="1154.8,-259.63 1163.46,-253.53 1152.89,-252.9 1154.8,-259.63"/>
</g>
<!-- Node25&#45;&gt;Node24 -->
<g id="edge58" class="edge">
<title>Node25&#45;&gt;Node24</title>
<path fill="none" stroke="midnightblue" d="M999.3,-290.25C998.78,-282.94 998.05,-272.69 997.41,-263.7"/>
<polygon fill="midnightblue" stroke="midnightblue" points="1000.89,-263.37 996.69,-253.64 993.91,-263.87 1000.89,-263.37"/>
</g>
<!-- Node26&#45;&gt;Node3 -->
<g id="edge65" class="edge">
<title>Node26&#45;&gt;Node3</title>
<path fill="none" stroke="midnightblue" d="M338.85,-300.18C306.3,-299.47 237.96,-293.08 201,-254 188.91,-241.22 185.39,-221.1 184.6,-206.05"/>
<polygon fill="midnightblue" stroke="midnightblue" points="188.09,-205.68 184.44,-195.74 181.1,-205.8 188.09,-205.68"/>
</g>
<!-- Node26&#45;&gt;Node4 -->
<g id="edge63" class="edge">
<title>Node26&#45;&gt;Node4</title>
<path fill="none" stroke="midnightblue" d="M338.89,-296.01C318.53,-290.46 286.43,-278.22 272,-254 242.1,-203.82 325.89,-182.46 347,-174 419.59,-144.91 654.72,-133.02 748.68,-129.35"/>
<polygon fill="midnightblue" stroke="midnightblue" points="749.04,-132.84 758.9,-128.96 748.77,-125.85 749.04,-132.84"/>
</g>
<!-- Node26&#45;&gt;Node11 -->
<g id="edge64" class="edge">
<title>Node26&#45;&gt;Node11</title>
<path fill="none" stroke="midnightblue" d="M366.89,-290.28C386.67,-270.85 431.29,-226.99 455.9,-202.8"/>
<polygon fill="midnightblue" stroke="midnightblue" points="458.46,-205.2 463.13,-195.69 453.55,-200.21 458.46,-205.2"/>
</g>
<!-- Node26&#45;&gt;Node13 -->
<g id="edge62" class="edge">
<title>Node26&#45;&gt;Node13</title>
<path fill="none" stroke="midnightblue" d="M375.26,-293.12C378.18,-292.05 381.17,-290.98 384,-290 463.01,-262.58 482.1,-253.19 563,-232 630.04,-214.44 709.67,-199.75 754.88,-191.97"/>
<polygon fill="midnightblue" stroke="midnightblue" points="755.52,-195.41 764.79,-190.28 754.35,-188.51 755.52,-195.41"/>
</g>
<!-- Node26&#45;&gt;Node17 -->
<g id="edge66" class="edge">
<title>Node26&#45;&gt;Node17</title>
<path fill="none" stroke="midnightblue" d="M375.16,-292.79C378.09,-291.77 381.11,-290.79 384,-290 425.44,-278.62 548.21,-258.07 605.25,-248.79"/>
<polygon fill="midnightblue" stroke="midnightblue" points="606.11,-252.19 615.42,-247.14 604.99,-245.28 606.11,-252.19"/>
</g>
<!-- Node27&#45;&gt;Node4 -->
<g id="edge69" class="edge">
<title>Node27&#45;&gt;Node4</title>
<path fill="none" stroke="midnightblue" d="M1063.47,-232.33C1046.8,-217.55 1012.76,-189.43 979,-174 929.31,-151.28 867.02,-138.99 827.36,-132.96"/>
<polygon fill="midnightblue" stroke="midnightblue" points="827.69,-129.47 817.29,-131.49 826.68,-136.4 827.69,-129.47"/>
</g>
<!-- Node27&#45;&gt;Node13 -->
<g id="edge68" class="edge">
<title>Node27&#45;&gt;Node13</title>
<path fill="none" stroke="midnightblue" d="M1040.69,-234.12C1037.42,-233.39 1034.15,-232.67 1031,-232 959.04,-216.74 874.46,-201.05 827.37,-192.51"/>
<polygon fill="midnightblue" stroke="midnightblue" points="827.81,-189.04 817.35,-190.7 826.57,-195.92 827.81,-189.04"/>
</g>
</g>
</svg>
