<?xml version="1.0" encoding="UTF-8" standalone="no"?>
<!DOCTYPE svg PUBLIC "-//W3C//DTD SVG 1.1//EN"
 "http://www.w3.org/Graphics/SVG/1.1/DTD/svg11.dtd">
<!-- Generated by graphviz version 2.44.0 ()
 -->
<!-- Title: expand.c Pages: 1 -->
<svg width="808pt" height="378pt"
 viewBox="0.00 0.00 808.00 378.00" xmlns="http://www.w3.org/2000/svg" xmlns:xlink="http://www.w3.org/1999/xlink">
<g id="graph0" class="graph" transform="scale(1 1) rotate(0) translate(4 374)">
<title>expand.c</title>
<polygon fill="white" stroke="transparent" points="-4,4 -4,-374 804,-374 804,4 -4,4"/>
<!-- Node1 -->
<g id="node1" class="node">
<title>Node1</title>
<g id="a_node1"><a xlink:title=" ">
<polygon fill="#bfbfbf" stroke="black" points="334.5,-348.5 334.5,-369.5 399.5,-369.5 399.5,-348.5 334.5,-348.5"/>
<text text-anchor="middle" x="367" y="-355.9" font-family="DejaVuSans" font-size="12.00">expand.c</text>
</a>
</g>
</g>
<!-- Node2 -->
<g id="node2" class="node">
<title>Node2</title>
<g id="a_node2"><a xlink:title=" ">
<polygon fill="white" stroke="#bfbfbf" points="0,-290.5 0,-311.5 54,-311.5 54,-290.5 0,-290.5"/>
<text text-anchor="middle" x="27" y="-297.9" font-family="DejaVuSans" font-size="12.00">stdlib.h</text>
</a>
</g>
</g>
<!-- Node1&#45;&gt;Node2 -->
<g id="edge1" class="edge">
<title>Node1&#45;&gt;Node2</title>
<path fill="none" stroke="midnightblue" d="M334.1,-353.89C278.86,-346.77 164.08,-331.07 68,-312 66.75,-311.75 65.47,-311.49 64.19,-311.22"/>
<polygon fill="midnightblue" stroke="midnightblue" points="64.8,-307.77 54.27,-309 63.27,-314.6 64.8,-307.77"/>
</g>
<!-- Node3 -->
<g id="node3" class="node">
<title>Node3</title>
<g id="a_node3"><a xlink:href="tex_8h.html" target="_top" xlink:title=" ">
<polygon fill="white" stroke="black" points="186,-116.5 186,-137.5 228,-137.5 228,-116.5 186,-116.5"/>
<text text-anchor="middle" x="207" y="-123.9" font-family="DejaVuSans" font-size="12.00">tex.h</text>
</a>
</g>
</g>
<!-- Node1&#45;&gt;Node3 -->
<g id="edge2" class="edge">
<title>Node1&#45;&gt;Node3</title>
<path fill="none" stroke="midnightblue" d="M334.23,-355.46C276.4,-350.37 159.37,-337.21 128,-312 98.96,-288.66 88.74,-266.42 103,-232 119.08,-193.17 157.48,-161.28 182.84,-143.46"/>
<polygon fill="midnightblue" stroke="midnightblue" points="184.92,-146.28 191.21,-137.75 180.98,-140.49 184.92,-146.28"/>
</g>
<!-- Node8 -->
<g id="node8" class="node">
<title>Node8</title>
<g id="a_node8"><a xlink:href="texmac_8h.html" target="_top" xlink:title=" ">
<polygon fill="white" stroke="black" points="112.5,-232.5 112.5,-253.5 177.5,-253.5 177.5,-232.5 112.5,-232.5"/>
<text text-anchor="middle" x="145" y="-239.9" font-family="DejaVuSans" font-size="12.00">texmac.h</text>
</a>
</g>
</g>
<!-- Node1&#45;&gt;Node8 -->
<g id="edge7" class="edge">
<title>Node1&#45;&gt;Node8</title>
<path fill="none" stroke="midnightblue" d="M334.2,-356.32C277.12,-352.65 163.3,-341.69 139,-312 128.01,-298.57 131.56,-278.25 136.61,-263.32"/>
<polygon fill="midnightblue" stroke="midnightblue" points="140.03,-264.17 140.36,-253.58 133.5,-261.65 140.03,-264.17"/>
</g>
<!-- Node9 -->
<g id="node9" class="node">
<title>Node9</title>
<g id="a_node9"><a xlink:href="tex__inc_8h.html" target="_top" xlink:title=" ">
<polygon fill="white" stroke="black" points="609.5,-232.5 609.5,-253.5 674.5,-253.5 674.5,-232.5 609.5,-232.5"/>
<text text-anchor="middle" x="642" y="-239.9" font-family="DejaVuSans" font-size="12.00">tex_inc.h</text>
</a>
</g>
</g>
<!-- Node1&#45;&gt;Node9 -->
<g id="edge8" class="edge">
<title>Node1&#45;&gt;Node9</title>
<path fill="none" stroke="midnightblue" d="M399.73,-357.73C467.04,-356.42 617.31,-349.27 649,-312 660.37,-298.63 656.27,-278.02 650.77,-262.99"/>
<polygon fill="midnightblue" stroke="midnightblue" points="653.97,-261.55 646.92,-253.64 647.49,-264.21 653.97,-261.55"/>
</g>
<!-- Node12 -->
<g id="node12" class="node">
<title>Node12</title>
<g id="a_node12"><a xlink:href="macros_8h.html" target="_top" xlink:title=" ">
<polygon fill="white" stroke="black" points="216.5,-290.5 216.5,-311.5 281.5,-311.5 281.5,-290.5 216.5,-290.5"/>
<text text-anchor="middle" x="249" y="-297.9" font-family="DejaVuSans" font-size="12.00">macros.h</text>
</a>
</g>
</g>
<!-- Node1&#45;&gt;Node12 -->
<g id="edge11" class="edge">
<title>Node1&#45;&gt;Node12</title>
<path fill="none" stroke="midnightblue" d="M346.72,-348.37C327.86,-339.42 299.55,-325.99 278.25,-315.88"/>
<polygon fill="midnightblue" stroke="midnightblue" points="279.56,-312.63 269.02,-311.5 276.55,-318.95 279.56,-312.63"/>
</g>
<!-- Node13 -->
<g id="node13" class="node">
<title>Node13</title>
<g id="a_node13"><a xlink:href="global_8h.html" target="_top" xlink:title=" ">
<polygon fill="white" stroke="black" points="414,-290.5 414,-311.5 472,-311.5 472,-290.5 414,-290.5"/>
<text text-anchor="middle" x="443" y="-297.9" font-family="DejaVuSans" font-size="12.00">global.h</text>
</a>
</g>
</g>
<!-- Node1&#45;&gt;Node13 -->
<g id="edge12" class="edge">
<title>Node1&#45;&gt;Node13</title>
<path fill="none" stroke="midnightblue" d="M380.24,-348.25C391.68,-339.81 408.43,-327.47 421.75,-317.66"/>
<polygon fill="midnightblue" stroke="midnightblue" points="423.94,-320.39 429.91,-311.64 419.79,-314.76 423.94,-320.39"/>
</g>
<!-- Node17 -->
<g id="node17" class="node">
<title>Node17</title>
<g id="a_node17"><a xlink:href="scan_8h.html" target="_top" xlink:title=" ">
<polygon fill="white" stroke="black" points="327,-232.5 327,-253.5 379,-253.5 379,-232.5 327,-232.5"/>
<text text-anchor="middle" x="353" y="-239.9" font-family="DejaVuSans" font-size="12.00">scan.h</text>
</a>
</g>
</g>
<!-- Node1&#45;&gt;Node17 -->
<g id="edge37" class="edge">
<title>Node1&#45;&gt;Node17</title>
<path fill="none" stroke="midnightblue" d="M365.81,-348.28C363.51,-329.6 358.45,-288.37 355.42,-263.72"/>
<polygon fill="midnightblue" stroke="midnightblue" points="358.88,-263.19 354.19,-253.69 351.94,-264.05 358.88,-263.19"/>
</g>
<!-- Node18 -->
<g id="node18" class="node">
<title>Node18</title>
<g id="a_node18"><a xlink:href="lexer_8h.html" target="_top" xlink:title=" ">
<polygon fill="white" stroke="black" points="306,-174.5 306,-195.5 358,-195.5 358,-174.5 306,-174.5"/>
<text text-anchor="middle" x="332" y="-181.9" font-family="DejaVuSans" font-size="12.00">lexer.h</text>
</a>
</g>
</g>
<!-- Node1&#45;&gt;Node18 -->
<g id="edge25" class="edge">
<title>Node1&#45;&gt;Node18</title>
<path fill="none" stroke="midnightblue" d="M360.74,-348.49C349.5,-330.78 326.33,-291.2 318,-254 314.31,-237.5 318.86,-218.67 323.74,-205.02"/>
<polygon fill="midnightblue" stroke="midnightblue" points="327,-206.29 327.4,-195.71 320.48,-203.73 327,-206.29"/>
</g>
<!-- Node19 -->
<g id="node19" class="node">
<title>Node19</title>
<g id="a_node19"><a xlink:href="texfunc_8h.html" target="_top" xlink:title=" ">
<polygon fill="white" stroke="black" points="574.5,-290.5 574.5,-311.5 639.5,-311.5 639.5,-290.5 574.5,-290.5"/>
<text text-anchor="middle" x="607" y="-297.9" font-family="DejaVuSans" font-size="12.00">texfunc.h</text>
</a>
</g>
</g>
<!-- Node1&#45;&gt;Node19 -->
<g id="edge23" class="edge">
<title>Node1&#45;&gt;Node19</title>
<path fill="none" stroke="midnightblue" d="M399.6,-350.48C436.93,-341.86 500.21,-327.22 564.53,-312.1"/>
<polygon fill="midnightblue" stroke="midnightblue" points="565.51,-315.47 574.44,-309.77 563.91,-308.65 565.51,-315.47"/>
</g>
<!-- Node20 -->
<g id="node20" class="node">
<title>Node20</title>
<g id="a_node20"><a xlink:href="printout_8h.html" target="_top" xlink:title=" ">
<polygon fill="white" stroke="black" points="490,-290.5 490,-311.5 556,-311.5 556,-290.5 490,-290.5"/>
<text text-anchor="middle" x="523" y="-297.9" font-family="DejaVuSans" font-size="12.00">printout.h</text>
</a>
</g>
</g>
<!-- Node1&#45;&gt;Node20 -->
<g id="edge26" class="edge">
<title>Node1&#45;&gt;Node20</title>
<path fill="none" stroke="midnightblue" d="M393.82,-348.37C419.53,-339.14 458.54,-325.14 486.96,-314.94"/>
<polygon fill="midnightblue" stroke="midnightblue" points="488.3,-318.17 496.53,-311.5 485.94,-311.59 488.3,-318.17"/>
</g>
<!-- Node21 -->
<g id="node21" class="node">
<title>Node21</title>
<g id="a_node21"><a xlink:href="print_8h.html" target="_top" xlink:title=" ">
<polygon fill="white" stroke="black" points="148,-290.5 148,-311.5 198,-311.5 198,-290.5 148,-290.5"/>
<text text-anchor="middle" x="173" y="-297.9" font-family="DejaVuSans" font-size="12.00">print.h</text>
</a>
</g>
</g>
<!-- Node1&#45;&gt;Node21 -->
<g id="edge27" class="edge">
<title>Node1&#45;&gt;Node21</title>
<path fill="none" stroke="midnightblue" d="M334.19,-348.63C303.86,-339.96 257.27,-326.59 208.11,-312.31"/>
<polygon fill="midnightblue" stroke="midnightblue" points="208.83,-308.88 198.25,-309.44 206.87,-315.6 208.83,-308.88"/>
</g>
<!-- Node22 -->
<g id="node22" class="node">
<title>Node22</title>
<g id="a_node22"><a xlink:href="fonts_8h.html" target="_top" xlink:title=" ">
<polygon fill="white" stroke="black" points="397,-232.5 397,-253.5 449,-253.5 449,-232.5 397,-232.5"/>
<text text-anchor="middle" x="423" y="-239.9" font-family="DejaVuSans" font-size="12.00">fonts.h</text>
</a>
</g>
</g>
<!-- Node1&#45;&gt;Node22 -->
<g id="edge32" class="edge">
<title>Node1&#45;&gt;Node22</title>
<path fill="none" stroke="midnightblue" d="M371.77,-348.28C381.07,-329.35 401.75,-287.25 413.8,-262.72"/>
<polygon fill="midnightblue" stroke="midnightblue" points="416.97,-264.21 418.24,-253.69 410.69,-261.13 416.97,-264.21"/>
</g>
<!-- Node23 -->
<g id="node23" class="node">
<title>Node23</title>
<g id="a_node23"><a xlink:href="texmath_8h.html" target="_top" xlink:title=" ">
<polygon fill="white" stroke="black" points="671,-174.5 671,-195.5 739,-195.5 739,-174.5 671,-174.5"/>
<text text-anchor="middle" x="705" y="-181.9" font-family="DejaVuSans" font-size="12.00">texmath.h</text>
</a>
</g>
</g>
<!-- Node1&#45;&gt;Node23 -->
<g id="edge35" class="edge">
<title>Node1&#45;&gt;Node23</title>
<path fill="none" stroke="midnightblue" d="M399.5,-357.23C468.49,-354.94 626.51,-346.03 666,-312 697.1,-285.2 703.77,-234.13 704.97,-205.94"/>
<polygon fill="midnightblue" stroke="midnightblue" points="708.48,-205.79 705.21,-195.71 701.48,-205.63 708.48,-205.79"/>
</g>
<!-- Node24 -->
<g id="node24" class="node">
<title>Node24</title>
<g id="a_node24"><a xlink:href="expand_8h.html" target="_top" xlink:title=" ">
<polygon fill="white" stroke="black" points="734,-290.5 734,-311.5 800,-311.5 800,-290.5 734,-290.5"/>
<text text-anchor="middle" x="767" y="-297.9" font-family="DejaVuSans" font-size="12.00">expand.h</text>
</a>
</g>
</g>
<!-- Node1&#45;&gt;Node24 -->
<g id="edge38" class="edge">
<title>Node1&#45;&gt;Node24</title>
<path fill="none" stroke="midnightblue" d="M399.74,-354.62C462.23,-347.97 602.74,-332.08 720,-312 721.27,-311.78 722.56,-311.55 723.86,-311.32"/>
<polygon fill="midnightblue" stroke="midnightblue" points="724.78,-314.71 733.94,-309.38 723.46,-307.83 724.78,-314.71"/>
</g>
<!-- Node4 -->
<g id="node4" class="node">
<title>Node4</title>
<g id="a_node4"><a xlink:href="tex__types_8h.html" target="_top" xlink:title=" ">
<polygon fill="white" stroke="black" points="453.5,-58.5 453.5,-79.5 530.5,-79.5 530.5,-58.5 453.5,-58.5"/>
<text text-anchor="middle" x="492" y="-65.9" font-family="DejaVuSans" font-size="12.00">tex_types.h</text>
</a>
</g>
</g>
<!-- Node3&#45;&gt;Node4 -->
<g id="edge3" class="edge">
<title>Node3&#45;&gt;Node4</title>
<path fill="none" stroke="midnightblue" d="M228.01,-119.64C232.6,-118.35 237.45,-117.07 242,-116 311.34,-99.75 392.61,-85.71 443.21,-77.55"/>
<polygon fill="midnightblue" stroke="midnightblue" points="443.89,-80.98 453.22,-75.95 442.79,-74.07 443.89,-80.98"/>
</g>
<!-- Node7 -->
<g id="node7" class="node">
<title>Node7</title>
<g id="a_node7"><a xlink:href="tex__constant_8h.html" target="_top" xlink:title=" ">
<polygon fill="white" stroke="black" points="160,-58.5 160,-79.5 254,-79.5 254,-58.5 160,-58.5"/>
<text text-anchor="middle" x="207" y="-65.9" font-family="DejaVuSans" font-size="12.00">tex_constant.h</text>
</a>
</g>
</g>
<!-- Node3&#45;&gt;Node7 -->
<g id="edge6" class="edge">
<title>Node3&#45;&gt;Node7</title>
<path fill="none" stroke="midnightblue" d="M207,-116.25C207,-108.94 207,-98.69 207,-89.7"/>
<polygon fill="midnightblue" stroke="midnightblue" points="210.5,-89.64 207,-79.64 203.5,-89.64 210.5,-89.64"/>
</g>
<!-- Node5 -->
<g id="node5" class="node">
<title>Node5</title>
<g id="a_node5"><a xlink:title=" ">
<polygon fill="white" stroke="#bfbfbf" points="459.5,-0.5 459.5,-21.5 524.5,-21.5 524.5,-0.5 459.5,-0.5"/>
<text text-anchor="middle" x="492" y="-7.9" font-family="DejaVuSans" font-size="12.00">stdbool.h</text>
</a>
</g>
</g>
<!-- Node4&#45;&gt;Node5 -->
<g id="edge4" class="edge">
<title>Node4&#45;&gt;Node5</title>
<path fill="none" stroke="midnightblue" d="M492,-58.25C492,-50.94 492,-40.69 492,-31.7"/>
<polygon fill="midnightblue" stroke="midnightblue" points="495.5,-31.64 492,-21.64 488.5,-31.64 495.5,-31.64"/>
</g>
<!-- Node6 -->
<g id="node6" class="node">
<title>Node6</title>
<g id="a_node6"><a xlink:title=" ">
<polygon fill="white" stroke="#bfbfbf" points="578.5,-0.5 578.5,-21.5 633.5,-21.5 633.5,-0.5 578.5,-0.5"/>
<text text-anchor="middle" x="606" y="-7.9" font-family="DejaVuSans" font-size="12.00">stdint.h</text>
</a>
</g>
</g>
<!-- Node4&#45;&gt;Node6 -->
<g id="edge5" class="edge">
<title>Node4&#45;&gt;Node6</title>
<path fill="none" stroke="midnightblue" d="M511.6,-58.37C529.73,-49.46 556.91,-36.11 577.46,-26.02"/>
<polygon fill="midnightblue" stroke="midnightblue" points="579.23,-29.05 586.66,-21.5 576.14,-22.77 579.23,-29.05"/>
</g>
<!-- Node10 -->
<g id="node10" class="node">
<title>Node10</title>
<g id="a_node10"><a xlink:href="global__const_8h.html" target="_top" xlink:title=" ">
<polygon fill="white" stroke="black" points="520.5,-174.5 520.5,-195.5 613.5,-195.5 613.5,-174.5 520.5,-174.5"/>
<text text-anchor="middle" x="567" y="-181.9" font-family="DejaVuSans" font-size="12.00">global_const.h</text>
</a>
</g>
</g>
<!-- Node9&#45;&gt;Node10 -->
<g id="edge9" class="edge">
<title>Node9&#45;&gt;Node10</title>
<path fill="none" stroke="midnightblue" d="M628.94,-232.25C617.64,-223.81 601.12,-211.47 587.97,-201.66"/>
<polygon fill="midnightblue" stroke="midnightblue" points="590.02,-198.82 579.91,-195.64 585.83,-204.43 590.02,-198.82"/>
</g>
<!-- Node11 -->
<g id="node11" class="node">
<title>Node11</title>
<g id="a_node11"><a xlink:title=" ">
<polygon fill="white" stroke="#bfbfbf" points="537.5,-116.5 537.5,-137.5 596.5,-137.5 596.5,-116.5 537.5,-116.5"/>
<text text-anchor="middle" x="567" y="-123.9" font-family="DejaVuSans" font-size="12.00">assert.h</text>
</a>
</g>
</g>
<!-- Node10&#45;&gt;Node11 -->
<g id="edge10" class="edge">
<title>Node10&#45;&gt;Node11</title>
<path fill="none" stroke="midnightblue" d="M567,-174.25C567,-166.94 567,-156.69 567,-147.7"/>
<polygon fill="midnightblue" stroke="midnightblue" points="570.5,-147.64 567,-137.64 563.5,-147.64 570.5,-147.64"/>
</g>
<!-- Node14 -->
<g id="node14" class="node">
<title>Node14</title>
<g id="a_node14"><a xlink:title=" ">
<polygon fill="white" stroke="#bfbfbf" points="467,-232.5 467,-253.5 529,-253.5 529,-232.5 467,-232.5"/>
<text text-anchor="middle" x="498" y="-239.9" font-family="DejaVuSans" font-size="12.00">setjmp.h</text>
</a>
</g>
</g>
<!-- Node13&#45;&gt;Node14 -->
<g id="edge13" class="edge">
<title>Node13&#45;&gt;Node14</title>
<path fill="none" stroke="midnightblue" d="M452.58,-290.25C460.55,-282.14 472.06,-270.41 481.51,-260.79"/>
<polygon fill="midnightblue" stroke="midnightblue" points="484.02,-263.23 488.53,-253.64 479.03,-258.32 484.02,-263.23"/>
</g>
<!-- Node15 -->
<g id="node15" class="node">
<title>Node15</title>
<g id="a_node15"><a xlink:href="str_8h.html" target="_top" xlink:title=" ">
<polygon fill="white" stroke="black" points="547.5,-232.5 547.5,-253.5 586.5,-253.5 586.5,-232.5 547.5,-232.5"/>
<text text-anchor="middle" x="567" y="-239.9" font-family="DejaVuSans" font-size="12.00">str.h</text>
</a>
</g>
</g>
<!-- Node13&#45;&gt;Node15 -->
<g id="edge14" class="edge">
<title>Node13&#45;&gt;Node15</title>
<path fill="none" stroke="midnightblue" d="M464.32,-290.37C484.58,-281.22 515.23,-267.38 537.78,-257.2"/>
<polygon fill="midnightblue" stroke="midnightblue" points="539.52,-260.25 547.19,-252.95 536.63,-253.87 539.52,-260.25"/>
</g>
<!-- Node13&#45;&gt;Node17 -->
<g id="edge19" class="edge">
<title>Node13&#45;&gt;Node17</title>
<path fill="none" stroke="midnightblue" d="M427.32,-290.25C413.51,-281.65 393.18,-269 377.27,-259.1"/>
<polygon fill="midnightblue" stroke="midnightblue" points="378.84,-255.95 368.5,-253.64 375.14,-261.9 378.84,-255.95"/>
</g>
<!-- Node15&#45;&gt;Node4 -->
<g id="edge18" class="edge">
<title>Node15&#45;&gt;Node4</title>
<path fill="none" stroke="midnightblue" d="M549.36,-232.34C536.55,-224.34 519.95,-211.76 511,-196 491.88,-162.32 490.02,-115.77 490.76,-89.71"/>
<polygon fill="midnightblue" stroke="midnightblue" points="494.26,-89.74 491.21,-79.59 487.27,-89.43 494.26,-89.74"/>
</g>
<!-- Node15&#45;&gt;Node6 -->
<g id="edge16" class="edge">
<title>Node15&#45;&gt;Node6</title>
<path fill="none" stroke="midnightblue" d="M585.28,-232.45C598.19,-224.59 614.46,-212.13 622,-196 647.83,-140.71 626.42,-65.94 613.72,-31.21"/>
<polygon fill="midnightblue" stroke="midnightblue" points="616.96,-29.87 610.13,-21.78 610.42,-32.37 616.96,-29.87"/>
</g>
<!-- Node15&#45;&gt;Node10 -->
<g id="edge17" class="edge">
<title>Node15&#45;&gt;Node10</title>
<path fill="none" stroke="midnightblue" d="M567,-232.25C567,-224.94 567,-214.69 567,-205.7"/>
<polygon fill="midnightblue" stroke="midnightblue" points="570.5,-205.64 567,-195.64 563.5,-205.64 570.5,-205.64"/>
</g>
<!-- Node16 -->
<g id="node16" class="node">
<title>Node16</title>
<g id="a_node16"><a xlink:title=" ">
<polygon fill="white" stroke="#bfbfbf" points="390,-116.5 390,-137.5 442,-137.5 442,-116.5 390,-116.5"/>
<text text-anchor="middle" x="416" y="-123.9" font-family="DejaVuSans" font-size="12.00">stdio.h</text>
</a>
</g>
</g>
<!-- Node15&#45;&gt;Node16 -->
<g id="edge15" class="edge">
<title>Node15&#45;&gt;Node16</title>
<path fill="none" stroke="midnightblue" d="M547.44,-234.29C528.6,-226.33 499.81,-212.72 478,-196 459.1,-181.51 441.19,-160.84 429.53,-146.1"/>
<polygon fill="midnightblue" stroke="midnightblue" points="432,-143.57 423.12,-137.79 426.46,-147.85 432,-143.57"/>
</g>
<!-- Node17&#45;&gt;Node18 -->
<g id="edge20" class="edge">
<title>Node17&#45;&gt;Node18</title>
<path fill="none" stroke="midnightblue" d="M349.34,-232.25C346.54,-224.78 342.59,-214.24 339.17,-205.11"/>
<polygon fill="midnightblue" stroke="midnightblue" points="342.4,-203.78 335.62,-195.64 335.85,-206.23 342.4,-203.78"/>
</g>
<!-- Node18&#45;&gt;Node3 -->
<g id="edge22" class="edge">
<title>Node18&#45;&gt;Node3</title>
<path fill="none" stroke="midnightblue" d="M310.51,-174.37C290.36,-165.34 260.01,-151.75 237.38,-141.61"/>
<polygon fill="midnightblue" stroke="midnightblue" points="238.76,-138.4 228.21,-137.5 235.9,-144.78 238.76,-138.4"/>
</g>
<!-- Node18&#45;&gt;Node16 -->
<g id="edge21" class="edge">
<title>Node18&#45;&gt;Node16</title>
<path fill="none" stroke="midnightblue" d="M346.63,-174.25C359.4,-165.73 378.14,-153.24 392.93,-143.38"/>
<polygon fill="midnightblue" stroke="midnightblue" points="395.16,-146.1 401.54,-137.64 391.27,-140.28 395.16,-146.1"/>
</g>
<!-- Node19&#45;&gt;Node15 -->
<g id="edge24" class="edge">
<title>Node19&#45;&gt;Node15</title>
<path fill="none" stroke="midnightblue" d="M600.03,-290.25C594.47,-282.46 586.52,-271.33 579.82,-261.94"/>
<polygon fill="midnightblue" stroke="midnightblue" points="582.55,-259.75 573.89,-253.64 576.85,-263.81 582.55,-259.75"/>
</g>
<!-- Node21&#45;&gt;Node3 -->
<g id="edge29" class="edge">
<title>Node21&#45;&gt;Node3</title>
<path fill="none" stroke="midnightblue" d="M176.11,-290.21C178.96,-280.95 183.17,-266.63 186,-254 194.36,-216.65 200.99,-172.4 204.43,-147.53"/>
<polygon fill="midnightblue" stroke="midnightblue" points="207.9,-147.93 205.77,-137.55 200.97,-146.99 207.9,-147.93"/>
</g>
<!-- Node21&#45;&gt;Node4 -->
<g id="edge28" class="edge">
<title>Node21&#45;&gt;Node4</title>
<path fill="none" stroke="midnightblue" d="M181.46,-290.22C200.76,-268.18 250.01,-213.49 297,-174 331.73,-144.81 341.16,-137.69 381,-116 404.67,-103.11 432.73,-91.51 454.71,-83.19"/>
<polygon fill="midnightblue" stroke="midnightblue" points="456.19,-86.37 464.34,-79.6 453.75,-79.81 456.19,-86.37"/>
</g>
<!-- Node21&#45;&gt;Node8 -->
<g id="edge30" class="edge">
<title>Node21&#45;&gt;Node8</title>
<path fill="none" stroke="midnightblue" d="M168.12,-290.25C164.35,-282.7 159.01,-272.02 154.41,-262.82"/>
<polygon fill="midnightblue" stroke="midnightblue" points="157.42,-261.02 149.82,-253.64 151.16,-264.15 157.42,-261.02"/>
</g>
<!-- Node21&#45;&gt;Node15 -->
<g id="edge31" class="edge">
<title>Node21&#45;&gt;Node15</title>
<path fill="none" stroke="midnightblue" d="M198.13,-292.07C201.1,-291.29 204.1,-290.58 207,-290 348.85,-261.66 391.68,-285.21 537.02,-253.74"/>
<polygon fill="midnightblue" stroke="midnightblue" points="538.2,-257.06 547.2,-251.48 536.68,-250.23 538.2,-257.06"/>
</g>
<!-- Node22&#45;&gt;Node10 -->
<g id="edge34" class="edge">
<title>Node22&#45;&gt;Node10</title>
<path fill="none" stroke="midnightblue" d="M447.75,-232.37C471.28,-223.22 506.87,-209.38 533.04,-199.21"/>
<polygon fill="midnightblue" stroke="midnightblue" points="534.52,-202.39 542.57,-195.5 531.98,-195.86 534.52,-202.39"/>
</g>
<!-- Node22&#45;&gt;Node16 -->
<g id="edge33" class="edge">
<title>Node22&#45;&gt;Node16</title>
<path fill="none" stroke="midnightblue" d="M422.4,-232.28C421.26,-213.6 418.72,-172.37 417.21,-147.72"/>
<polygon fill="midnightblue" stroke="midnightblue" points="420.7,-147.46 416.6,-137.69 413.71,-147.89 420.7,-147.46"/>
</g>
<!-- Node23&#45;&gt;Node4 -->
<g id="edge36" class="edge">
<title>Node23&#45;&gt;Node4</title>
<path fill="none" stroke="midnightblue" d="M692.75,-174.27C674.58,-160.16 639.07,-133.75 606,-116 581.59,-102.9 552.63,-91.26 530.01,-82.96"/>
<polygon fill="midnightblue" stroke="midnightblue" points="531.01,-79.6 520.41,-79.51 528.64,-86.19 531.01,-79.6"/>
</g>
</g>
</svg>
