<?xml version="1.0" encoding="UTF-8" standalone="no"?>
<!DOCTYPE svg PUBLIC "-//W3C//DTD SVG 1.1//EN"
 "http://www.w3.org/Graphics/SVG/1.1/DTD/svg11.dtd">
<!-- Generated by graphviz version 2.47.3 (20210711.2253)
 -->
<!-- Title: extension.h Pages: 1 -->
<svg width="776pt" height="436pt"
 viewBox="0.00 0.00 775.50 436.00" xmlns="http://www.w3.org/2000/svg" xmlns:xlink="http://www.w3.org/1999/xlink">
<g id="graph0" class="graph" transform="scale(1 1) rotate(0) translate(4 432)">
<title>extension.h</title>
<polygon fill="white" stroke="transparent" points="-4,4 -4,-432 771.5,-432 771.5,4 -4,4"/>
<!-- Node1 -->
<g id="node1" class="node">
<title>Node1</title>
<g id="a_node1"><a xlink:title=" ">
<polygon fill="#bfbfbf" stroke="black" points="522.5,-406.5 522.5,-427.5 600.5,-427.5 600.5,-406.5 522.5,-406.5"/>
<text text-anchor="middle" x="561.5" y="-413.9" font-family="DejaVuSans" font-size="12.00">extension.h</text>
</a>
</g>
</g>
<!-- Node2 -->
<g id="node2" class="node">
<title>Node2</title>
<g id="a_node2"><a xlink:title=" ">
<polygon fill="white" stroke="#bfbfbf" points="355.5,-174.5 355.5,-195.5 407.5,-195.5 407.5,-174.5 355.5,-174.5"/>
<text text-anchor="middle" x="381.5" y="-181.9" font-family="DejaVuSans" font-size="12.00">stdio.h</text>
</a>
</g>
</g>
<!-- Node1&#45;&gt;Node2 -->
<g id="edge1" class="edge">
<title>Node1&#45;&gt;Node2</title>
<path fill="none" stroke="midnightblue" d="M522.42,-411.68C493.72,-406.49 455.82,-395.07 432.5,-370 389.12,-323.37 382.13,-243.1 381.34,-205.94"/>
<polygon fill="midnightblue" stroke="midnightblue" points="384.84,-205.85 381.26,-195.88 377.84,-205.91 384.84,-205.85"/>
</g>
<!-- Node3 -->
<g id="node3" class="node">
<title>Node3</title>
<g id="a_node3"><a xlink:href="global_8h.html" target="_top" xlink:title=" ">
<polygon fill="white" stroke="black" points="298.5,-116.5 298.5,-137.5 356.5,-137.5 356.5,-116.5 298.5,-116.5"/>
<text text-anchor="middle" x="327.5" y="-123.9" font-family="DejaVuSans" font-size="12.00">global.h</text>
</a>
</g>
</g>
<!-- Node1&#45;&gt;Node3 -->
<g id="edge2" class="edge">
<title>Node1&#45;&gt;Node3</title>
<path fill="none" stroke="midnightblue" d="M600.73,-411.94C660.5,-403.34 767.5,-377.41 767.5,-302 767.5,-302 767.5,-302 767.5,-242 767.5,-195.67 730.82,-192.84 688.5,-174 631.6,-148.68 448.24,-135.08 366.94,-130.16"/>
<polygon fill="midnightblue" stroke="midnightblue" points="366.82,-126.65 356.63,-129.55 366.41,-133.64 366.82,-126.65"/>
</g>
<!-- Node11 -->
<g id="node11" class="node">
<title>Node11</title>
<g id="a_node11"><a xlink:href="lexer_8h.html" target="_top" xlink:title=" ">
<polygon fill="white" stroke="black" points="535.5,-232.5 535.5,-253.5 587.5,-253.5 587.5,-232.5 535.5,-232.5"/>
<text text-anchor="middle" x="561.5" y="-239.9" font-family="DejaVuSans" font-size="12.00">lexer.h</text>
</a>
</g>
</g>
<!-- Node1&#45;&gt;Node11 -->
<g id="edge10" class="edge">
<title>Node1&#45;&gt;Node11</title>
<path fill="none" stroke="midnightblue" d="M561.5,-406.26C561.5,-378.82 561.5,-300.51 561.5,-263.64"/>
<polygon fill="midnightblue" stroke="midnightblue" points="565,-263.63 561.5,-253.63 558,-263.63 565,-263.63"/>
</g>
<!-- Node13 -->
<g id="node13" class="node">
<title>Node13</title>
<g id="a_node13"><a xlink:href="eqtb_8h.html" target="_top" xlink:title=" ">
<polygon fill="white" stroke="black" points="681.5,-290.5 681.5,-311.5 731.5,-311.5 731.5,-290.5 681.5,-290.5"/>
<text text-anchor="middle" x="706.5" y="-297.9" font-family="DejaVuSans" font-size="12.00">eqtb.h</text>
</a>
</g>
</g>
<!-- Node1&#45;&gt;Node13 -->
<g id="edge15" class="edge">
<title>Node1&#45;&gt;Node13</title>
<path fill="none" stroke="midnightblue" d="M573.86,-406.28C598.8,-386.68 655.33,-342.23 685.92,-318.18"/>
<polygon fill="midnightblue" stroke="midnightblue" points="688.47,-320.63 694.17,-311.69 684.14,-315.12 688.47,-320.63"/>
</g>
<!-- Node14 -->
<g id="node14" class="node">
<title>Node14</title>
<g id="a_node14"><a xlink:href="hyphen_8h.html" target="_top" xlink:title=" ">
<polygon fill="white" stroke="black" points="441.5,-348.5 441.5,-369.5 507.5,-369.5 507.5,-348.5 441.5,-348.5"/>
<text text-anchor="middle" x="474.5" y="-355.9" font-family="DejaVuSans" font-size="12.00">hyphen.h</text>
</a>
</g>
</g>
<!-- Node1&#45;&gt;Node14 -->
<g id="edge18" class="edge">
<title>Node1&#45;&gt;Node14</title>
<path fill="none" stroke="midnightblue" d="M546.35,-406.25C533,-397.65 513.34,-385 497.96,-375.1"/>
<polygon fill="midnightblue" stroke="midnightblue" points="499.78,-372.11 489.48,-369.64 495.99,-378 499.78,-372.11"/>
</g>
<!-- Node4 -->
<g id="node4" class="node">
<title>Node4</title>
<g id="a_node4"><a xlink:href="global__macros_8h.html" target="_top" xlink:title=" ">
<polygon fill="white" stroke="black" points="275.5,-58.5 275.5,-79.5 379.5,-79.5 379.5,-58.5 275.5,-58.5"/>
<text text-anchor="middle" x="327.5" y="-65.9" font-family="DejaVuSans" font-size="12.00">global_macros.h</text>
</a>
</g>
</g>
<!-- Node3&#45;&gt;Node4 -->
<g id="edge3" class="edge">
<title>Node3&#45;&gt;Node4</title>
<path fill="none" stroke="midnightblue" d="M327.5,-116.25C327.5,-108.94 327.5,-98.69 327.5,-89.7"/>
<polygon fill="midnightblue" stroke="midnightblue" points="331,-89.64 327.5,-79.64 324,-89.64 331,-89.64"/>
</g>
<!-- Node6 -->
<g id="node6" class="node">
<title>Node6</title>
<g id="a_node6"><a xlink:href="global__const_8h.html" target="_top" xlink:title=" ">
<polygon fill="white" stroke="black" points="483,-58.5 483,-79.5 576,-79.5 576,-58.5 483,-58.5"/>
<text text-anchor="middle" x="529.5" y="-65.9" font-family="DejaVuSans" font-size="12.00">global_const.h</text>
</a>
</g>
</g>
<!-- Node3&#45;&gt;Node6 -->
<g id="edge5" class="edge">
<title>Node3&#45;&gt;Node6</title>
<path fill="none" stroke="midnightblue" d="M356.87,-117.86C390.52,-108.53 446.03,-93.14 484.99,-82.34"/>
<polygon fill="midnightblue" stroke="midnightblue" points="486.31,-85.6 495.01,-79.56 484.44,-78.86 486.31,-85.6"/>
</g>
<!-- Node7 -->
<g id="node7" class="node">
<title>Node7</title>
<g id="a_node7"><a xlink:href="tex__types_8h.html" target="_top" xlink:title=" ">
<polygon fill="white" stroke="black" points="143,-58.5 143,-79.5 220,-79.5 220,-58.5 143,-58.5"/>
<text text-anchor="middle" x="181.5" y="-65.9" font-family="DejaVuSans" font-size="12.00">tex_types.h</text>
</a>
</g>
</g>
<!-- Node3&#45;&gt;Node7 -->
<g id="edge6" class="edge">
<title>Node3&#45;&gt;Node7</title>
<path fill="none" stroke="midnightblue" d="M302.4,-116.37C278.54,-107.22 242.47,-93.38 215.93,-83.21"/>
<polygon fill="midnightblue" stroke="midnightblue" points="216.86,-79.81 206.27,-79.5 214.35,-86.35 216.86,-79.81"/>
</g>
<!-- Node5 -->
<g id="node5" class="node">
<title>Node5</title>
<g id="a_node5"><a xlink:title=" ">
<polygon fill="white" stroke="#bfbfbf" points="298,-0.5 298,-21.5 357,-21.5 357,-0.5 298,-0.5"/>
<text text-anchor="middle" x="327.5" y="-7.9" font-family="DejaVuSans" font-size="12.00">assert.h</text>
</a>
</g>
</g>
<!-- Node4&#45;&gt;Node5 -->
<g id="edge4" class="edge">
<title>Node4&#45;&gt;Node5</title>
<path fill="none" stroke="midnightblue" d="M327.5,-58.25C327.5,-50.94 327.5,-40.69 327.5,-31.7"/>
<polygon fill="midnightblue" stroke="midnightblue" points="331,-31.64 327.5,-21.64 324,-31.64 331,-31.64"/>
</g>
<!-- Node8 -->
<g id="node8" class="node">
<title>Node8</title>
<g id="a_node8"><a xlink:title=" ">
<polygon fill="white" stroke="#bfbfbf" points="193,-0.5 193,-21.5 258,-21.5 258,-0.5 193,-0.5"/>
<text text-anchor="middle" x="225.5" y="-7.9" font-family="DejaVuSans" font-size="12.00">stdbool.h</text>
</a>
</g>
</g>
<!-- Node7&#45;&gt;Node8 -->
<g id="edge7" class="edge">
<title>Node7&#45;&gt;Node8</title>
<path fill="none" stroke="midnightblue" d="M189.16,-58.25C195.35,-50.38 204.21,-39.1 211.63,-29.65"/>
<polygon fill="midnightblue" stroke="midnightblue" points="214.5,-31.67 217.92,-21.64 208.99,-27.34 214.5,-31.67"/>
</g>
<!-- Node9 -->
<g id="node9" class="node">
<title>Node9</title>
<g id="a_node9"><a xlink:title=" ">
<polygon fill="white" stroke="#bfbfbf" points="0,-0.5 0,-21.5 55,-21.5 55,-0.5 0,-0.5"/>
<text text-anchor="middle" x="27.5" y="-7.9" font-family="DejaVuSans" font-size="12.00">stdint.h</text>
</a>
</g>
</g>
<!-- Node7&#45;&gt;Node9 -->
<g id="edge8" class="edge">
<title>Node7&#45;&gt;Node9</title>
<path fill="none" stroke="midnightblue" d="M155.03,-58.37C129.64,-49.14 91.14,-35.14 63.08,-24.94"/>
<polygon fill="midnightblue" stroke="midnightblue" points="64.22,-21.63 53.63,-21.5 61.83,-28.21 64.22,-21.63"/>
</g>
<!-- Node10 -->
<g id="node10" class="node">
<title>Node10</title>
<g id="a_node10"><a xlink:title=" ">
<polygon fill="white" stroke="#bfbfbf" points="116,-0.5 116,-21.5 175,-21.5 175,-0.5 116,-0.5"/>
<text text-anchor="middle" x="145.5" y="-7.9" font-family="DejaVuSans" font-size="12.00">stddef.h</text>
</a>
</g>
</g>
<!-- Node7&#45;&gt;Node10 -->
<g id="edge9" class="edge">
<title>Node7&#45;&gt;Node10</title>
<path fill="none" stroke="midnightblue" d="M175.23,-58.25C170.27,-50.54 163.22,-39.56 157.22,-30.23"/>
<polygon fill="midnightblue" stroke="midnightblue" points="160.05,-28.16 151.7,-21.64 154.16,-31.95 160.05,-28.16"/>
</g>
<!-- Node11&#45;&gt;Node2 -->
<g id="edge11" class="edge">
<title>Node11&#45;&gt;Node2</title>
<path fill="none" stroke="midnightblue" d="M535.33,-233.86C504.27,-224.19 452.31,-208.03 417.48,-197.19"/>
<polygon fill="midnightblue" stroke="midnightblue" points="418.29,-193.78 407.71,-194.15 416.21,-200.47 418.29,-193.78"/>
</g>
<!-- Node11&#45;&gt;Node3 -->
<g id="edge12" class="edge">
<title>Node11&#45;&gt;Node3</title>
<path fill="none" stroke="midnightblue" d="M551.5,-232.32C535.98,-217.78 504.64,-190.28 473.5,-174 439.22,-156.09 396.73,-143.67 366.44,-136.3"/>
<polygon fill="midnightblue" stroke="midnightblue" points="367.2,-132.88 356.66,-133.99 365.59,-139.69 367.2,-132.88"/>
</g>
<!-- Node12 -->
<g id="node12" class="node">
<title>Node12</title>
<g id="a_node12"><a xlink:href="tex__constant_8h.html" target="_top" xlink:title=" ">
<polygon fill="white" stroke="black" points="561.5,-174.5 561.5,-195.5 655.5,-195.5 655.5,-174.5 561.5,-174.5"/>
<text text-anchor="middle" x="608.5" y="-181.9" font-family="DejaVuSans" font-size="12.00">tex_constant.h</text>
</a>
</g>
</g>
<!-- Node11&#45;&gt;Node12 -->
<g id="edge13" class="edge">
<title>Node11&#45;&gt;Node12</title>
<path fill="none" stroke="midnightblue" d="M569.69,-232.25C576.36,-224.3 585.95,-212.87 593.93,-203.37"/>
<polygon fill="midnightblue" stroke="midnightblue" points="596.66,-205.55 600.41,-195.64 591.3,-201.05 596.66,-205.55"/>
</g>
<!-- Node12&#45;&gt;Node6 -->
<g id="edge14" class="edge">
<title>Node12&#45;&gt;Node6</title>
<path fill="none" stroke="midnightblue" d="M601.76,-174.28C588.53,-155.18 558.95,-112.5 542.03,-88.08"/>
<polygon fill="midnightblue" stroke="midnightblue" points="544.79,-85.92 536.22,-79.69 539.04,-89.91 544.79,-85.92"/>
</g>
<!-- Node13&#45;&gt;Node3 -->
<g id="edge16" class="edge">
<title>Node13&#45;&gt;Node3</title>
<path fill="none" stroke="midnightblue" d="M706.64,-290.4C706.43,-266.19 702.14,-202.6 664.5,-174 618.47,-139.03 445.73,-130.64 367.02,-128.63"/>
<polygon fill="midnightblue" stroke="midnightblue" points="366.64,-125.12 356.56,-128.39 366.47,-132.12 366.64,-125.12"/>
</g>
<!-- Node13&#45;&gt;Node12 -->
<g id="edge17" class="edge">
<title>Node13&#45;&gt;Node12</title>
<path fill="none" stroke="midnightblue" d="M702.47,-290.47C696.31,-276.6 683.55,-250.5 667.5,-232 657.33,-220.27 643.79,-209.47 632.25,-201.28"/>
<polygon fill="midnightblue" stroke="midnightblue" points="634.13,-198.33 623.9,-195.56 630.17,-204.1 634.13,-198.33"/>
</g>
<!-- Node14&#45;&gt;Node3 -->
<g id="edge19" class="edge">
<title>Node14&#45;&gt;Node3</title>
<path fill="none" stroke="midnightblue" d="M472.5,-348.43C465.3,-314.68 439.9,-201.81 416.5,-174 403.37,-158.39 383.59,-147.43 366.01,-140.13"/>
<polygon fill="midnightblue" stroke="midnightblue" points="367.11,-136.81 356.52,-136.45 364.58,-143.33 367.11,-136.81"/>
</g>
<!-- Node14&#45;&gt;Node12 -->
<g id="edge44" class="edge">
<title>Node14&#45;&gt;Node12</title>
<path fill="none" stroke="midnightblue" d="M499.16,-348.43C532.86,-333.84 591.9,-302.51 616.5,-254 624.13,-238.96 620.85,-219.71 616.4,-205.53"/>
<polygon fill="midnightblue" stroke="midnightblue" points="619.6,-204.08 612.94,-195.84 613.01,-206.43 619.6,-204.08"/>
</g>
<!-- Node14&#45;&gt;Node13 -->
<g id="edge42" class="edge">
<title>Node14&#45;&gt;Node13</title>
<path fill="none" stroke="midnightblue" d="M507.67,-350.28C546.15,-341.27 611.49,-325.85 667.5,-312 668.76,-311.69 670.04,-311.37 671.34,-311.05"/>
<polygon fill="midnightblue" stroke="midnightblue" points="672.5,-314.36 681.34,-308.52 670.79,-307.57 672.5,-314.36"/>
</g>
<!-- Node15 -->
<g id="node15" class="node">
<title>Node15</title>
<g id="a_node15"><a xlink:href="mem_8h.html" target="_top" xlink:title=" ">
<polygon fill="white" stroke="black" points="464,-232.5 464,-253.5 517,-253.5 517,-232.5 464,-232.5"/>
<text text-anchor="middle" x="490.5" y="-239.9" font-family="DejaVuSans" font-size="12.00">mem.h</text>
</a>
</g>
</g>
<!-- Node14&#45;&gt;Node15 -->
<g id="edge20" class="edge">
<title>Node14&#45;&gt;Node15</title>
<path fill="none" stroke="midnightblue" d="M475.86,-348.28C478.49,-329.6 484.27,-288.37 487.73,-263.72"/>
<polygon fill="midnightblue" stroke="midnightblue" points="491.22,-264.08 489.14,-253.69 484.28,-263.11 491.22,-264.08"/>
</g>
<!-- Node16 -->
<g id="node16" class="node">
<title>Node16</title>
<g id="a_node16"><a xlink:href="box_8h.html" target="_top" xlink:title=" ">
<polygon fill="white" stroke="black" points="176.5,-290.5 176.5,-311.5 222.5,-311.5 222.5,-290.5 176.5,-290.5"/>
<text text-anchor="middle" x="199.5" y="-297.9" font-family="DejaVuSans" font-size="12.00">box.h</text>
</a>
</g>
</g>
<!-- Node14&#45;&gt;Node16 -->
<g id="edge23" class="edge">
<title>Node14&#45;&gt;Node16</title>
<path fill="none" stroke="midnightblue" d="M441.33,-351.25C388.43,-340.47 285.55,-319.52 232.66,-308.75"/>
<polygon fill="midnightblue" stroke="midnightblue" points="233.27,-305.31 222.77,-306.74 231.87,-312.16 233.27,-305.31"/>
</g>
<!-- Node19 -->
<g id="node19" class="node">
<title>Node19</title>
<g id="a_node19"><a xlink:href="charset_8h.html" target="_top" xlink:title=" ">
<polygon fill="white" stroke="black" points="158,-174.5 158,-195.5 223,-195.5 223,-174.5 158,-174.5"/>
<text text-anchor="middle" x="190.5" y="-181.9" font-family="DejaVuSans" font-size="12.00">charset.h</text>
</a>
</g>
</g>
<!-- Node14&#45;&gt;Node19 -->
<g id="edge43" class="edge">
<title>Node14&#45;&gt;Node19</title>
<path fill="none" stroke="midnightblue" d="M441.37,-358.22C369.43,-357.92 202.58,-352.73 167.5,-312 141.26,-281.54 163.56,-231.26 178.92,-204.35"/>
<polygon fill="midnightblue" stroke="midnightblue" points="182.04,-205.95 184.16,-195.57 176.03,-202.36 182.04,-205.95"/>
</g>
<!-- Node20 -->
<g id="node20" class="node">
<title>Node20</title>
<g id="a_node20"><a xlink:href="fonts_8h.html" target="_top" xlink:title=" ">
<polygon fill="white" stroke="black" points="297.5,-290.5 297.5,-311.5 349.5,-311.5 349.5,-290.5 297.5,-290.5"/>
<text text-anchor="middle" x="323.5" y="-297.9" font-family="DejaVuSans" font-size="12.00">fonts.h</text>
</a>
</g>
</g>
<!-- Node14&#45;&gt;Node20 -->
<g id="edge34" class="edge">
<title>Node14&#45;&gt;Node20</title>
<path fill="none" stroke="midnightblue" d="M448.54,-348.37C423.76,-339.18 386.23,-325.26 358.75,-315.07"/>
<polygon fill="midnightblue" stroke="midnightblue" points="359.71,-311.7 349.12,-311.5 357.28,-318.26 359.71,-311.7"/>
</g>
<!-- Node15&#45;&gt;Node3 -->
<g id="edge21" class="edge">
<title>Node15&#45;&gt;Node3</title>
<path fill="none" stroke="midnightblue" d="M487.04,-232.26C481.37,-217.65 468.78,-190.06 449.5,-174 425.62,-154.12 392.27,-142.33 366.47,-135.67"/>
<polygon fill="midnightblue" stroke="midnightblue" points="367.18,-132.24 356.64,-133.29 365.53,-139.05 367.18,-132.24"/>
</g>
<!-- Node15&#45;&gt;Node12 -->
<g id="edge22" class="edge">
<title>Node15&#45;&gt;Node12</title>
<path fill="none" stroke="midnightblue" d="M510.78,-232.37C529.64,-223.42 557.95,-209.99 579.25,-199.88"/>
<polygon fill="midnightblue" stroke="midnightblue" points="580.95,-202.95 588.48,-195.5 577.94,-196.63 580.95,-202.95"/>
</g>
<!-- Node16&#45;&gt;Node3 -->
<g id="edge24" class="edge">
<title>Node16&#45;&gt;Node3</title>
<path fill="none" stroke="midnightblue" d="M189.42,-290.24C167.45,-267.78 119.43,-211.48 148.5,-174 165.49,-152.09 241.12,-138.8 288.47,-132.47"/>
<polygon fill="midnightblue" stroke="midnightblue" points="288.93,-135.94 298.4,-131.19 288.03,-129 288.93,-135.94"/>
</g>
<!-- Node16&#45;&gt;Node15 -->
<g id="edge25" class="edge">
<title>Node16&#45;&gt;Node15</title>
<path fill="none" stroke="midnightblue" d="M222.82,-295.51C273.31,-285.8 393.06,-262.75 453.81,-251.06"/>
<polygon fill="midnightblue" stroke="midnightblue" points="454.57,-254.48 463.73,-249.15 453.25,-247.6 454.57,-254.48"/>
</g>
<!-- Node17 -->
<g id="node17" class="node">
<title>Node17</title>
<g id="a_node17"><a xlink:href="texmath_8h.html" target="_top" xlink:title=" ">
<polygon fill="white" stroke="black" points="33.5,-174.5 33.5,-195.5 101.5,-195.5 101.5,-174.5 33.5,-174.5"/>
<text text-anchor="middle" x="67.5" y="-181.9" font-family="DejaVuSans" font-size="12.00">texmath.h</text>
</a>
</g>
</g>
<!-- Node16&#45;&gt;Node17 -->
<g id="edge26" class="edge">
<title>Node16&#45;&gt;Node17</title>
<path fill="none" stroke="midnightblue" d="M182.55,-290.5C167.84,-281.87 146.31,-268.35 129.5,-254 111.59,-238.71 93.75,-218.49 81.83,-204.07"/>
<polygon fill="midnightblue" stroke="midnightblue" points="84.26,-201.51 75.24,-195.95 78.82,-205.92 84.26,-201.51"/>
</g>
<!-- Node18 -->
<g id="node18" class="node">
<title>Node18</title>
<g id="a_node18"><a xlink:href="str_8h.html" target="_top" xlink:title=" ">
<polygon fill="white" stroke="black" points="180,-232.5 180,-253.5 219,-253.5 219,-232.5 180,-232.5"/>
<text text-anchor="middle" x="199.5" y="-239.9" font-family="DejaVuSans" font-size="12.00">str.h</text>
</a>
</g>
</g>
<!-- Node16&#45;&gt;Node18 -->
<g id="edge28" class="edge">
<title>Node16&#45;&gt;Node18</title>
<path fill="none" stroke="midnightblue" d="M199.5,-290.25C199.5,-282.94 199.5,-272.69 199.5,-263.7"/>
<polygon fill="midnightblue" stroke="midnightblue" points="203,-263.64 199.5,-253.64 196,-263.64 203,-263.64"/>
</g>
<!-- Node17&#45;&gt;Node3 -->
<g id="edge27" class="edge">
<title>Node17&#45;&gt;Node3</title>
<path fill="none" stroke="midnightblue" d="M101.76,-176.62C150.01,-166.23 237.74,-147.33 288.45,-136.41"/>
<polygon fill="midnightblue" stroke="midnightblue" points="289.34,-139.8 298.38,-134.27 287.87,-132.96 289.34,-139.8"/>
</g>
<!-- Node18&#45;&gt;Node2 -->
<g id="edge29" class="edge">
<title>Node18&#45;&gt;Node2</title>
<path fill="none" stroke="midnightblue" d="M219.32,-235.9C249.6,-226.58 307.82,-208.67 345.65,-197.03"/>
<polygon fill="midnightblue" stroke="midnightblue" points="346.73,-200.36 355.26,-194.07 344.67,-193.67 346.73,-200.36"/>
</g>
<!-- Node18&#45;&gt;Node3 -->
<g id="edge31" class="edge">
<title>Node18&#45;&gt;Node3</title>
<path fill="none" stroke="midnightblue" d="M210.31,-232.3C225.03,-219.09 252.22,-194.71 275.5,-174 286.48,-164.24 298.79,-153.34 308.67,-144.61"/>
<polygon fill="midnightblue" stroke="midnightblue" points="311.15,-147.09 316.33,-137.85 306.51,-141.85 311.15,-147.09"/>
</g>
<!-- Node18&#45;&gt;Node9 -->
<g id="edge30" class="edge">
<title>Node18&#45;&gt;Node9</title>
<path fill="none" stroke="midnightblue" d="M179.86,-239.82C138.27,-234.75 43.54,-220.69 24.5,-196 -13.14,-147.18 7.66,-67.42 20.19,-31.1"/>
<polygon fill="midnightblue" stroke="midnightblue" points="23.49,-32.28 23.6,-21.68 16.91,-29.9 23.49,-32.28"/>
</g>
<!-- Node18&#45;&gt;Node19 -->
<g id="edge32" class="edge">
<title>Node18&#45;&gt;Node19</title>
<path fill="none" stroke="midnightblue" d="M197.93,-232.25C196.76,-224.94 195.11,-214.69 193.67,-205.7"/>
<polygon fill="midnightblue" stroke="midnightblue" points="197.09,-204.96 192.05,-195.64 190.18,-206.07 197.09,-204.96"/>
</g>
<!-- Node19&#45;&gt;Node3 -->
<g id="edge33" class="edge">
<title>Node19&#45;&gt;Node3</title>
<path fill="none" stroke="midnightblue" d="M214.05,-174.37C236.34,-165.26 269.99,-151.51 294.86,-141.34"/>
<polygon fill="midnightblue" stroke="midnightblue" points="296.32,-144.52 304.26,-137.5 293.68,-138.05 296.32,-144.52"/>
</g>
<!-- Node20&#45;&gt;Node2 -->
<g id="edge35" class="edge">
<title>Node20&#45;&gt;Node2</title>
<path fill="none" stroke="midnightblue" d="M328.45,-290.28C338.08,-271.35 359.5,-229.25 371.97,-204.72"/>
<polygon fill="midnightblue" stroke="midnightblue" points="375.15,-206.19 376.57,-195.69 368.91,-203.02 375.15,-206.19"/>
</g>
<!-- Node20&#45;&gt;Node3 -->
<g id="edge36" class="edge">
<title>Node20&#45;&gt;Node3</title>
<path fill="none" stroke="midnightblue" d="M304.29,-290.45C290.97,-282.66 274.29,-270.29 266.5,-254 262.28,-245.18 263.94,-241.44 266.5,-232 275.54,-198.72 298.21,-165.2 313.22,-145.53"/>
<polygon fill="midnightblue" stroke="midnightblue" points="316.09,-147.55 319.51,-137.52 310.58,-143.23 316.09,-147.55"/>
</g>
<!-- Node20&#45;&gt;Node12 -->
<g id="edge37" class="edge">
<title>Node20&#45;&gt;Node12</title>
<path fill="none" stroke="midnightblue" d="M349.76,-299.3C411.24,-297.11 561.96,-288.28 596.5,-254 608.96,-241.63 611.09,-221.16 610.63,-205.91"/>
<polygon fill="midnightblue" stroke="midnightblue" points="614.13,-205.65 609.95,-195.91 607.14,-206.12 614.13,-205.65"/>
</g>
<!-- Node20&#45;&gt;Node18 -->
<g id="edge38" class="edge">
<title>Node20&#45;&gt;Node18</title>
<path fill="none" stroke="midnightblue" d="M302.18,-290.37C281.92,-281.22 251.27,-267.38 228.72,-257.2"/>
<polygon fill="midnightblue" stroke="midnightblue" points="229.87,-253.87 219.31,-252.95 226.98,-260.25 229.87,-253.87"/>
</g>
<!-- Node21 -->
<g id="node21" class="node">
<title>Node21</title>
<g id="a_node21"><a xlink:href="dump_8h.html" target="_top" xlink:title=" ">
<polygon fill="white" stroke="black" points="275.5,-232.5 275.5,-253.5 331.5,-253.5 331.5,-232.5 275.5,-232.5"/>
<text text-anchor="middle" x="303.5" y="-239.9" font-family="DejaVuSans" font-size="12.00">dump.h</text>
</a>
</g>
</g>
<!-- Node20&#45;&gt;Node21 -->
<g id="edge39" class="edge">
<title>Node20&#45;&gt;Node21</title>
<path fill="none" stroke="midnightblue" d="M320.02,-290.25C317.35,-282.78 313.59,-272.24 310.33,-263.11"/>
<polygon fill="midnightblue" stroke="midnightblue" points="313.6,-261.88 306.94,-253.64 307.01,-264.24 313.6,-261.88"/>
</g>
<!-- Node21&#45;&gt;Node2 -->
<g id="edge40" class="edge">
<title>Node21&#45;&gt;Node2</title>
<path fill="none" stroke="midnightblue" d="M317.09,-232.25C328.83,-223.81 346.02,-211.47 359.69,-201.66"/>
<polygon fill="midnightblue" stroke="midnightblue" points="361.99,-204.32 368.07,-195.64 357.9,-198.63 361.99,-204.32"/>
</g>
<!-- Node21&#45;&gt;Node3 -->
<g id="edge41" class="edge">
<title>Node21&#45;&gt;Node3</title>
<path fill="none" stroke="midnightblue" d="M305.55,-232.28C309.48,-213.6 318.16,-172.37 323.35,-147.72"/>
<polygon fill="midnightblue" stroke="midnightblue" points="326.82,-148.2 325.46,-137.69 319.97,-146.76 326.82,-148.2"/>
</g>
</g>
</svg>
