<?xml version="1.0" encoding="UTF-8" standalone="no"?>
<!DOCTYPE svg PUBLIC "-//W3C//DTD SVG 1.1//EN"
 "http://www.w3.org/Graphics/SVG/1.1/DTD/svg11.dtd">
<!-- Generated by graphviz version 2.44.0 ()
 -->
<!-- Title: extension.h Pages: 1 -->
<svg width="1053pt" height="204pt"
 viewBox="0.00 0.00 1052.50 204.00" xmlns="http://www.w3.org/2000/svg" xmlns:xlink="http://www.w3.org/1999/xlink">
<g id="graph0" class="graph" transform="scale(1 1) rotate(0) translate(4 200)">
<title>extension.h</title>
<polygon fill="white" stroke="transparent" points="-4,4 -4,-200 1048.5,-200 1048.5,4 -4,4"/>
<!-- Node1 -->
<g id="node1" class="node">
<title>Node1</title>
<g id="a_node1"><a xlink:title=" ">
<polygon fill="#bfbfbf" stroke="black" points="431.5,-174.5 431.5,-195.5 509.5,-195.5 509.5,-174.5 431.5,-174.5"/>
<text text-anchor="middle" x="470.5" y="-181.9" font-family="DejaVuSans" font-size="12.00">extension.h</text>
</a>
</g>
</g>
<!-- Node2 -->
<g id="node2" class="node">
<title>Node2</title>
<g id="a_node2"><a xlink:href="box__copy_8c.html" target="_top" xlink:title=" ">
<polygon fill="white" stroke="black" points="0,-116.5 0,-137.5 77,-137.5 77,-116.5 0,-116.5"/>
<text text-anchor="middle" x="38.5" y="-123.9" font-family="DejaVuSans" font-size="12.00">box_copy.c</text>
</a>
</g>
</g>
<!-- Node1&#45;&gt;Node2 -->
<g id="edge1" class="edge">
<title>Node1&#45;&gt;Node2</title>
<path fill="none" stroke="midnightblue" d="M420.92,-179.53C347.41,-172.57 205.29,-157.86 85.5,-138 82.78,-137.55 79.99,-137.05 77.18,-136.52"/>
<polygon fill="midnightblue" stroke="midnightblue" points="420.98,-183.05 431.26,-180.5 421.63,-176.08 420.98,-183.05"/>
</g>
<!-- Node3 -->
<g id="node3" class="node">
<title>Node3</title>
<g id="a_node3"><a xlink:href="box__destroy_8c.html" target="_top" xlink:title=" ">
<polygon fill="white" stroke="black" points="95,-116.5 95,-137.5 186,-137.5 186,-116.5 95,-116.5"/>
<text text-anchor="middle" x="140.5" y="-123.9" font-family="DejaVuSans" font-size="12.00">box_destroy.c</text>
</a>
</g>
</g>
<!-- Node1&#45;&gt;Node3 -->
<g id="edge2" class="edge">
<title>Node1&#45;&gt;Node3</title>
<path fill="none" stroke="midnightblue" d="M421.28,-176.07C366.04,-167.11 273.77,-151.94 194.5,-138 191.78,-137.52 188.98,-137.02 186.15,-136.51"/>
<polygon fill="midnightblue" stroke="midnightblue" points="420.72,-179.53 431.16,-177.67 421.84,-172.62 420.72,-179.53"/>
</g>
<!-- Node4 -->
<g id="node4" class="node">
<title>Node4</title>
<g id="a_node4"><a xlink:href="box__display_8c.html" target="_top" xlink:title=" ">
<polygon fill="white" stroke="black" points="204,-116.5 204,-137.5 293,-137.5 293,-116.5 204,-116.5"/>
<text text-anchor="middle" x="248.5" y="-123.9" font-family="DejaVuSans" font-size="12.00">box_display.c</text>
</a>
</g>
</g>
<!-- Node1&#45;&gt;Node4 -->
<g id="edge3" class="edge">
<title>Node1&#45;&gt;Node4</title>
<path fill="none" stroke="midnightblue" d="M422.86,-171.98C382.01,-161.68 323.95,-147.03 286.25,-137.52"/>
<polygon fill="midnightblue" stroke="midnightblue" points="422.04,-175.38 432.59,-174.44 423.75,-168.6 422.04,-175.38"/>
</g>
<!-- Node5 -->
<g id="node5" class="node">
<title>Node5</title>
<g id="a_node5"><a xlink:href="dump_8c.html" target="_top" xlink:title=" ">
<polygon fill="white" stroke="black" points="310.5,-116.5 310.5,-137.5 366.5,-137.5 366.5,-116.5 310.5,-116.5"/>
<text text-anchor="middle" x="338.5" y="-123.9" font-family="DejaVuSans" font-size="12.00">dump.c</text>
</a>
</g>
</g>
<!-- Node1&#45;&gt;Node5 -->
<g id="edge4" class="edge">
<title>Node1&#45;&gt;Node5</title>
<path fill="none" stroke="midnightblue" d="M438.4,-170.38C414.4,-160.2 382.17,-146.53 360.9,-137.5"/>
<polygon fill="midnightblue" stroke="midnightblue" points="437.24,-173.69 447.81,-174.37 439.97,-167.25 437.24,-173.69"/>
</g>
<!-- Node6 -->
<g id="node6" class="node">
<title>Node6</title>
<g id="a_node6"><a xlink:href="dviout_8c.html" target="_top" xlink:title=" ">
<polygon fill="white" stroke="black" points="384.5,-116.5 384.5,-137.5 442.5,-137.5 442.5,-116.5 384.5,-116.5"/>
<text text-anchor="middle" x="413.5" y="-123.9" font-family="DejaVuSans" font-size="12.00">dviout.c</text>
</a>
</g>
</g>
<!-- Node1&#45;&gt;Node6 -->
<g id="edge5" class="edge">
<title>Node1&#45;&gt;Node6</title>
<path fill="none" stroke="midnightblue" d="M453.27,-167.08C443.47,-157.44 431.54,-145.72 423.31,-137.64"/>
<polygon fill="midnightblue" stroke="midnightblue" points="450.99,-169.73 460.57,-174.25 455.89,-164.74 450.99,-169.73"/>
</g>
<!-- Node7 -->
<g id="node7" class="node">
<title>Node7</title>
<g id="a_node7"><a xlink:href="extension_8c.html" target="_top" xlink:title=" ">
<polygon fill="white" stroke="black" points="323,-58.5 323,-79.5 400,-79.5 400,-58.5 323,-58.5"/>
<text text-anchor="middle" x="361.5" y="-65.9" font-family="DejaVuSans" font-size="12.00">extension.c</text>
</a>
</g>
</g>
<!-- Node1&#45;&gt;Node7 -->
<g id="edge6" class="edge">
<title>Node1&#45;&gt;Node7</title>
<path fill="none" stroke="midnightblue" d="M469.17,-164.02C467.25,-149.32 462.63,-129.61 451.5,-116 437.06,-98.34 414.08,-86.75 394.95,-79.63"/>
<polygon fill="midnightblue" stroke="midnightblue" points="465.69,-164.49 470.16,-174.1 472.66,-163.8 465.69,-164.49"/>
</g>
<!-- Node8 -->
<g id="node8" class="node">
<title>Node8</title>
<g id="a_node8"><a xlink:href="linebreak_8c.html" target="_top" xlink:title=" ">
<polygon fill="white" stroke="black" points="498.5,-116.5 498.5,-137.5 572.5,-137.5 572.5,-116.5 498.5,-116.5"/>
<text text-anchor="middle" x="535.5" y="-123.9" font-family="DejaVuSans" font-size="12.00">linebreak.c</text>
</a>
</g>
</g>
<!-- Node1&#45;&gt;Node8 -->
<g id="edge7" class="edge">
<title>Node1&#45;&gt;Node8</title>
<path fill="none" stroke="midnightblue" d="M489.48,-167.65C500.79,-157.91 514.75,-145.88 524.31,-137.64"/>
<polygon fill="midnightblue" stroke="midnightblue" points="487.11,-165.07 481.82,-174.25 491.68,-170.37 487.11,-165.07"/>
</g>
<!-- Node9 -->
<g id="node9" class="node">
<title>Node9</title>
<g id="a_node9"><a xlink:href="main__ctrl_8h.html" target="_top" xlink:title=" ">
<polygon fill="white" stroke="black" points="590.5,-116.5 590.5,-137.5 664.5,-137.5 664.5,-116.5 590.5,-116.5"/>
<text text-anchor="middle" x="627.5" y="-123.9" font-family="DejaVuSans" font-size="12.00">main_ctrl.h</text>
</a>
</g>
</g>
<!-- Node1&#45;&gt;Node9 -->
<g id="edge8" class="edge">
<title>Node1&#45;&gt;Node9</title>
<path fill="none" stroke="midnightblue" d="M507.16,-170.92C535.86,-160.69 575.1,-146.69 600.86,-137.5"/>
<polygon fill="midnightblue" stroke="midnightblue" points="505.73,-167.72 497.49,-174.37 508.08,-174.31 505.73,-167.72"/>
</g>
<!-- Node16 -->
<g id="node16" class="node">
<title>Node16</title>
<g id="a_node16"><a xlink:href="tex__header_8h.html" target="_top" xlink:title=" ">
<polygon fill="white" stroke="black" points="958.5,-58.5 958.5,-79.5 1044.5,-79.5 1044.5,-58.5 958.5,-58.5"/>
<text text-anchor="middle" x="1001.5" y="-65.9" font-family="DejaVuSans" font-size="12.00">tex_header.h</text>
</a>
</g>
</g>
<!-- Node1&#45;&gt;Node16 -->
<g id="edge23" class="edge">
<title>Node1&#45;&gt;Node16</title>
<path fill="none" stroke="midnightblue" d="M519.59,-176.99C561.45,-170.05 622.73,-157.59 673.5,-138 692.07,-130.84 693.69,-122.49 712.5,-116 813.22,-81.26 844.5,-98.06 949.5,-80 952.4,-79.5 955.39,-78.97 958.39,-78.42"/>
<polygon fill="midnightblue" stroke="midnightblue" points="518.96,-173.54 509.65,-178.59 520.08,-180.45 518.96,-173.54"/>
</g>
<!-- Node18 -->
<g id="node18" class="node">
<title>Node18</title>
<g id="a_node18"><a xlink:href="print_8c.html" target="_top" xlink:title=" ">
<polygon fill="white" stroke="black" points="721,-116.5 721,-137.5 770,-137.5 770,-116.5 721,-116.5"/>
<text text-anchor="middle" x="745.5" y="-123.9" font-family="DejaVuSans" font-size="12.00">print.c</text>
</a>
</g>
</g>
<!-- Node1&#45;&gt;Node18 -->
<g id="edge21" class="edge">
<title>Node1&#45;&gt;Node18</title>
<path fill="none" stroke="midnightblue" d="M519.99,-175.22C567.87,-166.53 642.39,-152.46 706.5,-138 711.14,-136.95 716.06,-135.76 720.8,-134.57"/>
<polygon fill="midnightblue" stroke="midnightblue" points="519.12,-171.83 509.9,-177.05 520.36,-178.71 519.12,-171.83"/>
</g>
<!-- Node19 -->
<g id="node19" class="node">
<title>Node19</title>
<g id="a_node19"><a xlink:href="printout_8c.html" target="_top" xlink:title=" ">
<polygon fill="white" stroke="black" points="788,-116.5 788,-137.5 853,-137.5 853,-116.5 788,-116.5"/>
<text text-anchor="middle" x="820.5" y="-123.9" font-family="DejaVuSans" font-size="12.00">printout.c</text>
</a>
</g>
</g>
<!-- Node1&#45;&gt;Node19 -->
<g id="edge22" class="edge">
<title>Node1&#45;&gt;Node19</title>
<path fill="none" stroke="midnightblue" d="M519.86,-178.07C581.06,-170.39 688.43,-155.85 779.5,-138 782.23,-137.46 785.06,-136.87 787.89,-136.24"/>
<polygon fill="midnightblue" stroke="midnightblue" points="519.21,-174.62 509.72,-179.33 520.07,-181.57 519.21,-174.62"/>
</g>
<!-- Node9&#45;&gt;Node7 -->
<g id="edge14" class="edge">
<title>Node9&#45;&gt;Node7</title>
<path fill="none" stroke="midnightblue" d="M580.48,-115.8C543.85,-108.06 452.85,-89.06 400.23,-78.08"/>
<polygon fill="midnightblue" stroke="midnightblue" points="579.84,-119.24 590.35,-117.9 581.29,-112.4 579.84,-119.24"/>
</g>
<!-- Node10 -->
<g id="node10" class="node">
<title>Node10</title>
<g id="a_node10"><a xlink:href="align_8c.html" target="_top" xlink:title=" ">
<polygon fill="white" stroke="black" points="418,-58.5 418,-79.5 469,-79.5 469,-58.5 418,-58.5"/>
<text text-anchor="middle" x="443.5" y="-65.9" font-family="DejaVuSans" font-size="12.00">align.c</text>
</a>
</g>
</g>
<!-- Node9&#45;&gt;Node10 -->
<g id="edge9" class="edge">
<title>Node9&#45;&gt;Node10</title>
<path fill="none" stroke="midnightblue" d="M586.17,-113.42C550.26,-102.49 499.39,-87.01 469.09,-77.79"/>
<polygon fill="midnightblue" stroke="midnightblue" points="585.28,-116.81 595.87,-116.37 587.32,-110.11 585.28,-116.81"/>
</g>
<!-- Node11 -->
<g id="node11" class="node">
<title>Node11</title>
<g id="a_node11"><a xlink:href="build__box_8c.html" target="_top" xlink:title=" ">
<polygon fill="white" stroke="black" points="487,-58.5 487,-79.5 564,-79.5 564,-58.5 487,-58.5"/>
<text text-anchor="middle" x="525.5" y="-65.9" font-family="DejaVuSans" font-size="12.00">build_box.c</text>
</a>
</g>
</g>
<!-- Node9&#45;&gt;Node11 -->
<g id="edge10" class="edge">
<title>Node9&#45;&gt;Node11</title>
<path fill="none" stroke="midnightblue" d="M600.77,-111.32C582.55,-101.32 558.94,-88.36 543.06,-79.64"/>
<polygon fill="midnightblue" stroke="midnightblue" points="599.28,-114.5 609.73,-116.25 602.65,-108.36 599.28,-114.5"/>
</g>
<!-- Node12 -->
<g id="node12" class="node">
<title>Node12</title>
<g id="a_node12"><a xlink:href="main__ctrl_8c.html" target="_top" xlink:title=" ">
<polygon fill="white" stroke="black" points="590.5,-0.5 590.5,-21.5 664.5,-21.5 664.5,-0.5 590.5,-0.5"/>
<text text-anchor="middle" x="627.5" y="-7.9" font-family="DejaVuSans" font-size="12.00">main_ctrl.c</text>
</a>
</g>
</g>
<!-- Node9&#45;&gt;Node12 -->
<g id="edge17" class="edge">
<title>Node9&#45;&gt;Node12</title>
<path fill="none" stroke="midnightblue" d="M619.31,-107.06C616.2,-98.9 613.05,-89.14 611.5,-80 609.87,-70.36 609.87,-67.64 611.5,-58 613.7,-44.99 619.16,-30.76 623.09,-21.62"/>
<polygon fill="midnightblue" stroke="midnightblue" points="616.09,-108.43 623.09,-116.38 622.57,-105.8 616.09,-108.43"/>
</g>
<!-- Node13 -->
<g id="node13" class="node">
<title>Node13</title>
<g id="a_node13"><a xlink:href="build__math_8c.html" target="_top" xlink:title=" ">
<polygon fill="white" stroke="black" points="620.5,-58.5 620.5,-79.5 704.5,-79.5 704.5,-58.5 620.5,-58.5"/>
<text text-anchor="middle" x="662.5" y="-65.9" font-family="DejaVuSans" font-size="12.00">build_math.c</text>
</a>
</g>
</g>
<!-- Node9&#45;&gt;Node13 -->
<g id="edge12" class="edge">
<title>Node9&#45;&gt;Node13</title>
<path fill="none" stroke="midnightblue" d="M638.98,-107.63C644.82,-98.29 651.68,-87.32 656.47,-79.64"/>
<polygon fill="midnightblue" stroke="midnightblue" points="635.93,-105.91 633.6,-116.25 641.86,-109.62 635.93,-105.91"/>
</g>
<!-- Node14 -->
<g id="node14" class="node">
<title>Node14</title>
<g id="a_node14"><a xlink:href="indep__process_8c.html" target="_top" xlink:title=" ">
<polygon fill="white" stroke="black" points="722.5,-58.5 722.5,-79.5 826.5,-79.5 826.5,-58.5 722.5,-58.5"/>
<text text-anchor="middle" x="774.5" y="-65.9" font-family="DejaVuSans" font-size="12.00">indep_process.c</text>
</a>
</g>
</g>
<!-- Node9&#45;&gt;Node14 -->
<g id="edge15" class="edge">
<title>Node9&#45;&gt;Node14</title>
<path fill="none" stroke="midnightblue" d="M662.18,-112.79C689.02,-102.56 725.55,-88.65 749.56,-79.5"/>
<polygon fill="midnightblue" stroke="midnightblue" points="660.87,-109.54 652.77,-116.37 663.36,-116.08 660.87,-109.54"/>
</g>
<!-- Node15 -->
<g id="node15" class="node">
<title>Node15</title>
<g id="a_node15"><a xlink:href="page__builder_8c.html" target="_top" xlink:title=" ">
<polygon fill="white" stroke="black" points="845,-58.5 845,-79.5 940,-79.5 940,-58.5 845,-58.5"/>
<text text-anchor="middle" x="892.5" y="-65.9" font-family="DejaVuSans" font-size="12.00">page_builder.c</text>
</a>
</g>
</g>
<!-- Node9&#45;&gt;Node15 -->
<g id="edge18" class="edge">
<title>Node9&#45;&gt;Node15</title>
<path fill="none" stroke="midnightblue" d="M674.61,-116.04C723.4,-105.74 799.09,-89.74 847.2,-79.57"/>
<polygon fill="midnightblue" stroke="midnightblue" points="673.69,-112.66 664.63,-118.15 675.13,-119.51 673.69,-112.66"/>
</g>
<!-- Node9&#45;&gt;Node16 -->
<g id="edge19" class="edge">
<title>Node9&#45;&gt;Node16</title>
<path fill="none" stroke="midnightblue" d="M674.7,-116.64C675.98,-116.42 677.25,-116.21 678.5,-116 798.4,-96.3 829.57,-99.48 949.5,-80 952.4,-79.53 955.39,-79.02 958.4,-78.49"/>
<polygon fill="midnightblue" stroke="midnightblue" points="674,-113.21 664.78,-118.42 675.24,-120.1 674,-113.21"/>
</g>
<!-- Node11&#45;&gt;Node12 -->
<g id="edge11" class="edge">
<title>Node11&#45;&gt;Node12</title>
<path fill="none" stroke="midnightblue" d="M552.23,-53.32C570.45,-43.32 594.06,-30.36 609.94,-21.64"/>
<polygon fill="midnightblue" stroke="midnightblue" points="550.35,-50.36 543.27,-58.25 553.72,-56.5 550.35,-50.36"/>
</g>
<!-- Node13&#45;&gt;Node12 -->
<g id="edge13" class="edge">
<title>Node13&#45;&gt;Node12</title>
<path fill="none" stroke="midnightblue" d="M651.02,-49.63C645.18,-40.29 638.32,-29.32 633.53,-21.64"/>
<polygon fill="midnightblue" stroke="midnightblue" points="648.14,-51.62 656.4,-58.25 654.07,-47.91 648.14,-51.62"/>
</g>
<!-- Node14&#45;&gt;Node12 -->
<g id="edge16" class="edge">
<title>Node14&#45;&gt;Node12</title>
<path fill="none" stroke="midnightblue" d="M739.82,-54.79C712.98,-44.56 676.45,-30.65 652.44,-21.5"/>
<polygon fill="midnightblue" stroke="midnightblue" points="738.64,-58.08 749.23,-58.37 741.13,-51.54 738.64,-58.08"/>
</g>
<!-- Node17 -->
<g id="node17" class="node">
<title>Node17</title>
<g id="a_node17"><a xlink:href="tex_8c.html" target="_top" xlink:title=" ">
<polygon fill="white" stroke="black" points="981,-0.5 981,-21.5 1022,-21.5 1022,-0.5 981,-0.5"/>
<text text-anchor="middle" x="1001.5" y="-7.9" font-family="DejaVuSans" font-size="12.00">tex.c</text>
</a>
</g>
</g>
<!-- Node16&#45;&gt;Node17 -->
<g id="edge20" class="edge">
<title>Node16&#45;&gt;Node17</title>
<path fill="none" stroke="midnightblue" d="M1001.5,-48.16C1001.5,-39.16 1001.5,-28.92 1001.5,-21.64"/>
<polygon fill="midnightblue" stroke="midnightblue" points="998,-48.25 1001.5,-58.25 1005,-48.25 998,-48.25"/>
</g>
</g>
</svg>
