<?xml version="1.0" encoding="UTF-8" standalone="no"?>
<!DOCTYPE svg PUBLIC "-//W3C//DTD SVG 1.1//EN"
 "http://www.w3.org/Graphics/SVG/1.1/DTD/svg11.dtd">
<!-- Generated by graphviz version 2.44.0 ()
 -->
<!-- Title: extension.h Pages: 1 -->
<svg width="766pt" height="436pt"
 viewBox="0.00 0.00 765.50 436.00" xmlns="http://www.w3.org/2000/svg" xmlns:xlink="http://www.w3.org/1999/xlink">
<g id="graph0" class="graph" transform="scale(1 1) rotate(0) translate(4 432)">
<title>extension.h</title>
<polygon fill="white" stroke="transparent" points="-4,4 -4,-432 761.5,-432 761.5,4 -4,4"/>
<!-- Node1 -->
<g id="node1" class="node">
<title>Node1</title>
<g id="a_node1"><a xlink:title=" ">
<polygon fill="#bfbfbf" stroke="black" points="512.5,-406.5 512.5,-427.5 590.5,-427.5 590.5,-406.5 512.5,-406.5"/>
<text text-anchor="middle" x="551.5" y="-413.9" font-family="DejaVuSans" font-size="12.00">extension.h</text>
</a>
</g>
</g>
<!-- Node2 -->
<g id="node2" class="node">
<title>Node2</title>
<g id="a_node2"><a xlink:title=" ">
<polygon fill="white" stroke="#bfbfbf" points="325.5,-174.5 325.5,-195.5 377.5,-195.5 377.5,-174.5 325.5,-174.5"/>
<text text-anchor="middle" x="351.5" y="-181.9" font-family="DejaVuSans" font-size="12.00">stdio.h</text>
</a>
</g>
</g>
<!-- Node1&#45;&gt;Node2 -->
<g id="edge1" class="edge">
<title>Node1&#45;&gt;Node2</title>
<path fill="none" stroke="midnightblue" d="M512.11,-412.89C458.48,-407.75 366.84,-395.41 346.5,-370 307.97,-321.86 330.36,-241.76 343.73,-205.22"/>
<polygon fill="midnightblue" stroke="midnightblue" points="347.05,-206.34 347.36,-195.75 340.51,-203.84 347.05,-206.34"/>
</g>
<!-- Node3 -->
<g id="node3" class="node">
<title>Node3</title>
<g id="a_node3"><a xlink:href="global_8h.html" target="_top" xlink:title=" ">
<polygon fill="white" stroke="black" points="257.5,-116.5 257.5,-137.5 315.5,-137.5 315.5,-116.5 257.5,-116.5"/>
<text text-anchor="middle" x="286.5" y="-123.9" font-family="DejaVuSans" font-size="12.00">global.h</text>
</a>
</g>
</g>
<!-- Node1&#45;&gt;Node3 -->
<g id="edge2" class="edge">
<title>Node1&#45;&gt;Node3</title>
<path fill="none" stroke="midnightblue" d="M590.73,-411.94C650.5,-403.34 757.5,-377.41 757.5,-302 757.5,-302 757.5,-302 757.5,-242 757.5,-194.31 718.38,-192.67 674.5,-174 612.26,-147.52 411.52,-134.38 325.85,-129.87"/>
<polygon fill="midnightblue" stroke="midnightblue" points="325.91,-126.37 315.74,-129.35 325.55,-133.36 325.91,-126.37"/>
</g>
<!-- Node10 -->
<g id="node10" class="node">
<title>Node10</title>
<g id="a_node10"><a xlink:href="lexer_8h.html" target="_top" xlink:title=" ">
<polygon fill="white" stroke="black" points="525.5,-232.5 525.5,-253.5 577.5,-253.5 577.5,-232.5 525.5,-232.5"/>
<text text-anchor="middle" x="551.5" y="-239.9" font-family="DejaVuSans" font-size="12.00">lexer.h</text>
</a>
</g>
</g>
<!-- Node1&#45;&gt;Node10 -->
<g id="edge9" class="edge">
<title>Node1&#45;&gt;Node10</title>
<path fill="none" stroke="midnightblue" d="M551.5,-406.26C551.5,-378.82 551.5,-300.51 551.5,-263.64"/>
<polygon fill="midnightblue" stroke="midnightblue" points="555,-263.63 551.5,-253.63 548,-263.63 555,-263.63"/>
</g>
<!-- Node12 -->
<g id="node12" class="node">
<title>Node12</title>
<g id="a_node12"><a xlink:href="eqtb_8h.html" target="_top" xlink:title=" ">
<polygon fill="white" stroke="black" points="671.5,-290.5 671.5,-311.5 721.5,-311.5 721.5,-290.5 671.5,-290.5"/>
<text text-anchor="middle" x="696.5" y="-297.9" font-family="DejaVuSans" font-size="12.00">eqtb.h</text>
</a>
</g>
</g>
<!-- Node1&#45;&gt;Node12 -->
<g id="edge14" class="edge">
<title>Node1&#45;&gt;Node12</title>
<path fill="none" stroke="midnightblue" d="M563.86,-406.28C588.8,-386.68 645.33,-342.23 675.92,-318.18"/>
<polygon fill="midnightblue" stroke="midnightblue" points="678.47,-320.63 684.17,-311.69 674.14,-315.12 678.47,-320.63"/>
</g>
<!-- Node13 -->
<g id="node13" class="node">
<title>Node13</title>
<g id="a_node13"><a xlink:href="hyphen_8h.html" target="_top" xlink:title=" ">
<polygon fill="white" stroke="black" points="355.5,-348.5 355.5,-369.5 421.5,-369.5 421.5,-348.5 355.5,-348.5"/>
<text text-anchor="middle" x="388.5" y="-355.9" font-family="DejaVuSans" font-size="12.00">hyphen.h</text>
</a>
</g>
</g>
<!-- Node1&#45;&gt;Node13 -->
<g id="edge17" class="edge">
<title>Node1&#45;&gt;Node13</title>
<path fill="none" stroke="midnightblue" d="M523.48,-406.37C496.49,-397.1 455.5,-383.02 425.77,-372.8"/>
<polygon fill="midnightblue" stroke="midnightblue" points="426.75,-369.44 416.16,-369.5 424.48,-376.06 426.75,-369.44"/>
</g>
<!-- Node4 -->
<g id="node4" class="node">
<title>Node4</title>
<g id="a_node4"><a xlink:href="global__macros_8h.html" target="_top" xlink:title=" ">
<polygon fill="white" stroke="black" points="234.5,-58.5 234.5,-79.5 338.5,-79.5 338.5,-58.5 234.5,-58.5"/>
<text text-anchor="middle" x="286.5" y="-65.9" font-family="DejaVuSans" font-size="12.00">global_macros.h</text>
</a>
</g>
</g>
<!-- Node3&#45;&gt;Node4 -->
<g id="edge3" class="edge">
<title>Node3&#45;&gt;Node4</title>
<path fill="none" stroke="midnightblue" d="M286.5,-116.25C286.5,-108.94 286.5,-98.69 286.5,-89.7"/>
<polygon fill="midnightblue" stroke="midnightblue" points="290,-89.64 286.5,-79.64 283,-89.64 290,-89.64"/>
</g>
<!-- Node6 -->
<g id="node6" class="node">
<title>Node6</title>
<g id="a_node6"><a xlink:href="global__const_8h.html" target="_top" xlink:title=" ">
<polygon fill="white" stroke="black" points="452,-58.5 452,-79.5 545,-79.5 545,-58.5 452,-58.5"/>
<text text-anchor="middle" x="498.5" y="-65.9" font-family="DejaVuSans" font-size="12.00">global_const.h</text>
</a>
</g>
</g>
<!-- Node3&#45;&gt;Node6 -->
<g id="edge5" class="edge">
<title>Node3&#45;&gt;Node6</title>
<path fill="none" stroke="midnightblue" d="M315.53,-118.33C350.84,-109 410.86,-93.15 452.48,-82.16"/>
<polygon fill="midnightblue" stroke="midnightblue" points="453.61,-85.48 462.38,-79.54 451.82,-78.71 453.61,-85.48"/>
</g>
<!-- Node7 -->
<g id="node7" class="node">
<title>Node7</title>
<g id="a_node7"><a xlink:href="tex__types_8h.html" target="_top" xlink:title=" ">
<polygon fill="white" stroke="black" points="91,-58.5 91,-79.5 168,-79.5 168,-58.5 91,-58.5"/>
<text text-anchor="middle" x="129.5" y="-65.9" font-family="DejaVuSans" font-size="12.00">tex_types.h</text>
</a>
</g>
</g>
<!-- Node3&#45;&gt;Node7 -->
<g id="edge6" class="edge">
<title>Node3&#45;&gt;Node7</title>
<path fill="none" stroke="midnightblue" d="M259.51,-116.37C233.63,-107.14 194.38,-93.14 165.77,-82.94"/>
<polygon fill="midnightblue" stroke="midnightblue" points="166.73,-79.56 156.14,-79.5 164.38,-86.16 166.73,-79.56"/>
</g>
<!-- Node5 -->
<g id="node5" class="node">
<title>Node5</title>
<g id="a_node5"><a xlink:title=" ">
<polygon fill="white" stroke="#bfbfbf" points="257,-0.5 257,-21.5 316,-21.5 316,-0.5 257,-0.5"/>
<text text-anchor="middle" x="286.5" y="-7.9" font-family="DejaVuSans" font-size="12.00">assert.h</text>
</a>
</g>
</g>
<!-- Node4&#45;&gt;Node5 -->
<g id="edge4" class="edge">
<title>Node4&#45;&gt;Node5</title>
<path fill="none" stroke="midnightblue" d="M286.5,-58.25C286.5,-50.94 286.5,-40.69 286.5,-31.7"/>
<polygon fill="midnightblue" stroke="midnightblue" points="290,-31.64 286.5,-21.64 283,-31.64 290,-31.64"/>
</g>
<!-- Node8 -->
<g id="node8" class="node">
<title>Node8</title>
<g id="a_node8"><a xlink:title=" ">
<polygon fill="white" stroke="#bfbfbf" points="97,-0.5 97,-21.5 162,-21.5 162,-0.5 97,-0.5"/>
<text text-anchor="middle" x="129.5" y="-7.9" font-family="DejaVuSans" font-size="12.00">stdbool.h</text>
</a>
</g>
</g>
<!-- Node7&#45;&gt;Node8 -->
<g id="edge7" class="edge">
<title>Node7&#45;&gt;Node8</title>
<path fill="none" stroke="midnightblue" d="M129.5,-58.25C129.5,-50.94 129.5,-40.69 129.5,-31.7"/>
<polygon fill="midnightblue" stroke="midnightblue" points="133,-31.64 129.5,-21.64 126,-31.64 133,-31.64"/>
</g>
<!-- Node9 -->
<g id="node9" class="node">
<title>Node9</title>
<g id="a_node9"><a xlink:title=" ">
<polygon fill="white" stroke="#bfbfbf" points="0,-0.5 0,-21.5 55,-21.5 55,-0.5 0,-0.5"/>
<text text-anchor="middle" x="27.5" y="-7.9" font-family="DejaVuSans" font-size="12.00">stdint.h</text>
</a>
</g>
</g>
<!-- Node7&#45;&gt;Node9 -->
<g id="edge8" class="edge">
<title>Node7&#45;&gt;Node9</title>
<path fill="none" stroke="midnightblue" d="M111.73,-58.25C95.79,-49.49 72.17,-36.53 54,-26.55"/>
<polygon fill="midnightblue" stroke="midnightblue" points="55.51,-23.39 45.06,-21.64 52.14,-29.52 55.51,-23.39"/>
</g>
<!-- Node10&#45;&gt;Node2 -->
<g id="edge10" class="edge">
<title>Node10&#45;&gt;Node2</title>
<path fill="none" stroke="midnightblue" d="M525.35,-234.68C490.09,-224.81 427.15,-207.18 387.46,-196.07"/>
<polygon fill="midnightblue" stroke="midnightblue" points="388.23,-192.65 377.65,-193.32 386.34,-199.39 388.23,-192.65"/>
</g>
<!-- Node10&#45;&gt;Node3 -->
<g id="edge11" class="edge">
<title>Node10&#45;&gt;Node3</title>
<path fill="none" stroke="midnightblue" d="M537.56,-232.28C516.49,-217.93 474.91,-190.96 436.5,-174 400.12,-157.94 356.45,-145.24 325.64,-137.28"/>
<polygon fill="midnightblue" stroke="midnightblue" points="326.26,-133.83 315.71,-134.77 324.54,-140.62 326.26,-133.83"/>
</g>
<!-- Node11 -->
<g id="node11" class="node">
<title>Node11</title>
<g id="a_node11"><a xlink:href="tex__constant_8h.html" target="_top" xlink:title=" ">
<polygon fill="white" stroke="black" points="547.5,-174.5 547.5,-195.5 641.5,-195.5 641.5,-174.5 547.5,-174.5"/>
<text text-anchor="middle" x="594.5" y="-181.9" font-family="DejaVuSans" font-size="12.00">tex_constant.h</text>
</a>
</g>
</g>
<!-- Node10&#45;&gt;Node11 -->
<g id="edge12" class="edge">
<title>Node10&#45;&gt;Node11</title>
<path fill="none" stroke="midnightblue" d="M558.99,-232.25C565.03,-224.38 573.69,-213.1 580.94,-203.65"/>
<polygon fill="midnightblue" stroke="midnightblue" points="583.78,-205.71 587.1,-195.64 578.23,-201.44 583.78,-205.71"/>
</g>
<!-- Node11&#45;&gt;Node6 -->
<g id="edge13" class="edge">
<title>Node11&#45;&gt;Node6</title>
<path fill="none" stroke="midnightblue" d="M586.32,-174.28C570.09,-155.01 533.65,-111.75 513.18,-87.43"/>
<polygon fill="midnightblue" stroke="midnightblue" points="515.78,-85.09 506.66,-79.69 510.43,-89.6 515.78,-85.09"/>
</g>
<!-- Node12&#45;&gt;Node3 -->
<g id="edge15" class="edge">
<title>Node12&#45;&gt;Node3</title>
<path fill="none" stroke="midnightblue" d="M696.39,-290.28C695.52,-265.79 689.45,-201.6 650.5,-174 598.98,-137.49 408.92,-129.94 325.82,-128.39"/>
<polygon fill="midnightblue" stroke="midnightblue" points="325.82,-124.89 315.77,-128.23 325.71,-131.89 325.82,-124.89"/>
</g>
<!-- Node12&#45;&gt;Node11 -->
<g id="edge16" class="edge">
<title>Node12&#45;&gt;Node11</title>
<path fill="none" stroke="midnightblue" d="M692.55,-290.4C686.49,-276.45 673.84,-250.25 657.5,-232 646.67,-219.9 632.16,-209.05 619.8,-200.92"/>
<polygon fill="midnightblue" stroke="midnightblue" points="621.58,-197.91 611.26,-195.51 617.83,-203.82 621.58,-197.91"/>
</g>
<!-- Node13&#45;&gt;Node3 -->
<g id="edge18" class="edge">
<title>Node13&#45;&gt;Node3</title>
<path fill="none" stroke="midnightblue" d="M355.33,-356.28C277.36,-350.16 84.24,-322.31 21.5,-196 17.15,-187.24 15.21,-181.48 21.5,-174 49.89,-140.25 180.66,-131.26 247.27,-128.87"/>
<polygon fill="midnightblue" stroke="midnightblue" points="247.51,-132.36 257.39,-128.54 247.28,-125.37 247.51,-132.36"/>
</g>
<!-- Node13&#45;&gt;Node11 -->
<g id="edge43" class="edge">
<title>Node13&#45;&gt;Node11</title>
<path fill="none" stroke="midnightblue" d="M421.58,-353.29C471.75,-344.16 565.55,-318.9 606.5,-254 615.77,-239.31 610.7,-219.48 604.56,-205.02"/>
<polygon fill="midnightblue" stroke="midnightblue" points="607.54,-203.13 600.09,-195.6 601.22,-206.13 607.54,-203.13"/>
</g>
<!-- Node13&#45;&gt;Node12 -->
<g id="edge41" class="edge">
<title>Node13&#45;&gt;Node12</title>
<path fill="none" stroke="midnightblue" d="M421.8,-353.2C472.78,-345.65 573.17,-329.99 657.5,-312 658.77,-311.73 660.06,-311.45 661.36,-311.15"/>
<polygon fill="midnightblue" stroke="midnightblue" points="662.48,-314.48 671.4,-308.76 660.86,-307.67 662.48,-314.48"/>
</g>
<!-- Node14 -->
<g id="node14" class="node">
<title>Node14</title>
<g id="a_node14"><a xlink:href="mem_8h.html" target="_top" xlink:title=" ">
<polygon fill="white" stroke="black" points="454,-232.5 454,-253.5 507,-253.5 507,-232.5 454,-232.5"/>
<text text-anchor="middle" x="480.5" y="-239.9" font-family="DejaVuSans" font-size="12.00">mem.h</text>
</a>
</g>
</g>
<!-- Node13&#45;&gt;Node14 -->
<g id="edge19" class="edge">
<title>Node13&#45;&gt;Node14</title>
<path fill="none" stroke="midnightblue" d="M396.34,-348.28C411.82,-329.1 446.51,-286.12 466.17,-261.75"/>
<polygon fill="midnightblue" stroke="midnightblue" points="469.12,-263.68 472.68,-253.69 463.67,-259.28 469.12,-263.68"/>
</g>
<!-- Node15 -->
<g id="node15" class="node">
<title>Node15</title>
<g id="a_node15"><a xlink:href="box_8h.html" target="_top" xlink:title=" ">
<polygon fill="white" stroke="black" points="204.5,-290.5 204.5,-311.5 250.5,-311.5 250.5,-290.5 204.5,-290.5"/>
<text text-anchor="middle" x="227.5" y="-297.9" font-family="DejaVuSans" font-size="12.00">box.h</text>
</a>
</g>
</g>
<!-- Node13&#45;&gt;Node15 -->
<g id="edge22" class="edge">
<title>Node13&#45;&gt;Node15</title>
<path fill="none" stroke="midnightblue" d="M360.82,-348.37C332.87,-338.65 289.72,-323.64 260.12,-313.35"/>
<polygon fill="midnightblue" stroke="midnightblue" points="261.24,-310.03 250.65,-310.05 258.94,-316.64 261.24,-310.03"/>
</g>
<!-- Node18 -->
<g id="node18" class="node">
<title>Node18</title>
<g id="a_node18"><a xlink:href="charset_8h.html" target="_top" xlink:title=" ">
<polygon fill="white" stroke="black" points="117,-174.5 117,-195.5 182,-195.5 182,-174.5 117,-174.5"/>
<text text-anchor="middle" x="149.5" y="-181.9" font-family="DejaVuSans" font-size="12.00">charset.h</text>
</a>
</g>
</g>
<!-- Node13&#45;&gt;Node18 -->
<g id="edge42" class="edge">
<title>Node13&#45;&gt;Node18</title>
<path fill="none" stroke="midnightblue" d="M355.31,-353.92C306.58,-347.3 218.91,-332.84 195.5,-312 164.31,-284.24 154.25,-233.56 151.01,-205.68"/>
<polygon fill="midnightblue" stroke="midnightblue" points="154.48,-205.19 150.03,-195.57 147.52,-205.87 154.48,-205.19"/>
</g>
<!-- Node19 -->
<g id="node19" class="node">
<title>Node19</title>
<g id="a_node19"><a xlink:href="fonts_8h.html" target="_top" xlink:title=" ">
<polygon fill="white" stroke="black" points="359.5,-290.5 359.5,-311.5 411.5,-311.5 411.5,-290.5 359.5,-290.5"/>
<text text-anchor="middle" x="385.5" y="-297.9" font-family="DejaVuSans" font-size="12.00">fonts.h</text>
</a>
</g>
</g>
<!-- Node13&#45;&gt;Node19 -->
<g id="edge33" class="edge">
<title>Node13&#45;&gt;Node19</title>
<path fill="none" stroke="midnightblue" d="M387.98,-348.25C387.59,-340.94 387.04,-330.69 386.56,-321.7"/>
<polygon fill="midnightblue" stroke="midnightblue" points="390.05,-321.44 386.02,-311.64 383.06,-321.82 390.05,-321.44"/>
</g>
<!-- Node14&#45;&gt;Node3 -->
<g id="edge20" class="edge">
<title>Node14&#45;&gt;Node3</title>
<path fill="none" stroke="midnightblue" d="M472.44,-232.41C459.87,-218 434.26,-190.65 407.5,-174 382.01,-158.14 350.17,-146.3 325.55,-138.61"/>
<polygon fill="midnightblue" stroke="midnightblue" points="326.41,-135.22 315.82,-135.67 324.38,-141.92 326.41,-135.22"/>
</g>
<!-- Node14&#45;&gt;Node11 -->
<g id="edge21" class="edge">
<title>Node14&#45;&gt;Node11</title>
<path fill="none" stroke="midnightblue" d="M500.1,-232.37C518.23,-223.46 545.41,-210.11 565.96,-200.02"/>
<polygon fill="midnightblue" stroke="midnightblue" points="567.73,-203.05 575.16,-195.5 564.64,-196.77 567.73,-203.05"/>
</g>
<!-- Node15&#45;&gt;Node3 -->
<g id="edge23" class="edge">
<title>Node15&#45;&gt;Node3</title>
<path fill="none" stroke="midnightblue" d="M218.5,-290.44C207.35,-277.4 190.73,-253.21 198.5,-232 211.93,-195.34 244.63,-162.71 266.17,-144.16"/>
<polygon fill="midnightblue" stroke="midnightblue" points="268.66,-146.64 274.08,-137.54 264.17,-141.27 268.66,-146.64"/>
</g>
<!-- Node15&#45;&gt;Node14 -->
<g id="edge24" class="edge">
<title>Node15&#45;&gt;Node14</title>
<path fill="none" stroke="midnightblue" d="M250.73,-295.57C288.92,-288.17 367.56,-272.51 444.02,-254"/>
<polygon fill="midnightblue" stroke="midnightblue" points="444.93,-257.38 453.81,-251.61 443.27,-250.58 444.93,-257.38"/>
</g>
<!-- Node16 -->
<g id="node16" class="node">
<title>Node16</title>
<g id="a_node16"><a xlink:href="texmath_8h.html" target="_top" xlink:title=" ">
<polygon fill="white" stroke="black" points="30.5,-174.5 30.5,-195.5 98.5,-195.5 98.5,-174.5 30.5,-174.5"/>
<text text-anchor="middle" x="64.5" y="-181.9" font-family="DejaVuSans" font-size="12.00">texmath.h</text>
</a>
</g>
</g>
<!-- Node15&#45;&gt;Node16 -->
<g id="edge25" class="edge">
<title>Node15&#45;&gt;Node16</title>
<path fill="none" stroke="midnightblue" d="M213.88,-290.48C185.79,-270.83 121.16,-225.63 86.85,-201.63"/>
<polygon fill="midnightblue" stroke="midnightblue" points="88.62,-198.6 78.42,-195.74 84.61,-204.34 88.62,-198.6"/>
</g>
<!-- Node17 -->
<g id="node17" class="node">
<title>Node17</title>
<g id="a_node17"><a xlink:href="str_8h.html" target="_top" xlink:title=" ">
<polygon fill="white" stroke="black" points="208,-232.5 208,-253.5 247,-253.5 247,-232.5 208,-232.5"/>
<text text-anchor="middle" x="227.5" y="-239.9" font-family="DejaVuSans" font-size="12.00">str.h</text>
</a>
</g>
</g>
<!-- Node15&#45;&gt;Node17 -->
<g id="edge27" class="edge">
<title>Node15&#45;&gt;Node17</title>
<path fill="none" stroke="midnightblue" d="M227.5,-290.25C227.5,-282.94 227.5,-272.69 227.5,-263.7"/>
<polygon fill="midnightblue" stroke="midnightblue" points="231,-263.64 227.5,-253.64 224,-263.64 231,-263.64"/>
</g>
<!-- Node16&#45;&gt;Node3 -->
<g id="edge26" class="edge">
<title>Node16&#45;&gt;Node3</title>
<path fill="none" stroke="midnightblue" d="M98.7,-175.37C138.81,-165.25 205.17,-148.51 247.32,-137.88"/>
<polygon fill="midnightblue" stroke="midnightblue" points="248.38,-141.22 257.22,-135.38 246.67,-134.44 248.38,-141.22"/>
</g>
<!-- Node17&#45;&gt;Node2 -->
<g id="edge28" class="edge">
<title>Node17&#45;&gt;Node2</title>
<path fill="none" stroke="midnightblue" d="M247.15,-233.13C266.99,-224.17 297.91,-210.2 320.95,-199.8"/>
<polygon fill="midnightblue" stroke="midnightblue" points="322.61,-202.89 330.28,-195.58 319.73,-196.51 322.61,-202.89"/>
</g>
<!-- Node17&#45;&gt;Node3 -->
<g id="edge30" class="edge">
<title>Node17&#45;&gt;Node3</title>
<path fill="none" stroke="midnightblue" d="M232.53,-232.28C242.33,-213.35 264.12,-171.25 276.81,-146.72"/>
<polygon fill="midnightblue" stroke="midnightblue" points="279.99,-148.18 281.48,-137.69 273.78,-144.97 279.99,-148.18"/>
</g>
<!-- Node17&#45;&gt;Node9 -->
<g id="edge29" class="edge">
<title>Node17&#45;&gt;Node9</title>
<path fill="none" stroke="midnightblue" d="M207.66,-240.63C160.66,-236.94 44.76,-225.03 21.5,-196 -17.06,-147.87 5.91,-67.77 19.57,-31.23"/>
<polygon fill="midnightblue" stroke="midnightblue" points="22.89,-32.34 23.27,-21.75 16.37,-29.79 22.89,-32.34"/>
</g>
<!-- Node17&#45;&gt;Node18 -->
<g id="edge31" class="edge">
<title>Node17&#45;&gt;Node18</title>
<path fill="none" stroke="midnightblue" d="M213.91,-232.25C202.17,-223.81 184.98,-211.47 171.31,-201.66"/>
<polygon fill="midnightblue" stroke="midnightblue" points="173.1,-198.63 162.93,-195.64 169.01,-204.32 173.1,-198.63"/>
</g>
<!-- Node18&#45;&gt;Node3 -->
<g id="edge32" class="edge">
<title>Node18&#45;&gt;Node3</title>
<path fill="none" stroke="midnightblue" d="M173.05,-174.37C195.34,-165.26 228.99,-151.51 253.86,-141.34"/>
<polygon fill="midnightblue" stroke="midnightblue" points="255.32,-144.52 263.26,-137.5 252.68,-138.05 255.32,-144.52"/>
</g>
<!-- Node19&#45;&gt;Node2 -->
<g id="edge34" class="edge">
<title>Node19&#45;&gt;Node2</title>
<path fill="none" stroke="midnightblue" d="M382.16,-290.17C379.04,-280.88 374.3,-266.54 370.5,-254 365.57,-237.71 360.4,-219.08 356.7,-205.45"/>
<polygon fill="midnightblue" stroke="midnightblue" points="360.06,-204.47 354.08,-195.72 353.3,-206.29 360.06,-204.47"/>
</g>
<!-- Node19&#45;&gt;Node3 -->
<g id="edge35" class="edge">
<title>Node19&#45;&gt;Node3</title>
<path fill="none" stroke="midnightblue" d="M378.26,-290.31C365,-272.33 336.36,-232.31 316.5,-196 307.81,-180.12 299.64,-161.23 294.03,-147.4"/>
<polygon fill="midnightblue" stroke="midnightblue" points="297.21,-145.93 290.26,-137.93 290.71,-148.52 297.21,-145.93"/>
</g>
<!-- Node19&#45;&gt;Node11 -->
<g id="edge36" class="edge">
<title>Node19&#45;&gt;Node11</title>
<path fill="none" stroke="midnightblue" d="M411.84,-297.68C460.9,-292.8 563.43,-279.71 586.5,-254 598.02,-241.17 599.05,-221.05 597.78,-206.02"/>
<polygon fill="midnightblue" stroke="midnightblue" points="601.21,-205.22 596.5,-195.72 594.27,-206.08 601.21,-205.22"/>
</g>
<!-- Node19&#45;&gt;Node17 -->
<g id="edge37" class="edge">
<title>Node19&#45;&gt;Node17</title>
<path fill="none" stroke="midnightblue" d="M359.41,-290.75C331.18,-280.75 286.28,-264.83 256.85,-254.4"/>
<polygon fill="midnightblue" stroke="midnightblue" points="257.73,-251 247.13,-250.96 255.39,-257.6 257.73,-251"/>
</g>
<!-- Node20 -->
<g id="node20" class="node">
<title>Node20</title>
<g id="a_node20"><a xlink:href="dump_8h.html" target="_top" xlink:title=" ">
<polygon fill="white" stroke="black" points="379.5,-232.5 379.5,-253.5 435.5,-253.5 435.5,-232.5 379.5,-232.5"/>
<text text-anchor="middle" x="407.5" y="-239.9" font-family="DejaVuSans" font-size="12.00">dump.h</text>
</a>
</g>
</g>
<!-- Node19&#45;&gt;Node20 -->
<g id="edge38" class="edge">
<title>Node19&#45;&gt;Node20</title>
<path fill="none" stroke="midnightblue" d="M389.33,-290.25C392.27,-282.78 396.4,-272.24 399.99,-263.11"/>
<polygon fill="midnightblue" stroke="midnightblue" points="403.31,-264.23 403.71,-253.64 396.8,-261.67 403.31,-264.23"/>
</g>
<!-- Node20&#45;&gt;Node2 -->
<g id="edge39" class="edge">
<title>Node20&#45;&gt;Node2</title>
<path fill="none" stroke="midnightblue" d="M397.75,-232.25C389.64,-224.14 377.91,-212.41 368.29,-202.79"/>
<polygon fill="midnightblue" stroke="midnightblue" points="370.69,-200.24 361.14,-195.64 365.74,-205.19 370.69,-200.24"/>
</g>
<!-- Node20&#45;&gt;Node3 -->
<g id="edge40" class="edge">
<title>Node20&#45;&gt;Node3</title>
<path fill="none" stroke="midnightblue" d="M406.97,-232.48C405.68,-218.15 401.32,-190.91 386.5,-174 370.7,-155.97 346.36,-144.56 325.66,-137.62"/>
<polygon fill="midnightblue" stroke="midnightblue" points="326.43,-134.19 315.84,-134.56 324.34,-140.87 326.43,-134.19"/>
</g>
</g>
</svg>
