<?xml version="1.0" encoding="UTF-8" standalone="no"?>
<!DOCTYPE svg PUBLIC "-//W3C//DTD SVG 1.1//EN"
 "http://www.w3.org/Graphics/SVG/1.1/DTD/svg11.dtd">
<!-- Generated by graphviz version 2.44.0 ()
 -->
<!-- Title: fonts.c Pages: 1 -->
<svg width="878pt" height="726pt"
 viewBox="0.00 0.00 878.00 726.00" xmlns="http://www.w3.org/2000/svg" xmlns:xlink="http://www.w3.org/1999/xlink">
<g id="graph0" class="graph" transform="scale(1 1) rotate(0) translate(4 722)">
<title>fonts.c</title>
<polygon fill="white" stroke="transparent" points="-4,4 -4,-722 874,-722 874,4 -4,4"/>
<!-- Node1 -->
<g id="node1" class="node">
<title>Node1</title>
<g id="a_node1"><a xlink:title=" ">
<polygon fill="#bfbfbf" stroke="black" points="381.5,-696.5 381.5,-717.5 432.5,-717.5 432.5,-696.5 381.5,-696.5"/>
<text text-anchor="middle" x="407" y="-703.9" font-family="DejaVuSans" font-size="12.00">fonts.c</text>
</a>
</g>
</g>
<!-- Node2 -->
<g id="node2" class="node">
<title>Node2</title>
<g id="a_node2"><a xlink:title=" ">
<polygon fill="white" stroke="#bfbfbf" points="89,-0.5 89,-21.5 141,-21.5 141,-0.5 89,-0.5"/>
<text text-anchor="middle" x="115" y="-7.9" font-family="DejaVuSans" font-size="12.00">stdio.h</text>
</a>
</g>
</g>
<!-- Node1&#45;&gt;Node2 -->
<g id="edge1" class="edge">
<title>Node1&#45;&gt;Node2</title>
<path fill="none" stroke="midnightblue" d="M381.43,-705.67C307.7,-704.29 96.4,-697.1 40,-660 10.71,-640.73 0,-627.06 0,-592 0,-592 0,-592 0,-126 0,-78.59 49.91,-44.17 83.97,-26.2"/>
<polygon fill="midnightblue" stroke="midnightblue" points="85.76,-29.22 93.1,-21.57 82.6,-22.97 85.76,-29.22"/>
</g>
<!-- Node3 -->
<g id="node3" class="node">
<title>Node3</title>
<g id="a_node3"><a xlink:href="tex_8h.html" target="_top" xlink:title=" ">
<polygon fill="white" stroke="black" points="432,-290.5 432,-311.5 474,-311.5 474,-290.5 432,-290.5"/>
<text text-anchor="middle" x="453" y="-297.9" font-family="DejaVuSans" font-size="12.00">tex.h</text>
</a>
</g>
</g>
<!-- Node1&#45;&gt;Node3 -->
<g id="edge2" class="edge">
<title>Node1&#45;&gt;Node3</title>
<path fill="none" stroke="midnightblue" d="M408.09,-696.41C414.03,-644.24 442.5,-394.2 450.75,-321.73"/>
<polygon fill="midnightblue" stroke="midnightblue" points="454.24,-322.01 451.9,-311.68 447.29,-321.22 454.24,-322.01"/>
</g>
<!-- Node8 -->
<g id="node8" class="node">
<title>Node8</title>
<g id="a_node8"><a xlink:href="box_8h.html" target="_top" xlink:title=" ">
<polygon fill="white" stroke="black" points="326,-174.5 326,-195.5 372,-195.5 372,-174.5 326,-174.5"/>
<text text-anchor="middle" x="349" y="-181.9" font-family="DejaVuSans" font-size="12.00">box.h</text>
</a>
</g>
</g>
<!-- Node1&#45;&gt;Node8 -->
<g id="edge51" class="edge">
<title>Node1&#45;&gt;Node8</title>
<path fill="none" stroke="midnightblue" d="M381.35,-701.9C331.86,-692.38 228,-663.85 228,-592 228,-592 228,-592 228,-532 228,-449.14 167.64,-425.1 198,-348 223.97,-282.04 290.86,-227.06 326.25,-201.46"/>
<polygon fill="midnightblue" stroke="midnightblue" points="328.39,-204.23 334.53,-195.59 324.35,-198.52 328.39,-204.23"/>
</g>
<!-- Node9 -->
<g id="node9" class="node">
<title>Node9</title>
<g id="a_node9"><a xlink:href="str_8h.html" target="_top" xlink:title=" ">
<polygon fill="white" stroke="black" points="278.5,-116.5 278.5,-137.5 317.5,-137.5 317.5,-116.5 278.5,-116.5"/>
<text text-anchor="middle" x="298" y="-123.9" font-family="DejaVuSans" font-size="12.00">str.h</text>
</a>
</g>
</g>
<!-- Node1&#45;&gt;Node9 -->
<g id="edge16" class="edge">
<title>Node1&#45;&gt;Node9</title>
<path fill="none" stroke="midnightblue" d="M381.3,-702.8C303.53,-692.41 76,-656.5 76,-592 76,-592 76,-592 76,-474 76,-325.3 223.05,-189.46 277.79,-144.04"/>
<polygon fill="midnightblue" stroke="midnightblue" points="280.22,-146.58 285.75,-137.54 275.79,-141.16 280.22,-146.58"/>
</g>
<!-- Node12 -->
<g id="node12" class="node">
<title>Node12</title>
<g id="a_node12"><a xlink:href="macros_8h.html" target="_top" xlink:title=" ">
<polygon fill="white" stroke="black" points="598.5,-638.5 598.5,-659.5 663.5,-659.5 663.5,-638.5 598.5,-638.5"/>
<text text-anchor="middle" x="631" y="-645.9" font-family="DejaVuSans" font-size="12.00">macros.h</text>
</a>
</g>
</g>
<!-- Node1&#45;&gt;Node12 -->
<g id="edge15" class="edge">
<title>Node1&#45;&gt;Node12</title>
<path fill="none" stroke="midnightblue" d="M432.7,-699.58C470.73,-690.07 542.46,-672.14 588.42,-660.64"/>
<polygon fill="midnightblue" stroke="midnightblue" points="589.53,-663.98 598.38,-658.15 587.83,-657.18 589.53,-663.98"/>
</g>
<!-- Node13 -->
<g id="node13" class="node">
<title>Node13</title>
<g id="a_node13"><a xlink:href="error_8h.html" target="_top" xlink:title=" ">
<polygon fill="white" stroke="black" points="681.5,-638.5 681.5,-659.5 732.5,-659.5 732.5,-638.5 681.5,-638.5"/>
<text text-anchor="middle" x="707" y="-645.9" font-family="DejaVuSans" font-size="12.00">error.h</text>
</a>
</g>
</g>
<!-- Node1&#45;&gt;Node13 -->
<g id="edge17" class="edge">
<title>Node1&#45;&gt;Node13</title>
<path fill="none" stroke="midnightblue" d="M432.5,-702.59C478.48,-696.22 578.44,-681.4 671.6,-660.13"/>
<polygon fill="midnightblue" stroke="midnightblue" points="672.51,-663.52 681.46,-657.85 670.93,-656.7 672.51,-663.52"/>
</g>
<!-- Node14 -->
<g id="node14" class="node">
<title>Node14</title>
<g id="a_node14"><a xlink:href="lexer_8h.html" target="_top" xlink:title=" ">
<polygon fill="white" stroke="black" points="207,-348.5 207,-369.5 259,-369.5 259,-348.5 207,-348.5"/>
<text text-anchor="middle" x="233" y="-355.9" font-family="DejaVuSans" font-size="12.00">lexer.h</text>
</a>
</g>
</g>
<!-- Node1&#45;&gt;Node14 -->
<g id="edge18" class="edge">
<title>Node1&#45;&gt;Node14</title>
<path fill="none" stroke="midnightblue" d="M381.45,-702.96C334.85,-696.93 238.58,-682.12 214,-660 190.18,-638.56 190,-624.05 190,-592 190,-592 190,-592 190,-474 190,-438.25 208.74,-400.02 221.48,-378.17"/>
<polygon fill="midnightblue" stroke="midnightblue" points="224.48,-379.97 226.66,-369.6 218.49,-376.35 224.48,-379.97"/>
</g>
<!-- Node15 -->
<g id="node15" class="node">
<title>Node15</title>
<g id="a_node15"><a xlink:href="global_8h.html" target="_top" xlink:title=" ">
<polygon fill="white" stroke="black" points="273,-464.5 273,-485.5 331,-485.5 331,-464.5 273,-464.5"/>
<text text-anchor="middle" x="302" y="-471.9" font-family="DejaVuSans" font-size="12.00">global.h</text>
</a>
</g>
</g>
<!-- Node1&#45;&gt;Node15 -->
<g id="edge21" class="edge">
<title>Node1&#45;&gt;Node15</title>
<path fill="none" stroke="midnightblue" d="M382.83,-696.43C367.02,-688.9 347.27,-676.85 336,-660 301.62,-608.58 299.57,-531.87 300.78,-495.93"/>
<polygon fill="midnightblue" stroke="midnightblue" points="304.29,-495.93 301.25,-485.78 297.29,-495.6 304.29,-495.93"/>
</g>
<!-- Node18 -->
<g id="node18" class="node">
<title>Node18</title>
<g id="a_node18"><a xlink:href="fonts_8h.html" target="_top" xlink:title=" ">
<polygon fill="white" stroke="black" points="50,-290.5 50,-311.5 102,-311.5 102,-290.5 50,-290.5"/>
<text text-anchor="middle" x="76" y="-297.9" font-family="DejaVuSans" font-size="12.00">fonts.h</text>
</a>
</g>
</g>
<!-- Node1&#45;&gt;Node18 -->
<g id="edge29" class="edge">
<title>Node1&#45;&gt;Node18</title>
<path fill="none" stroke="midnightblue" d="M381.34,-705.94C309.95,-705.28 111.02,-699.8 62,-660 37.12,-639.8 38,-624.05 38,-592 38,-592 38,-592 38,-416 38,-380.9 54.41,-342.7 65.66,-320.63"/>
<polygon fill="midnightblue" stroke="midnightblue" points="68.81,-322.17 70.39,-311.7 62.62,-318.9 68.81,-322.17"/>
</g>
<!-- Node19 -->
<g id="node19" class="node">
<title>Node19</title>
<g id="a_node19"><a xlink:href="texfunc_8h.html" target="_top" xlink:title=" ">
<polygon fill="white" stroke="black" points="750.5,-638.5 750.5,-659.5 815.5,-659.5 815.5,-638.5 750.5,-638.5"/>
<text text-anchor="middle" x="783" y="-645.9" font-family="DejaVuSans" font-size="12.00">texfunc.h</text>
</a>
</g>
</g>
<!-- Node1&#45;&gt;Node19 -->
<g id="edge30" class="edge">
<title>Node1&#45;&gt;Node19</title>
<path fill="none" stroke="midnightblue" d="M432.78,-703.37C487.62,-697.59 620.01,-682.61 740.28,-660.18"/>
<polygon fill="midnightblue" stroke="midnightblue" points="741.22,-663.57 750.39,-658.27 739.92,-656.69 741.22,-663.57"/>
</g>
<!-- Node20 -->
<g id="node20" class="node">
<title>Node20</title>
<g id="a_node20"><a xlink:href="texmath_8h.html" target="_top" xlink:title=" ">
<polygon fill="white" stroke="black" points="690,-580.5 690,-601.5 758,-601.5 758,-580.5 690,-580.5"/>
<text text-anchor="middle" x="724" y="-587.9" font-family="DejaVuSans" font-size="12.00">texmath.h</text>
</a>
</g>
</g>
<!-- Node1&#45;&gt;Node20 -->
<g id="edge31" class="edge">
<title>Node1&#45;&gt;Node20</title>
<path fill="none" stroke="midnightblue" d="M432.55,-699.54C461.79,-691.76 510.83,-677.53 551,-660 569.24,-652.04 571.85,-646.15 590,-638 619.64,-624.69 654.38,-612.86 681.06,-604.54"/>
<polygon fill="midnightblue" stroke="midnightblue" points="682.33,-607.81 690.86,-601.52 680.27,-601.12 682.33,-607.81"/>
</g>
<!-- Node21 -->
<g id="node21" class="node">
<title>Node21</title>
<g id="a_node21"><a xlink:href="hash_8h.html" target="_top" xlink:title=" ">
<polygon fill="white" stroke="black" points="372.5,-348.5 372.5,-369.5 425.5,-369.5 425.5,-348.5 372.5,-348.5"/>
<text text-anchor="middle" x="399" y="-355.9" font-family="DejaVuSans" font-size="12.00">hash.h</text>
</a>
</g>
</g>
<!-- Node1&#45;&gt;Node21 -->
<g id="edge33" class="edge">
<title>Node1&#45;&gt;Node21</title>
<path fill="none" stroke="midnightblue" d="M397.35,-696.43C389.35,-687.77 378.57,-674.22 374,-660 342.28,-561.36 387.71,-531.2 397,-428 398.46,-411.83 398.93,-393.41 399.05,-379.82"/>
<polygon fill="midnightblue" stroke="midnightblue" points="402.55,-379.72 399.08,-369.71 395.55,-379.69 402.55,-379.72"/>
</g>
<!-- Node22 -->
<g id="node22" class="node">
<title>Node22</title>
<g id="a_node22"><a xlink:href="eqtb_8h.html" target="_top" xlink:title=" ">
<polygon fill="white" stroke="black" points="497,-290.5 497,-311.5 547,-311.5 547,-290.5 497,-290.5"/>
<text text-anchor="middle" x="522" y="-297.9" font-family="DejaVuSans" font-size="12.00">eqtb.h</text>
</a>
</g>
</g>
<!-- Node1&#45;&gt;Node22 -->
<g id="edge43" class="edge">
<title>Node1&#45;&gt;Node22</title>
<path fill="none" stroke="midnightblue" d="M411.73,-696.3C416.09,-687.11 422.54,-672.83 427,-660 470.98,-533.56 506.26,-376 517.9,-321.56"/>
<polygon fill="midnightblue" stroke="midnightblue" points="521.37,-322.07 520.02,-311.56 514.52,-320.62 521.37,-322.07"/>
</g>
<!-- Node23 -->
<g id="node23" class="node">
<title>Node23</title>
<g id="a_node23"><a xlink:href="mem_8h.html" target="_top" xlink:title=" ">
<polygon fill="white" stroke="black" points="495.5,-522.5 495.5,-543.5 548.5,-543.5 548.5,-522.5 495.5,-522.5"/>
<text text-anchor="middle" x="522" y="-529.9" font-family="DejaVuSans" font-size="12.00">mem.h</text>
</a>
</g>
</g>
<!-- Node1&#45;&gt;Node23 -->
<g id="edge40" class="edge">
<title>Node1&#45;&gt;Node23</title>
<path fill="none" stroke="midnightblue" d="M412.35,-696.22C424.28,-674.63 454.38,-621.54 484,-580 491.04,-570.13 499.58,-559.68 506.78,-551.23"/>
<polygon fill="midnightblue" stroke="midnightblue" points="509.53,-553.4 513.43,-543.55 504.24,-548.82 509.53,-553.4"/>
</g>
<!-- Node24 -->
<g id="node24" class="node">
<title>Node24</title>
<g id="a_node24"><a xlink:href="print_8h.html" target="_top" xlink:title=" ">
<polygon fill="white" stroke="black" points="492,-638.5 492,-659.5 542,-659.5 542,-638.5 492,-638.5"/>
<text text-anchor="middle" x="517" y="-645.9" font-family="DejaVuSans" font-size="12.00">print.h</text>
</a>
</g>
</g>
<!-- Node1&#45;&gt;Node24 -->
<g id="edge44" class="edge">
<title>Node1&#45;&gt;Node24</title>
<path fill="none" stroke="midnightblue" d="M426.16,-696.25C443.51,-687.41 469.29,-674.29 488.96,-664.28"/>
<polygon fill="midnightblue" stroke="midnightblue" points="490.74,-667.3 498.06,-659.64 487.56,-661.06 490.74,-667.3"/>
</g>
<!-- Node26 -->
<g id="node26" class="node">
<title>Node26</title>
<g id="a_node26"><a xlink:href="io_8h.html" target="_top" xlink:title=" ">
<polygon fill="white" stroke="black" points="834,-638.5 834,-659.5 870,-659.5 870,-638.5 834,-638.5"/>
<text text-anchor="middle" x="852" y="-645.9" font-family="DejaVuSans" font-size="12.00">io.h</text>
</a>
</g>
</g>
<!-- Node1&#45;&gt;Node26 -->
<g id="edge50" class="edge">
<title>Node1&#45;&gt;Node26</title>
<path fill="none" stroke="midnightblue" d="M432.82,-705.35C497.5,-703.26 671.65,-694.81 823.89,-659.74"/>
<polygon fill="midnightblue" stroke="midnightblue" points="824.95,-663.09 833.89,-657.4 823.35,-656.28 824.95,-663.09"/>
</g>
<!-- Node4 -->
<g id="node4" class="node">
<title>Node4</title>
<g id="a_node4"><a xlink:href="tex__types_8h.html" target="_top" xlink:title=" ">
<polygon fill="white" stroke="black" points="509.5,-58.5 509.5,-79.5 586.5,-79.5 586.5,-58.5 509.5,-58.5"/>
<text text-anchor="middle" x="548" y="-65.9" font-family="DejaVuSans" font-size="12.00">tex_types.h</text>
</a>
</g>
</g>
<!-- Node3&#45;&gt;Node4 -->
<g id="edge3" class="edge">
<title>Node3&#45;&gt;Node4</title>
<path fill="none" stroke="midnightblue" d="M442.15,-290.27C433.47,-281.7 421.96,-268.38 417,-254 413.81,-244.76 413.74,-241.22 417,-232 439.16,-169.35 496.99,-113.18 527.87,-86.47"/>
<polygon fill="midnightblue" stroke="midnightblue" points="530.45,-88.87 535.82,-79.73 525.92,-83.53 530.45,-88.87"/>
</g>
<!-- Node7 -->
<g id="node7" class="node">
<title>Node7</title>
<g id="a_node7"><a xlink:href="tex__constant_8h.html" target="_top" xlink:title=" ">
<polygon fill="white" stroke="black" points="426,-232.5 426,-253.5 520,-253.5 520,-232.5 426,-232.5"/>
<text text-anchor="middle" x="473" y="-239.9" font-family="DejaVuSans" font-size="12.00">tex_constant.h</text>
</a>
</g>
</g>
<!-- Node3&#45;&gt;Node7 -->
<g id="edge6" class="edge">
<title>Node3&#45;&gt;Node7</title>
<path fill="none" stroke="midnightblue" d="M456.48,-290.25C459.15,-282.78 462.91,-272.24 466.17,-263.11"/>
<polygon fill="midnightblue" stroke="midnightblue" points="469.49,-264.24 469.56,-253.64 462.9,-261.88 469.49,-264.24"/>
</g>
<!-- Node5 -->
<g id="node5" class="node">
<title>Node5</title>
<g id="a_node5"><a xlink:title=" ">
<polygon fill="white" stroke="#bfbfbf" points="515.5,-0.5 515.5,-21.5 580.5,-21.5 580.5,-0.5 515.5,-0.5"/>
<text text-anchor="middle" x="548" y="-7.9" font-family="DejaVuSans" font-size="12.00">stdbool.h</text>
</a>
</g>
</g>
<!-- Node4&#45;&gt;Node5 -->
<g id="edge4" class="edge">
<title>Node4&#45;&gt;Node5</title>
<path fill="none" stroke="midnightblue" d="M548,-58.25C548,-50.94 548,-40.69 548,-31.7"/>
<polygon fill="midnightblue" stroke="midnightblue" points="551.5,-31.64 548,-21.64 544.5,-31.64 551.5,-31.64"/>
</g>
<!-- Node6 -->
<g id="node6" class="node">
<title>Node6</title>
<g id="a_node6"><a xlink:title=" ">
<polygon fill="white" stroke="#bfbfbf" points="359.5,-0.5 359.5,-21.5 414.5,-21.5 414.5,-0.5 359.5,-0.5"/>
<text text-anchor="middle" x="387" y="-7.9" font-family="DejaVuSans" font-size="12.00">stdint.h</text>
</a>
</g>
</g>
<!-- Node4&#45;&gt;Node6 -->
<g id="edge5" class="edge">
<title>Node4&#45;&gt;Node6</title>
<path fill="none" stroke="midnightblue" d="M520.32,-58.37C493.67,-49.1 453.18,-35.02 423.81,-24.8"/>
<polygon fill="midnightblue" stroke="midnightblue" points="424.91,-21.48 414.32,-21.5 422.61,-28.09 424.91,-21.48"/>
</g>
<!-- Node7&#45;&gt;Node8 -->
<g id="edge7" class="edge">
<title>Node7&#45;&gt;Node8</title>
<path fill="none" stroke="midnightblue" d="M451.68,-232.37C431.78,-223.38 401.86,-209.87 379.44,-199.75"/>
<polygon fill="midnightblue" stroke="midnightblue" points="380.59,-196.43 370.04,-195.5 377.71,-202.81 380.59,-196.43"/>
</g>
<!-- Node8&#45;&gt;Node9 -->
<g id="edge8" class="edge">
<title>Node8&#45;&gt;Node9</title>
<path fill="none" stroke="midnightblue" d="M340.12,-174.25C332.8,-166.22 322.26,-154.64 313.55,-145.08"/>
<polygon fill="midnightblue" stroke="midnightblue" points="316.1,-142.68 306.78,-137.64 310.93,-147.39 316.1,-142.68"/>
</g>
<!-- Node9&#45;&gt;Node2 -->
<g id="edge9" class="edge">
<title>Node9&#45;&gt;Node2</title>
<path fill="none" stroke="midnightblue" d="M278.35,-122.05C252.42,-116.14 206.2,-103.14 173,-80 153.81,-66.63 137.11,-45.43 126.62,-30.26"/>
<polygon fill="midnightblue" stroke="midnightblue" points="129.39,-28.09 120.93,-21.71 123.56,-31.98 129.39,-28.09"/>
</g>
<!-- Node9&#45;&gt;Node4 -->
<g id="edge14" class="edge">
<title>Node9&#45;&gt;Node4</title>
<path fill="none" stroke="midnightblue" d="M317.62,-121.61C356.41,-112.92 443.96,-93.31 499.26,-80.92"/>
<polygon fill="midnightblue" stroke="midnightblue" points="500.2,-84.29 509.19,-78.69 498.67,-77.46 500.2,-84.29"/>
</g>
<!-- Node9&#45;&gt;Node6 -->
<g id="edge10" class="edge">
<title>Node9&#45;&gt;Node6</title>
<path fill="none" stroke="midnightblue" d="M305.59,-116.28C320.56,-97.1 354.11,-54.12 373.14,-29.75"/>
<polygon fill="midnightblue" stroke="midnightblue" points="376.04,-31.73 379.43,-21.69 370.52,-27.42 376.04,-31.73"/>
</g>
<!-- Node10 -->
<g id="node10" class="node">
<title>Node10</title>
<g id="a_node10"><a xlink:href="global__const_8h.html" target="_top" xlink:title=" ">
<polygon fill="white" stroke="black" points="181.5,-58.5 181.5,-79.5 274.5,-79.5 274.5,-58.5 181.5,-58.5"/>
<text text-anchor="middle" x="228" y="-65.9" font-family="DejaVuSans" font-size="12.00">global_const.h</text>
</a>
</g>
</g>
<!-- Node9&#45;&gt;Node10 -->
<g id="edge11" class="edge">
<title>Node9&#45;&gt;Node10</title>
<path fill="none" stroke="midnightblue" d="M285.81,-116.25C275.37,-107.89 260.13,-95.71 247.93,-85.94"/>
<polygon fill="midnightblue" stroke="midnightblue" points="250.05,-83.16 240.05,-79.64 245.68,-88.62 250.05,-83.16"/>
</g>
<!-- Node10&#45;&gt;Node2 -->
<g id="edge13" class="edge">
<title>Node10&#45;&gt;Node2</title>
<path fill="none" stroke="midnightblue" d="M208.57,-58.37C190.6,-49.46 163.66,-36.11 143.29,-26.02"/>
<polygon fill="midnightblue" stroke="midnightblue" points="144.69,-22.81 134.17,-21.5 141.58,-29.08 144.69,-22.81"/>
</g>
<!-- Node11 -->
<g id="node11" class="node">
<title>Node11</title>
<g id="a_node11"><a xlink:title=" ">
<polygon fill="white" stroke="#bfbfbf" points="198.5,-0.5 198.5,-21.5 257.5,-21.5 257.5,-0.5 198.5,-0.5"/>
<text text-anchor="middle" x="228" y="-7.9" font-family="DejaVuSans" font-size="12.00">assert.h</text>
</a>
</g>
</g>
<!-- Node10&#45;&gt;Node11 -->
<g id="edge12" class="edge">
<title>Node10&#45;&gt;Node11</title>
<path fill="none" stroke="midnightblue" d="M228,-58.25C228,-50.94 228,-40.69 228,-31.7"/>
<polygon fill="midnightblue" stroke="midnightblue" points="231.5,-31.64 228,-21.64 224.5,-31.64 231.5,-31.64"/>
</g>
<!-- Node14&#45;&gt;Node2 -->
<g id="edge19" class="edge">
<title>Node14&#45;&gt;Node2</title>
<path fill="none" stroke="midnightblue" d="M229.72,-348.38C213.71,-301.44 143.64,-95.98 121.64,-31.46"/>
<polygon fill="midnightblue" stroke="midnightblue" points="124.86,-30.07 118.32,-21.73 118.23,-32.33 124.86,-30.07"/>
</g>
<!-- Node14&#45;&gt;Node3 -->
<g id="edge20" class="edge">
<title>Node14&#45;&gt;Node3</title>
<path fill="none" stroke="midnightblue" d="M259.1,-351.36C299.88,-340.98 378.53,-320.96 422.09,-309.87"/>
<polygon fill="midnightblue" stroke="midnightblue" points="423.02,-313.24 431.85,-307.38 421.29,-306.46 423.02,-313.24"/>
</g>
<!-- Node15&#45;&gt;Node9 -->
<g id="edge23" class="edge">
<title>Node15&#45;&gt;Node9</title>
<path fill="none" stroke="midnightblue" d="M301.43,-464.24C300.32,-444.55 298,-398.62 298,-360 298,-360 298,-360 298,-242 298,-208.98 298,-170.59 298,-147.85"/>
<polygon fill="midnightblue" stroke="midnightblue" points="301.5,-147.76 298,-137.76 294.5,-147.76 301.5,-147.76"/>
</g>
<!-- Node16 -->
<g id="node16" class="node">
<title>Node16</title>
<g id="a_node16"><a xlink:title=" ">
<polygon fill="white" stroke="#bfbfbf" points="326,-406.5 326,-427.5 388,-427.5 388,-406.5 326,-406.5"/>
<text text-anchor="middle" x="357" y="-413.9" font-family="DejaVuSans" font-size="12.00">setjmp.h</text>
</a>
</g>
</g>
<!-- Node15&#45;&gt;Node16 -->
<g id="edge22" class="edge">
<title>Node15&#45;&gt;Node16</title>
<path fill="none" stroke="midnightblue" d="M311.58,-464.25C319.55,-456.14 331.06,-444.41 340.51,-434.79"/>
<polygon fill="midnightblue" stroke="midnightblue" points="343.02,-437.23 347.53,-427.64 338.03,-432.32 343.02,-437.23"/>
</g>
<!-- Node17 -->
<g id="node17" class="node">
<title>Node17</title>
<g id="a_node17"><a xlink:href="scan_8h.html" target="_top" xlink:title=" ">
<polygon fill="white" stroke="black" points="218,-406.5 218,-427.5 270,-427.5 270,-406.5 218,-406.5"/>
<text text-anchor="middle" x="244" y="-413.9" font-family="DejaVuSans" font-size="12.00">scan.h</text>
</a>
</g>
</g>
<!-- Node15&#45;&gt;Node17 -->
<g id="edge24" class="edge">
<title>Node15&#45;&gt;Node17</title>
<path fill="none" stroke="midnightblue" d="M291.9,-464.25C283.5,-456.14 271.35,-444.41 261.39,-434.79"/>
<polygon fill="midnightblue" stroke="midnightblue" points="263.61,-432.07 253.99,-427.64 258.75,-437.11 263.61,-432.07"/>
</g>
<!-- Node15&#45;&gt;Node18 -->
<g id="edge26" class="edge">
<title>Node15&#45;&gt;Node18</title>
<path fill="none" stroke="midnightblue" d="M277.99,-464.49C258.53,-456.24 230.87,-443.25 209,-428 161.44,-394.84 114.18,-345.03 90.91,-319.08"/>
<polygon fill="midnightblue" stroke="midnightblue" points="93.48,-316.71 84.22,-311.55 88.24,-321.35 93.48,-316.71"/>
</g>
<!-- Node17&#45;&gt;Node14 -->
<g id="edge25" class="edge">
<title>Node17&#45;&gt;Node14</title>
<path fill="none" stroke="midnightblue" d="M242.08,-406.25C240.65,-398.94 238.64,-388.69 236.87,-379.7"/>
<polygon fill="midnightblue" stroke="midnightblue" points="240.26,-378.78 234.89,-369.64 233.39,-380.13 240.26,-378.78"/>
</g>
<!-- Node18&#45;&gt;Node2 -->
<g id="edge27" class="edge">
<title>Node18&#45;&gt;Node2</title>
<path fill="none" stroke="midnightblue" d="M72.85,-290.36C66.76,-270.88 54,-225.31 54,-186 54,-186 54,-186 54,-126 54,-87.95 80.74,-50.31 98.81,-29.22"/>
<polygon fill="midnightblue" stroke="midnightblue" points="101.44,-31.53 105.47,-21.73 96.21,-26.88 101.44,-31.53"/>
</g>
<!-- Node18&#45;&gt;Node10 -->
<g id="edge28" class="edge">
<title>Node18&#45;&gt;Node10</title>
<path fill="none" stroke="midnightblue" d="M81.55,-290.23C89.14,-276.94 103.28,-252.48 116,-232 149.52,-178.04 193.37,-117.08 214.91,-87.7"/>
<polygon fill="midnightblue" stroke="midnightblue" points="217.73,-89.77 220.84,-79.64 212.09,-85.62 217.73,-89.77"/>
</g>
<!-- Node20&#45;&gt;Node4 -->
<g id="edge32" class="edge">
<title>Node20&#45;&gt;Node4</title>
<path fill="none" stroke="midnightblue" d="M722.28,-580.28C718.96,-560.64 712,-514.81 712,-476 712,-476 712,-476 712,-184 712,-149.8 701.83,-138.41 676,-116 653.72,-96.67 622.7,-85.25 596.78,-78.63"/>
<polygon fill="midnightblue" stroke="midnightblue" points="597.3,-75.15 586.76,-76.24 595.68,-81.96 597.3,-75.15"/>
</g>
<!-- Node21&#45;&gt;Node3 -->
<g id="edge34" class="edge">
<title>Node21&#45;&gt;Node3</title>
<path fill="none" stroke="midnightblue" d="M408.41,-348.25C416.15,-340.22 427.31,-328.64 436.53,-319.08"/>
<polygon fill="midnightblue" stroke="midnightblue" points="439.28,-321.27 443.7,-311.64 434.24,-316.41 439.28,-321.27"/>
</g>
<!-- Node21&#45;&gt;Node9 -->
<g id="edge35" class="edge">
<title>Node21&#45;&gt;Node9</title>
<path fill="none" stroke="midnightblue" d="M388.63,-348.28C364.53,-324.87 305.17,-262.38 284,-196 278.86,-179.89 283.56,-161.03 288.85,-147.26"/>
<polygon fill="midnightblue" stroke="midnightblue" points="292.16,-148.42 292.86,-137.85 285.72,-145.67 292.16,-148.42"/>
</g>
<!-- Node21&#45;&gt;Node18 -->
<g id="edge36" class="edge">
<title>Node21&#45;&gt;Node18</title>
<path fill="none" stroke="midnightblue" d="M372.29,-353.37C314.47,-343.35 177.66,-319.62 112.16,-308.27"/>
<polygon fill="midnightblue" stroke="midnightblue" points="112.74,-304.82 102.29,-306.56 111.54,-311.71 112.74,-304.82"/>
</g>
<!-- Node21&#45;&gt;Node22 -->
<g id="edge37" class="edge">
<title>Node21&#45;&gt;Node22</title>
<path fill="none" stroke="midnightblue" d="M420.14,-348.37C439.89,-339.38 469.57,-325.87 491.81,-315.75"/>
<polygon fill="midnightblue" stroke="midnightblue" points="493.48,-318.83 501.13,-311.5 490.58,-312.46 493.48,-318.83"/>
</g>
<!-- Node22&#45;&gt;Node4 -->
<g id="edge38" class="edge">
<title>Node22&#45;&gt;Node4</title>
<path fill="none" stroke="midnightblue" d="M523.64,-290.15C525.15,-280.85 527.4,-266.5 529,-254 536.6,-194.44 543.23,-123.74 546.26,-89.94"/>
<polygon fill="midnightblue" stroke="midnightblue" points="549.78,-89.87 547.17,-79.6 542.81,-89.25 549.78,-89.87"/>
</g>
<!-- Node22&#45;&gt;Node7 -->
<g id="edge39" class="edge">
<title>Node22&#45;&gt;Node7</title>
<path fill="none" stroke="midnightblue" d="M513.46,-290.25C506.51,-282.3 496.51,-270.87 488.19,-261.37"/>
<polygon fill="midnightblue" stroke="midnightblue" points="490.66,-258.86 481.44,-253.64 485.39,-263.47 490.66,-258.86"/>
</g>
<!-- Node23&#45;&gt;Node4 -->
<g id="edge41" class="edge">
<title>Node23&#45;&gt;Node4</title>
<path fill="none" stroke="midnightblue" d="M524.02,-522.41C530.34,-491.87 549.7,-394.08 556,-312 562.67,-225.14 563.49,-202.79 556,-116 555.25,-107.34 553.73,-97.86 552.21,-89.77"/>
<polygon fill="midnightblue" stroke="midnightblue" points="555.61,-88.92 550.21,-79.81 548.74,-90.3 555.61,-88.92"/>
</g>
<!-- Node23&#45;&gt;Node15 -->
<g id="edge42" class="edge">
<title>Node23&#45;&gt;Node15</title>
<path fill="none" stroke="midnightblue" d="M495.46,-525.25C456.98,-515.45 385.42,-497.23 340.95,-485.91"/>
<polygon fill="midnightblue" stroke="midnightblue" points="341.63,-482.48 331.08,-483.4 339.9,-489.26 341.63,-482.48"/>
</g>
<!-- Node24&#45;&gt;Node3 -->
<g id="edge46" class="edge">
<title>Node24&#45;&gt;Node3</title>
<path fill="none" stroke="midnightblue" d="M531.32,-638.29C542.59,-629.93 557.88,-616.88 567,-602 583.4,-575.24 586,-565.38 586,-534 586,-534 586,-534 586,-474 586,-403.41 515.03,-344.17 476.77,-317.36"/>
<polygon fill="midnightblue" stroke="midnightblue" points="478.49,-314.3 468.26,-311.55 474.54,-320.08 478.49,-314.3"/>
</g>
<!-- Node24&#45;&gt;Node4 -->
<g id="edge45" class="edge">
<title>Node24&#45;&gt;Node4</title>
<path fill="none" stroke="midnightblue" d="M542.01,-639.5C562.1,-631.84 590.28,-619.14 611,-602 640.11,-577.92 662,-571.78 662,-534 662,-534 662,-534 662,-184 662,-136.8 612.53,-102.31 578.76,-84.27"/>
<polygon fill="midnightblue" stroke="midnightblue" points="580.21,-81.08 569.71,-79.63 577.01,-87.31 580.21,-81.08"/>
</g>
<!-- Node24&#45;&gt;Node9 -->
<g id="edge49" class="edge">
<title>Node24&#45;&gt;Node9</title>
<path fill="none" stroke="midnightblue" d="M536.63,-638.42C567.52,-621.79 624,-584.49 624,-534 624,-534 624,-534 624,-300 624,-166.8 408.47,-136.49 327.91,-129.82"/>
<polygon fill="midnightblue" stroke="midnightblue" points="328.14,-126.33 317.9,-129.06 327.61,-133.31 328.14,-126.33"/>
</g>
<!-- Node25 -->
<g id="node25" class="node">
<title>Node25</title>
<g id="a_node25"><a xlink:href="texmac_8h.html" target="_top" xlink:title=" ">
<polygon fill="white" stroke="black" points="492.5,-580.5 492.5,-601.5 557.5,-601.5 557.5,-580.5 492.5,-580.5"/>
<text text-anchor="middle" x="525" y="-587.9" font-family="DejaVuSans" font-size="12.00">texmac.h</text>
</a>
</g>
</g>
<!-- Node24&#45;&gt;Node25 -->
<g id="edge47" class="edge">
<title>Node24&#45;&gt;Node25</title>
<path fill="none" stroke="midnightblue" d="M518.39,-638.25C519.44,-630.94 520.9,-620.69 522.19,-611.7"/>
<polygon fill="midnightblue" stroke="midnightblue" points="525.67,-612.04 523.62,-601.64 518.74,-611.05 525.67,-612.04"/>
</g>
<!-- Node25&#45;&gt;Node23 -->
<g id="edge48" class="edge">
<title>Node25&#45;&gt;Node23</title>
<path fill="none" stroke="midnightblue" d="M524.48,-580.25C524.09,-572.94 523.54,-562.69 523.06,-553.7"/>
<polygon fill="midnightblue" stroke="midnightblue" points="526.55,-553.44 522.52,-543.64 519.56,-553.82 526.55,-553.44"/>
</g>
</g>
</svg>
