<?xml version="1.0" encoding="UTF-8" standalone="no"?>
<!DOCTYPE svg PUBLIC "-//W3C//DTD SVG 1.1//EN"
 "http://www.w3.org/Graphics/SVG/1.1/DTD/svg11.dtd">
<!-- Generated by graphviz version 2.44.0 ()
 -->
<!-- Title: fonts.h Pages: 1 -->
<svg width="2099pt" height="320pt"
 viewBox="0.00 0.00 2099.00 320.00" xmlns="http://www.w3.org/2000/svg" xmlns:xlink="http://www.w3.org/1999/xlink">
<g id="graph0" class="graph" transform="scale(1 1) rotate(0) translate(4 316)">
<title>fonts.h</title>
<polygon fill="white" stroke="transparent" points="-4,4 -4,-316 2095,-316 2095,4 -4,4"/>
<!-- Node1 -->
<g id="node1" class="node">
<title>Node1</title>
<g id="a_node1"><a xlink:title=" ">
<polygon fill="#bfbfbf" stroke="black" points="692.5,-290.5 692.5,-311.5 744.5,-311.5 744.5,-290.5 692.5,-290.5"/>
<text text-anchor="middle" x="718.5" y="-297.9" font-family="DejaVuSans" font-size="12.00">fonts.h</text>
</a>
</g>
</g>
<!-- Node2 -->
<g id="node2" class="node">
<title>Node2</title>
<g id="a_node2"><a xlink:href="debug_8c.html" target="_top" xlink:title=" ">
<polygon fill="white" stroke="black" points="87,-232.5 87,-253.5 146,-253.5 146,-232.5 87,-232.5"/>
<text text-anchor="middle" x="116.5" y="-239.9" font-family="DejaVuSans" font-size="12.00">debug.c</text>
</a>
</g>
</g>
<!-- Node1&#45;&gt;Node2 -->
<g id="edge1" class="edge">
<title>Node1&#45;&gt;Node2</title>
<path fill="none" stroke="midnightblue" d="M682.36,-298.79C593.24,-295.42 355.98,-284.12 160.5,-254 155.85,-253.28 150.97,-252.35 146.21,-251.35"/>
<polygon fill="midnightblue" stroke="midnightblue" points="682.36,-302.29 692.48,-299.16 682.62,-295.3 682.36,-302.29"/>
</g>
<!-- Node3 -->
<g id="node3" class="node">
<title>Node3</title>
<g id="a_node3"><a xlink:href="dviout_8c.html" target="_top" xlink:title=" ">
<polygon fill="white" stroke="black" points="337.5,-116.5 337.5,-137.5 395.5,-137.5 395.5,-116.5 337.5,-116.5"/>
<text text-anchor="middle" x="366.5" y="-123.9" font-family="DejaVuSans" font-size="12.00">dviout.c</text>
</a>
</g>
</g>
<!-- Node1&#45;&gt;Node3 -->
<g id="edge2" class="edge">
<title>Node1&#45;&gt;Node3</title>
<path fill="none" stroke="midnightblue" d="M683.9,-286.76C661.58,-277.98 632.05,-265.92 606.5,-254 521,-214.1 422.21,-159.41 383.39,-137.57"/>
<polygon fill="midnightblue" stroke="midnightblue" points="682.71,-290.05 693.3,-290.43 685.26,-283.53 682.71,-290.05"/>
</g>
<!-- Node4 -->
<g id="node4" class="node">
<title>Node4</title>
<g id="a_node4"><a xlink:href="dviout_8h.html" target="_top" xlink:title=" ">
<polygon fill="white" stroke="black" points="203,-174.5 203,-195.5 262,-195.5 262,-174.5 203,-174.5"/>
<text text-anchor="middle" x="232.5" y="-181.9" font-family="DejaVuSans" font-size="12.00">dviout.h</text>
</a>
</g>
</g>
<!-- Node1&#45;&gt;Node4 -->
<g id="edge3" class="edge">
<title>Node1&#45;&gt;Node4</title>
<path fill="none" stroke="midnightblue" d="M682.36,-298.38C620.34,-294.85 490.09,-284.22 384.5,-254 333.36,-239.36 277.21,-210.64 249.67,-195.64"/>
<polygon fill="midnightblue" stroke="midnightblue" points="682.25,-301.88 692.43,-298.92 682.63,-294.89 682.25,-301.88"/>
</g>
<!-- Node7 -->
<g id="node7" class="node">
<title>Node7</title>
<g id="a_node7"><a xlink:href="main__ctrl_8h.html" target="_top" xlink:title=" ">
<polygon fill="white" stroke="black" points="675.5,-116.5 675.5,-137.5 749.5,-137.5 749.5,-116.5 675.5,-116.5"/>
<text text-anchor="middle" x="712.5" y="-123.9" font-family="DejaVuSans" font-size="12.00">main_ctrl.h</text>
</a>
</g>
</g>
<!-- Node1&#45;&gt;Node7 -->
<g id="edge59" class="edge">
<title>Node1&#45;&gt;Node7</title>
<path fill="none" stroke="midnightblue" d="M717.81,-280.21C716.52,-243.24 713.79,-164.94 712.84,-137.63"/>
<polygon fill="midnightblue" stroke="midnightblue" points="714.31,-280.39 718.16,-290.26 721.31,-280.14 714.31,-280.39"/>
</g>
<!-- Node13 -->
<g id="node13" class="node">
<title>Node13</title>
<g id="a_node13"><a xlink:href="tex__header_8h.html" target="_top" xlink:title=" ">
<polygon fill="white" stroke="black" points="1297.5,-58.5 1297.5,-79.5 1383.5,-79.5 1383.5,-58.5 1297.5,-58.5"/>
<text text-anchor="middle" x="1340.5" y="-65.9" font-family="DejaVuSans" font-size="12.00">tex_header.h</text>
</a>
</g>
</g>
<!-- Node1&#45;&gt;Node13 -->
<g id="edge76" class="edge">
<title>Node1&#45;&gt;Node13</title>
<path fill="none" stroke="midnightblue" d="M754.79,-299.54C905.82,-297.43 1485.11,-287.29 1664.5,-254 1809.55,-227.09 1894.34,-261.2 1975.5,-138 1980.88,-129.83 1982.16,-123.16 1975.5,-116 1935.32,-72.8 1520.5,-69.66 1383.87,-69.81"/>
<polygon fill="midnightblue" stroke="midnightblue" points="754.61,-296.04 744.66,-299.68 754.71,-303.04 754.61,-296.04"/>
</g>
<!-- Node15 -->
<g id="node15" class="node">
<title>Node15</title>
<g id="a_node15"><a xlink:href="math__formula_8c.html" target="_top" xlink:title=" ">
<polygon fill="white" stroke="black" points="221.5,-116.5 221.5,-137.5 319.5,-137.5 319.5,-116.5 221.5,-116.5"/>
<text text-anchor="middle" x="270.5" y="-123.9" font-family="DejaVuSans" font-size="12.00">math_formula.c</text>
</a>
</g>
</g>
<!-- Node1&#45;&gt;Node15 -->
<g id="edge60" class="edge">
<title>Node1&#45;&gt;Node15</title>
<path fill="none" stroke="midnightblue" d="M682.33,-290.97C649.83,-282.51 600.96,-268.97 559.5,-254 455.76,-216.56 336.28,-160 290.11,-137.61"/>
<polygon fill="midnightblue" stroke="midnightblue" points="681.72,-294.43 692.28,-293.53 683.47,-287.65 681.72,-294.43"/>
</g>
<!-- Node16 -->
<g id="node16" class="node">
<title>Node16</title>
<g id="a_node16"><a xlink:href="scan_8c.html" target="_top" xlink:title=" ">
<polygon fill="white" stroke="black" points="0,-116.5 0,-137.5 51,-137.5 51,-116.5 0,-116.5"/>
<text text-anchor="middle" x="25.5" y="-123.9" font-family="DejaVuSans" font-size="12.00">scan.c</text>
</a>
</g>
</g>
<!-- Node1&#45;&gt;Node16 -->
<g id="edge75" class="edge">
<title>Node1&#45;&gt;Node16</title>
<path fill="none" stroke="midnightblue" d="M682.15,-299.31C611.23,-297.21 449.94,-288.68 319.5,-254 209.48,-224.75 87.14,-161.55 42.76,-137.53"/>
<polygon fill="midnightblue" stroke="midnightblue" points="682.25,-302.82 692.34,-299.59 682.44,-295.82 682.25,-302.82"/>
</g>
<!-- Node17 -->
<g id="node17" class="node">
<title>Node17</title>
<g id="a_node17"><a xlink:href="expand_8c.html" target="_top" xlink:title=" ">
<polygon fill="white" stroke="black" points="806,-116.5 806,-137.5 871,-137.5 871,-116.5 806,-116.5"/>
<text text-anchor="middle" x="838.5" y="-123.9" font-family="DejaVuSans" font-size="12.00">expand.c</text>
</a>
</g>
</g>
<!-- Node1&#45;&gt;Node17 -->
<g id="edge24" class="edge">
<title>Node1&#45;&gt;Node17</title>
<path fill="none" stroke="midnightblue" d="M731.32,-281.63C756.68,-245.27 812.48,-165.29 831.78,-137.63"/>
<polygon fill="midnightblue" stroke="midnightblue" points="728.15,-280.06 725.3,-290.26 733.89,-284.06 728.15,-280.06"/>
</g>
<!-- Node18 -->
<g id="node18" class="node">
<title>Node18</title>
<g id="a_node18"><a xlink:href="fonts_8c.html" target="_top" xlink:title=" ">
<polygon fill="white" stroke="black" points="889,-116.5 889,-137.5 940,-137.5 940,-116.5 889,-116.5"/>
<text text-anchor="middle" x="914.5" y="-123.9" font-family="DejaVuSans" font-size="12.00">fonts.c</text>
</a>
</g>
</g>
<!-- Node1&#45;&gt;Node18 -->
<g id="edge25" class="edge">
<title>Node1&#45;&gt;Node18</title>
<path fill="none" stroke="midnightblue" d="M737.7,-283.4C747.78,-274.67 760.32,-263.77 771.5,-254 821.07,-210.65 879.98,-158.56 903.76,-137.51"/>
<polygon fill="midnightblue" stroke="midnightblue" points="735.16,-280.96 729.89,-290.15 739.75,-286.26 735.16,-280.96"/>
</g>
<!-- Node19 -->
<g id="node19" class="node">
<title>Node19</title>
<g id="a_node19"><a xlink:href="hash_8h.html" target="_top" xlink:title=" ">
<polygon fill="white" stroke="black" points="1027,-174.5 1027,-195.5 1080,-195.5 1080,-174.5 1027,-174.5"/>
<text text-anchor="middle" x="1053.5" y="-181.9" font-family="DejaVuSans" font-size="12.00">hash.h</text>
</a>
</g>
</g>
<!-- Node1&#45;&gt;Node19 -->
<g id="edge26" class="edge">
<title>Node1&#45;&gt;Node19</title>
<path fill="none" stroke="midnightblue" d="M754.68,-293.04C792.38,-285.32 852.92,-271.59 903.5,-254 952.38,-237 1007.13,-210.05 1035.01,-195.71"/>
<polygon fill="midnightblue" stroke="midnightblue" points="753.78,-289.65 744.67,-295.06 755.17,-296.51 753.78,-289.65"/>
</g>
<!-- Node26 -->
<g id="node26" class="node">
<title>Node26</title>
<g id="a_node26"><a xlink:href="hyphen_8h.html" target="_top" xlink:title=" ">
<polygon fill="white" stroke="black" points="1383.5,-232.5 1383.5,-253.5 1449.5,-253.5 1449.5,-232.5 1383.5,-232.5"/>
<text text-anchor="middle" x="1416.5" y="-239.9" font-family="DejaVuSans" font-size="12.00">hyphen.h</text>
</a>
</g>
</g>
<!-- Node1&#45;&gt;Node26 -->
<g id="edge37" class="edge">
<title>Node1&#45;&gt;Node26</title>
<path fill="none" stroke="midnightblue" d="M754.83,-297.09C876.18,-287.35 1266.45,-256.04 1383.2,-246.67"/>
<polygon fill="midnightblue" stroke="midnightblue" points="754.28,-293.62 744.59,-297.91 754.84,-300.6 754.28,-293.62"/>
</g>
<!-- Node32 -->
<g id="node32" class="node">
<title>Node32</title>
<g id="a_node32"><a xlink:href="printout_8c.html" target="_top" xlink:title=" ">
<polygon fill="white" stroke="black" points="1693,-116.5 1693,-137.5 1758,-137.5 1758,-116.5 1693,-116.5"/>
<text text-anchor="middle" x="1725.5" y="-123.9" font-family="DejaVuSans" font-size="12.00">printout.c</text>
</a>
</g>
</g>
<!-- Node1&#45;&gt;Node32 -->
<g id="edge74" class="edge">
<title>Node1&#45;&gt;Node32</title>
<path fill="none" stroke="midnightblue" d="M754.59,-299.46C935.42,-296.38 1736.9,-278.16 1806.5,-196 1826.79,-172.04 1783.84,-149.75 1753.07,-137.59"/>
<polygon fill="midnightblue" stroke="midnightblue" points="754.48,-295.96 744.54,-299.63 754.59,-302.96 754.48,-295.96"/>
</g>
<!-- Node38 -->
<g id="node38" class="node">
<title>Node38</title>
<g id="a_node38"><a xlink:href="mmode_8c.html" target="_top" xlink:title=" ">
<polygon fill="white" stroke="black" points="414,-116.5 414,-137.5 479,-137.5 479,-116.5 414,-116.5"/>
<text text-anchor="middle" x="446.5" y="-123.9" font-family="DejaVuSans" font-size="12.00">mmode.c</text>
</a>
</g>
</g>
<!-- Node1&#45;&gt;Node38 -->
<g id="edge61" class="edge">
<title>Node1&#45;&gt;Node38</title>
<path fill="none" stroke="midnightblue" d="M694.4,-284.76C639.56,-250.08 506.77,-166.11 461.73,-137.63"/>
<polygon fill="midnightblue" stroke="midnightblue" points="692.77,-287.87 703.1,-290.26 696.52,-281.96 692.77,-287.87"/>
</g>
<!-- Node39 -->
<g id="node39" class="node">
<title>Node39</title>
<g id="a_node39"><a xlink:href="mmode_8h.html" target="_top" xlink:title=" ">
<polygon fill="white" stroke="black" points="624.5,-174.5 624.5,-195.5 690.5,-195.5 690.5,-174.5 624.5,-174.5"/>
<text text-anchor="middle" x="657.5" y="-181.9" font-family="DejaVuSans" font-size="12.00">mmode.h</text>
</a>
</g>
</g>
<!-- Node1&#45;&gt;Node39 -->
<g id="edge62" class="edge">
<title>Node1&#45;&gt;Node39</title>
<path fill="none" stroke="midnightblue" d="M708.46,-281.24C695.33,-256.7 672.81,-214.6 662.69,-195.69"/>
<polygon fill="midnightblue" stroke="midnightblue" points="705.5,-283.11 713.3,-290.28 711.67,-279.81 705.5,-283.11"/>
</g>
<!-- Node41 -->
<g id="node41" class="node">
<title>Node41</title>
<g id="a_node41"><a xlink:href="pack_8c.html" target="_top" xlink:title=" ">
<polygon fill="white" stroke="black" points="2040,-232.5 2040,-253.5 2091,-253.5 2091,-232.5 2040,-232.5"/>
<text text-anchor="middle" x="2065.5" y="-239.9" font-family="DejaVuSans" font-size="12.00">pack.c</text>
</a>
</g>
</g>
<!-- Node1&#45;&gt;Node41 -->
<g id="edge73" class="edge">
<title>Node1&#45;&gt;Node41</title>
<path fill="none" stroke="midnightblue" d="M754.95,-299.75C939.29,-298.33 1770.21,-290 2025.5,-254 2030.18,-253.34 2035.1,-252.36 2039.84,-251.26"/>
<polygon fill="midnightblue" stroke="midnightblue" points="754.68,-296.25 744.71,-299.83 754.74,-303.25 754.68,-296.25"/>
</g>
<!-- Node4&#45;&gt;Node3 -->
<g id="edge5" class="edge">
<title>Node4&#45;&gt;Node3</title>
<path fill="none" stroke="midnightblue" d="M265.08,-170.38C289.45,-160.2 322.16,-146.53 343.77,-137.5"/>
<polygon fill="midnightblue" stroke="midnightblue" points="263.41,-167.29 255.54,-174.37 266.11,-173.75 263.41,-167.29"/>
</g>
<!-- Node5 -->
<g id="node5" class="node">
<title>Node5</title>
<g id="a_node5"><a xlink:href="align_8c.html" target="_top" xlink:title=" ">
<polygon fill="white" stroke="black" points="482,-58.5 482,-79.5 533,-79.5 533,-58.5 482,-58.5"/>
<text text-anchor="middle" x="507.5" y="-65.9" font-family="DejaVuSans" font-size="12.00">align.c</text>
</a>
</g>
</g>
<!-- Node4&#45;&gt;Node5 -->
<g id="edge4" class="edge">
<title>Node4&#45;&gt;Node5</title>
<path fill="none" stroke="midnightblue" d="M193.21,-171.8C159.96,-159.52 120.76,-139.11 141.5,-116 191.07,-60.77 400.73,-94.53 473.5,-80 476.15,-79.47 478.9,-78.83 481.63,-78.12"/>
<polygon fill="midnightblue" stroke="midnightblue" points="192.22,-175.17 202.82,-175.2 194.56,-168.57 192.22,-175.17"/>
</g>
<!-- Node6 -->
<g id="node6" class="node">
<title>Node6</title>
<g id="a_node6"><a xlink:href="extension_8c.html" target="_top" xlink:title=" ">
<polygon fill="white" stroke="black" points="674,-58.5 674,-79.5 751,-79.5 751,-58.5 674,-58.5"/>
<text text-anchor="middle" x="712.5" y="-65.9" font-family="DejaVuSans" font-size="12.00">extension.c</text>
</a>
</g>
</g>
<!-- Node4&#45;&gt;Node6 -->
<g id="edge6" class="edge">
<title>Node4&#45;&gt;Node6</title>
<path fill="none" stroke="midnightblue" d="M207.19,-168.74C186.69,-154.55 163.64,-133.08 179.5,-116 216.27,-76.4 610.99,-87.53 664.5,-80 667.53,-79.57 670.66,-79.07 673.8,-78.52"/>
<polygon fill="midnightblue" stroke="midnightblue" points="205.41,-171.77 215.69,-174.35 209.26,-165.92 205.41,-171.77"/>
</g>
<!-- Node4&#45;&gt;Node7 -->
<g id="edge7" class="edge">
<title>Node4&#45;&gt;Node7</title>
<path fill="none" stroke="midnightblue" d="M272.27,-181.24C348.9,-175.59 522.18,-161.26 666.5,-138 669.4,-137.53 672.4,-137 675.41,-136.42"/>
<polygon fill="midnightblue" stroke="midnightblue" points="271.84,-177.76 262.12,-181.97 272.34,-184.74 271.84,-177.76"/>
</g>
<!-- Node12 -->
<g id="node12" class="node">
<title>Node12</title>
<g id="a_node12"><a xlink:href="page__builder_8c.html" target="_top" xlink:title=" ">
<polygon fill="white" stroke="black" points="369,-58.5 369,-79.5 464,-79.5 464,-58.5 369,-58.5"/>
<text text-anchor="middle" x="416.5" y="-65.9" font-family="DejaVuSans" font-size="12.00">page_builder.c</text>
</a>
</g>
</g>
<!-- Node4&#45;&gt;Node12 -->
<g id="edge21" class="edge">
<title>Node4&#45;&gt;Node12</title>
<path fill="none" stroke="midnightblue" d="M193.04,-172.43C157.14,-161.52 108.93,-145.7 103.5,-138 97.87,-130.01 97.11,-123.4 103.5,-116 137.2,-76.98 289.83,-70.45 368.81,-69.75"/>
<polygon fill="midnightblue" stroke="midnightblue" points="192.21,-175.84 202.79,-175.37 194.23,-169.14 192.21,-175.84"/>
</g>
<!-- Node4&#45;&gt;Node13 -->
<g id="edge23" class="edge">
<title>Node4&#45;&gt;Node13</title>
<path fill="none" stroke="midnightblue" d="M218.62,-165.75C208.87,-150.57 199.66,-129.38 212.5,-116 222.08,-106.03 1091.93,-77.87 1297.37,-71.36"/>
<polygon fill="midnightblue" stroke="midnightblue" points="215.98,-168.08 224.56,-174.29 221.72,-164.08 215.98,-168.08"/>
</g>
<!-- Node4&#45;&gt;Node15 -->
<g id="edge20" class="edge">
<title>Node4&#45;&gt;Node15</title>
<path fill="none" stroke="midnightblue" d="M244.77,-165.92C251.15,-156.52 258.69,-145.4 263.96,-137.64"/>
<polygon fill="midnightblue" stroke="midnightblue" points="241.84,-164.01 239.12,-174.25 247.63,-167.94 241.84,-164.01"/>
</g>
<!-- Node4&#45;&gt;Node16 -->
<g id="edge22" class="edge">
<title>Node4&#45;&gt;Node16</title>
<path fill="none" stroke="midnightblue" d="M193.02,-173.32C151.31,-162.03 86.75,-144.57 51.19,-134.95"/>
<polygon fill="midnightblue" stroke="midnightblue" points="192.27,-176.74 202.84,-175.98 194.1,-169.99 192.27,-176.74"/>
</g>
<!-- Node7&#45;&gt;Node5 -->
<g id="edge8" class="edge">
<title>Node7&#45;&gt;Node5</title>
<path fill="none" stroke="midnightblue" d="M666.92,-113.85C632.66,-104.68 584.59,-91.71 542.5,-80 539.46,-79.15 536.27,-78.26 533.1,-77.36"/>
<polygon fill="midnightblue" stroke="midnightblue" points="666.08,-117.25 676.64,-116.45 667.89,-110.49 666.08,-117.25"/>
</g>
<!-- Node7&#45;&gt;Node6 -->
<g id="edge13" class="edge">
<title>Node7&#45;&gt;Node6</title>
<path fill="none" stroke="midnightblue" d="M712.5,-106.16C712.5,-97.16 712.5,-86.92 712.5,-79.64"/>
<polygon fill="midnightblue" stroke="midnightblue" points="709,-106.25 712.5,-116.25 716,-106.25 709,-106.25"/>
</g>
<!-- Node8 -->
<g id="node8" class="node">
<title>Node8</title>
<g id="a_node8"><a xlink:href="build__box_8c.html" target="_top" xlink:title=" ">
<polygon fill="white" stroke="black" points="808,-58.5 808,-79.5 885,-79.5 885,-58.5 808,-58.5"/>
<text text-anchor="middle" x="846.5" y="-65.9" font-family="DejaVuSans" font-size="12.00">build_box.c</text>
</a>
</g>
</g>
<!-- Node7&#45;&gt;Node8 -->
<g id="edge9" class="edge">
<title>Node7&#45;&gt;Node8</title>
<path fill="none" stroke="midnightblue" d="M745.08,-112.38C769.45,-102.2 802.16,-88.53 823.77,-79.5"/>
<polygon fill="midnightblue" stroke="midnightblue" points="743.41,-109.29 735.54,-116.37 746.11,-115.75 743.41,-109.29"/>
</g>
<!-- Node9 -->
<g id="node9" class="node">
<title>Node9</title>
<g id="a_node9"><a xlink:href="main__ctrl_8c.html" target="_top" xlink:title=" ">
<polygon fill="white" stroke="black" points="776.5,-0.5 776.5,-21.5 850.5,-21.5 850.5,-0.5 776.5,-0.5"/>
<text text-anchor="middle" x="813.5" y="-7.9" font-family="DejaVuSans" font-size="12.00">main_ctrl.c</text>
</a>
</g>
</g>
<!-- Node7&#45;&gt;Node9 -->
<g id="edge16" class="edge">
<title>Node7&#45;&gt;Node9</title>
<path fill="none" stroke="midnightblue" d="M731.09,-109.36C740.26,-100.87 751.29,-90.2 760.5,-80 778.35,-60.22 797,-35.07 806.71,-21.58"/>
<polygon fill="midnightblue" stroke="midnightblue" points="728.64,-106.87 723.62,-116.19 733.36,-112.03 728.64,-106.87"/>
</g>
<!-- Node10 -->
<g id="node10" class="node">
<title>Node10</title>
<g id="a_node10"><a xlink:href="build__math_8c.html" target="_top" xlink:title=" ">
<polygon fill="white" stroke="black" points="903.5,-58.5 903.5,-79.5 987.5,-79.5 987.5,-58.5 903.5,-58.5"/>
<text text-anchor="middle" x="945.5" y="-65.9" font-family="DejaVuSans" font-size="12.00">build_math.c</text>
</a>
</g>
</g>
<!-- Node7&#45;&gt;Node10 -->
<g id="edge11" class="edge">
<title>Node7&#45;&gt;Node10</title>
<path fill="none" stroke="midnightblue" d="M759.6,-114.68C802.53,-104.36 865.25,-89.29 905.73,-79.56"/>
<polygon fill="midnightblue" stroke="midnightblue" points="758.58,-111.32 749.68,-117.06 760.22,-118.13 758.58,-111.32"/>
</g>
<!-- Node11 -->
<g id="node11" class="node">
<title>Node11</title>
<g id="a_node11"><a xlink:href="indep__process_8c.html" target="_top" xlink:title=" ">
<polygon fill="white" stroke="black" points="551.5,-58.5 551.5,-79.5 655.5,-79.5 655.5,-58.5 551.5,-58.5"/>
<text text-anchor="middle" x="603.5" y="-65.9" font-family="DejaVuSans" font-size="12.00">indep_process.c</text>
</a>
</g>
</g>
<!-- Node7&#45;&gt;Node11 -->
<g id="edge14" class="edge">
<title>Node7&#45;&gt;Node11</title>
<path fill="none" stroke="midnightblue" d="M684.47,-111.6C664.93,-101.56 639.39,-88.44 622.27,-79.64"/>
<polygon fill="midnightblue" stroke="midnightblue" points="683.02,-114.79 693.51,-116.25 686.22,-108.56 683.02,-114.79"/>
</g>
<!-- Node7&#45;&gt;Node12 -->
<g id="edge17" class="edge">
<title>Node7&#45;&gt;Node12</title>
<path fill="none" stroke="midnightblue" d="M665.33,-115.82C615.07,-105.94 521.35,-88.91 464.11,-78.57"/>
<polygon fill="midnightblue" stroke="midnightblue" points="664.87,-119.3 675.36,-117.82 666.24,-112.44 664.87,-119.3"/>
</g>
<!-- Node7&#45;&gt;Node13 -->
<g id="edge18" class="edge">
<title>Node7&#45;&gt;Node13</title>
<path fill="none" stroke="midnightblue" d="M759.69,-116.55C760.97,-116.36 762.24,-116.17 763.5,-116 961.86,-88.74 1200.98,-76.05 1297.25,-71.76"/>
<polygon fill="midnightblue" stroke="midnightblue" points="759.04,-113.11 749.74,-118.19 760.18,-120.02 759.04,-113.11"/>
</g>
<!-- Node8&#45;&gt;Node9 -->
<g id="edge10" class="edge">
<title>Node8&#45;&gt;Node9</title>
<path fill="none" stroke="midnightblue" d="M835.67,-49.63C830.17,-40.29 823.71,-29.32 819.18,-21.64"/>
<polygon fill="midnightblue" stroke="midnightblue" points="832.66,-51.41 840.75,-58.25 838.69,-47.85 832.66,-51.41"/>
</g>
<!-- Node10&#45;&gt;Node9 -->
<g id="edge12" class="edge">
<title>Node10&#45;&gt;Node9</title>
<path fill="none" stroke="midnightblue" d="M913.4,-54.38C889.4,-44.2 857.17,-30.53 835.9,-21.5"/>
<polygon fill="midnightblue" stroke="midnightblue" points="912.24,-57.69 922.81,-58.37 914.97,-51.25 912.24,-57.69"/>
</g>
<!-- Node11&#45;&gt;Node9 -->
<g id="edge15" class="edge">
<title>Node11&#45;&gt;Node9</title>
<path fill="none" stroke="midnightblue" d="M649.55,-55.72C688.16,-45.42 742.51,-30.93 777.87,-21.5"/>
<polygon fill="midnightblue" stroke="midnightblue" points="648.36,-52.41 639.6,-58.37 650.16,-59.18 648.36,-52.41"/>
</g>
<!-- Node14 -->
<g id="node14" class="node">
<title>Node14</title>
<g id="a_node14"><a xlink:href="tex_8c.html" target="_top" xlink:title=" ">
<polygon fill="white" stroke="black" points="1320,-0.5 1320,-21.5 1361,-21.5 1361,-0.5 1320,-0.5"/>
<text text-anchor="middle" x="1340.5" y="-7.9" font-family="DejaVuSans" font-size="12.00">tex.c</text>
</a>
</g>
</g>
<!-- Node13&#45;&gt;Node14 -->
<g id="edge19" class="edge">
<title>Node13&#45;&gt;Node14</title>
<path fill="none" stroke="midnightblue" d="M1340.5,-48.16C1340.5,-39.16 1340.5,-28.92 1340.5,-21.64"/>
<polygon fill="midnightblue" stroke="midnightblue" points="1337,-48.25 1340.5,-58.25 1344,-48.25 1337,-48.25"/>
</g>
<!-- Node19&#45;&gt;Node7 -->
<g id="edge34" class="edge">
<title>Node19&#45;&gt;Node7</title>
<path fill="none" stroke="midnightblue" d="M1016.48,-177.92C950.98,-167.16 815.42,-144.9 749.75,-134.12"/>
<polygon fill="midnightblue" stroke="midnightblue" points="1016.31,-181.44 1026.74,-179.61 1017.44,-174.53 1016.31,-181.44"/>
</g>
<!-- Node19&#45;&gt;Node13 -->
<g id="edge36" class="edge">
<title>Node19&#45;&gt;Node13</title>
<path fill="none" stroke="midnightblue" d="M1090.01,-178.78C1161.33,-168.45 1312.94,-145.72 1321.5,-138 1338.24,-122.89 1340.73,-94.37 1340.81,-79.53"/>
<polygon fill="midnightblue" stroke="midnightblue" points="1089.5,-175.32 1080.1,-180.22 1090.5,-182.25 1089.5,-175.32"/>
</g>
<!-- Node19&#45;&gt;Node17 -->
<g id="edge30" class="edge">
<title>Node19&#45;&gt;Node17</title>
<path fill="none" stroke="midnightblue" d="M1016.88,-174.46C976.01,-163.82 910.5,-146.75 871.27,-136.54"/>
<polygon fill="midnightblue" stroke="midnightblue" points="1016.15,-177.89 1026.7,-177.02 1017.91,-171.11 1016.15,-177.89"/>
</g>
<!-- Node19&#45;&gt;Node18 -->
<g id="edge31" class="edge">
<title>Node19&#45;&gt;Node18</title>
<path fill="none" stroke="midnightblue" d="M1020.04,-170.52C994.72,-160.32 960.59,-146.57 938.08,-137.5"/>
<polygon fill="midnightblue" stroke="midnightblue" points="1019.02,-173.88 1029.61,-174.37 1021.64,-167.39 1019.02,-173.88"/>
</g>
<!-- Node20 -->
<g id="node20" class="node">
<title>Node20</title>
<g id="a_node20"><a xlink:href="box__display_8c.html" target="_top" xlink:title=" ">
<polygon fill="white" stroke="black" points="1369,-116.5 1369,-137.5 1458,-137.5 1458,-116.5 1369,-116.5"/>
<text text-anchor="middle" x="1413.5" y="-123.9" font-family="DejaVuSans" font-size="12.00">box_display.c</text>
</a>
</g>
</g>
<!-- Node19&#45;&gt;Node20 -->
<g id="edge27" class="edge">
<title>Node19&#45;&gt;Node20</title>
<path fill="none" stroke="midnightblue" d="M1090.01,-178.62C1146.67,-170.22 1259.18,-153.36 1354.5,-138 1359.12,-137.26 1363.93,-136.46 1368.73,-135.67"/>
<polygon fill="midnightblue" stroke="midnightblue" points="1089.48,-175.16 1080.1,-180.08 1090.5,-182.08 1089.48,-175.16"/>
</g>
<!-- Node21 -->
<g id="node21" class="node">
<title>Node21</title>
<g id="a_node21"><a xlink:href="dump_8c.html" target="_top" xlink:title=" ">
<polygon fill="white" stroke="black" points="1475.5,-116.5 1475.5,-137.5 1531.5,-137.5 1531.5,-116.5 1475.5,-116.5"/>
<text text-anchor="middle" x="1503.5" y="-123.9" font-family="DejaVuSans" font-size="12.00">dump.c</text>
</a>
</g>
</g>
<!-- Node19&#45;&gt;Node21 -->
<g id="edge28" class="edge">
<title>Node19&#45;&gt;Node21</title>
<path fill="none" stroke="midnightblue" d="M1090.53,-179.51C1105.16,-177.76 1122.12,-175.75 1137.5,-174 1284.09,-157.28 1322.61,-165.84 1467.5,-138 1470.05,-137.51 1472.68,-136.93 1475.3,-136.3"/>
<polygon fill="midnightblue" stroke="midnightblue" points="1089.86,-176.07 1080.35,-180.74 1090.7,-183.02 1089.86,-176.07"/>
</g>
<!-- Node22 -->
<g id="node22" class="node">
<title>Node22</title>
<g id="a_node22"><a xlink:href="eqtb_8c.html" target="_top" xlink:title=" ">
<polygon fill="white" stroke="black" points="1098,-116.5 1098,-137.5 1147,-137.5 1147,-116.5 1098,-116.5"/>
<text text-anchor="middle" x="1122.5" y="-123.9" font-family="DejaVuSans" font-size="12.00">eqtb.c</text>
</a>
</g>
</g>
<!-- Node19&#45;&gt;Node22 -->
<g id="edge29" class="edge">
<title>Node19&#45;&gt;Node22</title>
<path fill="none" stroke="midnightblue" d="M1073.3,-167.93C1085.36,-158.14 1100.37,-145.96 1110.62,-137.64"/>
<polygon fill="midnightblue" stroke="midnightblue" points="1071.08,-165.23 1065.52,-174.25 1075.49,-170.66 1071.08,-165.23"/>
</g>
<!-- Node23 -->
<g id="node23" class="node">
<title>Node23</title>
<g id="a_node23"><a xlink:href="hash_8c.html" target="_top" xlink:title=" ">
<polygon fill="white" stroke="black" points="1027.5,-116.5 1027.5,-137.5 1079.5,-137.5 1079.5,-116.5 1027.5,-116.5"/>
<text text-anchor="middle" x="1053.5" y="-123.9" font-family="DejaVuSans" font-size="12.00">hash.c</text>
</a>
</g>
</g>
<!-- Node19&#45;&gt;Node23 -->
<g id="edge32" class="edge">
<title>Node19&#45;&gt;Node23</title>
<path fill="none" stroke="midnightblue" d="M1053.5,-164.16C1053.5,-155.16 1053.5,-144.92 1053.5,-137.64"/>
<polygon fill="midnightblue" stroke="midnightblue" points="1050,-164.25 1053.5,-174.25 1057,-164.25 1050,-164.25"/>
</g>
<!-- Node24 -->
<g id="node24" class="node">
<title>Node24</title>
<g id="a_node24"><a xlink:href="lexer_8c.html" target="_top" xlink:title=" ">
<polygon fill="white" stroke="black" points="958,-116.5 958,-137.5 1009,-137.5 1009,-116.5 958,-116.5"/>
<text text-anchor="middle" x="983.5" y="-123.9" font-family="DejaVuSans" font-size="12.00">lexer.c</text>
</a>
</g>
</g>
<!-- Node19&#45;&gt;Node24 -->
<g id="edge33" class="edge">
<title>Node19&#45;&gt;Node24</title>
<path fill="none" stroke="midnightblue" d="M1033.41,-167.93C1021.17,-158.14 1005.95,-145.96 995.55,-137.64"/>
<polygon fill="midnightblue" stroke="midnightblue" points="1031.31,-170.73 1041.31,-174.25 1035.68,-165.27 1031.31,-170.73"/>
</g>
<!-- Node25 -->
<g id="node25" class="node">
<title>Node25</title>
<g id="a_node25"><a xlink:href="str_8c.html" target="_top" xlink:title=" ">
<polygon fill="white" stroke="black" points="1274.5,-116.5 1274.5,-137.5 1312.5,-137.5 1312.5,-116.5 1274.5,-116.5"/>
<text text-anchor="middle" x="1293.5" y="-123.9" font-family="DejaVuSans" font-size="12.00">str.c</text>
</a>
</g>
</g>
<!-- Node19&#45;&gt;Node25 -->
<g id="edge35" class="edge">
<title>Node19&#45;&gt;Node25</title>
<path fill="none" stroke="midnightblue" d="M1090.11,-177.55C1132.65,-169.71 1204.78,-155.35 1265.5,-138 1268.38,-137.18 1271.39,-136.21 1274.33,-135.22"/>
<polygon fill="midnightblue" stroke="midnightblue" points="1089.42,-174.12 1080.21,-179.35 1090.68,-181 1089.42,-174.12"/>
</g>
<!-- Node26&#45;&gt;Node7 -->
<g id="edge56" class="edge">
<title>Node26&#45;&gt;Node7</title>
<path fill="none" stroke="midnightblue" d="M1373.08,-238.47C1299.7,-232.16 1146.64,-217.58 1018.5,-196 920.56,-179.5 806.75,-151.97 749.47,-137.52"/>
<polygon fill="midnightblue" stroke="midnightblue" points="1373.05,-241.98 1383.31,-239.34 1373.65,-235 1373.05,-241.98"/>
</g>
<!-- Node26&#45;&gt;Node13 -->
<g id="edge58" class="edge">
<title>Node26&#45;&gt;Node13</title>
<path fill="none" stroke="midnightblue" d="M1459.62,-235.83C1506.1,-228.6 1581.97,-215.14 1645.5,-196 1670.31,-188.53 1674.48,-180.75 1699.5,-174 1811.71,-143.72 2033.56,-201.2 1954.5,-116 1915.83,-74.32 1517.37,-70.15 1383.84,-69.93"/>
<polygon fill="midnightblue" stroke="midnightblue" points="1458.95,-232.39 1449.59,-237.36 1460.01,-239.31 1458.95,-232.39"/>
</g>
<!-- Node26&#45;&gt;Node21 -->
<g id="edge38" class="edge">
<title>Node26&#45;&gt;Node21</title>
<path fill="none" stroke="midnightblue" d="M1418.69,-222.41C1421.11,-207.91 1426.14,-188.29 1436.5,-174 1448.26,-157.78 1467.59,-145.4 1482.47,-137.59"/>
<polygon fill="midnightblue" stroke="midnightblue" points="1415.22,-221.93 1417.3,-232.32 1422.15,-222.9 1415.22,-221.93"/>
</g>
<!-- Node27 -->
<g id="node27" class="node">
<title>Node27</title>
<g id="a_node27"><a xlink:href="extension_8h.html" target="_top" xlink:title=" ">
<polygon fill="white" stroke="black" points="1558.5,-174.5 1558.5,-195.5 1636.5,-195.5 1636.5,-174.5 1558.5,-174.5"/>
<text text-anchor="middle" x="1597.5" y="-181.9" font-family="DejaVuSans" font-size="12.00">extension.h</text>
</a>
</g>
</g>
<!-- Node26&#45;&gt;Node27 -->
<g id="edge39" class="edge">
<title>Node26&#45;&gt;Node27</title>
<path fill="none" stroke="midnightblue" d="M1457.47,-229.32C1490.67,-219.05 1536.71,-204.81 1566.79,-195.5"/>
<polygon fill="midnightblue" stroke="midnightblue" points="1456.13,-226.07 1447.62,-232.37 1458.2,-232.76 1456.13,-226.07"/>
</g>
<!-- Node30 -->
<g id="node30" class="node">
<title>Node30</title>
<g id="a_node30"><a xlink:href="linebreak_8c.html" target="_top" xlink:title=" ">
<polygon fill="white" stroke="black" points="1871.5,-116.5 1871.5,-137.5 1945.5,-137.5 1945.5,-116.5 1871.5,-116.5"/>
<text text-anchor="middle" x="1908.5" y="-123.9" font-family="DejaVuSans" font-size="12.00">linebreak.c</text>
</a>
</g>
</g>
<!-- Node26&#45;&gt;Node30 -->
<g id="edge55" class="edge">
<title>Node26&#45;&gt;Node30</title>
<path fill="none" stroke="midnightblue" d="M1459.71,-239.45C1547.48,-233.86 1743.64,-219.14 1806.5,-196 1843.45,-182.4 1880.26,-152.94 1897.84,-137.65"/>
<polygon fill="midnightblue" stroke="midnightblue" points="1459.32,-235.97 1449.56,-240.09 1459.76,-242.95 1459.32,-235.97"/>
</g>
<!-- Node33 -->
<g id="node33" class="node">
<title>Node33</title>
<g id="a_node33"><a xlink:href="hyphen_8c.html" target="_top" xlink:title=" ">
<polygon fill="white" stroke="black" points="1217,-174.5 1217,-195.5 1282,-195.5 1282,-174.5 1217,-174.5"/>
<text text-anchor="middle" x="1249.5" y="-181.9" font-family="DejaVuSans" font-size="12.00">hyphen.c</text>
</a>
</g>
</g>
<!-- Node26&#45;&gt;Node33 -->
<g id="edge51" class="edge">
<title>Node26&#45;&gt;Node33</title>
<path fill="none" stroke="midnightblue" d="M1378.3,-229.19C1347.7,-218.93 1305.47,-204.77 1277.83,-195.5"/>
<polygon fill="midnightblue" stroke="midnightblue" points="1377.2,-232.51 1387.79,-232.37 1379.42,-225.88 1377.2,-232.51"/>
</g>
<!-- Node34 -->
<g id="node34" class="node">
<title>Node34</title>
<g id="a_node34"><a xlink:href="hyphen__init_8c.html" target="_top" xlink:title=" ">
<polygon fill="white" stroke="black" points="1300.5,-174.5 1300.5,-195.5 1388.5,-195.5 1388.5,-174.5 1300.5,-174.5"/>
<text text-anchor="middle" x="1344.5" y="-181.9" font-family="DejaVuSans" font-size="12.00">hyphen_init.c</text>
</a>
</g>
</g>
<!-- Node26&#45;&gt;Node34 -->
<g id="edge52" class="edge">
<title>Node26&#45;&gt;Node34</title>
<path fill="none" stroke="midnightblue" d="M1395.84,-225.93C1383.25,-216.14 1367.59,-203.96 1356.9,-195.64"/>
<polygon fill="midnightblue" stroke="midnightblue" points="1393.92,-228.87 1403.96,-232.25 1398.21,-223.34 1393.92,-228.87"/>
</g>
<!-- Node35 -->
<g id="node35" class="node">
<title>Node35</title>
<g id="a_node35"><a xlink:href="hyphen__post_8c.html" target="_top" xlink:title=" ">
<polygon fill="white" stroke="black" points="1445,-174.5 1445,-195.5 1540,-195.5 1540,-174.5 1445,-174.5"/>
<text text-anchor="middle" x="1492.5" y="-181.9" font-family="DejaVuSans" font-size="12.00">hyphen_post.c</text>
</a>
</g>
</g>
<!-- Node26&#45;&gt;Node35 -->
<g id="edge53" class="edge">
<title>Node26&#45;&gt;Node35</title>
<path fill="none" stroke="midnightblue" d="M1437.93,-226.21C1451.28,-216.37 1468.02,-204.04 1479.41,-195.64"/>
<polygon fill="midnightblue" stroke="midnightblue" points="1435.71,-223.5 1429.74,-232.25 1439.86,-229.13 1435.71,-223.5"/>
</g>
<!-- Node36 -->
<g id="node36" class="node">
<title>Node36</title>
<g id="a_node36"><a xlink:href="hyphen__pre_8c.html" target="_top" xlink:title=" ">
<polygon fill="white" stroke="black" points="1708,-174.5 1708,-195.5 1797,-195.5 1797,-174.5 1708,-174.5"/>
<text text-anchor="middle" x="1752.5" y="-181.9" font-family="DejaVuSans" font-size="12.00">hyphen_pre.c</text>
</a>
</g>
</g>
<!-- Node26&#45;&gt;Node36 -->
<g id="edge54" class="edge">
<title>Node26&#45;&gt;Node36</title>
<path fill="none" stroke="midnightblue" d="M1459.77,-234.86C1514.28,-225.86 1610.85,-209.87 1693.5,-196 1698.11,-195.23 1702.92,-194.42 1707.72,-193.61"/>
<polygon fill="midnightblue" stroke="midnightblue" points="1459.06,-231.43 1449.76,-236.51 1460.2,-238.34 1459.06,-231.43"/>
</g>
<!-- Node37 -->
<g id="node37" class="node">
<title>Node37</title>
<g id="a_node37"><a xlink:href="mem_8c.html" target="_top" xlink:title=" ">
<polygon fill="white" stroke="black" points="1146.5,-174.5 1146.5,-195.5 1198.5,-195.5 1198.5,-174.5 1146.5,-174.5"/>
<text text-anchor="middle" x="1172.5" y="-181.9" font-family="DejaVuSans" font-size="12.00">mem.c</text>
</a>
</g>
</g>
<!-- Node26&#45;&gt;Node37 -->
<g id="edge57" class="edge">
<title>Node26&#45;&gt;Node37</title>
<path fill="none" stroke="midnightblue" d="M1373.3,-233.15C1331.12,-224.34 1265.19,-210.13 1208.5,-196 1205.35,-195.22 1202.06,-194.36 1198.8,-193.48"/>
<polygon fill="midnightblue" stroke="midnightblue" points="1372.73,-236.6 1383.23,-235.21 1374.15,-229.75 1372.73,-236.6"/>
</g>
<!-- Node27&#45;&gt;Node3 -->
<g id="edge44" class="edge">
<title>Node27&#45;&gt;Node3</title>
<path fill="none" stroke="midnightblue" d="M1548.18,-174.06C1042.57,-115.15 905.81,-209.13 405.5,-138 402.32,-137.55 399.02,-136.93 395.75,-136.23"/>
<polygon fill="midnightblue" stroke="midnightblue" points="1547.96,-177.56 1558.3,-175.25 1548.78,-170.61 1547.96,-177.56"/>
</g>
<!-- Node27&#45;&gt;Node6 -->
<g id="edge45" class="edge">
<title>Node27&#45;&gt;Node6</title>
<path fill="none" stroke="midnightblue" d="M1587.69,-165.25C1578.07,-149.02 1561.75,-126.55 1540.5,-116 1466.67,-79.34 881.66,-86.71 799.5,-80 783.74,-78.71 766.43,-76.82 751.42,-75.03"/>
<polygon fill="midnightblue" stroke="midnightblue" points="1584.86,-167.37 1592.8,-174.39 1590.97,-163.95 1584.86,-167.37"/>
</g>
<!-- Node27&#45;&gt;Node7 -->
<g id="edge47" class="edge">
<title>Node27&#45;&gt;Node7</title>
<path fill="none" stroke="midnightblue" d="M1547.89,-173.99C1215.77,-132.43 1127.55,-165.28 797.5,-138 781.8,-136.7 764.53,-134.77 749.68,-132.94"/>
<polygon fill="midnightblue" stroke="midnightblue" points="1547.93,-177.52 1558.29,-175.31 1548.81,-170.58 1547.93,-177.52"/>
</g>
<!-- Node27&#45;&gt;Node13 -->
<g id="edge50" class="edge">
<title>Node27&#45;&gt;Node13</title>
<path fill="none" stroke="midnightblue" d="M1595.77,-164.4C1593.35,-148.97 1587.52,-128.13 1573.5,-116 1545.67,-91.92 1443.37,-79.06 1383.98,-73.48"/>
<polygon fill="midnightblue" stroke="midnightblue" points="1592.32,-164.96 1597.01,-174.47 1599.27,-164.11 1592.32,-164.96"/>
</g>
<!-- Node27&#45;&gt;Node20 -->
<g id="edge42" class="edge">
<title>Node27&#45;&gt;Node20</title>
<path fill="none" stroke="midnightblue" d="M1556.28,-171.46C1522.51,-161.18 1475.43,-146.85 1444.72,-137.5"/>
<polygon fill="midnightblue" stroke="midnightblue" points="1555.28,-174.81 1565.87,-174.37 1557.32,-168.11 1555.28,-174.81"/>
</g>
<!-- Node27&#45;&gt;Node21 -->
<g id="edge43" class="edge">
<title>Node27&#45;&gt;Node21</title>
<path fill="none" stroke="midnightblue" d="M1572.4,-169.05C1555.67,-159.08 1534.18,-146.28 1519.69,-137.64"/>
<polygon fill="midnightblue" stroke="midnightblue" points="1570.74,-172.13 1581.13,-174.25 1574.33,-166.12 1570.74,-172.13"/>
</g>
<!-- Node28 -->
<g id="node28" class="node">
<title>Node28</title>
<g id="a_node28"><a xlink:href="box__copy_8c.html" target="_top" xlink:title=" ">
<polygon fill="white" stroke="black" points="1776,-116.5 1776,-137.5 1853,-137.5 1853,-116.5 1776,-116.5"/>
<text text-anchor="middle" x="1814.5" y="-123.9" font-family="DejaVuSans" font-size="12.00">box_copy.c</text>
</a>
</g>
</g>
<!-- Node27&#45;&gt;Node28 -->
<g id="edge40" class="edge">
<title>Node27&#45;&gt;Node28</title>
<path fill="none" stroke="midnightblue" d="M1644.58,-171.85C1684.51,-161.55 1740.99,-146.97 1777.68,-137.5"/>
<polygon fill="midnightblue" stroke="midnightblue" points="1643.61,-168.49 1634.8,-174.37 1645.36,-175.26 1643.61,-168.49"/>
</g>
<!-- Node29 -->
<g id="node29" class="node">
<title>Node29</title>
<g id="a_node29"><a xlink:href="box__destroy_8c.html" target="_top" xlink:title=" ">
<polygon fill="white" stroke="black" points="1165,-116.5 1165,-137.5 1256,-137.5 1256,-116.5 1165,-116.5"/>
<text text-anchor="middle" x="1210.5" y="-123.9" font-family="DejaVuSans" font-size="12.00">box_destroy.c</text>
</a>
</g>
</g>
<!-- Node27&#45;&gt;Node29 -->
<g id="edge41" class="edge">
<title>Node27&#45;&gt;Node29</title>
<path fill="none" stroke="midnightblue" d="M1548.22,-173.89C1422.29,-153.22 1388.05,-156.89 1265.5,-138 1262.43,-137.53 1259.27,-137.02 1256.09,-136.48"/>
<polygon fill="midnightblue" stroke="midnightblue" points="1547.82,-177.37 1558.26,-175.56 1548.96,-170.47 1547.82,-177.37"/>
</g>
<!-- Node27&#45;&gt;Node30 -->
<g id="edge46" class="edge">
<title>Node27&#45;&gt;Node30</title>
<path fill="none" stroke="midnightblue" d="M1646.85,-176.07C1700.16,-167.36 1787.53,-152.65 1862.5,-138 1865.39,-137.44 1868.37,-136.83 1871.37,-136.21"/>
<polygon fill="midnightblue" stroke="midnightblue" points="1645.97,-172.67 1636.66,-177.73 1647.09,-179.58 1645.97,-172.67"/>
</g>
<!-- Node31 -->
<g id="node31" class="node">
<title>Node31</title>
<g id="a_node31"><a xlink:href="print_8c.html" target="_top" xlink:title=" ">
<polygon fill="white" stroke="black" points="1626,-116.5 1626,-137.5 1675,-137.5 1675,-116.5 1626,-116.5"/>
<text text-anchor="middle" x="1650.5" y="-123.9" font-family="DejaVuSans" font-size="12.00">print.c</text>
</a>
</g>
</g>
<!-- Node27&#45;&gt;Node31 -->
<g id="edge48" class="edge">
<title>Node27&#45;&gt;Node31</title>
<path fill="none" stroke="midnightblue" d="M1613.79,-166.79C1622.86,-157.21 1633.81,-145.64 1641.37,-137.64"/>
<polygon fill="midnightblue" stroke="midnightblue" points="1611.06,-164.58 1606.73,-174.25 1616.15,-169.39 1611.06,-164.58"/>
</g>
<!-- Node27&#45;&gt;Node32 -->
<g id="edge49" class="edge">
<title>Node27&#45;&gt;Node32</title>
<path fill="none" stroke="midnightblue" d="M1628.93,-170.25C1652.18,-160.08 1683.24,-146.49 1703.78,-137.5"/>
<polygon fill="midnightblue" stroke="midnightblue" points="1627.26,-167.16 1619.5,-174.37 1630.07,-173.57 1627.26,-167.16"/>
</g>
<!-- Node39&#45;&gt;Node5 -->
<g id="edge63" class="edge">
<title>Node39&#45;&gt;Node5</title>
<path fill="none" stroke="midnightblue" d="M622.15,-170.32C604.18,-162.41 582.59,-151.37 565.5,-138 543.51,-120.78 523.77,-94.16 513.99,-79.87"/>
<polygon fill="midnightblue" stroke="midnightblue" points="621.14,-173.7 631.71,-174.39 623.88,-167.26 621.14,-173.7"/>
</g>
<!-- Node39&#45;&gt;Node7 -->
<g id="edge66" class="edge">
<title>Node39&#45;&gt;Node7</title>
<path fill="none" stroke="midnightblue" d="M674.12,-167.08C683.59,-157.44 695.1,-145.72 703.03,-137.64"/>
<polygon fill="midnightblue" stroke="midnightblue" points="671.59,-164.66 667.08,-174.25 676.58,-169.56 671.59,-164.66"/>
</g>
<!-- Node39&#45;&gt;Node12 -->
<g id="edge69" class="edge">
<title>Node39&#45;&gt;Node12</title>
<path fill="none" stroke="midnightblue" d="M619.14,-170.91C595.29,-162.38 564.18,-150.53 537.5,-138 498.24,-119.56 454.37,-93.44 431.78,-79.55"/>
<polygon fill="midnightblue" stroke="midnightblue" points="618.29,-174.33 628.89,-174.36 620.63,-167.73 618.29,-174.33"/>
</g>
<!-- Node39&#45;&gt;Node13 -->
<g id="edge72" class="edge">
<title>Node39&#45;&gt;Node13</title>
<path fill="none" stroke="midnightblue" d="M689.13,-170.43C709.21,-161.62 735.62,-149.63 758.5,-138 776.24,-128.98 778.48,-121.86 797.5,-116 890.62,-87.29 1185.48,-75 1297.11,-71.29"/>
<polygon fill="midnightblue" stroke="midnightblue" points="687.59,-167.28 679.83,-174.49 690.39,-173.7 687.59,-167.28"/>
</g>
<!-- Node39&#45;&gt;Node15 -->
<g id="edge67" class="edge">
<title>Node39&#45;&gt;Node15</title>
<path fill="none" stroke="midnightblue" d="M614.33,-178.41C551.39,-170.16 430.79,-153.96 328.5,-138 325.57,-137.54 322.56,-137.06 319.53,-136.57"/>
<polygon fill="midnightblue" stroke="midnightblue" points="613.92,-181.89 624.29,-179.71 614.83,-174.95 613.92,-181.89"/>
</g>
<!-- Node39&#45;&gt;Node20 -->
<g id="edge65" class="edge">
<title>Node39&#45;&gt;Node20</title>
<path fill="none" stroke="midnightblue" d="M700.69,-181.59C806.59,-175.57 1087.58,-158.81 1321.5,-138 1336.86,-136.63 1353.64,-134.89 1368.61,-133.23"/>
<polygon fill="midnightblue" stroke="midnightblue" points="700.49,-178.1 690.7,-182.16 700.88,-185.09 700.49,-178.1"/>
</g>
<!-- Node39&#45;&gt;Node29 -->
<g id="edge64" class="edge">
<title>Node39&#45;&gt;Node29</title>
<path fill="none" stroke="midnightblue" d="M700.6,-181.36C787.24,-175.75 988.6,-161.24 1156.5,-138 1159.24,-137.62 1162.05,-137.2 1164.88,-136.75"/>
<polygon fill="midnightblue" stroke="midnightblue" points="700.37,-177.86 690.61,-182 700.81,-184.85 700.37,-177.86"/>
</g>
<!-- Node39&#45;&gt;Node32 -->
<g id="edge71" class="edge">
<title>Node39&#45;&gt;Node32</title>
<path fill="none" stroke="midnightblue" d="M700.78,-182.56C883.41,-176.41 1586.25,-152.05 1684.5,-138 1687.26,-137.61 1690.1,-137.11 1692.94,-136.55"/>
<polygon fill="midnightblue" stroke="midnightblue" points="700.61,-179.06 690.74,-182.9 700.85,-186.06 700.61,-179.06"/>
</g>
<!-- Node39&#45;&gt;Node38 -->
<g id="edge68" class="edge">
<title>Node39&#45;&gt;Node38</title>
<path fill="none" stroke="midnightblue" d="M614.3,-172.53C574.19,-161.89 515.37,-146.28 479.08,-136.65"/>
<polygon fill="midnightblue" stroke="midnightblue" points="613.5,-175.94 624.07,-175.13 615.3,-169.18 613.5,-175.94"/>
</g>
<!-- Node40 -->
<g id="node40" class="node">
<title>Node40</title>
<g id="a_node40"><a xlink:href="pagebreak_8c.html" target="_top" xlink:title=" ">
<polygon fill="white" stroke="black" points="574,-116.5 574,-137.5 657,-137.5 657,-116.5 574,-116.5"/>
<text text-anchor="middle" x="615.5" y="-123.9" font-family="DejaVuSans" font-size="12.00">pagebreak.c</text>
</a>
</g>
</g>
<!-- Node39&#45;&gt;Node40 -->
<g id="edge70" class="edge">
<title>Node39&#45;&gt;Node40</title>
<path fill="none" stroke="midnightblue" d="M644.16,-166.21C637.06,-156.75 628.61,-145.48 622.73,-137.64"/>
<polygon fill="midnightblue" stroke="midnightblue" points="641.38,-168.35 650.18,-174.25 646.98,-164.15 641.38,-168.35"/>
</g>
</g>
</svg>
