<?xml version="1.0" encoding="UTF-8" standalone="no"?>
<!DOCTYPE svg PUBLIC "-//W3C//DTD SVG 1.1//EN"
 "http://www.w3.org/Graphics/SVG/1.1/DTD/svg11.dtd">
<!-- Generated by graphviz version 2.44.0 ()
 -->
<!-- Title: fonts.h Pages: 1 -->
<svg width="694pt" height="204pt"
 viewBox="0.00 0.00 693.50 204.00" xmlns="http://www.w3.org/2000/svg" xmlns:xlink="http://www.w3.org/1999/xlink">
<g id="graph0" class="graph" transform="scale(1 1) rotate(0) translate(4 200)">
<title>fonts.h</title>
<polygon fill="white" stroke="transparent" points="-4,4 -4,-200 689.5,-200 689.5,4 -4,4"/>
<!-- Node1 -->
<g id="node1" class="node">
<title>Node1</title>
<g id="a_node1"><a xlink:title=" ">
<polygon fill="#bfbfbf" stroke="black" points="207,-174.5 207,-195.5 259,-195.5 259,-174.5 207,-174.5"/>
<text text-anchor="middle" x="233" y="-181.9" font-family="DejaVuSans" font-size="12.00">fonts.h</text>
</a>
</g>
</g>
<!-- Node2 -->
<g id="node2" class="node">
<title>Node2</title>
<g id="a_node2"><a xlink:href="dviout_8c.html" target="_top" xlink:title=" ">
<polygon fill="white" stroke="black" points="0,-58.5 0,-79.5 58,-79.5 58,-58.5 0,-58.5"/>
<text text-anchor="middle" x="29" y="-65.9" font-family="DejaVuSans" font-size="12.00">dviout.c</text>
</a>
</g>
</g>
<!-- Node1&#45;&gt;Node2 -->
<g id="edge1" class="edge">
<title>Node1&#45;&gt;Node2</title>
<path fill="none" stroke="midnightblue" d="M196.65,-179.82C163.49,-174.54 114.41,-162.93 79,-138 57.19,-122.65 41.12,-94.75 33.65,-79.91"/>
<polygon fill="midnightblue" stroke="midnightblue" points="196.41,-183.32 206.81,-181.32 197.43,-176.4 196.41,-183.32"/>
</g>
<!-- Node3 -->
<g id="node3" class="node">
<title>Node3</title>
<g id="a_node3"><a xlink:href="dviout_8h.html" target="_top" xlink:title=" ">
<polygon fill="white" stroke="black" points="88.5,-116.5 88.5,-137.5 147.5,-137.5 147.5,-116.5 88.5,-116.5"/>
<text text-anchor="middle" x="118" y="-123.9" font-family="DejaVuSans" font-size="12.00">dviout.h</text>
</a>
</g>
</g>
<!-- Node1&#45;&gt;Node3 -->
<g id="edge2" class="edge">
<title>Node1&#45;&gt;Node3</title>
<path fill="none" stroke="midnightblue" d="M204.2,-169.97C183.38,-159.83 155.8,-146.41 137.51,-137.5"/>
<polygon fill="midnightblue" stroke="midnightblue" points="202.71,-173.14 213.23,-174.37 205.77,-166.85 202.71,-173.14"/>
</g>
<!-- Node4 -->
<g id="node4" class="node">
<title>Node4</title>
<g id="a_node4"><a xlink:href="tex__header_8h.html" target="_top" xlink:title=" ">
<polygon fill="white" stroke="black" points="76,-58.5 76,-79.5 162,-79.5 162,-58.5 76,-58.5"/>
<text text-anchor="middle" x="119" y="-65.9" font-family="DejaVuSans" font-size="12.00">tex_header.h</text>
</a>
</g>
</g>
<!-- Node1&#45;&gt;Node4 -->
<g id="edge19" class="edge">
<title>Node1&#45;&gt;Node4</title>
<path fill="none" stroke="midnightblue" d="M216.17,-167.17C191.96,-142.96 148.11,-99.11 128.69,-79.69"/>
<polygon fill="midnightblue" stroke="midnightblue" points="213.73,-169.68 223.28,-174.28 218.68,-164.73 213.73,-169.68"/>
</g>
<!-- Node6 -->
<g id="node6" class="node">
<title>Node6</title>
<g id="a_node6"><a xlink:href="expand_8c.html" target="_top" xlink:title=" ">
<polygon fill="white" stroke="black" points="180.5,-58.5 180.5,-79.5 245.5,-79.5 245.5,-58.5 180.5,-58.5"/>
<text text-anchor="middle" x="213" y="-65.9" font-family="DejaVuSans" font-size="12.00">expand.c</text>
</a>
</g>
</g>
<!-- Node1&#45;&gt;Node6 -->
<g id="edge6" class="edge">
<title>Node1&#45;&gt;Node6</title>
<path fill="none" stroke="midnightblue" d="M229.54,-164.25C225.21,-139.58 217.97,-98.35 214.7,-79.69"/>
<polygon fill="midnightblue" stroke="midnightblue" points="226.12,-165.04 231.29,-174.28 233.01,-163.83 226.12,-165.04"/>
</g>
<!-- Node7 -->
<g id="node7" class="node">
<title>Node7</title>
<g id="a_node7"><a xlink:href="fonts_8c.html" target="_top" xlink:title=" ">
<polygon fill="white" stroke="black" points="263.5,-58.5 263.5,-79.5 314.5,-79.5 314.5,-58.5 263.5,-58.5"/>
<text text-anchor="middle" x="289" y="-65.9" font-family="DejaVuSans" font-size="12.00">fonts.c</text>
</a>
</g>
</g>
<!-- Node1&#45;&gt;Node7 -->
<g id="edge7" class="edge">
<title>Node1&#45;&gt;Node7</title>
<path fill="none" stroke="midnightblue" d="M242.21,-165.24C254.27,-140.7 274.95,-98.6 284.24,-79.69"/>
<polygon fill="midnightblue" stroke="midnightblue" points="239.04,-163.76 237.77,-174.28 245.33,-166.85 239.04,-163.76"/>
</g>
<!-- Node8 -->
<g id="node8" class="node">
<title>Node8</title>
<g id="a_node8"><a xlink:href="hash_8h.html" target="_top" xlink:title=" ">
<polygon fill="white" stroke="black" points="280.5,-116.5 280.5,-137.5 333.5,-137.5 333.5,-116.5 280.5,-116.5"/>
<text text-anchor="middle" x="307" y="-123.9" font-family="DejaVuSans" font-size="12.00">hash.h</text>
</a>
</g>
</g>
<!-- Node1&#45;&gt;Node8 -->
<g id="edge8" class="edge">
<title>Node1&#45;&gt;Node8</title>
<path fill="none" stroke="midnightblue" d="M253.87,-168.21C266.86,-158.37 283.16,-146.04 294.26,-137.64"/>
<polygon fill="midnightblue" stroke="midnightblue" points="251.75,-165.42 245.89,-174.25 255.98,-171 251.75,-165.42"/>
</g>
<!-- Node14 -->
<g id="node14" class="node">
<title>Node14</title>
<g id="a_node14"><a xlink:href="printout_8c.html" target="_top" xlink:title=" ">
<polygon fill="white" stroke="black" points="351.5,-116.5 351.5,-137.5 416.5,-137.5 416.5,-116.5 351.5,-116.5"/>
<text text-anchor="middle" x="384" y="-123.9" font-family="DejaVuSans" font-size="12.00">printout.c</text>
</a>
</g>
</g>
<!-- Node1&#45;&gt;Node14 -->
<g id="edge17" class="edge">
<title>Node1&#45;&gt;Node14</title>
<path fill="none" stroke="midnightblue" d="M268.62,-170.79C296.19,-160.56 333.71,-146.65 358.38,-137.5"/>
<polygon fill="midnightblue" stroke="midnightblue" points="267.12,-167.61 258.96,-174.37 269.55,-174.18 267.12,-167.61"/>
</g>
<!-- Node15 -->
<g id="node15" class="node">
<title>Node15</title>
<g id="a_node15"><a xlink:href="scan_8c.html" target="_top" xlink:title=" ">
<polygon fill="white" stroke="black" points="434.5,-116.5 434.5,-137.5 485.5,-137.5 485.5,-116.5 434.5,-116.5"/>
<text text-anchor="middle" x="460" y="-123.9" font-family="DejaVuSans" font-size="12.00">scan.c</text>
</a>
</g>
</g>
<!-- Node1&#45;&gt;Node15 -->
<g id="edge18" class="edge">
<title>Node1&#45;&gt;Node15</title>
<path fill="none" stroke="midnightblue" d="M268.81,-176.05C307.67,-167.29 371.46,-152.51 426,-138 428.74,-137.27 431.59,-136.48 434.42,-135.68"/>
<polygon fill="midnightblue" stroke="midnightblue" points="268.01,-172.64 259.02,-178.25 269.54,-179.47 268.01,-172.64"/>
</g>
<!-- Node3&#45;&gt;Node2 -->
<g id="edge3" class="edge">
<title>Node3&#45;&gt;Node2</title>
<path fill="none" stroke="midnightblue" d="M93.79,-110.77C78.02,-100.85 57.92,-88.2 44.32,-79.64"/>
<polygon fill="midnightblue" stroke="midnightblue" points="92.17,-113.88 102.5,-116.25 95.9,-107.96 92.17,-113.88"/>
</g>
<!-- Node3&#45;&gt;Node4 -->
<g id="edge4" class="edge">
<title>Node3&#45;&gt;Node4</title>
<path fill="none" stroke="midnightblue" d="M118.35,-106.16C118.52,-97.16 118.7,-86.92 118.83,-79.64"/>
<polygon fill="midnightblue" stroke="midnightblue" points="114.85,-106.18 118.17,-116.25 121.85,-106.31 114.85,-106.18"/>
</g>
<!-- Node5 -->
<g id="node5" class="node">
<title>Node5</title>
<g id="a_node5"><a xlink:href="tex_8c.html" target="_top" xlink:title=" ">
<polygon fill="white" stroke="black" points="98.5,-0.5 98.5,-21.5 139.5,-21.5 139.5,-0.5 98.5,-0.5"/>
<text text-anchor="middle" x="119" y="-7.9" font-family="DejaVuSans" font-size="12.00">tex.c</text>
</a>
</g>
</g>
<!-- Node4&#45;&gt;Node5 -->
<g id="edge5" class="edge">
<title>Node4&#45;&gt;Node5</title>
<path fill="none" stroke="midnightblue" d="M119,-48.16C119,-39.16 119,-28.92 119,-21.64"/>
<polygon fill="midnightblue" stroke="midnightblue" points="115.5,-48.25 119,-58.25 122.5,-48.25 115.5,-48.25"/>
</g>
<!-- Node8&#45;&gt;Node4 -->
<g id="edge16" class="edge">
<title>Node8&#45;&gt;Node4</title>
<path fill="none" stroke="midnightblue" d="M270.73,-115.2C236.05,-104.87 184.27,-89.44 151.06,-79.55"/>
<polygon fill="midnightblue" stroke="midnightblue" points="269.88,-118.59 280.46,-118.1 271.88,-111.89 269.88,-118.59"/>
</g>
<!-- Node8&#45;&gt;Node6 -->
<g id="edge11" class="edge">
<title>Node8&#45;&gt;Node6</title>
<path fill="none" stroke="midnightblue" d="M281.9,-111.05C265.17,-101.08 243.68,-88.28 229.19,-79.64"/>
<polygon fill="midnightblue" stroke="midnightblue" points="280.24,-114.13 290.63,-116.25 283.83,-108.12 280.24,-114.13"/>
</g>
<!-- Node8&#45;&gt;Node7 -->
<g id="edge12" class="edge">
<title>Node8&#45;&gt;Node7</title>
<path fill="none" stroke="midnightblue" d="M300.72,-106.45C297.8,-97.38 294.46,-87 292.1,-79.64"/>
<polygon fill="midnightblue" stroke="midnightblue" points="297.47,-107.8 303.86,-116.25 304.14,-105.65 297.47,-107.8"/>
</g>
<!-- Node9 -->
<g id="node9" class="node">
<title>Node9</title>
<g id="a_node9"><a xlink:href="box__display_8c.html" target="_top" xlink:title=" ">
<polygon fill="white" stroke="black" points="529.5,-58.5 529.5,-79.5 618.5,-79.5 618.5,-58.5 529.5,-58.5"/>
<text text-anchor="middle" x="574" y="-65.9" font-family="DejaVuSans" font-size="12.00">box_display.c</text>
</a>
</g>
</g>
<!-- Node8&#45;&gt;Node9 -->
<g id="edge9" class="edge">
<title>Node8&#45;&gt;Node9</title>
<path fill="none" stroke="midnightblue" d="M343.69,-116C390.84,-105.19 476.42,-88.6 529.22,-78.51"/>
<polygon fill="midnightblue" stroke="midnightblue" points="342.61,-112.66 333.68,-118.35 344.21,-119.47 342.61,-112.66"/>
</g>
<!-- Node10 -->
<g id="node10" class="node">
<title>Node10</title>
<g id="a_node10"><a xlink:href="eqtb_8c.html" target="_top" xlink:title=" ">
<polygon fill="white" stroke="black" points="636.5,-58.5 636.5,-79.5 685.5,-79.5 685.5,-58.5 636.5,-58.5"/>
<text text-anchor="middle" x="661" y="-65.9" font-family="DejaVuSans" font-size="12.00">eqtb.c</text>
</a>
</g>
</g>
<!-- Node8&#45;&gt;Node10 -->
<g id="edge10" class="edge">
<title>Node8&#45;&gt;Node10</title>
<path fill="none" stroke="midnightblue" d="M343.69,-116.14C470,-91.62 506.3,-105.93 628,-80 630.69,-79.43 633.48,-78.74 636.25,-77.99"/>
<polygon fill="midnightblue" stroke="midnightblue" points="342.76,-112.76 333.63,-118.14 344.12,-119.62 342.76,-112.76"/>
</g>
<!-- Node11 -->
<g id="node11" class="node">
<title>Node11</title>
<g id="a_node11"><a xlink:href="hash_8c.html" target="_top" xlink:title=" ">
<polygon fill="white" stroke="black" points="333,-58.5 333,-79.5 385,-79.5 385,-58.5 333,-58.5"/>
<text text-anchor="middle" x="359" y="-65.9" font-family="DejaVuSans" font-size="12.00">hash.c</text>
</a>
</g>
</g>
<!-- Node8&#45;&gt;Node11 -->
<g id="edge13" class="edge">
<title>Node8&#45;&gt;Node11</title>
<path fill="none" stroke="midnightblue" d="M322.98,-108.79C331.88,-99.21 342.62,-87.64 350.05,-79.64"/>
<polygon fill="midnightblue" stroke="midnightblue" points="320.3,-106.54 316.06,-116.25 325.43,-111.3 320.3,-106.54"/>
</g>
<!-- Node12 -->
<g id="node12" class="node">
<title>Node12</title>
<g id="a_node12"><a xlink:href="lexer_8c.html" target="_top" xlink:title=" ">
<polygon fill="white" stroke="black" points="403.5,-58.5 403.5,-79.5 454.5,-79.5 454.5,-58.5 403.5,-58.5"/>
<text text-anchor="middle" x="429" y="-65.9" font-family="DejaVuSans" font-size="12.00">lexer.c</text>
</a>
</g>
</g>
<!-- Node8&#45;&gt;Node12 -->
<g id="edge14" class="edge">
<title>Node8&#45;&gt;Node12</title>
<path fill="none" stroke="midnightblue" d="M337.26,-112.11C359.38,-101.96 388.81,-88.45 408.3,-79.5"/>
<polygon fill="midnightblue" stroke="midnightblue" points="335.6,-109.02 327.97,-116.37 338.52,-115.38 335.6,-109.02"/>
</g>
<!-- Node13 -->
<g id="node13" class="node">
<title>Node13</title>
<g id="a_node13"><a xlink:href="str_8c.html" target="_top" xlink:title=" ">
<polygon fill="white" stroke="black" points="473,-58.5 473,-79.5 511,-79.5 511,-58.5 473,-58.5"/>
<text text-anchor="middle" x="492" y="-65.9" font-family="DejaVuSans" font-size="12.00">str.c</text>
</a>
</g>
</g>
<!-- Node8&#45;&gt;Node13 -->
<g id="edge15" class="edge">
<title>Node8&#45;&gt;Node13</title>
<path fill="none" stroke="midnightblue" d="M343.47,-115.58C382.44,-104.4 441.62,-87.27 464,-80 466.85,-79.08 469.84,-78.06 472.77,-77.03"/>
<polygon fill="midnightblue" stroke="midnightblue" points="342.2,-112.3 333.55,-118.42 344.13,-119.03 342.2,-112.3"/>
</g>
</g>
</svg>
