<?xml version="1.0" encoding="UTF-8" standalone="no"?>
<!DOCTYPE svg PUBLIC "-//W3C//DTD SVG 1.1//EN"
 "http://www.w3.org/Graphics/SVG/1.1/DTD/svg11.dtd">
<!-- Generated by graphviz version 2.42.3 ()
 -->
<!-- Title: fonts.h Pages: 1 -->
<svg width="386pt" height="204pt"
 viewBox="0.00 0.00 385.50 204.00" xmlns="http://www.w3.org/2000/svg" xmlns:xlink="http://www.w3.org/1999/xlink">
<g id="graph0" class="graph" transform="scale(1 1) rotate(0) translate(4 200)">
<title>fonts.h</title>
<polygon fill="white" stroke="transparent" points="-4,4 -4,-200 381.5,-200 381.5,4 -4,4"/>
<!-- Node1 -->
<g id="node1" class="node">
<title>Node1</title>
<g id="a_node1"><a xlink:title=" ">
<polygon fill="#bfbfbf" stroke="black" points="136,-174.5 136,-195.5 188,-195.5 188,-174.5 136,-174.5"/>
<text text-anchor="middle" x="162" y="-181.9" font-family="DejaVuSans" font-size="12.00">fonts.h</text>
</a>
</g>
</g>
<!-- Node2 -->
<g id="node2" class="node">
<title>Node2</title>
<g id="a_node2"><a xlink:href="dviout_8c.html" target="_top" xlink:title=" ">
<polygon fill="white" stroke="black" points="0,-58.5 0,-79.5 58,-79.5 58,-58.5 0,-58.5"/>
<text text-anchor="middle" x="29" y="-65.9" font-family="DejaVuSans" font-size="12.00">dviout.c</text>
</a>
</g>
</g>
<!-- Node1&#45;&gt;Node2 -->
<g id="edge1" class="edge">
<title>Node1&#45;&gt;Node2</title>
<path fill="none" stroke="midnightblue" d="M125.52,-181.18C96.16,-176.83 56.39,-165.81 35,-138 21.99,-121.09 24.31,-94.34 26.83,-79.95"/>
<polygon fill="midnightblue" stroke="midnightblue" points="125.45,-184.7 135.81,-182.5 126.34,-177.76 125.45,-184.7"/>
</g>
<!-- Node3 -->
<g id="node3" class="node">
<title>Node3</title>
<g id="a_node3"><a xlink:href="dviout_8h.html" target="_top" xlink:title=" ">
<polygon fill="white" stroke="black" points="44.5,-116.5 44.5,-137.5 103.5,-137.5 103.5,-116.5 44.5,-116.5"/>
<text text-anchor="middle" x="74" y="-123.9" font-family="DejaVuSans" font-size="12.00">dviout.h</text>
</a>
</g>
</g>
<!-- Node1&#45;&gt;Node3 -->
<g id="edge2" class="edge">
<title>Node1&#45;&gt;Node3</title>
<path fill="none" stroke="midnightblue" d="M138.07,-168.77C122.47,-158.85 102.6,-146.2 89.15,-137.64"/>
<polygon fill="midnightblue" stroke="midnightblue" points="136.36,-171.83 146.67,-174.25 140.11,-165.92 136.36,-171.83"/>
</g>
<!-- Node4 -->
<g id="node4" class="node">
<title>Node4</title>
<g id="a_node4"><a xlink:href="tex__header_8h.html" target="_top" xlink:title=" ">
<polygon fill="white" stroke="black" points="82,-58.5 82,-79.5 168,-79.5 168,-58.5 82,-58.5"/>
<text text-anchor="middle" x="125" y="-65.9" font-family="DejaVuSans" font-size="12.00">tex_header.h</text>
</a>
</g>
</g>
<!-- Node1&#45;&gt;Node4 -->
<g id="edge9" class="edge">
<title>Node1&#45;&gt;Node4</title>
<path fill="none" stroke="midnightblue" d="M155.7,-164.58C147.7,-139.96 134.23,-98.44 128.15,-79.69"/>
<polygon fill="midnightblue" stroke="midnightblue" points="152.43,-165.85 158.85,-174.28 159.09,-163.69 152.43,-165.85"/>
</g>
<!-- Node6 -->
<g id="node6" class="node">
<title>Node6</title>
<g id="a_node6"><a xlink:href="expand_8c.html" target="_top" xlink:title=" ">
<polygon fill="white" stroke="black" points="160.5,-116.5 160.5,-137.5 225.5,-137.5 225.5,-116.5 160.5,-116.5"/>
<text text-anchor="middle" x="193" y="-123.9" font-family="DejaVuSans" font-size="12.00">expand.c</text>
</a>
</g>
</g>
<!-- Node1&#45;&gt;Node6 -->
<g id="edge6" class="edge">
<title>Node1&#45;&gt;Node6</title>
<path fill="none" stroke="midnightblue" d="M172.33,-165.34C177.47,-156.06 183.46,-145.24 187.66,-137.64"/>
<polygon fill="midnightblue" stroke="midnightblue" points="169.18,-163.8 167.4,-174.25 175.31,-167.19 169.18,-163.8"/>
</g>
<!-- Node7 -->
<g id="node7" class="node">
<title>Node7</title>
<g id="a_node7"><a xlink:href="fonts_8c.html" target="_top" xlink:title=" ">
<polygon fill="white" stroke="black" points="243.5,-116.5 243.5,-137.5 294.5,-137.5 294.5,-116.5 243.5,-116.5"/>
<text text-anchor="middle" x="269" y="-123.9" font-family="DejaVuSans" font-size="12.00">fonts.c</text>
</a>
</g>
</g>
<!-- Node1&#45;&gt;Node7 -->
<g id="edge7" class="edge">
<title>Node1&#45;&gt;Node7</title>
<path fill="none" stroke="midnightblue" d="M189.52,-169.6C208.7,-159.56 233.77,-146.44 250.58,-137.64"/>
<polygon fill="midnightblue" stroke="midnightblue" points="187.87,-166.51 180.64,-174.25 191.12,-172.71 187.87,-166.51"/>
</g>
<!-- Node8 -->
<g id="node8" class="node">
<title>Node8</title>
<g id="a_node8"><a xlink:href="printout_8c.html" target="_top" xlink:title=" ">
<polygon fill="white" stroke="black" points="312.5,-116.5 312.5,-137.5 377.5,-137.5 377.5,-116.5 312.5,-116.5"/>
<text text-anchor="middle" x="345" y="-123.9" font-family="DejaVuSans" font-size="12.00">printout.c</text>
</a>
</g>
</g>
<!-- Node1&#45;&gt;Node8 -->
<g id="edge8" class="edge">
<title>Node1&#45;&gt;Node8</title>
<path fill="none" stroke="midnightblue" d="M198.15,-172.94C231.95,-162.59 281.88,-147.31 313.93,-137.51"/>
<polygon fill="midnightblue" stroke="midnightblue" points="196.76,-169.7 188.22,-175.98 198.81,-176.4 196.76,-169.7"/>
</g>
<!-- Node3&#45;&gt;Node2 -->
<g id="edge3" class="edge">
<title>Node3&#45;&gt;Node2</title>
<path fill="none" stroke="midnightblue" d="M59.71,-108.21C52.1,-98.75 43.05,-87.48 36.75,-79.64"/>
<polygon fill="midnightblue" stroke="midnightblue" points="57.17,-110.64 66.16,-116.25 62.63,-106.26 57.17,-110.64"/>
</g>
<!-- Node3&#45;&gt;Node4 -->
<g id="edge4" class="edge">
<title>Node3&#45;&gt;Node4</title>
<path fill="none" stroke="midnightblue" d="M89.67,-108.79C98.4,-99.21 108.94,-87.64 116.22,-79.64"/>
<polygon fill="midnightblue" stroke="midnightblue" points="87.03,-106.5 82.88,-116.25 92.2,-111.21 87.03,-106.5"/>
</g>
<!-- Node5 -->
<g id="node5" class="node">
<title>Node5</title>
<g id="a_node5"><a xlink:href="tex_8c.html" target="_top" xlink:title=" ">
<polygon fill="white" stroke="black" points="104.5,-0.5 104.5,-21.5 145.5,-21.5 145.5,-0.5 104.5,-0.5"/>
<text text-anchor="middle" x="125" y="-7.9" font-family="DejaVuSans" font-size="12.00">tex.c</text>
</a>
</g>
</g>
<!-- Node4&#45;&gt;Node5 -->
<g id="edge5" class="edge">
<title>Node4&#45;&gt;Node5</title>
<path fill="none" stroke="midnightblue" d="M125,-48.16C125,-39.16 125,-28.92 125,-21.64"/>
<polygon fill="midnightblue" stroke="midnightblue" points="121.5,-48.25 125,-58.25 128.5,-48.25 121.5,-48.25"/>
</g>
</g>
</svg>
