<?xml version="1.0" encoding="UTF-8" standalone="no"?>
<!DOCTYPE svg PUBLIC "-//W3C//DTD SVG 1.1//EN"
 "http://www.w3.org/Graphics/SVG/1.1/DTD/svg11.dtd">
<!-- Generated by graphviz version 2.44.0 ()
 -->
<!-- Title: fonts.c Pages: 1 -->
<svg width="863pt" height="378pt"
 viewBox="0.00 0.00 862.50 378.00" xmlns="http://www.w3.org/2000/svg" xmlns:xlink="http://www.w3.org/1999/xlink">
<g id="graph0" class="graph" transform="scale(1 1) rotate(0) translate(4 374)">
<title>fonts.c</title>
<polygon fill="white" stroke="transparent" points="-4,4 -4,-374 858.5,-374 858.5,4 -4,4"/>
<!-- Node1 -->
<g id="node1" class="node">
<title>Node1</title>
<g id="a_node1"><a xlink:title=" ">
<polygon fill="#bfbfbf" stroke="black" points="364,-348.5 364,-369.5 415,-369.5 415,-348.5 364,-348.5"/>
<text text-anchor="middle" x="389.5" y="-355.9" font-family="DejaVuSans" font-size="12.00">fonts.c</text>
</a>
</g>
</g>
<!-- Node2 -->
<g id="node2" class="node">
<title>Node2</title>
<g id="a_node2"><a xlink:title=" ">
<polygon fill="white" stroke="#bfbfbf" points="243.5,-116.5 243.5,-137.5 295.5,-137.5 295.5,-116.5 243.5,-116.5"/>
<text text-anchor="middle" x="269.5" y="-123.9" font-family="DejaVuSans" font-size="12.00">stdio.h</text>
</a>
</g>
</g>
<!-- Node1&#45;&gt;Node2 -->
<g id="edge1" class="edge">
<title>Node1&#45;&gt;Node2</title>
<path fill="none" stroke="midnightblue" d="M363.86,-357.94C299.91,-357.18 136.06,-351.36 102.5,-312 47.11,-247.03 177.18,-172.54 239.05,-142.09"/>
<polygon fill="midnightblue" stroke="midnightblue" points="240.88,-145.09 248.36,-137.58 237.83,-138.79 240.88,-145.09"/>
</g>
<!-- Node3 -->
<g id="node3" class="node">
<title>Node3</title>
<g id="a_node3"><a xlink:href="tex_8h.html" target="_top" xlink:title=" ">
<polygon fill="white" stroke="black" points="567.5,-116.5 567.5,-137.5 609.5,-137.5 609.5,-116.5 567.5,-116.5"/>
<text text-anchor="middle" x="588.5" y="-123.9" font-family="DejaVuSans" font-size="12.00">tex.h</text>
</a>
</g>
</g>
<!-- Node1&#45;&gt;Node3 -->
<g id="edge2" class="edge">
<title>Node1&#45;&gt;Node3</title>
<path fill="none" stroke="midnightblue" d="M415.16,-356.34C466.37,-352.43 578.33,-340.73 601.5,-312 621.52,-287.17 602.51,-189.57 593.09,-147.49"/>
<polygon fill="midnightblue" stroke="midnightblue" points="596.48,-146.59 590.83,-137.63 589.66,-148.16 596.48,-146.59"/>
</g>
<!-- Node8 -->
<g id="node8" class="node">
<title>Node8</title>
<g id="a_node8"><a xlink:href="macros_8h.html" target="_top" xlink:title=" ">
<polygon fill="white" stroke="black" points="112,-290.5 112,-311.5 177,-311.5 177,-290.5 112,-290.5"/>
<text text-anchor="middle" x="144.5" y="-297.9" font-family="DejaVuSans" font-size="12.00">macros.h</text>
</a>
</g>
</g>
<!-- Node1&#45;&gt;Node8 -->
<g id="edge7" class="edge">
<title>Node1&#45;&gt;Node8</title>
<path fill="none" stroke="midnightblue" d="M363.74,-352.11C321.79,-342.52 238.28,-323.43 187.3,-311.78"/>
<polygon fill="midnightblue" stroke="midnightblue" points="187.78,-308.3 177.25,-309.49 186.22,-315.13 187.78,-308.3"/>
</g>
<!-- Node9 -->
<g id="node9" class="node">
<title>Node9</title>
<g id="a_node9"><a xlink:href="str_8h.html" target="_top" xlink:title=" ">
<polygon fill="white" stroke="black" points="463,-232.5 463,-253.5 502,-253.5 502,-232.5 463,-232.5"/>
<text text-anchor="middle" x="482.5" y="-239.9" font-family="DejaVuSans" font-size="12.00">str.h</text>
</a>
</g>
</g>
<!-- Node1&#45;&gt;Node9 -->
<g id="edge8" class="edge">
<title>Node1&#45;&gt;Node9</title>
<path fill="none" stroke="midnightblue" d="M397.43,-348.28C413.08,-329.1 448.14,-286.12 468.02,-261.75"/>
<polygon fill="midnightblue" stroke="midnightblue" points="470.98,-263.66 474.59,-253.69 465.56,-259.23 470.98,-263.66"/>
</g>
<!-- Node12 -->
<g id="node12" class="node">
<title>Node12</title>
<g id="a_node12"><a xlink:href="funcs_8h.html" target="_top" xlink:title=" ">
<polygon fill="white" stroke="black" points="0,-174.5 0,-195.5 55,-195.5 55,-174.5 0,-174.5"/>
<text text-anchor="middle" x="27.5" y="-181.9" font-family="DejaVuSans" font-size="12.00">funcs.h</text>
</a>
</g>
</g>
<!-- Node1&#45;&gt;Node12 -->
<g id="edge15" class="edge">
<title>Node1&#45;&gt;Node12</title>
<path fill="none" stroke="midnightblue" d="M363.72,-357.68C295.79,-356.33 114.08,-349.24 69.5,-312 37.77,-285.5 29.88,-234.31 28.01,-206.02"/>
<polygon fill="midnightblue" stroke="midnightblue" points="31.49,-205.58 27.53,-195.75 24.5,-205.9 31.49,-205.58"/>
</g>
<!-- Node13 -->
<g id="node13" class="node">
<title>Node13</title>
<g id="a_node13"><a xlink:href="error_8h.html" target="_top" xlink:title=" ">
<polygon fill="white" stroke="black" points="310,-290.5 310,-311.5 361,-311.5 361,-290.5 310,-290.5"/>
<text text-anchor="middle" x="335.5" y="-297.9" font-family="DejaVuSans" font-size="12.00">error.h</text>
</a>
</g>
</g>
<!-- Node1&#45;&gt;Node13 -->
<g id="edge17" class="edge">
<title>Node1&#45;&gt;Node13</title>
<path fill="none" stroke="midnightblue" d="M380.09,-348.25C372.35,-340.22 361.19,-328.64 351.97,-319.08"/>
<polygon fill="midnightblue" stroke="midnightblue" points="354.26,-316.41 344.8,-311.64 349.22,-321.27 354.26,-316.41"/>
</g>
<!-- Node14 -->
<g id="node14" class="node">
<title>Node14</title>
<g id="a_node14"><a xlink:href="lexer_8h.html" target="_top" xlink:title=" ">
<polygon fill="white" stroke="black" points="216.5,-174.5 216.5,-195.5 268.5,-195.5 268.5,-174.5 216.5,-174.5"/>
<text text-anchor="middle" x="242.5" y="-181.9" font-family="DejaVuSans" font-size="12.00">lexer.h</text>
</a>
</g>
</g>
<!-- Node1&#45;&gt;Node14 -->
<g id="edge18" class="edge">
<title>Node1&#45;&gt;Node14</title>
<path fill="none" stroke="midnightblue" d="M363.67,-354.6C321.61,-348.48 241.32,-334.14 224.5,-312 200.56,-280.48 218.93,-231.38 232.13,-204.74"/>
<polygon fill="midnightblue" stroke="midnightblue" points="235.32,-206.19 236.83,-195.71 229.11,-202.96 235.32,-206.19"/>
</g>
<!-- Node15 -->
<g id="node15" class="node">
<title>Node15</title>
<g id="a_node15"><a xlink:href="global_8h.html" target="_top" xlink:title=" ">
<polygon fill="white" stroke="black" points="233.5,-290.5 233.5,-311.5 291.5,-311.5 291.5,-290.5 233.5,-290.5"/>
<text text-anchor="middle" x="262.5" y="-297.9" font-family="DejaVuSans" font-size="12.00">global.h</text>
</a>
</g>
</g>
<!-- Node1&#45;&gt;Node15 -->
<g id="edge21" class="edge">
<title>Node1&#45;&gt;Node15</title>
<path fill="none" stroke="midnightblue" d="M367.67,-348.37C347.19,-339.34 316.36,-325.75 293.37,-315.61"/>
<polygon fill="midnightblue" stroke="midnightblue" points="294.61,-312.33 284.05,-311.5 291.79,-318.74 294.61,-312.33"/>
</g>
<!-- Node18 -->
<g id="node18" class="node">
<title>Node18</title>
<g id="a_node18"><a xlink:href="fonts_8h.html" target="_top" xlink:title=" ">
<polygon fill="white" stroke="black" points="383.5,-232.5 383.5,-253.5 435.5,-253.5 435.5,-232.5 383.5,-232.5"/>
<text text-anchor="middle" x="409.5" y="-239.9" font-family="DejaVuSans" font-size="12.00">fonts.h</text>
</a>
</g>
</g>
<!-- Node1&#45;&gt;Node18 -->
<g id="edge26" class="edge">
<title>Node1&#45;&gt;Node18</title>
<path fill="none" stroke="midnightblue" d="M391.21,-348.28C394.48,-329.6 401.72,-288.37 406.04,-263.72"/>
<polygon fill="midnightblue" stroke="midnightblue" points="409.52,-264.15 407.8,-253.69 402.62,-262.94 409.52,-264.15"/>
</g>
<!-- Node19 -->
<g id="node19" class="node">
<title>Node19</title>
<g id="a_node19"><a xlink:href="texfunc_8h.html" target="_top" xlink:title=" ">
<polygon fill="white" stroke="black" points="527,-290.5 527,-311.5 592,-311.5 592,-290.5 527,-290.5"/>
<text text-anchor="middle" x="559.5" y="-297.9" font-family="DejaVuSans" font-size="12.00">texfunc.h</text>
</a>
</g>
</g>
<!-- Node1&#45;&gt;Node19 -->
<g id="edge29" class="edge">
<title>Node1&#45;&gt;Node19</title>
<path fill="none" stroke="midnightblue" d="M415.32,-349.49C443.43,-340.23 488.7,-325.32 521.01,-314.68"/>
<polygon fill="midnightblue" stroke="midnightblue" points="522.18,-317.98 530.59,-311.52 519.99,-311.33 522.18,-317.98"/>
</g>
<!-- Node20 -->
<g id="node20" class="node">
<title>Node20</title>
<g id="a_node20"><a xlink:href="texmath_8h.html" target="_top" xlink:title=" ">
<polygon fill="white" stroke="black" points="786.5,-174.5 786.5,-195.5 854.5,-195.5 854.5,-174.5 786.5,-174.5"/>
<text text-anchor="middle" x="820.5" y="-181.9" font-family="DejaVuSans" font-size="12.00">texmath.h</text>
</a>
</g>
</g>
<!-- Node1&#45;&gt;Node20 -->
<g id="edge31" class="edge">
<title>Node1&#45;&gt;Node20</title>
<path fill="none" stroke="midnightblue" d="M415.19,-356.2C481.24,-351.27 655.42,-336.27 707.5,-312 756.79,-289.03 793.87,-233.42 810.64,-204.36"/>
<polygon fill="midnightblue" stroke="midnightblue" points="813.7,-206.05 815.53,-195.62 807.59,-202.63 813.7,-206.05"/>
</g>
<!-- Node21 -->
<g id="node21" class="node">
<title>Node21</title>
<g id="a_node21"><a xlink:href="hash_8h.html" target="_top" xlink:title=" ">
<polygon fill="white" stroke="black" points="456,-290.5 456,-311.5 509,-311.5 509,-290.5 456,-290.5"/>
<text text-anchor="middle" x="482.5" y="-297.9" font-family="DejaVuSans" font-size="12.00">hash.h</text>
</a>
</g>
</g>
<!-- Node1&#45;&gt;Node21 -->
<g id="edge33" class="edge">
<title>Node1&#45;&gt;Node21</title>
<path fill="none" stroke="midnightblue" d="M405.7,-348.25C420.1,-339.57 441.37,-326.76 457.88,-316.82"/>
<polygon fill="midnightblue" stroke="midnightblue" points="459.72,-319.8 466.49,-311.64 456.11,-313.8 459.72,-319.8"/>
</g>
<!-- Node22 -->
<g id="node22" class="node">
<title>Node22</title>
<g id="a_node22"><a xlink:href="print_8h.html" target="_top" xlink:title=" ">
<polygon fill="white" stroke="black" points="648.5,-290.5 648.5,-311.5 698.5,-311.5 698.5,-290.5 648.5,-290.5"/>
<text text-anchor="middle" x="673.5" y="-297.9" font-family="DejaVuSans" font-size="12.00">print.h</text>
</a>
</g>
</g>
<!-- Node1&#45;&gt;Node22 -->
<g id="edge37" class="edge">
<title>Node1&#45;&gt;Node22</title>
<path fill="none" stroke="midnightblue" d="M415.01,-353.78C459.67,-346.26 554.86,-329.67 634.5,-312 635.77,-311.72 637.05,-311.43 638.35,-311.12"/>
<polygon fill="midnightblue" stroke="midnightblue" points="639.49,-314.45 648.38,-308.7 637.84,-307.65 639.49,-314.45"/>
</g>
<!-- Node4 -->
<g id="node4" class="node">
<title>Node4</title>
<g id="a_node4"><a xlink:href="tex__types_8h.html" target="_top" xlink:title=" ">
<polygon fill="white" stroke="black" points="644,-58.5 644,-79.5 721,-79.5 721,-58.5 644,-58.5"/>
<text text-anchor="middle" x="682.5" y="-65.9" font-family="DejaVuSans" font-size="12.00">tex_types.h</text>
</a>
</g>
</g>
<!-- Node3&#45;&gt;Node4 -->
<g id="edge3" class="edge">
<title>Node3&#45;&gt;Node4</title>
<path fill="none" stroke="midnightblue" d="M604.87,-116.25C619.43,-107.57 640.93,-94.76 657.62,-84.82"/>
<polygon fill="midnightblue" stroke="midnightblue" points="659.51,-87.77 666.31,-79.64 655.93,-81.75 659.51,-87.77"/>
</g>
<!-- Node7 -->
<g id="node7" class="node">
<title>Node7</title>
<g id="a_node7"><a xlink:href="tex__constant_8h.html" target="_top" xlink:title=" ">
<polygon fill="white" stroke="black" points="531.5,-58.5 531.5,-79.5 625.5,-79.5 625.5,-58.5 531.5,-58.5"/>
<text text-anchor="middle" x="578.5" y="-65.9" font-family="DejaVuSans" font-size="12.00">tex_constant.h</text>
</a>
</g>
</g>
<!-- Node3&#45;&gt;Node7 -->
<g id="edge6" class="edge">
<title>Node3&#45;&gt;Node7</title>
<path fill="none" stroke="midnightblue" d="M586.76,-116.25C585.45,-108.94 583.62,-98.69 582.02,-89.7"/>
<polygon fill="midnightblue" stroke="midnightblue" points="585.43,-88.87 580.22,-79.64 578.53,-90.1 585.43,-88.87"/>
</g>
<!-- Node5 -->
<g id="node5" class="node">
<title>Node5</title>
<g id="a_node5"><a xlink:title=" ">
<polygon fill="white" stroke="#bfbfbf" points="650,-0.5 650,-21.5 715,-21.5 715,-0.5 650,-0.5"/>
<text text-anchor="middle" x="682.5" y="-7.9" font-family="DejaVuSans" font-size="12.00">stdbool.h</text>
</a>
</g>
</g>
<!-- Node4&#45;&gt;Node5 -->
<g id="edge4" class="edge">
<title>Node4&#45;&gt;Node5</title>
<path fill="none" stroke="midnightblue" d="M682.5,-58.25C682.5,-50.94 682.5,-40.69 682.5,-31.7"/>
<polygon fill="midnightblue" stroke="midnightblue" points="686,-31.64 682.5,-21.64 679,-31.64 686,-31.64"/>
</g>
<!-- Node6 -->
<g id="node6" class="node">
<title>Node6</title>
<g id="a_node6"><a xlink:title=" ">
<polygon fill="white" stroke="#bfbfbf" points="527,-0.5 527,-21.5 582,-21.5 582,-0.5 527,-0.5"/>
<text text-anchor="middle" x="554.5" y="-7.9" font-family="DejaVuSans" font-size="12.00">stdint.h</text>
</a>
</g>
</g>
<!-- Node4&#45;&gt;Node6 -->
<g id="edge5" class="edge">
<title>Node4&#45;&gt;Node6</title>
<path fill="none" stroke="midnightblue" d="M660.5,-58.37C639.86,-49.34 608.78,-35.75 585.61,-25.61"/>
<polygon fill="midnightblue" stroke="midnightblue" points="586.78,-22.3 576.22,-21.5 583.98,-28.72 586.78,-22.3"/>
</g>
<!-- Node9&#45;&gt;Node2 -->
<g id="edge9" class="edge">
<title>Node9&#45;&gt;Node2</title>
<path fill="none" stroke="midnightblue" d="M463,-237.16C437.14,-230.26 390.57,-216.17 354.5,-196 328.94,-181.71 303.17,-159.8 286.82,-144.73"/>
<polygon fill="midnightblue" stroke="midnightblue" points="288.86,-141.85 279.18,-137.55 284.07,-146.95 288.86,-141.85"/>
</g>
<!-- Node9&#45;&gt;Node4 -->
<g id="edge14" class="edge">
<title>Node9&#45;&gt;Node4</title>
<path fill="none" stroke="midnightblue" d="M485.79,-232.29C494.17,-208.92 518.56,-149.08 558.5,-116 571.31,-105.4 609.31,-92.07 639.9,-82.49"/>
<polygon fill="midnightblue" stroke="midnightblue" points="641.01,-85.81 649.53,-79.52 638.94,-79.12 641.01,-85.81"/>
</g>
<!-- Node9&#45;&gt;Node6 -->
<g id="edge10" class="edge">
<title>Node9&#45;&gt;Node6</title>
<path fill="none" stroke="midnightblue" d="M483.25,-232.41C485.73,-204.43 495.08,-120.93 522.5,-58 526.89,-47.91 533.65,-37.76 539.83,-29.57"/>
<polygon fill="midnightblue" stroke="midnightblue" points="542.71,-31.57 546.16,-21.55 537.22,-27.23 542.71,-31.57"/>
</g>
<!-- Node10 -->
<g id="node10" class="node">
<title>Node10</title>
<g id="a_node10"><a xlink:href="global__const_8h.html" target="_top" xlink:title=" ">
<polygon fill="white" stroke="black" points="363,-174.5 363,-195.5 456,-195.5 456,-174.5 363,-174.5"/>
<text text-anchor="middle" x="409.5" y="-181.9" font-family="DejaVuSans" font-size="12.00">global_const.h</text>
</a>
</g>
</g>
<!-- Node9&#45;&gt;Node10 -->
<g id="edge11" class="edge">
<title>Node9&#45;&gt;Node10</title>
<path fill="none" stroke="midnightblue" d="M469.78,-232.25C458.9,-223.89 443.01,-211.71 430.28,-201.94"/>
<polygon fill="midnightblue" stroke="midnightblue" points="432.13,-198.95 422.07,-195.64 427.87,-204.51 432.13,-198.95"/>
</g>
<!-- Node10&#45;&gt;Node2 -->
<g id="edge13" class="edge">
<title>Node10&#45;&gt;Node2</title>
<path fill="none" stroke="midnightblue" d="M385.43,-174.37C362.66,-165.26 328.27,-151.51 302.85,-141.34"/>
<polygon fill="midnightblue" stroke="midnightblue" points="303.84,-137.97 293.25,-137.5 301.24,-144.46 303.84,-137.97"/>
</g>
<!-- Node11 -->
<g id="node11" class="node">
<title>Node11</title>
<g id="a_node11"><a xlink:title=" ">
<polygon fill="white" stroke="#bfbfbf" points="380,-116.5 380,-137.5 439,-137.5 439,-116.5 380,-116.5"/>
<text text-anchor="middle" x="409.5" y="-123.9" font-family="DejaVuSans" font-size="12.00">assert.h</text>
</a>
</g>
</g>
<!-- Node10&#45;&gt;Node11 -->
<g id="edge12" class="edge">
<title>Node10&#45;&gt;Node11</title>
<path fill="none" stroke="midnightblue" d="M409.5,-174.25C409.5,-166.94 409.5,-156.69 409.5,-147.7"/>
<polygon fill="midnightblue" stroke="midnightblue" points="413,-147.64 409.5,-137.64 406,-147.64 413,-147.64"/>
</g>
<!-- Node12&#45;&gt;Node2 -->
<g id="edge16" class="edge">
<title>Node12&#45;&gt;Node2</title>
<path fill="none" stroke="midnightblue" d="M55.06,-177.41C59.87,-176.26 64.83,-175.09 69.5,-174 126.78,-160.59 193.38,-145.34 233.44,-136.21"/>
<polygon fill="midnightblue" stroke="midnightblue" points="234.31,-139.6 243.28,-133.96 232.75,-132.77 234.31,-139.6"/>
</g>
<!-- Node14&#45;&gt;Node2 -->
<g id="edge19" class="edge">
<title>Node14&#45;&gt;Node2</title>
<path fill="none" stroke="midnightblue" d="M247.2,-174.25C250.84,-166.7 255.99,-156.02 260.43,-146.82"/>
<polygon fill="midnightblue" stroke="midnightblue" points="263.66,-148.17 264.85,-137.64 257.36,-145.13 263.66,-148.17"/>
</g>
<!-- Node14&#45;&gt;Node3 -->
<g id="edge20" class="edge">
<title>Node14&#45;&gt;Node3</title>
<path fill="none" stroke="midnightblue" d="M268.51,-179.79C331.01,-169.67 489.5,-144.02 557.13,-133.08"/>
<polygon fill="midnightblue" stroke="midnightblue" points="557.87,-136.5 567.18,-131.45 556.75,-129.59 557.87,-136.5"/>
</g>
<!-- Node15&#45;&gt;Node9 -->
<g id="edge23" class="edge">
<title>Node15&#45;&gt;Node9</title>
<path fill="none" stroke="midnightblue" d="M291.54,-292.32C294.56,-291.53 297.59,-290.75 300.5,-290 364.4,-273.61 380.6,-270.39 444.5,-254 447.29,-253.28 450.19,-252.53 453.09,-251.78"/>
<polygon fill="midnightblue" stroke="midnightblue" points="454,-255.16 462.79,-249.24 452.23,-248.39 454,-255.16"/>
</g>
<!-- Node16 -->
<g id="node16" class="node">
<title>Node16</title>
<g id="a_node16"><a xlink:title=" ">
<polygon fill="white" stroke="#bfbfbf" points="303.5,-232.5 303.5,-253.5 365.5,-253.5 365.5,-232.5 303.5,-232.5"/>
<text text-anchor="middle" x="334.5" y="-239.9" font-family="DejaVuSans" font-size="12.00">setjmp.h</text>
</a>
</g>
</g>
<!-- Node15&#45;&gt;Node16 -->
<g id="edge22" class="edge">
<title>Node15&#45;&gt;Node16</title>
<path fill="none" stroke="midnightblue" d="M275.04,-290.25C285.78,-281.89 301.45,-269.71 314,-259.94"/>
<polygon fill="midnightblue" stroke="midnightblue" points="316.36,-262.54 322.1,-253.64 312.06,-257.02 316.36,-262.54"/>
</g>
<!-- Node17 -->
<g id="node17" class="node">
<title>Node17</title>
<g id="a_node17"><a xlink:href="scan_8h.html" target="_top" xlink:title=" ">
<polygon fill="white" stroke="black" points="233.5,-232.5 233.5,-253.5 285.5,-253.5 285.5,-232.5 233.5,-232.5"/>
<text text-anchor="middle" x="259.5" y="-239.9" font-family="DejaVuSans" font-size="12.00">scan.h</text>
</a>
</g>
</g>
<!-- Node15&#45;&gt;Node17 -->
<g id="edge24" class="edge">
<title>Node15&#45;&gt;Node17</title>
<path fill="none" stroke="midnightblue" d="M261.98,-290.25C261.59,-282.94 261.04,-272.69 260.56,-263.7"/>
<polygon fill="midnightblue" stroke="midnightblue" points="264.05,-263.44 260.02,-253.64 257.06,-263.82 264.05,-263.44"/>
</g>
<!-- Node17&#45;&gt;Node14 -->
<g id="edge25" class="edge">
<title>Node17&#45;&gt;Node14</title>
<path fill="none" stroke="midnightblue" d="M256.54,-232.25C254.3,-224.86 251.14,-214.47 248.39,-205.41"/>
<polygon fill="midnightblue" stroke="midnightblue" points="251.68,-204.19 245.43,-195.64 244.98,-206.23 251.68,-204.19"/>
</g>
<!-- Node18&#45;&gt;Node2 -->
<g id="edge27" class="edge">
<title>Node18&#45;&gt;Node2</title>
<path fill="none" stroke="midnightblue" d="M383.89,-232.41C365.03,-224.54 339.49,-212.06 320.5,-196 303.86,-181.93 289.45,-161.47 280.23,-146.67"/>
<polygon fill="midnightblue" stroke="midnightblue" points="283.11,-144.65 274.95,-137.88 277.11,-148.26 283.11,-144.65"/>
</g>
<!-- Node18&#45;&gt;Node10 -->
<g id="edge28" class="edge">
<title>Node18&#45;&gt;Node10</title>
<path fill="none" stroke="midnightblue" d="M409.5,-232.25C409.5,-224.94 409.5,-214.69 409.5,-205.7"/>
<polygon fill="midnightblue" stroke="midnightblue" points="413,-205.64 409.5,-195.64 406,-205.64 413,-205.64"/>
</g>
<!-- Node19&#45;&gt;Node9 -->
<g id="edge30" class="edge">
<title>Node19&#45;&gt;Node9</title>
<path fill="none" stroke="midnightblue" d="M546.09,-290.25C534.49,-281.81 517.53,-269.47 504.03,-259.66"/>
<polygon fill="midnightblue" stroke="midnightblue" points="505.9,-256.69 495.76,-253.64 501.79,-262.36 505.9,-256.69"/>
</g>
<!-- Node20&#45;&gt;Node4 -->
<g id="edge32" class="edge">
<title>Node20&#45;&gt;Node4</title>
<path fill="none" stroke="midnightblue" d="M815.52,-174.08C807.9,-159.74 792.15,-133.04 772.5,-116 756.62,-102.23 735.89,-91.27 718.33,-83.51"/>
<polygon fill="midnightblue" stroke="midnightblue" points="719.52,-80.21 708.95,-79.53 716.78,-86.66 719.52,-80.21"/>
</g>
<!-- Node21&#45;&gt;Node3 -->
<g id="edge34" class="edge">
<title>Node21&#45;&gt;Node3</title>
<path fill="none" stroke="midnightblue" d="M488.76,-290.15C494.66,-280.86 503.73,-266.51 511.5,-254 535.25,-215.73 562.67,-170.65 577.53,-146.13"/>
<polygon fill="midnightblue" stroke="midnightblue" points="580.56,-147.88 582.75,-137.51 574.58,-144.25 580.56,-147.88"/>
</g>
<!-- Node21&#45;&gt;Node9 -->
<g id="edge35" class="edge">
<title>Node21&#45;&gt;Node9</title>
<path fill="none" stroke="midnightblue" d="M482.5,-290.25C482.5,-282.94 482.5,-272.69 482.5,-263.7"/>
<polygon fill="midnightblue" stroke="midnightblue" points="486,-263.64 482.5,-253.64 479,-263.64 486,-263.64"/>
</g>
<!-- Node21&#45;&gt;Node18 -->
<g id="edge36" class="edge">
<title>Node21&#45;&gt;Node18</title>
<path fill="none" stroke="midnightblue" d="M469.78,-290.25C458.9,-281.89 443.01,-269.71 430.28,-259.94"/>
<polygon fill="midnightblue" stroke="midnightblue" points="432.13,-256.95 422.07,-253.64 427.87,-262.51 432.13,-256.95"/>
</g>
<!-- Node22&#45;&gt;Node3 -->
<g id="edge39" class="edge">
<title>Node22&#45;&gt;Node3</title>
<path fill="none" stroke="midnightblue" d="M669.01,-290.47C659.03,-269.38 634.23,-217.21 612.5,-174 607.96,-164.98 602.8,-155.03 598.42,-146.71"/>
<polygon fill="midnightblue" stroke="midnightblue" points="601.5,-145.04 593.74,-137.83 595.31,-148.3 601.5,-145.04"/>
</g>
<!-- Node22&#45;&gt;Node4 -->
<g id="edge38" class="edge">
<title>Node22&#45;&gt;Node4</title>
<path fill="none" stroke="midnightblue" d="M697.29,-290.42C712.37,-282.94 730.65,-270.96 739.5,-254 769.33,-196.85 721.91,-121.43 696.67,-87.67"/>
<polygon fill="midnightblue" stroke="midnightblue" points="699.38,-85.45 690.51,-79.66 693.83,-89.72 699.38,-85.45"/>
</g>
<!-- Node22&#45;&gt;Node9 -->
<g id="edge41" class="edge">
<title>Node22&#45;&gt;Node9</title>
<path fill="none" stroke="midnightblue" d="M648.14,-292.56C612.89,-282.23 549.23,-263.57 511.94,-252.63"/>
<polygon fill="midnightblue" stroke="midnightblue" points="512.74,-249.22 502.16,-249.76 510.77,-255.94 512.74,-249.22"/>
</g>
<!-- Node23 -->
<g id="node23" class="node">
<title>Node23</title>
<g id="a_node23"><a xlink:href="texmac_8h.html" target="_top" xlink:title=" ">
<polygon fill="white" stroke="black" points="665,-232.5 665,-253.5 730,-253.5 730,-232.5 665,-232.5"/>
<text text-anchor="middle" x="697.5" y="-239.9" font-family="DejaVuSans" font-size="12.00">texmac.h</text>
</a>
</g>
</g>
<!-- Node22&#45;&gt;Node23 -->
<g id="edge40" class="edge">
<title>Node22&#45;&gt;Node23</title>
<path fill="none" stroke="midnightblue" d="M677.68,-290.25C680.88,-282.78 685.4,-272.24 689.31,-263.11"/>
<polygon fill="midnightblue" stroke="midnightblue" points="692.65,-264.21 693.37,-253.64 686.21,-261.46 692.65,-264.21"/>
</g>
</g>
</svg>
