<?xml version="1.0" encoding="UTF-8" standalone="no"?>
<!DOCTYPE svg PUBLIC "-//W3C//DTD SVG 1.1//EN"
 "http://www.w3.org/Graphics/SVG/1.1/DTD/svg11.dtd">
<!-- Generated by graphviz version 2.44.0 ()
 -->
<!-- Title: fonts.h Pages: 1 -->
<svg width="2133pt" height="320pt"
 viewBox="0.00 0.00 2133.00 320.00" xmlns="http://www.w3.org/2000/svg" xmlns:xlink="http://www.w3.org/1999/xlink">
<g id="graph0" class="graph" transform="scale(1 1) rotate(0) translate(4 316)">
<title>fonts.h</title>
<polygon fill="white" stroke="transparent" points="-4,4 -4,-316 2129,-316 2129,4 -4,4"/>
<!-- Node1 -->
<g id="node1" class="node">
<title>Node1</title>
<g id="a_node1"><a xlink:title=" ">
<polygon fill="#bfbfbf" stroke="black" points="600.5,-290.5 600.5,-311.5 652.5,-311.5 652.5,-290.5 600.5,-290.5"/>
<text text-anchor="middle" x="626.5" y="-297.9" font-family="DejaVuSans" font-size="12.00">fonts.h</text>
</a>
</g>
</g>
<!-- Node2 -->
<g id="node2" class="node">
<title>Node2</title>
<g id="a_node2"><a xlink:href="debug_8c.html" target="_top" xlink:title=" ">
<polygon fill="white" stroke="black" points="58,-232.5 58,-253.5 117,-253.5 117,-232.5 58,-232.5"/>
<text text-anchor="middle" x="87.5" y="-239.9" font-family="DejaVuSans" font-size="12.00">debug.c</text>
</a>
</g>
</g>
<!-- Node1&#45;&gt;Node2 -->
<g id="edge1" class="edge">
<title>Node1&#45;&gt;Node2</title>
<path fill="none" stroke="midnightblue" d="M590.25,-298.26C508.17,-293.96 301.95,-281.17 131.5,-254 126.86,-253.26 121.98,-252.32 117.22,-251.31"/>
<polygon fill="midnightblue" stroke="midnightblue" points="590.15,-301.76 600.32,-298.78 590.51,-294.77 590.15,-301.76"/>
</g>
<!-- Node3 -->
<g id="node3" class="node">
<title>Node3</title>
<g id="a_node3"><a xlink:href="dviout_8c.html" target="_top" xlink:title=" ">
<polygon fill="white" stroke="black" points="221.5,-116.5 221.5,-137.5 279.5,-137.5 279.5,-116.5 221.5,-116.5"/>
<text text-anchor="middle" x="250.5" y="-123.9" font-family="DejaVuSans" font-size="12.00">dviout.c</text>
</a>
</g>
</g>
<!-- Node1&#45;&gt;Node3 -->
<g id="edge2" class="edge">
<title>Node1&#45;&gt;Node3</title>
<path fill="none" stroke="midnightblue" d="M593.23,-286.73C571.08,-277.77 541.4,-265.52 515.5,-254 422.4,-212.61 313.03,-158.99 269.63,-137.51"/>
<polygon fill="midnightblue" stroke="midnightblue" points="591.95,-289.99 602.53,-290.48 594.57,-283.49 591.95,-289.99"/>
</g>
<!-- Node4 -->
<g id="node4" class="node">
<title>Node4</title>
<g id="a_node4"><a xlink:href="dviout_8h.html" target="_top" xlink:title=" ">
<polygon fill="white" stroke="black" points="174,-174.5 174,-195.5 233,-195.5 233,-174.5 174,-174.5"/>
<text text-anchor="middle" x="203.5" y="-181.9" font-family="DejaVuSans" font-size="12.00">dviout.h</text>
</a>
</g>
</g>
<!-- Node1&#45;&gt;Node4 -->
<g id="edge3" class="edge">
<title>Node1&#45;&gt;Node4</title>
<path fill="none" stroke="midnightblue" d="M590.34,-298.61C532.81,-295.5 417.54,-285.53 325.5,-254 283.29,-239.54 238.73,-210.74 217.01,-195.68"/>
<polygon fill="midnightblue" stroke="midnightblue" points="590.23,-302.11 600.39,-299.12 590.58,-295.12 590.23,-302.11"/>
</g>
<!-- Node7 -->
<g id="node7" class="node">
<title>Node7</title>
<g id="a_node7"><a xlink:href="main__ctrl_8h.html" target="_top" xlink:title=" ">
<polygon fill="white" stroke="black" points="868.5,-116.5 868.5,-137.5 942.5,-137.5 942.5,-116.5 868.5,-116.5"/>
<text text-anchor="middle" x="905.5" y="-123.9" font-family="DejaVuSans" font-size="12.00">main_ctrl.h</text>
</a>
</g>
</g>
<!-- Node1&#45;&gt;Node7 -->
<g id="edge60" class="edge">
<title>Node1&#45;&gt;Node7</title>
<path fill="none" stroke="midnightblue" d="M636.73,-281.33C652.91,-253.58 687.08,-201.76 730.5,-174 772.98,-146.84 830.98,-135.65 868.34,-131.09"/>
<polygon fill="midnightblue" stroke="midnightblue" points="633.49,-279.95 631.6,-290.37 639.57,-283.4 633.49,-279.95"/>
</g>
<!-- Node13 -->
<g id="node13" class="node">
<title>Node13</title>
<g id="a_node13"><a xlink:href="printout_8c.html" target="_top" xlink:title=" ">
<polygon fill="white" stroke="black" points="1588,-58.5 1588,-79.5 1653,-79.5 1653,-58.5 1588,-58.5"/>
<text text-anchor="middle" x="1620.5" y="-65.9" font-family="DejaVuSans" font-size="12.00">printout.c</text>
</a>
</g>
</g>
<!-- Node1&#45;&gt;Node13 -->
<g id="edge75" class="edge">
<title>Node1&#45;&gt;Node13</title>
<path fill="none" stroke="midnightblue" d="M662.76,-299.9C787.83,-299.2 1212.56,-293.83 1560.5,-254 1704.54,-237.51 1743.42,-240.18 1881.5,-196 1939.06,-177.58 1972.14,-189.04 2004.5,-138 2009.74,-129.74 2010.99,-123.31 2004.5,-116 1981.3,-89.85 1741.74,-75.81 1653.17,-71.48"/>
<polygon fill="midnightblue" stroke="midnightblue" points="662.58,-296.4 652.6,-299.95 662.62,-303.4 662.58,-296.4"/>
</g>
<!-- Node14 -->
<g id="node14" class="node">
<title>Node14</title>
<g id="a_node14"><a xlink:href="tex__header_8h.html" target="_top" xlink:title=" ">
<polygon fill="white" stroke="black" points="1183.5,-58.5 1183.5,-79.5 1269.5,-79.5 1269.5,-58.5 1183.5,-58.5"/>
<text text-anchor="middle" x="1226.5" y="-65.9" font-family="DejaVuSans" font-size="12.00">tex_header.h</text>
</a>
</g>
</g>
<!-- Node1&#45;&gt;Node14 -->
<g id="edge77" class="edge">
<title>Node1&#45;&gt;Node14</title>
<path fill="none" stroke="midnightblue" d="M663.06,-299.64C780.55,-298.13 1158.95,-290.56 1469.5,-254 1612.61,-237.15 1648.23,-229 1788.5,-196 1878.59,-174.81 1932.91,-212 1988.5,-138 1994.37,-130.18 1995.2,-123.12 1988.5,-116 1963.72,-89.67 1427.35,-74.8 1269.7,-70.99"/>
<polygon fill="midnightblue" stroke="midnightblue" points="662.78,-296.14 652.82,-299.76 662.87,-303.14 662.78,-296.14"/>
</g>
<!-- Node16 -->
<g id="node16" class="node">
<title>Node16</title>
<g id="a_node16"><a xlink:href="math__formula_8c.html" target="_top" xlink:title=" ">
<polygon fill="white" stroke="black" points="297.5,-116.5 297.5,-137.5 395.5,-137.5 395.5,-116.5 297.5,-116.5"/>
<text text-anchor="middle" x="346.5" y="-123.9" font-family="DejaVuSans" font-size="12.00">math_formula.c</text>
</a>
</g>
</g>
<!-- Node1&#45;&gt;Node16 -->
<g id="edge61" class="edge">
<title>Node1&#45;&gt;Node16</title>
<path fill="none" stroke="midnightblue" d="M602.04,-285.01C587.38,-276.02 568.37,-264.36 551.5,-254 480.83,-210.61 396.5,-158.75 362.19,-137.65"/>
<polygon fill="midnightblue" stroke="midnightblue" points="600.63,-288.25 610.98,-290.49 604.29,-282.28 600.63,-288.25"/>
</g>
<!-- Node17 -->
<g id="node17" class="node">
<title>Node17</title>
<g id="a_node17"><a xlink:href="scan_8c.html" target="_top" xlink:title=" ">
<polygon fill="white" stroke="black" points="0,-116.5 0,-137.5 51,-137.5 51,-116.5 0,-116.5"/>
<text text-anchor="middle" x="25.5" y="-123.9" font-family="DejaVuSans" font-size="12.00">scan.c</text>
</a>
</g>
</g>
<!-- Node1&#45;&gt;Node17 -->
<g id="edge76" class="edge">
<title>Node1&#45;&gt;Node17</title>
<path fill="none" stroke="midnightblue" d="M589.91,-299.34C524.69,-297.26 384.65,-288.75 272.5,-254 178.24,-224.79 76.55,-161.57 39.78,-137.53"/>
<polygon fill="midnightblue" stroke="midnightblue" points="589.99,-302.84 600.09,-299.63 590.19,-295.84 589.99,-302.84"/>
</g>
<!-- Node18 -->
<g id="node18" class="node">
<title>Node18</title>
<g id="a_node18"><a xlink:href="expand_8c.html" target="_top" xlink:title=" ">
<polygon fill="white" stroke="black" points="414,-116.5 414,-137.5 479,-137.5 479,-116.5 414,-116.5"/>
<text text-anchor="middle" x="446.5" y="-123.9" font-family="DejaVuSans" font-size="12.00">expand.c</text>
</a>
</g>
</g>
<!-- Node1&#45;&gt;Node18 -->
<g id="edge25" class="edge">
<title>Node1&#45;&gt;Node18</title>
<path fill="none" stroke="midnightblue" d="M608.71,-283C571.37,-247.32 485.89,-165.64 456.58,-137.63"/>
<polygon fill="midnightblue" stroke="midnightblue" points="606.66,-285.88 616.31,-290.26 611.49,-280.82 606.66,-285.88"/>
</g>
<!-- Node19 -->
<g id="node19" class="node">
<title>Node19</title>
<g id="a_node19"><a xlink:href="fonts_8c.html" target="_top" xlink:title=" ">
<polygon fill="white" stroke="black" points="497,-116.5 497,-137.5 548,-137.5 548,-116.5 497,-116.5"/>
<text text-anchor="middle" x="522.5" y="-123.9" font-family="DejaVuSans" font-size="12.00">fonts.c</text>
</a>
</g>
</g>
<!-- Node1&#45;&gt;Node19 -->
<g id="edge26" class="edge">
<title>Node1&#45;&gt;Node19</title>
<path fill="none" stroke="midnightblue" d="M615.39,-281.63C593.41,-245.27 545.05,-165.29 528.32,-137.63"/>
<polygon fill="midnightblue" stroke="midnightblue" points="612.44,-283.51 620.61,-290.26 618.43,-279.89 612.44,-283.51"/>
</g>
<!-- Node20 -->
<g id="node20" class="node">
<title>Node20</title>
<g id="a_node20"><a xlink:href="hash_8h.html" target="_top" xlink:title=" ">
<polygon fill="white" stroke="black" points="600,-174.5 600,-195.5 653,-195.5 653,-174.5 600,-174.5"/>
<text text-anchor="middle" x="626.5" y="-181.9" font-family="DejaVuSans" font-size="12.00">hash.h</text>
</a>
</g>
</g>
<!-- Node1&#45;&gt;Node20 -->
<g id="edge27" class="edge">
<title>Node1&#45;&gt;Node20</title>
<path fill="none" stroke="midnightblue" d="M626.5,-280.25C626.5,-255.58 626.5,-214.35 626.5,-195.69"/>
<polygon fill="midnightblue" stroke="midnightblue" points="623,-280.28 626.5,-290.28 630,-280.28 623,-280.28"/>
</g>
<!-- Node27 -->
<g id="node27" class="node">
<title>Node27</title>
<g id="a_node27"><a xlink:href="hyphen_8h.html" target="_top" xlink:title=" ">
<polygon fill="white" stroke="black" points="1062.5,-232.5 1062.5,-253.5 1128.5,-253.5 1128.5,-232.5 1062.5,-232.5"/>
<text text-anchor="middle" x="1095.5" y="-239.9" font-family="DejaVuSans" font-size="12.00">hyphen.h</text>
</a>
</g>
</g>
<!-- Node1&#45;&gt;Node27 -->
<g id="edge38" class="edge">
<title>Node1&#45;&gt;Node27</title>
<path fill="none" stroke="midnightblue" d="M662.82,-295.66C751.39,-285.09 977.41,-258.1 1062.46,-247.94"/>
<polygon fill="midnightblue" stroke="midnightblue" points="662.23,-292.21 652.72,-296.87 663.06,-299.16 662.23,-292.21"/>
</g>
<!-- Node38 -->
<g id="node38" class="node">
<title>Node38</title>
<g id="a_node38"><a xlink:href="mmode_8c.html" target="_top" xlink:title=" ">
<polygon fill="white" stroke="black" points="1914,-116.5 1914,-137.5 1979,-137.5 1979,-116.5 1914,-116.5"/>
<text text-anchor="middle" x="1946.5" y="-123.9" font-family="DejaVuSans" font-size="12.00">mmode.c</text>
</a>
</g>
</g>
<!-- Node1&#45;&gt;Node38 -->
<g id="edge62" class="edge">
<title>Node1&#45;&gt;Node38</title>
<path fill="none" stroke="midnightblue" d="M662.81,-299.73C802.9,-298.05 1321.05,-285.76 1735.5,-196 1804.71,-181.01 1883.43,-152.44 1922.24,-137.55"/>
<polygon fill="midnightblue" stroke="midnightblue" points="662.6,-296.24 652.64,-299.85 662.68,-303.24 662.6,-296.24"/>
</g>
<!-- Node39 -->
<g id="node39" class="node">
<title>Node39</title>
<g id="a_node39"><a xlink:href="mmode_8h.html" target="_top" xlink:title=" ">
<polygon fill="white" stroke="black" points="1598.5,-174.5 1598.5,-195.5 1664.5,-195.5 1664.5,-174.5 1598.5,-174.5"/>
<text text-anchor="middle" x="1631.5" y="-181.9" font-family="DejaVuSans" font-size="12.00">mmode.h</text>
</a>
</g>
</g>
<!-- Node1&#45;&gt;Node39 -->
<g id="edge63" class="edge">
<title>Node1&#45;&gt;Node39</title>
<path fill="none" stroke="midnightblue" d="M662.61,-297.34C746.24,-291.04 959.69,-274.23 1137.5,-254 1311.47,-234.21 1518.89,-203.25 1598.32,-191.12"/>
<polygon fill="midnightblue" stroke="midnightblue" points="662.31,-293.85 652.6,-298.09 662.84,-300.83 662.31,-293.85"/>
</g>
<!-- Node41 -->
<g id="node41" class="node">
<title>Node41</title>
<g id="a_node41"><a xlink:href="pack_8c.html" target="_top" xlink:title=" ">
<polygon fill="white" stroke="black" points="2074,-232.5 2074,-253.5 2125,-253.5 2125,-232.5 2074,-232.5"/>
<text text-anchor="middle" x="2099.5" y="-239.9" font-family="DejaVuSans" font-size="12.00">pack.c</text>
</a>
</g>
</g>
<!-- Node1&#45;&gt;Node41 -->
<g id="edge74" class="edge">
<title>Node1&#45;&gt;Node41</title>
<path fill="none" stroke="midnightblue" d="M662.98,-299.88C857.88,-299.08 1777.93,-293.26 2059.5,-254 2064.18,-253.35 2069.1,-252.37 2073.84,-251.27"/>
<polygon fill="midnightblue" stroke="midnightblue" points="662.7,-296.38 652.71,-299.92 662.73,-303.38 662.7,-296.38"/>
</g>
<!-- Node4&#45;&gt;Node3 -->
<g id="edge5" class="edge">
<title>Node4&#45;&gt;Node3</title>
<path fill="none" stroke="midnightblue" d="M218.19,-166.5C226.18,-156.98 235.76,-145.56 242.41,-137.64"/>
<polygon fill="midnightblue" stroke="midnightblue" points="215.43,-164.34 211.69,-174.25 220.8,-168.84 215.43,-164.34"/>
</g>
<!-- Node5 -->
<g id="node5" class="node">
<title>Node5</title>
<g id="a_node5"><a xlink:href="align_8c.html" target="_top" xlink:title=" ">
<polygon fill="white" stroke="black" points="1114,-58.5 1114,-79.5 1165,-79.5 1165,-58.5 1114,-58.5"/>
<text text-anchor="middle" x="1139.5" y="-65.9" font-family="DejaVuSans" font-size="12.00">align.c</text>
</a>
</g>
</g>
<!-- Node4&#45;&gt;Node5 -->
<g id="edge4" class="edge">
<title>Node4&#45;&gt;Node5</title>
<path fill="none" stroke="midnightblue" d="M188.33,-166.28C177.26,-151.16 166.3,-129.73 179.5,-116 215.19,-78.9 1054.69,-88.33 1105.5,-80 1108.17,-79.56 1110.93,-78.98 1113.66,-78.31"/>
<polygon fill="midnightblue" stroke="midnightblue" points="185.75,-168.66 194.68,-174.36 191.25,-164.33 185.75,-168.66"/>
</g>
<!-- Node6 -->
<g id="node6" class="node">
<title>Node6</title>
<g id="a_node6"><a xlink:href="extension_8c.html" target="_top" xlink:title=" ">
<polygon fill="white" stroke="black" points="547,-58.5 547,-79.5 624,-79.5 624,-58.5 547,-58.5"/>
<text text-anchor="middle" x="585.5" y="-65.9" font-family="DejaVuSans" font-size="12.00">extension.c</text>
</a>
</g>
</g>
<!-- Node4&#45;&gt;Node6 -->
<g id="edge6" class="edge">
<title>Node4&#45;&gt;Node6</title>
<path fill="none" stroke="midnightblue" d="M164.34,-173.61C127.28,-161.95 80.49,-141.31 103.5,-116 133.15,-83.38 437.79,-73.33 546.89,-70.77"/>
<polygon fill="midnightblue" stroke="midnightblue" points="163.4,-176.98 173.99,-176.52 165.42,-170.28 163.4,-176.98"/>
</g>
<!-- Node4&#45;&gt;Node7 -->
<g id="edge7" class="edge">
<title>Node4&#45;&gt;Node7</title>
<path fill="none" stroke="midnightblue" d="M243.2,-181.66C341.39,-175.72 603.49,-159.08 821.5,-138 836.85,-136.52 853.74,-134.57 868.32,-132.78"/>
<polygon fill="midnightblue" stroke="midnightblue" points="242.9,-178.17 233.13,-182.26 243.32,-185.15 242.9,-178.17"/>
</g>
<!-- Node12 -->
<g id="node12" class="node">
<title>Node12</title>
<g id="a_node12"><a xlink:href="page__builder_8c.html" target="_top" xlink:title=" ">
<polygon fill="white" stroke="black" points="1001,-58.5 1001,-79.5 1096,-79.5 1096,-58.5 1001,-58.5"/>
<text text-anchor="middle" x="1048.5" y="-65.9" font-family="DejaVuSans" font-size="12.00">page_builder.c</text>
</a>
</g>
</g>
<!-- Node4&#45;&gt;Node12 -->
<g id="edge22" class="edge">
<title>Node4&#45;&gt;Node12</title>
<path fill="none" stroke="midnightblue" d="M175.04,-169.47C151.38,-155.57 124.15,-134.1 141.5,-116 174.21,-81.88 944.51,-85.09 991.5,-80 994.6,-79.66 997.78,-79.26 1000.98,-78.82"/>
<polygon fill="midnightblue" stroke="midnightblue" points="173.41,-172.56 183.84,-174.4 176.83,-166.46 173.41,-172.56"/>
</g>
<!-- Node4&#45;&gt;Node14 -->
<g id="edge24" class="edge">
<title>Node4&#45;&gt;Node14</title>
<path fill="none" stroke="midnightblue" d="M200,-164.26C198.49,-148.75 199.46,-127.87 212.5,-116 252.06,-80 1121.36,-86.07 1174.5,-80 1177.42,-79.67 1180.43,-79.26 1183.45,-78.8"/>
<polygon fill="midnightblue" stroke="midnightblue" points="196.56,-164.96 201.39,-174.39 203.49,-164 196.56,-164.96"/>
</g>
<!-- Node4&#45;&gt;Node16 -->
<g id="edge21" class="edge">
<title>Node4&#45;&gt;Node16</title>
<path fill="none" stroke="midnightblue" d="M237.58,-170.65C263.66,-160.44 298.98,-146.61 322.24,-137.5"/>
<polygon fill="midnightblue" stroke="midnightblue" points="236.12,-167.47 228.08,-174.37 238.67,-173.99 236.12,-167.47"/>
</g>
<!-- Node4&#45;&gt;Node17 -->
<g id="edge23" class="edge">
<title>Node4&#45;&gt;Node17</title>
<path fill="none" stroke="midnightblue" d="M163.96,-171.56C129.51,-160.72 80.58,-145.33 51.06,-136.04"/>
<polygon fill="midnightblue" stroke="midnightblue" points="163.12,-174.96 173.71,-174.63 165.22,-168.29 163.12,-174.96"/>
</g>
<!-- Node7&#45;&gt;Node5 -->
<g id="edge8" class="edge">
<title>Node7&#45;&gt;Node5</title>
<path fill="none" stroke="midnightblue" d="M952.42,-116.04C993.07,-107.22 1053.39,-93.64 1105.5,-80 1108.24,-79.28 1111.09,-78.5 1113.93,-77.7"/>
<polygon fill="midnightblue" stroke="midnightblue" points="951.56,-112.65 942.52,-118.18 953.04,-119.49 951.56,-112.65"/>
</g>
<!-- Node7&#45;&gt;Node6 -->
<g id="edge13" class="edge">
<title>Node7&#45;&gt;Node6</title>
<path fill="none" stroke="midnightblue" d="M858.37,-116.7C857.07,-116.46 855.77,-116.23 854.5,-116 756.55,-98.42 731.35,-98.15 633.5,-80 630.49,-79.44 627.37,-78.84 624.24,-78.22"/>
<polygon fill="midnightblue" stroke="midnightblue" points="858.01,-120.19 868.48,-118.6 859.29,-113.31 858.01,-120.19"/>
</g>
<!-- Node8 -->
<g id="node8" class="node">
<title>Node8</title>
<g id="a_node8"><a xlink:href="build__box_8c.html" target="_top" xlink:title=" ">
<polygon fill="white" stroke="black" points="765,-58.5 765,-79.5 842,-79.5 842,-58.5 765,-58.5"/>
<text text-anchor="middle" x="803.5" y="-65.9" font-family="DejaVuSans" font-size="12.00">build_box.c</text>
</a>
</g>
</g>
<!-- Node7&#45;&gt;Node8 -->
<g id="edge9" class="edge">
<title>Node7&#45;&gt;Node8</title>
<path fill="none" stroke="midnightblue" d="M878.77,-111.32C860.55,-101.32 836.94,-88.36 821.06,-79.64"/>
<polygon fill="midnightblue" stroke="midnightblue" points="877.28,-114.5 887.73,-116.25 880.65,-108.36 877.28,-114.5"/>
</g>
<!-- Node9 -->
<g id="node9" class="node">
<title>Node9</title>
<g id="a_node9"><a xlink:href="main__ctrl_8c.html" target="_top" xlink:title=" ">
<polygon fill="white" stroke="black" points="800.5,-0.5 800.5,-21.5 874.5,-21.5 874.5,-0.5 800.5,-0.5"/>
<text text-anchor="middle" x="837.5" y="-7.9" font-family="DejaVuSans" font-size="12.00">main_ctrl.c</text>
</a>
</g>
</g>
<!-- Node7&#45;&gt;Node9 -->
<g id="edge16" class="edge">
<title>Node7&#45;&gt;Node9</title>
<path fill="none" stroke="midnightblue" d="M894.51,-107.57C879.9,-83.08 854.61,-40.69 843.28,-21.69"/>
<polygon fill="midnightblue" stroke="midnightblue" points="891.57,-109.49 899.7,-116.28 897.59,-105.9 891.57,-109.49"/>
</g>
<!-- Node10 -->
<g id="node10" class="node">
<title>Node10</title>
<g id="a_node10"><a xlink:href="build__math_8c.html" target="_top" xlink:title=" ">
<polygon fill="white" stroke="black" points="898.5,-58.5 898.5,-79.5 982.5,-79.5 982.5,-58.5 898.5,-58.5"/>
<text text-anchor="middle" x="940.5" y="-65.9" font-family="DejaVuSans" font-size="12.00">build_math.c</text>
</a>
</g>
</g>
<!-- Node7&#45;&gt;Node10 -->
<g id="edge11" class="edge">
<title>Node7&#45;&gt;Node10</title>
<path fill="none" stroke="midnightblue" d="M916.98,-107.63C922.82,-98.29 929.68,-87.32 934.47,-79.64"/>
<polygon fill="midnightblue" stroke="midnightblue" points="913.93,-105.91 911.6,-116.25 919.86,-109.62 913.93,-105.91"/>
</g>
<!-- Node11 -->
<g id="node11" class="node">
<title>Node11</title>
<g id="a_node11"><a xlink:href="indep__process_8c.html" target="_top" xlink:title=" ">
<polygon fill="white" stroke="black" points="642.5,-58.5 642.5,-79.5 746.5,-79.5 746.5,-58.5 642.5,-58.5"/>
<text text-anchor="middle" x="694.5" y="-65.9" font-family="DejaVuSans" font-size="12.00">indep_process.c</text>
</a>
</g>
</g>
<!-- Node7&#45;&gt;Node11 -->
<g id="edge14" class="edge">
<title>Node7&#45;&gt;Node11</title>
<path fill="none" stroke="midnightblue" d="M859.23,-113.72C820.43,-103.42 765.82,-88.93 730.3,-79.5"/>
<polygon fill="midnightblue" stroke="midnightblue" points="858.66,-117.19 869.23,-116.37 860.46,-110.43 858.66,-117.19"/>
</g>
<!-- Node7&#45;&gt;Node12 -->
<g id="edge17" class="edge">
<title>Node7&#45;&gt;Node12</title>
<path fill="none" stroke="midnightblue" d="M939.58,-112.65C965.66,-102.44 1000.98,-88.61 1024.24,-79.5"/>
<polygon fill="midnightblue" stroke="midnightblue" points="938.12,-109.47 930.08,-116.37 940.67,-115.99 938.12,-109.47"/>
</g>
<!-- Node7&#45;&gt;Node13 -->
<g id="edge18" class="edge">
<title>Node7&#45;&gt;Node13</title>
<path fill="none" stroke="midnightblue" d="M952.9,-119.97C964.83,-118.56 977.63,-117.14 989.5,-116 1218.29,-94.05 1494.64,-77.25 1587.95,-71.85"/>
<polygon fill="midnightblue" stroke="midnightblue" points="952.19,-116.53 942.68,-121.2 953.02,-123.48 952.19,-116.53"/>
</g>
<!-- Node7&#45;&gt;Node14 -->
<g id="edge19" class="edge">
<title>Node7&#45;&gt;Node14</title>
<path fill="none" stroke="midnightblue" d="M952.63,-116.71C953.94,-116.47 955.23,-116.23 956.5,-116 1053.14,-98.55 1077.83,-97.27 1174.5,-80 1177.4,-79.48 1180.38,-78.94 1183.39,-78.38"/>
<polygon fill="midnightblue" stroke="midnightblue" points="951.7,-113.32 942.52,-118.61 953,-120.2 951.7,-113.32"/>
</g>
<!-- Node8&#45;&gt;Node9 -->
<g id="edge10" class="edge">
<title>Node8&#45;&gt;Node9</title>
<path fill="none" stroke="midnightblue" d="M814.65,-49.63C820.32,-40.29 826.98,-29.32 831.65,-21.64"/>
<polygon fill="midnightblue" stroke="midnightblue" points="811.62,-47.88 809.42,-58.25 817.6,-51.51 811.62,-47.88"/>
</g>
<!-- Node10&#45;&gt;Node9 -->
<g id="edge12" class="edge">
<title>Node10&#45;&gt;Node9</title>
<path fill="none" stroke="midnightblue" d="M913.76,-53.46C895.32,-43.44 871.34,-30.4 855.24,-21.64"/>
<polygon fill="midnightblue" stroke="midnightblue" points="912.1,-56.54 922.56,-58.25 915.45,-50.39 912.1,-56.54"/>
</g>
<!-- Node11&#45;&gt;Node9 -->
<g id="edge15" class="edge">
<title>Node11&#45;&gt;Node9</title>
<path fill="none" stroke="midnightblue" d="M728.58,-54.65C754.66,-44.44 789.98,-30.61 813.24,-21.5"/>
<polygon fill="midnightblue" stroke="midnightblue" points="727.12,-51.47 719.08,-58.37 729.67,-57.99 727.12,-51.47"/>
</g>
<!-- Node15 -->
<g id="node15" class="node">
<title>Node15</title>
<g id="a_node15"><a xlink:href="tex_8c.html" target="_top" xlink:title=" ">
<polygon fill="white" stroke="black" points="1206,-0.5 1206,-21.5 1247,-21.5 1247,-0.5 1206,-0.5"/>
<text text-anchor="middle" x="1226.5" y="-7.9" font-family="DejaVuSans" font-size="12.00">tex.c</text>
</a>
</g>
</g>
<!-- Node14&#45;&gt;Node15 -->
<g id="edge20" class="edge">
<title>Node14&#45;&gt;Node15</title>
<path fill="none" stroke="midnightblue" d="M1226.5,-48.16C1226.5,-39.16 1226.5,-28.92 1226.5,-21.64"/>
<polygon fill="midnightblue" stroke="midnightblue" points="1223,-48.25 1226.5,-58.25 1230,-48.25 1223,-48.25"/>
</g>
<!-- Node20&#45;&gt;Node7 -->
<g id="edge35" class="edge">
<title>Node20&#45;&gt;Node7</title>
<path fill="none" stroke="midnightblue" d="M663.14,-174.97C664.61,-174.64 666.07,-174.31 667.5,-174 738.22,-158.55 821.35,-143.1 868.28,-134.62"/>
<polygon fill="midnightblue" stroke="midnightblue" points="662.31,-171.57 653.36,-177.25 663.9,-178.39 662.31,-171.57"/>
</g>
<!-- Node20&#45;&gt;Node14 -->
<g id="edge37" class="edge">
<title>Node20&#45;&gt;Node14</title>
<path fill="none" stroke="midnightblue" d="M663.68,-180.54C737.26,-173.41 898.88,-156.18 951.5,-138 969.94,-131.63 971.22,-122.84 989.5,-116 990.64,-115.57 1115.23,-91.48 1183.29,-78.34"/>
<polygon fill="midnightblue" stroke="midnightblue" points="663.1,-177.08 653.48,-181.52 663.77,-184.05 663.1,-177.08"/>
</g>
<!-- Node20&#45;&gt;Node18 -->
<g id="edge31" class="edge">
<title>Node20&#45;&gt;Node18</title>
<path fill="none" stroke="midnightblue" d="M590.16,-172.69C556.94,-162.36 508.37,-147.25 477.09,-137.52"/>
<polygon fill="midnightblue" stroke="midnightblue" points="589.35,-176.11 599.94,-175.74 591.43,-169.42 589.35,-176.11"/>
</g>
<!-- Node20&#45;&gt;Node19 -->
<g id="edge32" class="edge">
<title>Node20&#45;&gt;Node19</title>
<path fill="none" stroke="midnightblue" d="M599.5,-169.46C580.89,-159.44 556.67,-146.4 540.41,-137.64"/>
<polygon fill="midnightblue" stroke="midnightblue" points="597.92,-172.59 608.38,-174.25 601.24,-166.42 597.92,-172.59"/>
</g>
<!-- Node21 -->
<g id="node21" class="node">
<title>Node21</title>
<g id="a_node21"><a xlink:href="box__display_8c.html" target="_top" xlink:title=" ">
<polygon fill="white" stroke="black" points="1312,-116.5 1312,-137.5 1401,-137.5 1401,-116.5 1312,-116.5"/>
<text text-anchor="middle" x="1356.5" y="-123.9" font-family="DejaVuSans" font-size="12.00">box_display.c</text>
</a>
</g>
</g>
<!-- Node20&#45;&gt;Node21 -->
<g id="edge28" class="edge">
<title>Node20&#45;&gt;Node21</title>
<path fill="none" stroke="midnightblue" d="M663.69,-180.52C685.72,-178.51 714.19,-175.99 739.5,-174 972.66,-155.69 1031.53,-158.64 1264.5,-138 1279.86,-136.64 1296.64,-134.89 1311.61,-133.24"/>
<polygon fill="midnightblue" stroke="midnightblue" points="663.07,-177.06 653.43,-181.47 663.71,-184.04 663.07,-177.06"/>
</g>
<!-- Node22 -->
<g id="node22" class="node">
<title>Node22</title>
<g id="a_node22"><a xlink:href="dump_8c.html" target="_top" xlink:title=" ">
<polygon fill="white" stroke="black" points="998.5,-116.5 998.5,-137.5 1054.5,-137.5 1054.5,-116.5 998.5,-116.5"/>
<text text-anchor="middle" x="1026.5" y="-123.9" font-family="DejaVuSans" font-size="12.00">dump.c</text>
</a>
</g>
</g>
<!-- Node20&#45;&gt;Node22 -->
<g id="edge29" class="edge">
<title>Node20&#45;&gt;Node22</title>
<path fill="none" stroke="midnightblue" d="M663.31,-180.57C728.42,-174.21 868.01,-159.29 984.5,-138 988.92,-137.19 993.58,-136.21 998.12,-135.19"/>
<polygon fill="midnightblue" stroke="midnightblue" points="662.76,-177.11 653.15,-181.55 663.44,-184.07 662.76,-177.11"/>
</g>
<!-- Node23 -->
<g id="node23" class="node">
<title>Node23</title>
<g id="a_node23"><a xlink:href="eqtb_8c.html" target="_top" xlink:title=" ">
<polygon fill="white" stroke="black" points="623,-116.5 623,-137.5 672,-137.5 672,-116.5 623,-116.5"/>
<text text-anchor="middle" x="647.5" y="-123.9" font-family="DejaVuSans" font-size="12.00">eqtb.c</text>
</a>
</g>
</g>
<!-- Node20&#45;&gt;Node23 -->
<g id="edge30" class="edge">
<title>Node20&#45;&gt;Node23</title>
<path fill="none" stroke="midnightblue" d="M633.72,-164.75C637.15,-155.61 641.1,-145.08 643.88,-137.64"/>
<polygon fill="midnightblue" stroke="midnightblue" points="630.39,-163.65 630.16,-174.25 636.95,-166.11 630.39,-163.65"/>
</g>
<!-- Node24 -->
<g id="node24" class="node">
<title>Node24</title>
<g id="a_node24"><a xlink:href="hash_8c.html" target="_top" xlink:title=" ">
<polygon fill="white" stroke="black" points="690.5,-116.5 690.5,-137.5 742.5,-137.5 742.5,-116.5 690.5,-116.5"/>
<text text-anchor="middle" x="716.5" y="-123.9" font-family="DejaVuSans" font-size="12.00">hash.c</text>
</a>
</g>
</g>
<!-- Node20&#45;&gt;Node24 -->
<g id="edge33" class="edge">
<title>Node20&#45;&gt;Node24</title>
<path fill="none" stroke="midnightblue" d="M650.98,-168.77C666.93,-158.85 687.25,-146.2 701,-137.64"/>
<polygon fill="midnightblue" stroke="midnightblue" points="648.82,-165.99 642.18,-174.25 652.52,-171.93 648.82,-165.99"/>
</g>
<!-- Node25 -->
<g id="node25" class="node">
<title>Node25</title>
<g id="a_node25"><a xlink:href="lexer_8c.html" target="_top" xlink:title=" ">
<polygon fill="white" stroke="black" points="761,-116.5 761,-137.5 812,-137.5 812,-116.5 761,-116.5"/>
<text text-anchor="middle" x="786.5" y="-123.9" font-family="DejaVuSans" font-size="12.00">lexer.c</text>
</a>
</g>
</g>
<!-- Node20&#45;&gt;Node25 -->
<g id="edge34" class="edge">
<title>Node20&#45;&gt;Node25</title>
<path fill="none" stroke="midnightblue" d="M662.94,-171.25C692.86,-160.77 734.48,-146.21 760.96,-136.94"/>
<polygon fill="midnightblue" stroke="midnightblue" points="661.56,-168.02 653.28,-174.63 663.88,-174.63 661.56,-168.02"/>
</g>
<!-- Node26 -->
<g id="node26" class="node">
<title>Node26</title>
<g id="a_node26"><a xlink:href="str_8c.html" target="_top" xlink:title=" ">
<polygon fill="white" stroke="black" points="566.5,-116.5 566.5,-137.5 604.5,-137.5 604.5,-116.5 566.5,-116.5"/>
<text text-anchor="middle" x="585.5" y="-123.9" font-family="DejaVuSans" font-size="12.00">str.c</text>
</a>
</g>
</g>
<!-- Node20&#45;&gt;Node26 -->
<g id="edge36" class="edge">
<title>Node20&#45;&gt;Node26</title>
<path fill="none" stroke="midnightblue" d="M613.26,-165.92C606.38,-156.52 598.24,-145.4 592.56,-137.64"/>
<polygon fill="midnightblue" stroke="midnightblue" points="610.63,-168.24 619.36,-174.25 616.27,-164.11 610.63,-168.24"/>
</g>
<!-- Node27&#45;&gt;Node7 -->
<g id="edge57" class="edge">
<title>Node27&#45;&gt;Node7</title>
<path fill="none" stroke="midnightblue" d="M1052.31,-239.57C962,-234.04 759.88,-219.19 739.5,-196 733.04,-188.66 733.58,-181.78 739.5,-174 755.02,-153.59 824.25,-139.88 868.26,-133.06"/>
<polygon fill="midnightblue" stroke="midnightblue" points="1052.3,-243.07 1062.49,-240.18 1052.72,-236.09 1052.3,-243.07"/>
</g>
<!-- Node27&#45;&gt;Node14 -->
<g id="edge59" class="edge">
<title>Node27&#45;&gt;Node14</title>
<path fill="none" stroke="midnightblue" d="M1138.92,-240.38C1255.28,-235.73 1572.11,-221.09 1673.5,-196 1736.89,-180.31 1772.58,-192.53 1808.5,-138 1813.88,-129.83 1815.14,-123.18 1808.5,-116 1790.23,-96.23 1401.28,-77.58 1269.62,-71.82"/>
<polygon fill="midnightblue" stroke="midnightblue" points="1138.48,-236.89 1128.63,-240.78 1138.76,-243.88 1138.48,-236.89"/>
</g>
<!-- Node27&#45;&gt;Node22 -->
<g id="edge39" class="edge">
<title>Node27&#45;&gt;Node22</title>
<path fill="none" stroke="midnightblue" d="M1138.6,-234.86C1183.81,-225.5 1245.03,-206.33 1219.5,-174 1219.5,-174 1108.09,-147.45 1054.56,-134.69"/>
<polygon fill="midnightblue" stroke="midnightblue" points="1137.8,-231.45 1128.66,-236.82 1139.15,-238.32 1137.8,-231.45"/>
</g>
<!-- Node28 -->
<g id="node28" class="node">
<title>Node28</title>
<g id="a_node28"><a xlink:href="extension_8h.html" target="_top" xlink:title=" ">
<polygon fill="white" stroke="black" points="1266.5,-174.5 1266.5,-195.5 1344.5,-195.5 1344.5,-174.5 1266.5,-174.5"/>
<text text-anchor="middle" x="1305.5" y="-181.9" font-family="DejaVuSans" font-size="12.00">extension.h</text>
</a>
</g>
</g>
<!-- Node27&#45;&gt;Node28 -->
<g id="edge40" class="edge">
<title>Node27&#45;&gt;Node28</title>
<path fill="none" stroke="midnightblue" d="M1138.69,-230.48C1177.34,-220.18 1233.32,-205.25 1269.57,-195.58"/>
<polygon fill="midnightblue" stroke="midnightblue" points="1137.54,-227.17 1128.78,-233.13 1139.34,-233.93 1137.54,-227.17"/>
</g>
<!-- Node31 -->
<g id="node31" class="node">
<title>Node31</title>
<g id="a_node31"><a xlink:href="linebreak_8c.html" target="_top" xlink:title=" ">
<polygon fill="white" stroke="black" points="1419.5,-116.5 1419.5,-137.5 1493.5,-137.5 1493.5,-116.5 1419.5,-116.5"/>
<text text-anchor="middle" x="1456.5" y="-123.9" font-family="DejaVuSans" font-size="12.00">linebreak.c</text>
</a>
</g>
</g>
<!-- Node27&#45;&gt;Node31 -->
<g id="edge56" class="edge">
<title>Node27&#45;&gt;Node31</title>
<path fill="none" stroke="midnightblue" d="M1138.82,-239.64C1191.3,-235.58 1281.6,-224.71 1353.5,-196 1390.11,-181.38 1427.31,-152.65 1445.33,-137.64"/>
<polygon fill="midnightblue" stroke="midnightblue" points="1138.57,-236.15 1128.85,-240.36 1139.08,-243.13 1138.57,-236.15"/>
</g>
<!-- Node33 -->
<g id="node33" class="node">
<title>Node33</title>
<g id="a_node33"><a xlink:href="hyphen_8c.html" target="_top" xlink:title=" ">
<polygon fill="white" stroke="black" points="748,-174.5 748,-195.5 813,-195.5 813,-174.5 748,-174.5"/>
<text text-anchor="middle" x="780.5" y="-181.9" font-family="DejaVuSans" font-size="12.00">hyphen.c</text>
</a>
</g>
</g>
<!-- Node27&#45;&gt;Node33 -->
<g id="edge52" class="edge">
<title>Node27&#45;&gt;Node33</title>
<path fill="none" stroke="midnightblue" d="M1052.26,-235.63C998.29,-227.46 903.26,-212.4 822.5,-196 819.41,-195.37 816.21,-194.68 813.01,-193.97"/>
<polygon fill="midnightblue" stroke="midnightblue" points="1051.76,-239.09 1062.17,-237.12 1052.8,-232.17 1051.76,-239.09"/>
</g>
<!-- Node34 -->
<g id="node34" class="node">
<title>Node34</title>
<g id="a_node34"><a xlink:href="hyphen__init_8c.html" target="_top" xlink:title=" ">
<polygon fill="white" stroke="black" points="831.5,-174.5 831.5,-195.5 919.5,-195.5 919.5,-174.5 831.5,-174.5"/>
<text text-anchor="middle" x="875.5" y="-181.9" font-family="DejaVuSans" font-size="12.00">hyphen_init.c</text>
</a>
</g>
</g>
<!-- Node27&#45;&gt;Node34 -->
<g id="edge53" class="edge">
<title>Node27&#45;&gt;Node34</title>
<path fill="none" stroke="midnightblue" d="M1052.21,-230.98C1011.6,-220.64 951.5,-205.35 912.92,-195.52"/>
<polygon fill="midnightblue" stroke="midnightblue" points="1051.53,-234.42 1062.09,-233.49 1053.26,-227.64 1051.53,-234.42"/>
</g>
<!-- Node35 -->
<g id="node35" class="node">
<title>Node35</title>
<g id="a_node35"><a xlink:href="hyphen__post_8c.html" target="_top" xlink:title=" ">
<polygon fill="white" stroke="black" points="938,-174.5 938,-195.5 1033,-195.5 1033,-174.5 938,-174.5"/>
<text text-anchor="middle" x="985.5" y="-181.9" font-family="DejaVuSans" font-size="12.00">hyphen_post.c</text>
</a>
</g>
</g>
<!-- Node27&#45;&gt;Node35 -->
<g id="edge54" class="edge">
<title>Node27&#45;&gt;Node35</title>
<path fill="none" stroke="midnightblue" d="M1067.21,-227.6C1047.49,-217.56 1021.72,-204.44 1004.44,-195.64"/>
<polygon fill="midnightblue" stroke="midnightblue" points="1065.84,-230.83 1076.34,-232.25 1069.02,-224.59 1065.84,-230.83"/>
</g>
<!-- Node36 -->
<g id="node36" class="node">
<title>Node36</title>
<g id="a_node36"><a xlink:href="hyphen__pre_8c.html" target="_top" xlink:title=" ">
<polygon fill="white" stroke="black" points="1051,-174.5 1051,-195.5 1140,-195.5 1140,-174.5 1051,-174.5"/>
<text text-anchor="middle" x="1095.5" y="-181.9" font-family="DejaVuSans" font-size="12.00">hyphen_pre.c</text>
</a>
</g>
</g>
<!-- Node27&#45;&gt;Node36 -->
<g id="edge55" class="edge">
<title>Node27&#45;&gt;Node36</title>
<path fill="none" stroke="midnightblue" d="M1095.5,-222.16C1095.5,-213.16 1095.5,-202.92 1095.5,-195.64"/>
<polygon fill="midnightblue" stroke="midnightblue" points="1092,-222.25 1095.5,-232.25 1099,-222.25 1092,-222.25"/>
</g>
<!-- Node37 -->
<g id="node37" class="node">
<title>Node37</title>
<g id="a_node37"><a xlink:href="mem_8c.html" target="_top" xlink:title=" ">
<polygon fill="white" stroke="black" points="1158.5,-174.5 1158.5,-195.5 1210.5,-195.5 1210.5,-174.5 1158.5,-174.5"/>
<text text-anchor="middle" x="1184.5" y="-181.9" font-family="DejaVuSans" font-size="12.00">mem.c</text>
</a>
</g>
</g>
<!-- Node27&#45;&gt;Node37 -->
<g id="edge58" class="edge">
<title>Node27&#45;&gt;Node37</title>
<path fill="none" stroke="midnightblue" d="M1119.71,-226.77C1135.48,-216.85 1155.58,-204.2 1169.18,-195.64"/>
<polygon fill="midnightblue" stroke="midnightblue" points="1117.6,-223.96 1111,-232.25 1121.33,-229.88 1117.6,-223.96"/>
</g>
<!-- Node28&#45;&gt;Node3 -->
<g id="edge45" class="edge">
<title>Node28&#45;&gt;Node3</title>
<path fill="none" stroke="midnightblue" d="M1255.94,-177.58C1244.03,-176.22 1231.32,-174.91 1219.5,-174 806.65,-142.06 698.06,-199.06 288.5,-138 285.67,-137.58 282.74,-137.02 279.83,-136.4"/>
<polygon fill="midnightblue" stroke="midnightblue" points="1255.83,-181.09 1266.17,-178.78 1256.65,-174.14 1255.83,-181.09"/>
</g>
<!-- Node28&#45;&gt;Node6 -->
<g id="edge46" class="edge">
<title>Node28&#45;&gt;Node6</title>
<path fill="none" stroke="midnightblue" d="M1255.9,-178.09C1243.98,-176.71 1231.29,-175.27 1219.5,-174 1059.63,-156.71 1012.52,-187.39 859.5,-138 840.93,-132.01 839.78,-122.82 821.5,-116 741.79,-86.27 716.92,-96.68 633.5,-80 630.41,-79.38 627.21,-78.73 624,-78.08"/>
<polygon fill="midnightblue" stroke="midnightblue" points="1255.79,-181.61 1266.13,-179.29 1256.6,-174.65 1255.79,-181.61"/>
</g>
<!-- Node28&#45;&gt;Node7 -->
<g id="edge48" class="edge">
<title>Node28&#45;&gt;Node7</title>
<path fill="none" stroke="midnightblue" d="M1256.46,-177.13C1175.4,-165.79 1015.2,-143.36 942.7,-133.21"/>
<polygon fill="midnightblue" stroke="midnightblue" points="1256.03,-180.61 1266.42,-178.53 1257,-173.68 1256.03,-180.61"/>
</g>
<!-- Node28&#45;&gt;Node13 -->
<g id="edge50" class="edge">
<title>Node28&#45;&gt;Node13</title>
<path fill="none" stroke="midnightblue" d="M1298.5,-164.49C1294.47,-149.45 1292.18,-129.08 1303.5,-116 1340.07,-73.74 1514.64,-69.48 1587.96,-69.61"/>
<polygon fill="midnightblue" stroke="midnightblue" points="1295.24,-165.81 1301.57,-174.31 1301.93,-163.72 1295.24,-165.81"/>
</g>
<!-- Node28&#45;&gt;Node14 -->
<g id="edge51" class="edge">
<title>Node28&#45;&gt;Node14</title>
<path fill="none" stroke="midnightblue" d="M1256.16,-176.1C1199.22,-166.49 1112.13,-150.05 1102.5,-138 1096.4,-130.36 1096.92,-124.03 1102.5,-116 1112.47,-101.67 1154.31,-88.14 1186.67,-79.51"/>
<polygon fill="midnightblue" stroke="midnightblue" points="1255.63,-179.56 1266.07,-177.76 1256.78,-172.66 1255.63,-179.56"/>
</g>
<!-- Node28&#45;&gt;Node21 -->
<g id="edge43" class="edge">
<title>Node28&#45;&gt;Node21</title>
<path fill="none" stroke="midnightblue" d="M1321.17,-166.79C1329.9,-157.21 1340.44,-145.64 1347.72,-137.64"/>
<polygon fill="midnightblue" stroke="midnightblue" points="1318.53,-164.5 1314.38,-174.25 1323.7,-169.21 1318.53,-164.5"/>
</g>
<!-- Node28&#45;&gt;Node22 -->
<g id="edge44" class="edge">
<title>Node28&#45;&gt;Node22</title>
<path fill="none" stroke="midnightblue" d="M1256.28,-174.7C1197.75,-163.59 1103.57,-145.58 1068.5,-138 1064.1,-137.05 1059.46,-136 1054.93,-134.94"/>
<polygon fill="midnightblue" stroke="midnightblue" points="1255.94,-178.2 1266.41,-176.62 1257.24,-171.32 1255.94,-178.2"/>
</g>
<!-- Node29 -->
<g id="node29" class="node">
<title>Node29</title>
<g id="a_node29"><a xlink:href="box__copy_8c.html" target="_top" xlink:title=" ">
<polygon fill="white" stroke="black" points="1178,-116.5 1178,-137.5 1255,-137.5 1255,-116.5 1178,-116.5"/>
<text text-anchor="middle" x="1216.5" y="-123.9" font-family="DejaVuSans" font-size="12.00">box_copy.c</text>
</a>
</g>
</g>
<!-- Node28&#45;&gt;Node29 -->
<g id="edge41" class="edge">
<title>Node28&#45;&gt;Node29</title>
<path fill="none" stroke="midnightblue" d="M1281.29,-168.77C1265.52,-158.85 1245.42,-146.2 1231.82,-137.64"/>
<polygon fill="midnightblue" stroke="midnightblue" points="1279.67,-171.88 1290,-174.25 1283.4,-165.96 1279.67,-171.88"/>
</g>
<!-- Node30 -->
<g id="node30" class="node">
<title>Node30</title>
<g id="a_node30"><a xlink:href="box__destroy_8c.html" target="_top" xlink:title=" ">
<polygon fill="white" stroke="black" points="1512,-116.5 1512,-137.5 1603,-137.5 1603,-116.5 1512,-116.5"/>
<text text-anchor="middle" x="1557.5" y="-123.9" font-family="DejaVuSans" font-size="12.00">box_destroy.c</text>
</a>
</g>
</g>
<!-- Node28&#45;&gt;Node30 -->
<g id="edge42" class="edge">
<title>Node28&#45;&gt;Node30</title>
<path fill="none" stroke="midnightblue" d="M1354.44,-173.12C1400.92,-162.8 1470.1,-147.42 1514.51,-137.55"/>
<polygon fill="midnightblue" stroke="midnightblue" points="1353.6,-169.73 1344.6,-175.31 1355.12,-176.56 1353.6,-169.73"/>
</g>
<!-- Node28&#45;&gt;Node31 -->
<g id="edge47" class="edge">
<title>Node28&#45;&gt;Node31</title>
<path fill="none" stroke="midnightblue" d="M1341.12,-170.79C1368.69,-160.56 1406.21,-146.65 1430.88,-137.5"/>
<polygon fill="midnightblue" stroke="midnightblue" points="1339.62,-167.61 1331.46,-174.37 1342.05,-174.18 1339.62,-167.61"/>
</g>
<!-- Node32 -->
<g id="node32" class="node">
<title>Node32</title>
<g id="a_node32"><a xlink:href="print_8c.html" target="_top" xlink:title=" ">
<polygon fill="white" stroke="black" points="1111,-116.5 1111,-137.5 1160,-137.5 1160,-116.5 1111,-116.5"/>
<text text-anchor="middle" x="1135.5" y="-123.9" font-family="DejaVuSans" font-size="12.00">print.c</text>
</a>
</g>
</g>
<!-- Node28&#45;&gt;Node32 -->
<g id="edge49" class="edge">
<title>Node28&#45;&gt;Node32</title>
<path fill="none" stroke="midnightblue" d="M1266.58,-171.18C1233.87,-160.4 1188.11,-145.33 1160.21,-136.14"/>
<polygon fill="midnightblue" stroke="midnightblue" points="1265.68,-174.57 1276.28,-174.37 1267.87,-167.92 1265.68,-174.57"/>
</g>
<!-- Node39&#45;&gt;Node5 -->
<g id="edge64" class="edge">
<title>Node39&#45;&gt;Node5</title>
<path fill="none" stroke="midnightblue" d="M1643.14,-165.29C1650.93,-150.13 1657.73,-129.2 1645.5,-116 1609.83,-77.5 1226.16,-89.26 1174.5,-80 1171.51,-79.47 1168.42,-78.78 1165.36,-78.02"/>
<polygon fill="midnightblue" stroke="midnightblue" points="1639.94,-163.84 1638.07,-174.27 1646.03,-167.29 1639.94,-163.84"/>
</g>
<!-- Node39&#45;&gt;Node7 -->
<g id="edge67" class="edge">
<title>Node39&#45;&gt;Node7</title>
<path fill="none" stroke="midnightblue" d="M1588.31,-181.61C1484.83,-175.72 1214.54,-159.45 989.5,-138 974.15,-136.54 957.26,-134.59 942.68,-132.81"/>
<polygon fill="midnightblue" stroke="midnightblue" points="1588.2,-185.11 1598.38,-182.18 1588.59,-178.12 1588.2,-185.11"/>
</g>
<!-- Node39&#45;&gt;Node12 -->
<g id="edge70" class="edge">
<title>Node39&#45;&gt;Node12</title>
<path fill="none" stroke="midnightblue" d="M1631.71,-164.05C1630.71,-148.42 1626.56,-127.48 1612.5,-116 1568.75,-80.29 1161.55,-86.89 1105.5,-80 1102.41,-79.62 1099.23,-79.19 1096.03,-78.72"/>
<polygon fill="midnightblue" stroke="midnightblue" points="1628.22,-164.37 1631.98,-174.27 1635.22,-164.18 1628.22,-164.37"/>
</g>
<!-- Node39&#45;&gt;Node13 -->
<g id="edge72" class="edge">
<title>Node39&#45;&gt;Node13</title>
<path fill="none" stroke="midnightblue" d="M1674.66,-183.11C1743.11,-180.16 1864.8,-167.71 1823.5,-116 1802.53,-89.74 1704.87,-77.36 1653.03,-72.55"/>
<polygon fill="midnightblue" stroke="midnightblue" points="1674.43,-179.62 1664.57,-183.49 1674.7,-186.61 1674.43,-179.62"/>
</g>
<!-- Node39&#45;&gt;Node14 -->
<g id="edge73" class="edge">
<title>Node39&#45;&gt;Node14</title>
<path fill="none" stroke="midnightblue" d="M1674.73,-180.11C1733.45,-173.25 1827.16,-155.78 1790.5,-116 1755.42,-77.94 1395.86,-71.37 1269.85,-70.24"/>
<polygon fill="midnightblue" stroke="midnightblue" points="1674.12,-176.65 1664.56,-181.23 1674.89,-183.61 1674.12,-176.65"/>
</g>
<!-- Node39&#45;&gt;Node16 -->
<g id="edge68" class="edge">
<title>Node39&#45;&gt;Node16</title>
<path fill="none" stroke="midnightblue" d="M1588.18,-182.41C1372.11,-174.49 420.52,-139.55 405.5,-138 402.3,-137.67 399,-137.27 395.69,-136.83"/>
<polygon fill="midnightblue" stroke="midnightblue" points="1588.08,-185.91 1598.2,-182.78 1588.34,-178.92 1588.08,-185.91"/>
</g>
<!-- Node39&#45;&gt;Node21 -->
<g id="edge66" class="edge">
<title>Node39&#45;&gt;Node21</title>
<path fill="none" stroke="midnightblue" d="M1588.28,-175.2C1537.25,-164.81 1452.82,-147.61 1401.17,-137.1"/>
<polygon fill="midnightblue" stroke="midnightblue" points="1587.83,-178.68 1598.33,-177.25 1589.23,-171.82 1587.83,-178.68"/>
</g>
<!-- Node39&#45;&gt;Node30 -->
<g id="edge65" class="edge">
<title>Node39&#45;&gt;Node30</title>
<path fill="none" stroke="midnightblue" d="M1610.63,-168.21C1597.64,-158.37 1581.34,-146.04 1570.24,-137.64"/>
<polygon fill="midnightblue" stroke="midnightblue" points="1608.52,-171 1618.61,-174.25 1612.75,-165.42 1608.52,-171"/>
</g>
<!-- Node39&#45;&gt;Node38 -->
<g id="edge69" class="edge">
<title>Node39&#45;&gt;Node38</title>
<path fill="none" stroke="midnightblue" d="M1674.65,-177.13C1727.69,-168.57 1820.4,-153.2 1899.5,-138 1904.17,-137.1 1909.09,-136.11 1913.92,-135.11"/>
<polygon fill="midnightblue" stroke="midnightblue" points="1673.9,-173.71 1664.58,-178.75 1675.01,-180.62 1673.9,-173.71"/>
</g>
<!-- Node40 -->
<g id="node40" class="node">
<title>Node40</title>
<g id="a_node40"><a xlink:href="pagebreak_8c.html" target="_top" xlink:title=" ">
<polygon fill="white" stroke="black" points="1698,-116.5 1698,-137.5 1781,-137.5 1781,-116.5 1698,-116.5"/>
<text text-anchor="middle" x="1739.5" y="-123.9" font-family="DejaVuSans" font-size="12.00">pagebreak.c</text>
</a>
</g>
</g>
<!-- Node39&#45;&gt;Node40 -->
<g id="edge71" class="edge">
<title>Node39&#45;&gt;Node40</title>
<path fill="none" stroke="midnightblue" d="M1659.28,-169.6C1678.64,-159.56 1703.94,-146.44 1720.9,-137.64"/>
<polygon fill="midnightblue" stroke="midnightblue" points="1657.58,-166.54 1650.31,-174.25 1660.8,-172.75 1657.58,-166.54"/>
</g>
</g>
</svg>
