<?xml version="1.0" encoding="UTF-8" standalone="no"?>
<!DOCTYPE svg PUBLIC "-//W3C//DTD SVG 1.1//EN"
 "http://www.w3.org/Graphics/SVG/1.1/DTD/svg11.dtd">
<!-- Generated by graphviz version 2.44.0 ()
 -->
<!-- Title: fonts.h Pages: 1 -->
<svg width="337pt" height="320pt"
 viewBox="0.00 0.00 336.53 320.00" xmlns="http://www.w3.org/2000/svg" xmlns:xlink="http://www.w3.org/1999/xlink">
<g id="graph0" class="graph" transform="scale(1 1) rotate(0) translate(4 316)">
<title>fonts.h</title>
<polygon fill="white" stroke="transparent" points="-4,4 -4,-316 332.53,-316 332.53,4 -4,4"/>
<!-- Node1 -->
<g id="node1" class="node">
<title>Node1</title>
<g id="a_node1"><a xlink:title=" ">
<polygon fill="#bfbfbf" stroke="black" points="118.53,-290.5 118.53,-311.5 170.53,-311.5 170.53,-290.5 118.53,-290.5"/>
<text text-anchor="middle" x="144.53" y="-297.9" font-family="DejaVuSans" font-size="12.00">fonts.h</text>
</a>
</g>
</g>
<!-- Node2 -->
<g id="node2" class="node">
<title>Node2</title>
<g id="a_node2"><a xlink:title=" ">
<polygon fill="white" stroke="#bfbfbf" points="139.53,-174.5 139.53,-195.5 191.53,-195.5 191.53,-174.5 139.53,-174.5"/>
<text text-anchor="middle" x="165.53" y="-181.9" font-family="DejaVuSans" font-size="12.00">stdio.h</text>
</a>
</g>
</g>
<!-- Node1&#45;&gt;Node2 -->
<g id="edge1" class="edge">
<title>Node1&#45;&gt;Node2</title>
<path fill="none" stroke="midnightblue" d="M126.57,-290.45C105.64,-277.98 75.48,-255.01 88.53,-232 97.51,-216.19 114.31,-205.23 129.94,-197.99"/>
<polygon fill="midnightblue" stroke="midnightblue" points="131.61,-201.08 139.44,-193.95 128.87,-194.64 131.61,-201.08"/>
</g>
<!-- Node3 -->
<g id="node3" class="node">
<title>Node3</title>
<g id="a_node3"><a xlink:href="global_8h.html" target="_top" xlink:title=" ">
<polygon fill="white" stroke="black" points="138.53,-116.5 138.53,-137.5 196.53,-137.5 196.53,-116.5 138.53,-116.5"/>
<text text-anchor="middle" x="167.53" y="-123.9" font-family="DejaVuSans" font-size="12.00">global.h</text>
</a>
</g>
</g>
<!-- Node1&#45;&gt;Node3 -->
<g id="edge2" class="edge">
<title>Node1&#45;&gt;Node3</title>
<path fill="none" stroke="midnightblue" d="M170.74,-299.17C201.42,-296.61 251.04,-287.23 274.53,-254 304.81,-211.17 237.32,-165.27 196.23,-142.52"/>
<polygon fill="midnightblue" stroke="midnightblue" points="197.63,-139.3 187.16,-137.64 194.31,-145.46 197.63,-139.3"/>
</g>
<!-- Node10 -->
<g id="node10" class="node">
<title>Node10</title>
<g id="a_node10"><a xlink:href="tex__constant_8h.html" target="_top" xlink:title=" ">
<polygon fill="white" stroke="black" points="97.53,-232.5 97.53,-253.5 191.53,-253.5 191.53,-232.5 97.53,-232.5"/>
<text text-anchor="middle" x="144.53" y="-239.9" font-family="DejaVuSans" font-size="12.00">tex_constant.h</text>
</a>
</g>
</g>
<!-- Node1&#45;&gt;Node10 -->
<g id="edge9" class="edge">
<title>Node1&#45;&gt;Node10</title>
<path fill="none" stroke="midnightblue" d="M144.53,-290.25C144.53,-282.94 144.53,-272.69 144.53,-263.7"/>
<polygon fill="midnightblue" stroke="midnightblue" points="148.03,-263.64 144.53,-253.64 141.03,-263.64 148.03,-263.64"/>
</g>
<!-- Node11 -->
<g id="node11" class="node">
<title>Node11</title>
<g id="a_node11"><a xlink:href="str_8h.html" target="_top" xlink:title=" ">
<polygon fill="white" stroke="black" points="2.03,-232.5 2.03,-253.5 41.03,-253.5 41.03,-232.5 2.03,-232.5"/>
<text text-anchor="middle" x="21.53" y="-239.9" font-family="DejaVuSans" font-size="12.00">str.h</text>
</a>
</g>
</g>
<!-- Node1&#45;&gt;Node11 -->
<g id="edge10" class="edge">
<title>Node1&#45;&gt;Node11</title>
<path fill="none" stroke="midnightblue" d="M123.39,-290.37C103.29,-281.22 72.88,-267.38 50.52,-257.2"/>
<polygon fill="midnightblue" stroke="midnightblue" points="51.74,-253.91 41.18,-252.95 48.84,-260.28 51.74,-253.91"/>
</g>
<!-- Node13 -->
<g id="node13" class="node">
<title>Node13</title>
<g id="a_node13"><a xlink:href="dump_8h.html" target="_top" xlink:title=" ">
<polygon fill="white" stroke="black" points="209.53,-232.5 209.53,-253.5 265.53,-253.5 265.53,-232.5 209.53,-232.5"/>
<text text-anchor="middle" x="237.53" y="-239.9" font-family="DejaVuSans" font-size="12.00">dump.h</text>
</a>
</g>
</g>
<!-- Node1&#45;&gt;Node13 -->
<g id="edge16" class="edge">
<title>Node1&#45;&gt;Node13</title>
<path fill="none" stroke="midnightblue" d="M160.73,-290.25C175.14,-281.57 196.41,-268.76 212.91,-258.82"/>
<polygon fill="midnightblue" stroke="midnightblue" points="214.76,-261.8 221.52,-253.64 211.15,-255.8 214.76,-261.8"/>
</g>
<!-- Node4 -->
<g id="node4" class="node">
<title>Node4</title>
<g id="a_node4"><a xlink:href="global__macros_8h.html" target="_top" xlink:title=" ">
<polygon fill="white" stroke="black" points="224.53,-58.5 224.53,-79.5 328.53,-79.5 328.53,-58.5 224.53,-58.5"/>
<text text-anchor="middle" x="276.53" y="-65.9" font-family="DejaVuSans" font-size="12.00">global_macros.h</text>
</a>
</g>
</g>
<!-- Node3&#45;&gt;Node4 -->
<g id="edge3" class="edge">
<title>Node3&#45;&gt;Node4</title>
<path fill="none" stroke="midnightblue" d="M186.52,-116.25C203.71,-107.41 229.26,-94.29 248.75,-84.28"/>
<polygon fill="midnightblue" stroke="midnightblue" points="250.47,-87.33 257.76,-79.64 247.27,-81.1 250.47,-87.33"/>
</g>
<!-- Node6 -->
<g id="node6" class="node">
<title>Node6</title>
<g id="a_node6"><a xlink:href="global__const_8h.html" target="_top" xlink:title=" ">
<polygon fill="white" stroke="black" points="18.03,-58.5 18.03,-79.5 111.03,-79.5 111.03,-58.5 18.03,-58.5"/>
<text text-anchor="middle" x="64.53" y="-65.9" font-family="DejaVuSans" font-size="12.00">global_const.h</text>
</a>
</g>
</g>
<!-- Node3&#45;&gt;Node6 -->
<g id="edge5" class="edge">
<title>Node3&#45;&gt;Node6</title>
<path fill="none" stroke="midnightblue" d="M149.59,-116.25C133.49,-107.49 109.65,-94.53 91.29,-84.55"/>
<polygon fill="midnightblue" stroke="midnightblue" points="92.73,-81.34 82.27,-79.64 89.38,-87.49 92.73,-81.34"/>
</g>
<!-- Node7 -->
<g id="node7" class="node">
<title>Node7</title>
<g id="a_node7"><a xlink:href="tex__types_8h.html" target="_top" xlink:title=" ">
<polygon fill="white" stroke="black" points="129.03,-58.5 129.03,-79.5 206.03,-79.5 206.03,-58.5 129.03,-58.5"/>
<text text-anchor="middle" x="167.53" y="-65.9" font-family="DejaVuSans" font-size="12.00">tex_types.h</text>
</a>
</g>
</g>
<!-- Node3&#45;&gt;Node7 -->
<g id="edge6" class="edge">
<title>Node3&#45;&gt;Node7</title>
<path fill="none" stroke="midnightblue" d="M167.53,-116.25C167.53,-108.94 167.53,-98.69 167.53,-89.7"/>
<polygon fill="midnightblue" stroke="midnightblue" points="171.03,-89.64 167.53,-79.64 164.03,-89.64 171.03,-89.64"/>
</g>
<!-- Node5 -->
<g id="node5" class="node">
<title>Node5</title>
<g id="a_node5"><a xlink:title=" ">
<polygon fill="white" stroke="#bfbfbf" points="247.03,-0.5 247.03,-21.5 306.03,-21.5 306.03,-0.5 247.03,-0.5"/>
<text text-anchor="middle" x="276.53" y="-7.9" font-family="DejaVuSans" font-size="12.00">assert.h</text>
</a>
</g>
</g>
<!-- Node4&#45;&gt;Node5 -->
<g id="edge4" class="edge">
<title>Node4&#45;&gt;Node5</title>
<path fill="none" stroke="midnightblue" d="M276.53,-58.25C276.53,-50.94 276.53,-40.69 276.53,-31.7"/>
<polygon fill="midnightblue" stroke="midnightblue" points="280.03,-31.64 276.53,-21.64 273.03,-31.64 280.03,-31.64"/>
</g>
<!-- Node8 -->
<g id="node8" class="node">
<title>Node8</title>
<g id="a_node8"><a xlink:title=" ">
<polygon fill="white" stroke="#bfbfbf" points="135.03,-0.5 135.03,-21.5 200.03,-21.5 200.03,-0.5 135.03,-0.5"/>
<text text-anchor="middle" x="167.53" y="-7.9" font-family="DejaVuSans" font-size="12.00">stdbool.h</text>
</a>
</g>
</g>
<!-- Node7&#45;&gt;Node8 -->
<g id="edge7" class="edge">
<title>Node7&#45;&gt;Node8</title>
<path fill="none" stroke="midnightblue" d="M167.53,-58.25C167.53,-50.94 167.53,-40.69 167.53,-31.7"/>
<polygon fill="midnightblue" stroke="midnightblue" points="171.03,-31.64 167.53,-21.64 164.03,-31.64 171.03,-31.64"/>
</g>
<!-- Node9 -->
<g id="node9" class="node">
<title>Node9</title>
<g id="a_node9"><a xlink:title=" ">
<polygon fill="white" stroke="#bfbfbf" points="12.03,-0.5 12.03,-21.5 67.03,-21.5 67.03,-0.5 12.03,-0.5"/>
<text text-anchor="middle" x="39.53" y="-7.9" font-family="DejaVuSans" font-size="12.00">stdint.h</text>
</a>
</g>
</g>
<!-- Node7&#45;&gt;Node9 -->
<g id="edge8" class="edge">
<title>Node7&#45;&gt;Node9</title>
<path fill="none" stroke="midnightblue" d="M145.53,-58.37C124.89,-49.34 93.82,-35.75 70.64,-25.61"/>
<polygon fill="midnightblue" stroke="midnightblue" points="71.81,-22.3 61.25,-21.5 69.01,-28.72 71.81,-22.3"/>
</g>
<!-- Node11&#45;&gt;Node2 -->
<g id="edge11" class="edge">
<title>Node11&#45;&gt;Node2</title>
<path fill="none" stroke="midnightblue" d="M41.25,-234.33C64.41,-225.33 103.2,-210.24 131.3,-199.31"/>
<polygon fill="midnightblue" stroke="midnightblue" points="132.7,-202.53 140.75,-195.64 130.16,-196 132.7,-202.53"/>
</g>
<!-- Node11&#45;&gt;Node3 -->
<g id="edge13" class="edge">
<title>Node11&#45;&gt;Node3</title>
<path fill="none" stroke="midnightblue" d="M22.56,-232.32C24.59,-217.78 30.44,-190.28 46.53,-174 68.44,-151.85 102.09,-140.2 128.35,-134.18"/>
<polygon fill="midnightblue" stroke="midnightblue" points="129.31,-137.55 138.37,-132.06 127.87,-130.7 129.31,-137.55"/>
</g>
<!-- Node11&#45;&gt;Node9 -->
<g id="edge12" class="edge">
<title>Node11&#45;&gt;Node9</title>
<path fill="none" stroke="midnightblue" d="M18.4,-232.14C10.02,-204.14 -11.02,-122.01 8.53,-58 11.67,-47.72 17.97,-37.66 24.07,-29.58"/>
<polygon fill="midnightblue" stroke="midnightblue" points="26.9,-31.65 30.46,-21.68 21.45,-27.25 26.9,-31.65"/>
</g>
<!-- Node12 -->
<g id="node12" class="node">
<title>Node12</title>
<g id="a_node12"><a xlink:href="charset_8h.html" target="_top" xlink:title=" ">
<polygon fill="white" stroke="black" points="56.03,-174.5 56.03,-195.5 121.03,-195.5 121.03,-174.5 56.03,-174.5"/>
<text text-anchor="middle" x="88.53" y="-181.9" font-family="DejaVuSans" font-size="12.00">charset.h</text>
</a>
</g>
</g>
<!-- Node11&#45;&gt;Node12 -->
<g id="edge14" class="edge">
<title>Node11&#45;&gt;Node12</title>
<path fill="none" stroke="midnightblue" d="M33.2,-232.25C43.1,-223.97 57.5,-211.94 69.12,-202.22"/>
<polygon fill="midnightblue" stroke="midnightblue" points="71.57,-204.74 77,-195.64 67.08,-199.37 71.57,-204.74"/>
</g>
<!-- Node12&#45;&gt;Node3 -->
<g id="edge15" class="edge">
<title>Node12&#45;&gt;Node3</title>
<path fill="none" stroke="midnightblue" d="M102.29,-174.25C114.19,-165.81 131.6,-153.47 145.44,-143.66"/>
<polygon fill="midnightblue" stroke="midnightblue" points="147.8,-146.28 153.93,-137.64 143.75,-140.57 147.8,-146.28"/>
</g>
<!-- Node13&#45;&gt;Node2 -->
<g id="edge17" class="edge">
<title>Node13&#45;&gt;Node2</title>
<path fill="none" stroke="midnightblue" d="M224.99,-232.25C214.25,-223.89 198.59,-211.71 186.03,-201.94"/>
<polygon fill="midnightblue" stroke="midnightblue" points="187.97,-199.02 177.93,-195.64 183.68,-204.54 187.97,-199.02"/>
</g>
<!-- Node13&#45;&gt;Node3 -->
<g id="edge18" class="edge">
<title>Node13&#45;&gt;Node3</title>
<path fill="none" stroke="midnightblue" d="M232.63,-232.1C225.88,-218.66 213.1,-194.04 200.53,-174 194.55,-164.46 187.31,-154.25 181.14,-145.87"/>
<polygon fill="midnightblue" stroke="midnightblue" points="183.77,-143.54 174.98,-137.63 178.16,-147.73 183.77,-143.54"/>
</g>
</g>
</svg>
