<?xml version="1.0" encoding="UTF-8" standalone="no"?>
<!DOCTYPE svg PUBLIC "-//W3C//DTD SVG 1.1//EN"
 "http://www.w3.org/Graphics/SVG/1.1/DTD/svg11.dtd">
<!-- Generated by graphviz version 2.44.0 ()
 -->
<!-- Title: fonts.c Pages: 1 -->
<svg width="798pt" height="552pt"
 viewBox="0.00 0.00 798.00 552.00" xmlns="http://www.w3.org/2000/svg" xmlns:xlink="http://www.w3.org/1999/xlink">
<g id="graph0" class="graph" transform="scale(1 1) rotate(0) translate(4 548)">
<title>fonts.c</title>
<polygon fill="white" stroke="transparent" points="-4,4 -4,-548 794,-548 794,4 -4,4"/>
<!-- Node1 -->
<g id="node1" class="node">
<title>Node1</title>
<g id="a_node1"><a xlink:title=" ">
<polygon fill="#bfbfbf" stroke="black" points="299.5,-522.5 299.5,-543.5 350.5,-543.5 350.5,-522.5 299.5,-522.5"/>
<text text-anchor="middle" x="325" y="-529.9" font-family="DejaVuSans" font-size="12.00">fonts.c</text>
</a>
</g>
</g>
<!-- Node2 -->
<g id="node2" class="node">
<title>Node2</title>
<g id="a_node2"><a xlink:title=" ">
<polygon fill="white" stroke="#bfbfbf" points="254,-116.5 254,-137.5 306,-137.5 306,-116.5 254,-116.5"/>
<text text-anchor="middle" x="280" y="-123.9" font-family="DejaVuSans" font-size="12.00">stdio.h</text>
</a>
</g>
</g>
<!-- Node1&#45;&gt;Node2 -->
<g id="edge1" class="edge">
<title>Node1&#45;&gt;Node2</title>
<path fill="none" stroke="midnightblue" d="M299.05,-530.7C236.62,-527.13 80.08,-515.42 38,-486 9.62,-466.16 0,-452.62 0,-418 0,-418 0,-418 0,-358 0,-257.87 48.89,-232.72 130,-174 148.28,-160.77 205.73,-145.39 244,-136.19"/>
<polygon fill="midnightblue" stroke="midnightblue" points="244.83,-139.59 253.75,-133.88 243.21,-132.78 244.83,-139.59"/>
</g>
<!-- Node3 -->
<g id="node3" class="node">
<title>Node3</title>
<g id="a_node3"><a xlink:href="tex_8h.html" target="_top" xlink:title=" ">
<polygon fill="white" stroke="black" points="408,-116.5 408,-137.5 450,-137.5 450,-116.5 408,-116.5"/>
<text text-anchor="middle" x="429" y="-123.9" font-family="DejaVuSans" font-size="12.00">tex.h</text>
</a>
</g>
</g>
<!-- Node1&#45;&gt;Node3 -->
<g id="edge2" class="edge">
<title>Node1&#45;&gt;Node3</title>
<path fill="none" stroke="midnightblue" d="M350.66,-523.76C370.41,-516.38 397.4,-503.94 416,-486 500.76,-404.25 514.63,-368.04 544,-254 557.04,-203.37 497.41,-162.65 459.13,-142.25"/>
<polygon fill="midnightblue" stroke="midnightblue" points="460.41,-138.97 449.92,-137.51 457.21,-145.19 460.41,-138.97"/>
</g>
<!-- Node8 -->
<g id="node8" class="node">
<title>Node8</title>
<g id="a_node8"><a xlink:href="macros_8h.html" target="_top" xlink:title=" ">
<polygon fill="white" stroke="black" points="66.5,-464.5 66.5,-485.5 131.5,-485.5 131.5,-464.5 66.5,-464.5"/>
<text text-anchor="middle" x="99" y="-471.9" font-family="DejaVuSans" font-size="12.00">macros.h</text>
</a>
</g>
</g>
<!-- Node1&#45;&gt;Node8 -->
<g id="edge7" class="edge">
<title>Node1&#45;&gt;Node8</title>
<path fill="none" stroke="midnightblue" d="M299.07,-525.58C260.51,-516.02 187.62,-497.96 141.28,-486.48"/>
<polygon fill="midnightblue" stroke="midnightblue" points="142.08,-483.07 131.53,-484.06 140.39,-489.86 142.08,-483.07"/>
</g>
<!-- Node9 -->
<g id="node9" class="node">
<title>Node9</title>
<g id="a_node9"><a xlink:href="str_8h.html" target="_top" xlink:title=" ">
<polygon fill="white" stroke="black" points="161.5,-232.5 161.5,-253.5 200.5,-253.5 200.5,-232.5 161.5,-232.5"/>
<text text-anchor="middle" x="181" y="-239.9" font-family="DejaVuSans" font-size="12.00">str.h</text>
</a>
</g>
</g>
<!-- Node1&#45;&gt;Node9 -->
<g id="edge8" class="edge">
<title>Node1&#45;&gt;Node9</title>
<path fill="none" stroke="midnightblue" d="M299.43,-531.01C239.52,-528.17 92.49,-518.02 57,-486 33.7,-464.98 38,-449.38 38,-418 38,-418 38,-418 38,-358 38,-300.36 109.91,-267.14 151.74,-252.7"/>
<polygon fill="midnightblue" stroke="midnightblue" points="153.02,-255.96 161.42,-249.5 150.82,-249.31 153.02,-255.96"/>
</g>
<!-- Node12 -->
<g id="node12" class="node">
<title>Node12</title>
<g id="a_node12"><a xlink:href="funcs_8h.html" target="_top" xlink:title=" ">
<polygon fill="white" stroke="black" points="297.5,-406.5 297.5,-427.5 352.5,-427.5 352.5,-406.5 297.5,-406.5"/>
<text text-anchor="middle" x="325" y="-413.9" font-family="DejaVuSans" font-size="12.00">funcs.h</text>
</a>
</g>
</g>
<!-- Node1&#45;&gt;Node12 -->
<g id="edge15" class="edge">
<title>Node1&#45;&gt;Node12</title>
<path fill="none" stroke="midnightblue" d="M325,-522.28C325,-503.6 325,-462.37 325,-437.72"/>
<polygon fill="midnightblue" stroke="midnightblue" points="328.5,-437.69 325,-427.69 321.5,-437.7 328.5,-437.69"/>
</g>
<!-- Node13 -->
<g id="node13" class="node">
<title>Node13</title>
<g id="a_node13"><a xlink:href="error_8h.html" target="_top" xlink:title=" ">
<polygon fill="white" stroke="black" points="226.5,-464.5 226.5,-485.5 277.5,-485.5 277.5,-464.5 226.5,-464.5"/>
<text text-anchor="middle" x="252" y="-471.9" font-family="DejaVuSans" font-size="12.00">error.h</text>
</a>
</g>
</g>
<!-- Node1&#45;&gt;Node13 -->
<g id="edge17" class="edge">
<title>Node1&#45;&gt;Node13</title>
<path fill="none" stroke="midnightblue" d="M312.28,-522.25C301.4,-513.89 285.51,-501.71 272.78,-491.94"/>
<polygon fill="midnightblue" stroke="midnightblue" points="274.63,-488.95 264.57,-485.64 270.37,-494.51 274.63,-488.95"/>
</g>
<!-- Node14 -->
<g id="node14" class="node">
<title>Node14</title>
<g id="a_node14"><a xlink:href="lexer_8h.html" target="_top" xlink:title=" ">
<polygon fill="white" stroke="black" points="403,-174.5 403,-195.5 455,-195.5 455,-174.5 403,-174.5"/>
<text text-anchor="middle" x="429" y="-181.9" font-family="DejaVuSans" font-size="12.00">lexer.h</text>
</a>
</g>
</g>
<!-- Node1&#45;&gt;Node14 -->
<g id="edge18" class="edge">
<title>Node1&#45;&gt;Node14</title>
<path fill="none" stroke="midnightblue" d="M329.06,-522.43C336.6,-504.32 352.83,-463.63 362,-428 383.99,-342.52 359.13,-313.08 394,-232 398.47,-221.6 405.8,-211.43 412.6,-203.31"/>
<polygon fill="midnightblue" stroke="midnightblue" points="415.35,-205.48 419.35,-195.67 410.11,-200.85 415.35,-205.48"/>
</g>
<!-- Node15 -->
<g id="node15" class="node">
<title>Node15</title>
<g id="a_node15"><a xlink:href="global_8h.html" target="_top" xlink:title=" ">
<polygon fill="white" stroke="black" points="403,-290.5 403,-311.5 461,-311.5 461,-290.5 403,-290.5"/>
<text text-anchor="middle" x="432" y="-297.9" font-family="DejaVuSans" font-size="12.00">global.h</text>
</a>
</g>
</g>
<!-- Node1&#45;&gt;Node15 -->
<g id="edge21" class="edge">
<title>Node1&#45;&gt;Node15</title>
<path fill="none" stroke="midnightblue" d="M349.11,-522.39C364.9,-514.85 384.65,-502.79 396,-486 430.71,-434.66 433.71,-357.91 432.96,-321.94"/>
<polygon fill="midnightblue" stroke="midnightblue" points="436.45,-321.66 432.62,-311.78 429.45,-321.89 436.45,-321.66"/>
</g>
<!-- Node18 -->
<g id="node18" class="node">
<title>Node18</title>
<g id="a_node18"><a xlink:href="fonts_8h.html" target="_top" xlink:title=" ">
<polygon fill="white" stroke="black" points="219,-232.5 219,-253.5 271,-253.5 271,-232.5 219,-232.5"/>
<text text-anchor="middle" x="245" y="-239.9" font-family="DejaVuSans" font-size="12.00">fonts.h</text>
</a>
</g>
</g>
<!-- Node1&#45;&gt;Node18 -->
<g id="edge26" class="edge">
<title>Node1&#45;&gt;Node18</title>
<path fill="none" stroke="midnightblue" d="M321.16,-522.37C314,-504.15 298.37,-463.3 288,-428 270.64,-368.9 255.61,-297.5 248.84,-263.65"/>
<polygon fill="midnightblue" stroke="midnightblue" points="252.24,-262.81 246.86,-253.68 245.37,-264.17 252.24,-262.81"/>
</g>
<!-- Node19 -->
<g id="node19" class="node">
<title>Node19</title>
<g id="a_node19"><a xlink:href="texfunc_8h.html" target="_top" xlink:title=" ">
<polygon fill="white" stroke="black" points="104.5,-348.5 104.5,-369.5 169.5,-369.5 169.5,-348.5 104.5,-348.5"/>
<text text-anchor="middle" x="137" y="-355.9" font-family="DejaVuSans" font-size="12.00">texfunc.h</text>
</a>
</g>
</g>
<!-- Node1&#45;&gt;Node19 -->
<g id="edge29" class="edge">
<title>Node1&#45;&gt;Node19</title>
<path fill="none" stroke="midnightblue" d="M299.47,-530.26C268.32,-526.82 215.87,-516.57 184,-486 153.94,-457.17 142.95,-407.32 139.05,-379.76"/>
<polygon fill="midnightblue" stroke="midnightblue" points="142.51,-379.24 137.81,-369.75 135.57,-380.1 142.51,-379.24"/>
</g>
<!-- Node20 -->
<g id="node20" class="node">
<title>Node20</title>
<g id="a_node20"><a xlink:href="texmath_8h.html" target="_top" xlink:title=" ">
<polygon fill="white" stroke="black" points="722,-406.5 722,-427.5 790,-427.5 790,-406.5 722,-406.5"/>
<text text-anchor="middle" x="756" y="-413.9" font-family="DejaVuSans" font-size="12.00">texmath.h</text>
</a>
</g>
</g>
<!-- Node1&#45;&gt;Node20 -->
<g id="edge31" class="edge">
<title>Node1&#45;&gt;Node20</title>
<path fill="none" stroke="midnightblue" d="M350.5,-531.06C403.62,-528.48 529.46,-519.08 629,-486 667.72,-473.13 708.67,-449.04 733.28,-433.27"/>
<polygon fill="midnightblue" stroke="midnightblue" points="735.41,-436.06 741.88,-427.67 731.59,-430.19 735.41,-436.06"/>
</g>
<!-- Node21 -->
<g id="node21" class="node">
<title>Node21</title>
<g id="a_node21"><a xlink:href="hash_8h.html" target="_top" xlink:title=" ">
<polygon fill="white" stroke="black" points="171.5,-290.5 171.5,-311.5 224.5,-311.5 224.5,-290.5 171.5,-290.5"/>
<text text-anchor="middle" x="198" y="-297.9" font-family="DejaVuSans" font-size="12.00">hash.h</text>
</a>
</g>
</g>
<!-- Node1&#45;&gt;Node21 -->
<g id="edge33" class="edge">
<title>Node1&#45;&gt;Node21</title>
<path fill="none" stroke="midnightblue" d="M299.47,-528.61C274.17,-523.79 236.48,-512.41 217,-486 180.53,-436.56 187.96,-358.27 194.04,-321.85"/>
<polygon fill="midnightblue" stroke="midnightblue" points="197.56,-322.05 195.91,-311.58 190.67,-320.79 197.56,-322.05"/>
</g>
<!-- Node23 -->
<g id="node23" class="node">
<title>Node23</title>
<g id="a_node23"><a xlink:href="mem_8h.html" target="_top" xlink:title=" ">
<polygon fill="white" stroke="black" points="546.5,-348.5 546.5,-369.5 599.5,-369.5 599.5,-348.5 546.5,-348.5"/>
<text text-anchor="middle" x="573" y="-355.9" font-family="DejaVuSans" font-size="12.00">mem.h</text>
</a>
</g>
</g>
<!-- Node1&#45;&gt;Node23 -->
<g id="edge40" class="edge">
<title>Node1&#45;&gt;Node23</title>
<path fill="none" stroke="midnightblue" d="M350.65,-532.13C389.32,-531.02 462.99,-523.66 510,-486 519.12,-478.69 549.77,-412 564.69,-378.72"/>
<polygon fill="midnightblue" stroke="midnightblue" points="567.9,-380.12 568.78,-369.56 561.51,-377.27 567.9,-380.12"/>
</g>
<!-- Node24 -->
<g id="node24" class="node">
<title>Node24</title>
<g id="a_node24"><a xlink:href="print_8h.html" target="_top" xlink:title=" ">
<polygon fill="white" stroke="black" points="570,-464.5 570,-485.5 620,-485.5 620,-464.5 570,-464.5"/>
<text text-anchor="middle" x="595" y="-471.9" font-family="DejaVuSans" font-size="12.00">print.h</text>
</a>
</g>
</g>
<!-- Node1&#45;&gt;Node24 -->
<g id="edge43" class="edge">
<title>Node1&#45;&gt;Node24</title>
<path fill="none" stroke="midnightblue" d="M350.76,-526.74C392.3,-518.25 476.62,-500.96 548,-486 551.84,-485.2 555.86,-484.35 559.85,-483.5"/>
<polygon fill="midnightblue" stroke="midnightblue" points="560.58,-486.93 569.64,-481.43 559.13,-480.08 560.58,-486.93"/>
</g>
<!-- Node4 -->
<g id="node4" class="node">
<title>Node4</title>
<g id="a_node4"><a xlink:href="tex__types_8h.html" target="_top" xlink:title=" ">
<polygon fill="white" stroke="black" points="390.5,-58.5 390.5,-79.5 467.5,-79.5 467.5,-58.5 390.5,-58.5"/>
<text text-anchor="middle" x="429" y="-65.9" font-family="DejaVuSans" font-size="12.00">tex_types.h</text>
</a>
</g>
</g>
<!-- Node3&#45;&gt;Node4 -->
<g id="edge3" class="edge">
<title>Node3&#45;&gt;Node4</title>
<path fill="none" stroke="midnightblue" d="M429,-116.25C429,-108.94 429,-98.69 429,-89.7"/>
<polygon fill="midnightblue" stroke="midnightblue" points="432.5,-89.64 429,-79.64 425.5,-89.64 432.5,-89.64"/>
</g>
<!-- Node7 -->
<g id="node7" class="node">
<title>Node7</title>
<g id="a_node7"><a xlink:href="tex__constant_8h.html" target="_top" xlink:title=" ">
<polygon fill="white" stroke="black" points="148,-58.5 148,-79.5 242,-79.5 242,-58.5 148,-58.5"/>
<text text-anchor="middle" x="195" y="-65.9" font-family="DejaVuSans" font-size="12.00">tex_constant.h</text>
</a>
</g>
</g>
<!-- Node3&#45;&gt;Node7 -->
<g id="edge6" class="edge">
<title>Node3&#45;&gt;Node7</title>
<path fill="none" stroke="midnightblue" d="M407.82,-120.93C371.22,-112.17 295.22,-93.98 244.65,-81.88"/>
<polygon fill="midnightblue" stroke="midnightblue" points="245.44,-78.47 234.9,-79.55 243.81,-85.28 245.44,-78.47"/>
</g>
<!-- Node5 -->
<g id="node5" class="node">
<title>Node5</title>
<g id="a_node5"><a xlink:title=" ">
<polygon fill="white" stroke="#bfbfbf" points="396.5,-0.5 396.5,-21.5 461.5,-21.5 461.5,-0.5 396.5,-0.5"/>
<text text-anchor="middle" x="429" y="-7.9" font-family="DejaVuSans" font-size="12.00">stdbool.h</text>
</a>
</g>
</g>
<!-- Node4&#45;&gt;Node5 -->
<g id="edge4" class="edge">
<title>Node4&#45;&gt;Node5</title>
<path fill="none" stroke="midnightblue" d="M429,-58.25C429,-50.94 429,-40.69 429,-31.7"/>
<polygon fill="midnightblue" stroke="midnightblue" points="432.5,-31.64 429,-21.64 425.5,-31.64 432.5,-31.64"/>
</g>
<!-- Node6 -->
<g id="node6" class="node">
<title>Node6</title>
<g id="a_node6"><a xlink:title=" ">
<polygon fill="white" stroke="#bfbfbf" points="143.5,-0.5 143.5,-21.5 198.5,-21.5 198.5,-0.5 143.5,-0.5"/>
<text text-anchor="middle" x="171" y="-7.9" font-family="DejaVuSans" font-size="12.00">stdint.h</text>
</a>
</g>
</g>
<!-- Node4&#45;&gt;Node6 -->
<g id="edge5" class="edge">
<title>Node4&#45;&gt;Node6</title>
<path fill="none" stroke="midnightblue" d="M390.37,-59.62C341.29,-48.96 257.13,-30.69 208.56,-20.15"/>
<polygon fill="midnightblue" stroke="midnightblue" points="209.28,-16.73 198.76,-18.03 207.79,-23.57 209.28,-16.73"/>
</g>
<!-- Node9&#45;&gt;Node2 -->
<g id="edge9" class="edge">
<title>Node9&#45;&gt;Node2</title>
<path fill="none" stroke="midnightblue" d="M196.67,-232.49C209.67,-224.06 228.04,-210.82 241,-196 253.98,-181.16 264.76,-161.35 271.67,-146.94"/>
<polygon fill="midnightblue" stroke="midnightblue" points="274.99,-148.09 275.99,-137.55 268.63,-145.16 274.99,-148.09"/>
</g>
<!-- Node9&#45;&gt;Node4 -->
<g id="edge14" class="edge">
<title>Node9&#45;&gt;Node4</title>
<path fill="none" stroke="midnightblue" d="M164.26,-232.3C152.24,-224.28 136.98,-211.69 130,-196 119.53,-172.45 143.64,-118.97 147,-116 180.79,-86.14 308.82,-75.49 380.19,-71.83"/>
<polygon fill="midnightblue" stroke="midnightblue" points="380.47,-75.32 390.29,-71.34 380.13,-68.33 380.47,-75.32"/>
</g>
<!-- Node9&#45;&gt;Node6 -->
<g id="edge10" class="edge">
<title>Node9&#45;&gt;Node6</title>
<path fill="none" stroke="midnightblue" d="M161.47,-237.03C123.88,-226.29 42.25,-196.97 9,-138 -23.44,-80.47 76.04,-40.19 133.4,-22.34"/>
<polygon fill="midnightblue" stroke="midnightblue" points="134.68,-25.61 143.24,-19.37 132.66,-18.91 134.68,-25.61"/>
</g>
<!-- Node10 -->
<g id="node10" class="node">
<title>Node10</title>
<g id="a_node10"><a xlink:href="global__const_8h.html" target="_top" xlink:title=" ">
<polygon fill="white" stroke="black" points="139.5,-174.5 139.5,-195.5 232.5,-195.5 232.5,-174.5 139.5,-174.5"/>
<text text-anchor="middle" x="186" y="-181.9" font-family="DejaVuSans" font-size="12.00">global_const.h</text>
</a>
</g>
</g>
<!-- Node9&#45;&gt;Node10 -->
<g id="edge11" class="edge">
<title>Node9&#45;&gt;Node10</title>
<path fill="none" stroke="midnightblue" d="M181.87,-232.25C182.52,-224.94 183.44,-214.69 184.24,-205.7"/>
<polygon fill="midnightblue" stroke="midnightblue" points="187.74,-205.91 185.14,-195.64 180.76,-205.29 187.74,-205.91"/>
</g>
<!-- Node10&#45;&gt;Node2 -->
<g id="edge13" class="edge">
<title>Node10&#45;&gt;Node2</title>
<path fill="none" stroke="midnightblue" d="M202.37,-174.25C216.93,-165.57 238.43,-152.76 255.12,-142.82"/>
<polygon fill="midnightblue" stroke="midnightblue" points="257.01,-145.77 263.81,-137.64 253.43,-139.75 257.01,-145.77"/>
</g>
<!-- Node11 -->
<g id="node11" class="node">
<title>Node11</title>
<g id="a_node11"><a xlink:title=" ">
<polygon fill="white" stroke="#bfbfbf" points="156.5,-116.5 156.5,-137.5 215.5,-137.5 215.5,-116.5 156.5,-116.5"/>
<text text-anchor="middle" x="186" y="-123.9" font-family="DejaVuSans" font-size="12.00">assert.h</text>
</a>
</g>
</g>
<!-- Node10&#45;&gt;Node11 -->
<g id="edge12" class="edge">
<title>Node10&#45;&gt;Node11</title>
<path fill="none" stroke="midnightblue" d="M186,-174.25C186,-166.94 186,-156.69 186,-147.7"/>
<polygon fill="midnightblue" stroke="midnightblue" points="189.5,-147.64 186,-137.64 182.5,-147.64 189.5,-147.64"/>
</g>
<!-- Node12&#45;&gt;Node2 -->
<g id="edge16" class="edge">
<title>Node12&#45;&gt;Node2</title>
<path fill="none" stroke="midnightblue" d="M324.09,-406.25C320.94,-373.34 309.7,-263.43 292,-174 290.26,-165.22 287.84,-155.62 285.63,-147.47"/>
<polygon fill="midnightblue" stroke="midnightblue" points="288.99,-146.48 282.92,-137.79 282.25,-148.37 288.99,-146.48"/>
</g>
<!-- Node14&#45;&gt;Node2 -->
<g id="edge19" class="edge">
<title>Node14&#45;&gt;Node2</title>
<path fill="none" stroke="midnightblue" d="M403.39,-174.37C378.93,-165.18 341.89,-151.26 314.78,-141.07"/>
<polygon fill="midnightblue" stroke="midnightblue" points="315.87,-137.74 305.28,-137.5 313.41,-144.3 315.87,-137.74"/>
</g>
<!-- Node14&#45;&gt;Node3 -->
<g id="edge20" class="edge">
<title>Node14&#45;&gt;Node3</title>
<path fill="none" stroke="midnightblue" d="M429,-174.25C429,-166.94 429,-156.69 429,-147.7"/>
<polygon fill="midnightblue" stroke="midnightblue" points="432.5,-147.64 429,-137.64 425.5,-147.64 432.5,-147.64"/>
</g>
<!-- Node15&#45;&gt;Node9 -->
<g id="edge23" class="edge">
<title>Node15&#45;&gt;Node9</title>
<path fill="none" stroke="midnightblue" d="M402.98,-295.21C362.15,-288.2 285.29,-274.06 210.59,-253.88"/>
<polygon fill="midnightblue" stroke="midnightblue" points="211.12,-250.39 200.55,-251.12 209.27,-257.14 211.12,-250.39"/>
</g>
<!-- Node16 -->
<g id="node16" class="node">
<title>Node16</title>
<g id="a_node16"><a xlink:title=" ">
<polygon fill="white" stroke="#bfbfbf" points="473,-232.5 473,-253.5 535,-253.5 535,-232.5 473,-232.5"/>
<text text-anchor="middle" x="504" y="-239.9" font-family="DejaVuSans" font-size="12.00">setjmp.h</text>
</a>
</g>
</g>
<!-- Node15&#45;&gt;Node16 -->
<g id="edge22" class="edge">
<title>Node15&#45;&gt;Node16</title>
<path fill="none" stroke="midnightblue" d="M444.54,-290.25C455.28,-281.89 470.95,-269.71 483.5,-259.94"/>
<polygon fill="midnightblue" stroke="midnightblue" points="485.86,-262.54 491.6,-253.64 481.56,-257.02 485.86,-262.54"/>
</g>
<!-- Node17 -->
<g id="node17" class="node">
<title>Node17</title>
<g id="a_node17"><a xlink:href="scan_8h.html" target="_top" xlink:title=" ">
<polygon fill="white" stroke="black" points="403,-232.5 403,-253.5 455,-253.5 455,-232.5 403,-232.5"/>
<text text-anchor="middle" x="429" y="-239.9" font-family="DejaVuSans" font-size="12.00">scan.h</text>
</a>
</g>
</g>
<!-- Node15&#45;&gt;Node17 -->
<g id="edge24" class="edge">
<title>Node15&#45;&gt;Node17</title>
<path fill="none" stroke="midnightblue" d="M431.48,-290.25C431.09,-282.94 430.54,-272.69 430.06,-263.7"/>
<polygon fill="midnightblue" stroke="midnightblue" points="433.55,-263.44 429.52,-253.64 426.56,-263.82 433.55,-263.44"/>
</g>
<!-- Node17&#45;&gt;Node14 -->
<g id="edge25" class="edge">
<title>Node17&#45;&gt;Node14</title>
<path fill="none" stroke="midnightblue" d="M429,-232.25C429,-224.94 429,-214.69 429,-205.7"/>
<polygon fill="midnightblue" stroke="midnightblue" points="432.5,-205.64 429,-195.64 425.5,-205.64 432.5,-205.64"/>
</g>
<!-- Node18&#45;&gt;Node2 -->
<g id="edge27" class="edge">
<title>Node18&#45;&gt;Node2</title>
<path fill="none" stroke="midnightblue" d="M253.54,-232.19C260.66,-223.37 270.36,-209.73 275,-196 280.27,-180.4 281.29,-161.69 281.12,-147.84"/>
<polygon fill="midnightblue" stroke="midnightblue" points="284.61,-147.41 280.77,-137.53 277.61,-147.65 284.61,-147.41"/>
</g>
<!-- Node18&#45;&gt;Node10 -->
<g id="edge28" class="edge">
<title>Node18&#45;&gt;Node10</title>
<path fill="none" stroke="midnightblue" d="M234.72,-232.25C226.18,-224.14 213.82,-212.41 203.69,-202.79"/>
<polygon fill="midnightblue" stroke="midnightblue" points="205.82,-199.99 196.16,-195.64 201,-205.07 205.82,-199.99"/>
</g>
<!-- Node19&#45;&gt;Node9 -->
<g id="edge30" class="edge">
<title>Node19&#45;&gt;Node9</title>
<path fill="none" stroke="midnightblue" d="M140.44,-348.27C145.15,-335.03 153.95,-310.62 162,-290 165.44,-281.17 169.43,-271.46 172.85,-263.25"/>
<polygon fill="midnightblue" stroke="midnightblue" points="176.16,-264.4 176.81,-253.83 169.71,-261.69 176.16,-264.4"/>
</g>
<!-- Node20&#45;&gt;Node4 -->
<g id="edge32" class="edge">
<title>Node20&#45;&gt;Node4</title>
<path fill="none" stroke="midnightblue" d="M754.28,-406.28C750.96,-386.64 744,-340.81 744,-302 744,-302 744,-302 744,-184 744,-149.8 735.76,-135.97 708,-116 671.99,-90.09 547.78,-77.84 477.84,-72.87"/>
<polygon fill="midnightblue" stroke="midnightblue" points="477.74,-69.36 467.52,-72.17 477.26,-76.34 477.74,-69.36"/>
</g>
<!-- Node21&#45;&gt;Node3 -->
<g id="edge34" class="edge">
<title>Node21&#45;&gt;Node3</title>
<path fill="none" stroke="midnightblue" d="M217.51,-290.4C234.53,-281.71 259.62,-268.14 280,-254 330.7,-218.82 384.69,-169.91 411.62,-144.62"/>
<polygon fill="midnightblue" stroke="midnightblue" points="414.21,-146.99 419.07,-137.57 409.4,-141.9 414.21,-146.99"/>
</g>
<!-- Node21&#45;&gt;Node9 -->
<g id="edge35" class="edge">
<title>Node21&#45;&gt;Node9</title>
<path fill="none" stroke="midnightblue" d="M195.04,-290.25C192.8,-282.86 189.64,-272.47 186.89,-263.41"/>
<polygon fill="midnightblue" stroke="midnightblue" points="190.18,-262.19 183.93,-253.64 183.48,-264.23 190.18,-262.19"/>
</g>
<!-- Node21&#45;&gt;Node18 -->
<g id="edge36" class="edge">
<title>Node21&#45;&gt;Node18</title>
<path fill="none" stroke="midnightblue" d="M206.19,-290.25C212.86,-282.3 222.45,-270.87 230.43,-261.37"/>
<polygon fill="midnightblue" stroke="midnightblue" points="233.16,-263.55 236.91,-253.64 227.8,-259.05 233.16,-263.55"/>
</g>
<!-- Node22 -->
<g id="node22" class="node">
<title>Node22</title>
<g id="a_node22"><a xlink:href="eqtb_8h.html" target="_top" xlink:title=" ">
<polygon fill="white" stroke="black" points="18,-116.5 18,-137.5 68,-137.5 68,-116.5 18,-116.5"/>
<text text-anchor="middle" x="43" y="-123.9" font-family="DejaVuSans" font-size="12.00">eqtb.h</text>
</a>
</g>
</g>
<!-- Node21&#45;&gt;Node22 -->
<g id="edge37" class="edge">
<title>Node21&#45;&gt;Node22</title>
<path fill="none" stroke="midnightblue" d="M177.4,-290.46C146.63,-275.09 89.05,-241.89 59,-196 49.56,-181.59 45.67,-162.24 44.08,-147.86"/>
<polygon fill="midnightblue" stroke="midnightblue" points="47.54,-147.27 43.23,-137.59 40.57,-147.85 47.54,-147.27"/>
</g>
<!-- Node22&#45;&gt;Node4 -->
<g id="edge38" class="edge">
<title>Node22&#45;&gt;Node4</title>
<path fill="none" stroke="midnightblue" d="M68.08,-119.1C72.68,-117.97 77.47,-116.88 82,-116 187.33,-95.59 312.42,-81.45 379.92,-74.64"/>
<polygon fill="midnightblue" stroke="midnightblue" points="380.64,-78.09 390.25,-73.61 379.95,-71.12 380.64,-78.09"/>
</g>
<!-- Node22&#45;&gt;Node7 -->
<g id="edge39" class="edge">
<title>Node22&#45;&gt;Node7</title>
<path fill="none" stroke="midnightblue" d="M68.1,-116.75C93.07,-107.55 131.6,-93.36 159.65,-83.02"/>
<polygon fill="midnightblue" stroke="midnightblue" points="160.93,-86.28 169.1,-79.54 158.51,-79.72 160.93,-86.28"/>
</g>
<!-- Node23&#45;&gt;Node4 -->
<g id="edge41" class="edge">
<title>Node23&#45;&gt;Node4</title>
<path fill="none" stroke="midnightblue" d="M577.01,-348.44C584.75,-329.08 601,-283.74 601,-244 601,-244 601,-244 601,-184 601,-124.39 528.32,-94.1 477.46,-80.21"/>
<polygon fill="midnightblue" stroke="midnightblue" points="478.16,-76.78 467.6,-77.65 476.4,-83.55 478.16,-76.78"/>
</g>
<!-- Node23&#45;&gt;Node15 -->
<g id="edge42" class="edge">
<title>Node23&#45;&gt;Node15</title>
<path fill="none" stroke="midnightblue" d="M548.76,-348.37C525.72,-339.22 490.88,-325.38 465.25,-315.21"/>
<polygon fill="midnightblue" stroke="midnightblue" points="466.51,-311.94 455.92,-311.5 463.92,-318.45 466.51,-311.94"/>
</g>
<!-- Node24&#45;&gt;Node3 -->
<g id="edge45" class="edge">
<title>Node24&#45;&gt;Node3</title>
<path fill="none" stroke="midnightblue" d="M606.59,-464.17C616.07,-455.54 629.13,-442.19 637,-428 652.22,-400.56 656,-391.38 656,-360 656,-360 656,-360 656,-242 656,-155.5 522.73,-134.63 460.42,-129.6"/>
<polygon fill="midnightblue" stroke="midnightblue" points="460.58,-126.1 450.36,-128.87 460.08,-133.08 460.58,-126.1"/>
</g>
<!-- Node24&#45;&gt;Node4 -->
<g id="edge44" class="edge">
<title>Node24&#45;&gt;Node4</title>
<path fill="none" stroke="midnightblue" d="M612.7,-464.3C641.18,-447.25 694,-409.02 694,-360 694,-360 694,-360 694,-184 694,-90.96 554.47,-72.92 477.9,-70.03"/>
<polygon fill="midnightblue" stroke="midnightblue" points="477.63,-66.52 467.53,-69.71 477.42,-73.51 477.63,-66.52"/>
</g>
<!-- Node24&#45;&gt;Node9 -->
<g id="edge48" class="edge">
<title>Node24&#45;&gt;Node9</title>
<path fill="none" stroke="midnightblue" d="M577.74,-464.41C513.17,-428.54 285.57,-302.09 207.51,-258.73"/>
<polygon fill="midnightblue" stroke="midnightblue" points="208.78,-255.43 198.34,-253.63 205.38,-261.55 208.78,-255.43"/>
</g>
<!-- Node25 -->
<g id="node25" class="node">
<title>Node25</title>
<g id="a_node25"><a xlink:href="texmac_8h.html" target="_top" xlink:title=" ">
<polygon fill="white" stroke="black" points="562.5,-406.5 562.5,-427.5 627.5,-427.5 627.5,-406.5 562.5,-406.5"/>
<text text-anchor="middle" x="595" y="-413.9" font-family="DejaVuSans" font-size="12.00">texmac.h</text>
</a>
</g>
</g>
<!-- Node24&#45;&gt;Node25 -->
<g id="edge46" class="edge">
<title>Node24&#45;&gt;Node25</title>
<path fill="none" stroke="midnightblue" d="M595,-464.25C595,-456.94 595,-446.69 595,-437.7"/>
<polygon fill="midnightblue" stroke="midnightblue" points="598.5,-437.64 595,-427.64 591.5,-437.64 598.5,-437.64"/>
</g>
<!-- Node25&#45;&gt;Node23 -->
<g id="edge47" class="edge">
<title>Node25&#45;&gt;Node23</title>
<path fill="none" stroke="midnightblue" d="M591.17,-406.25C588.23,-398.78 584.1,-388.24 580.51,-379.11"/>
<polygon fill="midnightblue" stroke="midnightblue" points="583.7,-377.67 576.79,-369.64 577.19,-380.23 583.7,-377.67"/>
</g>
</g>
</svg>
