<?xml version="1.0" encoding="UTF-8" standalone="no"?>
<!DOCTYPE svg PUBLIC "-//W3C//DTD SVG 1.1//EN"
 "http://www.w3.org/Graphics/SVG/1.1/DTD/svg11.dtd">
<!-- Generated by graphviz version 2.44.0 ()
 -->
<!-- Title: fonts.c Pages: 1 -->
<svg width="466pt" height="262pt"
 viewBox="0.00 0.00 465.50 262.00" xmlns="http://www.w3.org/2000/svg" xmlns:xlink="http://www.w3.org/1999/xlink">
<g id="graph0" class="graph" transform="scale(1 1) rotate(0) translate(4 258)">
<title>fonts.c</title>
<polygon fill="white" stroke="transparent" points="-4,4 -4,-258 461.5,-258 461.5,4 -4,4"/>
<!-- Node1 -->
<g id="node1" class="node">
<title>Node1</title>
<g id="a_node1"><a xlink:title=" ">
<polygon fill="#bfbfbf" stroke="black" points="166,-232.5 166,-253.5 217,-253.5 217,-232.5 166,-232.5"/>
<text text-anchor="middle" x="191.5" y="-239.9" font-family="DejaVuSans" font-size="12.00">fonts.c</text>
</a>
</g>
</g>
<!-- Node2 -->
<g id="node2" class="node">
<title>Node2</title>
<g id="a_node2"><a xlink:title=" ">
<polygon fill="white" stroke="#bfbfbf" points="38.5,-58.5 38.5,-79.5 90.5,-79.5 90.5,-58.5 38.5,-58.5"/>
<text text-anchor="middle" x="64.5" y="-65.9" font-family="DejaVuSans" font-size="12.00">stdio.h</text>
</a>
</g>
</g>
<!-- Node1&#45;&gt;Node2 -->
<g id="edge1" class="edge">
<title>Node1&#45;&gt;Node2</title>
<path fill="none" stroke="midnightblue" d="M182.22,-232.49C165.22,-214.8 128.45,-175.24 102.5,-138 91.42,-122.11 80.85,-102.71 73.68,-88.71"/>
<polygon fill="midnightblue" stroke="midnightblue" points="76.71,-86.96 69.1,-79.59 70.46,-90.1 76.71,-86.96"/>
</g>
<!-- Node3 -->
<g id="node3" class="node">
<title>Node3</title>
<g id="a_node3"><a xlink:href="tex_8h.html" target="_top" xlink:title=" ">
<polygon fill="white" stroke="black" points="313.5,-174.5 313.5,-195.5 355.5,-195.5 355.5,-174.5 313.5,-174.5"/>
<text text-anchor="middle" x="334.5" y="-181.9" font-family="DejaVuSans" font-size="12.00">tex.h</text>
</a>
</g>
</g>
<!-- Node1&#45;&gt;Node3 -->
<g id="edge2" class="edge">
<title>Node1&#45;&gt;Node3</title>
<path fill="none" stroke="midnightblue" d="M216.08,-232.37C240.44,-222.83 277.81,-208.2 304.03,-197.93"/>
<polygon fill="midnightblue" stroke="midnightblue" points="305.46,-201.13 313.49,-194.23 302.9,-194.61 305.46,-201.13"/>
</g>
<!-- Node8 -->
<g id="node8" class="node">
<title>Node8</title>
<g id="a_node8"><a xlink:href="macros_8h.html" target="_top" xlink:title=" ">
<polygon fill="white" stroke="black" points="374,-174.5 374,-195.5 439,-195.5 439,-174.5 374,-174.5"/>
<text text-anchor="middle" x="406.5" y="-181.9" font-family="DejaVuSans" font-size="12.00">macros.h</text>
</a>
</g>
</g>
<!-- Node1&#45;&gt;Node8 -->
<g id="edge7" class="edge">
<title>Node1&#45;&gt;Node8</title>
<path fill="none" stroke="midnightblue" d="M217.01,-235.36C253.23,-225.92 320.03,-208.52 363.86,-197.11"/>
<polygon fill="midnightblue" stroke="midnightblue" points="364.86,-200.46 373.65,-194.56 363.09,-193.69 364.86,-200.46"/>
</g>
<!-- Node9 -->
<g id="node9" class="node">
<title>Node9</title>
<g id="a_node9"><a xlink:href="str_8h.html" target="_top" xlink:title=" ">
<polygon fill="white" stroke="black" points="182,-116.5 182,-137.5 221,-137.5 221,-116.5 182,-116.5"/>
<text text-anchor="middle" x="201.5" y="-123.9" font-family="DejaVuSans" font-size="12.00">str.h</text>
</a>
</g>
</g>
<!-- Node1&#45;&gt;Node9 -->
<g id="edge8" class="edge">
<title>Node1&#45;&gt;Node9</title>
<path fill="none" stroke="midnightblue" d="M187.64,-232.25C182.9,-219 176.03,-194.57 180.5,-174 182.54,-164.61 186.68,-154.84 190.74,-146.73"/>
<polygon fill="midnightblue" stroke="midnightblue" points="193.89,-148.27 195.52,-137.8 187.72,-144.96 193.89,-148.27"/>
</g>
<!-- Node12 -->
<g id="node12" class="node">
<title>Node12</title>
<g id="a_node12"><a xlink:href="funcs_8h.html" target="_top" xlink:title=" ">
<polygon fill="white" stroke="black" points="0,-174.5 0,-195.5 55,-195.5 55,-174.5 0,-174.5"/>
<text text-anchor="middle" x="27.5" y="-181.9" font-family="DejaVuSans" font-size="12.00">funcs.h</text>
</a>
</g>
</g>
<!-- Node1&#45;&gt;Node12 -->
<g id="edge14" class="edge">
<title>Node1&#45;&gt;Node12</title>
<path fill="none" stroke="midnightblue" d="M165.88,-233.25C138.72,-223.98 95.59,-209.25 64.7,-198.7"/>
<polygon fill="midnightblue" stroke="midnightblue" points="65.73,-195.36 55.13,-195.44 63.47,-201.98 65.73,-195.36"/>
</g>
<!-- Node13 -->
<g id="node13" class="node">
<title>Node13</title>
<g id="a_node13"><a xlink:href="fonts_8h.html" target="_top" xlink:title=" ">
<polygon fill="white" stroke="black" points="111.5,-116.5 111.5,-137.5 163.5,-137.5 163.5,-116.5 111.5,-116.5"/>
<text text-anchor="middle" x="137.5" y="-123.9" font-family="DejaVuSans" font-size="12.00">fonts.h</text>
</a>
</g>
</g>
<!-- Node1&#45;&gt;Node13 -->
<g id="edge16" class="edge">
<title>Node1&#45;&gt;Node13</title>
<path fill="none" stroke="midnightblue" d="M186.9,-232.28C177.97,-213.43 158.16,-171.62 146.53,-147.05"/>
<polygon fill="midnightblue" stroke="midnightblue" points="149.54,-145.23 142.09,-137.69 143.21,-148.23 149.54,-145.23"/>
</g>
<!-- Node14 -->
<g id="node14" class="node">
<title>Node14</title>
<g id="a_node14"><a xlink:href="texfunc_8h.html" target="_top" xlink:title=" ">
<polygon fill="white" stroke="black" points="190,-174.5 190,-195.5 255,-195.5 255,-174.5 190,-174.5"/>
<text text-anchor="middle" x="222.5" y="-181.9" font-family="DejaVuSans" font-size="12.00">texfunc.h</text>
</a>
</g>
</g>
<!-- Node1&#45;&gt;Node14 -->
<g id="edge19" class="edge">
<title>Node1&#45;&gt;Node14</title>
<path fill="none" stroke="midnightblue" d="M196.9,-232.25C201.12,-224.62 207.12,-213.79 212.24,-204.53"/>
<polygon fill="midnightblue" stroke="midnightblue" points="215.38,-206.09 217.16,-195.64 209.26,-202.7 215.38,-206.09"/>
</g>
<!-- Node15 -->
<g id="node15" class="node">
<title>Node15</title>
<g id="a_node15"><a xlink:href="texmath_8h.html" target="_top" xlink:title=" ">
<polygon fill="white" stroke="black" points="239.5,-116.5 239.5,-137.5 307.5,-137.5 307.5,-116.5 239.5,-116.5"/>
<text text-anchor="middle" x="273.5" y="-123.9" font-family="DejaVuSans" font-size="12.00">texmath.h</text>
</a>
</g>
</g>
<!-- Node1&#45;&gt;Node15 -->
<g id="edge21" class="edge">
<title>Node1&#45;&gt;Node15</title>
<path fill="none" stroke="midnightblue" d="M217.34,-232.46C233.59,-225.06 253.51,-213.15 264.5,-196 273.63,-181.76 275.4,-162.39 275.16,-147.97"/>
<polygon fill="midnightblue" stroke="midnightblue" points="278.64,-147.46 274.65,-137.65 271.65,-147.81 278.64,-147.46"/>
</g>
<!-- Node4 -->
<g id="node4" class="node">
<title>Node4</title>
<g id="a_node4"><a xlink:href="tex__types_8h.html" target="_top" xlink:title=" ">
<polygon fill="white" stroke="black" points="259,-58.5 259,-79.5 336,-79.5 336,-58.5 259,-58.5"/>
<text text-anchor="middle" x="297.5" y="-65.9" font-family="DejaVuSans" font-size="12.00">tex_types.h</text>
</a>
</g>
</g>
<!-- Node3&#45;&gt;Node4 -->
<g id="edge3" class="edge">
<title>Node3&#45;&gt;Node4</title>
<path fill="none" stroke="midnightblue" d="M332.34,-174.2C329.3,-160.87 323.37,-136.37 316.5,-116 313.47,-107.02 309.55,-97.29 306.06,-89.1"/>
<polygon fill="midnightblue" stroke="midnightblue" points="309.17,-87.49 301.96,-79.73 302.76,-90.29 309.17,-87.49"/>
</g>
<!-- Node7 -->
<g id="node7" class="node">
<title>Node7</title>
<g id="a_node7"><a xlink:href="tex__constant_8h.html" target="_top" xlink:title=" ">
<polygon fill="white" stroke="black" points="363.5,-116.5 363.5,-137.5 457.5,-137.5 457.5,-116.5 363.5,-116.5"/>
<text text-anchor="middle" x="410.5" y="-123.9" font-family="DejaVuSans" font-size="12.00">tex_constant.h</text>
</a>
</g>
</g>
<!-- Node3&#45;&gt;Node7 -->
<g id="edge6" class="edge">
<title>Node3&#45;&gt;Node7</title>
<path fill="none" stroke="midnightblue" d="M347.74,-174.25C359.18,-165.81 375.93,-153.47 389.25,-143.66"/>
<polygon fill="midnightblue" stroke="midnightblue" points="391.44,-146.39 397.41,-137.64 387.29,-140.76 391.44,-146.39"/>
</g>
<!-- Node5 -->
<g id="node5" class="node">
<title>Node5</title>
<g id="a_node5"><a xlink:title=" ">
<polygon fill="white" stroke="#bfbfbf" points="276,-0.5 276,-21.5 341,-21.5 341,-0.5 276,-0.5"/>
<text text-anchor="middle" x="308.5" y="-7.9" font-family="DejaVuSans" font-size="12.00">stdbool.h</text>
</a>
</g>
</g>
<!-- Node4&#45;&gt;Node5 -->
<g id="edge4" class="edge">
<title>Node4&#45;&gt;Node5</title>
<path fill="none" stroke="midnightblue" d="M299.42,-58.25C300.85,-50.94 302.86,-40.69 304.63,-31.7"/>
<polygon fill="midnightblue" stroke="midnightblue" points="308.11,-32.13 306.61,-21.64 301.24,-30.78 308.11,-32.13"/>
</g>
<!-- Node6 -->
<g id="node6" class="node">
<title>Node6</title>
<g id="a_node6"><a xlink:title=" ">
<polygon fill="white" stroke="#bfbfbf" points="203,-0.5 203,-21.5 258,-21.5 258,-0.5 203,-0.5"/>
<text text-anchor="middle" x="230.5" y="-7.9" font-family="DejaVuSans" font-size="12.00">stdint.h</text>
</a>
</g>
</g>
<!-- Node4&#45;&gt;Node6 -->
<g id="edge5" class="edge">
<title>Node4&#45;&gt;Node6</title>
<path fill="none" stroke="midnightblue" d="M285.83,-58.25C275.93,-49.97 261.54,-37.94 249.91,-28.22"/>
<polygon fill="midnightblue" stroke="midnightblue" points="251.95,-25.37 242.04,-21.64 247.47,-30.74 251.95,-25.37"/>
</g>
<!-- Node9&#45;&gt;Node2 -->
<g id="edge9" class="edge">
<title>Node9&#45;&gt;Node2</title>
<path fill="none" stroke="midnightblue" d="M181.87,-117.98C159.83,-108.97 123.69,-94.2 97.33,-83.42"/>
<polygon fill="midnightblue" stroke="midnightblue" points="98.34,-80.05 87.76,-79.51 95.69,-86.53 98.34,-80.05"/>
</g>
<!-- Node9&#45;&gt;Node4 -->
<g id="edge13" class="edge">
<title>Node9&#45;&gt;Node4</title>
<path fill="none" stroke="midnightblue" d="M218.22,-116.25C233.09,-107.57 255.05,-94.76 272.09,-84.82"/>
<polygon fill="midnightblue" stroke="midnightblue" points="274.1,-87.7 280.97,-79.64 270.57,-81.66 274.1,-87.7"/>
</g>
<!-- Node9&#45;&gt;Node6 -->
<g id="edge10" class="edge">
<title>Node9&#45;&gt;Node6</title>
<path fill="none" stroke="midnightblue" d="M203.97,-116.28C208.72,-97.6 219.21,-56.37 225.48,-31.72"/>
<polygon fill="midnightblue" stroke="midnightblue" points="228.96,-32.25 228.03,-21.69 222.18,-30.52 228.96,-32.25"/>
</g>
<!-- Node10 -->
<g id="node10" class="node">
<title>Node10</title>
<g id="a_node10"><a xlink:href="global__const_8h.html" target="_top" xlink:title=" ">
<polygon fill="white" stroke="black" points="109,-58.5 109,-79.5 202,-79.5 202,-58.5 109,-58.5"/>
<text text-anchor="middle" x="155.5" y="-65.9" font-family="DejaVuSans" font-size="12.00">global_const.h</text>
</a>
</g>
</g>
<!-- Node9&#45;&gt;Node10 -->
<g id="edge11" class="edge">
<title>Node9&#45;&gt;Node10</title>
<path fill="none" stroke="midnightblue" d="M193.49,-116.25C187.02,-108.38 177.76,-97.1 170,-87.65"/>
<polygon fill="midnightblue" stroke="midnightblue" points="172.47,-85.15 163.42,-79.64 167.06,-89.59 172.47,-85.15"/>
</g>
<!-- Node11 -->
<g id="node11" class="node">
<title>Node11</title>
<g id="a_node11"><a xlink:title=" ">
<polygon fill="white" stroke="#bfbfbf" points="126,-0.5 126,-21.5 185,-21.5 185,-0.5 126,-0.5"/>
<text text-anchor="middle" x="155.5" y="-7.9" font-family="DejaVuSans" font-size="12.00">assert.h</text>
</a>
</g>
</g>
<!-- Node10&#45;&gt;Node11 -->
<g id="edge12" class="edge">
<title>Node10&#45;&gt;Node11</title>
<path fill="none" stroke="midnightblue" d="M155.5,-58.25C155.5,-50.94 155.5,-40.69 155.5,-31.7"/>
<polygon fill="midnightblue" stroke="midnightblue" points="159,-31.64 155.5,-21.64 152,-31.64 159,-31.64"/>
</g>
<!-- Node12&#45;&gt;Node2 -->
<g id="edge15" class="edge">
<title>Node12&#45;&gt;Node2</title>
<path fill="none" stroke="midnightblue" d="M30.65,-174.28C36.74,-155.52 50.22,-114 58.21,-89.38"/>
<polygon fill="midnightblue" stroke="midnightblue" points="61.6,-90.29 61.35,-79.69 54.94,-88.13 61.6,-90.29"/>
</g>
<!-- Node13&#45;&gt;Node2 -->
<g id="edge17" class="edge">
<title>Node13&#45;&gt;Node2</title>
<path fill="none" stroke="midnightblue" d="M124.78,-116.25C113.9,-107.89 98.01,-95.71 85.28,-85.94"/>
<polygon fill="midnightblue" stroke="midnightblue" points="87.13,-82.95 77.07,-79.64 82.87,-88.51 87.13,-82.95"/>
</g>
<!-- Node13&#45;&gt;Node10 -->
<g id="edge18" class="edge">
<title>Node13&#45;&gt;Node10</title>
<path fill="none" stroke="midnightblue" d="M140.64,-116.25C143.01,-108.86 146.35,-98.47 149.26,-89.41"/>
<polygon fill="midnightblue" stroke="midnightblue" points="152.67,-90.23 152.4,-79.64 146.01,-88.09 152.67,-90.23"/>
</g>
<!-- Node14&#45;&gt;Node9 -->
<g id="edge20" class="edge">
<title>Node14&#45;&gt;Node9</title>
<path fill="none" stroke="midnightblue" d="M218.84,-174.25C216.04,-166.78 212.09,-156.24 208.67,-147.11"/>
<polygon fill="midnightblue" stroke="midnightblue" points="211.9,-145.78 205.12,-137.64 205.35,-148.23 211.9,-145.78"/>
</g>
<!-- Node15&#45;&gt;Node4 -->
<g id="edge22" class="edge">
<title>Node15&#45;&gt;Node4</title>
<path fill="none" stroke="midnightblue" d="M277.68,-116.25C280.88,-108.78 285.4,-98.24 289.31,-89.11"/>
<polygon fill="midnightblue" stroke="midnightblue" points="292.65,-90.21 293.37,-79.64 286.21,-87.46 292.65,-90.21"/>
</g>
</g>
</svg>
