<?xml version="1.0" encoding="UTF-8" standalone="no"?>
<!DOCTYPE svg PUBLIC "-//W3C//DTD SVG 1.1//EN"
 "http://www.w3.org/Graphics/SVG/1.1/DTD/svg11.dtd">
<!-- Generated by graphviz version 2.44.0 ()
 -->
<!-- Title: fonts.h Pages: 1 -->
<svg width="586pt" height="204pt"
 viewBox="0.00 0.00 586.00 204.00" xmlns="http://www.w3.org/2000/svg" xmlns:xlink="http://www.w3.org/1999/xlink">
<g id="graph0" class="graph" transform="scale(1 1) rotate(0) translate(4 200)">
<title>fonts.h</title>
<polygon fill="white" stroke="transparent" points="-4,4 -4,-200 582,-200 582,4 -4,4"/>
<!-- Node1 -->
<g id="node1" class="node">
<title>Node1</title>
<g id="a_node1"><a xlink:title=" ">
<polygon fill="#bfbfbf" stroke="black" points="206,-174.5 206,-195.5 258,-195.5 258,-174.5 206,-174.5"/>
<text text-anchor="middle" x="232" y="-181.9" font-family="DejaVuSans" font-size="12.00">fonts.h</text>
</a>
</g>
</g>
<!-- Node2 -->
<g id="node2" class="node">
<title>Node2</title>
<g id="a_node2"><a xlink:href="dviout_8c.html" target="_top" xlink:title=" ">
<polygon fill="white" stroke="black" points="0,-58.5 0,-79.5 58,-79.5 58,-58.5 0,-58.5"/>
<text text-anchor="middle" x="29" y="-65.9" font-family="DejaVuSans" font-size="12.00">dviout.c</text>
</a>
</g>
</g>
<!-- Node1&#45;&gt;Node2 -->
<g id="edge1" class="edge">
<title>Node1&#45;&gt;Node2</title>
<path fill="none" stroke="midnightblue" d="M195.59,-179.9C162.39,-174.68 113.29,-163.1 78,-138 56.42,-122.65 40.76,-94.76 33.51,-79.91"/>
<polygon fill="midnightblue" stroke="midnightblue" points="195.37,-183.4 205.77,-181.38 196.38,-176.48 195.37,-183.4"/>
</g>
<!-- Node3 -->
<g id="node3" class="node">
<title>Node3</title>
<g id="a_node3"><a xlink:href="dviout_8h.html" target="_top" xlink:title=" ">
<polygon fill="white" stroke="black" points="87.5,-116.5 87.5,-137.5 146.5,-137.5 146.5,-116.5 87.5,-116.5"/>
<text text-anchor="middle" x="117" y="-123.9" font-family="DejaVuSans" font-size="12.00">dviout.h</text>
</a>
</g>
</g>
<!-- Node1&#45;&gt;Node3 -->
<g id="edge2" class="edge">
<title>Node1&#45;&gt;Node3</title>
<path fill="none" stroke="midnightblue" d="M203.2,-169.97C182.38,-159.83 154.8,-146.41 136.51,-137.5"/>
<polygon fill="midnightblue" stroke="midnightblue" points="201.71,-173.14 212.23,-174.37 204.77,-166.85 201.71,-173.14"/>
</g>
<!-- Node4 -->
<g id="node4" class="node">
<title>Node4</title>
<g id="a_node4"><a xlink:href="tex__header_8h.html" target="_top" xlink:title=" ">
<polygon fill="white" stroke="black" points="76,-58.5 76,-79.5 162,-79.5 162,-58.5 76,-58.5"/>
<text text-anchor="middle" x="119" y="-65.9" font-family="DejaVuSans" font-size="12.00">tex_header.h</text>
</a>
</g>
</g>
<!-- Node1&#45;&gt;Node4 -->
<g id="edge18" class="edge">
<title>Node1&#45;&gt;Node4</title>
<path fill="none" stroke="midnightblue" d="M215.32,-167.17C191.32,-142.96 147.85,-99.11 128.61,-79.69"/>
<polygon fill="midnightblue" stroke="midnightblue" points="212.84,-169.64 222.37,-174.28 217.81,-164.71 212.84,-169.64"/>
</g>
<!-- Node6 -->
<g id="node6" class="node">
<title>Node6</title>
<g id="a_node6"><a xlink:href="expand_8c.html" target="_top" xlink:title=" ">
<polygon fill="white" stroke="black" points="180.5,-58.5 180.5,-79.5 245.5,-79.5 245.5,-58.5 180.5,-58.5"/>
<text text-anchor="middle" x="213" y="-65.9" font-family="DejaVuSans" font-size="12.00">expand.c</text>
</a>
</g>
</g>
<!-- Node1&#45;&gt;Node6 -->
<g id="edge6" class="edge">
<title>Node1&#45;&gt;Node6</title>
<path fill="none" stroke="midnightblue" d="M228.71,-164.25C224.6,-139.58 217.73,-98.35 214.62,-79.69"/>
<polygon fill="midnightblue" stroke="midnightblue" points="225.28,-164.99 230.38,-174.28 232.19,-163.84 225.28,-164.99"/>
</g>
<!-- Node7 -->
<g id="node7" class="node">
<title>Node7</title>
<g id="a_node7"><a xlink:href="fonts_8c.html" target="_top" xlink:title=" ">
<polygon fill="white" stroke="black" points="263.5,-58.5 263.5,-79.5 314.5,-79.5 314.5,-58.5 263.5,-58.5"/>
<text text-anchor="middle" x="289" y="-65.9" font-family="DejaVuSans" font-size="12.00">fonts.c</text>
</a>
</g>
</g>
<!-- Node1&#45;&gt;Node7 -->
<g id="edge7" class="edge">
<title>Node1&#45;&gt;Node7</title>
<path fill="none" stroke="midnightblue" d="M241.38,-165.24C253.65,-140.7 274.7,-98.6 284.15,-79.69"/>
<polygon fill="midnightblue" stroke="midnightblue" points="238.2,-163.77 236.86,-174.28 244.46,-166.9 238.2,-163.77"/>
</g>
<!-- Node8 -->
<g id="node8" class="node">
<title>Node8</title>
<g id="a_node8"><a xlink:href="hash_8h.html" target="_top" xlink:title=" ">
<polygon fill="white" stroke="black" points="279.5,-116.5 279.5,-137.5 332.5,-137.5 332.5,-116.5 279.5,-116.5"/>
<text text-anchor="middle" x="306" y="-123.9" font-family="DejaVuSans" font-size="12.00">hash.h</text>
</a>
</g>
</g>
<!-- Node1&#45;&gt;Node8 -->
<g id="edge8" class="edge">
<title>Node1&#45;&gt;Node8</title>
<path fill="none" stroke="midnightblue" d="M252.87,-168.21C265.86,-158.37 282.16,-146.04 293.26,-137.64"/>
<polygon fill="midnightblue" stroke="midnightblue" points="250.75,-165.42 244.89,-174.25 254.98,-171 250.75,-165.42"/>
</g>
<!-- Node13 -->
<g id="node13" class="node">
<title>Node13</title>
<g id="a_node13"><a xlink:href="printout_8c.html" target="_top" xlink:title=" ">
<polygon fill="white" stroke="black" points="350.5,-116.5 350.5,-137.5 415.5,-137.5 415.5,-116.5 350.5,-116.5"/>
<text text-anchor="middle" x="383" y="-123.9" font-family="DejaVuSans" font-size="12.00">printout.c</text>
</a>
</g>
</g>
<!-- Node1&#45;&gt;Node13 -->
<g id="edge16" class="edge">
<title>Node1&#45;&gt;Node13</title>
<path fill="none" stroke="midnightblue" d="M267.62,-170.79C295.19,-160.56 332.71,-146.65 357.38,-137.5"/>
<polygon fill="midnightblue" stroke="midnightblue" points="266.12,-167.61 257.96,-174.37 268.55,-174.18 266.12,-167.61"/>
</g>
<!-- Node14 -->
<g id="node14" class="node">
<title>Node14</title>
<g id="a_node14"><a xlink:href="scan_8c.html" target="_top" xlink:title=" ">
<polygon fill="white" stroke="black" points="433.5,-116.5 433.5,-137.5 484.5,-137.5 484.5,-116.5 433.5,-116.5"/>
<text text-anchor="middle" x="459" y="-123.9" font-family="DejaVuSans" font-size="12.00">scan.c</text>
</a>
</g>
</g>
<!-- Node1&#45;&gt;Node14 -->
<g id="edge17" class="edge">
<title>Node1&#45;&gt;Node14</title>
<path fill="none" stroke="midnightblue" d="M267.81,-176.05C306.67,-167.29 370.46,-152.51 425,-138 427.74,-137.27 430.59,-136.48 433.42,-135.68"/>
<polygon fill="midnightblue" stroke="midnightblue" points="267.01,-172.64 258.02,-178.25 268.54,-179.47 267.01,-172.64"/>
</g>
<!-- Node3&#45;&gt;Node2 -->
<g id="edge3" class="edge">
<title>Node3&#45;&gt;Node2</title>
<path fill="none" stroke="midnightblue" d="M93.07,-110.77C77.47,-100.85 57.6,-88.2 44.15,-79.64"/>
<polygon fill="midnightblue" stroke="midnightblue" points="91.36,-113.83 101.67,-116.25 95.11,-107.92 91.36,-113.83"/>
</g>
<!-- Node3&#45;&gt;Node4 -->
<g id="edge4" class="edge">
<title>Node3&#45;&gt;Node4</title>
<path fill="none" stroke="midnightblue" d="M117.71,-106.16C118.03,-97.16 118.4,-86.92 118.66,-79.64"/>
<polygon fill="midnightblue" stroke="midnightblue" points="114.21,-106.13 117.35,-116.25 121.2,-106.38 114.21,-106.13"/>
</g>
<!-- Node5 -->
<g id="node5" class="node">
<title>Node5</title>
<g id="a_node5"><a xlink:href="tex_8c.html" target="_top" xlink:title=" ">
<polygon fill="white" stroke="black" points="98.5,-0.5 98.5,-21.5 139.5,-21.5 139.5,-0.5 98.5,-0.5"/>
<text text-anchor="middle" x="119" y="-7.9" font-family="DejaVuSans" font-size="12.00">tex.c</text>
</a>
</g>
</g>
<!-- Node4&#45;&gt;Node5 -->
<g id="edge5" class="edge">
<title>Node4&#45;&gt;Node5</title>
<path fill="none" stroke="midnightblue" d="M119,-48.16C119,-39.16 119,-28.92 119,-21.64"/>
<polygon fill="midnightblue" stroke="midnightblue" points="115.5,-48.25 119,-58.25 122.5,-48.25 115.5,-48.25"/>
</g>
<!-- Node8&#45;&gt;Node4 -->
<g id="edge15" class="edge">
<title>Node8&#45;&gt;Node4</title>
<path fill="none" stroke="midnightblue" d="M269.5,-115.07C234.96,-104.73 183.64,-89.36 150.75,-79.51"/>
<polygon fill="midnightblue" stroke="midnightblue" points="268.62,-118.46 279.21,-117.98 270.63,-111.75 268.62,-118.46"/>
</g>
<!-- Node8&#45;&gt;Node6 -->
<g id="edge10" class="edge">
<title>Node8&#45;&gt;Node6</title>
<path fill="none" stroke="midnightblue" d="M281.17,-111.05C264.62,-101.08 243.36,-88.28 229.01,-79.64"/>
<polygon fill="midnightblue" stroke="midnightblue" points="279.43,-114.09 289.8,-116.25 283.04,-108.09 279.43,-114.09"/>
</g>
<!-- Node8&#45;&gt;Node7 -->
<g id="edge11" class="edge">
<title>Node8&#45;&gt;Node7</title>
<path fill="none" stroke="midnightblue" d="M300.07,-106.45C297.31,-97.38 294.16,-87 291.93,-79.64"/>
<polygon fill="midnightblue" stroke="midnightblue" points="296.78,-107.69 303.04,-116.25 303.48,-105.66 296.78,-107.69"/>
</g>
<!-- Node9 -->
<g id="node9" class="node">
<title>Node9</title>
<g id="a_node9"><a xlink:href="eqtb_8c.html" target="_top" xlink:title=" ">
<polygon fill="white" stroke="black" points="332.5,-58.5 332.5,-79.5 381.5,-79.5 381.5,-58.5 332.5,-58.5"/>
<text text-anchor="middle" x="357" y="-65.9" font-family="DejaVuSans" font-size="12.00">eqtb.c</text>
</a>
</g>
</g>
<!-- Node8&#45;&gt;Node9 -->
<g id="edge9" class="edge">
<title>Node8&#45;&gt;Node9</title>
<path fill="none" stroke="midnightblue" d="M321.67,-108.79C330.4,-99.21 340.94,-87.64 348.22,-79.64"/>
<polygon fill="midnightblue" stroke="midnightblue" points="319.03,-106.5 314.88,-116.25 324.2,-111.21 319.03,-106.5"/>
</g>
<!-- Node10 -->
<g id="node10" class="node">
<title>Node10</title>
<g id="a_node10"><a xlink:href="hash_8c.html" target="_top" xlink:title=" ">
<polygon fill="white" stroke="black" points="400,-58.5 400,-79.5 452,-79.5 452,-58.5 400,-58.5"/>
<text text-anchor="middle" x="426" y="-65.9" font-family="DejaVuSans" font-size="12.00">hash.c</text>
</a>
</g>
</g>
<!-- Node8&#45;&gt;Node10 -->
<g id="edge12" class="edge">
<title>Node8&#45;&gt;Node10</title>
<path fill="none" stroke="midnightblue" d="M335.76,-112.11C357.52,-101.96 386.47,-88.45 405.64,-79.5"/>
<polygon fill="midnightblue" stroke="midnightblue" points="334.21,-108.97 326.63,-116.37 337.17,-115.32 334.21,-108.97"/>
</g>
<!-- Node11 -->
<g id="node11" class="node">
<title>Node11</title>
<g id="a_node11"><a xlink:href="lexer_8c.html" target="_top" xlink:title=" ">
<polygon fill="white" stroke="black" points="470.5,-58.5 470.5,-79.5 521.5,-79.5 521.5,-58.5 470.5,-58.5"/>
<text text-anchor="middle" x="496" y="-65.9" font-family="DejaVuSans" font-size="12.00">lexer.c</text>
</a>
</g>
</g>
<!-- Node8&#45;&gt;Node11 -->
<g id="edge13" class="edge">
<title>Node8&#45;&gt;Node11</title>
<path fill="none" stroke="midnightblue" d="M342.83,-115.15C380.28,-104.11 437.36,-87.28 470.23,-77.6"/>
<polygon fill="midnightblue" stroke="midnightblue" points="341.42,-111.91 332.82,-118.1 343.4,-118.63 341.42,-111.91"/>
</g>
<!-- Node12 -->
<g id="node12" class="node">
<title>Node12</title>
<g id="a_node12"><a xlink:href="str_8c.html" target="_top" xlink:title=" ">
<polygon fill="white" stroke="black" points="540,-58.5 540,-79.5 578,-79.5 578,-58.5 540,-58.5"/>
<text text-anchor="middle" x="559" y="-65.9" font-family="DejaVuSans" font-size="12.00">str.c</text>
</a>
</g>
</g>
<!-- Node8&#45;&gt;Node12 -->
<g id="edge14" class="edge">
<title>Node8&#45;&gt;Node12</title>
<path fill="none" stroke="midnightblue" d="M342.44,-116.07C427.02,-96.93 451.47,-101.64 531,-80 533.89,-79.21 536.91,-78.27 539.84,-77.28"/>
<polygon fill="midnightblue" stroke="midnightblue" points="341.63,-112.67 332.67,-118.33 343.2,-119.49 341.63,-112.67"/>
</g>
</g>
</svg>
