<?xml version="1.0" encoding="UTF-8" standalone="no"?>
<!DOCTYPE svg PUBLIC "-//W3C//DTD SVG 1.1//EN"
 "http://www.w3.org/Graphics/SVG/1.1/DTD/svg11.dtd">
<!-- Generated by graphviz version 2.44.0 ()
 -->
<!-- Title: fonts.c Pages: 1 -->
<svg width="1016pt" height="726pt"
 viewBox="0.00 0.00 1015.50 726.00" xmlns="http://www.w3.org/2000/svg" xmlns:xlink="http://www.w3.org/1999/xlink">
<g id="graph0" class="graph" transform="scale(1 1) rotate(0) translate(4 722)">
<title>fonts.c</title>
<polygon fill="white" stroke="transparent" points="-4,4 -4,-722 1011.5,-722 1011.5,4 -4,4"/>
<!-- Node1 -->
<g id="node1" class="node">
<title>Node1</title>
<g id="a_node1"><a xlink:title=" ">
<polygon fill="#bfbfbf" stroke="black" points="407.5,-696.5 407.5,-717.5 458.5,-717.5 458.5,-696.5 407.5,-696.5"/>
<text text-anchor="middle" x="433" y="-703.9" font-family="DejaVuSans" font-size="12.00">fonts.c</text>
</a>
</g>
</g>
<!-- Node2 -->
<g id="node2" class="node">
<title>Node2</title>
<g id="a_node2"><a xlink:title=" ">
<polygon fill="white" stroke="#bfbfbf" points="86,-0.5 86,-21.5 138,-21.5 138,-0.5 86,-0.5"/>
<text text-anchor="middle" x="112" y="-7.9" font-family="DejaVuSans" font-size="12.00">stdio.h</text>
</a>
</g>
</g>
<!-- Node1&#45;&gt;Node2 -->
<g id="edge1" class="edge">
<title>Node1&#45;&gt;Node2</title>
<path fill="none" stroke="midnightblue" d="M407.34,-704.76C335.32,-700.96 132.68,-687.99 73,-660 32.86,-641.17 0,-636.34 0,-592 0,-592 0,-592 0,-126 0,-79.08 48.87,-44.41 82.05,-26.27"/>
<polygon fill="midnightblue" stroke="midnightblue" points="83.71,-29.35 90.93,-21.6 80.45,-23.15 83.71,-29.35"/>
</g>
<!-- Node3 -->
<g id="node3" class="node">
<title>Node3</title>
<g id="a_node3"><a xlink:href="tex_8h.html" target="_top" xlink:title=" ">
<polygon fill="white" stroke="black" points="483,-290.5 483,-311.5 525,-311.5 525,-290.5 483,-290.5"/>
<text text-anchor="middle" x="504" y="-297.9" font-family="DejaVuSans" font-size="12.00">tex.h</text>
</a>
</g>
</g>
<!-- Node1&#45;&gt;Node3 -->
<g id="edge2" class="edge">
<title>Node1&#45;&gt;Node3</title>
<path fill="none" stroke="midnightblue" d="M449.55,-696.39C476.77,-679.21 528,-640.43 528,-592 528,-592 528,-592 528,-474 528,-418.17 515.44,-353.12 508.5,-321.39"/>
<polygon fill="midnightblue" stroke="midnightblue" points="511.91,-320.62 506.3,-311.63 505.08,-322.16 511.91,-320.62"/>
</g>
<!-- Node8 -->
<g id="node8" class="node">
<title>Node8</title>
<g id="a_node8"><a xlink:href="box_8h.html" target="_top" xlink:title=" ">
<polygon fill="white" stroke="black" points="427,-174.5 427,-195.5 473,-195.5 473,-174.5 427,-174.5"/>
<text text-anchor="middle" x="450" y="-181.9" font-family="DejaVuSans" font-size="12.00">box.h</text>
</a>
</g>
</g>
<!-- Node1&#45;&gt;Node8 -->
<g id="edge52" class="edge">
<title>Node1&#45;&gt;Node8</title>
<path fill="none" stroke="midnightblue" d="M407.35,-706.78C361.94,-706.97 265.96,-701.89 200,-660 168.33,-639.89 150,-629.51 150,-592 150,-592 150,-592 150,-474 150,-414.97 155.53,-394.42 192,-348 253.21,-270.09 363,-219.45 417.49,-197.9"/>
<polygon fill="midnightblue" stroke="midnightblue" points="418.94,-201.09 426.99,-194.21 416.41,-194.56 418.94,-201.09"/>
</g>
<!-- Node9 -->
<g id="node9" class="node">
<title>Node9</title>
<g id="a_node9"><a xlink:href="str_8h.html" target="_top" xlink:title=" ">
<polygon fill="white" stroke="black" points="440.5,-116.5 440.5,-137.5 479.5,-137.5 479.5,-116.5 440.5,-116.5"/>
<text text-anchor="middle" x="460" y="-123.9" font-family="DejaVuSans" font-size="12.00">str.h</text>
</a>
</g>
</g>
<!-- Node1&#45;&gt;Node9 -->
<g id="edge16" class="edge">
<title>Node1&#45;&gt;Node9</title>
<path fill="none" stroke="midnightblue" d="M436.6,-696.23C456.52,-641.6 551.84,-373.4 534,-290 522.15,-234.58 489.34,-175.48 471.65,-146.37"/>
<polygon fill="midnightblue" stroke="midnightblue" points="474.52,-144.36 466.29,-137.7 468.57,-148.05 474.52,-144.36"/>
</g>
<!-- Node12 -->
<g id="node12" class="node">
<title>Node12</title>
<g id="a_node12"><a xlink:href="macros_8h.html" target="_top" xlink:title=" ">
<polygon fill="white" stroke="black" points="873.5,-638.5 873.5,-659.5 938.5,-659.5 938.5,-638.5 873.5,-638.5"/>
<text text-anchor="middle" x="906" y="-645.9" font-family="DejaVuSans" font-size="12.00">macros.h</text>
</a>
</g>
</g>
<!-- Node1&#45;&gt;Node12 -->
<g id="edge15" class="edge">
<title>Node1&#45;&gt;Node12</title>
<path fill="none" stroke="midnightblue" d="M458.57,-704.15C524.94,-699.17 708.05,-684.14 859,-660 860.47,-659.77 861.96,-659.51 863.46,-659.25"/>
<polygon fill="midnightblue" stroke="midnightblue" points="864.28,-662.66 873.46,-657.37 862.99,-655.78 864.28,-662.66"/>
</g>
<!-- Node13 -->
<g id="node13" class="node">
<title>Node13</title>
<g id="a_node13"><a xlink:href="funcs_8h.html" target="_top" xlink:title=" ">
<polygon fill="white" stroke="black" points="28.5,-580.5 28.5,-601.5 83.5,-601.5 83.5,-580.5 28.5,-580.5"/>
<text text-anchor="middle" x="56" y="-587.9" font-family="DejaVuSans" font-size="12.00">funcs.h</text>
</a>
</g>
</g>
<!-- Node1&#45;&gt;Node13 -->
<g id="edge17" class="edge">
<title>Node1&#45;&gt;Node13</title>
<path fill="none" stroke="midnightblue" d="M407.48,-705.27C338.34,-702.86 149.17,-693.3 98,-660 80.45,-648.58 68.99,-626.98 62.55,-611.19"/>
<polygon fill="midnightblue" stroke="midnightblue" points="65.82,-609.93 59.02,-601.81 59.26,-612.4 65.82,-609.93"/>
</g>
<!-- Node14 -->
<g id="node14" class="node">
<title>Node14</title>
<g id="a_node14"><a xlink:href="error_8h.html" target="_top" xlink:title=" ">
<polygon fill="white" stroke="black" points="956.5,-638.5 956.5,-659.5 1007.5,-659.5 1007.5,-638.5 956.5,-638.5"/>
<text text-anchor="middle" x="982" y="-645.9" font-family="DejaVuSans" font-size="12.00">error.h</text>
</a>
</g>
</g>
<!-- Node1&#45;&gt;Node14 -->
<g id="edge19" class="edge">
<title>Node1&#45;&gt;Node14</title>
<path fill="none" stroke="midnightblue" d="M458.7,-705.49C533.06,-703.64 754.82,-695.48 946.19,-660.05"/>
<polygon fill="midnightblue" stroke="midnightblue" points="946.96,-663.47 956.14,-658.18 945.67,-656.59 946.96,-663.47"/>
</g>
<!-- Node15 -->
<g id="node15" class="node">
<title>Node15</title>
<g id="a_node15"><a xlink:href="lexer_8h.html" target="_top" xlink:title=" ">
<polygon fill="white" stroke="black" points="201,-348.5 201,-369.5 253,-369.5 253,-348.5 201,-348.5"/>
<text text-anchor="middle" x="227" y="-355.9" font-family="DejaVuSans" font-size="12.00">lexer.h</text>
</a>
</g>
</g>
<!-- Node1&#45;&gt;Node15 -->
<g id="edge20" class="edge">
<title>Node1&#45;&gt;Node15</title>
<path fill="none" stroke="midnightblue" d="M407.24,-705.66C344.34,-703.35 188,-687.94 188,-592 188,-592 188,-592 188,-474 188,-438.81 204.84,-400.64 216.39,-378.6"/>
<polygon fill="midnightblue" stroke="midnightblue" points="219.54,-380.14 221.25,-369.68 213.39,-376.79 219.54,-380.14"/>
</g>
<!-- Node16 -->
<g id="node16" class="node">
<title>Node16</title>
<g id="a_node16"><a xlink:href="global_8h.html" target="_top" xlink:title=" ">
<polygon fill="white" stroke="black" points="309,-464.5 309,-485.5 367,-485.5 367,-464.5 309,-464.5"/>
<text text-anchor="middle" x="338" y="-471.9" font-family="DejaVuSans" font-size="12.00">global.h</text>
</a>
</g>
</g>
<!-- Node1&#45;&gt;Node16 -->
<g id="edge23" class="edge">
<title>Node1&#45;&gt;Node16</title>
<path fill="none" stroke="midnightblue" d="M408.2,-696.45C392.32,-689 372.74,-677.02 362,-660 329.27,-608.12 331.95,-531.64 335.47,-495.84"/>
<polygon fill="midnightblue" stroke="midnightblue" points="338.97,-496.06 336.6,-485.73 332.01,-495.28 338.97,-496.06"/>
</g>
<!-- Node19 -->
<g id="node19" class="node">
<title>Node19</title>
<g id="a_node19"><a xlink:href="fonts_8h.html" target="_top" xlink:title=" ">
<polygon fill="white" stroke="black" points="169,-232.5 169,-253.5 221,-253.5 221,-232.5 169,-232.5"/>
<text text-anchor="middle" x="195" y="-239.9" font-family="DejaVuSans" font-size="12.00">fonts.h</text>
</a>
</g>
</g>
<!-- Node1&#45;&gt;Node19 -->
<g id="edge28" class="edge">
<title>Node1&#45;&gt;Node19</title>
<path fill="none" stroke="midnightblue" d="M407.24,-705.32C342.85,-703.1 177.16,-694.15 136,-660 111.33,-639.54 112,-624.05 112,-592 112,-592 112,-592 112,-474 112,-391 160.42,-300.61 183.29,-262.54"/>
<polygon fill="midnightblue" stroke="midnightblue" points="186.51,-263.99 188.76,-253.63 180.55,-260.33 186.51,-263.99"/>
</g>
<!-- Node20 -->
<g id="node20" class="node">
<title>Node20</title>
<g id="a_node20"><a xlink:href="texfunc_8h.html" target="_top" xlink:title=" ">
<polygon fill="white" stroke="black" points="751.5,-522.5 751.5,-543.5 816.5,-543.5 816.5,-522.5 751.5,-522.5"/>
<text text-anchor="middle" x="784" y="-529.9" font-family="DejaVuSans" font-size="12.00">texfunc.h</text>
</a>
</g>
</g>
<!-- Node1&#45;&gt;Node20 -->
<g id="edge31" class="edge">
<title>Node1&#45;&gt;Node20</title>
<path fill="none" stroke="midnightblue" d="M458.53,-706.34C505.87,-705.94 609.23,-700.08 684,-660 729.14,-635.8 760.92,-581.62 775.32,-552.82"/>
<polygon fill="midnightblue" stroke="midnightblue" points="778.49,-554.32 779.68,-543.79 772.18,-551.27 778.49,-554.32"/>
</g>
<!-- Node21 -->
<g id="node21" class="node">
<title>Node21</title>
<g id="a_node21"><a xlink:href="texmath_8h.html" target="_top" xlink:title=" ">
<polygon fill="white" stroke="black" points="800,-464.5 800,-485.5 868,-485.5 868,-464.5 800,-464.5"/>
<text text-anchor="middle" x="834" y="-471.9" font-family="DejaVuSans" font-size="12.00">texmath.h</text>
</a>
</g>
</g>
<!-- Node1&#45;&gt;Node21 -->
<g id="edge33" class="edge">
<title>Node1&#45;&gt;Node21</title>
<path fill="none" stroke="midnightblue" d="M458.78,-703.83C519.32,-698.42 668.77,-683.06 713,-660 776.82,-626.72 795.04,-608.97 826,-544 833.18,-528.93 834.89,-509.93 834.97,-495.84"/>
<polygon fill="midnightblue" stroke="midnightblue" points="838.47,-495.7 834.76,-485.77 831.47,-495.84 838.47,-495.7"/>
</g>
<!-- Node22 -->
<g id="node22" class="node">
<title>Node22</title>
<g id="a_node22"><a xlink:href="hash_8h.html" target="_top" xlink:title=" ">
<polygon fill="white" stroke="black" points="370.5,-348.5 370.5,-369.5 423.5,-369.5 423.5,-348.5 370.5,-348.5"/>
<text text-anchor="middle" x="397" y="-355.9" font-family="DejaVuSans" font-size="12.00">hash.h</text>
</a>
</g>
</g>
<!-- Node1&#45;&gt;Node22 -->
<g id="edge35" class="edge">
<title>Node1&#45;&gt;Node22</title>
<path fill="none" stroke="midnightblue" d="M423.39,-696.42C415.41,-687.75 404.64,-674.2 400,-660 391.35,-633.55 395.05,-442.21 396.51,-379.7"/>
<polygon fill="midnightblue" stroke="midnightblue" points="400.01,-379.68 396.75,-369.6 393.01,-379.51 400.01,-379.68"/>
</g>
<!-- Node23 -->
<g id="node23" class="node">
<title>Node23</title>
<g id="a_node23"><a xlink:href="eqtb_8h.html" target="_top" xlink:title=" ">
<polygon fill="white" stroke="black" points="415,-290.5 415,-311.5 465,-311.5 465,-290.5 415,-290.5"/>
<text text-anchor="middle" x="440" y="-297.9" font-family="DejaVuSans" font-size="12.00">eqtb.h</text>
</a>
</g>
</g>
<!-- Node1&#45;&gt;Node23 -->
<g id="edge45" class="edge">
<title>Node1&#45;&gt;Node23</title>
<path fill="none" stroke="midnightblue" d="M433.17,-696.41C434.07,-644.24 438.4,-394.2 439.66,-321.73"/>
<polygon fill="midnightblue" stroke="midnightblue" points="443.16,-321.74 439.83,-311.68 436.16,-321.62 443.16,-321.74"/>
</g>
<!-- Node24 -->
<g id="node24" class="node">
<title>Node24</title>
<g id="a_node24"><a xlink:href="mem_8h.html" target="_top" xlink:title=" ">
<polygon fill="white" stroke="black" points="559.5,-522.5 559.5,-543.5 612.5,-543.5 612.5,-522.5 559.5,-522.5"/>
<text text-anchor="middle" x="586" y="-529.9" font-family="DejaVuSans" font-size="12.00">mem.h</text>
</a>
</g>
</g>
<!-- Node1&#45;&gt;Node24 -->
<g id="edge42" class="edge">
<title>Node1&#45;&gt;Node24</title>
<path fill="none" stroke="midnightblue" d="M441.66,-696.26C466.6,-668.23 538.76,-587.11 570.6,-551.32"/>
<polygon fill="midnightblue" stroke="midnightblue" points="573.4,-553.43 577.43,-543.63 568.17,-548.78 573.4,-553.43"/>
</g>
<!-- Node25 -->
<g id="node25" class="node">
<title>Node25</title>
<g id="a_node25"><a xlink:href="print_8h.html" target="_top" xlink:title=" ">
<polygon fill="white" stroke="black" points="625,-638.5 625,-659.5 675,-659.5 675,-638.5 625,-638.5"/>
<text text-anchor="middle" x="650" y="-645.9" font-family="DejaVuSans" font-size="12.00">print.h</text>
</a>
</g>
</g>
<!-- Node1&#45;&gt;Node25 -->
<g id="edge46" class="edge">
<title>Node1&#45;&gt;Node25</title>
<path fill="none" stroke="midnightblue" d="M458.74,-699.36C497.62,-689.32 571.38,-670.29 615.06,-659.02"/>
<polygon fill="midnightblue" stroke="midnightblue" points="616.15,-662.35 624.96,-656.46 614.4,-655.57 616.15,-662.35"/>
</g>
<!-- Node4 -->
<g id="node4" class="node">
<title>Node4</title>
<g id="a_node4"><a xlink:href="tex__types_8h.html" target="_top" xlink:title=" ">
<polygon fill="white" stroke="black" points="567.5,-58.5 567.5,-79.5 644.5,-79.5 644.5,-58.5 567.5,-58.5"/>
<text text-anchor="middle" x="606" y="-65.9" font-family="DejaVuSans" font-size="12.00">tex_types.h</text>
</a>
</g>
</g>
<!-- Node3&#45;&gt;Node4 -->
<g id="edge3" class="edge">
<title>Node3&#45;&gt;Node4</title>
<path fill="none" stroke="midnightblue" d="M525.28,-293.4C543.47,-286.58 568.74,-274.07 582,-254 615.81,-202.82 612.6,-125.99 608.74,-89.98"/>
<polygon fill="midnightblue" stroke="midnightblue" points="612.19,-89.31 607.51,-79.8 605.24,-90.15 612.19,-89.31"/>
</g>
<!-- Node7 -->
<g id="node7" class="node">
<title>Node7</title>
<g id="a_node7"><a xlink:href="tex__constant_8h.html" target="_top" xlink:title=" ">
<polygon fill="white" stroke="black" points="403,-232.5 403,-253.5 497,-253.5 497,-232.5 403,-232.5"/>
<text text-anchor="middle" x="450" y="-239.9" font-family="DejaVuSans" font-size="12.00">tex_constant.h</text>
</a>
</g>
</g>
<!-- Node3&#45;&gt;Node7 -->
<g id="edge6" class="edge">
<title>Node3&#45;&gt;Node7</title>
<path fill="none" stroke="midnightblue" d="M494.59,-290.25C486.85,-282.22 475.69,-270.64 466.47,-261.08"/>
<polygon fill="midnightblue" stroke="midnightblue" points="468.76,-258.41 459.3,-253.64 463.72,-263.27 468.76,-258.41"/>
</g>
<!-- Node5 -->
<g id="node5" class="node">
<title>Node5</title>
<g id="a_node5"><a xlink:title=" ">
<polygon fill="white" stroke="#bfbfbf" points="573.5,-0.5 573.5,-21.5 638.5,-21.5 638.5,-0.5 573.5,-0.5"/>
<text text-anchor="middle" x="606" y="-7.9" font-family="DejaVuSans" font-size="12.00">stdbool.h</text>
</a>
</g>
</g>
<!-- Node4&#45;&gt;Node5 -->
<g id="edge4" class="edge">
<title>Node4&#45;&gt;Node5</title>
<path fill="none" stroke="midnightblue" d="M606,-58.25C606,-50.94 606,-40.69 606,-31.7"/>
<polygon fill="midnightblue" stroke="midnightblue" points="609.5,-31.64 606,-21.64 602.5,-31.64 609.5,-31.64"/>
</g>
<!-- Node6 -->
<g id="node6" class="node">
<title>Node6</title>
<g id="a_node6"><a xlink:title=" ">
<polygon fill="white" stroke="#bfbfbf" points="461.5,-0.5 461.5,-21.5 516.5,-21.5 516.5,-0.5 461.5,-0.5"/>
<text text-anchor="middle" x="489" y="-7.9" font-family="DejaVuSans" font-size="12.00">stdint.h</text>
</a>
</g>
</g>
<!-- Node4&#45;&gt;Node6 -->
<g id="edge5" class="edge">
<title>Node4&#45;&gt;Node6</title>
<path fill="none" stroke="midnightblue" d="M585.89,-58.37C567.19,-49.42 539.13,-35.99 518.01,-25.88"/>
<polygon fill="midnightblue" stroke="midnightblue" points="519.38,-22.66 508.85,-21.5 516.36,-28.98 519.38,-22.66"/>
</g>
<!-- Node7&#45;&gt;Node8 -->
<g id="edge7" class="edge">
<title>Node7&#45;&gt;Node8</title>
<path fill="none" stroke="midnightblue" d="M450,-232.25C450,-224.94 450,-214.69 450,-205.7"/>
<polygon fill="midnightblue" stroke="midnightblue" points="453.5,-205.64 450,-195.64 446.5,-205.64 453.5,-205.64"/>
</g>
<!-- Node8&#45;&gt;Node9 -->
<g id="edge8" class="edge">
<title>Node8&#45;&gt;Node9</title>
<path fill="none" stroke="midnightblue" d="M451.74,-174.25C453.05,-166.94 454.88,-156.69 456.48,-147.7"/>
<polygon fill="midnightblue" stroke="midnightblue" points="459.97,-148.1 458.28,-137.64 453.07,-146.87 459.97,-148.1"/>
</g>
<!-- Node9&#45;&gt;Node2 -->
<g id="edge9" class="edge">
<title>Node9&#45;&gt;Node2</title>
<path fill="none" stroke="midnightblue" d="M440.18,-126.27C393.84,-126.15 275.76,-121.46 189,-80 163.79,-67.95 140.59,-45.18 126.39,-29.32"/>
<polygon fill="midnightblue" stroke="midnightblue" points="129.02,-27.01 119.82,-21.75 123.73,-31.6 129.02,-27.01"/>
</g>
<!-- Node9&#45;&gt;Node4 -->
<g id="edge14" class="edge">
<title>Node9&#45;&gt;Node4</title>
<path fill="none" stroke="midnightblue" d="M479.69,-118.45C503.15,-109.45 542.78,-94.25 571.39,-83.27"/>
<polygon fill="midnightblue" stroke="midnightblue" points="572.93,-86.43 581.01,-79.58 570.42,-79.9 572.93,-86.43"/>
</g>
<!-- Node9&#45;&gt;Node6 -->
<g id="edge10" class="edge">
<title>Node9&#45;&gt;Node6</title>
<path fill="none" stroke="midnightblue" d="M462.47,-116.28C467.22,-97.6 477.71,-56.37 483.98,-31.72"/>
<polygon fill="midnightblue" stroke="midnightblue" points="487.46,-32.25 486.53,-21.69 480.68,-30.52 487.46,-32.25"/>
</g>
<!-- Node10 -->
<g id="node10" class="node">
<title>Node10</title>
<g id="a_node10"><a xlink:href="global__const_8h.html" target="_top" xlink:title=" ">
<polygon fill="white" stroke="black" points="197.5,-58.5 197.5,-79.5 290.5,-79.5 290.5,-58.5 197.5,-58.5"/>
<text text-anchor="middle" x="244" y="-65.9" font-family="DejaVuSans" font-size="12.00">global_const.h</text>
</a>
</g>
</g>
<!-- Node9&#45;&gt;Node10 -->
<g id="edge11" class="edge">
<title>Node9&#45;&gt;Node10</title>
<path fill="none" stroke="midnightblue" d="M440.45,-120.93C406.88,-112.23 337.38,-94.21 290.71,-82.11"/>
<polygon fill="midnightblue" stroke="midnightblue" points="291.39,-78.67 280.83,-79.55 289.63,-85.45 291.39,-78.67"/>
</g>
<!-- Node10&#45;&gt;Node2 -->
<g id="edge13" class="edge">
<title>Node10&#45;&gt;Node2</title>
<path fill="none" stroke="midnightblue" d="M221.31,-58.37C199.93,-49.3 167.69,-35.63 143.76,-25.48"/>
<polygon fill="midnightblue" stroke="midnightblue" points="144.97,-22.18 134.4,-21.5 142.23,-28.63 144.97,-22.18"/>
</g>
<!-- Node11 -->
<g id="node11" class="node">
<title>Node11</title>
<g id="a_node11"><a xlink:title=" ">
<polygon fill="white" stroke="#bfbfbf" points="214.5,-0.5 214.5,-21.5 273.5,-21.5 273.5,-0.5 214.5,-0.5"/>
<text text-anchor="middle" x="244" y="-7.9" font-family="DejaVuSans" font-size="12.00">assert.h</text>
</a>
</g>
</g>
<!-- Node10&#45;&gt;Node11 -->
<g id="edge12" class="edge">
<title>Node10&#45;&gt;Node11</title>
<path fill="none" stroke="midnightblue" d="M244,-58.25C244,-50.94 244,-40.69 244,-31.7"/>
<polygon fill="midnightblue" stroke="midnightblue" points="247.5,-31.64 244,-21.64 240.5,-31.64 247.5,-31.64"/>
</g>
<!-- Node13&#45;&gt;Node2 -->
<g id="edge18" class="edge">
<title>Node13&#45;&gt;Node2</title>
<path fill="none" stroke="midnightblue" d="M55.86,-580.24C55.58,-560.54 55,-514.6 55,-476 55,-476 55,-476 55,-126 55,-88.46 80.03,-50.62 96.91,-29.36"/>
<polygon fill="midnightblue" stroke="midnightblue" points="99.68,-31.5 103.34,-21.55 94.28,-27.05 99.68,-31.5"/>
</g>
<!-- Node15&#45;&gt;Node2 -->
<g id="edge21" class="edge">
<title>Node15&#45;&gt;Node2</title>
<path fill="none" stroke="midnightblue" d="M200.85,-349.23C161.85,-334.32 93,-300.05 93,-244 93,-244 93,-244 93,-126 93,-92.38 101.14,-53.92 106.77,-31.37"/>
<polygon fill="midnightblue" stroke="midnightblue" points="110.16,-32.23 109.28,-21.67 103.38,-30.47 110.16,-32.23"/>
</g>
<!-- Node15&#45;&gt;Node3 -->
<g id="edge22" class="edge">
<title>Node15&#45;&gt;Node3</title>
<path fill="none" stroke="midnightblue" d="M253.22,-354.33C296.93,-347.96 387.55,-333.64 472.95,-312"/>
<polygon fill="midnightblue" stroke="midnightblue" points="473.99,-315.35 482.8,-309.47 472.25,-308.57 473.99,-315.35"/>
</g>
<!-- Node16&#45;&gt;Node9 -->
<g id="edge25" class="edge">
<title>Node16&#45;&gt;Node9</title>
<path fill="none" stroke="midnightblue" d="M331.8,-464.38C320.12,-445.29 296,-400.92 296,-360 296,-360 296,-360 296,-242 296,-177.36 382.95,-146.42 430.23,-134.36"/>
<polygon fill="midnightblue" stroke="midnightblue" points="431.32,-137.7 440.22,-131.95 429.68,-130.9 431.32,-137.7"/>
</g>
<!-- Node17 -->
<g id="node17" class="node">
<title>Node17</title>
<g id="a_node17"><a xlink:title=" ">
<polygon fill="white" stroke="#bfbfbf" points="324,-406.5 324,-427.5 386,-427.5 386,-406.5 324,-406.5"/>
<text text-anchor="middle" x="355" y="-413.9" font-family="DejaVuSans" font-size="12.00">setjmp.h</text>
</a>
</g>
</g>
<!-- Node16&#45;&gt;Node17 -->
<g id="edge24" class="edge">
<title>Node16&#45;&gt;Node17</title>
<path fill="none" stroke="midnightblue" d="M340.96,-464.25C343.2,-456.86 346.36,-446.47 349.11,-437.41"/>
<polygon fill="midnightblue" stroke="midnightblue" points="352.52,-438.23 352.07,-427.64 345.82,-436.19 352.52,-438.23"/>
</g>
<!-- Node18 -->
<g id="node18" class="node">
<title>Node18</title>
<g id="a_node18"><a xlink:href="scan_8h.html" target="_top" xlink:title=" ">
<polygon fill="white" stroke="black" points="216,-406.5 216,-427.5 268,-427.5 268,-406.5 216,-406.5"/>
<text text-anchor="middle" x="242" y="-413.9" font-family="DejaVuSans" font-size="12.00">scan.h</text>
</a>
</g>
</g>
<!-- Node16&#45;&gt;Node18 -->
<g id="edge26" class="edge">
<title>Node16&#45;&gt;Node18</title>
<path fill="none" stroke="midnightblue" d="M321.28,-464.25C306.41,-455.57 284.45,-442.76 267.41,-432.82"/>
<polygon fill="midnightblue" stroke="midnightblue" points="268.93,-429.66 258.53,-427.64 265.4,-435.7 268.93,-429.66"/>
</g>
<!-- Node18&#45;&gt;Node15 -->
<g id="edge27" class="edge">
<title>Node18&#45;&gt;Node15</title>
<path fill="none" stroke="midnightblue" d="M239.39,-406.25C237.41,-398.86 234.63,-388.47 232.2,-379.41"/>
<polygon fill="midnightblue" stroke="midnightblue" points="235.55,-378.4 229.58,-369.64 228.79,-380.21 235.55,-378.4"/>
</g>
<!-- Node19&#45;&gt;Node2 -->
<g id="edge29" class="edge">
<title>Node19&#45;&gt;Node2</title>
<path fill="none" stroke="midnightblue" d="M191.54,-232.41C179.02,-197.71 135.9,-78.24 118.94,-31.22"/>
<polygon fill="midnightblue" stroke="midnightblue" points="122.16,-29.85 115.48,-21.63 115.58,-32.23 122.16,-29.85"/>
</g>
<!-- Node19&#45;&gt;Node10 -->
<g id="edge30" class="edge">
<title>Node19&#45;&gt;Node10</title>
<path fill="none" stroke="midnightblue" d="M197.77,-232.26C205.59,-204.82 227.9,-126.51 238.4,-89.64"/>
<polygon fill="midnightblue" stroke="midnightblue" points="241.88,-90.21 241.26,-79.63 235.15,-88.29 241.88,-90.21"/>
</g>
<!-- Node20&#45;&gt;Node9 -->
<g id="edge32" class="edge">
<title>Node20&#45;&gt;Node9</title>
<path fill="none" stroke="midnightblue" d="M780.7,-522.37C774.34,-502.91 761,-457.37 761,-418 761,-418 761,-418 761,-300 761,-237.59 748.62,-211.86 699,-174 666.5,-149.2 546.55,-135.61 489.95,-130.45"/>
<polygon fill="midnightblue" stroke="midnightblue" points="490.1,-126.95 479.83,-129.56 489.48,-133.92 490.1,-126.95"/>
</g>
<!-- Node21&#45;&gt;Node4 -->
<g id="edge34" class="edge">
<title>Node21&#45;&gt;Node4</title>
<path fill="none" stroke="midnightblue" d="M828.84,-464.25C819.1,-444.92 799,-400.16 799,-360 799,-360 799,-360 799,-184 799,-151.95 798.48,-137.81 775,-116 742.52,-85.83 692.22,-75.1 654.94,-71.46"/>
<polygon fill="midnightblue" stroke="midnightblue" points="655.05,-67.96 644.79,-70.61 654.46,-74.93 655.05,-67.96"/>
</g>
<!-- Node22&#45;&gt;Node3 -->
<g id="edge36" class="edge">
<title>Node22&#45;&gt;Node3</title>
<path fill="none" stroke="midnightblue" d="M415.64,-348.25C432.44,-339.45 457.36,-326.41 476.46,-316.41"/>
<polygon fill="midnightblue" stroke="midnightblue" points="478.34,-319.38 485.58,-311.64 475.09,-313.18 478.34,-319.38"/>
</g>
<!-- Node22&#45;&gt;Node9 -->
<g id="edge37" class="edge">
<title>Node22&#45;&gt;Node9</title>
<path fill="none" stroke="midnightblue" d="M395.36,-348.39C392.03,-327.16 385.51,-274.71 394,-232 399.44,-204.64 403.04,-197.54 418,-174 424.68,-163.49 433.85,-153.12 441.92,-144.9"/>
<polygon fill="midnightblue" stroke="midnightblue" points="444.53,-147.25 449.2,-137.74 439.62,-142.26 444.53,-147.25"/>
</g>
<!-- Node22&#45;&gt;Node19 -->
<g id="edge38" class="edge">
<title>Node22&#45;&gt;Node19</title>
<path fill="none" stroke="midnightblue" d="M380.13,-348.48C344.78,-328.53 262.75,-282.24 220.77,-258.54"/>
<polygon fill="midnightblue" stroke="midnightblue" points="222.4,-255.44 211.97,-253.58 218.96,-261.54 222.4,-255.44"/>
</g>
<!-- Node22&#45;&gt;Node23 -->
<g id="edge39" class="edge">
<title>Node22&#45;&gt;Node23</title>
<path fill="none" stroke="midnightblue" d="M404.49,-348.25C410.53,-340.38 419.19,-329.1 426.44,-319.65"/>
<polygon fill="midnightblue" stroke="midnightblue" points="429.28,-321.71 432.6,-311.64 423.73,-317.44 429.28,-321.71"/>
</g>
<!-- Node23&#45;&gt;Node4 -->
<g id="edge40" class="edge">
<title>Node23&#45;&gt;Node4</title>
<path fill="none" stroke="midnightblue" d="M458.26,-290.4C472.58,-282.2 492.31,-269.3 506,-254 552.36,-202.19 585.26,-125.12 598.94,-89.43"/>
<polygon fill="midnightblue" stroke="midnightblue" points="602.33,-90.35 602.56,-79.76 595.77,-87.9 602.33,-90.35"/>
</g>
<!-- Node23&#45;&gt;Node7 -->
<g id="edge41" class="edge">
<title>Node23&#45;&gt;Node7</title>
<path fill="none" stroke="midnightblue" d="M441.74,-290.25C443.05,-282.94 444.88,-272.69 446.48,-263.7"/>
<polygon fill="midnightblue" stroke="midnightblue" points="449.97,-264.1 448.28,-253.64 443.07,-262.87 449.97,-264.1"/>
</g>
<!-- Node24&#45;&gt;Node4 -->
<g id="edge43" class="edge">
<title>Node24&#45;&gt;Node4</title>
<path fill="none" stroke="midnightblue" d="M594.81,-522.47C611.03,-503.89 644,-460.86 644,-418 644,-418 644,-418 644,-184 644,-148.9 627.59,-110.7 616.34,-88.63"/>
<polygon fill="midnightblue" stroke="midnightblue" points="619.38,-86.9 611.61,-79.7 613.19,-90.17 619.38,-86.9"/>
</g>
<!-- Node24&#45;&gt;Node16 -->
<g id="edge44" class="edge">
<title>Node24&#45;&gt;Node16</title>
<path fill="none" stroke="midnightblue" d="M559.46,-526.01C515.62,-516.11 427.88,-496.3 376.99,-484.8"/>
<polygon fill="midnightblue" stroke="midnightblue" points="377.54,-481.34 367.02,-482.55 376,-488.17 377.54,-481.34"/>
</g>
<!-- Node25&#45;&gt;Node3 -->
<g id="edge48" class="edge">
<title>Node25&#45;&gt;Node3</title>
<path fill="none" stroke="midnightblue" d="M648.76,-638.26C645.83,-616.75 637.52,-563.8 622,-522 592.64,-442.93 539.73,-356.94 516.04,-320.25"/>
<polygon fill="midnightblue" stroke="midnightblue" points="518.82,-318.1 510.43,-311.63 512.95,-321.92 518.82,-318.1"/>
</g>
<!-- Node25&#45;&gt;Node4 -->
<g id="edge47" class="edge">
<title>Node25&#45;&gt;Node4</title>
<path fill="none" stroke="midnightblue" d="M657.54,-638.16C676.19,-612.79 723,-542.5 723,-476 723,-476 723,-476 723,-300 723,-265.06 651.97,-125.27 646,-116 639.31,-105.62 630.41,-95.14 622.7,-86.81"/>
<polygon fill="midnightblue" stroke="midnightblue" points="625.22,-84.38 615.79,-79.56 620.15,-89.22 625.22,-84.38"/>
</g>
<!-- Node25&#45;&gt;Node9 -->
<g id="edge51" class="edge">
<title>Node25&#45;&gt;Node9</title>
<path fill="none" stroke="midnightblue" d="M653.36,-638.44C662.12,-612.61 685,-539.08 685,-476 685,-476 685,-476 685,-242 685,-155.46 550.9,-134.59 489.75,-129.58"/>
<polygon fill="midnightblue" stroke="midnightblue" points="489.8,-126.07 479.57,-128.84 489.29,-133.06 489.8,-126.07"/>
</g>
<!-- Node26 -->
<g id="node26" class="node">
<title>Node26</title>
<g id="a_node26"><a xlink:href="texmac_8h.html" target="_top" xlink:title=" ">
<polygon fill="white" stroke="black" points="556.5,-580.5 556.5,-601.5 621.5,-601.5 621.5,-580.5 556.5,-580.5"/>
<text text-anchor="middle" x="589" y="-587.9" font-family="DejaVuSans" font-size="12.00">texmac.h</text>
</a>
</g>
</g>
<!-- Node25&#45;&gt;Node26 -->
<g id="edge49" class="edge">
<title>Node25&#45;&gt;Node26</title>
<path fill="none" stroke="midnightblue" d="M639.37,-638.25C630.45,-630.05 617.51,-618.17 606.98,-608.51"/>
<polygon fill="midnightblue" stroke="midnightblue" points="609.24,-605.83 599.5,-601.64 604.5,-610.98 609.24,-605.83"/>
</g>
<!-- Node26&#45;&gt;Node24 -->
<g id="edge50" class="edge">
<title>Node26&#45;&gt;Node24</title>
<path fill="none" stroke="midnightblue" d="M588.48,-580.25C588.09,-572.94 587.54,-562.69 587.06,-553.7"/>
<polygon fill="midnightblue" stroke="midnightblue" points="590.55,-553.44 586.52,-543.64 583.56,-553.82 590.55,-553.44"/>
</g>
</g>
</svg>
