<?xml version="1.0" encoding="UTF-8" standalone="no"?>
<!DOCTYPE svg PUBLIC "-//W3C//DTD SVG 1.1//EN"
 "http://www.w3.org/Graphics/SVG/1.1/DTD/svg11.dtd">
<!-- Generated by graphviz version 2.42.3 ()
 -->
<!-- Title: funcs.h Pages: 1 -->
<svg width="312pt" height="146pt"
 viewBox="0.00 0.00 312.00 146.00" xmlns="http://www.w3.org/2000/svg" xmlns:xlink="http://www.w3.org/1999/xlink">
<g id="graph0" class="graph" transform="scale(1 1) rotate(0) translate(4 142)">
<title>funcs.h</title>
<polygon fill="white" stroke="transparent" points="-4,4 -4,-142 308,-142 308,4 -4,4"/>
<!-- Node1 -->
<g id="node1" class="node">
<title>Node1</title>
<g id="a_node1"><a xlink:title=" ">
<polygon fill="#bfbfbf" stroke="black" points="109.5,-116.5 109.5,-137.5 164.5,-137.5 164.5,-116.5 109.5,-116.5"/>
<text text-anchor="middle" x="137" y="-123.9" font-family="DejaVuSans" font-size="12.00">funcs.h</text>
</a>
</g>
</g>
<!-- Node2 -->
<g id="node2" class="node">
<title>Node2</title>
<g id="a_node2"><a xlink:href="dviout_8c.html" target="_top" xlink:title=" ">
<polygon fill="white" stroke="black" points="0,-58.5 0,-79.5 58,-79.5 58,-58.5 0,-58.5"/>
<text text-anchor="middle" x="29" y="-65.9" font-family="DejaVuSans" font-size="12.00">dviout.c</text>
</a>
</g>
</g>
<!-- Node1&#45;&gt;Node2 -->
<g id="edge1" class="edge">
<title>Node1&#45;&gt;Node2</title>
<path fill="none" stroke="midnightblue" d="M109.22,-111.6C89.86,-101.56 64.56,-88.44 47.6,-79.64"/>
<polygon fill="midnightblue" stroke="midnightblue" points="107.7,-114.75 118.19,-116.25 110.92,-108.54 107.7,-114.75"/>
</g>
<!-- Node3 -->
<g id="node3" class="node">
<title>Node3</title>
<g id="a_node3"><a xlink:href="fonts_8c.html" target="_top" xlink:title=" ">
<polygon fill="white" stroke="black" points="76.5,-58.5 76.5,-79.5 127.5,-79.5 127.5,-58.5 76.5,-58.5"/>
<text text-anchor="middle" x="102" y="-65.9" font-family="DejaVuSans" font-size="12.00">fonts.c</text>
</a>
</g>
</g>
<!-- Node1&#45;&gt;Node3 -->
<g id="edge2" class="edge">
<title>Node1&#45;&gt;Node3</title>
<path fill="none" stroke="midnightblue" d="M125.52,-107.63C119.68,-98.29 112.82,-87.32 108.03,-79.64"/>
<polygon fill="midnightblue" stroke="midnightblue" points="122.64,-109.62 130.9,-116.25 128.57,-105.91 122.64,-109.62"/>
</g>
<!-- Node4 -->
<g id="node4" class="node">
<title>Node4</title>
<g id="a_node4"><a xlink:href="funcs_8c.html" target="_top" xlink:title=" ">
<polygon fill="white" stroke="black" points="146,-58.5 146,-79.5 200,-79.5 200,-58.5 146,-58.5"/>
<text text-anchor="middle" x="173" y="-65.9" font-family="DejaVuSans" font-size="12.00">funcs.c</text>
</a>
</g>
</g>
<!-- Node1&#45;&gt;Node4 -->
<g id="edge3" class="edge">
<title>Node1&#45;&gt;Node4</title>
<path fill="none" stroke="midnightblue" d="M148.81,-107.63C154.81,-98.29 161.87,-87.32 166.8,-79.64"/>
<polygon fill="midnightblue" stroke="midnightblue" points="145.73,-105.94 143.27,-116.25 151.62,-109.73 145.73,-105.94"/>
</g>
<!-- Node5 -->
<g id="node5" class="node">
<title>Node5</title>
<g id="a_node5"><a xlink:href="tex__header_8h.html" target="_top" xlink:title=" ">
<polygon fill="white" stroke="black" points="218,-58.5 218,-79.5 304,-79.5 304,-58.5 218,-58.5"/>
<text text-anchor="middle" x="261" y="-65.9" font-family="DejaVuSans" font-size="12.00">tex_header.h</text>
</a>
</g>
</g>
<!-- Node1&#45;&gt;Node5 -->
<g id="edge4" class="edge">
<title>Node1&#45;&gt;Node5</title>
<path fill="none" stroke="midnightblue" d="M167.45,-112.25C189.97,-102.08 220.06,-88.49 239.96,-79.5"/>
<polygon fill="midnightblue" stroke="midnightblue" points="165.99,-109.07 158.32,-116.37 168.87,-115.45 165.99,-109.07"/>
</g>
<!-- Node6 -->
<g id="node6" class="node">
<title>Node6</title>
<g id="a_node6"><a xlink:href="tex_8c.html" target="_top" xlink:title=" ">
<polygon fill="white" stroke="black" points="240.5,-0.5 240.5,-21.5 281.5,-21.5 281.5,-0.5 240.5,-0.5"/>
<text text-anchor="middle" x="261" y="-7.9" font-family="DejaVuSans" font-size="12.00">tex.c</text>
</a>
</g>
</g>
<!-- Node5&#45;&gt;Node6 -->
<g id="edge5" class="edge">
<title>Node5&#45;&gt;Node6</title>
<path fill="none" stroke="midnightblue" d="M261,-48.16C261,-39.16 261,-28.92 261,-21.64"/>
<polygon fill="midnightblue" stroke="midnightblue" points="257.5,-48.25 261,-58.25 264.5,-48.25 257.5,-48.25"/>
</g>
</g>
</svg>
