<?xml version="1.0" encoding="UTF-8" standalone="no"?>
<!DOCTYPE svg PUBLIC "-//W3C//DTD SVG 1.1//EN"
 "http://www.w3.org/Graphics/SVG/1.1/DTD/svg11.dtd">
<!-- Generated by graphviz version 2.44.0 ()
 -->
<!-- Title: global_const.h Pages: 1 -->
<svg width="138pt" height="88pt"
 viewBox="0.00 0.00 137.50 88.00" xmlns="http://www.w3.org/2000/svg" xmlns:xlink="http://www.w3.org/1999/xlink">
<g id="graph0" class="graph" transform="scale(1 1) rotate(0) translate(4 84)">
<title>global_const.h</title>
<polygon fill="white" stroke="transparent" points="-4,4 -4,-84 133.5,-84 133.5,4 -4,4"/>
<!-- Node1 -->
<g id="node1" class="node">
<title>Node1</title>
<g id="a_node1"><a xlink:title=" ">
<polygon fill="#bfbfbf" stroke="black" points="20,-58.5 20,-79.5 113,-79.5 113,-58.5 20,-58.5"/>
<text text-anchor="middle" x="66.5" y="-65.9" font-family="DejaVuSans" font-size="12.00">global_const.h</text>
</a>
</g>
</g>
<!-- Node2 -->
<g id="node2" class="node">
<title>Node2</title>
<g id="a_node2"><a xlink:title=" ">
<polygon fill="white" stroke="#bfbfbf" points="0,-0.5 0,-21.5 59,-21.5 59,-0.5 0,-0.5"/>
<text text-anchor="middle" x="29.5" y="-7.9" font-family="DejaVuSans" font-size="12.00">assert.h</text>
</a>
</g>
</g>
<!-- Node1&#45;&gt;Node2 -->
<g id="edge1" class="edge">
<title>Node1&#45;&gt;Node2</title>
<path fill="none" stroke="midnightblue" d="M60.06,-58.25C54.96,-50.54 47.71,-39.56 41.55,-30.23"/>
<polygon fill="midnightblue" stroke="midnightblue" points="44.3,-28.06 35.87,-21.64 38.46,-31.92 44.3,-28.06"/>
</g>
<!-- Node3 -->
<g id="node3" class="node">
<title>Node3</title>
<g id="a_node3"><a xlink:title=" ">
<polygon fill="white" stroke="#bfbfbf" points="77.5,-0.5 77.5,-21.5 129.5,-21.5 129.5,-0.5 77.5,-0.5"/>
<text text-anchor="middle" x="103.5" y="-7.9" font-family="DejaVuSans" font-size="12.00">stdio.h</text>
</a>
</g>
</g>
<!-- Node1&#45;&gt;Node3 -->
<g id="edge2" class="edge">
<title>Node1&#45;&gt;Node3</title>
<path fill="none" stroke="midnightblue" d="M72.94,-58.25C78.04,-50.54 85.29,-39.56 91.45,-30.23"/>
<polygon fill="midnightblue" stroke="midnightblue" points="94.54,-31.92 97.13,-21.64 88.7,-28.06 94.54,-31.92"/>
</g>
</g>
</svg>
