<?xml version="1.0" encoding="UTF-8" standalone="no"?>
<!DOCTYPE svg PUBLIC "-//W3C//DTD SVG 1.1//EN"
 "http://www.w3.org/Graphics/SVG/1.1/DTD/svg11.dtd">
<!-- Generated by graphviz version 2.44.0 ()
 -->
<!-- Title: global_const.h Pages: 1 -->
<svg width="1040pt" height="262pt"
 viewBox="0.00 0.00 1040.00 262.00" xmlns="http://www.w3.org/2000/svg" xmlns:xlink="http://www.w3.org/1999/xlink">
<g id="graph0" class="graph" transform="scale(1 1) rotate(0) translate(4 258)">
<title>global_const.h</title>
<polygon fill="white" stroke="transparent" points="-4,4 -4,-258 1036,-258 1036,4 -4,4"/>
<!-- Node1 -->
<g id="node1" class="node">
<title>Node1</title>
<g id="a_node1"><a xlink:title=" ">
<polygon fill="#bfbfbf" stroke="black" points="335.5,-232.5 335.5,-253.5 428.5,-253.5 428.5,-232.5 335.5,-232.5"/>
<text text-anchor="middle" x="382" y="-239.9" font-family="DejaVuSans" font-size="12.00">global_const.h</text>
</a>
</g>
</g>
<!-- Node2 -->
<g id="node2" class="node">
<title>Node2</title>
<g id="a_node2"><a xlink:href="dviout_8c.html" target="_top" xlink:title=" ">
<polygon fill="white" stroke="black" points="0,-58.5 0,-79.5 58,-79.5 58,-58.5 0,-58.5"/>
<text text-anchor="middle" x="29" y="-65.9" font-family="DejaVuSans" font-size="12.00">dviout.c</text>
</a>
</g>
</g>
<!-- Node1&#45;&gt;Node2 -->
<g id="edge1" class="edge">
<title>Node1&#45;&gt;Node2</title>
<path fill="none" stroke="midnightblue" d="M325.43,-241.68C265.46,-239.39 169.22,-230.06 94,-196 57.19,-179.34 41.19,-174.56 24,-138 15.04,-118.93 20.95,-93.5 25.39,-79.78"/>
<polygon fill="midnightblue" stroke="midnightblue" points="325.35,-245.18 335.46,-242.01 325.58,-238.18 325.35,-245.18"/>
</g>
<!-- Node3 -->
<g id="node3" class="node">
<title>Node3</title>
<g id="a_node3"><a xlink:href="fonts_8h.html" target="_top" xlink:title=" ">
<polygon fill="white" stroke="black" points="318,-174.5 318,-195.5 370,-195.5 370,-174.5 318,-174.5"/>
<text text-anchor="middle" x="344" y="-181.9" font-family="DejaVuSans" font-size="12.00">fonts.h</text>
</a>
</g>
</g>
<!-- Node1&#45;&gt;Node3 -->
<g id="edge2" class="edge">
<title>Node1&#45;&gt;Node3</title>
<path fill="none" stroke="midnightblue" d="M369.73,-223.92C363.35,-214.52 355.81,-203.4 350.54,-195.64"/>
<polygon fill="midnightblue" stroke="midnightblue" points="366.87,-225.94 375.38,-232.25 372.66,-222.01 366.87,-225.94"/>
</g>
<!-- Node5 -->
<g id="node5" class="node">
<title>Node5</title>
<g id="a_node5"><a xlink:href="tex__header_8h.html" target="_top" xlink:title=" ">
<polygon fill="white" stroke="black" points="142,-58.5 142,-79.5 228,-79.5 228,-58.5 142,-58.5"/>
<text text-anchor="middle" x="185" y="-65.9" font-family="DejaVuSans" font-size="12.00">tex_header.h</text>
</a>
</g>
</g>
<!-- Node1&#45;&gt;Node5 -->
<g id="edge52" class="edge">
<title>Node1&#45;&gt;Node5</title>
<path fill="none" stroke="midnightblue" d="M325.4,-233.16C236.94,-218.06 72.42,-184.37 38,-138 8.58,-98.38 88.59,-81.12 141.81,-74.19"/>
<polygon fill="midnightblue" stroke="midnightblue" points="324.84,-236.61 335.28,-234.82 326,-229.71 324.84,-236.61"/>
</g>
<!-- Node11 -->
<g id="node11" class="node">
<title>Node11</title>
<g id="a_node11"><a xlink:href="funcs_8c.html" target="_top" xlink:title=" ">
<polygon fill="white" stroke="black" points="978,-58.5 978,-79.5 1032,-79.5 1032,-58.5 978,-58.5"/>
<text text-anchor="middle" x="1005" y="-65.9" font-family="DejaVuSans" font-size="12.00">funcs.c</text>
</a>
</g>
</g>
<!-- Node1&#45;&gt;Node11 -->
<g id="edge13" class="edge">
<title>Node1&#45;&gt;Node11</title>
<path fill="none" stroke="midnightblue" d="M439.11,-240.55C519.77,-237.4 671.17,-227.45 796,-196 862.91,-179.15 882.88,-176.7 940,-138 964.61,-121.33 987.08,-93.99 998.01,-79.58"/>
<polygon fill="midnightblue" stroke="midnightblue" points="438.54,-237.07 428.68,-240.93 438.8,-244.06 438.54,-237.07"/>
</g>
<!-- Node12 -->
<g id="node12" class="node">
<title>Node12</title>
<g id="a_node12"><a xlink:href="print_8c.html" target="_top" xlink:title=" ">
<polygon fill="white" stroke="black" points="398.5,-58.5 398.5,-79.5 447.5,-79.5 447.5,-58.5 398.5,-58.5"/>
<text text-anchor="middle" x="423" y="-65.9" font-family="DejaVuSans" font-size="12.00">print.c</text>
</a>
</g>
</g>
<!-- Node1&#45;&gt;Node12 -->
<g id="edge14" class="edge">
<title>Node1&#45;&gt;Node12</title>
<path fill="none" stroke="midnightblue" d="M386.72,-222.21C395.53,-185.24 414.2,-106.94 420.7,-79.63"/>
<polygon fill="midnightblue" stroke="midnightblue" points="383.24,-221.72 384.32,-232.26 390.05,-223.34 383.24,-221.72"/>
</g>
<!-- Node13 -->
<g id="node13" class="node">
<title>Node13</title>
<g id="a_node13"><a xlink:href="str_8c.html" target="_top" xlink:title=" ">
<polygon fill="white" stroke="black" points="922,-58.5 922,-79.5 960,-79.5 960,-58.5 922,-58.5"/>
<text text-anchor="middle" x="941" y="-65.9" font-family="DejaVuSans" font-size="12.00">str.c</text>
</a>
</g>
</g>
<!-- Node1&#45;&gt;Node13 -->
<g id="edge15" class="edge">
<title>Node1&#45;&gt;Node13</title>
<path fill="none" stroke="midnightblue" d="M438.9,-237.07C558.96,-225.67 833.17,-194.09 906,-138 925.36,-123.09 934.97,-94.49 938.84,-79.57"/>
<polygon fill="midnightblue" stroke="midnightblue" points="438.43,-233.6 428.8,-238.01 439.08,-240.57 438.43,-233.6"/>
</g>
<!-- Node14 -->
<g id="node14" class="node">
<title>Node14</title>
<g id="a_node14"><a xlink:href="str_8h.html" target="_top" xlink:title=" ">
<polygon fill="white" stroke="black" points="594.5,-174.5 594.5,-195.5 633.5,-195.5 633.5,-174.5 594.5,-174.5"/>
<text text-anchor="middle" x="614" y="-181.9" font-family="DejaVuSans" font-size="12.00">str.h</text>
</a>
</g>
</g>
<!-- Node1&#45;&gt;Node14 -->
<g id="edge16" class="edge">
<title>Node1&#45;&gt;Node14</title>
<path fill="none" stroke="midnightblue" d="M431.42,-230.07C482.22,-217.81 558.8,-199.32 594.45,-190.72"/>
<polygon fill="midnightblue" stroke="midnightblue" points="430.52,-226.69 421.62,-232.44 432.16,-233.49 430.52,-226.69"/>
</g>
<!-- Node23 -->
<g id="node23" class="node">
<title>Node23</title>
<g id="a_node23"><a xlink:href="tex__inc_8h.html" target="_top" xlink:title=" ">
<polygon fill="white" stroke="black" points="239.5,-116.5 239.5,-137.5 304.5,-137.5 304.5,-116.5 239.5,-116.5"/>
<text text-anchor="middle" x="272" y="-123.9" font-family="DejaVuSans" font-size="12.00">tex_inc.h</text>
</a>
</g>
</g>
<!-- Node1&#45;&gt;Node23 -->
<g id="edge53" class="edge">
<title>Node1&#45;&gt;Node23</title>
<path fill="none" stroke="midnightblue" d="M352.12,-227.74C337.81,-219.85 321.19,-209 309,-196 292.45,-178.36 280.88,-151.91 275.47,-137.76"/>
<polygon fill="midnightblue" stroke="midnightblue" points="350.63,-230.91 361.11,-232.49 353.9,-224.72 350.63,-230.91"/>
</g>
<!-- Node3&#45;&gt;Node2 -->
<g id="edge3" class="edge">
<title>Node3&#45;&gt;Node2</title>
<path fill="none" stroke="midnightblue" d="M307.92,-183.8C235.23,-182.59 74.96,-175.62 38,-138 22.81,-122.54 24.67,-94.69 27.01,-79.89"/>
<polygon fill="midnightblue" stroke="midnightblue" points="307.93,-187.3 317.98,-183.94 308.03,-180.3 307.93,-187.3"/>
</g>
<!-- Node4 -->
<g id="node4" class="node">
<title>Node4</title>
<g id="a_node4"><a xlink:href="dviout_8h.html" target="_top" xlink:title=" ">
<polygon fill="white" stroke="black" points="47.5,-116.5 47.5,-137.5 106.5,-137.5 106.5,-116.5 47.5,-116.5"/>
<text text-anchor="middle" x="77" y="-123.9" font-family="DejaVuSans" font-size="12.00">dviout.h</text>
</a>
</g>
</g>
<!-- Node3&#45;&gt;Node4 -->
<g id="edge4" class="edge">
<title>Node3&#45;&gt;Node4</title>
<path fill="none" stroke="midnightblue" d="M307.91,-176.79C263.78,-167.91 186.81,-152.26 121,-138 116.41,-137 111.55,-135.93 106.8,-134.86"/>
<polygon fill="midnightblue" stroke="midnightblue" points="307.38,-180.25 317.87,-178.79 308.76,-173.39 307.38,-180.25"/>
</g>
<!-- Node3&#45;&gt;Node5 -->
<g id="edge12" class="edge">
<title>Node3&#45;&gt;Node5</title>
<path fill="none" stroke="midnightblue" d="M307.49,-182.83C273.73,-179.69 224.72,-169.53 197,-138 182.6,-121.61 182.61,-94.16 183.82,-79.65"/>
<polygon fill="midnightblue" stroke="midnightblue" points="307.63,-186.35 317.87,-183.62 308.17,-179.37 307.63,-186.35"/>
</g>
<!-- Node7 -->
<g id="node7" class="node">
<title>Node7</title>
<g id="a_node7"><a xlink:href="expand_8c.html" target="_top" xlink:title=" ">
<polygon fill="white" stroke="black" points="315.5,-58.5 315.5,-79.5 380.5,-79.5 380.5,-58.5 315.5,-58.5"/>
<text text-anchor="middle" x="348" y="-65.9" font-family="DejaVuSans" font-size="12.00">expand.c</text>
</a>
</g>
</g>
<!-- Node3&#45;&gt;Node7 -->
<g id="edge8" class="edge">
<title>Node3&#45;&gt;Node7</title>
<path fill="none" stroke="midnightblue" d="M345.49,-164.45C346.06,-156.28 346.65,-146.69 347,-138 347.83,-117.24 347.99,-92.88 348.01,-79.69"/>
<polygon fill="midnightblue" stroke="midnightblue" points="342,-164.26 344.76,-174.49 348.98,-164.77 342,-164.26"/>
</g>
<!-- Node8 -->
<g id="node8" class="node">
<title>Node8</title>
<g id="a_node8"><a xlink:href="fonts_8c.html" target="_top" xlink:title=" ">
<polygon fill="white" stroke="black" points="682.5,-58.5 682.5,-79.5 733.5,-79.5 733.5,-58.5 682.5,-58.5"/>
<text text-anchor="middle" x="708" y="-65.9" font-family="DejaVuSans" font-size="12.00">fonts.c</text>
</a>
</g>
</g>
<!-- Node3&#45;&gt;Node8 -->
<g id="edge9" class="edge">
<title>Node3&#45;&gt;Node8</title>
<path fill="none" stroke="midnightblue" d="M380.88,-182.02C453.07,-177.6 610,-165.09 656,-138 679.56,-124.12 696.12,-95.07 703.57,-79.82"/>
<polygon fill="midnightblue" stroke="midnightblue" points="380.23,-178.55 370.46,-182.64 380.65,-185.54 380.23,-178.55"/>
</g>
<!-- Node9 -->
<g id="node9" class="node">
<title>Node9</title>
<g id="a_node9"><a xlink:href="printout_8c.html" target="_top" xlink:title=" ">
<polygon fill="white" stroke="black" points="838.5,-58.5 838.5,-79.5 903.5,-79.5 903.5,-58.5 838.5,-58.5"/>
<text text-anchor="middle" x="871" y="-65.9" font-family="DejaVuSans" font-size="12.00">printout.c</text>
</a>
</g>
</g>
<!-- Node3&#45;&gt;Node9 -->
<g id="edge10" class="edge">
<title>Node3&#45;&gt;Node9</title>
<path fill="none" stroke="midnightblue" d="M380.34,-181.57C442.76,-176.84 574.07,-164.45 682,-138 744.15,-122.77 814.31,-94.44 849.06,-79.61"/>
<polygon fill="midnightblue" stroke="midnightblue" points="379.93,-178.09 370.22,-182.32 380.45,-185.07 379.93,-178.09"/>
</g>
<!-- Node10 -->
<g id="node10" class="node">
<title>Node10</title>
<g id="a_node10"><a xlink:href="scan_8c.html" target="_top" xlink:title=" ">
<polygon fill="white" stroke="black" points="246.5,-58.5 246.5,-79.5 297.5,-79.5 297.5,-58.5 246.5,-58.5"/>
<text text-anchor="middle" x="272" y="-65.9" font-family="DejaVuSans" font-size="12.00">scan.c</text>
</a>
</g>
</g>
<!-- Node3&#45;&gt;Node10 -->
<g id="edge11" class="edge">
<title>Node3&#45;&gt;Node10</title>
<path fill="none" stroke="midnightblue" d="M337,-164.69C331.48,-150.62 323.05,-131.42 313,-116 304,-102.2 290.99,-88.36 282.05,-79.52"/>
<polygon fill="midnightblue" stroke="midnightblue" points="333.82,-166.18 340.63,-174.3 340.37,-163.7 333.82,-166.18"/>
</g>
<!-- Node4&#45;&gt;Node2 -->
<g id="edge5" class="edge">
<title>Node4&#45;&gt;Node2</title>
<path fill="none" stroke="midnightblue" d="M62,-108.5C53.84,-98.98 44.05,-87.56 37.27,-79.64"/>
<polygon fill="midnightblue" stroke="midnightblue" points="59.47,-110.93 68.64,-116.25 64.79,-106.38 59.47,-110.93"/>
</g>
<!-- Node4&#45;&gt;Node5 -->
<g id="edge6" class="edge">
<title>Node4&#45;&gt;Node5</title>
<path fill="none" stroke="midnightblue" d="M104.78,-111.6C124.14,-101.56 149.44,-88.44 166.4,-79.64"/>
<polygon fill="midnightblue" stroke="midnightblue" points="103.08,-108.54 95.81,-116.25 106.3,-114.75 103.08,-108.54"/>
</g>
<!-- Node6 -->
<g id="node6" class="node">
<title>Node6</title>
<g id="a_node6"><a xlink:href="tex_8c.html" target="_top" xlink:title=" ">
<polygon fill="white" stroke="black" points="164.5,-0.5 164.5,-21.5 205.5,-21.5 205.5,-0.5 164.5,-0.5"/>
<text text-anchor="middle" x="185" y="-7.9" font-family="DejaVuSans" font-size="12.00">tex.c</text>
</a>
</g>
</g>
<!-- Node5&#45;&gt;Node6 -->
<g id="edge7" class="edge">
<title>Node5&#45;&gt;Node6</title>
<path fill="none" stroke="midnightblue" d="M185,-48.16C185,-39.16 185,-28.92 185,-21.64"/>
<polygon fill="midnightblue" stroke="midnightblue" points="181.5,-48.25 185,-58.25 188.5,-48.25 181.5,-48.25"/>
</g>
<!-- Node14&#45;&gt;Node2 -->
<g id="edge17" class="edge">
<title>Node14&#45;&gt;Node2</title>
<path fill="none" stroke="midnightblue" d="M584.47,-183.3C516.41,-181.11 343.64,-172.34 204,-138 145.6,-123.64 80.48,-94.66 48.66,-79.59"/>
<polygon fill="midnightblue" stroke="midnightblue" points="584.38,-186.79 594.48,-183.59 584.58,-179.8 584.38,-186.79"/>
</g>
<!-- Node14&#45;&gt;Node5 -->
<g id="edge40" class="edge">
<title>Node14&#45;&gt;Node5</title>
<path fill="none" stroke="midnightblue" d="M583.97,-183.6C504.23,-182.06 289.22,-174.53 230,-138 207.83,-124.32 194.28,-95.18 188.42,-79.87"/>
<polygon fill="midnightblue" stroke="midnightblue" points="584.24,-187.11 594.3,-183.79 584.36,-180.11 584.24,-187.11"/>
</g>
<!-- Node14&#45;&gt;Node8 -->
<g id="edge18" class="edge">
<title>Node14&#45;&gt;Node8</title>
<path fill="none" stroke="midnightblue" d="M643.15,-172.47C658.85,-164.87 677.34,-153.45 689,-138 702.29,-120.39 706.29,-93.93 707.49,-79.76"/>
<polygon fill="midnightblue" stroke="midnightblue" points="641.47,-169.39 633.82,-176.71 644.37,-175.76 641.47,-169.39"/>
</g>
<!-- Node14&#45;&gt;Node9 -->
<g id="edge38" class="edge">
<title>Node14&#45;&gt;Node9</title>
<path fill="none" stroke="midnightblue" d="M643.9,-182.59C702.72,-179.18 830.36,-168.37 860,-138 875.2,-122.42 874.35,-94.62 872.58,-79.86"/>
<polygon fill="midnightblue" stroke="midnightblue" points="643.55,-179.11 633.75,-183.15 643.93,-186.1 643.55,-179.11"/>
</g>
<!-- Node14&#45;&gt;Node11 -->
<g id="edge19" class="edge">
<title>Node14&#45;&gt;Node11</title>
<path fill="none" stroke="midnightblue" d="M643.83,-183.61C697.97,-181.98 815.23,-174.15 906,-138 941.64,-123.8 977.19,-94.89 994.37,-79.74"/>
<polygon fill="midnightblue" stroke="midnightblue" points="643.47,-180.12 633.56,-183.87 643.65,-187.11 643.47,-180.12"/>
</g>
<!-- Node14&#45;&gt;Node13 -->
<g id="edge39" class="edge">
<title>Node14&#45;&gt;Node13</title>
<path fill="none" stroke="midnightblue" d="M643.77,-184.92C695.06,-185.24 801.98,-180.24 879,-138 904.77,-123.86 925.53,-94.92 935.16,-79.76"/>
<polygon fill="midnightblue" stroke="midnightblue" points="643.75,-181.42 633.7,-184.79 643.65,-188.42 643.75,-181.42"/>
</g>
<!-- Node15 -->
<g id="node15" class="node">
<title>Node15</title>
<g id="a_node15"><a xlink:href="global_8h.html" target="_top" xlink:title=" ">
<polygon fill="white" stroke="black" points="505,-116.5 505,-137.5 563,-137.5 563,-116.5 505,-116.5"/>
<text text-anchor="middle" x="534" y="-123.9" font-family="DejaVuSans" font-size="12.00">global.h</text>
</a>
</g>
</g>
<!-- Node14&#45;&gt;Node15 -->
<g id="edge20" class="edge">
<title>Node14&#45;&gt;Node15</title>
<path fill="none" stroke="midnightblue" d="M591.84,-168.49C577.73,-158.61 559.88,-146.12 547.78,-137.64"/>
<polygon fill="midnightblue" stroke="midnightblue" points="589.87,-171.38 600.07,-174.25 593.88,-165.64 589.87,-171.38"/>
</g>
<!-- Node19 -->
<g id="node19" class="node">
<title>Node19</title>
<g id="a_node19"><a xlink:href="pool__init_8c.html" target="_top" xlink:title=" ">
<polygon fill="white" stroke="black" points="779.5,-116.5 779.5,-137.5 850.5,-137.5 850.5,-116.5 779.5,-116.5"/>
<text text-anchor="middle" x="815" y="-123.9" font-family="DejaVuSans" font-size="12.00">pool_init.c</text>
</a>
</g>
</g>
<!-- Node14&#45;&gt;Node19 -->
<g id="edge30" class="edge">
<title>Node14&#45;&gt;Node19</title>
<path fill="none" stroke="midnightblue" d="M643.66,-175.74C680.16,-165.57 742.02,-148.33 780.58,-137.59"/>
<polygon fill="midnightblue" stroke="midnightblue" points="642.33,-172.47 633.64,-178.53 644.21,-179.22 642.33,-172.47"/>
</g>
<!-- Node20 -->
<g id="node20" class="node">
<title>Node20</title>
<g id="a_node20"><a xlink:href="print_8h.html" target="_top" xlink:title=" ">
<polygon fill="white" stroke="black" points="437,-116.5 437,-137.5 487,-137.5 487,-116.5 437,-116.5"/>
<text text-anchor="middle" x="462" y="-123.9" font-family="DejaVuSans" font-size="12.00">print.h</text>
</a>
</g>
</g>
<!-- Node14&#45;&gt;Node20 -->
<g id="edge31" class="edge">
<title>Node14&#45;&gt;Node20</title>
<path fill="none" stroke="midnightblue" d="M584.69,-173.2C556.34,-162.76 513.85,-147.1 487.04,-137.22"/>
<polygon fill="midnightblue" stroke="midnightblue" points="583.85,-176.62 594.44,-176.79 586.27,-170.05 583.85,-176.62"/>
</g>
<!-- Node21 -->
<g id="node21" class="node">
<title>Node21</title>
<g id="a_node21"><a xlink:href="texfunc_8h.html" target="_top" xlink:title=" ">
<polygon fill="white" stroke="black" points="581.5,-116.5 581.5,-137.5 646.5,-137.5 646.5,-116.5 581.5,-116.5"/>
<text text-anchor="middle" x="614" y="-123.9" font-family="DejaVuSans" font-size="12.00">texfunc.h</text>
</a>
</g>
</g>
<!-- Node14&#45;&gt;Node21 -->
<g id="edge41" class="edge">
<title>Node14&#45;&gt;Node21</title>
<path fill="none" stroke="midnightblue" d="M614,-164.16C614,-155.16 614,-144.92 614,-137.64"/>
<polygon fill="midnightblue" stroke="midnightblue" points="610.5,-164.25 614,-174.25 617.5,-164.25 610.5,-164.25"/>
</g>
<!-- Node15&#45;&gt;Node5 -->
<g id="edge29" class="edge">
<title>Node15&#45;&gt;Node5</title>
<path fill="none" stroke="midnightblue" d="M494.77,-115.94C380.32,-93.47 348.52,-98.46 237,-80 234.1,-79.52 231.11,-79 228.1,-78.47"/>
<polygon fill="midnightblue" stroke="midnightblue" points="494.13,-119.38 504.62,-117.9 495.5,-112.51 494.13,-119.38"/>
</g>
<!-- Node15&#45;&gt;Node7 -->
<g id="edge22" class="edge">
<title>Node15&#45;&gt;Node7</title>
<path fill="none" stroke="midnightblue" d="M495.26,-114.34C460.99,-104.02 411.61,-89.15 379.66,-79.53"/>
<polygon fill="midnightblue" stroke="midnightblue" points="494.35,-117.72 504.94,-117.25 496.37,-111.02 494.35,-117.72"/>
</g>
<!-- Node15&#45;&gt;Node8 -->
<g id="edge23" class="edge">
<title>Node15&#45;&gt;Node8</title>
<path fill="none" stroke="midnightblue" d="M573.02,-113.44C606.46,-102.68 653.66,-87.49 682.47,-78.22"/>
<polygon fill="midnightblue" stroke="midnightblue" points="571.57,-110.23 563.12,-116.63 573.72,-116.89 571.57,-110.23"/>
</g>
<!-- Node15&#45;&gt;Node10 -->
<g id="edge28" class="edge">
<title>Node15&#45;&gt;Node10</title>
<path fill="none" stroke="midnightblue" d="M494.58,-115.8C410.41,-97.25 386.45,-99.4 306,-80 303.25,-79.34 300.39,-78.59 297.55,-77.81"/>
<polygon fill="midnightblue" stroke="midnightblue" points="494.07,-119.27 504.59,-118.04 495.6,-112.44 494.07,-119.27"/>
</g>
<!-- Node15&#45;&gt;Node11 -->
<g id="edge24" class="edge">
<title>Node15&#45;&gt;Node11</title>
<path fill="none" stroke="midnightblue" d="M573.37,-116.23C748.98,-86.89 798.38,-111.19 969,-80 971.94,-79.46 974.98,-78.8 977.99,-78.06"/>
<polygon fill="midnightblue" stroke="midnightblue" points="572.55,-112.82 563.28,-117.96 573.72,-119.72 572.55,-112.82"/>
</g>
<!-- Node15&#45;&gt;Node12 -->
<g id="edge27" class="edge">
<title>Node15&#45;&gt;Node12</title>
<path fill="none" stroke="midnightblue" d="M505.93,-111.84C485.86,-101.71 459.41,-88.37 441.83,-79.5"/>
<polygon fill="midnightblue" stroke="midnightblue" points="504.41,-114.99 514.92,-116.37 507.57,-108.74 504.41,-114.99"/>
</g>
<!-- Node16 -->
<g id="node16" class="node">
<title>Node16</title>
<g id="a_node16"><a xlink:href="error_8c.html" target="_top" xlink:title=" ">
<polygon fill="white" stroke="black" points="535,-58.5 535,-79.5 585,-79.5 585,-58.5 535,-58.5"/>
<text text-anchor="middle" x="560" y="-65.9" font-family="DejaVuSans" font-size="12.00">error.c</text>
</a>
</g>
</g>
<!-- Node15&#45;&gt;Node16 -->
<g id="edge21" class="edge">
<title>Node15&#45;&gt;Node16</title>
<path fill="none" stroke="midnightblue" d="M542.8,-107.04C547.08,-97.83 552.03,-87.16 555.52,-79.64"/>
<polygon fill="midnightblue" stroke="midnightblue" points="539.57,-105.7 538.53,-116.25 545.91,-108.65 539.57,-105.7"/>
</g>
<!-- Node17 -->
<g id="node17" class="node">
<title>Node17</title>
<g id="a_node17"><a xlink:href="inputln_8c.html" target="_top" xlink:title=" ">
<polygon fill="white" stroke="black" points="603.5,-58.5 603.5,-79.5 664.5,-79.5 664.5,-58.5 603.5,-58.5"/>
<text text-anchor="middle" x="634" y="-65.9" font-family="DejaVuSans" font-size="12.00">inputln.c</text>
</a>
</g>
</g>
<!-- Node15&#45;&gt;Node17 -->
<g id="edge25" class="edge">
<title>Node15&#45;&gt;Node17</title>
<path fill="none" stroke="midnightblue" d="M560.21,-111.32C578.07,-101.32 601.22,-88.36 616.78,-79.64"/>
<polygon fill="midnightblue" stroke="midnightblue" points="558.43,-108.31 551.42,-116.25 561.85,-114.41 558.43,-108.31"/>
</g>
<!-- Node18 -->
<g id="node18" class="node">
<title>Node18</title>
<g id="a_node18"><a xlink:href="lexer_8c.html" target="_top" xlink:title=" ">
<polygon fill="white" stroke="black" points="465.5,-58.5 465.5,-79.5 516.5,-79.5 516.5,-58.5 465.5,-58.5"/>
<text text-anchor="middle" x="491" y="-65.9" font-family="DejaVuSans" font-size="12.00">lexer.c</text>
</a>
</g>
</g>
<!-- Node15&#45;&gt;Node18 -->
<g id="edge26" class="edge">
<title>Node15&#45;&gt;Node18</title>
<path fill="none" stroke="midnightblue" d="M520.34,-108.21C513.07,-98.75 504.42,-87.48 498.4,-79.64"/>
<polygon fill="midnightblue" stroke="midnightblue" points="517.64,-110.45 526.51,-116.25 523.2,-106.18 517.64,-110.45"/>
</g>
<!-- Node20&#45;&gt;Node5 -->
<g id="edge37" class="edge">
<title>Node20&#45;&gt;Node5</title>
<path fill="none" stroke="midnightblue" d="M427.12,-118.95C376.58,-108.73 283.04,-89.82 228.2,-78.73"/>
<polygon fill="midnightblue" stroke="midnightblue" points="426.43,-122.38 436.93,-120.93 427.82,-115.52 426.43,-122.38"/>
</g>
<!-- Node20&#45;&gt;Node7 -->
<g id="edge33" class="edge">
<title>Node20&#45;&gt;Node7</title>
<path fill="none" stroke="midnightblue" d="M433.17,-111.84C412.56,-101.71 385.39,-88.37 367.34,-79.5"/>
<polygon fill="midnightblue" stroke="midnightblue" points="431.88,-115.11 442.4,-116.37 434.97,-108.82 431.88,-115.11"/>
</g>
<!-- Node20&#45;&gt;Node8 -->
<g id="edge34" class="edge">
<title>Node20&#45;&gt;Node8</title>
<path fill="none" stroke="midnightblue" d="M497.1,-115.89C576.1,-96.78 598.71,-98.65 674,-80 676.75,-79.32 679.61,-78.56 682.44,-77.77"/>
<polygon fill="midnightblue" stroke="midnightblue" points="496.06,-112.54 487.18,-118.33 497.73,-119.34 496.06,-112.54"/>
</g>
<!-- Node20&#45;&gt;Node12 -->
<g id="edge36" class="edge">
<title>Node20&#45;&gt;Node12</title>
<path fill="none" stroke="midnightblue" d="M449.41,-107.92C442.86,-98.52 435.12,-87.4 429.72,-79.64"/>
<polygon fill="midnightblue" stroke="midnightblue" points="446.62,-110.04 455.21,-116.25 452.36,-106.04 446.62,-110.04"/>
</g>
<!-- Node20&#45;&gt;Node16 -->
<g id="edge32" class="edge">
<title>Node20&#45;&gt;Node16</title>
<path fill="none" stroke="midnightblue" d="M488.17,-111.05C505.61,-101.08 528.01,-88.28 543.13,-79.64"/>
<polygon fill="midnightblue" stroke="midnightblue" points="486.02,-108.25 479.07,-116.25 489.49,-114.32 486.02,-108.25"/>
</g>
<!-- Node20&#45;&gt;Node18 -->
<g id="edge35" class="edge">
<title>Node20&#45;&gt;Node18</title>
<path fill="none" stroke="midnightblue" d="M471.66,-107.34C476.47,-98.06 482.07,-87.24 486.01,-79.64"/>
<polygon fill="midnightblue" stroke="midnightblue" points="468.54,-105.76 467.05,-116.25 474.76,-108.98 468.54,-105.76"/>
</g>
<!-- Node21&#45;&gt;Node5 -->
<g id="edge50" class="edge">
<title>Node21&#45;&gt;Node5</title>
<path fill="none" stroke="midnightblue" d="M571.13,-116.05C422.68,-91.09 381.92,-101.68 237,-80 234.09,-79.56 231.1,-79.08 228.08,-78.57"/>
<polygon fill="midnightblue" stroke="midnightblue" points="570.62,-119.51 581.07,-117.74 571.8,-112.61 570.62,-119.51"/>
</g>
<!-- Node21&#45;&gt;Node7 -->
<g id="edge43" class="edge">
<title>Node21&#45;&gt;Node7</title>
<path fill="none" stroke="midnightblue" d="M571.23,-115.9C489.71,-98.35 467.42,-96.87 390,-80 386.92,-79.33 383.73,-78.61 380.53,-77.88"/>
<polygon fill="midnightblue" stroke="midnightblue" points="570.95,-119.42 581.47,-118.12 572.44,-112.58 570.95,-119.42"/>
</g>
<!-- Node21&#45;&gt;Node8 -->
<g id="edge44" class="edge">
<title>Node21&#45;&gt;Node8</title>
<path fill="none" stroke="midnightblue" d="M639.1,-111.05C655.83,-101.08 677.32,-88.28 691.81,-79.64"/>
<polygon fill="midnightblue" stroke="midnightblue" points="637.17,-108.12 630.37,-116.25 640.76,-114.13 637.17,-108.12"/>
</g>
<!-- Node21&#45;&gt;Node9 -->
<g id="edge47" class="edge">
<title>Node21&#45;&gt;Node9</title>
<path fill="none" stroke="midnightblue" d="M656.77,-117.15C700.2,-108.1 769.37,-93.48 829,-80 832.07,-79.31 835.26,-78.57 838.46,-77.83"/>
<polygon fill="midnightblue" stroke="midnightblue" points="655.91,-113.75 646.83,-119.22 657.34,-120.61 655.91,-113.75"/>
</g>
<!-- Node21&#45;&gt;Node10 -->
<g id="edge48" class="edge">
<title>Node21&#45;&gt;Node10</title>
<path fill="none" stroke="midnightblue" d="M570.9,-115.96C452.9,-94.72 419.48,-104.22 306,-80 303.23,-79.41 300.36,-78.71 297.51,-77.95"/>
<polygon fill="midnightblue" stroke="midnightblue" points="570.58,-119.46 581.05,-117.83 571.85,-112.58 570.58,-119.46"/>
</g>
<!-- Node21&#45;&gt;Node13 -->
<g id="edge49" class="edge">
<title>Node21&#45;&gt;Node13</title>
<path fill="none" stroke="midnightblue" d="M656.69,-122.02C715.17,-115.98 823.18,-102.73 913,-80 915.9,-79.27 918.93,-78.35 921.87,-77.37"/>
<polygon fill="midnightblue" stroke="midnightblue" points="656.3,-118.54 646.7,-123.03 657.01,-125.5 656.3,-118.54"/>
</g>
<!-- Node21&#45;&gt;Node16 -->
<g id="edge42" class="edge">
<title>Node21&#45;&gt;Node16</title>
<path fill="none" stroke="midnightblue" d="M597.4,-108.79C588.17,-99.21 577.01,-87.64 569.3,-79.64"/>
<polygon fill="midnightblue" stroke="midnightblue" points="595.13,-111.48 604.59,-116.25 600.17,-106.62 595.13,-111.48"/>
</g>
<!-- Node21&#45;&gt;Node17 -->
<g id="edge45" class="edge">
<title>Node21&#45;&gt;Node17</title>
<path fill="none" stroke="midnightblue" d="M620.88,-106.75C624.14,-97.61 627.9,-87.08 630.56,-79.64"/>
<polygon fill="midnightblue" stroke="midnightblue" points="617.55,-105.65 617.48,-116.25 624.14,-108.01 617.55,-105.65"/>
</g>
<!-- Node21&#45;&gt;Node18 -->
<g id="edge46" class="edge">
<title>Node21&#45;&gt;Node18</title>
<path fill="none" stroke="midnightblue" d="M583.49,-112.11C561.19,-101.96 531.52,-88.45 511.87,-79.5"/>
<polygon fill="midnightblue" stroke="midnightblue" points="582.3,-115.41 592.86,-116.37 585.2,-109.04 582.3,-115.41"/>
</g>
<!-- Node22 -->
<g id="node22" class="node">
<title>Node22</title>
<g id="a_node22"><a xlink:href="texmath_8c.html" target="_top" xlink:title=" ">
<polygon fill="white" stroke="black" points="752,-58.5 752,-79.5 820,-79.5 820,-58.5 752,-58.5"/>
<text text-anchor="middle" x="786" y="-65.9" font-family="DejaVuSans" font-size="12.00">texmath.c</text>
</a>
</g>
</g>
<!-- Node21&#45;&gt;Node22 -->
<g id="edge51" class="edge">
<title>Node21&#45;&gt;Node22</title>
<path fill="none" stroke="midnightblue" d="M653.34,-113.19C684.86,-102.93 728.35,-88.77 756.82,-79.5"/>
<polygon fill="midnightblue" stroke="midnightblue" points="651.99,-109.95 643.57,-116.37 654.16,-116.61 651.99,-109.95"/>
</g>
<!-- Node23&#45;&gt;Node5 -->
<g id="edge56" class="edge">
<title>Node23&#45;&gt;Node5</title>
<path fill="none" stroke="midnightblue" d="M248.34,-110.77C232.92,-100.85 213.27,-88.2 199.98,-79.64"/>
<polygon fill="midnightblue" stroke="midnightblue" points="246.54,-113.78 256.85,-116.25 250.33,-107.89 246.54,-113.78"/>
</g>
<!-- Node23&#45;&gt;Node7 -->
<g id="edge54" class="edge">
<title>Node23&#45;&gt;Node7</title>
<path fill="none" stroke="midnightblue" d="M293.43,-110.21C306.78,-100.37 323.52,-88.04 334.91,-79.64"/>
<polygon fill="midnightblue" stroke="midnightblue" points="291.21,-107.5 285.24,-116.25 295.36,-113.13 291.21,-107.5"/>
</g>
<!-- Node23&#45;&gt;Node10 -->
<g id="edge55" class="edge">
<title>Node23&#45;&gt;Node10</title>
<path fill="none" stroke="midnightblue" d="M272,-106.16C272,-97.16 272,-86.92 272,-79.64"/>
<polygon fill="midnightblue" stroke="midnightblue" points="268.5,-106.25 272,-116.25 275.5,-106.25 268.5,-106.25"/>
</g>
</g>
</svg>
