<?xml version="1.0" encoding="UTF-8" standalone="no"?>
<!DOCTYPE svg PUBLIC "-//W3C//DTD SVG 1.1//EN"
 "http://www.w3.org/Graphics/SVG/1.1/DTD/svg11.dtd">
<!-- Generated by graphviz version 2.44.0 ()
 -->
<!-- Title: global.h Pages: 1 -->
<svg width="1673pt" height="320pt"
 viewBox="0.00 0.00 1673.00 320.00" xmlns="http://www.w3.org/2000/svg" xmlns:xlink="http://www.w3.org/1999/xlink">
<g id="graph0" class="graph" transform="scale(1 1) rotate(0) translate(4 316)">
<title>global.h</title>
<polygon fill="white" stroke="transparent" points="-4,4 -4,-316 1669,-316 1669,4 -4,4"/>
<!-- Node1 -->
<g id="node1" class="node">
<title>Node1</title>
<g id="a_node1"><a xlink:title=" ">
<polygon fill="#bfbfbf" stroke="black" points="971.5,-290.5 971.5,-311.5 1029.5,-311.5 1029.5,-290.5 971.5,-290.5"/>
<text text-anchor="middle" x="1000.5" y="-297.9" font-family="DejaVuSans" font-size="12.00">global.h</text>
</a>
</g>
</g>
<!-- Node2 -->
<g id="node2" class="node">
<title>Node2</title>
<g id="a_node2"><a xlink:href="eqtb_8c.html" target="_top" xlink:title=" ">
<polygon fill="white" stroke="black" points="138,-58.5 138,-79.5 187,-79.5 187,-58.5 138,-58.5"/>
<text text-anchor="middle" x="162.5" y="-65.9" font-family="DejaVuSans" font-size="12.00">eqtb.c</text>
</a>
</g>
</g>
<!-- Node1&#45;&gt;Node2 -->
<g id="edge1" class="edge">
<title>Node1&#45;&gt;Node2</title>
<path fill="none" stroke="midnightblue" d="M961.09,-298.81C853.22,-295.19 554.98,-282.81 461.5,-254 336.27,-215.4 210.49,-111.85 173.41,-79.68"/>
<polygon fill="midnightblue" stroke="midnightblue" points="961.11,-302.31 971.22,-299.14 961.34,-295.31 961.11,-302.31"/>
</g>
<!-- Node3 -->
<g id="node3" class="node">
<title>Node3</title>
<g id="a_node3"><a xlink:href="error_8c.html" target="_top" xlink:title=" ">
<polygon fill="white" stroke="black" points="205.5,-58.5 205.5,-79.5 255.5,-79.5 255.5,-58.5 205.5,-58.5"/>
<text text-anchor="middle" x="230.5" y="-65.9" font-family="DejaVuSans" font-size="12.00">error.c</text>
</a>
</g>
</g>
<!-- Node1&#45;&gt;Node3 -->
<g id="edge2" class="edge">
<title>Node1&#45;&gt;Node3</title>
<path fill="none" stroke="midnightblue" d="M961.17,-298.4C861.31,-294 599.98,-280.25 517.5,-254 396.24,-215.41 276.23,-111.86 240.9,-79.68"/>
<polygon fill="midnightblue" stroke="midnightblue" points="961.29,-301.91 971.43,-298.85 961.59,-294.92 961.29,-301.91"/>
</g>
<!-- Node4 -->
<g id="node4" class="node">
<title>Node4</title>
<g id="a_node4"><a xlink:href="expand_8c.html" target="_top" xlink:title=" ">
<polygon fill="white" stroke="black" points="274,-58.5 274,-79.5 339,-79.5 339,-58.5 274,-58.5"/>
<text text-anchor="middle" x="306.5" y="-65.9" font-family="DejaVuSans" font-size="12.00">expand.c</text>
</a>
</g>
</g>
<!-- Node1&#45;&gt;Node4 -->
<g id="edge3" class="edge">
<title>Node1&#45;&gt;Node4</title>
<path fill="none" stroke="midnightblue" d="M961.38,-300.39C885.38,-300.16 713.15,-294.7 575.5,-254 520.61,-237.77 510.46,-223.94 460.5,-196 417.66,-172.04 404.04,-169.64 366.5,-138 344.83,-119.74 323.97,-93.54 313.5,-79.59"/>
<polygon fill="midnightblue" stroke="midnightblue" points="961.46,-303.89 971.46,-300.4 961.46,-296.89 961.46,-303.89"/>
</g>
<!-- Node5 -->
<g id="node5" class="node">
<title>Node5</title>
<g id="a_node5"><a xlink:href="fonts_8c.html" target="_top" xlink:title=" ">
<polygon fill="white" stroke="black" points="0,-58.5 0,-79.5 51,-79.5 51,-58.5 0,-58.5"/>
<text text-anchor="middle" x="25.5" y="-65.9" font-family="DejaVuSans" font-size="12.00">fonts.c</text>
</a>
</g>
</g>
<!-- Node1&#45;&gt;Node5 -->
<g id="edge4" class="edge">
<title>Node1&#45;&gt;Node5</title>
<path fill="none" stroke="midnightblue" d="M961.1,-299.37C837.81,-297.06 460.64,-287.37 343.5,-254 211.31,-216.34 76.33,-111.7 36.93,-79.53"/>
<polygon fill="midnightblue" stroke="midnightblue" points="961.16,-302.87 971.22,-299.55 961.29,-295.87 961.16,-302.87"/>
</g>
<!-- Node6 -->
<g id="node6" class="node">
<title>Node6</title>
<g id="a_node6"><a xlink:href="hash_8c.html" target="_top" xlink:title=" ">
<polygon fill="white" stroke="black" points="1239.5,-58.5 1239.5,-79.5 1291.5,-79.5 1291.5,-58.5 1239.5,-58.5"/>
<text text-anchor="middle" x="1265.5" y="-65.9" font-family="DejaVuSans" font-size="12.00">hash.c</text>
</a>
</g>
</g>
<!-- Node1&#45;&gt;Node6 -->
<g id="edge5" class="edge">
<title>Node1&#45;&gt;Node6</title>
<path fill="none" stroke="midnightblue" d="M1039.38,-293.29C1091.2,-282.28 1182.22,-255.36 1232.5,-196 1262.02,-161.15 1265.5,-102.85 1265.66,-79.8"/>
<polygon fill="midnightblue" stroke="midnightblue" points="1038.66,-289.87 1029.56,-295.29 1040.06,-296.73 1038.66,-289.87"/>
</g>
<!-- Node7 -->
<g id="node7" class="node">
<title>Node7</title>
<g id="a_node7"><a xlink:href="io_8c.html" target="_top" xlink:title=" ">
<polygon fill="white" stroke="black" points="1547,-232.5 1547,-253.5 1582,-253.5 1582,-232.5 1547,-232.5"/>
<text text-anchor="middle" x="1564.5" y="-239.9" font-family="DejaVuSans" font-size="12.00">io.c</text>
</a>
</g>
</g>
<!-- Node1&#45;&gt;Node7 -->
<g id="edge6" class="edge">
<title>Node1&#45;&gt;Node7</title>
<path fill="none" stroke="midnightblue" d="M1039.79,-299.5C1128.48,-297.75 1350.7,-289.83 1532.5,-254 1537.18,-253.08 1542.15,-251.72 1546.74,-250.3"/>
<polygon fill="midnightblue" stroke="midnightblue" points="1039.58,-296.01 1029.64,-299.69 1039.7,-303 1039.58,-296.01"/>
</g>
<!-- Node8 -->
<g id="node8" class="node">
<title>Node8</title>
<g id="a_node8"><a xlink:href="io__fname_8c.html" target="_top" xlink:title=" ">
<polygon fill="white" stroke="black" points="1379,-58.5 1379,-79.5 1454,-79.5 1454,-58.5 1379,-58.5"/>
<text text-anchor="middle" x="1416.5" y="-65.9" font-family="DejaVuSans" font-size="12.00">io_fname.c</text>
</a>
</g>
</g>
<!-- Node1&#45;&gt;Node8 -->
<g id="edge7" class="edge">
<title>Node1&#45;&gt;Node8</title>
<path fill="none" stroke="midnightblue" d="M1039.68,-298.03C1085.03,-294.37 1160.84,-283.9 1218.5,-254 1307.65,-207.77 1386.11,-110.25 1409.46,-79.5"/>
<polygon fill="midnightblue" stroke="midnightblue" points="1039.38,-294.54 1029.67,-298.77 1039.9,-301.52 1039.38,-294.54"/>
</g>
<!-- Node9 -->
<g id="node9" class="node">
<title>Node9</title>
<g id="a_node9"><a xlink:href="io__unix_8c.html" target="_top" xlink:title=" ">
<polygon fill="white" stroke="black" points="1600,-232.5 1600,-253.5 1665,-253.5 1665,-232.5 1600,-232.5"/>
<text text-anchor="middle" x="1632.5" y="-239.9" font-family="DejaVuSans" font-size="12.00">io_unix.c</text>
</a>
</g>
</g>
<!-- Node1&#45;&gt;Node9 -->
<g id="edge8" class="edge">
<title>Node1&#45;&gt;Node9</title>
<path fill="none" stroke="midnightblue" d="M1039.55,-299.06C1134.46,-296.31 1384.57,-286.34 1590.5,-254 1593.46,-253.53 1596.52,-252.97 1599.58,-252.35"/>
<polygon fill="midnightblue" stroke="midnightblue" points="1039.44,-295.56 1029.54,-299.34 1039.63,-302.56 1039.44,-295.56"/>
</g>
<!-- Node10 -->
<g id="node10" class="node">
<title>Node10</title>
<g id="a_node10"><a xlink:href="lexer_8c.html" target="_top" xlink:title=" ">
<polygon fill="white" stroke="black" points="69,-58.5 69,-79.5 120,-79.5 120,-58.5 69,-58.5"/>
<text text-anchor="middle" x="94.5" y="-65.9" font-family="DejaVuSans" font-size="12.00">lexer.c</text>
</a>
</g>
</g>
<!-- Node1&#45;&gt;Node10 -->
<g id="edge9" class="edge">
<title>Node1&#45;&gt;Node10</title>
<path fill="none" stroke="midnightblue" d="M961.26,-299.11C845.77,-296.15 508.65,-285.01 403.5,-254 274.45,-215.94 143.7,-111.57 105.56,-79.5"/>
<polygon fill="midnightblue" stroke="midnightblue" points="961.33,-302.61 971.41,-299.36 961.5,-295.61 961.33,-302.61"/>
</g>
<!-- Node11 -->
<g id="node11" class="node">
<title>Node11</title>
<g id="a_node11"><a xlink:href="mem_8h.html" target="_top" xlink:title=" ">
<polygon fill="white" stroke="black" points="646,-232.5 646,-253.5 699,-253.5 699,-232.5 646,-232.5"/>
<text text-anchor="middle" x="672.5" y="-239.9" font-family="DejaVuSans" font-size="12.00">mem.h</text>
</a>
</g>
</g>
<!-- Node1&#45;&gt;Node11 -->
<g id="edge10" class="edge">
<title>Node1&#45;&gt;Node11</title>
<path fill="none" stroke="midnightblue" d="M961.15,-293.28C893.53,-281.74 756.96,-258.42 699.23,-248.56"/>
<polygon fill="midnightblue" stroke="midnightblue" points="960.95,-296.8 971.39,-295.03 962.12,-289.9 960.95,-296.8"/>
</g>
<!-- Node21 -->
<g id="node21" class="node">
<title>Node21</title>
<g id="a_node21"><a xlink:href="pack_8c.html" target="_top" xlink:title=" ">
<polygon fill="white" stroke="black" points="1539,-58.5 1539,-79.5 1590,-79.5 1590,-58.5 1539,-58.5"/>
<text text-anchor="middle" x="1564.5" y="-65.9" font-family="DejaVuSans" font-size="12.00">pack.c</text>
</a>
</g>
</g>
<!-- Node1&#45;&gt;Node21 -->
<g id="edge58" class="edge">
<title>Node1&#45;&gt;Node21</title>
<path fill="none" stroke="midnightblue" d="M1040.02,-298.54C1096.23,-295.39 1201.74,-285.42 1285.5,-254 1401.76,-210.39 1518.61,-111.11 1553.82,-79.71"/>
<polygon fill="midnightblue" stroke="midnightblue" points="1039.59,-295.06 1029.78,-299.07 1039.95,-302.05 1039.59,-295.06"/>
</g>
<!-- Node22 -->
<g id="node22" class="node">
<title>Node22</title>
<g id="a_node22"><a xlink:href="scan_8c.html" target="_top" xlink:title=" ">
<polygon fill="white" stroke="black" points="1310,-58.5 1310,-79.5 1361,-79.5 1361,-58.5 1310,-58.5"/>
<text text-anchor="middle" x="1335.5" y="-65.9" font-family="DejaVuSans" font-size="12.00">scan.c</text>
</a>
</g>
</g>
<!-- Node1&#45;&gt;Node22 -->
<g id="edge60" class="edge">
<title>Node1&#45;&gt;Node22</title>
<path fill="none" stroke="midnightblue" d="M1039.53,-295.91C1078.75,-290.56 1140.02,-278.78 1187.5,-254 1265.64,-213.21 1316.92,-111.15 1331.34,-79.51"/>
<polygon fill="midnightblue" stroke="midnightblue" points="1039.04,-292.44 1029.57,-297.19 1039.93,-299.38 1039.04,-292.44"/>
</g>
<!-- Node23 -->
<g id="node23" class="node">
<title>Node23</title>
<g id="a_node23"><a xlink:href="tex__header_8h.html" target="_top" xlink:title=" ">
<polygon fill="white" stroke="black" points="357.5,-58.5 357.5,-79.5 443.5,-79.5 443.5,-58.5 357.5,-58.5"/>
<text text-anchor="middle" x="400.5" y="-65.9" font-family="DejaVuSans" font-size="12.00">tex_header.h</text>
</a>
</g>
</g>
<!-- Node1&#45;&gt;Node23 -->
<g id="edge61" class="edge">
<title>Node1&#45;&gt;Node23</title>
<path fill="none" stroke="midnightblue" d="M961.14,-300.83C872.41,-300.87 652.97,-290.64 504.5,-196 471.57,-175.01 463.05,-168.37 438.5,-138 423.37,-119.28 410.91,-93.72 404.72,-79.88"/>
<polygon fill="midnightblue" stroke="midnightblue" points="961.31,-304.32 971.29,-300.77 961.28,-297.32 961.31,-304.32"/>
</g>
<!-- Node27 -->
<g id="node27" class="node">
<title>Node27</title>
<g id="a_node27"><a xlink:href="print_8c.html" target="_top" xlink:title=" ">
<polygon fill="white" stroke="black" points="1472,-58.5 1472,-79.5 1521,-79.5 1521,-58.5 1472,-58.5"/>
<text text-anchor="middle" x="1496.5" y="-65.9" font-family="DejaVuSans" font-size="12.00">print.c</text>
</a>
</g>
</g>
<!-- Node1&#45;&gt;Node27 -->
<g id="edge59" class="edge">
<title>Node1&#45;&gt;Node27</title>
<path fill="none" stroke="midnightblue" d="M1040.08,-298.28C1090.78,-294.86 1180.47,-284.61 1250.5,-254 1355.08,-208.29 1456.72,-110.42 1487.25,-79.54"/>
<polygon fill="midnightblue" stroke="midnightblue" points="1039.64,-294.8 1029.87,-298.92 1040.07,-301.79 1039.64,-294.8"/>
</g>
<!-- Node11&#45;&gt;Node4 -->
<g id="edge17" class="edge">
<title>Node11&#45;&gt;Node4</title>
<path fill="none" stroke="midnightblue" d="M635.59,-235.22C600.8,-228.06 547.72,-215.15 504.5,-196 428.88,-162.5 348.68,-102.9 318.72,-79.66"/>
<polygon fill="midnightblue" stroke="midnightblue" points="635.27,-238.72 645.76,-237.25 636.64,-231.86 635.27,-238.72"/>
</g>
<!-- Node11&#45;&gt;Node5 -->
<g id="edge18" class="edge">
<title>Node11&#45;&gt;Node5</title>
<path fill="none" stroke="midnightblue" d="M636,-238.26C580.92,-232.14 473.54,-218.39 384.5,-196 308.3,-176.84 291.64,-164 217.5,-138 157.94,-117.11 88.09,-92.29 51.26,-79.18"/>
<polygon fill="midnightblue" stroke="midnightblue" points="635.66,-241.74 645.98,-239.34 636.42,-234.78 635.66,-241.74"/>
</g>
<!-- Node11&#45;&gt;Node10 -->
<g id="edge19" class="edge">
<title>Node11&#45;&gt;Node10</title>
<path fill="none" stroke="midnightblue" d="M635.92,-235.42C593.41,-227.47 521.32,-213 460.5,-196 329.77,-159.45 177.47,-102.13 119.03,-79.58"/>
<polygon fill="midnightblue" stroke="midnightblue" points="635.34,-238.87 645.81,-237.26 636.62,-231.99 635.34,-238.87"/>
</g>
<!-- Node12 -->
<g id="node12" class="node">
<title>Node12</title>
<g id="a_node12"><a xlink:href="box_8c.html" target="_top" xlink:title=" ">
<polygon fill="white" stroke="black" points="1179,-174.5 1179,-195.5 1224,-195.5 1224,-174.5 1179,-174.5"/>
<text text-anchor="middle" x="1201.5" y="-181.9" font-family="DejaVuSans" font-size="12.00">box.c</text>
</a>
</g>
</g>
<!-- Node11&#45;&gt;Node12 -->
<g id="edge11" class="edge">
<title>Node11&#45;&gt;Node12</title>
<path fill="none" stroke="midnightblue" d="M709.2,-240.71C791.35,-237.36 996.07,-226.4 1164.5,-196 1169.21,-195.15 1174.2,-193.99 1178.94,-192.75"/>
<polygon fill="midnightblue" stroke="midnightblue" points="708.97,-237.22 699.12,-241.11 709.25,-244.21 708.97,-237.22"/>
</g>
<!-- Node13 -->
<g id="node13" class="node">
<title>Node13</title>
<g id="a_node13"><a xlink:href="box__copy_8c.html" target="_top" xlink:title=" ">
<polygon fill="white" stroke="black" points="1071,-116.5 1071,-137.5 1148,-137.5 1148,-116.5 1071,-116.5"/>
<text text-anchor="middle" x="1109.5" y="-123.9" font-family="DejaVuSans" font-size="12.00">box_copy.c</text>
</a>
</g>
</g>
<!-- Node11&#45;&gt;Node13 -->
<g id="edge12" class="edge">
<title>Node11&#45;&gt;Node13</title>
<path fill="none" stroke="midnightblue" d="M709.49,-237.67C760.19,-231.23 853.84,-217.52 931.5,-196 989.68,-179.88 1055.37,-152.18 1088.29,-137.61"/>
<polygon fill="midnightblue" stroke="midnightblue" points="708.83,-234.22 699.34,-238.93 709.7,-241.17 708.83,-234.22"/>
</g>
<!-- Node14 -->
<g id="node14" class="node">
<title>Node14</title>
<g id="a_node14"><a xlink:href="box__destroy_8c.html" target="_top" xlink:title=" ">
<polygon fill="white" stroke="black" points="627,-116.5 627,-137.5 718,-137.5 718,-116.5 627,-116.5"/>
<text text-anchor="middle" x="672.5" y="-123.9" font-family="DejaVuSans" font-size="12.00">box_destroy.c</text>
</a>
</g>
</g>
<!-- Node11&#45;&gt;Node14 -->
<g id="edge13" class="edge">
<title>Node11&#45;&gt;Node14</title>
<path fill="none" stroke="midnightblue" d="M672.5,-222.25C672.5,-197.58 672.5,-156.35 672.5,-137.69"/>
<polygon fill="midnightblue" stroke="midnightblue" points="669,-222.28 672.5,-232.28 676,-222.28 669,-222.28"/>
</g>
<!-- Node15 -->
<g id="node15" class="node">
<title>Node15</title>
<g id="a_node15"><a xlink:href="box__display_8c.html" target="_top" xlink:title=" ">
<polygon fill="white" stroke="black" points="462,-58.5 462,-79.5 551,-79.5 551,-58.5 462,-58.5"/>
<text text-anchor="middle" x="506.5" y="-65.9" font-family="DejaVuSans" font-size="12.00">box_display.c</text>
</a>
</g>
</g>
<!-- Node11&#45;&gt;Node15 -->
<g id="edge14" class="edge">
<title>Node11&#45;&gt;Node15</title>
<path fill="none" stroke="midnightblue" d="M636.07,-235.28C611.11,-228.97 578.79,-217.2 557.5,-196 523.56,-162.19 511.38,-102.77 507.79,-79.62"/>
<polygon fill="midnightblue" stroke="midnightblue" points="635.38,-238.71 645.91,-237.58 636.98,-231.89 635.38,-238.71"/>
</g>
<!-- Node16 -->
<g id="node16" class="node">
<title>Node16</title>
<g id="a_node16"><a xlink:href="dviout_8c.html" target="_top" xlink:title=" ">
<polygon fill="white" stroke="black" points="568.5,-58.5 568.5,-79.5 626.5,-79.5 626.5,-58.5 568.5,-58.5"/>
<text text-anchor="middle" x="597.5" y="-65.9" font-family="DejaVuSans" font-size="12.00">dviout.c</text>
</a>
</g>
</g>
<!-- Node11&#45;&gt;Node16 -->
<g id="edge15" class="edge">
<title>Node11&#45;&gt;Node16</title>
<path fill="none" stroke="midnightblue" d="M636.11,-235.88C613.04,-229.92 584.92,-218.32 570.5,-196 551.21,-166.13 561.17,-150.31 570.5,-116 574.24,-102.24 583.25,-88.39 589.84,-79.53"/>
<polygon fill="midnightblue" stroke="midnightblue" points="635.43,-239.32 645.96,-238.18 637.02,-232.5 635.43,-239.32"/>
</g>
<!-- Node17 -->
<g id="node17" class="node">
<title>Node17</title>
<g id="a_node17"><a xlink:href="eqtb__save_8c.html" target="_top" xlink:title=" ">
<polygon fill="white" stroke="black" points="645,-58.5 645,-79.5 726,-79.5 726,-58.5 645,-58.5"/>
<text text-anchor="middle" x="685.5" y="-65.9" font-family="DejaVuSans" font-size="12.00">eqtb_save.c</text>
</a>
</g>
</g>
<!-- Node11&#45;&gt;Node17 -->
<g id="edge16" class="edge">
<title>Node11&#45;&gt;Node17</title>
<path fill="none" stroke="midnightblue" d="M636.19,-232.84C617.26,-226.02 595.76,-214.58 584.5,-196 566.08,-165.59 565.26,-145.9 584.5,-116 597.79,-95.34 622.9,-83.85 644.75,-77.52"/>
<polygon fill="midnightblue" stroke="midnightblue" points="635.19,-236.2 645.79,-236 637.38,-229.55 635.19,-236.2"/>
</g>
<!-- Node18 -->
<g id="node18" class="node">
<title>Node18</title>
<g id="a_node18"><a xlink:href="math__formula_8c.html" target="_top" xlink:title=" ">
<polygon fill="white" stroke="black" points="1053.5,-58.5 1053.5,-79.5 1151.5,-79.5 1151.5,-58.5 1053.5,-58.5"/>
<text text-anchor="middle" x="1102.5" y="-65.9" font-family="DejaVuSans" font-size="12.00">math_formula.c</text>
</a>
</g>
</g>
<!-- Node11&#45;&gt;Node18 -->
<g id="edge20" class="edge">
<title>Node11&#45;&gt;Node18</title>
<path fill="none" stroke="midnightblue" d="M709.29,-240.17C813,-234.13 1103.6,-210.87 1156.5,-138 1172,-116.65 1141.07,-92.71 1119.95,-79.7"/>
<polygon fill="midnightblue" stroke="midnightblue" points="709.07,-236.68 699.28,-240.73 709.47,-243.66 709.07,-236.68"/>
</g>
<!-- Node19 -->
<g id="node19" class="node">
<title>Node19</title>
<g id="a_node19"><a xlink:href="mem_8c.html" target="_top" xlink:title=" ">
<polygon fill="white" stroke="black" points="1169.5,-58.5 1169.5,-79.5 1221.5,-79.5 1221.5,-58.5 1169.5,-58.5"/>
<text text-anchor="middle" x="1195.5" y="-65.9" font-family="DejaVuSans" font-size="12.00">mem.c</text>
</a>
</g>
</g>
<!-- Node11&#45;&gt;Node19 -->
<g id="edge21" class="edge">
<title>Node11&#45;&gt;Node19</title>
<path fill="none" stroke="midnightblue" d="M709.21,-240.15C797.1,-235.36 1017.45,-221.15 1086.5,-196 1130.16,-180.09 1145.46,-175.06 1173.5,-138 1186.98,-120.19 1192.38,-93.81 1194.4,-79.71"/>
<polygon fill="midnightblue" stroke="midnightblue" points="708.96,-236.66 699.17,-240.69 709.34,-243.65 708.96,-236.66"/>
</g>
<!-- Node20 -->
<g id="node20" class="node">
<title>Node20</title>
<g id="a_node20"><a xlink:href="mmode_8c.html" target="_top" xlink:title=" ">
<polygon fill="white" stroke="black" points="744,-58.5 744,-79.5 809,-79.5 809,-58.5 744,-58.5"/>
<text text-anchor="middle" x="776.5" y="-65.9" font-family="DejaVuSans" font-size="12.00">mmode.c</text>
</a>
</g>
</g>
<!-- Node11&#45;&gt;Node20 -->
<g id="edge22" class="edge">
<title>Node11&#45;&gt;Node20</title>
<path fill="none" stroke="midnightblue" d="M654.89,-225.27C630.28,-199.84 591.38,-150.75 617.5,-116 621.39,-110.83 698.41,-90.19 743.81,-78.39"/>
<polygon fill="midnightblue" stroke="midnightblue" points="652.44,-227.77 661.98,-232.36 657.38,-222.82 652.44,-227.77"/>
</g>
<!-- Node11&#45;&gt;Node21 -->
<g id="edge23" class="edge">
<title>Node11&#45;&gt;Node21</title>
<path fill="none" stroke="midnightblue" d="M709.17,-240.66C821,-236.34 1156.55,-221.54 1262.5,-196 1376,-168.64 1501.88,-104.01 1547.13,-79.58"/>
<polygon fill="midnightblue" stroke="midnightblue" points="708.92,-237.17 699.06,-241.05 709.18,-244.16 708.92,-237.17"/>
</g>
<!-- Node11&#45;&gt;Node22 -->
<g id="edge24" class="edge">
<title>Node11&#45;&gt;Node22</title>
<path fill="none" stroke="midnightblue" d="M709.33,-240.64C826.61,-236.08 1186.34,-220.25 1232.5,-196 1283.77,-169.06 1318.98,-104.47 1330.97,-79.8"/>
<polygon fill="midnightblue" stroke="midnightblue" points="708.93,-237.15 699.07,-241.03 709.2,-244.15 708.93,-237.15"/>
</g>
<!-- Node11&#45;&gt;Node23 -->
<g id="edge25" class="edge">
<title>Node11&#45;&gt;Node23</title>
<path fill="none" stroke="midnightblue" d="M636.14,-233.99C607.91,-226.76 568.5,-214.41 537.5,-196 481.1,-162.5 428,-102.9 408.43,-79.66"/>
<polygon fill="midnightblue" stroke="midnightblue" points="635.45,-237.42 645.99,-236.42 637.12,-230.63 635.45,-237.42"/>
</g>
<!-- Node25 -->
<g id="node25" class="node">
<title>Node25</title>
<g id="a_node25"><a xlink:href="texmac_8h.html" target="_top" xlink:title=" ">
<polygon fill="white" stroke="black" points="858,-174.5 858,-195.5 923,-195.5 923,-174.5 858,-174.5"/>
<text text-anchor="middle" x="890.5" y="-181.9" font-family="DejaVuSans" font-size="12.00">texmac.h</text>
</a>
</g>
</g>
<!-- Node11&#45;&gt;Node25 -->
<g id="edge27" class="edge">
<title>Node11&#45;&gt;Node25</title>
<path fill="none" stroke="midnightblue" d="M708.96,-232.63C750.55,-221.95 817.94,-204.64 857.86,-194.38"/>
<polygon fill="midnightblue" stroke="midnightblue" points="708.05,-229.26 699.23,-235.13 709.79,-236.04 708.05,-229.26"/>
</g>
<!-- Node24 -->
<g id="node24" class="node">
<title>Node24</title>
<g id="a_node24"><a xlink:href="tex_8c.html" target="_top" xlink:title=" ">
<polygon fill="white" stroke="black" points="380,-0.5 380,-21.5 421,-21.5 421,-0.5 380,-0.5"/>
<text text-anchor="middle" x="400.5" y="-7.9" font-family="DejaVuSans" font-size="12.00">tex.c</text>
</a>
</g>
</g>
<!-- Node23&#45;&gt;Node24 -->
<g id="edge26" class="edge">
<title>Node23&#45;&gt;Node24</title>
<path fill="none" stroke="midnightblue" d="M400.5,-48.16C400.5,-39.16 400.5,-28.92 400.5,-21.64"/>
<polygon fill="midnightblue" stroke="midnightblue" points="397,-48.25 400.5,-58.25 404,-48.25 397,-48.25"/>
</g>
<!-- Node25&#45;&gt;Node4 -->
<g id="edge30" class="edge">
<title>Node25&#45;&gt;Node4</title>
<path fill="none" stroke="midnightblue" d="M847.97,-171.73C822.07,-163.58 788.66,-151.85 760.5,-138 744.35,-130.05 743.5,-121.91 726.5,-116 567.1,-60.58 514.99,-107.61 348.5,-80 345.54,-79.51 342.48,-78.93 339.43,-78.3"/>
<polygon fill="midnightblue" stroke="midnightblue" points="847.27,-175.18 857.86,-174.78 849.33,-168.49 847.27,-175.18"/>
</g>
<!-- Node25&#45;&gt;Node6 -->
<g id="edge31" class="edge">
<title>Node25&#45;&gt;Node6</title>
<path fill="none" stroke="midnightblue" d="M920.64,-170.18C939.88,-161.24 965.3,-149.21 987.5,-138 1005.96,-128.68 1008.97,-122.79 1028.5,-116 1114.64,-86.07 1141.65,-100.55 1230.5,-80 1233.33,-79.34 1236.28,-78.6 1239.2,-77.82"/>
<polygon fill="midnightblue" stroke="midnightblue" points="919.06,-167.05 911.46,-174.43 922,-173.4 919.06,-167.05"/>
</g>
<!-- Node25&#45;&gt;Node13 -->
<g id="edge28" class="edge">
<title>Node25&#45;&gt;Node13</title>
<path fill="none" stroke="midnightblue" d="M933.1,-173.11C973.47,-162.78 1033.51,-147.43 1072.08,-137.57"/>
<polygon fill="midnightblue" stroke="midnightblue" points="932.11,-169.75 923.29,-175.62 933.84,-176.53 932.11,-169.75"/>
</g>
<!-- Node25&#45;&gt;Node14 -->
<g id="edge29" class="edge">
<title>Node25&#45;&gt;Node14</title>
<path fill="none" stroke="midnightblue" d="M848.09,-173.11C807.91,-162.78 748.14,-147.43 709.75,-137.57"/>
<polygon fill="midnightblue" stroke="midnightblue" points="847.31,-176.52 857.86,-175.62 849.05,-169.74 847.31,-176.52"/>
</g>
<!-- Node25&#45;&gt;Node18 -->
<g id="edge32" class="edge">
<title>Node25&#45;&gt;Node18</title>
<path fill="none" stroke="midnightblue" d="M902.69,-165.93C913.94,-150.57 931.97,-129 952.5,-116 983.22,-96.54 1022.69,-84.87 1053.43,-78.15"/>
<polygon fill="midnightblue" stroke="midnightblue" points="899.8,-163.95 896.89,-174.14 905.52,-167.99 899.8,-163.95"/>
</g>
<!-- Node25&#45;&gt;Node19 -->
<g id="edge33" class="edge">
<title>Node25&#45;&gt;Node19</title>
<path fill="none" stroke="midnightblue" d="M911.55,-168.26C935.73,-150.43 974.16,-122.97 990.5,-116 1061.55,-85.72 1085.55,-98.62 1160.5,-80 1163.32,-79.3 1166.26,-78.53 1169.18,-77.73"/>
<polygon fill="midnightblue" stroke="midnightblue" points="909.3,-165.56 903.35,-174.33 913.47,-171.19 909.3,-165.56"/>
</g>
<!-- Node25&#45;&gt;Node22 -->
<g id="edge56" class="edge">
<title>Node25&#45;&gt;Node22</title>
<path fill="none" stroke="midnightblue" d="M932.52,-171.47C958.83,-163.11 993.18,-151.25 1022.5,-138 1040.63,-129.8 1042.68,-122.48 1061.5,-116 1163.07,-81.03 1195.53,-102.8 1300.5,-80 1303.59,-79.33 1306.8,-78.54 1309.98,-77.7"/>
<polygon fill="midnightblue" stroke="midnightblue" points="931.36,-168.17 922.86,-174.5 933.45,-174.85 931.36,-168.17"/>
</g>
<!-- Node25&#45;&gt;Node23 -->
<g id="edge57" class="edge">
<title>Node25&#45;&gt;Node23</title>
<path fill="none" stroke="midnightblue" d="M863.51,-169.73C826.23,-150.03 763.23,-116.84 760.5,-116 628.8,-75.38 588.71,-101.03 452.5,-80 449.59,-79.55 446.6,-79.06 443.59,-78.54"/>
<polygon fill="midnightblue" stroke="midnightblue" points="861.9,-172.84 872.38,-174.41 865.17,-166.65 861.9,-172.84"/>
</g>
<!-- Node26 -->
<g id="node26" class="node">
<title>Node26</title>
<g id="a_node26"><a xlink:href="print_8h.html" target="_top" xlink:title=" ">
<polygon fill="white" stroke="black" points="812.5,-116.5 812.5,-137.5 862.5,-137.5 862.5,-116.5 812.5,-116.5"/>
<text text-anchor="middle" x="837.5" y="-123.9" font-family="DejaVuSans" font-size="12.00">print.h</text>
</a>
</g>
</g>
<!-- Node25&#45;&gt;Node26 -->
<g id="edge34" class="edge">
<title>Node25&#45;&gt;Node26</title>
<path fill="none" stroke="midnightblue" d="M874.21,-166.79C865.14,-157.21 854.19,-145.64 846.63,-137.64"/>
<polygon fill="midnightblue" stroke="midnightblue" points="871.85,-169.39 881.27,-174.25 876.94,-164.58 871.85,-169.39"/>
</g>
<!-- Node28 -->
<g id="node28" class="node">
<title>Node28</title>
<g id="a_node28"><a xlink:href="printout_8c.html" target="_top" xlink:title=" ">
<polygon fill="white" stroke="black" points="970,-58.5 970,-79.5 1035,-79.5 1035,-58.5 970,-58.5"/>
<text text-anchor="middle" x="1002.5" y="-65.9" font-family="DejaVuSans" font-size="12.00">printout.c</text>
</a>
</g>
</g>
<!-- Node25&#45;&gt;Node28 -->
<g id="edge55" class="edge">
<title>Node25&#45;&gt;Node28</title>
<path fill="none" stroke="midnightblue" d="M893.52,-163.99C896.62,-149.28 902.74,-129.57 914.5,-116 929.52,-98.68 952.68,-86.94 971.48,-79.65"/>
<polygon fill="midnightblue" stroke="midnightblue" points="890.03,-163.62 891.69,-174.08 896.92,-164.87 890.03,-163.62"/>
</g>
<!-- Node26&#45;&gt;Node2 -->
<g id="edge37" class="edge">
<title>Node26&#45;&gt;Node2</title>
<path fill="none" stroke="midnightblue" d="M802.27,-122.63C780.45,-120.59 751.86,-118 726.5,-116 491.13,-97.41 428.91,-121.56 196.5,-80 193.47,-79.46 190.33,-78.75 187.23,-77.95"/>
<polygon fill="midnightblue" stroke="midnightblue" points="802.1,-126.13 812.39,-123.58 802.76,-119.16 802.1,-126.13"/>
</g>
<!-- Node26&#45;&gt;Node3 -->
<g id="edge39" class="edge">
<title>Node26&#45;&gt;Node3</title>
<path fill="none" stroke="midnightblue" d="M802.26,-122.72C780.44,-120.71 751.85,-118.13 726.5,-116 521.27,-98.76 467.06,-117.26 264.5,-80 261.6,-79.47 258.58,-78.78 255.61,-78.02"/>
<polygon fill="midnightblue" stroke="midnightblue" points="802.1,-126.22 812.38,-123.65 802.74,-119.25 802.1,-126.22"/>
</g>
<!-- Node26&#45;&gt;Node4 -->
<g id="edge40" class="edge">
<title>Node26&#45;&gt;Node4</title>
<path fill="none" stroke="midnightblue" d="M802.19,-121.1C789.11,-119.37 774.14,-117.48 760.5,-116 577.77,-96.16 529.95,-109.37 348.5,-80 345.54,-79.52 342.48,-78.95 339.42,-78.32"/>
<polygon fill="midnightblue" stroke="midnightblue" points="801.84,-124.58 812.22,-122.44 802.77,-117.64 801.84,-124.58"/>
</g>
<!-- Node26&#45;&gt;Node5 -->
<g id="edge41" class="edge">
<title>Node26&#45;&gt;Node5</title>
<path fill="none" stroke="midnightblue" d="M802.27,-122.5C780.47,-120.42 751.88,-117.83 726.5,-116 430.39,-94.68 352.1,-130.22 59.5,-80 56.83,-79.54 54.08,-78.95 51.34,-78.27"/>
<polygon fill="midnightblue" stroke="midnightblue" points="802.1,-126 812.39,-123.48 802.78,-119.03 802.1,-126"/>
</g>
<!-- Node26&#45;&gt;Node6 -->
<g id="edge42" class="edge">
<title>Node26&#45;&gt;Node6</title>
<path fill="none" stroke="midnightblue" d="M872.88,-123.79C942.1,-119.03 1100.06,-106.09 1230.5,-80 1233.35,-79.43 1236.31,-78.74 1239.24,-78"/>
<polygon fill="midnightblue" stroke="midnightblue" points="872.29,-120.32 862.55,-124.48 872.76,-127.3 872.29,-120.32"/>
</g>
<!-- Node26&#45;&gt;Node8 -->
<g id="edge43" class="edge">
<title>Node26&#45;&gt;Node8</title>
<path fill="none" stroke="midnightblue" d="M872.75,-124.46C958.29,-120.39 1183.52,-107.72 1369.5,-80 1372.55,-79.55 1375.71,-79.01 1378.86,-78.43"/>
<polygon fill="midnightblue" stroke="midnightblue" points="872.38,-120.97 862.56,-124.93 872.71,-127.96 872.38,-120.97"/>
</g>
<!-- Node26&#45;&gt;Node10 -->
<g id="edge44" class="edge">
<title>Node26&#45;&gt;Node10</title>
<path fill="none" stroke="midnightblue" d="M802.27,-122.56C780.46,-120.49 751.87,-117.91 726.5,-116 460.99,-96.05 390.78,-125.86 128.5,-80 125.83,-79.53 123.08,-78.93 120.35,-78.26"/>
<polygon fill="midnightblue" stroke="midnightblue" points="802.1,-126.06 812.39,-123.52 802.77,-119.09 802.1,-126.06"/>
</g>
<!-- Node26&#45;&gt;Node15 -->
<g id="edge35" class="edge">
<title>Node26&#45;&gt;Node15</title>
<path fill="none" stroke="midnightblue" d="M802.37,-116.82C801.06,-116.53 799.77,-116.26 798.5,-116 693.23,-94.63 665.41,-97.96 559.5,-80 556.73,-79.53 553.88,-79.03 551.01,-78.52"/>
<polygon fill="midnightblue" stroke="midnightblue" points="801.88,-120.3 812.41,-119.17 803.47,-113.48 801.88,-120.3"/>
</g>
<!-- Node26&#45;&gt;Node16 -->
<g id="edge36" class="edge">
<title>Node26&#45;&gt;Node16</title>
<path fill="none" stroke="midnightblue" d="M802.34,-116.93C801.05,-116.61 799.76,-116.3 798.5,-116 726.33,-98.78 707.61,-97.44 635.5,-80 632.58,-79.29 629.55,-78.54 626.52,-77.76"/>
<polygon fill="midnightblue" stroke="midnightblue" points="801.81,-120.4 812.36,-119.42 803.5,-113.61 801.81,-120.4"/>
</g>
<!-- Node26&#45;&gt;Node17 -->
<g id="edge38" class="edge">
<title>Node26&#45;&gt;Node17</title>
<path fill="none" stroke="midnightblue" d="M802.68,-113.17C774.88,-102.93 736.54,-88.81 711.4,-79.54"/>
<polygon fill="midnightblue" stroke="midnightblue" points="801.81,-116.58 812.4,-116.75 804.23,-110.01 801.81,-116.58"/>
</g>
<!-- Node26&#45;&gt;Node18 -->
<g id="edge45" class="edge">
<title>Node26&#45;&gt;Node18</title>
<path fill="none" stroke="midnightblue" d="M872.76,-118.55C920.36,-108.49 1005.22,-90.56 1057.41,-79.53"/>
<polygon fill="midnightblue" stroke="midnightblue" points="871.97,-115.14 862.91,-120.63 873.42,-121.99 871.97,-115.14"/>
</g>
<!-- Node26&#45;&gt;Node19 -->
<g id="edge46" class="edge">
<title>Node26&#45;&gt;Node19</title>
<path fill="none" stroke="midnightblue" d="M872.87,-122.56C932.59,-116.41 1057.02,-102.04 1160.5,-80 1163.34,-79.39 1166.29,-78.68 1169.22,-77.92"/>
<polygon fill="midnightblue" stroke="midnightblue" points="872.43,-119.09 862.84,-123.58 873.14,-126.06 872.43,-119.09"/>
</g>
<!-- Node26&#45;&gt;Node20 -->
<g id="edge47" class="edge">
<title>Node26&#45;&gt;Node20</title>
<path fill="none" stroke="midnightblue" d="M819.38,-109.36C808.82,-99.67 795.89,-87.8 787,-79.64"/>
<polygon fill="midnightblue" stroke="midnightblue" points="817.14,-112.06 826.87,-116.25 821.88,-106.9 817.14,-112.06"/>
</g>
<!-- Node26&#45;&gt;Node21 -->
<g id="edge48" class="edge">
<title>Node26&#45;&gt;Node21</title>
<path fill="none" stroke="midnightblue" d="M872.89,-124.09C1004.94,-116.9 1464.6,-91.3 1529.5,-80 1532.49,-79.48 1535.59,-78.8 1538.65,-78.05"/>
<polygon fill="midnightblue" stroke="midnightblue" points="872.34,-120.61 862.55,-124.65 872.72,-127.6 872.34,-120.61"/>
</g>
<!-- Node26&#45;&gt;Node22 -->
<g id="edge51" class="edge">
<title>Node26&#45;&gt;Node22</title>
<path fill="none" stroke="midnightblue" d="M873.06,-124.64C951.08,-121.18 1142.88,-110.1 1300.5,-80 1303.48,-79.43 1306.57,-78.72 1309.63,-77.95"/>
<polygon fill="midnightblue" stroke="midnightblue" points="872.66,-121.15 862.82,-125.08 872.96,-128.15 872.66,-121.15"/>
</g>
<!-- Node26&#45;&gt;Node23 -->
<g id="edge53" class="edge">
<title>Node26&#45;&gt;Node23</title>
<path fill="none" stroke="midnightblue" d="M802.38,-116.74C801.07,-116.48 799.78,-116.23 798.5,-116 646.32,-88.73 605.44,-102.62 452.5,-80 449.59,-79.57 446.59,-79.09 443.58,-78.58"/>
<polygon fill="midnightblue" stroke="midnightblue" points="801.92,-120.22 812.44,-119 803.45,-113.39 801.92,-120.22"/>
</g>
<!-- Node26&#45;&gt;Node27 -->
<g id="edge49" class="edge">
<title>Node26&#45;&gt;Node27</title>
<path fill="none" stroke="midnightblue" d="M873.05,-124.38C987.86,-118.99 1347.91,-100.82 1462.5,-80 1465.53,-79.45 1468.67,-78.73 1471.76,-77.94"/>
<polygon fill="midnightblue" stroke="midnightblue" points="872.55,-120.9 862.72,-124.86 872.87,-127.89 872.55,-120.9"/>
</g>
<!-- Node26&#45;&gt;Node28 -->
<g id="edge50" class="edge">
<title>Node26&#45;&gt;Node28</title>
<path fill="none" stroke="midnightblue" d="M872.32,-114.18C902.71,-103.87 946.24,-89.1 974.44,-79.52"/>
<polygon fill="midnightblue" stroke="midnightblue" points="870.9,-110.97 862.56,-117.49 873.15,-117.6 870.9,-110.97"/>
</g>
<!-- Node29 -->
<g id="node29" class="node">
<title>Node29</title>
<g id="a_node29"><a xlink:href="str_8c.html" target="_top" xlink:title=" ">
<polygon fill="white" stroke="black" points="827.5,-58.5 827.5,-79.5 865.5,-79.5 865.5,-58.5 827.5,-58.5"/>
<text text-anchor="middle" x="846.5" y="-65.9" font-family="DejaVuSans" font-size="12.00">str.c</text>
</a>
</g>
</g>
<!-- Node26&#45;&gt;Node29 -->
<g id="edge52" class="edge">
<title>Node26&#45;&gt;Node29</title>
<path fill="none" stroke="midnightblue" d="M840.69,-106.16C842.14,-97.16 843.78,-86.92 844.95,-79.64"/>
<polygon fill="midnightblue" stroke="midnightblue" points="837.2,-105.82 839.07,-116.25 844.11,-106.93 837.2,-105.82"/>
</g>
<!-- Node30 -->
<g id="node30" class="node">
<title>Node30</title>
<g id="a_node30"><a xlink:href="texmath_8c.html" target="_top" xlink:title=" ">
<polygon fill="white" stroke="black" points="883.5,-58.5 883.5,-79.5 951.5,-79.5 951.5,-58.5 883.5,-58.5"/>
<text text-anchor="middle" x="917.5" y="-65.9" font-family="DejaVuSans" font-size="12.00">texmath.c</text>
</a>
</g>
</g>
<!-- Node26&#45;&gt;Node30 -->
<g id="edge54" class="edge">
<title>Node26&#45;&gt;Node30</title>
<path fill="none" stroke="midnightblue" d="M859.66,-110.49C873.77,-100.61 891.62,-88.12 903.72,-79.64"/>
<polygon fill="midnightblue" stroke="midnightblue" points="857.62,-107.64 851.43,-116.25 861.63,-113.38 857.62,-107.64"/>
</g>
</g>
</svg>
