<?xml version="1.0" encoding="UTF-8" standalone="no"?>
<!DOCTYPE svg PUBLIC "-//W3C//DTD SVG 1.1//EN"
 "http://www.w3.org/Graphics/SVG/1.1/DTD/svg11.dtd">
<!-- Generated by graphviz version 2.42.3 ()
 -->
<!-- Title: global.h Pages: 1 -->
<svg width="281pt" height="204pt"
 viewBox="0.00 0.00 281.00 204.00" xmlns="http://www.w3.org/2000/svg" xmlns:xlink="http://www.w3.org/1999/xlink">
<g id="graph0" class="graph" transform="scale(1 1) rotate(0) translate(4 200)">
<title>global.h</title>
<polygon fill="white" stroke="transparent" points="-4,4 -4,-200 277,-200 277,4 -4,4"/>
<!-- Node1 -->
<g id="node1" class="node">
<title>Node1</title>
<g id="a_node1"><a xlink:title=" ">
<polygon fill="#bfbfbf" stroke="black" points="111,-174.5 111,-195.5 169,-195.5 169,-174.5 111,-174.5"/>
<text text-anchor="middle" x="140" y="-181.9" font-family="DejaVuSans" font-size="12.00">global.h</text>
</a>
</g>
</g>
<!-- Node2 -->
<g id="node2" class="node">
<title>Node2</title>
<g id="a_node2"><a xlink:href="funcs_8c.html" target="_top" xlink:title=" ">
<polygon fill="white" stroke="black" points="0,-116.5 0,-137.5 54,-137.5 54,-116.5 0,-116.5"/>
<text text-anchor="middle" x="27" y="-123.9" font-family="DejaVuSans" font-size="12.00">funcs.c</text>
</a>
</g>
</g>
<!-- Node1&#45;&gt;Node2 -->
<g id="edge1" class="edge">
<title>Node1&#45;&gt;Node2</title>
<path fill="none" stroke="midnightblue" d="M111.42,-169.84C90.99,-159.71 64.06,-146.37 46.17,-137.5"/>
<polygon fill="midnightblue" stroke="midnightblue" points="110.06,-173.07 120.57,-174.37 113.17,-166.8 110.06,-173.07"/>
</g>
<!-- Node3 -->
<g id="node3" class="node">
<title>Node3</title>
<g id="a_node3"><a xlink:href="inputln_8c.html" target="_top" xlink:title=" ">
<polygon fill="white" stroke="black" points="72.5,-116.5 72.5,-137.5 133.5,-137.5 133.5,-116.5 72.5,-116.5"/>
<text text-anchor="middle" x="103" y="-123.9" font-family="DejaVuSans" font-size="12.00">inputln.c</text>
</a>
</g>
</g>
<!-- Node1&#45;&gt;Node3 -->
<g id="edge2" class="edge">
<title>Node1&#45;&gt;Node3</title>
<path fill="none" stroke="midnightblue" d="M127.86,-165.63C121.69,-156.29 114.44,-145.32 109.37,-137.64"/>
<polygon fill="midnightblue" stroke="midnightblue" points="125.12,-167.83 133.56,-174.25 130.96,-163.97 125.12,-167.83"/>
</g>
<!-- Node4 -->
<g id="node4" class="node">
<title>Node4</title>
<g id="a_node4"><a xlink:href="print_8h.html" target="_top" xlink:title=" ">
<polygon fill="white" stroke="black" points="152,-116.5 152,-137.5 202,-137.5 202,-116.5 152,-116.5"/>
<text text-anchor="middle" x="177" y="-123.9" font-family="DejaVuSans" font-size="12.00">print.h</text>
</a>
</g>
</g>
<!-- Node1&#45;&gt;Node4 -->
<g id="edge3" class="edge">
<title>Node1&#45;&gt;Node4</title>
<path fill="none" stroke="midnightblue" d="M152.14,-165.63C158.31,-156.29 165.56,-145.32 170.63,-137.64"/>
<polygon fill="midnightblue" stroke="midnightblue" points="149.04,-163.97 146.44,-174.25 154.88,-167.83 149.04,-163.97"/>
</g>
<!-- Node6 -->
<g id="node6" class="node">
<title>Node6</title>
<g id="a_node6"><a xlink:href="tex__header_8h.html" target="_top" xlink:title=" ">
<polygon fill="white" stroke="black" points="187,-58.5 187,-79.5 273,-79.5 273,-58.5 187,-58.5"/>
<text text-anchor="middle" x="230" y="-65.9" font-family="DejaVuSans" font-size="12.00">tex_header.h</text>
</a>
</g>
</g>
<!-- Node1&#45;&gt;Node6 -->
<g id="edge7" class="edge">
<title>Node1&#45;&gt;Node6</title>
<path fill="none" stroke="midnightblue" d="M172.23,-169.64C185.98,-162.04 201.1,-151.46 211,-138 224.07,-120.23 228.16,-93.83 229.43,-79.72"/>
<polygon fill="midnightblue" stroke="midnightblue" points="170.28,-166.71 163.02,-174.43 173.51,-172.92 170.28,-166.71"/>
</g>
<!-- Node5 -->
<g id="node5" class="node">
<title>Node5</title>
<g id="a_node5"><a xlink:href="print_8c.html" target="_top" xlink:title=" ">
<polygon fill="white" stroke="black" points="119.5,-58.5 119.5,-79.5 168.5,-79.5 168.5,-58.5 119.5,-58.5"/>
<text text-anchor="middle" x="144" y="-65.9" font-family="DejaVuSans" font-size="12.00">print.c</text>
</a>
</g>
</g>
<!-- Node4&#45;&gt;Node5 -->
<g id="edge4" class="edge">
<title>Node4&#45;&gt;Node5</title>
<path fill="none" stroke="midnightblue" d="M166.17,-107.63C160.67,-98.29 154.21,-87.32 149.68,-79.64"/>
<polygon fill="midnightblue" stroke="midnightblue" points="163.16,-109.41 171.25,-116.25 169.19,-105.85 163.16,-109.41"/>
</g>
<!-- Node4&#45;&gt;Node6 -->
<g id="edge5" class="edge">
<title>Node4&#45;&gt;Node6</title>
<path fill="none" stroke="midnightblue" d="M193.29,-108.79C202.36,-99.21 213.31,-87.64 220.87,-79.64"/>
<polygon fill="midnightblue" stroke="midnightblue" points="190.56,-106.58 186.23,-116.25 195.65,-111.39 190.56,-106.58"/>
</g>
<!-- Node7 -->
<g id="node7" class="node">
<title>Node7</title>
<g id="a_node7"><a xlink:href="tex_8c.html" target="_top" xlink:title=" ">
<polygon fill="white" stroke="black" points="209.5,-0.5 209.5,-21.5 250.5,-21.5 250.5,-0.5 209.5,-0.5"/>
<text text-anchor="middle" x="230" y="-7.9" font-family="DejaVuSans" font-size="12.00">tex.c</text>
</a>
</g>
</g>
<!-- Node6&#45;&gt;Node7 -->
<g id="edge6" class="edge">
<title>Node6&#45;&gt;Node7</title>
<path fill="none" stroke="midnightblue" d="M230,-48.16C230,-39.16 230,-28.92 230,-21.64"/>
<polygon fill="midnightblue" stroke="midnightblue" points="226.5,-48.25 230,-58.25 233.5,-48.25 226.5,-48.25"/>
</g>
</g>
</svg>
