<?xml version="1.0" encoding="UTF-8" standalone="no"?>
<!DOCTYPE svg PUBLIC "-//W3C//DTD SVG 1.1//EN"
 "http://www.w3.org/Graphics/SVG/1.1/DTD/svg11.dtd">
<!-- Generated by graphviz version 2.44.0 ()
 -->
<!-- Title: global.h Pages: 1 -->
<svg width="315pt" height="320pt"
 viewBox="0.00 0.00 315.07 320.00" xmlns="http://www.w3.org/2000/svg" xmlns:xlink="http://www.w3.org/1999/xlink">
<g id="graph0" class="graph" transform="scale(1 1) rotate(0) translate(4 316)">
<title>global.h</title>
<polygon fill="white" stroke="transparent" points="-4,4 -4,-316 311.07,-316 311.07,4 -4,4"/>
<!-- Node1 -->
<g id="node1" class="node">
<title>Node1</title>
<g id="a_node1"><a xlink:title=" ">
<polygon fill="#bfbfbf" stroke="black" points="109.07,-290.5 109.07,-311.5 167.07,-311.5 167.07,-290.5 109.07,-290.5"/>
<text text-anchor="middle" x="138.07" y="-297.9" font-family="DejaVuSans" font-size="12.00">global.h</text>
</a>
</g>
</g>
<!-- Node2 -->
<g id="node2" class="node">
<title>Node2</title>
<g id="a_node2"><a xlink:title=" ">
<polygon fill="white" stroke="#bfbfbf" points="48.07,-232.5 48.07,-253.5 110.07,-253.5 110.07,-232.5 48.07,-232.5"/>
<text text-anchor="middle" x="79.07" y="-239.9" font-family="DejaVuSans" font-size="12.00">setjmp.h</text>
</a>
</g>
</g>
<!-- Node1&#45;&gt;Node2 -->
<g id="edge1" class="edge">
<title>Node1&#45;&gt;Node2</title>
<path fill="none" stroke="midnightblue" d="M127.79,-290.25C119.25,-282.14 106.89,-270.41 96.76,-260.79"/>
<polygon fill="midnightblue" stroke="midnightblue" points="98.89,-257.99 89.23,-253.64 94.07,-263.07 98.89,-257.99"/>
</g>
<!-- Node3 -->
<g id="node3" class="node">
<title>Node3</title>
<g id="a_node3"><a xlink:href="str_8h.html" target="_top" xlink:title=" ">
<polygon fill="white" stroke="black" points="116.57,-174.5 116.57,-195.5 155.57,-195.5 155.57,-174.5 116.57,-174.5"/>
<text text-anchor="middle" x="136.07" y="-181.9" font-family="DejaVuSans" font-size="12.00">str.h</text>
</a>
</g>
</g>
<!-- Node1&#45;&gt;Node3 -->
<g id="edge2" class="edge">
<title>Node1&#45;&gt;Node3</title>
<path fill="none" stroke="midnightblue" d="M137.9,-290.28C137.57,-271.6 136.85,-230.37 136.41,-205.72"/>
<polygon fill="midnightblue" stroke="midnightblue" points="139.91,-205.63 136.24,-195.69 132.91,-205.75 139.91,-205.63"/>
</g>
<!-- Node10 -->
<g id="node10" class="node">
<title>Node10</title>
<g id="a_node10"><a xlink:href="scan_8h.html" target="_top" xlink:title=" ">
<polygon fill="white" stroke="black" points="171.07,-232.5 171.07,-253.5 223.07,-253.5 223.07,-232.5 171.07,-232.5"/>
<text text-anchor="middle" x="197.07" y="-239.9" font-family="DejaVuSans" font-size="12.00">scan.h</text>
</a>
</g>
</g>
<!-- Node1&#45;&gt;Node10 -->
<g id="edge10" class="edge">
<title>Node1&#45;&gt;Node10</title>
<path fill="none" stroke="midnightblue" d="M148.34,-290.25C156.89,-282.14 169.25,-270.41 179.38,-260.79"/>
<polygon fill="midnightblue" stroke="midnightblue" points="182.07,-263.07 186.91,-253.64 177.25,-257.99 182.07,-263.07"/>
</g>
<!-- Node4 -->
<g id="node4" class="node">
<title>Node4</title>
<g id="a_node4"><a xlink:title=" ">
<polygon fill="white" stroke="#bfbfbf" points="169.07,-116.5 169.07,-137.5 221.07,-137.5 221.07,-116.5 169.07,-116.5"/>
<text text-anchor="middle" x="195.07" y="-123.9" font-family="DejaVuSans" font-size="12.00">stdio.h</text>
</a>
</g>
</g>
<!-- Node3&#45;&gt;Node4 -->
<g id="edge3" class="edge">
<title>Node3&#45;&gt;Node4</title>
<path fill="none" stroke="midnightblue" d="M146.34,-174.25C154.89,-166.14 167.25,-154.41 177.38,-144.79"/>
<polygon fill="midnightblue" stroke="midnightblue" points="180.07,-147.07 184.91,-137.64 175.25,-141.99 180.07,-147.07"/>
</g>
<!-- Node5 -->
<g id="node5" class="node">
<title>Node5</title>
<g id="a_node5"><a xlink:title=" ">
<polygon fill="white" stroke="#bfbfbf" points="4.57,-0.5 4.57,-21.5 59.57,-21.5 59.57,-0.5 4.57,-0.5"/>
<text text-anchor="middle" x="32.07" y="-7.9" font-family="DejaVuSans" font-size="12.00">stdint.h</text>
</a>
</g>
</g>
<!-- Node3&#45;&gt;Node5 -->
<g id="edge4" class="edge">
<title>Node3&#45;&gt;Node5</title>
<path fill="none" stroke="midnightblue" d="M116.33,-183.31C87.59,-181.11 35.01,-172.33 11.07,-138 -11.66,-105.42 7.7,-56.75 21.37,-30.45"/>
<polygon fill="midnightblue" stroke="midnightblue" points="24.51,-32 26.24,-21.55 18.37,-28.65 24.51,-32"/>
</g>
<!-- Node6 -->
<g id="node6" class="node">
<title>Node6</title>
<g id="a_node6"><a xlink:href="global__const_8h.html" target="_top" xlink:title=" ">
<polygon fill="white" stroke="black" points="19.57,-116.5 19.57,-137.5 112.57,-137.5 112.57,-116.5 19.57,-116.5"/>
<text text-anchor="middle" x="66.07" y="-123.9" font-family="DejaVuSans" font-size="12.00">global_const.h</text>
</a>
</g>
</g>
<!-- Node3&#45;&gt;Node6 -->
<g id="edge5" class="edge">
<title>Node3&#45;&gt;Node6</title>
<path fill="none" stroke="midnightblue" d="M123.87,-174.25C113.44,-165.89 98.2,-153.71 85.99,-143.94"/>
<polygon fill="midnightblue" stroke="midnightblue" points="88.12,-141.16 78.12,-137.64 83.74,-146.62 88.12,-141.16"/>
</g>
<!-- Node8 -->
<g id="node8" class="node">
<title>Node8</title>
<g id="a_node8"><a xlink:href="tex__types_8h.html" target="_top" xlink:title=" ">
<polygon fill="white" stroke="black" points="107.57,-58.5 107.57,-79.5 184.57,-79.5 184.57,-58.5 107.57,-58.5"/>
<text text-anchor="middle" x="146.07" y="-65.9" font-family="DejaVuSans" font-size="12.00">tex_types.h</text>
</a>
</g>
</g>
<!-- Node3&#45;&gt;Node8 -->
<g id="edge7" class="edge">
<title>Node3&#45;&gt;Node8</title>
<path fill="none" stroke="midnightblue" d="M136.92,-174.28C138.56,-155.6 142.18,-114.37 144.34,-89.72"/>
<polygon fill="midnightblue" stroke="midnightblue" points="147.83,-89.96 145.22,-79.69 140.86,-89.35 147.83,-89.96"/>
</g>
<!-- Node7 -->
<g id="node7" class="node">
<title>Node7</title>
<g id="a_node7"><a xlink:title=" ">
<polygon fill="white" stroke="#bfbfbf" points="30.57,-58.5 30.57,-79.5 89.57,-79.5 89.57,-58.5 30.57,-58.5"/>
<text text-anchor="middle" x="60.07" y="-65.9" font-family="DejaVuSans" font-size="12.00">assert.h</text>
</a>
</g>
</g>
<!-- Node6&#45;&gt;Node7 -->
<g id="edge6" class="edge">
<title>Node6&#45;&gt;Node7</title>
<path fill="none" stroke="midnightblue" d="M65.02,-116.25C64.24,-108.94 63.14,-98.69 62.18,-89.7"/>
<polygon fill="midnightblue" stroke="midnightblue" points="65.65,-89.21 61.1,-79.64 58.69,-89.96 65.65,-89.21"/>
</g>
<!-- Node8&#45;&gt;Node5 -->
<g id="edge9" class="edge">
<title>Node8&#45;&gt;Node5</title>
<path fill="none" stroke="midnightblue" d="M126.47,-58.37C108.33,-49.46 81.15,-36.11 60.61,-26.02"/>
<polygon fill="midnightblue" stroke="midnightblue" points="61.93,-22.77 51.41,-21.5 58.84,-29.05 61.93,-22.77"/>
</g>
<!-- Node9 -->
<g id="node9" class="node">
<title>Node9</title>
<g id="a_node9"><a xlink:title=" ">
<polygon fill="white" stroke="#bfbfbf" points="113.57,-0.5 113.57,-21.5 178.57,-21.5 178.57,-0.5 113.57,-0.5"/>
<text text-anchor="middle" x="146.07" y="-7.9" font-family="DejaVuSans" font-size="12.00">stdbool.h</text>
</a>
</g>
</g>
<!-- Node8&#45;&gt;Node9 -->
<g id="edge8" class="edge">
<title>Node8&#45;&gt;Node9</title>
<path fill="none" stroke="midnightblue" d="M146.07,-58.25C146.07,-50.94 146.07,-40.69 146.07,-31.7"/>
<polygon fill="midnightblue" stroke="midnightblue" points="149.57,-31.64 146.07,-21.64 142.57,-31.64 149.57,-31.64"/>
</g>
<!-- Node11 -->
<g id="node11" class="node">
<title>Node11</title>
<g id="a_node11"><a xlink:href="lexer_8h.html" target="_top" xlink:title=" ">
<polygon fill="white" stroke="black" points="174.07,-174.5 174.07,-195.5 226.07,-195.5 226.07,-174.5 174.07,-174.5"/>
<text text-anchor="middle" x="200.07" y="-181.9" font-family="DejaVuSans" font-size="12.00">lexer.h</text>
</a>
</g>
</g>
<!-- Node10&#45;&gt;Node11 -->
<g id="edge11" class="edge">
<title>Node10&#45;&gt;Node11</title>
<path fill="none" stroke="midnightblue" d="M197.59,-232.25C197.98,-224.94 198.53,-214.69 199.01,-205.7"/>
<polygon fill="midnightblue" stroke="midnightblue" points="202.51,-205.82 199.55,-195.64 195.52,-205.44 202.51,-205.82"/>
</g>
<!-- Node11&#45;&gt;Node4 -->
<g id="edge12" class="edge">
<title>Node11&#45;&gt;Node4</title>
<path fill="none" stroke="midnightblue" d="M199.2,-174.25C198.54,-166.94 197.63,-156.69 196.83,-147.7"/>
<polygon fill="midnightblue" stroke="midnightblue" points="200.3,-147.29 195.93,-137.64 193.33,-147.91 200.3,-147.29"/>
</g>
<!-- Node12 -->
<g id="node12" class="node">
<title>Node12</title>
<g id="a_node12"><a xlink:href="tex_8h.html" target="_top" xlink:title=" ">
<polygon fill="white" stroke="black" points="239.07,-116.5 239.07,-137.5 281.07,-137.5 281.07,-116.5 239.07,-116.5"/>
<text text-anchor="middle" x="260.07" y="-123.9" font-family="DejaVuSans" font-size="12.00">tex.h</text>
</a>
</g>
</g>
<!-- Node11&#45;&gt;Node12 -->
<g id="edge13" class="edge">
<title>Node11&#45;&gt;Node12</title>
<path fill="none" stroke="midnightblue" d="M210.52,-174.25C219.29,-166.05 232.02,-154.17 242.38,-144.51"/>
<polygon fill="midnightblue" stroke="midnightblue" points="244.81,-147.02 249.74,-137.64 240.04,-141.91 244.81,-147.02"/>
</g>
<!-- Node12&#45;&gt;Node8 -->
<g id="edge14" class="edge">
<title>Node12&#45;&gt;Node8</title>
<path fill="none" stroke="midnightblue" d="M240.47,-116.37C222.33,-107.46 195.15,-94.11 174.61,-84.02"/>
<polygon fill="midnightblue" stroke="midnightblue" points="175.93,-80.77 165.41,-79.5 172.84,-87.05 175.93,-80.77"/>
</g>
<!-- Node13 -->
<g id="node13" class="node">
<title>Node13</title>
<g id="a_node13"><a xlink:href="tex__constant_8h.html" target="_top" xlink:title=" ">
<polygon fill="white" stroke="black" points="213.07,-58.5 213.07,-79.5 307.07,-79.5 307.07,-58.5 213.07,-58.5"/>
<text text-anchor="middle" x="260.07" y="-65.9" font-family="DejaVuSans" font-size="12.00">tex_constant.h</text>
</a>
</g>
</g>
<!-- Node12&#45;&gt;Node13 -->
<g id="edge15" class="edge">
<title>Node12&#45;&gt;Node13</title>
<path fill="none" stroke="midnightblue" d="M260.07,-116.25C260.07,-108.94 260.07,-98.69 260.07,-89.7"/>
<polygon fill="midnightblue" stroke="midnightblue" points="263.57,-89.64 260.07,-79.64 256.57,-89.64 263.57,-89.64"/>
</g>
</g>
</svg>
