<?xml version="1.0" encoding="UTF-8" standalone="no"?>
<!DOCTYPE svg PUBLIC "-//W3C//DTD SVG 1.1//EN"
 "http://www.w3.org/Graphics/SVG/1.1/DTD/svg11.dtd">
<!-- Generated by graphviz version 2.44.0 ()
 -->
<!-- Title: global.h Pages: 1 -->
<svg width="1555pt" height="320pt"
 viewBox="0.00 0.00 1555.00 320.00" xmlns="http://www.w3.org/2000/svg" xmlns:xlink="http://www.w3.org/1999/xlink">
<g id="graph0" class="graph" transform="scale(1 1) rotate(0) translate(4 316)">
<title>global.h</title>
<polygon fill="white" stroke="transparent" points="-4,4 -4,-316 1551,-316 1551,4 -4,4"/>
<!-- Node1 -->
<g id="node1" class="node">
<title>Node1</title>
<g id="a_node1"><a xlink:title=" ">
<polygon fill="#bfbfbf" stroke="black" points="1162.5,-290.5 1162.5,-311.5 1220.5,-311.5 1220.5,-290.5 1162.5,-290.5"/>
<text text-anchor="middle" x="1191.5" y="-297.9" font-family="DejaVuSans" font-size="12.00">global.h</text>
</a>
</g>
</g>
<!-- Node2 -->
<g id="node2" class="node">
<title>Node2</title>
<g id="a_node2"><a xlink:href="eqtb_8c.html" target="_top" xlink:title=" ">
<polygon fill="white" stroke="black" points="138,-58.5 138,-79.5 187,-79.5 187,-58.5 138,-58.5"/>
<text text-anchor="middle" x="162.5" y="-65.9" font-family="DejaVuSans" font-size="12.00">eqtb.c</text>
</a>
</g>
</g>
<!-- Node1&#45;&gt;Node2 -->
<g id="edge1" class="edge">
<title>Node1&#45;&gt;Node2</title>
<path fill="none" stroke="midnightblue" d="M1151.89,-299.04C1000.97,-295.21 466.89,-279.94 395.5,-254 291.34,-216.15 197.79,-112.09 170.5,-79.73"/>
<polygon fill="midnightblue" stroke="midnightblue" points="1151.99,-302.55 1162.08,-299.3 1152.17,-295.55 1151.99,-302.55"/>
</g>
<!-- Node3 -->
<g id="node3" class="node">
<title>Node3</title>
<g id="a_node3"><a xlink:href="error_8c.html" target="_top" xlink:title=" ">
<polygon fill="white" stroke="black" points="205.5,-58.5 205.5,-79.5 255.5,-79.5 255.5,-58.5 205.5,-58.5"/>
<text text-anchor="middle" x="230.5" y="-65.9" font-family="DejaVuSans" font-size="12.00">error.c</text>
</a>
</g>
</g>
<!-- Node1&#45;&gt;Node3 -->
<g id="edge2" class="edge">
<title>Node1&#45;&gt;Node3</title>
<path fill="none" stroke="midnightblue" d="M1152.11,-300.23C1017.73,-300.61 578.37,-298.35 445.5,-254 344.84,-220.4 260.98,-112.51 237.23,-79.61"/>
<polygon fill="midnightblue" stroke="midnightblue" points="1152.35,-303.73 1162.34,-300.2 1152.33,-296.73 1152.35,-303.73"/>
</g>
<!-- Node4 -->
<g id="node4" class="node">
<title>Node4</title>
<g id="a_node4"><a xlink:href="expand_8c.html" target="_top" xlink:title=" ">
<polygon fill="white" stroke="black" points="274,-58.5 274,-79.5 339,-79.5 339,-58.5 274,-58.5"/>
<text text-anchor="middle" x="306.5" y="-65.9" font-family="DejaVuSans" font-size="12.00">expand.c</text>
</a>
</g>
</g>
<!-- Node1&#45;&gt;Node4 -->
<g id="edge3" class="edge">
<title>Node1&#45;&gt;Node4</title>
<path fill="none" stroke="midnightblue" d="M1152.06,-298.86C1028.6,-295.02 650.77,-281.3 531.5,-254 463.84,-238.51 443.19,-236.05 386.5,-196 358.46,-176.19 353.8,-167.04 335.5,-138 323.32,-118.67 314.06,-93.35 309.54,-79.71"/>
<polygon fill="midnightblue" stroke="midnightblue" points="1152.09,-302.36 1162.19,-299.17 1152.3,-295.36 1152.09,-302.36"/>
</g>
<!-- Node5 -->
<g id="node5" class="node">
<title>Node5</title>
<g id="a_node5"><a xlink:href="fonts_8c.html" target="_top" xlink:title=" ">
<polygon fill="white" stroke="black" points="69,-58.5 69,-79.5 120,-79.5 120,-58.5 69,-58.5"/>
<text text-anchor="middle" x="94.5" y="-65.9" font-family="DejaVuSans" font-size="12.00">fonts.c</text>
</a>
</g>
</g>
<!-- Node1&#45;&gt;Node5 -->
<g id="edge4" class="edge">
<title>Node1&#45;&gt;Node5</title>
<path fill="none" stroke="midnightblue" d="M1152.09,-299.16C995.72,-295.67 423.78,-281.12 347.5,-254 237.48,-214.88 133.81,-111.69 103.42,-79.64"/>
<polygon fill="midnightblue" stroke="midnightblue" points="1152.13,-302.67 1162.2,-299.39 1152.28,-295.67 1152.13,-302.67"/>
</g>
<!-- Node6 -->
<g id="node6" class="node">
<title>Node6</title>
<g id="a_node6"><a xlink:href="hash_8c.html" target="_top" xlink:title=" ">
<polygon fill="white" stroke="black" points="1088.5,-58.5 1088.5,-79.5 1140.5,-79.5 1140.5,-58.5 1088.5,-58.5"/>
<text text-anchor="middle" x="1114.5" y="-65.9" font-family="DejaVuSans" font-size="12.00">hash.c</text>
</a>
</g>
</g>
<!-- Node1&#45;&gt;Node6 -->
<g id="edge5" class="edge">
<title>Node1&#45;&gt;Node6</title>
<path fill="none" stroke="midnightblue" d="M1196.58,-280.38C1204.62,-244.92 1216.45,-168.96 1186.5,-116 1176.57,-98.44 1156.87,-86.56 1140.58,-79.27"/>
<polygon fill="midnightblue" stroke="midnightblue" points="1193.11,-279.84 1194.17,-290.38 1199.92,-281.48 1193.11,-279.84"/>
</g>
<!-- Node7 -->
<g id="node7" class="node">
<title>Node7</title>
<g id="a_node7"><a xlink:href="io_8c.html" target="_top" xlink:title=" ">
<polygon fill="white" stroke="black" points="1429,-232.5 1429,-253.5 1464,-253.5 1464,-232.5 1429,-232.5"/>
<text text-anchor="middle" x="1446.5" y="-239.9" font-family="DejaVuSans" font-size="12.00">io.c</text>
</a>
</g>
</g>
<!-- Node1&#45;&gt;Node7 -->
<g id="edge6" class="edge">
<title>Node1&#45;&gt;Node7</title>
<path fill="none" stroke="midnightblue" d="M1230.45,-293.18C1275.17,-285.07 1350.59,-270.53 1414.5,-254 1419.23,-252.78 1424.31,-251.28 1428.99,-249.82"/>
<polygon fill="midnightblue" stroke="midnightblue" points="1229.8,-289.74 1220.58,-294.96 1231.04,-296.63 1229.8,-289.74"/>
</g>
<!-- Node8 -->
<g id="node8" class="node">
<title>Node8</title>
<g id="a_node8"><a xlink:href="io__fname_8c.html" target="_top" xlink:title=" ">
<polygon fill="white" stroke="black" points="1263,-58.5 1263,-79.5 1338,-79.5 1338,-58.5 1263,-58.5"/>
<text text-anchor="middle" x="1300.5" y="-65.9" font-family="DejaVuSans" font-size="12.00">io_fname.c</text>
</a>
</g>
</g>
<!-- Node1&#45;&gt;Node8 -->
<g id="edge7" class="edge">
<title>Node1&#45;&gt;Node8</title>
<path fill="none" stroke="midnightblue" d="M1213.96,-284.14C1223.92,-276.1 1235.05,-265.6 1242.5,-254 1280.7,-194.54 1295.33,-108.1 1299.3,-79.55"/>
<polygon fill="midnightblue" stroke="midnightblue" points="1211.78,-281.41 1205.98,-290.27 1216.04,-286.96 1211.78,-281.41"/>
</g>
<!-- Node9 -->
<g id="node9" class="node">
<title>Node9</title>
<g id="a_node9"><a xlink:href="io__unix_8c.html" target="_top" xlink:title=" ">
<polygon fill="white" stroke="black" points="1482,-232.5 1482,-253.5 1547,-253.5 1547,-232.5 1482,-232.5"/>
<text text-anchor="middle" x="1514.5" y="-239.9" font-family="DejaVuSans" font-size="12.00">io_unix.c</text>
</a>
</g>
</g>
<!-- Node1&#45;&gt;Node9 -->
<g id="edge8" class="edge">
<title>Node1&#45;&gt;Node9</title>
<path fill="none" stroke="midnightblue" d="M1230.67,-294.49C1285.12,-286.63 1386.67,-271.22 1472.5,-254 1475.59,-253.38 1478.79,-252.7 1481.99,-251.98"/>
<polygon fill="midnightblue" stroke="midnightblue" points="1230.15,-291.03 1220.75,-295.92 1231.15,-297.96 1230.15,-291.03"/>
</g>
<!-- Node10 -->
<g id="node10" class="node">
<title>Node10</title>
<g id="a_node10"><a xlink:href="lexer_8c.html" target="_top" xlink:title=" ">
<polygon fill="white" stroke="black" points="0,-58.5 0,-79.5 51,-79.5 51,-58.5 0,-58.5"/>
<text text-anchor="middle" x="25.5" y="-65.9" font-family="DejaVuSans" font-size="12.00">lexer.c</text>
</a>
</g>
</g>
<!-- Node1&#45;&gt;Node10 -->
<g id="edge9" class="edge">
<title>Node1&#45;&gt;Node10</title>
<path fill="none" stroke="midnightblue" d="M1151.93,-299.16C989.51,-295.53 378.62,-280.25 296.5,-254 180.04,-216.77 68.05,-112.29 35.17,-79.78"/>
<polygon fill="midnightblue" stroke="midnightblue" points="1152.33,-302.67 1162.41,-299.39 1152.49,-295.67 1152.33,-302.67"/>
</g>
<!-- Node11 -->
<g id="node11" class="node">
<title>Node11</title>
<g id="a_node11"><a xlink:href="mem_8h.html" target="_top" xlink:title=" ">
<polygon fill="white" stroke="black" points="541,-232.5 541,-253.5 594,-253.5 594,-232.5 541,-232.5"/>
<text text-anchor="middle" x="567.5" y="-239.9" font-family="DejaVuSans" font-size="12.00">mem.h</text>
</a>
</g>
</g>
<!-- Node1&#45;&gt;Node11 -->
<g id="edge10" class="edge">
<title>Node1&#45;&gt;Node11</title>
<path fill="none" stroke="midnightblue" d="M1151.96,-296.45C1034.97,-285.95 692.59,-255.23 594.22,-246.4"/>
<polygon fill="midnightblue" stroke="midnightblue" points="1151.97,-299.97 1162.24,-297.37 1152.59,-292.99 1151.97,-299.97"/>
</g>
<!-- Node20 -->
<g id="node20" class="node">
<title>Node20</title>
<g id="a_node20"><a xlink:href="pack_8c.html" target="_top" xlink:title=" ">
<polygon fill="white" stroke="black" points="1423,-58.5 1423,-79.5 1474,-79.5 1474,-58.5 1423,-58.5"/>
<text text-anchor="middle" x="1448.5" y="-65.9" font-family="DejaVuSans" font-size="12.00">pack.c</text>
</a>
</g>
</g>
<!-- Node1&#45;&gt;Node20 -->
<g id="edge55" class="edge">
<title>Node1&#45;&gt;Node20</title>
<path fill="none" stroke="midnightblue" d="M1227.42,-286.62C1246.06,-278.72 1268.61,-267.6 1286.5,-254 1358.34,-199.4 1422.29,-109.05 1442.15,-79.6"/>
<polygon fill="midnightblue" stroke="midnightblue" points="1226,-283.43 1218.08,-290.46 1228.66,-289.9 1226,-283.43"/>
</g>
<!-- Node21 -->
<g id="node21" class="node">
<title>Node21</title>
<g id="a_node21"><a xlink:href="scan_8c.html" target="_top" xlink:title=" ">
<polygon fill="white" stroke="black" points="1019,-58.5 1019,-79.5 1070,-79.5 1070,-58.5 1019,-58.5"/>
<text text-anchor="middle" x="1044.5" y="-65.9" font-family="DejaVuSans" font-size="12.00">scan.c</text>
</a>
</g>
</g>
<!-- Node1&#45;&gt;Node21 -->
<g id="edge57" class="edge">
<title>Node1&#45;&gt;Node21</title>
<path fill="none" stroke="midnightblue" d="M1179.81,-281.71C1150.2,-235.39 1073.02,-114.62 1050.66,-79.63"/>
<polygon fill="midnightblue" stroke="midnightblue" points="1177.04,-283.87 1185.37,-290.41 1182.93,-280.1 1177.04,-283.87"/>
</g>
<!-- Node22 -->
<g id="node22" class="node">
<title>Node22</title>
<g id="a_node22"><a xlink:href="tex__header_8h.html" target="_top" xlink:title=" ">
<polygon fill="white" stroke="black" points="1158.5,-58.5 1158.5,-79.5 1244.5,-79.5 1244.5,-58.5 1158.5,-58.5"/>
<text text-anchor="middle" x="1201.5" y="-65.9" font-family="DejaVuSans" font-size="12.00">tex_header.h</text>
</a>
</g>
</g>
<!-- Node1&#45;&gt;Node22 -->
<g id="edge58" class="edge">
<title>Node1&#45;&gt;Node22</title>
<path fill="none" stroke="midnightblue" d="M1207.74,-282.83C1214.29,-274.74 1221.11,-264.56 1224.5,-254 1243.28,-195.61 1238.59,-175.69 1224.5,-116 1221.34,-102.62 1213.66,-88.69 1208.04,-79.72"/>
<polygon fill="midnightblue" stroke="midnightblue" points="1205.05,-280.59 1201.15,-290.43 1210.34,-285.17 1205.05,-280.59"/>
</g>
<!-- Node26 -->
<g id="node26" class="node">
<title>Node26</title>
<g id="a_node26"><a xlink:href="print_8c.html" target="_top" xlink:title=" ">
<polygon fill="white" stroke="black" points="1356,-58.5 1356,-79.5 1405,-79.5 1405,-58.5 1356,-58.5"/>
<text text-anchor="middle" x="1380.5" y="-65.9" font-family="DejaVuSans" font-size="12.00">print.c</text>
</a>
</g>
</g>
<!-- Node1&#45;&gt;Node26 -->
<g id="edge56" class="edge">
<title>Node1&#45;&gt;Node26</title>
<path fill="none" stroke="midnightblue" d="M1219.99,-285.31C1233.84,-277.28 1250.12,-266.43 1262.5,-254 1318.99,-197.25 1362.52,-109.05 1376.08,-79.8"/>
<polygon fill="midnightblue" stroke="midnightblue" points="1217.89,-282.47 1210.87,-290.41 1221.31,-288.58 1217.89,-282.47"/>
</g>
<!-- Node11&#45;&gt;Node4 -->
<g id="edge17" class="edge">
<title>Node11&#45;&gt;Node4</title>
<path fill="none" stroke="midnightblue" d="M530.74,-236.4C499.05,-230.28 453.07,-218.24 418.5,-196 368.54,-163.85 327.39,-103.46 312.49,-79.83"/>
<polygon fill="midnightblue" stroke="midnightblue" points="530.44,-239.9 540.9,-238.25 531.69,-233.01 530.44,-239.9"/>
</g>
<!-- Node11&#45;&gt;Node5 -->
<g id="edge18" class="edge">
<title>Node11&#45;&gt;Node5</title>
<path fill="none" stroke="midnightblue" d="M530.92,-234.49C494.01,-226.5 435.6,-212.71 386.5,-196 280.92,-160.06 160.15,-102.39 113.9,-79.66"/>
<polygon fill="midnightblue" stroke="midnightblue" points="530.23,-237.92 540.74,-236.59 531.69,-231.08 530.23,-237.92"/>
</g>
<!-- Node11&#45;&gt;Node10 -->
<g id="edge19" class="edge">
<title>Node11&#45;&gt;Node10</title>
<path fill="none" stroke="midnightblue" d="M530.87,-237.53C482.8,-231.11 396.12,-217.6 324.5,-196 214.75,-162.9 90.55,-102.8 44.22,-79.55"/>
<polygon fill="midnightblue" stroke="midnightblue" points="530.44,-241 540.81,-238.83 531.35,-234.06 530.44,-241"/>
</g>
<!-- Node12 -->
<g id="node12" class="node">
<title>Node12</title>
<g id="a_node12"><a xlink:href="box_8c.html" target="_top" xlink:title=" ">
<polygon fill="white" stroke="black" points="615,-174.5 615,-195.5 660,-195.5 660,-174.5 615,-174.5"/>
<text text-anchor="middle" x="637.5" y="-181.9" font-family="DejaVuSans" font-size="12.00">box.c</text>
</a>
</g>
</g>
<!-- Node11&#45;&gt;Node12 -->
<g id="edge11" class="edge">
<title>Node11&#45;&gt;Node12</title>
<path fill="none" stroke="midnightblue" d="M587.59,-225.93C599.83,-216.14 615.05,-203.96 625.45,-195.64"/>
<polygon fill="midnightblue" stroke="midnightblue" points="585.32,-223.27 579.69,-232.25 589.69,-228.73 585.32,-223.27"/>
</g>
<!-- Node13 -->
<g id="node13" class="node">
<title>Node13</title>
<g id="a_node13"><a xlink:href="box__copy_8c.html" target="_top" xlink:title=" ">
<polygon fill="white" stroke="black" points="510,-116.5 510,-137.5 587,-137.5 587,-116.5 510,-116.5"/>
<text text-anchor="middle" x="548.5" y="-123.9" font-family="DejaVuSans" font-size="12.00">box_copy.c</text>
</a>
</g>
</g>
<!-- Node11&#45;&gt;Node13 -->
<g id="edge12" class="edge">
<title>Node11&#45;&gt;Node13</title>
<path fill="none" stroke="midnightblue" d="M564.21,-222.25C560.1,-197.58 553.23,-156.35 550.12,-137.69"/>
<polygon fill="midnightblue" stroke="midnightblue" points="560.78,-222.99 565.88,-232.28 567.69,-221.84 560.78,-222.99"/>
</g>
<!-- Node14 -->
<g id="node14" class="node">
<title>Node14</title>
<g id="a_node14"><a xlink:href="box__destroy_8c.html" target="_top" xlink:title=" ">
<polygon fill="white" stroke="black" points="605,-116.5 605,-137.5 696,-137.5 696,-116.5 605,-116.5"/>
<text text-anchor="middle" x="650.5" y="-123.9" font-family="DejaVuSans" font-size="12.00">box_destroy.c</text>
</a>
</g>
</g>
<!-- Node11&#45;&gt;Node14 -->
<g id="edge13" class="edge">
<title>Node11&#45;&gt;Node14</title>
<path fill="none" stroke="midnightblue" d="M576.37,-223.07C583.39,-208.96 593.9,-189.51 605.5,-174 615.8,-160.22 629.99,-146.37 639.67,-137.53"/>
<polygon fill="midnightblue" stroke="midnightblue" points="573.12,-221.75 571.92,-232.28 579.42,-224.8 573.12,-221.75"/>
</g>
<!-- Node15 -->
<g id="node15" class="node">
<title>Node15</title>
<g id="a_node15"><a xlink:href="box__display_8c.html" target="_top" xlink:title=" ">
<polygon fill="white" stroke="black" points="440,-58.5 440,-79.5 529,-79.5 529,-58.5 440,-58.5"/>
<text text-anchor="middle" x="484.5" y="-65.9" font-family="DejaVuSans" font-size="12.00">box_display.c</text>
</a>
</g>
</g>
<!-- Node11&#45;&gt;Node15 -->
<g id="edge14" class="edge">
<title>Node11&#45;&gt;Node15</title>
<path fill="none" stroke="midnightblue" d="M530.64,-238C504.03,-232.97 469.85,-221.62 452.5,-196 432.57,-166.56 441.86,-149.93 452.5,-116 456.92,-101.89 467.38,-88.32 475.14,-79.62"/>
<polygon fill="midnightblue" stroke="midnightblue" points="530.34,-241.5 540.78,-239.69 531.49,-234.6 530.34,-241.5"/>
</g>
<!-- Node16 -->
<g id="node16" class="node">
<title>Node16</title>
<g id="a_node16"><a xlink:href="dviout_8c.html" target="_top" xlink:title=" ">
<polygon fill="white" stroke="black" points="546.5,-58.5 546.5,-79.5 604.5,-79.5 604.5,-58.5 546.5,-58.5"/>
<text text-anchor="middle" x="575.5" y="-65.9" font-family="DejaVuSans" font-size="12.00">dviout.c</text>
</a>
</g>
</g>
<!-- Node11&#45;&gt;Node16 -->
<g id="edge15" class="edge">
<title>Node11&#45;&gt;Node16</title>
<path fill="none" stroke="midnightblue" d="M530.63,-235.36C508.23,-229.23 481.36,-217.63 467.5,-196 448.32,-166.06 447.89,-145.66 467.5,-116 476.63,-102.19 517.69,-87.37 546.46,-78.4"/>
<polygon fill="midnightblue" stroke="midnightblue" points="530,-238.81 540.55,-237.82 531.68,-232.02 530,-238.81"/>
</g>
<!-- Node17 -->
<g id="node17" class="node">
<title>Node17</title>
<g id="a_node17"><a xlink:href="eqtb__save_8c.html" target="_top" xlink:title=" ">
<polygon fill="white" stroke="black" points="623,-58.5 623,-79.5 704,-79.5 704,-58.5 623,-58.5"/>
<text text-anchor="middle" x="663.5" y="-65.9" font-family="DejaVuSans" font-size="12.00">eqtb_save.c</text>
</a>
</g>
</g>
<!-- Node11&#45;&gt;Node17 -->
<g id="edge16" class="edge">
<title>Node11&#45;&gt;Node17</title>
<path fill="none" stroke="midnightblue" d="M547.13,-225.53C518.65,-200.49 473.28,-151.96 500.5,-116 508.02,-106.06 577.04,-89.12 622.82,-78.8"/>
<polygon fill="midnightblue" stroke="midnightblue" points="545.11,-228.4 554.99,-232.22 549.65,-223.07 545.11,-228.4"/>
</g>
<!-- Node18 -->
<g id="node18" class="node">
<title>Node18</title>
<g id="a_node18"><a xlink:href="mem_8c.html" target="_top" xlink:title=" ">
<polygon fill="white" stroke="black" points="948.5,-58.5 948.5,-79.5 1000.5,-79.5 1000.5,-58.5 948.5,-58.5"/>
<text text-anchor="middle" x="974.5" y="-65.9" font-family="DejaVuSans" font-size="12.00">mem.c</text>
</a>
</g>
</g>
<!-- Node11&#45;&gt;Node18 -->
<g id="edge20" class="edge">
<title>Node11&#45;&gt;Node18</title>
<path fill="none" stroke="midnightblue" d="M604.04,-242.77C659.32,-242.49 766.17,-236.18 845.5,-196 902.75,-167 951.03,-103.65 968,-79.56"/>
<polygon fill="midnightblue" stroke="midnightblue" points="604.02,-239.27 594.02,-242.76 604.01,-246.27 604.02,-239.27"/>
</g>
<!-- Node19 -->
<g id="node19" class="node">
<title>Node19</title>
<g id="a_node19"><a xlink:href="mmode_8c.html" target="_top" xlink:title=" ">
<polygon fill="white" stroke="black" points="357,-58.5 357,-79.5 422,-79.5 422,-58.5 357,-58.5"/>
<text text-anchor="middle" x="389.5" y="-65.9" font-family="DejaVuSans" font-size="12.00">mmode.c</text>
</a>
</g>
</g>
<!-- Node11&#45;&gt;Node19 -->
<g id="edge21" class="edge">
<title>Node11&#45;&gt;Node19</title>
<path fill="none" stroke="midnightblue" d="M530.86,-237.33C502.35,-231.91 463.56,-220.35 438.5,-196 404.33,-162.79 393.54,-103.02 390.54,-79.7"/>
<polygon fill="midnightblue" stroke="midnightblue" points="530.4,-240.8 540.85,-239.06 531.6,-233.9 530.4,-240.8"/>
</g>
<!-- Node11&#45;&gt;Node20 -->
<g id="edge22" class="edge">
<title>Node11&#45;&gt;Node20</title>
<path fill="none" stroke="midnightblue" d="M604.16,-239.3C673.55,-233.82 828.7,-219.87 957.5,-196 1138.13,-162.52 1350.66,-99.86 1422.96,-77.87"/>
<polygon fill="midnightblue" stroke="midnightblue" points="603.86,-235.81 594.16,-240.07 604.4,-242.79 603.86,-235.81"/>
</g>
<!-- Node11&#45;&gt;Node21 -->
<g id="edge23" class="edge">
<title>Node11&#45;&gt;Node21</title>
<path fill="none" stroke="midnightblue" d="M604.35,-242.27C663.91,-241.47 783.96,-234.65 876.5,-196 945.47,-167.2 1011.71,-103.73 1035.37,-79.58"/>
<polygon fill="midnightblue" stroke="midnightblue" points="604.27,-238.77 594.3,-242.36 604.33,-245.77 604.27,-238.77"/>
</g>
<!-- Node11&#45;&gt;Node22 -->
<g id="edge24" class="edge">
<title>Node11&#45;&gt;Node22</title>
<path fill="none" stroke="midnightblue" d="M604.57,-240.37C668.21,-236.83 801.87,-226.18 910.5,-196 1018.98,-165.87 1139.84,-103.47 1184.08,-79.59"/>
<polygon fill="midnightblue" stroke="midnightblue" points="604.05,-236.89 594.25,-240.91 604.42,-243.88 604.05,-236.89"/>
</g>
<!-- Node24 -->
<g id="node24" class="node">
<title>Node24</title>
<g id="a_node24"><a xlink:href="texmac_8h.html" target="_top" xlink:title=" ">
<polygon fill="white" stroke="black" points="772,-174.5 772,-195.5 837,-195.5 837,-174.5 772,-174.5"/>
<text text-anchor="middle" x="804.5" y="-181.9" font-family="DejaVuSans" font-size="12.00">texmac.h</text>
</a>
</g>
</g>
<!-- Node11&#45;&gt;Node24 -->
<g id="edge26" class="edge">
<title>Node11&#45;&gt;Node24</title>
<path fill="none" stroke="midnightblue" d="M604.05,-233.36C649.91,-222.53 727.86,-204.11 771.82,-193.72"/>
<polygon fill="midnightblue" stroke="midnightblue" points="603.15,-229.98 594.23,-235.68 604.76,-236.79 603.15,-229.98"/>
</g>
<!-- Node23 -->
<g id="node23" class="node">
<title>Node23</title>
<g id="a_node23"><a xlink:href="tex_8c.html" target="_top" xlink:title=" ">
<polygon fill="white" stroke="black" points="1181,-0.5 1181,-21.5 1222,-21.5 1222,-0.5 1181,-0.5"/>
<text text-anchor="middle" x="1201.5" y="-7.9" font-family="DejaVuSans" font-size="12.00">tex.c</text>
</a>
</g>
</g>
<!-- Node22&#45;&gt;Node23 -->
<g id="edge25" class="edge">
<title>Node22&#45;&gt;Node23</title>
<path fill="none" stroke="midnightblue" d="M1201.5,-48.16C1201.5,-39.16 1201.5,-28.92 1201.5,-21.64"/>
<polygon fill="midnightblue" stroke="midnightblue" points="1198,-48.25 1201.5,-58.25 1205,-48.25 1198,-48.25"/>
</g>
<!-- Node24&#45;&gt;Node4 -->
<g id="edge29" class="edge">
<title>Node24&#45;&gt;Node4</title>
<path fill="none" stroke="midnightblue" d="M783.95,-168.23C759.92,-150.12 721.28,-122.1 704.5,-116 554.63,-61.49 504.68,-106.96 347.5,-80 344.76,-79.53 341.92,-78.98 339.09,-78.38"/>
<polygon fill="midnightblue" stroke="midnightblue" points="782,-171.14 792.08,-174.4 786.23,-165.57 782,-171.14"/>
</g>
<!-- Node24&#45;&gt;Node6 -->
<g id="edge30" class="edge">
<title>Node24&#45;&gt;Node6</title>
<path fill="none" stroke="midnightblue" d="M841.74,-171.04C865.89,-162.34 897.88,-150.27 925.5,-138 945.12,-129.28 948.64,-124.14 968.5,-116 990.45,-107 1052.77,-88.19 1088.49,-77.62"/>
<polygon fill="midnightblue" stroke="midnightblue" points="840.48,-167.77 832.24,-174.43 842.84,-174.37 840.48,-167.77"/>
</g>
<!-- Node24&#45;&gt;Node13 -->
<g id="edge27" class="edge">
<title>Node24&#45;&gt;Node13</title>
<path fill="none" stroke="midnightblue" d="M761.91,-174.68C713.24,-164.04 634.26,-146.76 587.25,-136.48"/>
<polygon fill="midnightblue" stroke="midnightblue" points="761.3,-178.13 771.82,-176.85 762.8,-171.29 761.3,-178.13"/>
</g>
<!-- Node24&#45;&gt;Node14 -->
<g id="edge28" class="edge">
<title>Node24&#45;&gt;Node14</title>
<path fill="none" stroke="midnightblue" d="M768.54,-170.92C740.39,-160.69 701.89,-146.69 676.63,-137.5"/>
<polygon fill="midnightblue" stroke="midnightblue" points="767.43,-174.25 778.03,-174.37 769.82,-167.67 767.43,-174.25"/>
</g>
<!-- Node24&#45;&gt;Node18 -->
<g id="edge31" class="edge">
<title>Node24&#45;&gt;Node18</title>
<path fill="none" stroke="midnightblue" d="M823.53,-167.98C840.95,-153.64 867.73,-132.39 892.5,-116 913.33,-102.22 938.55,-88.48 955.47,-79.65"/>
<polygon fill="midnightblue" stroke="midnightblue" points="821.23,-165.34 815.77,-174.42 825.7,-170.73 821.23,-165.34"/>
</g>
<!-- Node24&#45;&gt;Node21 -->
<g id="edge53" class="edge">
<title>Node24&#45;&gt;Node21</title>
<path fill="none" stroke="midnightblue" d="M832.56,-169.73C849.92,-160.79 872.62,-148.94 892.5,-138 909.6,-128.59 912.96,-124.56 930.5,-116 960.04,-101.58 995.29,-87.86 1018.69,-79.22"/>
<polygon fill="midnightblue" stroke="midnightblue" points="830.81,-166.69 823.51,-174.36 834,-172.92 830.81,-166.69"/>
</g>
<!-- Node24&#45;&gt;Node22 -->
<g id="edge54" class="edge">
<title>Node24&#45;&gt;Node22</title>
<path fill="none" stroke="midnightblue" d="M847.03,-171.79C926.63,-148.93 1096.54,-100.14 1168.36,-79.52"/>
<polygon fill="midnightblue" stroke="midnightblue" points="845.97,-168.45 837.33,-174.57 847.9,-175.18 845.97,-168.45"/>
</g>
<!-- Node25 -->
<g id="node25" class="node">
<title>Node25</title>
<g id="a_node25"><a xlink:href="print_8h.html" target="_top" xlink:title=" ">
<polygon fill="white" stroke="black" points="752.5,-116.5 752.5,-137.5 802.5,-137.5 802.5,-116.5 752.5,-116.5"/>
<text text-anchor="middle" x="777.5" y="-123.9" font-family="DejaVuSans" font-size="12.00">print.h</text>
</a>
</g>
</g>
<!-- Node24&#45;&gt;Node25 -->
<g id="edge32" class="edge">
<title>Node24&#45;&gt;Node25</title>
<path fill="none" stroke="midnightblue" d="M795.36,-165.04C790.92,-155.83 785.77,-145.16 782.15,-137.64"/>
<polygon fill="midnightblue" stroke="midnightblue" points="792.3,-166.76 799.8,-174.25 798.61,-163.72 792.3,-166.76"/>
</g>
<!-- Node27 -->
<g id="node27" class="node">
<title>Node27</title>
<g id="a_node27"><a xlink:href="printout_8c.html" target="_top" xlink:title=" ">
<polygon fill="white" stroke="black" points="865,-58.5 865,-79.5 930,-79.5 930,-58.5 865,-58.5"/>
<text text-anchor="middle" x="897.5" y="-65.9" font-family="DejaVuSans" font-size="12.00">printout.c</text>
</a>
</g>
</g>
<!-- Node24&#45;&gt;Node27 -->
<g id="edge52" class="edge">
<title>Node24&#45;&gt;Node27</title>
<path fill="none" stroke="midnightblue" d="M816.69,-166.25C826.49,-152.27 840.83,-132.46 854.5,-116 865.39,-102.88 878.98,-88.67 887.93,-79.57"/>
<polygon fill="midnightblue" stroke="midnightblue" points="813.79,-164.29 810.96,-174.5 819.54,-168.28 813.79,-164.29"/>
</g>
<!-- Node25&#45;&gt;Node2 -->
<g id="edge35" class="edge">
<title>Node25&#45;&gt;Node2</title>
<path fill="none" stroke="midnightblue" d="M742.16,-120.69C730.22,-119.02 716.8,-117.28 704.5,-116 479.37,-92.63 419.25,-120.17 196.5,-80 193.47,-79.45 190.33,-78.74 187.23,-77.94"/>
<polygon fill="midnightblue" stroke="midnightblue" points="741.82,-124.17 752.21,-122.12 742.81,-117.24 741.82,-124.17"/>
</g>
<!-- Node25&#45;&gt;Node3 -->
<g id="edge37" class="edge">
<title>Node25&#45;&gt;Node3</title>
<path fill="none" stroke="midnightblue" d="M742.16,-120.76C730.21,-119.1 716.79,-117.34 704.5,-116 509.45,-94.68 457.4,-115.87 264.5,-80 261.6,-79.46 258.59,-78.77 255.61,-78.01"/>
<polygon fill="midnightblue" stroke="midnightblue" points="741.81,-124.25 752.2,-122.19 742.79,-117.32 741.81,-124.25"/>
</g>
<!-- Node25&#45;&gt;Node4 -->
<g id="edge38" class="edge">
<title>Node25&#45;&gt;Node4</title>
<path fill="none" stroke="midnightblue" d="M742.38,-116.72C741.08,-116.46 739.78,-116.22 738.5,-116 566.54,-86.23 519.63,-108.75 347.5,-80 344.75,-79.54 341.92,-79 339.08,-78.41"/>
<polygon fill="midnightblue" stroke="midnightblue" points="741.93,-120.21 752.45,-118.95 743.45,-113.37 741.93,-120.21"/>
</g>
<!-- Node25&#45;&gt;Node5 -->
<g id="edge39" class="edge">
<title>Node25&#45;&gt;Node5</title>
<path fill="none" stroke="midnightblue" d="M742.17,-120.63C730.23,-118.95 716.81,-117.23 704.5,-116 449.26,-90.58 381.12,-124.47 128.5,-80 125.83,-79.53 123.08,-78.93 120.35,-78.25"/>
<polygon fill="midnightblue" stroke="midnightblue" points="741.82,-124.11 752.22,-122.07 742.82,-117.18 741.82,-124.11"/>
</g>
<!-- Node25&#45;&gt;Node6 -->
<g id="edge40" class="edge">
<title>Node25&#45;&gt;Node6</title>
<path fill="none" stroke="midnightblue" d="M812.84,-121.99C869.34,-115.26 983.33,-100.41 1078.5,-80 1081.67,-79.32 1084.98,-78.52 1088.24,-77.68"/>
<polygon fill="midnightblue" stroke="midnightblue" points="812.18,-118.54 802.66,-123.19 813,-125.49 812.18,-118.54"/>
</g>
<!-- Node25&#45;&gt;Node8 -->
<g id="edge41" class="edge">
<title>Node25&#45;&gt;Node8</title>
<path fill="none" stroke="midnightblue" d="M813.05,-123.95C892.42,-119.06 1089.91,-105.23 1253.5,-80 1256.55,-79.53 1259.7,-78.99 1262.86,-78.4"/>
<polygon fill="midnightblue" stroke="midnightblue" points="812.43,-120.48 802.66,-124.58 812.85,-127.47 812.43,-120.48"/>
</g>
<!-- Node25&#45;&gt;Node10 -->
<g id="edge42" class="edge">
<title>Node25&#45;&gt;Node10</title>
<path fill="none" stroke="midnightblue" d="M742.17,-120.58C730.23,-118.9 716.81,-117.18 704.5,-116 418.71,-88.49 342.43,-128.83 59.5,-80 56.83,-79.54 54.08,-78.94 51.34,-78.27"/>
<polygon fill="midnightblue" stroke="midnightblue" points="741.82,-124.06 752.22,-122.03 742.82,-117.14 741.82,-124.06"/>
</g>
<!-- Node25&#45;&gt;Node15 -->
<g id="edge33" class="edge">
<title>Node25&#45;&gt;Node15</title>
<path fill="none" stroke="midnightblue" d="M742.36,-116.86C741.06,-116.56 739.77,-116.28 738.5,-116 649.82,-96.72 626.76,-96.41 537.5,-80 534.74,-79.49 531.89,-78.97 529.03,-78.43"/>
<polygon fill="midnightblue" stroke="midnightblue" points="741.85,-120.34 752.39,-119.27 743.48,-113.53 741.85,-120.34"/>
</g>
<!-- Node25&#45;&gt;Node16 -->
<g id="edge34" class="edge">
<title>Node25&#45;&gt;Node16</title>
<path fill="none" stroke="midnightblue" d="M742.46,-116.28C703.42,-105.46 641.03,-88.17 604.59,-78.07"/>
<polygon fill="midnightblue" stroke="midnightblue" points="741.75,-119.72 752.32,-119.02 743.62,-112.98 741.75,-119.72"/>
</g>
<!-- Node25&#45;&gt;Node17 -->
<g id="edge36" class="edge">
<title>Node25&#45;&gt;Node17</title>
<path fill="none" stroke="midnightblue" d="M748.67,-111.84C728.06,-101.71 700.89,-88.37 682.84,-79.5"/>
<polygon fill="midnightblue" stroke="midnightblue" points="747.38,-115.11 757.9,-116.37 750.47,-108.82 747.38,-115.11"/>
</g>
<!-- Node25&#45;&gt;Node18 -->
<g id="edge43" class="edge">
<title>Node25&#45;&gt;Node18</title>
<path fill="none" stroke="midnightblue" d="M812.7,-115.99C851.63,-104.93 913.43,-87.36 948.31,-77.45"/>
<polygon fill="midnightblue" stroke="midnightblue" points="811.51,-112.69 802.85,-118.79 813.43,-119.43 811.51,-112.69"/>
</g>
<!-- Node25&#45;&gt;Node19 -->
<g id="edge44" class="edge">
<title>Node25&#45;&gt;Node19</title>
<path fill="none" stroke="midnightblue" d="M742.38,-116.76C741.07,-116.49 739.78,-116.24 738.5,-116 603,-90.83 566.15,-104.37 430.5,-80 427.76,-79.51 424.93,-78.94 422.1,-78.33"/>
<polygon fill="midnightblue" stroke="midnightblue" points="741.91,-120.24 752.44,-119.04 743.46,-113.42 741.91,-120.24"/>
</g>
<!-- Node25&#45;&gt;Node20 -->
<g id="edge45" class="edge">
<title>Node25&#45;&gt;Node20</title>
<path fill="none" stroke="midnightblue" d="M812.68,-125.99C909.38,-125.41 1187.07,-120.09 1413.5,-80 1416.49,-79.47 1419.58,-78.79 1422.65,-78.03"/>
<polygon fill="midnightblue" stroke="midnightblue" points="812.56,-122.49 802.58,-126.03 812.59,-129.49 812.56,-122.49"/>
</g>
<!-- Node25&#45;&gt;Node21 -->
<g id="edge48" class="edge">
<title>Node25&#45;&gt;Node21</title>
<path fill="none" stroke="midnightblue" d="M812.69,-119.96C858.32,-111.91 940.25,-96.73 1009.5,-80 1012.57,-79.26 1015.78,-78.42 1018.95,-77.56"/>
<polygon fill="midnightblue" stroke="midnightblue" points="811.96,-116.53 802.71,-121.71 813.16,-123.43 811.96,-116.53"/>
</g>
<!-- Node25&#45;&gt;Node22 -->
<g id="edge50" class="edge">
<title>Node25&#45;&gt;Node22</title>
<path fill="none" stroke="midnightblue" d="M813.16,-122.39C879.54,-115.5 1026.5,-99.41 1149.5,-80 1152.41,-79.54 1155.4,-79.04 1158.41,-78.52"/>
<polygon fill="midnightblue" stroke="midnightblue" points="812.43,-118.95 802.84,-123.46 813.15,-125.91 812.43,-118.95"/>
</g>
<!-- Node25&#45;&gt;Node26 -->
<g id="edge46" class="edge">
<title>Node25&#45;&gt;Node26</title>
<path fill="none" stroke="midnightblue" d="M812.89,-125.65C902.8,-124.23 1147.05,-116.99 1346.5,-80 1349.52,-79.44 1352.67,-78.72 1355.76,-77.91"/>
<polygon fill="midnightblue" stroke="midnightblue" points="812.65,-122.16 802.7,-125.8 812.75,-129.16 812.65,-122.16"/>
</g>
<!-- Node25&#45;&gt;Node27 -->
<g id="edge47" class="edge">
<title>Node25&#45;&gt;Node27</title>
<path fill="none" stroke="midnightblue" d="M807.26,-112.11C829.02,-101.96 857.97,-88.45 877.14,-79.5"/>
<polygon fill="midnightblue" stroke="midnightblue" points="805.71,-108.97 798.13,-116.37 808.67,-115.32 805.71,-108.97"/>
</g>
<!-- Node28 -->
<g id="node28" class="node">
<title>Node28</title>
<g id="a_node28"><a xlink:href="str_8c.html" target="_top" xlink:title=" ">
<polygon fill="white" stroke="black" points="722.5,-58.5 722.5,-79.5 760.5,-79.5 760.5,-58.5 722.5,-58.5"/>
<text text-anchor="middle" x="741.5" y="-65.9" font-family="DejaVuSans" font-size="12.00">str.c</text>
</a>
</g>
</g>
<!-- Node25&#45;&gt;Node28 -->
<g id="edge49" class="edge">
<title>Node25&#45;&gt;Node28</title>
<path fill="none" stroke="midnightblue" d="M765.69,-107.63C759.69,-98.29 752.63,-87.32 747.7,-79.64"/>
<polygon fill="midnightblue" stroke="midnightblue" points="762.88,-109.73 771.23,-116.25 768.77,-105.94 762.88,-109.73"/>
</g>
<!-- Node29 -->
<g id="node29" class="node">
<title>Node29</title>
<g id="a_node29"><a xlink:href="texmath_8c.html" target="_top" xlink:title=" ">
<polygon fill="white" stroke="black" points="778.5,-58.5 778.5,-79.5 846.5,-79.5 846.5,-58.5 778.5,-58.5"/>
<text text-anchor="middle" x="812.5" y="-65.9" font-family="DejaVuSans" font-size="12.00">texmath.c</text>
</a>
</g>
</g>
<!-- Node25&#45;&gt;Node29 -->
<g id="edge51" class="edge">
<title>Node25&#45;&gt;Node29</title>
<path fill="none" stroke="midnightblue" d="M788.98,-107.63C794.82,-98.29 801.68,-87.32 806.47,-79.64"/>
<polygon fill="midnightblue" stroke="midnightblue" points="785.93,-105.91 783.6,-116.25 791.86,-109.62 785.93,-105.91"/>
</g>
</g>
</svg>
