<?xml version="1.0" encoding="UTF-8" standalone="no"?>
<!DOCTYPE svg PUBLIC "-//W3C//DTD SVG 1.1//EN"
 "http://www.w3.org/Graphics/SVG/1.1/DTD/svg11.dtd">
<!-- Generated by graphviz version 2.44.0 ()
 -->
<!-- Title: global_const.h Pages: 1 -->
<svg width="1016pt" height="262pt"
 viewBox="0.00 0.00 1016.00 262.00" xmlns="http://www.w3.org/2000/svg" xmlns:xlink="http://www.w3.org/1999/xlink">
<g id="graph0" class="graph" transform="scale(1 1) rotate(0) translate(4 258)">
<title>global_const.h</title>
<polygon fill="white" stroke="transparent" points="-4,4 -4,-258 1012,-258 1012,4 -4,4"/>
<!-- Node1 -->
<g id="node1" class="node">
<title>Node1</title>
<g id="a_node1"><a xlink:title=" ">
<polygon fill="#bfbfbf" stroke="black" points="305.5,-232.5 305.5,-253.5 398.5,-253.5 398.5,-232.5 305.5,-232.5"/>
<text text-anchor="middle" x="352" y="-239.9" font-family="DejaVuSans" font-size="12.00">global_const.h</text>
</a>
</g>
</g>
<!-- Node2 -->
<g id="node2" class="node">
<title>Node2</title>
<g id="a_node2"><a xlink:href="str_8h.html" target="_top" xlink:title=" ">
<polygon fill="white" stroke="black" points="613.5,-174.5 613.5,-195.5 652.5,-195.5 652.5,-174.5 613.5,-174.5"/>
<text text-anchor="middle" x="633" y="-181.9" font-family="DejaVuSans" font-size="12.00">str.h</text>
</a>
</g>
</g>
<!-- Node1&#45;&gt;Node2 -->
<g id="edge1" class="edge">
<title>Node1&#45;&gt;Node2</title>
<path fill="none" stroke="midnightblue" d="M408.56,-230.73C471.93,-218.1 571.27,-198.3 613.23,-189.94"/>
<polygon fill="midnightblue" stroke="midnightblue" points="407.84,-227.3 398.72,-232.69 409.21,-234.17 407.84,-227.3"/>
</g>
<!-- Node3 -->
<g id="node3" class="node">
<title>Node3</title>
<g id="a_node3"><a xlink:href="dviout_8c.html" target="_top" xlink:title=" ">
<polygon fill="white" stroke="black" points="0,-58.5 0,-79.5 58,-79.5 58,-58.5 0,-58.5"/>
<text text-anchor="middle" x="29" y="-65.9" font-family="DejaVuSans" font-size="12.00">dviout.c</text>
</a>
</g>
</g>
<!-- Node1&#45;&gt;Node3 -->
<g id="edge43" class="edge">
<title>Node1&#45;&gt;Node3</title>
<path fill="none" stroke="midnightblue" d="M295.29,-233.09C207.02,-217.93 43.28,-184.21 9,-138 -4.2,-120.21 11.05,-93.82 21.27,-79.72"/>
<polygon fill="midnightblue" stroke="midnightblue" points="294.97,-236.58 305.41,-234.8 296.14,-229.68 294.97,-236.58"/>
</g>
<!-- Node9 -->
<g id="node9" class="node">
<title>Node9</title>
<g id="a_node9"><a xlink:href="print_8c.html" target="_top" xlink:title=" ">
<polygon fill="white" stroke="black" points="443.5,-58.5 443.5,-79.5 492.5,-79.5 492.5,-58.5 443.5,-58.5"/>
<text text-anchor="middle" x="468" y="-65.9" font-family="DejaVuSans" font-size="12.00">print.c</text>
</a>
</g>
</g>
<!-- Node1&#45;&gt;Node9 -->
<g id="edge48" class="edge">
<title>Node1&#45;&gt;Node9</title>
<path fill="none" stroke="midnightblue" d="M366,-224.28C372.54,-215.84 380.34,-205.52 387,-196 416.68,-153.61 449.16,-100.99 462.16,-79.65"/>
<polygon fill="midnightblue" stroke="midnightblue" points="363.14,-222.26 359.74,-232.3 368.65,-226.57 363.14,-222.26"/>
</g>
<!-- Node11 -->
<g id="node11" class="node">
<title>Node11</title>
<g id="a_node11"><a xlink:href="tex__header_8h.html" target="_top" xlink:title=" ">
<polygon fill="white" stroke="black" points="187,-58.5 187,-79.5 273,-79.5 273,-58.5 187,-58.5"/>
<text text-anchor="middle" x="230" y="-65.9" font-family="DejaVuSans" font-size="12.00">tex_header.h</text>
</a>
</g>
</g>
<!-- Node1&#45;&gt;Node11 -->
<g id="edge50" class="edge">
<title>Node1&#45;&gt;Node11</title>
<path fill="none" stroke="midnightblue" d="M317.14,-228.36C282.06,-212.52 229.96,-182.71 207,-138 196.87,-118.27 211.95,-93.1 222.07,-79.6"/>
<polygon fill="midnightblue" stroke="midnightblue" points="315.98,-231.67 326.54,-232.46 318.77,-225.26 315.98,-231.67"/>
</g>
<!-- Node16 -->
<g id="node16" class="node">
<title>Node16</title>
<g id="a_node16"><a xlink:href="str_8c.html" target="_top" xlink:title=" ">
<polygon fill="white" stroke="black" points="970,-58.5 970,-79.5 1008,-79.5 1008,-58.5 970,-58.5"/>
<text text-anchor="middle" x="989" y="-65.9" font-family="DejaVuSans" font-size="12.00">str.c</text>
</a>
</g>
</g>
<!-- Node1&#45;&gt;Node16 -->
<g id="edge49" class="edge">
<title>Node1&#45;&gt;Node16</title>
<path fill="none" stroke="midnightblue" d="M408.7,-238.74C541.56,-230.08 868.25,-202.62 954,-138 973.51,-123.3 983.06,-94.6 986.88,-79.62"/>
<polygon fill="midnightblue" stroke="midnightblue" points="408.47,-235.24 398.72,-239.38 408.92,-242.23 408.47,-235.24"/>
</g>
<!-- Node20 -->
<g id="node20" class="node">
<title>Node20</title>
<g id="a_node20"><a xlink:href="fonts_8h.html" target="_top" xlink:title=" ">
<polygon fill="white" stroke="black" points="326,-174.5 326,-195.5 378,-195.5 378,-174.5 326,-174.5"/>
<text text-anchor="middle" x="352" y="-181.9" font-family="DejaVuSans" font-size="12.00">fonts.h</text>
</a>
</g>
</g>
<!-- Node1&#45;&gt;Node20 -->
<g id="edge33" class="edge">
<title>Node1&#45;&gt;Node20</title>
<path fill="none" stroke="midnightblue" d="M352,-222.16C352,-213.16 352,-202.92 352,-195.64"/>
<polygon fill="midnightblue" stroke="midnightblue" points="348.5,-222.25 352,-232.25 355.5,-222.25 348.5,-222.25"/>
</g>
<!-- Node22 -->
<g id="node22" class="node">
<title>Node22</title>
<g id="a_node22"><a xlink:href="tex__inc_8h.html" target="_top" xlink:title=" ">
<polygon fill="white" stroke="black" points="258.5,-116.5 258.5,-137.5 323.5,-137.5 323.5,-116.5 258.5,-116.5"/>
<text text-anchor="middle" x="291" y="-123.9" font-family="DejaVuSans" font-size="12.00">tex_inc.h</text>
</a>
</g>
</g>
<!-- Node1&#45;&gt;Node22 -->
<g id="edge44" class="edge">
<title>Node1&#45;&gt;Node22</title>
<path fill="none" stroke="midnightblue" d="M336.83,-224.53C330.15,-216.26 322.58,-206.02 317,-196 306.06,-176.34 297.76,-151.15 293.72,-137.62"/>
<polygon fill="midnightblue" stroke="midnightblue" points="334.25,-226.9 343.34,-232.34 339.62,-222.42 334.25,-226.9"/>
</g>
<!-- Node2&#45;&gt;Node3 -->
<g id="edge2" class="edge">
<title>Node2&#45;&gt;Node3</title>
<path fill="none" stroke="midnightblue" d="M602.79,-182.72C535.35,-179.38 367.72,-168.48 231,-138 164.55,-123.19 89.27,-94.54 52.18,-79.6"/>
<polygon fill="midnightblue" stroke="midnightblue" points="602.94,-186.23 613.09,-183.21 603.27,-179.24 602.94,-186.23"/>
</g>
<!-- Node4 -->
<g id="node4" class="node">
<title>Node4</title>
<g id="a_node4"><a xlink:href="global_8h.html" target="_top" xlink:title=" ">
<polygon fill="white" stroke="black" points="524,-116.5 524,-137.5 582,-137.5 582,-116.5 524,-116.5"/>
<text text-anchor="middle" x="553" y="-123.9" font-family="DejaVuSans" font-size="12.00">global.h</text>
</a>
</g>
</g>
<!-- Node2&#45;&gt;Node4 -->
<g id="edge3" class="edge">
<title>Node2&#45;&gt;Node4</title>
<path fill="none" stroke="midnightblue" d="M610.84,-168.49C596.73,-158.61 578.88,-146.12 566.78,-137.64"/>
<polygon fill="midnightblue" stroke="midnightblue" points="608.87,-171.38 619.07,-174.25 612.88,-165.64 608.87,-171.38"/>
</g>
<!-- Node6 -->
<g id="node6" class="node">
<title>Node6</title>
<g id="a_node6"><a xlink:href="funcs_8c.html" target="_top" xlink:title=" ">
<polygon fill="white" stroke="black" points="659,-58.5 659,-79.5 713,-79.5 713,-58.5 659,-58.5"/>
<text text-anchor="middle" x="686" y="-65.9" font-family="DejaVuSans" font-size="12.00">funcs.c</text>
</a>
</g>
</g>
<!-- Node2&#45;&gt;Node6 -->
<g id="edge28" class="edge">
<title>Node2&#45;&gt;Node6</title>
<path fill="none" stroke="midnightblue" d="M652.55,-167.42C660.77,-159.38 669.65,-149.07 675,-138 684.26,-118.83 685.96,-93.45 686.14,-79.75"/>
<polygon fill="midnightblue" stroke="midnightblue" points="649.98,-165.03 645.01,-174.38 654.73,-170.17 649.98,-165.03"/>
</g>
<!-- Node2&#45;&gt;Node11 -->
<g id="edge32" class="edge">
<title>Node2&#45;&gt;Node11</title>
<path fill="none" stroke="midnightblue" d="M603.17,-182.32C517.61,-177.24 275.79,-160.97 249,-138 231.88,-123.32 229.55,-94.61 229.6,-79.63"/>
<polygon fill="midnightblue" stroke="midnightblue" points="603.07,-185.82 613.26,-182.91 603.48,-178.83 603.07,-185.82"/>
</g>
<!-- Node13 -->
<g id="node13" class="node">
<title>Node13</title>
<g id="a_node13"><a xlink:href="texfunc_8h.html" target="_top" xlink:title=" ">
<polygon fill="white" stroke="black" points="600.5,-116.5 600.5,-137.5 665.5,-137.5 665.5,-116.5 600.5,-116.5"/>
<text text-anchor="middle" x="633" y="-123.9" font-family="DejaVuSans" font-size="12.00">texfunc.h</text>
</a>
</g>
</g>
<!-- Node2&#45;&gt;Node13 -->
<g id="edge12" class="edge">
<title>Node2&#45;&gt;Node13</title>
<path fill="none" stroke="midnightblue" d="M633,-164.16C633,-155.16 633,-144.92 633,-137.64"/>
<polygon fill="midnightblue" stroke="midnightblue" points="629.5,-164.25 633,-174.25 636.5,-164.25 629.5,-164.25"/>
</g>
<!-- Node14 -->
<g id="node14" class="node">
<title>Node14</title>
<g id="a_node14"><a xlink:href="fonts_8c.html" target="_top" xlink:title=" ">
<polygon fill="white" stroke="black" points="900.5,-58.5 900.5,-79.5 951.5,-79.5 951.5,-58.5 900.5,-58.5"/>
<text text-anchor="middle" x="926" y="-65.9" font-family="DejaVuSans" font-size="12.00">fonts.c</text>
</a>
</g>
</g>
<!-- Node2&#45;&gt;Node14 -->
<g id="edge27" class="edge">
<title>Node2&#45;&gt;Node14</title>
<path fill="none" stroke="midnightblue" d="M662.86,-182.93C726.25,-180.04 871.4,-170.01 907,-138 923.77,-122.92 926.25,-94.39 926.32,-79.53"/>
<polygon fill="midnightblue" stroke="midnightblue" points="662.55,-179.44 652.71,-183.36 662.85,-186.43 662.55,-179.44"/>
</g>
<!-- Node15 -->
<g id="node15" class="node">
<title>Node15</title>
<g id="a_node15"><a xlink:href="printout_8c.html" target="_top" xlink:title=" ">
<polygon fill="white" stroke="black" points="817.5,-58.5 817.5,-79.5 882.5,-79.5 882.5,-58.5 817.5,-58.5"/>
<text text-anchor="middle" x="850" y="-65.9" font-family="DejaVuSans" font-size="12.00">printout.c</text>
</a>
</g>
</g>
<!-- Node2&#45;&gt;Node15 -->
<g id="edge30" class="edge">
<title>Node2&#45;&gt;Node15</title>
<path fill="none" stroke="midnightblue" d="M660,-169.82C704.85,-146.25 793.55,-99.66 831.77,-79.58"/>
<polygon fill="midnightblue" stroke="midnightblue" points="658.35,-166.73 651.13,-174.48 661.61,-172.92 658.35,-166.73"/>
</g>
<!-- Node2&#45;&gt;Node16 -->
<g id="edge31" class="edge">
<title>Node2&#45;&gt;Node16</title>
<path fill="none" stroke="midnightblue" d="M662.64,-181.86C727.84,-176.76 881.53,-162.45 927,-138 952.89,-124.08 973.59,-95.04 983.19,-79.81"/>
<polygon fill="midnightblue" stroke="midnightblue" points="662.31,-178.38 652.61,-182.63 662.85,-185.36 662.31,-178.38"/>
</g>
<!-- Node18 -->
<g id="node18" class="node">
<title>Node18</title>
<g id="a_node18"><a xlink:href="print_8h.html" target="_top" xlink:title=" ">
<polygon fill="white" stroke="black" points="456,-116.5 456,-137.5 506,-137.5 506,-116.5 456,-116.5"/>
<text text-anchor="middle" x="481" y="-123.9" font-family="DejaVuSans" font-size="12.00">print.h</text>
</a>
</g>
</g>
<!-- Node2&#45;&gt;Node18 -->
<g id="edge22" class="edge">
<title>Node2&#45;&gt;Node18</title>
<path fill="none" stroke="midnightblue" d="M603.69,-173.2C575.34,-162.76 532.85,-147.1 506.04,-137.22"/>
<polygon fill="midnightblue" stroke="midnightblue" points="602.85,-176.62 613.44,-176.79 605.27,-170.05 602.85,-176.62"/>
</g>
<!-- Node19 -->
<g id="node19" class="node">
<title>Node19</title>
<g id="a_node19"><a xlink:href="inipool_8c.html" target="_top" xlink:title=" ">
<polygon fill="white" stroke="black" points="836.5,-116.5 836.5,-137.5 897.5,-137.5 897.5,-116.5 836.5,-116.5"/>
<text text-anchor="middle" x="867" y="-123.9" font-family="DejaVuSans" font-size="12.00">inipool.c</text>
</a>
</g>
</g>
<!-- Node2&#45;&gt;Node19 -->
<g id="edge29" class="edge">
<title>Node2&#45;&gt;Node19</title>
<path fill="none" stroke="midnightblue" d="M662.47,-176.95C707.05,-166.28 791.22,-146.14 836.44,-135.31"/>
<polygon fill="midnightblue" stroke="midnightblue" points="661.46,-173.59 652.55,-179.32 663.09,-180.4 661.46,-173.59"/>
</g>
<!-- Node5 -->
<g id="node5" class="node">
<title>Node5</title>
<g id="a_node5"><a xlink:href="expand_8c.html" target="_top" xlink:title=" ">
<polygon fill="white" stroke="black" points="360.5,-58.5 360.5,-79.5 425.5,-79.5 425.5,-58.5 360.5,-58.5"/>
<text text-anchor="middle" x="393" y="-65.9" font-family="DejaVuSans" font-size="12.00">expand.c</text>
</a>
</g>
</g>
<!-- Node4&#45;&gt;Node5 -->
<g id="edge4" class="edge">
<title>Node4&#45;&gt;Node5</title>
<path fill="none" stroke="midnightblue" d="M516.02,-113.06C486.74,-102.81 446.51,-88.73 420.15,-79.5"/>
<polygon fill="midnightblue" stroke="midnightblue" points="514.9,-116.37 525.5,-116.37 517.21,-109.77 514.9,-116.37"/>
</g>
<!-- Node4&#45;&gt;Node6 -->
<g id="edge5" class="edge">
<title>Node4&#45;&gt;Node6</title>
<path fill="none" stroke="midnightblue" d="M585.34,-112.38C609.53,-102.2 642,-88.53 663.43,-79.5"/>
<polygon fill="midnightblue" stroke="midnightblue" points="583.72,-109.27 575.86,-116.37 586.44,-115.72 583.72,-109.27"/>
</g>
<!-- Node7 -->
<g id="node7" class="node">
<title>Node7</title>
<g id="a_node7"><a xlink:href="inputln_8c.html" target="_top" xlink:title=" ">
<polygon fill="white" stroke="black" points="579.5,-58.5 579.5,-79.5 640.5,-79.5 640.5,-58.5 579.5,-58.5"/>
<text text-anchor="middle" x="610" y="-65.9" font-family="DejaVuSans" font-size="12.00">inputln.c</text>
</a>
</g>
</g>
<!-- Node4&#45;&gt;Node7 -->
<g id="edge6" class="edge">
<title>Node4&#45;&gt;Node7</title>
<path fill="none" stroke="midnightblue" d="M570.23,-109.08C580.03,-99.44 591.96,-87.72 600.19,-79.64"/>
<polygon fill="midnightblue" stroke="midnightblue" points="567.61,-106.74 562.93,-116.25 572.51,-111.73 567.61,-106.74"/>
</g>
<!-- Node8 -->
<g id="node8" class="node">
<title>Node8</title>
<g id="a_node8"><a xlink:href="lexer_8c.html" target="_top" xlink:title=" ">
<polygon fill="white" stroke="black" points="510.5,-58.5 510.5,-79.5 561.5,-79.5 561.5,-58.5 510.5,-58.5"/>
<text text-anchor="middle" x="536" y="-65.9" font-family="DejaVuSans" font-size="12.00">lexer.c</text>
</a>
</g>
</g>
<!-- Node4&#45;&gt;Node8 -->
<g id="edge7" class="edge">
<title>Node4&#45;&gt;Node8</title>
<path fill="none" stroke="midnightblue" d="M547.07,-106.45C544.31,-97.38 541.16,-87 538.93,-79.64"/>
<polygon fill="midnightblue" stroke="midnightblue" points="543.78,-107.69 550.04,-116.25 550.48,-105.66 543.78,-107.69"/>
</g>
<!-- Node4&#45;&gt;Node9 -->
<g id="edge8" class="edge">
<title>Node4&#45;&gt;Node9</title>
<path fill="none" stroke="midnightblue" d="M529.46,-110.49C514.46,-100.61 495.5,-88.12 482.64,-79.64"/>
<polygon fill="midnightblue" stroke="midnightblue" points="527.92,-113.67 538.19,-116.25 531.77,-107.82 527.92,-113.67"/>
</g>
<!-- Node10 -->
<g id="node10" class="node">
<title>Node10</title>
<g id="a_node10"><a xlink:href="scan_8c.html" target="_top" xlink:title=" ">
<polygon fill="white" stroke="black" points="291.5,-58.5 291.5,-79.5 342.5,-79.5 342.5,-58.5 291.5,-58.5"/>
<text text-anchor="middle" x="317" y="-65.9" font-family="DejaVuSans" font-size="12.00">scan.c</text>
</a>
</g>
</g>
<!-- Node4&#45;&gt;Node10 -->
<g id="edge9" class="edge">
<title>Node4&#45;&gt;Node10</title>
<path fill="none" stroke="midnightblue" d="M514.26,-115.9C440.79,-98.47 420.32,-97.78 351,-80 348.26,-79.3 345.4,-78.52 342.57,-77.73"/>
<polygon fill="midnightblue" stroke="midnightblue" points="513.44,-119.31 523.99,-118.23 515.08,-112.5 513.44,-119.31"/>
</g>
<!-- Node4&#45;&gt;Node11 -->
<g id="edge10" class="edge">
<title>Node4&#45;&gt;Node11</title>
<path fill="none" stroke="midnightblue" d="M513.74,-115.9C410.7,-94.82 382.12,-97.36 282,-80 279.1,-79.5 276.11,-78.96 273.11,-78.42"/>
<polygon fill="midnightblue" stroke="midnightblue" points="513.11,-119.34 523.61,-117.94 514.53,-112.49 513.11,-119.34"/>
</g>
<!-- Node12 -->
<g id="node12" class="node">
<title>Node12</title>
<g id="a_node12"><a xlink:href="tex_8c.html" target="_top" xlink:title=" ">
<polygon fill="white" stroke="black" points="209.5,-0.5 209.5,-21.5 250.5,-21.5 250.5,-0.5 209.5,-0.5"/>
<text text-anchor="middle" x="230" y="-7.9" font-family="DejaVuSans" font-size="12.00">tex.c</text>
</a>
</g>
</g>
<!-- Node11&#45;&gt;Node12 -->
<g id="edge11" class="edge">
<title>Node11&#45;&gt;Node12</title>
<path fill="none" stroke="midnightblue" d="M230,-48.16C230,-39.16 230,-28.92 230,-21.64"/>
<polygon fill="midnightblue" stroke="midnightblue" points="226.5,-48.25 230,-58.25 233.5,-48.25 226.5,-48.25"/>
</g>
<!-- Node13&#45;&gt;Node5 -->
<g id="edge13" class="edge">
<title>Node13&#45;&gt;Node5</title>
<path fill="none" stroke="midnightblue" d="M590.63,-115.93C520.13,-99.43 501.3,-95.54 435,-80 431.93,-79.28 428.75,-78.53 425.55,-77.77"/>
<polygon fill="midnightblue" stroke="midnightblue" points="589.91,-119.35 600.45,-118.23 591.51,-112.54 589.91,-119.35"/>
</g>
<!-- Node13&#45;&gt;Node7 -->
<g id="edge15" class="edge">
<title>Node13&#45;&gt;Node7</title>
<path fill="none" stroke="midnightblue" d="M625.09,-106.75C621.34,-97.61 617.01,-87.08 613.96,-79.64"/>
<polygon fill="midnightblue" stroke="midnightblue" points="621.96,-108.33 628.99,-116.25 628.43,-105.67 621.96,-108.33"/>
</g>
<!-- Node13&#45;&gt;Node8 -->
<g id="edge16" class="edge">
<title>Node13&#45;&gt;Node8</title>
<path fill="none" stroke="midnightblue" d="M607.1,-111.05C589.84,-101.08 567.66,-88.28 552.7,-79.64"/>
<polygon fill="midnightblue" stroke="midnightblue" points="605.69,-114.28 616.1,-116.25 609.19,-108.21 605.69,-114.28"/>
</g>
<!-- Node13&#45;&gt;Node10 -->
<g id="edge18" class="edge">
<title>Node13&#45;&gt;Node10</title>
<path fill="none" stroke="midnightblue" d="M590.58,-116.07C483.36,-95.92 453.23,-102.59 351,-80 348.24,-79.39 345.37,-78.68 342.52,-77.91"/>
<polygon fill="midnightblue" stroke="midnightblue" points="590.02,-119.53 600.5,-117.97 591.34,-112.66 590.02,-119.53"/>
</g>
<!-- Node13&#45;&gt;Node11 -->
<g id="edge20" class="edge">
<title>Node13&#45;&gt;Node11</title>
<path fill="none" stroke="midnightblue" d="M590.03,-116.01C453.09,-92.36 415.44,-100.58 282,-80 279.09,-79.55 276.1,-79.06 273.09,-78.54"/>
<polygon fill="midnightblue" stroke="midnightblue" points="589.61,-119.49 600.06,-117.77 590.82,-112.6 589.61,-119.49"/>
</g>
<!-- Node13&#45;&gt;Node14 -->
<g id="edge14" class="edge">
<title>Node13&#45;&gt;Node14</title>
<path fill="none" stroke="midnightblue" d="M675.64,-119.9C727.22,-112.19 816.51,-97.75 892,-80 894.76,-79.35 897.62,-78.61 900.46,-77.84"/>
<polygon fill="midnightblue" stroke="midnightblue" points="674.92,-116.47 665.54,-121.4 675.94,-123.4 674.92,-116.47"/>
</g>
<!-- Node13&#45;&gt;Node15 -->
<g id="edge17" class="edge">
<title>Node13&#45;&gt;Node15</title>
<path fill="none" stroke="midnightblue" d="M675.8,-114.95C717.42,-104.21 779.72,-88.14 817.44,-78.4"/>
<polygon fill="midnightblue" stroke="midnightblue" points="674.77,-111.61 665.96,-117.49 676.52,-118.38 674.77,-111.61"/>
</g>
<!-- Node13&#45;&gt;Node16 -->
<g id="edge19" class="edge">
<title>Node13&#45;&gt;Node16</title>
<path fill="none" stroke="midnightblue" d="M675.51,-122.82C738.55,-117.48 860.24,-104.78 961,-80 963.91,-79.28 966.93,-78.38 969.88,-77.41"/>
<polygon fill="midnightblue" stroke="midnightblue" points="675.22,-119.33 665.54,-123.65 675.79,-126.31 675.22,-119.33"/>
</g>
<!-- Node17 -->
<g id="node17" class="node">
<title>Node17</title>
<g id="a_node17"><a xlink:href="texmath_8c.html" target="_top" xlink:title=" ">
<polygon fill="white" stroke="black" points="731,-58.5 731,-79.5 799,-79.5 799,-58.5 731,-58.5"/>
<text text-anchor="middle" x="765" y="-65.9" font-family="DejaVuSans" font-size="12.00">texmath.c</text>
</a>
</g>
</g>
<!-- Node13&#45;&gt;Node17 -->
<g id="edge21" class="edge">
<title>Node13&#45;&gt;Node17</title>
<path fill="none" stroke="midnightblue" d="M665.1,-112.38C689.1,-102.2 721.33,-88.53 742.6,-79.5"/>
<polygon fill="midnightblue" stroke="midnightblue" points="663.53,-109.25 655.69,-116.37 666.26,-115.69 663.53,-109.25"/>
</g>
<!-- Node18&#45;&gt;Node5 -->
<g id="edge23" class="edge">
<title>Node18&#45;&gt;Node5</title>
<path fill="none" stroke="midnightblue" d="M457.07,-110.77C441.47,-100.85 421.6,-88.2 408.15,-79.64"/>
<polygon fill="midnightblue" stroke="midnightblue" points="455.36,-113.83 465.67,-116.25 459.11,-107.92 455.36,-113.83"/>
</g>
<!-- Node18&#45;&gt;Node8 -->
<g id="edge24" class="edge">
<title>Node18&#45;&gt;Node8</title>
<path fill="none" stroke="midnightblue" d="M497.62,-109.08C507.09,-99.44 518.6,-87.72 526.53,-79.64"/>
<polygon fill="midnightblue" stroke="midnightblue" points="495.09,-106.66 490.58,-116.25 500.08,-111.56 495.09,-106.66"/>
</g>
<!-- Node18&#45;&gt;Node9 -->
<g id="edge25" class="edge">
<title>Node18&#45;&gt;Node9</title>
<path fill="none" stroke="midnightblue" d="M476.46,-106.45C474.36,-97.38 471.95,-87 470.24,-79.64"/>
<polygon fill="midnightblue" stroke="midnightblue" points="473.06,-107.3 478.74,-116.25 479.88,-105.71 473.06,-107.3"/>
</g>
<!-- Node18&#45;&gt;Node11 -->
<g id="edge26" class="edge">
<title>Node18&#45;&gt;Node11</title>
<path fill="none" stroke="midnightblue" d="M445.56,-118.09C400.1,-107.95 321.3,-90.37 272.61,-79.51"/>
<polygon fill="midnightblue" stroke="midnightblue" points="445.03,-121.56 455.55,-120.32 446.55,-114.73 445.03,-121.56"/>
</g>
<!-- Node20&#45;&gt;Node3 -->
<g id="edge34" class="edge">
<title>Node20&#45;&gt;Node3</title>
<path fill="none" stroke="midnightblue" d="M315.66,-184.68C237.45,-185.3 57.17,-181.81 19,-138 4.73,-121.63 15.81,-94.16 23.4,-79.66"/>
<polygon fill="midnightblue" stroke="midnightblue" points="316.03,-188.18 325.99,-184.57 315.95,-181.18 316.03,-188.18"/>
</g>
<!-- Node20&#45;&gt;Node5 -->
<g id="edge38" class="edge">
<title>Node20&#45;&gt;Node5</title>
<path fill="none" stroke="midnightblue" d="M358.98,-164.58C367.84,-139.96 382.77,-98.44 389.51,-79.69"/>
<polygon fill="midnightblue" stroke="midnightblue" points="355.59,-163.69 355.5,-174.28 362.17,-166.06 355.59,-163.69"/>
</g>
<!-- Node20&#45;&gt;Node10 -->
<g id="edge41" class="edge">
<title>Node20&#45;&gt;Node10</title>
<path fill="none" stroke="midnightblue" d="M346.45,-164.57C342.52,-150.95 337.06,-132.32 332,-116 328.12,-103.48 323.4,-89.14 320.3,-79.84"/>
<polygon fill="midnightblue" stroke="midnightblue" points="343.12,-165.64 349.24,-174.29 349.84,-163.71 343.12,-165.64"/>
</g>
<!-- Node20&#45;&gt;Node11 -->
<g id="edge42" class="edge">
<title>Node20&#45;&gt;Node11</title>
<path fill="none" stroke="midnightblue" d="M315.42,-182.8C283.35,-179.57 238.45,-169.3 216,-138 203.35,-120.37 215.41,-93.91 223.69,-79.76"/>
<polygon fill="midnightblue" stroke="midnightblue" points="315.5,-186.32 325.75,-183.64 316.07,-179.34 315.5,-186.32"/>
</g>
<!-- Node20&#45;&gt;Node14 -->
<g id="edge39" class="edge">
<title>Node20&#45;&gt;Node14</title>
<path fill="none" stroke="midnightblue" d="M388.55,-181.79C455.14,-177.25 600.41,-164.94 720,-138 787.42,-122.81 864.03,-94.46 902.01,-79.62"/>
<polygon fill="midnightblue" stroke="midnightblue" points="387.92,-178.33 378.18,-182.48 388.39,-185.31 387.92,-178.33"/>
</g>
<!-- Node20&#45;&gt;Node15 -->
<g id="edge40" class="edge">
<title>Node20&#45;&gt;Node15</title>
<path fill="none" stroke="midnightblue" d="M388.54,-181.54C448.96,-176.85 573.17,-164.66 675,-138 733.02,-122.81 798.04,-94.33 830.03,-79.51"/>
<polygon fill="midnightblue" stroke="midnightblue" points="388.07,-178.06 378.36,-182.3 388.59,-185.04 388.07,-178.06"/>
</g>
<!-- Node21 -->
<g id="node21" class="node">
<title>Node21</title>
<g id="a_node21"><a xlink:href="dviout_8h.html" target="_top" xlink:title=" ">
<polygon fill="white" stroke="black" points="28.5,-116.5 28.5,-137.5 87.5,-137.5 87.5,-116.5 28.5,-116.5"/>
<text text-anchor="middle" x="58" y="-123.9" font-family="DejaVuSans" font-size="12.00">dviout.h</text>
</a>
</g>
</g>
<!-- Node20&#45;&gt;Node21 -->
<g id="edge35" class="edge">
<title>Node20&#45;&gt;Node21</title>
<path fill="none" stroke="midnightblue" d="M315.98,-177.14C257.36,-165.97 142.37,-144.07 87.94,-133.7"/>
<polygon fill="midnightblue" stroke="midnightblue" points="315.43,-180.6 325.91,-179.03 316.74,-173.72 315.43,-180.6"/>
</g>
<!-- Node21&#45;&gt;Node3 -->
<g id="edge36" class="edge">
<title>Node21&#45;&gt;Node3</title>
<path fill="none" stroke="midnightblue" d="M48.34,-107.34C43.53,-98.06 37.93,-87.24 33.99,-79.64"/>
<polygon fill="midnightblue" stroke="midnightblue" points="45.24,-108.98 52.95,-116.25 51.46,-105.76 45.24,-108.98"/>
</g>
<!-- Node21&#45;&gt;Node11 -->
<g id="edge37" class="edge">
<title>Node21&#45;&gt;Node11</title>
<path fill="none" stroke="midnightblue" d="M97.34,-113.19C128.86,-102.93 172.35,-88.77 200.82,-79.5"/>
<polygon fill="midnightblue" stroke="midnightblue" points="95.99,-109.95 87.57,-116.37 98.16,-116.61 95.99,-109.95"/>
</g>
<!-- Node22&#45;&gt;Node5 -->
<g id="edge45" class="edge">
<title>Node22&#45;&gt;Node5</title>
<path fill="none" stroke="midnightblue" d="M317.73,-111.32C335.95,-101.32 359.56,-88.36 375.44,-79.64"/>
<polygon fill="midnightblue" stroke="midnightblue" points="315.85,-108.36 308.77,-116.25 319.22,-114.5 315.85,-108.36"/>
</g>
<!-- Node22&#45;&gt;Node10 -->
<g id="edge46" class="edge">
<title>Node22&#45;&gt;Node10</title>
<path fill="none" stroke="midnightblue" d="M299.8,-107.04C304.08,-97.83 309.03,-87.16 312.52,-79.64"/>
<polygon fill="midnightblue" stroke="midnightblue" points="296.57,-105.7 295.53,-116.25 302.91,-108.65 296.57,-105.7"/>
</g>
<!-- Node22&#45;&gt;Node11 -->
<g id="edge47" class="edge">
<title>Node22&#45;&gt;Node11</title>
<path fill="none" stroke="midnightblue" d="M272.88,-109.36C262.32,-99.67 249.39,-87.8 240.5,-79.64"/>
<polygon fill="midnightblue" stroke="midnightblue" points="270.64,-112.06 280.37,-116.25 275.38,-106.9 270.64,-112.06"/>
</g>
</g>
</svg>
