<?xml version="1.0" encoding="UTF-8" standalone="no"?>
<!DOCTYPE svg PUBLIC "-//W3C//DTD SVG 1.1//EN"
 "http://www.w3.org/Graphics/SVG/1.1/DTD/svg11.dtd">
<!-- Generated by graphviz version 2.44.0 ()
 -->
<!-- Title: global_const.h Pages: 1 -->
<svg width="3582pt" height="726pt"
 viewBox="0.00 0.00 3582.00 726.00" xmlns="http://www.w3.org/2000/svg" xmlns:xlink="http://www.w3.org/1999/xlink">
<g id="graph0" class="graph" transform="scale(1 1) rotate(0) translate(4 722)">
<title>global_const.h</title>
<polygon fill="white" stroke="transparent" points="-4,4 -4,-722 3578,-722 3578,4 -4,4"/>
<!-- Node1 -->
<g id="node1" class="node">
<title>Node1</title>
<g id="a_node1"><a xlink:title=" ">
<polygon fill="#bfbfbf" stroke="black" points="219.5,-696.5 219.5,-717.5 312.5,-717.5 312.5,-696.5 219.5,-696.5"/>
<text text-anchor="middle" x="266" y="-703.9" font-family="DejaVuSans" font-size="12.00">global_const.h</text>
</a>
</g>
</g>
<!-- Node2 -->
<g id="node2" class="node">
<title>Node2</title>
<g id="a_node2"><a xlink:href="dviout_8c.html" target="_top" xlink:title=" ">
<polygon fill="white" stroke="black" points="47,-58.5 47,-79.5 105,-79.5 105,-58.5 47,-58.5"/>
<text text-anchor="middle" x="76" y="-65.9" font-family="DejaVuSans" font-size="12.00">dviout.c</text>
</a>
</g>
</g>
<!-- Node1&#45;&gt;Node2 -->
<g id="edge1" class="edge">
<title>Node1&#45;&gt;Node2</title>
<path fill="none" stroke="midnightblue" d="M209.17,-705.72C131.04,-701.99 0,-682.28 0,-592 0,-592 0,-592 0,-184 0,-138.57 42.31,-97.47 63.79,-79.53"/>
<polygon fill="midnightblue" stroke="midnightblue" points="209.23,-709.22 219.36,-706.13 209.51,-702.23 209.23,-709.22"/>
</g>
<!-- Node3 -->
<g id="node3" class="node">
<title>Node3</title>
<g id="a_node3"><a xlink:href="fonts_8h.html" target="_top" xlink:title=" ">
<polygon fill="white" stroke="black" points="698,-174.5 698,-195.5 750,-195.5 750,-174.5 698,-174.5"/>
<text text-anchor="middle" x="724" y="-181.9" font-family="DejaVuSans" font-size="12.00">fonts.h</text>
</a>
</g>
</g>
<!-- Node1&#45;&gt;Node3 -->
<g id="edge2" class="edge">
<title>Node1&#45;&gt;Node3</title>
<path fill="none" stroke="midnightblue" d="M266,-686.15C266,-663.41 266,-625.02 266,-592 266,-592 266,-592 266,-532 266,-314.01 600.41,-215.93 697.73,-192"/>
<polygon fill="midnightblue" stroke="midnightblue" points="262.5,-686.24 266,-696.24 269.5,-686.24 262.5,-686.24"/>
</g>
<!-- Node5 -->
<g id="node5" class="node">
<title>Node5</title>
<g id="a_node5"><a xlink:href="tex__header_8h.html" target="_top" xlink:title=" ">
<polygon fill="white" stroke="black" points="529,-58.5 529,-79.5 615,-79.5 615,-58.5 529,-58.5"/>
<text text-anchor="middle" x="572" y="-65.9" font-family="DejaVuSans" font-size="12.00">tex_header.h</text>
</a>
</g>
</g>
<!-- Node1&#45;&gt;Node5 -->
<g id="edge159" class="edge">
<title>Node1&#45;&gt;Node5</title>
<path fill="none" stroke="midnightblue" d="M255.66,-687.37C244.41,-665.3 228,-627.1 228,-592 228,-592 228,-592 228,-184 228,-144.28 251.37,-135.46 286,-116 326.83,-93.05 459.63,-79.15 528.97,-73.27"/>
<polygon fill="midnightblue" stroke="midnightblue" points="252.62,-689.1 260.39,-696.3 258.81,-685.83 252.62,-689.1"/>
</g>
<!-- Node14 -->
<g id="node14" class="node">
<title>Node14</title>
<g id="a_node14"><a xlink:href="str_8c.html" target="_top" xlink:title=" ">
<polygon fill="white" stroke="black" points="360,-58.5 360,-79.5 398,-79.5 398,-58.5 360,-58.5"/>
<text text-anchor="middle" x="379" y="-65.9" font-family="DejaVuSans" font-size="12.00">str.c</text>
</a>
</g>
</g>
<!-- Node1&#45;&gt;Node14 -->
<g id="edge24" class="edge">
<title>Node1&#45;&gt;Node14</title>
<path fill="none" stroke="midnightblue" d="M235.24,-691.73C201.47,-673.69 152,-639.2 152,-592 152,-592 152,-592 152,-184 152,-91.39 304.75,-74.01 359.65,-70.75"/>
<polygon fill="midnightblue" stroke="midnightblue" points="233.79,-694.92 244.29,-696.37 236.99,-688.69 233.79,-694.92"/>
</g>
<!-- Node17 -->
<g id="node17" class="node">
<title>Node17</title>
<g id="a_node17"><a xlink:href="io__unix_8c.html" target="_top" xlink:title=" ">
<polygon fill="white" stroke="black" points="706.5,-232.5 706.5,-253.5 771.5,-253.5 771.5,-232.5 706.5,-232.5"/>
<text text-anchor="middle" x="739" y="-239.9" font-family="DejaVuSans" font-size="12.00">io_unix.c</text>
</a>
</g>
</g>
<!-- Node1&#45;&gt;Node17 -->
<g id="edge22" class="edge">
<title>Node1&#45;&gt;Node17</title>
<path fill="none" stroke="midnightblue" d="M286.84,-689.89C336.18,-649.76 456,-539.77 456,-418 456,-418 456,-418 456,-358 456,-304.57 631.77,-264.55 706.26,-249.99"/>
<polygon fill="midnightblue" stroke="midnightblue" points="284.39,-687.37 278.76,-696.35 288.76,-692.84 284.39,-687.37"/>
</g>
<!-- Node18 -->
<g id="node18" class="node">
<title>Node18</title>
<g id="a_node18"><a xlink:href="print_8c.html" target="_top" xlink:title=" ">
<polygon fill="white" stroke="black" points="1728.5,-58.5 1728.5,-79.5 1777.5,-79.5 1777.5,-58.5 1728.5,-58.5"/>
<text text-anchor="middle" x="1753" y="-65.9" font-family="DejaVuSans" font-size="12.00">print.c</text>
</a>
</g>
</g>
<!-- Node1&#45;&gt;Node18 -->
<g id="edge23" class="edge">
<title>Node1&#45;&gt;Node18</title>
<path fill="none" stroke="midnightblue" d="M322.86,-705.86C541.79,-704.6 1318,-692.99 1318,-592 1318,-592 1318,-592 1318,-474 1318,-391.53 1301.1,-361.61 1342,-290 1404.35,-180.84 1451.87,-170.83 1565,-116 1619.88,-89.4 1691.44,-77.4 1728.45,-72.66"/>
<polygon fill="midnightblue" stroke="midnightblue" points="322.54,-702.36 312.56,-705.92 322.58,-709.36 322.54,-702.36"/>
</g>
<!-- Node19 -->
<g id="node19" class="node">
<title>Node19</title>
<g id="a_node19"><a xlink:href="str_8h.html" target="_top" xlink:title=" ">
<polygon fill="white" stroke="black" points="669.5,-638.5 669.5,-659.5 708.5,-659.5 708.5,-638.5 669.5,-638.5"/>
<text text-anchor="middle" x="689" y="-645.9" font-family="DejaVuSans" font-size="12.00">str.h</text>
</a>
</g>
</g>
<!-- Node1&#45;&gt;Node19 -->
<g id="edge25" class="edge">
<title>Node1&#45;&gt;Node19</title>
<path fill="none" stroke="midnightblue" d="M322.99,-698.46C418.91,-685.76 608.15,-660.7 669.38,-652.6"/>
<polygon fill="midnightblue" stroke="midnightblue" points="322.34,-695.01 312.88,-699.79 323.26,-701.95 322.34,-695.01"/>
</g>
<!-- Node3&#45;&gt;Node2 -->
<g id="edge3" class="edge">
<title>Node3&#45;&gt;Node2</title>
<path fill="none" stroke="midnightblue" d="M687.38,-182.73C611.66,-179.54 432.68,-169.1 286,-138 216.83,-123.34 138.29,-94.49 99.81,-79.52"/>
<polygon fill="midnightblue" stroke="midnightblue" points="687.65,-186.24 697.79,-183.15 687.94,-179.25 687.65,-186.24"/>
</g>
<!-- Node4 -->
<g id="node4" class="node">
<title>Node4</title>
<g id="a_node4"><a xlink:href="dviout_8h.html" target="_top" xlink:title=" ">
<polygon fill="white" stroke="black" points="294.5,-116.5 294.5,-137.5 353.5,-137.5 353.5,-116.5 294.5,-116.5"/>
<text text-anchor="middle" x="324" y="-123.9" font-family="DejaVuSans" font-size="12.00">dviout.h</text>
</a>
</g>
</g>
<!-- Node3&#45;&gt;Node4 -->
<g id="edge4" class="edge">
<title>Node3&#45;&gt;Node4</title>
<path fill="none" stroke="midnightblue" d="M687.39,-178.87C608.81,-167.87 425.35,-142.19 353.56,-132.14"/>
<polygon fill="midnightblue" stroke="midnightblue" points="687.37,-182.41 697.75,-180.33 688.34,-175.47 687.37,-182.41"/>
</g>
<!-- Node3&#45;&gt;Node5 -->
<g id="edge21" class="edge">
<title>Node3&#45;&gt;Node5</title>
<path fill="none" stroke="midnightblue" d="M703.1,-168.32C671.2,-144.4 611.32,-99.49 584.98,-79.74"/>
<polygon fill="midnightblue" stroke="midnightblue" points="701.2,-171.28 711.3,-174.48 705.4,-165.68 701.2,-171.28"/>
</g>
<!-- Node7 -->
<g id="node7" class="node">
<title>Node7</title>
<g id="a_node7"><a xlink:href="expand_8c.html" target="_top" xlink:title=" ">
<polygon fill="white" stroke="black" points="1219.5,-58.5 1219.5,-79.5 1284.5,-79.5 1284.5,-58.5 1219.5,-58.5"/>
<text text-anchor="middle" x="1252" y="-65.9" font-family="DejaVuSans" font-size="12.00">expand.c</text>
</a>
</g>
</g>
<!-- Node3&#45;&gt;Node7 -->
<g id="edge8" class="edge">
<title>Node3&#45;&gt;Node7</title>
<path fill="none" stroke="midnightblue" d="M760.02,-173.08C808.68,-158.6 898.29,-132.92 976,-116 1063.1,-97.04 1167.14,-81.63 1219.09,-74.42"/>
<polygon fill="midnightblue" stroke="midnightblue" points="758.85,-169.77 750.28,-175.99 760.86,-176.48 758.85,-169.77"/>
</g>
<!-- Node8 -->
<g id="node8" class="node">
<title>Node8</title>
<g id="a_node8"><a xlink:href="fonts_8c.html" target="_top" xlink:title=" ">
<polygon fill="white" stroke="black" points="1002.5,-58.5 1002.5,-79.5 1053.5,-79.5 1053.5,-58.5 1002.5,-58.5"/>
<text text-anchor="middle" x="1028" y="-65.9" font-family="DejaVuSans" font-size="12.00">fonts.c</text>
</a>
</g>
</g>
<!-- Node3&#45;&gt;Node8 -->
<g id="edge9" class="edge">
<title>Node3&#45;&gt;Node8</title>
<path fill="none" stroke="midnightblue" d="M735.5,-165.88C746.49,-150.12 764.55,-127.99 786,-116 856.93,-76.36 955.88,-70.22 1002.18,-69.69"/>
<polygon fill="midnightblue" stroke="midnightblue" points="732.52,-164.03 729.87,-174.29 738.34,-167.93 732.52,-164.03"/>
</g>
<!-- Node9 -->
<g id="node9" class="node">
<title>Node9</title>
<g id="a_node9"><a xlink:href="hash_8h.html" target="_top" xlink:title=" ">
<polygon fill="white" stroke="black" points="1132.5,-116.5 1132.5,-137.5 1185.5,-137.5 1185.5,-116.5 1132.5,-116.5"/>
<text text-anchor="middle" x="1159" y="-123.9" font-family="DejaVuSans" font-size="12.00">hash.h</text>
</a>
</g>
</g>
<!-- Node3&#45;&gt;Node9 -->
<g id="edge10" class="edge">
<title>Node3&#45;&gt;Node9</title>
<path fill="none" stroke="midnightblue" d="M760.23,-179.34C845.59,-168.35 1057.75,-141.03 1132.46,-131.42"/>
<polygon fill="midnightblue" stroke="midnightblue" points="759.7,-175.87 750.23,-180.62 760.6,-182.82 759.7,-175.87"/>
</g>
<!-- Node15 -->
<g id="node15" class="node">
<title>Node15</title>
<g id="a_node15"><a xlink:href="printout_8c.html" target="_top" xlink:title=" ">
<polygon fill="white" stroke="black" points="2803.5,-58.5 2803.5,-79.5 2868.5,-79.5 2868.5,-58.5 2803.5,-58.5"/>
<text text-anchor="middle" x="2836" y="-65.9" font-family="DejaVuSans" font-size="12.00">printout.c</text>
</a>
</g>
</g>
<!-- Node3&#45;&gt;Node15 -->
<g id="edge19" class="edge">
<title>Node3&#45;&gt;Node15</title>
<path fill="none" stroke="midnightblue" d="M760.28,-183.75C924.11,-182.44 1611.45,-174.91 2174,-138 2416.39,-122.1 2707.17,-86.45 2803.35,-74.22"/>
<polygon fill="midnightblue" stroke="midnightblue" points="760.22,-180.25 750.25,-183.83 760.28,-187.25 760.22,-180.25"/>
</g>
<!-- Node16 -->
<g id="node16" class="node">
<title>Node16</title>
<g id="a_node16"><a xlink:href="scan_8c.html" target="_top" xlink:title=" ">
<polygon fill="white" stroke="black" points="2566.5,-58.5 2566.5,-79.5 2617.5,-79.5 2617.5,-58.5 2566.5,-58.5"/>
<text text-anchor="middle" x="2592" y="-65.9" font-family="DejaVuSans" font-size="12.00">scan.c</text>
</a>
</g>
</g>
<!-- Node3&#45;&gt;Node16 -->
<g id="edge20" class="edge">
<title>Node3&#45;&gt;Node16</title>
<path fill="none" stroke="midnightblue" d="M760.82,-183.97C917.51,-183.57 1544.21,-179.35 2057,-138 2253.92,-122.12 2489.67,-86.22 2566.47,-74.09"/>
<polygon fill="midnightblue" stroke="midnightblue" points="760.35,-180.47 750.36,-183.99 760.37,-187.47 760.35,-180.47"/>
</g>
<!-- Node4&#45;&gt;Node2 -->
<g id="edge5" class="edge">
<title>Node4&#45;&gt;Node2</title>
<path fill="none" stroke="midnightblue" d="M284.28,-117.03C234.31,-105.75 149.69,-86.64 105.25,-76.6"/>
<polygon fill="midnightblue" stroke="midnightblue" points="283.56,-120.46 294.09,-119.25 285.1,-113.63 283.56,-120.46"/>
</g>
<!-- Node4&#45;&gt;Node5 -->
<g id="edge6" class="edge">
<title>Node4&#45;&gt;Node5</title>
<path fill="none" stroke="midnightblue" d="M363.64,-116.99C365.11,-116.65 366.57,-116.32 368,-116 423.77,-103.37 488.13,-88.87 529.41,-79.58"/>
<polygon fill="midnightblue" stroke="midnightblue" points="362.8,-113.59 353.82,-119.22 364.35,-120.42 362.8,-113.59"/>
</g>
<!-- Node6 -->
<g id="node6" class="node">
<title>Node6</title>
<g id="a_node6"><a xlink:href="tex_8c.html" target="_top" xlink:title=" ">
<polygon fill="white" stroke="black" points="551.5,-0.5 551.5,-21.5 592.5,-21.5 592.5,-0.5 551.5,-0.5"/>
<text text-anchor="middle" x="572" y="-7.9" font-family="DejaVuSans" font-size="12.00">tex.c</text>
</a>
</g>
</g>
<!-- Node5&#45;&gt;Node6 -->
<g id="edge7" class="edge">
<title>Node5&#45;&gt;Node6</title>
<path fill="none" stroke="midnightblue" d="M572,-48.16C572,-39.16 572,-28.92 572,-21.64"/>
<polygon fill="midnightblue" stroke="midnightblue" points="568.5,-48.25 572,-58.25 575.5,-48.25 568.5,-48.25"/>
</g>
<!-- Node9&#45;&gt;Node5 -->
<g id="edge18" class="edge">
<title>Node9&#45;&gt;Node5</title>
<path fill="none" stroke="midnightblue" d="M1122.29,-122.5C1018.94,-112.64 725.85,-84.68 615.1,-74.11"/>
<polygon fill="midnightblue" stroke="midnightblue" points="1121.97,-125.98 1132.25,-123.45 1122.63,-119.01 1121.97,-125.98"/>
</g>
<!-- Node9&#45;&gt;Node7 -->
<g id="edge13" class="edge">
<title>Node9&#45;&gt;Node7</title>
<path fill="none" stroke="midnightblue" d="M1183.83,-111.05C1200.38,-101.08 1221.64,-88.28 1235.99,-79.64"/>
<polygon fill="midnightblue" stroke="midnightblue" points="1181.96,-108.09 1175.2,-116.25 1185.57,-114.09 1181.96,-108.09"/>
</g>
<!-- Node9&#45;&gt;Node8 -->
<g id="edge14" class="edge">
<title>Node9&#45;&gt;Node8</title>
<path fill="none" stroke="midnightblue" d="M1127.15,-112.38C1103.32,-102.2 1071.34,-88.53 1050.23,-79.5"/>
<polygon fill="midnightblue" stroke="midnightblue" points="1125.91,-115.66 1136.48,-116.37 1128.66,-109.22 1125.91,-115.66"/>
</g>
<!-- Node10 -->
<g id="node10" class="node">
<title>Node10</title>
<g id="a_node10"><a xlink:href="box__display_8c.html" target="_top" xlink:title=" ">
<polygon fill="white" stroke="black" points="2125.5,-58.5 2125.5,-79.5 2214.5,-79.5 2214.5,-58.5 2125.5,-58.5"/>
<text text-anchor="middle" x="2170" y="-65.9" font-family="DejaVuSans" font-size="12.00">box_display.c</text>
</a>
</g>
</g>
<!-- Node9&#45;&gt;Node10 -->
<g id="edge11" class="edge">
<title>Node9&#45;&gt;Node10</title>
<path fill="none" stroke="midnightblue" d="M1195.83,-125.37C1321.92,-122.98 1747.85,-112.83 2098,-80 2106.8,-79.18 2116.16,-78.05 2125.14,-76.86"/>
<polygon fill="midnightblue" stroke="midnightblue" points="1195.51,-121.88 1185.58,-125.56 1195.64,-128.88 1195.51,-121.88"/>
</g>
<!-- Node11 -->
<g id="node11" class="node">
<title>Node11</title>
<g id="a_node11"><a xlink:href="eqtb_8c.html" target="_top" xlink:title=" ">
<polygon fill="white" stroke="black" points="1549.5,-58.5 1549.5,-79.5 1598.5,-79.5 1598.5,-58.5 1549.5,-58.5"/>
<text text-anchor="middle" x="1574" y="-65.9" font-family="DejaVuSans" font-size="12.00">eqtb.c</text>
</a>
</g>
</g>
<!-- Node9&#45;&gt;Node11 -->
<g id="edge12" class="edge">
<title>Node9&#45;&gt;Node11</title>
<path fill="none" stroke="midnightblue" d="M1195.58,-121.06C1278.6,-109.86 1479.49,-82.75 1549.47,-73.31"/>
<polygon fill="midnightblue" stroke="midnightblue" points="1195.03,-117.61 1185.59,-122.41 1195.97,-124.54 1195.03,-117.61"/>
</g>
<!-- Node12 -->
<g id="node12" class="node">
<title>Node12</title>
<g id="a_node12"><a xlink:href="hash_8c.html" target="_top" xlink:title=" ">
<polygon fill="white" stroke="black" points="1416,-58.5 1416,-79.5 1468,-79.5 1468,-58.5 1416,-58.5"/>
<text text-anchor="middle" x="1442" y="-65.9" font-family="DejaVuSans" font-size="12.00">hash.c</text>
</a>
</g>
</g>
<!-- Node9&#45;&gt;Node12 -->
<g id="edge15" class="edge">
<title>Node9&#45;&gt;Node12</title>
<path fill="none" stroke="midnightblue" d="M1195.44,-118.79C1253.31,-107.34 1364.86,-85.26 1415.65,-75.21"/>
<polygon fill="midnightblue" stroke="midnightblue" points="1194.75,-115.36 1185.62,-120.73 1196.11,-122.22 1194.75,-115.36"/>
</g>
<!-- Node13 -->
<g id="node13" class="node">
<title>Node13</title>
<g id="a_node13"><a xlink:href="lexer_8c.html" target="_top" xlink:title=" ">
<polygon fill="white" stroke="black" points="2255.5,-58.5 2255.5,-79.5 2306.5,-79.5 2306.5,-58.5 2255.5,-58.5"/>
<text text-anchor="middle" x="2281" y="-65.9" font-family="DejaVuSans" font-size="12.00">lexer.c</text>
</a>
</g>
</g>
<!-- Node9&#45;&gt;Node13 -->
<g id="edge16" class="edge">
<title>Node9&#45;&gt;Node13</title>
<path fill="none" stroke="midnightblue" d="M1196,-125.05C1359.51,-120.76 2018.32,-102.39 2224,-80 2234.29,-78.88 2245.52,-77.04 2255.28,-75.25"/>
<polygon fill="midnightblue" stroke="midnightblue" points="1195.86,-121.55 1185.95,-125.31 1196.04,-128.55 1195.86,-121.55"/>
</g>
<!-- Node9&#45;&gt;Node14 -->
<g id="edge17" class="edge">
<title>Node9&#45;&gt;Node14</title>
<path fill="none" stroke="midnightblue" d="M1122.08,-123.35C984.03,-113.44 500.94,-78.75 398.27,-71.38"/>
<polygon fill="midnightblue" stroke="midnightblue" points="1121.93,-126.85 1132.15,-124.07 1122.43,-119.87 1121.93,-126.85"/>
</g>
<!-- Node19&#45;&gt;Node2 -->
<g id="edge134" class="edge">
<title>Node19&#45;&gt;Node2</title>
<path fill="none" stroke="midnightblue" d="M659.49,-646.12C594.62,-641.55 441.86,-628.25 398,-602 183.08,-473.38 93.25,-140.96 78.29,-79.76"/>
<polygon fill="midnightblue" stroke="midnightblue" points="659.26,-649.61 669.48,-646.8 659.74,-642.63 659.26,-649.61"/>
</g>
<!-- Node19&#45;&gt;Node5 -->
<g id="edge144" class="edge">
<title>Node19&#45;&gt;Node5</title>
<path fill="none" stroke="midnightblue" d="M659.04,-648.69C588.53,-648.59 418,-637.65 418,-534 418,-534 418,-534 418,-300 418,-198.84 522.12,-108.53 559.13,-79.63"/>
<polygon fill="midnightblue" stroke="midnightblue" points="659.09,-652.19 669.07,-648.63 659.05,-645.19 659.09,-652.19"/>
</g>
<!-- Node19&#45;&gt;Node8 -->
<g id="edge135" class="edge">
<title>Node19&#45;&gt;Node8</title>
<path fill="none" stroke="midnightblue" d="M659.57,-640.74C614.61,-627.68 534,-595.67 534,-534 534,-534 534,-534 534,-242 534,-129.32 647.89,-153.92 754,-116 841.66,-84.67 952.88,-74.44 1002.31,-71.29"/>
<polygon fill="midnightblue" stroke="midnightblue" points="658.8,-644.16 669.37,-643.45 660.66,-637.41 658.8,-644.16"/>
</g>
<!-- Node19&#45;&gt;Node9 -->
<g id="edge137" class="edge">
<title>Node19&#45;&gt;Node9</title>
<path fill="none" stroke="midnightblue" d="M681.13,-629.15C672.54,-606.84 660,-568.38 660,-534 660,-534 660,-534 660,-474 660,-242.08 1028.52,-153.24 1132.17,-132.84"/>
<polygon fill="midnightblue" stroke="midnightblue" points="677.88,-630.46 684.85,-638.45 684.38,-627.86 677.88,-630.46"/>
</g>
<!-- Node19&#45;&gt;Node14 -->
<g id="edge143" class="edge">
<title>Node19&#45;&gt;Node14</title>
<path fill="none" stroke="midnightblue" d="M659.25,-646.17C598.71,-641.91 463.91,-629.53 428,-602 356.36,-547.08 342,-508.27 342,-418 342,-418 342,-418 342,-358 342,-246.63 216.57,-209.55 277,-116 295.34,-87.61 335.87,-76.56 359.95,-72.4"/>
<polygon fill="midnightblue" stroke="midnightblue" points="659.1,-649.67 669.31,-646.85 659.57,-642.68 659.1,-649.67"/>
</g>
<!-- Node19&#45;&gt;Node15 -->
<g id="edge142" class="edge">
<title>Node19&#45;&gt;Node15</title>
<path fill="none" stroke="midnightblue" d="M718.94,-647.62C1022.74,-643.63 3536,-608.36 3536,-534 3536,-534 3536,-534 3536,-184 3536,-144.85 3514.79,-133.96 3480,-116 3452.58,-101.84 2995.65,-78 2868.57,-71.61"/>
<polygon fill="midnightblue" stroke="midnightblue" points="718.65,-644.12 708.7,-647.75 718.75,-651.12 718.65,-644.12"/>
</g>
<!-- Node19&#45;&gt;Node17 -->
<g id="edge139" class="edge">
<title>Node19&#45;&gt;Node17</title>
<path fill="none" stroke="midnightblue" d="M670.21,-631.33C661.89,-623.16 652.53,-612.76 646,-602 629.37,-574.6 622,-566.05 622,-534 622,-534 622,-534 622,-474 622,-379.02 702.24,-283.62 729.82,-253.63"/>
<polygon fill="midnightblue" stroke="midnightblue" points="668.07,-634.12 677.74,-638.43 672.87,-629.02 668.07,-634.12"/>
</g>
<!-- Node20 -->
<g id="node20" class="node">
<title>Node20</title>
<g id="a_node20"><a xlink:href="box_8h.html" target="_top" xlink:title=" ">
<polygon fill="white" stroke="black" points="2554,-580.5 2554,-601.5 2600,-601.5 2600,-580.5 2554,-580.5"/>
<text text-anchor="middle" x="2577" y="-587.9" font-family="DejaVuSans" font-size="12.00">box.h</text>
</a>
</g>
</g>
<!-- Node19&#45;&gt;Node20 -->
<g id="edge26" class="edge">
<title>Node19&#45;&gt;Node20</title>
<path fill="none" stroke="midnightblue" d="M718.94,-647.11C943.13,-640.46 2356.09,-598.55 2553.99,-592.68"/>
<polygon fill="midnightblue" stroke="midnightblue" points="718.5,-643.62 708.61,-647.42 718.71,-650.62 718.5,-643.62"/>
</g>
<!-- Node28 -->
<g id="node28" class="node">
<title>Node28</title>
<g id="a_node28"><a xlink:href="io__fname_8c.html" target="_top" xlink:title=" ">
<polygon fill="white" stroke="black" points="3116.5,-58.5 3116.5,-79.5 3191.5,-79.5 3191.5,-58.5 3116.5,-58.5"/>
<text text-anchor="middle" x="3154" y="-65.9" font-family="DejaVuSans" font-size="12.00">io_fname.c</text>
</a>
</g>
</g>
<!-- Node19&#45;&gt;Node28 -->
<g id="edge138" class="edge">
<title>Node19&#45;&gt;Node28</title>
<path fill="none" stroke="midnightblue" d="M718.81,-647.72C952.65,-645.49 2495.56,-629.86 2961,-602 3097.81,-593.81 3574,-671.06 3574,-534 3574,-534 3574,-534 3574,-184 3574,-143.1 3548.28,-134.87 3512,-116 3456.82,-87.3 3271.97,-75.45 3191.72,-71.58"/>
<polygon fill="midnightblue" stroke="midnightblue" points="718.64,-644.22 708.67,-647.82 718.71,-651.22 718.64,-644.22"/>
</g>
<!-- Node33 -->
<g id="node33" class="node">
<title>Node33</title>
<g id="a_node33"><a xlink:href="global_8h.html" target="_top" xlink:title=" ">
<polygon fill="white" stroke="black" points="1574,-290.5 1574,-311.5 1632,-311.5 1632,-290.5 1574,-290.5"/>
<text text-anchor="middle" x="1603" y="-297.9" font-family="DejaVuSans" font-size="12.00">global.h</text>
</a>
</g>
</g>
<!-- Node19&#45;&gt;Node33 -->
<g id="edge136" class="edge">
<title>Node19&#45;&gt;Node33</title>
<path fill="none" stroke="midnightblue" d="M718.39,-639.09C813.37,-610.52 1120.91,-519.85 1380,-464 1427.78,-453.7 1564.51,-464.52 1597,-428 1626.55,-394.78 1613.01,-335.02 1606.13,-311.69"/>
<polygon fill="midnightblue" stroke="midnightblue" points="717.18,-635.8 708.62,-642.03 719.21,-642.5 717.18,-635.8"/>
</g>
<!-- Node37 -->
<g id="node37" class="node">
<title>Node37</title>
<g id="a_node37"><a xlink:href="print_8h.html" target="_top" xlink:title=" ">
<polygon fill="white" stroke="black" points="1998,-116.5 1998,-137.5 2048,-137.5 2048,-116.5 1998,-116.5"/>
<text text-anchor="middle" x="2023" y="-123.9" font-family="DejaVuSans" font-size="12.00">print.h</text>
</a>
</g>
</g>
<!-- Node19&#45;&gt;Node37 -->
<g id="edge141" class="edge">
<title>Node19&#45;&gt;Node37</title>
<path fill="none" stroke="midnightblue" d="M718.86,-645.52C902.27,-629.6 1873.94,-535.33 2044,-312 2085.29,-257.77 2043.79,-167.17 2028.31,-137.63"/>
<polygon fill="midnightblue" stroke="midnightblue" points="718.52,-642.03 708.85,-646.38 719.12,-649.01 718.52,-642.03"/>
</g>
<!-- Node39 -->
<g id="node39" class="node">
<title>Node39</title>
<g id="a_node39"><a xlink:href="pool__init_8c.html" target="_top" xlink:title=" ">
<polygon fill="white" stroke="black" points="764.5,-406.5 764.5,-427.5 835.5,-427.5 835.5,-406.5 764.5,-406.5"/>
<text text-anchor="middle" x="800" y="-413.9" font-family="DejaVuSans" font-size="12.00">pool_init.c</text>
</a>
</g>
</g>
<!-- Node19&#45;&gt;Node39 -->
<g id="edge140" class="edge">
<title>Node19&#45;&gt;Node39</title>
<path fill="none" stroke="midnightblue" d="M698.11,-629.13C720.67,-582.38 778.54,-462.48 795.35,-427.63"/>
<polygon fill="midnightblue" stroke="midnightblue" points="694.82,-627.88 693.63,-638.41 701.13,-630.93 694.82,-627.88"/>
</g>
<!-- Node40 -->
<g id="node40" class="node">
<title>Node40</title>
<g id="a_node40"><a xlink:href="texfunc_8h.html" target="_top" xlink:title=" ">
<polygon fill="white" stroke="black" points="1876.5,-116.5 1876.5,-137.5 1941.5,-137.5 1941.5,-116.5 1876.5,-116.5"/>
<text text-anchor="middle" x="1909" y="-123.9" font-family="DejaVuSans" font-size="12.00">texfunc.h</text>
</a>
</g>
</g>
<!-- Node19&#45;&gt;Node40 -->
<g id="edge145" class="edge">
<title>Node19&#45;&gt;Node40</title>
<path fill="none" stroke="midnightblue" d="M718.81,-647.44C910.59,-643.13 1968.38,-608.63 2151,-370 2206.95,-296.89 2392.52,-463.26 2019,-174 1995.92,-156.13 1964.9,-143.99 1941.68,-136.69"/>
<polygon fill="midnightblue" stroke="midnightblue" points="718.56,-643.94 708.64,-647.66 718.71,-650.94 718.56,-643.94"/>
</g>
<!-- Node20&#45;&gt;Node5 -->
<g id="edge133" class="edge">
<title>Node20&#45;&gt;Node5</title>
<path fill="none" stroke="midnightblue" d="M2543.69,-589.84C2338.95,-588.71 1248.81,-581.03 917,-544 761.68,-526.66 572,-632.28 572,-476 572,-476 572,-476 572,-300 572,-217.74 535.25,-196.54 552,-116 554.73,-102.87 561.41,-88.89 566.31,-79.84"/>
<polygon fill="midnightblue" stroke="midnightblue" points="2543.8,-593.34 2553.82,-589.89 2543.84,-586.34 2543.8,-593.34"/>
</g>
<!-- Node20&#45;&gt;Node7 -->
<g id="edge32" class="edge">
<title>Node20&#45;&gt;Node7</title>
<path fill="none" stroke="midnightblue" d="M2543.58,-589.79C2305.74,-587.96 875.22,-571.01 756,-428 627.79,-274.2 904.87,-211.23 1081,-116 1125.62,-91.87 1183.76,-79.74 1219.45,-74.16"/>
<polygon fill="midnightblue" stroke="midnightblue" points="2543.67,-593.29 2553.7,-589.87 2543.72,-586.29 2543.67,-593.29"/>
</g>
<!-- Node20&#45;&gt;Node8 -->
<g id="edge33" class="edge">
<title>Node20&#45;&gt;Node8</title>
<path fill="none" stroke="midnightblue" d="M2543.68,-589.66C2353.96,-587.64 1408.36,-576.06 1119,-544 982.72,-528.9 941.85,-540.43 816,-486 701.75,-436.59 632.17,-337.65 698,-232 707.11,-217.37 935.78,-112.1 1007.02,-79.56"/>
<polygon fill="midnightblue" stroke="midnightblue" points="2543.82,-593.16 2553.86,-589.77 2543.9,-586.16 2543.82,-593.16"/>
</g>
<!-- Node20&#45;&gt;Node10 -->
<g id="edge30" class="edge">
<title>Node20&#45;&gt;Node10</title>
<path fill="none" stroke="midnightblue" d="M2609.85,-579.2C2682.25,-553.62 2844.79,-485.52 2788,-406 2667.03,-236.6 2520.19,-366.41 2345,-254 2339.9,-250.73 2214.32,-117.19 2179.11,-79.7"/>
<polygon fill="midnightblue" stroke="midnightblue" points="2608.56,-575.94 2600.26,-582.52 2610.86,-582.55 2608.56,-575.94"/>
</g>
<!-- Node20&#45;&gt;Node11 -->
<g id="edge31" class="edge">
<title>Node20&#45;&gt;Node11</title>
<path fill="none" stroke="midnightblue" d="M2543.57,-590.4C2432.89,-591.24 2068.52,-590.07 1772,-544 1669.53,-528.08 1645.15,-516.39 1546,-486 1460.25,-459.71 1356,-507.69 1356,-418 1356,-418 1356,-418 1356,-300 1356,-186.11 1498.53,-106.02 1553.1,-79.54"/>
<polygon fill="midnightblue" stroke="midnightblue" points="2543.8,-593.9 2553.77,-590.31 2543.74,-586.9 2543.8,-593.9"/>
</g>
<!-- Node20&#45;&gt;Node13 -->
<g id="edge34" class="edge">
<title>Node20&#45;&gt;Node13</title>
<path fill="none" stroke="midnightblue" d="M2610.13,-588.75C2706.75,-584.82 2986.93,-571.31 3074,-544 3132.49,-525.65 3194,-537.3 3194,-476 3194,-476 3194,-476 3194,-184 3194,-144.56 3172.36,-133.45 3137,-116 3055.12,-75.59 2406.13,-94.64 2316,-80 2313.01,-79.51 2309.9,-78.86 2306.84,-78.11"/>
<polygon fill="midnightblue" stroke="midnightblue" points="2609.91,-585.26 2600.05,-589.15 2610.19,-592.25 2609.91,-585.26"/>
</g>
<!-- Node20&#45;&gt;Node15 -->
<g id="edge36" class="edge">
<title>Node20&#45;&gt;Node15</title>
<path fill="none" stroke="midnightblue" d="M2610.36,-589.65C2739.53,-588.05 3206.65,-579.85 3350,-544 3420.23,-526.44 3498,-548.39 3498,-476 3498,-476 3498,-476 3498,-184 3498,-147.51 3483.57,-134.3 3452,-116 3426.57,-101.26 2992.86,-78.03 2868.87,-71.66"/>
<polygon fill="midnightblue" stroke="midnightblue" points="2610.24,-586.15 2600.29,-589.77 2610.33,-593.15 2610.24,-586.15"/>
</g>
<!-- Node20&#45;&gt;Node16 -->
<g id="edge37" class="edge">
<title>Node20&#45;&gt;Node16</title>
<path fill="none" stroke="midnightblue" d="M2610.35,-589.25C2723.73,-586.45 3093.64,-575.07 3208,-544 3273.98,-526.07 3346,-544.38 3346,-476 3346,-476 3346,-476 3346,-242 3346,-158.95 3284.35,-148.68 3208,-116 3101.1,-70.25 2801.83,-90.15 2686,-80 2662.78,-77.97 2636.4,-75.11 2617.51,-72.97"/>
<polygon fill="midnightblue" stroke="midnightblue" points="2610.11,-585.76 2600.19,-589.5 2610.28,-592.75 2610.11,-585.76"/>
</g>
<!-- Node21 -->
<g id="node21" class="node">
<title>Node21</title>
<g id="a_node21"><a xlink:href="box_8c.html" target="_top" xlink:title=" ">
<polygon fill="white" stroke="black" points="1584.5,-116.5 1584.5,-137.5 1629.5,-137.5 1629.5,-116.5 1584.5,-116.5"/>
<text text-anchor="middle" x="1607" y="-123.9" font-family="DejaVuSans" font-size="12.00">box.c</text>
</a>
</g>
</g>
<!-- Node20&#45;&gt;Node21 -->
<g id="edge27" class="edge">
<title>Node20&#45;&gt;Node21</title>
<path fill="none" stroke="midnightblue" d="M2543.65,-590.58C2419.77,-591.88 1975.28,-588.65 1629,-486 1574.12,-469.73 1544.01,-476.75 1514,-428 1450.82,-325.38 1566.03,-176.36 1598.72,-137.53"/>
<polygon fill="midnightblue" stroke="midnightblue" points="2543.7,-594.08 2553.66,-590.46 2543.62,-587.08 2543.7,-594.08"/>
</g>
<!-- Node22 -->
<g id="node22" class="node">
<title>Node22</title>
<g id="a_node22"><a xlink:href="box__copy_8c.html" target="_top" xlink:title=" ">
<polygon fill="white" stroke="black" points="2902.5,-116.5 2902.5,-137.5 2979.5,-137.5 2979.5,-116.5 2902.5,-116.5"/>
<text text-anchor="middle" x="2941" y="-123.9" font-family="DejaVuSans" font-size="12.00">box_copy.c</text>
</a>
</g>
</g>
<!-- Node20&#45;&gt;Node22 -->
<g id="edge28" class="edge">
<title>Node20&#45;&gt;Node22</title>
<path fill="none" stroke="midnightblue" d="M2610.2,-587.41C2704.13,-579.18 2965,-549.69 2965,-476 2965,-476 2965,-476 2965,-358 2965,-272.08 2948.23,-169.09 2942.73,-137.6"/>
<polygon fill="midnightblue" stroke="midnightblue" points="2609.78,-583.93 2600.11,-588.27 2610.37,-590.91 2609.78,-583.93"/>
</g>
<!-- Node23 -->
<g id="node23" class="node">
<title>Node23</title>
<g id="a_node23"><a xlink:href="box__destroy_8c.html" target="_top" xlink:title=" ">
<polygon fill="white" stroke="black" points="3036.5,-116.5 3036.5,-137.5 3127.5,-137.5 3127.5,-116.5 3036.5,-116.5"/>
<text text-anchor="middle" x="3082" y="-123.9" font-family="DejaVuSans" font-size="12.00">box_destroy.c</text>
</a>
</g>
</g>
<!-- Node20&#45;&gt;Node23 -->
<g id="edge29" class="edge">
<title>Node20&#45;&gt;Node23</title>
<path fill="none" stroke="midnightblue" d="M2610.48,-590.12C2728.5,-589.66 3118,-580.25 3118,-476 3118,-476 3118,-476 3118,-300 3118,-236.85 3094.46,-163.37 3085.45,-137.55"/>
<polygon fill="midnightblue" stroke="midnightblue" points="2610.24,-586.62 2600.25,-590.14 2610.25,-593.62 2610.24,-586.62"/>
</g>
<!-- Node24 -->
<g id="node24" class="node">
<title>Node24</title>
<g id="a_node24"><a xlink:href="mem_8c.html" target="_top" xlink:title=" ">
<polygon fill="white" stroke="black" points="2695,-58.5 2695,-79.5 2747,-79.5 2747,-58.5 2695,-58.5"/>
<text text-anchor="middle" x="2721" y="-65.9" font-family="DejaVuSans" font-size="12.00">mem.c</text>
</a>
</g>
</g>
<!-- Node20&#45;&gt;Node24 -->
<g id="edge35" class="edge">
<title>Node20&#45;&gt;Node24</title>
<path fill="none" stroke="midnightblue" d="M2610.32,-589.45C2731.52,-587.18 3148.49,-577.1 3277,-544 3345.93,-526.25 3422,-547.18 3422,-476 3422,-476 3422,-476 3422,-184 3422,-100.97 3328.92,-134.6 3248,-116 3051.16,-70.76 2995.82,-101.53 2795,-80 2779.15,-78.3 2761.44,-75.93 2747.33,-73.92"/>
<polygon fill="midnightblue" stroke="midnightblue" points="2610.11,-585.95 2600.17,-589.63 2610.24,-592.95 2610.11,-585.95"/>
</g>
<!-- Node25 -->
<g id="node25" class="node">
<title>Node25</title>
<g id="a_node25"><a xlink:href="tex__constant_8h.html" target="_top" xlink:title=" ">
<polygon fill="white" stroke="black" points="2242,-522.5 2242,-543.5 2336,-543.5 2336,-522.5 2242,-522.5"/>
<text text-anchor="middle" x="2289" y="-529.9" font-family="DejaVuSans" font-size="12.00">tex_constant.h</text>
</a>
</g>
</g>
<!-- Node20&#45;&gt;Node25 -->
<g id="edge38" class="edge">
<title>Node20&#45;&gt;Node25</title>
<path fill="none" stroke="midnightblue" d="M2544.08,-583.6C2493.06,-573.68 2394.69,-554.55 2336.15,-543.17"/>
<polygon fill="midnightblue" stroke="midnightblue" points="2543.43,-587.04 2553.92,-585.51 2544.77,-580.17 2543.43,-587.04"/>
</g>
<!-- Node25&#45;&gt;Node10 -->
<g id="edge42" class="edge">
<title>Node25&#45;&gt;Node10</title>
<path fill="none" stroke="midnightblue" d="M2289,-512.15C2289,-489.41 2289,-451.02 2289,-418 2289,-418 2289,-418 2289,-358 2289,-297.41 2197.89,-122.35 2175.11,-79.53"/>
<polygon fill="midnightblue" stroke="midnightblue" points="2285.5,-512.24 2289,-522.24 2292.5,-512.24 2285.5,-512.24"/>
</g>
<!-- Node25&#45;&gt;Node21 -->
<g id="edge39" class="edge">
<title>Node25&#45;&gt;Node21</title>
<path fill="none" stroke="midnightblue" d="M2231.72,-528.46C2062.44,-517.42 1573.38,-481.14 1527,-428 1486.95,-382.11 1579.96,-183.44 1602.31,-137.5"/>
<polygon fill="midnightblue" stroke="midnightblue" points="2231.72,-531.97 2241.92,-529.12 2232.17,-524.98 2231.72,-531.97"/>
</g>
<!-- Node25&#45;&gt;Node22 -->
<g id="edge40" class="edge">
<title>Node25&#45;&gt;Node22</title>
<path fill="none" stroke="midnightblue" d="M2346.09,-530.56C2474.5,-525.76 2775,-505.23 2775,-418 2775,-418 2775,-418 2775,-242 2775,-180.47 2853.46,-149.66 2902.5,-136.41"/>
<polygon fill="midnightblue" stroke="midnightblue" points="2345.91,-527.06 2336.04,-530.91 2346.16,-534.06 2345.91,-527.06"/>
</g>
<!-- Node25&#45;&gt;Node23 -->
<g id="edge41" class="edge">
<title>Node25&#45;&gt;Node23</title>
<path fill="none" stroke="midnightblue" d="M2346.25,-530.54C2449.11,-527.17 2660.64,-516.63 2727,-486 2907.4,-402.73 3047,-185.65 3076.31,-137.54"/>
<polygon fill="midnightblue" stroke="midnightblue" points="2345.93,-527.05 2336.05,-530.86 2346.16,-534.04 2345.93,-527.05"/>
</g>
<!-- Node26 -->
<g id="node26" class="node">
<title>Node26</title>
<g id="a_node26"><a xlink:href="eqtb_8h.html" target="_top" xlink:title=" ">
<polygon fill="white" stroke="black" points="1960,-174.5 1960,-195.5 2010,-195.5 2010,-174.5 1960,-174.5"/>
<text text-anchor="middle" x="1985" y="-181.9" font-family="DejaVuSans" font-size="12.00">eqtb.h</text>
</a>
</g>
</g>
<!-- Node25&#45;&gt;Node26 -->
<g id="edge43" class="edge">
<title>Node25&#45;&gt;Node26</title>
<path fill="none" stroke="midnightblue" d="M2273.76,-514.65C2219.31,-452.68 2035.46,-243.43 1993.55,-195.73"/>
<polygon fill="midnightblue" stroke="midnightblue" points="2271.32,-517.18 2280.55,-522.38 2276.58,-512.56 2271.32,-517.18"/>
</g>
<!-- Node29 -->
<g id="node29" class="node">
<title>Node29</title>
<g id="a_node29"><a xlink:href="tex_8h.html" target="_top" xlink:title=" ">
<polygon fill="white" stroke="black" points="1082,-464.5 1082,-485.5 1124,-485.5 1124,-464.5 1082,-464.5"/>
<text text-anchor="middle" x="1103" y="-471.9" font-family="DejaVuSans" font-size="12.00">tex.h</text>
</a>
</g>
</g>
<!-- Node25&#45;&gt;Node29 -->
<g id="edge55" class="edge">
<title>Node25&#45;&gt;Node29</title>
<path fill="none" stroke="midnightblue" d="M2231.63,-529.29C2016.08,-519.11 1260.13,-483.42 1124.06,-476.99"/>
<polygon fill="midnightblue" stroke="midnightblue" points="2231.62,-532.79 2241.78,-529.77 2231.95,-525.8 2231.62,-532.79"/>
</g>
<!-- Node26&#45;&gt;Node5 -->
<g id="edge54" class="edge">
<title>Node26&#45;&gt;Node5</title>
<path fill="none" stroke="midnightblue" d="M1949.83,-183.46C1784.06,-180.76 1079.8,-167.72 862,-138 766.7,-124.99 656.79,-94.99 603.81,-79.56"/>
<polygon fill="midnightblue" stroke="midnightblue" points="1949.9,-186.96 1959.96,-183.62 1950.01,-179.96 1949.9,-186.96"/>
</g>
<!-- Node26&#45;&gt;Node8 -->
<g id="edge47" class="edge">
<title>Node26&#45;&gt;Node8</title>
<path fill="none" stroke="midnightblue" d="M1949.56,-180.07C1880.71,-172.2 1731.27,-153.88 1682,-138 1661.57,-131.41 1659.67,-121.81 1639,-116 1582.04,-99.99 1162.54,-77.06 1053.72,-71.33"/>
<polygon fill="midnightblue" stroke="midnightblue" points="1949.56,-183.59 1959.9,-181.24 1950.35,-176.64 1949.56,-183.59"/>
</g>
<!-- Node26&#45;&gt;Node9 -->
<g id="edge48" class="edge">
<title>Node26&#45;&gt;Node9</title>
<path fill="none" stroke="midnightblue" d="M1949.78,-181.61C1811.5,-172.24 1307.4,-138.06 1185.62,-129.8"/>
<polygon fill="midnightblue" stroke="midnightblue" points="1949.61,-185.11 1959.83,-182.29 1950.09,-178.12 1949.61,-185.11"/>
</g>
<!-- Node26&#45;&gt;Node11 -->
<g id="edge45" class="edge">
<title>Node26&#45;&gt;Node11</title>
<path fill="none" stroke="midnightblue" d="M1950.15,-174.33C1868.88,-151.79 1668.39,-96.18 1598.5,-76.8"/>
<polygon fill="midnightblue" stroke="midnightblue" points="1949.34,-177.74 1959.91,-177.04 1951.21,-170.99 1949.34,-177.74"/>
</g>
<!-- Node26&#45;&gt;Node15 -->
<g id="edge52" class="edge">
<title>Node26&#45;&gt;Node15</title>
<path fill="none" stroke="midnightblue" d="M2020.46,-182.79C2108.51,-179.4 2344.02,-168.05 2538,-138 2635.54,-122.89 2748.65,-93.84 2803.22,-79.08"/>
<polygon fill="midnightblue" stroke="midnightblue" points="2020.09,-179.3 2010.23,-183.17 2020.35,-186.29 2020.09,-179.3"/>
</g>
<!-- Node26&#45;&gt;Node16 -->
<g id="edge53" class="edge">
<title>Node26&#45;&gt;Node16</title>
<path fill="none" stroke="midnightblue" d="M2020.2,-183.92C2096.49,-183 2282.28,-176.58 2432,-138 2486.07,-124.07 2545.55,-94.76 2574.38,-79.57"/>
<polygon fill="midnightblue" stroke="midnightblue" points="2020.14,-180.42 2010.17,-184.02 2020.21,-187.42 2020.14,-180.42"/>
</g>
<!-- Node26&#45;&gt;Node18 -->
<g id="edge51" class="edge">
<title>Node26&#45;&gt;Node18</title>
<path fill="none" stroke="midnightblue" d="M1950.27,-172C1926.66,-163.44 1894.94,-151.16 1868,-138 1830.48,-119.68 1788.87,-93.5 1767.47,-79.58"/>
<polygon fill="midnightblue" stroke="midnightblue" points="1949.26,-175.35 1959.86,-175.43 1951.62,-168.76 1949.26,-175.35"/>
</g>
<!-- Node26&#45;&gt;Node21 -->
<g id="edge44" class="edge">
<title>Node26&#45;&gt;Node21</title>
<path fill="none" stroke="midnightblue" d="M1949.79,-179.38C1865.68,-168.31 1658.9,-141.01 1644,-138 1639.3,-137.05 1634.32,-135.85 1629.59,-134.6"/>
<polygon fill="midnightblue" stroke="midnightblue" points="1949.52,-182.87 1959.89,-180.7 1950.43,-175.93 1949.52,-182.87"/>
</g>
<!-- Node26&#45;&gt;Node24 -->
<g id="edge50" class="edge">
<title>Node26&#45;&gt;Node24</title>
<path fill="none" stroke="midnightblue" d="M2020.21,-182.86C2101.37,-179.78 2307.65,-169.26 2477,-138 2557.65,-123.11 2650.29,-93.83 2694.65,-79.02"/>
<polygon fill="midnightblue" stroke="midnightblue" points="2019.91,-179.37 2010.05,-183.24 2020.17,-186.37 2019.91,-179.37"/>
</g>
<!-- Node27 -->
<g id="node27" class="node">
<title>Node27</title>
<g id="a_node27"><a xlink:href="eqtb__save_8c.html" target="_top" xlink:title=" ">
<polygon fill="white" stroke="black" points="2324.5,-58.5 2324.5,-79.5 2405.5,-79.5 2405.5,-58.5 2324.5,-58.5"/>
<text text-anchor="middle" x="2365" y="-65.9" font-family="DejaVuSans" font-size="12.00">eqtb_save.c</text>
</a>
</g>
</g>
<!-- Node26&#45;&gt;Node27 -->
<g id="edge46" class="edge">
<title>Node26&#45;&gt;Node27</title>
<path fill="none" stroke="midnightblue" d="M2019.93,-173.52C2093.34,-151.5 2262.69,-100.69 2333.24,-79.53"/>
<polygon fill="midnightblue" stroke="midnightblue" points="2018.8,-170.21 2010.23,-176.43 2020.81,-176.91 2018.8,-170.21"/>
</g>
<!-- Node26&#45;&gt;Node28 -->
<g id="edge49" class="edge">
<title>Node26&#45;&gt;Node28</title>
<path fill="none" stroke="midnightblue" d="M2020.31,-181.99C2115.08,-176.46 2382.9,-159.98 2605,-138 2797.82,-118.92 3027.7,-87.68 3116.46,-75.3"/>
<polygon fill="midnightblue" stroke="midnightblue" points="2019.92,-178.51 2010.14,-182.58 2020.32,-185.5 2019.92,-178.51"/>
</g>
<!-- Node29&#45;&gt;Node2 -->
<g id="edge56" class="edge">
<title>Node29&#45;&gt;Node2</title>
<path fill="none" stroke="midnightblue" d="M1071.53,-471.42C1026.98,-466.91 943.62,-455.34 878,-428 861.73,-421.22 861.01,-413.37 845,-406 791.31,-381.31 773.41,-387.6 717,-370 641.19,-346.35 622.16,-340.39 548,-312 486.25,-288.36 470.5,-282.84 411,-254 285.31,-193.07 139.82,-107.94 92.07,-79.6"/>
<polygon fill="midnightblue" stroke="midnightblue" points="1071.44,-474.92 1081.73,-472.39 1072.11,-467.96 1071.44,-474.92"/>
</g>
<!-- Node29&#45;&gt;Node5 -->
<g id="edge132" class="edge">
<title>Node29&#45;&gt;Node5</title>
<path fill="none" stroke="midnightblue" d="M1071.64,-466.33C1042.8,-458.65 999.3,-445.48 964,-428 907.55,-400.05 900.65,-381.01 847,-348 727.73,-274.62 652.26,-310.05 571,-196 545.36,-160.01 560.81,-102.37 568.46,-79.65"/>
<polygon fill="midnightblue" stroke="midnightblue" points="1070.99,-469.78 1081.55,-468.9 1072.75,-463 1070.99,-469.78"/>
</g>
<!-- Node29&#45;&gt;Node7 -->
<g id="edge57" class="edge">
<title>Node29&#45;&gt;Node7</title>
<path fill="none" stroke="midnightblue" d="M1092.94,-455.33C1081.98,-433.24 1066,-395.01 1066,-360 1066,-360 1066,-360 1066,-184 1066,-112.99 1165.78,-84.84 1219.18,-74.87"/>
<polygon fill="midnightblue" stroke="midnightblue" points="1089.85,-456.99 1097.54,-464.28 1096.08,-453.79 1089.85,-456.99"/>
</g>
<!-- Node29&#45;&gt;Node8 -->
<g id="edge58" class="edge">
<title>Node29&#45;&gt;Node8</title>
<path fill="none" stroke="midnightblue" d="M1078.83,-458.54C1068.71,-450.7 1057.94,-440.24 1052,-428 991.2,-302.75 1018.27,-123.33 1026.12,-79.79"/>
<polygon fill="midnightblue" stroke="midnightblue" points="1076.9,-461.47 1087.05,-464.49 1081,-455.8 1076.9,-461.47"/>
</g>
<!-- Node29&#45;&gt;Node9 -->
<g id="edge59" class="edge">
<title>Node29&#45;&gt;Node9</title>
<path fill="none" stroke="midnightblue" d="M1113.06,-455.33C1124.02,-433.24 1140,-395.01 1140,-360 1140,-360 1140,-360 1140,-300 1140,-237.81 1152.42,-163.74 1157.18,-137.66"/>
<polygon fill="midnightblue" stroke="midnightblue" points="1109.92,-453.79 1108.46,-464.28 1116.15,-456.99 1109.92,-453.79"/>
</g>
<!-- Node29&#45;&gt;Node14 -->
<g id="edge131" class="edge">
<title>Node29&#45;&gt;Node14</title>
<path fill="none" stroke="midnightblue" d="M1071.88,-468.21C1035.33,-460.93 973.16,-447.04 922,-428 901.51,-420.37 897.74,-415.4 878,-406 747.62,-343.92 364.27,-259.35 286,-138 265.35,-105.98 326.93,-83.96 359.79,-74.79"/>
<polygon fill="midnightblue" stroke="midnightblue" points="1071.44,-471.69 1081.93,-470.18 1072.78,-464.82 1071.44,-471.69"/>
</g>
<!-- Node29&#45;&gt;Node15 -->
<g id="edge129" class="edge">
<title>Node29&#45;&gt;Node15</title>
<path fill="none" stroke="midnightblue" d="M1134.28,-474.04C1271.16,-473.94 1830.96,-470.81 2288,-428 2636.08,-395.39 2728.32,-402.52 3066,-312 3241.52,-264.95 3355.41,-300.87 3436,-138 3440.34,-129.24 3442.64,-123.17 3436,-116 3416.57,-95.02 2991.29,-76.27 2868.76,-71.29"/>
<polygon fill="midnightblue" stroke="midnightblue" points="1134.1,-470.54 1124.1,-474.04 1134.1,-477.54 1134.1,-470.54"/>
</g>
<!-- Node29&#45;&gt;Node16 -->
<g id="edge130" class="edge">
<title>Node29&#45;&gt;Node16</title>
<path fill="none" stroke="midnightblue" d="M1134.41,-474.38C1372.09,-476.48 2884.99,-476.37 3137,-138 3197.36,-56.96 2786.61,-89.37 2686,-80 2662.8,-77.84 2636.41,-75 2617.52,-72.9"/>
<polygon fill="midnightblue" stroke="midnightblue" points="1134.1,-470.87 1124.07,-474.28 1134.03,-477.87 1134.1,-470.87"/>
</g>
<!-- Node29&#45;&gt;Node17 -->
<g id="edge61" class="edge">
<title>Node29&#45;&gt;Node17</title>
<path fill="none" stroke="midnightblue" d="M1072.51,-461.85C1052.08,-453.3 1024.85,-441.07 1002,-428 948.27,-397.26 940.37,-380.99 888,-348 860.39,-330.61 851.05,-330.25 824,-312 795.96,-293.08 765.57,-267.37 749.83,-253.62"/>
<polygon fill="midnightblue" stroke="midnightblue" points="1071.36,-465.16 1081.94,-465.74 1074.03,-458.69 1071.36,-465.16"/>
</g>
<!-- Node30 -->
<g id="node30" class="node">
<title>Node30</title>
<g id="a_node30"><a xlink:href="io_8c.html" target="_top" xlink:title=" ">
<polygon fill="white" stroke="black" points="2053.5,-58.5 2053.5,-79.5 2088.5,-79.5 2088.5,-58.5 2053.5,-58.5"/>
<text text-anchor="middle" x="2071" y="-65.9" font-family="DejaVuSans" font-size="12.00">io.c</text>
</a>
</g>
</g>
<!-- Node29&#45;&gt;Node30 -->
<g id="edge60" class="edge">
<title>Node29&#45;&gt;Node30</title>
<path fill="none" stroke="midnightblue" d="M1134.42,-469.44C1185.91,-461.81 1291.39,-445.58 1380,-428 1676.36,-369.21 1789.12,-392.07 2019,-196 2042.45,-176 2045.24,-166.49 2057,-138 2065.19,-118.17 2068.76,-93.04 2070.17,-79.57"/>
<polygon fill="midnightblue" stroke="midnightblue" points="1133.66,-466.01 1124.28,-470.93 1134.68,-472.94 1133.66,-466.01"/>
</g>
<!-- Node31 -->
<g id="node31" class="node">
<title>Node31</title>
<g id="a_node31"><a xlink:href="lexer_8h.html" target="_top" xlink:title=" ">
<polygon fill="white" stroke="black" points="1536,-406.5 1536,-427.5 1588,-427.5 1588,-406.5 1536,-406.5"/>
<text text-anchor="middle" x="1562" y="-413.9" font-family="DejaVuSans" font-size="12.00">lexer.h</text>
</a>
</g>
</g>
<!-- Node29&#45;&gt;Node31 -->
<g id="edge62" class="edge">
<title>Node29&#45;&gt;Node31</title>
<path fill="none" stroke="midnightblue" d="M1134.35,-470.18C1219.94,-459.73 1456.5,-430.87 1535.74,-421.2"/>
<polygon fill="midnightblue" stroke="midnightblue" points="1133.72,-466.73 1124.22,-471.41 1134.57,-473.67 1133.72,-466.73"/>
</g>
<!-- Node29&#45;&gt;Node37 -->
<g id="edge128" class="edge">
<title>Node29&#45;&gt;Node37</title>
<path fill="none" stroke="midnightblue" d="M1134.47,-467.05C1191.13,-454.58 1314.06,-427.67 1418,-406 1497.44,-389.44 1520.98,-398.4 1597,-370 1619.39,-361.64 1930.81,-181.43 2006.51,-137.56"/>
<polygon fill="midnightblue" stroke="midnightblue" points="1133.38,-463.71 1124.37,-469.28 1134.89,-470.54 1133.38,-463.71"/>
</g>
<!-- Node29&#45;&gt;Node39 -->
<g id="edge127" class="edge">
<title>Node29&#45;&gt;Node39</title>
<path fill="none" stroke="midnightblue" d="M1071.98,-468.54C1024.24,-460.1 929.91,-443.25 850,-428 845.39,-427.12 840.55,-426.18 835.76,-425.23"/>
<polygon fill="midnightblue" stroke="midnightblue" points="1071.53,-472.02 1081.99,-470.31 1072.75,-465.12 1071.53,-472.02"/>
</g>
<!-- Node31&#45;&gt;Node5 -->
<g id="edge126" class="edge">
<title>Node31&#45;&gt;Node5</title>
<path fill="none" stroke="midnightblue" d="M1525.78,-412.98C1415.07,-402.74 1072.98,-363.69 814,-254 797.77,-247.13 797.32,-238.66 781,-232 701.43,-199.51 656.01,-252.22 591,-196 556.86,-166.48 565.07,-104 569.81,-79.83"/>
<polygon fill="midnightblue" stroke="midnightblue" points="1525.49,-416.46 1535.76,-413.88 1526.12,-409.49 1525.49,-416.46"/>
</g>
<!-- Node31&#45;&gt;Node7 -->
<g id="edge64" class="edge">
<title>Node31&#45;&gt;Node7</title>
<path fill="none" stroke="midnightblue" d="M1542.06,-400.05C1498.87,-365.11 1394.27,-278.34 1316,-196 1292.75,-171.54 1281.96,-168.25 1267,-138 1257.46,-118.71 1253.93,-93.37 1252.67,-79.72"/>
<polygon fill="midnightblue" stroke="midnightblue" points="1539.87,-402.78 1549.85,-406.33 1544.26,-397.33 1539.87,-402.78"/>
</g>
<!-- Node31&#45;&gt;Node8 -->
<g id="edge65" class="edge">
<title>Node31&#45;&gt;Node8</title>
<path fill="none" stroke="midnightblue" d="M1532.59,-402.18C1462.75,-369.07 1282.03,-281.55 1138,-196 1098.36,-172.46 1080.21,-174.47 1052,-138 1038.21,-120.18 1031.95,-93.8 1029.44,-79.71"/>
<polygon fill="midnightblue" stroke="midnightblue" points="1531.15,-405.38 1541.69,-406.49 1534.15,-399.05 1531.15,-405.38"/>
</g>
<!-- Node31&#45;&gt;Node13 -->
<g id="edge67" class="edge">
<title>Node31&#45;&gt;Node13</title>
<path fill="none" stroke="midnightblue" d="M1598.23,-415.86C1682.52,-414 1895.88,-400.21 2044,-312 2154.65,-246.1 2249.43,-115.85 2274.51,-79.57"/>
<polygon fill="midnightblue" stroke="midnightblue" points="1598.07,-412.37 1588.13,-416.04 1598.19,-419.37 1598.07,-412.37"/>
</g>
<!-- Node31&#45;&gt;Node24 -->
<g id="edge68" class="edge">
<title>Node31&#45;&gt;Node24</title>
<path fill="none" stroke="midnightblue" d="M1598.22,-413.99C1691.3,-408.64 1946.39,-392.93 2158,-370 2613.31,-320.66 2983.16,-559.62 3162,-138 3201.16,-45.68 3201.89,-127.43 2795,-80 2779.16,-78.15 2761.46,-75.77 2747.34,-73.8"/>
<polygon fill="midnightblue" stroke="midnightblue" points="1597.98,-410.5 1588.2,-414.56 1598.38,-417.48 1597.98,-410.5"/>
</g>
<!-- Node31&#45;&gt;Node27 -->
<g id="edge63" class="edge">
<title>Node31&#45;&gt;Node27</title>
<path fill="none" stroke="midnightblue" d="M1598.11,-414.47C1766.91,-406.44 2475.09,-363.08 2597,-196 2650.02,-123.34 2485.41,-88.03 2405.68,-75.51"/>
<polygon fill="midnightblue" stroke="midnightblue" points="1597.83,-410.97 1588.01,-414.93 1598.16,-417.97 1597.83,-410.97"/>
</g>
<!-- Node31&#45;&gt;Node30 -->
<g id="edge66" class="edge">
<title>Node31&#45;&gt;Node30</title>
<path fill="none" stroke="midnightblue" d="M1598.24,-411.14C1708.97,-395.43 2038.43,-341.8 2090,-254 2124.32,-195.57 2089.16,-108.46 2075.74,-79.64"/>
<polygon fill="midnightblue" stroke="midnightblue" points="1597.65,-407.69 1588.23,-412.55 1598.62,-414.63 1597.65,-407.69"/>
</g>
<!-- Node32 -->
<g id="node32" class="node">
<title>Node32</title>
<g id="a_node32"><a xlink:href="scan_8h.html" target="_top" xlink:title=" ">
<polygon fill="white" stroke="black" points="1536,-348.5 1536,-369.5 1588,-369.5 1588,-348.5 1536,-348.5"/>
<text text-anchor="middle" x="1562" y="-355.9" font-family="DejaVuSans" font-size="12.00">scan.h</text>
</a>
</g>
</g>
<!-- Node31&#45;&gt;Node32 -->
<g id="edge69" class="edge">
<title>Node31&#45;&gt;Node32</title>
<path fill="none" stroke="midnightblue" d="M1562,-396.16C1562,-387.16 1562,-376.92 1562,-369.64"/>
<polygon fill="midnightblue" stroke="midnightblue" points="1558.5,-396.25 1562,-406.25 1565.5,-396.25 1558.5,-396.25"/>
</g>
<!-- Node32&#45;&gt;Node5 -->
<g id="edge125" class="edge">
<title>Node32&#45;&gt;Node5</title>
<path fill="none" stroke="midnightblue" d="M1525.96,-352.96C1427.58,-339.03 1146.2,-298.14 914,-254 869.29,-245.5 858.62,-240.96 814,-232 726.31,-214.39 689.63,-246.79 616,-196 576.9,-169.03 572.21,-104.46 571.89,-79.8"/>
<polygon fill="midnightblue" stroke="midnightblue" points="1525.59,-356.44 1535.98,-354.37 1526.57,-349.51 1525.59,-356.44"/>
</g>
<!-- Node32&#45;&gt;Node7 -->
<g id="edge70" class="edge">
<title>Node32&#45;&gt;Node7</title>
<path fill="none" stroke="midnightblue" d="M1536.64,-343.13C1484.08,-311.27 1361.85,-231.66 1286,-138 1271.05,-119.54 1260.31,-93.42 1255.26,-79.54"/>
<polygon fill="midnightblue" stroke="midnightblue" points="1534.95,-346.2 1545.32,-348.34 1538.55,-340.2 1534.95,-346.2"/>
</g>
<!-- Node32&#45;&gt;Node12 -->
<g id="edge122" class="edge">
<title>Node32&#45;&gt;Node12</title>
<path fill="none" stroke="midnightblue" d="M1553.43,-339.13C1536.34,-301.28 1497.04,-213.22 1467,-138 1458.79,-117.44 1450.05,-93.01 1445.39,-79.75"/>
<polygon fill="midnightblue" stroke="midnightblue" points="1550.33,-340.76 1557.64,-348.43 1556.71,-337.88 1550.33,-340.76"/>
</g>
<!-- Node32&#45;&gt;Node15 -->
<g id="edge123" class="edge">
<title>Node32&#45;&gt;Node15</title>
<path fill="none" stroke="midnightblue" d="M1598.36,-356.98C1744.37,-352.46 2301.86,-330.8 2753,-254 2939.27,-222.29 3050.51,-290.55 3162,-138 3167.77,-130.11 3168.41,-123.38 3162,-116 3124.18,-72.47 2943.5,-68.98 2868.62,-69.46"/>
<polygon fill="midnightblue" stroke="midnightblue" points="1598.07,-353.49 1588.18,-357.29 1598.28,-360.49 1598.07,-353.49"/>
</g>
<!-- Node32&#45;&gt;Node16 -->
<g id="edge124" class="edge">
<title>Node32&#45;&gt;Node16</title>
<path fill="none" stroke="midnightblue" d="M1598.22,-352.73C1683.12,-340.49 1901.66,-309.71 2085,-290 2287.54,-268.22 2862.97,-298.04 2989,-138 2995.05,-130.32 2995.5,-123.3 2989,-116 2985.88,-112.5 2704.75,-82.09 2617.52,-72.73"/>
<polygon fill="midnightblue" stroke="midnightblue" points="1597.47,-349.3 1588.07,-354.19 1598.47,-356.23 1597.47,-349.3"/>
</g>
<!-- Node32&#45;&gt;Node33 -->
<g id="edge71" class="edge">
<title>Node32&#45;&gt;Node33</title>
<path fill="none" stroke="midnightblue" d="M1575.24,-339.92C1582.12,-330.52 1590.26,-319.4 1595.94,-311.64"/>
<polygon fill="midnightblue" stroke="midnightblue" points="1572.23,-338.11 1569.14,-348.25 1577.87,-342.24 1572.23,-338.11"/>
</g>
<!-- Node33&#45;&gt;Node5 -->
<g id="edge121" class="edge">
<title>Node33&#45;&gt;Node5</title>
<path fill="none" stroke="midnightblue" d="M1563.88,-296.49C1389.84,-280.75 692.69,-216.68 651,-196 619.17,-180.22 614.54,-168.3 596,-138 584.37,-118.99 577.31,-93.54 574.09,-79.8"/>
<polygon fill="midnightblue" stroke="midnightblue" points="1563.6,-299.97 1573.88,-297.39 1564.23,-293 1563.6,-299.97"/>
</g>
<!-- Node33&#45;&gt;Node7 -->
<g id="edge74" class="edge">
<title>Node33&#45;&gt;Node7</title>
<path fill="none" stroke="midnightblue" d="M1571.18,-286.28C1515.68,-261.5 1398.98,-205.49 1314,-138 1291.48,-120.12 1269.98,-93.76 1259.19,-79.69"/>
<polygon fill="midnightblue" stroke="midnightblue" points="1569.93,-289.56 1580.49,-290.41 1572.77,-283.16 1569.93,-289.56"/>
</g>
<!-- Node33&#45;&gt;Node8 -->
<g id="edge75" class="edge">
<title>Node33&#45;&gt;Node8</title>
<path fill="none" stroke="midnightblue" d="M1563.84,-296.19C1471.52,-285.57 1236.24,-248.73 1079,-138 1057.04,-122.54 1040.53,-94.69 1032.82,-79.88"/>
<polygon fill="midnightblue" stroke="midnightblue" points="1563.53,-299.68 1573.86,-297.31 1564.31,-292.73 1563.53,-299.68"/>
</g>
<!-- Node33&#45;&gt;Node11 -->
<g id="edge72" class="edge">
<title>Node33&#45;&gt;Node11</title>
<path fill="none" stroke="midnightblue" d="M1592.94,-280.99C1577.96,-251.42 1550.64,-192.16 1542,-138 1540.46,-128.34 1539.07,-125.33 1542,-116 1546.42,-101.89 1556.88,-88.32 1564.64,-79.62"/>
<polygon fill="midnightblue" stroke="midnightblue" points="1589.97,-282.88 1597.67,-290.16 1596.19,-279.67 1589.97,-282.88"/>
</g>
<!-- Node33&#45;&gt;Node12 -->
<g id="edge76" class="edge">
<title>Node33&#45;&gt;Node12</title>
<path fill="none" stroke="midnightblue" d="M1588.41,-282.58C1581.45,-274.09 1573.11,-263.65 1566,-254 1518.23,-189.19 1465.81,-107.56 1448.17,-79.78"/>
<polygon fill="midnightblue" stroke="midnightblue" points="1585.74,-284.84 1594.82,-290.32 1591.14,-280.38 1585.74,-284.84"/>
</g>
<!-- Node33&#45;&gt;Node13 -->
<g id="edge80" class="edge">
<title>Node33&#45;&gt;Node13</title>
<path fill="none" stroke="midnightblue" d="M1641.99,-293C1716.59,-279.02 1884.09,-244.73 2019,-196 2115.13,-161.28 2223.11,-102.65 2264.05,-79.66"/>
<polygon fill="midnightblue" stroke="midnightblue" points="1641.29,-289.58 1632.1,-294.84 1642.57,-296.46 1641.29,-289.58"/>
</g>
<!-- Node33&#45;&gt;Node16 -->
<g id="edge120" class="edge">
<title>Node33&#45;&gt;Node16</title>
<path fill="none" stroke="midnightblue" d="M1642.73,-298.28C1795.38,-291.6 2339.45,-267.09 2416,-254 2507.23,-238.4 2556.07,-266.53 2616,-196 2639.11,-168.8 2633.43,-150.13 2623,-116 2618.72,-102 2608.6,-88.41 2601.07,-79.68"/>
<polygon fill="midnightblue" stroke="midnightblue" points="1642.27,-294.8 1632.43,-298.73 1642.57,-301.79 1642.27,-294.8"/>
</g>
<!-- Node33&#45;&gt;Node17 -->
<g id="edge79" class="edge">
<title>Node33&#45;&gt;Node17</title>
<path fill="none" stroke="midnightblue" d="M1563.45,-297.44C1416.96,-287.94 906.67,-254.87 771.87,-246.13"/>
<polygon fill="midnightblue" stroke="midnightblue" points="1563.55,-300.95 1573.76,-298.1 1564.01,-293.97 1563.55,-300.95"/>
</g>
<!-- Node33&#45;&gt;Node18 -->
<g id="edge119" class="edge">
<title>Node33&#45;&gt;Node18</title>
<path fill="none" stroke="midnightblue" d="M1596.78,-280.87C1583.73,-239.11 1556.29,-141.49 1576,-116 1594.6,-91.95 1684.42,-78.14 1728.5,-72.71"/>
<polygon fill="midnightblue" stroke="midnightblue" points="1593.45,-281.95 1599.82,-290.42 1600.12,-279.83 1593.45,-281.95"/>
</g>
<!-- Node33&#45;&gt;Node28 -->
<g id="edge78" class="edge">
<title>Node33&#45;&gt;Node28</title>
<path fill="none" stroke="midnightblue" d="M1642.69,-299C1769.19,-295.58 2174.1,-282.96 2508,-254 2718.56,-235.73 2773.53,-241.17 2980,-196 3062.94,-177.86 3111.9,-206.54 3162,-138 3174.63,-120.73 3165.54,-94.13 3159.03,-79.85"/>
<polygon fill="midnightblue" stroke="midnightblue" points="1642.25,-295.51 1632.35,-299.27 1642.44,-302.5 1642.25,-295.51"/>
</g>
<!-- Node33&#45;&gt;Node30 -->
<g id="edge77" class="edge">
<title>Node33&#45;&gt;Node30</title>
<path fill="none" stroke="midnightblue" d="M1634.51,-286.46C1696.13,-259.73 1836.55,-197.62 1951,-138 1968.31,-128.98 1972.05,-125.66 1989,-116 2011.27,-103.31 2037.06,-88.88 2053.68,-79.62"/>
<polygon fill="midnightblue" stroke="midnightblue" points="1633.11,-283.25 1625.32,-290.44 1635.89,-289.68 1633.11,-283.25"/>
</g>
<!-- Node34 -->
<g id="node34" class="node">
<title>Node34</title>
<g id="a_node34"><a xlink:href="error_8c.html" target="_top" xlink:title=" ">
<polygon fill="white" stroke="black" points="1884,-58.5 1884,-79.5 1934,-79.5 1934,-58.5 1884,-58.5"/>
<text text-anchor="middle" x="1909" y="-65.9" font-family="DejaVuSans" font-size="12.00">error.c</text>
</a>
</g>
</g>
<!-- Node33&#45;&gt;Node34 -->
<g id="edge73" class="edge">
<title>Node33&#45;&gt;Node34</title>
<path fill="none" stroke="midnightblue" d="M1623.96,-284.25C1682.87,-239.97 1848.76,-115.28 1896.19,-79.63"/>
<polygon fill="midnightblue" stroke="midnightblue" points="1621.65,-281.6 1615.76,-290.41 1625.86,-287.2 1621.65,-281.6"/>
</g>
<!-- Node35 -->
<g id="node35" class="node">
<title>Node35</title>
<g id="a_node35"><a xlink:href="mem_8h.html" target="_top" xlink:title=" ">
<polygon fill="white" stroke="black" points="2353.5,-232.5 2353.5,-253.5 2406.5,-253.5 2406.5,-232.5 2353.5,-232.5"/>
<text text-anchor="middle" x="2380" y="-239.9" font-family="DejaVuSans" font-size="12.00">mem.h</text>
</a>
</g>
</g>
<!-- Node33&#45;&gt;Node35 -->
<g id="edge81" class="edge">
<title>Node33&#45;&gt;Node35</title>
<path fill="none" stroke="midnightblue" d="M1642.11,-297.18C1779.43,-287.28 2237.5,-254.27 2353.25,-245.93"/>
<polygon fill="midnightblue" stroke="midnightblue" points="1641.76,-293.7 1632.04,-297.91 1642.27,-300.68 1641.76,-293.7"/>
</g>
<!-- Node35&#45;&gt;Node5 -->
<g id="edge92" class="edge">
<title>Node35&#45;&gt;Node5</title>
<path fill="none" stroke="midnightblue" d="M2343.16,-241.76C2103.03,-240.11 767.69,-229.46 689,-196 632.41,-171.94 591.13,-105.01 577.17,-79.79"/>
<polygon fill="midnightblue" stroke="midnightblue" points="2343.43,-245.26 2353.45,-241.83 2343.48,-238.26 2343.43,-245.26"/>
</g>
<!-- Node35&#45;&gt;Node7 -->
<g id="edge87" class="edge">
<title>Node35&#45;&gt;Node7</title>
<path fill="none" stroke="midnightblue" d="M2343.24,-240.8C2252.65,-237.46 2011.64,-226.21 1813,-196 1609.7,-165.08 1370.33,-102.33 1284.58,-79"/>
<polygon fill="midnightblue" stroke="midnightblue" points="2343.16,-244.3 2353.28,-241.16 2343.41,-237.3 2343.16,-244.3"/>
</g>
<!-- Node35&#45;&gt;Node8 -->
<g id="edge88" class="edge">
<title>Node35&#45;&gt;Node8</title>
<path fill="none" stroke="midnightblue" d="M2343.32,-241.65C2161.46,-239.52 1356.07,-225.21 1124,-138 1088.63,-124.71 1054.25,-95.12 1037.9,-79.72"/>
<polygon fill="midnightblue" stroke="midnightblue" points="2343.39,-245.15 2353.43,-241.76 2343.47,-238.15 2343.39,-245.15"/>
</g>
<!-- Node35&#45;&gt;Node10 -->
<g id="edge85" class="edge">
<title>Node35&#45;&gt;Node10</title>
<path fill="none" stroke="midnightblue" d="M2363.18,-224.87C2338,-199.64 2288.46,-151.63 2242,-116 2223.99,-102.19 2201.79,-88.46 2186.84,-79.64"/>
<polygon fill="midnightblue" stroke="midnightblue" points="2360.94,-227.58 2370.47,-232.22 2365.91,-222.65 2360.94,-227.58"/>
</g>
<!-- Node35&#45;&gt;Node13 -->
<g id="edge89" class="edge">
<title>Node35&#45;&gt;Node13</title>
<path fill="none" stroke="midnightblue" d="M2380.96,-222.21C2381.26,-195.69 2378.27,-148.24 2356,-116 2344.11,-98.78 2323.46,-86.82 2306.84,-79.42"/>
<polygon fill="midnightblue" stroke="midnightblue" points="2377.45,-222.39 2380.66,-232.49 2384.45,-222.59 2377.45,-222.39"/>
</g>
<!-- Node35&#45;&gt;Node16 -->
<g id="edge91" class="edge">
<title>Node35&#45;&gt;Node16</title>
<path fill="none" stroke="midnightblue" d="M2416.85,-239.64C2472.73,-235.21 2574.74,-223.48 2597,-196 2624.98,-161.47 2605.44,-102.47 2596.15,-79.53"/>
<polygon fill="midnightblue" stroke="midnightblue" points="2416.37,-236.17 2406.66,-240.41 2416.89,-243.15 2416.37,-236.17"/>
</g>
<!-- Node35&#45;&gt;Node21 -->
<g id="edge82" class="edge">
<title>Node35&#45;&gt;Node21</title>
<path fill="none" stroke="midnightblue" d="M2343.05,-239.04C2268.62,-232.86 2095.43,-217.35 1951,-196 1813.63,-175.69 1779.35,-169.03 1644,-138 1639.33,-136.93 1634.36,-135.67 1629.63,-134.41"/>
<polygon fill="midnightblue" stroke="midnightblue" points="2343.04,-242.55 2353.3,-239.88 2343.62,-235.57 2343.04,-242.55"/>
</g>
<!-- Node35&#45;&gt;Node22 -->
<g id="edge83" class="edge">
<title>Node35&#45;&gt;Node22</title>
<path fill="none" stroke="midnightblue" d="M2416.71,-235.94C2466.67,-227.58 2558.8,-211.74 2637,-196 2732.7,-176.74 2844.58,-150.84 2902.24,-137.23"/>
<polygon fill="midnightblue" stroke="midnightblue" points="2416,-232.51 2406.71,-237.61 2417.15,-239.41 2416,-232.51"/>
</g>
<!-- Node35&#45;&gt;Node23 -->
<g id="edge84" class="edge">
<title>Node35&#45;&gt;Node23</title>
<path fill="none" stroke="midnightblue" d="M2416.75,-237.15C2476.46,-229.18 2598.23,-212.53 2701,-196 2822.4,-176.47 2964.93,-150.12 3036.34,-136.67"/>
<polygon fill="midnightblue" stroke="midnightblue" points="2416.13,-233.7 2406.68,-238.49 2417.05,-240.64 2416.13,-233.7"/>
</g>
<!-- Node35&#45;&gt;Node24 -->
<g id="edge90" class="edge">
<title>Node35&#45;&gt;Node24</title>
<path fill="none" stroke="midnightblue" d="M2416.93,-239.76C2562.32,-230.59 3089.59,-193.67 3137,-138 3172.28,-96.58 3229.99,-132.27 2795,-80 2779.04,-78.08 2761.18,-75.68 2747,-73.7"/>
<polygon fill="midnightblue" stroke="midnightblue" points="2416.51,-236.28 2406.75,-240.4 2416.95,-243.27 2416.51,-236.28"/>
</g>
<!-- Node35&#45;&gt;Node27 -->
<g id="edge86" class="edge">
<title>Node35&#45;&gt;Node27</title>
<path fill="none" stroke="midnightblue" d="M2387.26,-222.7C2389.95,-214.58 2392.67,-204.96 2394,-196 2399.23,-160.83 2403.87,-150.16 2394,-116 2390.02,-102.21 2380.54,-88.58 2373.5,-79.78"/>
<polygon fill="midnightblue" stroke="midnightblue" points="2383.89,-221.73 2383.86,-232.32 2390.49,-224.06 2383.89,-221.73"/>
</g>
<!-- Node36 -->
<g id="node36" class="node">
<title>Node36</title>
<g id="a_node36"><a xlink:href="texmac_8h.html" target="_top" xlink:title=" ">
<polygon fill="white" stroke="black" points="2522.5,-174.5 2522.5,-195.5 2587.5,-195.5 2587.5,-174.5 2522.5,-174.5"/>
<text text-anchor="middle" x="2555" y="-181.9" font-family="DejaVuSans" font-size="12.00">texmac.h</text>
</a>
</g>
</g>
<!-- Node35&#45;&gt;Node36 -->
<g id="edge93" class="edge">
<title>Node35&#45;&gt;Node36</title>
<path fill="none" stroke="midnightblue" d="M2416.51,-230.32C2448.76,-220 2495.2,-205.14 2525.24,-195.52"/>
<polygon fill="midnightblue" stroke="midnightblue" points="2415.04,-227.11 2406.58,-233.49 2417.17,-233.78 2415.04,-227.11"/>
</g>
<!-- Node36&#45;&gt;Node5 -->
<g id="edge118" class="edge">
<title>Node36&#45;&gt;Node5</title>
<path fill="none" stroke="midnightblue" d="M2512.04,-183.14C2304.47,-178.93 1403.97,-159.7 1124,-138 933.63,-123.24 707.99,-90.71 615.16,-76.67"/>
<polygon fill="midnightblue" stroke="midnightblue" points="2512.16,-186.65 2522.23,-183.35 2512.31,-179.65 2512.16,-186.65"/>
</g>
<!-- Node36&#45;&gt;Node7 -->
<g id="edge96" class="edge">
<title>Node36&#45;&gt;Node7</title>
<path fill="none" stroke="midnightblue" d="M2512.35,-183.94C2363.86,-183.37 1870.31,-178.4 1718,-138 1696.87,-132.39 1694.97,-122.17 1674,-116 1600.91,-94.5 1370.63,-77.72 1284.73,-72.07"/>
<polygon fill="midnightblue" stroke="midnightblue" points="2512.43,-187.44 2522.44,-183.97 2512.45,-180.44 2512.43,-187.44"/>
</g>
<!-- Node36&#45;&gt;Node12 -->
<g id="edge97" class="edge">
<title>Node36&#45;&gt;Node12</title>
<path fill="none" stroke="midnightblue" d="M2512.18,-182.49C2403.96,-178.4 2110.84,-165.45 1868,-138 1789.02,-129.07 1548.17,-88.2 1468.15,-74.5"/>
<polygon fill="midnightblue" stroke="midnightblue" points="2512.24,-186 2522.36,-182.88 2512.5,-179 2512.24,-186"/>
</g>
<!-- Node36&#45;&gt;Node15 -->
<g id="edge116" class="edge">
<title>Node36&#45;&gt;Node15</title>
<path fill="none" stroke="midnightblue" d="M2598.06,-178.69C2666.95,-169.83 2795.9,-151.68 2812,-138 2829.55,-123.08 2834.27,-94.48 2835.54,-79.57"/>
<polygon fill="midnightblue" stroke="midnightblue" points="2597.42,-175.24 2587.95,-179.97 2598.31,-182.18 2597.42,-175.24"/>
</g>
<!-- Node36&#45;&gt;Node16 -->
<g id="edge117" class="edge">
<title>Node36&#45;&gt;Node16</title>
<path fill="none" stroke="midnightblue" d="M2561.3,-164.58C2569.3,-139.96 2582.77,-98.44 2588.85,-79.69"/>
<polygon fill="midnightblue" stroke="midnightblue" points="2557.91,-163.69 2558.15,-174.28 2564.57,-165.85 2557.91,-163.69"/>
</g>
<!-- Node36&#45;&gt;Node22 -->
<g id="edge94" class="edge">
<title>Node36&#45;&gt;Node22</title>
<path fill="none" stroke="midnightblue" d="M2597.73,-178.78C2661.19,-170.87 2784.06,-154.97 2888,-138 2892.62,-137.25 2897.46,-136.4 2902.25,-135.54"/>
<polygon fill="midnightblue" stroke="midnightblue" points="2597.19,-175.32 2587.69,-180.03 2598.05,-182.27 2597.19,-175.32"/>
</g>
<!-- Node36&#45;&gt;Node23 -->
<g id="edge95" class="edge">
<title>Node36&#45;&gt;Node23</title>
<path fill="none" stroke="midnightblue" d="M2598.05,-179.46C2676.02,-171.23 2845.81,-153.29 2989,-138 3004.34,-136.36 3021.1,-134.56 3036.12,-132.95"/>
<polygon fill="midnightblue" stroke="midnightblue" points="2597.25,-176.02 2587.67,-180.55 2597.98,-182.99 2597.25,-176.02"/>
</g>
<!-- Node36&#45;&gt;Node24 -->
<g id="edge98" class="edge">
<title>Node36&#45;&gt;Node24</title>
<path fill="none" stroke="midnightblue" d="M2577.38,-168.63C2612.1,-144.79 2677.94,-99.57 2706.82,-79.74"/>
<polygon fill="midnightblue" stroke="midnightblue" points="2575.13,-165.93 2568.87,-174.48 2579.09,-171.7 2575.13,-165.93"/>
</g>
<!-- Node36&#45;&gt;Node37 -->
<g id="edge99" class="edge">
<title>Node36&#45;&gt;Node37</title>
<path fill="none" stroke="midnightblue" d="M2512.07,-179.48C2405.75,-168.29 2132.73,-139.55 2048.28,-130.66"/>
<polygon fill="midnightblue" stroke="midnightblue" points="2511.81,-182.97 2522.12,-180.54 2512.54,-176.01 2511.81,-182.97"/>
</g>
<!-- Node37&#45;&gt;Node5 -->
<g id="edge114" class="edge">
<title>Node37&#45;&gt;Node5</title>
<path fill="none" stroke="midnightblue" d="M1987.54,-120.32C1975.92,-118.67 1962.94,-117.03 1951,-116 1815.41,-104.35 833.89,-77.14 615.14,-71.17"/>
<polygon fill="midnightblue" stroke="midnightblue" points="1987.34,-123.83 1997.75,-121.83 1988.37,-116.91 1987.34,-123.83"/>
</g>
<!-- Node37&#45;&gt;Node7 -->
<g id="edge104" class="edge">
<title>Node37&#45;&gt;Node7</title>
<path fill="none" stroke="midnightblue" d="M1987.52,-120.55C1975.9,-118.91 1962.92,-117.22 1951,-116 1934.21,-114.28 1420.88,-80.95 1284.83,-72.13"/>
<polygon fill="midnightblue" stroke="midnightblue" points="1987.33,-124.06 1997.73,-122.03 1988.34,-117.13 1987.33,-124.06"/>
</g>
<!-- Node37&#45;&gt;Node8 -->
<g id="edge105" class="edge">
<title>Node37&#45;&gt;Node8</title>
<path fill="none" stroke="midnightblue" d="M1987.53,-120.43C1975.91,-118.78 1962.93,-117.12 1951,-116 1623.15,-85.32 1539.84,-96.98 1211,-80 1154.92,-77.1 1089.18,-73.45 1053.76,-71.46"/>
<polygon fill="midnightblue" stroke="midnightblue" points="1987.34,-123.94 1997.74,-121.93 1988.35,-117.02 1987.34,-123.94"/>
</g>
<!-- Node37&#45;&gt;Node10 -->
<g id="edge100" class="edge">
<title>Node37&#45;&gt;Node10</title>
<path fill="none" stroke="midnightblue" d="M2057.68,-112.79C2084.52,-102.56 2121.05,-88.65 2145.06,-79.5"/>
<polygon fill="midnightblue" stroke="midnightblue" points="2056.37,-109.54 2048.27,-116.37 2058.86,-116.08 2056.37,-109.54"/>
</g>
<!-- Node37&#45;&gt;Node11 -->
<g id="edge101" class="edge">
<title>Node37&#45;&gt;Node11</title>
<path fill="none" stroke="midnightblue" d="M1987.47,-120.95C1975.85,-119.33 1962.88,-117.55 1951,-116 1818.27,-98.69 1658.99,-79.91 1598.72,-72.87"/>
<polygon fill="midnightblue" stroke="midnightblue" points="1987.3,-124.46 1997.69,-122.38 1988.27,-117.52 1987.3,-124.46"/>
</g>
<!-- Node37&#45;&gt;Node12 -->
<g id="edge106" class="edge">
<title>Node37&#45;&gt;Node12</title>
<path fill="none" stroke="midnightblue" d="M1987.5,-120.71C1975.88,-119.07 1962.9,-117.35 1951,-116 1769.24,-95.41 1723.11,-97.19 1541,-80 1516.23,-77.66 1488.01,-74.79 1468.05,-72.72"/>
<polygon fill="midnightblue" stroke="midnightblue" points="1987.32,-124.22 1997.72,-122.17 1988.31,-117.29 1987.32,-124.22"/>
</g>
<!-- Node37&#45;&gt;Node13 -->
<g id="edge108" class="edge">
<title>Node37&#45;&gt;Node13</title>
<path fill="none" stroke="midnightblue" d="M2058.1,-118.38C2110.72,-106.96 2208.82,-85.67 2255.31,-75.58"/>
<polygon fill="midnightblue" stroke="midnightblue" points="2057.24,-114.99 2048.21,-120.53 2058.72,-121.83 2057.24,-114.99"/>
</g>
<!-- Node37&#45;&gt;Node14 -->
<g id="edge113" class="edge">
<title>Node37&#45;&gt;Node14</title>
<path fill="none" stroke="midnightblue" d="M1987.54,-120.27C1975.93,-118.6 1962.94,-116.98 1951,-116 1316.91,-64.16 1155.47,-110.51 520,-80 476.37,-77.91 425.24,-73.89 398.14,-71.64"/>
<polygon fill="midnightblue" stroke="midnightblue" points="1987.35,-123.77 1997.75,-121.78 1988.38,-116.85 1987.35,-123.77"/>
</g>
<!-- Node37&#45;&gt;Node15 -->
<g id="edge111" class="edge">
<title>Node37&#45;&gt;Node15</title>
<path fill="none" stroke="midnightblue" d="M2058.15,-124.56C2163.86,-120.08 2488.13,-105.12 2756,-80 2771.61,-78.54 2788.87,-76.44 2803.35,-74.54"/>
<polygon fill="midnightblue" stroke="midnightblue" points="2057.89,-121.07 2048.04,-124.99 2058.18,-128.07 2057.89,-121.07"/>
</g>
<!-- Node37&#45;&gt;Node16 -->
<g id="edge112" class="edge">
<title>Node37&#45;&gt;Node16</title>
<path fill="none" stroke="midnightblue" d="M2058.31,-122.53C2163.81,-112.14 2475.02,-81.51 2566.46,-72.51"/>
<polygon fill="midnightblue" stroke="midnightblue" points="2057.79,-119.06 2048.18,-123.52 2058.48,-126.03 2057.79,-119.06"/>
</g>
<!-- Node37&#45;&gt;Node18 -->
<g id="edge110" class="edge">
<title>Node37&#45;&gt;Node18</title>
<path fill="none" stroke="midnightblue" d="M1987.52,-118.64C1931.95,-107.12 1825.81,-85.1 1777.75,-75.13"/>
<polygon fill="midnightblue" stroke="midnightblue" points="1987.1,-122.13 1997.6,-120.73 1988.52,-115.27 1987.1,-122.13"/>
</g>
<!-- Node37&#45;&gt;Node24 -->
<g id="edge109" class="edge">
<title>Node37&#45;&gt;Node24</title>
<path fill="none" stroke="midnightblue" d="M2058.31,-123.68C2151.39,-117.49 2411.16,-99.7 2627,-80 2649.88,-77.91 2675.85,-75.12 2694.68,-73.01"/>
<polygon fill="midnightblue" stroke="midnightblue" points="2057.8,-120.21 2048.05,-124.36 2058.26,-127.19 2057.8,-120.21"/>
</g>
<!-- Node37&#45;&gt;Node27 -->
<g id="edge102" class="edge">
<title>Node37&#45;&gt;Node27</title>
<path fill="none" stroke="midnightblue" d="M2058.09,-121.02C2113.16,-113.08 2223.17,-96.75 2316,-80 2318.73,-79.51 2321.55,-78.98 2324.39,-78.44"/>
<polygon fill="midnightblue" stroke="midnightblue" points="2057.55,-117.56 2048.15,-122.45 2058.54,-124.49 2057.55,-117.56"/>
</g>
<!-- Node37&#45;&gt;Node28 -->
<g id="edge107" class="edge">
<title>Node37&#45;&gt;Node28</title>
<path fill="none" stroke="midnightblue" d="M2058.24,-124.26C2226.06,-115.95 2943.29,-80.43 3116.32,-71.87"/>
<polygon fill="midnightblue" stroke="midnightblue" points="2058.02,-120.76 2048.21,-124.75 2058.37,-127.75 2058.02,-120.76"/>
</g>
<!-- Node37&#45;&gt;Node34 -->
<g id="edge103" class="edge">
<title>Node37&#45;&gt;Node34</title>
<path fill="none" stroke="midnightblue" d="M1994.17,-111.84C1973.56,-101.71 1946.39,-88.37 1928.34,-79.5"/>
<polygon fill="midnightblue" stroke="midnightblue" points="1992.88,-115.11 2003.4,-116.37 1995.97,-108.82 1992.88,-115.11"/>
</g>
<!-- Node38 -->
<g id="node38" class="node">
<title>Node38</title>
<g id="a_node38"><a xlink:href="texmath_8c.html" target="_top" xlink:title=" ">
<polygon fill="white" stroke="black" points="1962,-58.5 1962,-79.5 2030,-79.5 2030,-58.5 1962,-58.5"/>
<text text-anchor="middle" x="1996" y="-65.9" font-family="DejaVuSans" font-size="12.00">texmath.c</text>
</a>
</g>
</g>
<!-- Node37&#45;&gt;Node38 -->
<g id="edge115" class="edge">
<title>Node37&#45;&gt;Node38</title>
<path fill="none" stroke="midnightblue" d="M2013.86,-107.04C2009.42,-97.83 2004.27,-87.16 2000.65,-79.64"/>
<polygon fill="midnightblue" stroke="midnightblue" points="2010.8,-108.76 2018.3,-116.25 2017.11,-105.72 2010.8,-108.76"/>
</g>
<!-- Node40&#45;&gt;Node5 -->
<g id="edge157" class="edge">
<title>Node40&#45;&gt;Node5</title>
<path fill="none" stroke="midnightblue" d="M1866.12,-124.2C1665.01,-115.78 816.66,-80.25 615.1,-71.81"/>
<polygon fill="midnightblue" stroke="midnightblue" points="1866.14,-127.71 1876.28,-124.63 1866.44,-120.71 1866.14,-127.71"/>
</g>
<!-- Node40&#45;&gt;Node7 -->
<g id="edge150" class="edge">
<title>Node40&#45;&gt;Node7</title>
<path fill="none" stroke="midnightblue" d="M1866.31,-122.36C1743.95,-111.93 1393.76,-82.08 1284.78,-72.79"/>
<polygon fill="midnightblue" stroke="midnightblue" points="1866.16,-125.86 1876.42,-123.22 1866.75,-118.89 1866.16,-125.86"/>
</g>
<!-- Node40&#45;&gt;Node8 -->
<g id="edge151" class="edge">
<title>Node40&#45;&gt;Node8</title>
<path fill="none" stroke="midnightblue" d="M1866.21,-123.28C1710.53,-113.38 1176.9,-79.46 1053.58,-71.63"/>
<polygon fill="midnightblue" stroke="midnightblue" points="1866.13,-126.78 1876.34,-123.92 1866.58,-119.8 1866.13,-126.78"/>
</g>
<!-- Node40&#45;&gt;Node10 -->
<g id="edge146" class="edge">
<title>Node40&#45;&gt;Node10</title>
<path fill="none" stroke="midnightblue" d="M1951.58,-116.86C1999.52,-106.58 2077.06,-89.94 2125.7,-79.5"/>
<polygon fill="midnightblue" stroke="midnightblue" points="1950.57,-113.5 1941.53,-119.02 1952.04,-120.34 1950.57,-113.5"/>
</g>
<!-- Node40&#45;&gt;Node11 -->
<g id="edge147" class="edge">
<title>Node40&#45;&gt;Node11</title>
<path fill="none" stroke="midnightblue" d="M1866.33,-118.87C1795.48,-107.02 1655.73,-83.66 1598.91,-74.16"/>
<polygon fill="midnightblue" stroke="midnightblue" points="1865.83,-122.33 1876.27,-120.53 1866.98,-115.43 1865.83,-122.33"/>
</g>
<!-- Node40&#45;&gt;Node13 -->
<g id="edge153" class="edge">
<title>Node40&#45;&gt;Node13</title>
<path fill="none" stroke="midnightblue" d="M1951.66,-120.17C2012.28,-111.79 2126.77,-95.63 2224,-80 2234.32,-78.34 2245.66,-76.38 2255.49,-74.64"/>
<polygon fill="midnightblue" stroke="midnightblue" points="1951.13,-116.71 1941.7,-121.54 1952.08,-123.64 1951.13,-116.71"/>
</g>
<!-- Node40&#45;&gt;Node14 -->
<g id="edge156" class="edge">
<title>Node40&#45;&gt;Node14</title>
<path fill="none" stroke="midnightblue" d="M1866.07,-124.35C1812.81,-122.31 1719.21,-118.78 1639,-116 1141.71,-98.79 1016.93,-105.61 520,-80 476.38,-77.75 425.25,-73.8 398.14,-71.59"/>
<polygon fill="midnightblue" stroke="midnightblue" points="1866.04,-127.85 1876.17,-124.73 1866.31,-120.85 1866.04,-127.85"/>
</g>
<!-- Node40&#45;&gt;Node15 -->
<g id="edge154" class="edge">
<title>Node40&#45;&gt;Node15</title>
<path fill="none" stroke="midnightblue" d="M1951.85,-120.02C1963.85,-118.52 1976.92,-117.04 1989,-116 2329.01,-86.81 2415.99,-109.19 2756,-80 2771.62,-78.66 2788.88,-76.58 2803.37,-74.66"/>
<polygon fill="midnightblue" stroke="midnightblue" points="1951.11,-116.59 1941.63,-121.34 1952,-123.53 1951.11,-116.59"/>
</g>
<!-- Node40&#45;&gt;Node16 -->
<g id="edge155" class="edge">
<title>Node40&#45;&gt;Node16</title>
<path fill="none" stroke="midnightblue" d="M1951.88,-120.25C1963.88,-118.75 1976.94,-117.21 1989,-116 2212.29,-93.54 2483.09,-76.52 2566.39,-71.51"/>
<polygon fill="midnightblue" stroke="midnightblue" points="1951.13,-116.82 1941.66,-121.56 1952.02,-123.76 1951.13,-116.82"/>
</g>
<!-- Node40&#45;&gt;Node27 -->
<g id="edge148" class="edge">
<title>Node40&#45;&gt;Node27</title>
<path fill="none" stroke="midnightblue" d="M1951.91,-120.52C1963.91,-119.02 1976.96,-117.42 1989,-116 2134.21,-98.93 2171.55,-102.64 2316,-80 2318.74,-79.57 2321.57,-79.09 2324.41,-78.58"/>
<polygon fill="midnightblue" stroke="midnightblue" points="1951.17,-117.08 1941.68,-121.8 1952.04,-124.03 1951.17,-117.08"/>
</g>
<!-- Node40&#45;&gt;Node30 -->
<g id="edge152" class="edge">
<title>Node40&#45;&gt;Node30</title>
<path fill="none" stroke="midnightblue" d="M1946.36,-113.09C1980.01,-101.45 2027.99,-84.87 2053.49,-76.05"/>
<polygon fill="midnightblue" stroke="midnightblue" points="1945.16,-109.8 1936.85,-116.37 1947.44,-116.41 1945.16,-109.8"/>
</g>
<!-- Node40&#45;&gt;Node34 -->
<g id="edge149" class="edge">
<title>Node40&#45;&gt;Node34</title>
<path fill="none" stroke="midnightblue" d="M1909,-106.16C1909,-97.16 1909,-86.92 1909,-79.64"/>
<polygon fill="midnightblue" stroke="midnightblue" points="1905.5,-106.25 1909,-116.25 1912.5,-106.25 1905.5,-106.25"/>
</g>
<!-- Node40&#45;&gt;Node38 -->
<g id="edge158" class="edge">
<title>Node40&#45;&gt;Node38</title>
<path fill="none" stroke="midnightblue" d="M1932.66,-110.77C1948.08,-100.85 1967.73,-88.2 1981.02,-79.64"/>
<polygon fill="midnightblue" stroke="midnightblue" points="1930.67,-107.89 1924.15,-116.25 1934.46,-113.78 1930.67,-107.89"/>
</g>
</g>
</svg>
