<?xml version="1.0" encoding="UTF-8" standalone="no"?>
<!DOCTYPE svg PUBLIC "-//W3C//DTD SVG 1.1//EN"
 "http://www.w3.org/Graphics/SVG/1.1/DTD/svg11.dtd">
<!-- Generated by graphviz version 2.42.3 ()
 -->
<!-- Title: global.h Pages: 1 -->
<svg width="466pt" height="146pt"
 viewBox="0.00 0.00 465.50 146.00" xmlns="http://www.w3.org/2000/svg" xmlns:xlink="http://www.w3.org/1999/xlink">
<g id="graph0" class="graph" transform="scale(1 1) rotate(0) translate(4 142)">
<title>global.h</title>
<polygon fill="white" stroke="transparent" points="-4,4 -4,-142 461.5,-142 461.5,4 -4,4"/>
<!-- Node1 -->
<g id="node1" class="node">
<title>Node1</title>
<g id="a_node1"><a xlink:title=" ">
<polygon fill="#bfbfbf" stroke="black" points="194.5,-116.5 194.5,-137.5 252.5,-137.5 252.5,-116.5 194.5,-116.5"/>
<text text-anchor="middle" x="223.5" y="-123.9" font-family="DejaVuSans" font-size="12.00">global.h</text>
</a>
</g>
</g>
<!-- Node2 -->
<g id="node2" class="node">
<title>Node2</title>
<g id="a_node2"><a xlink:href="expand_8c.html" target="_top" xlink:title=" ">
<polygon fill="white" stroke="black" points="0,-58.5 0,-79.5 65,-79.5 65,-58.5 0,-58.5"/>
<text text-anchor="middle" x="32.5" y="-65.9" font-family="DejaVuSans" font-size="12.00">expand.c</text>
</a>
</g>
</g>
<!-- Node1&#45;&gt;Node2 -->
<g id="edge1" class="edge">
<title>Node1&#45;&gt;Node2</title>
<path fill="none" stroke="midnightblue" d="M184.56,-114.58C149.33,-104.26 98.06,-89.22 64.99,-79.52"/>
<polygon fill="midnightblue" stroke="midnightblue" points="183.91,-118.04 194.49,-117.49 185.88,-111.32 183.91,-118.04"/>
</g>
<!-- Node3 -->
<g id="node3" class="node">
<title>Node3</title>
<g id="a_node3"><a xlink:href="funcs_8c.html" target="_top" xlink:title=" ">
<polygon fill="white" stroke="black" points="83.5,-58.5 83.5,-79.5 137.5,-79.5 137.5,-58.5 83.5,-58.5"/>
<text text-anchor="middle" x="110.5" y="-65.9" font-family="DejaVuSans" font-size="12.00">funcs.c</text>
</a>
</g>
</g>
<!-- Node1&#45;&gt;Node3 -->
<g id="edge2" class="edge">
<title>Node1&#45;&gt;Node3</title>
<path fill="none" stroke="midnightblue" d="M194.92,-111.84C174.49,-101.71 147.56,-88.37 129.67,-79.5"/>
<polygon fill="midnightblue" stroke="midnightblue" points="193.56,-115.07 204.07,-116.37 196.67,-108.8 193.56,-115.07"/>
</g>
<!-- Node4 -->
<g id="node4" class="node">
<title>Node4</title>
<g id="a_node4"><a xlink:href="inputln_8c.html" target="_top" xlink:title=" ">
<polygon fill="white" stroke="black" points="156,-58.5 156,-79.5 217,-79.5 217,-58.5 156,-58.5"/>
<text text-anchor="middle" x="186.5" y="-65.9" font-family="DejaVuSans" font-size="12.00">inputln.c</text>
</a>
</g>
</g>
<!-- Node1&#45;&gt;Node4 -->
<g id="edge3" class="edge">
<title>Node1&#45;&gt;Node4</title>
<path fill="none" stroke="midnightblue" d="M211.36,-107.63C205.19,-98.29 197.94,-87.32 192.87,-79.64"/>
<polygon fill="midnightblue" stroke="midnightblue" points="208.62,-109.83 217.06,-116.25 214.46,-105.97 208.62,-109.83"/>
</g>
<!-- Node5 -->
<g id="node5" class="node">
<title>Node5</title>
<g id="a_node5"><a xlink:href="lexer_8c.html" target="_top" xlink:title=" ">
<polygon fill="white" stroke="black" points="235,-58.5 235,-79.5 286,-79.5 286,-58.5 235,-58.5"/>
<text text-anchor="middle" x="260.5" y="-65.9" font-family="DejaVuSans" font-size="12.00">lexer.c</text>
</a>
</g>
</g>
<!-- Node1&#45;&gt;Node5 -->
<g id="edge4" class="edge">
<title>Node1&#45;&gt;Node5</title>
<path fill="none" stroke="midnightblue" d="M235.64,-107.63C241.81,-98.29 249.06,-87.32 254.13,-79.64"/>
<polygon fill="midnightblue" stroke="midnightblue" points="232.54,-105.97 229.94,-116.25 238.38,-109.83 232.54,-105.97"/>
</g>
<!-- Node6 -->
<g id="node6" class="node">
<title>Node6</title>
<g id="a_node6"><a xlink:href="print_8c.html" target="_top" xlink:title=" ">
<polygon fill="white" stroke="black" points="304,-58.5 304,-79.5 353,-79.5 353,-58.5 304,-58.5"/>
<text text-anchor="middle" x="328.5" y="-65.9" font-family="DejaVuSans" font-size="12.00">print.c</text>
</a>
</g>
</g>
<!-- Node1&#45;&gt;Node6 -->
<g id="edge5" class="edge">
<title>Node1&#45;&gt;Node6</title>
<path fill="none" stroke="midnightblue" d="M250.76,-111.46C269.55,-101.44 294,-88.4 310.42,-79.64"/>
<polygon fill="midnightblue" stroke="midnightblue" points="248.97,-108.45 241.79,-116.25 252.26,-114.63 248.97,-108.45"/>
</g>
<!-- Node7 -->
<g id="node7" class="node">
<title>Node7</title>
<g id="a_node7"><a xlink:href="tex__header_8h.html" target="_top" xlink:title=" ">
<polygon fill="white" stroke="black" points="371.5,-58.5 371.5,-79.5 457.5,-79.5 457.5,-58.5 371.5,-58.5"/>
<text text-anchor="middle" x="414.5" y="-65.9" font-family="DejaVuSans" font-size="12.00">tex_header.h</text>
</a>
</g>
</g>
<!-- Node1&#45;&gt;Node7 -->
<g id="edge6" class="edge">
<title>Node1&#45;&gt;Node7</title>
<path fill="none" stroke="midnightblue" d="M262.44,-114.58C297.67,-104.26 348.94,-89.22 382.01,-79.52"/>
<polygon fill="midnightblue" stroke="midnightblue" points="261.12,-111.32 252.51,-117.49 263.09,-118.04 261.12,-111.32"/>
</g>
<!-- Node8 -->
<g id="node8" class="node">
<title>Node8</title>
<g id="a_node8"><a xlink:href="tex_8c.html" target="_top" xlink:title=" ">
<polygon fill="white" stroke="black" points="394,-0.5 394,-21.5 435,-21.5 435,-0.5 394,-0.5"/>
<text text-anchor="middle" x="414.5" y="-7.9" font-family="DejaVuSans" font-size="12.00">tex.c</text>
</a>
</g>
</g>
<!-- Node7&#45;&gt;Node8 -->
<g id="edge7" class="edge">
<title>Node7&#45;&gt;Node8</title>
<path fill="none" stroke="midnightblue" d="M414.5,-48.16C414.5,-39.16 414.5,-28.92 414.5,-21.64"/>
<polygon fill="midnightblue" stroke="midnightblue" points="411,-48.25 414.5,-58.25 418,-48.25 411,-48.25"/>
</g>
</g>
</svg>
