<?xml version="1.0" encoding="UTF-8" standalone="no"?>
<!DOCTYPE svg PUBLIC "-//W3C//DTD SVG 1.1//EN"
 "http://www.w3.org/Graphics/SVG/1.1/DTD/svg11.dtd">
<!-- Generated by graphviz version 2.44.0 ()
 -->
<!-- Title: global.h Pages: 1 -->
<svg width="2255pt" height="262pt"
 viewBox="0.00 0.00 2255.11 262.00" xmlns="http://www.w3.org/2000/svg" xmlns:xlink="http://www.w3.org/1999/xlink">
<g id="graph0" class="graph" transform="scale(1 1) rotate(0) translate(4 258)">
<title>global.h</title>
<polygon fill="white" stroke="transparent" points="-4,4 -4,-258 2251.11,-258 2251.11,4 -4,4"/>
<!-- Node1 -->
<g id="node1" class="node">
<title>Node1</title>
<g id="a_node1"><a xlink:title=" ">
<polygon fill="#bfbfbf" stroke="black" points="1052,-232.5 1052,-253.5 1110,-253.5 1110,-232.5 1052,-232.5"/>
<text text-anchor="middle" x="1081" y="-239.9" font-family="DejaVuSans" font-size="12.00">global.h</text>
</a>
</g>
</g>
<!-- Node2 -->
<g id="node2" class="node">
<title>Node2</title>
<g id="a_node2"><a xlink:href="dump_8c.html" target="_top" xlink:title=" ">
<polygon fill="white" stroke="black" points="0,-116.5 0,-137.5 56,-137.5 56,-116.5 0,-116.5"/>
<text text-anchor="middle" x="28" y="-123.9" font-family="DejaVuSans" font-size="12.00">dump.c</text>
</a>
</g>
</g>
<!-- Node1&#45;&gt;Node2 -->
<g id="edge1" class="edge">
<title>Node1&#45;&gt;Node2</title>
<path fill="none" stroke="midnightblue" d="M1041.72,-242.06C927.77,-241.73 587.55,-237.09 309,-196 215.15,-182.16 106.71,-151.69 56.38,-136.69"/>
<polygon fill="midnightblue" stroke="midnightblue" points="1041.71,-245.56 1051.72,-242.08 1041.72,-238.56 1041.71,-245.56"/>
</g>
<!-- Node3 -->
<g id="node3" class="node">
<title>Node3</title>
<g id="a_node3"><a xlink:href="eqtb_8c.html" target="_top" xlink:title=" ">
<polygon fill="white" stroke="black" points="74.5,-116.5 74.5,-137.5 123.5,-137.5 123.5,-116.5 74.5,-116.5"/>
<text text-anchor="middle" x="99" y="-123.9" font-family="DejaVuSans" font-size="12.00">eqtb.c</text>
</a>
</g>
</g>
<!-- Node1&#45;&gt;Node3 -->
<g id="edge2" class="edge">
<title>Node1&#45;&gt;Node3</title>
<path fill="none" stroke="midnightblue" d="M1041.89,-240.17C946.25,-235.44 692.99,-221.38 483,-196 326.03,-177.03 285.99,-173.89 132,-138 129.32,-137.37 126.53,-136.65 123.77,-135.89"/>
<polygon fill="midnightblue" stroke="midnightblue" points="1041.82,-243.67 1051.97,-240.66 1042.16,-236.68 1041.82,-243.67"/>
</g>
<!-- Node4 -->
<g id="node4" class="node">
<title>Node4</title>
<g id="a_node4"><a xlink:href="error_8c.html" target="_top" xlink:title=" ">
<polygon fill="white" stroke="black" points="1213,-174.5 1213,-195.5 1263,-195.5 1263,-174.5 1213,-174.5"/>
<text text-anchor="middle" x="1238" y="-181.9" font-family="DejaVuSans" font-size="12.00">error.c</text>
</a>
</g>
</g>
<!-- Node1&#45;&gt;Node4 -->
<g id="edge3" class="edge">
<title>Node1&#45;&gt;Node4</title>
<path fill="none" stroke="midnightblue" d="M1117.46,-228.99C1146.76,-218.54 1187.15,-204.14 1212.92,-194.95"/>
<polygon fill="midnightblue" stroke="midnightblue" points="1116.23,-225.72 1107.99,-232.37 1118.58,-232.31 1116.23,-225.72"/>
</g>
<!-- Node5 -->
<g id="node5" class="node">
<title>Node5</title>
<g id="a_node5"><a xlink:href="expand_8c.html" target="_top" xlink:title=" ">
<polygon fill="white" stroke="black" points="141.5,-116.5 141.5,-137.5 206.5,-137.5 206.5,-116.5 141.5,-116.5"/>
<text text-anchor="middle" x="174" y="-123.9" font-family="DejaVuSans" font-size="12.00">expand.c</text>
</a>
</g>
</g>
<!-- Node1&#45;&gt;Node5 -->
<g id="edge4" class="edge">
<title>Node1&#45;&gt;Node5</title>
<path fill="none" stroke="midnightblue" d="M1041.23,-237.93C893.66,-222.71 377.63,-168.48 215,-138 212.26,-137.49 209.44,-136.91 206.6,-136.29"/>
<polygon fill="midnightblue" stroke="midnightblue" points="1041.3,-241.45 1051.6,-239 1042.01,-234.49 1041.3,-241.45"/>
</g>
<!-- Node6 -->
<g id="node6" class="node">
<title>Node6</title>
<g id="a_node6"><a xlink:href="fonts_8c.html" target="_top" xlink:title=" ">
<polygon fill="white" stroke="black" points="224.5,-116.5 224.5,-137.5 275.5,-137.5 275.5,-116.5 224.5,-116.5"/>
<text text-anchor="middle" x="250" y="-123.9" font-family="DejaVuSans" font-size="12.00">fonts.c</text>
</a>
</g>
</g>
<!-- Node1&#45;&gt;Node6 -->
<g id="edge5" class="edge">
<title>Node1&#45;&gt;Node6</title>
<path fill="none" stroke="midnightblue" d="M1041.54,-236.33C983.67,-227.94 872.4,-211.54 778,-196 722.77,-186.91 709.45,-181.6 654,-174 490.31,-151.55 446.2,-169.45 284,-138 281.34,-137.48 278.59,-136.85 275.86,-136.16"/>
<polygon fill="midnightblue" stroke="midnightblue" points="1041.31,-239.83 1051.71,-237.8 1042.32,-232.91 1041.31,-239.83"/>
</g>
<!-- Node7 -->
<g id="node7" class="node">
<title>Node7</title>
<g id="a_node7"><a xlink:href="hash_8c.html" target="_top" xlink:title=" ">
<polygon fill="white" stroke="black" points="1281,-174.5 1281,-195.5 1333,-195.5 1333,-174.5 1281,-174.5"/>
<text text-anchor="middle" x="1307" y="-181.9" font-family="DejaVuSans" font-size="12.00">hash.c</text>
</a>
</g>
</g>
<!-- Node1&#45;&gt;Node7 -->
<g id="edge6" class="edge">
<title>Node1&#45;&gt;Node7</title>
<path fill="none" stroke="midnightblue" d="M1120.04,-233.1C1158.72,-224.17 1219.62,-209.78 1272,-196 1274.81,-195.26 1277.74,-194.46 1280.66,-193.65"/>
<polygon fill="midnightblue" stroke="midnightblue" points="1119.18,-229.71 1110.22,-235.36 1120.75,-236.53 1119.18,-229.71"/>
</g>
<!-- Node8 -->
<g id="node8" class="node">
<title>Node8</title>
<g id="a_node8"><a xlink:href="hyphen__pre_8c.html" target="_top" xlink:title=" ">
<polygon fill="white" stroke="black" points="293.5,-116.5 293.5,-137.5 382.5,-137.5 382.5,-116.5 293.5,-116.5"/>
<text text-anchor="middle" x="338" y="-123.9" font-family="DejaVuSans" font-size="12.00">hyphen_pre.c</text>
</a>
</g>
</g>
<!-- Node1&#45;&gt;Node8 -->
<g id="edge7" class="edge">
<title>Node1&#45;&gt;Node8</title>
<path fill="none" stroke="midnightblue" d="M1041.68,-234.6C997.18,-226.06 922.61,-211.21 859,-196 822.72,-187.32 814.71,-180.64 778,-174 608.02,-143.25 562.06,-162.04 391,-138 388.31,-137.62 385.55,-137.2 382.77,-136.75"/>
<polygon fill="midnightblue" stroke="midnightblue" points="1041.3,-238.1 1051.78,-236.53 1042.62,-231.22 1041.3,-238.1"/>
</g>
<!-- Node9 -->
<g id="node9" class="node">
<title>Node9</title>
<g id="a_node9"><a xlink:href="io_8c.html" target="_top" xlink:title=" ">
<polygon fill="white" stroke="black" points="1351.5,-174.5 1351.5,-195.5 1386.5,-195.5 1386.5,-174.5 1351.5,-174.5"/>
<text text-anchor="middle" x="1369" y="-181.9" font-family="DejaVuSans" font-size="12.00">io.c</text>
</a>
</g>
</g>
<!-- Node1&#45;&gt;Node9 -->
<g id="edge8" class="edge">
<title>Node1&#45;&gt;Node9</title>
<path fill="none" stroke="midnightblue" d="M1120.39,-237.31C1171.91,-230.66 1264.72,-216.94 1342,-196 1345.09,-195.16 1348.32,-194.12 1351.43,-193.03"/>
<polygon fill="midnightblue" stroke="midnightblue" points="1119.82,-233.85 1110.34,-238.58 1120.7,-240.8 1119.82,-233.85"/>
</g>
<!-- Node10 -->
<g id="node10" class="node">
<title>Node10</title>
<g id="a_node10"><a xlink:href="io__fname_8c.html" target="_top" xlink:title=" ">
<polygon fill="white" stroke="black" points="1404.5,-174.5 1404.5,-195.5 1479.5,-195.5 1479.5,-174.5 1404.5,-174.5"/>
<text text-anchor="middle" x="1442" y="-181.9" font-family="DejaVuSans" font-size="12.00">io_fname.c</text>
</a>
</g>
</g>
<!-- Node1&#45;&gt;Node10 -->
<g id="edge9" class="edge">
<title>Node1&#45;&gt;Node10</title>
<path fill="none" stroke="midnightblue" d="M1120.33,-237.14C1180.09,-229.56 1297.25,-213.92 1396,-196 1398.73,-195.5 1401.55,-194.96 1404.39,-194.4"/>
<polygon fill="midnightblue" stroke="midnightblue" points="1119.69,-233.7 1110.21,-238.42 1120.57,-240.64 1119.69,-233.7"/>
</g>
<!-- Node11 -->
<g id="node11" class="node">
<title>Node11</title>
<g id="a_node11"><a xlink:href="io__unix_8c.html" target="_top" xlink:title=" ">
<polygon fill="white" stroke="black" points="1497.5,-174.5 1497.5,-195.5 1562.5,-195.5 1562.5,-174.5 1497.5,-174.5"/>
<text text-anchor="middle" x="1530" y="-181.9" font-family="DejaVuSans" font-size="12.00">io_unix.c</text>
</a>
</g>
</g>
<!-- Node1&#45;&gt;Node11 -->
<g id="edge10" class="edge">
<title>Node1&#45;&gt;Node11</title>
<path fill="none" stroke="midnightblue" d="M1120.24,-239.24C1193.24,-233.74 1354.71,-219.85 1489,-196 1491.74,-195.51 1494.57,-194.95 1497.41,-194.35"/>
<polygon fill="midnightblue" stroke="midnightblue" points="1119.83,-235.76 1110.12,-239.99 1120.35,-242.74 1119.83,-235.76"/>
</g>
<!-- Node12 -->
<g id="node12" class="node">
<title>Node12</title>
<g id="a_node12"><a xlink:href="lexer_8c.html" target="_top" xlink:title=" ">
<polygon fill="white" stroke="black" points="400.5,-116.5 400.5,-137.5 451.5,-137.5 451.5,-116.5 400.5,-116.5"/>
<text text-anchor="middle" x="426" y="-123.9" font-family="DejaVuSans" font-size="12.00">lexer.c</text>
</a>
</g>
</g>
<!-- Node1&#45;&gt;Node12 -->
<g id="edge11" class="edge">
<title>Node1&#45;&gt;Node12</title>
<path fill="none" stroke="midnightblue" d="M1042.16,-232C1008.96,-223.22 960.04,-209.75 918,-196 891.4,-187.3 886.29,-180.2 859,-174 685.81,-134.62 635.6,-170.54 461,-138 458.02,-137.44 454.92,-136.75 451.86,-135.98"/>
<polygon fill="midnightblue" stroke="midnightblue" points="1041.37,-235.41 1051.93,-234.57 1043.15,-228.64 1041.37,-235.41"/>
</g>
<!-- Node13 -->
<g id="node13" class="node">
<title>Node13</title>
<g id="a_node13"><a xlink:href="linebreak_8c.html" target="_top" xlink:title=" ">
<polygon fill="white" stroke="black" points="470,-116.5 470,-137.5 544,-137.5 544,-116.5 470,-116.5"/>
<text text-anchor="middle" x="507" y="-123.9" font-family="DejaVuSans" font-size="12.00">linebreak.c</text>
</a>
</g>
</g>
<!-- Node1&#45;&gt;Node13 -->
<g id="edge12" class="edge">
<title>Node1&#45;&gt;Node13</title>
<path fill="none" stroke="midnightblue" d="M1046.88,-228.63C1024.16,-219.63 993.68,-207.37 967,-196 945.04,-186.64 941.07,-180.14 918,-174 760.48,-132.07 714.03,-163.36 553,-138 550.09,-137.54 547.1,-137.02 544.09,-136.45"/>
<polygon fill="midnightblue" stroke="midnightblue" points="1045.84,-231.98 1056.43,-232.4 1048.41,-225.47 1045.84,-231.98"/>
</g>
<!-- Node14 -->
<g id="node14" class="node">
<title>Node14</title>
<g id="a_node14"><a xlink:href="main__ctrl_8h.html" target="_top" xlink:title=" ">
<polygon fill="white" stroke="black" points="562,-116.5 562,-137.5 636,-137.5 636,-116.5 562,-116.5"/>
<text text-anchor="middle" x="599" y="-123.9" font-family="DejaVuSans" font-size="12.00">main_ctrl.h</text>
</a>
</g>
</g>
<!-- Node1&#45;&gt;Node14 -->
<g id="edge13" class="edge">
<title>Node1&#45;&gt;Node14</title>
<path fill="none" stroke="midnightblue" d="M1060.73,-226.22C1038.9,-210.15 1002.51,-185.95 967,-174 830.52,-128.07 787.1,-161.33 645,-138 642.1,-137.52 639.1,-136.98 636.09,-136.41"/>
<polygon fill="midnightblue" stroke="midnightblue" points="1058.78,-229.14 1068.88,-232.35 1062.99,-223.54 1058.78,-229.14"/>
</g>
<!-- Node22 -->
<g id="node22" class="node">
<title>Node22</title>
<g id="a_node22"><a xlink:href="tex__header_8h.html" target="_top" xlink:title=" ">
<polygon fill="white" stroke="black" points="2037,-58.5 2037,-79.5 2123,-79.5 2123,-58.5 2037,-58.5"/>
<text text-anchor="middle" x="2080" y="-65.9" font-family="DejaVuSans" font-size="12.00">tex_header.h</text>
</a>
</g>
</g>
<!-- Node1&#45;&gt;Node22 -->
<g id="edge58" class="edge">
<title>Node1&#45;&gt;Node22</title>
<path fill="none" stroke="midnightblue" d="M1108.9,-227.48C1125.82,-218.58 1147.77,-206.85 1167,-196 1183.66,-186.6 1185.64,-179.39 1204,-174 1259.15,-157.81 2198.07,-179.35 2238,-138 2275.34,-99.33 2182.06,-81.42 2123.38,-74.2"/>
<polygon fill="midnightblue" stroke="midnightblue" points="1106.82,-224.63 1099.59,-232.37 1110.07,-230.83 1106.82,-224.63"/>
</g>
<!-- Node24 -->
<g id="node24" class="node">
<title>Node24</title>
<g id="a_node24"><a xlink:href="mem_8h.html" target="_top" xlink:title=" ">
<polygon fill="white" stroke="black" points="1027.5,-174.5 1027.5,-195.5 1080.5,-195.5 1080.5,-174.5 1027.5,-174.5"/>
<text text-anchor="middle" x="1054" y="-181.9" font-family="DejaVuSans" font-size="12.00">mem.h</text>
</a>
</g>
</g>
<!-- Node1&#45;&gt;Node24 -->
<g id="edge26" class="edge">
<title>Node1&#45;&gt;Node24</title>
<path fill="none" stroke="midnightblue" d="M1071.86,-223.04C1067.42,-213.83 1062.27,-203.16 1058.65,-195.64"/>
<polygon fill="midnightblue" stroke="midnightblue" points="1068.8,-224.76 1076.3,-232.25 1075.11,-221.72 1068.8,-224.76"/>
</g>
<!-- Node38 -->
<g id="node38" class="node">
<title>Node38</title>
<g id="a_node38"><a xlink:href="pack_8c.html" target="_top" xlink:title=" ">
<polygon fill="white" stroke="black" points="2108.5,-116.5 2108.5,-137.5 2159.5,-137.5 2159.5,-116.5 2108.5,-116.5"/>
<text text-anchor="middle" x="2134" y="-123.9" font-family="DejaVuSans" font-size="12.00">pack.c</text>
</a>
</g>
</g>
<!-- Node1&#45;&gt;Node38 -->
<g id="edge55" class="edge">
<title>Node1&#45;&gt;Node38</title>
<path fill="none" stroke="midnightblue" d="M1089.5,-223.24C1097.98,-207.01 1112.67,-184.53 1133,-174 1226.7,-125.47 1977.16,-150 2082,-138 2090.68,-137.01 2100.07,-135.37 2108.46,-133.71"/>
<polygon fill="midnightblue" stroke="midnightblue" points="1086.28,-221.86 1085.03,-232.38 1092.57,-224.94 1086.28,-221.86"/>
</g>
<!-- Node40 -->
<g id="node40" class="node">
<title>Node40</title>
<g id="a_node40"><a xlink:href="scan_8c.html" target="_top" xlink:title=" ">
<polygon fill="white" stroke="black" points="2177.5,-116.5 2177.5,-137.5 2228.5,-137.5 2228.5,-116.5 2177.5,-116.5"/>
<text text-anchor="middle" x="2203" y="-123.9" font-family="DejaVuSans" font-size="12.00">scan.c</text>
</a>
</g>
</g>
<!-- Node1&#45;&gt;Node40 -->
<g id="edge57" class="edge">
<title>Node1&#45;&gt;Node40</title>
<path fill="none" stroke="midnightblue" d="M1099.86,-225.57C1121.33,-207.28 1155.44,-179.53 1171,-174 1380.1,-99.67 1949.95,-173.59 2169,-138 2171.67,-137.57 2174.43,-136.99 2177.17,-136.32"/>
<polygon fill="midnightblue" stroke="midnightblue" points="1097.35,-223.11 1092.05,-232.29 1101.92,-228.42 1097.35,-223.11"/>
</g>
<!-- Node41 -->
<g id="node41" class="node">
<title>Node41</title>
<g id="a_node41"><a xlink:href="print_8c.html" target="_top" xlink:title=" ">
<polygon fill="white" stroke="black" points="1580.5,-174.5 1580.5,-195.5 1629.5,-195.5 1629.5,-174.5 1580.5,-174.5"/>
<text text-anchor="middle" x="1605" y="-181.9" font-family="DejaVuSans" font-size="12.00">print.c</text>
</a>
</g>
</g>
<!-- Node1&#45;&gt;Node41 -->
<g id="edge56" class="edge">
<title>Node1&#45;&gt;Node41</title>
<path fill="none" stroke="midnightblue" d="M1120.14,-241C1203.83,-238.27 1406.03,-228.58 1572,-196 1574.7,-195.47 1577.5,-194.81 1580.27,-194.08"/>
<polygon fill="midnightblue" stroke="midnightblue" points="1119.95,-237.5 1110.07,-241.31 1120.17,-244.5 1119.95,-237.5"/>
</g>
<!-- Node15 -->
<g id="node15" class="node">
<title>Node15</title>
<g id="a_node15"><a xlink:href="align_8c.html" target="_top" xlink:title=" ">
<polygon fill="white" stroke="black" points="1026.5,-58.5 1026.5,-79.5 1077.5,-79.5 1077.5,-58.5 1026.5,-58.5"/>
<text text-anchor="middle" x="1052" y="-65.9" font-family="DejaVuSans" font-size="12.00">align.c</text>
</a>
</g>
</g>
<!-- Node14&#45;&gt;Node15 -->
<g id="edge14" class="edge">
<title>Node14&#45;&gt;Node15</title>
<path fill="none" stroke="midnightblue" d="M646.17,-115.97C804.27,-91.52 847.53,-103.18 1002,-80 1009.97,-78.8 1018.59,-77.2 1026.39,-75.62"/>
<polygon fill="midnightblue" stroke="midnightblue" points="645.42,-112.55 636.09,-117.56 646.51,-119.46 645.42,-112.55"/>
</g>
<!-- Node16 -->
<g id="node16" class="node">
<title>Node16</title>
<g id="a_node16"><a xlink:href="build__box_8c.html" target="_top" xlink:title=" ">
<polygon fill="white" stroke="black" points="567.5,-58.5 567.5,-79.5 644.5,-79.5 644.5,-58.5 567.5,-58.5"/>
<text text-anchor="middle" x="606" y="-65.9" font-family="DejaVuSans" font-size="12.00">build_box.c</text>
</a>
</g>
</g>
<!-- Node14&#45;&gt;Node16 -->
<g id="edge15" class="edge">
<title>Node14&#45;&gt;Node16</title>
<path fill="none" stroke="midnightblue" d="M601.48,-106.16C602.61,-97.16 603.89,-86.92 604.79,-79.64"/>
<polygon fill="midnightblue" stroke="midnightblue" points="597.99,-105.89 600.22,-116.25 604.93,-106.76 597.99,-105.89"/>
</g>
<!-- Node17 -->
<g id="node17" class="node">
<title>Node17</title>
<g id="a_node17"><a xlink:href="main__ctrl_8c.html" target="_top" xlink:title=" ">
<polygon fill="white" stroke="black" points="536,-0.5 536,-21.5 610,-21.5 610,-0.5 536,-0.5"/>
<text text-anchor="middle" x="573" y="-7.9" font-family="DejaVuSans" font-size="12.00">main_ctrl.c</text>
</a>
</g>
</g>
<!-- Node14&#45;&gt;Node17 -->
<g id="edge22" class="edge">
<title>Node14&#45;&gt;Node17</title>
<path fill="none" stroke="midnightblue" d="M578.51,-109.12C570.5,-101.22 562.23,-91.1 558,-80 550.43,-60.12 560.36,-35.43 567.3,-21.95"/>
<polygon fill="midnightblue" stroke="midnightblue" points="576.54,-112.07 586.28,-116.25 581.27,-106.91 576.54,-112.07"/>
</g>
<!-- Node18 -->
<g id="node18" class="node">
<title>Node18</title>
<g id="a_node18"><a xlink:href="build__math_8c.html" target="_top" xlink:title=" ">
<polygon fill="white" stroke="black" points="663,-58.5 663,-79.5 747,-79.5 747,-58.5 663,-58.5"/>
<text text-anchor="middle" x="705" y="-65.9" font-family="DejaVuSans" font-size="12.00">build_math.c</text>
</a>
</g>
</g>
<!-- Node14&#45;&gt;Node18 -->
<g id="edge17" class="edge">
<title>Node14&#45;&gt;Node18</title>
<path fill="none" stroke="midnightblue" d="M626.52,-111.46C645.49,-101.44 670.17,-88.4 686.75,-79.64"/>
<polygon fill="midnightblue" stroke="midnightblue" points="624.67,-108.48 617.46,-116.25 627.94,-114.67 624.67,-108.48"/>
</g>
<!-- Node19 -->
<g id="node19" class="node">
<title>Node19</title>
<g id="a_node19"><a xlink:href="extension_8c.html" target="_top" xlink:title=" ">
<polygon fill="white" stroke="black" points="773.5,-58.5 773.5,-79.5 850.5,-79.5 850.5,-58.5 773.5,-58.5"/>
<text text-anchor="middle" x="812" y="-65.9" font-family="DejaVuSans" font-size="12.00">extension.c</text>
</a>
</g>
</g>
<!-- Node14&#45;&gt;Node19 -->
<g id="edge19" class="edge">
<title>Node14&#45;&gt;Node19</title>
<path fill="none" stroke="midnightblue" d="M645.46,-113.79C684.64,-103.48 739.92,-88.95 775.86,-79.5"/>
<polygon fill="midnightblue" stroke="midnightblue" points="644.4,-110.45 635.62,-116.37 646.18,-117.22 644.4,-110.45"/>
</g>
<!-- Node20 -->
<g id="node20" class="node">
<title>Node20</title>
<g id="a_node20"><a xlink:href="indep__process_8c.html" target="_top" xlink:title=" ">
<polygon fill="white" stroke="black" points="407,-58.5 407,-79.5 511,-79.5 511,-58.5 407,-58.5"/>
<text text-anchor="middle" x="459" y="-65.9" font-family="DejaVuSans" font-size="12.00">indep_process.c</text>
</a>
</g>
</g>
<!-- Node14&#45;&gt;Node20 -->
<g id="edge20" class="edge">
<title>Node14&#45;&gt;Node20</title>
<path fill="none" stroke="midnightblue" d="M565.64,-112.65C540.1,-102.44 505.52,-88.61 482.75,-79.5"/>
<polygon fill="midnightblue" stroke="midnightblue" points="564.35,-115.91 574.93,-116.37 566.95,-109.41 564.35,-115.91"/>
</g>
<!-- Node21 -->
<g id="node21" class="node">
<title>Node21</title>
<g id="a_node21"><a xlink:href="page__builder_8c.html" target="_top" xlink:title=" ">
<polygon fill="white" stroke="black" points="898.5,-58.5 898.5,-79.5 993.5,-79.5 993.5,-58.5 898.5,-58.5"/>
<text text-anchor="middle" x="946" y="-65.9" font-family="DejaVuSans" font-size="12.00">page_builder.c</text>
</a>
</g>
</g>
<!-- Node14&#45;&gt;Node21 -->
<g id="edge23" class="edge">
<title>Node14&#45;&gt;Node21</title>
<path fill="none" stroke="midnightblue" d="M646.19,-115.87C741.26,-98.49 840.97,-84.19 898.41,-76.34"/>
<polygon fill="midnightblue" stroke="midnightblue" points="645.32,-112.47 636.12,-117.72 646.59,-119.35 645.32,-112.47"/>
</g>
<!-- Node14&#45;&gt;Node22 -->
<g id="edge24" class="edge">
<title>Node14&#45;&gt;Node22</title>
<path fill="none" stroke="midnightblue" d="M646,-116.14C944.59,-81.24 1830.24,-72.04 2036.67,-70.33"/>
<polygon fill="midnightblue" stroke="midnightblue" points="645.57,-112.67 636.06,-117.34 646.4,-119.62 645.57,-112.67"/>
</g>
<!-- Node16&#45;&gt;Node17 -->
<g id="edge16" class="edge">
<title>Node16&#45;&gt;Node17</title>
<path fill="none" stroke="midnightblue" d="M595.17,-49.63C589.67,-40.29 583.21,-29.32 578.68,-21.64"/>
<polygon fill="midnightblue" stroke="midnightblue" points="592.16,-51.41 600.25,-58.25 598.19,-47.85 592.16,-51.41"/>
</g>
<!-- Node18&#45;&gt;Node17 -->
<g id="edge18" class="edge">
<title>Node18&#45;&gt;Node17</title>
<path fill="none" stroke="midnightblue" d="M672.9,-54.38C648.9,-44.2 616.67,-30.53 595.4,-21.5"/>
<polygon fill="midnightblue" stroke="midnightblue" points="671.74,-57.69 682.31,-58.37 674.47,-51.25 671.74,-57.69"/>
</g>
<!-- Node20&#45;&gt;Node17 -->
<g id="edge21" class="edge">
<title>Node20&#45;&gt;Node17</title>
<path fill="none" stroke="midnightblue" d="M487.83,-53.84C508.44,-43.71 535.61,-30.37 553.66,-21.5"/>
<polygon fill="midnightblue" stroke="midnightblue" points="486.03,-50.82 478.6,-58.37 489.12,-57.11 486.03,-50.82"/>
</g>
<!-- Node23 -->
<g id="node23" class="node">
<title>Node23</title>
<g id="a_node23"><a xlink:href="tex_8c.html" target="_top" xlink:title=" ">
<polygon fill="white" stroke="black" points="2059.5,-0.5 2059.5,-21.5 2100.5,-21.5 2100.5,-0.5 2059.5,-0.5"/>
<text text-anchor="middle" x="2080" y="-7.9" font-family="DejaVuSans" font-size="12.00">tex.c</text>
</a>
</g>
</g>
<!-- Node22&#45;&gt;Node23 -->
<g id="edge25" class="edge">
<title>Node22&#45;&gt;Node23</title>
<path fill="none" stroke="midnightblue" d="M2080,-48.16C2080,-39.16 2080,-28.92 2080,-21.64"/>
<polygon fill="midnightblue" stroke="midnightblue" points="2076.5,-48.25 2080,-58.25 2083.5,-48.25 2076.5,-48.25"/>
</g>
<!-- Node24&#45;&gt;Node2 -->
<g id="edge33" class="edge">
<title>Node24&#45;&gt;Node2</title>
<path fill="none" stroke="midnightblue" d="M1017.1,-183.36C860.94,-180.47 253.83,-167.55 65,-138 62.11,-137.55 59.12,-136.95 56.15,-136.28"/>
<polygon fill="midnightblue" stroke="midnightblue" points="1017.08,-186.86 1027.14,-183.54 1017.2,-179.86 1017.08,-186.86"/>
</g>
<!-- Node24&#45;&gt;Node3 -->
<g id="edge35" class="edge">
<title>Node24&#45;&gt;Node3</title>
<path fill="none" stroke="midnightblue" d="M1017.18,-183.36C867.81,-180.59 306.63,-168.34 132,-138 129.29,-137.53 126.48,-136.9 123.71,-136.2"/>
<polygon fill="midnightblue" stroke="midnightblue" points="1017.15,-186.86 1027.22,-183.55 1017.28,-179.86 1017.15,-186.86"/>
</g>
<!-- Node24&#45;&gt;Node5 -->
<g id="edge37" class="edge">
<title>Node24&#45;&gt;Node5</title>
<path fill="none" stroke="midnightblue" d="M1016.95,-182.88C875.99,-178.47 373.22,-161.43 215,-138 212.25,-137.59 209.41,-137.09 206.57,-136.52"/>
<polygon fill="midnightblue" stroke="midnightblue" points="1017.11,-186.39 1027.21,-183.2 1017.33,-179.39 1017.11,-186.39"/>
</g>
<!-- Node24&#45;&gt;Node6 -->
<g id="edge39" class="edge">
<title>Node24&#45;&gt;Node6</title>
<path fill="none" stroke="midnightblue" d="M1017.37,-182.3C874.19,-175.59 356.64,-150.68 284,-138 281.33,-137.53 278.58,-136.93 275.85,-136.26"/>
<polygon fill="midnightblue" stroke="midnightblue" points="1017.25,-185.8 1027.41,-182.77 1017.58,-178.81 1017.25,-185.8"/>
</g>
<!-- Node24&#45;&gt;Node8 -->
<g id="edge43" class="edge">
<title>Node24&#45;&gt;Node8</title>
<path fill="none" stroke="midnightblue" d="M1017.1,-182.01C896.35,-175.42 513.75,-153.78 391,-138 388.31,-137.65 385.54,-137.26 382.76,-136.83"/>
<polygon fill="midnightblue" stroke="midnightblue" points="1017.13,-185.52 1027.3,-182.57 1017.51,-178.53 1017.13,-185.52"/>
</g>
<!-- Node24&#45;&gt;Node12 -->
<g id="edge44" class="edge">
<title>Node24&#45;&gt;Node12</title>
<path fill="none" stroke="midnightblue" d="M1017.27,-181.25C889.98,-171.71 474.76,-140.47 461,-138 458.01,-137.46 454.92,-136.78 451.86,-136.01"/>
<polygon fill="midnightblue" stroke="midnightblue" points="1017.07,-184.75 1027.3,-182 1017.59,-177.76 1017.07,-184.75"/>
</g>
<!-- Node24&#45;&gt;Node13 -->
<g id="edge45" class="edge">
<title>Node24&#45;&gt;Node13</title>
<path fill="none" stroke="midnightblue" d="M1017.14,-179.53C1001.67,-177.72 983.47,-175.66 967,-174 783.24,-155.45 735.61,-165.67 553,-138 550.09,-137.56 547.09,-137.04 544.08,-136.49"/>
<polygon fill="midnightblue" stroke="midnightblue" points="1017.02,-183.05 1027.37,-180.75 1017.85,-176.09 1017.02,-183.05"/>
</g>
<!-- Node24&#45;&gt;Node14 -->
<g id="edge46" class="edge">
<title>Node24&#45;&gt;Node14</title>
<path fill="none" stroke="midnightblue" d="M1017.18,-175.28C1014.76,-174.81 1012.35,-174.38 1010,-174 849.1,-147.89 806.03,-163.36 645,-138 642.09,-137.54 639.1,-137.02 636.09,-136.45"/>
<polygon fill="midnightblue" stroke="midnightblue" points="1016.61,-178.73 1027.11,-177.33 1018.03,-171.88 1016.61,-178.73"/>
</g>
<!-- Node24&#45;&gt;Node15 -->
<g id="edge27" class="edge">
<title>Node24&#45;&gt;Node15</title>
<path fill="none" stroke="midnightblue" d="M1070.87,-166.65C1081.83,-153.21 1093.04,-133.92 1087,-116 1082.19,-101.74 1071,-88.4 1062.56,-79.79"/>
<polygon fill="midnightblue" stroke="midnightblue" points="1068.21,-164.38 1064.23,-174.2 1073.46,-169 1068.21,-164.38"/>
</g>
<!-- Node24&#45;&gt;Node19 -->
<g id="edge38" class="edge">
<title>Node24&#45;&gt;Node19</title>
<path fill="none" stroke="midnightblue" d="M1047.86,-164.76C1041.91,-149.25 1031.36,-128.09 1015,-116 989.28,-96.99 902.08,-82.28 850.72,-75.01"/>
<polygon fill="midnightblue" stroke="midnightblue" points="1044.64,-166.15 1051.26,-174.42 1051.24,-163.83 1044.64,-166.15"/>
</g>
<!-- Node24&#45;&gt;Node21 -->
<g id="edge51" class="edge">
<title>Node24&#45;&gt;Node21</title>
<path fill="none" stroke="midnightblue" d="M1057.61,-164.18C1059.15,-149.57 1058.76,-129.9 1049,-116 1035.95,-97.41 1013.58,-86.22 993.01,-79.54"/>
<polygon fill="midnightblue" stroke="midnightblue" points="1054.13,-163.8 1056.18,-174.19 1061.06,-164.79 1054.13,-163.8"/>
</g>
<!-- Node24&#45;&gt;Node22 -->
<g id="edge54" class="edge">
<title>Node24&#45;&gt;Node22</title>
<path fill="none" stroke="midnightblue" d="M1090.59,-174.69C1092.07,-174.43 1093.55,-174.2 1095,-174 1148.19,-166.6 2018.83,-171.26 2061,-138 2078.71,-124.03 2080.78,-95.01 2080.54,-79.8"/>
<polygon fill="midnightblue" stroke="midnightblue" points="1089.88,-171.26 1080.76,-176.65 1091.25,-178.13 1089.88,-171.26"/>
</g>
<!-- Node25 -->
<g id="node25" class="node">
<title>Node25</title>
<g id="a_node25"><a xlink:href="box_8c.html" target="_top" xlink:title=" ">
<polygon fill="white" stroke="black" points="1139.5,-116.5 1139.5,-137.5 1184.5,-137.5 1184.5,-116.5 1139.5,-116.5"/>
<text text-anchor="middle" x="1162" y="-123.9" font-family="DejaVuSans" font-size="12.00">box.c</text>
</a>
</g>
</g>
<!-- Node24&#45;&gt;Node25 -->
<g id="edge28" class="edge">
<title>Node24&#45;&gt;Node25</title>
<path fill="none" stroke="midnightblue" d="M1081.78,-169.6C1101.14,-159.56 1126.44,-146.44 1143.4,-137.64"/>
<polygon fill="midnightblue" stroke="midnightblue" points="1080.08,-166.54 1072.81,-174.25 1083.3,-172.75 1080.08,-166.54"/>
</g>
<!-- Node26 -->
<g id="node26" class="node">
<title>Node26</title>
<g id="a_node26"><a xlink:href="box__copy_8c.html" target="_top" xlink:title=" ">
<polygon fill="white" stroke="black" points="1202.5,-116.5 1202.5,-137.5 1279.5,-137.5 1279.5,-116.5 1202.5,-116.5"/>
<text text-anchor="middle" x="1241" y="-123.9" font-family="DejaVuSans" font-size="12.00">box_copy.c</text>
</a>
</g>
</g>
<!-- Node24&#45;&gt;Node26 -->
<g id="edge29" class="edge">
<title>Node24&#45;&gt;Node26</title>
<path fill="none" stroke="midnightblue" d="M1090.5,-173.07C1125.04,-162.73 1176.36,-147.36 1209.25,-137.51"/>
<polygon fill="midnightblue" stroke="midnightblue" points="1089.37,-169.75 1080.79,-175.98 1091.38,-176.46 1089.37,-169.75"/>
</g>
<!-- Node27 -->
<g id="node27" class="node">
<title>Node27</title>
<g id="a_node27"><a xlink:href="box__destroy_8c.html" target="_top" xlink:title=" ">
<polygon fill="white" stroke="black" points="1297.5,-116.5 1297.5,-137.5 1388.5,-137.5 1388.5,-116.5 1297.5,-116.5"/>
<text text-anchor="middle" x="1343" y="-123.9" font-family="DejaVuSans" font-size="12.00">box_destroy.c</text>
</a>
</g>
</g>
<!-- Node24&#45;&gt;Node27 -->
<g id="edge30" class="edge">
<title>Node24&#45;&gt;Node27</title>
<path fill="none" stroke="midnightblue" d="M1090.64,-174.96C1092.11,-174.63 1093.57,-174.31 1095,-174 1097.48,-173.47 1226.58,-149.55 1297.5,-136.42"/>
<polygon fill="midnightblue" stroke="midnightblue" points="1089.81,-171.56 1080.86,-177.22 1091.39,-178.38 1089.81,-171.56"/>
</g>
<!-- Node28 -->
<g id="node28" class="node">
<title>Node28</title>
<g id="a_node28"><a xlink:href="box__display_8c.html" target="_top" xlink:title=" ">
<polygon fill="white" stroke="black" points="1406.5,-116.5 1406.5,-137.5 1495.5,-137.5 1495.5,-116.5 1406.5,-116.5"/>
<text text-anchor="middle" x="1451" y="-123.9" font-family="DejaVuSans" font-size="12.00">box_display.c</text>
</a>
</g>
</g>
<!-- Node24&#45;&gt;Node28 -->
<g id="edge31" class="edge">
<title>Node24&#45;&gt;Node28</title>
<path fill="none" stroke="midnightblue" d="M1090.61,-174.84C1092.09,-174.54 1093.56,-174.26 1095,-174 1228.45,-149.89 1263.96,-158.58 1398,-138 1400.68,-137.59 1403.44,-137.14 1406.22,-136.67"/>
<polygon fill="midnightblue" stroke="midnightblue" points="1089.84,-171.42 1080.81,-176.97 1091.32,-178.27 1089.84,-171.42"/>
</g>
<!-- Node29 -->
<g id="node29" class="node">
<title>Node29</title>
<g id="a_node29"><a xlink:href="debug_8c.html" target="_top" xlink:title=" ">
<polygon fill="white" stroke="black" points="1513.5,-116.5 1513.5,-137.5 1572.5,-137.5 1572.5,-116.5 1513.5,-116.5"/>
<text text-anchor="middle" x="1543" y="-123.9" font-family="DejaVuSans" font-size="12.00">debug.c</text>
</a>
</g>
</g>
<!-- Node24&#45;&gt;Node29 -->
<g id="edge32" class="edge">
<title>Node24&#45;&gt;Node29</title>
<path fill="none" stroke="midnightblue" d="M1090.6,-174.78C1092.08,-174.5 1093.55,-174.24 1095,-174 1275.49,-144.24 1324.79,-169.39 1505,-138 1507.69,-137.53 1510.46,-136.97 1513.23,-136.34"/>
<polygon fill="midnightblue" stroke="midnightblue" points="1089.85,-171.36 1080.79,-176.85 1091.29,-178.21 1089.85,-171.36"/>
</g>
<!-- Node30 -->
<g id="node30" class="node">
<title>Node30</title>
<g id="a_node30"><a xlink:href="dviout_8c.html" target="_top" xlink:title=" ">
<polygon fill="white" stroke="black" points="1591,-116.5 1591,-137.5 1649,-137.5 1649,-116.5 1591,-116.5"/>
<text text-anchor="middle" x="1620" y="-123.9" font-family="DejaVuSans" font-size="12.00">dviout.c</text>
</a>
</g>
</g>
<!-- Node24&#45;&gt;Node30 -->
<g id="edge34" class="edge">
<title>Node24&#45;&gt;Node30</title>
<path fill="none" stroke="midnightblue" d="M1090.6,-174.76C1092.08,-174.48 1093.55,-174.23 1095,-174 1309.38,-140.17 1367.93,-173.77 1582,-138 1584.83,-137.53 1587.75,-136.94 1590.66,-136.29"/>
<polygon fill="midnightblue" stroke="midnightblue" points="1089.86,-171.34 1080.78,-176.8 1091.28,-178.19 1089.86,-171.34"/>
</g>
<!-- Node31 -->
<g id="node31" class="node">
<title>Node31</title>
<g id="a_node31"><a xlink:href="eqtb__save_8c.html" target="_top" xlink:title=" ">
<polygon fill="white" stroke="black" points="1667.5,-116.5 1667.5,-137.5 1748.5,-137.5 1748.5,-116.5 1667.5,-116.5"/>
<text text-anchor="middle" x="1708" y="-123.9" font-family="DejaVuSans" font-size="12.00">eqtb_save.c</text>
</a>
</g>
</g>
<!-- Node24&#45;&gt;Node31 -->
<g id="edge36" class="edge">
<title>Node24&#45;&gt;Node31</title>
<path fill="none" stroke="midnightblue" d="M1090.6,-174.74C1092.08,-174.47 1093.55,-174.22 1095,-174 1342.86,-136.15 1409.4,-170.66 1658,-138 1661.07,-137.6 1664.24,-137.12 1667.42,-136.59"/>
<polygon fill="midnightblue" stroke="midnightblue" points="1089.86,-171.32 1080.77,-176.76 1091.27,-178.17 1089.86,-171.32"/>
</g>
<!-- Node32 -->
<g id="node32" class="node">
<title>Node32</title>
<g id="a_node32"><a xlink:href="hyphen_8c.html" target="_top" xlink:title=" ">
<polygon fill="white" stroke="black" points="1766.5,-116.5 1766.5,-137.5 1831.5,-137.5 1831.5,-116.5 1766.5,-116.5"/>
<text text-anchor="middle" x="1799" y="-123.9" font-family="DejaVuSans" font-size="12.00">hyphen.c</text>
</a>
</g>
</g>
<!-- Node24&#45;&gt;Node32 -->
<g id="edge40" class="edge">
<title>Node24&#45;&gt;Node32</title>
<path fill="none" stroke="midnightblue" d="M1090.59,-174.72C1092.08,-174.46 1093.55,-174.21 1095,-174 1386.93,-130.85 1466.07,-181.15 1758,-138 1760.75,-137.59 1763.59,-137.09 1766.43,-136.52"/>
<polygon fill="midnightblue" stroke="midnightblue" points="1089.87,-171.3 1080.77,-176.72 1091.26,-178.16 1089.87,-171.3"/>
</g>
<!-- Node33 -->
<g id="node33" class="node">
<title>Node33</title>
<g id="a_node33"><a xlink:href="hyphen__init_8c.html" target="_top" xlink:title=" ">
<polygon fill="white" stroke="black" points="1850,-116.5 1850,-137.5 1938,-137.5 1938,-116.5 1850,-116.5"/>
<text text-anchor="middle" x="1894" y="-123.9" font-family="DejaVuSans" font-size="12.00">hyphen_init.c</text>
</a>
</g>
</g>
<!-- Node24&#45;&gt;Node33 -->
<g id="edge41" class="edge">
<title>Node24&#45;&gt;Node33</title>
<path fill="none" stroke="midnightblue" d="M1090.59,-174.71C1092.08,-174.45 1093.55,-174.21 1095,-174 1423.52,-126.46 1511.34,-176.87 1841,-138 1843.88,-137.66 1846.84,-137.26 1849.82,-136.81"/>
<polygon fill="midnightblue" stroke="midnightblue" points="1089.87,-171.28 1080.76,-176.7 1091.26,-178.14 1089.87,-171.28"/>
</g>
<!-- Node34 -->
<g id="node34" class="node">
<title>Node34</title>
<g id="a_node34"><a xlink:href="hyphen__post_8c.html" target="_top" xlink:title=" ">
<polygon fill="white" stroke="black" points="1956.5,-116.5 1956.5,-137.5 2051.5,-137.5 2051.5,-116.5 1956.5,-116.5"/>
<text text-anchor="middle" x="2004" y="-123.9" font-family="DejaVuSans" font-size="12.00">hyphen_post.c</text>
</a>
</g>
</g>
<!-- Node24&#45;&gt;Node34 -->
<g id="edge42" class="edge">
<title>Node24&#45;&gt;Node34</title>
<path fill="none" stroke="midnightblue" d="M1090.59,-174.7C1092.07,-174.44 1093.55,-174.21 1095,-174 1470.26,-120.84 1570.2,-178.83 1947,-138 1950.1,-137.66 1953.28,-137.26 1956.48,-136.82"/>
<polygon fill="midnightblue" stroke="midnightblue" points="1089.87,-171.27 1080.76,-176.67 1091.25,-178.13 1089.87,-171.27"/>
</g>
<!-- Node35 -->
<g id="node35" class="node">
<title>Node35</title>
<g id="a_node35"><a xlink:href="math__formula_8c.html" target="_top" xlink:title=" ">
<polygon fill="white" stroke="black" points="654,-116.5 654,-137.5 752,-137.5 752,-116.5 654,-116.5"/>
<text text-anchor="middle" x="703" y="-123.9" font-family="DejaVuSans" font-size="12.00">math_formula.c</text>
</a>
</g>
</g>
<!-- Node24&#45;&gt;Node35 -->
<g id="edge47" class="edge">
<title>Node24&#45;&gt;Node35</title>
<path fill="none" stroke="midnightblue" d="M1017.16,-175.4C1014.74,-174.91 1012.34,-174.43 1010,-174 900.06,-153.59 871.44,-155.5 761,-138 758.07,-137.54 755.07,-137.05 752.03,-136.55"/>
<polygon fill="midnightblue" stroke="midnightblue" points="1016.57,-178.85 1027.08,-177.52 1018.03,-172.01 1016.57,-178.85"/>
</g>
<!-- Node36 -->
<g id="node36" class="node">
<title>Node36</title>
<g id="a_node36"><a xlink:href="mem_8c.html" target="_top" xlink:title=" ">
<polygon fill="white" stroke="black" points="770,-116.5 770,-137.5 822,-137.5 822,-116.5 770,-116.5"/>
<text text-anchor="middle" x="796" y="-123.9" font-family="DejaVuSans" font-size="12.00">mem.c</text>
</a>
</g>
</g>
<!-- Node24&#45;&gt;Node36 -->
<g id="edge48" class="edge">
<title>Node24&#45;&gt;Node36</title>
<path fill="none" stroke="midnightblue" d="M1017.61,-175.66C1015.04,-175.09 1012.48,-174.53 1010,-174 930.65,-157.01 909.85,-157.16 831,-138 828.18,-137.31 825.24,-136.55 822.31,-135.76"/>
<polygon fill="midnightblue" stroke="midnightblue" points="1016.98,-179.1 1027.5,-177.86 1018.5,-172.27 1016.98,-179.1"/>
</g>
<!-- Node37 -->
<g id="node37" class="node">
<title>Node37</title>
<g id="a_node37"><a xlink:href="mmode_8c.html" target="_top" xlink:title=" ">
<polygon fill="white" stroke="black" points="840.5,-116.5 840.5,-137.5 905.5,-137.5 905.5,-116.5 840.5,-116.5"/>
<text text-anchor="middle" x="873" y="-123.9" font-family="DejaVuSans" font-size="12.00">mmode.c</text>
</a>
</g>
</g>
<!-- Node24&#45;&gt;Node37 -->
<g id="edge49" class="edge">
<title>Node24&#45;&gt;Node37</title>
<path fill="none" stroke="midnightblue" d="M1017.46,-172.69C984.06,-162.36 935.21,-147.25 903.76,-137.52"/>
<polygon fill="midnightblue" stroke="midnightblue" points="1016.71,-176.12 1027.29,-175.74 1018.77,-169.44 1016.71,-176.12"/>
</g>
<!-- Node24&#45;&gt;Node38 -->
<g id="edge50" class="edge">
<title>Node24&#45;&gt;Node38</title>
<path fill="none" stroke="midnightblue" d="M1090.59,-174.69C1092.07,-174.43 1093.55,-174.2 1095,-174 1535.09,-113.05 1654.09,-200.22 2094,-138 2098.68,-137.34 2103.6,-136.35 2108.34,-135.26"/>
<polygon fill="midnightblue" stroke="midnightblue" points="1089.88,-171.26 1080.76,-176.65 1091.25,-178.12 1089.88,-171.26"/>
</g>
<!-- Node39 -->
<g id="node39" class="node">
<title>Node39</title>
<g id="a_node39"><a xlink:href="pagebreak_8c.html" target="_top" xlink:title=" ">
<polygon fill="white" stroke="black" points="923.5,-116.5 923.5,-137.5 1006.5,-137.5 1006.5,-116.5 923.5,-116.5"/>
<text text-anchor="middle" x="965" y="-123.9" font-family="DejaVuSans" font-size="12.00">pagebreak.c</text>
</a>
</g>
</g>
<!-- Node24&#45;&gt;Node39 -->
<g id="edge52" class="edge">
<title>Node24&#45;&gt;Node39</title>
<path fill="none" stroke="midnightblue" d="M1029.79,-168.77C1014.02,-158.85 993.92,-146.2 980.32,-137.64"/>
<polygon fill="midnightblue" stroke="midnightblue" points="1028.17,-171.88 1038.5,-174.25 1031.9,-165.96 1028.17,-171.88"/>
</g>
<!-- Node24&#45;&gt;Node40 -->
<g id="edge53" class="edge">
<title>Node24&#45;&gt;Node40</title>
<path fill="none" stroke="midnightblue" d="M1090.82,-178.63C1104.09,-176.89 1119.19,-175.11 1133,-174 1592.24,-137.03 1714.19,-211.58 2169,-138 2171.67,-137.57 2174.43,-136.99 2177.17,-136.33"/>
<polygon fill="midnightblue" stroke="midnightblue" points="1090.07,-175.2 1080.63,-180.01 1091.01,-182.14 1090.07,-175.2"/>
</g>
</g>
</svg>
