<?xml version="1.0" encoding="UTF-8" standalone="no"?>
<!DOCTYPE svg PUBLIC "-//W3C//DTD SVG 1.1//EN"
 "http://www.w3.org/Graphics/SVG/1.1/DTD/svg11.dtd">
<!-- Generated by graphviz version 2.44.0 ()
 -->
<!-- Title: hash.h Pages: 1 -->
<svg width="965pt" height="204pt"
 viewBox="0.00 0.00 964.50 204.00" xmlns="http://www.w3.org/2000/svg" xmlns:xlink="http://www.w3.org/1999/xlink">
<g id="graph0" class="graph" transform="scale(1 1) rotate(0) translate(4 200)">
<title>hash.h</title>
<polygon fill="white" stroke="transparent" points="-4,4 -4,-200 960.5,-200 960.5,4 -4,4"/>
<!-- Node1 -->
<g id="node1" class="node">
<title>Node1</title>
<g id="a_node1"><a xlink:title=" ">
<polygon fill="#bfbfbf" stroke="black" points="365,-174.5 365,-195.5 418,-195.5 418,-174.5 365,-174.5"/>
<text text-anchor="middle" x="391.5" y="-181.9" font-family="DejaVuSans" font-size="12.00">hash.h</text>
</a>
</g>
</g>
<!-- Node2 -->
<g id="node2" class="node">
<title>Node2</title>
<g id="a_node2"><a xlink:href="box__display_8c.html" target="_top" xlink:title=" ">
<polygon fill="white" stroke="black" points="0,-116.5 0,-137.5 89,-137.5 89,-116.5 0,-116.5"/>
<text text-anchor="middle" x="44.5" y="-123.9" font-family="DejaVuSans" font-size="12.00">box_display.c</text>
</a>
</g>
</g>
<!-- Node1&#45;&gt;Node2 -->
<g id="edge1" class="edge">
<title>Node1&#45;&gt;Node2</title>
<path fill="none" stroke="midnightblue" d="M354.6,-178.61C298.84,-170.37 189.81,-153.93 97.5,-138 94.73,-137.52 91.88,-137.02 89.01,-136.5"/>
<polygon fill="midnightblue" stroke="midnightblue" points="354.3,-182.1 364.7,-180.09 355.32,-175.17 354.3,-182.1"/>
</g>
<!-- Node3 -->
<g id="node3" class="node">
<title>Node3</title>
<g id="a_node3"><a xlink:href="dump_8c.html" target="_top" xlink:title=" ">
<polygon fill="white" stroke="black" points="106.5,-116.5 106.5,-137.5 162.5,-137.5 162.5,-116.5 106.5,-116.5"/>
<text text-anchor="middle" x="134.5" y="-123.9" font-family="DejaVuSans" font-size="12.00">dump.c</text>
</a>
</g>
</g>
<!-- Node1&#45;&gt;Node3 -->
<g id="edge2" class="edge">
<title>Node1&#45;&gt;Node3</title>
<path fill="none" stroke="midnightblue" d="M354.92,-176.9C311.33,-168.31 236.38,-153.1 172.5,-138 169.31,-137.25 165.99,-136.42 162.68,-135.58"/>
<polygon fill="midnightblue" stroke="midnightblue" points="354.28,-180.34 364.77,-178.84 355.63,-173.47 354.28,-180.34"/>
</g>
<!-- Node4 -->
<g id="node4" class="node">
<title>Node4</title>
<g id="a_node4"><a xlink:href="eqtb_8c.html" target="_top" xlink:title=" ">
<polygon fill="white" stroke="black" points="181,-116.5 181,-137.5 230,-137.5 230,-116.5 181,-116.5"/>
<text text-anchor="middle" x="205.5" y="-123.9" font-family="DejaVuSans" font-size="12.00">eqtb.c</text>
</a>
</g>
</g>
<!-- Node1&#45;&gt;Node4 -->
<g id="edge3" class="edge">
<title>Node1&#45;&gt;Node4</title>
<path fill="none" stroke="midnightblue" d="M354.97,-173C318.03,-161.88 261.95,-145 230.02,-135.38"/>
<polygon fill="midnightblue" stroke="midnightblue" points="354.27,-176.44 364.85,-175.98 356.28,-169.74 354.27,-176.44"/>
</g>
<!-- Node5 -->
<g id="node5" class="node">
<title>Node5</title>
<g id="a_node5"><a xlink:href="expand_8c.html" target="_top" xlink:title=" ">
<polygon fill="white" stroke="black" points="248,-116.5 248,-137.5 313,-137.5 313,-116.5 248,-116.5"/>
<text text-anchor="middle" x="280.5" y="-123.9" font-family="DejaVuSans" font-size="12.00">expand.c</text>
</a>
</g>
</g>
<!-- Node1&#45;&gt;Node5 -->
<g id="edge4" class="edge">
<title>Node1&#45;&gt;Node5</title>
<path fill="none" stroke="midnightblue" d="M363.43,-169.84C343.36,-159.71 316.91,-146.37 299.33,-137.5"/>
<polygon fill="midnightblue" stroke="midnightblue" points="361.91,-172.99 372.42,-174.37 365.07,-166.74 361.91,-172.99"/>
</g>
<!-- Node6 -->
<g id="node6" class="node">
<title>Node6</title>
<g id="a_node6"><a xlink:href="fonts_8c.html" target="_top" xlink:title=" ">
<polygon fill="white" stroke="black" points="331,-116.5 331,-137.5 382,-137.5 382,-116.5 331,-116.5"/>
<text text-anchor="middle" x="356.5" y="-123.9" font-family="DejaVuSans" font-size="12.00">fonts.c</text>
</a>
</g>
</g>
<!-- Node1&#45;&gt;Node6 -->
<g id="edge5" class="edge">
<title>Node1&#45;&gt;Node6</title>
<path fill="none" stroke="midnightblue" d="M380.02,-165.63C374.18,-156.29 367.32,-145.32 362.53,-137.64"/>
<polygon fill="midnightblue" stroke="midnightblue" points="377.14,-167.62 385.4,-174.25 383.07,-163.91 377.14,-167.62"/>
</g>
<!-- Node7 -->
<g id="node7" class="node">
<title>Node7</title>
<g id="a_node7"><a xlink:href="hash_8c.html" target="_top" xlink:title=" ">
<polygon fill="white" stroke="black" points="400.5,-116.5 400.5,-137.5 452.5,-137.5 452.5,-116.5 400.5,-116.5"/>
<text text-anchor="middle" x="426.5" y="-123.9" font-family="DejaVuSans" font-size="12.00">hash.c</text>
</a>
</g>
</g>
<!-- Node1&#45;&gt;Node7 -->
<g id="edge6" class="edge">
<title>Node1&#45;&gt;Node7</title>
<path fill="none" stroke="midnightblue" d="M402.98,-165.63C408.82,-156.29 415.68,-145.32 420.47,-137.64"/>
<polygon fill="midnightblue" stroke="midnightblue" points="399.93,-163.91 397.6,-174.25 405.86,-167.62 399.93,-163.91"/>
</g>
<!-- Node8 -->
<g id="node8" class="node">
<title>Node8</title>
<g id="a_node8"><a xlink:href="lexer_8c.html" target="_top" xlink:title=" ">
<polygon fill="white" stroke="black" points="471,-116.5 471,-137.5 522,-137.5 522,-116.5 471,-116.5"/>
<text text-anchor="middle" x="496.5" y="-123.9" font-family="DejaVuSans" font-size="12.00">lexer.c</text>
</a>
</g>
</g>
<!-- Node1&#45;&gt;Node8 -->
<g id="edge7" class="edge">
<title>Node1&#45;&gt;Node8</title>
<path fill="none" stroke="midnightblue" d="M418.76,-169.46C437.55,-159.44 462,-146.4 478.42,-137.64"/>
<polygon fill="midnightblue" stroke="midnightblue" points="416.97,-166.45 409.79,-174.25 420.26,-172.63 416.97,-166.45"/>
</g>
<!-- Node9 -->
<g id="node9" class="node">
<title>Node9</title>
<g id="a_node9"><a xlink:href="main__ctrl_8h.html" target="_top" xlink:title=" ">
<polygon fill="white" stroke="black" points="540.5,-116.5 540.5,-137.5 614.5,-137.5 614.5,-116.5 540.5,-116.5"/>
<text text-anchor="middle" x="577.5" y="-123.9" font-family="DejaVuSans" font-size="12.00">main_ctrl.h</text>
</a>
</g>
</g>
<!-- Node1&#45;&gt;Node9 -->
<g id="edge8" class="edge">
<title>Node1&#45;&gt;Node9</title>
<path fill="none" stroke="midnightblue" d="M427.8,-173.07C462.16,-162.73 513.21,-147.36 545.92,-137.51"/>
<polygon fill="midnightblue" stroke="midnightblue" points="426.72,-169.74 418.15,-175.98 428.73,-176.44 426.72,-169.74"/>
</g>
<!-- Node17 -->
<g id="node17" class="node">
<title>Node17</title>
<g id="a_node17"><a xlink:href="tex__header_8h.html" target="_top" xlink:title=" ">
<polygon fill="white" stroke="black" points="870.5,-58.5 870.5,-79.5 956.5,-79.5 956.5,-58.5 870.5,-58.5"/>
<text text-anchor="middle" x="913.5" y="-65.9" font-family="DejaVuSans" font-size="12.00">tex_header.h</text>
</a>
</g>
</g>
<!-- Node1&#45;&gt;Node17 -->
<g id="edge22" class="edge">
<title>Node1&#45;&gt;Node17</title>
<path fill="none" stroke="midnightblue" d="M428.24,-180.49C474.87,-175.18 557.19,-162.98 623.5,-138 641.76,-131.12 643.18,-122.72 661.5,-116 746.3,-84.91 772.71,-96.53 861.5,-80 864.39,-79.46 867.37,-78.9 870.38,-78.33"/>
<polygon fill="midnightblue" stroke="midnightblue" points="427.58,-177.04 418.02,-181.6 428.34,-184 427.58,-177.04"/>
</g>
<!-- Node19 -->
<g id="node19" class="node">
<title>Node19</title>
<g id="a_node19"><a xlink:href="str_8c.html" target="_top" xlink:title=" ">
<polygon fill="white" stroke="black" points="670.5,-116.5 670.5,-137.5 708.5,-137.5 708.5,-116.5 670.5,-116.5"/>
<text text-anchor="middle" x="689.5" y="-123.9" font-family="DejaVuSans" font-size="12.00">str.c</text>
</a>
</g>
</g>
<!-- Node1&#45;&gt;Node19 -->
<g id="edge21" class="edge">
<title>Node1&#45;&gt;Node19</title>
<path fill="none" stroke="midnightblue" d="M428,-179.11C479.37,-171.9 575.74,-157.17 656.5,-138 661.04,-136.92 665.88,-135.57 670.41,-134.22"/>
<polygon fill="midnightblue" stroke="midnightblue" points="427.47,-175.65 418.05,-180.49 428.43,-182.58 427.47,-175.65"/>
</g>
<!-- Node10 -->
<g id="node10" class="node">
<title>Node10</title>
<g id="a_node10"><a xlink:href="align_8c.html" target="_top" xlink:title=" ">
<polygon fill="white" stroke="black" points="234,-58.5 234,-79.5 285,-79.5 285,-58.5 234,-58.5"/>
<text text-anchor="middle" x="259.5" y="-65.9" font-family="DejaVuSans" font-size="12.00">align.c</text>
</a>
</g>
</g>
<!-- Node9&#45;&gt;Node10 -->
<g id="edge9" class="edge">
<title>Node9&#45;&gt;Node10</title>
<path fill="none" stroke="midnightblue" d="M530.29,-115.88C424.95,-97.01 395.45,-101.99 294.5,-80 291.41,-79.33 288.2,-78.54 285.02,-77.7"/>
<polygon fill="midnightblue" stroke="midnightblue" points="529.92,-119.37 540.38,-117.72 531.17,-112.48 529.92,-119.37"/>
</g>
<!-- Node11 -->
<g id="node11" class="node">
<title>Node11</title>
<g id="a_node11"><a xlink:href="build__box_8c.html" target="_top" xlink:title=" ">
<polygon fill="white" stroke="black" points="303,-58.5 303,-79.5 380,-79.5 380,-58.5 303,-58.5"/>
<text text-anchor="middle" x="341.5" y="-65.9" font-family="DejaVuSans" font-size="12.00">build_box.c</text>
</a>
</g>
</g>
<!-- Node9&#45;&gt;Node11 -->
<g id="edge10" class="edge">
<title>Node9&#45;&gt;Node11</title>
<path fill="none" stroke="midnightblue" d="M530.49,-114.84C486.49,-104.4 421.53,-88.99 380.38,-79.23"/>
<polygon fill="midnightblue" stroke="midnightblue" points="529.83,-118.28 540.37,-117.19 531.44,-111.47 529.83,-118.28"/>
</g>
<!-- Node12 -->
<g id="node12" class="node">
<title>Node12</title>
<g id="a_node12"><a xlink:href="main__ctrl_8c.html" target="_top" xlink:title=" ">
<polygon fill="white" stroke="black" points="406.5,-0.5 406.5,-21.5 480.5,-21.5 480.5,-0.5 406.5,-0.5"/>
<text text-anchor="middle" x="443.5" y="-7.9" font-family="DejaVuSans" font-size="12.00">main_ctrl.c</text>
</a>
</g>
</g>
<!-- Node9&#45;&gt;Node12 -->
<g id="edge17" class="edge">
<title>Node9&#45;&gt;Node12</title>
<path fill="none" stroke="midnightblue" d="M530.71,-114.62C489.1,-104.03 433.87,-88.62 427.5,-80 414.52,-62.45 427.7,-35.96 436.68,-21.78"/>
<polygon fill="midnightblue" stroke="midnightblue" points="529.87,-118.01 540.42,-117.07 531.58,-111.23 529.87,-118.01"/>
</g>
<!-- Node13 -->
<g id="node13" class="node">
<title>Node13</title>
<g id="a_node13"><a xlink:href="build__math_8c.html" target="_top" xlink:title=" ">
<polygon fill="white" stroke="black" points="436.5,-58.5 436.5,-79.5 520.5,-79.5 520.5,-58.5 436.5,-58.5"/>
<text text-anchor="middle" x="478.5" y="-65.9" font-family="DejaVuSans" font-size="12.00">build_math.c</text>
</a>
</g>
</g>
<!-- Node9&#45;&gt;Node13 -->
<g id="edge12" class="edge">
<title>Node9&#45;&gt;Node13</title>
<path fill="none" stroke="midnightblue" d="M551.06,-111.05C533.45,-101.08 510.82,-88.28 495.55,-79.64"/>
<polygon fill="midnightblue" stroke="midnightblue" points="549.83,-114.37 560.26,-116.25 553.27,-108.28 549.83,-114.37"/>
</g>
<!-- Node14 -->
<g id="node14" class="node">
<title>Node14</title>
<g id="a_node14"><a xlink:href="extension_8c.html" target="_top" xlink:title=" ">
<polygon fill="white" stroke="black" points="539,-58.5 539,-79.5 616,-79.5 616,-58.5 539,-58.5"/>
<text text-anchor="middle" x="577.5" y="-65.9" font-family="DejaVuSans" font-size="12.00">extension.c</text>
</a>
</g>
</g>
<!-- Node9&#45;&gt;Node14 -->
<g id="edge14" class="edge">
<title>Node9&#45;&gt;Node14</title>
<path fill="none" stroke="midnightblue" d="M577.5,-106.16C577.5,-97.16 577.5,-86.92 577.5,-79.64"/>
<polygon fill="midnightblue" stroke="midnightblue" points="574,-106.25 577.5,-116.25 581,-106.25 574,-106.25"/>
</g>
<!-- Node15 -->
<g id="node15" class="node">
<title>Node15</title>
<g id="a_node15"><a xlink:href="indep__process_8c.html" target="_top" xlink:title=" ">
<polygon fill="white" stroke="black" points="634.5,-58.5 634.5,-79.5 738.5,-79.5 738.5,-58.5 634.5,-58.5"/>
<text text-anchor="middle" x="686.5" y="-65.9" font-family="DejaVuSans" font-size="12.00">indep_process.c</text>
</a>
</g>
</g>
<!-- Node9&#45;&gt;Node15 -->
<g id="edge15" class="edge">
<title>Node9&#45;&gt;Node15</title>
<path fill="none" stroke="midnightblue" d="M605.53,-111.6C625.07,-101.56 650.61,-88.44 667.73,-79.64"/>
<polygon fill="midnightblue" stroke="midnightblue" points="603.78,-108.56 596.49,-116.25 606.98,-114.79 603.78,-108.56"/>
</g>
<!-- Node16 -->
<g id="node16" class="node">
<title>Node16</title>
<g id="a_node16"><a xlink:href="page__builder_8c.html" target="_top" xlink:title=" ">
<polygon fill="white" stroke="black" points="757,-58.5 757,-79.5 852,-79.5 852,-58.5 757,-58.5"/>
<text text-anchor="middle" x="804.5" y="-65.9" font-family="DejaVuSans" font-size="12.00">page_builder.c</text>
</a>
</g>
</g>
<!-- Node9&#45;&gt;Node16 -->
<g id="edge18" class="edge">
<title>Node9&#45;&gt;Node16</title>
<path fill="none" stroke="midnightblue" d="M624.67,-114.36C666.44,-104.06 726.7,-89.19 765.73,-79.56"/>
<polygon fill="midnightblue" stroke="midnightblue" points="623.6,-111.02 614.73,-116.82 625.28,-117.82 623.6,-111.02"/>
</g>
<!-- Node9&#45;&gt;Node17 -->
<g id="edge19" class="edge">
<title>Node9&#45;&gt;Node17</title>
<path fill="none" stroke="midnightblue" d="M624.63,-116.69C625.93,-116.45 627.23,-116.22 628.5,-116 731.71,-97.92 758.26,-97.9 861.5,-80 864.4,-79.5 867.39,-78.96 870.39,-78.42"/>
<polygon fill="midnightblue" stroke="midnightblue" points="623.71,-113.3 614.51,-118.56 624.98,-120.18 623.71,-113.3"/>
</g>
<!-- Node11&#45;&gt;Node12 -->
<g id="edge11" class="edge">
<title>Node11&#45;&gt;Node12</title>
<path fill="none" stroke="midnightblue" d="M368.23,-53.32C386.45,-43.32 410.06,-30.36 425.94,-21.64"/>
<polygon fill="midnightblue" stroke="midnightblue" points="366.35,-50.36 359.27,-58.25 369.72,-56.5 366.35,-50.36"/>
</g>
<!-- Node13&#45;&gt;Node12 -->
<g id="edge13" class="edge">
<title>Node13&#45;&gt;Node12</title>
<path fill="none" stroke="midnightblue" d="M467.02,-49.63C461.18,-40.29 454.32,-29.32 449.53,-21.64"/>
<polygon fill="midnightblue" stroke="midnightblue" points="464.14,-51.62 472.4,-58.25 470.07,-47.91 464.14,-51.62"/>
</g>
<!-- Node15&#45;&gt;Node12 -->
<g id="edge16" class="edge">
<title>Node15&#45;&gt;Node12</title>
<path fill="none" stroke="midnightblue" d="M635.18,-56.17C588.97,-45.52 522.15,-30.12 480.84,-20.6"/>
<polygon fill="midnightblue" stroke="midnightblue" points="634.47,-59.6 645,-58.44 636.04,-52.78 634.47,-59.6"/>
</g>
<!-- Node18 -->
<g id="node18" class="node">
<title>Node18</title>
<g id="a_node18"><a xlink:href="tex_8c.html" target="_top" xlink:title=" ">
<polygon fill="white" stroke="black" points="893,-0.5 893,-21.5 934,-21.5 934,-0.5 893,-0.5"/>
<text text-anchor="middle" x="913.5" y="-7.9" font-family="DejaVuSans" font-size="12.00">tex.c</text>
</a>
</g>
</g>
<!-- Node17&#45;&gt;Node18 -->
<g id="edge20" class="edge">
<title>Node17&#45;&gt;Node18</title>
<path fill="none" stroke="midnightblue" d="M913.5,-48.16C913.5,-39.16 913.5,-28.92 913.5,-21.64"/>
<polygon fill="midnightblue" stroke="midnightblue" points="910,-48.25 913.5,-58.25 917,-48.25 910,-48.25"/>
</g>
</g>
</svg>
