<?xml version="1.0" encoding="UTF-8" standalone="no"?>
<!DOCTYPE svg PUBLIC "-//W3C//DTD SVG 1.1//EN"
 "http://www.w3.org/Graphics/SVG/1.1/DTD/svg11.dtd">
<!-- Generated by graphviz version 2.47.3 (20210711.2253)
 -->
<!-- Title: hyphen.c Pages: 1 -->
<svg width="969pt" height="436pt"
 viewBox="0.00 0.00 969.00 436.00" xmlns="http://www.w3.org/2000/svg" xmlns:xlink="http://www.w3.org/1999/xlink">
<g id="graph0" class="graph" transform="scale(1 1) rotate(0) translate(4 432)">
<title>hyphen.c</title>
<polygon fill="white" stroke="transparent" points="-4,4 -4,-432 965,-432 965,4 -4,4"/>
<!-- Node1 -->
<g id="node1" class="node">
<title>Node1</title>
<g id="a_node1"><a xlink:title=" ">
<polygon fill="#bfbfbf" stroke="black" points="241,-406.5 241,-427.5 306,-427.5 306,-406.5 241,-406.5"/>
<text text-anchor="middle" x="273.5" y="-413.9" font-family="DejaVuSans" font-size="12.00">hyphen.c</text>
</a>
</g>
</g>
<!-- Node2 -->
<g id="node2" class="node">
<title>Node2</title>
<g id="a_node2"><a xlink:href="str_8h.html" target="_top" xlink:title=" ">
<polygon fill="white" stroke="black" points="92,-232.5 92,-253.5 131,-253.5 131,-232.5 92,-232.5"/>
<text text-anchor="middle" x="111.5" y="-239.9" font-family="DejaVuSans" font-size="12.00">str.h</text>
</a>
</g>
</g>
<!-- Node1&#45;&gt;Node2 -->
<g id="edge1" class="edge">
<title>Node1&#45;&gt;Node2</title>
<path fill="none" stroke="midnightblue" d="M240.88,-407.69C198.93,-395.01 127.97,-366.38 98.5,-312 90.3,-296.86 95.34,-277.38 101.38,-263.15"/>
<polygon fill="midnightblue" stroke="midnightblue" points="104.66,-264.39 105.78,-253.85 98.34,-261.4 104.66,-264.39"/>
</g>
<!-- Node13 -->
<g id="node13" class="node">
<title>Node13</title>
<g id="a_node13"><a xlink:href="mem_8h.html" target="_top" xlink:title=" ">
<polygon fill="white" stroke="black" points="908,-232.5 908,-253.5 961,-253.5 961,-232.5 908,-232.5"/>
<text text-anchor="middle" x="934.5" y="-239.9" font-family="DejaVuSans" font-size="12.00">mem.h</text>
</a>
</g>
</g>
<!-- Node1&#45;&gt;Node13 -->
<g id="edge14" class="edge">
<title>Node1&#45;&gt;Node13</title>
<path fill="none" stroke="midnightblue" d="M306.22,-414.85C380.32,-411.75 566.34,-401.26 718.5,-370 803.32,-352.57 839.9,-369.67 904.5,-312 918.6,-299.41 926.38,-278.97 930.47,-263.79"/>
<polygon fill="midnightblue" stroke="midnightblue" points="933.92,-264.38 932.82,-253.84 927.11,-262.76 933.92,-264.38"/>
</g>
<!-- Node15 -->
<g id="node15" class="node">
<title>Node15</title>
<g id="a_node15"><a xlink:href="expand_8h.html" target="_top" xlink:title=" ">
<polygon fill="white" stroke="black" points="409.5,-232.5 409.5,-253.5 475.5,-253.5 475.5,-232.5 409.5,-232.5"/>
<text text-anchor="middle" x="442.5" y="-239.9" font-family="DejaVuSans" font-size="12.00">expand.h</text>
</a>
</g>
</g>
<!-- Node1&#45;&gt;Node15 -->
<g id="edge18" class="edge">
<title>Node1&#45;&gt;Node15</title>
<path fill="none" stroke="midnightblue" d="M283.07,-406.26C310.72,-378.11 390.99,-296.42 425.93,-260.87"/>
<polygon fill="midnightblue" stroke="midnightblue" points="428.52,-263.22 433.03,-253.63 423.53,-258.31 428.52,-263.22"/>
</g>
<!-- Node16 -->
<g id="node16" class="node">
<title>Node16</title>
<g id="a_node16"><a xlink:href="print_8h.html" target="_top" xlink:title=" ">
<polygon fill="white" stroke="black" points="215.5,-290.5 215.5,-311.5 265.5,-311.5 265.5,-290.5 215.5,-290.5"/>
<text text-anchor="middle" x="240.5" y="-297.9" font-family="DejaVuSans" font-size="12.00">print.h</text>
</a>
</g>
</g>
<!-- Node1&#45;&gt;Node16 -->
<g id="edge21" class="edge">
<title>Node1&#45;&gt;Node16</title>
<path fill="none" stroke="midnightblue" d="M270.69,-406.28C265.26,-387.52 253.24,-346 246.11,-321.38"/>
<polygon fill="midnightblue" stroke="midnightblue" points="249.45,-320.33 243.31,-311.69 242.73,-322.27 249.45,-320.33"/>
</g>
<!-- Node18 -->
<g id="node18" class="node">
<title>Node18</title>
<g id="a_node18"><a xlink:href="error_8h.html" target="_top" xlink:title=" ">
<polygon fill="white" stroke="black" points="0,-290.5 0,-311.5 51,-311.5 51,-290.5 0,-290.5"/>
<text text-anchor="middle" x="25.5" y="-297.9" font-family="DejaVuSans" font-size="12.00">error.h</text>
</a>
</g>
</g>
<!-- Node1&#45;&gt;Node18 -->
<g id="edge30" class="edge">
<title>Node1&#45;&gt;Node18</title>
<path fill="none" stroke="midnightblue" d="M240.69,-416.54C196.72,-415.66 118.16,-408.26 65.5,-370 48.93,-357.96 38.08,-336.79 31.91,-321.26"/>
<polygon fill="midnightblue" stroke="midnightblue" points="35.09,-319.79 28.37,-311.6 28.52,-322.19 35.09,-319.79"/>
</g>
<!-- Node19 -->
<g id="node19" class="node">
<title>Node19</title>
<g id="a_node19"><a xlink:href="scan_8h.html" target="_top" xlink:title=" ">
<polygon fill="white" stroke="black" points="107.5,-290.5 107.5,-311.5 159.5,-311.5 159.5,-290.5 107.5,-290.5"/>
<text text-anchor="middle" x="133.5" y="-297.9" font-family="DejaVuSans" font-size="12.00">scan.h</text>
</a>
</g>
</g>
<!-- Node1&#45;&gt;Node19 -->
<g id="edge33" class="edge">
<title>Node1&#45;&gt;Node19</title>
<path fill="none" stroke="midnightblue" d="M261.56,-406.28C237.49,-386.68 182.9,-342.23 153.37,-318.18"/>
<polygon fill="midnightblue" stroke="midnightblue" points="155.37,-315.3 145.41,-311.69 150.95,-320.72 155.37,-315.3"/>
</g>
<!-- Node20 -->
<g id="node20" class="node">
<title>Node20</title>
<g id="a_node20"><a xlink:href="lexer_8h.html" target="_top" xlink:title=" ">
<polygon fill="white" stroke="black" points="263.5,-232.5 263.5,-253.5 315.5,-253.5 315.5,-232.5 263.5,-232.5"/>
<text text-anchor="middle" x="289.5" y="-239.9" font-family="DejaVuSans" font-size="12.00">lexer.h</text>
</a>
</g>
</g>
<!-- Node1&#45;&gt;Node20 -->
<g id="edge40" class="edge">
<title>Node1&#45;&gt;Node20</title>
<path fill="none" stroke="midnightblue" d="M274.41,-406.26C276.96,-378.82 284.24,-300.51 287.67,-263.64"/>
<polygon fill="midnightblue" stroke="midnightblue" points="291.16,-263.91 288.6,-253.63 284.19,-263.27 291.16,-263.91"/>
</g>
<!-- Node21 -->
<g id="node21" class="node">
<title>Node21</title>
<g id="a_node21"><a xlink:href="hyphen_8h.html" target="_top" xlink:title=" ">
<polygon fill="white" stroke="black" points="643.5,-348.5 643.5,-369.5 709.5,-369.5 709.5,-348.5 643.5,-348.5"/>
<text text-anchor="middle" x="676.5" y="-355.9" font-family="DejaVuSans" font-size="12.00">hyphen.h</text>
</a>
</g>
</g>
<!-- Node1&#45;&gt;Node21 -->
<g id="edge41" class="edge">
<title>Node1&#45;&gt;Node21</title>
<path fill="none" stroke="midnightblue" d="M306.14,-411.46C378.32,-401.43 551.53,-377.37 632.89,-366.06"/>
<polygon fill="midnightblue" stroke="midnightblue" points="633.85,-369.46 643.27,-364.62 632.89,-362.53 633.85,-369.46"/>
</g>
<!-- Node3 -->
<g id="node3" class="node">
<title>Node3</title>
<g id="a_node3"><a xlink:title=" ">
<polygon fill="white" stroke="#bfbfbf" points="346.5,-174.5 346.5,-195.5 398.5,-195.5 398.5,-174.5 346.5,-174.5"/>
<text text-anchor="middle" x="372.5" y="-181.9" font-family="DejaVuSans" font-size="12.00">stdio.h</text>
</a>
</g>
</g>
<!-- Node2&#45;&gt;Node3 -->
<g id="edge2" class="edge">
<title>Node2&#45;&gt;Node3</title>
<path fill="none" stroke="midnightblue" d="M131.12,-237.79C174.76,-228.43 280.41,-205.76 336.35,-193.76"/>
<polygon fill="midnightblue" stroke="midnightblue" points="337.15,-197.16 346.19,-191.64 335.68,-190.32 337.15,-197.16"/>
</g>
<!-- Node4 -->
<g id="node4" class="node">
<title>Node4</title>
<g id="a_node4"><a xlink:title=" ">
<polygon fill="white" stroke="#bfbfbf" points="64,-0.5 64,-21.5 119,-21.5 119,-0.5 64,-0.5"/>
<text text-anchor="middle" x="91.5" y="-7.9" font-family="DejaVuSans" font-size="12.00">stdint.h</text>
</a>
</g>
</g>
<!-- Node2&#45;&gt;Node4 -->
<g id="edge3" class="edge">
<title>Node2&#45;&gt;Node4</title>
<path fill="none" stroke="midnightblue" d="M110.67,-232.41C107.66,-197.85 97.35,-79.24 93.22,-31.82"/>
<polygon fill="midnightblue" stroke="midnightblue" points="96.69,-31.29 92.34,-21.63 89.72,-31.9 96.69,-31.29"/>
</g>
<!-- Node5 -->
<g id="node5" class="node">
<title>Node5</title>
<g id="a_node5"><a xlink:href="global_8h.html" target="_top" xlink:title=" ">
<polygon fill="white" stroke="black" points="462.5,-116.5 462.5,-137.5 520.5,-137.5 520.5,-116.5 462.5,-116.5"/>
<text text-anchor="middle" x="491.5" y="-123.9" font-family="DejaVuSans" font-size="12.00">global.h</text>
</a>
</g>
</g>
<!-- Node2&#45;&gt;Node5 -->
<g id="edge4" class="edge">
<title>Node2&#45;&gt;Node5</title>
<path fill="none" stroke="midnightblue" d="M111.42,-232.36C111.87,-217.36 115.1,-188.63 132.5,-174 180.17,-133.9 369.34,-128.32 452.24,-127.85"/>
<polygon fill="midnightblue" stroke="midnightblue" points="452.28,-131.35 462.27,-127.81 452.26,-124.35 452.28,-131.35"/>
</g>
<!-- Node12 -->
<g id="node12" class="node">
<title>Node12</title>
<g id="a_node12"><a xlink:href="charset_8h.html" target="_top" xlink:title=" ">
<polygon fill="white" stroke="black" points="142,-174.5 142,-195.5 207,-195.5 207,-174.5 142,-174.5"/>
<text text-anchor="middle" x="174.5" y="-181.9" font-family="DejaVuSans" font-size="12.00">charset.h</text>
</a>
</g>
</g>
<!-- Node2&#45;&gt;Node12 -->
<g id="edge12" class="edge">
<title>Node2&#45;&gt;Node12</title>
<path fill="none" stroke="midnightblue" d="M122.47,-232.25C131.69,-224.05 145.05,-212.17 155.93,-202.51"/>
<polygon fill="midnightblue" stroke="midnightblue" points="158.5,-204.9 163.65,-195.64 153.85,-199.67 158.5,-204.9"/>
</g>
<!-- Node6 -->
<g id="node6" class="node">
<title>Node6</title>
<g id="a_node6"><a xlink:href="global__macros_8h.html" target="_top" xlink:title=" ">
<polygon fill="white" stroke="black" points="439.5,-58.5 439.5,-79.5 543.5,-79.5 543.5,-58.5 439.5,-58.5"/>
<text text-anchor="middle" x="491.5" y="-65.9" font-family="DejaVuSans" font-size="12.00">global_macros.h</text>
</a>
</g>
</g>
<!-- Node5&#45;&gt;Node6 -->
<g id="edge5" class="edge">
<title>Node5&#45;&gt;Node6</title>
<path fill="none" stroke="midnightblue" d="M491.5,-116.25C491.5,-108.94 491.5,-98.69 491.5,-89.7"/>
<polygon fill="midnightblue" stroke="midnightblue" points="495,-89.64 491.5,-79.64 488,-89.64 495,-89.64"/>
</g>
<!-- Node8 -->
<g id="node8" class="node">
<title>Node8</title>
<g id="a_node8"><a xlink:href="global__const_8h.html" target="_top" xlink:title=" ">
<polygon fill="white" stroke="black" points="641,-58.5 641,-79.5 734,-79.5 734,-58.5 641,-58.5"/>
<text text-anchor="middle" x="687.5" y="-65.9" font-family="DejaVuSans" font-size="12.00">global_const.h</text>
</a>
</g>
</g>
<!-- Node5&#45;&gt;Node8 -->
<g id="edge7" class="edge">
<title>Node5&#45;&gt;Node8</title>
<path fill="none" stroke="midnightblue" d="M520.84,-117.62C553.59,-108.26 606.88,-93.04 644.36,-82.32"/>
<polygon fill="midnightblue" stroke="midnightblue" points="645.36,-85.68 654.01,-79.57 643.43,-78.95 645.36,-85.68"/>
</g>
<!-- Node9 -->
<g id="node9" class="node">
<title>Node9</title>
<g id="a_node9"><a xlink:href="tex__types_8h.html" target="_top" xlink:title=" ">
<polygon fill="white" stroke="black" points="278,-58.5 278,-79.5 355,-79.5 355,-58.5 278,-58.5"/>
<text text-anchor="middle" x="316.5" y="-65.9" font-family="DejaVuSans" font-size="12.00">tex_types.h</text>
</a>
</g>
</g>
<!-- Node5&#45;&gt;Node9 -->
<g id="edge8" class="edge">
<title>Node5&#45;&gt;Node9</title>
<path fill="none" stroke="midnightblue" d="M462.21,-116.63C433.11,-107.32 388.29,-92.97 356.05,-82.65"/>
<polygon fill="midnightblue" stroke="midnightblue" points="357.06,-79.31 346.47,-79.59 354.93,-85.97 357.06,-79.31"/>
</g>
<!-- Node7 -->
<g id="node7" class="node">
<title>Node7</title>
<g id="a_node7"><a xlink:title=" ">
<polygon fill="white" stroke="#bfbfbf" points="462,-0.5 462,-21.5 521,-21.5 521,-0.5 462,-0.5"/>
<text text-anchor="middle" x="491.5" y="-7.9" font-family="DejaVuSans" font-size="12.00">assert.h</text>
</a>
</g>
</g>
<!-- Node6&#45;&gt;Node7 -->
<g id="edge6" class="edge">
<title>Node6&#45;&gt;Node7</title>
<path fill="none" stroke="midnightblue" d="M491.5,-58.25C491.5,-50.94 491.5,-40.69 491.5,-31.7"/>
<polygon fill="midnightblue" stroke="midnightblue" points="495,-31.64 491.5,-21.64 488,-31.64 495,-31.64"/>
</g>
<!-- Node9&#45;&gt;Node4 -->
<g id="edge10" class="edge">
<title>Node9&#45;&gt;Node4</title>
<path fill="none" stroke="midnightblue" d="M278.08,-58.44C236.42,-48.07 170.38,-31.63 129.06,-21.35"/>
<polygon fill="midnightblue" stroke="midnightblue" points="129.67,-17.89 119.12,-18.87 127.98,-24.69 129.67,-17.89"/>
</g>
<!-- Node10 -->
<g id="node10" class="node">
<title>Node10</title>
<g id="a_node10"><a xlink:title=" ">
<polygon fill="white" stroke="#bfbfbf" points="324,-0.5 324,-21.5 389,-21.5 389,-0.5 324,-0.5"/>
<text text-anchor="middle" x="356.5" y="-7.9" font-family="DejaVuSans" font-size="12.00">stdbool.h</text>
</a>
</g>
</g>
<!-- Node9&#45;&gt;Node10 -->
<g id="edge9" class="edge">
<title>Node9&#45;&gt;Node10</title>
<path fill="none" stroke="midnightblue" d="M323.47,-58.25C329.03,-50.46 336.98,-39.33 343.68,-29.94"/>
<polygon fill="midnightblue" stroke="midnightblue" points="346.65,-31.81 349.61,-21.64 340.95,-27.75 346.65,-31.81"/>
</g>
<!-- Node11 -->
<g id="node11" class="node">
<title>Node11</title>
<g id="a_node11"><a xlink:title=" ">
<polygon fill="white" stroke="#bfbfbf" points="247,-0.5 247,-21.5 306,-21.5 306,-0.5 247,-0.5"/>
<text text-anchor="middle" x="276.5" y="-7.9" font-family="DejaVuSans" font-size="12.00">stddef.h</text>
</a>
</g>
</g>
<!-- Node9&#45;&gt;Node11 -->
<g id="edge11" class="edge">
<title>Node9&#45;&gt;Node11</title>
<path fill="none" stroke="midnightblue" d="M309.53,-58.25C303.97,-50.46 296.02,-39.33 289.32,-29.94"/>
<polygon fill="midnightblue" stroke="midnightblue" points="292.05,-27.75 283.39,-21.64 286.35,-31.81 292.05,-27.75"/>
</g>
<!-- Node12&#45;&gt;Node5 -->
<g id="edge13" class="edge">
<title>Node12&#45;&gt;Node5</title>
<path fill="none" stroke="midnightblue" d="M207.08,-176.89C211.91,-175.89 216.83,-174.89 221.5,-174 303.37,-158.32 399.73,-142.54 452.34,-134.16"/>
<polygon fill="midnightblue" stroke="midnightblue" points="452.94,-137.61 462.26,-132.58 451.84,-130.69 452.94,-137.61"/>
</g>
<!-- Node13&#45;&gt;Node5 -->
<g id="edge15" class="edge">
<title>Node13&#45;&gt;Node5</title>
<path fill="none" stroke="midnightblue" d="M932.23,-232.17C928.15,-216.9 918.01,-187.81 897.5,-174 838.21,-134.08 620.68,-128.5 530.78,-127.94"/>
<polygon fill="midnightblue" stroke="midnightblue" points="530.73,-124.44 520.72,-127.89 530.7,-131.44 530.73,-124.44"/>
</g>
<!-- Node14 -->
<g id="node14" class="node">
<title>Node14</title>
<g id="a_node14"><a xlink:href="tex__constant_8h.html" target="_top" xlink:title=" ">
<polygon fill="white" stroke="black" points="675.5,-174.5 675.5,-195.5 769.5,-195.5 769.5,-174.5 675.5,-174.5"/>
<text text-anchor="middle" x="722.5" y="-181.9" font-family="DejaVuSans" font-size="12.00">tex_constant.h</text>
</a>
</g>
</g>
<!-- Node13&#45;&gt;Node14 -->
<g id="edge16" class="edge">
<title>Node13&#45;&gt;Node14</title>
<path fill="none" stroke="midnightblue" d="M907.65,-234.91C872.68,-225.67 811.02,-209.38 768.52,-198.16"/>
<polygon fill="midnightblue" stroke="midnightblue" points="769.26,-194.73 758.69,-195.56 767.47,-201.5 769.26,-194.73"/>
</g>
<!-- Node14&#45;&gt;Node8 -->
<g id="edge17" class="edge">
<title>Node14&#45;&gt;Node8</title>
<path fill="none" stroke="midnightblue" d="M719.52,-174.28C713.76,-155.52 701.01,-114 693.45,-89.38"/>
<polygon fill="midnightblue" stroke="midnightblue" points="696.76,-88.23 690.48,-79.69 690.07,-90.28 696.76,-88.23"/>
</g>
<!-- Node15&#45;&gt;Node3 -->
<g id="edge19" class="edge">
<title>Node15&#45;&gt;Node3</title>
<path fill="none" stroke="midnightblue" d="M430.31,-232.25C419.87,-223.89 404.63,-211.71 392.43,-201.94"/>
<polygon fill="midnightblue" stroke="midnightblue" points="394.55,-199.16 384.55,-195.64 390.18,-204.62 394.55,-199.16"/>
</g>
<!-- Node15&#45;&gt;Node5 -->
<g id="edge20" class="edge">
<title>Node15&#45;&gt;Node5</title>
<path fill="none" stroke="midnightblue" d="M446.68,-232.28C454.78,-213.43 472.75,-171.62 483.31,-147.05"/>
<polygon fill="midnightblue" stroke="midnightblue" points="486.6,-148.26 487.33,-137.69 480.17,-145.5 486.6,-148.26"/>
</g>
<!-- Node16&#45;&gt;Node2 -->
<g id="edge29" class="edge">
<title>Node16&#45;&gt;Node2</title>
<path fill="none" stroke="midnightblue" d="M218.32,-290.37C196.89,-281.07 164.3,-266.92 140.75,-256.7"/>
<polygon fill="midnightblue" stroke="midnightblue" points="141.84,-253.36 131.27,-252.58 139.05,-259.78 141.84,-253.36"/>
</g>
<!-- Node16&#45;&gt;Node3 -->
<g id="edge22" class="edge">
<title>Node16&#45;&gt;Node3</title>
<path fill="none" stroke="midnightblue" d="M264.41,-290.44C282.29,-282.5 306.64,-269.94 324.5,-254 340.42,-239.79 353.94,-219.35 362.54,-204.6"/>
<polygon fill="midnightblue" stroke="midnightblue" points="365.61,-206.28 367.45,-195.84 359.51,-202.85 365.61,-206.28"/>
</g>
<!-- Node16&#45;&gt;Node5 -->
<g id="edge23" class="edge">
<title>Node16&#45;&gt;Node5</title>
<path fill="none" stroke="midnightblue" d="M240.75,-290.16C241.48,-276.36 244.24,-250.84 254.5,-232 272.08,-199.7 281.5,-192.11 313.5,-174 357.3,-149.22 414.67,-137.51 452.28,-132.18"/>
<polygon fill="midnightblue" stroke="midnightblue" points="452.89,-135.63 462.34,-130.84 451.96,-128.69 452.89,-135.63"/>
</g>
<!-- Node16&#45;&gt;Node12 -->
<g id="edge24" class="edge">
<title>Node16&#45;&gt;Node12</title>
<path fill="none" stroke="midnightblue" d="M234.87,-290.28C223.86,-271.27 199.32,-228.88 185.15,-204.4"/>
<polygon fill="midnightblue" stroke="midnightblue" points="188.15,-202.6 180.11,-195.69 182.09,-206.1 188.15,-202.6"/>
</g>
<!-- Node16&#45;&gt;Node14 -->
<g id="edge25" class="edge">
<title>Node16&#45;&gt;Node14</title>
<path fill="none" stroke="midnightblue" d="M265.67,-298.5C320.01,-294.79 452,-283.29 558.5,-254 608.06,-240.37 662.64,-215.65 694.67,-200.06"/>
<polygon fill="midnightblue" stroke="midnightblue" points="696.43,-203.1 703.86,-195.54 693.34,-196.82 696.43,-203.1"/>
</g>
<!-- Node17 -->
<g id="node17" class="node">
<title>Node17</title>
<g id="a_node17"><a xlink:href="eqtb_8h.html" target="_top" xlink:title=" ">
<polygon fill="white" stroke="black" points="681.5,-232.5 681.5,-253.5 731.5,-253.5 731.5,-232.5 681.5,-232.5"/>
<text text-anchor="middle" x="706.5" y="-239.9" font-family="DejaVuSans" font-size="12.00">eqtb.h</text>
</a>
</g>
</g>
<!-- Node16&#45;&gt;Node17 -->
<g id="edge26" class="edge">
<title>Node16&#45;&gt;Node17</title>
<path fill="none" stroke="midnightblue" d="M265.55,-296.99C343.39,-287.64 581.15,-259.06 671.32,-248.23"/>
<polygon fill="midnightblue" stroke="midnightblue" points="671.81,-251.69 681.32,-247.03 670.98,-244.74 671.81,-251.69"/>
</g>
<!-- Node17&#45;&gt;Node5 -->
<g id="edge27" class="edge">
<title>Node17&#45;&gt;Node5</title>
<path fill="none" stroke="midnightblue" d="M697.12,-232.39C682.55,-217.95 653.07,-190.58 623.5,-174 594.03,-157.48 557.57,-145.33 530.45,-137.67"/>
<polygon fill="midnightblue" stroke="midnightblue" points="531.11,-134.22 520.54,-134.96 529.26,-140.98 531.11,-134.22"/>
</g>
<!-- Node17&#45;&gt;Node14 -->
<g id="edge28" class="edge">
<title>Node17&#45;&gt;Node14</title>
<path fill="none" stroke="midnightblue" d="M709.29,-232.25C711.4,-224.86 714.37,-214.47 716.95,-205.41"/>
<polygon fill="midnightblue" stroke="midnightblue" points="720.36,-206.22 719.74,-195.64 713.63,-204.3 720.36,-206.22"/>
</g>
<!-- Node18&#45;&gt;Node2 -->
<g id="edge32" class="edge">
<title>Node18&#45;&gt;Node2</title>
<path fill="none" stroke="midnightblue" d="M40.48,-290.25C53.68,-281.65 73.11,-269 88.31,-259.1"/>
<polygon fill="midnightblue" stroke="midnightblue" points="90.22,-262.03 96.69,-253.64 86.4,-256.17 90.22,-262.03"/>
</g>
<!-- Node18&#45;&gt;Node5 -->
<g id="edge31" class="edge">
<title>Node18&#45;&gt;Node5</title>
<path fill="none" stroke="midnightblue" d="M26.96,-290.42C31.19,-266.28 45.85,-202.81 86.5,-174 144.68,-132.77 362.23,-127.95 452.19,-127.76"/>
<polygon fill="midnightblue" stroke="midnightblue" points="452.25,-131.26 462.25,-127.76 452.25,-124.26 452.25,-131.26"/>
</g>
<!-- Node19&#45;&gt;Node2 -->
<g id="edge39" class="edge">
<title>Node19&#45;&gt;Node2</title>
<path fill="none" stroke="midnightblue" d="M129.67,-290.25C126.73,-282.78 122.6,-272.24 119.01,-263.11"/>
<polygon fill="midnightblue" stroke="midnightblue" points="122.2,-261.67 115.29,-253.64 115.69,-264.23 122.2,-261.67"/>
</g>
<!-- Node19&#45;&gt;Node5 -->
<g id="edge34" class="edge">
<title>Node19&#45;&gt;Node5</title>
<path fill="none" stroke="midnightblue" d="M116.76,-290.3C104.74,-282.28 89.48,-269.69 82.5,-254 66.94,-219.01 82.77,-195.43 114.5,-174 168.99,-137.2 367.38,-129.82 452.39,-128.36"/>
<polygon fill="midnightblue" stroke="midnightblue" points="452.48,-131.85 462.42,-128.2 452.37,-124.86 452.48,-131.85"/>
</g>
<!-- Node19&#45;&gt;Node20 -->
<g id="edge35" class="edge">
<title>Node19&#45;&gt;Node20</title>
<path fill="none" stroke="midnightblue" d="M159.61,-290.63C185.37,-281.38 224.95,-267.17 253.65,-256.87"/>
<polygon fill="midnightblue" stroke="midnightblue" points="255.07,-260.08 263.3,-253.4 252.71,-253.49 255.07,-260.08"/>
</g>
<!-- Node20&#45;&gt;Node3 -->
<g id="edge36" class="edge">
<title>Node20&#45;&gt;Node3</title>
<path fill="none" stroke="midnightblue" d="M303.96,-232.25C316.57,-223.73 335.09,-211.24 349.7,-201.38"/>
<polygon fill="midnightblue" stroke="midnightblue" points="351.88,-204.14 358.21,-195.64 347.96,-198.33 351.88,-204.14"/>
</g>
<!-- Node20&#45;&gt;Node5 -->
<g id="edge37" class="edge">
<title>Node20&#45;&gt;Node5</title>
<path fill="none" stroke="midnightblue" d="M293.86,-232.09C300.89,-217.24 316.14,-189.35 337.5,-174 371.64,-149.46 418.95,-137.87 452.09,-132.49"/>
<polygon fill="midnightblue" stroke="midnightblue" points="452.95,-135.9 462.32,-130.95 451.91,-128.98 452.95,-135.9"/>
</g>
<!-- Node20&#45;&gt;Node14 -->
<g id="edge38" class="edge">
<title>Node20&#45;&gt;Node14</title>
<path fill="none" stroke="midnightblue" d="M315.61,-238.62C384.15,-229.76 570.42,-205.67 665.3,-193.4"/>
<polygon fill="midnightblue" stroke="midnightblue" points="665.83,-196.86 675.3,-192.1 664.93,-189.92 665.83,-196.86"/>
</g>
<!-- Node21&#45;&gt;Node5 -->
<g id="edge42" class="edge">
<title>Node21&#45;&gt;Node5</title>
<path fill="none" stroke="midnightblue" d="M670.98,-348.11C654.65,-319.31 604.19,-233.8 548.5,-174 538.11,-162.84 524.94,-152.04 513.88,-143.71"/>
<polygon fill="midnightblue" stroke="midnightblue" points="515.69,-140.7 505.56,-137.6 511.55,-146.34 515.69,-140.7"/>
</g>
<!-- Node21&#45;&gt;Node12 -->
<g id="edge59" class="edge">
<title>Node21&#45;&gt;Node12</title>
<path fill="none" stroke="midnightblue" d="M643.26,-356.93C541.57,-353.34 239.54,-340.39 206.5,-312 175.81,-285.63 172.41,-234.39 173.13,-206.05"/>
<polygon fill="midnightblue" stroke="midnightblue" points="176.64,-205.92 173.6,-195.77 169.65,-205.6 176.64,-205.92"/>
</g>
<!-- Node21&#45;&gt;Node13 -->
<g id="edge43" class="edge">
<title>Node21&#45;&gt;Node13</title>
<path fill="none" stroke="midnightblue" d="M709.73,-356.93C751.91,-354.2 825.55,-344.68 878.5,-312 898.33,-299.76 914.39,-278 924.15,-262.39"/>
<polygon fill="midnightblue" stroke="midnightblue" points="927.27,-263.99 929.39,-253.6 921.26,-260.4 927.27,-263.99"/>
</g>
<!-- Node21&#45;&gt;Node14 -->
<g id="edge60" class="edge">
<title>Node21&#45;&gt;Node14</title>
<path fill="none" stroke="midnightblue" d="M687.52,-348.47C706.03,-331.63 742.71,-294.54 756.5,-254 759.65,-244.74 759.56,-241.29 756.5,-232 752.99,-221.36 745.98,-211.16 739.22,-203.09"/>
<polygon fill="midnightblue" stroke="midnightblue" points="741.71,-200.62 732.44,-195.51 736.5,-205.29 741.71,-200.62"/>
</g>
<!-- Node21&#45;&gt;Node17 -->
<g id="edge58" class="edge">
<title>Node21&#45;&gt;Node17</title>
<path fill="none" stroke="midnightblue" d="M679.06,-348.28C684,-329.52 694.92,-288 701.4,-263.38"/>
<polygon fill="midnightblue" stroke="midnightblue" points="704.79,-264.26 703.95,-253.69 698.02,-262.47 704.79,-264.26"/>
</g>
<!-- Node22 -->
<g id="node22" class="node">
<title>Node22</title>
<g id="a_node22"><a xlink:href="box_8h.html" target="_top" xlink:title=" ">
<polygon fill="white" stroke="black" points="823.5,-290.5 823.5,-311.5 869.5,-311.5 869.5,-290.5 823.5,-290.5"/>
<text text-anchor="middle" x="846.5" y="-297.9" font-family="DejaVuSans" font-size="12.00">box.h</text>
</a>
</g>
</g>
<!-- Node21&#45;&gt;Node22 -->
<g id="edge44" class="edge">
<title>Node21&#45;&gt;Node22</title>
<path fill="none" stroke="midnightblue" d="M705.72,-348.37C735.79,-338.47 782.53,-323.07 813.81,-312.77"/>
<polygon fill="midnightblue" stroke="midnightblue" points="814.98,-316.07 823.38,-309.62 812.79,-309.42 814.98,-316.07"/>
</g>
<!-- Node24 -->
<g id="node24" class="node">
<title>Node24</title>
<g id="a_node24"><a xlink:href="fonts_8h.html" target="_top" xlink:title=" ">
<polygon fill="white" stroke="black" points="534.5,-290.5 534.5,-311.5 586.5,-311.5 586.5,-290.5 534.5,-290.5"/>
<text text-anchor="middle" x="560.5" y="-297.9" font-family="DejaVuSans" font-size="12.00">fonts.h</text>
</a>
</g>
</g>
<!-- Node21&#45;&gt;Node24 -->
<g id="edge50" class="edge">
<title>Node21&#45;&gt;Node24</title>
<path fill="none" stroke="midnightblue" d="M656.56,-348.37C638.02,-339.42 610.2,-325.99 589.26,-315.88"/>
<polygon fill="midnightblue" stroke="midnightblue" points="590.71,-312.7 580.18,-311.5 587.66,-319 590.71,-312.7"/>
</g>
<!-- Node22&#45;&gt;Node2 -->
<g id="edge49" class="edge">
<title>Node22&#45;&gt;Node2</title>
<path fill="none" stroke="midnightblue" d="M823.29,-298.23C715.28,-290 262.02,-255.47 141.2,-246.26"/>
<polygon fill="midnightblue" stroke="midnightblue" points="141.43,-242.77 131.19,-245.5 140.89,-249.75 141.43,-242.77"/>
</g>
<!-- Node22&#45;&gt;Node5 -->
<g id="edge45" class="edge">
<title>Node22&#45;&gt;Node5</title>
<path fill="none" stroke="midnightblue" d="M852.32,-290.36C865.49,-267.14 894.21,-207.6 864.5,-174 842.62,-149.26 622,-134.88 530.72,-129.95"/>
<polygon fill="midnightblue" stroke="midnightblue" points="530.68,-126.44 520.5,-129.41 530.31,-133.43 530.68,-126.44"/>
</g>
<!-- Node22&#45;&gt;Node13 -->
<g id="edge46" class="edge">
<title>Node22&#45;&gt;Node13</title>
<path fill="none" stroke="midnightblue" d="M861.83,-290.25C875.33,-281.65 895.21,-269 910.77,-259.1"/>
<polygon fill="midnightblue" stroke="midnightblue" points="912.79,-261.96 919.35,-253.64 909.03,-256.06 912.79,-261.96"/>
</g>
<!-- Node23 -->
<g id="node23" class="node">
<title>Node23</title>
<g id="a_node23"><a xlink:href="texmath_8h.html" target="_top" xlink:title=" ">
<polygon fill="white" stroke="black" points="787.5,-174.5 787.5,-195.5 855.5,-195.5 855.5,-174.5 787.5,-174.5"/>
<text text-anchor="middle" x="821.5" y="-181.9" font-family="DejaVuSans" font-size="12.00">texmath.h</text>
</a>
</g>
</g>
<!-- Node22&#45;&gt;Node23 -->
<g id="edge47" class="edge">
<title>Node22&#45;&gt;Node23</title>
<path fill="none" stroke="midnightblue" d="M844.37,-290.28C840.27,-271.6 831.23,-230.37 825.82,-205.72"/>
<polygon fill="midnightblue" stroke="midnightblue" points="829.19,-204.71 823.63,-195.69 822.35,-206.21 829.19,-204.71"/>
</g>
<!-- Node23&#45;&gt;Node5 -->
<g id="edge48" class="edge">
<title>Node23&#45;&gt;Node5</title>
<path fill="none" stroke="midnightblue" d="M787.28,-175.82C784.32,-175.18 781.36,-174.56 778.5,-174 690.34,-156.71 586,-141.22 530.62,-133.39"/>
<polygon fill="midnightblue" stroke="midnightblue" points="530.93,-129.9 520.54,-131.97 529.96,-136.83 530.93,-129.9"/>
</g>
<!-- Node24&#45;&gt;Node2 -->
<g id="edge54" class="edge">
<title>Node24&#45;&gt;Node2</title>
<path fill="none" stroke="midnightblue" d="M534.42,-296.75C456.24,-287 224.15,-258.05 141.3,-247.72"/>
<polygon fill="midnightblue" stroke="midnightblue" points="141.65,-244.23 131.29,-246.47 140.78,-251.18 141.65,-244.23"/>
</g>
<!-- Node24&#45;&gt;Node3 -->
<g id="edge51" class="edge">
<title>Node24&#45;&gt;Node3</title>
<path fill="none" stroke="midnightblue" d="M534.5,-299.27C499.82,-296.95 438.4,-287.93 400.5,-254 386.57,-241.53 379.41,-221.07 375.84,-205.85"/>
<polygon fill="midnightblue" stroke="midnightblue" points="379.24,-204.99 373.83,-195.88 372.37,-206.37 379.24,-204.99"/>
</g>
<!-- Node24&#45;&gt;Node5 -->
<g id="edge52" class="edge">
<title>Node24&#45;&gt;Node5</title>
<path fill="none" stroke="midnightblue" d="M561.84,-290.04C563.3,-276.55 564.66,-251.85 558.5,-232 548.02,-198.23 523.31,-164.88 507.01,-145.38"/>
<polygon fill="midnightblue" stroke="midnightblue" points="509.56,-142.98 500.39,-137.68 504.25,-147.54 509.56,-142.98"/>
</g>
<!-- Node24&#45;&gt;Node14 -->
<g id="edge53" class="edge">
<title>Node24&#45;&gt;Node14</title>
<path fill="none" stroke="midnightblue" d="M586.83,-297.19C632.13,-291.75 721.76,-278.14 740.5,-254 751.56,-239.76 743.87,-219.32 735.39,-204.58"/>
<polygon fill="midnightblue" stroke="midnightblue" points="738.17,-202.43 729.88,-195.83 732.25,-206.16 738.17,-202.43"/>
</g>
<!-- Node25 -->
<g id="node25" class="node">
<title>Node25</title>
<g id="a_node25"><a xlink:href="dump_8h.html" target="_top" xlink:title=" ">
<polygon fill="white" stroke="black" points="493.5,-232.5 493.5,-253.5 549.5,-253.5 549.5,-232.5 493.5,-232.5"/>
<text text-anchor="middle" x="521.5" y="-239.9" font-family="DejaVuSans" font-size="12.00">dump.h</text>
</a>
</g>
</g>
<!-- Node24&#45;&gt;Node25 -->
<g id="edge55" class="edge">
<title>Node24&#45;&gt;Node25</title>
<path fill="none" stroke="midnightblue" d="M553.71,-290.25C548.28,-282.46 540.53,-271.33 534,-261.94"/>
<polygon fill="midnightblue" stroke="midnightblue" points="536.8,-259.85 528.22,-253.64 531.06,-263.85 536.8,-259.85"/>
</g>
<!-- Node25&#45;&gt;Node3 -->
<g id="edge56" class="edge">
<title>Node25&#45;&gt;Node3</title>
<path fill="none" stroke="midnightblue" d="M495.89,-232.37C471.43,-223.18 434.39,-209.26 407.28,-199.07"/>
<polygon fill="midnightblue" stroke="midnightblue" points="408.37,-195.74 397.78,-195.5 405.91,-202.3 408.37,-195.74"/>
</g>
<!-- Node25&#45;&gt;Node5 -->
<g id="edge57" class="edge">
<title>Node25&#45;&gt;Node5</title>
<path fill="none" stroke="midnightblue" d="M518.94,-232.28C514,-213.52 503.08,-172 496.6,-147.38"/>
<polygon fill="midnightblue" stroke="midnightblue" points="499.98,-146.47 494.05,-137.69 493.21,-148.26 499.98,-146.47"/>
</g>
</g>
</svg>
