<?xml version="1.0" encoding="UTF-8" standalone="no"?>
<!DOCTYPE svg PUBLIC "-//W3C//DTD SVG 1.1//EN"
 "http://www.w3.org/Graphics/SVG/1.1/DTD/svg11.dtd">
<!-- Generated by graphviz version 2.44.0 ()
 -->
<!-- Title: hyphen_init.c Pages: 1 -->
<svg width="743pt" height="726pt"
 viewBox="0.00 0.00 743.00 726.00" xmlns="http://www.w3.org/2000/svg" xmlns:xlink="http://www.w3.org/1999/xlink">
<g id="graph0" class="graph" transform="scale(1 1) rotate(0) translate(4 722)">
<title>hyphen_init.c</title>
<polygon fill="white" stroke="transparent" points="-4,4 -4,-722 739,-722 739,4 -4,4"/>
<!-- Node1 -->
<g id="node1" class="node">
<title>Node1</title>
<g id="a_node1"><a xlink:title=" ">
<polygon fill="#bfbfbf" stroke="black" points="406,-696.5 406,-717.5 494,-717.5 494,-696.5 406,-696.5"/>
<text text-anchor="middle" x="450" y="-703.9" font-family="DejaVuSans" font-size="12.00">hyphen_init.c</text>
</a>
</g>
</g>
<!-- Node2 -->
<g id="node2" class="node">
<title>Node2</title>
<g id="a_node2"><a xlink:title=" ">
<polygon fill="white" stroke="#bfbfbf" points="139,-638.5 139,-659.5 193,-659.5 193,-638.5 139,-638.5"/>
<text text-anchor="middle" x="166" y="-645.9" font-family="DejaVuSans" font-size="12.00">stdlib.h</text>
</a>
</g>
</g>
<!-- Node1&#45;&gt;Node2 -->
<g id="edge1" class="edge">
<title>Node1&#45;&gt;Node2</title>
<path fill="none" stroke="midnightblue" d="M405.86,-699.01C358.12,-691.19 279.6,-677.55 202.89,-660.06"/>
<polygon fill="midnightblue" stroke="midnightblue" points="203.59,-656.63 193.06,-657.79 202.02,-663.45 203.59,-656.63"/>
</g>
<!-- Node3 -->
<g id="node3" class="node">
<title>Node3</title>
<g id="a_node3"><a xlink:href="global__const_8h.html" target="_top" xlink:title=" ">
<polygon fill="white" stroke="black" points="406.5,-58.5 406.5,-79.5 499.5,-79.5 499.5,-58.5 406.5,-58.5"/>
<text text-anchor="middle" x="453" y="-65.9" font-family="DejaVuSans" font-size="12.00">global_const.h</text>
</a>
</g>
</g>
<!-- Node1&#45;&gt;Node3 -->
<g id="edge2" class="edge">
<title>Node1&#45;&gt;Node3</title>
<path fill="none" stroke="midnightblue" d="M453.6,-696.28C456.86,-687.07 461.51,-672.78 464,-660 494.53,-503.2 496,-461.75 496,-302 496,-302 496,-302 496,-184 496,-148.25 477.26,-110.02 464.52,-88.17"/>
<polygon fill="midnightblue" stroke="midnightblue" points="467.51,-86.35 459.34,-79.6 461.52,-89.97 467.51,-86.35"/>
</g>
<!-- Node6 -->
<g id="node6" class="node">
<title>Node6</title>
<g id="a_node6"><a xlink:href="lexer_8h.html" target="_top" xlink:title=" ">
<polygon fill="white" stroke="black" points="294,-348.5 294,-369.5 346,-369.5 346,-348.5 294,-348.5"/>
<text text-anchor="middle" x="320" y="-355.9" font-family="DejaVuSans" font-size="12.00">lexer.h</text>
</a>
</g>
</g>
<!-- Node1&#45;&gt;Node6 -->
<g id="edge5" class="edge">
<title>Node1&#45;&gt;Node6</title>
<path fill="none" stroke="midnightblue" d="M444.39,-696.3C433.82,-677.07 412,-632.47 412,-592 412,-592 412,-592 412,-474 412,-430.86 371.6,-394.83 344.34,-375.44"/>
<polygon fill="midnightblue" stroke="midnightblue" points="346.25,-372.5 336.03,-369.74 342.3,-378.28 346.25,-372.5"/>
</g>
<!-- Node14 -->
<g id="node14" class="node">
<title>Node14</title>
<g id="a_node14"><a xlink:href="mem_8h.html" target="_top" xlink:title=" ">
<polygon fill="white" stroke="black" points="178.5,-522.5 178.5,-543.5 231.5,-543.5 231.5,-522.5 178.5,-522.5"/>
<text text-anchor="middle" x="205" y="-529.9" font-family="DejaVuSans" font-size="12.00">mem.h</text>
</a>
</g>
</g>
<!-- Node1&#45;&gt;Node14 -->
<g id="edge18" class="edge">
<title>Node1&#45;&gt;Node14</title>
<path fill="none" stroke="midnightblue" d="M436.13,-696.26C395.53,-667.76 276.73,-584.36 227.14,-549.54"/>
<polygon fill="midnightblue" stroke="midnightblue" points="228.92,-546.51 218.72,-543.63 224.9,-552.24 228.92,-546.51"/>
</g>
<!-- Node19 -->
<g id="node19" class="node">
<title>Node19</title>
<g id="a_node19"><a xlink:href="print_8h.html" target="_top" xlink:title=" ">
<polygon fill="white" stroke="black" points="211,-638.5 211,-659.5 261,-659.5 261,-638.5 211,-638.5"/>
<text text-anchor="middle" x="236" y="-645.9" font-family="DejaVuSans" font-size="12.00">print.h</text>
</a>
</g>
</g>
<!-- Node1&#45;&gt;Node19 -->
<g id="edge28" class="edge">
<title>Node1&#45;&gt;Node19</title>
<path fill="none" stroke="midnightblue" d="M413.21,-696.37C373.39,-685.95 310.34,-669.45 271.16,-659.2"/>
<polygon fill="midnightblue" stroke="midnightblue" points="271.83,-655.76 261.27,-656.61 270.06,-662.53 271.83,-655.76"/>
</g>
<!-- Node21 -->
<g id="node21" class="node">
<title>Node21</title>
<g id="a_node21"><a xlink:href="error_8h.html" target="_top" xlink:title=" ">
<polygon fill="white" stroke="black" points="516.5,-638.5 516.5,-659.5 567.5,-659.5 567.5,-638.5 516.5,-638.5"/>
<text text-anchor="middle" x="542" y="-645.9" font-family="DejaVuSans" font-size="12.00">error.h</text>
</a>
</g>
</g>
<!-- Node1&#45;&gt;Node21 -->
<g id="edge34" class="edge">
<title>Node1&#45;&gt;Node21</title>
<path fill="none" stroke="midnightblue" d="M466.03,-696.25C480.14,-687.65 500.93,-675 517.19,-665.1"/>
<polygon fill="midnightblue" stroke="midnightblue" points="519.44,-667.83 526.16,-659.64 515.8,-661.85 519.44,-667.83"/>
</g>
<!-- Node22 -->
<g id="node22" class="node">
<title>Node22</title>
<g id="a_node22"><a xlink:href="texfunc_8h.html" target="_top" xlink:title=" ">
<polygon fill="white" stroke="black" points="585.5,-638.5 585.5,-659.5 650.5,-659.5 650.5,-638.5 585.5,-638.5"/>
<text text-anchor="middle" x="618" y="-645.9" font-family="DejaVuSans" font-size="12.00">texfunc.h</text>
</a>
</g>
</g>
<!-- Node1&#45;&gt;Node22 -->
<g id="edge35" class="edge">
<title>Node1&#45;&gt;Node22</title>
<path fill="none" stroke="midnightblue" d="M478.88,-696.37C506.82,-687.06 549.31,-672.9 579.99,-662.67"/>
<polygon fill="midnightblue" stroke="midnightblue" points="581.12,-665.98 589.5,-659.5 578.9,-659.34 581.12,-665.98"/>
</g>
<!-- Node23 -->
<g id="node23" class="node">
<title>Node23</title>
<g id="a_node23"><a xlink:href="expand_8h.html" target="_top" xlink:title=" ">
<polygon fill="white" stroke="black" points="669,-638.5 669,-659.5 735,-659.5 735,-638.5 669,-638.5"/>
<text text-anchor="middle" x="702" y="-645.9" font-family="DejaVuSans" font-size="12.00">expand.h</text>
</a>
</g>
</g>
<!-- Node1&#45;&gt;Node23 -->
<g id="edge36" class="edge">
<title>Node1&#45;&gt;Node23</title>
<path fill="none" stroke="midnightblue" d="M494.3,-696.54C534.67,-687.86 596.23,-674.5 658.93,-660.22"/>
<polygon fill="midnightblue" stroke="midnightblue" points="660.03,-663.56 669,-657.92 658.47,-656.73 660.03,-663.56"/>
</g>
<!-- Node24 -->
<g id="node24" class="node">
<title>Node24</title>
<g id="a_node24"><a xlink:href="hyphen_8h.html" target="_top" xlink:title=" ">
<polygon fill="white" stroke="black" points="402,-348.5 402,-369.5 468,-369.5 468,-348.5 402,-348.5"/>
<text text-anchor="middle" x="435" y="-355.9" font-family="DejaVuSans" font-size="12.00">hyphen.h</text>
</a>
</g>
</g>
<!-- Node1&#45;&gt;Node24 -->
<g id="edge37" class="edge">
<title>Node1&#45;&gt;Node24</title>
<path fill="none" stroke="midnightblue" d="M450,-696.24C450,-676.54 450,-630.59 450,-592 450,-592 450,-592 450,-474 450,-440.7 443.63,-402.39 439.19,-379.74"/>
<polygon fill="midnightblue" stroke="midnightblue" points="442.57,-378.8 437.15,-369.7 435.71,-380.2 442.57,-378.8"/>
</g>
<!-- Node4 -->
<g id="node4" class="node">
<title>Node4</title>
<g id="a_node4"><a xlink:title=" ">
<polygon fill="white" stroke="#bfbfbf" points="423.5,-0.5 423.5,-21.5 482.5,-21.5 482.5,-0.5 423.5,-0.5"/>
<text text-anchor="middle" x="453" y="-7.9" font-family="DejaVuSans" font-size="12.00">assert.h</text>
</a>
</g>
</g>
<!-- Node3&#45;&gt;Node4 -->
<g id="edge3" class="edge">
<title>Node3&#45;&gt;Node4</title>
<path fill="none" stroke="midnightblue" d="M453,-58.25C453,-50.94 453,-40.69 453,-31.7"/>
<polygon fill="midnightblue" stroke="midnightblue" points="456.5,-31.64 453,-21.64 449.5,-31.64 456.5,-31.64"/>
</g>
<!-- Node5 -->
<g id="node5" class="node">
<title>Node5</title>
<g id="a_node5"><a xlink:title=" ">
<polygon fill="white" stroke="#bfbfbf" points="333,-0.5 333,-21.5 385,-21.5 385,-0.5 333,-0.5"/>
<text text-anchor="middle" x="359" y="-7.9" font-family="DejaVuSans" font-size="12.00">stdio.h</text>
</a>
</g>
</g>
<!-- Node3&#45;&gt;Node5 -->
<g id="edge4" class="edge">
<title>Node3&#45;&gt;Node5</title>
<path fill="none" stroke="midnightblue" d="M436.63,-58.25C422.07,-49.57 400.57,-36.76 383.88,-26.82"/>
<polygon fill="midnightblue" stroke="midnightblue" points="385.57,-23.75 375.19,-21.64 381.99,-29.77 385.57,-23.75"/>
</g>
<!-- Node6&#45;&gt;Node5 -->
<g id="edge6" class="edge">
<title>Node6&#45;&gt;Node5</title>
<path fill="none" stroke="midnightblue" d="M322.87,-348.34C328.4,-328.82 340,-283.18 340,-244 340,-244 340,-244 340,-126 340,-92.38 348.14,-53.92 353.77,-31.37"/>
<polygon fill="midnightblue" stroke="midnightblue" points="357.16,-32.23 356.28,-21.67 350.38,-30.47 357.16,-32.23"/>
</g>
<!-- Node7 -->
<g id="node7" class="node">
<title>Node7</title>
<g id="a_node7"><a xlink:href="tex_8h.html" target="_top" xlink:title=" ">
<polygon fill="white" stroke="black" points="164,-290.5 164,-311.5 206,-311.5 206,-290.5 164,-290.5"/>
<text text-anchor="middle" x="185" y="-297.9" font-family="DejaVuSans" font-size="12.00">tex.h</text>
</a>
</g>
</g>
<!-- Node6&#45;&gt;Node7 -->
<g id="edge7" class="edge">
<title>Node6&#45;&gt;Node7</title>
<path fill="none" stroke="midnightblue" d="M296.79,-348.37C274.3,-339.04 240.05,-324.84 215.39,-314.61"/>
<polygon fill="midnightblue" stroke="midnightblue" points="216.71,-311.36 206.13,-310.76 214.03,-317.83 216.71,-311.36"/>
</g>
<!-- Node8 -->
<g id="node8" class="node">
<title>Node8</title>
<g id="a_node8"><a xlink:href="tex__types_8h.html" target="_top" xlink:title=" ">
<polygon fill="white" stroke="black" points="83.5,-58.5 83.5,-79.5 160.5,-79.5 160.5,-58.5 83.5,-58.5"/>
<text text-anchor="middle" x="122" y="-65.9" font-family="DejaVuSans" font-size="12.00">tex_types.h</text>
</a>
</g>
</g>
<!-- Node7&#45;&gt;Node8 -->
<g id="edge8" class="edge">
<title>Node7&#45;&gt;Node8</title>
<path fill="none" stroke="midnightblue" d="M168.21,-290.25C156.1,-282.21 140.6,-269.6 133,-254 106.45,-199.48 113.18,-124.86 118.47,-89.76"/>
<polygon fill="midnightblue" stroke="midnightblue" points="121.93,-90.27 120.09,-79.84 115.02,-89.14 121.93,-90.27"/>
</g>
<!-- Node11 -->
<g id="node11" class="node">
<title>Node11</title>
<g id="a_node11"><a xlink:href="tex__constant_8h.html" target="_top" xlink:title=" ">
<polygon fill="white" stroke="black" points="142,-232.5 142,-253.5 236,-253.5 236,-232.5 142,-232.5"/>
<text text-anchor="middle" x="189" y="-239.9" font-family="DejaVuSans" font-size="12.00">tex_constant.h</text>
</a>
</g>
</g>
<!-- Node7&#45;&gt;Node11 -->
<g id="edge11" class="edge">
<title>Node7&#45;&gt;Node11</title>
<path fill="none" stroke="midnightblue" d="M185.7,-290.25C186.22,-282.94 186.95,-272.69 187.59,-263.7"/>
<polygon fill="midnightblue" stroke="midnightblue" points="191.09,-263.87 188.31,-253.64 184.11,-263.37 191.09,-263.87"/>
</g>
<!-- Node9 -->
<g id="node9" class="node">
<title>Node9</title>
<g id="a_node9"><a xlink:title=" ">
<polygon fill="white" stroke="#bfbfbf" points="89.5,-0.5 89.5,-21.5 154.5,-21.5 154.5,-0.5 89.5,-0.5"/>
<text text-anchor="middle" x="122" y="-7.9" font-family="DejaVuSans" font-size="12.00">stdbool.h</text>
</a>
</g>
</g>
<!-- Node8&#45;&gt;Node9 -->
<g id="edge9" class="edge">
<title>Node8&#45;&gt;Node9</title>
<path fill="none" stroke="midnightblue" d="M122,-58.25C122,-50.94 122,-40.69 122,-31.7"/>
<polygon fill="midnightblue" stroke="midnightblue" points="125.5,-31.64 122,-21.64 118.5,-31.64 125.5,-31.64"/>
</g>
<!-- Node10 -->
<g id="node10" class="node">
<title>Node10</title>
<g id="a_node10"><a xlink:title=" ">
<polygon fill="white" stroke="#bfbfbf" points="187.5,-0.5 187.5,-21.5 242.5,-21.5 242.5,-0.5 187.5,-0.5"/>
<text text-anchor="middle" x="215" y="-7.9" font-family="DejaVuSans" font-size="12.00">stdint.h</text>
</a>
</g>
</g>
<!-- Node8&#45;&gt;Node10 -->
<g id="edge10" class="edge">
<title>Node8&#45;&gt;Node10</title>
<path fill="none" stroke="midnightblue" d="M138.2,-58.25C152.6,-49.57 173.87,-36.76 190.38,-26.82"/>
<polygon fill="midnightblue" stroke="midnightblue" points="192.22,-29.8 198.99,-21.64 188.61,-23.8 192.22,-29.8"/>
</g>
<!-- Node12 -->
<g id="node12" class="node">
<title>Node12</title>
<g id="a_node12"><a xlink:href="box_8h.html" target="_top" xlink:title=" ">
<polygon fill="white" stroke="black" points="228,-174.5 228,-195.5 274,-195.5 274,-174.5 228,-174.5"/>
<text text-anchor="middle" x="251" y="-181.9" font-family="DejaVuSans" font-size="12.00">box.h</text>
</a>
</g>
</g>
<!-- Node11&#45;&gt;Node12 -->
<g id="edge12" class="edge">
<title>Node11&#45;&gt;Node12</title>
<path fill="none" stroke="midnightblue" d="M199.8,-232.25C208.87,-224.05 222.02,-212.17 232.72,-202.51"/>
<polygon fill="midnightblue" stroke="midnightblue" points="235.25,-204.94 240.32,-195.64 230.56,-199.75 235.25,-204.94"/>
</g>
<!-- Node13 -->
<g id="node13" class="node">
<title>Node13</title>
<g id="a_node13"><a xlink:href="str_8h.html" target="_top" xlink:title=" ">
<polygon fill="white" stroke="black" points="231.5,-116.5 231.5,-137.5 270.5,-137.5 270.5,-116.5 231.5,-116.5"/>
<text text-anchor="middle" x="251" y="-123.9" font-family="DejaVuSans" font-size="12.00">str.h</text>
</a>
</g>
</g>
<!-- Node12&#45;&gt;Node13 -->
<g id="edge13" class="edge">
<title>Node12&#45;&gt;Node13</title>
<path fill="none" stroke="midnightblue" d="M251,-174.25C251,-166.94 251,-156.69 251,-147.7"/>
<polygon fill="midnightblue" stroke="midnightblue" points="254.5,-147.64 251,-137.64 247.5,-147.64 254.5,-147.64"/>
</g>
<!-- Node13&#45;&gt;Node3 -->
<g id="edge16" class="edge">
<title>Node13&#45;&gt;Node3</title>
<path fill="none" stroke="midnightblue" d="M270.74,-120.53C302.51,-111.72 365.79,-94.18 408.76,-82.26"/>
<polygon fill="midnightblue" stroke="midnightblue" points="409.71,-85.63 418.41,-79.59 407.84,-78.89 409.71,-85.63"/>
</g>
<!-- Node13&#45;&gt;Node5 -->
<g id="edge14" class="edge">
<title>Node13&#45;&gt;Node5</title>
<path fill="none" stroke="midnightblue" d="M260.21,-116.28C278.54,-96.93 319.81,-53.37 342.78,-29.12"/>
<polygon fill="midnightblue" stroke="midnightblue" points="345.48,-31.36 349.82,-21.69 340.4,-26.55 345.48,-31.36"/>
</g>
<!-- Node13&#45;&gt;Node8 -->
<g id="edge17" class="edge">
<title>Node13&#45;&gt;Node8</title>
<path fill="none" stroke="midnightblue" d="M231.41,-117.49C210.63,-108.47 177.49,-94.09 153.13,-83.51"/>
<polygon fill="midnightblue" stroke="midnightblue" points="154.51,-80.3 143.94,-79.52 151.72,-86.72 154.51,-80.3"/>
</g>
<!-- Node13&#45;&gt;Node10 -->
<g id="edge15" class="edge">
<title>Node13&#45;&gt;Node10</title>
<path fill="none" stroke="midnightblue" d="M247.93,-116.28C242.01,-97.52 228.89,-56 221.12,-31.38"/>
<polygon fill="midnightblue" stroke="midnightblue" points="224.41,-30.18 218.06,-21.69 217.74,-32.28 224.41,-30.18"/>
</g>
<!-- Node14&#45;&gt;Node8 -->
<g id="edge19" class="edge">
<title>Node14&#45;&gt;Node8</title>
<path fill="none" stroke="midnightblue" d="M190.76,-522.43C150.38,-494.01 38,-405.63 38,-302 38,-302 38,-302 38,-184 38,-142.22 75.03,-105.67 99.91,-85.82"/>
<polygon fill="midnightblue" stroke="midnightblue" points="102.33,-88.38 108.13,-79.51 98.07,-82.82 102.33,-88.38"/>
</g>
<!-- Node15 -->
<g id="node15" class="node">
<title>Node15</title>
<g id="a_node15"><a xlink:href="global_8h.html" target="_top" xlink:title=" ">
<polygon fill="white" stroke="black" points="176,-464.5 176,-485.5 234,-485.5 234,-464.5 176,-464.5"/>
<text text-anchor="middle" x="205" y="-471.9" font-family="DejaVuSans" font-size="12.00">global.h</text>
</a>
</g>
</g>
<!-- Node14&#45;&gt;Node15 -->
<g id="edge20" class="edge">
<title>Node14&#45;&gt;Node15</title>
<path fill="none" stroke="midnightblue" d="M205,-522.25C205,-514.94 205,-504.69 205,-495.7"/>
<polygon fill="midnightblue" stroke="midnightblue" points="208.5,-495.64 205,-485.64 201.5,-495.64 208.5,-495.64"/>
</g>
<!-- Node15&#45;&gt;Node13 -->
<g id="edge22" class="edge">
<title>Node15&#45;&gt;Node13</title>
<path fill="none" stroke="midnightblue" d="M202.44,-464.19C198.57,-450.42 190.33,-424.95 178,-406 142.69,-351.73 76,-366.74 76,-302 76,-302 76,-302 76,-242 76,-173.45 171.44,-143.98 221.36,-133.25"/>
<polygon fill="midnightblue" stroke="midnightblue" points="222.16,-136.65 231.27,-131.24 220.77,-129.79 222.16,-136.65"/>
</g>
<!-- Node16 -->
<g id="node16" class="node">
<title>Node16</title>
<g id="a_node16"><a xlink:title=" ">
<polygon fill="white" stroke="#bfbfbf" points="107,-406.5 107,-427.5 169,-427.5 169,-406.5 107,-406.5"/>
<text text-anchor="middle" x="138" y="-413.9" font-family="DejaVuSans" font-size="12.00">setjmp.h</text>
</a>
</g>
</g>
<!-- Node15&#45;&gt;Node16 -->
<g id="edge21" class="edge">
<title>Node15&#45;&gt;Node16</title>
<path fill="none" stroke="midnightblue" d="M193.33,-464.25C183.43,-455.97 169.04,-443.94 157.41,-434.22"/>
<polygon fill="midnightblue" stroke="midnightblue" points="159.45,-431.37 149.54,-427.64 154.97,-436.74 159.45,-431.37"/>
</g>
<!-- Node17 -->
<g id="node17" class="node">
<title>Node17</title>
<g id="a_node17"><a xlink:href="scan_8h.html" target="_top" xlink:title=" ">
<polygon fill="white" stroke="black" points="294,-406.5 294,-427.5 346,-427.5 346,-406.5 294,-406.5"/>
<text text-anchor="middle" x="320" y="-413.9" font-family="DejaVuSans" font-size="12.00">scan.h</text>
</a>
</g>
</g>
<!-- Node15&#45;&gt;Node17 -->
<g id="edge23" class="edge">
<title>Node15&#45;&gt;Node17</title>
<path fill="none" stroke="midnightblue" d="M224.77,-464.37C243.15,-455.42 270.73,-441.99 291.49,-431.88"/>
<polygon fill="midnightblue" stroke="midnightblue" points="293.03,-435.03 300.49,-427.5 289.97,-428.73 293.03,-435.03"/>
</g>
<!-- Node18 -->
<g id="node18" class="node">
<title>Node18</title>
<g id="a_node18"><a xlink:href="fonts_8h.html" target="_top" xlink:title=" ">
<polygon fill="white" stroke="black" points="371,-232.5 371,-253.5 423,-253.5 423,-232.5 371,-232.5"/>
<text text-anchor="middle" x="397" y="-239.9" font-family="DejaVuSans" font-size="12.00">fonts.h</text>
</a>
</g>
</g>
<!-- Node15&#45;&gt;Node18 -->
<g id="edge25" class="edge">
<title>Node15&#45;&gt;Node18</title>
<path fill="none" stroke="midnightblue" d="M234.04,-473.38C268,-471.02 323.57,-461.82 355,-428 398.06,-381.67 400.06,-300.59 398.44,-263.51"/>
<polygon fill="midnightblue" stroke="midnightblue" points="401.94,-263.28 397.86,-253.5 394.95,-263.69 401.94,-263.28"/>
</g>
<!-- Node17&#45;&gt;Node6 -->
<g id="edge24" class="edge">
<title>Node17&#45;&gt;Node6</title>
<path fill="none" stroke="midnightblue" d="M320,-406.25C320,-398.94 320,-388.69 320,-379.7"/>
<polygon fill="midnightblue" stroke="midnightblue" points="323.5,-379.64 320,-369.64 316.5,-379.64 323.5,-379.64"/>
</g>
<!-- Node18&#45;&gt;Node3 -->
<g id="edge27" class="edge">
<title>Node18&#45;&gt;Node3</title>
<path fill="none" stroke="midnightblue" d="M400.17,-232.26C409.14,-204.71 434.82,-125.83 446.76,-89.17"/>
<polygon fill="midnightblue" stroke="midnightblue" points="450.1,-90.23 449.86,-79.63 443.44,-88.06 450.1,-90.23"/>
</g>
<!-- Node18&#45;&gt;Node5 -->
<g id="edge26" class="edge">
<title>Node18&#45;&gt;Node5</title>
<path fill="none" stroke="midnightblue" d="M395.42,-232.41C389.69,-197.78 370.03,-78.74 362.23,-31.52"/>
<polygon fill="midnightblue" stroke="midnightblue" points="365.67,-30.93 360.59,-21.63 358.77,-32.07 365.67,-30.93"/>
</g>
<!-- Node19&#45;&gt;Node7 -->
<g id="edge30" class="edge">
<title>Node19&#45;&gt;Node7</title>
<path fill="none" stroke="midnightblue" d="M210.91,-639.22C158.24,-620.02 41,-572.92 41,-534 41,-534 41,-534 41,-474 41,-401.23 117.73,-343.05 159.17,-316.93"/>
<polygon fill="midnightblue" stroke="midnightblue" points="161.22,-319.78 167.92,-311.57 157.56,-313.81 161.22,-319.78"/>
</g>
<!-- Node19&#45;&gt;Node8 -->
<g id="edge29" class="edge">
<title>Node19&#45;&gt;Node8</title>
<path fill="none" stroke="midnightblue" d="M210.66,-640.55C166.57,-627.57 80.37,-602.2 80,-602 38.95,-579.81 0,-580.66 0,-534 0,-534 0,-534 0,-184 0,-135.3 52.53,-101.43 88.66,-83.89"/>
<polygon fill="midnightblue" stroke="midnightblue" points="90.31,-86.98 97.9,-79.58 87.35,-80.64 90.31,-86.98"/>
</g>
<!-- Node19&#45;&gt;Node13 -->
<g id="edge33" class="edge">
<title>Node19&#45;&gt;Node13</title>
<path fill="none" stroke="midnightblue" d="M240.3,-638.46C248.59,-619.16 266,-573.91 266,-534 266,-534 266,-534 266,-416 266,-369.16 279.21,-358.68 283,-312 287.96,-250.87 301.35,-232.52 283,-174 279.75,-163.64 273.25,-153.57 266.95,-145.5"/>
<polygon fill="midnightblue" stroke="midnightblue" points="269.46,-143.05 260.36,-137.62 264.09,-147.54 269.46,-143.05"/>
</g>
<!-- Node20 -->
<g id="node20" class="node">
<title>Node20</title>
<g id="a_node20"><a xlink:href="texmac_8h.html" target="_top" xlink:title=" ">
<polygon fill="white" stroke="black" points="172.5,-580.5 172.5,-601.5 237.5,-601.5 237.5,-580.5 172.5,-580.5"/>
<text text-anchor="middle" x="205" y="-587.9" font-family="DejaVuSans" font-size="12.00">texmac.h</text>
</a>
</g>
</g>
<!-- Node19&#45;&gt;Node20 -->
<g id="edge31" class="edge">
<title>Node19&#45;&gt;Node20</title>
<path fill="none" stroke="midnightblue" d="M230.6,-638.25C226.38,-630.62 220.38,-619.79 215.26,-610.53"/>
<polygon fill="midnightblue" stroke="midnightblue" points="218.24,-608.7 210.34,-601.64 212.12,-612.09 218.24,-608.7"/>
</g>
<!-- Node20&#45;&gt;Node14 -->
<g id="edge32" class="edge">
<title>Node20&#45;&gt;Node14</title>
<path fill="none" stroke="midnightblue" d="M205,-580.25C205,-572.94 205,-562.69 205,-553.7"/>
<polygon fill="midnightblue" stroke="midnightblue" points="208.5,-553.64 205,-543.64 201.5,-553.64 208.5,-553.64"/>
</g>
<!-- Node24&#45;&gt;Node3 -->
<g id="edge38" class="edge">
<title>Node24&#45;&gt;Node3</title>
<path fill="none" stroke="midnightblue" d="M437.72,-348.33C442.98,-328.79 454,-283.13 454,-244 454,-244 454,-244 454,-184 454,-150.98 453.58,-112.59 453.28,-89.85"/>
<polygon fill="midnightblue" stroke="midnightblue" points="456.78,-89.71 453.14,-79.76 449.78,-89.81 456.78,-89.71"/>
</g>
<!-- Node24&#45;&gt;Node7 -->
<g id="edge39" class="edge">
<title>Node24&#45;&gt;Node7</title>
<path fill="none" stroke="midnightblue" d="M401.92,-352.32C360.57,-344.94 287.49,-331.04 216.25,-312.11"/>
<polygon fill="midnightblue" stroke="midnightblue" points="216.78,-308.63 206.21,-309.41 214.96,-315.39 216.78,-308.63"/>
</g>
<!-- Node24&#45;&gt;Node18 -->
<g id="edge40" class="edge">
<title>Node24&#45;&gt;Node18</title>
<path fill="none" stroke="midnightblue" d="M431.76,-348.28C425.51,-329.52 411.67,-288 403.46,-263.38"/>
<polygon fill="midnightblue" stroke="midnightblue" points="406.71,-262.07 400.23,-253.69 400.07,-264.29 406.71,-262.07"/>
</g>
<!-- Node25 -->
<g id="node25" class="node">
<title>Node25</title>
<g id="a_node25"><a xlink:href="eqtb_8h.html" target="_top" xlink:title=" ">
<polygon fill="white" stroke="black" points="224,-290.5 224,-311.5 274,-311.5 274,-290.5 224,-290.5"/>
<text text-anchor="middle" x="249" y="-297.9" font-family="DejaVuSans" font-size="12.00">eqtb.h</text>
</a>
</g>
</g>
<!-- Node24&#45;&gt;Node25 -->
<g id="edge41" class="edge">
<title>Node24&#45;&gt;Node25</title>
<path fill="none" stroke="midnightblue" d="M403.03,-348.37C369.75,-338.35 317.81,-322.72 283.59,-312.41"/>
<polygon fill="midnightblue" stroke="midnightblue" points="284.6,-309.06 274.01,-309.53 282.58,-315.76 284.6,-309.06"/>
</g>
<!-- Node25&#45;&gt;Node8 -->
<g id="edge42" class="edge">
<title>Node25&#45;&gt;Node8</title>
<path fill="none" stroke="midnightblue" d="M250.14,-290.41C251.38,-276.91 252.3,-251.74 245,-232 243.45,-227.81 167.64,-129.21 135.82,-87.92"/>
<polygon fill="midnightblue" stroke="midnightblue" points="138.46,-85.6 129.58,-79.82 132.91,-89.88 138.46,-85.6"/>
</g>
<!-- Node25&#45;&gt;Node11 -->
<g id="edge43" class="edge">
<title>Node25&#45;&gt;Node11</title>
<path fill="none" stroke="midnightblue" d="M238.55,-290.25C229.77,-282.05 217.04,-270.17 206.69,-260.51"/>
<polygon fill="midnightblue" stroke="midnightblue" points="209.03,-257.91 199.33,-253.64 204.25,-263.02 209.03,-257.91"/>
</g>
</g>
</svg>
