<?xml version="1.0" encoding="UTF-8" standalone="no"?>
<!DOCTYPE svg PUBLIC "-//W3C//DTD SVG 1.1//EN"
 "http://www.w3.org/Graphics/SVG/1.1/DTD/svg11.dtd">
<!-- Generated by graphviz version 2.44.0 ()
 -->
<!-- Title: hyphen_pre.c Pages: 1 -->
<svg width="920pt" height="436pt"
 viewBox="0.00 0.00 919.50 436.00" xmlns="http://www.w3.org/2000/svg" xmlns:xlink="http://www.w3.org/1999/xlink">
<g id="graph0" class="graph" transform="scale(1 1) rotate(0) translate(4 432)">
<title>hyphen_pre.c</title>
<polygon fill="white" stroke="transparent" points="-4,4 -4,-432 915.5,-432 915.5,4 -4,4"/>
<!-- Node1 -->
<g id="node1" class="node">
<title>Node1</title>
<g id="a_node1"><a xlink:title=" ">
<polygon fill="#bfbfbf" stroke="black" points="540.5,-406.5 540.5,-427.5 629.5,-427.5 629.5,-406.5 540.5,-406.5"/>
<text text-anchor="middle" x="585" y="-413.9" font-family="DejaVuSans" font-size="12.00">hyphen_pre.c</text>
</a>
</g>
</g>
<!-- Node2 -->
<g id="node2" class="node">
<title>Node2</title>
<g id="a_node2"><a xlink:href="mem_8h.html" target="_top" xlink:title=" ">
<polygon fill="white" stroke="black" points="258.5,-232.5 258.5,-253.5 311.5,-253.5 311.5,-232.5 258.5,-232.5"/>
<text text-anchor="middle" x="285" y="-239.9" font-family="DejaVuSans" font-size="12.00">mem.h</text>
</a>
</g>
</g>
<!-- Node1&#45;&gt;Node2 -->
<g id="edge1" class="edge">
<title>Node1&#45;&gt;Node2</title>
<path fill="none" stroke="midnightblue" d="M548.45,-406.5C519.68,-398.42 478.91,-385.67 445,-370 400.09,-349.25 388.53,-343.03 350,-312 330.86,-296.59 311.77,-275.8 299.27,-261.28"/>
<polygon fill="midnightblue" stroke="midnightblue" points="301.86,-258.92 292.73,-253.55 296.52,-263.44 301.86,-258.92"/>
</g>
<!-- Node11 -->
<g id="node11" class="node">
<title>Node11</title>
<g id="a_node11"><a xlink:href="print_8h.html" target="_top" xlink:title=" ">
<polygon fill="white" stroke="black" points="205,-290.5 205,-311.5 255,-311.5 255,-290.5 205,-290.5"/>
<text text-anchor="middle" x="230" y="-297.9" font-family="DejaVuSans" font-size="12.00">print.h</text>
</a>
</g>
</g>
<!-- Node1&#45;&gt;Node11 -->
<g id="edge10" class="edge">
<title>Node1&#45;&gt;Node11</title>
<path fill="none" stroke="midnightblue" d="M540.33,-413.24C467.21,-408.06 325.79,-395.07 283,-370 263.32,-358.47 248.29,-336.58 239.35,-320.74"/>
<polygon fill="midnightblue" stroke="midnightblue" points="242.38,-318.98 234.58,-311.81 236.2,-322.28 242.38,-318.98"/>
</g>
<!-- Node14 -->
<g id="node14" class="node">
<title>Node14</title>
<g id="a_node14"><a xlink:href="eqtb_8h.html" target="_top" xlink:title=" ">
<polygon fill="white" stroke="black" points="0,-232.5 0,-253.5 50,-253.5 50,-232.5 0,-232.5"/>
<text text-anchor="middle" x="25" y="-239.9" font-family="DejaVuSans" font-size="12.00">eqtb.h</text>
</a>
</g>
</g>
<!-- Node1&#45;&gt;Node14 -->
<g id="edge24" class="edge">
<title>Node1&#45;&gt;Node14</title>
<path fill="none" stroke="midnightblue" d="M540.31,-413.95C422.69,-407.6 108.84,-384.11 40,-312 27.89,-299.32 24.69,-279.18 24.19,-264.11"/>
<polygon fill="midnightblue" stroke="midnightblue" points="27.69,-263.78 24.23,-253.77 20.69,-263.76 27.69,-263.78"/>
</g>
<!-- Node16 -->
<g id="node16" class="node">
<title>Node16</title>
<g id="a_node16"><a xlink:href="pack_8h.html" target="_top" xlink:title=" ">
<polygon fill="white" stroke="black" points="623,-348.5 623,-369.5 675,-369.5 675,-348.5 623,-348.5"/>
<text text-anchor="middle" x="649" y="-355.9" font-family="DejaVuSans" font-size="12.00">pack.h</text>
</a>
</g>
</g>
<!-- Node1&#45;&gt;Node16 -->
<g id="edge25" class="edge">
<title>Node1&#45;&gt;Node16</title>
<path fill="none" stroke="midnightblue" d="M596.15,-406.25C605.51,-398.05 619.09,-386.17 630.13,-376.51"/>
<polygon fill="midnightblue" stroke="midnightblue" points="632.76,-378.86 637.98,-369.64 628.15,-373.59 632.76,-378.86"/>
</g>
<!-- Node18 -->
<g id="node18" class="node">
<title>Node18</title>
<g id="a_node18"><a xlink:href="texmath_8h.html" target="_top" xlink:title=" ">
<polygon fill="white" stroke="black" points="728,-232.5 728,-253.5 796,-253.5 796,-232.5 728,-232.5"/>
<text text-anchor="middle" x="762" y="-239.9" font-family="DejaVuSans" font-size="12.00">texmath.h</text>
</a>
</g>
</g>
<!-- Node1&#45;&gt;Node18 -->
<g id="edge36" class="edge">
<title>Node1&#45;&gt;Node18</title>
<path fill="none" stroke="midnightblue" d="M629.56,-408.82C679.83,-397.94 758.41,-371.8 788,-312 796.09,-295.64 786.79,-276.11 777.13,-262.18"/>
<polygon fill="midnightblue" stroke="midnightblue" points="779.73,-259.81 770.92,-253.93 774.14,-264.02 779.73,-259.81"/>
</g>
<!-- Node19 -->
<g id="node19" class="node">
<title>Node19</title>
<g id="a_node19"><a xlink:href="error_8h.html" target="_top" xlink:title=" ">
<polygon fill="white" stroke="black" points="728.5,-290.5 728.5,-311.5 779.5,-311.5 779.5,-290.5 728.5,-290.5"/>
<text text-anchor="middle" x="754" y="-297.9" font-family="DejaVuSans" font-size="12.00">error.h</text>
</a>
</g>
</g>
<!-- Node1&#45;&gt;Node19 -->
<g id="edge33" class="edge">
<title>Node1&#45;&gt;Node19</title>
<path fill="none" stroke="midnightblue" d="M611.93,-406.34C632.61,-398.27 661.36,-385.58 684,-370 705,-355.54 725.5,-334.59 738.83,-319.77"/>
<polygon fill="midnightblue" stroke="midnightblue" points="741.82,-321.67 745.8,-311.85 736.56,-317.04 741.82,-321.67"/>
</g>
<!-- Node20 -->
<g id="node20" class="node">
<title>Node20</title>
<g id="a_node20"><a xlink:href="linebreak_8h.html" target="_top" xlink:title=" ">
<polygon fill="white" stroke="black" points="836.5,-348.5 836.5,-369.5 911.5,-369.5 911.5,-348.5 836.5,-348.5"/>
<text text-anchor="middle" x="874" y="-355.9" font-family="DejaVuSans" font-size="12.00">linebreak.h</text>
</a>
</g>
</g>
<!-- Node1&#45;&gt;Node20 -->
<g id="edge37" class="edge">
<title>Node1&#45;&gt;Node20</title>
<path fill="none" stroke="midnightblue" d="M629.52,-407.37C682.77,-397.05 771.56,-379.85 826.21,-369.26"/>
<polygon fill="midnightblue" stroke="midnightblue" points="827.18,-372.64 836.34,-367.3 825.85,-365.76 827.18,-372.64"/>
</g>
<!-- Node21 -->
<g id="node21" class="node">
<title>Node21</title>
<g id="a_node21"><a xlink:href="hyphen_8h.html" target="_top" xlink:title=" ">
<polygon fill="white" stroke="black" points="454,-348.5 454,-369.5 520,-369.5 520,-348.5 454,-348.5"/>
<text text-anchor="middle" x="487" y="-355.9" font-family="DejaVuSans" font-size="12.00">hyphen.h</text>
</a>
</g>
</g>
<!-- Node1&#45;&gt;Node21 -->
<g id="edge39" class="edge">
<title>Node1&#45;&gt;Node21</title>
<path fill="none" stroke="midnightblue" d="M567.93,-406.25C552.75,-397.57 530.34,-384.76 512.94,-374.82"/>
<polygon fill="midnightblue" stroke="midnightblue" points="514.29,-371.57 503.87,-369.64 510.82,-377.64 514.29,-371.57"/>
</g>
<!-- Node3 -->
<g id="node3" class="node">
<title>Node3</title>
<g id="a_node3"><a xlink:href="global_8h.html" target="_top" xlink:title=" ">
<polygon fill="white" stroke="black" points="535,-116.5 535,-137.5 593,-137.5 593,-116.5 535,-116.5"/>
<text text-anchor="middle" x="564" y="-123.9" font-family="DejaVuSans" font-size="12.00">global.h</text>
</a>
</g>
</g>
<!-- Node2&#45;&gt;Node3 -->
<g id="edge2" class="edge">
<title>Node2&#45;&gt;Node3</title>
<path fill="none" stroke="midnightblue" d="M283.88,-232.07C282.82,-217.2 283.25,-189.27 299,-174 330.52,-143.45 458.7,-132.96 524.55,-129.54"/>
<polygon fill="midnightblue" stroke="midnightblue" points="525.12,-133.02 534.93,-129.04 524.78,-126.03 525.12,-133.02"/>
</g>
<!-- Node10 -->
<g id="node10" class="node">
<title>Node10</title>
<g id="a_node10"><a xlink:href="tex__constant_8h.html" target="_top" xlink:title=" ">
<polygon fill="white" stroke="black" points="43,-174.5 43,-195.5 137,-195.5 137,-174.5 43,-174.5"/>
<text text-anchor="middle" x="90" y="-181.9" font-family="DejaVuSans" font-size="12.00">tex_constant.h</text>
</a>
</g>
</g>
<!-- Node2&#45;&gt;Node10 -->
<g id="edge9" class="edge">
<title>Node2&#45;&gt;Node10</title>
<path fill="none" stroke="midnightblue" d="M258.29,-234.33C226.03,-225.06 171.31,-209.35 133.06,-198.37"/>
<polygon fill="midnightblue" stroke="midnightblue" points="133.8,-194.94 123.22,-195.54 131.87,-201.67 133.8,-194.94"/>
</g>
<!-- Node4 -->
<g id="node4" class="node">
<title>Node4</title>
<g id="a_node4"><a xlink:href="global__macros_8h.html" target="_top" xlink:title=" ">
<polygon fill="white" stroke="black" points="623,-58.5 623,-79.5 727,-79.5 727,-58.5 623,-58.5"/>
<text text-anchor="middle" x="675" y="-65.9" font-family="DejaVuSans" font-size="12.00">global_macros.h</text>
</a>
</g>
</g>
<!-- Node3&#45;&gt;Node4 -->
<g id="edge3" class="edge">
<title>Node3&#45;&gt;Node4</title>
<path fill="none" stroke="midnightblue" d="M583.08,-116.37C600.74,-107.46 627.21,-94.11 647.21,-84.02"/>
<polygon fill="midnightblue" stroke="midnightblue" points="648.82,-87.13 656.17,-79.5 645.66,-80.88 648.82,-87.13"/>
</g>
<!-- Node6 -->
<g id="node6" class="node">
<title>Node6</title>
<g id="a_node6"><a xlink:href="global__const_8h.html" target="_top" xlink:title=" ">
<polygon fill="white" stroke="black" points="416.5,-58.5 416.5,-79.5 509.5,-79.5 509.5,-58.5 416.5,-58.5"/>
<text text-anchor="middle" x="463" y="-65.9" font-family="DejaVuSans" font-size="12.00">global_const.h</text>
</a>
</g>
</g>
<!-- Node3&#45;&gt;Node6 -->
<g id="edge5" class="edge">
<title>Node3&#45;&gt;Node6</title>
<path fill="none" stroke="midnightblue" d="M546.41,-116.25C530.62,-107.49 507.24,-94.53 489.24,-84.55"/>
<polygon fill="midnightblue" stroke="midnightblue" points="490.83,-81.43 480.39,-79.64 487.44,-87.55 490.83,-81.43"/>
</g>
<!-- Node7 -->
<g id="node7" class="node">
<title>Node7</title>
<g id="a_node7"><a xlink:href="tex__types_8h.html" target="_top" xlink:title=" ">
<polygon fill="white" stroke="black" points="527.5,-58.5 527.5,-79.5 604.5,-79.5 604.5,-58.5 527.5,-58.5"/>
<text text-anchor="middle" x="566" y="-65.9" font-family="DejaVuSans" font-size="12.00">tex_types.h</text>
</a>
</g>
</g>
<!-- Node3&#45;&gt;Node7 -->
<g id="edge6" class="edge">
<title>Node3&#45;&gt;Node7</title>
<path fill="none" stroke="midnightblue" d="M564.35,-116.25C564.61,-108.94 564.98,-98.69 565.3,-89.7"/>
<polygon fill="midnightblue" stroke="midnightblue" points="568.8,-89.76 565.66,-79.64 561.8,-89.51 568.8,-89.76"/>
</g>
<!-- Node5 -->
<g id="node5" class="node">
<title>Node5</title>
<g id="a_node5"><a xlink:title=" ">
<polygon fill="white" stroke="#bfbfbf" points="645.5,-0.5 645.5,-21.5 704.5,-21.5 704.5,-0.5 645.5,-0.5"/>
<text text-anchor="middle" x="675" y="-7.9" font-family="DejaVuSans" font-size="12.00">assert.h</text>
</a>
</g>
</g>
<!-- Node4&#45;&gt;Node5 -->
<g id="edge4" class="edge">
<title>Node4&#45;&gt;Node5</title>
<path fill="none" stroke="midnightblue" d="M675,-58.25C675,-50.94 675,-40.69 675,-31.7"/>
<polygon fill="midnightblue" stroke="midnightblue" points="678.5,-31.64 675,-21.64 671.5,-31.64 678.5,-31.64"/>
</g>
<!-- Node8 -->
<g id="node8" class="node">
<title>Node8</title>
<g id="a_node8"><a xlink:title=" ">
<polygon fill="white" stroke="#bfbfbf" points="533.5,-0.5 533.5,-21.5 598.5,-21.5 598.5,-0.5 533.5,-0.5"/>
<text text-anchor="middle" x="566" y="-7.9" font-family="DejaVuSans" font-size="12.00">stdbool.h</text>
</a>
</g>
</g>
<!-- Node7&#45;&gt;Node8 -->
<g id="edge7" class="edge">
<title>Node7&#45;&gt;Node8</title>
<path fill="none" stroke="midnightblue" d="M566,-58.25C566,-50.94 566,-40.69 566,-31.7"/>
<polygon fill="midnightblue" stroke="midnightblue" points="569.5,-31.64 566,-21.64 562.5,-31.64 569.5,-31.64"/>
</g>
<!-- Node9 -->
<g id="node9" class="node">
<title>Node9</title>
<g id="a_node9"><a xlink:title=" ">
<polygon fill="white" stroke="#bfbfbf" points="410.5,-0.5 410.5,-21.5 465.5,-21.5 465.5,-0.5 410.5,-0.5"/>
<text text-anchor="middle" x="438" y="-7.9" font-family="DejaVuSans" font-size="12.00">stdint.h</text>
</a>
</g>
</g>
<!-- Node7&#45;&gt;Node9 -->
<g id="edge8" class="edge">
<title>Node7&#45;&gt;Node9</title>
<path fill="none" stroke="midnightblue" d="M544,-58.37C523.36,-49.34 492.28,-35.75 469.11,-25.61"/>
<polygon fill="midnightblue" stroke="midnightblue" points="470.28,-22.3 459.72,-21.5 467.48,-28.72 470.28,-22.3"/>
</g>
<!-- Node11&#45;&gt;Node3 -->
<g id="edge12" class="edge">
<title>Node11&#45;&gt;Node3</title>
<path fill="none" stroke="midnightblue" d="M228.69,-290.34C227.25,-276.76 226.09,-251.51 234,-232 246.79,-200.46 254.31,-190.65 284,-174 324.58,-151.24 457.72,-137.02 524.73,-131.13"/>
<polygon fill="midnightblue" stroke="midnightblue" points="525.23,-134.6 534.9,-130.26 524.63,-127.63 525.23,-134.6"/>
</g>
<!-- Node11&#45;&gt;Node10 -->
<g id="edge15" class="edge">
<title>Node11&#45;&gt;Node10</title>
<path fill="none" stroke="midnightblue" d="M204.85,-290.85C185.68,-283.05 159.38,-270.48 140,-254 123.52,-239.98 109.41,-219.51 100.43,-204.7"/>
<polygon fill="midnightblue" stroke="midnightblue" points="103.36,-202.77 95.29,-195.9 97.31,-206.3 103.36,-202.77"/>
</g>
<!-- Node12 -->
<g id="node12" class="node">
<title>Node12</title>
<g id="a_node12"><a xlink:title=" ">
<polygon fill="white" stroke="#bfbfbf" points="308,-174.5 308,-195.5 360,-195.5 360,-174.5 308,-174.5"/>
<text text-anchor="middle" x="334" y="-181.9" font-family="DejaVuSans" font-size="12.00">stdio.h</text>
</a>
</g>
</g>
<!-- Node11&#45;&gt;Node12 -->
<g id="edge11" class="edge">
<title>Node11&#45;&gt;Node12</title>
<path fill="none" stroke="midnightblue" d="M230.39,-290.14C231.43,-275.86 235.24,-249.24 249,-232 261.51,-216.32 280.87,-205.26 297.96,-197.91"/>
<polygon fill="midnightblue" stroke="midnightblue" points="299.71,-200.98 307.69,-194.01 297.1,-194.49 299.71,-200.98"/>
</g>
<!-- Node13 -->
<g id="node13" class="node">
<title>Node13</title>
<g id="a_node13"><a xlink:href="charset_8h.html" target="_top" xlink:title=" ">
<polygon fill="white" stroke="black" points="530.5,-174.5 530.5,-195.5 595.5,-195.5 595.5,-174.5 530.5,-174.5"/>
<text text-anchor="middle" x="563" y="-181.9" font-family="DejaVuSans" font-size="12.00">charset.h</text>
</a>
</g>
</g>
<!-- Node11&#45;&gt;Node13 -->
<g id="edge13" class="edge">
<title>Node11&#45;&gt;Node13</title>
<path fill="none" stroke="midnightblue" d="M255.29,-296.43C294.29,-290.45 371.1,-276.76 433,-254 471.96,-239.67 514.01,-216.03 539.42,-200.73"/>
<polygon fill="midnightblue" stroke="midnightblue" points="541.27,-203.7 547.99,-195.51 537.63,-197.72 541.27,-203.7"/>
</g>
<!-- Node11&#45;&gt;Node14 -->
<g id="edge16" class="edge">
<title>Node11&#45;&gt;Node14</title>
<path fill="none" stroke="midnightblue" d="M204.86,-293.13C168.49,-283.2 101.06,-264.78 59.89,-253.53"/>
<polygon fill="midnightblue" stroke="midnightblue" points="60.59,-250.09 50.02,-250.84 58.75,-256.85 60.59,-250.09"/>
</g>
<!-- Node15 -->
<g id="node15" class="node">
<title>Node15</title>
<g id="a_node15"><a xlink:href="str_8h.html" target="_top" xlink:title=" ">
<polygon fill="white" stroke="black" points="518.5,-232.5 518.5,-253.5 557.5,-253.5 557.5,-232.5 518.5,-232.5"/>
<text text-anchor="middle" x="538" y="-239.9" font-family="DejaVuSans" font-size="12.00">str.h</text>
</a>
</g>
</g>
<!-- Node11&#45;&gt;Node15 -->
<g id="edge19" class="edge">
<title>Node11&#45;&gt;Node15</title>
<path fill="none" stroke="midnightblue" d="M255.13,-296.81C303.61,-290.42 413.28,-274.88 504,-254 505.46,-253.66 506.95,-253.3 508.46,-252.92"/>
<polygon fill="midnightblue" stroke="midnightblue" points="509.61,-256.23 518.33,-250.22 507.76,-249.48 509.61,-256.23"/>
</g>
<!-- Node13&#45;&gt;Node3 -->
<g id="edge14" class="edge">
<title>Node13&#45;&gt;Node3</title>
<path fill="none" stroke="midnightblue" d="M563.17,-174.25C563.3,-166.94 563.49,-156.69 563.65,-147.7"/>
<polygon fill="midnightblue" stroke="midnightblue" points="567.15,-147.7 563.83,-137.64 560.15,-147.58 567.15,-147.7"/>
</g>
<!-- Node14&#45;&gt;Node3 -->
<g id="edge17" class="edge">
<title>Node14&#45;&gt;Node3</title>
<path fill="none" stroke="midnightblue" d="M22.98,-232.48C20.44,-217.65 18.16,-189.14 34,-174 69.28,-140.27 407.71,-130.88 524.56,-128.63"/>
<polygon fill="midnightblue" stroke="midnightblue" points="524.9,-132.13 534.84,-128.44 524.78,-125.13 524.9,-132.13"/>
</g>
<!-- Node14&#45;&gt;Node10 -->
<g id="edge18" class="edge">
<title>Node14&#45;&gt;Node10</title>
<path fill="none" stroke="midnightblue" d="M36.32,-232.25C45.92,-223.97 59.89,-211.94 71.17,-202.22"/>
<polygon fill="midnightblue" stroke="midnightblue" points="73.52,-204.82 78.81,-195.64 68.95,-199.52 73.52,-204.82"/>
</g>
<!-- Node15&#45;&gt;Node3 -->
<g id="edge22" class="edge">
<title>Node15&#45;&gt;Node3</title>
<path fill="none" stroke="midnightblue" d="M531.75,-232.07C524.12,-218.59 513.14,-193.92 521,-174 525.55,-162.48 534.49,-152.14 543.05,-144.2"/>
<polygon fill="midnightblue" stroke="midnightblue" points="545.39,-146.81 550.67,-137.62 540.82,-141.51 545.39,-146.81"/>
</g>
<!-- Node15&#45;&gt;Node9 -->
<g id="edge21" class="edge">
<title>Node15&#45;&gt;Node9</title>
<path fill="none" stroke="midnightblue" d="M525.82,-232.27C498.18,-209.32 431.24,-148.54 407,-80 400.82,-62.54 411.17,-43.41 421.54,-29.9"/>
<polygon fill="midnightblue" stroke="midnightblue" points="424.48,-31.84 428.18,-21.91 419.1,-27.36 424.48,-31.84"/>
</g>
<!-- Node15&#45;&gt;Node12 -->
<g id="edge20" class="edge">
<title>Node15&#45;&gt;Node12</title>
<path fill="none" stroke="midnightblue" d="M518.44,-236.63C484.28,-227.25 413.27,-207.76 370.01,-195.89"/>
<polygon fill="midnightblue" stroke="midnightblue" points="370.75,-192.46 360.18,-193.19 368.89,-199.21 370.75,-192.46"/>
</g>
<!-- Node15&#45;&gt;Node13 -->
<g id="edge23" class="edge">
<title>Node15&#45;&gt;Node13</title>
<path fill="none" stroke="midnightblue" d="M542.35,-232.25C545.72,-224.7 550.49,-214.02 554.6,-204.82"/>
<polygon fill="midnightblue" stroke="midnightblue" points="557.81,-206.2 558.7,-195.64 551.42,-203.35 557.81,-206.2"/>
</g>
<!-- Node16&#45;&gt;Node3 -->
<g id="edge26" class="edge">
<title>Node16&#45;&gt;Node3</title>
<path fill="none" stroke="midnightblue" d="M658.36,-348.38C666.12,-339.68 676.58,-326.11 681,-312 694.3,-269.58 694.66,-222.75 657,-174 643.59,-156.64 621.9,-145.39 602.83,-138.36"/>
<polygon fill="midnightblue" stroke="midnightblue" points="603.75,-134.98 593.16,-135.06 601.49,-141.6 603.75,-134.98"/>
</g>
<!-- Node17 -->
<g id="node17" class="node">
<title>Node17</title>
<g id="a_node17"><a xlink:href="box_8h.html" target="_top" xlink:title=" ">
<polygon fill="white" stroke="black" points="626,-290.5 626,-311.5 672,-311.5 672,-290.5 626,-290.5"/>
<text text-anchor="middle" x="649" y="-297.9" font-family="DejaVuSans" font-size="12.00">box.h</text>
</a>
</g>
</g>
<!-- Node16&#45;&gt;Node17 -->
<g id="edge27" class="edge">
<title>Node16&#45;&gt;Node17</title>
<path fill="none" stroke="midnightblue" d="M649,-348.25C649,-340.94 649,-330.69 649,-321.7"/>
<polygon fill="midnightblue" stroke="midnightblue" points="652.5,-321.64 649,-311.64 645.5,-321.64 652.5,-321.64"/>
</g>
<!-- Node17&#45;&gt;Node2 -->
<g id="edge29" class="edge">
<title>Node17&#45;&gt;Node2</title>
<path fill="none" stroke="midnightblue" d="M625.95,-296.45C564.46,-286.99 396.1,-261.09 321.46,-249.61"/>
<polygon fill="midnightblue" stroke="midnightblue" points="321.99,-246.15 311.57,-248.09 320.92,-253.07 321.99,-246.15"/>
</g>
<!-- Node17&#45;&gt;Node3 -->
<g id="edge28" class="edge">
<title>Node17&#45;&gt;Node3</title>
<path fill="none" stroke="midnightblue" d="M650.89,-290.26C654.71,-267.83 661.1,-211.61 638,-174 629.3,-159.83 614.42,-149.35 600.28,-142"/>
<polygon fill="midnightblue" stroke="midnightblue" points="601.7,-138.8 591.17,-137.62 598.67,-145.11 601.7,-138.8"/>
</g>
<!-- Node17&#45;&gt;Node15 -->
<g id="edge32" class="edge">
<title>Node17&#45;&gt;Node15</title>
<path fill="none" stroke="midnightblue" d="M629.92,-290.37C612.26,-281.46 585.79,-268.11 565.79,-258.02"/>
<polygon fill="midnightblue" stroke="midnightblue" points="567.34,-254.88 556.83,-253.5 564.18,-261.13 567.34,-254.88"/>
</g>
<!-- Node17&#45;&gt;Node18 -->
<g id="edge30" class="edge">
<title>Node17&#45;&gt;Node18</title>
<path fill="none" stroke="midnightblue" d="M668.43,-290.37C686.4,-281.46 713.34,-268.11 733.71,-258.02"/>
<polygon fill="midnightblue" stroke="midnightblue" points="735.42,-261.08 742.83,-253.5 732.31,-254.81 735.42,-261.08"/>
</g>
<!-- Node18&#45;&gt;Node3 -->
<g id="edge31" class="edge">
<title>Node18&#45;&gt;Node3</title>
<path fill="none" stroke="midnightblue" d="M757.63,-232.11C750.57,-217.29 735.3,-189.43 714,-174 680.96,-150.07 635.23,-138.39 602.97,-132.82"/>
<polygon fill="midnightblue" stroke="midnightblue" points="603.43,-129.35 593,-131.22 602.32,-136.27 603.43,-129.35"/>
</g>
<!-- Node19&#45;&gt;Node3 -->
<g id="edge34" class="edge">
<title>Node19&#45;&gt;Node3</title>
<path fill="none" stroke="midnightblue" d="M770.25,-290.31C788.84,-277.87 815.46,-255.12 805,-232 770.62,-156.02 662.23,-135.52 603.22,-130.01"/>
<polygon fill="midnightblue" stroke="midnightblue" points="603.4,-126.52 593.15,-129.17 602.82,-133.49 603.4,-126.52"/>
</g>
<!-- Node19&#45;&gt;Node15 -->
<g id="edge35" class="edge">
<title>Node19&#45;&gt;Node15</title>
<path fill="none" stroke="midnightblue" d="M728.37,-293.36C688.01,-282.89 609.84,-262.63 567.31,-251.6"/>
<polygon fill="midnightblue" stroke="midnightblue" points="568.11,-248.19 557.55,-249.07 566.35,-254.97 568.11,-248.19"/>
</g>
<!-- Node20&#45;&gt;Node3 -->
<g id="edge38" class="edge">
<title>Node20&#45;&gt;Node3</title>
<path fill="none" stroke="midnightblue" d="M872.37,-348.16C866.54,-316.36 843.46,-216 779,-174 725.15,-138.92 649.12,-130.08 603.39,-128.15"/>
<polygon fill="midnightblue" stroke="midnightblue" points="603.39,-124.65 593.28,-127.81 603.16,-131.64 603.39,-124.65"/>
</g>
<!-- Node21&#45;&gt;Node2 -->
<g id="edge41" class="edge">
<title>Node21&#45;&gt;Node2</title>
<path fill="none" stroke="midnightblue" d="M464.37,-348.46C444.21,-339.71 414.11,-326.01 389,-312 359.63,-295.61 327.45,-273.96 306.79,-259.54"/>
<polygon fill="midnightblue" stroke="midnightblue" points="308.61,-256.54 298.41,-253.65 304.58,-262.26 308.61,-256.54"/>
</g>
<!-- Node21&#45;&gt;Node3 -->
<g id="edge40" class="edge">
<title>Node21&#45;&gt;Node3</title>
<path fill="none" stroke="midnightblue" d="M506.71,-348.43C521.56,-340.4 541.59,-327.73 555,-312 591.3,-269.41 593.91,-251.05 604,-196 605.76,-186.38 607.42,-183.16 604,-174 599.89,-163 591.82,-152.89 584,-144.97"/>
<polygon fill="midnightblue" stroke="midnightblue" points="586.1,-142.13 576.42,-137.82 581.3,-147.23 586.1,-142.13"/>
</g>
<!-- Node21&#45;&gt;Node10 -->
<g id="edge53" class="edge">
<title>Node21&#45;&gt;Node10</title>
<path fill="none" stroke="midnightblue" d="M453.79,-357.73C398.31,-356.2 284.15,-348.45 196,-312 155.42,-295.22 142.73,-288.85 116,-254 104.97,-239.62 98.13,-220 94.26,-205.54"/>
<polygon fill="midnightblue" stroke="midnightblue" points="97.62,-204.54 91.85,-195.65 90.82,-206.19 97.62,-204.54"/>
</g>
<!-- Node21&#45;&gt;Node13 -->
<g id="edge52" class="edge">
<title>Node21&#45;&gt;Node13</title>
<path fill="none" stroke="midnightblue" d="M497.88,-348.44C516.17,-331.55 552.4,-294.4 566,-254 571.3,-238.27 569.88,-219.33 567.52,-205.44"/>
<polygon fill="midnightblue" stroke="midnightblue" points="570.93,-204.66 565.54,-195.54 564.07,-206.03 570.93,-204.66"/>
</g>
<!-- Node21&#45;&gt;Node14 -->
<g id="edge51" class="edge">
<title>Node21&#45;&gt;Node14</title>
<path fill="none" stroke="midnightblue" d="M453.79,-358.19C365.64,-358.11 128.06,-353.9 64,-312 46.97,-300.86 36.53,-279.54 30.79,-263.73"/>
<polygon fill="midnightblue" stroke="midnightblue" points="33.99,-262.27 27.55,-253.86 27.34,-264.45 33.99,-262.27"/>
</g>
<!-- Node21&#45;&gt;Node17 -->
<g id="edge42" class="edge">
<title>Node21&#45;&gt;Node17</title>
<path fill="none" stroke="midnightblue" d="M514.85,-348.37C543.05,-338.62 586.65,-323.55 616.43,-313.26"/>
<polygon fill="midnightblue" stroke="midnightblue" points="617.66,-316.54 625.96,-309.96 615.37,-309.92 617.66,-316.54"/>
</g>
<!-- Node22 -->
<g id="node22" class="node">
<title>Node22</title>
<g id="a_node22"><a xlink:href="fonts_8h.html" target="_top" xlink:title=" ">
<polygon fill="white" stroke="black" points="398,-290.5 398,-311.5 450,-311.5 450,-290.5 398,-290.5"/>
<text text-anchor="middle" x="424" y="-297.9" font-family="DejaVuSans" font-size="12.00">fonts.h</text>
</a>
</g>
</g>
<!-- Node21&#45;&gt;Node22 -->
<g id="edge43" class="edge">
<title>Node21&#45;&gt;Node22</title>
<path fill="none" stroke="midnightblue" d="M476.03,-348.25C466.81,-340.05 453.45,-328.17 442.57,-318.51"/>
<polygon fill="midnightblue" stroke="midnightblue" points="444.65,-315.67 434.85,-311.64 440,-320.9 444.65,-315.67"/>
</g>
<!-- Node22&#45;&gt;Node3 -->
<g id="edge45" class="edge">
<title>Node22&#45;&gt;Node3</title>
<path fill="none" stroke="midnightblue" d="M430.04,-290.37C443.87,-268.64 479.37,-214.53 515,-174 524.18,-163.56 535.42,-152.88 544.82,-144.44"/>
<polygon fill="midnightblue" stroke="midnightblue" points="547.33,-146.9 552.51,-137.66 542.7,-141.65 547.33,-146.9"/>
</g>
<!-- Node22&#45;&gt;Node10 -->
<g id="edge46" class="edge">
<title>Node22&#45;&gt;Node10</title>
<path fill="none" stroke="midnightblue" d="M397.85,-294.39C363.32,-286.7 300.85,-271.79 249,-254 202.42,-238.01 150.25,-214.6 118.78,-199.83"/>
<polygon fill="midnightblue" stroke="midnightblue" points="120.25,-196.65 109.71,-195.55 117.26,-202.98 120.25,-196.65"/>
</g>
<!-- Node22&#45;&gt;Node12 -->
<g id="edge44" class="edge">
<title>Node22&#45;&gt;Node12</title>
<path fill="none" stroke="midnightblue" d="M404.51,-290.37C390.16,-282.38 371.11,-269.8 359,-254 348.03,-239.68 341.5,-220.06 337.89,-205.57"/>
<polygon fill="midnightblue" stroke="midnightblue" points="341.27,-204.66 335.66,-195.67 334.44,-206.19 341.27,-204.66"/>
</g>
<!-- Node22&#45;&gt;Node15 -->
<g id="edge47" class="edge">
<title>Node22&#45;&gt;Node15</title>
<path fill="none" stroke="midnightblue" d="M443.6,-290.37C461.73,-281.46 488.91,-268.11 509.46,-258.02"/>
<polygon fill="midnightblue" stroke="midnightblue" points="511.23,-261.05 518.66,-253.5 508.14,-254.77 511.23,-261.05"/>
</g>
<!-- Node23 -->
<g id="node23" class="node">
<title>Node23</title>
<g id="a_node23"><a xlink:href="dump_8h.html" target="_top" xlink:title=" ">
<polygon fill="white" stroke="black" points="368,-232.5 368,-253.5 424,-253.5 424,-232.5 368,-232.5"/>
<text text-anchor="middle" x="396" y="-239.9" font-family="DejaVuSans" font-size="12.00">dump.h</text>
</a>
</g>
</g>
<!-- Node22&#45;&gt;Node23 -->
<g id="edge48" class="edge">
<title>Node22&#45;&gt;Node23</title>
<path fill="none" stroke="midnightblue" d="M419.12,-290.25C415.35,-282.7 410.01,-272.02 405.41,-262.82"/>
<polygon fill="midnightblue" stroke="midnightblue" points="408.42,-261.02 400.82,-253.64 402.16,-264.15 408.42,-261.02"/>
</g>
<!-- Node23&#45;&gt;Node3 -->
<g id="edge50" class="edge">
<title>Node23&#45;&gt;Node3</title>
<path fill="none" stroke="midnightblue" d="M401.42,-232.36C410,-217.86 428.02,-190.42 450,-174 472.44,-157.24 501.84,-145.57 525.16,-138.18"/>
<polygon fill="midnightblue" stroke="midnightblue" points="526.19,-141.53 534.74,-135.27 524.16,-134.83 526.19,-141.53"/>
</g>
<!-- Node23&#45;&gt;Node12 -->
<g id="edge49" class="edge">
<title>Node23&#45;&gt;Node12</title>
<path fill="none" stroke="midnightblue" d="M385.2,-232.25C376.13,-224.05 362.98,-212.17 352.28,-202.51"/>
<polygon fill="midnightblue" stroke="midnightblue" points="354.44,-199.75 344.68,-195.64 349.75,-204.94 354.44,-199.75"/>
</g>
</g>
</svg>
