<?xml version="1.0" encoding="UTF-8" standalone="no"?>
<!DOCTYPE svg PUBLIC "-//W3C//DTD SVG 1.1//EN"
 "http://www.w3.org/Graphics/SVG/1.1/DTD/svg11.dtd">
<!-- Generated by graphviz version 2.44.0 ()
 -->
<!-- Title: hyphen_pre.c Pages: 1 -->
<svg width="721pt" height="726pt"
 viewBox="0.00 0.00 720.50 726.00" xmlns="http://www.w3.org/2000/svg" xmlns:xlink="http://www.w3.org/1999/xlink">
<g id="graph0" class="graph" transform="scale(1 1) rotate(0) translate(4 722)">
<title>hyphen_pre.c</title>
<polygon fill="white" stroke="transparent" points="-4,4 -4,-722 716.5,-722 716.5,4 -4,4"/>
<!-- Node1 -->
<g id="node1" class="node">
<title>Node1</title>
<g id="a_node1"><a xlink:title=" ">
<polygon fill="#bfbfbf" stroke="black" points="328.5,-696.5 328.5,-717.5 417.5,-717.5 417.5,-696.5 328.5,-696.5"/>
<text text-anchor="middle" x="373" y="-703.9" font-family="DejaVuSans" font-size="12.00">hyphen_pre.c</text>
</a>
</g>
</g>
<!-- Node2 -->
<g id="node2" class="node">
<title>Node2</title>
<g id="a_node2"><a xlink:href="tex_8h.html" target="_top" xlink:title=" ">
<polygon fill="white" stroke="black" points="362,-290.5 362,-311.5 404,-311.5 404,-290.5 362,-290.5"/>
<text text-anchor="middle" x="383" y="-297.9" font-family="DejaVuSans" font-size="12.00">tex.h</text>
</a>
</g>
</g>
<!-- Node1&#45;&gt;Node2 -->
<g id="edge1" class="edge">
<title>Node1&#45;&gt;Node2</title>
<path fill="none" stroke="midnightblue" d="M370.28,-696.33C365.02,-676.79 354,-631.13 354,-592 354,-592 354,-592 354,-416 354,-381.62 366.54,-343.16 375.13,-320.85"/>
<polygon fill="midnightblue" stroke="midnightblue" points="378.38,-322.14 378.85,-311.55 371.88,-319.54 378.38,-322.14"/>
</g>
<!-- Node12 -->
<g id="node12" class="node">
<title>Node12</title>
<g id="a_node12"><a xlink:href="global_8h.html" target="_top" xlink:title=" ">
<polygon fill="white" stroke="black" points="519,-464.5 519,-485.5 577,-485.5 577,-464.5 519,-464.5"/>
<text text-anchor="middle" x="548" y="-471.9" font-family="DejaVuSans" font-size="12.00">global.h</text>
</a>
</g>
</g>
<!-- Node1&#45;&gt;Node12 -->
<g id="edge14" class="edge">
<title>Node1&#45;&gt;Node12</title>
<path fill="none" stroke="midnightblue" d="M417.52,-700.71C464.75,-694.07 534.78,-680.95 551,-660 588.75,-611.26 567.89,-531.46 555.32,-495.11"/>
<polygon fill="midnightblue" stroke="midnightblue" points="558.61,-493.9 551.91,-485.69 552.03,-496.29 558.61,-493.9"/>
</g>
<!-- Node17 -->
<g id="node17" class="node">
<title>Node17</title>
<g id="a_node17"><a xlink:href="mem_8h.html" target="_top" xlink:title=" ">
<polygon fill="white" stroke="black" points="237.5,-522.5 237.5,-543.5 290.5,-543.5 290.5,-522.5 237.5,-522.5"/>
<text text-anchor="middle" x="264" y="-529.9" font-family="DejaVuSans" font-size="12.00">mem.h</text>
</a>
</g>
</g>
<!-- Node1&#45;&gt;Node17 -->
<g id="edge24" class="edge">
<title>Node1&#45;&gt;Node17</title>
<path fill="none" stroke="midnightblue" d="M328.07,-702.35C273.9,-696.91 187.66,-684.56 168,-660 161.89,-652.37 162.31,-645.95 168,-638 196.98,-597.56 245.02,-642.44 274,-602 284.16,-587.81 279.45,-567.64 273.54,-552.96"/>
<polygon fill="midnightblue" stroke="midnightblue" points="276.72,-551.49 269.43,-543.8 270.34,-554.36 276.72,-551.49"/>
</g>
<!-- Node18 -->
<g id="node18" class="node">
<title>Node18</title>
<g id="a_node18"><a xlink:href="macros_8h.html" target="_top" xlink:title=" ">
<polygon fill="white" stroke="black" points="177.5,-638.5 177.5,-659.5 242.5,-659.5 242.5,-638.5 177.5,-638.5"/>
<text text-anchor="middle" x="210" y="-645.9" font-family="DejaVuSans" font-size="12.00">macros.h</text>
</a>
</g>
</g>
<!-- Node1&#45;&gt;Node18 -->
<g id="edge27" class="edge">
<title>Node1&#45;&gt;Node18</title>
<path fill="none" stroke="midnightblue" d="M344.98,-696.37C317.99,-687.1 277,-673.02 247.27,-662.8"/>
<polygon fill="midnightblue" stroke="midnightblue" points="248.25,-659.44 237.66,-659.5 245.98,-666.06 248.25,-659.44"/>
</g>
<!-- Node19 -->
<g id="node19" class="node">
<title>Node19</title>
<g id="a_node19"><a xlink:href="texfunc_8h.html" target="_top" xlink:title=" ">
<polygon fill="white" stroke="black" points="260.5,-638.5 260.5,-659.5 325.5,-659.5 325.5,-638.5 260.5,-638.5"/>
<text text-anchor="middle" x="293" y="-645.9" font-family="DejaVuSans" font-size="12.00">texfunc.h</text>
</a>
</g>
</g>
<!-- Node1&#45;&gt;Node19 -->
<g id="edge28" class="edge">
<title>Node1&#45;&gt;Node19</title>
<path fill="none" stroke="midnightblue" d="M359.07,-696.25C346.91,-687.73 329.05,-675.24 314.97,-665.38"/>
<polygon fill="midnightblue" stroke="midnightblue" points="316.97,-662.51 306.78,-659.64 312.96,-668.24 316.97,-662.51"/>
</g>
<!-- Node20 -->
<g id="node20" class="node">
<title>Node20</title>
<g id="a_node20"><a xlink:href="print_8h.html" target="_top" xlink:title=" ">
<polygon fill="white" stroke="black" points="71,-638.5 71,-659.5 121,-659.5 121,-638.5 71,-638.5"/>
<text text-anchor="middle" x="96" y="-645.9" font-family="DejaVuSans" font-size="12.00">print.h</text>
</a>
</g>
</g>
<!-- Node1&#45;&gt;Node20 -->
<g id="edge29" class="edge">
<title>Node1&#45;&gt;Node20</title>
<path fill="none" stroke="midnightblue" d="M328.09,-698.15C280.12,-689.57 201.93,-675.03 135,-660 133.73,-659.72 132.45,-659.42 131.15,-659.12"/>
<polygon fill="midnightblue" stroke="midnightblue" points="131.67,-655.64 121.12,-656.68 130.01,-662.44 131.67,-655.64"/>
</g>
<!-- Node22 -->
<g id="node22" class="node">
<title>Node22</title>
<g id="a_node22"><a xlink:href="eqtb_8h.html" target="_top" xlink:title=" ">
<polygon fill="white" stroke="black" points="473,-290.5 473,-311.5 523,-311.5 523,-290.5 473,-290.5"/>
<text text-anchor="middle" x="498" y="-297.9" font-family="DejaVuSans" font-size="12.00">eqtb.h</text>
</a>
</g>
</g>
<!-- Node1&#45;&gt;Node22 -->
<g id="edge35" class="edge">
<title>Node1&#45;&gt;Node22</title>
<path fill="none" stroke="midnightblue" d="M375.72,-696.33C380.98,-676.79 392,-631.13 392,-592 392,-592 392,-592 392,-416 392,-370.25 438.35,-335.15 469.75,-316.63"/>
<polygon fill="midnightblue" stroke="midnightblue" points="471.59,-319.61 478.56,-311.63 468.13,-313.53 471.59,-319.61"/>
</g>
<!-- Node23 -->
<g id="node23" class="node">
<title>Node23</title>
<g id="a_node23"><a xlink:href="pack_8h.html" target="_top" xlink:title=" ">
<polygon fill="white" stroke="black" points="420,-638.5 420,-659.5 472,-659.5 472,-638.5 420,-638.5"/>
<text text-anchor="middle" x="446" y="-645.9" font-family="DejaVuSans" font-size="12.00">pack.h</text>
</a>
</g>
</g>
<!-- Node1&#45;&gt;Node23 -->
<g id="edge38" class="edge">
<title>Node1&#45;&gt;Node23</title>
<path fill="none" stroke="midnightblue" d="M385.72,-696.25C396.6,-687.89 412.49,-675.71 425.22,-665.94"/>
<polygon fill="midnightblue" stroke="midnightblue" points="427.63,-668.51 433.43,-659.64 423.37,-662.95 427.63,-668.51"/>
</g>
<!-- Node24 -->
<g id="node24" class="node">
<title>Node24</title>
<g id="a_node24"><a xlink:href="error_8h.html" target="_top" xlink:title=" ">
<polygon fill="white" stroke="black" points="490.5,-638.5 490.5,-659.5 541.5,-659.5 541.5,-638.5 490.5,-638.5"/>
<text text-anchor="middle" x="516" y="-645.9" font-family="DejaVuSans" font-size="12.00">error.h</text>
</a>
</g>
</g>
<!-- Node1&#45;&gt;Node24 -->
<g id="edge39" class="edge">
<title>Node1&#45;&gt;Node24</title>
<path fill="none" stroke="midnightblue" d="M397.58,-696.37C420.95,-687.22 456.29,-673.38 482.28,-663.21"/>
<polygon fill="midnightblue" stroke="midnightblue" points="483.7,-666.41 491.74,-659.5 481.15,-659.89 483.7,-666.41"/>
</g>
<!-- Node25 -->
<g id="node25" class="node">
<title>Node25</title>
<g id="a_node25"><a xlink:href="texmath_8h.html" target="_top" xlink:title=" ">
<polygon fill="white" stroke="black" points="0,-580.5 0,-601.5 68,-601.5 68,-580.5 0,-580.5"/>
<text text-anchor="middle" x="34" y="-587.9" font-family="DejaVuSans" font-size="12.00">texmath.h</text>
</a>
</g>
</g>
<!-- Node1&#45;&gt;Node25 -->
<g id="edge40" class="edge">
<title>Node1&#45;&gt;Node25</title>
<path fill="none" stroke="midnightblue" d="M328.29,-704.71C252.39,-701.67 102.58,-691.72 62,-660 47.11,-648.36 40.08,-627.44 36.79,-611.86"/>
<polygon fill="midnightblue" stroke="midnightblue" points="40.18,-610.92 35.01,-601.68 33.29,-612.13 40.18,-610.92"/>
</g>
<!-- Node26 -->
<g id="node26" class="node">
<title>Node26</title>
<g id="a_node26"><a xlink:href="linebreak_8h.html" target="_top" xlink:title=" ">
<polygon fill="white" stroke="black" points="598.5,-638.5 598.5,-659.5 673.5,-659.5 673.5,-638.5 598.5,-638.5"/>
<text text-anchor="middle" x="636" y="-645.9" font-family="DejaVuSans" font-size="12.00">linebreak.h</text>
</a>
</g>
</g>
<!-- Node1&#45;&gt;Node26 -->
<g id="edge42" class="edge">
<title>Node1&#45;&gt;Node26</title>
<path fill="none" stroke="midnightblue" d="M417.61,-696.5C465.09,-686.39 539.92,-670.46 588.48,-660.12"/>
<polygon fill="midnightblue" stroke="midnightblue" points="589.37,-663.51 598.42,-658 587.91,-656.66 589.37,-663.51"/>
</g>
<!-- Node27 -->
<g id="node27" class="node">
<title>Node27</title>
<g id="a_node27"><a xlink:href="hyphen_8h.html" target="_top" xlink:title=" ">
<polygon fill="white" stroke="black" points="646,-348.5 646,-369.5 712,-369.5 712,-348.5 646,-348.5"/>
<text text-anchor="middle" x="679" y="-355.9" font-family="DejaVuSans" font-size="12.00">hyphen.h</text>
</a>
</g>
</g>
<!-- Node1&#45;&gt;Node27 -->
<g id="edge43" class="edge">
<title>Node1&#45;&gt;Node27</title>
<path fill="none" stroke="midnightblue" d="M417.66,-705.19C493.85,-702.88 644.44,-694.01 683,-660 706.53,-639.24 702,-623.38 702,-592 702,-592 702,-592 702,-474 702,-440.17 692.14,-401.78 685.34,-379.3"/>
<polygon fill="midnightblue" stroke="midnightblue" points="688.63,-378.12 682.3,-369.63 681.96,-380.22 688.63,-378.12"/>
</g>
<!-- Node3 -->
<g id="node3" class="node">
<title>Node3</title>
<g id="a_node3"><a xlink:href="tex__types_8h.html" target="_top" xlink:title=" ">
<polygon fill="white" stroke="black" points="288.5,-58.5 288.5,-79.5 365.5,-79.5 365.5,-58.5 288.5,-58.5"/>
<text text-anchor="middle" x="327" y="-65.9" font-family="DejaVuSans" font-size="12.00">tex_types.h</text>
</a>
</g>
</g>
<!-- Node2&#45;&gt;Node3 -->
<g id="edge2" class="edge">
<title>Node2&#45;&gt;Node3</title>
<path fill="none" stroke="midnightblue" d="M374.09,-290.22C366.61,-281.42 356.33,-267.79 351,-254 329.09,-197.31 326.44,-124.24 326.56,-89.72"/>
<polygon fill="midnightblue" stroke="midnightblue" points="330.06,-89.62 326.68,-79.58 323.06,-89.53 330.06,-89.62"/>
</g>
<!-- Node6 -->
<g id="node6" class="node">
<title>Node6</title>
<g id="a_node6"><a xlink:href="tex__constant_8h.html" target="_top" xlink:title=" ">
<polygon fill="white" stroke="black" points="393,-232.5 393,-253.5 487,-253.5 487,-232.5 393,-232.5"/>
<text text-anchor="middle" x="440" y="-239.9" font-family="DejaVuSans" font-size="12.00">tex_constant.h</text>
</a>
</g>
</g>
<!-- Node2&#45;&gt;Node6 -->
<g id="edge5" class="edge">
<title>Node2&#45;&gt;Node6</title>
<path fill="none" stroke="midnightblue" d="M392.93,-290.25C401.18,-282.14 413.12,-270.41 422.91,-260.79"/>
<polygon fill="midnightblue" stroke="midnightblue" points="425.5,-263.15 430.19,-253.64 420.6,-258.15 425.5,-263.15"/>
</g>
<!-- Node4 -->
<g id="node4" class="node">
<title>Node4</title>
<g id="a_node4"><a xlink:title=" ">
<polygon fill="white" stroke="#bfbfbf" points="294.5,-0.5 294.5,-21.5 359.5,-21.5 359.5,-0.5 294.5,-0.5"/>
<text text-anchor="middle" x="327" y="-7.9" font-family="DejaVuSans" font-size="12.00">stdbool.h</text>
</a>
</g>
</g>
<!-- Node3&#45;&gt;Node4 -->
<g id="edge3" class="edge">
<title>Node3&#45;&gt;Node4</title>
<path fill="none" stroke="midnightblue" d="M327,-58.25C327,-50.94 327,-40.69 327,-31.7"/>
<polygon fill="midnightblue" stroke="midnightblue" points="330.5,-31.64 327,-21.64 323.5,-31.64 330.5,-31.64"/>
</g>
<!-- Node5 -->
<g id="node5" class="node">
<title>Node5</title>
<g id="a_node5"><a xlink:title=" ">
<polygon fill="white" stroke="#bfbfbf" points="386.5,-0.5 386.5,-21.5 441.5,-21.5 441.5,-0.5 386.5,-0.5"/>
<text text-anchor="middle" x="414" y="-7.9" font-family="DejaVuSans" font-size="12.00">stdint.h</text>
</a>
</g>
</g>
<!-- Node3&#45;&gt;Node5 -->
<g id="edge4" class="edge">
<title>Node3&#45;&gt;Node5</title>
<path fill="none" stroke="midnightblue" d="M342.15,-58.25C355.5,-49.65 375.16,-37 390.54,-27.1"/>
<polygon fill="midnightblue" stroke="midnightblue" points="392.51,-30 399.02,-21.64 388.72,-24.11 392.51,-30"/>
</g>
<!-- Node7 -->
<g id="node7" class="node">
<title>Node7</title>
<g id="a_node7"><a xlink:href="box_8h.html" target="_top" xlink:title=" ">
<polygon fill="white" stroke="black" points="423,-174.5 423,-195.5 469,-195.5 469,-174.5 423,-174.5"/>
<text text-anchor="middle" x="446" y="-181.9" font-family="DejaVuSans" font-size="12.00">box.h</text>
</a>
</g>
</g>
<!-- Node6&#45;&gt;Node7 -->
<g id="edge6" class="edge">
<title>Node6&#45;&gt;Node7</title>
<path fill="none" stroke="midnightblue" d="M441.05,-232.25C441.83,-224.94 442.93,-214.69 443.89,-205.7"/>
<polygon fill="midnightblue" stroke="midnightblue" points="447.38,-205.96 444.97,-195.64 440.42,-205.21 447.38,-205.96"/>
</g>
<!-- Node8 -->
<g id="node8" class="node">
<title>Node8</title>
<g id="a_node8"><a xlink:href="str_8h.html" target="_top" xlink:title=" ">
<polygon fill="white" stroke="black" points="468.5,-116.5 468.5,-137.5 507.5,-137.5 507.5,-116.5 468.5,-116.5"/>
<text text-anchor="middle" x="488" y="-123.9" font-family="DejaVuSans" font-size="12.00">str.h</text>
</a>
</g>
</g>
<!-- Node7&#45;&gt;Node8 -->
<g id="edge7" class="edge">
<title>Node7&#45;&gt;Node8</title>
<path fill="none" stroke="midnightblue" d="M453.32,-174.25C459.22,-166.38 467.67,-155.1 474.76,-145.65"/>
<polygon fill="midnightblue" stroke="midnightblue" points="477.57,-147.74 480.77,-137.64 471.97,-143.54 477.57,-147.74"/>
</g>
<!-- Node8&#45;&gt;Node3 -->
<g id="edge13" class="edge">
<title>Node8&#45;&gt;Node3</title>
<path fill="none" stroke="midnightblue" d="M468.26,-119.13C442.39,-110.13 396.49,-94.17 364.05,-82.89"/>
<polygon fill="midnightblue" stroke="midnightblue" points="365.04,-79.53 354.45,-79.55 362.74,-86.14 365.04,-79.53"/>
</g>
<!-- Node8&#45;&gt;Node5 -->
<g id="edge9" class="edge">
<title>Node8&#45;&gt;Node5</title>
<path fill="none" stroke="midnightblue" d="M481.69,-116.28C469.35,-97.27 441.83,-54.88 425.94,-30.4"/>
<polygon fill="midnightblue" stroke="midnightblue" points="428.67,-28.18 420.29,-21.69 422.8,-31.99 428.67,-28.18"/>
</g>
<!-- Node9 -->
<g id="node9" class="node">
<title>Node9</title>
<g id="a_node9"><a xlink:title=" ">
<polygon fill="white" stroke="#bfbfbf" points="546,-0.5 546,-21.5 598,-21.5 598,-0.5 546,-0.5"/>
<text text-anchor="middle" x="572" y="-7.9" font-family="DejaVuSans" font-size="12.00">stdio.h</text>
</a>
</g>
</g>
<!-- Node8&#45;&gt;Node9 -->
<g id="edge8" class="edge">
<title>Node8&#45;&gt;Node9</title>
<path fill="none" stroke="midnightblue" d="M495.16,-116.28C509.3,-97.1 540.96,-54.12 558.92,-29.75"/>
<polygon fill="midnightblue" stroke="midnightblue" points="561.74,-31.82 564.86,-21.69 556.11,-27.67 561.74,-31.82"/>
</g>
<!-- Node10 -->
<g id="node10" class="node">
<title>Node10</title>
<g id="a_node10"><a xlink:href="global__const_8h.html" target="_top" xlink:title=" ">
<polygon fill="white" stroke="black" points="619.5,-58.5 619.5,-79.5 712.5,-79.5 712.5,-58.5 619.5,-58.5"/>
<text text-anchor="middle" x="666" y="-65.9" font-family="DejaVuSans" font-size="12.00">global_const.h</text>
</a>
</g>
</g>
<!-- Node8&#45;&gt;Node10 -->
<g id="edge10" class="edge">
<title>Node8&#45;&gt;Node10</title>
<path fill="none" stroke="midnightblue" d="M507.73,-119.79C536.11,-110.86 589.08,-94.2 625.88,-82.62"/>
<polygon fill="midnightblue" stroke="midnightblue" points="627.31,-85.84 635.8,-79.5 625.21,-79.16 627.31,-85.84"/>
</g>
<!-- Node10&#45;&gt;Node9 -->
<g id="edge12" class="edge">
<title>Node10&#45;&gt;Node9</title>
<path fill="none" stroke="midnightblue" d="M649.63,-58.25C635.07,-49.57 613.57,-36.76 596.88,-26.82"/>
<polygon fill="midnightblue" stroke="midnightblue" points="598.57,-23.75 588.19,-21.64 594.99,-29.77 598.57,-23.75"/>
</g>
<!-- Node11 -->
<g id="node11" class="node">
<title>Node11</title>
<g id="a_node11"><a xlink:title=" ">
<polygon fill="white" stroke="#bfbfbf" points="636.5,-0.5 636.5,-21.5 695.5,-21.5 695.5,-0.5 636.5,-0.5"/>
<text text-anchor="middle" x="666" y="-7.9" font-family="DejaVuSans" font-size="12.00">assert.h</text>
</a>
</g>
</g>
<!-- Node10&#45;&gt;Node11 -->
<g id="edge11" class="edge">
<title>Node10&#45;&gt;Node11</title>
<path fill="none" stroke="midnightblue" d="M666,-58.25C666,-50.94 666,-40.69 666,-31.7"/>
<polygon fill="midnightblue" stroke="midnightblue" points="669.5,-31.64 666,-21.64 662.5,-31.64 669.5,-31.64"/>
</g>
<!-- Node12&#45;&gt;Node8 -->
<g id="edge16" class="edge">
<title>Node12&#45;&gt;Node8</title>
<path fill="none" stroke="midnightblue" d="M552.88,-464.41C563.61,-441.84 586.36,-384.47 561,-348 534.74,-310.25 504.54,-333.7 464,-312 425.28,-291.28 403.96,-293.12 384,-254 366.74,-220.17 388.23,-201.89 414,-174 426.63,-160.33 444.22,-149.17 459.08,-141.27"/>
<polygon fill="midnightblue" stroke="midnightblue" points="461.03,-144.2 468.37,-136.56 457.86,-137.96 461.03,-144.2"/>
</g>
<!-- Node13 -->
<g id="node13" class="node">
<title>Node13</title>
<g id="a_node13"><a xlink:title=" ">
<polygon fill="white" stroke="#bfbfbf" points="420,-406.5 420,-427.5 482,-427.5 482,-406.5 420,-406.5"/>
<text text-anchor="middle" x="451" y="-413.9" font-family="DejaVuSans" font-size="12.00">setjmp.h</text>
</a>
</g>
</g>
<!-- Node12&#45;&gt;Node13 -->
<g id="edge15" class="edge">
<title>Node12&#45;&gt;Node13</title>
<path fill="none" stroke="midnightblue" d="M531.1,-464.25C516.08,-455.57 493.9,-442.76 476.68,-432.82"/>
<polygon fill="midnightblue" stroke="midnightblue" points="478.11,-429.61 467.7,-427.64 474.61,-435.67 478.11,-429.61"/>
</g>
<!-- Node14 -->
<g id="node14" class="node">
<title>Node14</title>
<g id="a_node14"><a xlink:href="scan_8h.html" target="_top" xlink:title=" ">
<polygon fill="white" stroke="black" points="500,-406.5 500,-427.5 552,-427.5 552,-406.5 500,-406.5"/>
<text text-anchor="middle" x="526" y="-413.9" font-family="DejaVuSans" font-size="12.00">scan.h</text>
</a>
</g>
</g>
<!-- Node12&#45;&gt;Node14 -->
<g id="edge17" class="edge">
<title>Node12&#45;&gt;Node14</title>
<path fill="none" stroke="midnightblue" d="M544.17,-464.25C541.23,-456.78 537.1,-446.24 533.51,-437.11"/>
<polygon fill="midnightblue" stroke="midnightblue" points="536.7,-435.67 529.79,-427.64 530.19,-438.23 536.7,-435.67"/>
</g>
<!-- Node16 -->
<g id="node16" class="node">
<title>Node16</title>
<g id="a_node16"><a xlink:href="fonts_8h.html" target="_top" xlink:title=" ">
<polygon fill="white" stroke="black" points="614,-232.5 614,-253.5 666,-253.5 666,-232.5 614,-232.5"/>
<text text-anchor="middle" x="640" y="-239.9" font-family="DejaVuSans" font-size="12.00">fonts.h</text>
</a>
</g>
</g>
<!-- Node12&#45;&gt;Node16 -->
<g id="edge21" class="edge">
<title>Node12&#45;&gt;Node16</title>
<path fill="none" stroke="midnightblue" d="M560.84,-464.45C571.29,-456 585.65,-442.74 594,-428 624.61,-373.94 635.09,-299.62 638.48,-264.27"/>
<polygon fill="midnightblue" stroke="midnightblue" points="642.01,-264.12 639.38,-253.86 635.03,-263.52 642.01,-264.12"/>
</g>
<!-- Node15 -->
<g id="node15" class="node">
<title>Node15</title>
<g id="a_node15"><a xlink:href="lexer_8h.html" target="_top" xlink:title=" ">
<polygon fill="white" stroke="black" points="500,-348.5 500,-369.5 552,-369.5 552,-348.5 500,-348.5"/>
<text text-anchor="middle" x="526" y="-355.9" font-family="DejaVuSans" font-size="12.00">lexer.h</text>
</a>
</g>
</g>
<!-- Node14&#45;&gt;Node15 -->
<g id="edge18" class="edge">
<title>Node14&#45;&gt;Node15</title>
<path fill="none" stroke="midnightblue" d="M526,-406.25C526,-398.94 526,-388.69 526,-379.7"/>
<polygon fill="midnightblue" stroke="midnightblue" points="529.5,-379.64 526,-369.64 522.5,-379.64 529.5,-379.64"/>
</g>
<!-- Node15&#45;&gt;Node2 -->
<g id="edge20" class="edge">
<title>Node15&#45;&gt;Node2</title>
<path fill="none" stroke="midnightblue" d="M501.42,-348.37C477.06,-338.83 439.69,-324.2 413.47,-313.93"/>
<polygon fill="midnightblue" stroke="midnightblue" points="414.6,-310.61 404.01,-310.23 412.04,-317.13 414.6,-310.61"/>
</g>
<!-- Node15&#45;&gt;Node9 -->
<g id="edge19" class="edge">
<title>Node15&#45;&gt;Node9</title>
<path fill="none" stroke="midnightblue" d="M529.87,-348.42C537.33,-329.05 553,-283.66 553,-244 553,-244 553,-244 553,-126 553,-92.38 561.14,-53.92 566.77,-31.37"/>
<polygon fill="midnightblue" stroke="midnightblue" points="570.16,-32.23 569.28,-21.67 563.38,-30.47 570.16,-32.23"/>
</g>
<!-- Node16&#45;&gt;Node9 -->
<g id="edge22" class="edge">
<title>Node16&#45;&gt;Node9</title>
<path fill="none" stroke="midnightblue" d="M637.16,-232.41C626.9,-197.71 591.58,-78.24 577.68,-31.22"/>
<polygon fill="midnightblue" stroke="midnightblue" points="581.04,-30.23 574.85,-21.63 574.33,-32.21 581.04,-30.23"/>
</g>
<!-- Node16&#45;&gt;Node10 -->
<g id="edge23" class="edge">
<title>Node16&#45;&gt;Node10</title>
<path fill="none" stroke="midnightblue" d="M641.47,-232.26C645.62,-204.82 657.46,-126.51 663.03,-89.64"/>
<polygon fill="midnightblue" stroke="midnightblue" points="666.51,-90.04 664.54,-79.63 659.59,-89 666.51,-90.04"/>
</g>
<!-- Node17&#45;&gt;Node3 -->
<g id="edge25" class="edge">
<title>Node17&#45;&gt;Node3</title>
<path fill="none" stroke="midnightblue" d="M257.09,-522.47C235.69,-492 172,-393.6 172,-302 172,-302 172,-302 172,-184 172,-129.69 234.51,-98.39 280.13,-82.77"/>
<polygon fill="midnightblue" stroke="midnightblue" points="281.46,-86.02 289.87,-79.58 279.28,-79.37 281.46,-86.02"/>
</g>
<!-- Node17&#45;&gt;Node12 -->
<g id="edge26" class="edge">
<title>Node17&#45;&gt;Node12</title>
<path fill="none" stroke="midnightblue" d="M290.72,-526.73C341,-516.82 449.9,-495.34 508.6,-483.77"/>
<polygon fill="midnightblue" stroke="midnightblue" points="509.47,-487.16 518.61,-481.8 508.12,-480.3 509.47,-487.16"/>
</g>
<!-- Node20&#45;&gt;Node2 -->
<g id="edge31" class="edge">
<title>Node20&#45;&gt;Node2</title>
<path fill="none" stroke="midnightblue" d="M110.63,-638.25C122.21,-629.86 138.03,-616.79 148,-602 165.91,-575.42 172,-566.05 172,-534 172,-534 172,-534 172,-474 172,-382.16 293.59,-330.64 352.17,-311.15"/>
<polygon fill="midnightblue" stroke="midnightblue" points="353.55,-314.38 362,-307.98 351.41,-307.71 353.55,-314.38"/>
</g>
<!-- Node20&#45;&gt;Node3 -->
<g id="edge30" class="edge">
<title>Node20&#45;&gt;Node3</title>
<path fill="none" stroke="midnightblue" d="M96,-638.24C96,-618.54 96,-572.59 96,-534 96,-534 96,-534 96,-184 96,-103.39 210.52,-79.78 278.29,-72.86"/>
<polygon fill="midnightblue" stroke="midnightblue" points="278.7,-76.34 288.34,-71.93 278.05,-69.37 278.7,-76.34"/>
</g>
<!-- Node20&#45;&gt;Node8 -->
<g id="edge34" class="edge">
<title>Node20&#45;&gt;Node8</title>
<path fill="none" stroke="midnightblue" d="M101.61,-638.3C112.18,-619.07 134,-574.47 134,-534 134,-534 134,-534 134,-416 134,-249.06 373.83,-161.82 458.68,-136.18"/>
<polygon fill="midnightblue" stroke="midnightblue" points="459.86,-139.48 468.46,-133.29 457.88,-132.76 459.86,-139.48"/>
</g>
<!-- Node21 -->
<g id="node21" class="node">
<title>Node21</title>
<g id="a_node21"><a xlink:href="texmac_8h.html" target="_top" xlink:title=" ">
<polygon fill="white" stroke="black" points="200.5,-580.5 200.5,-601.5 265.5,-601.5 265.5,-580.5 200.5,-580.5"/>
<text text-anchor="middle" x="233" y="-587.9" font-family="DejaVuSans" font-size="12.00">texmac.h</text>
</a>
</g>
</g>
<!-- Node20&#45;&gt;Node21 -->
<g id="edge32" class="edge">
<title>Node20&#45;&gt;Node21</title>
<path fill="none" stroke="midnightblue" d="M119.55,-638.37C141.84,-629.26 175.49,-615.51 200.36,-605.34"/>
<polygon fill="midnightblue" stroke="midnightblue" points="201.82,-608.52 209.76,-601.5 199.18,-602.05 201.82,-608.52"/>
</g>
<!-- Node21&#45;&gt;Node17 -->
<g id="edge33" class="edge">
<title>Node21&#45;&gt;Node17</title>
<path fill="none" stroke="midnightblue" d="M238.4,-580.25C242.62,-572.62 248.62,-561.79 253.74,-552.53"/>
<polygon fill="midnightblue" stroke="midnightblue" points="256.88,-554.09 258.66,-543.64 250.76,-550.7 256.88,-554.09"/>
</g>
<!-- Node22&#45;&gt;Node3 -->
<g id="edge36" class="edge">
<title>Node22&#45;&gt;Node3</title>
<path fill="none" stroke="midnightblue" d="M499.24,-290.36C501.64,-267.65 504.51,-210.04 478,-174 446.79,-131.58 392.85,-100.55 358.6,-83.91"/>
<polygon fill="midnightblue" stroke="midnightblue" points="360.03,-80.71 349.5,-79.6 357.04,-87.04 360.03,-80.71"/>
</g>
<!-- Node22&#45;&gt;Node6 -->
<g id="edge37" class="edge">
<title>Node22&#45;&gt;Node6</title>
<path fill="none" stroke="midnightblue" d="M487.9,-290.25C479.5,-282.14 467.35,-270.41 457.39,-260.79"/>
<polygon fill="midnightblue" stroke="midnightblue" points="459.61,-258.07 449.99,-253.64 454.75,-263.11 459.61,-258.07"/>
</g>
<!-- Node25&#45;&gt;Node3 -->
<g id="edge41" class="edge">
<title>Node25&#45;&gt;Node3</title>
<path fill="none" stroke="midnightblue" d="M35.72,-580.28C39.04,-560.64 46,-514.81 46,-476 46,-476 46,-476 46,-184 46,-149.8 54.46,-136.28 82,-116 112.53,-93.51 216.07,-80.26 278.36,-74.13"/>
<polygon fill="midnightblue" stroke="midnightblue" points="278.73,-77.61 288.36,-73.17 278.07,-70.64 278.73,-77.61"/>
</g>
<!-- Node27&#45;&gt;Node2 -->
<g id="edge45" class="edge">
<title>Node27&#45;&gt;Node2</title>
<path fill="none" stroke="midnightblue" d="M645.91,-351.74C588.37,-340.85 470.65,-318.58 414.35,-307.93"/>
<polygon fill="midnightblue" stroke="midnightblue" points="414.74,-304.44 404.26,-306.02 413.44,-311.32 414.74,-304.44"/>
</g>
<!-- Node27&#45;&gt;Node10 -->
<g id="edge44" class="edge">
<title>Node27&#45;&gt;Node10</title>
<path fill="none" stroke="midnightblue" d="M681.15,-348.3C685.3,-328.7 694,-282.93 694,-244 694,-244 694,-244 694,-184 694,-149.85 682,-111.56 673.71,-89.18"/>
<polygon fill="midnightblue" stroke="midnightblue" points="676.87,-87.64 670.01,-79.56 670.34,-90.15 676.87,-87.64"/>
</g>
<!-- Node27&#45;&gt;Node16 -->
<g id="edge46" class="edge">
<title>Node27&#45;&gt;Node16</title>
<path fill="none" stroke="midnightblue" d="M675.67,-348.28C669.26,-329.52 655.05,-288 646.63,-263.38"/>
<polygon fill="midnightblue" stroke="midnightblue" points="649.87,-262.02 643.32,-253.69 643.24,-264.29 649.87,-262.02"/>
</g>
<!-- Node27&#45;&gt;Node22 -->
<g id="edge47" class="edge">
<title>Node27&#45;&gt;Node22</title>
<path fill="none" stroke="midnightblue" d="M647.88,-348.37C615.92,-338.48 566.25,-323.12 532.95,-312.81"/>
<polygon fill="midnightblue" stroke="midnightblue" points="533.76,-309.4 523.18,-309.79 531.69,-316.09 533.76,-309.4"/>
</g>
</g>
</svg>
