<?xml version="1.0" encoding="UTF-8" standalone="no"?>
<!DOCTYPE svg PUBLIC "-//W3C//DTD SVG 1.1//EN"
 "http://www.w3.org/Graphics/SVG/1.1/DTD/svg11.dtd">
<!-- Generated by graphviz version 2.44.0 ()
 -->
<!-- Title: hyphen_post.c Pages: 1 -->
<svg width="693pt" height="436pt"
 viewBox="0.00 0.00 693.42 436.00" xmlns="http://www.w3.org/2000/svg" xmlns:xlink="http://www.w3.org/1999/xlink">
<g id="graph0" class="graph" transform="scale(1 1) rotate(0) translate(4 432)">
<title>hyphen_post.c</title>
<polygon fill="white" stroke="transparent" points="-4,4 -4,-432 689.42,-432 689.42,4 -4,4"/>
<!-- Node1 -->
<g id="node1" class="node">
<title>Node1</title>
<g id="a_node1"><a xlink:title=" ">
<polygon fill="#bfbfbf" stroke="black" points="341,-406.5 341,-427.5 436,-427.5 436,-406.5 341,-406.5"/>
<text text-anchor="middle" x="388.5" y="-413.9" font-family="DejaVuSans" font-size="12.00">hyphen_post.c</text>
</a>
</g>
</g>
<!-- Node2 -->
<g id="node2" class="node">
<title>Node2</title>
<g id="a_node2"><a xlink:href="linebreak_8h.html" target="_top" xlink:title=" ">
<polygon fill="white" stroke="black" points="550,-348.5 550,-369.5 625,-369.5 625,-348.5 550,-348.5"/>
<text text-anchor="middle" x="587.5" y="-355.9" font-family="DejaVuSans" font-size="12.00">linebreak.h</text>
</a>
</g>
</g>
<!-- Node1&#45;&gt;Node2 -->
<g id="edge1" class="edge">
<title>Node1&#45;&gt;Node2</title>
<path fill="none" stroke="midnightblue" d="M422.71,-406.37C456.23,-396.94 507.45,-382.53 543.88,-372.27"/>
<polygon fill="midnightblue" stroke="midnightblue" points="545.06,-375.58 553.74,-369.5 543.16,-368.84 545.06,-375.58"/>
</g>
<!-- Node11 -->
<g id="node11" class="node">
<title>Node11</title>
<g id="a_node11"><a xlink:href="error_8h.html" target="_top" xlink:title=" ">
<polygon fill="white" stroke="black" points="0,-290.5 0,-311.5 51,-311.5 51,-290.5 0,-290.5"/>
<text text-anchor="middle" x="25.5" y="-297.9" font-family="DejaVuSans" font-size="12.00">error.h</text>
</a>
</g>
</g>
<!-- Node1&#45;&gt;Node11 -->
<g id="edge10" class="edge">
<title>Node1&#45;&gt;Node11</title>
<path fill="none" stroke="midnightblue" d="M358.18,-406.48C291.42,-385.51 132.07,-335.47 60.89,-313.12"/>
<polygon fill="midnightblue" stroke="midnightblue" points="61.64,-309.68 51.05,-310.03 59.55,-316.36 61.64,-309.68"/>
</g>
<!-- Node15 -->
<g id="node15" class="node">
<title>Node15</title>
<g id="a_node15"><a xlink:href="hyphen_8h.html" target="_top" xlink:title=" ">
<polygon fill="white" stroke="black" points="355.5,-348.5 355.5,-369.5 421.5,-369.5 421.5,-348.5 355.5,-348.5"/>
<text text-anchor="middle" x="388.5" y="-355.9" font-family="DejaVuSans" font-size="12.00">hyphen.h</text>
</a>
</g>
</g>
<!-- Node1&#45;&gt;Node15 -->
<g id="edge18" class="edge">
<title>Node1&#45;&gt;Node15</title>
<path fill="none" stroke="midnightblue" d="M388.5,-406.25C388.5,-398.94 388.5,-388.69 388.5,-379.7"/>
<polygon fill="midnightblue" stroke="midnightblue" points="392,-379.64 388.5,-369.64 385,-379.64 392,-379.64"/>
</g>
<!-- Node3 -->
<g id="node3" class="node">
<title>Node3</title>
<g id="a_node3"><a xlink:href="global_8h.html" target="_top" xlink:title=" ">
<polygon fill="white" stroke="black" points="264.5,-116.5 264.5,-137.5 322.5,-137.5 322.5,-116.5 264.5,-116.5"/>
<text text-anchor="middle" x="293.5" y="-123.9" font-family="DejaVuSans" font-size="12.00">global.h</text>
</a>
</g>
</g>
<!-- Node2&#45;&gt;Node3 -->
<g id="edge2" class="edge">
<title>Node2&#45;&gt;Node3</title>
<path fill="none" stroke="midnightblue" d="M600.92,-348.37C622.51,-331.93 664.09,-296.11 679.5,-254 692.39,-218.76 682.79,-196.15 652.5,-174 602.32,-137.32 415.31,-129.86 332.91,-128.36"/>
<polygon fill="midnightblue" stroke="midnightblue" points="332.76,-124.86 322.7,-128.2 332.64,-131.86 332.76,-124.86"/>
</g>
<!-- Node4 -->
<g id="node4" class="node">
<title>Node4</title>
<g id="a_node4"><a xlink:href="global__macros_8h.html" target="_top" xlink:title=" ">
<polygon fill="white" stroke="black" points="110.5,-58.5 110.5,-79.5 214.5,-79.5 214.5,-58.5 110.5,-58.5"/>
<text text-anchor="middle" x="162.5" y="-65.9" font-family="DejaVuSans" font-size="12.00">global_macros.h</text>
</a>
</g>
</g>
<!-- Node3&#45;&gt;Node4 -->
<g id="edge3" class="edge">
<title>Node3&#45;&gt;Node4</title>
<path fill="none" stroke="midnightblue" d="M270.98,-116.37C249.76,-107.3 217.77,-93.63 194.02,-83.48"/>
<polygon fill="midnightblue" stroke="midnightblue" points="195.3,-80.21 184.73,-79.5 192.55,-86.65 195.3,-80.21"/>
</g>
<!-- Node6 -->
<g id="node6" class="node">
<title>Node6</title>
<g id="a_node6"><a xlink:href="global__const_8h.html" target="_top" xlink:title=" ">
<polygon fill="white" stroke="black" points="440,-58.5 440,-79.5 533,-79.5 533,-58.5 440,-58.5"/>
<text text-anchor="middle" x="486.5" y="-65.9" font-family="DejaVuSans" font-size="12.00">global_const.h</text>
</a>
</g>
</g>
<!-- Node3&#45;&gt;Node6 -->
<g id="edge5" class="edge">
<title>Node3&#45;&gt;Node6</title>
<path fill="none" stroke="midnightblue" d="M322.81,-117.49C355.01,-108.15 407.01,-93.07 443.75,-82.41"/>
<polygon fill="midnightblue" stroke="midnightblue" points="445.05,-85.67 453.67,-79.52 443.1,-78.95 445.05,-85.67"/>
</g>
<!-- Node7 -->
<g id="node7" class="node">
<title>Node7</title>
<g id="a_node7"><a xlink:href="tex__types_8h.html" target="_top" xlink:title=" ">
<polygon fill="white" stroke="black" points="255,-58.5 255,-79.5 332,-79.5 332,-58.5 255,-58.5"/>
<text text-anchor="middle" x="293.5" y="-65.9" font-family="DejaVuSans" font-size="12.00">tex_types.h</text>
</a>
</g>
</g>
<!-- Node3&#45;&gt;Node7 -->
<g id="edge6" class="edge">
<title>Node3&#45;&gt;Node7</title>
<path fill="none" stroke="midnightblue" d="M293.5,-116.25C293.5,-108.94 293.5,-98.69 293.5,-89.7"/>
<polygon fill="midnightblue" stroke="midnightblue" points="297,-89.64 293.5,-79.64 290,-89.64 297,-89.64"/>
</g>
<!-- Node5 -->
<g id="node5" class="node">
<title>Node5</title>
<g id="a_node5"><a xlink:title=" ">
<polygon fill="white" stroke="#bfbfbf" points="111,-0.5 111,-21.5 170,-21.5 170,-0.5 111,-0.5"/>
<text text-anchor="middle" x="140.5" y="-7.9" font-family="DejaVuSans" font-size="12.00">assert.h</text>
</a>
</g>
</g>
<!-- Node4&#45;&gt;Node5 -->
<g id="edge4" class="edge">
<title>Node4&#45;&gt;Node5</title>
<path fill="none" stroke="midnightblue" d="M158.67,-58.25C155.73,-50.78 151.6,-40.24 148.01,-31.11"/>
<polygon fill="midnightblue" stroke="midnightblue" points="151.2,-29.67 144.29,-21.64 144.69,-32.23 151.2,-29.67"/>
</g>
<!-- Node8 -->
<g id="node8" class="node">
<title>Node8</title>
<g id="a_node8"><a xlink:title=" ">
<polygon fill="white" stroke="#bfbfbf" points="261,-0.5 261,-21.5 326,-21.5 326,-0.5 261,-0.5"/>
<text text-anchor="middle" x="293.5" y="-7.9" font-family="DejaVuSans" font-size="12.00">stdbool.h</text>
</a>
</g>
</g>
<!-- Node7&#45;&gt;Node8 -->
<g id="edge7" class="edge">
<title>Node7&#45;&gt;Node8</title>
<path fill="none" stroke="midnightblue" d="M293.5,-58.25C293.5,-50.94 293.5,-40.69 293.5,-31.7"/>
<polygon fill="midnightblue" stroke="midnightblue" points="297,-31.64 293.5,-21.64 290,-31.64 297,-31.64"/>
</g>
<!-- Node9 -->
<g id="node9" class="node">
<title>Node9</title>
<g id="a_node9"><a xlink:title=" ">
<polygon fill="white" stroke="#bfbfbf" points="188,-0.5 188,-21.5 243,-21.5 243,-0.5 188,-0.5"/>
<text text-anchor="middle" x="215.5" y="-7.9" font-family="DejaVuSans" font-size="12.00">stdint.h</text>
</a>
</g>
</g>
<!-- Node7&#45;&gt;Node9 -->
<g id="edge8" class="edge">
<title>Node7&#45;&gt;Node9</title>
<path fill="none" stroke="midnightblue" d="M279.91,-58.25C268.17,-49.81 250.98,-37.47 237.31,-27.66"/>
<polygon fill="midnightblue" stroke="midnightblue" points="239.1,-24.63 228.93,-21.64 235.01,-30.32 239.1,-24.63"/>
</g>
<!-- Node10 -->
<g id="node10" class="node">
<title>Node10</title>
<g id="a_node10"><a xlink:title=" ">
<polygon fill="white" stroke="#bfbfbf" points="344,-0.5 344,-21.5 403,-21.5 403,-0.5 344,-0.5"/>
<text text-anchor="middle" x="373.5" y="-7.9" font-family="DejaVuSans" font-size="12.00">stddef.h</text>
</a>
</g>
</g>
<!-- Node7&#45;&gt;Node10 -->
<g id="edge9" class="edge">
<title>Node7&#45;&gt;Node10</title>
<path fill="none" stroke="midnightblue" d="M307.43,-58.25C319.59,-49.73 337.45,-37.24 351.53,-27.38"/>
<polygon fill="midnightblue" stroke="midnightblue" points="353.54,-30.24 359.72,-21.64 349.53,-24.51 353.54,-30.24"/>
</g>
<!-- Node11&#45;&gt;Node3 -->
<g id="edge11" class="edge">
<title>Node11&#45;&gt;Node3</title>
<path fill="none" stroke="midnightblue" d="M24.78,-290.43C23.59,-266.86 24.04,-205.63 57.5,-174 85.33,-147.69 194.5,-135.47 254.12,-130.65"/>
<polygon fill="midnightblue" stroke="midnightblue" points="254.59,-134.12 264.29,-129.86 254.05,-127.14 254.59,-134.12"/>
</g>
<!-- Node12 -->
<g id="node12" class="node">
<title>Node12</title>
<g id="a_node12"><a xlink:href="str_8h.html" target="_top" xlink:title=" ">
<polygon fill="white" stroke="black" points="164,-232.5 164,-253.5 203,-253.5 203,-232.5 164,-232.5"/>
<text text-anchor="middle" x="183.5" y="-239.9" font-family="DejaVuSans" font-size="12.00">str.h</text>
</a>
</g>
</g>
<!-- Node11&#45;&gt;Node12 -->
<g id="edge12" class="edge">
<title>Node11&#45;&gt;Node12</title>
<path fill="none" stroke="midnightblue" d="M51.24,-290.88C79.4,-280.9 124.46,-264.93 154.02,-254.45"/>
<polygon fill="midnightblue" stroke="midnightblue" points="155.52,-257.63 163.77,-250.99 153.18,-251.03 155.52,-257.63"/>
</g>
<!-- Node12&#45;&gt;Node3 -->
<g id="edge15" class="edge">
<title>Node12&#45;&gt;Node3</title>
<path fill="none" stroke="midnightblue" d="M186.45,-232.2C191.13,-217.99 201.39,-191.46 217.5,-174 229.68,-160.79 246.51,-150.08 261.24,-142.33"/>
<polygon fill="midnightblue" stroke="midnightblue" points="263.17,-145.28 270.54,-137.66 260.04,-139.02 263.17,-145.28"/>
</g>
<!-- Node12&#45;&gt;Node9 -->
<g id="edge14" class="edge">
<title>Node12&#45;&gt;Node9</title>
<path fill="none" stroke="midnightblue" d="M163.75,-238.54C141.53,-233.48 106.46,-221.71 90.5,-196 72.19,-166.52 20.12,-167.1 101.5,-58 111.1,-45.13 148.81,-31.49 178.26,-22.44"/>
<polygon fill="midnightblue" stroke="midnightblue" points="179.31,-25.78 187.88,-19.55 177.29,-19.08 179.31,-25.78"/>
</g>
<!-- Node13 -->
<g id="node13" class="node">
<title>Node13</title>
<g id="a_node13"><a xlink:title=" ">
<polygon fill="white" stroke="#bfbfbf" points="345.5,-174.5 345.5,-195.5 397.5,-195.5 397.5,-174.5 345.5,-174.5"/>
<text text-anchor="middle" x="371.5" y="-181.9" font-family="DejaVuSans" font-size="12.00">stdio.h</text>
</a>
</g>
</g>
<!-- Node12&#45;&gt;Node13 -->
<g id="edge13" class="edge">
<title>Node12&#45;&gt;Node13</title>
<path fill="none" stroke="midnightblue" d="M203.26,-236.11C234.66,-226.76 296.38,-208.37 335.7,-196.66"/>
<polygon fill="midnightblue" stroke="midnightblue" points="336.84,-199.98 345.43,-193.77 334.85,-193.27 336.84,-199.98"/>
</g>
<!-- Node14 -->
<g id="node14" class="node">
<title>Node14</title>
<g id="a_node14"><a xlink:href="charset_8h.html" target="_top" xlink:title=" ">
<polygon fill="white" stroke="black" points="100,-174.5 100,-195.5 165,-195.5 165,-174.5 100,-174.5"/>
<text text-anchor="middle" x="132.5" y="-181.9" font-family="DejaVuSans" font-size="12.00">charset.h</text>
</a>
</g>
</g>
<!-- Node12&#45;&gt;Node14 -->
<g id="edge16" class="edge">
<title>Node12&#45;&gt;Node14</title>
<path fill="none" stroke="midnightblue" d="M174.62,-232.25C167.3,-224.22 156.76,-212.64 148.05,-203.08"/>
<polygon fill="midnightblue" stroke="midnightblue" points="150.6,-200.68 141.28,-195.64 145.43,-205.39 150.6,-200.68"/>
</g>
<!-- Node14&#45;&gt;Node3 -->
<g id="edge17" class="edge">
<title>Node14&#45;&gt;Node3</title>
<path fill="none" stroke="midnightblue" d="M160.18,-174.37C186.83,-165.1 227.32,-151.02 256.69,-140.8"/>
<polygon fill="midnightblue" stroke="midnightblue" points="257.89,-144.09 266.18,-137.5 255.59,-137.48 257.89,-144.09"/>
</g>
<!-- Node15&#45;&gt;Node3 -->
<g id="edge19" class="edge">
<title>Node15&#45;&gt;Node3</title>
<path fill="none" stroke="midnightblue" d="M355.41,-356.37C314.17,-353.04 242.75,-342.9 190.5,-312 131.91,-277.35 113.56,-260.04 90.5,-196 87.19,-186.8 84.4,-181.64 90.5,-174 110.59,-148.85 201,-136.43 254.15,-131.2"/>
<polygon fill="midnightblue" stroke="midnightblue" points="254.62,-134.67 264.25,-130.25 253.97,-127.7 254.62,-134.67"/>
</g>
<!-- Node15&#45;&gt;Node14 -->
<g id="edge41" class="edge">
<title>Node15&#45;&gt;Node14</title>
<path fill="none" stroke="midnightblue" d="M355.37,-352.8C304.26,-342.97 206.65,-316.74 154.5,-254 143.12,-240.31 137.59,-220.62 134.92,-205.94"/>
<polygon fill="midnightblue" stroke="midnightblue" points="138.35,-205.24 133.39,-195.88 131.43,-206.29 138.35,-205.24"/>
</g>
<!-- Node16 -->
<g id="node16" class="node">
<title>Node16</title>
<g id="a_node16"><a xlink:href="mem_8h.html" target="_top" xlink:title=" ">
<polygon fill="white" stroke="black" points="473,-232.5 473,-253.5 526,-253.5 526,-232.5 473,-232.5"/>
<text text-anchor="middle" x="499.5" y="-239.9" font-family="DejaVuSans" font-size="12.00">mem.h</text>
</a>
</g>
</g>
<!-- Node15&#45;&gt;Node16 -->
<g id="edge20" class="edge">
<title>Node15&#45;&gt;Node16</title>
<path fill="none" stroke="midnightblue" d="M397.96,-348.28C416.8,-328.93 459.22,-285.37 482.83,-261.12"/>
<polygon fill="midnightblue" stroke="midnightblue" points="485.59,-263.3 490.06,-253.69 480.58,-258.42 485.59,-263.3"/>
</g>
<!-- Node17 -->
<g id="node17" class="node">
<title>Node17</title>
<g id="a_node17"><a xlink:href="tex__constant_8h.html" target="_top" xlink:title=" ">
<polygon fill="white" stroke="black" points="529.5,-174.5 529.5,-195.5 623.5,-195.5 623.5,-174.5 529.5,-174.5"/>
<text text-anchor="middle" x="576.5" y="-181.9" font-family="DejaVuSans" font-size="12.00">tex_constant.h</text>
</a>
</g>
</g>
<!-- Node15&#45;&gt;Node17 -->
<g id="edge42" class="edge">
<title>Node15&#45;&gt;Node17</title>
<path fill="none" stroke="midnightblue" d="M416.62,-348.43C454.65,-334.03 521.91,-303.11 558.5,-254 568.96,-239.95 573.35,-220.3 575.19,-205.73"/>
<polygon fill="midnightblue" stroke="midnightblue" points="578.68,-206.05 576.15,-195.76 571.71,-205.38 578.68,-206.05"/>
</g>
<!-- Node18 -->
<g id="node18" class="node">
<title>Node18</title>
<g id="a_node18"><a xlink:href="box_8h.html" target="_top" xlink:title=" ">
<polygon fill="white" stroke="black" points="270.5,-290.5 270.5,-311.5 316.5,-311.5 316.5,-290.5 270.5,-290.5"/>
<text text-anchor="middle" x="293.5" y="-297.9" font-family="DejaVuSans" font-size="12.00">box.h</text>
</a>
</g>
</g>
<!-- Node15&#45;&gt;Node18 -->
<g id="edge24" class="edge">
<title>Node15&#45;&gt;Node18</title>
<path fill="none" stroke="midnightblue" d="M371.95,-348.25C357.24,-339.57 335.51,-326.76 318.65,-316.82"/>
<polygon fill="midnightblue" stroke="midnightblue" points="320.25,-313.71 309.86,-311.64 316.7,-319.74 320.25,-313.71"/>
</g>
<!-- Node20 -->
<g id="node20" class="node">
<title>Node20</title>
<g id="a_node20"><a xlink:href="fonts_8h.html" target="_top" xlink:title=" ">
<polygon fill="white" stroke="black" points="362.5,-290.5 362.5,-311.5 414.5,-311.5 414.5,-290.5 362.5,-290.5"/>
<text text-anchor="middle" x="388.5" y="-297.9" font-family="DejaVuSans" font-size="12.00">fonts.h</text>
</a>
</g>
</g>
<!-- Node15&#45;&gt;Node20 -->
<g id="edge30" class="edge">
<title>Node15&#45;&gt;Node20</title>
<path fill="none" stroke="midnightblue" d="M388.5,-348.25C388.5,-340.94 388.5,-330.69 388.5,-321.7"/>
<polygon fill="midnightblue" stroke="midnightblue" points="392,-321.64 388.5,-311.64 385,-321.64 392,-321.64"/>
</g>
<!-- Node22 -->
<g id="node22" class="node">
<title>Node22</title>
<g id="a_node22"><a xlink:href="eqtb_8h.html" target="_top" xlink:title=" ">
<polygon fill="white" stroke="black" points="620.5,-232.5 620.5,-253.5 670.5,-253.5 670.5,-232.5 620.5,-232.5"/>
<text text-anchor="middle" x="645.5" y="-239.9" font-family="DejaVuSans" font-size="12.00">eqtb.h</text>
</a>
</g>
</g>
<!-- Node15&#45;&gt;Node22 -->
<g id="edge38" class="edge">
<title>Node15&#45;&gt;Node22</title>
<path fill="none" stroke="midnightblue" d="M421.53,-354.36C474.96,-347.94 577.33,-333.22 606.5,-312 622.95,-300.03 633.49,-278.85 639.41,-263.3"/>
<polygon fill="midnightblue" stroke="midnightblue" points="642.8,-264.21 642.79,-253.61 636.19,-261.91 642.8,-264.21"/>
</g>
<!-- Node16&#45;&gt;Node3 -->
<g id="edge21" class="edge">
<title>Node16&#45;&gt;Node3</title>
<path fill="none" stroke="midnightblue" d="M499.18,-232.1C498.16,-217.28 494,-189.42 477.5,-174 438.21,-137.29 374.19,-128.7 332.96,-127.29"/>
<polygon fill="midnightblue" stroke="midnightblue" points="332.82,-123.78 322.75,-127.07 332.67,-130.78 332.82,-123.78"/>
</g>
<!-- Node16&#45;&gt;Node17 -->
<g id="edge22" class="edge">
<title>Node16&#45;&gt;Node17</title>
<path fill="none" stroke="midnightblue" d="M512.91,-232.25C524.51,-223.81 541.47,-211.47 554.97,-201.66"/>
<polygon fill="midnightblue" stroke="midnightblue" points="557.21,-204.36 563.24,-195.64 553.1,-198.69 557.21,-204.36"/>
</g>
<!-- Node17&#45;&gt;Node6 -->
<g id="edge23" class="edge">
<title>Node17&#45;&gt;Node6</title>
<path fill="none" stroke="midnightblue" d="M568.83,-174.28C553.68,-155.1 519.76,-112.12 500.52,-87.75"/>
<polygon fill="midnightblue" stroke="midnightblue" points="503.1,-85.38 494.15,-79.69 497.6,-89.71 503.1,-85.38"/>
</g>
<!-- Node18&#45;&gt;Node3 -->
<g id="edge25" class="edge">
<title>Node18&#45;&gt;Node3</title>
<path fill="none" stroke="midnightblue" d="M285.54,-290.41C268.96,-269.19 233.62,-216.79 250.5,-174 255.05,-162.48 263.99,-152.14 272.55,-144.2"/>
<polygon fill="midnightblue" stroke="midnightblue" points="274.89,-146.81 280.17,-137.62 270.32,-141.51 274.89,-146.81"/>
</g>
<!-- Node18&#45;&gt;Node12 -->
<g id="edge29" class="edge">
<title>Node18&#45;&gt;Node12</title>
<path fill="none" stroke="midnightblue" d="M274.34,-290.25C256.99,-281.41 231.21,-268.29 211.54,-258.28"/>
<polygon fill="midnightblue" stroke="midnightblue" points="212.94,-255.06 202.44,-253.64 209.76,-261.3 212.94,-255.06"/>
</g>
<!-- Node18&#45;&gt;Node16 -->
<g id="edge26" class="edge">
<title>Node18&#45;&gt;Node16</title>
<path fill="none" stroke="midnightblue" d="M316.73,-293.68C352.31,-284.01 420.6,-265.45 462.89,-253.95"/>
<polygon fill="midnightblue" stroke="midnightblue" points="464.05,-257.26 472.79,-251.26 462.22,-250.51 464.05,-257.26"/>
</g>
<!-- Node19 -->
<g id="node19" class="node">
<title>Node19</title>
<g id="a_node19"><a xlink:href="texmath_8h.html" target="_top" xlink:title=" ">
<polygon fill="white" stroke="black" points="259.5,-174.5 259.5,-195.5 327.5,-195.5 327.5,-174.5 259.5,-174.5"/>
<text text-anchor="middle" x="293.5" y="-181.9" font-family="DejaVuSans" font-size="12.00">texmath.h</text>
</a>
</g>
</g>
<!-- Node18&#45;&gt;Node19 -->
<g id="edge27" class="edge">
<title>Node18&#45;&gt;Node19</title>
<path fill="none" stroke="midnightblue" d="M293.5,-290.28C293.5,-271.6 293.5,-230.37 293.5,-205.72"/>
<polygon fill="midnightblue" stroke="midnightblue" points="297,-205.69 293.5,-195.69 290,-205.7 297,-205.69"/>
</g>
<!-- Node19&#45;&gt;Node3 -->
<g id="edge28" class="edge">
<title>Node19&#45;&gt;Node3</title>
<path fill="none" stroke="midnightblue" d="M293.5,-174.25C293.5,-166.94 293.5,-156.69 293.5,-147.7"/>
<polygon fill="midnightblue" stroke="midnightblue" points="297,-147.64 293.5,-137.64 290,-147.64 297,-147.64"/>
</g>
<!-- Node20&#45;&gt;Node3 -->
<g id="edge32" class="edge">
<title>Node20&#45;&gt;Node3</title>
<path fill="none" stroke="midnightblue" d="M399.65,-290.33C408.57,-281.8 420.39,-268.5 425.5,-254 431.13,-238.02 435.35,-190.16 423.5,-174 402.67,-145.59 362.84,-134.64 332.72,-130.47"/>
<polygon fill="midnightblue" stroke="midnightblue" points="332.87,-126.96 322.53,-129.26 332.04,-133.91 332.87,-126.96"/>
</g>
<!-- Node20&#45;&gt;Node12 -->
<g id="edge34" class="edge">
<title>Node20&#45;&gt;Node12</title>
<path fill="none" stroke="midnightblue" d="M362.12,-292.79C323.72,-282.3 252.67,-262.9 212.73,-251.98"/>
<polygon fill="midnightblue" stroke="midnightblue" points="213.61,-248.6 203.04,-249.34 211.77,-255.35 213.61,-248.6"/>
</g>
<!-- Node20&#45;&gt;Node13 -->
<g id="edge31" class="edge">
<title>Node20&#45;&gt;Node13</title>
<path fill="none" stroke="midnightblue" d="M377.35,-290.33C368.43,-281.8 356.61,-268.5 351.5,-254 345.71,-237.56 352.45,-218.5 359.62,-204.75"/>
<polygon fill="midnightblue" stroke="midnightblue" points="362.82,-206.2 364.75,-195.79 356.75,-202.73 362.82,-206.2"/>
</g>
<!-- Node20&#45;&gt;Node17 -->
<g id="edge33" class="edge">
<title>Node20&#45;&gt;Node17</title>
<path fill="none" stroke="midnightblue" d="M414.51,-297.35C445.85,-292.99 498.74,-281.83 534.5,-254 550.69,-241.4 562.19,-220.67 569.02,-205.4"/>
<polygon fill="midnightblue" stroke="midnightblue" points="572.37,-206.45 573,-195.87 565.91,-203.75 572.37,-206.45"/>
</g>
<!-- Node21 -->
<g id="node21" class="node">
<title>Node21</title>
<g id="a_node21"><a xlink:href="dump_8h.html" target="_top" xlink:title=" ">
<polygon fill="white" stroke="black" points="360.5,-232.5 360.5,-253.5 416.5,-253.5 416.5,-232.5 360.5,-232.5"/>
<text text-anchor="middle" x="388.5" y="-239.9" font-family="DejaVuSans" font-size="12.00">dump.h</text>
</a>
</g>
</g>
<!-- Node20&#45;&gt;Node21 -->
<g id="edge35" class="edge">
<title>Node20&#45;&gt;Node21</title>
<path fill="none" stroke="midnightblue" d="M388.5,-290.25C388.5,-282.94 388.5,-272.69 388.5,-263.7"/>
<polygon fill="midnightblue" stroke="midnightblue" points="392,-263.64 388.5,-253.64 385,-263.64 392,-263.64"/>
</g>
<!-- Node21&#45;&gt;Node3 -->
<g id="edge37" class="edge">
<title>Node21&#45;&gt;Node3</title>
<path fill="none" stroke="midnightblue" d="M395.56,-232.4C404.89,-218.45 418.77,-192.24 406.5,-174 390.06,-149.56 358.15,-138.1 332.41,-132.73"/>
<polygon fill="midnightblue" stroke="midnightblue" points="333.02,-129.28 322.54,-130.9 331.74,-136.16 333.02,-129.28"/>
</g>
<!-- Node21&#45;&gt;Node13 -->
<g id="edge36" class="edge">
<title>Node21&#45;&gt;Node13</title>
<path fill="none" stroke="midnightblue" d="M385.54,-232.25C383.3,-224.86 380.14,-214.47 377.39,-205.41"/>
<polygon fill="midnightblue" stroke="midnightblue" points="380.68,-204.19 374.43,-195.64 373.98,-206.23 380.68,-204.19"/>
</g>
<!-- Node22&#45;&gt;Node3 -->
<g id="edge39" class="edge">
<title>Node22&#45;&gt;Node3</title>
<path fill="none" stroke="midnightblue" d="M646.8,-232.5C648.25,-217.68 648.55,-189.21 632.5,-174 590.1,-133.83 412.77,-128.23 332.85,-127.79"/>
<polygon fill="midnightblue" stroke="midnightblue" points="332.71,-124.29 322.7,-127.76 332.69,-131.29 332.71,-124.29"/>
</g>
<!-- Node22&#45;&gt;Node17 -->
<g id="edge40" class="edge">
<title>Node22&#45;&gt;Node17</title>
<path fill="none" stroke="midnightblue" d="M633.48,-232.25C623.29,-223.97 608.46,-211.94 596.49,-202.22"/>
<polygon fill="midnightblue" stroke="midnightblue" points="598.35,-199.23 588.38,-195.64 593.94,-204.66 598.35,-199.23"/>
</g>
</g>
</svg>
