<?xml version="1.0" encoding="UTF-8" standalone="no"?>
<!DOCTYPE svg PUBLIC "-//W3C//DTD SVG 1.1//EN"
 "http://www.w3.org/Graphics/SVG/1.1/DTD/svg11.dtd">
<!-- Generated by graphviz version 2.47.3 (20210711.2253)
 -->
<!-- Title: hyphen.h Pages: 1 -->
<svg width="576pt" height="378pt"
 viewBox="0.00 0.00 576.20 378.00" xmlns="http://www.w3.org/2000/svg" xmlns:xlink="http://www.w3.org/1999/xlink">
<g id="graph0" class="graph" transform="scale(1 1) rotate(0) translate(4 374)">
<title>hyphen.h</title>
<polygon fill="white" stroke="transparent" points="-4,4 -4,-374 572.2,-374 572.2,4 -4,4"/>
<!-- Node1 -->
<g id="node1" class="node">
<title>Node1</title>
<g id="a_node1"><a xlink:title=" ">
<polygon fill="#bfbfbf" stroke="black" points="111.98,-348.5 111.98,-369.5 177.98,-369.5 177.98,-348.5 111.98,-348.5"/>
<text text-anchor="middle" x="144.98" y="-355.9" font-family="DejaVuSans" font-size="12.00">hyphen.h</text>
</a>
</g>
</g>
<!-- Node2 -->
<g id="node2" class="node">
<title>Node2</title>
<g id="a_node2"><a xlink:href="global_8h.html" target="_top" xlink:title=" ">
<polygon fill="white" stroke="black" points="236.98,-116.5 236.98,-137.5 294.98,-137.5 294.98,-116.5 236.98,-116.5"/>
<text text-anchor="middle" x="265.98" y="-123.9" font-family="DejaVuSans" font-size="12.00">global.h</text>
</a>
</g>
</g>
<!-- Node1&#45;&gt;Node2 -->
<g id="edge1" class="edge">
<title>Node1&#45;&gt;Node2</title>
<path fill="none" stroke="midnightblue" d="M117.44,-348.45C81.92,-334.32 22.38,-304 2.98,-254 -4.8,-233.97 4.74,-181.42 11.98,-174 41.17,-144.06 162.77,-133.33 226.54,-129.71"/>
<polygon fill="midnightblue" stroke="midnightblue" points="226.83,-133.2 236.63,-129.17 226.46,-126.21 226.83,-133.2"/>
</g>
<!-- Node10 -->
<g id="node10" class="node">
<title>Node10</title>
<g id="a_node10"><a xlink:href="mem_8h.html" target="_top" xlink:title=" ">
<polygon fill="white" stroke="black" points="118.48,-232.5 118.48,-253.5 171.48,-253.5 171.48,-232.5 118.48,-232.5"/>
<text text-anchor="middle" x="144.98" y="-239.9" font-family="DejaVuSans" font-size="12.00">mem.h</text>
</a>
</g>
</g>
<!-- Node1&#45;&gt;Node10 -->
<g id="edge9" class="edge">
<title>Node1&#45;&gt;Node10</title>
<path fill="none" stroke="midnightblue" d="M144.98,-348.28C144.98,-329.6 144.98,-288.37 144.98,-263.72"/>
<polygon fill="midnightblue" stroke="midnightblue" points="148.48,-263.69 144.98,-253.69 141.48,-263.7 148.48,-263.69"/>
</g>
<!-- Node11 -->
<g id="node11" class="node">
<title>Node11</title>
<g id="a_node11"><a xlink:href="tex__constant_8h.html" target="_top" xlink:title=" ">
<polygon fill="white" stroke="black" points="29.98,-174.5 29.98,-195.5 123.98,-195.5 123.98,-174.5 29.98,-174.5"/>
<text text-anchor="middle" x="76.98" y="-181.9" font-family="DejaVuSans" font-size="12.00">tex_constant.h</text>
</a>
</g>
</g>
<!-- Node1&#45;&gt;Node11 -->
<g id="edge36" class="edge">
<title>Node1&#45;&gt;Node11</title>
<path fill="none" stroke="midnightblue" d="M141.13,-348.26C130.23,-320.71 99.05,-241.83 84.55,-205.17"/>
<polygon fill="midnightblue" stroke="midnightblue" points="87.72,-203.65 80.79,-195.63 81.21,-206.22 87.72,-203.65"/>
</g>
<!-- Node12 -->
<g id="node12" class="node">
<title>Node12</title>
<g id="a_node12"><a xlink:href="box_8h.html" target="_top" xlink:title=" ">
<polygon fill="white" stroke="black" points="214.98,-290.5 214.98,-311.5 260.98,-311.5 260.98,-290.5 214.98,-290.5"/>
<text text-anchor="middle" x="237.98" y="-297.9" font-family="DejaVuSans" font-size="12.00">box.h</text>
</a>
</g>
</g>
<!-- Node1&#45;&gt;Node12 -->
<g id="edge13" class="edge">
<title>Node1&#45;&gt;Node12</title>
<path fill="none" stroke="midnightblue" d="M161.18,-348.25C175.58,-339.57 196.85,-326.76 213.36,-316.82"/>
<polygon fill="midnightblue" stroke="midnightblue" points="215.2,-319.8 221.96,-311.64 211.59,-313.8 215.2,-319.8"/>
</g>
<!-- Node16 -->
<g id="node16" class="node">
<title>Node16</title>
<g id="a_node16"><a xlink:href="charset_8h.html" target="_top" xlink:title=" ">
<polygon fill="white" stroke="black" points="304.48,-174.5 304.48,-195.5 369.48,-195.5 369.48,-174.5 304.48,-174.5"/>
<text text-anchor="middle" x="336.98" y="-181.9" font-family="DejaVuSans" font-size="12.00">charset.h</text>
</a>
</g>
</g>
<!-- Node1&#45;&gt;Node16 -->
<g id="edge35" class="edge">
<title>Node1&#45;&gt;Node16</title>
<path fill="none" stroke="midnightblue" d="M178.08,-352.6C205.42,-346.68 243.84,-334.8 269.98,-312 303.43,-282.81 322.88,-232.74 331.54,-205.33"/>
<polygon fill="midnightblue" stroke="midnightblue" points="334.9,-206.3 334.42,-195.71 328.2,-204.29 334.9,-206.3"/>
</g>
<!-- Node17 -->
<g id="node17" class="node">
<title>Node17</title>
<g id="a_node17"><a xlink:href="fonts_8h.html" target="_top" xlink:title=" ">
<polygon fill="white" stroke="black" points="385.98,-290.5 385.98,-311.5 437.98,-311.5 437.98,-290.5 385.98,-290.5"/>
<text text-anchor="middle" x="411.98" y="-297.9" font-family="DejaVuSans" font-size="12.00">fonts.h</text>
</a>
</g>
</g>
<!-- Node1&#45;&gt;Node17 -->
<g id="edge24" class="edge">
<title>Node1&#45;&gt;Node17</title>
<path fill="none" stroke="midnightblue" d="M177.98,-351.08C228.34,-340.51 323.99,-320.45 376.04,-309.54"/>
<polygon fill="midnightblue" stroke="midnightblue" points="376.77,-312.96 385.84,-307.48 375.34,-306.11 376.77,-312.96"/>
</g>
<!-- Node19 -->
<g id="node19" class="node">
<title>Node19</title>
<g id="a_node19"><a xlink:href="eqtb_8h.html" target="_top" xlink:title=" ">
<polygon fill="white" stroke="black" points="11.98,-232.5 11.98,-253.5 61.98,-253.5 61.98,-232.5 11.98,-232.5"/>
<text text-anchor="middle" x="36.98" y="-239.9" font-family="DejaVuSans" font-size="12.00">eqtb.h</text>
</a>
</g>
</g>
<!-- Node1&#45;&gt;Node19 -->
<g id="edge32" class="edge">
<title>Node1&#45;&gt;Node19</title>
<path fill="none" stroke="midnightblue" d="M125.96,-348.49C111.04,-340.33 90.43,-327.46 75.98,-312 62.51,-297.6 51.8,-277.73 45.04,-263.18"/>
<polygon fill="midnightblue" stroke="midnightblue" points="48.08,-261.41 40.82,-253.69 41.68,-264.25 48.08,-261.41"/>
</g>
<!-- Node3 -->
<g id="node3" class="node">
<title>Node3</title>
<g id="a_node3"><a xlink:href="global__macros_8h.html" target="_top" xlink:title=" ">
<polygon fill="white" stroke="black" points="195.98,-58.5 195.98,-79.5 299.98,-79.5 299.98,-58.5 195.98,-58.5"/>
<text text-anchor="middle" x="247.98" y="-65.9" font-family="DejaVuSans" font-size="12.00">global_macros.h</text>
</a>
</g>
</g>
<!-- Node2&#45;&gt;Node3 -->
<g id="edge2" class="edge">
<title>Node2&#45;&gt;Node3</title>
<path fill="none" stroke="midnightblue" d="M262.84,-116.25C260.47,-108.86 257.13,-98.47 254.22,-89.41"/>
<polygon fill="midnightblue" stroke="midnightblue" points="257.47,-88.09 251.08,-79.64 250.8,-90.23 257.47,-88.09"/>
</g>
<!-- Node5 -->
<g id="node5" class="node">
<title>Node5</title>
<g id="a_node5"><a xlink:href="global__const_8h.html" target="_top" xlink:title=" ">
<polygon fill="white" stroke="black" points="73.48,-58.5 73.48,-79.5 166.48,-79.5 166.48,-58.5 73.48,-58.5"/>
<text text-anchor="middle" x="119.98" y="-65.9" font-family="DejaVuSans" font-size="12.00">global_const.h</text>
</a>
</g>
</g>
<!-- Node2&#45;&gt;Node5 -->
<g id="edge4" class="edge">
<title>Node2&#45;&gt;Node5</title>
<path fill="none" stroke="midnightblue" d="M240.88,-116.37C217.02,-107.22 180.94,-93.38 154.41,-83.21"/>
<polygon fill="midnightblue" stroke="midnightblue" points="155.34,-79.81 144.75,-79.5 152.83,-86.35 155.34,-79.81"/>
</g>
<!-- Node6 -->
<g id="node6" class="node">
<title>Node6</title>
<g id="a_node6"><a xlink:href="tex__types_8h.html" target="_top" xlink:title=" ">
<polygon fill="white" stroke="black" points="335.48,-58.5 335.48,-79.5 412.48,-79.5 412.48,-58.5 335.48,-58.5"/>
<text text-anchor="middle" x="373.98" y="-65.9" font-family="DejaVuSans" font-size="12.00">tex_types.h</text>
</a>
</g>
</g>
<!-- Node2&#45;&gt;Node6 -->
<g id="edge5" class="edge">
<title>Node2&#45;&gt;Node6</title>
<path fill="none" stroke="midnightblue" d="M284.79,-116.25C301.82,-107.41 327.13,-94.29 346.45,-84.28"/>
<polygon fill="midnightblue" stroke="midnightblue" points="348.11,-87.35 355.38,-79.64 344.89,-81.14 348.11,-87.35"/>
</g>
<!-- Node4 -->
<g id="node4" class="node">
<title>Node4</title>
<g id="a_node4"><a xlink:title=" ">
<polygon fill="white" stroke="#bfbfbf" points="209.48,-0.5 209.48,-21.5 268.48,-21.5 268.48,-0.5 209.48,-0.5"/>
<text text-anchor="middle" x="238.98" y="-7.9" font-family="DejaVuSans" font-size="12.00">assert.h</text>
</a>
</g>
</g>
<!-- Node3&#45;&gt;Node4 -->
<g id="edge3" class="edge">
<title>Node3&#45;&gt;Node4</title>
<path fill="none" stroke="midnightblue" d="M246.41,-58.25C245.23,-50.94 243.59,-40.69 242.14,-31.7"/>
<polygon fill="midnightblue" stroke="midnightblue" points="245.57,-30.96 240.53,-21.64 238.66,-32.07 245.57,-30.96"/>
</g>
<!-- Node7 -->
<g id="node7" class="node">
<title>Node7</title>
<g id="a_node7"><a xlink:title=" ">
<polygon fill="white" stroke="#bfbfbf" points="286.48,-0.5 286.48,-21.5 351.48,-21.5 351.48,-0.5 286.48,-0.5"/>
<text text-anchor="middle" x="318.98" y="-7.9" font-family="DejaVuSans" font-size="12.00">stdbool.h</text>
</a>
</g>
</g>
<!-- Node6&#45;&gt;Node7 -->
<g id="edge6" class="edge">
<title>Node6&#45;&gt;Node7</title>
<path fill="none" stroke="midnightblue" d="M364.4,-58.25C356.43,-50.14 344.91,-38.41 335.47,-28.79"/>
<polygon fill="midnightblue" stroke="midnightblue" points="337.95,-26.32 328.45,-21.64 332.96,-31.23 337.95,-26.32"/>
</g>
<!-- Node8 -->
<g id="node8" class="node">
<title>Node8</title>
<g id="a_node8"><a xlink:title=" ">
<polygon fill="white" stroke="#bfbfbf" points="446.48,-0.5 446.48,-21.5 501.48,-21.5 501.48,-0.5 446.48,-0.5"/>
<text text-anchor="middle" x="473.98" y="-7.9" font-family="DejaVuSans" font-size="12.00">stdint.h</text>
</a>
</g>
</g>
<!-- Node6&#45;&gt;Node8 -->
<g id="edge7" class="edge">
<title>Node6&#45;&gt;Node8</title>
<path fill="none" stroke="midnightblue" d="M391.4,-58.25C407.03,-49.49 430.18,-36.53 448,-26.55"/>
<polygon fill="midnightblue" stroke="midnightblue" points="449.74,-29.58 456.76,-21.64 446.32,-23.47 449.74,-29.58"/>
</g>
<!-- Node9 -->
<g id="node9" class="node">
<title>Node9</title>
<g id="a_node9"><a xlink:title=" ">
<polygon fill="white" stroke="#bfbfbf" points="369.48,-0.5 369.48,-21.5 428.48,-21.5 428.48,-0.5 369.48,-0.5"/>
<text text-anchor="middle" x="398.98" y="-7.9" font-family="DejaVuSans" font-size="12.00">stddef.h</text>
</a>
</g>
</g>
<!-- Node6&#45;&gt;Node9 -->
<g id="edge8" class="edge">
<title>Node6&#45;&gt;Node9</title>
<path fill="none" stroke="midnightblue" d="M378.33,-58.25C381.7,-50.7 386.47,-40.02 390.58,-30.82"/>
<polygon fill="midnightblue" stroke="midnightblue" points="393.79,-32.2 394.67,-21.64 387.4,-29.35 393.79,-32.2"/>
</g>
<!-- Node10&#45;&gt;Node2 -->
<g id="edge10" class="edge">
<title>Node10&#45;&gt;Node2</title>
<path fill="none" stroke="midnightblue" d="M146.34,-232.49C148.84,-218.17 155.42,-190.95 170.98,-174 185.96,-157.67 207.98,-146.51 227.06,-139.27"/>
<polygon fill="midnightblue" stroke="midnightblue" points="228.46,-142.49 236.71,-135.84 226.11,-135.89 228.46,-142.49"/>
</g>
<!-- Node10&#45;&gt;Node11 -->
<g id="edge11" class="edge">
<title>Node10&#45;&gt;Node11</title>
<path fill="none" stroke="midnightblue" d="M133.13,-232.25C123.09,-223.97 108.48,-211.94 96.68,-202.22"/>
<polygon fill="midnightblue" stroke="midnightblue" points="98.63,-199.3 88.69,-195.64 94.18,-204.7 98.63,-199.3"/>
</g>
<!-- Node11&#45;&gt;Node5 -->
<g id="edge12" class="edge">
<title>Node11&#45;&gt;Node5</title>
<path fill="none" stroke="midnightblue" d="M80.64,-174.28C87.75,-155.43 103.52,-113.62 112.79,-89.05"/>
<polygon fill="midnightblue" stroke="midnightblue" points="116.07,-90.29 116.32,-79.69 109.52,-87.82 116.07,-90.29"/>
</g>
<!-- Node12&#45;&gt;Node2 -->
<g id="edge14" class="edge">
<title>Node12&#45;&gt;Node2</title>
<path fill="none" stroke="midnightblue" d="M239.92,-290.28C243.55,-271.91 251.5,-230.81 256.98,-196 259.52,-179.83 261.93,-161.41 263.61,-147.82"/>
<polygon fill="midnightblue" stroke="midnightblue" points="267.11,-148.06 264.84,-137.71 260.16,-147.21 267.11,-148.06"/>
</g>
<!-- Node12&#45;&gt;Node10 -->
<g id="edge15" class="edge">
<title>Node12&#45;&gt;Node10</title>
<path fill="none" stroke="midnightblue" d="M221.78,-290.25C207.38,-281.57 186.1,-268.76 169.6,-258.82"/>
<polygon fill="midnightblue" stroke="midnightblue" points="171.36,-255.8 160.99,-253.64 167.75,-261.8 171.36,-255.8"/>
</g>
<!-- Node13 -->
<g id="node13" class="node">
<title>Node13</title>
<g id="a_node13"><a xlink:href="texmath_8h.html" target="_top" xlink:title=" ">
<polygon fill="white" stroke="black" points="179.98,-174.5 179.98,-195.5 247.98,-195.5 247.98,-174.5 179.98,-174.5"/>
<text text-anchor="middle" x="213.98" y="-181.9" font-family="DejaVuSans" font-size="12.00">texmath.h</text>
</a>
</g>
</g>
<!-- Node12&#45;&gt;Node13 -->
<g id="edge16" class="edge">
<title>Node12&#45;&gt;Node13</title>
<path fill="none" stroke="midnightblue" d="M235.93,-290.28C232,-271.6 223.32,-230.37 218.13,-205.72"/>
<polygon fill="midnightblue" stroke="midnightblue" points="221.5,-204.76 216.02,-195.69 214.65,-206.2 221.5,-204.76"/>
</g>
<!-- Node14 -->
<g id="node14" class="node">
<title>Node14</title>
<g id="a_node14"><a xlink:href="str_8h.html" target="_top" xlink:title=" ">
<polygon fill="white" stroke="black" points="368.48,-232.5 368.48,-253.5 407.48,-253.5 407.48,-232.5 368.48,-232.5"/>
<text text-anchor="middle" x="387.98" y="-239.9" font-family="DejaVuSans" font-size="12.00">str.h</text>
</a>
</g>
</g>
<!-- Node12&#45;&gt;Node14 -->
<g id="edge18" class="edge">
<title>Node12&#45;&gt;Node14</title>
<path fill="none" stroke="midnightblue" d="M261.09,-291.37C287.4,-281.55 330.44,-265.48 358.99,-254.82"/>
<polygon fill="midnightblue" stroke="midnightblue" points="360.28,-258.07 368.43,-251.3 357.84,-251.52 360.28,-258.07"/>
</g>
<!-- Node13&#45;&gt;Node2 -->
<g id="edge17" class="edge">
<title>Node13&#45;&gt;Node2</title>
<path fill="none" stroke="midnightblue" d="M223.03,-174.25C230.49,-166.22 241.24,-154.64 250.12,-145.08"/>
<polygon fill="midnightblue" stroke="midnightblue" points="252.78,-147.35 257.02,-137.64 247.65,-142.59 252.78,-147.35"/>
</g>
<!-- Node14&#45;&gt;Node2 -->
<g id="edge21" class="edge">
<title>Node14&#45;&gt;Node2</title>
<path fill="none" stroke="midnightblue" d="M389.53,-232.06C391.21,-217.69 392.08,-190.96 378.98,-174 361.22,-151.02 330.07,-139.46 304.97,-133.68"/>
<polygon fill="midnightblue" stroke="midnightblue" points="305.49,-130.21 294.98,-131.6 304.06,-137.07 305.49,-130.21"/>
</g>
<!-- Node14&#45;&gt;Node8 -->
<g id="edge20" class="edge">
<title>Node14&#45;&gt;Node8</title>
<path fill="none" stroke="midnightblue" d="M391.56,-232.41C404.54,-197.71 449.21,-78.24 466.79,-31.22"/>
<polygon fill="midnightblue" stroke="midnightblue" points="470.15,-32.22 470.38,-21.63 463.6,-29.77 470.15,-32.22"/>
</g>
<!-- Node15 -->
<g id="node15" class="node">
<title>Node15</title>
<g id="a_node15"><a xlink:title=" ">
<polygon fill="white" stroke="#bfbfbf" points="501.98,-174.5 501.98,-195.5 553.98,-195.5 553.98,-174.5 501.98,-174.5"/>
<text text-anchor="middle" x="527.98" y="-181.9" font-family="DejaVuSans" font-size="12.00">stdio.h</text>
</a>
</g>
</g>
<!-- Node14&#45;&gt;Node15 -->
<g id="edge19" class="edge">
<title>Node14&#45;&gt;Node15</title>
<path fill="none" stroke="midnightblue" d="M407.74,-234.1C430.29,-225.07 467.56,-210.17 494.63,-199.34"/>
<polygon fill="midnightblue" stroke="midnightblue" points="496.11,-202.51 504.1,-195.55 493.51,-196.02 496.11,-202.51"/>
</g>
<!-- Node14&#45;&gt;Node16 -->
<g id="edge22" class="edge">
<title>Node14&#45;&gt;Node16</title>
<path fill="none" stroke="midnightblue" d="M379.09,-232.25C371.78,-224.22 361.24,-212.64 352.53,-203.08"/>
<polygon fill="midnightblue" stroke="midnightblue" points="355.08,-200.68 345.76,-195.64 349.9,-205.39 355.08,-200.68"/>
</g>
<!-- Node16&#45;&gt;Node2 -->
<g id="edge23" class="edge">
<title>Node16&#45;&gt;Node2</title>
<path fill="none" stroke="midnightblue" d="M324.61,-174.25C314.02,-165.89 298.57,-153.71 286.19,-143.94"/>
<polygon fill="midnightblue" stroke="midnightblue" points="288.22,-141.09 278.2,-137.64 283.89,-146.58 288.22,-141.09"/>
</g>
<!-- Node17&#45;&gt;Node2 -->
<g id="edge26" class="edge">
<title>Node17&#45;&gt;Node2</title>
<path fill="none" stroke="midnightblue" d="M414.29,-290.46C419.38,-266.96 428.66,-205.87 396.98,-174 372.53,-149.42 334.2,-137.94 305.3,-132.59"/>
<polygon fill="midnightblue" stroke="midnightblue" points="305.57,-129.09 295.13,-130.89 304.41,-135.99 305.57,-129.09"/>
</g>
<!-- Node17&#45;&gt;Node11 -->
<g id="edge27" class="edge">
<title>Node17&#45;&gt;Node11</title>
<path fill="none" stroke="midnightblue" d="M385.97,-291.15C327.07,-271.11 183.28,-222.17 114.64,-198.82"/>
<polygon fill="midnightblue" stroke="midnightblue" points="115.67,-195.47 105.08,-195.56 113.42,-202.1 115.67,-195.47"/>
</g>
<!-- Node17&#45;&gt;Node14 -->
<g id="edge28" class="edge">
<title>Node17&#45;&gt;Node14</title>
<path fill="none" stroke="midnightblue" d="M407.8,-290.25C404.6,-282.78 400.08,-272.24 396.17,-263.11"/>
<polygon fill="midnightblue" stroke="midnightblue" points="399.27,-261.46 392.11,-253.64 392.83,-264.21 399.27,-261.46"/>
</g>
<!-- Node17&#45;&gt;Node15 -->
<g id="edge25" class="edge">
<title>Node17&#45;&gt;Node15</title>
<path fill="none" stroke="midnightblue" d="M421.87,-290.28C441.64,-270.85 486.27,-226.99 510.88,-202.8"/>
<polygon fill="midnightblue" stroke="midnightblue" points="513.43,-205.2 518.11,-195.69 508.53,-200.21 513.43,-205.2"/>
</g>
<!-- Node18 -->
<g id="node18" class="node">
<title>Node18</title>
<g id="a_node18"><a xlink:href="dump_8h.html" target="_top" xlink:title=" ">
<polygon fill="white" stroke="black" points="501.98,-232.5 501.98,-253.5 557.98,-253.5 557.98,-232.5 501.98,-232.5"/>
<text text-anchor="middle" x="529.98" y="-239.9" font-family="DejaVuSans" font-size="12.00">dump.h</text>
</a>
</g>
</g>
<!-- Node17&#45;&gt;Node18 -->
<g id="edge29" class="edge">
<title>Node17&#45;&gt;Node18</title>
<path fill="none" stroke="midnightblue" d="M432.26,-290.37C451.12,-281.42 479.42,-267.99 500.72,-257.88"/>
<polygon fill="midnightblue" stroke="midnightblue" points="502.42,-260.95 509.96,-253.5 499.42,-254.63 502.42,-260.95"/>
</g>
<!-- Node18&#45;&gt;Node2 -->
<g id="edge31" class="edge">
<title>Node18&#45;&gt;Node2</title>
<path fill="none" stroke="midnightblue" d="M541.04,-232.32C555.79,-218.27 578.35,-191.93 562.98,-174 530.25,-135.81 378.41,-129.05 305.39,-128.04"/>
<polygon fill="midnightblue" stroke="midnightblue" points="305.25,-124.54 295.22,-127.93 305.18,-131.54 305.25,-124.54"/>
</g>
<!-- Node18&#45;&gt;Node15 -->
<g id="edge30" class="edge">
<title>Node18&#45;&gt;Node15</title>
<path fill="none" stroke="midnightblue" d="M529.63,-232.25C529.37,-224.94 529,-214.69 528.68,-205.7"/>
<polygon fill="midnightblue" stroke="midnightblue" points="532.18,-205.51 528.32,-195.64 525.18,-205.76 532.18,-205.51"/>
</g>
<!-- Node19&#45;&gt;Node2 -->
<g id="edge33" class="edge">
<title>Node19&#45;&gt;Node2</title>
<path fill="none" stroke="midnightblue" d="M30.21,-232.5C20.92,-218.19 6.88,-190.99 20.98,-174 46.64,-143.07 164.05,-132.8 226.56,-129.5"/>
<polygon fill="midnightblue" stroke="midnightblue" points="227.01,-132.98 236.82,-129 226.66,-125.99 227.01,-132.98"/>
</g>
<!-- Node19&#45;&gt;Node11 -->
<g id="edge34" class="edge">
<title>Node19&#45;&gt;Node11</title>
<path fill="none" stroke="midnightblue" d="M43.94,-232.25C49.51,-224.46 57.46,-213.33 64.16,-203.94"/>
<polygon fill="midnightblue" stroke="midnightblue" points="67.13,-205.81 70.09,-195.64 61.43,-201.75 67.13,-205.81"/>
</g>
</g>
</svg>
