<?xml version="1.0" encoding="UTF-8" standalone="no"?>
<!DOCTYPE svg PUBLIC "-//W3C//DTD SVG 1.1//EN"
 "http://www.w3.org/Graphics/SVG/1.1/DTD/svg11.dtd">
<!-- Generated by graphviz version 2.42.3 ()
 -->
<!-- Title: inipool.c Pages: 1 -->
<svg width="418pt" height="204pt"
 viewBox="0.00 0.00 417.50 204.00" xmlns="http://www.w3.org/2000/svg" xmlns:xlink="http://www.w3.org/1999/xlink">
<g id="graph0" class="graph" transform="scale(1 1) rotate(0) translate(4 200)">
<title>inipool.c</title>
<polygon fill="white" stroke="transparent" points="-4,4 -4,-200 413.5,-200 413.5,4 -4,4"/>
<!-- Node1 -->
<g id="node1" class="node">
<title>Node1</title>
<g id="a_node1"><a xlink:title=" ">
<polygon fill="#bfbfbf" stroke="black" points="150.5,-174.5 150.5,-195.5 211.5,-195.5 211.5,-174.5 150.5,-174.5"/>
<text text-anchor="middle" x="181" y="-181.9" font-family="DejaVuSans" font-size="12.00">inipool.c</text>
</a>
</g>
</g>
<!-- Node2 -->
<g id="node2" class="node">
<title>Node2</title>
<g id="a_node2"><a xlink:title=" ">
<polygon fill="white" stroke="#bfbfbf" points="0,-58.5 0,-79.5 52,-79.5 52,-58.5 0,-58.5"/>
<text text-anchor="middle" x="26" y="-65.9" font-family="DejaVuSans" font-size="12.00">stdio.h</text>
</a>
</g>
</g>
<!-- Node1&#45;&gt;Node2 -->
<g id="edge1" class="edge">
<title>Node1&#45;&gt;Node2</title>
<path fill="none" stroke="midnightblue" d="M150.43,-174.86C128.71,-167.34 99.66,-155.13 78,-138 60.59,-124.24 45.8,-103.4 36.5,-88.42"/>
<polygon fill="midnightblue" stroke="midnightblue" points="39.34,-86.35 31.2,-79.56 33.33,-89.94 39.34,-86.35"/>
</g>
<!-- Node3 -->
<g id="node3" class="node">
<title>Node3</title>
<g id="a_node3"><a xlink:title=" ">
<polygon fill="white" stroke="#bfbfbf" points="87,-116.5 87,-137.5 143,-137.5 143,-116.5 87,-116.5"/>
<text text-anchor="middle" x="115" y="-123.9" font-family="DejaVuSans" font-size="12.00">string.h</text>
</a>
</g>
</g>
<!-- Node1&#45;&gt;Node3 -->
<g id="edge2" class="edge">
<title>Node1&#45;&gt;Node3</title>
<path fill="none" stroke="midnightblue" d="M169.5,-174.25C159.76,-165.97 145.57,-153.94 134.12,-144.22"/>
<polygon fill="midnightblue" stroke="midnightblue" points="136.25,-141.44 126.36,-137.64 131.73,-146.78 136.25,-141.44"/>
</g>
<!-- Node4 -->
<g id="node4" class="node">
<title>Node4</title>
<g id="a_node4"><a xlink:href="tex_8h.html" target="_top" xlink:title=" ">
<polygon fill="white" stroke="black" points="232,-116.5 232,-137.5 274,-137.5 274,-116.5 232,-116.5"/>
<text text-anchor="middle" x="253" y="-123.9" font-family="DejaVuSans" font-size="12.00">tex.h</text>
</a>
</g>
</g>
<!-- Node1&#45;&gt;Node4 -->
<g id="edge3" class="edge">
<title>Node1&#45;&gt;Node4</title>
<path fill="none" stroke="midnightblue" d="M193.54,-174.25C204.28,-165.89 219.95,-153.71 232.5,-143.94"/>
<polygon fill="midnightblue" stroke="midnightblue" points="234.86,-146.54 240.6,-137.64 230.56,-141.02 234.86,-146.54"/>
</g>
<!-- Node9 -->
<g id="node9" class="node">
<title>Node9</title>
<g id="a_node9"><a xlink:href="str_8h.html" target="_top" xlink:title=" ">
<polygon fill="white" stroke="black" points="161.5,-116.5 161.5,-137.5 200.5,-137.5 200.5,-116.5 161.5,-116.5"/>
<text text-anchor="middle" x="181" y="-123.9" font-family="DejaVuSans" font-size="12.00">str.h</text>
</a>
</g>
</g>
<!-- Node1&#45;&gt;Node9 -->
<g id="edge8" class="edge">
<title>Node1&#45;&gt;Node9</title>
<path fill="none" stroke="midnightblue" d="M181,-174.25C181,-166.94 181,-156.69 181,-147.7"/>
<polygon fill="midnightblue" stroke="midnightblue" points="184.5,-147.64 181,-137.64 177.5,-147.64 184.5,-147.64"/>
</g>
<!-- Node12 -->
<g id="node12" class="node">
<title>Node12</title>
<g id="a_node12"><a xlink:href="pool__str_8c.html" target="_top" xlink:title=" ">
<polygon fill="white" stroke="black" points="292,-116.5 292,-137.5 360,-137.5 360,-116.5 292,-116.5"/>
<text text-anchor="middle" x="326" y="-123.9" font-family="DejaVuSans" font-size="12.00">pool_str.c</text>
</a>
</g>
</g>
<!-- Node1&#45;&gt;Node12 -->
<g id="edge13" class="edge">
<title>Node1&#45;&gt;Node12</title>
<path fill="none" stroke="midnightblue" d="M205.93,-174.37C229.62,-165.22 265.45,-151.38 291.81,-141.21"/>
<polygon fill="midnightblue" stroke="midnightblue" points="293.33,-144.37 301.4,-137.5 290.81,-137.84 293.33,-144.37"/>
</g>
<!-- Node5 -->
<g id="node5" class="node">
<title>Node5</title>
<g id="a_node5"><a xlink:href="tex__types_8h.html" target="_top" xlink:title=" ">
<polygon fill="white" stroke="black" points="332.5,-58.5 332.5,-79.5 409.5,-79.5 409.5,-58.5 332.5,-58.5"/>
<text text-anchor="middle" x="371" y="-65.9" font-family="DejaVuSans" font-size="12.00">tex_types.h</text>
</a>
</g>
</g>
<!-- Node4&#45;&gt;Node5 -->
<g id="edge4" class="edge">
<title>Node4&#45;&gt;Node5</title>
<path fill="none" stroke="midnightblue" d="M273.28,-116.37C292.14,-107.42 320.45,-93.99 341.75,-83.88"/>
<polygon fill="midnightblue" stroke="midnightblue" points="343.45,-86.95 350.98,-79.5 340.44,-80.63 343.45,-86.95"/>
</g>
<!-- Node8 -->
<g id="node8" class="node">
<title>Node8</title>
<g id="a_node8"><a xlink:href="tex__constant_8h.html" target="_top" xlink:title=" ">
<polygon fill="white" stroke="black" points="220,-58.5 220,-79.5 314,-79.5 314,-58.5 220,-58.5"/>
<text text-anchor="middle" x="267" y="-65.9" font-family="DejaVuSans" font-size="12.00">tex_constant.h</text>
</a>
</g>
</g>
<!-- Node4&#45;&gt;Node8 -->
<g id="edge7" class="edge">
<title>Node4&#45;&gt;Node8</title>
<path fill="none" stroke="midnightblue" d="M255.44,-116.25C257.29,-108.86 259.88,-98.47 262.15,-89.41"/>
<polygon fill="midnightblue" stroke="midnightblue" points="265.56,-90.19 264.59,-79.64 258.77,-88.5 265.56,-90.19"/>
</g>
<!-- Node6 -->
<g id="node6" class="node">
<title>Node6</title>
<g id="a_node6"><a xlink:title=" ">
<polygon fill="white" stroke="#bfbfbf" points="338.5,-0.5 338.5,-21.5 403.5,-21.5 403.5,-0.5 338.5,-0.5"/>
<text text-anchor="middle" x="371" y="-7.9" font-family="DejaVuSans" font-size="12.00">stdbool.h</text>
</a>
</g>
</g>
<!-- Node5&#45;&gt;Node6 -->
<g id="edge5" class="edge">
<title>Node5&#45;&gt;Node6</title>
<path fill="none" stroke="midnightblue" d="M371,-58.25C371,-50.94 371,-40.69 371,-31.7"/>
<polygon fill="midnightblue" stroke="midnightblue" points="374.5,-31.64 371,-21.64 367.5,-31.64 374.5,-31.64"/>
</g>
<!-- Node7 -->
<g id="node7" class="node">
<title>Node7</title>
<g id="a_node7"><a xlink:title=" ">
<polygon fill="white" stroke="#bfbfbf" points="215.5,-0.5 215.5,-21.5 270.5,-21.5 270.5,-0.5 215.5,-0.5"/>
<text text-anchor="middle" x="243" y="-7.9" font-family="DejaVuSans" font-size="12.00">stdint.h</text>
</a>
</g>
</g>
<!-- Node5&#45;&gt;Node7 -->
<g id="edge6" class="edge">
<title>Node5&#45;&gt;Node7</title>
<path fill="none" stroke="midnightblue" d="M349,-58.37C328.36,-49.34 297.28,-35.75 274.11,-25.61"/>
<polygon fill="midnightblue" stroke="midnightblue" points="275.28,-22.3 264.72,-21.5 272.48,-28.72 275.28,-22.3"/>
</g>
<!-- Node9&#45;&gt;Node2 -->
<g id="edge9" class="edge">
<title>Node9&#45;&gt;Node2</title>
<path fill="none" stroke="midnightblue" d="M161.37,-118.91C136.38,-109.88 92.73,-94.11 61.76,-82.92"/>
<polygon fill="midnightblue" stroke="midnightblue" points="62.78,-79.57 52.19,-79.46 60.41,-86.15 62.78,-79.57"/>
</g>
<!-- Node9&#45;&gt;Node7 -->
<g id="edge10" class="edge">
<title>Node9&#45;&gt;Node7</title>
<path fill="none" stroke="midnightblue" d="M184.53,-116.49C189.64,-103.08 199.75,-78.03 211,-58 216.46,-48.28 223.44,-38.05 229.49,-29.71"/>
<polygon fill="midnightblue" stroke="midnightblue" points="232.42,-31.63 235.57,-21.52 226.8,-27.46 232.42,-31.63"/>
</g>
<!-- Node10 -->
<g id="node10" class="node">
<title>Node10</title>
<g id="a_node10"><a xlink:href="global__const_8h.html" target="_top" xlink:title=" ">
<polygon fill="white" stroke="black" points="70.5,-58.5 70.5,-79.5 163.5,-79.5 163.5,-58.5 70.5,-58.5"/>
<text text-anchor="middle" x="117" y="-65.9" font-family="DejaVuSans" font-size="12.00">global_const.h</text>
</a>
</g>
</g>
<!-- Node9&#45;&gt;Node10 -->
<g id="edge11" class="edge">
<title>Node9&#45;&gt;Node10</title>
<path fill="none" stroke="midnightblue" d="M169.85,-116.25C160.49,-108.05 146.91,-96.17 135.87,-86.51"/>
<polygon fill="midnightblue" stroke="midnightblue" points="137.85,-83.59 128.02,-79.64 133.24,-88.86 137.85,-83.59"/>
</g>
<!-- Node11 -->
<g id="node11" class="node">
<title>Node11</title>
<g id="a_node11"><a xlink:title=" ">
<polygon fill="white" stroke="#bfbfbf" points="87.5,-0.5 87.5,-21.5 146.5,-21.5 146.5,-0.5 87.5,-0.5"/>
<text text-anchor="middle" x="117" y="-7.9" font-family="DejaVuSans" font-size="12.00">assert.h</text>
</a>
</g>
</g>
<!-- Node10&#45;&gt;Node11 -->
<g id="edge12" class="edge">
<title>Node10&#45;&gt;Node11</title>
<path fill="none" stroke="midnightblue" d="M117,-58.25C117,-50.94 117,-40.69 117,-31.7"/>
<polygon fill="midnightblue" stroke="midnightblue" points="120.5,-31.64 117,-21.64 113.5,-31.64 120.5,-31.64"/>
</g>
</g>
</svg>
