<?xml version="1.0" encoding="UTF-8" standalone="no"?>
<!DOCTYPE svg PUBLIC "-//W3C//DTD SVG 1.1//EN"
 "http://www.w3.org/Graphics/SVG/1.1/DTD/svg11.dtd">
<!-- Generated by graphviz version 2.44.0 ()
 -->
<!-- Title: inputln.h Pages: 1 -->
<svg width="310pt" height="146pt"
 viewBox="0.00 0.00 309.50 146.00" xmlns="http://www.w3.org/2000/svg" xmlns:xlink="http://www.w3.org/1999/xlink">
<g id="graph0" class="graph" transform="scale(1 1) rotate(0) translate(4 142)">
<title>inputln.h</title>
<polygon fill="white" stroke="transparent" points="-4,4 -4,-142 305.5,-142 305.5,4 -4,4"/>
<!-- Node1 -->
<g id="node1" class="node">
<title>Node1</title>
<g id="a_node1"><a xlink:title=" ">
<polygon fill="#bfbfbf" stroke="black" points="107.5,-116.5 107.5,-137.5 169.5,-137.5 169.5,-116.5 107.5,-116.5"/>
<text text-anchor="middle" x="138.5" y="-123.9" font-family="DejaVuSans" font-size="12.00">inputln.h</text>
</a>
</g>
</g>
<!-- Node2 -->
<g id="node2" class="node">
<title>Node2</title>
<g id="a_node2"><a xlink:href="inputln_8c.html" target="_top" xlink:title=" ">
<polygon fill="white" stroke="black" points="0,-58.5 0,-79.5 61,-79.5 61,-58.5 0,-58.5"/>
<text text-anchor="middle" x="30.5" y="-65.9" font-family="DejaVuSans" font-size="12.00">inputln.c</text>
</a>
</g>
</g>
<!-- Node1&#45;&gt;Node2 -->
<g id="edge1" class="edge">
<title>Node1&#45;&gt;Node2</title>
<path fill="none" stroke="midnightblue" d="M110.72,-111.6C91.36,-101.56 66.06,-88.44 49.1,-79.64"/>
<polygon fill="midnightblue" stroke="midnightblue" points="109.2,-114.75 119.69,-116.25 112.42,-108.54 109.2,-114.75"/>
</g>
<!-- Node3 -->
<g id="node3" class="node">
<title>Node3</title>
<g id="a_node3"><a xlink:href="lexer_8c.html" target="_top" xlink:title=" ">
<polygon fill="white" stroke="black" points="79,-58.5 79,-79.5 130,-79.5 130,-58.5 79,-58.5"/>
<text text-anchor="middle" x="104.5" y="-65.9" font-family="DejaVuSans" font-size="12.00">lexer.c</text>
</a>
</g>
</g>
<!-- Node1&#45;&gt;Node3 -->
<g id="edge2" class="edge">
<title>Node1&#45;&gt;Node3</title>
<path fill="none" stroke="midnightblue" d="M127.35,-107.63C121.68,-98.29 115.02,-87.32 110.35,-79.64"/>
<polygon fill="midnightblue" stroke="midnightblue" points="124.4,-109.51 132.58,-116.25 130.38,-105.88 124.4,-109.51"/>
</g>
<!-- Node4 -->
<g id="node4" class="node">
<title>Node4</title>
<g id="a_node4"><a xlink:href="print_8c.html" target="_top" xlink:title=" ">
<polygon fill="white" stroke="black" points="148,-58.5 148,-79.5 197,-79.5 197,-58.5 148,-58.5"/>
<text text-anchor="middle" x="172.5" y="-65.9" font-family="DejaVuSans" font-size="12.00">print.c</text>
</a>
</g>
</g>
<!-- Node1&#45;&gt;Node4 -->
<g id="edge3" class="edge">
<title>Node1&#45;&gt;Node4</title>
<path fill="none" stroke="midnightblue" d="M149.65,-107.63C155.32,-98.29 161.98,-87.32 166.65,-79.64"/>
<polygon fill="midnightblue" stroke="midnightblue" points="146.62,-105.88 144.42,-116.25 152.6,-109.51 146.62,-105.88"/>
</g>
<!-- Node5 -->
<g id="node5" class="node">
<title>Node5</title>
<g id="a_node5"><a xlink:href="tex__header_8h.html" target="_top" xlink:title=" ">
<polygon fill="white" stroke="black" points="215.5,-58.5 215.5,-79.5 301.5,-79.5 301.5,-58.5 215.5,-58.5"/>
<text text-anchor="middle" x="258.5" y="-65.9" font-family="DejaVuSans" font-size="12.00">tex_header.h</text>
</a>
</g>
</g>
<!-- Node1&#45;&gt;Node5 -->
<g id="edge4" class="edge">
<title>Node1&#45;&gt;Node5</title>
<path fill="none" stroke="midnightblue" d="M168.26,-112.11C190.02,-101.96 218.97,-88.45 238.14,-79.5"/>
<polygon fill="midnightblue" stroke="midnightblue" points="166.71,-108.97 159.13,-116.37 169.67,-115.32 166.71,-108.97"/>
</g>
<!-- Node6 -->
<g id="node6" class="node">
<title>Node6</title>
<g id="a_node6"><a xlink:href="tex_8c.html" target="_top" xlink:title=" ">
<polygon fill="white" stroke="black" points="238,-0.5 238,-21.5 279,-21.5 279,-0.5 238,-0.5"/>
<text text-anchor="middle" x="258.5" y="-7.9" font-family="DejaVuSans" font-size="12.00">tex.c</text>
</a>
</g>
</g>
<!-- Node5&#45;&gt;Node6 -->
<g id="edge5" class="edge">
<title>Node5&#45;&gt;Node6</title>
<path fill="none" stroke="midnightblue" d="M258.5,-48.16C258.5,-39.16 258.5,-28.92 258.5,-21.64"/>
<polygon fill="midnightblue" stroke="midnightblue" points="255,-48.25 258.5,-58.25 262,-48.25 255,-48.25"/>
</g>
</g>
</svg>
