<?xml version="1.0" encoding="UTF-8" standalone="no"?>
<!DOCTYPE svg PUBLIC "-//W3C//DTD SVG 1.1//EN"
 "http://www.w3.org/Graphics/SVG/1.1/DTD/svg11.dtd">
<!-- Generated by graphviz version 2.42.3 ()
 -->
<!-- Title: inputln.c Pages: 1 -->
<svg width="420pt" height="262pt"
 viewBox="0.00 0.00 420.33 262.00" xmlns="http://www.w3.org/2000/svg" xmlns:xlink="http://www.w3.org/1999/xlink">
<g id="graph0" class="graph" transform="scale(1 1) rotate(0) translate(4 258)">
<title>inputln.c</title>
<polygon fill="white" stroke="transparent" points="-4,4 -4,-258 416.33,-258 416.33,4 -4,4"/>
<!-- Node1 -->
<g id="node1" class="node">
<title>Node1</title>
<g id="a_node1"><a xlink:title=" ">
<polygon fill="#bfbfbf" stroke="black" points="130.83,-232.5 130.83,-253.5 191.83,-253.5 191.83,-232.5 130.83,-232.5"/>
<text text-anchor="middle" x="161.33" y="-239.9" font-family="DejaVuSans" font-size="12.00">inputln.c</text>
</a>
</g>
</g>
<!-- Node2 -->
<g id="node2" class="node">
<title>Node2</title>
<g id="a_node2"><a xlink:title=" ">
<polygon fill="white" stroke="#bfbfbf" points="2.33,-58.5 2.33,-79.5 54.33,-79.5 54.33,-58.5 2.33,-58.5"/>
<text text-anchor="middle" x="28.33" y="-65.9" font-family="DejaVuSans" font-size="12.00">stdio.h</text>
</a>
</g>
</g>
<!-- Node1&#45;&gt;Node2 -->
<g id="edge1" class="edge">
<title>Node1&#45;&gt;Node2</title>
<path fill="none" stroke="midnightblue" d="M130.61,-242.33C95.61,-240.86 39.73,-232.47 12.33,-196 -11.39,-164.42 5.92,-115.35 18.45,-88.72"/>
<polygon fill="midnightblue" stroke="midnightblue" points="21.62,-90.21 22.93,-79.7 15.35,-87.1 21.62,-90.21"/>
</g>
<!-- Node3 -->
<g id="node3" class="node">
<title>Node3</title>
<g id="a_node3"><a xlink:href="tex_8h.html" target="_top" xlink:title=" ">
<polygon fill="white" stroke="black" points="240.33,-116.5 240.33,-137.5 282.33,-137.5 282.33,-116.5 240.33,-116.5"/>
<text text-anchor="middle" x="261.33" y="-123.9" font-family="DejaVuSans" font-size="12.00">tex.h</text>
</a>
</g>
</g>
<!-- Node1&#45;&gt;Node3 -->
<g id="edge2" class="edge">
<title>Node1&#45;&gt;Node3</title>
<path fill="none" stroke="midnightblue" d="M189.5,-232.41C207.1,-225.05 228.89,-213.2 242.33,-196 253.16,-182.15 257.82,-162.47 259.82,-147.84"/>
<polygon fill="midnightblue" stroke="midnightblue" points="263.31,-148.14 260.9,-137.82 256.35,-147.39 263.31,-148.14"/>
</g>
<!-- Node8 -->
<g id="node8" class="node">
<title>Node8</title>
<g id="a_node8"><a xlink:href="global_8h.html" target="_top" xlink:title=" ">
<polygon fill="white" stroke="black" points="21.33,-174.5 21.33,-195.5 79.33,-195.5 79.33,-174.5 21.33,-174.5"/>
<text text-anchor="middle" x="50.33" y="-181.9" font-family="DejaVuSans" font-size="12.00">global.h</text>
</a>
</g>
</g>
<!-- Node1&#45;&gt;Node8 -->
<g id="edge7" class="edge">
<title>Node1&#45;&gt;Node8</title>
<path fill="none" stroke="midnightblue" d="M142.25,-232.37C124.59,-223.46 98.13,-210.11 78.12,-200.02"/>
<polygon fill="midnightblue" stroke="midnightblue" points="79.67,-196.88 69.17,-195.5 76.52,-203.13 79.67,-196.88"/>
</g>
<!-- Node13 -->
<g id="node13" class="node">
<title>Node13</title>
<g id="a_node13"><a xlink:href="texfunc_8h.html" target="_top" xlink:title=" ">
<polygon fill="white" stroke="black" points="167.83,-174.5 167.83,-195.5 232.83,-195.5 232.83,-174.5 167.83,-174.5"/>
<text text-anchor="middle" x="200.33" y="-181.9" font-family="DejaVuSans" font-size="12.00">texfunc.h</text>
</a>
</g>
</g>
<!-- Node1&#45;&gt;Node13 -->
<g id="edge14" class="edge">
<title>Node1&#45;&gt;Node13</title>
<path fill="none" stroke="midnightblue" d="M168.13,-232.25C173.55,-224.46 181.3,-213.33 187.84,-203.94"/>
<polygon fill="midnightblue" stroke="midnightblue" points="190.77,-205.85 193.62,-195.64 185.03,-201.85 190.77,-205.85"/>
</g>
<!-- Node14 -->
<g id="node14" class="node">
<title>Node14</title>
<g id="a_node14"><a xlink:href="lexer_8h.html" target="_top" xlink:title=" ">
<polygon fill="white" stroke="black" points="97.33,-174.5 97.33,-195.5 149.33,-195.5 149.33,-174.5 97.33,-174.5"/>
<text text-anchor="middle" x="123.33" y="-181.9" font-family="DejaVuSans" font-size="12.00">lexer.h</text>
</a>
</g>
</g>
<!-- Node1&#45;&gt;Node14 -->
<g id="edge16" class="edge">
<title>Node1&#45;&gt;Node14</title>
<path fill="none" stroke="midnightblue" d="M154.71,-232.25C149.43,-224.46 141.88,-213.33 135.51,-203.94"/>
<polygon fill="midnightblue" stroke="midnightblue" points="138.39,-201.95 129.88,-195.64 132.59,-205.88 138.39,-201.95"/>
</g>
<!-- Node15 -->
<g id="node15" class="node">
<title>Node15</title>
<g id="a_node15"><a xlink:href="inputln_8h.html" target="_top" xlink:title=" ">
<polygon fill="white" stroke="black" points="289.33,-174.5 289.33,-195.5 351.33,-195.5 351.33,-174.5 289.33,-174.5"/>
<text text-anchor="middle" x="320.33" y="-181.9" font-family="DejaVuSans" font-size="12.00">inputln.h</text>
</a>
</g>
</g>
<!-- Node1&#45;&gt;Node15 -->
<g id="edge19" class="edge">
<title>Node1&#45;&gt;Node15</title>
<path fill="none" stroke="midnightblue" d="M188.67,-232.37C214.88,-223.14 254.63,-209.14 283.6,-198.94"/>
<polygon fill="midnightblue" stroke="midnightblue" points="285.09,-202.12 293.36,-195.5 282.76,-195.52 285.09,-202.12"/>
</g>
<!-- Node4 -->
<g id="node4" class="node">
<title>Node4</title>
<g id="a_node4"><a xlink:href="tex__types_8h.html" target="_top" xlink:title=" ">
<polygon fill="white" stroke="black" points="222.83,-58.5 222.83,-79.5 299.83,-79.5 299.83,-58.5 222.83,-58.5"/>
<text text-anchor="middle" x="261.33" y="-65.9" font-family="DejaVuSans" font-size="12.00">tex_types.h</text>
</a>
</g>
</g>
<!-- Node3&#45;&gt;Node4 -->
<g id="edge3" class="edge">
<title>Node3&#45;&gt;Node4</title>
<path fill="none" stroke="midnightblue" d="M261.33,-116.25C261.33,-108.94 261.33,-98.69 261.33,-89.7"/>
<polygon fill="midnightblue" stroke="midnightblue" points="264.83,-89.64 261.33,-79.64 257.83,-89.64 264.83,-89.64"/>
</g>
<!-- Node7 -->
<g id="node7" class="node">
<title>Node7</title>
<g id="a_node7"><a xlink:href="tex__constant_8h.html" target="_top" xlink:title=" ">
<polygon fill="white" stroke="black" points="318.33,-58.5 318.33,-79.5 412.33,-79.5 412.33,-58.5 318.33,-58.5"/>
<text text-anchor="middle" x="365.33" y="-65.9" font-family="DejaVuSans" font-size="12.00">tex_constant.h</text>
</a>
</g>
</g>
<!-- Node3&#45;&gt;Node7 -->
<g id="edge6" class="edge">
<title>Node3&#45;&gt;Node7</title>
<path fill="none" stroke="midnightblue" d="M279.45,-116.25C295.78,-107.45 320,-94.41 338.57,-84.41"/>
<polygon fill="midnightblue" stroke="midnightblue" points="340.28,-87.47 347.42,-79.64 336.96,-81.3 340.28,-87.47"/>
</g>
<!-- Node5 -->
<g id="node5" class="node">
<title>Node5</title>
<g id="a_node5"><a xlink:title=" ">
<polygon fill="white" stroke="#bfbfbf" points="239.83,-0.5 239.83,-21.5 304.83,-21.5 304.83,-0.5 239.83,-0.5"/>
<text text-anchor="middle" x="272.33" y="-7.9" font-family="DejaVuSans" font-size="12.00">stdbool.h</text>
</a>
</g>
</g>
<!-- Node4&#45;&gt;Node5 -->
<g id="edge4" class="edge">
<title>Node4&#45;&gt;Node5</title>
<path fill="none" stroke="midnightblue" d="M263.25,-58.25C264.68,-50.94 266.7,-40.69 268.46,-31.7"/>
<polygon fill="midnightblue" stroke="midnightblue" points="271.95,-32.13 270.44,-21.64 265.08,-30.78 271.95,-32.13"/>
</g>
<!-- Node6 -->
<g id="node6" class="node">
<title>Node6</title>
<g id="a_node6"><a xlink:title=" ">
<polygon fill="white" stroke="#bfbfbf" points="166.83,-0.5 166.83,-21.5 221.83,-21.5 221.83,-0.5 166.83,-0.5"/>
<text text-anchor="middle" x="194.33" y="-7.9" font-family="DejaVuSans" font-size="12.00">stdint.h</text>
</a>
</g>
</g>
<!-- Node4&#45;&gt;Node6 -->
<g id="edge5" class="edge">
<title>Node4&#45;&gt;Node6</title>
<path fill="none" stroke="midnightblue" d="M249.66,-58.25C239.77,-49.97 225.37,-37.94 213.74,-28.22"/>
<polygon fill="midnightblue" stroke="midnightblue" points="215.79,-25.37 205.87,-21.64 211.3,-30.74 215.79,-25.37"/>
</g>
<!-- Node9 -->
<g id="node9" class="node">
<title>Node9</title>
<g id="a_node9"><a xlink:title=" ">
<polygon fill="white" stroke="#bfbfbf" points="20.33,-116.5 20.33,-137.5 82.33,-137.5 82.33,-116.5 20.33,-116.5"/>
<text text-anchor="middle" x="51.33" y="-123.9" font-family="DejaVuSans" font-size="12.00">setjmp.h</text>
</a>
</g>
</g>
<!-- Node8&#45;&gt;Node9 -->
<g id="edge8" class="edge">
<title>Node8&#45;&gt;Node9</title>
<path fill="none" stroke="midnightblue" d="M50.51,-174.25C50.64,-166.94 50.82,-156.69 50.98,-147.7"/>
<polygon fill="midnightblue" stroke="midnightblue" points="54.48,-147.7 51.16,-137.64 47.48,-147.58 54.48,-147.7"/>
</g>
<!-- Node10 -->
<g id="node10" class="node">
<title>Node10</title>
<g id="a_node10"><a xlink:href="str_8h.html" target="_top" xlink:title=" ">
<polygon fill="white" stroke="black" points="138.83,-116.5 138.83,-137.5 177.83,-137.5 177.83,-116.5 138.83,-116.5"/>
<text text-anchor="middle" x="158.33" y="-123.9" font-family="DejaVuSans" font-size="12.00">str.h</text>
</a>
</g>
</g>
<!-- Node8&#45;&gt;Node10 -->
<g id="edge9" class="edge">
<title>Node8&#45;&gt;Node10</title>
<path fill="none" stroke="midnightblue" d="M69.14,-174.25C86.18,-165.41 111.49,-152.29 130.8,-142.28"/>
<polygon fill="midnightblue" stroke="midnightblue" points="132.47,-145.35 139.74,-137.64 129.25,-139.14 132.47,-145.35"/>
</g>
<!-- Node10&#45;&gt;Node2 -->
<g id="edge10" class="edge">
<title>Node10&#45;&gt;Node2</title>
<path fill="none" stroke="midnightblue" d="M138.59,-117.49C117.64,-108.47 84.26,-94.09 59.7,-83.51"/>
<polygon fill="midnightblue" stroke="midnightblue" points="61.01,-80.27 50.44,-79.52 58.24,-86.7 61.01,-80.27"/>
</g>
<!-- Node10&#45;&gt;Node6 -->
<g id="edge11" class="edge">
<title>Node10&#45;&gt;Node6</title>
<path fill="none" stroke="midnightblue" d="M162.21,-116.21C165.82,-106.95 171.24,-92.64 175.33,-80 180.58,-63.81 185.72,-45.17 189.33,-31.51"/>
<polygon fill="midnightblue" stroke="midnightblue" points="192.74,-32.32 191.87,-21.76 185.97,-30.55 192.74,-32.32"/>
</g>
<!-- Node11 -->
<g id="node11" class="node">
<title>Node11</title>
<g id="a_node11"><a xlink:href="global__const_8h.html" target="_top" xlink:title=" ">
<polygon fill="white" stroke="black" points="72.83,-58.5 72.83,-79.5 165.83,-79.5 165.83,-58.5 72.83,-58.5"/>
<text text-anchor="middle" x="119.33" y="-65.9" font-family="DejaVuSans" font-size="12.00">global_const.h</text>
</a>
</g>
</g>
<!-- Node10&#45;&gt;Node11 -->
<g id="edge12" class="edge">
<title>Node10&#45;&gt;Node11</title>
<path fill="none" stroke="midnightblue" d="M151.54,-116.25C146.11,-108.46 138.37,-97.33 131.83,-87.94"/>
<polygon fill="midnightblue" stroke="midnightblue" points="134.64,-85.85 126.05,-79.64 128.89,-89.85 134.64,-85.85"/>
</g>
<!-- Node12 -->
<g id="node12" class="node">
<title>Node12</title>
<g id="a_node12"><a xlink:title=" ">
<polygon fill="white" stroke="#bfbfbf" points="89.83,-0.5 89.83,-21.5 148.83,-21.5 148.83,-0.5 89.83,-0.5"/>
<text text-anchor="middle" x="119.33" y="-7.9" font-family="DejaVuSans" font-size="12.00">assert.h</text>
</a>
</g>
</g>
<!-- Node11&#45;&gt;Node12 -->
<g id="edge13" class="edge">
<title>Node11&#45;&gt;Node12</title>
<path fill="none" stroke="midnightblue" d="M119.33,-58.25C119.33,-50.94 119.33,-40.69 119.33,-31.7"/>
<polygon fill="midnightblue" stroke="midnightblue" points="122.83,-31.64 119.33,-21.64 115.83,-31.64 122.83,-31.64"/>
</g>
<!-- Node13&#45;&gt;Node10 -->
<g id="edge15" class="edge">
<title>Node13&#45;&gt;Node10</title>
<path fill="none" stroke="midnightblue" d="M193.02,-174.25C187.11,-166.38 178.66,-155.1 171.57,-145.65"/>
<polygon fill="midnightblue" stroke="midnightblue" points="174.36,-143.54 165.56,-137.64 168.76,-147.74 174.36,-143.54"/>
</g>
<!-- Node14&#45;&gt;Node2 -->
<g id="edge17" class="edge">
<title>Node14&#45;&gt;Node2</title>
<path fill="none" stroke="midnightblue" d="M120.5,-174.37C116.03,-160.37 106.28,-134.11 91.33,-116 81.14,-103.64 66.91,-92.89 54.56,-84.89"/>
<polygon fill="midnightblue" stroke="midnightblue" points="56.32,-81.86 45.98,-79.57 52.63,-87.81 56.32,-81.86"/>
</g>
<!-- Node14&#45;&gt;Node3 -->
<g id="edge18" class="edge">
<title>Node14&#45;&gt;Node3</title>
<path fill="none" stroke="midnightblue" d="M147.06,-174.37C170.19,-164.99 205.47,-150.67 230.71,-140.43"/>
<polygon fill="midnightblue" stroke="midnightblue" points="232.23,-143.59 240.18,-136.58 229.6,-137.1 232.23,-143.59"/>
</g>
</g>
</svg>
