<?xml version="1.0" encoding="UTF-8" standalone="no"?>
<!DOCTYPE svg PUBLIC "-//W3C//DTD SVG 1.1//EN"
 "http://www.w3.org/Graphics/SVG/1.1/DTD/svg11.dtd">
<!-- Generated by graphviz version 2.44.0 ()
 -->
<!-- Title: io.h Pages: 1 -->
<svg width="334pt" height="320pt"
 viewBox="0.00 0.00 333.79 320.00" xmlns="http://www.w3.org/2000/svg" xmlns:xlink="http://www.w3.org/1999/xlink">
<g id="graph0" class="graph" transform="scale(1 1) rotate(0) translate(4 316)">
<title>io.h</title>
<polygon fill="white" stroke="transparent" points="-4,4 -4,-316 329.79,-316 329.79,4 -4,4"/>
<!-- Node1 -->
<g id="node1" class="node">
<title>Node1</title>
<g id="a_node1"><a xlink:title=" ">
<polygon fill="#bfbfbf" stroke="black" points="140,-290.5 140,-311.5 176,-311.5 176,-290.5 140,-290.5"/>
<text text-anchor="middle" x="158" y="-297.9" font-family="DejaVuSans" font-size="12.00">io.h</text>
</a>
</g>
</g>
<!-- Node2 -->
<g id="node2" class="node">
<title>Node2</title>
<g id="a_node2"><a xlink:title=" ">
<polygon fill="white" stroke="#bfbfbf" points="95,-174.5 95,-195.5 147,-195.5 147,-174.5 95,-174.5"/>
<text text-anchor="middle" x="121" y="-181.9" font-family="DejaVuSans" font-size="12.00">stdio.h</text>
</a>
</g>
</g>
<!-- Node1&#45;&gt;Node2 -->
<g id="edge1" class="edge">
<title>Node1&#45;&gt;Node2</title>
<path fill="none" stroke="midnightblue" d="M139.94,-290.86C126.73,-283.06 109.8,-270.49 102,-254 94.42,-237.97 101.47,-218.35 109.04,-204.31"/>
<polygon fill="midnightblue" stroke="midnightblue" points="112.11,-205.99 114.19,-195.6 106.09,-202.43 112.11,-205.99"/>
</g>
<!-- Node3 -->
<g id="node3" class="node">
<title>Node3</title>
<g id="a_node3"><a xlink:href="global_8h.html" target="_top" xlink:title=" ">
<polygon fill="white" stroke="black" points="171,-116.5 171,-137.5 229,-137.5 229,-116.5 171,-116.5"/>
<text text-anchor="middle" x="200" y="-123.9" font-family="DejaVuSans" font-size="12.00">global.h</text>
</a>
</g>
</g>
<!-- Node1&#45;&gt;Node3 -->
<g id="edge2" class="edge">
<title>Node1&#45;&gt;Node3</title>
<path fill="none" stroke="midnightblue" d="M139.91,-292.06C125.01,-284.52 104.66,-271.7 94,-254 75.56,-223.39 66.01,-203.62 86,-174 102.65,-149.32 135,-137.88 161,-132.58"/>
<polygon fill="midnightblue" stroke="midnightblue" points="161.75,-136 170.96,-130.77 160.5,-129.11 161.75,-136"/>
</g>
<!-- Node10 -->
<g id="node10" class="node">
<title>Node10</title>
<g id="a_node10"><a xlink:href="tex__constant_8h.html" target="_top" xlink:title=" ">
<polygon fill="white" stroke="black" points="111,-232.5 111,-253.5 205,-253.5 205,-232.5 111,-232.5"/>
<text text-anchor="middle" x="158" y="-239.9" font-family="DejaVuSans" font-size="12.00">tex_constant.h</text>
</a>
</g>
</g>
<!-- Node1&#45;&gt;Node10 -->
<g id="edge9" class="edge">
<title>Node1&#45;&gt;Node10</title>
<path fill="none" stroke="midnightblue" d="M158,-290.25C158,-282.94 158,-272.69 158,-263.7"/>
<polygon fill="midnightblue" stroke="midnightblue" points="161.5,-263.64 158,-253.64 154.5,-263.64 161.5,-263.64"/>
</g>
<!-- Node11 -->
<g id="node11" class="node">
<title>Node11</title>
<g id="a_node11"><a xlink:href="charset_8h.html" target="_top" xlink:title=" ">
<polygon fill="white" stroke="black" points="187.5,-174.5 187.5,-195.5 252.5,-195.5 252.5,-174.5 187.5,-174.5"/>
<text text-anchor="middle" x="220" y="-181.9" font-family="DejaVuSans" font-size="12.00">charset.h</text>
</a>
</g>
</g>
<!-- Node1&#45;&gt;Node11 -->
<g id="edge10" class="edge">
<title>Node1&#45;&gt;Node11</title>
<path fill="none" stroke="midnightblue" d="M175.92,-290.49C188.88,-282.58 205.54,-270.02 214,-254 221.77,-239.28 222.82,-220.24 222.18,-206.06"/>
<polygon fill="midnightblue" stroke="midnightblue" points="225.66,-205.6 221.41,-195.9 218.68,-206.13 225.66,-205.6"/>
</g>
<!-- Node12 -->
<g id="node12" class="node">
<title>Node12</title>
<g id="a_node12"><a xlink:href="str_8h.html" target="_top" xlink:title=" ">
<polygon fill="white" stroke="black" points="261.5,-232.5 261.5,-253.5 300.5,-253.5 300.5,-232.5 261.5,-232.5"/>
<text text-anchor="middle" x="281" y="-239.9" font-family="DejaVuSans" font-size="12.00">str.h</text>
</a>
</g>
</g>
<!-- Node1&#45;&gt;Node12 -->
<g id="edge12" class="edge">
<title>Node1&#45;&gt;Node12</title>
<path fill="none" stroke="midnightblue" d="M176.15,-291.74C196.12,-282.65 228.49,-267.9 251.99,-257.21"/>
<polygon fill="midnightblue" stroke="midnightblue" points="253.49,-260.37 261.14,-253.04 250.59,-254 253.49,-260.37"/>
</g>
<!-- Node4 -->
<g id="node4" class="node">
<title>Node4</title>
<g id="a_node4"><a xlink:href="global__macros_8h.html" target="_top" xlink:title=" ">
<polygon fill="white" stroke="black" points="0,-58.5 0,-79.5 104,-79.5 104,-58.5 0,-58.5"/>
<text text-anchor="middle" x="52" y="-65.9" font-family="DejaVuSans" font-size="12.00">global_macros.h</text>
</a>
</g>
</g>
<!-- Node3&#45;&gt;Node4 -->
<g id="edge3" class="edge">
<title>Node3&#45;&gt;Node4</title>
<path fill="none" stroke="midnightblue" d="M174.56,-116.37C150.27,-107.18 113.48,-93.26 86.55,-83.07"/>
<polygon fill="midnightblue" stroke="midnightblue" points="87.7,-79.77 77.11,-79.5 85.22,-86.31 87.7,-79.77"/>
</g>
<!-- Node6 -->
<g id="node6" class="node">
<title>Node6</title>
<g id="a_node6"><a xlink:href="global__const_8h.html" target="_top" xlink:title=" ">
<polygon fill="white" stroke="black" points="217.5,-58.5 217.5,-79.5 310.5,-79.5 310.5,-58.5 217.5,-58.5"/>
<text text-anchor="middle" x="264" y="-65.9" font-family="DejaVuSans" font-size="12.00">global_const.h</text>
</a>
</g>
</g>
<!-- Node3&#45;&gt;Node6 -->
<g id="edge5" class="edge">
<title>Node3&#45;&gt;Node6</title>
<path fill="none" stroke="midnightblue" d="M211.15,-116.25C220.51,-108.05 234.09,-96.17 245.13,-86.51"/>
<polygon fill="midnightblue" stroke="midnightblue" points="247.76,-88.86 252.98,-79.64 243.15,-83.59 247.76,-88.86"/>
</g>
<!-- Node7 -->
<g id="node7" class="node">
<title>Node7</title>
<g id="a_node7"><a xlink:href="tex__types_8h.html" target="_top" xlink:title=" ">
<polygon fill="white" stroke="black" points="122.5,-58.5 122.5,-79.5 199.5,-79.5 199.5,-58.5 122.5,-58.5"/>
<text text-anchor="middle" x="161" y="-65.9" font-family="DejaVuSans" font-size="12.00">tex_types.h</text>
</a>
</g>
</g>
<!-- Node3&#45;&gt;Node7 -->
<g id="edge6" class="edge">
<title>Node3&#45;&gt;Node7</title>
<path fill="none" stroke="midnightblue" d="M193.21,-116.25C187.78,-108.46 180.03,-97.33 173.5,-87.94"/>
<polygon fill="midnightblue" stroke="midnightblue" points="176.3,-85.85 167.72,-79.64 170.56,-89.85 176.3,-85.85"/>
</g>
<!-- Node5 -->
<g id="node5" class="node">
<title>Node5</title>
<g id="a_node5"><a xlink:title=" ">
<polygon fill="white" stroke="#bfbfbf" points="22.5,-0.5 22.5,-21.5 81.5,-21.5 81.5,-0.5 22.5,-0.5"/>
<text text-anchor="middle" x="52" y="-7.9" font-family="DejaVuSans" font-size="12.00">assert.h</text>
</a>
</g>
</g>
<!-- Node4&#45;&gt;Node5 -->
<g id="edge4" class="edge">
<title>Node4&#45;&gt;Node5</title>
<path fill="none" stroke="midnightblue" d="M52,-58.25C52,-50.94 52,-40.69 52,-31.7"/>
<polygon fill="midnightblue" stroke="midnightblue" points="55.5,-31.64 52,-21.64 48.5,-31.64 55.5,-31.64"/>
</g>
<!-- Node8 -->
<g id="node8" class="node">
<title>Node8</title>
<g id="a_node8"><a xlink:title=" ">
<polygon fill="white" stroke="#bfbfbf" points="128.5,-0.5 128.5,-21.5 193.5,-21.5 193.5,-0.5 128.5,-0.5"/>
<text text-anchor="middle" x="161" y="-7.9" font-family="DejaVuSans" font-size="12.00">stdbool.h</text>
</a>
</g>
</g>
<!-- Node7&#45;&gt;Node8 -->
<g id="edge7" class="edge">
<title>Node7&#45;&gt;Node8</title>
<path fill="none" stroke="midnightblue" d="M161,-58.25C161,-50.94 161,-40.69 161,-31.7"/>
<polygon fill="midnightblue" stroke="midnightblue" points="164.5,-31.64 161,-21.64 157.5,-31.64 164.5,-31.64"/>
</g>
<!-- Node9 -->
<g id="node9" class="node">
<title>Node9</title>
<g id="a_node9"><a xlink:title=" ">
<polygon fill="white" stroke="#bfbfbf" points="261.5,-0.5 261.5,-21.5 316.5,-21.5 316.5,-0.5 261.5,-0.5"/>
<text text-anchor="middle" x="289" y="-7.9" font-family="DejaVuSans" font-size="12.00">stdint.h</text>
</a>
</g>
</g>
<!-- Node7&#45;&gt;Node9 -->
<g id="edge8" class="edge">
<title>Node7&#45;&gt;Node9</title>
<path fill="none" stroke="midnightblue" d="M183,-58.37C203.64,-49.34 234.72,-35.75 257.89,-25.61"/>
<polygon fill="midnightblue" stroke="midnightblue" points="259.52,-28.72 267.28,-21.5 256.72,-22.3 259.52,-28.72"/>
</g>
<!-- Node11&#45;&gt;Node3 -->
<g id="edge11" class="edge">
<title>Node11&#45;&gt;Node3</title>
<path fill="none" stroke="midnightblue" d="M216.52,-174.25C213.85,-166.78 210.09,-156.24 206.83,-147.11"/>
<polygon fill="midnightblue" stroke="midnightblue" points="210.1,-145.88 203.44,-137.64 203.51,-148.24 210.1,-145.88"/>
</g>
<!-- Node12&#45;&gt;Node2 -->
<g id="edge13" class="edge">
<title>Node12&#45;&gt;Node2</title>
<path fill="none" stroke="midnightblue" d="M261.38,-235.13C235.37,-226.03 188.99,-209.8 156.69,-198.49"/>
<polygon fill="midnightblue" stroke="midnightblue" points="157.75,-195.15 147.15,-195.15 155.43,-201.76 157.75,-195.15"/>
</g>
<!-- Node12&#45;&gt;Node3 -->
<g id="edge15" class="edge">
<title>Node12&#45;&gt;Node3</title>
<path fill="none" stroke="midnightblue" d="M280.28,-232.39C278.82,-218.41 274.5,-192.18 262,-174 253.28,-161.33 239.93,-150.77 227.84,-142.98"/>
<polygon fill="midnightblue" stroke="midnightblue" points="229.3,-139.78 218.94,-137.58 225.67,-145.76 229.3,-139.78"/>
</g>
<!-- Node12&#45;&gt;Node9 -->
<g id="edge14" class="edge">
<title>Node12&#45;&gt;Node9</title>
<path fill="none" stroke="midnightblue" d="M286.48,-232.27C301.33,-204.61 339.94,-123.27 320,-58 316.86,-47.72 310.56,-37.66 304.46,-29.58"/>
<polygon fill="midnightblue" stroke="midnightblue" points="307.08,-27.25 298.07,-21.68 301.64,-31.65 307.08,-27.25"/>
</g>
<!-- Node12&#45;&gt;Node11 -->
<g id="edge16" class="edge">
<title>Node12&#45;&gt;Node11</title>
<path fill="none" stroke="midnightblue" d="M270.37,-232.25C261.45,-224.05 248.51,-212.17 237.98,-202.51"/>
<polygon fill="midnightblue" stroke="midnightblue" points="240.24,-199.83 230.5,-195.64 235.5,-204.98 240.24,-199.83"/>
</g>
</g>
</svg>
