<?xml version="1.0" encoding="UTF-8" standalone="no"?>
<!DOCTYPE svg PUBLIC "-//W3C//DTD SVG 1.1//EN"
 "http://www.w3.org/Graphics/SVG/1.1/DTD/svg11.dtd">
<!-- Generated by graphviz version 2.44.0 ()
 -->
<!-- Title: io_unix.c Pages: 1 -->
<svg width="597pt" height="552pt"
 viewBox="0.00 0.00 597.23 552.00" xmlns="http://www.w3.org/2000/svg" xmlns:xlink="http://www.w3.org/1999/xlink">
<g id="graph0" class="graph" transform="scale(1 1) rotate(0) translate(4 548)">
<title>io_unix.c</title>
<polygon fill="white" stroke="transparent" points="-4,4 -4,-548 593.23,-548 593.23,4 -4,4"/>
<!-- Node1 -->
<g id="node1" class="node">
<title>Node1</title>
<g id="a_node1"><a xlink:title=" ">
<polygon fill="#bfbfbf" stroke="black" points="327.73,-522.5 327.73,-543.5 392.73,-543.5 392.73,-522.5 327.73,-522.5"/>
<text text-anchor="middle" x="360.23" y="-529.9" font-family="DejaVuSans" font-size="12.00">io_unix.c</text>
</a>
</g>
</g>
<!-- Node2 -->
<g id="node2" class="node">
<title>Node2</title>
<g id="a_node2"><a xlink:title=" ">
<polygon fill="white" stroke="#bfbfbf" points="276.23,-0.5 276.23,-21.5 328.23,-21.5 328.23,-0.5 276.23,-0.5"/>
<text text-anchor="middle" x="302.23" y="-7.9" font-family="DejaVuSans" font-size="12.00">stdio.h</text>
</a>
</g>
</g>
<!-- Node1&#45;&gt;Node2 -->
<g id="edge1" class="edge">
<title>Node1&#45;&gt;Node2</title>
<path fill="none" stroke="midnightblue" d="M362.96,-522.33C368.21,-502.79 379.23,-457.13 379.23,-418 379.23,-418 379.23,-418 379.23,-126 379.23,-85.58 345.59,-48.79 322.78,-28.49"/>
<polygon fill="midnightblue" stroke="midnightblue" points="324.82,-25.62 314.95,-21.78 320.26,-30.94 324.82,-25.62"/>
</g>
<!-- Node3 -->
<g id="node3" class="node">
<title>Node3</title>
<g id="a_node3"><a xlink:title=" ">
<polygon fill="white" stroke="#bfbfbf" points="407.23,-464.5 407.23,-485.5 463.23,-485.5 463.23,-464.5 407.23,-464.5"/>
<text text-anchor="middle" x="435.23" y="-471.9" font-family="DejaVuSans" font-size="12.00">string.h</text>
</a>
</g>
</g>
<!-- Node1&#45;&gt;Node3 -->
<g id="edge2" class="edge">
<title>Node1&#45;&gt;Node3</title>
<path fill="none" stroke="midnightblue" d="M373.3,-522.25C384.59,-513.81 401.12,-501.47 414.26,-491.66"/>
<polygon fill="midnightblue" stroke="midnightblue" points="416.4,-494.43 422.32,-485.64 412.21,-488.82 416.4,-494.43"/>
</g>
<!-- Node4 -->
<g id="node4" class="node">
<title>Node4</title>
<g id="a_node4"><a xlink:title=" ">
<polygon fill="white" stroke="#bfbfbf" points="481.23,-464.5 481.23,-485.5 535.23,-485.5 535.23,-464.5 481.23,-464.5"/>
<text text-anchor="middle" x="508.23" y="-471.9" font-family="DejaVuSans" font-size="12.00">stdlib.h</text>
</a>
</g>
</g>
<!-- Node1&#45;&gt;Node4 -->
<g id="edge3" class="edge">
<title>Node1&#45;&gt;Node4</title>
<path fill="none" stroke="midnightblue" d="M385.68,-522.37C409.97,-513.18 446.75,-499.26 473.69,-489.07"/>
<polygon fill="midnightblue" stroke="midnightblue" points="475.01,-492.31 483.12,-485.5 472.53,-485.77 475.01,-492.31"/>
</g>
<!-- Node5 -->
<g id="node5" class="node">
<title>Node5</title>
<g id="a_node5"><a xlink:href="tex_8h.html" target="_top" xlink:title=" ">
<polygon fill="white" stroke="black" points="52.23,-290.5 52.23,-311.5 94.23,-311.5 94.23,-290.5 52.23,-290.5"/>
<text text-anchor="middle" x="73.23" y="-297.9" font-family="DejaVuSans" font-size="12.00">tex.h</text>
</a>
</g>
</g>
<!-- Node1&#45;&gt;Node5 -->
<g id="edge4" class="edge">
<title>Node1&#45;&gt;Node5</title>
<path fill="none" stroke="midnightblue" d="M327.46,-530.79C264.96,-527.78 132.17,-517.71 101.23,-486 57.68,-441.35 63.89,-359.42 69.58,-321.82"/>
<polygon fill="midnightblue" stroke="midnightblue" points="73.08,-322.1 71.27,-311.66 66.17,-320.95 73.08,-322.1"/>
</g>
<!-- Node11 -->
<g id="node11" class="node">
<title>Node11</title>
<g id="a_node11"><a xlink:href="str_8h.html" target="_top" xlink:title=" ">
<polygon fill="white" stroke="black" points="122.73,-116.5 122.73,-137.5 161.73,-137.5 161.73,-116.5 122.73,-116.5"/>
<text text-anchor="middle" x="142.23" y="-123.9" font-family="DejaVuSans" font-size="12.00">str.h</text>
</a>
</g>
</g>
<!-- Node1&#45;&gt;Node11 -->
<g id="edge17" class="edge">
<title>Node1&#45;&gt;Node11</title>
<path fill="none" stroke="midnightblue" d="M327.6,-528.64C275.04,-521.21 173.54,-498.06 134.23,-428 107.28,-379.97 130.3,-206.68 139.14,-147.77"/>
<polygon fill="midnightblue" stroke="midnightblue" points="142.64,-147.99 140.7,-137.58 135.72,-146.93 142.64,-147.99"/>
</g>
<!-- Node12 -->
<g id="node12" class="node">
<title>Node12</title>
<g id="a_node12"><a xlink:href="global__const_8h.html" target="_top" xlink:title=" ">
<polygon fill="white" stroke="black" points="181.73,-58.5 181.73,-79.5 274.73,-79.5 274.73,-58.5 181.73,-58.5"/>
<text text-anchor="middle" x="228.23" y="-65.9" font-family="DejaVuSans" font-size="12.00">global_const.h</text>
</a>
</g>
</g>
<!-- Node1&#45;&gt;Node12 -->
<g id="edge25" class="edge">
<title>Node1&#45;&gt;Node12</title>
<path fill="none" stroke="midnightblue" d="M357.51,-522.33C352.26,-502.79 341.23,-457.13 341.23,-418 341.23,-418 341.23,-418 341.23,-184 341.23,-136.88 291.93,-102.27 258.45,-84.2"/>
<polygon fill="midnightblue" stroke="midnightblue" points="259.98,-81.05 249.49,-79.55 256.75,-87.26 259.98,-81.05"/>
</g>
<!-- Node14 -->
<g id="node14" class="node">
<title>Node14</title>
<g id="a_node14"><a xlink:href="global_8h.html" target="_top" xlink:title=" ">
<polygon fill="white" stroke="black" points="238.23,-464.5 238.23,-485.5 296.23,-485.5 296.23,-464.5 238.23,-464.5"/>
<text text-anchor="middle" x="267.23" y="-471.9" font-family="DejaVuSans" font-size="12.00">global.h</text>
</a>
</g>
</g>
<!-- Node1&#45;&gt;Node14 -->
<g id="edge18" class="edge">
<title>Node1&#45;&gt;Node14</title>
<path fill="none" stroke="midnightblue" d="M344.03,-522.25C329.63,-513.57 308.36,-500.76 291.85,-490.82"/>
<polygon fill="midnightblue" stroke="midnightblue" points="293.62,-487.8 283.25,-485.64 290.01,-493.8 293.62,-487.8"/>
</g>
<!-- Node18 -->
<g id="node18" class="node">
<title>Node18</title>
<g id="a_node18"><a xlink:href="io_8h.html" target="_top" xlink:title=" ">
<polygon fill="white" stroke="black" points="553.23,-464.5 553.23,-485.5 589.23,-485.5 589.23,-464.5 553.23,-464.5"/>
<text text-anchor="middle" x="571.23" y="-471.9" font-family="DejaVuSans" font-size="12.00">io.h</text>
</a>
</g>
</g>
<!-- Node1&#45;&gt;Node18 -->
<g id="edge26" class="edge">
<title>Node1&#45;&gt;Node18</title>
<path fill="none" stroke="midnightblue" d="M392.77,-525C427.82,-517.21 485.38,-503.71 543.35,-486.04"/>
<polygon fill="midnightblue" stroke="midnightblue" points="544.5,-489.35 553.03,-483.05 542.44,-482.66 544.5,-489.35"/>
</g>
<!-- Node6 -->
<g id="node6" class="node">
<title>Node6</title>
<g id="a_node6"><a xlink:href="tex__types_8h.html" target="_top" xlink:title=" ">
<polygon fill="white" stroke="black" points="4.73,-58.5 4.73,-79.5 81.73,-79.5 81.73,-58.5 4.73,-58.5"/>
<text text-anchor="middle" x="43.23" y="-65.9" font-family="DejaVuSans" font-size="12.00">tex_types.h</text>
</a>
</g>
</g>
<!-- Node5&#45;&gt;Node6 -->
<g id="edge5" class="edge">
<title>Node5&#45;&gt;Node6</title>
<path fill="none" stroke="midnightblue" d="M52.08,-290.71C37.67,-283.12 19.73,-270.88 11.23,-254 -16.63,-198.64 14.95,-123.38 32.74,-88.79"/>
<polygon fill="midnightblue" stroke="midnightblue" points="35.92,-90.27 37.54,-79.8 29.75,-86.97 35.92,-90.27"/>
</g>
<!-- Node9 -->
<g id="node9" class="node">
<title>Node9</title>
<g id="a_node9"><a xlink:href="tex__constant_8h.html" target="_top" xlink:title=" ">
<polygon fill="white" stroke="black" points="20.23,-232.5 20.23,-253.5 114.23,-253.5 114.23,-232.5 20.23,-232.5"/>
<text text-anchor="middle" x="67.23" y="-239.9" font-family="DejaVuSans" font-size="12.00">tex_constant.h</text>
</a>
</g>
</g>
<!-- Node5&#45;&gt;Node9 -->
<g id="edge8" class="edge">
<title>Node5&#45;&gt;Node9</title>
<path fill="none" stroke="midnightblue" d="M72.19,-290.25C71.41,-282.94 70.31,-272.69 69.34,-263.7"/>
<polygon fill="midnightblue" stroke="midnightblue" points="72.81,-263.21 68.27,-253.64 65.85,-263.96 72.81,-263.21"/>
</g>
<!-- Node7 -->
<g id="node7" class="node">
<title>Node7</title>
<g id="a_node7"><a xlink:title=" ">
<polygon fill="white" stroke="#bfbfbf" points="4.73,-0.5 4.73,-21.5 69.73,-21.5 69.73,-0.5 4.73,-0.5"/>
<text text-anchor="middle" x="37.23" y="-7.9" font-family="DejaVuSans" font-size="12.00">stdbool.h</text>
</a>
</g>
</g>
<!-- Node6&#45;&gt;Node7 -->
<g id="edge6" class="edge">
<title>Node6&#45;&gt;Node7</title>
<path fill="none" stroke="midnightblue" d="M42.19,-58.25C41.41,-50.94 40.31,-40.69 39.34,-31.7"/>
<polygon fill="midnightblue" stroke="midnightblue" points="42.81,-31.21 38.27,-21.64 35.85,-31.96 42.81,-31.21"/>
</g>
<!-- Node8 -->
<g id="node8" class="node">
<title>Node8</title>
<g id="a_node8"><a xlink:title=" ">
<polygon fill="white" stroke="#bfbfbf" points="87.73,-0.5 87.73,-21.5 142.73,-21.5 142.73,-0.5 87.73,-0.5"/>
<text text-anchor="middle" x="115.23" y="-7.9" font-family="DejaVuSans" font-size="12.00">stdint.h</text>
</a>
</g>
</g>
<!-- Node6&#45;&gt;Node8 -->
<g id="edge7" class="edge">
<title>Node6&#45;&gt;Node8</title>
<path fill="none" stroke="midnightblue" d="M55.77,-58.25C66.51,-49.89 82.18,-37.71 94.74,-27.94"/>
<polygon fill="midnightblue" stroke="midnightblue" points="97.09,-30.54 102.84,-21.64 92.79,-25.02 97.09,-30.54"/>
</g>
<!-- Node10 -->
<g id="node10" class="node">
<title>Node10</title>
<g id="a_node10"><a xlink:href="box_8h.html" target="_top" xlink:title=" ">
<polygon fill="white" stroke="black" points="56.23,-174.5 56.23,-195.5 102.23,-195.5 102.23,-174.5 56.23,-174.5"/>
<text text-anchor="middle" x="79.23" y="-181.9" font-family="DejaVuSans" font-size="12.00">box.h</text>
</a>
</g>
</g>
<!-- Node9&#45;&gt;Node10 -->
<g id="edge9" class="edge">
<title>Node9&#45;&gt;Node10</title>
<path fill="none" stroke="midnightblue" d="M69.32,-232.25C70.89,-224.94 73.08,-214.69 75.01,-205.7"/>
<polygon fill="midnightblue" stroke="midnightblue" points="78.49,-206.15 77.17,-195.64 71.65,-204.69 78.49,-206.15"/>
</g>
<!-- Node10&#45;&gt;Node11 -->
<g id="edge10" class="edge">
<title>Node10&#45;&gt;Node11</title>
<path fill="none" stroke="midnightblue" d="M90.21,-174.25C99.42,-166.05 112.79,-154.17 123.66,-144.51"/>
<polygon fill="midnightblue" stroke="midnightblue" points="126.24,-146.9 131.39,-137.64 121.59,-141.67 126.24,-146.9"/>
</g>
<!-- Node11&#45;&gt;Node2 -->
<g id="edge11" class="edge">
<title>Node11&#45;&gt;Node2</title>
<path fill="none" stroke="midnightblue" d="M144.15,-116.24C147.51,-101.6 155.84,-73.97 173.23,-58 180.38,-51.44 230.82,-34.56 266.46,-23.17"/>
<polygon fill="midnightblue" stroke="midnightblue" points="267.6,-26.48 276.07,-20.12 265.48,-19.81 267.6,-26.48"/>
</g>
<!-- Node11&#45;&gt;Node6 -->
<g id="edge16" class="edge">
<title>Node11&#45;&gt;Node6</title>
<path fill="none" stroke="midnightblue" d="M124.99,-116.25C109.66,-107.57 87.01,-94.76 69.44,-84.82"/>
<polygon fill="midnightblue" stroke="midnightblue" points="70.71,-81.52 60.28,-79.64 67.26,-87.61 70.71,-81.52"/>
</g>
<!-- Node11&#45;&gt;Node8 -->
<g id="edge12" class="edge">
<title>Node11&#45;&gt;Node8</title>
<path fill="none" stroke="midnightblue" d="M139.93,-116.28C135.51,-97.6 125.74,-56.37 119.9,-31.72"/>
<polygon fill="midnightblue" stroke="midnightblue" points="123.24,-30.62 117.53,-21.69 116.43,-32.23 123.24,-30.62"/>
</g>
<!-- Node11&#45;&gt;Node12 -->
<g id="edge13" class="edge">
<title>Node11&#45;&gt;Node12</title>
<path fill="none" stroke="midnightblue" d="M157.21,-116.25C170.41,-107.65 189.84,-95 205.04,-85.1"/>
<polygon fill="midnightblue" stroke="midnightblue" points="206.95,-88.03 213.42,-79.64 203.13,-82.17 206.95,-88.03"/>
</g>
<!-- Node12&#45;&gt;Node2 -->
<g id="edge15" class="edge">
<title>Node12&#45;&gt;Node2</title>
<path fill="none" stroke="midnightblue" d="M241.12,-58.25C252.16,-49.89 268.26,-37.71 281.17,-27.94"/>
<polygon fill="midnightblue" stroke="midnightblue" points="283.63,-30.47 289.49,-21.64 279.4,-24.89 283.63,-30.47"/>
</g>
<!-- Node13 -->
<g id="node13" class="node">
<title>Node13</title>
<g id="a_node13"><a xlink:title=" ">
<polygon fill="white" stroke="#bfbfbf" points="198.73,-0.5 198.73,-21.5 257.73,-21.5 257.73,-0.5 198.73,-0.5"/>
<text text-anchor="middle" x="228.23" y="-7.9" font-family="DejaVuSans" font-size="12.00">assert.h</text>
</a>
</g>
</g>
<!-- Node12&#45;&gt;Node13 -->
<g id="edge14" class="edge">
<title>Node12&#45;&gt;Node13</title>
<path fill="none" stroke="midnightblue" d="M228.23,-58.25C228.23,-50.94 228.23,-40.69 228.23,-31.7"/>
<polygon fill="midnightblue" stroke="midnightblue" points="231.73,-31.64 228.23,-21.64 224.73,-31.64 231.73,-31.64"/>
</g>
<!-- Node14&#45;&gt;Node11 -->
<g id="edge20" class="edge">
<title>Node14&#45;&gt;Node11</title>
<path fill="none" stroke="midnightblue" d="M271.92,-464.41C276.09,-455.3 281.89,-441.07 284.23,-428 290.49,-393 294.28,-382.11 284.23,-348 259.25,-263.22 190.32,-180.33 158.6,-145.35"/>
<polygon fill="midnightblue" stroke="midnightblue" points="161.07,-142.88 151.73,-137.89 155.92,-147.62 161.07,-142.88"/>
</g>
<!-- Node15 -->
<g id="node15" class="node">
<title>Node15</title>
<g id="a_node15"><a xlink:title=" ">
<polygon fill="white" stroke="#bfbfbf" points="143.23,-406.5 143.23,-427.5 205.23,-427.5 205.23,-406.5 143.23,-406.5"/>
<text text-anchor="middle" x="174.23" y="-413.9" font-family="DejaVuSans" font-size="12.00">setjmp.h</text>
</a>
</g>
</g>
<!-- Node14&#45;&gt;Node15 -->
<g id="edge19" class="edge">
<title>Node14&#45;&gt;Node15</title>
<path fill="none" stroke="midnightblue" d="M251.03,-464.25C236.63,-455.57 215.36,-442.76 198.85,-432.82"/>
<polygon fill="midnightblue" stroke="midnightblue" points="200.62,-429.8 190.25,-427.64 197.01,-435.8 200.62,-429.8"/>
</g>
<!-- Node16 -->
<g id="node16" class="node">
<title>Node16</title>
<g id="a_node16"><a xlink:href="scan_8h.html" target="_top" xlink:title=" ">
<polygon fill="white" stroke="black" points="223.23,-406.5 223.23,-427.5 275.23,-427.5 275.23,-406.5 223.23,-406.5"/>
<text text-anchor="middle" x="249.23" y="-413.9" font-family="DejaVuSans" font-size="12.00">scan.h</text>
</a>
</g>
</g>
<!-- Node14&#45;&gt;Node16 -->
<g id="edge21" class="edge">
<title>Node14&#45;&gt;Node16</title>
<path fill="none" stroke="midnightblue" d="M264.1,-464.25C261.72,-456.86 258.38,-446.47 255.47,-437.41"/>
<polygon fill="midnightblue" stroke="midnightblue" points="258.72,-436.09 252.33,-427.64 252.06,-438.23 258.72,-436.09"/>
</g>
<!-- Node17 -->
<g id="node17" class="node">
<title>Node17</title>
<g id="a_node17"><a xlink:href="lexer_8h.html" target="_top" xlink:title=" ">
<polygon fill="white" stroke="black" points="223.23,-348.5 223.23,-369.5 275.23,-369.5 275.23,-348.5 223.23,-348.5"/>
<text text-anchor="middle" x="249.23" y="-355.9" font-family="DejaVuSans" font-size="12.00">lexer.h</text>
</a>
</g>
</g>
<!-- Node16&#45;&gt;Node17 -->
<g id="edge22" class="edge">
<title>Node16&#45;&gt;Node17</title>
<path fill="none" stroke="midnightblue" d="M249.23,-406.25C249.23,-398.94 249.23,-388.69 249.23,-379.7"/>
<polygon fill="midnightblue" stroke="midnightblue" points="252.73,-379.64 249.23,-369.64 245.73,-379.64 252.73,-379.64"/>
</g>
<!-- Node17&#45;&gt;Node2 -->
<g id="edge23" class="edge">
<title>Node17&#45;&gt;Node2</title>
<path fill="none" stroke="midnightblue" d="M257.43,-348.37C272.54,-329.6 303.23,-286.27 303.23,-244 303.23,-244 303.23,-244 303.23,-126 303.23,-92.98 302.81,-54.59 302.51,-31.85"/>
<polygon fill="midnightblue" stroke="midnightblue" points="306.01,-31.71 302.38,-21.76 299.01,-31.81 306.01,-31.71"/>
</g>
<!-- Node17&#45;&gt;Node5 -->
<g id="edge24" class="edge">
<title>Node17&#45;&gt;Node5</title>
<path fill="none" stroke="midnightblue" d="M222.88,-349.62C191.08,-339.5 137.68,-322.5 104.01,-311.79"/>
<polygon fill="midnightblue" stroke="midnightblue" points="104.83,-308.38 94.24,-308.68 102.71,-315.05 104.83,-308.38"/>
</g>
</g>
</svg>
