<?xml version="1.0" encoding="UTF-8" standalone="no"?>
<!DOCTYPE svg PUBLIC "-//W3C//DTD SVG 1.1//EN"
 "http://www.w3.org/Graphics/SVG/1.1/DTD/svg11.dtd">
<!-- Generated by graphviz version 2.44.0 ()
 -->
<!-- Title: io_fname.c Pages: 1 -->
<svg width="775pt" height="726pt"
 viewBox="0.00 0.00 775.00 726.00" xmlns="http://www.w3.org/2000/svg" xmlns:xlink="http://www.w3.org/1999/xlink">
<g id="graph0" class="graph" transform="scale(1 1) rotate(0) translate(4 722)">
<title>io_fname.c</title>
<polygon fill="white" stroke="transparent" points="-4,4 -4,-722 771,-722 771,4 -4,4"/>
<!-- Node1 -->
<g id="node1" class="node">
<title>Node1</title>
<g id="a_node1"><a xlink:title=" ">
<polygon fill="#bfbfbf" stroke="black" points="472.5,-696.5 472.5,-717.5 547.5,-717.5 547.5,-696.5 472.5,-696.5"/>
<text text-anchor="middle" x="510" y="-703.9" font-family="DejaVuSans" font-size="12.00">io_fname.c</text>
</a>
</g>
</g>
<!-- Node2 -->
<g id="node2" class="node">
<title>Node2</title>
<g id="a_node2"><a xlink:title=" ">
<polygon fill="white" stroke="#bfbfbf" points="0,-638.5 0,-659.5 56,-659.5 56,-638.5 0,-638.5"/>
<text text-anchor="middle" x="28" y="-645.9" font-family="DejaVuSans" font-size="12.00">string.h</text>
</a>
</g>
</g>
<!-- Node1&#45;&gt;Node2 -->
<g id="edge1" class="edge">
<title>Node1&#45;&gt;Node2</title>
<path fill="none" stroke="midnightblue" d="M472.4,-703.72C396.11,-698.73 217.83,-685.22 70,-660 68.75,-659.79 67.49,-659.56 66.21,-659.32"/>
<polygon fill="midnightblue" stroke="midnightblue" points="66.87,-655.88 56.36,-657.28 65.45,-662.73 66.87,-655.88"/>
</g>
<!-- Node3 -->
<g id="node3" class="node">
<title>Node3</title>
<g id="a_node3"><a xlink:href="tex__types_8h.html" target="_top" xlink:title=" ">
<polygon fill="white" stroke="black" points="342.5,-58.5 342.5,-79.5 419.5,-79.5 419.5,-58.5 342.5,-58.5"/>
<text text-anchor="middle" x="381" y="-65.9" font-family="DejaVuSans" font-size="12.00">tex_types.h</text>
</a>
</g>
</g>
<!-- Node1&#45;&gt;Node3 -->
<g id="edge2" class="edge">
<title>Node1&#45;&gt;Node3</title>
<path fill="none" stroke="midnightblue" d="M513.59,-696.28C516.84,-687.06 521.48,-672.78 524,-660 559.88,-477.8 563,-429.7 563,-244 563,-244 563,-244 563,-184 563,-120.95 483.59,-91.46 429.68,-78.7"/>
<polygon fill="midnightblue" stroke="midnightblue" points="430.12,-75.21 419.6,-76.43 428.59,-82.04 430.12,-75.21"/>
</g>
<!-- Node6 -->
<g id="node6" class="node">
<title>Node6</title>
<g id="a_node6"><a xlink:href="str_8h.html" target="_top" xlink:title=" ">
<polygon fill="white" stroke="black" points="172.5,-116.5 172.5,-137.5 211.5,-137.5 211.5,-116.5 172.5,-116.5"/>
<text text-anchor="middle" x="192" y="-123.9" font-family="DejaVuSans" font-size="12.00">str.h</text>
</a>
</g>
</g>
<!-- Node1&#45;&gt;Node6 -->
<g id="edge5" class="edge">
<title>Node1&#45;&gt;Node6</title>
<path fill="none" stroke="midnightblue" d="M472.2,-703.97C367.94,-697.36 84,-672.01 84,-592 84,-592 84,-592 84,-300 84,-233.97 141.79,-172.51 172.82,-144.26"/>
<polygon fill="midnightblue" stroke="midnightblue" points="175.28,-146.76 180.44,-137.5 170.64,-141.52 175.28,-146.76"/>
</g>
<!-- Node10 -->
<g id="node10" class="node">
<title>Node10</title>
<g id="a_node10"><a xlink:href="global_8h.html" target="_top" xlink:title=" ">
<polygon fill="white" stroke="black" points="222,-464.5 222,-485.5 280,-485.5 280,-464.5 222,-464.5"/>
<text text-anchor="middle" x="251" y="-471.9" font-family="DejaVuSans" font-size="12.00">global.h</text>
</a>
</g>
</g>
<!-- Node1&#45;&gt;Node10 -->
<g id="edge12" class="edge">
<title>Node1&#45;&gt;Node10</title>
<path fill="none" stroke="midnightblue" d="M472.21,-699.92C420.73,-689.53 329.64,-663.2 283,-602 258.82,-570.27 252.77,-522.29 251.35,-495.63"/>
<polygon fill="midnightblue" stroke="midnightblue" points="254.85,-495.48 250.98,-485.61 247.85,-495.74 254.85,-495.48"/>
</g>
<!-- Node17 -->
<g id="node17" class="node">
<title>Node17</title>
<g id="a_node17"><a xlink:href="print_8h.html" target="_top" xlink:title=" ">
<polygon fill="white" stroke="black" points="394,-638.5 394,-659.5 444,-659.5 444,-638.5 394,-638.5"/>
<text text-anchor="middle" x="419" y="-645.9" font-family="DejaVuSans" font-size="12.00">print.h</text>
</a>
</g>
</g>
<!-- Node1&#45;&gt;Node17 -->
<g id="edge23" class="edge">
<title>Node1&#45;&gt;Node17</title>
<path fill="none" stroke="midnightblue" d="M494.15,-696.25C480.19,-687.65 459.63,-675 443.54,-665.1"/>
<polygon fill="midnightblue" stroke="midnightblue" points="445.02,-661.9 434.67,-659.64 441.35,-667.86 445.02,-661.9"/>
</g>
<!-- Node20 -->
<g id="node20" class="node">
<title>Node20</title>
<g id="a_node20"><a xlink:href="eqtb_8h.html" target="_top" xlink:title=" ">
<polygon fill="white" stroke="black" points="485,-290.5 485,-311.5 535,-311.5 535,-290.5 485,-290.5"/>
<text text-anchor="middle" x="510" y="-297.9" font-family="DejaVuSans" font-size="12.00">eqtb.h</text>
</a>
</g>
</g>
<!-- Node1&#45;&gt;Node20 -->
<g id="edge31" class="edge">
<title>Node1&#45;&gt;Node20</title>
<path fill="none" stroke="midnightblue" d="M510,-696.24C510,-676.54 510,-630.59 510,-592 510,-592 510,-592 510,-416 510,-382.98 510,-344.59 510,-321.85"/>
<polygon fill="midnightblue" stroke="midnightblue" points="513.5,-321.76 510,-311.76 506.5,-321.76 513.5,-321.76"/>
</g>
<!-- Node21 -->
<g id="node21" class="node">
<title>Node21</title>
<g id="a_node21"><a xlink:href="expand_8h.html" target="_top" xlink:title=" ">
<polygon fill="white" stroke="black" points="577,-638.5 577,-659.5 643,-659.5 643,-638.5 577,-638.5"/>
<text text-anchor="middle" x="610" y="-645.9" font-family="DejaVuSans" font-size="12.00">expand.h</text>
</a>
</g>
</g>
<!-- Node1&#45;&gt;Node21 -->
<g id="edge34" class="edge">
<title>Node1&#45;&gt;Node21</title>
<path fill="none" stroke="midnightblue" d="M527.42,-696.25C543.05,-687.49 566.2,-674.53 584.02,-664.55"/>
<polygon fill="midnightblue" stroke="midnightblue" points="585.77,-667.58 592.78,-659.64 582.35,-661.47 585.77,-667.58"/>
</g>
<!-- Node22 -->
<g id="node22" class="node">
<title>Node22</title>
<g id="a_node22"><a xlink:href="error_8h.html" target="_top" xlink:title=" ">
<polygon fill="white" stroke="black" points="661.5,-638.5 661.5,-659.5 712.5,-659.5 712.5,-638.5 661.5,-638.5"/>
<text text-anchor="middle" x="687" y="-645.9" font-family="DejaVuSans" font-size="12.00">error.h</text>
</a>
</g>
</g>
<!-- Node1&#45;&gt;Node22 -->
<g id="edge35" class="edge">
<title>Node1&#45;&gt;Node22</title>
<path fill="none" stroke="midnightblue" d="M540.43,-696.37C571.33,-686.6 619.15,-671.47 651.7,-661.17"/>
<polygon fill="midnightblue" stroke="midnightblue" points="652.8,-664.49 661.28,-658.14 650.69,-657.82 652.8,-664.49"/>
</g>
<!-- Node23 -->
<g id="node23" class="node">
<title>Node23</title>
<g id="a_node23"><a xlink:href="io_8h.html" target="_top" xlink:title=" ">
<polygon fill="white" stroke="black" points="731,-638.5 731,-659.5 767,-659.5 767,-638.5 731,-638.5"/>
<text text-anchor="middle" x="749" y="-645.9" font-family="DejaVuSans" font-size="12.00">io.h</text>
</a>
</g>
</g>
<!-- Node1&#45;&gt;Node23 -->
<g id="edge36" class="edge">
<title>Node1&#45;&gt;Node23</title>
<path fill="none" stroke="midnightblue" d="M547.55,-699.51C588.23,-692.12 655.16,-678.9 721.1,-659.97"/>
<polygon fill="midnightblue" stroke="midnightblue" points="722.2,-663.29 730.82,-657.13 720.24,-656.57 722.2,-663.29"/>
</g>
<!-- Node4 -->
<g id="node4" class="node">
<title>Node4</title>
<g id="a_node4"><a xlink:title=" ">
<polygon fill="white" stroke="#bfbfbf" points="349.5,-0.5 349.5,-21.5 414.5,-21.5 414.5,-0.5 349.5,-0.5"/>
<text text-anchor="middle" x="382" y="-7.9" font-family="DejaVuSans" font-size="12.00">stdbool.h</text>
</a>
</g>
</g>
<!-- Node3&#45;&gt;Node4 -->
<g id="edge3" class="edge">
<title>Node3&#45;&gt;Node4</title>
<path fill="none" stroke="midnightblue" d="M381.17,-58.25C381.3,-50.94 381.49,-40.69 381.65,-31.7"/>
<polygon fill="midnightblue" stroke="midnightblue" points="385.15,-31.7 381.83,-21.64 378.15,-31.58 385.15,-31.7"/>
</g>
<!-- Node5 -->
<g id="node5" class="node">
<title>Node5</title>
<g id="a_node5"><a xlink:title=" ">
<polygon fill="white" stroke="#bfbfbf" points="276.5,-0.5 276.5,-21.5 331.5,-21.5 331.5,-0.5 276.5,-0.5"/>
<text text-anchor="middle" x="304" y="-7.9" font-family="DejaVuSans" font-size="12.00">stdint.h</text>
</a>
</g>
</g>
<!-- Node3&#45;&gt;Node5 -->
<g id="edge4" class="edge">
<title>Node3&#45;&gt;Node5</title>
<path fill="none" stroke="midnightblue" d="M367.59,-58.25C355.99,-49.81 339.03,-37.47 325.53,-27.66"/>
<polygon fill="midnightblue" stroke="midnightblue" points="327.4,-24.69 317.26,-21.64 323.29,-30.36 327.4,-24.69"/>
</g>
<!-- Node6&#45;&gt;Node3 -->
<g id="edge11" class="edge">
<title>Node6&#45;&gt;Node3</title>
<path fill="none" stroke="midnightblue" d="M211.51,-120.22C241.42,-111.36 299.3,-94.21 339.03,-82.44"/>
<polygon fill="midnightblue" stroke="midnightblue" points="340.12,-85.76 348.71,-79.57 338.13,-79.05 340.12,-85.76"/>
</g>
<!-- Node6&#45;&gt;Node5 -->
<g id="edge7" class="edge">
<title>Node6&#45;&gt;Node5</title>
<path fill="none" stroke="midnightblue" d="M211.85,-118.41C236.08,-108.79 275.06,-92 285,-80 296.22,-66.46 300.83,-46.75 302.72,-32.03"/>
<polygon fill="midnightblue" stroke="midnightblue" points="306.21,-32.22 303.69,-21.93 299.25,-31.55 306.21,-32.22"/>
</g>
<!-- Node7 -->
<g id="node7" class="node">
<title>Node7</title>
<g id="a_node7"><a xlink:title=" ">
<polygon fill="white" stroke="#bfbfbf" points="128,-0.5 128,-21.5 180,-21.5 180,-0.5 128,-0.5"/>
<text text-anchor="middle" x="154" y="-7.9" font-family="DejaVuSans" font-size="12.00">stdio.h</text>
</a>
</g>
</g>
<!-- Node6&#45;&gt;Node7 -->
<g id="edge6" class="edge">
<title>Node6&#45;&gt;Node7</title>
<path fill="none" stroke="midnightblue" d="M187.89,-116.22C184.07,-106.97 178.33,-92.66 174,-80 168.47,-63.83 163.05,-45.19 159.26,-31.52"/>
<polygon fill="midnightblue" stroke="midnightblue" points="162.6,-30.49 156.59,-21.77 155.85,-32.34 162.6,-30.49"/>
</g>
<!-- Node8 -->
<g id="node8" class="node">
<title>Node8</title>
<g id="a_node8"><a xlink:href="global__const_8h.html" target="_top" xlink:title=" ">
<polygon fill="white" stroke="black" points="182.5,-58.5 182.5,-79.5 275.5,-79.5 275.5,-58.5 182.5,-58.5"/>
<text text-anchor="middle" x="229" y="-65.9" font-family="DejaVuSans" font-size="12.00">global_const.h</text>
</a>
</g>
</g>
<!-- Node6&#45;&gt;Node8 -->
<g id="edge8" class="edge">
<title>Node6&#45;&gt;Node8</title>
<path fill="none" stroke="midnightblue" d="M198.44,-116.25C203.54,-108.54 210.79,-97.56 216.95,-88.23"/>
<polygon fill="midnightblue" stroke="midnightblue" points="220.04,-89.92 222.63,-79.64 214.2,-86.06 220.04,-89.92"/>
</g>
<!-- Node8&#45;&gt;Node7 -->
<g id="edge10" class="edge">
<title>Node8&#45;&gt;Node7</title>
<path fill="none" stroke="midnightblue" d="M215.94,-58.25C204.64,-49.81 188.12,-37.47 174.97,-27.66"/>
<polygon fill="midnightblue" stroke="midnightblue" points="177.02,-24.82 166.91,-21.64 172.83,-30.43 177.02,-24.82"/>
</g>
<!-- Node9 -->
<g id="node9" class="node">
<title>Node9</title>
<g id="a_node9"><a xlink:title=" ">
<polygon fill="white" stroke="#bfbfbf" points="199.5,-0.5 199.5,-21.5 258.5,-21.5 258.5,-0.5 199.5,-0.5"/>
<text text-anchor="middle" x="229" y="-7.9" font-family="DejaVuSans" font-size="12.00">assert.h</text>
</a>
</g>
</g>
<!-- Node8&#45;&gt;Node9 -->
<g id="edge9" class="edge">
<title>Node8&#45;&gt;Node9</title>
<path fill="none" stroke="midnightblue" d="M229,-58.25C229,-50.94 229,-40.69 229,-31.7"/>
<polygon fill="midnightblue" stroke="midnightblue" points="232.5,-31.64 229,-21.64 225.5,-31.64 232.5,-31.64"/>
</g>
<!-- Node10&#45;&gt;Node6 -->
<g id="edge14" class="edge">
<title>Node10&#45;&gt;Node6</title>
<path fill="none" stroke="midnightblue" d="M240.34,-464.4C231.3,-455.72 218.63,-442.16 211,-428 196.12,-400.37 192,-391.38 192,-360 192,-360 192,-360 192,-242 192,-208.98 192,-170.59 192,-147.85"/>
<polygon fill="midnightblue" stroke="midnightblue" points="195.5,-147.76 192,-137.76 188.5,-147.76 195.5,-147.76"/>
</g>
<!-- Node11 -->
<g id="node11" class="node">
<title>Node11</title>
<g id="a_node11"><a xlink:title=" ">
<polygon fill="white" stroke="#bfbfbf" points="220,-406.5 220,-427.5 282,-427.5 282,-406.5 220,-406.5"/>
<text text-anchor="middle" x="251" y="-413.9" font-family="DejaVuSans" font-size="12.00">setjmp.h</text>
</a>
</g>
</g>
<!-- Node10&#45;&gt;Node11 -->
<g id="edge13" class="edge">
<title>Node10&#45;&gt;Node11</title>
<path fill="none" stroke="midnightblue" d="M251,-464.25C251,-456.94 251,-446.69 251,-437.7"/>
<polygon fill="midnightblue" stroke="midnightblue" points="254.5,-437.64 251,-427.64 247.5,-437.64 254.5,-437.64"/>
</g>
<!-- Node12 -->
<g id="node12" class="node">
<title>Node12</title>
<g id="a_node12"><a xlink:href="scan_8h.html" target="_top" xlink:title=" ">
<polygon fill="white" stroke="black" points="112,-406.5 112,-427.5 164,-427.5 164,-406.5 112,-406.5"/>
<text text-anchor="middle" x="138" y="-413.9" font-family="DejaVuSans" font-size="12.00">scan.h</text>
</a>
</g>
</g>
<!-- Node10&#45;&gt;Node12 -->
<g id="edge15" class="edge">
<title>Node10&#45;&gt;Node12</title>
<path fill="none" stroke="midnightblue" d="M231.57,-464.37C213.6,-455.46 186.66,-442.11 166.29,-432.02"/>
<polygon fill="midnightblue" stroke="midnightblue" points="167.69,-428.81 157.17,-427.5 164.58,-435.08 167.69,-428.81"/>
</g>
<!-- Node13 -->
<g id="node13" class="node">
<title>Node13</title>
<g id="a_node13"><a xlink:href="lexer_8h.html" target="_top" xlink:title=" ">
<polygon fill="white" stroke="black" points="112,-348.5 112,-369.5 164,-369.5 164,-348.5 112,-348.5"/>
<text text-anchor="middle" x="138" y="-355.9" font-family="DejaVuSans" font-size="12.00">lexer.h</text>
</a>
</g>
</g>
<!-- Node12&#45;&gt;Node13 -->
<g id="edge16" class="edge">
<title>Node12&#45;&gt;Node13</title>
<path fill="none" stroke="midnightblue" d="M138,-406.25C138,-398.94 138,-388.69 138,-379.7"/>
<polygon fill="midnightblue" stroke="midnightblue" points="141.5,-379.64 138,-369.64 134.5,-379.64 141.5,-379.64"/>
</g>
<!-- Node13&#45;&gt;Node7 -->
<g id="edge17" class="edge">
<title>Node13&#45;&gt;Node7</title>
<path fill="none" stroke="midnightblue" d="M138.44,-348.38C140.61,-301.54 150.08,-96.82 153.08,-31.86"/>
<polygon fill="midnightblue" stroke="midnightblue" points="156.58,-31.88 153.55,-21.73 149.59,-31.56 156.58,-31.88"/>
</g>
<!-- Node14 -->
<g id="node14" class="node">
<title>Node14</title>
<g id="a_node14"><a xlink:href="tex_8h.html" target="_top" xlink:title=" ">
<polygon fill="white" stroke="black" points="253,-290.5 253,-311.5 295,-311.5 295,-290.5 253,-290.5"/>
<text text-anchor="middle" x="274" y="-297.9" font-family="DejaVuSans" font-size="12.00">tex.h</text>
</a>
</g>
</g>
<!-- Node13&#45;&gt;Node14 -->
<g id="edge18" class="edge">
<title>Node13&#45;&gt;Node14</title>
<path fill="none" stroke="midnightblue" d="M161.38,-348.37C184.04,-339.04 218.54,-324.84 243.38,-314.61"/>
<polygon fill="midnightblue" stroke="midnightblue" points="244.8,-317.81 252.71,-310.76 242.13,-311.34 244.8,-317.81"/>
</g>
<!-- Node14&#45;&gt;Node3 -->
<g id="edge19" class="edge">
<title>Node14&#45;&gt;Node3</title>
<path fill="none" stroke="midnightblue" d="M267.18,-290.33C261.32,-281.38 253.3,-267.47 250,-254 241.44,-219.08 243.88,-205.05 262,-174 284.86,-134.83 327.82,-102.88 355.39,-85.16"/>
<polygon fill="midnightblue" stroke="midnightblue" points="357.48,-87.98 364.09,-79.71 353.76,-82.05 357.48,-87.98"/>
</g>
<!-- Node15 -->
<g id="node15" class="node">
<title>Node15</title>
<g id="a_node15"><a xlink:href="tex__constant_8h.html" target="_top" xlink:title=" ">
<polygon fill="white" stroke="black" points="259,-232.5 259,-253.5 353,-253.5 353,-232.5 259,-232.5"/>
<text text-anchor="middle" x="306" y="-239.9" font-family="DejaVuSans" font-size="12.00">tex_constant.h</text>
</a>
</g>
</g>
<!-- Node14&#45;&gt;Node15 -->
<g id="edge20" class="edge">
<title>Node14&#45;&gt;Node15</title>
<path fill="none" stroke="midnightblue" d="M279.57,-290.25C283.93,-282.62 290.12,-271.79 295.41,-262.53"/>
<polygon fill="midnightblue" stroke="midnightblue" points="298.57,-264.06 300.49,-253.64 292.49,-260.59 298.57,-264.06"/>
</g>
<!-- Node16 -->
<g id="node16" class="node">
<title>Node16</title>
<g id="a_node16"><a xlink:href="box_8h.html" target="_top" xlink:title=" ">
<polygon fill="white" stroke="black" points="271,-174.5 271,-195.5 317,-195.5 317,-174.5 271,-174.5"/>
<text text-anchor="middle" x="294" y="-181.9" font-family="DejaVuSans" font-size="12.00">box.h</text>
</a>
</g>
</g>
<!-- Node15&#45;&gt;Node16 -->
<g id="edge21" class="edge">
<title>Node15&#45;&gt;Node16</title>
<path fill="none" stroke="midnightblue" d="M303.91,-232.25C302.34,-224.94 300.15,-214.69 298.22,-205.7"/>
<polygon fill="midnightblue" stroke="midnightblue" points="301.58,-204.69 296.07,-195.64 294.74,-206.15 301.58,-204.69"/>
</g>
<!-- Node16&#45;&gt;Node6 -->
<g id="edge22" class="edge">
<title>Node16&#45;&gt;Node6</title>
<path fill="none" stroke="midnightblue" d="M276.23,-174.25C260.29,-165.49 236.67,-152.53 218.5,-142.55"/>
<polygon fill="midnightblue" stroke="midnightblue" points="220.01,-139.39 209.56,-137.64 216.64,-145.52 220.01,-139.39"/>
</g>
<!-- Node17&#45;&gt;Node3 -->
<g id="edge24" class="edge">
<title>Node17&#45;&gt;Node3</title>
<path fill="none" stroke="midnightblue" d="M424.61,-638.3C435.18,-619.07 457,-574.47 457,-534 457,-534 457,-534 457,-184 457,-143.54 423.44,-106.51 400.92,-86.22"/>
<polygon fill="midnightblue" stroke="midnightblue" points="403.06,-83.44 393.21,-79.53 398.47,-88.73 403.06,-83.44"/>
</g>
<!-- Node17&#45;&gt;Node6 -->
<g id="edge30" class="edge">
<title>Node17&#45;&gt;Node6</title>
<path fill="none" stroke="midnightblue" d="M419,-638.24C419,-618.54 419,-572.59 419,-534 419,-534 419,-534 419,-242 419,-154.84 283.71,-134.31 222.02,-129.48"/>
<polygon fill="midnightblue" stroke="midnightblue" points="221.97,-125.97 211.75,-128.77 221.48,-132.96 221.97,-125.97"/>
</g>
<!-- Node17&#45;&gt;Node14 -->
<g id="edge25" class="edge">
<title>Node17&#45;&gt;Node14</title>
<path fill="none" stroke="midnightblue" d="M393.65,-643.77C369.88,-638.38 335.32,-626.63 317,-602 264.56,-531.49 303.87,-492.93 291,-406 286.64,-376.55 280.95,-342.51 277.39,-321.62"/>
<polygon fill="midnightblue" stroke="midnightblue" points="280.83,-321 275.69,-311.73 273.93,-322.18 280.83,-321"/>
</g>
<!-- Node18 -->
<g id="node18" class="node">
<title>Node18</title>
<g id="a_node18"><a xlink:href="texmac_8h.html" target="_top" xlink:title=" ">
<polygon fill="white" stroke="black" points="325.5,-580.5 325.5,-601.5 390.5,-601.5 390.5,-580.5 325.5,-580.5"/>
<text text-anchor="middle" x="358" y="-587.9" font-family="DejaVuSans" font-size="12.00">texmac.h</text>
</a>
</g>
</g>
<!-- Node17&#45;&gt;Node18 -->
<g id="edge26" class="edge">
<title>Node17&#45;&gt;Node18</title>
<path fill="none" stroke="midnightblue" d="M408.37,-638.25C399.45,-630.05 386.51,-618.17 375.98,-608.51"/>
<polygon fill="midnightblue" stroke="midnightblue" points="378.24,-605.83 368.5,-601.64 373.5,-610.98 378.24,-605.83"/>
</g>
<!-- Node19 -->
<g id="node19" class="node">
<title>Node19</title>
<g id="a_node19"><a xlink:href="mem_8h.html" target="_top" xlink:title=" ">
<polygon fill="white" stroke="black" points="331.5,-522.5 331.5,-543.5 384.5,-543.5 384.5,-522.5 331.5,-522.5"/>
<text text-anchor="middle" x="358" y="-529.9" font-family="DejaVuSans" font-size="12.00">mem.h</text>
</a>
</g>
</g>
<!-- Node18&#45;&gt;Node19 -->
<g id="edge27" class="edge">
<title>Node18&#45;&gt;Node19</title>
<path fill="none" stroke="midnightblue" d="M358,-580.25C358,-572.94 358,-562.69 358,-553.7"/>
<polygon fill="midnightblue" stroke="midnightblue" points="361.5,-553.64 358,-543.64 354.5,-553.64 361.5,-553.64"/>
</g>
<!-- Node19&#45;&gt;Node3 -->
<g id="edge28" class="edge">
<title>Node19&#45;&gt;Node3</title>
<path fill="none" stroke="midnightblue" d="M361.3,-522.37C367.66,-502.91 381,-457.37 381,-418 381,-418 381,-418 381,-184 381,-150.98 381,-112.59 381,-89.85"/>
<polygon fill="midnightblue" stroke="midnightblue" points="384.5,-89.76 381,-79.76 377.5,-89.76 384.5,-89.76"/>
</g>
<!-- Node19&#45;&gt;Node10 -->
<g id="edge29" class="edge">
<title>Node19&#45;&gt;Node10</title>
<path fill="none" stroke="midnightblue" d="M339.36,-522.25C322.56,-513.45 297.64,-500.41 278.54,-490.41"/>
<polygon fill="midnightblue" stroke="midnightblue" points="279.91,-487.18 269.42,-485.64 276.66,-493.38 279.91,-487.18"/>
</g>
<!-- Node20&#45;&gt;Node3 -->
<g id="edge32" class="edge">
<title>Node20&#45;&gt;Node3</title>
<path fill="none" stroke="midnightblue" d="M510.67,-290.43C512.22,-261.08 513.09,-170.96 471,-116 459.58,-101.09 441.99,-90.61 425.37,-83.46"/>
<polygon fill="midnightblue" stroke="midnightblue" points="426.34,-80.08 415.76,-79.63 423.75,-86.58 426.34,-80.08"/>
</g>
<!-- Node20&#45;&gt;Node15 -->
<g id="edge33" class="edge">
<title>Node20&#45;&gt;Node15</title>
<path fill="none" stroke="midnightblue" d="M484.99,-293.13C451.57,-283.96 391.79,-267.55 350.57,-256.24"/>
<polygon fill="midnightblue" stroke="midnightblue" points="351.35,-252.82 340.78,-253.55 349.5,-259.57 351.35,-252.82"/>
</g>
</g>
</svg>
