<?xml version="1.0" encoding="UTF-8" standalone="no"?>
<!DOCTYPE svg PUBLIC "-//W3C//DTD SVG 1.1//EN"
 "http://www.w3.org/Graphics/SVG/1.1/DTD/svg11.dtd">
<!-- Generated by graphviz version 2.44.0 ()
 -->
<!-- Title: io_unix.c Pages: 1 -->
<svg width="471pt" height="436pt"
 viewBox="0.00 0.00 470.72 436.00" xmlns="http://www.w3.org/2000/svg" xmlns:xlink="http://www.w3.org/1999/xlink">
<g id="graph0" class="graph" transform="scale(1 1) rotate(0) translate(4 432)">
<title>io_unix.c</title>
<polygon fill="white" stroke="transparent" points="-4,4 -4,-432 466.72,-432 466.72,4 -4,4"/>
<!-- Node1 -->
<g id="node1" class="node">
<title>Node1</title>
<g id="a_node1"><a xlink:title=" ">
<polygon fill="#bfbfbf" stroke="black" points="142.5,-406.5 142.5,-427.5 207.5,-427.5 207.5,-406.5 142.5,-406.5"/>
<text text-anchor="middle" x="175" y="-413.9" font-family="DejaVuSans" font-size="12.00">io_unix.c</text>
</a>
</g>
</g>
<!-- Node2 -->
<g id="node2" class="node">
<title>Node2</title>
<g id="a_node2"><a xlink:title=" ">
<polygon fill="white" stroke="#bfbfbf" points="80,-58.5 80,-79.5 132,-79.5 132,-58.5 80,-58.5"/>
<text text-anchor="middle" x="106" y="-65.9" font-family="DejaVuSans" font-size="12.00">stdio.h</text>
</a>
</g>
</g>
<!-- Node1&#45;&gt;Node2 -->
<g id="edge1" class="edge">
<title>Node1&#45;&gt;Node2</title>
<path fill="none" stroke="midnightblue" d="M142.46,-409.91C92.35,-398.45 2,-368.54 2,-302 2,-302 2,-302 2,-184 2,-152.62 1.42,-140.53 21,-116 33.51,-100.32 52.87,-89.26 69.96,-81.91"/>
<polygon fill="midnightblue" stroke="midnightblue" points="71.71,-84.98 79.69,-78.01 69.1,-78.49 71.71,-84.98"/>
</g>
<!-- Node3 -->
<g id="node3" class="node">
<title>Node3</title>
<g id="a_node3"><a xlink:title=" ">
<polygon fill="white" stroke="#bfbfbf" points="322,-348.5 322,-369.5 378,-369.5 378,-348.5 322,-348.5"/>
<text text-anchor="middle" x="350" y="-355.9" font-family="DejaVuSans" font-size="12.00">string.h</text>
</a>
</g>
</g>
<!-- Node1&#45;&gt;Node3 -->
<g id="edge2" class="edge">
<title>Node1&#45;&gt;Node3</title>
<path fill="none" stroke="midnightblue" d="M205.08,-406.37C234.62,-396.92 279.8,-382.46 311.85,-372.21"/>
<polygon fill="midnightblue" stroke="midnightblue" points="313.3,-375.42 321.75,-369.04 311.16,-368.75 313.3,-375.42"/>
</g>
<!-- Node4 -->
<g id="node4" class="node">
<title>Node4</title>
<g id="a_node4"><a xlink:title=" ">
<polygon fill="white" stroke="#bfbfbf" points="396,-348.5 396,-369.5 450,-369.5 450,-348.5 396,-348.5"/>
<text text-anchor="middle" x="423" y="-355.9" font-family="DejaVuSans" font-size="12.00">stdlib.h</text>
</a>
</g>
</g>
<!-- Node1&#45;&gt;Node4 -->
<g id="edge3" class="edge">
<title>Node1&#45;&gt;Node4</title>
<path fill="none" stroke="midnightblue" d="M207.82,-409.49C247.72,-401.43 317.32,-386.96 386.2,-370.1"/>
<polygon fill="midnightblue" stroke="midnightblue" points="387.05,-373.49 395.92,-367.7 385.37,-366.7 387.05,-373.49"/>
</g>
<!-- Node5 -->
<g id="node5" class="node">
<title>Node5</title>
<g id="a_node5"><a xlink:href="tex_8h.html" target="_top" xlink:title=" ">
<polygon fill="white" stroke="black" points="192,-348.5 192,-369.5 234,-369.5 234,-348.5 192,-348.5"/>
<text text-anchor="middle" x="213" y="-355.9" font-family="DejaVuSans" font-size="12.00">tex.h</text>
</a>
</g>
</g>
<!-- Node1&#45;&gt;Node5 -->
<g id="edge4" class="edge">
<title>Node1&#45;&gt;Node5</title>
<path fill="none" stroke="midnightblue" d="M181.62,-406.25C186.9,-398.46 194.45,-387.33 200.82,-377.94"/>
<polygon fill="midnightblue" stroke="midnightblue" points="203.74,-379.88 206.46,-369.64 197.95,-375.95 203.74,-379.88"/>
</g>
<!-- Node6 -->
<g id="node6" class="node">
<title>Node6</title>
<g id="a_node6"><a xlink:href="global__const_8h.html" target="_top" xlink:title=" ">
<polygon fill="white" stroke="black" points="105.5,-116.5 105.5,-137.5 198.5,-137.5 198.5,-116.5 105.5,-116.5"/>
<text text-anchor="middle" x="152" y="-123.9" font-family="DejaVuSans" font-size="12.00">global_const.h</text>
</a>
</g>
</g>
<!-- Node1&#45;&gt;Node6 -->
<g id="edge27" class="edge">
<title>Node1&#45;&gt;Node6</title>
<path fill="none" stroke="midnightblue" d="M165.31,-406.3C147.88,-387.75 113,-345.26 113,-302 113,-302 113,-302 113,-242 113,-206.81 129.84,-168.64 141.39,-146.6"/>
<polygon fill="midnightblue" stroke="midnightblue" points="144.54,-148.14 146.25,-137.68 138.39,-144.79 144.54,-148.14"/>
</g>
<!-- Node13 -->
<g id="node13" class="node">
<title>Node13</title>
<g id="a_node13"><a xlink:href="str_8h.html" target="_top" xlink:title=" ">
<polygon fill="white" stroke="black" points="295.5,-174.5 295.5,-195.5 334.5,-195.5 334.5,-174.5 295.5,-174.5"/>
<text text-anchor="middle" x="315" y="-181.9" font-family="DejaVuSans" font-size="12.00">str.h</text>
</a>
</g>
</g>
<!-- Node1&#45;&gt;Node13 -->
<g id="edge22" class="edge">
<title>Node1&#45;&gt;Node13</title>
<path fill="none" stroke="midnightblue" d="M174.48,-406.34C174.11,-392.75 174.75,-367.49 183,-348 209.11,-286.31 266.22,-229.34 296.04,-202.37"/>
<polygon fill="midnightblue" stroke="midnightblue" points="298.52,-204.84 303.67,-195.57 293.87,-199.6 298.52,-204.84"/>
</g>
<!-- Node16 -->
<g id="node16" class="node">
<title>Node16</title>
<g id="a_node16"><a xlink:href="global_8h.html" target="_top" xlink:title=" ">
<polygon fill="white" stroke="black" points="30,-116.5 30,-137.5 88,-137.5 88,-116.5 30,-116.5"/>
<text text-anchor="middle" x="59" y="-123.9" font-family="DejaVuSans" font-size="12.00">global.h</text>
</a>
</g>
</g>
<!-- Node1&#45;&gt;Node16 -->
<g id="edge23" class="edge">
<title>Node1&#45;&gt;Node16</title>
<path fill="none" stroke="midnightblue" d="M155.19,-406.46C124.01,-389.91 67,-352.71 67,-302 67,-302 67,-302 67,-242 67,-208.9 63.6,-170.53 61.24,-147.82"/>
<polygon fill="midnightblue" stroke="midnightblue" points="64.7,-147.31 60.15,-137.74 57.74,-148.06 64.7,-147.31"/>
</g>
<!-- Node18 -->
<g id="node18" class="node">
<title>Node18</title>
<g id="a_node18"><a xlink:href="io_8h.html" target="_top" xlink:title=" ">
<polygon fill="white" stroke="black" points="268,-348.5 268,-369.5 304,-369.5 304,-348.5 268,-348.5"/>
<text text-anchor="middle" x="286" y="-355.9" font-family="DejaVuSans" font-size="12.00">io.h</text>
</a>
</g>
</g>
<!-- Node1&#45;&gt;Node18 -->
<g id="edge28" class="edge">
<title>Node1&#45;&gt;Node18</title>
<path fill="none" stroke="midnightblue" d="M194.08,-406.37C211.95,-397.36 238.85,-383.79 258.93,-373.65"/>
<polygon fill="midnightblue" stroke="midnightblue" points="260.55,-376.76 267.9,-369.13 257.4,-370.51 260.55,-376.76"/>
</g>
<!-- Node5&#45;&gt;Node6 -->
<g id="edge5" class="edge">
<title>Node5&#45;&gt;Node6</title>
<path fill="none" stroke="midnightblue" d="M210.46,-348.41C201.27,-313.78 169.7,-194.74 157.18,-147.52"/>
<polygon fill="midnightblue" stroke="midnightblue" points="160.5,-146.4 154.55,-137.63 153.73,-148.19 160.5,-146.4"/>
</g>
<!-- Node8 -->
<g id="node8" class="node">
<title>Node8</title>
<g id="a_node8"><a xlink:href="tex__types_8h.html" target="_top" xlink:title=" ">
<polygon fill="white" stroke="black" points="331.5,-58.5 331.5,-79.5 408.5,-79.5 408.5,-58.5 331.5,-58.5"/>
<text text-anchor="middle" x="370" y="-65.9" font-family="DejaVuSans" font-size="12.00">tex_types.h</text>
</a>
</g>
</g>
<!-- Node5&#45;&gt;Node8 -->
<g id="edge8" class="edge">
<title>Node5&#45;&gt;Node8</title>
<path fill="none" stroke="midnightblue" d="M215.01,-348.29C218.88,-328.68 227,-282.88 227,-244 227,-244 227,-244 227,-184 227,-131.57 286.5,-99.34 328.74,-83.07"/>
<polygon fill="midnightblue" stroke="midnightblue" points="330.09,-86.31 338.26,-79.56 327.67,-79.74 330.09,-86.31"/>
</g>
<!-- Node11 -->
<g id="node11" class="node">
<title>Node11</title>
<g id="a_node11"><a xlink:href="tex__constant_8h.html" target="_top" xlink:title=" ">
<polygon fill="white" stroke="black" points="255,-290.5 255,-311.5 349,-311.5 349,-290.5 255,-290.5"/>
<text text-anchor="middle" x="302" y="-297.9" font-family="DejaVuSans" font-size="12.00">tex_constant.h</text>
</a>
</g>
</g>
<!-- Node5&#45;&gt;Node11 -->
<g id="edge11" class="edge">
<title>Node5&#45;&gt;Node11</title>
<path fill="none" stroke="midnightblue" d="M228.5,-348.25C242.16,-339.65 262.27,-327 278,-317.1"/>
<polygon fill="midnightblue" stroke="midnightblue" points="280.08,-319.93 286.68,-311.64 276.35,-314.01 280.08,-319.93"/>
</g>
<!-- Node6&#45;&gt;Node2 -->
<g id="edge7" class="edge">
<title>Node6&#45;&gt;Node2</title>
<path fill="none" stroke="midnightblue" d="M143.99,-116.25C137.52,-108.38 128.26,-97.1 120.5,-87.65"/>
<polygon fill="midnightblue" stroke="midnightblue" points="122.97,-85.15 113.92,-79.64 117.56,-89.59 122.97,-85.15"/>
</g>
<!-- Node7 -->
<g id="node7" class="node">
<title>Node7</title>
<g id="a_node7"><a xlink:title=" ">
<polygon fill="white" stroke="#bfbfbf" points="150.5,-58.5 150.5,-79.5 209.5,-79.5 209.5,-58.5 150.5,-58.5"/>
<text text-anchor="middle" x="180" y="-65.9" font-family="DejaVuSans" font-size="12.00">assert.h</text>
</a>
</g>
</g>
<!-- Node6&#45;&gt;Node7 -->
<g id="edge6" class="edge">
<title>Node6&#45;&gt;Node7</title>
<path fill="none" stroke="midnightblue" d="M156.88,-116.25C160.65,-108.7 165.99,-98.02 170.59,-88.82"/>
<polygon fill="midnightblue" stroke="midnightblue" points="173.84,-90.15 175.18,-79.64 167.58,-87.02 173.84,-90.15"/>
</g>
<!-- Node9 -->
<g id="node9" class="node">
<title>Node9</title>
<g id="a_node9"><a xlink:title=" ">
<polygon fill="white" stroke="#bfbfbf" points="348.5,-0.5 348.5,-21.5 413.5,-21.5 413.5,-0.5 348.5,-0.5"/>
<text text-anchor="middle" x="381" y="-7.9" font-family="DejaVuSans" font-size="12.00">stdbool.h</text>
</a>
</g>
</g>
<!-- Node8&#45;&gt;Node9 -->
<g id="edge9" class="edge">
<title>Node8&#45;&gt;Node9</title>
<path fill="none" stroke="midnightblue" d="M371.92,-58.25C373.35,-50.94 375.36,-40.69 377.13,-31.7"/>
<polygon fill="midnightblue" stroke="midnightblue" points="380.61,-32.13 379.11,-21.64 373.74,-30.78 380.61,-32.13"/>
</g>
<!-- Node10 -->
<g id="node10" class="node">
<title>Node10</title>
<g id="a_node10"><a xlink:title=" ">
<polygon fill="white" stroke="#bfbfbf" points="275.5,-0.5 275.5,-21.5 330.5,-21.5 330.5,-0.5 275.5,-0.5"/>
<text text-anchor="middle" x="303" y="-7.9" font-family="DejaVuSans" font-size="12.00">stdint.h</text>
</a>
</g>
</g>
<!-- Node8&#45;&gt;Node10 -->
<g id="edge10" class="edge">
<title>Node8&#45;&gt;Node10</title>
<path fill="none" stroke="midnightblue" d="M358.33,-58.25C348.43,-49.97 334.04,-37.94 322.41,-28.22"/>
<polygon fill="midnightblue" stroke="midnightblue" points="324.45,-25.37 314.54,-21.64 319.97,-30.74 324.45,-25.37"/>
</g>
<!-- Node12 -->
<g id="node12" class="node">
<title>Node12</title>
<g id="a_node12"><a xlink:href="box_8h.html" target="_top" xlink:title=" ">
<polygon fill="white" stroke="black" points="393,-232.5 393,-253.5 439,-253.5 439,-232.5 393,-232.5"/>
<text text-anchor="middle" x="416" y="-239.9" font-family="DejaVuSans" font-size="12.00">box.h</text>
</a>
</g>
</g>
<!-- Node11&#45;&gt;Node12 -->
<g id="edge12" class="edge">
<title>Node11&#45;&gt;Node12</title>
<path fill="none" stroke="midnightblue" d="M321.6,-290.37C339.73,-281.46 366.91,-268.11 387.46,-258.02"/>
<polygon fill="midnightblue" stroke="midnightblue" points="389.23,-261.05 396.66,-253.5 386.14,-254.77 389.23,-261.05"/>
</g>
<!-- Node12&#45;&gt;Node13 -->
<g id="edge13" class="edge">
<title>Node12&#45;&gt;Node13</title>
<path fill="none" stroke="midnightblue" d="M398.41,-232.25C382.62,-223.49 359.24,-210.53 341.24,-200.55"/>
<polygon fill="midnightblue" stroke="midnightblue" points="342.83,-197.43 332.39,-195.64 339.44,-203.55 342.83,-197.43"/>
</g>
<!-- Node15 -->
<g id="node15" class="node">
<title>Node15</title>
<g id="a_node15"><a xlink:href="texmath_8h.html" target="_top" xlink:title=" ">
<polygon fill="white" stroke="black" points="376,-174.5 376,-195.5 444,-195.5 444,-174.5 376,-174.5"/>
<text text-anchor="middle" x="410" y="-181.9" font-family="DejaVuSans" font-size="12.00">texmath.h</text>
</a>
</g>
</g>
<!-- Node12&#45;&gt;Node15 -->
<g id="edge20" class="edge">
<title>Node12&#45;&gt;Node15</title>
<path fill="none" stroke="midnightblue" d="M414.95,-232.25C414.17,-224.94 413.07,-214.69 412.11,-205.7"/>
<polygon fill="midnightblue" stroke="midnightblue" points="415.58,-205.21 411.03,-195.64 408.62,-205.96 415.58,-205.21"/>
</g>
<!-- Node13&#45;&gt;Node2 -->
<g id="edge14" class="edge">
<title>Node13&#45;&gt;Node2</title>
<path fill="none" stroke="midnightblue" d="M301.19,-174.32C281.17,-160.5 242.67,-134.71 208,-116 185.67,-103.95 159.57,-92.22 139.36,-83.62"/>
<polygon fill="midnightblue" stroke="midnightblue" points="140.53,-80.32 129.96,-79.66 137.82,-86.77 140.53,-80.32"/>
</g>
<!-- Node13&#45;&gt;Node6 -->
<g id="edge16" class="edge">
<title>Node13&#45;&gt;Node6</title>
<path fill="none" stroke="midnightblue" d="M295.34,-177.25C269.25,-168.28 222.65,-152.27 189.67,-140.94"/>
<polygon fill="midnightblue" stroke="midnightblue" points="190.51,-137.53 179.91,-137.59 188.23,-144.15 190.51,-137.53"/>
</g>
<!-- Node13&#45;&gt;Node8 -->
<g id="edge19" class="edge">
<title>Node13&#45;&gt;Node8</title>
<path fill="none" stroke="midnightblue" d="M319.69,-174.28C328.82,-155.35 349.13,-113.25 360.97,-88.72"/>
<polygon fill="midnightblue" stroke="midnightblue" points="364.13,-90.22 365.32,-79.69 357.82,-87.18 364.13,-90.22"/>
</g>
<!-- Node13&#45;&gt;Node10 -->
<g id="edge15" class="edge">
<title>Node13&#45;&gt;Node10</title>
<path fill="none" stroke="midnightblue" d="M314.32,-174.26C312.41,-146.82 306.94,-68.51 304.37,-31.64"/>
<polygon fill="midnightblue" stroke="midnightblue" points="307.86,-31.37 303.67,-21.63 300.88,-31.85 307.86,-31.37"/>
</g>
<!-- Node14 -->
<g id="node14" class="node">
<title>Node14</title>
<g id="a_node14"><a xlink:href="charset_8h.html" target="_top" xlink:title=" ">
<polygon fill="white" stroke="black" points="369.5,-116.5 369.5,-137.5 434.5,-137.5 434.5,-116.5 369.5,-116.5"/>
<text text-anchor="middle" x="402" y="-123.9" font-family="DejaVuSans" font-size="12.00">charset.h</text>
</a>
</g>
</g>
<!-- Node13&#45;&gt;Node14 -->
<g id="edge17" class="edge">
<title>Node13&#45;&gt;Node14</title>
<path fill="none" stroke="midnightblue" d="M330.15,-174.25C343.5,-165.65 363.16,-153 378.54,-143.1"/>
<polygon fill="midnightblue" stroke="midnightblue" points="380.51,-146 387.02,-137.64 376.72,-140.11 380.51,-146"/>
</g>
<!-- Node14&#45;&gt;Node8 -->
<g id="edge18" class="edge">
<title>Node14&#45;&gt;Node8</title>
<path fill="none" stroke="midnightblue" d="M396.43,-116.25C392.07,-108.62 385.88,-97.79 380.59,-88.53"/>
<polygon fill="midnightblue" stroke="midnightblue" points="383.51,-86.59 375.51,-79.64 377.43,-90.06 383.51,-86.59"/>
</g>
<!-- Node15&#45;&gt;Node8 -->
<g id="edge21" class="edge">
<title>Node15&#45;&gt;Node8</title>
<path fill="none" stroke="midnightblue" d="M421.19,-174.18C434.98,-160.83 455.29,-136.3 444,-116 436.04,-101.68 421.58,-91.25 407.53,-83.97"/>
<polygon fill="midnightblue" stroke="midnightblue" points="408.97,-80.78 398.44,-79.64 405.96,-87.1 408.97,-80.78"/>
</g>
<!-- Node16&#45;&gt;Node2 -->
<g id="edge24" class="edge">
<title>Node16&#45;&gt;Node2</title>
<path fill="none" stroke="midnightblue" d="M67.19,-116.25C73.86,-108.3 83.45,-96.87 91.43,-87.37"/>
<polygon fill="midnightblue" stroke="midnightblue" points="94.16,-89.55 97.91,-79.64 88.8,-85.05 94.16,-89.55"/>
</g>
<!-- Node16&#45;&gt;Node8 -->
<g id="edge26" class="edge">
<title>Node16&#45;&gt;Node8</title>
<path fill="none" stroke="midnightblue" d="M88.4,-117.98C91.29,-117.28 94.2,-116.6 97,-116 174.91,-99.22 266.42,-84.88 321.24,-76.86"/>
<polygon fill="midnightblue" stroke="midnightblue" points="321.97,-80.29 331.36,-75.39 320.96,-73.36 321.97,-80.29"/>
</g>
<!-- Node17 -->
<g id="node17" class="node">
<title>Node17</title>
<g id="a_node17"><a xlink:title=" ">
<polygon fill="white" stroke="#bfbfbf" points="0,-58.5 0,-79.5 62,-79.5 62,-58.5 0,-58.5"/>
<text text-anchor="middle" x="31" y="-65.9" font-family="DejaVuSans" font-size="12.00">setjmp.h</text>
</a>
</g>
</g>
<!-- Node16&#45;&gt;Node17 -->
<g id="edge25" class="edge">
<title>Node16&#45;&gt;Node17</title>
<path fill="none" stroke="midnightblue" d="M54.12,-116.25C50.35,-108.7 45.01,-98.02 40.41,-88.82"/>
<polygon fill="midnightblue" stroke="midnightblue" points="43.42,-87.02 35.82,-79.64 37.16,-90.15 43.42,-87.02"/>
</g>
<!-- Node18&#45;&gt;Node11 -->
<g id="edge29" class="edge">
<title>Node18&#45;&gt;Node11</title>
<path fill="none" stroke="midnightblue" d="M288.79,-348.25C290.9,-340.86 293.87,-330.47 296.45,-321.41"/>
<polygon fill="midnightblue" stroke="midnightblue" points="299.86,-322.22 299.24,-311.64 293.13,-320.3 299.86,-322.22"/>
</g>
<!-- Node18&#45;&gt;Node13 -->
<g id="edge31" class="edge">
<title>Node18&#45;&gt;Node13</title>
<path fill="none" stroke="midnightblue" d="M304.25,-348.94C323.57,-338.93 352.09,-322.8 358,-312 377.87,-275.73 348.96,-228.62 329.76,-203.53"/>
<polygon fill="midnightblue" stroke="midnightblue" points="332.43,-201.27 323.46,-195.63 326.95,-205.63 332.43,-201.27"/>
</g>
<!-- Node18&#45;&gt;Node14 -->
<g id="edge30" class="edge">
<title>Node18&#45;&gt;Node14</title>
<path fill="none" stroke="midnightblue" d="M304.3,-349.82C322.71,-341.31 351.63,-327.12 375,-312 409.79,-289.49 428.4,-290.51 448,-254 464.85,-222.61 467.48,-206.55 453,-174 447.55,-161.74 437.04,-151.38 426.97,-143.6"/>
<polygon fill="midnightblue" stroke="midnightblue" points="428.9,-140.68 418.74,-137.7 424.83,-146.37 428.9,-140.68"/>
</g>
</g>
</svg>
