<?xml version="1.0" encoding="UTF-8" standalone="no"?>
<!DOCTYPE svg PUBLIC "-//W3C//DTD SVG 1.1//EN"
 "http://www.w3.org/Graphics/SVG/1.1/DTD/svg11.dtd">
<!-- Generated by graphviz version 2.44.0 ()
 -->
<!-- Title: io_fname.c Pages: 1 -->
<svg width="874pt" height="378pt"
 viewBox="0.00 0.00 874.00 378.00" xmlns="http://www.w3.org/2000/svg" xmlns:xlink="http://www.w3.org/1999/xlink">
<g id="graph0" class="graph" transform="scale(1 1) rotate(0) translate(4 374)">
<title>io_fname.c</title>
<polygon fill="white" stroke="transparent" points="-4,4 -4,-374 870,-374 870,4 -4,4"/>
<!-- Node1 -->
<g id="node1" class="node">
<title>Node1</title>
<g id="a_node1"><a xlink:title=" ">
<polygon fill="#bfbfbf" stroke="black" points="373.5,-348.5 373.5,-369.5 448.5,-369.5 448.5,-348.5 373.5,-348.5"/>
<text text-anchor="middle" x="411" y="-355.9" font-family="DejaVuSans" font-size="12.00">io_fname.c</text>
</a>
</g>
</g>
<!-- Node2 -->
<g id="node2" class="node">
<title>Node2</title>
<g id="a_node2"><a xlink:title=" ">
<polygon fill="white" stroke="#bfbfbf" points="0,-290.5 0,-311.5 56,-311.5 56,-290.5 0,-290.5"/>
<text text-anchor="middle" x="28" y="-297.9" font-family="DejaVuSans" font-size="12.00">string.h</text>
</a>
</g>
</g>
<!-- Node1&#45;&gt;Node2 -->
<g id="edge1" class="edge">
<title>Node1&#45;&gt;Node2</title>
<path fill="none" stroke="midnightblue" d="M373.47,-354.17C310.45,-347.48 179.53,-332.37 70,-312 68.76,-311.77 67.49,-311.52 66.22,-311.27"/>
<polygon fill="midnightblue" stroke="midnightblue" points="66.9,-307.84 56.38,-309.16 65.43,-314.68 66.9,-307.84"/>
</g>
<!-- Node3 -->
<g id="node3" class="node">
<title>Node3</title>
<g id="a_node3"><a xlink:href="tex__constant_8h.html" target="_top" xlink:title=" ">
<polygon fill="white" stroke="black" points="125,-174.5 125,-195.5 219,-195.5 219,-174.5 125,-174.5"/>
<text text-anchor="middle" x="172" y="-181.9" font-family="DejaVuSans" font-size="12.00">tex_constant.h</text>
</a>
</g>
</g>
<!-- Node1&#45;&gt;Node3 -->
<g id="edge2" class="edge">
<title>Node1&#45;&gt;Node3</title>
<path fill="none" stroke="midnightblue" d="M373.33,-354.37C328.68,-349.11 252.67,-337.1 192,-312 148.37,-293.95 125.5,-295.51 103,-254 91.04,-231.94 116.46,-212.5 139.75,-200.11"/>
<polygon fill="midnightblue" stroke="midnightblue" points="141.45,-203.18 148.82,-195.56 138.31,-196.92 141.45,-203.18"/>
</g>
<!-- Node4 -->
<g id="node4" class="node">
<title>Node4</title>
<g id="a_node4"><a xlink:href="charset_8h.html" target="_top" xlink:title=" ">
<polygon fill="white" stroke="black" points="356.5,-174.5 356.5,-195.5 421.5,-195.5 421.5,-174.5 356.5,-174.5"/>
<text text-anchor="middle" x="389" y="-181.9" font-family="DejaVuSans" font-size="12.00">charset.h</text>
</a>
</g>
</g>
<!-- Node1&#45;&gt;Node4 -->
<g id="edge3" class="edge">
<title>Node1&#45;&gt;Node4</title>
<path fill="none" stroke="midnightblue" d="M404.43,-348.23C392.9,-330.42 369.46,-291.11 361,-254 358.83,-244.47 358.36,-241.41 361,-232 363.79,-222.06 369.38,-212.13 374.84,-204.06"/>
<polygon fill="midnightblue" stroke="midnightblue" points="377.77,-205.99 380.79,-195.83 372.1,-201.88 377.77,-205.99"/>
</g>
<!-- Node12 -->
<g id="node12" class="node">
<title>Node12</title>
<g id="a_node12"><a xlink:href="str_8h.html" target="_top" xlink:title=" ">
<polygon fill="white" stroke="black" points="478.5,-232.5 478.5,-253.5 517.5,-253.5 517.5,-232.5 478.5,-232.5"/>
<text text-anchor="middle" x="498" y="-239.9" font-family="DejaVuSans" font-size="12.00">str.h</text>
</a>
</g>
</g>
<!-- Node1&#45;&gt;Node12 -->
<g id="edge11" class="edge">
<title>Node1&#45;&gt;Node12</title>
<path fill="none" stroke="midnightblue" d="M429.01,-348.5C442.76,-340.43 461.28,-327.67 473,-312 483.81,-297.55 490.35,-277.95 494.02,-263.5"/>
<polygon fill="midnightblue" stroke="midnightblue" points="497.46,-264.16 496.28,-253.63 490.64,-262.59 497.46,-264.16"/>
</g>
<!-- Node14 -->
<g id="node14" class="node">
<title>Node14</title>
<g id="a_node14"><a xlink:href="print_8h.html" target="_top" xlink:title=" ">
<polygon fill="white" stroke="black" points="241,-290.5 241,-311.5 291,-311.5 291,-290.5 241,-290.5"/>
<text text-anchor="middle" x="266" y="-297.9" font-family="DejaVuSans" font-size="12.00">print.h</text>
</a>
</g>
</g>
<!-- Node1&#45;&gt;Node14 -->
<g id="edge16" class="edge">
<title>Node1&#45;&gt;Node14</title>
<path fill="none" stroke="midnightblue" d="M386.07,-348.37C362.38,-339.22 326.55,-325.38 300.19,-315.21"/>
<polygon fill="midnightblue" stroke="midnightblue" points="301.19,-311.84 290.6,-311.5 298.67,-318.37 301.19,-311.84"/>
</g>
<!-- Node15 -->
<g id="node15" class="node">
<title>Node15</title>
<g id="a_node15"><a xlink:href="eqtb_8h.html" target="_top" xlink:title=" ">
<polygon fill="white" stroke="black" points="112,-232.5 112,-253.5 162,-253.5 162,-232.5 112,-232.5"/>
<text text-anchor="middle" x="137" y="-239.9" font-family="DejaVuSans" font-size="12.00">eqtb.h</text>
</a>
</g>
</g>
<!-- Node1&#45;&gt;Node15 -->
<g id="edge25" class="edge">
<title>Node1&#45;&gt;Node15</title>
<path fill="none" stroke="midnightblue" d="M373.29,-352.48C336.09,-346.09 278.24,-333.56 232,-312 203.09,-298.52 173.85,-275.94 155.59,-260.53"/>
<polygon fill="midnightblue" stroke="midnightblue" points="157.42,-257.48 147.56,-253.61 152.85,-262.79 157.42,-257.48"/>
</g>
<!-- Node16 -->
<g id="node16" class="node">
<title>Node16</title>
<g id="a_node16"><a xlink:href="expand_8h.html" target="_top" xlink:title=" ">
<polygon fill="white" stroke="black" points="726,-232.5 726,-253.5 792,-253.5 792,-232.5 726,-232.5"/>
<text text-anchor="middle" x="759" y="-239.9" font-family="DejaVuSans" font-size="12.00">expand.h</text>
</a>
</g>
</g>
<!-- Node1&#45;&gt;Node16 -->
<g id="edge26" class="edge">
<title>Node1&#45;&gt;Node16</title>
<path fill="none" stroke="midnightblue" d="M448.86,-354.33C495.5,-348.95 576.6,-336.73 642,-312 677.5,-298.58 714.79,-275.01 737.47,-259.46"/>
<polygon fill="midnightblue" stroke="midnightblue" points="739.49,-262.31 745.69,-253.73 735.49,-256.57 739.49,-262.31"/>
</g>
<!-- Node17 -->
<g id="node17" class="node">
<title>Node17</title>
<g id="a_node17"><a xlink:href="error_8h.html" target="_top" xlink:title=" ">
<polygon fill="white" stroke="black" points="520.5,-290.5 520.5,-311.5 571.5,-311.5 571.5,-290.5 520.5,-290.5"/>
<text text-anchor="middle" x="546" y="-297.9" font-family="DejaVuSans" font-size="12.00">error.h</text>
</a>
</g>
</g>
<!-- Node1&#45;&gt;Node17 -->
<g id="edge29" class="edge">
<title>Node1&#45;&gt;Node17</title>
<path fill="none" stroke="midnightblue" d="M434.21,-348.37C456.17,-339.26 489.33,-325.51 513.84,-315.34"/>
<polygon fill="midnightblue" stroke="midnightblue" points="515.2,-318.57 523.1,-311.5 512.52,-312.1 515.2,-318.57"/>
</g>
<!-- Node18 -->
<g id="node18" class="node">
<title>Node18</title>
<g id="a_node18"><a xlink:href="lexer_8h.html" target="_top" xlink:title=" ">
<polygon fill="white" stroke="black" points="370,-232.5 370,-253.5 422,-253.5 422,-232.5 370,-232.5"/>
<text text-anchor="middle" x="396" y="-239.9" font-family="DejaVuSans" font-size="12.00">lexer.h</text>
</a>
</g>
</g>
<!-- Node1&#45;&gt;Node18 -->
<g id="edge32" class="edge">
<title>Node1&#45;&gt;Node18</title>
<path fill="none" stroke="midnightblue" d="M409.08,-348.16C407.32,-338.87 404.73,-324.53 403,-312 400.77,-295.84 398.91,-277.42 397.67,-263.83"/>
<polygon fill="midnightblue" stroke="midnightblue" points="401.15,-263.37 396.79,-253.71 394.17,-263.98 401.15,-263.37"/>
</g>
<!-- Node19 -->
<g id="node19" class="node">
<title>Node19</title>
<g id="a_node19"><a xlink:href="dump_8h.html" target="_top" xlink:title=" ">
<polygon fill="white" stroke="black" points="810,-232.5 810,-253.5 866,-253.5 866,-232.5 810,-232.5"/>
<text text-anchor="middle" x="838" y="-239.9" font-family="DejaVuSans" font-size="12.00">dump.h</text>
</a>
</g>
</g>
<!-- Node1&#45;&gt;Node19 -->
<g id="edge36" class="edge">
<title>Node1&#45;&gt;Node19</title>
<path fill="none" stroke="midnightblue" d="M448.62,-354.23C500.71,-348.41 597.4,-335.36 677,-312 725.28,-297.83 778.58,-273.48 810.13,-258.09"/>
<polygon fill="midnightblue" stroke="midnightblue" points="811.77,-261.18 819.19,-253.62 808.67,-254.9 811.77,-261.18"/>
</g>
<!-- Node20 -->
<g id="node20" class="node">
<title>Node20</title>
<g id="a_node20"><a xlink:href="scan_8h.html" target="_top" xlink:title=" ">
<polygon fill="white" stroke="black" points="412,-290.5 412,-311.5 464,-311.5 464,-290.5 412,-290.5"/>
<text text-anchor="middle" x="438" y="-297.9" font-family="DejaVuSans" font-size="12.00">scan.h</text>
</a>
</g>
</g>
<!-- Node1&#45;&gt;Node20 -->
<g id="edge39" class="edge">
<title>Node1&#45;&gt;Node20</title>
<path fill="none" stroke="midnightblue" d="M415.7,-348.25C419.34,-340.7 424.49,-330.02 428.93,-320.82"/>
<polygon fill="midnightblue" stroke="midnightblue" points="432.16,-322.17 433.35,-311.64 425.86,-319.13 432.16,-322.17"/>
</g>
<!-- Node21 -->
<g id="node21" class="node">
<title>Node21</title>
<g id="a_node21"><a xlink:href="io_8h.html" target="_top" xlink:title=" ">
<polygon fill="white" stroke="black" points="597,-290.5 597,-311.5 633,-311.5 633,-290.5 597,-290.5"/>
<text text-anchor="middle" x="615" y="-297.9" font-family="DejaVuSans" font-size="12.00">io.h</text>
</a>
</g>
</g>
<!-- Node1&#45;&gt;Node21 -->
<g id="edge43" class="edge">
<title>Node1&#45;&gt;Node21</title>
<path fill="none" stroke="midnightblue" d="M447.21,-348.45C481.67,-339.3 534.95,-325 581,-312 582.91,-311.46 584.88,-310.9 586.86,-310.33"/>
<polygon fill="midnightblue" stroke="midnightblue" points="588.05,-313.63 596.67,-307.47 586.09,-306.91 588.05,-313.63"/>
</g>
<!-- Node5 -->
<g id="node5" class="node">
<title>Node5</title>
<g id="a_node5"><a xlink:href="global_8h.html" target="_top" xlink:title=" ">
<polygon fill="white" stroke="black" points="421,-116.5 421,-137.5 479,-137.5 479,-116.5 421,-116.5"/>
<text text-anchor="middle" x="450" y="-123.9" font-family="DejaVuSans" font-size="12.00">global.h</text>
</a>
</g>
</g>
<!-- Node4&#45;&gt;Node5 -->
<g id="edge4" class="edge">
<title>Node4&#45;&gt;Node5</title>
<path fill="none" stroke="midnightblue" d="M399.63,-174.25C408.55,-166.05 421.49,-154.17 432.02,-144.51"/>
<polygon fill="midnightblue" stroke="midnightblue" points="434.5,-146.98 439.5,-137.64 429.76,-141.83 434.5,-146.98"/>
</g>
<!-- Node6 -->
<g id="node6" class="node">
<title>Node6</title>
<g id="a_node6"><a xlink:href="global__macros_8h.html" target="_top" xlink:title=" ">
<polygon fill="white" stroke="black" points="282,-58.5 282,-79.5 386,-79.5 386,-58.5 282,-58.5"/>
<text text-anchor="middle" x="334" y="-65.9" font-family="DejaVuSans" font-size="12.00">global_macros.h</text>
</a>
</g>
</g>
<!-- Node5&#45;&gt;Node6 -->
<g id="edge5" class="edge">
<title>Node5&#45;&gt;Node6</title>
<path fill="none" stroke="midnightblue" d="M430.06,-116.37C411.52,-107.42 383.7,-93.99 362.76,-83.88"/>
<polygon fill="midnightblue" stroke="midnightblue" points="364.21,-80.7 353.68,-79.5 361.16,-87 364.21,-80.7"/>
</g>
<!-- Node8 -->
<g id="node8" class="node">
<title>Node8</title>
<g id="a_node8"><a xlink:href="global__const_8h.html" target="_top" xlink:title=" ">
<polygon fill="white" stroke="black" points="404.5,-58.5 404.5,-79.5 497.5,-79.5 497.5,-58.5 404.5,-58.5"/>
<text text-anchor="middle" x="451" y="-65.9" font-family="DejaVuSans" font-size="12.00">global_const.h</text>
</a>
</g>
</g>
<!-- Node5&#45;&gt;Node8 -->
<g id="edge7" class="edge">
<title>Node5&#45;&gt;Node8</title>
<path fill="none" stroke="midnightblue" d="M450.17,-116.25C450.3,-108.94 450.49,-98.69 450.65,-89.7"/>
<polygon fill="midnightblue" stroke="midnightblue" points="454.15,-89.7 450.83,-79.64 447.15,-89.58 454.15,-89.7"/>
</g>
<!-- Node9 -->
<g id="node9" class="node">
<title>Node9</title>
<g id="a_node9"><a xlink:href="tex__types_8h.html" target="_top" xlink:title=" ">
<polygon fill="white" stroke="black" points="186.5,-58.5 186.5,-79.5 263.5,-79.5 263.5,-58.5 186.5,-58.5"/>
<text text-anchor="middle" x="225" y="-65.9" font-family="DejaVuSans" font-size="12.00">tex_types.h</text>
</a>
</g>
</g>
<!-- Node5&#45;&gt;Node9 -->
<g id="edge8" class="edge">
<title>Node5&#45;&gt;Node9</title>
<path fill="none" stroke="midnightblue" d="M420.59,-118.68C383.15,-109.36 318,-93.15 273.25,-82.01"/>
<polygon fill="midnightblue" stroke="midnightblue" points="274.01,-78.59 263.46,-79.57 272.32,-85.38 274.01,-78.59"/>
</g>
<!-- Node7 -->
<g id="node7" class="node">
<title>Node7</title>
<g id="a_node7"><a xlink:title=" ">
<polygon fill="white" stroke="#bfbfbf" points="304.5,-0.5 304.5,-21.5 363.5,-21.5 363.5,-0.5 304.5,-0.5"/>
<text text-anchor="middle" x="334" y="-7.9" font-family="DejaVuSans" font-size="12.00">assert.h</text>
</a>
</g>
</g>
<!-- Node6&#45;&gt;Node7 -->
<g id="edge6" class="edge">
<title>Node6&#45;&gt;Node7</title>
<path fill="none" stroke="midnightblue" d="M334,-58.25C334,-50.94 334,-40.69 334,-31.7"/>
<polygon fill="midnightblue" stroke="midnightblue" points="337.5,-31.64 334,-21.64 330.5,-31.64 337.5,-31.64"/>
</g>
<!-- Node10 -->
<g id="node10" class="node">
<title>Node10</title>
<g id="a_node10"><a xlink:title=" ">
<polygon fill="white" stroke="#bfbfbf" points="192.5,-0.5 192.5,-21.5 257.5,-21.5 257.5,-0.5 192.5,-0.5"/>
<text text-anchor="middle" x="225" y="-7.9" font-family="DejaVuSans" font-size="12.00">stdbool.h</text>
</a>
</g>
</g>
<!-- Node9&#45;&gt;Node10 -->
<g id="edge9" class="edge">
<title>Node9&#45;&gt;Node10</title>
<path fill="none" stroke="midnightblue" d="M225,-58.25C225,-50.94 225,-40.69 225,-31.7"/>
<polygon fill="midnightblue" stroke="midnightblue" points="228.5,-31.64 225,-21.64 221.5,-31.64 228.5,-31.64"/>
</g>
<!-- Node11 -->
<g id="node11" class="node">
<title>Node11</title>
<g id="a_node11"><a xlink:title=" ">
<polygon fill="white" stroke="#bfbfbf" points="439.5,-0.5 439.5,-21.5 494.5,-21.5 494.5,-0.5 439.5,-0.5"/>
<text text-anchor="middle" x="467" y="-7.9" font-family="DejaVuSans" font-size="12.00">stdint.h</text>
</a>
</g>
</g>
<!-- Node9&#45;&gt;Node11 -->
<g id="edge10" class="edge">
<title>Node9&#45;&gt;Node11</title>
<path fill="none" stroke="midnightblue" d="M263.61,-59.06C309.17,-48.52 384.41,-31.11 429.48,-20.68"/>
<polygon fill="midnightblue" stroke="midnightblue" points="430.48,-24.04 439.44,-18.38 428.91,-17.22 430.48,-24.04"/>
</g>
<!-- Node12&#45;&gt;Node4 -->
<g id="edge15" class="edge">
<title>Node12&#45;&gt;Node4</title>
<path fill="none" stroke="midnightblue" d="M479.01,-232.25C461.82,-223.41 436.28,-210.29 416.79,-200.28"/>
<polygon fill="midnightblue" stroke="midnightblue" points="418.26,-197.1 407.77,-195.64 415.06,-203.33 418.26,-197.1"/>
</g>
<!-- Node12&#45;&gt;Node5 -->
<g id="edge14" class="edge">
<title>Node12&#45;&gt;Node5</title>
<path fill="none" stroke="midnightblue" d="M493.91,-232.28C485.97,-213.43 468.37,-171.62 458.02,-147.05"/>
<polygon fill="midnightblue" stroke="midnightblue" points="461.19,-145.55 454.08,-137.69 454.74,-148.27 461.19,-145.55"/>
</g>
<!-- Node12&#45;&gt;Node11 -->
<g id="edge13" class="edge">
<title>Node12&#45;&gt;Node11</title>
<path fill="none" stroke="midnightblue" d="M500.92,-232.42C508.93,-204.47 529.13,-121.04 506,-58 501.94,-46.94 493.92,-36.72 486.2,-28.73"/>
<polygon fill="midnightblue" stroke="midnightblue" points="488.37,-25.96 478.74,-21.55 483.51,-31 488.37,-25.96"/>
</g>
<!-- Node13 -->
<g id="node13" class="node">
<title>Node13</title>
<g id="a_node13"><a xlink:title=" ">
<polygon fill="white" stroke="#bfbfbf" points="605,-174.5 605,-195.5 657,-195.5 657,-174.5 605,-174.5"/>
<text text-anchor="middle" x="631" y="-181.9" font-family="DejaVuSans" font-size="12.00">stdio.h</text>
</a>
</g>
</g>
<!-- Node12&#45;&gt;Node13 -->
<g id="edge12" class="edge">
<title>Node12&#45;&gt;Node13</title>
<path fill="none" stroke="midnightblue" d="M517.62,-233.74C539.02,-224.73 573.6,-210.17 598.95,-199.49"/>
<polygon fill="midnightblue" stroke="midnightblue" points="600.31,-202.72 608.17,-195.61 597.59,-196.27 600.31,-202.72"/>
</g>
<!-- Node14&#45;&gt;Node3 -->
<g id="edge20" class="edge">
<title>Node14&#45;&gt;Node3</title>
<path fill="none" stroke="midnightblue" d="M253.07,-290.33C241.92,-281.6 225.8,-268.01 214,-254 201.07,-238.65 189.35,-218.94 181.59,-204.7"/>
<polygon fill="midnightblue" stroke="midnightblue" points="184.67,-203.03 176.89,-195.83 178.48,-206.3 184.67,-203.03"/>
</g>
<!-- Node14&#45;&gt;Node4 -->
<g id="edge19" class="edge">
<title>Node14&#45;&gt;Node4</title>
<path fill="none" stroke="midnightblue" d="M267.02,-290.47C269.01,-276.12 274.68,-248.86 290,-232 305.05,-215.44 327.27,-204.37 346.85,-197.25"/>
<polygon fill="midnightblue" stroke="midnightblue" points="348.16,-200.5 356.5,-193.97 345.91,-193.88 348.16,-200.5"/>
</g>
<!-- Node14&#45;&gt;Node5 -->
<g id="edge18" class="edge">
<title>Node14&#45;&gt;Node5</title>
<path fill="none" stroke="midnightblue" d="M264.84,-290.13C263.67,-276.29 263.25,-250.74 273,-232 300.63,-178.91 368.17,-150.72 411.37,-137.61"/>
<polygon fill="midnightblue" stroke="midnightblue" points="412.37,-140.96 420.99,-134.81 410.42,-134.24 412.37,-140.96"/>
</g>
<!-- Node14&#45;&gt;Node12 -->
<g id="edge24" class="edge">
<title>Node14&#45;&gt;Node12</title>
<path fill="none" stroke="midnightblue" d="M291.27,-293.9C334.52,-283.46 422.53,-262.22 468.51,-251.12"/>
<polygon fill="midnightblue" stroke="midnightblue" points="469.55,-254.47 478.45,-248.72 467.91,-247.66 469.55,-254.47"/>
</g>
<!-- Node14&#45;&gt;Node13 -->
<g id="edge17" class="edge">
<title>Node14&#45;&gt;Node13</title>
<path fill="none" stroke="midnightblue" d="M276.14,-290.3C292.55,-275.21 326.55,-246.36 361,-232 440.04,-199.05 541.49,-189.69 594.71,-187.04"/>
<polygon fill="midnightblue" stroke="midnightblue" points="595.16,-190.53 605,-186.59 594.85,-183.53 595.16,-190.53"/>
</g>
<!-- Node14&#45;&gt;Node15 -->
<g id="edge21" class="edge">
<title>Node14&#45;&gt;Node15</title>
<path fill="none" stroke="midnightblue" d="M243.82,-290.37C223.02,-281.34 191.71,-267.75 168.35,-257.61"/>
<polygon fill="midnightblue" stroke="midnightblue" points="169.45,-254.27 158.89,-253.5 166.67,-260.69 169.45,-254.27"/>
</g>
<!-- Node15&#45;&gt;Node3 -->
<g id="edge23" class="edge">
<title>Node15&#45;&gt;Node3</title>
<path fill="none" stroke="midnightblue" d="M143.1,-232.25C147.91,-224.54 154.78,-213.56 160.6,-204.23"/>
<polygon fill="midnightblue" stroke="midnightblue" points="163.64,-205.98 165.97,-195.64 157.71,-202.27 163.64,-205.98"/>
</g>
<!-- Node15&#45;&gt;Node5 -->
<g id="edge22" class="edge">
<title>Node15&#45;&gt;Node5</title>
<path fill="none" stroke="midnightblue" d="M129.05,-232.49C118.07,-218.17 101.22,-190.95 116,-174 153.82,-130.61 330.66,-126.74 410.59,-127.28"/>
<polygon fill="midnightblue" stroke="midnightblue" points="410.72,-130.78 420.75,-127.37 410.78,-123.78 410.72,-130.78"/>
</g>
<!-- Node16&#45;&gt;Node5 -->
<g id="edge28" class="edge">
<title>Node16&#45;&gt;Node5</title>
<path fill="none" stroke="midnightblue" d="M755.21,-232.27C748.79,-217.14 734.23,-188.25 712,-174 675.72,-150.75 553.11,-136.95 489.31,-131.18"/>
<polygon fill="midnightblue" stroke="midnightblue" points="489.5,-127.69 479.23,-130.29 488.89,-134.66 489.5,-127.69"/>
</g>
<!-- Node16&#45;&gt;Node13 -->
<g id="edge27" class="edge">
<title>Node16&#45;&gt;Node13</title>
<path fill="none" stroke="midnightblue" d="M737,-232.37C716.36,-223.34 685.28,-209.75 662.11,-199.61"/>
<polygon fill="midnightblue" stroke="midnightblue" points="663.28,-196.3 652.72,-195.5 660.48,-202.72 663.28,-196.3"/>
</g>
<!-- Node17&#45;&gt;Node5 -->
<g id="edge30" class="edge">
<title>Node17&#45;&gt;Node5</title>
<path fill="none" stroke="midnightblue" d="M544.33,-290.43C541.76,-276.95 536.14,-251.81 527,-232 511.44,-198.26 483.85,-164.71 466.27,-145.19"/>
<polygon fill="midnightblue" stroke="midnightblue" points="468.75,-142.72 459.41,-137.72 463.59,-147.45 468.75,-142.72"/>
</g>
<!-- Node17&#45;&gt;Node12 -->
<g id="edge31" class="edge">
<title>Node17&#45;&gt;Node12</title>
<path fill="none" stroke="midnightblue" d="M537.64,-290.25C530.82,-282.3 521.03,-270.87 512.88,-261.37"/>
<polygon fill="midnightblue" stroke="midnightblue" points="515.43,-258.96 506.27,-253.64 510.12,-263.51 515.43,-258.96"/>
</g>
<!-- Node18&#45;&gt;Node3 -->
<g id="edge35" class="edge">
<title>Node18&#45;&gt;Node3</title>
<path fill="none" stroke="midnightblue" d="M369.87,-235.47C333.2,-226.3 265.86,-209.46 220.02,-198.01"/>
<polygon fill="midnightblue" stroke="midnightblue" points="220.85,-194.61 210.3,-195.58 219.15,-201.4 220.85,-194.61"/>
</g>
<!-- Node18&#45;&gt;Node5 -->
<g id="edge34" class="edge">
<title>Node18&#45;&gt;Node5</title>
<path fill="none" stroke="midnightblue" d="M380.23,-232.3C361.13,-219.3 333.14,-195.36 347,-174 361.11,-152.24 388.18,-140.69 411.02,-134.6"/>
<polygon fill="midnightblue" stroke="midnightblue" points="411.93,-137.98 420.83,-132.24 410.29,-131.18 411.93,-137.98"/>
</g>
<!-- Node18&#45;&gt;Node13 -->
<g id="edge33" class="edge">
<title>Node18&#45;&gt;Node13</title>
<path fill="none" stroke="midnightblue" d="M422.05,-235.79C464.13,-225.76 547.18,-205.98 594.93,-194.6"/>
<polygon fill="midnightblue" stroke="midnightblue" points="595.92,-197.96 604.84,-192.23 594.3,-191.15 595.92,-197.96"/>
</g>
<!-- Node19&#45;&gt;Node5 -->
<g id="edge38" class="edge">
<title>Node19&#45;&gt;Node5</title>
<path fill="none" stroke="midnightblue" d="M827.11,-232.28C809.53,-217.16 773.18,-188.27 737,-174 652.99,-140.86 546.18,-131.57 489.5,-128.99"/>
<polygon fill="midnightblue" stroke="midnightblue" points="489.32,-125.48 479.19,-128.57 489.04,-132.47 489.32,-125.48"/>
</g>
<!-- Node19&#45;&gt;Node13 -->
<g id="edge37" class="edge">
<title>Node19&#45;&gt;Node13</title>
<path fill="none" stroke="midnightblue" d="M809.65,-234.33C772.5,-224.28 707.3,-206.64 666.79,-195.68"/>
<polygon fill="midnightblue" stroke="midnightblue" points="667.62,-192.28 657.05,-193.05 665.79,-199.04 667.62,-192.28"/>
</g>
<!-- Node20&#45;&gt;Node5 -->
<g id="edge40" class="edge">
<title>Node20&#45;&gt;Node5</title>
<path fill="none" stroke="midnightblue" d="M438.68,-290.26C440.59,-262.82 446.06,-184.51 448.63,-147.64"/>
<polygon fill="midnightblue" stroke="midnightblue" points="452.12,-147.85 449.33,-137.63 445.14,-147.37 452.12,-147.85"/>
</g>
<!-- Node20&#45;&gt;Node12 -->
<g id="edge42" class="edge">
<title>Node20&#45;&gt;Node12</title>
<path fill="none" stroke="midnightblue" d="M448.45,-290.25C457.23,-282.05 469.96,-270.17 480.31,-260.51"/>
<polygon fill="midnightblue" stroke="midnightblue" points="482.75,-263.02 487.67,-253.64 477.97,-257.91 482.75,-263.02"/>
</g>
<!-- Node20&#45;&gt;Node18 -->
<g id="edge41" class="edge">
<title>Node20&#45;&gt;Node18</title>
<path fill="none" stroke="midnightblue" d="M430.68,-290.25C424.78,-282.38 416.33,-271.1 409.24,-261.65"/>
<polygon fill="midnightblue" stroke="midnightblue" points="412.03,-259.54 403.23,-253.64 406.43,-263.74 412.03,-259.54"/>
</g>
<!-- Node21&#45;&gt;Node3 -->
<g id="edge46" class="edge">
<title>Node21&#45;&gt;Node3</title>
<path fill="none" stroke="midnightblue" d="M605.82,-290.12C590.92,-274.79 559.81,-245.62 527,-232 474.46,-210.2 315.54,-196.05 229.24,-189.76"/>
<polygon fill="midnightblue" stroke="midnightblue" points="229.31,-186.26 219.09,-189.04 228.81,-193.24 229.31,-186.26"/>
</g>
<!-- Node21&#45;&gt;Node4 -->
<g id="edge47" class="edge">
<title>Node21&#45;&gt;Node4</title>
<path fill="none" stroke="midnightblue" d="M615.54,-290.11C615.77,-275.29 613.88,-247.44 598,-232 574.72,-209.37 485.85,-196.2 431.77,-190.12"/>
<polygon fill="midnightblue" stroke="midnightblue" points="432.1,-186.64 421.78,-189.04 431.34,-193.6 432.1,-186.64"/>
</g>
<!-- Node21&#45;&gt;Node5 -->
<g id="edge45" class="edge">
<title>Node21&#45;&gt;Node5</title>
<path fill="none" stroke="midnightblue" d="M624.85,-290.49C646.9,-268.08 695.99,-211.05 666,-174 644.24,-147.12 545.91,-135.28 489.72,-130.63"/>
<polygon fill="midnightblue" stroke="midnightblue" points="489.65,-127.12 479.41,-129.82 489.1,-134.1 489.65,-127.12"/>
</g>
<!-- Node21&#45;&gt;Node12 -->
<g id="edge48" class="edge">
<title>Node21&#45;&gt;Node12</title>
<path fill="none" stroke="midnightblue" d="M596.98,-291.37C578.33,-282.45 548.91,-268.37 526.99,-257.87"/>
<polygon fill="midnightblue" stroke="midnightblue" points="528.34,-254.64 517.81,-253.48 525.32,-260.95 528.34,-254.64"/>
</g>
<!-- Node21&#45;&gt;Node13 -->
<g id="edge44" class="edge">
<title>Node21&#45;&gt;Node13</title>
<path fill="none" stroke="midnightblue" d="M620.98,-290.2C626.11,-281.17 633.13,-267.21 636,-254 639.46,-238.1 637.76,-219.66 635.45,-206"/>
<polygon fill="midnightblue" stroke="midnightblue" points="638.81,-204.95 633.46,-195.81 631.94,-206.29 638.81,-204.95"/>
</g>
</g>
</svg>
