<?xml version="1.0" encoding="UTF-8" standalone="no"?>
<!DOCTYPE svg PUBLIC "-//W3C//DTD SVG 1.1//EN"
 "http://www.w3.org/Graphics/SVG/1.1/DTD/svg11.dtd">
<!-- Generated by graphviz version 2.42.3 ()
 -->
<!-- Title: lexer.c Pages: 1 -->
<svg width="854pt" height="262pt"
 viewBox="0.00 0.00 853.50 262.00" xmlns="http://www.w3.org/2000/svg" xmlns:xlink="http://www.w3.org/1999/xlink">
<g id="graph0" class="graph" transform="scale(1 1) rotate(0) translate(4 258)">
<title>lexer.c</title>
<polygon fill="white" stroke="transparent" points="-4,4 -4,-258 849.5,-258 849.5,4 -4,4"/>
<!-- Node1 -->
<g id="node1" class="node">
<title>Node1</title>
<g id="a_node1"><a xlink:title=" ">
<polygon fill="#bfbfbf" stroke="black" points="401,-232.5 401,-253.5 452,-253.5 452,-232.5 401,-232.5"/>
<text text-anchor="middle" x="426.5" y="-239.9" font-family="DejaVuSans" font-size="12.00">lexer.c</text>
</a>
</g>
</g>
<!-- Node2 -->
<g id="node2" class="node">
<title>Node2</title>
<g id="a_node2"><a xlink:href="print_8h.html" target="_top" xlink:title=" ">
<polygon fill="white" stroke="black" points="97.5,-174.5 97.5,-195.5 147.5,-195.5 147.5,-174.5 97.5,-174.5"/>
<text text-anchor="middle" x="122.5" y="-181.9" font-family="DejaVuSans" font-size="12.00">print.h</text>
</a>
</g>
</g>
<!-- Node1&#45;&gt;Node2 -->
<g id="edge1" class="edge">
<title>Node1&#45;&gt;Node2</title>
<path fill="none" stroke="midnightblue" d="M400.99,-238.67C354.45,-232.38 252.51,-217.61 157.43,-196.01"/>
<polygon fill="midnightblue" stroke="midnightblue" points="158.19,-192.59 147.66,-193.76 156.62,-199.41 158.19,-192.59"/>
</g>
<!-- Node13 -->
<g id="node13" class="node">
<title>Node13</title>
<g id="a_node13"><a xlink:href="global_8h.html" target="_top" xlink:title=" ">
<polygon fill="white" stroke="black" points="357.5,-174.5 357.5,-195.5 415.5,-195.5 415.5,-174.5 357.5,-174.5"/>
<text text-anchor="middle" x="386.5" y="-181.9" font-family="DejaVuSans" font-size="12.00">global.h</text>
</a>
</g>
</g>
<!-- Node1&#45;&gt;Node13 -->
<g id="edge14" class="edge">
<title>Node1&#45;&gt;Node13</title>
<path fill="none" stroke="midnightblue" d="M419.53,-232.25C413.97,-224.46 406.02,-213.33 399.32,-203.94"/>
<polygon fill="midnightblue" stroke="midnightblue" points="402.05,-201.75 393.39,-195.64 396.35,-205.81 402.05,-201.75"/>
</g>
<!-- Node15 -->
<g id="node15" class="node">
<title>Node15</title>
<g id="a_node15"><a xlink:href="texfunc_8h.html" target="_top" xlink:title=" ">
<polygon fill="white" stroke="black" points="274,-174.5 274,-195.5 339,-195.5 339,-174.5 274,-174.5"/>
<text text-anchor="middle" x="306.5" y="-181.9" font-family="DejaVuSans" font-size="12.00">texfunc.h</text>
</a>
</g>
</g>
<!-- Node1&#45;&gt;Node15 -->
<g id="edge17" class="edge">
<title>Node1&#45;&gt;Node15</title>
<path fill="none" stroke="midnightblue" d="M405.87,-232.37C386.61,-223.38 357.65,-209.87 335.96,-199.75"/>
<polygon fill="midnightblue" stroke="midnightblue" points="337.4,-196.56 326.86,-195.5 334.44,-202.9 337.4,-196.56"/>
</g>
<!-- Node16 -->
<g id="node16" class="node">
<title>Node16</title>
<g id="a_node16"><a xlink:href="printout_8h.html" target="_top" xlink:title=" ">
<polygon fill="white" stroke="black" points="433.5,-174.5 433.5,-195.5 499.5,-195.5 499.5,-174.5 433.5,-174.5"/>
<text text-anchor="middle" x="466.5" y="-181.9" font-family="DejaVuSans" font-size="12.00">printout.h</text>
</a>
</g>
</g>
<!-- Node1&#45;&gt;Node16 -->
<g id="edge19" class="edge">
<title>Node1&#45;&gt;Node16</title>
<path fill="none" stroke="midnightblue" d="M433.47,-232.25C439.03,-224.46 446.98,-213.33 453.68,-203.94"/>
<polygon fill="midnightblue" stroke="midnightblue" points="456.65,-205.81 459.61,-195.64 450.95,-201.75 456.65,-205.81"/>
</g>
<!-- Node17 -->
<g id="node17" class="node">
<title>Node17</title>
<g id="a_node17"><a xlink:href="pure__func_8h.html" target="_top" xlink:title=" ">
<polygon fill="white" stroke="black" points="517.5,-174.5 517.5,-195.5 597.5,-195.5 597.5,-174.5 517.5,-174.5"/>
<text text-anchor="middle" x="557.5" y="-181.9" font-family="DejaVuSans" font-size="12.00">pure_func.h</text>
</a>
</g>
</g>
<!-- Node1&#45;&gt;Node17 -->
<g id="edge20" class="edge">
<title>Node1&#45;&gt;Node17</title>
<path fill="none" stroke="midnightblue" d="M449.02,-232.37C470.24,-223.3 502.23,-209.63 525.98,-199.48"/>
<polygon fill="midnightblue" stroke="midnightblue" points="527.45,-202.65 535.27,-195.5 524.7,-196.21 527.45,-202.65"/>
</g>
<!-- Node18 -->
<g id="node18" class="node">
<title>Node18</title>
<g id="a_node18"><a xlink:href="macros_8h.html" target="_top" xlink:title=" ">
<polygon fill="white" stroke="black" points="616,-174.5 616,-195.5 681,-195.5 681,-174.5 616,-174.5"/>
<text text-anchor="middle" x="648.5" y="-181.9" font-family="DejaVuSans" font-size="12.00">macros.h</text>
</a>
</g>
</g>
<!-- Node1&#45;&gt;Node18 -->
<g id="edge21" class="edge">
<title>Node1&#45;&gt;Node18</title>
<path fill="none" stroke="midnightblue" d="M452.4,-235.47C490.15,-225.94 560.72,-208.14 606.1,-196.69"/>
<polygon fill="midnightblue" stroke="midnightblue" points="607.11,-200.05 615.95,-194.21 605.39,-193.26 607.11,-200.05"/>
</g>
<!-- Node19 -->
<g id="node19" class="node">
<title>Node19</title>
<g id="a_node19"><a xlink:href="inputln_8h.html" target="_top" xlink:title=" ">
<polygon fill="white" stroke="black" points="699.5,-174.5 699.5,-195.5 761.5,-195.5 761.5,-174.5 699.5,-174.5"/>
<text text-anchor="middle" x="730.5" y="-181.9" font-family="DejaVuSans" font-size="12.00">inputln.h</text>
</a>
</g>
</g>
<!-- Node1&#45;&gt;Node19 -->
<g id="edge22" class="edge">
<title>Node1&#45;&gt;Node19</title>
<path fill="none" stroke="midnightblue" d="M452.1,-238.17C497.78,-231.2 596.51,-215.53 689.28,-196.15"/>
<polygon fill="midnightblue" stroke="midnightblue" points="690.04,-199.56 699.11,-194.08 688.6,-192.72 690.04,-199.56"/>
</g>
<!-- Node20 -->
<g id="node20" class="node">
<title>Node20</title>
<g id="a_node20"><a xlink:href="funcs_8h.html" target="_top" xlink:title=" ">
<polygon fill="white" stroke="black" points="220,-116.5 220,-137.5 275,-137.5 275,-116.5 220,-116.5"/>
<text text-anchor="middle" x="247.5" y="-123.9" font-family="DejaVuSans" font-size="12.00">funcs.h</text>
</a>
</g>
</g>
<!-- Node1&#45;&gt;Node20 -->
<g id="edge23" class="edge">
<title>Node1&#45;&gt;Node20</title>
<path fill="none" stroke="midnightblue" d="M400.93,-242.21C365.25,-241.06 300.81,-233.48 264.5,-196 252.22,-183.32 248.4,-163.19 247.39,-148.11"/>
<polygon fill="midnightblue" stroke="midnightblue" points="250.88,-147.66 247.08,-137.77 243.88,-147.88 250.88,-147.66"/>
</g>
<!-- Node21 -->
<g id="node21" class="node">
<title>Node21</title>
<g id="a_node21"><a xlink:href="expand_8h.html" target="_top" xlink:title=" ">
<polygon fill="white" stroke="black" points="779.5,-174.5 779.5,-195.5 845.5,-195.5 845.5,-174.5 779.5,-174.5"/>
<text text-anchor="middle" x="812.5" y="-181.9" font-family="DejaVuSans" font-size="12.00">expand.h</text>
</a>
</g>
</g>
<!-- Node1&#45;&gt;Node21 -->
<g id="edge25" class="edge">
<title>Node1&#45;&gt;Node21</title>
<path fill="none" stroke="midnightblue" d="M452.1,-239.47C507.91,-233.76 644.83,-218.74 769.03,-196.13"/>
<polygon fill="midnightblue" stroke="midnightblue" points="769.89,-199.53 779.09,-194.27 768.63,-192.64 769.89,-199.53"/>
</g>
<!-- Node22 -->
<g id="node22" class="node">
<title>Node22</title>
<g id="a_node22"><a xlink:href="lexer_8h.html" target="_top" xlink:title=" ">
<polygon fill="white" stroke="black" points="165.5,-174.5 165.5,-195.5 217.5,-195.5 217.5,-174.5 165.5,-174.5"/>
<text text-anchor="middle" x="191.5" y="-181.9" font-family="DejaVuSans" font-size="12.00">lexer.h</text>
</a>
</g>
</g>
<!-- Node1&#45;&gt;Node22 -->
<g id="edge26" class="edge">
<title>Node1&#45;&gt;Node22</title>
<path fill="none" stroke="midnightblue" d="M400.92,-236.08C363.63,-227.42 292.17,-210.74 231.5,-196 230.25,-195.7 228.97,-195.38 227.69,-195.07"/>
<polygon fill="midnightblue" stroke="midnightblue" points="228.29,-191.61 217.74,-192.61 226.61,-198.41 228.29,-191.61"/>
</g>
<!-- Node3 -->
<g id="node3" class="node">
<title>Node3</title>
<g id="a_node3"><a xlink:href="tex__types_8h.html" target="_top" xlink:title=" ">
<polygon fill="white" stroke="black" points="20,-58.5 20,-79.5 97,-79.5 97,-58.5 20,-58.5"/>
<text text-anchor="middle" x="58.5" y="-65.9" font-family="DejaVuSans" font-size="12.00">tex_types.h</text>
</a>
</g>
</g>
<!-- Node2&#45;&gt;Node3 -->
<g id="edge2" class="edge">
<title>Node2&#45;&gt;Node3</title>
<path fill="none" stroke="midnightblue" d="M117.04,-174.28C106.42,-155.35 82.78,-113.25 69.01,-88.72"/>
<polygon fill="midnightblue" stroke="midnightblue" points="71.89,-86.7 63.94,-79.69 65.79,-90.13 71.89,-86.7"/>
</g>
<!-- Node6 -->
<g id="node6" class="node">
<title>Node6</title>
<g id="a_node6"><a xlink:href="tex_8h.html" target="_top" xlink:title=" ">
<polygon fill="white" stroke="black" points="121.5,-116.5 121.5,-137.5 163.5,-137.5 163.5,-116.5 121.5,-116.5"/>
<text text-anchor="middle" x="142.5" y="-123.9" font-family="DejaVuSans" font-size="12.00">tex.h</text>
</a>
</g>
</g>
<!-- Node2&#45;&gt;Node6 -->
<g id="edge5" class="edge">
<title>Node2&#45;&gt;Node6</title>
<path fill="none" stroke="midnightblue" d="M125.98,-174.25C128.65,-166.78 132.41,-156.24 135.67,-147.11"/>
<polygon fill="midnightblue" stroke="midnightblue" points="138.99,-148.24 139.06,-137.64 132.4,-145.88 138.99,-148.24"/>
</g>
<!-- Node8 -->
<g id="node8" class="node">
<title>Node8</title>
<g id="a_node8"><a xlink:href="texmac_8h.html" target="_top" xlink:title=" ">
<polygon fill="white" stroke="black" points="0,-116.5 0,-137.5 65,-137.5 65,-116.5 0,-116.5"/>
<text text-anchor="middle" x="32.5" y="-123.9" font-family="DejaVuSans" font-size="12.00">texmac.h</text>
</a>
</g>
</g>
<!-- Node2&#45;&gt;Node8 -->
<g id="edge8" class="edge">
<title>Node2&#45;&gt;Node8</title>
<path fill="none" stroke="midnightblue" d="M106.82,-174.25C93.01,-165.65 72.68,-153 56.77,-143.1"/>
<polygon fill="midnightblue" stroke="midnightblue" points="58.34,-139.95 48,-137.64 54.64,-145.9 58.34,-139.95"/>
</g>
<!-- Node9 -->
<g id="node9" class="node">
<title>Node9</title>
<g id="a_node9"><a xlink:href="str_8h.html" target="_top" xlink:title=" ">
<polygon fill="white" stroke="black" points="293,-116.5 293,-137.5 332,-137.5 332,-116.5 293,-116.5"/>
<text text-anchor="middle" x="312.5" y="-123.9" font-family="DejaVuSans" font-size="12.00">str.h</text>
</a>
</g>
</g>
<!-- Node2&#45;&gt;Node9 -->
<g id="edge9" class="edge">
<title>Node2&#45;&gt;Node9</title>
<path fill="none" stroke="midnightblue" d="M147.74,-176.55C150.69,-175.68 153.66,-174.82 156.5,-174 210,-158.55 225.93,-155.82 283.32,-137.93"/>
<polygon fill="midnightblue" stroke="midnightblue" points="284.4,-141.26 292.89,-134.93 282.3,-134.58 284.4,-141.26"/>
</g>
<!-- Node4 -->
<g id="node4" class="node">
<title>Node4</title>
<g id="a_node4"><a xlink:title=" ">
<polygon fill="white" stroke="#bfbfbf" points="26,-0.5 26,-21.5 91,-21.5 91,-0.5 26,-0.5"/>
<text text-anchor="middle" x="58.5" y="-7.9" font-family="DejaVuSans" font-size="12.00">stdbool.h</text>
</a>
</g>
</g>
<!-- Node3&#45;&gt;Node4 -->
<g id="edge3" class="edge">
<title>Node3&#45;&gt;Node4</title>
<path fill="none" stroke="midnightblue" d="M58.5,-58.25C58.5,-50.94 58.5,-40.69 58.5,-31.7"/>
<polygon fill="midnightblue" stroke="midnightblue" points="62,-31.64 58.5,-21.64 55,-31.64 62,-31.64"/>
</g>
<!-- Node5 -->
<g id="node5" class="node">
<title>Node5</title>
<g id="a_node5"><a xlink:title=" ">
<polygon fill="white" stroke="#bfbfbf" points="195,-0.5 195,-21.5 250,-21.5 250,-0.5 195,-0.5"/>
<text text-anchor="middle" x="222.5" y="-7.9" font-family="DejaVuSans" font-size="12.00">stdint.h</text>
</a>
</g>
</g>
<!-- Node3&#45;&gt;Node5 -->
<g id="edge4" class="edge">
<title>Node3&#45;&gt;Node5</title>
<path fill="none" stroke="midnightblue" d="M86.69,-58.37C113.93,-49.07 155.34,-34.93 185.27,-24.71"/>
<polygon fill="midnightblue" stroke="midnightblue" points="186.62,-27.95 194.95,-21.41 184.35,-21.33 186.62,-27.95"/>
</g>
<!-- Node6&#45;&gt;Node3 -->
<g id="edge6" class="edge">
<title>Node6&#45;&gt;Node3</title>
<path fill="none" stroke="midnightblue" d="M127.87,-116.25C115.1,-107.73 96.36,-95.24 81.57,-85.38"/>
<polygon fill="midnightblue" stroke="midnightblue" points="83.23,-82.28 72.96,-79.64 79.34,-88.1 83.23,-82.28"/>
</g>
<!-- Node7 -->
<g id="node7" class="node">
<title>Node7</title>
<g id="a_node7"><a xlink:href="tex__constant_8h.html" target="_top" xlink:title=" ">
<polygon fill="white" stroke="black" points="115.5,-58.5 115.5,-79.5 209.5,-79.5 209.5,-58.5 115.5,-58.5"/>
<text text-anchor="middle" x="162.5" y="-65.9" font-family="DejaVuSans" font-size="12.00">tex_constant.h</text>
</a>
</g>
</g>
<!-- Node6&#45;&gt;Node7 -->
<g id="edge7" class="edge">
<title>Node6&#45;&gt;Node7</title>
<path fill="none" stroke="midnightblue" d="M145.98,-116.25C148.65,-108.78 152.41,-98.24 155.67,-89.11"/>
<polygon fill="midnightblue" stroke="midnightblue" points="158.99,-90.24 159.06,-79.64 152.4,-87.88 158.99,-90.24"/>
</g>
<!-- Node9&#45;&gt;Node5 -->
<g id="edge11" class="edge">
<title>Node9&#45;&gt;Node5</title>
<path fill="none" stroke="midnightblue" d="M311.02,-116.32C308.47,-102.26 302.15,-75.93 288.5,-58 278.7,-45.12 264.25,-34.48 251.36,-26.68"/>
<polygon fill="midnightblue" stroke="midnightblue" points="252.77,-23.45 242.35,-21.52 249.29,-29.53 252.77,-23.45"/>
</g>
<!-- Node10 -->
<g id="node10" class="node">
<title>Node10</title>
<g id="a_node10"><a xlink:title=" ">
<polygon fill="white" stroke="#bfbfbf" points="227.5,-58.5 227.5,-79.5 279.5,-79.5 279.5,-58.5 227.5,-58.5"/>
<text text-anchor="middle" x="253.5" y="-65.9" font-family="DejaVuSans" font-size="12.00">stdio.h</text>
</a>
</g>
</g>
<!-- Node9&#45;&gt;Node10 -->
<g id="edge10" class="edge">
<title>Node9&#45;&gt;Node10</title>
<path fill="none" stroke="midnightblue" d="M302.22,-116.25C293.68,-108.14 281.32,-96.41 271.19,-86.79"/>
<polygon fill="midnightblue" stroke="midnightblue" points="273.32,-83.99 263.66,-79.64 268.5,-89.07 273.32,-83.99"/>
</g>
<!-- Node11 -->
<g id="node11" class="node">
<title>Node11</title>
<g id="a_node11"><a xlink:href="global__const_8h.html" target="_top" xlink:title=" ">
<polygon fill="white" stroke="black" points="336,-58.5 336,-79.5 429,-79.5 429,-58.5 336,-58.5"/>
<text text-anchor="middle" x="382.5" y="-65.9" font-family="DejaVuSans" font-size="12.00">global_const.h</text>
</a>
</g>
</g>
<!-- Node9&#45;&gt;Node11 -->
<g id="edge12" class="edge">
<title>Node9&#45;&gt;Node11</title>
<path fill="none" stroke="midnightblue" d="M324.69,-116.25C335.13,-107.89 350.37,-95.71 362.57,-85.94"/>
<polygon fill="midnightblue" stroke="midnightblue" points="364.82,-88.62 370.45,-79.64 360.45,-83.16 364.82,-88.62"/>
</g>
<!-- Node12 -->
<g id="node12" class="node">
<title>Node12</title>
<g id="a_node12"><a xlink:title=" ">
<polygon fill="white" stroke="#bfbfbf" points="353,-0.5 353,-21.5 412,-21.5 412,-0.5 353,-0.5"/>
<text text-anchor="middle" x="382.5" y="-7.9" font-family="DejaVuSans" font-size="12.00">assert.h</text>
</a>
</g>
</g>
<!-- Node11&#45;&gt;Node12 -->
<g id="edge13" class="edge">
<title>Node11&#45;&gt;Node12</title>
<path fill="none" stroke="midnightblue" d="M382.5,-58.25C382.5,-50.94 382.5,-40.69 382.5,-31.7"/>
<polygon fill="midnightblue" stroke="midnightblue" points="386,-31.64 382.5,-21.64 379,-31.64 386,-31.64"/>
</g>
<!-- Node13&#45;&gt;Node9 -->
<g id="edge16" class="edge">
<title>Node13&#45;&gt;Node9</title>
<path fill="none" stroke="midnightblue" d="M373.61,-174.25C362.57,-165.89 346.47,-153.71 333.56,-143.94"/>
<polygon fill="midnightblue" stroke="midnightblue" points="335.33,-140.89 325.24,-137.64 331.1,-146.47 335.33,-140.89"/>
</g>
<!-- Node14 -->
<g id="node14" class="node">
<title>Node14</title>
<g id="a_node14"><a xlink:title=" ">
<polygon fill="white" stroke="#bfbfbf" points="355.5,-116.5 355.5,-137.5 417.5,-137.5 417.5,-116.5 355.5,-116.5"/>
<text text-anchor="middle" x="386.5" y="-123.9" font-family="DejaVuSans" font-size="12.00">setjmp.h</text>
</a>
</g>
</g>
<!-- Node13&#45;&gt;Node14 -->
<g id="edge15" class="edge">
<title>Node13&#45;&gt;Node14</title>
<path fill="none" stroke="midnightblue" d="M386.5,-174.25C386.5,-166.94 386.5,-156.69 386.5,-147.7"/>
<polygon fill="midnightblue" stroke="midnightblue" points="390,-147.64 386.5,-137.64 383,-147.64 390,-147.64"/>
</g>
<!-- Node15&#45;&gt;Node9 -->
<g id="edge18" class="edge">
<title>Node15&#45;&gt;Node9</title>
<path fill="none" stroke="midnightblue" d="M307.55,-174.25C308.33,-166.94 309.43,-156.69 310.39,-147.7"/>
<polygon fill="midnightblue" stroke="midnightblue" points="313.88,-147.96 311.47,-137.64 306.92,-147.21 313.88,-147.96"/>
</g>
<!-- Node20&#45;&gt;Node10 -->
<g id="edge24" class="edge">
<title>Node20&#45;&gt;Node10</title>
<path fill="none" stroke="midnightblue" d="M248.55,-116.25C249.33,-108.94 250.43,-98.69 251.39,-89.7"/>
<polygon fill="midnightblue" stroke="midnightblue" points="254.88,-89.96 252.47,-79.64 247.92,-89.21 254.88,-89.96"/>
</g>
<!-- Node22&#45;&gt;Node6 -->
<g id="edge28" class="edge">
<title>Node22&#45;&gt;Node6</title>
<path fill="none" stroke="midnightblue" d="M182.96,-174.25C176.01,-166.3 166.01,-154.87 157.69,-145.37"/>
<polygon fill="midnightblue" stroke="midnightblue" points="160.16,-142.86 150.94,-137.64 154.89,-147.47 160.16,-142.86"/>
</g>
<!-- Node22&#45;&gt;Node10 -->
<g id="edge27" class="edge">
<title>Node22&#45;&gt;Node10</title>
<path fill="none" stroke="midnightblue" d="M192.74,-174.21C194.8,-160.47 199.81,-135.02 210.5,-116 216.59,-105.17 225.75,-94.89 234.05,-86.8"/>
<polygon fill="midnightblue" stroke="midnightblue" points="236.67,-89.14 241.62,-79.78 231.91,-84.01 236.67,-89.14"/>
</g>
</g>
</svg>
