<?xml version="1.0" encoding="UTF-8" standalone="no"?>
<!DOCTYPE svg PUBLIC "-//W3C//DTD SVG 1.1//EN"
 "http://www.w3.org/Graphics/SVG/1.1/DTD/svg11.dtd">
<!-- Generated by graphviz version 2.44.0 ()
 -->
<!-- Title: lexer.c Pages: 1 -->
<svg width="1041pt" height="378pt"
 viewBox="0.00 0.00 1041.00 378.00" xmlns="http://www.w3.org/2000/svg" xmlns:xlink="http://www.w3.org/1999/xlink">
<g id="graph0" class="graph" transform="scale(1 1) rotate(0) translate(4 374)">
<title>lexer.c</title>
<polygon fill="white" stroke="transparent" points="-4,4 -4,-374 1037,-374 1037,4 -4,4"/>
<!-- Node1 -->
<g id="node1" class="node">
<title>Node1</title>
<g id="a_node1"><a xlink:title=" ">
<polygon fill="#bfbfbf" stroke="black" points="528,-348.5 528,-369.5 579,-369.5 579,-348.5 528,-348.5"/>
<text text-anchor="middle" x="553.5" y="-355.9" font-family="DejaVuSans" font-size="12.00">lexer.c</text>
</a>
</g>
</g>
<!-- Node2 -->
<g id="node2" class="node">
<title>Node2</title>
<g id="a_node2"><a xlink:href="print_8h.html" target="_top" xlink:title=" ">
<polygon fill="white" stroke="black" points="91.5,-290.5 91.5,-311.5 141.5,-311.5 141.5,-290.5 91.5,-290.5"/>
<text text-anchor="middle" x="116.5" y="-297.9" font-family="DejaVuSans" font-size="12.00">print.h</text>
</a>
</g>
</g>
<!-- Node1&#45;&gt;Node2 -->
<g id="edge1" class="edge">
<title>Node1&#45;&gt;Node2</title>
<path fill="none" stroke="midnightblue" d="M527.71,-356.24C464.08,-351.63 294.68,-337.76 155.5,-312 154.22,-311.76 152.93,-311.51 151.62,-311.24"/>
<polygon fill="midnightblue" stroke="midnightblue" points="152.09,-307.76 141.56,-308.96 150.54,-314.58 152.09,-307.76"/>
</g>
<!-- Node13 -->
<g id="node13" class="node">
<title>Node13</title>
<g id="a_node13"><a xlink:href="global_8h.html" target="_top" xlink:title=" ">
<polygon fill="white" stroke="black" points="278.5,-290.5 278.5,-311.5 336.5,-311.5 336.5,-290.5 278.5,-290.5"/>
<text text-anchor="middle" x="307.5" y="-297.9" font-family="DejaVuSans" font-size="12.00">global.h</text>
</a>
</g>
</g>
<!-- Node1&#45;&gt;Node13 -->
<g id="edge16" class="edge">
<title>Node1&#45;&gt;Node13</title>
<path fill="none" stroke="midnightblue" d="M527.71,-352.29C488.99,-343.69 413.52,-326.84 349.5,-312 348.61,-311.79 347.7,-311.58 346.79,-311.37"/>
<polygon fill="midnightblue" stroke="midnightblue" points="347.4,-307.92 336.86,-309.04 345.8,-314.73 347.4,-307.92"/>
</g>
<!-- Node16 -->
<g id="node16" class="node">
<title>Node16</title>
<g id="a_node16"><a xlink:href="lexer_8h.html" target="_top" xlink:title=" ">
<polygon fill="white" stroke="black" points="211.5,-174.5 211.5,-195.5 263.5,-195.5 263.5,-174.5 211.5,-174.5"/>
<text text-anchor="middle" x="237.5" y="-181.9" font-family="DejaVuSans" font-size="12.00">lexer.h</text>
</a>
</g>
</g>
<!-- Node1&#45;&gt;Node16 -->
<g id="edge39" class="edge">
<title>Node1&#45;&gt;Node16</title>
<path fill="none" stroke="midnightblue" d="M527.75,-357.72C476.59,-356.34 359.32,-349.02 269.5,-312 228.56,-295.13 208.74,-293.38 188.5,-254 178.55,-234.65 196.95,-214.7 213.96,-201.46"/>
<polygon fill="midnightblue" stroke="midnightblue" points="216.07,-204.26 222.08,-195.53 211.94,-198.6 216.07,-204.26"/>
</g>
<!-- Node17 -->
<g id="node17" class="node">
<title>Node17</title>
<g id="a_node17"><a xlink:href="texfunc_8h.html" target="_top" xlink:title=" ">
<polygon fill="white" stroke="black" points="359,-290.5 359,-311.5 424,-311.5 424,-290.5 359,-290.5"/>
<text text-anchor="middle" x="391.5" y="-297.9" font-family="DejaVuSans" font-size="12.00">texfunc.h</text>
</a>
</g>
</g>
<!-- Node1&#45;&gt;Node17 -->
<g id="edge23" class="edge">
<title>Node1&#45;&gt;Node17</title>
<path fill="none" stroke="midnightblue" d="M527.83,-349.13C501.22,-339.93 459.34,-325.45 429.02,-314.97"/>
<polygon fill="midnightblue" stroke="midnightblue" points="429.81,-311.54 419.22,-311.58 427.53,-318.16 429.81,-311.54"/>
</g>
<!-- Node18 -->
<g id="node18" class="node">
<title>Node18</title>
<g id="a_node18"><a xlink:href="printout_8h.html" target="_top" xlink:title=" ">
<polygon fill="white" stroke="black" points="551.5,-290.5 551.5,-311.5 617.5,-311.5 617.5,-290.5 551.5,-290.5"/>
<text text-anchor="middle" x="584.5" y="-297.9" font-family="DejaVuSans" font-size="12.00">printout.h</text>
</a>
</g>
</g>
<!-- Node1&#45;&gt;Node18 -->
<g id="edge25" class="edge">
<title>Node1&#45;&gt;Node18</title>
<path fill="none" stroke="midnightblue" d="M558.9,-348.25C563.12,-340.62 569.12,-329.79 574.24,-320.53"/>
<polygon fill="midnightblue" stroke="midnightblue" points="577.38,-322.09 579.16,-311.64 571.26,-318.7 577.38,-322.09"/>
</g>
<!-- Node19 -->
<g id="node19" class="node">
<title>Node19</title>
<g id="a_node19"><a xlink:href="pure__func_8h.html" target="_top" xlink:title=" ">
<polygon fill="white" stroke="black" points="635.5,-290.5 635.5,-311.5 715.5,-311.5 715.5,-290.5 635.5,-290.5"/>
<text text-anchor="middle" x="675.5" y="-297.9" font-family="DejaVuSans" font-size="12.00">pure_func.h</text>
</a>
</g>
</g>
<!-- Node1&#45;&gt;Node19 -->
<g id="edge26" class="edge">
<title>Node1&#45;&gt;Node19</title>
<path fill="none" stroke="midnightblue" d="M574.47,-348.37C594.06,-339.38 623.5,-325.87 645.55,-315.75"/>
<polygon fill="midnightblue" stroke="midnightblue" points="647.17,-318.85 654.8,-311.5 644.25,-312.49 647.17,-318.85"/>
</g>
<!-- Node20 -->
<g id="node20" class="node">
<title>Node20</title>
<g id="a_node20"><a xlink:href="macros_8h.html" target="_top" xlink:title=" ">
<polygon fill="white" stroke="black" points="734,-290.5 734,-311.5 799,-311.5 799,-290.5 734,-290.5"/>
<text text-anchor="middle" x="766.5" y="-297.9" font-family="DejaVuSans" font-size="12.00">macros.h</text>
</a>
</g>
</g>
<!-- Node1&#45;&gt;Node20 -->
<g id="edge27" class="edge">
<title>Node1&#45;&gt;Node20</title>
<path fill="none" stroke="midnightblue" d="M579.19,-351.25C615.12,-341.8 680.81,-324.53 724.07,-313.16"/>
<polygon fill="midnightblue" stroke="midnightblue" points="724.96,-316.54 733.74,-310.61 723.18,-309.77 724.96,-316.54"/>
</g>
<!-- Node21 -->
<g id="node21" class="node">
<title>Node21</title>
<g id="a_node21"><a xlink:href="inputln_8h.html" target="_top" xlink:title=" ">
<polygon fill="white" stroke="black" points="817.5,-290.5 817.5,-311.5 879.5,-311.5 879.5,-290.5 817.5,-290.5"/>
<text text-anchor="middle" x="848.5" y="-297.9" font-family="DejaVuSans" font-size="12.00">inputln.h</text>
</a>
</g>
</g>
<!-- Node1&#45;&gt;Node21 -->
<g id="edge28" class="edge">
<title>Node1&#45;&gt;Node21</title>
<path fill="none" stroke="midnightblue" d="M579.31,-353.93C623.81,-346.78 718.02,-331.1 807.11,-312.2"/>
<polygon fill="midnightblue" stroke="midnightblue" points="808.06,-315.57 817.1,-310.06 806.59,-308.73 808.06,-315.57"/>
</g>
<!-- Node22 -->
<g id="node22" class="node">
<title>Node22</title>
<g id="a_node22"><a xlink:href="funcs_8h.html" target="_top" xlink:title=" ">
<polygon fill="white" stroke="black" points="584,-174.5 584,-195.5 639,-195.5 639,-174.5 584,-174.5"/>
<text text-anchor="middle" x="611.5" y="-181.9" font-family="DejaVuSans" font-size="12.00">funcs.h</text>
</a>
</g>
</g>
<!-- Node1&#45;&gt;Node22 -->
<g id="edge29" class="edge">
<title>Node1&#45;&gt;Node22</title>
<path fill="none" stroke="midnightblue" d="M549.17,-348.13C543.9,-334.74 536.42,-310.15 542.5,-290 552.8,-255.85 578.39,-222.61 595.34,-203.23"/>
<polygon fill="midnightblue" stroke="midnightblue" points="598.14,-205.36 602.22,-195.59 592.93,-200.68 598.14,-205.36"/>
</g>
<!-- Node23 -->
<g id="node23" class="node">
<title>Node23</title>
<g id="a_node23"><a xlink:href="expand_8h.html" target="_top" xlink:title=" ">
<polygon fill="white" stroke="black" points="897.5,-290.5 897.5,-311.5 963.5,-311.5 963.5,-290.5 897.5,-290.5"/>
<text text-anchor="middle" x="930.5" y="-297.9" font-family="DejaVuSans" font-size="12.00">expand.h</text>
</a>
</g>
</g>
<!-- Node1&#45;&gt;Node23 -->
<g id="edge31" class="edge">
<title>Node1&#45;&gt;Node23</title>
<path fill="none" stroke="midnightblue" d="M579.27,-355.33C634.09,-349.46 766.46,-334.31 886.96,-312.15"/>
<polygon fill="midnightblue" stroke="midnightblue" points="887.9,-315.53 897.09,-310.26 886.62,-308.65 887.9,-315.53"/>
</g>
<!-- Node24 -->
<g id="node24" class="node">
<title>Node24</title>
<g id="a_node24"><a xlink:href="error_8h.html" target="_top" xlink:title=" ">
<polygon fill="white" stroke="black" points="982,-290.5 982,-311.5 1033,-311.5 1033,-290.5 982,-290.5"/>
<text text-anchor="middle" x="1007.5" y="-297.9" font-family="DejaVuSans" font-size="12.00">error.h</text>
</a>
</g>
</g>
<!-- Node1&#45;&gt;Node24 -->
<g id="edge32" class="edge">
<title>Node1&#45;&gt;Node24</title>
<path fill="none" stroke="midnightblue" d="M579.23,-356.69C643.75,-353.09 817.6,-341.41 971.52,-311.89"/>
<polygon fill="midnightblue" stroke="midnightblue" points="972.48,-315.27 981.63,-309.92 971.14,-308.4 972.48,-315.27"/>
</g>
<!-- Node25 -->
<g id="node25" class="node">
<title>Node25</title>
<g id="a_node25"><a xlink:href="hash_8h.html" target="_top" xlink:title=" ">
<polygon fill="white" stroke="black" points="442,-290.5 442,-311.5 495,-311.5 495,-290.5 442,-290.5"/>
<text text-anchor="middle" x="468.5" y="-297.9" font-family="DejaVuSans" font-size="12.00">hash.h</text>
</a>
</g>
</g>
<!-- Node1&#45;&gt;Node25 -->
<g id="edge33" class="edge">
<title>Node1&#45;&gt;Node25</title>
<path fill="none" stroke="midnightblue" d="M538.69,-348.25C525.77,-339.73 506.81,-327.24 491.84,-317.38"/>
<polygon fill="midnightblue" stroke="midnightblue" points="493.41,-314.22 483.14,-311.64 489.56,-320.07 493.41,-314.22"/>
</g>
<!-- Node3 -->
<g id="node3" class="node">
<title>Node3</title>
<g id="a_node3"><a xlink:href="tex__types_8h.html" target="_top" xlink:title=" ">
<polygon fill="white" stroke="black" points="150,-58.5 150,-79.5 227,-79.5 227,-58.5 150,-58.5"/>
<text text-anchor="middle" x="188.5" y="-65.9" font-family="DejaVuSans" font-size="12.00">tex_types.h</text>
</a>
</g>
</g>
<!-- Node2&#45;&gt;Node3 -->
<g id="edge2" class="edge">
<title>Node2&#45;&gt;Node3</title>
<path fill="none" stroke="midnightblue" d="M119.5,-290.41C130.37,-255.71 167.76,-136.24 182.48,-89.22"/>
<polygon fill="midnightblue" stroke="midnightblue" points="185.84,-90.22 185.49,-79.63 179.16,-88.13 185.84,-90.22"/>
</g>
<!-- Node6 -->
<g id="node6" class="node">
<title>Node6</title>
<g id="a_node6"><a xlink:href="tex_8h.html" target="_top" xlink:title=" ">
<polygon fill="white" stroke="black" points="216.5,-116.5 216.5,-137.5 258.5,-137.5 258.5,-116.5 216.5,-116.5"/>
<text text-anchor="middle" x="237.5" y="-123.9" font-family="DejaVuSans" font-size="12.00">tex.h</text>
</a>
</g>
</g>
<!-- Node2&#45;&gt;Node6 -->
<g id="edge5" class="edge">
<title>Node2&#45;&gt;Node6</title>
<path fill="none" stroke="midnightblue" d="M121.38,-290.5C128.38,-277.11 141.94,-252.07 155.5,-232 177.01,-200.16 205.38,-165.57 222.49,-145.39"/>
<polygon fill="midnightblue" stroke="midnightblue" points="225.25,-147.55 229.08,-137.67 219.93,-143 225.25,-147.55"/>
</g>
<!-- Node8 -->
<g id="node8" class="node">
<title>Node8</title>
<g id="a_node8"><a xlink:href="texmac_8h.html" target="_top" xlink:title=" ">
<polygon fill="white" stroke="black" points="0,-232.5 0,-253.5 65,-253.5 65,-232.5 0,-232.5"/>
<text text-anchor="middle" x="32.5" y="-239.9" font-family="DejaVuSans" font-size="12.00">texmac.h</text>
</a>
</g>
</g>
<!-- Node2&#45;&gt;Node8 -->
<g id="edge8" class="edge">
<title>Node2&#45;&gt;Node8</title>
<path fill="none" stroke="midnightblue" d="M101.87,-290.25C89.1,-281.73 70.36,-269.24 55.57,-259.38"/>
<polygon fill="midnightblue" stroke="midnightblue" points="57.23,-256.28 46.96,-253.64 53.34,-262.1 57.23,-256.28"/>
</g>
<!-- Node9 -->
<g id="node9" class="node">
<title>Node9</title>
<g id="a_node9"><a xlink:href="str_8h.html" target="_top" xlink:title=" ">
<polygon fill="white" stroke="black" points="386,-232.5 386,-253.5 425,-253.5 425,-232.5 386,-232.5"/>
<text text-anchor="middle" x="405.5" y="-239.9" font-family="DejaVuSans" font-size="12.00">str.h</text>
</a>
</g>
</g>
<!-- Node2&#45;&gt;Node9 -->
<g id="edge9" class="edge">
<title>Node2&#45;&gt;Node9</title>
<path fill="none" stroke="midnightblue" d="M141.64,-295.13C194.91,-284.81 318.89,-260.78 375.88,-249.74"/>
<polygon fill="midnightblue" stroke="midnightblue" points="376.56,-253.17 385.71,-247.83 375.23,-246.3 376.56,-253.17"/>
</g>
<!-- Node4 -->
<g id="node4" class="node">
<title>Node4</title>
<g id="a_node4"><a xlink:title=" ">
<polygon fill="white" stroke="#bfbfbf" points="156,-0.5 156,-21.5 221,-21.5 221,-0.5 156,-0.5"/>
<text text-anchor="middle" x="188.5" y="-7.9" font-family="DejaVuSans" font-size="12.00">stdbool.h</text>
</a>
</g>
</g>
<!-- Node3&#45;&gt;Node4 -->
<g id="edge3" class="edge">
<title>Node3&#45;&gt;Node4</title>
<path fill="none" stroke="midnightblue" d="M188.5,-58.25C188.5,-50.94 188.5,-40.69 188.5,-31.7"/>
<polygon fill="midnightblue" stroke="midnightblue" points="192,-31.64 188.5,-21.64 185,-31.64 192,-31.64"/>
</g>
<!-- Node5 -->
<g id="node5" class="node">
<title>Node5</title>
<g id="a_node5"><a xlink:title=" ">
<polygon fill="white" stroke="#bfbfbf" points="289,-0.5 289,-21.5 344,-21.5 344,-0.5 289,-0.5"/>
<text text-anchor="middle" x="316.5" y="-7.9" font-family="DejaVuSans" font-size="12.00">stdint.h</text>
</a>
</g>
</g>
<!-- Node3&#45;&gt;Node5 -->
<g id="edge4" class="edge">
<title>Node3&#45;&gt;Node5</title>
<path fill="none" stroke="midnightblue" d="M210.5,-58.37C231.14,-49.34 262.22,-35.75 285.39,-25.61"/>
<polygon fill="midnightblue" stroke="midnightblue" points="287.02,-28.72 294.78,-21.5 284.22,-22.3 287.02,-28.72"/>
</g>
<!-- Node6&#45;&gt;Node3 -->
<g id="edge6" class="edge">
<title>Node6&#45;&gt;Node3</title>
<path fill="none" stroke="midnightblue" d="M228.96,-116.25C222.01,-108.3 212.01,-96.87 203.69,-87.37"/>
<polygon fill="midnightblue" stroke="midnightblue" points="206.16,-84.86 196.94,-79.64 200.89,-89.47 206.16,-84.86"/>
</g>
<!-- Node7 -->
<g id="node7" class="node">
<title>Node7</title>
<g id="a_node7"><a xlink:href="tex__constant_8h.html" target="_top" xlink:title=" ">
<polygon fill="white" stroke="black" points="245.5,-58.5 245.5,-79.5 339.5,-79.5 339.5,-58.5 245.5,-58.5"/>
<text text-anchor="middle" x="292.5" y="-65.9" font-family="DejaVuSans" font-size="12.00">tex_constant.h</text>
</a>
</g>
</g>
<!-- Node6&#45;&gt;Node7 -->
<g id="edge7" class="edge">
<title>Node6&#45;&gt;Node7</title>
<path fill="none" stroke="midnightblue" d="M247.08,-116.25C255.05,-108.14 266.56,-96.41 276.01,-86.79"/>
<polygon fill="midnightblue" stroke="midnightblue" points="278.52,-89.23 283.03,-79.64 273.53,-84.32 278.52,-89.23"/>
</g>
<!-- Node9&#45;&gt;Node3 -->
<g id="edge15" class="edge">
<title>Node9&#45;&gt;Node3</title>
<path fill="none" stroke="midnightblue" d="M394.27,-232.21C383.69,-222.95 367.43,-208.63 353.5,-196 314.84,-160.93 309.43,-147.1 267.5,-116 251.56,-104.18 232.34,-92.93 216.85,-84.51"/>
<polygon fill="midnightblue" stroke="midnightblue" points="218.23,-81.28 207.75,-79.66 214.93,-87.45 218.23,-81.28"/>
</g>
<!-- Node9&#45;&gt;Node5 -->
<g id="edge11" class="edge">
<title>Node9&#45;&gt;Node5</title>
<path fill="none" stroke="midnightblue" d="M403.62,-232.43C397.93,-204.5 379.31,-121.11 348.5,-58 343.67,-48.11 336.87,-37.98 330.77,-29.76"/>
<polygon fill="midnightblue" stroke="midnightblue" points="333.43,-27.47 324.56,-21.68 327.88,-31.74 333.43,-27.47"/>
</g>
<!-- Node10 -->
<g id="node10" class="node">
<title>Node10</title>
<g id="a_node10"><a xlink:title=" ">
<polygon fill="white" stroke="#bfbfbf" points="424.5,-116.5 424.5,-137.5 476.5,-137.5 476.5,-116.5 424.5,-116.5"/>
<text text-anchor="middle" x="450.5" y="-123.9" font-family="DejaVuSans" font-size="12.00">stdio.h</text>
</a>
</g>
</g>
<!-- Node9&#45;&gt;Node10 -->
<g id="edge10" class="edge">
<title>Node9&#45;&gt;Node10</title>
<path fill="none" stroke="midnightblue" d="M407.48,-232.07C410.35,-218.59 416.23,-193.93 424.5,-174 428.44,-164.5 433.92,-154.5 438.83,-146.26"/>
<polygon fill="midnightblue" stroke="midnightblue" points="441.94,-147.87 444.21,-137.52 435.98,-144.2 441.94,-147.87"/>
</g>
<!-- Node11 -->
<g id="node11" class="node">
<title>Node11</title>
<g id="a_node11"><a xlink:href="global__const_8h.html" target="_top" xlink:title=" ">
<polygon fill="white" stroke="black" points="434,-174.5 434,-195.5 527,-195.5 527,-174.5 434,-174.5"/>
<text text-anchor="middle" x="480.5" y="-181.9" font-family="DejaVuSans" font-size="12.00">global_const.h</text>
</a>
</g>
</g>
<!-- Node9&#45;&gt;Node11 -->
<g id="edge12" class="edge">
<title>Node9&#45;&gt;Node11</title>
<path fill="none" stroke="midnightblue" d="M418.56,-232.25C429.86,-223.81 446.38,-211.47 459.53,-201.66"/>
<polygon fill="midnightblue" stroke="midnightblue" points="461.67,-204.43 467.59,-195.64 457.48,-198.82 461.67,-204.43"/>
</g>
<!-- Node11&#45;&gt;Node10 -->
<g id="edge14" class="edge">
<title>Node11&#45;&gt;Node10</title>
<path fill="none" stroke="midnightblue" d="M475.27,-174.25C471.19,-166.62 465.39,-155.79 460.43,-146.53"/>
<polygon fill="midnightblue" stroke="midnightblue" points="463.47,-144.8 455.67,-137.64 457.3,-148.11 463.47,-144.8"/>
</g>
<!-- Node12 -->
<g id="node12" class="node">
<title>Node12</title>
<g id="a_node12"><a xlink:title=" ">
<polygon fill="white" stroke="#bfbfbf" points="495,-116.5 495,-137.5 554,-137.5 554,-116.5 495,-116.5"/>
<text text-anchor="middle" x="524.5" y="-123.9" font-family="DejaVuSans" font-size="12.00">assert.h</text>
</a>
</g>
</g>
<!-- Node11&#45;&gt;Node12 -->
<g id="edge13" class="edge">
<title>Node11&#45;&gt;Node12</title>
<path fill="none" stroke="midnightblue" d="M488.16,-174.25C494.35,-166.38 503.21,-155.1 510.63,-145.65"/>
<polygon fill="midnightblue" stroke="midnightblue" points="513.5,-147.67 516.92,-137.64 507.99,-143.34 513.5,-147.67"/>
</g>
<!-- Node13&#45;&gt;Node9 -->
<g id="edge18" class="edge">
<title>Node13&#45;&gt;Node9</title>
<path fill="none" stroke="midnightblue" d="M324.57,-290.25C339.75,-281.57 362.16,-268.76 379.56,-258.82"/>
<polygon fill="midnightblue" stroke="midnightblue" points="381.68,-261.64 388.63,-253.64 378.21,-255.57 381.68,-261.64"/>
</g>
<!-- Node14 -->
<g id="node14" class="node">
<title>Node14</title>
<g id="a_node14"><a xlink:title=" ">
<polygon fill="white" stroke="#bfbfbf" points="197.5,-232.5 197.5,-253.5 259.5,-253.5 259.5,-232.5 197.5,-232.5"/>
<text text-anchor="middle" x="228.5" y="-239.9" font-family="DejaVuSans" font-size="12.00">setjmp.h</text>
</a>
</g>
</g>
<!-- Node13&#45;&gt;Node14 -->
<g id="edge17" class="edge">
<title>Node13&#45;&gt;Node14</title>
<path fill="none" stroke="midnightblue" d="M293.74,-290.25C281.84,-281.81 264.43,-269.47 250.59,-259.66"/>
<polygon fill="midnightblue" stroke="midnightblue" points="252.29,-256.57 242.1,-253.64 248.24,-262.28 252.29,-256.57"/>
</g>
<!-- Node15 -->
<g id="node15" class="node">
<title>Node15</title>
<g id="a_node15"><a xlink:href="scan_8h.html" target="_top" xlink:title=" ">
<polygon fill="white" stroke="black" points="277.5,-232.5 277.5,-253.5 329.5,-253.5 329.5,-232.5 277.5,-232.5"/>
<text text-anchor="middle" x="303.5" y="-239.9" font-family="DejaVuSans" font-size="12.00">scan.h</text>
</a>
</g>
</g>
<!-- Node13&#45;&gt;Node15 -->
<g id="edge19" class="edge">
<title>Node13&#45;&gt;Node15</title>
<path fill="none" stroke="midnightblue" d="M306.8,-290.25C306.28,-282.94 305.55,-272.69 304.91,-263.7"/>
<polygon fill="midnightblue" stroke="midnightblue" points="308.39,-263.37 304.19,-253.64 301.41,-263.87 308.39,-263.37"/>
</g>
<!-- Node15&#45;&gt;Node16 -->
<g id="edge20" class="edge">
<title>Node15&#45;&gt;Node16</title>
<path fill="none" stroke="midnightblue" d="M292,-232.25C282.26,-223.97 268.07,-211.94 256.62,-202.22"/>
<polygon fill="midnightblue" stroke="midnightblue" points="258.75,-199.44 248.86,-195.64 254.23,-204.78 258.75,-199.44"/>
</g>
<!-- Node16&#45;&gt;Node6 -->
<g id="edge22" class="edge">
<title>Node16&#45;&gt;Node6</title>
<path fill="none" stroke="midnightblue" d="M237.5,-174.25C237.5,-166.94 237.5,-156.69 237.5,-147.7"/>
<polygon fill="midnightblue" stroke="midnightblue" points="241,-147.64 237.5,-137.64 234,-147.64 241,-147.64"/>
</g>
<!-- Node16&#45;&gt;Node10 -->
<g id="edge21" class="edge">
<title>Node16&#45;&gt;Node10</title>
<path fill="none" stroke="midnightblue" d="M263.62,-177.13C301.46,-167.18 371.69,-148.72 414.45,-137.48"/>
<polygon fill="midnightblue" stroke="midnightblue" points="415.39,-140.85 424.17,-134.92 413.61,-134.08 415.39,-140.85"/>
</g>
<!-- Node17&#45;&gt;Node9 -->
<g id="edge24" class="edge">
<title>Node17&#45;&gt;Node9</title>
<path fill="none" stroke="midnightblue" d="M393.94,-290.25C395.79,-282.86 398.38,-272.47 400.65,-263.41"/>
<polygon fill="midnightblue" stroke="midnightblue" points="404.06,-264.19 403.09,-253.64 397.27,-262.5 404.06,-264.19"/>
</g>
<!-- Node22&#45;&gt;Node10 -->
<g id="edge30" class="edge">
<title>Node22&#45;&gt;Node10</title>
<path fill="none" stroke="midnightblue" d="M583.82,-174.37C556.84,-164.99 515.69,-150.68 486.25,-140.43"/>
<polygon fill="midnightblue" stroke="midnightblue" points="487.34,-137.11 476.75,-137.13 485.04,-143.72 487.34,-137.11"/>
</g>
<!-- Node25&#45;&gt;Node6 -->
<g id="edge34" class="edge">
<title>Node25&#45;&gt;Node6</title>
<path fill="none" stroke="midnightblue" d="M445.23,-290.48C426.02,-282.14 398.46,-269.02 376.5,-254 327.74,-220.64 278.3,-171.31 253.62,-145.38"/>
<polygon fill="midnightblue" stroke="midnightblue" points="255.91,-142.71 246.51,-137.83 250.82,-147.51 255.91,-142.71"/>
</g>
<!-- Node25&#45;&gt;Node9 -->
<g id="edge35" class="edge">
<title>Node25&#45;&gt;Node9</title>
<path fill="none" stroke="midnightblue" d="M457.53,-290.25C448.31,-282.05 434.95,-270.17 424.07,-260.51"/>
<polygon fill="midnightblue" stroke="midnightblue" points="426.15,-257.67 416.35,-253.64 421.5,-262.9 426.15,-257.67"/>
</g>
<!-- Node26 -->
<g id="node26" class="node">
<title>Node26</title>
<g id="a_node26"><a xlink:href="fonts_8h.html" target="_top" xlink:title=" ">
<polygon fill="white" stroke="black" points="443.5,-232.5 443.5,-253.5 495.5,-253.5 495.5,-232.5 443.5,-232.5"/>
<text text-anchor="middle" x="469.5" y="-239.9" font-family="DejaVuSans" font-size="12.00">fonts.h</text>
</a>
</g>
</g>
<!-- Node25&#45;&gt;Node26 -->
<g id="edge36" class="edge">
<title>Node25&#45;&gt;Node26</title>
<path fill="none" stroke="midnightblue" d="M468.67,-290.25C468.8,-282.94 468.99,-272.69 469.15,-263.7"/>
<polygon fill="midnightblue" stroke="midnightblue" points="472.65,-263.7 469.33,-253.64 465.65,-263.58 472.65,-263.7"/>
</g>
<!-- Node26&#45;&gt;Node10 -->
<g id="edge37" class="edge">
<title>Node26&#45;&gt;Node10</title>
<path fill="none" stroke="midnightblue" d="M491.26,-232.48C515.61,-220.39 549.9,-198.17 535.5,-174 529.5,-163.94 504.77,-151.17 483.51,-141.64"/>
<polygon fill="midnightblue" stroke="midnightblue" points="484.64,-138.31 474.07,-137.51 481.83,-144.72 484.64,-138.31"/>
</g>
<!-- Node26&#45;&gt;Node11 -->
<g id="edge38" class="edge">
<title>Node26&#45;&gt;Node11</title>
<path fill="none" stroke="midnightblue" d="M471.42,-232.25C472.85,-224.94 474.86,-214.69 476.63,-205.7"/>
<polygon fill="midnightblue" stroke="midnightblue" points="480.11,-206.13 478.61,-195.64 473.24,-204.78 480.11,-206.13"/>
</g>
</g>
</svg>
