<?xml version="1.0" encoding="UTF-8" standalone="no"?>
<!DOCTYPE svg PUBLIC "-//W3C//DTD SVG 1.1//EN"
 "http://www.w3.org/Graphics/SVG/1.1/DTD/svg11.dtd">
<!-- Generated by graphviz version 2.44.0 ()
 -->
<!-- Title: lexer.h Pages: 1 -->
<svg width="2126pt" height="320pt"
 viewBox="0.00 0.00 2126.07 320.00" xmlns="http://www.w3.org/2000/svg" xmlns:xlink="http://www.w3.org/1999/xlink">
<g id="graph0" class="graph" transform="scale(1 1) rotate(0) translate(4 316)">
<title>lexer.h</title>
<polygon fill="white" stroke="transparent" points="-4,4 -4,-316 2122.07,-316 2122.07,4 -4,4"/>
<!-- Node1 -->
<g id="node1" class="node">
<title>Node1</title>
<g id="a_node1"><a xlink:title=" ">
<polygon fill="#bfbfbf" stroke="black" points="1342.57,-290.5 1342.57,-311.5 1394.57,-311.5 1394.57,-290.5 1342.57,-290.5"/>
<text text-anchor="middle" x="1368.57" y="-297.9" font-family="DejaVuSans" font-size="12.00">lexer.h</text>
</a>
</g>
</g>
<!-- Node2 -->
<g id="node2" class="node">
<title>Node2</title>
<g id="a_node2"><a xlink:href="align_8h.html" target="_top" xlink:title=" ">
<polygon fill="white" stroke="black" points="263.57,-174.5 263.57,-195.5 315.57,-195.5 315.57,-174.5 263.57,-174.5"/>
<text text-anchor="middle" x="289.57" y="-181.9" font-family="DejaVuSans" font-size="12.00">align.h</text>
</a>
</g>
</g>
<!-- Node1&#45;&gt;Node2 -->
<g id="edge1" class="edge">
<title>Node1&#45;&gt;Node2</title>
<path fill="none" stroke="midnightblue" d="M1332.31,-300.12C1160.63,-300.47 434.13,-299.24 344.57,-254 319.36,-241.27 301.75,-211.14 294.01,-195.62"/>
<polygon fill="midnightblue" stroke="midnightblue" points="1332.36,-303.62 1342.35,-300.1 1332.34,-296.62 1332.36,-303.62"/>
</g>
<!-- Node4 -->
<g id="node4" class="node">
<title>Node4</title>
<g id="a_node4"><a xlink:href="lexer_8c.html" target="_top" xlink:title=" ">
<polygon fill="white" stroke="black" points="64.07,-116.5 64.07,-137.5 115.07,-137.5 115.07,-116.5 64.07,-116.5"/>
<text text-anchor="middle" x="89.57" y="-123.9" font-family="DejaVuSans" font-size="12.00">lexer.c</text>
</a>
</g>
</g>
<!-- Node1&#45;&gt;Node4 -->
<g id="edge44" class="edge">
<title>Node1&#45;&gt;Node4</title>
<path fill="none" stroke="midnightblue" d="M1332.19,-299.64C1154.07,-297.73 378.59,-287.53 276.57,-254 199.96,-228.82 125.56,-162.58 99.42,-137.66"/>
<polygon fill="midnightblue" stroke="midnightblue" points="1332.31,-303.14 1342.34,-299.75 1332.38,-296.14 1332.31,-303.14"/>
</g>
<!-- Node5 -->
<g id="node5" class="node">
<title>Node5</title>
<g id="a_node5"><a xlink:href="main__ctrl_8h.html" target="_top" xlink:title=" ">
<polygon fill="white" stroke="black" points="317.57,-116.5 317.57,-137.5 391.57,-137.5 391.57,-116.5 317.57,-116.5"/>
<text text-anchor="middle" x="354.57" y="-123.9" font-family="DejaVuSans" font-size="12.00">main_ctrl.h</text>
</a>
</g>
</g>
<!-- Node1&#45;&gt;Node5 -->
<g id="edge45" class="edge">
<title>Node1&#45;&gt;Node5</title>
<path fill="none" stroke="midnightblue" d="M1332.3,-299.59C1227.5,-298 915.49,-290.31 659.57,-254 541.06,-237.19 494.18,-265.28 396.57,-196 375.75,-181.22 363.16,-152.56 357.73,-137.6"/>
<polygon fill="midnightblue" stroke="midnightblue" points="1332.3,-303.09 1342.35,-299.74 1332.4,-296.09 1332.3,-303.09"/>
</g>
<!-- Node9 -->
<g id="node9" class="node">
<title>Node9</title>
<g id="a_node9"><a xlink:href="extension_8c.html" target="_top" xlink:title=" ">
<polygon fill="white" stroke="black" points="21.07,-58.5 21.07,-79.5 98.07,-79.5 98.07,-58.5 21.07,-58.5"/>
<text text-anchor="middle" x="59.57" y="-65.9" font-family="DejaVuSans" font-size="12.00">extension.c</text>
</a>
</g>
</g>
<!-- Node1&#45;&gt;Node9 -->
<g id="edge26" class="edge">
<title>Node1&#45;&gt;Node9</title>
<path fill="none" stroke="midnightblue" d="M1332.21,-299.84C1142.45,-298.84 270.33,-292.19 156.57,-254 86.25,-230.39 57.35,-209.21 36.57,-138 30.43,-116.94 43.6,-92.7 52.44,-79.6"/>
<polygon fill="midnightblue" stroke="midnightblue" points="1332.46,-303.34 1342.47,-299.89 1332.49,-296.34 1332.46,-303.34"/>
</g>
<!-- Node12 -->
<g id="node12" class="node">
<title>Node12</title>
<g id="a_node12"><a xlink:href="tex__header_8h.html" target="_top" xlink:title=" ">
<polygon fill="white" stroke="black" points="473.57,-58.5 473.57,-79.5 559.57,-79.5 559.57,-58.5 473.57,-58.5"/>
<text text-anchor="middle" x="516.57" y="-65.9" font-family="DejaVuSans" font-size="12.00">tex_header.h</text>
</a>
</g>
</g>
<!-- Node1&#45;&gt;Node12 -->
<g id="edge83" class="edge">
<title>Node1&#45;&gt;Node12</title>
<path fill="none" stroke="midnightblue" d="M1332.23,-299.71C1149.1,-298.07 331.9,-288.87 224.57,-254 137.58,-225.74 96.85,-219.11 54.57,-138 6.21,-45.2 -142.18,-139.11 426.57,-80 441.9,-78.41 458.68,-76.57 473.55,-74.91"/>
<polygon fill="midnightblue" stroke="midnightblue" points="1332.38,-303.21 1342.41,-299.8 1332.44,-296.21 1332.38,-303.21"/>
</g>
<!-- Node14 -->
<g id="node14" class="node">
<title>Node14</title>
<g id="a_node14"><a xlink:href="mem_8c.html" target="_top" xlink:title=" ">
<polygon fill="white" stroke="black" points="209.57,-116.5 209.57,-137.5 261.57,-137.5 261.57,-116.5 209.57,-116.5"/>
<text text-anchor="middle" x="235.57" y="-123.9" font-family="DejaVuSans" font-size="12.00">mem.c</text>
</a>
</g>
</g>
<!-- Node1&#45;&gt;Node14 -->
<g id="edge46" class="edge">
<title>Node1&#45;&gt;Node14</title>
<path fill="none" stroke="midnightblue" d="M1331.97,-299.92C1157.03,-299.32 410.63,-294.4 315.57,-254 281.14,-239.37 273.86,-228.06 254.57,-196 243.33,-177.3 238.53,-151.73 236.66,-137.88"/>
<polygon fill="midnightblue" stroke="midnightblue" points="1332.19,-303.42 1342.2,-299.95 1332.21,-296.42 1332.19,-303.42"/>
</g>
<!-- Node16 -->
<g id="node16" class="node">
<title>Node16</title>
<g id="a_node16"><a xlink:href="debug_8c.html" target="_top" xlink:title=" ">
<polygon fill="white" stroke="black" points="1771.07,-232.5 1771.07,-253.5 1830.07,-253.5 1830.07,-232.5 1771.07,-232.5"/>
<text text-anchor="middle" x="1800.57" y="-239.9" font-family="DejaVuSans" font-size="12.00">debug.c</text>
</a>
</g>
</g>
<!-- Node1&#45;&gt;Node16 -->
<g id="edge20" class="edge">
<title>Node1&#45;&gt;Node16</title>
<path fill="none" stroke="midnightblue" d="M1404.9,-296.98C1473.8,-290.97 1628.08,-276.15 1756.57,-254 1761.2,-253.2 1766.08,-252.23 1770.84,-251.21"/>
<polygon fill="midnightblue" stroke="midnightblue" points="1404.25,-293.52 1394.59,-297.87 1404.85,-300.5 1404.25,-293.52"/>
</g>
<!-- Node17 -->
<g id="node17" class="node">
<title>Node17</title>
<g id="a_node17"><a xlink:href="dump_8c.html" target="_top" xlink:title=" ">
<polygon fill="white" stroke="black" points="1786.57,-116.5 1786.57,-137.5 1842.57,-137.5 1842.57,-116.5 1786.57,-116.5"/>
<text text-anchor="middle" x="1814.57" y="-123.9" font-family="DejaVuSans" font-size="12.00">dump.c</text>
</a>
</g>
</g>
<!-- Node1&#45;&gt;Node17 -->
<g id="edge21" class="edge">
<title>Node1&#45;&gt;Node17</title>
<path fill="none" stroke="midnightblue" d="M1404.74,-296.58C1452.21,-291.28 1537.6,-279 1606.57,-254 1656.69,-235.83 1665.96,-223.6 1711.57,-196 1744.21,-176.26 1781.25,-151.09 1800.8,-137.59"/>
<polygon fill="midnightblue" stroke="midnightblue" points="1404.21,-293.11 1394.64,-297.66 1404.96,-300.07 1404.21,-293.11"/>
</g>
<!-- Node18 -->
<g id="node18" class="node">
<title>Node18</title>
<g id="a_node18"><a xlink:href="eqtb_8c.html" target="_top" xlink:title=" ">
<polygon fill="white" stroke="black" points="1848.07,-232.5 1848.07,-253.5 1897.07,-253.5 1897.07,-232.5 1848.07,-232.5"/>
<text text-anchor="middle" x="1872.57" y="-239.9" font-family="DejaVuSans" font-size="12.00">eqtb.c</text>
</a>
</g>
</g>
<!-- Node1&#45;&gt;Node18 -->
<g id="edge22" class="edge">
<title>Node1&#45;&gt;Node18</title>
<path fill="none" stroke="midnightblue" d="M1405.07,-298.88C1484.69,-295.9 1679.67,-285.71 1839.57,-254 1842.27,-253.46 1845.07,-252.8 1847.84,-252.07"/>
<polygon fill="midnightblue" stroke="midnightblue" points="1404.49,-295.4 1394.62,-299.25 1404.74,-302.39 1404.49,-295.4"/>
</g>
<!-- Node19 -->
<g id="node19" class="node">
<title>Node19</title>
<g id="a_node19"><a xlink:href="eqtb__save_8c.html" target="_top" xlink:title=" ">
<polygon fill="white" stroke="black" points="1915.07,-232.5 1915.07,-253.5 1996.07,-253.5 1996.07,-232.5 1915.07,-232.5"/>
<text text-anchor="middle" x="1955.57" y="-239.9" font-family="DejaVuSans" font-size="12.00">eqtb_save.c</text>
</a>
</g>
</g>
<!-- Node1&#45;&gt;Node19 -->
<g id="edge23" class="edge">
<title>Node1&#45;&gt;Node19</title>
<path fill="none" stroke="midnightblue" d="M1404.87,-298.35C1491.84,-294.09 1718.86,-281.09 1906.57,-254 1909.32,-253.6 1912.15,-253.15 1914.99,-252.66"/>
<polygon fill="midnightblue" stroke="midnightblue" points="1404.55,-294.86 1394.73,-298.84 1404.89,-301.86 1404.55,-294.86"/>
</g>
<!-- Node20 -->
<g id="node20" class="node">
<title>Node20</title>
<g id="a_node20"><a xlink:href="error_8c.html" target="_top" xlink:title=" ">
<polygon fill="white" stroke="black" points="2014.57,-232.5 2014.57,-253.5 2064.57,-253.5 2064.57,-232.5 2014.57,-232.5"/>
<text text-anchor="middle" x="2039.57" y="-239.9" font-family="DejaVuSans" font-size="12.00">error.c</text>
</a>
</g>
</g>
<!-- Node1&#45;&gt;Node20 -->
<g id="edge24" class="edge">
<title>Node1&#45;&gt;Node20</title>
<path fill="none" stroke="midnightblue" d="M1404.84,-300.08C1502.65,-299.73 1779.73,-294.88 2005.57,-254 2008.48,-253.47 2011.49,-252.79 2014.47,-252.04"/>
<polygon fill="midnightblue" stroke="midnightblue" points="1404.6,-296.58 1394.61,-300.11 1404.62,-303.58 1404.6,-296.58"/>
</g>
<!-- Node21 -->
<g id="node21" class="node">
<title>Node21</title>
<g id="a_node21"><a xlink:href="expand_8c.html" target="_top" xlink:title=" ">
<polygon fill="white" stroke="black" points="515.07,-174.5 515.07,-195.5 580.07,-195.5 580.07,-174.5 515.07,-174.5"/>
<text text-anchor="middle" x="547.57" y="-181.9" font-family="DejaVuSans" font-size="12.00">expand.c</text>
</a>
</g>
</g>
<!-- Node1&#45;&gt;Node21 -->
<g id="edge25" class="edge">
<title>Node1&#45;&gt;Node21</title>
<path fill="none" stroke="midnightblue" d="M1332.27,-296.81C1220.31,-286.63 870.68,-252.22 585.57,-196 583.83,-195.66 582.05,-195.28 580.26,-194.88"/>
<polygon fill="midnightblue" stroke="midnightblue" points="1332.08,-300.31 1342.36,-297.72 1332.71,-293.34 1332.08,-300.31"/>
</g>
<!-- Node22 -->
<g id="node22" class="node">
<title>Node22</title>
<g id="a_node22"><a xlink:href="extension_8h.html" target="_top" xlink:title=" ">
<polygon fill="white" stroke="black" points="842.57,-174.5 842.57,-195.5 920.57,-195.5 920.57,-174.5 842.57,-174.5"/>
<text text-anchor="middle" x="881.57" y="-181.9" font-family="DejaVuSans" font-size="12.00">extension.h</text>
</a>
</g>
</g>
<!-- Node1&#45;&gt;Node22 -->
<g id="edge27" class="edge">
<title>Node1&#45;&gt;Node22</title>
<path fill="none" stroke="midnightblue" d="M1332.48,-291.55C1243.35,-270.69 1013.36,-216.85 920.91,-195.21"/>
<polygon fill="midnightblue" stroke="midnightblue" points="1331.85,-295 1342.39,-293.87 1333.45,-288.18 1331.85,-295"/>
</g>
<!-- Node29 -->
<g id="node29" class="node">
<title>Node29</title>
<g id="a_node29"><a xlink:href="fonts_8c.html" target="_top" xlink:title=" ">
<polygon fill="white" stroke="black" points="1343.07,-174.5 1343.07,-195.5 1394.07,-195.5 1394.07,-174.5 1343.07,-174.5"/>
<text text-anchor="middle" x="1368.57" y="-181.9" font-family="DejaVuSans" font-size="12.00">fonts.c</text>
</a>
</g>
</g>
<!-- Node1&#45;&gt;Node29 -->
<g id="edge39" class="edge">
<title>Node1&#45;&gt;Node29</title>
<path fill="none" stroke="midnightblue" d="M1368.57,-280.25C1368.57,-255.58 1368.57,-214.35 1368.57,-195.69"/>
<polygon fill="midnightblue" stroke="midnightblue" points="1365.07,-280.28 1368.57,-290.28 1372.07,-280.28 1365.07,-280.28"/>
</g>
<!-- Node30 -->
<g id="node30" class="node">
<title>Node30</title>
<g id="a_node30"><a xlink:href="hyphen_8c.html" target="_top" xlink:title=" ">
<polygon fill="white" stroke="black" points="1412.07,-174.5 1412.07,-195.5 1477.07,-195.5 1477.07,-174.5 1412.07,-174.5"/>
<text text-anchor="middle" x="1444.57" y="-181.9" font-family="DejaVuSans" font-size="12.00">hyphen.c</text>
</a>
</g>
</g>
<!-- Node1&#45;&gt;Node30 -->
<g id="edge40" class="edge">
<title>Node1&#45;&gt;Node30</title>
<path fill="none" stroke="midnightblue" d="M1380.64,-281.89C1396.94,-257.45 1425.39,-214.77 1438.11,-195.69"/>
<polygon fill="midnightblue" stroke="midnightblue" points="1377.69,-280.02 1375.05,-290.28 1383.51,-283.9 1377.69,-280.02"/>
</g>
<!-- Node31 -->
<g id="node31" class="node">
<title>Node31</title>
<g id="a_node31"><a xlink:href="hyphen__init_8c.html" target="_top" xlink:title=" ">
<polygon fill="white" stroke="black" points="1495.57,-174.5 1495.57,-195.5 1583.57,-195.5 1583.57,-174.5 1495.57,-174.5"/>
<text text-anchor="middle" x="1539.57" y="-181.9" font-family="DejaVuSans" font-size="12.00">hyphen_init.c</text>
</a>
</g>
</g>
<!-- Node1&#45;&gt;Node31 -->
<g id="edge41" class="edge">
<title>Node1&#45;&gt;Node31</title>
<path fill="none" stroke="midnightblue" d="M1391.63,-284.63C1427.39,-260.79 1495.21,-215.57 1524.97,-195.74"/>
<polygon fill="midnightblue" stroke="midnightblue" points="1389.24,-282.02 1382.86,-290.48 1393.12,-287.84 1389.24,-282.02"/>
</g>
<!-- Node32 -->
<g id="node32" class="node">
<title>Node32</title>
<g id="a_node32"><a xlink:href="io_8c.html" target="_top" xlink:title=" ">
<polygon fill="white" stroke="black" points="2083.07,-232.5 2083.07,-253.5 2118.07,-253.5 2118.07,-232.5 2083.07,-232.5"/>
<text text-anchor="middle" x="2100.57" y="-239.9" font-family="DejaVuSans" font-size="12.00">io.c</text>
</a>
</g>
</g>
<!-- Node1&#45;&gt;Node32 -->
<g id="edge42" class="edge">
<title>Node1&#45;&gt;Node32</title>
<path fill="none" stroke="midnightblue" d="M1404.99,-299.01C1530.43,-295.4 1943.89,-281.63 2073.57,-254 2076.7,-253.33 2079.95,-252.37 2083.07,-251.31"/>
<polygon fill="midnightblue" stroke="midnightblue" points="1404.67,-295.52 1394.77,-299.3 1404.87,-302.52 1404.67,-295.52"/>
</g>
<!-- Node33 -->
<g id="node33" class="node">
<title>Node33</title>
<g id="a_node33"><a xlink:href="io__fname_8c.html" target="_top" xlink:title=" ">
<polygon fill="white" stroke="black" points="1601.07,-174.5 1601.07,-195.5 1676.07,-195.5 1676.07,-174.5 1601.07,-174.5"/>
<text text-anchor="middle" x="1638.57" y="-181.9" font-family="DejaVuSans" font-size="12.00">io_fname.c</text>
</a>
</g>
</g>
<!-- Node1&#45;&gt;Node33 -->
<g id="edge43" class="edge">
<title>Node1&#45;&gt;Node33</title>
<path fill="none" stroke="midnightblue" d="M1400.43,-286.55C1455.65,-263.23 1567.83,-215.87 1615.89,-195.58"/>
<polygon fill="midnightblue" stroke="midnightblue" points="1398.98,-283.36 1391.13,-290.48 1401.7,-289.81 1398.98,-283.36"/>
</g>
<!-- Node34 -->
<g id="node34" class="node">
<title>Node34</title>
<g id="a_node34"><a xlink:href="page_8h.html" target="_top" xlink:title=" ">
<polygon fill="white" stroke="black" points="444.07,-174.5 444.07,-195.5 497.07,-195.5 497.07,-174.5 444.07,-174.5"/>
<text text-anchor="middle" x="470.57" y="-181.9" font-family="DejaVuSans" font-size="12.00">page.h</text>
</a>
</g>
</g>
<!-- Node1&#45;&gt;Node34 -->
<g id="edge47" class="edge">
<title>Node1&#45;&gt;Node34</title>
<path fill="none" stroke="midnightblue" d="M1332.37,-298.59C1241.52,-294.74 996.7,-282.35 794.57,-254 665.27,-235.86 633.56,-226.38 506.57,-196 503.54,-195.28 500.39,-194.47 497.25,-193.64"/>
<polygon fill="midnightblue" stroke="midnightblue" points="1332.28,-302.09 1342.42,-299.01 1332.57,-295.1 1332.28,-302.09"/>
</g>
<!-- Node37 -->
<g id="node37" class="node">
<title>Node37</title>
<g id="a_node37"><a xlink:href="scan_8c.html" target="_top" xlink:title=" ">
<polygon fill="white" stroke="black" points="1717.07,-116.5 1717.07,-137.5 1768.07,-137.5 1768.07,-116.5 1717.07,-116.5"/>
<text text-anchor="middle" x="1742.57" y="-123.9" font-family="DejaVuSans" font-size="12.00">scan.c</text>
</a>
</g>
</g>
<!-- Node1&#45;&gt;Node37 -->
<g id="edge56" class="edge">
<title>Node1&#45;&gt;Node37</title>
<path fill="none" stroke="midnightblue" d="M1404.69,-294.97C1466.8,-284.92 1595.82,-257.77 1685.57,-196 1708.67,-180.1 1727.73,-152.44 1736.83,-137.78"/>
<polygon fill="midnightblue" stroke="midnightblue" points="1403.94,-291.55 1394.6,-296.55 1405.02,-298.46 1403.94,-291.55"/>
</g>
<!-- Node38 -->
<g id="node38" class="node">
<title>Node38</title>
<g id="a_node38"><a xlink:href="scan_8h.html" target="_top" xlink:title=" ">
<polygon fill="white" stroke="black" points="1182.57,-232.5 1182.57,-253.5 1234.57,-253.5 1234.57,-232.5 1182.57,-232.5"/>
<text text-anchor="middle" x="1208.57" y="-239.9" font-family="DejaVuSans" font-size="12.00">scan.h</text>
</a>
</g>
</g>
<!-- Node1&#45;&gt;Node38 -->
<g id="edge57" class="edge">
<title>Node1&#45;&gt;Node38</title>
<path fill="none" stroke="midnightblue" d="M1332.91,-287.52C1303.12,-277.09 1261.35,-262.47 1234.62,-253.12"/>
<polygon fill="midnightblue" stroke="midnightblue" points="1331.91,-290.88 1342.51,-290.88 1334.23,-284.27 1331.91,-290.88"/>
</g>
<!-- Node3 -->
<g id="node3" class="node">
<title>Node3</title>
<g id="a_node3"><a xlink:href="align_8c.html" target="_top" xlink:title=" ">
<polygon fill="white" stroke="black" points="988.07,-58.5 988.07,-79.5 1039.07,-79.5 1039.07,-58.5 988.07,-58.5"/>
<text text-anchor="middle" x="1013.57" y="-65.9" font-family="DejaVuSans" font-size="12.00">align.c</text>
</a>
</g>
</g>
<!-- Node2&#45;&gt;Node3 -->
<g id="edge2" class="edge">
<title>Node2&#45;&gt;Node3</title>
<path fill="none" stroke="midnightblue" d="M253.92,-172.6C220.56,-160.17 178.87,-138.96 200.57,-116 228.28,-86.68 852.88,-73.08 987.96,-70.47"/>
<polygon fill="midnightblue" stroke="midnightblue" points="252.89,-175.94 263.49,-176.01 255.25,-169.35 252.89,-175.94"/>
</g>
<!-- Node2&#45;&gt;Node4 -->
<g id="edge3" class="edge">
<title>Node2&#45;&gt;Node4</title>
<path fill="none" stroke="midnightblue" d="M253.56,-173.92C213.63,-162.74 150.22,-144.98 115.09,-135.15"/>
<polygon fill="midnightblue" stroke="midnightblue" points="252.85,-177.35 263.43,-176.68 254.74,-170.61 252.85,-177.35"/>
</g>
<!-- Node2&#45;&gt;Node5 -->
<g id="edge4" class="edge">
<title>Node2&#45;&gt;Node5</title>
<path fill="none" stroke="midnightblue" d="M308.56,-167.65C319.86,-157.91 333.82,-145.88 343.38,-137.64"/>
<polygon fill="midnightblue" stroke="midnightblue" points="306.19,-165.07 300.89,-174.25 310.75,-170.37 306.19,-165.07"/>
</g>
<!-- Node2&#45;&gt;Node12 -->
<g id="edge19" class="edge">
<title>Node2&#45;&gt;Node12</title>
<path fill="none" stroke="midnightblue" d="M253.53,-177.73C208.15,-168.34 139.33,-148.21 167.57,-116 172.59,-110.28 381.21,-85.6 473.46,-74.94"/>
<polygon fill="midnightblue" stroke="midnightblue" points="252.88,-181.17 263.37,-179.68 254.24,-174.3 252.88,-181.17"/>
</g>
<!-- Node2&#45;&gt;Node14 -->
<g id="edge17" class="edge">
<title>Node2&#45;&gt;Node14</title>
<path fill="none" stroke="midnightblue" d="M272.98,-166.79C263.74,-157.21 252.58,-145.64 244.87,-137.64"/>
<polygon fill="midnightblue" stroke="midnightblue" points="270.71,-169.48 280.17,-174.25 275.74,-164.62 270.71,-169.48"/>
</g>
<!-- Node15 -->
<g id="node15" class="node">
<title>Node15</title>
<g id="a_node15"><a xlink:href="printout_8c.html" target="_top" xlink:title=" ">
<polygon fill="white" stroke="black" points="887.07,-116.5 887.07,-137.5 952.07,-137.5 952.07,-116.5 887.07,-116.5"/>
<text text-anchor="middle" x="919.57" y="-123.9" font-family="DejaVuSans" font-size="12.00">printout.c</text>
</a>
</g>
</g>
<!-- Node2&#45;&gt;Node15 -->
<g id="edge18" class="edge">
<title>Node2&#45;&gt;Node15</title>
<path fill="none" stroke="midnightblue" d="M325.85,-181.51C445.65,-173.24 824.13,-146.71 878.57,-138 881.32,-137.56 884.16,-137.03 887,-136.45"/>
<polygon fill="midnightblue" stroke="midnightblue" points="325.46,-178.03 315.73,-182.21 325.94,-185.01 325.46,-178.03"/>
</g>
<!-- Node5&#45;&gt;Node3 -->
<g id="edge5" class="edge">
<title>Node5&#45;&gt;Node3</title>
<path fill="none" stroke="midnightblue" d="M401.83,-120.12C414.11,-118.68 427.33,-117.21 439.57,-116 650.98,-95.1 906.92,-77.2 987.8,-71.72"/>
<polygon fill="midnightblue" stroke="midnightblue" points="401.29,-116.66 391.78,-121.32 402.12,-123.61 401.29,-116.66"/>
</g>
<!-- Node6 -->
<g id="node6" class="node">
<title>Node6</title>
<g id="a_node6"><a xlink:href="build__box_8c.html" target="_top" xlink:title=" ">
<polygon fill="white" stroke="black" points="116.07,-58.5 116.07,-79.5 193.07,-79.5 193.07,-58.5 116.07,-58.5"/>
<text text-anchor="middle" x="154.57" y="-65.9" font-family="DejaVuSans" font-size="12.00">build_box.c</text>
</a>
</g>
</g>
<!-- Node5&#45;&gt;Node6 -->
<g id="edge6" class="edge">
<title>Node5&#45;&gt;Node6</title>
<path fill="none" stroke="midnightblue" d="M310.24,-113.59C273.5,-103.3 222.03,-88.89 188.5,-79.5"/>
<polygon fill="midnightblue" stroke="midnightblue" points="309.62,-117.05 320.19,-116.37 311.51,-110.31 309.62,-117.05"/>
</g>
<!-- Node7 -->
<g id="node7" class="node">
<title>Node7</title>
<g id="a_node7"><a xlink:href="main__ctrl_8c.html" target="_top" xlink:title=" ">
<polygon fill="white" stroke="black" points="272.57,-0.5 272.57,-21.5 346.57,-21.5 346.57,-0.5 272.57,-0.5"/>
<text text-anchor="middle" x="309.57" y="-7.9" font-family="DejaVuSans" font-size="12.00">main_ctrl.c</text>
</a>
</g>
</g>
<!-- Node5&#45;&gt;Node7 -->
<g id="edge13" class="edge">
<title>Node5&#45;&gt;Node7</title>
<path fill="none" stroke="midnightblue" d="M388.15,-112C413.36,-99.37 441.23,-79.51 426.57,-58 408.81,-31.94 373.83,-20.64 346.72,-15.74"/>
<polygon fill="midnightblue" stroke="midnightblue" points="386.59,-108.86 379.06,-116.31 389.6,-115.18 386.59,-108.86"/>
</g>
<!-- Node8 -->
<g id="node8" class="node">
<title>Node8</title>
<g id="a_node8"><a xlink:href="build__math_8c.html" target="_top" xlink:title=" ">
<polygon fill="white" stroke="black" points="211.57,-58.5 211.57,-79.5 295.57,-79.5 295.57,-58.5 211.57,-58.5"/>
<text text-anchor="middle" x="253.57" y="-65.9" font-family="DejaVuSans" font-size="12.00">build_math.c</text>
</a>
</g>
</g>
<!-- Node5&#45;&gt;Node8 -->
<g id="edge8" class="edge">
<title>Node5&#45;&gt;Node8</title>
<path fill="none" stroke="midnightblue" d="M328.1,-111.32C310.06,-101.32 286.68,-88.36 270.96,-79.64"/>
<polygon fill="midnightblue" stroke="midnightblue" points="326.54,-114.46 336.98,-116.25 329.93,-108.34 326.54,-114.46"/>
</g>
<!-- Node5&#45;&gt;Node9 -->
<g id="edge10" class="edge">
<title>Node5&#45;&gt;Node9</title>
<path fill="none" stroke="midnightblue" d="M307.43,-116.73C306.13,-116.49 304.84,-116.24 303.57,-116 216.12,-99.44 193.89,-97.26 106.57,-80 103.87,-79.47 101.09,-78.9 98.28,-78.33"/>
<polygon fill="midnightblue" stroke="midnightblue" points="307.05,-120.23 317.54,-118.68 308.38,-113.35 307.05,-120.23"/>
</g>
<!-- Node10 -->
<g id="node10" class="node">
<title>Node10</title>
<g id="a_node10"><a xlink:href="indep__process_8c.html" target="_top" xlink:title=" ">
<polygon fill="white" stroke="black" points="313.57,-58.5 313.57,-79.5 417.57,-79.5 417.57,-58.5 313.57,-58.5"/>
<text text-anchor="middle" x="365.57" y="-65.9" font-family="DejaVuSans" font-size="12.00">indep_process.c</text>
</a>
</g>
</g>
<!-- Node5&#45;&gt;Node10 -->
<g id="edge11" class="edge">
<title>Node5&#45;&gt;Node10</title>
<path fill="none" stroke="midnightblue" d="M358.47,-106.16C360.24,-97.16 362.25,-86.92 363.68,-79.64"/>
<polygon fill="midnightblue" stroke="midnightblue" points="354.98,-105.76 356.49,-116.25 361.85,-107.11 354.98,-105.76"/>
</g>
<!-- Node11 -->
<g id="node11" class="node">
<title>Node11</title>
<g id="a_node11"><a xlink:href="page__builder_8c.html" target="_top" xlink:title=" ">
<polygon fill="white" stroke="black" points="1335.07,-58.5 1335.07,-79.5 1430.07,-79.5 1430.07,-58.5 1335.07,-58.5"/>
<text text-anchor="middle" x="1382.57" y="-65.9" font-family="DejaVuSans" font-size="12.00">page_builder.c</text>
</a>
</g>
</g>
<!-- Node5&#45;&gt;Node11 -->
<g id="edge14" class="edge">
<title>Node5&#45;&gt;Node11</title>
<path fill="none" stroke="midnightblue" d="M401.81,-119.86C414.09,-118.43 427.31,-117.02 439.57,-116 782.19,-87.52 1196.42,-74.83 1334.91,-71.17"/>
<polygon fill="midnightblue" stroke="midnightblue" points="401.27,-116.4 391.75,-121.07 402.1,-123.35 401.27,-116.4"/>
</g>
<!-- Node5&#45;&gt;Node12 -->
<g id="edge15" class="edge">
<title>Node5&#45;&gt;Node12</title>
<path fill="none" stroke="midnightblue" d="M392.01,-113.06C421.66,-102.81 462.39,-88.73 489.09,-79.5"/>
<polygon fill="midnightblue" stroke="midnightblue" points="390.73,-109.8 382.42,-116.37 393.02,-116.41 390.73,-109.8"/>
</g>
<!-- Node6&#45;&gt;Node7 -->
<g id="edge7" class="edge">
<title>Node6&#45;&gt;Node7</title>
<path fill="none" stroke="midnightblue" d="M190.77,-54.92C219.1,-44.69 257.84,-30.69 283.27,-21.5"/>
<polygon fill="midnightblue" stroke="midnightblue" points="189.43,-51.68 181.22,-58.37 191.81,-58.27 189.43,-51.68"/>
</g>
<!-- Node8&#45;&gt;Node7 -->
<g id="edge9" class="edge">
<title>Node8&#45;&gt;Node7</title>
<path fill="none" stroke="midnightblue" d="M270.5,-51.08C280.13,-41.44 291.85,-29.72 299.93,-21.64"/>
<polygon fill="midnightblue" stroke="midnightblue" points="267.92,-48.7 263.33,-58.25 272.87,-53.65 267.92,-48.7"/>
</g>
<!-- Node10&#45;&gt;Node7 -->
<g id="edge12" class="edge">
<title>Node10&#45;&gt;Node7</title>
<path fill="none" stroke="midnightblue" d="M348.65,-51.08C339.01,-41.44 327.29,-29.72 319.21,-21.64"/>
<polygon fill="midnightblue" stroke="midnightblue" points="346.27,-53.65 355.82,-58.25 351.22,-48.7 346.27,-53.65"/>
</g>
<!-- Node13 -->
<g id="node13" class="node">
<title>Node13</title>
<g id="a_node13"><a xlink:href="tex_8c.html" target="_top" xlink:title=" ">
<polygon fill="white" stroke="black" points="496.07,-0.5 496.07,-21.5 537.07,-21.5 537.07,-0.5 496.07,-0.5"/>
<text text-anchor="middle" x="516.57" y="-7.9" font-family="DejaVuSans" font-size="12.00">tex.c</text>
</a>
</g>
</g>
<!-- Node12&#45;&gt;Node13 -->
<g id="edge16" class="edge">
<title>Node12&#45;&gt;Node13</title>
<path fill="none" stroke="midnightblue" d="M516.57,-48.16C516.57,-39.16 516.57,-28.92 516.57,-21.64"/>
<polygon fill="midnightblue" stroke="midnightblue" points="513.07,-48.25 516.57,-58.25 520.07,-48.25 513.07,-48.25"/>
</g>
<!-- Node22&#45;&gt;Node5 -->
<g id="edge35" class="edge">
<title>Node22&#45;&gt;Node5</title>
<path fill="none" stroke="midnightblue" d="M832.55,-179.11C750.98,-170.94 582.23,-153.81 439.57,-138 423.92,-136.26 406.65,-134.25 391.8,-132.49"/>
<polygon fill="midnightblue" stroke="midnightblue" points="832.23,-182.6 842.53,-180.11 832.93,-175.64 832.23,-182.6"/>
</g>
<!-- Node22&#45;&gt;Node9 -->
<g id="edge33" class="edge">
<title>Node22&#45;&gt;Node9</title>
<path fill="none" stroke="midnightblue" d="M832.37,-182.83C712.07,-179.53 405.77,-168.33 308.57,-138 289.94,-132.19 288.77,-123.05 270.57,-116 266.53,-114.43 158.14,-91.11 98.33,-78.29"/>
<polygon fill="midnightblue" stroke="midnightblue" points="832.32,-186.33 842.41,-183.1 832.51,-179.34 832.32,-186.33"/>
</g>
<!-- Node22&#45;&gt;Node12 -->
<g id="edge38" class="edge">
<title>Node22&#45;&gt;Node12</title>
<path fill="none" stroke="midnightblue" d="M832.1,-180.9C779,-176.28 692.93,-165 623.57,-138 585.83,-123.31 547.07,-94.61 528.25,-79.62"/>
<polygon fill="midnightblue" stroke="midnightblue" points="832.02,-184.41 842.27,-181.74 832.59,-177.43 832.02,-184.41"/>
</g>
<!-- Node22&#45;&gt;Node15 -->
<g id="edge37" class="edge">
<title>Node22&#45;&gt;Node15</title>
<path fill="none" stroke="midnightblue" d="M893.84,-165.92C900.22,-156.52 907.77,-145.4 913.03,-137.64"/>
<polygon fill="midnightblue" stroke="midnightblue" points="890.91,-164.01 888.19,-174.25 896.7,-167.94 890.91,-164.01"/>
</g>
<!-- Node22&#45;&gt;Node17 -->
<g id="edge31" class="edge">
<title>Node22&#45;&gt;Node17</title>
<path fill="none" stroke="midnightblue" d="M930.97,-178.94C949.36,-177.18 970.4,-175.32 989.57,-174 1339.33,-149.83 1431.18,-192.06 1777.57,-138 1780.46,-137.55 1783.46,-136.96 1786.43,-136.29"/>
<polygon fill="midnightblue" stroke="midnightblue" points="930.4,-175.48 920.78,-179.93 931.07,-182.44 930.4,-175.48"/>
</g>
<!-- Node23 -->
<g id="node23" class="node">
<title>Node23</title>
<g id="a_node23"><a xlink:href="box__copy_8c.html" target="_top" xlink:title=" ">
<polygon fill="white" stroke="black" points="632.07,-116.5 632.07,-137.5 709.07,-137.5 709.07,-116.5 632.07,-116.5"/>
<text text-anchor="middle" x="670.57" y="-123.9" font-family="DejaVuSans" font-size="12.00">box_copy.c</text>
</a>
</g>
</g>
<!-- Node22&#45;&gt;Node23 -->
<g id="edge28" class="edge">
<title>Node22&#45;&gt;Node23</title>
<path fill="none" stroke="midnightblue" d="M835.3,-171.72C796.5,-161.42 741.9,-146.93 706.37,-137.5"/>
<polygon fill="midnightblue" stroke="midnightblue" points="834.74,-175.19 845.3,-174.37 836.53,-168.43 834.74,-175.19"/>
</g>
<!-- Node24 -->
<g id="node24" class="node">
<title>Node24</title>
<g id="a_node24"><a xlink:href="box__destroy_8c.html" target="_top" xlink:title=" ">
<polygon fill="white" stroke="black" points="1148.07,-116.5 1148.07,-137.5 1239.07,-137.5 1239.07,-116.5 1148.07,-116.5"/>
<text text-anchor="middle" x="1193.57" y="-123.9" font-family="DejaVuSans" font-size="12.00">box_destroy.c</text>
</a>
</g>
</g>
<!-- Node22&#45;&gt;Node24 -->
<g id="edge29" class="edge">
<title>Node22&#45;&gt;Node24</title>
<path fill="none" stroke="midnightblue" d="M930.67,-175.25C982.39,-166.03 1066.23,-151.05 1138.57,-138 1141.63,-137.45 1144.78,-136.88 1147.96,-136.3"/>
<polygon fill="midnightblue" stroke="midnightblue" points="929.99,-171.82 920.76,-177.02 931.22,-178.71 929.99,-171.82"/>
</g>
<!-- Node25 -->
<g id="node25" class="node">
<title>Node25</title>
<g id="a_node25"><a xlink:href="box__display_8c.html" target="_top" xlink:title=" ">
<polygon fill="white" stroke="black" points="1257.07,-116.5 1257.07,-137.5 1346.07,-137.5 1346.07,-116.5 1257.07,-116.5"/>
<text text-anchor="middle" x="1301.57" y="-123.9" font-family="DejaVuSans" font-size="12.00">box_display.c</text>
</a>
</g>
</g>
<!-- Node22&#45;&gt;Node25 -->
<g id="edge30" class="edge">
<title>Node22&#45;&gt;Node25</title>
<path fill="none" stroke="midnightblue" d="M931.16,-178.77C1001.82,-171.09 1135.43,-155.75 1248.57,-138 1251.25,-137.58 1254.01,-137.13 1256.79,-136.65"/>
<polygon fill="midnightblue" stroke="midnightblue" points="930.36,-175.34 920.79,-179.89 931.11,-182.29 930.36,-175.34"/>
</g>
<!-- Node26 -->
<g id="node26" class="node">
<title>Node26</title>
<g id="a_node26"><a xlink:href="dviout_8c.html" target="_top" xlink:title=" ">
<polygon fill="white" stroke="black" points="1071.57,-116.5 1071.57,-137.5 1129.57,-137.5 1129.57,-116.5 1071.57,-116.5"/>
<text text-anchor="middle" x="1100.57" y="-123.9" font-family="DejaVuSans" font-size="12.00">dviout.c</text>
</a>
</g>
</g>
<!-- Node22&#45;&gt;Node26 -->
<g id="edge32" class="edge">
<title>Node22&#45;&gt;Node26</title>
<path fill="none" stroke="midnightblue" d="M929.26,-172C965.78,-162.78 1017.38,-149.69 1062.57,-138 1065.48,-137.25 1068.51,-136.46 1071.53,-135.67"/>
<polygon fill="midnightblue" stroke="midnightblue" points="928.22,-168.65 919.38,-174.49 929.94,-175.44 928.22,-168.65"/>
</g>
<!-- Node27 -->
<g id="node27" class="node">
<title>Node27</title>
<g id="a_node27"><a xlink:href="linebreak_8c.html" target="_top" xlink:title=" ">
<polygon fill="white" stroke="black" points="727.57,-116.5 727.57,-137.5 801.57,-137.5 801.57,-116.5 727.57,-116.5"/>
<text text-anchor="middle" x="764.57" y="-123.9" font-family="DejaVuSans" font-size="12.00">linebreak.c</text>
</a>
</g>
</g>
<!-- Node22&#45;&gt;Node27 -->
<g id="edge34" class="edge">
<title>Node22&#45;&gt;Node27</title>
<path fill="none" stroke="midnightblue" d="M852.27,-169.97C831.08,-159.83 803.03,-146.41 784.42,-137.5"/>
<polygon fill="midnightblue" stroke="midnightblue" points="850.93,-173.21 861.46,-174.37 853.95,-166.9 850.93,-173.21"/>
</g>
<!-- Node28 -->
<g id="node28" class="node">
<title>Node28</title>
<g id="a_node28"><a xlink:href="print_8c.html" target="_top" xlink:title=" ">
<polygon fill="white" stroke="black" points="820.07,-116.5 820.07,-137.5 869.07,-137.5 869.07,-116.5 820.07,-116.5"/>
<text text-anchor="middle" x="844.57" y="-123.9" font-family="DejaVuSans" font-size="12.00">print.c</text>
</a>
</g>
</g>
<!-- Node22&#45;&gt;Node28 -->
<g id="edge36" class="edge">
<title>Node22&#45;&gt;Node28</title>
<path fill="none" stroke="midnightblue" d="M869.43,-165.63C863.26,-156.29 856.02,-145.32 850.94,-137.64"/>
<polygon fill="midnightblue" stroke="midnightblue" points="866.69,-167.83 875.13,-174.25 872.53,-163.97 866.69,-167.83"/>
</g>
<!-- Node34&#45;&gt;Node4 -->
<g id="edge48" class="edge">
<title>Node34&#45;&gt;Node4</title>
<path fill="none" stroke="midnightblue" d="M433.6,-178.57C356.63,-167.25 180.89,-141.42 115.08,-131.75"/>
<polygon fill="midnightblue" stroke="midnightblue" points="433.38,-182.07 443.78,-180.06 434.4,-175.15 433.38,-182.07"/>
</g>
<!-- Node34&#45;&gt;Node5 -->
<g id="edge49" class="edge">
<title>Node34&#45;&gt;Node5</title>
<path fill="none" stroke="midnightblue" d="M441.52,-169.97C420.52,-159.83 392.7,-146.41 374.25,-137.5"/>
<polygon fill="midnightblue" stroke="midnightblue" points="440.1,-173.18 450.63,-174.37 443.15,-166.87 440.1,-173.18"/>
</g>
<!-- Node34&#45;&gt;Node11 -->
<g id="edge52" class="edge">
<title>Node34&#45;&gt;Node11</title>
<path fill="none" stroke="midnightblue" d="M495.65,-169.48C525.16,-153.2 576.18,-127.57 623.57,-116 692.39,-99.21 1179.3,-78.24 1334.89,-71.9"/>
<polygon fill="midnightblue" stroke="midnightblue" points="493.87,-166.46 486.85,-174.4 497.29,-172.57 493.87,-166.46"/>
</g>
<!-- Node34&#45;&gt;Node12 -->
<g id="edge55" class="edge">
<title>Node34&#45;&gt;Node12</title>
<path fill="none" stroke="midnightblue" d="M453.41,-166.57C441.8,-152.58 430.15,-132.6 439.57,-116 449.64,-98.26 469.57,-86.63 486.63,-79.5"/>
<polygon fill="midnightblue" stroke="midnightblue" points="450.81,-168.92 460.08,-174.05 456.03,-164.26 450.81,-168.92"/>
</g>
<!-- Node34&#45;&gt;Node14 -->
<g id="edge50" class="edge">
<title>Node34&#45;&gt;Node14</title>
<path fill="none" stroke="midnightblue" d="M434.17,-175.56C394.97,-166.45 330.8,-151.42 275.57,-138 271.12,-136.92 266.39,-135.75 261.81,-134.61"/>
<polygon fill="midnightblue" stroke="midnightblue" points="433.52,-179.01 444.05,-177.86 435.1,-172.19 433.52,-179.01"/>
</g>
<!-- Node35 -->
<g id="node35" class="node">
<title>Node35</title>
<g id="a_node35"><a xlink:href="pack_8c.html" target="_top" xlink:title=" ">
<polygon fill="white" stroke="black" points="448.07,-116.5 448.07,-137.5 499.07,-137.5 499.07,-116.5 448.07,-116.5"/>
<text text-anchor="middle" x="473.57" y="-123.9" font-family="DejaVuSans" font-size="12.00">pack.c</text>
</a>
</g>
</g>
<!-- Node34&#45;&gt;Node35 -->
<g id="edge51" class="edge">
<title>Node34&#45;&gt;Node35</title>
<path fill="none" stroke="midnightblue" d="M471.64,-164.16C472.12,-155.16 472.67,-144.92 473.06,-137.64"/>
<polygon fill="midnightblue" stroke="midnightblue" points="468.13,-164.07 471.09,-174.25 475.12,-164.45 468.13,-164.07"/>
</g>
<!-- Node36 -->
<g id="node36" class="node">
<title>Node36</title>
<g id="a_node36"><a xlink:href="pagebreak_8c.html" target="_top" xlink:title=" ">
<polygon fill="white" stroke="black" points="970.07,-116.5 970.07,-137.5 1053.07,-137.5 1053.07,-116.5 970.07,-116.5"/>
<text text-anchor="middle" x="1011.57" y="-123.9" font-family="DejaVuSans" font-size="12.00">pagebreak.c</text>
</a>
</g>
</g>
<!-- Node34&#45;&gt;Node36 -->
<g id="edge53" class="edge">
<title>Node34&#45;&gt;Node36</title>
<path fill="none" stroke="midnightblue" d="M507.17,-174.24C708.12,-139.55 763.89,-165.49 961.57,-138 964.29,-137.62 967.08,-137.19 969.89,-136.72"/>
<polygon fill="midnightblue" stroke="midnightblue" points="506.42,-170.82 497.18,-176 507.63,-177.71 506.42,-170.82"/>
</g>
<!-- Node34&#45;&gt;Node37 -->
<g id="edge54" class="edge">
<title>Node34&#45;&gt;Node37</title>
<path fill="none" stroke="midnightblue" d="M507.11,-174.37C769.72,-136.68 1385.08,-153.03 1631.57,-138 1660.93,-136.21 1694.56,-133.02 1717.03,-130.72"/>
<polygon fill="midnightblue" stroke="midnightblue" points="506.53,-170.92 497.15,-175.85 507.56,-177.84 506.53,-170.92"/>
</g>
<!-- Node38&#45;&gt;Node3 -->
<g id="edge58" class="edge">
<title>Node38&#45;&gt;Node3</title>
<path fill="none" stroke="midnightblue" d="M1216.93,-222.57C1224.9,-206.61 1238.52,-184.94 1257.57,-174 1403.45,-90.25 1746.01,-239.28 1631.57,-116 1611.08,-93.92 1153.29,-75.26 1039.17,-70.94"/>
<polygon fill="midnightblue" stroke="midnightblue" points="1213.56,-221.51 1212.51,-232.05 1219.91,-224.47 1213.56,-221.51"/>
</g>
<!-- Node38&#45;&gt;Node5 -->
<g id="edge66" class="edge">
<title>Node38&#45;&gt;Node5</title>
<path fill="none" stroke="midnightblue" d="M1172.51,-241.18C1029.22,-237.76 504.5,-223.44 435.57,-196 403.84,-183.37 375.46,-153.19 362.31,-137.64"/>
<polygon fill="midnightblue" stroke="midnightblue" points="1172.46,-244.68 1182.54,-241.42 1172.63,-237.69 1172.46,-244.68"/>
</g>
<!-- Node38&#45;&gt;Node11 -->
<g id="edge79" class="edge">
<title>Node38&#45;&gt;Node11</title>
<path fill="none" stroke="midnightblue" d="M1236.02,-227.42C1252.93,-218.42 1275.04,-206.6 1294.57,-196 1312.41,-186.33 1315.11,-179.73 1334.57,-174 1389.81,-157.74 1812.29,-180.11 1851.57,-138 1910.22,-75.13 1560.51,-69.59 1430.12,-69.68"/>
<polygon fill="midnightblue" stroke="midnightblue" points="1233.91,-224.58 1226.73,-232.37 1237.2,-230.76 1233.91,-224.58"/>
</g>
<!-- Node38&#45;&gt;Node12 -->
<g id="edge82" class="edge">
<title>Node38&#45;&gt;Node12</title>
<path fill="none" stroke="midnightblue" d="M1172.19,-239.52C1053.31,-230.89 678.12,-199.28 575.57,-138 550.89,-123.25 531.21,-94.57 522.09,-79.61"/>
<polygon fill="midnightblue" stroke="midnightblue" points="1172.01,-243.02 1182.24,-240.24 1172.51,-236.03 1172.01,-243.02"/>
</g>
<!-- Node38&#45;&gt;Node15 -->
<g id="edge80" class="edge">
<title>Node38&#45;&gt;Node15</title>
<path fill="none" stroke="midnightblue" d="M1179.76,-227.7C1150.04,-213.22 1102.16,-190.66 1059.57,-174 1023.24,-159.79 980.51,-146.19 951.9,-137.51"/>
<polygon fill="midnightblue" stroke="midnightblue" points="1178.59,-231.02 1189.11,-232.28 1181.67,-224.73 1178.59,-231.02"/>
</g>
<!-- Node38&#45;&gt;Node21 -->
<g id="edge60" class="edge">
<title>Node38&#45;&gt;Node21</title>
<path fill="none" stroke="midnightblue" d="M1172.15,-240.98C1076.83,-237.96 812.36,-227.18 594.57,-196 589.87,-195.33 584.92,-194.46 580.09,-193.51"/>
<polygon fill="midnightblue" stroke="midnightblue" points="1172.3,-244.49 1182.4,-241.3 1172.52,-237.49 1172.3,-244.49"/>
</g>
<!-- Node38&#45;&gt;Node26 -->
<g id="edge59" class="edge">
<title>Node38&#45;&gt;Node26</title>
<path fill="none" stroke="midnightblue" d="M1178.26,-227.69C1163.99,-219.84 1147.53,-209.04 1135.57,-196 1119.42,-178.38 1108.68,-151.92 1103.72,-137.76"/>
<polygon fill="midnightblue" stroke="midnightblue" points="1176.77,-230.86 1187.25,-232.42 1180.03,-224.67 1176.77,-230.86"/>
</g>
<!-- Node38&#45;&gt;Node29 -->
<g id="edge61" class="edge">
<title>Node38&#45;&gt;Node29</title>
<path fill="none" stroke="midnightblue" d="M1244.3,-229.5C1274.28,-219 1316.37,-204.27 1343.05,-194.93"/>
<polygon fill="midnightblue" stroke="midnightblue" points="1242.92,-226.27 1234.64,-232.88 1245.23,-232.88 1242.92,-226.27"/>
</g>
<!-- Node38&#45;&gt;Node30 -->
<g id="edge63" class="edge">
<title>Node38&#45;&gt;Node30</title>
<path fill="none" stroke="midnightblue" d="M1244.63,-233.58C1283.79,-224.42 1348.15,-209.3 1403.57,-196 1406.28,-195.35 1409.09,-194.67 1411.9,-193.99"/>
<polygon fill="midnightblue" stroke="midnightblue" points="1243.71,-230.2 1234.77,-235.89 1245.3,-237.02 1243.71,-230.2"/>
</g>
<!-- Node38&#45;&gt;Node31 -->
<g id="edge64" class="edge">
<title>Node38&#45;&gt;Node31</title>
<path fill="none" stroke="midnightblue" d="M1244.6,-236.3C1297.65,-227.86 1399.86,-211.35 1486.57,-196 1489.43,-195.49 1492.37,-194.96 1495.34,-194.42"/>
<polygon fill="midnightblue" stroke="midnightblue" points="1243.99,-232.86 1234.67,-237.88 1245.09,-239.77 1243.99,-232.86"/>
</g>
<!-- Node38&#45;&gt;Node33 -->
<g id="edge65" class="edge">
<title>Node38&#45;&gt;Node33</title>
<path fill="none" stroke="midnightblue" d="M1245.01,-238.8C1313.42,-232.53 1465.61,-217.35 1592.57,-196 1595.31,-195.54 1598.14,-195.02 1600.97,-194.48"/>
<polygon fill="midnightblue" stroke="midnightblue" points="1244.41,-235.34 1234.77,-239.73 1245.04,-242.31 1244.41,-235.34"/>
</g>
<!-- Node38&#45;&gt;Node35 -->
<g id="edge78" class="edge">
<title>Node38&#45;&gt;Node35</title>
<path fill="none" stroke="midnightblue" d="M1171.97,-240.95C1061.83,-237.48 734.73,-224.97 632.57,-196 611.92,-190.14 609.13,-182.86 589.57,-174 558.98,-160.15 522.91,-146.21 499.21,-137.36"/>
<polygon fill="midnightblue" stroke="midnightblue" points="1172.14,-244.45 1182.24,-241.26 1172.35,-237.46 1172.14,-244.45"/>
</g>
<!-- Node38&#45;&gt;Node37 -->
<g id="edge81" class="edge">
<title>Node38&#45;&gt;Node37</title>
<path fill="none" stroke="midnightblue" d="M1225.2,-225.2C1242.41,-208.98 1270.89,-185.27 1300.57,-174 1468.27,-110.32 1525.69,-167.84 1702.57,-138 1707.23,-137.21 1712.15,-136.17 1716.88,-135.05"/>
<polygon fill="midnightblue" stroke="midnightblue" points="1222.44,-222.99 1217.7,-232.47 1227.31,-228.02 1222.44,-222.99"/>
</g>
<!-- Node39 -->
<g id="node39" class="node">
<title>Node39</title>
<g id="a_node39"><a xlink:href="hash_8c.html" target="_top" xlink:title=" ">
<polygon fill="white" stroke="black" points="998.57,-174.5 998.57,-195.5 1050.57,-195.5 1050.57,-174.5 998.57,-174.5"/>
<text text-anchor="middle" x="1024.57" y="-181.9" font-family="DejaVuSans" font-size="12.00">hash.c</text>
</a>
</g>
</g>
<!-- Node38&#45;&gt;Node39 -->
<g id="edge62" class="edge">
<title>Node38&#45;&gt;Node39</title>
<path fill="none" stroke="midnightblue" d="M1172.61,-231.06C1136.73,-220.14 1082.49,-203.63 1050.59,-193.92"/>
<polygon fill="midnightblue" stroke="midnightblue" points="1171.62,-234.41 1182.21,-233.98 1173.66,-227.72 1171.62,-234.41"/>
</g>
<!-- Node40 -->
<g id="node40" class="node">
<title>Node40</title>
<g id="a_node40"><a xlink:href="mmode_8h.html" target="_top" xlink:title=" ">
<polygon fill="white" stroke="black" points="1144.57,-174.5 1144.57,-195.5 1210.57,-195.5 1210.57,-174.5 1144.57,-174.5"/>
<text text-anchor="middle" x="1177.57" y="-181.9" font-family="DejaVuSans" font-size="12.00">mmode.h</text>
</a>
</g>
</g>
<!-- Node38&#45;&gt;Node40 -->
<g id="edge67" class="edge">
<title>Node38&#45;&gt;Node40</title>
<path fill="none" stroke="midnightblue" d="M1198.24,-223.34C1193.11,-214.06 1187.12,-203.24 1182.91,-195.64"/>
<polygon fill="midnightblue" stroke="midnightblue" points="1195.27,-225.19 1203.17,-232.25 1201.39,-221.8 1195.27,-225.19"/>
</g>
<!-- Node40&#45;&gt;Node3 -->
<g id="edge68" class="edge">
<title>Node40&#45;&gt;Node3</title>
<path fill="none" stroke="midnightblue" d="M1220.71,-174.77C1282.24,-161.58 1387.91,-138.83 1388.57,-138 1394.71,-130.39 1395.05,-123.32 1388.57,-116 1365.37,-89.78 1120.05,-75.3 1039.23,-71.21"/>
<polygon fill="midnightblue" stroke="midnightblue" points="1219.92,-171.36 1210.87,-176.88 1221.38,-178.2 1219.92,-171.36"/>
</g>
<!-- Node40&#45;&gt;Node5 -->
<g id="edge71" class="edge">
<title>Node40&#45;&gt;Node5</title>
<path fill="none" stroke="midnightblue" d="M1134.36,-180.06C1112.04,-178.1 1084.36,-175.77 1059.57,-174 784.25,-154.34 714.53,-162.14 439.57,-138 423.88,-136.62 406.61,-134.67 391.76,-132.86"/>
<polygon fill="midnightblue" stroke="midnightblue" points="1134.26,-183.57 1144.53,-180.96 1134.88,-176.59 1134.26,-183.57"/>
</g>
<!-- Node40&#45;&gt;Node11 -->
<g id="edge74" class="edge">
<title>Node40&#45;&gt;Node11</title>
<path fill="none" stroke="midnightblue" d="M1220.6,-178.77C1234.04,-177.18 1248.92,-175.47 1262.57,-174 1303.53,-169.59 1603.89,-168.51 1631.57,-138 1638.14,-130.76 1637.83,-123.52 1631.57,-116 1606.48,-85.84 1495.32,-75.38 1430.32,-71.8"/>
<polygon fill="midnightblue" stroke="midnightblue" points="1220.17,-175.3 1210.66,-179.95 1221,-182.25 1220.17,-175.3"/>
</g>
<!-- Node40&#45;&gt;Node12 -->
<g id="edge77" class="edge">
<title>Node40&#45;&gt;Node12</title>
<path fill="none" stroke="midnightblue" d="M1220.69,-174.25C1272,-162.44 1351.36,-143.44 1355.57,-138 1361.56,-130.27 1362.29,-123.1 1355.57,-116 1327.98,-86.85 727.51,-73.82 559.76,-70.74"/>
<polygon fill="midnightblue" stroke="midnightblue" points="1219.79,-170.86 1210.83,-176.51 1221.36,-177.68 1219.79,-170.86"/>
</g>
<!-- Node40&#45;&gt;Node15 -->
<g id="edge76" class="edge">
<title>Node40&#45;&gt;Node15</title>
<path fill="none" stroke="midnightblue" d="M1134.23,-175.09C1090.57,-166.03 1021.3,-151.47 961.57,-138 958.5,-137.31 955.31,-136.57 952.11,-135.83"/>
<polygon fill="midnightblue" stroke="midnightblue" points="1133.71,-178.55 1144.22,-177.15 1135.13,-171.7 1133.71,-178.55"/>
</g>
<!-- Node40&#45;&gt;Node24 -->
<g id="edge69" class="edge">
<title>Node40&#45;&gt;Node24</title>
<path fill="none" stroke="midnightblue" d="M1183.16,-164.45C1185.75,-155.38 1188.72,-145 1190.82,-137.64"/>
<polygon fill="midnightblue" stroke="midnightblue" points="1179.74,-163.67 1180.36,-174.25 1186.47,-165.59 1179.74,-163.67"/>
</g>
<!-- Node40&#45;&gt;Node25 -->
<g id="edge70" class="edge">
<title>Node40&#45;&gt;Node25</title>
<path fill="none" stroke="midnightblue" d="M1208.02,-170.25C1230.54,-160.08 1260.63,-146.49 1280.53,-137.5"/>
<polygon fill="midnightblue" stroke="midnightblue" points="1206.56,-167.07 1198.89,-174.37 1209.44,-173.45 1206.56,-167.07"/>
</g>
<!-- Node40&#45;&gt;Node36 -->
<g id="edge75" class="edge">
<title>Node40&#45;&gt;Node36</title>
<path fill="none" stroke="midnightblue" d="M1139.21,-171.06C1108.83,-160.81 1067.09,-146.73 1039.74,-137.5"/>
<polygon fill="midnightblue" stroke="midnightblue" points="1138.44,-174.49 1149.04,-174.37 1140.68,-167.86 1138.44,-174.49"/>
</g>
<!-- Node41 -->
<g id="node41" class="node">
<title>Node41</title>
<g id="a_node41"><a xlink:href="math__formula_8c.html" target="_top" xlink:title=" ">
<polygon fill="white" stroke="black" points="1440.57,-116.5 1440.57,-137.5 1538.57,-137.5 1538.57,-116.5 1440.57,-116.5"/>
<text text-anchor="middle" x="1489.57" y="-123.9" font-family="DejaVuSans" font-size="12.00">math_formula.c</text>
</a>
</g>
</g>
<!-- Node40&#45;&gt;Node41 -->
<g id="edge72" class="edge">
<title>Node40&#45;&gt;Node41</title>
<path fill="none" stroke="midnightblue" d="M1220.72,-174.75C1222.02,-174.5 1223.31,-174.24 1224.57,-174 1299.53,-159.52 1386.84,-144.78 1440.14,-136.01"/>
<polygon fill="midnightblue" stroke="midnightblue" points="1219.77,-171.38 1210.66,-176.8 1221.16,-178.24 1219.77,-171.38"/>
</g>
<!-- Node42 -->
<g id="node42" class="node">
<title>Node42</title>
<g id="a_node42"><a xlink:href="mmode_8c.html" target="_top" xlink:title=" ">
<polygon fill="white" stroke="black" points="1557.07,-116.5 1557.07,-137.5 1622.07,-137.5 1622.07,-116.5 1557.07,-116.5"/>
<text text-anchor="middle" x="1589.57" y="-123.9" font-family="DejaVuSans" font-size="12.00">mmode.c</text>
</a>
</g>
</g>
<!-- Node40&#45;&gt;Node42 -->
<g id="edge73" class="edge">
<title>Node40&#45;&gt;Node42</title>
<path fill="none" stroke="midnightblue" d="M1220.7,-174.65C1222.01,-174.42 1223.3,-174.21 1224.57,-174 1367.16,-150.94 1405.27,-162.77 1547.57,-138 1550.53,-137.49 1553.58,-136.89 1556.64,-136.25"/>
<polygon fill="midnightblue" stroke="midnightblue" points="1219.8,-171.26 1210.62,-176.54 1221.09,-178.14 1219.8,-171.26"/>
</g>
</g>
</svg>
