<?xml version="1.0" encoding="UTF-8" standalone="no"?>
<!DOCTYPE svg PUBLIC "-//W3C//DTD SVG 1.1//EN"
 "http://www.w3.org/Graphics/SVG/1.1/DTD/svg11.dtd">
<!-- Generated by graphviz version 2.44.0 ()
 -->
<!-- Title: lexer.c Pages: 1 -->
<svg width="664pt" height="378pt"
 viewBox="0.00 0.00 663.50 378.00" xmlns="http://www.w3.org/2000/svg" xmlns:xlink="http://www.w3.org/1999/xlink">
<g id="graph0" class="graph" transform="scale(1 1) rotate(0) translate(4 374)">
<title>lexer.c</title>
<polygon fill="white" stroke="transparent" points="-4,4 -4,-374 659.5,-374 659.5,4 -4,4"/>
<!-- Node1 -->
<g id="node1" class="node">
<title>Node1</title>
<g id="a_node1"><a xlink:title=" ">
<polygon fill="#bfbfbf" stroke="black" points="258,-348.5 258,-369.5 309,-369.5 309,-348.5 258,-348.5"/>
<text text-anchor="middle" x="283.5" y="-355.9" font-family="DejaVuSans" font-size="12.00">lexer.c</text>
</a>
</g>
</g>
<!-- Node2 -->
<g id="node2" class="node">
<title>Node2</title>
<g id="a_node2"><a xlink:href="print_8h.html" target="_top" xlink:title=" ">
<polygon fill="white" stroke="black" points="241.5,-232.5 241.5,-253.5 291.5,-253.5 291.5,-232.5 241.5,-232.5"/>
<text text-anchor="middle" x="266.5" y="-239.9" font-family="DejaVuSans" font-size="12.00">print.h</text>
</a>
</g>
</g>
<!-- Node1&#45;&gt;Node2 -->
<g id="edge1" class="edge">
<title>Node1&#45;&gt;Node2</title>
<path fill="none" stroke="midnightblue" d="M257.91,-352.16C237.32,-345.97 209.73,-333.95 196.5,-312 183.32,-290.12 209.93,-270.43 234.05,-257.94"/>
<polygon fill="midnightblue" stroke="midnightblue" points="235.64,-261.06 243.08,-253.51 232.56,-254.77 235.64,-261.06"/>
</g>
<!-- Node13 -->
<g id="node13" class="node">
<title>Node13</title>
<g id="a_node13"><a xlink:href="global_8h.html" target="_top" xlink:title=" ">
<polygon fill="white" stroke="black" points="91.5,-290.5 91.5,-311.5 149.5,-311.5 149.5,-290.5 91.5,-290.5"/>
<text text-anchor="middle" x="120.5" y="-297.9" font-family="DejaVuSans" font-size="12.00">global.h</text>
</a>
</g>
</g>
<!-- Node1&#45;&gt;Node13 -->
<g id="edge15" class="edge">
<title>Node1&#45;&gt;Node13</title>
<path fill="none" stroke="midnightblue" d="M257.67,-349.13C230.78,-339.89 188.4,-325.33 157.86,-314.83"/>
<polygon fill="midnightblue" stroke="midnightblue" points="158.99,-311.52 148.39,-311.58 156.71,-318.14 158.99,-311.52"/>
</g>
<!-- Node16 -->
<g id="node16" class="node">
<title>Node16</title>
<g id="a_node16"><a xlink:href="lexer_8h.html" target="_top" xlink:title=" ">
<polygon fill="white" stroke="black" points="81.5,-174.5 81.5,-195.5 133.5,-195.5 133.5,-174.5 81.5,-174.5"/>
<text text-anchor="middle" x="107.5" y="-181.9" font-family="DejaVuSans" font-size="12.00">lexer.h</text>
</a>
</g>
</g>
<!-- Node1&#45;&gt;Node16 -->
<g id="edge31" class="edge">
<title>Node1&#45;&gt;Node16</title>
<path fill="none" stroke="midnightblue" d="M257.65,-355.99C208.41,-351.57 104.14,-339.15 82.5,-312 57.49,-280.62 79.98,-231.12 95.56,-204.46"/>
<polygon fill="midnightblue" stroke="midnightblue" points="98.65,-206.11 100.88,-195.75 92.68,-202.46 98.65,-206.11"/>
</g>
<!-- Node17 -->
<g id="node17" class="node">
<title>Node17</title>
<g id="a_node17"><a xlink:href="texfunc_8h.html" target="_top" xlink:title=" ">
<polygon fill="white" stroke="black" points="442,-232.5 442,-253.5 507,-253.5 507,-232.5 442,-232.5"/>
<text text-anchor="middle" x="474.5" y="-239.9" font-family="DejaVuSans" font-size="12.00">texfunc.h</text>
</a>
</g>
</g>
<!-- Node1&#45;&gt;Node17 -->
<g id="edge22" class="edge">
<title>Node1&#45;&gt;Node17</title>
<path fill="none" stroke="midnightblue" d="M309.26,-357.44C368.74,-355.55 512.87,-347.35 542.5,-312 559.12,-292.17 530.7,-271.43 505.68,-258.15"/>
<polygon fill="midnightblue" stroke="midnightblue" points="507.21,-255 496.7,-253.61 504.05,-261.25 507.21,-255"/>
</g>
<!-- Node18 -->
<g id="node18" class="node">
<title>Node18</title>
<g id="a_node18"><a xlink:href="printout_8h.html" target="_top" xlink:title=" ">
<polygon fill="white" stroke="black" points="205.5,-290.5 205.5,-311.5 271.5,-311.5 271.5,-290.5 205.5,-290.5"/>
<text text-anchor="middle" x="238.5" y="-297.9" font-family="DejaVuSans" font-size="12.00">printout.h</text>
</a>
</g>
</g>
<!-- Node1&#45;&gt;Node18 -->
<g id="edge24" class="edge">
<title>Node1&#45;&gt;Node18</title>
<path fill="none" stroke="midnightblue" d="M275.66,-348.25C269.34,-340.38 260.28,-329.1 252.69,-319.65"/>
<polygon fill="midnightblue" stroke="midnightblue" points="255.24,-317.25 246.25,-311.64 249.78,-321.63 255.24,-317.25"/>
</g>
<!-- Node19 -->
<g id="node19" class="node">
<title>Node19</title>
<g id="a_node19"><a xlink:href="pure__func_8h.html" target="_top" xlink:title=" ">
<polygon fill="white" stroke="black" points="289.5,-290.5 289.5,-311.5 369.5,-311.5 369.5,-290.5 289.5,-290.5"/>
<text text-anchor="middle" x="329.5" y="-297.9" font-family="DejaVuSans" font-size="12.00">pure_func.h</text>
</a>
</g>
</g>
<!-- Node1&#45;&gt;Node19 -->
<g id="edge25" class="edge">
<title>Node1&#45;&gt;Node19</title>
<path fill="none" stroke="midnightblue" d="M291.51,-348.25C297.98,-340.38 307.24,-329.1 315,-319.65"/>
<polygon fill="midnightblue" stroke="midnightblue" points="317.94,-321.59 321.58,-311.64 312.53,-317.15 317.94,-321.59"/>
</g>
<!-- Node20 -->
<g id="node20" class="node">
<title>Node20</title>
<g id="a_node20"><a xlink:href="macros_8h.html" target="_top" xlink:title=" ">
<polygon fill="white" stroke="black" points="388,-290.5 388,-311.5 453,-311.5 453,-290.5 388,-290.5"/>
<text text-anchor="middle" x="420.5" y="-297.9" font-family="DejaVuSans" font-size="12.00">macros.h</text>
</a>
</g>
</g>
<!-- Node1&#45;&gt;Node20 -->
<g id="edge26" class="edge">
<title>Node1&#45;&gt;Node20</title>
<path fill="none" stroke="midnightblue" d="M307.05,-348.37C329.34,-339.26 362.99,-325.51 387.86,-315.34"/>
<polygon fill="midnightblue" stroke="midnightblue" points="389.32,-318.52 397.26,-311.5 386.68,-312.05 389.32,-318.52"/>
</g>
<!-- Node21 -->
<g id="node21" class="node">
<title>Node21</title>
<g id="a_node21"><a xlink:href="inputln_8h.html" target="_top" xlink:title=" ">
<polygon fill="white" stroke="black" points="471.5,-290.5 471.5,-311.5 533.5,-311.5 533.5,-290.5 471.5,-290.5"/>
<text text-anchor="middle" x="502.5" y="-297.9" font-family="DejaVuSans" font-size="12.00">inputln.h</text>
</a>
</g>
</g>
<!-- Node1&#45;&gt;Node21 -->
<g id="edge27" class="edge">
<title>Node1&#45;&gt;Node21</title>
<path fill="none" stroke="midnightblue" d="M309.05,-351.47C346.53,-341.88 416.78,-323.92 461.52,-312.48"/>
<polygon fill="midnightblue" stroke="midnightblue" points="462.67,-315.8 471.49,-309.93 460.93,-309.02 462.67,-315.8"/>
</g>
<!-- Node22 -->
<g id="node22" class="node">
<title>Node22</title>
<g id="a_node22"><a xlink:href="funcs_8h.html" target="_top" xlink:title=" ">
<polygon fill="white" stroke="black" points="0,-174.5 0,-195.5 55,-195.5 55,-174.5 0,-174.5"/>
<text text-anchor="middle" x="27.5" y="-181.9" font-family="DejaVuSans" font-size="12.00">funcs.h</text>
</a>
</g>
</g>
<!-- Node1&#45;&gt;Node22 -->
<g id="edge28" class="edge">
<title>Node1&#45;&gt;Node22</title>
<path fill="none" stroke="midnightblue" d="M257.93,-355.66C207.38,-350.54 97.17,-336.78 69.5,-312 38.7,-284.42 30.44,-233.66 28.26,-205.73"/>
<polygon fill="midnightblue" stroke="midnightblue" points="31.74,-205.38 27.66,-195.6 24.76,-205.79 31.74,-205.38"/>
</g>
<!-- Node23 -->
<g id="node23" class="node">
<title>Node23</title>
<g id="a_node23"><a xlink:href="expand_8h.html" target="_top" xlink:title=" ">
<polygon fill="white" stroke="black" points="589.5,-290.5 589.5,-311.5 655.5,-311.5 655.5,-290.5 589.5,-290.5"/>
<text text-anchor="middle" x="622.5" y="-297.9" font-family="DejaVuSans" font-size="12.00">expand.h</text>
</a>
</g>
</g>
<!-- Node1&#45;&gt;Node23 -->
<g id="edge30" class="edge">
<title>Node1&#45;&gt;Node23</title>
<path fill="none" stroke="midnightblue" d="M309.36,-354.4C360.39,-347.19 477.6,-330.11 575.5,-312 576.77,-311.77 578.06,-311.52 579.35,-311.27"/>
<polygon fill="midnightblue" stroke="midnightblue" points="580.3,-314.65 589.42,-309.27 578.93,-307.79 580.3,-314.65"/>
</g>
<!-- Node3 -->
<g id="node3" class="node">
<title>Node3</title>
<g id="a_node3"><a xlink:href="tex__types_8h.html" target="_top" xlink:title=" ">
<polygon fill="white" stroke="black" points="210,-58.5 210,-79.5 287,-79.5 287,-58.5 210,-58.5"/>
<text text-anchor="middle" x="248.5" y="-65.9" font-family="DejaVuSans" font-size="12.00">tex_types.h</text>
</a>
</g>
</g>
<!-- Node2&#45;&gt;Node3 -->
<g id="edge2" class="edge">
<title>Node2&#45;&gt;Node3</title>
<path fill="none" stroke="midnightblue" d="M253.47,-232.31C243.42,-223.96 230.29,-210.92 224.5,-196 210.42,-159.69 226.78,-114.18 238.56,-88.99"/>
<polygon fill="midnightblue" stroke="midnightblue" points="241.8,-90.33 243.08,-79.81 235.52,-87.24 241.8,-90.33"/>
</g>
<!-- Node6 -->
<g id="node6" class="node">
<title>Node6</title>
<g id="a_node6"><a xlink:href="tex_8h.html" target="_top" xlink:title=" ">
<polygon fill="white" stroke="black" points="135.5,-116.5 135.5,-137.5 177.5,-137.5 177.5,-116.5 135.5,-116.5"/>
<text text-anchor="middle" x="156.5" y="-123.9" font-family="DejaVuSans" font-size="12.00">tex.h</text>
</a>
</g>
</g>
<!-- Node2&#45;&gt;Node6 -->
<g id="edge5" class="edge">
<title>Node2&#45;&gt;Node6</title>
<path fill="none" stroke="midnightblue" d="M244.25,-232.38C228.02,-224.49 206.36,-212.01 191.5,-196 178.42,-181.9 168.94,-161.99 163.17,-147.35"/>
<polygon fill="midnightblue" stroke="midnightblue" points="166.38,-145.95 159.62,-137.79 159.82,-148.38 166.38,-145.95"/>
</g>
<!-- Node8 -->
<g id="node8" class="node">
<title>Node8</title>
<g id="a_node8"><a xlink:href="texmac_8h.html" target="_top" xlink:title=" ">
<polygon fill="white" stroke="black" points="234,-174.5 234,-195.5 299,-195.5 299,-174.5 234,-174.5"/>
<text text-anchor="middle" x="266.5" y="-181.9" font-family="DejaVuSans" font-size="12.00">texmac.h</text>
</a>
</g>
</g>
<!-- Node2&#45;&gt;Node8 -->
<g id="edge8" class="edge">
<title>Node2&#45;&gt;Node8</title>
<path fill="none" stroke="midnightblue" d="M266.5,-232.25C266.5,-224.94 266.5,-214.69 266.5,-205.7"/>
<polygon fill="midnightblue" stroke="midnightblue" points="270,-205.64 266.5,-195.64 263,-205.64 270,-205.64"/>
</g>
<!-- Node9 -->
<g id="node9" class="node">
<title>Node9</title>
<g id="a_node9"><a xlink:href="str_8h.html" target="_top" xlink:title=" ">
<polygon fill="white" stroke="black" points="317,-174.5 317,-195.5 356,-195.5 356,-174.5 317,-174.5"/>
<text text-anchor="middle" x="336.5" y="-181.9" font-family="DejaVuSans" font-size="12.00">str.h</text>
</a>
</g>
</g>
<!-- Node2&#45;&gt;Node9 -->
<g id="edge9" class="edge">
<title>Node2&#45;&gt;Node9</title>
<path fill="none" stroke="midnightblue" d="M278.69,-232.25C289.13,-223.89 304.37,-211.71 316.57,-201.94"/>
<polygon fill="midnightblue" stroke="midnightblue" points="318.82,-204.62 324.45,-195.64 314.45,-199.16 318.82,-204.62"/>
</g>
<!-- Node4 -->
<g id="node4" class="node">
<title>Node4</title>
<g id="a_node4"><a xlink:title=" ">
<polygon fill="white" stroke="#bfbfbf" points="216,-0.5 216,-21.5 281,-21.5 281,-0.5 216,-0.5"/>
<text text-anchor="middle" x="248.5" y="-7.9" font-family="DejaVuSans" font-size="12.00">stdbool.h</text>
</a>
</g>
</g>
<!-- Node3&#45;&gt;Node4 -->
<g id="edge3" class="edge">
<title>Node3&#45;&gt;Node4</title>
<path fill="none" stroke="midnightblue" d="M248.5,-58.25C248.5,-50.94 248.5,-40.69 248.5,-31.7"/>
<polygon fill="midnightblue" stroke="midnightblue" points="252,-31.64 248.5,-21.64 245,-31.64 252,-31.64"/>
</g>
<!-- Node5 -->
<g id="node5" class="node">
<title>Node5</title>
<g id="a_node5"><a xlink:title=" ">
<polygon fill="white" stroke="#bfbfbf" points="340,-0.5 340,-21.5 395,-21.5 395,-0.5 340,-0.5"/>
<text text-anchor="middle" x="367.5" y="-7.9" font-family="DejaVuSans" font-size="12.00">stdint.h</text>
</a>
</g>
</g>
<!-- Node3&#45;&gt;Node5 -->
<g id="edge4" class="edge">
<title>Node3&#45;&gt;Node5</title>
<path fill="none" stroke="midnightblue" d="M268.96,-58.37C287.97,-49.42 316.52,-35.99 338,-25.88"/>
<polygon fill="midnightblue" stroke="midnightblue" points="339.75,-28.93 347.31,-21.5 336.77,-22.59 339.75,-28.93"/>
</g>
<!-- Node6&#45;&gt;Node3 -->
<g id="edge6" class="edge">
<title>Node6&#45;&gt;Node3</title>
<path fill="none" stroke="midnightblue" d="M172.53,-116.25C186.64,-107.65 207.43,-95 223.69,-85.1"/>
<polygon fill="midnightblue" stroke="midnightblue" points="225.94,-87.83 232.66,-79.64 222.3,-81.85 225.94,-87.83"/>
</g>
<!-- Node7 -->
<g id="node7" class="node">
<title>Node7</title>
<g id="a_node7"><a xlink:href="tex__constant_8h.html" target="_top" xlink:title=" ">
<polygon fill="white" stroke="black" points="97.5,-58.5 97.5,-79.5 191.5,-79.5 191.5,-58.5 97.5,-58.5"/>
<text text-anchor="middle" x="144.5" y="-65.9" font-family="DejaVuSans" font-size="12.00">tex_constant.h</text>
</a>
</g>
</g>
<!-- Node6&#45;&gt;Node7 -->
<g id="edge7" class="edge">
<title>Node6&#45;&gt;Node7</title>
<path fill="none" stroke="midnightblue" d="M154.41,-116.25C152.84,-108.94 150.65,-98.69 148.72,-89.7"/>
<polygon fill="midnightblue" stroke="midnightblue" points="152.08,-88.69 146.57,-79.64 145.24,-90.15 152.08,-88.69"/>
</g>
<!-- Node9&#45;&gt;Node3 -->
<g id="edge14" class="edge">
<title>Node9&#45;&gt;Node3</title>
<path fill="none" stroke="midnightblue" d="M318.89,-174.35C305.43,-166.2 287.24,-153.4 275.5,-138 264.45,-123.51 257.31,-103.91 253.16,-89.47"/>
<polygon fill="midnightblue" stroke="midnightblue" points="256.5,-88.39 250.56,-79.61 249.73,-90.18 256.5,-88.39"/>
</g>
<!-- Node9&#45;&gt;Node5 -->
<g id="edge11" class="edge">
<title>Node9&#45;&gt;Node5</title>
<path fill="none" stroke="midnightblue" d="M352.92,-174.22C364.71,-166.16 379.67,-153.55 386.5,-138 402.13,-102.39 387.33,-56.28 376.53,-30.87"/>
<polygon fill="midnightblue" stroke="midnightblue" points="379.67,-29.32 372.38,-21.63 373.29,-32.19 379.67,-29.32"/>
</g>
<!-- Node10 -->
<g id="node10" class="node">
<title>Node10</title>
<g id="a_node10"><a xlink:title=" ">
<polygon fill="white" stroke="#bfbfbf" points="65.5,-116.5 65.5,-137.5 117.5,-137.5 117.5,-116.5 65.5,-116.5"/>
<text text-anchor="middle" x="91.5" y="-123.9" font-family="DejaVuSans" font-size="12.00">stdio.h</text>
</a>
</g>
</g>
<!-- Node9&#45;&gt;Node10 -->
<g id="edge10" class="edge">
<title>Node9&#45;&gt;Node10</title>
<path fill="none" stroke="midnightblue" d="M316.96,-176.86C313.82,-175.83 310.58,-174.83 307.5,-174 231.42,-153.42 208.04,-156.96 127.88,-138.17"/>
<polygon fill="midnightblue" stroke="midnightblue" points="128.35,-134.69 117.81,-135.77 126.72,-141.5 128.35,-134.69"/>
</g>
<!-- Node11 -->
<g id="node11" class="node">
<title>Node11</title>
<g id="a_node11"><a xlink:href="global__const_8h.html" target="_top" xlink:title=" ">
<polygon fill="white" stroke="black" points="285,-116.5 285,-137.5 378,-137.5 378,-116.5 285,-116.5"/>
<text text-anchor="middle" x="331.5" y="-123.9" font-family="DejaVuSans" font-size="12.00">global_const.h</text>
</a>
</g>
</g>
<!-- Node9&#45;&gt;Node11 -->
<g id="edge12" class="edge">
<title>Node9&#45;&gt;Node11</title>
<path fill="none" stroke="midnightblue" d="M335.63,-174.25C334.98,-166.94 334.06,-156.69 333.26,-147.7"/>
<polygon fill="midnightblue" stroke="midnightblue" points="336.74,-147.29 332.36,-137.64 329.76,-147.91 336.74,-147.29"/>
</g>
<!-- Node12 -->
<g id="node12" class="node">
<title>Node12</title>
<g id="a_node12"><a xlink:title=" ">
<polygon fill="white" stroke="#bfbfbf" points="305,-58.5 305,-79.5 364,-79.5 364,-58.5 305,-58.5"/>
<text text-anchor="middle" x="334.5" y="-65.9" font-family="DejaVuSans" font-size="12.00">assert.h</text>
</a>
</g>
</g>
<!-- Node11&#45;&gt;Node12 -->
<g id="edge13" class="edge">
<title>Node11&#45;&gt;Node12</title>
<path fill="none" stroke="midnightblue" d="M332.02,-116.25C332.41,-108.94 332.96,-98.69 333.44,-89.7"/>
<polygon fill="midnightblue" stroke="midnightblue" points="336.94,-89.82 333.98,-79.64 329.95,-89.44 336.94,-89.82"/>
</g>
<!-- Node13&#45;&gt;Node9 -->
<g id="edge17" class="edge">
<title>Node13&#45;&gt;Node9</title>
<path fill="none" stroke="midnightblue" d="M149.67,-295.49C194.4,-288.09 277.19,-272.36 300.5,-254 316.19,-241.65 325.83,-220.53 331.14,-205.1"/>
<polygon fill="midnightblue" stroke="midnightblue" points="334.5,-206.09 334.14,-195.5 327.81,-204 334.5,-206.09"/>
</g>
<!-- Node14 -->
<g id="node14" class="node">
<title>Node14</title>
<g id="a_node14"><a xlink:title=" ">
<polygon fill="white" stroke="#bfbfbf" points="161.5,-232.5 161.5,-253.5 223.5,-253.5 223.5,-232.5 161.5,-232.5"/>
<text text-anchor="middle" x="192.5" y="-239.9" font-family="DejaVuSans" font-size="12.00">setjmp.h</text>
</a>
</g>
</g>
<!-- Node13&#45;&gt;Node14 -->
<g id="edge16" class="edge">
<title>Node13&#45;&gt;Node14</title>
<path fill="none" stroke="midnightblue" d="M133.04,-290.25C143.78,-281.89 159.45,-269.71 172,-259.94"/>
<polygon fill="midnightblue" stroke="midnightblue" points="174.36,-262.54 180.1,-253.64 170.06,-257.02 174.36,-262.54"/>
</g>
<!-- Node15 -->
<g id="node15" class="node">
<title>Node15</title>
<g id="a_node15"><a xlink:href="scan_8h.html" target="_top" xlink:title=" ">
<polygon fill="white" stroke="black" points="91.5,-232.5 91.5,-253.5 143.5,-253.5 143.5,-232.5 91.5,-232.5"/>
<text text-anchor="middle" x="117.5" y="-239.9" font-family="DejaVuSans" font-size="12.00">scan.h</text>
</a>
</g>
</g>
<!-- Node13&#45;&gt;Node15 -->
<g id="edge18" class="edge">
<title>Node13&#45;&gt;Node15</title>
<path fill="none" stroke="midnightblue" d="M119.98,-290.25C119.59,-282.94 119.04,-272.69 118.56,-263.7"/>
<polygon fill="midnightblue" stroke="midnightblue" points="122.05,-263.44 118.02,-253.64 115.06,-263.82 122.05,-263.44"/>
</g>
<!-- Node15&#45;&gt;Node16 -->
<g id="edge19" class="edge">
<title>Node15&#45;&gt;Node16</title>
<path fill="none" stroke="midnightblue" d="M115.76,-232.25C114.45,-224.94 112.62,-214.69 111.02,-205.7"/>
<polygon fill="midnightblue" stroke="midnightblue" points="114.43,-204.87 109.22,-195.64 107.53,-206.1 114.43,-204.87"/>
</g>
<!-- Node16&#45;&gt;Node6 -->
<g id="edge21" class="edge">
<title>Node16&#45;&gt;Node6</title>
<path fill="none" stroke="midnightblue" d="M116.04,-174.25C122.99,-166.3 132.99,-154.87 141.31,-145.37"/>
<polygon fill="midnightblue" stroke="midnightblue" points="144.11,-147.47 148.06,-137.64 138.84,-142.86 144.11,-147.47"/>
</g>
<!-- Node16&#45;&gt;Node10 -->
<g id="edge20" class="edge">
<title>Node16&#45;&gt;Node10</title>
<path fill="none" stroke="midnightblue" d="M104.71,-174.25C102.6,-166.86 99.63,-156.47 97.05,-147.41"/>
<polygon fill="midnightblue" stroke="midnightblue" points="100.37,-146.3 94.26,-137.64 93.64,-148.22 100.37,-146.3"/>
</g>
<!-- Node17&#45;&gt;Node9 -->
<g id="edge23" class="edge">
<title>Node17&#45;&gt;Node9</title>
<path fill="none" stroke="midnightblue" d="M450.78,-232.37C427.24,-222.82 391.11,-208.16 365.8,-197.89"/>
<polygon fill="midnightblue" stroke="midnightblue" points="366.92,-194.57 356.34,-194.05 364.29,-201.05 366.92,-194.57"/>
</g>
<!-- Node22&#45;&gt;Node10 -->
<g id="edge29" class="edge">
<title>Node22&#45;&gt;Node10</title>
<path fill="none" stroke="midnightblue" d="M38.65,-174.25C48.01,-166.05 61.59,-154.17 72.63,-144.51"/>
<polygon fill="midnightblue" stroke="midnightblue" points="75.26,-146.86 80.48,-137.64 70.65,-141.59 75.26,-146.86"/>
</g>
</g>
</svg>
