<?xml version="1.0" encoding="UTF-8" standalone="no"?>
<!DOCTYPE svg PUBLIC "-//W3C//DTD SVG 1.1//EN"
 "http://www.w3.org/Graphics/SVG/1.1/DTD/svg11.dtd">
<!-- Generated by graphviz version 2.44.0 ()
 -->
<!-- Title: lexer.c Pages: 1 -->
<svg width="1082pt" height="552pt"
 viewBox="0.00 0.00 1082.00 552.00" xmlns="http://www.w3.org/2000/svg" xmlns:xlink="http://www.w3.org/1999/xlink">
<g id="graph0" class="graph" transform="scale(1 1) rotate(0) translate(4 548)">
<title>lexer.c</title>
<polygon fill="white" stroke="transparent" points="-4,4 -4,-548 1078,-548 1078,4 -4,4"/>
<!-- Node1 -->
<g id="node1" class="node">
<title>Node1</title>
<g id="a_node1"><a xlink:title=" ">
<polygon fill="#bfbfbf" stroke="black" points="478.5,-522.5 478.5,-543.5 529.5,-543.5 529.5,-522.5 478.5,-522.5"/>
<text text-anchor="middle" x="504" y="-529.9" font-family="DejaVuSans" font-size="12.00">lexer.c</text>
</a>
</g>
</g>
<!-- Node2 -->
<g id="node2" class="node">
<title>Node2</title>
<g id="a_node2"><a xlink:title=" ">
<polygon fill="white" stroke="#bfbfbf" points="0,-464.5 0,-485.5 54,-485.5 54,-464.5 0,-464.5"/>
<text text-anchor="middle" x="27" y="-471.9" font-family="DejaVuSans" font-size="12.00">stdlib.h</text>
</a>
</g>
</g>
<!-- Node1&#45;&gt;Node2 -->
<g id="edge1" class="edge">
<title>Node1&#45;&gt;Node2</title>
<path fill="none" stroke="midnightblue" d="M478.43,-530.83C411.74,-527.46 226.96,-516.1 64.21,-485.94"/>
<polygon fill="midnightblue" stroke="midnightblue" points="64.49,-482.44 54.01,-484.02 63.19,-489.31 64.49,-482.44"/>
</g>
<!-- Node3 -->
<g id="node3" class="node">
<title>Node3</title>
<g id="a_node3"><a xlink:title=" ">
<polygon fill="white" stroke="#bfbfbf" points="72.5,-464.5 72.5,-485.5 125.5,-485.5 125.5,-464.5 72.5,-464.5"/>
<text text-anchor="middle" x="99" y="-471.9" font-family="DejaVuSans" font-size="12.00">math.h</text>
</a>
</g>
</g>
<!-- Node1&#45;&gt;Node3 -->
<g id="edge2" class="edge">
<title>Node1&#45;&gt;Node3</title>
<path fill="none" stroke="midnightblue" d="M478.25,-529.76C418.5,-524.34 265.91,-509.23 140,-486 138.56,-485.73 137.09,-485.45 135.61,-485.15"/>
<polygon fill="midnightblue" stroke="midnightblue" points="136.33,-481.72 125.81,-483 134.83,-488.56 136.33,-481.72"/>
</g>
<!-- Node4 -->
<g id="node4" class="node">
<title>Node4</title>
<g id="a_node4"><a xlink:href="print_8h.html" target="_top" xlink:title=" ">
<polygon fill="white" stroke="black" points="380,-406.5 380,-427.5 430,-427.5 430,-406.5 380,-406.5"/>
<text text-anchor="middle" x="405" y="-413.9" font-family="DejaVuSans" font-size="12.00">print.h</text>
</a>
</g>
</g>
<!-- Node1&#45;&gt;Node4 -->
<g id="edge3" class="edge">
<title>Node1&#45;&gt;Node4</title>
<path fill="none" stroke="midnightblue" d="M478.14,-528.44C453.57,-523.54 417.94,-512.13 401,-486 391.77,-471.77 394.14,-452.14 398.01,-437.62"/>
<polygon fill="midnightblue" stroke="midnightblue" points="401.47,-438.29 401.09,-427.7 394.78,-436.21 401.47,-438.29"/>
</g>
<!-- Node14 -->
<g id="node14" class="node">
<title>Node14</title>
<g id="a_node14"><a xlink:href="box_8h.html" target="_top" xlink:title=" ">
<polygon fill="white" stroke="black" points="342,-232.5 342,-253.5 388,-253.5 388,-232.5 342,-232.5"/>
<text text-anchor="middle" x="365" y="-239.9" font-family="DejaVuSans" font-size="12.00">box.h</text>
</a>
</g>
</g>
<!-- Node1&#45;&gt;Node14 -->
<g id="edge59" class="edge">
<title>Node1&#45;&gt;Node14</title>
<path fill="none" stroke="midnightblue" d="M478.32,-530.97C447.2,-528.24 395.51,-518.71 368,-486 313.53,-421.24 342.91,-308.6 357.92,-263.5"/>
<polygon fill="midnightblue" stroke="midnightblue" points="361.32,-264.37 361.28,-253.78 354.7,-262.08 361.32,-264.37"/>
</g>
<!-- Node16 -->
<g id="node16" class="node">
<title>Node16</title>
<g id="a_node16"><a xlink:href="texmath_8h.html" target="_top" xlink:title=" ">
<polygon fill="white" stroke="black" points="180,-174.5 180,-195.5 248,-195.5 248,-174.5 180,-174.5"/>
<text text-anchor="middle" x="214" y="-181.9" font-family="DejaVuSans" font-size="12.00">texmath.h</text>
</a>
</g>
</g>
<!-- Node1&#45;&gt;Node16 -->
<g id="edge60" class="edge">
<title>Node1&#45;&gt;Node16</title>
<path fill="none" stroke="midnightblue" d="M478.26,-529.26C397.44,-519.94 154,-486.22 154,-418 154,-418 154,-418 154,-300 154,-268.62 157.95,-259.53 173,-232 178.85,-221.3 187.62,-211.01 195.55,-202.88"/>
<polygon fill="midnightblue" stroke="midnightblue" points="198.35,-205.03 203.06,-195.54 193.46,-200.03 198.35,-205.03"/>
</g>
<!-- Node18 -->
<g id="node18" class="node">
<title>Node18</title>
<g id="a_node18"><a xlink:href="global_8h.html" target="_top" xlink:title=" ">
<polygon fill="white" stroke="black" points="562,-290.5 562,-311.5 620,-311.5 620,-290.5 562,-290.5"/>
<text text-anchor="middle" x="591" y="-297.9" font-family="DejaVuSans" font-size="12.00">global.h</text>
</a>
</g>
</g>
<!-- Node1&#45;&gt;Node18 -->
<g id="edge28" class="edge">
<title>Node1&#45;&gt;Node18</title>
<path fill="none" stroke="midnightblue" d="M529.74,-526.45C550.83,-520.41 579.34,-508.43 593,-486 624.77,-433.82 607.96,-356.93 597.42,-321.36"/>
<polygon fill="midnightblue" stroke="midnightblue" points="600.73,-320.22 594.41,-311.72 594.05,-322.31 600.73,-320.22"/>
</g>
<!-- Node20 -->
<g id="node20" class="node">
<title>Node20</title>
<g id="a_node20"><a xlink:href="texfunc_8h.html" target="_top" xlink:title=" ">
<polygon fill="white" stroke="black" points="182.5,-232.5 182.5,-253.5 247.5,-253.5 247.5,-232.5 182.5,-232.5"/>
<text text-anchor="middle" x="215" y="-239.9" font-family="DejaVuSans" font-size="12.00">texfunc.h</text>
</a>
</g>
</g>
<!-- Node1&#45;&gt;Node20 -->
<g id="edge32" class="edge">
<title>Node1&#45;&gt;Node20</title>
<path fill="none" stroke="midnightblue" d="M478.07,-527.25C408.5,-513.79 223,-472.75 223,-418 223,-418 223,-418 223,-358 223,-324.9 219.6,-286.53 217.24,-263.82"/>
<polygon fill="midnightblue" stroke="midnightblue" points="220.7,-263.31 216.15,-253.74 213.74,-264.06 220.7,-263.31"/>
</g>
<!-- Node21 -->
<g id="node21" class="node">
<title>Node21</title>
<g id="a_node21"><a xlink:href="printout_8h.html" target="_top" xlink:title=" ">
<polygon fill="white" stroke="black" points="410,-464.5 410,-485.5 476,-485.5 476,-464.5 410,-464.5"/>
<text text-anchor="middle" x="443" y="-471.9" font-family="DejaVuSans" font-size="12.00">printout.h</text>
</a>
</g>
</g>
<!-- Node1&#45;&gt;Node21 -->
<g id="edge35" class="edge">
<title>Node1&#45;&gt;Node21</title>
<path fill="none" stroke="midnightblue" d="M493.37,-522.25C484.45,-514.05 471.51,-502.17 460.98,-492.51"/>
<polygon fill="midnightblue" stroke="midnightblue" points="463.24,-489.83 453.5,-485.64 458.5,-494.98 463.24,-489.83"/>
</g>
<!-- Node22 -->
<g id="node22" class="node">
<title>Node22</title>
<g id="a_node22"><a xlink:href="macros_8h.html" target="_top" xlink:title=" ">
<polygon fill="white" stroke="black" points="866.5,-290.5 866.5,-311.5 931.5,-311.5 931.5,-290.5 866.5,-290.5"/>
<text text-anchor="middle" x="899" y="-297.9" font-family="DejaVuSans" font-size="12.00">macros.h</text>
</a>
</g>
</g>
<!-- Node1&#45;&gt;Node22 -->
<g id="edge36" class="edge">
<title>Node1&#45;&gt;Node22</title>
<path fill="none" stroke="midnightblue" d="M529.67,-532.15C603.63,-532.08 815.17,-528.12 867,-486 916.01,-446.17 908.97,-360.44 902.79,-321.71"/>
<polygon fill="midnightblue" stroke="midnightblue" points="906.22,-320.95 901.05,-311.7 899.32,-322.15 906.22,-320.95"/>
</g>
<!-- Node23 -->
<g id="node23" class="node">
<title>Node23</title>
<g id="a_node23"><a xlink:href="io_8h.html" target="_top" xlink:title=" ">
<polygon fill="white" stroke="black" points="548,-348.5 548,-369.5 584,-369.5 584,-348.5 548,-348.5"/>
<text text-anchor="middle" x="566" y="-355.9" font-family="DejaVuSans" font-size="12.00">io.h</text>
</a>
</g>
</g>
<!-- Node1&#45;&gt;Node23 -->
<g id="edge37" class="edge">
<title>Node1&#45;&gt;Node23</title>
<path fill="none" stroke="midnightblue" d="M506.35,-522.2C509.62,-508.89 515.96,-484.39 523,-464 533.47,-433.66 548.2,-399.44 557.42,-378.81"/>
<polygon fill="midnightblue" stroke="midnightblue" points="560.66,-380.16 561.58,-369.6 554.27,-377.28 560.66,-380.16"/>
</g>
<!-- Node24 -->
<g id="node24" class="node">
<title>Node24</title>
<g id="a_node24"><a xlink:href="expand_8h.html" target="_top" xlink:title=" ">
<polygon fill="white" stroke="black" points="670,-406.5 670,-427.5 736,-427.5 736,-406.5 670,-406.5"/>
<text text-anchor="middle" x="703" y="-413.9" font-family="DejaVuSans" font-size="12.00">expand.h</text>
</a>
</g>
</g>
<!-- Node1&#45;&gt;Node24 -->
<g id="edge41" class="edge">
<title>Node1&#45;&gt;Node24</title>
<path fill="none" stroke="midnightblue" d="M529.65,-529.82C577.95,-525.13 679.49,-512.31 701,-486 711.95,-472.61 711.02,-452.28 708.23,-437.34"/>
<polygon fill="midnightblue" stroke="midnightblue" points="711.64,-436.56 706.01,-427.59 704.82,-438.12 711.64,-436.56"/>
</g>
<!-- Node25 -->
<g id="node25" class="node">
<title>Node25</title>
<g id="a_node25"><a xlink:href="error_8h.html" target="_top" xlink:title=" ">
<polygon fill="white" stroke="black" points="640.5,-464.5 640.5,-485.5 691.5,-485.5 691.5,-464.5 640.5,-464.5"/>
<text text-anchor="middle" x="666" y="-471.9" font-family="DejaVuSans" font-size="12.00">error.h</text>
</a>
</g>
</g>
<!-- Node1&#45;&gt;Node25 -->
<g id="edge43" class="edge">
<title>Node1&#45;&gt;Node25</title>
<path fill="none" stroke="midnightblue" d="M529.67,-523.13C556.92,-513.71 600.18,-498.75 630.65,-488.22"/>
<polygon fill="midnightblue" stroke="midnightblue" points="632.14,-491.41 640.45,-484.83 629.86,-484.79 632.14,-491.41"/>
</g>
<!-- Node26 -->
<g id="node26" class="node">
<title>Node26</title>
<g id="a_node26"><a xlink:href="hash_8h.html" target="_top" xlink:title=" ">
<polygon fill="white" stroke="black" points="754.5,-406.5 754.5,-427.5 807.5,-427.5 807.5,-406.5 754.5,-406.5"/>
<text text-anchor="middle" x="781" y="-413.9" font-family="DejaVuSans" font-size="12.00">hash.h</text>
</a>
</g>
</g>
<!-- Node1&#45;&gt;Node26 -->
<g id="edge44" class="edge">
<title>Node1&#45;&gt;Node26</title>
<path fill="none" stroke="midnightblue" d="M529.62,-531.49C571.83,-529.61 657.43,-521.35 719,-486 740.31,-473.77 758.4,-451.69 769.44,-436.01"/>
<polygon fill="midnightblue" stroke="midnightblue" points="772.39,-437.88 775.1,-427.64 766.59,-433.96 772.39,-437.88"/>
</g>
<!-- Node28 -->
<g id="node28" class="node">
<title>Node28</title>
<g id="a_node28"><a xlink:href="mem_8h.html" target="_top" xlink:title=" ">
<polygon fill="white" stroke="black" points="408.5,-348.5 408.5,-369.5 461.5,-369.5 461.5,-348.5 408.5,-348.5"/>
<text text-anchor="middle" x="435" y="-355.9" font-family="DejaVuSans" font-size="12.00">mem.h</text>
</a>
</g>
</g>
<!-- Node1&#45;&gt;Node28 -->
<g id="edge55" class="edge">
<title>Node1&#45;&gt;Node28</title>
<path fill="none" stroke="midnightblue" d="M478.25,-528.07C452.51,-522.82 413.47,-511.1 390,-486 365.04,-459.31 354.33,-438.52 371,-406 377.93,-392.48 390.89,-382.03 403.35,-374.54"/>
<polygon fill="midnightblue" stroke="midnightblue" points="405.19,-377.52 412.23,-369.6 401.79,-371.4 405.19,-377.52"/>
</g>
<!-- Node29 -->
<g id="node29" class="node">
<title>Node29</title>
<g id="a_node29"><a xlink:href="align_8h.html" target="_top" xlink:title=" ">
<polygon fill="white" stroke="black" points="532,-464.5 532,-485.5 584,-485.5 584,-464.5 532,-464.5"/>
<text text-anchor="middle" x="558" y="-471.9" font-family="DejaVuSans" font-size="12.00">align.h</text>
</a>
</g>
</g>
<!-- Node1&#45;&gt;Node29 -->
<g id="edge61" class="edge">
<title>Node1&#45;&gt;Node29</title>
<path fill="none" stroke="midnightblue" d="M513.41,-522.25C521.15,-514.22 532.31,-502.64 541.53,-493.08"/>
<polygon fill="midnightblue" stroke="midnightblue" points="544.28,-495.27 548.7,-485.64 539.24,-490.41 544.28,-495.27"/>
</g>
<!-- Node30 -->
<g id="node30" class="node">
<title>Node30</title>
<g id="a_node30"><a xlink:href="lexer_8h.html" target="_top" xlink:title=" ">
<polygon fill="white" stroke="black" points="826,-406.5 826,-427.5 878,-427.5 878,-406.5 826,-406.5"/>
<text text-anchor="middle" x="852" y="-413.9" font-family="DejaVuSans" font-size="12.00">lexer.h</text>
</a>
</g>
</g>
<!-- Node1&#45;&gt;Node30 -->
<g id="edge68" class="edge">
<title>Node1&#45;&gt;Node30</title>
<path fill="none" stroke="midnightblue" d="M529.52,-532.62C601.94,-533.77 806.21,-532.75 849,-486 860.68,-473.23 859.98,-452.82 857.24,-437.69"/>
<polygon fill="midnightblue" stroke="midnightblue" points="860.63,-436.78 855.03,-427.78 853.79,-438.31 860.63,-436.78"/>
</g>
<!-- Node31 -->
<g id="node31" class="node">
<title>Node31</title>
<g id="a_node31"><a xlink:href="page_8h.html" target="_top" xlink:title=" ">
<polygon fill="white" stroke="black" points="786.5,-464.5 786.5,-485.5 839.5,-485.5 839.5,-464.5 786.5,-464.5"/>
<text text-anchor="middle" x="813" y="-471.9" font-family="DejaVuSans" font-size="12.00">page.h</text>
</a>
</g>
</g>
<!-- Node1&#45;&gt;Node31 -->
<g id="edge66" class="edge">
<title>Node1&#45;&gt;Node31</title>
<path fill="none" stroke="midnightblue" d="M529.61,-528.21C577.43,-521 683.48,-504.37 772,-486 773.43,-485.7 774.9,-485.39 776.37,-485.07"/>
<polygon fill="midnightblue" stroke="midnightblue" points="777.19,-488.47 786.15,-482.83 775.63,-481.65 777.19,-488.47"/>
</g>
<!-- Node5 -->
<g id="node5" class="node">
<title>Node5</title>
<g id="a_node5"><a xlink:href="charset_8h.html" target="_top" xlink:title=" ">
<polygon fill="white" stroke="black" points="459.5,-116.5 459.5,-137.5 524.5,-137.5 524.5,-116.5 459.5,-116.5"/>
<text text-anchor="middle" x="492" y="-123.9" font-family="DejaVuSans" font-size="12.00">charset.h</text>
</a>
</g>
</g>
<!-- Node4&#45;&gt;Node5 -->
<g id="edge4" class="edge">
<title>Node4&#45;&gt;Node5</title>
<path fill="none" stroke="midnightblue" d="M402.98,-406.27C398.91,-384.79 391.09,-331.88 403,-290 419.16,-233.18 458.09,-174.31 478.7,-145.72"/>
<polygon fill="midnightblue" stroke="midnightblue" points="481.6,-147.68 484.69,-137.54 475.96,-143.54 481.6,-147.68"/>
</g>
<!-- Node6 -->
<g id="node6" class="node">
<title>Node6</title>
<g id="a_node6"><a xlink:href="tex__types_8h.html" target="_top" xlink:title=" ">
<polygon fill="white" stroke="black" points="326.5,-58.5 326.5,-79.5 403.5,-79.5 403.5,-58.5 326.5,-58.5"/>
<text text-anchor="middle" x="365" y="-65.9" font-family="DejaVuSans" font-size="12.00">tex_types.h</text>
</a>
</g>
</g>
<!-- Node4&#45;&gt;Node6 -->
<g id="edge8" class="edge">
<title>Node4&#45;&gt;Node6</title>
<path fill="none" stroke="midnightblue" d="M398.04,-406.4C381,-382.27 337.39,-316.52 321,-254 305.41,-194.55 305,-172.15 330,-116 334.61,-105.66 341.95,-95.5 348.72,-87.37"/>
<polygon fill="midnightblue" stroke="midnightblue" points="351.48,-89.54 355.44,-79.71 346.21,-84.92 351.48,-89.54"/>
</g>
<!-- Node9 -->
<g id="node9" class="node">
<title>Node9</title>
<g id="a_node9"><a xlink:href="tex_8h.html" target="_top" xlink:title=" ">
<polygon fill="white" stroke="black" points="714,-348.5 714,-369.5 756,-369.5 756,-348.5 714,-348.5"/>
<text text-anchor="middle" x="735" y="-355.9" font-family="DejaVuSans" font-size="12.00">tex.h</text>
</a>
</g>
</g>
<!-- Node4&#45;&gt;Node9 -->
<g id="edge9" class="edge">
<title>Node4&#45;&gt;Node9</title>
<path fill="none" stroke="midnightblue" d="M430.06,-413.15C481.18,-407.12 601.03,-391.77 700,-370 701.25,-369.73 702.52,-369.43 703.8,-369.12"/>
<polygon fill="midnightblue" stroke="midnightblue" points="704.84,-372.47 713.64,-366.56 703.08,-365.7 704.84,-372.47"/>
</g>
<!-- Node15 -->
<g id="node15" class="node">
<title>Node15</title>
<g id="a_node15"><a xlink:href="str_8h.html" target="_top" xlink:title=" ">
<polygon fill="white" stroke="black" points="697.5,-174.5 697.5,-195.5 736.5,-195.5 736.5,-174.5 697.5,-174.5"/>
<text text-anchor="middle" x="717" y="-181.9" font-family="DejaVuSans" font-size="12.00">str.h</text>
</a>
</g>
</g>
<!-- Node4&#45;&gt;Node15 -->
<g id="edge27" class="edge">
<title>Node4&#45;&gt;Node15</title>
<path fill="none" stroke="midnightblue" d="M430.31,-414.15C467.97,-410.48 540,-399.83 593,-370 653.08,-336.18 664.18,-315.16 696,-254 704.01,-238.6 709.55,-219.63 712.92,-205.64"/>
<polygon fill="midnightblue" stroke="midnightblue" points="716.39,-206.18 715.17,-195.66 709.56,-204.65 716.39,-206.18"/>
</g>
<!-- Node17 -->
<g id="node17" class="node">
<title>Node17</title>
<g id="a_node17"><a xlink:href="eqtb_8h.html" target="_top" xlink:title=" ">
<polygon fill="white" stroke="black" points="480,-348.5 480,-369.5 530,-369.5 530,-348.5 480,-348.5"/>
<text text-anchor="middle" x="505" y="-355.9" font-family="DejaVuSans" font-size="12.00">eqtb.h</text>
</a>
</g>
</g>
<!-- Node4&#45;&gt;Node17 -->
<g id="edge24" class="edge">
<title>Node4&#45;&gt;Node17</title>
<path fill="none" stroke="midnightblue" d="M422.42,-406.25C438.05,-397.49 461.2,-384.53 479.02,-374.55"/>
<polygon fill="midnightblue" stroke="midnightblue" points="480.77,-377.58 487.78,-369.64 477.35,-371.47 480.77,-377.58"/>
</g>
<!-- Node5&#45;&gt;Node6 -->
<g id="edge5" class="edge">
<title>Node5&#45;&gt;Node6</title>
<path fill="none" stroke="midnightblue" d="M470.17,-116.37C449.69,-107.34 418.86,-93.75 395.87,-83.61"/>
<polygon fill="midnightblue" stroke="midnightblue" points="397.11,-80.33 386.55,-79.5 394.29,-86.74 397.11,-80.33"/>
</g>
<!-- Node7 -->
<g id="node7" class="node">
<title>Node7</title>
<g id="a_node7"><a xlink:title=" ">
<polygon fill="white" stroke="#bfbfbf" points="332.5,-0.5 332.5,-21.5 397.5,-21.5 397.5,-0.5 332.5,-0.5"/>
<text text-anchor="middle" x="365" y="-7.9" font-family="DejaVuSans" font-size="12.00">stdbool.h</text>
</a>
</g>
</g>
<!-- Node6&#45;&gt;Node7 -->
<g id="edge6" class="edge">
<title>Node6&#45;&gt;Node7</title>
<path fill="none" stroke="midnightblue" d="M365,-58.25C365,-50.94 365,-40.69 365,-31.7"/>
<polygon fill="midnightblue" stroke="midnightblue" points="368.5,-31.64 365,-21.64 361.5,-31.64 368.5,-31.64"/>
</g>
<!-- Node8 -->
<g id="node8" class="node">
<title>Node8</title>
<g id="a_node8"><a xlink:title=" ">
<polygon fill="white" stroke="#bfbfbf" points="549.5,-0.5 549.5,-21.5 604.5,-21.5 604.5,-0.5 549.5,-0.5"/>
<text text-anchor="middle" x="577" y="-7.9" font-family="DejaVuSans" font-size="12.00">stdint.h</text>
</a>
</g>
</g>
<!-- Node6&#45;&gt;Node8 -->
<g id="edge7" class="edge">
<title>Node6&#45;&gt;Node8</title>
<path fill="none" stroke="midnightblue" d="M401.44,-58.37C440.02,-48.18 500.61,-32.18 539.56,-21.89"/>
<polygon fill="midnightblue" stroke="midnightblue" points="540.68,-25.21 549.46,-19.28 538.89,-18.45 540.68,-25.21"/>
</g>
<!-- Node9&#45;&gt;Node6 -->
<g id="edge13" class="edge">
<title>Node9&#45;&gt;Node6</title>
<path fill="none" stroke="midnightblue" d="M729.92,-348.35C710.17,-311.81 634.59,-180.72 534,-116 497.58,-92.56 449.36,-80.97 413.76,-75.29"/>
<polygon fill="midnightblue" stroke="midnightblue" points="414.01,-71.79 403.61,-73.78 412.98,-78.71 414.01,-71.79"/>
</g>
<!-- Node10 -->
<g id="node10" class="node">
<title>Node10</title>
<g id="a_node10"><a xlink:href="global__const_8h.html" target="_top" xlink:title=" ">
<polygon fill="white" stroke="black" points="783.5,-116.5 783.5,-137.5 876.5,-137.5 876.5,-116.5 783.5,-116.5"/>
<text text-anchor="middle" x="830" y="-123.9" font-family="DejaVuSans" font-size="12.00">global_const.h</text>
</a>
</g>
</g>
<!-- Node9&#45;&gt;Node10 -->
<g id="edge10" class="edge">
<title>Node9&#45;&gt;Node10</title>
<path fill="none" stroke="midnightblue" d="M738.96,-348.41C753.33,-313.63 802.85,-193.73 822.18,-146.93"/>
<polygon fill="midnightblue" stroke="midnightblue" points="825.44,-148.21 826.02,-137.63 818.97,-145.54 825.44,-148.21"/>
</g>
<!-- Node13 -->
<g id="node13" class="node">
<title>Node13</title>
<g id="a_node13"><a xlink:href="tex__constant_8h.html" target="_top" xlink:title=" ">
<polygon fill="white" stroke="black" points="412,-290.5 412,-311.5 506,-311.5 506,-290.5 412,-290.5"/>
<text text-anchor="middle" x="459" y="-297.9" font-family="DejaVuSans" font-size="12.00">tex_constant.h</text>
</a>
</g>
</g>
<!-- Node9&#45;&gt;Node13 -->
<g id="edge14" class="edge">
<title>Node9&#45;&gt;Node13</title>
<path fill="none" stroke="midnightblue" d="M713.8,-353.7C671.89,-345.2 577.19,-325.98 515.79,-313.52"/>
<polygon fill="midnightblue" stroke="midnightblue" points="516.35,-310.07 505.86,-311.51 514.96,-316.93 516.35,-310.07"/>
</g>
<!-- Node11 -->
<g id="node11" class="node">
<title>Node11</title>
<g id="a_node11"><a xlink:title=" ">
<polygon fill="white" stroke="#bfbfbf" points="800.5,-58.5 800.5,-79.5 859.5,-79.5 859.5,-58.5 800.5,-58.5"/>
<text text-anchor="middle" x="830" y="-65.9" font-family="DejaVuSans" font-size="12.00">assert.h</text>
</a>
</g>
</g>
<!-- Node10&#45;&gt;Node11 -->
<g id="edge11" class="edge">
<title>Node10&#45;&gt;Node11</title>
<path fill="none" stroke="midnightblue" d="M830,-116.25C830,-108.94 830,-98.69 830,-89.7"/>
<polygon fill="midnightblue" stroke="midnightblue" points="833.5,-89.64 830,-79.64 826.5,-89.64 833.5,-89.64"/>
</g>
<!-- Node12 -->
<g id="node12" class="node">
<title>Node12</title>
<g id="a_node12"><a xlink:title=" ">
<polygon fill="white" stroke="#bfbfbf" points="879,-58.5 879,-79.5 931,-79.5 931,-58.5 879,-58.5"/>
<text text-anchor="middle" x="905" y="-65.9" font-family="DejaVuSans" font-size="12.00">stdio.h</text>
</a>
</g>
</g>
<!-- Node10&#45;&gt;Node12 -->
<g id="edge12" class="edge">
<title>Node10&#45;&gt;Node12</title>
<path fill="none" stroke="midnightblue" d="M843.06,-116.25C854.36,-107.81 870.88,-95.47 884.03,-85.66"/>
<polygon fill="midnightblue" stroke="midnightblue" points="886.17,-88.43 892.09,-79.64 881.98,-82.82 886.17,-88.43"/>
</g>
<!-- Node13&#45;&gt;Node14 -->
<g id="edge15" class="edge">
<title>Node13&#45;&gt;Node14</title>
<path fill="none" stroke="midnightblue" d="M442.63,-290.25C428.07,-281.57 406.57,-268.76 389.88,-258.82"/>
<polygon fill="midnightblue" stroke="midnightblue" points="391.57,-255.75 381.19,-253.64 387.99,-261.77 391.57,-255.75"/>
</g>
<!-- Node14&#45;&gt;Node15 -->
<g id="edge16" class="edge">
<title>Node14&#45;&gt;Node15</title>
<path fill="none" stroke="midnightblue" d="M388.1,-238.33C449.8,-228.51 618.46,-201.68 687.22,-190.74"/>
<polygon fill="midnightblue" stroke="midnightblue" points="688.04,-194.15 697.37,-189.12 686.94,-187.24 688.04,-194.15"/>
</g>
<!-- Node14&#45;&gt;Node16 -->
<g id="edge22" class="edge">
<title>Node14&#45;&gt;Node16</title>
<path fill="none" stroke="midnightblue" d="M341.74,-233.37C317.09,-224.23 277.89,-209.69 249.41,-199.13"/>
<polygon fill="midnightblue" stroke="midnightblue" points="250.41,-195.77 239.82,-195.58 247.98,-202.33 250.41,-195.77"/>
</g>
<!-- Node15&#45;&gt;Node5 -->
<g id="edge20" class="edge">
<title>Node15&#45;&gt;Node5</title>
<path fill="none" stroke="midnightblue" d="M697.43,-179.13C661.29,-170.14 583.36,-150.74 534.55,-138.59"/>
<polygon fill="midnightblue" stroke="midnightblue" points="535.15,-135.13 524.6,-136.11 533.46,-141.93 535.15,-135.13"/>
</g>
<!-- Node15&#45;&gt;Node6 -->
<g id="edge21" class="edge">
<title>Node15&#45;&gt;Node6</title>
<path fill="none" stroke="midnightblue" d="M711.19,-174.2C701.58,-158.98 680.88,-129.95 655,-116 614.21,-94.01 485.09,-80.05 413.68,-73.81"/>
<polygon fill="midnightblue" stroke="midnightblue" points="413.84,-70.31 403.57,-72.95 413.24,-77.29 413.84,-70.31"/>
</g>
<!-- Node15&#45;&gt;Node8 -->
<g id="edge18" class="edge">
<title>Node15&#45;&gt;Node8</title>
<path fill="none" stroke="midnightblue" d="M713.12,-174.22C707.44,-160.49 695.98,-135.06 682,-116 656.57,-81.33 619.44,-47.48 596.82,-28.24"/>
<polygon fill="midnightblue" stroke="midnightblue" points="598.83,-25.35 588.92,-21.61 594.33,-30.72 598.83,-25.35"/>
</g>
<!-- Node15&#45;&gt;Node10 -->
<g id="edge19" class="edge">
<title>Node15&#45;&gt;Node10</title>
<path fill="none" stroke="midnightblue" d="M736.43,-174.37C754.4,-165.46 781.34,-152.11 801.71,-142.02"/>
<polygon fill="midnightblue" stroke="midnightblue" points="803.42,-145.08 810.83,-137.5 800.31,-138.81 803.42,-145.08"/>
</g>
<!-- Node15&#45;&gt;Node12 -->
<g id="edge17" class="edge">
<title>Node15&#45;&gt;Node12</title>
<path fill="none" stroke="midnightblue" d="M722.9,-174.25C732.23,-159.62 751.73,-132 775,-116 790.55,-105.31 836.27,-90.33 869.09,-80.41"/>
<polygon fill="midnightblue" stroke="midnightblue" points="870.23,-83.72 878.81,-77.5 868.23,-77.01 870.23,-83.72"/>
</g>
<!-- Node16&#45;&gt;Node6 -->
<g id="edge23" class="edge">
<title>Node16&#45;&gt;Node6</title>
<path fill="none" stroke="midnightblue" d="M218.62,-174.43C225.99,-160.03 241.68,-132.7 262,-116 279.81,-101.36 303.02,-90.45 322.9,-82.95"/>
<polygon fill="midnightblue" stroke="midnightblue" points="324.14,-86.22 332.36,-79.53 321.76,-79.64 324.14,-86.22"/>
</g>
<!-- Node17&#45;&gt;Node6 -->
<g id="edge25" class="edge">
<title>Node17&#45;&gt;Node6</title>
<path fill="none" stroke="midnightblue" d="M479.73,-348.8C458.49,-340.57 427.72,-327.42 403,-312 368.72,-290.61 350.19,-290.56 333,-254 306.63,-197.92 337.48,-123.01 354.8,-88.65"/>
<polygon fill="midnightblue" stroke="midnightblue" points="357.94,-90.2 359.47,-79.72 351.73,-86.96 357.94,-90.2"/>
</g>
<!-- Node17&#45;&gt;Node13 -->
<g id="edge26" class="edge">
<title>Node17&#45;&gt;Node13</title>
<path fill="none" stroke="midnightblue" d="M496.99,-348.25C490.52,-340.38 481.26,-329.1 473.5,-319.65"/>
<polygon fill="midnightblue" stroke="midnightblue" points="475.97,-317.15 466.92,-311.64 470.56,-321.59 475.97,-317.15"/>
</g>
<!-- Node18&#45;&gt;Node6 -->
<g id="edge31" class="edge">
<title>Node18&#45;&gt;Node6</title>
<path fill="none" stroke="midnightblue" d="M569.55,-290.44C552.58,-282.25 528.85,-269.37 511,-254 451.4,-202.68 398.74,-124.25 376.39,-88.69"/>
<polygon fill="midnightblue" stroke="midnightblue" points="379.15,-86.51 370.9,-79.85 373.2,-90.2 379.15,-86.51"/>
</g>
<!-- Node18&#45;&gt;Node12 -->
<g id="edge29" class="edge">
<title>Node18&#45;&gt;Node12</title>
<path fill="none" stroke="midnightblue" d="M620.29,-292.26C679.72,-275.02 814.84,-227.73 886,-138 896.93,-124.22 901.57,-104.54 903.55,-89.89"/>
<polygon fill="midnightblue" stroke="midnightblue" points="907.04,-90.16 904.6,-79.85 900.08,-89.43 907.04,-90.16"/>
</g>
<!-- Node19 -->
<g id="node19" class="node">
<title>Node19</title>
<g id="a_node19"><a xlink:title=" ">
<polygon fill="white" stroke="#bfbfbf" points="520,-232.5 520,-253.5 582,-253.5 582,-232.5 520,-232.5"/>
<text text-anchor="middle" x="551" y="-239.9" font-family="DejaVuSans" font-size="12.00">setjmp.h</text>
</a>
</g>
</g>
<!-- Node18&#45;&gt;Node19 -->
<g id="edge30" class="edge">
<title>Node18&#45;&gt;Node19</title>
<path fill="none" stroke="midnightblue" d="M584.03,-290.25C578.47,-282.46 570.52,-271.33 563.82,-261.94"/>
<polygon fill="midnightblue" stroke="midnightblue" points="566.55,-259.75 557.89,-253.64 560.85,-263.81 566.55,-259.75"/>
</g>
<!-- Node20&#45;&gt;Node6 -->
<g id="edge33" class="edge">
<title>Node20&#45;&gt;Node6</title>
<path fill="none" stroke="midnightblue" d="M201.22,-232.39C184.81,-219.67 160.83,-196.25 171,-174 196.73,-117.7 267.57,-91.01 316.13,-79"/>
<polygon fill="midnightblue" stroke="midnightblue" points="317.19,-82.34 326.13,-76.65 315.59,-75.53 317.19,-82.34"/>
</g>
<!-- Node20&#45;&gt;Node15 -->
<g id="edge34" class="edge">
<title>Node20&#45;&gt;Node15</title>
<path fill="none" stroke="midnightblue" d="M247.55,-238.37C339.32,-228.13 599.17,-199.14 687.32,-189.31"/>
<polygon fill="midnightblue" stroke="midnightblue" points="687.88,-192.77 697.43,-188.18 687.11,-185.81 687.88,-192.77"/>
</g>
<!-- Node23&#45;&gt;Node5 -->
<g id="edge39" class="edge">
<title>Node23&#45;&gt;Node5</title>
<path fill="none" stroke="midnightblue" d="M559.52,-348.46C547.81,-330.71 523.2,-291.05 511,-254 499.06,-217.74 494.58,-173.11 492.93,-147.87"/>
<polygon fill="midnightblue" stroke="midnightblue" points="496.42,-147.52 492.36,-137.74 489.43,-147.92 496.42,-147.52"/>
</g>
<!-- Node23&#45;&gt;Node13 -->
<g id="edge38" class="edge">
<title>Node23&#45;&gt;Node13</title>
<path fill="none" stroke="midnightblue" d="M547.85,-348.5C530.94,-339.65 505.5,-326.34 486.17,-316.22"/>
<polygon fill="midnightblue" stroke="midnightblue" points="487.72,-313.08 477.24,-311.55 484.48,-319.28 487.72,-313.08"/>
</g>
<!-- Node23&#45;&gt;Node15 -->
<g id="edge40" class="edge">
<title>Node23&#45;&gt;Node15</title>
<path fill="none" stroke="midnightblue" d="M582.15,-348.34C595.6,-339.81 614.79,-326.51 629,-312 662.27,-278.02 691.87,-230.28 706.78,-204.41"/>
<polygon fill="midnightblue" stroke="midnightblue" points="709.87,-206.07 711.76,-195.64 703.78,-202.61 709.87,-206.07"/>
</g>
<!-- Node24&#45;&gt;Node9 -->
<g id="edge42" class="edge">
<title>Node24&#45;&gt;Node9</title>
<path fill="none" stroke="midnightblue" d="M708.57,-406.25C712.93,-398.62 719.12,-387.79 724.41,-378.53"/>
<polygon fill="midnightblue" stroke="midnightblue" points="727.57,-380.06 729.49,-369.64 721.49,-376.59 727.57,-380.06"/>
</g>
<!-- Node26&#45;&gt;Node5 -->
<g id="edge45" class="edge">
<title>Node26&#45;&gt;Node5</title>
<path fill="none" stroke="midnightblue" d="M780.68,-406.46C779.81,-392.59 776.63,-366.48 765,-348 701.7,-247.44 576.2,-172.32 520.17,-142.31"/>
<polygon fill="midnightblue" stroke="midnightblue" points="521.64,-139.14 511.16,-137.56 518.37,-145.33 521.64,-139.14"/>
</g>
<!-- Node26&#45;&gt;Node9 -->
<g id="edge46" class="edge">
<title>Node26&#45;&gt;Node9</title>
<path fill="none" stroke="midnightblue" d="M772.99,-406.25C766.52,-398.38 757.26,-387.1 749.5,-377.65"/>
<polygon fill="midnightblue" stroke="midnightblue" points="751.97,-375.15 742.92,-369.64 746.56,-379.59 751.97,-375.15"/>
</g>
<!-- Node26&#45;&gt;Node15 -->
<g id="edge47" class="edge">
<title>Node26&#45;&gt;Node15</title>
<path fill="none" stroke="midnightblue" d="M790.65,-406.43C798.65,-397.77 809.43,-384.22 814,-370 824.89,-336.15 824.17,-324.07 814,-290 802.43,-251.23 765.92,-219.48 741.15,-201.65"/>
<polygon fill="midnightblue" stroke="midnightblue" points="742.83,-198.55 732.62,-195.72 738.83,-204.3 742.83,-198.55"/>
</g>
<!-- Node26&#45;&gt;Node17 -->
<g id="edge54" class="edge">
<title>Node26&#45;&gt;Node17</title>
<path fill="none" stroke="midnightblue" d="M754.34,-408.28C751.2,-407.47 748.04,-406.69 745,-406 657.44,-386.24 631.28,-390.79 540.1,-370.05"/>
<polygon fill="midnightblue" stroke="midnightblue" points="540.7,-366.59 530.17,-367.75 539.12,-373.41 540.7,-366.59"/>
</g>
<!-- Node27 -->
<g id="node27" class="node">
<title>Node27</title>
<g id="a_node27"><a xlink:href="fonts_8h.html" target="_top" xlink:title=" ">
<polygon fill="white" stroke="black" points="934,-348.5 934,-369.5 986,-369.5 986,-348.5 934,-348.5"/>
<text text-anchor="middle" x="960" y="-355.9" font-family="DejaVuSans" font-size="12.00">fonts.h</text>
</a>
</g>
</g>
<!-- Node26&#45;&gt;Node27 -->
<g id="edge48" class="edge">
<title>Node26&#45;&gt;Node27</title>
<path fill="none" stroke="midnightblue" d="M807.8,-407.62C838.78,-397.92 889.9,-381.93 924.25,-371.19"/>
<polygon fill="midnightblue" stroke="midnightblue" points="925.39,-374.49 933.89,-368.17 923.3,-367.81 925.39,-374.49"/>
</g>
<!-- Node27&#45;&gt;Node10 -->
<g id="edge50" class="edge">
<title>Node27&#45;&gt;Node10</title>
<path fill="none" stroke="midnightblue" d="M961.94,-348.43C964.25,-334.96 966.97,-309.82 960,-290 938.02,-227.5 880.63,-171.27 849.98,-144.5"/>
<polygon fill="midnightblue" stroke="midnightblue" points="851.97,-141.59 842.09,-137.75 847.41,-146.91 851.97,-141.59"/>
</g>
<!-- Node27&#45;&gt;Node12 -->
<g id="edge49" class="edge">
<title>Node27&#45;&gt;Node12</title>
<path fill="none" stroke="midnightblue" d="M972.21,-348.47C993.69,-330.53 1036,-289.43 1036,-244 1036,-244 1036,-244 1036,-184 1036,-133.28 979.42,-99.99 940.63,-83.12"/>
<polygon fill="midnightblue" stroke="midnightblue" points="941.77,-79.81 931.19,-79.19 939.08,-86.27 941.77,-79.81"/>
</g>
<!-- Node27&#45;&gt;Node13 -->
<g id="edge51" class="edge">
<title>Node27&#45;&gt;Node13</title>
<path fill="none" stroke="midnightblue" d="M933.77,-355.07C855.85,-346.36 624.46,-320.49 516.13,-308.39"/>
<polygon fill="midnightblue" stroke="midnightblue" points="516.37,-304.89 506.04,-307.26 515.59,-311.85 516.37,-304.89"/>
</g>
<!-- Node27&#45;&gt;Node15 -->
<g id="edge52" class="edge">
<title>Node27&#45;&gt;Node15</title>
<path fill="none" stroke="midnightblue" d="M959.75,-348.02C958.88,-333.6 955.29,-306.81 941,-290 889.51,-229.4 795.05,-202.02 746.91,-191.53"/>
<polygon fill="midnightblue" stroke="midnightblue" points="747.33,-188.04 736.82,-189.44 745.9,-194.9 747.33,-188.04"/>
</g>
<!-- Node27&#45;&gt;Node22 -->
<g id="edge53" class="edge">
<title>Node27&#45;&gt;Node22</title>
<path fill="none" stroke="midnightblue" d="M949.37,-348.25C940.45,-340.05 927.51,-328.17 916.98,-318.51"/>
<polygon fill="midnightblue" stroke="midnightblue" points="919.24,-315.83 909.5,-311.64 914.5,-320.98 919.24,-315.83"/>
</g>
<!-- Node28&#45;&gt;Node6 -->
<g id="edge56" class="edge">
<title>Node28&#45;&gt;Node6</title>
<path fill="none" stroke="midnightblue" d="M408.46,-354.41C331.55,-343.29 114,-306.32 114,-244 114,-244 114,-244 114,-184 114,-96.19 242.93,-75.69 315.98,-71.12"/>
<polygon fill="midnightblue" stroke="midnightblue" points="316.54,-74.6 326.33,-70.56 316.16,-67.61 316.54,-74.6"/>
</g>
<!-- Node28&#45;&gt;Node13 -->
<g id="edge57" class="edge">
<title>Node28&#45;&gt;Node13</title>
<path fill="none" stroke="midnightblue" d="M439.18,-348.25C442.38,-340.78 446.9,-330.24 450.81,-321.11"/>
<polygon fill="midnightblue" stroke="midnightblue" points="454.15,-322.21 454.87,-311.64 447.71,-319.46 454.15,-322.21"/>
</g>
<!-- Node28&#45;&gt;Node18 -->
<g id="edge58" class="edge">
<title>Node28&#45;&gt;Node18</title>
<path fill="none" stroke="midnightblue" d="M461.82,-348.37C487.53,-339.14 526.54,-325.14 554.96,-314.94"/>
<polygon fill="midnightblue" stroke="midnightblue" points="556.3,-318.17 564.53,-311.5 553.94,-311.59 556.3,-318.17"/>
</g>
<!-- Node29&#45;&gt;Node17 -->
<g id="edge65" class="edge">
<title>Node29&#45;&gt;Node17</title>
<path fill="none" stroke="midnightblue" d="M553.48,-464.28C544.72,-445.43 525.28,-403.62 513.86,-379.05"/>
<polygon fill="midnightblue" stroke="midnightblue" points="516.9,-377.29 509.51,-369.69 510.55,-380.24 516.9,-377.29"/>
</g>
<!-- Node29&#45;&gt;Node30 -->
<g id="edge62" class="edge">
<title>Node29&#45;&gt;Node30</title>
<path fill="none" stroke="midnightblue" d="M584.28,-470.24C629.62,-463.57 725.62,-448.58 815.86,-428.09"/>
<polygon fill="midnightblue" stroke="midnightblue" points="816.74,-431.48 825.7,-425.83 815.17,-424.66 816.74,-431.48"/>
</g>
<!-- Node30&#45;&gt;Node9 -->
<g id="edge64" class="edge">
<title>Node30&#45;&gt;Node9</title>
<path fill="none" stroke="midnightblue" d="M831.89,-406.37C813.19,-397.42 785.13,-383.99 764.01,-373.88"/>
<polygon fill="midnightblue" stroke="midnightblue" points="765.38,-370.66 754.85,-369.5 762.36,-376.98 765.38,-370.66"/>
</g>
<!-- Node30&#45;&gt;Node12 -->
<g id="edge63" class="edge">
<title>Node30&#45;&gt;Node12</title>
<path fill="none" stroke="midnightblue" d="M878.34,-414.53C937.14,-409.7 1074,-389.09 1074,-302 1074,-302 1074,-302 1074,-184 1074,-120.26 990.36,-89.78 940.76,-77.31"/>
<polygon fill="midnightblue" stroke="midnightblue" points="941.58,-73.91 931.04,-74.99 939.95,-80.72 941.58,-73.91"/>
</g>
<!-- Node31&#45;&gt;Node30 -->
<g id="edge67" class="edge">
<title>Node31&#45;&gt;Node30</title>
<path fill="none" stroke="midnightblue" d="M819.79,-464.25C825.22,-456.46 832.97,-445.33 839.5,-435.94"/>
<polygon fill="midnightblue" stroke="midnightblue" points="842.44,-437.85 845.28,-427.64 836.7,-433.85 842.44,-437.85"/>
</g>
</g>
</svg>
