<?xml version="1.0" encoding="UTF-8" standalone="no"?>
<!DOCTYPE svg PUBLIC "-//W3C//DTD SVG 1.1//EN"
 "http://www.w3.org/Graphics/SVG/1.1/DTD/svg11.dtd">
<!-- Generated by graphviz version 2.44.0 ()
 -->
<!-- Title: linebreak.h Pages: 1 -->
<svg width="347pt" height="204pt"
 viewBox="0.00 0.00 346.50 204.00" xmlns="http://www.w3.org/2000/svg" xmlns:xlink="http://www.w3.org/1999/xlink">
<g id="graph0" class="graph" transform="scale(1 1) rotate(0) translate(4 200)">
<title>linebreak.h</title>
<polygon fill="white" stroke="transparent" points="-4,4 -4,-200 342.5,-200 342.5,4 -4,4"/>
<!-- Node1 -->
<g id="node1" class="node">
<title>Node1</title>
<g id="a_node1"><a xlink:title=" ">
<polygon fill="#bfbfbf" stroke="black" points="131.5,-174.5 131.5,-195.5 206.5,-195.5 206.5,-174.5 131.5,-174.5"/>
<text text-anchor="middle" x="169" y="-181.9" font-family="DejaVuSans" font-size="12.00">linebreak.h</text>
</a>
</g>
</g>
<!-- Node2 -->
<g id="node2" class="node">
<title>Node2</title>
<g id="a_node2"><a xlink:href="global_8h.html" target="_top" xlink:title=" ">
<polygon fill="white" stroke="black" points="140,-116.5 140,-137.5 198,-137.5 198,-116.5 140,-116.5"/>
<text text-anchor="middle" x="169" y="-123.9" font-family="DejaVuSans" font-size="12.00">global.h</text>
</a>
</g>
</g>
<!-- Node1&#45;&gt;Node2 -->
<g id="edge1" class="edge">
<title>Node1&#45;&gt;Node2</title>
<path fill="none" stroke="midnightblue" d="M169,-174.25C169,-166.94 169,-156.69 169,-147.7"/>
<polygon fill="midnightblue" stroke="midnightblue" points="172.5,-147.64 169,-137.64 165.5,-147.64 172.5,-147.64"/>
</g>
<!-- Node3 -->
<g id="node3" class="node">
<title>Node3</title>
<g id="a_node3"><a xlink:href="global__macros_8h.html" target="_top" xlink:title=" ">
<polygon fill="white" stroke="black" points="0,-58.5 0,-79.5 104,-79.5 104,-58.5 0,-58.5"/>
<text text-anchor="middle" x="52" y="-65.9" font-family="DejaVuSans" font-size="12.00">global_macros.h</text>
</a>
</g>
</g>
<!-- Node2&#45;&gt;Node3 -->
<g id="edge2" class="edge">
<title>Node2&#45;&gt;Node3</title>
<path fill="none" stroke="midnightblue" d="M148.89,-116.37C130.19,-107.42 102.13,-93.99 81.01,-83.88"/>
<polygon fill="midnightblue" stroke="midnightblue" points="82.38,-80.66 71.85,-79.5 79.36,-86.98 82.38,-80.66"/>
</g>
<!-- Node5 -->
<g id="node5" class="node">
<title>Node5</title>
<g id="a_node5"><a xlink:href="global__const_8h.html" target="_top" xlink:title=" ">
<polygon fill="white" stroke="black" points="122.5,-58.5 122.5,-79.5 215.5,-79.5 215.5,-58.5 122.5,-58.5"/>
<text text-anchor="middle" x="169" y="-65.9" font-family="DejaVuSans" font-size="12.00">global_const.h</text>
</a>
</g>
</g>
<!-- Node2&#45;&gt;Node5 -->
<g id="edge4" class="edge">
<title>Node2&#45;&gt;Node5</title>
<path fill="none" stroke="midnightblue" d="M169,-116.25C169,-108.94 169,-98.69 169,-89.7"/>
<polygon fill="midnightblue" stroke="midnightblue" points="172.5,-89.64 169,-79.64 165.5,-89.64 172.5,-89.64"/>
</g>
<!-- Node6 -->
<g id="node6" class="node">
<title>Node6</title>
<g id="a_node6"><a xlink:href="tex__types_8h.html" target="_top" xlink:title=" ">
<polygon fill="white" stroke="black" points="233.5,-58.5 233.5,-79.5 310.5,-79.5 310.5,-58.5 233.5,-58.5"/>
<text text-anchor="middle" x="272" y="-65.9" font-family="DejaVuSans" font-size="12.00">tex_types.h</text>
</a>
</g>
</g>
<!-- Node2&#45;&gt;Node6 -->
<g id="edge5" class="edge">
<title>Node2&#45;&gt;Node6</title>
<path fill="none" stroke="midnightblue" d="M186.94,-116.25C203.04,-107.49 226.89,-94.53 245.24,-84.55"/>
<polygon fill="midnightblue" stroke="midnightblue" points="247.15,-87.49 254.26,-79.64 243.81,-81.34 247.15,-87.49"/>
</g>
<!-- Node4 -->
<g id="node4" class="node">
<title>Node4</title>
<g id="a_node4"><a xlink:title=" ">
<polygon fill="white" stroke="#bfbfbf" points="22.5,-0.5 22.5,-21.5 81.5,-21.5 81.5,-0.5 22.5,-0.5"/>
<text text-anchor="middle" x="52" y="-7.9" font-family="DejaVuSans" font-size="12.00">assert.h</text>
</a>
</g>
</g>
<!-- Node3&#45;&gt;Node4 -->
<g id="edge3" class="edge">
<title>Node3&#45;&gt;Node4</title>
<path fill="none" stroke="midnightblue" d="M52,-58.25C52,-50.94 52,-40.69 52,-31.7"/>
<polygon fill="midnightblue" stroke="midnightblue" points="55.5,-31.64 52,-21.64 48.5,-31.64 55.5,-31.64"/>
</g>
<!-- Node7 -->
<g id="node7" class="node">
<title>Node7</title>
<g id="a_node7"><a xlink:title=" ">
<polygon fill="white" stroke="#bfbfbf" points="200.5,-0.5 200.5,-21.5 265.5,-21.5 265.5,-0.5 200.5,-0.5"/>
<text text-anchor="middle" x="233" y="-7.9" font-family="DejaVuSans" font-size="12.00">stdbool.h</text>
</a>
</g>
</g>
<!-- Node6&#45;&gt;Node7 -->
<g id="edge6" class="edge">
<title>Node6&#45;&gt;Node7</title>
<path fill="none" stroke="midnightblue" d="M265.21,-58.25C259.78,-50.46 252.03,-39.33 245.5,-29.94"/>
<polygon fill="midnightblue" stroke="midnightblue" points="248.3,-27.85 239.72,-21.64 242.56,-31.85 248.3,-27.85"/>
</g>
<!-- Node8 -->
<g id="node8" class="node">
<title>Node8</title>
<g id="a_node8"><a xlink:title=" ">
<polygon fill="white" stroke="#bfbfbf" points="283.5,-0.5 283.5,-21.5 338.5,-21.5 338.5,-0.5 283.5,-0.5"/>
<text text-anchor="middle" x="311" y="-7.9" font-family="DejaVuSans" font-size="12.00">stdint.h</text>
</a>
</g>
</g>
<!-- Node6&#45;&gt;Node8 -->
<g id="edge7" class="edge">
<title>Node6&#45;&gt;Node8</title>
<path fill="none" stroke="midnightblue" d="M278.79,-58.25C284.22,-50.46 291.97,-39.33 298.5,-29.94"/>
<polygon fill="midnightblue" stroke="midnightblue" points="301.44,-31.85 304.28,-21.64 295.7,-27.85 301.44,-31.85"/>
</g>
</g>
</svg>
