<?xml version="1.0" encoding="UTF-8" standalone="no"?>
<!DOCTYPE svg PUBLIC "-//W3C//DTD SVG 1.1//EN"
 "http://www.w3.org/Graphics/SVG/1.1/DTD/svg11.dtd">
<!-- Generated by graphviz version 2.44.0 ()
 -->
<!-- Title: linebreak.h Pages: 1 -->
<svg width="477pt" height="146pt"
 viewBox="0.00 0.00 476.50 146.00" xmlns="http://www.w3.org/2000/svg" xmlns:xlink="http://www.w3.org/1999/xlink">
<g id="graph0" class="graph" transform="scale(1 1) rotate(0) translate(4 142)">
<title>linebreak.h</title>
<polygon fill="white" stroke="transparent" points="-4,4 -4,-142 472.5,-142 472.5,4 -4,4"/>
<!-- Node1 -->
<g id="node1" class="node">
<title>Node1</title>
<g id="a_node1"><a xlink:title=" ">
<polygon fill="#bfbfbf" stroke="black" points="220,-116.5 220,-137.5 295,-137.5 295,-116.5 220,-116.5"/>
<text text-anchor="middle" x="257.5" y="-123.9" font-family="DejaVuSans" font-size="12.00">linebreak.h</text>
</a>
</g>
</g>
<!-- Node2 -->
<g id="node2" class="node">
<title>Node2</title>
<g id="a_node2"><a xlink:href="hyphen__post_8c.html" target="_top" xlink:title=" ">
<polygon fill="white" stroke="black" points="0,-58.5 0,-79.5 95,-79.5 95,-58.5 0,-58.5"/>
<text text-anchor="middle" x="47.5" y="-65.9" font-family="DejaVuSans" font-size="12.00">hyphen_post.c</text>
</a>
</g>
</g>
<!-- Node1&#45;&gt;Node2 -->
<g id="edge1" class="edge">
<title>Node1&#45;&gt;Node2</title>
<path fill="none" stroke="midnightblue" d="M211.45,-113.72C172.84,-103.42 118.49,-88.93 83.13,-79.5"/>
<polygon fill="midnightblue" stroke="midnightblue" points="210.84,-117.18 221.4,-116.37 212.64,-110.41 210.84,-117.18"/>
</g>
<!-- Node3 -->
<g id="node3" class="node">
<title>Node3</title>
<g id="a_node3"><a xlink:href="hyphen__pre_8c.html" target="_top" xlink:title=" ">
<polygon fill="white" stroke="black" points="113,-58.5 113,-79.5 202,-79.5 202,-58.5 113,-58.5"/>
<text text-anchor="middle" x="157.5" y="-65.9" font-family="DejaVuSans" font-size="12.00">hyphen_pre.c</text>
</a>
</g>
</g>
<!-- Node1&#45;&gt;Node3 -->
<g id="edge2" class="edge">
<title>Node1&#45;&gt;Node3</title>
<path fill="none" stroke="midnightblue" d="M231.29,-111.32C213.43,-101.32 190.28,-88.36 174.72,-79.64"/>
<polygon fill="midnightblue" stroke="midnightblue" points="229.65,-114.41 240.08,-116.25 233.07,-108.31 229.65,-114.41"/>
</g>
<!-- Node4 -->
<g id="node4" class="node">
<title>Node4</title>
<g id="a_node4"><a xlink:href="linebreak_8c.html" target="_top" xlink:title=" ">
<polygon fill="white" stroke="black" points="220.5,-58.5 220.5,-79.5 294.5,-79.5 294.5,-58.5 220.5,-58.5"/>
<text text-anchor="middle" x="257.5" y="-65.9" font-family="DejaVuSans" font-size="12.00">linebreak.c</text>
</a>
</g>
</g>
<!-- Node1&#45;&gt;Node4 -->
<g id="edge3" class="edge">
<title>Node1&#45;&gt;Node4</title>
<path fill="none" stroke="midnightblue" d="M257.5,-106.16C257.5,-97.16 257.5,-86.92 257.5,-79.64"/>
<polygon fill="midnightblue" stroke="midnightblue" points="254,-106.25 257.5,-116.25 261,-106.25 254,-106.25"/>
</g>
<!-- Node5 -->
<g id="node5" class="node">
<title>Node5</title>
<g id="a_node5"><a xlink:href="mem_8c.html" target="_top" xlink:title=" ">
<polygon fill="white" stroke="black" points="312.5,-58.5 312.5,-79.5 364.5,-79.5 364.5,-58.5 312.5,-58.5"/>
<text text-anchor="middle" x="338.5" y="-65.9" font-family="DejaVuSans" font-size="12.00">mem.c</text>
</a>
</g>
</g>
<!-- Node1&#45;&gt;Node5 -->
<g id="edge4" class="edge">
<title>Node1&#45;&gt;Node5</title>
<path fill="none" stroke="midnightblue" d="M279.93,-110.49C294.23,-100.61 312.29,-88.12 324.55,-79.64"/>
<polygon fill="midnightblue" stroke="midnightblue" points="277.84,-107.68 271.61,-116.25 281.83,-113.44 277.84,-107.68"/>
</g>
<!-- Node6 -->
<g id="node6" class="node">
<title>Node6</title>
<g id="a_node6"><a xlink:href="tex__header_8h.html" target="_top" xlink:title=" ">
<polygon fill="white" stroke="black" points="382.5,-58.5 382.5,-79.5 468.5,-79.5 468.5,-58.5 382.5,-58.5"/>
<text text-anchor="middle" x="425.5" y="-65.9" font-family="DejaVuSans" font-size="12.00">tex_header.h</text>
</a>
</g>
</g>
<!-- Node1&#45;&gt;Node6 -->
<g id="edge5" class="edge">
<title>Node1&#45;&gt;Node6</title>
<path fill="none" stroke="midnightblue" d="M295.93,-113.19C326.71,-102.93 369.19,-88.77 397,-79.5"/>
<polygon fill="midnightblue" stroke="midnightblue" points="294.76,-109.89 286.38,-116.37 296.97,-116.53 294.76,-109.89"/>
</g>
<!-- Node7 -->
<g id="node7" class="node">
<title>Node7</title>
<g id="a_node7"><a xlink:href="tex_8c.html" target="_top" xlink:title=" ">
<polygon fill="white" stroke="black" points="405,-0.5 405,-21.5 446,-21.5 446,-0.5 405,-0.5"/>
<text text-anchor="middle" x="425.5" y="-7.9" font-family="DejaVuSans" font-size="12.00">tex.c</text>
</a>
</g>
</g>
<!-- Node6&#45;&gt;Node7 -->
<g id="edge6" class="edge">
<title>Node6&#45;&gt;Node7</title>
<path fill="none" stroke="midnightblue" d="M425.5,-48.16C425.5,-39.16 425.5,-28.92 425.5,-21.64"/>
<polygon fill="midnightblue" stroke="midnightblue" points="422,-48.25 425.5,-58.25 429,-48.25 422,-48.25"/>
</g>
</g>
</svg>
