<?xml version="1.0" encoding="UTF-8" standalone="no"?>
<!DOCTYPE svg PUBLIC "-//W3C//DTD SVG 1.1//EN"
 "http://www.w3.org/Graphics/SVG/1.1/DTD/svg11.dtd">
<!-- Generated by graphviz version 2.44.0 ()
 -->
<!-- Title: linebreak.c Pages: 1 -->
<svg width="807pt" height="726pt"
 viewBox="0.00 0.00 806.50 726.00" xmlns="http://www.w3.org/2000/svg" xmlns:xlink="http://www.w3.org/1999/xlink">
<g id="graph0" class="graph" transform="scale(1 1) rotate(0) translate(4 722)">
<title>linebreak.c</title>
<polygon fill="white" stroke="transparent" points="-4,4 -4,-722 802.5,-722 802.5,4 -4,4"/>
<!-- Node1 -->
<g id="node1" class="node">
<title>Node1</title>
<g id="a_node1"><a xlink:title=" ">
<polygon fill="#bfbfbf" stroke="black" points="356,-696.5 356,-717.5 430,-717.5 430,-696.5 356,-696.5"/>
<text text-anchor="middle" x="393" y="-703.9" font-family="DejaVuSans" font-size="12.00">linebreak.c</text>
</a>
</g>
</g>
<!-- Node2 -->
<g id="node2" class="node">
<title>Node2</title>
<g id="a_node2"><a xlink:title=" ">
<polygon fill="white" stroke="#bfbfbf" points="0,-638.5 0,-659.5 54,-659.5 54,-638.5 0,-638.5"/>
<text text-anchor="middle" x="27" y="-645.9" font-family="DejaVuSans" font-size="12.00">stdlib.h</text>
</a>
</g>
</g>
<!-- Node1&#45;&gt;Node2 -->
<g id="edge1" class="edge">
<title>Node1&#45;&gt;Node2</title>
<path fill="none" stroke="midnightblue" d="M355.76,-701.94C295.15,-695.06 171.53,-679.9 68,-660 66.75,-659.76 65.47,-659.5 64.19,-659.24"/>
<polygon fill="midnightblue" stroke="midnightblue" points="64.78,-655.79 54.26,-657.05 63.27,-662.62 64.78,-655.79"/>
</g>
<!-- Node3 -->
<g id="node3" class="node">
<title>Node3</title>
<g id="a_node3"><a xlink:href="tex_8h.html" target="_top" xlink:title=" ">
<polygon fill="white" stroke="black" points="378,-290.5 378,-311.5 420,-311.5 420,-290.5 378,-290.5"/>
<text text-anchor="middle" x="399" y="-297.9" font-family="DejaVuSans" font-size="12.00">tex.h</text>
</a>
</g>
</g>
<!-- Node1&#45;&gt;Node3 -->
<g id="edge2" class="edge">
<title>Node1&#45;&gt;Node3</title>
<path fill="none" stroke="midnightblue" d="M393,-696.24C393,-676.54 393,-630.59 393,-592 393,-592 393,-592 393,-416 393,-382.94 395.55,-344.56 397.32,-321.83"/>
<polygon fill="midnightblue" stroke="midnightblue" points="400.82,-322 398.14,-311.75 393.84,-321.43 400.82,-322"/>
</g>
<!-- Node13 -->
<g id="node13" class="node">
<title>Node13</title>
<g id="a_node13"><a xlink:href="global_8h.html" target="_top" xlink:title=" ">
<polygon fill="white" stroke="black" points="558,-464.5 558,-485.5 616,-485.5 616,-464.5 558,-464.5"/>
<text text-anchor="middle" x="587" y="-471.9" font-family="DejaVuSans" font-size="12.00">global.h</text>
</a>
</g>
</g>
<!-- Node1&#45;&gt;Node13 -->
<g id="edge15" class="edge">
<title>Node1&#45;&gt;Node13</title>
<path fill="none" stroke="midnightblue" d="M430.01,-702.75C481.44,-697.37 570.41,-684.69 590,-660 628.32,-611.71 607.17,-531.68 594.43,-495.2"/>
<polygon fill="midnightblue" stroke="midnightblue" points="597.69,-493.92 590.97,-485.74 591.12,-496.33 597.69,-493.92"/>
</g>
<!-- Node18 -->
<g id="node18" class="node">
<title>Node18</title>
<g id="a_node18"><a xlink:href="mem_8h.html" target="_top" xlink:title=" ">
<polygon fill="white" stroke="black" points="275.5,-522.5 275.5,-543.5 328.5,-543.5 328.5,-522.5 275.5,-522.5"/>
<text text-anchor="middle" x="302" y="-529.9" font-family="DejaVuSans" font-size="12.00">mem.h</text>
</a>
</g>
</g>
<!-- Node1&#45;&gt;Node18 -->
<g id="edge25" class="edge">
<title>Node1&#45;&gt;Node18</title>
<path fill="none" stroke="midnightblue" d="M355.98,-702.18C307.12,-696.3 225.15,-683.18 207,-660 200.97,-652.3 201.31,-645.95 207,-638 235.98,-597.56 284.02,-642.44 313,-602 323.19,-587.78 318.14,-567.62 311.95,-552.94"/>
<polygon fill="midnightblue" stroke="midnightblue" points="315.07,-551.35 307.65,-543.79 308.74,-554.33 315.07,-551.35"/>
</g>
<!-- Node19 -->
<g id="node19" class="node">
<title>Node19</title>
<g id="a_node19"><a xlink:href="macros_8h.html" target="_top" xlink:title=" ">
<polygon fill="white" stroke="black" points="216.5,-638.5 216.5,-659.5 281.5,-659.5 281.5,-638.5 216.5,-638.5"/>
<text text-anchor="middle" x="249" y="-645.9" font-family="DejaVuSans" font-size="12.00">macros.h</text>
</a>
</g>
</g>
<!-- Node1&#45;&gt;Node19 -->
<g id="edge28" class="edge">
<title>Node1&#45;&gt;Node19</title>
<path fill="none" stroke="midnightblue" d="M368.25,-696.37C344.72,-687.22 309.13,-673.38 282.96,-663.21"/>
<polygon fill="midnightblue" stroke="midnightblue" points="284.02,-659.86 273.43,-659.5 281.48,-666.39 284.02,-659.86"/>
</g>
<!-- Node20 -->
<g id="node20" class="node">
<title>Node20</title>
<g id="a_node20"><a xlink:href="texfunc_8h.html" target="_top" xlink:title=" ">
<polygon fill="white" stroke="black" points="299.5,-638.5 299.5,-659.5 364.5,-659.5 364.5,-638.5 299.5,-638.5"/>
<text text-anchor="middle" x="332" y="-645.9" font-family="DejaVuSans" font-size="12.00">texfunc.h</text>
</a>
</g>
</g>
<!-- Node1&#45;&gt;Node20 -->
<g id="edge29" class="edge">
<title>Node1&#45;&gt;Node20</title>
<path fill="none" stroke="midnightblue" d="M382.37,-696.25C373.45,-688.05 360.51,-676.17 349.98,-666.51"/>
<polygon fill="midnightblue" stroke="midnightblue" points="352.24,-663.83 342.5,-659.64 347.5,-668.98 352.24,-663.83"/>
</g>
<!-- Node21 -->
<g id="node21" class="node">
<title>Node21</title>
<g id="a_node21"><a xlink:href="print_8h.html" target="_top" xlink:title=" ">
<polygon fill="white" stroke="black" points="110,-638.5 110,-659.5 160,-659.5 160,-638.5 110,-638.5"/>
<text text-anchor="middle" x="135" y="-645.9" font-family="DejaVuSans" font-size="12.00">print.h</text>
</a>
</g>
</g>
<!-- Node1&#45;&gt;Node21 -->
<g id="edge30" class="edge">
<title>Node1&#45;&gt;Node21</title>
<path fill="none" stroke="midnightblue" d="M355.69,-698.68C312.02,-690 237.56,-674.82 174,-660 172.74,-659.71 171.45,-659.4 170.15,-659.09"/>
<polygon fill="midnightblue" stroke="midnightblue" points="170.68,-655.62 160.14,-656.62 169.01,-662.41 170.68,-655.62"/>
</g>
<!-- Node23 -->
<g id="node23" class="node">
<title>Node23</title>
<g id="a_node23"><a xlink:href="eqtb_8h.html" target="_top" xlink:title=" ">
<polygon fill="white" stroke="black" points="510,-290.5 510,-311.5 560,-311.5 560,-290.5 510,-290.5"/>
<text text-anchor="middle" x="535" y="-297.9" font-family="DejaVuSans" font-size="12.00">eqtb.h</text>
</a>
</g>
</g>
<!-- Node1&#45;&gt;Node23 -->
<g id="edge36" class="edge">
<title>Node1&#45;&gt;Node23</title>
<path fill="none" stroke="midnightblue" d="M398.61,-696.3C409.18,-677.07 431,-632.47 431,-592 431,-592 431,-592 431,-416 431,-370.84 476.09,-335.73 506.89,-317.01"/>
<polygon fill="midnightblue" stroke="midnightblue" points="509.05,-319.8 515.92,-311.73 505.52,-313.75 509.05,-319.8"/>
</g>
<!-- Node24 -->
<g id="node24" class="node">
<title>Node24</title>
<g id="a_node24"><a xlink:href="pack_8h.html" target="_top" xlink:title=" ">
<polygon fill="white" stroke="black" points="459,-638.5 459,-659.5 511,-659.5 511,-638.5 459,-638.5"/>
<text text-anchor="middle" x="485" y="-645.9" font-family="DejaVuSans" font-size="12.00">pack.h</text>
</a>
</g>
</g>
<!-- Node1&#45;&gt;Node24 -->
<g id="edge39" class="edge">
<title>Node1&#45;&gt;Node24</title>
<path fill="none" stroke="midnightblue" d="M409.03,-696.25C423.14,-687.65 443.93,-675 460.19,-665.1"/>
<polygon fill="midnightblue" stroke="midnightblue" points="462.44,-667.83 469.16,-659.64 458.8,-661.85 462.44,-667.83"/>
</g>
<!-- Node25 -->
<g id="node25" class="node">
<title>Node25</title>
<g id="a_node25"><a xlink:href="error_8h.html" target="_top" xlink:title=" ">
<polygon fill="white" stroke="black" points="529.5,-638.5 529.5,-659.5 580.5,-659.5 580.5,-638.5 529.5,-638.5"/>
<text text-anchor="middle" x="555" y="-645.9" font-family="DejaVuSans" font-size="12.00">error.h</text>
</a>
</g>
</g>
<!-- Node1&#45;&gt;Node25 -->
<g id="edge40" class="edge">
<title>Node1&#45;&gt;Node25</title>
<path fill="none" stroke="midnightblue" d="M420.85,-696.37C448.24,-686.9 490.15,-672.42 519.82,-662.16"/>
<polygon fill="midnightblue" stroke="midnightblue" points="521.07,-665.43 529.38,-658.86 518.79,-658.81 521.07,-665.43"/>
</g>
<!-- Node26 -->
<g id="node26" class="node">
<title>Node26</title>
<g id="a_node26"><a xlink:href="texmath_8h.html" target="_top" xlink:title=" ">
<polygon fill="white" stroke="black" points="39,-580.5 39,-601.5 107,-601.5 107,-580.5 39,-580.5"/>
<text text-anchor="middle" x="73" y="-587.9" font-family="DejaVuSans" font-size="12.00">texmath.h</text>
</a>
</g>
</g>
<!-- Node1&#45;&gt;Node26 -->
<g id="edge41" class="edge">
<title>Node1&#45;&gt;Node26</title>
<path fill="none" stroke="midnightblue" d="M355.98,-704.6C286.48,-701.27 139.92,-690.72 101,-660 86.16,-648.29 79.12,-627.38 75.82,-611.83"/>
<polygon fill="midnightblue" stroke="midnightblue" points="79.21,-610.89 74.02,-601.66 72.32,-612.11 79.21,-610.89"/>
</g>
<!-- Node27 -->
<g id="node27" class="node">
<title>Node27</title>
<g id="a_node27"><a xlink:href="hyphen_8h.html" target="_top" xlink:title=" ">
<polygon fill="white" stroke="black" points="685,-348.5 685,-369.5 751,-369.5 751,-348.5 685,-348.5"/>
<text text-anchor="middle" x="718" y="-355.9" font-family="DejaVuSans" font-size="12.00">hyphen.h</text>
</a>
</g>
</g>
<!-- Node1&#45;&gt;Node27 -->
<g id="edge43" class="edge">
<title>Node1&#45;&gt;Node27</title>
<path fill="none" stroke="midnightblue" d="M430.37,-703.35C474.99,-699.03 550.99,-687.91 610,-660 653.73,-639.31 695,-640.38 695,-592 695,-592 695,-592 695,-474 695,-440.17 704.86,-401.78 711.66,-379.3"/>
<polygon fill="midnightblue" stroke="midnightblue" points="715.04,-380.22 714.7,-369.63 708.37,-378.12 715.04,-380.22"/>
</g>
<!-- Node28 -->
<g id="node28" class="node">
<title>Node28</title>
<g id="a_node28"><a xlink:href="linebreak_8h.html" target="_top" xlink:title=" ">
<polygon fill="white" stroke="black" points="723.5,-638.5 723.5,-659.5 798.5,-659.5 798.5,-638.5 723.5,-638.5"/>
<text text-anchor="middle" x="761" y="-645.9" font-family="DejaVuSans" font-size="12.00">linebreak.h</text>
</a>
</g>
</g>
<!-- Node1&#45;&gt;Node28 -->
<g id="edge48" class="edge">
<title>Node1&#45;&gt;Node28</title>
<path fill="none" stroke="midnightblue" d="M430.06,-701.16C489.18,-693.32 608.42,-676.98 709,-660 710.44,-659.76 711.91,-659.5 713.39,-659.25"/>
<polygon fill="midnightblue" stroke="midnightblue" points="714.04,-662.68 723.26,-657.47 712.8,-655.8 714.04,-662.68"/>
</g>
<!-- Node4 -->
<g id="node4" class="node">
<title>Node4</title>
<g id="a_node4"><a xlink:href="tex__types_8h.html" target="_top" xlink:title=" ">
<polygon fill="white" stroke="black" points="327.5,-58.5 327.5,-79.5 404.5,-79.5 404.5,-58.5 327.5,-58.5"/>
<text text-anchor="middle" x="366" y="-65.9" font-family="DejaVuSans" font-size="12.00">tex_types.h</text>
</a>
</g>
</g>
<!-- Node3&#45;&gt;Node4 -->
<g id="edge3" class="edge">
<title>Node3&#45;&gt;Node4</title>
<path fill="none" stroke="midnightblue" d="M396.89,-290.16C394.94,-280.87 392.04,-266.53 390,-254 380.32,-194.56 371.98,-123.8 368.18,-89.96"/>
<polygon fill="midnightblue" stroke="midnightblue" points="371.62,-89.16 367.04,-79.61 364.66,-89.93 371.62,-89.16"/>
</g>
<!-- Node7 -->
<g id="node7" class="node">
<title>Node7</title>
<g id="a_node7"><a xlink:href="tex__constant_8h.html" target="_top" xlink:title=" ">
<polygon fill="white" stroke="black" points="432,-232.5 432,-253.5 526,-253.5 526,-232.5 432,-232.5"/>
<text text-anchor="middle" x="479" y="-239.9" font-family="DejaVuSans" font-size="12.00">tex_constant.h</text>
</a>
</g>
</g>
<!-- Node3&#45;&gt;Node7 -->
<g id="edge6" class="edge">
<title>Node3&#45;&gt;Node7</title>
<path fill="none" stroke="midnightblue" d="M412.93,-290.25C425.09,-281.73 442.95,-269.24 457.03,-259.38"/>
<polygon fill="midnightblue" stroke="midnightblue" points="459.04,-262.24 465.22,-253.64 455.03,-256.51 459.04,-262.24"/>
</g>
<!-- Node5 -->
<g id="node5" class="node">
<title>Node5</title>
<g id="a_node5"><a xlink:title=" ">
<polygon fill="white" stroke="#bfbfbf" points="333.5,-0.5 333.5,-21.5 398.5,-21.5 398.5,-0.5 333.5,-0.5"/>
<text text-anchor="middle" x="366" y="-7.9" font-family="DejaVuSans" font-size="12.00">stdbool.h</text>
</a>
</g>
</g>
<!-- Node4&#45;&gt;Node5 -->
<g id="edge4" class="edge">
<title>Node4&#45;&gt;Node5</title>
<path fill="none" stroke="midnightblue" d="M366,-58.25C366,-50.94 366,-40.69 366,-31.7"/>
<polygon fill="midnightblue" stroke="midnightblue" points="369.5,-31.64 366,-21.64 362.5,-31.64 369.5,-31.64"/>
</g>
<!-- Node6 -->
<g id="node6" class="node">
<title>Node6</title>
<g id="a_node6"><a xlink:title=" ">
<polygon fill="white" stroke="#bfbfbf" points="447.5,-0.5 447.5,-21.5 502.5,-21.5 502.5,-0.5 447.5,-0.5"/>
<text text-anchor="middle" x="475" y="-7.9" font-family="DejaVuSans" font-size="12.00">stdint.h</text>
</a>
</g>
</g>
<!-- Node4&#45;&gt;Node6 -->
<g id="edge5" class="edge">
<title>Node4&#45;&gt;Node6</title>
<path fill="none" stroke="midnightblue" d="M384.99,-58.25C402.18,-49.41 427.72,-36.29 447.21,-26.28"/>
<polygon fill="midnightblue" stroke="midnightblue" points="448.94,-29.33 456.23,-21.64 445.74,-23.1 448.94,-29.33"/>
</g>
<!-- Node8 -->
<g id="node8" class="node">
<title>Node8</title>
<g id="a_node8"><a xlink:href="box_8h.html" target="_top" xlink:title=" ">
<polygon fill="white" stroke="black" points="462,-174.5 462,-195.5 508,-195.5 508,-174.5 462,-174.5"/>
<text text-anchor="middle" x="485" y="-181.9" font-family="DejaVuSans" font-size="12.00">box.h</text>
</a>
</g>
</g>
<!-- Node7&#45;&gt;Node8 -->
<g id="edge7" class="edge">
<title>Node7&#45;&gt;Node8</title>
<path fill="none" stroke="midnightblue" d="M480.05,-232.25C480.83,-224.94 481.93,-214.69 482.89,-205.7"/>
<polygon fill="midnightblue" stroke="midnightblue" points="486.38,-205.96 483.97,-195.64 479.42,-205.21 486.38,-205.96"/>
</g>
<!-- Node9 -->
<g id="node9" class="node">
<title>Node9</title>
<g id="a_node9"><a xlink:href="str_8h.html" target="_top" xlink:title=" ">
<polygon fill="white" stroke="black" points="509.5,-116.5 509.5,-137.5 548.5,-137.5 548.5,-116.5 509.5,-116.5"/>
<text text-anchor="middle" x="529" y="-123.9" font-family="DejaVuSans" font-size="12.00">str.h</text>
</a>
</g>
</g>
<!-- Node8&#45;&gt;Node9 -->
<g id="edge8" class="edge">
<title>Node8&#45;&gt;Node9</title>
<path fill="none" stroke="midnightblue" d="M492.66,-174.25C498.85,-166.38 507.71,-155.1 515.13,-145.65"/>
<polygon fill="midnightblue" stroke="midnightblue" points="518,-147.67 521.42,-137.64 512.49,-143.34 518,-147.67"/>
</g>
<!-- Node9&#45;&gt;Node4 -->
<g id="edge14" class="edge">
<title>Node9&#45;&gt;Node4</title>
<path fill="none" stroke="midnightblue" d="M509.34,-119.25C483.25,-110.28 436.65,-94.27 403.67,-82.94"/>
<polygon fill="midnightblue" stroke="midnightblue" points="404.51,-79.53 393.91,-79.59 402.23,-86.15 404.51,-79.53"/>
</g>
<!-- Node9&#45;&gt;Node6 -->
<g id="edge10" class="edge">
<title>Node9&#45;&gt;Node6</title>
<path fill="none" stroke="midnightblue" d="M524.4,-116.28C515.47,-97.43 495.66,-55.62 484.03,-31.05"/>
<polygon fill="midnightblue" stroke="midnightblue" points="487.04,-29.23 479.59,-21.69 480.71,-32.23 487.04,-29.23"/>
</g>
<!-- Node10 -->
<g id="node10" class="node">
<title>Node10</title>
<g id="a_node10"><a xlink:title=" ">
<polygon fill="white" stroke="#bfbfbf" points="585,-0.5 585,-21.5 637,-21.5 637,-0.5 585,-0.5"/>
<text text-anchor="middle" x="611" y="-7.9" font-family="DejaVuSans" font-size="12.00">stdio.h</text>
</a>
</g>
</g>
<!-- Node9&#45;&gt;Node10 -->
<g id="edge9" class="edge">
<title>Node9&#45;&gt;Node10</title>
<path fill="none" stroke="midnightblue" d="M535.99,-116.28C549.73,-97.18 580.43,-54.5 598,-30.08"/>
<polygon fill="midnightblue" stroke="midnightblue" points="601.03,-31.86 604.03,-21.69 595.35,-27.77 601.03,-31.86"/>
</g>
<!-- Node11 -->
<g id="node11" class="node">
<title>Node11</title>
<g id="a_node11"><a xlink:href="global__const_8h.html" target="_top" xlink:title=" ">
<polygon fill="white" stroke="black" points="658.5,-58.5 658.5,-79.5 751.5,-79.5 751.5,-58.5 658.5,-58.5"/>
<text text-anchor="middle" x="705" y="-65.9" font-family="DejaVuSans" font-size="12.00">global_const.h</text>
</a>
</g>
</g>
<!-- Node9&#45;&gt;Node11 -->
<g id="edge11" class="edge">
<title>Node9&#45;&gt;Node11</title>
<path fill="none" stroke="midnightblue" d="M548.51,-119.79C576.57,-110.86 628.94,-94.2 665.33,-82.62"/>
<polygon fill="midnightblue" stroke="midnightblue" points="666.67,-85.87 675.14,-79.5 664.55,-79.2 666.67,-85.87"/>
</g>
<!-- Node11&#45;&gt;Node10 -->
<g id="edge13" class="edge">
<title>Node11&#45;&gt;Node10</title>
<path fill="none" stroke="midnightblue" d="M688.63,-58.25C674.07,-49.57 652.57,-36.76 635.88,-26.82"/>
<polygon fill="midnightblue" stroke="midnightblue" points="637.57,-23.75 627.19,-21.64 633.99,-29.77 637.57,-23.75"/>
</g>
<!-- Node12 -->
<g id="node12" class="node">
<title>Node12</title>
<g id="a_node12"><a xlink:title=" ">
<polygon fill="white" stroke="#bfbfbf" points="675.5,-0.5 675.5,-21.5 734.5,-21.5 734.5,-0.5 675.5,-0.5"/>
<text text-anchor="middle" x="705" y="-7.9" font-family="DejaVuSans" font-size="12.00">assert.h</text>
</a>
</g>
</g>
<!-- Node11&#45;&gt;Node12 -->
<g id="edge12" class="edge">
<title>Node11&#45;&gt;Node12</title>
<path fill="none" stroke="midnightblue" d="M705,-58.25C705,-50.94 705,-40.69 705,-31.7"/>
<polygon fill="midnightblue" stroke="midnightblue" points="708.5,-31.64 705,-21.64 701.5,-31.64 708.5,-31.64"/>
</g>
<!-- Node13&#45;&gt;Node9 -->
<g id="edge17" class="edge">
<title>Node13&#45;&gt;Node9</title>
<path fill="none" stroke="midnightblue" d="M591.89,-464.4C602.66,-441.8 625.48,-384.38 600,-348 573.14,-309.65 542.22,-334.2 501,-312 462.97,-291.51 442.4,-292.6 423,-254 405.95,-220.07 427.06,-201.73 453,-174 466.26,-159.82 484.86,-148.46 500.33,-140.58"/>
<polygon fill="midnightblue" stroke="midnightblue" points="502.03,-143.65 509.49,-136.13 498.97,-137.35 502.03,-143.65"/>
</g>
<!-- Node14 -->
<g id="node14" class="node">
<title>Node14</title>
<g id="a_node14"><a xlink:title=" ">
<polygon fill="white" stroke="#bfbfbf" points="459,-406.5 459,-427.5 521,-427.5 521,-406.5 459,-406.5"/>
<text text-anchor="middle" x="490" y="-413.9" font-family="DejaVuSans" font-size="12.00">setjmp.h</text>
</a>
</g>
</g>
<!-- Node13&#45;&gt;Node14 -->
<g id="edge16" class="edge">
<title>Node13&#45;&gt;Node14</title>
<path fill="none" stroke="midnightblue" d="M570.1,-464.25C555.08,-455.57 532.9,-442.76 515.68,-432.82"/>
<polygon fill="midnightblue" stroke="midnightblue" points="517.11,-429.61 506.7,-427.64 513.61,-435.67 517.11,-429.61"/>
</g>
<!-- Node15 -->
<g id="node15" class="node">
<title>Node15</title>
<g id="a_node15"><a xlink:href="scan_8h.html" target="_top" xlink:title=" ">
<polygon fill="white" stroke="black" points="539,-406.5 539,-427.5 591,-427.5 591,-406.5 539,-406.5"/>
<text text-anchor="middle" x="565" y="-413.9" font-family="DejaVuSans" font-size="12.00">scan.h</text>
</a>
</g>
</g>
<!-- Node13&#45;&gt;Node15 -->
<g id="edge18" class="edge">
<title>Node13&#45;&gt;Node15</title>
<path fill="none" stroke="midnightblue" d="M583.17,-464.25C580.23,-456.78 576.1,-446.24 572.51,-437.11"/>
<polygon fill="midnightblue" stroke="midnightblue" points="575.7,-435.67 568.79,-427.64 569.19,-438.23 575.7,-435.67"/>
</g>
<!-- Node17 -->
<g id="node17" class="node">
<title>Node17</title>
<g id="a_node17"><a xlink:href="fonts_8h.html" target="_top" xlink:title=" ">
<polygon fill="white" stroke="black" points="653,-232.5 653,-253.5 705,-253.5 705,-232.5 653,-232.5"/>
<text text-anchor="middle" x="679" y="-239.9" font-family="DejaVuSans" font-size="12.00">fonts.h</text>
</a>
</g>
</g>
<!-- Node13&#45;&gt;Node17 -->
<g id="edge22" class="edge">
<title>Node13&#45;&gt;Node17</title>
<path fill="none" stroke="midnightblue" d="M599.84,-464.45C610.29,-456 624.65,-442.74 633,-428 663.61,-373.94 674.09,-299.62 677.48,-264.27"/>
<polygon fill="midnightblue" stroke="midnightblue" points="681.01,-264.12 678.38,-253.86 674.03,-263.52 681.01,-264.12"/>
</g>
<!-- Node16 -->
<g id="node16" class="node">
<title>Node16</title>
<g id="a_node16"><a xlink:href="lexer_8h.html" target="_top" xlink:title=" ">
<polygon fill="white" stroke="black" points="539,-348.5 539,-369.5 591,-369.5 591,-348.5 539,-348.5"/>
<text text-anchor="middle" x="565" y="-355.9" font-family="DejaVuSans" font-size="12.00">lexer.h</text>
</a>
</g>
</g>
<!-- Node15&#45;&gt;Node16 -->
<g id="edge19" class="edge">
<title>Node15&#45;&gt;Node16</title>
<path fill="none" stroke="midnightblue" d="M565,-406.25C565,-398.94 565,-388.69 565,-379.7"/>
<polygon fill="midnightblue" stroke="midnightblue" points="568.5,-379.64 565,-369.64 561.5,-379.64 568.5,-379.64"/>
</g>
<!-- Node16&#45;&gt;Node3 -->
<g id="edge21" class="edge">
<title>Node16&#45;&gt;Node3</title>
<path fill="none" stroke="midnightblue" d="M538.7,-349.13C509.08,-339.14 461.02,-322.92 429.71,-312.36"/>
<polygon fill="midnightblue" stroke="midnightblue" points="430.77,-309.02 420.18,-309.14 428.53,-315.66 430.77,-309.02"/>
</g>
<!-- Node16&#45;&gt;Node10 -->
<g id="edge20" class="edge">
<title>Node16&#45;&gt;Node10</title>
<path fill="none" stroke="midnightblue" d="M568.87,-348.42C576.33,-329.05 592,-283.66 592,-244 592,-244 592,-244 592,-126 592,-92.38 600.14,-53.92 605.77,-31.37"/>
<polygon fill="midnightblue" stroke="midnightblue" points="609.16,-32.23 608.28,-21.67 602.38,-30.47 609.16,-32.23"/>
</g>
<!-- Node17&#45;&gt;Node10 -->
<g id="edge23" class="edge">
<title>Node17&#45;&gt;Node10</title>
<path fill="none" stroke="midnightblue" d="M676.16,-232.41C665.9,-197.71 630.58,-78.24 616.68,-31.22"/>
<polygon fill="midnightblue" stroke="midnightblue" points="620.04,-30.23 613.85,-21.63 613.33,-32.21 620.04,-30.23"/>
</g>
<!-- Node17&#45;&gt;Node11 -->
<g id="edge24" class="edge">
<title>Node17&#45;&gt;Node11</title>
<path fill="none" stroke="midnightblue" d="M680.47,-232.26C684.62,-204.82 696.46,-126.51 702.03,-89.64"/>
<polygon fill="midnightblue" stroke="midnightblue" points="705.51,-90.04 703.54,-79.63 698.59,-89 705.51,-90.04"/>
</g>
<!-- Node18&#45;&gt;Node4 -->
<g id="edge26" class="edge">
<title>Node18&#45;&gt;Node4</title>
<path fill="none" stroke="midnightblue" d="M295.16,-522.45C274,-491.95 211,-393.47 211,-302 211,-302 211,-302 211,-184 211,-129.69 273.51,-98.39 319.13,-82.77"/>
<polygon fill="midnightblue" stroke="midnightblue" points="320.46,-86.02 328.87,-79.58 318.28,-79.37 320.46,-86.02"/>
</g>
<!-- Node18&#45;&gt;Node13 -->
<g id="edge27" class="edge">
<title>Node18&#45;&gt;Node13</title>
<path fill="none" stroke="midnightblue" d="M328.56,-526.78C379.01,-516.87 488.91,-495.27 547.83,-483.7"/>
<polygon fill="midnightblue" stroke="midnightblue" points="548.73,-487.09 557.87,-481.72 547.38,-480.22 548.73,-487.09"/>
</g>
<!-- Node21&#45;&gt;Node3 -->
<g id="edge32" class="edge">
<title>Node21&#45;&gt;Node3</title>
<path fill="none" stroke="midnightblue" d="M149.63,-638.25C161.21,-629.86 177.03,-616.79 187,-602 204.91,-575.42 211,-566.05 211,-534 211,-534 211,-534 211,-474 211,-389.67 315.25,-335.56 368.49,-313.42"/>
<polygon fill="midnightblue" stroke="midnightblue" points="369.84,-316.65 377.8,-309.66 367.22,-310.16 369.84,-316.65"/>
</g>
<!-- Node21&#45;&gt;Node4 -->
<g id="edge31" class="edge">
<title>Node21&#45;&gt;Node4</title>
<path fill="none" stroke="midnightblue" d="M135,-638.24C135,-618.54 135,-572.59 135,-534 135,-534 135,-534 135,-184 135,-103.39 249.52,-79.78 317.29,-72.86"/>
<polygon fill="midnightblue" stroke="midnightblue" points="317.7,-76.34 327.34,-71.93 317.05,-69.37 317.7,-76.34"/>
</g>
<!-- Node21&#45;&gt;Node9 -->
<g id="edge35" class="edge">
<title>Node21&#45;&gt;Node9</title>
<path fill="none" stroke="midnightblue" d="M140.61,-638.3C151.18,-619.07 173,-574.47 173,-534 173,-534 173,-534 173,-416 173,-248.49 414.18,-161.62 499.52,-136.12"/>
<polygon fill="midnightblue" stroke="midnightblue" points="500.73,-139.41 509.35,-133.25 498.77,-132.69 500.73,-139.41"/>
</g>
<!-- Node22 -->
<g id="node22" class="node">
<title>Node22</title>
<g id="a_node22"><a xlink:href="texmac_8h.html" target="_top" xlink:title=" ">
<polygon fill="white" stroke="black" points="239.5,-580.5 239.5,-601.5 304.5,-601.5 304.5,-580.5 239.5,-580.5"/>
<text text-anchor="middle" x="272" y="-587.9" font-family="DejaVuSans" font-size="12.00">texmac.h</text>
</a>
</g>
</g>
<!-- Node21&#45;&gt;Node22 -->
<g id="edge33" class="edge">
<title>Node21&#45;&gt;Node22</title>
<path fill="none" stroke="midnightblue" d="M158.55,-638.37C180.84,-629.26 214.49,-615.51 239.36,-605.34"/>
<polygon fill="midnightblue" stroke="midnightblue" points="240.82,-608.52 248.76,-601.5 238.18,-602.05 240.82,-608.52"/>
</g>
<!-- Node22&#45;&gt;Node18 -->
<g id="edge34" class="edge">
<title>Node22&#45;&gt;Node18</title>
<path fill="none" stroke="midnightblue" d="M277.23,-580.25C281.31,-572.62 287.11,-561.79 292.07,-552.53"/>
<polygon fill="midnightblue" stroke="midnightblue" points="295.2,-554.11 296.83,-543.64 289.03,-550.8 295.2,-554.11"/>
</g>
<!-- Node23&#45;&gt;Node4 -->
<g id="edge37" class="edge">
<title>Node23&#45;&gt;Node4</title>
<path fill="none" stroke="midnightblue" d="M536.47,-290.35C539.37,-267.62 543.45,-209.95 517,-174 485.79,-131.58 431.85,-100.55 397.6,-83.91"/>
<polygon fill="midnightblue" stroke="midnightblue" points="399.03,-80.71 388.5,-79.6 396.04,-87.04 399.03,-80.71"/>
</g>
<!-- Node23&#45;&gt;Node7 -->
<g id="edge38" class="edge">
<title>Node23&#45;&gt;Node7</title>
<path fill="none" stroke="midnightblue" d="M525.25,-290.25C517.14,-282.14 505.41,-270.41 495.79,-260.79"/>
<polygon fill="midnightblue" stroke="midnightblue" points="498.19,-258.24 488.64,-253.64 493.24,-263.19 498.19,-258.24"/>
</g>
<!-- Node26&#45;&gt;Node4 -->
<g id="edge42" class="edge">
<title>Node26&#45;&gt;Node4</title>
<path fill="none" stroke="midnightblue" d="M74.72,-580.28C78.04,-560.64 85,-514.81 85,-476 85,-476 85,-476 85,-184 85,-149.8 93.46,-136.28 121,-116 151.53,-93.51 255.07,-80.26 317.36,-74.13"/>
<polygon fill="midnightblue" stroke="midnightblue" points="317.73,-77.61 327.36,-73.17 317.07,-70.64 317.73,-77.61"/>
</g>
<!-- Node27&#45;&gt;Node3 -->
<g id="edge45" class="edge">
<title>Node27&#45;&gt;Node3</title>
<path fill="none" stroke="midnightblue" d="M684.76,-352.17C622.89,-341.3 490.86,-318.13 430.4,-307.51"/>
<polygon fill="midnightblue" stroke="midnightblue" points="430.77,-304.02 420.32,-305.74 429.56,-310.92 430.77,-304.02"/>
</g>
<!-- Node27&#45;&gt;Node11 -->
<g id="edge44" class="edge">
<title>Node27&#45;&gt;Node11</title>
<path fill="none" stroke="midnightblue" d="M720.15,-348.3C724.3,-328.7 733,-282.93 733,-244 733,-244 733,-244 733,-184 733,-149.85 721,-111.56 712.71,-89.18"/>
<polygon fill="midnightblue" stroke="midnightblue" points="715.87,-87.64 709.01,-79.56 709.34,-90.15 715.87,-87.64"/>
</g>
<!-- Node27&#45;&gt;Node17 -->
<g id="edge46" class="edge">
<title>Node27&#45;&gt;Node17</title>
<path fill="none" stroke="midnightblue" d="M714.67,-348.28C708.26,-329.52 694.05,-288 685.63,-263.38"/>
<polygon fill="midnightblue" stroke="midnightblue" points="688.87,-262.02 682.32,-253.69 682.24,-264.29 688.87,-262.02"/>
</g>
<!-- Node27&#45;&gt;Node23 -->
<g id="edge47" class="edge">
<title>Node27&#45;&gt;Node23</title>
<path fill="none" stroke="midnightblue" d="M686.54,-348.37C654.13,-338.45 603.71,-323.03 570.04,-312.72"/>
<polygon fill="midnightblue" stroke="midnightblue" points="570.76,-309.28 560.17,-309.7 568.71,-315.98 570.76,-309.28"/>
</g>
</g>
</svg>
