<?xml version="1.0" encoding="UTF-8" standalone="no"?>
<!DOCTYPE svg PUBLIC "-//W3C//DTD SVG 1.1//EN"
 "http://www.w3.org/Graphics/SVG/1.1/DTD/svg11.dtd">
<!-- Generated by graphviz version 2.44.0 ()
 -->
<!-- Title: linebreak.c Pages: 1 -->
<svg width="1161pt" height="494pt"
 viewBox="0.00 0.00 1160.50 494.00" xmlns="http://www.w3.org/2000/svg" xmlns:xlink="http://www.w3.org/1999/xlink">
<g id="graph0" class="graph" transform="scale(1 1) rotate(0) translate(4 490)">
<title>linebreak.c</title>
<polygon fill="white" stroke="transparent" points="-4,4 -4,-490 1156.5,-490 1156.5,4 -4,4"/>
<!-- Node1 -->
<g id="node1" class="node">
<title>Node1</title>
<g id="a_node1"><a xlink:title=" ">
<polygon fill="#bfbfbf" stroke="black" points="556,-464.5 556,-485.5 630,-485.5 630,-464.5 556,-464.5"/>
<text text-anchor="middle" x="593" y="-471.9" font-family="DejaVuSans" font-size="12.00">linebreak.c</text>
</a>
</g>
</g>
<!-- Node2 -->
<g id="node2" class="node">
<title>Node2</title>
<g id="a_node2"><a xlink:title=" ">
<polygon fill="white" stroke="#bfbfbf" points="0,-406.5 0,-427.5 54,-427.5 54,-406.5 0,-406.5"/>
<text text-anchor="middle" x="27" y="-413.9" font-family="DejaVuSans" font-size="12.00">stdlib.h</text>
</a>
</g>
</g>
<!-- Node1&#45;&gt;Node2 -->
<g id="edge1" class="edge">
<title>Node1&#45;&gt;Node2</title>
<path fill="none" stroke="midnightblue" d="M555.84,-472.68C469.62,-469.21 249.46,-457.9 68,-428 66.74,-427.79 65.46,-427.57 64.17,-427.33"/>
<polygon fill="midnightblue" stroke="midnightblue" points="64.73,-423.87 54.23,-425.25 63.3,-430.72 64.73,-423.87"/>
</g>
<!-- Node3 -->
<g id="node3" class="node">
<title>Node3</title>
<g id="a_node3"><a xlink:href="tex__constant_8h.html" target="_top" xlink:title=" ">
<polygon fill="white" stroke="black" points="177,-174.5 177,-195.5 271,-195.5 271,-174.5 177,-174.5"/>
<text text-anchor="middle" x="224" y="-181.9" font-family="DejaVuSans" font-size="12.00">tex_constant.h</text>
</a>
</g>
</g>
<!-- Node1&#45;&gt;Node3 -->
<g id="edge2" class="edge">
<title>Node1&#45;&gt;Node3</title>
<path fill="none" stroke="midnightblue" d="M555.84,-473.65C438.25,-471.54 82,-457.15 82,-360 82,-360 82,-360 82,-300 82,-266.79 89.11,-255.07 113,-232 129.12,-216.43 151.25,-205.83 171.52,-198.77"/>
<polygon fill="midnightblue" stroke="midnightblue" points="172.86,-202.01 181.28,-195.58 170.69,-195.36 172.86,-202.01"/>
</g>
<!-- Node5 -->
<g id="node5" class="node">
<title>Node5</title>
<g id="a_node5"><a xlink:href="mem_8h.html" target="_top" xlink:title=" ">
<polygon fill="white" stroke="black" points="122.5,-232.5 122.5,-253.5 175.5,-253.5 175.5,-232.5 122.5,-232.5"/>
<text text-anchor="middle" x="149" y="-239.9" font-family="DejaVuSans" font-size="12.00">mem.h</text>
</a>
</g>
</g>
<!-- Node1&#45;&gt;Node5 -->
<g id="edge4" class="edge">
<title>Node1&#45;&gt;Node5</title>
<path fill="none" stroke="midnightblue" d="M555.64,-470.85C510.55,-466.03 433.17,-454.41 372,-428 280.32,-388.42 196.45,-299.23 163.63,-261.44"/>
<polygon fill="midnightblue" stroke="midnightblue" points="166.24,-259.11 157.07,-253.79 160.92,-263.67 166.24,-259.11"/>
</g>
<!-- Node13 -->
<g id="node13" class="node">
<title>Node13</title>
<g id="a_node13"><a xlink:href="print_8h.html" target="_top" xlink:title=" ">
<polygon fill="white" stroke="black" points="568,-290.5 568,-311.5 618,-311.5 618,-290.5 568,-290.5"/>
<text text-anchor="middle" x="593" y="-297.9" font-family="DejaVuSans" font-size="12.00">print.h</text>
</a>
</g>
</g>
<!-- Node1&#45;&gt;Node13 -->
<g id="edge14" class="edge">
<title>Node1&#45;&gt;Node13</title>
<path fill="none" stroke="midnightblue" d="M593,-464.26C593,-436.82 593,-358.51 593,-321.64"/>
<polygon fill="midnightblue" stroke="midnightblue" points="596.5,-321.63 593,-311.63 589.5,-321.63 596.5,-321.63"/>
</g>
<!-- Node16 -->
<g id="node16" class="node">
<title>Node16</title>
<g id="a_node16"><a xlink:href="eqtb_8h.html" target="_top" xlink:title=" ">
<polygon fill="white" stroke="black" points="232,-232.5 232,-253.5 282,-253.5 282,-232.5 232,-232.5"/>
<text text-anchor="middle" x="257" y="-239.9" font-family="DejaVuSans" font-size="12.00">eqtb.h</text>
</a>
</g>
</g>
<!-- Node1&#45;&gt;Node16 -->
<g id="edge28" class="edge">
<title>Node1&#45;&gt;Node16</title>
<path fill="none" stroke="midnightblue" d="M555.78,-467.46C498.94,-455.96 389.29,-427.66 315,-370 290.06,-350.65 287.16,-340.69 274,-312 266.87,-296.47 262.45,-277.51 259.91,-263.56"/>
<polygon fill="midnightblue" stroke="midnightblue" points="263.35,-262.9 258.26,-253.61 256.44,-264.05 263.35,-262.9"/>
</g>
<!-- Node18 -->
<g id="node18" class="node">
<title>Node18</title>
<g id="a_node18"><a xlink:href="pack_8h.html" target="_top" xlink:title=" ">
<polygon fill="white" stroke="black" points="940,-348.5 940,-369.5 992,-369.5 992,-348.5 940,-348.5"/>
<text text-anchor="middle" x="966" y="-355.9" font-family="DejaVuSans" font-size="12.00">pack.h</text>
</a>
</g>
</g>
<!-- Node1&#45;&gt;Node18 -->
<g id="edge29" class="edge">
<title>Node1&#45;&gt;Node18</title>
<path fill="none" stroke="midnightblue" d="M630.29,-472.88C706.76,-469.94 878.17,-459.9 926,-428 943.04,-416.64 953.82,-395.36 959.84,-379.62"/>
<polygon fill="midnightblue" stroke="midnightblue" points="963.27,-380.39 963.26,-369.79 956.66,-378.08 963.27,-380.39"/>
</g>
<!-- Node20 -->
<g id="node20" class="node">
<title>Node20</title>
<g id="a_node20"><a xlink:href="texmath_8h.html" target="_top" xlink:title=" ">
<polygon fill="white" stroke="black" points="958,-232.5 958,-253.5 1026,-253.5 1026,-232.5 958,-232.5"/>
<text text-anchor="middle" x="992" y="-239.9" font-family="DejaVuSans" font-size="12.00">texmath.h</text>
</a>
</g>
</g>
<!-- Node1&#45;&gt;Node20 -->
<g id="edge40" class="edge">
<title>Node1&#45;&gt;Node20</title>
<path fill="none" stroke="midnightblue" d="M630.17,-472.57C710.22,-468.95 896.09,-457.54 951,-428 980.97,-411.88 989.15,-401.9 1001,-370 1014.31,-334.18 1005.33,-288.76 998.24,-263.4"/>
<polygon fill="midnightblue" stroke="midnightblue" points="1001.52,-262.13 995.3,-253.55 994.81,-264.13 1001.52,-262.13"/>
</g>
<!-- Node21 -->
<g id="node21" class="node">
<title>Node21</title>
<g id="a_node21"><a xlink:href="error_8h.html" target="_top" xlink:title=" ">
<polygon fill="white" stroke="black" points="926.5,-290.5 926.5,-311.5 977.5,-311.5 977.5,-290.5 926.5,-290.5"/>
<text text-anchor="middle" x="952" y="-297.9" font-family="DejaVuSans" font-size="12.00">error.h</text>
</a>
</g>
</g>
<!-- Node1&#45;&gt;Node21 -->
<g id="edge37" class="edge">
<title>Node1&#45;&gt;Node21</title>
<path fill="none" stroke="midnightblue" d="M630.02,-466.9C688.52,-454.43 804.3,-424.58 888,-370 908.66,-356.53 927.37,-335.05 939.15,-319.84"/>
<polygon fill="midnightblue" stroke="midnightblue" points="942.04,-321.82 945.24,-311.72 936.44,-317.62 942.04,-321.82"/>
</g>
<!-- Node22 -->
<g id="node22" class="node">
<title>Node22</title>
<g id="a_node22"><a xlink:href="hyphen_8h.html" target="_top" xlink:title=" ">
<polygon fill="white" stroke="black" points="353,-348.5 353,-369.5 419,-369.5 419,-348.5 353,-348.5"/>
<text text-anchor="middle" x="386" y="-355.9" font-family="DejaVuSans" font-size="12.00">hyphen.h</text>
</a>
</g>
</g>
<!-- Node1&#45;&gt;Node22 -->
<g id="edge41" class="edge">
<title>Node1&#45;&gt;Node22</title>
<path fill="none" stroke="midnightblue" d="M575.71,-464.48C539.48,-444.53 455.43,-398.24 412.41,-374.54"/>
<polygon fill="midnightblue" stroke="midnightblue" points="413.84,-371.33 403.39,-369.58 410.46,-377.47 413.84,-371.33"/>
</g>
<!-- Node25 -->
<g id="node25" class="node">
<title>Node25</title>
<g id="a_node25"><a xlink:href="extension_8h.html" target="_top" xlink:title=" ">
<polygon fill="white" stroke="black" points="637,-406.5 637,-427.5 715,-427.5 715,-406.5 637,-406.5"/>
<text text-anchor="middle" x="676" y="-413.9" font-family="DejaVuSans" font-size="12.00">extension.h</text>
</a>
</g>
</g>
<!-- Node1&#45;&gt;Node25 -->
<g id="edge56" class="edge">
<title>Node1&#45;&gt;Node25</title>
<path fill="none" stroke="midnightblue" d="M607.46,-464.25C620.07,-455.73 638.59,-443.24 653.2,-433.38"/>
<polygon fill="midnightblue" stroke="midnightblue" points="655.38,-436.14 661.71,-427.64 651.46,-430.33 655.38,-436.14"/>
</g>
<!-- Node27 -->
<g id="node27" class="node">
<title>Node27</title>
<g id="a_node27"><a xlink:href="linebreak_8h.html" target="_top" xlink:title=" ">
<polygon fill="white" stroke="black" points="1077.5,-348.5 1077.5,-369.5 1152.5,-369.5 1152.5,-348.5 1077.5,-348.5"/>
<text text-anchor="middle" x="1115" y="-355.9" font-family="DejaVuSans" font-size="12.00">linebreak.h</text>
</a>
</g>
</g>
<!-- Node1&#45;&gt;Node27 -->
<g id="edge65" class="edge">
<title>Node1&#45;&gt;Node27</title>
<path fill="none" stroke="midnightblue" d="M630.22,-472.91C722.85,-469.75 961.45,-458.77 1034,-428 1060.49,-416.77 1084.89,-393.81 1099.85,-377.69"/>
<polygon fill="midnightblue" stroke="midnightblue" points="1102.69,-379.76 1106.76,-369.98 1097.48,-375.09 1102.69,-379.76"/>
</g>
<!-- Node4 -->
<g id="node4" class="node">
<title>Node4</title>
<g id="a_node4"><a xlink:href="global__const_8h.html" target="_top" xlink:title=" ">
<polygon fill="white" stroke="black" points="488.5,-58.5 488.5,-79.5 581.5,-79.5 581.5,-58.5 488.5,-58.5"/>
<text text-anchor="middle" x="535" y="-65.9" font-family="DejaVuSans" font-size="12.00">global_const.h</text>
</a>
</g>
</g>
<!-- Node3&#45;&gt;Node4 -->
<g id="edge3" class="edge">
<title>Node3&#45;&gt;Node4</title>
<path fill="none" stroke="midnightblue" d="M249.98,-174.48C305.55,-154.11 436.02,-106.28 499.31,-83.08"/>
<polygon fill="midnightblue" stroke="midnightblue" points="500.69,-86.3 508.87,-79.58 498.28,-79.73 500.69,-86.3"/>
</g>
<!-- Node5&#45;&gt;Node3 -->
<g id="edge13" class="edge">
<title>Node5&#45;&gt;Node3</title>
<path fill="none" stroke="midnightblue" d="M162.06,-232.25C173.36,-223.81 189.88,-211.47 203.03,-201.66"/>
<polygon fill="midnightblue" stroke="midnightblue" points="205.17,-204.43 211.09,-195.64 200.98,-198.82 205.17,-204.43"/>
</g>
<!-- Node6 -->
<g id="node6" class="node">
<title>Node6</title>
<g id="a_node6"><a xlink:href="global_8h.html" target="_top" xlink:title=" ">
<polygon fill="white" stroke="black" points="713,-116.5 713,-137.5 771,-137.5 771,-116.5 713,-116.5"/>
<text text-anchor="middle" x="742" y="-123.9" font-family="DejaVuSans" font-size="12.00">global.h</text>
</a>
</g>
</g>
<!-- Node5&#45;&gt;Node6 -->
<g id="edge5" class="edge">
<title>Node5&#45;&gt;Node6</title>
<path fill="none" stroke="midnightblue" d="M148.53,-232.29C148.39,-217.2 150.59,-188.34 168,-174 209.14,-140.1 580.16,-130.76 702.83,-128.58"/>
<polygon fill="midnightblue" stroke="midnightblue" points="702.97,-132.08 712.9,-128.41 702.85,-125.08 702.97,-132.08"/>
</g>
<!-- Node6&#45;&gt;Node4 -->
<g id="edge8" class="edge">
<title>Node6&#45;&gt;Node4</title>
<path fill="none" stroke="midnightblue" d="M712.78,-118.1C678.26,-108.76 620.44,-93.11 580.15,-82.21"/>
<polygon fill="midnightblue" stroke="midnightblue" points="580.87,-78.78 570.31,-79.55 579.04,-85.54 580.87,-78.78"/>
</g>
<!-- Node7 -->
<g id="node7" class="node">
<title>Node7</title>
<g id="a_node7"><a xlink:href="global__macros_8h.html" target="_top" xlink:title=" ">
<polygon fill="white" stroke="black" points="846,-58.5 846,-79.5 950,-79.5 950,-58.5 846,-58.5"/>
<text text-anchor="middle" x="898" y="-65.9" font-family="DejaVuSans" font-size="12.00">global_macros.h</text>
</a>
</g>
</g>
<!-- Node6&#45;&gt;Node7 -->
<g id="edge6" class="edge">
<title>Node6&#45;&gt;Node7</title>
<path fill="none" stroke="midnightblue" d="M768.82,-116.37C794.53,-107.14 833.54,-93.14 861.96,-82.94"/>
<polygon fill="midnightblue" stroke="midnightblue" points="863.3,-86.17 871.53,-79.5 860.94,-79.59 863.3,-86.17"/>
</g>
<!-- Node9 -->
<g id="node9" class="node">
<title>Node9</title>
<g id="a_node9"><a xlink:href="tex__types_8h.html" target="_top" xlink:title=" ">
<polygon fill="white" stroke="black" points="703.5,-58.5 703.5,-79.5 780.5,-79.5 780.5,-58.5 703.5,-58.5"/>
<text text-anchor="middle" x="742" y="-65.9" font-family="DejaVuSans" font-size="12.00">tex_types.h</text>
</a>
</g>
</g>
<!-- Node6&#45;&gt;Node9 -->
<g id="edge9" class="edge">
<title>Node6&#45;&gt;Node9</title>
<path fill="none" stroke="midnightblue" d="M742,-116.25C742,-108.94 742,-98.69 742,-89.7"/>
<polygon fill="midnightblue" stroke="midnightblue" points="745.5,-89.64 742,-79.64 738.5,-89.64 745.5,-89.64"/>
</g>
<!-- Node8 -->
<g id="node8" class="node">
<title>Node8</title>
<g id="a_node8"><a xlink:title=" ">
<polygon fill="white" stroke="#bfbfbf" points="868.5,-0.5 868.5,-21.5 927.5,-21.5 927.5,-0.5 868.5,-0.5"/>
<text text-anchor="middle" x="898" y="-7.9" font-family="DejaVuSans" font-size="12.00">assert.h</text>
</a>
</g>
</g>
<!-- Node7&#45;&gt;Node8 -->
<g id="edge7" class="edge">
<title>Node7&#45;&gt;Node8</title>
<path fill="none" stroke="midnightblue" d="M898,-58.25C898,-50.94 898,-40.69 898,-31.7"/>
<polygon fill="midnightblue" stroke="midnightblue" points="901.5,-31.64 898,-21.64 894.5,-31.64 901.5,-31.64"/>
</g>
<!-- Node10 -->
<g id="node10" class="node">
<title>Node10</title>
<g id="a_node10"><a xlink:title=" ">
<polygon fill="white" stroke="#bfbfbf" points="630.5,-0.5 630.5,-21.5 695.5,-21.5 695.5,-0.5 630.5,-0.5"/>
<text text-anchor="middle" x="663" y="-7.9" font-family="DejaVuSans" font-size="12.00">stdbool.h</text>
</a>
</g>
</g>
<!-- Node9&#45;&gt;Node10 -->
<g id="edge10" class="edge">
<title>Node9&#45;&gt;Node10</title>
<path fill="none" stroke="midnightblue" d="M728.24,-58.25C716.34,-49.81 698.93,-37.47 685.09,-27.66"/>
<polygon fill="midnightblue" stroke="midnightblue" points="686.79,-24.57 676.6,-21.64 682.74,-30.28 686.79,-24.57"/>
</g>
<!-- Node11 -->
<g id="node11" class="node">
<title>Node11</title>
<g id="a_node11"><a xlink:title=" ">
<polygon fill="white" stroke="#bfbfbf" points="790.5,-0.5 790.5,-21.5 845.5,-21.5 845.5,-0.5 790.5,-0.5"/>
<text text-anchor="middle" x="818" y="-7.9" font-family="DejaVuSans" font-size="12.00">stdint.h</text>
</a>
</g>
</g>
<!-- Node9&#45;&gt;Node11 -->
<g id="edge11" class="edge">
<title>Node9&#45;&gt;Node11</title>
<path fill="none" stroke="midnightblue" d="M755.24,-58.25C766.68,-49.81 783.43,-37.47 796.75,-27.66"/>
<polygon fill="midnightblue" stroke="midnightblue" points="798.94,-30.39 804.91,-21.64 794.79,-24.76 798.94,-30.39"/>
</g>
<!-- Node12 -->
<g id="node12" class="node">
<title>Node12</title>
<g id="a_node12"><a xlink:title=" ">
<polygon fill="white" stroke="#bfbfbf" points="713.5,-0.5 713.5,-21.5 772.5,-21.5 772.5,-0.5 713.5,-0.5"/>
<text text-anchor="middle" x="743" y="-7.9" font-family="DejaVuSans" font-size="12.00">stddef.h</text>
</a>
</g>
</g>
<!-- Node9&#45;&gt;Node12 -->
<g id="edge12" class="edge">
<title>Node9&#45;&gt;Node12</title>
<path fill="none" stroke="midnightblue" d="M742.17,-58.25C742.3,-50.94 742.49,-40.69 742.65,-31.7"/>
<polygon fill="midnightblue" stroke="midnightblue" points="746.15,-31.7 742.83,-21.64 739.15,-31.58 746.15,-31.7"/>
</g>
<!-- Node13&#45;&gt;Node3 -->
<g id="edge19" class="edge">
<title>Node13&#45;&gt;Node3</title>
<path fill="none" stroke="midnightblue" d="M567.93,-292.25C505.29,-272.9 341.49,-222.3 264.76,-198.59"/>
<polygon fill="midnightblue" stroke="midnightblue" points="265.56,-195.18 254.97,-195.57 263.49,-201.86 265.56,-195.18"/>
</g>
<!-- Node13&#45;&gt;Node6 -->
<g id="edge16" class="edge">
<title>Node13&#45;&gt;Node6</title>
<path fill="none" stroke="midnightblue" d="M595.34,-290.24C601.28,-267.29 618.96,-209.17 653,-174 666.98,-159.55 686.48,-148.77 703.67,-141.3"/>
<polygon fill="midnightblue" stroke="midnightblue" points="705.02,-144.53 712.93,-137.48 702.35,-138.05 705.02,-144.53"/>
</g>
<!-- Node14 -->
<g id="node14" class="node">
<title>Node14</title>
<g id="a_node14"><a xlink:title=" ">
<polygon fill="white" stroke="#bfbfbf" points="662,-174.5 662,-195.5 714,-195.5 714,-174.5 662,-174.5"/>
<text text-anchor="middle" x="688" y="-181.9" font-family="DejaVuSans" font-size="12.00">stdio.h</text>
</a>
</g>
</g>
<!-- Node13&#45;&gt;Node14 -->
<g id="edge15" class="edge">
<title>Node13&#45;&gt;Node14</title>
<path fill="none" stroke="midnightblue" d="M615.35,-290.34C630.94,-282.57 651.18,-270.26 664,-254 675.12,-239.9 681.31,-220.25 684.61,-205.7"/>
<polygon fill="midnightblue" stroke="midnightblue" points="688.07,-206.23 686.6,-195.74 681.21,-204.86 688.07,-206.23"/>
</g>
<!-- Node15 -->
<g id="node15" class="node">
<title>Node15</title>
<g id="a_node15"><a xlink:href="charset_8h.html" target="_top" xlink:title=" ">
<polygon fill="white" stroke="black" points="540.5,-174.5 540.5,-195.5 605.5,-195.5 605.5,-174.5 540.5,-174.5"/>
<text text-anchor="middle" x="573" y="-181.9" font-family="DejaVuSans" font-size="12.00">charset.h</text>
</a>
</g>
</g>
<!-- Node13&#45;&gt;Node15 -->
<g id="edge17" class="edge">
<title>Node13&#45;&gt;Node15</title>
<path fill="none" stroke="midnightblue" d="M591.29,-290.28C588.02,-271.6 580.78,-230.37 576.46,-205.72"/>
<polygon fill="midnightblue" stroke="midnightblue" points="579.88,-204.94 574.7,-195.69 572.98,-206.15 579.88,-204.94"/>
</g>
<!-- Node13&#45;&gt;Node16 -->
<g id="edge20" class="edge">
<title>Node13&#45;&gt;Node16</title>
<path fill="none" stroke="midnightblue" d="M567.75,-295.79C508.49,-285.92 360.43,-261.24 292.31,-249.89"/>
<polygon fill="midnightblue" stroke="midnightblue" points="292.53,-246.37 282.09,-248.18 291.38,-253.28 292.53,-246.37"/>
</g>
<!-- Node17 -->
<g id="node17" class="node">
<title>Node17</title>
<g id="a_node17"><a xlink:href="str_8h.html" target="_top" xlink:title=" ">
<polygon fill="white" stroke="black" points="824.5,-232.5 824.5,-253.5 863.5,-253.5 863.5,-232.5 824.5,-232.5"/>
<text text-anchor="middle" x="844" y="-239.9" font-family="DejaVuSans" font-size="12.00">str.h</text>
</a>
</g>
</g>
<!-- Node13&#45;&gt;Node17 -->
<g id="edge23" class="edge">
<title>Node13&#45;&gt;Node17</title>
<path fill="none" stroke="midnightblue" d="M618.45,-294.32C665.22,-283.89 764.62,-261.71 814.36,-250.61"/>
<polygon fill="midnightblue" stroke="midnightblue" points="815.18,-254.02 824.18,-248.42 813.66,-247.18 815.18,-254.02"/>
</g>
<!-- Node15&#45;&gt;Node6 -->
<g id="edge18" class="edge">
<title>Node15&#45;&gt;Node6</title>
<path fill="none" stroke="midnightblue" d="M602.05,-174.37C630.15,-165.06 672.91,-150.9 703.76,-140.67"/>
<polygon fill="midnightblue" stroke="midnightblue" points="704.94,-143.97 713.33,-137.5 702.73,-137.32 704.94,-143.97"/>
</g>
<!-- Node16&#45;&gt;Node3 -->
<g id="edge22" class="edge">
<title>Node16&#45;&gt;Node3</title>
<path fill="none" stroke="midnightblue" d="M251.25,-232.25C246.76,-224.62 240.38,-213.79 234.92,-204.53"/>
<polygon fill="midnightblue" stroke="midnightblue" points="237.77,-202.48 229.68,-195.64 231.74,-206.04 237.77,-202.48"/>
</g>
<!-- Node16&#45;&gt;Node6 -->
<g id="edge21" class="edge">
<title>Node16&#45;&gt;Node6</title>
<path fill="none" stroke="midnightblue" d="M263.27,-232.04C273.61,-216.61 295.81,-187.3 323,-174 389.4,-141.53 611.89,-131.66 702.8,-128.94"/>
<polygon fill="midnightblue" stroke="midnightblue" points="703.07,-132.44 712.96,-128.65 702.87,-125.44 703.07,-132.44"/>
</g>
<!-- Node17&#45;&gt;Node6 -->
<g id="edge26" class="edge">
<title>Node17&#45;&gt;Node6</title>
<path fill="none" stroke="midnightblue" d="M835.3,-232.28C818.07,-213.01 779.35,-169.75 757.6,-145.43"/>
<polygon fill="midnightblue" stroke="midnightblue" points="759.95,-142.81 750.67,-137.69 754.73,-147.48 759.95,-142.81"/>
</g>
<!-- Node17&#45;&gt;Node11 -->
<g id="edge25" class="edge">
<title>Node17&#45;&gt;Node11</title>
<path fill="none" stroke="midnightblue" d="M842.92,-232.41C839.01,-197.85 825.6,-79.24 820.24,-31.82"/>
<polygon fill="midnightblue" stroke="midnightblue" points="823.69,-31.17 819.09,-21.63 816.73,-31.96 823.69,-31.17"/>
</g>
<!-- Node17&#45;&gt;Node14 -->
<g id="edge24" class="edge">
<title>Node17&#45;&gt;Node14</title>
<path fill="none" stroke="midnightblue" d="M824.24,-234.91C799.02,-225.85 754.9,-210.02 723.72,-198.82"/>
<polygon fill="midnightblue" stroke="midnightblue" points="724.68,-195.45 714.08,-195.36 722.31,-202.04 724.68,-195.45"/>
</g>
<!-- Node17&#45;&gt;Node15 -->
<g id="edge27" class="edge">
<title>Node17&#45;&gt;Node15</title>
<path fill="none" stroke="midnightblue" d="M824.07,-237.88C780.28,-228.83 674.84,-207.04 615.47,-194.78"/>
<polygon fill="midnightblue" stroke="midnightblue" points="616.15,-191.34 605.65,-192.75 614.73,-198.2 616.15,-191.34"/>
</g>
<!-- Node18&#45;&gt;Node6 -->
<g id="edge30" class="edge">
<title>Node18&#45;&gt;Node6</title>
<path fill="none" stroke="midnightblue" d="M978,-348.36C997.75,-331.63 1036.35,-295.07 1051,-254 1064.85,-215.16 1039.54,-194.91 1004,-174 966.86,-152.15 844.65,-137.71 781.13,-131.49"/>
<polygon fill="midnightblue" stroke="midnightblue" points="781.38,-128 771.09,-130.53 780.71,-134.97 781.38,-128"/>
</g>
<!-- Node19 -->
<g id="node19" class="node">
<title>Node19</title>
<g id="a_node19"><a xlink:href="box_8h.html" target="_top" xlink:title=" ">
<polygon fill="white" stroke="black" points="824,-290.5 824,-311.5 870,-311.5 870,-290.5 824,-290.5"/>
<text text-anchor="middle" x="847" y="-297.9" font-family="DejaVuSans" font-size="12.00">box.h</text>
</a>
</g>
</g>
<!-- Node18&#45;&gt;Node19 -->
<g id="edge31" class="edge">
<title>Node18&#45;&gt;Node19</title>
<path fill="none" stroke="midnightblue" d="M945.54,-348.37C926.53,-339.42 897.98,-325.99 876.5,-315.88"/>
<polygon fill="midnightblue" stroke="midnightblue" points="877.73,-312.59 867.19,-311.5 874.75,-318.93 877.73,-312.59"/>
</g>
<!-- Node19&#45;&gt;Node5 -->
<g id="edge33" class="edge">
<title>Node19&#45;&gt;Node5</title>
<path fill="none" stroke="midnightblue" d="M823.72,-298.8C741.48,-294.43 456.91,-278.4 223,-254 210.83,-252.73 197.58,-251.04 185.7,-249.41"/>
<polygon fill="midnightblue" stroke="midnightblue" points="186.06,-245.92 175.67,-248 185.09,-252.86 186.06,-245.92"/>
</g>
<!-- Node19&#45;&gt;Node6 -->
<g id="edge32" class="edge">
<title>Node19&#45;&gt;Node6</title>
<path fill="none" stroke="midnightblue" d="M855.45,-290.15C865.84,-276.77 881.05,-252.2 872,-232 852.73,-188.97 805.23,-158.55 773.31,-142.14"/>
<polygon fill="midnightblue" stroke="midnightblue" points="774.46,-138.81 763.95,-137.5 771.35,-145.08 774.46,-138.81"/>
</g>
<!-- Node19&#45;&gt;Node17 -->
<g id="edge36" class="edge">
<title>Node19&#45;&gt;Node17</title>
<path fill="none" stroke="midnightblue" d="M846.48,-290.25C846.09,-282.94 845.54,-272.69 845.06,-263.7"/>
<polygon fill="midnightblue" stroke="midnightblue" points="848.55,-263.44 844.52,-253.64 841.56,-263.82 848.55,-263.44"/>
</g>
<!-- Node19&#45;&gt;Node20 -->
<g id="edge34" class="edge">
<title>Node19&#45;&gt;Node20</title>
<path fill="none" stroke="midnightblue" d="M870.3,-291C893.97,-281.86 930.89,-267.6 957.86,-257.18"/>
<polygon fill="midnightblue" stroke="midnightblue" points="959.24,-260.41 967.31,-253.54 956.72,-253.88 959.24,-260.41"/>
</g>
<!-- Node20&#45;&gt;Node6 -->
<g id="edge35" class="edge">
<title>Node20&#45;&gt;Node6</title>
<path fill="none" stroke="midnightblue" d="M987.99,-232.4C981.22,-217.45 966.09,-188.79 944,-174 894.58,-140.91 824.72,-131.37 781.45,-128.77"/>
<polygon fill="midnightblue" stroke="midnightblue" points="781.48,-125.27 771.31,-128.26 781.12,-132.26 781.48,-125.27"/>
</g>
<!-- Node21&#45;&gt;Node6 -->
<g id="edge38" class="edge">
<title>Node21&#45;&gt;Node6</title>
<path fill="none" stroke="midnightblue" d="M977.64,-293.43C997.17,-286.94 1022.71,-274.87 1035,-254 1039.96,-245.58 1039,-240.92 1035,-232 1019.17,-196.67 1004.63,-191.32 970,-174 908.72,-143.35 828.52,-133.12 781.39,-129.71"/>
<polygon fill="midnightblue" stroke="midnightblue" points="781.5,-126.21 771.29,-129.05 781.04,-133.19 781.5,-126.21"/>
</g>
<!-- Node21&#45;&gt;Node17 -->
<g id="edge39" class="edge">
<title>Node21&#45;&gt;Node17</title>
<path fill="none" stroke="midnightblue" d="M933.19,-290.25C916.15,-281.41 890.84,-268.29 871.53,-258.28"/>
<polygon fill="midnightblue" stroke="midnightblue" points="873.09,-255.14 862.6,-253.64 869.86,-261.35 873.09,-255.14"/>
</g>
<!-- Node22&#45;&gt;Node3 -->
<g id="edge55" class="edge">
<title>Node22&#45;&gt;Node3</title>
<path fill="none" stroke="midnightblue" d="M366.15,-348.5C326.12,-328.87 238.24,-283.25 223,-254 215.34,-239.29 216.38,-220.26 218.89,-206.07"/>
<polygon fill="midnightblue" stroke="midnightblue" points="222.39,-206.41 221.07,-195.9 215.55,-204.94 222.39,-206.41"/>
</g>
<!-- Node22&#45;&gt;Node5 -->
<g id="edge43" class="edge">
<title>Node22&#45;&gt;Node5</title>
<path fill="none" stroke="midnightblue" d="M353.67,-348.49C327.32,-340.24 289.45,-327.24 258,-312 226.21,-296.59 192.04,-274.22 170.6,-259.4"/>
<polygon fill="midnightblue" stroke="midnightblue" points="172.43,-256.41 162.23,-253.56 168.42,-262.15 172.43,-256.41"/>
</g>
<!-- Node22&#45;&gt;Node6 -->
<g id="edge42" class="edge">
<title>Node22&#45;&gt;Node6</title>
<path fill="none" stroke="midnightblue" d="M388.15,-348.21C395.69,-316.56 424.05,-216.63 490,-174 524.6,-151.64 641.12,-137.55 702.85,-131.47"/>
<polygon fill="midnightblue" stroke="midnightblue" points="703.37,-134.94 712.99,-130.5 702.7,-127.97 703.37,-134.94"/>
</g>
<!-- Node22&#45;&gt;Node15 -->
<g id="edge54" class="edge">
<title>Node22&#45;&gt;Node15</title>
<path fill="none" stroke="midnightblue" d="M391.22,-348.27C403.91,-325.39 438.47,-267.4 481,-232 497.44,-218.31 518.65,-207.36 536.55,-199.58"/>
<polygon fill="midnightblue" stroke="midnightblue" points="538.23,-202.67 546.11,-195.59 535.53,-196.21 538.23,-202.67"/>
</g>
<!-- Node22&#45;&gt;Node16 -->
<g id="edge53" class="edge">
<title>Node22&#45;&gt;Node16</title>
<path fill="none" stroke="midnightblue" d="M375,-348.28C352.91,-328.76 302.95,-284.61 275.66,-260.49"/>
<polygon fill="midnightblue" stroke="midnightblue" points="277.78,-257.69 267.97,-253.69 273.15,-262.94 277.78,-257.69"/>
</g>
<!-- Node22&#45;&gt;Node19 -->
<g id="edge44" class="edge">
<title>Node22&#45;&gt;Node19</title>
<path fill="none" stroke="midnightblue" d="M419.15,-353.97C504.09,-343.66 728.77,-316.36 813.78,-306.04"/>
<polygon fill="midnightblue" stroke="midnightblue" points="814.39,-309.49 823.9,-304.81 813.55,-302.54 814.39,-309.49"/>
</g>
<!-- Node23 -->
<g id="node23" class="node">
<title>Node23</title>
<g id="a_node23"><a xlink:href="fonts_8h.html" target="_top" xlink:title=" ">
<polygon fill="white" stroke="black" points="466,-290.5 466,-311.5 518,-311.5 518,-290.5 466,-290.5"/>
<text text-anchor="middle" x="492" y="-297.9" font-family="DejaVuSans" font-size="12.00">fonts.h</text>
</a>
</g>
</g>
<!-- Node22&#45;&gt;Node23 -->
<g id="edge45" class="edge">
<title>Node22&#45;&gt;Node23</title>
<path fill="none" stroke="midnightblue" d="M404.46,-348.25C421.11,-339.45 445.8,-326.41 464.72,-316.41"/>
<polygon fill="midnightblue" stroke="midnightblue" points="466.54,-319.41 473.75,-311.64 463.27,-313.22 466.54,-319.41"/>
</g>
<!-- Node23&#45;&gt;Node3 -->
<g id="edge48" class="edge">
<title>Node23&#45;&gt;Node3</title>
<path fill="none" stroke="midnightblue" d="M469.61,-290.48C422.02,-270.23 310.68,-222.87 255.77,-199.51"/>
<polygon fill="midnightblue" stroke="midnightblue" points="257.09,-196.27 246.51,-195.58 254.35,-202.71 257.09,-196.27"/>
</g>
<!-- Node23&#45;&gt;Node6 -->
<g id="edge47" class="edge">
<title>Node23&#45;&gt;Node6</title>
<path fill="none" stroke="midnightblue" d="M487.8,-290.17C482.67,-276.81 475.36,-252.28 481,-232 489.07,-203 491.4,-191.35 516,-174 545.65,-153.09 646.57,-138.73 703,-132.13"/>
<polygon fill="midnightblue" stroke="midnightblue" points="703.46,-135.6 713,-130.99 702.66,-128.65 703.46,-135.6"/>
</g>
<!-- Node23&#45;&gt;Node14 -->
<g id="edge46" class="edge">
<title>Node23&#45;&gt;Node14</title>
<path fill="none" stroke="midnightblue" d="M508.37,-290.48C542.6,-270.57 621.92,-224.43 662.74,-200.69"/>
<polygon fill="midnightblue" stroke="midnightblue" points="664.65,-203.63 671.54,-195.58 661.13,-197.58 664.65,-203.63"/>
</g>
<!-- Node23&#45;&gt;Node17 -->
<g id="edge49" class="edge">
<title>Node23&#45;&gt;Node17</title>
<path fill="none" stroke="midnightblue" d="M518.17,-295.84C582.29,-285.63 746.94,-259.44 814.45,-248.7"/>
<polygon fill="midnightblue" stroke="midnightblue" points="815.09,-252.14 824.42,-247.12 813.99,-245.23 815.09,-252.14"/>
</g>
<!-- Node24 -->
<g id="node24" class="node">
<title>Node24</title>
<g id="a_node24"><a xlink:href="dump_8h.html" target="_top" xlink:title=" ">
<polygon fill="white" stroke="black" points="490,-232.5 490,-253.5 546,-253.5 546,-232.5 490,-232.5"/>
<text text-anchor="middle" x="518" y="-239.9" font-family="DejaVuSans" font-size="12.00">dump.h</text>
</a>
</g>
</g>
<!-- Node23&#45;&gt;Node24 -->
<g id="edge50" class="edge">
<title>Node23&#45;&gt;Node24</title>
<path fill="none" stroke="midnightblue" d="M496.53,-290.25C500.03,-282.7 504.99,-272.02 509.26,-262.82"/>
<polygon fill="midnightblue" stroke="midnightblue" points="512.49,-264.19 513.52,-253.64 506.14,-261.24 512.49,-264.19"/>
</g>
<!-- Node24&#45;&gt;Node6 -->
<g id="edge52" class="edge">
<title>Node24&#45;&gt;Node6</title>
<path fill="none" stroke="midnightblue" d="M516.8,-232.17C515.6,-217.43 515.73,-189.67 531,-174 554.48,-149.91 648.7,-136.99 702.97,-131.42"/>
<polygon fill="midnightblue" stroke="midnightblue" points="703.33,-134.9 712.93,-130.43 702.64,-127.93 703.33,-134.9"/>
</g>
<!-- Node24&#45;&gt;Node14 -->
<g id="edge51" class="edge">
<title>Node24&#45;&gt;Node14</title>
<path fill="none" stroke="midnightblue" d="M546.07,-232.75C575.09,-223.19 620.49,-208.24 652.1,-197.83"/>
<polygon fill="midnightblue" stroke="midnightblue" points="653.44,-201.07 661.84,-194.62 651.25,-194.42 653.44,-201.07"/>
</g>
<!-- Node25&#45;&gt;Node6 -->
<g id="edge58" class="edge">
<title>Node25&#45;&gt;Node6</title>
<path fill="none" stroke="midnightblue" d="M715.16,-407.37C762.09,-394.85 839.35,-366.89 879,-312 915.65,-261.27 898.82,-214.37 851,-174 830.86,-156.99 803.51,-145.48 781.25,-138.22"/>
<polygon fill="midnightblue" stroke="midnightblue" points="782.02,-134.79 771.43,-135.18 779.95,-141.48 782.02,-134.79"/>
</g>
<!-- Node25&#45;&gt;Node14 -->
<g id="edge57" class="edge">
<title>Node25&#45;&gt;Node14</title>
<path fill="none" stroke="midnightblue" d="M685.01,-406.42C706.45,-382.82 760,-319.1 777,-254 779.47,-244.54 782.08,-240.35 777,-232 765.45,-213.02 743.26,-201.53 723.94,-194.78"/>
<polygon fill="midnightblue" stroke="midnightblue" points="724.75,-191.37 714.16,-191.67 722.63,-198.04 724.75,-191.37"/>
</g>
<!-- Node25&#45;&gt;Node16 -->
<g id="edge63" class="edge">
<title>Node25&#45;&gt;Node16</title>
<path fill="none" stroke="midnightblue" d="M636.96,-414.49C560.08,-410.9 392.37,-399.79 344,-370 302.86,-344.66 276.28,-291.78 264.32,-263.24"/>
<polygon fill="midnightblue" stroke="midnightblue" points="267.43,-261.58 260.46,-253.61 260.93,-264.19 267.43,-261.58"/>
</g>
<!-- Node25&#45;&gt;Node22 -->
<g id="edge64" class="edge">
<title>Node25&#45;&gt;Node22</title>
<path fill="none" stroke="midnightblue" d="M636.89,-408.45C582.75,-397.99 485.29,-379.17 429.11,-368.32"/>
<polygon fill="midnightblue" stroke="midnightblue" points="429.6,-364.85 419.12,-366.39 428.27,-371.73 429.6,-364.85"/>
</g>
<!-- Node26 -->
<g id="node26" class="node">
<title>Node26</title>
<g id="a_node26"><a xlink:href="lexer_8h.html" target="_top" xlink:title=" ">
<polygon fill="white" stroke="black" points="716,-232.5 716,-253.5 768,-253.5 768,-232.5 716,-232.5"/>
<text text-anchor="middle" x="742" y="-239.9" font-family="DejaVuSans" font-size="12.00">lexer.h</text>
</a>
</g>
</g>
<!-- Node25&#45;&gt;Node26 -->
<g id="edge59" class="edge">
<title>Node25&#45;&gt;Node26</title>
<path fill="none" stroke="midnightblue" d="M679.74,-406.26C690.31,-378.71 720.58,-299.83 734.65,-263.17"/>
<polygon fill="midnightblue" stroke="midnightblue" points="737.99,-264.22 738.3,-253.63 731.45,-261.72 737.99,-264.22"/>
</g>
<!-- Node26&#45;&gt;Node3 -->
<g id="edge62" class="edge">
<title>Node26&#45;&gt;Node3</title>
<path fill="none" stroke="midnightblue" d="M715.96,-239.18C636.08,-230.55 393.2,-204.29 281.42,-192.21"/>
<polygon fill="midnightblue" stroke="midnightblue" points="281.66,-188.71 271.34,-191.12 280.91,-195.67 281.66,-188.71"/>
</g>
<!-- Node26&#45;&gt;Node6 -->
<g id="edge61" class="edge">
<title>Node26&#45;&gt;Node6</title>
<path fill="none" stroke="midnightblue" d="M742,-232.28C742,-213.6 742,-172.37 742,-147.72"/>
<polygon fill="midnightblue" stroke="midnightblue" points="745.5,-147.69 742,-137.69 738.5,-147.7 745.5,-147.69"/>
</g>
<!-- Node26&#45;&gt;Node14 -->
<g id="edge60" class="edge">
<title>Node26&#45;&gt;Node14</title>
<path fill="none" stroke="midnightblue" d="M732.59,-232.25C724.85,-224.22 713.69,-212.64 704.47,-203.08"/>
<polygon fill="midnightblue" stroke="midnightblue" points="706.76,-200.41 697.3,-195.64 701.72,-205.27 706.76,-200.41"/>
</g>
<!-- Node27&#45;&gt;Node6 -->
<g id="edge66" class="edge">
<title>Node27&#45;&gt;Node6</title>
<path fill="none" stroke="midnightblue" d="M1114.14,-348.2C1110.76,-316.51 1095.44,-216.47 1034,-174 993.75,-146.17 851.42,-134.28 781.44,-130.02"/>
<polygon fill="midnightblue" stroke="midnightblue" points="781.44,-126.51 771.25,-129.42 781.03,-133.5 781.44,-126.51"/>
</g>
</g>
</svg>
