<?xml version="1.0" encoding="UTF-8" standalone="no"?>
<!DOCTYPE svg PUBLIC "-//W3C//DTD SVG 1.1//EN"
 "http://www.w3.org/Graphics/SVG/1.1/DTD/svg11.dtd">
<!-- Generated by graphviz version 2.44.0 ()
 -->
<!-- Title: linebreak.c Pages: 1 -->
<svg width="1175pt" height="494pt"
 viewBox="0.00 0.00 1174.50 494.00" xmlns="http://www.w3.org/2000/svg" xmlns:xlink="http://www.w3.org/1999/xlink">
<g id="graph0" class="graph" transform="scale(1 1) rotate(0) translate(4 490)">
<title>linebreak.c</title>
<polygon fill="white" stroke="transparent" points="-4,4 -4,-490 1170.5,-490 1170.5,4 -4,4"/>
<!-- Node1 -->
<g id="node1" class="node">
<title>Node1</title>
<g id="a_node1"><a xlink:title=" ">
<polygon fill="#bfbfbf" stroke="black" points="484,-464.5 484,-485.5 558,-485.5 558,-464.5 484,-464.5"/>
<text text-anchor="middle" x="521" y="-471.9" font-family="DejaVuSans" font-size="12.00">linebreak.c</text>
</a>
</g>
</g>
<!-- Node2 -->
<g id="node2" class="node">
<title>Node2</title>
<g id="a_node2"><a xlink:title=" ">
<polygon fill="white" stroke="#bfbfbf" points="0,-406.5 0,-427.5 54,-427.5 54,-406.5 0,-406.5"/>
<text text-anchor="middle" x="27" y="-413.9" font-family="DejaVuSans" font-size="12.00">stdlib.h</text>
</a>
</g>
</g>
<!-- Node1&#45;&gt;Node2 -->
<g id="edge1" class="edge">
<title>Node1&#45;&gt;Node2</title>
<path fill="none" stroke="midnightblue" d="M483.77,-471.96C406.06,-467.33 221.09,-454.31 68,-428 66.74,-427.78 65.46,-427.55 64.17,-427.3"/>
<polygon fill="midnightblue" stroke="midnightblue" points="64.75,-423.85 54.24,-425.2 63.3,-430.69 64.75,-423.85"/>
</g>
<!-- Node3 -->
<g id="node3" class="node">
<title>Node3</title>
<g id="a_node3"><a xlink:href="tex__constant_8h.html" target="_top" xlink:title=" ">
<polygon fill="white" stroke="black" points="250,-174.5 250,-195.5 344,-195.5 344,-174.5 250,-174.5"/>
<text text-anchor="middle" x="297" y="-181.9" font-family="DejaVuSans" font-size="12.00">tex_constant.h</text>
</a>
</g>
</g>
<!-- Node1&#45;&gt;Node3 -->
<g id="edge2" class="edge">
<title>Node1&#45;&gt;Node3</title>
<path fill="none" stroke="midnightblue" d="M483.95,-472.31C378.11,-466.48 82,-442.78 82,-360 82,-360 82,-360 82,-300 82,-228.42 176.18,-201.65 239.88,-191.73"/>
<polygon fill="midnightblue" stroke="midnightblue" points="240.43,-195.19 249.82,-190.28 239.42,-188.26 240.43,-195.19"/>
</g>
<!-- Node5 -->
<g id="node5" class="node">
<title>Node5</title>
<g id="a_node5"><a xlink:href="mem_8h.html" target="_top" xlink:title=" ">
<polygon fill="white" stroke="black" points="514.5,-232.5 514.5,-253.5 567.5,-253.5 567.5,-232.5 514.5,-232.5"/>
<text text-anchor="middle" x="541" y="-239.9" font-family="DejaVuSans" font-size="12.00">mem.h</text>
</a>
</g>
</g>
<!-- Node1&#45;&gt;Node5 -->
<g id="edge4" class="edge">
<title>Node1&#45;&gt;Node5</title>
<path fill="none" stroke="midnightblue" d="M521.83,-464.41C524.84,-429.85 535.15,-311.24 539.28,-263.82"/>
<polygon fill="midnightblue" stroke="midnightblue" points="542.78,-263.9 540.16,-253.63 535.81,-263.29 542.78,-263.9"/>
</g>
<!-- Node12 -->
<g id="node12" class="node">
<title>Node12</title>
<g id="a_node12"><a xlink:href="print_8h.html" target="_top" xlink:title=" ">
<polygon fill="white" stroke="black" points="423,-290.5 423,-311.5 473,-311.5 473,-290.5 423,-290.5"/>
<text text-anchor="middle" x="448" y="-297.9" font-family="DejaVuSans" font-size="12.00">print.h</text>
</a>
</g>
</g>
<!-- Node1&#45;&gt;Node12 -->
<g id="edge13" class="edge">
<title>Node1&#45;&gt;Node12</title>
<path fill="none" stroke="midnightblue" d="M516.87,-464.26C505.17,-436.71 471.7,-357.83 456.14,-321.17"/>
<polygon fill="midnightblue" stroke="midnightblue" points="459.22,-319.47 452.09,-311.63 452.77,-322.21 459.22,-319.47"/>
</g>
<!-- Node15 -->
<g id="node15" class="node">
<title>Node15</title>
<g id="a_node15"><a xlink:href="eqtb_8h.html" target="_top" xlink:title=" ">
<polygon fill="white" stroke="black" points="218,-232.5 218,-253.5 268,-253.5 268,-232.5 218,-232.5"/>
<text text-anchor="middle" x="243" y="-239.9" font-family="DejaVuSans" font-size="12.00">eqtb.h</text>
</a>
</g>
</g>
<!-- Node1&#45;&gt;Node15 -->
<g id="edge27" class="edge">
<title>Node1&#45;&gt;Node15</title>
<path fill="none" stroke="midnightblue" d="M483.91,-472.5C420.73,-469.13 296.2,-458.68 267,-428 224.13,-382.95 232.26,-301.23 238.86,-263.74"/>
<polygon fill="midnightblue" stroke="midnightblue" points="242.36,-264.1 240.8,-253.62 235.48,-262.79 242.36,-264.1"/>
</g>
<!-- Node17 -->
<g id="node17" class="node">
<title>Node17</title>
<g id="a_node17"><a xlink:href="pack_8h.html" target="_top" xlink:title=" ">
<polygon fill="white" stroke="black" points="878,-348.5 878,-369.5 930,-369.5 930,-348.5 878,-348.5"/>
<text text-anchor="middle" x="904" y="-355.9" font-family="DejaVuSans" font-size="12.00">pack.h</text>
</a>
</g>
</g>
<!-- Node1&#45;&gt;Node17 -->
<g id="edge28" class="edge">
<title>Node1&#45;&gt;Node17</title>
<path fill="none" stroke="midnightblue" d="M553,-464.48C623.74,-443.42 793.07,-393.02 867.66,-370.82"/>
<polygon fill="midnightblue" stroke="midnightblue" points="868.95,-374.08 877.54,-367.88 866.95,-367.37 868.95,-374.08"/>
</g>
<!-- Node19 -->
<g id="node19" class="node">
<title>Node19</title>
<g id="a_node19"><a xlink:href="texmath_8h.html" target="_top" xlink:title=" ">
<polygon fill="white" stroke="black" points="986,-232.5 986,-253.5 1054,-253.5 1054,-232.5 986,-232.5"/>
<text text-anchor="middle" x="1020" y="-239.9" font-family="DejaVuSans" font-size="12.00">texmath.h</text>
</a>
</g>
</g>
<!-- Node1&#45;&gt;Node19 -->
<g id="edge39" class="edge">
<title>Node1&#45;&gt;Node19</title>
<path fill="none" stroke="midnightblue" d="M558.33,-472.15C618.95,-468.37 742.1,-457.47 842,-428 940.93,-398.82 997.56,-404.59 1043,-312 1051.02,-295.66 1042.41,-275.84 1033.53,-261.82"/>
<polygon fill="midnightblue" stroke="midnightblue" points="1036.38,-259.8 1027.83,-253.55 1030.62,-263.77 1036.38,-259.8"/>
</g>
<!-- Node20 -->
<g id="node20" class="node">
<title>Node20</title>
<g id="a_node20"><a xlink:href="error_8h.html" target="_top" xlink:title=" ">
<polygon fill="white" stroke="black" points="983.5,-290.5 983.5,-311.5 1034.5,-311.5 1034.5,-290.5 983.5,-290.5"/>
<text text-anchor="middle" x="1009" y="-297.9" font-family="DejaVuSans" font-size="12.00">error.h</text>
</a>
</g>
</g>
<!-- Node1&#45;&gt;Node20 -->
<g id="edge36" class="edge">
<title>Node1&#45;&gt;Node20</title>
<path fill="none" stroke="midnightblue" d="M558.15,-471.52C634.32,-465.04 811.73,-442.7 939,-370 961.59,-357.1 982.27,-335.2 995.2,-319.75"/>
<polygon fill="midnightblue" stroke="midnightblue" points="997.96,-321.9 1001.55,-311.93 992.53,-317.49 997.96,-321.9"/>
</g>
<!-- Node21 -->
<g id="node21" class="node">
<title>Node21</title>
<g id="a_node21"><a xlink:href="hyphen_8h.html" target="_top" xlink:title=" ">
<polygon fill="white" stroke="black" points="549,-348.5 549,-369.5 615,-369.5 615,-348.5 549,-348.5"/>
<text text-anchor="middle" x="582" y="-355.9" font-family="DejaVuSans" font-size="12.00">hyphen.h</text>
</a>
</g>
</g>
<!-- Node1&#45;&gt;Node21 -->
<g id="edge40" class="edge">
<title>Node1&#45;&gt;Node21</title>
<path fill="none" stroke="midnightblue" d="M526.2,-464.28C536.33,-445.35 558.86,-403.25 571.98,-378.72"/>
<polygon fill="midnightblue" stroke="midnightblue" points="575.18,-380.16 576.81,-369.69 569.01,-376.86 575.18,-380.16"/>
</g>
<!-- Node24 -->
<g id="node24" class="node">
<title>Node24</title>
<g id="a_node24"><a xlink:href="extension_8h.html" target="_top" xlink:title=" ">
<polygon fill="white" stroke="black" points="276,-406.5 276,-427.5 354,-427.5 354,-406.5 276,-406.5"/>
<text text-anchor="middle" x="315" y="-413.9" font-family="DejaVuSans" font-size="12.00">extension.h</text>
</a>
</g>
</g>
<!-- Node1&#45;&gt;Node24 -->
<g id="edge55" class="edge">
<title>Node1&#45;&gt;Node24</title>
<path fill="none" stroke="midnightblue" d="M485.59,-464.37C450.74,-454.9 397.41,-440.4 359.67,-430.14"/>
<polygon fill="midnightblue" stroke="midnightblue" points="360.52,-426.75 349.95,-427.5 358.68,-433.5 360.52,-426.75"/>
</g>
<!-- Node26 -->
<g id="node26" class="node">
<title>Node26</title>
<g id="a_node26"><a xlink:href="linebreak_8h.html" target="_top" xlink:title=" ">
<polygon fill="white" stroke="black" points="1091.5,-348.5 1091.5,-369.5 1166.5,-369.5 1166.5,-348.5 1091.5,-348.5"/>
<text text-anchor="middle" x="1129" y="-355.9" font-family="DejaVuSans" font-size="12.00">linebreak.h</text>
</a>
</g>
</g>
<!-- Node1&#45;&gt;Node26 -->
<g id="edge64" class="edge">
<title>Node1&#45;&gt;Node26</title>
<path fill="none" stroke="midnightblue" d="M558.13,-472.67C675.22,-468.23 1031.64,-452.8 1077,-428 1096.87,-417.14 1111.51,-395.12 1120.1,-379.07"/>
<polygon fill="midnightblue" stroke="midnightblue" points="1123.3,-380.5 1124.67,-370 1117.05,-377.36 1123.3,-380.5"/>
</g>
<!-- Node4 -->
<g id="node4" class="node">
<title>Node4</title>
<g id="a_node4"><a xlink:href="global__const_8h.html" target="_top" xlink:title=" ">
<polygon fill="white" stroke="black" points="466.5,-58.5 466.5,-79.5 559.5,-79.5 559.5,-58.5 466.5,-58.5"/>
<text text-anchor="middle" x="513" y="-65.9" font-family="DejaVuSans" font-size="12.00">global_const.h</text>
</a>
</g>
</g>
<!-- Node3&#45;&gt;Node4 -->
<g id="edge3" class="edge">
<title>Node3&#45;&gt;Node4</title>
<path fill="none" stroke="midnightblue" d="M315.04,-174.48C353,-154.44 441.29,-107.85 486.01,-84.25"/>
<polygon fill="midnightblue" stroke="midnightblue" points="487.64,-87.34 494.85,-79.58 484.38,-81.15 487.64,-87.34"/>
</g>
<!-- Node5&#45;&gt;Node3 -->
<g id="edge12" class="edge">
<title>Node5&#45;&gt;Node3</title>
<path fill="none" stroke="midnightblue" d="M514.42,-235.9C474.71,-226.78 399.12,-209.44 348.38,-197.79"/>
<polygon fill="midnightblue" stroke="midnightblue" points="349.11,-194.37 338.58,-195.54 347.54,-201.19 349.11,-194.37"/>
</g>
<!-- Node6 -->
<g id="node6" class="node">
<title>Node6</title>
<g id="a_node6"><a xlink:href="global_8h.html" target="_top" xlink:title=" ">
<polygon fill="white" stroke="black" points="697,-116.5 697,-137.5 755,-137.5 755,-116.5 697,-116.5"/>
<text text-anchor="middle" x="726" y="-123.9" font-family="DejaVuSans" font-size="12.00">global.h</text>
</a>
</g>
</g>
<!-- Node5&#45;&gt;Node6 -->
<g id="edge5" class="edge">
<title>Node5&#45;&gt;Node6</title>
<path fill="none" stroke="midnightblue" d="M540.89,-232.19C541.27,-217.48 544.21,-189.76 560,-174 593.57,-140.5 649.25,-130.85 686.77,-128.36"/>
<polygon fill="midnightblue" stroke="midnightblue" points="687.03,-131.85 696.84,-127.83 686.67,-124.86 687.03,-131.85"/>
</g>
<!-- Node6&#45;&gt;Node4 -->
<g id="edge8" class="edge">
<title>Node6&#45;&gt;Node4</title>
<path fill="none" stroke="midnightblue" d="M696.83,-118.33C661.28,-108.99 600.8,-93.08 558.97,-82.09"/>
<polygon fill="midnightblue" stroke="midnightblue" points="559.85,-78.7 549.29,-79.54 558.07,-85.47 559.85,-78.7"/>
</g>
<!-- Node7 -->
<g id="node7" class="node">
<title>Node7</title>
<g id="a_node7"><a xlink:href="global__macros_8h.html" target="_top" xlink:title=" ">
<polygon fill="white" stroke="black" points="652,-58.5 652,-79.5 756,-79.5 756,-58.5 652,-58.5"/>
<text text-anchor="middle" x="704" y="-65.9" font-family="DejaVuSans" font-size="12.00">global_macros.h</text>
</a>
</g>
</g>
<!-- Node6&#45;&gt;Node7 -->
<g id="edge6" class="edge">
<title>Node6&#45;&gt;Node7</title>
<path fill="none" stroke="midnightblue" d="M722.17,-116.25C719.23,-108.78 715.1,-98.24 711.51,-89.11"/>
<polygon fill="midnightblue" stroke="midnightblue" points="714.7,-87.67 707.79,-79.64 708.19,-90.23 714.7,-87.67"/>
</g>
<!-- Node9 -->
<g id="node9" class="node">
<title>Node9</title>
<g id="a_node9"><a xlink:href="tex__types_8h.html" target="_top" xlink:title=" ">
<polygon fill="white" stroke="black" points="774.5,-58.5 774.5,-79.5 851.5,-79.5 851.5,-58.5 774.5,-58.5"/>
<text text-anchor="middle" x="813" y="-65.9" font-family="DejaVuSans" font-size="12.00">tex_types.h</text>
</a>
</g>
</g>
<!-- Node6&#45;&gt;Node9 -->
<g id="edge9" class="edge">
<title>Node6&#45;&gt;Node9</title>
<path fill="none" stroke="midnightblue" d="M741.15,-116.25C754.5,-107.65 774.16,-95 789.54,-85.1"/>
<polygon fill="midnightblue" stroke="midnightblue" points="791.51,-88 798.02,-79.64 787.72,-82.11 791.51,-88"/>
</g>
<!-- Node8 -->
<g id="node8" class="node">
<title>Node8</title>
<g id="a_node8"><a xlink:title=" ">
<polygon fill="white" stroke="#bfbfbf" points="674.5,-0.5 674.5,-21.5 733.5,-21.5 733.5,-0.5 674.5,-0.5"/>
<text text-anchor="middle" x="704" y="-7.9" font-family="DejaVuSans" font-size="12.00">assert.h</text>
</a>
</g>
</g>
<!-- Node7&#45;&gt;Node8 -->
<g id="edge7" class="edge">
<title>Node7&#45;&gt;Node8</title>
<path fill="none" stroke="midnightblue" d="M704,-58.25C704,-50.94 704,-40.69 704,-31.7"/>
<polygon fill="midnightblue" stroke="midnightblue" points="707.5,-31.64 704,-21.64 700.5,-31.64 707.5,-31.64"/>
</g>
<!-- Node10 -->
<g id="node10" class="node">
<title>Node10</title>
<g id="a_node10"><a xlink:title=" ">
<polygon fill="white" stroke="#bfbfbf" points="774.5,-0.5 774.5,-21.5 839.5,-21.5 839.5,-0.5 774.5,-0.5"/>
<text text-anchor="middle" x="807" y="-7.9" font-family="DejaVuSans" font-size="12.00">stdbool.h</text>
</a>
</g>
</g>
<!-- Node9&#45;&gt;Node10 -->
<g id="edge10" class="edge">
<title>Node9&#45;&gt;Node10</title>
<path fill="none" stroke="midnightblue" d="M811.95,-58.25C811.17,-50.94 810.07,-40.69 809.11,-31.7"/>
<polygon fill="midnightblue" stroke="midnightblue" points="812.58,-31.21 808.03,-21.64 805.62,-31.96 812.58,-31.21"/>
</g>
<!-- Node11 -->
<g id="node11" class="node">
<title>Node11</title>
<g id="a_node11"><a xlink:title=" ">
<polygon fill="white" stroke="#bfbfbf" points="857.5,-0.5 857.5,-21.5 912.5,-21.5 912.5,-0.5 857.5,-0.5"/>
<text text-anchor="middle" x="885" y="-7.9" font-family="DejaVuSans" font-size="12.00">stdint.h</text>
</a>
</g>
</g>
<!-- Node9&#45;&gt;Node11 -->
<g id="edge11" class="edge">
<title>Node9&#45;&gt;Node11</title>
<path fill="none" stroke="midnightblue" d="M825.54,-58.25C836.28,-49.89 851.95,-37.71 864.5,-27.94"/>
<polygon fill="midnightblue" stroke="midnightblue" points="866.86,-30.54 872.6,-21.64 862.56,-25.02 866.86,-30.54"/>
</g>
<!-- Node12&#45;&gt;Node3 -->
<g id="edge18" class="edge">
<title>Node12&#45;&gt;Node3</title>
<path fill="none" stroke="midnightblue" d="M423.67,-290.48C404.72,-282.39 378.3,-269.63 358,-254 339.27,-239.58 321.67,-218.9 310.23,-204.13"/>
<polygon fill="midnightblue" stroke="midnightblue" points="312.77,-201.69 303.96,-195.82 307.19,-205.91 312.77,-201.69"/>
</g>
<!-- Node12&#45;&gt;Node6 -->
<g id="edge15" class="edge">
<title>Node12&#45;&gt;Node6</title>
<path fill="none" stroke="midnightblue" d="M446.54,-290.4C444.93,-276.45 443.87,-250.24 455,-232 479.59,-191.7 500.75,-192.93 544,-174 591.08,-153.4 649.21,-140.72 686.91,-134.03"/>
<polygon fill="midnightblue" stroke="midnightblue" points="687.72,-137.44 696.98,-132.29 686.53,-130.54 687.72,-137.44"/>
</g>
<!-- Node13 -->
<g id="node13" class="node">
<title>Node13</title>
<g id="a_node13"><a xlink:title=" ">
<polygon fill="white" stroke="#bfbfbf" points="569,-174.5 569,-195.5 621,-195.5 621,-174.5 569,-174.5"/>
<text text-anchor="middle" x="595" y="-181.9" font-family="DejaVuSans" font-size="12.00">stdio.h</text>
</a>
</g>
</g>
<!-- Node12&#45;&gt;Node13 -->
<g id="edge14" class="edge">
<title>Node12&#45;&gt;Node13</title>
<path fill="none" stroke="midnightblue" d="M448.86,-290.32C450.64,-275.77 456.04,-248.26 472,-232 495.22,-208.34 531.75,-196.72 558.98,-191.09"/>
<polygon fill="midnightblue" stroke="midnightblue" points="559.73,-194.51 568.91,-189.21 558.43,-187.63 559.73,-194.51"/>
</g>
<!-- Node14 -->
<g id="node14" class="node">
<title>Node14</title>
<g id="a_node14"><a xlink:href="charset_8h.html" target="_top" xlink:title=" ">
<polygon fill="white" stroke="black" points="715.5,-174.5 715.5,-195.5 780.5,-195.5 780.5,-174.5 715.5,-174.5"/>
<text text-anchor="middle" x="748" y="-181.9" font-family="DejaVuSans" font-size="12.00">charset.h</text>
</a>
</g>
</g>
<!-- Node12&#45;&gt;Node14 -->
<g id="edge16" class="edge">
<title>Node12&#45;&gt;Node14</title>
<path fill="none" stroke="midnightblue" d="M453.19,-290.29C461.8,-275.19 480.55,-246.33 505,-232 538.35,-212.45 645.03,-197.64 705.36,-190.58"/>
<polygon fill="midnightblue" stroke="midnightblue" points="705.81,-194.05 715.35,-189.43 705.01,-187.1 705.81,-194.05"/>
</g>
<!-- Node12&#45;&gt;Node15 -->
<g id="edge19" class="edge">
<title>Node12&#45;&gt;Node15</title>
<path fill="none" stroke="midnightblue" d="M422.86,-293.13C386.49,-283.2 319.06,-264.78 277.89,-253.53"/>
<polygon fill="midnightblue" stroke="midnightblue" points="278.59,-250.09 268.02,-250.84 276.75,-256.85 278.59,-250.09"/>
</g>
<!-- Node16 -->
<g id="node16" class="node">
<title>Node16</title>
<g id="a_node16"><a xlink:href="str_8h.html" target="_top" xlink:title=" ">
<polygon fill="white" stroke="black" points="812.5,-232.5 812.5,-253.5 851.5,-253.5 851.5,-232.5 812.5,-232.5"/>
<text text-anchor="middle" x="832" y="-239.9" font-family="DejaVuSans" font-size="12.00">str.h</text>
</a>
</g>
</g>
<!-- Node12&#45;&gt;Node16 -->
<g id="edge22" class="edge">
<title>Node12&#45;&gt;Node16</title>
<path fill="none" stroke="midnightblue" d="M473.2,-296.33C541.42,-286.38 729.51,-258.95 802.51,-248.3"/>
<polygon fill="midnightblue" stroke="midnightblue" points="803.02,-251.76 812.41,-246.86 802.01,-244.84 803.02,-251.76"/>
</g>
<!-- Node14&#45;&gt;Node6 -->
<g id="edge17" class="edge">
<title>Node14&#45;&gt;Node6</title>
<path fill="none" stroke="midnightblue" d="M744.17,-174.25C741.23,-166.78 737.1,-156.24 733.51,-147.11"/>
<polygon fill="midnightblue" stroke="midnightblue" points="736.7,-145.67 729.79,-137.64 730.19,-148.23 736.7,-145.67"/>
</g>
<!-- Node15&#45;&gt;Node3 -->
<g id="edge21" class="edge">
<title>Node15&#45;&gt;Node3</title>
<path fill="none" stroke="midnightblue" d="M252.41,-232.25C260.15,-224.22 271.31,-212.64 280.53,-203.08"/>
<polygon fill="midnightblue" stroke="midnightblue" points="283.28,-205.27 287.7,-195.64 278.24,-200.41 283.28,-205.27"/>
</g>
<!-- Node15&#45;&gt;Node6 -->
<g id="edge20" class="edge">
<title>Node15&#45;&gt;Node6</title>
<path fill="none" stroke="midnightblue" d="M238.97,-232.23C233.65,-217.56 226.54,-189.9 241,-174 270.81,-141.23 576.62,-131.29 686.75,-128.76"/>
<polygon fill="midnightblue" stroke="midnightblue" points="686.86,-132.26 696.78,-128.54 686.7,-125.26 686.86,-132.26"/>
</g>
<!-- Node16&#45;&gt;Node6 -->
<g id="edge25" class="edge">
<title>Node16&#45;&gt;Node6</title>
<path fill="none" stroke="midnightblue" d="M827.42,-232.43C820.46,-218.52 806.17,-192.36 789,-174 777.91,-162.14 763.39,-151.3 751.08,-143.13"/>
<polygon fill="midnightblue" stroke="midnightblue" points="752.9,-140.13 742.59,-137.67 749.11,-146.02 752.9,-140.13"/>
</g>
<!-- Node16&#45;&gt;Node11 -->
<g id="edge24" class="edge">
<title>Node16&#45;&gt;Node11</title>
<path fill="none" stroke="midnightblue" d="M834.21,-232.41C842.19,-197.78 869.62,-78.74 880.5,-31.52"/>
<polygon fill="midnightblue" stroke="midnightblue" points="883.95,-32.16 882.78,-21.63 877.12,-30.59 883.95,-32.16"/>
</g>
<!-- Node16&#45;&gt;Node13 -->
<g id="edge23" class="edge">
<title>Node16&#45;&gt;Node13</title>
<path fill="none" stroke="midnightblue" d="M812.2,-237.32C772.34,-227.9 681.89,-206.53 631.19,-194.55"/>
<polygon fill="midnightblue" stroke="midnightblue" points="631.84,-191.11 621.3,-192.21 630.23,-197.92 631.84,-191.11"/>
</g>
<!-- Node16&#45;&gt;Node14 -->
<g id="edge26" class="edge">
<title>Node16&#45;&gt;Node14</title>
<path fill="none" stroke="midnightblue" d="M817.37,-232.25C804.6,-223.73 785.86,-211.24 771.07,-201.38"/>
<polygon fill="midnightblue" stroke="midnightblue" points="772.73,-198.28 762.46,-195.64 768.84,-204.1 772.73,-198.28"/>
</g>
<!-- Node17&#45;&gt;Node6 -->
<g id="edge29" class="edge">
<title>Node17&#45;&gt;Node6</title>
<path fill="none" stroke="midnightblue" d="M913.36,-348.38C921.12,-339.68 931.58,-326.11 936,-312 938.93,-302.67 937.91,-299.59 936,-290 925.02,-234.76 927.77,-210.64 885,-174 851.38,-145.2 800.64,-134.4 765.56,-130.37"/>
<polygon fill="midnightblue" stroke="midnightblue" points="765.52,-126.85 755.22,-129.33 764.81,-133.81 765.52,-126.85"/>
</g>
<!-- Node18 -->
<g id="node18" class="node">
<title>Node18</title>
<g id="a_node18"><a xlink:href="box_8h.html" target="_top" xlink:title=" ">
<polygon fill="white" stroke="black" points="881,-290.5 881,-311.5 927,-311.5 927,-290.5 881,-290.5"/>
<text text-anchor="middle" x="904" y="-297.9" font-family="DejaVuSans" font-size="12.00">box.h</text>
</a>
</g>
</g>
<!-- Node17&#45;&gt;Node18 -->
<g id="edge30" class="edge">
<title>Node17&#45;&gt;Node18</title>
<path fill="none" stroke="midnightblue" d="M904,-348.25C904,-340.94 904,-330.69 904,-321.7"/>
<polygon fill="midnightblue" stroke="midnightblue" points="907.5,-321.64 904,-311.64 900.5,-321.64 907.5,-321.64"/>
</g>
<!-- Node18&#45;&gt;Node5 -->
<g id="edge32" class="edge">
<title>Node18&#45;&gt;Node5</title>
<path fill="none" stroke="midnightblue" d="M880.74,-296.41C819.37,-286.94 652.66,-261.23 578.01,-249.71"/>
<polygon fill="midnightblue" stroke="midnightblue" points="578.1,-246.18 567.69,-248.12 577.04,-253.1 578.1,-246.18"/>
</g>
<!-- Node18&#45;&gt;Node6 -->
<g id="edge31" class="edge">
<title>Node18&#45;&gt;Node6</title>
<path fill="none" stroke="midnightblue" d="M903.9,-290.24C903.07,-266.22 897.34,-204.05 861,-174 833.43,-151.2 793.99,-139.49 764.85,-133.61"/>
<polygon fill="midnightblue" stroke="midnightblue" points="765.48,-130.16 755.01,-131.76 764.19,-137.04 765.48,-130.16"/>
</g>
<!-- Node18&#45;&gt;Node16 -->
<g id="edge35" class="edge">
<title>Node18&#45;&gt;Node16</title>
<path fill="none" stroke="midnightblue" d="M891.46,-290.25C880.72,-281.89 865.05,-269.71 852.5,-259.94"/>
<polygon fill="midnightblue" stroke="midnightblue" points="854.44,-257.02 844.4,-253.64 850.14,-262.54 854.44,-257.02"/>
</g>
<!-- Node18&#45;&gt;Node19 -->
<g id="edge33" class="edge">
<title>Node18&#45;&gt;Node19</title>
<path fill="none" stroke="midnightblue" d="M923.94,-290.37C942.48,-281.42 970.3,-267.99 991.24,-257.88"/>
<polygon fill="midnightblue" stroke="midnightblue" points="992.84,-261 1000.32,-253.5 989.79,-254.7 992.84,-261"/>
</g>
<!-- Node19&#45;&gt;Node6 -->
<g id="edge34" class="edge">
<title>Node19&#45;&gt;Node6</title>
<path fill="none" stroke="midnightblue" d="M1016.48,-232.3C1010.47,-217.21 996.72,-188.37 975,-174 941.12,-151.59 826.39,-137.56 765.2,-131.49"/>
<polygon fill="midnightblue" stroke="midnightblue" points="765.43,-128 755.14,-130.52 764.76,-134.97 765.43,-128"/>
</g>
<!-- Node20&#45;&gt;Node6 -->
<g id="edge37" class="edge">
<title>Node20&#45;&gt;Node6</title>
<path fill="none" stroke="midnightblue" d="M1026.96,-290.37C1039.63,-282.47 1055.62,-269.99 1063,-254 1067.1,-245.12 1066.93,-240.95 1063,-232 1047.71,-197.15 1034.18,-190.73 1000,-174 922.87,-136.25 820.51,-128.76 765.31,-127.7"/>
<polygon fill="midnightblue" stroke="midnightblue" points="765.29,-124.19 755.24,-127.56 765.2,-131.19 765.29,-124.19"/>
</g>
<!-- Node20&#45;&gt;Node16 -->
<g id="edge38" class="edge">
<title>Node20&#45;&gt;Node16</title>
<path fill="none" stroke="midnightblue" d="M983.26,-291.86C950.94,-281.63 895.6,-264.12 861.57,-253.36"/>
<polygon fill="midnightblue" stroke="midnightblue" points="862.33,-249.93 851.74,-250.25 860.22,-256.6 862.33,-249.93"/>
</g>
<!-- Node21&#45;&gt;Node3 -->
<g id="edge54" class="edge">
<title>Node21&#45;&gt;Node3</title>
<path fill="none" stroke="midnightblue" d="M548.94,-352.42C514.19,-345.78 458.49,-332.87 414,-312 373.26,-292.89 360.41,-288.06 331,-254 318.51,-239.53 309.27,-219.67 303.6,-205.14"/>
<polygon fill="midnightblue" stroke="midnightblue" points="306.85,-203.84 300.11,-195.67 300.28,-206.26 306.85,-203.84"/>
</g>
<!-- Node21&#45;&gt;Node5 -->
<g id="edge42" class="edge">
<title>Node21&#45;&gt;Node5</title>
<path fill="none" stroke="midnightblue" d="M578.5,-348.28C571.76,-329.52 556.82,-288 547.97,-263.38"/>
<polygon fill="midnightblue" stroke="midnightblue" points="551.16,-261.92 544.49,-253.69 544.58,-264.29 551.16,-261.92"/>
</g>
<!-- Node21&#45;&gt;Node6 -->
<g id="edge41" class="edge">
<title>Node21&#45;&gt;Node6</title>
<path fill="none" stroke="midnightblue" d="M615.21,-357.23C676.36,-353.77 805.46,-336.55 860,-254 891.93,-205.67 811.32,-162.56 761.63,-141.55"/>
<polygon fill="midnightblue" stroke="midnightblue" points="762.73,-138.21 752.15,-137.64 760.07,-144.69 762.73,-138.21"/>
</g>
<!-- Node21&#45;&gt;Node14 -->
<g id="edge53" class="edge">
<title>Node21&#45;&gt;Node14</title>
<path fill="none" stroke="midnightblue" d="M615.03,-349.76C639.35,-342.57 672.34,-330.37 697,-312 723.38,-292.34 731.04,-284.65 743,-254 748.98,-238.66 749.94,-219.92 749.57,-206"/>
<polygon fill="midnightblue" stroke="midnightblue" points="753.04,-205.43 749.02,-195.62 746.05,-205.79 753.04,-205.43"/>
</g>
<!-- Node21&#45;&gt;Node15 -->
<g id="edge52" class="edge">
<title>Node21&#45;&gt;Node15</title>
<path fill="none" stroke="midnightblue" d="M548.96,-352.87C508.58,-346.05 438.51,-332.44 381,-312 340.03,-297.44 295.35,-273.9 268.26,-258.69"/>
<polygon fill="midnightblue" stroke="midnightblue" points="269.87,-255.57 259.44,-253.68 266.41,-261.66 269.87,-255.57"/>
</g>
<!-- Node21&#45;&gt;Node18 -->
<g id="edge43" class="edge">
<title>Node21&#45;&gt;Node18</title>
<path fill="none" stroke="midnightblue" d="M615.12,-353.79C668.47,-346.76 776.6,-331.46 867,-312 868.28,-311.72 869.58,-311.43 870.9,-311.13"/>
<polygon fill="midnightblue" stroke="midnightblue" points="872.14,-314.42 881,-308.61 870.45,-307.63 872.14,-314.42"/>
</g>
<!-- Node22 -->
<g id="node22" class="node">
<title>Node22</title>
<g id="a_node22"><a xlink:href="fonts_8h.html" target="_top" xlink:title=" ">
<polygon fill="white" stroke="black" points="636,-290.5 636,-311.5 688,-311.5 688,-290.5 636,-290.5"/>
<text text-anchor="middle" x="662" y="-297.9" font-family="DejaVuSans" font-size="12.00">fonts.h</text>
</a>
</g>
</g>
<!-- Node21&#45;&gt;Node22 -->
<g id="edge44" class="edge">
<title>Node21&#45;&gt;Node22</title>
<path fill="none" stroke="midnightblue" d="M595.93,-348.25C608.09,-339.73 625.95,-327.24 640.03,-317.38"/>
<polygon fill="midnightblue" stroke="midnightblue" points="642.04,-320.24 648.22,-311.64 638.03,-314.51 642.04,-320.24"/>
</g>
<!-- Node22&#45;&gt;Node3 -->
<g id="edge47" class="edge">
<title>Node22&#45;&gt;Node3</title>
<path fill="none" stroke="midnightblue" d="M653.02,-290.25C638.45,-275.09 608.03,-246.16 576,-232 503.89,-200.12 412.44,-190.14 354.31,-187.12"/>
<polygon fill="midnightblue" stroke="midnightblue" points="354.36,-183.62 344.21,-186.65 354.04,-190.61 354.36,-183.62"/>
</g>
<!-- Node22&#45;&gt;Node6 -->
<g id="edge46" class="edge">
<title>Node22&#45;&gt;Node6</title>
<path fill="none" stroke="midnightblue" d="M685.11,-290.49C700.03,-282.99 718.23,-270.94 727,-254 739.6,-229.65 713.15,-222.47 706,-196 703.45,-186.56 704.01,-183.57 706,-174 707.94,-164.67 711.88,-154.9 715.75,-146.78"/>
<polygon fill="midnightblue" stroke="midnightblue" points="718.89,-148.34 720.31,-137.84 712.65,-145.16 718.89,-148.34"/>
</g>
<!-- Node22&#45;&gt;Node13 -->
<g id="edge45" class="edge">
<title>Node22&#45;&gt;Node13</title>
<path fill="none" stroke="midnightblue" d="M656.29,-290.28C645.11,-271.27 620.2,-228.88 605.81,-204.4"/>
<polygon fill="midnightblue" stroke="midnightblue" points="608.78,-202.54 600.7,-195.69 602.75,-206.09 608.78,-202.54"/>
</g>
<!-- Node22&#45;&gt;Node16 -->
<g id="edge48" class="edge">
<title>Node22&#45;&gt;Node16</title>
<path fill="none" stroke="midnightblue" d="M688.19,-291.37C719.12,-281.18 770.42,-264.29 802.66,-253.67"/>
<polygon fill="midnightblue" stroke="midnightblue" points="804,-256.91 812.41,-250.45 801.81,-250.26 804,-256.91"/>
</g>
<!-- Node23 -->
<g id="node23" class="node">
<title>Node23</title>
<g id="a_node23"><a xlink:href="dump_8h.html" target="_top" xlink:title=" ">
<polygon fill="white" stroke="black" points="662,-232.5 662,-253.5 718,-253.5 718,-232.5 662,-232.5"/>
<text text-anchor="middle" x="690" y="-239.9" font-family="DejaVuSans" font-size="12.00">dump.h</text>
</a>
</g>
</g>
<!-- Node22&#45;&gt;Node23 -->
<g id="edge49" class="edge">
<title>Node22&#45;&gt;Node23</title>
<path fill="none" stroke="midnightblue" d="M666.88,-290.25C670.65,-282.7 675.99,-272.02 680.59,-262.82"/>
<polygon fill="midnightblue" stroke="midnightblue" points="683.84,-264.15 685.18,-253.64 677.58,-261.02 683.84,-264.15"/>
</g>
<!-- Node23&#45;&gt;Node6 -->
<g id="edge51" class="edge">
<title>Node23&#45;&gt;Node6</title>
<path fill="none" stroke="midnightblue" d="M683.72,-232.4C675.74,-218.88 664.01,-193.71 673,-174 678.69,-161.53 689.61,-151.14 700.07,-143.4"/>
<polygon fill="midnightblue" stroke="midnightblue" points="702.35,-146.08 708.62,-137.54 698.4,-140.31 702.35,-146.08"/>
</g>
<!-- Node23&#45;&gt;Node13 -->
<g id="edge50" class="edge">
<title>Node23&#45;&gt;Node13</title>
<path fill="none" stroke="midnightblue" d="M673.45,-232.25C658.74,-223.57 637.01,-210.76 620.15,-200.82"/>
<polygon fill="midnightblue" stroke="midnightblue" points="621.75,-197.71 611.36,-195.64 618.2,-203.74 621.75,-197.71"/>
</g>
<!-- Node24&#45;&gt;Node6 -->
<g id="edge57" class="edge">
<title>Node24&#45;&gt;Node6</title>
<path fill="none" stroke="midnightblue" d="M275.54,-410.82C218.56,-400.88 120,-373.37 120,-302 120,-302 120,-302 120,-242 120,-195.34 156.94,-191.99 200,-174 287.9,-137.26 579.84,-129.86 686.52,-128.37"/>
<polygon fill="midnightblue" stroke="midnightblue" points="686.89,-131.87 696.84,-128.24 686.8,-124.87 686.89,-131.87"/>
</g>
<!-- Node24&#45;&gt;Node13 -->
<g id="edge56" class="edge">
<title>Node24&#45;&gt;Node13</title>
<path fill="none" stroke="midnightblue" d="M319.63,-406.37C334.69,-376.04 385.36,-281.6 455,-232 486.22,-209.76 528.86,-197.8 558.85,-191.7"/>
<polygon fill="midnightblue" stroke="midnightblue" points="559.72,-195.09 568.89,-189.78 558.41,-188.22 559.72,-195.09"/>
</g>
<!-- Node24&#45;&gt;Node15 -->
<g id="edge62" class="edge">
<title>Node24&#45;&gt;Node15</title>
<path fill="none" stroke="midnightblue" d="M310.92,-406.26C299.39,-378.71 266.37,-299.83 251.02,-263.17"/>
<polygon fill="midnightblue" stroke="midnightblue" points="254.12,-261.51 247.03,-253.63 247.67,-264.21 254.12,-261.51"/>
</g>
<!-- Node24&#45;&gt;Node21 -->
<g id="edge63" class="edge">
<title>Node24&#45;&gt;Node21</title>
<path fill="none" stroke="midnightblue" d="M354.11,-407.8C403.3,-397.48 487.5,-379.82 538.62,-369.1"/>
<polygon fill="midnightblue" stroke="midnightblue" points="539.62,-372.46 548.69,-366.99 538.19,-365.61 539.62,-372.46"/>
</g>
<!-- Node25 -->
<g id="node25" class="node">
<title>Node25</title>
<g id="a_node25"><a xlink:href="lexer_8h.html" target="_top" xlink:title=" ">
<polygon fill="white" stroke="black" points="148,-232.5 148,-253.5 200,-253.5 200,-232.5 148,-232.5"/>
<text text-anchor="middle" x="174" y="-239.9" font-family="DejaVuSans" font-size="12.00">lexer.h</text>
</a>
</g>
</g>
<!-- Node24&#45;&gt;Node25 -->
<g id="edge58" class="edge">
<title>Node24&#45;&gt;Node25</title>
<path fill="none" stroke="midnightblue" d="M307.02,-406.26C284.14,-378.35 218.1,-297.79 188.57,-261.77"/>
<polygon fill="midnightblue" stroke="midnightblue" points="190.94,-259.15 181.9,-253.63 185.53,-263.59 190.94,-259.15"/>
</g>
<!-- Node25&#45;&gt;Node3 -->
<g id="edge61" class="edge">
<title>Node25&#45;&gt;Node3</title>
<path fill="none" stroke="midnightblue" d="M195.14,-232.37C214.89,-223.38 244.57,-209.87 266.81,-199.75"/>
<polygon fill="midnightblue" stroke="midnightblue" points="268.48,-202.83 276.13,-195.5 265.58,-196.46 268.48,-202.83"/>
</g>
<!-- Node25&#45;&gt;Node6 -->
<g id="edge60" class="edge">
<title>Node25&#45;&gt;Node6</title>
<path fill="none" stroke="midnightblue" d="M178.76,-232.02C186.73,-216.55 204.37,-187.19 229,-174 307.95,-131.74 583.38,-127.73 686.57,-127.76"/>
<polygon fill="midnightblue" stroke="midnightblue" points="686.85,-131.26 696.86,-127.77 686.86,-124.26 686.85,-131.26"/>
</g>
<!-- Node25&#45;&gt;Node13 -->
<g id="edge59" class="edge">
<title>Node25&#45;&gt;Node13</title>
<path fill="none" stroke="midnightblue" d="M200.26,-234.01C203.19,-233.26 206.15,-232.57 209,-232 335.86,-206.49 489.23,-193.39 558.23,-188.42"/>
<polygon fill="midnightblue" stroke="midnightblue" points="558.83,-191.88 568.56,-187.69 558.34,-184.9 558.83,-191.88"/>
</g>
<!-- Node26&#45;&gt;Node6 -->
<g id="edge65" class="edge">
<title>Node26&#45;&gt;Node6</title>
<path fill="none" stroke="midnightblue" d="M1127.56,-348.34C1122.19,-316.21 1100.05,-212.79 1033,-174 988.15,-148.05 837.46,-135.13 765.24,-130.31"/>
<polygon fill="midnightblue" stroke="midnightblue" points="765.38,-126.81 755.18,-129.65 764.93,-133.79 765.38,-126.81"/>
</g>
</g>
</svg>
