<?xml version="1.0" encoding="UTF-8" standalone="no"?>
<!DOCTYPE svg PUBLIC "-//W3C//DTD SVG 1.1//EN"
 "http://www.w3.org/Graphics/SVG/1.1/DTD/svg11.dtd">
<!-- Generated by graphviz version 2.44.0 ()
 -->
<!-- Title: macros.h Pages: 1 -->
<svg width="441pt" height="146pt"
 viewBox="0.00 0.00 440.50 146.00" xmlns="http://www.w3.org/2000/svg" xmlns:xlink="http://www.w3.org/1999/xlink">
<g id="graph0" class="graph" transform="scale(1 1) rotate(0) translate(4 142)">
<title>macros.h</title>
<polygon fill="white" stroke="transparent" points="-4,4 -4,-142 436.5,-142 436.5,4 -4,4"/>
<!-- Node1 -->
<g id="node1" class="node">
<title>Node1</title>
<g id="a_node1"><a xlink:title=" ">
<polygon fill="#bfbfbf" stroke="black" points="179,-116.5 179,-137.5 244,-137.5 244,-116.5 179,-116.5"/>
<text text-anchor="middle" x="211.5" y="-123.9" font-family="DejaVuSans" font-size="12.00">macros.h</text>
</a>
</g>
</g>
<!-- Node2 -->
<g id="node2" class="node">
<title>Node2</title>
<g id="a_node2"><a xlink:href="expand_8c.html" target="_top" xlink:title=" ">
<polygon fill="white" stroke="black" points="0,-58.5 0,-79.5 65,-79.5 65,-58.5 0,-58.5"/>
<text text-anchor="middle" x="32.5" y="-65.9" font-family="DejaVuSans" font-size="12.00">expand.c</text>
</a>
</g>
</g>
<!-- Node1&#45;&gt;Node2 -->
<g id="edge1" class="edge">
<title>Node1&#45;&gt;Node2</title>
<path fill="none" stroke="midnightblue" d="M170.98,-113.32C138.15,-103.05 92.62,-88.81 62.87,-79.5"/>
<polygon fill="midnightblue" stroke="midnightblue" points="170.14,-116.73 180.73,-116.37 172.23,-110.05 170.14,-116.73"/>
</g>
<!-- Node3 -->
<g id="node3" class="node">
<title>Node3</title>
<g id="a_node3"><a xlink:href="fonts_8c.html" target="_top" xlink:title=" ">
<polygon fill="white" stroke="black" points="83,-58.5 83,-79.5 134,-79.5 134,-58.5 83,-58.5"/>
<text text-anchor="middle" x="108.5" y="-65.9" font-family="DejaVuSans" font-size="12.00">fonts.c</text>
</a>
</g>
</g>
<!-- Node1&#45;&gt;Node3 -->
<g id="edge2" class="edge">
<title>Node1&#45;&gt;Node3</title>
<path fill="none" stroke="midnightblue" d="M184.76,-111.46C166.32,-101.44 142.34,-88.4 126.24,-79.64"/>
<polygon fill="midnightblue" stroke="midnightblue" points="183.1,-114.54 193.56,-116.25 186.45,-108.39 183.1,-114.54"/>
</g>
<!-- Node4 -->
<g id="node4" class="node">
<title>Node4</title>
<g id="a_node4"><a xlink:href="lexer_8c.html" target="_top" xlink:title=" ">
<polygon fill="white" stroke="black" points="152,-58.5 152,-79.5 203,-79.5 203,-58.5 152,-58.5"/>
<text text-anchor="middle" x="177.5" y="-65.9" font-family="DejaVuSans" font-size="12.00">lexer.c</text>
</a>
</g>
</g>
<!-- Node1&#45;&gt;Node4 -->
<g id="edge3" class="edge">
<title>Node1&#45;&gt;Node4</title>
<path fill="none" stroke="midnightblue" d="M200.35,-107.63C194.68,-98.29 188.02,-87.32 183.35,-79.64"/>
<polygon fill="midnightblue" stroke="midnightblue" points="197.4,-109.51 205.58,-116.25 203.38,-105.88 197.4,-109.51"/>
</g>
<!-- Node5 -->
<g id="node5" class="node">
<title>Node5</title>
<g id="a_node5"><a xlink:href="scan_8c.html" target="_top" xlink:title=" ">
<polygon fill="white" stroke="black" points="221,-58.5 221,-79.5 272,-79.5 272,-58.5 221,-58.5"/>
<text text-anchor="middle" x="246.5" y="-65.9" font-family="DejaVuSans" font-size="12.00">scan.c</text>
</a>
</g>
</g>
<!-- Node1&#45;&gt;Node5 -->
<g id="edge4" class="edge">
<title>Node1&#45;&gt;Node5</title>
<path fill="none" stroke="midnightblue" d="M222.98,-107.63C228.82,-98.29 235.68,-87.32 240.47,-79.64"/>
<polygon fill="midnightblue" stroke="midnightblue" points="219.93,-105.91 217.6,-116.25 225.86,-109.62 219.93,-105.91"/>
</g>
<!-- Node6 -->
<g id="node6" class="node">
<title>Node6</title>
<g id="a_node6"><a xlink:href="str_8c.html" target="_top" xlink:title=" ">
<polygon fill="white" stroke="black" points="290.5,-58.5 290.5,-79.5 328.5,-79.5 328.5,-58.5 290.5,-58.5"/>
<text text-anchor="middle" x="309.5" y="-65.9" font-family="DejaVuSans" font-size="12.00">str.c</text>
</a>
</g>
</g>
<!-- Node1&#45;&gt;Node6 -->
<g id="edge5" class="edge">
<title>Node1&#45;&gt;Node6</title>
<path fill="none" stroke="midnightblue" d="M237.67,-111.05C255.11,-101.08 277.51,-88.28 292.63,-79.64"/>
<polygon fill="midnightblue" stroke="midnightblue" points="235.52,-108.25 228.57,-116.25 238.99,-114.32 235.52,-108.25"/>
</g>
<!-- Node7 -->
<g id="node7" class="node">
<title>Node7</title>
<g id="a_node7"><a xlink:href="tex__header_8h.html" target="_top" xlink:title=" ">
<polygon fill="white" stroke="black" points="346.5,-58.5 346.5,-79.5 432.5,-79.5 432.5,-58.5 346.5,-58.5"/>
<text text-anchor="middle" x="389.5" y="-65.9" font-family="DejaVuSans" font-size="12.00">tex_header.h</text>
</a>
</g>
</g>
<!-- Node1&#45;&gt;Node7 -->
<g id="edge6" class="edge">
<title>Node1&#45;&gt;Node7</title>
<path fill="none" stroke="midnightblue" d="M251.79,-113.32C284.44,-103.05 329.71,-88.81 359.3,-79.5"/>
<polygon fill="midnightblue" stroke="midnightblue" points="250.59,-110.03 242.1,-116.37 252.69,-116.71 250.59,-110.03"/>
</g>
<!-- Node8 -->
<g id="node8" class="node">
<title>Node8</title>
<g id="a_node8"><a xlink:href="tex_8c.html" target="_top" xlink:title=" ">
<polygon fill="white" stroke="black" points="369,-0.5 369,-21.5 410,-21.5 410,-0.5 369,-0.5"/>
<text text-anchor="middle" x="389.5" y="-7.9" font-family="DejaVuSans" font-size="12.00">tex.c</text>
</a>
</g>
</g>
<!-- Node7&#45;&gt;Node8 -->
<g id="edge7" class="edge">
<title>Node7&#45;&gt;Node8</title>
<path fill="none" stroke="midnightblue" d="M389.5,-48.16C389.5,-39.16 389.5,-28.92 389.5,-21.64"/>
<polygon fill="midnightblue" stroke="midnightblue" points="386,-48.25 389.5,-58.25 393,-48.25 386,-48.25"/>
</g>
</g>
</svg>
