<?xml version="1.0" encoding="UTF-8" standalone="no"?>
<!DOCTYPE svg PUBLIC "-//W3C//DTD SVG 1.1//EN"
 "http://www.w3.org/Graphics/SVG/1.1/DTD/svg11.dtd">
<!-- Generated by graphviz version 2.44.0 ()
 -->
<!-- Title: macros.h Pages: 1 -->
<svg width="922pt" height="146pt"
 viewBox="0.00 0.00 921.50 146.00" xmlns="http://www.w3.org/2000/svg" xmlns:xlink="http://www.w3.org/1999/xlink">
<g id="graph0" class="graph" transform="scale(1 1) rotate(0) translate(4 142)">
<title>macros.h</title>
<polygon fill="white" stroke="transparent" points="-4,4 -4,-142 917.5,-142 917.5,4 -4,4"/>
<!-- Node1 -->
<g id="node1" class="node">
<title>Node1</title>
<g id="a_node1"><a xlink:title=" ">
<polygon fill="#bfbfbf" stroke="black" points="445,-116.5 445,-137.5 510,-137.5 510,-116.5 445,-116.5"/>
<text text-anchor="middle" x="477.5" y="-123.9" font-family="DejaVuSans" font-size="12.00">macros.h</text>
</a>
</g>
</g>
<!-- Node2 -->
<g id="node2" class="node">
<title>Node2</title>
<g id="a_node2"><a xlink:href="eqtb__save_8c.html" target="_top" xlink:title=" ">
<polygon fill="white" stroke="black" points="0,-58.5 0,-79.5 81,-79.5 81,-58.5 0,-58.5"/>
<text text-anchor="middle" x="40.5" y="-65.9" font-family="DejaVuSans" font-size="12.00">eqtb_save.c</text>
</a>
</g>
</g>
<!-- Node1&#45;&gt;Node2 -->
<g id="edge1" class="edge">
<title>Node1&#45;&gt;Node2</title>
<path fill="none" stroke="midnightblue" d="M434.78,-122.04C363.3,-115.16 215.01,-99.82 90.5,-80 87.44,-79.51 84.28,-78.97 81.11,-78.4"/>
<polygon fill="midnightblue" stroke="midnightblue" points="434.47,-125.52 444.76,-122.99 435.14,-118.56 434.47,-125.52"/>
</g>
<!-- Node3 -->
<g id="node3" class="node">
<title>Node3</title>
<g id="a_node3"><a xlink:href="error_8c.html" target="_top" xlink:title=" ">
<polygon fill="white" stroke="black" points="99.5,-58.5 99.5,-79.5 149.5,-79.5 149.5,-58.5 99.5,-58.5"/>
<text text-anchor="middle" x="124.5" y="-65.9" font-family="DejaVuSans" font-size="12.00">error.c</text>
</a>
</g>
</g>
<!-- Node1&#45;&gt;Node3 -->
<g id="edge2" class="edge">
<title>Node1&#45;&gt;Node3</title>
<path fill="none" stroke="midnightblue" d="M434.65,-121.66C373.27,-115.02 256.95,-100.87 159.5,-80 156.29,-79.31 152.93,-78.49 149.63,-77.62"/>
<polygon fill="midnightblue" stroke="midnightblue" points="434.42,-125.15 444.74,-122.73 435.17,-118.19 434.42,-125.15"/>
</g>
<!-- Node4 -->
<g id="node4" class="node">
<title>Node4</title>
<g id="a_node4"><a xlink:href="expand_8c.html" target="_top" xlink:title=" ">
<polygon fill="white" stroke="black" points="168,-58.5 168,-79.5 233,-79.5 233,-58.5 168,-58.5"/>
<text text-anchor="middle" x="200.5" y="-65.9" font-family="DejaVuSans" font-size="12.00">expand.c</text>
</a>
</g>
</g>
<!-- Node1&#45;&gt;Node4 -->
<g id="edge3" class="edge">
<title>Node1&#45;&gt;Node4</title>
<path fill="none" stroke="midnightblue" d="M434.86,-118.19C387.69,-109.43 309.5,-94.53 242.5,-80 239.42,-79.33 236.23,-78.62 233.03,-77.88"/>
<polygon fill="midnightblue" stroke="midnightblue" points="434.25,-121.64 444.72,-120.02 435.52,-114.75 434.25,-121.64"/>
</g>
<!-- Node5 -->
<g id="node5" class="node">
<title>Node5</title>
<g id="a_node5"><a xlink:href="fonts_8c.html" target="_top" xlink:title=" ">
<polygon fill="white" stroke="black" points="251,-58.5 251,-79.5 302,-79.5 302,-58.5 251,-58.5"/>
<text text-anchor="middle" x="276.5" y="-65.9" font-family="DejaVuSans" font-size="12.00">fonts.c</text>
</a>
</g>
</g>
<!-- Node1&#45;&gt;Node5 -->
<g id="edge4" class="edge">
<title>Node1&#45;&gt;Node5</title>
<path fill="none" stroke="midnightblue" d="M434.79,-114.27C401.25,-105.03 353.37,-91.78 311.5,-80 308.46,-79.14 305.27,-78.24 302.11,-77.34"/>
<polygon fill="midnightblue" stroke="midnightblue" points="434.15,-117.72 444.72,-117 436.01,-110.97 434.15,-117.72"/>
</g>
<!-- Node6 -->
<g id="node6" class="node">
<title>Node6</title>
<g id="a_node6"><a xlink:href="hyphen__post_8c.html" target="_top" xlink:title=" ">
<polygon fill="white" stroke="black" points="320,-58.5 320,-79.5 415,-79.5 415,-58.5 320,-58.5"/>
<text text-anchor="middle" x="367.5" y="-65.9" font-family="DejaVuSans" font-size="12.00">hyphen_post.c</text>
</a>
</g>
</g>
<!-- Node1&#45;&gt;Node6 -->
<g id="edge5" class="edge">
<title>Node1&#45;&gt;Node6</title>
<path fill="none" stroke="midnightblue" d="M449.21,-111.6C429.49,-101.56 403.72,-88.44 386.44,-79.64"/>
<polygon fill="midnightblue" stroke="midnightblue" points="447.84,-114.83 458.34,-116.25 451.02,-108.59 447.84,-114.83"/>
</g>
<!-- Node7 -->
<g id="node7" class="node">
<title>Node7</title>
<g id="a_node7"><a xlink:href="hyphen__pre_8c.html" target="_top" xlink:title=" ">
<polygon fill="white" stroke="black" points="433,-58.5 433,-79.5 522,-79.5 522,-58.5 433,-58.5"/>
<text text-anchor="middle" x="477.5" y="-65.9" font-family="DejaVuSans" font-size="12.00">hyphen_pre.c</text>
</a>
</g>
</g>
<!-- Node1&#45;&gt;Node7 -->
<g id="edge6" class="edge">
<title>Node1&#45;&gt;Node7</title>
<path fill="none" stroke="midnightblue" d="M477.5,-106.16C477.5,-97.16 477.5,-86.92 477.5,-79.64"/>
<polygon fill="midnightblue" stroke="midnightblue" points="474,-106.25 477.5,-116.25 481,-106.25 474,-106.25"/>
</g>
<!-- Node8 -->
<g id="node8" class="node">
<title>Node8</title>
<g id="a_node8"><a xlink:href="lexer_8c.html" target="_top" xlink:title=" ">
<polygon fill="white" stroke="black" points="540,-58.5 540,-79.5 591,-79.5 591,-58.5 540,-58.5"/>
<text text-anchor="middle" x="565.5" y="-65.9" font-family="DejaVuSans" font-size="12.00">lexer.c</text>
</a>
</g>
</g>
<!-- Node1&#45;&gt;Node8 -->
<g id="edge7" class="edge">
<title>Node1&#45;&gt;Node8</title>
<path fill="none" stroke="midnightblue" d="M501.43,-110.77C517.03,-100.85 536.9,-88.2 550.35,-79.64"/>
<polygon fill="midnightblue" stroke="midnightblue" points="499.39,-107.92 492.83,-116.25 503.14,-113.83 499.39,-107.92"/>
</g>
<!-- Node9 -->
<g id="node9" class="node">
<title>Node9</title>
<g id="a_node9"><a xlink:href="linebreak_8c.html" target="_top" xlink:title=" ">
<polygon fill="white" stroke="black" points="609.5,-58.5 609.5,-79.5 683.5,-79.5 683.5,-58.5 609.5,-58.5"/>
<text text-anchor="middle" x="646.5" y="-65.9" font-family="DejaVuSans" font-size="12.00">linebreak.c</text>
</a>
</g>
</g>
<!-- Node1&#45;&gt;Node9 -->
<g id="edge8" class="edge">
<title>Node1&#45;&gt;Node9</title>
<path fill="none" stroke="midnightblue" d="M516.16,-113.19C547.12,-102.93 589.86,-88.77 617.83,-79.5"/>
<polygon fill="midnightblue" stroke="midnightblue" points="514.94,-109.91 506.55,-116.37 517.15,-116.55 514.94,-109.91"/>
</g>
<!-- Node10 -->
<g id="node10" class="node">
<title>Node10</title>
<g id="a_node10"><a xlink:href="scan_8c.html" target="_top" xlink:title=" ">
<polygon fill="white" stroke="black" points="702,-58.5 702,-79.5 753,-79.5 753,-58.5 702,-58.5"/>
<text text-anchor="middle" x="727.5" y="-65.9" font-family="DejaVuSans" font-size="12.00">scan.c</text>
</a>
</g>
</g>
<!-- Node1&#45;&gt;Node10 -->
<g id="edge9" class="edge">
<title>Node1&#45;&gt;Node10</title>
<path fill="none" stroke="midnightblue" d="M520.02,-117.78C563.53,-109.17 633.01,-94.84 692.5,-80 695.57,-79.23 698.77,-78.39 701.94,-77.52"/>
<polygon fill="midnightblue" stroke="midnightblue" points="519.21,-114.38 510.07,-119.74 520.56,-121.24 519.21,-114.38"/>
</g>
<!-- Node11 -->
<g id="node11" class="node">
<title>Node11</title>
<g id="a_node11"><a xlink:href="str_8c.html" target="_top" xlink:title=" ">
<polygon fill="white" stroke="black" points="771.5,-58.5 771.5,-79.5 809.5,-79.5 809.5,-58.5 771.5,-58.5"/>
<text text-anchor="middle" x="790.5" y="-65.9" font-family="DejaVuSans" font-size="12.00">str.c</text>
</a>
</g>
</g>
<!-- Node1&#45;&gt;Node11 -->
<g id="edge10" class="edge">
<title>Node1&#45;&gt;Node11</title>
<path fill="none" stroke="midnightblue" d="M520.34,-121.56C576.54,-115.18 677.96,-101.72 762.5,-80 765.4,-79.25 768.42,-78.33 771.36,-77.36"/>
<polygon fill="midnightblue" stroke="midnightblue" points="519.93,-118.09 510.38,-122.67 520.71,-125.04 519.93,-118.09"/>
</g>
<!-- Node12 -->
<g id="node12" class="node">
<title>Node12</title>
<g id="a_node12"><a xlink:href="tex__header_8h.html" target="_top" xlink:title=" ">
<polygon fill="white" stroke="black" points="827.5,-58.5 827.5,-79.5 913.5,-79.5 913.5,-58.5 827.5,-58.5"/>
<text text-anchor="middle" x="870.5" y="-65.9" font-family="DejaVuSans" font-size="12.00">tex_header.h</text>
</a>
</g>
</g>
<!-- Node1&#45;&gt;Node12 -->
<g id="edge11" class="edge">
<title>Node1&#45;&gt;Node12</title>
<path fill="none" stroke="midnightblue" d="M520.25,-121.01C584.95,-113.29 711.55,-97.48 818.5,-80 821.4,-79.53 824.39,-79.01 827.4,-78.48"/>
<polygon fill="midnightblue" stroke="midnightblue" points="519.55,-117.57 510.03,-122.23 520.38,-124.52 519.55,-117.57"/>
</g>
<!-- Node13 -->
<g id="node13" class="node">
<title>Node13</title>
<g id="a_node13"><a xlink:href="tex_8c.html" target="_top" xlink:title=" ">
<polygon fill="white" stroke="black" points="850,-0.5 850,-21.5 891,-21.5 891,-0.5 850,-0.5"/>
<text text-anchor="middle" x="870.5" y="-7.9" font-family="DejaVuSans" font-size="12.00">tex.c</text>
</a>
</g>
</g>
<!-- Node12&#45;&gt;Node13 -->
<g id="edge12" class="edge">
<title>Node12&#45;&gt;Node13</title>
<path fill="none" stroke="midnightblue" d="M870.5,-48.16C870.5,-39.16 870.5,-28.92 870.5,-21.64"/>
<polygon fill="midnightblue" stroke="midnightblue" points="867,-48.25 870.5,-58.25 874,-48.25 867,-48.25"/>
</g>
</g>
</svg>
