<?xml version="1.0" encoding="UTF-8" standalone="no"?>
<!DOCTYPE svg PUBLIC "-//W3C//DTD SVG 1.1//EN"
 "http://www.w3.org/Graphics/SVG/1.1/DTD/svg11.dtd">
<!-- Generated by graphviz version 2.44.0 ()
 -->
<!-- Title: main_ctrl.h Pages: 1 -->
<svg width="731pt" height="146pt"
 viewBox="0.00 0.00 730.50 146.00" xmlns="http://www.w3.org/2000/svg" xmlns:xlink="http://www.w3.org/1999/xlink">
<g id="graph0" class="graph" transform="scale(1 1) rotate(0) translate(4 142)">
<title>main_ctrl.h</title>
<polygon fill="white" stroke="transparent" points="-4,4 -4,-142 726.5,-142 726.5,4 -4,4"/>
<!-- Node1 -->
<g id="node1" class="node">
<title>Node1</title>
<g id="a_node1"><a xlink:title=" ">
<polygon fill="#bfbfbf" stroke="black" points="256.5,-116.5 256.5,-137.5 330.5,-137.5 330.5,-116.5 256.5,-116.5"/>
<text text-anchor="middle" x="293.5" y="-123.9" font-family="DejaVuSans" font-size="12.00">main_ctrl.h</text>
</a>
</g>
</g>
<!-- Node2 -->
<g id="node2" class="node">
<title>Node2</title>
<g id="a_node2"><a xlink:href="align_8c.html" target="_top" xlink:title=" ">
<polygon fill="white" stroke="black" points="0,-58.5 0,-79.5 51,-79.5 51,-58.5 0,-58.5"/>
<text text-anchor="middle" x="25.5" y="-65.9" font-family="DejaVuSans" font-size="12.00">align.c</text>
</a>
</g>
</g>
<!-- Node1&#45;&gt;Node2 -->
<g id="edge1" class="edge">
<title>Node1&#45;&gt;Node2</title>
<path fill="none" stroke="midnightblue" d="M246.41,-118.06C198.95,-109.74 123.75,-95.73 59.5,-80 56.75,-79.33 53.89,-78.57 51.05,-77.79"/>
<polygon fill="midnightblue" stroke="midnightblue" points="245.94,-121.53 256.39,-119.79 247.14,-114.63 245.94,-121.53"/>
</g>
<!-- Node3 -->
<g id="node3" class="node">
<title>Node3</title>
<g id="a_node3"><a xlink:href="build__box_8c.html" target="_top" xlink:title=" ">
<polygon fill="white" stroke="black" points="69,-58.5 69,-79.5 146,-79.5 146,-58.5 69,-58.5"/>
<text text-anchor="middle" x="107.5" y="-65.9" font-family="DejaVuSans" font-size="12.00">build_box.c</text>
</a>
</g>
</g>
<!-- Node1&#45;&gt;Node3 -->
<g id="edge2" class="edge">
<title>Node1&#45;&gt;Node3</title>
<path fill="none" stroke="midnightblue" d="M251.84,-113.46C217.69,-103.18 170.11,-88.85 139.06,-79.5"/>
<polygon fill="midnightblue" stroke="midnightblue" points="250.94,-116.84 261.53,-116.37 252.96,-110.14 250.94,-116.84"/>
</g>
<!-- Node4 -->
<g id="node4" class="node">
<title>Node4</title>
<g id="a_node4"><a xlink:href="main__ctrl_8c.html" target="_top" xlink:title=" ">
<polygon fill="white" stroke="black" points="172.5,-0.5 172.5,-21.5 246.5,-21.5 246.5,-0.5 172.5,-0.5"/>
<text text-anchor="middle" x="209.5" y="-7.9" font-family="DejaVuSans" font-size="12.00">main_ctrl.c</text>
</a>
</g>
</g>
<!-- Node1&#45;&gt;Node4 -->
<g id="edge9" class="edge">
<title>Node1&#45;&gt;Node4</title>
<path fill="none" stroke="midnightblue" d="M246.78,-116.38C226.8,-109.7 205.37,-98.53 193.5,-80 181.72,-61.62 194.42,-35.47 202.99,-21.56"/>
<polygon fill="midnightblue" stroke="midnightblue" points="245.84,-119.75 256.43,-119.31 247.88,-113.05 245.84,-119.75"/>
</g>
<!-- Node5 -->
<g id="node5" class="node">
<title>Node5</title>
<g id="a_node5"><a xlink:href="build__math_8c.html" target="_top" xlink:title=" ">
<polygon fill="white" stroke="black" points="202.5,-58.5 202.5,-79.5 286.5,-79.5 286.5,-58.5 202.5,-58.5"/>
<text text-anchor="middle" x="244.5" y="-65.9" font-family="DejaVuSans" font-size="12.00">build_math.c</text>
</a>
</g>
</g>
<!-- Node1&#45;&gt;Node5 -->
<g id="edge4" class="edge">
<title>Node1&#45;&gt;Node5</title>
<path fill="none" stroke="midnightblue" d="M278.19,-108.5C269.86,-98.98 259.86,-87.56 252.94,-79.64"/>
<polygon fill="midnightblue" stroke="midnightblue" points="275.75,-111.02 284.96,-116.25 281.01,-106.41 275.75,-111.02"/>
</g>
<!-- Node6 -->
<g id="node6" class="node">
<title>Node6</title>
<g id="a_node6"><a xlink:href="extension_8c.html" target="_top" xlink:title=" ">
<polygon fill="white" stroke="black" points="305,-58.5 305,-79.5 382,-79.5 382,-58.5 305,-58.5"/>
<text text-anchor="middle" x="343.5" y="-65.9" font-family="DejaVuSans" font-size="12.00">extension.c</text>
</a>
</g>
</g>
<!-- Node1&#45;&gt;Node6 -->
<g id="edge6" class="edge">
<title>Node1&#45;&gt;Node6</title>
<path fill="none" stroke="midnightblue" d="M309.12,-108.5C317.63,-98.98 327.82,-87.56 334.89,-79.64"/>
<polygon fill="midnightblue" stroke="midnightblue" points="306.26,-106.46 302.21,-116.25 311.48,-111.12 306.26,-106.46"/>
</g>
<!-- Node7 -->
<g id="node7" class="node">
<title>Node7</title>
<g id="a_node7"><a xlink:href="indep__process_8c.html" target="_top" xlink:title=" ">
<polygon fill="white" stroke="black" points="400.5,-58.5 400.5,-79.5 504.5,-79.5 504.5,-58.5 400.5,-58.5"/>
<text text-anchor="middle" x="452.5" y="-65.9" font-family="DejaVuSans" font-size="12.00">indep_process.c</text>
</a>
</g>
</g>
<!-- Node1&#45;&gt;Node7 -->
<g id="edge7" class="edge">
<title>Node1&#45;&gt;Node7</title>
<path fill="none" stroke="midnightblue" d="M330.63,-112.92C359.7,-102.69 399.44,-88.69 425.52,-79.5"/>
<polygon fill="midnightblue" stroke="midnightblue" points="329.1,-109.75 320.83,-116.37 331.43,-116.35 329.1,-109.75"/>
</g>
<!-- Node8 -->
<g id="node8" class="node">
<title>Node8</title>
<g id="a_node8"><a xlink:href="page__builder_8c.html" target="_top" xlink:title=" ">
<polygon fill="white" stroke="black" points="523,-58.5 523,-79.5 618,-79.5 618,-58.5 523,-58.5"/>
<text text-anchor="middle" x="570.5" y="-65.9" font-family="DejaVuSans" font-size="12.00">page_builder.c</text>
</a>
</g>
</g>
<!-- Node1&#45;&gt;Node8 -->
<g id="edge10" class="edge">
<title>Node1&#45;&gt;Node8</title>
<path fill="none" stroke="midnightblue" d="M340.67,-116.46C391.68,-106.15 472.51,-89.81 523.47,-79.51"/>
<polygon fill="midnightblue" stroke="midnightblue" points="339.68,-113.09 330.57,-118.51 341.07,-119.95 339.68,-113.09"/>
</g>
<!-- Node9 -->
<g id="node9" class="node">
<title>Node9</title>
<g id="a_node9"><a xlink:href="tex__header_8h.html" target="_top" xlink:title=" ">
<polygon fill="white" stroke="black" points="636.5,-58.5 636.5,-79.5 722.5,-79.5 722.5,-58.5 636.5,-58.5"/>
<text text-anchor="middle" x="679.5" y="-65.9" font-family="DejaVuSans" font-size="12.00">tex_header.h</text>
</a>
</g>
</g>
<!-- Node1&#45;&gt;Node9 -->
<g id="edge11" class="edge">
<title>Node1&#45;&gt;Node9</title>
<path fill="none" stroke="midnightblue" d="M340.98,-120.27C405.84,-112.25 525.74,-96.78 627.5,-80 630.4,-79.52 633.39,-79.01 636.4,-78.47"/>
<polygon fill="midnightblue" stroke="midnightblue" points="340.16,-116.84 330.67,-121.54 341.02,-123.79 340.16,-116.84"/>
</g>
<!-- Node3&#45;&gt;Node4 -->
<g id="edge3" class="edge">
<title>Node3&#45;&gt;Node4</title>
<path fill="none" stroke="midnightblue" d="M134.23,-53.32C152.45,-43.32 176.06,-30.36 191.94,-21.64"/>
<polygon fill="midnightblue" stroke="midnightblue" points="132.35,-50.36 125.27,-58.25 135.72,-56.5 132.35,-50.36"/>
</g>
<!-- Node5&#45;&gt;Node4 -->
<g id="edge5" class="edge">
<title>Node5&#45;&gt;Node4</title>
<path fill="none" stroke="midnightblue" d="M233.02,-49.63C227.18,-40.29 220.32,-29.32 215.53,-21.64"/>
<polygon fill="midnightblue" stroke="midnightblue" points="230.14,-51.62 238.4,-58.25 236.07,-47.91 230.14,-51.62"/>
</g>
<!-- Node7&#45;&gt;Node4 -->
<g id="edge8" class="edge">
<title>Node7&#45;&gt;Node4</title>
<path fill="none" stroke="midnightblue" d="M401.18,-56.17C354.97,-45.52 288.15,-30.12 246.84,-20.6"/>
<polygon fill="midnightblue" stroke="midnightblue" points="400.47,-59.6 411,-58.44 402.04,-52.78 400.47,-59.6"/>
</g>
<!-- Node10 -->
<g id="node10" class="node">
<title>Node10</title>
<g id="a_node10"><a xlink:href="tex_8c.html" target="_top" xlink:title=" ">
<polygon fill="white" stroke="black" points="659,-0.5 659,-21.5 700,-21.5 700,-0.5 659,-0.5"/>
<text text-anchor="middle" x="679.5" y="-7.9" font-family="DejaVuSans" font-size="12.00">tex.c</text>
</a>
</g>
</g>
<!-- Node9&#45;&gt;Node10 -->
<g id="edge12" class="edge">
<title>Node9&#45;&gt;Node10</title>
<path fill="none" stroke="midnightblue" d="M679.5,-48.16C679.5,-39.16 679.5,-28.92 679.5,-21.64"/>
<polygon fill="midnightblue" stroke="midnightblue" points="676,-48.25 679.5,-58.25 683,-48.25 676,-48.25"/>
</g>
</g>
</svg>
