<?xml version="1.0" encoding="UTF-8" standalone="no"?>
<!DOCTYPE svg PUBLIC "-//W3C//DTD SVG 1.1//EN"
 "http://www.w3.org/Graphics/SVG/1.1/DTD/svg11.dtd">
<!-- Generated by graphviz version 2.44.0 ()
 -->
<!-- Title: main_ctrl.h Pages: 1 -->
<svg width="1401pt" height="610pt"
 viewBox="0.00 0.00 1401.00 610.00" xmlns="http://www.w3.org/2000/svg" xmlns:xlink="http://www.w3.org/1999/xlink">
<g id="graph0" class="graph" transform="scale(1 1) rotate(0) translate(4 606)">
<title>main_ctrl.h</title>
<polygon fill="white" stroke="transparent" points="-4,4 -4,-606 1397,-606 1397,4 -4,4"/>
<!-- Node1 -->
<g id="node1" class="node">
<title>Node1</title>
<g id="a_node1"><a xlink:title=" ">
<polygon fill="#bfbfbf" stroke="black" points="631,-580.5 631,-601.5 705,-601.5 705,-580.5 631,-580.5"/>
<text text-anchor="middle" x="668" y="-587.9" font-family="DejaVuSans" font-size="12.00">main_ctrl.h</text>
</a>
</g>
</g>
<!-- Node2 -->
<g id="node2" class="node">
<title>Node2</title>
<g id="a_node2"><a xlink:title=" ">
<polygon fill="white" stroke="#bfbfbf" points="0,-522.5 0,-543.5 54,-543.5 54,-522.5 0,-522.5"/>
<text text-anchor="middle" x="27" y="-529.9" font-family="DejaVuSans" font-size="12.00">stdlib.h</text>
</a>
</g>
</g>
<!-- Node1&#45;&gt;Node2 -->
<g id="edge1" class="edge">
<title>Node1&#45;&gt;Node2</title>
<path fill="none" stroke="midnightblue" d="M630.86,-589.69C537.15,-588.36 283.54,-581.47 64.47,-543.95"/>
<polygon fill="midnightblue" stroke="midnightblue" points="64.84,-540.47 54.39,-542.2 63.64,-547.36 64.84,-540.47"/>
</g>
<!-- Node3 -->
<g id="node3" class="node">
<title>Node3</title>
<g id="a_node3"><a xlink:title=" ">
<polygon fill="white" stroke="#bfbfbf" points="72.5,-522.5 72.5,-543.5 125.5,-543.5 125.5,-522.5 72.5,-522.5"/>
<text text-anchor="middle" x="99" y="-529.9" font-family="DejaVuSans" font-size="12.00">math.h</text>
</a>
</g>
</g>
<!-- Node1&#45;&gt;Node3 -->
<g id="edge2" class="edge">
<title>Node1&#45;&gt;Node3</title>
<path fill="none" stroke="midnightblue" d="M630.95,-588.71C544.46,-585.29 322.72,-574.06 140,-544 138.55,-543.76 137.08,-543.5 135.6,-543.22"/>
<polygon fill="midnightblue" stroke="midnightblue" points="136.29,-539.79 125.79,-541.15 134.85,-546.64 136.29,-539.79"/>
</g>
<!-- Node4 -->
<g id="node4" class="node">
<title>Node4</title>
<g id="a_node4"><a xlink:href="tex__types_8h.html" target="_top" xlink:title=" ">
<polygon fill="white" stroke="black" points="375.5,-58.5 375.5,-79.5 452.5,-79.5 452.5,-58.5 375.5,-58.5"/>
<text text-anchor="middle" x="414" y="-65.9" font-family="DejaVuSans" font-size="12.00">tex_types.h</text>
</a>
</g>
</g>
<!-- Node1&#45;&gt;Node4 -->
<g id="edge3" class="edge">
<title>Node1&#45;&gt;Node4</title>
<path fill="none" stroke="midnightblue" d="M705.15,-589.2C837.74,-586.09 1282.8,-573.55 1339,-544 1373.16,-526.04 1393,-514.59 1393,-476 1393,-476 1393,-476 1393,-184 1393,-89.28 660.66,-73.13 462.78,-70.49"/>
<polygon fill="midnightblue" stroke="midnightblue" points="462.72,-66.99 452.68,-70.36 462.63,-73.99 462.72,-66.99"/>
</g>
<!-- Node7 -->
<g id="node7" class="node">
<title>Node7</title>
<g id="a_node7"><a xlink:href="tex__constant_8h.html" target="_top" xlink:title=" ">
<polygon fill="white" stroke="black" points="482,-290.5 482,-311.5 576,-311.5 576,-290.5 482,-290.5"/>
<text text-anchor="middle" x="529" y="-297.9" font-family="DejaVuSans" font-size="12.00">tex_constant.h</text>
</a>
</g>
</g>
<!-- Node1&#45;&gt;Node7 -->
<g id="edge6" class="edge">
<title>Node1&#45;&gt;Node7</title>
<path fill="none" stroke="midnightblue" d="M630.84,-588.98C562.32,-586.31 419.87,-576.86 385,-544 339.58,-501.2 328.48,-460.44 359,-406 385.86,-358.08 444.79,-329.6 485.68,-314.87"/>
<polygon fill="midnightblue" stroke="midnightblue" points="486.84,-318.18 495.14,-311.59 484.55,-311.56 486.84,-318.18"/>
</g>
<!-- Node9 -->
<g id="node9" class="node">
<title>Node9</title>
<g id="a_node9"><a xlink:href="str_8h.html" target="_top" xlink:title=" ">
<polygon fill="white" stroke="black" points="836.5,-174.5 836.5,-195.5 875.5,-195.5 875.5,-174.5 836.5,-174.5"/>
<text text-anchor="middle" x="856" y="-181.9" font-family="DejaVuSans" font-size="12.00">str.h</text>
</a>
</g>
</g>
<!-- Node1&#45;&gt;Node9 -->
<g id="edge32" class="edge">
<title>Node1&#45;&gt;Node9</title>
<path fill="none" stroke="midnightblue" d="M705.29,-590.25C837.2,-590.74 1276.11,-588.95 1318,-544 1471.92,-378.8 1009.22,-230.31 885.55,-194.29"/>
<polygon fill="midnightblue" stroke="midnightblue" points="886.2,-190.84 875.62,-191.43 884.26,-197.57 886.2,-190.84"/>
</g>
<!-- Node14 -->
<g id="node14" class="node">
<title>Node14</title>
<g id="a_node14"><a xlink:href="texmath_8h.html" target="_top" xlink:title=" ">
<polygon fill="white" stroke="black" points="278,-174.5 278,-195.5 346,-195.5 346,-174.5 278,-174.5"/>
<text text-anchor="middle" x="312" y="-181.9" font-family="DejaVuSans" font-size="12.00">texmath.h</text>
</a>
</g>
</g>
<!-- Node1&#45;&gt;Node14 -->
<g id="edge40" class="edge">
<title>Node1&#45;&gt;Node14</title>
<path fill="none" stroke="midnightblue" d="M630.87,-589.06C538.5,-586.25 300.62,-576.02 229,-544 187.92,-525.63 154,-520.99 154,-476 154,-476 154,-476 154,-416 154,-333.28 129.29,-295.75 182,-232 202.92,-206.69 238.74,-195.3 267.49,-190.17"/>
<polygon fill="midnightblue" stroke="midnightblue" points="268.39,-193.58 277.72,-188.56 267.3,-186.66 268.39,-193.58"/>
</g>
<!-- Node15 -->
<g id="node15" class="node">
<title>Node15</title>
<g id="a_node15"><a xlink:href="texfunc_8h.html" target="_top" xlink:title=" ">
<polygon fill="white" stroke="black" points="271.5,-232.5 271.5,-253.5 336.5,-253.5 336.5,-232.5 271.5,-232.5"/>
<text text-anchor="middle" x="304" y="-239.9" font-family="DejaVuSans" font-size="12.00">texfunc.h</text>
</a>
</g>
</g>
<!-- Node1&#45;&gt;Node15 -->
<g id="edge19" class="edge">
<title>Node1&#45;&gt;Node15</title>
<path fill="none" stroke="midnightblue" d="M630.76,-587.64C559.5,-582.61 406.82,-569.17 361,-544 325.93,-524.73 302,-516.01 302,-476 302,-476 302,-476 302,-358 302,-324.98 302.85,-286.59 303.44,-263.84"/>
<polygon fill="midnightblue" stroke="midnightblue" points="306.94,-263.85 303.71,-253.76 299.94,-263.66 306.94,-263.85"/>
</g>
<!-- Node16 -->
<g id="node16" class="node">
<title>Node16</title>
<g id="a_node16"><a xlink:href="fonts_8h.html" target="_top" xlink:title=" ">
<polygon fill="white" stroke="black" points="961,-348.5 961,-369.5 1013,-369.5 1013,-348.5 961,-348.5"/>
<text text-anchor="middle" x="987" y="-355.9" font-family="DejaVuSans" font-size="12.00">fonts.h</text>
</a>
</g>
</g>
<!-- Node1&#45;&gt;Node16 -->
<g id="edge22" class="edge">
<title>Node1&#45;&gt;Node16</title>
<path fill="none" stroke="midnightblue" d="M705.03,-590.16C833.97,-590.32 1257.54,-587.52 1298,-544 1387.42,-447.81 1122.63,-385.9 1023.14,-366.52"/>
<polygon fill="midnightblue" stroke="midnightblue" points="1023.7,-363.07 1013.22,-364.63 1022.38,-369.94 1023.7,-363.07"/>
</g>
<!-- Node17 -->
<g id="node17" class="node">
<title>Node17</title>
<g id="a_node17"><a xlink:href="macros_8h.html" target="_top" xlink:title=" ">
<polygon fill="white" stroke="black" points="924.5,-290.5 924.5,-311.5 989.5,-311.5 989.5,-290.5 924.5,-290.5"/>
<text text-anchor="middle" x="957" y="-297.9" font-family="DejaVuSans" font-size="12.00">macros.h</text>
</a>
</g>
</g>
<!-- Node1&#45;&gt;Node17 -->
<g id="edge60" class="edge">
<title>Node1&#45;&gt;Node17</title>
<path fill="none" stroke="midnightblue" d="M665.71,-580.43C659.14,-550.28 643.46,-456.3 690,-406 740.97,-350.9 785.91,-399.33 855,-370 886.23,-356.74 918.12,-333.63 937.73,-318.08"/>
<polygon fill="midnightblue" stroke="midnightblue" points="940.02,-320.73 945.59,-311.72 935.62,-315.29 940.02,-320.73"/>
</g>
<!-- Node18 -->
<g id="node18" class="node">
<title>Node18</title>
<g id="a_node18"><a xlink:href="io_8h.html" target="_top" xlink:title=" ">
<polygon fill="white" stroke="black" points="810,-348.5 810,-369.5 846,-369.5 846,-348.5 810,-348.5"/>
<text text-anchor="middle" x="828" y="-355.9" font-family="DejaVuSans" font-size="12.00">io.h</text>
</a>
</g>
</g>
<!-- Node1&#45;&gt;Node18 -->
<g id="edge28" class="edge">
<title>Node1&#45;&gt;Node18</title>
<path fill="none" stroke="midnightblue" d="M705.06,-584.71C733.25,-578.97 771.42,-567.3 797,-544 839.04,-505.7 838.71,-483.52 851,-428 853.11,-418.45 853.25,-415.52 851,-406 848.73,-396.38 844.12,-386.48 839.62,-378.34"/>
<polygon fill="midnightblue" stroke="midnightblue" points="842.63,-376.55 834.54,-369.72 836.6,-380.11 842.63,-376.55"/>
</g>
<!-- Node19 -->
<g id="node19" class="node">
<title>Node19</title>
<g id="a_node19"><a xlink:href="mem_8h.html" target="_top" xlink:title=" ">
<polygon fill="white" stroke="black" points="182.5,-348.5 182.5,-369.5 235.5,-369.5 235.5,-348.5 182.5,-348.5"/>
<text text-anchor="middle" x="209" y="-355.9" font-family="DejaVuSans" font-size="12.00">mem.h</text>
</a>
</g>
</g>
<!-- Node1&#45;&gt;Node19 -->
<g id="edge33" class="edge">
<title>Node1&#45;&gt;Node19</title>
<path fill="none" stroke="midnightblue" d="M630.66,-588.34C533.45,-583.69 278.11,-569.18 250,-544 202.95,-501.84 203.54,-418.65 206.68,-380.27"/>
<polygon fill="midnightblue" stroke="midnightblue" points="210.21,-380.18 207.69,-369.89 203.24,-379.51 210.21,-380.18"/>
</g>
<!-- Node20 -->
<g id="node20" class="node">
<title>Node20</title>
<g id="a_node20"><a xlink:href="global_8h.html" target="_top" xlink:title=" ">
<polygon fill="white" stroke="black" points="193,-290.5 193,-311.5 251,-311.5 251,-290.5 193,-290.5"/>
<text text-anchor="middle" x="222" y="-297.9" font-family="DejaVuSans" font-size="12.00">global.h</text>
</a>
</g>
</g>
<!-- Node1&#45;&gt;Node20 -->
<g id="edge53" class="edge">
<title>Node1&#45;&gt;Node20</title>
<path fill="none" stroke="midnightblue" d="M630.77,-590.33C545.66,-590.33 340.23,-585.89 288,-544 263,-523.95 264,-508.05 264,-476 264,-476 264,-476 264,-416 264,-380.52 245.86,-342.44 233.42,-320.5"/>
<polygon fill="midnightblue" stroke="midnightblue" points="236.29,-318.46 228.2,-311.62 230.26,-322.01 236.29,-318.46"/>
</g>
<!-- Node22 -->
<g id="node22" class="node">
<title>Node22</title>
<g id="a_node22"><a xlink:href="eqtb_8h.html" target="_top" xlink:title=" ">
<polygon fill="white" stroke="black" points="493,-348.5 493,-369.5 543,-369.5 543,-348.5 493,-348.5"/>
<text text-anchor="middle" x="518" y="-355.9" font-family="DejaVuSans" font-size="12.00">eqtb.h</text>
</a>
</g>
</g>
<!-- Node1&#45;&gt;Node22 -->
<g id="edge41" class="edge">
<title>Node1&#45;&gt;Node22</title>
<path fill="none" stroke="midnightblue" d="M630.77,-587.69C573.62,-581.79 467.44,-560.77 435,-486 416.4,-443.13 464.03,-398.82 494.61,-375.9"/>
<polygon fill="midnightblue" stroke="midnightblue" points="497.05,-378.46 503.09,-369.76 492.94,-372.79 497.05,-378.46"/>
</g>
<!-- Node23 -->
<g id="node23" class="node">
<title>Node23</title>
<g id="a_node23"><a xlink:href="page_8h.html" target="_top" xlink:title=" ">
<polygon fill="white" stroke="black" points="1058.5,-464.5 1058.5,-485.5 1111.5,-485.5 1111.5,-464.5 1058.5,-464.5"/>
<text text-anchor="middle" x="1085" y="-471.9" font-family="DejaVuSans" font-size="12.00">page.h</text>
</a>
</g>
</g>
<!-- Node1&#45;&gt;Node23 -->
<g id="edge44" class="edge">
<title>Node1&#45;&gt;Node23</title>
<path fill="none" stroke="midnightblue" d="M705.14,-590.62C792.72,-591.32 1008.88,-588.38 1063,-544 1077.21,-532.35 1082.34,-511.43 1084.14,-495.86"/>
<polygon fill="midnightblue" stroke="midnightblue" points="1087.65,-495.92 1084.95,-485.68 1080.67,-495.37 1087.65,-495.92"/>
</g>
<!-- Node24 -->
<g id="node24" class="node">
<title>Node24</title>
<g id="a_node24"><a xlink:href="lexer_8h.html" target="_top" xlink:title=" ">
<polygon fill="white" stroke="black" points="1004,-406.5 1004,-427.5 1056,-427.5 1056,-406.5 1004,-406.5"/>
<text text-anchor="middle" x="1030" y="-413.9" font-family="DejaVuSans" font-size="12.00">lexer.h</text>
</a>
</g>
</g>
<!-- Node1&#45;&gt;Node24 -->
<g id="edge51" class="edge">
<title>Node1&#45;&gt;Node24</title>
<path fill="none" stroke="midnightblue" d="M705.07,-588.02C793.04,-582.95 1008.72,-568.15 1030,-544 1055.91,-514.58 1045.55,-464.61 1036.99,-437.27"/>
<polygon fill="midnightblue" stroke="midnightblue" points="1040.28,-436.05 1033.77,-427.68 1033.64,-438.28 1040.28,-436.05"/>
</g>
<!-- Node26 -->
<g id="node26" class="node">
<title>Node26</title>
<g id="a_node26"><a xlink:href="error_8h.html" target="_top" xlink:title=" ">
<polygon fill="white" stroke="black" points="715.5,-522.5 715.5,-543.5 766.5,-543.5 766.5,-522.5 715.5,-522.5"/>
<text text-anchor="middle" x="741" y="-529.9" font-family="DejaVuSans" font-size="12.00">error.h</text>
</a>
</g>
</g>
<!-- Node1&#45;&gt;Node26 -->
<g id="edge52" class="edge">
<title>Node1&#45;&gt;Node26</title>
<path fill="none" stroke="midnightblue" d="M680.72,-580.25C691.6,-571.89 707.49,-559.71 720.22,-549.94"/>
<polygon fill="midnightblue" stroke="midnightblue" points="722.63,-552.51 728.43,-543.64 718.37,-546.95 722.63,-552.51"/>
</g>
<!-- Node27 -->
<g id="node27" class="node">
<title>Node27</title>
<g id="a_node27"><a xlink:href="hyphen_8h.html" target="_top" xlink:title=" ">
<polygon fill="white" stroke="black" points="776,-406.5 776,-427.5 842,-427.5 842,-406.5 776,-406.5"/>
<text text-anchor="middle" x="809" y="-413.9" font-family="DejaVuSans" font-size="12.00">hyphen.h</text>
</a>
</g>
</g>
<!-- Node1&#45;&gt;Node27 -->
<g id="edge54" class="edge">
<title>Node1&#45;&gt;Node27</title>
<path fill="none" stroke="midnightblue" d="M705.22,-581.94C728.24,-575.24 756.93,-563.55 776,-544 804.17,-515.12 809.1,-465.29 809.51,-437.74"/>
<polygon fill="midnightblue" stroke="midnightblue" points="813.01,-437.72 809.46,-427.74 806.01,-437.75 813.01,-437.72"/>
</g>
<!-- Node28 -->
<g id="node28" class="node">
<title>Node28</title>
<g id="a_node28"><a xlink:href="expand_8h.html" target="_top" xlink:title=" ">
<polygon fill="white" stroke="black" points="444,-464.5 444,-485.5 510,-485.5 510,-464.5 444,-464.5"/>
<text text-anchor="middle" x="477" y="-471.9" font-family="DejaVuSans" font-size="12.00">expand.h</text>
</a>
</g>
</g>
<!-- Node1&#45;&gt;Node28 -->
<g id="edge61" class="edge">
<title>Node1&#45;&gt;Node28</title>
<path fill="none" stroke="midnightblue" d="M630.95,-585.57C599.12,-580.2 553.36,-568.59 521,-544 504.45,-531.42 492.33,-510.68 485.06,-495.41"/>
<polygon fill="midnightblue" stroke="midnightblue" points="488.07,-493.58 480.8,-485.88 481.68,-496.44 488.07,-493.58"/>
</g>
<!-- Node29 -->
<g id="node29" class="node">
<title>Node29</title>
<g id="a_node29"><a xlink:href="linebreak_8h.html" target="_top" xlink:title=" ">
<polygon fill="white" stroke="black" points="861.5,-522.5 861.5,-543.5 936.5,-543.5 936.5,-522.5 861.5,-522.5"/>
<text text-anchor="middle" x="899" y="-529.9" font-family="DejaVuSans" font-size="12.00">linebreak.h</text>
</a>
</g>
</g>
<!-- Node1&#45;&gt;Node29 -->
<g id="edge63" class="edge">
<title>Node1&#45;&gt;Node29</title>
<path fill="none" stroke="midnightblue" d="M705.11,-581C744.87,-571.36 808.08,-556.04 851.46,-545.53"/>
<polygon fill="midnightblue" stroke="midnightblue" points="852.32,-548.92 861.21,-543.16 850.67,-542.12 852.32,-548.92"/>
</g>
<!-- Node30 -->
<g id="node30" class="node">
<title>Node30</title>
<g id="a_node30"><a xlink:href="printout_8h.html" target="_top" xlink:title=" ">
<polygon fill="white" stroke="black" points="955,-522.5 955,-543.5 1021,-543.5 1021,-522.5 955,-522.5"/>
<text text-anchor="middle" x="988" y="-529.9" font-family="DejaVuSans" font-size="12.00">printout.h</text>
</a>
</g>
</g>
<!-- Node1&#45;&gt;Node30 -->
<g id="edge64" class="edge">
<title>Node1&#45;&gt;Node30</title>
<path fill="none" stroke="midnightblue" d="M705.02,-584.71C756.57,-577.17 853.07,-562.39 944.59,-544.18"/>
<polygon fill="midnightblue" stroke="midnightblue" points="945.46,-547.58 954.58,-542.18 944.08,-540.72 945.46,-547.58"/>
</g>
<!-- Node31 -->
<g id="node31" class="node">
<title>Node31</title>
<g id="a_node31"><a xlink:href="align_8h.html" target="_top" xlink:title=" ">
<polygon fill="white" stroke="black" points="566,-464.5 566,-485.5 618,-485.5 618,-464.5 566,-464.5"/>
<text text-anchor="middle" x="592" y="-471.9" font-family="DejaVuSans" font-size="12.00">align.h</text>
</a>
</g>
</g>
<!-- Node1&#45;&gt;Node31 -->
<g id="edge65" class="edge">
<title>Node1&#45;&gt;Node31</title>
<path fill="none" stroke="midnightblue" d="M642.53,-580.48C626.58,-573.1 607.18,-561.19 597,-544 588.43,-529.53 587.83,-510.19 589,-495.83"/>
<polygon fill="midnightblue" stroke="midnightblue" points="592.51,-495.91 590.19,-485.57 585.56,-495.1 592.51,-495.91"/>
</g>
<!-- Node32 -->
<g id="node32" class="node">
<title>Node32</title>
<g id="a_node32"><a xlink:href="dviout_8h.html" target="_top" xlink:title=" ">
<polygon fill="white" stroke="black" points="698.5,-406.5 698.5,-427.5 757.5,-427.5 757.5,-406.5 698.5,-406.5"/>
<text text-anchor="middle" x="728" y="-413.9" font-family="DejaVuSans" font-size="12.00">dviout.h</text>
</a>
</g>
</g>
<!-- Node1&#45;&gt;Node32 -->
<g id="edge68" class="edge">
<title>Node1&#45;&gt;Node32</title>
<path fill="none" stroke="midnightblue" d="M669.91,-580.27C674.31,-558.79 686.06,-505.88 703,-464 706.82,-454.55 712.09,-444.56 716.81,-436.3"/>
<polygon fill="midnightblue" stroke="midnightblue" points="719.9,-437.95 721.97,-427.56 713.87,-434.39 719.9,-437.95"/>
</g>
<!-- Node33 -->
<g id="node33" class="node">
<title>Node33</title>
<g id="a_node33"><a xlink:href="mmode_8h.html" target="_top" xlink:title=" ">
<polygon fill="white" stroke="black" points="1153,-522.5 1153,-543.5 1219,-543.5 1219,-522.5 1153,-522.5"/>
<text text-anchor="middle" x="1186" y="-529.9" font-family="DejaVuSans" font-size="12.00">mmode.h</text>
</a>
</g>
</g>
<!-- Node1&#45;&gt;Node33 -->
<g id="edge71" class="edge">
<title>Node1&#45;&gt;Node33</title>
<path fill="none" stroke="midnightblue" d="M705.12,-587.8C784.89,-582.75 978.44,-568.84 1139,-544 1140.28,-543.8 1141.57,-543.59 1142.87,-543.37"/>
<polygon fill="midnightblue" stroke="midnightblue" points="1143.76,-546.77 1152.96,-541.52 1142.49,-539.88 1143.76,-546.77"/>
</g>
<!-- Node34 -->
<g id="node34" class="node">
<title>Node34</title>
<g id="a_node34"><a xlink:href="scan_8h.html" target="_top" xlink:title=" ">
<polygon fill="white" stroke="black" points="1130,-464.5 1130,-485.5 1182,-485.5 1182,-464.5 1130,-464.5"/>
<text text-anchor="middle" x="1156" y="-471.9" font-family="DejaVuSans" font-size="12.00">scan.h</text>
</a>
</g>
</g>
<!-- Node1&#45;&gt;Node34 -->
<g id="edge89" class="edge">
<title>Node1&#45;&gt;Node34</title>
<path fill="none" stroke="midnightblue" d="M705.17,-588.9C794.16,-585.78 1016.99,-575.02 1084,-544 1108.22,-532.79 1129.55,-510.17 1142.58,-494.1"/>
<polygon fill="midnightblue" stroke="midnightblue" points="1145.54,-495.99 1148.93,-485.96 1140.02,-491.69 1145.54,-495.99"/>
</g>
<!-- Node35 -->
<g id="node35" class="node">
<title>Node35</title>
<g id="a_node35"><a xlink:href="pack_8h.html" target="_top" xlink:title=" ">
<polygon fill="white" stroke="black" points="1237,-522.5 1237,-543.5 1289,-543.5 1289,-522.5 1237,-522.5"/>
<text text-anchor="middle" x="1263" y="-529.9" font-family="DejaVuSans" font-size="12.00">pack.h</text>
</a>
</g>
</g>
<!-- Node1&#45;&gt;Node35 -->
<g id="edge76" class="edge">
<title>Node1&#45;&gt;Node35</title>
<path fill="none" stroke="midnightblue" d="M705.02,-589.46C793.75,-587.64 1025.55,-579.74 1226.89,-543.88"/>
<polygon fill="midnightblue" stroke="midnightblue" points="1227.54,-547.32 1236.76,-542.1 1226.29,-540.43 1227.54,-547.32"/>
</g>
<!-- Node36 -->
<g id="node36" class="node">
<title>Node36</title>
<g id="a_node36"><a xlink:href="print_8h.html" target="_top" xlink:title=" ">
<polygon fill="white" stroke="black" points="368,-406.5 368,-427.5 418,-427.5 418,-406.5 368,-406.5"/>
<text text-anchor="middle" x="393" y="-413.9" font-family="DejaVuSans" font-size="12.00">print.h</text>
</a>
</g>
</g>
<!-- Node1&#45;&gt;Node36 -->
<g id="edge77" class="edge">
<title>Node1&#45;&gt;Node36</title>
<path fill="none" stroke="midnightblue" d="M630.81,-589.02C564.97,-586.44 431.99,-577.15 402,-544 375.75,-514.98 381.72,-465.21 387.75,-437.71"/>
<polygon fill="midnightblue" stroke="midnightblue" points="391.21,-438.26 390.16,-427.72 384.41,-436.62 391.21,-438.26"/>
</g>
<!-- Node37 -->
<g id="node37" class="node">
<title>Node37</title>
<g id="a_node37"><a xlink:href="hash_8h.html" target="_top" xlink:title=" ">
<polygon fill="white" stroke="black" points="588.5,-406.5 588.5,-427.5 641.5,-427.5 641.5,-406.5 588.5,-406.5"/>
<text text-anchor="middle" x="615" y="-413.9" font-family="DejaVuSans" font-size="12.00">hash.h</text>
</a>
</g>
</g>
<!-- Node1&#45;&gt;Node37 -->
<g id="edge83" class="edge">
<title>Node1&#45;&gt;Node37</title>
<path fill="none" stroke="midnightblue" d="M641.69,-580.39C623.85,-572.77 600.73,-560.64 585,-544 565.34,-523.2 563.38,-513.9 557,-486 554.82,-476.47 552.75,-472.8 557,-464 563.28,-451 575.22,-440.55 586.65,-432.91"/>
<polygon fill="midnightblue" stroke="midnightblue" points="588.52,-435.87 595.18,-427.63 584.83,-429.92 588.52,-435.87"/>
</g>
<!-- Node38 -->
<g id="node38" class="node">
<title>Node38</title>
<g id="a_node38"><a xlink:href="extension_8h.html" target="_top" xlink:title=" ">
<polygon fill="white" stroke="black" points="712,-464.5 712,-485.5 790,-485.5 790,-464.5 712,-464.5"/>
<text text-anchor="middle" x="751" y="-471.9" font-family="DejaVuSans" font-size="12.00">extension.h</text>
</a>
</g>
</g>
<!-- Node1&#45;&gt;Node38 -->
<g id="edge90" class="edge">
<title>Node1&#45;&gt;Node38</title>
<path fill="none" stroke="midnightblue" d="M672.62,-580.31C679.31,-566.7 692.5,-541.4 707,-522 714.8,-511.56 724.75,-500.98 733.21,-492.6"/>
<polygon fill="midnightblue" stroke="midnightblue" points="735.71,-495.06 740.46,-485.6 730.84,-490.03 735.71,-495.06"/>
</g>
<!-- Node5 -->
<g id="node5" class="node">
<title>Node5</title>
<g id="a_node5"><a xlink:title=" ">
<polygon fill="white" stroke="#bfbfbf" points="381.5,-0.5 381.5,-21.5 446.5,-21.5 446.5,-0.5 381.5,-0.5"/>
<text text-anchor="middle" x="414" y="-7.9" font-family="DejaVuSans" font-size="12.00">stdbool.h</text>
</a>
</g>
</g>
<!-- Node4&#45;&gt;Node5 -->
<g id="edge4" class="edge">
<title>Node4&#45;&gt;Node5</title>
<path fill="none" stroke="midnightblue" d="M414,-58.25C414,-50.94 414,-40.69 414,-31.7"/>
<polygon fill="midnightblue" stroke="midnightblue" points="417.5,-31.64 414,-21.64 410.5,-31.64 417.5,-31.64"/>
</g>
<!-- Node6 -->
<g id="node6" class="node">
<title>Node6</title>
<g id="a_node6"><a xlink:title=" ">
<polygon fill="white" stroke="#bfbfbf" points="620.5,-0.5 620.5,-21.5 675.5,-21.5 675.5,-0.5 620.5,-0.5"/>
<text text-anchor="middle" x="648" y="-7.9" font-family="DejaVuSans" font-size="12.00">stdint.h</text>
</a>
</g>
</g>
<!-- Node4&#45;&gt;Node6 -->
<g id="edge5" class="edge">
<title>Node4&#45;&gt;Node6</title>
<path fill="none" stroke="midnightblue" d="M452.64,-58.75C496.38,-48.28 567.17,-31.34 610.46,-20.98"/>
<polygon fill="midnightblue" stroke="midnightblue" points="611.4,-24.36 620.31,-18.63 609.77,-17.55 611.4,-24.36"/>
</g>
<!-- Node8 -->
<g id="node8" class="node">
<title>Node8</title>
<g id="a_node8"><a xlink:href="box_8h.html" target="_top" xlink:title=" ">
<polygon fill="white" stroke="black" points="480,-232.5 480,-253.5 526,-253.5 526,-232.5 480,-232.5"/>
<text text-anchor="middle" x="503" y="-239.9" font-family="DejaVuSans" font-size="12.00">box.h</text>
</a>
</g>
</g>
<!-- Node7&#45;&gt;Node8 -->
<g id="edge7" class="edge">
<title>Node7&#45;&gt;Node8</title>
<path fill="none" stroke="midnightblue" d="M524.47,-290.25C520.97,-282.7 516.01,-272.02 511.74,-262.82"/>
<polygon fill="midnightblue" stroke="midnightblue" points="514.86,-261.24 507.48,-253.64 508.51,-264.19 514.86,-261.24"/>
</g>
<!-- Node8&#45;&gt;Node9 -->
<g id="edge8" class="edge">
<title>Node8&#45;&gt;Node9</title>
<path fill="none" stroke="midnightblue" d="M526.16,-238.33C588.04,-228.51 757.18,-201.68 826.14,-190.74"/>
<polygon fill="midnightblue" stroke="midnightblue" points="826.98,-194.15 836.31,-189.12 825.89,-187.23 826.98,-194.15"/>
</g>
<!-- Node8&#45;&gt;Node14 -->
<g id="edge17" class="edge">
<title>Node8&#45;&gt;Node14</title>
<path fill="none" stroke="midnightblue" d="M479.96,-235.25C448.99,-226.17 393.37,-209.86 354.65,-198.51"/>
<polygon fill="midnightblue" stroke="midnightblue" points="355.29,-195.04 344.71,-195.59 353.32,-201.76 355.29,-195.04"/>
</g>
<!-- Node9&#45;&gt;Node4 -->
<g id="edge16" class="edge">
<title>Node9&#45;&gt;Node4</title>
<path fill="none" stroke="midnightblue" d="M836.35,-174.8C804.58,-160.28 739.65,-132.03 682,-116 606.8,-95.08 516.94,-82 462.73,-75.35"/>
<polygon fill="midnightblue" stroke="midnightblue" points="463.05,-71.87 452.71,-74.15 462.22,-78.82 463.05,-71.87"/>
</g>
<!-- Node9&#45;&gt;Node6 -->
<g id="edge10" class="edge">
<title>Node9&#45;&gt;Node6</title>
<path fill="none" stroke="midnightblue" d="M844.22,-174.26C809.97,-145.94 710.15,-63.39 667.59,-28.2"/>
<polygon fill="midnightblue" stroke="midnightblue" points="669.59,-25.31 659.65,-21.63 665.13,-30.7 669.59,-25.31"/>
</g>
<!-- Node10 -->
<g id="node10" class="node">
<title>Node10</title>
<g id="a_node10"><a xlink:title=" ">
<polygon fill="white" stroke="#bfbfbf" points="842,-58.5 842,-79.5 894,-79.5 894,-58.5 842,-58.5"/>
<text text-anchor="middle" x="868" y="-65.9" font-family="DejaVuSans" font-size="12.00">stdio.h</text>
</a>
</g>
</g>
<!-- Node9&#45;&gt;Node10 -->
<g id="edge9" class="edge">
<title>Node9&#45;&gt;Node10</title>
<path fill="none" stroke="midnightblue" d="M857.02,-174.28C858.99,-155.6 863.33,-114.37 865.92,-89.72"/>
<polygon fill="midnightblue" stroke="midnightblue" points="869.41,-90.01 866.98,-79.69 862.45,-89.27 869.41,-90.01"/>
</g>
<!-- Node11 -->
<g id="node11" class="node">
<title>Node11</title>
<g id="a_node11"><a xlink:href="global__const_8h.html" target="_top" xlink:title=" ">
<polygon fill="white" stroke="black" points="893.5,-116.5 893.5,-137.5 986.5,-137.5 986.5,-116.5 893.5,-116.5"/>
<text text-anchor="middle" x="940" y="-123.9" font-family="DejaVuSans" font-size="12.00">global_const.h</text>
</a>
</g>
</g>
<!-- Node9&#45;&gt;Node11 -->
<g id="edge11" class="edge">
<title>Node9&#45;&gt;Node11</title>
<path fill="none" stroke="midnightblue" d="M870.63,-174.25C883.4,-165.73 902.14,-153.24 916.93,-143.38"/>
<polygon fill="midnightblue" stroke="midnightblue" points="919.16,-146.1 925.54,-137.64 915.27,-140.28 919.16,-146.1"/>
</g>
<!-- Node13 -->
<g id="node13" class="node">
<title>Node13</title>
<g id="a_node13"><a xlink:href="charset_8h.html" target="_top" xlink:title=" ">
<polygon fill="white" stroke="black" points="607.5,-116.5 607.5,-137.5 672.5,-137.5 672.5,-116.5 607.5,-116.5"/>
<text text-anchor="middle" x="640" y="-123.9" font-family="DejaVuSans" font-size="12.00">charset.h</text>
</a>
</g>
</g>
<!-- Node9&#45;&gt;Node13 -->
<g id="edge14" class="edge">
<title>Node9&#45;&gt;Node13</title>
<path fill="none" stroke="midnightblue" d="M836.26,-178.05C831.59,-176.69 826.63,-175.27 822,-174 774.44,-161 719.54,-147.3 682.58,-138.27"/>
<polygon fill="midnightblue" stroke="midnightblue" points="683.19,-134.82 672.65,-135.85 681.53,-141.62 683.19,-134.82"/>
</g>
<!-- Node11&#45;&gt;Node10 -->
<g id="edge13" class="edge">
<title>Node11&#45;&gt;Node10</title>
<path fill="none" stroke="midnightblue" d="M927.46,-116.25C916.72,-107.89 901.05,-95.71 888.5,-85.94"/>
<polygon fill="midnightblue" stroke="midnightblue" points="890.44,-83.02 880.4,-79.64 886.14,-88.54 890.44,-83.02"/>
</g>
<!-- Node12 -->
<g id="node12" class="node">
<title>Node12</title>
<g id="a_node12"><a xlink:title=" ">
<polygon fill="white" stroke="#bfbfbf" points="912.5,-58.5 912.5,-79.5 971.5,-79.5 971.5,-58.5 912.5,-58.5"/>
<text text-anchor="middle" x="942" y="-65.9" font-family="DejaVuSans" font-size="12.00">assert.h</text>
</a>
</g>
</g>
<!-- Node11&#45;&gt;Node12 -->
<g id="edge12" class="edge">
<title>Node11&#45;&gt;Node12</title>
<path fill="none" stroke="midnightblue" d="M940.35,-116.25C940.61,-108.94 940.98,-98.69 941.3,-89.7"/>
<polygon fill="midnightblue" stroke="midnightblue" points="944.8,-89.76 941.66,-79.64 937.8,-89.51 944.8,-89.76"/>
</g>
<!-- Node13&#45;&gt;Node4 -->
<g id="edge15" class="edge">
<title>Node13&#45;&gt;Node4</title>
<path fill="none" stroke="midnightblue" d="M607.14,-117.86C569.09,-108.43 506.07,-92.81 462.41,-82"/>
<polygon fill="midnightblue" stroke="midnightblue" points="463.13,-78.57 452.58,-79.56 461.45,-85.36 463.13,-78.57"/>
</g>
<!-- Node14&#45;&gt;Node4 -->
<g id="edge18" class="edge">
<title>Node14&#45;&gt;Node4</title>
<path fill="none" stroke="midnightblue" d="M317.82,-174.2C326.23,-160.45 342.66,-135 360,-116 369.86,-105.2 382.19,-94.52 392.58,-86.18"/>
<polygon fill="midnightblue" stroke="midnightblue" points="395.05,-88.69 400.75,-79.76 390.73,-83.18 395.05,-88.69"/>
</g>
<!-- Node15&#45;&gt;Node4 -->
<g id="edge20" class="edge">
<title>Node15&#45;&gt;Node4</title>
<path fill="none" stroke="midnightblue" d="M292.99,-232.43C279.38,-219.38 259.13,-195.18 269,-174 290.1,-128.69 342.19,-99.19 377.84,-83.56"/>
<polygon fill="midnightblue" stroke="midnightblue" points="379.56,-86.63 387.41,-79.52 376.84,-80.18 379.56,-86.63"/>
</g>
<!-- Node15&#45;&gt;Node9 -->
<g id="edge21" class="edge">
<title>Node15&#45;&gt;Node9</title>
<path fill="none" stroke="midnightblue" d="M336.88,-238.66C436.11,-228.6 731.57,-198.62 826.37,-189.01"/>
<polygon fill="midnightblue" stroke="midnightblue" points="826.82,-192.48 836.41,-187.99 826.11,-185.51 826.82,-192.48"/>
</g>
<!-- Node16&#45;&gt;Node7 -->
<g id="edge25" class="edge">
<title>Node16&#45;&gt;Node7</title>
<path fill="none" stroke="midnightblue" d="M960.73,-354.79C888.58,-345.97 686.13,-321.21 586.23,-309"/>
<polygon fill="midnightblue" stroke="midnightblue" points="586.37,-305.49 576.02,-307.75 585.52,-312.44 586.37,-305.49"/>
</g>
<!-- Node16&#45;&gt;Node9 -->
<g id="edge26" class="edge">
<title>Node16&#45;&gt;Node9</title>
<path fill="none" stroke="midnightblue" d="M992.36,-348.2C999.1,-334.46 1008.68,-309.02 999,-290 975.23,-243.32 919.6,-212.66 885.16,-197.4"/>
<polygon fill="midnightblue" stroke="midnightblue" points="886.2,-194.04 875.63,-193.34 883.45,-200.48 886.2,-194.04"/>
</g>
<!-- Node16&#45;&gt;Node10 -->
<g id="edge23" class="edge">
<title>Node16&#45;&gt;Node10</title>
<path fill="none" stroke="midnightblue" d="M1000.03,-348.31C1010.08,-339.96 1023.21,-326.92 1029,-312 1051.59,-253.76 1132.01,-275.33 996,-116 989.75,-108.67 939.47,-92 903.83,-80.87"/>
<polygon fill="midnightblue" stroke="midnightblue" points="904.8,-77.51 894.21,-77.89 902.73,-84.19 904.8,-77.51"/>
</g>
<!-- Node16&#45;&gt;Node11 -->
<g id="edge24" class="edge">
<title>Node16&#45;&gt;Node11</title>
<path fill="none" stroke="midnightblue" d="M995.21,-348.17C1002.01,-339.33 1011.16,-325.68 1015,-312 1017.64,-302.59 1017.1,-299.55 1015,-290 1002.78,-234.53 969.62,-175.45 951.76,-146.36"/>
<polygon fill="midnightblue" stroke="midnightblue" points="954.61,-144.32 946.34,-137.69 948.68,-148.03 954.61,-144.32"/>
</g>
<!-- Node16&#45;&gt;Node17 -->
<g id="edge27" class="edge">
<title>Node16&#45;&gt;Node17</title>
<path fill="none" stroke="midnightblue" d="M981.77,-348.25C977.69,-340.62 971.89,-329.79 966.93,-320.53"/>
<polygon fill="midnightblue" stroke="midnightblue" points="969.97,-318.8 962.17,-311.64 963.8,-322.11 969.97,-318.8"/>
</g>
<!-- Node18&#45;&gt;Node7 -->
<g id="edge29" class="edge">
<title>Node18&#45;&gt;Node7</title>
<path fill="none" stroke="midnightblue" d="M809.75,-354.58C766.27,-346.44 655.11,-325.62 586.42,-312.75"/>
<polygon fill="midnightblue" stroke="midnightblue" points="586.66,-309.24 576.19,-310.84 585.37,-316.12 586.66,-309.24"/>
</g>
<!-- Node18&#45;&gt;Node9 -->
<g id="edge31" class="edge">
<title>Node18&#45;&gt;Node9</title>
<path fill="none" stroke="midnightblue" d="M841.63,-348.45C852.15,-340.18 865.91,-327.18 872,-312 886.37,-276.19 873.62,-230.46 864.11,-205.1"/>
<polygon fill="midnightblue" stroke="midnightblue" points="867.27,-203.57 860.32,-195.57 860.76,-206.16 867.27,-203.57"/>
</g>
<!-- Node18&#45;&gt;Node13 -->
<g id="edge30" class="edge">
<title>Node18&#45;&gt;Node13</title>
<path fill="none" stroke="midnightblue" d="M827.15,-348.25C824.9,-326.29 817.42,-271.73 796,-232 779.43,-201.26 771.31,-194.44 743,-174 723.62,-160.01 699.31,-148.91 679.18,-141.12"/>
<polygon fill="midnightblue" stroke="midnightblue" points="680.26,-137.78 669.67,-137.56 677.81,-144.34 680.26,-137.78"/>
</g>
<!-- Node19&#45;&gt;Node4 -->
<g id="edge34" class="edge">
<title>Node19&#45;&gt;Node4</title>
<path fill="none" stroke="midnightblue" d="M184.9,-348.42C149.34,-332.51 87,-297.05 87,-244 87,-244 87,-244 87,-184 87,-125.82 273.9,-90.45 365.1,-76.66"/>
<polygon fill="midnightblue" stroke="midnightblue" points="365.83,-80.09 375.2,-75.16 364.8,-73.16 365.83,-80.09"/>
</g>
<!-- Node19&#45;&gt;Node7 -->
<g id="edge35" class="edge">
<title>Node19&#45;&gt;Node7</title>
<path fill="none" stroke="midnightblue" d="M235.73,-353.32C287.49,-344.26 402.4,-324.16 472.02,-311.97"/>
<polygon fill="midnightblue" stroke="midnightblue" points="472.71,-315.4 481.95,-310.23 471.5,-308.51 472.71,-315.4"/>
</g>
<!-- Node19&#45;&gt;Node20 -->
<g id="edge36" class="edge">
<title>Node19&#45;&gt;Node20</title>
<path fill="none" stroke="midnightblue" d="M211.26,-348.25C212.98,-340.86 215.39,-330.47 217.49,-321.41"/>
<polygon fill="midnightblue" stroke="midnightblue" points="220.91,-322.18 219.76,-311.64 214.09,-320.59 220.91,-322.18"/>
</g>
<!-- Node20&#45;&gt;Node4 -->
<g id="edge39" class="edge">
<title>Node20&#45;&gt;Node4</title>
<path fill="none" stroke="midnightblue" d="M209.58,-290.35C194.79,-277.58 173.12,-254.12 182,-232 208.58,-165.78 233.52,-155.42 293,-116 315.46,-101.12 343.41,-90.08 366.79,-82.56"/>
<polygon fill="midnightblue" stroke="midnightblue" points="367.99,-85.86 376.51,-79.55 365.92,-79.17 367.99,-85.86"/>
</g>
<!-- Node20&#45;&gt;Node10 -->
<g id="edge37" class="edge">
<title>Node20&#45;&gt;Node10</title>
<path fill="none" stroke="midnightblue" d="M251.29,-299.17C307.66,-296.82 434.56,-287.88 535,-254 661.35,-211.38 795.51,-121.55 846.58,-85.48"/>
<polygon fill="midnightblue" stroke="midnightblue" points="848.75,-88.23 854.87,-79.58 844.69,-82.53 848.75,-88.23"/>
</g>
<!-- Node21 -->
<g id="node21" class="node">
<title>Node21</title>
<g id="a_node21"><a xlink:title=" ">
<polygon fill="white" stroke="#bfbfbf" points="191,-232.5 191,-253.5 253,-253.5 253,-232.5 191,-232.5"/>
<text text-anchor="middle" x="222" y="-239.9" font-family="DejaVuSans" font-size="12.00">setjmp.h</text>
</a>
</g>
</g>
<!-- Node20&#45;&gt;Node21 -->
<g id="edge38" class="edge">
<title>Node20&#45;&gt;Node21</title>
<path fill="none" stroke="midnightblue" d="M222,-290.25C222,-282.94 222,-272.69 222,-263.7"/>
<polygon fill="midnightblue" stroke="midnightblue" points="225.5,-263.64 222,-253.64 218.5,-263.64 225.5,-263.64"/>
</g>
<!-- Node22&#45;&gt;Node4 -->
<g id="edge42" class="edge">
<title>Node22&#45;&gt;Node4</title>
<path fill="none" stroke="midnightblue" d="M505.43,-348.41C495.19,-339.93 481.13,-326.65 473,-312 431.38,-237.03 418.84,-133.02 415.3,-89.93"/>
<polygon fill="midnightblue" stroke="midnightblue" points="418.78,-89.61 414.55,-79.9 411.8,-90.13 418.78,-89.61"/>
</g>
<!-- Node22&#45;&gt;Node7 -->
<g id="edge43" class="edge">
<title>Node22&#45;&gt;Node7</title>
<path fill="none" stroke="midnightblue" d="M519.92,-348.25C521.35,-340.94 523.36,-330.69 525.13,-321.7"/>
<polygon fill="midnightblue" stroke="midnightblue" points="528.61,-322.13 527.11,-311.64 521.74,-320.78 528.61,-322.13"/>
</g>
<!-- Node23&#45;&gt;Node24 -->
<g id="edge45" class="edge">
<title>Node23&#45;&gt;Node24</title>
<path fill="none" stroke="midnightblue" d="M1075.42,-464.25C1067.45,-456.14 1055.94,-444.41 1046.49,-434.79"/>
<polygon fill="midnightblue" stroke="midnightblue" points="1048.97,-432.32 1039.47,-427.64 1043.98,-437.23 1048.97,-432.32"/>
</g>
<!-- Node24&#45;&gt;Node10 -->
<g id="edge46" class="edge">
<title>Node24&#45;&gt;Node10</title>
<path fill="none" stroke="midnightblue" d="M1056.3,-414.32C1114.28,-409.06 1248,-387.63 1248,-302 1248,-302 1248,-302 1248,-184 1248,-179.54 998.49,-107.45 903.83,-80.27"/>
<polygon fill="midnightblue" stroke="midnightblue" points="904.7,-76.87 894.12,-77.48 902.77,-83.6 904.7,-76.87"/>
</g>
<!-- Node25 -->
<g id="node25" class="node">
<title>Node25</title>
<g id="a_node25"><a xlink:href="tex_8h.html" target="_top" xlink:title=" ">
<polygon fill="white" stroke="black" points="572,-348.5 572,-369.5 614,-369.5 614,-348.5 572,-348.5"/>
<text text-anchor="middle" x="593" y="-355.9" font-family="DejaVuSans" font-size="12.00">tex.h</text>
</a>
</g>
</g>
<!-- Node24&#45;&gt;Node25 -->
<g id="edge47" class="edge">
<title>Node24&#45;&gt;Node25</title>
<path fill="none" stroke="midnightblue" d="M1003.97,-412.66C927.93,-402.92 706.3,-374.52 624.13,-363.99"/>
<polygon fill="midnightblue" stroke="midnightblue" points="624.51,-360.51 614.15,-362.71 623.63,-367.45 624.51,-360.51"/>
</g>
<!-- Node25&#45;&gt;Node4 -->
<g id="edge49" class="edge">
<title>Node25&#45;&gt;Node4</title>
<path fill="none" stroke="midnightblue" d="M593.46,-348.36C593.76,-334.81 593.02,-309.58 585,-290 549.19,-202.61 468.54,-120.56 432.28,-86.53"/>
<polygon fill="midnightblue" stroke="midnightblue" points="434.56,-83.88 424.85,-79.65 429.81,-89.01 434.56,-83.88"/>
</g>
<!-- Node25&#45;&gt;Node7 -->
<g id="edge50" class="edge">
<title>Node25&#45;&gt;Node7</title>
<path fill="none" stroke="midnightblue" d="M581.85,-348.25C572.49,-340.05 558.91,-328.17 547.87,-318.51"/>
<polygon fill="midnightblue" stroke="midnightblue" points="549.85,-315.59 540.02,-311.64 545.24,-320.86 549.85,-315.59"/>
</g>
<!-- Node25&#45;&gt;Node11 -->
<g id="edge48" class="edge">
<title>Node25&#45;&gt;Node11</title>
<path fill="none" stroke="midnightblue" d="M614.15,-349.62C664.72,-328.92 795.1,-271.5 885,-196 902.17,-181.58 917.83,-161.17 928.01,-146.48"/>
<polygon fill="midnightblue" stroke="midnightblue" points="931.19,-148.02 933.87,-137.77 925.38,-144.12 931.19,-148.02"/>
</g>
<!-- Node27&#45;&gt;Node11 -->
<g id="edge55" class="edge">
<title>Node27&#45;&gt;Node11</title>
<path fill="none" stroke="midnightblue" d="M842.25,-411.57C925.08,-399.61 1134,-363.36 1134,-302 1134,-302 1134,-302 1134,-242 1134,-177.88 1054.24,-149.12 997.01,-136.73"/>
<polygon fill="midnightblue" stroke="midnightblue" points="997.46,-133.25 986.96,-134.67 996.06,-140.11 997.46,-133.25"/>
</g>
<!-- Node27&#45;&gt;Node13 -->
<g id="edge56" class="edge">
<title>Node27&#45;&gt;Node13</title>
<path fill="none" stroke="midnightblue" d="M803.74,-406.16C785.91,-372.99 725.85,-262.34 671,-174 665.18,-164.63 658.36,-154.43 652.6,-146.03"/>
<polygon fill="midnightblue" stroke="midnightblue" points="655.43,-143.97 646.87,-137.73 649.68,-147.95 655.43,-143.97"/>
</g>
<!-- Node27&#45;&gt;Node16 -->
<g id="edge58" class="edge">
<title>Node27&#45;&gt;Node16</title>
<path fill="none" stroke="midnightblue" d="M839.6,-406.37C870.59,-396.62 918.49,-381.55 951.21,-371.26"/>
<polygon fill="midnightblue" stroke="midnightblue" points="952.36,-374.57 960.85,-368.23 950.26,-367.89 952.36,-374.57"/>
</g>
<!-- Node27&#45;&gt;Node22 -->
<g id="edge59" class="edge">
<title>Node27&#45;&gt;Node22</title>
<path fill="none" stroke="midnightblue" d="M775.57,-407.85C772.68,-407.2 769.79,-406.58 767,-406 676.85,-387.33 653.29,-387.99 563,-370 559.78,-369.36 556.44,-368.67 553.1,-367.96"/>
<polygon fill="midnightblue" stroke="midnightblue" points="553.7,-364.51 543.19,-365.8 552.22,-371.35 553.7,-364.51"/>
</g>
<!-- Node27&#45;&gt;Node25 -->
<g id="edge57" class="edge">
<title>Node27&#45;&gt;Node25</title>
<path fill="none" stroke="midnightblue" d="M775.72,-407.37C734.36,-396.65 664.3,-378.48 624.01,-368.04"/>
<polygon fill="midnightblue" stroke="midnightblue" points="624.76,-364.62 614.21,-365.5 623.01,-371.4 624.76,-364.62"/>
</g>
<!-- Node28&#45;&gt;Node25 -->
<g id="edge62" class="edge">
<title>Node28&#45;&gt;Node25</title>
<path fill="none" stroke="midnightblue" d="M486.89,-464.28C506.67,-444.85 551.29,-400.99 575.9,-376.8"/>
<polygon fill="midnightblue" stroke="midnightblue" points="578.46,-379.2 583.13,-369.69 573.55,-374.21 578.46,-379.2"/>
</g>
<!-- Node31&#45;&gt;Node22 -->
<g id="edge67" class="edge">
<title>Node31&#45;&gt;Node22</title>
<path fill="none" stroke="midnightblue" d="M565.65,-467.39C545.96,-460.91 520.37,-448.88 508,-428 499.19,-413.13 503.55,-393.32 509,-378.92"/>
<polygon fill="midnightblue" stroke="midnightblue" points="512.3,-380.11 512.98,-369.54 505.85,-377.37 512.3,-380.11"/>
</g>
<!-- Node31&#45;&gt;Node24 -->
<g id="edge66" class="edge">
<title>Node31&#45;&gt;Node24</title>
<path fill="none" stroke="midnightblue" d="M618.09,-470.66C692.78,-461.11 907.62,-433.65 993.69,-422.64"/>
<polygon fill="midnightblue" stroke="midnightblue" points="994.3,-426.09 1003.77,-421.35 993.41,-419.15 994.3,-426.09"/>
</g>
<!-- Node32&#45;&gt;Node13 -->
<g id="edge69" class="edge">
<title>Node32&#45;&gt;Node13</title>
<path fill="none" stroke="midnightblue" d="M725.07,-406.42C712.52,-365.33 663.1,-203.62 645.92,-147.39"/>
<polygon fill="midnightblue" stroke="midnightblue" points="649.21,-146.16 642.94,-137.62 642.51,-148.2 649.21,-146.16"/>
</g>
<!-- Node32&#45;&gt;Node16 -->
<g id="edge70" class="edge">
<title>Node32&#45;&gt;Node16</title>
<path fill="none" stroke="midnightblue" d="M757.78,-408.22C760.89,-407.45 764,-406.7 767,-406 831.56,-390.98 907.32,-375.64 950.98,-367.02"/>
<polygon fill="midnightblue" stroke="midnightblue" points="951.7,-370.44 960.84,-365.07 950.35,-363.57 951.7,-370.44"/>
</g>
<!-- Node33&#45;&gt;Node13 -->
<g id="edge72" class="edge">
<title>Node33&#45;&gt;Node13</title>
<path fill="none" stroke="midnightblue" d="M1193.09,-522.2C1201.81,-508.88 1214.57,-484.38 1207,-464 1139.92,-283.46 1063.37,-246.65 885,-174 817.65,-146.57 733.15,-135.33 683.04,-130.84"/>
<polygon fill="midnightblue" stroke="midnightblue" points="683.14,-127.34 672.88,-129.99 682.55,-134.32 683.14,-127.34"/>
</g>
<!-- Node33&#45;&gt;Node16 -->
<g id="edge73" class="edge">
<title>Node33&#45;&gt;Node16</title>
<path fill="none" stroke="midnightblue" d="M1190,-522.38C1195.14,-508.41 1202.13,-482.17 1191,-464 1154.34,-404.15 1071.22,-377.39 1023.16,-366.54"/>
<polygon fill="midnightblue" stroke="midnightblue" points="1023.69,-363.08 1013.18,-364.4 1022.22,-369.92 1023.69,-363.08"/>
</g>
<!-- Node33&#45;&gt;Node34 -->
<g id="edge74" class="edge">
<title>Node33&#45;&gt;Node34</title>
<path fill="none" stroke="midnightblue" d="M1180.77,-522.25C1176.69,-514.62 1170.89,-503.79 1165.93,-494.53"/>
<polygon fill="midnightblue" stroke="midnightblue" points="1168.97,-492.8 1161.17,-485.64 1162.8,-496.11 1168.97,-492.8"/>
</g>
<!-- Node34&#45;&gt;Node24 -->
<g id="edge75" class="edge">
<title>Node34&#45;&gt;Node24</title>
<path fill="none" stroke="midnightblue" d="M1134.34,-464.37C1114.02,-455.34 1083.44,-441.75 1060.63,-431.61"/>
<polygon fill="midnightblue" stroke="midnightblue" points="1061.94,-428.36 1051.38,-427.5 1059.09,-434.76 1061.94,-428.36"/>
</g>
<!-- Node36&#45;&gt;Node4 -->
<g id="edge79" class="edge">
<title>Node36&#45;&gt;Node4</title>
<path fill="none" stroke="midnightblue" d="M393.36,-406.31C393.88,-393.12 394.87,-368.77 396,-348 401.27,-251.15 409.33,-135.44 412.57,-89.85"/>
<polygon fill="midnightblue" stroke="midnightblue" points="416.08,-89.82 413.31,-79.6 409.1,-89.32 416.08,-89.82"/>
</g>
<!-- Node36&#45;&gt;Node9 -->
<g id="edge82" class="edge">
<title>Node36&#45;&gt;Node9</title>
<path fill="none" stroke="midnightblue" d="M396,-406.5C404.09,-382.53 428.8,-319.46 473,-290 551.44,-237.73 591.2,-279.28 682,-254 734.47,-239.39 792.97,-214.69 827.02,-199.42"/>
<polygon fill="midnightblue" stroke="midnightblue" points="828.69,-202.51 836.35,-195.19 825.8,-196.13 828.69,-202.51"/>
</g>
<!-- Node36&#45;&gt;Node13 -->
<g id="edge78" class="edge">
<title>Node36&#45;&gt;Node13</title>
<path fill="none" stroke="midnightblue" d="M394.09,-406.06C395.79,-392.58 399.65,-367.9 407,-348 427.39,-292.76 430.36,-274.61 471,-232 510.83,-190.23 570.9,-158.59 607.67,-141.71"/>
<polygon fill="midnightblue" stroke="midnightblue" points="609.25,-144.84 616.94,-137.54 606.38,-138.45 609.25,-144.84"/>
</g>
<!-- Node36&#45;&gt;Node22 -->
<g id="edge81" class="edge">
<title>Node36&#45;&gt;Node22</title>
<path fill="none" stroke="midnightblue" d="M414.49,-406.37C434.64,-397.34 464.99,-383.75 487.62,-373.61"/>
<polygon fill="midnightblue" stroke="midnightblue" points="489.1,-376.78 496.79,-369.5 486.24,-370.4 489.1,-376.78"/>
</g>
<!-- Node36&#45;&gt;Node25 -->
<g id="edge80" class="edge">
<title>Node36&#45;&gt;Node25</title>
<path fill="none" stroke="midnightblue" d="M418.33,-408.91C454.98,-398.65 522.71,-379.68 562.2,-368.62"/>
<polygon fill="midnightblue" stroke="midnightblue" points="563.14,-371.99 571.83,-365.93 561.26,-365.25 563.14,-371.99"/>
</g>
<!-- Node37&#45;&gt;Node9 -->
<g id="edge86" class="edge">
<title>Node37&#45;&gt;Node9</title>
<path fill="none" stroke="midnightblue" d="M625.05,-406.41C662.1,-371.05 791.37,-247.68 838.57,-202.63"/>
<polygon fill="midnightblue" stroke="midnightblue" points="841.09,-205.07 845.91,-195.63 836.26,-200 841.09,-205.07"/>
</g>
<!-- Node37&#45;&gt;Node13 -->
<g id="edge84" class="edge">
<title>Node37&#45;&gt;Node13</title>
<path fill="none" stroke="midnightblue" d="M617.21,-406.19C619.18,-396.92 621.91,-382.6 623,-370 623.84,-360.26 623.36,-357.77 623,-348 621.56,-309.33 606.78,-211.58 616,-174 618.37,-164.32 623.18,-154.41 627.88,-146.28"/>
<polygon fill="midnightblue" stroke="midnightblue" points="630.91,-148.02 633.18,-137.67 624.95,-144.35 630.91,-148.02"/>
</g>
<!-- Node37&#45;&gt;Node16 -->
<g id="edge87" class="edge">
<title>Node37&#45;&gt;Node16</title>
<path fill="none" stroke="midnightblue" d="M641.75,-411.97C707.33,-402.1 876.15,-376.69 950.69,-365.47"/>
<polygon fill="midnightblue" stroke="midnightblue" points="951.62,-368.87 960.98,-363.92 950.58,-361.94 951.62,-368.87"/>
</g>
<!-- Node37&#45;&gt;Node22 -->
<g id="edge88" class="edge">
<title>Node37&#45;&gt;Node22</title>
<path fill="none" stroke="midnightblue" d="M598.1,-406.25C583.08,-397.57 560.9,-384.76 543.68,-374.82"/>
<polygon fill="midnightblue" stroke="midnightblue" points="545.11,-371.61 534.7,-369.64 541.61,-377.67 545.11,-371.61"/>
</g>
<!-- Node37&#45;&gt;Node25 -->
<g id="edge85" class="edge">
<title>Node37&#45;&gt;Node25</title>
<path fill="none" stroke="midnightblue" d="M611.17,-406.25C608.23,-398.78 604.1,-388.24 600.51,-379.11"/>
<polygon fill="midnightblue" stroke="midnightblue" points="603.7,-377.67 596.79,-369.64 597.19,-380.23 603.7,-377.67"/>
</g>
<!-- Node38&#45;&gt;Node22 -->
<g id="edge92" class="edge">
<title>Node38&#45;&gt;Node22</title>
<path fill="none" stroke="midnightblue" d="M711.86,-469.85C675.5,-464.57 620.96,-452.95 580,-428 559.24,-415.35 541.26,-393.72 530.08,-378.25"/>
<polygon fill="midnightblue" stroke="midnightblue" points="532.91,-376.18 524.32,-369.97 527.16,-380.18 532.91,-376.18"/>
</g>
<!-- Node38&#45;&gt;Node24 -->
<g id="edge91" class="edge">
<title>Node38&#45;&gt;Node24</title>
<path fill="none" stroke="midnightblue" d="M790.09,-466.15C844.22,-455.29 941.26,-435.81 993.81,-425.26"/>
<polygon fill="midnightblue" stroke="midnightblue" points="994.58,-428.68 1003.7,-423.28 993.2,-421.82 994.58,-428.68"/>
</g>
<!-- Node38&#45;&gt;Node27 -->
<g id="edge93" class="edge">
<title>Node38&#45;&gt;Node27</title>
<path fill="none" stroke="midnightblue" d="M761.1,-464.25C769.5,-456.14 781.65,-444.41 791.61,-434.79"/>
<polygon fill="midnightblue" stroke="midnightblue" points="794.25,-437.11 799.01,-427.64 789.39,-432.07 794.25,-437.11"/>
</g>
</g>
</svg>
