<?xml version="1.0" encoding="UTF-8" standalone="no"?>
<!DOCTYPE svg PUBLIC "-//W3C//DTD SVG 1.1//EN"
 "http://www.w3.org/Graphics/SVG/1.1/DTD/svg11.dtd">
<!-- Generated by graphviz version 2.44.0 ()
 -->
<!-- Title: math_formula.c Pages: 1 -->
<svg width="828pt" height="726pt"
 viewBox="0.00 0.00 827.50 726.00" xmlns="http://www.w3.org/2000/svg" xmlns:xlink="http://www.w3.org/1999/xlink">
<g id="graph0" class="graph" transform="scale(1 1) rotate(0) translate(4 722)">
<title>math_formula.c</title>
<polygon fill="white" stroke="transparent" points="-4,4 -4,-722 823.5,-722 823.5,4 -4,4"/>
<!-- Node1 -->
<g id="node1" class="node">
<title>Node1</title>
<g id="a_node1"><a xlink:title=" ">
<polygon fill="#bfbfbf" stroke="black" points="288,-696.5 288,-717.5 386,-717.5 386,-696.5 288,-696.5"/>
<text text-anchor="middle" x="337" y="-703.9" font-family="DejaVuSans" font-size="12.00">math_formula.c</text>
</a>
</g>
</g>
<!-- Node2 -->
<g id="node2" class="node">
<title>Node2</title>
<g id="a_node2"><a xlink:title=" ">
<polygon fill="white" stroke="#bfbfbf" points="0,-638.5 0,-659.5 54,-659.5 54,-638.5 0,-638.5"/>
<text text-anchor="middle" x="27" y="-645.9" font-family="DejaVuSans" font-size="12.00">stdlib.h</text>
</a>
</g>
</g>
<!-- Node1&#45;&gt;Node2 -->
<g id="edge1" class="edge">
<title>Node1&#45;&gt;Node2</title>
<path fill="none" stroke="midnightblue" d="M287.72,-698.63C233.63,-690.3 144.32,-675.81 68,-660 66.75,-659.74 65.48,-659.47 64.2,-659.19"/>
<polygon fill="midnightblue" stroke="midnightblue" points="64.81,-655.74 54.29,-656.94 63.26,-662.57 64.81,-655.74"/>
</g>
<!-- Node3 -->
<g id="node3" class="node">
<title>Node3</title>
<g id="a_node3"><a xlink:href="tex_8h.html" target="_top" xlink:title=" ">
<polygon fill="white" stroke="black" points="268,-290.5 268,-311.5 310,-311.5 310,-290.5 268,-290.5"/>
<text text-anchor="middle" x="289" y="-297.9" font-family="DejaVuSans" font-size="12.00">tex.h</text>
</a>
</g>
</g>
<!-- Node1&#45;&gt;Node3 -->
<g id="edge2" class="edge">
<title>Node1&#45;&gt;Node3</title>
<path fill="none" stroke="midnightblue" d="M287.61,-696.67C234.63,-683.47 158,-653.71 158,-592 158,-592 158,-592 158,-474 158,-403.81 227.91,-344.38 265.58,-317.45"/>
<polygon fill="midnightblue" stroke="midnightblue" points="267.77,-320.2 273.97,-311.61 263.77,-314.45 267.77,-320.2"/>
</g>
<!-- Node13 -->
<g id="node13" class="node">
<title>Node13</title>
<g id="a_node13"><a xlink:href="pack_8h.html" target="_top" xlink:title=" ">
<polygon fill="white" stroke="black" points="615,-638.5 615,-659.5 667,-659.5 667,-638.5 615,-638.5"/>
<text text-anchor="middle" x="641" y="-645.9" font-family="DejaVuSans" font-size="12.00">pack.h</text>
</a>
</g>
</g>
<!-- Node1&#45;&gt;Node13 -->
<g id="edge15" class="edge">
<title>Node1&#45;&gt;Node13</title>
<path fill="none" stroke="midnightblue" d="M386.35,-698.5C439.54,-690.16 526.58,-675.76 601,-660 602.26,-659.73 603.54,-659.45 604.83,-659.17"/>
<polygon fill="midnightblue" stroke="midnightblue" points="605.87,-662.52 614.81,-656.84 604.28,-655.7 605.87,-662.52"/>
</g>
<!-- Node14 -->
<g id="node14" class="node">
<title>Node14</title>
<g id="a_node14"><a xlink:href="mem_8h.html" target="_top" xlink:title=" ">
<polygon fill="white" stroke="black" points="208.5,-522.5 208.5,-543.5 261.5,-543.5 261.5,-522.5 208.5,-522.5"/>
<text text-anchor="middle" x="235" y="-529.9" font-family="DejaVuSans" font-size="12.00">mem.h</text>
</a>
</g>
</g>
<!-- Node1&#45;&gt;Node14 -->
<g id="edge16" class="edge">
<title>Node1&#45;&gt;Node14</title>
<path fill="none" stroke="midnightblue" d="M317.79,-696.44C289.32,-681.05 237.03,-647.82 216,-602 208.6,-585.89 215.63,-566.28 223.14,-552.26"/>
<polygon fill="midnightblue" stroke="midnightblue" points="226.2,-553.96 228.25,-543.57 220.17,-550.42 226.2,-553.96"/>
</g>
<!-- Node19 -->
<g id="node19" class="node">
<title>Node19</title>
<g id="a_node19"><a xlink:href="fonts_8h.html" target="_top" xlink:title=" ">
<polygon fill="white" stroke="black" points="581,-406.5 581,-427.5 633,-427.5 633,-406.5 581,-406.5"/>
<text text-anchor="middle" x="607" y="-413.9" font-family="DejaVuSans" font-size="12.00">fonts.h</text>
</a>
</g>
</g>
<!-- Node1&#45;&gt;Node19 -->
<g id="edge43" class="edge">
<title>Node1&#45;&gt;Node19</title>
<path fill="none" stroke="midnightblue" d="M386.17,-701.11C448.8,-691.85 549,-665.55 549,-592 549,-592 549,-592 549,-532 549,-500.5 554.22,-491.82 569,-464 574.54,-453.57 582.68,-443.31 590.01,-435.13"/>
<polygon fill="midnightblue" stroke="midnightblue" points="592.66,-437.42 596.94,-427.72 587.55,-432.64 592.66,-437.42"/>
</g>
<!-- Node20 -->
<g id="node20" class="node">
<title>Node20</title>
<g id="a_node20"><a xlink:href="dviout_8h.html" target="_top" xlink:title=" ">
<polygon fill="white" stroke="black" points="577.5,-464.5 577.5,-485.5 636.5,-485.5 636.5,-464.5 577.5,-464.5"/>
<text text-anchor="middle" x="607" y="-471.9" font-family="DejaVuSans" font-size="12.00">dviout.h</text>
</a>
</g>
</g>
<!-- Node1&#45;&gt;Node20 -->
<g id="edge28" class="edge">
<title>Node1&#45;&gt;Node20</title>
<path fill="none" stroke="midnightblue" d="M386.03,-702.12C444.73,-696.47 538.24,-683.93 563,-660 608.59,-615.94 610.44,-533.71 608.6,-495.92"/>
<polygon fill="midnightblue" stroke="midnightblue" points="612.08,-495.47 607.95,-485.71 605.09,-495.92 612.08,-495.47"/>
</g>
<!-- Node21 -->
<g id="node21" class="node">
<title>Node21</title>
<g id="a_node21"><a xlink:href="eqtb_8h.html" target="_top" xlink:title=" ">
<polygon fill="white" stroke="black" points="93,-290.5 93,-311.5 143,-311.5 143,-290.5 93,-290.5"/>
<text text-anchor="middle" x="118" y="-297.9" font-family="DejaVuSans" font-size="12.00">eqtb.h</text>
</a>
</g>
</g>
<!-- Node1&#45;&gt;Node21 -->
<g id="edge30" class="edge">
<title>Node1&#45;&gt;Node21</title>
<path fill="none" stroke="midnightblue" d="M287.76,-701.65C223.74,-692.99 120,-667.32 120,-592 120,-592 120,-592 120,-416 120,-382.98 119.15,-344.59 118.56,-321.84"/>
<polygon fill="midnightblue" stroke="midnightblue" points="122.06,-321.66 118.29,-311.76 115.06,-321.85 122.06,-321.66"/>
</g>
<!-- Node22 -->
<g id="node22" class="node">
<title>Node22</title>
<g id="a_node22"><a xlink:href="texmath_8h.html" target="_top" xlink:title=" ">
<polygon fill="white" stroke="black" points="24,-580.5 24,-601.5 92,-601.5 92,-580.5 24,-580.5"/>
<text text-anchor="middle" x="58" y="-587.9" font-family="DejaVuSans" font-size="12.00">texmath.h</text>
</a>
</g>
</g>
<!-- Node1&#45;&gt;Node22 -->
<g id="edge33" class="edge">
<title>Node1&#45;&gt;Node22</title>
<path fill="none" stroke="midnightblue" d="M287.98,-706.52C238.33,-704.82 161.2,-695.88 106,-660 87.71,-648.11 74.3,-626.61 66.38,-610.95"/>
<polygon fill="midnightblue" stroke="midnightblue" points="69.42,-609.2 61.96,-601.67 63.1,-612.21 69.42,-609.2"/>
</g>
<!-- Node23 -->
<g id="node23" class="node">
<title>Node23</title>
<g id="a_node23"><a xlink:href="print_8h.html" target="_top" xlink:title=" ">
<polygon fill="white" stroke="black" points="312,-638.5 312,-659.5 362,-659.5 362,-638.5 312,-638.5"/>
<text text-anchor="middle" x="337" y="-645.9" font-family="DejaVuSans" font-size="12.00">print.h</text>
</a>
</g>
</g>
<!-- Node1&#45;&gt;Node23 -->
<g id="edge35" class="edge">
<title>Node1&#45;&gt;Node23</title>
<path fill="none" stroke="midnightblue" d="M337,-696.25C337,-688.94 337,-678.69 337,-669.7"/>
<polygon fill="midnightblue" stroke="midnightblue" points="340.5,-669.64 337,-659.64 333.5,-669.64 340.5,-669.64"/>
</g>
<!-- Node24 -->
<g id="node24" class="node">
<title>Node24</title>
<g id="a_node24"><a xlink:href="texmac_8h.html" target="_top" xlink:title=" ">
<polygon fill="white" stroke="black" points="224.5,-580.5 224.5,-601.5 289.5,-601.5 289.5,-580.5 224.5,-580.5"/>
<text text-anchor="middle" x="257" y="-587.9" font-family="DejaVuSans" font-size="12.00">texmac.h</text>
</a>
</g>
</g>
<!-- Node1&#45;&gt;Node24 -->
<g id="edge41" class="edge">
<title>Node1&#45;&gt;Node24</title>
<path fill="none" stroke="midnightblue" d="M329.58,-696.22C322.61,-686.96 311.95,-672.65 303,-660 291.23,-643.36 278.26,-624.09 269.1,-610.32"/>
<polygon fill="midnightblue" stroke="midnightblue" points="271.87,-608.17 263.42,-601.77 266.03,-612.04 271.87,-608.17"/>
</g>
<!-- Node25 -->
<g id="node25" class="node">
<title>Node25</title>
<g id="a_node25"><a xlink:href="error_8h.html" target="_top" xlink:title=" ">
<polygon fill="white" stroke="black" points="685.5,-638.5 685.5,-659.5 736.5,-659.5 736.5,-638.5 685.5,-638.5"/>
<text text-anchor="middle" x="711" y="-645.9" font-family="DejaVuSans" font-size="12.00">error.h</text>
</a>
</g>
</g>
<!-- Node1&#45;&gt;Node25 -->
<g id="edge42" class="edge">
<title>Node1&#45;&gt;Node25</title>
<path fill="none" stroke="midnightblue" d="M386.22,-701.56C450.58,-695.26 566.91,-682.18 675.67,-659.8"/>
<polygon fill="midnightblue" stroke="midnightblue" points="676.42,-663.22 685.49,-657.75 674.99,-656.36 676.42,-663.22"/>
</g>
<!-- Node26 -->
<g id="node26" class="node">
<title>Node26</title>
<g id="a_node26"><a xlink:href="texfunc_8h.html" target="_top" xlink:title=" ">
<polygon fill="white" stroke="black" points="754.5,-638.5 754.5,-659.5 819.5,-659.5 819.5,-638.5 754.5,-638.5"/>
<text text-anchor="middle" x="787" y="-645.9" font-family="DejaVuSans" font-size="12.00">texfunc.h</text>
</a>
</g>
</g>
<!-- Node1&#45;&gt;Node26 -->
<g id="edge44" class="edge">
<title>Node1&#45;&gt;Node26</title>
<path fill="none" stroke="midnightblue" d="M386.08,-702.51C461.27,-696.72 609.6,-683.54 744.32,-660.12"/>
<polygon fill="midnightblue" stroke="midnightblue" points="745.16,-663.53 754.41,-658.35 743.95,-656.63 745.16,-663.53"/>
</g>
<!-- Node27 -->
<g id="node27" class="node">
<title>Node27</title>
<g id="a_node27"><a xlink:href="mmode_8h.html" target="_top" xlink:title=" ">
<polygon fill="white" stroke="black" points="455,-522.5 455,-543.5 521,-543.5 521,-522.5 455,-522.5"/>
<text text-anchor="middle" x="488" y="-529.9" font-family="DejaVuSans" font-size="12.00">mmode.h</text>
</a>
</g>
</g>
<!-- Node1&#45;&gt;Node27 -->
<g id="edge45" class="edge">
<title>Node1&#45;&gt;Node27</title>
<path fill="none" stroke="midnightblue" d="M347.98,-696.26C367.69,-678.5 409.93,-639.26 441,-602 454.29,-586.06 467.57,-566.43 476.6,-552.36"/>
<polygon fill="midnightblue" stroke="midnightblue" points="479.74,-553.95 482.13,-543.63 473.82,-550.21 479.74,-553.95"/>
</g>
<!-- Node4 -->
<g id="node4" class="node">
<title>Node4</title>
<g id="a_node4"><a xlink:href="tex__types_8h.html" target="_top" xlink:title=" ">
<polygon fill="white" stroke="black" points="271.5,-58.5 271.5,-79.5 348.5,-79.5 348.5,-58.5 271.5,-58.5"/>
<text text-anchor="middle" x="310" y="-65.9" font-family="DejaVuSans" font-size="12.00">tex_types.h</text>
</a>
</g>
</g>
<!-- Node3&#45;&gt;Node4 -->
<g id="edge3" class="edge">
<title>Node3&#45;&gt;Node4</title>
<path fill="none" stroke="midnightblue" d="M289.88,-290.41C293.03,-255.85 303.86,-137.24 308.19,-89.82"/>
<polygon fill="midnightblue" stroke="midnightblue" points="311.7,-89.91 309.12,-79.63 304.73,-89.27 311.7,-89.91"/>
</g>
<!-- Node7 -->
<g id="node7" class="node">
<title>Node7</title>
<g id="a_node7"><a xlink:href="tex__constant_8h.html" target="_top" xlink:title=" ">
<polygon fill="white" stroke="black" points="188,-232.5 188,-253.5 282,-253.5 282,-232.5 188,-232.5"/>
<text text-anchor="middle" x="235" y="-239.9" font-family="DejaVuSans" font-size="12.00">tex_constant.h</text>
</a>
</g>
</g>
<!-- Node3&#45;&gt;Node7 -->
<g id="edge6" class="edge">
<title>Node3&#45;&gt;Node7</title>
<path fill="none" stroke="midnightblue" d="M279.59,-290.25C271.85,-282.22 260.69,-270.64 251.47,-261.08"/>
<polygon fill="midnightblue" stroke="midnightblue" points="253.76,-258.41 244.3,-253.64 248.72,-263.27 253.76,-258.41"/>
</g>
<!-- Node5 -->
<g id="node5" class="node">
<title>Node5</title>
<g id="a_node5"><a xlink:title=" ">
<polygon fill="white" stroke="#bfbfbf" points="277.5,-0.5 277.5,-21.5 342.5,-21.5 342.5,-0.5 277.5,-0.5"/>
<text text-anchor="middle" x="310" y="-7.9" font-family="DejaVuSans" font-size="12.00">stdbool.h</text>
</a>
</g>
</g>
<!-- Node4&#45;&gt;Node5 -->
<g id="edge4" class="edge">
<title>Node4&#45;&gt;Node5</title>
<path fill="none" stroke="midnightblue" d="M310,-58.25C310,-50.94 310,-40.69 310,-31.7"/>
<polygon fill="midnightblue" stroke="midnightblue" points="313.5,-31.64 310,-21.64 306.5,-31.64 313.5,-31.64"/>
</g>
<!-- Node6 -->
<g id="node6" class="node">
<title>Node6</title>
<g id="a_node6"><a xlink:title=" ">
<polygon fill="white" stroke="#bfbfbf" points="366.5,-0.5 366.5,-21.5 421.5,-21.5 421.5,-0.5 366.5,-0.5"/>
<text text-anchor="middle" x="394" y="-7.9" font-family="DejaVuSans" font-size="12.00">stdint.h</text>
</a>
</g>
</g>
<!-- Node4&#45;&gt;Node6 -->
<g id="edge5" class="edge">
<title>Node4&#45;&gt;Node6</title>
<path fill="none" stroke="midnightblue" d="M324.63,-58.25C337.4,-49.73 356.14,-37.24 370.93,-27.38"/>
<polygon fill="midnightblue" stroke="midnightblue" points="373.16,-30.1 379.54,-21.64 369.27,-24.28 373.16,-30.1"/>
</g>
<!-- Node8 -->
<g id="node8" class="node">
<title>Node8</title>
<g id="a_node8"><a xlink:href="box_8h.html" target="_top" xlink:title=" ">
<polygon fill="white" stroke="black" points="224,-174.5 224,-195.5 270,-195.5 270,-174.5 224,-174.5"/>
<text text-anchor="middle" x="247" y="-181.9" font-family="DejaVuSans" font-size="12.00">box.h</text>
</a>
</g>
</g>
<!-- Node7&#45;&gt;Node8 -->
<g id="edge7" class="edge">
<title>Node7&#45;&gt;Node8</title>
<path fill="none" stroke="midnightblue" d="M237.09,-232.25C238.66,-224.94 240.85,-214.69 242.78,-205.7"/>
<polygon fill="midnightblue" stroke="midnightblue" points="246.26,-206.15 244.93,-195.64 239.42,-204.69 246.26,-206.15"/>
</g>
<!-- Node9 -->
<g id="node9" class="node">
<title>Node9</title>
<g id="a_node9"><a xlink:href="str_8h.html" target="_top" xlink:title=" ">
<polygon fill="white" stroke="black" points="409.5,-116.5 409.5,-137.5 448.5,-137.5 448.5,-116.5 409.5,-116.5"/>
<text text-anchor="middle" x="429" y="-123.9" font-family="DejaVuSans" font-size="12.00">str.h</text>
</a>
</g>
</g>
<!-- Node8&#45;&gt;Node9 -->
<g id="edge8" class="edge">
<title>Node8&#45;&gt;Node9</title>
<path fill="none" stroke="midnightblue" d="M270.05,-176.91C302.96,-166.78 363.41,-148.18 399.53,-137.07"/>
<polygon fill="midnightblue" stroke="midnightblue" points="400.94,-140.3 409.47,-134.01 398.88,-133.61 400.94,-140.3"/>
</g>
<!-- Node9&#45;&gt;Node4 -->
<g id="edge14" class="edge">
<title>Node9&#45;&gt;Node4</title>
<path fill="none" stroke="midnightblue" d="M409.35,-116.75C390.37,-107.82 361.39,-94.18 339.61,-83.94"/>
<polygon fill="midnightblue" stroke="midnightblue" points="341.02,-80.73 330.48,-79.64 338.04,-87.06 341.02,-80.73"/>
</g>
<!-- Node9&#45;&gt;Node6 -->
<g id="edge10" class="edge">
<title>Node9&#45;&gt;Node6</title>
<path fill="none" stroke="midnightblue" d="M426.02,-116.28C420.26,-97.52 407.51,-56 399.95,-31.38"/>
<polygon fill="midnightblue" stroke="midnightblue" points="403.26,-30.23 396.98,-21.69 396.57,-32.28 403.26,-30.23"/>
</g>
<!-- Node10 -->
<g id="node10" class="node">
<title>Node10</title>
<g id="a_node10"><a xlink:title=" ">
<polygon fill="white" stroke="#bfbfbf" points="504,-0.5 504,-21.5 556,-21.5 556,-0.5 504,-0.5"/>
<text text-anchor="middle" x="530" y="-7.9" font-family="DejaVuSans" font-size="12.00">stdio.h</text>
</a>
</g>
</g>
<!-- Node9&#45;&gt;Node10 -->
<g id="edge9" class="edge">
<title>Node9&#45;&gt;Node10</title>
<path fill="none" stroke="midnightblue" d="M432.09,-116.32C436.93,-102.26 447.4,-75.92 463,-58 473.99,-45.38 489.18,-34.58 502.32,-26.62"/>
<polygon fill="midnightblue" stroke="midnightblue" points="504.12,-29.62 511.01,-21.58 500.61,-23.57 504.12,-29.62"/>
</g>
<!-- Node11 -->
<g id="node11" class="node">
<title>Node11</title>
<g id="a_node11"><a xlink:href="global__const_8h.html" target="_top" xlink:title=" ">
<polygon fill="white" stroke="black" points="596.5,-58.5 596.5,-79.5 689.5,-79.5 689.5,-58.5 596.5,-58.5"/>
<text text-anchor="middle" x="643" y="-65.9" font-family="DejaVuSans" font-size="12.00">global_const.h</text>
</a>
</g>
</g>
<!-- Node9&#45;&gt;Node11 -->
<g id="edge11" class="edge">
<title>Node9&#45;&gt;Node11</title>
<path fill="none" stroke="midnightblue" d="M448.75,-120.83C482.2,-112.08 550.85,-94.11 596.92,-82.06"/>
<polygon fill="midnightblue" stroke="midnightblue" points="597.88,-85.43 606.67,-79.51 596.11,-78.65 597.88,-85.43"/>
</g>
<!-- Node11&#45;&gt;Node10 -->
<g id="edge13" class="edge">
<title>Node11&#45;&gt;Node10</title>
<path fill="none" stroke="midnightblue" d="M623.57,-58.37C605.6,-49.46 578.66,-36.11 558.29,-26.02"/>
<polygon fill="midnightblue" stroke="midnightblue" points="559.69,-22.81 549.17,-21.5 556.58,-29.08 559.69,-22.81"/>
</g>
<!-- Node12 -->
<g id="node12" class="node">
<title>Node12</title>
<g id="a_node12"><a xlink:title=" ">
<polygon fill="white" stroke="#bfbfbf" points="613.5,-0.5 613.5,-21.5 672.5,-21.5 672.5,-0.5 613.5,-0.5"/>
<text text-anchor="middle" x="643" y="-7.9" font-family="DejaVuSans" font-size="12.00">assert.h</text>
</a>
</g>
</g>
<!-- Node11&#45;&gt;Node12 -->
<g id="edge12" class="edge">
<title>Node11&#45;&gt;Node12</title>
<path fill="none" stroke="midnightblue" d="M643,-58.25C643,-50.94 643,-40.69 643,-31.7"/>
<polygon fill="midnightblue" stroke="midnightblue" points="646.5,-31.64 643,-21.64 639.5,-31.64 646.5,-31.64"/>
</g>
<!-- Node14&#45;&gt;Node4 -->
<g id="edge17" class="edge">
<title>Node14&#45;&gt;Node4</title>
<path fill="none" stroke="midnightblue" d="M229.96,-522.26C211.08,-484.44 147.11,-343.84 179,-232 197.3,-167.82 257.27,-112 289.34,-85.83"/>
<polygon fill="midnightblue" stroke="midnightblue" points="291.59,-88.51 297.22,-79.54 287.22,-83.04 291.59,-88.51"/>
</g>
<!-- Node15 -->
<g id="node15" class="node">
<title>Node15</title>
<g id="a_node15"><a xlink:href="global_8h.html" target="_top" xlink:title=" ">
<polygon fill="white" stroke="black" points="387,-464.5 387,-485.5 445,-485.5 445,-464.5 387,-464.5"/>
<text text-anchor="middle" x="416" y="-471.9" font-family="DejaVuSans" font-size="12.00">global.h</text>
</a>
</g>
</g>
<!-- Node14&#45;&gt;Node15 -->
<g id="edge18" class="edge">
<title>Node14&#45;&gt;Node15</title>
<path fill="none" stroke="midnightblue" d="M261.71,-523.74C292.14,-514.32 342.15,-498.85 376.95,-488.08"/>
<polygon fill="midnightblue" stroke="midnightblue" points="378.26,-491.34 386.78,-485.04 376.19,-484.65 378.26,-491.34"/>
</g>
<!-- Node15&#45;&gt;Node9 -->
<g id="edge20" class="edge">
<title>Node15&#45;&gt;Node9</title>
<path fill="none" stroke="midnightblue" d="M443.44,-464.49C460.89,-457.11 482.63,-445.2 496,-428 515.26,-403.22 515,-391.38 515,-360 515,-360 515,-360 515,-242 515,-199.9 477.16,-163.5 451.68,-143.75"/>
<polygon fill="midnightblue" stroke="midnightblue" points="453.7,-140.89 443.59,-137.71 449.51,-146.5 453.7,-140.89"/>
</g>
<!-- Node16 -->
<g id="node16" class="node">
<title>Node16</title>
<g id="a_node16"><a xlink:title=" ">
<polygon fill="white" stroke="#bfbfbf" points="355,-406.5 355,-427.5 417,-427.5 417,-406.5 355,-406.5"/>
<text text-anchor="middle" x="386" y="-413.9" font-family="DejaVuSans" font-size="12.00">setjmp.h</text>
</a>
</g>
</g>
<!-- Node15&#45;&gt;Node16 -->
<g id="edge19" class="edge">
<title>Node15&#45;&gt;Node16</title>
<path fill="none" stroke="midnightblue" d="M410.77,-464.25C406.69,-456.62 400.89,-445.79 395.93,-436.53"/>
<polygon fill="midnightblue" stroke="midnightblue" points="398.97,-434.8 391.17,-427.64 392.8,-438.11 398.97,-434.8"/>
</g>
<!-- Node17 -->
<g id="node17" class="node">
<title>Node17</title>
<g id="a_node17"><a xlink:href="scan_8h.html" target="_top" xlink:title=" ">
<polygon fill="white" stroke="black" points="435,-406.5 435,-427.5 487,-427.5 487,-406.5 435,-406.5"/>
<text text-anchor="middle" x="461" y="-413.9" font-family="DejaVuSans" font-size="12.00">scan.h</text>
</a>
</g>
</g>
<!-- Node15&#45;&gt;Node17 -->
<g id="edge21" class="edge">
<title>Node15&#45;&gt;Node17</title>
<path fill="none" stroke="midnightblue" d="M423.84,-464.25C430.16,-456.38 439.22,-445.1 446.81,-435.65"/>
<polygon fill="midnightblue" stroke="midnightblue" points="449.72,-437.63 453.25,-427.64 444.26,-433.25 449.72,-437.63"/>
</g>
<!-- Node15&#45;&gt;Node19 -->
<g id="edge25" class="edge">
<title>Node15&#45;&gt;Node19</title>
<path fill="none" stroke="midnightblue" d="M445.01,-465.49C478.78,-455.59 534.56,-439.24 571.05,-428.54"/>
<polygon fill="midnightblue" stroke="midnightblue" points="572.18,-431.86 580.8,-425.68 570.22,-425.14 572.18,-431.86"/>
</g>
<!-- Node18 -->
<g id="node18" class="node">
<title>Node18</title>
<g id="a_node18"><a xlink:href="lexer_8h.html" target="_top" xlink:title=" ">
<polygon fill="white" stroke="black" points="435,-348.5 435,-369.5 487,-369.5 487,-348.5 435,-348.5"/>
<text text-anchor="middle" x="461" y="-355.9" font-family="DejaVuSans" font-size="12.00">lexer.h</text>
</a>
</g>
</g>
<!-- Node17&#45;&gt;Node18 -->
<g id="edge22" class="edge">
<title>Node17&#45;&gt;Node18</title>
<path fill="none" stroke="midnightblue" d="M461,-406.25C461,-398.94 461,-388.69 461,-379.7"/>
<polygon fill="midnightblue" stroke="midnightblue" points="464.5,-379.64 461,-369.64 457.5,-379.64 464.5,-379.64"/>
</g>
<!-- Node18&#45;&gt;Node3 -->
<g id="edge24" class="edge">
<title>Node18&#45;&gt;Node3</title>
<path fill="none" stroke="midnightblue" d="M434.88,-349.49C403.96,-339.43 352.55,-322.69 319.75,-312.01"/>
<polygon fill="midnightblue" stroke="midnightblue" points="320.8,-308.67 310.21,-308.9 318.63,-315.33 320.8,-308.67"/>
</g>
<!-- Node18&#45;&gt;Node10 -->
<g id="edge23" class="edge">
<title>Node18&#45;&gt;Node10</title>
<path fill="none" stroke="midnightblue" d="M463.29,-348.3C467.72,-328.72 477,-282.97 477,-244 477,-244 477,-244 477,-126 477,-89.14 500.06,-51.3 515.76,-29.82"/>
<polygon fill="midnightblue" stroke="midnightblue" points="518.69,-31.74 521.95,-21.66 513.12,-27.51 518.69,-31.74"/>
</g>
<!-- Node19&#45;&gt;Node10 -->
<g id="edge26" class="edge">
<title>Node19&#45;&gt;Node10</title>
<path fill="none" stroke="midnightblue" d="M604.71,-406.3C600.28,-386.72 591,-340.97 591,-302 591,-302 591,-302 591,-242 591,-161.57 555.72,-70.45 538.82,-31.41"/>
<polygon fill="midnightblue" stroke="midnightblue" points="541.83,-29.57 534.58,-21.84 535.43,-32.4 541.83,-29.57"/>
</g>
<!-- Node19&#45;&gt;Node11 -->
<g id="edge27" class="edge">
<title>Node19&#45;&gt;Node11</title>
<path fill="none" stroke="midnightblue" d="M611.44,-406.48C620.01,-387.2 638,-342 638,-302 638,-302 638,-302 638,-184 638,-150.95 640.12,-112.57 641.6,-89.83"/>
<polygon fill="midnightblue" stroke="midnightblue" points="645.1,-89.97 642.28,-79.75 638.12,-89.49 645.1,-89.97"/>
</g>
<!-- Node20&#45;&gt;Node19 -->
<g id="edge29" class="edge">
<title>Node20&#45;&gt;Node19</title>
<path fill="none" stroke="midnightblue" d="M607,-464.25C607,-456.94 607,-446.69 607,-437.7"/>
<polygon fill="midnightblue" stroke="midnightblue" points="610.5,-437.64 607,-427.64 603.5,-437.64 610.5,-437.64"/>
</g>
<!-- Node21&#45;&gt;Node4 -->
<g id="edge31" class="edge">
<title>Node21&#45;&gt;Node4</title>
<path fill="none" stroke="midnightblue" d="M116.18,-290.11C111.2,-259.82 100.62,-167.31 146,-116 174.65,-83.61 224.09,-73.21 261.22,-70.25"/>
<polygon fill="midnightblue" stroke="midnightblue" points="261.58,-73.74 271.33,-69.6 261.13,-66.75 261.58,-73.74"/>
</g>
<!-- Node21&#45;&gt;Node7 -->
<g id="edge32" class="edge">
<title>Node21&#45;&gt;Node7</title>
<path fill="none" stroke="midnightblue" d="M138.11,-290.37C156.81,-281.42 184.87,-267.99 205.99,-257.88"/>
<polygon fill="midnightblue" stroke="midnightblue" points="207.64,-260.98 215.15,-253.5 204.62,-254.66 207.64,-260.98"/>
</g>
<!-- Node22&#45;&gt;Node4 -->
<g id="edge34" class="edge">
<title>Node22&#45;&gt;Node4</title>
<path fill="none" stroke="midnightblue" d="M58.43,-580.24C59.26,-560.54 61,-514.61 61,-476 61,-476 61,-476 61,-184 61,-96.88 188.57,-76.07 261.09,-71.28"/>
<polygon fill="midnightblue" stroke="midnightblue" points="261.59,-74.76 271.37,-70.68 261.18,-67.77 261.59,-74.76"/>
</g>
<!-- Node23&#45;&gt;Node3 -->
<g id="edge37" class="edge">
<title>Node23&#45;&gt;Node3</title>
<path fill="none" stroke="midnightblue" d="M335.67,-638.38C329.17,-591.54 300.77,-386.82 291.75,-321.86"/>
<polygon fill="midnightblue" stroke="midnightblue" points="295.19,-321.16 290.35,-311.73 288.26,-322.12 295.19,-321.16"/>
</g>
<!-- Node23&#45;&gt;Node4 -->
<g id="edge36" class="edge">
<title>Node23&#45;&gt;Node4</title>
<path fill="none" stroke="midnightblue" d="M338.38,-638.15C339.61,-628.86 341.32,-614.51 342,-602 342.53,-592.24 342.25,-589.77 342,-580 336.66,-373.57 341.07,-321.21 318,-116 317.03,-107.36 315.47,-97.89 313.98,-89.79"/>
<polygon fill="midnightblue" stroke="midnightblue" points="317.39,-88.98 312.06,-79.82 310.51,-90.3 317.39,-88.98"/>
</g>
<!-- Node23&#45;&gt;Node9 -->
<g id="edge40" class="edge">
<title>Node23&#45;&gt;Node9</title>
<path fill="none" stroke="midnightblue" d="M345.25,-638.35C376.32,-601.95 485.97,-472.78 516,-428 535.16,-399.42 553,-394.41 553,-360 553,-360 553,-360 553,-242 553,-190.59 494.53,-156.03 457.89,-139.42"/>
<polygon fill="midnightblue" stroke="midnightblue" points="459.21,-136.18 448.65,-135.4 456.42,-142.6 459.21,-136.18"/>
</g>
<!-- Node23&#45;&gt;Node24 -->
<g id="edge38" class="edge">
<title>Node23&#45;&gt;Node24</title>
<path fill="none" stroke="midnightblue" d="M323.07,-638.25C310.91,-629.73 293.05,-617.24 278.97,-607.38"/>
<polygon fill="midnightblue" stroke="midnightblue" points="280.97,-604.51 270.78,-601.64 276.96,-610.24 280.97,-604.51"/>
</g>
<!-- Node24&#45;&gt;Node14 -->
<g id="edge39" class="edge">
<title>Node24&#45;&gt;Node14</title>
<path fill="none" stroke="midnightblue" d="M253.17,-580.25C250.23,-572.78 246.1,-562.24 242.51,-553.11"/>
<polygon fill="midnightblue" stroke="midnightblue" points="245.7,-551.67 238.79,-543.64 239.19,-554.23 245.7,-551.67"/>
</g>
<!-- Node27&#45;&gt;Node19 -->
<g id="edge46" class="edge">
<title>Node27&#45;&gt;Node19</title>
<path fill="none" stroke="midnightblue" d="M493.05,-522.32C500.72,-508.27 516.41,-481.93 535,-464 547.96,-451.5 564.82,-440.51 578.97,-432.41"/>
<polygon fill="midnightblue" stroke="midnightblue" points="580.75,-435.42 587.81,-427.52 577.36,-429.3 580.75,-435.42"/>
</g>
</g>
</svg>
