<?xml version="1.0" encoding="UTF-8" standalone="no"?>
<!DOCTYPE svg PUBLIC "-//W3C//DTD SVG 1.1//EN"
 "http://www.w3.org/Graphics/SVG/1.1/DTD/svg11.dtd">
<!-- Generated by graphviz version 2.44.0 ()
 -->
<!-- Title: math_formula.c Pages: 1 -->
<svg width="823pt" height="610pt"
 viewBox="0.00 0.00 822.50 610.00" xmlns="http://www.w3.org/2000/svg" xmlns:xlink="http://www.w3.org/1999/xlink">
<g id="graph0" class="graph" transform="scale(1 1) rotate(0) translate(4 606)">
<title>math_formula.c</title>
<polygon fill="white" stroke="transparent" points="-4,4 -4,-606 818.5,-606 818.5,4 -4,4"/>
<!-- Node1 -->
<g id="node1" class="node">
<title>Node1</title>
<g id="a_node1"><a xlink:title=" ">
<polygon fill="#bfbfbf" stroke="black" points="354,-580.5 354,-601.5 452,-601.5 452,-580.5 354,-580.5"/>
<text text-anchor="middle" x="403" y="-587.9" font-family="DejaVuSans" font-size="12.00">math_formula.c</text>
</a>
</g>
</g>
<!-- Node2 -->
<g id="node2" class="node">
<title>Node2</title>
<g id="a_node2"><a xlink:title=" ">
<polygon fill="white" stroke="#bfbfbf" points="6,-522.5 6,-543.5 60,-543.5 60,-522.5 6,-522.5"/>
<text text-anchor="middle" x="33" y="-529.9" font-family="DejaVuSans" font-size="12.00">stdlib.h</text>
</a>
</g>
</g>
<!-- Node1&#45;&gt;Node2 -->
<g id="edge1" class="edge">
<title>Node1&#45;&gt;Node2</title>
<path fill="none" stroke="midnightblue" d="M353.97,-584.7C289.47,-577.38 172.71,-562.89 74,-544 72.75,-543.76 71.47,-543.51 70.19,-543.24"/>
<polygon fill="midnightblue" stroke="midnightblue" points="70.78,-539.79 60.26,-541.05 69.28,-546.62 70.78,-539.79"/>
</g>
<!-- Node3 -->
<g id="node3" class="node">
<title>Node3</title>
<g id="a_node3"><a xlink:href="tex_8h.html" target="_top" xlink:title=" ">
<polygon fill="white" stroke="black" points="411,-348.5 411,-369.5 453,-369.5 453,-348.5 411,-348.5"/>
<text text-anchor="middle" x="432" y="-355.9" font-family="DejaVuSans" font-size="12.00">tex.h</text>
</a>
</g>
</g>
<!-- Node1&#45;&gt;Node3 -->
<g id="edge2" class="edge">
<title>Node1&#45;&gt;Node3</title>
<path fill="none" stroke="midnightblue" d="M403.62,-580.37C405.45,-552.98 411.41,-472.28 422,-406 423.38,-397.34 425.36,-387.87 427.2,-379.78"/>
<polygon fill="midnightblue" stroke="midnightblue" points="430.66,-380.35 429.54,-369.81 423.84,-378.75 430.66,-380.35"/>
</g>
<!-- Node14 -->
<g id="node14" class="node">
<title>Node14</title>
<g id="a_node14"><a xlink:href="texmath_8h.html" target="_top" xlink:title=" ">
<polygon fill="white" stroke="black" points="154,-174.5 154,-195.5 222,-195.5 222,-174.5 154,-174.5"/>
<text text-anchor="middle" x="188" y="-181.9" font-family="DejaVuSans" font-size="12.00">texmath.h</text>
</a>
</g>
</g>
<!-- Node1&#45;&gt;Node14 -->
<g id="edge39" class="edge">
<title>Node1&#45;&gt;Node14</title>
<path fill="none" stroke="midnightblue" d="M353.8,-590.82C274.2,-589.29 126,-573.38 126,-476 126,-476 126,-476 126,-300 126,-261.81 153.18,-224.22 171.55,-203.17"/>
<polygon fill="midnightblue" stroke="midnightblue" points="174.19,-205.46 178.31,-195.7 169.01,-200.76 174.19,-205.46"/>
</g>
<!-- Node15 -->
<g id="node15" class="node">
<title>Node15</title>
<g id="a_node15"><a xlink:href="pack_8h.html" target="_top" xlink:title=" ">
<polygon fill="white" stroke="black" points="693,-522.5 693,-543.5 745,-543.5 745,-522.5 693,-522.5"/>
<text text-anchor="middle" x="719" y="-529.9" font-family="DejaVuSans" font-size="12.00">pack.h</text>
</a>
</g>
</g>
<!-- Node1&#45;&gt;Node15 -->
<g id="edge20" class="edge">
<title>Node1&#45;&gt;Node15</title>
<path fill="none" stroke="midnightblue" d="M452.08,-583.03C507.44,-574.89 600.05,-560.42 679,-544 680.26,-543.74 681.54,-543.46 682.84,-543.18"/>
<polygon fill="midnightblue" stroke="midnightblue" points="683.87,-546.53 692.82,-540.86 682.29,-539.71 683.87,-546.53"/>
</g>
<!-- Node16 -->
<g id="node16" class="node">
<title>Node16</title>
<g id="a_node16"><a xlink:href="mem_8h.html" target="_top" xlink:title=" ">
<polygon fill="white" stroke="black" points="44.5,-348.5 44.5,-369.5 97.5,-369.5 97.5,-348.5 44.5,-348.5"/>
<text text-anchor="middle" x="71" y="-355.9" font-family="DejaVuSans" font-size="12.00">mem.h</text>
</a>
</g>
</g>
<!-- Node1&#45;&gt;Node16 -->
<g id="edge21" class="edge">
<title>Node1&#45;&gt;Node16</title>
<path fill="none" stroke="midnightblue" d="M353.83,-588.73C280.15,-585.78 146.11,-576.04 112,-544 65.96,-500.75 66.04,-418.11 68.86,-380.07"/>
<polygon fill="midnightblue" stroke="midnightblue" points="72.38,-380.06 69.78,-369.79 65.41,-379.44 72.38,-380.06"/>
</g>
<!-- Node19 -->
<g id="node19" class="node">
<title>Node19</title>
<g id="a_node19"><a xlink:href="dviout_8h.html" target="_top" xlink:title=" ">
<polygon fill="white" stroke="black" points="431.5,-406.5 431.5,-427.5 490.5,-427.5 490.5,-406.5 431.5,-406.5"/>
<text text-anchor="middle" x="461" y="-413.9" font-family="DejaVuSans" font-size="12.00">dviout.h</text>
</a>
</g>
</g>
<!-- Node1&#45;&gt;Node19 -->
<g id="edge28" class="edge">
<title>Node1&#45;&gt;Node19</title>
<path fill="none" stroke="midnightblue" d="M406.28,-580.26C415.58,-552.71 442.17,-473.83 454.54,-437.17"/>
<polygon fill="midnightblue" stroke="midnightblue" points="457.87,-438.23 457.75,-427.63 451.24,-435.99 457.87,-438.23"/>
</g>
<!-- Node20 -->
<g id="node20" class="node">
<title>Node20</title>
<g id="a_node20"><a xlink:href="fonts_8h.html" target="_top" xlink:title=" ">
<polygon fill="white" stroke="black" points="631,-348.5 631,-369.5 683,-369.5 683,-348.5 631,-348.5"/>
<text text-anchor="middle" x="657" y="-355.9" font-family="DejaVuSans" font-size="12.00">fonts.h</text>
</a>
</g>
</g>
<!-- Node1&#45;&gt;Node20 -->
<g id="edge47" class="edge">
<title>Node1&#45;&gt;Node20</title>
<path fill="none" stroke="midnightblue" d="M452.09,-587.27C491.81,-582.97 547.59,-571.97 588,-544 636.24,-510.61 637.47,-485.09 651,-428 654.76,-412.14 656.21,-393.7 656.75,-380.03"/>
<polygon fill="midnightblue" stroke="midnightblue" points="660.25,-379.91 657.02,-369.83 653.26,-379.73 660.25,-379.91"/>
</g>
<!-- Node22 -->
<g id="node22" class="node">
<title>Node22</title>
<g id="a_node22"><a xlink:href="eqtb_8h.html" target="_top" xlink:title=" ">
<polygon fill="white" stroke="black" points="154,-348.5 154,-369.5 204,-369.5 204,-348.5 154,-348.5"/>
<text text-anchor="middle" x="179" y="-355.9" font-family="DejaVuSans" font-size="12.00">eqtb.h</text>
</a>
</g>
</g>
<!-- Node1&#45;&gt;Node22 -->
<g id="edge36" class="edge">
<title>Node1&#45;&gt;Node22</title>
<path fill="none" stroke="midnightblue" d="M393.66,-580.41C359.29,-545.12 239.57,-422.19 195.47,-376.91"/>
<polygon fill="midnightblue" stroke="midnightblue" points="197.86,-374.35 188.38,-369.63 192.85,-379.24 197.86,-374.35"/>
</g>
<!-- Node23 -->
<g id="node23" class="node">
<title>Node23</title>
<g id="a_node23"><a xlink:href="print_8h.html" target="_top" xlink:title=" ">
<polygon fill="white" stroke="black" points="285,-406.5 285,-427.5 335,-427.5 335,-406.5 285,-406.5"/>
<text text-anchor="middle" x="310" y="-413.9" font-family="DejaVuSans" font-size="12.00">print.h</text>
</a>
</g>
</g>
<!-- Node1&#45;&gt;Node23 -->
<g id="edge40" class="edge">
<title>Node1&#45;&gt;Node23</title>
<path fill="none" stroke="midnightblue" d="M397.73,-580.26C382.77,-552.59 339.82,-473.15 320.11,-436.7"/>
<polygon fill="midnightblue" stroke="midnightblue" points="323.04,-434.77 315.21,-427.63 316.89,-438.09 323.04,-434.77"/>
</g>
<!-- Node24 -->
<g id="node24" class="node">
<title>Node24</title>
<g id="a_node24"><a xlink:href="error_8h.html" target="_top" xlink:title=" ">
<polygon fill="white" stroke="black" points="763.5,-522.5 763.5,-543.5 814.5,-543.5 814.5,-522.5 763.5,-522.5"/>
<text text-anchor="middle" x="789" y="-529.9" font-family="DejaVuSans" font-size="12.00">error.h</text>
</a>
</g>
</g>
<!-- Node1&#45;&gt;Node24 -->
<g id="edge46" class="edge">
<title>Node1&#45;&gt;Node24</title>
<path fill="none" stroke="midnightblue" d="M452.22,-585.87C518.53,-579.79 640.33,-566.83 753.61,-543.8"/>
<polygon fill="midnightblue" stroke="midnightblue" points="754.41,-547.21 763.49,-541.76 752.99,-540.35 754.41,-547.21"/>
</g>
<!-- Node25 -->
<g id="node25" class="node">
<title>Node25</title>
<g id="a_node25"><a xlink:href="mmode_8h.html" target="_top" xlink:title=" ">
<polygon fill="white" stroke="black" points="513,-522.5 513,-543.5 579,-543.5 579,-522.5 513,-522.5"/>
<text text-anchor="middle" x="546" y="-529.9" font-family="DejaVuSans" font-size="12.00">mmode.h</text>
</a>
</g>
</g>
<!-- Node1&#45;&gt;Node25 -->
<g id="edge48" class="edge">
<title>Node1&#45;&gt;Node25</title>
<path fill="none" stroke="midnightblue" d="M427.58,-580.37C450.95,-571.22 486.29,-557.38 512.28,-547.21"/>
<polygon fill="midnightblue" stroke="midnightblue" points="513.7,-550.41 521.74,-543.5 511.15,-543.89 513.7,-550.41"/>
</g>
<!-- Node4 -->
<g id="node4" class="node">
<title>Node4</title>
<g id="a_node4"><a xlink:href="global__const_8h.html" target="_top" xlink:title=" ">
<polygon fill="white" stroke="black" points="549.5,-116.5 549.5,-137.5 642.5,-137.5 642.5,-116.5 549.5,-116.5"/>
<text text-anchor="middle" x="596" y="-123.9" font-family="DejaVuSans" font-size="12.00">global_const.h</text>
</a>
</g>
</g>
<!-- Node3&#45;&gt;Node4 -->
<g id="edge3" class="edge">
<title>Node3&#45;&gt;Node4</title>
<path fill="none" stroke="midnightblue" d="M439.86,-348.45C454.63,-330.35 487.39,-289.71 513,-254 539.82,-216.6 568.92,-171.19 584.54,-146.38"/>
<polygon fill="midnightblue" stroke="midnightblue" points="587.66,-147.99 590.01,-137.66 581.73,-144.27 587.66,-147.99"/>
</g>
<!-- Node7 -->
<g id="node7" class="node">
<title>Node7</title>
<g id="a_node7"><a xlink:href="tex__types_8h.html" target="_top" xlink:title=" ">
<polygon fill="white" stroke="black" points="211.5,-58.5 211.5,-79.5 288.5,-79.5 288.5,-58.5 211.5,-58.5"/>
<text text-anchor="middle" x="250" y="-65.9" font-family="DejaVuSans" font-size="12.00">tex_types.h</text>
</a>
</g>
</g>
<!-- Node3&#45;&gt;Node7 -->
<g id="edge6" class="edge">
<title>Node3&#45;&gt;Node7</title>
<path fill="none" stroke="midnightblue" d="M427.04,-348.33C416,-326.97 388.28,-274.3 362,-232 328.47,-178.05 284.62,-117.08 263.09,-87.7"/>
<polygon fill="midnightblue" stroke="midnightblue" points="265.9,-85.62 257.16,-79.64 260.26,-89.77 265.9,-85.62"/>
</g>
<!-- Node10 -->
<g id="node10" class="node">
<title>Node10</title>
<g id="a_node10"><a xlink:href="tex__constant_8h.html" target="_top" xlink:title=" ">
<polygon fill="white" stroke="black" points="283,-290.5 283,-311.5 377,-311.5 377,-290.5 283,-290.5"/>
<text text-anchor="middle" x="330" y="-297.9" font-family="DejaVuSans" font-size="12.00">tex_constant.h</text>
</a>
</g>
</g>
<!-- Node3&#45;&gt;Node10 -->
<g id="edge9" class="edge">
<title>Node3&#45;&gt;Node10</title>
<path fill="none" stroke="midnightblue" d="M414.23,-348.25C398.29,-339.49 374.67,-326.53 356.5,-316.55"/>
<polygon fill="midnightblue" stroke="midnightblue" points="358.01,-313.39 347.56,-311.64 354.64,-319.52 358.01,-313.39"/>
</g>
<!-- Node5 -->
<g id="node5" class="node">
<title>Node5</title>
<g id="a_node5"><a xlink:title=" ">
<polygon fill="white" stroke="#bfbfbf" points="610.5,-58.5 610.5,-79.5 669.5,-79.5 669.5,-58.5 610.5,-58.5"/>
<text text-anchor="middle" x="640" y="-65.9" font-family="DejaVuSans" font-size="12.00">assert.h</text>
</a>
</g>
</g>
<!-- Node4&#45;&gt;Node5 -->
<g id="edge4" class="edge">
<title>Node4&#45;&gt;Node5</title>
<path fill="none" stroke="midnightblue" d="M603.66,-116.25C609.85,-108.38 618.71,-97.1 626.13,-87.65"/>
<polygon fill="midnightblue" stroke="midnightblue" points="629,-89.67 632.42,-79.64 623.49,-85.34 629,-89.67"/>
</g>
<!-- Node6 -->
<g id="node6" class="node">
<title>Node6</title>
<g id="a_node6"><a xlink:title=" ">
<polygon fill="white" stroke="#bfbfbf" points="540,-58.5 540,-79.5 592,-79.5 592,-58.5 540,-58.5"/>
<text text-anchor="middle" x="566" y="-65.9" font-family="DejaVuSans" font-size="12.00">stdio.h</text>
</a>
</g>
</g>
<!-- Node4&#45;&gt;Node6 -->
<g id="edge5" class="edge">
<title>Node4&#45;&gt;Node6</title>
<path fill="none" stroke="midnightblue" d="M590.77,-116.25C586.69,-108.62 580.89,-97.79 575.93,-88.53"/>
<polygon fill="midnightblue" stroke="midnightblue" points="578.97,-86.8 571.17,-79.64 572.8,-90.11 578.97,-86.8"/>
</g>
<!-- Node8 -->
<g id="node8" class="node">
<title>Node8</title>
<g id="a_node8"><a xlink:title=" ">
<polygon fill="white" stroke="#bfbfbf" points="217.5,-0.5 217.5,-21.5 282.5,-21.5 282.5,-0.5 217.5,-0.5"/>
<text text-anchor="middle" x="250" y="-7.9" font-family="DejaVuSans" font-size="12.00">stdbool.h</text>
</a>
</g>
</g>
<!-- Node7&#45;&gt;Node8 -->
<g id="edge7" class="edge">
<title>Node7&#45;&gt;Node8</title>
<path fill="none" stroke="midnightblue" d="M250,-58.25C250,-50.94 250,-40.69 250,-31.7"/>
<polygon fill="midnightblue" stroke="midnightblue" points="253.5,-31.64 250,-21.64 246.5,-31.64 253.5,-31.64"/>
</g>
<!-- Node9 -->
<g id="node9" class="node">
<title>Node9</title>
<g id="a_node9"><a xlink:title=" ">
<polygon fill="white" stroke="#bfbfbf" points="377.5,-0.5 377.5,-21.5 432.5,-21.5 432.5,-0.5 377.5,-0.5"/>
<text text-anchor="middle" x="405" y="-7.9" font-family="DejaVuSans" font-size="12.00">stdint.h</text>
</a>
</g>
</g>
<!-- Node7&#45;&gt;Node9 -->
<g id="edge8" class="edge">
<title>Node7&#45;&gt;Node9</title>
<path fill="none" stroke="midnightblue" d="M276.65,-58.37C302.2,-49.14 340.95,-35.14 369.19,-24.94"/>
<polygon fill="midnightblue" stroke="midnightblue" points="370.49,-28.19 378.7,-21.5 368.11,-21.61 370.49,-28.19"/>
</g>
<!-- Node11 -->
<g id="node11" class="node">
<title>Node11</title>
<g id="a_node11"><a xlink:href="box_8h.html" target="_top" xlink:title=" ">
<polygon fill="white" stroke="black" points="307,-232.5 307,-253.5 353,-253.5 353,-232.5 307,-232.5"/>
<text text-anchor="middle" x="330" y="-239.9" font-family="DejaVuSans" font-size="12.00">box.h</text>
</a>
</g>
</g>
<!-- Node10&#45;&gt;Node11 -->
<g id="edge10" class="edge">
<title>Node10&#45;&gt;Node11</title>
<path fill="none" stroke="midnightblue" d="M330,-290.25C330,-282.94 330,-272.69 330,-263.7"/>
<polygon fill="midnightblue" stroke="midnightblue" points="333.5,-263.64 330,-253.64 326.5,-263.64 333.5,-263.64"/>
</g>
<!-- Node12 -->
<g id="node12" class="node">
<title>Node12</title>
<g id="a_node12"><a xlink:href="str_8h.html" target="_top" xlink:title=" ">
<polygon fill="white" stroke="black" points="489.5,-174.5 489.5,-195.5 528.5,-195.5 528.5,-174.5 489.5,-174.5"/>
<text text-anchor="middle" x="509" y="-181.9" font-family="DejaVuSans" font-size="12.00">str.h</text>
</a>
</g>
</g>
<!-- Node11&#45;&gt;Node12 -->
<g id="edge11" class="edge">
<title>Node11&#45;&gt;Node12</title>
<path fill="none" stroke="midnightblue" d="M353.03,-234.79C385.35,-224.68 444.14,-206.29 479.58,-195.2"/>
<polygon fill="midnightblue" stroke="midnightblue" points="480.85,-198.47 489.35,-192.15 478.76,-191.79 480.85,-198.47"/>
</g>
<!-- Node11&#45;&gt;Node14 -->
<g id="edge18" class="edge">
<title>Node11&#45;&gt;Node14</title>
<path fill="none" stroke="midnightblue" d="M306.87,-232.88C283.87,-223.81 248.34,-209.79 222.1,-199.45"/>
<polygon fill="midnightblue" stroke="midnightblue" points="223.14,-196.09 212.55,-195.68 220.57,-202.61 223.14,-196.09"/>
</g>
<!-- Node12&#45;&gt;Node4 -->
<g id="edge14" class="edge">
<title>Node12&#45;&gt;Node4</title>
<path fill="none" stroke="midnightblue" d="M524.15,-174.25C537.5,-165.65 557.16,-153 572.54,-143.1"/>
<polygon fill="midnightblue" stroke="midnightblue" points="574.51,-146 581.02,-137.64 570.72,-140.11 574.51,-146"/>
</g>
<!-- Node12&#45;&gt;Node6 -->
<g id="edge12" class="edge">
<title>Node12&#45;&gt;Node6</title>
<path fill="none" stroke="midnightblue" d="M513.38,-174.23C519.39,-160.94 530.62,-136.49 541,-116 545.6,-106.91 550.97,-96.96 555.55,-88.64"/>
<polygon fill="midnightblue" stroke="midnightblue" points="558.67,-90.22 560.47,-79.78 552.55,-86.83 558.67,-90.22"/>
</g>
<!-- Node12&#45;&gt;Node7 -->
<g id="edge17" class="edge">
<title>Node12&#45;&gt;Node7</title>
<path fill="none" stroke="midnightblue" d="M499.64,-174.11C485.07,-159.29 455.46,-131.43 425,-116 384.95,-95.72 335.09,-83.75 298.84,-77.13"/>
<polygon fill="midnightblue" stroke="midnightblue" points="298.99,-73.6 288.53,-75.32 297.78,-80.49 298.99,-73.6"/>
</g>
<!-- Node12&#45;&gt;Node9 -->
<g id="edge13" class="edge">
<title>Node12&#45;&gt;Node9</title>
<path fill="none" stroke="midnightblue" d="M503.11,-174.26C486.31,-146.47 437.94,-66.47 416.02,-30.23"/>
<polygon fill="midnightblue" stroke="midnightblue" points="418.99,-28.38 410.82,-21.63 413,-32 418.99,-28.38"/>
</g>
<!-- Node13 -->
<g id="node13" class="node">
<title>Node13</title>
<g id="a_node13"><a xlink:href="charset_8h.html" target="_top" xlink:title=" ">
<polygon fill="white" stroke="black" points="351.5,-116.5 351.5,-137.5 416.5,-137.5 416.5,-116.5 351.5,-116.5"/>
<text text-anchor="middle" x="384" y="-123.9" font-family="DejaVuSans" font-size="12.00">charset.h</text>
</a>
</g>
</g>
<!-- Node12&#45;&gt;Node13 -->
<g id="edge15" class="edge">
<title>Node12&#45;&gt;Node13</title>
<path fill="none" stroke="midnightblue" d="M489.47,-175.25C469.43,-166.27 437.98,-152.18 414.63,-141.72"/>
<polygon fill="midnightblue" stroke="midnightblue" points="416.05,-138.52 405.49,-137.63 413.18,-144.91 416.05,-138.52"/>
</g>
<!-- Node13&#45;&gt;Node7 -->
<g id="edge16" class="edge">
<title>Node13&#45;&gt;Node7</title>
<path fill="none" stroke="midnightblue" d="M360.96,-116.37C339.26,-107.3 306.54,-93.63 282.25,-83.48"/>
<polygon fill="midnightblue" stroke="midnightblue" points="283.31,-80.13 272.73,-79.5 280.61,-86.59 283.31,-80.13"/>
</g>
<!-- Node14&#45;&gt;Node7 -->
<g id="edge19" class="edge">
<title>Node14&#45;&gt;Node7</title>
<path fill="none" stroke="midnightblue" d="M193.29,-174.28C203.58,-155.35 226.48,-113.25 239.82,-88.72"/>
<polygon fill="midnightblue" stroke="midnightblue" points="243.02,-90.15 244.73,-79.69 236.87,-86.81 243.02,-90.15"/>
</g>
<!-- Node16&#45;&gt;Node7 -->
<g id="edge22" class="edge">
<title>Node16&#45;&gt;Node7</title>
<path fill="none" stroke="midnightblue" d="M73.44,-348.31C78.14,-328.74 88,-283.02 88,-244 88,-244 88,-244 88,-184 88,-127.86 153.88,-96.96 201.62,-81.94"/>
<polygon fill="midnightblue" stroke="midnightblue" points="202.63,-85.29 211.2,-79.06 200.61,-78.59 202.63,-85.29"/>
</g>
<!-- Node16&#45;&gt;Node10 -->
<g id="edge23" class="edge">
<title>Node16&#45;&gt;Node10</title>
<path fill="none" stroke="midnightblue" d="M97.74,-352.22C139.6,-343.17 221.42,-325.48 275.91,-313.69"/>
<polygon fill="midnightblue" stroke="midnightblue" points="276.72,-317.1 285.75,-311.57 275.24,-310.26 276.72,-317.1"/>
</g>
<!-- Node17 -->
<g id="node17" class="node">
<title>Node17</title>
<g id="a_node17"><a xlink:href="global_8h.html" target="_top" xlink:title=" ">
<polygon fill="white" stroke="black" points="2,-116.5 2,-137.5 60,-137.5 60,-116.5 2,-116.5"/>
<text text-anchor="middle" x="31" y="-123.9" font-family="DejaVuSans" font-size="12.00">global.h</text>
</a>
</g>
</g>
<!-- Node16&#45;&gt;Node17 -->
<g id="edge24" class="edge">
<title>Node16&#45;&gt;Node17</title>
<path fill="none" stroke="midnightblue" d="M69.33,-348.41C63.31,-313.78 42.61,-194.74 34.4,-147.52"/>
<polygon fill="midnightblue" stroke="midnightblue" points="37.84,-146.88 32.67,-137.63 30.94,-148.08 37.84,-146.88"/>
</g>
<!-- Node17&#45;&gt;Node6 -->
<g id="edge25" class="edge">
<title>Node17&#45;&gt;Node6</title>
<path fill="none" stroke="midnightblue" d="M60.14,-122.95C151.03,-113.44 429.19,-84.32 529.47,-73.82"/>
<polygon fill="midnightblue" stroke="midnightblue" points="530.13,-77.27 539.71,-72.75 529.4,-70.31 530.13,-77.27"/>
</g>
<!-- Node17&#45;&gt;Node7 -->
<g id="edge27" class="edge">
<title>Node17&#45;&gt;Node7</title>
<path fill="none" stroke="midnightblue" d="M60.08,-118.56C96.57,-109.23 159.6,-93.12 202.97,-82.02"/>
<polygon fill="midnightblue" stroke="midnightblue" points="203.91,-85.4 212.73,-79.53 202.18,-78.62 203.91,-85.4"/>
</g>
<!-- Node18 -->
<g id="node18" class="node">
<title>Node18</title>
<g id="a_node18"><a xlink:title=" ">
<polygon fill="white" stroke="#bfbfbf" points="0,-58.5 0,-79.5 62,-79.5 62,-58.5 0,-58.5"/>
<text text-anchor="middle" x="31" y="-65.9" font-family="DejaVuSans" font-size="12.00">setjmp.h</text>
</a>
</g>
</g>
<!-- Node17&#45;&gt;Node18 -->
<g id="edge26" class="edge">
<title>Node17&#45;&gt;Node18</title>
<path fill="none" stroke="midnightblue" d="M31,-116.25C31,-108.94 31,-98.69 31,-89.7"/>
<polygon fill="midnightblue" stroke="midnightblue" points="34.5,-89.64 31,-79.64 27.5,-89.64 34.5,-89.64"/>
</g>
<!-- Node19&#45;&gt;Node13 -->
<g id="edge29" class="edge">
<title>Node19&#45;&gt;Node13</title>
<path fill="none" stroke="midnightblue" d="M461.49,-406.31C462.09,-393.12 462.89,-368.76 462,-348 460.89,-322.15 463.52,-315.04 457,-290 442.76,-235.28 411.49,-175.88 394.88,-146.54"/>
<polygon fill="midnightblue" stroke="midnightblue" points="397.87,-144.72 389.85,-137.8 391.8,-148.21 397.87,-144.72"/>
</g>
<!-- Node19&#45;&gt;Node20 -->
<g id="edge30" class="edge">
<title>Node19&#45;&gt;Node20</title>
<path fill="none" stroke="midnightblue" d="M490.77,-407.49C525.62,-397.54 583.32,-381.05 620.74,-370.36"/>
<polygon fill="midnightblue" stroke="midnightblue" points="622.07,-373.62 630.73,-367.51 620.15,-366.89 622.07,-373.62"/>
</g>
<!-- Node20&#45;&gt;Node4 -->
<g id="edge32" class="edge">
<title>Node20&#45;&gt;Node4</title>
<path fill="none" stroke="midnightblue" d="M683.06,-354.38C722.65,-347.56 791.57,-329.75 774,-290 742.9,-219.65 664.49,-166.71 622.89,-142.52"/>
<polygon fill="midnightblue" stroke="midnightblue" points="624.54,-139.43 614.12,-137.53 621.08,-145.51 624.54,-139.43"/>
</g>
<!-- Node20&#45;&gt;Node6 -->
<g id="edge31" class="edge">
<title>Node20&#45;&gt;Node6</title>
<path fill="none" stroke="midnightblue" d="M662.36,-348.13C680.69,-312.95 736.9,-191.7 685,-116 680.02,-108.74 635.3,-92.74 602.13,-81.67"/>
<polygon fill="midnightblue" stroke="midnightblue" points="602.86,-78.23 592.27,-78.41 600.66,-84.87 602.86,-78.23"/>
</g>
<!-- Node20&#45;&gt;Node10 -->
<g id="edge33" class="edge">
<title>Node20&#45;&gt;Node10</title>
<path fill="none" stroke="midnightblue" d="M630.79,-353.51C578.21,-344.51 458.78,-324.05 387.24,-311.8"/>
<polygon fill="midnightblue" stroke="midnightblue" points="387.49,-308.29 377.04,-310.06 386.31,-315.19 387.49,-308.29"/>
</g>
<!-- Node20&#45;&gt;Node12 -->
<g id="edge34" class="edge">
<title>Node20&#45;&gt;Node12</title>
<path fill="none" stroke="midnightblue" d="M648.62,-348.26C624.5,-320.23 554.7,-239.11 523.9,-203.32"/>
<polygon fill="midnightblue" stroke="midnightblue" points="526.46,-200.93 517.29,-195.63 521.16,-205.5 526.46,-200.93"/>
</g>
<!-- Node21 -->
<g id="node21" class="node">
<title>Node21</title>
<g id="a_node21"><a xlink:href="macros_8h.html" target="_top" xlink:title=" ">
<polygon fill="white" stroke="black" points="699.5,-290.5 699.5,-311.5 764.5,-311.5 764.5,-290.5 699.5,-290.5"/>
<text text-anchor="middle" x="732" y="-297.9" font-family="DejaVuSans" font-size="12.00">macros.h</text>
</a>
</g>
</g>
<!-- Node20&#45;&gt;Node21 -->
<g id="edge35" class="edge">
<title>Node20&#45;&gt;Node21</title>
<path fill="none" stroke="midnightblue" d="M670.06,-348.25C681.36,-339.81 697.88,-327.47 711.03,-317.66"/>
<polygon fill="midnightblue" stroke="midnightblue" points="713.17,-320.43 719.09,-311.64 708.98,-314.82 713.17,-320.43"/>
</g>
<!-- Node22&#45;&gt;Node7 -->
<g id="edge37" class="edge">
<title>Node22&#45;&gt;Node7</title>
<path fill="none" stroke="midnightblue" d="M173.56,-348.41C158.44,-320.44 118.74,-236.96 145,-174 161.25,-135.02 200.01,-103.17 225.62,-85.4"/>
<polygon fill="midnightblue" stroke="midnightblue" points="227.73,-88.2 234.07,-79.71 223.82,-82.39 227.73,-88.2"/>
</g>
<!-- Node22&#45;&gt;Node10 -->
<g id="edge38" class="edge">
<title>Node22&#45;&gt;Node10</title>
<path fill="none" stroke="midnightblue" d="M204.27,-348.63C228.95,-339.48 266.72,-325.47 294.43,-315.19"/>
<polygon fill="midnightblue" stroke="midnightblue" points="295.98,-318.35 304.14,-311.59 293.54,-311.79 295.98,-318.35"/>
</g>
<!-- Node23&#45;&gt;Node3 -->
<g id="edge43" class="edge">
<title>Node23&#45;&gt;Node3</title>
<path fill="none" stroke="midnightblue" d="M330.97,-406.37C350.56,-397.38 380,-383.87 402.05,-373.75"/>
<polygon fill="midnightblue" stroke="midnightblue" points="403.67,-376.85 411.3,-369.5 400.75,-370.49 403.67,-376.85"/>
</g>
<!-- Node23&#45;&gt;Node7 -->
<g id="edge42" class="edge">
<title>Node23&#45;&gt;Node7</title>
<path fill="none" stroke="midnightblue" d="M300.14,-406.42C291.9,-397.74 280.61,-384.18 275,-370 235.75,-270.79 243.2,-139.05 247.83,-89.74"/>
<polygon fill="midnightblue" stroke="midnightblue" points="251.34,-89.83 248.86,-79.52 244.37,-89.12 251.34,-89.83"/>
</g>
<!-- Node23&#45;&gt;Node12 -->
<g id="edge45" class="edge">
<title>Node23&#45;&gt;Node12</title>
<path fill="none" stroke="midnightblue" d="M318.3,-406.41C348.7,-371.27 454.31,-249.21 493.88,-203.48"/>
<polygon fill="midnightblue" stroke="midnightblue" points="496.77,-205.48 500.67,-195.63 491.48,-200.9 496.77,-205.48"/>
</g>
<!-- Node23&#45;&gt;Node13 -->
<g id="edge41" class="edge">
<title>Node23&#45;&gt;Node13</title>
<path fill="none" stroke="midnightblue" d="M303.94,-406.33C291.56,-385.39 265.22,-334.18 274,-290 286.18,-228.7 337.6,-171.89 365.62,-144.74"/>
<polygon fill="midnightblue" stroke="midnightblue" points="368.31,-147.01 373.17,-137.59 363.5,-141.93 368.31,-147.01"/>
</g>
<!-- Node23&#45;&gt;Node22 -->
<g id="edge44" class="edge">
<title>Node23&#45;&gt;Node22</title>
<path fill="none" stroke="midnightblue" d="M287.48,-406.37C266.26,-397.3 234.27,-383.63 210.52,-373.48"/>
<polygon fill="midnightblue" stroke="midnightblue" points="211.8,-370.21 201.23,-369.5 209.05,-376.65 211.8,-370.21"/>
</g>
<!-- Node25&#45;&gt;Node13 -->
<g id="edge49" class="edge">
<title>Node25&#45;&gt;Node13</title>
<path fill="none" stroke="midnightblue" d="M542.13,-522.42C534.67,-503.05 519,-457.66 519,-418 519,-418 519,-418 519,-358 519,-267.17 439.73,-180.49 402.68,-144.94"/>
<polygon fill="midnightblue" stroke="midnightblue" points="404.73,-142.06 395.05,-137.77 399.94,-147.16 404.73,-142.06"/>
</g>
<!-- Node25&#45;&gt;Node20 -->
<g id="edge50" class="edge">
<title>Node25&#45;&gt;Node20</title>
<path fill="none" stroke="midnightblue" d="M563.93,-522.44C577.63,-514.33 596.13,-501.56 608,-486 633.04,-453.18 646.8,-405.99 652.96,-379.66"/>
<polygon fill="midnightblue" stroke="midnightblue" points="656.41,-380.27 655.15,-369.75 649.58,-378.76 656.41,-380.27"/>
</g>
<!-- Node26 -->
<g id="node26" class="node">
<title>Node26</title>
<g id="a_node26"><a xlink:href="scan_8h.html" target="_top" xlink:title=" ">
<polygon fill="white" stroke="black" points="547,-464.5 547,-485.5 599,-485.5 599,-464.5 547,-464.5"/>
<text text-anchor="middle" x="573" y="-471.9" font-family="DejaVuSans" font-size="12.00">scan.h</text>
</a>
</g>
</g>
<!-- Node25&#45;&gt;Node26 -->
<g id="edge51" class="edge">
<title>Node25&#45;&gt;Node26</title>
<path fill="none" stroke="midnightblue" d="M550.7,-522.25C554.34,-514.7 559.49,-504.02 563.93,-494.82"/>
<polygon fill="midnightblue" stroke="midnightblue" points="567.16,-496.17 568.35,-485.64 560.86,-493.13 567.16,-496.17"/>
</g>
<!-- Node27 -->
<g id="node27" class="node">
<title>Node27</title>
<g id="a_node27"><a xlink:href="lexer_8h.html" target="_top" xlink:title=" ">
<polygon fill="white" stroke="black" points="547,-406.5 547,-427.5 599,-427.5 599,-406.5 547,-406.5"/>
<text text-anchor="middle" x="573" y="-413.9" font-family="DejaVuSans" font-size="12.00">lexer.h</text>
</a>
</g>
</g>
<!-- Node26&#45;&gt;Node27 -->
<g id="edge52" class="edge">
<title>Node26&#45;&gt;Node27</title>
<path fill="none" stroke="midnightblue" d="M573,-464.25C573,-456.94 573,-446.69 573,-437.7"/>
<polygon fill="midnightblue" stroke="midnightblue" points="576.5,-437.64 573,-427.64 569.5,-437.64 576.5,-437.64"/>
</g>
<!-- Node27&#45;&gt;Node3 -->
<g id="edge54" class="edge">
<title>Node27&#45;&gt;Node3</title>
<path fill="none" stroke="midnightblue" d="M548.76,-406.37C524.88,-396.89 488.33,-382.37 462.49,-372.11"/>
<polygon fill="midnightblue" stroke="midnightblue" points="463.75,-368.84 453.16,-368.41 461.16,-375.35 463.75,-368.84"/>
</g>
<!-- Node27&#45;&gt;Node6 -->
<g id="edge53" class="edge">
<title>Node27&#45;&gt;Node6</title>
<path fill="none" stroke="midnightblue" d="M580.46,-406.44C609.85,-367.5 713.18,-218.1 652,-116 645.94,-105.88 620.98,-93.14 599.51,-83.64"/>
<polygon fill="midnightblue" stroke="midnightblue" points="600.84,-80.4 590.27,-79.65 598.07,-86.83 600.84,-80.4"/>
</g>
</g>
</svg>
