<?xml version="1.0" encoding="UTF-8" standalone="no"?>
<!DOCTYPE svg PUBLIC "-//W3C//DTD SVG 1.1//EN"
 "http://www.w3.org/Graphics/SVG/1.1/DTD/svg11.dtd">
<!-- Generated by graphviz version 2.44.0 ()
 -->
<!-- Title: math_formula.c Pages: 1 -->
<svg width="856pt" height="726pt"
 viewBox="0.00 0.00 855.50 726.00" xmlns="http://www.w3.org/2000/svg" xmlns:xlink="http://www.w3.org/1999/xlink">
<g id="graph0" class="graph" transform="scale(1 1) rotate(0) translate(4 722)">
<title>math_formula.c</title>
<polygon fill="white" stroke="transparent" points="-4,4 -4,-722 851.5,-722 851.5,4 -4,4"/>
<!-- Node1 -->
<g id="node1" class="node">
<title>Node1</title>
<g id="a_node1"><a xlink:title=" ">
<polygon fill="#bfbfbf" stroke="black" points="411,-696.5 411,-717.5 509,-717.5 509,-696.5 411,-696.5"/>
<text text-anchor="middle" x="460" y="-703.9" font-family="DejaVuSans" font-size="12.00">math_formula.c</text>
</a>
</g>
</g>
<!-- Node2 -->
<g id="node2" class="node">
<title>Node2</title>
<g id="a_node2"><a xlink:title=" ">
<polygon fill="white" stroke="#bfbfbf" points="0,-638.5 0,-659.5 54,-659.5 54,-638.5 0,-638.5"/>
<text text-anchor="middle" x="27" y="-645.9" font-family="DejaVuSans" font-size="12.00">stdlib.h</text>
</a>
</g>
</g>
<!-- Node1&#45;&gt;Node2 -->
<g id="edge1" class="edge">
<title>Node1&#45;&gt;Node2</title>
<path fill="none" stroke="midnightblue" d="M410.83,-702.18C336.28,-695.94 190.4,-682.02 68,-660 66.74,-659.77 65.47,-659.53 64.18,-659.28"/>
<polygon fill="midnightblue" stroke="midnightblue" points="64.76,-655.82 54.25,-657.14 63.29,-662.67 64.76,-655.82"/>
</g>
<!-- Node3 -->
<g id="node3" class="node">
<title>Node3</title>
<g id="a_node3"><a xlink:href="tex_8h.html" target="_top" xlink:title=" ">
<polygon fill="white" stroke="black" points="309,-290.5 309,-311.5 351,-311.5 351,-290.5 309,-290.5"/>
<text text-anchor="middle" x="330" y="-297.9" font-family="DejaVuSans" font-size="12.00">tex.h</text>
</a>
</g>
</g>
<!-- Node1&#45;&gt;Node3 -->
<g id="edge2" class="edge">
<title>Node1&#45;&gt;Node3</title>
<path fill="none" stroke="midnightblue" d="M410.92,-699.96C316.77,-686.98 120,-652.62 120,-592 120,-592 120,-592 120,-416 120,-335.75 239.93,-311.68 298.52,-304.72"/>
<polygon fill="midnightblue" stroke="midnightblue" points="299.15,-308.17 308.71,-303.61 298.39,-301.21 299.15,-308.17"/>
</g>
<!-- Node13 -->
<g id="node13" class="node">
<title>Node13</title>
<g id="a_node13"><a xlink:href="pack_8h.html" target="_top" xlink:title=" ">
<polygon fill="white" stroke="black" points="726,-638.5 726,-659.5 778,-659.5 778,-638.5 726,-638.5"/>
<text text-anchor="middle" x="752" y="-645.9" font-family="DejaVuSans" font-size="12.00">pack.h</text>
</a>
</g>
</g>
<!-- Node1&#45;&gt;Node13 -->
<g id="edge15" class="edge">
<title>Node1&#45;&gt;Node13</title>
<path fill="none" stroke="midnightblue" d="M509.09,-698.73C558.9,-691.01 638.39,-677.77 715.78,-660.11"/>
<polygon fill="midnightblue" stroke="midnightblue" points="716.74,-663.48 725.7,-657.82 715.17,-656.66 716.74,-663.48"/>
</g>
<!-- Node14 -->
<g id="node14" class="node">
<title>Node14</title>
<g id="a_node14"><a xlink:href="mem_8h.html" target="_top" xlink:title=" ">
<polygon fill="white" stroke="black" points="203.5,-522.5 203.5,-543.5 256.5,-543.5 256.5,-522.5 203.5,-522.5"/>
<text text-anchor="middle" x="230" y="-529.9" font-family="DejaVuSans" font-size="12.00">mem.h</text>
</a>
</g>
</g>
<!-- Node1&#45;&gt;Node14 -->
<g id="edge16" class="edge">
<title>Node1&#45;&gt;Node14</title>
<path fill="none" stroke="midnightblue" d="M410.88,-702.4C350.49,-694.96 250.98,-672.11 210,-602 200.93,-586.49 208.72,-566.55 217.08,-552.28"/>
<polygon fill="midnightblue" stroke="midnightblue" points="220.04,-554.14 222.48,-543.82 214.15,-550.36 220.04,-554.14"/>
</g>
<!-- Node19 -->
<g id="node19" class="node">
<title>Node19</title>
<g id="a_node19"><a xlink:href="dviout_8h.html" target="_top" xlink:title=" ">
<polygon fill="white" stroke="black" points="648.5,-638.5 648.5,-659.5 707.5,-659.5 707.5,-638.5 648.5,-638.5"/>
<text text-anchor="middle" x="678" y="-645.9" font-family="DejaVuSans" font-size="12.00">dviout.h</text>
</a>
</g>
</g>
<!-- Node1&#45;&gt;Node19 -->
<g id="edge25" class="edge">
<title>Node1&#45;&gt;Node19</title>
<path fill="none" stroke="midnightblue" d="M497.48,-696.37C536.87,-686.25 598.57,-670.4 638.65,-660.11"/>
<polygon fill="midnightblue" stroke="midnightblue" points="639.54,-663.49 648.35,-657.62 637.79,-656.71 639.54,-663.49"/>
</g>
<!-- Node20 -->
<g id="node20" class="node">
<title>Node20</title>
<g id="a_node20"><a xlink:href="fonts_8h.html" target="_top" xlink:title=" ">
<polygon fill="white" stroke="black" points="594,-580.5 594,-601.5 646,-601.5 646,-580.5 594,-580.5"/>
<text text-anchor="middle" x="620" y="-587.9" font-family="DejaVuSans" font-size="12.00">fonts.h</text>
</a>
</g>
</g>
<!-- Node1&#45;&gt;Node20 -->
<g id="edge42" class="edge">
<title>Node1&#45;&gt;Node20</title>
<path fill="none" stroke="midnightblue" d="M509.28,-701.59C539.62,-696.35 577.13,-684.92 601,-660 613.3,-647.16 617.76,-627.05 619.32,-612.02"/>
<polygon fill="midnightblue" stroke="midnightblue" points="622.83,-611.94 620.02,-601.72 615.85,-611.46 622.83,-611.94"/>
</g>
<!-- Node21 -->
<g id="node21" class="node">
<title>Node21</title>
<g id="a_node21"><a xlink:href="eqtb_8h.html" target="_top" xlink:title=" ">
<polygon fill="white" stroke="black" points="382,-290.5 382,-311.5 432,-311.5 432,-290.5 382,-290.5"/>
<text text-anchor="middle" x="407" y="-297.9" font-family="DejaVuSans" font-size="12.00">eqtb.h</text>
</a>
</g>
</g>
<!-- Node1&#45;&gt;Node21 -->
<g id="edge29" class="edge">
<title>Node1&#45;&gt;Node21</title>
<path fill="none" stroke="midnightblue" d="M460,-696.24C460,-676.54 460,-630.59 460,-592 460,-592 460,-592 460,-416 460,-379.14 436.94,-341.3 421.24,-319.82"/>
<polygon fill="midnightblue" stroke="midnightblue" points="423.88,-317.51 415.05,-311.66 418.31,-321.74 423.88,-317.51"/>
</g>
<!-- Node22 -->
<g id="node22" class="node">
<title>Node22</title>
<g id="a_node22"><a xlink:href="texmath_8h.html" target="_top" xlink:title=" ">
<polygon fill="white" stroke="black" points="17,-464.5 17,-485.5 85,-485.5 85,-464.5 17,-464.5"/>
<text text-anchor="middle" x="51" y="-471.9" font-family="DejaVuSans" font-size="12.00">texmath.h</text>
</a>
</g>
</g>
<!-- Node1&#45;&gt;Node22 -->
<g id="edge32" class="edge">
<title>Node1&#45;&gt;Node22</title>
<path fill="none" stroke="midnightblue" d="M410.83,-706.01C324.58,-705.02 150.91,-698.19 106,-660 56.74,-618.11 50.55,-534.09 50.45,-495.81"/>
<polygon fill="midnightblue" stroke="midnightblue" points="53.95,-495.54 50.57,-485.5 46.95,-495.46 53.95,-495.54"/>
</g>
<!-- Node23 -->
<g id="node23" class="node">
<title>Node23</title>
<g id="a_node23"><a xlink:href="print_8h.html" target="_top" xlink:title=" ">
<polygon fill="white" stroke="black" points="359,-638.5 359,-659.5 409,-659.5 409,-638.5 359,-638.5"/>
<text text-anchor="middle" x="384" y="-645.9" font-family="DejaVuSans" font-size="12.00">print.h</text>
</a>
</g>
</g>
<!-- Node1&#45;&gt;Node23 -->
<g id="edge34" class="edge">
<title>Node1&#45;&gt;Node23</title>
<path fill="none" stroke="midnightblue" d="M446.76,-696.25C435.32,-687.81 418.57,-675.47 405.25,-665.66"/>
<polygon fill="midnightblue" stroke="midnightblue" points="407.21,-662.76 397.09,-659.64 403.06,-668.39 407.21,-662.76"/>
</g>
<!-- Node24 -->
<g id="node24" class="node">
<title>Node24</title>
<g id="a_node24"><a xlink:href="texmac_8h.html" target="_top" xlink:title=" ">
<polygon fill="white" stroke="black" points="219.5,-580.5 219.5,-601.5 284.5,-601.5 284.5,-580.5 219.5,-580.5"/>
<text text-anchor="middle" x="252" y="-587.9" font-family="DejaVuSans" font-size="12.00">texmac.h</text>
</a>
</g>
</g>
<!-- Node1&#45;&gt;Node24 -->
<g id="edge40" class="edge">
<title>Node1&#45;&gt;Node24</title>
<path fill="none" stroke="midnightblue" d="M432.59,-696.38C409.87,-687.97 377.05,-674.82 350,-660 321.65,-644.46 291.44,-622.59 272.18,-607.89"/>
<polygon fill="midnightblue" stroke="midnightblue" points="274.19,-605.03 264.14,-601.68 269.92,-610.57 274.19,-605.03"/>
</g>
<!-- Node25 -->
<g id="node25" class="node">
<title>Node25</title>
<g id="a_node25"><a xlink:href="error_8h.html" target="_top" xlink:title=" ">
<polygon fill="white" stroke="black" points="796.5,-638.5 796.5,-659.5 847.5,-659.5 847.5,-638.5 796.5,-638.5"/>
<text text-anchor="middle" x="822" y="-645.9" font-family="DejaVuSans" font-size="12.00">error.h</text>
</a>
</g>
</g>
<!-- Node1&#45;&gt;Node25 -->
<g id="edge41" class="edge">
<title>Node1&#45;&gt;Node25</title>
<path fill="none" stroke="midnightblue" d="M509.12,-701.24C571.41,-694.72 682.22,-681.56 786.43,-659.86"/>
<polygon fill="midnightblue" stroke="midnightblue" points="787.43,-663.22 796.49,-657.73 785.98,-656.37 787.43,-663.22"/>
</g>
<!-- Node26 -->
<g id="node26" class="node">
<title>Node26</title>
<g id="a_node26"><a xlink:href="texfunc_8h.html" target="_top" xlink:title=" ">
<polygon fill="white" stroke="black" points="488.5,-522.5 488.5,-543.5 553.5,-543.5 553.5,-522.5 488.5,-522.5"/>
<text text-anchor="middle" x="521" y="-529.9" font-family="DejaVuSans" font-size="12.00">texfunc.h</text>
</a>
</g>
</g>
<!-- Node1&#45;&gt;Node26 -->
<g id="edge43" class="edge">
<title>Node1&#45;&gt;Node26</title>
<path fill="none" stroke="midnightblue" d="M463.45,-696.26C473.23,-668.71 501.2,-589.83 514.2,-553.17"/>
<polygon fill="midnightblue" stroke="midnightblue" points="517.54,-554.23 517.58,-543.63 510.94,-551.89 517.54,-554.23"/>
</g>
<!-- Node27 -->
<g id="node27" class="node">
<title>Node27</title>
<g id="a_node27"><a xlink:href="mmode_8h.html" target="_top" xlink:title=" ">
<polygon fill="white" stroke="black" points="526,-638.5 526,-659.5 592,-659.5 592,-638.5 526,-638.5"/>
<text text-anchor="middle" x="559" y="-645.9" font-family="DejaVuSans" font-size="12.00">mmode.h</text>
</a>
</g>
</g>
<!-- Node1&#45;&gt;Node27 -->
<g id="edge45" class="edge">
<title>Node1&#45;&gt;Node27</title>
<path fill="none" stroke="midnightblue" d="M477.24,-696.25C492.58,-687.57 515.22,-674.76 532.79,-664.82"/>
<polygon fill="midnightblue" stroke="midnightblue" points="534.97,-667.61 541.95,-659.64 531.53,-661.52 534.97,-667.61"/>
</g>
<!-- Node4 -->
<g id="node4" class="node">
<title>Node4</title>
<g id="a_node4"><a xlink:href="tex__types_8h.html" target="_top" xlink:title=" ">
<polygon fill="white" stroke="black" points="233.5,-58.5 233.5,-79.5 310.5,-79.5 310.5,-58.5 233.5,-58.5"/>
<text text-anchor="middle" x="272" y="-65.9" font-family="DejaVuSans" font-size="12.00">tex_types.h</text>
</a>
</g>
</g>
<!-- Node3&#45;&gt;Node4 -->
<g id="edge3" class="edge">
<title>Node3&#45;&gt;Node4</title>
<path fill="none" stroke="midnightblue" d="M318.65,-290.3C309.49,-281.76 297.16,-268.45 291,-254 267.23,-198.26 268.18,-124.74 270.32,-89.92"/>
<polygon fill="midnightblue" stroke="midnightblue" points="273.83,-89.9 271.06,-79.68 266.85,-89.4 273.83,-89.9"/>
</g>
<!-- Node7 -->
<g id="node7" class="node">
<title>Node7</title>
<g id="a_node7"><a xlink:href="tex__constant_8h.html" target="_top" xlink:title=" ">
<polygon fill="white" stroke="black" points="300,-232.5 300,-253.5 394,-253.5 394,-232.5 300,-232.5"/>
<text text-anchor="middle" x="347" y="-239.9" font-family="DejaVuSans" font-size="12.00">tex_constant.h</text>
</a>
</g>
</g>
<!-- Node3&#45;&gt;Node7 -->
<g id="edge6" class="edge">
<title>Node3&#45;&gt;Node7</title>
<path fill="none" stroke="midnightblue" d="M332.96,-290.25C335.2,-282.86 338.36,-272.47 341.11,-263.41"/>
<polygon fill="midnightblue" stroke="midnightblue" points="344.52,-264.23 344.07,-253.64 337.82,-262.19 344.52,-264.23"/>
</g>
<!-- Node5 -->
<g id="node5" class="node">
<title>Node5</title>
<g id="a_node5"><a xlink:title=" ">
<polygon fill="white" stroke="#bfbfbf" points="239.5,-0.5 239.5,-21.5 304.5,-21.5 304.5,-0.5 239.5,-0.5"/>
<text text-anchor="middle" x="272" y="-7.9" font-family="DejaVuSans" font-size="12.00">stdbool.h</text>
</a>
</g>
</g>
<!-- Node4&#45;&gt;Node5 -->
<g id="edge4" class="edge">
<title>Node4&#45;&gt;Node5</title>
<path fill="none" stroke="midnightblue" d="M272,-58.25C272,-50.94 272,-40.69 272,-31.7"/>
<polygon fill="midnightblue" stroke="midnightblue" points="275.5,-31.64 272,-21.64 268.5,-31.64 275.5,-31.64"/>
</g>
<!-- Node6 -->
<g id="node6" class="node">
<title>Node6</title>
<g id="a_node6"><a xlink:title=" ">
<polygon fill="white" stroke="#bfbfbf" points="328.5,-0.5 328.5,-21.5 383.5,-21.5 383.5,-0.5 328.5,-0.5"/>
<text text-anchor="middle" x="356" y="-7.9" font-family="DejaVuSans" font-size="12.00">stdint.h</text>
</a>
</g>
</g>
<!-- Node4&#45;&gt;Node6 -->
<g id="edge5" class="edge">
<title>Node4&#45;&gt;Node6</title>
<path fill="none" stroke="midnightblue" d="M286.63,-58.25C299.4,-49.73 318.14,-37.24 332.93,-27.38"/>
<polygon fill="midnightblue" stroke="midnightblue" points="335.16,-30.1 341.54,-21.64 331.27,-24.28 335.16,-30.1"/>
</g>
<!-- Node8 -->
<g id="node8" class="node">
<title>Node8</title>
<g id="a_node8"><a xlink:href="box_8h.html" target="_top" xlink:title=" ">
<polygon fill="white" stroke="black" points="386,-174.5 386,-195.5 432,-195.5 432,-174.5 386,-174.5"/>
<text text-anchor="middle" x="409" y="-181.9" font-family="DejaVuSans" font-size="12.00">box.h</text>
</a>
</g>
</g>
<!-- Node7&#45;&gt;Node8 -->
<g id="edge7" class="edge">
<title>Node7&#45;&gt;Node8</title>
<path fill="none" stroke="midnightblue" d="M357.8,-232.25C366.87,-224.05 380.02,-212.17 390.72,-202.51"/>
<polygon fill="midnightblue" stroke="midnightblue" points="393.25,-204.94 398.32,-195.64 388.56,-199.75 393.25,-204.94"/>
</g>
<!-- Node9 -->
<g id="node9" class="node">
<title>Node9</title>
<g id="a_node9"><a xlink:href="str_8h.html" target="_top" xlink:title=" ">
<polygon fill="white" stroke="black" points="390.5,-116.5 390.5,-137.5 429.5,-137.5 429.5,-116.5 390.5,-116.5"/>
<text text-anchor="middle" x="410" y="-123.9" font-family="DejaVuSans" font-size="12.00">str.h</text>
</a>
</g>
</g>
<!-- Node8&#45;&gt;Node9 -->
<g id="edge8" class="edge">
<title>Node8&#45;&gt;Node9</title>
<path fill="none" stroke="midnightblue" d="M409.17,-174.25C409.3,-166.94 409.49,-156.69 409.65,-147.7"/>
<polygon fill="midnightblue" stroke="midnightblue" points="413.15,-147.7 409.83,-137.64 406.15,-147.58 413.15,-147.7"/>
</g>
<!-- Node9&#45;&gt;Node4 -->
<g id="edge14" class="edge">
<title>Node9&#45;&gt;Node4</title>
<path fill="none" stroke="midnightblue" d="M390.23,-117.98C367.93,-108.93 331.31,-94.07 304.72,-83.28"/>
<polygon fill="midnightblue" stroke="midnightblue" points="306.01,-80.02 295.43,-79.51 303.38,-86.51 306.01,-80.02"/>
</g>
<!-- Node9&#45;&gt;Node6 -->
<g id="edge10" class="edge">
<title>Node9&#45;&gt;Node6</title>
<path fill="none" stroke="midnightblue" d="M405.4,-116.28C396.47,-97.43 376.66,-55.62 365.03,-31.05"/>
<polygon fill="midnightblue" stroke="midnightblue" points="368.04,-29.23 360.59,-21.69 361.71,-32.23 368.04,-29.23"/>
</g>
<!-- Node10 -->
<g id="node10" class="node">
<title>Node10</title>
<g id="a_node10"><a xlink:title=" ">
<polygon fill="white" stroke="#bfbfbf" points="484,-0.5 484,-21.5 536,-21.5 536,-0.5 484,-0.5"/>
<text text-anchor="middle" x="510" y="-7.9" font-family="DejaVuSans" font-size="12.00">stdio.h</text>
</a>
</g>
</g>
<!-- Node9&#45;&gt;Node10 -->
<g id="edge9" class="edge">
<title>Node9&#45;&gt;Node10</title>
<path fill="none" stroke="midnightblue" d="M413.46,-116.37C418.82,-102.38 430.2,-76.12 446,-58 456.71,-45.72 471.31,-34.91 483.86,-26.86"/>
<polygon fill="midnightblue" stroke="midnightblue" points="485.87,-29.73 492.55,-21.5 482.2,-23.77 485.87,-29.73"/>
</g>
<!-- Node11 -->
<g id="node11" class="node">
<title>Node11</title>
<g id="a_node11"><a xlink:href="global__const_8h.html" target="_top" xlink:title=" ">
<polygon fill="white" stroke="black" points="580.5,-58.5 580.5,-79.5 673.5,-79.5 673.5,-58.5 580.5,-58.5"/>
<text text-anchor="middle" x="627" y="-65.9" font-family="DejaVuSans" font-size="12.00">global_const.h</text>
</a>
</g>
</g>
<!-- Node9&#45;&gt;Node11 -->
<g id="edge11" class="edge">
<title>Node9&#45;&gt;Node11</title>
<path fill="none" stroke="midnightblue" d="M429.64,-120.93C463.37,-112.23 533.19,-94.21 580.07,-82.11"/>
<polygon fill="midnightblue" stroke="midnightblue" points="581.19,-85.44 590,-79.55 579.44,-78.66 581.19,-85.44"/>
</g>
<!-- Node11&#45;&gt;Node10 -->
<g id="edge13" class="edge">
<title>Node11&#45;&gt;Node10</title>
<path fill="none" stroke="midnightblue" d="M606.89,-58.37C588.19,-49.42 560.13,-35.99 539.01,-25.88"/>
<polygon fill="midnightblue" stroke="midnightblue" points="540.38,-22.66 529.85,-21.5 537.36,-28.98 540.38,-22.66"/>
</g>
<!-- Node12 -->
<g id="node12" class="node">
<title>Node12</title>
<g id="a_node12"><a xlink:title=" ">
<polygon fill="white" stroke="#bfbfbf" points="597.5,-0.5 597.5,-21.5 656.5,-21.5 656.5,-0.5 597.5,-0.5"/>
<text text-anchor="middle" x="627" y="-7.9" font-family="DejaVuSans" font-size="12.00">assert.h</text>
</a>
</g>
</g>
<!-- Node11&#45;&gt;Node12 -->
<g id="edge12" class="edge">
<title>Node11&#45;&gt;Node12</title>
<path fill="none" stroke="midnightblue" d="M627,-58.25C627,-50.94 627,-40.69 627,-31.7"/>
<polygon fill="midnightblue" stroke="midnightblue" points="630.5,-31.64 627,-21.64 623.5,-31.64 630.5,-31.64"/>
</g>
<!-- Node14&#45;&gt;Node4 -->
<g id="edge17" class="edge">
<title>Node14&#45;&gt;Node4</title>
<path fill="none" stroke="midnightblue" d="M212.15,-522.39C172.78,-499.75 82,-438.99 82,-360 82,-360 82,-360 82,-184 82,-118.27 166.64,-89.5 222.94,-77.63"/>
<polygon fill="midnightblue" stroke="midnightblue" points="223.97,-80.99 233.09,-75.61 222.6,-74.13 223.97,-80.99"/>
</g>
<!-- Node15 -->
<g id="node15" class="node">
<title>Node15</title>
<g id="a_node15"><a xlink:href="global_8h.html" target="_top" xlink:title=" ">
<polygon fill="white" stroke="black" points="236,-464.5 236,-485.5 294,-485.5 294,-464.5 236,-464.5"/>
<text text-anchor="middle" x="265" y="-471.9" font-family="DejaVuSans" font-size="12.00">global.h</text>
</a>
</g>
</g>
<!-- Node14&#45;&gt;Node15 -->
<g id="edge18" class="edge">
<title>Node14&#45;&gt;Node15</title>
<path fill="none" stroke="midnightblue" d="M236.1,-522.25C240.91,-514.54 247.78,-503.56 253.6,-494.23"/>
<polygon fill="midnightblue" stroke="midnightblue" points="256.64,-495.98 258.97,-485.64 250.71,-492.27 256.64,-495.98"/>
</g>
<!-- Node15&#45;&gt;Node9 -->
<g id="edge20" class="edge">
<title>Node15&#45;&gt;Node9</title>
<path fill="none" stroke="midnightblue" d="M263.62,-464.05C259.32,-429.59 248.87,-312.97 291,-232 311.82,-191.98 354.98,-160.47 383.2,-143.04"/>
<polygon fill="midnightblue" stroke="midnightblue" points="385.37,-145.83 392.14,-137.68 381.77,-139.82 385.37,-145.83"/>
</g>
<!-- Node16 -->
<g id="node16" class="node">
<title>Node16</title>
<g id="a_node16"><a xlink:title=" ">
<polygon fill="white" stroke="#bfbfbf" points="186,-406.5 186,-427.5 248,-427.5 248,-406.5 186,-406.5"/>
<text text-anchor="middle" x="217" y="-413.9" font-family="DejaVuSans" font-size="12.00">setjmp.h</text>
</a>
</g>
</g>
<!-- Node15&#45;&gt;Node16 -->
<g id="edge19" class="edge">
<title>Node15&#45;&gt;Node16</title>
<path fill="none" stroke="midnightblue" d="M256.64,-464.25C249.82,-456.3 240.03,-444.87 231.88,-435.37"/>
<polygon fill="midnightblue" stroke="midnightblue" points="234.43,-432.96 225.27,-427.64 229.12,-437.51 234.43,-432.96"/>
</g>
<!-- Node17 -->
<g id="node17" class="node">
<title>Node17</title>
<g id="a_node17"><a xlink:href="scan_8h.html" target="_top" xlink:title=" ">
<polygon fill="white" stroke="black" points="304,-406.5 304,-427.5 356,-427.5 356,-406.5 304,-406.5"/>
<text text-anchor="middle" x="330" y="-413.9" font-family="DejaVuSans" font-size="12.00">scan.h</text>
</a>
</g>
</g>
<!-- Node15&#45;&gt;Node17 -->
<g id="edge21" class="edge">
<title>Node15&#45;&gt;Node17</title>
<path fill="none" stroke="midnightblue" d="M276.32,-464.25C285.92,-455.97 299.89,-443.94 311.17,-434.22"/>
<polygon fill="midnightblue" stroke="midnightblue" points="313.52,-436.82 318.81,-427.64 308.95,-431.52 313.52,-436.82"/>
</g>
<!-- Node18 -->
<g id="node18" class="node">
<title>Node18</title>
<g id="a_node18"><a xlink:href="lexer_8h.html" target="_top" xlink:title=" ">
<polygon fill="white" stroke="black" points="304,-348.5 304,-369.5 356,-369.5 356,-348.5 304,-348.5"/>
<text text-anchor="middle" x="330" y="-355.9" font-family="DejaVuSans" font-size="12.00">lexer.h</text>
</a>
</g>
</g>
<!-- Node17&#45;&gt;Node18 -->
<g id="edge22" class="edge">
<title>Node17&#45;&gt;Node18</title>
<path fill="none" stroke="midnightblue" d="M330,-406.25C330,-398.94 330,-388.69 330,-379.7"/>
<polygon fill="midnightblue" stroke="midnightblue" points="333.5,-379.64 330,-369.64 326.5,-379.64 333.5,-379.64"/>
</g>
<!-- Node18&#45;&gt;Node3 -->
<g id="edge24" class="edge">
<title>Node18&#45;&gt;Node3</title>
<path fill="none" stroke="midnightblue" d="M330,-348.25C330,-340.94 330,-330.69 330,-321.7"/>
<polygon fill="midnightblue" stroke="midnightblue" points="333.5,-321.64 330,-311.64 326.5,-321.64 333.5,-321.64"/>
</g>
<!-- Node18&#45;&gt;Node10 -->
<g id="edge23" class="edge">
<title>Node18&#45;&gt;Node10</title>
<path fill="none" stroke="midnightblue" d="M356.26,-353.88C381.51,-348.55 419,-336.82 441,-312 461.81,-288.52 460,-275.38 460,-244 460,-244 460,-244 460,-126 460,-89.5 481.76,-51.55 496.57,-29.94"/>
<polygon fill="midnightblue" stroke="midnightblue" points="499.46,-31.91 502.41,-21.74 493.76,-27.86 499.46,-31.91"/>
</g>
<!-- Node19&#45;&gt;Node20 -->
<g id="edge26" class="edge">
<title>Node19&#45;&gt;Node20</title>
<path fill="none" stroke="midnightblue" d="M667.9,-638.25C659.5,-630.14 647.35,-618.41 637.39,-608.79"/>
<polygon fill="midnightblue" stroke="midnightblue" points="639.61,-606.07 629.99,-601.64 634.75,-611.11 639.61,-606.07"/>
</g>
<!-- Node20&#45;&gt;Node10 -->
<g id="edge27" class="edge">
<title>Node20&#45;&gt;Node10</title>
<path fill="none" stroke="midnightblue" d="M618.18,-580.45C605.61,-514.37 531.5,-124.96 513.8,-31.94"/>
<polygon fill="midnightblue" stroke="midnightblue" points="517.19,-31.07 511.88,-21.9 510.32,-32.38 517.19,-31.07"/>
</g>
<!-- Node20&#45;&gt;Node11 -->
<g id="edge28" class="edge">
<title>Node20&#45;&gt;Node11</title>
<path fill="none" stroke="midnightblue" d="M620,-580.24C620,-560.54 620,-514.59 620,-476 620,-476 620,-476 620,-184 620,-150.92 622.97,-112.55 625.04,-89.82"/>
<polygon fill="midnightblue" stroke="midnightblue" points="628.54,-90.03 626,-79.75 621.57,-89.37 628.54,-90.03"/>
</g>
<!-- Node21&#45;&gt;Node4 -->
<g id="edge30" class="edge">
<title>Node21&#45;&gt;Node4</title>
<path fill="none" stroke="midnightblue" d="M408.23,-290.38C409.56,-276.84 410.6,-251.63 403,-232 399.71,-223.5 320.32,-127.87 286.76,-87.65"/>
<polygon fill="midnightblue" stroke="midnightblue" points="289.43,-85.39 280.34,-79.96 284.06,-89.88 289.43,-85.39"/>
</g>
<!-- Node21&#45;&gt;Node7 -->
<g id="edge31" class="edge">
<title>Node21&#45;&gt;Node7</title>
<path fill="none" stroke="midnightblue" d="M396.55,-290.25C387.77,-282.05 375.04,-270.17 364.69,-260.51"/>
<polygon fill="midnightblue" stroke="midnightblue" points="367.03,-257.91 357.33,-253.64 362.25,-263.02 367.03,-257.91"/>
</g>
<!-- Node22&#45;&gt;Node4 -->
<g id="edge33" class="edge">
<title>Node22&#45;&gt;Node4</title>
<path fill="none" stroke="midnightblue" d="M50,-464.25C48.06,-444.57 44,-398.67 44,-360 44,-360 44,-360 44,-184 44,-151.95 44.05,-137.29 68,-116 90.64,-95.87 170.45,-82.44 223.27,-75.53"/>
<polygon fill="midnightblue" stroke="midnightblue" points="223.97,-78.97 233.45,-74.23 223.09,-72.02 223.97,-78.97"/>
</g>
<!-- Node23&#45;&gt;Node3 -->
<g id="edge36" class="edge">
<title>Node23&#45;&gt;Node3</title>
<path fill="none" stroke="midnightblue" d="M384,-638.24C384,-618.54 384,-572.59 384,-534 384,-534 384,-534 384,-416 384,-384.62 378.97,-376.1 365,-348 359.96,-337.86 352.56,-327.73 345.87,-319.56"/>
<polygon fill="midnightblue" stroke="midnightblue" points="348.43,-317.17 339.27,-311.84 343.11,-321.72 348.43,-317.17"/>
</g>
<!-- Node23&#45;&gt;Node4 -->
<g id="edge35" class="edge">
<title>Node23&#45;&gt;Node4</title>
<path fill="none" stroke="midnightblue" d="M375.22,-638.34C355.75,-617.01 307.31,-564.37 265,-522 248.56,-505.54 243.06,-502.83 227,-486 203.51,-461.38 193.08,-458 177,-428 162.18,-400.34 158,-391.38 158,-360 158,-360 158,-360 158,-184 158,-136.8 207.47,-102.31 241.24,-84.27"/>
<polygon fill="midnightblue" stroke="midnightblue" points="242.99,-87.31 250.29,-79.63 239.79,-81.08 242.99,-87.31"/>
</g>
<!-- Node23&#45;&gt;Node9 -->
<g id="edge39" class="edge">
<title>Node23&#45;&gt;Node9</title>
<path fill="none" stroke="midnightblue" d="M389.61,-638.3C400.18,-619.07 422,-574.47 422,-534 422,-534 422,-534 422,-474 422,-390.43 498,-385.57 498,-302 498,-302 498,-302 498,-242 498,-199.54 459.28,-163.25 433.21,-143.63"/>
<polygon fill="midnightblue" stroke="midnightblue" points="435.08,-140.66 424.93,-137.63 430.97,-146.33 435.08,-140.66"/>
</g>
<!-- Node23&#45;&gt;Node24 -->
<g id="edge37" class="edge">
<title>Node23&#45;&gt;Node24</title>
<path fill="none" stroke="midnightblue" d="M361.31,-638.37C339.93,-629.3 307.69,-615.63 283.76,-605.48"/>
<polygon fill="midnightblue" stroke="midnightblue" points="284.97,-602.18 274.4,-601.5 282.23,-608.63 284.97,-602.18"/>
</g>
<!-- Node24&#45;&gt;Node14 -->
<g id="edge38" class="edge">
<title>Node24&#45;&gt;Node14</title>
<path fill="none" stroke="midnightblue" d="M248.17,-580.25C245.23,-572.78 241.1,-562.24 237.51,-553.11"/>
<polygon fill="midnightblue" stroke="midnightblue" points="240.7,-551.67 233.79,-543.64 234.19,-554.23 240.7,-551.67"/>
</g>
<!-- Node26&#45;&gt;Node9 -->
<g id="edge44" class="edge">
<title>Node26&#45;&gt;Node9</title>
<path fill="none" stroke="midnightblue" d="M523.15,-522.3C527.3,-502.7 536,-456.93 536,-418 536,-418 536,-418 536,-242 536,-209.95 533.69,-197.6 512,-174 492.74,-153.04 462.1,-141 439.43,-134.54"/>
<polygon fill="midnightblue" stroke="midnightblue" points="440.2,-131.12 429.64,-131.95 438.41,-137.89 440.2,-131.12"/>
</g>
<!-- Node27&#45;&gt;Node20 -->
<g id="edge46" class="edge">
<title>Node27&#45;&gt;Node20</title>
<path fill="none" stroke="midnightblue" d="M569.63,-638.25C578.55,-630.05 591.49,-618.17 602.02,-608.51"/>
<polygon fill="midnightblue" stroke="midnightblue" points="604.5,-610.98 609.5,-601.64 599.76,-605.83 604.5,-610.98"/>
</g>
</g>
</svg>
