<?xml version="1.0" encoding="UTF-8" standalone="no"?>
<!DOCTYPE svg PUBLIC "-//W3C//DTD SVG 1.1//EN"
 "http://www.w3.org/Graphics/SVG/1.1/DTD/svg11.dtd">
<!-- Generated by graphviz version 2.44.0 ()
 -->
<!-- Title: mem.h Pages: 1 -->
<svg width="2058pt" height="262pt"
 viewBox="0.00 0.00 2057.50 262.00" xmlns="http://www.w3.org/2000/svg" xmlns:xlink="http://www.w3.org/1999/xlink">
<g id="graph0" class="graph" transform="scale(1 1) rotate(0) translate(4 258)">
<title>mem.h</title>
<polygon fill="white" stroke="transparent" points="-4,4 -4,-258 2053.5,-258 2053.5,4 -4,4"/>
<!-- Node1 -->
<g id="node1" class="node">
<title>Node1</title>
<g id="a_node1"><a xlink:title=" ">
<polygon fill="#bfbfbf" stroke="black" points="772,-232.5 772,-253.5 825,-253.5 825,-232.5 772,-232.5"/>
<text text-anchor="middle" x="798.5" y="-239.9" font-family="DejaVuSans" font-size="12.00">mem.h</text>
</a>
</g>
</g>
<!-- Node2 -->
<g id="node2" class="node">
<title>Node2</title>
<g id="a_node2"><a xlink:href="align_8c.html" target="_top" xlink:title=" ">
<polygon fill="white" stroke="black" points="0,-58.5 0,-79.5 51,-79.5 51,-58.5 0,-58.5"/>
<text text-anchor="middle" x="25.5" y="-65.9" font-family="DejaVuSans" font-size="12.00">align.c</text>
</a>
</g>
</g>
<!-- Node1&#45;&gt;Node2 -->
<g id="edge1" class="edge">
<title>Node1&#45;&gt;Node2</title>
<path fill="none" stroke="midnightblue" d="M761.2,-240.49C689.14,-236.98 526.12,-226.13 392.5,-196 258.11,-165.7 104.24,-103.4 47.77,-79.57"/>
<polygon fill="midnightblue" stroke="midnightblue" points="761.41,-244 771.56,-240.97 761.74,-237.01 761.41,-244"/>
</g>
<!-- Node3 -->
<g id="node3" class="node">
<title>Node3</title>
<g id="a_node3"><a xlink:href="box_8c.html" target="_top" xlink:title=" ">
<polygon fill="white" stroke="black" points="402,-174.5 402,-195.5 447,-195.5 447,-174.5 402,-174.5"/>
<text text-anchor="middle" x="424.5" y="-181.9" font-family="DejaVuSans" font-size="12.00">box.c</text>
</a>
</g>
</g>
<!-- Node1&#45;&gt;Node3 -->
<g id="edge2" class="edge">
<title>Node1&#45;&gt;Node3</title>
<path fill="none" stroke="midnightblue" d="M761.54,-238.52C699.24,-232.31 569.55,-217.88 461.5,-196 456.8,-195.05 451.82,-193.84 447.09,-192.6"/>
<polygon fill="midnightblue" stroke="midnightblue" points="761.36,-242.02 771.66,-239.52 762.05,-235.06 761.36,-242.02"/>
</g>
<!-- Node4 -->
<g id="node4" class="node">
<title>Node4</title>
<g id="a_node4"><a xlink:href="box__copy_8c.html" target="_top" xlink:title=" ">
<polygon fill="white" stroke="black" points="884,-116.5 884,-137.5 961,-137.5 961,-116.5 884,-116.5"/>
<text text-anchor="middle" x="922.5" y="-123.9" font-family="DejaVuSans" font-size="12.00">box_copy.c</text>
</a>
</g>
</g>
<!-- Node1&#45;&gt;Node4 -->
<g id="edge3" class="edge">
<title>Node1&#45;&gt;Node4</title>
<path fill="none" stroke="midnightblue" d="M825.96,-227.14C839.8,-218.95 856.39,-208.01 869.5,-196 889.36,-177.8 907.5,-151.57 916.51,-137.61"/>
<polygon fill="midnightblue" stroke="midnightblue" points="823.81,-224.34 816.89,-232.36 827.3,-230.41 823.81,-224.34"/>
</g>
<!-- Node5 -->
<g id="node5" class="node">
<title>Node5</title>
<g id="a_node5"><a xlink:href="box__destroy_8c.html" target="_top" xlink:title=" ">
<polygon fill="white" stroke="black" points="979,-116.5 979,-137.5 1070,-137.5 1070,-116.5 979,-116.5"/>
<text text-anchor="middle" x="1024.5" y="-123.9" font-family="DejaVuSans" font-size="12.00">box_destroy.c</text>
</a>
</g>
</g>
<!-- Node1&#45;&gt;Node5 -->
<g id="edge4" class="edge">
<title>Node1&#45;&gt;Node5</title>
<path fill="none" stroke="midnightblue" d="M827.5,-228C846.12,-218.96 870.79,-206.9 892.5,-196 933.28,-175.52 980.77,-150.85 1006.2,-137.58"/>
<polygon fill="midnightblue" stroke="midnightblue" points="825.84,-224.92 818.36,-232.43 828.89,-231.22 825.84,-224.92"/>
</g>
<!-- Node6 -->
<g id="node6" class="node">
<title>Node6</title>
<g id="a_node6"><a xlink:href="box__display_8c.html" target="_top" xlink:title=" ">
<polygon fill="white" stroke="black" points="69,-58.5 69,-79.5 158,-79.5 158,-58.5 69,-58.5"/>
<text text-anchor="middle" x="113.5" y="-65.9" font-family="DejaVuSans" font-size="12.00">box_display.c</text>
</a>
</g>
</g>
<!-- Node1&#45;&gt;Node6 -->
<g id="edge5" class="edge">
<title>Node1&#45;&gt;Node6</title>
<path fill="none" stroke="midnightblue" d="M761.81,-235.51C716.26,-227.27 636.31,-212.15 568.5,-196 408.03,-157.79 218.67,-101.79 145.01,-79.58"/>
<polygon fill="midnightblue" stroke="midnightblue" points="761.34,-238.99 771.8,-237.31 762.58,-232.1 761.34,-238.99"/>
</g>
<!-- Node7 -->
<g id="node7" class="node">
<title>Node7</title>
<g id="a_node7"><a xlink:href="dviout_8c.html" target="_top" xlink:title=" ">
<polygon fill="white" stroke="black" points="175.5,-58.5 175.5,-79.5 233.5,-79.5 233.5,-58.5 175.5,-58.5"/>
<text text-anchor="middle" x="204.5" y="-65.9" font-family="DejaVuSans" font-size="12.00">dviout.c</text>
</a>
</g>
</g>
<!-- Node1&#45;&gt;Node7 -->
<g id="edge6" class="edge">
<title>Node1&#45;&gt;Node7</title>
<path fill="none" stroke="midnightblue" d="M761.78,-237.58C721.55,-231.78 655.79,-219.46 603.5,-196 575.26,-183.33 518.26,-127.43 489.5,-116 386.41,-75.02 351.2,-102.15 242.5,-80 239.69,-79.43 236.78,-78.77 233.88,-78.08"/>
<polygon fill="midnightblue" stroke="midnightblue" points="761.54,-241.08 771.93,-238.98 762.5,-234.14 761.54,-241.08"/>
</g>
<!-- Node8 -->
<g id="node8" class="node">
<title>Node8</title>
<g id="a_node8"><a xlink:href="eqtb__save_8c.html" target="_top" xlink:title=" ">
<polygon fill="white" stroke="black" points="252,-58.5 252,-79.5 333,-79.5 333,-58.5 252,-58.5"/>
<text text-anchor="middle" x="292.5" y="-65.9" font-family="DejaVuSans" font-size="12.00">eqtb_save.c</text>
</a>
</g>
</g>
<!-- Node1&#45;&gt;Node8 -->
<g id="edge7" class="edge">
<title>Node1&#45;&gt;Node8</title>
<path fill="none" stroke="midnightblue" d="M761.72,-234.94C728.87,-227.79 679.97,-215.05 640.5,-196 585.08,-169.25 584.09,-140.17 527.5,-116 450.07,-82.93 424.08,-96.42 341.5,-80 338.77,-79.46 335.97,-78.9 333.14,-78.33"/>
<polygon fill="midnightblue" stroke="midnightblue" points="761.29,-238.42 771.8,-237.06 762.73,-231.57 761.29,-238.42"/>
</g>
<!-- Node9 -->
<g id="node9" class="node">
<title>Node9</title>
<g id="a_node9"><a xlink:href="expand_8c.html" target="_top" xlink:title=" ">
<polygon fill="white" stroke="black" points="1624,-58.5 1624,-79.5 1689,-79.5 1689,-58.5 1624,-58.5"/>
<text text-anchor="middle" x="1656.5" y="-65.9" font-family="DejaVuSans" font-size="12.00">expand.c</text>
</a>
</g>
</g>
<!-- Node1&#45;&gt;Node9 -->
<g id="edge8" class="edge">
<title>Node1&#45;&gt;Node9</title>
<path fill="none" stroke="midnightblue" d="M835.23,-242.37C960.72,-243.2 1371.39,-242.25 1493.5,-196 1562.4,-169.9 1625.96,-104.22 1648.16,-79.56"/>
<polygon fill="midnightblue" stroke="midnightblue" points="835.03,-238.87 825,-242.29 834.97,-245.87 835.03,-238.87"/>
</g>
<!-- Node10 -->
<g id="node10" class="node">
<title>Node10</title>
<g id="a_node10"><a xlink:href="fonts_8c.html" target="_top" xlink:title=" ">
<polygon fill="white" stroke="black" points="351,-58.5 351,-79.5 402,-79.5 402,-58.5 351,-58.5"/>
<text text-anchor="middle" x="376.5" y="-65.9" font-family="DejaVuSans" font-size="12.00">fonts.c</text>
</a>
</g>
</g>
<!-- Node1&#45;&gt;Node10 -->
<g id="edge9" class="edge">
<title>Node1&#45;&gt;Node10</title>
<path fill="none" stroke="midnightblue" d="M762.17,-231.1C737.32,-222.98 704.02,-210.77 676.5,-196 622.92,-167.25 620.87,-141.15 565.5,-116 501.11,-86.75 478.9,-97.99 410.5,-80 407.76,-79.28 404.91,-78.5 402.08,-77.69"/>
<polygon fill="midnightblue" stroke="midnightblue" points="761.33,-234.51 771.93,-234.22 763.47,-227.84 761.33,-234.51"/>
</g>
<!-- Node11 -->
<g id="node11" class="node">
<title>Node11</title>
<g id="a_node11"><a xlink:href="hyphen_8c.html" target="_top" xlink:title=" ">
<polygon fill="white" stroke="black" points="420,-58.5 420,-79.5 485,-79.5 485,-58.5 420,-58.5"/>
<text text-anchor="middle" x="452.5" y="-65.9" font-family="DejaVuSans" font-size="12.00">hyphen.c</text>
</a>
</g>
</g>
<!-- Node1&#45;&gt;Node11 -->
<g id="edge10" class="edge">
<title>Node1&#45;&gt;Node11</title>
<path fill="none" stroke="midnightblue" d="M768.23,-227.94C750.68,-219.4 728.38,-207.88 709.5,-196 659.55,-164.56 656.09,-142.79 603.5,-116 582.74,-105.43 522.97,-88.61 485.15,-78.51"/>
<polygon fill="midnightblue" stroke="midnightblue" points="766.92,-231.19 777.45,-232.37 769.95,-224.88 766.92,-231.19"/>
</g>
<!-- Node12 -->
<g id="node12" class="node">
<title>Node12</title>
<g id="a_node12"><a xlink:href="hyphen__init_8c.html" target="_top" xlink:title=" ">
<polygon fill="white" stroke="black" points="503.5,-58.5 503.5,-79.5 591.5,-79.5 591.5,-58.5 503.5,-58.5"/>
<text text-anchor="middle" x="547.5" y="-65.9" font-family="DejaVuSans" font-size="12.00">hyphen_init.c</text>
</a>
</g>
</g>
<!-- Node1&#45;&gt;Node12 -->
<g id="edge11" class="edge">
<title>Node1&#45;&gt;Node12</title>
<path fill="none" stroke="midnightblue" d="M776.94,-226.14C765.18,-217.39 750.42,-206.24 737.5,-196 693.98,-161.49 688.11,-146.2 641.5,-116 618.63,-101.18 590.29,-87.93 570.74,-79.51"/>
<polygon fill="midnightblue" stroke="midnightblue" points="775.15,-229.17 785.27,-232.31 779.32,-223.55 775.15,-229.17"/>
</g>
<!-- Node13 -->
<g id="node13" class="node">
<title>Node13</title>
<g id="a_node13"><a xlink:href="hyphen__post_8c.html" target="_top" xlink:title=" ">
<polygon fill="white" stroke="black" points="1088,-116.5 1088,-137.5 1183,-137.5 1183,-116.5 1088,-116.5"/>
<text text-anchor="middle" x="1135.5" y="-123.9" font-family="DejaVuSans" font-size="12.00">hyphen_post.c</text>
</a>
</g>
</g>
<!-- Node1&#45;&gt;Node13 -->
<g id="edge12" class="edge">
<title>Node1&#45;&gt;Node13</title>
<path fill="none" stroke="midnightblue" d="M835.04,-229.64C902.78,-206.72 1046.51,-158.1 1107.36,-137.52"/>
<polygon fill="midnightblue" stroke="midnightblue" points="833.58,-226.44 825.23,-232.96 835.82,-233.07 833.58,-226.44"/>
</g>
<!-- Node14 -->
<g id="node14" class="node">
<title>Node14</title>
<g id="a_node14"><a xlink:href="hyphen__pre_8c.html" target="_top" xlink:title=" ">
<polygon fill="white" stroke="black" points="609,-58.5 609,-79.5 698,-79.5 698,-58.5 609,-58.5"/>
<text text-anchor="middle" x="653.5" y="-65.9" font-family="DejaVuSans" font-size="12.00">hyphen_pre.c</text>
</a>
</g>
</g>
<!-- Node1&#45;&gt;Node14 -->
<g id="edge13" class="edge">
<title>Node1&#45;&gt;Node14</title>
<path fill="none" stroke="midnightblue" d="M783.79,-224.55C753.51,-188.64 685.13,-107.53 661.62,-79.63"/>
<polygon fill="midnightblue" stroke="midnightblue" points="781.17,-226.87 790.29,-232.26 786.52,-222.36 781.17,-226.87"/>
</g>
<!-- Node15 -->
<g id="node15" class="node">
<title>Node15</title>
<g id="a_node15"><a xlink:href="lexer_8c.html" target="_top" xlink:title=" ">
<polygon fill="white" stroke="black" points="716,-58.5 716,-79.5 767,-79.5 767,-58.5 716,-58.5"/>
<text text-anchor="middle" x="741.5" y="-65.9" font-family="DejaVuSans" font-size="12.00">lexer.c</text>
</a>
</g>
</g>
<!-- Node1&#45;&gt;Node15 -->
<g id="edge14" class="edge">
<title>Node1&#45;&gt;Node15</title>
<path fill="none" stroke="midnightblue" d="M792.1,-222.69C779.91,-185.92 753.78,-107.05 744.69,-79.63"/>
<polygon fill="midnightblue" stroke="midnightblue" points="788.8,-223.87 795.27,-232.26 795.45,-221.67 788.8,-223.87"/>
</g>
<!-- Node16 -->
<g id="node16" class="node">
<title>Node16</title>
<g id="a_node16"><a xlink:href="linebreak_8c.html" target="_top" xlink:title=" ">
<polygon fill="white" stroke="black" points="785.5,-58.5 785.5,-79.5 859.5,-79.5 859.5,-58.5 785.5,-58.5"/>
<text text-anchor="middle" x="822.5" y="-65.9" font-family="DejaVuSans" font-size="12.00">linebreak.c</text>
</a>
</g>
</g>
<!-- Node1&#45;&gt;Node16 -->
<g id="edge15" class="edge">
<title>Node1&#45;&gt;Node16</title>
<path fill="none" stroke="midnightblue" d="M797.17,-222.33C795.96,-197.31 795.41,-152.9 803.5,-116 806.38,-102.83 812.81,-88.63 817.39,-79.55"/>
<polygon fill="midnightblue" stroke="midnightblue" points="793.68,-222.59 797.75,-232.37 800.67,-222.19 793.68,-222.59"/>
</g>
<!-- Node17 -->
<g id="node17" class="node">
<title>Node17</title>
<g id="a_node17"><a xlink:href="math__formula_8c.html" target="_top" xlink:title=" ">
<polygon fill="white" stroke="black" points="1707.5,-58.5 1707.5,-79.5 1805.5,-79.5 1805.5,-58.5 1707.5,-58.5"/>
<text text-anchor="middle" x="1756.5" y="-65.9" font-family="DejaVuSans" font-size="12.00">math_formula.c</text>
</a>
</g>
</g>
<!-- Node1&#45;&gt;Node17 -->
<g id="edge16" class="edge">
<title>Node1&#45;&gt;Node17</title>
<path fill="none" stroke="midnightblue" d="M835.56,-241.8C965.04,-240.79 1396.44,-234.53 1528.5,-196 1617.94,-169.9 1711.07,-104.22 1744.04,-79.56"/>
<polygon fill="midnightblue" stroke="midnightblue" points="835.35,-238.31 825.37,-241.88 835.4,-245.31 835.35,-238.31"/>
</g>
<!-- Node18 -->
<g id="node18" class="node">
<title>Node18</title>
<g id="a_node18"><a xlink:href="mem_8c.html" target="_top" xlink:title=" ">
<polygon fill="white" stroke="black" points="1823.5,-58.5 1823.5,-79.5 1875.5,-79.5 1875.5,-58.5 1823.5,-58.5"/>
<text text-anchor="middle" x="1849.5" y="-65.9" font-family="DejaVuSans" font-size="12.00">mem.c</text>
</a>
</g>
</g>
<!-- Node1&#45;&gt;Node18 -->
<g id="edge17" class="edge">
<title>Node1&#45;&gt;Node18</title>
<path fill="none" stroke="midnightblue" d="M835.36,-241.57C969.13,-239.75 1428.51,-231.03 1570.5,-196 1676.8,-169.78 1792.68,-104.17 1833.89,-79.54"/>
<polygon fill="midnightblue" stroke="midnightblue" points="835.18,-238.08 825.22,-241.71 835.27,-245.07 835.18,-238.08"/>
</g>
<!-- Node19 -->
<g id="node19" class="node">
<title>Node19</title>
<g id="a_node19"><a xlink:href="mmode_8c.html" target="_top" xlink:title=" ">
<polygon fill="white" stroke="black" points="878,-58.5 878,-79.5 943,-79.5 943,-58.5 878,-58.5"/>
<text text-anchor="middle" x="910.5" y="-65.9" font-family="DejaVuSans" font-size="12.00">mmode.c</text>
</a>
</g>
</g>
<!-- Node1&#45;&gt;Node19 -->
<g id="edge18" class="edge">
<title>Node1&#45;&gt;Node19</title>
<path fill="none" stroke="midnightblue" d="M801.15,-222.56C805.58,-196.11 816.59,-148.38 841.5,-116 853.97,-99.8 873.83,-87.42 889.05,-79.6"/>
<polygon fill="midnightblue" stroke="midnightblue" points="797.68,-222.07 799.63,-232.49 804.6,-223.13 797.68,-222.07"/>
</g>
<!-- Node20 -->
<g id="node20" class="node">
<title>Node20</title>
<g id="a_node20"><a xlink:href="pack_8c.html" target="_top" xlink:title=" ">
<polygon fill="white" stroke="black" points="961,-58.5 961,-79.5 1012,-79.5 1012,-58.5 961,-58.5"/>
<text text-anchor="middle" x="986.5" y="-65.9" font-family="DejaVuSans" font-size="12.00">pack.c</text>
</a>
</g>
</g>
<!-- Node1&#45;&gt;Node20 -->
<g id="edge19" class="edge">
<title>Node1&#45;&gt;Node20</title>
<path fill="none" stroke="midnightblue" d="M809.03,-223.36C827.86,-190.27 866.19,-123.96 875.5,-116 888.82,-104.61 932.46,-88.36 960.89,-78.53"/>
<polygon fill="midnightblue" stroke="midnightblue" points="805.96,-221.68 804.07,-232.1 812.05,-225.13 805.96,-221.68"/>
</g>
<!-- Node21 -->
<g id="node21" class="node">
<title>Node21</title>
<g id="a_node21"><a xlink:href="scan_8c.html" target="_top" xlink:title=" ">
<polygon fill="white" stroke="black" points="1894,-58.5 1894,-79.5 1945,-79.5 1945,-58.5 1894,-58.5"/>
<text text-anchor="middle" x="1919.5" y="-65.9" font-family="DejaVuSans" font-size="12.00">scan.c</text>
</a>
</g>
</g>
<!-- Node1&#45;&gt;Node21 -->
<g id="edge20" class="edge">
<title>Node1&#45;&gt;Node21</title>
<path fill="none" stroke="midnightblue" d="M835.31,-241.55C974.18,-239.6 1466.17,-230.37 1618.5,-196 1732.34,-170.32 1857.87,-104.38 1902.57,-79.6"/>
<polygon fill="midnightblue" stroke="midnightblue" points="835.14,-238.05 825.19,-241.69 835.23,-245.05 835.14,-238.05"/>
</g>
<!-- Node22 -->
<g id="node22" class="node">
<title>Node22</title>
<g id="a_node22"><a xlink:href="tex__header_8h.html" target="_top" xlink:title=" ">
<polygon fill="white" stroke="black" points="1963.5,-58.5 1963.5,-79.5 2049.5,-79.5 2049.5,-58.5 1963.5,-58.5"/>
<text text-anchor="middle" x="2006.5" y="-65.9" font-family="DejaVuSans" font-size="12.00">tex_header.h</text>
</a>
</g>
</g>
<!-- Node1&#45;&gt;Node22 -->
<g id="edge21" class="edge">
<title>Node1&#45;&gt;Node22</title>
<path fill="none" stroke="midnightblue" d="M835.14,-241.54C979.03,-239.51 1505.42,-229.88 1668.5,-196 1794.81,-169.76 1936.7,-104.16 1987.31,-79.54"/>
<polygon fill="midnightblue" stroke="midnightblue" points="835.02,-238.04 825.07,-241.68 835.12,-245.04 835.02,-238.04"/>
</g>
<!-- Node24 -->
<g id="node24" class="node">
<title>Node24</title>
<g id="a_node24"><a xlink:href="texmac_8h.html" target="_top" xlink:title=" ">
<polygon fill="white" stroke="black" points="1419,-174.5 1419,-195.5 1484,-195.5 1484,-174.5 1419,-174.5"/>
<text text-anchor="middle" x="1451.5" y="-181.9" font-family="DejaVuSans" font-size="12.00">texmac.h</text>
</a>
</g>
</g>
<!-- Node1&#45;&gt;Node24 -->
<g id="edge23" class="edge">
<title>Node1&#45;&gt;Node24</title>
<path fill="none" stroke="midnightblue" d="M835.49,-238.83C951.76,-228.86 1308.68,-198.25 1418.8,-188.8"/>
<polygon fill="midnightblue" stroke="midnightblue" points="834.98,-235.36 825.32,-239.7 835.58,-242.33 834.98,-235.36"/>
</g>
<!-- Node23 -->
<g id="node23" class="node">
<title>Node23</title>
<g id="a_node23"><a xlink:href="tex_8c.html" target="_top" xlink:title=" ">
<polygon fill="white" stroke="black" points="1986,-0.5 1986,-21.5 2027,-21.5 2027,-0.5 1986,-0.5"/>
<text text-anchor="middle" x="2006.5" y="-7.9" font-family="DejaVuSans" font-size="12.00">tex.c</text>
</a>
</g>
</g>
<!-- Node22&#45;&gt;Node23 -->
<g id="edge22" class="edge">
<title>Node22&#45;&gt;Node23</title>
<path fill="none" stroke="midnightblue" d="M2006.5,-48.16C2006.5,-39.16 2006.5,-28.92 2006.5,-21.64"/>
<polygon fill="midnightblue" stroke="midnightblue" points="2003,-48.25 2006.5,-58.25 2010,-48.25 2003,-48.25"/>
</g>
<!-- Node24&#45;&gt;Node4 -->
<g id="edge24" class="edge">
<title>Node24&#45;&gt;Node4</title>
<path fill="none" stroke="midnightblue" d="M1408.78,-181.5C1324.58,-176.22 1131.37,-162.37 970.5,-138 967.47,-137.54 964.34,-137.01 961.21,-136.45"/>
<polygon fill="midnightblue" stroke="midnightblue" points="1408.78,-185.01 1418.98,-182.13 1409.21,-178.02 1408.78,-185.01"/>
</g>
<!-- Node24&#45;&gt;Node5 -->
<g id="edge25" class="edge">
<title>Node24&#45;&gt;Node5</title>
<path fill="none" stroke="midnightblue" d="M1408.46,-179.48C1339.06,-172.02 1198.21,-156.12 1079.5,-138 1076.43,-137.53 1073.27,-137.02 1070.09,-136.49"/>
<polygon fill="midnightblue" stroke="midnightblue" points="1408.25,-182.98 1418.57,-180.56 1409,-176.02 1408.25,-182.98"/>
</g>
<!-- Node24&#45;&gt;Node9 -->
<g id="edge26" class="edge">
<title>Node24&#45;&gt;Node9</title>
<path fill="none" stroke="midnightblue" d="M1467.89,-167.28C1483.4,-152.21 1507.9,-130.31 1532.5,-116 1561.58,-99.09 1597.98,-86.47 1623.81,-78.77"/>
<polygon fill="midnightblue" stroke="midnightblue" points="1465.29,-164.93 1460.65,-174.45 1470.22,-169.9 1465.29,-164.93"/>
</g>
<!-- Node24&#45;&gt;Node13 -->
<g id="edge28" class="edge">
<title>Node24&#45;&gt;Node13</title>
<path fill="none" stroke="midnightblue" d="M1408.8,-176.43C1349.97,-166.01 1244.31,-147.28 1183.03,-136.42"/>
<polygon fill="midnightblue" stroke="midnightblue" points="1408.42,-179.92 1418.87,-178.22 1409.64,-173.03 1408.42,-179.92"/>
</g>
<!-- Node24&#45;&gt;Node17 -->
<g id="edge29" class="edge">
<title>Node24&#45;&gt;Node17</title>
<path fill="none" stroke="midnightblue" d="M1476.92,-169.24C1510.39,-149.83 1565.6,-117.96 1570.5,-116 1615.28,-98.07 1669,-85.7 1707.17,-78.33"/>
<polygon fill="midnightblue" stroke="midnightblue" points="1475.01,-166.3 1468.12,-174.34 1478.52,-172.35 1475.01,-166.3"/>
</g>
<!-- Node24&#45;&gt;Node18 -->
<g id="edge30" class="edge">
<title>Node24&#45;&gt;Node18</title>
<path fill="none" stroke="midnightblue" d="M1485.9,-170.79C1508.44,-161.94 1538.45,-149.8 1564.5,-138 1584.42,-128.98 1587.73,-122.84 1608.5,-116 1696.77,-86.91 1723.91,-100.8 1814.5,-80 1817.33,-79.35 1820.28,-78.61 1823.2,-77.83"/>
<polygon fill="midnightblue" stroke="midnightblue" points="1484.47,-167.6 1476.42,-174.49 1487.01,-174.12 1484.47,-167.6"/>
</g>
<!-- Node24&#45;&gt;Node21 -->
<g id="edge58" class="edge">
<title>Node24&#45;&gt;Node21</title>
<path fill="none" stroke="midnightblue" d="M1494.12,-174.4C1571.93,-156.73 1742.1,-117.43 1884.5,-80 1887.56,-79.2 1890.75,-78.33 1893.92,-77.44"/>
<polygon fill="midnightblue" stroke="midnightblue" points="1493.19,-171.02 1484.21,-176.64 1494.74,-177.85 1493.19,-171.02"/>
</g>
<!-- Node24&#45;&gt;Node22 -->
<g id="edge59" class="edge">
<title>Node24&#45;&gt;Node22</title>
<path fill="none" stroke="midnightblue" d="M1493.88,-177.33C1545.98,-168.97 1637,-153.79 1714.5,-138 1806.05,-119.35 1912.78,-93.42 1968.38,-79.59"/>
<polygon fill="midnightblue" stroke="midnightblue" points="1493.32,-173.88 1484,-178.91 1494.43,-180.79 1493.32,-173.88"/>
</g>
<!-- Node25 -->
<g id="node25" class="node">
<title>Node25</title>
<g id="a_node25"><a xlink:href="hash_8c.html" target="_top" xlink:title=" ">
<polygon fill="white" stroke="black" points="1553.5,-58.5 1553.5,-79.5 1605.5,-79.5 1605.5,-58.5 1553.5,-58.5"/>
<text text-anchor="middle" x="1579.5" y="-65.9" font-family="DejaVuSans" font-size="12.00">hash.c</text>
</a>
</g>
</g>
<!-- Node24&#45;&gt;Node25 -->
<g id="edge27" class="edge">
<title>Node24&#45;&gt;Node25</title>
<path fill="none" stroke="midnightblue" d="M1460.2,-164.91C1467.67,-150.15 1479.57,-129.95 1494.5,-116 1511.91,-99.73 1536.16,-87.36 1554.3,-79.56"/>
<polygon fill="midnightblue" stroke="midnightblue" points="1456.95,-163.59 1455.76,-174.12 1463.26,-166.63 1456.95,-163.59"/>
</g>
<!-- Node26 -->
<g id="node26" class="node">
<title>Node26</title>
<g id="a_node26"><a xlink:href="print_8h.html" target="_top" xlink:title=" ">
<polygon fill="white" stroke="black" points="1201.5,-116.5 1201.5,-137.5 1251.5,-137.5 1251.5,-116.5 1201.5,-116.5"/>
<text text-anchor="middle" x="1226.5" y="-123.9" font-family="DejaVuSans" font-size="12.00">print.h</text>
</a>
</g>
</g>
<!-- Node24&#45;&gt;Node26 -->
<g id="edge31" class="edge">
<title>Node24&#45;&gt;Node26</title>
<path fill="none" stroke="midnightblue" d="M1409.01,-173.42C1362.56,-161.86 1289.69,-143.73 1251.6,-134.25"/>
<polygon fill="midnightblue" stroke="midnightblue" points="1408.23,-176.84 1418.78,-175.86 1409.92,-170.05 1408.23,-176.84"/>
</g>
<!-- Node31 -->
<g id="node31" class="node">
<title>Node31</title>
<g id="a_node31"><a xlink:href="printout_8c.html" target="_top" xlink:title=" ">
<polygon fill="white" stroke="black" points="1470,-58.5 1470,-79.5 1535,-79.5 1535,-58.5 1470,-58.5"/>
<text text-anchor="middle" x="1502.5" y="-65.9" font-family="DejaVuSans" font-size="12.00">printout.c</text>
</a>
</g>
</g>
<!-- Node24&#45;&gt;Node31 -->
<g id="edge57" class="edge">
<title>Node24&#45;&gt;Node31</title>
<path fill="none" stroke="midnightblue" d="M1449.41,-164.18C1448.75,-150.11 1449.58,-131.12 1456.5,-116 1463.46,-100.8 1477.75,-87.8 1488.56,-79.54"/>
<polygon fill="midnightblue" stroke="midnightblue" points="1445.92,-164.54 1450.17,-174.24 1452.9,-164.01 1445.92,-164.54"/>
</g>
<!-- Node26&#45;&gt;Node2 -->
<g id="edge32" class="edge">
<title>Node26&#45;&gt;Node2</title>
<path fill="none" stroke="midnightblue" d="M1191.45,-116.26C693.2,-37.9 553.68,-159.2 59.5,-80 56.83,-79.57 54.07,-79 51.33,-78.33"/>
<polygon fill="midnightblue" stroke="midnightblue" points="1190.99,-119.73 1201.41,-117.85 1192.09,-112.82 1190.99,-119.73"/>
</g>
<!-- Node26&#45;&gt;Node6 -->
<g id="edge33" class="edge">
<title>Node26&#45;&gt;Node6</title>
<path fill="none" stroke="midnightblue" d="M1191.37,-116.24C740.28,-44.33 616.66,-130.07 166.5,-80 163.8,-79.7 161.03,-79.34 158.25,-78.94"/>
<polygon fill="midnightblue" stroke="midnightblue" points="1190.98,-119.72 1201.41,-117.86 1192.1,-112.81 1190.98,-119.72"/>
</g>
<!-- Node26&#45;&gt;Node7 -->
<g id="edge34" class="edge">
<title>Node26&#45;&gt;Node7</title>
<path fill="none" stroke="midnightblue" d="M1191.48,-116.26C773.69,-49.33 657.17,-141.65 242.5,-80 239.67,-79.58 236.74,-79.03 233.83,-78.4"/>
<polygon fill="midnightblue" stroke="midnightblue" points="1190.98,-119.72 1201.41,-117.87 1192.1,-112.81 1190.98,-119.72"/>
</g>
<!-- Node26&#45;&gt;Node8 -->
<g id="edge36" class="edge">
<title>Node26&#45;&gt;Node8</title>
<path fill="none" stroke="midnightblue" d="M1191.39,-116.23C817.22,-55.39 713.95,-125.59 341.5,-80 338.74,-79.66 335.91,-79.25 333.06,-78.79"/>
<polygon fill="midnightblue" stroke="midnightblue" points="1190.97,-119.71 1201.41,-117.88 1192.11,-112.8 1190.97,-119.71"/>
</g>
<!-- Node26&#45;&gt;Node9 -->
<g id="edge38" class="edge">
<title>Node26&#45;&gt;Node9</title>
<path fill="none" stroke="midnightblue" d="M1261.83,-123.19C1330.26,-117.44 1485.49,-102.93 1614.5,-80 1617.45,-79.48 1620.51,-78.87 1623.56,-78.22"/>
<polygon fill="midnightblue" stroke="midnightblue" points="1261.29,-119.72 1251.61,-124.04 1261.87,-126.7 1261.29,-119.72"/>
</g>
<!-- Node26&#45;&gt;Node10 -->
<g id="edge39" class="edge">
<title>Node26&#45;&gt;Node10</title>
<path fill="none" stroke="midnightblue" d="M1191.42,-116.23C847.52,-59.99 750.37,-136.95 410.5,-80 407.83,-79.55 405.07,-78.96 402.34,-78.29"/>
<polygon fill="midnightblue" stroke="midnightblue" points="1190.97,-119.7 1201.41,-117.89 1192.12,-112.8 1190.97,-119.7"/>
</g>
<!-- Node26&#45;&gt;Node11 -->
<g id="edge41" class="edge">
<title>Node26&#45;&gt;Node11</title>
<path fill="none" stroke="midnightblue" d="M1191.33,-116.2C884.44,-65.1 798.68,-123.68 494.5,-80 491.53,-79.57 488.47,-79.04 485.41,-78.43"/>
<polygon fill="midnightblue" stroke="midnightblue" points="1190.96,-119.69 1201.4,-117.91 1192.13,-112.79 1190.96,-119.69"/>
</g>
<!-- Node26&#45;&gt;Node12 -->
<g id="edge42" class="edge">
<title>Node26&#45;&gt;Node12</title>
<path fill="none" stroke="midnightblue" d="M1191.25,-116.17C930.58,-71.53 858.14,-112.58 599.5,-80 596.95,-79.68 594.33,-79.31 591.69,-78.9"/>
<polygon fill="midnightblue" stroke="midnightblue" points="1190.95,-119.67 1201.4,-117.93 1192.15,-112.77 1190.95,-119.67"/>
</g>
<!-- Node26&#45;&gt;Node14 -->
<g id="edge43" class="edge">
<title>Node26&#45;&gt;Node14</title>
<path fill="none" stroke="midnightblue" d="M1191.42,-116.17C977.61,-78.15 918.01,-107.7 706.5,-80 703.81,-79.65 701.04,-79.25 698.26,-78.81"/>
<polygon fill="midnightblue" stroke="midnightblue" points="1190.93,-119.64 1201.39,-117.97 1192.17,-112.75 1190.93,-119.64"/>
</g>
<!-- Node26&#45;&gt;Node15 -->
<g id="edge45" class="edge">
<title>Node26&#45;&gt;Node15</title>
<path fill="none" stroke="midnightblue" d="M1191.43,-116.15C1008.29,-82.75 955.8,-113.05 776.5,-80 773.52,-79.45 770.42,-78.75 767.36,-77.99"/>
<polygon fill="midnightblue" stroke="midnightblue" points="1190.91,-119.62 1201.39,-118.01 1192.2,-112.73 1190.91,-119.62"/>
</g>
<!-- Node26&#45;&gt;Node16 -->
<g id="edge46" class="edge">
<title>Node26&#45;&gt;Node16</title>
<path fill="none" stroke="midnightblue" d="M1191.4,-116.09C1049.1,-88.19 1008.89,-102.54 869.5,-80 866.29,-79.48 862.96,-78.89 859.64,-78.25"/>
<polygon fill="midnightblue" stroke="midnightblue" points="1190.88,-119.55 1201.37,-118.08 1192.25,-112.69 1190.88,-119.55"/>
</g>
<!-- Node26&#45;&gt;Node17 -->
<g id="edge47" class="edge">
<title>Node26&#45;&gt;Node17</title>
<path fill="none" stroke="midnightblue" d="M1261.97,-123.44C1340.72,-117.56 1536.02,-101.89 1698.5,-80 1701.44,-79.6 1704.45,-79.17 1707.49,-78.71"/>
<polygon fill="midnightblue" stroke="midnightblue" points="1261.36,-119.98 1251.65,-124.2 1261.88,-126.96 1261.36,-119.98"/>
</g>
<!-- Node26&#45;&gt;Node18 -->
<g id="edge48" class="edge">
<title>Node26&#45;&gt;Node18</title>
<path fill="none" stroke="midnightblue" d="M1261.79,-125.69C1353.63,-124.36 1607.3,-117.32 1814.5,-80 1817.36,-79.48 1820.32,-78.83 1823.26,-78.11"/>
<polygon fill="midnightblue" stroke="midnightblue" points="1261.61,-122.19 1251.66,-125.82 1261.7,-129.19 1261.61,-122.19"/>
</g>
<!-- Node26&#45;&gt;Node19 -->
<g id="edge49" class="edge">
<title>Node26&#45;&gt;Node19</title>
<path fill="none" stroke="midnightblue" d="M1191.53,-116.03C1085.43,-93.16 1055.29,-99.91 952.5,-80 949.41,-79.4 946.2,-78.73 943,-78.03"/>
<polygon fill="midnightblue" stroke="midnightblue" points="1190.83,-119.46 1201.35,-118.18 1192.33,-112.62 1190.83,-119.46"/>
</g>
<!-- Node26&#45;&gt;Node20 -->
<g id="edge50" class="edge">
<title>Node26&#45;&gt;Node20</title>
<path fill="none" stroke="midnightblue" d="M1191.27,-115.84C1115.43,-97.13 1093.79,-97.91 1021.5,-80 1018.43,-79.24 1015.23,-78.4 1012.06,-77.53"/>
<polygon fill="midnightblue" stroke="midnightblue" points="1190.76,-119.32 1201.31,-118.35 1192.46,-112.53 1190.76,-119.32"/>
</g>
<!-- Node26&#45;&gt;Node21 -->
<g id="edge53" class="edge">
<title>Node26&#45;&gt;Node21</title>
<path fill="none" stroke="midnightblue" d="M1261.56,-126.11C1360.35,-125.86 1649.18,-121.38 1884.5,-80 1887.49,-79.47 1890.59,-78.79 1893.65,-78.04"/>
<polygon fill="midnightblue" stroke="midnightblue" points="1261.52,-122.61 1251.53,-126.12 1261.53,-129.61 1261.52,-122.61"/>
</g>
<!-- Node26&#45;&gt;Node22 -->
<g id="edge55" class="edge">
<title>Node26&#45;&gt;Node22</title>
<path fill="none" stroke="midnightblue" d="M1261.86,-125.35C1367.48,-123.08 1689.72,-113.69 1954.5,-80 1957.42,-79.63 1960.42,-79.19 1963.44,-78.72"/>
<polygon fill="midnightblue" stroke="midnightblue" points="1261.68,-121.86 1251.76,-125.56 1261.83,-128.86 1261.68,-121.86"/>
</g>
<!-- Node26&#45;&gt;Node25 -->
<g id="edge40" class="edge">
<title>Node26&#45;&gt;Node25</title>
<path fill="none" stroke="midnightblue" d="M1262.14,-122.43C1321.24,-116.15 1443.08,-101.72 1544.5,-80 1547.34,-79.39 1550.29,-78.68 1553.22,-77.92"/>
<polygon fill="midnightblue" stroke="midnightblue" points="1261.43,-118.98 1251.85,-123.51 1262.16,-125.95 1261.43,-118.98"/>
</g>
<!-- Node27 -->
<g id="node27" class="node">
<title>Node27</title>
<g id="a_node27"><a xlink:href="eqtb_8c.html" target="_top" xlink:title=" ">
<polygon fill="white" stroke="black" points="1117,-58.5 1117,-79.5 1166,-79.5 1166,-58.5 1117,-58.5"/>
<text text-anchor="middle" x="1141.5" y="-65.9" font-family="DejaVuSans" font-size="12.00">eqtb.c</text>
</a>
</g>
</g>
<!-- Node26&#45;&gt;Node27 -->
<g id="edge35" class="edge">
<title>Node26&#45;&gt;Node27</title>
<path fill="none" stroke="midnightblue" d="M1202.96,-110.49C1187.96,-100.61 1169,-88.12 1156.14,-79.64"/>
<polygon fill="midnightblue" stroke="midnightblue" points="1201.42,-113.67 1211.69,-116.25 1205.27,-107.82 1201.42,-113.67"/>
</g>
<!-- Node28 -->
<g id="node28" class="node">
<title>Node28</title>
<g id="a_node28"><a xlink:href="error_8c.html" target="_top" xlink:title=" ">
<polygon fill="white" stroke="black" points="1184.5,-58.5 1184.5,-79.5 1234.5,-79.5 1234.5,-58.5 1184.5,-58.5"/>
<text text-anchor="middle" x="1209.5" y="-65.9" font-family="DejaVuSans" font-size="12.00">error.c</text>
</a>
</g>
</g>
<!-- Node26&#45;&gt;Node28 -->
<g id="edge37" class="edge">
<title>Node26&#45;&gt;Node28</title>
<path fill="none" stroke="midnightblue" d="M1220.57,-106.45C1217.81,-97.38 1214.66,-87 1212.43,-79.64"/>
<polygon fill="midnightblue" stroke="midnightblue" points="1217.28,-107.69 1223.54,-116.25 1223.98,-105.66 1217.28,-107.69"/>
</g>
<!-- Node29 -->
<g id="node29" class="node">
<title>Node29</title>
<g id="a_node29"><a xlink:href="io__fname_8c.html" target="_top" xlink:title=" ">
<polygon fill="white" stroke="black" points="1253,-58.5 1253,-79.5 1328,-79.5 1328,-58.5 1253,-58.5"/>
<text text-anchor="middle" x="1290.5" y="-65.9" font-family="DejaVuSans" font-size="12.00">io_fname.c</text>
</a>
</g>
</g>
<!-- Node26&#45;&gt;Node29 -->
<g id="edge44" class="edge">
<title>Node26&#45;&gt;Node29</title>
<path fill="none" stroke="midnightblue" d="M1245.19,-109.65C1256.32,-99.91 1270.07,-87.88 1279.48,-79.64"/>
<polygon fill="midnightblue" stroke="midnightblue" points="1242.87,-107.03 1237.65,-116.25 1247.48,-112.29 1242.87,-107.03"/>
</g>
<!-- Node30 -->
<g id="node30" class="node">
<title>Node30</title>
<g id="a_node30"><a xlink:href="print_8c.html" target="_top" xlink:title=" ">
<polygon fill="white" stroke="black" points="1346,-58.5 1346,-79.5 1395,-79.5 1395,-58.5 1346,-58.5"/>
<text text-anchor="middle" x="1370.5" y="-65.9" font-family="DejaVuSans" font-size="12.00">print.c</text>
</a>
</g>
</g>
<!-- Node26&#45;&gt;Node30 -->
<g id="edge51" class="edge">
<title>Node26&#45;&gt;Node30</title>
<path fill="none" stroke="midnightblue" d="M1260.82,-112.65C1287.08,-102.44 1322.65,-88.61 1346.07,-79.5"/>
<polygon fill="midnightblue" stroke="midnightblue" points="1259.31,-109.49 1251.25,-116.37 1261.84,-116.01 1259.31,-109.49"/>
</g>
<!-- Node26&#45;&gt;Node31 -->
<g id="edge52" class="edge">
<title>Node26&#45;&gt;Node31</title>
<path fill="none" stroke="midnightblue" d="M1261.52,-119.56C1307.35,-111.04 1390.12,-95.29 1460.5,-80 1463.58,-79.33 1466.77,-78.61 1469.97,-77.88"/>
<polygon fill="midnightblue" stroke="midnightblue" points="1260.7,-116.16 1251.5,-121.42 1261.97,-123.04 1260.7,-116.16"/>
</g>
<!-- Node32 -->
<g id="node32" class="node">
<title>Node32</title>
<g id="a_node32"><a xlink:href="str_8c.html" target="_top" xlink:title=" ">
<polygon fill="white" stroke="black" points="1413.5,-58.5 1413.5,-79.5 1451.5,-79.5 1451.5,-58.5 1413.5,-58.5"/>
<text text-anchor="middle" x="1432.5" y="-65.9" font-family="DejaVuSans" font-size="12.00">str.c</text>
</a>
</g>
</g>
<!-- Node26&#45;&gt;Node32 -->
<g id="edge54" class="edge">
<title>Node26&#45;&gt;Node32</title>
<path fill="none" stroke="midnightblue" d="M1261.79,-117.87C1297.89,-109.33 1355.49,-95.05 1404.5,-80 1407.36,-79.12 1410.36,-78.13 1413.3,-77.12"/>
<polygon fill="midnightblue" stroke="midnightblue" points="1260.69,-114.54 1251.76,-120.23 1262.29,-121.35 1260.69,-114.54"/>
</g>
<!-- Node33 -->
<g id="node33" class="node">
<title>Node33</title>
<g id="a_node33"><a xlink:href="texmath_8c.html" target="_top" xlink:title=" ">
<polygon fill="white" stroke="black" points="1030.5,-58.5 1030.5,-79.5 1098.5,-79.5 1098.5,-58.5 1030.5,-58.5"/>
<text text-anchor="middle" x="1064.5" y="-65.9" font-family="DejaVuSans" font-size="12.00">texmath.c</text>
</a>
</g>
</g>
<!-- Node26&#45;&gt;Node33 -->
<g id="edge56" class="edge">
<title>Node26&#45;&gt;Node33</title>
<path fill="none" stroke="midnightblue" d="M1191.6,-113.94C1161.81,-103.64 1119.54,-89.03 1092.07,-79.53"/>
<polygon fill="midnightblue" stroke="midnightblue" points="1190.59,-117.29 1201.19,-117.25 1192.88,-110.67 1190.59,-117.29"/>
</g>
</g>
</svg>
