<?xml version="1.0" encoding="UTF-8" standalone="no"?>
<!DOCTYPE svg PUBLIC "-//W3C//DTD SVG 1.1//EN"
 "http://www.w3.org/Graphics/SVG/1.1/DTD/svg11.dtd">
<!-- Generated by graphviz version 2.44.0 ()
 -->
<!-- Title: mem.c Pages: 1 -->
<svg width="501pt" height="552pt"
 viewBox="0.00 0.00 501.00 552.00" xmlns="http://www.w3.org/2000/svg" xmlns:xlink="http://www.w3.org/1999/xlink">
<g id="graph0" class="graph" transform="scale(1 1) rotate(0) translate(4 548)">
<title>mem.c</title>
<polygon fill="white" stroke="transparent" points="-4,4 -4,-548 497,-548 497,4 -4,4"/>
<!-- Node1 -->
<g id="node1" class="node">
<title>Node1</title>
<g id="a_node1"><a xlink:title=" ">
<polygon fill="#bfbfbf" stroke="black" points="231,-522.5 231,-543.5 283,-543.5 283,-522.5 231,-522.5"/>
<text text-anchor="middle" x="257" y="-529.9" font-family="DejaVuSans" font-size="12.00">mem.c</text>
</a>
</g>
</g>
<!-- Node2 -->
<g id="node2" class="node">
<title>Node2</title>
<g id="a_node2"><a xlink:href="lexer_8h.html" target="_top" xlink:title=" ">
<polygon fill="white" stroke="black" points="148,-174.5 148,-195.5 200,-195.5 200,-174.5 148,-174.5"/>
<text text-anchor="middle" x="174" y="-181.9" font-family="DejaVuSans" font-size="12.00">lexer.h</text>
</a>
</g>
</g>
<!-- Node1&#45;&gt;Node2 -->
<g id="edge1" class="edge">
<title>Node1&#45;&gt;Node2</title>
<path fill="none" stroke="midnightblue" d="M247.47,-522.27C230.31,-503.67 196,-461.1 196,-418 196,-418 196,-418 196,-358 196,-302.5 184.59,-237.73 178.2,-205.83"/>
<polygon fill="midnightblue" stroke="midnightblue" points="181.55,-204.73 176.11,-195.64 174.7,-206.14 181.55,-204.73"/>
</g>
<!-- Node9 -->
<g id="node9" class="node">
<title>Node9</title>
<g id="a_node9"><a xlink:href="texmac_8h.html" target="_top" xlink:title=" ">
<polygon fill="white" stroke="black" points="224.5,-406.5 224.5,-427.5 289.5,-427.5 289.5,-406.5 224.5,-406.5"/>
<text text-anchor="middle" x="257" y="-413.9" font-family="DejaVuSans" font-size="12.00">texmac.h</text>
</a>
</g>
</g>
<!-- Node1&#45;&gt;Node9 -->
<g id="edge8" class="edge">
<title>Node1&#45;&gt;Node9</title>
<path fill="none" stroke="midnightblue" d="M257,-522.28C257,-503.6 257,-462.37 257,-437.72"/>
<polygon fill="midnightblue" stroke="midnightblue" points="260.5,-437.69 257,-427.69 253.5,-437.7 260.5,-437.69"/>
</g>
<!-- Node10 -->
<g id="node10" class="node">
<title>Node10</title>
<g id="a_node10"><a xlink:href="mem_8h.html" target="_top" xlink:title=" ">
<polygon fill="white" stroke="black" points="285.5,-348.5 285.5,-369.5 338.5,-369.5 338.5,-348.5 285.5,-348.5"/>
<text text-anchor="middle" x="312" y="-355.9" font-family="DejaVuSans" font-size="12.00">mem.h</text>
</a>
</g>
</g>
<!-- Node1&#45;&gt;Node10 -->
<g id="edge33" class="edge">
<title>Node1&#45;&gt;Node10</title>
<path fill="none" stroke="midnightblue" d="M261.58,-522.47C270.09,-504.43 288.44,-463.86 299,-428 303.67,-412.15 307.07,-393.71 309.22,-380.03"/>
<polygon fill="midnightblue" stroke="midnightblue" points="312.73,-380.23 310.74,-369.83 305.81,-379.21 312.73,-380.23"/>
</g>
<!-- Node17 -->
<g id="node17" class="node">
<title>Node17</title>
<g id="a_node17"><a xlink:href="error_8h.html" target="_top" xlink:title=" ">
<polygon fill="white" stroke="black" points="384.5,-464.5 384.5,-485.5 435.5,-485.5 435.5,-464.5 384.5,-464.5"/>
<text text-anchor="middle" x="410" y="-471.9" font-family="DejaVuSans" font-size="12.00">error.h</text>
</a>
</g>
</g>
<!-- Node1&#45;&gt;Node17 -->
<g id="edge22" class="edge">
<title>Node1&#45;&gt;Node17</title>
<path fill="none" stroke="midnightblue" d="M283.3,-522.37C308.49,-513.15 346.67,-499.18 374.54,-488.98"/>
<polygon fill="midnightblue" stroke="midnightblue" points="376.11,-492.13 384.3,-485.41 373.7,-485.56 376.11,-492.13"/>
</g>
<!-- Node18 -->
<g id="node18" class="node">
<title>Node18</title>
<g id="a_node18"><a xlink:href="eqtb_8h.html" target="_top" xlink:title=" ">
<polygon fill="white" stroke="black" points="0,-116.5 0,-137.5 50,-137.5 50,-116.5 0,-116.5"/>
<text text-anchor="middle" x="25" y="-123.9" font-family="DejaVuSans" font-size="12.00">eqtb.h</text>
</a>
</g>
</g>
<!-- Node1&#45;&gt;Node18 -->
<g id="edge23" class="edge">
<title>Node1&#45;&gt;Node18</title>
<path fill="none" stroke="midnightblue" d="M230.58,-530.37C172.34,-525.19 38,-503.94 38,-418 38,-418 38,-418 38,-242 38,-208.77 32.48,-170.44 28.63,-147.77"/>
<polygon fill="midnightblue" stroke="midnightblue" points="32.05,-146.96 26.86,-137.72 25.15,-148.17 32.05,-146.96"/>
</g>
<!-- Node19 -->
<g id="node19" class="node">
<title>Node19</title>
<g id="a_node19"><a xlink:href="texmath_8h.html" target="_top" xlink:title=" ">
<polygon fill="white" stroke="black" points="403,-406.5 403,-427.5 471,-427.5 471,-406.5 403,-406.5"/>
<text text-anchor="middle" x="437" y="-413.9" font-family="DejaVuSans" font-size="12.00">texmath.h</text>
</a>
</g>
</g>
<!-- Node1&#45;&gt;Node19 -->
<g id="edge26" class="edge">
<title>Node1&#45;&gt;Node19</title>
<path fill="none" stroke="midnightblue" d="M272.87,-522.42C288.1,-513.19 311.71,-498.79 332,-486 360.33,-468.14 392.62,-447.13 413.83,-433.24"/>
<polygon fill="midnightblue" stroke="midnightblue" points="416.02,-435.99 422.46,-427.57 412.18,-430.13 416.02,-435.99"/>
</g>
<!-- Node20 -->
<g id="node20" class="node">
<title>Node20</title>
<g id="a_node20"><a xlink:href="print_8h.html" target="_top" xlink:title=" ">
<polygon fill="white" stroke="black" points="118,-464.5 118,-485.5 168,-485.5 168,-464.5 118,-464.5"/>
<text text-anchor="middle" x="143" y="-471.9" font-family="DejaVuSans" font-size="12.00">print.h</text>
</a>
</g>
</g>
<!-- Node1&#45;&gt;Node20 -->
<g id="edge28" class="edge">
<title>Node1&#45;&gt;Node20</title>
<path fill="none" stroke="midnightblue" d="M237.4,-522.37C219.27,-513.46 192.09,-500.11 171.54,-490.02"/>
<polygon fill="midnightblue" stroke="midnightblue" points="172.86,-486.77 162.34,-485.5 169.77,-493.05 172.86,-486.77"/>
</g>
<!-- Node3 -->
<g id="node3" class="node">
<title>Node3</title>
<g id="a_node3"><a xlink:title=" ">
<polygon fill="white" stroke="#bfbfbf" points="202,-116.5 202,-137.5 254,-137.5 254,-116.5 202,-116.5"/>
<text text-anchor="middle" x="228" y="-123.9" font-family="DejaVuSans" font-size="12.00">stdio.h</text>
</a>
</g>
</g>
<!-- Node2&#45;&gt;Node3 -->
<g id="edge2" class="edge">
<title>Node2&#45;&gt;Node3</title>
<path fill="none" stroke="midnightblue" d="M183.41,-174.25C191.15,-166.22 202.31,-154.64 211.53,-145.08"/>
<polygon fill="midnightblue" stroke="midnightblue" points="214.28,-147.27 218.7,-137.64 209.24,-142.41 214.28,-147.27"/>
</g>
<!-- Node4 -->
<g id="node4" class="node">
<title>Node4</title>
<g id="a_node4"><a xlink:href="tex_8h.html" target="_top" xlink:title=" ">
<polygon fill="white" stroke="black" points="68,-116.5 68,-137.5 110,-137.5 110,-116.5 68,-116.5"/>
<text text-anchor="middle" x="89" y="-123.9" font-family="DejaVuSans" font-size="12.00">tex.h</text>
</a>
</g>
</g>
<!-- Node2&#45;&gt;Node4 -->
<g id="edge3" class="edge">
<title>Node2&#45;&gt;Node4</title>
<path fill="none" stroke="midnightblue" d="M159.19,-174.25C146.27,-165.73 127.31,-153.24 112.34,-143.38"/>
<polygon fill="midnightblue" stroke="midnightblue" points="113.91,-140.22 103.64,-137.64 110.06,-146.07 113.91,-140.22"/>
</g>
<!-- Node5 -->
<g id="node5" class="node">
<title>Node5</title>
<g id="a_node5"><a xlink:href="tex__types_8h.html" target="_top" xlink:title=" ">
<polygon fill="white" stroke="black" points="338.5,-58.5 338.5,-79.5 415.5,-79.5 415.5,-58.5 338.5,-58.5"/>
<text text-anchor="middle" x="377" y="-65.9" font-family="DejaVuSans" font-size="12.00">tex_types.h</text>
</a>
</g>
</g>
<!-- Node4&#45;&gt;Node5 -->
<g id="edge4" class="edge">
<title>Node4&#45;&gt;Node5</title>
<path fill="none" stroke="midnightblue" d="M110.01,-119.63C114.6,-118.35 119.45,-117.06 124,-116 194.37,-99.59 276.89,-85.54 328.06,-77.43"/>
<polygon fill="midnightblue" stroke="midnightblue" points="328.85,-80.85 338.18,-75.84 327.76,-73.94 328.85,-80.85"/>
</g>
<!-- Node8 -->
<g id="node8" class="node">
<title>Node8</title>
<g id="a_node8"><a xlink:href="tex__constant_8h.html" target="_top" xlink:title=" ">
<polygon fill="white" stroke="black" points="10,-58.5 10,-79.5 104,-79.5 104,-58.5 10,-58.5"/>
<text text-anchor="middle" x="57" y="-65.9" font-family="DejaVuSans" font-size="12.00">tex_constant.h</text>
</a>
</g>
</g>
<!-- Node4&#45;&gt;Node8 -->
<g id="edge7" class="edge">
<title>Node4&#45;&gt;Node8</title>
<path fill="none" stroke="midnightblue" d="M83.43,-116.25C79.07,-108.62 72.88,-97.79 67.59,-88.53"/>
<polygon fill="midnightblue" stroke="midnightblue" points="70.51,-86.59 62.51,-79.64 64.43,-90.06 70.51,-86.59"/>
</g>
<!-- Node6 -->
<g id="node6" class="node">
<title>Node6</title>
<g id="a_node6"><a xlink:title=" ">
<polygon fill="white" stroke="#bfbfbf" points="344.5,-0.5 344.5,-21.5 409.5,-21.5 409.5,-0.5 344.5,-0.5"/>
<text text-anchor="middle" x="377" y="-7.9" font-family="DejaVuSans" font-size="12.00">stdbool.h</text>
</a>
</g>
</g>
<!-- Node5&#45;&gt;Node6 -->
<g id="edge5" class="edge">
<title>Node5&#45;&gt;Node6</title>
<path fill="none" stroke="midnightblue" d="M377,-58.25C377,-50.94 377,-40.69 377,-31.7"/>
<polygon fill="midnightblue" stroke="midnightblue" points="380.5,-31.64 377,-21.64 373.5,-31.64 380.5,-31.64"/>
</g>
<!-- Node7 -->
<g id="node7" class="node">
<title>Node7</title>
<g id="a_node7"><a xlink:title=" ">
<polygon fill="white" stroke="#bfbfbf" points="427.5,-0.5 427.5,-21.5 482.5,-21.5 482.5,-0.5 427.5,-0.5"/>
<text text-anchor="middle" x="455" y="-7.9" font-family="DejaVuSans" font-size="12.00">stdint.h</text>
</a>
</g>
</g>
<!-- Node5&#45;&gt;Node7 -->
<g id="edge6" class="edge">
<title>Node5&#45;&gt;Node7</title>
<path fill="none" stroke="midnightblue" d="M390.59,-58.25C402.33,-49.81 419.52,-37.47 433.19,-27.66"/>
<polygon fill="midnightblue" stroke="midnightblue" points="435.49,-30.32 441.57,-21.64 431.4,-24.63 435.49,-30.32"/>
</g>
<!-- Node9&#45;&gt;Node10 -->
<g id="edge9" class="edge">
<title>Node9&#45;&gt;Node10</title>
<path fill="none" stroke="midnightblue" d="M266.58,-406.25C274.55,-398.14 286.06,-386.41 295.51,-376.79"/>
<polygon fill="midnightblue" stroke="midnightblue" points="298.02,-379.23 302.53,-369.64 293.03,-374.32 298.02,-379.23"/>
</g>
<!-- Node10&#45;&gt;Node5 -->
<g id="edge10" class="edge">
<title>Node10&#45;&gt;Node5</title>
<path fill="none" stroke="midnightblue" d="M324.55,-348.49C345.21,-331.96 385.6,-295.69 401,-254 422.16,-196.74 398.84,-123.43 385.3,-89.21"/>
<polygon fill="midnightblue" stroke="midnightblue" points="388.36,-87.45 381.32,-79.54 381.89,-90.12 388.36,-87.45"/>
</g>
<!-- Node11 -->
<g id="node11" class="node">
<title>Node11</title>
<g id="a_node11"><a xlink:href="global_8h.html" target="_top" xlink:title=" ">
<polygon fill="white" stroke="black" points="270,-290.5 270,-311.5 328,-311.5 328,-290.5 270,-290.5"/>
<text text-anchor="middle" x="299" y="-297.9" font-family="DejaVuSans" font-size="12.00">global.h</text>
</a>
</g>
</g>
<!-- Node10&#45;&gt;Node11 -->
<g id="edge11" class="edge">
<title>Node10&#45;&gt;Node11</title>
<path fill="none" stroke="midnightblue" d="M309.74,-348.25C308.02,-340.86 305.61,-330.47 303.51,-321.41"/>
<polygon fill="midnightblue" stroke="midnightblue" points="306.91,-320.59 301.24,-311.64 300.09,-322.18 306.91,-320.59"/>
</g>
<!-- Node12 -->
<g id="node12" class="node">
<title>Node12</title>
<g id="a_node12"><a xlink:title=" ">
<polygon fill="white" stroke="#bfbfbf" points="330,-232.5 330,-253.5 392,-253.5 392,-232.5 330,-232.5"/>
<text text-anchor="middle" x="361" y="-239.9" font-family="DejaVuSans" font-size="12.00">setjmp.h</text>
</a>
</g>
</g>
<!-- Node11&#45;&gt;Node12 -->
<g id="edge12" class="edge">
<title>Node11&#45;&gt;Node12</title>
<path fill="none" stroke="midnightblue" d="M309.8,-290.25C318.87,-282.05 332.02,-270.17 342.72,-260.51"/>
<polygon fill="midnightblue" stroke="midnightblue" points="345.25,-262.94 350.32,-253.64 340.56,-257.75 345.25,-262.94"/>
</g>
<!-- Node13 -->
<g id="node13" class="node">
<title>Node13</title>
<g id="a_node13"><a xlink:href="str_8h.html" target="_top" xlink:title=" ">
<polygon fill="white" stroke="black" points="272.5,-232.5 272.5,-253.5 311.5,-253.5 311.5,-232.5 272.5,-232.5"/>
<text text-anchor="middle" x="292" y="-239.9" font-family="DejaVuSans" font-size="12.00">str.h</text>
</a>
</g>
</g>
<!-- Node11&#45;&gt;Node13 -->
<g id="edge13" class="edge">
<title>Node11&#45;&gt;Node13</title>
<path fill="none" stroke="midnightblue" d="M297.78,-290.25C296.87,-282.94 295.59,-272.69 294.46,-263.7"/>
<polygon fill="midnightblue" stroke="midnightblue" points="297.92,-263.13 293.21,-253.64 290.97,-264 297.92,-263.13"/>
</g>
<!-- Node16 -->
<g id="node16" class="node">
<title>Node16</title>
<g id="a_node16"><a xlink:href="scan_8h.html" target="_top" xlink:title=" ">
<polygon fill="white" stroke="black" points="202,-232.5 202,-253.5 254,-253.5 254,-232.5 202,-232.5"/>
<text text-anchor="middle" x="228" y="-239.9" font-family="DejaVuSans" font-size="12.00">scan.h</text>
</a>
</g>
</g>
<!-- Node11&#45;&gt;Node16 -->
<g id="edge20" class="edge">
<title>Node11&#45;&gt;Node16</title>
<path fill="none" stroke="midnightblue" d="M286.63,-290.25C276.04,-281.89 260.59,-269.71 248.21,-259.94"/>
<polygon fill="midnightblue" stroke="midnightblue" points="250.24,-257.09 240.23,-253.64 245.91,-262.58 250.24,-257.09"/>
</g>
<!-- Node13&#45;&gt;Node3 -->
<g id="edge14" class="edge">
<title>Node13&#45;&gt;Node3</title>
<path fill="none" stroke="midnightblue" d="M279.89,-232.25C269.98,-223.67 256.3,-210.35 248,-196 239.34,-181.04 234.17,-162.03 231.25,-147.91"/>
<polygon fill="midnightblue" stroke="midnightblue" points="234.65,-147.01 229.38,-137.81 227.76,-148.28 234.65,-147.01"/>
</g>
<!-- Node13&#45;&gt;Node5 -->
<g id="edge19" class="edge">
<title>Node13&#45;&gt;Node5</title>
<path fill="none" stroke="midnightblue" d="M311.52,-233.97C327.03,-226.51 347.91,-213.86 359,-196 379.4,-163.13 380.32,-116.28 378.86,-89.95"/>
<polygon fill="midnightblue" stroke="midnightblue" points="382.33,-89.44 378.11,-79.72 375.35,-89.95 382.33,-89.44"/>
</g>
<!-- Node13&#45;&gt;Node7 -->
<g id="edge15" class="edge">
<title>Node13&#45;&gt;Node7</title>
<path fill="none" stroke="midnightblue" d="M311.87,-233.13C333.88,-222.98 367.52,-206.43 377,-196 421.84,-146.68 443.31,-67.75 451.23,-31.44"/>
<polygon fill="midnightblue" stroke="midnightblue" points="454.66,-32.12 453.26,-21.61 447.81,-30.7 454.66,-32.12"/>
</g>
<!-- Node14 -->
<g id="node14" class="node">
<title>Node14</title>
<g id="a_node14"><a xlink:href="global__const_8h.html" target="_top" xlink:title=" ">
<polygon fill="white" stroke="black" points="256.5,-174.5 256.5,-195.5 349.5,-195.5 349.5,-174.5 256.5,-174.5"/>
<text text-anchor="middle" x="303" y="-181.9" font-family="DejaVuSans" font-size="12.00">global_const.h</text>
</a>
</g>
</g>
<!-- Node13&#45;&gt;Node14 -->
<g id="edge16" class="edge">
<title>Node13&#45;&gt;Node14</title>
<path fill="none" stroke="midnightblue" d="M293.92,-232.25C295.35,-224.94 297.36,-214.69 299.13,-205.7"/>
<polygon fill="midnightblue" stroke="midnightblue" points="302.61,-206.13 301.11,-195.64 295.74,-204.78 302.61,-206.13"/>
</g>
<!-- Node14&#45;&gt;Node3 -->
<g id="edge18" class="edge">
<title>Node14&#45;&gt;Node3</title>
<path fill="none" stroke="midnightblue" d="M289.94,-174.25C278.64,-165.81 262.12,-153.47 248.97,-143.66"/>
<polygon fill="midnightblue" stroke="midnightblue" points="251.02,-140.82 240.91,-137.64 246.83,-146.43 251.02,-140.82"/>
</g>
<!-- Node15 -->
<g id="node15" class="node">
<title>Node15</title>
<g id="a_node15"><a xlink:title=" ">
<polygon fill="white" stroke="#bfbfbf" points="273.5,-116.5 273.5,-137.5 332.5,-137.5 332.5,-116.5 273.5,-116.5"/>
<text text-anchor="middle" x="303" y="-123.9" font-family="DejaVuSans" font-size="12.00">assert.h</text>
</a>
</g>
</g>
<!-- Node14&#45;&gt;Node15 -->
<g id="edge17" class="edge">
<title>Node14&#45;&gt;Node15</title>
<path fill="none" stroke="midnightblue" d="M303,-174.25C303,-166.94 303,-156.69 303,-147.7"/>
<polygon fill="midnightblue" stroke="midnightblue" points="306.5,-147.64 303,-137.64 299.5,-147.64 306.5,-147.64"/>
</g>
<!-- Node16&#45;&gt;Node2 -->
<g id="edge21" class="edge">
<title>Node16&#45;&gt;Node2</title>
<path fill="none" stroke="midnightblue" d="M218.59,-232.25C210.85,-224.22 199.69,-212.64 190.47,-203.08"/>
<polygon fill="midnightblue" stroke="midnightblue" points="192.76,-200.41 183.3,-195.64 187.72,-205.27 192.76,-200.41"/>
</g>
<!-- Node18&#45;&gt;Node5 -->
<g id="edge24" class="edge">
<title>Node18&#45;&gt;Node5</title>
<path fill="none" stroke="midnightblue" d="M50.15,-118.17C53.12,-117.37 56.11,-116.63 59,-116 153.22,-95.44 265.2,-81.67 327.99,-74.9"/>
<polygon fill="midnightblue" stroke="midnightblue" points="328.44,-78.37 338.01,-73.83 327.69,-71.41 328.44,-78.37"/>
</g>
<!-- Node18&#45;&gt;Node8 -->
<g id="edge25" class="edge">
<title>Node18&#45;&gt;Node8</title>
<path fill="none" stroke="midnightblue" d="M30.57,-116.25C34.93,-108.62 41.12,-97.79 46.41,-88.53"/>
<polygon fill="midnightblue" stroke="midnightblue" points="49.57,-90.06 51.49,-79.64 43.49,-86.59 49.57,-90.06"/>
</g>
<!-- Node19&#45;&gt;Node5 -->
<g id="edge27" class="edge">
<title>Node19&#45;&gt;Node5</title>
<path fill="none" stroke="midnightblue" d="M445.51,-406.42C461.17,-387.74 493,-344.56 493,-302 493,-302 493,-302 493,-184 493,-136.38 442.66,-102.03 408.3,-84.13"/>
<polygon fill="midnightblue" stroke="midnightblue" points="409.6,-80.86 399.09,-79.52 406.47,-87.12 409.6,-80.86"/>
</g>
<!-- Node20&#45;&gt;Node4 -->
<g id="edge30" class="edge">
<title>Node20&#45;&gt;Node4</title>
<path fill="none" stroke="midnightblue" d="M133.47,-464.27C116.31,-445.67 82,-403.1 82,-360 82,-360 82,-360 82,-242 82,-208.92 84.97,-170.55 87.04,-147.82"/>
<polygon fill="midnightblue" stroke="midnightblue" points="90.54,-148.03 88,-137.75 83.57,-147.37 90.54,-148.03"/>
</g>
<!-- Node20&#45;&gt;Node5 -->
<g id="edge29" class="edge">
<title>Node20&#45;&gt;Node5</title>
<path fill="none" stroke="midnightblue" d="M139.7,-464.37C133.34,-444.91 120,-399.37 120,-360 120,-360 120,-360 120,-242 120,-177.28 137.26,-148.89 193,-116 234.78,-91.35 289.42,-79.83 328.27,-74.5"/>
<polygon fill="midnightblue" stroke="midnightblue" points="328.82,-77.96 338.29,-73.22 327.92,-71.02 328.82,-77.96"/>
</g>
<!-- Node20&#45;&gt;Node9 -->
<g id="edge31" class="edge">
<title>Node20&#45;&gt;Node9</title>
<path fill="none" stroke="midnightblue" d="M162.6,-464.37C180.73,-455.46 207.91,-442.11 228.46,-432.02"/>
<polygon fill="midnightblue" stroke="midnightblue" points="230.23,-435.05 237.66,-427.5 227.14,-428.77 230.23,-435.05"/>
</g>
<!-- Node20&#45;&gt;Node13 -->
<g id="edge32" class="edge">
<title>Node20&#45;&gt;Node13</title>
<path fill="none" stroke="midnightblue" d="M148.33,-464.18C155.63,-450.84 169.3,-426.31 182,-406 215.33,-352.67 257.93,-291.83 279,-262.17"/>
<polygon fill="midnightblue" stroke="midnightblue" points="282.09,-263.87 285.04,-253.69 276.39,-259.8 282.09,-263.87"/>
</g>
</g>
</svg>
