<?xml version="1.0" encoding="UTF-8" standalone="no"?>
<!DOCTYPE svg PUBLIC "-//W3C//DTD SVG 1.1//EN"
 "http://www.w3.org/Graphics/SVG/1.1/DTD/svg11.dtd">
<!-- Generated by graphviz version 2.44.0 ()
 -->
<!-- Title: mem.h Pages: 1 -->
<svg width="1482pt" height="262pt"
 viewBox="0.00 0.00 1481.50 262.00" xmlns="http://www.w3.org/2000/svg" xmlns:xlink="http://www.w3.org/1999/xlink">
<g id="graph0" class="graph" transform="scale(1 1) rotate(0) translate(4 258)">
<title>mem.h</title>
<polygon fill="white" stroke="transparent" points="-4,4 -4,-258 1477.5,-258 1477.5,4 -4,4"/>
<!-- Node1 -->
<g id="node1" class="node">
<title>Node1</title>
<g id="a_node1"><a xlink:title=" ">
<polygon fill="#bfbfbf" stroke="black" points="428,-232.5 428,-253.5 481,-253.5 481,-232.5 428,-232.5"/>
<text text-anchor="middle" x="454.5" y="-239.9" font-family="DejaVuSans" font-size="12.00">mem.h</text>
</a>
</g>
</g>
<!-- Node2 -->
<g id="node2" class="node">
<title>Node2</title>
<g id="a_node2"><a xlink:href="box_8c.html" target="_top" xlink:title=" ">
<polygon fill="white" stroke="black" points="153,-174.5 153,-195.5 198,-195.5 198,-174.5 153,-174.5"/>
<text text-anchor="middle" x="175.5" y="-181.9" font-family="DejaVuSans" font-size="12.00">box.c</text>
</a>
</g>
</g>
<!-- Node1&#45;&gt;Node2 -->
<g id="edge1" class="edge">
<title>Node1&#45;&gt;Node2</title>
<path fill="none" stroke="midnightblue" d="M417.74,-235.91C370.15,-227.82 284.77,-212.61 212.5,-196 207.83,-194.93 202.86,-193.67 198.13,-192.41"/>
<polygon fill="midnightblue" stroke="midnightblue" points="417.42,-239.41 427.86,-237.62 418.59,-232.5 417.42,-239.41"/>
</g>
<!-- Node3 -->
<g id="node3" class="node">
<title>Node3</title>
<g id="a_node3"><a xlink:href="box__copy_8c.html" target="_top" xlink:title=" ">
<polygon fill="white" stroke="black" points="521,-116.5 521,-137.5 598,-137.5 598,-116.5 521,-116.5"/>
<text text-anchor="middle" x="559.5" y="-123.9" font-family="DejaVuSans" font-size="12.00">box_copy.c</text>
</a>
</g>
</g>
<!-- Node1&#45;&gt;Node3 -->
<g id="edge2" class="edge">
<title>Node1&#45;&gt;Node3</title>
<path fill="none" stroke="midnightblue" d="M474.47,-225.84C484.49,-217.36 496.57,-206.57 506.5,-196 524.74,-176.58 543.24,-151.29 552.82,-137.68"/>
<polygon fill="midnightblue" stroke="midnightblue" points="472.08,-223.27 466.63,-232.35 476.56,-228.65 472.08,-223.27"/>
</g>
<!-- Node4 -->
<g id="node4" class="node">
<title>Node4</title>
<g id="a_node4"><a xlink:href="box__destroy_8c.html" target="_top" xlink:title=" ">
<polygon fill="white" stroke="black" points="616,-116.5 616,-137.5 707,-137.5 707,-116.5 616,-116.5"/>
<text text-anchor="middle" x="661.5" y="-123.9" font-family="DejaVuSans" font-size="12.00">box_destroy.c</text>
</a>
</g>
</g>
<!-- Node1&#45;&gt;Node4 -->
<g id="edge3" class="edge">
<title>Node1&#45;&gt;Node4</title>
<path fill="none" stroke="midnightblue" d="M480.79,-227.52C523.74,-203.87 607.8,-157.57 644.11,-137.58"/>
<polygon fill="midnightblue" stroke="midnightblue" points="478.86,-224.59 471.79,-232.48 482.24,-230.72 478.86,-224.59"/>
</g>
<!-- Node5 -->
<g id="node5" class="node">
<title>Node5</title>
<g id="a_node5"><a xlink:href="box__display_8c.html" target="_top" xlink:title=" ">
<polygon fill="white" stroke="black" points="0,-58.5 0,-79.5 89,-79.5 89,-58.5 0,-58.5"/>
<text text-anchor="middle" x="44.5" y="-65.9" font-family="DejaVuSans" font-size="12.00">box_display.c</text>
</a>
</g>
</g>
<!-- Node1&#45;&gt;Node5 -->
<g id="edge4" class="edge">
<title>Node1&#45;&gt;Node5</title>
<path fill="none" stroke="midnightblue" d="M418.29,-230.22C391.81,-221.39 355.15,-208.68 323.5,-196 224.58,-156.38 109.47,-101.53 64.21,-79.61"/>
<polygon fill="midnightblue" stroke="midnightblue" points="417.31,-233.59 427.9,-233.41 419.51,-226.94 417.31,-233.59"/>
</g>
<!-- Node6 -->
<g id="node6" class="node">
<title>Node6</title>
<g id="a_node6"><a xlink:href="dviout_8c.html" target="_top" xlink:title=" ">
<polygon fill="white" stroke="black" points="106.5,-58.5 106.5,-79.5 164.5,-79.5 164.5,-58.5 106.5,-58.5"/>
<text text-anchor="middle" x="135.5" y="-65.9" font-family="DejaVuSans" font-size="12.00">dviout.c</text>
</a>
</g>
</g>
<!-- Node1&#45;&gt;Node6 -->
<g id="edge5" class="edge">
<title>Node1&#45;&gt;Node6</title>
<path fill="none" stroke="midnightblue" d="M423.61,-228.15C405.01,-219.5 381.02,-207.79 360.5,-196 304.92,-164.06 296.74,-146.76 240.5,-116 214.13,-101.58 182.34,-88.17 160.7,-79.59"/>
<polygon fill="midnightblue" stroke="midnightblue" points="422.25,-231.38 432.8,-232.38 425.18,-225.02 422.25,-231.38"/>
</g>
<!-- Node7 -->
<g id="node7" class="node">
<title>Node7</title>
<g id="a_node7"><a xlink:href="eqtb__save_8c.html" target="_top" xlink:title=" ">
<polygon fill="white" stroke="black" points="183,-58.5 183,-79.5 264,-79.5 264,-58.5 183,-58.5"/>
<text text-anchor="middle" x="223.5" y="-65.9" font-family="DejaVuSans" font-size="12.00">eqtb_save.c</text>
</a>
</g>
</g>
<!-- Node1&#45;&gt;Node7 -->
<g id="edge6" class="edge">
<title>Node1&#45;&gt;Node7</title>
<path fill="none" stroke="midnightblue" d="M433.16,-226.11C386.07,-191.05 274.45,-107.94 236.44,-79.63"/>
<polygon fill="midnightblue" stroke="midnightblue" points="431.31,-229.09 441.42,-232.26 435.49,-223.48 431.31,-229.09"/>
</g>
<!-- Node8 -->
<g id="node8" class="node">
<title>Node8</title>
<g id="a_node8"><a xlink:href="expand_8c.html" target="_top" xlink:title=" ">
<polygon fill="white" stroke="black" points="1304,-58.5 1304,-79.5 1369,-79.5 1369,-58.5 1304,-58.5"/>
<text text-anchor="middle" x="1336.5" y="-65.9" font-family="DejaVuSans" font-size="12.00">expand.c</text>
</a>
</g>
</g>
<!-- Node1&#45;&gt;Node8 -->
<g id="edge7" class="edge">
<title>Node1&#45;&gt;Node8</title>
<path fill="none" stroke="midnightblue" d="M491.19,-240.42C568.21,-236.62 752.09,-225.05 903.5,-196 996.07,-178.24 1016.98,-164.31 1107.5,-138 1177.99,-117.51 1260.48,-92.85 1304.67,-79.58"/>
<polygon fill="midnightblue" stroke="midnightblue" points="490.87,-236.93 481.05,-240.9 491.21,-243.92 490.87,-236.93"/>
</g>
<!-- Node9 -->
<g id="node9" class="node">
<title>Node9</title>
<g id="a_node9"><a xlink:href="fonts_8c.html" target="_top" xlink:title=" ">
<polygon fill="white" stroke="black" points="282,-58.5 282,-79.5 333,-79.5 333,-58.5 282,-58.5"/>
<text text-anchor="middle" x="307.5" y="-65.9" font-family="DejaVuSans" font-size="12.00">fonts.c</text>
</a>
</g>
</g>
<!-- Node1&#45;&gt;Node9 -->
<g id="edge8" class="edge">
<title>Node1&#45;&gt;Node9</title>
<path fill="none" stroke="midnightblue" d="M439.58,-224.55C408.89,-188.64 339.57,-107.53 315.73,-79.63"/>
<polygon fill="midnightblue" stroke="midnightblue" points="437.02,-226.93 446.18,-232.26 442.34,-222.38 437.02,-226.93"/>
</g>
<!-- Node10 -->
<g id="node10" class="node">
<title>Node10</title>
<g id="a_node10"><a xlink:href="lexer_8c.html" target="_top" xlink:title=" ">
<polygon fill="white" stroke="black" points="351,-58.5 351,-79.5 402,-79.5 402,-58.5 351,-58.5"/>
<text text-anchor="middle" x="376.5" y="-65.9" font-family="DejaVuSans" font-size="12.00">lexer.c</text>
</a>
</g>
</g>
<!-- Node1&#45;&gt;Node10 -->
<g id="edge9" class="edge">
<title>Node1&#45;&gt;Node10</title>
<path fill="none" stroke="midnightblue" d="M445.74,-222.69C429.07,-185.92 393.3,-107.05 380.87,-79.63"/>
<polygon fill="midnightblue" stroke="midnightblue" points="442.77,-224.6 450.08,-232.26 449.14,-221.71 442.77,-224.6"/>
</g>
<!-- Node11 -->
<g id="node11" class="node">
<title>Node11</title>
<g id="a_node11"><a xlink:href="mem_8c.html" target="_top" xlink:title=" ">
<polygon fill="white" stroke="black" points="1233.5,-58.5 1233.5,-79.5 1285.5,-79.5 1285.5,-58.5 1233.5,-58.5"/>
<text text-anchor="middle" x="1259.5" y="-65.9" font-family="DejaVuSans" font-size="12.00">mem.c</text>
</a>
</g>
</g>
<!-- Node1&#45;&gt;Node11 -->
<g id="edge10" class="edge">
<title>Node1&#45;&gt;Node11</title>
<path fill="none" stroke="midnightblue" d="M491.74,-239.3C560.9,-233.89 713.7,-220.15 840.5,-196 939.83,-177.08 963.71,-167.26 1060.5,-138 1123.23,-119.04 1195.83,-93.24 1233.62,-79.51"/>
<polygon fill="midnightblue" stroke="midnightblue" points="491.07,-235.84 481.37,-240.09 491.61,-242.82 491.07,-235.84"/>
</g>
<!-- Node12 -->
<g id="node12" class="node">
<title>Node12</title>
<g id="a_node12"><a xlink:href="mmode_8c.html" target="_top" xlink:title=" ">
<polygon fill="white" stroke="black" points="420,-58.5 420,-79.5 485,-79.5 485,-58.5 420,-58.5"/>
<text text-anchor="middle" x="452.5" y="-65.9" font-family="DejaVuSans" font-size="12.00">mmode.c</text>
</a>
</g>
</g>
<!-- Node1&#45;&gt;Node12 -->
<g id="edge11" class="edge">
<title>Node1&#45;&gt;Node12</title>
<path fill="none" stroke="midnightblue" d="M447.24,-222.7C444.55,-214.58 441.83,-204.96 440.5,-196 435.27,-160.83 435.98,-151.27 440.5,-116 442.14,-103.23 446.24,-88.94 449.19,-79.73"/>
<polygon fill="midnightblue" stroke="midnightblue" points="444.01,-224.06 450.64,-232.32 450.61,-221.73 444.01,-224.06"/>
</g>
<!-- Node13 -->
<g id="node13" class="node">
<title>Node13</title>
<g id="a_node13"><a xlink:href="pack_8c.html" target="_top" xlink:title=" ">
<polygon fill="white" stroke="black" points="503,-58.5 503,-79.5 554,-79.5 554,-58.5 503,-58.5"/>
<text text-anchor="middle" x="528.5" y="-65.9" font-family="DejaVuSans" font-size="12.00">pack.c</text>
</a>
</g>
</g>
<!-- Node1&#45;&gt;Node13 -->
<g id="edge12" class="edge">
<title>Node1&#45;&gt;Node13</title>
<path fill="none" stroke="midnightblue" d="M454.5,-222.41C455.29,-196.48 459.55,-150.07 478.5,-116 486.99,-100.74 502.37,-87.75 513.84,-79.51"/>
<polygon fill="midnightblue" stroke="midnightblue" points="451,-222.41 454.33,-232.47 458,-222.53 451,-222.41"/>
</g>
<!-- Node14 -->
<g id="node14" class="node">
<title>Node14</title>
<g id="a_node14"><a xlink:href="scan_8c.html" target="_top" xlink:title=" ">
<polygon fill="white" stroke="black" points="572,-58.5 572,-79.5 623,-79.5 623,-58.5 572,-58.5"/>
<text text-anchor="middle" x="597.5" y="-65.9" font-family="DejaVuSans" font-size="12.00">scan.c</text>
</a>
</g>
</g>
<!-- Node1&#45;&gt;Node14 -->
<g id="edge13" class="edge">
<title>Node1&#45;&gt;Node14</title>
<path fill="none" stroke="midnightblue" d="M462.47,-222.59C476.23,-189.35 503.73,-124.3 511.5,-116 528.04,-98.32 552.94,-86.04 571.69,-78.64"/>
<polygon fill="midnightblue" stroke="midnightblue" points="459.1,-221.57 458.53,-232.15 465.57,-224.24 459.1,-221.57"/>
</g>
<!-- Node15 -->
<g id="node15" class="node">
<title>Node15</title>
<g id="a_node15"><a xlink:href="tex__header_8h.html" target="_top" xlink:title=" ">
<polygon fill="white" stroke="black" points="1387.5,-58.5 1387.5,-79.5 1473.5,-79.5 1473.5,-58.5 1387.5,-58.5"/>
<text text-anchor="middle" x="1430.5" y="-65.9" font-family="DejaVuSans" font-size="12.00">tex_header.h</text>
</a>
</g>
</g>
<!-- Node1&#45;&gt;Node15 -->
<g id="edge14" class="edge">
<title>Node1&#45;&gt;Node15</title>
<path fill="none" stroke="midnightblue" d="M491.15,-240.83C575.01,-237.7 787.11,-227.1 961.5,-196 1131.24,-165.73 1329.07,-103.42 1401.8,-79.57"/>
<polygon fill="midnightblue" stroke="midnightblue" points="490.97,-237.34 481.1,-241.2 491.22,-244.33 490.97,-237.34"/>
</g>
<!-- Node17 -->
<g id="node17" class="node">
<title>Node17</title>
<g id="a_node17"><a xlink:href="texmac_8h.html" target="_top" xlink:title=" ">
<polygon fill="white" stroke="black" points="767,-174.5 767,-195.5 832,-195.5 832,-174.5 767,-174.5"/>
<text text-anchor="middle" x="799.5" y="-181.9" font-family="DejaVuSans" font-size="12.00">texmac.h</text>
</a>
</g>
</g>
<!-- Node1&#45;&gt;Node17 -->
<g id="edge16" class="edge">
<title>Node1&#45;&gt;Node17</title>
<path fill="none" stroke="midnightblue" d="M491.49,-236C559.27,-224.99 702.32,-201.77 766.78,-191.31"/>
<polygon fill="midnightblue" stroke="midnightblue" points="490.59,-232.6 481.28,-237.65 491.72,-239.5 490.59,-232.6"/>
</g>
<!-- Node16 -->
<g id="node16" class="node">
<title>Node16</title>
<g id="a_node16"><a xlink:href="tex_8c.html" target="_top" xlink:title=" ">
<polygon fill="white" stroke="black" points="1410,-0.5 1410,-21.5 1451,-21.5 1451,-0.5 1410,-0.5"/>
<text text-anchor="middle" x="1430.5" y="-7.9" font-family="DejaVuSans" font-size="12.00">tex.c</text>
</a>
</g>
</g>
<!-- Node15&#45;&gt;Node16 -->
<g id="edge15" class="edge">
<title>Node15&#45;&gt;Node16</title>
<path fill="none" stroke="midnightblue" d="M1430.5,-48.16C1430.5,-39.16 1430.5,-28.92 1430.5,-21.64"/>
<polygon fill="midnightblue" stroke="midnightblue" points="1427,-48.25 1430.5,-58.25 1434,-48.25 1427,-48.25"/>
</g>
<!-- Node17&#45;&gt;Node3 -->
<g id="edge17" class="edge">
<title>Node17&#45;&gt;Node3</title>
<path fill="none" stroke="midnightblue" d="M756.87,-174.05C711.97,-163.58 641.86,-147.22 598.41,-137.08"/>
<polygon fill="midnightblue" stroke="midnightblue" points="756.35,-177.53 766.88,-176.39 757.94,-170.71 756.35,-177.53"/>
</g>
<!-- Node17&#45;&gt;Node4 -->
<g id="edge18" class="edge">
<title>Node17&#45;&gt;Node4</title>
<path fill="none" stroke="midnightblue" d="M766.28,-170.52C741.15,-160.32 707.26,-146.57 684.91,-137.5"/>
<polygon fill="midnightblue" stroke="midnightblue" points="765.19,-173.86 775.78,-174.37 767.83,-167.37 765.19,-173.86"/>
</g>
<!-- Node17&#45;&gt;Node8 -->
<g id="edge19" class="edge">
<title>Node17&#45;&gt;Node8</title>
<path fill="none" stroke="midnightblue" d="M842.35,-177.35C894.19,-169.1 984.06,-154.13 1060.5,-138 1149.1,-119.3 1252.49,-92.47 1303.95,-78.77"/>
<polygon fill="midnightblue" stroke="midnightblue" points="841.52,-173.94 832.19,-178.96 842.61,-180.86 841.52,-173.94"/>
</g>
<!-- Node17&#45;&gt;Node11 -->
<g id="edge21" class="edge">
<title>Node17&#45;&gt;Node11</title>
<path fill="none" stroke="midnightblue" d="M842.03,-174.94C883.57,-165.97 948.52,-151.65 1004.5,-138 1102.74,-114.04 1126.99,-106.78 1224.5,-80 1227.3,-79.23 1230.23,-78.41 1233.14,-77.59"/>
<polygon fill="midnightblue" stroke="midnightblue" points="841.29,-171.52 832.25,-177.04 842.76,-178.36 841.29,-171.52"/>
</g>
<!-- Node17&#45;&gt;Node14 -->
<g id="edge43" class="edge">
<title>Node17&#45;&gt;Node14</title>
<path fill="none" stroke="midnightblue" d="M781.79,-166.92C765.57,-151.97 740.37,-130.44 715.5,-116 685.65,-98.66 648.03,-85.29 623.4,-77.54"/>
<polygon fill="midnightblue" stroke="midnightblue" points="779.72,-169.77 789.41,-174.06 784.51,-164.67 779.72,-169.77"/>
</g>
<!-- Node17&#45;&gt;Node15 -->
<g id="edge44" class="edge">
<title>Node17&#45;&gt;Node15</title>
<path fill="none" stroke="midnightblue" d="M842.45,-178.83C904.02,-171.19 1020.82,-155.86 1119.5,-138 1217.94,-120.19 1332.65,-93.57 1391.41,-79.5"/>
<polygon fill="midnightblue" stroke="midnightblue" points="841.83,-175.38 832.33,-180.08 842.69,-182.33 841.83,-175.38"/>
</g>
<!-- Node18 -->
<g id="node18" class="node">
<title>Node18</title>
<g id="a_node18"><a xlink:href="hash_8c.html" target="_top" xlink:title=" ">
<polygon fill="white" stroke="black" points="641.5,-58.5 641.5,-79.5 693.5,-79.5 693.5,-58.5 641.5,-58.5"/>
<text text-anchor="middle" x="667.5" y="-65.9" font-family="DejaVuSans" font-size="12.00">hash.c</text>
</a>
</g>
</g>
<!-- Node17&#45;&gt;Node18 -->
<g id="edge20" class="edge">
<title>Node17&#45;&gt;Node18</title>
<path fill="none" stroke="midnightblue" d="M788.92,-165.47C779.85,-150.75 765.71,-130.33 749.5,-116 731.77,-100.32 707.82,-87.65 690.38,-79.6"/>
<polygon fill="midnightblue" stroke="midnightblue" points="786,-167.4 794.12,-174.2 792.01,-163.82 786,-167.4"/>
</g>
<!-- Node19 -->
<g id="node19" class="node">
<title>Node19</title>
<g id="a_node19"><a xlink:href="print_8h.html" target="_top" xlink:title=" ">
<polygon fill="white" stroke="black" points="801.5,-116.5 801.5,-137.5 851.5,-137.5 851.5,-116.5 801.5,-116.5"/>
<text text-anchor="middle" x="826.5" y="-123.9" font-family="DejaVuSans" font-size="12.00">print.h</text>
</a>
</g>
</g>
<!-- Node17&#45;&gt;Node19 -->
<g id="edge22" class="edge">
<title>Node17&#45;&gt;Node19</title>
<path fill="none" stroke="midnightblue" d="M808.64,-165.04C813.08,-155.83 818.23,-145.16 821.85,-137.64"/>
<polygon fill="midnightblue" stroke="midnightblue" points="805.39,-163.72 804.2,-174.25 811.7,-166.76 805.39,-163.72"/>
</g>
<!-- Node24 -->
<g id="node24" class="node">
<title>Node24</title>
<g id="a_node24"><a xlink:href="printout_8c.html" target="_top" xlink:title=" ">
<polygon fill="white" stroke="black" points="1150,-58.5 1150,-79.5 1215,-79.5 1215,-58.5 1150,-58.5"/>
<text text-anchor="middle" x="1182.5" y="-65.9" font-family="DejaVuSans" font-size="12.00">printout.c</text>
</a>
</g>
</g>
<!-- Node17&#45;&gt;Node24 -->
<g id="edge42" class="edge">
<title>Node17&#45;&gt;Node24</title>
<path fill="none" stroke="midnightblue" d="M841.34,-171.55C918.39,-148.61 1081.17,-100.16 1150.33,-79.58"/>
<polygon fill="midnightblue" stroke="midnightblue" points="840.08,-168.27 831.5,-174.48 842.08,-174.98 840.08,-168.27"/>
</g>
<!-- Node19&#45;&gt;Node5 -->
<g id="edge23" class="edge">
<title>Node19&#45;&gt;Node5</title>
<path fill="none" stroke="midnightblue" d="M791.27,-122.54C769.46,-120.47 740.87,-117.88 715.5,-116 441.12,-95.65 370.58,-113.57 97.5,-80 94.8,-79.67 92.04,-79.28 89.26,-78.86"/>
<polygon fill="midnightblue" stroke="midnightblue" points="791.1,-126.04 801.39,-123.51 791.77,-119.07 791.1,-126.04"/>
</g>
<!-- Node19&#45;&gt;Node6 -->
<g id="edge24" class="edge">
<title>Node19&#45;&gt;Node6</title>
<path fill="none" stroke="midnightblue" d="M791.27,-122.61C769.45,-120.57 740.86,-117.98 715.5,-116 474.82,-97.17 411.77,-118.9 173.5,-80 170.67,-79.54 167.75,-78.96 164.84,-78.31"/>
<polygon fill="midnightblue" stroke="midnightblue" points="791.1,-126.11 801.39,-123.57 791.76,-119.14 791.1,-126.11"/>
</g>
<!-- Node19&#45;&gt;Node7 -->
<g id="edge26" class="edge">
<title>Node19&#45;&gt;Node7</title>
<path fill="none" stroke="midnightblue" d="M791.26,-122.75C769.44,-120.75 740.85,-118.17 715.5,-116 518.68,-99.14 468.07,-107.8 272.5,-80 269.75,-79.61 266.92,-79.16 264.08,-78.67"/>
<polygon fill="midnightblue" stroke="midnightblue" points="791.1,-126.25 801.38,-123.67 791.74,-119.27 791.1,-126.25"/>
</g>
<!-- Node19&#45;&gt;Node8 -->
<g id="edge28" class="edge">
<title>Node19&#45;&gt;Node8</title>
<path fill="none" stroke="midnightblue" d="M861.78,-124.17C940.09,-119.76 1134.16,-106.84 1294.5,-80 1297.46,-79.5 1300.52,-78.92 1303.57,-78.29"/>
<polygon fill="midnightblue" stroke="midnightblue" points="861.31,-120.69 851.52,-124.74 861.7,-127.68 861.31,-120.69"/>
</g>
<!-- Node19&#45;&gt;Node9 -->
<g id="edge29" class="edge">
<title>Node19&#45;&gt;Node9</title>
<path fill="none" stroke="midnightblue" d="M791.22,-122.74C681.44,-112.6 352.56,-82.13 341.5,-80 338.84,-79.49 336.09,-78.86 333.36,-78.16"/>
<polygon fill="midnightblue" stroke="midnightblue" points="791.16,-126.25 801.44,-123.69 791.8,-119.28 791.16,-126.25"/>
</g>
<!-- Node19&#45;&gt;Node10 -->
<g id="edge32" class="edge">
<title>Node19&#45;&gt;Node10</title>
<path fill="none" stroke="midnightblue" d="M791.27,-122.91C704.69,-115.18 483.25,-94.6 410.5,-80 407.85,-79.47 405.1,-78.82 402.37,-78.12"/>
<polygon fill="midnightblue" stroke="midnightblue" points="791.11,-126.41 801.38,-123.81 791.73,-119.44 791.11,-126.41"/>
</g>
<!-- Node19&#45;&gt;Node11 -->
<g id="edge33" class="edge">
<title>Node19&#45;&gt;Node11</title>
<path fill="none" stroke="midnightblue" d="M861.9,-123.86C931.77,-119.19 1092.13,-106.38 1224.5,-80 1227.35,-79.43 1230.31,-78.75 1233.24,-78"/>
<polygon fill="midnightblue" stroke="midnightblue" points="861.62,-120.37 851.87,-124.51 862.07,-127.35 861.62,-120.37"/>
</g>
<!-- Node19&#45;&gt;Node12 -->
<g id="edge34" class="edge">
<title>Node19&#45;&gt;Node12</title>
<path fill="none" stroke="midnightblue" d="M791.05,-122.3C729.98,-115.67 601.13,-100.5 493.5,-80 490.77,-79.48 487.94,-78.89 485.11,-78.27"/>
<polygon fill="midnightblue" stroke="midnightblue" points="790.98,-125.82 801.29,-123.41 791.72,-118.86 790.98,-125.82"/>
</g>
<!-- Node19&#45;&gt;Node13 -->
<g id="edge35" class="edge">
<title>Node19&#45;&gt;Node13</title>
<path fill="none" stroke="midnightblue" d="M791.04,-121.13C740.12,-113.84 643.5,-98.9 562.5,-80 559.74,-79.36 556.88,-78.62 554.04,-77.85"/>
<polygon fill="midnightblue" stroke="midnightblue" points="790.8,-124.63 801.19,-122.57 791.78,-117.7 790.8,-124.63"/>
</g>
<!-- Node19&#45;&gt;Node14 -->
<g id="edge38" class="edge">
<title>Node19&#45;&gt;Node14</title>
<path fill="none" stroke="midnightblue" d="M791.5,-118.21C752.56,-109.42 687.84,-94.46 632.5,-80 629.44,-79.2 626.24,-78.33 623.08,-77.45"/>
<polygon fill="midnightblue" stroke="midnightblue" points="790.77,-121.63 801.3,-120.41 792.31,-114.8 790.77,-121.63"/>
</g>
<!-- Node19&#45;&gt;Node15 -->
<g id="edge40" class="edge">
<title>Node19&#45;&gt;Node15</title>
<path fill="none" stroke="midnightblue" d="M861.84,-124.37C949.59,-120.03 1184.39,-106.68 1378.5,-80 1381.41,-79.6 1384.41,-79.14 1387.43,-78.65"/>
<polygon fill="midnightblue" stroke="midnightblue" points="861.46,-120.88 851.64,-124.86 861.8,-127.87 861.46,-120.88"/>
</g>
<!-- Node19&#45;&gt;Node18 -->
<g id="edge30" class="edge">
<title>Node19&#45;&gt;Node18</title>
<path fill="none" stroke="midnightblue" d="M791.79,-113.78C762.24,-103.37 720.42,-88.64 693.63,-79.2"/>
<polygon fill="midnightblue" stroke="midnightblue" points="790.71,-117.11 801.31,-117.13 793.04,-110.5 790.71,-117.11"/>
</g>
<!-- Node20 -->
<g id="node20" class="node">
<title>Node20</title>
<g id="a_node20"><a xlink:href="eqtb_8c.html" target="_top" xlink:title=" ">
<polygon fill="white" stroke="black" points="854,-58.5 854,-79.5 903,-79.5 903,-58.5 854,-58.5"/>
<text text-anchor="middle" x="878.5" y="-65.9" font-family="DejaVuSans" font-size="12.00">eqtb.c</text>
</a>
</g>
</g>
<!-- Node19&#45;&gt;Node20 -->
<g id="edge25" class="edge">
<title>Node19&#45;&gt;Node20</title>
<path fill="none" stroke="midnightblue" d="M842.48,-108.79C851.38,-99.21 862.12,-87.64 869.55,-79.64"/>
<polygon fill="midnightblue" stroke="midnightblue" points="839.8,-106.54 835.56,-116.25 844.93,-111.3 839.8,-106.54"/>
</g>
<!-- Node21 -->
<g id="node21" class="node">
<title>Node21</title>
<g id="a_node21"><a xlink:href="error_8c.html" target="_top" xlink:title=" ">
<polygon fill="white" stroke="black" points="921.5,-58.5 921.5,-79.5 971.5,-79.5 971.5,-58.5 921.5,-58.5"/>
<text text-anchor="middle" x="946.5" y="-65.9" font-family="DejaVuSans" font-size="12.00">error.c</text>
</a>
</g>
</g>
<!-- Node19&#45;&gt;Node21 -->
<g id="edge27" class="edge">
<title>Node19&#45;&gt;Node21</title>
<path fill="none" stroke="midnightblue" d="M856.26,-112.11C878.02,-101.96 906.97,-88.45 926.14,-79.5"/>
<polygon fill="midnightblue" stroke="midnightblue" points="854.71,-108.97 847.13,-116.37 857.67,-115.32 854.71,-108.97"/>
</g>
<!-- Node22 -->
<g id="node22" class="node">
<title>Node22</title>
<g id="a_node22"><a xlink:href="io__fname_8c.html" target="_top" xlink:title=" ">
<polygon fill="white" stroke="black" points="990,-58.5 990,-79.5 1065,-79.5 1065,-58.5 990,-58.5"/>
<text text-anchor="middle" x="1027.5" y="-65.9" font-family="DejaVuSans" font-size="12.00">io_fname.c</text>
</a>
</g>
</g>
<!-- Node19&#45;&gt;Node22 -->
<g id="edge31" class="edge">
<title>Node19&#45;&gt;Node22</title>
<path fill="none" stroke="midnightblue" d="M861.41,-116.27C898.46,-105.95 956.64,-89.74 993.39,-79.5"/>
<polygon fill="midnightblue" stroke="midnightblue" points="860.24,-112.97 851.55,-119.02 862.12,-119.71 860.24,-112.97"/>
</g>
<!-- Node23 -->
<g id="node23" class="node">
<title>Node23</title>
<g id="a_node23"><a xlink:href="print_8c.html" target="_top" xlink:title=" ">
<polygon fill="white" stroke="black" points="1083,-58.5 1083,-79.5 1132,-79.5 1132,-58.5 1083,-58.5"/>
<text text-anchor="middle" x="1107.5" y="-65.9" font-family="DejaVuSans" font-size="12.00">print.c</text>
</a>
</g>
</g>
<!-- Node19&#45;&gt;Node23 -->
<g id="edge36" class="edge">
<title>Node19&#45;&gt;Node23</title>
<path fill="none" stroke="midnightblue" d="M861.63,-120.74C909.93,-113.23 999.38,-98.29 1074.5,-80 1077.18,-79.35 1079.96,-78.61 1082.71,-77.83"/>
<polygon fill="midnightblue" stroke="midnightblue" points="861.04,-117.29 851.69,-122.27 862.1,-124.21 861.04,-117.29"/>
</g>
<!-- Node19&#45;&gt;Node24 -->
<g id="edge37" class="edge">
<title>Node19&#45;&gt;Node24</title>
<path fill="none" stroke="midnightblue" d="M861.71,-121.96C920.12,-115.01 1040.63,-99.62 1141.5,-80 1144.23,-79.47 1147.06,-78.87 1149.89,-78.25"/>
<polygon fill="midnightblue" stroke="midnightblue" points="861.07,-118.51 851.54,-123.16 861.89,-125.46 861.07,-118.51"/>
</g>
<!-- Node25 -->
<g id="node25" class="node">
<title>Node25</title>
<g id="a_node25"><a xlink:href="str_8c.html" target="_top" xlink:title=" ">
<polygon fill="white" stroke="black" points="711.5,-58.5 711.5,-79.5 749.5,-79.5 749.5,-58.5 711.5,-58.5"/>
<text text-anchor="middle" x="730.5" y="-65.9" font-family="DejaVuSans" font-size="12.00">str.c</text>
</a>
</g>
</g>
<!-- Node19&#45;&gt;Node25 -->
<g id="edge39" class="edge">
<title>Node19&#45;&gt;Node25</title>
<path fill="none" stroke="midnightblue" d="M800.87,-111.05C783.78,-101.08 761.84,-88.28 747.03,-79.64"/>
<polygon fill="midnightblue" stroke="midnightblue" points="799.38,-114.23 809.78,-116.25 802.9,-108.18 799.38,-114.23"/>
</g>
<!-- Node26 -->
<g id="node26" class="node">
<title>Node26</title>
<g id="a_node26"><a xlink:href="texmath_8c.html" target="_top" xlink:title=" ">
<polygon fill="white" stroke="black" points="767.5,-58.5 767.5,-79.5 835.5,-79.5 835.5,-58.5 767.5,-58.5"/>
<text text-anchor="middle" x="801.5" y="-65.9" font-family="DejaVuSans" font-size="12.00">texmath.c</text>
</a>
</g>
</g>
<!-- Node19&#45;&gt;Node26 -->
<g id="edge41" class="edge">
<title>Node19&#45;&gt;Node26</title>
<path fill="none" stroke="midnightblue" d="M818.04,-107.04C813.93,-97.83 809.16,-87.16 805.8,-79.64"/>
<polygon fill="midnightblue" stroke="midnightblue" points="814.87,-108.54 822.15,-116.25 821.26,-105.69 814.87,-108.54"/>
</g>
</g>
</svg>
