<?xml version="1.0" encoding="UTF-8" standalone="no"?>
<!DOCTYPE svg PUBLIC "-//W3C//DTD SVG 1.1//EN"
 "http://www.w3.org/Graphics/SVG/1.1/DTD/svg11.dtd">
<!-- Generated by graphviz version 2.44.0 ()
 -->
<!-- Title: mem.h Pages: 1 -->
<svg width="849pt" height="262pt"
 viewBox="0.00 0.00 848.50 262.00" xmlns="http://www.w3.org/2000/svg" xmlns:xlink="http://www.w3.org/1999/xlink">
<g id="graph0" class="graph" transform="scale(1 1) rotate(0) translate(4 258)">
<title>mem.h</title>
<polygon fill="white" stroke="transparent" points="-4,4 -4,-258 844.5,-258 844.5,4 -4,4"/>
<!-- Node1 -->
<g id="node1" class="node">
<title>Node1</title>
<g id="a_node1"><a xlink:title=" ">
<polygon fill="#bfbfbf" stroke="black" points="240,-232.5 240,-253.5 293,-253.5 293,-232.5 240,-232.5"/>
<text text-anchor="middle" x="266.5" y="-239.9" font-family="DejaVuSans" font-size="12.00">mem.h</text>
</a>
</g>
</g>
<!-- Node2 -->
<g id="node2" class="node">
<title>Node2</title>
<g id="a_node2"><a xlink:href="box_8c.html" target="_top" xlink:title=" ">
<polygon fill="white" stroke="black" points="12,-174.5 12,-195.5 57,-195.5 57,-174.5 12,-174.5"/>
<text text-anchor="middle" x="34.5" y="-181.9" font-family="DejaVuSans" font-size="12.00">box.c</text>
</a>
</g>
</g>
<!-- Node1&#45;&gt;Node2 -->
<g id="edge1" class="edge">
<title>Node1&#45;&gt;Node2</title>
<path fill="none" stroke="midnightblue" d="M230.04,-233.77C190.8,-224.83 126.6,-209.94 71.5,-196 66.86,-194.82 61.9,-193.52 57.17,-192.25"/>
<polygon fill="midnightblue" stroke="midnightblue" points="229.41,-237.22 239.94,-236.02 230.96,-230.39 229.41,-237.22"/>
</g>
<!-- Node3 -->
<g id="node3" class="node">
<title>Node3</title>
<g id="a_node3"><a xlink:href="box__copy_8c.html" target="_top" xlink:title=" ">
<polygon fill="white" stroke="black" points="228,-116.5 228,-137.5 305,-137.5 305,-116.5 228,-116.5"/>
<text text-anchor="middle" x="266.5" y="-123.9" font-family="DejaVuSans" font-size="12.00">box_copy.c</text>
</a>
</g>
</g>
<!-- Node1&#45;&gt;Node3 -->
<g id="edge2" class="edge">
<title>Node1&#45;&gt;Node3</title>
<path fill="none" stroke="midnightblue" d="M266.5,-222.25C266.5,-197.58 266.5,-156.35 266.5,-137.69"/>
<polygon fill="midnightblue" stroke="midnightblue" points="263,-222.28 266.5,-232.28 270,-222.28 263,-222.28"/>
</g>
<!-- Node4 -->
<g id="node4" class="node">
<title>Node4</title>
<g id="a_node4"><a xlink:href="box__destroy_8c.html" target="_top" xlink:title=" ">
<polygon fill="white" stroke="black" points="323,-116.5 323,-137.5 414,-137.5 414,-116.5 323,-116.5"/>
<text text-anchor="middle" x="368.5" y="-123.9" font-family="DejaVuSans" font-size="12.00">box_destroy.c</text>
</a>
</g>
</g>
<!-- Node1&#45;&gt;Node4 -->
<g id="edge3" class="edge">
<title>Node1&#45;&gt;Node4</title>
<path fill="none" stroke="midnightblue" d="M282.13,-224.54C303.89,-200.21 342.61,-156.94 359.83,-137.69"/>
<polygon fill="midnightblue" stroke="midnightblue" points="279.26,-222.49 275.2,-232.28 284.47,-227.16 279.26,-222.49"/>
</g>
<!-- Node5 -->
<g id="node5" class="node">
<title>Node5</title>
<g id="a_node5"><a xlink:href="box__display_8c.html" target="_top" xlink:title=" ">
<polygon fill="white" stroke="black" points="0,-58.5 0,-79.5 89,-79.5 89,-58.5 0,-58.5"/>
<text text-anchor="middle" x="44.5" y="-65.9" font-family="DejaVuSans" font-size="12.00">box_display.c</text>
</a>
</g>
</g>
<!-- Node1&#45;&gt;Node5 -->
<g id="edge4" class="edge">
<title>Node1&#45;&gt;Node5</title>
<path fill="none" stroke="midnightblue" d="M238.19,-227.56C222.48,-219.1 202.87,-207.78 186.5,-196 132.73,-157.3 75.86,-101.7 53.9,-79.59"/>
<polygon fill="midnightblue" stroke="midnightblue" points="236.93,-230.85 247.4,-232.44 240.2,-224.66 236.93,-230.85"/>
</g>
<!-- Node6 -->
<g id="node6" class="node">
<title>Node6</title>
<g id="a_node6"><a xlink:href="expand_8c.html" target="_top" xlink:title=" ">
<polygon fill="white" stroke="black" points="176,-58.5 176,-79.5 241,-79.5 241,-58.5 176,-58.5"/>
<text text-anchor="middle" x="208.5" y="-65.9" font-family="DejaVuSans" font-size="12.00">expand.c</text>
</a>
</g>
</g>
<!-- Node1&#45;&gt;Node6 -->
<g id="edge5" class="edge">
<title>Node1&#45;&gt;Node6</title>
<path fill="none" stroke="midnightblue" d="M243.09,-226.3C233.23,-218.41 222.64,-207.97 216.5,-196 196.41,-156.79 202.93,-101.48 206.67,-79.52"/>
<polygon fill="midnightblue" stroke="midnightblue" points="240.99,-229.1 251.09,-232.31 245.2,-223.5 240.99,-229.1"/>
</g>
<!-- Node7 -->
<g id="node7" class="node">
<title>Node7</title>
<g id="a_node7"><a xlink:href="fonts_8c.html" target="_top" xlink:title=" ">
<polygon fill="white" stroke="black" points="107,-58.5 107,-79.5 158,-79.5 158,-58.5 107,-58.5"/>
<text text-anchor="middle" x="132.5" y="-65.9" font-family="DejaVuSans" font-size="12.00">fonts.c</text>
</a>
</g>
</g>
<!-- Node1&#45;&gt;Node7 -->
<g id="edge6" class="edge">
<title>Node1&#45;&gt;Node7</title>
<path fill="none" stroke="midnightblue" d="M241.7,-226.68C229.82,-218.54 215.94,-207.79 205.5,-196 171.81,-157.96 146.02,-101.98 136.5,-79.68"/>
<polygon fill="midnightblue" stroke="midnightblue" points="240.03,-229.77 250.31,-232.36 243.89,-223.93 240.03,-229.77"/>
</g>
<!-- Node8 -->
<g id="node8" class="node">
<title>Node8</title>
<g id="a_node8"><a xlink:href="lexer_8c.html" target="_top" xlink:title=" ">
<polygon fill="white" stroke="black" points="259,-58.5 259,-79.5 310,-79.5 310,-58.5 259,-58.5"/>
<text text-anchor="middle" x="284.5" y="-65.9" font-family="DejaVuSans" font-size="12.00">lexer.c</text>
</a>
</g>
</g>
<!-- Node1&#45;&gt;Node8 -->
<g id="edge7" class="edge">
<title>Node1&#45;&gt;Node8</title>
<path fill="none" stroke="midnightblue" d="M250.48,-224.33C229.96,-199.43 199.22,-152.94 218.5,-116 227.35,-99.04 245.63,-87.06 260.71,-79.58"/>
<polygon fill="midnightblue" stroke="midnightblue" points="248.05,-226.87 257.22,-232.18 253.36,-222.31 248.05,-226.87"/>
</g>
<!-- Node9 -->
<g id="node9" class="node">
<title>Node9</title>
<g id="a_node9"><a xlink:href="mem_8c.html" target="_top" xlink:title=" ">
<polygon fill="white" stroke="black" points="684.5,-58.5 684.5,-79.5 736.5,-79.5 736.5,-58.5 684.5,-58.5"/>
<text text-anchor="middle" x="710.5" y="-65.9" font-family="DejaVuSans" font-size="12.00">mem.c</text>
</a>
</g>
</g>
<!-- Node1&#45;&gt;Node9 -->
<g id="edge8" class="edge">
<title>Node1&#45;&gt;Node9</title>
<path fill="none" stroke="midnightblue" d="M303.17,-240.36C407.2,-234.79 699.96,-212.65 750.5,-138 764.09,-117.93 739.77,-93.1 723.46,-79.7"/>
<polygon fill="midnightblue" stroke="midnightblue" points="302.94,-236.86 293.14,-240.87 303.3,-243.85 302.94,-236.86"/>
</g>
<!-- Node10 -->
<g id="node10" class="node">
<title>Node10</title>
<g id="a_node10"><a xlink:href="scan_8c.html" target="_top" xlink:title=" ">
<polygon fill="white" stroke="black" points="691,-116.5 691,-137.5 742,-137.5 742,-116.5 691,-116.5"/>
<text text-anchor="middle" x="716.5" y="-123.9" font-family="DejaVuSans" font-size="12.00">scan.c</text>
</a>
</g>
</g>
<!-- Node1&#45;&gt;Node10 -->
<g id="edge9" class="edge">
<title>Node1&#45;&gt;Node10</title>
<path fill="none" stroke="midnightblue" d="M303.39,-239.38C360.07,-234.67 471.54,-222.65 562.5,-196 614.11,-180.88 671.09,-152.37 699.05,-137.52"/>
<polygon fill="midnightblue" stroke="midnightblue" points="302.83,-235.92 293.14,-240.2 303.39,-242.89 302.83,-235.92"/>
</g>
<!-- Node11 -->
<g id="node11" class="node">
<title>Node11</title>
<g id="a_node11"><a xlink:href="tex__header_8h.html" target="_top" xlink:title=" ">
<polygon fill="white" stroke="black" points="754.5,-58.5 754.5,-79.5 840.5,-79.5 840.5,-58.5 754.5,-58.5"/>
<text text-anchor="middle" x="797.5" y="-65.9" font-family="DejaVuSans" font-size="12.00">tex_header.h</text>
</a>
</g>
</g>
<!-- Node1&#45;&gt;Node11 -->
<g id="edge10" class="edge">
<title>Node1&#45;&gt;Node11</title>
<path fill="none" stroke="midnightblue" d="M303.39,-240.35C392.26,-235.98 615.96,-222.6 685.5,-196 726.85,-180.18 738.37,-172.19 766.5,-138 781.34,-119.97 790.64,-93.67 794.85,-79.65"/>
<polygon fill="midnightblue" stroke="midnightblue" points="303.06,-236.86 293.24,-240.83 303.4,-243.85 303.06,-236.86"/>
</g>
<!-- Node13 -->
<g id="node13" class="node">
<title>Node13</title>
<g id="a_node13"><a xlink:href="texmac_8h.html" target="_top" xlink:title=" ">
<polygon fill="white" stroke="black" points="489,-174.5 489,-195.5 554,-195.5 554,-174.5 489,-174.5"/>
<text text-anchor="middle" x="521.5" y="-181.9" font-family="DejaVuSans" font-size="12.00">texmac.h</text>
</a>
</g>
</g>
<!-- Node1&#45;&gt;Node13 -->
<g id="edge12" class="edge">
<title>Node1&#45;&gt;Node13</title>
<path fill="none" stroke="midnightblue" d="M303.32,-233.91C353.08,-222.99 441.05,-203.67 488.67,-193.21"/>
<polygon fill="midnightblue" stroke="midnightblue" points="302.32,-230.55 293.31,-236.11 303.83,-237.39 302.32,-230.55"/>
</g>
<!-- Node12 -->
<g id="node12" class="node">
<title>Node12</title>
<g id="a_node12"><a xlink:href="tex_8c.html" target="_top" xlink:title=" ">
<polygon fill="white" stroke="black" points="777,-0.5 777,-21.5 818,-21.5 818,-0.5 777,-0.5"/>
<text text-anchor="middle" x="797.5" y="-7.9" font-family="DejaVuSans" font-size="12.00">tex.c</text>
</a>
</g>
</g>
<!-- Node11&#45;&gt;Node12 -->
<g id="edge11" class="edge">
<title>Node11&#45;&gt;Node12</title>
<path fill="none" stroke="midnightblue" d="M797.5,-48.16C797.5,-39.16 797.5,-28.92 797.5,-21.64"/>
<polygon fill="midnightblue" stroke="midnightblue" points="794,-48.25 797.5,-58.25 801,-48.25 794,-48.25"/>
</g>
<!-- Node13&#45;&gt;Node3 -->
<g id="edge13" class="edge">
<title>Node13&#45;&gt;Node3</title>
<path fill="none" stroke="midnightblue" d="M479.08,-174.68C430.6,-164.04 351.93,-146.76 305.1,-136.48"/>
<polygon fill="midnightblue" stroke="midnightblue" points="478.43,-178.12 488.95,-176.85 479.93,-171.29 478.43,-178.12"/>
</g>
<!-- Node13&#45;&gt;Node4 -->
<g id="edge14" class="edge">
<title>Node13&#45;&gt;Node4</title>
<path fill="none" stroke="midnightblue" d="M485.77,-170.92C457.8,-160.69 419.56,-146.69 394.46,-137.5"/>
<polygon fill="midnightblue" stroke="midnightblue" points="484.6,-174.22 495.2,-174.37 487.01,-167.65 484.6,-174.22"/>
</g>
<!-- Node13&#45;&gt;Node6 -->
<g id="edge15" class="edge">
<title>Node13&#45;&gt;Node6</title>
<path fill="none" stroke="midnightblue" d="M500.68,-168.24C476.76,-150.41 438.73,-122.93 422.5,-116 350.27,-85.16 326.11,-97.31 249.5,-80 246.78,-79.39 243.97,-78.73 241.15,-78.07"/>
<polygon fill="midnightblue" stroke="midnightblue" points="498.68,-171.12 508.78,-174.32 502.88,-165.52 498.68,-171.12"/>
</g>
<!-- Node13&#45;&gt;Node9 -->
<g id="edge17" class="edge">
<title>Node13&#45;&gt;Node9</title>
<path fill="none" stroke="midnightblue" d="M546,-169.22C585.37,-145.48 661.61,-99.49 694.62,-79.58"/>
<polygon fill="midnightblue" stroke="midnightblue" points="544.04,-166.31 537.29,-174.48 547.66,-172.31 544.04,-166.31"/>
</g>
<!-- Node13&#45;&gt;Node10 -->
<g id="edge31" class="edge">
<title>Node13&#45;&gt;Node10</title>
<path fill="none" stroke="midnightblue" d="M564.08,-171.77C602.8,-160.65 658.68,-144.6 690.92,-135.35"/>
<polygon fill="midnightblue" stroke="midnightblue" points="562.78,-168.5 554.14,-174.63 564.72,-175.23 562.78,-168.5"/>
</g>
<!-- Node13&#45;&gt;Node11 -->
<g id="edge32" class="edge">
<title>Node13&#45;&gt;Node11</title>
<path fill="none" stroke="midnightblue" d="M553.89,-170.41C575.59,-161.29 604.78,-148.97 630.5,-138 653.21,-128.31 658.69,-125.44 681.5,-116 712.73,-103.08 748.97,-88.82 772.52,-79.66"/>
<polygon fill="midnightblue" stroke="midnightblue" points="552.35,-167.26 544.49,-174.36 555.06,-173.71 552.35,-167.26"/>
</g>
<!-- Node14 -->
<g id="node14" class="node">
<title>Node14</title>
<g id="a_node14"><a xlink:href="hash_8c.html" target="_top" xlink:title=" ">
<polygon fill="white" stroke="black" points="530.5,-58.5 530.5,-79.5 582.5,-79.5 582.5,-58.5 530.5,-58.5"/>
<text text-anchor="middle" x="556.5" y="-65.9" font-family="DejaVuSans" font-size="12.00">hash.c</text>
</a>
</g>
</g>
<!-- Node13&#45;&gt;Node14 -->
<g id="edge16" class="edge">
<title>Node13&#45;&gt;Node14</title>
<path fill="none" stroke="midnightblue" d="M527.46,-164.58C535.02,-139.96 547.77,-98.44 553.52,-79.69"/>
<polygon fill="midnightblue" stroke="midnightblue" points="524.07,-163.69 524.48,-174.28 530.76,-165.75 524.07,-163.69"/>
</g>
<!-- Node15 -->
<g id="node15" class="node">
<title>Node15</title>
<g id="a_node15"><a xlink:href="print_8h.html" target="_top" xlink:title=" ">
<polygon fill="white" stroke="black" points="470.5,-116.5 470.5,-137.5 520.5,-137.5 520.5,-116.5 470.5,-116.5"/>
<text text-anchor="middle" x="495.5" y="-123.9" font-family="DejaVuSans" font-size="12.00">print.h</text>
</a>
</g>
</g>
<!-- Node13&#45;&gt;Node15 -->
<g id="edge18" class="edge">
<title>Node13&#45;&gt;Node15</title>
<path fill="none" stroke="midnightblue" d="M512.7,-165.04C508.42,-155.83 503.47,-145.16 499.98,-137.64"/>
<polygon fill="midnightblue" stroke="midnightblue" points="509.59,-166.65 516.97,-174.25 515.93,-163.7 509.59,-166.65"/>
</g>
<!-- Node19 -->
<g id="node19" class="node">
<title>Node19</title>
<g id="a_node19"><a xlink:href="printout_8c.html" target="_top" xlink:title=" ">
<polygon fill="white" stroke="black" points="601,-58.5 601,-79.5 666,-79.5 666,-58.5 601,-58.5"/>
<text text-anchor="middle" x="633.5" y="-65.9" font-family="DejaVuSans" font-size="12.00">printout.c</text>
</a>
</g>
</g>
<!-- Node13&#45;&gt;Node19 -->
<g id="edge30" class="edge">
<title>Node13&#45;&gt;Node19</title>
<path fill="none" stroke="midnightblue" d="M538.35,-166.85C562.19,-142.58 604.98,-99.02 623.98,-79.69"/>
<polygon fill="midnightblue" stroke="midnightblue" points="535.56,-164.69 531.05,-174.28 540.55,-169.6 535.56,-164.69"/>
</g>
<!-- Node15&#45;&gt;Node5 -->
<g id="edge19" class="edge">
<title>Node15&#45;&gt;Node5</title>
<path fill="none" stroke="midnightblue" d="M460.13,-120.97C448.19,-119.32 434.77,-117.52 422.5,-116 278.27,-98.14 241.23,-101.49 97.5,-80 94.81,-79.6 92.06,-79.16 89.28,-78.7"/>
<polygon fill="midnightblue" stroke="midnightblue" points="459.8,-124.45 470.18,-122.37 460.76,-117.52 459.8,-124.45"/>
</g>
<!-- Node15&#45;&gt;Node6 -->
<g id="edge22" class="edge">
<title>Node15&#45;&gt;Node6</title>
<path fill="none" stroke="midnightblue" d="M460.36,-116.85C459.06,-116.56 457.77,-116.27 456.5,-116 365.2,-96.39 340.91,-99.07 249.5,-80 246.77,-79.43 243.95,-78.81 241.13,-78.17"/>
<polygon fill="midnightblue" stroke="midnightblue" points="459.85,-120.33 470.39,-119.25 461.48,-113.52 459.85,-120.33"/>
</g>
<!-- Node15&#45;&gt;Node7 -->
<g id="edge23" class="edge">
<title>Node15&#45;&gt;Node7</title>
<path fill="none" stroke="midnightblue" d="M460.33,-121.15C376.95,-109.65 173.66,-81.55 166.5,-80 163.73,-79.4 160.86,-78.7 158.02,-77.94"/>
<polygon fill="midnightblue" stroke="midnightblue" points="459.96,-124.63 470.35,-122.53 460.92,-117.7 459.96,-124.63"/>
</g>
<!-- Node15&#45;&gt;Node8 -->
<g id="edge25" class="edge">
<title>Node15&#45;&gt;Node8</title>
<path fill="none" stroke="midnightblue" d="M460.34,-116.93C412.74,-104.63 332.15,-83.78 318.5,-80 315.77,-79.24 312.93,-78.44 310.09,-77.62"/>
<polygon fill="midnightblue" stroke="midnightblue" points="459.69,-120.37 470.24,-119.48 461.44,-113.59 459.69,-120.37"/>
</g>
<!-- Node15&#45;&gt;Node9 -->
<g id="edge26" class="edge">
<title>Node15&#45;&gt;Node9</title>
<path fill="none" stroke="midnightblue" d="M530.78,-117.15C566.92,-108.03 624.7,-93.31 674.5,-80 677.63,-79.16 680.92,-78.27 684.17,-77.38"/>
<polygon fill="midnightblue" stroke="midnightblue" points="529.58,-113.84 520.74,-119.68 531.29,-120.63 529.58,-113.84"/>
</g>
<!-- Node15&#45;&gt;Node11 -->
<g id="edge29" class="edge">
<title>Node15&#45;&gt;Node11</title>
<path fill="none" stroke="midnightblue" d="M530.67,-119.62C579.07,-110.82 668.93,-94.41 745.5,-80 748.39,-79.46 751.37,-78.89 754.37,-78.32"/>
<polygon fill="midnightblue" stroke="midnightblue" points="529.92,-116.2 520.71,-121.43 531.17,-123.09 529.92,-116.2"/>
</g>
<!-- Node15&#45;&gt;Node14 -->
<g id="edge24" class="edge">
<title>Node15&#45;&gt;Node14</title>
<path fill="none" stroke="midnightblue" d="M513.62,-109.36C524.18,-99.67 537.11,-87.8 546,-79.64"/>
<polygon fill="midnightblue" stroke="midnightblue" points="511.12,-106.9 506.13,-116.25 515.86,-112.06 511.12,-106.9"/>
</g>
<!-- Node16 -->
<g id="node16" class="node">
<title>Node16</title>
<g id="a_node16"><a xlink:href="eqtb_8c.html" target="_top" xlink:title=" ">
<polygon fill="white" stroke="black" points="395,-58.5 395,-79.5 444,-79.5 444,-58.5 395,-58.5"/>
<text text-anchor="middle" x="419.5" y="-65.9" font-family="DejaVuSans" font-size="12.00">eqtb.c</text>
</a>
</g>
</g>
<!-- Node15&#45;&gt;Node16 -->
<g id="edge20" class="edge">
<title>Node15&#45;&gt;Node16</title>
<path fill="none" stroke="midnightblue" d="M474.07,-110.21C460.72,-100.37 443.98,-88.04 432.59,-79.64"/>
<polygon fill="midnightblue" stroke="midnightblue" points="472.14,-113.13 482.26,-116.25 476.29,-107.5 472.14,-113.13"/>
</g>
<!-- Node17 -->
<g id="node17" class="node">
<title>Node17</title>
<g id="a_node17"><a xlink:href="error_8c.html" target="_top" xlink:title=" ">
<polygon fill="white" stroke="black" points="462.5,-58.5 462.5,-79.5 512.5,-79.5 512.5,-58.5 462.5,-58.5"/>
<text text-anchor="middle" x="487.5" y="-65.9" font-family="DejaVuSans" font-size="12.00">error.c</text>
</a>
</g>
</g>
<!-- Node15&#45;&gt;Node17 -->
<g id="edge21" class="edge">
<title>Node15&#45;&gt;Node17</title>
<path fill="none" stroke="midnightblue" d="M492.67,-106.16C491.38,-97.16 489.92,-86.92 488.88,-79.64"/>
<polygon fill="midnightblue" stroke="midnightblue" points="489.23,-106.84 494.11,-116.25 496.16,-105.85 489.23,-106.84"/>
</g>
<!-- Node18 -->
<g id="node18" class="node">
<title>Node18</title>
<g id="a_node18"><a xlink:href="print_8c.html" target="_top" xlink:title=" ">
<polygon fill="white" stroke="black" points="328,-58.5 328,-79.5 377,-79.5 377,-58.5 328,-58.5"/>
<text text-anchor="middle" x="352.5" y="-65.9" font-family="DejaVuSans" font-size="12.00">print.c</text>
</a>
</g>
</g>
<!-- Node15&#45;&gt;Node18 -->
<g id="edge27" class="edge">
<title>Node15&#45;&gt;Node18</title>
<path fill="none" stroke="midnightblue" d="M461.42,-112.65C435.34,-102.44 400.02,-88.61 376.76,-79.5"/>
<polygon fill="midnightblue" stroke="midnightblue" points="460.33,-115.99 470.92,-116.37 462.88,-109.47 460.33,-115.99"/>
</g>
<!-- Node15&#45;&gt;Node19 -->
<g id="edge28" class="edge">
<title>Node15&#45;&gt;Node19</title>
<path fill="none" stroke="midnightblue" d="M528.72,-112.52C553.85,-102.32 587.74,-88.57 610.09,-79.5"/>
<polygon fill="midnightblue" stroke="midnightblue" points="527.17,-109.37 519.22,-116.37 529.81,-115.86 527.17,-109.37"/>
</g>
</g>
</svg>
