<?xml version="1.0" encoding="UTF-8" standalone="no"?>
<!DOCTYPE svg PUBLIC "-//W3C//DTD SVG 1.1//EN"
 "http://www.w3.org/Graphics/SVG/1.1/DTD/svg11.dtd">
<!-- Generated by graphviz version 2.44.0 ()
 -->
<!-- Title: mem.h Pages: 1 -->
<svg width="1254pt" height="262pt"
 viewBox="0.00 0.00 1253.50 262.00" xmlns="http://www.w3.org/2000/svg" xmlns:xlink="http://www.w3.org/1999/xlink">
<g id="graph0" class="graph" transform="scale(1 1) rotate(0) translate(4 258)">
<title>mem.h</title>
<polygon fill="white" stroke="transparent" points="-4,4 -4,-258 1249.5,-258 1249.5,4 -4,4"/>
<!-- Node1 -->
<g id="node1" class="node">
<title>Node1</title>
<g id="a_node1"><a xlink:title=" ">
<polygon fill="#bfbfbf" stroke="black" points="335,-232.5 335,-253.5 388,-253.5 388,-232.5 335,-232.5"/>
<text text-anchor="middle" x="361.5" y="-239.9" font-family="DejaVuSans" font-size="12.00">mem.h</text>
</a>
</g>
</g>
<!-- Node2 -->
<g id="node2" class="node">
<title>Node2</title>
<g id="a_node2"><a xlink:href="box_8c.html" target="_top" xlink:title=" ">
<polygon fill="white" stroke="black" points="117,-174.5 117,-195.5 162,-195.5 162,-174.5 117,-174.5"/>
<text text-anchor="middle" x="139.5" y="-181.9" font-family="DejaVuSans" font-size="12.00">box.c</text>
</a>
</g>
</g>
<!-- Node1&#45;&gt;Node2 -->
<g id="edge1" class="edge">
<title>Node1&#45;&gt;Node2</title>
<path fill="none" stroke="midnightblue" d="M324.88,-233.13C287.52,-224.02 227.89,-209.33 176.5,-196 171.86,-194.8 166.91,-193.48 162.18,-192.21"/>
<polygon fill="midnightblue" stroke="midnightblue" points="324.26,-236.58 334.8,-235.54 325.92,-229.78 324.26,-236.58"/>
</g>
<!-- Node3 -->
<g id="node3" class="node">
<title>Node3</title>
<g id="a_node3"><a xlink:href="box__copy_8c.html" target="_top" xlink:title=" ">
<polygon fill="white" stroke="black" points="409,-116.5 409,-137.5 486,-137.5 486,-116.5 409,-116.5"/>
<text text-anchor="middle" x="447.5" y="-123.9" font-family="DejaVuSans" font-size="12.00">box_copy.c</text>
</a>
</g>
</g>
<!-- Node1&#45;&gt;Node3 -->
<g id="edge2" class="edge">
<title>Node1&#45;&gt;Node3</title>
<path fill="none" stroke="midnightblue" d="M374.92,-224.22C393.31,-199.83 425.73,-156.86 440.19,-137.69"/>
<polygon fill="midnightblue" stroke="midnightblue" points="372.06,-222.19 368.83,-232.28 377.65,-226.41 372.06,-222.19"/>
</g>
<!-- Node4 -->
<g id="node4" class="node">
<title>Node4</title>
<g id="a_node4"><a xlink:href="box__destroy_8c.html" target="_top" xlink:title=" ">
<polygon fill="white" stroke="black" points="504,-116.5 504,-137.5 595,-137.5 595,-116.5 504,-116.5"/>
<text text-anchor="middle" x="549.5" y="-123.9" font-family="DejaVuSans" font-size="12.00">box_destroy.c</text>
</a>
</g>
</g>
<!-- Node1&#45;&gt;Node4 -->
<g id="edge3" class="edge">
<title>Node1&#45;&gt;Node4</title>
<path fill="none" stroke="midnightblue" d="M385.87,-227.22C425.03,-203.48 500.87,-157.49 533.71,-137.58"/>
<polygon fill="midnightblue" stroke="midnightblue" points="383.94,-224.3 377.21,-232.48 387.57,-230.28 383.94,-224.3"/>
</g>
<!-- Node5 -->
<g id="node5" class="node">
<title>Node5</title>
<g id="a_node5"><a xlink:href="box__display_8c.html" target="_top" xlink:title=" ">
<polygon fill="white" stroke="black" points="0,-58.5 0,-79.5 89,-79.5 89,-58.5 0,-58.5"/>
<text text-anchor="middle" x="44.5" y="-65.9" font-family="DejaVuSans" font-size="12.00">box_display.c</text>
</a>
</g>
</g>
<!-- Node1&#45;&gt;Node5 -->
<g id="edge4" class="edge">
<title>Node1&#45;&gt;Node5</title>
<path fill="none" stroke="midnightblue" d="M333.86,-227.74C316.48,-218.73 293.62,-206.79 273.5,-196 193.92,-153.32 99.69,-100.85 61.67,-79.61"/>
<polygon fill="midnightblue" stroke="midnightblue" points="332.41,-230.93 342.9,-232.42 335.63,-224.72 332.41,-230.93"/>
</g>
<!-- Node6 -->
<g id="node6" class="node">
<title>Node6</title>
<g id="a_node6"><a xlink:href="eqtb__save_8c.html" target="_top" xlink:title=" ">
<polygon fill="white" stroke="black" points="107,-58.5 107,-79.5 188,-79.5 188,-58.5 107,-58.5"/>
<text text-anchor="middle" x="147.5" y="-65.9" font-family="DejaVuSans" font-size="12.00">eqtb_save.c</text>
</a>
</g>
</g>
<!-- Node1&#45;&gt;Node6 -->
<g id="edge5" class="edge">
<title>Node1&#45;&gt;Node6</title>
<path fill="none" stroke="midnightblue" d="M341.45,-225.89C297.67,-190.7 194.63,-107.88 159.49,-79.63"/>
<polygon fill="midnightblue" stroke="midnightblue" points="339.39,-228.72 349.38,-232.26 343.78,-223.27 339.39,-228.72"/>
</g>
<!-- Node7 -->
<g id="node7" class="node">
<title>Node7</title>
<g id="a_node7"><a xlink:href="expand_8c.html" target="_top" xlink:title=" ">
<polygon fill="white" stroke="black" points="344,-58.5 344,-79.5 409,-79.5 409,-58.5 344,-58.5"/>
<text text-anchor="middle" x="376.5" y="-65.9" font-family="DejaVuSans" font-size="12.00">expand.c</text>
</a>
</g>
</g>
<!-- Node1&#45;&gt;Node7 -->
<g id="edge6" class="edge">
<title>Node1&#45;&gt;Node7</title>
<path fill="none" stroke="midnightblue" d="M361.22,-222.18C361.12,-197.28 361.74,-153.31 366.5,-116 368.11,-103.35 371.47,-89.04 373.85,-79.78"/>
<polygon fill="midnightblue" stroke="midnightblue" points="357.73,-222.5 361.31,-232.47 364.72,-222.44 357.73,-222.5"/>
</g>
<!-- Node8 -->
<g id="node8" class="node">
<title>Node8</title>
<g id="a_node8"><a xlink:href="fonts_8c.html" target="_top" xlink:title=" ">
<polygon fill="white" stroke="black" points="206,-58.5 206,-79.5 257,-79.5 257,-58.5 206,-58.5"/>
<text text-anchor="middle" x="231.5" y="-65.9" font-family="DejaVuSans" font-size="12.00">fonts.c</text>
</a>
</g>
</g>
<!-- Node1&#45;&gt;Node8 -->
<g id="edge7" class="edge">
<title>Node1&#45;&gt;Node8</title>
<path fill="none" stroke="midnightblue" d="M347.96,-224.09C320.65,-187.95 259.77,-107.41 238.78,-79.63"/>
<polygon fill="midnightblue" stroke="midnightblue" points="345.32,-226.39 354.14,-232.26 350.9,-222.17 345.32,-226.39"/>
</g>
<!-- Node9 -->
<g id="node9" class="node">
<title>Node9</title>
<g id="a_node9"><a xlink:href="lexer_8c.html" target="_top" xlink:title=" ">
<polygon fill="white" stroke="black" points="275,-58.5 275,-79.5 326,-79.5 326,-58.5 275,-58.5"/>
<text text-anchor="middle" x="300.5" y="-65.9" font-family="DejaVuSans" font-size="12.00">lexer.c</text>
</a>
</g>
</g>
<!-- Node1&#45;&gt;Node9 -->
<g id="edge8" class="edge">
<title>Node1&#45;&gt;Node9</title>
<path fill="none" stroke="midnightblue" d="M354.65,-222.69C341.61,-185.92 313.64,-107.05 303.92,-79.63"/>
<polygon fill="midnightblue" stroke="midnightblue" points="351.4,-224 358.05,-232.26 358,-221.66 351.4,-224"/>
</g>
<!-- Node10 -->
<g id="node10" class="node">
<title>Node10</title>
<g id="a_node10"><a xlink:href="mem_8c.html" target="_top" xlink:title=" ">
<polygon fill="white" stroke="black" points="427.5,-58.5 427.5,-79.5 479.5,-79.5 479.5,-58.5 427.5,-58.5"/>
<text text-anchor="middle" x="453.5" y="-65.9" font-family="DejaVuSans" font-size="12.00">mem.c</text>
</a>
</g>
</g>
<!-- Node1&#45;&gt;Node10 -->
<g id="edge9" class="edge">
<title>Node1&#45;&gt;Node10</title>
<path fill="none" stroke="midnightblue" d="M363.93,-222.23C367.89,-196.11 377.61,-149.48 399.5,-116 409.47,-100.74 425.96,-87.75 438.1,-79.51"/>
<polygon fill="midnightblue" stroke="midnightblue" points="360.43,-221.99 362.53,-232.37 367.36,-222.95 360.43,-221.99"/>
</g>
<!-- Node11 -->
<g id="node11" class="node">
<title>Node11</title>
<g id="a_node11"><a xlink:href="scan_8c.html" target="_top" xlink:title=" ">
<polygon fill="white" stroke="black" points="1090,-58.5 1090,-79.5 1141,-79.5 1141,-58.5 1090,-58.5"/>
<text text-anchor="middle" x="1115.5" y="-65.9" font-family="DejaVuSans" font-size="12.00">scan.c</text>
</a>
</g>
</g>
<!-- Node1&#45;&gt;Node11 -->
<g id="edge10" class="edge">
<title>Node1&#45;&gt;Node11</title>
<path fill="none" stroke="midnightblue" d="M398.41,-239.14C464.88,-233.6 608.94,-219.8 728.5,-196 823.89,-177.01 847.13,-168.45 939.5,-138 995.5,-119.54 1059.76,-93.42 1092.98,-79.54"/>
<polygon fill="midnightblue" stroke="midnightblue" points="398.1,-235.65 388.42,-239.96 398.67,-242.63 398.1,-235.65"/>
</g>
<!-- Node12 -->
<g id="node12" class="node">
<title>Node12</title>
<g id="a_node12"><a xlink:href="tex__header_8h.html" target="_top" xlink:title=" ">
<polygon fill="white" stroke="black" points="1159.5,-58.5 1159.5,-79.5 1245.5,-79.5 1245.5,-58.5 1159.5,-58.5"/>
<text text-anchor="middle" x="1202.5" y="-65.9" font-family="DejaVuSans" font-size="12.00">tex_header.h</text>
</a>
</g>
</g>
<!-- Node1&#45;&gt;Node12 -->
<g id="edge11" class="edge">
<title>Node1&#45;&gt;Node12</title>
<path fill="none" stroke="midnightblue" d="M398.72,-240.14C473.66,-235.93 647.83,-223.8 791.5,-196 884.46,-178.01 905.97,-165.74 996.5,-138 1060.78,-118.31 1135.57,-93.02 1174.97,-79.51"/>
<polygon fill="midnightblue" stroke="midnightblue" points="398.2,-236.66 388.4,-240.71 398.58,-243.65 398.2,-236.66"/>
</g>
<!-- Node14 -->
<g id="node14" class="node">
<title>Node14</title>
<g id="a_node14"><a xlink:href="texmac_8h.html" target="_top" xlink:title=" ">
<polygon fill="white" stroke="black" points="655,-174.5 655,-195.5 720,-195.5 720,-174.5 655,-174.5"/>
<text text-anchor="middle" x="687.5" y="-181.9" font-family="DejaVuSans" font-size="12.00">texmac.h</text>
</a>
</g>
</g>
<!-- Node1&#45;&gt;Node14 -->
<g id="edge13" class="edge">
<title>Node1&#45;&gt;Node14</title>
<path fill="none" stroke="midnightblue" d="M398.23,-235.69C462.31,-224.68 593.52,-202.14 654.72,-191.63"/>
<polygon fill="midnightblue" stroke="midnightblue" points="397.44,-232.27 388.18,-237.42 398.63,-239.17 397.44,-232.27"/>
</g>
<!-- Node13 -->
<g id="node13" class="node">
<title>Node13</title>
<g id="a_node13"><a xlink:href="tex_8c.html" target="_top" xlink:title=" ">
<polygon fill="white" stroke="black" points="1182,-0.5 1182,-21.5 1223,-21.5 1223,-0.5 1182,-0.5"/>
<text text-anchor="middle" x="1202.5" y="-7.9" font-family="DejaVuSans" font-size="12.00">tex.c</text>
</a>
</g>
</g>
<!-- Node12&#45;&gt;Node13 -->
<g id="edge12" class="edge">
<title>Node12&#45;&gt;Node13</title>
<path fill="none" stroke="midnightblue" d="M1202.5,-48.16C1202.5,-39.16 1202.5,-28.92 1202.5,-21.64"/>
<polygon fill="midnightblue" stroke="midnightblue" points="1199,-48.25 1202.5,-58.25 1206,-48.25 1199,-48.25"/>
</g>
<!-- Node14&#45;&gt;Node3 -->
<g id="edge14" class="edge">
<title>Node14&#45;&gt;Node3</title>
<path fill="none" stroke="midnightblue" d="M644.87,-174.05C599.97,-163.58 529.86,-147.22 486.41,-137.08"/>
<polygon fill="midnightblue" stroke="midnightblue" points="644.35,-177.53 654.88,-176.39 645.94,-170.71 644.35,-177.53"/>
</g>
<!-- Node14&#45;&gt;Node4 -->
<g id="edge15" class="edge">
<title>Node14&#45;&gt;Node4</title>
<path fill="none" stroke="midnightblue" d="M654.28,-170.52C629.15,-160.32 595.26,-146.57 572.91,-137.5"/>
<polygon fill="midnightblue" stroke="midnightblue" points="653.19,-173.86 663.78,-174.37 655.83,-167.37 653.19,-173.86"/>
</g>
<!-- Node14&#45;&gt;Node7 -->
<g id="edge16" class="edge">
<title>Node14&#45;&gt;Node7</title>
<path fill="none" stroke="midnightblue" d="M669.25,-167.46C649.12,-149.54 617.7,-122.62 603.5,-116 527.58,-80.6 500.37,-97.7 418.5,-80 415.42,-79.33 412.23,-78.62 409.03,-77.89"/>
<polygon fill="midnightblue" stroke="midnightblue" points="667.07,-170.2 676.85,-174.27 671.74,-164.99 667.07,-170.2"/>
</g>
<!-- Node14&#45;&gt;Node10 -->
<g id="edge18" class="edge">
<title>Node14&#45;&gt;Node10</title>
<path fill="none" stroke="midnightblue" d="M678.45,-165.23C670,-149.69 655.92,-128.25 637.5,-116 580.77,-78.27 554.38,-97.36 488.5,-80 485.69,-79.26 482.76,-78.46 479.84,-77.65"/>
<polygon fill="midnightblue" stroke="midnightblue" points="675.5,-167.14 683.19,-174.43 681.72,-163.94 675.5,-167.14"/>
</g>
<!-- Node14&#45;&gt;Node11 -->
<g id="edge37" class="edge">
<title>Node14&#45;&gt;Node11</title>
<path fill="none" stroke="midnightblue" d="M730.05,-175.04C770.67,-166.29 833.51,-152.24 887.5,-138 961.39,-118.51 1047.55,-91.67 1089.67,-78.29"/>
<polygon fill="midnightblue" stroke="midnightblue" points="729.26,-171.63 720.22,-177.15 730.73,-178.47 729.26,-171.63"/>
</g>
<!-- Node14&#45;&gt;Node12 -->
<g id="edge38" class="edge">
<title>Node14&#45;&gt;Node12</title>
<path fill="none" stroke="midnightblue" d="M730.45,-177.13C780.76,-168.87 866.51,-154.07 939.5,-138 1022.4,-119.74 1118.75,-93.54 1168.64,-79.59"/>
<polygon fill="midnightblue" stroke="midnightblue" points="729.58,-173.73 720.27,-178.8 730.71,-180.64 729.58,-173.73"/>
</g>
<!-- Node15 -->
<g id="node15" class="node">
<title>Node15</title>
<g id="a_node15"><a xlink:href="hash_8c.html" target="_top" xlink:title=" ">
<polygon fill="white" stroke="black" points="936.5,-58.5 936.5,-79.5 988.5,-79.5 988.5,-58.5 936.5,-58.5"/>
<text text-anchor="middle" x="962.5" y="-65.9" font-family="DejaVuSans" font-size="12.00">hash.c</text>
</a>
</g>
</g>
<!-- Node14&#45;&gt;Node15 -->
<g id="edge17" class="edge">
<title>Node14&#45;&gt;Node15</title>
<path fill="none" stroke="midnightblue" d="M719.95,-170.55C776.19,-147.23 890.45,-99.87 939.4,-79.58"/>
<polygon fill="midnightblue" stroke="midnightblue" points="718.37,-167.41 710.47,-174.48 721.05,-173.88 718.37,-167.41"/>
</g>
<!-- Node16 -->
<g id="node16" class="node">
<title>Node16</title>
<g id="a_node16"><a xlink:href="print_8h.html" target="_top" xlink:title=" ">
<polygon fill="white" stroke="black" points="689.5,-116.5 689.5,-137.5 739.5,-137.5 739.5,-116.5 689.5,-116.5"/>
<text text-anchor="middle" x="714.5" y="-123.9" font-family="DejaVuSans" font-size="12.00">print.h</text>
</a>
</g>
</g>
<!-- Node14&#45;&gt;Node16 -->
<g id="edge19" class="edge">
<title>Node14&#45;&gt;Node16</title>
<path fill="none" stroke="midnightblue" d="M696.64,-165.04C701.08,-155.83 706.23,-145.16 709.85,-137.64"/>
<polygon fill="midnightblue" stroke="midnightblue" points="693.39,-163.72 692.2,-174.25 699.7,-166.76 693.39,-163.72"/>
</g>
<!-- Node21 -->
<g id="node21" class="node">
<title>Node21</title>
<g id="a_node21"><a xlink:href="printout_8c.html" target="_top" xlink:title=" ">
<polygon fill="white" stroke="black" points="1007,-58.5 1007,-79.5 1072,-79.5 1072,-58.5 1007,-58.5"/>
<text text-anchor="middle" x="1039.5" y="-65.9" font-family="DejaVuSans" font-size="12.00">printout.c</text>
</a>
</g>
</g>
<!-- Node14&#45;&gt;Node21 -->
<g id="edge36" class="edge">
<title>Node14&#45;&gt;Node21</title>
<path fill="none" stroke="midnightblue" d="M730.1,-171.53C760.64,-162.48 802.71,-149.82 839.5,-138 901.65,-118.04 974.07,-92.96 1012.42,-79.53"/>
<polygon fill="midnightblue" stroke="midnightblue" points="728.81,-168.26 720.21,-174.45 730.8,-174.97 728.81,-168.26"/>
</g>
<!-- Node16&#45;&gt;Node5 -->
<g id="edge20" class="edge">
<title>Node16&#45;&gt;Node5</title>
<path fill="none" stroke="midnightblue" d="M679.26,-122.65C657.45,-120.63 628.86,-118.04 603.5,-116 378.77,-97.88 321.09,-108.95 97.5,-80 94.81,-79.65 92.04,-79.25 89.26,-78.82"/>
<polygon fill="midnightblue" stroke="midnightblue" points="679.1,-126.15 689.38,-123.6 679.75,-119.19 679.1,-126.15"/>
</g>
<!-- Node16&#45;&gt;Node6 -->
<g id="edge22" class="edge">
<title>Node16&#45;&gt;Node6</title>
<path fill="none" stroke="midnightblue" d="M679.25,-122.81C657.43,-120.84 628.84,-118.26 603.5,-116 422.62,-99.85 376.2,-106.2 196.5,-80 193.75,-79.6 190.92,-79.14 188.08,-78.65"/>
<polygon fill="midnightblue" stroke="midnightblue" points="679.1,-126.31 689.37,-123.72 679.73,-119.34 679.1,-126.31"/>
</g>
<!-- Node16&#45;&gt;Node7 -->
<g id="edge24" class="edge">
<title>Node16&#45;&gt;Node7</title>
<path fill="none" stroke="midnightblue" d="M679.4,-121.47C623.82,-114.08 512.22,-98.41 418.5,-80 415.41,-79.39 412.2,-78.72 409,-78.01"/>
<polygon fill="midnightblue" stroke="midnightblue" points="679.06,-124.95 689.43,-122.79 679.98,-118.01 679.06,-124.95"/>
</g>
<!-- Node16&#45;&gt;Node8 -->
<g id="edge25" class="edge">
<title>Node16&#45;&gt;Node8</title>
<path fill="none" stroke="midnightblue" d="M679.24,-122.76C580.49,-113.65 305.75,-87.91 265.5,-80 262.84,-79.48 260.1,-78.84 257.37,-78.14"/>
<polygon fill="midnightblue" stroke="midnightblue" points="679.04,-126.26 689.32,-123.69 679.68,-119.29 679.04,-126.26"/>
</g>
<!-- Node16&#45;&gt;Node9 -->
<g id="edge28" class="edge">
<title>Node16&#45;&gt;Node9</title>
<path fill="none" stroke="midnightblue" d="M679.03,-122.47C597.76,-114.24 400.06,-93.51 334.5,-80 331.73,-79.43 328.85,-78.74 326.01,-77.99"/>
<polygon fill="midnightblue" stroke="midnightblue" points="678.95,-125.97 689.25,-123.5 679.65,-119.01 678.95,-125.97"/>
</g>
<!-- Node16&#45;&gt;Node10 -->
<g id="edge29" class="edge">
<title>Node16&#45;&gt;Node10</title>
<path fill="none" stroke="midnightblue" d="M679.35,-116.88C678.05,-116.58 676.77,-116.28 675.5,-116 592.91,-97.48 570.83,-99.64 488.5,-80 485.67,-79.33 482.73,-78.57 479.81,-77.79"/>
<polygon fill="midnightblue" stroke="midnightblue" points="678.84,-120.36 689.38,-119.32 680.49,-113.56 678.84,-120.36"/>
</g>
<!-- Node16&#45;&gt;Node11 -->
<g id="edge32" class="edge">
<title>Node16&#45;&gt;Node11</title>
<path fill="none" stroke="midnightblue" d="M749.88,-123.47C815.71,-118.36 961.21,-105.06 1081.5,-80 1084.27,-79.42 1087.14,-78.73 1089.99,-77.98"/>
<polygon fill="midnightblue" stroke="midnightblue" points="749.35,-120 739.65,-124.25 749.89,-126.98 749.35,-120"/>
</g>
<!-- Node16&#45;&gt;Node12 -->
<g id="edge34" class="edge">
<title>Node16&#45;&gt;Node12</title>
<path fill="none" stroke="midnightblue" d="M749.87,-123.29C824.27,-117.37 1002.32,-102.02 1150.5,-80 1153.41,-79.57 1156.4,-79.09 1159.42,-78.58"/>
<polygon fill="midnightblue" stroke="midnightblue" points="749.36,-119.82 739.66,-124.1 749.91,-126.8 749.36,-119.82"/>
</g>
<!-- Node16&#45;&gt;Node15 -->
<g id="edge26" class="edge">
<title>Node16&#45;&gt;Node15</title>
<path fill="none" stroke="midnightblue" d="M749.62,-119.15C791.98,-110.72 865.25,-95.6 927.5,-80 930.32,-79.29 933.26,-78.52 936.18,-77.72"/>
<polygon fill="midnightblue" stroke="midnightblue" points="748.67,-115.77 739.54,-121.15 750.03,-122.64 748.67,-115.77"/>
</g>
<!-- Node17 -->
<g id="node17" class="node">
<title>Node17</title>
<g id="a_node17"><a xlink:href="eqtb_8c.html" target="_top" xlink:title=" ">
<polygon fill="white" stroke="black" points="801,-58.5 801,-79.5 850,-79.5 850,-58.5 801,-58.5"/>
<text text-anchor="middle" x="825.5" y="-65.9" font-family="DejaVuSans" font-size="12.00">eqtb.c</text>
</a>
</g>
</g>
<!-- Node16&#45;&gt;Node17 -->
<g id="edge21" class="edge">
<title>Node16&#45;&gt;Node17</title>
<path fill="none" stroke="midnightblue" d="M742.57,-111.84C762.64,-101.71 789.09,-88.37 806.67,-79.5"/>
<polygon fill="midnightblue" stroke="midnightblue" points="740.93,-108.74 733.58,-116.37 744.09,-114.99 740.93,-108.74"/>
</g>
<!-- Node18 -->
<g id="node18" class="node">
<title>Node18</title>
<g id="a_node18"><a xlink:href="error_8c.html" target="_top" xlink:title=" ">
<polygon fill="white" stroke="black" points="868.5,-58.5 868.5,-79.5 918.5,-79.5 918.5,-58.5 868.5,-58.5"/>
<text text-anchor="middle" x="893.5" y="-65.9" font-family="DejaVuSans" font-size="12.00">error.c</text>
</a>
</g>
</g>
<!-- Node16&#45;&gt;Node18 -->
<g id="edge23" class="edge">
<title>Node16&#45;&gt;Node18</title>
<path fill="none" stroke="midnightblue" d="M749.56,-115.03C784.53,-104.09 837.37,-87.56 868.36,-77.86"/>
<polygon fill="midnightblue" stroke="midnightblue" points="748.27,-111.77 739.77,-118.1 750.36,-118.45 748.27,-111.77"/>
</g>
<!-- Node19 -->
<g id="node19" class="node">
<title>Node19</title>
<g id="a_node19"><a xlink:href="io__fname_8c.html" target="_top" xlink:title=" ">
<polygon fill="white" stroke="black" points="498,-58.5 498,-79.5 573,-79.5 573,-58.5 498,-58.5"/>
<text text-anchor="middle" x="535.5" y="-65.9" font-family="DejaVuSans" font-size="12.00">io_fname.c</text>
</a>
</g>
</g>
<!-- Node16&#45;&gt;Node19 -->
<g id="edge27" class="edge">
<title>Node16&#45;&gt;Node19</title>
<path fill="none" stroke="midnightblue" d="M679.54,-115.06C646.52,-104.73 597.51,-89.4 566.03,-79.55"/>
<polygon fill="midnightblue" stroke="midnightblue" points="678.64,-118.45 689.23,-118.1 680.73,-111.77 678.64,-118.45"/>
</g>
<!-- Node20 -->
<g id="node20" class="node">
<title>Node20</title>
<g id="a_node20"><a xlink:href="print_8c.html" target="_top" xlink:title=" ">
<polygon fill="white" stroke="black" points="591,-58.5 591,-79.5 640,-79.5 640,-58.5 591,-58.5"/>
<text text-anchor="middle" x="615.5" y="-65.9" font-family="DejaVuSans" font-size="12.00">print.c</text>
</a>
</g>
</g>
<!-- Node16&#45;&gt;Node20 -->
<g id="edge30" class="edge">
<title>Node16&#45;&gt;Node20</title>
<path fill="none" stroke="midnightblue" d="M688.06,-111.05C670.45,-101.08 647.82,-88.28 632.55,-79.64"/>
<polygon fill="midnightblue" stroke="midnightblue" points="686.83,-114.37 697.26,-116.25 690.27,-108.28 686.83,-114.37"/>
</g>
<!-- Node16&#45;&gt;Node21 -->
<g id="edge31" class="edge">
<title>Node16&#45;&gt;Node21</title>
<path fill="none" stroke="midnightblue" d="M749.61,-121.13C803.25,-113.5 908.73,-97.76 997.5,-80 1000.59,-79.38 1003.79,-78.7 1006.99,-77.99"/>
<polygon fill="midnightblue" stroke="midnightblue" points="749.01,-117.68 739.6,-122.55 749.99,-124.61 749.01,-117.68"/>
</g>
<!-- Node22 -->
<g id="node22" class="node">
<title>Node22</title>
<g id="a_node22"><a xlink:href="str_8c.html" target="_top" xlink:title=" ">
<polygon fill="white" stroke="black" points="658.5,-58.5 658.5,-79.5 696.5,-79.5 696.5,-58.5 658.5,-58.5"/>
<text text-anchor="middle" x="677.5" y="-65.9" font-family="DejaVuSans" font-size="12.00">str.c</text>
</a>
</g>
</g>
<!-- Node16&#45;&gt;Node22 -->
<g id="edge33" class="edge">
<title>Node16&#45;&gt;Node22</title>
<path fill="none" stroke="midnightblue" d="M702.36,-107.63C696.19,-98.29 688.94,-87.32 683.87,-79.64"/>
<polygon fill="midnightblue" stroke="midnightblue" points="699.62,-109.83 708.06,-116.25 705.46,-105.97 699.62,-109.83"/>
</g>
<!-- Node23 -->
<g id="node23" class="node">
<title>Node23</title>
<g id="a_node23"><a xlink:href="texmath_8c.html" target="_top" xlink:title=" ">
<polygon fill="white" stroke="black" points="714.5,-58.5 714.5,-79.5 782.5,-79.5 782.5,-58.5 714.5,-58.5"/>
<text text-anchor="middle" x="748.5" y="-65.9" font-family="DejaVuSans" font-size="12.00">texmath.c</text>
</a>
</g>
</g>
<!-- Node16&#45;&gt;Node23 -->
<g id="edge35" class="edge">
<title>Node16&#45;&gt;Node23</title>
<path fill="none" stroke="midnightblue" d="M725.65,-107.63C731.32,-98.29 737.98,-87.32 742.65,-79.64"/>
<polygon fill="midnightblue" stroke="midnightblue" points="722.62,-105.88 720.42,-116.25 728.6,-109.51 722.62,-105.88"/>
</g>
</g>
</svg>
