<?xml version="1.0" encoding="UTF-8" standalone="no"?>
<!DOCTYPE svg PUBLIC "-//W3C//DTD SVG 1.1//EN"
 "http://www.w3.org/Graphics/SVG/1.1/DTD/svg11.dtd">
<!-- Generated by graphviz version 2.44.0 ()
 -->
<!-- Title: mmode.c Pages: 1 -->
<svg width="843pt" height="436pt"
 viewBox="0.00 0.00 842.78 436.00" xmlns="http://www.w3.org/2000/svg" xmlns:xlink="http://www.w3.org/1999/xlink">
<g id="graph0" class="graph" transform="scale(1 1) rotate(0) translate(4 432)">
<title>mmode.c</title>
<polygon fill="white" stroke="transparent" points="-4,4 -4,-432 838.78,-432 838.78,4 -4,4"/>
<!-- Node1 -->
<g id="node1" class="node">
<title>Node1</title>
<g id="a_node1"><a xlink:title=" ">
<polygon fill="#bfbfbf" stroke="black" points="557.49,-406.5 557.49,-427.5 622.49,-427.5 622.49,-406.5 557.49,-406.5"/>
<text text-anchor="middle" x="589.99" y="-413.9" font-family="DejaVuSans" font-size="12.00">mmode.c</text>
</a>
</g>
</g>
<!-- Node2 -->
<g id="node2" class="node">
<title>Node2</title>
<g id="a_node2"><a xlink:href="mem_8h.html" target="_top" xlink:title=" ">
<polygon fill="white" stroke="black" points="643.49,-232.5 643.49,-253.5 696.49,-253.5 696.49,-232.5 643.49,-232.5"/>
<text text-anchor="middle" x="669.99" y="-239.9" font-family="DejaVuSans" font-size="12.00">mem.h</text>
</a>
</g>
</g>
<!-- Node1&#45;&gt;Node2 -->
<g id="edge1" class="edge">
<title>Node1&#45;&gt;Node2</title>
<path fill="none" stroke="midnightblue" d="M594.52,-406.26C607.34,-378.71 644.02,-299.83 661.07,-263.17"/>
<polygon fill="midnightblue" stroke="midnightblue" points="664.46,-264.18 665.51,-253.63 658.12,-261.22 664.46,-264.18"/>
</g>
<!-- Node11 -->
<g id="node11" class="node">
<title>Node11</title>
<g id="a_node11"><a xlink:href="pack_8h.html" target="_top" xlink:title=" ">
<polygon fill="white" stroke="black" points="655.99,-348.5 655.99,-369.5 707.99,-369.5 707.99,-348.5 655.99,-348.5"/>
<text text-anchor="middle" x="681.99" y="-355.9" font-family="DejaVuSans" font-size="12.00">pack.h</text>
</a>
</g>
</g>
<!-- Node1&#45;&gt;Node11 -->
<g id="edge10" class="edge">
<title>Node1&#45;&gt;Node11</title>
<path fill="none" stroke="midnightblue" d="M606.01,-406.25C620.13,-397.65 640.92,-385 657.18,-375.1"/>
<polygon fill="midnightblue" stroke="midnightblue" points="659.43,-377.83 666.15,-369.64 655.79,-371.85 659.43,-377.83"/>
</g>
<!-- Node13 -->
<g id="node13" class="node">
<title>Node13</title>
<g id="a_node13"><a xlink:href="texmath_8h.html" target="_top" xlink:title=" ">
<polygon fill="white" stroke="black" points="752.99,-232.5 752.99,-253.5 820.99,-253.5 820.99,-232.5 752.99,-232.5"/>
<text text-anchor="middle" x="786.99" y="-239.9" font-family="DejaVuSans" font-size="12.00">texmath.h</text>
</a>
</g>
</g>
<!-- Node1&#45;&gt;Node13 -->
<g id="edge32" class="edge">
<title>Node1&#45;&gt;Node13</title>
<path fill="none" stroke="midnightblue" d="M622.68,-410.78C650.43,-404.92 689.95,-393.04 716.99,-370 751.13,-340.92 771.77,-290.81 781.09,-263.36"/>
<polygon fill="midnightblue" stroke="midnightblue" points="784.45,-264.32 784.2,-253.73 777.79,-262.17 784.45,-264.32"/>
</g>
<!-- Node17 -->
<g id="node17" class="node">
<title>Node17</title>
<g id="a_node17"><a xlink:href="print_8h.html" target="_top" xlink:title=" ">
<polygon fill="white" stroke="black" points="498.99,-290.5 498.99,-311.5 548.99,-311.5 548.99,-290.5 498.99,-290.5"/>
<text text-anchor="middle" x="523.99" y="-297.9" font-family="DejaVuSans" font-size="12.00">print.h</text>
</a>
</g>
</g>
<!-- Node1&#45;&gt;Node17 -->
<g id="edge23" class="edge">
<title>Node1&#45;&gt;Node17</title>
<path fill="none" stroke="midnightblue" d="M584.36,-406.28C573.35,-387.27 548.81,-344.88 534.64,-320.4"/>
<polygon fill="midnightblue" stroke="midnightblue" points="537.64,-318.6 529.6,-311.69 531.58,-322.1 537.64,-318.6"/>
</g>
<!-- Node18 -->
<g id="node18" class="node">
<title>Node18</title>
<g id="a_node18"><a xlink:href="eqtb_8h.html" target="_top" xlink:title=" ">
<polygon fill="white" stroke="black" points="574.99,-232.5 574.99,-253.5 624.99,-253.5 624.99,-232.5 574.99,-232.5"/>
<text text-anchor="middle" x="599.99" y="-239.9" font-family="DejaVuSans" font-size="12.00">eqtb.h</text>
</a>
</g>
</g>
<!-- Node1&#45;&gt;Node18 -->
<g id="edge33" class="edge">
<title>Node1&#45;&gt;Node18</title>
<path fill="none" stroke="midnightblue" d="M590.56,-406.26C592.15,-378.82 596.7,-300.51 598.85,-263.64"/>
<polygon fill="midnightblue" stroke="midnightblue" points="602.34,-263.82 599.43,-253.63 595.35,-263.41 602.34,-263.82"/>
</g>
<!-- Node19 -->
<g id="node19" class="node">
<title>Node19</title>
<g id="a_node19"><a xlink:href="fonts_8h.html" target="_top" xlink:title=" ">
<polygon fill="white" stroke="black" points="212.99,-290.5 212.99,-311.5 264.99,-311.5 264.99,-290.5 212.99,-290.5"/>
<text text-anchor="middle" x="238.99" y="-297.9" font-family="DejaVuSans" font-size="12.00">fonts.h</text>
</a>
</g>
</g>
<!-- Node1&#45;&gt;Node19 -->
<g id="edge34" class="edge">
<title>Node1&#45;&gt;Node19</title>
<path fill="none" stroke="midnightblue" d="M557.2,-413.24C510.53,-408.52 422.88,-396.69 352.99,-370 318.17,-356.7 281.85,-333.07 259.82,-317.47"/>
<polygon fill="midnightblue" stroke="midnightblue" points="261.73,-314.53 251.57,-311.52 257.64,-320.21 261.73,-314.53"/>
</g>
<!-- Node21 -->
<g id="node21" class="node">
<title>Node21</title>
<g id="a_node21"><a xlink:href="mmode_8h.html" target="_top" xlink:title=" ">
<polygon fill="white" stroke="black" points="361.99,-348.5 361.99,-369.5 427.99,-369.5 427.99,-348.5 361.99,-348.5"/>
<text text-anchor="middle" x="394.99" y="-355.9" font-family="DejaVuSans" font-size="12.00">mmode.h</text>
</a>
</g>
</g>
<!-- Node1&#45;&gt;Node21 -->
<g id="edge42" class="edge">
<title>Node1&#45;&gt;Node21</title>
<path fill="none" stroke="midnightblue" d="M557.35,-406.63C524.55,-397.21 473.82,-382.64 437.8,-372.29"/>
<polygon fill="midnightblue" stroke="midnightblue" points="438.64,-368.89 428.06,-369.5 436.71,-375.62 438.64,-368.89"/>
</g>
<!-- Node3 -->
<g id="node3" class="node">
<title>Node3</title>
<g id="a_node3"><a xlink:href="global_8h.html" target="_top" xlink:title=" ">
<polygon fill="white" stroke="black" points="357.99,-116.5 357.99,-137.5 415.99,-137.5 415.99,-116.5 357.99,-116.5"/>
<text text-anchor="middle" x="386.99" y="-123.9" font-family="DejaVuSans" font-size="12.00">global.h</text>
</a>
</g>
</g>
<!-- Node2&#45;&gt;Node3 -->
<g id="edge2" class="edge">
<title>Node2&#45;&gt;Node3</title>
<path fill="none" stroke="midnightblue" d="M660.89,-232.5C646.16,-217.68 615.54,-189.21 583.99,-174 532.62,-149.24 467.17,-137.38 426.16,-132.02"/>
<polygon fill="midnightblue" stroke="midnightblue" points="426.38,-128.52 416.03,-130.77 425.52,-135.47 426.38,-128.52"/>
</g>
<!-- Node10 -->
<g id="node10" class="node">
<title>Node10</title>
<g id="a_node10"><a xlink:href="tex__constant_8h.html" target="_top" xlink:title=" ">
<polygon fill="white" stroke="black" points="424.99,-174.5 424.99,-195.5 518.99,-195.5 518.99,-174.5 424.99,-174.5"/>
<text text-anchor="middle" x="471.99" y="-181.9" font-family="DejaVuSans" font-size="12.00">tex_constant.h</text>
</a>
</g>
</g>
<!-- Node2&#45;&gt;Node10 -->
<g id="edge9" class="edge">
<title>Node2&#45;&gt;Node10</title>
<path fill="none" stroke="midnightblue" d="M643.29,-234.45C610.63,-225.21 554.9,-209.45 515.9,-198.42"/>
<polygon fill="midnightblue" stroke="midnightblue" points="516.45,-194.94 505.88,-195.58 514.55,-201.67 516.45,-194.94"/>
</g>
<!-- Node4 -->
<g id="node4" class="node">
<title>Node4</title>
<g id="a_node4"><a xlink:href="global__macros_8h.html" target="_top" xlink:title=" ">
<polygon fill="white" stroke="black" points="463.99,-58.5 463.99,-79.5 567.99,-79.5 567.99,-58.5 463.99,-58.5"/>
<text text-anchor="middle" x="515.99" y="-65.9" font-family="DejaVuSans" font-size="12.00">global_macros.h</text>
</a>
</g>
</g>
<!-- Node3&#45;&gt;Node4 -->
<g id="edge3" class="edge">
<title>Node3&#45;&gt;Node4</title>
<path fill="none" stroke="midnightblue" d="M409.17,-116.37C429.97,-107.34 461.28,-93.75 484.64,-83.61"/>
<polygon fill="midnightblue" stroke="midnightblue" points="486.32,-86.69 494.1,-79.5 483.54,-80.27 486.32,-86.69"/>
</g>
<!-- Node6 -->
<g id="node6" class="node">
<title>Node6</title>
<g id="a_node6"><a xlink:href="global__const_8h.html" target="_top" xlink:title=" ">
<polygon fill="white" stroke="black" points="257.49,-58.5 257.49,-79.5 350.49,-79.5 350.49,-58.5 257.49,-58.5"/>
<text text-anchor="middle" x="303.99" y="-65.9" font-family="DejaVuSans" font-size="12.00">global_const.h</text>
</a>
</g>
</g>
<!-- Node3&#45;&gt;Node6 -->
<g id="edge5" class="edge">
<title>Node3&#45;&gt;Node6</title>
<path fill="none" stroke="midnightblue" d="M372.53,-116.25C359.92,-107.73 341.39,-95.24 326.78,-85.38"/>
<polygon fill="midnightblue" stroke="midnightblue" points="328.53,-82.33 318.28,-79.64 324.61,-88.14 328.53,-82.33"/>
</g>
<!-- Node7 -->
<g id="node7" class="node">
<title>Node7</title>
<g id="a_node7"><a xlink:href="tex__types_8h.html" target="_top" xlink:title=" ">
<polygon fill="white" stroke="black" points="368.49,-58.5 368.49,-79.5 445.49,-79.5 445.49,-58.5 368.49,-58.5"/>
<text text-anchor="middle" x="406.99" y="-65.9" font-family="DejaVuSans" font-size="12.00">tex_types.h</text>
</a>
</g>
</g>
<!-- Node3&#45;&gt;Node7 -->
<g id="edge6" class="edge">
<title>Node3&#45;&gt;Node7</title>
<path fill="none" stroke="midnightblue" d="M390.47,-116.25C393.14,-108.78 396.9,-98.24 400.16,-89.11"/>
<polygon fill="midnightblue" stroke="midnightblue" points="403.48,-90.24 403.55,-79.64 396.89,-87.88 403.48,-90.24"/>
</g>
<!-- Node5 -->
<g id="node5" class="node">
<title>Node5</title>
<g id="a_node5"><a xlink:title=" ">
<polygon fill="white" stroke="#bfbfbf" points="486.49,-0.5 486.49,-21.5 545.49,-21.5 545.49,-0.5 486.49,-0.5"/>
<text text-anchor="middle" x="515.99" y="-7.9" font-family="DejaVuSans" font-size="12.00">assert.h</text>
</a>
</g>
</g>
<!-- Node4&#45;&gt;Node5 -->
<g id="edge4" class="edge">
<title>Node4&#45;&gt;Node5</title>
<path fill="none" stroke="midnightblue" d="M515.99,-58.25C515.99,-50.94 515.99,-40.69 515.99,-31.7"/>
<polygon fill="midnightblue" stroke="midnightblue" points="519.49,-31.64 515.99,-21.64 512.49,-31.64 519.49,-31.64"/>
</g>
<!-- Node8 -->
<g id="node8" class="node">
<title>Node8</title>
<g id="a_node8"><a xlink:title=" ">
<polygon fill="white" stroke="#bfbfbf" points="374.49,-0.5 374.49,-21.5 439.49,-21.5 439.49,-0.5 374.49,-0.5"/>
<text text-anchor="middle" x="406.99" y="-7.9" font-family="DejaVuSans" font-size="12.00">stdbool.h</text>
</a>
</g>
</g>
<!-- Node7&#45;&gt;Node8 -->
<g id="edge7" class="edge">
<title>Node7&#45;&gt;Node8</title>
<path fill="none" stroke="midnightblue" d="M406.99,-58.25C406.99,-50.94 406.99,-40.69 406.99,-31.7"/>
<polygon fill="midnightblue" stroke="midnightblue" points="410.49,-31.64 406.99,-21.64 403.49,-31.64 410.49,-31.64"/>
</g>
<!-- Node9 -->
<g id="node9" class="node">
<title>Node9</title>
<g id="a_node9"><a xlink:title=" ">
<polygon fill="white" stroke="#bfbfbf" points="251.49,-0.5 251.49,-21.5 306.49,-21.5 306.49,-0.5 251.49,-0.5"/>
<text text-anchor="middle" x="278.99" y="-7.9" font-family="DejaVuSans" font-size="12.00">stdint.h</text>
</a>
</g>
</g>
<!-- Node7&#45;&gt;Node9 -->
<g id="edge8" class="edge">
<title>Node7&#45;&gt;Node9</title>
<path fill="none" stroke="midnightblue" d="M384.99,-58.37C364.35,-49.34 333.27,-35.75 310.1,-25.61"/>
<polygon fill="midnightblue" stroke="midnightblue" points="311.27,-22.3 300.71,-21.5 308.46,-28.72 311.27,-22.3"/>
</g>
<!-- Node11&#45;&gt;Node3 -->
<g id="edge11" class="edge">
<title>Node11&#45;&gt;Node3</title>
<path fill="none" stroke="midnightblue" d="M708.19,-350.03C757.56,-333.46 857.05,-291.8 829.99,-232 813.89,-196.42 799.63,-189.97 763.99,-174 704.19,-147.21 510.01,-134.29 426.15,-129.85"/>
<polygon fill="midnightblue" stroke="midnightblue" points="426.18,-126.35 416.01,-129.33 425.82,-133.34 426.18,-126.35"/>
</g>
<!-- Node12 -->
<g id="node12" class="node">
<title>Node12</title>
<g id="a_node12"><a xlink:href="box_8h.html" target="_top" xlink:title=" ">
<polygon fill="white" stroke="black" points="657.99,-290.5 657.99,-311.5 703.99,-311.5 703.99,-290.5 657.99,-290.5"/>
<text text-anchor="middle" x="680.99" y="-297.9" font-family="DejaVuSans" font-size="12.00">box.h</text>
</a>
</g>
</g>
<!-- Node11&#45;&gt;Node12 -->
<g id="edge12" class="edge">
<title>Node11&#45;&gt;Node12</title>
<path fill="none" stroke="midnightblue" d="M681.82,-348.25C681.68,-340.94 681.5,-330.69 681.34,-321.7"/>
<polygon fill="midnightblue" stroke="midnightblue" points="684.84,-321.58 681.16,-311.64 677.84,-321.7 684.84,-321.58"/>
</g>
<!-- Node12&#45;&gt;Node2 -->
<g id="edge14" class="edge">
<title>Node12&#45;&gt;Node2</title>
<path fill="none" stroke="midnightblue" d="M679.07,-290.25C677.64,-282.94 675.63,-272.69 673.86,-263.7"/>
<polygon fill="midnightblue" stroke="midnightblue" points="677.25,-262.78 671.88,-253.64 670.38,-264.13 677.25,-262.78"/>
</g>
<!-- Node12&#45;&gt;Node3 -->
<g id="edge13" class="edge">
<title>Node12&#45;&gt;Node3</title>
<path fill="none" stroke="midnightblue" d="M689.55,-290.37C700.49,-276.82 716.8,-251.6 705.99,-232 682.64,-189.68 658.86,-191.98 613.99,-174 551.14,-148.81 472.76,-136.86 426.47,-131.62"/>
<polygon fill="midnightblue" stroke="midnightblue" points="426.58,-128.12 416.26,-130.52 425.83,-135.08 426.58,-128.12"/>
</g>
<!-- Node12&#45;&gt;Node13 -->
<g id="edge15" class="edge">
<title>Node12&#45;&gt;Node13</title>
<path fill="none" stroke="midnightblue" d="M699.45,-290.25C716.1,-281.45 740.79,-268.41 759.71,-258.41"/>
<polygon fill="midnightblue" stroke="midnightblue" points="761.53,-261.41 768.74,-253.64 758.26,-255.22 761.53,-261.41"/>
</g>
<!-- Node14 -->
<g id="node14" class="node">
<title>Node14</title>
<g id="a_node14"><a xlink:href="str_8h.html" target="_top" xlink:title=" ">
<polygon fill="white" stroke="black" points="289.49,-232.5 289.49,-253.5 328.49,-253.5 328.49,-232.5 289.49,-232.5"/>
<text text-anchor="middle" x="308.99" y="-239.9" font-family="DejaVuSans" font-size="12.00">str.h</text>
</a>
</g>
</g>
<!-- Node12&#45;&gt;Node14 -->
<g id="edge17" class="edge">
<title>Node12&#45;&gt;Node14</title>
<path fill="none" stroke="midnightblue" d="M657.72,-296.5C592.96,-286.75 410.71,-259.31 338.75,-248.48"/>
<polygon fill="midnightblue" stroke="midnightblue" points="338.98,-244.98 328.57,-246.95 337.94,-251.9 338.98,-244.98"/>
</g>
<!-- Node13&#45;&gt;Node3 -->
<g id="edge16" class="edge">
<title>Node13&#45;&gt;Node3</title>
<path fill="none" stroke="midnightblue" d="M783.14,-232.15C776.59,-216.86 761.75,-187.74 738.99,-174 687.04,-142.65 506.75,-132.31 426.29,-129.21"/>
<polygon fill="midnightblue" stroke="midnightblue" points="426.2,-125.7 416.08,-128.83 425.94,-132.7 426.2,-125.7"/>
</g>
<!-- Node14&#45;&gt;Node3 -->
<g id="edge20" class="edge">
<title>Node14&#45;&gt;Node3</title>
<path fill="none" stroke="midnightblue" d="M310.52,-232.47C313.1,-218.61 319.32,-192.51 331.99,-174 340.2,-162 352.37,-151.38 363.17,-143.37"/>
<polygon fill="midnightblue" stroke="midnightblue" points="365.29,-146.16 371.44,-137.54 361.25,-140.44 365.29,-146.16"/>
</g>
<!-- Node14&#45;&gt;Node9 -->
<g id="edge19" class="edge">
<title>Node14&#45;&gt;Node9</title>
<path fill="none" stroke="midnightblue" d="M304,-232.49C291.5,-208.03 259.02,-140.61 247.99,-80 246.24,-70.38 245.13,-67.35 247.99,-58 251.13,-47.72 257.43,-37.66 263.53,-29.58"/>
<polygon fill="midnightblue" stroke="midnightblue" points="266.35,-31.65 269.92,-21.68 260.91,-27.25 266.35,-31.65"/>
</g>
<!-- Node15 -->
<g id="node15" class="node">
<title>Node15</title>
<g id="a_node15"><a xlink:title=" ">
<polygon fill="white" stroke="#bfbfbf" points="110.99,-174.5 110.99,-195.5 162.99,-195.5 162.99,-174.5 110.99,-174.5"/>
<text text-anchor="middle" x="136.99" y="-181.9" font-family="DejaVuSans" font-size="12.00">stdio.h</text>
</a>
</g>
</g>
<!-- Node14&#45;&gt;Node15 -->
<g id="edge18" class="edge">
<title>Node14&#45;&gt;Node15</title>
<path fill="none" stroke="midnightblue" d="M289.26,-235.58C260.99,-226.37 208.48,-209.28 173.13,-197.77"/>
<polygon fill="midnightblue" stroke="midnightblue" points="173.8,-194.3 163.21,-194.54 171.63,-200.96 173.8,-194.3"/>
</g>
<!-- Node16 -->
<g id="node16" class="node">
<title>Node16</title>
<g id="a_node16"><a xlink:href="charset_8h.html" target="_top" xlink:title=" ">
<polygon fill="white" stroke="black" points="341.49,-174.5 341.49,-195.5 406.49,-195.5 406.49,-174.5 341.49,-174.5"/>
<text text-anchor="middle" x="373.99" y="-181.9" font-family="DejaVuSans" font-size="12.00">charset.h</text>
</a>
</g>
</g>
<!-- Node14&#45;&gt;Node16 -->
<g id="edge21" class="edge">
<title>Node14&#45;&gt;Node16</title>
<path fill="none" stroke="midnightblue" d="M320.31,-232.25C329.91,-223.97 343.88,-211.94 355.16,-202.22"/>
<polygon fill="midnightblue" stroke="midnightblue" points="357.51,-204.82 362.8,-195.64 352.94,-199.52 357.51,-204.82"/>
</g>
<!-- Node16&#45;&gt;Node3 -->
<g id="edge22" class="edge">
<title>Node16&#45;&gt;Node3</title>
<path fill="none" stroke="midnightblue" d="M376.25,-174.25C377.97,-166.86 380.38,-156.47 382.48,-147.41"/>
<polygon fill="midnightblue" stroke="midnightblue" points="385.9,-148.18 384.75,-137.64 379.08,-146.59 385.9,-148.18"/>
</g>
<!-- Node17&#45;&gt;Node3 -->
<g id="edge25" class="edge">
<title>Node17&#45;&gt;Node3</title>
<path fill="none" stroke="midnightblue" d="M527.91,-290.32C536.45,-267.55 553.95,-209.78 527.99,-174 505,-142.31 459.58,-132.04 426.48,-128.92"/>
<polygon fill="midnightblue" stroke="midnightblue" points="426.45,-125.41 416.22,-128.14 425.92,-132.39 426.45,-125.41"/>
</g>
<!-- Node17&#45;&gt;Node10 -->
<g id="edge27" class="edge">
<title>Node17&#45;&gt;Node10</title>
<path fill="none" stroke="midnightblue" d="M519.56,-290.28C510.96,-271.43 491.89,-229.62 480.68,-205.05"/>
<polygon fill="midnightblue" stroke="midnightblue" points="483.75,-203.34 476.41,-195.69 477.38,-206.25 483.75,-203.34"/>
</g>
<!-- Node17&#45;&gt;Node14 -->
<g id="edge31" class="edge">
<title>Node17&#45;&gt;Node14</title>
<path fill="none" stroke="midnightblue" d="M498.91,-293.47C458.89,-283.04 380.81,-262.71 338.29,-251.63"/>
<polygon fill="midnightblue" stroke="midnightblue" points="339.1,-248.23 328.54,-249.09 337.33,-255 339.1,-248.23"/>
</g>
<!-- Node17&#45;&gt;Node15 -->
<g id="edge24" class="edge">
<title>Node17&#45;&gt;Node15</title>
<path fill="none" stroke="midnightblue" d="M498.74,-298.06C422.57,-292 198.71,-272.78 171.99,-254 155.75,-242.58 146.54,-221.31 141.69,-205.59"/>
<polygon fill="midnightblue" stroke="midnightblue" points="145.02,-204.49 138.99,-195.78 138.27,-206.35 145.02,-204.49"/>
</g>
<!-- Node17&#45;&gt;Node16 -->
<g id="edge26" class="edge">
<title>Node17&#45;&gt;Node16</title>
<path fill="none" stroke="midnightblue" d="M511.46,-290.48C485.71,-270.91 426.64,-226.01 394.96,-201.94"/>
<polygon fill="midnightblue" stroke="midnightblue" points="396.88,-199 386.8,-195.74 392.65,-204.58 396.88,-199"/>
</g>
<!-- Node17&#45;&gt;Node18 -->
<g id="edge28" class="edge">
<title>Node17&#45;&gt;Node18</title>
<path fill="none" stroke="midnightblue" d="M537.23,-290.25C548.67,-281.81 565.42,-269.47 578.74,-259.66"/>
<polygon fill="midnightblue" stroke="midnightblue" points="580.93,-262.39 586.9,-253.64 576.78,-256.76 580.93,-262.39"/>
</g>
<!-- Node18&#45;&gt;Node3 -->
<g id="edge29" class="edge">
<title>Node18&#45;&gt;Node3</title>
<path fill="none" stroke="midnightblue" d="M597.02,-232.02C592.06,-217.08 580.64,-189.07 560.99,-174 521.67,-143.84 464.29,-133.4 426.32,-129.81"/>
<polygon fill="midnightblue" stroke="midnightblue" points="426.41,-126.31 416.15,-128.97 425.83,-133.28 426.41,-126.31"/>
</g>
<!-- Node18&#45;&gt;Node10 -->
<g id="edge30" class="edge">
<title>Node18&#45;&gt;Node10</title>
<path fill="none" stroke="midnightblue" d="M577.99,-232.37C557.35,-223.34 526.27,-209.75 503.1,-199.61"/>
<polygon fill="midnightblue" stroke="midnightblue" points="504.27,-196.3 493.71,-195.5 501.46,-202.72 504.27,-196.3"/>
</g>
<!-- Node19&#45;&gt;Node3 -->
<g id="edge36" class="edge">
<title>Node19&#45;&gt;Node3</title>
<path fill="none" stroke="midnightblue" d="M212.73,-298.44C160.33,-294.71 45.75,-283.32 21.99,-254 15.83,-246.4 18.37,-241.08 21.99,-232 35.15,-199 45.47,-190.39 76.99,-174 123.46,-149.83 275.37,-136 347.84,-130.62"/>
<polygon fill="midnightblue" stroke="midnightblue" points="348.22,-134.11 357.94,-129.89 347.71,-127.12 348.22,-134.11"/>
</g>
<!-- Node19&#45;&gt;Node10 -->
<g id="edge37" class="edge">
<title>Node19&#45;&gt;Node10</title>
<path fill="none" stroke="midnightblue" d="M259.72,-290.47C279.61,-281.28 310.45,-266.91 336.99,-254 374.35,-235.82 417.14,-214.12 444.35,-200.2"/>
<polygon fill="midnightblue" stroke="midnightblue" points="445.98,-203.3 453.29,-195.63 442.79,-197.07 445.98,-203.3"/>
</g>
<!-- Node19&#45;&gt;Node14 -->
<g id="edge38" class="edge">
<title>Node19&#45;&gt;Node14</title>
<path fill="none" stroke="midnightblue" d="M251.18,-290.25C261.62,-281.89 276.85,-269.71 289.06,-259.94"/>
<polygon fill="midnightblue" stroke="midnightblue" points="291.31,-262.62 296.94,-253.64 286.94,-257.16 291.31,-262.62"/>
</g>
<!-- Node19&#45;&gt;Node15 -->
<g id="edge35" class="edge">
<title>Node19&#45;&gt;Node15</title>
<path fill="none" stroke="midnightblue" d="M212.66,-295.81C188.97,-290.5 155.44,-278.86 138.99,-254 129.64,-239.87 130.14,-220.23 132.39,-205.68"/>
<polygon fill="midnightblue" stroke="midnightblue" points="135.85,-206.22 134.31,-195.73 128.98,-204.89 135.85,-206.22"/>
</g>
<!-- Node20 -->
<g id="node20" class="node">
<title>Node20</title>
<g id="a_node20"><a xlink:href="dump_8h.html" target="_top" xlink:title=" ">
<polygon fill="white" stroke="black" points="30.99,-232.5 30.99,-253.5 86.99,-253.5 86.99,-232.5 30.99,-232.5"/>
<text text-anchor="middle" x="58.99" y="-239.9" font-family="DejaVuSans" font-size="12.00">dump.h</text>
</a>
</g>
</g>
<!-- Node19&#45;&gt;Node20 -->
<g id="edge39" class="edge">
<title>Node19&#45;&gt;Node20</title>
<path fill="none" stroke="midnightblue" d="M212.82,-291.86C182.38,-282.39 131.87,-266.67 97.08,-255.85"/>
<polygon fill="midnightblue" stroke="midnightblue" points="97.86,-252.43 87.27,-252.8 95.78,-259.11 97.86,-252.43"/>
</g>
<!-- Node20&#45;&gt;Node3 -->
<g id="edge41" class="edge">
<title>Node20&#45;&gt;Node3</title>
<path fill="none" stroke="midnightblue" d="M62.19,-232.25C67.71,-217.09 80.54,-188.16 101.99,-174 141.59,-147.86 278.55,-135.22 347.17,-130.41"/>
<polygon fill="midnightblue" stroke="midnightblue" points="347.83,-133.88 357.57,-129.71 347.35,-126.89 347.83,-133.88"/>
</g>
<!-- Node20&#45;&gt;Node15 -->
<g id="edge40" class="edge">
<title>Node20&#45;&gt;Node15</title>
<path fill="none" stroke="midnightblue" d="M72.58,-232.25C84.32,-223.81 101.51,-211.47 115.18,-201.66"/>
<polygon fill="midnightblue" stroke="midnightblue" points="117.48,-204.32 123.56,-195.64 113.39,-198.63 117.48,-204.32"/>
</g>
<!-- Node21&#45;&gt;Node3 -->
<g id="edge43" class="edge">
<title>Node21&#45;&gt;Node3</title>
<path fill="none" stroke="midnightblue" d="M361.96,-354.13C277.41,-343.47 56.87,-310.65 14.99,-254 -70.31,-138.6 236.06,-127.78 347.77,-127.59"/>
<polygon fill="midnightblue" stroke="midnightblue" points="347.94,-131.09 357.95,-127.6 347.95,-124.09 347.94,-131.09"/>
</g>
<!-- Node21&#45;&gt;Node10 -->
<g id="edge54" class="edge">
<title>Node21&#45;&gt;Node10</title>
<path fill="none" stroke="midnightblue" d="M399.35,-348.26C411.68,-320.71 446.99,-241.83 463.41,-205.17"/>
<polygon fill="midnightblue" stroke="midnightblue" points="466.79,-206.19 467.68,-195.63 460.4,-203.33 466.79,-206.19"/>
</g>
<!-- Node21&#45;&gt;Node12 -->
<g id="edge53" class="edge">
<title>Node21&#45;&gt;Node12</title>
<path fill="none" stroke="midnightblue" d="M428.08,-351.52C483.05,-340.76 592.61,-319.3 647.72,-308.52"/>
<polygon fill="midnightblue" stroke="midnightblue" points="648.52,-311.92 657.66,-306.57 647.18,-305.05 648.52,-311.92"/>
</g>
<!-- Node21&#45;&gt;Node16 -->
<g id="edge44" class="edge">
<title>Node21&#45;&gt;Node16</title>
<path fill="none" stroke="midnightblue" d="M393.8,-348.26C390.45,-320.82 380.89,-242.51 376.39,-205.64"/>
<polygon fill="midnightblue" stroke="midnightblue" points="379.85,-205.14 375.17,-195.63 372.9,-205.98 379.85,-205.14"/>
</g>
<!-- Node21&#45;&gt;Node19 -->
<g id="edge45" class="edge">
<title>Node21&#45;&gt;Node19</title>
<path fill="none" stroke="midnightblue" d="M368.17,-348.37C342.38,-339.11 303.21,-325.06 274.77,-314.84"/>
<polygon fill="midnightblue" stroke="midnightblue" points="275.79,-311.49 265.2,-311.41 273.43,-318.08 275.79,-311.49"/>
</g>
<!-- Node22 -->
<g id="node22" class="node">
<title>Node22</title>
<g id="a_node22"><a xlink:href="scan_8h.html" target="_top" xlink:title=" ">
<polygon fill="white" stroke="black" points="282.99,-290.5 282.99,-311.5 334.99,-311.5 334.99,-290.5 282.99,-290.5"/>
<text text-anchor="middle" x="308.99" y="-297.9" font-family="DejaVuSans" font-size="12.00">scan.h</text>
</a>
</g>
</g>
<!-- Node21&#45;&gt;Node22 -->
<g id="edge46" class="edge">
<title>Node21&#45;&gt;Node22</title>
<path fill="none" stroke="midnightblue" d="M380.01,-348.25C366.81,-339.65 347.38,-327 332.18,-317.1"/>
<polygon fill="midnightblue" stroke="midnightblue" points="334.09,-314.17 323.8,-311.64 330.27,-320.03 334.09,-314.17"/>
</g>
<!-- Node22&#45;&gt;Node3 -->
<g id="edge47" class="edge">
<title>Node22&#45;&gt;Node3</title>
<path fill="none" stroke="midnightblue" d="M300.49,-290.22C293.45,-281.42 283.97,-267.79 279.99,-254 277.28,-244.61 277.19,-241.37 279.99,-232 288.8,-202.47 296.29,-195.88 317.99,-174 330.18,-161.71 346.14,-150.82 359.65,-142.72"/>
<polygon fill="midnightblue" stroke="midnightblue" points="361.62,-145.62 368.52,-137.58 358.11,-139.56 361.62,-145.62"/>
</g>
<!-- Node22&#45;&gt;Node14 -->
<g id="edge52" class="edge">
<title>Node22&#45;&gt;Node14</title>
<path fill="none" stroke="midnightblue" d="M308.99,-290.25C308.99,-282.94 308.99,-272.69 308.99,-263.7"/>
<polygon fill="midnightblue" stroke="midnightblue" points="312.49,-263.64 308.99,-253.64 305.49,-263.64 312.49,-263.64"/>
</g>
<!-- Node23 -->
<g id="node23" class="node">
<title>Node23</title>
<g id="a_node23"><a xlink:href="lexer_8h.html" target="_top" xlink:title=" ">
<polygon fill="white" stroke="black" points="180.99,-232.5 180.99,-253.5 232.99,-253.5 232.99,-232.5 180.99,-232.5"/>
<text text-anchor="middle" x="206.99" y="-239.9" font-family="DejaVuSans" font-size="12.00">lexer.h</text>
</a>
</g>
</g>
<!-- Node22&#45;&gt;Node23 -->
<g id="edge48" class="edge">
<title>Node22&#45;&gt;Node23</title>
<path fill="none" stroke="midnightblue" d="M291.22,-290.25C275.28,-281.49 251.66,-268.53 233.49,-258.55"/>
<polygon fill="midnightblue" stroke="midnightblue" points="235,-255.39 224.55,-253.64 231.63,-261.52 235,-255.39"/>
</g>
<!-- Node23&#45;&gt;Node3 -->
<g id="edge50" class="edge">
<title>Node23&#45;&gt;Node3</title>
<path fill="none" stroke="midnightblue" d="M211.13,-232.19C217.83,-217.49 232.39,-189.77 252.99,-174 280.82,-152.69 319.19,-140.86 347.74,-134.54"/>
<polygon fill="midnightblue" stroke="midnightblue" points="348.69,-137.92 357.77,-132.46 347.27,-131.07 348.69,-137.92"/>
</g>
<!-- Node23&#45;&gt;Node10 -->
<g id="edge51" class="edge">
<title>Node23&#45;&gt;Node10</title>
<path fill="none" stroke="midnightblue" d="M233.37,-236.43C275.97,-227.42 360.83,-209.49 417.01,-197.62"/>
<polygon fill="midnightblue" stroke="midnightblue" points="417.75,-201.04 426.81,-195.55 416.3,-194.19 417.75,-201.04"/>
</g>
<!-- Node23&#45;&gt;Node15 -->
<g id="edge49" class="edge">
<title>Node23&#45;&gt;Node15</title>
<path fill="none" stroke="midnightblue" d="M194.8,-232.25C184.36,-223.89 169.12,-211.71 156.92,-201.94"/>
<polygon fill="midnightblue" stroke="midnightblue" points="159.04,-199.16 149.04,-195.64 154.66,-204.62 159.04,-199.16"/>
</g>
</g>
</svg>
