<?xml version="1.0" encoding="UTF-8" standalone="no"?>
<!DOCTYPE svg PUBLIC "-//W3C//DTD SVG 1.1//EN"
 "http://www.w3.org/Graphics/SVG/1.1/DTD/svg11.dtd">
<!-- Generated by graphviz version 2.44.0 ()
 -->
<!-- Title: mmode.h Pages: 1 -->
<svg width="476pt" height="552pt"
 viewBox="0.00 0.00 476.00 552.00" xmlns="http://www.w3.org/2000/svg" xmlns:xlink="http://www.w3.org/1999/xlink">
<g id="graph0" class="graph" transform="scale(1 1) rotate(0) translate(4 548)">
<title>mmode.h</title>
<polygon fill="white" stroke="transparent" points="-4,4 -4,-548 472,-548 472,4 -4,4"/>
<!-- Node1 -->
<g id="node1" class="node">
<title>Node1</title>
<g id="a_node1"><a xlink:title=" ">
<polygon fill="#bfbfbf" stroke="black" points="235,-522.5 235,-543.5 301,-543.5 301,-522.5 235,-522.5"/>
<text text-anchor="middle" x="268" y="-529.9" font-family="DejaVuSans" font-size="12.00">mmode.h</text>
</a>
</g>
</g>
<!-- Node2 -->
<g id="node2" class="node">
<title>Node2</title>
<g id="a_node2"><a xlink:href="charset_8h.html" target="_top" xlink:title=" ">
<polygon fill="white" stroke="black" points="336.5,-116.5 336.5,-137.5 401.5,-137.5 401.5,-116.5 336.5,-116.5"/>
<text text-anchor="middle" x="369" y="-123.9" font-family="DejaVuSans" font-size="12.00">charset.h</text>
</a>
</g>
</g>
<!-- Node1&#45;&gt;Node2 -->
<g id="edge1" class="edge">
<title>Node1&#45;&gt;Node2</title>
<path fill="none" stroke="midnightblue" d="M301.03,-528.32C357.83,-519.95 468,-493.94 468,-418 468,-418 468,-418 468,-242 468,-197.58 424.62,-162.01 395.29,-143.04"/>
<polygon fill="midnightblue" stroke="midnightblue" points="397.04,-140.01 386.7,-137.7 393.34,-145.95 397.04,-140.01"/>
</g>
<!-- Node6 -->
<g id="node6" class="node">
<title>Node6</title>
<g id="a_node6"><a xlink:href="fonts_8h.html" target="_top" xlink:title=" ">
<polygon fill="white" stroke="black" points="137,-348.5 137,-369.5 189,-369.5 189,-348.5 137,-348.5"/>
<text text-anchor="middle" x="163" y="-355.9" font-family="DejaVuSans" font-size="12.00">fonts.h</text>
</a>
</g>
</g>
<!-- Node1&#45;&gt;Node6 -->
<g id="edge5" class="edge">
<title>Node1&#45;&gt;Node6</title>
<path fill="none" stroke="midnightblue" d="M260.07,-522.43C252.69,-513.32 241.56,-499.11 233,-486 209.06,-449.36 185.16,-403.97 172.42,-378.89"/>
<polygon fill="midnightblue" stroke="midnightblue" points="175.44,-377.11 167.81,-369.76 169.19,-380.26 175.44,-377.11"/>
</g>
<!-- Node15 -->
<g id="node15" class="node">
<title>Node15</title>
<g id="a_node15"><a xlink:href="scan_8h.html" target="_top" xlink:title=" ">
<polygon fill="white" stroke="black" points="242,-464.5 242,-485.5 294,-485.5 294,-464.5 242,-464.5"/>
<text text-anchor="middle" x="268" y="-471.9" font-family="DejaVuSans" font-size="12.00">scan.h</text>
</a>
</g>
</g>
<!-- Node1&#45;&gt;Node15 -->
<g id="edge22" class="edge">
<title>Node1&#45;&gt;Node15</title>
<path fill="none" stroke="midnightblue" d="M268,-522.25C268,-514.94 268,-504.69 268,-495.7"/>
<polygon fill="midnightblue" stroke="midnightblue" points="271.5,-495.64 268,-485.64 264.5,-495.64 271.5,-495.64"/>
</g>
<!-- Node3 -->
<g id="node3" class="node">
<title>Node3</title>
<g id="a_node3"><a xlink:href="tex__types_8h.html" target="_top" xlink:title=" ">
<polygon fill="white" stroke="black" points="270.5,-58.5 270.5,-79.5 347.5,-79.5 347.5,-58.5 270.5,-58.5"/>
<text text-anchor="middle" x="309" y="-65.9" font-family="DejaVuSans" font-size="12.00">tex_types.h</text>
</a>
</g>
</g>
<!-- Node2&#45;&gt;Node3 -->
<g id="edge2" class="edge">
<title>Node2&#45;&gt;Node3</title>
<path fill="none" stroke="midnightblue" d="M358.55,-116.25C349.77,-108.05 337.04,-96.17 326.69,-86.51"/>
<polygon fill="midnightblue" stroke="midnightblue" points="329.03,-83.91 319.33,-79.64 324.25,-89.02 329.03,-83.91"/>
</g>
<!-- Node4 -->
<g id="node4" class="node">
<title>Node4</title>
<g id="a_node4"><a xlink:title=" ">
<polygon fill="white" stroke="#bfbfbf" points="277.5,-0.5 277.5,-21.5 342.5,-21.5 342.5,-0.5 277.5,-0.5"/>
<text text-anchor="middle" x="310" y="-7.9" font-family="DejaVuSans" font-size="12.00">stdbool.h</text>
</a>
</g>
</g>
<!-- Node3&#45;&gt;Node4 -->
<g id="edge3" class="edge">
<title>Node3&#45;&gt;Node4</title>
<path fill="none" stroke="midnightblue" d="M309.17,-58.25C309.3,-50.94 309.49,-40.69 309.65,-31.7"/>
<polygon fill="midnightblue" stroke="midnightblue" points="313.15,-31.7 309.83,-21.64 306.15,-31.58 313.15,-31.7"/>
</g>
<!-- Node5 -->
<g id="node5" class="node">
<title>Node5</title>
<g id="a_node5"><a xlink:title=" ">
<polygon fill="white" stroke="#bfbfbf" points="204.5,-0.5 204.5,-21.5 259.5,-21.5 259.5,-0.5 204.5,-0.5"/>
<text text-anchor="middle" x="232" y="-7.9" font-family="DejaVuSans" font-size="12.00">stdint.h</text>
</a>
</g>
</g>
<!-- Node3&#45;&gt;Node5 -->
<g id="edge4" class="edge">
<title>Node3&#45;&gt;Node5</title>
<path fill="none" stroke="midnightblue" d="M295.59,-58.25C283.99,-49.81 267.03,-37.47 253.53,-27.66"/>
<polygon fill="midnightblue" stroke="midnightblue" points="255.4,-24.69 245.26,-21.64 251.29,-30.36 255.4,-24.69"/>
</g>
<!-- Node7 -->
<g id="node7" class="node">
<title>Node7</title>
<g id="a_node7"><a xlink:title=" ">
<polygon fill="white" stroke="#bfbfbf" points="16,-58.5 16,-79.5 68,-79.5 68,-58.5 16,-58.5"/>
<text text-anchor="middle" x="42" y="-65.9" font-family="DejaVuSans" font-size="12.00">stdio.h</text>
</a>
</g>
</g>
<!-- Node6&#45;&gt;Node7 -->
<g id="edge6" class="edge">
<title>Node6&#45;&gt;Node7</title>
<path fill="none" stroke="midnightblue" d="M136.99,-353.33C112.87,-347.66 77.69,-335.74 57,-312 36.38,-288.34 38,-275.38 38,-244 38,-244 38,-244 38,-184 38,-150.96 39.7,-112.58 40.88,-89.84"/>
<polygon fill="midnightblue" stroke="midnightblue" points="44.38,-89.93 41.43,-79.76 37.39,-89.55 44.38,-89.93"/>
</g>
<!-- Node8 -->
<g id="node8" class="node">
<title>Node8</title>
<g id="a_node8"><a xlink:href="global__const_8h.html" target="_top" xlink:title=" ">
<polygon fill="white" stroke="black" points="72.5,-116.5 72.5,-137.5 165.5,-137.5 165.5,-116.5 72.5,-116.5"/>
<text text-anchor="middle" x="119" y="-123.9" font-family="DejaVuSans" font-size="12.00">global_const.h</text>
</a>
</g>
</g>
<!-- Node6&#45;&gt;Node8 -->
<g id="edge7" class="edge">
<title>Node6&#45;&gt;Node8</title>
<path fill="none" stroke="midnightblue" d="M161.17,-348.41C154.54,-313.78 131.77,-194.74 122.73,-147.52"/>
<polygon fill="midnightblue" stroke="midnightblue" points="126.16,-146.8 120.84,-137.63 119.28,-148.11 126.16,-146.8"/>
</g>
<!-- Node10 -->
<g id="node10" class="node">
<title>Node10</title>
<g id="a_node10"><a xlink:href="tex__constant_8h.html" target="_top" xlink:title=" ">
<polygon fill="white" stroke="black" points="264,-290.5 264,-311.5 358,-311.5 358,-290.5 264,-290.5"/>
<text text-anchor="middle" x="311" y="-297.9" font-family="DejaVuSans" font-size="12.00">tex_constant.h</text>
</a>
</g>
</g>
<!-- Node6&#45;&gt;Node10 -->
<g id="edge10" class="edge">
<title>Node6&#45;&gt;Node10</title>
<path fill="none" stroke="midnightblue" d="M188.44,-348.37C212.73,-339.18 249.52,-325.26 276.45,-315.07"/>
<polygon fill="midnightblue" stroke="midnightblue" points="277.78,-318.31 285.89,-311.5 275.3,-311.77 277.78,-318.31"/>
</g>
<!-- Node12 -->
<g id="node12" class="node">
<title>Node12</title>
<g id="a_node12"><a xlink:href="str_8h.html" target="_top" xlink:title=" ">
<polygon fill="white" stroke="black" points="223.5,-174.5 223.5,-195.5 262.5,-195.5 262.5,-174.5 223.5,-174.5"/>
<text text-anchor="middle" x="243" y="-181.9" font-family="DejaVuSans" font-size="12.00">str.h</text>
</a>
</g>
</g>
<!-- Node6&#45;&gt;Node12 -->
<g id="edge20" class="edge">
<title>Node6&#45;&gt;Node12</title>
<path fill="none" stroke="midnightblue" d="M167.53,-348.26C180.35,-320.71 217.03,-241.83 234.08,-205.17"/>
<polygon fill="midnightblue" stroke="midnightblue" points="237.48,-206.18 238.52,-195.63 231.13,-203.22 237.48,-206.18"/>
</g>
<!-- Node14 -->
<g id="node14" class="node">
<title>Node14</title>
<g id="a_node14"><a xlink:href="macros_8h.html" target="_top" xlink:title=" ">
<polygon fill="white" stroke="black" points="66.5,-290.5 66.5,-311.5 131.5,-311.5 131.5,-290.5 66.5,-290.5"/>
<text text-anchor="middle" x="99" y="-297.9" font-family="DejaVuSans" font-size="12.00">macros.h</text>
</a>
</g>
</g>
<!-- Node6&#45;&gt;Node14 -->
<g id="edge21" class="edge">
<title>Node6&#45;&gt;Node14</title>
<path fill="none" stroke="midnightblue" d="M151.85,-348.25C142.49,-340.05 128.91,-328.17 117.87,-318.51"/>
<polygon fill="midnightblue" stroke="midnightblue" points="119.85,-315.59 110.02,-311.64 115.24,-320.86 119.85,-315.59"/>
</g>
<!-- Node8&#45;&gt;Node7 -->
<g id="edge9" class="edge">
<title>Node8&#45;&gt;Node7</title>
<path fill="none" stroke="midnightblue" d="M105.59,-116.25C93.99,-107.81 77.03,-95.47 63.53,-85.66"/>
<polygon fill="midnightblue" stroke="midnightblue" points="65.4,-82.69 55.26,-79.64 61.29,-88.36 65.4,-82.69"/>
</g>
<!-- Node9 -->
<g id="node9" class="node">
<title>Node9</title>
<g id="a_node9"><a xlink:title=" ">
<polygon fill="white" stroke="#bfbfbf" points="89.5,-58.5 89.5,-79.5 148.5,-79.5 148.5,-58.5 89.5,-58.5"/>
<text text-anchor="middle" x="119" y="-65.9" font-family="DejaVuSans" font-size="12.00">assert.h</text>
</a>
</g>
</g>
<!-- Node8&#45;&gt;Node9 -->
<g id="edge8" class="edge">
<title>Node8&#45;&gt;Node9</title>
<path fill="none" stroke="midnightblue" d="M119,-116.25C119,-108.94 119,-98.69 119,-89.7"/>
<polygon fill="midnightblue" stroke="midnightblue" points="122.5,-89.64 119,-79.64 115.5,-89.64 122.5,-89.64"/>
</g>
<!-- Node11 -->
<g id="node11" class="node">
<title>Node11</title>
<g id="a_node11"><a xlink:href="box_8h.html" target="_top" xlink:title=" ">
<polygon fill="white" stroke="black" points="288,-232.5 288,-253.5 334,-253.5 334,-232.5 288,-232.5"/>
<text text-anchor="middle" x="311" y="-239.9" font-family="DejaVuSans" font-size="12.00">box.h</text>
</a>
</g>
</g>
<!-- Node10&#45;&gt;Node11 -->
<g id="edge11" class="edge">
<title>Node10&#45;&gt;Node11</title>
<path fill="none" stroke="midnightblue" d="M311,-290.25C311,-282.94 311,-272.69 311,-263.7"/>
<polygon fill="midnightblue" stroke="midnightblue" points="314.5,-263.64 311,-253.64 307.5,-263.64 314.5,-263.64"/>
</g>
<!-- Node11&#45;&gt;Node12 -->
<g id="edge12" class="edge">
<title>Node11&#45;&gt;Node12</title>
<path fill="none" stroke="midnightblue" d="M299.16,-232.25C289.11,-223.97 274.5,-211.94 262.7,-202.22"/>
<polygon fill="midnightblue" stroke="midnightblue" points="264.65,-199.3 254.71,-195.64 260.2,-204.7 264.65,-199.3"/>
</g>
<!-- Node13 -->
<g id="node13" class="node">
<title>Node13</title>
<g id="a_node13"><a xlink:href="texmath_8h.html" target="_top" xlink:title=" ">
<polygon fill="white" stroke="black" points="281,-174.5 281,-195.5 349,-195.5 349,-174.5 281,-174.5"/>
<text text-anchor="middle" x="315" y="-181.9" font-family="DejaVuSans" font-size="12.00">texmath.h</text>
</a>
</g>
</g>
<!-- Node11&#45;&gt;Node13 -->
<g id="edge18" class="edge">
<title>Node11&#45;&gt;Node13</title>
<path fill="none" stroke="midnightblue" d="M311.7,-232.25C312.22,-224.94 312.95,-214.69 313.59,-205.7"/>
<polygon fill="midnightblue" stroke="midnightblue" points="317.09,-205.87 314.31,-195.64 310.11,-205.37 317.09,-205.87"/>
</g>
<!-- Node12&#45;&gt;Node2 -->
<g id="edge16" class="edge">
<title>Node12&#45;&gt;Node2</title>
<path fill="none" stroke="midnightblue" d="M262.69,-175.25C282.88,-166.27 314.59,-152.18 338.13,-141.72"/>
<polygon fill="midnightblue" stroke="midnightblue" points="339.62,-144.89 347.34,-137.63 336.78,-138.49 339.62,-144.89"/>
</g>
<!-- Node12&#45;&gt;Node3 -->
<g id="edge17" class="edge">
<title>Node12&#45;&gt;Node3</title>
<path fill="none" stroke="midnightblue" d="M248.63,-174.28C259.64,-155.27 284.18,-112.88 298.35,-88.4"/>
<polygon fill="midnightblue" stroke="midnightblue" points="301.41,-90.1 303.39,-79.69 295.35,-86.6 301.41,-90.1"/>
</g>
<!-- Node12&#45;&gt;Node5 -->
<g id="edge14" class="edge">
<title>Node12&#45;&gt;Node5</title>
<path fill="none" stroke="midnightblue" d="M242.38,-174.26C240.62,-146.82 235.61,-68.51 233.26,-31.64"/>
<polygon fill="midnightblue" stroke="midnightblue" points="236.75,-31.39 232.62,-21.63 229.76,-31.84 236.75,-31.39"/>
</g>
<!-- Node12&#45;&gt;Node7 -->
<g id="edge13" class="edge">
<title>Node12&#45;&gt;Node7</title>
<path fill="none" stroke="midnightblue" d="M235.55,-174.29C223.9,-159.72 199.99,-132.17 174,-116 157.71,-105.86 111.17,-90.69 77.98,-80.58"/>
<polygon fill="midnightblue" stroke="midnightblue" points="78.74,-77.15 68.15,-77.62 76.71,-83.86 78.74,-77.15"/>
</g>
<!-- Node12&#45;&gt;Node8 -->
<g id="edge15" class="edge">
<title>Node12&#45;&gt;Node8</title>
<path fill="none" stroke="midnightblue" d="M223.35,-175.13C203.51,-166.17 172.59,-152.2 149.55,-141.8"/>
<polygon fill="midnightblue" stroke="midnightblue" points="150.77,-138.51 140.22,-137.58 147.89,-144.89 150.77,-138.51"/>
</g>
<!-- Node13&#45;&gt;Node3 -->
<g id="edge19" class="edge">
<title>Node13&#45;&gt;Node3</title>
<path fill="none" stroke="midnightblue" d="M314.49,-174.28C313.51,-155.6 311.34,-114.37 310.04,-89.72"/>
<polygon fill="midnightblue" stroke="midnightblue" points="313.53,-89.5 309.51,-79.69 306.54,-89.87 313.53,-89.5"/>
</g>
<!-- Node16 -->
<g id="node16" class="node">
<title>Node16</title>
<g id="a_node16"><a xlink:href="lexer_8h.html" target="_top" xlink:title=" ">
<polygon fill="white" stroke="black" points="242,-406.5 242,-427.5 294,-427.5 294,-406.5 242,-406.5"/>
<text text-anchor="middle" x="268" y="-413.9" font-family="DejaVuSans" font-size="12.00">lexer.h</text>
</a>
</g>
</g>
<!-- Node15&#45;&gt;Node16 -->
<g id="edge23" class="edge">
<title>Node15&#45;&gt;Node16</title>
<path fill="none" stroke="midnightblue" d="M268,-464.25C268,-456.94 268,-446.69 268,-437.7"/>
<polygon fill="midnightblue" stroke="midnightblue" points="271.5,-437.64 268,-427.64 264.5,-437.64 271.5,-437.64"/>
</g>
<!-- Node16&#45;&gt;Node7 -->
<g id="edge24" class="edge">
<title>Node16&#45;&gt;Node7</title>
<path fill="none" stroke="midnightblue" d="M241.82,-416.57C174.38,-416.55 0,-406.41 0,-302 0,-302 0,-302 0,-184 0,-148.52 18.14,-110.44 30.58,-88.5"/>
<polygon fill="midnightblue" stroke="midnightblue" points="33.74,-90.01 35.8,-79.62 27.71,-86.46 33.74,-90.01"/>
</g>
<!-- Node17 -->
<g id="node17" class="node">
<title>Node17</title>
<g id="a_node17"><a xlink:href="tex_8h.html" target="_top" xlink:title=" ">
<polygon fill="white" stroke="black" points="252,-348.5 252,-369.5 294,-369.5 294,-348.5 252,-348.5"/>
<text text-anchor="middle" x="273" y="-355.9" font-family="DejaVuSans" font-size="12.00">tex.h</text>
</a>
</g>
</g>
<!-- Node16&#45;&gt;Node17 -->
<g id="edge25" class="edge">
<title>Node16&#45;&gt;Node17</title>
<path fill="none" stroke="midnightblue" d="M268.87,-406.25C269.52,-398.94 270.44,-388.69 271.24,-379.7"/>
<polygon fill="midnightblue" stroke="midnightblue" points="274.74,-379.91 272.14,-369.64 267.76,-379.29 274.74,-379.91"/>
</g>
<!-- Node17&#45;&gt;Node3 -->
<g id="edge27" class="edge">
<title>Node17&#45;&gt;Node3</title>
<path fill="none" stroke="midnightblue" d="M294.17,-353.2C337.03,-342.1 430,-310.36 430,-244 430,-244 430,-244 430,-184 430,-152.62 431.45,-139.8 411,-116 397.08,-99.8 376.31,-89.03 357.14,-82.02"/>
<polygon fill="midnightblue" stroke="midnightblue" points="358.19,-78.68 347.6,-78.78 355.94,-85.31 358.19,-78.68"/>
</g>
<!-- Node17&#45;&gt;Node8 -->
<g id="edge26" class="edge">
<title>Node17&#45;&gt;Node8</title>
<path fill="none" stroke="midnightblue" d="M266.58,-348.41C243.15,-313.41 162,-192.22 131.09,-146.05"/>
<polygon fill="midnightblue" stroke="midnightblue" points="133.92,-143.99 125.45,-137.63 128.1,-147.89 133.92,-143.99"/>
</g>
<!-- Node17&#45;&gt;Node10 -->
<g id="edge28" class="edge">
<title>Node17&#45;&gt;Node10</title>
<path fill="none" stroke="midnightblue" d="M279.62,-348.25C284.9,-340.46 292.45,-329.33 298.82,-319.94"/>
<polygon fill="midnightblue" stroke="midnightblue" points="301.74,-321.88 304.46,-311.64 295.95,-317.95 301.74,-321.88"/>
</g>
</g>
</svg>
