<?xml version="1.0" encoding="UTF-8" standalone="no"?>
<!DOCTYPE svg PUBLIC "-//W3C//DTD SVG 1.1//EN"
 "http://www.w3.org/Graphics/SVG/1.1/DTD/svg11.dtd">
<!-- Generated by graphviz version 2.44.0 ()
 -->
<!-- Title: mmode.h Pages: 1 -->
<svg width="662pt" height="146pt"
 viewBox="0.00 0.00 661.50 146.00" xmlns="http://www.w3.org/2000/svg" xmlns:xlink="http://www.w3.org/1999/xlink">
<g id="graph0" class="graph" transform="scale(1 1) rotate(0) translate(4 142)">
<title>mmode.h</title>
<polygon fill="white" stroke="transparent" points="-4,4 -4,-142 657.5,-142 657.5,4 -4,4"/>
<!-- Node1 -->
<g id="node1" class="node">
<title>Node1</title>
<g id="a_node1"><a xlink:title=" ">
<polygon fill="#bfbfbf" stroke="black" points="300.5,-116.5 300.5,-137.5 366.5,-137.5 366.5,-116.5 300.5,-116.5"/>
<text text-anchor="middle" x="333.5" y="-123.9" font-family="DejaVuSans" font-size="12.00">mmode.h</text>
</a>
</g>
</g>
<!-- Node2 -->
<g id="node2" class="node">
<title>Node2</title>
<g id="a_node2"><a xlink:href="align_8c.html" target="_top" xlink:title=" ">
<polygon fill="white" stroke="black" points="0,-58.5 0,-79.5 51,-79.5 51,-58.5 0,-58.5"/>
<text text-anchor="middle" x="25.5" y="-65.9" font-family="DejaVuSans" font-size="12.00">align.c</text>
</a>
</g>
</g>
<!-- Node1&#45;&gt;Node2 -->
<g id="edge1" class="edge">
<title>Node1&#45;&gt;Node2</title>
<path fill="none" stroke="midnightblue" d="M290.58,-120.28C236.56,-112.73 141.09,-98.24 60.5,-80 57.42,-79.3 54.21,-78.5 51.03,-77.65"/>
<polygon fill="midnightblue" stroke="midnightblue" points="290.11,-123.74 300.49,-121.65 291.07,-116.81 290.11,-123.74"/>
</g>
<!-- Node3 -->
<g id="node3" class="node">
<title>Node3</title>
<g id="a_node3"><a xlink:href="box__destroy_8c.html" target="_top" xlink:title=" ">
<polygon fill="white" stroke="black" points="69,-58.5 69,-79.5 160,-79.5 160,-58.5 69,-58.5"/>
<text text-anchor="middle" x="114.5" y="-65.9" font-family="DejaVuSans" font-size="12.00">box_destroy.c</text>
</a>
</g>
</g>
<!-- Node1&#45;&gt;Node3 -->
<g id="edge2" class="edge">
<title>Node1&#45;&gt;Node3</title>
<path fill="none" stroke="midnightblue" d="M290.4,-114.98C249.98,-104.64 190.15,-89.35 151.75,-79.52"/>
<polygon fill="midnightblue" stroke="midnightblue" points="289.68,-118.41 300.24,-117.49 291.42,-111.63 289.68,-118.41"/>
</g>
<!-- Node4 -->
<g id="node4" class="node">
<title>Node4</title>
<g id="a_node4"><a xlink:href="box__display_8c.html" target="_top" xlink:title=" ">
<polygon fill="white" stroke="black" points="178,-58.5 178,-79.5 267,-79.5 267,-58.5 178,-58.5"/>
<text text-anchor="middle" x="222.5" y="-65.9" font-family="DejaVuSans" font-size="12.00">box_display.c</text>
</a>
</g>
</g>
<!-- Node1&#45;&gt;Node4 -->
<g id="edge3" class="edge">
<title>Node1&#45;&gt;Node4</title>
<path fill="none" stroke="midnightblue" d="M305.43,-111.84C285.36,-101.71 258.91,-88.37 241.33,-79.5"/>
<polygon fill="midnightblue" stroke="midnightblue" points="303.91,-114.99 314.42,-116.37 307.07,-108.74 303.91,-114.99"/>
</g>
<!-- Node5 -->
<g id="node5" class="node">
<title>Node5</title>
<g id="a_node5"><a xlink:href="math__formula_8c.html" target="_top" xlink:title=" ">
<polygon fill="white" stroke="black" points="284.5,-58.5 284.5,-79.5 382.5,-79.5 382.5,-58.5 284.5,-58.5"/>
<text text-anchor="middle" x="333.5" y="-65.9" font-family="DejaVuSans" font-size="12.00">math_formula.c</text>
</a>
</g>
</g>
<!-- Node1&#45;&gt;Node5 -->
<g id="edge4" class="edge">
<title>Node1&#45;&gt;Node5</title>
<path fill="none" stroke="midnightblue" d="M333.5,-106.16C333.5,-97.16 333.5,-86.92 333.5,-79.64"/>
<polygon fill="midnightblue" stroke="midnightblue" points="330,-106.25 333.5,-116.25 337,-106.25 330,-106.25"/>
</g>
<!-- Node6 -->
<g id="node6" class="node">
<title>Node6</title>
<g id="a_node6"><a xlink:href="mmode_8c.html" target="_top" xlink:title=" ">
<polygon fill="white" stroke="black" points="401,-58.5 401,-79.5 466,-79.5 466,-58.5 401,-58.5"/>
<text text-anchor="middle" x="433.5" y="-65.9" font-family="DejaVuSans" font-size="12.00">mmode.c</text>
</a>
</g>
</g>
<!-- Node1&#45;&gt;Node6 -->
<g id="edge5" class="edge">
<title>Node1&#45;&gt;Node6</title>
<path fill="none" stroke="midnightblue" d="M359.71,-111.32C377.57,-101.32 400.72,-88.36 416.28,-79.64"/>
<polygon fill="midnightblue" stroke="midnightblue" points="357.93,-108.31 350.92,-116.25 361.35,-114.41 357.93,-108.31"/>
</g>
<!-- Node7 -->
<g id="node7" class="node">
<title>Node7</title>
<g id="a_node7"><a xlink:href="printout_8c.html" target="_top" xlink:title=" ">
<polygon fill="white" stroke="black" points="484,-58.5 484,-79.5 549,-79.5 549,-58.5 484,-58.5"/>
<text text-anchor="middle" x="516.5" y="-65.9" font-family="DejaVuSans" font-size="12.00">printout.c</text>
</a>
</g>
</g>
<!-- Node1&#45;&gt;Node7 -->
<g id="edge6" class="edge">
<title>Node1&#45;&gt;Node7</title>
<path fill="none" stroke="midnightblue" d="M374.92,-113.32C408.49,-103.05 455.03,-88.81 485.45,-79.5"/>
<polygon fill="midnightblue" stroke="midnightblue" points="373.5,-110.1 364.96,-116.37 375.55,-116.79 373.5,-110.1"/>
</g>
<!-- Node8 -->
<g id="node8" class="node">
<title>Node8</title>
<g id="a_node8"><a xlink:href="tex__header_8h.html" target="_top" xlink:title=" ">
<polygon fill="white" stroke="black" points="567.5,-58.5 567.5,-79.5 653.5,-79.5 653.5,-58.5 567.5,-58.5"/>
<text text-anchor="middle" x="610.5" y="-65.9" font-family="DejaVuSans" font-size="12.00">tex_header.h</text>
</a>
</g>
</g>
<!-- Node1&#45;&gt;Node8 -->
<g id="edge7" class="edge">
<title>Node1&#45;&gt;Node8</title>
<path fill="none" stroke="midnightblue" d="M376.54,-117.3C428.49,-106.8 515.32,-89.24 567.33,-78.73"/>
<polygon fill="midnightblue" stroke="midnightblue" points="375.75,-113.89 366.64,-119.3 377.13,-120.75 375.75,-113.89"/>
</g>
<!-- Node9 -->
<g id="node9" class="node">
<title>Node9</title>
<g id="a_node9"><a xlink:href="tex_8c.html" target="_top" xlink:title=" ">
<polygon fill="white" stroke="black" points="590,-0.5 590,-21.5 631,-21.5 631,-0.5 590,-0.5"/>
<text text-anchor="middle" x="610.5" y="-7.9" font-family="DejaVuSans" font-size="12.00">tex.c</text>
</a>
</g>
</g>
<!-- Node8&#45;&gt;Node9 -->
<g id="edge8" class="edge">
<title>Node8&#45;&gt;Node9</title>
<path fill="none" stroke="midnightblue" d="M610.5,-48.16C610.5,-39.16 610.5,-28.92 610.5,-21.64"/>
<polygon fill="midnightblue" stroke="midnightblue" points="607,-48.25 610.5,-58.25 614,-48.25 607,-48.25"/>
</g>
</g>
</svg>
