<?xml version="1.0" encoding="UTF-8" standalone="no"?>
<!DOCTYPE svg PUBLIC "-//W3C//DTD SVG 1.1//EN"
 "http://www.w3.org/Graphics/SVG/1.1/DTD/svg11.dtd">
<!-- Generated by graphviz version 2.44.0 ()
 -->
<!-- Title: pack.h Pages: 1 -->
<svg width="425pt" height="146pt"
 viewBox="0.00 0.00 424.50 146.00" xmlns="http://www.w3.org/2000/svg" xmlns:xlink="http://www.w3.org/1999/xlink">
<g id="graph0" class="graph" transform="scale(1 1) rotate(0) translate(4 142)">
<title>pack.h</title>
<polygon fill="white" stroke="transparent" points="-4,4 -4,-142 420.5,-142 420.5,4 -4,4"/>
<!-- Node1 -->
<g id="node1" class="node">
<title>Node1</title>
<g id="a_node1"><a xlink:title=" ">
<polygon fill="#bfbfbf" stroke="black" points="191.5,-116.5 191.5,-137.5 243.5,-137.5 243.5,-116.5 191.5,-116.5"/>
<text text-anchor="middle" x="217.5" y="-123.9" font-family="DejaVuSans" font-size="12.00">pack.h</text>
</a>
</g>
</g>
<!-- Node2 -->
<g id="node2" class="node">
<title>Node2</title>
<g id="a_node2"><a xlink:href="box__destroy_8c.html" target="_top" xlink:title=" ">
<polygon fill="white" stroke="black" points="0,-58.5 0,-79.5 91,-79.5 91,-58.5 0,-58.5"/>
<text text-anchor="middle" x="45.5" y="-65.9" font-family="DejaVuSans" font-size="12.00">box_destroy.c</text>
</a>
</g>
</g>
<!-- Node1&#45;&gt;Node2 -->
<g id="edge1" class="edge">
<title>Node1&#45;&gt;Node2</title>
<path fill="none" stroke="midnightblue" d="M181.61,-114.32C149.92,-104 104.28,-89.14 74.75,-79.52"/>
<polygon fill="midnightblue" stroke="midnightblue" points="180.78,-117.73 191.38,-117.49 182.95,-111.07 180.78,-117.73"/>
</g>
<!-- Node3 -->
<g id="node3" class="node">
<title>Node3</title>
<g id="a_node3"><a xlink:href="mmode_8c.html" target="_top" xlink:title=" ">
<polygon fill="white" stroke="black" points="109,-58.5 109,-79.5 174,-79.5 174,-58.5 109,-58.5"/>
<text text-anchor="middle" x="141.5" y="-65.9" font-family="DejaVuSans" font-size="12.00">mmode.c</text>
</a>
</g>
</g>
<!-- Node1&#45;&gt;Node3 -->
<g id="edge2" class="edge">
<title>Node1&#45;&gt;Node3</title>
<path fill="none" stroke="midnightblue" d="M196.07,-110.21C182.72,-100.37 165.98,-88.04 154.59,-79.64"/>
<polygon fill="midnightblue" stroke="midnightblue" points="194.14,-113.13 204.26,-116.25 198.29,-107.5 194.14,-113.13"/>
</g>
<!-- Node4 -->
<g id="node4" class="node">
<title>Node4</title>
<g id="a_node4"><a xlink:href="pack_8c.html" target="_top" xlink:title=" ">
<polygon fill="white" stroke="black" points="192,-58.5 192,-79.5 243,-79.5 243,-58.5 192,-58.5"/>
<text text-anchor="middle" x="217.5" y="-65.9" font-family="DejaVuSans" font-size="12.00">pack.c</text>
</a>
</g>
</g>
<!-- Node1&#45;&gt;Node4 -->
<g id="edge3" class="edge">
<title>Node1&#45;&gt;Node4</title>
<path fill="none" stroke="midnightblue" d="M217.5,-106.16C217.5,-97.16 217.5,-86.92 217.5,-79.64"/>
<polygon fill="midnightblue" stroke="midnightblue" points="214,-106.25 217.5,-116.25 221,-106.25 214,-106.25"/>
</g>
<!-- Node5 -->
<g id="node5" class="node">
<title>Node5</title>
<g id="a_node5"><a xlink:href="scan_8c.html" target="_top" xlink:title=" ">
<polygon fill="white" stroke="black" points="261,-58.5 261,-79.5 312,-79.5 312,-58.5 261,-58.5"/>
<text text-anchor="middle" x="286.5" y="-65.9" font-family="DejaVuSans" font-size="12.00">scan.c</text>
</a>
</g>
</g>
<!-- Node1&#45;&gt;Node5 -->
<g id="edge4" class="edge">
<title>Node1&#45;&gt;Node5</title>
<path fill="none" stroke="midnightblue" d="M237.3,-109.93C249.36,-100.14 264.37,-87.96 274.62,-79.64"/>
<polygon fill="midnightblue" stroke="midnightblue" points="235.08,-107.23 229.52,-116.25 239.49,-112.66 235.08,-107.23"/>
</g>
<!-- Node6 -->
<g id="node6" class="node">
<title>Node6</title>
<g id="a_node6"><a xlink:href="tex__header_8h.html" target="_top" xlink:title=" ">
<polygon fill="white" stroke="black" points="330.5,-58.5 330.5,-79.5 416.5,-79.5 416.5,-58.5 330.5,-58.5"/>
<text text-anchor="middle" x="373.5" y="-65.9" font-family="DejaVuSans" font-size="12.00">tex_header.h</text>
</a>
</g>
</g>
<!-- Node1&#45;&gt;Node6 -->
<g id="edge5" class="edge">
<title>Node1&#45;&gt;Node6</title>
<path fill="none" stroke="midnightblue" d="M253.2,-113.19C281.68,-102.96 320.96,-88.86 346.78,-79.59"/>
<polygon fill="midnightblue" stroke="midnightblue" points="251.84,-109.95 243.61,-116.63 254.21,-116.54 251.84,-109.95"/>
</g>
<!-- Node7 -->
<g id="node7" class="node">
<title>Node7</title>
<g id="a_node7"><a xlink:href="tex_8c.html" target="_top" xlink:title=" ">
<polygon fill="white" stroke="black" points="353,-0.5 353,-21.5 394,-21.5 394,-0.5 353,-0.5"/>
<text text-anchor="middle" x="373.5" y="-7.9" font-family="DejaVuSans" font-size="12.00">tex.c</text>
</a>
</g>
</g>
<!-- Node6&#45;&gt;Node7 -->
<g id="edge6" class="edge">
<title>Node6&#45;&gt;Node7</title>
<path fill="none" stroke="midnightblue" d="M373.5,-48.16C373.5,-39.16 373.5,-28.92 373.5,-21.64"/>
<polygon fill="midnightblue" stroke="midnightblue" points="370,-48.25 373.5,-58.25 377,-48.25 370,-48.25"/>
</g>
</g>
</svg>
