<?xml version="1.0" encoding="UTF-8" standalone="no"?>
<!DOCTYPE svg PUBLIC "-//W3C//DTD SVG 1.1//EN"
 "http://www.w3.org/Graphics/SVG/1.1/DTD/svg11.dtd">
<!-- Generated by graphviz version 2.44.0 ()
 -->
<!-- Title: pack.c Pages: 1 -->
<svg width="810pt" height="552pt"
 viewBox="0.00 0.00 810.00 552.00" xmlns="http://www.w3.org/2000/svg" xmlns:xlink="http://www.w3.org/1999/xlink">
<g id="graph0" class="graph" transform="scale(1 1) rotate(0) translate(4 548)">
<title>pack.c</title>
<polygon fill="white" stroke="transparent" points="-4,4 -4,-548 806,-548 806,4 -4,4"/>
<!-- Node1 -->
<g id="node1" class="node">
<title>Node1</title>
<g id="a_node1"><a xlink:title=" ">
<polygon fill="#bfbfbf" stroke="black" points="361.5,-522.5 361.5,-543.5 412.5,-543.5 412.5,-522.5 361.5,-522.5"/>
<text text-anchor="middle" x="387" y="-529.9" font-family="DejaVuSans" font-size="12.00">pack.c</text>
</a>
</g>
</g>
<!-- Node2 -->
<g id="node2" class="node">
<title>Node2</title>
<g id="a_node2"><a xlink:title=" ">
<polygon fill="white" stroke="#bfbfbf" points="0,-464.5 0,-485.5 54,-485.5 54,-464.5 0,-464.5"/>
<text text-anchor="middle" x="27" y="-471.9" font-family="DejaVuSans" font-size="12.00">stdlib.h</text>
</a>
</g>
</g>
<!-- Node1&#45;&gt;Node2 -->
<g id="edge1" class="edge">
<title>Node1&#45;&gt;Node2</title>
<path fill="none" stroke="midnightblue" d="M361.22,-529.13C306.79,-522.9 176.22,-506.95 68,-486 66.75,-485.76 65.47,-485.5 64.19,-485.23"/>
<polygon fill="midnightblue" stroke="midnightblue" points="64.79,-481.78 54.27,-483.04 63.27,-488.62 64.79,-481.78"/>
</g>
<!-- Node3 -->
<g id="node3" class="node">
<title>Node3</title>
<g id="a_node3"><a xlink:href="tex_8h.html" target="_top" xlink:title=" ">
<polygon fill="white" stroke="black" points="310,-348.5 310,-369.5 352,-369.5 352,-348.5 310,-348.5"/>
<text text-anchor="middle" x="331" y="-355.9" font-family="DejaVuSans" font-size="12.00">tex.h</text>
</a>
</g>
</g>
<!-- Node1&#45;&gt;Node3 -->
<g id="edge2" class="edge">
<title>Node1&#45;&gt;Node3</title>
<path fill="none" stroke="midnightblue" d="M375.12,-522.4C365.53,-513.91 352.59,-500.63 346,-486 330.31,-451.16 328.99,-405.7 329.78,-379.99"/>
<polygon fill="midnightblue" stroke="midnightblue" points="333.29,-379.83 330.24,-369.68 326.3,-379.52 333.29,-379.83"/>
</g>
<!-- Node14 -->
<g id="node14" class="node">
<title>Node14</title>
<g id="a_node14"><a xlink:href="texmath_8h.html" target="_top" xlink:title=" ">
<polygon fill="white" stroke="black" points="168,-174.5 168,-195.5 236,-195.5 236,-174.5 168,-174.5"/>
<text text-anchor="middle" x="202" y="-181.9" font-family="DejaVuSans" font-size="12.00">texmath.h</text>
</a>
</g>
</g>
<!-- Node1&#45;&gt;Node14 -->
<g id="edge20" class="edge">
<title>Node1&#45;&gt;Node14</title>
<path fill="none" stroke="midnightblue" d="M361.26,-528.07C287.73,-516.14 82,-477.43 82,-418 82,-418 82,-418 82,-358 82,-289.86 146.13,-229.43 180.62,-201.85"/>
<polygon fill="midnightblue" stroke="midnightblue" points="182.96,-204.47 188.7,-195.56 178.66,-198.94 182.96,-204.47"/>
</g>
<!-- Node15 -->
<g id="node15" class="node">
<title>Node15</title>
<g id="a_node15"><a xlink:href="global_8h.html" target="_top" xlink:title=" ">
<polygon fill="white" stroke="black" points="518,-290.5 518,-311.5 576,-311.5 576,-290.5 518,-290.5"/>
<text text-anchor="middle" x="547" y="-297.9" font-family="DejaVuSans" font-size="12.00">global.h</text>
</a>
</g>
</g>
<!-- Node1&#45;&gt;Node15 -->
<g id="edge21" class="edge">
<title>Node1&#45;&gt;Node15</title>
<path fill="none" stroke="midnightblue" d="M412.65,-530.88C443.43,-528.06 494.22,-518.43 521,-486 560.47,-438.21 555.34,-358.51 550.32,-321.72"/>
<polygon fill="midnightblue" stroke="midnightblue" points="553.77,-321.13 548.82,-311.76 546.85,-322.17 553.77,-321.13"/>
</g>
<!-- Node17 -->
<g id="node17" class="node">
<title>Node17</title>
<g id="a_node17"><a xlink:href="scan_8h.html" target="_top" xlink:title=" ">
<polygon fill="white" stroke="black" points="388,-464.5 388,-485.5 440,-485.5 440,-464.5 388,-464.5"/>
<text text-anchor="middle" x="414" y="-471.9" font-family="DejaVuSans" font-size="12.00">scan.h</text>
</a>
</g>
</g>
<!-- Node1&#45;&gt;Node17 -->
<g id="edge25" class="edge">
<title>Node1&#45;&gt;Node17</title>
<path fill="none" stroke="midnightblue" d="M391.7,-522.25C395.34,-514.7 400.49,-504.02 404.93,-494.82"/>
<polygon fill="midnightblue" stroke="midnightblue" points="408.16,-496.17 409.35,-485.64 401.86,-493.13 408.16,-496.17"/>
</g>
<!-- Node19 -->
<g id="node19" class="node">
<title>Node19</title>
<g id="a_node19"><a xlink:href="eqtb_8h.html" target="_top" xlink:title=" ">
<polygon fill="white" stroke="black" points="110,-348.5 110,-369.5 160,-369.5 160,-348.5 110,-348.5"/>
<text text-anchor="middle" x="135" y="-355.9" font-family="DejaVuSans" font-size="12.00">eqtb.h</text>
</a>
</g>
</g>
<!-- Node1&#45;&gt;Node19 -->
<g id="edge29" class="edge">
<title>Node1&#45;&gt;Node19</title>
<path fill="none" stroke="midnightblue" d="M361.4,-522.39C340.62,-514.08 310.94,-501.06 287,-486 233.89,-452.58 179.01,-402.53 152.05,-376.72"/>
<polygon fill="midnightblue" stroke="midnightblue" points="154.24,-373.96 144.61,-369.53 149.37,-379 154.24,-373.96"/>
</g>
<!-- Node20 -->
<g id="node20" class="node">
<title>Node20</title>
<g id="a_node20"><a xlink:href="mem_8h.html" target="_top" xlink:title=" ">
<polygon fill="white" stroke="black" points="427.5,-348.5 427.5,-369.5 480.5,-369.5 480.5,-348.5 427.5,-348.5"/>
<text text-anchor="middle" x="454" y="-355.9" font-family="DejaVuSans" font-size="12.00">mem.h</text>
</a>
</g>
</g>
<!-- Node1&#45;&gt;Node20 -->
<g id="edge32" class="edge">
<title>Node1&#45;&gt;Node20</title>
<path fill="none" stroke="midnightblue" d="M383.46,-522.12C379.2,-508.72 373.26,-484.12 379,-464 389.04,-428.78 417.15,-395.88 435.95,-376.86"/>
<polygon fill="midnightblue" stroke="midnightblue" points="438.68,-379.1 443.36,-369.6 433.77,-374.1 438.68,-379.1"/>
</g>
<!-- Node21 -->
<g id="node21" class="node">
<title>Node21</title>
<g id="a_node21"><a xlink:href="fonts_8h.html" target="_top" xlink:title=" ">
<polygon fill="white" stroke="black" points="609,-348.5 609,-369.5 661,-369.5 661,-348.5 609,-348.5"/>
<text text-anchor="middle" x="635" y="-355.9" font-family="DejaVuSans" font-size="12.00">fonts.h</text>
</a>
</g>
</g>
<!-- Node1&#45;&gt;Node21 -->
<g id="edge36" class="edge">
<title>Node1&#45;&gt;Node21</title>
<path fill="none" stroke="midnightblue" d="M412.64,-530.57C447.7,-527.45 511.12,-517.54 554,-486 591.9,-458.13 616.68,-406.74 627.96,-378.98"/>
<polygon fill="midnightblue" stroke="midnightblue" points="631.25,-380.18 631.62,-369.59 624.73,-377.64 631.25,-380.18"/>
</g>
<!-- Node23 -->
<g id="node23" class="node">
<title>Node23</title>
<g id="a_node23"><a xlink:href="print_8h.html" target="_top" xlink:title=" ">
<polygon fill="white" stroke="black" points="237,-406.5 237,-427.5 287,-427.5 287,-406.5 237,-406.5"/>
<text text-anchor="middle" x="262" y="-413.9" font-family="DejaVuSans" font-size="12.00">print.h</text>
</a>
</g>
</g>
<!-- Node1&#45;&gt;Node23 -->
<g id="edge42" class="edge">
<title>Node1&#45;&gt;Node23</title>
<path fill="none" stroke="midnightblue" d="M364.81,-522.42C347.92,-514.38 324.81,-501.71 308,-486 292.77,-471.77 279.93,-451.6 271.72,-436.93"/>
<polygon fill="midnightblue" stroke="midnightblue" points="274.62,-434.94 266.8,-427.79 268.46,-438.25 274.62,-434.94"/>
</g>
<!-- Node24 -->
<g id="node24" class="node">
<title>Node24</title>
<g id="a_node24"><a xlink:href="error_8h.html" target="_top" xlink:title=" ">
<polygon fill="white" stroke="black" points="606.5,-464.5 606.5,-485.5 657.5,-485.5 657.5,-464.5 606.5,-464.5"/>
<text text-anchor="middle" x="632" y="-471.9" font-family="DejaVuSans" font-size="12.00">error.h</text>
</a>
</g>
</g>
<!-- Node1&#45;&gt;Node24 -->
<g id="edge48" class="edge">
<title>Node1&#45;&gt;Node24</title>
<path fill="none" stroke="midnightblue" d="M412.61,-526.46C451.46,-518.01 527.58,-501.28 592,-486 593.44,-485.66 594.9,-485.31 596.38,-484.95"/>
<polygon fill="midnightblue" stroke="midnightblue" points="597.32,-488.32 606.2,-482.55 595.66,-481.53 597.32,-488.32"/>
</g>
<!-- Node25 -->
<g id="node25" class="node">
<title>Node25</title>
<g id="a_node25"><a xlink:href="page_8h.html" target="_top" xlink:title=" ">
<polygon fill="white" stroke="black" points="458.5,-464.5 458.5,-485.5 511.5,-485.5 511.5,-464.5 458.5,-464.5"/>
<text text-anchor="middle" x="485" y="-471.9" font-family="DejaVuSans" font-size="12.00">page.h</text>
</a>
</g>
</g>
<!-- Node1&#45;&gt;Node25 -->
<g id="edge49" class="edge">
<title>Node1&#45;&gt;Node25</title>
<path fill="none" stroke="midnightblue" d="M404.07,-522.25C419.25,-513.57 441.66,-500.76 459.06,-490.82"/>
<polygon fill="midnightblue" stroke="midnightblue" points="461.18,-493.64 468.13,-485.64 457.71,-487.57 461.18,-493.64"/>
</g>
<!-- Node26 -->
<g id="node26" class="node">
<title>Node26</title>
<g id="a_node26"><a xlink:href="pack_8h.html" target="_top" xlink:title=" ">
<polygon fill="white" stroke="black" points="676,-464.5 676,-485.5 728,-485.5 728,-464.5 676,-464.5"/>
<text text-anchor="middle" x="702" y="-471.9" font-family="DejaVuSans" font-size="12.00">pack.h</text>
</a>
</g>
</g>
<!-- Node1&#45;&gt;Node26 -->
<g id="edge51" class="edge">
<title>Node1&#45;&gt;Node26</title>
<path fill="none" stroke="midnightblue" d="M412.67,-528.79C460.6,-522.59 567.07,-507.8 665.87,-486.06"/>
<polygon fill="midnightblue" stroke="midnightblue" points="666.71,-489.46 675.71,-483.86 665.19,-482.62 666.71,-489.46"/>
</g>
<!-- Node4 -->
<g id="node4" class="node">
<title>Node4</title>
<g id="a_node4"><a xlink:href="global__const_8h.html" target="_top" xlink:title=" ">
<polygon fill="white" stroke="black" points="594.5,-116.5 594.5,-137.5 687.5,-137.5 687.5,-116.5 594.5,-116.5"/>
<text text-anchor="middle" x="641" y="-123.9" font-family="DejaVuSans" font-size="12.00">global_const.h</text>
</a>
</g>
</g>
<!-- Node3&#45;&gt;Node4 -->
<g id="edge3" class="edge">
<title>Node3&#45;&gt;Node4</title>
<path fill="none" stroke="midnightblue" d="M332.83,-348.05C335.92,-333.67 343.45,-306.92 359,-290 382.67,-264.24 398.39,-270.94 429,-254 498.18,-215.7 577.89,-167.08 616.92,-142.97"/>
<polygon fill="midnightblue" stroke="midnightblue" points="618.84,-145.9 625.5,-137.66 615.15,-139.94 618.84,-145.9"/>
</g>
<!-- Node7 -->
<g id="node7" class="node">
<title>Node7</title>
<g id="a_node7"><a xlink:href="tex__types_8h.html" target="_top" xlink:title=" ">
<polygon fill="white" stroke="black" points="314.5,-58.5 314.5,-79.5 391.5,-79.5 391.5,-58.5 314.5,-58.5"/>
<text text-anchor="middle" x="353" y="-65.9" font-family="DejaVuSans" font-size="12.00">tex_types.h</text>
</a>
</g>
</g>
<!-- Node3&#45;&gt;Node7 -->
<g id="edge6" class="edge">
<title>Node3&#45;&gt;Node7</title>
<path fill="none" stroke="midnightblue" d="M327.28,-348.34C314.95,-314.81 278.07,-200.9 311,-116 315.39,-104.69 323.99,-94.46 332.27,-86.54"/>
<polygon fill="midnightblue" stroke="midnightblue" points="334.83,-88.95 339.97,-79.69 330.18,-83.72 334.83,-88.95"/>
</g>
<!-- Node10 -->
<g id="node10" class="node">
<title>Node10</title>
<g id="a_node10"><a xlink:href="tex__constant_8h.html" target="_top" xlink:title=" ">
<polygon fill="white" stroke="black" points="368,-290.5 368,-311.5 462,-311.5 462,-290.5 368,-290.5"/>
<text text-anchor="middle" x="415" y="-297.9" font-family="DejaVuSans" font-size="12.00">tex_constant.h</text>
</a>
</g>
</g>
<!-- Node3&#45;&gt;Node10 -->
<g id="edge9" class="edge">
<title>Node3&#45;&gt;Node10</title>
<path fill="none" stroke="midnightblue" d="M345.63,-348.25C358.4,-339.73 377.14,-327.24 391.93,-317.38"/>
<polygon fill="midnightblue" stroke="midnightblue" points="394.16,-320.1 400.54,-311.64 390.27,-314.28 394.16,-320.1"/>
</g>
<!-- Node5 -->
<g id="node5" class="node">
<title>Node5</title>
<g id="a_node5"><a xlink:title=" ">
<polygon fill="white" stroke="#bfbfbf" points="611.5,-58.5 611.5,-79.5 670.5,-79.5 670.5,-58.5 611.5,-58.5"/>
<text text-anchor="middle" x="641" y="-65.9" font-family="DejaVuSans" font-size="12.00">assert.h</text>
</a>
</g>
</g>
<!-- Node4&#45;&gt;Node5 -->
<g id="edge4" class="edge">
<title>Node4&#45;&gt;Node5</title>
<path fill="none" stroke="midnightblue" d="M641,-116.25C641,-108.94 641,-98.69 641,-89.7"/>
<polygon fill="midnightblue" stroke="midnightblue" points="644.5,-89.64 641,-79.64 637.5,-89.64 644.5,-89.64"/>
</g>
<!-- Node6 -->
<g id="node6" class="node">
<title>Node6</title>
<g id="a_node6"><a xlink:title=" ">
<polygon fill="white" stroke="#bfbfbf" points="690,-58.5 690,-79.5 742,-79.5 742,-58.5 690,-58.5"/>
<text text-anchor="middle" x="716" y="-65.9" font-family="DejaVuSans" font-size="12.00">stdio.h</text>
</a>
</g>
</g>
<!-- Node4&#45;&gt;Node6 -->
<g id="edge5" class="edge">
<title>Node4&#45;&gt;Node6</title>
<path fill="none" stroke="midnightblue" d="M654.06,-116.25C665.36,-107.81 681.88,-95.47 695.03,-85.66"/>
<polygon fill="midnightblue" stroke="midnightblue" points="697.17,-88.43 703.09,-79.64 692.98,-82.82 697.17,-88.43"/>
</g>
<!-- Node8 -->
<g id="node8" class="node">
<title>Node8</title>
<g id="a_node8"><a xlink:title=" ">
<polygon fill="white" stroke="#bfbfbf" points="320.5,-0.5 320.5,-21.5 385.5,-21.5 385.5,-0.5 320.5,-0.5"/>
<text text-anchor="middle" x="353" y="-7.9" font-family="DejaVuSans" font-size="12.00">stdbool.h</text>
</a>
</g>
</g>
<!-- Node7&#45;&gt;Node8 -->
<g id="edge7" class="edge">
<title>Node7&#45;&gt;Node8</title>
<path fill="none" stroke="midnightblue" d="M353,-58.25C353,-50.94 353,-40.69 353,-31.7"/>
<polygon fill="midnightblue" stroke="midnightblue" points="356.5,-31.64 353,-21.64 349.5,-31.64 356.5,-31.64"/>
</g>
<!-- Node9 -->
<g id="node9" class="node">
<title>Node9</title>
<g id="a_node9"><a xlink:title=" ">
<polygon fill="white" stroke="#bfbfbf" points="433.5,-0.5 433.5,-21.5 488.5,-21.5 488.5,-0.5 433.5,-0.5"/>
<text text-anchor="middle" x="461" y="-7.9" font-family="DejaVuSans" font-size="12.00">stdint.h</text>
</a>
</g>
</g>
<!-- Node7&#45;&gt;Node9 -->
<g id="edge8" class="edge">
<title>Node7&#45;&gt;Node9</title>
<path fill="none" stroke="midnightblue" d="M371.81,-58.25C388.85,-49.41 414.16,-36.29 433.47,-26.28"/>
<polygon fill="midnightblue" stroke="midnightblue" points="435.14,-29.35 442.4,-21.64 431.91,-23.14 435.14,-29.35"/>
</g>
<!-- Node11 -->
<g id="node11" class="node">
<title>Node11</title>
<g id="a_node11"><a xlink:href="box_8h.html" target="_top" xlink:title=" ">
<polygon fill="white" stroke="black" points="374,-232.5 374,-253.5 420,-253.5 420,-232.5 374,-232.5"/>
<text text-anchor="middle" x="397" y="-239.9" font-family="DejaVuSans" font-size="12.00">box.h</text>
</a>
</g>
</g>
<!-- Node10&#45;&gt;Node11 -->
<g id="edge10" class="edge">
<title>Node10&#45;&gt;Node11</title>
<path fill="none" stroke="midnightblue" d="M411.86,-290.25C409.49,-282.86 406.15,-272.47 403.24,-263.41"/>
<polygon fill="midnightblue" stroke="midnightblue" points="406.49,-262.09 400.1,-253.64 399.83,-264.23 406.49,-262.09"/>
</g>
<!-- Node12 -->
<g id="node12" class="node">
<title>Node12</title>
<g id="a_node12"><a xlink:href="str_8h.html" target="_top" xlink:title=" ">
<polygon fill="white" stroke="black" points="454.5,-174.5 454.5,-195.5 493.5,-195.5 493.5,-174.5 454.5,-174.5"/>
<text text-anchor="middle" x="474" y="-181.9" font-family="DejaVuSans" font-size="12.00">str.h</text>
</a>
</g>
</g>
<!-- Node11&#45;&gt;Node12 -->
<g id="edge11" class="edge">
<title>Node11&#45;&gt;Node12</title>
<path fill="none" stroke="midnightblue" d="M410.41,-232.25C422.01,-223.81 438.97,-211.47 452.47,-201.66"/>
<polygon fill="midnightblue" stroke="midnightblue" points="454.71,-204.36 460.74,-195.64 450.6,-198.69 454.71,-204.36"/>
</g>
<!-- Node11&#45;&gt;Node14 -->
<g id="edge18" class="edge">
<title>Node11&#45;&gt;Node14</title>
<path fill="none" stroke="midnightblue" d="M373.87,-235.36C342.15,-226.25 284.59,-209.72 244.88,-198.31"/>
<polygon fill="midnightblue" stroke="midnightblue" points="245.77,-194.93 235.19,-195.53 243.84,-201.66 245.77,-194.93"/>
</g>
<!-- Node12&#45;&gt;Node4 -->
<g id="edge14" class="edge">
<title>Node12&#45;&gt;Node4</title>
<path fill="none" stroke="midnightblue" d="M493.81,-177.36C520.63,-168.36 569.02,-152.14 602.97,-140.75"/>
<polygon fill="midnightblue" stroke="midnightblue" points="604.2,-144.03 612.57,-137.53 601.98,-137.39 604.2,-144.03"/>
</g>
<!-- Node12&#45;&gt;Node6 -->
<g id="edge12" class="edge">
<title>Node12&#45;&gt;Node6</title>
<path fill="none" stroke="midnightblue" d="M487.63,-174.45C508.21,-160.33 548.8,-133.64 586,-116 616.88,-101.35 653.75,-88.74 680.32,-80.44"/>
<polygon fill="midnightblue" stroke="midnightblue" points="681.44,-83.76 689.97,-77.48 679.38,-77.07 681.44,-83.76"/>
</g>
<!-- Node12&#45;&gt;Node7 -->
<g id="edge17" class="edge">
<title>Node12&#45;&gt;Node7</title>
<path fill="none" stroke="midnightblue" d="M469.15,-174.27C461.75,-160.15 446.54,-133.73 428,-116 414.78,-103.36 397.51,-92.47 382.88,-84.47"/>
<polygon fill="midnightblue" stroke="midnightblue" points="384.19,-81.21 373.71,-79.64 380.93,-87.4 384.19,-81.21"/>
</g>
<!-- Node12&#45;&gt;Node9 -->
<g id="edge13" class="edge">
<title>Node12&#45;&gt;Node9</title>
<path fill="none" stroke="midnightblue" d="M473.26,-174.26C471.19,-146.82 465.27,-68.51 462.48,-31.64"/>
<polygon fill="midnightblue" stroke="midnightblue" points="465.97,-31.34 461.73,-21.63 458.99,-31.87 465.97,-31.34"/>
</g>
<!-- Node13 -->
<g id="node13" class="node">
<title>Node13</title>
<g id="a_node13"><a xlink:href="charset_8h.html" target="_top" xlink:title=" ">
<polygon fill="white" stroke="black" points="320.5,-116.5 320.5,-137.5 385.5,-137.5 385.5,-116.5 320.5,-116.5"/>
<text text-anchor="middle" x="353" y="-123.9" font-family="DejaVuSans" font-size="12.00">charset.h</text>
</a>
</g>
</g>
<!-- Node12&#45;&gt;Node13 -->
<g id="edge15" class="edge">
<title>Node12&#45;&gt;Node13</title>
<path fill="none" stroke="midnightblue" d="M454.29,-174.88C435.04,-165.97 405.48,-152.29 383.25,-142"/>
<polygon fill="midnightblue" stroke="midnightblue" points="384.47,-138.71 373.92,-137.68 381.53,-145.06 384.47,-138.71"/>
</g>
<!-- Node13&#45;&gt;Node7 -->
<g id="edge16" class="edge">
<title>Node13&#45;&gt;Node7</title>
<path fill="none" stroke="midnightblue" d="M353,-116.25C353,-108.94 353,-98.69 353,-89.7"/>
<polygon fill="midnightblue" stroke="midnightblue" points="356.5,-89.64 353,-79.64 349.5,-89.64 356.5,-89.64"/>
</g>
<!-- Node14&#45;&gt;Node7 -->
<g id="edge19" class="edge">
<title>Node14&#45;&gt;Node7</title>
<path fill="none" stroke="midnightblue" d="M211.83,-174.15C225.85,-160.34 252.72,-134.82 278,-116 293.38,-104.55 311.7,-93.27 326.39,-84.75"/>
<polygon fill="midnightblue" stroke="midnightblue" points="328.5,-87.57 335.45,-79.57 325.03,-81.49 328.5,-87.57"/>
</g>
<!-- Node15&#45;&gt;Node6 -->
<g id="edge22" class="edge">
<title>Node15&#45;&gt;Node6</title>
<path fill="none" stroke="midnightblue" d="M568.45,-290.37C584.74,-282.31 607,-269.63 623,-254 666.75,-211.27 672.06,-193.83 697,-138 704.02,-122.28 709.06,-103.34 712.17,-89.45"/>
<polygon fill="midnightblue" stroke="midnightblue" points="715.62,-90.05 714.26,-79.54 708.77,-88.61 715.62,-90.05"/>
</g>
<!-- Node15&#45;&gt;Node7 -->
<g id="edge24" class="edge">
<title>Node15&#45;&gt;Node7</title>
<path fill="none" stroke="midnightblue" d="M545.01,-290.26C540.25,-268.31 526.75,-213.79 503,-174 485.1,-144.02 478.08,-136.76 450,-116 431.62,-102.41 408.59,-91.29 389.59,-83.38"/>
<polygon fill="midnightblue" stroke="midnightblue" points="390.64,-80.04 380.06,-79.55 388.03,-86.53 390.64,-80.04"/>
</g>
<!-- Node16 -->
<g id="node16" class="node">
<title>Node16</title>
<g id="a_node16"><a xlink:title=" ">
<polygon fill="white" stroke="#bfbfbf" points="552,-232.5 552,-253.5 614,-253.5 614,-232.5 552,-232.5"/>
<text text-anchor="middle" x="583" y="-239.9" font-family="DejaVuSans" font-size="12.00">setjmp.h</text>
</a>
</g>
</g>
<!-- Node15&#45;&gt;Node16 -->
<g id="edge23" class="edge">
<title>Node15&#45;&gt;Node16</title>
<path fill="none" stroke="midnightblue" d="M553.27,-290.25C558.23,-282.54 565.28,-271.56 571.28,-262.23"/>
<polygon fill="midnightblue" stroke="midnightblue" points="574.34,-263.95 576.8,-253.64 568.45,-260.16 574.34,-263.95"/>
</g>
<!-- Node18 -->
<g id="node18" class="node">
<title>Node18</title>
<g id="a_node18"><a xlink:href="lexer_8h.html" target="_top" xlink:title=" ">
<polygon fill="white" stroke="black" points="424,-406.5 424,-427.5 476,-427.5 476,-406.5 424,-406.5"/>
<text text-anchor="middle" x="450" y="-413.9" font-family="DejaVuSans" font-size="12.00">lexer.h</text>
</a>
</g>
</g>
<!-- Node17&#45;&gt;Node18 -->
<g id="edge26" class="edge">
<title>Node17&#45;&gt;Node18</title>
<path fill="none" stroke="midnightblue" d="M420.27,-464.25C425.23,-456.54 432.28,-445.56 438.28,-436.23"/>
<polygon fill="midnightblue" stroke="midnightblue" points="441.34,-437.95 443.8,-427.64 435.45,-434.16 441.34,-437.95"/>
</g>
<!-- Node18&#45;&gt;Node3 -->
<g id="edge28" class="edge">
<title>Node18&#45;&gt;Node3</title>
<path fill="none" stroke="midnightblue" d="M429.54,-406.37C410.53,-397.42 381.98,-383.99 360.5,-373.88"/>
<polygon fill="midnightblue" stroke="midnightblue" points="361.73,-370.59 351.19,-369.5 358.75,-376.93 361.73,-370.59"/>
</g>
<!-- Node18&#45;&gt;Node6 -->
<g id="edge27" class="edge">
<title>Node18&#45;&gt;Node6</title>
<path fill="none" stroke="midnightblue" d="M476.17,-413.25C557.75,-403.98 802,-370.49 802,-302 802,-302 802,-302 802,-184 802,-141.9 764.16,-105.5 738.68,-85.75"/>
<polygon fill="midnightblue" stroke="midnightblue" points="740.7,-82.89 730.59,-79.71 736.51,-88.5 740.7,-82.89"/>
</g>
<!-- Node19&#45;&gt;Node7 -->
<g id="edge30" class="edge">
<title>Node19&#45;&gt;Node7</title>
<path fill="none" stroke="midnightblue" d="M130.63,-348.28C115.3,-312.55 67.98,-186.95 126,-116 148.08,-89 244.46,-77.47 304.31,-72.84"/>
<polygon fill="midnightblue" stroke="midnightblue" points="304.6,-76.33 314.31,-72.11 304.08,-69.35 304.6,-76.33"/>
</g>
<!-- Node19&#45;&gt;Node10 -->
<g id="edge31" class="edge">
<title>Node19&#45;&gt;Node10</title>
<path fill="none" stroke="midnightblue" d="M160.34,-352.93C204.63,-344.07 297.13,-325.57 357.61,-313.48"/>
<polygon fill="midnightblue" stroke="midnightblue" points="358.65,-316.84 367.77,-311.45 357.28,-309.97 358.65,-316.84"/>
</g>
<!-- Node20&#45;&gt;Node7 -->
<g id="edge33" class="edge">
<title>Node20&#45;&gt;Node7</title>
<path fill="none" stroke="midnightblue" d="M459.24,-348.37C465.73,-335.24 475.43,-310.95 471,-290 453.51,-207.26 439.8,-187.09 394,-116 387.33,-105.64 378.36,-95.29 370.51,-87.04"/>
<polygon fill="midnightblue" stroke="midnightblue" points="372.94,-84.52 363.44,-79.84 367.95,-89.43 372.94,-84.52"/>
</g>
<!-- Node20&#45;&gt;Node10 -->
<g id="edge34" class="edge">
<title>Node20&#45;&gt;Node10</title>
<path fill="none" stroke="midnightblue" d="M447.21,-348.25C441.78,-340.46 434.03,-329.33 427.5,-319.94"/>
<polygon fill="midnightblue" stroke="midnightblue" points="430.3,-317.85 421.72,-311.64 424.56,-321.85 430.3,-317.85"/>
</g>
<!-- Node20&#45;&gt;Node15 -->
<g id="edge35" class="edge">
<title>Node20&#45;&gt;Node15</title>
<path fill="none" stroke="midnightblue" d="M470.2,-348.25C484.6,-339.57 505.87,-326.76 522.38,-316.82"/>
<polygon fill="midnightblue" stroke="midnightblue" points="524.22,-319.8 530.99,-311.64 520.61,-313.8 524.22,-319.8"/>
</g>
<!-- Node21&#45;&gt;Node4 -->
<g id="edge38" class="edge">
<title>Node21&#45;&gt;Node4</title>
<path fill="none" stroke="midnightblue" d="M661.24,-348.82C677.59,-341.57 697.31,-329.69 707,-312 738.43,-254.62 685.1,-179.32 656.84,-145.63"/>
<polygon fill="midnightblue" stroke="midnightblue" points="659.13,-142.92 649.94,-137.63 653.83,-147.49 659.13,-142.92"/>
</g>
<!-- Node21&#45;&gt;Node6 -->
<g id="edge37" class="edge">
<title>Node21&#45;&gt;Node6</title>
<path fill="none" stroke="midnightblue" d="M661.11,-348.57C698.8,-333.07 764,-298.4 764,-244 764,-244 764,-244 764,-184 764,-147.9 743.3,-110.05 729.09,-88.31"/>
<polygon fill="midnightblue" stroke="midnightblue" points="731.8,-86.09 723.29,-79.78 726.01,-90.02 731.8,-86.09"/>
</g>
<!-- Node21&#45;&gt;Node10 -->
<g id="edge39" class="edge">
<title>Node21&#45;&gt;Node10</title>
<path fill="none" stroke="midnightblue" d="M608.9,-351.36C572.82,-342.17 507.08,-325.44 462.24,-314.03"/>
<polygon fill="midnightblue" stroke="midnightblue" points="463,-310.61 452.45,-311.53 461.28,-317.39 463,-310.61"/>
</g>
<!-- Node21&#45;&gt;Node12 -->
<g id="edge40" class="edge">
<title>Node21&#45;&gt;Node12</title>
<path fill="none" stroke="midnightblue" d="M632,-348.25C629.32,-339.01 625.58,-324.71 624,-312 623.73,-309.79 624.33,-233.78 623,-232 595.38,-195.06 538.53,-186.91 503.59,-185.6"/>
<polygon fill="midnightblue" stroke="midnightblue" points="503.58,-182.1 493.5,-185.38 503.43,-189.09 503.58,-182.1"/>
</g>
<!-- Node22 -->
<g id="node22" class="node">
<title>Node22</title>
<g id="a_node22"><a xlink:href="macros_8h.html" target="_top" xlink:title=" ">
<polygon fill="white" stroke="black" points="632.5,-290.5 632.5,-311.5 697.5,-311.5 697.5,-290.5 632.5,-290.5"/>
<text text-anchor="middle" x="665" y="-297.9" font-family="DejaVuSans" font-size="12.00">macros.h</text>
</a>
</g>
</g>
<!-- Node21&#45;&gt;Node22 -->
<g id="edge41" class="edge">
<title>Node21&#45;&gt;Node22</title>
<path fill="none" stroke="midnightblue" d="M640.23,-348.25C644.31,-340.62 650.11,-329.79 655.07,-320.53"/>
<polygon fill="midnightblue" stroke="midnightblue" points="658.2,-322.11 659.83,-311.64 652.03,-318.8 658.2,-322.11"/>
</g>
<!-- Node23&#45;&gt;Node3 -->
<g id="edge45" class="edge">
<title>Node23&#45;&gt;Node3</title>
<path fill="none" stroke="midnightblue" d="M274.02,-406.25C284.21,-397.97 299.04,-385.94 311.01,-376.22"/>
<polygon fill="midnightblue" stroke="midnightblue" points="313.56,-378.66 319.12,-369.64 309.15,-373.23 313.56,-378.66"/>
</g>
<!-- Node23&#45;&gt;Node7 -->
<g id="edge44" class="edge">
<title>Node23&#45;&gt;Node7</title>
<path fill="none" stroke="midnightblue" d="M251.8,-406.47C217.64,-373.38 112.01,-260.71 159,-174 188.24,-120.05 257.13,-92.86 304.42,-80.09"/>
<polygon fill="midnightblue" stroke="midnightblue" points="305.35,-83.46 314.16,-77.58 303.6,-76.68 305.35,-83.46"/>
</g>
<!-- Node23&#45;&gt;Node12 -->
<g id="edge47" class="edge">
<title>Node23&#45;&gt;Node12</title>
<path fill="none" stroke="midnightblue" d="M264.65,-406.37C273.48,-376.03 304.82,-281.58 365,-232 388.48,-212.66 421.27,-200.3 444.74,-193.32"/>
<polygon fill="midnightblue" stroke="midnightblue" points="445.81,-196.65 454.49,-190.57 443.91,-189.92 445.81,-196.65"/>
</g>
<!-- Node23&#45;&gt;Node13 -->
<g id="edge43" class="edge">
<title>Node23&#45;&gt;Node13</title>
<path fill="none" stroke="midnightblue" d="M263.2,-406.2C264.94,-392.89 268.58,-368.39 274,-348 294.2,-272 329.08,-185 344.85,-147.2"/>
<polygon fill="midnightblue" stroke="midnightblue" points="348.11,-148.47 348.76,-137.89 341.66,-145.76 348.11,-148.47"/>
</g>
<!-- Node23&#45;&gt;Node19 -->
<g id="edge46" class="edge">
<title>Node23&#45;&gt;Node19</title>
<path fill="none" stroke="midnightblue" d="M240.17,-406.37C219.69,-397.34 188.86,-383.75 165.87,-373.61"/>
<polygon fill="midnightblue" stroke="midnightblue" points="167.11,-370.33 156.55,-369.5 164.29,-376.74 167.11,-370.33"/>
</g>
<!-- Node25&#45;&gt;Node18 -->
<g id="edge50" class="edge">
<title>Node25&#45;&gt;Node18</title>
<path fill="none" stroke="midnightblue" d="M478.9,-464.25C474.09,-456.54 467.22,-445.56 461.4,-436.23"/>
<polygon fill="midnightblue" stroke="midnightblue" points="464.29,-434.27 456.03,-427.64 458.36,-437.98 464.29,-434.27"/>
</g>
</g>
</svg>
