<?xml version="1.0" encoding="UTF-8" standalone="no"?>
<!DOCTYPE svg PUBLIC "-//W3C//DTD SVG 1.1//EN"
 "http://www.w3.org/Graphics/SVG/1.1/DTD/svg11.dtd">
<!-- Generated by graphviz version 2.44.0 ()
 -->
<!-- Title: pack.c Pages: 1 -->
<svg width="950pt" height="436pt"
 viewBox="0.00 0.00 949.58 436.00" xmlns="http://www.w3.org/2000/svg" xmlns:xlink="http://www.w3.org/1999/xlink">
<g id="graph0" class="graph" transform="scale(1 1) rotate(0) translate(4 432)">
<title>pack.c</title>
<polygon fill="white" stroke="transparent" points="-4,4 -4,-432 945.58,-432 945.58,4 -4,4"/>
<!-- Node1 -->
<g id="node1" class="node">
<title>Node1</title>
<g id="a_node1"><a xlink:title=" ">
<polygon fill="#bfbfbf" stroke="black" points="455.5,-406.5 455.5,-427.5 506.5,-427.5 506.5,-406.5 455.5,-406.5"/>
<text text-anchor="middle" x="481" y="-413.9" font-family="DejaVuSans" font-size="12.00">pack.c</text>
</a>
</g>
</g>
<!-- Node2 -->
<g id="node2" class="node">
<title>Node2</title>
<g id="a_node2"><a xlink:title=" ">
<polygon fill="white" stroke="#bfbfbf" points="0,-348.5 0,-369.5 54,-369.5 54,-348.5 0,-348.5"/>
<text text-anchor="middle" x="27" y="-355.9" font-family="DejaVuSans" font-size="12.00">stdlib.h</text>
</a>
</g>
</g>
<!-- Node1&#45;&gt;Node2 -->
<g id="edge1" class="edge">
<title>Node1&#45;&gt;Node2</title>
<path fill="none" stroke="midnightblue" d="M455.22,-414.28C390,-409.69 213.28,-395.7 68,-370 66.74,-369.78 65.47,-369.54 64.18,-369.29"/>
<polygon fill="midnightblue" stroke="midnightblue" points="64.75,-365.83 54.24,-367.16 63.29,-372.68 64.75,-365.83"/>
</g>
<!-- Node3 -->
<g id="node3" class="node">
<title>Node3</title>
<g id="a_node3"><a xlink:href="tex__constant_8h.html" target="_top" xlink:title=" ">
<polygon fill="white" stroke="black" points="179,-174.5 179,-195.5 273,-195.5 273,-174.5 179,-174.5"/>
<text text-anchor="middle" x="226" y="-181.9" font-family="DejaVuSans" font-size="12.00">tex_constant.h</text>
</a>
</g>
</g>
<!-- Node1&#45;&gt;Node3 -->
<g id="edge2" class="edge">
<title>Node1&#45;&gt;Node3</title>
<path fill="none" stroke="midnightblue" d="M455.41,-414.59C383.37,-409.06 178.99,-382.21 101,-254 81.8,-222.44 127.67,-204.55 169.14,-195.13"/>
<polygon fill="midnightblue" stroke="midnightblue" points="169.95,-198.53 179,-193.02 168.49,-191.69 169.95,-198.53"/>
</g>
<!-- Node5 -->
<g id="node5" class="node">
<title>Node5</title>
<g id="a_node5"><a xlink:href="texmath_8h.html" target="_top" xlink:title=" ">
<polygon fill="white" stroke="black" points="860,-232.5 860,-253.5 928,-253.5 928,-232.5 860,-232.5"/>
<text text-anchor="middle" x="894" y="-239.9" font-family="DejaVuSans" font-size="12.00">texmath.h</text>
</a>
</g>
</g>
<!-- Node1&#45;&gt;Node5 -->
<g id="edge4" class="edge">
<title>Node1&#45;&gt;Node5</title>
<path fill="none" stroke="midnightblue" d="M506.7,-415.73C578.72,-414.51 780.71,-407.72 833,-370 868.67,-344.27 884.39,-291.95 890.54,-263.49"/>
<polygon fill="midnightblue" stroke="midnightblue" points="894.01,-264.03 892.51,-253.54 887.14,-262.67 894.01,-264.03"/>
</g>
<!-- Node12 -->
<g id="node12" class="node">
<title>Node12</title>
<g id="a_node12"><a xlink:href="scan_8h.html" target="_top" xlink:title=" ">
<polygon fill="white" stroke="black" points="529,-290.5 529,-311.5 581,-311.5 581,-290.5 529,-290.5"/>
<text text-anchor="middle" x="555" y="-297.9" font-family="DejaVuSans" font-size="12.00">scan.h</text>
</a>
</g>
</g>
<!-- Node1&#45;&gt;Node12 -->
<g id="edge12" class="edge">
<title>Node1&#45;&gt;Node12</title>
<path fill="none" stroke="midnightblue" d="M488.6,-406.34C495.7,-397.18 506.46,-382.92 515,-370 525.7,-353.82 536.8,-334.73 544.59,-320.9"/>
<polygon fill="midnightblue" stroke="midnightblue" points="547.8,-322.32 549.62,-311.88 541.69,-318.91 547.8,-322.32"/>
</g>
<!-- Node13 -->
<g id="node13" class="node">
<title>Node13</title>
<g id="a_node13"><a xlink:href="lexer_8h.html" target="_top" xlink:title=" ">
<polygon fill="white" stroke="black" points="514,-232.5 514,-253.5 566,-253.5 566,-232.5 514,-232.5"/>
<text text-anchor="middle" x="540" y="-239.9" font-family="DejaVuSans" font-size="12.00">lexer.h</text>
</a>
</g>
</g>
<!-- Node1&#45;&gt;Node13 -->
<g id="edge51" class="edge">
<title>Node1&#45;&gt;Node13</title>
<path fill="none" stroke="midnightblue" d="M483.58,-406.4C489.38,-385.16 504.15,-332.73 520,-290 523.36,-280.94 527.56,-271.1 531.25,-262.85"/>
<polygon fill="midnightblue" stroke="midnightblue" points="534.43,-264.29 535.39,-253.74 528.06,-261.39 534.43,-264.29"/>
</g>
<!-- Node17 -->
<g id="node17" class="node">
<title>Node17</title>
<g id="a_node17"><a xlink:href="eqtb_8h.html" target="_top" xlink:title=" ">
<polygon fill="white" stroke="black" points="110,-232.5 110,-253.5 160,-253.5 160,-232.5 110,-232.5"/>
<text text-anchor="middle" x="135" y="-239.9" font-family="DejaVuSans" font-size="12.00">eqtb.h</text>
</a>
</g>
</g>
<!-- Node1&#45;&gt;Node17 -->
<g id="edge24" class="edge">
<title>Node1&#45;&gt;Node17</title>
<path fill="none" stroke="midnightblue" d="M456.24,-406.42C433.75,-397.54 399.8,-383.67 371,-370 292.79,-332.87 203.35,-283.01 160.5,-258.64"/>
<polygon fill="midnightblue" stroke="midnightblue" points="162.03,-255.48 151.61,-253.57 158.56,-261.56 162.03,-255.48"/>
</g>
<!-- Node18 -->
<g id="node18" class="node">
<title>Node18</title>
<g id="a_node18"><a xlink:href="mem_8h.html" target="_top" xlink:title=" ">
<polygon fill="white" stroke="black" points="254.5,-232.5 254.5,-253.5 307.5,-253.5 307.5,-232.5 254.5,-232.5"/>
<text text-anchor="middle" x="281" y="-239.9" font-family="DejaVuSans" font-size="12.00">mem.h</text>
</a>
</g>
</g>
<!-- Node1&#45;&gt;Node18 -->
<g id="edge27" class="edge">
<title>Node1&#45;&gt;Node18</title>
<path fill="none" stroke="midnightblue" d="M462.84,-406.27C432.98,-389.69 372.69,-353.66 331,-312 315.87,-296.88 301.73,-276.88 292.38,-262.49"/>
<polygon fill="midnightblue" stroke="midnightblue" points="295.27,-260.52 286.96,-253.96 289.36,-264.28 295.27,-260.52"/>
</g>
<!-- Node19 -->
<g id="node19" class="node">
<title>Node19</title>
<g id="a_node19"><a xlink:href="fonts_8h.html" target="_top" xlink:title=" ">
<polygon fill="white" stroke="black" points="340,-290.5 340,-311.5 392,-311.5 392,-290.5 340,-290.5"/>
<text text-anchor="middle" x="366" y="-297.9" font-family="DejaVuSans" font-size="12.00">fonts.h</text>
</a>
</g>
</g>
<!-- Node1&#45;&gt;Node19 -->
<g id="edge30" class="edge">
<title>Node1&#45;&gt;Node19</title>
<path fill="none" stroke="midnightblue" d="M471.2,-406.28C451.59,-386.85 407.35,-342.99 382.95,-318.8"/>
<polygon fill="midnightblue" stroke="midnightblue" points="385.35,-316.25 375.78,-311.69 380.42,-321.22 385.35,-316.25"/>
</g>
<!-- Node21 -->
<g id="node21" class="node">
<title>Node21</title>
<g id="a_node21"><a xlink:href="print_8h.html" target="_top" xlink:title=" ">
<polygon fill="white" stroke="black" points="423,-290.5 423,-311.5 473,-311.5 473,-290.5 423,-290.5"/>
<text text-anchor="middle" x="448" y="-297.9" font-family="DejaVuSans" font-size="12.00">print.h</text>
</a>
</g>
</g>
<!-- Node1&#45;&gt;Node21 -->
<g id="edge38" class="edge">
<title>Node1&#45;&gt;Node21</title>
<path fill="none" stroke="midnightblue" d="M478.19,-406.28C472.76,-387.52 460.74,-346 453.61,-321.38"/>
<polygon fill="midnightblue" stroke="midnightblue" points="456.95,-320.33 450.81,-311.69 450.23,-322.27 456.95,-320.33"/>
</g>
<!-- Node22 -->
<g id="node22" class="node">
<title>Node22</title>
<g id="a_node22"><a xlink:href="error_8h.html" target="_top" xlink:title=" ">
<polygon fill="white" stroke="black" points="670.5,-290.5 670.5,-311.5 721.5,-311.5 721.5,-290.5 670.5,-290.5"/>
<text text-anchor="middle" x="696" y="-297.9" font-family="DejaVuSans" font-size="12.00">error.h</text>
</a>
</g>
</g>
<!-- Node1&#45;&gt;Node22 -->
<g id="edge45" class="edge">
<title>Node1&#45;&gt;Node22</title>
<path fill="none" stroke="midnightblue" d="M499,-406.5C516.6,-397.2 544.15,-382.64 568,-370 602.85,-351.53 643.01,-330.18 668.92,-316.41"/>
<polygon fill="midnightblue" stroke="midnightblue" points="670.59,-319.48 677.78,-311.7 667.3,-313.3 670.59,-319.48"/>
</g>
<!-- Node23 -->
<g id="node23" class="node">
<title>Node23</title>
<g id="a_node23"><a xlink:href="page_8h.html" target="_top" xlink:title=" ">
<polygon fill="white" stroke="black" points="599.5,-290.5 599.5,-311.5 652.5,-311.5 652.5,-290.5 599.5,-290.5"/>
<text text-anchor="middle" x="626" y="-297.9" font-family="DejaVuSans" font-size="12.00">page.h</text>
</a>
</g>
</g>
<!-- Node1&#45;&gt;Node23 -->
<g id="edge48" class="edge">
<title>Node1&#45;&gt;Node23</title>
<path fill="none" stroke="midnightblue" d="M493.36,-406.28C518.3,-386.68 574.83,-342.23 605.42,-318.18"/>
<polygon fill="midnightblue" stroke="midnightblue" points="607.97,-320.63 613.67,-311.69 603.64,-315.12 607.97,-320.63"/>
</g>
<!-- Node24 -->
<g id="node24" class="node">
<title>Node24</title>
<g id="a_node24"><a xlink:href="pack_8h.html" target="_top" xlink:title=" ">
<polygon fill="white" stroke="black" points="772,-348.5 772,-369.5 824,-369.5 824,-348.5 772,-348.5"/>
<text text-anchor="middle" x="798" y="-355.9" font-family="DejaVuSans" font-size="12.00">pack.h</text>
</a>
</g>
</g>
<!-- Node1&#45;&gt;Node24 -->
<g id="edge52" class="edge">
<title>Node1&#45;&gt;Node24</title>
<path fill="none" stroke="midnightblue" d="M506.67,-411.46C562.8,-401.55 696.59,-377.91 761.47,-366.45"/>
<polygon fill="midnightblue" stroke="midnightblue" points="762.4,-369.84 771.64,-364.66 761.19,-362.95 762.4,-369.84"/>
</g>
<!-- Node4 -->
<g id="node4" class="node">
<title>Node4</title>
<g id="a_node4"><a xlink:href="global__const_8h.html" target="_top" xlink:title=" ">
<polygon fill="white" stroke="black" points="328.5,-58.5 328.5,-79.5 421.5,-79.5 421.5,-58.5 328.5,-58.5"/>
<text text-anchor="middle" x="375" y="-65.9" font-family="DejaVuSans" font-size="12.00">global_const.h</text>
</a>
</g>
</g>
<!-- Node3&#45;&gt;Node4 -->
<g id="edge3" class="edge">
<title>Node3&#45;&gt;Node4</title>
<path fill="none" stroke="midnightblue" d="M238.45,-174.48C264.02,-154.91 322.71,-110.01 354.17,-85.94"/>
<polygon fill="midnightblue" stroke="midnightblue" points="356.46,-88.59 362.27,-79.74 352.2,-83.03 356.46,-88.59"/>
</g>
<!-- Node6 -->
<g id="node6" class="node">
<title>Node6</title>
<g id="a_node6"><a xlink:href="global_8h.html" target="_top" xlink:title=" ">
<polygon fill="white" stroke="black" points="552,-116.5 552,-137.5 610,-137.5 610,-116.5 552,-116.5"/>
<text text-anchor="middle" x="581" y="-123.9" font-family="DejaVuSans" font-size="12.00">global.h</text>
</a>
</g>
</g>
<!-- Node5&#45;&gt;Node6 -->
<g id="edge5" class="edge">
<title>Node5&#45;&gt;Node6</title>
<path fill="none" stroke="midnightblue" d="M890.08,-232.26C883.44,-217.12 868.47,-188.21 846,-174 809.09,-150.65 684.6,-136.86 620.25,-131.13"/>
<polygon fill="midnightblue" stroke="midnightblue" points="620.35,-127.63 610.09,-130.25 619.74,-134.6 620.35,-127.63"/>
</g>
<!-- Node6&#45;&gt;Node4 -->
<g id="edge8" class="edge">
<title>Node6&#45;&gt;Node4</title>
<path fill="none" stroke="midnightblue" d="M551.92,-118.1C517.57,-108.76 460.03,-93.11 419.93,-82.21"/>
<polygon fill="midnightblue" stroke="midnightblue" points="420.7,-78.8 410.13,-79.55 418.87,-85.55 420.7,-78.8"/>
</g>
<!-- Node7 -->
<g id="node7" class="node">
<title>Node7</title>
<g id="a_node7"><a xlink:href="global__macros_8h.html" target="_top" xlink:title=" ">
<polygon fill="white" stroke="black" points="485,-58.5 485,-79.5 589,-79.5 589,-58.5 485,-58.5"/>
<text text-anchor="middle" x="537" y="-65.9" font-family="DejaVuSans" font-size="12.00">global_macros.h</text>
</a>
</g>
</g>
<!-- Node6&#45;&gt;Node7 -->
<g id="edge6" class="edge">
<title>Node6&#45;&gt;Node7</title>
<path fill="none" stroke="midnightblue" d="M573.34,-116.25C567.15,-108.38 558.29,-97.1 550.87,-87.65"/>
<polygon fill="midnightblue" stroke="midnightblue" points="553.51,-85.34 544.58,-79.64 548,-89.67 553.51,-85.34"/>
</g>
<!-- Node9 -->
<g id="node9" class="node">
<title>Node9</title>
<g id="a_node9"><a xlink:href="tex__types_8h.html" target="_top" xlink:title=" ">
<polygon fill="white" stroke="black" points="607.5,-58.5 607.5,-79.5 684.5,-79.5 684.5,-58.5 607.5,-58.5"/>
<text text-anchor="middle" x="646" y="-65.9" font-family="DejaVuSans" font-size="12.00">tex_types.h</text>
</a>
</g>
</g>
<!-- Node6&#45;&gt;Node9 -->
<g id="edge9" class="edge">
<title>Node6&#45;&gt;Node9</title>
<path fill="none" stroke="midnightblue" d="M592.32,-116.25C601.92,-107.97 615.89,-95.94 627.17,-86.22"/>
<polygon fill="midnightblue" stroke="midnightblue" points="629.52,-88.82 634.81,-79.64 624.95,-83.52 629.52,-88.82"/>
</g>
<!-- Node8 -->
<g id="node8" class="node">
<title>Node8</title>
<g id="a_node8"><a xlink:title=" ">
<polygon fill="white" stroke="#bfbfbf" points="507.5,-0.5 507.5,-21.5 566.5,-21.5 566.5,-0.5 507.5,-0.5"/>
<text text-anchor="middle" x="537" y="-7.9" font-family="DejaVuSans" font-size="12.00">assert.h</text>
</a>
</g>
</g>
<!-- Node7&#45;&gt;Node8 -->
<g id="edge7" class="edge">
<title>Node7&#45;&gt;Node8</title>
<path fill="none" stroke="midnightblue" d="M537,-58.25C537,-50.94 537,-40.69 537,-31.7"/>
<polygon fill="midnightblue" stroke="midnightblue" points="540.5,-31.64 537,-21.64 533.5,-31.64 540.5,-31.64"/>
</g>
<!-- Node10 -->
<g id="node10" class="node">
<title>Node10</title>
<g id="a_node10"><a xlink:title=" ">
<polygon fill="white" stroke="#bfbfbf" points="607.5,-0.5 607.5,-21.5 672.5,-21.5 672.5,-0.5 607.5,-0.5"/>
<text text-anchor="middle" x="640" y="-7.9" font-family="DejaVuSans" font-size="12.00">stdbool.h</text>
</a>
</g>
</g>
<!-- Node9&#45;&gt;Node10 -->
<g id="edge10" class="edge">
<title>Node9&#45;&gt;Node10</title>
<path fill="none" stroke="midnightblue" d="M644.95,-58.25C644.17,-50.94 643.07,-40.69 642.11,-31.7"/>
<polygon fill="midnightblue" stroke="midnightblue" points="645.58,-31.21 641.03,-21.64 638.62,-31.96 645.58,-31.21"/>
</g>
<!-- Node11 -->
<g id="node11" class="node">
<title>Node11</title>
<g id="a_node11"><a xlink:title=" ">
<polygon fill="white" stroke="#bfbfbf" points="690.5,-0.5 690.5,-21.5 745.5,-21.5 745.5,-0.5 690.5,-0.5"/>
<text text-anchor="middle" x="718" y="-7.9" font-family="DejaVuSans" font-size="12.00">stdint.h</text>
</a>
</g>
</g>
<!-- Node9&#45;&gt;Node11 -->
<g id="edge11" class="edge">
<title>Node9&#45;&gt;Node11</title>
<path fill="none" stroke="midnightblue" d="M658.54,-58.25C669.28,-49.89 684.95,-37.71 697.5,-27.94"/>
<polygon fill="midnightblue" stroke="midnightblue" points="699.86,-30.54 705.6,-21.64 695.56,-25.02 699.86,-30.54"/>
</g>
<!-- Node12&#45;&gt;Node6 -->
<g id="edge13" class="edge">
<title>Node12&#45;&gt;Node6</title>
<path fill="none" stroke="midnightblue" d="M581.22,-291.25C613.51,-280.21 664.76,-261.75 670,-254 697.29,-213.69 640.96,-167.11 606,-143.47"/>
<polygon fill="midnightblue" stroke="midnightblue" points="607.49,-140.27 597.21,-137.71 603.65,-146.12 607.49,-140.27"/>
</g>
<!-- Node12&#45;&gt;Node13 -->
<g id="edge14" class="edge">
<title>Node12&#45;&gt;Node13</title>
<path fill="none" stroke="midnightblue" d="M552.39,-290.25C550.41,-282.86 547.63,-272.47 545.2,-263.41"/>
<polygon fill="midnightblue" stroke="midnightblue" points="548.55,-262.4 542.58,-253.64 541.79,-264.21 548.55,-262.4"/>
</g>
<!-- Node15 -->
<g id="node15" class="node">
<title>Node15</title>
<g id="a_node15"><a xlink:href="str_8h.html" target="_top" xlink:title=" ">
<polygon fill="white" stroke="black" points="622.5,-232.5 622.5,-253.5 661.5,-253.5 661.5,-232.5 622.5,-232.5"/>
<text text-anchor="middle" x="642" y="-239.9" font-family="DejaVuSans" font-size="12.00">str.h</text>
</a>
</g>
</g>
<!-- Node12&#45;&gt;Node15 -->
<g id="edge18" class="edge">
<title>Node12&#45;&gt;Node15</title>
<path fill="none" stroke="midnightblue" d="M570.15,-290.25C583.5,-281.65 603.16,-269 618.54,-259.1"/>
<polygon fill="midnightblue" stroke="midnightblue" points="620.51,-262 627.02,-253.64 616.72,-256.11 620.51,-262"/>
</g>
<!-- Node13&#45;&gt;Node3 -->
<g id="edge17" class="edge">
<title>Node13&#45;&gt;Node3</title>
<path fill="none" stroke="midnightblue" d="M513.77,-237.32C463.37,-228.33 351.93,-208.46 283.47,-196.25"/>
<polygon fill="midnightblue" stroke="midnightblue" points="283.74,-192.74 273.28,-194.43 282.51,-199.63 283.74,-192.74"/>
</g>
<!-- Node13&#45;&gt;Node6 -->
<g id="edge16" class="edge">
<title>Node13&#45;&gt;Node6</title>
<path fill="none" stroke="midnightblue" d="M537.66,-232.37C534.85,-218.82 531.4,-193.59 539,-174 543.39,-162.69 551.99,-152.46 560.27,-144.54"/>
<polygon fill="midnightblue" stroke="midnightblue" points="562.83,-146.95 567.97,-137.69 558.18,-141.72 562.83,-146.95"/>
</g>
<!-- Node14 -->
<g id="node14" class="node">
<title>Node14</title>
<g id="a_node14"><a xlink:title=" ">
<polygon fill="white" stroke="#bfbfbf" points="402,-174.5 402,-195.5 454,-195.5 454,-174.5 402,-174.5"/>
<text text-anchor="middle" x="428" y="-181.9" font-family="DejaVuSans" font-size="12.00">stdio.h</text>
</a>
</g>
</g>
<!-- Node13&#45;&gt;Node14 -->
<g id="edge15" class="edge">
<title>Node13&#45;&gt;Node14</title>
<path fill="none" stroke="midnightblue" d="M520.75,-232.37C502.93,-223.46 476.23,-210.11 456.04,-200.02"/>
<polygon fill="midnightblue" stroke="midnightblue" points="457.51,-196.84 447,-195.5 454.38,-203.1 457.51,-196.84"/>
</g>
<!-- Node15&#45;&gt;Node6 -->
<g id="edge21" class="edge">
<title>Node15&#45;&gt;Node6</title>
<path fill="none" stroke="midnightblue" d="M640.52,-232.24C638.15,-218.54 632.64,-193.15 622,-174 616.08,-163.34 607.3,-153.05 599.38,-144.92"/>
<polygon fill="midnightblue" stroke="midnightblue" points="601.48,-142.07 591.89,-137.57 596.58,-147.07 601.48,-142.07"/>
</g>
<!-- Node15&#45;&gt;Node11 -->
<g id="edge20" class="edge">
<title>Node15&#45;&gt;Node11</title>
<path fill="none" stroke="midnightblue" d="M645.17,-232.41C656.64,-197.71 696.11,-78.24 711.65,-31.22"/>
<polygon fill="midnightblue" stroke="midnightblue" points="715,-32.22 714.82,-21.63 708.36,-30.03 715,-32.22"/>
</g>
<!-- Node15&#45;&gt;Node14 -->
<g id="edge19" class="edge">
<title>Node15&#45;&gt;Node14</title>
<path fill="none" stroke="midnightblue" d="M622.25,-236.83C586.27,-227.42 509.58,-207.35 464.06,-195.44"/>
<polygon fill="midnightblue" stroke="midnightblue" points="464.85,-192.03 454.29,-192.88 463.08,-198.8 464.85,-192.03"/>
</g>
<!-- Node16 -->
<g id="node16" class="node">
<title>Node16</title>
<g id="a_node16"><a xlink:href="charset_8h.html" target="_top" xlink:title=" ">
<polygon fill="white" stroke="black" points="548.5,-174.5 548.5,-195.5 613.5,-195.5 613.5,-174.5 548.5,-174.5"/>
<text text-anchor="middle" x="581" y="-181.9" font-family="DejaVuSans" font-size="12.00">charset.h</text>
</a>
</g>
</g>
<!-- Node15&#45;&gt;Node16 -->
<g id="edge22" class="edge">
<title>Node15&#45;&gt;Node16</title>
<path fill="none" stroke="midnightblue" d="M631.37,-232.25C622.45,-224.05 609.51,-212.17 598.98,-202.51"/>
<polygon fill="midnightblue" stroke="midnightblue" points="601.24,-199.83 591.5,-195.64 596.5,-204.98 601.24,-199.83"/>
</g>
<!-- Node16&#45;&gt;Node6 -->
<g id="edge23" class="edge">
<title>Node16&#45;&gt;Node6</title>
<path fill="none" stroke="midnightblue" d="M581,-174.25C581,-166.94 581,-156.69 581,-147.7"/>
<polygon fill="midnightblue" stroke="midnightblue" points="584.5,-147.64 581,-137.64 577.5,-147.64 584.5,-147.64"/>
</g>
<!-- Node17&#45;&gt;Node3 -->
<g id="edge26" class="edge">
<title>Node17&#45;&gt;Node3</title>
<path fill="none" stroke="midnightblue" d="M150.85,-232.25C164.81,-223.65 185.37,-211 201.46,-201.1"/>
<polygon fill="midnightblue" stroke="midnightblue" points="203.65,-203.86 210.33,-195.64 199.98,-197.9 203.65,-203.86"/>
</g>
<!-- Node17&#45;&gt;Node6 -->
<g id="edge25" class="edge">
<title>Node17&#45;&gt;Node6</title>
<path fill="none" stroke="midnightblue" d="M136.97,-232.18C140.6,-216.93 149.88,-187.86 170,-174 229.71,-132.85 451.09,-128 541.83,-127.78"/>
<polygon fill="midnightblue" stroke="midnightblue" points="541.97,-131.28 551.97,-127.78 541.97,-124.28 541.97,-131.28"/>
</g>
<!-- Node18&#45;&gt;Node3 -->
<g id="edge29" class="edge">
<title>Node18&#45;&gt;Node3</title>
<path fill="none" stroke="midnightblue" d="M271.42,-232.25C263.45,-224.14 251.94,-212.41 242.49,-202.79"/>
<polygon fill="midnightblue" stroke="midnightblue" points="244.97,-200.32 235.47,-195.64 239.98,-205.23 244.97,-200.32"/>
</g>
<!-- Node18&#45;&gt;Node6 -->
<g id="edge28" class="edge">
<title>Node18&#45;&gt;Node6</title>
<path fill="none" stroke="midnightblue" d="M290.59,-232.46C306.09,-217.6 338.27,-189.07 371,-174 427.07,-148.2 498.32,-136.53 541.75,-131.51"/>
<polygon fill="midnightblue" stroke="midnightblue" points="542.34,-134.97 551.9,-130.4 541.58,-128.01 542.34,-134.97"/>
</g>
<!-- Node19&#45;&gt;Node3 -->
<g id="edge33" class="edge">
<title>Node19&#45;&gt;Node3</title>
<path fill="none" stroke="midnightblue" d="M339.79,-300.88C304.18,-300.47 241.59,-293.72 212,-254 201.47,-239.86 207.54,-219.69 214.68,-204.98"/>
<polygon fill="midnightblue" stroke="midnightblue" points="217.95,-206.29 219.6,-195.82 211.79,-202.97 217.95,-206.29"/>
</g>
<!-- Node19&#45;&gt;Node6 -->
<g id="edge32" class="edge">
<title>Node19&#45;&gt;Node6</title>
<path fill="none" stroke="midnightblue" d="M339.65,-299.54C278.8,-297.87 131.36,-290.09 101,-254 94.71,-246.52 97.73,-241.22 101,-232 112.08,-200.73 118.85,-189.84 148,-174 215.39,-137.37 448.02,-129.91 541.58,-128.39"/>
<polygon fill="midnightblue" stroke="midnightblue" points="541.81,-131.89 551.76,-128.24 541.71,-124.89 541.81,-131.89"/>
</g>
<!-- Node19&#45;&gt;Node14 -->
<g id="edge31" class="edge">
<title>Node19&#45;&gt;Node14</title>
<path fill="none" stroke="midnightblue" d="M371.29,-290.28C381.58,-271.35 404.48,-229.25 417.82,-204.72"/>
<polygon fill="midnightblue" stroke="midnightblue" points="421.02,-206.15 422.73,-195.69 414.87,-202.81 421.02,-206.15"/>
</g>
<!-- Node19&#45;&gt;Node15 -->
<g id="edge34" class="edge">
<title>Node19&#45;&gt;Node15</title>
<path fill="none" stroke="midnightblue" d="M392.15,-294.52C399.24,-293.04 406.91,-291.45 414,-290 485.26,-275.39 569.13,-258.56 612.58,-249.87"/>
<polygon fill="midnightblue" stroke="midnightblue" points="613.35,-253.29 622.47,-247.9 611.98,-246.42 613.35,-253.29"/>
</g>
<!-- Node20 -->
<g id="node20" class="node">
<title>Node20</title>
<g id="a_node20"><a xlink:href="dump_8h.html" target="_top" xlink:title=" ">
<polygon fill="white" stroke="black" points="326,-232.5 326,-253.5 382,-253.5 382,-232.5 326,-232.5"/>
<text text-anchor="middle" x="354" y="-239.9" font-family="DejaVuSans" font-size="12.00">dump.h</text>
</a>
</g>
</g>
<!-- Node19&#45;&gt;Node20 -->
<g id="edge35" class="edge">
<title>Node19&#45;&gt;Node20</title>
<path fill="none" stroke="midnightblue" d="M363.91,-290.25C362.34,-282.94 360.15,-272.69 358.22,-263.7"/>
<polygon fill="midnightblue" stroke="midnightblue" points="361.58,-262.69 356.07,-253.64 354.74,-264.15 361.58,-262.69"/>
</g>
<!-- Node20&#45;&gt;Node6 -->
<g id="edge37" class="edge">
<title>Node20&#45;&gt;Node6</title>
<path fill="none" stroke="midnightblue" d="M356.77,-232.46C361.6,-217.6 372.99,-189.06 393,-174 436.72,-141.11 500.88,-131.45 541.79,-128.77"/>
<polygon fill="midnightblue" stroke="midnightblue" points="542.12,-132.26 551.92,-128.22 541.74,-125.27 542.12,-132.26"/>
</g>
<!-- Node20&#45;&gt;Node14 -->
<g id="edge36" class="edge">
<title>Node20&#45;&gt;Node14</title>
<path fill="none" stroke="midnightblue" d="M366.89,-232.25C377.93,-223.89 394.03,-211.71 406.94,-201.94"/>
<polygon fill="midnightblue" stroke="midnightblue" points="409.4,-204.47 415.26,-195.64 405.17,-198.89 409.4,-204.47"/>
</g>
<!-- Node21&#45;&gt;Node3 -->
<g id="edge42" class="edge">
<title>Node21&#45;&gt;Node3</title>
<path fill="none" stroke="midnightblue" d="M422.77,-294.63C369.12,-283.18 248.26,-257.1 245,-254 232,-241.62 227.65,-221.15 226.32,-205.9"/>
<polygon fill="midnightblue" stroke="midnightblue" points="229.81,-205.71 225.79,-195.91 222.82,-206.07 229.81,-205.71"/>
</g>
<!-- Node21&#45;&gt;Node6 -->
<g id="edge40" class="edge">
<title>Node21&#45;&gt;Node6</title>
<path fill="none" stroke="midnightblue" d="M453.31,-290.28C465.49,-268.36 497.06,-213.91 531,-174 539.98,-163.44 551.26,-152.87 560.83,-144.54"/>
<polygon fill="midnightblue" stroke="midnightblue" points="563.35,-146.99 568.7,-137.84 558.82,-141.66 563.35,-146.99"/>
</g>
<!-- Node21&#45;&gt;Node14 -->
<g id="edge39" class="edge">
<title>Node21&#45;&gt;Node14</title>
<path fill="none" stroke="midnightblue" d="M446.29,-290.28C443.02,-271.6 435.78,-230.37 431.46,-205.72"/>
<polygon fill="midnightblue" stroke="midnightblue" points="434.88,-204.94 429.7,-195.69 427.98,-206.15 434.88,-204.94"/>
</g>
<!-- Node21&#45;&gt;Node15 -->
<g id="edge44" class="edge">
<title>Node21&#45;&gt;Node15</title>
<path fill="none" stroke="midnightblue" d="M473.23,-292.8C504.77,-283.78 560.4,-267.84 608,-254 609.44,-253.58 610.91,-253.15 612.4,-252.72"/>
<polygon fill="midnightblue" stroke="midnightblue" points="613.62,-256.01 622.23,-249.84 611.65,-249.29 613.62,-256.01"/>
</g>
<!-- Node21&#45;&gt;Node16 -->
<g id="edge41" class="edge">
<title>Node21&#45;&gt;Node16</title>
<path fill="none" stroke="midnightblue" d="M473.14,-298.61C502.67,-295.52 550.69,-285.6 575,-254 585.36,-240.53 586,-220.8 584.55,-206.06"/>
<polygon fill="midnightblue" stroke="midnightblue" points="587.99,-205.38 583.17,-195.95 581.06,-206.33 587.99,-205.38"/>
</g>
<!-- Node21&#45;&gt;Node17 -->
<g id="edge43" class="edge">
<title>Node21&#45;&gt;Node17</title>
<path fill="none" stroke="midnightblue" d="M422.67,-294.42C415.66,-292.93 408.04,-291.36 401,-290 318.73,-274.14 221.63,-258 170.55,-249.7"/>
<polygon fill="midnightblue" stroke="midnightblue" points="170.8,-246.2 160.37,-248.05 169.68,-253.11 170.8,-246.2"/>
</g>
<!-- Node22&#45;&gt;Node6 -->
<g id="edge46" class="edge">
<title>Node22&#45;&gt;Node6</title>
<path fill="none" stroke="midnightblue" d="M699.04,-290.39C705.69,-267.26 718.78,-207.88 690,-174 672.31,-153.18 643.59,-141.58 620.06,-135.23"/>
<polygon fill="midnightblue" stroke="midnightblue" points="620.89,-131.83 610.34,-132.83 619.21,-138.63 620.89,-131.83"/>
</g>
<!-- Node22&#45;&gt;Node15 -->
<g id="edge47" class="edge">
<title>Node22&#45;&gt;Node15</title>
<path fill="none" stroke="midnightblue" d="M686.59,-290.25C678.85,-282.22 667.69,-270.64 658.47,-261.08"/>
<polygon fill="midnightblue" stroke="midnightblue" points="660.76,-258.41 651.3,-253.64 655.72,-263.27 660.76,-258.41"/>
</g>
<!-- Node23&#45;&gt;Node6 -->
<g id="edge49" class="edge">
<title>Node23&#45;&gt;Node6</title>
<path fill="none" stroke="midnightblue" d="M647.77,-290.39C662.07,-282.77 679.63,-270.64 688,-254 692.4,-245.27 689.54,-241.66 688,-232 683.72,-205.21 686.53,-194.7 669,-174 656.03,-158.68 636.65,-147.78 619.38,-140.45"/>
<polygon fill="midnightblue" stroke="midnightblue" points="620.64,-137.19 610.05,-136.74 618.05,-143.69 620.64,-137.19"/>
</g>
<!-- Node23&#45;&gt;Node13 -->
<g id="edge50" class="edge">
<title>Node23&#45;&gt;Node13</title>
<path fill="none" stroke="midnightblue" d="M611.02,-290.25C597.82,-281.65 578.39,-269 563.19,-259.1"/>
<polygon fill="midnightblue" stroke="midnightblue" points="565.1,-256.17 554.81,-253.64 561.28,-262.03 565.1,-256.17"/>
</g>
<!-- Node24&#45;&gt;Node6 -->
<g id="edge53" class="edge">
<title>Node24&#45;&gt;Node6</title>
<path fill="none" stroke="midnightblue" d="M824.15,-349.15C871.12,-331.63 962.63,-289.22 937,-232 921.17,-196.67 906.99,-190.58 872,-174 788.68,-134.5 678.4,-127.82 620.45,-127.33"/>
<polygon fill="midnightblue" stroke="midnightblue" points="620.26,-123.83 610.25,-127.3 620.24,-130.83 620.26,-123.83"/>
</g>
<!-- Node25 -->
<g id="node25" class="node">
<title>Node25</title>
<g id="a_node25"><a xlink:href="box_8h.html" target="_top" xlink:title=" ">
<polygon fill="white" stroke="black" points="775,-290.5 775,-311.5 821,-311.5 821,-290.5 775,-290.5"/>
<text text-anchor="middle" x="798" y="-297.9" font-family="DejaVuSans" font-size="12.00">box.h</text>
</a>
</g>
</g>
<!-- Node24&#45;&gt;Node25 -->
<g id="edge54" class="edge">
<title>Node24&#45;&gt;Node25</title>
<path fill="none" stroke="midnightblue" d="M798,-348.25C798,-340.94 798,-330.69 798,-321.7"/>
<polygon fill="midnightblue" stroke="midnightblue" points="801.5,-321.64 798,-311.64 794.5,-321.64 801.5,-321.64"/>
</g>
<!-- Node25&#45;&gt;Node5 -->
<g id="edge57" class="edge">
<title>Node25&#45;&gt;Node5</title>
<path fill="none" stroke="midnightblue" d="M814.72,-290.25C829.59,-281.57 851.55,-268.76 868.59,-258.82"/>
<polygon fill="midnightblue" stroke="midnightblue" points="870.6,-261.7 877.47,-253.64 867.07,-255.66 870.6,-261.7"/>
</g>
<!-- Node25&#45;&gt;Node6 -->
<g id="edge55" class="edge">
<title>Node25&#45;&gt;Node6</title>
<path fill="none" stroke="midnightblue" d="M793.78,-290.26C783.16,-266.83 753.06,-206.86 710,-174 683.52,-153.79 647.39,-141.92 620.1,-135.32"/>
<polygon fill="midnightblue" stroke="midnightblue" points="620.64,-131.86 610.11,-133.04 619.08,-138.68 620.64,-131.86"/>
</g>
<!-- Node25&#45;&gt;Node15 -->
<g id="edge58" class="edge">
<title>Node25&#45;&gt;Node15</title>
<path fill="none" stroke="midnightblue" d="M774.98,-291.74C747.42,-281.84 701.21,-265.26 671.17,-254.47"/>
<polygon fill="midnightblue" stroke="midnightblue" points="672.25,-251.14 661.65,-251.06 669.88,-257.73 672.25,-251.14"/>
</g>
<!-- Node25&#45;&gt;Node18 -->
<g id="edge56" class="edge">
<title>Node25&#45;&gt;Node18</title>
<path fill="none" stroke="midnightblue" d="M774.76,-296.23C761.64,-294.2 744.93,-291.75 730,-290 550.21,-268.96 500.06,-286.17 317.54,-253.77"/>
<polygon fill="midnightblue" stroke="midnightblue" points="318.07,-250.31 307.61,-251.98 316.83,-257.2 318.07,-250.31"/>
</g>
</g>
</svg>
