<?xml version="1.0" encoding="UTF-8" standalone="no"?>
<!DOCTYPE svg PUBLIC "-//W3C//DTD SVG 1.1//EN"
 "http://www.w3.org/Graphics/SVG/1.1/DTD/svg11.dtd">
<!-- Generated by graphviz version 2.44.0 ()
 -->
<!-- Title: pack.h Pages: 1 -->
<svg width="542pt" height="146pt"
 viewBox="0.00 0.00 541.50 146.00" xmlns="http://www.w3.org/2000/svg" xmlns:xlink="http://www.w3.org/1999/xlink">
<g id="graph0" class="graph" transform="scale(1 1) rotate(0) translate(4 142)">
<title>pack.h</title>
<polygon fill="white" stroke="transparent" points="-4,4 -4,-142 537.5,-142 537.5,4 -4,4"/>
<!-- Node1 -->
<g id="node1" class="node">
<title>Node1</title>
<g id="a_node1"><a xlink:title=" ">
<polygon fill="#bfbfbf" stroke="black" points="270.5,-116.5 270.5,-137.5 322.5,-137.5 322.5,-116.5 270.5,-116.5"/>
<text text-anchor="middle" x="296.5" y="-123.9" font-family="DejaVuSans" font-size="12.00">pack.h</text>
</a>
</g>
</g>
<!-- Node2 -->
<g id="node2" class="node">
<title>Node2</title>
<g id="a_node2"><a xlink:href="box__destroy_8c.html" target="_top" xlink:title=" ">
<polygon fill="white" stroke="black" points="0,-58.5 0,-79.5 91,-79.5 91,-58.5 0,-58.5"/>
<text text-anchor="middle" x="45.5" y="-65.9" font-family="DejaVuSans" font-size="12.00">box_destroy.c</text>
</a>
</g>
</g>
<!-- Node1&#45;&gt;Node2 -->
<g id="edge1" class="edge">
<title>Node1&#45;&gt;Node2</title>
<path fill="none" stroke="midnightblue" d="M260.08,-117.87C214.49,-107.7 136.54,-90.31 88.19,-79.53"/>
<polygon fill="midnightblue" stroke="midnightblue" points="259.59,-121.35 270.11,-120.11 261.12,-114.52 259.59,-121.35"/>
</g>
<!-- Node3 -->
<g id="node3" class="node">
<title>Node3</title>
<g id="a_node3"><a xlink:href="math__formula_8c.html" target="_top" xlink:title=" ">
<polygon fill="white" stroke="black" points="109.5,-58.5 109.5,-79.5 207.5,-79.5 207.5,-58.5 109.5,-58.5"/>
<text text-anchor="middle" x="158.5" y="-65.9" font-family="DejaVuSans" font-size="12.00">math_formula.c</text>
</a>
</g>
</g>
<!-- Node1&#45;&gt;Node3 -->
<g id="edge2" class="edge">
<title>Node1&#45;&gt;Node3</title>
<path fill="none" stroke="midnightblue" d="M263.28,-112.52C238.15,-102.32 204.26,-88.57 181.91,-79.5"/>
<polygon fill="midnightblue" stroke="midnightblue" points="262.19,-115.86 272.78,-116.37 264.83,-109.37 262.19,-115.86"/>
</g>
<!-- Node4 -->
<g id="node4" class="node">
<title>Node4</title>
<g id="a_node4"><a xlink:href="mmode_8c.html" target="_top" xlink:title=" ">
<polygon fill="white" stroke="black" points="226,-58.5 226,-79.5 291,-79.5 291,-58.5 226,-58.5"/>
<text text-anchor="middle" x="258.5" y="-65.9" font-family="DejaVuSans" font-size="12.00">mmode.c</text>
</a>
</g>
</g>
<!-- Node1&#45;&gt;Node4 -->
<g id="edge3" class="edge">
<title>Node1&#45;&gt;Node4</title>
<path fill="none" stroke="midnightblue" d="M284.23,-107.92C277.85,-98.52 270.31,-87.4 265.04,-79.64"/>
<polygon fill="midnightblue" stroke="midnightblue" points="281.37,-109.94 289.88,-116.25 287.16,-106.01 281.37,-109.94"/>
</g>
<!-- Node5 -->
<g id="node5" class="node">
<title>Node5</title>
<g id="a_node5"><a xlink:href="pack_8c.html" target="_top" xlink:title=" ">
<polygon fill="white" stroke="black" points="309,-58.5 309,-79.5 360,-79.5 360,-58.5 309,-58.5"/>
<text text-anchor="middle" x="334.5" y="-65.9" font-family="DejaVuSans" font-size="12.00">pack.c</text>
</a>
</g>
</g>
<!-- Node1&#45;&gt;Node5 -->
<g id="edge4" class="edge">
<title>Node1&#45;&gt;Node5</title>
<path fill="none" stroke="midnightblue" d="M308.77,-107.92C315.15,-98.52 322.69,-87.4 327.96,-79.64"/>
<polygon fill="midnightblue" stroke="midnightblue" points="305.84,-106.01 303.12,-116.25 311.63,-109.94 305.84,-106.01"/>
</g>
<!-- Node6 -->
<g id="node6" class="node">
<title>Node6</title>
<g id="a_node6"><a xlink:href="scan_8c.html" target="_top" xlink:title=" ">
<polygon fill="white" stroke="black" points="378,-58.5 378,-79.5 429,-79.5 429,-58.5 378,-58.5"/>
<text text-anchor="middle" x="403.5" y="-65.9" font-family="DejaVuSans" font-size="12.00">scan.c</text>
</a>
</g>
</g>
<!-- Node1&#45;&gt;Node6 -->
<g id="edge5" class="edge">
<title>Node1&#45;&gt;Node6</title>
<path fill="none" stroke="midnightblue" d="M324.02,-111.6C343.2,-101.56 368.27,-88.44 385.08,-79.64"/>
<polygon fill="midnightblue" stroke="midnightblue" points="322.37,-108.51 315.14,-116.25 325.62,-114.71 322.37,-108.51"/>
</g>
<!-- Node7 -->
<g id="node7" class="node">
<title>Node7</title>
<g id="a_node7"><a xlink:href="tex__header_8h.html" target="_top" xlink:title=" ">
<polygon fill="white" stroke="black" points="447.5,-58.5 447.5,-79.5 533.5,-79.5 533.5,-58.5 447.5,-58.5"/>
<text text-anchor="middle" x="490.5" y="-65.9" font-family="DejaVuSans" font-size="12.00">tex_header.h</text>
</a>
</g>
</g>
<!-- Node1&#45;&gt;Node7 -->
<g id="edge6" class="edge">
<title>Node1&#45;&gt;Node7</title>
<path fill="none" stroke="midnightblue" d="M332.67,-115.56C368.41,-105.24 422.62,-89.59 457.3,-79.58"/>
<polygon fill="midnightblue" stroke="midnightblue" points="331.3,-112.31 322.66,-118.45 333.24,-119.04 331.3,-112.31"/>
</g>
<!-- Node8 -->
<g id="node8" class="node">
<title>Node8</title>
<g id="a_node8"><a xlink:href="tex_8c.html" target="_top" xlink:title=" ">
<polygon fill="white" stroke="black" points="470,-0.5 470,-21.5 511,-21.5 511,-0.5 470,-0.5"/>
<text text-anchor="middle" x="490.5" y="-7.9" font-family="DejaVuSans" font-size="12.00">tex.c</text>
</a>
</g>
</g>
<!-- Node7&#45;&gt;Node8 -->
<g id="edge7" class="edge">
<title>Node7&#45;&gt;Node8</title>
<path fill="none" stroke="midnightblue" d="M490.5,-48.16C490.5,-39.16 490.5,-28.92 490.5,-21.64"/>
<polygon fill="midnightblue" stroke="midnightblue" points="487,-48.25 490.5,-58.25 494,-48.25 487,-48.25"/>
</g>
</g>
</svg>
