<?xml version="1.0" encoding="UTF-8" standalone="no"?>
<!DOCTYPE svg PUBLIC "-//W3C//DTD SVG 1.1//EN"
 "http://www.w3.org/Graphics/SVG/1.1/DTD/svg11.dtd">
<!-- Generated by graphviz version 2.44.0 ()
 -->
<!-- Title: page.h Pages: 1 -->
<svg width="364pt" height="262pt"
 viewBox="0.00 0.00 364.00 262.00" xmlns="http://www.w3.org/2000/svg" xmlns:xlink="http://www.w3.org/1999/xlink">
<g id="graph0" class="graph" transform="scale(1 1) rotate(0) translate(4 258)">
<title>page.h</title>
<polygon fill="white" stroke="transparent" points="-4,4 -4,-258 360,-258 360,4 -4,4"/>
<!-- Node1 -->
<g id="node1" class="node">
<title>Node1</title>
<g id="a_node1"><a xlink:title=" ">
<polygon fill="#bfbfbf" stroke="black" points="154.5,-232.5 154.5,-253.5 207.5,-253.5 207.5,-232.5 154.5,-232.5"/>
<text text-anchor="middle" x="181" y="-239.9" font-family="DejaVuSans" font-size="12.00">page.h</text>
</a>
</g>
</g>
<!-- Node2 -->
<g id="node2" class="node">
<title>Node2</title>
<g id="a_node2"><a xlink:href="global_8h.html" target="_top" xlink:title=" ">
<polygon fill="white" stroke="black" points="116,-116.5 116,-137.5 174,-137.5 174,-116.5 116,-116.5"/>
<text text-anchor="middle" x="145" y="-123.9" font-family="DejaVuSans" font-size="12.00">global.h</text>
</a>
</g>
</g>
<!-- Node1&#45;&gt;Node2 -->
<g id="edge1" class="edge">
<title>Node1&#45;&gt;Node2</title>
<path fill="none" stroke="midnightblue" d="M177.93,-232.28C172.01,-213.52 158.89,-172 151.12,-147.38"/>
<polygon fill="midnightblue" stroke="midnightblue" points="154.41,-146.18 148.06,-137.69 147.74,-148.28 154.41,-146.18"/>
</g>
<!-- Node9 -->
<g id="node9" class="node">
<title>Node9</title>
<g id="a_node9"><a xlink:href="lexer_8h.html" target="_top" xlink:title=" ">
<polygon fill="white" stroke="black" points="187,-174.5 187,-195.5 239,-195.5 239,-174.5 187,-174.5"/>
<text text-anchor="middle" x="213" y="-181.9" font-family="DejaVuSans" font-size="12.00">lexer.h</text>
</a>
</g>
</g>
<!-- Node1&#45;&gt;Node9 -->
<g id="edge8" class="edge">
<title>Node1&#45;&gt;Node9</title>
<path fill="none" stroke="midnightblue" d="M186.57,-232.25C190.93,-224.62 197.12,-213.79 202.41,-204.53"/>
<polygon fill="midnightblue" stroke="midnightblue" points="205.57,-206.06 207.49,-195.64 199.49,-202.59 205.57,-206.06"/>
</g>
<!-- Node3 -->
<g id="node3" class="node">
<title>Node3</title>
<g id="a_node3"><a xlink:href="global__macros_8h.html" target="_top" xlink:title=" ">
<polygon fill="white" stroke="black" points="0,-58.5 0,-79.5 104,-79.5 104,-58.5 0,-58.5"/>
<text text-anchor="middle" x="52" y="-65.9" font-family="DejaVuSans" font-size="12.00">global_macros.h</text>
</a>
</g>
</g>
<!-- Node2&#45;&gt;Node3 -->
<g id="edge2" class="edge">
<title>Node2&#45;&gt;Node3</title>
<path fill="none" stroke="midnightblue" d="M128.8,-116.25C114.4,-107.57 93.13,-94.76 76.62,-84.82"/>
<polygon fill="midnightblue" stroke="midnightblue" points="78.39,-81.8 68.01,-79.64 74.78,-87.8 78.39,-81.8"/>
</g>
<!-- Node5 -->
<g id="node5" class="node">
<title>Node5</title>
<g id="a_node5"><a xlink:href="global__const_8h.html" target="_top" xlink:title=" ">
<polygon fill="white" stroke="black" points="247.5,-58.5 247.5,-79.5 340.5,-79.5 340.5,-58.5 247.5,-58.5"/>
<text text-anchor="middle" x="294" y="-65.9" font-family="DejaVuSans" font-size="12.00">global_const.h</text>
</a>
</g>
</g>
<!-- Node2&#45;&gt;Node5 -->
<g id="edge4" class="edge">
<title>Node2&#45;&gt;Node5</title>
<path fill="none" stroke="midnightblue" d="M170.61,-116.37C195.07,-107.18 232.11,-93.26 259.22,-83.07"/>
<polygon fill="midnightblue" stroke="midnightblue" points="260.59,-86.3 268.72,-79.5 258.13,-79.74 260.59,-86.3"/>
</g>
<!-- Node6 -->
<g id="node6" class="node">
<title>Node6</title>
<g id="a_node6"><a xlink:href="tex__types_8h.html" target="_top" xlink:title=" ">
<polygon fill="white" stroke="black" points="122.5,-58.5 122.5,-79.5 199.5,-79.5 199.5,-58.5 122.5,-58.5"/>
<text text-anchor="middle" x="161" y="-65.9" font-family="DejaVuSans" font-size="12.00">tex_types.h</text>
</a>
</g>
</g>
<!-- Node2&#45;&gt;Node6 -->
<g id="edge5" class="edge">
<title>Node2&#45;&gt;Node6</title>
<path fill="none" stroke="midnightblue" d="M147.79,-116.25C149.9,-108.86 152.87,-98.47 155.45,-89.41"/>
<polygon fill="midnightblue" stroke="midnightblue" points="158.86,-90.22 158.24,-79.64 152.13,-88.3 158.86,-90.22"/>
</g>
<!-- Node4 -->
<g id="node4" class="node">
<title>Node4</title>
<g id="a_node4"><a xlink:title=" ">
<polygon fill="white" stroke="#bfbfbf" points="22.5,-0.5 22.5,-21.5 81.5,-21.5 81.5,-0.5 22.5,-0.5"/>
<text text-anchor="middle" x="52" y="-7.9" font-family="DejaVuSans" font-size="12.00">assert.h</text>
</a>
</g>
</g>
<!-- Node3&#45;&gt;Node4 -->
<g id="edge3" class="edge">
<title>Node3&#45;&gt;Node4</title>
<path fill="none" stroke="midnightblue" d="M52,-58.25C52,-50.94 52,-40.69 52,-31.7"/>
<polygon fill="midnightblue" stroke="midnightblue" points="55.5,-31.64 52,-21.64 48.5,-31.64 55.5,-31.64"/>
</g>
<!-- Node7 -->
<g id="node7" class="node">
<title>Node7</title>
<g id="a_node7"><a xlink:title=" ">
<polygon fill="white" stroke="#bfbfbf" points="113.5,-0.5 113.5,-21.5 178.5,-21.5 178.5,-0.5 113.5,-0.5"/>
<text text-anchor="middle" x="146" y="-7.9" font-family="DejaVuSans" font-size="12.00">stdbool.h</text>
</a>
</g>
</g>
<!-- Node6&#45;&gt;Node7 -->
<g id="edge6" class="edge">
<title>Node6&#45;&gt;Node7</title>
<path fill="none" stroke="midnightblue" d="M158.39,-58.25C156.41,-50.86 153.63,-40.47 151.2,-31.41"/>
<polygon fill="midnightblue" stroke="midnightblue" points="154.55,-30.4 148.58,-21.64 147.79,-32.21 154.55,-30.4"/>
</g>
<!-- Node8 -->
<g id="node8" class="node">
<title>Node8</title>
<g id="a_node8"><a xlink:title=" ">
<polygon fill="white" stroke="#bfbfbf" points="196.5,-0.5 196.5,-21.5 251.5,-21.5 251.5,-0.5 196.5,-0.5"/>
<text text-anchor="middle" x="224" y="-7.9" font-family="DejaVuSans" font-size="12.00">stdint.h</text>
</a>
</g>
</g>
<!-- Node6&#45;&gt;Node8 -->
<g id="edge7" class="edge">
<title>Node6&#45;&gt;Node8</title>
<path fill="none" stroke="midnightblue" d="M171.97,-58.25C181.19,-50.05 194.55,-38.17 205.43,-28.51"/>
<polygon fill="midnightblue" stroke="midnightblue" points="208,-30.9 213.15,-21.64 203.35,-25.67 208,-30.9"/>
</g>
<!-- Node9&#45;&gt;Node2 -->
<g id="edge10" class="edge">
<title>Node9&#45;&gt;Node2</title>
<path fill="none" stroke="midnightblue" d="M201.16,-174.25C191.11,-165.97 176.5,-153.94 164.7,-144.22"/>
<polygon fill="midnightblue" stroke="midnightblue" points="166.65,-141.3 156.71,-137.64 162.2,-146.7 166.65,-141.3"/>
</g>
<!-- Node10 -->
<g id="node10" class="node">
<title>Node10</title>
<g id="a_node10"><a xlink:title=" ">
<polygon fill="white" stroke="#bfbfbf" points="192,-116.5 192,-137.5 244,-137.5 244,-116.5 192,-116.5"/>
<text text-anchor="middle" x="218" y="-123.9" font-family="DejaVuSans" font-size="12.00">stdio.h</text>
</a>
</g>
</g>
<!-- Node9&#45;&gt;Node10 -->
<g id="edge9" class="edge">
<title>Node9&#45;&gt;Node10</title>
<path fill="none" stroke="midnightblue" d="M213.87,-174.25C214.52,-166.94 215.44,-156.69 216.24,-147.7"/>
<polygon fill="midnightblue" stroke="midnightblue" points="219.74,-147.91 217.14,-137.64 212.76,-147.29 219.74,-147.91"/>
</g>
<!-- Node11 -->
<g id="node11" class="node">
<title>Node11</title>
<g id="a_node11"><a xlink:href="tex__constant_8h.html" target="_top" xlink:title=" ">
<polygon fill="white" stroke="black" points="262,-116.5 262,-137.5 356,-137.5 356,-116.5 262,-116.5"/>
<text text-anchor="middle" x="309" y="-123.9" font-family="DejaVuSans" font-size="12.00">tex_constant.h</text>
</a>
</g>
</g>
<!-- Node9&#45;&gt;Node11 -->
<g id="edge11" class="edge">
<title>Node9&#45;&gt;Node11</title>
<path fill="none" stroke="midnightblue" d="M229.72,-174.25C244.59,-165.57 266.55,-152.76 283.59,-142.82"/>
<polygon fill="midnightblue" stroke="midnightblue" points="285.6,-145.7 292.47,-137.64 282.07,-139.66 285.6,-145.7"/>
</g>
<!-- Node11&#45;&gt;Node5 -->
<g id="edge12" class="edge">
<title>Node11&#45;&gt;Node5</title>
<path fill="none" stroke="midnightblue" d="M306.39,-116.25C304.41,-108.86 301.63,-98.47 299.2,-89.41"/>
<polygon fill="midnightblue" stroke="midnightblue" points="302.55,-88.4 296.58,-79.64 295.79,-90.21 302.55,-88.4"/>
</g>
</g>
</svg>
