<?xml version="1.0" encoding="UTF-8" standalone="no"?>
<!DOCTYPE svg PUBLIC "-//W3C//DTD SVG 1.1//EN"
 "http://www.w3.org/Graphics/SVG/1.1/DTD/svg11.dtd">
<!-- Generated by graphviz version 2.44.0 ()
 -->
<!-- Title: pagebreak.c Pages: 1 -->
<svg width="997pt" height="436pt"
 viewBox="0.00 0.00 996.99 436.00" xmlns="http://www.w3.org/2000/svg" xmlns:xlink="http://www.w3.org/1999/xlink">
<g id="graph0" class="graph" transform="scale(1 1) rotate(0) translate(4 432)">
<title>pagebreak.c</title>
<polygon fill="white" stroke="transparent" points="-4,4 -4,-432 992.99,-432 992.99,4 -4,4"/>
<!-- Node1 -->
<g id="node1" class="node">
<title>Node1</title>
<g id="a_node1"><a xlink:title=" ">
<polygon fill="#bfbfbf" stroke="black" points="623.99,-406.5 623.99,-427.5 706.99,-427.5 706.99,-406.5 623.99,-406.5"/>
<text text-anchor="middle" x="665.49" y="-413.9" font-family="DejaVuSans" font-size="12.00">pagebreak.c</text>
</a>
</g>
</g>
<!-- Node2 -->
<g id="node2" class="node">
<title>Node2</title>
<g id="a_node2"><a xlink:href="mem_8h.html" target="_top" xlink:title=" ">
<polygon fill="white" stroke="black" points="740.99,-232.5 740.99,-253.5 793.99,-253.5 793.99,-232.5 740.99,-232.5"/>
<text text-anchor="middle" x="767.49" y="-239.9" font-family="DejaVuSans" font-size="12.00">mem.h</text>
</a>
</g>
</g>
<!-- Node1&#45;&gt;Node2 -->
<g id="edge1" class="edge">
<title>Node1&#45;&gt;Node2</title>
<path fill="none" stroke="midnightblue" d="M671.26,-406.26C687.67,-378.59 734.78,-299.15 756.4,-262.7"/>
<polygon fill="midnightblue" stroke="midnightblue" points="759.68,-264.02 761.78,-253.63 753.66,-260.45 759.68,-264.02"/>
</g>
<!-- Node11 -->
<g id="node11" class="node">
<title>Node11</title>
<g id="a_node11"><a xlink:href="eqtb_8h.html" target="_top" xlink:title=" ">
<polygon fill="white" stroke="black" points="634.49,-232.5 634.49,-253.5 684.49,-253.5 684.49,-232.5 634.49,-232.5"/>
<text text-anchor="middle" x="659.49" y="-239.9" font-family="DejaVuSans" font-size="12.00">eqtb.h</text>
</a>
</g>
</g>
<!-- Node1&#45;&gt;Node11 -->
<g id="edge10" class="edge">
<title>Node1&#45;&gt;Node11</title>
<path fill="none" stroke="midnightblue" d="M665.74,-406.19C666.23,-384.97 667,-333.24 664.49,-290 663.99,-281.4 663.03,-271.93 662.08,-263.83"/>
<polygon fill="midnightblue" stroke="midnightblue" points="665.55,-263.34 660.85,-253.85 658.6,-264.2 665.55,-263.34"/>
</g>
<!-- Node12 -->
<g id="node12" class="node">
<title>Node12</title>
<g id="a_node12"><a xlink:href="linebreak_8h.html" target="_top" xlink:title=" ">
<polygon fill="white" stroke="black" points="913.99,-348.5 913.99,-369.5 988.99,-369.5 988.99,-348.5 913.99,-348.5"/>
<text text-anchor="middle" x="951.49" y="-355.9" font-family="DejaVuSans" font-size="12.00">linebreak.h</text>
</a>
</g>
</g>
<!-- Node1&#45;&gt;Node12 -->
<g id="edge13" class="edge">
<title>Node1&#45;&gt;Node12</title>
<path fill="none" stroke="midnightblue" d="M707.08,-407.86C759.43,-397.6 849.16,-380.04 904.12,-369.28"/>
<polygon fill="midnightblue" stroke="midnightblue" points="904.81,-372.71 913.96,-367.35 903.47,-365.84 904.81,-372.71"/>
</g>
<!-- Node13 -->
<g id="node13" class="node">
<title>Node13</title>
<g id="a_node13"><a xlink:href="pack_8h.html" target="_top" xlink:title=" ">
<polygon fill="white" stroke="black" points="750.49,-348.5 750.49,-369.5 802.49,-369.5 802.49,-348.5 750.49,-348.5"/>
<text text-anchor="middle" x="776.49" y="-355.9" font-family="DejaVuSans" font-size="12.00">pack.h</text>
</a>
</g>
</g>
<!-- Node1&#45;&gt;Node13 -->
<g id="edge15" class="edge">
<title>Node1&#45;&gt;Node13</title>
<path fill="none" stroke="midnightblue" d="M684.57,-406.37C702.23,-397.46 728.69,-384.11 748.7,-374.02"/>
<polygon fill="midnightblue" stroke="midnightblue" points="750.3,-377.13 757.66,-369.5 747.15,-370.88 750.3,-377.13"/>
</g>
<!-- Node15 -->
<g id="node15" class="node">
<title>Node15</title>
<g id="a_node15"><a xlink:href="texmath_8h.html" target="_top" xlink:title=" ">
<polygon fill="white" stroke="black" points="850.49,-232.5 850.49,-253.5 918.49,-253.5 918.49,-232.5 850.49,-232.5"/>
<text text-anchor="middle" x="884.49" y="-239.9" font-family="DejaVuSans" font-size="12.00">texmath.h</text>
</a>
</g>
</g>
<!-- Node1&#45;&gt;Node15 -->
<g id="edge41" class="edge">
<title>Node1&#45;&gt;Node15</title>
<path fill="none" stroke="midnightblue" d="M707.07,-411.14C738.57,-405.65 781.41,-394.09 811.49,-370 846.85,-341.67 868.47,-291.26 878.27,-263.56"/>
<polygon fill="midnightblue" stroke="midnightblue" points="881.67,-264.43 881.55,-253.84 875.04,-262.2 881.67,-264.43"/>
</g>
<!-- Node19 -->
<g id="node19" class="node">
<title>Node19</title>
<g id="a_node19"><a xlink:href="print_8h.html" target="_top" xlink:title=" ">
<polygon fill="white" stroke="black" points="474.49,-290.5 474.49,-311.5 524.49,-311.5 524.49,-290.5 474.49,-290.5"/>
<text text-anchor="middle" x="499.49" y="-297.9" font-family="DejaVuSans" font-size="12.00">print.h</text>
</a>
</g>
</g>
<!-- Node1&#45;&gt;Node19 -->
<g id="edge28" class="edge">
<title>Node1&#45;&gt;Node19</title>
<path fill="none" stroke="midnightblue" d="M635.85,-406.4C614.31,-398.58 585.09,-386.2 562.49,-370 542.8,-355.89 524.5,-334.88 512.74,-319.95"/>
<polygon fill="midnightblue" stroke="midnightblue" points="515.48,-317.77 506.62,-311.96 509.93,-322.03 515.48,-317.77"/>
</g>
<!-- Node20 -->
<g id="node20" class="node">
<title>Node20</title>
<g id="a_node20"><a xlink:href="error_8h.html" target="_top" xlink:title=" ">
<polygon fill="white" stroke="black" points="604.99,-290.5 604.99,-311.5 655.99,-311.5 655.99,-290.5 604.99,-290.5"/>
<text text-anchor="middle" x="630.49" y="-297.9" font-family="DejaVuSans" font-size="12.00">error.h</text>
</a>
</g>
</g>
<!-- Node1&#45;&gt;Node20 -->
<g id="edge35" class="edge">
<title>Node1&#45;&gt;Node20</title>
<path fill="none" stroke="midnightblue" d="M662.5,-406.28C656.74,-387.52 644,-346 636.44,-321.38"/>
<polygon fill="midnightblue" stroke="midnightblue" points="639.75,-320.23 633.46,-311.69 633.05,-322.28 639.75,-320.23"/>
</g>
<!-- Node21 -->
<g id="node21" class="node">
<title>Node21</title>
<g id="a_node21"><a xlink:href="expand_8h.html" target="_top" xlink:title=" ">
<polygon fill="white" stroke="black" points="550.49,-232.5 550.49,-253.5 616.49,-253.5 616.49,-232.5 550.49,-232.5"/>
<text text-anchor="middle" x="583.49" y="-239.9" font-family="DejaVuSans" font-size="12.00">expand.h</text>
</a>
</g>
</g>
<!-- Node1&#45;&gt;Node21 -->
<g id="edge38" class="edge">
<title>Node1&#45;&gt;Node21</title>
<path fill="none" stroke="midnightblue" d="M657.01,-406.47C642.03,-389.06 610.96,-350.35 595.49,-312 589.25,-296.54 586.25,-277.81 584.81,-263.93"/>
<polygon fill="midnightblue" stroke="midnightblue" points="588.26,-263.25 583.93,-253.58 581.29,-263.84 588.26,-263.25"/>
</g>
<!-- Node22 -->
<g id="node22" class="node">
<title>Node22</title>
<g id="a_node22"><a xlink:href="mmode_8h.html" target="_top" xlink:title=" ">
<polygon fill="white" stroke="black" points="299.49,-348.5 299.49,-369.5 365.49,-369.5 365.49,-348.5 299.49,-348.5"/>
<text text-anchor="middle" x="332.49" y="-355.9" font-family="DejaVuSans" font-size="12.00">mmode.h</text>
</a>
</g>
</g>
<!-- Node1&#45;&gt;Node22 -->
<g id="edge42" class="edge">
<title>Node1&#45;&gt;Node22</title>
<path fill="none" stroke="midnightblue" d="M623.99,-409.02C560.73,-398.38 440.76,-378.21 376.21,-367.35"/>
<polygon fill="midnightblue" stroke="midnightblue" points="376.4,-363.84 365.96,-365.63 375.24,-370.74 376.4,-363.84"/>
</g>
<!-- Node27 -->
<g id="node27" class="node">
<title>Node27</title>
<g id="a_node27"><a xlink:href="page_8h.html" target="_top" xlink:title=" ">
<polygon fill="white" stroke="black" points="110.99,-290.5 110.99,-311.5 163.99,-311.5 163.99,-290.5 110.99,-290.5"/>
<text text-anchor="middle" x="137.49" y="-297.9" font-family="DejaVuSans" font-size="12.00">page.h</text>
</a>
</g>
</g>
<!-- Node1&#45;&gt;Node27 -->
<g id="edge62" class="edge">
<title>Node1&#45;&gt;Node27</title>
<path fill="none" stroke="midnightblue" d="M623.93,-414.9C553.92,-412.16 408.54,-402.69 290.49,-370 243.98,-357.12 193.44,-332.34 163.66,-316.52"/>
<polygon fill="midnightblue" stroke="midnightblue" points="165.22,-313.38 154.76,-311.72 161.9,-319.55 165.22,-313.38"/>
</g>
<!-- Node3 -->
<g id="node3" class="node">
<title>Node3</title>
<g id="a_node3"><a xlink:href="global_8h.html" target="_top" xlink:title=" ">
<polygon fill="white" stroke="black" points="471.49,-116.5 471.49,-137.5 529.49,-137.5 529.49,-116.5 471.49,-116.5"/>
<text text-anchor="middle" x="500.49" y="-123.9" font-family="DejaVuSans" font-size="12.00">global.h</text>
</a>
</g>
</g>
<!-- Node2&#45;&gt;Node3 -->
<g id="edge2" class="edge">
<title>Node2&#45;&gt;Node3</title>
<path fill="none" stroke="midnightblue" d="M764.5,-232.36C759.33,-217.36 747.21,-188.62 726.49,-174 696.84,-153.08 595.92,-138.73 539.49,-132.13"/>
<polygon fill="midnightblue" stroke="midnightblue" points="539.83,-128.64 529.49,-130.99 539.03,-135.6 539.83,-128.64"/>
</g>
<!-- Node10 -->
<g id="node10" class="node">
<title>Node10</title>
<g id="a_node10"><a xlink:href="tex__constant_8h.html" target="_top" xlink:title=" ">
<polygon fill="white" stroke="black" points="402.49,-174.5 402.49,-195.5 496.49,-195.5 496.49,-174.5 402.49,-174.5"/>
<text text-anchor="middle" x="449.49" y="-181.9" font-family="DejaVuSans" font-size="12.00">tex_constant.h</text>
</a>
</g>
</g>
<!-- Node2&#45;&gt;Node10 -->
<g id="edge9" class="edge">
<title>Node2&#45;&gt;Node10</title>
<path fill="none" stroke="midnightblue" d="M740.92,-237.32C689.56,-228.28 575.61,-208.21 506.4,-196.02"/>
<polygon fill="midnightblue" stroke="midnightblue" points="506.98,-192.57 496.52,-194.28 505.76,-199.46 506.98,-192.57"/>
</g>
<!-- Node4 -->
<g id="node4" class="node">
<title>Node4</title>
<g id="a_node4"><a xlink:href="global__macros_8h.html" target="_top" xlink:title=" ">
<polygon fill="white" stroke="black" points="534.49,-58.5 534.49,-79.5 638.49,-79.5 638.49,-58.5 534.49,-58.5"/>
<text text-anchor="middle" x="586.49" y="-65.9" font-family="DejaVuSans" font-size="12.00">global_macros.h</text>
</a>
</g>
</g>
<!-- Node3&#45;&gt;Node4 -->
<g id="edge3" class="edge">
<title>Node3&#45;&gt;Node4</title>
<path fill="none" stroke="midnightblue" d="M515.47,-116.25C528.66,-107.65 548.09,-95 563.3,-85.1"/>
<polygon fill="midnightblue" stroke="midnightblue" points="565.21,-88.03 571.68,-79.64 561.39,-82.17 565.21,-88.03"/>
</g>
<!-- Node6 -->
<g id="node6" class="node">
<title>Node6</title>
<g id="a_node6"><a xlink:href="global__const_8h.html" target="_top" xlink:title=" ">
<polygon fill="white" stroke="black" points="327.99,-58.5 327.99,-79.5 420.99,-79.5 420.99,-58.5 327.99,-58.5"/>
<text text-anchor="middle" x="374.49" y="-65.9" font-family="DejaVuSans" font-size="12.00">global_const.h</text>
</a>
</g>
</g>
<!-- Node3&#45;&gt;Node6 -->
<g id="edge5" class="edge">
<title>Node3&#45;&gt;Node6</title>
<path fill="none" stroke="midnightblue" d="M478.83,-116.37C458.51,-107.34 427.92,-93.75 405.11,-83.61"/>
<polygon fill="midnightblue" stroke="midnightblue" points="406.43,-80.36 395.87,-79.5 403.58,-86.76 406.43,-80.36"/>
</g>
<!-- Node7 -->
<g id="node7" class="node">
<title>Node7</title>
<g id="a_node7"><a xlink:href="tex__types_8h.html" target="_top" xlink:title=" ">
<polygon fill="white" stroke="black" points="438.99,-58.5 438.99,-79.5 515.99,-79.5 515.99,-58.5 438.99,-58.5"/>
<text text-anchor="middle" x="477.49" y="-65.9" font-family="DejaVuSans" font-size="12.00">tex_types.h</text>
</a>
</g>
</g>
<!-- Node3&#45;&gt;Node7 -->
<g id="edge6" class="edge">
<title>Node3&#45;&gt;Node7</title>
<path fill="none" stroke="midnightblue" d="M496.48,-116.25C493.41,-108.78 489.09,-98.24 485.34,-89.11"/>
<polygon fill="midnightblue" stroke="midnightblue" points="488.49,-87.56 481.45,-79.64 482.01,-90.22 488.49,-87.56"/>
</g>
<!-- Node5 -->
<g id="node5" class="node">
<title>Node5</title>
<g id="a_node5"><a xlink:title=" ">
<polygon fill="white" stroke="#bfbfbf" points="556.99,-0.5 556.99,-21.5 615.99,-21.5 615.99,-0.5 556.99,-0.5"/>
<text text-anchor="middle" x="586.49" y="-7.9" font-family="DejaVuSans" font-size="12.00">assert.h</text>
</a>
</g>
</g>
<!-- Node4&#45;&gt;Node5 -->
<g id="edge4" class="edge">
<title>Node4&#45;&gt;Node5</title>
<path fill="none" stroke="midnightblue" d="M586.49,-58.25C586.49,-50.94 586.49,-40.69 586.49,-31.7"/>
<polygon fill="midnightblue" stroke="midnightblue" points="589.99,-31.64 586.49,-21.64 582.99,-31.64 589.99,-31.64"/>
</g>
<!-- Node8 -->
<g id="node8" class="node">
<title>Node8</title>
<g id="a_node8"><a xlink:title=" ">
<polygon fill="white" stroke="#bfbfbf" points="444.99,-0.5 444.99,-21.5 509.99,-21.5 509.99,-0.5 444.99,-0.5"/>
<text text-anchor="middle" x="477.49" y="-7.9" font-family="DejaVuSans" font-size="12.00">stdbool.h</text>
</a>
</g>
</g>
<!-- Node7&#45;&gt;Node8 -->
<g id="edge7" class="edge">
<title>Node7&#45;&gt;Node8</title>
<path fill="none" stroke="midnightblue" d="M477.49,-58.25C477.49,-50.94 477.49,-40.69 477.49,-31.7"/>
<polygon fill="midnightblue" stroke="midnightblue" points="480.99,-31.64 477.49,-21.64 473.99,-31.64 480.99,-31.64"/>
</g>
<!-- Node9 -->
<g id="node9" class="node">
<title>Node9</title>
<g id="a_node9"><a xlink:title=" ">
<polygon fill="white" stroke="#bfbfbf" points="321.99,-0.5 321.99,-21.5 376.99,-21.5 376.99,-0.5 321.99,-0.5"/>
<text text-anchor="middle" x="349.49" y="-7.9" font-family="DejaVuSans" font-size="12.00">stdint.h</text>
</a>
</g>
</g>
<!-- Node7&#45;&gt;Node9 -->
<g id="edge8" class="edge">
<title>Node7&#45;&gt;Node9</title>
<path fill="none" stroke="midnightblue" d="M455.48,-58.37C434.84,-49.34 403.77,-35.75 380.6,-25.61"/>
<polygon fill="midnightblue" stroke="midnightblue" points="381.77,-22.3 371.21,-21.5 378.96,-28.72 381.77,-22.3"/>
</g>
<!-- Node11&#45;&gt;Node3 -->
<g id="edge11" class="edge">
<title>Node11&#45;&gt;Node3</title>
<path fill="none" stroke="midnightblue" d="M646.21,-232.48C618.8,-212.83 555.76,-167.63 522.29,-143.63"/>
<polygon fill="midnightblue" stroke="midnightblue" points="524.24,-140.72 514.07,-137.74 520.16,-146.41 524.24,-140.72"/>
</g>
<!-- Node11&#45;&gt;Node10 -->
<g id="edge12" class="edge">
<title>Node11&#45;&gt;Node10</title>
<path fill="none" stroke="midnightblue" d="M634.26,-234.49C631.31,-233.64 628.33,-232.79 625.49,-232 582.28,-220 532.86,-207.16 497.41,-198.11"/>
<polygon fill="midnightblue" stroke="midnightblue" points="497.9,-194.62 487.34,-195.54 496.17,-201.4 497.9,-194.62"/>
</g>
<!-- Node12&#45;&gt;Node3 -->
<g id="edge14" class="edge">
<title>Node12&#45;&gt;Node3</title>
<path fill="none" stroke="midnightblue" d="M952.92,-348.41C955.75,-326.75 960.47,-272.8 944.49,-232 932.28,-200.85 925.89,-189.97 896.49,-174 835.49,-140.87 626.94,-131.42 539.53,-128.88"/>
<polygon fill="midnightblue" stroke="midnightblue" points="539.58,-125.38 529.49,-128.6 539.39,-132.37 539.58,-125.38"/>
</g>
<!-- Node13&#45;&gt;Node3 -->
<g id="edge16" class="edge">
<title>Node13&#45;&gt;Node3</title>
<path fill="none" stroke="midnightblue" d="M802.76,-350.3C852.85,-334.06 954.7,-292.76 927.49,-232 911.66,-196.67 897.72,-190.05 862.49,-174 805.66,-148.11 621.67,-134.82 540.08,-130.07"/>
<polygon fill="midnightblue" stroke="midnightblue" points="539.91,-126.56 529.73,-129.48 539.51,-133.54 539.91,-126.56"/>
</g>
<!-- Node14 -->
<g id="node14" class="node">
<title>Node14</title>
<g id="a_node14"><a xlink:href="box_8h.html" target="_top" xlink:title=" ">
<polygon fill="white" stroke="black" points="752.49,-290.5 752.49,-311.5 798.49,-311.5 798.49,-290.5 752.49,-290.5"/>
<text text-anchor="middle" x="775.49" y="-297.9" font-family="DejaVuSans" font-size="12.00">box.h</text>
</a>
</g>
</g>
<!-- Node13&#45;&gt;Node14 -->
<g id="edge17" class="edge">
<title>Node13&#45;&gt;Node14</title>
<path fill="none" stroke="midnightblue" d="M776.31,-348.25C776.18,-340.94 776,-330.69 775.84,-321.7"/>
<polygon fill="midnightblue" stroke="midnightblue" points="779.34,-321.58 775.66,-311.64 772.34,-321.7 779.34,-321.58"/>
</g>
<!-- Node14&#45;&gt;Node2 -->
<g id="edge19" class="edge">
<title>Node14&#45;&gt;Node2</title>
<path fill="none" stroke="midnightblue" d="M774.09,-290.25C773.05,-282.94 771.59,-272.69 770.3,-263.7"/>
<polygon fill="midnightblue" stroke="midnightblue" points="773.74,-263.05 768.87,-253.64 766.82,-264.04 773.74,-263.05"/>
</g>
<!-- Node14&#45;&gt;Node3 -->
<g id="edge18" class="edge">
<title>Node14&#45;&gt;Node3</title>
<path fill="none" stroke="midnightblue" d="M784.06,-290.36C794.66,-277.21 810.38,-252.92 802.49,-232 790.38,-199.88 781.36,-190.92 751.49,-174 684.05,-135.8 591.56,-128.33 539.76,-127.43"/>
<polygon fill="midnightblue" stroke="midnightblue" points="539.69,-123.92 529.65,-127.32 539.62,-130.92 539.69,-123.92"/>
</g>
<!-- Node14&#45;&gt;Node15 -->
<g id="edge20" class="edge">
<title>Node14&#45;&gt;Node15</title>
<path fill="none" stroke="midnightblue" d="M794.47,-290.25C811.67,-281.41 837.21,-268.29 856.7,-258.28"/>
<polygon fill="midnightblue" stroke="midnightblue" points="858.42,-261.33 865.72,-253.64 855.23,-255.1 858.42,-261.33"/>
</g>
<!-- Node16 -->
<g id="node16" class="node">
<title>Node16</title>
<g id="a_node16"><a xlink:href="str_8h.html" target="_top" xlink:title=" ">
<polygon fill="white" stroke="black" points="264.99,-232.5 264.99,-253.5 303.99,-253.5 303.99,-232.5 264.99,-232.5"/>
<text text-anchor="middle" x="284.49" y="-239.9" font-family="DejaVuSans" font-size="12.00">str.h</text>
</a>
</g>
</g>
<!-- Node14&#45;&gt;Node16 -->
<g id="edge22" class="edge">
<title>Node14&#45;&gt;Node16</title>
<path fill="none" stroke="midnightblue" d="M752.46,-297.37C672.12,-288.21 404.18,-257.65 314.23,-247.39"/>
<polygon fill="midnightblue" stroke="midnightblue" points="314.5,-243.9 304.17,-246.24 313.71,-250.86 314.5,-243.9"/>
</g>
<!-- Node15&#45;&gt;Node3 -->
<g id="edge21" class="edge">
<title>Node15&#45;&gt;Node3</title>
<path fill="none" stroke="midnightblue" d="M880.63,-232.17C874.07,-216.9 859.21,-187.81 836.49,-174 787.35,-144.14 617.61,-133.07 539.9,-129.5"/>
<polygon fill="midnightblue" stroke="midnightblue" points="539.71,-125.98 529.56,-129.04 539.4,-132.98 539.71,-125.98"/>
</g>
<!-- Node16&#45;&gt;Node3 -->
<g id="edge25" class="edge">
<title>Node16&#45;&gt;Node3</title>
<path fill="none" stroke="midnightblue" d="M285.26,-232.05C286.97,-217.17 292.39,-189.22 309.49,-174 331.67,-154.26 412.03,-140.09 461.17,-133.05"/>
<polygon fill="midnightblue" stroke="midnightblue" points="461.73,-136.5 471.15,-131.65 460.76,-129.57 461.73,-136.5"/>
</g>
<!-- Node16&#45;&gt;Node9 -->
<g id="edge24" class="edge">
<title>Node16&#45;&gt;Node9</title>
<path fill="none" stroke="midnightblue" d="M284.75,-232.37C285.82,-204.29 291.24,-120.54 318.49,-58 322.84,-48.02 329.39,-37.87 335.36,-29.67"/>
<polygon fill="midnightblue" stroke="midnightblue" points="338.21,-31.7 341.47,-21.61 332.63,-27.47 338.21,-31.7"/>
</g>
<!-- Node17 -->
<g id="node17" class="node">
<title>Node17</title>
<g id="a_node17"><a xlink:title=" ">
<polygon fill="white" stroke="#bfbfbf" points="172.49,-174.5 172.49,-195.5 224.49,-195.5 224.49,-174.5 172.49,-174.5"/>
<text text-anchor="middle" x="198.49" y="-181.9" font-family="DejaVuSans" font-size="12.00">stdio.h</text>
</a>
</g>
</g>
<!-- Node16&#45;&gt;Node17 -->
<g id="edge23" class="edge">
<title>Node16&#45;&gt;Node17</title>
<path fill="none" stroke="midnightblue" d="M269.51,-232.25C256.31,-223.65 236.88,-211 221.68,-201.1"/>
<polygon fill="midnightblue" stroke="midnightblue" points="223.59,-198.17 213.3,-195.64 219.77,-204.03 223.59,-198.17"/>
</g>
<!-- Node18 -->
<g id="node18" class="node">
<title>Node18</title>
<g id="a_node18"><a xlink:href="charset_8h.html" target="_top" xlink:title=" ">
<polygon fill="white" stroke="black" points="318.99,-174.5 318.99,-195.5 383.99,-195.5 383.99,-174.5 318.99,-174.5"/>
<text text-anchor="middle" x="351.49" y="-181.9" font-family="DejaVuSans" font-size="12.00">charset.h</text>
</a>
</g>
</g>
<!-- Node16&#45;&gt;Node18 -->
<g id="edge26" class="edge">
<title>Node16&#45;&gt;Node18</title>
<path fill="none" stroke="midnightblue" d="M296.16,-232.25C306.05,-223.97 320.45,-211.94 332.08,-202.22"/>
<polygon fill="midnightblue" stroke="midnightblue" points="334.52,-204.74 339.95,-195.64 330.03,-199.37 334.52,-204.74"/>
</g>
<!-- Node18&#45;&gt;Node3 -->
<g id="edge27" class="edge">
<title>Node18&#45;&gt;Node3</title>
<path fill="none" stroke="midnightblue" d="M377.1,-174.37C401.56,-165.18 438.59,-151.26 465.71,-141.07"/>
<polygon fill="midnightblue" stroke="midnightblue" points="467.08,-144.3 475.21,-137.5 464.62,-137.74 467.08,-144.3"/>
</g>
<!-- Node19&#45;&gt;Node3 -->
<g id="edge30" class="edge">
<title>Node19&#45;&gt;Node3</title>
<path fill="none" stroke="midnightblue" d="M500.63,-290.2C502.96,-268.99 507.83,-217.3 505.49,-174 505.02,-165.4 504.07,-155.93 503.12,-147.83"/>
<polygon fill="midnightblue" stroke="midnightblue" points="506.58,-147.33 501.87,-137.85 499.64,-148.2 506.58,-147.33"/>
</g>
<!-- Node19&#45;&gt;Node10 -->
<g id="edge32" class="edge">
<title>Node19&#45;&gt;Node10</title>
<path fill="none" stroke="midnightblue" d="M495.23,-290.28C486.96,-271.43 468.62,-229.62 457.84,-205.05"/>
<polygon fill="midnightblue" stroke="midnightblue" points="460.96,-203.45 453.74,-195.69 454.55,-206.26 460.96,-203.45"/>
</g>
<!-- Node19&#45;&gt;Node11 -->
<g id="edge33" class="edge">
<title>Node19&#45;&gt;Node11</title>
<path fill="none" stroke="midnightblue" d="M524.84,-291.13C551.76,-281.71 594.48,-266.75 624.58,-256.22"/>
<polygon fill="midnightblue" stroke="midnightblue" points="625.97,-259.44 634.25,-252.83 623.66,-252.83 625.97,-259.44"/>
</g>
<!-- Node19&#45;&gt;Node16 -->
<g id="edge34" class="edge">
<title>Node19&#45;&gt;Node16</title>
<path fill="none" stroke="midnightblue" d="M474.4,-293.47C434.39,-283.04 356.31,-262.71 313.79,-251.63"/>
<polygon fill="midnightblue" stroke="midnightblue" points="314.6,-248.23 304.04,-249.09 312.83,-255 314.6,-248.23"/>
</g>
<!-- Node19&#45;&gt;Node17 -->
<g id="edge29" class="edge">
<title>Node19&#45;&gt;Node17</title>
<path fill="none" stroke="midnightblue" d="M474.39,-300.66C427.92,-300.76 326.72,-295.71 255.49,-254 235.23,-242.14 218.9,-220.31 208.99,-204.58"/>
<polygon fill="midnightblue" stroke="midnightblue" points="211.82,-202.49 203.67,-195.71 205.82,-206.09 211.82,-202.49"/>
</g>
<!-- Node19&#45;&gt;Node18 -->
<g id="edge31" class="edge">
<title>Node19&#45;&gt;Node18</title>
<path fill="none" stroke="midnightblue" d="M487.12,-290.48C461.72,-270.91 403.43,-226.01 372.18,-201.94"/>
<polygon fill="midnightblue" stroke="midnightblue" points="374.19,-199.07 364.13,-195.74 369.92,-204.61 374.19,-199.07"/>
</g>
<!-- Node20&#45;&gt;Node3 -->
<g id="edge36" class="edge">
<title>Node20&#45;&gt;Node3</title>
<path fill="none" stroke="midnightblue" d="M651.24,-290.39C674.47,-278.2 707.17,-255.88 693.49,-232 661.13,-175.55 585.92,-148.11 539.52,-136.12"/>
<polygon fill="midnightblue" stroke="midnightblue" points="540.35,-132.71 529.8,-133.72 538.67,-139.51 540.35,-132.71"/>
</g>
<!-- Node20&#45;&gt;Node16 -->
<g id="edge37" class="edge">
<title>Node20&#45;&gt;Node16</title>
<path fill="none" stroke="midnightblue" d="M604.76,-295.84C542.01,-285.68 381.32,-259.67 314.42,-248.84"/>
<polygon fill="midnightblue" stroke="midnightblue" points="314.58,-245.33 304.15,-247.18 313.46,-252.24 314.58,-245.33"/>
</g>
<!-- Node21&#45;&gt;Node3 -->
<g id="edge40" class="edge">
<title>Node21&#45;&gt;Node3</title>
<path fill="none" stroke="midnightblue" d="M577.4,-232.09C569.03,-218.65 553.32,-194.02 538.49,-174 531.27,-164.26 522.72,-153.82 515.55,-145.34"/>
<polygon fill="midnightblue" stroke="midnightblue" points="518.11,-142.95 508.95,-137.63 512.79,-147.5 518.11,-142.95"/>
</g>
<!-- Node21&#45;&gt;Node17 -->
<g id="edge39" class="edge">
<title>Node21&#45;&gt;Node17</title>
<path fill="none" stroke="midnightblue" d="M550.33,-237.18C478.71,-226.76 309.98,-202.22 235.23,-191.34"/>
<polygon fill="midnightblue" stroke="midnightblue" points="235.31,-187.82 224.91,-189.84 234.3,-194.75 235.31,-187.82"/>
</g>
<!-- Node22&#45;&gt;Node3 -->
<g id="edge43" class="edge">
<title>Node22&#45;&gt;Node3</title>
<path fill="none" stroke="midnightblue" d="M299.35,-355.04C253.56,-350.14 168.97,-338.17 101.49,-312 55.01,-293.97 29.98,-297.42 5.49,-254 -4.67,-235.99 0.88,-186.82 14.49,-174 46.76,-143.59 351.07,-132.16 461.06,-129"/>
<polygon fill="midnightblue" stroke="midnightblue" points="461.49,-132.49 471.39,-128.71 461.29,-125.49 461.49,-132.49"/>
</g>
<!-- Node22&#45;&gt;Node10 -->
<g id="edge61" class="edge">
<title>Node22&#45;&gt;Node10</title>
<path fill="none" stroke="midnightblue" d="M339.11,-348.26C358.02,-320.47 412.43,-240.47 437.09,-204.23"/>
<polygon fill="midnightblue" stroke="midnightblue" points="440.2,-205.87 442.94,-195.63 434.42,-201.93 440.2,-205.87"/>
</g>
<!-- Node22&#45;&gt;Node14 -->
<g id="edge60" class="edge">
<title>Node22&#45;&gt;Node14</title>
<path fill="none" stroke="midnightblue" d="M365.79,-353.79C448.1,-343.39 660.41,-316.55 742.45,-306.18"/>
<polygon fill="midnightblue" stroke="midnightblue" points="742.98,-309.64 752.47,-304.91 742.11,-302.69 742.98,-309.64"/>
</g>
<!-- Node22&#45;&gt;Node18 -->
<g id="edge44" class="edge">
<title>Node22&#45;&gt;Node18</title>
<path fill="none" stroke="midnightblue" d="M333.56,-348.26C336.59,-320.82 345.25,-242.51 349.32,-205.64"/>
<polygon fill="midnightblue" stroke="midnightblue" points="352.8,-205.96 350.42,-195.63 345.85,-205.19 352.8,-205.96"/>
</g>
<!-- Node23 -->
<g id="node23" class="node">
<title>Node23</title>
<g id="a_node23"><a xlink:href="fonts_8h.html" target="_top" xlink:title=" ">
<polygon fill="white" stroke="black" points="252.49,-290.5 252.49,-311.5 304.49,-311.5 304.49,-290.5 252.49,-290.5"/>
<text text-anchor="middle" x="278.49" y="-297.9" font-family="DejaVuSans" font-size="12.00">fonts.h</text>
</a>
</g>
</g>
<!-- Node22&#45;&gt;Node23 -->
<g id="edge45" class="edge">
<title>Node22&#45;&gt;Node23</title>
<path fill="none" stroke="midnightblue" d="M323.08,-348.25C315.34,-340.22 304.18,-328.64 294.96,-319.08"/>
<polygon fill="midnightblue" stroke="midnightblue" points="297.25,-316.41 287.79,-311.64 292.21,-321.27 297.25,-316.41"/>
</g>
<!-- Node25 -->
<g id="node25" class="node">
<title>Node25</title>
<g id="a_node25"><a xlink:href="scan_8h.html" target="_top" xlink:title=" ">
<polygon fill="white" stroke="black" points="182.49,-290.5 182.49,-311.5 234.49,-311.5 234.49,-290.5 182.49,-290.5"/>
<text text-anchor="middle" x="208.49" y="-297.9" font-family="DejaVuSans" font-size="12.00">scan.h</text>
</a>
</g>
</g>
<!-- Node22&#45;&gt;Node25 -->
<g id="edge53" class="edge">
<title>Node22&#45;&gt;Node25</title>
<path fill="none" stroke="midnightblue" d="M311.17,-348.37C291.27,-339.38 261.34,-325.87 238.93,-315.75"/>
<polygon fill="midnightblue" stroke="midnightblue" points="240.08,-312.43 229.53,-311.5 237.2,-318.81 240.08,-312.43"/>
</g>
<!-- Node23&#45;&gt;Node3 -->
<g id="edge47" class="edge">
<title>Node23&#45;&gt;Node3</title>
<path fill="none" stroke="midnightblue" d="M252.19,-292.16C249.27,-291.39 246.32,-290.65 243.49,-290 149.93,-268.6 -7.07,-318.02 35.49,-232 54.33,-193.92 72.1,-189.95 111.49,-174 174.34,-148.55 375.35,-134.83 461.11,-130.02"/>
<polygon fill="midnightblue" stroke="midnightblue" points="461.43,-133.5 471.22,-129.46 461.04,-126.52 461.43,-133.5"/>
</g>
<!-- Node23&#45;&gt;Node10 -->
<g id="edge48" class="edge">
<title>Node23&#45;&gt;Node10</title>
<path fill="none" stroke="midnightblue" d="M292.77,-290.48C322.37,-270.74 390.63,-225.24 426.5,-201.32"/>
<polygon fill="midnightblue" stroke="midnightblue" points="428.5,-204.2 434.88,-195.74 424.62,-198.37 428.5,-204.2"/>
</g>
<!-- Node23&#45;&gt;Node16 -->
<g id="edge49" class="edge">
<title>Node23&#45;&gt;Node16</title>
<path fill="none" stroke="midnightblue" d="M279.53,-290.25C280.32,-282.94 281.41,-272.69 282.38,-263.7"/>
<polygon fill="midnightblue" stroke="midnightblue" points="285.87,-263.96 283.46,-253.64 278.91,-263.21 285.87,-263.96"/>
</g>
<!-- Node23&#45;&gt;Node17 -->
<g id="edge46" class="edge">
<title>Node23&#45;&gt;Node17</title>
<path fill="none" stroke="midnightblue" d="M262.7,-290.49C250.22,-282.24 233.17,-269.25 222.49,-254 212.18,-239.29 205.89,-219.72 202.35,-205.35"/>
<polygon fill="midnightblue" stroke="midnightblue" points="205.76,-204.54 200.16,-195.54 198.92,-206.06 205.76,-204.54"/>
</g>
<!-- Node24 -->
<g id="node24" class="node">
<title>Node24</title>
<g id="a_node24"><a xlink:href="dump_8h.html" target="_top" xlink:title=" ">
<polygon fill="white" stroke="black" points="44.49,-232.5 44.49,-253.5 100.49,-253.5 100.49,-232.5 44.49,-232.5"/>
<text text-anchor="middle" x="72.49" y="-239.9" font-family="DejaVuSans" font-size="12.00">dump.h</text>
</a>
</g>
</g>
<!-- Node23&#45;&gt;Node24 -->
<g id="edge50" class="edge">
<title>Node23&#45;&gt;Node24</title>
<path fill="none" stroke="midnightblue" d="M252.13,-292.42C249.21,-291.6 246.29,-290.78 243.49,-290 187.08,-274.37 170.67,-270.43 110.77,-254.34"/>
<polygon fill="midnightblue" stroke="midnightblue" points="111.33,-250.87 100.77,-251.65 109.52,-257.63 111.33,-250.87"/>
</g>
<!-- Node24&#45;&gt;Node3 -->
<g id="edge52" class="edge">
<title>Node24&#45;&gt;Node3</title>
<path fill="none" stroke="midnightblue" d="M79.85,-232.11C91.89,-216.76 117.39,-187.56 146.49,-174 201.72,-148.25 381.02,-134.92 461.16,-130.12"/>
<polygon fill="midnightblue" stroke="midnightblue" points="461.56,-133.6 471.33,-129.52 461.15,-126.61 461.56,-133.6"/>
</g>
<!-- Node24&#45;&gt;Node17 -->
<g id="edge51" class="edge">
<title>Node24&#45;&gt;Node17</title>
<path fill="none" stroke="midnightblue" d="M94.15,-232.37C114.47,-223.34 145.05,-209.75 167.86,-199.61"/>
<polygon fill="midnightblue" stroke="midnightblue" points="169.39,-202.76 177.11,-195.5 166.55,-196.36 169.39,-202.76"/>
</g>
<!-- Node25&#45;&gt;Node3 -->
<g id="edge54" class="edge">
<title>Node25&#45;&gt;Node3</title>
<path fill="none" stroke="midnightblue" d="M182.17,-292.58C178.91,-291.7 175.63,-290.82 172.49,-290 106.98,-272.94 66.32,-307.23 24.49,-254 1.57,-224.83 44.4,-184.56 61.49,-174 127.85,-132.98 366.37,-128.11 461.2,-127.84"/>
<polygon fill="midnightblue" stroke="midnightblue" points="461.25,-131.34 471.25,-127.82 461.24,-124.34 461.25,-131.34"/>
</g>
<!-- Node25&#45;&gt;Node16 -->
<g id="edge59" class="edge">
<title>Node25&#45;&gt;Node16</title>
<path fill="none" stroke="midnightblue" d="M221.73,-290.25C233.17,-281.81 249.92,-269.47 263.24,-259.66"/>
<polygon fill="midnightblue" stroke="midnightblue" points="265.43,-262.39 271.4,-253.64 261.27,-256.76 265.43,-262.39"/>
</g>
<!-- Node26 -->
<g id="node26" class="node">
<title>Node26</title>
<g id="a_node26"><a xlink:href="lexer_8h.html" target="_top" xlink:title=" ">
<polygon fill="white" stroke="black" points="118.49,-232.5 118.49,-253.5 170.49,-253.5 170.49,-232.5 118.49,-232.5"/>
<text text-anchor="middle" x="144.49" y="-239.9" font-family="DejaVuSans" font-size="12.00">lexer.h</text>
</a>
</g>
</g>
<!-- Node25&#45;&gt;Node26 -->
<g id="edge55" class="edge">
<title>Node25&#45;&gt;Node26</title>
<path fill="none" stroke="midnightblue" d="M197.34,-290.25C187.98,-282.05 174.4,-270.17 163.35,-260.51"/>
<polygon fill="midnightblue" stroke="midnightblue" points="165.34,-257.59 155.51,-253.64 160.73,-262.86 165.34,-257.59"/>
</g>
<!-- Node26&#45;&gt;Node3 -->
<g id="edge57" class="edge">
<title>Node26&#45;&gt;Node3</title>
<path fill="none" stroke="midnightblue" d="M144.12,-232.41C144.11,-217.47 146.49,-188.82 163.49,-174 207.2,-135.89 382.25,-129.18 461.34,-128.12"/>
<polygon fill="midnightblue" stroke="midnightblue" points="461.43,-131.62 471.39,-128.01 461.35,-124.62 461.43,-131.62"/>
</g>
<!-- Node26&#45;&gt;Node10 -->
<g id="edge58" class="edge">
<title>Node26&#45;&gt;Node10</title>
<path fill="none" stroke="midnightblue" d="M170.49,-237.23C219.41,-228.24 326.16,-208.64 392.52,-196.46"/>
<polygon fill="midnightblue" stroke="midnightblue" points="393.2,-199.89 402.4,-194.65 391.93,-193.01 393.2,-199.89"/>
</g>
<!-- Node26&#45;&gt;Node17 -->
<g id="edge56" class="edge">
<title>Node26&#45;&gt;Node17</title>
<path fill="none" stroke="midnightblue" d="M153.89,-232.25C161.64,-224.22 172.8,-212.64 182.02,-203.08"/>
<polygon fill="midnightblue" stroke="midnightblue" points="184.77,-205.27 189.19,-195.64 179.73,-200.41 184.77,-205.27"/>
</g>
<!-- Node27&#45;&gt;Node3 -->
<g id="edge63" class="edge">
<title>Node27&#45;&gt;Node3</title>
<path fill="none" stroke="midnightblue" d="M110.83,-298.5C81.65,-295.27 36.12,-285.19 14.49,-254 -0.08,-233 19.18,-184.85 32.49,-174 65.44,-147.14 354.65,-133.53 461.25,-129.4"/>
<polygon fill="midnightblue" stroke="midnightblue" points="461.42,-132.89 471.28,-129.02 461.15,-125.9 461.42,-132.89"/>
</g>
<!-- Node27&#45;&gt;Node26 -->
<g id="edge64" class="edge">
<title>Node27&#45;&gt;Node26</title>
<path fill="none" stroke="midnightblue" d="M138.71,-290.25C139.62,-282.94 140.9,-272.69 142.03,-263.7"/>
<polygon fill="midnightblue" stroke="midnightblue" points="145.52,-264 143.28,-253.64 138.57,-263.13 145.52,-264"/>
</g>
</g>
</svg>
