<?xml version="1.0" encoding="UTF-8" standalone="no"?>
<!DOCTYPE svg PUBLIC "-//W3C//DTD SVG 1.1//EN"
 "http://www.w3.org/Graphics/SVG/1.1/DTD/svg11.dtd">
<!-- Generated by graphviz version 2.44.0 ()
 -->
<!-- Title: pool_init.c Pages: 1 -->
<svg width="359pt" height="378pt"
 viewBox="0.00 0.00 358.50 378.00" xmlns="http://www.w3.org/2000/svg" xmlns:xlink="http://www.w3.org/1999/xlink">
<g id="graph0" class="graph" transform="scale(1 1) rotate(0) translate(4 374)">
<title>pool_init.c</title>
<polygon fill="white" stroke="transparent" points="-4,4 -4,-374 354.5,-374 354.5,4 -4,4"/>
<!-- Node1 -->
<g id="node1" class="node">
<title>Node1</title>
<g id="a_node1"><a xlink:title=" ">
<polygon fill="#bfbfbf" stroke="black" points="109.5,-348.5 109.5,-369.5 180.5,-369.5 180.5,-348.5 109.5,-348.5"/>
<text text-anchor="middle" x="145" y="-355.9" font-family="DejaVuSans" font-size="12.00">pool_init.c</text>
</a>
</g>
</g>
<!-- Node2 -->
<g id="node2" class="node">
<title>Node2</title>
<g id="a_node2"><a xlink:title=" ">
<polygon fill="white" stroke="#bfbfbf" points="12,-0.5 12,-21.5 64,-21.5 64,-0.5 12,-0.5"/>
<text text-anchor="middle" x="38" y="-7.9" font-family="DejaVuSans" font-size="12.00">stdio.h</text>
</a>
</g>
</g>
<!-- Node1&#45;&gt;Node2 -->
<g id="edge1" class="edge">
<title>Node1&#45;&gt;Node2</title>
<path fill="none" stroke="midnightblue" d="M112.46,-348.45C69.71,-333.66 0,-300.84 0,-244 0,-244 0,-244 0,-126 0,-90.9 16.41,-52.7 27.66,-30.63"/>
<polygon fill="midnightblue" stroke="midnightblue" points="30.81,-32.17 32.39,-21.7 24.62,-28.9 30.81,-32.17"/>
</g>
<!-- Node3 -->
<g id="node3" class="node">
<title>Node3</title>
<g id="a_node3"><a xlink:title=" ">
<polygon fill="white" stroke="#bfbfbf" points="151,-290.5 151,-311.5 207,-311.5 207,-290.5 151,-290.5"/>
<text text-anchor="middle" x="179" y="-297.9" font-family="DejaVuSans" font-size="12.00">string.h</text>
</a>
</g>
</g>
<!-- Node1&#45;&gt;Node3 -->
<g id="edge2" class="edge">
<title>Node1&#45;&gt;Node3</title>
<path fill="none" stroke="midnightblue" d="M150.92,-348.25C155.6,-340.54 162.27,-329.56 167.93,-320.23"/>
<polygon fill="midnightblue" stroke="midnightblue" points="170.95,-322.01 173.15,-311.64 164.96,-318.37 170.95,-322.01"/>
</g>
<!-- Node4 -->
<g id="node4" class="node">
<title>Node4</title>
<g id="a_node4"><a xlink:href="tex_8h.html" target="_top" xlink:title=" ">
<polygon fill="white" stroke="black" points="91,-290.5 91,-311.5 133,-311.5 133,-290.5 91,-290.5"/>
<text text-anchor="middle" x="112" y="-297.9" font-family="DejaVuSans" font-size="12.00">tex.h</text>
</a>
</g>
</g>
<!-- Node1&#45;&gt;Node4 -->
<g id="edge3" class="edge">
<title>Node1&#45;&gt;Node4</title>
<path fill="none" stroke="midnightblue" d="M139.25,-348.25C134.76,-340.62 128.38,-329.79 122.92,-320.53"/>
<polygon fill="midnightblue" stroke="midnightblue" points="125.77,-318.48 117.68,-311.64 119.74,-322.04 125.77,-318.48"/>
</g>
<!-- Node10 -->
<g id="node10" class="node">
<title>Node10</title>
<g id="a_node10"><a xlink:href="str_8h.html" target="_top" xlink:title=" ">
<polygon fill="white" stroke="black" points="96.5,-116.5 96.5,-137.5 135.5,-137.5 135.5,-116.5 96.5,-116.5"/>
<text text-anchor="middle" x="116" y="-123.9" font-family="DejaVuSans" font-size="12.00">str.h</text>
</a>
</g>
</g>
<!-- Node1&#45;&gt;Node10 -->
<g id="edge16" class="edge">
<title>Node1&#45;&gt;Node10</title>
<path fill="none" stroke="midnightblue" d="M125.22,-348.49C111.03,-340.65 92.62,-328.2 82,-312 67.52,-289.91 71.91,-280.26 69,-254 64.96,-217.46 74.65,-207.4 90,-174 94.3,-164.65 99.82,-154.67 104.67,-146.4"/>
<polygon fill="midnightblue" stroke="midnightblue" points="107.79,-148 109.93,-137.62 101.79,-144.4 107.79,-148"/>
</g>
<!-- Node13 -->
<g id="node13" class="node">
<title>Node13</title>
<g id="a_node13"><a xlink:href="io_8h.html" target="_top" xlink:title=" ">
<polygon fill="white" stroke="black" points="225,-290.5 225,-311.5 261,-311.5 261,-290.5 225,-290.5"/>
<text text-anchor="middle" x="243" y="-297.9" font-family="DejaVuSans" font-size="12.00">io.h</text>
</a>
</g>
</g>
<!-- Node1&#45;&gt;Node13 -->
<g id="edge17" class="edge">
<title>Node1&#45;&gt;Node13</title>
<path fill="none" stroke="midnightblue" d="M162.07,-348.25C177.25,-339.57 199.66,-326.76 217.06,-316.82"/>
<polygon fill="midnightblue" stroke="midnightblue" points="219.18,-319.64 226.13,-311.64 215.71,-313.57 219.18,-319.64"/>
</g>
<!-- Node14 -->
<g id="node14" class="node">
<title>Node14</title>
<g id="a_node14"><a xlink:href="pool__init_8h.html" target="_top" xlink:title=" ">
<polygon fill="white" stroke="black" points="279.5,-290.5 279.5,-311.5 350.5,-311.5 350.5,-290.5 279.5,-290.5"/>
<text text-anchor="middle" x="315" y="-297.9" font-family="DejaVuSans" font-size="12.00">pool_init.h</text>
</a>
</g>
</g>
<!-- Node1&#45;&gt;Node14 -->
<g id="edge18" class="edge">
<title>Node1&#45;&gt;Node14</title>
<path fill="none" stroke="midnightblue" d="M174.22,-348.37C202.49,-339.06 245.5,-324.9 276.53,-314.67"/>
<polygon fill="midnightblue" stroke="midnightblue" points="277.75,-317.95 286.16,-311.5 275.56,-311.31 277.75,-317.95"/>
</g>
<!-- Node5 -->
<g id="node5" class="node">
<title>Node5</title>
<g id="a_node5"><a xlink:href="tex__types_8h.html" target="_top" xlink:title=" ">
<polygon fill="white" stroke="black" points="216.5,-58.5 216.5,-79.5 293.5,-79.5 293.5,-58.5 216.5,-58.5"/>
<text text-anchor="middle" x="255" y="-65.9" font-family="DejaVuSans" font-size="12.00">tex_types.h</text>
</a>
</g>
</g>
<!-- Node4&#45;&gt;Node5 -->
<g id="edge4" class="edge">
<title>Node4&#45;&gt;Node5</title>
<path fill="none" stroke="midnightblue" d="M132.87,-290.36C148.01,-282.46 168.01,-269.98 181,-254 222.35,-203.13 243.13,-126.15 251.06,-90.04"/>
<polygon fill="midnightblue" stroke="midnightblue" points="254.57,-90.34 253.19,-79.83 247.72,-88.9 254.57,-90.34"/>
</g>
<!-- Node8 -->
<g id="node8" class="node">
<title>Node8</title>
<g id="a_node8"><a xlink:href="tex__constant_8h.html" target="_top" xlink:title=" ">
<polygon fill="white" stroke="black" points="78,-232.5 78,-253.5 172,-253.5 172,-232.5 78,-232.5"/>
<text text-anchor="middle" x="125" y="-239.9" font-family="DejaVuSans" font-size="12.00">tex_constant.h</text>
</a>
</g>
</g>
<!-- Node4&#45;&gt;Node8 -->
<g id="edge7" class="edge">
<title>Node4&#45;&gt;Node8</title>
<path fill="none" stroke="midnightblue" d="M114.26,-290.25C115.98,-282.86 118.39,-272.47 120.49,-263.41"/>
<polygon fill="midnightblue" stroke="midnightblue" points="123.91,-264.18 122.76,-253.64 117.09,-262.59 123.91,-264.18"/>
</g>
<!-- Node6 -->
<g id="node6" class="node">
<title>Node6</title>
<g id="a_node6"><a xlink:title=" ">
<polygon fill="white" stroke="#bfbfbf" points="233.5,-0.5 233.5,-21.5 298.5,-21.5 298.5,-0.5 233.5,-0.5"/>
<text text-anchor="middle" x="266" y="-7.9" font-family="DejaVuSans" font-size="12.00">stdbool.h</text>
</a>
</g>
</g>
<!-- Node5&#45;&gt;Node6 -->
<g id="edge5" class="edge">
<title>Node5&#45;&gt;Node6</title>
<path fill="none" stroke="midnightblue" d="M256.92,-58.25C258.35,-50.94 260.36,-40.69 262.13,-31.7"/>
<polygon fill="midnightblue" stroke="midnightblue" points="265.61,-32.13 264.11,-21.64 258.74,-30.78 265.61,-32.13"/>
</g>
<!-- Node7 -->
<g id="node7" class="node">
<title>Node7</title>
<g id="a_node7"><a xlink:title=" ">
<polygon fill="white" stroke="#bfbfbf" points="160.5,-0.5 160.5,-21.5 215.5,-21.5 215.5,-0.5 160.5,-0.5"/>
<text text-anchor="middle" x="188" y="-7.9" font-family="DejaVuSans" font-size="12.00">stdint.h</text>
</a>
</g>
</g>
<!-- Node5&#45;&gt;Node7 -->
<g id="edge6" class="edge">
<title>Node5&#45;&gt;Node7</title>
<path fill="none" stroke="midnightblue" d="M243.33,-58.25C233.43,-49.97 219.04,-37.94 207.41,-28.22"/>
<polygon fill="midnightblue" stroke="midnightblue" points="209.45,-25.37 199.54,-21.64 204.97,-30.74 209.45,-25.37"/>
</g>
<!-- Node9 -->
<g id="node9" class="node">
<title>Node9</title>
<g id="a_node9"><a xlink:href="box_8h.html" target="_top" xlink:title=" ">
<polygon fill="white" stroke="black" points="99,-174.5 99,-195.5 145,-195.5 145,-174.5 99,-174.5"/>
<text text-anchor="middle" x="122" y="-181.9" font-family="DejaVuSans" font-size="12.00">box.h</text>
</a>
</g>
</g>
<!-- Node8&#45;&gt;Node9 -->
<g id="edge8" class="edge">
<title>Node8&#45;&gt;Node9</title>
<path fill="none" stroke="midnightblue" d="M124.48,-232.25C124.09,-224.94 123.54,-214.69 123.06,-205.7"/>
<polygon fill="midnightblue" stroke="midnightblue" points="126.55,-205.44 122.52,-195.64 119.56,-205.82 126.55,-205.44"/>
</g>
<!-- Node9&#45;&gt;Node10 -->
<g id="edge9" class="edge">
<title>Node9&#45;&gt;Node10</title>
<path fill="none" stroke="midnightblue" d="M120.95,-174.25C120.17,-166.94 119.07,-156.69 118.11,-147.7"/>
<polygon fill="midnightblue" stroke="midnightblue" points="121.58,-147.21 117.03,-137.64 114.62,-147.96 121.58,-147.21"/>
</g>
<!-- Node10&#45;&gt;Node2 -->
<g id="edge10" class="edge">
<title>Node10&#45;&gt;Node2</title>
<path fill="none" stroke="midnightblue" d="M98.89,-116.44C85.88,-108.33 68.49,-95.56 58,-80 48.23,-65.51 43.14,-46.17 40.55,-31.82"/>
<polygon fill="midnightblue" stroke="midnightblue" points="43.96,-30.91 38.97,-21.56 37.04,-31.98 43.96,-30.91"/>
</g>
<!-- Node10&#45;&gt;Node5 -->
<g id="edge15" class="edge">
<title>Node10&#45;&gt;Node5</title>
<path fill="none" stroke="midnightblue" d="M135.62,-118.1C158.01,-109.07 195.01,-94.17 221.89,-83.34"/>
<polygon fill="midnightblue" stroke="midnightblue" points="223.32,-86.53 231.29,-79.55 220.71,-80.04 223.32,-86.53"/>
</g>
<!-- Node10&#45;&gt;Node7 -->
<g id="edge11" class="edge">
<title>Node10&#45;&gt;Node7</title>
<path fill="none" stroke="midnightblue" d="M131.19,-116.48C143.15,-108.23 159.36,-95.24 169,-80 178.21,-65.45 183.03,-46.4 185.51,-32.16"/>
<polygon fill="midnightblue" stroke="midnightblue" points="189.02,-32.36 187.03,-21.96 182.09,-31.33 189.02,-32.36"/>
</g>
<!-- Node11 -->
<g id="node11" class="node">
<title>Node11</title>
<g id="a_node11"><a xlink:href="global__const_8h.html" target="_top" xlink:title=" ">
<polygon fill="white" stroke="black" points="66.5,-58.5 66.5,-79.5 159.5,-79.5 159.5,-58.5 66.5,-58.5"/>
<text text-anchor="middle" x="113" y="-65.9" font-family="DejaVuSans" font-size="12.00">global_const.h</text>
</a>
</g>
</g>
<!-- Node10&#45;&gt;Node11 -->
<g id="edge12" class="edge">
<title>Node10&#45;&gt;Node11</title>
<path fill="none" stroke="midnightblue" d="M115.48,-116.25C115.09,-108.94 114.54,-98.69 114.06,-89.7"/>
<polygon fill="midnightblue" stroke="midnightblue" points="117.55,-89.44 113.52,-79.64 110.56,-89.82 117.55,-89.44"/>
</g>
<!-- Node11&#45;&gt;Node2 -->
<g id="edge14" class="edge">
<title>Node11&#45;&gt;Node2</title>
<path fill="none" stroke="midnightblue" d="M99.94,-58.25C88.64,-49.81 72.12,-37.47 58.97,-27.66"/>
<polygon fill="midnightblue" stroke="midnightblue" points="61.02,-24.82 50.91,-21.64 56.83,-30.43 61.02,-24.82"/>
</g>
<!-- Node12 -->
<g id="node12" class="node">
<title>Node12</title>
<g id="a_node12"><a xlink:title=" ">
<polygon fill="white" stroke="#bfbfbf" points="83.5,-0.5 83.5,-21.5 142.5,-21.5 142.5,-0.5 83.5,-0.5"/>
<text text-anchor="middle" x="113" y="-7.9" font-family="DejaVuSans" font-size="12.00">assert.h</text>
</a>
</g>
</g>
<!-- Node11&#45;&gt;Node12 -->
<g id="edge13" class="edge">
<title>Node11&#45;&gt;Node12</title>
<path fill="none" stroke="midnightblue" d="M113,-58.25C113,-50.94 113,-40.69 113,-31.7"/>
<polygon fill="midnightblue" stroke="midnightblue" points="116.5,-31.64 113,-21.64 109.5,-31.64 116.5,-31.64"/>
</g>
</g>
</svg>
