<?xml version="1.0" encoding="UTF-8" standalone="no"?>
<!DOCTYPE svg PUBLIC "-//W3C//DTD SVG 1.1//EN"
 "http://www.w3.org/Graphics/SVG/1.1/DTD/svg11.dtd">
<!-- Generated by graphviz version 2.44.0 ()
 -->
<!-- Title: pool_init.c Pages: 1 -->
<svg width="406pt" height="378pt"
 viewBox="0.00 0.00 406.00 378.00" xmlns="http://www.w3.org/2000/svg" xmlns:xlink="http://www.w3.org/1999/xlink">
<g id="graph0" class="graph" transform="scale(1 1) rotate(0) translate(4 374)">
<title>pool_init.c</title>
<polygon fill="white" stroke="transparent" points="-4,4 -4,-374 402,-374 402,4 -4,4"/>
<!-- Node1 -->
<g id="node1" class="node">
<title>Node1</title>
<g id="a_node1"><a xlink:title=" ">
<polygon fill="#bfbfbf" stroke="black" points="225,-348.5 225,-369.5 296,-369.5 296,-348.5 225,-348.5"/>
<text text-anchor="middle" x="260.5" y="-355.9" font-family="DejaVuSans" font-size="12.00">pool_init.c</text>
</a>
</g>
</g>
<!-- Node2 -->
<g id="node2" class="node">
<title>Node2</title>
<g id="a_node2"><a xlink:title=" ">
<polygon fill="white" stroke="#bfbfbf" points="234.5,-0.5 234.5,-21.5 286.5,-21.5 286.5,-0.5 234.5,-0.5"/>
<text text-anchor="middle" x="260.5" y="-7.9" font-family="DejaVuSans" font-size="12.00">stdio.h</text>
</a>
</g>
</g>
<!-- Node1&#45;&gt;Node2 -->
<g id="edge1" class="edge">
<title>Node1&#45;&gt;Node2</title>
<path fill="none" stroke="midnightblue" d="M266.11,-348.3C276.68,-329.07 298.5,-284.47 298.5,-244 298.5,-244 298.5,-244 298.5,-126 298.5,-90.9 282.09,-52.7 270.84,-30.63"/>
<polygon fill="midnightblue" stroke="midnightblue" points="273.88,-28.9 266.11,-21.7 267.69,-32.17 273.88,-28.9"/>
</g>
<!-- Node3 -->
<g id="node3" class="node">
<title>Node3</title>
<g id="a_node3"><a xlink:title=" ">
<polygon fill="white" stroke="#bfbfbf" points="176.5,-290.5 176.5,-311.5 232.5,-311.5 232.5,-290.5 176.5,-290.5"/>
<text text-anchor="middle" x="204.5" y="-297.9" font-family="DejaVuSans" font-size="12.00">string.h</text>
</a>
</g>
</g>
<!-- Node1&#45;&gt;Node3 -->
<g id="edge2" class="edge">
<title>Node1&#45;&gt;Node3</title>
<path fill="none" stroke="midnightblue" d="M250.75,-348.25C242.64,-340.14 230.91,-328.41 221.29,-318.79"/>
<polygon fill="midnightblue" stroke="midnightblue" points="223.69,-316.24 214.14,-311.64 218.74,-321.19 223.69,-316.24"/>
</g>
<!-- Node4 -->
<g id="node4" class="node">
<title>Node4</title>
<g id="a_node4"><a xlink:href="tex_8h.html" target="_top" xlink:title=" ">
<polygon fill="white" stroke="black" points="116.5,-290.5 116.5,-311.5 158.5,-311.5 158.5,-290.5 116.5,-290.5"/>
<text text-anchor="middle" x="137.5" y="-297.9" font-family="DejaVuSans" font-size="12.00">tex.h</text>
</a>
</g>
</g>
<!-- Node1&#45;&gt;Node4 -->
<g id="edge3" class="edge">
<title>Node1&#45;&gt;Node4</title>
<path fill="none" stroke="midnightblue" d="M239.36,-348.37C219.61,-339.38 189.93,-325.87 167.69,-315.75"/>
<polygon fill="midnightblue" stroke="midnightblue" points="168.92,-312.46 158.37,-311.5 166.02,-318.83 168.92,-312.46"/>
</g>
<!-- Node10 -->
<g id="node10" class="node">
<title>Node10</title>
<g id="a_node10"><a xlink:href="str_8h.html" target="_top" xlink:title=" ">
<polygon fill="white" stroke="black" points="142,-116.5 142,-137.5 181,-137.5 181,-116.5 142,-116.5"/>
<text text-anchor="middle" x="161.5" y="-123.9" font-family="DejaVuSans" font-size="12.00">str.h</text>
</a>
</g>
</g>
<!-- Node1&#45;&gt;Node10 -->
<g id="edge16" class="edge">
<title>Node1&#45;&gt;Node10</title>
<path fill="none" stroke="midnightblue" d="M258.28,-348.16C255.16,-334.79 248.98,-310.24 241.5,-290 221.78,-236.66 213.51,-224.57 187.5,-174 182.8,-164.85 177.22,-154.89 172.45,-146.59"/>
<polygon fill="midnightblue" stroke="midnightblue" points="175.36,-144.63 167.31,-137.75 169.31,-148.15 175.36,-144.63"/>
</g>
<!-- Node13 -->
<g id="node13" class="node">
<title>Node13</title>
<g id="a_node13"><a xlink:href="pool__init_8h.html" target="_top" xlink:title=" ">
<polygon fill="white" stroke="black" points="327,-290.5 327,-311.5 398,-311.5 398,-290.5 327,-290.5"/>
<text text-anchor="middle" x="362.5" y="-297.9" font-family="DejaVuSans" font-size="12.00">pool_init.h</text>
</a>
</g>
</g>
<!-- Node1&#45;&gt;Node13 -->
<g id="edge17" class="edge">
<title>Node1&#45;&gt;Node13</title>
<path fill="none" stroke="midnightblue" d="M278.27,-348.25C294.21,-339.49 317.83,-326.53 336,-316.55"/>
<polygon fill="midnightblue" stroke="midnightblue" points="337.86,-319.52 344.94,-311.64 334.49,-313.39 337.86,-319.52"/>
</g>
<!-- Node5 -->
<g id="node5" class="node">
<title>Node5</title>
<g id="a_node5"><a xlink:href="tex__types_8h.html" target="_top" xlink:title=" ">
<polygon fill="white" stroke="black" points="5,-58.5 5,-79.5 82,-79.5 82,-58.5 5,-58.5"/>
<text text-anchor="middle" x="43.5" y="-65.9" font-family="DejaVuSans" font-size="12.00">tex_types.h</text>
</a>
</g>
</g>
<!-- Node4&#45;&gt;Node5 -->
<g id="edge4" class="edge">
<title>Node4&#45;&gt;Node5</title>
<path fill="none" stroke="midnightblue" d="M123.03,-290.38C111.67,-282.08 96.34,-269.05 87.5,-254 55.98,-200.31 47.01,-125.24 44.48,-89.89"/>
<polygon fill="midnightblue" stroke="midnightblue" points="47.95,-89.29 43.85,-79.52 40.97,-89.71 47.95,-89.29"/>
</g>
<!-- Node8 -->
<g id="node8" class="node">
<title>Node8</title>
<g id="a_node8"><a xlink:href="tex__constant_8h.html" target="_top" xlink:title=" ">
<polygon fill="white" stroke="black" points="96.5,-232.5 96.5,-253.5 190.5,-253.5 190.5,-232.5 96.5,-232.5"/>
<text text-anchor="middle" x="143.5" y="-239.9" font-family="DejaVuSans" font-size="12.00">tex_constant.h</text>
</a>
</g>
</g>
<!-- Node4&#45;&gt;Node8 -->
<g id="edge7" class="edge">
<title>Node4&#45;&gt;Node8</title>
<path fill="none" stroke="midnightblue" d="M138.55,-290.25C139.33,-282.94 140.43,-272.69 141.39,-263.7"/>
<polygon fill="midnightblue" stroke="midnightblue" points="144.88,-263.96 142.47,-253.64 137.92,-263.21 144.88,-263.96"/>
</g>
<!-- Node6 -->
<g id="node6" class="node">
<title>Node6</title>
<g id="a_node6"><a xlink:title=" ">
<polygon fill="white" stroke="#bfbfbf" points="0,-0.5 0,-21.5 65,-21.5 65,-0.5 0,-0.5"/>
<text text-anchor="middle" x="32.5" y="-7.9" font-family="DejaVuSans" font-size="12.00">stdbool.h</text>
</a>
</g>
</g>
<!-- Node5&#45;&gt;Node6 -->
<g id="edge5" class="edge">
<title>Node5&#45;&gt;Node6</title>
<path fill="none" stroke="midnightblue" d="M41.58,-58.25C40.15,-50.94 38.14,-40.69 36.37,-31.7"/>
<polygon fill="midnightblue" stroke="midnightblue" points="39.76,-30.78 34.39,-21.64 32.89,-32.13 39.76,-30.78"/>
</g>
<!-- Node7 -->
<g id="node7" class="node">
<title>Node7</title>
<g id="a_node7"><a xlink:title=" ">
<polygon fill="white" stroke="#bfbfbf" points="83,-0.5 83,-21.5 138,-21.5 138,-0.5 83,-0.5"/>
<text text-anchor="middle" x="110.5" y="-7.9" font-family="DejaVuSans" font-size="12.00">stdint.h</text>
</a>
</g>
</g>
<!-- Node5&#45;&gt;Node7 -->
<g id="edge6" class="edge">
<title>Node5&#45;&gt;Node7</title>
<path fill="none" stroke="midnightblue" d="M55.17,-58.25C65.07,-49.97 79.46,-37.94 91.09,-28.22"/>
<polygon fill="midnightblue" stroke="midnightblue" points="93.53,-30.74 98.96,-21.64 89.05,-25.37 93.53,-30.74"/>
</g>
<!-- Node9 -->
<g id="node9" class="node">
<title>Node9</title>
<g id="a_node9"><a xlink:href="box_8h.html" target="_top" xlink:title=" ">
<polygon fill="white" stroke="black" points="132.5,-174.5 132.5,-195.5 178.5,-195.5 178.5,-174.5 132.5,-174.5"/>
<text text-anchor="middle" x="155.5" y="-181.9" font-family="DejaVuSans" font-size="12.00">box.h</text>
</a>
</g>
</g>
<!-- Node8&#45;&gt;Node9 -->
<g id="edge8" class="edge">
<title>Node8&#45;&gt;Node9</title>
<path fill="none" stroke="midnightblue" d="M145.59,-232.25C147.16,-224.94 149.35,-214.69 151.28,-205.7"/>
<polygon fill="midnightblue" stroke="midnightblue" points="154.76,-206.15 153.43,-195.64 147.92,-204.69 154.76,-206.15"/>
</g>
<!-- Node9&#45;&gt;Node10 -->
<g id="edge9" class="edge">
<title>Node9&#45;&gt;Node10</title>
<path fill="none" stroke="midnightblue" d="M156.55,-174.25C157.33,-166.94 158.43,-156.69 159.39,-147.7"/>
<polygon fill="midnightblue" stroke="midnightblue" points="162.88,-147.96 160.47,-137.64 155.92,-147.21 162.88,-147.96"/>
</g>
<!-- Node10&#45;&gt;Node2 -->
<g id="edge10" class="edge">
<title>Node10&#45;&gt;Node2</title>
<path fill="none" stroke="midnightblue" d="M181.25,-119.35C199.23,-112.31 225.23,-99.49 240.5,-80 251.39,-66.11 256.35,-46.44 258.62,-31.82"/>
<polygon fill="midnightblue" stroke="midnightblue" points="262.1,-32.17 259.87,-21.81 255.15,-31.3 262.1,-32.17"/>
</g>
<!-- Node10&#45;&gt;Node5 -->
<g id="edge15" class="edge">
<title>Node10&#45;&gt;Node5</title>
<path fill="none" stroke="midnightblue" d="M141.75,-116.63C122.97,-107.72 94.49,-94.2 73.02,-84.01"/>
<polygon fill="midnightblue" stroke="midnightblue" points="74.25,-80.72 63.71,-79.59 71.24,-87.04 74.25,-80.72"/>
</g>
<!-- Node10&#45;&gt;Node7 -->
<g id="edge11" class="edge">
<title>Node10&#45;&gt;Node7</title>
<path fill="none" stroke="midnightblue" d="M153.35,-116.37C146.17,-107.45 135.88,-93.55 129.5,-80 122.16,-64.42 117.16,-45.47 114.13,-31.53"/>
<polygon fill="midnightblue" stroke="midnightblue" points="117.54,-30.7 112.13,-21.59 110.68,-32.09 117.54,-30.7"/>
</g>
<!-- Node11 -->
<g id="node11" class="node">
<title>Node11</title>
<g id="a_node11"><a xlink:href="global__const_8h.html" target="_top" xlink:title=" ">
<polygon fill="white" stroke="black" points="139,-58.5 139,-79.5 232,-79.5 232,-58.5 139,-58.5"/>
<text text-anchor="middle" x="185.5" y="-65.9" font-family="DejaVuSans" font-size="12.00">global_const.h</text>
</a>
</g>
</g>
<!-- Node10&#45;&gt;Node11 -->
<g id="edge12" class="edge">
<title>Node10&#45;&gt;Node11</title>
<path fill="none" stroke="midnightblue" d="M165.68,-116.25C168.88,-108.78 173.4,-98.24 177.31,-89.11"/>
<polygon fill="midnightblue" stroke="midnightblue" points="180.65,-90.21 181.37,-79.64 174.21,-87.46 180.65,-90.21"/>
</g>
<!-- Node11&#45;&gt;Node2 -->
<g id="edge14" class="edge">
<title>Node11&#45;&gt;Node2</title>
<path fill="none" stroke="midnightblue" d="M198.56,-58.25C209.86,-49.81 226.38,-37.47 239.53,-27.66"/>
<polygon fill="midnightblue" stroke="midnightblue" points="241.67,-30.43 247.59,-21.64 237.48,-24.82 241.67,-30.43"/>
</g>
<!-- Node12 -->
<g id="node12" class="node">
<title>Node12</title>
<g id="a_node12"><a xlink:title=" ">
<polygon fill="white" stroke="#bfbfbf" points="156,-0.5 156,-21.5 215,-21.5 215,-0.5 156,-0.5"/>
<text text-anchor="middle" x="185.5" y="-7.9" font-family="DejaVuSans" font-size="12.00">assert.h</text>
</a>
</g>
</g>
<!-- Node11&#45;&gt;Node12 -->
<g id="edge13" class="edge">
<title>Node11&#45;&gt;Node12</title>
<path fill="none" stroke="midnightblue" d="M185.5,-58.25C185.5,-50.94 185.5,-40.69 185.5,-31.7"/>
<polygon fill="midnightblue" stroke="midnightblue" points="189,-31.64 185.5,-21.64 182,-31.64 189,-31.64"/>
</g>
</g>
</svg>
