<?xml version="1.0" encoding="UTF-8" standalone="no"?>
<!DOCTYPE svg PUBLIC "-//W3C//DTD SVG 1.1//EN"
 "http://www.w3.org/Graphics/SVG/1.1/DTD/svg11.dtd">
<!-- Generated by graphviz version 2.44.0 ()
 -->
<!-- Title: print.c Pages: 1 -->
<svg width="1038pt" height="494pt"
 viewBox="0.00 0.00 1037.54 494.00" xmlns="http://www.w3.org/2000/svg" xmlns:xlink="http://www.w3.org/1999/xlink">
<g id="graph0" class="graph" transform="scale(1 1) rotate(0) translate(4 490)">
<title>print.c</title>
<polygon fill="white" stroke="transparent" points="-4,4 -4,-490 1033.54,-490 1033.54,4 -4,4"/>
<!-- Node1 -->
<g id="node1" class="node">
<title>Node1</title>
<g id="a_node1"><a xlink:title=" ">
<polygon fill="#bfbfbf" stroke="black" points="612.04,-464.5 612.04,-485.5 661.04,-485.5 661.04,-464.5 612.04,-464.5"/>
<text text-anchor="middle" x="636.54" y="-471.9" font-family="DejaVuSans" font-size="12.00">print.c</text>
</a>
</g>
</g>
<!-- Node2 -->
<g id="node2" class="node">
<title>Node2</title>
<g id="a_node2"><a xlink:title=" ">
<polygon fill="white" stroke="#bfbfbf" points="253.54,-406.5 253.54,-427.5 307.54,-427.5 307.54,-406.5 253.54,-406.5"/>
<text text-anchor="middle" x="280.54" y="-413.9" font-family="DejaVuSans" font-size="12.00">stdlib.h</text>
</a>
</g>
</g>
<!-- Node1&#45;&gt;Node2 -->
<g id="edge1" class="edge">
<title>Node1&#45;&gt;Node2</title>
<path fill="none" stroke="midnightblue" d="M611.9,-471.2C558.64,-464.99 428.95,-448.89 321.54,-428 320.28,-427.76 319.01,-427.5 317.72,-427.23"/>
<polygon fill="midnightblue" stroke="midnightblue" points="318.33,-423.78 307.8,-425.03 316.81,-430.61 318.33,-423.78"/>
</g>
<!-- Node3 -->
<g id="node3" class="node">
<title>Node3</title>
<g id="a_node3"><a xlink:href="charset_8h.html" target="_top" xlink:title=" ">
<polygon fill="white" stroke="black" points="831.04,-174.5 831.04,-195.5 896.04,-195.5 896.04,-174.5 831.04,-174.5"/>
<text text-anchor="middle" x="863.54" y="-181.9" font-family="DejaVuSans" font-size="12.00">charset.h</text>
</a>
</g>
</g>
<!-- Node1&#45;&gt;Node3 -->
<g id="edge2" class="edge">
<title>Node1&#45;&gt;Node3</title>
<path fill="none" stroke="midnightblue" d="M661.12,-472.24C747.16,-465.4 1029.54,-437.08 1029.54,-360 1029.54,-360 1029.54,-360 1029.54,-300 1029.54,-240.15 955.29,-209.36 906.11,-195.54"/>
<polygon fill="midnightblue" stroke="midnightblue" points="906.9,-192.12 896.33,-192.92 905.09,-198.89 906.9,-192.12"/>
</g>
<!-- Node11 -->
<g id="node11" class="node">
<title>Node11</title>
<g id="a_node11"><a xlink:href="print_8h.html" target="_top" xlink:title=" ">
<polygon fill="white" stroke="black" points="688.54,-290.5 688.54,-311.5 738.54,-311.5 738.54,-290.5 688.54,-290.5"/>
<text text-anchor="middle" x="713.54" y="-297.9" font-family="DejaVuSans" font-size="12.00">print.h</text>
</a>
</g>
</g>
<!-- Node1&#45;&gt;Node11 -->
<g id="edge10" class="edge">
<title>Node1&#45;&gt;Node11</title>
<path fill="none" stroke="midnightblue" d="M640.9,-464.26C653.23,-436.71 688.54,-357.83 704.96,-321.17"/>
<polygon fill="midnightblue" stroke="midnightblue" points="708.33,-322.19 709.22,-311.63 701.94,-319.33 708.33,-322.19"/>
</g>
<!-- Node14 -->
<g id="node14" class="node">
<title>Node14</title>
<g id="a_node14"><a xlink:href="eqtb_8h.html" target="_top" xlink:title=" ">
<polygon fill="white" stroke="black" points="179.54,-232.5 179.54,-253.5 229.54,-253.5 229.54,-232.5 179.54,-232.5"/>
<text text-anchor="middle" x="204.54" y="-239.9" font-family="DejaVuSans" font-size="12.00">eqtb.h</text>
</a>
</g>
</g>
<!-- Node1&#45;&gt;Node14 -->
<g id="edge64" class="edge">
<title>Node1&#45;&gt;Node14</title>
<path fill="none" stroke="midnightblue" d="M611.78,-468.1C582.68,-460.7 533.31,-446.68 493.54,-428 386.31,-377.64 271.01,-294.27 225.09,-259.73"/>
<polygon fill="midnightblue" stroke="midnightblue" points="227.19,-256.93 217.1,-253.69 222.96,-262.51 227.19,-256.93"/>
</g>
<!-- Node16 -->
<g id="node16" class="node">
<title>Node16</title>
<g id="a_node16"><a xlink:href="io_8h.html" target="_top" xlink:title=" ">
<polygon fill="white" stroke="black" points="768.54,-290.5 768.54,-311.5 804.54,-311.5 804.54,-290.5 768.54,-290.5"/>
<text text-anchor="middle" x="786.54" y="-297.9" font-family="DejaVuSans" font-size="12.00">io.h</text>
</a>
</g>
</g>
<!-- Node1&#45;&gt;Node16 -->
<g id="edge24" class="edge">
<title>Node1&#45;&gt;Node16</title>
<path fill="none" stroke="midnightblue" d="M645.03,-464.26C669.47,-436.23 740.22,-355.11 771.43,-319.32"/>
<polygon fill="midnightblue" stroke="midnightblue" points="774.2,-321.47 778.14,-311.63 768.92,-316.87 774.2,-321.47"/>
</g>
<!-- Node17 -->
<g id="node17" class="node">
<title>Node17</title>
<g id="a_node17"><a xlink:href="error_8h.html" target="_top" xlink:title=" ">
<polygon fill="white" stroke="black" points="944.04,-290.5 944.04,-311.5 995.04,-311.5 995.04,-290.5 944.04,-290.5"/>
<text text-anchor="middle" x="969.54" y="-297.9" font-family="DejaVuSans" font-size="12.00">error.h</text>
</a>
</g>
</g>
<!-- Node1&#45;&gt;Node17 -->
<g id="edge30" class="edge">
<title>Node1&#45;&gt;Node17</title>
<path fill="none" stroke="midnightblue" d="M655.39,-464.26C711.26,-435.4 876.08,-350.27 941.92,-316.27"/>
<polygon fill="midnightblue" stroke="midnightblue" points="943.61,-319.33 950.89,-311.63 940.39,-313.11 943.61,-319.33"/>
</g>
<!-- Node18 -->
<g id="node18" class="node">
<title>Node18</title>
<g id="a_node18"><a xlink:href="extension_8h.html" target="_top" xlink:title=" ">
<polygon fill="white" stroke="black" points="522.54,-406.5 522.54,-427.5 600.54,-427.5 600.54,-406.5 522.54,-406.5"/>
<text text-anchor="middle" x="561.54" y="-413.9" font-family="DejaVuSans" font-size="12.00">extension.h</text>
</a>
</g>
</g>
<!-- Node1&#45;&gt;Node18 -->
<g id="edge33" class="edge">
<title>Node1&#45;&gt;Node18</title>
<path fill="none" stroke="midnightblue" d="M623.47,-464.25C612.18,-455.81 595.65,-443.47 582.51,-433.66"/>
<polygon fill="midnightblue" stroke="midnightblue" points="584.56,-430.82 574.45,-427.64 580.37,-436.43 584.56,-430.82"/>
</g>
<!-- Node25 -->
<g id="node25" class="node">
<title>Node25</title>
<g id="a_node25"><a xlink:href="dump_8h.html" target="_top" xlink:title=" ">
<polygon fill="white" stroke="black" points="399.54,-232.5 399.54,-253.5 455.54,-253.5 455.54,-232.5 399.54,-232.5"/>
<text text-anchor="middle" x="427.54" y="-239.9" font-family="DejaVuSans" font-size="12.00">dump.h</text>
</a>
</g>
</g>
<!-- Node1&#45;&gt;Node25 -->
<g id="edge63" class="edge">
<title>Node1&#45;&gt;Node25</title>
<path fill="none" stroke="midnightblue" d="M612.02,-470.97C584.56,-466.33 540.41,-454.97 513.54,-428 467.39,-381.67 494.01,-347.31 462.54,-290 457.02,-279.95 449.45,-269.7 442.76,-261.44"/>
<polygon fill="midnightblue" stroke="midnightblue" points="445.34,-259.06 436.23,-253.64 439.97,-263.55 445.34,-259.06"/>
</g>
<!-- Node4 -->
<g id="node4" class="node">
<title>Node4</title>
<g id="a_node4"><a xlink:href="global_8h.html" target="_top" xlink:title=" ">
<polygon fill="white" stroke="black" points="453.54,-116.5 453.54,-137.5 511.54,-137.5 511.54,-116.5 453.54,-116.5"/>
<text text-anchor="middle" x="482.54" y="-123.9" font-family="DejaVuSans" font-size="12.00">global.h</text>
</a>
</g>
</g>
<!-- Node3&#45;&gt;Node4 -->
<g id="edge3" class="edge">
<title>Node3&#45;&gt;Node4</title>
<path fill="none" stroke="midnightblue" d="M830.72,-179.18C760.73,-168.89 597.04,-144.83 521.73,-133.76"/>
<polygon fill="midnightblue" stroke="midnightblue" points="522.11,-130.28 511.71,-132.29 521.09,-137.2 522.11,-130.28"/>
</g>
<!-- Node5 -->
<g id="node5" class="node">
<title>Node5</title>
<g id="a_node5"><a xlink:href="global__macros_8h.html" target="_top" xlink:title=" ">
<polygon fill="white" stroke="black" points="430.54,-58.5 430.54,-79.5 534.54,-79.5 534.54,-58.5 430.54,-58.5"/>
<text text-anchor="middle" x="482.54" y="-65.9" font-family="DejaVuSans" font-size="12.00">global_macros.h</text>
</a>
</g>
</g>
<!-- Node4&#45;&gt;Node5 -->
<g id="edge4" class="edge">
<title>Node4&#45;&gt;Node5</title>
<path fill="none" stroke="midnightblue" d="M482.54,-116.25C482.54,-108.94 482.54,-98.69 482.54,-89.7"/>
<polygon fill="midnightblue" stroke="midnightblue" points="486.04,-89.64 482.54,-79.64 479.04,-89.64 486.04,-89.64"/>
</g>
<!-- Node7 -->
<g id="node7" class="node">
<title>Node7</title>
<g id="a_node7"><a xlink:href="global__const_8h.html" target="_top" xlink:title=" ">
<polygon fill="white" stroke="black" points="290.04,-58.5 290.04,-79.5 383.04,-79.5 383.04,-58.5 290.04,-58.5"/>
<text text-anchor="middle" x="336.54" y="-65.9" font-family="DejaVuSans" font-size="12.00">global_const.h</text>
</a>
</g>
</g>
<!-- Node4&#45;&gt;Node7 -->
<g id="edge6" class="edge">
<title>Node4&#45;&gt;Node7</title>
<path fill="none" stroke="midnightblue" d="M457.44,-116.37C433.58,-107.22 397.5,-93.38 370.97,-83.21"/>
<polygon fill="midnightblue" stroke="midnightblue" points="371.9,-79.81 361.31,-79.5 369.39,-86.35 371.9,-79.81"/>
</g>
<!-- Node8 -->
<g id="node8" class="node">
<title>Node8</title>
<g id="a_node8"><a xlink:href="tex__types_8h.html" target="_top" xlink:title=" ">
<polygon fill="white" stroke="black" points="578.04,-58.5 578.04,-79.5 655.04,-79.5 655.04,-58.5 578.04,-58.5"/>
<text text-anchor="middle" x="616.54" y="-65.9" font-family="DejaVuSans" font-size="12.00">tex_types.h</text>
</a>
</g>
</g>
<!-- Node4&#45;&gt;Node8 -->
<g id="edge7" class="edge">
<title>Node4&#45;&gt;Node8</title>
<path fill="none" stroke="midnightblue" d="M505.57,-116.37C527.28,-107.3 560,-93.63 584.29,-83.48"/>
<polygon fill="midnightblue" stroke="midnightblue" points="585.92,-86.59 593.8,-79.5 583.23,-80.13 585.92,-86.59"/>
</g>
<!-- Node6 -->
<g id="node6" class="node">
<title>Node6</title>
<g id="a_node6"><a xlink:title=" ">
<polygon fill="white" stroke="#bfbfbf" points="453.04,-0.5 453.04,-21.5 512.04,-21.5 512.04,-0.5 453.04,-0.5"/>
<text text-anchor="middle" x="482.54" y="-7.9" font-family="DejaVuSans" font-size="12.00">assert.h</text>
</a>
</g>
</g>
<!-- Node5&#45;&gt;Node6 -->
<g id="edge5" class="edge">
<title>Node5&#45;&gt;Node6</title>
<path fill="none" stroke="midnightblue" d="M482.54,-58.25C482.54,-50.94 482.54,-40.69 482.54,-31.7"/>
<polygon fill="midnightblue" stroke="midnightblue" points="486.04,-31.64 482.54,-21.64 479.04,-31.64 486.04,-31.64"/>
</g>
<!-- Node9 -->
<g id="node9" class="node">
<title>Node9</title>
<g id="a_node9"><a xlink:title=" ">
<polygon fill="white" stroke="#bfbfbf" points="584.04,-0.5 584.04,-21.5 649.04,-21.5 649.04,-0.5 584.04,-0.5"/>
<text text-anchor="middle" x="616.54" y="-7.9" font-family="DejaVuSans" font-size="12.00">stdbool.h</text>
</a>
</g>
</g>
<!-- Node8&#45;&gt;Node9 -->
<g id="edge8" class="edge">
<title>Node8&#45;&gt;Node9</title>
<path fill="none" stroke="midnightblue" d="M616.54,-58.25C616.54,-50.94 616.54,-40.69 616.54,-31.7"/>
<polygon fill="midnightblue" stroke="midnightblue" points="620.04,-31.64 616.54,-21.64 613.04,-31.64 620.04,-31.64"/>
</g>
<!-- Node10 -->
<g id="node10" class="node">
<title>Node10</title>
<g id="a_node10"><a xlink:title=" ">
<polygon fill="white" stroke="#bfbfbf" points="718.04,-0.5 718.04,-21.5 773.04,-21.5 773.04,-0.5 718.04,-0.5"/>
<text text-anchor="middle" x="745.54" y="-7.9" font-family="DejaVuSans" font-size="12.00">stdint.h</text>
</a>
</g>
</g>
<!-- Node8&#45;&gt;Node10 -->
<g id="edge9" class="edge">
<title>Node8&#45;&gt;Node10</title>
<path fill="none" stroke="midnightblue" d="M638.71,-58.37C659.51,-49.34 690.83,-35.75 714.18,-25.61"/>
<polygon fill="midnightblue" stroke="midnightblue" points="715.87,-28.69 723.65,-21.5 713.08,-22.27 715.87,-28.69"/>
</g>
<!-- Node11&#45;&gt;Node3 -->
<g id="edge13" class="edge">
<title>Node11&#45;&gt;Node3</title>
<path fill="none" stroke="midnightblue" d="M738.94,-293.56C761.96,-286.72 795.81,-274.1 819.54,-254 835.4,-240.56 847.62,-219.96 855.11,-204.95"/>
<polygon fill="midnightblue" stroke="midnightblue" points="858.41,-206.15 859.53,-195.61 852.09,-203.16 858.41,-206.15"/>
</g>
<!-- Node11&#45;&gt;Node4 -->
<g id="edge12" class="edge">
<title>Node11&#45;&gt;Node4</title>
<path fill="none" stroke="midnightblue" d="M714.2,-290.16C715.22,-266.5 714.28,-206.05 681.54,-174 659.19,-152.13 573.2,-138.56 521.85,-132.24"/>
<polygon fill="midnightblue" stroke="midnightblue" points="522.11,-128.74 511.76,-131.03 521.28,-135.69 522.11,-128.74"/>
</g>
<!-- Node12 -->
<g id="node12" class="node">
<title>Node12</title>
<g id="a_node12"><a xlink:title=" ">
<polygon fill="white" stroke="#bfbfbf" points="565.54,-174.5 565.54,-195.5 617.54,-195.5 617.54,-174.5 565.54,-174.5"/>
<text text-anchor="middle" x="591.54" y="-181.9" font-family="DejaVuSans" font-size="12.00">stdio.h</text>
</a>
</g>
</g>
<!-- Node11&#45;&gt;Node12 -->
<g id="edge11" class="edge">
<title>Node11&#45;&gt;Node12</title>
<path fill="none" stroke="midnightblue" d="M703.13,-290.28C682.34,-270.85 635.4,-226.99 609.52,-202.8"/>
<polygon fill="midnightblue" stroke="midnightblue" points="611.61,-199.97 601.91,-195.69 606.83,-205.08 611.61,-199.97"/>
</g>
<!-- Node13 -->
<g id="node13" class="node">
<title>Node13</title>
<g id="a_node13"><a xlink:href="tex__constant_8h.html" target="_top" xlink:title=" ">
<polygon fill="white" stroke="black" points="224.54,-174.5 224.54,-195.5 318.54,-195.5 318.54,-174.5 224.54,-174.5"/>
<text text-anchor="middle" x="271.54" y="-181.9" font-family="DejaVuSans" font-size="12.00">tex_constant.h</text>
</a>
</g>
</g>
<!-- Node11&#45;&gt;Node13 -->
<g id="edge14" class="edge">
<title>Node11&#45;&gt;Node13</title>
<path fill="none" stroke="midnightblue" d="M688.52,-298.51C617.81,-294.01 417.69,-279.35 357.54,-254 329.8,-242.31 303.52,-219.12 287.47,-203.09"/>
<polygon fill="midnightblue" stroke="midnightblue" points="289.94,-200.61 280.46,-195.88 284.92,-205.49 289.94,-200.61"/>
</g>
<!-- Node11&#45;&gt;Node14 -->
<g id="edge16" class="edge">
<title>Node11&#45;&gt;Node14</title>
<path fill="none" stroke="midnightblue" d="M688.3,-297.22C604.67,-288.02 336.52,-258.52 239.77,-247.88"/>
<polygon fill="midnightblue" stroke="midnightblue" points="239.95,-244.38 229.63,-246.76 239.19,-251.33 239.95,-244.38"/>
</g>
<!-- Node15 -->
<g id="node15" class="node">
<title>Node15</title>
<g id="a_node15"><a xlink:href="str_8h.html" target="_top" xlink:title=" ">
<polygon fill="white" stroke="black" points="772.04,-232.5 772.04,-253.5 811.04,-253.5 811.04,-232.5 772.04,-232.5"/>
<text text-anchor="middle" x="791.54" y="-239.9" font-family="DejaVuSans" font-size="12.00">str.h</text>
</a>
</g>
</g>
<!-- Node11&#45;&gt;Node15 -->
<g id="edge19" class="edge">
<title>Node11&#45;&gt;Node15</title>
<path fill="none" stroke="midnightblue" d="M727.12,-290.25C738.87,-281.81 756.06,-269.47 769.72,-259.66"/>
<polygon fill="midnightblue" stroke="midnightblue" points="772.02,-262.32 778.11,-253.64 767.94,-256.63 772.02,-262.32"/>
</g>
<!-- Node13&#45;&gt;Node7 -->
<g id="edge15" class="edge">
<title>Node13&#45;&gt;Node7</title>
<path fill="none" stroke="midnightblue" d="M277.08,-174.28C287.92,-155.27 312.09,-112.88 326.05,-88.4"/>
<polygon fill="midnightblue" stroke="midnightblue" points="329.1,-90.12 331.01,-79.69 323.01,-86.65 329.1,-90.12"/>
</g>
<!-- Node14&#45;&gt;Node4 -->
<g id="edge17" class="edge">
<title>Node14&#45;&gt;Node4</title>
<path fill="none" stroke="midnightblue" d="M202.92,-232.12C201.12,-217.31 200.22,-189.47 215.54,-174 246.71,-142.51 376.63,-132.45 443.06,-129.34"/>
<polygon fill="midnightblue" stroke="midnightblue" points="443.31,-132.83 453.15,-128.9 443,-125.84 443.31,-132.83"/>
</g>
<!-- Node14&#45;&gt;Node13 -->
<g id="edge18" class="edge">
<title>Node14&#45;&gt;Node13</title>
<path fill="none" stroke="midnightblue" d="M216.21,-232.25C226.1,-223.97 240.5,-211.94 252.13,-202.22"/>
<polygon fill="midnightblue" stroke="midnightblue" points="254.57,-204.74 260,-195.64 250.08,-199.37 254.57,-204.74"/>
</g>
<!-- Node15&#45;&gt;Node3 -->
<g id="edge23" class="edge">
<title>Node15&#45;&gt;Node3</title>
<path fill="none" stroke="midnightblue" d="M804.08,-232.25C814.82,-223.89 830.48,-211.71 843.04,-201.94"/>
<polygon fill="midnightblue" stroke="midnightblue" points="845.39,-204.54 851.14,-195.64 841.1,-199.02 845.39,-204.54"/>
</g>
<!-- Node15&#45;&gt;Node4 -->
<g id="edge22" class="edge">
<title>Node15&#45;&gt;Node4</title>
<path fill="none" stroke="midnightblue" d="M784.33,-232.32C772.56,-217.26 747.68,-188.45 719.54,-174 655.44,-141.1 570.57,-131.64 521.72,-128.98"/>
<polygon fill="midnightblue" stroke="midnightblue" points="521.73,-125.48 511.57,-128.5 521.39,-132.47 521.73,-125.48"/>
</g>
<!-- Node15&#45;&gt;Node10 -->
<g id="edge21" class="edge">
<title>Node15&#45;&gt;Node10</title>
<path fill="none" stroke="midnightblue" d="M789.62,-232.41C782.69,-197.78 758.88,-78.74 749.44,-31.52"/>
<polygon fill="midnightblue" stroke="midnightblue" points="752.86,-30.75 747.46,-21.63 745.99,-32.12 752.86,-30.75"/>
</g>
<!-- Node15&#45;&gt;Node12 -->
<g id="edge20" class="edge">
<title>Node15&#45;&gt;Node12</title>
<path fill="none" stroke="midnightblue" d="M771.78,-236.13C767.11,-234.76 762.15,-233.32 757.54,-232 712.84,-219.24 661.23,-205.02 627.58,-195.81"/>
<polygon fill="midnightblue" stroke="midnightblue" points="628.3,-192.38 617.74,-193.12 626.46,-199.13 628.3,-192.38"/>
</g>
<!-- Node16&#45;&gt;Node3 -->
<g id="edge28" class="edge">
<title>Node16&#45;&gt;Node3</title>
<path fill="none" stroke="midnightblue" d="M804.8,-292.55C820.41,-285.17 842.11,-272.32 853.54,-254 862.5,-239.62 864.6,-220.26 864.69,-205.88"/>
<polygon fill="midnightblue" stroke="midnightblue" points="868.18,-205.51 864.42,-195.6 861.18,-205.69 868.18,-205.51"/>
</g>
<!-- Node16&#45;&gt;Node4 -->
<g id="edge26" class="edge">
<title>Node16&#45;&gt;Node4</title>
<path fill="none" stroke="midnightblue" d="M804.66,-292.03C847.11,-272.31 946.43,-219.58 905.54,-174 880.14,-145.69 621.81,-133.16 521.79,-129.34"/>
<polygon fill="midnightblue" stroke="midnightblue" points="521.91,-125.84 511.78,-128.97 521.65,-132.84 521.91,-125.84"/>
</g>
<!-- Node16&#45;&gt;Node12 -->
<g id="edge25" class="edge">
<title>Node16&#45;&gt;Node12</title>
<path fill="none" stroke="midnightblue" d="M770.25,-290.48C736.19,-270.57 657.28,-224.43 616.67,-200.69"/>
<polygon fill="midnightblue" stroke="midnightblue" points="618.32,-197.6 607.92,-195.58 614.78,-203.65 618.32,-197.6"/>
</g>
<!-- Node16&#45;&gt;Node13 -->
<g id="edge27" class="edge">
<title>Node16&#45;&gt;Node13</title>
<path fill="none" stroke="midnightblue" d="M768.41,-294.75C761.88,-293.02 754.42,-291.22 747.54,-290 590.52,-262.12 541.99,-303.93 390.54,-254 372.37,-248.01 370.1,-241.57 353.54,-232 334.99,-221.28 313.9,-209.47 297.76,-200.49"/>
<polygon fill="midnightblue" stroke="midnightblue" points="299.33,-197.36 288.89,-195.57 295.93,-203.48 299.33,-197.36"/>
</g>
<!-- Node16&#45;&gt;Node15 -->
<g id="edge29" class="edge">
<title>Node16&#45;&gt;Node15</title>
<path fill="none" stroke="midnightblue" d="M787.41,-290.25C788.06,-282.94 788.97,-272.69 789.78,-263.7"/>
<polygon fill="midnightblue" stroke="midnightblue" points="793.27,-263.91 790.68,-253.64 786.3,-263.29 793.27,-263.91"/>
</g>
<!-- Node17&#45;&gt;Node4 -->
<g id="edge31" class="edge">
<title>Node17&#45;&gt;Node4</title>
<path fill="none" stroke="midnightblue" d="M969.27,-290.49C968.03,-266.49 961.18,-203.36 923.54,-174 892.17,-149.54 623.99,-134.59 521.83,-129.74"/>
<polygon fill="midnightblue" stroke="midnightblue" points="521.78,-126.23 511.63,-129.26 521.46,-133.23 521.78,-126.23"/>
</g>
<!-- Node17&#45;&gt;Node15 -->
<g id="edge32" class="edge">
<title>Node17&#45;&gt;Node15</title>
<path fill="none" stroke="midnightblue" d="M944.03,-291.98C911.54,-281.75 855.48,-264.12 821.14,-253.31"/>
<polygon fill="midnightblue" stroke="midnightblue" points="821.81,-249.86 811.22,-250.19 819.71,-256.53 821.81,-249.86"/>
</g>
<!-- Node18&#45;&gt;Node4 -->
<g id="edge35" class="edge">
<title>Node18&#45;&gt;Node4</title>
<path fill="none" stroke="midnightblue" d="M569.48,-406.17C596.8,-371.11 682.21,-250.23 626.54,-174 602.76,-141.44 555.67,-131.4 521.81,-128.57"/>
<polygon fill="midnightblue" stroke="midnightblue" points="521.97,-125.07 511.76,-127.9 521.51,-132.05 521.97,-125.07"/>
</g>
<!-- Node18&#45;&gt;Node12 -->
<g id="edge34" class="edge">
<title>Node18&#45;&gt;Node12</title>
<path fill="none" stroke="midnightblue" d="M562.79,-406.41C567.29,-371.85 582.77,-253.24 588.95,-205.82"/>
<polygon fill="midnightblue" stroke="midnightblue" points="592.46,-206 590.28,-195.63 585.52,-205.09 592.46,-206"/>
</g>
<!-- Node18&#45;&gt;Node14 -->
<g id="edge40" class="edge">
<title>Node18&#45;&gt;Node14</title>
<path fill="none" stroke="midnightblue" d="M546.56,-406.48C505.28,-380.36 390.26,-308.27 349.54,-290 313.22,-273.71 269.4,-260.65 239.5,-252.67"/>
<polygon fill="midnightblue" stroke="midnightblue" points="240.11,-249.21 229.55,-250.06 238.33,-255.98 240.11,-249.21"/>
</g>
<!-- Node19 -->
<g id="node19" class="node">
<title>Node19</title>
<g id="a_node19"><a xlink:href="lexer_8h.html" target="_top" xlink:title=" ">
<polygon fill="white" stroke="black" points="473.54,-232.5 473.54,-253.5 525.54,-253.5 525.54,-232.5 473.54,-232.5"/>
<text text-anchor="middle" x="499.54" y="-239.9" font-family="DejaVuSans" font-size="12.00">lexer.h</text>
</a>
</g>
</g>
<!-- Node18&#45;&gt;Node19 -->
<g id="edge36" class="edge">
<title>Node18&#45;&gt;Node19</title>
<path fill="none" stroke="midnightblue" d="M558.03,-406.26C548.09,-378.71 519.66,-299.83 506.45,-263.17"/>
<polygon fill="midnightblue" stroke="midnightblue" points="509.69,-261.85 503.01,-253.63 503.11,-264.23 509.69,-261.85"/>
</g>
<!-- Node20 -->
<g id="node20" class="node">
<title>Node20</title>
<g id="a_node20"><a xlink:href="hyphen_8h.html" target="_top" xlink:title=" ">
<polygon fill="white" stroke="black" points="144.54,-348.5 144.54,-369.5 210.54,-369.5 210.54,-348.5 144.54,-348.5"/>
<text text-anchor="middle" x="177.54" y="-355.9" font-family="DejaVuSans" font-size="12.00">hyphen.h</text>
</a>
</g>
</g>
<!-- Node18&#45;&gt;Node20 -->
<g id="edge41" class="edge">
<title>Node18&#45;&gt;Node20</title>
<path fill="none" stroke="midnightblue" d="M522.25,-410.27C449.86,-399.71 295.98,-377.27 220.75,-366.3"/>
<polygon fill="midnightblue" stroke="midnightblue" points="221.08,-362.81 210.68,-364.83 220.07,-369.74 221.08,-362.81"/>
</g>
<!-- Node19&#45;&gt;Node4 -->
<g id="edge38" class="edge">
<title>Node19&#45;&gt;Node4</title>
<path fill="none" stroke="midnightblue" d="M498.09,-232.28C495.3,-213.6 489.15,-172.37 485.48,-147.72"/>
<polygon fill="midnightblue" stroke="midnightblue" points="488.92,-147.07 483.98,-137.69 482,-148.1 488.92,-147.07"/>
</g>
<!-- Node19&#45;&gt;Node12 -->
<g id="edge37" class="edge">
<title>Node19&#45;&gt;Node12</title>
<path fill="none" stroke="midnightblue" d="M515.56,-232.25C529.68,-223.65 550.46,-211 566.73,-201.1"/>
<polygon fill="midnightblue" stroke="midnightblue" points="568.97,-203.83 575.69,-195.64 565.33,-197.85 568.97,-203.83"/>
</g>
<!-- Node19&#45;&gt;Node13 -->
<g id="edge39" class="edge">
<title>Node19&#45;&gt;Node13</title>
<path fill="none" stroke="midnightblue" d="M473.2,-234.34C470.28,-233.53 467.35,-232.74 464.54,-232 417.12,-219.58 362.8,-206.76 323.88,-197.82"/>
<polygon fill="midnightblue" stroke="midnightblue" points="324.37,-194.34 313.84,-195.51 322.8,-201.16 324.37,-194.34"/>
</g>
<!-- Node20&#45;&gt;Node3 -->
<g id="edge61" class="edge">
<title>Node20&#45;&gt;Node3</title>
<path fill="none" stroke="midnightblue" d="M210.94,-356.95C334.1,-352.88 758.54,-337.14 813.54,-312 846.69,-296.84 857.59,-287.68 871.54,-254 877.99,-238.42 874.83,-219.23 870.74,-205.21"/>
<polygon fill="midnightblue" stroke="midnightblue" points="874.04,-204.04 867.57,-195.65 867.39,-206.24 874.04,-204.04"/>
</g>
<!-- Node20&#45;&gt;Node4 -->
<g id="edge42" class="edge">
<title>Node20&#45;&gt;Node4</title>
<path fill="none" stroke="midnightblue" d="M144.37,-355.96C111.45,-352.22 61.55,-341.67 30.54,-312 -13.95,-269.44 -9,-207.68 42.54,-174 108.07,-131.17 348.25,-127.38 443.37,-127.62"/>
<polygon fill="midnightblue" stroke="midnightblue" points="443.42,-131.12 453.44,-127.66 443.45,-124.12 443.42,-131.12"/>
</g>
<!-- Node20&#45;&gt;Node13 -->
<g id="edge62" class="edge">
<title>Node20&#45;&gt;Node13</title>
<path fill="none" stroke="midnightblue" d="M146.66,-348.36C90.13,-329.17 -20.39,-283.58 22.54,-232 34.73,-217.35 144.73,-201.43 214.39,-192.69"/>
<polygon fill="midnightblue" stroke="midnightblue" points="214.86,-196.16 224.35,-191.45 214,-189.21 214.86,-196.16"/>
</g>
<!-- Node20&#45;&gt;Node14 -->
<g id="edge60" class="edge">
<title>Node20&#45;&gt;Node14</title>
<path fill="none" stroke="midnightblue" d="M179.84,-348.28C184.26,-329.6 194.03,-288.37 199.87,-263.72"/>
<polygon fill="midnightblue" stroke="midnightblue" points="203.34,-264.23 202.24,-253.69 196.53,-262.62 203.34,-264.23"/>
</g>
<!-- Node21 -->
<g id="node21" class="node">
<title>Node21</title>
<g id="a_node21"><a xlink:href="mem_8h.html" target="_top" xlink:title=" ">
<polygon fill="white" stroke="black" points="32.04,-232.5 32.04,-253.5 85.04,-253.5 85.04,-232.5 32.04,-232.5"/>
<text text-anchor="middle" x="58.54" y="-239.9" font-family="DejaVuSans" font-size="12.00">mem.h</text>
</a>
</g>
</g>
<!-- Node20&#45;&gt;Node21 -->
<g id="edge43" class="edge">
<title>Node20&#45;&gt;Node21</title>
<path fill="none" stroke="midnightblue" d="M164.12,-348.37C152.01,-339.46 133.95,-325.56 119.54,-312 102.51,-295.98 84.87,-275.86 72.96,-261.68"/>
<polygon fill="midnightblue" stroke="midnightblue" points="75.43,-259.17 66.35,-253.7 70.04,-263.63 75.43,-259.17"/>
</g>
<!-- Node22 -->
<g id="node22" class="node">
<title>Node22</title>
<g id="a_node22"><a xlink:href="box_8h.html" target="_top" xlink:title=" ">
<polygon fill="white" stroke="black" points="128.54,-290.5 128.54,-311.5 174.54,-311.5 174.54,-290.5 128.54,-290.5"/>
<text text-anchor="middle" x="151.54" y="-297.9" font-family="DejaVuSans" font-size="12.00">box.h</text>
</a>
</g>
</g>
<!-- Node20&#45;&gt;Node22 -->
<g id="edge46" class="edge">
<title>Node20&#45;&gt;Node22</title>
<path fill="none" stroke="midnightblue" d="M173.01,-348.25C169.5,-340.7 164.54,-330.02 160.27,-320.82"/>
<polygon fill="midnightblue" stroke="midnightblue" points="163.4,-319.24 156.01,-311.64 157.05,-322.19 163.4,-319.24"/>
</g>
<!-- Node24 -->
<g id="node24" class="node">
<title>Node24</title>
<g id="a_node24"><a xlink:href="fonts_8h.html" target="_top" xlink:title=" ">
<polygon fill="white" stroke="black" points="401.54,-290.5 401.54,-311.5 453.54,-311.5 453.54,-290.5 401.54,-290.5"/>
<text text-anchor="middle" x="427.54" y="-297.9" font-family="DejaVuSans" font-size="12.00">fonts.h</text>
</a>
</g>
</g>
<!-- Node20&#45;&gt;Node24 -->
<g id="edge52" class="edge">
<title>Node20&#45;&gt;Node24</title>
<path fill="none" stroke="midnightblue" d="M210.73,-350.56C257.63,-340.06 342.96,-320.95 391.4,-310.09"/>
<polygon fill="midnightblue" stroke="midnightblue" points="392.45,-313.45 401.44,-307.85 390.92,-306.62 392.45,-313.45"/>
</g>
<!-- Node21&#45;&gt;Node4 -->
<g id="edge44" class="edge">
<title>Node21&#45;&gt;Node4</title>
<path fill="none" stroke="midnightblue" d="M53.92,-232.26C47.74,-217.63 39.14,-190.03 53.54,-174 79.37,-145.24 342.53,-132.95 443.44,-129.27"/>
<polygon fill="midnightblue" stroke="midnightblue" points="443.66,-132.77 453.52,-128.91 443.41,-125.77 443.66,-132.77"/>
</g>
<!-- Node21&#45;&gt;Node13 -->
<g id="edge45" class="edge">
<title>Node21&#45;&gt;Node13</title>
<path fill="none" stroke="midnightblue" d="M85.08,-235.02C120.19,-225.79 182.6,-209.38 225.47,-198.11"/>
<polygon fill="midnightblue" stroke="midnightblue" points="226.6,-201.43 235.39,-195.5 224.82,-194.66 226.6,-201.43"/>
</g>
<!-- Node22&#45;&gt;Node4 -->
<g id="edge47" class="edge">
<title>Node22&#45;&gt;Node4</title>
<path fill="none" stroke="midnightblue" d="M151.96,-290.35C153.6,-266.05 161.59,-202.25 200.54,-174 238.56,-146.42 374.64,-134.47 442.9,-130.12"/>
<polygon fill="midnightblue" stroke="midnightblue" points="443.48,-133.59 453.24,-129.49 443.05,-126.61 443.48,-133.59"/>
</g>
<!-- Node22&#45;&gt;Node15 -->
<g id="edge51" class="edge">
<title>Node22&#45;&gt;Node15</title>
<path fill="none" stroke="midnightblue" d="M174.69,-297.97C272.61,-289.41 652.66,-256.15 761.97,-246.59"/>
<polygon fill="midnightblue" stroke="midnightblue" points="762.31,-250.07 771.97,-245.71 761.7,-243.1 762.31,-250.07"/>
</g>
<!-- Node22&#45;&gt;Node21 -->
<g id="edge48" class="edge">
<title>Node22&#45;&gt;Node21</title>
<path fill="none" stroke="midnightblue" d="M135.34,-290.25C120.93,-281.57 99.66,-268.76 83.16,-258.82"/>
<polygon fill="midnightblue" stroke="midnightblue" points="84.92,-255.8 74.55,-253.64 81.31,-261.8 84.92,-255.8"/>
</g>
<!-- Node23 -->
<g id="node23" class="node">
<title>Node23</title>
<g id="a_node23"><a xlink:href="texmath_8h.html" target="_top" xlink:title=" ">
<polygon fill="white" stroke="black" points="62.54,-174.5 62.54,-195.5 130.54,-195.5 130.54,-174.5 62.54,-174.5"/>
<text text-anchor="middle" x="96.54" y="-181.9" font-family="DejaVuSans" font-size="12.00">texmath.h</text>
</a>
</g>
</g>
<!-- Node22&#45;&gt;Node23 -->
<g id="edge49" class="edge">
<title>Node22&#45;&gt;Node23</title>
<path fill="none" stroke="midnightblue" d="M146.85,-290.28C137.71,-271.35 117.4,-229.25 105.57,-204.72"/>
<polygon fill="midnightblue" stroke="midnightblue" points="108.71,-203.18 101.21,-195.69 102.41,-206.22 108.71,-203.18"/>
</g>
<!-- Node23&#45;&gt;Node4 -->
<g id="edge50" class="edge">
<title>Node23&#45;&gt;Node4</title>
<path fill="none" stroke="midnightblue" d="M130.57,-176.6C135.25,-175.67 140.01,-174.78 144.54,-174 252.12,-155.5 380.02,-139.79 443.2,-132.45"/>
<polygon fill="midnightblue" stroke="midnightblue" points="443.96,-135.88 453.5,-131.26 443.16,-128.93 443.96,-135.88"/>
</g>
<!-- Node24&#45;&gt;Node4 -->
<g id="edge54" class="edge">
<title>Node24&#45;&gt;Node4</title>
<path fill="none" stroke="midnightblue" d="M416.03,-290.27C402.32,-277.42 382.25,-253.87 390.54,-232 404.62,-194.82 438.74,-162.38 461.24,-144"/>
<polygon fill="midnightblue" stroke="midnightblue" points="463.57,-146.63 469.23,-137.67 459.22,-141.14 463.57,-146.63"/>
</g>
<!-- Node24&#45;&gt;Node12 -->
<g id="edge53" class="edge">
<title>Node24&#45;&gt;Node12</title>
<path fill="none" stroke="midnightblue" d="M453.96,-292.48C476.78,-285.12 509.88,-272.34 534.54,-254 553.16,-240.14 569.62,-219.03 580,-204.01"/>
<polygon fill="midnightblue" stroke="midnightblue" points="582.99,-205.83 585.64,-195.57 577.17,-201.94 582.99,-205.83"/>
</g>
<!-- Node24&#45;&gt;Node13 -->
<g id="edge55" class="edge">
<title>Node24&#45;&gt;Node13</title>
<path fill="none" stroke="midnightblue" d="M401.27,-293.34C361.42,-283 289.47,-263.3 281.54,-254 270.31,-240.83 268.6,-220.76 269.22,-205.83"/>
<polygon fill="midnightblue" stroke="midnightblue" points="272.73,-205.86 270.03,-195.62 265.75,-205.31 272.73,-205.86"/>
</g>
<!-- Node24&#45;&gt;Node15 -->
<g id="edge56" class="edge">
<title>Node24&#45;&gt;Node15</title>
<path fill="none" stroke="midnightblue" d="M453.71,-295.97C519.63,-285.83 692.15,-259.29 761.76,-248.58"/>
<polygon fill="midnightblue" stroke="midnightblue" points="762.67,-251.98 772.02,-247 761.61,-245.06 762.67,-251.98"/>
</g>
<!-- Node24&#45;&gt;Node25 -->
<g id="edge57" class="edge">
<title>Node24&#45;&gt;Node25</title>
<path fill="none" stroke="midnightblue" d="M427.54,-290.25C427.54,-282.94 427.54,-272.69 427.54,-263.7"/>
<polygon fill="midnightblue" stroke="midnightblue" points="431.04,-263.64 427.54,-253.64 424.04,-263.64 431.04,-263.64"/>
</g>
<!-- Node25&#45;&gt;Node4 -->
<g id="edge59" class="edge">
<title>Node25&#45;&gt;Node4</title>
<path fill="none" stroke="midnightblue" d="M432.23,-232.28C441.36,-213.35 461.67,-171.25 473.5,-146.72"/>
<polygon fill="midnightblue" stroke="midnightblue" points="476.67,-148.22 477.86,-137.69 470.36,-145.18 476.67,-148.22"/>
</g>
<!-- Node25&#45;&gt;Node12 -->
<g id="edge58" class="edge">
<title>Node25&#45;&gt;Node12</title>
<path fill="none" stroke="midnightblue" d="M455.73,-232.37C483.38,-222.93 525.63,-208.5 555.66,-198.25"/>
<polygon fill="midnightblue" stroke="midnightblue" points="557,-201.49 565.33,-194.95 554.74,-194.87 557,-201.49"/>
</g>
</g>
</svg>
