<?xml version="1.0" encoding="UTF-8" standalone="no"?>
<!DOCTYPE svg PUBLIC "-//W3C//DTD SVG 1.1//EN"
 "http://www.w3.org/Graphics/SVG/1.1/DTD/svg11.dtd">
<!-- Generated by graphviz version 2.44.0 ()
 -->
<!-- Title: print.h Pages: 1 -->
<svg width="2055pt" height="146pt"
 viewBox="0.00 0.00 2054.50 146.00" xmlns="http://www.w3.org/2000/svg" xmlns:xlink="http://www.w3.org/1999/xlink">
<g id="graph0" class="graph" transform="scale(1 1) rotate(0) translate(4 142)">
<title>print.h</title>
<polygon fill="white" stroke="transparent" points="-4,4 -4,-142 2050.5,-142 2050.5,4 -4,4"/>
<!-- Node1 -->
<g id="node1" class="node">
<title>Node1</title>
<g id="a_node1"><a xlink:title=" ">
<polygon fill="#bfbfbf" stroke="black" points="1018.5,-116.5 1018.5,-137.5 1068.5,-137.5 1068.5,-116.5 1018.5,-116.5"/>
<text text-anchor="middle" x="1043.5" y="-123.9" font-family="DejaVuSans" font-size="12.00">print.h</text>
</a>
</g>
</g>
<!-- Node2 -->
<g id="node2" class="node">
<title>Node2</title>
<g id="a_node2"><a xlink:href="align_8c.html" target="_top" xlink:title=" ">
<polygon fill="white" stroke="black" points="0,-58.5 0,-79.5 51,-79.5 51,-58.5 0,-58.5"/>
<text text-anchor="middle" x="25.5" y="-65.9" font-family="DejaVuSans" font-size="12.00">align.c</text>
</a>
</g>
</g>
<!-- Node1&#45;&gt;Node2 -->
<g id="edge1" class="edge">
<title>Node1&#45;&gt;Node2</title>
<path fill="none" stroke="midnightblue" d="M1007.87,-125.44C854.33,-122.84 248.4,-110.81 60.5,-80 57.51,-79.51 54.41,-78.85 51.34,-78.11"/>
<polygon fill="midnightblue" stroke="midnightblue" points="1008.08,-128.94 1018.14,-125.61 1008.19,-121.94 1008.08,-128.94"/>
</g>
<!-- Node3 -->
<g id="node3" class="node">
<title>Node3</title>
<g id="a_node3"><a xlink:href="box__display_8c.html" target="_top" xlink:title=" ">
<polygon fill="white" stroke="black" points="69,-58.5 69,-79.5 158,-79.5 158,-58.5 69,-58.5"/>
<text text-anchor="middle" x="113.5" y="-65.9" font-family="DejaVuSans" font-size="12.00">box_display.c</text>
</a>
</g>
</g>
<!-- Node1&#45;&gt;Node3 -->
<g id="edge2" class="edge">
<title>Node1&#45;&gt;Node3</title>
<path fill="none" stroke="midnightblue" d="M1007.92,-125.84C888.57,-124.95 491.66,-119.02 166.5,-80 163.8,-79.68 161.04,-79.3 158.25,-78.88"/>
<polygon fill="midnightblue" stroke="midnightblue" points="1008.26,-129.34 1018.28,-125.91 1008.3,-122.34 1008.26,-129.34"/>
</g>
<!-- Node4 -->
<g id="node4" class="node">
<title>Node4</title>
<g id="a_node4"><a xlink:href="dviout_8c.html" target="_top" xlink:title=" ">
<polygon fill="white" stroke="black" points="175.5,-58.5 175.5,-79.5 233.5,-79.5 233.5,-58.5 175.5,-58.5"/>
<text text-anchor="middle" x="204.5" y="-65.9" font-family="DejaVuSans" font-size="12.00">dviout.c</text>
</a>
</g>
</g>
<!-- Node1&#45;&gt;Node4 -->
<g id="edge3" class="edge">
<title>Node1&#45;&gt;Node4</title>
<path fill="none" stroke="midnightblue" d="M1008.35,-126.39C896.11,-127.14 536.48,-125.54 243.5,-80 240.32,-79.51 237.03,-78.87 233.76,-78.15"/>
<polygon fill="midnightblue" stroke="midnightblue" points="1008.46,-129.89 1018.43,-126.32 1008.4,-122.89 1008.46,-129.89"/>
</g>
<!-- Node5 -->
<g id="node5" class="node">
<title>Node5</title>
<g id="a_node5"><a xlink:href="eqtb_8c.html" target="_top" xlink:title=" ">
<polygon fill="white" stroke="black" points="252,-58.5 252,-79.5 301,-79.5 301,-58.5 252,-58.5"/>
<text text-anchor="middle" x="276.5" y="-65.9" font-family="DejaVuSans" font-size="12.00">eqtb.c</text>
</a>
</g>
</g>
<!-- Node1&#45;&gt;Node5 -->
<g id="edge4" class="edge">
<title>Node1&#45;&gt;Node5</title>
<path fill="none" stroke="midnightblue" d="M1008.08,-126.56C901.61,-127.66 575.47,-126.67 310.5,-80 307.47,-79.47 304.33,-78.76 301.23,-77.97"/>
<polygon fill="midnightblue" stroke="midnightblue" points="1008.3,-130.06 1018.26,-126.44 1008.22,-123.06 1008.3,-130.06"/>
</g>
<!-- Node6 -->
<g id="node6" class="node">
<title>Node6</title>
<g id="a_node6"><a xlink:href="eqtb__save_8c.html" target="_top" xlink:title=" ">
<polygon fill="white" stroke="black" points="319,-58.5 319,-79.5 400,-79.5 400,-58.5 319,-58.5"/>
<text text-anchor="middle" x="359.5" y="-65.9" font-family="DejaVuSans" font-size="12.00">eqtb_save.c</text>
</a>
</g>
</g>
<!-- Node1&#45;&gt;Node6 -->
<g id="edge5" class="edge">
<title>Node1&#45;&gt;Node6</title>
<path fill="none" stroke="midnightblue" d="M1008.25,-124.99C911.93,-121.89 636.38,-110.8 409.5,-80 406.43,-79.58 403.26,-79.09 400.09,-78.56"/>
<polygon fill="midnightblue" stroke="midnightblue" points="1008.21,-128.49 1018.31,-125.3 1008.43,-121.49 1008.21,-128.49"/>
</g>
<!-- Node7 -->
<g id="node7" class="node">
<title>Node7</title>
<g id="a_node7"><a xlink:href="error_8c.html" target="_top" xlink:title=" ">
<polygon fill="white" stroke="black" points="418.5,-58.5 418.5,-79.5 468.5,-79.5 468.5,-58.5 418.5,-58.5"/>
<text text-anchor="middle" x="443.5" y="-65.9" font-family="DejaVuSans" font-size="12.00">error.c</text>
</a>
</g>
</g>
<!-- Node1&#45;&gt;Node7 -->
<g id="edge6" class="edge">
<title>Node1&#45;&gt;Node7</title>
<path fill="none" stroke="midnightblue" d="M1008.38,-125.54C919.14,-123.85 676.69,-116.02 478.5,-80 475.27,-79.41 471.9,-78.65 468.6,-77.81"/>
<polygon fill="midnightblue" stroke="midnightblue" points="1008.43,-129.04 1018.49,-125.71 1008.55,-122.04 1008.43,-129.04"/>
</g>
<!-- Node8 -->
<g id="node8" class="node">
<title>Node8</title>
<g id="a_node8"><a xlink:href="expand_8c.html" target="_top" xlink:title=" ">
<polygon fill="white" stroke="black" points="487,-58.5 487,-79.5 552,-79.5 552,-58.5 487,-58.5"/>
<text text-anchor="middle" x="519.5" y="-65.9" font-family="DejaVuSans" font-size="12.00">expand.c</text>
</a>
</g>
</g>
<!-- Node1&#45;&gt;Node8 -->
<g id="edge7" class="edge">
<title>Node1&#45;&gt;Node8</title>
<path fill="none" stroke="midnightblue" d="M1008.23,-124.31C928.29,-120.12 727.37,-107.53 561.5,-80 558.54,-79.51 555.48,-78.93 552.43,-78.3"/>
<polygon fill="midnightblue" stroke="midnightblue" points="1008.09,-127.81 1018.25,-124.83 1008.44,-120.82 1008.09,-127.81"/>
</g>
<!-- Node9 -->
<g id="node9" class="node">
<title>Node9</title>
<g id="a_node9"><a xlink:href="fonts_8c.html" target="_top" xlink:title=" ">
<polygon fill="white" stroke="black" points="570,-58.5 570,-79.5 621,-79.5 621,-58.5 570,-58.5"/>
<text text-anchor="middle" x="595.5" y="-65.9" font-family="DejaVuSans" font-size="12.00">fonts.c</text>
</a>
</g>
</g>
<!-- Node1&#45;&gt;Node9 -->
<g id="edge8" class="edge">
<title>Node1&#45;&gt;Node9</title>
<path fill="none" stroke="midnightblue" d="M1007.83,-124.04C935.89,-119.65 768.52,-107.2 630.5,-80 627.52,-79.41 624.43,-78.7 621.38,-77.92"/>
<polygon fill="midnightblue" stroke="midnightblue" points="1007.94,-127.56 1018.13,-124.66 1008.36,-120.57 1007.94,-127.56"/>
</g>
<!-- Node10 -->
<g id="node10" class="node">
<title>Node10</title>
<g id="a_node10"><a xlink:href="hash_8c.html" target="_top" xlink:title=" ">
<polygon fill="white" stroke="black" points="639.5,-58.5 639.5,-79.5 691.5,-79.5 691.5,-58.5 639.5,-58.5"/>
<text text-anchor="middle" x="665.5" y="-65.9" font-family="DejaVuSans" font-size="12.00">hash.c</text>
</a>
</g>
</g>
<!-- Node1&#45;&gt;Node10 -->
<g id="edge9" class="edge">
<title>Node1&#45;&gt;Node10</title>
<path fill="none" stroke="midnightblue" d="M1008.34,-122.88C946.06,-116.99 812.46,-102.76 701.5,-80 698.32,-79.35 695.01,-78.57 691.74,-77.74"/>
<polygon fill="midnightblue" stroke="midnightblue" points="1008.13,-126.37 1018.41,-123.82 1008.78,-119.4 1008.13,-126.37"/>
</g>
<!-- Node11 -->
<g id="node11" class="node">
<title>Node11</title>
<g id="a_node11"><a xlink:href="hyphen_8c.html" target="_top" xlink:title=" ">
<polygon fill="white" stroke="black" points="710,-58.5 710,-79.5 775,-79.5 775,-58.5 710,-58.5"/>
<text text-anchor="middle" x="742.5" y="-65.9" font-family="DejaVuSans" font-size="12.00">hyphen.c</text>
</a>
</g>
</g>
<!-- Node1&#45;&gt;Node11 -->
<g id="edge10" class="edge">
<title>Node1&#45;&gt;Node11</title>
<path fill="none" stroke="midnightblue" d="M1008.45,-120.44C958.55,-112.37 864.23,-96.56 784.5,-80 781.42,-79.36 778.22,-78.66 775.02,-77.94"/>
<polygon fill="midnightblue" stroke="midnightblue" points="1007.98,-123.91 1018.41,-122.04 1009.09,-116.99 1007.98,-123.91"/>
</g>
<!-- Node12 -->
<g id="node12" class="node">
<title>Node12</title>
<g id="a_node12"><a xlink:href="hyphen__init_8c.html" target="_top" xlink:title=" ">
<polygon fill="white" stroke="black" points="793.5,-58.5 793.5,-79.5 881.5,-79.5 881.5,-58.5 793.5,-58.5"/>
<text text-anchor="middle" x="837.5" y="-65.9" font-family="DejaVuSans" font-size="12.00">hyphen_init.c</text>
</a>
</g>
</g>
<!-- Node1&#45;&gt;Node12 -->
<g id="edge11" class="edge">
<title>Node1&#45;&gt;Node12</title>
<path fill="none" stroke="midnightblue" d="M1008.17,-116.4C970.27,-106.09 910.44,-89.83 872.62,-79.55"/>
<polygon fill="midnightblue" stroke="midnightblue" points="1007.67,-119.89 1018.24,-119.13 1009.51,-113.13 1007.67,-119.89"/>
</g>
<!-- Node13 -->
<g id="node13" class="node">
<title>Node13</title>
<g id="a_node13"><a xlink:href="hyphen__pre_8c.html" target="_top" xlink:title=" ">
<polygon fill="white" stroke="black" points="899,-58.5 899,-79.5 988,-79.5 988,-58.5 899,-58.5"/>
<text text-anchor="middle" x="943.5" y="-65.9" font-family="DejaVuSans" font-size="12.00">hyphen_pre.c</text>
</a>
</g>
</g>
<!-- Node1&#45;&gt;Node13 -->
<g id="edge12" class="edge">
<title>Node1&#45;&gt;Node13</title>
<path fill="none" stroke="midnightblue" d="M1017.29,-111.32C999.43,-101.32 976.28,-88.36 960.72,-79.64"/>
<polygon fill="midnightblue" stroke="midnightblue" points="1015.65,-114.41 1026.08,-116.25 1019.07,-108.31 1015.65,-114.41"/>
</g>
<!-- Node14 -->
<g id="node14" class="node">
<title>Node14</title>
<g id="a_node14"><a xlink:href="io__fname_8c.html" target="_top" xlink:title=" ">
<polygon fill="white" stroke="black" points="1006,-58.5 1006,-79.5 1081,-79.5 1081,-58.5 1006,-58.5"/>
<text text-anchor="middle" x="1043.5" y="-65.9" font-family="DejaVuSans" font-size="12.00">io_fname.c</text>
</a>
</g>
</g>
<!-- Node1&#45;&gt;Node14 -->
<g id="edge13" class="edge">
<title>Node1&#45;&gt;Node14</title>
<path fill="none" stroke="midnightblue" d="M1043.5,-106.16C1043.5,-97.16 1043.5,-86.92 1043.5,-79.64"/>
<polygon fill="midnightblue" stroke="midnightblue" points="1040,-106.25 1043.5,-116.25 1047,-106.25 1040,-106.25"/>
</g>
<!-- Node15 -->
<g id="node15" class="node">
<title>Node15</title>
<g id="a_node15"><a xlink:href="lexer_8c.html" target="_top" xlink:title=" ">
<polygon fill="white" stroke="black" points="1099,-58.5 1099,-79.5 1150,-79.5 1150,-58.5 1099,-58.5"/>
<text text-anchor="middle" x="1124.5" y="-65.9" font-family="DejaVuSans" font-size="12.00">lexer.c</text>
</a>
</g>
</g>
<!-- Node1&#45;&gt;Node15 -->
<g id="edge14" class="edge">
<title>Node1&#45;&gt;Node15</title>
<path fill="none" stroke="midnightblue" d="M1065.93,-110.49C1080.23,-100.61 1098.29,-88.12 1110.55,-79.64"/>
<polygon fill="midnightblue" stroke="midnightblue" points="1063.84,-107.68 1057.61,-116.25 1067.83,-113.44 1063.84,-107.68"/>
</g>
<!-- Node16 -->
<g id="node16" class="node">
<title>Node16</title>
<g id="a_node16"><a xlink:href="linebreak_8c.html" target="_top" xlink:title=" ">
<polygon fill="white" stroke="black" points="1168.5,-58.5 1168.5,-79.5 1242.5,-79.5 1242.5,-58.5 1168.5,-58.5"/>
<text text-anchor="middle" x="1205.5" y="-65.9" font-family="DejaVuSans" font-size="12.00">linebreak.c</text>
</a>
</g>
</g>
<!-- Node1&#45;&gt;Node16 -->
<g id="edge15" class="edge">
<title>Node1&#45;&gt;Node16</title>
<path fill="none" stroke="midnightblue" d="M1078.4,-113.94C1108.19,-103.64 1150.46,-89.03 1177.93,-79.53"/>
<polygon fill="midnightblue" stroke="midnightblue" points="1077.12,-110.67 1068.81,-117.25 1079.41,-117.29 1077.12,-110.67"/>
</g>
<!-- Node17 -->
<g id="node17" class="node">
<title>Node17</title>
<g id="a_node17"><a xlink:href="math__formula_8c.html" target="_top" xlink:title=" ">
<polygon fill="white" stroke="black" points="1260.5,-58.5 1260.5,-79.5 1358.5,-79.5 1358.5,-58.5 1260.5,-58.5"/>
<text text-anchor="middle" x="1309.5" y="-65.9" font-family="DejaVuSans" font-size="12.00">math_formula.c</text>
</a>
</g>
</g>
<!-- Node1&#45;&gt;Node17 -->
<g id="edge16" class="edge">
<title>Node1&#45;&gt;Node17</title>
<path fill="none" stroke="midnightblue" d="M1078.37,-118.66C1125.99,-108.63 1211.45,-90.64 1264.04,-79.57"/>
<polygon fill="midnightblue" stroke="midnightblue" points="1077.59,-115.25 1068.52,-120.73 1079.03,-122.1 1077.59,-115.25"/>
</g>
<!-- Node18 -->
<g id="node18" class="node">
<title>Node18</title>
<g id="a_node18"><a xlink:href="mem_8c.html" target="_top" xlink:title=" ">
<polygon fill="white" stroke="black" points="1376.5,-58.5 1376.5,-79.5 1428.5,-79.5 1428.5,-58.5 1376.5,-58.5"/>
<text text-anchor="middle" x="1402.5" y="-65.9" font-family="DejaVuSans" font-size="12.00">mem.c</text>
</a>
</g>
</g>
<!-- Node1&#45;&gt;Node18 -->
<g id="edge17" class="edge">
<title>Node1&#45;&gt;Node18</title>
<path fill="none" stroke="midnightblue" d="M1078.98,-122.57C1138.89,-116.43 1263.7,-102.09 1367.5,-80 1370.34,-79.39 1373.29,-78.68 1376.22,-77.93"/>
<polygon fill="midnightblue" stroke="midnightblue" points="1078.51,-119.1 1068.91,-123.59 1079.22,-126.07 1078.51,-119.1"/>
</g>
<!-- Node19 -->
<g id="node19" class="node">
<title>Node19</title>
<g id="a_node19"><a xlink:href="mmode_8c.html" target="_top" xlink:title=" ">
<polygon fill="white" stroke="black" points="1447,-58.5 1447,-79.5 1512,-79.5 1512,-58.5 1447,-58.5"/>
<text text-anchor="middle" x="1479.5" y="-65.9" font-family="DejaVuSans" font-size="12.00">mmode.c</text>
</a>
</g>
</g>
<!-- Node1&#45;&gt;Node19 -->
<g id="edge18" class="edge">
<title>Node1&#45;&gt;Node19</title>
<path fill="none" stroke="midnightblue" d="M1078.87,-123.27C1148.1,-117.63 1306.18,-103.22 1437.5,-80 1440.45,-79.48 1443.51,-78.88 1446.56,-78.23"/>
<polygon fill="midnightblue" stroke="midnightblue" points="1078.23,-119.81 1068.54,-124.1 1078.79,-126.79 1078.23,-119.81"/>
</g>
<!-- Node20 -->
<g id="node20" class="node">
<title>Node20</title>
<g id="a_node20"><a xlink:href="pack_8c.html" target="_top" xlink:title=" ">
<polygon fill="white" stroke="black" points="1530,-58.5 1530,-79.5 1581,-79.5 1581,-58.5 1530,-58.5"/>
<text text-anchor="middle" x="1555.5" y="-65.9" font-family="DejaVuSans" font-size="12.00">pack.c</text>
</a>
</g>
</g>
<!-- Node1&#45;&gt;Node20 -->
<g id="edge19" class="edge">
<title>Node1&#45;&gt;Node20</title>
<path fill="none" stroke="midnightblue" d="M1079.08,-124.89C1158.91,-121.88 1358.11,-111.59 1521.5,-80 1524.16,-79.49 1526.91,-78.85 1529.64,-78.16"/>
<polygon fill="midnightblue" stroke="midnightblue" points="1078.49,-121.4 1068.62,-125.26 1078.74,-128.4 1078.49,-121.4"/>
</g>
<!-- Node21 -->
<g id="node21" class="node">
<title>Node21</title>
<g id="a_node21"><a xlink:href="print_8c.html" target="_top" xlink:title=" ">
<polygon fill="white" stroke="black" points="1599,-58.5 1599,-79.5 1648,-79.5 1648,-58.5 1599,-58.5"/>
<text text-anchor="middle" x="1623.5" y="-65.9" font-family="DejaVuSans" font-size="12.00">print.c</text>
</a>
</g>
</g>
<!-- Node1&#45;&gt;Node21 -->
<g id="edge20" class="edge">
<title>Node1&#45;&gt;Node21</title>
<path fill="none" stroke="midnightblue" d="M1078.72,-125.59C1166.15,-124.04 1399.78,-116.49 1590.5,-80 1593.2,-79.48 1596,-78.83 1598.77,-78.1"/>
<polygon fill="midnightblue" stroke="midnightblue" points="1078.5,-122.1 1068.56,-125.76 1078.62,-129.1 1078.5,-122.1"/>
</g>
<!-- Node22 -->
<g id="node22" class="node">
<title>Node22</title>
<g id="a_node22"><a xlink:href="printout_8c.html" target="_top" xlink:title=" ">
<polygon fill="white" stroke="black" points="1666,-58.5 1666,-79.5 1731,-79.5 1731,-58.5 1666,-58.5"/>
<text text-anchor="middle" x="1698.5" y="-65.9" font-family="DejaVuSans" font-size="12.00">printout.c</text>
</a>
</g>
</g>
<!-- Node1&#45;&gt;Node22 -->
<g id="edge21" class="edge">
<title>Node1&#45;&gt;Node22</title>
<path fill="none" stroke="midnightblue" d="M1078.65,-125.39C1172.95,-123.3 1439.18,-114.56 1657.5,-80 1660.25,-79.56 1663.09,-79.04 1665.92,-78.46"/>
<polygon fill="midnightblue" stroke="midnightblue" points="1078.45,-121.89 1068.53,-125.6 1078.6,-128.89 1078.45,-121.89"/>
</g>
<!-- Node23 -->
<g id="node23" class="node">
<title>Node23</title>
<g id="a_node23"><a xlink:href="scan_8c.html" target="_top" xlink:title=" ">
<polygon fill="white" stroke="black" points="1749,-58.5 1749,-79.5 1800,-79.5 1800,-58.5 1749,-58.5"/>
<text text-anchor="middle" x="1774.5" y="-65.9" font-family="DejaVuSans" font-size="12.00">scan.c</text>
</a>
</g>
</g>
<!-- Node1&#45;&gt;Node23 -->
<g id="edge22" class="edge">
<title>Node1&#45;&gt;Node23</title>
<path fill="none" stroke="midnightblue" d="M1078.9,-126.4C1181.89,-126.97 1489.98,-124.55 1740.5,-80 1743.17,-79.53 1745.92,-78.92 1748.65,-78.24"/>
<polygon fill="midnightblue" stroke="midnightblue" points="1078.77,-122.9 1068.74,-126.33 1078.72,-129.9 1078.77,-122.9"/>
</g>
<!-- Node24 -->
<g id="node24" class="node">
<title>Node24</title>
<g id="a_node24"><a xlink:href="str_8c.html" target="_top" xlink:title=" ">
<polygon fill="white" stroke="black" points="1818.5,-58.5 1818.5,-79.5 1856.5,-79.5 1856.5,-58.5 1818.5,-58.5"/>
<text text-anchor="middle" x="1837.5" y="-65.9" font-family="DejaVuSans" font-size="12.00">str.c</text>
</a>
</g>
</g>
<!-- Node1&#45;&gt;Node24 -->
<g id="edge23" class="edge">
<title>Node1&#45;&gt;Node24</title>
<path fill="none" stroke="midnightblue" d="M1079.06,-125.2C1210.28,-122.03 1666.99,-109.11 1809.5,-80 1812.43,-79.4 1815.47,-78.56 1818.42,-77.62"/>
<polygon fill="midnightblue" stroke="midnightblue" points="1078.7,-121.7 1068.78,-125.44 1078.86,-128.7 1078.7,-121.7"/>
</g>
<!-- Node25 -->
<g id="node25" class="node">
<title>Node25</title>
<g id="a_node25"><a xlink:href="tex__header_8h.html" target="_top" xlink:title=" ">
<polygon fill="white" stroke="black" points="1874.5,-58.5 1874.5,-79.5 1960.5,-79.5 1960.5,-58.5 1874.5,-58.5"/>
<text text-anchor="middle" x="1917.5" y="-65.9" font-family="DejaVuSans" font-size="12.00">tex_header.h</text>
</a>
</g>
</g>
<!-- Node1&#45;&gt;Node25 -->
<g id="edge24" class="edge">
<title>Node1&#45;&gt;Node25</title>
<path fill="none" stroke="midnightblue" d="M1079.12,-125.71C1193.68,-124.41 1562.83,-117.4 1865.5,-80 1868.42,-79.64 1871.42,-79.21 1874.44,-78.74"/>
<polygon fill="midnightblue" stroke="midnightblue" points="1078.8,-122.21 1068.84,-125.82 1078.87,-129.21 1078.8,-122.21"/>
</g>
<!-- Node27 -->
<g id="node27" class="node">
<title>Node27</title>
<g id="a_node27"><a xlink:href="texmath_8c.html" target="_top" xlink:title=" ">
<polygon fill="white" stroke="black" points="1978.5,-58.5 1978.5,-79.5 2046.5,-79.5 2046.5,-58.5 1978.5,-58.5"/>
<text text-anchor="middle" x="2012.5" y="-65.9" font-family="DejaVuSans" font-size="12.00">texmath.c</text>
</a>
</g>
</g>
<!-- Node1&#45;&gt;Node27 -->
<g id="edge26" class="edge">
<title>Node1&#45;&gt;Node27</title>
<path fill="none" stroke="midnightblue" d="M1079.07,-126.51C1202.74,-127.81 1625.21,-128.19 1969.5,-80 1972.38,-79.6 1975.36,-79.09 1978.34,-78.53"/>
<polygon fill="midnightblue" stroke="midnightblue" points="1078.74,-123.01 1068.7,-126.39 1078.66,-130.01 1078.74,-123.01"/>
</g>
<!-- Node26 -->
<g id="node26" class="node">
<title>Node26</title>
<g id="a_node26"><a xlink:href="tex_8c.html" target="_top" xlink:title=" ">
<polygon fill="white" stroke="black" points="1897,-0.5 1897,-21.5 1938,-21.5 1938,-0.5 1897,-0.5"/>
<text text-anchor="middle" x="1917.5" y="-7.9" font-family="DejaVuSans" font-size="12.00">tex.c</text>
</a>
</g>
</g>
<!-- Node25&#45;&gt;Node26 -->
<g id="edge25" class="edge">
<title>Node25&#45;&gt;Node26</title>
<path fill="none" stroke="midnightblue" d="M1917.5,-48.16C1917.5,-39.16 1917.5,-28.92 1917.5,-21.64"/>
<polygon fill="midnightblue" stroke="midnightblue" points="1914,-48.25 1917.5,-58.25 1921,-48.25 1914,-48.25"/>
</g>
</g>
</svg>
