<?xml version="1.0" encoding="UTF-8" standalone="no"?>
<!DOCTYPE svg PUBLIC "-//W3C//DTD SVG 1.1//EN"
 "http://www.w3.org/Graphics/SVG/1.1/DTD/svg11.dtd">
<!-- Generated by graphviz version 2.44.0 ()
 -->
<!-- Title: print.h Pages: 1 -->
<svg width="1597pt" height="146pt"
 viewBox="0.00 0.00 1596.50 146.00" xmlns="http://www.w3.org/2000/svg" xmlns:xlink="http://www.w3.org/1999/xlink">
<g id="graph0" class="graph" transform="scale(1 1) rotate(0) translate(4 142)">
<title>print.h</title>
<polygon fill="white" stroke="transparent" points="-4,4 -4,-142 1592.5,-142 1592.5,4 -4,4"/>
<!-- Node1 -->
<g id="node1" class="node">
<title>Node1</title>
<g id="a_node1"><a xlink:title=" ">
<polygon fill="#bfbfbf" stroke="black" points="780.5,-116.5 780.5,-137.5 830.5,-137.5 830.5,-116.5 780.5,-116.5"/>
<text text-anchor="middle" x="805.5" y="-123.9" font-family="DejaVuSans" font-size="12.00">print.h</text>
</a>
</g>
</g>
<!-- Node2 -->
<g id="node2" class="node">
<title>Node2</title>
<g id="a_node2"><a xlink:href="box__display_8c.html" target="_top" xlink:title=" ">
<polygon fill="white" stroke="black" points="0,-58.5 0,-79.5 89,-79.5 89,-58.5 0,-58.5"/>
<text text-anchor="middle" x="44.5" y="-65.9" font-family="DejaVuSans" font-size="12.00">box_display.c</text>
</a>
</g>
</g>
<!-- Node1&#45;&gt;Node2 -->
<g id="edge1" class="edge">
<title>Node1&#45;&gt;Node2</title>
<path fill="none" stroke="midnightblue" d="M770.09,-125.22C666.34,-122.61 354.21,-112.44 97.5,-80 94.81,-79.66 92.04,-79.27 89.26,-78.84"/>
<polygon fill="midnightblue" stroke="midnightblue" points="770.23,-128.73 780.31,-125.47 770.4,-121.73 770.23,-128.73"/>
</g>
<!-- Node3 -->
<g id="node3" class="node">
<title>Node3</title>
<g id="a_node3"><a xlink:href="dviout_8c.html" target="_top" xlink:title=" ">
<polygon fill="white" stroke="black" points="106.5,-58.5 106.5,-79.5 164.5,-79.5 164.5,-58.5 106.5,-58.5"/>
<text text-anchor="middle" x="135.5" y="-65.9" font-family="DejaVuSans" font-size="12.00">dviout.c</text>
</a>
</g>
</g>
<!-- Node1&#45;&gt;Node3 -->
<g id="edge2" class="edge">
<title>Node1&#45;&gt;Node3</title>
<path fill="none" stroke="midnightblue" d="M770.32,-125.63C674.22,-124.14 399.41,-116.73 174.5,-80 171.33,-79.48 168.03,-78.83 164.77,-78.1"/>
<polygon fill="midnightblue" stroke="midnightblue" points="770.31,-129.13 780.36,-125.77 770.41,-122.13 770.31,-129.13"/>
</g>
<!-- Node4 -->
<g id="node4" class="node">
<title>Node4</title>
<g id="a_node4"><a xlink:href="eqtb_8c.html" target="_top" xlink:title=" ">
<polygon fill="white" stroke="black" points="183,-58.5 183,-79.5 232,-79.5 232,-58.5 183,-58.5"/>
<text text-anchor="middle" x="207.5" y="-65.9" font-family="DejaVuSans" font-size="12.00">eqtb.c</text>
</a>
</g>
</g>
<!-- Node1&#45;&gt;Node4 -->
<g id="edge3" class="edge">
<title>Node1&#45;&gt;Node4</title>
<path fill="none" stroke="midnightblue" d="M770.11,-125.62C680.73,-124.12 438.97,-116.69 241.5,-80 238.48,-79.44 235.34,-78.71 232.24,-77.91"/>
<polygon fill="midnightblue" stroke="midnightblue" points="770.19,-129.12 780.24,-125.77 770.3,-122.12 770.19,-129.12"/>
</g>
<!-- Node5 -->
<g id="node5" class="node">
<title>Node5</title>
<g id="a_node5"><a xlink:href="eqtb__save_8c.html" target="_top" xlink:title=" ">
<polygon fill="white" stroke="black" points="250,-58.5 250,-79.5 331,-79.5 331,-58.5 250,-58.5"/>
<text text-anchor="middle" x="290.5" y="-65.9" font-family="DejaVuSans" font-size="12.00">eqtb_save.c</text>
</a>
</g>
</g>
<!-- Node1&#45;&gt;Node5 -->
<g id="edge4" class="edge">
<title>Node1&#45;&gt;Node5</title>
<path fill="none" stroke="midnightblue" d="M769.95,-123.69C691.92,-118.35 499.89,-103.76 340.5,-80 337.44,-79.54 334.27,-79.02 331.1,-78.47"/>
<polygon fill="midnightblue" stroke="midnightblue" points="769.98,-127.2 780.19,-124.38 770.45,-120.21 769.98,-127.2"/>
</g>
<!-- Node6 -->
<g id="node6" class="node">
<title>Node6</title>
<g id="a_node6"><a xlink:href="error_8c.html" target="_top" xlink:title=" ">
<polygon fill="white" stroke="black" points="349.5,-58.5 349.5,-79.5 399.5,-79.5 399.5,-58.5 349.5,-58.5"/>
<text text-anchor="middle" x="374.5" y="-65.9" font-family="DejaVuSans" font-size="12.00">error.c</text>
</a>
</g>
</g>
<!-- Node1&#45;&gt;Node6 -->
<g id="edge5" class="edge">
<title>Node1&#45;&gt;Node6</title>
<path fill="none" stroke="midnightblue" d="M770.28,-123.84C700.76,-119.15 541.2,-106.28 409.5,-80 406.28,-79.36 402.92,-78.56 399.62,-77.7"/>
<polygon fill="midnightblue" stroke="midnightblue" points="770.05,-127.33 780.26,-124.5 770.51,-120.35 770.05,-127.33"/>
</g>
<!-- Node7 -->
<g id="node7" class="node">
<title>Node7</title>
<g id="a_node7"><a xlink:href="expand_8c.html" target="_top" xlink:title=" ">
<polygon fill="white" stroke="black" points="418,-58.5 418,-79.5 483,-79.5 483,-58.5 418,-58.5"/>
<text text-anchor="middle" x="450.5" y="-65.9" font-family="DejaVuSans" font-size="12.00">expand.c</text>
</a>
</g>
</g>
<!-- Node1&#45;&gt;Node7 -->
<g id="edge6" class="edge">
<title>Node1&#45;&gt;Node7</title>
<path fill="none" stroke="midnightblue" d="M770.08,-121.82C711.9,-114.73 592.53,-99.22 492.5,-80 489.56,-79.43 486.51,-78.8 483.46,-78.14"/>
<polygon fill="midnightblue" stroke="midnightblue" points="769.87,-125.32 780.22,-123.05 770.71,-118.37 769.87,-125.32"/>
</g>
<!-- Node8 -->
<g id="node8" class="node">
<title>Node8</title>
<g id="a_node8"><a xlink:href="fonts_8c.html" target="_top" xlink:title=" ">
<polygon fill="white" stroke="black" points="501,-58.5 501,-79.5 552,-79.5 552,-58.5 501,-58.5"/>
<text text-anchor="middle" x="526.5" y="-65.9" font-family="DejaVuSans" font-size="12.00">fonts.c</text>
</a>
</g>
</g>
<!-- Node1&#45;&gt;Node8 -->
<g id="edge7" class="edge">
<title>Node1&#45;&gt;Node8</title>
<path fill="none" stroke="midnightblue" d="M770.3,-120.41C722.68,-112.61 635.21,-97.44 561.5,-80 558.43,-79.27 555.22,-78.45 552.04,-77.59"/>
<polygon fill="midnightblue" stroke="midnightblue" points="769.97,-123.9 780.4,-122.05 771.09,-116.99 769.97,-123.9"/>
</g>
<!-- Node9 -->
<g id="node9" class="node">
<title>Node9</title>
<g id="a_node9"><a xlink:href="hash_8c.html" target="_top" xlink:title=" ">
<polygon fill="white" stroke="black" points="570.5,-58.5 570.5,-79.5 622.5,-79.5 622.5,-58.5 570.5,-58.5"/>
<text text-anchor="middle" x="596.5" y="-65.9" font-family="DejaVuSans" font-size="12.00">hash.c</text>
</a>
</g>
</g>
<!-- Node1&#45;&gt;Node9 -->
<g id="edge8" class="edge">
<title>Node1&#45;&gt;Node9</title>
<path fill="none" stroke="midnightblue" d="M770.53,-116.82C735.56,-107.62 680.27,-92.98 632.5,-80 629.37,-79.15 626.09,-78.25 622.84,-77.35"/>
<polygon fill="midnightblue" stroke="midnightblue" points="769.7,-120.22 780.26,-119.38 771.48,-113.45 769.7,-120.22"/>
</g>
<!-- Node10 -->
<g id="node10" class="node">
<title>Node10</title>
<g id="a_node10"><a xlink:href="io__fname_8c.html" target="_top" xlink:title=" ">
<polygon fill="white" stroke="black" points="641,-58.5 641,-79.5 716,-79.5 716,-58.5 641,-58.5"/>
<text text-anchor="middle" x="678.5" y="-65.9" font-family="DejaVuSans" font-size="12.00">io_fname.c</text>
</a>
</g>
</g>
<!-- Node1&#45;&gt;Node10 -->
<g id="edge9" class="edge">
<title>Node1&#45;&gt;Node10</title>
<path fill="none" stroke="midnightblue" d="M774.31,-112.25C751.25,-102.08 720.43,-88.49 700.05,-79.5"/>
<polygon fill="midnightblue" stroke="midnightblue" points="773.11,-115.54 783.67,-116.37 775.93,-109.14 773.11,-115.54"/>
</g>
<!-- Node11 -->
<g id="node11" class="node">
<title>Node11</title>
<g id="a_node11"><a xlink:href="lexer_8c.html" target="_top" xlink:title=" ">
<polygon fill="white" stroke="black" points="734,-58.5 734,-79.5 785,-79.5 785,-58.5 734,-58.5"/>
<text text-anchor="middle" x="759.5" y="-65.9" font-family="DejaVuSans" font-size="12.00">lexer.c</text>
</a>
</g>
</g>
<!-- Node1&#45;&gt;Node11 -->
<g id="edge10" class="edge">
<title>Node1&#45;&gt;Node11</title>
<path fill="none" stroke="midnightblue" d="M791.13,-108.5C783.3,-98.98 773.92,-87.56 767.42,-79.64"/>
<polygon fill="midnightblue" stroke="midnightblue" points="788.44,-110.74 797.49,-116.25 793.84,-106.3 788.44,-110.74"/>
</g>
<!-- Node12 -->
<g id="node12" class="node">
<title>Node12</title>
<g id="a_node12"><a xlink:href="math__formula_8c.html" target="_top" xlink:title=" ">
<polygon fill="white" stroke="black" points="802.5,-58.5 802.5,-79.5 900.5,-79.5 900.5,-58.5 802.5,-58.5"/>
<text text-anchor="middle" x="851.5" y="-65.9" font-family="DejaVuSans" font-size="12.00">math_formula.c</text>
</a>
</g>
</g>
<!-- Node1&#45;&gt;Node12 -->
<g id="edge11" class="edge">
<title>Node1&#45;&gt;Node12</title>
<path fill="none" stroke="midnightblue" d="M819.87,-108.5C827.7,-98.98 837.08,-87.56 843.58,-79.64"/>
<polygon fill="midnightblue" stroke="midnightblue" points="817.16,-106.3 813.51,-116.25 822.56,-110.74 817.16,-106.3"/>
</g>
<!-- Node13 -->
<g id="node13" class="node">
<title>Node13</title>
<g id="a_node13"><a xlink:href="mem_8c.html" target="_top" xlink:title=" ">
<polygon fill="white" stroke="black" points="918.5,-58.5 918.5,-79.5 970.5,-79.5 970.5,-58.5 918.5,-58.5"/>
<text text-anchor="middle" x="944.5" y="-65.9" font-family="DejaVuSans" font-size="12.00">mem.c</text>
</a>
</g>
</g>
<!-- Node1&#45;&gt;Node13 -->
<g id="edge12" class="edge">
<title>Node1&#45;&gt;Node13</title>
<path fill="none" stroke="midnightblue" d="M838.96,-112.52C864.28,-102.32 898.41,-88.57 920.92,-79.5"/>
<polygon fill="midnightblue" stroke="midnightblue" points="837.36,-109.39 829.39,-116.37 839.98,-115.88 837.36,-109.39"/>
</g>
<!-- Node14 -->
<g id="node14" class="node">
<title>Node14</title>
<g id="a_node14"><a xlink:href="mmode_8c.html" target="_top" xlink:title=" ">
<polygon fill="white" stroke="black" points="989,-58.5 989,-79.5 1054,-79.5 1054,-58.5 989,-58.5"/>
<text text-anchor="middle" x="1021.5" y="-65.9" font-family="DejaVuSans" font-size="12.00">mmode.c</text>
</a>
</g>
</g>
<!-- Node1&#45;&gt;Node14 -->
<g id="edge13" class="edge">
<title>Node1&#45;&gt;Node14</title>
<path fill="none" stroke="midnightblue" d="M840.51,-116.92C881.47,-106.3 948.75,-88.86 988.72,-78.5"/>
<polygon fill="midnightblue" stroke="midnightblue" points="839.5,-113.57 830.7,-119.47 841.26,-120.34 839.5,-113.57"/>
</g>
<!-- Node15 -->
<g id="node15" class="node">
<title>Node15</title>
<g id="a_node15"><a xlink:href="pack_8c.html" target="_top" xlink:title=" ">
<polygon fill="white" stroke="black" points="1072,-58.5 1072,-79.5 1123,-79.5 1123,-58.5 1072,-58.5"/>
<text text-anchor="middle" x="1097.5" y="-65.9" font-family="DejaVuSans" font-size="12.00">pack.c</text>
</a>
</g>
</g>
<!-- Node1&#45;&gt;Node15 -->
<g id="edge14" class="edge">
<title>Node1&#45;&gt;Node15</title>
<path fill="none" stroke="midnightblue" d="M840.54,-121C890.4,-113.6 984.53,-98.59 1063.5,-80 1066.25,-79.35 1069.12,-78.61 1071.96,-77.84"/>
<polygon fill="midnightblue" stroke="midnightblue" points="839.98,-117.54 830.59,-122.46 841,-124.47 839.98,-117.54"/>
</g>
<!-- Node16 -->
<g id="node16" class="node">
<title>Node16</title>
<g id="a_node16"><a xlink:href="print_8c.html" target="_top" xlink:title=" ">
<polygon fill="white" stroke="black" points="1141,-58.5 1141,-79.5 1190,-79.5 1190,-58.5 1141,-58.5"/>
<text text-anchor="middle" x="1165.5" y="-65.9" font-family="DejaVuSans" font-size="12.00">print.c</text>
</a>
</g>
</g>
<!-- Node1&#45;&gt;Node16 -->
<g id="edge15" class="edge">
<title>Node1&#45;&gt;Node16</title>
<path fill="none" stroke="midnightblue" d="M840.9,-122.83C901.24,-117.03 1027.66,-103.11 1132.5,-80 1135.19,-79.41 1137.98,-78.7 1140.74,-77.95"/>
<polygon fill="midnightblue" stroke="midnightblue" points="840.39,-119.36 830.76,-123.79 841.05,-126.33 840.39,-119.36"/>
</g>
<!-- Node17 -->
<g id="node17" class="node">
<title>Node17</title>
<g id="a_node17"><a xlink:href="printout_8c.html" target="_top" xlink:title=" ">
<polygon fill="white" stroke="black" points="1208,-58.5 1208,-79.5 1273,-79.5 1273,-58.5 1208,-58.5"/>
<text text-anchor="middle" x="1240.5" y="-65.9" font-family="DejaVuSans" font-size="12.00">printout.c</text>
</a>
</g>
</g>
<!-- Node1&#45;&gt;Node17 -->
<g id="edge16" class="edge">
<title>Node1&#45;&gt;Node17</title>
<path fill="none" stroke="midnightblue" d="M840.88,-123.34C910.13,-117.81 1068.25,-103.58 1199.5,-80 1202.24,-79.51 1205.07,-78.94 1207.9,-78.33"/>
<polygon fill="midnightblue" stroke="midnightblue" points="840.24,-119.88 830.55,-124.15 840.79,-126.86 840.24,-119.88"/>
</g>
<!-- Node18 -->
<g id="node18" class="node">
<title>Node18</title>
<g id="a_node18"><a xlink:href="scan_8c.html" target="_top" xlink:title=" ">
<polygon fill="white" stroke="black" points="1291,-58.5 1291,-79.5 1342,-79.5 1342,-58.5 1291,-58.5"/>
<text text-anchor="middle" x="1316.5" y="-65.9" font-family="DejaVuSans" font-size="12.00">scan.c</text>
</a>
</g>
</g>
<!-- Node1&#45;&gt;Node18 -->
<g id="edge17" class="edge">
<title>Node1&#45;&gt;Node18</title>
<path fill="none" stroke="midnightblue" d="M841,-124.88C920.66,-121.86 1119.45,-111.54 1282.5,-80 1285.16,-79.49 1287.91,-78.85 1290.64,-78.16"/>
<polygon fill="midnightblue" stroke="midnightblue" points="840.43,-121.4 830.57,-125.26 840.69,-128.39 840.43,-121.4"/>
</g>
<!-- Node19 -->
<g id="node19" class="node">
<title>Node19</title>
<g id="a_node19"><a xlink:href="str_8c.html" target="_top" xlink:title=" ">
<polygon fill="white" stroke="black" points="1360.5,-58.5 1360.5,-79.5 1398.5,-79.5 1398.5,-58.5 1360.5,-58.5"/>
<text text-anchor="middle" x="1379.5" y="-65.9" font-family="DejaVuSans" font-size="12.00">str.c</text>
</a>
</g>
</g>
<!-- Node1&#45;&gt;Node19 -->
<g id="edge18" class="edge">
<title>Node1&#45;&gt;Node19</title>
<path fill="none" stroke="midnightblue" d="M840.78,-126.17C928.31,-125.91 1162.08,-121.07 1351.5,-80 1354.43,-79.37 1357.46,-78.51 1360.41,-77.55"/>
<polygon fill="midnightblue" stroke="midnightblue" points="840.6,-122.67 830.6,-126.18 840.6,-129.67 840.6,-122.67"/>
</g>
<!-- Node20 -->
<g id="node20" class="node">
<title>Node20</title>
<g id="a_node20"><a xlink:href="tex__header_8h.html" target="_top" xlink:title=" ">
<polygon fill="white" stroke="black" points="1416.5,-58.5 1416.5,-79.5 1502.5,-79.5 1502.5,-58.5 1416.5,-58.5"/>
<text text-anchor="middle" x="1459.5" y="-65.9" font-family="DejaVuSans" font-size="12.00">tex_header.h</text>
</a>
</g>
</g>
<!-- Node1&#45;&gt;Node20 -->
<g id="edge19" class="edge">
<title>Node1&#45;&gt;Node20</title>
<path fill="none" stroke="midnightblue" d="M840.81,-124.71C933.87,-120.99 1193.39,-108.67 1407.5,-80 1410.42,-79.61 1413.42,-79.16 1416.43,-78.67"/>
<polygon fill="midnightblue" stroke="midnightblue" points="840.41,-121.22 830.55,-125.11 840.68,-128.21 840.41,-121.22"/>
</g>
<!-- Node22 -->
<g id="node22" class="node">
<title>Node22</title>
<g id="a_node22"><a xlink:href="texmath_8c.html" target="_top" xlink:title=" ">
<polygon fill="white" stroke="black" points="1520.5,-58.5 1520.5,-79.5 1588.5,-79.5 1588.5,-58.5 1520.5,-58.5"/>
<text text-anchor="middle" x="1554.5" y="-65.9" font-family="DejaVuSans" font-size="12.00">texmath.c</text>
</a>
</g>
</g>
<!-- Node1&#45;&gt;Node22 -->
<g id="edge21" class="edge">
<title>Node1&#45;&gt;Node22</title>
<path fill="none" stroke="midnightblue" d="M840.88,-125.73C944.53,-124.52 1256.25,-117.74 1511.5,-80 1514.38,-79.57 1517.35,-79.05 1520.33,-78.48"/>
<polygon fill="midnightblue" stroke="midnightblue" points="840.63,-122.24 830.67,-125.84 840.71,-129.24 840.63,-122.24"/>
</g>
<!-- Node21 -->
<g id="node21" class="node">
<title>Node21</title>
<g id="a_node21"><a xlink:href="tex_8c.html" target="_top" xlink:title=" ">
<polygon fill="white" stroke="black" points="1439,-0.5 1439,-21.5 1480,-21.5 1480,-0.5 1439,-0.5"/>
<text text-anchor="middle" x="1459.5" y="-7.9" font-family="DejaVuSans" font-size="12.00">tex.c</text>
</a>
</g>
</g>
<!-- Node20&#45;&gt;Node21 -->
<g id="edge20" class="edge">
<title>Node20&#45;&gt;Node21</title>
<path fill="none" stroke="midnightblue" d="M1459.5,-48.16C1459.5,-39.16 1459.5,-28.92 1459.5,-21.64"/>
<polygon fill="midnightblue" stroke="midnightblue" points="1456,-48.25 1459.5,-58.25 1463,-48.25 1456,-48.25"/>
</g>
</g>
</svg>
