<?xml version="1.0" encoding="UTF-8" standalone="no"?>
<!DOCTYPE svg PUBLIC "-//W3C//DTD SVG 1.1//EN"
 "http://www.w3.org/Graphics/SVG/1.1/DTD/svg11.dtd">
<!-- Generated by graphviz version 2.44.0 ()
 -->
<!-- Title: print.c Pages: 1 -->
<svg width="535pt" height="726pt"
 viewBox="0.00 0.00 534.50 726.00" xmlns="http://www.w3.org/2000/svg" xmlns:xlink="http://www.w3.org/1999/xlink">
<g id="graph0" class="graph" transform="scale(1 1) rotate(0) translate(4 722)">
<title>print.c</title>
<polygon fill="white" stroke="transparent" points="-4,4 -4,-722 530.5,-722 530.5,4 -4,4"/>
<!-- Node1 -->
<g id="node1" class="node">
<title>Node1</title>
<g id="a_node1"><a xlink:title=" ">
<polygon fill="#bfbfbf" stroke="black" points="294.5,-696.5 294.5,-717.5 343.5,-717.5 343.5,-696.5 294.5,-696.5"/>
<text text-anchor="middle" x="319" y="-703.9" font-family="DejaVuSans" font-size="12.00">print.c</text>
</a>
</g>
</g>
<!-- Node2 -->
<g id="node2" class="node">
<title>Node2</title>
<g id="a_node2"><a xlink:title=" ">
<polygon fill="white" stroke="#bfbfbf" points="0,-638.5 0,-659.5 54,-659.5 54,-638.5 0,-638.5"/>
<text text-anchor="middle" x="27" y="-645.9" font-family="DejaVuSans" font-size="12.00">stdlib.h</text>
</a>
</g>
</g>
<!-- Node1&#45;&gt;Node2 -->
<g id="edge1" class="edge">
<title>Node1&#45;&gt;Node2</title>
<path fill="none" stroke="midnightblue" d="M294.32,-701.97C249.23,-694.49 150.54,-677.61 68,-660 66.75,-659.73 65.48,-659.46 64.2,-659.17"/>
<polygon fill="midnightblue" stroke="midnightblue" points="64.83,-655.73 54.3,-656.89 63.26,-662.55 64.83,-655.73"/>
</g>
<!-- Node3 -->
<g id="node3" class="node">
<title>Node3</title>
<g id="a_node3"><a xlink:href="global__const_8h.html" target="_top" xlink:title=" ">
<polygon fill="white" stroke="black" points="433.5,-58.5 433.5,-79.5 526.5,-79.5 526.5,-58.5 433.5,-58.5"/>
<text text-anchor="middle" x="480" y="-65.9" font-family="DejaVuSans" font-size="12.00">global_const.h</text>
</a>
</g>
</g>
<!-- Node1&#45;&gt;Node3 -->
<g id="edge2" class="edge">
<title>Node1&#45;&gt;Node3</title>
<path fill="none" stroke="midnightblue" d="M343.69,-704.81C375.25,-701.95 429.55,-692.31 461,-660 482.97,-637.42 481,-623.5 481,-592 481,-592 481,-592 481,-184 481,-150.98 480.58,-112.59 480.28,-89.85"/>
<polygon fill="midnightblue" stroke="midnightblue" points="483.78,-89.71 480.14,-79.76 476.78,-89.81 483.78,-89.71"/>
</g>
<!-- Node6 -->
<g id="node6" class="node">
<title>Node6</title>
<g id="a_node6"><a xlink:href="print_8h.html" target="_top" xlink:title=" ">
<polygon fill="white" stroke="black" points="217,-638.5 217,-659.5 267,-659.5 267,-638.5 217,-638.5"/>
<text text-anchor="middle" x="242" y="-645.9" font-family="DejaVuSans" font-size="12.00">print.h</text>
</a>
</g>
</g>
<!-- Node1&#45;&gt;Node6 -->
<g id="edge5" class="edge">
<title>Node1&#45;&gt;Node6</title>
<path fill="none" stroke="midnightblue" d="M305.59,-696.25C293.99,-687.81 277.03,-675.47 263.53,-665.66"/>
<polygon fill="midnightblue" stroke="midnightblue" points="265.4,-662.69 255.26,-659.64 261.29,-668.36 265.4,-662.69"/>
</g>
<!-- Node16 -->
<g id="node16" class="node">
<title>Node16</title>
<g id="a_node16"><a xlink:href="global_8h.html" target="_top" xlink:title=" ">
<polygon fill="white" stroke="black" points="290,-464.5 290,-485.5 348,-485.5 348,-464.5 290,-464.5"/>
<text text-anchor="middle" x="319" y="-471.9" font-family="DejaVuSans" font-size="12.00">global.h</text>
</a>
</g>
</g>
<!-- Node1&#45;&gt;Node16 -->
<g id="edge29" class="edge">
<title>Node1&#45;&gt;Node16</title>
<path fill="none" stroke="midnightblue" d="M319,-696.41C319,-661.85 319,-543.24 319,-495.82"/>
<polygon fill="midnightblue" stroke="midnightblue" points="322.5,-495.63 319,-485.63 315.5,-495.63 322.5,-495.63"/>
</g>
<!-- Node20 -->
<g id="node20" class="node">
<title>Node20</title>
<g id="a_node20"><a xlink:href="io_8h.html" target="_top" xlink:title=" ">
<polygon fill="white" stroke="black" points="347,-638.5 347,-659.5 383,-659.5 383,-638.5 347,-638.5"/>
<text text-anchor="middle" x="365" y="-645.9" font-family="DejaVuSans" font-size="12.00">io.h</text>
</a>
</g>
</g>
<!-- Node1&#45;&gt;Node20 -->
<g id="edge30" class="edge">
<title>Node1&#45;&gt;Node20</title>
<path fill="none" stroke="midnightblue" d="M327.01,-696.25C333.48,-688.38 342.74,-677.1 350.5,-667.65"/>
<polygon fill="midnightblue" stroke="midnightblue" points="353.44,-669.59 357.08,-659.64 348.03,-665.15 353.44,-669.59"/>
</g>
<!-- Node21 -->
<g id="node21" class="node">
<title>Node21</title>
<g id="a_node21"><a xlink:href="error_8h.html" target="_top" xlink:title=" ">
<polygon fill="white" stroke="black" points="401.5,-638.5 401.5,-659.5 452.5,-659.5 452.5,-638.5 401.5,-638.5"/>
<text text-anchor="middle" x="427" y="-645.9" font-family="DejaVuSans" font-size="12.00">error.h</text>
</a>
</g>
</g>
<!-- Node1&#45;&gt;Node21 -->
<g id="edge31" class="edge">
<title>Node1&#45;&gt;Node21</title>
<path fill="none" stroke="midnightblue" d="M337.81,-696.25C354.85,-687.41 380.16,-674.29 399.47,-664.28"/>
<polygon fill="midnightblue" stroke="midnightblue" points="401.14,-667.35 408.4,-659.64 397.91,-661.14 401.14,-667.35"/>
</g>
<!-- Node22 -->
<g id="node22" class="node">
<title>Node22</title>
<g id="a_node22"><a xlink:href="eqtb_8h.html" target="_top" xlink:title=" ">
<polygon fill="white" stroke="black" points="101,-290.5 101,-311.5 151,-311.5 151,-290.5 101,-290.5"/>
<text text-anchor="middle" x="126" y="-297.9" font-family="DejaVuSans" font-size="12.00">eqtb.h</text>
</a>
</g>
</g>
<!-- Node1&#45;&gt;Node22 -->
<g id="edge32" class="edge">
<title>Node1&#45;&gt;Node22</title>
<path fill="none" stroke="midnightblue" d="M294.45,-699.98C253.91,-688.6 174,-659.7 139,-602 109.25,-552.95 111,-533.37 111,-476 111,-476 111,-476 111,-416 111,-382.7 117.37,-344.39 121.81,-321.74"/>
<polygon fill="midnightblue" stroke="midnightblue" points="125.29,-322.2 123.85,-311.7 118.43,-320.8 125.29,-322.2"/>
</g>
<!-- Node4 -->
<g id="node4" class="node">
<title>Node4</title>
<g id="a_node4"><a xlink:title=" ">
<polygon fill="white" stroke="#bfbfbf" points="450.5,-0.5 450.5,-21.5 509.5,-21.5 509.5,-0.5 450.5,-0.5"/>
<text text-anchor="middle" x="480" y="-7.9" font-family="DejaVuSans" font-size="12.00">assert.h</text>
</a>
</g>
</g>
<!-- Node3&#45;&gt;Node4 -->
<g id="edge3" class="edge">
<title>Node3&#45;&gt;Node4</title>
<path fill="none" stroke="midnightblue" d="M480,-58.25C480,-50.94 480,-40.69 480,-31.7"/>
<polygon fill="midnightblue" stroke="midnightblue" points="483.5,-31.64 480,-21.64 476.5,-31.64 483.5,-31.64"/>
</g>
<!-- Node5 -->
<g id="node5" class="node">
<title>Node5</title>
<g id="a_node5"><a xlink:title=" ">
<polygon fill="white" stroke="#bfbfbf" points="379,-0.5 379,-21.5 431,-21.5 431,-0.5 379,-0.5"/>
<text text-anchor="middle" x="405" y="-7.9" font-family="DejaVuSans" font-size="12.00">stdio.h</text>
</a>
</g>
</g>
<!-- Node3&#45;&gt;Node5 -->
<g id="edge4" class="edge">
<title>Node3&#45;&gt;Node5</title>
<path fill="none" stroke="midnightblue" d="M466.94,-58.25C455.64,-49.81 439.12,-37.47 425.97,-27.66"/>
<polygon fill="midnightblue" stroke="midnightblue" points="428.02,-24.82 417.91,-21.64 423.83,-30.43 428.02,-24.82"/>
</g>
<!-- Node7 -->
<g id="node7" class="node">
<title>Node7</title>
<g id="a_node7"><a xlink:href="tex__types_8h.html" target="_top" xlink:title=" ">
<polygon fill="white" stroke="black" points="176.5,-58.5 176.5,-79.5 253.5,-79.5 253.5,-58.5 176.5,-58.5"/>
<text text-anchor="middle" x="215" y="-65.9" font-family="DejaVuSans" font-size="12.00">tex_types.h</text>
</a>
</g>
</g>
<!-- Node6&#45;&gt;Node7 -->
<g id="edge6" class="edge">
<title>Node6&#45;&gt;Node7</title>
<path fill="none" stroke="midnightblue" d="M216.88,-641.87C194.22,-635.26 161.12,-622.78 139,-602 92.92,-558.72 73,-539.22 73,-476 73,-476 73,-476 73,-184 73,-131.65 132.42,-99.32 174.38,-83.02"/>
<polygon fill="midnightblue" stroke="midnightblue" points="175.69,-86.27 183.84,-79.5 173.24,-79.71 175.69,-86.27"/>
</g>
<!-- Node10 -->
<g id="node10" class="node">
<title>Node10</title>
<g id="a_node10"><a xlink:href="tex_8h.html" target="_top" xlink:title=" ">
<polygon fill="white" stroke="black" points="242,-290.5 242,-311.5 284,-311.5 284,-290.5 242,-290.5"/>
<text text-anchor="middle" x="263" y="-297.9" font-family="DejaVuSans" font-size="12.00">tex.h</text>
</a>
</g>
</g>
<!-- Node6&#45;&gt;Node10 -->
<g id="edge9" class="edge">
<title>Node6&#45;&gt;Node10</title>
<path fill="none" stroke="midnightblue" d="M239.89,-638.43C231.98,-600.66 205.94,-458.59 236,-348 238.72,-338 244.22,-327.96 249.55,-319.81"/>
<polygon fill="midnightblue" stroke="midnightblue" points="252.48,-321.74 255.34,-311.53 246.74,-317.72 252.48,-321.74"/>
</g>
<!-- Node13 -->
<g id="node13" class="node">
<title>Node13</title>
<g id="a_node13"><a xlink:href="str_8h.html" target="_top" xlink:title=" ">
<polygon fill="white" stroke="black" points="395.5,-116.5 395.5,-137.5 434.5,-137.5 434.5,-116.5 395.5,-116.5"/>
<text text-anchor="middle" x="415" y="-123.9" font-family="DejaVuSans" font-size="12.00">str.h</text>
</a>
</g>
</g>
<!-- Node6&#45;&gt;Node13 -->
<g id="edge28" class="edge">
<title>Node6&#45;&gt;Node13</title>
<path fill="none" stroke="midnightblue" d="M255.82,-638.29C301.23,-605.13 443,-491.09 443,-360 443,-360 443,-360 443,-242 443,-207.85 431,-169.56 422.71,-147.18"/>
<polygon fill="midnightblue" stroke="midnightblue" points="425.87,-145.64 419.01,-137.56 419.34,-148.15 425.87,-145.64"/>
</g>
<!-- Node14 -->
<g id="node14" class="node">
<title>Node14</title>
<g id="a_node14"><a xlink:href="texmac_8h.html" target="_top" xlink:title=" ">
<polygon fill="white" stroke="black" points="148.5,-580.5 148.5,-601.5 213.5,-601.5 213.5,-580.5 148.5,-580.5"/>
<text text-anchor="middle" x="181" y="-587.9" font-family="DejaVuSans" font-size="12.00">texmac.h</text>
</a>
</g>
</g>
<!-- Node6&#45;&gt;Node14 -->
<g id="edge18" class="edge">
<title>Node6&#45;&gt;Node14</title>
<path fill="none" stroke="midnightblue" d="M231.37,-638.25C222.45,-630.05 209.51,-618.17 198.98,-608.51"/>
<polygon fill="midnightblue" stroke="midnightblue" points="201.24,-605.83 191.5,-601.64 196.5,-610.98 201.24,-605.83"/>
</g>
<!-- Node8 -->
<g id="node8" class="node">
<title>Node8</title>
<g id="a_node8"><a xlink:title=" ">
<polygon fill="white" stroke="#bfbfbf" points="182.5,-0.5 182.5,-21.5 247.5,-21.5 247.5,-0.5 182.5,-0.5"/>
<text text-anchor="middle" x="215" y="-7.9" font-family="DejaVuSans" font-size="12.00">stdbool.h</text>
</a>
</g>
</g>
<!-- Node7&#45;&gt;Node8 -->
<g id="edge7" class="edge">
<title>Node7&#45;&gt;Node8</title>
<path fill="none" stroke="midnightblue" d="M215,-58.25C215,-50.94 215,-40.69 215,-31.7"/>
<polygon fill="midnightblue" stroke="midnightblue" points="218.5,-31.64 215,-21.64 211.5,-31.64 218.5,-31.64"/>
</g>
<!-- Node9 -->
<g id="node9" class="node">
<title>Node9</title>
<g id="a_node9"><a xlink:title=" ">
<polygon fill="white" stroke="#bfbfbf" points="283.5,-0.5 283.5,-21.5 338.5,-21.5 338.5,-0.5 283.5,-0.5"/>
<text text-anchor="middle" x="311" y="-7.9" font-family="DejaVuSans" font-size="12.00">stdint.h</text>
</a>
</g>
</g>
<!-- Node7&#45;&gt;Node9 -->
<g id="edge8" class="edge">
<title>Node7&#45;&gt;Node9</title>
<path fill="none" stroke="midnightblue" d="M231.72,-58.25C246.59,-49.57 268.55,-36.76 285.59,-26.82"/>
<polygon fill="midnightblue" stroke="midnightblue" points="287.6,-29.7 294.47,-21.64 284.07,-23.66 287.6,-29.7"/>
</g>
<!-- Node10&#45;&gt;Node7 -->
<g id="edge10" class="edge">
<title>Node10&#45;&gt;Node7</title>
<path fill="none" stroke="midnightblue" d="M278,-290.33C289.16,-282.17 303.54,-269.37 310,-254 318.34,-234.17 302.47,-183.53 298,-174 281.7,-139.26 251.6,-105.82 232.48,-86.61"/>
<polygon fill="midnightblue" stroke="midnightblue" points="234.85,-84.04 225.27,-79.52 229.95,-89.03 234.85,-84.04"/>
</g>
<!-- Node11 -->
<g id="node11" class="node">
<title>Node11</title>
<g id="a_node11"><a xlink:href="tex__constant_8h.html" target="_top" xlink:title=" ">
<polygon fill="white" stroke="black" points="207,-232.5 207,-253.5 301,-253.5 301,-232.5 207,-232.5"/>
<text text-anchor="middle" x="254" y="-239.9" font-family="DejaVuSans" font-size="12.00">tex_constant.h</text>
</a>
</g>
</g>
<!-- Node10&#45;&gt;Node11 -->
<g id="edge11" class="edge">
<title>Node10&#45;&gt;Node11</title>
<path fill="none" stroke="midnightblue" d="M261.43,-290.25C260.26,-282.94 258.61,-272.69 257.17,-263.7"/>
<polygon fill="midnightblue" stroke="midnightblue" points="260.59,-262.96 255.55,-253.64 253.68,-264.07 260.59,-262.96"/>
</g>
<!-- Node12 -->
<g id="node12" class="node">
<title>Node12</title>
<g id="a_node12"><a xlink:href="box_8h.html" target="_top" xlink:title=" ">
<polygon fill="white" stroke="black" points="243,-174.5 243,-195.5 289,-195.5 289,-174.5 243,-174.5"/>
<text text-anchor="middle" x="266" y="-181.9" font-family="DejaVuSans" font-size="12.00">box.h</text>
</a>
</g>
</g>
<!-- Node11&#45;&gt;Node12 -->
<g id="edge12" class="edge">
<title>Node11&#45;&gt;Node12</title>
<path fill="none" stroke="midnightblue" d="M256.09,-232.25C257.66,-224.94 259.85,-214.69 261.78,-205.7"/>
<polygon fill="midnightblue" stroke="midnightblue" points="265.26,-206.15 263.93,-195.64 258.42,-204.69 265.26,-206.15"/>
</g>
<!-- Node12&#45;&gt;Node13 -->
<g id="edge13" class="edge">
<title>Node12&#45;&gt;Node13</title>
<path fill="none" stroke="midnightblue" d="M289.28,-175.25C315.23,-165.5 357.25,-149.7 385.49,-139.09"/>
<polygon fill="midnightblue" stroke="midnightblue" points="387.08,-142.23 395.21,-135.44 384.62,-135.68 387.08,-142.23"/>
</g>
<!-- Node13&#45;&gt;Node3 -->
<g id="edge16" class="edge">
<title>Node13&#45;&gt;Node3</title>
<path fill="none" stroke="midnightblue" d="M426.32,-116.25C435.92,-107.97 449.89,-95.94 461.17,-86.22"/>
<polygon fill="midnightblue" stroke="midnightblue" points="463.52,-88.82 468.81,-79.64 458.95,-83.52 463.52,-88.82"/>
</g>
<!-- Node13&#45;&gt;Node5 -->
<g id="edge14" class="edge">
<title>Node13&#45;&gt;Node5</title>
<path fill="none" stroke="midnightblue" d="M414.15,-116.28C412.51,-97.6 408.89,-56.37 406.73,-31.72"/>
<polygon fill="midnightblue" stroke="midnightblue" points="410.21,-31.35 405.85,-21.69 403.24,-31.96 410.21,-31.35"/>
</g>
<!-- Node13&#45;&gt;Node7 -->
<g id="edge17" class="edge">
<title>Node13&#45;&gt;Node7</title>
<path fill="none" stroke="midnightblue" d="M395.46,-120.53C364.07,-111.74 301.61,-94.25 259.07,-82.34"/>
<polygon fill="midnightblue" stroke="midnightblue" points="259.82,-78.92 249.25,-79.59 257.93,-85.66 259.82,-78.92"/>
</g>
<!-- Node13&#45;&gt;Node9 -->
<g id="edge15" class="edge">
<title>Node13&#45;&gt;Node9</title>
<path fill="none" stroke="midnightblue" d="M406.13,-116.28C388.48,-96.93 348.74,-53.37 326.61,-29.12"/>
<polygon fill="midnightblue" stroke="midnightblue" points="329.17,-26.72 319.84,-21.69 324,-31.44 329.17,-26.72"/>
</g>
<!-- Node15 -->
<g id="node15" class="node">
<title>Node15</title>
<g id="a_node15"><a xlink:href="mem_8h.html" target="_top" xlink:title=" ">
<polygon fill="white" stroke="black" points="154.5,-522.5 154.5,-543.5 207.5,-543.5 207.5,-522.5 154.5,-522.5"/>
<text text-anchor="middle" x="181" y="-529.9" font-family="DejaVuSans" font-size="12.00">mem.h</text>
</a>
</g>
</g>
<!-- Node14&#45;&gt;Node15 -->
<g id="edge19" class="edge">
<title>Node14&#45;&gt;Node15</title>
<path fill="none" stroke="midnightblue" d="M181,-580.25C181,-572.94 181,-562.69 181,-553.7"/>
<polygon fill="midnightblue" stroke="midnightblue" points="184.5,-553.64 181,-543.64 177.5,-553.64 184.5,-553.64"/>
</g>
<!-- Node15&#45;&gt;Node7 -->
<g id="edge20" class="edge">
<title>Node15&#45;&gt;Node7</title>
<path fill="none" stroke="midnightblue" d="M180.71,-522.24C180.16,-502.54 179,-456.6 179,-418 179,-418 179,-418 179,-184 179,-149.08 194.55,-110.83 205.21,-88.7"/>
<polygon fill="midnightblue" stroke="midnightblue" points="208.35,-90.25 209.69,-79.74 202.09,-87.12 208.35,-90.25"/>
</g>
<!-- Node15&#45;&gt;Node16 -->
<g id="edge21" class="edge">
<title>Node15&#45;&gt;Node16</title>
<path fill="none" stroke="midnightblue" d="M204.72,-522.37C227.17,-513.26 261.07,-499.51 286.13,-489.34"/>
<polygon fill="midnightblue" stroke="midnightblue" points="287.64,-492.5 295.59,-485.5 285,-486.02 287.64,-492.5"/>
</g>
<!-- Node16&#45;&gt;Node13 -->
<g id="edge23" class="edge">
<title>Node16&#45;&gt;Node13</title>
<path fill="none" stroke="midnightblue" d="M340.09,-464.45C355.01,-456.67 374.35,-444.3 386,-428 404.25,-402.48 405,-391.38 405,-360 405,-360 405,-360 405,-242 405,-208.86 409.25,-170.5 412.2,-147.8"/>
<polygon fill="midnightblue" stroke="midnightblue" points="415.69,-148.11 413.57,-137.73 408.76,-147.17 415.69,-148.11"/>
</g>
<!-- Node17 -->
<g id="node17" class="node">
<title>Node17</title>
<g id="a_node17"><a xlink:title=" ">
<polygon fill="white" stroke="#bfbfbf" points="315,-406.5 315,-427.5 377,-427.5 377,-406.5 315,-406.5"/>
<text text-anchor="middle" x="346" y="-413.9" font-family="DejaVuSans" font-size="12.00">setjmp.h</text>
</a>
</g>
</g>
<!-- Node16&#45;&gt;Node17 -->
<g id="edge22" class="edge">
<title>Node16&#45;&gt;Node17</title>
<path fill="none" stroke="midnightblue" d="M323.7,-464.25C327.34,-456.7 332.49,-446.02 336.93,-436.82"/>
<polygon fill="midnightblue" stroke="midnightblue" points="340.16,-438.17 341.35,-427.64 333.86,-435.13 340.16,-438.17"/>
</g>
<!-- Node18 -->
<g id="node18" class="node">
<title>Node18</title>
<g id="a_node18"><a xlink:href="scan_8h.html" target="_top" xlink:title=" ">
<polygon fill="white" stroke="black" points="245,-406.5 245,-427.5 297,-427.5 297,-406.5 245,-406.5"/>
<text text-anchor="middle" x="271" y="-413.9" font-family="DejaVuSans" font-size="12.00">scan.h</text>
</a>
</g>
</g>
<!-- Node16&#45;&gt;Node18 -->
<g id="edge24" class="edge">
<title>Node16&#45;&gt;Node18</title>
<path fill="none" stroke="midnightblue" d="M310.64,-464.25C303.82,-456.3 294.03,-444.87 285.88,-435.37"/>
<polygon fill="midnightblue" stroke="midnightblue" points="288.43,-432.96 279.27,-427.64 283.12,-437.51 288.43,-432.96"/>
</g>
<!-- Node19 -->
<g id="node19" class="node">
<title>Node19</title>
<g id="a_node19"><a xlink:href="lexer_8h.html" target="_top" xlink:title=" ">
<polygon fill="white" stroke="black" points="245,-348.5 245,-369.5 297,-369.5 297,-348.5 245,-348.5"/>
<text text-anchor="middle" x="271" y="-355.9" font-family="DejaVuSans" font-size="12.00">lexer.h</text>
</a>
</g>
</g>
<!-- Node18&#45;&gt;Node19 -->
<g id="edge25" class="edge">
<title>Node18&#45;&gt;Node19</title>
<path fill="none" stroke="midnightblue" d="M271,-406.25C271,-398.94 271,-388.69 271,-379.7"/>
<polygon fill="midnightblue" stroke="midnightblue" points="274.5,-379.64 271,-369.64 267.5,-379.64 274.5,-379.64"/>
</g>
<!-- Node19&#45;&gt;Node5 -->
<g id="edge26" class="edge">
<title>Node19&#45;&gt;Node5</title>
<path fill="none" stroke="midnightblue" d="M287.72,-348.44C315.23,-331.32 367,-292.64 367,-244 367,-244 367,-244 367,-126 367,-90.9 383.41,-52.7 394.66,-30.63"/>
<polygon fill="midnightblue" stroke="midnightblue" points="397.81,-32.17 399.39,-21.7 391.62,-28.9 397.81,-32.17"/>
</g>
<!-- Node19&#45;&gt;Node10 -->
<g id="edge27" class="edge">
<title>Node19&#45;&gt;Node10</title>
<path fill="none" stroke="midnightblue" d="M269.61,-348.25C268.56,-340.94 267.1,-330.69 265.81,-321.7"/>
<polygon fill="midnightblue" stroke="midnightblue" points="269.26,-321.05 264.38,-311.64 262.33,-322.04 269.26,-321.05"/>
</g>
<!-- Node22&#45;&gt;Node7 -->
<g id="edge33" class="edge">
<title>Node22&#45;&gt;Node7</title>
<path fill="none" stroke="midnightblue" d="M126.03,-290.49C126.51,-262.04 130.89,-175.86 165,-116 171.75,-104.15 182.61,-93.62 192.48,-85.64"/>
<polygon fill="midnightblue" stroke="midnightblue" points="194.61,-88.41 200.43,-79.55 190.36,-82.85 194.61,-88.41"/>
</g>
<!-- Node22&#45;&gt;Node11 -->
<g id="edge34" class="edge">
<title>Node22&#45;&gt;Node11</title>
<path fill="none" stroke="midnightblue" d="M148,-290.37C168.64,-281.34 199.72,-267.75 222.89,-257.61"/>
<polygon fill="midnightblue" stroke="midnightblue" points="224.52,-260.72 232.28,-253.5 221.72,-254.3 224.52,-260.72"/>
</g>
</g>
</svg>
