<?xml version="1.0" encoding="UTF-8" standalone="no"?>
<!DOCTYPE svg PUBLIC "-//W3C//DTD SVG 1.1//EN"
 "http://www.w3.org/Graphics/SVG/1.1/DTD/svg11.dtd">
<!-- Generated by graphviz version 2.44.0 ()
 -->
<!-- Title: print.h Pages: 1 -->
<svg width="460pt" height="668pt"
 viewBox="0.00 0.00 459.50 668.00" xmlns="http://www.w3.org/2000/svg" xmlns:xlink="http://www.w3.org/1999/xlink">
<g id="graph0" class="graph" transform="scale(1 1) rotate(0) translate(4 664)">
<title>print.h</title>
<polygon fill="white" stroke="transparent" points="-4,4 -4,-664 455.5,-664 455.5,4 -4,4"/>
<!-- Node1 -->
<g id="node1" class="node">
<title>Node1</title>
<g id="a_node1"><a xlink:title=" ">
<polygon fill="#bfbfbf" stroke="black" points="83.5,-638.5 83.5,-659.5 133.5,-659.5 133.5,-638.5 83.5,-638.5"/>
<text text-anchor="middle" x="108.5" y="-645.9" font-family="DejaVuSans" font-size="12.00">print.h</text>
</a>
</g>
</g>
<!-- Node2 -->
<g id="node2" class="node">
<title>Node2</title>
<g id="a_node2"><a xlink:href="tex__types_8h.html" target="_top" xlink:title=" ">
<polygon fill="white" stroke="black" points="5,-58.5 5,-79.5 82,-79.5 82,-58.5 5,-58.5"/>
<text text-anchor="middle" x="43.5" y="-65.9" font-family="DejaVuSans" font-size="12.00">tex_types.h</text>
</a>
</g>
</g>
<!-- Node1&#45;&gt;Node2 -->
<g id="edge1" class="edge">
<title>Node1&#45;&gt;Node2</title>
<path fill="none" stroke="midnightblue" d="M89.06,-638.37C58.46,-621.67 2.5,-584.27 2.5,-534 2.5,-534 2.5,-534 2.5,-184 2.5,-148.62 20.21,-110.51 32.35,-88.53"/>
<polygon fill="midnightblue" stroke="midnightblue" points="35.51,-90.06 37.45,-79.64 29.44,-86.57 35.51,-90.06"/>
</g>
<!-- Node5 -->
<g id="node5" class="node">
<title>Node5</title>
<g id="a_node5"><a xlink:href="tex_8h.html" target="_top" xlink:title=" ">
<polygon fill="white" stroke="black" points="100.5,-290.5 100.5,-311.5 142.5,-311.5 142.5,-290.5 100.5,-290.5"/>
<text text-anchor="middle" x="121.5" y="-297.9" font-family="DejaVuSans" font-size="12.00">tex.h</text>
</a>
</g>
</g>
<!-- Node1&#45;&gt;Node5 -->
<g id="edge4" class="edge">
<title>Node1&#45;&gt;Node5</title>
<path fill="none" stroke="midnightblue" d="M104.2,-638.46C95.91,-619.16 78.5,-573.91 78.5,-534 78.5,-534 78.5,-534 78.5,-416 78.5,-380.25 97.24,-342.02 109.98,-320.17"/>
<polygon fill="midnightblue" stroke="midnightblue" points="112.98,-321.97 115.16,-311.6 106.99,-318.35 112.98,-321.97"/>
</g>
<!-- Node8 -->
<g id="node8" class="node">
<title>Node8</title>
<g id="a_node8"><a xlink:href="str_8h.html" target="_top" xlink:title=" ">
<polygon fill="white" stroke="black" points="166,-116.5 166,-137.5 205,-137.5 205,-116.5 166,-116.5"/>
<text text-anchor="middle" x="185.5" y="-123.9" font-family="DejaVuSans" font-size="12.00">str.h</text>
</a>
</g>
</g>
<!-- Node1&#45;&gt;Node8 -->
<g id="edge28" class="edge">
<title>Node1&#45;&gt;Node8</title>
<path fill="none" stroke="midnightblue" d="M133.72,-645.16C212.93,-635.53 451.5,-600.99 451.5,-534 451.5,-534 451.5,-534 451.5,-300 451.5,-188.32 284.12,-145.59 214.91,-132.69"/>
<polygon fill="midnightblue" stroke="midnightblue" points="215.52,-129.25 205.06,-130.94 214.29,-136.14 215.52,-129.25"/>
</g>
<!-- Node12 -->
<g id="node12" class="node">
<title>Node12</title>
<g id="a_node12"><a xlink:href="texmac_8h.html" target="_top" xlink:title=" ">
<polygon fill="white" stroke="black" points="107,-580.5 107,-601.5 172,-601.5 172,-580.5 107,-580.5"/>
<text text-anchor="middle" x="139.5" y="-587.9" font-family="DejaVuSans" font-size="12.00">texmac.h</text>
</a>
</g>
</g>
<!-- Node1&#45;&gt;Node12 -->
<g id="edge15" class="edge">
<title>Node1&#45;&gt;Node12</title>
<path fill="none" stroke="midnightblue" d="M113.9,-638.25C118.12,-630.62 124.12,-619.79 129.24,-610.53"/>
<polygon fill="midnightblue" stroke="midnightblue" points="132.38,-612.09 134.16,-601.64 126.26,-608.7 132.38,-612.09"/>
</g>
<!-- Node3 -->
<g id="node3" class="node">
<title>Node3</title>
<g id="a_node3"><a xlink:title=" ">
<polygon fill="white" stroke="#bfbfbf" points="0,-0.5 0,-21.5 65,-21.5 65,-0.5 0,-0.5"/>
<text text-anchor="middle" x="32.5" y="-7.9" font-family="DejaVuSans" font-size="12.00">stdbool.h</text>
</a>
</g>
</g>
<!-- Node2&#45;&gt;Node3 -->
<g id="edge2" class="edge">
<title>Node2&#45;&gt;Node3</title>
<path fill="none" stroke="midnightblue" d="M41.58,-58.25C40.15,-50.94 38.14,-40.69 36.37,-31.7"/>
<polygon fill="midnightblue" stroke="midnightblue" points="39.76,-30.78 34.39,-21.64 32.89,-32.13 39.76,-30.78"/>
</g>
<!-- Node4 -->
<g id="node4" class="node">
<title>Node4</title>
<g id="a_node4"><a xlink:title=" ">
<polygon fill="white" stroke="#bfbfbf" points="83,-0.5 83,-21.5 138,-21.5 138,-0.5 83,-0.5"/>
<text text-anchor="middle" x="110.5" y="-7.9" font-family="DejaVuSans" font-size="12.00">stdint.h</text>
</a>
</g>
</g>
<!-- Node2&#45;&gt;Node4 -->
<g id="edge3" class="edge">
<title>Node2&#45;&gt;Node4</title>
<path fill="none" stroke="midnightblue" d="M55.17,-58.25C65.07,-49.97 79.46,-37.94 91.09,-28.22"/>
<polygon fill="midnightblue" stroke="midnightblue" points="93.53,-30.74 98.96,-21.64 89.05,-25.37 93.53,-30.74"/>
</g>
<!-- Node5&#45;&gt;Node2 -->
<g id="edge5" class="edge">
<title>Node5&#45;&gt;Node2</title>
<path fill="none" stroke="midnightblue" d="M115.78,-290.39C110.52,-281.26 102.75,-267.03 97.5,-254 85.19,-223.45 59.65,-130.21 48.69,-89.43"/>
<polygon fill="midnightblue" stroke="midnightblue" points="52.03,-88.38 46.06,-79.63 45.27,-90.2 52.03,-88.38"/>
</g>
<!-- Node6 -->
<g id="node6" class="node">
<title>Node6</title>
<g id="a_node6"><a xlink:href="tex__constant_8h.html" target="_top" xlink:title=" ">
<polygon fill="white" stroke="black" points="106.5,-232.5 106.5,-253.5 200.5,-253.5 200.5,-232.5 106.5,-232.5"/>
<text text-anchor="middle" x="153.5" y="-239.9" font-family="DejaVuSans" font-size="12.00">tex_constant.h</text>
</a>
</g>
</g>
<!-- Node5&#45;&gt;Node6 -->
<g id="edge6" class="edge">
<title>Node5&#45;&gt;Node6</title>
<path fill="none" stroke="midnightblue" d="M127.07,-290.25C131.43,-282.62 137.62,-271.79 142.91,-262.53"/>
<polygon fill="midnightblue" stroke="midnightblue" points="146.07,-264.06 147.99,-253.64 139.99,-260.59 146.07,-264.06"/>
</g>
<!-- Node7 -->
<g id="node7" class="node">
<title>Node7</title>
<g id="a_node7"><a xlink:href="box_8h.html" target="_top" xlink:title=" ">
<polygon fill="white" stroke="black" points="142.5,-174.5 142.5,-195.5 188.5,-195.5 188.5,-174.5 142.5,-174.5"/>
<text text-anchor="middle" x="165.5" y="-181.9" font-family="DejaVuSans" font-size="12.00">box.h</text>
</a>
</g>
</g>
<!-- Node6&#45;&gt;Node7 -->
<g id="edge7" class="edge">
<title>Node6&#45;&gt;Node7</title>
<path fill="none" stroke="midnightblue" d="M155.59,-232.25C157.16,-224.94 159.35,-214.69 161.28,-205.7"/>
<polygon fill="midnightblue" stroke="midnightblue" points="164.76,-206.15 163.43,-195.64 157.92,-204.69 164.76,-206.15"/>
</g>
<!-- Node7&#45;&gt;Node8 -->
<g id="edge8" class="edge">
<title>Node7&#45;&gt;Node8</title>
<path fill="none" stroke="midnightblue" d="M168.98,-174.25C171.65,-166.78 175.41,-156.24 178.67,-147.11"/>
<polygon fill="midnightblue" stroke="midnightblue" points="181.99,-148.24 182.06,-137.64 175.4,-145.88 181.99,-148.24"/>
</g>
<!-- Node8&#45;&gt;Node2 -->
<g id="edge14" class="edge">
<title>Node8&#45;&gt;Node2</title>
<path fill="none" stroke="midnightblue" d="M165.76,-118.21C142.95,-109.22 105.04,-94.27 77.47,-83.4"/>
<polygon fill="midnightblue" stroke="midnightblue" points="78.42,-80.01 67.83,-79.59 75.85,-86.52 78.42,-80.01"/>
</g>
<!-- Node8&#45;&gt;Node4 -->
<g id="edge10" class="edge">
<title>Node8&#45;&gt;Node4</title>
<path fill="none" stroke="midnightblue" d="M168.92,-116.34C156.34,-108.19 139.53,-95.39 129.5,-80 119.99,-65.42 115.19,-46.08 112.79,-31.76"/>
<polygon fill="midnightblue" stroke="midnightblue" points="116.21,-30.95 111.34,-21.53 109.28,-31.93 116.21,-30.95"/>
</g>
<!-- Node9 -->
<g id="node9" class="node">
<title>Node9</title>
<g id="a_node9"><a xlink:title=" ">
<polygon fill="white" stroke="#bfbfbf" points="253.5,-0.5 253.5,-21.5 305.5,-21.5 305.5,-0.5 253.5,-0.5"/>
<text text-anchor="middle" x="279.5" y="-7.9" font-family="DejaVuSans" font-size="12.00">stdio.h</text>
</a>
</g>
</g>
<!-- Node8&#45;&gt;Node9 -->
<g id="edge9" class="edge">
<title>Node8&#45;&gt;Node9</title>
<path fill="none" stroke="midnightblue" d="M199.81,-116.23C211.69,-107.64 228.51,-94.31 240.5,-80 253.02,-65.06 263.74,-45.55 270.75,-31.26"/>
<polygon fill="midnightblue" stroke="midnightblue" points="274.06,-32.46 275.18,-21.92 267.73,-29.46 274.06,-32.46"/>
</g>
<!-- Node10 -->
<g id="node10" class="node">
<title>Node10</title>
<g id="a_node10"><a xlink:href="global__const_8h.html" target="_top" xlink:title=" ">
<polygon fill="white" stroke="black" points="139,-58.5 139,-79.5 232,-79.5 232,-58.5 139,-58.5"/>
<text text-anchor="middle" x="185.5" y="-65.9" font-family="DejaVuSans" font-size="12.00">global_const.h</text>
</a>
</g>
</g>
<!-- Node8&#45;&gt;Node10 -->
<g id="edge11" class="edge">
<title>Node8&#45;&gt;Node10</title>
<path fill="none" stroke="midnightblue" d="M185.5,-116.25C185.5,-108.94 185.5,-98.69 185.5,-89.7"/>
<polygon fill="midnightblue" stroke="midnightblue" points="189,-89.64 185.5,-79.64 182,-89.64 189,-89.64"/>
</g>
<!-- Node10&#45;&gt;Node9 -->
<g id="edge13" class="edge">
<title>Node10&#45;&gt;Node9</title>
<path fill="none" stroke="midnightblue" d="M201.87,-58.25C216.43,-49.57 237.93,-36.76 254.62,-26.82"/>
<polygon fill="midnightblue" stroke="midnightblue" points="256.51,-29.77 263.31,-21.64 252.93,-23.75 256.51,-29.77"/>
</g>
<!-- Node11 -->
<g id="node11" class="node">
<title>Node11</title>
<g id="a_node11"><a xlink:title=" ">
<polygon fill="white" stroke="#bfbfbf" points="156,-0.5 156,-21.5 215,-21.5 215,-0.5 156,-0.5"/>
<text text-anchor="middle" x="185.5" y="-7.9" font-family="DejaVuSans" font-size="12.00">assert.h</text>
</a>
</g>
</g>
<!-- Node10&#45;&gt;Node11 -->
<g id="edge12" class="edge">
<title>Node10&#45;&gt;Node11</title>
<path fill="none" stroke="midnightblue" d="M185.5,-58.25C185.5,-50.94 185.5,-40.69 185.5,-31.7"/>
<polygon fill="midnightblue" stroke="midnightblue" points="189,-31.64 185.5,-21.64 182,-31.64 189,-31.64"/>
</g>
<!-- Node13 -->
<g id="node13" class="node">
<title>Node13</title>
<g id="a_node13"><a xlink:href="mem_8h.html" target="_top" xlink:title=" ">
<polygon fill="white" stroke="black" points="113,-522.5 113,-543.5 166,-543.5 166,-522.5 113,-522.5"/>
<text text-anchor="middle" x="139.5" y="-529.9" font-family="DejaVuSans" font-size="12.00">mem.h</text>
</a>
</g>
</g>
<!-- Node12&#45;&gt;Node13 -->
<g id="edge16" class="edge">
<title>Node12&#45;&gt;Node13</title>
<path fill="none" stroke="midnightblue" d="M139.5,-580.25C139.5,-572.94 139.5,-562.69 139.5,-553.7"/>
<polygon fill="midnightblue" stroke="midnightblue" points="143,-553.64 139.5,-543.64 136,-553.64 143,-553.64"/>
</g>
<!-- Node13&#45;&gt;Node2 -->
<g id="edge17" class="edge">
<title>Node13&#45;&gt;Node2</title>
<path fill="none" stroke="midnightblue" d="M131.73,-522.12C108.39,-491.41 40.5,-394.16 40.5,-302 40.5,-302 40.5,-302 40.5,-184 40.5,-150.97 41.77,-112.58 42.66,-89.84"/>
<polygon fill="midnightblue" stroke="midnightblue" points="46.16,-89.89 43.07,-79.76 39.17,-89.61 46.16,-89.89"/>
</g>
<!-- Node14 -->
<g id="node14" class="node">
<title>Node14</title>
<g id="a_node14"><a xlink:href="global_8h.html" target="_top" xlink:title=" ">
<polygon fill="white" stroke="black" points="250.5,-464.5 250.5,-485.5 308.5,-485.5 308.5,-464.5 250.5,-464.5"/>
<text text-anchor="middle" x="279.5" y="-471.9" font-family="DejaVuSans" font-size="12.00">global.h</text>
</a>
</g>
</g>
<!-- Node13&#45;&gt;Node14 -->
<g id="edge18" class="edge">
<title>Node13&#45;&gt;Node14</title>
<path fill="none" stroke="midnightblue" d="M163.57,-522.37C186.34,-513.26 220.73,-499.51 246.15,-489.34"/>
<polygon fill="midnightblue" stroke="midnightblue" points="247.76,-492.46 255.75,-485.5 245.16,-485.97 247.76,-492.46"/>
</g>
<!-- Node14&#45;&gt;Node8 -->
<g id="edge20" class="edge">
<title>Node14&#45;&gt;Node8</title>
<path fill="none" stroke="midnightblue" d="M269.9,-464.31C261.82,-455.57 250.63,-441.97 244.5,-428 208.94,-346.97 226.24,-318.89 209.5,-232 204.52,-206.15 203.49,-199.63 197.5,-174 195.46,-165.28 193,-155.69 190.83,-147.54"/>
<polygon fill="midnightblue" stroke="midnightblue" points="194.2,-146.58 188.22,-137.83 187.44,-148.4 194.2,-146.58"/>
</g>
<!-- Node15 -->
<g id="node15" class="node">
<title>Node15</title>
<g id="a_node15"><a xlink:title=" ">
<polygon fill="white" stroke="#bfbfbf" points="323.5,-406.5 323.5,-427.5 385.5,-427.5 385.5,-406.5 323.5,-406.5"/>
<text text-anchor="middle" x="354.5" y="-413.9" font-family="DejaVuSans" font-size="12.00">setjmp.h</text>
</a>
</g>
</g>
<!-- Node14&#45;&gt;Node15 -->
<g id="edge19" class="edge">
<title>Node14&#45;&gt;Node15</title>
<path fill="none" stroke="midnightblue" d="M292.56,-464.25C303.86,-455.81 320.38,-443.47 333.53,-433.66"/>
<polygon fill="midnightblue" stroke="midnightblue" points="335.67,-436.43 341.59,-427.64 331.48,-430.82 335.67,-436.43"/>
</g>
<!-- Node16 -->
<g id="node16" class="node">
<title>Node16</title>
<g id="a_node16"><a xlink:href="scan_8h.html" target="_top" xlink:title=" ">
<polygon fill="white" stroke="black" points="253.5,-406.5 253.5,-427.5 305.5,-427.5 305.5,-406.5 253.5,-406.5"/>
<text text-anchor="middle" x="279.5" y="-413.9" font-family="DejaVuSans" font-size="12.00">scan.h</text>
</a>
</g>
</g>
<!-- Node14&#45;&gt;Node16 -->
<g id="edge21" class="edge">
<title>Node14&#45;&gt;Node16</title>
<path fill="none" stroke="midnightblue" d="M279.5,-464.25C279.5,-456.94 279.5,-446.69 279.5,-437.7"/>
<polygon fill="midnightblue" stroke="midnightblue" points="283,-437.64 279.5,-427.64 276,-437.64 283,-437.64"/>
</g>
<!-- Node18 -->
<g id="node18" class="node">
<title>Node18</title>
<g id="a_node18"><a xlink:href="fonts_8h.html" target="_top" xlink:title=" ">
<polygon fill="white" stroke="black" points="256.5,-116.5 256.5,-137.5 308.5,-137.5 308.5,-116.5 256.5,-116.5"/>
<text text-anchor="middle" x="282.5" y="-123.9" font-family="DejaVuSans" font-size="12.00">fonts.h</text>
</a>
</g>
</g>
<!-- Node14&#45;&gt;Node18 -->
<g id="edge25" class="edge">
<title>Node14&#45;&gt;Node18</title>
<path fill="none" stroke="midnightblue" d="M308.68,-469.75C334.78,-464.44 372.24,-452.81 394.5,-428 415.46,-404.65 413.5,-391.38 413.5,-360 413.5,-360 413.5,-360 413.5,-242 413.5,-191.28 356.92,-157.99 318.13,-141.12"/>
<polygon fill="midnightblue" stroke="midnightblue" points="319.27,-137.81 308.69,-137.19 316.58,-144.27 319.27,-137.81"/>
</g>
<!-- Node17 -->
<g id="node17" class="node">
<title>Node17</title>
<g id="a_node17"><a xlink:href="lexer_8h.html" target="_top" xlink:title=" ">
<polygon fill="white" stroke="black" points="253.5,-348.5 253.5,-369.5 305.5,-369.5 305.5,-348.5 253.5,-348.5"/>
<text text-anchor="middle" x="279.5" y="-355.9" font-family="DejaVuSans" font-size="12.00">lexer.h</text>
</a>
</g>
</g>
<!-- Node16&#45;&gt;Node17 -->
<g id="edge22" class="edge">
<title>Node16&#45;&gt;Node17</title>
<path fill="none" stroke="midnightblue" d="M279.5,-406.25C279.5,-398.94 279.5,-388.69 279.5,-379.7"/>
<polygon fill="midnightblue" stroke="midnightblue" points="283,-379.64 279.5,-369.64 276,-379.64 283,-379.64"/>
</g>
<!-- Node17&#45;&gt;Node5 -->
<g id="edge24" class="edge">
<title>Node17&#45;&gt;Node5</title>
<path fill="none" stroke="midnightblue" d="M253.41,-348.75C225.65,-338.92 181.77,-323.36 152.33,-312.93"/>
<polygon fill="midnightblue" stroke="midnightblue" points="153.16,-309.51 142.57,-309.47 150.82,-316.11 153.16,-309.51"/>
</g>
<!-- Node17&#45;&gt;Node9 -->
<g id="edge23" class="edge">
<title>Node17&#45;&gt;Node9</title>
<path fill="none" stroke="midnightblue" d="M288.16,-348.45C304.1,-329.81 336.5,-286.71 336.5,-244 336.5,-244 336.5,-244 336.5,-126 336.5,-88.46 311.47,-50.62 294.59,-29.36"/>
<polygon fill="midnightblue" stroke="midnightblue" points="297.22,-27.05 288.16,-21.55 291.82,-31.5 297.22,-27.05"/>
</g>
<!-- Node18&#45;&gt;Node9 -->
<g id="edge26" class="edge">
<title>Node18&#45;&gt;Node9</title>
<path fill="none" stroke="midnightblue" d="M282.24,-116.28C281.75,-97.6 280.67,-56.37 280.02,-31.72"/>
<polygon fill="midnightblue" stroke="midnightblue" points="283.52,-31.6 279.76,-21.69 276.52,-31.78 283.52,-31.6"/>
</g>
<!-- Node18&#45;&gt;Node10 -->
<g id="edge27" class="edge">
<title>Node18&#45;&gt;Node10</title>
<path fill="none" stroke="midnightblue" d="M265.6,-116.25C250.58,-107.57 228.4,-94.76 211.18,-84.82"/>
<polygon fill="midnightblue" stroke="midnightblue" points="212.61,-81.61 202.2,-79.64 209.11,-87.67 212.61,-81.61"/>
</g>
</g>
</svg>
