<?xml version="1.0" encoding="UTF-8" standalone="no"?>
<!DOCTYPE svg PUBLIC "-//W3C//DTD SVG 1.1//EN"
 "http://www.w3.org/Graphics/SVG/1.1/DTD/svg11.dtd">
<!-- Generated by graphviz version 2.44.0 ()
 -->
<!-- Title: printout.c Pages: 1 -->
<svg width="806pt" height="726pt"
 viewBox="0.00 0.00 806.00 726.00" xmlns="http://www.w3.org/2000/svg" xmlns:xlink="http://www.w3.org/1999/xlink">
<g id="graph0" class="graph" transform="scale(1 1) rotate(0) translate(4 722)">
<title>printout.c</title>
<polygon fill="white" stroke="transparent" points="-4,4 -4,-722 802,-722 802,4 -4,4"/>
<!-- Node1 -->
<g id="node1" class="node">
<title>Node1</title>
<g id="a_node1"><a xlink:title=" ">
<polygon fill="#bfbfbf" stroke="black" points="335.5,-696.5 335.5,-717.5 400.5,-717.5 400.5,-696.5 335.5,-696.5"/>
<text text-anchor="middle" x="368" y="-703.9" font-family="DejaVuSans" font-size="12.00">printout.c</text>
</a>
</g>
</g>
<!-- Node2 -->
<g id="node2" class="node">
<title>Node2</title>
<g id="a_node2"><a xlink:href="tex_8h.html" target="_top" xlink:title=" ">
<polygon fill="white" stroke="black" points="523,-290.5 523,-311.5 565,-311.5 565,-290.5 523,-290.5"/>
<text text-anchor="middle" x="544" y="-297.9" font-family="DejaVuSans" font-size="12.00">tex.h</text>
</a>
</g>
</g>
<!-- Node1&#45;&gt;Node2 -->
<g id="edge1" class="edge">
<title>Node1&#45;&gt;Node2</title>
<path fill="none" stroke="midnightblue" d="M400.74,-704.84C466.21,-701.86 610.1,-691.77 646,-660 669.59,-639.12 666,-623.5 666,-592 666,-592 666,-592 666,-474 666,-405.49 600.8,-345.23 565.73,-317.77"/>
<polygon fill="midnightblue" stroke="midnightblue" points="567.6,-314.79 557.52,-311.51 563.35,-320.35 567.6,-314.79"/>
</g>
<!-- Node7 -->
<g id="node7" class="node">
<title>Node7</title>
<g id="a_node7"><a xlink:href="box_8h.html" target="_top" xlink:title=" ">
<polygon fill="white" stroke="black" points="297,-174.5 297,-195.5 343,-195.5 343,-174.5 297,-174.5"/>
<text text-anchor="middle" x="320" y="-181.9" font-family="DejaVuSans" font-size="12.00">box.h</text>
</a>
</g>
</g>
<!-- Node1&#45;&gt;Node7 -->
<g id="edge42" class="edge">
<title>Node1&#45;&gt;Node7</title>
<path fill="none" stroke="midnightblue" d="M335.22,-706.86C295.29,-706.06 228.32,-698.5 189,-660 166.58,-638.04 170,-623.38 170,-592 170,-592 170,-592 170,-474 170,-359.84 263.86,-246.08 303.08,-203.52"/>
<polygon fill="midnightblue" stroke="midnightblue" points="305.87,-205.67 310.16,-195.98 300.76,-200.88 305.87,-205.67"/>
</g>
<!-- Node8 -->
<g id="node8" class="node">
<title>Node8</title>
<g id="a_node8"><a xlink:href="str_8h.html" target="_top" xlink:title=" ">
<polygon fill="white" stroke="black" points="274.5,-116.5 274.5,-137.5 313.5,-137.5 313.5,-116.5 274.5,-116.5"/>
<text text-anchor="middle" x="294" y="-123.9" font-family="DejaVuSans" font-size="12.00">str.h</text>
</a>
</g>
</g>
<!-- Node1&#45;&gt;Node8 -->
<g id="edge14" class="edge">
<title>Node1&#45;&gt;Node8</title>
<path fill="none" stroke="midnightblue" d="M335.18,-706.22C292.91,-704.89 219.08,-696.9 170,-660 142.33,-639.19 132,-626.62 132,-592 132,-592 132,-592 132,-474 132,-336.03 238.96,-193.84 279.06,-145.37"/>
<polygon fill="midnightblue" stroke="midnightblue" points="281.77,-147.59 285.52,-137.68 276.41,-143.08 281.77,-147.59"/>
</g>
<!-- Node12 -->
<g id="node12" class="node">
<title>Node12</title>
<g id="a_node12"><a xlink:href="fonts_8h.html" target="_top" xlink:title=" ">
<polygon fill="white" stroke="black" points="52,-406.5 52,-427.5 104,-427.5 104,-406.5 52,-406.5"/>
<text text-anchor="middle" x="78" y="-413.9" font-family="DejaVuSans" font-size="12.00">fonts.h</text>
</a>
</g>
</g>
<!-- Node1&#45;&gt;Node12 -->
<g id="edge15" class="edge">
<title>Node1&#45;&gt;Node12</title>
<path fill="none" stroke="midnightblue" d="M335.45,-704C275.38,-699.69 150.3,-687.58 118,-660 93.63,-639.19 94,-624.05 94,-592 94,-592 94,-592 94,-532 94,-498.66 87.21,-460.36 82.47,-437.73"/>
<polygon fill="midnightblue" stroke="midnightblue" points="85.84,-436.72 80.29,-427.7 79,-438.21 85.84,-436.72"/>
</g>
<!-- Node13 -->
<g id="node13" class="node">
<title>Node13</title>
<g id="a_node13"><a xlink:href="texfunc_8h.html" target="_top" xlink:title=" ">
<polygon fill="white" stroke="black" points="198.5,-638.5 198.5,-659.5 263.5,-659.5 263.5,-638.5 198.5,-638.5"/>
<text text-anchor="middle" x="231" y="-645.9" font-family="DejaVuSans" font-size="12.00">texfunc.h</text>
</a>
</g>
</g>
<!-- Node1&#45;&gt;Node13 -->
<g id="edge18" class="edge">
<title>Node1&#45;&gt;Node13</title>
<path fill="none" stroke="midnightblue" d="M344.45,-696.37C322.16,-687.26 288.51,-673.51 263.64,-663.34"/>
<polygon fill="midnightblue" stroke="midnightblue" points="264.82,-660.05 254.24,-659.5 262.18,-666.52 264.82,-660.05"/>
</g>
<!-- Node14 -->
<g id="node14" class="node">
<title>Node14</title>
<g id="a_node14"><a xlink:href="texmath_8h.html" target="_top" xlink:title=" ">
<polygon fill="white" stroke="black" points="694,-522.5 694,-543.5 762,-543.5 762,-522.5 694,-522.5"/>
<text text-anchor="middle" x="728" y="-529.9" font-family="DejaVuSans" font-size="12.00">texmath.h</text>
</a>
</g>
</g>
<!-- Node1&#45;&gt;Node14 -->
<g id="edge19" class="edge">
<title>Node1&#45;&gt;Node14</title>
<path fill="none" stroke="midnightblue" d="M400.66,-705.26C471.72,-703.03 637.42,-694.2 680,-660 712.72,-633.72 723.16,-582.45 726.47,-554.08"/>
<polygon fill="midnightblue" stroke="midnightblue" points="729.99,-554.08 727.47,-543.78 723.02,-553.4 729.99,-554.08"/>
</g>
<!-- Node15 -->
<g id="node15" class="node">
<title>Node15</title>
<g id="a_node15"><a xlink:href="texmac_8h.html" target="_top" xlink:title=" ">
<polygon fill="white" stroke="black" points="410.5,-580.5 410.5,-601.5 475.5,-601.5 475.5,-580.5 410.5,-580.5"/>
<text text-anchor="middle" x="443" y="-587.9" font-family="DejaVuSans" font-size="12.00">texmac.h</text>
</a>
</g>
</g>
<!-- Node1&#45;&gt;Node15 -->
<g id="edge21" class="edge">
<title>Node1&#45;&gt;Node15</title>
<path fill="none" stroke="midnightblue" d="M400.59,-700.99C424.56,-695.42 455.55,-683.82 471,-660 481.24,-644.21 470.4,-624.06 459.37,-609.8"/>
<polygon fill="midnightblue" stroke="midnightblue" points="461.76,-607.21 452.66,-601.78 456.39,-611.7 461.76,-607.21"/>
</g>
<!-- Node19 -->
<g id="node19" class="node">
<title>Node19</title>
<g id="a_node19"><a xlink:href="scan_8h.html" target="_top" xlink:title=" ">
<polygon fill="white" stroke="black" points="198,-406.5 198,-427.5 250,-427.5 250,-406.5 198,-406.5"/>
<text text-anchor="middle" x="224" y="-413.9" font-family="DejaVuSans" font-size="12.00">scan.h</text>
</a>
</g>
</g>
<!-- Node1&#45;&gt;Node19 -->
<g id="edge33" class="edge">
<title>Node1&#45;&gt;Node19</title>
<path fill="none" stroke="midnightblue" d="M361.36,-696.36C341.03,-666.43 278.8,-571.97 243,-486 236.46,-470.29 231.42,-451.61 228.18,-437.81"/>
<polygon fill="midnightblue" stroke="midnightblue" points="231.57,-436.93 225.98,-427.94 224.74,-438.46 231.57,-436.93"/>
</g>
<!-- Node21 -->
<g id="node21" class="node">
<title>Node21</title>
<g id="a_node21"><a xlink:href="expand_8h.html" target="_top" xlink:title=" ">
<polygon fill="white" stroke="black" points="396,-638.5 396,-659.5 462,-659.5 462,-638.5 396,-638.5"/>
<text text-anchor="middle" x="429" y="-645.9" font-family="DejaVuSans" font-size="12.00">expand.h</text>
</a>
</g>
</g>
<!-- Node1&#45;&gt;Node21 -->
<g id="edge32" class="edge">
<title>Node1&#45;&gt;Node21</title>
<path fill="none" stroke="midnightblue" d="M378.63,-696.25C387.55,-688.05 400.49,-676.17 411.02,-666.51"/>
<polygon fill="midnightblue" stroke="midnightblue" points="413.5,-668.98 418.5,-659.64 408.76,-663.83 413.5,-668.98"/>
</g>
<!-- Node22 -->
<g id="node22" class="node">
<title>Node22</title>
<g id="a_node22"><a xlink:href="print_8h.html" target="_top" xlink:title=" ">
<polygon fill="white" stroke="black" points="518,-638.5 518,-659.5 568,-659.5 568,-638.5 518,-638.5"/>
<text text-anchor="middle" x="543" y="-645.9" font-family="DejaVuSans" font-size="12.00">print.h</text>
</a>
</g>
</g>
<!-- Node1&#45;&gt;Node22 -->
<g id="edge34" class="edge">
<title>Node1&#45;&gt;Node22</title>
<path fill="none" stroke="midnightblue" d="M398.08,-696.37C428.59,-686.61 475.78,-671.51 507.96,-661.21"/>
<polygon fill="midnightblue" stroke="midnightblue" points="509.38,-664.43 517.84,-658.05 507.25,-657.77 509.38,-664.43"/>
</g>
<!-- Node23 -->
<g id="node23" class="node">
<title>Node23</title>
<g id="a_node23"><a xlink:href="eqtb_8h.html" target="_top" xlink:title=" ">
<polygon fill="white" stroke="black" points="391,-290.5 391,-311.5 441,-311.5 441,-290.5 391,-290.5"/>
<text text-anchor="middle" x="416" y="-297.9" font-family="DejaVuSans" font-size="12.00">eqtb.h</text>
</a>
</g>
</g>
<!-- Node1&#45;&gt;Node23 -->
<g id="edge39" class="edge">
<title>Node1&#45;&gt;Node23</title>
<path fill="none" stroke="midnightblue" d="M369.38,-696.25C373.47,-668.54 386.47,-587.09 407,-522 423.41,-469.99 454.87,-459.96 447,-406 442.55,-375.52 431.14,-341.55 423.48,-320.98"/>
<polygon fill="midnightblue" stroke="midnightblue" points="426.71,-319.63 419.86,-311.54 420.17,-322.13 426.71,-319.63"/>
</g>
<!-- Node24 -->
<g id="node24" class="node">
<title>Node24</title>
<g id="a_node24"><a xlink:href="error_8h.html" target="_top" xlink:title=" ">
<polygon fill="white" stroke="black" points="586.5,-638.5 586.5,-659.5 637.5,-659.5 637.5,-638.5 586.5,-638.5"/>
<text text-anchor="middle" x="612" y="-645.9" font-family="DejaVuSans" font-size="12.00">error.h</text>
</a>
</g>
</g>
<!-- Node1&#45;&gt;Node24 -->
<g id="edge43" class="edge">
<title>Node1&#45;&gt;Node24</title>
<path fill="none" stroke="midnightblue" d="M400.73,-699.45C440.06,-691.43 508.26,-677.08 576.39,-660.04"/>
<polygon fill="midnightblue" stroke="midnightblue" points="577.59,-663.34 586.43,-657.5 575.88,-656.55 577.59,-663.34"/>
</g>
<!-- Node25 -->
<g id="node25" class="node">
<title>Node25</title>
<g id="a_node25"><a xlink:href="mmode_8h.html" target="_top" xlink:title=" ">
<polygon fill="white" stroke="black" points="0,-580.5 0,-601.5 66,-601.5 66,-580.5 0,-580.5"/>
<text text-anchor="middle" x="33" y="-587.9" font-family="DejaVuSans" font-size="12.00">mmode.h</text>
</a>
</g>
</g>
<!-- Node1&#45;&gt;Node25 -->
<g id="edge44" class="edge">
<title>Node1&#45;&gt;Node25</title>
<path fill="none" stroke="midnightblue" d="M335.38,-704C269.25,-699.43 122.09,-686.52 80,-660 61.67,-648.45 48.62,-626.88 40.99,-611.12"/>
<polygon fill="midnightblue" stroke="midnightblue" points="44.07,-609.44 36.76,-601.77 37.69,-612.32 44.07,-609.44"/>
</g>
<!-- Node26 -->
<g id="node26" class="node">
<title>Node26</title>
<g id="a_node26"><a xlink:href="align_8h.html" target="_top" xlink:title=" ">
<polygon fill="white" stroke="black" points="386,-406.5 386,-427.5 438,-427.5 438,-406.5 386,-406.5"/>
<text text-anchor="middle" x="412" y="-413.9" font-family="DejaVuSans" font-size="12.00">align.h</text>
</a>
</g>
</g>
<!-- Node1&#45;&gt;Node26 -->
<g id="edge46" class="edge">
<title>Node1&#45;&gt;Node26</title>
<path fill="none" stroke="midnightblue" d="M364.14,-696.32C360.7,-687.14 355.92,-672.88 354,-660 352.56,-650.33 353.45,-647.76 354,-638 356.89,-586.2 353.66,-572.13 367,-522 375.26,-490.94 391.31,-457.16 401.84,-436.79"/>
<polygon fill="midnightblue" stroke="midnightblue" points="405.07,-438.16 406.64,-427.69 398.88,-434.9 405.07,-438.16"/>
</g>
<!-- Node27 -->
<g id="node27" class="node">
<title>Node27</title>
<g id="a_node27"><a xlink:href="printout_8h.html" target="_top" xlink:title=" ">
<polygon fill="white" stroke="black" points="732,-638.5 732,-659.5 798,-659.5 798,-638.5 732,-638.5"/>
<text text-anchor="middle" x="765" y="-645.9" font-family="DejaVuSans" font-size="12.00">printout.h</text>
</a>
</g>
</g>
<!-- Node1&#45;&gt;Node27 -->
<g id="edge49" class="edge">
<title>Node1&#45;&gt;Node27</title>
<path fill="none" stroke="midnightblue" d="M400.94,-702.55C463.14,-695.84 602.03,-679.93 718,-660 719.27,-659.78 720.56,-659.55 721.86,-659.32"/>
<polygon fill="midnightblue" stroke="midnightblue" points="722.78,-662.7 731.94,-657.38 721.46,-655.83 722.78,-662.7"/>
</g>
<!-- Node3 -->
<g id="node3" class="node">
<title>Node3</title>
<g id="a_node3"><a xlink:href="tex__types_8h.html" target="_top" xlink:title=" ">
<polygon fill="white" stroke="black" points="505.5,-58.5 505.5,-79.5 582.5,-79.5 582.5,-58.5 505.5,-58.5"/>
<text text-anchor="middle" x="544" y="-65.9" font-family="DejaVuSans" font-size="12.00">tex_types.h</text>
</a>
</g>
</g>
<!-- Node2&#45;&gt;Node3 -->
<g id="edge2" class="edge">
<title>Node2&#45;&gt;Node3</title>
<path fill="none" stroke="midnightblue" d="M544,-290.41C544,-255.85 544,-137.24 544,-89.82"/>
<polygon fill="midnightblue" stroke="midnightblue" points="547.5,-89.63 544,-79.63 540.5,-89.63 547.5,-89.63"/>
</g>
<!-- Node6 -->
<g id="node6" class="node">
<title>Node6</title>
<g id="a_node6"><a xlink:href="tex__constant_8h.html" target="_top" xlink:title=" ">
<polygon fill="white" stroke="black" points="373,-232.5 373,-253.5 467,-253.5 467,-232.5 373,-232.5"/>
<text text-anchor="middle" x="420" y="-239.9" font-family="DejaVuSans" font-size="12.00">tex_constant.h</text>
</a>
</g>
</g>
<!-- Node2&#45;&gt;Node6 -->
<g id="edge5" class="edge">
<title>Node2&#45;&gt;Node6</title>
<path fill="none" stroke="midnightblue" d="M522.97,-290.5C503.01,-281.49 472.82,-267.85 450.28,-257.67"/>
<polygon fill="midnightblue" stroke="midnightblue" points="451.69,-254.47 441.14,-253.55 448.81,-260.85 451.69,-254.47"/>
</g>
<!-- Node4 -->
<g id="node4" class="node">
<title>Node4</title>
<g id="a_node4"><a xlink:title=" ">
<polygon fill="white" stroke="#bfbfbf" points="511.5,-0.5 511.5,-21.5 576.5,-21.5 576.5,-0.5 511.5,-0.5"/>
<text text-anchor="middle" x="544" y="-7.9" font-family="DejaVuSans" font-size="12.00">stdbool.h</text>
</a>
</g>
</g>
<!-- Node3&#45;&gt;Node4 -->
<g id="edge3" class="edge">
<title>Node3&#45;&gt;Node4</title>
<path fill="none" stroke="midnightblue" d="M544,-58.25C544,-50.94 544,-40.69 544,-31.7"/>
<polygon fill="midnightblue" stroke="midnightblue" points="547.5,-31.64 544,-21.64 540.5,-31.64 547.5,-31.64"/>
</g>
<!-- Node5 -->
<g id="node5" class="node">
<title>Node5</title>
<g id="a_node5"><a xlink:title=" ">
<polygon fill="white" stroke="#bfbfbf" points="359.5,-0.5 359.5,-21.5 414.5,-21.5 414.5,-0.5 359.5,-0.5"/>
<text text-anchor="middle" x="387" y="-7.9" font-family="DejaVuSans" font-size="12.00">stdint.h</text>
</a>
</g>
</g>
<!-- Node3&#45;&gt;Node5 -->
<g id="edge4" class="edge">
<title>Node3&#45;&gt;Node5</title>
<path fill="none" stroke="midnightblue" d="M517.01,-58.37C491.13,-49.14 451.88,-35.14 423.27,-24.94"/>
<polygon fill="midnightblue" stroke="midnightblue" points="424.23,-21.56 413.64,-21.5 421.88,-28.16 424.23,-21.56"/>
</g>
<!-- Node6&#45;&gt;Node7 -->
<g id="edge6" class="edge">
<title>Node6&#45;&gt;Node7</title>
<path fill="none" stroke="midnightblue" d="M402.58,-232.25C386.95,-223.49 363.8,-210.53 345.98,-200.55"/>
<polygon fill="midnightblue" stroke="midnightblue" points="347.65,-197.47 337.22,-195.64 344.23,-203.58 347.65,-197.47"/>
</g>
<!-- Node7&#45;&gt;Node8 -->
<g id="edge7" class="edge">
<title>Node7&#45;&gt;Node8</title>
<path fill="none" stroke="midnightblue" d="M315.47,-174.25C311.97,-166.7 307.01,-156.02 302.74,-146.82"/>
<polygon fill="midnightblue" stroke="midnightblue" points="305.86,-145.24 298.48,-137.64 299.51,-148.19 305.86,-145.24"/>
</g>
<!-- Node8&#45;&gt;Node3 -->
<g id="edge13" class="edge">
<title>Node8&#45;&gt;Node3</title>
<path fill="none" stroke="midnightblue" d="M313.62,-121.61C352.41,-112.92 439.96,-93.31 495.26,-80.92"/>
<polygon fill="midnightblue" stroke="midnightblue" points="496.2,-84.29 505.19,-78.69 494.67,-77.46 496.2,-84.29"/>
</g>
<!-- Node8&#45;&gt;Node5 -->
<g id="edge9" class="edge">
<title>Node8&#45;&gt;Node5</title>
<path fill="none" stroke="midnightblue" d="M301.93,-116.28C317.58,-97.1 352.64,-54.12 372.52,-29.75"/>
<polygon fill="midnightblue" stroke="midnightblue" points="375.48,-31.66 379.09,-21.69 370.06,-27.23 375.48,-31.66"/>
</g>
<!-- Node9 -->
<g id="node9" class="node">
<title>Node9</title>
<g id="a_node9"><a xlink:title=" ">
<polygon fill="white" stroke="#bfbfbf" points="144,-0.5 144,-21.5 196,-21.5 196,-0.5 144,-0.5"/>
<text text-anchor="middle" x="170" y="-7.9" font-family="DejaVuSans" font-size="12.00">stdio.h</text>
</a>
</g>
</g>
<!-- Node8&#45;&gt;Node9 -->
<g id="edge8" class="edge">
<title>Node8&#45;&gt;Node9</title>
<path fill="none" stroke="midnightblue" d="M283.43,-116.28C262.2,-96.76 214.17,-52.61 187.93,-28.49"/>
<polygon fill="midnightblue" stroke="midnightblue" points="190.28,-25.89 180.55,-21.69 185.54,-31.04 190.28,-25.89"/>
</g>
<!-- Node10 -->
<g id="node10" class="node">
<title>Node10</title>
<g id="a_node10"><a xlink:href="global__const_8h.html" target="_top" xlink:title=" ">
<polygon fill="white" stroke="black" points="27.5,-58.5 27.5,-79.5 120.5,-79.5 120.5,-58.5 27.5,-58.5"/>
<text text-anchor="middle" x="74" y="-65.9" font-family="DejaVuSans" font-size="12.00">global_const.h</text>
</a>
</g>
</g>
<!-- Node8&#45;&gt;Node10 -->
<g id="edge10" class="edge">
<title>Node8&#45;&gt;Node10</title>
<path fill="none" stroke="midnightblue" d="M274.48,-121.03C240.41,-112.36 169.19,-94.23 121.48,-82.08"/>
<polygon fill="midnightblue" stroke="midnightblue" points="122.23,-78.66 111.67,-79.59 120.5,-85.45 122.23,-78.66"/>
</g>
<!-- Node10&#45;&gt;Node9 -->
<g id="edge12" class="edge">
<title>Node10&#45;&gt;Node9</title>
<path fill="none" stroke="midnightblue" d="M90.72,-58.25C105.59,-49.57 127.55,-36.76 144.59,-26.82"/>
<polygon fill="midnightblue" stroke="midnightblue" points="146.6,-29.7 153.47,-21.64 143.07,-23.66 146.6,-29.7"/>
</g>
<!-- Node11 -->
<g id="node11" class="node">
<title>Node11</title>
<g id="a_node11"><a xlink:title=" ">
<polygon fill="white" stroke="#bfbfbf" points="44.5,-0.5 44.5,-21.5 103.5,-21.5 103.5,-0.5 44.5,-0.5"/>
<text text-anchor="middle" x="74" y="-7.9" font-family="DejaVuSans" font-size="12.00">assert.h</text>
</a>
</g>
</g>
<!-- Node10&#45;&gt;Node11 -->
<g id="edge11" class="edge">
<title>Node10&#45;&gt;Node11</title>
<path fill="none" stroke="midnightblue" d="M74,-58.25C74,-50.94 74,-40.69 74,-31.7"/>
<polygon fill="midnightblue" stroke="midnightblue" points="77.5,-31.64 74,-21.64 70.5,-31.64 77.5,-31.64"/>
</g>
<!-- Node12&#45;&gt;Node9 -->
<g id="edge16" class="edge">
<title>Node12&#45;&gt;Node9</title>
<path fill="none" stroke="midnightblue" d="M80.68,-406.15C83.18,-396.86 86.97,-382.51 90,-370 121.13,-241.42 154.41,-85.8 165.86,-31.67"/>
<polygon fill="midnightblue" stroke="midnightblue" points="169.32,-32.22 167.96,-21.71 162.47,-30.77 169.32,-32.22"/>
</g>
<!-- Node12&#45;&gt;Node10 -->
<g id="edge17" class="edge">
<title>Node12&#45;&gt;Node10</title>
<path fill="none" stroke="midnightblue" d="M77.57,-406.24C76.74,-386.54 75,-340.61 75,-302 75,-302 75,-302 75,-184 75,-150.98 74.58,-112.59 74.28,-89.85"/>
<polygon fill="midnightblue" stroke="midnightblue" points="77.78,-89.71 74.14,-79.76 70.78,-89.81 77.78,-89.71"/>
</g>
<!-- Node14&#45;&gt;Node3 -->
<g id="edge20" class="edge">
<title>Node14&#45;&gt;Node3</title>
<path fill="none" stroke="midnightblue" d="M726.28,-522.28C722.96,-502.64 716,-456.81 716,-418 716,-418 716,-418 716,-184 716,-124.39 643.32,-94.1 592.46,-80.21"/>
<polygon fill="midnightblue" stroke="midnightblue" points="593.16,-76.78 582.6,-77.65 591.4,-83.55 593.16,-76.78"/>
</g>
<!-- Node16 -->
<g id="node16" class="node">
<title>Node16</title>
<g id="a_node16"><a xlink:href="mem_8h.html" target="_top" xlink:title=" ">
<polygon fill="white" stroke="black" points="416.5,-522.5 416.5,-543.5 469.5,-543.5 469.5,-522.5 416.5,-522.5"/>
<text text-anchor="middle" x="443" y="-529.9" font-family="DejaVuSans" font-size="12.00">mem.h</text>
</a>
</g>
</g>
<!-- Node15&#45;&gt;Node16 -->
<g id="edge22" class="edge">
<title>Node15&#45;&gt;Node16</title>
<path fill="none" stroke="midnightblue" d="M443,-580.25C443,-572.94 443,-562.69 443,-553.7"/>
<polygon fill="midnightblue" stroke="midnightblue" points="446.5,-553.64 443,-543.64 439.5,-553.64 446.5,-553.64"/>
</g>
<!-- Node16&#45;&gt;Node3 -->
<g id="edge23" class="edge">
<title>Node16&#45;&gt;Node3</title>
<path fill="none" stroke="midnightblue" d="M452.84,-522.02C486.21,-487.08 593,-365.77 593,-244 593,-244 593,-244 593,-184 593,-147.62 571.68,-109.63 557.16,-87.98"/>
<polygon fill="midnightblue" stroke="midnightblue" points="560.03,-85.97 551.44,-79.76 554.28,-89.97 560.03,-85.97"/>
</g>
<!-- Node17 -->
<g id="node17" class="node">
<title>Node17</title>
<g id="a_node17"><a xlink:href="global_8h.html" target="_top" xlink:title=" ">
<polygon fill="white" stroke="black" points="252,-464.5 252,-485.5 310,-485.5 310,-464.5 252,-464.5"/>
<text text-anchor="middle" x="281" y="-471.9" font-family="DejaVuSans" font-size="12.00">global.h</text>
</a>
</g>
</g>
<!-- Node16&#45;&gt;Node17 -->
<g id="edge24" class="edge">
<title>Node16&#45;&gt;Node17</title>
<path fill="none" stroke="midnightblue" d="M416.25,-522.75C389.52,-513.51 348.22,-499.24 318.28,-488.89"/>
<polygon fill="midnightblue" stroke="midnightblue" points="319.2,-485.5 308.6,-485.54 316.91,-492.12 319.2,-485.5"/>
</g>
<!-- Node17&#45;&gt;Node8 -->
<g id="edge26" class="edge">
<title>Node17&#45;&gt;Node8</title>
<path fill="none" stroke="midnightblue" d="M280.85,-464.4C280.36,-427.07 279.26,-288.02 288,-174 288.66,-165.39 289.82,-155.92 290.95,-147.82"/>
<polygon fill="midnightblue" stroke="midnightblue" points="294.42,-148.24 292.41,-137.84 287.5,-147.23 294.42,-148.24"/>
</g>
<!-- Node17&#45;&gt;Node12 -->
<g id="edge31" class="edge">
<title>Node17&#45;&gt;Node12</title>
<path fill="none" stroke="midnightblue" d="M251.92,-465.98C215.51,-455.93 153.16,-438.73 113.84,-427.89"/>
<polygon fill="midnightblue" stroke="midnightblue" points="114.7,-424.49 104.13,-425.21 112.84,-431.24 114.7,-424.49"/>
</g>
<!-- Node18 -->
<g id="node18" class="node">
<title>Node18</title>
<g id="a_node18"><a xlink:title=" ">
<polygon fill="white" stroke="#bfbfbf" points="306,-406.5 306,-427.5 368,-427.5 368,-406.5 306,-406.5"/>
<text text-anchor="middle" x="337" y="-413.9" font-family="DejaVuSans" font-size="12.00">setjmp.h</text>
</a>
</g>
</g>
<!-- Node17&#45;&gt;Node18 -->
<g id="edge25" class="edge">
<title>Node17&#45;&gt;Node18</title>
<path fill="none" stroke="midnightblue" d="M290.75,-464.25C298.86,-456.14 310.59,-444.41 320.21,-434.79"/>
<polygon fill="midnightblue" stroke="midnightblue" points="322.76,-437.19 327.36,-427.64 317.81,-432.24 322.76,-437.19"/>
</g>
<!-- Node17&#45;&gt;Node19 -->
<g id="edge27" class="edge">
<title>Node17&#45;&gt;Node19</title>
<path fill="none" stroke="midnightblue" d="M271.07,-464.25C262.82,-456.14 250.88,-444.41 241.09,-434.79"/>
<polygon fill="midnightblue" stroke="midnightblue" points="243.4,-432.15 233.81,-427.64 238.5,-437.15 243.4,-432.15"/>
</g>
<!-- Node20 -->
<g id="node20" class="node">
<title>Node20</title>
<g id="a_node20"><a xlink:href="lexer_8h.html" target="_top" xlink:title=" ">
<polygon fill="white" stroke="black" points="316,-348.5 316,-369.5 368,-369.5 368,-348.5 316,-348.5"/>
<text text-anchor="middle" x="342" y="-355.9" font-family="DejaVuSans" font-size="12.00">lexer.h</text>
</a>
</g>
</g>
<!-- Node19&#45;&gt;Node20 -->
<g id="edge28" class="edge">
<title>Node19&#45;&gt;Node20</title>
<path fill="none" stroke="midnightblue" d="M244.28,-406.37C263.14,-397.42 291.45,-383.99 312.75,-373.88"/>
<polygon fill="midnightblue" stroke="midnightblue" points="314.45,-376.95 321.98,-369.5 311.44,-370.63 314.45,-376.95"/>
</g>
<!-- Node20&#45;&gt;Node2 -->
<g id="edge30" class="edge">
<title>Node20&#45;&gt;Node2</title>
<path fill="none" stroke="midnightblue" d="M368.41,-350.68C405.69,-340.34 473.62,-321.51 513.17,-310.55"/>
<polygon fill="midnightblue" stroke="midnightblue" points="514.11,-313.92 522.81,-307.87 512.24,-307.17 514.11,-313.92"/>
</g>
<!-- Node20&#45;&gt;Node9 -->
<g id="edge29" class="edge">
<title>Node20&#45;&gt;Node9</title>
<path fill="none" stroke="midnightblue" d="M337.22,-348.38C313.84,-301.34 211.32,-95.13 179.47,-31.06"/>
<polygon fill="midnightblue" stroke="midnightblue" points="182.42,-29.13 174.84,-21.73 176.16,-32.25 182.42,-29.13"/>
</g>
<!-- Node22&#45;&gt;Node2 -->
<g id="edge36" class="edge">
<title>Node22&#45;&gt;Node2</title>
<path fill="none" stroke="midnightblue" d="M548.46,-638.28C558.75,-619.02 580,-574.37 580,-534 580,-534 580,-534 580,-416 580,-381.08 564.45,-342.83 553.79,-320.7"/>
<polygon fill="midnightblue" stroke="midnightblue" points="556.91,-319.12 549.31,-311.74 550.65,-322.25 556.91,-319.12"/>
</g>
<!-- Node22&#45;&gt;Node3 -->
<g id="edge35" class="edge">
<title>Node22&#45;&gt;Node3</title>
<path fill="none" stroke="midnightblue" d="M557.42,-638.25C581.67,-620.56 628,-580.66 628,-534 628,-534 628,-534 628,-474 628,-396.55 656,-379.45 656,-302 656,-302 656,-302 656,-184 656,-137.08 607.13,-102.41 573.95,-84.27"/>
<polygon fill="midnightblue" stroke="midnightblue" points="575.55,-81.15 565.07,-79.6 572.29,-87.35 575.55,-81.15"/>
</g>
<!-- Node22&#45;&gt;Node8 -->
<g id="edge38" class="edge">
<title>Node22&#45;&gt;Node8</title>
<path fill="none" stroke="midnightblue" d="M537.25,-638.32C526.4,-619.12 504,-574.58 504,-534 504,-534 504,-534 504,-416 504,-333.28 522.8,-300.21 476,-232 439.08,-178.19 364.6,-148.74 323.28,-135.92"/>
<polygon fill="midnightblue" stroke="midnightblue" points="324.11,-132.52 313.53,-133.02 322.11,-139.23 324.11,-132.52"/>
</g>
<!-- Node22&#45;&gt;Node15 -->
<g id="edge37" class="edge">
<title>Node22&#45;&gt;Node15</title>
<path fill="none" stroke="midnightblue" d="M525.58,-638.25C509.95,-629.49 486.8,-616.53 468.98,-606.55"/>
<polygon fill="midnightblue" stroke="midnightblue" points="470.65,-603.47 460.22,-601.64 467.23,-609.58 470.65,-603.47"/>
</g>
<!-- Node23&#45;&gt;Node3 -->
<g id="edge40" class="edge">
<title>Node23&#45;&gt;Node3</title>
<path fill="none" stroke="midnightblue" d="M398.94,-290.38C386.69,-282.4 371.13,-269.82 364,-254 359.98,-245.09 360.02,-240.93 364,-232 395.41,-161.48 474.36,-108.78 516.5,-84.62"/>
<polygon fill="midnightblue" stroke="midnightblue" points="518.38,-87.57 525.39,-79.63 514.96,-81.47 518.38,-87.57"/>
</g>
<!-- Node23&#45;&gt;Node6 -->
<g id="edge41" class="edge">
<title>Node23&#45;&gt;Node6</title>
<path fill="none" stroke="midnightblue" d="M416.7,-290.25C417.22,-282.94 417.95,-272.69 418.59,-263.7"/>
<polygon fill="midnightblue" stroke="midnightblue" points="422.09,-263.87 419.31,-253.64 415.11,-263.37 422.09,-263.87"/>
</g>
<!-- Node25&#45;&gt;Node12 -->
<g id="edge45" class="edge">
<title>Node25&#45;&gt;Node12</title>
<path fill="none" stroke="midnightblue" d="M35.55,-580.26C42.73,-552.82 63.22,-474.51 72.86,-437.64"/>
<polygon fill="midnightblue" stroke="midnightblue" points="76.33,-438.19 75.48,-427.63 69.56,-436.42 76.33,-438.19"/>
</g>
<!-- Node26&#45;&gt;Node20 -->
<g id="edge47" class="edge">
<title>Node26&#45;&gt;Node20</title>
<path fill="none" stroke="midnightblue" d="M399.81,-406.25C389.37,-397.89 374.13,-385.71 361.93,-375.94"/>
<polygon fill="midnightblue" stroke="midnightblue" points="364.05,-373.16 354.05,-369.64 359.68,-378.62 364.05,-373.16"/>
</g>
<!-- Node26&#45;&gt;Node23 -->
<g id="edge48" class="edge">
<title>Node26&#45;&gt;Node23</title>
<path fill="none" stroke="midnightblue" d="M412.34,-406.28C413,-387.6 414.44,-346.37 415.31,-321.72"/>
<polygon fill="midnightblue" stroke="midnightblue" points="418.81,-321.81 415.66,-311.69 411.81,-321.57 418.81,-321.81"/>
</g>
</g>
</svg>
