<?xml version="1.0" encoding="UTF-8" standalone="no"?>
<!DOCTYPE svg PUBLIC "-//W3C//DTD SVG 1.1//EN"
 "http://www.w3.org/Graphics/SVG/1.1/DTD/svg11.dtd">
<!-- Generated by graphviz version 2.44.0 ()
 -->
<!-- Title: print.c Pages: 1 -->
<svg width="1048pt" height="552pt"
 viewBox="0.00 0.00 1048.00 552.00" xmlns="http://www.w3.org/2000/svg" xmlns:xlink="http://www.w3.org/1999/xlink">
<g id="graph0" class="graph" transform="scale(1 1) rotate(0) translate(4 548)">
<title>print.c</title>
<polygon fill="white" stroke="transparent" points="-4,4 -4,-548 1044,-548 1044,4 -4,4"/>
<!-- Node1 -->
<g id="node1" class="node">
<title>Node1</title>
<g id="a_node1"><a xlink:title=" ">
<polygon fill="#bfbfbf" stroke="black" points="386.5,-522.5 386.5,-543.5 435.5,-543.5 435.5,-522.5 386.5,-522.5"/>
<text text-anchor="middle" x="411" y="-529.9" font-family="DejaVuSans" font-size="12.00">print.c</text>
</a>
</g>
</g>
<!-- Node2 -->
<g id="node2" class="node">
<title>Node2</title>
<g id="a_node2"><a xlink:title=" ">
<polygon fill="white" stroke="#bfbfbf" points="0,-464.5 0,-485.5 54,-485.5 54,-464.5 0,-464.5"/>
<text text-anchor="middle" x="27" y="-471.9" font-family="DejaVuSans" font-size="12.00">stdlib.h</text>
</a>
</g>
</g>
<!-- Node1&#45;&gt;Node2 -->
<g id="edge1" class="edge">
<title>Node1&#45;&gt;Node2</title>
<path fill="none" stroke="midnightblue" d="M386.32,-529.6C329.73,-523.89 186.38,-508.31 68,-486 66.74,-485.76 65.47,-485.51 64.18,-485.25"/>
<polygon fill="midnightblue" stroke="midnightblue" points="64.78,-481.8 54.26,-483.08 63.28,-488.64 64.78,-481.8"/>
</g>
<!-- Node3 -->
<g id="node3" class="node">
<title>Node3</title>
<g id="a_node3"><a xlink:href="global__const_8h.html" target="_top" xlink:title=" ">
<polygon fill="white" stroke="black" points="626.5,-116.5 626.5,-137.5 719.5,-137.5 719.5,-116.5 626.5,-116.5"/>
<text text-anchor="middle" x="673" y="-123.9" font-family="DejaVuSans" font-size="12.00">global_const.h</text>
</a>
</g>
</g>
<!-- Node1&#45;&gt;Node3 -->
<g id="edge2" class="edge">
<title>Node1&#45;&gt;Node3</title>
<path fill="none" stroke="midnightblue" d="M435.75,-530.92C528.19,-526.25 848,-503.86 848,-418 848,-418 848,-418 848,-300 848,-220.96 756.07,-166.14 705.47,-141.95"/>
<polygon fill="midnightblue" stroke="midnightblue" points="706.78,-138.7 696.24,-137.66 703.83,-145.05 706.78,-138.7"/>
</g>
<!-- Node6 -->
<g id="node6" class="node">
<title>Node6</title>
<g id="a_node6"><a xlink:href="charset_8h.html" target="_top" xlink:title=" ">
<polygon fill="white" stroke="black" points="140.5,-116.5 140.5,-137.5 205.5,-137.5 205.5,-116.5 140.5,-116.5"/>
<text text-anchor="middle" x="173" y="-123.9" font-family="DejaVuSans" font-size="12.00">charset.h</text>
</a>
</g>
</g>
<!-- Node1&#45;&gt;Node6 -->
<g id="edge5" class="edge">
<title>Node1&#45;&gt;Node6</title>
<path fill="none" stroke="midnightblue" d="M386.27,-528.88C309.76,-518.55 82,-482.38 82,-418 82,-418 82,-418 82,-300 82,-236.97 130.34,-174.45 156.56,-145.18"/>
<polygon fill="midnightblue" stroke="midnightblue" points="159.41,-147.24 163.6,-137.51 154.26,-142.5 159.41,-147.24"/>
</g>
<!-- Node10 -->
<g id="node10" class="node">
<title>Node10</title>
<g id="a_node10"><a xlink:href="print_8h.html" target="_top" xlink:title=" ">
<polygon fill="white" stroke="black" points="292,-406.5 292,-427.5 342,-427.5 342,-406.5 292,-406.5"/>
<text text-anchor="middle" x="317" y="-413.9" font-family="DejaVuSans" font-size="12.00">print.h</text>
</a>
</g>
</g>
<!-- Node1&#45;&gt;Node10 -->
<g id="edge9" class="edge">
<title>Node1&#45;&gt;Node10</title>
<path fill="none" stroke="midnightblue" d="M396.69,-522.23C384.81,-513.64 367.99,-500.31 356,-486 343.48,-471.06 332.76,-451.55 325.75,-437.26"/>
<polygon fill="midnightblue" stroke="midnightblue" points="328.77,-435.46 321.32,-427.92 322.44,-438.46 328.77,-435.46"/>
</g>
<!-- Node16 -->
<g id="node16" class="node">
<title>Node16</title>
<g id="a_node16"><a xlink:href="eqtb_8h.html" target="_top" xlink:title=" ">
<polygon fill="white" stroke="black" points="338,-348.5 338,-369.5 388,-369.5 388,-348.5 338,-348.5"/>
<text text-anchor="middle" x="363" y="-355.9" font-family="DejaVuSans" font-size="12.00">eqtb.h</text>
</a>
</g>
</g>
<!-- Node1&#45;&gt;Node16 -->
<g id="edge55" class="edge">
<title>Node1&#45;&gt;Node16</title>
<path fill="none" stroke="midnightblue" d="M408.28,-522.26C400.63,-494.82 378.77,-416.51 368.48,-379.64"/>
<polygon fill="midnightblue" stroke="midnightblue" points="371.75,-378.32 365.69,-369.63 365.01,-380.21 371.75,-378.32"/>
</g>
<!-- Node17 -->
<g id="node17" class="node">
<title>Node17</title>
<g id="a_node17"><a xlink:href="global_8h.html" target="_top" xlink:title=" ">
<polygon fill="white" stroke="black" points="838,-116.5 838,-137.5 896,-137.5 896,-116.5 838,-116.5"/>
<text text-anchor="middle" x="867" y="-123.9" font-family="DejaVuSans" font-size="12.00">global.h</text>
</a>
</g>
</g>
<!-- Node1&#45;&gt;Node17 -->
<g id="edge29" class="edge">
<title>Node1&#45;&gt;Node17</title>
<path fill="none" stroke="midnightblue" d="M435.69,-530.86C510.62,-527.13 734.33,-513.88 801,-486 845.63,-467.34 886,-466.38 886,-418 886,-418 886,-418 886,-242 886,-208.38 877.86,-169.92 872.23,-147.37"/>
<polygon fill="midnightblue" stroke="midnightblue" points="875.62,-146.47 869.72,-137.67 868.84,-148.23 875.62,-146.47"/>
</g>
<!-- Node19 -->
<g id="node19" class="node">
<title>Node19</title>
<g id="a_node19"><a xlink:href="io_8h.html" target="_top" xlink:title=" ">
<polygon fill="white" stroke="black" points="246,-348.5 246,-369.5 282,-369.5 282,-348.5 246,-348.5"/>
<text text-anchor="middle" x="264" y="-355.9" font-family="DejaVuSans" font-size="12.00">io.h</text>
</a>
</g>
</g>
<!-- Node1&#45;&gt;Node19 -->
<g id="edge33" class="edge">
<title>Node1&#45;&gt;Node19</title>
<path fill="none" stroke="midnightblue" d="M391.49,-522.35C362.43,-506.84 308.49,-473.45 283,-428 274.58,-412.98 269.68,-393.98 266.97,-379.88"/>
<polygon fill="midnightblue" stroke="midnightblue" points="270.38,-379.06 265.24,-369.79 263.48,-380.24 270.38,-379.06"/>
</g>
<!-- Node20 -->
<g id="node20" class="node">
<title>Node20</title>
<g id="a_node20"><a xlink:href="error_8h.html" target="_top" xlink:title=" ">
<polygon fill="white" stroke="black" points="914.5,-464.5 914.5,-485.5 965.5,-485.5 965.5,-464.5 914.5,-464.5"/>
<text text-anchor="middle" x="940" y="-471.9" font-family="DejaVuSans" font-size="12.00">error.h</text>
</a>
</g>
</g>
<!-- Node1&#45;&gt;Node20 -->
<g id="edge37" class="edge">
<title>Node1&#45;&gt;Node20</title>
<path fill="none" stroke="midnightblue" d="M435.6,-531C507.51,-527.8 723.49,-516.19 900,-486 901.46,-485.75 902.94,-485.48 904.43,-485.18"/>
<polygon fill="midnightblue" stroke="midnightblue" points="905.28,-488.58 914.3,-483.03 903.78,-481.74 905.28,-488.58"/>
</g>
<!-- Node21 -->
<g id="node21" class="node">
<title>Node21</title>
<g id="a_node21"><a xlink:href="extension_8h.html" target="_top" xlink:title=" ">
<polygon fill="white" stroke="black" points="414,-464.5 414,-485.5 492,-485.5 492,-464.5 414,-464.5"/>
<text text-anchor="middle" x="453" y="-471.9" font-family="DejaVuSans" font-size="12.00">extension.h</text>
</a>
</g>
</g>
<!-- Node1&#45;&gt;Node21 -->
<g id="edge38" class="edge">
<title>Node1&#45;&gt;Node21</title>
<path fill="none" stroke="midnightblue" d="M418.32,-522.25C424.22,-514.38 432.67,-503.1 439.76,-493.65"/>
<polygon fill="midnightblue" stroke="midnightblue" points="442.57,-495.74 445.77,-485.64 436.97,-491.54 442.57,-495.74"/>
</g>
<!-- Node26 -->
<g id="node26" class="node">
<title>Node26</title>
<g id="a_node26"><a xlink:href="dump_8h.html" target="_top" xlink:title=" ">
<polygon fill="white" stroke="black" points="984,-464.5 984,-485.5 1040,-485.5 1040,-464.5 984,-464.5"/>
<text text-anchor="middle" x="1012" y="-471.9" font-family="DejaVuSans" font-size="12.00">dump.h</text>
</a>
</g>
</g>
<!-- Node1&#45;&gt;Node26 -->
<g id="edge54" class="edge">
<title>Node1&#45;&gt;Node26</title>
<path fill="none" stroke="midnightblue" d="M435.66,-531.59C513.47,-529.97 760.72,-522.24 973.72,-485.93"/>
<polygon fill="midnightblue" stroke="midnightblue" points="974.58,-489.33 983.84,-484.18 973.39,-482.44 974.58,-489.33"/>
</g>
<!-- Node4 -->
<g id="node4" class="node">
<title>Node4</title>
<g id="a_node4"><a xlink:title=" ">
<polygon fill="white" stroke="#bfbfbf" points="643.5,-58.5 643.5,-79.5 702.5,-79.5 702.5,-58.5 643.5,-58.5"/>
<text text-anchor="middle" x="673" y="-65.9" font-family="DejaVuSans" font-size="12.00">assert.h</text>
</a>
</g>
</g>
<!-- Node3&#45;&gt;Node4 -->
<g id="edge3" class="edge">
<title>Node3&#45;&gt;Node4</title>
<path fill="none" stroke="midnightblue" d="M673,-116.25C673,-108.94 673,-98.69 673,-89.7"/>
<polygon fill="midnightblue" stroke="midnightblue" points="676.5,-89.64 673,-79.64 669.5,-89.64 676.5,-89.64"/>
</g>
<!-- Node5 -->
<g id="node5" class="node">
<title>Node5</title>
<g id="a_node5"><a xlink:title=" ">
<polygon fill="white" stroke="#bfbfbf" points="746,-58.5 746,-79.5 798,-79.5 798,-58.5 746,-58.5"/>
<text text-anchor="middle" x="772" y="-65.9" font-family="DejaVuSans" font-size="12.00">stdio.h</text>
</a>
</g>
</g>
<!-- Node3&#45;&gt;Node5 -->
<g id="edge4" class="edge">
<title>Node3&#45;&gt;Node5</title>
<path fill="none" stroke="midnightblue" d="M690.24,-116.25C705.58,-107.57 728.22,-94.76 745.79,-84.82"/>
<polygon fill="midnightblue" stroke="midnightblue" points="747.97,-87.61 754.95,-79.64 744.53,-81.52 747.97,-87.61"/>
</g>
<!-- Node7 -->
<g id="node7" class="node">
<title>Node7</title>
<g id="a_node7"><a xlink:href="tex__types_8h.html" target="_top" xlink:title=" ">
<polygon fill="white" stroke="black" points="368.5,-58.5 368.5,-79.5 445.5,-79.5 445.5,-58.5 368.5,-58.5"/>
<text text-anchor="middle" x="407" y="-65.9" font-family="DejaVuSans" font-size="12.00">tex_types.h</text>
</a>
</g>
</g>
<!-- Node6&#45;&gt;Node7 -->
<g id="edge6" class="edge">
<title>Node6&#45;&gt;Node7</title>
<path fill="none" stroke="midnightblue" d="M205.54,-118.21C245.11,-108.74 312.3,-92.66 358.12,-81.7"/>
<polygon fill="midnightblue" stroke="midnightblue" points="359.21,-85.04 368.12,-79.3 357.58,-78.23 359.21,-85.04"/>
</g>
<!-- Node8 -->
<g id="node8" class="node">
<title>Node8</title>
<g id="a_node8"><a xlink:title=" ">
<polygon fill="white" stroke="#bfbfbf" points="374.5,-0.5 374.5,-21.5 439.5,-21.5 439.5,-0.5 374.5,-0.5"/>
<text text-anchor="middle" x="407" y="-7.9" font-family="DejaVuSans" font-size="12.00">stdbool.h</text>
</a>
</g>
</g>
<!-- Node7&#45;&gt;Node8 -->
<g id="edge7" class="edge">
<title>Node7&#45;&gt;Node8</title>
<path fill="none" stroke="midnightblue" d="M407,-58.25C407,-50.94 407,-40.69 407,-31.7"/>
<polygon fill="midnightblue" stroke="midnightblue" points="410.5,-31.64 407,-21.64 403.5,-31.64 410.5,-31.64"/>
</g>
<!-- Node9 -->
<g id="node9" class="node">
<title>Node9</title>
<g id="a_node9"><a xlink:title=" ">
<polygon fill="white" stroke="#bfbfbf" points="480.5,-0.5 480.5,-21.5 535.5,-21.5 535.5,-0.5 480.5,-0.5"/>
<text text-anchor="middle" x="508" y="-7.9" font-family="DejaVuSans" font-size="12.00">stdint.h</text>
</a>
</g>
</g>
<!-- Node7&#45;&gt;Node9 -->
<g id="edge8" class="edge">
<title>Node7&#45;&gt;Node9</title>
<path fill="none" stroke="midnightblue" d="M424.59,-58.25C440.38,-49.49 463.76,-36.53 481.76,-26.55"/>
<polygon fill="midnightblue" stroke="midnightblue" points="483.56,-29.55 490.61,-21.64 480.17,-23.43 483.56,-29.55"/>
</g>
<!-- Node10&#45;&gt;Node6 -->
<g id="edge10" class="edge">
<title>Node10&#45;&gt;Node6</title>
<path fill="none" stroke="midnightblue" d="M293.02,-406.41C275.81,-398.61 252.94,-386.23 237,-370 175.79,-307.7 171.24,-194.08 172.12,-148.1"/>
<polygon fill="midnightblue" stroke="midnightblue" points="175.62,-148.05 172.42,-137.95 168.62,-147.84 175.62,-148.05"/>
</g>
<!-- Node10&#45;&gt;Node7 -->
<g id="edge11" class="edge">
<title>Node10&#45;&gt;Node7</title>
<path fill="none" stroke="midnightblue" d="M293.02,-406.41C275.81,-398.61 252.94,-386.23 237,-370 151.27,-282.74 51.93,-209.34 131,-116 159.58,-82.26 287.08,-73.25 358.36,-70.85"/>
<polygon fill="midnightblue" stroke="midnightblue" points="358.57,-74.35 368.46,-70.54 358.35,-67.35 358.57,-74.35"/>
</g>
<!-- Node11 -->
<g id="node11" class="node">
<title>Node11</title>
<g id="a_node11"><a xlink:href="tex_8h.html" target="_top" xlink:title=" ">
<polygon fill="white" stroke="black" points="463,-348.5 463,-369.5 505,-369.5 505,-348.5 463,-348.5"/>
<text text-anchor="middle" x="484" y="-355.9" font-family="DejaVuSans" font-size="12.00">tex.h</text>
</a>
</g>
</g>
<!-- Node10&#45;&gt;Node11 -->
<g id="edge12" class="edge">
<title>Node10&#45;&gt;Node11</title>
<path fill="none" stroke="midnightblue" d="M342,-407.62C371.64,-397.68 421.04,-381.11 453.07,-370.37"/>
<polygon fill="midnightblue" stroke="midnightblue" points="454.44,-373.61 462.8,-367.11 452.21,-366.97 454.44,-373.61"/>
</g>
<!-- Node14 -->
<g id="node14" class="node">
<title>Node14</title>
<g id="a_node14"><a xlink:href="str_8h.html" target="_top" xlink:title=" ">
<polygon fill="white" stroke="black" points="430.5,-174.5 430.5,-195.5 469.5,-195.5 469.5,-174.5 430.5,-174.5"/>
<text text-anchor="middle" x="450" y="-181.9" font-family="DejaVuSans" font-size="12.00">str.h</text>
</a>
</g>
</g>
<!-- Node10&#45;&gt;Node14 -->
<g id="edge28" class="edge">
<title>Node10&#45;&gt;Node14</title>
<path fill="none" stroke="midnightblue" d="M317.47,-406.43C318.41,-392.96 321.14,-367.84 329,-348 340.35,-319.35 347.24,-313.65 367,-290 381.92,-272.15 390.04,-271.82 405,-254 418.17,-238.32 430.82,-218.65 439.34,-204.51"/>
<polygon fill="midnightblue" stroke="midnightblue" points="442.46,-206.11 444.53,-195.72 436.43,-202.55 442.46,-206.11"/>
</g>
<!-- Node10&#45;&gt;Node16 -->
<g id="edge25" class="edge">
<title>Node10&#45;&gt;Node16</title>
<path fill="none" stroke="midnightblue" d="M325.01,-406.25C331.48,-398.38 340.74,-387.1 348.5,-377.65"/>
<polygon fill="midnightblue" stroke="midnightblue" points="351.44,-379.59 355.08,-369.64 346.03,-375.15 351.44,-379.59"/>
</g>
<!-- Node11&#45;&gt;Node3 -->
<g id="edge13" class="edge">
<title>Node11&#45;&gt;Node3</title>
<path fill="none" stroke="midnightblue" d="M491.88,-348.41C520.76,-313.27 621.06,-191.21 658.64,-145.48"/>
<polygon fill="midnightblue" stroke="midnightblue" points="661.44,-147.58 665.09,-137.63 656.03,-143.13 661.44,-147.58"/>
</g>
<!-- Node11&#45;&gt;Node7 -->
<g id="edge14" class="edge">
<title>Node11&#45;&gt;Node7</title>
<path fill="none" stroke="midnightblue" d="M486.01,-348.29C489.88,-328.68 498,-282.88 498,-244 498,-244 498,-244 498,-184 498,-141 457.96,-104.89 431,-85.44"/>
<polygon fill="midnightblue" stroke="midnightblue" points="432.65,-82.33 422.44,-79.5 428.66,-88.08 432.65,-82.33"/>
</g>
<!-- Node12 -->
<g id="node12" class="node">
<title>Node12</title>
<g id="a_node12"><a xlink:href="tex__constant_8h.html" target="_top" xlink:title=" ">
<polygon fill="white" stroke="black" points="376,-290.5 376,-311.5 470,-311.5 470,-290.5 376,-290.5"/>
<text text-anchor="middle" x="423" y="-297.9" font-family="DejaVuSans" font-size="12.00">tex_constant.h</text>
</a>
</g>
</g>
<!-- Node11&#45;&gt;Node12 -->
<g id="edge15" class="edge">
<title>Node11&#45;&gt;Node12</title>
<path fill="none" stroke="midnightblue" d="M473.37,-348.25C464.45,-340.05 451.51,-328.17 440.98,-318.51"/>
<polygon fill="midnightblue" stroke="midnightblue" points="443.24,-315.83 433.5,-311.64 438.5,-320.98 443.24,-315.83"/>
</g>
<!-- Node13 -->
<g id="node13" class="node">
<title>Node13</title>
<g id="a_node13"><a xlink:href="box_8h.html" target="_top" xlink:title=" ">
<polygon fill="white" stroke="black" points="350,-232.5 350,-253.5 396,-253.5 396,-232.5 350,-232.5"/>
<text text-anchor="middle" x="373" y="-239.9" font-family="DejaVuSans" font-size="12.00">box.h</text>
</a>
</g>
</g>
<!-- Node12&#45;&gt;Node13 -->
<g id="edge16" class="edge">
<title>Node12&#45;&gt;Node13</title>
<path fill="none" stroke="midnightblue" d="M414.29,-290.25C407.19,-282.3 396.99,-270.87 388.5,-261.37"/>
<polygon fill="midnightblue" stroke="midnightblue" points="390.88,-258.77 381.61,-253.64 385.66,-263.43 390.88,-258.77"/>
</g>
<!-- Node13&#45;&gt;Node14 -->
<g id="edge17" class="edge">
<title>Node13&#45;&gt;Node14</title>
<path fill="none" stroke="midnightblue" d="M386.41,-232.25C398.01,-223.81 414.97,-211.47 428.47,-201.66"/>
<polygon fill="midnightblue" stroke="midnightblue" points="430.71,-204.36 436.74,-195.64 426.6,-198.69 430.71,-204.36"/>
</g>
<!-- Node15 -->
<g id="node15" class="node">
<title>Node15</title>
<g id="a_node15"><a xlink:href="texmath_8h.html" target="_top" xlink:title=" ">
<polygon fill="white" stroke="black" points="344,-174.5 344,-195.5 412,-195.5 412,-174.5 344,-174.5"/>
<text text-anchor="middle" x="378" y="-181.9" font-family="DejaVuSans" font-size="12.00">texmath.h</text>
</a>
</g>
</g>
<!-- Node13&#45;&gt;Node15 -->
<g id="edge23" class="edge">
<title>Node13&#45;&gt;Node15</title>
<path fill="none" stroke="midnightblue" d="M373.87,-232.25C374.52,-224.94 375.44,-214.69 376.24,-205.7"/>
<polygon fill="midnightblue" stroke="midnightblue" points="379.74,-205.91 377.14,-195.64 372.76,-205.29 379.74,-205.91"/>
</g>
<!-- Node14&#45;&gt;Node3 -->
<g id="edge20" class="edge">
<title>Node14&#45;&gt;Node3</title>
<path fill="none" stroke="midnightblue" d="M469.79,-179.03C504.32,-170.36 576.51,-152.23 624.88,-140.08"/>
<polygon fill="midnightblue" stroke="midnightblue" points="625.97,-143.42 634.81,-137.59 624.26,-136.63 625.97,-143.42"/>
</g>
<!-- Node14&#45;&gt;Node5 -->
<g id="edge18" class="edge">
<title>Node14&#45;&gt;Node5</title>
<path fill="none" stroke="midnightblue" d="M469.68,-175.33C500.82,-161.77 563.52,-135.12 618,-116 657.86,-102.02 704.43,-88.48 735.84,-79.76"/>
<polygon fill="midnightblue" stroke="midnightblue" points="737.16,-83.03 745.87,-76.99 735.3,-76.28 737.16,-83.03"/>
</g>
<!-- Node14&#45;&gt;Node6 -->
<g id="edge21" class="edge">
<title>Node14&#45;&gt;Node6</title>
<path fill="none" stroke="midnightblue" d="M430.47,-176.82C427.32,-175.8 424.09,-174.81 421,-174 350.04,-155.3 265.71,-141.37 215.92,-133.98"/>
<polygon fill="midnightblue" stroke="midnightblue" points="216.24,-130.49 205.84,-132.5 215.23,-137.41 216.24,-130.49"/>
</g>
<!-- Node14&#45;&gt;Node7 -->
<g id="edge22" class="edge">
<title>Node14&#45;&gt;Node7</title>
<path fill="none" stroke="midnightblue" d="M446.33,-174.28C439.23,-155.43 423.45,-113.62 414.19,-89.05"/>
<polygon fill="midnightblue" stroke="midnightblue" points="417.46,-87.82 410.66,-79.69 410.91,-90.29 417.46,-87.82"/>
</g>
<!-- Node14&#45;&gt;Node9 -->
<g id="edge19" class="edge">
<title>Node14&#45;&gt;Node9</title>
<path fill="none" stroke="midnightblue" d="M453.28,-174.26C462.58,-146.71 489.17,-67.83 501.54,-31.17"/>
<polygon fill="midnightblue" stroke="midnightblue" points="504.87,-32.23 504.75,-21.63 498.24,-29.99 504.87,-32.23"/>
</g>
<!-- Node15&#45;&gt;Node7 -->
<g id="edge24" class="edge">
<title>Node15&#45;&gt;Node7</title>
<path fill="none" stroke="midnightblue" d="M380.47,-174.28C385.22,-155.6 395.71,-114.37 401.98,-89.72"/>
<polygon fill="midnightblue" stroke="midnightblue" points="405.46,-90.25 404.53,-79.69 398.68,-88.52 405.46,-90.25"/>
</g>
<!-- Node16&#45;&gt;Node7 -->
<g id="edge26" class="edge">
<title>Node16&#45;&gt;Node7</title>
<path fill="none" stroke="midnightblue" d="M337.82,-348.95C300.28,-333.64 234,-298.84 234,-244 234,-244 234,-244 234,-184 234,-124.14 307.1,-93.94 358.26,-80.12"/>
<polygon fill="midnightblue" stroke="midnightblue" points="359.36,-83.45 368.18,-77.57 357.62,-76.67 359.36,-83.45"/>
</g>
<!-- Node16&#45;&gt;Node12 -->
<g id="edge27" class="edge">
<title>Node16&#45;&gt;Node12</title>
<path fill="none" stroke="midnightblue" d="M373.45,-348.25C382.23,-340.05 394.96,-328.17 405.31,-318.51"/>
<polygon fill="midnightblue" stroke="midnightblue" points="407.75,-321.02 412.67,-311.64 402.97,-315.91 407.75,-321.02"/>
</g>
<!-- Node17&#45;&gt;Node5 -->
<g id="edge30" class="edge">
<title>Node17&#45;&gt;Node5</title>
<path fill="none" stroke="midnightblue" d="M850.45,-116.25C835.74,-107.57 814.01,-94.76 797.15,-84.82"/>
<polygon fill="midnightblue" stroke="midnightblue" points="798.75,-81.71 788.36,-79.64 795.2,-87.74 798.75,-81.71"/>
</g>
<!-- Node17&#45;&gt;Node7 -->
<g id="edge32" class="edge">
<title>Node17&#45;&gt;Node7</title>
<path fill="none" stroke="midnightblue" d="M837.88,-122.45C760.89,-113.08 551.39,-87.58 455.76,-75.94"/>
<polygon fill="midnightblue" stroke="midnightblue" points="456.13,-72.45 445.78,-74.72 455.28,-79.4 456.13,-72.45"/>
</g>
<!-- Node18 -->
<g id="node18" class="node">
<title>Node18</title>
<g id="a_node18"><a xlink:title=" ">
<polygon fill="white" stroke="#bfbfbf" points="836,-58.5 836,-79.5 898,-79.5 898,-58.5 836,-58.5"/>
<text text-anchor="middle" x="867" y="-65.9" font-family="DejaVuSans" font-size="12.00">setjmp.h</text>
</a>
</g>
</g>
<!-- Node17&#45;&gt;Node18 -->
<g id="edge31" class="edge">
<title>Node17&#45;&gt;Node18</title>
<path fill="none" stroke="midnightblue" d="M867,-116.25C867,-108.94 867,-98.69 867,-89.7"/>
<polygon fill="midnightblue" stroke="midnightblue" points="870.5,-89.64 867,-79.64 863.5,-89.64 870.5,-89.64"/>
</g>
<!-- Node19&#45;&gt;Node6 -->
<g id="edge35" class="edge">
<title>Node19&#45;&gt;Node6</title>
<path fill="none" stroke="midnightblue" d="M251.75,-348.33C241.77,-339.8 228.04,-326.49 220,-312 189.82,-257.61 178.59,-183.45 174.78,-148.2"/>
<polygon fill="midnightblue" stroke="midnightblue" points="178.22,-147.43 173.75,-137.82 171.25,-148.12 178.22,-147.43"/>
</g>
<!-- Node19&#45;&gt;Node12 -->
<g id="edge34" class="edge">
<title>Node19&#45;&gt;Node12</title>
<path fill="none" stroke="midnightblue" d="M282.24,-351.58C307.52,-342.67 353.78,-326.38 386.35,-314.91"/>
<polygon fill="midnightblue" stroke="midnightblue" points="387.71,-318.14 395.98,-311.52 385.38,-311.54 387.71,-318.14"/>
</g>
<!-- Node19&#45;&gt;Node14 -->
<g id="edge36" class="edge">
<title>Node19&#45;&gt;Node14</title>
<path fill="none" stroke="midnightblue" d="M267.11,-348.46C275.26,-324.96 299.53,-263.86 341,-232 353.98,-222.02 393.07,-206.63 420.71,-196.44"/>
<polygon fill="midnightblue" stroke="midnightblue" points="422.11,-199.66 430.3,-192.94 419.71,-193.08 422.11,-199.66"/>
</g>
<!-- Node21&#45;&gt;Node16 -->
<g id="edge42" class="edge">
<title>Node21&#45;&gt;Node16</title>
<path fill="none" stroke="midnightblue" d="M445.33,-464.28C430.18,-445.1 396.26,-402.12 377.02,-377.75"/>
<polygon fill="midnightblue" stroke="midnightblue" points="379.6,-375.38 370.65,-369.69 374.1,-379.71 379.6,-375.38"/>
</g>
<!-- Node22 -->
<g id="node22" class="node">
<title>Node22</title>
<g id="a_node22"><a xlink:href="lexer_8h.html" target="_top" xlink:title=" ">
<polygon fill="white" stroke="black" points="520,-406.5 520,-427.5 572,-427.5 572,-406.5 520,-406.5"/>
<text text-anchor="middle" x="546" y="-413.9" font-family="DejaVuSans" font-size="12.00">lexer.h</text>
</a>
</g>
</g>
<!-- Node21&#45;&gt;Node22 -->
<g id="edge39" class="edge">
<title>Node21&#45;&gt;Node22</title>
<path fill="none" stroke="midnightblue" d="M469.2,-464.25C483.6,-455.57 504.87,-442.76 521.38,-432.82"/>
<polygon fill="midnightblue" stroke="midnightblue" points="523.22,-435.8 529.99,-427.64 519.61,-429.8 523.22,-435.8"/>
</g>
<!-- Node23 -->
<g id="node23" class="node">
<title>Node23</title>
<g id="a_node23"><a xlink:href="hyphen_8h.html" target="_top" xlink:title=" ">
<polygon fill="white" stroke="black" points="436,-406.5 436,-427.5 502,-427.5 502,-406.5 436,-406.5"/>
<text text-anchor="middle" x="469" y="-413.9" font-family="DejaVuSans" font-size="12.00">hyphen.h</text>
</a>
</g>
</g>
<!-- Node21&#45;&gt;Node23 -->
<g id="edge43" class="edge">
<title>Node21&#45;&gt;Node23</title>
<path fill="none" stroke="midnightblue" d="M455.79,-464.25C457.9,-456.86 460.87,-446.47 463.45,-437.41"/>
<polygon fill="midnightblue" stroke="midnightblue" points="466.86,-438.22 466.24,-427.64 460.13,-436.3 466.86,-438.22"/>
</g>
<!-- Node22&#45;&gt;Node5 -->
<g id="edge40" class="edge">
<title>Node22&#45;&gt;Node5</title>
<path fill="none" stroke="midnightblue" d="M572.28,-416.42C639.05,-415.99 810,-404.84 810,-302 810,-302 810,-302 810,-184 810,-148.9 793.59,-110.7 782.34,-88.63"/>
<polygon fill="midnightblue" stroke="midnightblue" points="785.38,-86.9 777.61,-79.7 779.19,-90.17 785.38,-86.9"/>
</g>
<!-- Node22&#45;&gt;Node11 -->
<g id="edge41" class="edge">
<title>Node22&#45;&gt;Node11</title>
<path fill="none" stroke="midnightblue" d="M535.2,-406.25C526.13,-398.05 512.98,-386.17 502.28,-376.51"/>
<polygon fill="midnightblue" stroke="midnightblue" points="504.44,-373.75 494.68,-369.64 499.75,-378.94 504.44,-373.75"/>
</g>
<!-- Node23&#45;&gt;Node3 -->
<g id="edge44" class="edge">
<title>Node23&#45;&gt;Node3</title>
<path fill="none" stroke="midnightblue" d="M502.23,-407.67C541.89,-397.5 605.65,-380.38 628,-370 670.15,-350.42 693.07,-352.97 715,-312 744.68,-256.55 706.24,-180.8 685.14,-146.38"/>
<polygon fill="midnightblue" stroke="midnightblue" points="688.03,-144.39 679.73,-137.81 682.11,-148.13 688.03,-144.39"/>
</g>
<!-- Node23&#45;&gt;Node6 -->
<g id="edge45" class="edge">
<title>Node23&#45;&gt;Node6</title>
<path fill="none" stroke="midnightblue" d="M459.15,-406.42C416.22,-364.65 245.14,-198.19 190.13,-144.67"/>
<polygon fill="midnightblue" stroke="midnightblue" points="192.49,-142.08 182.89,-137.62 187.61,-147.1 192.49,-142.08"/>
</g>
<!-- Node23&#45;&gt;Node11 -->
<g id="edge46" class="edge">
<title>Node23&#45;&gt;Node11</title>
<path fill="none" stroke="midnightblue" d="M471.61,-406.25C473.59,-398.86 476.37,-388.47 478.8,-379.41"/>
<polygon fill="midnightblue" stroke="midnightblue" points="482.21,-380.21 481.42,-369.64 475.45,-378.4 482.21,-380.21"/>
</g>
<!-- Node23&#45;&gt;Node16 -->
<g id="edge53" class="edge">
<title>Node23&#45;&gt;Node16</title>
<path fill="none" stroke="midnightblue" d="M450.54,-406.25C433.89,-397.45 409.2,-384.41 390.28,-374.41"/>
<polygon fill="midnightblue" stroke="midnightblue" points="391.73,-371.22 381.25,-369.64 388.46,-377.41 391.73,-371.22"/>
</g>
<!-- Node24 -->
<g id="node24" class="node">
<title>Node24</title>
<g id="a_node24"><a xlink:href="fonts_8h.html" target="_top" xlink:title=" ">
<polygon fill="white" stroke="black" points="567,-348.5 567,-369.5 619,-369.5 619,-348.5 567,-348.5"/>
<text text-anchor="middle" x="593" y="-355.9" font-family="DejaVuSans" font-size="12.00">fonts.h</text>
</a>
</g>
</g>
<!-- Node23&#45;&gt;Node24 -->
<g id="edge47" class="edge">
<title>Node23&#45;&gt;Node24</title>
<path fill="none" stroke="midnightblue" d="M490.32,-406.37C510.22,-397.38 540.14,-383.87 562.56,-373.75"/>
<polygon fill="midnightblue" stroke="midnightblue" points="564.29,-376.81 571.96,-369.5 561.41,-370.43 564.29,-376.81"/>
</g>
<!-- Node24&#45;&gt;Node3 -->
<g id="edge49" class="edge">
<title>Node24&#45;&gt;Node3</title>
<path fill="none" stroke="midnightblue" d="M596.34,-348.41C608.41,-313.71 649.96,-194.24 666.31,-147.22"/>
<polygon fill="midnightblue" stroke="midnightblue" points="669.67,-148.23 669.65,-137.63 663.06,-145.93 669.67,-148.23"/>
</g>
<!-- Node24&#45;&gt;Node5 -->
<g id="edge48" class="edge">
<title>Node24&#45;&gt;Node5</title>
<path fill="none" stroke="midnightblue" d="M619.03,-353.83C668.67,-344.24 772,-315.66 772,-244 772,-244 772,-244 772,-184 772,-150.98 772,-112.59 772,-89.85"/>
<polygon fill="midnightblue" stroke="midnightblue" points="775.5,-89.76 772,-79.76 768.5,-89.76 775.5,-89.76"/>
</g>
<!-- Node24&#45;&gt;Node12 -->
<g id="edge50" class="edge">
<title>Node24&#45;&gt;Node12</title>
<path fill="none" stroke="midnightblue" d="M566.81,-349.37C538.7,-340.11 493.77,-325.31 461.61,-314.72"/>
<polygon fill="midnightblue" stroke="midnightblue" points="462.66,-311.38 452.07,-311.58 460.47,-318.03 462.66,-311.38"/>
</g>
<!-- Node24&#45;&gt;Node14 -->
<g id="edge51" class="edge">
<title>Node24&#45;&gt;Node14</title>
<path fill="none" stroke="midnightblue" d="M584.9,-348.26C561.7,-320.35 494.72,-239.79 464.78,-203.77"/>
<polygon fill="midnightblue" stroke="midnightblue" points="467.09,-201.09 458.01,-195.63 461.71,-205.56 467.09,-201.09"/>
</g>
<!-- Node25 -->
<g id="node25" class="node">
<title>Node25</title>
<g id="a_node25"><a xlink:href="macros_8h.html" target="_top" xlink:title=" ">
<polygon fill="white" stroke="black" points="640.5,-290.5 640.5,-311.5 705.5,-311.5 705.5,-290.5 640.5,-290.5"/>
<text text-anchor="middle" x="673" y="-297.9" font-family="DejaVuSans" font-size="12.00">macros.h</text>
</a>
</g>
</g>
<!-- Node24&#45;&gt;Node25 -->
<g id="edge52" class="edge">
<title>Node24&#45;&gt;Node25</title>
<path fill="none" stroke="midnightblue" d="M606.93,-348.25C619.09,-339.73 636.95,-327.24 651.03,-317.38"/>
<polygon fill="midnightblue" stroke="midnightblue" points="653.04,-320.24 659.22,-311.64 649.03,-314.51 653.04,-320.24"/>
</g>
</g>
</svg>
