<?xml version="1.0" encoding="UTF-8" standalone="no"?>
<!DOCTYPE svg PUBLIC "-//W3C//DTD SVG 1.1//EN"
 "http://www.w3.org/Graphics/SVG/1.1/DTD/svg11.dtd">
<!-- Generated by graphviz version 2.44.0 ()
 -->
<!-- Title: printout.c Pages: 1 -->
<svg width="830pt" height="610pt"
 viewBox="0.00 0.00 830.00 610.00" xmlns="http://www.w3.org/2000/svg" xmlns:xlink="http://www.w3.org/1999/xlink">
<g id="graph0" class="graph" transform="scale(1 1) rotate(0) translate(4 606)">
<title>printout.c</title>
<polygon fill="white" stroke="transparent" points="-4,4 -4,-606 826,-606 826,4 -4,4"/>
<!-- Node1 -->
<g id="node1" class="node">
<title>Node1</title>
<g id="a_node1"><a xlink:title=" ">
<polygon fill="#bfbfbf" stroke="black" points="377.5,-580.5 377.5,-601.5 442.5,-601.5 442.5,-580.5 377.5,-580.5"/>
<text text-anchor="middle" x="410" y="-587.9" font-family="DejaVuSans" font-size="12.00">printout.c</text>
</a>
</g>
</g>
<!-- Node2 -->
<g id="node2" class="node">
<title>Node2</title>
<g id="a_node2"><a xlink:href="tex_8h.html" target="_top" xlink:title=" ">
<polygon fill="white" stroke="black" points="319,-348.5 319,-369.5 361,-369.5 361,-348.5 319,-348.5"/>
<text text-anchor="middle" x="340" y="-355.9" font-family="DejaVuSans" font-size="12.00">tex.h</text>
</a>
</g>
</g>
<!-- Node1&#45;&gt;Node2 -->
<g id="edge1" class="edge">
<title>Node1&#45;&gt;Node2</title>
<path fill="none" stroke="midnightblue" d="M377.38,-581.46C335.84,-568.6 266,-539.84 237,-486 212.85,-441.17 273.76,-397.01 311.92,-374.8"/>
<polygon fill="midnightblue" stroke="midnightblue" points="314.08,-377.6 321.07,-369.64 310.64,-371.5 314.08,-377.6"/>
</g>
<!-- Node10 -->
<g id="node10" class="node">
<title>Node10</title>
<g id="a_node10"><a xlink:href="box_8h.html" target="_top" xlink:title=" ">
<polygon fill="white" stroke="black" points="230,-232.5 230,-253.5 276,-253.5 276,-232.5 230,-232.5"/>
<text text-anchor="middle" x="253" y="-239.9" font-family="DejaVuSans" font-size="12.00">box.h</text>
</a>
</g>
</g>
<!-- Node1&#45;&gt;Node10 -->
<g id="edge45" class="edge">
<title>Node1&#45;&gt;Node10</title>
<path fill="none" stroke="midnightblue" d="M377.39,-590.72C338.48,-589.72 274.03,-581.9 237,-544 157.62,-462.77 166.71,-395.4 209,-290 213.66,-278.38 222.82,-268.03 231.58,-260.11"/>
<polygon fill="midnightblue" stroke="midnightblue" points="233.97,-262.67 239.37,-253.55 229.46,-257.31 233.97,-262.67"/>
</g>
<!-- Node11 -->
<g id="node11" class="node">
<title>Node11</title>
<g id="a_node11"><a xlink:href="str_8h.html" target="_top" xlink:title=" ">
<polygon fill="white" stroke="black" points="520.5,-174.5 520.5,-195.5 559.5,-195.5 559.5,-174.5 520.5,-174.5"/>
<text text-anchor="middle" x="540" y="-181.9" font-family="DejaVuSans" font-size="12.00">str.h</text>
</a>
</g>
</g>
<!-- Node1&#45;&gt;Node11 -->
<g id="edge19" class="edge">
<title>Node1&#45;&gt;Node11</title>
<path fill="none" stroke="midnightblue" d="M442.77,-590.05C492.53,-588.84 588.89,-581.35 660,-544 697.84,-524.12 728,-518.74 728,-476 728,-476 728,-476 728,-358 728,-326.62 727.89,-315.06 709,-290 672.74,-241.89 607.16,-210.98 569.24,-196.22"/>
<polygon fill="midnightblue" stroke="midnightblue" points="570.36,-192.9 559.77,-192.65 567.89,-199.45 570.36,-192.9"/>
</g>
<!-- Node13 -->
<g id="node13" class="node">
<title>Node13</title>
<g id="a_node13"><a xlink:href="texmath_8h.html" target="_top" xlink:title=" ">
<polygon fill="white" stroke="black" points="66,-174.5 66,-195.5 134,-195.5 134,-174.5 66,-174.5"/>
<text text-anchor="middle" x="100" y="-181.9" font-family="DejaVuSans" font-size="12.00">texmath.h</text>
</a>
</g>
</g>
<!-- Node1&#45;&gt;Node13 -->
<g id="edge29" class="edge">
<title>Node1&#45;&gt;Node13</title>
<path fill="none" stroke="midnightblue" d="M377.49,-587.97C280.51,-581.04 0,-554.22 0,-476 0,-476 0,-476 0,-300 0,-255.38 43.82,-219.88 73.45,-200.98"/>
<polygon fill="midnightblue" stroke="midnightblue" points="75.43,-203.87 82.12,-195.65 71.77,-197.9 75.43,-203.87"/>
</g>
<!-- Node14 -->
<g id="node14" class="node">
<title>Node14</title>
<g id="a_node14"><a xlink:href="fonts_8h.html" target="_top" xlink:title=" ">
<polygon fill="white" stroke="black" points="633,-348.5 633,-369.5 685,-369.5 685,-348.5 633,-348.5"/>
<text text-anchor="middle" x="659" y="-355.9" font-family="DejaVuSans" font-size="12.00">fonts.h</text>
</a>
</g>
</g>
<!-- Node1&#45;&gt;Node14 -->
<g id="edge20" class="edge">
<title>Node1&#45;&gt;Node14</title>
<path fill="none" stroke="midnightblue" d="M442.78,-587.5C498.67,-582.58 609.11,-569.81 637,-544 683.28,-501.16 677.38,-468.63 670,-406 668.96,-397.15 666.82,-387.55 664.71,-379.41"/>
<polygon fill="midnightblue" stroke="midnightblue" points="668.08,-378.45 662.04,-369.75 661.33,-380.32 668.08,-378.45"/>
</g>
<!-- Node16 -->
<g id="node16" class="node">
<title>Node16</title>
<g id="a_node16"><a xlink:href="texfunc_8h.html" target="_top" xlink:title=" ">
<polygon fill="white" stroke="black" points="360.5,-232.5 360.5,-253.5 425.5,-253.5 425.5,-232.5 360.5,-232.5"/>
<text text-anchor="middle" x="393" y="-239.9" font-family="DejaVuSans" font-size="12.00">texfunc.h</text>
</a>
</g>
</g>
<!-- Node1&#45;&gt;Node16 -->
<g id="edge26" class="edge">
<title>Node1&#45;&gt;Node16</title>
<path fill="none" stroke="midnightblue" d="M409.53,-580.38C407.23,-533.54 397.17,-328.82 393.98,-263.86"/>
<polygon fill="midnightblue" stroke="midnightblue" points="397.46,-263.55 393.48,-253.73 390.47,-263.89 397.46,-263.55"/>
</g>
<!-- Node17 -->
<g id="node17" class="node">
<title>Node17</title>
<g id="a_node17"><a xlink:href="expand_8h.html" target="_top" xlink:title=" ">
<polygon fill="white" stroke="black" points="316,-464.5 316,-485.5 382,-485.5 382,-464.5 316,-464.5"/>
<text text-anchor="middle" x="349" y="-471.9" font-family="DejaVuSans" font-size="12.00">expand.h</text>
</a>
</g>
</g>
<!-- Node1&#45;&gt;Node17 -->
<g id="edge30" class="edge">
<title>Node1&#45;&gt;Node17</title>
<path fill="none" stroke="midnightblue" d="M404.8,-580.28C394.67,-561.35 372.14,-519.25 359.02,-494.72"/>
<polygon fill="midnightblue" stroke="midnightblue" points="361.99,-492.86 354.19,-485.69 355.82,-496.16 361.99,-492.86"/>
</g>
<!-- Node18 -->
<g id="node18" class="node">
<title>Node18</title>
<g id="a_node18"><a xlink:href="scan_8h.html" target="_top" xlink:title=" ">
<polygon fill="white" stroke="black" points="534,-464.5 534,-485.5 586,-485.5 586,-464.5 534,-464.5"/>
<text text-anchor="middle" x="560" y="-471.9" font-family="DejaVuSans" font-size="12.00">scan.h</text>
</a>
</g>
</g>
<!-- Node1&#45;&gt;Node18 -->
<g id="edge32" class="edge">
<title>Node1&#45;&gt;Node18</title>
<path fill="none" stroke="midnightblue" d="M442.5,-587.76C496.01,-583.33 598.95,-571.37 621,-544 636.37,-524.92 610.97,-504.1 588.42,-490.6"/>
<polygon fill="midnightblue" stroke="midnightblue" points="590.11,-487.53 579.69,-485.62 586.64,-493.61 590.11,-487.53"/>
</g>
<!-- Node20 -->
<g id="node20" class="node">
<title>Node20</title>
<g id="a_node20"><a xlink:href="print_8h.html" target="_top" xlink:title=" ">
<polygon fill="white" stroke="black" points="64,-406.5 64,-427.5 114,-427.5 114,-406.5 64,-406.5"/>
<text text-anchor="middle" x="89" y="-413.9" font-family="DejaVuSans" font-size="12.00">print.h</text>
</a>
</g>
</g>
<!-- Node1&#45;&gt;Node20 -->
<g id="edge36" class="edge">
<title>Node1&#45;&gt;Node20</title>
<path fill="none" stroke="midnightblue" d="M377.34,-588.89C311.24,-585.98 164.76,-576 128,-544 97.03,-517.05 90.31,-466.04 89.06,-437.9"/>
<polygon fill="midnightblue" stroke="midnightblue" points="92.56,-437.6 88.81,-427.69 85.56,-437.77 92.56,-437.6"/>
</g>
<!-- Node21 -->
<g id="node21" class="node">
<title>Node21</title>
<g id="a_node21"><a xlink:href="eqtb_8h.html" target="_top" xlink:title=" ">
<polygon fill="white" stroke="black" points="240,-348.5 240,-369.5 290,-369.5 290,-348.5 240,-348.5"/>
<text text-anchor="middle" x="265" y="-355.9" font-family="DejaVuSans" font-size="12.00">eqtb.h</text>
</a>
</g>
</g>
<!-- Node1&#45;&gt;Node21 -->
<g id="edge44" class="edge">
<title>Node1&#45;&gt;Node21</title>
<path fill="none" stroke="midnightblue" d="M377.39,-586.55C345.36,-581.71 296.55,-570.34 263,-544 232.47,-520.04 223.1,-502.5 228,-464 231.36,-437.59 233.88,-431.02 243,-406 246.36,-396.78 250.94,-386.91 255.05,-378.69"/>
<polygon fill="midnightblue" stroke="midnightblue" points="258.25,-380.13 259.72,-369.63 252.03,-376.92 258.25,-380.13"/>
</g>
<!-- Node22 -->
<g id="node22" class="node">
<title>Node22</title>
<g id="a_node22"><a xlink:href="error_8h.html" target="_top" xlink:title=" ">
<polygon fill="white" stroke="black" points="560.5,-522.5 560.5,-543.5 611.5,-543.5 611.5,-522.5 560.5,-522.5"/>
<text text-anchor="middle" x="586" y="-529.9" font-family="DejaVuSans" font-size="12.00">error.h</text>
</a>
</g>
</g>
<!-- Node1&#45;&gt;Node22 -->
<g id="edge46" class="edge">
<title>Node1&#45;&gt;Node22</title>
<path fill="none" stroke="midnightblue" d="M440.26,-580.37C470.85,-570.64 518.12,-555.6 550.48,-545.3"/>
<polygon fill="midnightblue" stroke="midnightblue" points="551.95,-548.51 560.42,-542.14 549.83,-541.84 551.95,-548.51"/>
</g>
<!-- Node23 -->
<g id="node23" class="node">
<title>Node23</title>
<g id="a_node23"><a xlink:href="mmode_8h.html" target="_top" xlink:title=" ">
<polygon fill="white" stroke="black" points="476,-522.5 476,-543.5 542,-543.5 542,-522.5 476,-522.5"/>
<text text-anchor="middle" x="509" y="-529.9" font-family="DejaVuSans" font-size="12.00">mmode.h</text>
</a>
</g>
</g>
<!-- Node1&#45;&gt;Node23 -->
<g id="edge47" class="edge">
<title>Node1&#45;&gt;Node23</title>
<path fill="none" stroke="midnightblue" d="M427.24,-580.25C442.58,-571.57 465.22,-558.76 482.79,-548.82"/>
<polygon fill="midnightblue" stroke="midnightblue" points="484.97,-551.61 491.95,-543.64 481.53,-545.52 484.97,-551.61"/>
</g>
<!-- Node24 -->
<g id="node24" class="node">
<title>Node24</title>
<g id="a_node24"><a xlink:href="align_8h.html" target="_top" xlink:title=" ">
<polygon fill="white" stroke="black" points="246,-464.5 246,-485.5 298,-485.5 298,-464.5 246,-464.5"/>
<text text-anchor="middle" x="272" y="-471.9" font-family="DejaVuSans" font-size="12.00">align.h</text>
</a>
</g>
</g>
<!-- Node1&#45;&gt;Node24 -->
<g id="edge51" class="edge">
<title>Node1&#45;&gt;Node24</title>
<path fill="none" stroke="midnightblue" d="M398.23,-580.28C374.5,-560.68 320.7,-516.23 291.58,-492.18"/>
<polygon fill="midnightblue" stroke="midnightblue" points="293.67,-489.37 283.74,-485.69 289.22,-494.76 293.67,-489.37"/>
</g>
<!-- Node25 -->
<g id="node25" class="node">
<title>Node25</title>
<g id="a_node25"><a xlink:href="extension_8h.html" target="_top" xlink:title=" ">
<polygon fill="white" stroke="black" points="438,-464.5 438,-485.5 516,-485.5 516,-464.5 438,-464.5"/>
<text text-anchor="middle" x="477" y="-471.9" font-family="DejaVuSans" font-size="12.00">extension.h</text>
</a>
</g>
</g>
<!-- Node1&#45;&gt;Node25 -->
<g id="edge54" class="edge">
<title>Node1&#45;&gt;Node25</title>
<path fill="none" stroke="midnightblue" d="M415.71,-580.28C426.89,-561.27 451.8,-518.88 466.19,-494.4"/>
<polygon fill="midnightblue" stroke="midnightblue" points="469.25,-496.09 471.3,-485.69 463.22,-492.54 469.25,-496.09"/>
</g>
<!-- Node27 -->
<g id="node27" class="node">
<title>Node27</title>
<g id="a_node27"><a xlink:href="printout_8h.html" target="_top" xlink:title=" ">
<polygon fill="white" stroke="black" points="756,-522.5 756,-543.5 822,-543.5 822,-522.5 756,-522.5"/>
<text text-anchor="middle" x="789" y="-529.9" font-family="DejaVuSans" font-size="12.00">printout.h</text>
</a>
</g>
</g>
<!-- Node1&#45;&gt;Node27 -->
<g id="edge63" class="edge">
<title>Node1&#45;&gt;Node27</title>
<path fill="none" stroke="midnightblue" d="M442.64,-586.27C502.29,-579.27 632.82,-563.15 742,-544 743.27,-543.78 744.56,-543.54 745.86,-543.3"/>
<polygon fill="midnightblue" stroke="midnightblue" points="746.79,-546.69 755.93,-541.35 745.45,-539.82 746.79,-546.69"/>
</g>
<!-- Node3 -->
<g id="node3" class="node">
<title>Node3</title>
<g id="a_node3"><a xlink:href="global__const_8h.html" target="_top" xlink:title=" ">
<polygon fill="white" stroke="black" points="607.5,-116.5 607.5,-137.5 700.5,-137.5 700.5,-116.5 607.5,-116.5"/>
<text text-anchor="middle" x="654" y="-123.9" font-family="DejaVuSans" font-size="12.00">global_const.h</text>
</a>
</g>
</g>
<!-- Node2&#45;&gt;Node3 -->
<g id="edge2" class="edge">
<title>Node2&#45;&gt;Node3</title>
<path fill="none" stroke="midnightblue" d="M354.15,-348.42C390.37,-323.8 489.24,-256.04 569,-196 591.76,-178.87 617.18,-158.34 634.25,-144.35"/>
<polygon fill="midnightblue" stroke="midnightblue" points="636.85,-146.74 642.35,-137.68 632.4,-141.33 636.85,-146.74"/>
</g>
<!-- Node6 -->
<g id="node6" class="node">
<title>Node6</title>
<g id="a_node6"><a xlink:href="tex__types_8h.html" target="_top" xlink:title=" ">
<polygon fill="white" stroke="black" points="304.5,-58.5 304.5,-79.5 381.5,-79.5 381.5,-58.5 304.5,-58.5"/>
<text text-anchor="middle" x="343" y="-65.9" font-family="DejaVuSans" font-size="12.00">tex_types.h</text>
</a>
</g>
</g>
<!-- Node2&#45;&gt;Node6 -->
<g id="edge5" class="edge">
<title>Node2&#45;&gt;Node6</title>
<path fill="none" stroke="midnightblue" d="M340.1,-348.42C340.53,-307.42 342.21,-146.29 342.79,-89.74"/>
<polygon fill="midnightblue" stroke="midnightblue" points="346.3,-89.65 342.9,-79.62 339.3,-89.58 346.3,-89.65"/>
</g>
<!-- Node9 -->
<g id="node9" class="node">
<title>Node9</title>
<g id="a_node9"><a xlink:href="tex__constant_8h.html" target="_top" xlink:title=" ">
<polygon fill="white" stroke="black" points="218,-290.5 218,-311.5 312,-311.5 312,-290.5 218,-290.5"/>
<text text-anchor="middle" x="265" y="-297.9" font-family="DejaVuSans" font-size="12.00">tex_constant.h</text>
</a>
</g>
</g>
<!-- Node2&#45;&gt;Node9 -->
<g id="edge8" class="edge">
<title>Node2&#45;&gt;Node9</title>
<path fill="none" stroke="midnightblue" d="M326.94,-348.25C315.64,-339.81 299.12,-327.47 285.97,-317.66"/>
<polygon fill="midnightblue" stroke="midnightblue" points="288.02,-314.82 277.91,-311.64 283.83,-320.43 288.02,-314.82"/>
</g>
<!-- Node4 -->
<g id="node4" class="node">
<title>Node4</title>
<g id="a_node4"><a xlink:title=" ">
<polygon fill="white" stroke="#bfbfbf" points="624.5,-58.5 624.5,-79.5 683.5,-79.5 683.5,-58.5 624.5,-58.5"/>
<text text-anchor="middle" x="654" y="-65.9" font-family="DejaVuSans" font-size="12.00">assert.h</text>
</a>
</g>
</g>
<!-- Node3&#45;&gt;Node4 -->
<g id="edge3" class="edge">
<title>Node3&#45;&gt;Node4</title>
<path fill="none" stroke="midnightblue" d="M654,-116.25C654,-108.94 654,-98.69 654,-89.7"/>
<polygon fill="midnightblue" stroke="midnightblue" points="657.5,-89.64 654,-79.64 650.5,-89.64 657.5,-89.64"/>
</g>
<!-- Node5 -->
<g id="node5" class="node">
<title>Node5</title>
<g id="a_node5"><a xlink:title=" ">
<polygon fill="white" stroke="#bfbfbf" points="702,-58.5 702,-79.5 754,-79.5 754,-58.5 702,-58.5"/>
<text text-anchor="middle" x="728" y="-65.9" font-family="DejaVuSans" font-size="12.00">stdio.h</text>
</a>
</g>
</g>
<!-- Node3&#45;&gt;Node5 -->
<g id="edge4" class="edge">
<title>Node3&#45;&gt;Node5</title>
<path fill="none" stroke="midnightblue" d="M666.89,-116.25C677.93,-107.89 694.03,-95.71 706.94,-85.94"/>
<polygon fill="midnightblue" stroke="midnightblue" points="709.4,-88.47 715.26,-79.64 705.17,-82.89 709.4,-88.47"/>
</g>
<!-- Node7 -->
<g id="node7" class="node">
<title>Node7</title>
<g id="a_node7"><a xlink:title=" ">
<polygon fill="white" stroke="#bfbfbf" points="310.5,-0.5 310.5,-21.5 375.5,-21.5 375.5,-0.5 310.5,-0.5"/>
<text text-anchor="middle" x="343" y="-7.9" font-family="DejaVuSans" font-size="12.00">stdbool.h</text>
</a>
</g>
</g>
<!-- Node6&#45;&gt;Node7 -->
<g id="edge6" class="edge">
<title>Node6&#45;&gt;Node7</title>
<path fill="none" stroke="midnightblue" d="M343,-58.25C343,-50.94 343,-40.69 343,-31.7"/>
<polygon fill="midnightblue" stroke="midnightblue" points="346.5,-31.64 343,-21.64 339.5,-31.64 346.5,-31.64"/>
</g>
<!-- Node8 -->
<g id="node8" class="node">
<title>Node8</title>
<g id="a_node8"><a xlink:title=" ">
<polygon fill="white" stroke="#bfbfbf" points="472.5,-0.5 472.5,-21.5 527.5,-21.5 527.5,-0.5 472.5,-0.5"/>
<text text-anchor="middle" x="500" y="-7.9" font-family="DejaVuSans" font-size="12.00">stdint.h</text>
</a>
</g>
</g>
<!-- Node6&#45;&gt;Node8 -->
<g id="edge7" class="edge">
<title>Node6&#45;&gt;Node8</title>
<path fill="none" stroke="midnightblue" d="M369.99,-58.37C395.87,-49.14 435.12,-35.14 463.73,-24.94"/>
<polygon fill="midnightblue" stroke="midnightblue" points="465.12,-28.16 473.36,-21.5 462.77,-21.56 465.12,-28.16"/>
</g>
<!-- Node9&#45;&gt;Node10 -->
<g id="edge9" class="edge">
<title>Node9&#45;&gt;Node10</title>
<path fill="none" stroke="midnightblue" d="M262.91,-290.25C261.34,-282.94 259.15,-272.69 257.22,-263.7"/>
<polygon fill="midnightblue" stroke="midnightblue" points="260.58,-262.69 255.07,-253.64 253.74,-264.15 260.58,-262.69"/>
</g>
<!-- Node10&#45;&gt;Node11 -->
<g id="edge10" class="edge">
<title>Node10&#45;&gt;Node11</title>
<path fill="none" stroke="midnightblue" d="M276,-237.51C327.72,-227.42 453.13,-202.95 510.48,-191.76"/>
<polygon fill="midnightblue" stroke="midnightblue" points="511.22,-195.18 520.37,-189.83 509.88,-188.31 511.22,-195.18"/>
</g>
<!-- Node10&#45;&gt;Node13 -->
<g id="edge17" class="edge">
<title>Node10&#45;&gt;Node13</title>
<path fill="none" stroke="midnightblue" d="M229.76,-233.49C204.79,-224.35 164.77,-209.71 135.78,-199.09"/>
<polygon fill="midnightblue" stroke="midnightblue" points="136.62,-195.67 126.02,-195.52 134.21,-202.25 136.62,-195.67"/>
</g>
<!-- Node11&#45;&gt;Node3 -->
<g id="edge13" class="edge">
<title>Node11&#45;&gt;Node3</title>
<path fill="none" stroke="midnightblue" d="M559.6,-174.37C577.73,-165.46 604.91,-152.11 625.46,-142.02"/>
<polygon fill="midnightblue" stroke="midnightblue" points="627.23,-145.05 634.66,-137.5 624.14,-138.77 627.23,-145.05"/>
</g>
<!-- Node11&#45;&gt;Node5 -->
<g id="edge11" class="edge">
<title>Node11&#45;&gt;Node5</title>
<path fill="none" stroke="midnightblue" d="M546.05,-174.26C555.6,-159.65 575.51,-132.05 599,-116 614.43,-105.46 659.57,-90.51 692.11,-80.55"/>
<polygon fill="midnightblue" stroke="midnightblue" points="693.19,-83.88 701.75,-77.63 691.16,-77.18 693.19,-83.88"/>
</g>
<!-- Node11&#45;&gt;Node6 -->
<g id="edge16" class="edge">
<title>Node11&#45;&gt;Node6</title>
<path fill="none" stroke="midnightblue" d="M534.43,-174.17C525.6,-159.44 506.99,-131.68 484,-116 456.22,-97.05 420.09,-85.46 391.35,-78.66"/>
<polygon fill="midnightblue" stroke="midnightblue" points="392.05,-75.23 381.52,-76.45 390.51,-82.06 392.05,-75.23"/>
</g>
<!-- Node11&#45;&gt;Node8 -->
<g id="edge12" class="edge">
<title>Node11&#45;&gt;Node8</title>
<path fill="none" stroke="midnightblue" d="M537.73,-174.26C531.35,-146.82 513.14,-68.51 504.57,-31.64"/>
<polygon fill="midnightblue" stroke="midnightblue" points="507.91,-30.58 502.24,-21.63 501.1,-32.17 507.91,-30.58"/>
</g>
<!-- Node12 -->
<g id="node12" class="node">
<title>Node12</title>
<g id="a_node12"><a xlink:href="charset_8h.html" target="_top" xlink:title=" ">
<polygon fill="white" stroke="black" points="409.5,-116.5 409.5,-137.5 474.5,-137.5 474.5,-116.5 409.5,-116.5"/>
<text text-anchor="middle" x="442" y="-123.9" font-family="DejaVuSans" font-size="12.00">charset.h</text>
</a>
</g>
</g>
<!-- Node11&#45;&gt;Node12 -->
<g id="edge14" class="edge">
<title>Node11&#45;&gt;Node12</title>
<path fill="none" stroke="midnightblue" d="M522.93,-174.25C507.75,-165.57 485.34,-152.76 467.94,-142.82"/>
<polygon fill="midnightblue" stroke="midnightblue" points="469.29,-139.57 458.87,-137.64 465.82,-145.64 469.29,-139.57"/>
</g>
<!-- Node12&#45;&gt;Node6 -->
<g id="edge15" class="edge">
<title>Node12&#45;&gt;Node6</title>
<path fill="none" stroke="midnightblue" d="M424.76,-116.25C409.42,-107.57 386.78,-94.76 369.21,-84.82"/>
<polygon fill="midnightblue" stroke="midnightblue" points="370.47,-81.52 360.05,-79.64 367.03,-87.61 370.47,-81.52"/>
</g>
<!-- Node13&#45;&gt;Node6 -->
<g id="edge18" class="edge">
<title>Node13&#45;&gt;Node6</title>
<path fill="none" stroke="midnightblue" d="M104.03,-174.42C110.81,-159.5 125.96,-130.88 148,-116 191.81,-86.42 252.32,-75.75 294.27,-71.96"/>
<polygon fill="midnightblue" stroke="midnightblue" points="294.56,-75.45 304.25,-71.16 294,-68.47 294.56,-75.45"/>
</g>
<!-- Node14&#45;&gt;Node3 -->
<g id="edge22" class="edge">
<title>Node14&#45;&gt;Node3</title>
<path fill="none" stroke="midnightblue" d="M675.42,-348.22C687.21,-340.16 702.17,-327.55 709,-312 712.93,-303.05 710.59,-299.65 709,-290 700.13,-236.26 675.74,-176.39 662.62,-146.74"/>
<polygon fill="midnightblue" stroke="midnightblue" points="665.79,-145.26 658.5,-137.57 659.41,-148.13 665.79,-145.26"/>
</g>
<!-- Node14&#45;&gt;Node5 -->
<g id="edge21" class="edge">
<title>Node14&#45;&gt;Node5</title>
<path fill="none" stroke="midnightblue" d="M685.26,-350.56C727.04,-336.93 804,-303.72 804,-244 804,-244 804,-244 804,-184 804,-143.54 770.44,-106.51 747.92,-86.22"/>
<polygon fill="midnightblue" stroke="midnightblue" points="750.06,-83.44 740.21,-79.53 745.47,-88.73 750.06,-83.44"/>
</g>
<!-- Node14&#45;&gt;Node9 -->
<g id="edge23" class="edge">
<title>Node14&#45;&gt;Node9</title>
<path fill="none" stroke="midnightblue" d="M632.84,-354.28C569.85,-345.33 408.57,-322.41 321.98,-310.1"/>
<polygon fill="midnightblue" stroke="midnightblue" points="322.45,-306.63 312.06,-308.69 321.47,-313.56 322.45,-306.63"/>
</g>
<!-- Node14&#45;&gt;Node11 -->
<g id="edge24" class="edge">
<title>Node14&#45;&gt;Node11</title>
<path fill="none" stroke="midnightblue" d="M647.27,-348.29C627.3,-331.19 586.58,-293.72 563,-254 554.06,-238.95 548.01,-219.94 544.37,-205.86"/>
<polygon fill="midnightblue" stroke="midnightblue" points="547.68,-204.69 541.95,-195.78 540.88,-206.32 547.68,-204.69"/>
</g>
<!-- Node15 -->
<g id="node15" class="node">
<title>Node15</title>
<g id="a_node15"><a xlink:href="macros_8h.html" target="_top" xlink:title=" ">
<polygon fill="white" stroke="black" points="634.5,-290.5 634.5,-311.5 699.5,-311.5 699.5,-290.5 634.5,-290.5"/>
<text text-anchor="middle" x="667" y="-297.9" font-family="DejaVuSans" font-size="12.00">macros.h</text>
</a>
</g>
</g>
<!-- Node14&#45;&gt;Node15 -->
<g id="edge25" class="edge">
<title>Node14&#45;&gt;Node15</title>
<path fill="none" stroke="midnightblue" d="M660.39,-348.25C661.44,-340.94 662.9,-330.69 664.19,-321.7"/>
<polygon fill="midnightblue" stroke="midnightblue" points="667.67,-322.04 665.62,-311.64 660.74,-321.05 667.67,-322.04"/>
</g>
<!-- Node16&#45;&gt;Node6 -->
<g id="edge27" class="edge">
<title>Node16&#45;&gt;Node6</title>
<path fill="none" stroke="midnightblue" d="M390.17,-232.26C382.19,-204.82 359.43,-126.51 348.71,-89.64"/>
<polygon fill="midnightblue" stroke="midnightblue" points="351.95,-88.26 345.8,-79.63 345.23,-90.21 351.95,-88.26"/>
</g>
<!-- Node16&#45;&gt;Node11 -->
<g id="edge28" class="edge">
<title>Node16&#45;&gt;Node11</title>
<path fill="none" stroke="midnightblue" d="M418.27,-232.37C443.89,-222.61 483.51,-207.52 510.54,-197.22"/>
<polygon fill="midnightblue" stroke="midnightblue" points="512.13,-200.36 520.23,-193.53 509.64,-193.82 512.13,-200.36"/>
</g>
<!-- Node17&#45;&gt;Node2 -->
<g id="edge31" class="edge">
<title>Node17&#45;&gt;Node2</title>
<path fill="none" stroke="midnightblue" d="M348.23,-464.28C346.76,-445.6 343.5,-404.37 341.56,-379.72"/>
<polygon fill="midnightblue" stroke="midnightblue" points="345.04,-379.39 340.77,-369.69 338.06,-379.94 345.04,-379.39"/>
</g>
<!-- Node19 -->
<g id="node19" class="node">
<title>Node19</title>
<g id="a_node19"><a xlink:href="lexer_8h.html" target="_top" xlink:title=" ">
<polygon fill="white" stroke="black" points="528,-406.5 528,-427.5 580,-427.5 580,-406.5 528,-406.5"/>
<text text-anchor="middle" x="554" y="-413.9" font-family="DejaVuSans" font-size="12.00">lexer.h</text>
</a>
</g>
</g>
<!-- Node18&#45;&gt;Node19 -->
<g id="edge33" class="edge">
<title>Node18&#45;&gt;Node19</title>
<path fill="none" stroke="midnightblue" d="M558.95,-464.25C558.17,-456.94 557.07,-446.69 556.11,-437.7"/>
<polygon fill="midnightblue" stroke="midnightblue" points="559.58,-437.21 555.03,-427.64 552.62,-437.96 559.58,-437.21"/>
</g>
<!-- Node19&#45;&gt;Node2 -->
<g id="edge35" class="edge">
<title>Node19&#45;&gt;Node2</title>
<path fill="none" stroke="midnightblue" d="M527.65,-408.39C524.73,-407.57 521.81,-406.76 519,-406 467.28,-391.97 406.86,-376.67 371.1,-367.72"/>
<polygon fill="midnightblue" stroke="midnightblue" points="371.82,-364.3 361.27,-365.27 370.12,-371.09 371.82,-364.3"/>
</g>
<!-- Node19&#45;&gt;Node5 -->
<g id="edge34" class="edge">
<title>Node19&#45;&gt;Node5</title>
<path fill="none" stroke="midnightblue" d="M559.5,-406.35C586.53,-358.97 704.11,-152.52 710,-138 716.37,-122.28 721.13,-103.61 724.14,-89.81"/>
<polygon fill="midnightblue" stroke="midnightblue" points="727.59,-90.44 726.19,-79.94 720.73,-89.02 727.59,-90.44"/>
</g>
<!-- Node20&#45;&gt;Node2 -->
<g id="edge39" class="edge">
<title>Node20&#45;&gt;Node2</title>
<path fill="none" stroke="midnightblue" d="M114.26,-410.67C153.74,-402.29 232.46,-385.4 299,-370 302.21,-369.26 305.56,-368.47 308.9,-367.67"/>
<polygon fill="midnightblue" stroke="midnightblue" points="309.85,-371.04 318.74,-365.29 308.2,-364.24 309.85,-371.04"/>
</g>
<!-- Node20&#45;&gt;Node6 -->
<g id="edge38" class="edge">
<title>Node20&#45;&gt;Node6</title>
<path fill="none" stroke="midnightblue" d="M81.25,-406.29C66.99,-387.39 38,-343.85 38,-302 38,-302 38,-302 38,-184 38,-135.62 79.24,-136.63 123,-116 178.29,-89.94 248.29,-78.55 294.3,-73.63"/>
<polygon fill="midnightblue" stroke="midnightblue" points="294.71,-77.11 304.31,-72.62 294.01,-70.14 294.71,-77.11"/>
</g>
<!-- Node20&#45;&gt;Node11 -->
<g id="edge43" class="edge">
<title>Node20&#45;&gt;Node11</title>
<path fill="none" stroke="midnightblue" d="M92.62,-406.18C104.9,-374.46 148.29,-274.32 221,-232 269.89,-203.55 440.53,-191.34 510.12,-187.47"/>
<polygon fill="midnightblue" stroke="midnightblue" points="510.58,-190.95 520.38,-186.92 510.21,-183.96 510.58,-190.95"/>
</g>
<!-- Node20&#45;&gt;Node12 -->
<g id="edge37" class="edge">
<title>Node20&#45;&gt;Node12</title>
<path fill="none" stroke="midnightblue" d="M90.61,-406.05C92.99,-392.57 98.03,-367.88 106,-348 129.39,-289.63 136.32,-269.22 187,-232 253.44,-183.22 346.03,-152.98 399.43,-138.42"/>
<polygon fill="midnightblue" stroke="midnightblue" points="400.48,-141.76 409.24,-135.81 398.68,-135 400.48,-141.76"/>
</g>
<!-- Node20&#45;&gt;Node21 -->
<g id="edge40" class="edge">
<title>Node20&#45;&gt;Node21</title>
<path fill="none" stroke="midnightblue" d="M114.22,-407.98C144.67,-398.29 196.05,-381.94 230.24,-371.06"/>
<polygon fill="midnightblue" stroke="midnightblue" points="231.36,-374.38 239.83,-368.01 229.24,-367.71 231.36,-374.38"/>
</g>
<!-- Node21&#45;&gt;Node6 -->
<g id="edge41" class="edge">
<title>Node21&#45;&gt;Node6</title>
<path fill="none" stroke="midnightblue" d="M246.12,-348.37C233.03,-340.54 216.64,-328.15 209,-312 200.18,-293.35 215.25,-244.72 221,-232 247.81,-172.73 299.47,-114.63 326.14,-86.88"/>
<polygon fill="midnightblue" stroke="midnightblue" points="328.79,-89.18 333.27,-79.58 323.78,-84.3 328.79,-89.18"/>
</g>
<!-- Node21&#45;&gt;Node9 -->
<g id="edge42" class="edge">
<title>Node21&#45;&gt;Node9</title>
<path fill="none" stroke="midnightblue" d="M265,-348.25C265,-340.94 265,-330.69 265,-321.7"/>
<polygon fill="midnightblue" stroke="midnightblue" points="268.5,-321.64 265,-311.64 261.5,-321.64 268.5,-321.64"/>
</g>
<!-- Node23&#45;&gt;Node12 -->
<g id="edge48" class="edge">
<title>Node23&#45;&gt;Node12</title>
<path fill="none" stroke="midnightblue" d="M542.33,-523.42C561.35,-516.63 583.6,-505.03 595,-486 600.03,-477.61 595.5,-473.76 595,-464 593.66,-438.12 599.73,-429.59 589,-406 562.83,-348.46 492,-365.21 492,-302 492,-302 492,-302 492,-242 492,-205.5 470.24,-167.55 455.43,-145.94"/>
<polygon fill="midnightblue" stroke="midnightblue" points="458.24,-143.86 449.59,-137.74 452.54,-147.91 458.24,-143.86"/>
</g>
<!-- Node23&#45;&gt;Node14 -->
<g id="edge49" class="edge">
<title>Node23&#45;&gt;Node14</title>
<path fill="none" stroke="midnightblue" d="M542.01,-522.97C573.01,-513.85 616.33,-499.26 628,-486 654.43,-455.96 659.11,-406.95 659.49,-379.75"/>
<polygon fill="midnightblue" stroke="midnightblue" points="662.99,-379.53 659.45,-369.55 655.99,-379.57 662.99,-379.53"/>
</g>
<!-- Node23&#45;&gt;Node18 -->
<g id="edge50" class="edge">
<title>Node23&#45;&gt;Node18</title>
<path fill="none" stroke="midnightblue" d="M517.88,-522.25C525.2,-514.22 535.74,-502.64 544.45,-493.08"/>
<polygon fill="midnightblue" stroke="midnightblue" points="547.07,-495.39 551.22,-485.64 541.9,-490.68 547.07,-495.39"/>
</g>
<!-- Node24&#45;&gt;Node19 -->
<g id="edge52" class="edge">
<title>Node24&#45;&gt;Node19</title>
<path fill="none" stroke="midnightblue" d="M298.29,-466.15C301.22,-465.38 304.17,-464.64 307,-464 397.1,-443.54 424.03,-448.77 517.8,-428.07"/>
<polygon fill="midnightblue" stroke="midnightblue" points="518.72,-431.46 527.71,-425.85 517.18,-424.63 518.72,-431.46"/>
</g>
<!-- Node24&#45;&gt;Node21 -->
<g id="edge53" class="edge">
<title>Node24&#45;&gt;Node21</title>
<path fill="none" stroke="midnightblue" d="M271.4,-464.28C270.26,-445.6 267.72,-404.37 266.21,-379.72"/>
<polygon fill="midnightblue" stroke="midnightblue" points="269.7,-379.46 265.6,-369.69 262.71,-379.89 269.7,-379.46"/>
</g>
<!-- Node25&#45;&gt;Node19 -->
<g id="edge55" class="edge">
<title>Node25&#45;&gt;Node19</title>
<path fill="none" stroke="midnightblue" d="M490.41,-464.25C502.01,-455.81 518.97,-443.47 532.47,-433.66"/>
<polygon fill="midnightblue" stroke="midnightblue" points="534.71,-436.36 540.74,-427.64 530.6,-430.69 534.71,-436.36"/>
</g>
<!-- Node25&#45;&gt;Node21 -->
<g id="edge56" class="edge">
<title>Node25&#45;&gt;Node21</title>
<path fill="none" stroke="midnightblue" d="M459.29,-464.48C422.11,-444.48 335.75,-398.04 291.77,-374.39"/>
<polygon fill="midnightblue" stroke="midnightblue" points="293.27,-371.23 282.81,-369.58 289.96,-377.4 293.27,-371.23"/>
</g>
<!-- Node26 -->
<g id="node26" class="node">
<title>Node26</title>
<g id="a_node26"><a xlink:href="hyphen_8h.html" target="_top" xlink:title=" ">
<polygon fill="white" stroke="black" points="444,-406.5 444,-427.5 510,-427.5 510,-406.5 444,-406.5"/>
<text text-anchor="middle" x="477" y="-413.9" font-family="DejaVuSans" font-size="12.00">hyphen.h</text>
</a>
</g>
</g>
<!-- Node25&#45;&gt;Node26 -->
<g id="edge57" class="edge">
<title>Node25&#45;&gt;Node26</title>
<path fill="none" stroke="midnightblue" d="M477,-464.25C477,-456.94 477,-446.69 477,-437.7"/>
<polygon fill="midnightblue" stroke="midnightblue" points="480.5,-437.64 477,-427.64 473.5,-437.64 480.5,-437.64"/>
</g>
<!-- Node26&#45;&gt;Node2 -->
<g id="edge60" class="edge">
<title>Node26&#45;&gt;Node2</title>
<path fill="none" stroke="midnightblue" d="M453.45,-406.37C430.49,-396.99 395.46,-382.67 370.4,-372.43"/>
<polygon fill="midnightblue" stroke="midnightblue" points="371.58,-369.13 361,-368.58 368.93,-375.61 371.58,-369.13"/>
</g>
<!-- Node26&#45;&gt;Node3 -->
<g id="edge58" class="edge">
<title>Node26&#45;&gt;Node3</title>
<path fill="none" stroke="midnightblue" d="M482.98,-406.19C495.9,-384.97 527.43,-333.25 554,-290 586,-237.9 623.97,-176.51 642.57,-146.46"/>
<polygon fill="midnightblue" stroke="midnightblue" points="645.61,-148.2 647.9,-137.85 639.66,-144.51 645.61,-148.2"/>
</g>
<!-- Node26&#45;&gt;Node12 -->
<g id="edge59" class="edge">
<title>Node26&#45;&gt;Node12</title>
<path fill="none" stroke="midnightblue" d="M473.7,-406.37C467.34,-386.91 454,-341.37 454,-302 454,-302 454,-302 454,-242 454,-208.8 448.9,-170.46 445.35,-147.78"/>
<polygon fill="midnightblue" stroke="midnightblue" points="448.78,-147.03 443.72,-137.72 441.87,-148.16 448.78,-147.03"/>
</g>
<!-- Node26&#45;&gt;Node14 -->
<g id="edge61" class="edge">
<title>Node26&#45;&gt;Node14</title>
<path fill="none" stroke="midnightblue" d="M508.29,-406.37C540.16,-396.57 589.52,-381.38 622.99,-371.08"/>
<polygon fill="midnightblue" stroke="midnightblue" points="624.31,-374.34 632.83,-368.05 622.25,-367.65 624.31,-374.34"/>
</g>
<!-- Node26&#45;&gt;Node21 -->
<g id="edge62" class="edge">
<title>Node26&#45;&gt;Node21</title>
<path fill="none" stroke="midnightblue" d="M443.88,-407.25C404.77,-396.92 340.03,-379.82 300.09,-369.27"/>
<polygon fill="midnightblue" stroke="midnightblue" points="300.82,-365.84 290.26,-366.67 299.03,-372.61 300.82,-365.84"/>
</g>
</g>
</svg>
