<?xml version="1.0" encoding="UTF-8" standalone="no"?>
<!DOCTYPE svg PUBLIC "-//W3C//DTD SVG 1.1//EN"
 "http://www.w3.org/Graphics/SVG/1.1/DTD/svg11.dtd">
<!-- Generated by graphviz version 2.44.0 ()
 -->
<!-- Title: printout.c Pages: 1 -->
<svg width="698pt" height="552pt"
 viewBox="0.00 0.00 697.50 552.00" xmlns="http://www.w3.org/2000/svg" xmlns:xlink="http://www.w3.org/1999/xlink">
<g id="graph0" class="graph" transform="scale(1 1) rotate(0) translate(4 548)">
<title>printout.c</title>
<polygon fill="white" stroke="transparent" points="-4,4 -4,-548 693.5,-548 693.5,4 -4,4"/>
<!-- Node1 -->
<g id="node1" class="node">
<title>Node1</title>
<g id="a_node1"><a xlink:title=" ">
<polygon fill="#bfbfbf" stroke="black" points="350,-522.5 350,-543.5 415,-543.5 415,-522.5 350,-522.5"/>
<text text-anchor="middle" x="382.5" y="-529.9" font-family="DejaVuSans" font-size="12.00">printout.c</text>
</a>
</g>
</g>
<!-- Node2 -->
<g id="node2" class="node">
<title>Node2</title>
<g id="a_node2"><a xlink:href="tex_8h.html" target="_top" xlink:title=" ">
<polygon fill="white" stroke="black" points="493.5,-116.5 493.5,-137.5 535.5,-137.5 535.5,-116.5 493.5,-116.5"/>
<text text-anchor="middle" x="514.5" y="-123.9" font-family="DejaVuSans" font-size="12.00">tex.h</text>
</a>
</g>
</g>
<!-- Node1&#45;&gt;Node2 -->
<g id="edge1" class="edge">
<title>Node1&#45;&gt;Node2</title>
<path fill="none" stroke="midnightblue" d="M415.22,-531.27C450.44,-528.7 505.79,-519.18 538.5,-486 560.53,-463.65 557.5,-449.38 557.5,-418 557.5,-418 557.5,-418 557.5,-242 557.5,-206.25 538.76,-168.02 526.02,-146.17"/>
<polygon fill="midnightblue" stroke="midnightblue" points="529.01,-144.35 520.84,-137.6 523.02,-147.97 529.01,-144.35"/>
</g>
<!-- Node7 -->
<g id="node7" class="node">
<title>Node7</title>
<g id="a_node7"><a xlink:href="str_8h.html" target="_top" xlink:title=" ">
<polygon fill="white" stroke="black" points="159,-232.5 159,-253.5 198,-253.5 198,-232.5 159,-232.5"/>
<text text-anchor="middle" x="178.5" y="-239.9" font-family="DejaVuSans" font-size="12.00">str.h</text>
</a>
</g>
</g>
<!-- Node1&#45;&gt;Node7 -->
<g id="edge6" class="edge">
<title>Node1&#45;&gt;Node7</title>
<path fill="none" stroke="midnightblue" d="M362.85,-522.38C322.29,-501.3 229.98,-446.73 192.5,-370 175.67,-335.55 175.26,-289.63 176.72,-263.81"/>
<polygon fill="midnightblue" stroke="midnightblue" points="180.22,-264 177.44,-253.77 173.23,-263.5 180.22,-264"/>
</g>
<!-- Node11 -->
<g id="node11" class="node">
<title>Node11</title>
<g id="a_node11"><a xlink:href="fonts_8h.html" target="_top" xlink:title=" ">
<polygon fill="white" stroke="black" points="35.5,-232.5 35.5,-253.5 87.5,-253.5 87.5,-232.5 35.5,-232.5"/>
<text text-anchor="middle" x="61.5" y="-239.9" font-family="DejaVuSans" font-size="12.00">fonts.h</text>
</a>
</g>
</g>
<!-- Node1&#45;&gt;Node11 -->
<g id="edge13" class="edge">
<title>Node1&#45;&gt;Node11</title>
<path fill="none" stroke="midnightblue" d="M350,-530.83C302.49,-528.03 212.27,-518.48 143.5,-486 100.69,-465.78 61.5,-465.35 61.5,-418 61.5,-418 61.5,-418 61.5,-358 61.5,-324.98 61.5,-286.59 61.5,-263.85"/>
<polygon fill="midnightblue" stroke="midnightblue" points="65,-263.76 61.5,-253.76 58,-263.76 65,-263.76"/>
</g>
<!-- Node12 -->
<g id="node12" class="node">
<title>Node12</title>
<g id="a_node12"><a xlink:href="texfunc_8h.html" target="_top" xlink:title=" ">
<polygon fill="white" stroke="black" points="90,-406.5 90,-427.5 155,-427.5 155,-406.5 90,-406.5"/>
<text text-anchor="middle" x="122.5" y="-413.9" font-family="DejaVuSans" font-size="12.00">texfunc.h</text>
</a>
</g>
</g>
<!-- Node1&#45;&gt;Node12 -->
<g id="edge16" class="edge">
<title>Node1&#45;&gt;Node12</title>
<path fill="none" stroke="midnightblue" d="M349.69,-532.18C305.22,-530.92 225.01,-523.11 169.5,-486 151.49,-473.96 138.38,-452.48 130.65,-436.88"/>
<polygon fill="midnightblue" stroke="midnightblue" points="133.74,-435.22 126.35,-427.63 127.4,-438.17 133.74,-435.22"/>
</g>
<!-- Node13 -->
<g id="node13" class="node">
<title>Node13</title>
<g id="a_node13"><a xlink:href="texmath_8h.html" target="_top" xlink:title=" ">
<polygon fill="white" stroke="black" points="201.5,-348.5 201.5,-369.5 269.5,-369.5 269.5,-348.5 201.5,-348.5"/>
<text text-anchor="middle" x="235.5" y="-355.9" font-family="DejaVuSans" font-size="12.00">texmath.h</text>
</a>
</g>
</g>
<!-- Node1&#45;&gt;Node13 -->
<g id="edge18" class="edge">
<title>Node1&#45;&gt;Node13</title>
<path fill="none" stroke="midnightblue" d="M372.44,-522.41C353.96,-504.57 313.72,-464.79 283.5,-428 270.23,-411.85 256.64,-392.25 247.32,-378.24"/>
<polygon fill="midnightblue" stroke="midnightblue" points="250.02,-375.99 241.61,-369.56 244.17,-379.83 250.02,-375.99"/>
</g>
<!-- Node14 -->
<g id="node14" class="node">
<title>Node14</title>
<g id="a_node14"><a xlink:href="texmac_8h.html" target="_top" xlink:title=" ">
<polygon fill="white" stroke="black" points="326,-406.5 326,-427.5 391,-427.5 391,-406.5 326,-406.5"/>
<text text-anchor="middle" x="358.5" y="-413.9" font-family="DejaVuSans" font-size="12.00">texmac.h</text>
</a>
</g>
</g>
<!-- Node1&#45;&gt;Node14 -->
<g id="edge20" class="edge">
<title>Node1&#45;&gt;Node14</title>
<path fill="none" stroke="midnightblue" d="M372.56,-522.49C364.32,-513.87 353.22,-500.34 348.5,-486 343.26,-470.11 346.77,-451.22 351,-437.39"/>
<polygon fill="midnightblue" stroke="midnightblue" points="354.31,-438.52 354.26,-427.93 347.69,-436.25 354.31,-438.52"/>
</g>
<!-- Node18 -->
<g id="node18" class="node">
<title>Node18</title>
<g id="a_node18"><a xlink:href="scan_8h.html" target="_top" xlink:title=" ">
<polygon fill="white" stroke="black" points="337.5,-232.5 337.5,-253.5 389.5,-253.5 389.5,-232.5 337.5,-232.5"/>
<text text-anchor="middle" x="363.5" y="-239.9" font-family="DejaVuSans" font-size="12.00">scan.h</text>
</a>
</g>
</g>
<!-- Node1&#45;&gt;Node18 -->
<g id="edge31" class="edge">
<title>Node1&#45;&gt;Node18</title>
<path fill="none" stroke="midnightblue" d="M391.15,-522.44C398.78,-513.56 409.7,-499.7 416.5,-486 432.66,-453.44 440.86,-441.6 433.5,-406 422.13,-351.01 391.16,-291.72 374.48,-262.48"/>
<polygon fill="midnightblue" stroke="midnightblue" points="377.47,-260.65 369.42,-253.76 371.42,-264.17 377.47,-260.65"/>
</g>
<!-- Node20 -->
<g id="node20" class="node">
<title>Node20</title>
<g id="a_node20"><a xlink:href="expand_8h.html" target="_top" xlink:title=" ">
<polygon fill="white" stroke="black" points="463.5,-464.5 463.5,-485.5 529.5,-485.5 529.5,-464.5 463.5,-464.5"/>
<text text-anchor="middle" x="496.5" y="-471.9" font-family="DejaVuSans" font-size="12.00">expand.h</text>
</a>
</g>
</g>
<!-- Node1&#45;&gt;Node20 -->
<g id="edge30" class="edge">
<title>Node1&#45;&gt;Node20</title>
<path fill="none" stroke="midnightblue" d="M402.1,-522.37C420.23,-513.46 447.41,-500.11 467.96,-490.02"/>
<polygon fill="midnightblue" stroke="midnightblue" points="469.73,-493.05 477.16,-485.5 466.64,-486.77 469.73,-493.05"/>
</g>
<!-- Node21 -->
<g id="node21" class="node">
<title>Node21</title>
<g id="a_node21"><a xlink:href="print_8h.html" target="_top" xlink:title=" ">
<polygon fill="white" stroke="black" points="357.5,-464.5 357.5,-485.5 407.5,-485.5 407.5,-464.5 357.5,-464.5"/>
<text text-anchor="middle" x="382.5" y="-471.9" font-family="DejaVuSans" font-size="12.00">print.h</text>
</a>
</g>
</g>
<!-- Node1&#45;&gt;Node21 -->
<g id="edge32" class="edge">
<title>Node1&#45;&gt;Node21</title>
<path fill="none" stroke="midnightblue" d="M382.5,-522.25C382.5,-514.94 382.5,-504.69 382.5,-495.7"/>
<polygon fill="midnightblue" stroke="midnightblue" points="386,-495.64 382.5,-485.64 379,-495.64 386,-495.64"/>
</g>
<!-- Node22 -->
<g id="node22" class="node">
<title>Node22</title>
<g id="a_node22"><a xlink:href="eqtb_8h.html" target="_top" xlink:title=" ">
<polygon fill="white" stroke="black" points="553.5,-116.5 553.5,-137.5 603.5,-137.5 603.5,-116.5 553.5,-116.5"/>
<text text-anchor="middle" x="578.5" y="-123.9" font-family="DejaVuSans" font-size="12.00">eqtb.h</text>
</a>
</g>
</g>
<!-- Node1&#45;&gt;Node22 -->
<g id="edge37" class="edge">
<title>Node1&#45;&gt;Node22</title>
<path fill="none" stroke="midnightblue" d="M415.26,-531.36C453.9,-528.99 518.24,-519.77 560.5,-486 587.05,-464.78 595.5,-451.99 595.5,-418 595.5,-418 595.5,-418 595.5,-242 595.5,-208.62 588.28,-170.34 583.25,-147.71"/>
<polygon fill="midnightblue" stroke="midnightblue" points="586.6,-146.64 580.94,-137.69 579.78,-148.22 586.6,-146.64"/>
</g>
<!-- Node23 -->
<g id="node23" class="node">
<title>Node23</title>
<g id="a_node23"><a xlink:href="printout_8h.html" target="_top" xlink:title=" ">
<polygon fill="white" stroke="black" points="623.5,-464.5 623.5,-485.5 689.5,-485.5 689.5,-464.5 623.5,-464.5"/>
<text text-anchor="middle" x="656.5" y="-471.9" font-family="DejaVuSans" font-size="12.00">printout.h</text>
</a>
</g>
</g>
<!-- Node1&#45;&gt;Node23 -->
<g id="edge40" class="edge">
<title>Node1&#45;&gt;Node23</title>
<path fill="none" stroke="midnightblue" d="M415.22,-525.47C459.36,-516.64 540.4,-500.35 609.5,-486 610.76,-485.74 612.05,-485.47 613.34,-485.2"/>
<polygon fill="midnightblue" stroke="midnightblue" points="614.32,-488.57 623.38,-483.09 612.88,-481.72 614.32,-488.57"/>
</g>
<!-- Node3 -->
<g id="node3" class="node">
<title>Node3</title>
<g id="a_node3"><a xlink:href="tex__types_8h.html" target="_top" xlink:title=" ">
<polygon fill="white" stroke="black" points="379,-58.5 379,-79.5 456,-79.5 456,-58.5 379,-58.5"/>
<text text-anchor="middle" x="417.5" y="-65.9" font-family="DejaVuSans" font-size="12.00">tex_types.h</text>
</a>
</g>
</g>
<!-- Node2&#45;&gt;Node3 -->
<g id="edge2" class="edge">
<title>Node2&#45;&gt;Node3</title>
<path fill="none" stroke="midnightblue" d="M497.6,-116.25C482.58,-107.57 460.4,-94.76 443.18,-84.82"/>
<polygon fill="midnightblue" stroke="midnightblue" points="444.61,-81.61 434.2,-79.64 441.11,-87.67 444.61,-81.61"/>
</g>
<!-- Node6 -->
<g id="node6" class="node">
<title>Node6</title>
<g id="a_node6"><a xlink:href="tex__constant_8h.html" target="_top" xlink:title=" ">
<polygon fill="white" stroke="black" points="476.5,-58.5 476.5,-79.5 570.5,-79.5 570.5,-58.5 476.5,-58.5"/>
<text text-anchor="middle" x="523.5" y="-65.9" font-family="DejaVuSans" font-size="12.00">tex_constant.h</text>
</a>
</g>
</g>
<!-- Node2&#45;&gt;Node6 -->
<g id="edge5" class="edge">
<title>Node2&#45;&gt;Node6</title>
<path fill="none" stroke="midnightblue" d="M516.07,-116.25C517.24,-108.94 518.89,-98.69 520.33,-89.7"/>
<polygon fill="midnightblue" stroke="midnightblue" points="523.82,-90.07 521.95,-79.64 516.91,-88.96 523.82,-90.07"/>
</g>
<!-- Node4 -->
<g id="node4" class="node">
<title>Node4</title>
<g id="a_node4"><a xlink:title=" ">
<polygon fill="white" stroke="#bfbfbf" points="385,-0.5 385,-21.5 450,-21.5 450,-0.5 385,-0.5"/>
<text text-anchor="middle" x="417.5" y="-7.9" font-family="DejaVuSans" font-size="12.00">stdbool.h</text>
</a>
</g>
</g>
<!-- Node3&#45;&gt;Node4 -->
<g id="edge3" class="edge">
<title>Node3&#45;&gt;Node4</title>
<path fill="none" stroke="midnightblue" d="M417.5,-58.25C417.5,-50.94 417.5,-40.69 417.5,-31.7"/>
<polygon fill="midnightblue" stroke="midnightblue" points="421,-31.64 417.5,-21.64 414,-31.64 421,-31.64"/>
</g>
<!-- Node5 -->
<g id="node5" class="node">
<title>Node5</title>
<g id="a_node5"><a xlink:title=" ">
<polygon fill="white" stroke="#bfbfbf" points="251,-0.5 251,-21.5 306,-21.5 306,-0.5 251,-0.5"/>
<text text-anchor="middle" x="278.5" y="-7.9" font-family="DejaVuSans" font-size="12.00">stdint.h</text>
</a>
</g>
</g>
<!-- Node3&#45;&gt;Node5 -->
<g id="edge4" class="edge">
<title>Node3&#45;&gt;Node5</title>
<path fill="none" stroke="midnightblue" d="M393.61,-58.37C370.99,-49.26 336.85,-35.51 311.61,-25.34"/>
<polygon fill="midnightblue" stroke="midnightblue" points="312.67,-21.99 302.08,-21.5 310.05,-28.48 312.67,-21.99"/>
</g>
<!-- Node7&#45;&gt;Node3 -->
<g id="edge12" class="edge">
<title>Node7&#45;&gt;Node3</title>
<path fill="none" stroke="midnightblue" d="M185.82,-232.29C192.67,-223.09 203.08,-208.81 211.5,-196 234.27,-161.35 226.66,-141.32 259.5,-116 291.08,-91.65 335.18,-80.18 368.77,-74.78"/>
<polygon fill="midnightblue" stroke="midnightblue" points="369.45,-78.22 378.83,-73.29 368.43,-71.29 369.45,-78.22"/>
</g>
<!-- Node7&#45;&gt;Node5 -->
<g id="edge8" class="edge">
<title>Node7&#45;&gt;Node5</title>
<path fill="none" stroke="midnightblue" d="M182.67,-232.41C197.79,-197.63 249.92,-77.73 270.27,-30.93"/>
<polygon fill="midnightblue" stroke="midnightblue" points="273.54,-32.2 274.31,-21.63 267.12,-29.41 273.54,-32.2"/>
</g>
<!-- Node8 -->
<g id="node8" class="node">
<title>Node8</title>
<g id="a_node8"><a xlink:title=" ">
<polygon fill="white" stroke="#bfbfbf" points="106.5,-116.5 106.5,-137.5 158.5,-137.5 158.5,-116.5 106.5,-116.5"/>
<text text-anchor="middle" x="132.5" y="-123.9" font-family="DejaVuSans" font-size="12.00">stdio.h</text>
</a>
</g>
</g>
<!-- Node7&#45;&gt;Node8 -->
<g id="edge7" class="edge">
<title>Node7&#45;&gt;Node8</title>
<path fill="none" stroke="midnightblue" d="M174.58,-232.28C166.97,-213.43 150.1,-171.62 140.19,-147.05"/>
<polygon fill="midnightblue" stroke="midnightblue" points="143.4,-145.66 136.41,-137.69 136.91,-148.28 143.4,-145.66"/>
</g>
<!-- Node9 -->
<g id="node9" class="node">
<title>Node9</title>
<g id="a_node9"><a xlink:href="global__const_8h.html" target="_top" xlink:title=" ">
<polygon fill="white" stroke="black" points="0,-174.5 0,-195.5 93,-195.5 93,-174.5 0,-174.5"/>
<text text-anchor="middle" x="46.5" y="-181.9" font-family="DejaVuSans" font-size="12.00">global_const.h</text>
</a>
</g>
</g>
<!-- Node7&#45;&gt;Node9 -->
<g id="edge9" class="edge">
<title>Node7&#45;&gt;Node9</title>
<path fill="none" stroke="midnightblue" d="M158.74,-233.62C137.53,-224.62 103.53,-210.19 78.5,-199.57"/>
<polygon fill="midnightblue" stroke="midnightblue" points="79.63,-196.25 69.05,-195.57 76.89,-202.7 79.63,-196.25"/>
</g>
<!-- Node9&#45;&gt;Node8 -->
<g id="edge11" class="edge">
<title>Node9&#45;&gt;Node8</title>
<path fill="none" stroke="midnightblue" d="M61.48,-174.25C74.68,-165.65 94.11,-153 109.31,-143.1"/>
<polygon fill="midnightblue" stroke="midnightblue" points="111.22,-146.03 117.69,-137.64 107.4,-140.17 111.22,-146.03"/>
</g>
<!-- Node10 -->
<g id="node10" class="node">
<title>Node10</title>
<g id="a_node10"><a xlink:title=" ">
<polygon fill="white" stroke="#bfbfbf" points="17,-116.5 17,-137.5 76,-137.5 76,-116.5 17,-116.5"/>
<text text-anchor="middle" x="46.5" y="-123.9" font-family="DejaVuSans" font-size="12.00">assert.h</text>
</a>
</g>
</g>
<!-- Node9&#45;&gt;Node10 -->
<g id="edge10" class="edge">
<title>Node9&#45;&gt;Node10</title>
<path fill="none" stroke="midnightblue" d="M46.5,-174.25C46.5,-166.94 46.5,-156.69 46.5,-147.7"/>
<polygon fill="midnightblue" stroke="midnightblue" points="50,-147.64 46.5,-137.64 43,-147.64 50,-147.64"/>
</g>
<!-- Node11&#45;&gt;Node8 -->
<g id="edge14" class="edge">
<title>Node11&#45;&gt;Node8</title>
<path fill="none" stroke="midnightblue" d="M71.29,-232.44C80,-223.57 92.68,-209.71 101.5,-196 111.46,-180.52 119.9,-161.32 125.45,-147.27"/>
<polygon fill="midnightblue" stroke="midnightblue" points="128.81,-148.27 129.1,-137.68 122.27,-145.78 128.81,-148.27"/>
</g>
<!-- Node11&#45;&gt;Node9 -->
<g id="edge15" class="edge">
<title>Node11&#45;&gt;Node9</title>
<path fill="none" stroke="midnightblue" d="M58.89,-232.25C56.91,-224.86 54.13,-214.47 51.7,-205.41"/>
<polygon fill="midnightblue" stroke="midnightblue" points="55.05,-204.4 49.08,-195.64 48.29,-206.21 55.05,-204.4"/>
</g>
<!-- Node12&#45;&gt;Node7 -->
<g id="edge17" class="edge">
<title>Node12&#45;&gt;Node7</title>
<path fill="none" stroke="midnightblue" d="M124.94,-406.41C130.43,-385.19 144.43,-332.79 159.5,-290 162.65,-281.06 166.59,-271.34 170.06,-263.14"/>
<polygon fill="midnightblue" stroke="midnightblue" points="173.36,-264.32 174.12,-253.75 166.94,-261.55 173.36,-264.32"/>
</g>
<!-- Node13&#45;&gt;Node3 -->
<g id="edge19" class="edge">
<title>Node13&#45;&gt;Node3</title>
<path fill="none" stroke="midnightblue" d="M234.32,-348.22C232.11,-326.19 229.18,-271.51 248.5,-232 281.47,-164.56 354.83,-110.11 393.14,-85.01"/>
<polygon fill="midnightblue" stroke="midnightblue" points="395.12,-87.9 401.64,-79.55 391.34,-82.01 395.12,-87.9"/>
</g>
<!-- Node15 -->
<g id="node15" class="node">
<title>Node15</title>
<g id="a_node15"><a xlink:href="mem_8h.html" target="_top" xlink:title=" ">
<polygon fill="white" stroke="black" points="332,-348.5 332,-369.5 385,-369.5 385,-348.5 332,-348.5"/>
<text text-anchor="middle" x="358.5" y="-355.9" font-family="DejaVuSans" font-size="12.00">mem.h</text>
</a>
</g>
</g>
<!-- Node14&#45;&gt;Node15 -->
<g id="edge21" class="edge">
<title>Node14&#45;&gt;Node15</title>
<path fill="none" stroke="midnightblue" d="M358.5,-406.25C358.5,-398.94 358.5,-388.69 358.5,-379.7"/>
<polygon fill="midnightblue" stroke="midnightblue" points="362,-379.64 358.5,-369.64 355,-379.64 362,-379.64"/>
</g>
<!-- Node15&#45;&gt;Node3 -->
<g id="edge22" class="edge">
<title>Node15&#45;&gt;Node3</title>
<path fill="none" stroke="midnightblue" d="M363.26,-348.24C371.86,-330.14 389.9,-289.93 398.5,-254 412.54,-195.36 416.21,-123.75 417.16,-89.75"/>
<polygon fill="midnightblue" stroke="midnightblue" points="420.66,-89.81 417.39,-79.73 413.66,-89.64 420.66,-89.81"/>
</g>
<!-- Node16 -->
<g id="node16" class="node">
<title>Node16</title>
<g id="a_node16"><a xlink:href="global_8h.html" target="_top" xlink:title=" ">
<polygon fill="white" stroke="black" points="295.5,-290.5 295.5,-311.5 353.5,-311.5 353.5,-290.5 295.5,-290.5"/>
<text text-anchor="middle" x="324.5" y="-297.9" font-family="DejaVuSans" font-size="12.00">global.h</text>
</a>
</g>
</g>
<!-- Node15&#45;&gt;Node16 -->
<g id="edge23" class="edge">
<title>Node15&#45;&gt;Node16</title>
<path fill="none" stroke="midnightblue" d="M352.58,-348.25C347.9,-340.54 341.23,-329.56 335.57,-320.23"/>
<polygon fill="midnightblue" stroke="midnightblue" points="338.54,-318.37 330.35,-311.64 332.55,-322.01 338.54,-318.37"/>
</g>
<!-- Node16&#45;&gt;Node7 -->
<g id="edge25" class="edge">
<title>Node16&#45;&gt;Node7</title>
<path fill="none" stroke="midnightblue" d="M299.4,-290.37C273.95,-280.61 234.6,-265.52 207.76,-255.22"/>
<polygon fill="midnightblue" stroke="midnightblue" points="208.72,-251.84 198.13,-251.53 206.22,-258.38 208.72,-251.84"/>
</g>
<!-- Node17 -->
<g id="node17" class="node">
<title>Node17</title>
<g id="a_node17"><a xlink:title=" ">
<polygon fill="white" stroke="#bfbfbf" points="257.5,-232.5 257.5,-253.5 319.5,-253.5 319.5,-232.5 257.5,-232.5"/>
<text text-anchor="middle" x="288.5" y="-239.9" font-family="DejaVuSans" font-size="12.00">setjmp.h</text>
</a>
</g>
</g>
<!-- Node16&#45;&gt;Node17 -->
<g id="edge24" class="edge">
<title>Node16&#45;&gt;Node17</title>
<path fill="none" stroke="midnightblue" d="M318.23,-290.25C313.27,-282.54 306.22,-271.56 300.22,-262.23"/>
<polygon fill="midnightblue" stroke="midnightblue" points="303.05,-260.16 294.7,-253.64 297.16,-263.95 303.05,-260.16"/>
</g>
<!-- Node16&#45;&gt;Node18 -->
<g id="edge26" class="edge">
<title>Node16&#45;&gt;Node18</title>
<path fill="none" stroke="midnightblue" d="M331.29,-290.25C336.72,-282.46 344.47,-271.33 351,-261.94"/>
<polygon fill="midnightblue" stroke="midnightblue" points="353.94,-263.85 356.78,-253.64 348.2,-259.85 353.94,-263.85"/>
</g>
<!-- Node19 -->
<g id="node19" class="node">
<title>Node19</title>
<g id="a_node19"><a xlink:href="lexer_8h.html" target="_top" xlink:title=" ">
<polygon fill="white" stroke="black" points="337.5,-174.5 337.5,-195.5 389.5,-195.5 389.5,-174.5 337.5,-174.5"/>
<text text-anchor="middle" x="363.5" y="-181.9" font-family="DejaVuSans" font-size="12.00">lexer.h</text>
</a>
</g>
</g>
<!-- Node18&#45;&gt;Node19 -->
<g id="edge27" class="edge">
<title>Node18&#45;&gt;Node19</title>
<path fill="none" stroke="midnightblue" d="M363.5,-232.25C363.5,-224.94 363.5,-214.69 363.5,-205.7"/>
<polygon fill="midnightblue" stroke="midnightblue" points="367,-205.64 363.5,-195.64 360,-205.64 367,-205.64"/>
</g>
<!-- Node19&#45;&gt;Node2 -->
<g id="edge29" class="edge">
<title>Node19&#45;&gt;Node2</title>
<path fill="none" stroke="midnightblue" d="M389.46,-174.37C415.59,-164.68 455.91,-149.73 483.66,-139.44"/>
<polygon fill="midnightblue" stroke="midnightblue" points="485.1,-142.63 493.26,-135.88 482.67,-136.07 485.1,-142.63"/>
</g>
<!-- Node19&#45;&gt;Node8 -->
<g id="edge28" class="edge">
<title>Node19&#45;&gt;Node8</title>
<path fill="none" stroke="midnightblue" d="M337.45,-177.68C296.12,-167.66 215.41,-148.1 168.55,-136.74"/>
<polygon fill="midnightblue" stroke="midnightblue" points="169.35,-133.33 158.81,-134.38 167.7,-140.14 169.35,-133.33"/>
</g>
<!-- Node21&#45;&gt;Node2 -->
<g id="edge34" class="edge">
<title>Node21&#45;&gt;Node2</title>
<path fill="none" stroke="midnightblue" d="M397.14,-464.38C408.67,-456.07 424.27,-443.04 433.5,-428 491.34,-333.72 508.49,-198.03 513.02,-147.73"/>
<polygon fill="midnightblue" stroke="midnightblue" points="516.53,-147.85 513.87,-137.59 509.55,-147.27 516.53,-147.85"/>
</g>
<!-- Node21&#45;&gt;Node3 -->
<g id="edge33" class="edge">
<title>Node21&#45;&gt;Node3</title>
<path fill="none" stroke="midnightblue" d="M386.87,-464.35C390.81,-455.18 396.46,-440.93 399.5,-428 429.13,-301.86 423.93,-267.46 429.5,-138 429.92,-128.23 430.74,-125.7 429.5,-116 428.36,-107.12 426.03,-97.51 423.73,-89.38"/>
<polygon fill="midnightblue" stroke="midnightblue" points="427.06,-88.29 420.81,-79.73 420.35,-90.31 427.06,-88.29"/>
</g>
<!-- Node21&#45;&gt;Node7 -->
<g id="edge36" class="edge">
<title>Node21&#45;&gt;Node7</title>
<path fill="none" stroke="midnightblue" d="M363.72,-464.44C349.29,-456.33 329.68,-443.56 316.5,-428 291.06,-397.96 300.88,-380.38 278.5,-348 254.64,-313.46 219.16,-279.58 197.5,-260.29"/>
<polygon fill="midnightblue" stroke="midnightblue" points="199.76,-257.61 189.93,-253.64 195.14,-262.87 199.76,-257.61"/>
</g>
<!-- Node21&#45;&gt;Node14 -->
<g id="edge35" class="edge">
<title>Node21&#45;&gt;Node14</title>
<path fill="none" stroke="midnightblue" d="M378.32,-464.25C375.12,-456.78 370.6,-446.24 366.69,-437.11"/>
<polygon fill="midnightblue" stroke="midnightblue" points="369.79,-435.46 362.63,-427.64 363.35,-438.21 369.79,-435.46"/>
</g>
<!-- Node22&#45;&gt;Node3 -->
<g id="edge38" class="edge">
<title>Node22&#45;&gt;Node3</title>
<path fill="none" stroke="midnightblue" d="M553.34,-117.25C526.88,-108.05 484.96,-93.47 454.69,-82.93"/>
<polygon fill="midnightblue" stroke="midnightblue" points="455.5,-79.51 444.9,-79.53 453.2,-86.12 455.5,-79.51"/>
</g>
<!-- Node22&#45;&gt;Node6 -->
<g id="edge39" class="edge">
<title>Node22&#45;&gt;Node6</title>
<path fill="none" stroke="midnightblue" d="M568.92,-116.25C560.95,-108.14 549.44,-96.41 539.99,-86.79"/>
<polygon fill="midnightblue" stroke="midnightblue" points="542.47,-84.32 532.97,-79.64 537.48,-89.23 542.47,-84.32"/>
</g>
</g>
</svg>
