<?xml version="1.0" encoding="UTF-8" standalone="no"?>
<!DOCTYPE svg PUBLIC "-//W3C//DTD SVG 1.1//EN"
 "http://www.w3.org/Graphics/SVG/1.1/DTD/svg11.dtd">
<!-- Generated by graphviz version 2.44.0 ()
 -->
<!-- Title: print.h Pages: 1 -->
<svg width="744pt" height="146pt"
 viewBox="0.00 0.00 743.50 146.00" xmlns="http://www.w3.org/2000/svg" xmlns:xlink="http://www.w3.org/1999/xlink">
<g id="graph0" class="graph" transform="scale(1 1) rotate(0) translate(4 142)">
<title>print.h</title>
<polygon fill="white" stroke="transparent" points="-4,4 -4,-142 739.5,-142 739.5,4 -4,4"/>
<!-- Node1 -->
<g id="node1" class="node">
<title>Node1</title>
<g id="a_node1"><a xlink:title=" ">
<polygon fill="#bfbfbf" stroke="black" points="324.5,-116.5 324.5,-137.5 374.5,-137.5 374.5,-116.5 324.5,-116.5"/>
<text text-anchor="middle" x="349.5" y="-123.9" font-family="DejaVuSans" font-size="12.00">print.h</text>
</a>
</g>
</g>
<!-- Node2 -->
<g id="node2" class="node">
<title>Node2</title>
<g id="a_node2"><a xlink:href="eqtb_8c.html" target="_top" xlink:title=" ">
<polygon fill="white" stroke="black" points="0,-58.5 0,-79.5 49,-79.5 49,-58.5 0,-58.5"/>
<text text-anchor="middle" x="24.5" y="-65.9" font-family="DejaVuSans" font-size="12.00">eqtb.c</text>
</a>
</g>
</g>
<!-- Node1&#45;&gt;Node2 -->
<g id="edge1" class="edge">
<title>Node1&#45;&gt;Node2</title>
<path fill="none" stroke="midnightblue" d="M314.11,-121.91C259.06,-115.2 149.72,-100.53 58.5,-80 55.5,-79.32 52.37,-78.53 49.29,-77.69"/>
<polygon fill="midnightblue" stroke="midnightblue" points="314.03,-125.42 324.38,-123.14 314.87,-118.47 314.03,-125.42"/>
</g>
<!-- Node3 -->
<g id="node3" class="node">
<title>Node3</title>
<g id="a_node3"><a xlink:href="error_8c.html" target="_top" xlink:title=" ">
<polygon fill="white" stroke="black" points="67.5,-58.5 67.5,-79.5 117.5,-79.5 117.5,-58.5 67.5,-58.5"/>
<text text-anchor="middle" x="92.5" y="-65.9" font-family="DejaVuSans" font-size="12.00">error.c</text>
</a>
</g>
</g>
<!-- Node1&#45;&gt;Node3 -->
<g id="edge2" class="edge">
<title>Node1&#45;&gt;Node3</title>
<path fill="none" stroke="midnightblue" d="M314.51,-119.58C270.61,-111.33 193.14,-96.15 127.5,-80 124.31,-79.21 120.97,-78.34 117.68,-77.43"/>
<polygon fill="midnightblue" stroke="midnightblue" points="313.92,-123.03 324.39,-121.43 315.21,-116.15 313.92,-123.03"/>
</g>
<!-- Node4 -->
<g id="node4" class="node">
<title>Node4</title>
<g id="a_node4"><a xlink:href="expand_8c.html" target="_top" xlink:title=" ">
<polygon fill="white" stroke="black" points="136,-58.5 136,-79.5 201,-79.5 201,-58.5 136,-58.5"/>
<text text-anchor="middle" x="168.5" y="-65.9" font-family="DejaVuSans" font-size="12.00">expand.c</text>
</a>
</g>
</g>
<!-- Node1&#45;&gt;Node4 -->
<g id="edge3" class="edge">
<title>Node1&#45;&gt;Node4</title>
<path fill="none" stroke="midnightblue" d="M314.55,-115.19C281.21,-104.87 231.48,-89.48 199.51,-79.59"/>
<polygon fill="midnightblue" stroke="midnightblue" points="313.74,-118.6 324.33,-118.21 315.81,-111.91 313.74,-118.6"/>
</g>
<!-- Node5 -->
<g id="node5" class="node">
<title>Node5</title>
<g id="a_node5"><a xlink:href="fonts_8c.html" target="_top" xlink:title=" ">
<polygon fill="white" stroke="black" points="219,-58.5 219,-79.5 270,-79.5 270,-58.5 219,-58.5"/>
<text text-anchor="middle" x="244.5" y="-65.9" font-family="DejaVuSans" font-size="12.00">fonts.c</text>
</a>
</g>
</g>
<!-- Node1&#45;&gt;Node5 -->
<g id="edge4" class="edge">
<title>Node1&#45;&gt;Node5</title>
<path fill="none" stroke="midnightblue" d="M322.24,-111.46C303.45,-101.44 279,-88.4 262.58,-79.64"/>
<polygon fill="midnightblue" stroke="midnightblue" points="320.74,-114.63 331.21,-116.25 324.03,-108.45 320.74,-114.63"/>
</g>
<!-- Node6 -->
<g id="node6" class="node">
<title>Node6</title>
<g id="a_node6"><a xlink:href="hash_8c.html" target="_top" xlink:title=" ">
<polygon fill="white" stroke="black" points="288.5,-58.5 288.5,-79.5 340.5,-79.5 340.5,-58.5 288.5,-58.5"/>
<text text-anchor="middle" x="314.5" y="-65.9" font-family="DejaVuSans" font-size="12.00">hash.c</text>
</a>
</g>
</g>
<!-- Node1&#45;&gt;Node6 -->
<g id="edge5" class="edge">
<title>Node1&#45;&gt;Node6</title>
<path fill="none" stroke="midnightblue" d="M338.02,-107.63C332.18,-98.29 325.32,-87.32 320.53,-79.64"/>
<polygon fill="midnightblue" stroke="midnightblue" points="335.14,-109.62 343.4,-116.25 341.07,-105.91 335.14,-109.62"/>
</g>
<!-- Node7 -->
<g id="node7" class="node">
<title>Node7</title>
<g id="a_node7"><a xlink:href="lexer_8c.html" target="_top" xlink:title=" ">
<polygon fill="white" stroke="black" points="359,-58.5 359,-79.5 410,-79.5 410,-58.5 359,-58.5"/>
<text text-anchor="middle" x="384.5" y="-65.9" font-family="DejaVuSans" font-size="12.00">lexer.c</text>
</a>
</g>
</g>
<!-- Node1&#45;&gt;Node7 -->
<g id="edge6" class="edge">
<title>Node1&#45;&gt;Node7</title>
<path fill="none" stroke="midnightblue" d="M360.98,-107.63C366.82,-98.29 373.68,-87.32 378.47,-79.64"/>
<polygon fill="midnightblue" stroke="midnightblue" points="357.93,-105.91 355.6,-116.25 363.86,-109.62 357.93,-105.91"/>
</g>
<!-- Node8 -->
<g id="node8" class="node">
<title>Node8</title>
<g id="a_node8"><a xlink:href="mem_8c.html" target="_top" xlink:title=" ">
<polygon fill="white" stroke="black" points="428.5,-58.5 428.5,-79.5 480.5,-79.5 480.5,-58.5 428.5,-58.5"/>
<text text-anchor="middle" x="454.5" y="-65.9" font-family="DejaVuSans" font-size="12.00">mem.c</text>
</a>
</g>
</g>
<!-- Node1&#45;&gt;Node8 -->
<g id="edge7" class="edge">
<title>Node1&#45;&gt;Node8</title>
<path fill="none" stroke="midnightblue" d="M376.76,-111.46C395.55,-101.44 420,-88.4 436.42,-79.64"/>
<polygon fill="midnightblue" stroke="midnightblue" points="374.97,-108.45 367.79,-116.25 378.26,-114.63 374.97,-108.45"/>
</g>
<!-- Node9 -->
<g id="node9" class="node">
<title>Node9</title>
<g id="a_node9"><a xlink:href="print_8c.html" target="_top" xlink:title=" ">
<polygon fill="white" stroke="black" points="499,-58.5 499,-79.5 548,-79.5 548,-58.5 499,-58.5"/>
<text text-anchor="middle" x="523.5" y="-65.9" font-family="DejaVuSans" font-size="12.00">print.c</text>
</a>
</g>
</g>
<!-- Node1&#45;&gt;Node9 -->
<g id="edge8" class="edge">
<title>Node1&#45;&gt;Node9</title>
<path fill="none" stroke="midnightblue" d="M384.74,-114.66C418.61,-103.76 468.91,-87.57 498.73,-77.97"/>
<polygon fill="midnightblue" stroke="midnightblue" points="383.25,-111.46 374.8,-117.86 385.39,-118.13 383.25,-111.46"/>
</g>
<!-- Node10 -->
<g id="node10" class="node">
<title>Node10</title>
<g id="a_node10"><a xlink:href="printout_8c.html" target="_top" xlink:title=" ">
<polygon fill="white" stroke="black" points="566,-58.5 566,-79.5 631,-79.5 631,-58.5 566,-58.5"/>
<text text-anchor="middle" x="598.5" y="-65.9" font-family="DejaVuSans" font-size="12.00">printout.c</text>
</a>
</g>
</g>
<!-- Node1&#45;&gt;Node10 -->
<g id="edge9" class="edge">
<title>Node1&#45;&gt;Node10</title>
<path fill="none" stroke="midnightblue" d="M384.36,-118.53C425.72,-109.61 496.73,-94.13 557.5,-80 560.21,-79.37 563.02,-78.71 565.84,-78.03"/>
<polygon fill="midnightblue" stroke="midnightblue" points="383.55,-115.12 374.51,-120.65 385.03,-121.97 383.55,-115.12"/>
</g>
<!-- Node11 -->
<g id="node11" class="node">
<title>Node11</title>
<g id="a_node11"><a xlink:href="tex__header_8h.html" target="_top" xlink:title=" ">
<polygon fill="white" stroke="black" points="649.5,-58.5 649.5,-79.5 735.5,-79.5 735.5,-58.5 649.5,-58.5"/>
<text text-anchor="middle" x="692.5" y="-65.9" font-family="DejaVuSans" font-size="12.00">tex_header.h</text>
</a>
</g>
</g>
<!-- Node1&#45;&gt;Node11 -->
<g id="edge10" class="edge">
<title>Node1&#45;&gt;Node11</title>
<path fill="none" stroke="midnightblue" d="M384.75,-120.81C439.55,-112.67 548.44,-96.12 640.5,-80 643.4,-79.49 646.38,-78.96 649.39,-78.4"/>
<polygon fill="midnightblue" stroke="midnightblue" points="384.23,-117.35 374.85,-122.28 385.25,-124.28 384.23,-117.35"/>
</g>
<!-- Node12 -->
<g id="node12" class="node">
<title>Node12</title>
<g id="a_node12"><a xlink:href="tex_8c.html" target="_top" xlink:title=" ">
<polygon fill="white" stroke="black" points="672,-0.5 672,-21.5 713,-21.5 713,-0.5 672,-0.5"/>
<text text-anchor="middle" x="692.5" y="-7.9" font-family="DejaVuSans" font-size="12.00">tex.c</text>
</a>
</g>
</g>
<!-- Node11&#45;&gt;Node12 -->
<g id="edge11" class="edge">
<title>Node11&#45;&gt;Node12</title>
<path fill="none" stroke="midnightblue" d="M692.5,-48.16C692.5,-39.16 692.5,-28.92 692.5,-21.64"/>
<polygon fill="midnightblue" stroke="midnightblue" points="689,-48.25 692.5,-58.25 696,-48.25 689,-48.25"/>
</g>
</g>
</svg>
