<?xml version="1.0" encoding="UTF-8" standalone="no"?>
<!DOCTYPE svg PUBLIC "-//W3C//DTD SVG 1.1//EN"
 "http://www.w3.org/Graphics/SVG/1.1/DTD/svg11.dtd">
<!-- Generated by graphviz version 2.44.0 ()
 -->
<!-- Title: print.c Pages: 1 -->
<svg width="656pt" height="378pt"
 viewBox="0.00 0.00 655.50 378.00" xmlns="http://www.w3.org/2000/svg" xmlns:xlink="http://www.w3.org/1999/xlink">
<g id="graph0" class="graph" transform="scale(1 1) rotate(0) translate(4 374)">
<title>print.c</title>
<polygon fill="white" stroke="transparent" points="-4,4 -4,-374 651.5,-374 651.5,4 -4,4"/>
<!-- Node1 -->
<g id="node1" class="node">
<title>Node1</title>
<g id="a_node1"><a xlink:title=" ">
<polygon fill="#bfbfbf" stroke="black" points="323.5,-348.5 323.5,-369.5 372.5,-369.5 372.5,-348.5 323.5,-348.5"/>
<text text-anchor="middle" x="348" y="-355.9" font-family="DejaVuSans" font-size="12.00">print.c</text>
</a>
</g>
</g>
<!-- Node2 -->
<g id="node2" class="node">
<title>Node2</title>
<g id="a_node2"><a xlink:title=" ">
<polygon fill="white" stroke="#bfbfbf" points="0,-290.5 0,-311.5 54,-311.5 54,-290.5 0,-290.5"/>
<text text-anchor="middle" x="27" y="-297.9" font-family="DejaVuSans" font-size="12.00">stdlib.h</text>
</a>
</g>
</g>
<!-- Node1&#45;&gt;Node2 -->
<g id="edge1" class="edge">
<title>Node1&#45;&gt;Node2</title>
<path fill="none" stroke="midnightblue" d="M323.16,-354.57C274.16,-347.66 161.65,-331.08 68,-312 66.75,-311.74 65.48,-311.48 64.19,-311.2"/>
<polygon fill="midnightblue" stroke="midnightblue" points="64.81,-307.75 54.28,-308.96 63.26,-314.58 64.81,-307.75"/>
</g>
<!-- Node3 -->
<g id="node3" class="node">
<title>Node3</title>
<g id="a_node3"><a xlink:href="global__const_8h.html" target="_top" xlink:title=" ">
<polygon fill="white" stroke="black" points="29.5,-174.5 29.5,-195.5 122.5,-195.5 122.5,-174.5 29.5,-174.5"/>
<text text-anchor="middle" x="76" y="-181.9" font-family="DejaVuSans" font-size="12.00">global_const.h</text>
</a>
</g>
</g>
<!-- Node1&#45;&gt;Node3 -->
<g id="edge2" class="edge">
<title>Node1&#45;&gt;Node3</title>
<path fill="none" stroke="midnightblue" d="M323.26,-354.72C273.6,-346.8 161.4,-322.01 101,-254 89.02,-240.51 82.62,-220.79 79.3,-206.06"/>
<polygon fill="midnightblue" stroke="midnightblue" points="82.68,-205.09 77.33,-195.95 75.81,-206.43 82.68,-205.09"/>
</g>
<!-- Node6 -->
<g id="node6" class="node">
<title>Node6</title>
<g id="a_node6"><a xlink:href="print_8h.html" target="_top" xlink:title=" ">
<polygon fill="white" stroke="black" points="323,-290.5 323,-311.5 373,-311.5 373,-290.5 323,-290.5"/>
<text text-anchor="middle" x="348" y="-297.9" font-family="DejaVuSans" font-size="12.00">print.h</text>
</a>
</g>
</g>
<!-- Node1&#45;&gt;Node6 -->
<g id="edge5" class="edge">
<title>Node1&#45;&gt;Node6</title>
<path fill="none" stroke="midnightblue" d="M348,-348.25C348,-340.94 348,-330.69 348,-321.7"/>
<polygon fill="midnightblue" stroke="midnightblue" points="351.5,-321.64 348,-311.64 344.5,-321.64 351.5,-321.64"/>
</g>
<!-- Node14 -->
<g id="node14" class="node">
<title>Node14</title>
<g id="a_node14"><a xlink:href="global_8h.html" target="_top" xlink:title=" ">
<polygon fill="white" stroke="black" points="224,-290.5 224,-311.5 282,-311.5 282,-290.5 224,-290.5"/>
<text text-anchor="middle" x="253" y="-297.9" font-family="DejaVuSans" font-size="12.00">global.h</text>
</a>
</g>
</g>
<!-- Node1&#45;&gt;Node14 -->
<g id="edge18" class="edge">
<title>Node1&#45;&gt;Node14</title>
<path fill="none" stroke="midnightblue" d="M331.45,-348.25C316.74,-339.57 295.01,-326.76 278.15,-316.82"/>
<polygon fill="midnightblue" stroke="midnightblue" points="279.75,-313.71 269.36,-311.64 276.2,-319.74 279.75,-313.71"/>
</g>
<!-- Node18 -->
<g id="node18" class="node">
<title>Node18</title>
<g id="a_node18"><a xlink:href="inputln_8h.html" target="_top" xlink:title=" ">
<polygon fill="white" stroke="black" points="516,-290.5 516,-311.5 578,-311.5 578,-290.5 516,-290.5"/>
<text text-anchor="middle" x="547" y="-297.9" font-family="DejaVuSans" font-size="12.00">inputln.h</text>
</a>
</g>
</g>
<!-- Node1&#45;&gt;Node18 -->
<g id="edge25" class="edge">
<title>Node1&#45;&gt;Node18</title>
<path fill="none" stroke="midnightblue" d="M372.8,-351.02C406.23,-341.61 466.16,-324.75 506.25,-313.47"/>
<polygon fill="midnightblue" stroke="midnightblue" points="507.31,-316.8 515.99,-310.73 505.42,-310.07 507.31,-316.8"/>
</g>
<!-- Node19 -->
<g id="node19" class="node">
<title>Node19</title>
<g id="a_node19"><a xlink:href="error_8h.html" target="_top" xlink:title=" ">
<polygon fill="white" stroke="black" points="596.5,-290.5 596.5,-311.5 647.5,-311.5 647.5,-290.5 596.5,-290.5"/>
<text text-anchor="middle" x="622" y="-297.9" font-family="DejaVuSans" font-size="12.00">error.h</text>
</a>
</g>
</g>
<!-- Node1&#45;&gt;Node19 -->
<g id="edge26" class="edge">
<title>Node1&#45;&gt;Node19</title>
<path fill="none" stroke="midnightblue" d="M372.58,-354.01C414.41,-347.05 502.29,-331.76 586.47,-311.95"/>
<polygon fill="midnightblue" stroke="midnightblue" points="587.54,-315.3 596.45,-309.58 585.92,-308.49 587.54,-315.3"/>
</g>
<!-- Node20 -->
<g id="node20" class="node">
<title>Node20</title>
<g id="a_node20"><a xlink:href="eqtb_8h.html" target="_top" xlink:title=" ">
<polygon fill="white" stroke="black" points="423,-116.5 423,-137.5 473,-137.5 473,-116.5 423,-116.5"/>
<text text-anchor="middle" x="448" y="-123.9" font-family="DejaVuSans" font-size="12.00">eqtb.h</text>
</a>
</g>
</g>
<!-- Node1&#45;&gt;Node20 -->
<g id="edge27" class="edge">
<title>Node1&#45;&gt;Node20</title>
<path fill="none" stroke="midnightblue" d="M362.81,-348.36C386.17,-332.15 430.69,-296.98 448,-254 462.24,-218.65 457.1,-173.06 452.36,-147.54"/>
<polygon fill="midnightblue" stroke="midnightblue" points="455.77,-146.73 450.35,-137.62 448.91,-148.12 455.77,-146.73"/>
</g>
<!-- Node4 -->
<g id="node4" class="node">
<title>Node4</title>
<g id="a_node4"><a xlink:title=" ">
<polygon fill="white" stroke="#bfbfbf" points="31.5,-116.5 31.5,-137.5 90.5,-137.5 90.5,-116.5 31.5,-116.5"/>
<text text-anchor="middle" x="61" y="-123.9" font-family="DejaVuSans" font-size="12.00">assert.h</text>
</a>
</g>
</g>
<!-- Node3&#45;&gt;Node4 -->
<g id="edge3" class="edge">
<title>Node3&#45;&gt;Node4</title>
<path fill="none" stroke="midnightblue" d="M73.39,-174.25C71.41,-166.86 68.63,-156.47 66.2,-147.41"/>
<polygon fill="midnightblue" stroke="midnightblue" points="69.55,-146.4 63.58,-137.64 62.79,-148.21 69.55,-146.4"/>
</g>
<!-- Node5 -->
<g id="node5" class="node">
<title>Node5</title>
<g id="a_node5"><a xlink:title=" ">
<polygon fill="white" stroke="#bfbfbf" points="109,-116.5 109,-137.5 161,-137.5 161,-116.5 109,-116.5"/>
<text text-anchor="middle" x="135" y="-123.9" font-family="DejaVuSans" font-size="12.00">stdio.h</text>
</a>
</g>
</g>
<!-- Node3&#45;&gt;Node5 -->
<g id="edge4" class="edge">
<title>Node3&#45;&gt;Node5</title>
<path fill="none" stroke="midnightblue" d="M86.28,-174.25C94.82,-166.14 107.18,-154.41 117.31,-144.79"/>
<polygon fill="midnightblue" stroke="midnightblue" points="120,-147.07 124.84,-137.64 115.18,-141.99 120,-147.07"/>
</g>
<!-- Node7 -->
<g id="node7" class="node">
<title>Node7</title>
<g id="a_node7"><a xlink:href="tex__types_8h.html" target="_top" xlink:title=" ">
<polygon fill="white" stroke="black" points="296.5,-58.5 296.5,-79.5 373.5,-79.5 373.5,-58.5 296.5,-58.5"/>
<text text-anchor="middle" x="335" y="-65.9" font-family="DejaVuSans" font-size="12.00">tex_types.h</text>
</a>
</g>
</g>
<!-- Node6&#45;&gt;Node7 -->
<g id="edge6" class="edge">
<title>Node6&#45;&gt;Node7</title>
<path fill="none" stroke="midnightblue" d="M347.46,-290.41C345.5,-255.85 338.8,-137.24 336.12,-89.82"/>
<polygon fill="midnightblue" stroke="midnightblue" points="339.6,-89.42 335.54,-79.63 332.61,-89.81 339.6,-89.42"/>
</g>
<!-- Node10 -->
<g id="node10" class="node">
<title>Node10</title>
<g id="a_node10"><a xlink:href="tex_8h.html" target="_top" xlink:title=" ">
<polygon fill="white" stroke="black" points="363,-116.5 363,-137.5 405,-137.5 405,-116.5 363,-116.5"/>
<text text-anchor="middle" x="384" y="-123.9" font-family="DejaVuSans" font-size="12.00">tex.h</text>
</a>
</g>
</g>
<!-- Node6&#45;&gt;Node10 -->
<g id="edge9" class="edge">
<title>Node6&#45;&gt;Node10</title>
<path fill="none" stroke="midnightblue" d="M373.24,-293.56C392.82,-287.1 418.62,-275.01 431,-254 452.29,-217.85 420.54,-170.37 399.72,-145.28"/>
<polygon fill="midnightblue" stroke="midnightblue" points="402.34,-142.97 393.17,-137.67 397.04,-147.54 402.34,-142.97"/>
</g>
<!-- Node12 -->
<g id="node12" class="node">
<title>Node12</title>
<g id="a_node12"><a xlink:href="texmac_8h.html" target="_top" xlink:title=" ">
<polygon fill="white" stroke="black" points="356.5,-232.5 356.5,-253.5 421.5,-253.5 421.5,-232.5 356.5,-232.5"/>
<text text-anchor="middle" x="389" y="-239.9" font-family="DejaVuSans" font-size="12.00">texmac.h</text>
</a>
</g>
</g>
<!-- Node6&#45;&gt;Node12 -->
<g id="edge12" class="edge">
<title>Node6&#45;&gt;Node12</title>
<path fill="none" stroke="midnightblue" d="M355.14,-290.25C360.84,-282.46 368.99,-271.33 375.86,-261.94"/>
<polygon fill="midnightblue" stroke="midnightblue" points="378.86,-263.78 381.94,-253.64 373.21,-259.64 378.86,-263.78"/>
</g>
<!-- Node13 -->
<g id="node13" class="node">
<title>Node13</title>
<g id="a_node13"><a xlink:href="str_8h.html" target="_top" xlink:title=" ">
<polygon fill="white" stroke="black" points="190.5,-232.5 190.5,-253.5 229.5,-253.5 229.5,-232.5 190.5,-232.5"/>
<text text-anchor="middle" x="210" y="-239.9" font-family="DejaVuSans" font-size="12.00">str.h</text>
</a>
</g>
</g>
<!-- Node6&#45;&gt;Node13 -->
<g id="edge13" class="edge">
<title>Node6&#45;&gt;Node13</title>
<path fill="none" stroke="midnightblue" d="M324.28,-290.37C300.74,-280.82 264.61,-266.16 239.3,-255.89"/>
<polygon fill="midnightblue" stroke="midnightblue" points="240.42,-252.57 229.84,-252.05 237.79,-259.05 240.42,-252.57"/>
</g>
<!-- Node8 -->
<g id="node8" class="node">
<title>Node8</title>
<g id="a_node8"><a xlink:title=" ">
<polygon fill="white" stroke="#bfbfbf" points="302.5,-0.5 302.5,-21.5 367.5,-21.5 367.5,-0.5 302.5,-0.5"/>
<text text-anchor="middle" x="335" y="-7.9" font-family="DejaVuSans" font-size="12.00">stdbool.h</text>
</a>
</g>
</g>
<!-- Node7&#45;&gt;Node8 -->
<g id="edge7" class="edge">
<title>Node7&#45;&gt;Node8</title>
<path fill="none" stroke="midnightblue" d="M335,-58.25C335,-50.94 335,-40.69 335,-31.7"/>
<polygon fill="midnightblue" stroke="midnightblue" points="338.5,-31.64 335,-21.64 331.5,-31.64 338.5,-31.64"/>
</g>
<!-- Node9 -->
<g id="node9" class="node">
<title>Node9</title>
<g id="a_node9"><a xlink:title=" ">
<polygon fill="white" stroke="#bfbfbf" points="195.5,-0.5 195.5,-21.5 250.5,-21.5 250.5,-0.5 195.5,-0.5"/>
<text text-anchor="middle" x="223" y="-7.9" font-family="DejaVuSans" font-size="12.00">stdint.h</text>
</a>
</g>
</g>
<!-- Node7&#45;&gt;Node9 -->
<g id="edge8" class="edge">
<title>Node7&#45;&gt;Node9</title>
<path fill="none" stroke="midnightblue" d="M315.75,-58.37C297.93,-49.46 271.23,-36.11 251.04,-26.02"/>
<polygon fill="midnightblue" stroke="midnightblue" points="252.51,-22.84 242,-21.5 249.38,-29.1 252.51,-22.84"/>
</g>
<!-- Node10&#45;&gt;Node7 -->
<g id="edge10" class="edge">
<title>Node10&#45;&gt;Node7</title>
<path fill="none" stroke="midnightblue" d="M375.46,-116.25C368.51,-108.3 358.51,-96.87 350.19,-87.37"/>
<polygon fill="midnightblue" stroke="midnightblue" points="352.66,-84.86 343.44,-79.64 347.39,-89.47 352.66,-84.86"/>
</g>
<!-- Node11 -->
<g id="node11" class="node">
<title>Node11</title>
<g id="a_node11"><a xlink:href="tex__constant_8h.html" target="_top" xlink:title=" ">
<polygon fill="white" stroke="black" points="396,-58.5 396,-79.5 490,-79.5 490,-58.5 396,-58.5"/>
<text text-anchor="middle" x="443" y="-65.9" font-family="DejaVuSans" font-size="12.00">tex_constant.h</text>
</a>
</g>
</g>
<!-- Node10&#45;&gt;Node11 -->
<g id="edge11" class="edge">
<title>Node10&#45;&gt;Node11</title>
<path fill="none" stroke="midnightblue" d="M394.28,-116.25C402.82,-108.14 415.18,-96.41 425.31,-86.79"/>
<polygon fill="midnightblue" stroke="midnightblue" points="428,-89.07 432.84,-79.64 423.18,-83.99 428,-89.07"/>
</g>
<!-- Node13&#45;&gt;Node3 -->
<g id="edge16" class="edge">
<title>Node13&#45;&gt;Node3</title>
<path fill="none" stroke="midnightblue" d="M190.23,-233.74C168.67,-224.73 133.83,-210.17 108.29,-199.49"/>
<polygon fill="midnightblue" stroke="midnightblue" points="109.58,-196.24 99,-195.61 106.88,-202.7 109.58,-196.24"/>
</g>
<!-- Node13&#45;&gt;Node5 -->
<g id="edge14" class="edge">
<title>Node13&#45;&gt;Node5</title>
<path fill="none" stroke="midnightblue" d="M202.14,-232.38C194.81,-223.24 183.72,-209 175,-196 164.19,-179.89 153.1,-160.8 145.35,-146.95"/>
<polygon fill="midnightblue" stroke="midnightblue" points="148.25,-144.96 140.34,-137.91 142.12,-148.35 148.25,-144.96"/>
</g>
<!-- Node13&#45;&gt;Node7 -->
<g id="edge17" class="edge">
<title>Node13&#45;&gt;Node7</title>
<path fill="none" stroke="midnightblue" d="M214.26,-232.38C220.45,-218.86 232.63,-193.66 246,-174 268.32,-141.19 299.39,-106.93 318.3,-87.07"/>
<polygon fill="midnightblue" stroke="midnightblue" points="320.96,-89.36 325.37,-79.73 315.91,-84.51 320.96,-89.36"/>
</g>
<!-- Node13&#45;&gt;Node9 -->
<g id="edge15" class="edge">
<title>Node13&#45;&gt;Node9</title>
<path fill="none" stroke="midnightblue" d="M210.54,-232.41C212.5,-197.85 219.2,-79.24 221.88,-31.82"/>
<polygon fill="midnightblue" stroke="midnightblue" points="225.39,-31.81 222.46,-21.63 218.4,-31.42 225.39,-31.81"/>
</g>
<!-- Node14&#45;&gt;Node13 -->
<g id="edge20" class="edge">
<title>Node14&#45;&gt;Node13</title>
<path fill="none" stroke="midnightblue" d="M245.51,-290.25C239.47,-282.38 230.81,-271.1 223.56,-261.65"/>
<polygon fill="midnightblue" stroke="midnightblue" points="226.27,-259.44 217.4,-253.64 220.72,-263.71 226.27,-259.44"/>
</g>
<!-- Node15 -->
<g id="node15" class="node">
<title>Node15</title>
<g id="a_node15"><a xlink:title=" ">
<polygon fill="white" stroke="#bfbfbf" points="110,-232.5 110,-253.5 172,-253.5 172,-232.5 110,-232.5"/>
<text text-anchor="middle" x="141" y="-239.9" font-family="DejaVuSans" font-size="12.00">setjmp.h</text>
</a>
</g>
</g>
<!-- Node14&#45;&gt;Node15 -->
<g id="edge19" class="edge">
<title>Node14&#45;&gt;Node15</title>
<path fill="none" stroke="midnightblue" d="M233.75,-290.37C215.93,-281.46 189.23,-268.11 169.04,-258.02"/>
<polygon fill="midnightblue" stroke="midnightblue" points="170.51,-254.84 160,-253.5 167.38,-261.1 170.51,-254.84"/>
</g>
<!-- Node16 -->
<g id="node16" class="node">
<title>Node16</title>
<g id="a_node16"><a xlink:href="scan_8h.html" target="_top" xlink:title=" ">
<polygon fill="white" stroke="black" points="248,-232.5 248,-253.5 300,-253.5 300,-232.5 248,-232.5"/>
<text text-anchor="middle" x="274" y="-239.9" font-family="DejaVuSans" font-size="12.00">scan.h</text>
</a>
</g>
</g>
<!-- Node14&#45;&gt;Node16 -->
<g id="edge21" class="edge">
<title>Node14&#45;&gt;Node16</title>
<path fill="none" stroke="midnightblue" d="M256.66,-290.25C259.46,-282.78 263.41,-272.24 266.83,-263.11"/>
<polygon fill="midnightblue" stroke="midnightblue" points="270.15,-264.23 270.38,-253.64 263.6,-261.78 270.15,-264.23"/>
</g>
<!-- Node17 -->
<g id="node17" class="node">
<title>Node17</title>
<g id="a_node17"><a xlink:href="lexer_8h.html" target="_top" xlink:title=" ">
<polygon fill="white" stroke="black" points="255,-174.5 255,-195.5 307,-195.5 307,-174.5 255,-174.5"/>
<text text-anchor="middle" x="281" y="-181.9" font-family="DejaVuSans" font-size="12.00">lexer.h</text>
</a>
</g>
</g>
<!-- Node16&#45;&gt;Node17 -->
<g id="edge22" class="edge">
<title>Node16&#45;&gt;Node17</title>
<path fill="none" stroke="midnightblue" d="M275.22,-232.25C276.13,-224.94 277.41,-214.69 278.54,-205.7"/>
<polygon fill="midnightblue" stroke="midnightblue" points="282.03,-206 279.79,-195.64 275.08,-205.13 282.03,-206"/>
</g>
<!-- Node17&#45;&gt;Node5 -->
<g id="edge23" class="edge">
<title>Node17&#45;&gt;Node5</title>
<path fill="none" stroke="midnightblue" d="M255.9,-174.37C232.04,-165.22 195.97,-151.38 169.43,-141.21"/>
<polygon fill="midnightblue" stroke="midnightblue" points="170.36,-137.81 159.77,-137.5 167.85,-144.35 170.36,-137.81"/>
</g>
<!-- Node17&#45;&gt;Node10 -->
<g id="edge24" class="edge">
<title>Node17&#45;&gt;Node10</title>
<path fill="none" stroke="midnightblue" d="M298.94,-174.25C315.04,-165.49 338.89,-152.53 357.24,-142.55"/>
<polygon fill="midnightblue" stroke="midnightblue" points="359.15,-145.49 366.26,-137.64 355.81,-139.34 359.15,-145.49"/>
</g>
<!-- Node20&#45;&gt;Node7 -->
<g id="edge28" class="edge">
<title>Node20&#45;&gt;Node7</title>
<path fill="none" stroke="midnightblue" d="M428.57,-116.37C410.6,-107.46 383.66,-94.11 363.29,-84.02"/>
<polygon fill="midnightblue" stroke="midnightblue" points="364.69,-80.81 354.17,-79.5 361.58,-87.08 364.69,-80.81"/>
</g>
<!-- Node20&#45;&gt;Node11 -->
<g id="edge29" class="edge">
<title>Node20&#45;&gt;Node11</title>
<path fill="none" stroke="midnightblue" d="M447.13,-116.25C446.48,-108.94 445.56,-98.69 444.76,-89.7"/>
<polygon fill="midnightblue" stroke="midnightblue" points="448.24,-89.29 443.86,-79.64 441.26,-89.91 448.24,-89.29"/>
</g>
</g>
</svg>
