<?xml version="1.0" encoding="UTF-8" standalone="no"?>
<!DOCTYPE svg PUBLIC "-//W3C//DTD SVG 1.1//EN"
 "http://www.w3.org/Graphics/SVG/1.1/DTD/svg11.dtd">
<!-- Generated by graphviz version 2.42.3 ()
 -->
<!-- Title: printout.h Pages: 1 -->
<svg width="247pt" height="146pt"
 viewBox="0.00 0.00 246.50 146.00" xmlns="http://www.w3.org/2000/svg" xmlns:xlink="http://www.w3.org/1999/xlink">
<g id="graph0" class="graph" transform="scale(1 1) rotate(0) translate(4 142)">
<title>printout.h</title>
<polygon fill="white" stroke="transparent" points="-4,4 -4,-142 242.5,-142 242.5,4 -4,4"/>
<!-- Node1 -->
<g id="node1" class="node">
<title>Node1</title>
<g id="a_node1"><a xlink:title=" ">
<polygon fill="#bfbfbf" stroke="black" points="68.5,-116.5 68.5,-137.5 134.5,-137.5 134.5,-116.5 68.5,-116.5"/>
<text text-anchor="middle" x="101.5" y="-123.9" font-family="DejaVuSans" font-size="12.00">printout.h</text>
</a>
</g>
</g>
<!-- Node2 -->
<g id="node2" class="node">
<title>Node2</title>
<g id="a_node2"><a xlink:href="lexer_8c.html" target="_top" xlink:title=" ">
<polygon fill="white" stroke="black" points="0,-58.5 0,-79.5 51,-79.5 51,-58.5 0,-58.5"/>
<text text-anchor="middle" x="25.5" y="-65.9" font-family="DejaVuSans" font-size="12.00">lexer.c</text>
</a>
</g>
</g>
<!-- Node1&#45;&gt;Node2 -->
<g id="edge1" class="edge">
<title>Node1&#45;&gt;Node2</title>
<path fill="none" stroke="midnightblue" d="M80.07,-110.21C66.72,-100.37 49.98,-88.04 38.59,-79.64"/>
<polygon fill="midnightblue" stroke="midnightblue" points="78.14,-113.13 88.26,-116.25 82.29,-107.5 78.14,-113.13"/>
</g>
<!-- Node3 -->
<g id="node3" class="node">
<title>Node3</title>
<g id="a_node3"><a xlink:href="printout_8c.html" target="_top" xlink:title=" ">
<polygon fill="white" stroke="black" points="69,-58.5 69,-79.5 134,-79.5 134,-58.5 69,-58.5"/>
<text text-anchor="middle" x="101.5" y="-65.9" font-family="DejaVuSans" font-size="12.00">printout.c</text>
</a>
</g>
</g>
<!-- Node1&#45;&gt;Node3 -->
<g id="edge2" class="edge">
<title>Node1&#45;&gt;Node3</title>
<path fill="none" stroke="midnightblue" d="M101.5,-106.16C101.5,-97.16 101.5,-86.92 101.5,-79.64"/>
<polygon fill="midnightblue" stroke="midnightblue" points="98,-106.25 101.5,-116.25 105,-106.25 98,-106.25"/>
</g>
<!-- Node4 -->
<g id="node4" class="node">
<title>Node4</title>
<g id="a_node4"><a xlink:href="tex__header_8h.html" target="_top" xlink:title=" ">
<polygon fill="white" stroke="black" points="152.5,-58.5 152.5,-79.5 238.5,-79.5 238.5,-58.5 152.5,-58.5"/>
<text text-anchor="middle" x="195.5" y="-65.9" font-family="DejaVuSans" font-size="12.00">tex_header.h</text>
</a>
</g>
</g>
<!-- Node1&#45;&gt;Node4 -->
<g id="edge3" class="edge">
<title>Node1&#45;&gt;Node4</title>
<path fill="none" stroke="midnightblue" d="M126.6,-111.05C143.33,-101.08 164.82,-88.28 179.31,-79.64"/>
<polygon fill="midnightblue" stroke="midnightblue" points="124.67,-108.12 117.87,-116.25 128.26,-114.13 124.67,-108.12"/>
</g>
<!-- Node5 -->
<g id="node5" class="node">
<title>Node5</title>
<g id="a_node5"><a xlink:href="tex_8c.html" target="_top" xlink:title=" ">
<polygon fill="white" stroke="black" points="175,-0.5 175,-21.5 216,-21.5 216,-0.5 175,-0.5"/>
<text text-anchor="middle" x="195.5" y="-7.9" font-family="DejaVuSans" font-size="12.00">tex.c</text>
</a>
</g>
</g>
<!-- Node4&#45;&gt;Node5 -->
<g id="edge4" class="edge">
<title>Node4&#45;&gt;Node5</title>
<path fill="none" stroke="midnightblue" d="M195.5,-48.16C195.5,-39.16 195.5,-28.92 195.5,-21.64"/>
<polygon fill="midnightblue" stroke="midnightblue" points="192,-48.25 195.5,-58.25 199,-48.25 192,-48.25"/>
</g>
</g>
</svg>
