<?xml version="1.0" encoding="UTF-8" standalone="no"?>
<!DOCTYPE svg PUBLIC "-//W3C//DTD SVG 1.1//EN"
 "http://www.w3.org/Graphics/SVG/1.1/DTD/svg11.dtd">
<!-- Generated by graphviz version 2.44.0 ()
 -->
<!-- Title: print.c Pages: 1 -->
<svg width="1116pt" height="494pt"
 viewBox="0.00 0.00 1116.00 494.00" xmlns="http://www.w3.org/2000/svg" xmlns:xlink="http://www.w3.org/1999/xlink">
<g id="graph0" class="graph" transform="scale(1 1) rotate(0) translate(4 490)">
<title>print.c</title>
<polygon fill="white" stroke="transparent" points="-4,4 -4,-490 1112,-490 1112,4 -4,4"/>
<!-- Node1 -->
<g id="node1" class="node">
<title>Node1</title>
<g id="a_node1"><a xlink:title=" ">
<polygon fill="#bfbfbf" stroke="black" points="690.5,-464.5 690.5,-485.5 739.5,-485.5 739.5,-464.5 690.5,-464.5"/>
<text text-anchor="middle" x="715" y="-471.9" font-family="DejaVuSans" font-size="12.00">print.c</text>
</a>
</g>
</g>
<!-- Node2 -->
<g id="node2" class="node">
<title>Node2</title>
<g id="a_node2"><a xlink:title=" ">
<polygon fill="white" stroke="#bfbfbf" points="0,-406.5 0,-427.5 54,-427.5 54,-406.5 0,-406.5"/>
<text text-anchor="middle" x="27" y="-413.9" font-family="DejaVuSans" font-size="12.00">stdlib.h</text>
</a>
</g>
</g>
<!-- Node1&#45;&gt;Node2 -->
<g id="edge1" class="edge">
<title>Node1&#45;&gt;Node2</title>
<path fill="none" stroke="midnightblue" d="M690.45,-473.74C604.39,-472.51 308.6,-465.62 68,-428 66.74,-427.8 65.46,-427.59 64.17,-427.35"/>
<polygon fill="midnightblue" stroke="midnightblue" points="64.72,-423.89 54.22,-425.32 63.31,-430.75 64.72,-423.89"/>
</g>
<!-- Node3 -->
<g id="node3" class="node">
<title>Node3</title>
<g id="a_node3"><a xlink:href="charset_8h.html" target="_top" xlink:title=" ">
<polygon fill="white" stroke="black" points="923.5,-174.5 923.5,-195.5 988.5,-195.5 988.5,-174.5 923.5,-174.5"/>
<text text-anchor="middle" x="956" y="-181.9" font-family="DejaVuSans" font-size="12.00">charset.h</text>
</a>
</g>
</g>
<!-- Node1&#45;&gt;Node3 -->
<g id="edge2" class="edge">
<title>Node1&#45;&gt;Node3</title>
<path fill="none" stroke="midnightblue" d="M739.58,-472.24C825.62,-465.4 1108,-437.08 1108,-360 1108,-360 1108,-360 1108,-300 1108,-244.84 1043.14,-213.1 998.16,-197.72"/>
<polygon fill="midnightblue" stroke="midnightblue" points="999.2,-194.38 988.61,-194.59 997.02,-201.03 999.2,-194.38"/>
</g>
<!-- Node11 -->
<g id="node11" class="node">
<title>Node11</title>
<g id="a_node11"><a xlink:href="print_8h.html" target="_top" xlink:title=" ">
<polygon fill="white" stroke="black" points="736,-290.5 736,-311.5 786,-311.5 786,-290.5 736,-290.5"/>
<text text-anchor="middle" x="761" y="-297.9" font-family="DejaVuSans" font-size="12.00">print.h</text>
</a>
</g>
</g>
<!-- Node1&#45;&gt;Node11 -->
<g id="edge10" class="edge">
<title>Node1&#45;&gt;Node11</title>
<path fill="none" stroke="midnightblue" d="M717.6,-464.26C724.94,-436.82 745.89,-358.51 755.75,-321.64"/>
<polygon fill="midnightblue" stroke="midnightblue" points="759.22,-322.2 758.42,-311.63 752.46,-320.39 759.22,-322.2"/>
</g>
<!-- Node14 -->
<g id="node14" class="node">
<title>Node14</title>
<g id="a_node14"><a xlink:href="eqtb_8h.html" target="_top" xlink:title=" ">
<polygon fill="white" stroke="black" points="110,-232.5 110,-253.5 160,-253.5 160,-232.5 110,-232.5"/>
<text text-anchor="middle" x="135" y="-239.9" font-family="DejaVuSans" font-size="12.00">eqtb.h</text>
</a>
</g>
</g>
<!-- Node1&#45;&gt;Node14 -->
<g id="edge63" class="edge">
<title>Node1&#45;&gt;Node14</title>
<path fill="none" stroke="midnightblue" d="M690.16,-474.04C628.98,-473.47 466.71,-467.99 339,-428 248.89,-399.78 215.47,-389.13 161,-312 150.54,-297.19 143.64,-277.63 139.59,-263.29"/>
<polygon fill="midnightblue" stroke="midnightblue" points="142.95,-262.3 137.04,-253.51 136.18,-264.07 142.95,-262.3"/>
</g>
<!-- Node16 -->
<g id="node16" class="node">
<title>Node16</title>
<g id="a_node16"><a xlink:href="io_8h.html" target="_top" xlink:title=" ">
<polygon fill="white" stroke="black" points="828,-290.5 828,-311.5 864,-311.5 864,-290.5 828,-290.5"/>
<text text-anchor="middle" x="846" y="-297.9" font-family="DejaVuSans" font-size="12.00">io.h</text>
</a>
</g>
</g>
<!-- Node1&#45;&gt;Node16 -->
<g id="edge23" class="edge">
<title>Node1&#45;&gt;Node16</title>
<path fill="none" stroke="midnightblue" d="M722.42,-464.26C743.67,-436.35 805.03,-355.79 832.46,-319.77"/>
<polygon fill="midnightblue" stroke="midnightblue" points="835.39,-321.71 838.66,-311.63 829.82,-317.47 835.39,-321.71"/>
</g>
<!-- Node17 -->
<g id="node17" class="node">
<title>Node17</title>
<g id="a_node17"><a xlink:href="error_8h.html" target="_top" xlink:title=" ">
<polygon fill="white" stroke="black" points="1022.5,-290.5 1022.5,-311.5 1073.5,-311.5 1073.5,-290.5 1022.5,-290.5"/>
<text text-anchor="middle" x="1048" y="-297.9" font-family="DejaVuSans" font-size="12.00">error.h</text>
</a>
</g>
</g>
<!-- Node1&#45;&gt;Node17 -->
<g id="edge29" class="edge">
<title>Node1&#45;&gt;Node17</title>
<path fill="none" stroke="midnightblue" d="M733.86,-464.26C789.72,-435.4 954.55,-350.27 1020.38,-316.27"/>
<polygon fill="midnightblue" stroke="midnightblue" points="1022.07,-319.33 1029.35,-311.63 1018.86,-313.11 1022.07,-319.33"/>
</g>
<!-- Node18 -->
<g id="node18" class="node">
<title>Node18</title>
<g id="a_node18"><a xlink:href="extension_8h.html" target="_top" xlink:title=" ">
<polygon fill="white" stroke="black" points="348,-406.5 348,-427.5 426,-427.5 426,-406.5 348,-406.5"/>
<text text-anchor="middle" x="387" y="-413.9" font-family="DejaVuSans" font-size="12.00">extension.h</text>
</a>
</g>
</g>
<!-- Node1&#45;&gt;Node18 -->
<g id="edge32" class="edge">
<title>Node1&#45;&gt;Node18</title>
<path fill="none" stroke="midnightblue" d="M690.35,-469.79C636.46,-460.59 507.31,-438.54 436.14,-426.39"/>
<polygon fill="midnightblue" stroke="midnightblue" points="436.52,-422.9 426.07,-424.67 435.34,-429.8 436.52,-422.9"/>
</g>
<!-- Node25 -->
<g id="node25" class="node">
<title>Node25</title>
<g id="a_node25"><a xlink:href="dump_8h.html" target="_top" xlink:title=" ">
<polygon fill="white" stroke="black" points="586,-232.5 586,-253.5 642,-253.5 642,-232.5 586,-232.5"/>
<text text-anchor="middle" x="614" y="-239.9" font-family="DejaVuSans" font-size="12.00">dump.h</text>
</a>
</g>
</g>
<!-- Node1&#45;&gt;Node25 -->
<g id="edge62" class="edge">
<title>Node1&#45;&gt;Node25</title>
<path fill="none" stroke="midnightblue" d="M710.79,-464.41C695.52,-429.63 642.87,-309.73 622.31,-262.93"/>
<polygon fill="midnightblue" stroke="midnightblue" points="625.45,-261.38 618.23,-253.63 619.05,-264.19 625.45,-261.38"/>
</g>
<!-- Node4 -->
<g id="node4" class="node">
<title>Node4</title>
<g id="a_node4"><a xlink:href="global_8h.html" target="_top" xlink:title=" ">
<polygon fill="white" stroke="black" points="529,-116.5 529,-137.5 587,-137.5 587,-116.5 529,-116.5"/>
<text text-anchor="middle" x="558" y="-123.9" font-family="DejaVuSans" font-size="12.00">global.h</text>
</a>
</g>
</g>
<!-- Node3&#45;&gt;Node4 -->
<g id="edge3" class="edge">
<title>Node3&#45;&gt;Node4</title>
<path fill="none" stroke="midnightblue" d="M923.43,-179.42C850.76,-169.19 675.62,-144.55 597.16,-133.51"/>
<polygon fill="midnightblue" stroke="midnightblue" points="597.59,-130.04 587.2,-132.11 596.61,-136.97 597.59,-130.04"/>
</g>
<!-- Node5 -->
<g id="node5" class="node">
<title>Node5</title>
<g id="a_node5"><a xlink:href="global__macros_8h.html" target="_top" xlink:title=" ">
<polygon fill="white" stroke="black" points="675,-58.5 675,-79.5 779,-79.5 779,-58.5 675,-58.5"/>
<text text-anchor="middle" x="727" y="-65.9" font-family="DejaVuSans" font-size="12.00">global_macros.h</text>
</a>
</g>
</g>
<!-- Node4&#45;&gt;Node5 -->
<g id="edge4" class="edge">
<title>Node4&#45;&gt;Node5</title>
<path fill="none" stroke="midnightblue" d="M587.05,-116.37C615.15,-107.06 657.91,-92.9 688.76,-82.67"/>
<polygon fill="midnightblue" stroke="midnightblue" points="689.94,-85.97 698.33,-79.5 687.73,-79.32 689.94,-85.97"/>
</g>
<!-- Node7 -->
<g id="node7" class="node">
<title>Node7</title>
<g id="a_node7"><a xlink:href="global__const_8h.html" target="_top" xlink:title=" ">
<polygon fill="white" stroke="black" points="563.5,-58.5 563.5,-79.5 656.5,-79.5 656.5,-58.5 563.5,-58.5"/>
<text text-anchor="middle" x="610" y="-65.9" font-family="DejaVuSans" font-size="12.00">global_const.h</text>
</a>
</g>
</g>
<!-- Node4&#45;&gt;Node7 -->
<g id="edge6" class="edge">
<title>Node4&#45;&gt;Node7</title>
<path fill="none" stroke="midnightblue" d="M567.06,-116.25C574.51,-108.22 585.26,-96.64 594.14,-87.08"/>
<polygon fill="midnightblue" stroke="midnightblue" points="596.81,-89.35 601.05,-79.64 591.68,-84.59 596.81,-89.35"/>
</g>
<!-- Node8 -->
<g id="node8" class="node">
<title>Node8</title>
<g id="a_node8"><a xlink:href="tex__types_8h.html" target="_top" xlink:title=" ">
<polygon fill="white" stroke="black" points="468.5,-58.5 468.5,-79.5 545.5,-79.5 545.5,-58.5 468.5,-58.5"/>
<text text-anchor="middle" x="507" y="-65.9" font-family="DejaVuSans" font-size="12.00">tex_types.h</text>
</a>
</g>
</g>
<!-- Node4&#45;&gt;Node8 -->
<g id="edge7" class="edge">
<title>Node4&#45;&gt;Node8</title>
<path fill="none" stroke="midnightblue" d="M549.12,-116.25C541.8,-108.22 531.26,-96.64 522.55,-87.08"/>
<polygon fill="midnightblue" stroke="midnightblue" points="525.1,-84.68 515.78,-79.64 519.93,-89.39 525.1,-84.68"/>
</g>
<!-- Node6 -->
<g id="node6" class="node">
<title>Node6</title>
<g id="a_node6"><a xlink:title=" ">
<polygon fill="white" stroke="#bfbfbf" points="697.5,-0.5 697.5,-21.5 756.5,-21.5 756.5,-0.5 697.5,-0.5"/>
<text text-anchor="middle" x="727" y="-7.9" font-family="DejaVuSans" font-size="12.00">assert.h</text>
</a>
</g>
</g>
<!-- Node5&#45;&gt;Node6 -->
<g id="edge5" class="edge">
<title>Node5&#45;&gt;Node6</title>
<path fill="none" stroke="midnightblue" d="M727,-58.25C727,-50.94 727,-40.69 727,-31.7"/>
<polygon fill="midnightblue" stroke="midnightblue" points="730.5,-31.64 727,-21.64 723.5,-31.64 730.5,-31.64"/>
</g>
<!-- Node9 -->
<g id="node9" class="node">
<title>Node9</title>
<g id="a_node9"><a xlink:title=" ">
<polygon fill="white" stroke="#bfbfbf" points="474.5,-0.5 474.5,-21.5 539.5,-21.5 539.5,-0.5 474.5,-0.5"/>
<text text-anchor="middle" x="507" y="-7.9" font-family="DejaVuSans" font-size="12.00">stdbool.h</text>
</a>
</g>
</g>
<!-- Node8&#45;&gt;Node9 -->
<g id="edge8" class="edge">
<title>Node8&#45;&gt;Node9</title>
<path fill="none" stroke="midnightblue" d="M507,-58.25C507,-50.94 507,-40.69 507,-31.7"/>
<polygon fill="midnightblue" stroke="midnightblue" points="510.5,-31.64 507,-21.64 503.5,-31.64 510.5,-31.64"/>
</g>
<!-- Node10 -->
<g id="node10" class="node">
<title>Node10</title>
<g id="a_node10"><a xlink:title=" ">
<polygon fill="white" stroke="#bfbfbf" points="820.5,-0.5 820.5,-21.5 875.5,-21.5 875.5,-0.5 820.5,-0.5"/>
<text text-anchor="middle" x="848" y="-7.9" font-family="DejaVuSans" font-size="12.00">stdint.h</text>
</a>
</g>
</g>
<!-- Node8&#45;&gt;Node10 -->
<g id="edge9" class="edge">
<title>Node8&#45;&gt;Node10</title>
<path fill="none" stroke="midnightblue" d="M545.7,-59.59C548.5,-59.04 551.29,-58.5 554,-58 645.64,-41.09 754.1,-25.18 810.18,-17.25"/>
<polygon fill="midnightblue" stroke="midnightblue" points="810.94,-20.67 820.35,-15.81 809.96,-13.74 810.94,-20.67"/>
</g>
<!-- Node11&#45;&gt;Node3 -->
<g id="edge13" class="edge">
<title>Node11&#45;&gt;Node3</title>
<path fill="none" stroke="midnightblue" d="M786.06,-295.8C814.99,-290.04 863.08,-277.6 898,-254 917.38,-240.91 934.04,-219.66 944.47,-204.4"/>
<polygon fill="midnightblue" stroke="midnightblue" points="947.56,-206.08 950.13,-195.8 941.71,-202.23 947.56,-206.08"/>
</g>
<!-- Node11&#45;&gt;Node4 -->
<g id="edge12" class="edge">
<title>Node11&#45;&gt;Node4</title>
<path fill="none" stroke="midnightblue" d="M762.87,-290.32C766.77,-267.01 773.06,-207.29 743,-174 723.78,-152.72 645.82,-139.17 597.44,-132.64"/>
<polygon fill="midnightblue" stroke="midnightblue" points="597.67,-129.14 587.3,-131.31 596.77,-136.08 597.67,-129.14"/>
</g>
<!-- Node12 -->
<g id="node12" class="node">
<title>Node12</title>
<g id="a_node12"><a xlink:title=" ">
<polygon fill="white" stroke="#bfbfbf" points="682,-174.5 682,-195.5 734,-195.5 734,-174.5 682,-174.5"/>
<text text-anchor="middle" x="708" y="-181.9" font-family="DejaVuSans" font-size="12.00">stdio.h</text>
</a>
</g>
</g>
<!-- Node11&#45;&gt;Node12 -->
<g id="edge11" class="edge">
<title>Node11&#45;&gt;Node12</title>
<path fill="none" stroke="midnightblue" d="M756.48,-290.28C747.72,-271.43 728.28,-229.62 716.86,-205.05"/>
<polygon fill="midnightblue" stroke="midnightblue" points="719.9,-203.29 712.51,-195.69 713.55,-206.24 719.9,-203.29"/>
</g>
<!-- Node13 -->
<g id="node13" class="node">
<title>Node13</title>
<g id="a_node13"><a xlink:href="tex__constant_8h.html" target="_top" xlink:title=" ">
<polygon fill="white" stroke="black" points="340,-174.5 340,-195.5 434,-195.5 434,-174.5 340,-174.5"/>
<text text-anchor="middle" x="387" y="-181.9" font-family="DejaVuSans" font-size="12.00">tex_constant.h</text>
</a>
</g>
</g>
<!-- Node11&#45;&gt;Node13 -->
<g id="edge14" class="edge">
<title>Node11&#45;&gt;Node13</title>
<path fill="none" stroke="midnightblue" d="M735.77,-297.58C663.9,-290.51 461.61,-269.47 436,-254 417.2,-242.64 403.54,-221.04 395.49,-205.22"/>
<polygon fill="midnightblue" stroke="midnightblue" points="398.47,-203.35 391.01,-195.83 392.15,-206.36 398.47,-203.35"/>
</g>
<!-- Node11&#45;&gt;Node14 -->
<g id="edge15" class="edge">
<title>Node11&#45;&gt;Node14</title>
<path fill="none" stroke="midnightblue" d="M735.76,-297.77C660.9,-291.14 433.56,-270.98 245,-254 220.05,-251.75 191.92,-249.2 170.36,-247.23"/>
<polygon fill="midnightblue" stroke="midnightblue" points="170.62,-243.74 160.34,-246.32 169.98,-250.71 170.62,-243.74"/>
</g>
<!-- Node15 -->
<g id="node15" class="node">
<title>Node15</title>
<g id="a_node15"><a xlink:href="str_8h.html" target="_top" xlink:title=" ">
<polygon fill="white" stroke="black" points="850.5,-232.5 850.5,-253.5 889.5,-253.5 889.5,-232.5 850.5,-232.5"/>
<text text-anchor="middle" x="870" y="-239.9" font-family="DejaVuSans" font-size="12.00">str.h</text>
</a>
</g>
</g>
<!-- Node11&#45;&gt;Node15 -->
<g id="edge18" class="edge">
<title>Node11&#45;&gt;Node15</title>
<path fill="none" stroke="midnightblue" d="M779.99,-290.25C797.18,-281.41 822.72,-268.29 842.21,-258.28"/>
<polygon fill="midnightblue" stroke="midnightblue" points="843.94,-261.33 851.23,-253.64 840.74,-255.1 843.94,-261.33"/>
</g>
<!-- Node14&#45;&gt;Node4 -->
<g id="edge16" class="edge">
<title>Node14&#45;&gt;Node4</title>
<path fill="none" stroke="midnightblue" d="M137.56,-232.17C142.11,-216.9 153.12,-187.82 174,-174 229.97,-136.96 432.69,-129.72 518.84,-128.32"/>
<polygon fill="midnightblue" stroke="midnightblue" points="519.04,-131.82 528.99,-128.18 518.94,-124.82 519.04,-131.82"/>
</g>
<!-- Node14&#45;&gt;Node13 -->
<g id="edge17" class="edge">
<title>Node14&#45;&gt;Node13</title>
<path fill="none" stroke="midnightblue" d="M160.08,-236.43C200.43,-227.46 280.63,-209.64 334.05,-197.77"/>
<polygon fill="midnightblue" stroke="midnightblue" points="335.03,-201.13 344.03,-195.55 333.51,-194.3 335.03,-201.13"/>
</g>
<!-- Node15&#45;&gt;Node3 -->
<g id="edge22" class="edge">
<title>Node15&#45;&gt;Node3</title>
<path fill="none" stroke="midnightblue" d="M884.98,-232.25C898.18,-223.65 917.61,-211 932.81,-201.1"/>
<polygon fill="midnightblue" stroke="midnightblue" points="934.72,-204.03 941.19,-195.64 930.9,-198.17 934.72,-204.03"/>
</g>
<!-- Node15&#45;&gt;Node4 -->
<g id="edge21" class="edge">
<title>Node15&#45;&gt;Node4</title>
<path fill="none" stroke="midnightblue" d="M867.65,-232.29C863.44,-217.2 853.14,-188.35 833,-174 795.86,-147.54 664.42,-135.11 597.61,-130.39"/>
<polygon fill="midnightblue" stroke="midnightblue" points="597.68,-126.89 587.47,-129.7 597.21,-133.87 597.68,-126.89"/>
</g>
<!-- Node15&#45;&gt;Node10 -->
<g id="edge20" class="edge">
<title>Node15&#45;&gt;Node10</title>
<path fill="none" stroke="midnightblue" d="M869.08,-232.41C865.78,-197.85 854.43,-79.24 849.9,-31.82"/>
<polygon fill="midnightblue" stroke="midnightblue" points="853.36,-31.25 848.92,-21.63 846.39,-31.92 853.36,-31.25"/>
</g>
<!-- Node15&#45;&gt;Node12 -->
<g id="edge19" class="edge">
<title>Node15&#45;&gt;Node12</title>
<path fill="none" stroke="midnightblue" d="M850.46,-235.25C824.07,-226.12 776.57,-209.7 743.72,-198.35"/>
<polygon fill="midnightblue" stroke="midnightblue" points="744.63,-194.96 734.03,-195 742.34,-201.57 744.63,-194.96"/>
</g>
<!-- Node16&#45;&gt;Node3 -->
<g id="edge27" class="edge">
<title>Node16&#45;&gt;Node3</title>
<path fill="none" stroke="midnightblue" d="M864.33,-294.61C883.7,-288.02 913.91,-275.07 932,-254 943.7,-240.38 949.82,-220.67 952.95,-205.98"/>
<polygon fill="midnightblue" stroke="midnightblue" points="956.43,-206.37 954.79,-195.9 949.55,-205.11 956.43,-206.37"/>
</g>
<!-- Node16&#45;&gt;Node4 -->
<g id="edge25" class="edge">
<title>Node16&#45;&gt;Node4</title>
<path fill="none" stroke="midnightblue" d="M864.23,-294.18C913.89,-277.45 1044.76,-227.02 997,-174 970.47,-144.54 700,-132.65 597.28,-129.18"/>
<polygon fill="midnightblue" stroke="midnightblue" points="597.14,-125.67 587.03,-128.84 596.91,-132.67 597.14,-125.67"/>
</g>
<!-- Node16&#45;&gt;Node12 -->
<g id="edge24" class="edge">
<title>Node16&#45;&gt;Node12</title>
<path fill="none" stroke="midnightblue" d="M834.23,-290.28C810.5,-270.68 756.7,-226.23 727.58,-202.18"/>
<polygon fill="midnightblue" stroke="midnightblue" points="729.67,-199.37 719.74,-195.69 725.22,-204.76 729.67,-199.37"/>
</g>
<!-- Node16&#45;&gt;Node13 -->
<g id="edge26" class="edge">
<title>Node16&#45;&gt;Node13</title>
<path fill="none" stroke="midnightblue" d="M827.65,-296.02C817.97,-294.01 805.88,-291.66 795,-290 650.91,-267.96 603.2,-310.92 469,-254 454.71,-247.94 423.9,-220.59 404.38,-202.47"/>
<polygon fill="midnightblue" stroke="midnightblue" points="406.72,-199.87 397.03,-195.59 401.94,-204.98 406.72,-199.87"/>
</g>
<!-- Node16&#45;&gt;Node15 -->
<g id="edge28" class="edge">
<title>Node16&#45;&gt;Node15</title>
<path fill="none" stroke="midnightblue" d="M850.18,-290.25C853.38,-282.78 857.9,-272.24 861.81,-263.11"/>
<polygon fill="midnightblue" stroke="midnightblue" points="865.15,-264.21 865.87,-253.64 858.71,-261.46 865.15,-264.21"/>
</g>
<!-- Node17&#45;&gt;Node4 -->
<g id="edge30" class="edge">
<title>Node17&#45;&gt;Node4</title>
<path fill="none" stroke="midnightblue" d="M1048.89,-290.24C1050.49,-266.22 1050.88,-204.05 1016,-174 984.57,-146.93 702.87,-133.51 597.52,-129.41"/>
<polygon fill="midnightblue" stroke="midnightblue" points="597.44,-125.9 587.31,-129.02 597.17,-132.9 597.44,-125.9"/>
</g>
<!-- Node17&#45;&gt;Node15 -->
<g id="edge31" class="edge">
<title>Node17&#45;&gt;Node15</title>
<path fill="none" stroke="midnightblue" d="M1022.5,-291.98C990,-281.75 933.94,-264.12 899.6,-253.31"/>
<polygon fill="midnightblue" stroke="midnightblue" points="900.28,-249.86 889.69,-250.19 898.18,-256.53 900.28,-249.86"/>
</g>
<!-- Node18&#45;&gt;Node4 -->
<g id="edge34" class="edge">
<title>Node18&#45;&gt;Node4</title>
<path fill="none" stroke="midnightblue" d="M347.94,-412.85C287.7,-405.81 172.75,-383.29 112,-312 72.2,-265.3 67.38,-211.42 116,-174 147.59,-149.69 416.28,-134.65 518.63,-129.76"/>
<polygon fill="midnightblue" stroke="midnightblue" points="519.03,-133.24 528.85,-129.28 518.7,-126.25 519.03,-133.24"/>
</g>
<!-- Node18&#45;&gt;Node12 -->
<g id="edge33" class="edge">
<title>Node18&#45;&gt;Node12</title>
<path fill="none" stroke="midnightblue" d="M418.56,-406.41C465.52,-391.19 555.28,-358.43 621,-312 650.01,-291.5 655.96,-283.33 676,-254 686.44,-238.72 695.13,-219.5 700.81,-205.39"/>
<polygon fill="midnightblue" stroke="midnightblue" points="704.2,-206.34 704.55,-195.75 697.67,-203.81 704.2,-206.34"/>
</g>
<!-- Node18&#45;&gt;Node14 -->
<g id="edge39" class="edge">
<title>Node18&#45;&gt;Node14</title>
<path fill="none" stroke="midnightblue" d="M356.02,-406.49C312.9,-391.96 234.32,-360.71 183,-312 167.67,-297.45 154.19,-277.33 145.45,-262.76"/>
<polygon fill="midnightblue" stroke="midnightblue" points="148.24,-260.58 140.19,-253.69 142.18,-264.09 148.24,-260.58"/>
</g>
<!-- Node19 -->
<g id="node19" class="node">
<title>Node19</title>
<g id="a_node19"><a xlink:href="lexer_8h.html" target="_top" xlink:title=" ">
<polygon fill="white" stroke="black" points="478,-232.5 478,-253.5 530,-253.5 530,-232.5 478,-232.5"/>
<text text-anchor="middle" x="504" y="-239.9" font-family="DejaVuSans" font-size="12.00">lexer.h</text>
</a>
</g>
</g>
<!-- Node18&#45;&gt;Node19 -->
<g id="edge35" class="edge">
<title>Node18&#45;&gt;Node19</title>
<path fill="none" stroke="midnightblue" d="M393.63,-406.26C412.53,-378.47 466.94,-298.47 491.6,-262.23"/>
<polygon fill="midnightblue" stroke="midnightblue" points="494.72,-263.87 497.45,-253.63 488.93,-259.93 494.72,-263.87"/>
</g>
<!-- Node20 -->
<g id="node20" class="node">
<title>Node20</title>
<g id="a_node20"><a xlink:href="hyphen_8h.html" target="_top" xlink:title=" ">
<polygon fill="white" stroke="black" points="284,-348.5 284,-369.5 350,-369.5 350,-348.5 284,-348.5"/>
<text text-anchor="middle" x="317" y="-355.9" font-family="DejaVuSans" font-size="12.00">hyphen.h</text>
</a>
</g>
</g>
<!-- Node18&#45;&gt;Node20 -->
<g id="edge40" class="edge">
<title>Node18&#45;&gt;Node20</title>
<path fill="none" stroke="midnightblue" d="M374.81,-406.25C364.37,-397.89 349.13,-385.71 336.93,-375.94"/>
<polygon fill="midnightblue" stroke="midnightblue" points="339.05,-373.16 329.05,-369.64 334.68,-378.62 339.05,-373.16"/>
</g>
<!-- Node19&#45;&gt;Node4 -->
<g id="edge37" class="edge">
<title>Node19&#45;&gt;Node4</title>
<path fill="none" stroke="midnightblue" d="M508.6,-232.28C517.53,-213.43 537.34,-171.62 548.97,-147.05"/>
<polygon fill="midnightblue" stroke="midnightblue" points="552.29,-148.23 553.41,-137.69 545.96,-145.23 552.29,-148.23"/>
</g>
<!-- Node19&#45;&gt;Node12 -->
<g id="edge36" class="edge">
<title>Node19&#45;&gt;Node12</title>
<path fill="none" stroke="midnightblue" d="M530.25,-234.79C566.36,-224.88 631.49,-207 672.09,-195.86"/>
<polygon fill="midnightblue" stroke="midnightblue" points="673.13,-199.2 681.85,-193.18 671.28,-192.45 673.13,-199.2"/>
</g>
<!-- Node19&#45;&gt;Node13 -->
<g id="edge38" class="edge">
<title>Node19&#45;&gt;Node13</title>
<path fill="none" stroke="midnightblue" d="M483.89,-232.37C465.19,-223.42 437.13,-209.99 416.01,-199.88"/>
<polygon fill="midnightblue" stroke="midnightblue" points="417.38,-196.66 406.85,-195.5 414.36,-202.98 417.38,-196.66"/>
</g>
<!-- Node20&#45;&gt;Node3 -->
<g id="edge60" class="edge">
<title>Node20&#45;&gt;Node3</title>
<path fill="none" stroke="midnightblue" d="M350.23,-357.58C454.85,-355.91 776.16,-347.89 873,-312 914.18,-296.74 932.18,-292.67 953,-254 960.87,-239.39 961,-220.34 959.53,-206.12"/>
<polygon fill="midnightblue" stroke="midnightblue" points="962.95,-205.36 958.11,-195.93 956.02,-206.32 962.95,-205.36"/>
</g>
<!-- Node20&#45;&gt;Node4 -->
<g id="edge41" class="edge">
<title>Node20&#45;&gt;Node4</title>
<path fill="none" stroke="midnightblue" d="M283.96,-353.92C216.46,-343.87 71.5,-312.62 101,-232 112.59,-200.31 120.24,-189.91 150,-174 213.27,-140.19 429.27,-131.11 518.72,-128.77"/>
<polygon fill="midnightblue" stroke="midnightblue" points="518.82,-132.27 528.73,-128.53 518.65,-125.27 518.82,-132.27"/>
</g>
<!-- Node20&#45;&gt;Node13 -->
<g id="edge61" class="edge">
<title>Node20&#45;&gt;Node13</title>
<path fill="none" stroke="midnightblue" d="M320.96,-348.26C332.18,-320.71 364.28,-241.83 379.2,-205.17"/>
<polygon fill="midnightblue" stroke="midnightblue" points="382.55,-206.22 383.08,-195.63 376.07,-203.58 382.55,-206.22"/>
</g>
<!-- Node20&#45;&gt;Node14 -->
<g id="edge59" class="edge">
<title>Node20&#45;&gt;Node14</title>
<path fill="none" stroke="midnightblue" d="M290.4,-348.39C269.18,-340.17 239.13,-327.27 215,-312 191.39,-297.06 167.37,-275.63 151.9,-260.84"/>
<polygon fill="midnightblue" stroke="midnightblue" points="154.25,-258.24 144.63,-253.78 149.37,-263.26 154.25,-258.24"/>
</g>
<!-- Node21 -->
<g id="node21" class="node">
<title>Node21</title>
<g id="a_node21"><a xlink:href="mem_8h.html" target="_top" xlink:title=" ">
<polygon fill="white" stroke="black" points="254.5,-232.5 254.5,-253.5 307.5,-253.5 307.5,-232.5 254.5,-232.5"/>
<text text-anchor="middle" x="281" y="-239.9" font-family="DejaVuSans" font-size="12.00">mem.h</text>
</a>
</g>
</g>
<!-- Node20&#45;&gt;Node21 -->
<g id="edge42" class="edge">
<title>Node20&#45;&gt;Node21</title>
<path fill="none" stroke="midnightblue" d="M313.93,-348.28C308.01,-329.52 294.89,-288 287.12,-263.38"/>
<polygon fill="midnightblue" stroke="midnightblue" points="290.41,-262.18 284.06,-253.69 283.74,-264.28 290.41,-262.18"/>
</g>
<!-- Node22 -->
<g id="node22" class="node">
<title>Node22</title>
<g id="a_node22"><a xlink:href="box_8h.html" target="_top" xlink:title=" ">
<polygon fill="white" stroke="black" points="224,-290.5 224,-311.5 270,-311.5 270,-290.5 224,-290.5"/>
<text text-anchor="middle" x="247" y="-297.9" font-family="DejaVuSans" font-size="12.00">box.h</text>
</a>
</g>
</g>
<!-- Node20&#45;&gt;Node22 -->
<g id="edge45" class="edge">
<title>Node20&#45;&gt;Node22</title>
<path fill="none" stroke="midnightblue" d="M304.81,-348.25C294.37,-339.89 279.13,-327.71 266.93,-317.94"/>
<polygon fill="midnightblue" stroke="midnightblue" points="269.05,-315.16 259.05,-311.64 264.68,-320.62 269.05,-315.16"/>
</g>
<!-- Node24 -->
<g id="node24" class="node">
<title>Node24</title>
<g id="a_node24"><a xlink:href="fonts_8h.html" target="_top" xlink:title=" ">
<polygon fill="white" stroke="black" points="560,-290.5 560,-311.5 612,-311.5 612,-290.5 560,-290.5"/>
<text text-anchor="middle" x="586" y="-297.9" font-family="DejaVuSans" font-size="12.00">fonts.h</text>
</a>
</g>
</g>
<!-- Node20&#45;&gt;Node24 -->
<g id="edge51" class="edge">
<title>Node20&#45;&gt;Node24</title>
<path fill="none" stroke="midnightblue" d="M350.25,-351.08C400.99,-340.51 497.35,-320.45 549.79,-309.54"/>
<polygon fill="midnightblue" stroke="midnightblue" points="550.59,-312.95 559.67,-307.48 549.17,-306.09 550.59,-312.95"/>
</g>
<!-- Node21&#45;&gt;Node4 -->
<g id="edge43" class="edge">
<title>Node21&#45;&gt;Node4</title>
<path fill="none" stroke="midnightblue" d="M285.25,-232.33C292.39,-217.29 308.28,-188.51 331,-174 388.81,-137.08 470.38,-128.94 518.37,-127.61"/>
<polygon fill="midnightblue" stroke="midnightblue" points="518.72,-131.11 528.66,-127.42 518.59,-124.11 518.72,-131.11"/>
</g>
<!-- Node21&#45;&gt;Node13 -->
<g id="edge44" class="edge">
<title>Node21&#45;&gt;Node13</title>
<path fill="none" stroke="midnightblue" d="M299.46,-232.25C316.11,-223.45 340.8,-210.41 359.72,-200.41"/>
<polygon fill="midnightblue" stroke="midnightblue" points="361.54,-203.41 368.75,-195.64 358.27,-197.22 361.54,-203.41"/>
</g>
<!-- Node22&#45;&gt;Node4 -->
<g id="edge46" class="edge">
<title>Node22&#45;&gt;Node4</title>
<path fill="none" stroke="midnightblue" d="M238.33,-290.2C219,-267.15 176.42,-208.85 207,-174 227.35,-150.81 431.8,-135.69 518.96,-130.26"/>
<polygon fill="midnightblue" stroke="midnightblue" points="519.23,-133.75 528.99,-129.64 518.8,-126.76 519.23,-133.75"/>
</g>
<!-- Node22&#45;&gt;Node15 -->
<g id="edge50" class="edge">
<title>Node22&#45;&gt;Node15</title>
<path fill="none" stroke="midnightblue" d="M270.29,-297.91C366.5,-289.26 733,-256.32 840.31,-246.67"/>
<polygon fill="midnightblue" stroke="midnightblue" points="840.78,-250.14 850.43,-245.76 840.15,-243.17 840.78,-250.14"/>
</g>
<!-- Node22&#45;&gt;Node21 -->
<g id="edge47" class="edge">
<title>Node22&#45;&gt;Node21</title>
<path fill="none" stroke="midnightblue" d="M252.92,-290.25C257.6,-282.54 264.27,-271.56 269.93,-262.23"/>
<polygon fill="midnightblue" stroke="midnightblue" points="272.95,-264.01 275.15,-253.64 266.96,-260.37 272.95,-264.01"/>
</g>
<!-- Node23 -->
<g id="node23" class="node">
<title>Node23</title>
<g id="a_node23"><a xlink:href="texmath_8h.html" target="_top" xlink:title=" ">
<polygon fill="white" stroke="black" points="216,-174.5 216,-195.5 284,-195.5 284,-174.5 216,-174.5"/>
<text text-anchor="middle" x="250" y="-181.9" font-family="DejaVuSans" font-size="12.00">texmath.h</text>
</a>
</g>
</g>
<!-- Node22&#45;&gt;Node23 -->
<g id="edge48" class="edge">
<title>Node22&#45;&gt;Node23</title>
<path fill="none" stroke="midnightblue" d="M246.21,-290.31C245.24,-277.11 243.88,-252.76 245,-232 245.47,-223.4 246.42,-213.93 247.37,-205.83"/>
<polygon fill="midnightblue" stroke="midnightblue" points="250.85,-206.2 248.62,-195.85 243.9,-205.33 250.85,-206.2"/>
</g>
<!-- Node23&#45;&gt;Node4 -->
<g id="edge49" class="edge">
<title>Node23&#45;&gt;Node4</title>
<path fill="none" stroke="midnightblue" d="M284.06,-176.77C288.74,-175.82 293.49,-174.87 298,-174 376.12,-158.96 467.81,-143.17 518.77,-134.56"/>
<polygon fill="midnightblue" stroke="midnightblue" points="519.42,-138 528.7,-132.89 518.26,-131.1 519.42,-138"/>
</g>
<!-- Node24&#45;&gt;Node4 -->
<g id="edge53" class="edge">
<title>Node24&#45;&gt;Node4</title>
<path fill="none" stroke="midnightblue" d="M583.94,-290.15C582.03,-280.85 579.17,-266.51 577,-254 570.49,-216.38 564.12,-172.23 560.66,-147.44"/>
<polygon fill="midnightblue" stroke="midnightblue" points="564.13,-146.93 559.29,-137.51 557.19,-147.89 564.13,-146.93"/>
</g>
<!-- Node24&#45;&gt;Node12 -->
<g id="edge52" class="edge">
<title>Node24&#45;&gt;Node12</title>
<path fill="none" stroke="midnightblue" d="M601.82,-290.44C615.53,-281.79 635.55,-268.24 651,-254 667.7,-238.61 684.07,-218.4 694.95,-204.02"/>
<polygon fill="midnightblue" stroke="midnightblue" points="697.81,-206.03 700.97,-195.92 692.19,-201.86 697.81,-206.03"/>
</g>
<!-- Node24&#45;&gt;Node13 -->
<g id="edge54" class="edge">
<title>Node24&#45;&gt;Node13</title>
<path fill="none" stroke="midnightblue" d="M559.64,-297.12C513.22,-291.5 419.71,-277.51 398,-254 386.23,-241.26 384.27,-221.13 384.78,-206.07"/>
<polygon fill="midnightblue" stroke="midnightblue" points="388.29,-205.98 385.52,-195.75 381.31,-205.47 388.29,-205.98"/>
</g>
<!-- Node24&#45;&gt;Node15 -->
<g id="edge55" class="edge">
<title>Node24&#45;&gt;Node15</title>
<path fill="none" stroke="midnightblue" d="M612.21,-294.83C665.23,-284.38 784.89,-260.78 840.53,-249.81"/>
<polygon fill="midnightblue" stroke="midnightblue" points="841.32,-253.22 850.45,-247.85 839.96,-246.36 841.32,-253.22"/>
</g>
<!-- Node24&#45;&gt;Node25 -->
<g id="edge56" class="edge">
<title>Node24&#45;&gt;Node25</title>
<path fill="none" stroke="midnightblue" d="M590.88,-290.25C594.65,-282.7 599.99,-272.02 604.59,-262.82"/>
<polygon fill="midnightblue" stroke="midnightblue" points="607.84,-264.15 609.18,-253.64 601.58,-261.02 607.84,-264.15"/>
</g>
<!-- Node25&#45;&gt;Node4 -->
<g id="edge58" class="edge">
<title>Node25&#45;&gt;Node4</title>
<path fill="none" stroke="midnightblue" d="M609.23,-232.28C599.93,-213.35 579.25,-171.25 567.2,-146.72"/>
<polygon fill="midnightblue" stroke="midnightblue" points="570.31,-145.13 562.76,-137.69 564.03,-148.21 570.31,-145.13"/>
</g>
<!-- Node25&#45;&gt;Node12 -->
<g id="edge57" class="edge">
<title>Node25&#45;&gt;Node12</title>
<path fill="none" stroke="midnightblue" d="M630.37,-232.25C644.93,-223.57 666.43,-210.76 683.12,-200.82"/>
<polygon fill="midnightblue" stroke="midnightblue" points="685.01,-203.77 691.81,-195.64 681.43,-197.75 685.01,-203.77"/>
</g>
</g>
</svg>
