<?xml version="1.0" encoding="UTF-8" standalone="no"?>
<!DOCTYPE svg PUBLIC "-//W3C//DTD SVG 1.1//EN"
 "http://www.w3.org/Graphics/SVG/1.1/DTD/svg11.dtd">
<!-- Generated by graphviz version 2.42.3 ()
 -->
<!-- Title: pure_func.h Pages: 1 -->
<svg width="261pt" height="146pt"
 viewBox="0.00 0.00 260.50 146.00" xmlns="http://www.w3.org/2000/svg" xmlns:xlink="http://www.w3.org/1999/xlink">
<g id="graph0" class="graph" transform="scale(1 1) rotate(0) translate(4 142)">
<title>pure_func.h</title>
<polygon fill="white" stroke="transparent" points="-4,4 -4,-142 256.5,-142 256.5,4 -4,4"/>
<!-- Node1 -->
<g id="node1" class="node">
<title>Node1</title>
<g id="a_node1"><a xlink:title=" ">
<polygon fill="#bfbfbf" stroke="black" points="68.5,-116.5 68.5,-137.5 148.5,-137.5 148.5,-116.5 68.5,-116.5"/>
<text text-anchor="middle" x="108.5" y="-123.9" font-family="DejaVuSans" font-size="12.00">pure_func.h</text>
</a>
</g>
</g>
<!-- Node2 -->
<g id="node2" class="node">
<title>Node2</title>
<g id="a_node2"><a xlink:href="lexer_8c.html" target="_top" xlink:title=" ">
<polygon fill="white" stroke="black" points="0,-58.5 0,-79.5 51,-79.5 51,-58.5 0,-58.5"/>
<text text-anchor="middle" x="25.5" y="-65.9" font-family="DejaVuSans" font-size="12.00">lexer.c</text>
</a>
</g>
</g>
<!-- Node1&#45;&gt;Node2 -->
<g id="edge1" class="edge">
<title>Node1&#45;&gt;Node2</title>
<path fill="none" stroke="midnightblue" d="M85.51,-110.49C70.87,-100.61 52.36,-88.12 39.79,-79.64"/>
<polygon fill="midnightblue" stroke="midnightblue" points="83.8,-113.55 94.04,-116.25 87.71,-107.75 83.8,-113.55"/>
</g>
<!-- Node3 -->
<g id="node3" class="node">
<title>Node3</title>
<g id="a_node3"><a xlink:href="pure__func_8c.html" target="_top" xlink:title=" ">
<polygon fill="white" stroke="black" points="69,-58.5 69,-79.5 148,-79.5 148,-58.5 69,-58.5"/>
<text text-anchor="middle" x="108.5" y="-65.9" font-family="DejaVuSans" font-size="12.00">pure_func.c</text>
</a>
</g>
</g>
<!-- Node1&#45;&gt;Node3 -->
<g id="edge2" class="edge">
<title>Node1&#45;&gt;Node3</title>
<path fill="none" stroke="midnightblue" d="M108.5,-106.16C108.5,-97.16 108.5,-86.92 108.5,-79.64"/>
<polygon fill="midnightblue" stroke="midnightblue" points="105,-106.25 108.5,-116.25 112,-106.25 105,-106.25"/>
</g>
<!-- Node4 -->
<g id="node4" class="node">
<title>Node4</title>
<g id="a_node4"><a xlink:href="tex__header_8h.html" target="_top" xlink:title=" ">
<polygon fill="white" stroke="black" points="166.5,-58.5 166.5,-79.5 252.5,-79.5 252.5,-58.5 166.5,-58.5"/>
<text text-anchor="middle" x="209.5" y="-65.9" font-family="DejaVuSans" font-size="12.00">tex_header.h</text>
</a>
</g>
</g>
<!-- Node1&#45;&gt;Node4 -->
<g id="edge3" class="edge">
<title>Node1&#45;&gt;Node4</title>
<path fill="none" stroke="midnightblue" d="M134.97,-111.32C153.01,-101.32 176.39,-88.36 192.11,-79.64"/>
<polygon fill="midnightblue" stroke="midnightblue" points="133.14,-108.34 126.09,-116.25 136.54,-114.46 133.14,-108.34"/>
</g>
<!-- Node5 -->
<g id="node5" class="node">
<title>Node5</title>
<g id="a_node5"><a xlink:href="tex_8c.html" target="_top" xlink:title=" ">
<polygon fill="white" stroke="black" points="189,-0.5 189,-21.5 230,-21.5 230,-0.5 189,-0.5"/>
<text text-anchor="middle" x="209.5" y="-7.9" font-family="DejaVuSans" font-size="12.00">tex.c</text>
</a>
</g>
</g>
<!-- Node4&#45;&gt;Node5 -->
<g id="edge4" class="edge">
<title>Node4&#45;&gt;Node5</title>
<path fill="none" stroke="midnightblue" d="M209.5,-48.16C209.5,-39.16 209.5,-28.92 209.5,-21.64"/>
<polygon fill="midnightblue" stroke="midnightblue" points="206,-48.25 209.5,-58.25 213,-48.25 206,-48.25"/>
</g>
</g>
</svg>
