<?xml version="1.0" encoding="UTF-8" standalone="no"?>
<!DOCTYPE svg PUBLIC "-//W3C//DTD SVG 1.1//EN"
 "http://www.w3.org/Graphics/SVG/1.1/DTD/svg11.dtd">
<!-- Generated by graphviz version 2.44.0 ()
 -->
<!-- Title: scan.h Pages: 1 -->
<svg width="386pt" height="320pt"
 viewBox="0.00 0.00 386.00 320.00" xmlns="http://www.w3.org/2000/svg" xmlns:xlink="http://www.w3.org/1999/xlink">
<g id="graph0" class="graph" transform="scale(1 1) rotate(0) translate(4 316)">
<title>scan.h</title>
<polygon fill="white" stroke="transparent" points="-4,4 -4,-316 382,-316 382,4 -4,4"/>
<!-- Node1 -->
<g id="node1" class="node">
<title>Node1</title>
<g id="a_node1"><a xlink:title=" ">
<polygon fill="#bfbfbf" stroke="black" points="82.5,-290.5 82.5,-311.5 134.5,-311.5 134.5,-290.5 82.5,-290.5"/>
<text text-anchor="middle" x="108.5" y="-297.9" font-family="DejaVuSans" font-size="12.00">scan.h</text>
</a>
</g>
</g>
<!-- Node2 -->
<g id="node2" class="node">
<title>Node2</title>
<g id="a_node2"><a xlink:href="global_8h.html" target="_top" xlink:title=" ">
<polygon fill="white" stroke="black" points="134.5,-116.5 134.5,-137.5 192.5,-137.5 192.5,-116.5 134.5,-116.5"/>
<text text-anchor="middle" x="163.5" y="-123.9" font-family="DejaVuSans" font-size="12.00">global.h</text>
</a>
</g>
</g>
<!-- Node1&#45;&gt;Node2 -->
<g id="edge1" class="edge">
<title>Node1&#45;&gt;Node2</title>
<path fill="none" stroke="midnightblue" d="M97.94,-290.21C89.5,-281.6 78.31,-268.26 73.5,-254 70.38,-244.73 70.49,-241.3 73.5,-232 85.64,-194.54 119.49,-162.18 142.04,-143.9"/>
<polygon fill="midnightblue" stroke="midnightblue" points="144.36,-146.53 150.06,-137.6 140.04,-141.02 144.36,-146.53"/>
</g>
<!-- Node10 -->
<g id="node10" class="node">
<title>Node10</title>
<g id="a_node10"><a xlink:href="lexer_8h.html" target="_top" xlink:title=" ">
<polygon fill="white" stroke="black" points="82.5,-232.5 82.5,-253.5 134.5,-253.5 134.5,-232.5 82.5,-232.5"/>
<text text-anchor="middle" x="108.5" y="-239.9" font-family="DejaVuSans" font-size="12.00">lexer.h</text>
</a>
</g>
</g>
<!-- Node1&#45;&gt;Node10 -->
<g id="edge9" class="edge">
<title>Node1&#45;&gt;Node10</title>
<path fill="none" stroke="midnightblue" d="M108.5,-290.25C108.5,-282.94 108.5,-272.69 108.5,-263.7"/>
<polygon fill="midnightblue" stroke="midnightblue" points="112,-263.64 108.5,-253.64 105,-263.64 112,-263.64"/>
</g>
<!-- Node13 -->
<g id="node13" class="node">
<title>Node13</title>
<g id="a_node13"><a xlink:href="str_8h.html" target="_top" xlink:title=" ">
<polygon fill="white" stroke="black" points="197,-232.5 197,-253.5 236,-253.5 236,-232.5 197,-232.5"/>
<text text-anchor="middle" x="216.5" y="-239.9" font-family="DejaVuSans" font-size="12.00">str.h</text>
</a>
</g>
</g>
<!-- Node1&#45;&gt;Node13 -->
<g id="edge14" class="edge">
<title>Node1&#45;&gt;Node13</title>
<path fill="none" stroke="midnightblue" d="M127.31,-290.25C144.35,-281.41 169.66,-268.29 188.97,-258.28"/>
<polygon fill="midnightblue" stroke="midnightblue" points="190.64,-261.35 197.9,-253.64 187.41,-255.14 190.64,-261.35"/>
</g>
<!-- Node3 -->
<g id="node3" class="node">
<title>Node3</title>
<g id="a_node3"><a xlink:href="global__macros_8h.html" target="_top" xlink:title=" ">
<polygon fill="white" stroke="black" points="111.5,-58.5 111.5,-79.5 215.5,-79.5 215.5,-58.5 111.5,-58.5"/>
<text text-anchor="middle" x="163.5" y="-65.9" font-family="DejaVuSans" font-size="12.00">global_macros.h</text>
</a>
</g>
</g>
<!-- Node2&#45;&gt;Node3 -->
<g id="edge2" class="edge">
<title>Node2&#45;&gt;Node3</title>
<path fill="none" stroke="midnightblue" d="M163.5,-116.25C163.5,-108.94 163.5,-98.69 163.5,-89.7"/>
<polygon fill="midnightblue" stroke="midnightblue" points="167,-89.64 163.5,-79.64 160,-89.64 167,-89.64"/>
</g>
<!-- Node5 -->
<g id="node5" class="node">
<title>Node5</title>
<g id="a_node5"><a xlink:href="global__const_8h.html" target="_top" xlink:title=" ">
<polygon fill="white" stroke="black" points="0,-58.5 0,-79.5 93,-79.5 93,-58.5 0,-58.5"/>
<text text-anchor="middle" x="46.5" y="-65.9" font-family="DejaVuSans" font-size="12.00">global_const.h</text>
</a>
</g>
</g>
<!-- Node2&#45;&gt;Node5 -->
<g id="edge4" class="edge">
<title>Node2&#45;&gt;Node5</title>
<path fill="none" stroke="midnightblue" d="M143.39,-116.37C124.69,-107.42 96.63,-93.99 75.51,-83.88"/>
<polygon fill="midnightblue" stroke="midnightblue" points="76.88,-80.66 66.35,-79.5 73.86,-86.98 76.88,-80.66"/>
</g>
<!-- Node6 -->
<g id="node6" class="node">
<title>Node6</title>
<g id="a_node6"><a xlink:href="tex__types_8h.html" target="_top" xlink:title=" ">
<polygon fill="white" stroke="black" points="234,-58.5 234,-79.5 311,-79.5 311,-58.5 234,-58.5"/>
<text text-anchor="middle" x="272.5" y="-65.9" font-family="DejaVuSans" font-size="12.00">tex_types.h</text>
</a>
</g>
</g>
<!-- Node2&#45;&gt;Node6 -->
<g id="edge5" class="edge">
<title>Node2&#45;&gt;Node6</title>
<path fill="none" stroke="midnightblue" d="M182.49,-116.25C199.68,-107.41 225.22,-94.29 244.71,-84.28"/>
<polygon fill="midnightblue" stroke="midnightblue" points="246.44,-87.33 253.73,-79.64 243.24,-81.1 246.44,-87.33"/>
</g>
<!-- Node4 -->
<g id="node4" class="node">
<title>Node4</title>
<g id="a_node4"><a xlink:title=" ">
<polygon fill="white" stroke="#bfbfbf" points="86,-0.5 86,-21.5 145,-21.5 145,-0.5 86,-0.5"/>
<text text-anchor="middle" x="115.5" y="-7.9" font-family="DejaVuSans" font-size="12.00">assert.h</text>
</a>
</g>
</g>
<!-- Node3&#45;&gt;Node4 -->
<g id="edge3" class="edge">
<title>Node3&#45;&gt;Node4</title>
<path fill="none" stroke="midnightblue" d="M155.14,-58.25C148.32,-50.3 138.53,-38.87 130.38,-29.37"/>
<polygon fill="midnightblue" stroke="midnightblue" points="132.93,-26.96 123.77,-21.64 127.62,-31.51 132.93,-26.96"/>
</g>
<!-- Node7 -->
<g id="node7" class="node">
<title>Node7</title>
<g id="a_node7"><a xlink:title=" ">
<polygon fill="white" stroke="#bfbfbf" points="240,-0.5 240,-21.5 305,-21.5 305,-0.5 240,-0.5"/>
<text text-anchor="middle" x="272.5" y="-7.9" font-family="DejaVuSans" font-size="12.00">stdbool.h</text>
</a>
</g>
</g>
<!-- Node6&#45;&gt;Node7 -->
<g id="edge6" class="edge">
<title>Node6&#45;&gt;Node7</title>
<path fill="none" stroke="midnightblue" d="M272.5,-58.25C272.5,-50.94 272.5,-40.69 272.5,-31.7"/>
<polygon fill="midnightblue" stroke="midnightblue" points="276,-31.64 272.5,-21.64 269,-31.64 276,-31.64"/>
</g>
<!-- Node8 -->
<g id="node8" class="node">
<title>Node8</title>
<g id="a_node8"><a xlink:title=" ">
<polygon fill="white" stroke="#bfbfbf" points="323,-0.5 323,-21.5 378,-21.5 378,-0.5 323,-0.5"/>
<text text-anchor="middle" x="350.5" y="-7.9" font-family="DejaVuSans" font-size="12.00">stdint.h</text>
</a>
</g>
</g>
<!-- Node6&#45;&gt;Node8 -->
<g id="edge7" class="edge">
<title>Node6&#45;&gt;Node8</title>
<path fill="none" stroke="midnightblue" d="M286.09,-58.25C297.83,-49.81 315.02,-37.47 328.69,-27.66"/>
<polygon fill="midnightblue" stroke="midnightblue" points="330.99,-30.32 337.07,-21.64 326.9,-24.63 330.99,-30.32"/>
</g>
<!-- Node9 -->
<g id="node9" class="node">
<title>Node9</title>
<g id="a_node9"><a xlink:title=" ">
<polygon fill="white" stroke="#bfbfbf" points="163,-0.5 163,-21.5 222,-21.5 222,-0.5 163,-0.5"/>
<text text-anchor="middle" x="192.5" y="-7.9" font-family="DejaVuSans" font-size="12.00">stddef.h</text>
</a>
</g>
</g>
<!-- Node6&#45;&gt;Node9 -->
<g id="edge8" class="edge">
<title>Node6&#45;&gt;Node9</title>
<path fill="none" stroke="midnightblue" d="M258.57,-58.25C246.41,-49.73 228.55,-37.24 214.47,-27.38"/>
<polygon fill="midnightblue" stroke="midnightblue" points="216.47,-24.51 206.28,-21.64 212.46,-30.24 216.47,-24.51"/>
</g>
<!-- Node10&#45;&gt;Node2 -->
<g id="edge11" class="edge">
<title>Node10&#45;&gt;Node2</title>
<path fill="none" stroke="midnightblue" d="M109.97,-232.33C112.31,-218.74 117.65,-193.47 127.5,-174 132.66,-163.79 140.27,-153.65 147.16,-145.49"/>
<polygon fill="midnightblue" stroke="midnightblue" points="149.96,-147.61 153.95,-137.8 144.71,-142.98 149.96,-147.61"/>
</g>
<!-- Node11 -->
<g id="node11" class="node">
<title>Node11</title>
<g id="a_node11"><a xlink:title=" ">
<polygon fill="white" stroke="#bfbfbf" points="136.5,-174.5 136.5,-195.5 188.5,-195.5 188.5,-174.5 136.5,-174.5"/>
<text text-anchor="middle" x="162.5" y="-181.9" font-family="DejaVuSans" font-size="12.00">stdio.h</text>
</a>
</g>
</g>
<!-- Node10&#45;&gt;Node11 -->
<g id="edge10" class="edge">
<title>Node10&#45;&gt;Node11</title>
<path fill="none" stroke="midnightblue" d="M117.91,-232.25C125.65,-224.22 136.81,-212.64 146.03,-203.08"/>
<polygon fill="midnightblue" stroke="midnightblue" points="148.78,-205.27 153.2,-195.64 143.74,-200.41 148.78,-205.27"/>
</g>
<!-- Node12 -->
<g id="node12" class="node">
<title>Node12</title>
<g id="a_node12"><a xlink:href="tex__constant_8h.html" target="_top" xlink:title=" ">
<polygon fill="white" stroke="black" points="11.5,-116.5 11.5,-137.5 105.5,-137.5 105.5,-116.5 11.5,-116.5"/>
<text text-anchor="middle" x="58.5" y="-123.9" font-family="DejaVuSans" font-size="12.00">tex_constant.h</text>
</a>
</g>
</g>
<!-- Node10&#45;&gt;Node12 -->
<g id="edge12" class="edge">
<title>Node10&#45;&gt;Node12</title>
<path fill="none" stroke="midnightblue" d="M104.24,-232.28C95.97,-213.43 77.63,-171.62 66.86,-147.05"/>
<polygon fill="midnightblue" stroke="midnightblue" points="69.97,-145.45 62.75,-137.69 63.56,-148.26 69.97,-145.45"/>
</g>
<!-- Node12&#45;&gt;Node5 -->
<g id="edge13" class="edge">
<title>Node12&#45;&gt;Node5</title>
<path fill="none" stroke="midnightblue" d="M56.41,-116.25C54.84,-108.94 52.65,-98.69 50.72,-89.7"/>
<polygon fill="midnightblue" stroke="midnightblue" points="54.08,-88.69 48.57,-79.64 47.24,-90.15 54.08,-88.69"/>
</g>
<!-- Node13&#45;&gt;Node2 -->
<g id="edge17" class="edge">
<title>Node13&#45;&gt;Node2</title>
<path fill="none" stroke="midnightblue" d="M214.95,-232.37C212.52,-218.82 207.08,-193.6 197.5,-174 192.52,-163.8 185.21,-153.54 178.64,-145.31"/>
<polygon fill="midnightblue" stroke="midnightblue" points="181.28,-143 172.19,-137.54 175.89,-147.47 181.28,-143"/>
</g>
<!-- Node13&#45;&gt;Node8 -->
<g id="edge16" class="edge">
<title>Node13&#45;&gt;Node8</title>
<path fill="none" stroke="midnightblue" d="M236.24,-238.91C259.93,-234.11 299,-222.48 319.5,-196 357.44,-147 355.99,-68.49 352.83,-31.93"/>
<polygon fill="midnightblue" stroke="midnightblue" points="356.28,-31.22 351.79,-21.63 349.31,-31.93 356.28,-31.22"/>
</g>
<!-- Node13&#45;&gt;Node11 -->
<g id="edge15" class="edge">
<title>Node13&#45;&gt;Node11</title>
<path fill="none" stroke="midnightblue" d="M207.09,-232.25C199.35,-224.22 188.19,-212.64 178.97,-203.08"/>
<polygon fill="midnightblue" stroke="midnightblue" points="181.26,-200.41 171.8,-195.64 176.22,-205.27 181.26,-200.41"/>
</g>
<!-- Node14 -->
<g id="node14" class="node">
<title>Node14</title>
<g id="a_node14"><a xlink:href="charset_8h.html" target="_top" xlink:title=" ">
<polygon fill="white" stroke="black" points="245,-174.5 245,-195.5 310,-195.5 310,-174.5 245,-174.5"/>
<text text-anchor="middle" x="277.5" y="-181.9" font-family="DejaVuSans" font-size="12.00">charset.h</text>
</a>
</g>
</g>
<!-- Node13&#45;&gt;Node14 -->
<g id="edge18" class="edge">
<title>Node13&#45;&gt;Node14</title>
<path fill="none" stroke="midnightblue" d="M227.13,-232.25C236.05,-224.05 248.99,-212.17 259.52,-202.51"/>
<polygon fill="midnightblue" stroke="midnightblue" points="262,-204.98 267,-195.64 257.26,-199.83 262,-204.98"/>
</g>
<!-- Node14&#45;&gt;Node2 -->
<g id="edge19" class="edge">
<title>Node14&#45;&gt;Node2</title>
<path fill="none" stroke="midnightblue" d="M257.9,-174.37C239.77,-165.46 212.59,-152.11 192.04,-142.02"/>
<polygon fill="midnightblue" stroke="midnightblue" points="193.36,-138.77 182.84,-137.5 190.27,-145.05 193.36,-138.77"/>
</g>
</g>
</svg>
