<?xml version="1.0" encoding="UTF-8" standalone="no"?>
<!DOCTYPE svg PUBLIC "-//W3C//DTD SVG 1.1//EN"
 "http://www.w3.org/Graphics/SVG/1.1/DTD/svg11.dtd">
<!-- Generated by graphviz version 2.44.0 ()
 -->
<!-- Title: scan.h Pages: 1 -->
<svg width="1539pt" height="378pt"
 viewBox="0.00 0.00 1539.00 378.00" xmlns="http://www.w3.org/2000/svg" xmlns:xlink="http://www.w3.org/1999/xlink">
<g id="graph0" class="graph" transform="scale(1 1) rotate(0) translate(4 374)">
<title>scan.h</title>
<polygon fill="white" stroke="transparent" points="-4,4 -4,-374 1535,-374 1535,4 -4,4"/>
<!-- Node1 -->
<g id="node1" class="node">
<title>Node1</title>
<g id="a_node1"><a xlink:title=" ">
<polygon fill="#bfbfbf" stroke="black" points="240,-348.5 240,-369.5 292,-369.5 292,-348.5 240,-348.5"/>
<text text-anchor="middle" x="266" y="-355.9" font-family="DejaVuSans" font-size="12.00">scan.h</text>
</a>
</g>
</g>
<!-- Node2 -->
<g id="node2" class="node">
<title>Node2</title>
<g id="a_node2"><a xlink:href="expand_8c.html" target="_top" xlink:title=" ">
<polygon fill="white" stroke="black" points="119.5,-58.5 119.5,-79.5 184.5,-79.5 184.5,-58.5 119.5,-58.5"/>
<text text-anchor="middle" x="152" y="-65.9" font-family="DejaVuSans" font-size="12.00">expand.c</text>
</a>
</g>
</g>
<!-- Node1&#45;&gt;Node2 -->
<g id="edge1" class="edge">
<title>Node1&#45;&gt;Node2</title>
<path fill="none" stroke="midnightblue" d="M257.04,-339.07C253.21,-330.81 248.77,-320.98 245,-312 207.53,-222.78 167.4,-112.73 155.51,-79.77"/>
<polygon fill="midnightblue" stroke="midnightblue" points="253.91,-340.63 261.32,-348.21 260.25,-337.67 253.91,-340.63"/>
</g>
<!-- Node3 -->
<g id="node3" class="node">
<title>Node3</title>
<g id="a_node3"><a xlink:href="global_8h.html" target="_top" xlink:title=" ">
<polygon fill="white" stroke="black" points="1061,-290.5 1061,-311.5 1119,-311.5 1119,-290.5 1061,-290.5"/>
<text text-anchor="middle" x="1090" y="-297.9" font-family="DejaVuSans" font-size="12.00">global.h</text>
</a>
</g>
</g>
<!-- Node1&#45;&gt;Node3 -->
<g id="edge2" class="edge">
<title>Node1&#45;&gt;Node3</title>
<path fill="none" stroke="midnightblue" d="M302.09,-355.55C440.31,-346.15 934.58,-312.56 1060.59,-304"/>
<polygon fill="midnightblue" stroke="midnightblue" points="301.76,-352.06 292.02,-356.23 302.24,-359.05 301.76,-352.06"/>
</g>
<!-- Node7 -->
<g id="node7" class="node">
<title>Node7</title>
<g id="a_node7"><a xlink:href="hash_8c.html" target="_top" xlink:title=" ">
<polygon fill="white" stroke="black" points="31,-58.5 31,-79.5 83,-79.5 83,-58.5 31,-58.5"/>
<text text-anchor="middle" x="57" y="-65.9" font-family="DejaVuSans" font-size="12.00">hash.c</text>
</a>
</g>
</g>
<!-- Node1&#45;&gt;Node7 -->
<g id="edge61" class="edge">
<title>Node1&#45;&gt;Node7</title>
<path fill="none" stroke="midnightblue" d="M229.4,-358.38C156.47,-357.04 0,-342.65 0,-244 0,-244 0,-244 0,-184 0,-141.29 32.4,-98.19 48.34,-79.55"/>
<polygon fill="midnightblue" stroke="midnightblue" points="229.48,-361.89 239.52,-358.5 229.56,-354.89 229.48,-361.89"/>
</g>
<!-- Node21 -->
<g id="node21" class="node">
<title>Node21</title>
<g id="a_node21"><a xlink:href="pack_8c.html" target="_top" xlink:title=" ">
<polygon fill="white" stroke="black" points="1470.5,-58.5 1470.5,-79.5 1521.5,-79.5 1521.5,-58.5 1470.5,-58.5"/>
<text text-anchor="middle" x="1496" y="-65.9" font-family="DejaVuSans" font-size="12.00">pack.c</text>
</a>
</g>
</g>
<!-- Node1&#45;&gt;Node21 -->
<g id="edge62" class="edge">
<title>Node1&#45;&gt;Node21</title>
<path fill="none" stroke="midnightblue" d="M302.7,-357.72C465.02,-356.3 1119.27,-348.37 1321,-312 1417.55,-294.59 1531,-342.1 1531,-244 1531,-244 1531,-244 1531,-184 1531,-143.84 1510.9,-99.08 1501.16,-79.75"/>
<polygon fill="midnightblue" stroke="midnightblue" points="302.27,-354.23 292.3,-357.81 302.33,-361.23 302.27,-354.23"/>
</g>
<!-- Node22 -->
<g id="node22" class="node">
<title>Node22</title>
<g id="a_node22"><a xlink:href="scan_8c.html" target="_top" xlink:title=" ">
<polygon fill="white" stroke="black" points="1401.5,-58.5 1401.5,-79.5 1452.5,-79.5 1452.5,-58.5 1401.5,-58.5"/>
<text text-anchor="middle" x="1427" y="-65.9" font-family="DejaVuSans" font-size="12.00">scan.c</text>
</a>
</g>
</g>
<!-- Node1&#45;&gt;Node22 -->
<g id="edge64" class="edge">
<title>Node1&#45;&gt;Node22</title>
<path fill="none" stroke="midnightblue" d="M302.24,-358.3C497.67,-359.47 1417,-358.86 1417,-244 1417,-244 1417,-244 1417,-184 1417,-145.26 1422.8,-99.39 1425.57,-79.73"/>
<polygon fill="midnightblue" stroke="midnightblue" points="302.23,-354.8 292.2,-358.24 302.18,-361.8 302.23,-354.8"/>
</g>
<!-- Node23 -->
<g id="node23" class="node">
<title>Node23</title>
<g id="a_node23"><a xlink:href="tex__header_8h.html" target="_top" xlink:title=" ">
<polygon fill="white" stroke="black" points="356,-58.5 356,-79.5 442,-79.5 442,-58.5 356,-58.5"/>
<text text-anchor="middle" x="399" y="-65.9" font-family="DejaVuSans" font-size="12.00">tex_header.h</text>
</a>
</g>
</g>
<!-- Node1&#45;&gt;Node23 -->
<g id="edge65" class="edge">
<title>Node1&#45;&gt;Node23</title>
<path fill="none" stroke="midnightblue" d="M266,-338.15C266,-315.41 266,-277.02 266,-244 266,-244 266,-244 266,-184 266,-152.62 264.08,-139.39 285,-116 303.29,-95.56 331.94,-84.05 355.94,-77.66"/>
<polygon fill="midnightblue" stroke="midnightblue" points="262.5,-338.24 266,-348.24 269.5,-338.24 262.5,-338.24"/>
</g>
<!-- Node28 -->
<g id="node28" class="node">
<title>Node28</title>
<g id="a_node28"><a xlink:href="printout_8c.html" target="_top" xlink:title=" ">
<polygon fill="white" stroke="black" points="202.5,-58.5 202.5,-79.5 267.5,-79.5 267.5,-58.5 202.5,-58.5"/>
<text text-anchor="middle" x="235" y="-65.9" font-family="DejaVuSans" font-size="12.00">printout.c</text>
</a>
</g>
</g>
<!-- Node1&#45;&gt;Node28 -->
<g id="edge63" class="edge">
<title>Node1&#45;&gt;Node28</title>
<path fill="none" stroke="midnightblue" d="M259.05,-338.65C256.41,-330.52 253.65,-320.9 252,-312 235.54,-222.96 234.74,-112.79 234.9,-79.78"/>
<polygon fill="midnightblue" stroke="midnightblue" points="255.8,-339.96 262.34,-348.29 262.42,-337.69 255.8,-339.96"/>
</g>
<!-- Node3&#45;&gt;Node2 -->
<g id="edge5" class="edge">
<title>Node3&#45;&gt;Node2</title>
<path fill="none" stroke="midnightblue" d="M1050.44,-300.33C933.6,-300.14 581.28,-291.15 310,-196 261.88,-179.12 250.23,-170.58 211,-138 189.36,-120.03 168.98,-93.71 158.79,-79.67"/>
<polygon fill="midnightblue" stroke="midnightblue" points="1050.69,-303.83 1060.69,-300.33 1050.68,-296.83 1050.69,-303.83"/>
</g>
<!-- Node4 -->
<g id="node4" class="node">
<title>Node4</title>
<g id="a_node4"><a xlink:href="eqtb_8c.html" target="_top" xlink:title=" ">
<polygon fill="white" stroke="black" points="967.5,-58.5 967.5,-79.5 1016.5,-79.5 1016.5,-58.5 967.5,-58.5"/>
<text text-anchor="middle" x="992" y="-65.9" font-family="DejaVuSans" font-size="12.00">eqtb.c</text>
</a>
</g>
</g>
<!-- Node3&#45;&gt;Node4 -->
<g id="edge3" class="edge">
<title>Node3&#45;&gt;Node4</title>
<path fill="none" stroke="midnightblue" d="M1081.17,-281.02C1077.36,-272.75 1072.9,-262.92 1069,-254 1040,-187.69 1007.03,-107.01 995.9,-79.62"/>
<polygon fill="midnightblue" stroke="midnightblue" points="1078.03,-282.56 1085.4,-290.17 1084.38,-279.62 1078.03,-282.56"/>
</g>
<!-- Node5 -->
<g id="node5" class="node">
<title>Node5</title>
<g id="a_node5"><a xlink:href="error_8c.html" target="_top" xlink:title=" ">
<polygon fill="white" stroke="black" points="1035,-58.5 1035,-79.5 1085,-79.5 1085,-58.5 1035,-58.5"/>
<text text-anchor="middle" x="1060" y="-65.9" font-family="DejaVuSans" font-size="12.00">error.c</text>
</a>
</g>
</g>
<!-- Node3&#45;&gt;Node5 -->
<g id="edge4" class="edge">
<title>Node3&#45;&gt;Node5</title>
<path fill="none" stroke="midnightblue" d="M1083.12,-280.63C1080.5,-272.5 1077.72,-262.89 1076,-254 1063.27,-188.2 1060.66,-107.2 1060.13,-79.68"/>
<polygon fill="midnightblue" stroke="midnightblue" points="1079.87,-281.93 1086.39,-290.28 1086.5,-279.68 1079.87,-281.93"/>
</g>
<!-- Node6 -->
<g id="node6" class="node">
<title>Node6</title>
<g id="a_node6"><a xlink:href="fonts_8c.html" target="_top" xlink:title=" ">
<polygon fill="white" stroke="black" points="1103.5,-58.5 1103.5,-79.5 1154.5,-79.5 1154.5,-58.5 1103.5,-58.5"/>
<text text-anchor="middle" x="1129" y="-65.9" font-family="DejaVuSans" font-size="12.00">fonts.c</text>
</a>
</g>
</g>
<!-- Node3&#45;&gt;Node6 -->
<g id="edge6" class="edge">
<title>Node3&#45;&gt;Node6</title>
<path fill="none" stroke="midnightblue" d="M1093.3,-280.53C1101.3,-233.37 1121.48,-114.33 1127.37,-79.63"/>
<polygon fill="midnightblue" stroke="midnightblue" points="1089.85,-279.97 1091.63,-290.41 1096.75,-281.14 1089.85,-279.97"/>
</g>
<!-- Node3&#45;&gt;Node7 -->
<g id="edge7" class="edge">
<title>Node3&#45;&gt;Node7</title>
<path fill="none" stroke="midnightblue" d="M1050.57,-300.63C947.71,-301.55 663.16,-299.43 432,-254 351.19,-238.12 330.47,-231.18 256,-196 181.32,-160.71 100.59,-102.66 69.86,-79.74"/>
<polygon fill="midnightblue" stroke="midnightblue" points="1050.84,-304.13 1060.8,-300.52 1050.76,-297.13 1050.84,-304.13"/>
</g>
<!-- Node8 -->
<g id="node8" class="node">
<title>Node8</title>
<g id="a_node8"><a xlink:href="io_8c.html" target="_top" xlink:title=" ">
<polygon fill="white" stroke="black" points="1156.5,-232.5 1156.5,-253.5 1191.5,-253.5 1191.5,-232.5 1156.5,-232.5"/>
<text text-anchor="middle" x="1174" y="-239.9" font-family="DejaVuSans" font-size="12.00">io.c</text>
</a>
</g>
</g>
<!-- Node3&#45;&gt;Node8 -->
<g id="edge8" class="edge">
<title>Node3&#45;&gt;Node8</title>
<path fill="none" stroke="midnightblue" d="M1113.26,-284.49C1128.09,-274.61 1146.82,-262.12 1159.54,-253.64"/>
<polygon fill="midnightblue" stroke="midnightblue" points="1111.01,-281.79 1104.63,-290.25 1114.89,-287.61 1111.01,-281.79"/>
</g>
<!-- Node9 -->
<g id="node9" class="node">
<title>Node9</title>
<g id="a_node9"><a xlink:href="io__fname_8c.html" target="_top" xlink:title=" ">
<polygon fill="white" stroke="black" points="1172.5,-58.5 1172.5,-79.5 1247.5,-79.5 1247.5,-58.5 1172.5,-58.5"/>
<text text-anchor="middle" x="1210" y="-65.9" font-family="DejaVuSans" font-size="12.00">io_fname.c</text>
</a>
</g>
</g>
<!-- Node3&#45;&gt;Node9 -->
<g id="edge9" class="edge">
<title>Node3&#45;&gt;Node9</title>
<path fill="none" stroke="midnightblue" d="M1099.69,-281.42C1123.97,-234.88 1186.76,-114.55 1204.98,-79.63"/>
<polygon fill="midnightblue" stroke="midnightblue" points="1096.53,-279.93 1095,-290.41 1102.73,-283.16 1096.53,-279.93"/>
</g>
<!-- Node10 -->
<g id="node10" class="node">
<title>Node10</title>
<g id="a_node10"><a xlink:href="io__unix_8c.html" target="_top" xlink:title=" ">
<polygon fill="white" stroke="black" points="1209.5,-232.5 1209.5,-253.5 1274.5,-253.5 1274.5,-232.5 1209.5,-232.5"/>
<text text-anchor="middle" x="1242" y="-239.9" font-family="DejaVuSans" font-size="12.00">io_unix.c</text>
</a>
</g>
</g>
<!-- Node3&#45;&gt;Node10 -->
<g id="edge10" class="edge">
<title>Node3&#45;&gt;Node10</title>
<path fill="none" stroke="midnightblue" d="M1125.86,-286.79C1153.61,-276.56 1191.38,-262.65 1216.21,-253.5"/>
<polygon fill="midnightblue" stroke="midnightblue" points="1124.3,-283.63 1116.13,-290.37 1126.72,-290.2 1124.3,-283.63"/>
</g>
<!-- Node11 -->
<g id="node11" class="node">
<title>Node11</title>
<g id="a_node11"><a xlink:href="lexer_8c.html" target="_top" xlink:title=" ">
<polygon fill="white" stroke="black" points="1332.5,-58.5 1332.5,-79.5 1383.5,-79.5 1383.5,-58.5 1332.5,-58.5"/>
<text text-anchor="middle" x="1358" y="-65.9" font-family="DejaVuSans" font-size="12.00">lexer.c</text>
</a>
</g>
</g>
<!-- Node3&#45;&gt;Node11 -->
<g id="edge11" class="edge">
<title>Node3&#45;&gt;Node11</title>
<path fill="none" stroke="midnightblue" d="M1129.22,-296.29C1183.82,-290.36 1278.84,-277.01 1304,-254 1356.33,-206.14 1358.96,-110.54 1358.37,-79.78"/>
<polygon fill="midnightblue" stroke="midnightblue" points="1128.78,-292.82 1119.2,-297.35 1129.51,-299.78 1128.78,-292.82"/>
</g>
<!-- Node12 -->
<g id="node12" class="node">
<title>Node12</title>
<g id="a_node12"><a xlink:href="mem_8h.html" target="_top" xlink:title=" ">
<polygon fill="white" stroke="black" points="768.5,-232.5 768.5,-253.5 821.5,-253.5 821.5,-232.5 768.5,-232.5"/>
<text text-anchor="middle" x="795" y="-239.9" font-family="DejaVuSans" font-size="12.00">mem.h</text>
</a>
</g>
</g>
<!-- Node3&#45;&gt;Node12 -->
<g id="edge12" class="edge">
<title>Node3&#45;&gt;Node12</title>
<path fill="none" stroke="midnightblue" d="M1050.91,-292.58C990,-281.02 874.02,-259 821.74,-249.08"/>
<polygon fill="midnightblue" stroke="midnightblue" points="1050.43,-296.05 1060.91,-294.48 1051.74,-289.17 1050.43,-296.05"/>
</g>
<!-- Node3&#45;&gt;Node21 -->
<g id="edge57" class="edge">
<title>Node3&#45;&gt;Node21</title>
<path fill="none" stroke="midnightblue" d="M1129.18,-296.44C1192.13,-290.17 1312.46,-275.72 1349,-254 1424.22,-209.3 1476.4,-110.75 1491.5,-79.62"/>
<polygon fill="midnightblue" stroke="midnightblue" points="1128.83,-292.96 1119.22,-297.42 1129.51,-299.93 1128.83,-292.96"/>
</g>
<!-- Node3&#45;&gt;Node22 -->
<g id="edge59" class="edge">
<title>Node3&#45;&gt;Node22</title>
<path fill="none" stroke="midnightblue" d="M1129.44,-296.48C1188.68,-290.52 1296.98,-276.81 1328,-254 1332.02,-251.05 1402.24,-117.28 1421.92,-79.72"/>
<polygon fill="midnightblue" stroke="midnightblue" points="1128.94,-293.01 1119.33,-297.47 1129.62,-299.98 1128.94,-293.01"/>
</g>
<!-- Node3&#45;&gt;Node23 -->
<g id="edge60" class="edge">
<title>Node3&#45;&gt;Node23</title>
<path fill="none" stroke="midnightblue" d="M1050.26,-300C986.71,-298.81 859.18,-291.43 759,-254 653.68,-214.65 648.76,-163.8 547,-116 512.42,-99.75 470.66,-87.38 440.33,-79.58"/>
<polygon fill="midnightblue" stroke="midnightblue" points="1050.58,-303.51 1060.63,-300.15 1050.68,-296.51 1050.58,-303.51"/>
</g>
<!-- Node27 -->
<g id="node27" class="node">
<title>Node27</title>
<g id="a_node27"><a xlink:href="print_8c.html" target="_top" xlink:title=" ">
<polygon fill="white" stroke="black" points="1265.5,-58.5 1265.5,-79.5 1314.5,-79.5 1314.5,-58.5 1265.5,-58.5"/>
<text text-anchor="middle" x="1290" y="-65.9" font-family="DejaVuSans" font-size="12.00">print.c</text>
</a>
</g>
</g>
<!-- Node3&#45;&gt;Node27 -->
<g id="edge58" class="edge">
<title>Node3&#45;&gt;Node27</title>
<path fill="none" stroke="midnightblue" d="M1129.23,-296.18C1179.87,-290.37 1263.78,-277.41 1283,-254 1326,-201.62 1302.58,-109.81 1293.26,-79.8"/>
<polygon fill="midnightblue" stroke="midnightblue" points="1128.82,-292.71 1119.27,-297.28 1129.59,-299.66 1128.82,-292.71"/>
</g>
<!-- Node12&#45;&gt;Node2 -->
<g id="edge19" class="edge">
<title>Node12&#45;&gt;Node2</title>
<path fill="none" stroke="midnightblue" d="M758.25,-240.14C667.59,-235.22 435.26,-220.53 362,-196 279.35,-168.32 194.41,-104.18 163.84,-79.71"/>
<polygon fill="midnightblue" stroke="midnightblue" points="758.17,-243.64 768.34,-240.68 758.54,-236.65 758.17,-243.64"/>
</g>
<!-- Node12&#45;&gt;Node6 -->
<g id="edge20" class="edge">
<title>Node12&#45;&gt;Node6</title>
<path fill="none" stroke="midnightblue" d="M830.17,-228.87C852.49,-220.22 881.81,-208.26 907,-196 987.09,-157.02 1078.27,-101.57 1113.75,-79.55"/>
<polygon fill="midnightblue" stroke="midnightblue" points="828.84,-225.64 820.76,-232.49 831.35,-232.17 828.84,-225.64"/>
</g>
<!-- Node12&#45;&gt;Node11 -->
<g id="edge21" class="edge">
<title>Node12&#45;&gt;Node11</title>
<path fill="none" stroke="midnightblue" d="M831.36,-230.89C936.95,-198.63 1241.83,-105.49 1332.36,-77.83"/>
<polygon fill="midnightblue" stroke="midnightblue" points="830.32,-227.55 821.78,-233.82 832.36,-234.25 830.32,-227.55"/>
</g>
<!-- Node13 -->
<g id="node13" class="node">
<title>Node13</title>
<g id="a_node13"><a xlink:href="box_8c.html" target="_top" xlink:title=" ">
<polygon fill="white" stroke="black" points="402.5,-174.5 402.5,-195.5 447.5,-195.5 447.5,-174.5 402.5,-174.5"/>
<text text-anchor="middle" x="425" y="-181.9" font-family="DejaVuSans" font-size="12.00">box.c</text>
</a>
</g>
</g>
<!-- Node12&#45;&gt;Node13 -->
<g id="edge13" class="edge">
<title>Node12&#45;&gt;Node13</title>
<path fill="none" stroke="midnightblue" d="M758.48,-238.49C696.92,-232.22 568.78,-217.71 462,-196 457.31,-195.05 452.32,-193.84 447.59,-192.59"/>
<polygon fill="midnightblue" stroke="midnightblue" points="758.18,-241.97 768.48,-239.49 758.87,-235.01 758.18,-241.97"/>
</g>
<!-- Node14 -->
<g id="node14" class="node">
<title>Node14</title>
<g id="a_node14"><a xlink:href="box__copy_8c.html" target="_top" xlink:title=" ">
<polygon fill="white" stroke="black" points="294.5,-116.5 294.5,-137.5 371.5,-137.5 371.5,-116.5 294.5,-116.5"/>
<text text-anchor="middle" x="333" y="-123.9" font-family="DejaVuSans" font-size="12.00">box_copy.c</text>
</a>
</g>
</g>
<!-- Node12&#45;&gt;Node14 -->
<g id="edge14" class="edge">
<title>Node12&#45;&gt;Node14</title>
<path fill="none" stroke="midnightblue" d="M758.3,-241.13C671.51,-238.56 456.15,-228.95 393,-196 367.32,-182.6 347.56,-153.33 338.47,-137.93"/>
<polygon fill="midnightblue" stroke="midnightblue" points="758.38,-244.64 768.47,-241.42 758.58,-237.64 758.38,-244.64"/>
</g>
<!-- Node15 -->
<g id="node15" class="node">
<title>Node15</title>
<g id="a_node15"><a xlink:href="box__destroy_8c.html" target="_top" xlink:title=" ">
<polygon fill="white" stroke="black" points="618.5,-116.5 618.5,-137.5 709.5,-137.5 709.5,-116.5 618.5,-116.5"/>
<text text-anchor="middle" x="664" y="-123.9" font-family="DejaVuSans" font-size="12.00">box_destroy.c</text>
</a>
</g>
</g>
<!-- Node12&#45;&gt;Node15 -->
<g id="edge15" class="edge">
<title>Node12&#45;&gt;Node15</title>
<path fill="none" stroke="midnightblue" d="M768.79,-227.38C754.85,-219.03 737.78,-207.88 724,-196 702.53,-177.5 681.59,-151.4 671.05,-137.53"/>
<polygon fill="midnightblue" stroke="midnightblue" points="767.05,-230.41 777.44,-232.44 770.58,-224.37 767.05,-230.41"/>
</g>
<!-- Node16 -->
<g id="node16" class="node">
<title>Node16</title>
<g id="a_node16"><a xlink:href="box__display_8c.html" target="_top" xlink:title=" ">
<polygon fill="white" stroke="black" points="460.5,-58.5 460.5,-79.5 549.5,-79.5 549.5,-58.5 460.5,-58.5"/>
<text text-anchor="middle" x="505" y="-65.9" font-family="DejaVuSans" font-size="12.00">box_display.c</text>
</a>
</g>
</g>
<!-- Node12&#45;&gt;Node16 -->
<g id="edge16" class="edge">
<title>Node12&#45;&gt;Node16</title>
<path fill="none" stroke="midnightblue" d="M794.18,-222.14C791.88,-194.05 783.36,-143.1 752,-116 685.65,-58.66 644.2,-96.13 558,-80 555.24,-79.48 552.4,-78.95 549.53,-78.41"/>
<polygon fill="midnightblue" stroke="midnightblue" points="790.7,-222.57 794.81,-232.33 797.68,-222.13 790.7,-222.57"/>
</g>
<!-- Node17 -->
<g id="node17" class="node">
<title>Node17</title>
<g id="a_node17"><a xlink:href="dviout_8c.html" target="_top" xlink:title=" ">
<polygon fill="white" stroke="black" points="567,-58.5 567,-79.5 625,-79.5 625,-58.5 567,-58.5"/>
<text text-anchor="middle" x="596" y="-65.9" font-family="DejaVuSans" font-size="12.00">dviout.c</text>
</a>
</g>
</g>
<!-- Node12&#45;&gt;Node17 -->
<g id="edge17" class="edge">
<title>Node12&#45;&gt;Node17</title>
<path fill="none" stroke="midnightblue" d="M800.77,-222.59C807.53,-195.43 814.92,-146.08 790,-116 744.61,-61.2 703.08,-97.06 634,-80 631.09,-79.28 628.05,-78.51 625.02,-77.74"/>
<polygon fill="midnightblue" stroke="midnightblue" points="797.33,-221.87 798.09,-232.44 804.09,-223.7 797.33,-221.87"/>
</g>
<!-- Node18 -->
<g id="node18" class="node">
<title>Node18</title>
<g id="a_node18"><a xlink:href="eqtb__save_8c.html" target="_top" xlink:title=" ">
<polygon fill="white" stroke="black" points="785.5,-58.5 785.5,-79.5 866.5,-79.5 866.5,-58.5 785.5,-58.5"/>
<text text-anchor="middle" x="826" y="-65.9" font-family="DejaVuSans" font-size="12.00">eqtb_save.c</text>
</a>
</g>
</g>
<!-- Node12&#45;&gt;Node18 -->
<g id="edge18" class="edge">
<title>Node12&#45;&gt;Node18</title>
<path fill="none" stroke="midnightblue" d="M819.61,-226.66C845.45,-208.93 884.57,-177.13 901,-138 904.78,-128.98 905.78,-124.53 901,-116 891.15,-98.41 871.52,-86.73 854.81,-79.54"/>
<polygon fill="midnightblue" stroke="midnightblue" points="817.47,-223.88 811.08,-232.33 821.35,-229.7 817.47,-223.88"/>
</g>
<!-- Node19 -->
<g id="node19" class="node">
<title>Node19</title>
<g id="a_node19"><a xlink:href="mem_8c.html" target="_top" xlink:title=" ">
<polygon fill="white" stroke="black" points="286,-58.5 286,-79.5 338,-79.5 338,-58.5 286,-58.5"/>
<text text-anchor="middle" x="312" y="-65.9" font-family="DejaVuSans" font-size="12.00">mem.c</text>
</a>
</g>
</g>
<!-- Node12&#45;&gt;Node19 -->
<g id="edge22" class="edge">
<title>Node12&#45;&gt;Node19</title>
<path fill="none" stroke="midnightblue" d="M758.12,-241.65C700.09,-239.95 584.83,-231.88 495,-196 466.09,-184.45 405.67,-133.61 380,-116 361.55,-103.34 340.15,-88.91 326.36,-79.64"/>
<polygon fill="midnightblue" stroke="midnightblue" points="758.19,-245.16 768.27,-241.9 758.36,-238.16 758.19,-245.16"/>
</g>
<!-- Node20 -->
<g id="node20" class="node">
<title>Node20</title>
<g id="a_node20"><a xlink:href="mmode_8c.html" target="_top" xlink:title=" ">
<polygon fill="white" stroke="black" points="884.5,-58.5 884.5,-79.5 949.5,-79.5 949.5,-58.5 884.5,-58.5"/>
<text text-anchor="middle" x="917" y="-65.9" font-family="DejaVuSans" font-size="12.00">mmode.c</text>
</a>
</g>
</g>
<!-- Node12&#45;&gt;Node20 -->
<g id="edge23" class="edge">
<title>Node12&#45;&gt;Node20</title>
<path fill="none" stroke="midnightblue" d="M830.88,-228.73C848.1,-221.08 868.15,-210.15 883,-196 904.64,-175.39 909.17,-166.84 917,-138 922.44,-117.95 920.4,-93.33 918.59,-79.9"/>
<polygon fill="midnightblue" stroke="midnightblue" points="829.5,-225.51 821.67,-232.64 832.24,-231.96 829.5,-225.51"/>
</g>
<!-- Node12&#45;&gt;Node21 -->
<g id="edge24" class="edge">
<title>Node12&#45;&gt;Node21</title>
<path fill="none" stroke="midnightblue" d="M831.8,-236.43C881.4,-228.68 972.34,-213.59 1049,-196 1142.54,-174.54 1164.62,-164.01 1257,-138 1334.65,-116.13 1426.39,-89.93 1470.2,-77.39"/>
<polygon fill="midnightblue" stroke="midnightblue" points="831.21,-232.98 821.86,-237.98 832.28,-239.9 831.21,-232.98"/>
</g>
<!-- Node12&#45;&gt;Node22 -->
<g id="edge25" class="edge">
<title>Node12&#45;&gt;Node22</title>
<path fill="none" stroke="midnightblue" d="M831.56,-234.38C872.15,-225.75 939.52,-210.95 997,-196 1151.71,-155.76 1335.12,-98.93 1401.46,-78.08"/>
<polygon fill="midnightblue" stroke="midnightblue" points="830.65,-230.99 821.6,-236.49 832.1,-237.84 830.65,-230.99"/>
</g>
<!-- Node12&#45;&gt;Node23 -->
<g id="edge26" class="edge">
<title>Node12&#45;&gt;Node23</title>
<path fill="none" stroke="midnightblue" d="M789.18,-222.79C779.45,-194.3 757.03,-141.47 718,-116 617.72,-50.57 569.17,-99.31 451,-80 448.1,-79.53 445.11,-79.01 442.1,-78.48"/>
<polygon fill="midnightblue" stroke="midnightblue" points="785.88,-223.97 792.29,-232.41 792.54,-221.82 785.88,-223.97"/>
</g>
<!-- Node25 -->
<g id="node25" class="node">
<title>Node25</title>
<g id="a_node25"><a xlink:href="texmac_8h.html" target="_top" xlink:title=" ">
<polygon fill="white" stroke="black" points="504.5,-174.5 504.5,-195.5 569.5,-195.5 569.5,-174.5 504.5,-174.5"/>
<text text-anchor="middle" x="537" y="-181.9" font-family="DejaVuSans" font-size="12.00">texmac.h</text>
</a>
</g>
</g>
<!-- Node12&#45;&gt;Node25 -->
<g id="edge28" class="edge">
<title>Node12&#45;&gt;Node25</title>
<path fill="none" stroke="midnightblue" d="M758.53,-234.08C708.08,-223.13 617.79,-203.54 569.52,-193.06"/>
<polygon fill="midnightblue" stroke="midnightblue" points="757.85,-237.52 768.36,-236.22 759.33,-230.68 757.85,-237.52"/>
</g>
<!-- Node24 -->
<g id="node24" class="node">
<title>Node24</title>
<g id="a_node24"><a xlink:href="tex_8c.html" target="_top" xlink:title=" ">
<polygon fill="white" stroke="black" points="378.5,-0.5 378.5,-21.5 419.5,-21.5 419.5,-0.5 378.5,-0.5"/>
<text text-anchor="middle" x="399" y="-7.9" font-family="DejaVuSans" font-size="12.00">tex.c</text>
</a>
</g>
</g>
<!-- Node23&#45;&gt;Node24 -->
<g id="edge27" class="edge">
<title>Node23&#45;&gt;Node24</title>
<path fill="none" stroke="midnightblue" d="M399,-48.16C399,-39.16 399,-28.92 399,-21.64"/>
<polygon fill="midnightblue" stroke="midnightblue" points="395.5,-48.25 399,-58.25 402.5,-48.25 395.5,-48.25"/>
</g>
<!-- Node25&#45;&gt;Node2 -->
<g id="edge31" class="edge">
<title>Node25&#45;&gt;Node2</title>
<path fill="none" stroke="midnightblue" d="M496.23,-171.23C471.82,-162.99 440.49,-151.33 414,-138 397.92,-129.91 396.7,-122.71 380,-116 301.47,-84.43 275.69,-98.03 193,-80 190.28,-79.41 187.46,-78.77 184.64,-78.11"/>
<polygon fill="midnightblue" stroke="midnightblue" points="495.3,-174.61 505.89,-174.44 497.5,-167.97 495.3,-174.61"/>
</g>
<!-- Node25&#45;&gt;Node7 -->
<g id="edge32" class="edge">
<title>Node25&#45;&gt;Node7</title>
<path fill="none" stroke="midnightblue" d="M494.25,-177.66C443.89,-169.85 357.83,-155.45 285,-138 210.89,-120.24 125.18,-92.76 83.08,-78.79"/>
<polygon fill="midnightblue" stroke="midnightblue" points="493.72,-181.12 504.14,-179.18 494.79,-174.2 493.72,-181.12"/>
</g>
<!-- Node25&#45;&gt;Node14 -->
<g id="edge29" class="edge">
<title>Node25&#45;&gt;Node14</title>
<path fill="none" stroke="midnightblue" d="M494.57,-172.35C456.99,-162.04 402.8,-147.16 367.74,-137.54"/>
<polygon fill="midnightblue" stroke="midnightblue" points="493.65,-175.73 504.22,-175 495.51,-168.98 493.65,-175.73"/>
</g>
<!-- Node25&#45;&gt;Node15 -->
<g id="edge30" class="edge">
<title>Node25&#45;&gt;Node15</title>
<path fill="none" stroke="midnightblue" d="M568.19,-170.25C591.25,-160.08 622.07,-146.49 642.45,-137.5"/>
<polygon fill="midnightblue" stroke="midnightblue" points="566.57,-167.14 558.83,-174.37 569.39,-173.54 566.57,-167.14"/>
</g>
<!-- Node25&#45;&gt;Node19 -->
<g id="edge33" class="edge">
<title>Node25&#45;&gt;Node19</title>
<path fill="none" stroke="midnightblue" d="M528.74,-165.28C520.95,-149.77 507.8,-128.34 490,-116 436.14,-78.65 410.29,-97 347,-80 344.19,-79.25 341.26,-78.44 338.35,-77.62"/>
<polygon fill="midnightblue" stroke="midnightblue" points="525.65,-166.92 533.09,-174.46 531.97,-163.92 525.65,-166.92"/>
</g>
<!-- Node25&#45;&gt;Node22 -->
<g id="edge55" class="edge">
<title>Node25&#45;&gt;Node22</title>
<path fill="none" stroke="midnightblue" d="M579.86,-181.18C705.6,-172.4 1084.04,-142.32 1392,-80 1394.97,-79.4 1398.06,-78.67 1401.12,-77.89"/>
<polygon fill="midnightblue" stroke="midnightblue" points="579.25,-177.72 569.52,-181.9 579.73,-184.7 579.25,-177.72"/>
</g>
<!-- Node25&#45;&gt;Node23 -->
<g id="edge56" class="edge">
<title>Node25&#45;&gt;Node23</title>
<path fill="none" stroke="midnightblue" d="M539.51,-164.32C540.3,-149.47 538.86,-129.43 528,-116 516.6,-101.9 473.01,-88.28 439.62,-79.56"/>
<polygon fill="midnightblue" stroke="midnightblue" points="536.01,-164.19 538.59,-174.46 542.98,-164.82 536.01,-164.19"/>
</g>
<!-- Node26 -->
<g id="node26" class="node">
<title>Node26</title>
<g id="a_node26"><a xlink:href="print_8h.html" target="_top" xlink:title=" ">
<polygon fill="white" stroke="black" points="842,-116.5 842,-137.5 892,-137.5 892,-116.5 842,-116.5"/>
<text text-anchor="middle" x="867" y="-123.9" font-family="DejaVuSans" font-size="12.00">print.h</text>
</a>
</g>
</g>
<!-- Node25&#45;&gt;Node26 -->
<g id="edge34" class="edge">
<title>Node25&#45;&gt;Node26</title>
<path fill="none" stroke="midnightblue" d="M579.73,-176.75C649.4,-164.93 785.35,-141.86 841.65,-132.3"/>
<polygon fill="midnightblue" stroke="midnightblue" points="578.82,-173.35 569.54,-178.48 579.99,-180.25 578.82,-173.35"/>
</g>
<!-- Node25&#45;&gt;Node28 -->
<g id="edge54" class="edge">
<title>Node25&#45;&gt;Node28</title>
<path fill="none" stroke="midnightblue" d="M514.01,-168.96C489.93,-153.77 450.59,-130.54 414,-116 400.43,-110.61 315.68,-89.63 267.82,-77.96"/>
<polygon fill="midnightblue" stroke="midnightblue" points="512.14,-171.92 522.45,-174.35 515.91,-166.02 512.14,-171.92"/>
</g>
<!-- Node26&#45;&gt;Node2 -->
<g id="edge40" class="edge">
<title>Node26&#45;&gt;Node2</title>
<path fill="none" stroke="midnightblue" d="M831.73,-123.63C694.18,-114.4 200.98,-81.24 193,-80 190.25,-79.57 187.41,-79.05 184.57,-78.48"/>
<polygon fill="midnightblue" stroke="midnightblue" points="831.53,-127.13 841.74,-124.31 832,-120.14 831.53,-127.13"/>
</g>
<!-- Node26&#45;&gt;Node4 -->
<g id="edge37" class="edge">
<title>Node26&#45;&gt;Node4</title>
<path fill="none" stroke="midnightblue" d="M897.7,-112.25C920.4,-102.08 950.73,-88.49 970.79,-79.5"/>
<polygon fill="midnightblue" stroke="midnightblue" points="896.18,-109.09 888.49,-116.37 899.05,-115.48 896.18,-109.09"/>
</g>
<!-- Node26&#45;&gt;Node5 -->
<g id="edge39" class="edge">
<title>Node26&#45;&gt;Node5</title>
<path fill="none" stroke="midnightblue" d="M901.94,-115.86C940.25,-104.74 1000.81,-87.18 1034.76,-77.32"/>
<polygon fill="midnightblue" stroke="midnightblue" points="900.86,-112.53 892.23,-118.68 902.81,-119.25 900.86,-112.53"/>
</g>
<!-- Node26&#45;&gt;Node6 -->
<g id="edge41" class="edge">
<title>Node26&#45;&gt;Node6</title>
<path fill="none" stroke="midnightblue" d="M902.43,-119.71C947.25,-111.55 1026.73,-96.4 1094,-80 1097.07,-79.25 1100.28,-78.41 1103.45,-77.55"/>
<polygon fill="midnightblue" stroke="midnightblue" points="901.55,-116.31 892.34,-121.54 902.8,-123.2 901.55,-116.31"/>
</g>
<!-- Node26&#45;&gt;Node7 -->
<g id="edge42" class="edge">
<title>Node26&#45;&gt;Node7</title>
<path fill="none" stroke="midnightblue" d="M831.92,-123.57C801.73,-121.49 757,-118.46 718,-116 447.84,-98.94 378.66,-113.16 110,-80 101.17,-78.91 91.6,-77.25 83.05,-75.6"/>
<polygon fill="midnightblue" stroke="midnightblue" points="831.74,-127.06 841.96,-124.26 832.22,-120.08 831.74,-127.06"/>
</g>
<!-- Node26&#45;&gt;Node9 -->
<g id="edge43" class="edge">
<title>Node26&#45;&gt;Node9</title>
<path fill="none" stroke="midnightblue" d="M902.04,-121.2C957.56,-113.44 1069.06,-97.28 1163,-80 1166.04,-79.44 1169.18,-78.84 1172.33,-78.21"/>
<polygon fill="midnightblue" stroke="midnightblue" points="901.45,-117.74 892.03,-122.59 902.41,-124.68 901.45,-117.74"/>
</g>
<!-- Node26&#45;&gt;Node11 -->
<g id="edge44" class="edge">
<title>Node26&#45;&gt;Node11</title>
<path fill="none" stroke="midnightblue" d="M902.3,-124.58C979.31,-121.01 1167.95,-109.73 1323,-80 1325.98,-79.43 1329.07,-78.72 1332.13,-77.95"/>
<polygon fill="midnightblue" stroke="midnightblue" points="902.02,-121.09 892.19,-125.03 902.34,-128.08 902.02,-121.09"/>
</g>
<!-- Node26&#45;&gt;Node16 -->
<g id="edge35" class="edge">
<title>Node26&#45;&gt;Node16</title>
<path fill="none" stroke="midnightblue" d="M831.7,-121.2C774.23,-113.28 656.93,-96.69 558,-80 555.23,-79.53 552.38,-79.04 549.51,-78.53"/>
<polygon fill="midnightblue" stroke="midnightblue" points="831.33,-124.68 841.71,-122.57 832.28,-117.75 831.33,-124.68"/>
</g>
<!-- Node26&#45;&gt;Node17 -->
<g id="edge36" class="edge">
<title>Node26&#45;&gt;Node17</title>
<path fill="none" stroke="midnightblue" d="M831.86,-116.87C830.56,-116.57 829.27,-116.28 828,-116 742.37,-97.1 719.57,-99.17 634,-80 631.2,-79.37 628.3,-78.68 625.41,-77.97"/>
<polygon fill="midnightblue" stroke="midnightblue" points="831.34,-120.35 841.88,-119.29 832.99,-113.54 831.34,-120.35"/>
</g>
<!-- Node26&#45;&gt;Node18 -->
<g id="edge38" class="edge">
<title>Node26&#45;&gt;Node18</title>
<path fill="none" stroke="midnightblue" d="M853.76,-107.92C846.88,-98.52 838.74,-87.4 833.06,-79.64"/>
<polygon fill="midnightblue" stroke="midnightblue" points="851.13,-110.24 859.86,-116.25 856.77,-106.11 851.13,-110.24"/>
</g>
<!-- Node26&#45;&gt;Node19 -->
<g id="edge45" class="edge">
<title>Node26&#45;&gt;Node19</title>
<path fill="none" stroke="midnightblue" d="M831.82,-123.76C730.72,-117.2 440.6,-97.35 347,-80 344.14,-79.47 341.18,-78.81 338.25,-78.08"/>
<polygon fill="midnightblue" stroke="midnightblue" points="831.63,-127.26 841.83,-124.41 832.08,-120.27 831.63,-127.26"/>
</g>
<!-- Node26&#45;&gt;Node20 -->
<g id="edge46" class="edge">
<title>Node26&#45;&gt;Node20</title>
<path fill="none" stroke="midnightblue" d="M882.62,-108.5C891.13,-98.98 901.32,-87.56 908.39,-79.64"/>
<polygon fill="midnightblue" stroke="midnightblue" points="879.76,-106.46 875.71,-116.25 884.98,-111.12 879.76,-106.46"/>
</g>
<!-- Node26&#45;&gt;Node21 -->
<g id="edge47" class="edge">
<title>Node26&#45;&gt;Node21</title>
<path fill="none" stroke="midnightblue" d="M902.33,-125.73C994.83,-124.5 1251.44,-117.66 1461,-80 1463.99,-79.46 1467.08,-78.78 1470.14,-78.01"/>
<polygon fill="midnightblue" stroke="midnightblue" points="902.08,-122.23 892.13,-125.85 902.17,-129.23 902.08,-122.23"/>
</g>
<!-- Node26&#45;&gt;Node22 -->
<g id="edge50" class="edge">
<title>Node26&#45;&gt;Node22</title>
<path fill="none" stroke="midnightblue" d="M902.23,-125.23C987.17,-122.87 1209.73,-113.7 1392,-80 1394.98,-79.45 1398.08,-78.75 1401.14,-77.98"/>
<polygon fill="midnightblue" stroke="midnightblue" points="902,-121.73 892.1,-125.5 902.18,-128.73 902,-121.73"/>
</g>
<!-- Node26&#45;&gt;Node23 -->
<g id="edge52" class="edge">
<title>Node26&#45;&gt;Node23</title>
<path fill="none" stroke="midnightblue" d="M831.25,-123.02C759.12,-116.78 591.09,-101.18 451,-80 448.09,-79.56 445.1,-79.07 442.08,-78.56"/>
<polygon fill="midnightblue" stroke="midnightblue" points="831.32,-126.54 841.58,-123.9 831.92,-119.56 831.32,-126.54"/>
</g>
<!-- Node26&#45;&gt;Node27 -->
<g id="edge48" class="edge">
<title>Node26&#45;&gt;Node27</title>
<path fill="none" stroke="midnightblue" d="M902.54,-123.81C971.35,-119.12 1127.3,-106.34 1256,-80 1259.01,-79.38 1262.15,-78.63 1265.24,-77.81"/>
<polygon fill="midnightblue" stroke="midnightblue" points="902.01,-120.33 892.26,-124.49 902.47,-127.32 902.01,-120.33"/>
</g>
<!-- Node26&#45;&gt;Node28 -->
<g id="edge49" class="edge">
<title>Node26&#45;&gt;Node28</title>
<path fill="none" stroke="midnightblue" d="M831.87,-123.58C713.23,-115.37 331.74,-88.6 277,-80 274.04,-79.53 270.98,-78.97 267.92,-78.35"/>
<polygon fill="midnightblue" stroke="midnightblue" points="831.66,-127.08 841.88,-124.27 832.15,-120.09 831.66,-127.08"/>
</g>
<!-- Node29 -->
<g id="node29" class="node">
<title>Node29</title>
<g id="a_node29"><a xlink:href="str_8c.html" target="_top" xlink:title=" ">
<polygon fill="white" stroke="black" points="643,-58.5 643,-79.5 681,-79.5 681,-58.5 643,-58.5"/>
<text text-anchor="middle" x="662" y="-65.9" font-family="DejaVuSans" font-size="12.00">str.c</text>
</a>
</g>
</g>
<!-- Node26&#45;&gt;Node29 -->
<g id="edge51" class="edge">
<title>Node26&#45;&gt;Node29</title>
<path fill="none" stroke="midnightblue" d="M832.12,-117.02C782.53,-104.24 696.87,-82.11 690,-80 687.14,-79.12 684.14,-78.12 681.2,-77.11"/>
<polygon fill="midnightblue" stroke="midnightblue" points="831.26,-120.41 841.81,-119.52 833,-113.63 831.26,-120.41"/>
</g>
<!-- Node30 -->
<g id="node30" class="node">
<title>Node30</title>
<g id="a_node30"><a xlink:href="texmath_8c.html" target="_top" xlink:title=" ">
<polygon fill="white" stroke="black" points="699,-58.5 699,-79.5 767,-79.5 767,-58.5 699,-58.5"/>
<text text-anchor="middle" x="733" y="-65.9" font-family="DejaVuSans" font-size="12.00">texmath.c</text>
</a>
</g>
</g>
<!-- Node26&#45;&gt;Node30 -->
<g id="edge53" class="edge">
<title>Node26&#45;&gt;Node30</title>
<path fill="none" stroke="midnightblue" d="M834.42,-112.38C810.05,-102.2 777.34,-88.53 755.73,-79.5"/>
<polygon fill="midnightblue" stroke="midnightblue" points="833.39,-115.75 843.96,-116.37 836.09,-109.29 833.39,-115.75"/>
</g>
</g>
</svg>
