<?xml version="1.0" encoding="UTF-8" standalone="no"?>
<!DOCTYPE svg PUBLIC "-//W3C//DTD SVG 1.1//EN"
 "http://www.w3.org/Graphics/SVG/1.1/DTD/svg11.dtd">
<!-- Generated by graphviz version 2.44.0 ()
 -->
<!-- Title: scan.c Pages: 1 -->
<svg width="961pt" height="726pt"
 viewBox="0.00 0.00 960.50 726.00" xmlns="http://www.w3.org/2000/svg" xmlns:xlink="http://www.w3.org/1999/xlink">
<g id="graph0" class="graph" transform="scale(1 1) rotate(0) translate(4 722)">
<title>scan.c</title>
<polygon fill="white" stroke="transparent" points="-4,4 -4,-722 956.5,-722 956.5,4 -4,4"/>
<!-- Node1 -->
<g id="node1" class="node">
<title>Node1</title>
<g id="a_node1"><a xlink:title=" ">
<polygon fill="#bfbfbf" stroke="black" points="427.5,-696.5 427.5,-717.5 478.5,-717.5 478.5,-696.5 427.5,-696.5"/>
<text text-anchor="middle" x="453" y="-703.9" font-family="DejaVuSans" font-size="12.00">scan.c</text>
</a>
</g>
</g>
<!-- Node2 -->
<g id="node2" class="node">
<title>Node2</title>
<g id="a_node2"><a xlink:title=" ">
<polygon fill="white" stroke="#bfbfbf" points="0,-638.5 0,-659.5 54,-659.5 54,-638.5 0,-638.5"/>
<text text-anchor="middle" x="27" y="-645.9" font-family="DejaVuSans" font-size="12.00">stdlib.h</text>
</a>
</g>
</g>
<!-- Node1&#45;&gt;Node2 -->
<g id="edge1" class="edge">
<title>Node1&#45;&gt;Node2</title>
<path fill="none" stroke="midnightblue" d="M427.16,-703.99C364.96,-698.93 202.13,-684.28 68,-660 66.74,-659.77 65.47,-659.53 64.18,-659.27"/>
<polygon fill="midnightblue" stroke="midnightblue" points="64.76,-655.82 54.25,-657.13 63.29,-662.66 64.76,-655.82"/>
</g>
<!-- Node3 -->
<g id="node3" class="node">
<title>Node3</title>
<g id="a_node3"><a xlink:href="texmac_8h.html" target="_top" xlink:title=" ">
<polygon fill="white" stroke="black" points="262.5,-580.5 262.5,-601.5 327.5,-601.5 327.5,-580.5 262.5,-580.5"/>
<text text-anchor="middle" x="295" y="-587.9" font-family="DejaVuSans" font-size="12.00">texmac.h</text>
</a>
</g>
</g>
<!-- Node1&#45;&gt;Node3 -->
<g id="edge2" class="edge">
<title>Node1&#45;&gt;Node3</title>
<path fill="none" stroke="midnightblue" d="M427.47,-699.92C403.45,-693.22 367.48,-680.58 342,-660 325.33,-646.54 312.12,-625.65 304,-610.58"/>
<polygon fill="midnightblue" stroke="midnightblue" points="307.1,-608.94 299.42,-601.65 300.87,-612.14 307.1,-608.94"/>
</g>
<!-- Node4 -->
<g id="node4" class="node">
<title>Node4</title>
<g id="a_node4"><a xlink:href="mem_8h.html" target="_top" xlink:title=" ">
<polygon fill="white" stroke="black" points="281.5,-522.5 281.5,-543.5 334.5,-543.5 334.5,-522.5 281.5,-522.5"/>
<text text-anchor="middle" x="308" y="-529.9" font-family="DejaVuSans" font-size="12.00">mem.h</text>
</a>
</g>
</g>
<!-- Node1&#45;&gt;Node4 -->
<g id="edge40" class="edge">
<title>Node1&#45;&gt;Node4</title>
<path fill="none" stroke="midnightblue" d="M432.13,-696.47C416.34,-688.47 394.9,-675.81 380,-660 352.17,-630.47 356.33,-615.12 336,-580 330.69,-570.83 324.59,-560.76 319.45,-552.39"/>
<polygon fill="midnightblue" stroke="midnightblue" points="322.37,-550.46 314.13,-543.8 316.42,-554.14 322.37,-550.46"/>
</g>
<!-- Node8 -->
<g id="node8" class="node">
<title>Node8</title>
<g id="a_node8"><a xlink:href="global_8h.html" target="_top" xlink:title=" ">
<polygon fill="white" stroke="black" points="497,-464.5 497,-485.5 555,-485.5 555,-464.5 497,-464.5"/>
<text text-anchor="middle" x="526" y="-471.9" font-family="DejaVuSans" font-size="12.00">global.h</text>
</a>
</g>
</g>
<!-- Node1&#45;&gt;Node8 -->
<g id="edge27" class="edge">
<title>Node1&#45;&gt;Node8</title>
<path fill="none" stroke="midnightblue" d="M457.72,-696.22C462.12,-686.97 468.77,-672.66 474,-660 494.99,-609.18 503.75,-597.36 517,-544 520.94,-528.11 523.25,-509.67 524.54,-496.01"/>
<polygon fill="midnightblue" stroke="midnightblue" points="528.04,-496.07 525.39,-485.81 521.07,-495.48 528.04,-496.07"/>
</g>
<!-- Node14 -->
<g id="node14" class="node">
<title>Node14</title>
<g id="a_node14"><a xlink:href="scan_8h.html" target="_top" xlink:title=" ">
<polygon fill="white" stroke="black" points="598,-406.5 598,-427.5 650,-427.5 650,-406.5 598,-406.5"/>
<text text-anchor="middle" x="624" y="-413.9" font-family="DejaVuSans" font-size="12.00">scan.h</text>
</a>
</g>
</g>
<!-- Node1&#45;&gt;Node14 -->
<g id="edge47" class="edge">
<title>Node1&#45;&gt;Node14</title>
<path fill="none" stroke="midnightblue" d="M478.68,-696.88C516.57,-681.58 583,-646.93 583,-592 583,-592 583,-592 583,-532 583,-496.62 600.71,-458.51 612.85,-436.53"/>
<polygon fill="midnightblue" stroke="midnightblue" points="616.01,-438.06 617.95,-427.64 609.94,-434.57 616.01,-438.06"/>
</g>
<!-- Node16 -->
<g id="node16" class="node">
<title>Node16</title>
<g id="a_node16"><a xlink:href="tex_8h.html" target="_top" xlink:title=" ">
<polygon fill="white" stroke="black" points="318,-290.5 318,-311.5 360,-311.5 360,-290.5 318,-290.5"/>
<text text-anchor="middle" x="339" y="-297.9" font-family="DejaVuSans" font-size="12.00">tex.h</text>
</a>
</g>
</g>
<!-- Node1&#45;&gt;Node16 -->
<g id="edge26" class="edge">
<title>Node1&#45;&gt;Node16</title>
<path fill="none" stroke="midnightblue" d="M443.56,-696.23C435.59,-687.44 424.46,-673.82 418,-660 382.47,-584.02 376,-559.88 376,-476 376,-476 376,-476 376,-416 376,-380.99 360.02,-342.76 349.06,-320.67"/>
<polygon fill="midnightblue" stroke="midnightblue" points="352.15,-319.01 344.46,-311.72 345.92,-322.21 352.15,-319.01"/>
</g>
<!-- Node18 -->
<g id="node18" class="node">
<title>Node18</title>
<g id="a_node18"><a xlink:href="box_8h.html" target="_top" xlink:title=" ">
<polygon fill="white" stroke="black" points="378,-174.5 378,-195.5 424,-195.5 424,-174.5 378,-174.5"/>
<text text-anchor="middle" x="401" y="-181.9" font-family="DejaVuSans" font-size="12.00">box.h</text>
</a>
</g>
</g>
<!-- Node1&#45;&gt;Node18 -->
<g id="edge41" class="edge">
<title>Node1&#45;&gt;Node18</title>
<path fill="none" stroke="midnightblue" d="M450.2,-696.46C441.25,-665.16 414,-562.67 414,-476 414,-476 414,-476 414,-300 414,-266.77 408.48,-228.44 404.63,-205.77"/>
<polygon fill="midnightblue" stroke="midnightblue" points="408.05,-204.96 402.86,-195.72 401.15,-206.17 408.05,-204.96"/>
</g>
<!-- Node19 -->
<g id="node19" class="node">
<title>Node19</title>
<g id="a_node19"><a xlink:href="texfunc_8h.html" target="_top" xlink:title=" ">
<polygon fill="white" stroke="black" points="442.5,-522.5 442.5,-543.5 507.5,-543.5 507.5,-522.5 442.5,-522.5"/>
<text text-anchor="middle" x="475" y="-529.9" font-family="DejaVuSans" font-size="12.00">texfunc.h</text>
</a>
</g>
</g>
<!-- Node1&#45;&gt;Node19 -->
<g id="edge24" class="edge">
<title>Node1&#45;&gt;Node19</title>
<path fill="none" stroke="midnightblue" d="M454.25,-696.26C457.76,-668.82 467.77,-590.51 472.49,-553.64"/>
<polygon fill="midnightblue" stroke="midnightblue" points="475.97,-554 473.77,-543.63 469.03,-553.11 475.97,-554"/>
</g>
<!-- Node20 -->
<g id="node20" class="node">
<title>Node20</title>
<g id="a_node20"><a xlink:href="macros_8h.html" target="_top" xlink:title=" ">
<polygon fill="white" stroke="black" points="649.5,-638.5 649.5,-659.5 714.5,-659.5 714.5,-638.5 649.5,-638.5"/>
<text text-anchor="middle" x="682" y="-645.9" font-family="DejaVuSans" font-size="12.00">macros.h</text>
</a>
</g>
</g>
<!-- Node1&#45;&gt;Node20 -->
<g id="edge28" class="edge">
<title>Node1&#45;&gt;Node20</title>
<path fill="none" stroke="midnightblue" d="M478.82,-699.68C517.84,-690.14 592.24,-671.95 639.37,-660.42"/>
<polygon fill="midnightblue" stroke="midnightblue" points="640.4,-663.78 649.28,-658 638.73,-656.98 640.4,-663.78"/>
</g>
<!-- Node21 -->
<g id="node21" class="node">
<title>Node21</title>
<g id="a_node21"><a xlink:href="expand_8h.html" target="_top" xlink:title=" ">
<polygon fill="white" stroke="black" points="733,-638.5 733,-659.5 799,-659.5 799,-638.5 733,-638.5"/>
<text text-anchor="middle" x="766" y="-645.9" font-family="DejaVuSans" font-size="12.00">expand.h</text>
</a>
</g>
</g>
<!-- Node1&#45;&gt;Node21 -->
<g id="edge29" class="edge">
<title>Node1&#45;&gt;Node21</title>
<path fill="none" stroke="midnightblue" d="M478.51,-702.24C525.07,-695.26 627.14,-679.39 722.75,-660.16"/>
<polygon fill="midnightblue" stroke="midnightblue" points="723.47,-663.59 732.57,-658.17 722.08,-656.73 723.47,-663.59"/>
</g>
<!-- Node22 -->
<g id="node22" class="node">
<title>Node22</title>
<g id="a_node22"><a xlink:href="texmath_8h.html" target="_top" xlink:title=" ">
<polygon fill="white" stroke="black" points="17,-580.5 17,-601.5 85,-601.5 85,-580.5 17,-580.5"/>
<text text-anchor="middle" x="51" y="-587.9" font-family="DejaVuSans" font-size="12.00">texmath.h</text>
</a>
</g>
</g>
<!-- Node1&#45;&gt;Node22 -->
<g id="edge30" class="edge">
<title>Node1&#45;&gt;Node22</title>
<path fill="none" stroke="midnightblue" d="M427.3,-705.04C356.68,-702.02 161.25,-691 106,-660 85.82,-648.68 70.18,-626.74 60.82,-610.84"/>
<polygon fill="midnightblue" stroke="midnightblue" points="63.75,-608.9 55.82,-601.87 57.63,-612.31 63.75,-608.9"/>
</g>
<!-- Node23 -->
<g id="node23" class="node">
<title>Node23</title>
<g id="a_node23"><a xlink:href="fonts_8h.html" target="_top" xlink:title=" ">
<polygon fill="white" stroke="black" points="644,-116.5 644,-137.5 696,-137.5 696,-116.5 644,-116.5"/>
<text text-anchor="middle" x="670" y="-123.9" font-family="DejaVuSans" font-size="12.00">fonts.h</text>
</a>
</g>
</g>
<!-- Node1&#45;&gt;Node23 -->
<g id="edge32" class="edge">
<title>Node1&#45;&gt;Node23</title>
<path fill="none" stroke="midnightblue" d="M478.77,-701.35C504.21,-695.57 542.84,-683.47 568,-660 671.84,-563.12 678,-502.01 678,-360 678,-360 678,-360 678,-242 678,-208.9 674.6,-170.53 672.24,-147.82"/>
<polygon fill="midnightblue" stroke="midnightblue" points="675.7,-147.31 671.15,-137.74 668.74,-148.06 675.7,-147.31"/>
</g>
<!-- Node24 -->
<g id="node24" class="node">
<title>Node24</title>
<g id="a_node24"><a xlink:href="printout_8h.html" target="_top" xlink:title=" ">
<polygon fill="white" stroke="black" points="817,-638.5 817,-659.5 883,-659.5 883,-638.5 817,-638.5"/>
<text text-anchor="middle" x="850" y="-645.9" font-family="DejaVuSans" font-size="12.00">printout.h</text>
</a>
</g>
</g>
<!-- Node1&#45;&gt;Node24 -->
<g id="edge35" class="edge">
<title>Node1&#45;&gt;Node24</title>
<path fill="none" stroke="midnightblue" d="M478.54,-703.62C535.61,-698.1 677.96,-683.25 806.57,-660.11"/>
<polygon fill="midnightblue" stroke="midnightblue" points="807.39,-663.52 816.6,-658.29 806.13,-656.64 807.39,-663.52"/>
</g>
<!-- Node25 -->
<g id="node25" class="node">
<title>Node25</title>
<g id="a_node25"><a xlink:href="error_8h.html" target="_top" xlink:title=" ">
<polygon fill="white" stroke="black" points="901.5,-638.5 901.5,-659.5 952.5,-659.5 952.5,-638.5 901.5,-638.5"/>
<text text-anchor="middle" x="927" y="-645.9" font-family="DejaVuSans" font-size="12.00">error.h</text>
</a>
</g>
</g>
<!-- Node1&#45;&gt;Node25 -->
<g id="edge36" class="edge">
<title>Node1&#45;&gt;Node25</title>
<path fill="none" stroke="midnightblue" d="M478.96,-704.86C545.8,-701.58 729.28,-690.49 891,-659.88"/>
<polygon fill="midnightblue" stroke="midnightblue" points="891.97,-663.26 901.13,-657.93 890.65,-656.39 891.97,-663.26"/>
</g>
<!-- Node26 -->
<g id="node26" class="node">
<title>Node26</title>
<g id="a_node26"><a xlink:href="eqtb_8h.html" target="_top" xlink:title=" ">
<polygon fill="white" stroke="black" points="110,-290.5 110,-311.5 160,-311.5 160,-290.5 110,-290.5"/>
<text text-anchor="middle" x="135" y="-297.9" font-family="DejaVuSans" font-size="12.00">eqtb.h</text>
</a>
</g>
</g>
<!-- Node1&#45;&gt;Node26 -->
<g id="edge37" class="edge">
<title>Node1&#45;&gt;Node26</title>
<path fill="none" stroke="midnightblue" d="M427.26,-705.67C379.97,-704.13 277.07,-696.49 200,-660 157.82,-640.03 120,-638.66 120,-592 120,-592 120,-592 120,-416 120,-382.7 126.37,-344.39 130.81,-321.74"/>
<polygon fill="midnightblue" stroke="midnightblue" points="134.29,-322.2 132.85,-311.7 127.43,-320.8 134.29,-322.2"/>
</g>
<!-- Node27 -->
<g id="node27" class="node">
<title>Node27</title>
<g id="a_node27"><a xlink:href="print_8h.html" target="_top" xlink:title=" ">
<polygon fill="white" stroke="black" points="209,-638.5 209,-659.5 259,-659.5 259,-638.5 209,-638.5"/>
<text text-anchor="middle" x="234" y="-645.9" font-family="DejaVuSans" font-size="12.00">print.h</text>
</a>
</g>
</g>
<!-- Node1&#45;&gt;Node27 -->
<g id="edge42" class="edge">
<title>Node1&#45;&gt;Node27</title>
<path fill="none" stroke="midnightblue" d="M427.45,-699.47C388.2,-689.43 312.97,-670.19 268.78,-658.89"/>
<polygon fill="midnightblue" stroke="midnightblue" points="269.61,-655.49 259.05,-656.41 267.87,-662.27 269.61,-655.49"/>
</g>
<!-- Node3&#45;&gt;Node4 -->
<g id="edge3" class="edge">
<title>Node3&#45;&gt;Node4</title>
<path fill="none" stroke="midnightblue" d="M297.26,-580.25C298.98,-572.86 301.39,-562.47 303.49,-553.41"/>
<polygon fill="midnightblue" stroke="midnightblue" points="306.91,-554.18 305.76,-543.64 300.09,-552.59 306.91,-554.18"/>
</g>
<!-- Node5 -->
<g id="node5" class="node">
<title>Node5</title>
<g id="a_node5"><a xlink:href="tex__types_8h.html" target="_top" xlink:title=" ">
<polygon fill="white" stroke="black" points="149.5,-58.5 149.5,-79.5 226.5,-79.5 226.5,-58.5 149.5,-58.5"/>
<text text-anchor="middle" x="188" y="-65.9" font-family="DejaVuSans" font-size="12.00">tex_types.h</text>
</a>
</g>
</g>
<!-- Node4&#45;&gt;Node5 -->
<g id="edge4" class="edge">
<title>Node4&#45;&gt;Node5</title>
<path fill="none" stroke="midnightblue" d="M300.49,-522.17C274.22,-486.75 188,-361.54 188,-244 188,-244 188,-244 188,-184 188,-150.98 188,-112.59 188,-89.85"/>
<polygon fill="midnightblue" stroke="midnightblue" points="191.5,-89.76 188,-79.76 184.5,-89.76 191.5,-89.76"/>
</g>
<!-- Node4&#45;&gt;Node8 -->
<g id="edge7" class="edge">
<title>Node4&#45;&gt;Node8</title>
<path fill="none" stroke="midnightblue" d="M334.73,-525.13C372.91,-515.32 443.3,-497.24 487.21,-485.96"/>
<polygon fill="midnightblue" stroke="midnightblue" points="488.15,-489.34 496.97,-483.46 486.41,-482.56 488.15,-489.34"/>
</g>
<!-- Node6 -->
<g id="node6" class="node">
<title>Node6</title>
<g id="a_node6"><a xlink:title=" ">
<polygon fill="white" stroke="#bfbfbf" points="155.5,-0.5 155.5,-21.5 220.5,-21.5 220.5,-0.5 155.5,-0.5"/>
<text text-anchor="middle" x="188" y="-7.9" font-family="DejaVuSans" font-size="12.00">stdbool.h</text>
</a>
</g>
</g>
<!-- Node5&#45;&gt;Node6 -->
<g id="edge5" class="edge">
<title>Node5&#45;&gt;Node6</title>
<path fill="none" stroke="midnightblue" d="M188,-58.25C188,-50.94 188,-40.69 188,-31.7"/>
<polygon fill="midnightblue" stroke="midnightblue" points="191.5,-31.64 188,-21.64 184.5,-31.64 191.5,-31.64"/>
</g>
<!-- Node7 -->
<g id="node7" class="node">
<title>Node7</title>
<g id="a_node7"><a xlink:title=" ">
<polygon fill="white" stroke="#bfbfbf" points="297.5,-0.5 297.5,-21.5 352.5,-21.5 352.5,-0.5 297.5,-0.5"/>
<text text-anchor="middle" x="325" y="-7.9" font-family="DejaVuSans" font-size="12.00">stdint.h</text>
</a>
</g>
</g>
<!-- Node5&#45;&gt;Node7 -->
<g id="edge6" class="edge">
<title>Node5&#45;&gt;Node7</title>
<path fill="none" stroke="midnightblue" d="M211.55,-58.37C233.84,-49.26 267.49,-35.51 292.36,-25.34"/>
<polygon fill="midnightblue" stroke="midnightblue" points="293.82,-28.52 301.76,-21.5 291.18,-22.05 293.82,-28.52"/>
</g>
<!-- Node9 -->
<g id="node9" class="node">
<title>Node9</title>
<g id="a_node9"><a xlink:title=" ">
<polygon fill="white" stroke="#bfbfbf" points="480,-406.5 480,-427.5 542,-427.5 542,-406.5 480,-406.5"/>
<text text-anchor="middle" x="511" y="-413.9" font-family="DejaVuSans" font-size="12.00">setjmp.h</text>
</a>
</g>
</g>
<!-- Node8&#45;&gt;Node9 -->
<g id="edge8" class="edge">
<title>Node8&#45;&gt;Node9</title>
<path fill="none" stroke="midnightblue" d="M523.39,-464.25C521.41,-456.86 518.63,-446.47 516.2,-437.41"/>
<polygon fill="midnightblue" stroke="midnightblue" points="519.55,-436.4 513.58,-427.64 512.79,-438.21 519.55,-436.4"/>
</g>
<!-- Node10 -->
<g id="node10" class="node">
<title>Node10</title>
<g id="a_node10"><a xlink:href="str_8h.html" target="_top" xlink:title=" ">
<polygon fill="white" stroke="black" points="406.5,-116.5 406.5,-137.5 445.5,-137.5 445.5,-116.5 406.5,-116.5"/>
<text text-anchor="middle" x="426" y="-123.9" font-family="DejaVuSans" font-size="12.00">str.h</text>
</a>
</g>
</g>
<!-- Node8&#45;&gt;Node10 -->
<g id="edge9" class="edge">
<title>Node8&#45;&gt;Node10</title>
<path fill="none" stroke="midnightblue" d="M532.49,-464.42C544.73,-445.4 570,-401.16 570,-360 570,-360 570,-360 570,-242 570,-184.12 497.59,-151 455.47,-136.63"/>
<polygon fill="midnightblue" stroke="midnightblue" points="456.31,-133.23 445.72,-133.46 454.14,-139.88 456.31,-133.23"/>
</g>
<!-- Node8&#45;&gt;Node14 -->
<g id="edge16" class="edge">
<title>Node8&#45;&gt;Node14</title>
<path fill="none" stroke="midnightblue" d="M543.07,-464.25C558.25,-455.57 580.66,-442.76 598.06,-432.82"/>
<polygon fill="midnightblue" stroke="midnightblue" points="600.18,-435.64 607.13,-427.64 596.71,-429.57 600.18,-435.64"/>
</g>
<!-- Node10&#45;&gt;Node5 -->
<g id="edge15" class="edge">
<title>Node10&#45;&gt;Node5</title>
<path fill="none" stroke="midnightblue" d="M406.12,-121.32C369.15,-112.62 288.84,-93.73 236.67,-81.45"/>
<polygon fill="midnightblue" stroke="midnightblue" points="237.17,-77.97 226.63,-79.09 235.56,-84.79 237.17,-77.97"/>
</g>
<!-- Node10&#45;&gt;Node7 -->
<g id="edge11" class="edge">
<title>Node10&#45;&gt;Node7</title>
<path fill="none" stroke="midnightblue" d="M417.39,-116.28C400.32,-97.01 361.99,-53.75 340.45,-29.43"/>
<polygon fill="midnightblue" stroke="midnightblue" points="342.84,-26.86 333.59,-21.69 337.6,-31.5 342.84,-26.86"/>
</g>
<!-- Node11 -->
<g id="node11" class="node">
<title>Node11</title>
<g id="a_node11"><a xlink:title=" ">
<polygon fill="white" stroke="#bfbfbf" points="571,-0.5 571,-21.5 623,-21.5 623,-0.5 571,-0.5"/>
<text text-anchor="middle" x="597" y="-7.9" font-family="DejaVuSans" font-size="12.00">stdio.h</text>
</a>
</g>
</g>
<!-- Node10&#45;&gt;Node11 -->
<g id="edge10" class="edge">
<title>Node10&#45;&gt;Node11</title>
<path fill="none" stroke="midnightblue" d="M445.76,-123.64C473.8,-119.38 525.47,-108.08 559,-80 574.33,-67.16 584.63,-46.47 590.6,-31.27"/>
<polygon fill="midnightblue" stroke="midnightblue" points="593.91,-32.39 594.04,-21.8 587.33,-30 593.91,-32.39"/>
</g>
<!-- Node12 -->
<g id="node12" class="node">
<title>Node12</title>
<g id="a_node12"><a xlink:href="global__const_8h.html" target="_top" xlink:title=" ">
<polygon fill="white" stroke="black" points="456.5,-58.5 456.5,-79.5 549.5,-79.5 549.5,-58.5 456.5,-58.5"/>
<text text-anchor="middle" x="503" y="-65.9" font-family="DejaVuSans" font-size="12.00">global_const.h</text>
</a>
</g>
</g>
<!-- Node10&#45;&gt;Node12 -->
<g id="edge12" class="edge">
<title>Node10&#45;&gt;Node12</title>
<path fill="none" stroke="midnightblue" d="M439.41,-116.25C451.01,-107.81 467.97,-95.47 481.47,-85.66"/>
<polygon fill="midnightblue" stroke="midnightblue" points="483.71,-88.36 489.74,-79.64 479.6,-82.69 483.71,-88.36"/>
</g>
<!-- Node12&#45;&gt;Node11 -->
<g id="edge14" class="edge">
<title>Node12&#45;&gt;Node11</title>
<path fill="none" stroke="midnightblue" d="M519.37,-58.25C533.93,-49.57 555.43,-36.76 572.12,-26.82"/>
<polygon fill="midnightblue" stroke="midnightblue" points="574.01,-29.77 580.81,-21.64 570.43,-23.75 574.01,-29.77"/>
</g>
<!-- Node13 -->
<g id="node13" class="node">
<title>Node13</title>
<g id="a_node13"><a xlink:title=" ">
<polygon fill="white" stroke="#bfbfbf" points="473.5,-0.5 473.5,-21.5 532.5,-21.5 532.5,-0.5 473.5,-0.5"/>
<text text-anchor="middle" x="503" y="-7.9" font-family="DejaVuSans" font-size="12.00">assert.h</text>
</a>
</g>
</g>
<!-- Node12&#45;&gt;Node13 -->
<g id="edge13" class="edge">
<title>Node12&#45;&gt;Node13</title>
<path fill="none" stroke="midnightblue" d="M503,-58.25C503,-50.94 503,-40.69 503,-31.7"/>
<polygon fill="midnightblue" stroke="midnightblue" points="506.5,-31.64 503,-21.64 499.5,-31.64 506.5,-31.64"/>
</g>
<!-- Node15 -->
<g id="node15" class="node">
<title>Node15</title>
<g id="a_node15"><a xlink:href="lexer_8h.html" target="_top" xlink:title=" ">
<polygon fill="white" stroke="black" points="598,-348.5 598,-369.5 650,-369.5 650,-348.5 598,-348.5"/>
<text text-anchor="middle" x="624" y="-355.9" font-family="DejaVuSans" font-size="12.00">lexer.h</text>
</a>
</g>
</g>
<!-- Node14&#45;&gt;Node15 -->
<g id="edge17" class="edge">
<title>Node14&#45;&gt;Node15</title>
<path fill="none" stroke="midnightblue" d="M624,-406.25C624,-398.94 624,-388.69 624,-379.7"/>
<polygon fill="midnightblue" stroke="midnightblue" points="627.5,-379.64 624,-369.64 620.5,-379.64 627.5,-379.64"/>
</g>
<!-- Node15&#45;&gt;Node11 -->
<g id="edge18" class="edge">
<title>Node15&#45;&gt;Node11</title>
<path fill="none" stroke="midnightblue" d="M622.85,-348.26C620.64,-328.58 616,-282.69 616,-244 616,-244 616,-244 616,-126 616,-92.38 607.86,-53.92 602.23,-31.37"/>
<polygon fill="midnightblue" stroke="midnightblue" points="605.62,-30.47 599.72,-21.67 598.84,-32.23 605.62,-30.47"/>
</g>
<!-- Node15&#45;&gt;Node16 -->
<g id="edge19" class="edge">
<title>Node15&#45;&gt;Node16</title>
<path fill="none" stroke="midnightblue" d="M597.95,-352.88C545.41,-342.56 426.93,-319.28 370.29,-308.15"/>
<polygon fill="midnightblue" stroke="midnightblue" points="370.64,-304.65 360.15,-306.16 369.29,-311.52 370.64,-304.65"/>
</g>
<!-- Node16&#45;&gt;Node5 -->
<g id="edge20" class="edge">
<title>Node16&#45;&gt;Node5</title>
<path fill="none" stroke="midnightblue" d="M324.25,-290.42C312.05,-281.95 294.86,-268.68 283,-254 239.78,-200.54 208.12,-124.28 194.87,-89.11"/>
<polygon fill="midnightblue" stroke="midnightblue" points="198.1,-87.76 191.35,-79.59 191.53,-90.18 198.1,-87.76"/>
</g>
<!-- Node17 -->
<g id="node17" class="node">
<title>Node17</title>
<g id="a_node17"><a xlink:href="tex__constant_8h.html" target="_top" xlink:title=" ">
<polygon fill="white" stroke="black" points="292,-232.5 292,-253.5 386,-253.5 386,-232.5 292,-232.5"/>
<text text-anchor="middle" x="339" y="-239.9" font-family="DejaVuSans" font-size="12.00">tex_constant.h</text>
</a>
</g>
</g>
<!-- Node16&#45;&gt;Node17 -->
<g id="edge21" class="edge">
<title>Node16&#45;&gt;Node17</title>
<path fill="none" stroke="midnightblue" d="M339,-290.25C339,-282.94 339,-272.69 339,-263.7"/>
<polygon fill="midnightblue" stroke="midnightblue" points="342.5,-263.64 339,-253.64 335.5,-263.64 342.5,-263.64"/>
</g>
<!-- Node17&#45;&gt;Node18 -->
<g id="edge22" class="edge">
<title>Node17&#45;&gt;Node18</title>
<path fill="none" stroke="midnightblue" d="M349.8,-232.25C358.87,-224.05 372.02,-212.17 382.72,-202.51"/>
<polygon fill="midnightblue" stroke="midnightblue" points="385.25,-204.94 390.32,-195.64 380.56,-199.75 385.25,-204.94"/>
</g>
<!-- Node18&#45;&gt;Node10 -->
<g id="edge23" class="edge">
<title>Node18&#45;&gt;Node10</title>
<path fill="none" stroke="midnightblue" d="M405.35,-174.25C408.72,-166.7 413.49,-156.02 417.6,-146.82"/>
<polygon fill="midnightblue" stroke="midnightblue" points="420.81,-148.2 421.7,-137.64 414.42,-145.35 420.81,-148.2"/>
</g>
<!-- Node19&#45;&gt;Node10 -->
<g id="edge25" class="edge">
<title>Node19&#45;&gt;Node10</title>
<path fill="none" stroke="midnightblue" d="M471.7,-522.37C465.34,-502.91 452,-457.37 452,-418 452,-418 452,-418 452,-242 452,-207.98 440.86,-169.65 433.16,-147.23"/>
<polygon fill="midnightblue" stroke="midnightblue" points="436.38,-145.83 429.73,-137.59 429.79,-148.19 436.38,-145.83"/>
</g>
<!-- Node22&#45;&gt;Node5 -->
<g id="edge31" class="edge">
<title>Node22&#45;&gt;Node5</title>
<path fill="none" stroke="midnightblue" d="M50,-580.25C48.06,-560.57 44,-514.67 44,-476 44,-476 44,-476 44,-184 44,-151.95 45.64,-138.96 68,-116 87.01,-96.47 115.21,-85.1 139.49,-78.56"/>
<polygon fill="midnightblue" stroke="midnightblue" points="140.42,-81.93 149.27,-76.12 138.72,-75.14 140.42,-81.93"/>
</g>
<!-- Node23&#45;&gt;Node11 -->
<g id="edge33" class="edge">
<title>Node23&#45;&gt;Node11</title>
<path fill="none" stroke="midnightblue" d="M664.58,-116.15C657.13,-102.77 643.15,-78.2 630,-58 623.86,-48.56 616.6,-38.36 610.46,-29.97"/>
<polygon fill="midnightblue" stroke="midnightblue" points="613.1,-27.65 604.34,-21.69 607.48,-31.81 613.1,-27.65"/>
</g>
<!-- Node23&#45;&gt;Node12 -->
<g id="edge34" class="edge">
<title>Node23&#45;&gt;Node12</title>
<path fill="none" stroke="midnightblue" d="M643.91,-117.25C616.34,-108.01 572.6,-93.34 541.16,-82.8"/>
<polygon fill="midnightblue" stroke="midnightblue" points="542.02,-79.39 531.42,-79.53 539.79,-86.03 542.02,-79.39"/>
</g>
<!-- Node26&#45;&gt;Node5 -->
<g id="edge38" class="edge">
<title>Node26&#45;&gt;Node5</title>
<path fill="none" stroke="midnightblue" d="M136.74,-290.35C141.75,-262.91 156.97,-182.09 174,-116 176.26,-107.23 179.12,-97.64 181.66,-89.49"/>
<polygon fill="midnightblue" stroke="midnightblue" points="185.05,-90.39 184.75,-79.8 178.38,-88.27 185.05,-90.39"/>
</g>
<!-- Node26&#45;&gt;Node17 -->
<g id="edge39" class="edge">
<title>Node26&#45;&gt;Node17</title>
<path fill="none" stroke="midnightblue" d="M160.01,-293.13C193.43,-283.96 253.21,-267.55 294.43,-256.24"/>
<polygon fill="midnightblue" stroke="midnightblue" points="295.5,-259.57 304.22,-253.55 293.65,-252.82 295.5,-259.57"/>
</g>
<!-- Node27&#45;&gt;Node3 -->
<g id="edge45" class="edge">
<title>Node27&#45;&gt;Node3</title>
<path fill="none" stroke="midnightblue" d="M244.63,-638.25C253.55,-630.05 266.49,-618.17 277.02,-608.51"/>
<polygon fill="midnightblue" stroke="midnightblue" points="279.5,-610.98 284.5,-601.64 274.76,-605.83 279.5,-610.98"/>
</g>
<!-- Node27&#45;&gt;Node5 -->
<g id="edge43" class="edge">
<title>Node27&#45;&gt;Node5</title>
<path fill="none" stroke="midnightblue" d="M215.36,-638.35C174.77,-615.85 82,-555.7 82,-476 82,-476 82,-476 82,-184 82,-138.25 128.35,-103.15 159.75,-84.63"/>
<polygon fill="midnightblue" stroke="midnightblue" points="161.59,-87.61 168.56,-79.63 158.13,-81.53 161.59,-87.61"/>
</g>
<!-- Node27&#45;&gt;Node10 -->
<g id="edge46" class="edge">
<title>Node27&#45;&gt;Node10</title>
<path fill="none" stroke="midnightblue" d="M228.39,-638.3C217.82,-619.07 196,-574.47 196,-534 196,-534 196,-534 196,-416 196,-325.54 225.29,-301.66 283,-232 315.66,-192.58 366.44,-160.39 397.88,-142.73"/>
<polygon fill="midnightblue" stroke="midnightblue" points="399.91,-145.62 406.98,-137.73 396.53,-139.48 399.91,-145.62"/>
</g>
<!-- Node27&#45;&gt;Node16 -->
<g id="edge44" class="edge">
<title>Node27&#45;&gt;Node16</title>
<path fill="none" stroke="midnightblue" d="M234,-638.24C234,-618.54 234,-572.59 234,-534 234,-534 234,-534 234,-474 234,-408.48 290.19,-346.78 320.36,-318.37"/>
<polygon fill="midnightblue" stroke="midnightblue" points="322.76,-320.91 327.76,-311.57 318.03,-315.76 322.76,-320.91"/>
</g>
</g>
</svg>
