<?xml version="1.0" encoding="UTF-8" standalone="no"?>
<!DOCTYPE svg PUBLIC "-//W3C//DTD SVG 1.1//EN"
 "http://www.w3.org/Graphics/SVG/1.1/DTD/svg11.dtd">
<!-- Generated by graphviz version 2.44.0 ()
 -->
<!-- Title: scan.c Pages: 1 -->
<svg width="996pt" height="552pt"
 viewBox="0.00 0.00 996.00 552.00" xmlns="http://www.w3.org/2000/svg" xmlns:xlink="http://www.w3.org/1999/xlink">
<g id="graph0" class="graph" transform="scale(1 1) rotate(0) translate(4 548)">
<title>scan.c</title>
<polygon fill="white" stroke="transparent" points="-4,4 -4,-548 992,-548 992,4 -4,4"/>
<!-- Node1 -->
<g id="node1" class="node">
<title>Node1</title>
<g id="a_node1"><a xlink:title=" ">
<polygon fill="#bfbfbf" stroke="black" points="406.5,-522.5 406.5,-543.5 457.5,-543.5 457.5,-522.5 406.5,-522.5"/>
<text text-anchor="middle" x="432" y="-529.9" font-family="DejaVuSans" font-size="12.00">scan.c</text>
</a>
</g>
</g>
<!-- Node2 -->
<g id="node2" class="node">
<title>Node2</title>
<g id="a_node2"><a xlink:title=" ">
<polygon fill="white" stroke="#bfbfbf" points="16,-464.5 16,-485.5 70,-485.5 70,-464.5 16,-464.5"/>
<text text-anchor="middle" x="43" y="-471.9" font-family="DejaVuSans" font-size="12.00">stdlib.h</text>
</a>
</g>
</g>
<!-- Node1&#45;&gt;Node2 -->
<g id="edge1" class="edge">
<title>Node1&#45;&gt;Node2</title>
<path fill="none" stroke="midnightblue" d="M406.09,-529.54C348.09,-523.82 203.5,-508.4 84,-486 82.74,-485.76 81.47,-485.51 80.18,-485.25"/>
<polygon fill="midnightblue" stroke="midnightblue" points="80.78,-481.8 70.26,-483.08 79.28,-488.64 80.78,-481.8"/>
</g>
<!-- Node3 -->
<g id="node3" class="node">
<title>Node3</title>
<g id="a_node3"><a xlink:href="tex_8h.html" target="_top" xlink:title=" ">
<polygon fill="white" stroke="black" points="495,-348.5 495,-369.5 537,-369.5 537,-348.5 495,-348.5"/>
<text text-anchor="middle" x="516" y="-355.9" font-family="DejaVuSans" font-size="12.00">tex.h</text>
</a>
</g>
</g>
<!-- Node1&#45;&gt;Node3 -->
<g id="edge2" class="edge">
<title>Node1&#45;&gt;Node3</title>
<path fill="none" stroke="midnightblue" d="M430.44,-522.41C428.66,-508.92 426.82,-483.76 434,-464 446.98,-428.29 477.36,-395.35 497.28,-376.48"/>
<polygon fill="midnightblue" stroke="midnightblue" points="499.86,-378.87 504.84,-369.52 495.12,-373.72 499.86,-378.87"/>
</g>
<!-- Node11 -->
<g id="node11" class="node">
<title>Node11</title>
<g id="a_node11"><a xlink:href="box_8h.html" target="_top" xlink:title=" ">
<polygon fill="white" stroke="black" points="336,-232.5 336,-253.5 382,-253.5 382,-232.5 336,-232.5"/>
<text text-anchor="middle" x="359" y="-239.9" font-family="DejaVuSans" font-size="12.00">box.h</text>
</a>
</g>
</g>
<!-- Node1&#45;&gt;Node11 -->
<g id="edge49" class="edge">
<title>Node1&#45;&gt;Node11</title>
<path fill="none" stroke="midnightblue" d="M414.49,-522.43C401.14,-514.32 383.2,-501.55 372,-486 356.06,-463.88 356.51,-454.89 352,-428 342.3,-370.14 397.93,-368.13 415,-312 417.84,-302.65 419.18,-298.84 415,-290 408.98,-277.25 397.5,-266.85 386.49,-259.19"/>
<polygon fill="midnightblue" stroke="midnightblue" points="388.18,-256.11 377.88,-253.63 384.39,-261.99 388.18,-256.11"/>
</g>
<!-- Node14 -->
<g id="node14" class="node">
<title>Node14</title>
<g id="a_node14"><a xlink:href="texmath_8h.html" target="_top" xlink:title=" ">
<polygon fill="white" stroke="black" points="260,-174.5 260,-195.5 328,-195.5 328,-174.5 260,-174.5"/>
<text text-anchor="middle" x="294" y="-181.9" font-family="DejaVuSans" font-size="12.00">texmath.h</text>
</a>
</g>
</g>
<!-- Node1&#45;&gt;Node14 -->
<g id="edge33" class="edge">
<title>Node1&#45;&gt;Node14</title>
<path fill="none" stroke="midnightblue" d="M406.22,-530.85C370.66,-528.06 306.07,-518.53 263,-486 214.95,-449.71 209.15,-428.01 193,-370 174.27,-302.72 240.18,-233.06 274.51,-202.29"/>
<polygon fill="midnightblue" stroke="midnightblue" points="276.87,-204.87 282.09,-195.66 272.26,-199.6 276.87,-204.87"/>
</g>
<!-- Node15 -->
<g id="node15" class="node">
<title>Node15</title>
<g id="a_node15"><a xlink:href="texfunc_8h.html" target="_top" xlink:title=" ">
<polygon fill="white" stroke="black" points="519.5,-232.5 519.5,-253.5 584.5,-253.5 584.5,-232.5 519.5,-232.5"/>
<text text-anchor="middle" x="552" y="-239.9" font-family="DejaVuSans" font-size="12.00">texfunc.h</text>
</a>
</g>
</g>
<!-- Node1&#45;&gt;Node15 -->
<g id="edge20" class="edge">
<title>Node1&#45;&gt;Node15</title>
<path fill="none" stroke="midnightblue" d="M457.54,-532.65C495.07,-532.15 564.97,-525.53 605,-486 627.33,-463.95 624,-449.38 624,-418 624,-418 624,-418 624,-358 624,-325.95 617.38,-316.93 600,-290 592.74,-278.75 582.2,-268.25 572.85,-260.13"/>
<polygon fill="midnightblue" stroke="midnightblue" points="574.97,-257.34 565.05,-253.65 570.5,-262.73 574.97,-257.34"/>
</g>
<!-- Node16 -->
<g id="node16" class="node">
<title>Node16</title>
<g id="a_node16"><a xlink:href="global_8h.html" target="_top" xlink:title=" ">
<polygon fill="white" stroke="black" points="68,-290.5 68,-311.5 126,-311.5 126,-290.5 68,-290.5"/>
<text text-anchor="middle" x="97" y="-297.9" font-family="DejaVuSans" font-size="12.00">global.h</text>
</a>
</g>
</g>
<!-- Node1&#45;&gt;Node16 -->
<g id="edge23" class="edge">
<title>Node1&#45;&gt;Node16</title>
<path fill="none" stroke="midnightblue" d="M406.13,-530.98C345.5,-528.07 196.62,-517.79 160,-486 111.38,-443.8 138.08,-408.47 116,-348 112.75,-339.1 108.8,-329.38 105.34,-321.18"/>
<polygon fill="midnightblue" stroke="midnightblue" points="108.47,-319.59 101.32,-311.78 102.03,-322.35 108.47,-319.59"/>
</g>
<!-- Node18 -->
<g id="node18" class="node">
<title>Node18</title>
<g id="a_node18"><a xlink:href="macros_8h.html" target="_top" xlink:title=" ">
<polygon fill="white" stroke="black" points="832.5,-290.5 832.5,-311.5 897.5,-311.5 897.5,-290.5 832.5,-290.5"/>
<text text-anchor="middle" x="865" y="-297.9" font-family="DejaVuSans" font-size="12.00">macros.h</text>
</a>
</g>
</g>
<!-- Node1&#45;&gt;Node18 -->
<g id="edge27" class="edge">
<title>Node1&#45;&gt;Node18</title>
<path fill="none" stroke="midnightblue" d="M457.72,-531.39C550.17,-528.94 861.75,-518.33 891,-486 933.14,-439.42 896.15,-357.27 876.01,-320.59"/>
<polygon fill="midnightblue" stroke="midnightblue" points="878.84,-318.48 870.86,-311.52 872.75,-321.94 878.84,-318.48"/>
</g>
<!-- Node19 -->
<g id="node19" class="node">
<title>Node19</title>
<g id="a_node19"><a xlink:href="expand_8h.html" target="_top" xlink:title=" ">
<polygon fill="white" stroke="black" points="361,-406.5 361,-427.5 427,-427.5 427,-406.5 361,-406.5"/>
<text text-anchor="middle" x="394" y="-413.9" font-family="DejaVuSans" font-size="12.00">expand.h</text>
</a>
</g>
</g>
<!-- Node1&#45;&gt;Node19 -->
<g id="edge28" class="edge">
<title>Node1&#45;&gt;Node19</title>
<path fill="none" stroke="midnightblue" d="M414.94,-522.38C402.69,-514.4 387.13,-501.82 380,-486 372.91,-470.26 378.14,-450.85 384.12,-436.8"/>
<polygon fill="midnightblue" stroke="midnightblue" points="387.33,-438.18 388.44,-427.64 381,-435.19 387.33,-438.18"/>
</g>
<!-- Node20 -->
<g id="node20" class="node">
<title>Node20</title>
<g id="a_node20"><a xlink:href="lexer_8h.html" target="_top" xlink:title=" ">
<polygon fill="white" stroke="black" points="724,-406.5 724,-427.5 776,-427.5 776,-406.5 724,-406.5"/>
<text text-anchor="middle" x="750" y="-413.9" font-family="DejaVuSans" font-size="12.00">lexer.h</text>
</a>
</g>
</g>
<!-- Node1&#45;&gt;Node20 -->
<g id="edge30" class="edge">
<title>Node1&#45;&gt;Node20</title>
<path fill="none" stroke="midnightblue" d="M457.8,-531.16C545.54,-528.03 828.36,-515.69 855,-486 879.62,-458.56 825.44,-437.62 786.13,-426.62"/>
<polygon fill="midnightblue" stroke="midnightblue" points="786.82,-423.18 776.26,-423.97 785.01,-429.94 786.82,-423.18"/>
</g>
<!-- Node21 -->
<g id="node21" class="node">
<title>Node21</title>
<g id="a_node21"><a xlink:href="fonts_8h.html" target="_top" xlink:title=" ">
<polygon fill="white" stroke="black" points="674,-348.5 674,-369.5 726,-369.5 726,-348.5 674,-348.5"/>
<text text-anchor="middle" x="700" y="-355.9" font-family="DejaVuSans" font-size="12.00">fonts.h</text>
</a>
</g>
</g>
<!-- Node1&#45;&gt;Node21 -->
<g id="edge34" class="edge">
<title>Node1&#45;&gt;Node21</title>
<path fill="none" stroke="midnightblue" d="M457.58,-531.28C547.35,-528.48 844.11,-516.96 872,-486 919.51,-433.27 799.36,-388.84 736.05,-369.86"/>
<polygon fill="midnightblue" stroke="midnightblue" points="736.99,-366.49 726.41,-367.04 735.02,-373.21 736.99,-366.49"/>
</g>
<!-- Node22 -->
<g id="node22" class="node">
<title>Node22</title>
<g id="a_node22"><a xlink:href="printout_8h.html" target="_top" xlink:title=" ">
<polygon fill="white" stroke="black" points="460,-464.5 460,-485.5 526,-485.5 526,-464.5 460,-464.5"/>
<text text-anchor="middle" x="493" y="-471.9" font-family="DejaVuSans" font-size="12.00">printout.h</text>
</a>
</g>
</g>
<!-- Node1&#45;&gt;Node22 -->
<g id="edge40" class="edge">
<title>Node1&#45;&gt;Node22</title>
<path fill="none" stroke="midnightblue" d="M442.63,-522.25C451.55,-514.05 464.49,-502.17 475.02,-492.51"/>
<polygon fill="midnightblue" stroke="midnightblue" points="477.5,-494.98 482.5,-485.64 472.76,-489.83 477.5,-494.98"/>
</g>
<!-- Node23 -->
<g id="node23" class="node">
<title>Node23</title>
<g id="a_node23"><a xlink:href="error_8h.html" target="_top" xlink:title=" ">
<polygon fill="white" stroke="black" points="544.5,-464.5 544.5,-485.5 595.5,-485.5 595.5,-464.5 544.5,-464.5"/>
<text text-anchor="middle" x="570" y="-471.9" font-family="DejaVuSans" font-size="12.00">error.h</text>
</a>
</g>
</g>
<!-- Node1&#45;&gt;Node23 -->
<g id="edge41" class="edge">
<title>Node1&#45;&gt;Node23</title>
<path fill="none" stroke="midnightblue" d="M455.72,-522.37C478.17,-513.26 512.07,-499.51 537.13,-489.34"/>
<polygon fill="midnightblue" stroke="midnightblue" points="538.64,-492.5 546.59,-485.5 536,-486.02 538.64,-492.5"/>
</g>
<!-- Node24 -->
<g id="node24" class="node">
<title>Node24</title>
<g id="a_node24"><a xlink:href="eqtb_8h.html" target="_top" xlink:title=" ">
<polygon fill="white" stroke="black" points="202,-348.5 202,-369.5 252,-369.5 252,-348.5 202,-348.5"/>
<text text-anchor="middle" x="227" y="-355.9" font-family="DejaVuSans" font-size="12.00">eqtb.h</text>
</a>
</g>
</g>
<!-- Node1&#45;&gt;Node24 -->
<g id="edge42" class="edge">
<title>Node1&#45;&gt;Node24</title>
<path fill="none" stroke="midnightblue" d="M406.45,-528.93C375.6,-524.16 323.35,-512.58 287,-486 251.6,-460.12 236.27,-407.86 230.32,-379.45"/>
<polygon fill="midnightblue" stroke="midnightblue" points="233.74,-378.68 228.42,-369.52 226.86,-380 233.74,-378.68"/>
</g>
<!-- Node25 -->
<g id="node25" class="node">
<title>Node25</title>
<g id="a_node25"><a xlink:href="mem_8h.html" target="_top" xlink:title=" ">
<polygon fill="white" stroke="black" points="54.5,-348.5 54.5,-369.5 107.5,-369.5 107.5,-348.5 54.5,-348.5"/>
<text text-anchor="middle" x="81" y="-355.9" font-family="DejaVuSans" font-size="12.00">mem.h</text>
</a>
</g>
</g>
<!-- Node1&#45;&gt;Node25 -->
<g id="edge45" class="edge">
<title>Node1&#45;&gt;Node25</title>
<path fill="none" stroke="midnightblue" d="M406.04,-531.56C339.45,-529.92 164.8,-522.18 122,-486 90.5,-459.37 83.01,-408.24 81.35,-379.98"/>
<polygon fill="midnightblue" stroke="midnightblue" points="84.84,-379.59 80.95,-369.73 77.85,-379.86 84.84,-379.59"/>
</g>
<!-- Node26 -->
<g id="node26" class="node">
<title>Node26</title>
<g id="a_node26"><a xlink:href="print_8h.html" target="_top" xlink:title=" ">
<polygon fill="white" stroke="black" points="255,-406.5 255,-427.5 305,-427.5 305,-406.5 255,-406.5"/>
<text text-anchor="middle" x="280" y="-413.9" font-family="DejaVuSans" font-size="12.00">print.h</text>
</a>
</g>
</g>
<!-- Node1&#45;&gt;Node26 -->
<g id="edge50" class="edge">
<title>Node1&#45;&gt;Node26</title>
<path fill="none" stroke="midnightblue" d="M406.43,-529.33C377.8,-525.02 331.8,-513.96 304,-486 291.2,-473.12 285.2,-453.01 282.4,-438"/>
<polygon fill="midnightblue" stroke="midnightblue" points="285.8,-437.07 280.83,-427.71 278.88,-438.12 285.8,-437.07"/>
</g>
<!-- Node27 -->
<g id="node27" class="node">
<title>Node27</title>
<g id="a_node27"><a xlink:href="pack_8h.html" target="_top" xlink:title=" ">
<polygon fill="white" stroke="black" points="794,-464.5 794,-485.5 846,-485.5 846,-464.5 794,-464.5"/>
<text text-anchor="middle" x="820" y="-471.9" font-family="DejaVuSans" font-size="12.00">pack.h</text>
</a>
</g>
</g>
<!-- Node1&#45;&gt;Node27 -->
<g id="edge56" class="edge">
<title>Node1&#45;&gt;Node27</title>
<path fill="none" stroke="midnightblue" d="M457.91,-529.95C515.1,-525.15 656.53,-511.74 783.81,-486"/>
<polygon fill="midnightblue" stroke="midnightblue" points="784.64,-489.4 793.73,-483.96 783.23,-482.54 784.64,-489.4"/>
</g>
<!-- Node28 -->
<g id="node28" class="node">
<title>Node28</title>
<g id="a_node28"><a xlink:href="page_8h.html" target="_top" xlink:title=" ">
<polygon fill="white" stroke="black" points="652.5,-464.5 652.5,-485.5 705.5,-485.5 705.5,-464.5 652.5,-464.5"/>
<text text-anchor="middle" x="679" y="-471.9" font-family="DejaVuSans" font-size="12.00">page.h</text>
</a>
</g>
</g>
<!-- Node1&#45;&gt;Node28 -->
<g id="edge57" class="edge">
<title>Node1&#45;&gt;Node28</title>
<path fill="none" stroke="midnightblue" d="M457.73,-526.42C496.76,-517.93 573.23,-501.13 638,-486 639.43,-485.67 640.88,-485.32 642.35,-484.98"/>
<polygon fill="midnightblue" stroke="midnightblue" points="643.2,-488.37 652.11,-482.64 641.57,-481.56 643.2,-488.37"/>
</g>
<!-- Node29 -->
<g id="node29" class="node">
<title>Node29</title>
<g id="a_node29"><a xlink:href="dviout_8h.html" target="_top" xlink:title=" ">
<polygon fill="white" stroke="black" points="536.5,-406.5 536.5,-427.5 595.5,-427.5 595.5,-406.5 536.5,-406.5"/>
<text text-anchor="middle" x="566" y="-413.9" font-family="DejaVuSans" font-size="12.00">dviout.h</text>
</a>
</g>
</g>
<!-- Node1&#45;&gt;Node29 -->
<g id="edge59" class="edge">
<title>Node1&#45;&gt;Node29</title>
<path fill="none" stroke="midnightblue" d="M432.11,-522.4C432.78,-507.97 436.1,-480.6 451,-464 470.44,-442.34 501.47,-430.72 526.4,-424.59"/>
<polygon fill="midnightblue" stroke="midnightblue" points="527.33,-427.97 536.31,-422.35 525.79,-421.14 527.33,-427.97"/>
</g>
<!-- Node30 -->
<g id="node30" class="node">
<title>Node30</title>
<g id="a_node30"><a xlink:href="scan_8h.html" target="_top" xlink:title=" ">
<polygon fill="white" stroke="black" points="724,-464.5 724,-485.5 776,-485.5 776,-464.5 724,-464.5"/>
<text text-anchor="middle" x="750" y="-471.9" font-family="DejaVuSans" font-size="12.00">scan.h</text>
</a>
</g>
</g>
<!-- Node1&#45;&gt;Node30 -->
<g id="edge62" class="edge">
<title>Node1&#45;&gt;Node30</title>
<path fill="none" stroke="midnightblue" d="M457.56,-528.87C505.81,-522.74 613.74,-507.98 713.75,-486.08"/>
<polygon fill="midnightblue" stroke="midnightblue" points="714.71,-489.45 723.71,-483.87 713.19,-482.62 714.71,-489.45"/>
</g>
<!-- Node4 -->
<g id="node4" class="node">
<title>Node4</title>
<g id="a_node4"><a xlink:href="global__const_8h.html" target="_top" xlink:title=" ">
<polygon fill="white" stroke="black" points="620.5,-116.5 620.5,-137.5 713.5,-137.5 713.5,-116.5 620.5,-116.5"/>
<text text-anchor="middle" x="667" y="-123.9" font-family="DejaVuSans" font-size="12.00">global_const.h</text>
</a>
</g>
</g>
<!-- Node3&#45;&gt;Node4 -->
<g id="edge3" class="edge">
<title>Node3&#45;&gt;Node4</title>
<path fill="none" stroke="midnightblue" d="M523.93,-348.24C538.51,-330.15 570.22,-289.96 594,-254 618.39,-217.12 643.53,-171.82 657.01,-146.82"/>
<polygon fill="midnightblue" stroke="midnightblue" points="660.25,-148.18 661.88,-137.72 654.08,-144.88 660.25,-148.18"/>
</g>
<!-- Node7 -->
<g id="node7" class="node">
<title>Node7</title>
<g id="a_node7"><a xlink:href="tex__types_8h.html" target="_top" xlink:title=" ">
<polygon fill="white" stroke="black" points="286.5,-58.5 286.5,-79.5 363.5,-79.5 363.5,-58.5 286.5,-58.5"/>
<text text-anchor="middle" x="325" y="-65.9" font-family="DejaVuSans" font-size="12.00">tex_types.h</text>
</a>
</g>
</g>
<!-- Node3&#45;&gt;Node7 -->
<g id="edge6" class="edge">
<title>Node3&#45;&gt;Node7</title>
<path fill="none" stroke="midnightblue" d="M509.65,-348.42C482.17,-306.99 373.35,-142.91 336.94,-88.01"/>
<polygon fill="midnightblue" stroke="midnightblue" points="339.82,-86.02 331.38,-79.62 333.99,-89.89 339.82,-86.02"/>
</g>
<!-- Node10 -->
<g id="node10" class="node">
<title>Node10</title>
<g id="a_node10"><a xlink:href="tex__constant_8h.html" target="_top" xlink:title=" ">
<polygon fill="white" stroke="black" points="312,-290.5 312,-311.5 406,-311.5 406,-290.5 312,-290.5"/>
<text text-anchor="middle" x="359" y="-297.9" font-family="DejaVuSans" font-size="12.00">tex_constant.h</text>
</a>
</g>
</g>
<!-- Node3&#45;&gt;Node10 -->
<g id="edge9" class="edge">
<title>Node3&#45;&gt;Node10</title>
<path fill="none" stroke="midnightblue" d="M494.83,-350.45C469.37,-341.37 426.24,-325.98 395.41,-314.99"/>
<polygon fill="midnightblue" stroke="midnightblue" points="396.47,-311.65 385.87,-311.58 394.11,-318.24 396.47,-311.65"/>
</g>
<!-- Node5 -->
<g id="node5" class="node">
<title>Node5</title>
<g id="a_node5"><a xlink:title=" ">
<polygon fill="white" stroke="#bfbfbf" points="609.5,-58.5 609.5,-79.5 668.5,-79.5 668.5,-58.5 609.5,-58.5"/>
<text text-anchor="middle" x="639" y="-65.9" font-family="DejaVuSans" font-size="12.00">assert.h</text>
</a>
</g>
</g>
<!-- Node4&#45;&gt;Node5 -->
<g id="edge4" class="edge">
<title>Node4&#45;&gt;Node5</title>
<path fill="none" stroke="midnightblue" d="M662.12,-116.25C658.35,-108.7 653.01,-98.02 648.41,-88.82"/>
<polygon fill="midnightblue" stroke="midnightblue" points="651.42,-87.02 643.82,-79.64 645.16,-90.15 651.42,-87.02"/>
</g>
<!-- Node6 -->
<g id="node6" class="node">
<title>Node6</title>
<g id="a_node6"><a xlink:title=" ">
<polygon fill="white" stroke="#bfbfbf" points="687,-58.5 687,-79.5 739,-79.5 739,-58.5 687,-58.5"/>
<text text-anchor="middle" x="713" y="-65.9" font-family="DejaVuSans" font-size="12.00">stdio.h</text>
</a>
</g>
</g>
<!-- Node4&#45;&gt;Node6 -->
<g id="edge5" class="edge">
<title>Node4&#45;&gt;Node6</title>
<path fill="none" stroke="midnightblue" d="M675.01,-116.25C681.48,-108.38 690.74,-97.1 698.5,-87.65"/>
<polygon fill="midnightblue" stroke="midnightblue" points="701.44,-89.59 705.08,-79.64 696.03,-85.15 701.44,-89.59"/>
</g>
<!-- Node8 -->
<g id="node8" class="node">
<title>Node8</title>
<g id="a_node8"><a xlink:title=" ">
<polygon fill="white" stroke="#bfbfbf" points="292.5,-0.5 292.5,-21.5 357.5,-21.5 357.5,-0.5 292.5,-0.5"/>
<text text-anchor="middle" x="325" y="-7.9" font-family="DejaVuSans" font-size="12.00">stdbool.h</text>
</a>
</g>
</g>
<!-- Node7&#45;&gt;Node8 -->
<g id="edge7" class="edge">
<title>Node7&#45;&gt;Node8</title>
<path fill="none" stroke="midnightblue" d="M325,-58.25C325,-50.94 325,-40.69 325,-31.7"/>
<polygon fill="midnightblue" stroke="midnightblue" points="328.5,-31.64 325,-21.64 321.5,-31.64 328.5,-31.64"/>
</g>
<!-- Node9 -->
<g id="node9" class="node">
<title>Node9</title>
<g id="a_node9"><a xlink:title=" ">
<polygon fill="white" stroke="#bfbfbf" points="451.5,-0.5 451.5,-21.5 506.5,-21.5 506.5,-0.5 451.5,-0.5"/>
<text text-anchor="middle" x="479" y="-7.9" font-family="DejaVuSans" font-size="12.00">stdint.h</text>
</a>
</g>
</g>
<!-- Node7&#45;&gt;Node9 -->
<g id="edge8" class="edge">
<title>Node7&#45;&gt;Node9</title>
<path fill="none" stroke="midnightblue" d="M351.47,-58.37C376.86,-49.14 415.36,-35.14 443.42,-24.94"/>
<polygon fill="midnightblue" stroke="midnightblue" points="444.67,-28.21 452.87,-21.5 442.28,-21.63 444.67,-28.21"/>
</g>
<!-- Node10&#45;&gt;Node11 -->
<g id="edge10" class="edge">
<title>Node10&#45;&gt;Node11</title>
<path fill="none" stroke="midnightblue" d="M359,-290.25C359,-282.94 359,-272.69 359,-263.7"/>
<polygon fill="midnightblue" stroke="midnightblue" points="362.5,-263.64 359,-253.64 355.5,-263.64 362.5,-263.64"/>
</g>
<!-- Node12 -->
<g id="node12" class="node">
<title>Node12</title>
<g id="a_node12"><a xlink:href="str_8h.html" target="_top" xlink:title=" ">
<polygon fill="white" stroke="black" points="532.5,-174.5 532.5,-195.5 571.5,-195.5 571.5,-174.5 532.5,-174.5"/>
<text text-anchor="middle" x="552" y="-181.9" font-family="DejaVuSans" font-size="12.00">str.h</text>
</a>
</g>
</g>
<!-- Node11&#45;&gt;Node12 -->
<g id="edge11" class="edge">
<title>Node11&#45;&gt;Node12</title>
<path fill="none" stroke="midnightblue" d="M382.28,-235.25C417.38,-225.06 483.83,-205.78 522.35,-194.6"/>
<polygon fill="midnightblue" stroke="midnightblue" points="523.79,-197.83 532.42,-191.68 521.84,-191.11 523.79,-197.83"/>
</g>
<!-- Node11&#45;&gt;Node14 -->
<g id="edge18" class="edge">
<title>Node11&#45;&gt;Node14</title>
<path fill="none" stroke="midnightblue" d="M347.68,-232.25C338.08,-223.97 324.11,-211.94 312.83,-202.22"/>
<polygon fill="midnightblue" stroke="midnightblue" points="315.05,-199.52 305.19,-195.64 310.48,-204.82 315.05,-199.52"/>
</g>
<!-- Node12&#45;&gt;Node4 -->
<g id="edge14" class="edge">
<title>Node12&#45;&gt;Node4</title>
<path fill="none" stroke="midnightblue" d="M571.51,-174.5C589.85,-165.57 617.52,-152.1 638.36,-141.95"/>
<polygon fill="midnightblue" stroke="midnightblue" points="639.94,-145.07 647.4,-137.55 636.87,-138.78 639.94,-145.07"/>
</g>
<!-- Node12&#45;&gt;Node6 -->
<g id="edge12" class="edge">
<title>Node12&#45;&gt;Node6</title>
<path fill="none" stroke="midnightblue" d="M558.7,-174.04C568.82,-159.63 589.23,-132.87 612,-116 631.82,-101.31 657.09,-89.81 677.39,-81.98"/>
<polygon fill="midnightblue" stroke="midnightblue" points="678.76,-85.2 686.91,-78.43 676.31,-78.65 678.76,-85.2"/>
</g>
<!-- Node12&#45;&gt;Node7 -->
<g id="edge17" class="edge">
<title>Node12&#45;&gt;Node7</title>
<path fill="none" stroke="midnightblue" d="M545.95,-174.04C536.38,-159.15 516.3,-131.18 492,-116 455.9,-93.45 408.67,-81.78 373.66,-75.84"/>
<polygon fill="midnightblue" stroke="midnightblue" points="374.09,-72.37 363.67,-74.25 372.99,-79.28 374.09,-72.37"/>
</g>
<!-- Node12&#45;&gt;Node9 -->
<g id="edge13" class="edge">
<title>Node12&#45;&gt;Node9</title>
<path fill="none" stroke="midnightblue" d="M547.87,-174.26C536.17,-146.71 502.7,-67.83 487.14,-31.17"/>
<polygon fill="midnightblue" stroke="midnightblue" points="490.22,-29.47 483.09,-21.63 483.77,-32.21 490.22,-29.47"/>
</g>
<!-- Node13 -->
<g id="node13" class="node">
<title>Node13</title>
<g id="a_node13"><a xlink:href="charset_8h.html" target="_top" xlink:title=" ">
<polygon fill="white" stroke="black" points="384.5,-116.5 384.5,-137.5 449.5,-137.5 449.5,-116.5 384.5,-116.5"/>
<text text-anchor="middle" x="417" y="-123.9" font-family="DejaVuSans" font-size="12.00">charset.h</text>
</a>
</g>
</g>
<!-- Node12&#45;&gt;Node13 -->
<g id="edge15" class="edge">
<title>Node12&#45;&gt;Node13</title>
<path fill="none" stroke="midnightblue" d="M532.37,-175.86C510.71,-166.87 475.51,-152.27 449.67,-141.55"/>
<polygon fill="midnightblue" stroke="midnightblue" points="450.86,-138.26 440.28,-137.66 448.18,-144.72 450.86,-138.26"/>
</g>
<!-- Node13&#45;&gt;Node7 -->
<g id="edge16" class="edge">
<title>Node13&#45;&gt;Node7</title>
<path fill="none" stroke="midnightblue" d="M400.97,-116.25C386.86,-107.65 366.07,-95 349.81,-85.1"/>
<polygon fill="midnightblue" stroke="midnightblue" points="351.2,-81.85 340.84,-79.64 347.56,-87.83 351.2,-81.85"/>
</g>
<!-- Node14&#45;&gt;Node7 -->
<g id="edge19" class="edge">
<title>Node14&#45;&gt;Node7</title>
<path fill="none" stroke="midnightblue" d="M296.64,-174.28C301.74,-155.52 313.04,-114 319.73,-89.38"/>
<polygon fill="midnightblue" stroke="midnightblue" points="323.12,-90.26 322.36,-79.69 316.36,-88.43 323.12,-90.26"/>
</g>
<!-- Node15&#45;&gt;Node7 -->
<g id="edge21" class="edge">
<title>Node15&#45;&gt;Node7</title>
<path fill="none" stroke="midnightblue" d="M545.82,-232.14C528.94,-205.45 481.8,-132.72 459,-116 433.85,-97.55 400.74,-86.1 373.72,-79.23"/>
<polygon fill="midnightblue" stroke="midnightblue" points="374.24,-75.75 363.7,-76.82 372.6,-82.56 374.24,-75.75"/>
</g>
<!-- Node15&#45;&gt;Node12 -->
<g id="edge22" class="edge">
<title>Node15&#45;&gt;Node12</title>
<path fill="none" stroke="midnightblue" d="M552,-232.25C552,-224.94 552,-214.69 552,-205.7"/>
<polygon fill="midnightblue" stroke="midnightblue" points="555.5,-205.64 552,-195.64 548.5,-205.64 555.5,-205.64"/>
</g>
<!-- Node16&#45;&gt;Node6 -->
<g id="edge24" class="edge">
<title>Node16&#45;&gt;Node6</title>
<path fill="none" stroke="midnightblue" d="M106.77,-290.49C130.17,-268.08 191.87,-211.05 251,-174 302.9,-141.48 317.08,-132.72 376,-116 502.86,-80 543.5,-105.35 676.57,-79.99"/>
<polygon fill="midnightblue" stroke="midnightblue" points="677.6,-83.36 686.74,-77.99 676.25,-76.49 677.6,-83.36"/>
</g>
<!-- Node16&#45;&gt;Node7 -->
<g id="edge26" class="edge">
<title>Node16&#45;&gt;Node7</title>
<path fill="none" stroke="midnightblue" d="M84.58,-290.18C75,-281.75 62.49,-268.67 57,-254 53.58,-244.84 53.96,-241.29 57,-232 76.87,-171.25 88.97,-151.68 142,-116 182.17,-88.97 236.95,-77.82 276.08,-73.22"/>
<polygon fill="midnightblue" stroke="midnightblue" points="276.61,-76.68 286.18,-72.14 275.86,-69.72 276.61,-76.68"/>
</g>
<!-- Node17 -->
<g id="node17" class="node">
<title>Node17</title>
<g id="a_node17"><a xlink:title=" ">
<polygon fill="white" stroke="#bfbfbf" points="66,-232.5 66,-253.5 128,-253.5 128,-232.5 66,-232.5"/>
<text text-anchor="middle" x="97" y="-239.9" font-family="DejaVuSans" font-size="12.00">setjmp.h</text>
</a>
</g>
</g>
<!-- Node16&#45;&gt;Node17 -->
<g id="edge25" class="edge">
<title>Node16&#45;&gt;Node17</title>
<path fill="none" stroke="midnightblue" d="M97,-290.25C97,-282.94 97,-272.69 97,-263.7"/>
<polygon fill="midnightblue" stroke="midnightblue" points="100.5,-263.64 97,-253.64 93.5,-263.64 100.5,-263.64"/>
</g>
<!-- Node19&#45;&gt;Node3 -->
<g id="edge29" class="edge">
<title>Node19&#45;&gt;Node3</title>
<path fill="none" stroke="midnightblue" d="M414.97,-406.37C434.56,-397.38 464,-383.87 486.05,-373.75"/>
<polygon fill="midnightblue" stroke="midnightblue" points="487.67,-376.85 495.3,-369.5 484.75,-370.49 487.67,-376.85"/>
</g>
<!-- Node20&#45;&gt;Node3 -->
<g id="edge32" class="edge">
<title>Node20&#45;&gt;Node3</title>
<path fill="none" stroke="midnightblue" d="M723.61,-409.68C680.05,-399.26 593.32,-378.5 546.94,-367.4"/>
<polygon fill="midnightblue" stroke="midnightblue" points="547.69,-363.98 537.15,-365.06 546.06,-370.79 547.69,-363.98"/>
</g>
<!-- Node20&#45;&gt;Node6 -->
<g id="edge31" class="edge">
<title>Node20&#45;&gt;Node6</title>
<path fill="none" stroke="midnightblue" d="M776.38,-415.32C838.35,-412.19 988,-395 988,-302 988,-302 988,-302 988,-184 988,-82.03 824.66,-69.52 749.75,-69.15"/>
<polygon fill="midnightblue" stroke="midnightblue" points="749.36,-65.65 739.37,-69.17 749.38,-72.65 749.36,-65.65"/>
</g>
<!-- Node21&#45;&gt;Node4 -->
<g id="edge36" class="edge">
<title>Node21&#45;&gt;Node4</title>
<path fill="none" stroke="midnightblue" d="M698.62,-348.41C693.67,-313.85 676.65,-195.24 669.84,-147.82"/>
<polygon fill="midnightblue" stroke="midnightblue" points="673.27,-147.03 668.38,-137.63 666.34,-148.03 673.27,-147.03"/>
</g>
<!-- Node21&#45;&gt;Node6 -->
<g id="edge35" class="edge">
<title>Node21&#45;&gt;Node6</title>
<path fill="none" stroke="midnightblue" d="M706.2,-348.38C717.88,-329.29 742,-284.92 742,-244 742,-244 742,-244 742,-184 742,-149.62 729.46,-111.16 720.87,-88.85"/>
<polygon fill="midnightblue" stroke="midnightblue" points="724.12,-87.54 717.15,-79.55 717.62,-90.14 724.12,-87.54"/>
</g>
<!-- Node21&#45;&gt;Node10 -->
<g id="edge37" class="edge">
<title>Node21&#45;&gt;Node10</title>
<path fill="none" stroke="midnightblue" d="M673.81,-353.7C618.99,-344.7 491.09,-323.69 416.27,-311.41"/>
<polygon fill="midnightblue" stroke="midnightblue" points="416.51,-307.9 406.08,-309.73 415.38,-314.81 416.51,-307.9"/>
</g>
<!-- Node21&#45;&gt;Node12 -->
<g id="edge38" class="edge">
<title>Node21&#45;&gt;Node12</title>
<path fill="none" stroke="midnightblue" d="M692.15,-348.4C674.75,-327.19 631.5,-274.78 594,-232 585.57,-222.39 575.97,-211.84 568.08,-203.28"/>
<polygon fill="midnightblue" stroke="midnightblue" points="570.49,-200.73 561.13,-195.77 565.35,-205.48 570.49,-200.73"/>
</g>
<!-- Node21&#45;&gt;Node18 -->
<g id="edge39" class="edge">
<title>Node21&#45;&gt;Node18</title>
<path fill="none" stroke="midnightblue" d="M726.14,-349.13C753.37,-339.89 796.27,-325.33 827.19,-314.83"/>
<polygon fill="midnightblue" stroke="midnightblue" points="828.42,-318.11 836.77,-311.58 826.17,-311.48 828.42,-318.11"/>
</g>
<!-- Node24&#45;&gt;Node7 -->
<g id="edge43" class="edge">
<title>Node24&#45;&gt;Node7</title>
<path fill="none" stroke="midnightblue" d="M222.94,-348.17C209.18,-313.1 167.82,-192.19 218,-116 231.12,-96.08 254.86,-84.76 276.65,-78.33"/>
<polygon fill="midnightblue" stroke="midnightblue" points="277.72,-81.67 286.48,-75.71 275.92,-74.9 277.72,-81.67"/>
</g>
<!-- Node24&#45;&gt;Node10 -->
<g id="edge44" class="edge">
<title>Node24&#45;&gt;Node10</title>
<path fill="none" stroke="midnightblue" d="M249.69,-348.37C271.07,-339.3 303.31,-325.63 327.24,-315.48"/>
<polygon fill="midnightblue" stroke="midnightblue" points="328.77,-318.63 336.6,-311.5 326.03,-312.18 328.77,-318.63"/>
</g>
<!-- Node25&#45;&gt;Node7 -->
<g id="edge46" class="edge">
<title>Node25&#45;&gt;Node7</title>
<path fill="none" stroke="midnightblue" d="M67.62,-348.37C44.62,-330.58 0,-290.13 0,-244 0,-244 0,-244 0,-184 0,-126.14 185.76,-90.61 276.4,-76.71"/>
<polygon fill="midnightblue" stroke="midnightblue" points="277.07,-80.15 286.44,-75.2 276.03,-73.23 277.07,-80.15"/>
</g>
<!-- Node25&#45;&gt;Node10 -->
<g id="edge47" class="edge">
<title>Node25&#45;&gt;Node10</title>
<path fill="none" stroke="midnightblue" d="M107.66,-352.63C152.17,-343.66 242.6,-325.45 301.97,-313.49"/>
<polygon fill="midnightblue" stroke="midnightblue" points="302.84,-316.88 311.95,-311.48 301.46,-310.02 302.84,-316.88"/>
</g>
<!-- Node25&#45;&gt;Node16 -->
<g id="edge48" class="edge">
<title>Node25&#45;&gt;Node16</title>
<path fill="none" stroke="midnightblue" d="M83.79,-348.25C85.9,-340.86 88.87,-330.47 91.45,-321.41"/>
<polygon fill="midnightblue" stroke="midnightblue" points="94.86,-322.22 94.24,-311.64 88.13,-320.3 94.86,-322.22"/>
</g>
<!-- Node26&#45;&gt;Node3 -->
<g id="edge53" class="edge">
<title>Node26&#45;&gt;Node3</title>
<path fill="none" stroke="midnightblue" d="M305.26,-410.01C348.7,-399.7 437.46,-378.64 484.74,-367.42"/>
<polygon fill="midnightblue" stroke="midnightblue" points="485.79,-370.77 494.71,-365.05 484.17,-363.95 485.79,-370.77"/>
</g>
<!-- Node26&#45;&gt;Node7 -->
<g id="edge52" class="edge">
<title>Node26&#45;&gt;Node7</title>
<path fill="none" stroke="midnightblue" d="M277.78,-406.43C268.87,-367.2 236.74,-218.64 251,-174 262.09,-139.28 289.48,-106.24 307.65,-87.05"/>
<polygon fill="midnightblue" stroke="midnightblue" points="310.32,-89.32 314.79,-79.72 305.31,-84.44 310.32,-89.32"/>
</g>
<!-- Node26&#45;&gt;Node12 -->
<g id="edge55" class="edge">
<title>Node26&#45;&gt;Node12</title>
<path fill="none" stroke="midnightblue" d="M293.33,-406.33C317.9,-388.38 371.78,-348.4 415,-312 459.38,-274.62 508.91,-227.69 534.52,-202.99"/>
<polygon fill="midnightblue" stroke="midnightblue" points="537.21,-205.26 541.96,-195.8 532.34,-200.23 537.21,-205.26"/>
</g>
<!-- Node26&#45;&gt;Node13 -->
<g id="edge51" class="edge">
<title>Node26&#45;&gt;Node13</title>
<path fill="none" stroke="midnightblue" d="M283.53,-406.26C286.74,-397.04 291.37,-382.75 294,-370 301.24,-334.96 294.07,-324.65 303,-290 309.96,-262.98 312.35,-255.74 327,-232 347.83,-198.24 379.52,-164.51 399.21,-144.98"/>
<polygon fill="midnightblue" stroke="midnightblue" points="401.9,-147.24 406.6,-137.75 397,-142.24 401.9,-147.24"/>
</g>
<!-- Node26&#45;&gt;Node24 -->
<g id="edge54" class="edge">
<title>Node26&#45;&gt;Node24</title>
<path fill="none" stroke="midnightblue" d="M270.77,-406.25C263.17,-398.22 252.21,-386.64 243.16,-377.08"/>
<polygon fill="midnightblue" stroke="midnightblue" points="245.54,-374.5 236.13,-369.64 240.46,-379.31 245.54,-374.5"/>
</g>
<!-- Node28&#45;&gt;Node20 -->
<g id="edge58" class="edge">
<title>Node28&#45;&gt;Node20</title>
<path fill="none" stroke="midnightblue" d="M691.37,-464.25C701.96,-455.89 717.41,-443.71 729.79,-433.94"/>
<polygon fill="midnightblue" stroke="midnightblue" points="732.09,-436.58 737.77,-427.64 727.76,-431.09 732.09,-436.58"/>
</g>
<!-- Node29&#45;&gt;Node13 -->
<g id="edge60" class="edge">
<title>Node29&#45;&gt;Node13</title>
<path fill="none" stroke="midnightblue" d="M563.38,-406.24C559.77,-392.97 552.9,-368.53 546,-348 537.22,-321.87 536.56,-314.54 524,-290 495.73,-234.77 452.79,-175.21 430.9,-146.1"/>
<polygon fill="midnightblue" stroke="midnightblue" points="433.4,-143.61 424.57,-137.76 427.83,-147.84 433.4,-143.61"/>
</g>
<!-- Node29&#45;&gt;Node21 -->
<g id="edge61" class="edge">
<title>Node29&#45;&gt;Node21</title>
<path fill="none" stroke="midnightblue" d="M589.04,-406.37C610.74,-397.3 643.46,-383.63 667.75,-373.48"/>
<polygon fill="midnightblue" stroke="midnightblue" points="669.39,-376.59 677.27,-369.5 666.69,-370.13 669.39,-376.59"/>
</g>
<!-- Node30&#45;&gt;Node20 -->
<g id="edge63" class="edge">
<title>Node30&#45;&gt;Node20</title>
<path fill="none" stroke="midnightblue" d="M750,-464.25C750,-456.94 750,-446.69 750,-437.7"/>
<polygon fill="midnightblue" stroke="midnightblue" points="753.5,-437.64 750,-427.64 746.5,-437.64 753.5,-437.64"/>
</g>
</g>
</svg>
