<?xml version="1.0" encoding="UTF-8" standalone="no"?>
<!DOCTYPE svg PUBLIC "-//W3C//DTD SVG 1.1//EN"
 "http://www.w3.org/Graphics/SVG/1.1/DTD/svg11.dtd">
<!-- Generated by graphviz version 2.44.0 ()
 -->
<!-- Title: scan.c Pages: 1 -->
<svg width="856pt" height="378pt"
 viewBox="0.00 0.00 855.50 378.00" xmlns="http://www.w3.org/2000/svg" xmlns:xlink="http://www.w3.org/1999/xlink">
<g id="graph0" class="graph" transform="scale(1 1) rotate(0) translate(4 374)">
<title>scan.c</title>
<polygon fill="white" stroke="transparent" points="-4,4 -4,-374 851.5,-374 851.5,4 -4,4"/>
<!-- Node1 -->
<g id="node1" class="node">
<title>Node1</title>
<g id="a_node1"><a xlink:title=" ">
<polygon fill="#bfbfbf" stroke="black" points="395.5,-348.5 395.5,-369.5 446.5,-369.5 446.5,-348.5 395.5,-348.5"/>
<text text-anchor="middle" x="421" y="-355.9" font-family="DejaVuSans" font-size="12.00">scan.c</text>
</a>
</g>
</g>
<!-- Node2 -->
<g id="node2" class="node">
<title>Node2</title>
<g id="a_node2"><a xlink:title=" ">
<polygon fill="white" stroke="#bfbfbf" points="0,-290.5 0,-311.5 54,-311.5 54,-290.5 0,-290.5"/>
<text text-anchor="middle" x="27" y="-297.9" font-family="DejaVuSans" font-size="12.00">stdlib.h</text>
</a>
</g>
</g>
<!-- Node1&#45;&gt;Node2 -->
<g id="edge1" class="edge">
<title>Node1&#45;&gt;Node2</title>
<path fill="none" stroke="midnightblue" d="M395.18,-355.96C337.5,-351.13 193.7,-337.59 64.12,-311.98"/>
<polygon fill="midnightblue" stroke="midnightblue" points="64.52,-308.49 54.03,-309.95 63.14,-315.35 64.52,-308.49"/>
</g>
<!-- Node3 -->
<g id="node3" class="node">
<title>Node3</title>
<g id="a_node3"><a xlink:href="texmac_8h.html" target="_top" xlink:title=" ">
<polygon fill="white" stroke="black" points="72.5,-290.5 72.5,-311.5 137.5,-311.5 137.5,-290.5 72.5,-290.5"/>
<text text-anchor="middle" x="105" y="-297.9" font-family="DejaVuSans" font-size="12.00">texmac.h</text>
</a>
</g>
</g>
<!-- Node1&#45;&gt;Node3 -->
<g id="edge2" class="edge">
<title>Node1&#45;&gt;Node3</title>
<path fill="none" stroke="midnightblue" d="M395.35,-353.97C347.43,-346.35 241.11,-329.09 152,-312 150.54,-311.72 149.06,-311.43 147.56,-311.13"/>
<polygon fill="midnightblue" stroke="midnightblue" points="148.08,-307.67 137.58,-309.11 146.69,-314.53 148.08,-307.67"/>
</g>
<!-- Node4 -->
<g id="node4" class="node">
<title>Node4</title>
<g id="a_node4"><a xlink:href="texfunc_8h.html" target="_top" xlink:title=" ">
<polygon fill="white" stroke="black" points="232.5,-290.5 232.5,-311.5 297.5,-311.5 297.5,-290.5 232.5,-290.5"/>
<text text-anchor="middle" x="265" y="-297.9" font-family="DejaVuSans" font-size="12.00">texfunc.h</text>
</a>
</g>
</g>
<!-- Node1&#45;&gt;Node4 -->
<g id="edge3" class="edge">
<title>Node1&#45;&gt;Node4</title>
<path fill="none" stroke="midnightblue" d="M395.24,-348.75C369.62,-339.55 330.07,-325.36 301.28,-315.02"/>
<polygon fill="midnightblue" stroke="midnightblue" points="302.18,-311.63 291.58,-311.54 299.81,-318.22 302.18,-311.63"/>
</g>
<!-- Node12 -->
<g id="node12" class="node">
<title>Node12</title>
<g id="a_node12"><a xlink:href="tex_8h.html" target="_top" xlink:title=" ">
<polygon fill="white" stroke="black" points="411,-116.5 411,-137.5 453,-137.5 453,-116.5 411,-116.5"/>
<text text-anchor="middle" x="432" y="-123.9" font-family="DejaVuSans" font-size="12.00">tex.h</text>
</a>
</g>
</g>
<!-- Node1&#45;&gt;Node12 -->
<g id="edge13" class="edge">
<title>Node1&#45;&gt;Node12</title>
<path fill="none" stroke="midnightblue" d="M426.18,-348.32C440.24,-320.8 476.88,-239.79 459,-174 456.28,-164 450.78,-153.96 445.45,-145.81"/>
<polygon fill="midnightblue" stroke="midnightblue" points="448.26,-143.72 439.66,-137.53 442.52,-147.74 448.26,-143.72"/>
</g>
<!-- Node14 -->
<g id="node14" class="node">
<title>Node14</title>
<g id="a_node14"><a xlink:href="tex__inc_8h.html" target="_top" xlink:title=" ">
<polygon fill="white" stroke="black" points="62.5,-232.5 62.5,-253.5 127.5,-253.5 127.5,-232.5 62.5,-232.5"/>
<text text-anchor="middle" x="95" y="-239.9" font-family="DejaVuSans" font-size="12.00">tex_inc.h</text>
</a>
</g>
</g>
<!-- Node1&#45;&gt;Node14 -->
<g id="edge16" class="edge">
<title>Node1&#45;&gt;Node14</title>
<path fill="none" stroke="midnightblue" d="M395.42,-356.03C352.65,-352.03 264.57,-340.76 196,-312 164.76,-298.9 133.04,-275.55 113.7,-259.91"/>
<polygon fill="midnightblue" stroke="midnightblue" points="115.91,-257.2 105.96,-253.54 111.45,-262.6 115.91,-257.2"/>
</g>
<!-- Node15 -->
<g id="node15" class="node">
<title>Node15</title>
<g id="a_node15"><a xlink:href="global_8h.html" target="_top" xlink:title=" ">
<polygon fill="white" stroke="black" points="316,-290.5 316,-311.5 374,-311.5 374,-290.5 316,-290.5"/>
<text text-anchor="middle" x="345" y="-297.9" font-family="DejaVuSans" font-size="12.00">global.h</text>
</a>
</g>
</g>
<!-- Node1&#45;&gt;Node15 -->
<g id="edge18" class="edge">
<title>Node1&#45;&gt;Node15</title>
<path fill="none" stroke="midnightblue" d="M407.76,-348.25C396.32,-339.81 379.57,-327.47 366.25,-317.66"/>
<polygon fill="midnightblue" stroke="midnightblue" points="368.21,-314.76 358.09,-311.64 364.06,-320.39 368.21,-314.76"/>
</g>
<!-- Node17 -->
<g id="node17" class="node">
<title>Node17</title>
<g id="a_node17"><a xlink:href="scan_8h.html" target="_top" xlink:title=" ">
<polygon fill="white" stroke="black" points="360,-232.5 360,-253.5 412,-253.5 412,-232.5 360,-232.5"/>
<text text-anchor="middle" x="386" y="-239.9" font-family="DejaVuSans" font-size="12.00">scan.h</text>
</a>
</g>
</g>
<!-- Node1&#45;&gt;Node17 -->
<g id="edge37" class="edge">
<title>Node1&#45;&gt;Node17</title>
<path fill="none" stroke="midnightblue" d="M418.02,-348.28C412.26,-329.52 399.51,-288 391.95,-263.38"/>
<polygon fill="midnightblue" stroke="midnightblue" points="395.26,-262.23 388.98,-253.69 388.57,-264.28 395.26,-262.23"/>
</g>
<!-- Node19 -->
<g id="node19" class="node">
<title>Node19</title>
<g id="a_node19"><a xlink:href="macros_8h.html" target="_top" xlink:title=" ">
<polygon fill="white" stroke="black" points="544.5,-290.5 544.5,-311.5 609.5,-311.5 609.5,-290.5 544.5,-290.5"/>
<text text-anchor="middle" x="577" y="-297.9" font-family="DejaVuSans" font-size="12.00">macros.h</text>
</a>
</g>
</g>
<!-- Node1&#45;&gt;Node19 -->
<g id="edge25" class="edge">
<title>Node1&#45;&gt;Node19</title>
<path fill="none" stroke="midnightblue" d="M446.76,-348.75C472.38,-339.55 511.93,-325.36 540.72,-315.02"/>
<polygon fill="midnightblue" stroke="midnightblue" points="542.19,-318.22 550.42,-311.54 539.82,-311.63 542.19,-318.22"/>
</g>
<!-- Node20 -->
<g id="node20" class="node">
<title>Node20</title>
<g id="a_node20"><a xlink:href="expand_8h.html" target="_top" xlink:title=" ">
<polygon fill="white" stroke="black" points="628,-290.5 628,-311.5 694,-311.5 694,-290.5 628,-290.5"/>
<text text-anchor="middle" x="661" y="-297.9" font-family="DejaVuSans" font-size="12.00">expand.h</text>
</a>
</g>
</g>
<!-- Node1&#45;&gt;Node20 -->
<g id="edge26" class="edge">
<title>Node1&#45;&gt;Node20</title>
<path fill="none" stroke="midnightblue" d="M446.64,-352.09C482.63,-343.79 550.42,-328.1 618.02,-312.22"/>
<polygon fill="midnightblue" stroke="midnightblue" points="619.06,-315.57 627.99,-309.88 617.45,-308.76 619.06,-315.57"/>
</g>
<!-- Node21 -->
<g id="node21" class="node">
<title>Node21</title>
<g id="a_node21"><a xlink:href="texmath_8h.html" target="_top" xlink:title=" ">
<polygon fill="white" stroke="black" points="382,-174.5 382,-195.5 450,-195.5 450,-174.5 382,-174.5"/>
<text text-anchor="middle" x="416" y="-181.9" font-family="DejaVuSans" font-size="12.00">texmath.h</text>
</a>
</g>
</g>
<!-- Node1&#45;&gt;Node21 -->
<g id="edge27" class="edge">
<title>Node1&#45;&gt;Node21</title>
<path fill="none" stroke="midnightblue" d="M421.36,-348.19C422.06,-326.97 423.34,-275.25 421,-232 420.53,-223.4 419.58,-213.93 418.63,-205.83"/>
<polygon fill="midnightblue" stroke="midnightblue" points="422.1,-205.33 417.38,-195.85 415.15,-206.2 422.1,-205.33"/>
</g>
<!-- Node22 -->
<g id="node22" class="node">
<title>Node22</title>
<g id="a_node22"><a xlink:href="fonts_8h.html" target="_top" xlink:title=" ">
<polygon fill="white" stroke="black" points="146,-232.5 146,-253.5 198,-253.5 198,-232.5 146,-232.5"/>
<text text-anchor="middle" x="172" y="-239.9" font-family="DejaVuSans" font-size="12.00">fonts.h</text>
</a>
</g>
</g>
<!-- Node1&#45;&gt;Node22 -->
<g id="edge29" class="edge">
<title>Node1&#45;&gt;Node22</title>
<path fill="none" stroke="midnightblue" d="M395.41,-357.53C355.46,-355.67 277.25,-347.37 223,-312 204.34,-299.83 189.96,-278.38 181.29,-262.81"/>
<polygon fill="midnightblue" stroke="midnightblue" points="184.19,-260.81 176.44,-253.59 178,-264.07 184.19,-260.81"/>
</g>
<!-- Node23 -->
<g id="node23" class="node">
<title>Node23</title>
<g id="a_node23"><a xlink:href="printout_8h.html" target="_top" xlink:title=" ">
<polygon fill="white" stroke="black" points="712,-290.5 712,-311.5 778,-311.5 778,-290.5 712,-290.5"/>
<text text-anchor="middle" x="745" y="-297.9" font-family="DejaVuSans" font-size="12.00">printout.h</text>
</a>
</g>
</g>
<!-- Node1&#45;&gt;Node23 -->
<g id="edge32" class="edge">
<title>Node1&#45;&gt;Node23</title>
<path fill="none" stroke="midnightblue" d="M446.77,-354.43C494.91,-347.63 601.93,-331.87 701.64,-312.17"/>
<polygon fill="midnightblue" stroke="midnightblue" points="702.45,-315.58 711.58,-310.19 701.09,-308.71 702.45,-315.58"/>
</g>
<!-- Node24 -->
<g id="node24" class="node">
<title>Node24</title>
<g id="a_node24"><a xlink:href="error_8h.html" target="_top" xlink:title=" ">
<polygon fill="white" stroke="black" points="796.5,-290.5 796.5,-311.5 847.5,-311.5 847.5,-290.5 796.5,-290.5"/>
<text text-anchor="middle" x="822" y="-297.9" font-family="DejaVuSans" font-size="12.00">error.h</text>
</a>
</g>
</g>
<!-- Node1&#45;&gt;Node24 -->
<g id="edge33" class="edge">
<title>Node1&#45;&gt;Node24</title>
<path fill="none" stroke="midnightblue" d="M446.51,-356.15C504.95,-351.62 653.1,-338.51 786.51,-311.81"/>
<polygon fill="midnightblue" stroke="midnightblue" points="787.4,-315.2 796.5,-309.78 786,-308.34 787.4,-315.2"/>
</g>
<!-- Node25 -->
<g id="node25" class="node">
<title>Node25</title>
<g id="a_node25"><a xlink:href="eqtb_8h.html" target="_top" xlink:title=" ">
<polygon fill="white" stroke="black" points="471,-116.5 471,-137.5 521,-137.5 521,-116.5 471,-116.5"/>
<text text-anchor="middle" x="496" y="-123.9" font-family="DejaVuSans" font-size="12.00">eqtb.h</text>
</a>
</g>
</g>
<!-- Node1&#45;&gt;Node25 -->
<g id="edge34" class="edge">
<title>Node1&#45;&gt;Node25</title>
<path fill="none" stroke="midnightblue" d="M431.45,-348.39C440.3,-339.7 452.68,-326.13 460,-312 488.26,-257.47 494.42,-183.38 495.7,-148.17"/>
<polygon fill="midnightblue" stroke="midnightblue" points="499.21,-147.9 495.98,-137.81 492.21,-147.71 499.21,-147.9"/>
</g>
<!-- Node5 -->
<g id="node5" class="node">
<title>Node5</title>
<g id="a_node5"><a xlink:href="str_8h.html" target="_top" xlink:title=" ">
<polygon fill="white" stroke="black" points="222.5,-232.5 222.5,-253.5 261.5,-253.5 261.5,-232.5 222.5,-232.5"/>
<text text-anchor="middle" x="242" y="-239.9" font-family="DejaVuSans" font-size="12.00">str.h</text>
</a>
</g>
</g>
<!-- Node4&#45;&gt;Node5 -->
<g id="edge4" class="edge">
<title>Node4&#45;&gt;Node5</title>
<path fill="none" stroke="midnightblue" d="M260.99,-290.25C257.93,-282.78 253.6,-272.24 249.85,-263.11"/>
<polygon fill="midnightblue" stroke="midnightblue" points="253,-261.56 245.96,-253.64 246.52,-264.22 253,-261.56"/>
</g>
<!-- Node6 -->
<g id="node6" class="node">
<title>Node6</title>
<g id="a_node6"><a xlink:title=" ">
<polygon fill="white" stroke="#bfbfbf" points="155,-116.5 155,-137.5 207,-137.5 207,-116.5 155,-116.5"/>
<text text-anchor="middle" x="181" y="-123.9" font-family="DejaVuSans" font-size="12.00">stdio.h</text>
</a>
</g>
</g>
<!-- Node5&#45;&gt;Node6 -->
<g id="edge5" class="edge">
<title>Node5&#45;&gt;Node6</title>
<path fill="none" stroke="midnightblue" d="M236.8,-232.28C226.67,-213.35 204.14,-171.25 191.02,-146.72"/>
<polygon fill="midnightblue" stroke="midnightblue" points="193.99,-144.86 186.19,-137.69 187.82,-148.16 193.99,-144.86"/>
</g>
<!-- Node7 -->
<g id="node7" class="node">
<title>Node7</title>
<g id="a_node7"><a xlink:title=" ">
<polygon fill="white" stroke="#bfbfbf" points="257.5,-0.5 257.5,-21.5 312.5,-21.5 312.5,-0.5 257.5,-0.5"/>
<text text-anchor="middle" x="285" y="-7.9" font-family="DejaVuSans" font-size="12.00">stdint.h</text>
</a>
</g>
</g>
<!-- Node5&#45;&gt;Node7 -->
<g id="edge6" class="edge">
<title>Node5&#45;&gt;Node7</title>
<path fill="none" stroke="midnightblue" d="M243.79,-232.41C250.27,-197.78 272.52,-78.74 281.35,-31.52"/>
<polygon fill="midnightblue" stroke="midnightblue" points="284.8,-32.1 283.2,-21.63 277.92,-30.82 284.8,-32.1"/>
</g>
<!-- Node8 -->
<g id="node8" class="node">
<title>Node8</title>
<g id="a_node8"><a xlink:href="global__const_8h.html" target="_top" xlink:title=" ">
<polygon fill="white" stroke="black" points="48.5,-174.5 48.5,-195.5 141.5,-195.5 141.5,-174.5 48.5,-174.5"/>
<text text-anchor="middle" x="95" y="-181.9" font-family="DejaVuSans" font-size="12.00">global_const.h</text>
</a>
</g>
</g>
<!-- Node5&#45;&gt;Node8 -->
<g id="edge7" class="edge">
<title>Node5&#45;&gt;Node8</title>
<path fill="none" stroke="midnightblue" d="M222.48,-234.56C198.76,-225.53 158.33,-210.13 129.36,-199.09"/>
<polygon fill="midnightblue" stroke="midnightblue" points="130.61,-195.82 120.02,-195.53 128.11,-202.36 130.61,-195.82"/>
</g>
<!-- Node10 -->
<g id="node10" class="node">
<title>Node10</title>
<g id="a_node10"><a xlink:href="tex__types_8h.html" target="_top" xlink:title=" ">
<polygon fill="white" stroke="black" points="344.5,-58.5 344.5,-79.5 421.5,-79.5 421.5,-58.5 344.5,-58.5"/>
<text text-anchor="middle" x="383" y="-65.9" font-family="DejaVuSans" font-size="12.00">tex_types.h</text>
</a>
</g>
</g>
<!-- Node5&#45;&gt;Node10 -->
<g id="edge10" class="edge">
<title>Node5&#45;&gt;Node10</title>
<path fill="none" stroke="midnightblue" d="M249.98,-232.26C272.86,-204.35 338.9,-123.79 368.43,-87.77"/>
<polygon fill="midnightblue" stroke="midnightblue" points="371.47,-89.59 375.1,-79.63 366.06,-85.15 371.47,-89.59"/>
</g>
<!-- Node8&#45;&gt;Node6 -->
<g id="edge9" class="edge">
<title>Node8&#45;&gt;Node6</title>
<path fill="none" stroke="midnightblue" d="M109.98,-174.25C123.18,-165.65 142.61,-153 157.81,-143.1"/>
<polygon fill="midnightblue" stroke="midnightblue" points="159.72,-146.03 166.19,-137.64 155.9,-140.17 159.72,-146.03"/>
</g>
<!-- Node9 -->
<g id="node9" class="node">
<title>Node9</title>
<g id="a_node9"><a xlink:title=" ">
<polygon fill="white" stroke="#bfbfbf" points="65.5,-116.5 65.5,-137.5 124.5,-137.5 124.5,-116.5 65.5,-116.5"/>
<text text-anchor="middle" x="95" y="-123.9" font-family="DejaVuSans" font-size="12.00">assert.h</text>
</a>
</g>
</g>
<!-- Node8&#45;&gt;Node9 -->
<g id="edge8" class="edge">
<title>Node8&#45;&gt;Node9</title>
<path fill="none" stroke="midnightblue" d="M95,-174.25C95,-166.94 95,-156.69 95,-147.7"/>
<polygon fill="midnightblue" stroke="midnightblue" points="98.5,-147.64 95,-137.64 91.5,-147.64 98.5,-147.64"/>
</g>
<!-- Node10&#45;&gt;Node7 -->
<g id="edge12" class="edge">
<title>Node10&#45;&gt;Node7</title>
<path fill="none" stroke="midnightblue" d="M365.93,-58.25C350.75,-49.57 328.34,-36.76 310.94,-26.82"/>
<polygon fill="midnightblue" stroke="midnightblue" points="312.29,-23.57 301.87,-21.64 308.82,-29.64 312.29,-23.57"/>
</g>
<!-- Node11 -->
<g id="node11" class="node">
<title>Node11</title>
<g id="a_node11"><a xlink:title=" ">
<polygon fill="white" stroke="#bfbfbf" points="350.5,-0.5 350.5,-21.5 415.5,-21.5 415.5,-0.5 350.5,-0.5"/>
<text text-anchor="middle" x="383" y="-7.9" font-family="DejaVuSans" font-size="12.00">stdbool.h</text>
</a>
</g>
</g>
<!-- Node10&#45;&gt;Node11 -->
<g id="edge11" class="edge">
<title>Node10&#45;&gt;Node11</title>
<path fill="none" stroke="midnightblue" d="M383,-58.25C383,-50.94 383,-40.69 383,-31.7"/>
<polygon fill="midnightblue" stroke="midnightblue" points="386.5,-31.64 383,-21.64 379.5,-31.64 386.5,-31.64"/>
</g>
<!-- Node12&#45;&gt;Node10 -->
<g id="edge14" class="edge">
<title>Node12&#45;&gt;Node10</title>
<path fill="none" stroke="midnightblue" d="M423.46,-116.25C416.51,-108.3 406.51,-96.87 398.19,-87.37"/>
<polygon fill="midnightblue" stroke="midnightblue" points="400.66,-84.86 391.44,-79.64 395.39,-89.47 400.66,-84.86"/>
</g>
<!-- Node13 -->
<g id="node13" class="node">
<title>Node13</title>
<g id="a_node13"><a xlink:href="tex__constant_8h.html" target="_top" xlink:title=" ">
<polygon fill="white" stroke="black" points="444,-58.5 444,-79.5 538,-79.5 538,-58.5 444,-58.5"/>
<text text-anchor="middle" x="491" y="-65.9" font-family="DejaVuSans" font-size="12.00">tex_constant.h</text>
</a>
</g>
</g>
<!-- Node12&#45;&gt;Node13 -->
<g id="edge15" class="edge">
<title>Node12&#45;&gt;Node13</title>
<path fill="none" stroke="midnightblue" d="M442.28,-116.25C450.82,-108.14 463.18,-96.41 473.31,-86.79"/>
<polygon fill="midnightblue" stroke="midnightblue" points="476,-89.07 480.84,-79.64 471.18,-83.99 476,-89.07"/>
</g>
<!-- Node14&#45;&gt;Node8 -->
<g id="edge17" class="edge">
<title>Node14&#45;&gt;Node8</title>
<path fill="none" stroke="midnightblue" d="M95,-232.25C95,-224.94 95,-214.69 95,-205.7"/>
<polygon fill="midnightblue" stroke="midnightblue" points="98.5,-205.64 95,-195.64 91.5,-205.64 98.5,-205.64"/>
</g>
<!-- Node15&#45;&gt;Node5 -->
<g id="edge20" class="edge">
<title>Node15&#45;&gt;Node5</title>
<path fill="none" stroke="midnightblue" d="M327.06,-290.25C310.96,-281.49 287.11,-268.53 268.76,-258.55"/>
<polygon fill="midnightblue" stroke="midnightblue" points="270.19,-255.34 259.74,-253.64 266.85,-261.49 270.19,-255.34"/>
</g>
<!-- Node16 -->
<g id="node16" class="node">
<title>Node16</title>
<g id="a_node16"><a xlink:title=" ">
<polygon fill="white" stroke="#bfbfbf" points="280,-232.5 280,-253.5 342,-253.5 342,-232.5 280,-232.5"/>
<text text-anchor="middle" x="311" y="-239.9" font-family="DejaVuSans" font-size="12.00">setjmp.h</text>
</a>
</g>
</g>
<!-- Node15&#45;&gt;Node16 -->
<g id="edge19" class="edge">
<title>Node15&#45;&gt;Node16</title>
<path fill="none" stroke="midnightblue" d="M339.08,-290.25C334.4,-282.54 327.73,-271.56 322.07,-262.23"/>
<polygon fill="midnightblue" stroke="midnightblue" points="325.04,-260.37 316.85,-253.64 319.05,-264.01 325.04,-260.37"/>
</g>
<!-- Node15&#45;&gt;Node17 -->
<g id="edge21" class="edge">
<title>Node15&#45;&gt;Node17</title>
<path fill="none" stroke="midnightblue" d="M352.14,-290.25C357.84,-282.46 365.99,-271.33 372.86,-261.94"/>
<polygon fill="midnightblue" stroke="midnightblue" points="375.86,-263.78 378.94,-253.64 370.21,-259.64 375.86,-263.78"/>
</g>
<!-- Node18 -->
<g id="node18" class="node">
<title>Node18</title>
<g id="a_node18"><a xlink:href="lexer_8h.html" target="_top" xlink:title=" ">
<polygon fill="white" stroke="black" points="312,-174.5 312,-195.5 364,-195.5 364,-174.5 312,-174.5"/>
<text text-anchor="middle" x="338" y="-181.9" font-family="DejaVuSans" font-size="12.00">lexer.h</text>
</a>
</g>
</g>
<!-- Node17&#45;&gt;Node18 -->
<g id="edge22" class="edge">
<title>Node17&#45;&gt;Node18</title>
<path fill="none" stroke="midnightblue" d="M377.64,-232.25C370.82,-224.3 361.03,-212.87 352.88,-203.37"/>
<polygon fill="midnightblue" stroke="midnightblue" points="355.43,-200.96 346.27,-195.64 350.12,-205.51 355.43,-200.96"/>
</g>
<!-- Node18&#45;&gt;Node6 -->
<g id="edge23" class="edge">
<title>Node18&#45;&gt;Node6</title>
<path fill="none" stroke="midnightblue" d="M311.72,-174.63C285.72,-165.35 245.73,-151.09 216.82,-140.78"/>
<polygon fill="midnightblue" stroke="midnightblue" points="217.7,-137.37 207.1,-137.31 215.35,-143.97 217.7,-137.37"/>
</g>
<!-- Node18&#45;&gt;Node12 -->
<g id="edge24" class="edge">
<title>Node18&#45;&gt;Node12</title>
<path fill="none" stroke="midnightblue" d="M354.37,-174.25C368.93,-165.57 390.43,-152.76 407.12,-142.82"/>
<polygon fill="midnightblue" stroke="midnightblue" points="409.01,-145.77 415.81,-137.64 405.43,-139.75 409.01,-145.77"/>
</g>
<!-- Node21&#45;&gt;Node10 -->
<g id="edge28" class="edge">
<title>Node21&#45;&gt;Node10</title>
<path fill="none" stroke="midnightblue" d="M412.93,-174.15C410.05,-164.85 405.65,-150.5 402,-138 397.23,-121.66 392.04,-103.04 388.3,-89.42"/>
<polygon fill="midnightblue" stroke="midnightblue" points="391.65,-88.42 385.64,-79.7 384.9,-90.27 391.65,-88.42"/>
</g>
<!-- Node22&#45;&gt;Node6 -->
<g id="edge30" class="edge">
<title>Node22&#45;&gt;Node6</title>
<path fill="none" stroke="midnightblue" d="M172.77,-232.28C174.24,-213.6 177.5,-172.37 179.44,-147.72"/>
<polygon fill="midnightblue" stroke="midnightblue" points="182.94,-147.94 180.23,-137.69 175.96,-147.39 182.94,-147.94"/>
</g>
<!-- Node22&#45;&gt;Node8 -->
<g id="edge31" class="edge">
<title>Node22&#45;&gt;Node8</title>
<path fill="none" stroke="midnightblue" d="M158.59,-232.25C146.99,-223.81 130.03,-211.47 116.53,-201.66"/>
<polygon fill="midnightblue" stroke="midnightblue" points="118.4,-198.69 108.26,-195.64 114.29,-204.36 118.4,-198.69"/>
</g>
<!-- Node25&#45;&gt;Node10 -->
<g id="edge35" class="edge">
<title>Node25&#45;&gt;Node10</title>
<path fill="none" stroke="midnightblue" d="M476.57,-116.37C458.6,-107.46 431.66,-94.11 411.29,-84.02"/>
<polygon fill="midnightblue" stroke="midnightblue" points="412.69,-80.81 402.17,-79.5 409.58,-87.08 412.69,-80.81"/>
</g>
<!-- Node25&#45;&gt;Node13 -->
<g id="edge36" class="edge">
<title>Node25&#45;&gt;Node13</title>
<path fill="none" stroke="midnightblue" d="M495.13,-116.25C494.48,-108.94 493.56,-98.69 492.76,-89.7"/>
<polygon fill="midnightblue" stroke="midnightblue" points="496.24,-89.29 491.86,-79.64 489.26,-89.91 496.24,-89.29"/>
</g>
</g>
</svg>
