<?xml version="1.0" encoding="UTF-8" standalone="no"?>
<!DOCTYPE svg PUBLIC "-//W3C//DTD SVG 1.1//EN"
 "http://www.w3.org/Graphics/SVG/1.1/DTD/svg11.dtd">
<!-- Generated by graphviz version 2.44.0 ()
 -->
<!-- Title: scan.c Pages: 1 -->
<svg width="1043pt" height="436pt"
 viewBox="0.00 0.00 1043.34 436.00" xmlns="http://www.w3.org/2000/svg" xmlns:xlink="http://www.w3.org/1999/xlink">
<g id="graph0" class="graph" transform="scale(1 1) rotate(0) translate(4 432)">
<title>scan.c</title>
<polygon fill="white" stroke="transparent" points="-4,4 -4,-432 1039.34,-432 1039.34,4 -4,4"/>
<!-- Node1 -->
<g id="node1" class="node">
<title>Node1</title>
<g id="a_node1"><a xlink:title=" ">
<polygon fill="#bfbfbf" stroke="black" points="554.84,-406.5 554.84,-427.5 605.84,-427.5 605.84,-406.5 554.84,-406.5"/>
<text text-anchor="middle" x="580.34" y="-413.9" font-family="DejaVuSans" font-size="12.00">scan.c</text>
</a>
</g>
</g>
<!-- Node2 -->
<g id="node2" class="node">
<title>Node2</title>
<g id="a_node2"><a xlink:title=" ">
<polygon fill="white" stroke="#bfbfbf" points="70.34,-348.5 70.34,-369.5 124.34,-369.5 124.34,-348.5 70.34,-348.5"/>
<text text-anchor="middle" x="97.34" y="-355.9" font-family="DejaVuSans" font-size="12.00">stdlib.h</text>
</a>
</g>
</g>
<!-- Node1&#45;&gt;Node2 -->
<g id="edge1" class="edge">
<title>Node1&#45;&gt;Node2</title>
<path fill="none" stroke="midnightblue" d="M554.42,-414.86C486.75,-411.56 299.16,-400.36 134.18,-369.87"/>
<polygon fill="midnightblue" stroke="midnightblue" points="134.82,-366.43 124.35,-368.03 133.53,-373.31 134.82,-366.43"/>
</g>
<!-- Node3 -->
<g id="node3" class="node">
<title>Node3</title>
<g id="a_node3"><a xlink:href="tex__constant_8h.html" target="_top" xlink:title=" ">
<polygon fill="white" stroke="black" points="501.34,-174.5 501.34,-195.5 595.34,-195.5 595.34,-174.5 501.34,-174.5"/>
<text text-anchor="middle" x="548.34" y="-181.9" font-family="DejaVuSans" font-size="12.00">tex_constant.h</text>
</a>
</g>
</g>
<!-- Node1&#45;&gt;Node3 -->
<g id="edge2" class="edge">
<title>Node1&#45;&gt;Node3</title>
<path fill="none" stroke="midnightblue" d="M579,-406.41C574.2,-371.85 557.69,-253.24 551.1,-205.82"/>
<polygon fill="midnightblue" stroke="midnightblue" points="554.52,-205.05 549.68,-195.63 547.59,-206.02 554.52,-205.05"/>
</g>
<!-- Node4 -->
<g id="node4" class="node">
<title>Node4</title>
<g id="a_node4"><a xlink:href="expand_8h.html" target="_top" xlink:title=" ">
<polygon fill="white" stroke="black" points="429.34,-232.5 429.34,-253.5 495.34,-253.5 495.34,-232.5 429.34,-232.5"/>
<text text-anchor="middle" x="462.34" y="-239.9" font-family="DejaVuSans" font-size="12.00">expand.h</text>
</a>
</g>
</g>
<!-- Node1&#45;&gt;Node4 -->
<g id="edge3" class="edge">
<title>Node1&#45;&gt;Node4</title>
<path fill="none" stroke="midnightblue" d="M573.17,-406.19C566.43,-396.91 556.09,-382.59 547.34,-370 520.86,-331.95 490.69,-286.78 474.37,-262.19"/>
<polygon fill="midnightblue" stroke="midnightblue" points="477.08,-259.95 468.64,-253.55 471.25,-263.82 477.08,-259.95"/>
</g>
<!-- Node13 -->
<g id="node13" class="node">
<title>Node13</title>
<g id="a_node13"><a xlink:href="lexer_8h.html" target="_top" xlink:title=" ">
<polygon fill="white" stroke="black" points="589.34,-232.5 589.34,-253.5 641.34,-253.5 641.34,-232.5 589.34,-232.5"/>
<text text-anchor="middle" x="615.34" y="-239.9" font-family="DejaVuSans" font-size="12.00">lexer.h</text>
</a>
</g>
</g>
<!-- Node1&#45;&gt;Node13 -->
<g id="edge12" class="edge">
<title>Node1&#45;&gt;Node13</title>
<path fill="none" stroke="midnightblue" d="M582.32,-406.26C587.9,-378.82 603.84,-300.51 611.34,-263.64"/>
<polygon fill="midnightblue" stroke="midnightblue" points="614.81,-264.13 613.38,-253.63 607.95,-262.73 614.81,-264.13"/>
</g>
<!-- Node14 -->
<g id="node14" class="node">
<title>Node14</title>
<g id="a_node14"><a xlink:href="texmath_8h.html" target="_top" xlink:title=" ">
<polygon fill="white" stroke="black" points="913.34,-232.5 913.34,-253.5 981.34,-253.5 981.34,-232.5 913.34,-232.5"/>
<text text-anchor="middle" x="947.34" y="-239.9" font-family="DejaVuSans" font-size="12.00">texmath.h</text>
</a>
</g>
</g>
<!-- Node1&#45;&gt;Node14 -->
<g id="edge16" class="edge">
<title>Node1&#45;&gt;Node14</title>
<path fill="none" stroke="midnightblue" d="M605.87,-415.1C671.42,-412.36 843.67,-402.18 889.34,-370 924.96,-344.9 939.2,-292.32 944.49,-263.65"/>
<polygon fill="midnightblue" stroke="midnightblue" points="947.97,-264.06 946.15,-253.62 941.07,-262.92 947.97,-264.06"/>
</g>
<!-- Node15 -->
<g id="node15" class="node">
<title>Node15</title>
<g id="a_node15"><a xlink:href="fonts_8h.html" target="_top" xlink:title=" ">
<polygon fill="white" stroke="black" points="146.34,-290.5 146.34,-311.5 198.34,-311.5 198.34,-290.5 146.34,-290.5"/>
<text text-anchor="middle" x="172.34" y="-297.9" font-family="DejaVuSans" font-size="12.00">fonts.h</text>
</a>
</g>
</g>
<!-- Node1&#45;&gt;Node15 -->
<g id="edge18" class="edge">
<title>Node1&#45;&gt;Node15</title>
<path fill="none" stroke="midnightblue" d="M554.63,-410.96C516.06,-403.22 441.06,-387.45 378.34,-370 317.83,-353.17 248.75,-329.41 207.93,-314.89"/>
<polygon fill="midnightblue" stroke="midnightblue" points="209.03,-311.57 198.43,-311.5 206.67,-318.16 209.03,-311.57"/>
</g>
<!-- Node19 -->
<g id="node19" class="node">
<title>Node19</title>
<g id="a_node19"><a xlink:href="printout_8h.html" target="_top" xlink:title=" ">
<polygon fill="white" stroke="black" points="969.34,-174.5 969.34,-195.5 1035.34,-195.5 1035.34,-174.5 969.34,-174.5"/>
<text text-anchor="middle" x="1002.34" y="-181.9" font-family="DejaVuSans" font-size="12.00">printout.h</text>
</a>
</g>
</g>
<!-- Node1&#45;&gt;Node19 -->
<g id="edge31" class="edge">
<title>Node1&#45;&gt;Node19</title>
<path fill="none" stroke="midnightblue" d="M605.9,-415.15C674.68,-412.45 862.01,-402.25 913.34,-370 965.73,-337.08 967.37,-311.46 990.34,-254 996.53,-238.52 999.53,-219.79 1000.99,-205.91"/>
<polygon fill="midnightblue" stroke="midnightblue" points="1004.51,-205.84 1001.88,-195.57 997.53,-205.23 1004.51,-205.84"/>
</g>
<!-- Node20 -->
<g id="node20" class="node">
<title>Node20</title>
<g id="a_node20"><a xlink:href="error_8h.html" target="_top" xlink:title=" ">
<polygon fill="white" stroke="black" points="251.84,-290.5 251.84,-311.5 302.84,-311.5 302.84,-290.5 251.84,-290.5"/>
<text text-anchor="middle" x="277.34" y="-297.9" font-family="DejaVuSans" font-size="12.00">error.h</text>
</a>
</g>
</g>
<!-- Node1&#45;&gt;Node20 -->
<g id="edge33" class="edge">
<title>Node1&#45;&gt;Node20</title>
<path fill="none" stroke="midnightblue" d="M554.75,-408.81C525.38,-400.36 475.92,-385.51 434.34,-370 389.26,-353.19 338.37,-330.43 307.08,-315.98"/>
<polygon fill="midnightblue" stroke="midnightblue" points="308.18,-312.63 297.63,-311.6 305.23,-318.98 308.18,-312.63"/>
</g>
<!-- Node21 -->
<g id="node21" class="node">
<title>Node21</title>
<g id="a_node21"><a xlink:href="eqtb_8h.html" target="_top" xlink:title=" ">
<polygon fill="white" stroke="black" points="659.34,-232.5 659.34,-253.5 709.34,-253.5 709.34,-232.5 659.34,-232.5"/>
<text text-anchor="middle" x="684.34" y="-239.9" font-family="DejaVuSans" font-size="12.00">eqtb.h</text>
</a>
</g>
</g>
<!-- Node1&#45;&gt;Node21 -->
<g id="edge36" class="edge">
<title>Node1&#45;&gt;Node21</title>
<path fill="none" stroke="midnightblue" d="M586.23,-406.26C603.03,-378.47 651.4,-298.47 673.31,-262.23"/>
<polygon fill="midnightblue" stroke="midnightblue" points="676.33,-264 678.51,-253.63 670.34,-260.38 676.33,-264"/>
</g>
<!-- Node22 -->
<g id="node22" class="node">
<title>Node22</title>
<g id="a_node22"><a xlink:href="mem_8h.html" target="_top" xlink:title=" ">
<polygon fill="white" stroke="black" points="765.84,-232.5 765.84,-253.5 818.84,-253.5 818.84,-232.5 765.84,-232.5"/>
<text text-anchor="middle" x="792.34" y="-239.9" font-family="DejaVuSans" font-size="12.00">mem.h</text>
</a>
</g>
</g>
<!-- Node1&#45;&gt;Node22 -->
<g id="edge39" class="edge">
<title>Node1&#45;&gt;Node22</title>
<path fill="none" stroke="midnightblue" d="M605.37,-406.47C624.9,-398.38 652.17,-385.61 673.34,-370 717.09,-337.72 758.36,-288.24 778.86,-261.91"/>
<polygon fill="midnightblue" stroke="midnightblue" points="781.9,-263.7 785.22,-253.64 776.35,-259.44 781.9,-263.7"/>
</g>
<!-- Node23 -->
<g id="node23" class="node">
<title>Node23</title>
<g id="a_node23"><a xlink:href="box_8h.html" target="_top" xlink:title=" ">
<polygon fill="white" stroke="black" points="865.34,-290.5 865.34,-311.5 911.34,-311.5 911.34,-290.5 865.34,-290.5"/>
<text text-anchor="middle" x="888.34" y="-297.9" font-family="DejaVuSans" font-size="12.00">box.h</text>
</a>
</g>
</g>
<!-- Node1&#45;&gt;Node23 -->
<g id="edge42" class="edge">
<title>Node1&#45;&gt;Node23</title>
<path fill="none" stroke="midnightblue" d="M606.01,-415.36C669.32,-413.26 830.56,-404.57 869.34,-370 882.88,-357.92 887.12,-337.07 888.28,-321.63"/>
<polygon fill="midnightblue" stroke="midnightblue" points="891.78,-321.68 888.67,-311.55 884.78,-321.41 891.78,-321.68"/>
</g>
<!-- Node24 -->
<g id="node24" class="node">
<title>Node24</title>
<g id="a_node24"><a xlink:href="print_8h.html" target="_top" xlink:title=" ">
<polygon fill="white" stroke="black" points="338.34,-290.5 338.34,-311.5 388.34,-311.5 388.34,-290.5 338.34,-290.5"/>
<text text-anchor="middle" x="363.34" y="-297.9" font-family="DejaVuSans" font-size="12.00">print.h</text>
</a>
</g>
</g>
<!-- Node1&#45;&gt;Node24 -->
<g id="edge47" class="edge">
<title>Node1&#45;&gt;Node24</title>
<path fill="none" stroke="midnightblue" d="M556.14,-406.47C534.58,-397.73 502.36,-384.04 475.34,-370 443.58,-353.5 408.56,-331.6 386.28,-317.16"/>
<polygon fill="midnightblue" stroke="midnightblue" points="388.12,-314.19 377.83,-311.66 384.3,-320.05 388.12,-314.19"/>
</g>
<!-- Node25 -->
<g id="node25" class="node">
<title>Node25</title>
<g id="a_node25"><a xlink:href="pack_8h.html" target="_top" xlink:title=" ">
<polygon fill="white" stroke="black" points="808.34,-348.5 808.34,-369.5 860.34,-369.5 860.34,-348.5 808.34,-348.5"/>
<text text-anchor="middle" x="834.34" y="-355.9" font-family="DejaVuSans" font-size="12.00">pack.h</text>
</a>
</g>
</g>
<!-- Node1&#45;&gt;Node25 -->
<g id="edge54" class="edge">
<title>Node1&#45;&gt;Node25</title>
<path fill="none" stroke="midnightblue" d="M606.09,-410.32C651.61,-400.29 746.38,-379.39 798.34,-367.94"/>
<polygon fill="midnightblue" stroke="midnightblue" points="799.12,-371.35 808.14,-365.78 797.62,-364.51 799.12,-371.35"/>
</g>
<!-- Node26 -->
<g id="node26" class="node">
<title>Node26</title>
<g id="a_node26"><a xlink:href="page_8h.html" target="_top" xlink:title=" ">
<polygon fill="white" stroke="black" points="665.84,-290.5 665.84,-311.5 718.84,-311.5 718.84,-290.5 665.84,-290.5"/>
<text text-anchor="middle" x="692.34" y="-297.9" font-family="DejaVuSans" font-size="12.00">page.h</text>
</a>
</g>
</g>
<!-- Node1&#45;&gt;Node26 -->
<g id="edge57" class="edge">
<title>Node1&#45;&gt;Node26</title>
<path fill="none" stroke="midnightblue" d="M600.14,-406.35C615.43,-398.2 636.42,-385.41 651.34,-370 665.36,-355.52 676.74,-335.39 683.92,-320.79"/>
<polygon fill="midnightblue" stroke="midnightblue" points="687.11,-322.25 688.21,-311.71 680.78,-319.26 687.11,-322.25"/>
</g>
<!-- Node27 -->
<g id="node27" class="node">
<title>Node27</title>
<g id="a_node27"><a xlink:href="dviout_8h.html" target="_top" xlink:title=" ">
<polygon fill="white" stroke="black" points="142.84,-348.5 142.84,-369.5 201.84,-369.5 201.84,-348.5 142.84,-348.5"/>
<text text-anchor="middle" x="172.34" y="-355.9" font-family="DejaVuSans" font-size="12.00">dviout.h</text>
</a>
</g>
</g>
<!-- Node1&#45;&gt;Node27 -->
<g id="edge60" class="edge">
<title>Node1&#45;&gt;Node27</title>
<path fill="none" stroke="midnightblue" d="M554.54,-412.52C498.11,-404.89 359.44,-386.1 243.34,-370 233.17,-368.59 222.18,-367.05 211.95,-365.61"/>
<polygon fill="midnightblue" stroke="midnightblue" points="212.43,-362.14 202.04,-364.21 211.46,-369.07 212.43,-362.14"/>
</g>
<!-- Node28 -->
<g id="node28" class="node">
<title>Node28</title>
<g id="a_node28"><a xlink:href="scan_8h.html" target="_top" xlink:title=" ">
<polygon fill="white" stroke="black" points="416.34,-290.5 416.34,-311.5 468.34,-311.5 468.34,-290.5 416.34,-290.5"/>
<text text-anchor="middle" x="442.34" y="-297.9" font-family="DejaVuSans" font-size="12.00">scan.h</text>
</a>
</g>
</g>
<!-- Node1&#45;&gt;Node28 -->
<g id="edge64" class="edge">
<title>Node1&#45;&gt;Node28</title>
<path fill="none" stroke="midnightblue" d="M559.37,-406.44C542.46,-398.16 518.58,-385.15 500.34,-370 482.55,-355.22 465.81,-334.6 454.93,-319.95"/>
<polygon fill="midnightblue" stroke="midnightblue" points="457.66,-317.75 448.96,-311.7 451.99,-321.85 457.66,-317.75"/>
</g>
<!-- Node5 -->
<g id="node5" class="node">
<title>Node5</title>
<g id="a_node5"><a xlink:title=" ">
<polygon fill="white" stroke="#bfbfbf" points="303.34,-174.5 303.34,-195.5 355.34,-195.5 355.34,-174.5 303.34,-174.5"/>
<text text-anchor="middle" x="329.34" y="-181.9" font-family="DejaVuSans" font-size="12.00">stdio.h</text>
</a>
</g>
</g>
<!-- Node4&#45;&gt;Node5 -->
<g id="edge4" class="edge">
<title>Node4&#45;&gt;Node5</title>
<path fill="none" stroke="midnightblue" d="M439.47,-232.37C417.93,-223.3 385.45,-209.63 361.34,-199.48"/>
<polygon fill="midnightblue" stroke="midnightblue" points="362.48,-196.16 351.9,-195.5 359.76,-202.61 362.48,-196.16"/>
</g>
<!-- Node6 -->
<g id="node6" class="node">
<title>Node6</title>
<g id="a_node6"><a xlink:href="global_8h.html" target="_top" xlink:title=" ">
<polygon fill="white" stroke="black" points="392.34,-116.5 392.34,-137.5 450.34,-137.5 450.34,-116.5 392.34,-116.5"/>
<text text-anchor="middle" x="421.34" y="-123.9" font-family="DejaVuSans" font-size="12.00">global.h</text>
</a>
</g>
</g>
<!-- Node4&#45;&gt;Node6 -->
<g id="edge5" class="edge">
<title>Node4&#45;&gt;Node6</title>
<path fill="none" stroke="midnightblue" d="M458.84,-232.28C452.09,-213.52 437.16,-172 428.31,-147.38"/>
<polygon fill="midnightblue" stroke="midnightblue" points="431.5,-145.92 424.82,-137.69 424.92,-148.29 431.5,-145.92"/>
</g>
<!-- Node7 -->
<g id="node7" class="node">
<title>Node7</title>
<g id="a_node7"><a xlink:href="global__macros_8h.html" target="_top" xlink:title=" ">
<polygon fill="white" stroke="black" points="105.34,-58.5 105.34,-79.5 209.34,-79.5 209.34,-58.5 105.34,-58.5"/>
<text text-anchor="middle" x="157.34" y="-65.9" font-family="DejaVuSans" font-size="12.00">global_macros.h</text>
</a>
</g>
</g>
<!-- Node6&#45;&gt;Node7 -->
<g id="edge6" class="edge">
<title>Node6&#45;&gt;Node7</title>
<path fill="none" stroke="midnightblue" d="M392.33,-119.85C349.08,-110.67 266.92,-93.24 212.12,-81.62"/>
<polygon fill="midnightblue" stroke="midnightblue" points="212.74,-78.17 202.23,-79.52 211.28,-85.02 212.74,-78.17"/>
</g>
<!-- Node9 -->
<g id="node9" class="node">
<title>Node9</title>
<g id="a_node9"><a xlink:href="global__const_8h.html" target="_top" xlink:title=" ">
<polygon fill="white" stroke="black" points="271.84,-58.5 271.84,-79.5 364.84,-79.5 364.84,-58.5 271.84,-58.5"/>
<text text-anchor="middle" x="318.34" y="-65.9" font-family="DejaVuSans" font-size="12.00">global_const.h</text>
</a>
</g>
</g>
<!-- Node6&#45;&gt;Node9 -->
<g id="edge8" class="edge">
<title>Node6&#45;&gt;Node9</title>
<path fill="none" stroke="midnightblue" d="M403.4,-116.25C387.3,-107.49 363.45,-94.53 345.1,-84.55"/>
<polygon fill="midnightblue" stroke="midnightblue" points="346.53,-81.34 336.07,-79.64 343.19,-87.49 346.53,-81.34"/>
</g>
<!-- Node10 -->
<g id="node10" class="node">
<title>Node10</title>
<g id="a_node10"><a xlink:href="tex__types_8h.html" target="_top" xlink:title=" ">
<polygon fill="white" stroke="black" points="382.84,-58.5 382.84,-79.5 459.84,-79.5 459.84,-58.5 382.84,-58.5"/>
<text text-anchor="middle" x="421.34" y="-65.9" font-family="DejaVuSans" font-size="12.00">tex_types.h</text>
</a>
</g>
</g>
<!-- Node6&#45;&gt;Node10 -->
<g id="edge9" class="edge">
<title>Node6&#45;&gt;Node10</title>
<path fill="none" stroke="midnightblue" d="M421.34,-116.25C421.34,-108.94 421.34,-98.69 421.34,-89.7"/>
<polygon fill="midnightblue" stroke="midnightblue" points="424.84,-89.64 421.34,-79.64 417.84,-89.64 424.84,-89.64"/>
</g>
<!-- Node8 -->
<g id="node8" class="node">
<title>Node8</title>
<g id="a_node8"><a xlink:title=" ">
<polygon fill="white" stroke="#bfbfbf" points="127.84,-0.5 127.84,-21.5 186.84,-21.5 186.84,-0.5 127.84,-0.5"/>
<text text-anchor="middle" x="157.34" y="-7.9" font-family="DejaVuSans" font-size="12.00">assert.h</text>
</a>
</g>
</g>
<!-- Node7&#45;&gt;Node8 -->
<g id="edge7" class="edge">
<title>Node7&#45;&gt;Node8</title>
<path fill="none" stroke="midnightblue" d="M157.34,-58.25C157.34,-50.94 157.34,-40.69 157.34,-31.7"/>
<polygon fill="midnightblue" stroke="midnightblue" points="160.84,-31.64 157.34,-21.64 153.84,-31.64 160.84,-31.64"/>
</g>
<!-- Node11 -->
<g id="node11" class="node">
<title>Node11</title>
<g id="a_node11"><a xlink:title=" ">
<polygon fill="white" stroke="#bfbfbf" points="388.84,-0.5 388.84,-21.5 453.84,-21.5 453.84,-0.5 388.84,-0.5"/>
<text text-anchor="middle" x="421.34" y="-7.9" font-family="DejaVuSans" font-size="12.00">stdbool.h</text>
</a>
</g>
</g>
<!-- Node10&#45;&gt;Node11 -->
<g id="edge10" class="edge">
<title>Node10&#45;&gt;Node11</title>
<path fill="none" stroke="midnightblue" d="M421.34,-58.25C421.34,-50.94 421.34,-40.69 421.34,-31.7"/>
<polygon fill="midnightblue" stroke="midnightblue" points="424.84,-31.64 421.34,-21.64 417.84,-31.64 424.84,-31.64"/>
</g>
<!-- Node12 -->
<g id="node12" class="node">
<title>Node12</title>
<g id="a_node12"><a xlink:title=" ">
<polygon fill="white" stroke="#bfbfbf" points="262.84,-0.5 262.84,-21.5 317.84,-21.5 317.84,-0.5 262.84,-0.5"/>
<text text-anchor="middle" x="290.34" y="-7.9" font-family="DejaVuSans" font-size="12.00">stdint.h</text>
</a>
</g>
</g>
<!-- Node10&#45;&gt;Node12 -->
<g id="edge11" class="edge">
<title>Node10&#45;&gt;Node12</title>
<path fill="none" stroke="midnightblue" d="M398.82,-58.37C377.6,-49.3 345.61,-35.63 321.86,-25.48"/>
<polygon fill="midnightblue" stroke="midnightblue" points="323.13,-22.21 312.56,-21.5 320.38,-28.65 323.13,-22.21"/>
</g>
<!-- Node13&#45;&gt;Node3 -->
<g id="edge15" class="edge">
<title>Node13&#45;&gt;Node3</title>
<path fill="none" stroke="midnightblue" d="M603.67,-232.25C593.77,-223.97 579.37,-211.94 567.75,-202.22"/>
<polygon fill="midnightblue" stroke="midnightblue" points="569.79,-199.37 559.87,-195.64 565.3,-204.74 569.79,-199.37"/>
</g>
<!-- Node13&#45;&gt;Node5 -->
<g id="edge13" class="edge">
<title>Node13&#45;&gt;Node5</title>
<path fill="none" stroke="midnightblue" d="M589.2,-236.88C537.95,-226.85 424.16,-204.57 365.64,-193.11"/>
<polygon fill="midnightblue" stroke="midnightblue" points="366.21,-189.65 355.73,-191.17 364.87,-196.52 366.21,-189.65"/>
</g>
<!-- Node13&#45;&gt;Node6 -->
<g id="edge14" class="edge">
<title>Node13&#45;&gt;Node6</title>
<path fill="none" stroke="midnightblue" d="M616.8,-232.26C618.4,-217.64 619.05,-190.04 604.34,-174 585.2,-153.14 508.5,-139.48 460.68,-132.81"/>
<polygon fill="midnightblue" stroke="midnightblue" points="461.03,-129.32 450.66,-131.45 460.1,-136.26 461.03,-129.32"/>
</g>
<!-- Node14&#45;&gt;Node6 -->
<g id="edge17" class="edge">
<title>Node14&#45;&gt;Node6</title>
<path fill="none" stroke="midnightblue" d="M943.54,-232.06C937.07,-216.64 922.33,-187.35 899.34,-174 825.09,-130.89 560.91,-127.37 460.48,-127.64"/>
<polygon fill="midnightblue" stroke="midnightblue" points="460.43,-124.14 450.44,-127.69 460.46,-131.14 460.43,-124.14"/>
</g>
<!-- Node15&#45;&gt;Node3 -->
<g id="edge21" class="edge">
<title>Node15&#45;&gt;Node3</title>
<path fill="none" stroke="midnightblue" d="M180,-290.19C192.5,-274.95 218.88,-245.91 248.34,-232 326.88,-194.93 428.64,-186.52 491.17,-185.24"/>
<polygon fill="midnightblue" stroke="midnightblue" points="491.29,-188.74 501.24,-185.09 491.18,-181.74 491.29,-188.74"/>
</g>
<!-- Node15&#45;&gt;Node5 -->
<g id="edge19" class="edge">
<title>Node15&#45;&gt;Node5</title>
<path fill="none" stroke="midnightblue" d="M169.97,-290.45C167.03,-276.09 163.87,-248.82 177.34,-232 204.9,-197.57 257.36,-188.21 292.84,-186.03"/>
<polygon fill="midnightblue" stroke="midnightblue" points="293.43,-189.51 303.27,-185.56 293.12,-182.51 293.43,-189.51"/>
</g>
<!-- Node15&#45;&gt;Node6 -->
<g id="edge20" class="edge">
<title>Node15&#45;&gt;Node6</title>
<path fill="none" stroke="midnightblue" d="M146.22,-299.01C98.03,-295.94 1.85,-283.39 22.34,-232 35.5,-199 45.7,-190.17 77.34,-174 129.91,-147.14 303.55,-134.45 382.11,-129.97"/>
<polygon fill="midnightblue" stroke="midnightblue" points="382.31,-133.47 392.1,-129.42 381.92,-126.48 382.31,-133.47"/>
</g>
<!-- Node16 -->
<g id="node16" class="node">
<title>Node16</title>
<g id="a_node16"><a xlink:href="str_8h.html" target="_top" xlink:title=" ">
<polygon fill="white" stroke="black" points="257.84,-232.5 257.84,-253.5 296.84,-253.5 296.84,-232.5 257.84,-232.5"/>
<text text-anchor="middle" x="277.34" y="-239.9" font-family="DejaVuSans" font-size="12.00">str.h</text>
</a>
</g>
</g>
<!-- Node15&#45;&gt;Node16 -->
<g id="edge22" class="edge">
<title>Node15&#45;&gt;Node16</title>
<path fill="none" stroke="midnightblue" d="M190.63,-290.25C207.11,-281.45 231.57,-268.41 250.31,-258.41"/>
<polygon fill="midnightblue" stroke="midnightblue" points="252.08,-261.44 259.26,-253.64 248.79,-255.26 252.08,-261.44"/>
</g>
<!-- Node18 -->
<g id="node18" class="node">
<title>Node18</title>
<g id="a_node18"><a xlink:href="dump_8h.html" target="_top" xlink:title=" ">
<polygon fill="white" stroke="black" points="31.34,-232.5 31.34,-253.5 87.34,-253.5 87.34,-232.5 31.34,-232.5"/>
<text text-anchor="middle" x="59.34" y="-239.9" font-family="DejaVuSans" font-size="12.00">dump.h</text>
</a>
</g>
</g>
<!-- Node15&#45;&gt;Node18 -->
<g id="edge28" class="edge">
<title>Node15&#45;&gt;Node18</title>
<path fill="none" stroke="midnightblue" d="M152.91,-290.37C134.94,-281.46 107.99,-268.11 87.63,-258.02"/>
<polygon fill="midnightblue" stroke="midnightblue" points="89.02,-254.81 78.51,-253.5 85.92,-261.08 89.02,-254.81"/>
</g>
<!-- Node16&#45;&gt;Node5 -->
<g id="edge23" class="edge">
<title>Node16&#45;&gt;Node5</title>
<path fill="none" stroke="midnightblue" d="M286.4,-232.25C293.85,-224.22 304.6,-212.64 313.48,-203.08"/>
<polygon fill="midnightblue" stroke="midnightblue" points="316.14,-205.35 320.38,-195.64 311.01,-200.59 316.14,-205.35"/>
</g>
<!-- Node16&#45;&gt;Node6 -->
<g id="edge25" class="edge">
<title>Node16&#45;&gt;Node6</title>
<path fill="none" stroke="midnightblue" d="M277.06,-232.36C277.17,-217.88 279.5,-190.44 294.34,-174 316.86,-149.04 354,-137.61 382.31,-132.38"/>
<polygon fill="midnightblue" stroke="midnightblue" points="383.01,-135.81 392.3,-130.72 381.86,-128.91 383.01,-135.81"/>
</g>
<!-- Node16&#45;&gt;Node12 -->
<g id="edge24" class="edge">
<title>Node16&#45;&gt;Node12</title>
<path fill="none" stroke="midnightblue" d="M274.18,-232.19C265.69,-204.32 244.25,-122.5 262.34,-58 265.13,-48.06 270.72,-38.13 276.18,-30.06"/>
<polygon fill="midnightblue" stroke="midnightblue" points="279.11,-31.99 282.13,-21.83 273.43,-27.88 279.11,-31.99"/>
</g>
<!-- Node17 -->
<g id="node17" class="node">
<title>Node17</title>
<g id="a_node17"><a xlink:href="charset_8h.html" target="_top" xlink:title=" ">
<polygon fill="white" stroke="black" points="143.84,-174.5 143.84,-195.5 208.84,-195.5 208.84,-174.5 143.84,-174.5"/>
<text text-anchor="middle" x="176.34" y="-181.9" font-family="DejaVuSans" font-size="12.00">charset.h</text>
</a>
</g>
</g>
<!-- Node16&#45;&gt;Node17 -->
<g id="edge26" class="edge">
<title>Node16&#45;&gt;Node17</title>
<path fill="none" stroke="midnightblue" d="M259.74,-232.25C243.96,-223.49 220.57,-210.53 202.58,-200.55"/>
<polygon fill="midnightblue" stroke="midnightblue" points="204.17,-197.43 193.73,-195.64 200.78,-203.55 204.17,-197.43"/>
</g>
<!-- Node17&#45;&gt;Node6 -->
<g id="edge27" class="edge">
<title>Node17&#45;&gt;Node6</title>
<path fill="none" stroke="midnightblue" d="M208.87,-176.56C253.62,-166.34 334.06,-147.95 382.09,-136.97"/>
<polygon fill="midnightblue" stroke="midnightblue" points="383.15,-140.32 392.11,-134.68 381.59,-133.5 383.15,-140.32"/>
</g>
<!-- Node18&#45;&gt;Node5 -->
<g id="edge29" class="edge">
<title>Node18&#45;&gt;Node5</title>
<path fill="none" stroke="midnightblue" d="M87.47,-236.17C136.83,-225.93 238.95,-204.75 293.36,-193.46"/>
<polygon fill="midnightblue" stroke="midnightblue" points="294.18,-196.87 303.26,-191.41 292.76,-190.01 294.18,-196.87"/>
</g>
<!-- Node18&#45;&gt;Node6 -->
<g id="edge30" class="edge">
<title>Node18&#45;&gt;Node6</title>
<path fill="none" stroke="midnightblue" d="M62.37,-232.21C67.63,-217 79.98,-187.99 101.34,-174 146.81,-144.2 306.71,-133.16 381.81,-129.55"/>
<polygon fill="midnightblue" stroke="midnightblue" points="382.42,-133.03 392.25,-129.07 382.1,-126.03 382.42,-133.03"/>
</g>
<!-- Node19&#45;&gt;Node6 -->
<g id="edge32" class="edge">
<title>Node19&#45;&gt;Node6</title>
<path fill="none" stroke="midnightblue" d="M969.06,-177.2C962.54,-176.01 955.74,-174.88 949.34,-174 767.36,-148.97 548.11,-135 460.39,-130.07"/>
<polygon fill="midnightblue" stroke="midnightblue" points="460.53,-126.57 450.35,-129.51 460.14,-133.56 460.53,-126.57"/>
</g>
<!-- Node20&#45;&gt;Node6 -->
<g id="edge34" class="edge">
<title>Node20&#45;&gt;Node6</title>
<path fill="none" stroke="midnightblue" d="M251.71,-291.06C200.07,-271.72 91.94,-223.73 134.34,-174 165.63,-137.29 310.25,-129.76 381.48,-128.29"/>
<polygon fill="midnightblue" stroke="midnightblue" points="381.91,-131.79 391.84,-128.11 381.78,-124.79 381.91,-131.79"/>
</g>
<!-- Node20&#45;&gt;Node16 -->
<g id="edge35" class="edge">
<title>Node20&#45;&gt;Node16</title>
<path fill="none" stroke="midnightblue" d="M277.34,-290.25C277.34,-282.94 277.34,-272.69 277.34,-263.7"/>
<polygon fill="midnightblue" stroke="midnightblue" points="280.84,-263.64 277.34,-253.64 273.84,-263.64 280.84,-263.64"/>
</g>
<!-- Node21&#45;&gt;Node3 -->
<g id="edge38" class="edge">
<title>Node21&#45;&gt;Node3</title>
<path fill="none" stroke="midnightblue" d="M660.96,-232.37C638.83,-223.26 605.42,-209.51 580.74,-199.34"/>
<polygon fill="midnightblue" stroke="midnightblue" points="581.99,-196.07 571.41,-195.5 579.33,-202.55 581.99,-196.07"/>
</g>
<!-- Node21&#45;&gt;Node6 -->
<g id="edge37" class="edge">
<title>Node21&#45;&gt;Node6</title>
<path fill="none" stroke="midnightblue" d="M678.54,-232.4C669,-217.45 648.49,-188.8 623.34,-174 572.22,-143.93 503.14,-133.51 460.45,-129.9"/>
<polygon fill="midnightblue" stroke="midnightblue" points="460.69,-126.41 450.45,-129.14 460.16,-133.39 460.69,-126.41"/>
</g>
<!-- Node22&#45;&gt;Node3 -->
<g id="edge41" class="edge">
<title>Node22&#45;&gt;Node3</title>
<path fill="none" stroke="midnightblue" d="M765.76,-235.9C726.04,-226.78 650.45,-209.44 599.72,-197.79"/>
<polygon fill="midnightblue" stroke="midnightblue" points="600.45,-194.37 589.92,-195.54 598.88,-201.19 600.45,-194.37"/>
</g>
<!-- Node22&#45;&gt;Node6 -->
<g id="edge40" class="edge">
<title>Node22&#45;&gt;Node6</title>
<path fill="none" stroke="midnightblue" d="M789.46,-232.2C784.43,-216.99 772.51,-187.97 751.34,-174 704.31,-142.96 537.71,-132.52 460.79,-129.31"/>
<polygon fill="midnightblue" stroke="midnightblue" points="460.69,-125.8 450.56,-128.9 460.41,-132.79 460.69,-125.8"/>
</g>
<!-- Node23&#45;&gt;Node6 -->
<g id="edge43" class="edge">
<title>Node23&#45;&gt;Node6</title>
<path fill="none" stroke="midnightblue" d="M889.65,-290.29C892.27,-266.4 895.29,-204.5 861.34,-174 831.82,-147.48 563.15,-133.8 460.74,-129.51"/>
<polygon fill="midnightblue" stroke="midnightblue" points="460.65,-126 450.51,-129.09 460.36,-133 460.65,-126"/>
</g>
<!-- Node23&#45;&gt;Node14 -->
<g id="edge45" class="edge">
<title>Node23&#45;&gt;Node14</title>
<path fill="none" stroke="midnightblue" d="M898.61,-290.25C907.16,-282.14 919.52,-270.41 929.65,-260.79"/>
<polygon fill="midnightblue" stroke="midnightblue" points="932.33,-263.07 937.18,-253.64 927.52,-257.99 932.33,-263.07"/>
</g>
<!-- Node23&#45;&gt;Node16 -->
<g id="edge46" class="edge">
<title>Node23&#45;&gt;Node16</title>
<path fill="none" stroke="midnightblue" d="M865.13,-297.87C770.4,-289.19 413.02,-256.44 307.1,-246.73"/>
<polygon fill="midnightblue" stroke="midnightblue" points="307.37,-243.24 297.1,-245.81 306.73,-250.21 307.37,-243.24"/>
</g>
<!-- Node23&#45;&gt;Node22 -->
<g id="edge44" class="edge">
<title>Node23&#45;&gt;Node22</title>
<path fill="none" stroke="midnightblue" d="M871.62,-290.25C856.75,-281.57 834.79,-268.76 817.75,-258.82"/>
<polygon fill="midnightblue" stroke="midnightblue" points="819.27,-255.66 808.87,-253.64 815.74,-261.7 819.27,-255.66"/>
</g>
<!-- Node24&#45;&gt;Node3 -->
<g id="edge51" class="edge">
<title>Node24&#45;&gt;Node3</title>
<path fill="none" stroke="midnightblue" d="M388.38,-293.98C423.72,-285.13 485.97,-268.13 504.34,-254 520.82,-241.32 532.94,-220.6 540.24,-205.36"/>
<polygon fill="midnightblue" stroke="midnightblue" points="543.61,-206.4 544.52,-195.85 537.22,-203.53 543.61,-206.4"/>
</g>
<!-- Node24&#45;&gt;Node5 -->
<g id="edge48" class="edge">
<title>Node24&#45;&gt;Node5</title>
<path fill="none" stroke="midnightblue" d="M360.42,-290.49C357.57,-281.2 353.12,-266.64 349.34,-254 344.44,-237.63 338.97,-219.01 334.99,-205.4"/>
<polygon fill="midnightblue" stroke="midnightblue" points="338.32,-204.31 332.16,-195.69 331.6,-206.27 338.32,-204.31"/>
</g>
<!-- Node24&#45;&gt;Node6 -->
<g id="edge49" class="edge">
<title>Node24&#45;&gt;Node6</title>
<path fill="none" stroke="midnightblue" d="M366.62,-290.26C375.91,-262.71 402.51,-183.83 414.87,-147.17"/>
<polygon fill="midnightblue" stroke="midnightblue" points="418.21,-148.23 418.09,-137.63 411.58,-145.99 418.21,-148.23"/>
</g>
<!-- Node24&#45;&gt;Node16 -->
<g id="edge53" class="edge">
<title>Node24&#45;&gt;Node16</title>
<path fill="none" stroke="midnightblue" d="M348.36,-290.25C335.16,-281.65 315.73,-269 300.53,-259.1"/>
<polygon fill="midnightblue" stroke="midnightblue" points="302.44,-256.17 292.15,-253.64 298.62,-262.03 302.44,-256.17"/>
</g>
<!-- Node24&#45;&gt;Node17 -->
<g id="edge50" class="edge">
<title>Node24&#45;&gt;Node17</title>
<path fill="none" stroke="midnightblue" d="M338.27,-292.98C314.06,-285.53 276.97,-272.3 248.34,-254 226.09,-239.78 204.63,-218.15 191.01,-203.12"/>
<polygon fill="midnightblue" stroke="midnightblue" points="193.55,-200.71 184.3,-195.54 188.3,-205.34 193.55,-200.71"/>
</g>
<!-- Node24&#45;&gt;Node21 -->
<g id="edge52" class="edge">
<title>Node24&#45;&gt;Node21</title>
<path fill="none" stroke="midnightblue" d="M388.4,-293.96C394.57,-292.56 401.18,-291.15 407.34,-290 511.5,-270.48 541.94,-277.04 649.26,-253.99"/>
<polygon fill="midnightblue" stroke="midnightblue" points="650.16,-257.37 659.19,-251.82 648.67,-250.54 650.16,-257.37"/>
</g>
<!-- Node25&#45;&gt;Node6 -->
<g id="edge55" class="edge">
<title>Node25&#45;&gt;Node6</title>
<path fill="none" stroke="midnightblue" d="M836.02,-348.36C839.36,-326.6 845.15,-272.44 828.34,-232 814.93,-199.76 806.31,-190.12 775.34,-174 721.21,-145.83 540.91,-133.78 460.56,-129.72"/>
<polygon fill="midnightblue" stroke="midnightblue" points="460.52,-126.21 450.36,-129.22 460.18,-133.2 460.52,-126.21"/>
</g>
<!-- Node25&#45;&gt;Node23 -->
<g id="edge56" class="edge">
<title>Node25&#45;&gt;Node23</title>
<path fill="none" stroke="midnightblue" d="M843.74,-348.25C851.49,-340.22 862.65,-328.64 871.87,-319.08"/>
<polygon fill="midnightblue" stroke="midnightblue" points="874.62,-321.27 879.04,-311.64 869.58,-316.41 874.62,-321.27"/>
</g>
<!-- Node26&#45;&gt;Node6 -->
<g id="edge58" class="edge">
<title>Node26&#45;&gt;Node6</title>
<path fill="none" stroke="midnightblue" d="M701.1,-290.15C711.87,-276.76 727.66,-252.2 718.34,-232 701.7,-195.93 686.07,-191.36 650.34,-174 588.45,-143.94 508.01,-133.52 460.79,-129.91"/>
<polygon fill="midnightblue" stroke="midnightblue" points="460.89,-126.41 450.67,-129.2 460.4,-133.39 460.89,-126.41"/>
</g>
<!-- Node26&#45;&gt;Node13 -->
<g id="edge59" class="edge">
<title>Node26&#45;&gt;Node13</title>
<path fill="none" stroke="midnightblue" d="M678.93,-290.25C667.33,-281.81 650.36,-269.47 636.87,-259.66"/>
<polygon fill="midnightblue" stroke="midnightblue" points="638.74,-256.69 628.6,-253.64 634.62,-262.36 638.74,-256.69"/>
</g>
<!-- Node27&#45;&gt;Node6 -->
<g id="edge61" class="edge">
<title>Node27&#45;&gt;Node6</title>
<path fill="none" stroke="midnightblue" d="M142.56,-350.21C102.72,-339.53 36.15,-320.68 28.34,-312 -12.85,-266.24 -8.7,-211.22 40.34,-174 93.38,-133.73 295.92,-128.3 382.12,-127.86"/>
<polygon fill="midnightblue" stroke="midnightblue" points="382.29,-131.36 392.28,-127.83 382.27,-124.36 382.29,-131.36"/>
</g>
<!-- Node27&#45;&gt;Node15 -->
<g id="edge63" class="edge">
<title>Node27&#45;&gt;Node15</title>
<path fill="none" stroke="midnightblue" d="M172.34,-348.25C172.34,-340.94 172.34,-330.69 172.34,-321.7"/>
<polygon fill="midnightblue" stroke="midnightblue" points="175.84,-321.64 172.34,-311.64 168.84,-321.64 175.84,-321.64"/>
</g>
<!-- Node27&#45;&gt;Node17 -->
<g id="edge62" class="edge">
<title>Node27&#45;&gt;Node17</title>
<path fill="none" stroke="midnightblue" d="M142.43,-348.43C88.29,-329.52 -16.88,-284.64 22.34,-232 47.67,-197.99 97.21,-188.15 133.28,-185.77"/>
<polygon fill="midnightblue" stroke="midnightblue" points="133.72,-189.25 143.53,-185.26 133.37,-182.26 133.72,-189.25"/>
</g>
<!-- Node28&#45;&gt;Node6 -->
<g id="edge65" class="edge">
<title>Node28&#45;&gt;Node6</title>
<path fill="none" stroke="midnightblue" d="M436.08,-290.24C430.7,-281.24 423.35,-267.3 420.34,-254 411.99,-217.18 415.35,-172.75 418.43,-147.69"/>
<polygon fill="midnightblue" stroke="midnightblue" points="421.91,-148.02 419.78,-137.64 414.98,-147.09 421.91,-148.02"/>
</g>
<!-- Node28&#45;&gt;Node13 -->
<g id="edge66" class="edge">
<title>Node28&#45;&gt;Node13</title>
<path fill="none" stroke="midnightblue" d="M468.61,-291.49C498.17,-281.93 546.34,-266.33 579.37,-255.64"/>
<polygon fill="midnightblue" stroke="midnightblue" points="580.66,-258.9 589.1,-252.49 578.51,-252.24 580.66,-258.9"/>
</g>
<!-- Node28&#45;&gt;Node16 -->
<g id="edge67" class="edge">
<title>Node28&#45;&gt;Node16</title>
<path fill="none" stroke="midnightblue" d="M416.19,-291.13C386.48,-281.04 338.07,-264.61 306.98,-254.06"/>
<polygon fill="midnightblue" stroke="midnightblue" points="307.74,-250.62 297.15,-250.72 305.49,-257.25 307.74,-250.62"/>
</g>
</g>
</svg>
