<?xml version="1.0" encoding="UTF-8" standalone="no"?>
<!DOCTYPE svg PUBLIC "-//W3C//DTD SVG 1.1//EN"
 "http://www.w3.org/Graphics/SVG/1.1/DTD/svg11.dtd">
<!-- Generated by graphviz version 2.44.0 ()
 -->
<!-- Title: scan.h Pages: 1 -->
<svg width="1716pt" height="262pt"
 viewBox="0.00 0.00 1716.00 262.00" xmlns="http://www.w3.org/2000/svg" xmlns:xlink="http://www.w3.org/1999/xlink">
<g id="graph0" class="graph" transform="scale(1 1) rotate(0) translate(4 258)">
<title>scan.h</title>
<polygon fill="white" stroke="transparent" points="-4,4 -4,-258 1712,-258 1712,4 -4,4"/>
<!-- Node1 -->
<g id="node1" class="node">
<title>Node1</title>
<g id="a_node1"><a xlink:title=" ">
<polygon fill="#bfbfbf" stroke="black" points="1089.5,-232.5 1089.5,-253.5 1141.5,-253.5 1141.5,-232.5 1089.5,-232.5"/>
<text text-anchor="middle" x="1115.5" y="-239.9" font-family="DejaVuSans" font-size="12.00">scan.h</text>
</a>
</g>
</g>
<!-- Node2 -->
<g id="node2" class="node">
<title>Node2</title>
<g id="a_node2"><a xlink:href="align_8c.html" target="_top" xlink:title=" ">
<polygon fill="white" stroke="black" points="0,-58.5 0,-79.5 51,-79.5 51,-58.5 0,-58.5"/>
<text text-anchor="middle" x="25.5" y="-65.9" font-family="DejaVuSans" font-size="12.00">align.c</text>
</a>
</g>
</g>
<!-- Node1&#45;&gt;Node2 -->
<g id="edge1" class="edge">
<title>Node1&#45;&gt;Node2</title>
<path fill="none" stroke="midnightblue" d="M1078.86,-241.64C937.21,-240.01 425.53,-231.71 267.5,-196 201.4,-181.07 186.24,-169.97 126.5,-138 92.95,-120.05 56.65,-93.72 38.05,-79.67"/>
<polygon fill="midnightblue" stroke="midnightblue" points="1079.12,-245.15 1089.16,-241.76 1079.2,-238.15 1079.12,-245.15"/>
</g>
<!-- Node3 -->
<g id="node3" class="node">
<title>Node3</title>
<g id="a_node3"><a xlink:href="dviout_8c.html" target="_top" xlink:title=" ">
<polygon fill="white" stroke="black" points="1006.5,-174.5 1006.5,-195.5 1064.5,-195.5 1064.5,-174.5 1006.5,-174.5"/>
<text text-anchor="middle" x="1035.5" y="-181.9" font-family="DejaVuSans" font-size="12.00">dviout.c</text>
</a>
</g>
</g>
<!-- Node1&#45;&gt;Node3 -->
<g id="edge2" class="edge">
<title>Node1&#45;&gt;Node3</title>
<path fill="none" stroke="midnightblue" d="M1093.34,-226.49C1079.23,-216.61 1061.38,-204.12 1049.28,-195.64"/>
<polygon fill="midnightblue" stroke="midnightblue" points="1091.37,-229.38 1101.57,-232.25 1095.38,-223.64 1091.37,-229.38"/>
</g>
<!-- Node4 -->
<g id="node4" class="node">
<title>Node4</title>
<g id="a_node4"><a xlink:href="expand_8c.html" target="_top" xlink:title=" ">
<polygon fill="white" stroke="black" points="1083,-174.5 1083,-195.5 1148,-195.5 1148,-174.5 1083,-174.5"/>
<text text-anchor="middle" x="1115.5" y="-181.9" font-family="DejaVuSans" font-size="12.00">expand.c</text>
</a>
</g>
</g>
<!-- Node1&#45;&gt;Node4 -->
<g id="edge3" class="edge">
<title>Node1&#45;&gt;Node4</title>
<path fill="none" stroke="midnightblue" d="M1115.5,-222.16C1115.5,-213.16 1115.5,-202.92 1115.5,-195.64"/>
<polygon fill="midnightblue" stroke="midnightblue" points="1112,-222.25 1115.5,-232.25 1119,-222.25 1112,-222.25"/>
</g>
<!-- Node5 -->
<g id="node5" class="node">
<title>Node5</title>
<g id="a_node5"><a xlink:href="fonts_8c.html" target="_top" xlink:title=" ">
<polygon fill="white" stroke="black" points="1166,-174.5 1166,-195.5 1217,-195.5 1217,-174.5 1166,-174.5"/>
<text text-anchor="middle" x="1191.5" y="-181.9" font-family="DejaVuSans" font-size="12.00">fonts.c</text>
</a>
</g>
</g>
<!-- Node1&#45;&gt;Node5 -->
<g id="edge4" class="edge">
<title>Node1&#45;&gt;Node5</title>
<path fill="none" stroke="midnightblue" d="M1136.93,-226.21C1150.28,-216.37 1167.02,-204.04 1178.41,-195.64"/>
<polygon fill="midnightblue" stroke="midnightblue" points="1134.71,-223.5 1128.74,-232.25 1138.86,-229.13 1134.71,-223.5"/>
</g>
<!-- Node6 -->
<g id="node6" class="node">
<title>Node6</title>
<g id="a_node6"><a xlink:href="hash_8c.html" target="_top" xlink:title=" ">
<polygon fill="white" stroke="black" points="1235.5,-174.5 1235.5,-195.5 1287.5,-195.5 1287.5,-174.5 1235.5,-174.5"/>
<text text-anchor="middle" x="1261.5" y="-181.9" font-family="DejaVuSans" font-size="12.00">hash.c</text>
</a>
</g>
</g>
<!-- Node1&#45;&gt;Node6 -->
<g id="edge5" class="edge">
<title>Node1&#45;&gt;Node6</title>
<path fill="none" stroke="midnightblue" d="M1149.94,-228.79C1176.6,-218.56 1212.88,-204.65 1236.73,-195.5"/>
<polygon fill="midnightblue" stroke="midnightblue" points="1148.68,-225.52 1140.6,-232.37 1151.19,-232.06 1148.68,-225.52"/>
</g>
<!-- Node7 -->
<g id="node7" class="node">
<title>Node7</title>
<g id="a_node7"><a xlink:href="hyphen_8c.html" target="_top" xlink:title=" ">
<polygon fill="white" stroke="black" points="1306,-174.5 1306,-195.5 1371,-195.5 1371,-174.5 1306,-174.5"/>
<text text-anchor="middle" x="1338.5" y="-181.9" font-family="DejaVuSans" font-size="12.00">hyphen.c</text>
</a>
</g>
</g>
<!-- Node1&#45;&gt;Node7 -->
<g id="edge6" class="edge">
<title>Node1&#45;&gt;Node7</title>
<path fill="none" stroke="midnightblue" d="M1151.47,-232.97C1194.13,-222.25 1264.62,-204.55 1305.8,-194.21"/>
<polygon fill="midnightblue" stroke="midnightblue" points="1150.36,-229.64 1141.52,-235.47 1152.07,-236.43 1150.36,-229.64"/>
</g>
<!-- Node8 -->
<g id="node8" class="node">
<title>Node8</title>
<g id="a_node8"><a xlink:href="hyphen__init_8c.html" target="_top" xlink:title=" ">
<polygon fill="white" stroke="black" points="1389.5,-174.5 1389.5,-195.5 1477.5,-195.5 1477.5,-174.5 1389.5,-174.5"/>
<text text-anchor="middle" x="1433.5" y="-181.9" font-family="DejaVuSans" font-size="12.00">hyphen_init.c</text>
</a>
</g>
</g>
<!-- Node1&#45;&gt;Node8 -->
<g id="edge7" class="edge">
<title>Node1&#45;&gt;Node8</title>
<path fill="none" stroke="midnightblue" d="M1151.75,-235.88C1202.81,-227.22 1298.83,-210.79 1380.5,-196 1383.36,-195.48 1386.3,-194.94 1389.26,-194.4"/>
<polygon fill="midnightblue" stroke="midnightblue" points="1151.13,-232.44 1141.85,-237.56 1152.3,-239.34 1151.13,-232.44"/>
</g>
<!-- Node9 -->
<g id="node9" class="node">
<title>Node9</title>
<g id="a_node9"><a xlink:href="io__fname_8c.html" target="_top" xlink:title=" ">
<polygon fill="white" stroke="black" points="1495,-174.5 1495,-195.5 1570,-195.5 1570,-174.5 1495,-174.5"/>
<text text-anchor="middle" x="1532.5" y="-181.9" font-family="DejaVuSans" font-size="12.00">io_fname.c</text>
</a>
</g>
</g>
<!-- Node1&#45;&gt;Node9 -->
<g id="edge8" class="edge">
<title>Node1&#45;&gt;Node9</title>
<path fill="none" stroke="midnightblue" d="M1151.69,-238.61C1218.24,-232.14 1364.43,-216.79 1486.5,-196 1489.24,-195.53 1492.06,-195.01 1494.9,-194.47"/>
<polygon fill="midnightblue" stroke="midnightblue" points="1151.33,-235.13 1141.71,-239.58 1152,-242.1 1151.33,-235.13"/>
</g>
<!-- Node10 -->
<g id="node10" class="node">
<title>Node10</title>
<g id="a_node10"><a xlink:href="main__ctrl_8h.html" target="_top" xlink:title=" ">
<polygon fill="white" stroke="black" points="207.5,-116.5 207.5,-137.5 281.5,-137.5 281.5,-116.5 207.5,-116.5"/>
<text text-anchor="middle" x="244.5" y="-123.9" font-family="DejaVuSans" font-size="12.00">main_ctrl.h</text>
</a>
</g>
</g>
<!-- Node1&#45;&gt;Node10 -->
<g id="edge9" class="edge">
<title>Node1&#45;&gt;Node10</title>
<path fill="none" stroke="midnightblue" d="M1079.49,-241.76C930.29,-240.51 365.24,-233.35 295.5,-196 271.3,-183.04 255.34,-153.02 248.43,-137.57"/>
<polygon fill="midnightblue" stroke="midnightblue" points="1079.47,-245.26 1089.5,-241.84 1079.53,-238.26 1079.47,-245.26"/>
</g>
<!-- Node16 -->
<g id="node16" class="node">
<title>Node16</title>
<g id="a_node16"><a xlink:href="page__builder_8c.html" target="_top" xlink:title=" ">
<polygon fill="white" stroke="black" points="523,-58.5 523,-79.5 618,-79.5 618,-58.5 523,-58.5"/>
<text text-anchor="middle" x="570.5" y="-65.9" font-family="DejaVuSans" font-size="12.00">page_builder.c</text>
</a>
</g>
</g>
<!-- Node1&#45;&gt;Node16 -->
<g id="edge34" class="edge">
<title>Node1&#45;&gt;Node16</title>
<path fill="none" stroke="midnightblue" d="M1078.99,-240.08C930.33,-231.89 376.25,-197.52 328.5,-138 322.38,-130.37 322.26,-123.53 328.5,-116 334.7,-108.52 454.07,-88.47 522.8,-77.48"/>
<polygon fill="midnightblue" stroke="midnightblue" points="1079.2,-243.6 1089.37,-240.65 1079.58,-236.61 1079.2,-243.6"/>
</g>
<!-- Node17 -->
<g id="node17" class="node">
<title>Node17</title>
<g id="a_node17"><a xlink:href="tex__header_8h.html" target="_top" xlink:title=" ">
<polygon fill="white" stroke="black" points="859.5,-58.5 859.5,-79.5 945.5,-79.5 945.5,-58.5 859.5,-58.5"/>
<text text-anchor="middle" x="902.5" y="-65.9" font-family="DejaVuSans" font-size="12.00">tex_header.h</text>
</a>
</g>
</g>
<!-- Node1&#45;&gt;Node17 -->
<g id="edge37" class="edge">
<title>Node1&#45;&gt;Node17</title>
<path fill="none" stroke="midnightblue" d="M1079.34,-235.57C1051.68,-229.22 1013.76,-217.27 986.5,-196 944.43,-163.17 916.26,-103.18 906.4,-79.74"/>
<polygon fill="midnightblue" stroke="midnightblue" points="1078.89,-239.06 1089.4,-237.74 1080.37,-232.21 1078.89,-239.06"/>
</g>
<!-- Node19 -->
<g id="node19" class="node">
<title>Node19</title>
<g id="a_node19"><a xlink:href="mmode_8h.html" target="_top" xlink:title=" ">
<polygon fill="white" stroke="black" points="598.5,-174.5 598.5,-195.5 664.5,-195.5 664.5,-174.5 598.5,-174.5"/>
<text text-anchor="middle" x="631.5" y="-181.9" font-family="DejaVuSans" font-size="12.00">mmode.h</text>
</a>
</g>
</g>
<!-- Node1&#45;&gt;Node19 -->
<g id="edge22" class="edge">
<title>Node1&#45;&gt;Node19</title>
<path fill="none" stroke="midnightblue" d="M1079.41,-237.82C988.75,-227.33 752.44,-199.99 664.82,-189.86"/>
<polygon fill="midnightblue" stroke="midnightblue" points="1079.14,-241.32 1089.48,-238.99 1079.95,-234.36 1079.14,-241.32"/>
</g>
<!-- Node25 -->
<g id="node25" class="node">
<title>Node25</title>
<g id="a_node25"><a xlink:href="printout_8c.html" target="_top" xlink:title=" ">
<polygon fill="white" stroke="black" points="969,-116.5 969,-137.5 1034,-137.5 1034,-116.5 969,-116.5"/>
<text text-anchor="middle" x="1001.5" y="-123.9" font-family="DejaVuSans" font-size="12.00">printout.c</text>
</a>
</g>
</g>
<!-- Node1&#45;&gt;Node25 -->
<g id="edge35" class="edge">
<title>Node1&#45;&gt;Node25</title>
<path fill="none" stroke="midnightblue" d="M1079.32,-238.57C1051.82,-233.85 1015.71,-222.64 997.5,-196 985.49,-178.43 992.35,-151.95 997.48,-137.77"/>
<polygon fill="midnightblue" stroke="midnightblue" points="1078.98,-242.06 1089.38,-240.08 1080.01,-235.14 1078.98,-242.06"/>
</g>
<!-- Node26 -->
<g id="node26" class="node">
<title>Node26</title>
<g id="a_node26"><a xlink:href="pack_8c.html" target="_top" xlink:title=" ">
<polygon fill="white" stroke="black" points="1588,-174.5 1588,-195.5 1639,-195.5 1639,-174.5 1588,-174.5"/>
<text text-anchor="middle" x="1613.5" y="-181.9" font-family="DejaVuSans" font-size="12.00">pack.c</text>
</a>
</g>
</g>
<!-- Node1&#45;&gt;Node26 -->
<g id="edge33" class="edge">
<title>Node1&#45;&gt;Node26</title>
<path fill="none" stroke="midnightblue" d="M1152.01,-240.7C1230.76,-237.4 1422.22,-226.64 1579.5,-196 1582.16,-195.48 1584.91,-194.85 1587.63,-194.15"/>
<polygon fill="midnightblue" stroke="midnightblue" points="1151.51,-237.22 1141.66,-241.12 1151.79,-244.22 1151.51,-237.22"/>
</g>
<!-- Node27 -->
<g id="node27" class="node">
<title>Node27</title>
<g id="a_node27"><a xlink:href="scan_8c.html" target="_top" xlink:title=" ">
<polygon fill="white" stroke="black" points="1657,-174.5 1657,-195.5 1708,-195.5 1708,-174.5 1657,-174.5"/>
<text text-anchor="middle" x="1682.5" y="-181.9" font-family="DejaVuSans" font-size="12.00">scan.c</text>
</a>
</g>
</g>
<!-- Node1&#45;&gt;Node27 -->
<g id="edge36" class="edge">
<title>Node1&#45;&gt;Node27</title>
<path fill="none" stroke="midnightblue" d="M1151.63,-241.37C1238.16,-239.31 1463.84,-230.76 1648.5,-196 1651.16,-195.5 1653.91,-194.88 1656.64,-194.18"/>
<polygon fill="midnightblue" stroke="midnightblue" points="1151.46,-237.87 1141.54,-241.59 1151.62,-244.87 1151.46,-237.87"/>
</g>
<!-- Node10&#45;&gt;Node2 -->
<g id="edge10" class="edge">
<title>Node10&#45;&gt;Node2</title>
<path fill="none" stroke="midnightblue" d="M197.05,-114.79C159.6,-105.8 106.07,-92.63 59.5,-80 56.77,-79.26 53.92,-78.46 51.09,-77.65"/>
<polygon fill="midnightblue" stroke="midnightblue" points="196.63,-118.29 207.17,-117.21 198.26,-111.48 196.63,-118.29"/>
</g>
<!-- Node11 -->
<g id="node11" class="node">
<title>Node11</title>
<g id="a_node11"><a xlink:href="build__box_8c.html" target="_top" xlink:title=" ">
<polygon fill="white" stroke="black" points="69,-58.5 69,-79.5 146,-79.5 146,-58.5 69,-58.5"/>
<text text-anchor="middle" x="107.5" y="-65.9" font-family="DejaVuSans" font-size="12.00">build_box.c</text>
</a>
</g>
</g>
<!-- Node10&#45;&gt;Node11 -->
<g id="edge11" class="edge">
<title>Node10&#45;&gt;Node11</title>
<path fill="none" stroke="midnightblue" d="M211.52,-112.52C186.57,-102.32 152.93,-88.57 130.74,-79.5"/>
<polygon fill="midnightblue" stroke="midnightblue" points="210.37,-115.83 220.95,-116.37 213.02,-109.35 210.37,-115.83"/>
</g>
<!-- Node12 -->
<g id="node12" class="node">
<title>Node12</title>
<g id="a_node12"><a xlink:href="main__ctrl_8c.html" target="_top" xlink:title=" ">
<polygon fill="white" stroke="black" points="225.5,-0.5 225.5,-21.5 299.5,-21.5 299.5,-0.5 225.5,-0.5"/>
<text text-anchor="middle" x="262.5" y="-7.9" font-family="DejaVuSans" font-size="12.00">main_ctrl.c</text>
</a>
</g>
</g>
<!-- Node10&#45;&gt;Node12 -->
<g id="edge18" class="edge">
<title>Node10&#45;&gt;Node12</title>
<path fill="none" stroke="midnightblue" d="M291.52,-116.73C358.95,-103.43 475.13,-80.45 475.5,-80 523.88,-21.03 372.5,-12.53 299.51,-11.76"/>
<polygon fill="midnightblue" stroke="midnightblue" points="290.67,-113.33 281.54,-118.7 292.03,-120.2 290.67,-113.33"/>
</g>
<!-- Node13 -->
<g id="node13" class="node">
<title>Node13</title>
<g id="a_node13"><a xlink:href="build__math_8c.html" target="_top" xlink:title=" ">
<polygon fill="white" stroke="black" points="164.5,-58.5 164.5,-79.5 248.5,-79.5 248.5,-58.5 164.5,-58.5"/>
<text text-anchor="middle" x="206.5" y="-65.9" font-family="DejaVuSans" font-size="12.00">build_math.c</text>
</a>
</g>
</g>
<!-- Node10&#45;&gt;Node13 -->
<g id="edge13" class="edge">
<title>Node10&#45;&gt;Node13</title>
<path fill="none" stroke="midnightblue" d="M232.23,-107.92C225.85,-98.52 218.31,-87.4 213.04,-79.64"/>
<polygon fill="midnightblue" stroke="midnightblue" points="229.37,-109.94 237.88,-116.25 235.16,-106.01 229.37,-109.94"/>
</g>
<!-- Node14 -->
<g id="node14" class="node">
<title>Node14</title>
<g id="a_node14"><a xlink:href="extension_8c.html" target="_top" xlink:title=" ">
<polygon fill="white" stroke="black" points="389,-58.5 389,-79.5 466,-79.5 466,-58.5 389,-58.5"/>
<text text-anchor="middle" x="427.5" y="-65.9" font-family="DejaVuSans" font-size="12.00">extension.c</text>
</a>
</g>
</g>
<!-- Node10&#45;&gt;Node14 -->
<g id="edge15" class="edge">
<title>Node10&#45;&gt;Node14</title>
<path fill="none" stroke="midnightblue" d="M285.92,-113.32C319.49,-103.05 366.03,-88.81 396.45,-79.5"/>
<polygon fill="midnightblue" stroke="midnightblue" points="284.5,-110.1 275.96,-116.37 286.55,-116.79 284.5,-110.1"/>
</g>
<!-- Node15 -->
<g id="node15" class="node">
<title>Node15</title>
<g id="a_node15"><a xlink:href="indep__process_8c.html" target="_top" xlink:title=" ">
<polygon fill="white" stroke="black" points="266.5,-58.5 266.5,-79.5 370.5,-79.5 370.5,-58.5 266.5,-58.5"/>
<text text-anchor="middle" x="318.5" y="-65.9" font-family="DejaVuSans" font-size="12.00">indep_process.c</text>
</a>
</g>
</g>
<!-- Node10&#45;&gt;Node15 -->
<g id="edge16" class="edge">
<title>Node10&#45;&gt;Node15</title>
<path fill="none" stroke="midnightblue" d="M265.37,-110.21C278.36,-100.37 294.66,-88.04 305.76,-79.64"/>
<polygon fill="midnightblue" stroke="midnightblue" points="263.25,-107.42 257.39,-116.25 267.48,-113 263.25,-107.42"/>
</g>
<!-- Node10&#45;&gt;Node16 -->
<g id="edge19" class="edge">
<title>Node10&#45;&gt;Node16</title>
<path fill="none" stroke="midnightblue" d="M291.63,-116.71C292.94,-116.47 294.23,-116.23 295.5,-116 338.25,-108.24 456.25,-88.74 522.96,-77.79"/>
<polygon fill="midnightblue" stroke="midnightblue" points="290.7,-113.32 281.52,-118.61 292,-120.2 290.7,-113.32"/>
</g>
<!-- Node10&#45;&gt;Node17 -->
<g id="edge20" class="edge">
<title>Node10&#45;&gt;Node17</title>
<path fill="none" stroke="midnightblue" d="M291.91,-120.03C303.84,-118.62 316.63,-117.18 328.5,-116 526.47,-96.29 763.5,-79.43 859.25,-72.89"/>
<polygon fill="midnightblue" stroke="midnightblue" points="291.19,-116.59 281.68,-121.26 292.03,-123.54 291.19,-116.59"/>
</g>
<!-- Node11&#45;&gt;Node12 -->
<g id="edge12" class="edge">
<title>Node11&#45;&gt;Node12</title>
<path fill="none" stroke="midnightblue" d="M143.69,-54.92C172.03,-44.69 210.77,-30.69 236.2,-21.5"/>
<polygon fill="midnightblue" stroke="midnightblue" points="142.36,-51.68 134.15,-58.37 144.74,-58.27 142.36,-51.68"/>
</g>
<!-- Node13&#45;&gt;Node12 -->
<g id="edge14" class="edge">
<title>Node13&#45;&gt;Node12</title>
<path fill="none" stroke="midnightblue" d="M223.42,-51.08C233.06,-41.44 244.78,-29.72 252.86,-21.64"/>
<polygon fill="midnightblue" stroke="midnightblue" points="220.85,-48.7 216.25,-58.25 225.8,-53.65 220.85,-48.7"/>
</g>
<!-- Node15&#45;&gt;Node12 -->
<g id="edge17" class="edge">
<title>Node15&#45;&gt;Node12</title>
<path fill="none" stroke="midnightblue" d="M301.58,-51.08C291.94,-41.44 280.22,-29.72 272.14,-21.64"/>
<polygon fill="midnightblue" stroke="midnightblue" points="299.2,-53.65 308.75,-58.25 304.15,-48.7 299.2,-53.65"/>
</g>
<!-- Node18 -->
<g id="node18" class="node">
<title>Node18</title>
<g id="a_node18"><a xlink:href="tex_8c.html" target="_top" xlink:title=" ">
<polygon fill="white" stroke="black" points="882,-0.5 882,-21.5 923,-21.5 923,-0.5 882,-0.5"/>
<text text-anchor="middle" x="902.5" y="-7.9" font-family="DejaVuSans" font-size="12.00">tex.c</text>
</a>
</g>
</g>
<!-- Node17&#45;&gt;Node18 -->
<g id="edge21" class="edge">
<title>Node17&#45;&gt;Node18</title>
<path fill="none" stroke="midnightblue" d="M902.5,-48.16C902.5,-39.16 902.5,-28.92 902.5,-21.64"/>
<polygon fill="midnightblue" stroke="midnightblue" points="899,-48.25 902.5,-58.25 906,-48.25 899,-48.25"/>
</g>
<!-- Node19&#45;&gt;Node2 -->
<g id="edge23" class="edge">
<title>Node19&#45;&gt;Node2</title>
<path fill="none" stroke="midnightblue" d="M588.38,-183.23C509.76,-181 338.34,-172.25 198.5,-138 140.51,-123.8 75.99,-94.61 44.66,-79.51"/>
<polygon fill="midnightblue" stroke="midnightblue" points="588.3,-186.73 598.39,-183.5 588.49,-179.73 588.3,-186.73"/>
</g>
<!-- Node19&#45;&gt;Node10 -->
<g id="edge26" class="edge">
<title>Node19&#45;&gt;Node10</title>
<path fill="none" stroke="midnightblue" d="M587.9,-177.69C511.17,-166.59 353.36,-143.75 281.54,-133.36"/>
<polygon fill="midnightblue" stroke="midnightblue" points="587.77,-181.21 598.17,-179.18 588.77,-174.28 587.77,-181.21"/>
</g>
<!-- Node19&#45;&gt;Node16 -->
<g id="edge29" class="edge">
<title>Node19&#45;&gt;Node16</title>
<path fill="none" stroke="midnightblue" d="M613.12,-167.08C605.2,-158.95 596.42,-148.66 590.5,-138 579.86,-118.85 574.35,-93.46 571.98,-79.76"/>
<polygon fill="midnightblue" stroke="midnightblue" points="611.02,-169.93 620.61,-174.43 615.92,-164.93 611.02,-169.93"/>
</g>
<!-- Node19&#45;&gt;Node17 -->
<g id="edge32" class="edge">
<title>Node19&#45;&gt;Node17</title>
<path fill="none" stroke="midnightblue" d="M675.13,-181.52C739,-177 853.62,-165.25 883.5,-138 900.16,-122.8 902.69,-94.32 902.79,-79.5"/>
<polygon fill="midnightblue" stroke="midnightblue" points="674.7,-178.04 664.96,-182.21 675.17,-185.02 674.7,-178.04"/>
</g>
<!-- Node20 -->
<g id="node20" class="node">
<title>Node20</title>
<g id="a_node20"><a xlink:href="box__destroy_8c.html" target="_top" xlink:title=" ">
<polygon fill="white" stroke="black" points="783,-116.5 783,-137.5 874,-137.5 874,-116.5 783,-116.5"/>
<text text-anchor="middle" x="828.5" y="-123.9" font-family="DejaVuSans" font-size="12.00">box_destroy.c</text>
</a>
</g>
</g>
<!-- Node19&#45;&gt;Node20 -->
<g id="edge24" class="edge">
<title>Node19&#45;&gt;Node20</title>
<path fill="none" stroke="midnightblue" d="M674.7,-171.72C710.87,-161.44 761.75,-146.98 794.92,-137.55"/>
<polygon fill="midnightblue" stroke="midnightblue" points="673.58,-168.4 664.92,-174.5 675.49,-175.13 673.58,-168.4"/>
</g>
<!-- Node21 -->
<g id="node21" class="node">
<title>Node21</title>
<g id="a_node21"><a xlink:href="box__display_8c.html" target="_top" xlink:title=" ">
<polygon fill="white" stroke="black" points="338,-116.5 338,-137.5 427,-137.5 427,-116.5 338,-116.5"/>
<text text-anchor="middle" x="382.5" y="-123.9" font-family="DejaVuSans" font-size="12.00">box_display.c</text>
</a>
</g>
</g>
<!-- Node19&#45;&gt;Node21 -->
<g id="edge25" class="edge">
<title>Node19&#45;&gt;Node21</title>
<path fill="none" stroke="midnightblue" d="M588.51,-174.33C542.65,-164.02 470.49,-147.79 424.87,-137.53"/>
<polygon fill="midnightblue" stroke="midnightblue" points="587.91,-177.78 598.43,-176.56 589.45,-170.95 587.91,-177.78"/>
</g>
<!-- Node22 -->
<g id="node22" class="node">
<title>Node22</title>
<g id="a_node22"><a xlink:href="math__formula_8c.html" target="_top" xlink:title=" ">
<polygon fill="white" stroke="black" points="444.5,-116.5 444.5,-137.5 542.5,-137.5 542.5,-116.5 444.5,-116.5"/>
<text text-anchor="middle" x="493.5" y="-123.9" font-family="DejaVuSans" font-size="12.00">math_formula.c</text>
</a>
</g>
</g>
<!-- Node19&#45;&gt;Node22 -->
<g id="edge27" class="edge">
<title>Node19&#45;&gt;Node22</title>
<path fill="none" stroke="midnightblue" d="M598.28,-170.52C573.15,-160.32 539.26,-146.57 516.91,-137.5"/>
<polygon fill="midnightblue" stroke="midnightblue" points="597.19,-173.86 607.78,-174.37 599.83,-167.37 597.19,-173.86"/>
</g>
<!-- Node23 -->
<g id="node23" class="node">
<title>Node23</title>
<g id="a_node23"><a xlink:href="mmode_8c.html" target="_top" xlink:title=" ">
<polygon fill="white" stroke="black" points="599,-116.5 599,-137.5 664,-137.5 664,-116.5 599,-116.5"/>
<text text-anchor="middle" x="631.5" y="-123.9" font-family="DejaVuSans" font-size="12.00">mmode.c</text>
</a>
</g>
</g>
<!-- Node19&#45;&gt;Node23 -->
<g id="edge28" class="edge">
<title>Node19&#45;&gt;Node23</title>
<path fill="none" stroke="midnightblue" d="M631.5,-164.16C631.5,-155.16 631.5,-144.92 631.5,-137.64"/>
<polygon fill="midnightblue" stroke="midnightblue" points="628,-164.25 631.5,-174.25 635,-164.25 628,-164.25"/>
</g>
<!-- Node24 -->
<g id="node24" class="node">
<title>Node24</title>
<g id="a_node24"><a xlink:href="pagebreak_8c.html" target="_top" xlink:title=" ">
<polygon fill="white" stroke="black" points="682,-116.5 682,-137.5 765,-137.5 765,-116.5 682,-116.5"/>
<text text-anchor="middle" x="723.5" y="-123.9" font-family="DejaVuSans" font-size="12.00">pagebreak.c</text>
</a>
</g>
</g>
<!-- Node19&#45;&gt;Node24 -->
<g id="edge30" class="edge">
<title>Node19&#45;&gt;Node24</title>
<path fill="none" stroke="midnightblue" d="M656.52,-168.77C672.83,-158.85 693.6,-146.2 707.66,-137.64"/>
<polygon fill="midnightblue" stroke="midnightblue" points="654.25,-166.06 647.53,-174.25 657.89,-172.04 654.25,-166.06"/>
</g>
<!-- Node19&#45;&gt;Node25 -->
<g id="edge31" class="edge">
<title>Node19&#45;&gt;Node25</title>
<path fill="none" stroke="midnightblue" d="M674.7,-177.46C749.6,-166.13 901.96,-143.07 968.81,-132.95"/>
<polygon fill="midnightblue" stroke="midnightblue" points="674.02,-174.02 664.66,-178.98 675.07,-180.95 674.02,-174.02"/>
</g>
</g>
</svg>
