<?xml version="1.0" encoding="UTF-8" standalone="no"?>
<!DOCTYPE svg PUBLIC "-//W3C//DTD SVG 1.1//EN"
 "http://www.w3.org/Graphics/SVG/1.1/DTD/svg11.dtd">
<!-- Generated by graphviz version 2.44.0 ()
 -->
<!-- Title: str.h Pages: 1 -->
<svg width="898pt" height="204pt"
 viewBox="0.00 0.00 898.00 204.00" xmlns="http://www.w3.org/2000/svg" xmlns:xlink="http://www.w3.org/1999/xlink">
<g id="graph0" class="graph" transform="scale(1 1) rotate(0) translate(4 200)">
<title>str.h</title>
<polygon fill="white" stroke="transparent" points="-4,4 -4,-200 894,-200 894,4 -4,4"/>
<!-- Node1 -->
<g id="node1" class="node">
<title>Node1</title>
<g id="a_node1"><a xlink:title=" ">
<polygon fill="#bfbfbf" stroke="black" points="403.5,-174.5 403.5,-195.5 442.5,-195.5 442.5,-174.5 403.5,-174.5"/>
<text text-anchor="middle" x="423" y="-181.9" font-family="DejaVuSans" font-size="12.00">str.h</text>
</a>
</g>
</g>
<!-- Node2 -->
<g id="node2" class="node">
<title>Node2</title>
<g id="a_node2"><a xlink:href="dviout_8c.html" target="_top" xlink:title=" ">
<polygon fill="white" stroke="black" points="131,-116.5 131,-137.5 189,-137.5 189,-116.5 131,-116.5"/>
<text text-anchor="middle" x="160" y="-123.9" font-family="DejaVuSans" font-size="12.00">dviout.c</text>
</a>
</g>
</g>
<!-- Node1&#45;&gt;Node2 -->
<g id="edge1" class="edge">
<title>Node1&#45;&gt;Node2</title>
<path fill="none" stroke="midnightblue" d="M393.34,-178.02C351.03,-169.44 270.97,-153.01 203,-138 198.51,-137.01 193.76,-135.93 189.12,-134.87"/>
<polygon fill="midnightblue" stroke="midnightblue" points="392.75,-181.47 403.25,-180.02 394.14,-174.61 392.75,-181.47"/>
</g>
<!-- Node3 -->
<g id="node3" class="node">
<title>Node3</title>
<g id="a_node3"><a xlink:href="fonts_8c.html" target="_top" xlink:title=" ">
<polygon fill="white" stroke="black" points="139.5,-58.5 139.5,-79.5 190.5,-79.5 190.5,-58.5 139.5,-58.5"/>
<text text-anchor="middle" x="165" y="-65.9" font-family="DejaVuSans" font-size="12.00">fonts.c</text>
</a>
</g>
</g>
<!-- Node1&#45;&gt;Node3 -->
<g id="edge2" class="edge">
<title>Node1&#45;&gt;Node3</title>
<path fill="none" stroke="midnightblue" d="M393.06,-177.18C362.37,-169.64 313.65,-156.12 274,-138 237.08,-121.13 197.56,-93.88 177.8,-79.53"/>
<polygon fill="midnightblue" stroke="midnightblue" points="392.58,-180.67 403.12,-179.6 394.21,-173.86 392.58,-180.67"/>
</g>
<!-- Node4 -->
<g id="node4" class="node">
<title>Node4</title>
<g id="a_node4"><a xlink:href="funcs_8c.html" target="_top" xlink:title=" ">
<polygon fill="white" stroke="black" points="0,-58.5 0,-79.5 54,-79.5 54,-58.5 0,-58.5"/>
<text text-anchor="middle" x="27" y="-65.9" font-family="DejaVuSans" font-size="12.00">funcs.c</text>
</a>
</g>
</g>
<!-- Node1&#45;&gt;Node4 -->
<g id="edge3" class="edge">
<title>Node1&#45;&gt;Node4</title>
<path fill="none" stroke="midnightblue" d="M393.43,-180.22C354.82,-174.55 285.7,-161.88 231,-138 214.84,-130.95 214.06,-123.26 198,-116 141.41,-90.44 122.92,-96.31 63,-80 60.12,-79.22 57.11,-78.39 54.12,-77.57"/>
<polygon fill="midnightblue" stroke="midnightblue" points="393.09,-183.71 403.48,-181.64 394.06,-176.78 393.09,-183.71"/>
</g>
<!-- Node5 -->
<g id="node5" class="node">
<title>Node5</title>
<g id="a_node5"><a xlink:href="global_8h.html" target="_top" xlink:title=" ">
<polygon fill="white" stroke="black" points="283,-116.5 283,-137.5 341,-137.5 341,-116.5 283,-116.5"/>
<text text-anchor="middle" x="312" y="-123.9" font-family="DejaVuSans" font-size="12.00">global.h</text>
</a>
</g>
</g>
<!-- Node1&#45;&gt;Node5 -->
<g id="edge4" class="edge">
<title>Node1&#45;&gt;Node5</title>
<path fill="none" stroke="midnightblue" d="M394.93,-169.84C374.86,-159.71 348.41,-146.37 330.83,-137.5"/>
<polygon fill="midnightblue" stroke="midnightblue" points="393.41,-172.99 403.92,-174.37 396.57,-166.74 393.41,-172.99"/>
</g>
<!-- Node12 -->
<g id="node12" class="node">
<title>Node12</title>
<g id="a_node12"><a xlink:href="tex__header_8h.html" target="_top" xlink:title=" ">
<polygon fill="white" stroke="black" points="578,-58.5 578,-79.5 664,-79.5 664,-58.5 578,-58.5"/>
<text text-anchor="middle" x="621" y="-65.9" font-family="DejaVuSans" font-size="12.00">tex_header.h</text>
</a>
</g>
</g>
<!-- Node1&#45;&gt;Node12 -->
<g id="edge25" class="edge">
<title>Node1&#45;&gt;Node12</title>
<path fill="none" stroke="midnightblue" d="M448.85,-169.41C464.77,-160.4 485.6,-148.57 504,-138 540.06,-117.28 582.18,-92.71 604.75,-79.51"/>
<polygon fill="midnightblue" stroke="midnightblue" points="447.08,-166.39 440.09,-174.36 450.52,-172.48 447.08,-166.39"/>
</g>
<!-- Node14 -->
<g id="node14" class="node">
<title>Node14</title>
<g id="a_node14"><a xlink:href="pool__init_8c.html" target="_top" xlink:title=" ">
<polygon fill="white" stroke="black" points="628.5,-116.5 628.5,-137.5 699.5,-137.5 699.5,-116.5 628.5,-116.5"/>
<text text-anchor="middle" x="664" y="-123.9" font-family="DejaVuSans" font-size="12.00">pool_init.c</text>
</a>
</g>
</g>
<!-- Node1&#45;&gt;Node14 -->
<g id="edge15" class="edge">
<title>Node1&#45;&gt;Node14</title>
<path fill="none" stroke="midnightblue" d="M452.59,-177.12C496.93,-166.82 580.49,-147.4 628.2,-136.32"/>
<polygon fill="midnightblue" stroke="midnightblue" points="451.67,-173.74 442.72,-179.42 453.25,-180.56 451.67,-173.74"/>
</g>
<!-- Node15 -->
<g id="node15" class="node">
<title>Node15</title>
<g id="a_node15"><a xlink:href="print_8h.html" target="_top" xlink:title=" ">
<polygon fill="white" stroke="black" points="359,-116.5 359,-137.5 409,-137.5 409,-116.5 359,-116.5"/>
<text text-anchor="middle" x="384" y="-123.9" font-family="DejaVuSans" font-size="12.00">print.h</text>
</a>
</g>
</g>
<!-- Node1&#45;&gt;Node15 -->
<g id="edge16" class="edge">
<title>Node1&#45;&gt;Node15</title>
<path fill="none" stroke="midnightblue" d="M410.41,-165.92C403.86,-156.52 396.12,-145.4 390.72,-137.64"/>
<polygon fill="midnightblue" stroke="midnightblue" points="407.62,-168.04 416.21,-174.25 413.36,-164.04 407.62,-168.04"/>
</g>
<!-- Node16 -->
<g id="node16" class="node">
<title>Node16</title>
<g id="a_node16"><a xlink:href="printout_8c.html" target="_top" xlink:title=" ">
<polygon fill="white" stroke="black" points="768.5,-58.5 768.5,-79.5 833.5,-79.5 833.5,-58.5 768.5,-58.5"/>
<text text-anchor="middle" x="801" y="-65.9" font-family="DejaVuSans" font-size="12.00">printout.c</text>
</a>
</g>
</g>
<!-- Node1&#45;&gt;Node16 -->
<g id="edge23" class="edge">
<title>Node1&#45;&gt;Node16</title>
<path fill="none" stroke="midnightblue" d="M452.14,-172.4C475.01,-163.23 507.63,-150.01 536,-138 558.36,-128.53 562.88,-123.4 586,-116 660.8,-92.05 682.35,-97.1 759,-80 762.07,-79.31 765.27,-78.59 768.46,-77.84"/>
<polygon fill="midnightblue" stroke="midnightblue" points="450.65,-169.22 442.67,-176.19 453.25,-175.72 450.65,-169.22"/>
</g>
<!-- Node17 -->
<g id="node17" class="node">
<title>Node17</title>
<g id="a_node17"><a xlink:href="str_8c.html" target="_top" xlink:title=" ">
<polygon fill="white" stroke="black" points="852,-58.5 852,-79.5 890,-79.5 890,-58.5 852,-58.5"/>
<text text-anchor="middle" x="871" y="-65.9" font-family="DejaVuSans" font-size="12.00">str.c</text>
</a>
</g>
</g>
<!-- Node1&#45;&gt;Node17 -->
<g id="edge24" class="edge">
<title>Node1&#45;&gt;Node17</title>
<path fill="none" stroke="midnightblue" d="M452.26,-176.65C483.22,-168.52 533.27,-154.39 575,-138 595.72,-129.86 598.78,-122.74 620,-116 715.69,-85.62 745.77,-104.99 843,-80 845.9,-79.25 848.92,-78.33 851.86,-77.36"/>
<polygon fill="midnightblue" stroke="midnightblue" points="451.34,-173.27 442.53,-179.17 453.09,-180.05 451.34,-173.27"/>
</g>
<!-- Node18 -->
<g id="node18" class="node">
<title>Node18</title>
<g id="a_node18"><a xlink:href="texfunc_8h.html" target="_top" xlink:title=" ">
<polygon fill="white" stroke="black" points="430.5,-116.5 430.5,-137.5 495.5,-137.5 495.5,-116.5 430.5,-116.5"/>
<text text-anchor="middle" x="463" y="-123.9" font-family="DejaVuSans" font-size="12.00">texfunc.h</text>
</a>
</g>
</g>
<!-- Node1&#45;&gt;Node18 -->
<g id="edge26" class="edge">
<title>Node1&#45;&gt;Node18</title>
<path fill="none" stroke="midnightblue" d="M435.91,-165.92C442.63,-156.52 450.57,-145.4 456.11,-137.64"/>
<polygon fill="midnightblue" stroke="midnightblue" points="432.93,-164.07 429.97,-174.25 438.63,-168.14 432.93,-164.07"/>
</g>
<!-- Node5&#45;&gt;Node3 -->
<g id="edge7" class="edge">
<title>Node5&#45;&gt;Node3</title>
<path fill="none" stroke="midnightblue" d="M277.32,-112.79C250.48,-102.56 213.95,-88.65 189.94,-79.5"/>
<polygon fill="midnightblue" stroke="midnightblue" points="276.14,-116.08 286.73,-116.37 278.63,-109.54 276.14,-116.08"/>
</g>
<!-- Node5&#45;&gt;Node4 -->
<g id="edge8" class="edge">
<title>Node5&#45;&gt;Node4</title>
<path fill="none" stroke="midnightblue" d="M272.78,-119.85C223.53,-111.89 136.58,-96.98 63,-80 60.09,-79.33 57.07,-78.58 54.06,-77.79"/>
<polygon fill="midnightblue" stroke="midnightblue" points="272.27,-123.32 282.69,-121.45 273.38,-116.41 272.27,-123.32"/>
</g>
<!-- Node6 -->
<g id="node6" class="node">
<title>Node6</title>
<g id="a_node6"><a xlink:href="error_8c.html" target="_top" xlink:title=" ">
<polygon fill="white" stroke="black" points="209,-58.5 209,-79.5 259,-79.5 259,-58.5 209,-58.5"/>
<text text-anchor="middle" x="234" y="-65.9" font-family="DejaVuSans" font-size="12.00">error.c</text>
</a>
</g>
</g>
<!-- Node5&#45;&gt;Node6 -->
<g id="edge5" class="edge">
<title>Node5&#45;&gt;Node6</title>
<path fill="none" stroke="midnightblue" d="M290.01,-110.21C276.31,-100.37 259.13,-88.04 247.43,-79.64"/>
<polygon fill="midnightblue" stroke="midnightblue" points="288.25,-113.26 298.41,-116.25 292.33,-107.57 288.25,-113.26"/>
</g>
<!-- Node7 -->
<g id="node7" class="node">
<title>Node7</title>
<g id="a_node7"><a xlink:href="expand_8c.html" target="_top" xlink:title=" ">
<polygon fill="white" stroke="black" points="277.5,-58.5 277.5,-79.5 342.5,-79.5 342.5,-58.5 277.5,-58.5"/>
<text text-anchor="middle" x="310" y="-65.9" font-family="DejaVuSans" font-size="12.00">expand.c</text>
</a>
</g>
</g>
<!-- Node5&#45;&gt;Node7 -->
<g id="edge6" class="edge">
<title>Node5&#45;&gt;Node7</title>
<path fill="none" stroke="midnightblue" d="M311.29,-106.16C310.97,-97.16 310.6,-86.92 310.34,-79.64"/>
<polygon fill="midnightblue" stroke="midnightblue" points="307.8,-106.38 311.65,-116.25 314.79,-106.13 307.8,-106.38"/>
</g>
<!-- Node8 -->
<g id="node8" class="node">
<title>Node8</title>
<g id="a_node8"><a xlink:href="inputln_8c.html" target="_top" xlink:title=" ">
<polygon fill="white" stroke="black" points="360.5,-58.5 360.5,-79.5 421.5,-79.5 421.5,-58.5 360.5,-58.5"/>
<text text-anchor="middle" x="391" y="-65.9" font-family="DejaVuSans" font-size="12.00">inputln.c</text>
</a>
</g>
</g>
<!-- Node5&#45;&gt;Node8 -->
<g id="edge9" class="edge">
<title>Node5&#45;&gt;Node8</title>
<path fill="none" stroke="midnightblue" d="M334.28,-110.21C348.15,-100.37 365.55,-88.04 377.4,-79.64"/>
<polygon fill="midnightblue" stroke="midnightblue" points="331.89,-107.61 325.76,-116.25 335.94,-113.32 331.89,-107.61"/>
</g>
<!-- Node9 -->
<g id="node9" class="node">
<title>Node9</title>
<g id="a_node9"><a xlink:href="lexer_8c.html" target="_top" xlink:title=" ">
<polygon fill="white" stroke="black" points="439.5,-58.5 439.5,-79.5 490.5,-79.5 490.5,-58.5 439.5,-58.5"/>
<text text-anchor="middle" x="465" y="-65.9" font-family="DejaVuSans" font-size="12.00">lexer.c</text>
</a>
</g>
</g>
<!-- Node5&#45;&gt;Node9 -->
<g id="edge10" class="edge">
<title>Node5&#45;&gt;Node9</title>
<path fill="none" stroke="midnightblue" d="M347.76,-112.91C375.82,-102.64 414.21,-88.59 439.3,-79.41"/>
<polygon fill="midnightblue" stroke="midnightblue" points="346.49,-109.65 338.3,-116.37 348.9,-116.22 346.49,-109.65"/>
</g>
<!-- Node10 -->
<g id="node10" class="node">
<title>Node10</title>
<g id="a_node10"><a xlink:href="print_8c.html" target="_top" xlink:title=" ">
<polygon fill="white" stroke="black" points="72.5,-58.5 72.5,-79.5 121.5,-79.5 121.5,-58.5 72.5,-58.5"/>
<text text-anchor="middle" x="97" y="-65.9" font-family="DejaVuSans" font-size="12.00">print.c</text>
</a>
</g>
</g>
<!-- Node5&#45;&gt;Node10 -->
<g id="edge11" class="edge">
<title>Node5&#45;&gt;Node10</title>
<path fill="none" stroke="midnightblue" d="M273.02,-116.71C236.08,-107.77 179.08,-93.63 130,-80 127.35,-79.26 124.58,-78.47 121.83,-77.66"/>
<polygon fill="midnightblue" stroke="midnightblue" points="272.35,-120.14 282.89,-119.09 273.99,-113.34 272.35,-120.14"/>
</g>
<!-- Node11 -->
<g id="node11" class="node">
<title>Node11</title>
<g id="a_node11"><a xlink:href="scan_8c.html" target="_top" xlink:title=" ">
<polygon fill="white" stroke="black" points="508.5,-58.5 508.5,-79.5 559.5,-79.5 559.5,-58.5 508.5,-58.5"/>
<text text-anchor="middle" x="534" y="-65.9" font-family="DejaVuSans" font-size="12.00">scan.c</text>
</a>
</g>
</g>
<!-- Node5&#45;&gt;Node11 -->
<g id="edge12" class="edge">
<title>Node5&#45;&gt;Node11</title>
<path fill="none" stroke="midnightblue" d="M350.8,-115.84C417.69,-99.12 436.08,-96.58 499,-80 502.06,-79.19 505.25,-78.32 508.42,-77.44"/>
<polygon fill="midnightblue" stroke="midnightblue" points="349.88,-112.46 341.03,-118.3 351.58,-119.25 349.88,-112.46"/>
</g>
<!-- Node5&#45;&gt;Node12 -->
<g id="edge13" class="edge">
<title>Node5&#45;&gt;Node12</title>
<path fill="none" stroke="midnightblue" d="M351.27,-115.87C447.74,-95.57 474.42,-96.55 568,-80 571.23,-79.43 574.56,-78.83 577.92,-78.21"/>
<polygon fill="midnightblue" stroke="midnightblue" points="350.45,-112.47 341.39,-117.97 351.9,-119.32 350.45,-112.47"/>
</g>
<!-- Node13 -->
<g id="node13" class="node">
<title>Node13</title>
<g id="a_node13"><a xlink:href="tex_8c.html" target="_top" xlink:title=" ">
<polygon fill="white" stroke="black" points="600.5,-0.5 600.5,-21.5 641.5,-21.5 641.5,-0.5 600.5,-0.5"/>
<text text-anchor="middle" x="621" y="-7.9" font-family="DejaVuSans" font-size="12.00">tex.c</text>
</a>
</g>
</g>
<!-- Node12&#45;&gt;Node13 -->
<g id="edge14" class="edge">
<title>Node12&#45;&gt;Node13</title>
<path fill="none" stroke="midnightblue" d="M621,-48.16C621,-39.16 621,-28.92 621,-21.64"/>
<polygon fill="midnightblue" stroke="midnightblue" points="617.5,-48.25 621,-58.25 624.5,-48.25 617.5,-48.25"/>
</g>
<!-- Node15&#45;&gt;Node3 -->
<g id="edge19" class="edge">
<title>Node15&#45;&gt;Node3</title>
<path fill="none" stroke="midnightblue" d="M349.02,-115.83C282.09,-98.21 263.33,-96.64 200,-80 196.94,-79.2 193.75,-78.33 190.58,-77.44"/>
<polygon fill="midnightblue" stroke="midnightblue" points="348.23,-119.25 358.79,-118.43 350.02,-112.48 348.23,-119.25"/>
</g>
<!-- Node15&#45;&gt;Node6 -->
<g id="edge17" class="edge">
<title>Node15&#45;&gt;Node6</title>
<path fill="none" stroke="midnightblue" d="M349.26,-113.03C321.71,-102.75 283.88,-88.62 259.19,-79.4"/>
<polygon fill="midnightblue" stroke="midnightblue" points="348.3,-116.41 358.89,-116.63 350.75,-109.85 348.3,-116.41"/>
</g>
<!-- Node15&#45;&gt;Node7 -->
<g id="edge18" class="edge">
<title>Node15&#45;&gt;Node7</title>
<path fill="none" stroke="midnightblue" d="M363.13,-110.21C350.14,-100.37 333.84,-88.04 322.74,-79.64"/>
<polygon fill="midnightblue" stroke="midnightblue" points="361.02,-113 371.11,-116.25 365.25,-107.42 361.02,-113"/>
</g>
<!-- Node15&#45;&gt;Node9 -->
<g id="edge20" class="edge">
<title>Node15&#45;&gt;Node9</title>
<path fill="none" stroke="midnightblue" d="M406.43,-110.49C420.73,-100.61 438.79,-88.12 451.05,-79.64"/>
<polygon fill="midnightblue" stroke="midnightblue" points="404.34,-107.68 398.11,-116.25 408.33,-113.44 404.34,-107.68"/>
</g>
<!-- Node15&#45;&gt;Node10 -->
<g id="edge21" class="edge">
<title>Node15&#45;&gt;Node10</title>
<path fill="none" stroke="midnightblue" d="M348.89,-115.98C251.59,-94.49 223.4,-101.69 130,-80 127.32,-79.38 124.53,-78.65 121.77,-77.89"/>
<polygon fill="midnightblue" stroke="midnightblue" points="348.32,-119.44 358.84,-118.22 349.86,-112.61 348.32,-119.44"/>
</g>
<!-- Node15&#45;&gt;Node12 -->
<g id="edge22" class="edge">
<title>Node15&#45;&gt;Node12</title>
<path fill="none" stroke="midnightblue" d="M418.8,-116.55C419.54,-116.37 420.27,-116.18 421,-116 474.92,-102.52 537.39,-88.39 577.97,-79.4"/>
<polygon fill="midnightblue" stroke="midnightblue" points="417.84,-113.19 409.04,-119.09 419.6,-119.96 417.84,-113.19"/>
</g>
<!-- Node18&#45;&gt;Node3 -->
<g id="edge29" class="edge">
<title>Node18&#45;&gt;Node3</title>
<path fill="none" stroke="midnightblue" d="M420.23,-116.44C419.48,-116.29 418.74,-116.14 418,-116 321.59,-97.34 295.81,-101.52 200,-80 196.92,-79.31 193.7,-78.5 190.53,-77.66"/>
<polygon fill="midnightblue" stroke="midnightblue" points="419.61,-119.88 430.11,-118.47 421.02,-113.03 419.61,-119.88"/>
</g>
<!-- Node18&#45;&gt;Node6 -->
<g id="edge27" class="edge">
<title>Node18&#45;&gt;Node6</title>
<path fill="none" stroke="midnightblue" d="M420.57,-116.28C372.28,-105.16 296.41,-87.52 268,-80 265.15,-79.24 262.17,-78.42 259.21,-77.58"/>
<polygon fill="midnightblue" stroke="midnightblue" points="419.9,-119.71 430.43,-118.54 421.47,-112.89 419.9,-119.71"/>
</g>
<!-- Node18&#45;&gt;Node7 -->
<g id="edge28" class="edge">
<title>Node18&#45;&gt;Node7</title>
<path fill="none" stroke="midnightblue" d="M427.27,-112.92C399.3,-102.69 361.06,-88.69 335.96,-79.5"/>
<polygon fill="midnightblue" stroke="midnightblue" points="426.1,-116.22 436.7,-116.37 428.51,-109.65 426.1,-116.22"/>
</g>
<!-- Node18&#45;&gt;Node8 -->
<g id="edge30" class="edge">
<title>Node18&#45;&gt;Node8</title>
<path fill="none" stroke="midnightblue" d="M442.34,-109.93C429.75,-100.14 414.09,-87.96 403.4,-79.64"/>
<polygon fill="midnightblue" stroke="midnightblue" points="440.42,-112.87 450.46,-116.25 444.71,-107.34 440.42,-112.87"/>
</g>
<!-- Node18&#45;&gt;Node9 -->
<g id="edge31" class="edge">
<title>Node18&#45;&gt;Node9</title>
<path fill="none" stroke="midnightblue" d="M463.71,-106.16C464.03,-97.16 464.4,-86.92 464.66,-79.64"/>
<polygon fill="midnightblue" stroke="midnightblue" points="460.21,-106.13 463.35,-116.25 467.2,-106.38 460.21,-106.13"/>
</g>
<!-- Node18&#45;&gt;Node11 -->
<g id="edge33" class="edge">
<title>Node18&#45;&gt;Node11</title>
<path fill="none" stroke="midnightblue" d="M483.38,-109.93C495.79,-100.14 511.23,-87.96 521.77,-79.64"/>
<polygon fill="midnightblue" stroke="midnightblue" points="481.05,-107.3 475.37,-116.25 485.39,-112.8 481.05,-107.3"/>
</g>
<!-- Node18&#45;&gt;Node12 -->
<g id="edge35" class="edge">
<title>Node18&#45;&gt;Node12</title>
<path fill="none" stroke="midnightblue" d="M499.9,-112.92C528.78,-102.69 568.27,-88.69 594.19,-79.5"/>
<polygon fill="midnightblue" stroke="midnightblue" points="498.42,-109.73 490.16,-116.37 500.76,-116.33 498.42,-109.73"/>
</g>
<!-- Node18&#45;&gt;Node16 -->
<g id="edge32" class="edge">
<title>Node18&#45;&gt;Node16</title>
<path fill="none" stroke="midnightblue" d="M505.76,-120.44C563.48,-112.69 669.4,-97.6 759,-80 762.09,-79.39 765.3,-78.72 768.5,-78.01"/>
<polygon fill="midnightblue" stroke="midnightblue" points="505.01,-117.01 495.56,-121.8 505.93,-123.95 505.01,-117.01"/>
</g>
<!-- Node18&#45;&gt;Node17 -->
<g id="edge34" class="edge">
<title>Node18&#45;&gt;Node17</title>
<path fill="none" stroke="midnightblue" d="M505.61,-122.05C590.86,-113.94 779.67,-94.94 843,-80 845.91,-79.31 848.94,-78.42 851.89,-77.46"/>
<polygon fill="midnightblue" stroke="midnightblue" points="505.13,-118.58 495.5,-123 505.79,-125.55 505.13,-118.58"/>
</g>
<!-- Node19 -->
<g id="node19" class="node">
<title>Node19</title>
<g id="a_node19"><a xlink:href="texmath_8c.html" target="_top" xlink:title=" ">
<polygon fill="white" stroke="black" points="682,-58.5 682,-79.5 750,-79.5 750,-58.5 682,-58.5"/>
<text text-anchor="middle" x="716" y="-65.9" font-family="DejaVuSans" font-size="12.00">texmath.c</text>
</a>
</g>
</g>
<!-- Node18&#45;&gt;Node19 -->
<g id="edge36" class="edge">
<title>Node18&#45;&gt;Node19</title>
<path fill="none" stroke="midnightblue" d="M505.75,-116.8C548.21,-107.63 615.15,-93.06 673,-80 675.84,-79.36 678.79,-78.69 681.74,-78.01"/>
<polygon fill="midnightblue" stroke="midnightblue" points="504.8,-113.43 495.77,-118.96 506.28,-120.27 504.8,-113.43"/>
</g>
</g>
</svg>
