<?xml version="1.0" encoding="UTF-8" standalone="no"?>
<!DOCTYPE svg PUBLIC "-//W3C//DTD SVG 1.1//EN"
 "http://www.w3.org/Graphics/SVG/1.1/DTD/svg11.dtd">
<!-- Generated by graphviz version 2.44.0 ()
 -->
<!-- Title: str.c Pages: 1 -->
<svg width="575pt" height="262pt"
 viewBox="0.00 0.00 574.87 262.00" xmlns="http://www.w3.org/2000/svg" xmlns:xlink="http://www.w3.org/1999/xlink">
<g id="graph0" class="graph" transform="scale(1 1) rotate(0) translate(4 258)">
<title>str.c</title>
<polygon fill="white" stroke="transparent" points="-4,4 -4,-258 570.87,-258 570.87,4 -4,4"/>
<!-- Node1 -->
<g id="node1" class="node">
<title>Node1</title>
<g id="a_node1"><a xlink:title=" ">
<polygon fill="#bfbfbf" stroke="black" points="250.37,-232.5 250.37,-253.5 288.37,-253.5 288.37,-232.5 250.37,-232.5"/>
<text text-anchor="middle" x="269.37" y="-239.9" font-family="DejaVuSans" font-size="12.00">str.c</text>
</a>
</g>
</g>
<!-- Node2 -->
<g id="node2" class="node">
<title>Node2</title>
<g id="a_node2"><a xlink:title=" ">
<polygon fill="white" stroke="#bfbfbf" points="0.37,-0.5 0.37,-21.5 52.37,-21.5 52.37,-0.5 0.37,-0.5"/>
<text text-anchor="middle" x="26.37" y="-7.9" font-family="DejaVuSans" font-size="12.00">stdio.h</text>
</a>
</g>
</g>
<!-- Node1&#45;&gt;Node2 -->
<g id="edge1" class="edge">
<title>Node1&#45;&gt;Node2</title>
<path fill="none" stroke="midnightblue" d="M250.16,-241.73C198.65,-239.79 58.1,-226.33 9.37,-138 -9.46,-103.86 5.79,-56.83 17.06,-30.97"/>
<polygon fill="midnightblue" stroke="midnightblue" points="20.38,-32.12 21.39,-21.57 14.02,-29.19 20.38,-32.12"/>
</g>
<!-- Node3 -->
<g id="node3" class="node">
<title>Node3</title>
<g id="a_node3"><a xlink:title=" ">
<polygon fill="white" stroke="#bfbfbf" points="358.37,-174.5 358.37,-195.5 414.37,-195.5 414.37,-174.5 358.37,-174.5"/>
<text text-anchor="middle" x="386.37" y="-181.9" font-family="DejaVuSans" font-size="12.00">string.h</text>
</a>
</g>
</g>
<!-- Node1&#45;&gt;Node3 -->
<g id="edge2" class="edge">
<title>Node1&#45;&gt;Node3</title>
<path fill="none" stroke="midnightblue" d="M288.43,-232.88C307.05,-223.97 335.63,-210.29 357.12,-200"/>
<polygon fill="midnightblue" stroke="midnightblue" points="358.64,-203.16 366.14,-195.68 355.61,-196.84 358.64,-203.16"/>
</g>
<!-- Node4 -->
<g id="node4" class="node">
<title>Node4</title>
<g id="a_node4"><a xlink:href="global__const_8h.html" target="_top" xlink:title=" ">
<polygon fill="white" stroke="black" points="53.87,-58.5 53.87,-79.5 146.87,-79.5 146.87,-58.5 53.87,-58.5"/>
<text text-anchor="middle" x="100.37" y="-65.9" font-family="DejaVuSans" font-size="12.00">global_const.h</text>
</a>
</g>
</g>
<!-- Node1&#45;&gt;Node4 -->
<g id="edge3" class="edge">
<title>Node1&#45;&gt;Node4</title>
<path fill="none" stroke="midnightblue" d="M250.27,-242.34C217.56,-241.8 151.07,-235.56 117.37,-196 91.95,-166.15 93.62,-117.06 97.03,-89.81"/>
<polygon fill="midnightblue" stroke="midnightblue" points="100.54,-89.98 98.52,-79.58 93.61,-88.97 100.54,-89.98"/>
</g>
<!-- Node6 -->
<g id="node6" class="node">
<title>Node6</title>
<g id="a_node6"><a xlink:href="tex_8h.html" target="_top" xlink:title=" ">
<polygon fill="white" stroke="black" points="284.37,-116.5 284.37,-137.5 326.37,-137.5 326.37,-116.5 284.37,-116.5"/>
<text text-anchor="middle" x="305.37" y="-123.9" font-family="DejaVuSans" font-size="12.00">tex.h</text>
</a>
</g>
</g>
<!-- Node1&#45;&gt;Node6 -->
<g id="edge6" class="edge">
<title>Node1&#45;&gt;Node6</title>
<path fill="none" stroke="midnightblue" d="M282.4,-232.31C292.45,-223.96 305.59,-210.92 311.37,-196 317.39,-180.48 315,-161.52 311.62,-147.57"/>
<polygon fill="midnightblue" stroke="midnightblue" points="314.89,-146.3 308.83,-137.61 308.15,-148.19 314.89,-146.3"/>
</g>
<!-- Node11 -->
<g id="node11" class="node">
<title>Node11</title>
<g id="a_node11"><a xlink:href="macros_8h.html" target="_top" xlink:title=" ">
<polygon fill="white" stroke="black" points="432.87,-174.5 432.87,-195.5 497.87,-195.5 497.87,-174.5 432.87,-174.5"/>
<text text-anchor="middle" x="465.37" y="-181.9" font-family="DejaVuSans" font-size="12.00">macros.h</text>
</a>
</g>
</g>
<!-- Node1&#45;&gt;Node11 -->
<g id="edge11" class="edge">
<title>Node1&#45;&gt;Node11</title>
<path fill="none" stroke="midnightblue" d="M288.52,-236.53C319.47,-227.69 381.2,-210.05 422.91,-198.13"/>
<polygon fill="midnightblue" stroke="midnightblue" points="423.87,-201.5 432.52,-195.39 421.95,-194.77 423.87,-201.5"/>
</g>
<!-- Node12 -->
<g id="node12" class="node">
<title>Node12</title>
<g id="a_node12"><a xlink:href="texfunc_8h.html" target="_top" xlink:title=" ">
<polygon fill="white" stroke="black" points="236.87,-174.5 236.87,-195.5 301.87,-195.5 301.87,-174.5 236.87,-174.5"/>
<text text-anchor="middle" x="269.37" y="-181.9" font-family="DejaVuSans" font-size="12.00">texfunc.h</text>
</a>
</g>
</g>
<!-- Node1&#45;&gt;Node12 -->
<g id="edge12" class="edge">
<title>Node1&#45;&gt;Node12</title>
<path fill="none" stroke="midnightblue" d="M269.37,-232.25C269.37,-224.94 269.37,-214.69 269.37,-205.7"/>
<polygon fill="midnightblue" stroke="midnightblue" points="272.87,-205.64 269.37,-195.64 265.87,-205.64 272.87,-205.64"/>
</g>
<!-- Node13 -->
<g id="node13" class="node">
<title>Node13</title>
<g id="a_node13"><a xlink:href="str_8h.html" target="_top" xlink:title=" ">
<polygon fill="white" stroke="black" points="188.87,-116.5 188.87,-137.5 227.87,-137.5 227.87,-116.5 188.87,-116.5"/>
<text text-anchor="middle" x="208.37" y="-123.9" font-family="DejaVuSans" font-size="12.00">str.h</text>
</a>
</g>
</g>
<!-- Node1&#45;&gt;Node13 -->
<g id="edge25" class="edge">
<title>Node1&#45;&gt;Node13</title>
<path fill="none" stroke="midnightblue" d="M258.48,-232.43C249.24,-223.77 236.27,-210.22 228.37,-196 219.98,-180.89 214.78,-161.89 211.79,-147.82"/>
<polygon fill="midnightblue" stroke="midnightblue" points="215.18,-146.92 209.85,-137.76 208.31,-148.24 215.18,-146.92"/>
</g>
<!-- Node14 -->
<g id="node14" class="node">
<title>Node14</title>
<g id="a_node14"><a xlink:href="error_8h.html" target="_top" xlink:title=" ">
<polygon fill="white" stroke="black" points="515.87,-174.5 515.87,-195.5 566.87,-195.5 566.87,-174.5 515.87,-174.5"/>
<text text-anchor="middle" x="541.37" y="-181.9" font-family="DejaVuSans" font-size="12.00">error.h</text>
</a>
</g>
</g>
<!-- Node1&#45;&gt;Node14 -->
<g id="edge18" class="edge">
<title>Node1&#45;&gt;Node14</title>
<path fill="none" stroke="midnightblue" d="M288.63,-238.92C327.79,-232.51 419.65,-216.81 505.88,-196.2"/>
<polygon fill="midnightblue" stroke="midnightblue" points="506.93,-199.55 515.82,-193.8 505.28,-192.75 506.93,-199.55"/>
</g>
<!-- Node15 -->
<g id="node15" class="node">
<title>Node15</title>
<g id="a_node15"><a xlink:href="hash_8h.html" target="_top" xlink:title=" ">
<polygon fill="white" stroke="black" points="126.87,-174.5 126.87,-195.5 179.87,-195.5 179.87,-174.5 126.87,-174.5"/>
<text text-anchor="middle" x="153.37" y="-181.9" font-family="DejaVuSans" font-size="12.00">hash.h</text>
</a>
</g>
</g>
<!-- Node1&#45;&gt;Node15 -->
<g id="edge19" class="edge">
<title>Node1&#45;&gt;Node15</title>
<path fill="none" stroke="midnightblue" d="M250.22,-232.75C231.8,-223.86 203.72,-210.3 182.53,-200.07"/>
<polygon fill="midnightblue" stroke="midnightblue" points="183.86,-196.83 173.33,-195.64 180.82,-203.14 183.86,-196.83"/>
</g>
<!-- Node4&#45;&gt;Node2 -->
<g id="edge5" class="edge">
<title>Node4&#45;&gt;Node2</title>
<path fill="none" stroke="midnightblue" d="M87.48,-58.25C76.45,-49.89 60.34,-37.71 47.44,-27.94"/>
<polygon fill="midnightblue" stroke="midnightblue" points="49.2,-24.89 39.11,-21.64 44.98,-30.47 49.2,-24.89"/>
</g>
<!-- Node5 -->
<g id="node5" class="node">
<title>Node5</title>
<g id="a_node5"><a xlink:title=" ">
<polygon fill="white" stroke="#bfbfbf" points="70.87,-0.5 70.87,-21.5 129.87,-21.5 129.87,-0.5 70.87,-0.5"/>
<text text-anchor="middle" x="100.37" y="-7.9" font-family="DejaVuSans" font-size="12.00">assert.h</text>
</a>
</g>
</g>
<!-- Node4&#45;&gt;Node5 -->
<g id="edge4" class="edge">
<title>Node4&#45;&gt;Node5</title>
<path fill="none" stroke="midnightblue" d="M100.37,-58.25C100.37,-50.94 100.37,-40.69 100.37,-31.7"/>
<polygon fill="midnightblue" stroke="midnightblue" points="103.87,-31.64 100.37,-21.64 96.87,-31.64 103.87,-31.64"/>
</g>
<!-- Node7 -->
<g id="node7" class="node">
<title>Node7</title>
<g id="a_node7"><a xlink:href="tex__types_8h.html" target="_top" xlink:title=" ">
<polygon fill="white" stroke="black" points="241.87,-58.5 241.87,-79.5 318.87,-79.5 318.87,-58.5 241.87,-58.5"/>
<text text-anchor="middle" x="280.37" y="-65.9" font-family="DejaVuSans" font-size="12.00">tex_types.h</text>
</a>
</g>
</g>
<!-- Node6&#45;&gt;Node7 -->
<g id="edge7" class="edge">
<title>Node6&#45;&gt;Node7</title>
<path fill="none" stroke="midnightblue" d="M301.02,-116.25C297.65,-108.7 292.88,-98.02 288.77,-88.82"/>
<polygon fill="midnightblue" stroke="midnightblue" points="291.95,-87.35 284.68,-79.64 285.56,-90.2 291.95,-87.35"/>
</g>
<!-- Node10 -->
<g id="node10" class="node">
<title>Node10</title>
<g id="a_node10"><a xlink:href="tex__constant_8h.html" target="_top" xlink:title=" ">
<polygon fill="white" stroke="black" points="337.37,-58.5 337.37,-79.5 431.37,-79.5 431.37,-58.5 337.37,-58.5"/>
<text text-anchor="middle" x="384.37" y="-65.9" font-family="DejaVuSans" font-size="12.00">tex_constant.h</text>
</a>
</g>
</g>
<!-- Node6&#45;&gt;Node10 -->
<g id="edge10" class="edge">
<title>Node6&#45;&gt;Node10</title>
<path fill="none" stroke="midnightblue" d="M319.13,-116.25C331.03,-107.81 348.44,-95.47 362.28,-85.66"/>
<polygon fill="midnightblue" stroke="midnightblue" points="364.64,-88.28 370.77,-79.64 360.59,-82.57 364.64,-88.28"/>
</g>
<!-- Node8 -->
<g id="node8" class="node">
<title>Node8</title>
<g id="a_node8"><a xlink:title=" ">
<polygon fill="white" stroke="#bfbfbf" points="258.87,-0.5 258.87,-21.5 323.87,-21.5 323.87,-0.5 258.87,-0.5"/>
<text text-anchor="middle" x="291.37" y="-7.9" font-family="DejaVuSans" font-size="12.00">stdbool.h</text>
</a>
</g>
</g>
<!-- Node7&#45;&gt;Node8 -->
<g id="edge8" class="edge">
<title>Node7&#45;&gt;Node8</title>
<path fill="none" stroke="midnightblue" d="M282.29,-58.25C283.72,-50.94 285.74,-40.69 287.5,-31.7"/>
<polygon fill="midnightblue" stroke="midnightblue" points="290.99,-32.13 289.48,-21.64 284.12,-30.78 290.99,-32.13"/>
</g>
<!-- Node9 -->
<g id="node9" class="node">
<title>Node9</title>
<g id="a_node9"><a xlink:title=" ">
<polygon fill="white" stroke="#bfbfbf" points="185.87,-0.5 185.87,-21.5 240.87,-21.5 240.87,-0.5 185.87,-0.5"/>
<text text-anchor="middle" x="213.37" y="-7.9" font-family="DejaVuSans" font-size="12.00">stdint.h</text>
</a>
</g>
</g>
<!-- Node7&#45;&gt;Node9 -->
<g id="edge9" class="edge">
<title>Node7&#45;&gt;Node9</title>
<path fill="none" stroke="midnightblue" d="M268.7,-58.25C258.81,-49.97 244.41,-37.94 232.78,-28.22"/>
<polygon fill="midnightblue" stroke="midnightblue" points="234.83,-25.37 224.91,-21.64 230.34,-30.74 234.83,-25.37"/>
</g>
<!-- Node12&#45;&gt;Node13 -->
<g id="edge13" class="edge">
<title>Node12&#45;&gt;Node13</title>
<path fill="none" stroke="midnightblue" d="M258.75,-174.25C249.83,-166.05 236.88,-154.17 226.35,-144.51"/>
<polygon fill="midnightblue" stroke="midnightblue" points="228.61,-141.83 218.88,-137.64 223.88,-146.98 228.61,-141.83"/>
</g>
<!-- Node13&#45;&gt;Node2 -->
<g id="edge14" class="edge">
<title>Node13&#45;&gt;Node2</title>
<path fill="none" stroke="midnightblue" d="M203.18,-116.24C194.93,-101.59 177.45,-73.95 155.37,-58 140.18,-47.02 94.76,-32.11 62.11,-22.28"/>
<polygon fill="midnightblue" stroke="midnightblue" points="63.02,-18.9 52.44,-19.41 61.03,-25.61 63.02,-18.9"/>
</g>
<!-- Node13&#45;&gt;Node4 -->
<g id="edge16" class="edge">
<title>Node13&#45;&gt;Node4</title>
<path fill="none" stroke="midnightblue" d="M189.56,-116.25C172.53,-107.41 147.22,-94.29 127.9,-84.28"/>
<polygon fill="midnightblue" stroke="midnightblue" points="129.46,-81.14 118.97,-79.64 126.24,-87.35 129.46,-81.14"/>
</g>
<!-- Node13&#45;&gt;Node7 -->
<g id="edge17" class="edge">
<title>Node13&#45;&gt;Node7</title>
<path fill="none" stroke="midnightblue" d="M220.91,-116.25C231.65,-107.89 247.32,-95.71 259.88,-85.94"/>
<polygon fill="midnightblue" stroke="midnightblue" points="262.23,-88.54 267.98,-79.64 257.93,-83.02 262.23,-88.54"/>
</g>
<!-- Node13&#45;&gt;Node9 -->
<g id="edge15" class="edge">
<title>Node13&#45;&gt;Node9</title>
<path fill="none" stroke="midnightblue" d="M208.8,-116.28C209.62,-97.6 211.43,-56.37 212.51,-31.72"/>
<polygon fill="midnightblue" stroke="midnightblue" points="216.01,-31.84 212.95,-21.69 209.01,-31.53 216.01,-31.84"/>
</g>
<!-- Node15&#45;&gt;Node6 -->
<g id="edge20" class="edge">
<title>Node15&#45;&gt;Node6</title>
<path fill="none" stroke="midnightblue" d="M179.5,-174.37C205.81,-164.68 246.39,-149.73 274.33,-139.44"/>
<polygon fill="midnightblue" stroke="midnightblue" points="275.82,-142.62 284,-135.88 273.4,-136.05 275.82,-142.62"/>
</g>
<!-- Node15&#45;&gt;Node13 -->
<g id="edge21" class="edge">
<title>Node15&#45;&gt;Node13</title>
<path fill="none" stroke="midnightblue" d="M162.95,-174.25C170.92,-166.14 182.44,-154.41 191.88,-144.79"/>
<polygon fill="midnightblue" stroke="midnightblue" points="194.39,-147.23 198.9,-137.64 189.4,-142.32 194.39,-147.23"/>
</g>
<!-- Node16 -->
<g id="node16" class="node">
<title>Node16</title>
<g id="a_node16"><a xlink:href="fonts_8h.html" target="_top" xlink:title=" ">
<polygon fill="white" stroke="black" points="18.37,-116.5 18.37,-137.5 70.37,-137.5 70.37,-116.5 18.37,-116.5"/>
<text text-anchor="middle" x="44.37" y="-123.9" font-family="DejaVuSans" font-size="12.00">fonts.h</text>
</a>
</g>
</g>
<!-- Node15&#45;&gt;Node16 -->
<g id="edge22" class="edge">
<title>Node15&#45;&gt;Node16</title>
<path fill="none" stroke="midnightblue" d="M134.39,-174.25C117.19,-165.41 91.65,-152.29 72.16,-142.28"/>
<polygon fill="midnightblue" stroke="midnightblue" points="73.64,-139.1 63.14,-137.64 70.44,-145.33 73.64,-139.1"/>
</g>
<!-- Node16&#45;&gt;Node2 -->
<g id="edge23" class="edge">
<title>Node16&#45;&gt;Node2</title>
<path fill="none" stroke="midnightblue" d="M42.84,-116.28C39.89,-97.6 33.38,-56.37 29.49,-31.72"/>
<polygon fill="midnightblue" stroke="midnightblue" points="32.92,-31.03 27.9,-21.69 26.01,-32.12 32.92,-31.03"/>
</g>
<!-- Node16&#45;&gt;Node4 -->
<g id="edge24" class="edge">
<title>Node16&#45;&gt;Node4</title>
<path fill="none" stroke="midnightblue" d="M54.13,-116.25C62.24,-108.14 73.97,-96.41 83.58,-86.79"/>
<polygon fill="midnightblue" stroke="midnightblue" points="86.13,-89.19 90.73,-79.64 81.18,-84.24 86.13,-89.19"/>
</g>
</g>
</svg>
