<?xml version="1.0" encoding="UTF-8" standalone="no"?>
<!DOCTYPE svg PUBLIC "-//W3C//DTD SVG 1.1//EN"
 "http://www.w3.org/Graphics/SVG/1.1/DTD/svg11.dtd">
<!-- Generated by graphviz version 2.44.0 ()
 -->
<!-- Title: str.h Pages: 1 -->
<svg width="4220pt" height="668pt"
 viewBox="0.00 0.00 4220.00 668.00" xmlns="http://www.w3.org/2000/svg" xmlns:xlink="http://www.w3.org/1999/xlink">
<g id="graph0" class="graph" transform="scale(1 1) rotate(0) translate(4 664)">
<title>str.h</title>
<polygon fill="white" stroke="transparent" points="-4,4 -4,-664 4216,-664 4216,4 -4,4"/>
<!-- Node1 -->
<g id="node1" class="node">
<title>Node1</title>
<g id="a_node1"><a xlink:title=" ">
<polygon fill="#bfbfbf" stroke="black" points="493.5,-638.5 493.5,-659.5 532.5,-659.5 532.5,-638.5 493.5,-638.5"/>
<text text-anchor="middle" x="513" y="-645.9" font-family="DejaVuSans" font-size="12.00">str.h</text>
</a>
</g>
</g>
<!-- Node2 -->
<g id="node2" class="node">
<title>Node2</title>
<g id="a_node2"><a xlink:href="box_8h.html" target="_top" xlink:title=" ">
<polygon fill="white" stroke="black" points="3569,-580.5 3569,-601.5 3615,-601.5 3615,-580.5 3569,-580.5"/>
<text text-anchor="middle" x="3592" y="-587.9" font-family="DejaVuSans" font-size="12.00">box.h</text>
</a>
</g>
</g>
<!-- Node1&#45;&gt;Node2 -->
<g id="edge1" class="edge">
<title>Node1&#45;&gt;Node2</title>
<path fill="none" stroke="midnightblue" d="M543.2,-647.88C839.81,-646.62 3228.17,-635.48 3542,-602 3550.89,-601.05 3560.55,-599.29 3568.98,-597.52"/>
<polygon fill="midnightblue" stroke="midnightblue" points="542.79,-644.38 532.8,-647.92 542.82,-651.38 542.79,-644.38"/>
</g>
<!-- Node9 -->
<g id="node9" class="node">
<title>Node9</title>
<g id="a_node9"><a xlink:href="fonts_8c.html" target="_top" xlink:title=" ">
<polygon fill="white" stroke="black" points="3444.5,-58.5 3444.5,-79.5 3495.5,-79.5 3495.5,-58.5 3444.5,-58.5"/>
<text text-anchor="middle" x="3470" y="-65.9" font-family="DejaVuSans" font-size="12.00">fonts.c</text>
</a>
</g>
</g>
<!-- Node1&#45;&gt;Node9 -->
<g id="edge171" class="edge">
<title>Node1&#45;&gt;Node9</title>
<path fill="none" stroke="midnightblue" d="M542.75,-648.04C821.5,-648.38 2979.43,-649.4 3624,-602 3738.47,-593.58 4136,-648.78 4136,-534 4136,-534 4136,-534 4136,-242 4136,-107.21 3618.1,-76.39 3495.7,-70.99"/>
<polygon fill="midnightblue" stroke="midnightblue" points="542.6,-644.54 532.59,-648.03 542.59,-651.54 542.6,-644.54"/>
</g>
<!-- Node12 -->
<g id="node12" class="node">
<title>Node12</title>
<g id="a_node12"><a xlink:href="printout_8c.html" target="_top" xlink:title=" ">
<polygon fill="white" stroke="black" points="3935.5,-58.5 3935.5,-79.5 4000.5,-79.5 4000.5,-58.5 3935.5,-58.5"/>
<text text-anchor="middle" x="3968" y="-65.9" font-family="DejaVuSans" font-size="12.00">printout.c</text>
</a>
</g>
</g>
<!-- Node1&#45;&gt;Node12 -->
<g id="edge178" class="edge">
<title>Node1&#45;&gt;Node12</title>
<path fill="none" stroke="midnightblue" d="M542.62,-647.93C854.18,-647.16 3526.17,-639.46 3876,-602 4027.49,-585.78 4212,-686.36 4212,-534 4212,-534 4212,-534 4212,-184 4212,-91.77 4067.14,-73.99 4000.65,-70.68"/>
<polygon fill="midnightblue" stroke="midnightblue" points="542.53,-644.43 532.54,-647.96 542.54,-651.43 542.53,-644.43"/>
</g>
<!-- Node18 -->
<g id="node18" class="node">
<title>Node18</title>
<g id="a_node18"><a xlink:href="tex__header_8h.html" target="_top" xlink:title=" ">
<polygon fill="white" stroke="black" points="1663,-58.5 1663,-79.5 1749,-79.5 1749,-58.5 1663,-58.5"/>
<text text-anchor="middle" x="1706" y="-65.9" font-family="DejaVuSans" font-size="12.00">tex_header.h</text>
</a>
</g>
</g>
<!-- Node1&#45;&gt;Node18 -->
<g id="edge180" class="edge">
<title>Node1&#45;&gt;Node18</title>
<path fill="none" stroke="midnightblue" d="M490.35,-632.03C480.59,-624.05 469.87,-613.63 463,-602 420.19,-529.51 418,-502.19 418,-418 418,-418 418,-418 418,-184 418,-53.76 403.15,-127.88 1503,-80 1558.17,-77.6 1621.75,-74.4 1662.84,-72.27"/>
<polygon fill="midnightblue" stroke="midnightblue" points="488.5,-635.02 498.55,-638.37 492.78,-629.49 488.5,-635.02"/>
</g>
<!-- Node20 -->
<g id="node20" class="node">
<title>Node20</title>
<g id="a_node20"><a xlink:href="dviout_8c.html" target="_top" xlink:title=" ">
<polygon fill="white" stroke="black" points="774,-58.5 774,-79.5 832,-79.5 832,-58.5 774,-58.5"/>
<text text-anchor="middle" x="803" y="-65.9" font-family="DejaVuSans" font-size="12.00">dviout.c</text>
</a>
</g>
</g>
<!-- Node1&#45;&gt;Node20 -->
<g id="edge170" class="edge">
<title>Node1&#45;&gt;Node20</title>
<path fill="none" stroke="midnightblue" d="M483.26,-648.82C443.03,-648.29 371.3,-641.35 328,-602 304.28,-580.45 304,-566.05 304,-534 304,-534 304,-534 304,-242 304,-176.37 325.33,-150.75 381,-116 453.52,-70.74 679.78,-94.66 764,-80 767.17,-79.45 770.46,-78.77 773.72,-78.03"/>
<polygon fill="midnightblue" stroke="midnightblue" points="483.49,-652.32 493.49,-648.82 483.49,-645.32 483.49,-652.32"/>
</g>
<!-- Node22 -->
<g id="node22" class="node">
<title>Node22</title>
<g id="a_node22"><a xlink:href="hash_8h.html" target="_top" xlink:title=" ">
<polygon fill="white" stroke="black" points="1954.5,-116.5 1954.5,-137.5 2007.5,-137.5 2007.5,-116.5 1954.5,-116.5"/>
<text text-anchor="middle" x="1981" y="-123.9" font-family="DejaVuSans" font-size="12.00">hash.h</text>
</a>
</g>
</g>
<!-- Node1&#45;&gt;Node22 -->
<g id="edge173" class="edge">
<title>Node1&#45;&gt;Node22</title>
<path fill="none" stroke="midnightblue" d="M539.66,-633.57C649.09,-574.9 1075.79,-351.68 1451,-232 1574.57,-192.59 1609.59,-198.27 1737,-174 1826.58,-156.94 1849.72,-156.57 1939,-138 1943.99,-136.96 1949.29,-135.77 1954.39,-134.58"/>
<polygon fill="midnightblue" stroke="midnightblue" points="537.78,-630.61 530.63,-638.42 541.09,-636.77 537.78,-630.61"/>
</g>
<!-- Node24 -->
<g id="node24" class="node">
<title>Node24</title>
<g id="a_node24"><a xlink:href="str_8c.html" target="_top" xlink:title=" ">
<polygon fill="white" stroke="black" points="1027,-58.5 1027,-79.5 1065,-79.5 1065,-58.5 1027,-58.5"/>
<text text-anchor="middle" x="1046" y="-65.9" font-family="DejaVuSans" font-size="12.00">str.c</text>
</a>
</g>
</g>
<!-- Node1&#45;&gt;Node24 -->
<g id="edge179" class="edge">
<title>Node1&#45;&gt;Node24</title>
<path fill="none" stroke="midnightblue" d="M483.52,-645.94C442.12,-642.07 365.3,-631.26 307,-602 265.6,-581.22 228,-580.33 228,-534 228,-534 228,-534 228,-300 228,-193.64 286.02,-163.87 381,-116 507.41,-52.29 878.1,-107.33 1017,-80 1020.24,-79.36 1023.61,-78.45 1026.86,-77.43"/>
<polygon fill="midnightblue" stroke="midnightblue" points="483.23,-649.43 493.49,-646.8 483.83,-642.45 483.23,-649.43"/>
</g>
<!-- Node26 -->
<g id="node26" class="node">
<title>Node26</title>
<g id="a_node26"><a xlink:href="hyphen_8c.html" target="_top" xlink:title=" ">
<polygon fill="white" stroke="black" points="943.5,-58.5 943.5,-79.5 1008.5,-79.5 1008.5,-58.5 943.5,-58.5"/>
<text text-anchor="middle" x="976" y="-65.9" font-family="DejaVuSans" font-size="12.00">hyphen.c</text>
</a>
</g>
</g>
<!-- Node1&#45;&gt;Node26 -->
<g id="edge174" class="edge">
<title>Node1&#45;&gt;Node26</title>
<path fill="none" stroke="midnightblue" d="M483.33,-645.95C417.29,-640.98 260.37,-626.86 214,-602 177.95,-582.68 152,-574.9 152,-534 152,-534 152,-534 152,-358 152,-241.62 157.28,-183.62 252,-116 305.36,-77.9 775.58,-84.42 841,-80 875.94,-77.64 915.94,-74.64 943.27,-72.54"/>
<polygon fill="midnightblue" stroke="midnightblue" points="483.24,-649.45 493.47,-646.69 483.76,-642.47 483.24,-649.45"/>
</g>
<!-- Node31 -->
<g id="node31" class="node">
<title>Node31</title>
<g id="a_node31"><a xlink:href="io__fname_8c.html" target="_top" xlink:title=" ">
<polygon fill="white" stroke="black" points="395.5,-58.5 395.5,-79.5 470.5,-79.5 470.5,-58.5 395.5,-58.5"/>
<text text-anchor="middle" x="433" y="-65.9" font-family="DejaVuSans" font-size="12.00">io_fname.c</text>
</a>
</g>
</g>
<!-- Node1&#45;&gt;Node31 -->
<g id="edge175" class="edge">
<title>Node1&#45;&gt;Node31</title>
<path fill="none" stroke="midnightblue" d="M483.16,-647.79C373.63,-646.25 0,-633.66 0,-534 0,-534 0,-534 0,-184 0,-140.31 31.56,-134.81 71,-116 127.82,-88.89 314.61,-76.15 395.31,-71.81"/>
<polygon fill="midnightblue" stroke="midnightblue" points="483.16,-651.29 493.2,-647.91 483.25,-644.29 483.16,-651.29"/>
</g>
<!-- Node38 -->
<g id="node38" class="node">
<title>Node38</title>
<g id="a_node38"><a xlink:href="io__unix_8c.html" target="_top" xlink:title=" ">
<polygon fill="white" stroke="black" points="1460.5,-232.5 1460.5,-253.5 1525.5,-253.5 1525.5,-232.5 1460.5,-232.5"/>
<text text-anchor="middle" x="1493" y="-239.9" font-family="DejaVuSans" font-size="12.00">io_unix.c</text>
</a>
</g>
</g>
<!-- Node1&#45;&gt;Node38 -->
<g id="edge176" class="edge">
<title>Node1&#45;&gt;Node38</title>
<path fill="none" stroke="midnightblue" d="M542.33,-638.68C654.06,-602.77 1062.67,-467.53 1380,-312 1417.01,-293.86 1457.84,-267.61 1478.82,-253.63"/>
<polygon fill="midnightblue" stroke="midnightblue" points="541.2,-635.37 532.75,-641.75 543.34,-642.03 541.2,-635.37"/>
</g>
<!-- Node41 -->
<g id="node41" class="node">
<title>Node41</title>
<g id="a_node41"><a xlink:href="global_8h.html" target="_top" xlink:title=" ">
<polygon fill="white" stroke="black" points="2140,-290.5 2140,-311.5 2198,-311.5 2198,-290.5 2140,-290.5"/>
<text text-anchor="middle" x="2169" y="-297.9" font-family="DejaVuSans" font-size="12.00">global.h</text>
</a>
</g>
</g>
<!-- Node1&#45;&gt;Node41 -->
<g id="edge172" class="edge">
<title>Node1&#45;&gt;Node41</title>
<path fill="none" stroke="midnightblue" d="M543.04,-646.47C697.69,-638.38 1404.98,-598.94 1617,-544 1839.84,-486.26 2087.34,-349.04 2152.54,-311.59"/>
<polygon fill="midnightblue" stroke="midnightblue" points="542.68,-642.98 532.88,-646.99 543.04,-649.97 542.68,-642.98"/>
</g>
<!-- Node45 -->
<g id="node45" class="node">
<title>Node45</title>
<g id="a_node45"><a xlink:href="print_8h.html" target="_top" xlink:title=" ">
<polygon fill="white" stroke="black" points="1810,-116.5 1810,-137.5 1860,-137.5 1860,-116.5 1810,-116.5"/>
<text text-anchor="middle" x="1835" y="-123.9" font-family="DejaVuSans" font-size="12.00">print.h</text>
</a>
</g>
</g>
<!-- Node1&#45;&gt;Node45 -->
<g id="edge177" class="edge">
<title>Node1&#45;&gt;Node45</title>
<path fill="none" stroke="midnightblue" d="M497.91,-630.64C481.03,-609.38 456,-571.54 456,-534 456,-534 456,-534 456,-474 456,-364.39 566.45,-389.24 668,-348 872.95,-264.77 934.34,-271.42 1152,-232 1280.23,-208.78 1314.65,-218.58 1443,-196 1486.11,-188.41 1496.01,-182.26 1539,-174 1638.85,-154.83 1758.82,-138.11 1809.95,-131.28"/>
<polygon fill="midnightblue" stroke="midnightblue" points="495.28,-632.95 504.34,-638.45 500.68,-628.5 495.28,-632.95"/>
</g>
<!-- Node3 -->
<g id="node3" class="node">
<title>Node3</title>
<g id="a_node3"><a xlink:href="box_8c.html" target="_top" xlink:title=" ">
<polygon fill="white" stroke="black" points="560.5,-116.5 560.5,-137.5 605.5,-137.5 605.5,-116.5 560.5,-116.5"/>
<text text-anchor="middle" x="583" y="-123.9" font-family="DejaVuSans" font-size="12.00">box.c</text>
</a>
</g>
</g>
<!-- Node2&#45;&gt;Node3 -->
<g id="edge2" class="edge">
<title>Node2&#45;&gt;Node3</title>
<path fill="none" stroke="midnightblue" d="M3558.53,-590.09C3235.97,-590.9 689.16,-595.62 632,-544 508.68,-432.63 566.47,-188.65 580.31,-137.51"/>
<polygon fill="midnightblue" stroke="midnightblue" points="3558.66,-593.59 3568.66,-590.07 3558.65,-586.59 3558.66,-593.59"/>
</g>
<!-- Node4 -->
<g id="node4" class="node">
<title>Node4</title>
<g id="a_node4"><a xlink:href="box__copy_8c.html" target="_top" xlink:title=" ">
<polygon fill="white" stroke="black" points="3536.5,-116.5 3536.5,-137.5 3613.5,-137.5 3613.5,-116.5 3536.5,-116.5"/>
<text text-anchor="middle" x="3575" y="-123.9" font-family="DejaVuSans" font-size="12.00">box_copy.c</text>
</a>
</g>
</g>
<!-- Node2&#45;&gt;Node4 -->
<g id="edge3" class="edge">
<title>Node2&#45;&gt;Node4</title>
<path fill="none" stroke="midnightblue" d="M3625.34,-584.65C3648.93,-578.93 3678.94,-567.31 3694,-544 3769.24,-427.52 3764.78,-351.24 3694,-232 3676.94,-203.27 3653.47,-217.63 3628,-196 3607.46,-178.56 3589.6,-152.03 3580.81,-137.81"/>
<polygon fill="midnightblue" stroke="midnightblue" points="3624.38,-581.27 3615.35,-586.82 3625.87,-588.11 3624.38,-581.27"/>
</g>
<!-- Node5 -->
<g id="node5" class="node">
<title>Node5</title>
<g id="a_node5"><a xlink:href="box__destroy_8c.html" target="_top" xlink:title=" ">
<polygon fill="white" stroke="black" points="3350.5,-116.5 3350.5,-137.5 3441.5,-137.5 3441.5,-116.5 3350.5,-116.5"/>
<text text-anchor="middle" x="3396" y="-123.9" font-family="DejaVuSans" font-size="12.00">box_destroy.c</text>
</a>
</g>
</g>
<!-- Node2&#45;&gt;Node5 -->
<g id="edge4" class="edge">
<title>Node2&#45;&gt;Node5</title>
<path fill="none" stroke="midnightblue" d="M3615.21,-574.37C3641.28,-554.75 3680,-518.46 3680,-476 3680,-476 3680,-476 3680,-300 3680,-240.05 3492.52,-163.97 3422.21,-137.55"/>
<polygon fill="midnightblue" stroke="midnightblue" points="3612.97,-571.67 3606.93,-580.37 3617.08,-577.34 3612.97,-571.67"/>
</g>
<!-- Node6 -->
<g id="node6" class="node">
<title>Node6</title>
<g id="a_node6"><a xlink:href="box__display_8c.html" target="_top" xlink:title=" ">
<polygon fill="white" stroke="black" points="597.5,-58.5 597.5,-79.5 686.5,-79.5 686.5,-58.5 597.5,-58.5"/>
<text text-anchor="middle" x="642" y="-65.9" font-family="DejaVuSans" font-size="12.00">box_display.c</text>
</a>
</g>
</g>
<!-- Node2&#45;&gt;Node6 -->
<g id="edge5" class="edge">
<title>Node2&#45;&gt;Node6</title>
<path fill="none" stroke="midnightblue" d="M3558.38,-590C3225.96,-589.89 536.88,-587.68 375,-544 154.83,-484.59 -62.39,-283.84 92,-116 100.54,-106.71 467.77,-81.54 597.32,-72.93"/>
<polygon fill="midnightblue" stroke="midnightblue" points="3558.79,-593.5 3568.79,-590 3558.79,-586.5 3558.79,-593.5"/>
</g>
<!-- Node7 -->
<g id="node7" class="node">
<title>Node7</title>
<g id="a_node7"><a xlink:href="eqtb_8c.html" target="_top" xlink:title=" ">
<polygon fill="white" stroke="black" points="1372.5,-58.5 1372.5,-79.5 1421.5,-79.5 1421.5,-58.5 1372.5,-58.5"/>
<text text-anchor="middle" x="1397" y="-65.9" font-family="DejaVuSans" font-size="12.00">eqtb.c</text>
</a>
</g>
</g>
<!-- Node2&#45;&gt;Node7 -->
<g id="edge6" class="edge">
<title>Node2&#45;&gt;Node7</title>
<path fill="none" stroke="midnightblue" d="M3558.42,-589.95C3239.78,-589.41 757.91,-583.9 608,-544 496.12,-514.22 380,-533.78 380,-418 380,-418 380,-418 380,-242 380,-184.99 360.77,-153.16 404,-116 444.43,-81.25 1310.38,-88.59 1363,-80 1366.04,-79.5 1369.18,-78.82 1372.28,-78.04"/>
<polygon fill="midnightblue" stroke="midnightblue" points="3558.83,-593.45 3568.83,-589.97 3558.84,-586.45 3558.83,-593.45"/>
</g>
<!-- Node8 -->
<g id="node8" class="node">
<title>Node8</title>
<g id="a_node8"><a xlink:href="expand_8c.html" target="_top" xlink:title=" ">
<polygon fill="white" stroke="black" points="3761.5,-58.5 3761.5,-79.5 3826.5,-79.5 3826.5,-58.5 3761.5,-58.5"/>
<text text-anchor="middle" x="3794" y="-65.9" font-family="DejaVuSans" font-size="12.00">expand.c</text>
</a>
</g>
</g>
<!-- Node2&#45;&gt;Node8 -->
<g id="edge7" class="edge">
<title>Node2&#45;&gt;Node8</title>
<path fill="none" stroke="midnightblue" d="M3625.44,-589.03C3732.52,-585.05 4060,-565.54 4060,-476 4060,-476 4060,-476 4060,-242 4060,-132.01 3897.65,-88.9 3826.62,-75.3"/>
<polygon fill="midnightblue" stroke="midnightblue" points="3625.08,-585.55 3615.21,-589.39 3625.32,-592.54 3625.08,-585.55"/>
</g>
<!-- Node2&#45;&gt;Node9 -->
<g id="edge8" class="edge">
<title>Node2&#45;&gt;Node9</title>
<path fill="none" stroke="midnightblue" d="M3625.08,-590.59C3675.8,-590.11 3774.43,-583.6 3846,-544 3881.79,-524.2 3908,-516.9 3908,-476 3908,-476 3908,-476 3908,-242 3908,-152.85 3589.65,-90.69 3495.76,-74.3"/>
<polygon fill="midnightblue" stroke="midnightblue" points="3625,-587.09 3615.01,-590.61 3625.02,-594.09 3625,-587.09"/>
</g>
<!-- Node10 -->
<g id="node10" class="node">
<title>Node10</title>
<g id="a_node10"><a xlink:href="lexer_8c.html" target="_top" xlink:title=" ">
<polygon fill="white" stroke="black" points="2954.5,-58.5 2954.5,-79.5 3005.5,-79.5 3005.5,-58.5 2954.5,-58.5"/>
<text text-anchor="middle" x="2980" y="-65.9" font-family="DejaVuSans" font-size="12.00">lexer.c</text>
</a>
</g>
</g>
<!-- Node2&#45;&gt;Node10 -->
<g id="edge9" class="edge">
<title>Node2&#45;&gt;Node10</title>
<path fill="none" stroke="midnightblue" d="M3625.29,-589.05C3691.2,-585.22 3832,-566.45 3832,-476 3832,-476 3832,-476 3832,-416 3832,-334.75 3694.64,-154.32 3623,-116 3595.31,-101.19 3121.69,-76.98 3005.55,-71.25"/>
<polygon fill="midnightblue" stroke="midnightblue" points="3624.83,-585.57 3615.01,-589.56 3625.17,-592.56 3624.83,-585.57"/>
</g>
<!-- Node11 -->
<g id="node11" class="node">
<title>Node11</title>
<g id="a_node11"><a xlink:href="mem_8c.html" target="_top" xlink:title=" ">
<polygon fill="white" stroke="black" points="2656,-58.5 2656,-79.5 2708,-79.5 2708,-58.5 2656,-58.5"/>
<text text-anchor="middle" x="2682" y="-65.9" font-family="DejaVuSans" font-size="12.00">mem.c</text>
</a>
</g>
</g>
<!-- Node2&#45;&gt;Node11 -->
<g id="edge10" class="edge">
<title>Node2&#45;&gt;Node11</title>
<path fill="none" stroke="midnightblue" d="M3595.35,-570.22C3598.9,-547.54 3604,-509.2 3604,-476 3604,-476 3604,-476 3604,-416 3604,-219.17 2858.15,-96.51 2708.11,-73.82"/>
<polygon fill="midnightblue" stroke="midnightblue" points="3591.87,-569.84 3593.72,-580.28 3598.78,-570.97 3591.87,-569.84"/>
</g>
<!-- Node2&#45;&gt;Node12 -->
<g id="edge11" class="edge">
<title>Node2&#45;&gt;Node12</title>
<path fill="none" stroke="midnightblue" d="M3625.35,-589.17C3712.53,-586.55 3945.2,-576.62 4014,-544 4063.07,-520.74 4174,-367.05 4174,-360 4174,-360 4174,-360 4174,-184 4174,-105.72 4058.73,-80.76 4000.64,-73.16"/>
<polygon fill="midnightblue" stroke="midnightblue" points="3625.12,-585.67 3615.23,-589.46 3625.32,-592.67 3625.12,-585.67"/>
</g>
<!-- Node13 -->
<g id="node13" class="node">
<title>Node13</title>
<g id="a_node13"><a xlink:href="scan_8c.html" target="_top" xlink:title=" ">
<polygon fill="white" stroke="black" points="704.5,-58.5 704.5,-79.5 755.5,-79.5 755.5,-58.5 704.5,-58.5"/>
<text text-anchor="middle" x="730" y="-65.9" font-family="DejaVuSans" font-size="12.00">scan.c</text>
</a>
</g>
</g>
<!-- Node2&#45;&gt;Node13 -->
<g id="edge12" class="edge">
<title>Node2&#45;&gt;Node13</title>
<path fill="none" stroke="midnightblue" d="M3558.56,-589.98C3233.47,-589.73 643.95,-586.41 488,-544 378.52,-514.23 266,-531.45 266,-418 266,-418 266,-418 266,-300 266,-250.19 103.93,-152.34 138,-116 180.42,-70.75 633.89,-90.58 695,-80 697.99,-79.48 701.09,-78.81 704.15,-78.05"/>
<polygon fill="midnightblue" stroke="midnightblue" points="3558.76,-593.48 3568.76,-589.99 3558.76,-586.48 3558.76,-593.48"/>
</g>
<!-- Node14 -->
<g id="node14" class="node">
<title>Node14</title>
<g id="a_node14"><a xlink:href="tex__constant_8h.html" target="_top" xlink:title=" ">
<polygon fill="white" stroke="black" points="1514,-522.5 1514,-543.5 1608,-543.5 1608,-522.5 1514,-522.5"/>
<text text-anchor="middle" x="1561" y="-529.9" font-family="DejaVuSans" font-size="12.00">tex_constant.h</text>
</a>
</g>
</g>
<!-- Node2&#45;&gt;Node14 -->
<g id="edge13" class="edge">
<title>Node2&#45;&gt;Node14</title>
<path fill="none" stroke="midnightblue" d="M3558.77,-589.08C3321.7,-582.55 1888.52,-543.03 1608.44,-535.31"/>
<polygon fill="midnightblue" stroke="midnightblue" points="3558.75,-592.58 3568.84,-589.36 3558.94,-585.59 3558.75,-592.58"/>
</g>
<!-- Node2&#45;&gt;Node18 -->
<g id="edge169" class="edge">
<title>Node2&#45;&gt;Node18</title>
<path fill="none" stroke="midnightblue" d="M3558.63,-589.68C3324.77,-587.37 1928.57,-572.55 1505,-544 1207.9,-523.97 981.76,-640.83 858,-370 714.41,-55.77 954.64,-226.01 1483,-116 1545.5,-102.99 1617.89,-88.09 1662.82,-78.86"/>
<polygon fill="midnightblue" stroke="midnightblue" points="3558.85,-593.18 3568.88,-589.78 3558.91,-586.18 3558.85,-593.18"/>
</g>
<!-- Node14&#45;&gt;Node3 -->
<g id="edge14" class="edge">
<title>Node14&#45;&gt;Node3</title>
<path fill="none" stroke="midnightblue" d="M1503.58,-532.89C1399.96,-533.27 1175.41,-528.54 992,-486 843.1,-451.47 672,-512.85 672,-360 672,-360 672,-360 672,-300 672,-231.08 614.93,-162.24 592.19,-137.55"/>
<polygon fill="midnightblue" stroke="midnightblue" points="1503.84,-536.39 1513.82,-532.83 1503.8,-529.39 1503.84,-536.39"/>
</g>
<!-- Node14&#45;&gt;Node4 -->
<g id="edge15" class="edge">
<title>Node14&#45;&gt;Node4</title>
<path fill="none" stroke="midnightblue" d="M1618.11,-531.71C1771.26,-530.41 2203.64,-523.45 2561,-486 2877.25,-452.86 2968.39,-479.3 3267,-370 3361.34,-335.47 3383.34,-317.72 3461,-254 3506.84,-216.39 3550.97,-160.16 3567.82,-137.74"/>
<polygon fill="midnightblue" stroke="midnightblue" points="1617.98,-528.21 1608,-531.79 1618.03,-535.21 1617.98,-528.21"/>
</g>
<!-- Node14&#45;&gt;Node5 -->
<g id="edge16" class="edge">
<title>Node14&#45;&gt;Node5</title>
<path fill="none" stroke="midnightblue" d="M1618.25,-530.46C1835.03,-524.14 2605.09,-497.2 2839,-428 3074.92,-358.21 3324.43,-180.86 3383.13,-137.62"/>
<polygon fill="midnightblue" stroke="midnightblue" points="1617.94,-526.97 1608.05,-530.75 1618.14,-533.96 1617.94,-526.97"/>
</g>
<!-- Node14&#45;&gt;Node6 -->
<g id="edge17" class="edge">
<title>Node14&#45;&gt;Node6</title>
<path fill="none" stroke="midnightblue" d="M1503.7,-531.81C1344.26,-530.8 897.88,-524.5 757,-486 438.26,-398.89 261.69,-426.17 100,-138 95.22,-129.47 93.38,-123.2 100,-116 108.4,-106.86 468.59,-81.71 597.06,-73.01"/>
<polygon fill="midnightblue" stroke="midnightblue" points="1503.76,-535.31 1513.78,-531.87 1503.8,-528.31 1503.76,-535.31"/>
</g>
<!-- Node15 -->
<g id="node15" class="node">
<title>Node15</title>
<g id="a_node15"><a xlink:href="eqtb_8h.html" target="_top" xlink:title=" ">
<polygon fill="white" stroke="black" points="1384,-174.5 1384,-195.5 1434,-195.5 1434,-174.5 1384,-174.5"/>
<text text-anchor="middle" x="1409" y="-181.9" font-family="DejaVuSans" font-size="12.00">eqtb.h</text>
</a>
</g>
</g>
<!-- Node14&#45;&gt;Node15 -->
<g id="edge18" class="edge">
<title>Node14&#45;&gt;Node15</title>
<path fill="none" stroke="midnightblue" d="M1503.83,-528.14C1343.3,-516.56 900,-479.03 900,-418 900,-418 900,-418 900,-300 900,-199.71 1281.05,-187.62 1383.76,-186.19"/>
<polygon fill="midnightblue" stroke="midnightblue" points="1503.77,-531.65 1513.99,-528.87 1504.27,-524.67 1503.77,-531.65"/>
</g>
<!-- Node36 -->
<g id="node36" class="node">
<title>Node36</title>
<g id="a_node36"><a xlink:href="tex_8h.html" target="_top" xlink:title=" ">
<polygon fill="white" stroke="black" points="1540,-464.5 1540,-485.5 1582,-485.5 1582,-464.5 1540,-464.5"/>
<text text-anchor="middle" x="1561" y="-471.9" font-family="DejaVuSans" font-size="12.00">tex.h</text>
</a>
</g>
</g>
<!-- Node14&#45;&gt;Node36 -->
<g id="edge58" class="edge">
<title>Node14&#45;&gt;Node36</title>
<path fill="none" stroke="midnightblue" d="M1561,-512.16C1561,-503.16 1561,-492.92 1561,-485.64"/>
<polygon fill="midnightblue" stroke="midnightblue" points="1557.5,-512.25 1561,-522.25 1564.5,-512.25 1557.5,-512.25"/>
</g>
<!-- Node15&#45;&gt;Node3 -->
<g id="edge26" class="edge">
<title>Node15&#45;&gt;Node3</title>
<path fill="none" stroke="midnightblue" d="M1373.59,-184.52C1262.01,-185.59 908.03,-184.81 620,-138 615.27,-137.23 610.28,-136.1 605.54,-134.88"/>
<polygon fill="midnightblue" stroke="midnightblue" points="1373.96,-188.01 1383.92,-184.4 1373.88,-181.01 1373.96,-188.01"/>
</g>
<!-- Node15&#45;&gt;Node7 -->
<g id="edge28" class="edge">
<title>Node15&#45;&gt;Node7</title>
<path fill="none" stroke="midnightblue" d="M1406.92,-164.25C1404.32,-139.58 1399.98,-98.35 1398.02,-79.69"/>
<polygon fill="midnightblue" stroke="midnightblue" points="1403.45,-164.7 1407.98,-174.28 1410.41,-163.97 1403.45,-164.7"/>
</g>
<!-- Node15&#45;&gt;Node9 -->
<g id="edge30" class="edge">
<title>Node15&#45;&gt;Node9</title>
<path fill="none" stroke="midnightblue" d="M1444.09,-183.77C1640.56,-182.38 2605.75,-173.79 2901,-138 2947.47,-132.37 2957.75,-123.2 3004,-116 3170.88,-90.02 3373.8,-75.91 3444.36,-71.52"/>
<polygon fill="midnightblue" stroke="midnightblue" points="1444.01,-180.27 1434.04,-183.84 1444.06,-187.27 1444.01,-180.27"/>
</g>
<!-- Node15&#45;&gt;Node11 -->
<g id="edge51" class="edge">
<title>Node15&#45;&gt;Node11</title>
<path fill="none" stroke="midnightblue" d="M1444.2,-181.66C1537.49,-175.37 1798.83,-157.31 2016,-138 2265.19,-115.84 2566.18,-82.87 2655.69,-72.94"/>
<polygon fill="midnightblue" stroke="midnightblue" points="1443.91,-178.17 1434.17,-182.33 1444.38,-185.15 1443.91,-178.17"/>
</g>
<!-- Node15&#45;&gt;Node12 -->
<g id="edge55" class="edge">
<title>Node15&#45;&gt;Node12</title>
<path fill="none" stroke="midnightblue" d="M1444.32,-184.01C1613.51,-183.83 2357.89,-180.53 2966,-138 3054.77,-131.79 3076.31,-123.28 3165,-116 3462.65,-91.58 3537.97,-99.28 3836,-80 3869.94,-77.8 3908.76,-74.8 3935.47,-72.67"/>
<polygon fill="midnightblue" stroke="midnightblue" points="1444.23,-180.51 1434.24,-184.02 1444.24,-187.51 1444.23,-180.51"/>
</g>
<!-- Node15&#45;&gt;Node13 -->
<g id="edge56" class="edge">
<title>Node15&#45;&gt;Node13</title>
<path fill="none" stroke="midnightblue" d="M1373.9,-180.42C1309.22,-173.62 1166.97,-157.74 1048,-138 921.34,-116.98 889.71,-110.55 765,-80 761.93,-79.25 758.73,-78.41 755.55,-77.54"/>
<polygon fill="midnightblue" stroke="midnightblue" points="1373.65,-183.91 1383.96,-181.47 1374.38,-176.95 1373.65,-183.91"/>
</g>
<!-- Node16 -->
<g id="node16" class="node">
<title>Node16</title>
<g id="a_node16"><a xlink:href="align_8h.html" target="_top" xlink:title=" ">
<polygon fill="white" stroke="black" points="2786,-116.5 2786,-137.5 2838,-137.5 2838,-116.5 2786,-116.5"/>
<text text-anchor="middle" x="2812" y="-123.9" font-family="DejaVuSans" font-size="12.00">align.h</text>
</a>
</g>
</g>
<!-- Node15&#45;&gt;Node16 -->
<g id="edge19" class="edge">
<title>Node15&#45;&gt;Node16</title>
<path fill="none" stroke="midnightblue" d="M1444.4,-182.59C1642.82,-174.67 2613.96,-135.9 2785.94,-129.04"/>
<polygon fill="midnightblue" stroke="midnightblue" points="1444.1,-179.1 1434.25,-182.99 1444.38,-186.09 1444.1,-179.1"/>
</g>
<!-- Node15&#45;&gt;Node18 -->
<g id="edge57" class="edge">
<title>Node15&#45;&gt;Node18</title>
<path fill="none" stroke="midnightblue" d="M1432.01,-169.01C1456.11,-153.87 1495.46,-130.67 1532,-116 1575.21,-98.66 1627.06,-85.92 1662.86,-78.3"/>
<polygon fill="midnightblue" stroke="midnightblue" points="1430.12,-166.07 1423.56,-174.39 1433.88,-171.97 1430.12,-166.07"/>
</g>
<!-- Node15&#45;&gt;Node20 -->
<g id="edge27" class="edge">
<title>Node15&#45;&gt;Node20</title>
<path fill="none" stroke="midnightblue" d="M1373.88,-177.39C1264.75,-156.86 932.79,-94.42 832.2,-75.49"/>
<polygon fill="midnightblue" stroke="midnightblue" points="1373.26,-180.84 1383.73,-179.25 1374.55,-173.96 1373.26,-180.84"/>
</g>
<!-- Node21 -->
<g id="node21" class="node">
<title>Node21</title>
<g id="a_node21"><a xlink:href="eqtb__save_8c.html" target="_top" xlink:title=" ">
<polygon fill="white" stroke="black" points="1273.5,-58.5 1273.5,-79.5 1354.5,-79.5 1354.5,-58.5 1273.5,-58.5"/>
<text text-anchor="middle" x="1314" y="-65.9" font-family="DejaVuSans" font-size="12.00">eqtb_save.c</text>
</a>
</g>
</g>
<!-- Node15&#45;&gt;Node21 -->
<g id="edge29" class="edge">
<title>Node15&#45;&gt;Node21</title>
<path fill="none" stroke="midnightblue" d="M1394.45,-166.54C1374.17,-142.21 1338.12,-98.94 1322.08,-79.69"/>
<polygon fill="midnightblue" stroke="midnightblue" points="1391.81,-168.84 1400.9,-174.28 1397.19,-164.36 1391.81,-168.84"/>
</g>
<!-- Node15&#45;&gt;Node22 -->
<g id="edge31" class="edge">
<title>Node15&#45;&gt;Node22</title>
<path fill="none" stroke="midnightblue" d="M1444.24,-182.81C1529.75,-179.51 1754.8,-168.42 1940,-138 1944.63,-137.24 1949.5,-136.23 1954.21,-135.15"/>
<polygon fill="midnightblue" stroke="midnightblue" points="1443.91,-179.32 1434.05,-183.19 1444.17,-186.31 1443.91,-179.32"/>
</g>
<!-- Node25 -->
<g id="node25" class="node">
<title>Node25</title>
<g id="a_node25"><a xlink:href="hyphen_8h.html" target="_top" xlink:title=" ">
<polygon fill="white" stroke="black" points="1574,-116.5 1574,-137.5 1640,-137.5 1640,-116.5 1574,-116.5"/>
<text text-anchor="middle" x="1607" y="-123.9" font-family="DejaVuSans" font-size="12.00">hyphen.h</text>
</a>
</g>
</g>
<!-- Node15&#45;&gt;Node25 -->
<g id="edge40" class="edge">
<title>Node15&#45;&gt;Node25</title>
<path fill="none" stroke="midnightblue" d="M1443.84,-174.15C1480.53,-163.77 1537.87,-147.55 1573.89,-137.36"/>
<polygon fill="midnightblue" stroke="midnightblue" points="1442.75,-170.82 1434.08,-176.91 1444.65,-177.55 1442.75,-170.82"/>
</g>
<!-- Node29 -->
<g id="node29" class="node">
<title>Node29</title>
<g id="a_node29"><a xlink:href="hyphen__pre_8c.html" target="_top" xlink:title=" ">
<polygon fill="white" stroke="black" points="1083.5,-58.5 1083.5,-79.5 1172.5,-79.5 1172.5,-58.5 1083.5,-58.5"/>
<text text-anchor="middle" x="1128" y="-65.9" font-family="DejaVuSans" font-size="12.00">hyphen_pre.c</text>
</a>
</g>
</g>
<!-- Node15&#45;&gt;Node29 -->
<g id="edge47" class="edge">
<title>Node15&#45;&gt;Node29</title>
<path fill="none" stroke="midnightblue" d="M1376.2,-170.69C1318.85,-147.43 1201.72,-99.91 1151.61,-79.58"/>
<polygon fill="midnightblue" stroke="midnightblue" points="1374.94,-173.96 1385.53,-174.48 1377.57,-167.47 1374.94,-173.96"/>
</g>
<!-- Node30 -->
<g id="node30" class="node">
<title>Node30</title>
<g id="a_node30"><a xlink:href="linebreak_8c.html" target="_top" xlink:title=" ">
<polygon fill="white" stroke="black" points="2133,-58.5 2133,-79.5 2207,-79.5 2207,-58.5 2133,-58.5"/>
<text text-anchor="middle" x="2170" y="-65.9" font-family="DejaVuSans" font-size="12.00">linebreak.c</text>
</a>
</g>
</g>
<!-- Node15&#45;&gt;Node30 -->
<g id="edge49" class="edge">
<title>Node15&#45;&gt;Node30</title>
<path fill="none" stroke="midnightblue" d="M1444.32,-182.17C1537.68,-177.06 1789.3,-161.46 1869,-138 1889.59,-131.94 1891.65,-122.85 1912,-116 1922.42,-112.49 2064.13,-88.07 2132.97,-76.3"/>
<polygon fill="midnightblue" stroke="midnightblue" points="1444.05,-178.68 1434.25,-182.71 1444.42,-185.67 1444.05,-178.68"/>
</g>
<!-- Node15&#45;&gt;Node31 -->
<g id="edge48" class="edge">
<title>Node15&#45;&gt;Node31</title>
<path fill="none" stroke="midnightblue" d="M1373.74,-181.22C1293.33,-174.75 1090.27,-157.76 921,-138 752.56,-118.34 552.34,-88.35 470.58,-75.82"/>
<polygon fill="midnightblue" stroke="midnightblue" points="1373.57,-184.71 1383.82,-182.02 1374.13,-177.74 1373.57,-184.71"/>
</g>
<!-- Node32 -->
<g id="node32" class="node">
<title>Node32</title>
<g id="a_node32"><a xlink:href="math__formula_8c.html" target="_top" xlink:title=" ">
<polygon fill="white" stroke="black" points="2347,-58.5 2347,-79.5 2445,-79.5 2445,-58.5 2347,-58.5"/>
<text text-anchor="middle" x="2396" y="-65.9" font-family="DejaVuSans" font-size="12.00">math_formula.c</text>
</a>
</g>
</g>
<!-- Node15&#45;&gt;Node32 -->
<g id="edge50" class="edge">
<title>Node15&#45;&gt;Node32</title>
<path fill="none" stroke="midnightblue" d="M1444.1,-182.61C1542.34,-178.41 1818.55,-164.52 1905,-138 1924.4,-132.05 1925.6,-121.94 1945,-116 2112.28,-64.76 2163.51,-102.63 2337,-80 2340.19,-79.58 2343.48,-79.12 2346.79,-78.63"/>
<polygon fill="midnightblue" stroke="midnightblue" points="1443.93,-179.11 1434.08,-183.03 1444.22,-186.1 1443.93,-179.11"/>
</g>
<!-- Node33 -->
<g id="node33" class="node">
<title>Node33</title>
<g id="a_node33"><a xlink:href="mmode_8c.html" target="_top" xlink:title=" ">
<polygon fill="white" stroke="black" points="1190.5,-58.5 1190.5,-79.5 1255.5,-79.5 1255.5,-58.5 1190.5,-58.5"/>
<text text-anchor="middle" x="1223" y="-65.9" font-family="DejaVuSans" font-size="12.00">mmode.c</text>
</a>
</g>
</g>
<!-- Node15&#45;&gt;Node33 -->
<g id="edge52" class="edge">
<title>Node15&#45;&gt;Node33</title>
<path fill="none" stroke="midnightblue" d="M1384.89,-169.22C1346.15,-145.48 1271.11,-99.49 1238.62,-79.58"/>
<polygon fill="midnightblue" stroke="midnightblue" points="1383.11,-172.23 1393.46,-174.48 1386.76,-166.27 1383.11,-172.23"/>
</g>
<!-- Node34 -->
<g id="node34" class="node">
<title>Node34</title>
<g id="a_node34"><a xlink:href="pack_8c.html" target="_top" xlink:title=" ">
<polygon fill="white" stroke="black" points="3182.5,-58.5 3182.5,-79.5 3233.5,-79.5 3233.5,-58.5 3182.5,-58.5"/>
<text text-anchor="middle" x="3208" y="-65.9" font-family="DejaVuSans" font-size="12.00">pack.c</text>
</a>
</g>
</g>
<!-- Node15&#45;&gt;Node34 -->
<g id="edge53" class="edge">
<title>Node15&#45;&gt;Node34</title>
<path fill="none" stroke="midnightblue" d="M1444.37,-183.99C1637.3,-183.74 2564.25,-180.33 2847,-138 2883.89,-132.48 2891.55,-123.92 2928,-116 3020.91,-95.81 3132.87,-79.92 3182.35,-73.32"/>
<polygon fill="midnightblue" stroke="midnightblue" points="1444.22,-180.49 1434.23,-184 1444.23,-187.49 1444.22,-180.49"/>
</g>
<!-- Node35 -->
<g id="node35" class="node">
<title>Node35</title>
<g id="a_node35"><a xlink:href="print_8c.html" target="_top" xlink:title=" ">
<polygon fill="white" stroke="black" points="1445.5,-58.5 1445.5,-79.5 1494.5,-79.5 1494.5,-58.5 1445.5,-58.5"/>
<text text-anchor="middle" x="1470" y="-65.9" font-family="DejaVuSans" font-size="12.00">print.c</text>
</a>
</g>
</g>
<!-- Node15&#45;&gt;Node35 -->
<g id="edge54" class="edge">
<title>Node15&#45;&gt;Node35</title>
<path fill="none" stroke="midnightblue" d="M1424.99,-166.99C1432.14,-158.71 1440.24,-148.34 1446,-138 1456.85,-118.53 1464.21,-93.26 1467.69,-79.67"/>
<polygon fill="midnightblue" stroke="midnightblue" points="1422.35,-164.69 1418.28,-174.48 1427.56,-169.37 1422.35,-164.69"/>
</g>
<!-- Node16&#45;&gt;Node10 -->
<g id="edge21" class="edge">
<title>Node16&#45;&gt;Node10</title>
<path fill="none" stroke="midnightblue" d="M2848.12,-113.96C2880.16,-103.28 2926.14,-87.95 2954.48,-78.51"/>
<polygon fill="midnightblue" stroke="midnightblue" points="2846.63,-110.77 2838.25,-117.25 2848.84,-117.41 2846.63,-110.77"/>
</g>
<!-- Node16&#45;&gt;Node11 -->
<g id="edge22" class="edge">
<title>Node16&#45;&gt;Node11</title>
<path fill="none" stroke="midnightblue" d="M2780.39,-112.38C2756.75,-102.2 2725.01,-88.53 2704.06,-79.5"/>
<polygon fill="midnightblue" stroke="midnightblue" points="2779.08,-115.63 2789.65,-116.37 2781.85,-109.2 2779.08,-115.63"/>
</g>
<!-- Node16&#45;&gt;Node12 -->
<g id="edge23" class="edge">
<title>Node16&#45;&gt;Node12</title>
<path fill="none" stroke="midnightblue" d="M2848.3,-124.01C2886.91,-121.92 2949.75,-118.59 3004,-116 3373.7,-98.37 3466.53,-101.98 3836,-80 3869.95,-77.98 3908.77,-74.95 3935.47,-72.76"/>
<polygon fill="midnightblue" stroke="midnightblue" points="2847.88,-120.53 2838.08,-124.57 2848.26,-127.52 2847.88,-120.53"/>
</g>
<!-- Node17 -->
<g id="node17" class="node">
<title>Node17</title>
<g id="a_node17"><a xlink:href="align_8c.html" target="_top" xlink:title=" ">
<polygon fill="white" stroke="black" points="2759.5,-58.5 2759.5,-79.5 2810.5,-79.5 2810.5,-58.5 2759.5,-58.5"/>
<text text-anchor="middle" x="2785" y="-65.9" font-family="DejaVuSans" font-size="12.00">align.c</text>
</a>
</g>
</g>
<!-- Node16&#45;&gt;Node17 -->
<g id="edge20" class="edge">
<title>Node16&#45;&gt;Node17</title>
<path fill="none" stroke="midnightblue" d="M2802.86,-107.04C2798.42,-97.83 2793.27,-87.16 2789.65,-79.64"/>
<polygon fill="midnightblue" stroke="midnightblue" points="2799.8,-108.76 2807.3,-116.25 2806.11,-105.72 2799.8,-108.76"/>
</g>
<!-- Node16&#45;&gt;Node18 -->
<g id="edge24" class="edge">
<title>Node16&#45;&gt;Node18</title>
<path fill="none" stroke="midnightblue" d="M2775.6,-125.29C2643.38,-122.51 2176.11,-110.95 1792,-80 1778.07,-78.88 1762.91,-77.25 1749.25,-75.63"/>
<polygon fill="midnightblue" stroke="midnightblue" points="2775.88,-128.8 2785.95,-125.5 2776.02,-121.8 2775.88,-128.8"/>
</g>
<!-- Node19 -->
<g id="node19" class="node">
<title>Node19</title>
<g id="a_node19"><a xlink:href="tex_8c.html" target="_top" xlink:title=" ">
<polygon fill="white" stroke="black" points="1685.5,-0.5 1685.5,-21.5 1726.5,-21.5 1726.5,-0.5 1685.5,-0.5"/>
<text text-anchor="middle" x="1706" y="-7.9" font-family="DejaVuSans" font-size="12.00">tex.c</text>
</a>
</g>
</g>
<!-- Node18&#45;&gt;Node19 -->
<g id="edge25" class="edge">
<title>Node18&#45;&gt;Node19</title>
<path fill="none" stroke="midnightblue" d="M1706,-48.16C1706,-39.16 1706,-28.92 1706,-21.64"/>
<polygon fill="midnightblue" stroke="midnightblue" points="1702.5,-48.25 1706,-58.25 1709.5,-48.25 1702.5,-48.25"/>
</g>
<!-- Node22&#45;&gt;Node6 -->
<g id="edge32" class="edge">
<title>Node22&#45;&gt;Node6</title>
<path fill="none" stroke="midnightblue" d="M1944.17,-122.17C1922.34,-120.03 1894.12,-117.51 1869,-116 1347.91,-84.77 1213.95,-136.57 695,-80 692.3,-79.71 689.53,-79.35 686.75,-78.95"/>
<polygon fill="midnightblue" stroke="midnightblue" points="1944.03,-125.67 1954.33,-123.18 1944.73,-118.7 1944.03,-125.67"/>
</g>
<!-- Node22&#45;&gt;Node7 -->
<g id="edge33" class="edge">
<title>Node22&#45;&gt;Node7</title>
<path fill="none" stroke="midnightblue" d="M1944.13,-122.65C1922.29,-120.68 1894.07,-118.16 1869,-116 1676.61,-99.41 1626.42,-112.09 1436,-80 1431.31,-79.21 1426.36,-78.13 1421.62,-76.98"/>
<polygon fill="midnightblue" stroke="midnightblue" points="1944.03,-126.16 1954.3,-123.57 1944.66,-119.18 1944.03,-126.16"/>
</g>
<!-- Node22&#45;&gt;Node8 -->
<g id="edge34" class="edge">
<title>Node22&#45;&gt;Node8</title>
<path fill="none" stroke="midnightblue" d="M2017.71,-124.95C2187.21,-120.1 2911.22,-99.23 3505,-80 3598.08,-76.98 3708.01,-73.09 3761.5,-71.17"/>
<polygon fill="midnightblue" stroke="midnightblue" points="2017.47,-121.46 2007.58,-125.24 2017.67,-128.45 2017.47,-121.46"/>
</g>
<!-- Node22&#45;&gt;Node9 -->
<g id="edge35" class="edge">
<title>Node22&#45;&gt;Node9</title>
<path fill="none" stroke="midnightblue" d="M2017.78,-124.76C2169.09,-119.64 2758.45,-99.5 3243,-80 3316.12,-77.06 3402.46,-73.13 3444.47,-71.19"/>
<polygon fill="midnightblue" stroke="midnightblue" points="2017.52,-121.27 2007.65,-125.1 2017.76,-128.26 2017.52,-121.27"/>
</g>
<!-- Node22&#45;&gt;Node10 -->
<g id="edge37" class="edge">
<title>Node22&#45;&gt;Node10</title>
<path fill="none" stroke="midnightblue" d="M2018.05,-124.07C2135.49,-117.93 2510.02,-98.18 2820,-80 2867.37,-77.22 2922.62,-73.71 2954.23,-71.67"/>
<polygon fill="midnightblue" stroke="midnightblue" points="2017.61,-120.59 2007.81,-124.6 2017.98,-127.58 2017.61,-120.59"/>
</g>
<!-- Node22&#45;&gt;Node18 -->
<g id="edge39" class="edge">
<title>Node22&#45;&gt;Node18</title>
<path fill="none" stroke="midnightblue" d="M1944.55,-118.58C1894.08,-108.3 1803.05,-89.76 1749.22,-78.8"/>
<polygon fill="midnightblue" stroke="midnightblue" points="1943.88,-122.01 1954.38,-120.58 1945.28,-115.15 1943.88,-122.01"/>
</g>
<!-- Node23 -->
<g id="node23" class="node">
<title>Node23</title>
<g id="a_node23"><a xlink:href="hash_8c.html" target="_top" xlink:title=" ">
<polygon fill="white" stroke="black" points="2504,-58.5 2504,-79.5 2556,-79.5 2556,-58.5 2504,-58.5"/>
<text text-anchor="middle" x="2530" y="-65.9" font-family="DejaVuSans" font-size="12.00">hash.c</text>
</a>
</g>
</g>
<!-- Node22&#45;&gt;Node23 -->
<g id="edge36" class="edge">
<title>Node22&#45;&gt;Node23</title>
<path fill="none" stroke="midnightblue" d="M2017.72,-122.86C2097.3,-115.95 2291.61,-98.57 2454,-80 2470.66,-78.09 2489.33,-75.64 2504,-73.64"/>
<polygon fill="midnightblue" stroke="midnightblue" points="2017.36,-119.37 2007.7,-123.72 2017.97,-126.35 2017.36,-119.37"/>
</g>
<!-- Node22&#45;&gt;Node24 -->
<g id="edge38" class="edge">
<title>Node22&#45;&gt;Node24</title>
<path fill="none" stroke="midnightblue" d="M1944.16,-122.3C1922.33,-120.21 1894.11,-117.69 1869,-116 1516.1,-92.27 1421.05,-148.24 1074,-80 1071.06,-79.42 1068.02,-78.59 1065.07,-77.66"/>
<polygon fill="midnightblue" stroke="midnightblue" points="1944.03,-125.81 1954.32,-123.29 1944.71,-118.84 1944.03,-125.81"/>
</g>
<!-- Node25&#45;&gt;Node18 -->
<g id="edge46" class="edge">
<title>Node25&#45;&gt;Node18</title>
<path fill="none" stroke="midnightblue" d="M1633.44,-111.05C1651.05,-101.08 1673.68,-88.28 1688.95,-79.64"/>
<polygon fill="midnightblue" stroke="midnightblue" points="1631.23,-108.28 1624.24,-116.25 1634.67,-114.37 1631.23,-108.28"/>
</g>
<!-- Node25&#45;&gt;Node26 -->
<g id="edge41" class="edge">
<title>Node25&#45;&gt;Node26</title>
<path fill="none" stroke="midnightblue" d="M1563.82,-124.93C1466.07,-122 1220.61,-111.83 1018,-80 1015.04,-79.53 1011.98,-78.97 1008.92,-78.35"/>
<polygon fill="midnightblue" stroke="midnightblue" points="1563.81,-128.43 1573.9,-125.22 1564.01,-121.43 1563.81,-128.43"/>
</g>
<!-- Node27 -->
<g id="node27" class="node">
<title>Node27</title>
<g id="a_node27"><a xlink:href="hyphen__init_8c.html" target="_top" xlink:title=" ">
<polygon fill="white" stroke="black" points="1913,-58.5 1913,-79.5 2001,-79.5 2001,-58.5 1913,-58.5"/>
<text text-anchor="middle" x="1957" y="-65.9" font-family="DejaVuSans" font-size="12.00">hyphen_init.c</text>
</a>
</g>
</g>
<!-- Node25&#45;&gt;Node27 -->
<g id="edge42" class="edge">
<title>Node25&#45;&gt;Node27</title>
<path fill="none" stroke="midnightblue" d="M1650.46,-119.05C1717.49,-108.32 1845.41,-87.85 1912.85,-77.06"/>
<polygon fill="midnightblue" stroke="midnightblue" points="1649.56,-115.65 1640.24,-120.68 1650.67,-122.56 1649.56,-115.65"/>
</g>
<!-- Node28 -->
<g id="node28" class="node">
<title>Node28</title>
<g id="a_node28"><a xlink:href="hyphen__post_8c.html" target="_top" xlink:title=" ">
<polygon fill="white" stroke="black" points="2233.5,-58.5 2233.5,-79.5 2328.5,-79.5 2328.5,-58.5 2233.5,-58.5"/>
<text text-anchor="middle" x="2281" y="-65.9" font-family="DejaVuSans" font-size="12.00">hyphen_post.c</text>
</a>
</g>
</g>
<!-- Node25&#45;&gt;Node28 -->
<g id="edge43" class="edge">
<title>Node25&#45;&gt;Node28</title>
<path fill="none" stroke="midnightblue" d="M1650.09,-123.89C1749.87,-118.76 2004.38,-104.23 2216,-80 2221.67,-79.35 2227.61,-78.57 2233.49,-77.74"/>
<polygon fill="midnightblue" stroke="midnightblue" points="1649.9,-120.4 1640.09,-124.4 1650.26,-127.39 1649.9,-120.4"/>
</g>
<!-- Node25&#45;&gt;Node29 -->
<g id="edge44" class="edge">
<title>Node25&#45;&gt;Node29</title>
<path fill="none" stroke="midnightblue" d="M1563.44,-122.44C1486.18,-115.87 1320.15,-100.61 1181,-80 1178.31,-79.6 1175.56,-79.17 1172.78,-78.71"/>
<polygon fill="midnightblue" stroke="midnightblue" points="1563.49,-125.96 1573.74,-123.31 1564.07,-118.98 1563.49,-125.96"/>
</g>
<!-- Node25&#45;&gt;Node30 -->
<g id="edge45" class="edge">
<title>Node25&#45;&gt;Node30</title>
<path fill="none" stroke="midnightblue" d="M1650.32,-123.07C1737.41,-116.96 1939.86,-101.59 2109,-80 2116.77,-79.01 2125.07,-77.77 2132.96,-76.5"/>
<polygon fill="midnightblue" stroke="midnightblue" points="1650.01,-119.59 1640.28,-123.77 1650.5,-126.57 1650.01,-119.59"/>
</g>
<!-- Node36&#45;&gt;Node8 -->
<g id="edge60" class="edge">
<title>Node36&#45;&gt;Node8</title>
<path fill="none" stroke="midnightblue" d="M1592.46,-473.72C1784.98,-471.92 2805.91,-460.95 3117,-428 3259,-412.96 3293.06,-398.38 3433,-370 3549.46,-346.38 3603.02,-388.44 3694,-312 3770.22,-247.95 3789.22,-116.38 3793.11,-79.69"/>
<polygon fill="midnightblue" stroke="midnightblue" points="1592.17,-470.22 1582.2,-473.82 1592.23,-477.22 1592.17,-470.22"/>
</g>
<!-- Node36&#45;&gt;Node9 -->
<g id="edge61" class="edge">
<title>Node36&#45;&gt;Node9</title>
<path fill="none" stroke="midnightblue" d="M1592.62,-473.62C1773.76,-471.34 2681.35,-458.53 2959,-428 3241.79,-396.91 3360.85,-441.28 3575,-254 3628.37,-207.33 3698.66,-171.85 3655,-116 3635.48,-91.03 3541.64,-77.68 3495.6,-72.53"/>
<polygon fill="midnightblue" stroke="midnightblue" points="1592.4,-470.12 1582.44,-473.75 1592.48,-477.12 1592.4,-470.12"/>
</g>
<!-- Node36&#45;&gt;Node12 -->
<g id="edge165" class="edge">
<title>Node36&#45;&gt;Node12</title>
<path fill="none" stroke="midnightblue" d="M1592.05,-473.72C1789.73,-471.87 2874.87,-460.37 3205,-428 3626.19,-386.7 3913.3,-511.67 4112,-138 4136.01,-92.84 4050.12,-77.44 4000.63,-72.37"/>
<polygon fill="midnightblue" stroke="midnightblue" points="1592.02,-470.22 1582.05,-473.82 1592.08,-477.22 1592.02,-470.22"/>
</g>
<!-- Node36&#45;&gt;Node13 -->
<g id="edge166" class="edge">
<title>Node36&#45;&gt;Node13</title>
<path fill="none" stroke="midnightblue" d="M1529.5,-473.26C1409.26,-470.26 979.2,-457.63 846,-428 777.04,-412.66 759.45,-404.85 698,-370 581.53,-303.95 452.43,-220.61 536,-116 581.22,-59.39 624.81,-97.96 695,-80 698.06,-79.22 701.26,-78.36 704.43,-77.48"/>
<polygon fill="midnightblue" stroke="midnightblue" points="1529.76,-476.77 1539.84,-473.52 1529.93,-469.77 1529.76,-476.77"/>
</g>
<!-- Node36&#45;&gt;Node18 -->
<g id="edge168" class="edge">
<title>Node36&#45;&gt;Node18</title>
<path fill="none" stroke="midnightblue" d="M1529.43,-472.94C1495.05,-470.08 1440.62,-460.33 1408,-428 1346.07,-366.61 1348.05,-302.77 1399,-232 1412.15,-213.74 1544.73,-125.77 1565,-116 1598.29,-99.96 1638.56,-87.45 1667.53,-79.55"/>
<polygon fill="midnightblue" stroke="midnightblue" points="1529.62,-476.46 1539.83,-473.64 1530.09,-469.47 1529.62,-476.46"/>
</g>
<!-- Node36&#45;&gt;Node20 -->
<g id="edge59" class="edge">
<title>Node36&#45;&gt;Node20</title>
<path fill="none" stroke="midnightblue" d="M1529.8,-471.22C1419.64,-459.71 1045.03,-406.08 848,-196 815.74,-161.61 806.35,-102.53 803.84,-79.54"/>
<polygon fill="midnightblue" stroke="midnightblue" points="1529.61,-474.72 1539.91,-472.23 1530.31,-467.75 1529.61,-474.72"/>
</g>
<!-- Node36&#45;&gt;Node22 -->
<g id="edge62" class="edge">
<title>Node36&#45;&gt;Node22</title>
<path fill="none" stroke="midnightblue" d="M1569.42,-455.2C1578.6,-432.94 1592,-394.53 1592,-360 1592,-360 1592,-360 1592,-300 1592,-259.1 1619.56,-254.06 1654,-232 1705.67,-198.9 1885.92,-151.73 1954.36,-134.56"/>
<polygon fill="midnightblue" stroke="midnightblue" points="1566.16,-453.91 1565.44,-464.48 1572.6,-456.66 1566.16,-453.91"/>
</g>
<!-- Node36&#45;&gt;Node24 -->
<g id="edge167" class="edge">
<title>Node36&#45;&gt;Node24</title>
<path fill="none" stroke="midnightblue" d="M1529.75,-473.78C1416.83,-472.69 1030.49,-466.18 914,-428 715.12,-362.81 604.05,-338.19 543,-138 540.15,-128.65 536.35,-123.17 543,-116 578.91,-77.26 965.28,-90.7 1017,-80 1020.23,-79.33 1023.6,-78.4 1026.85,-77.37"/>
<polygon fill="midnightblue" stroke="midnightblue" points="1529.78,-477.28 1539.81,-473.87 1529.84,-470.28 1529.78,-477.28"/>
</g>
<!-- Node36&#45;&gt;Node25 -->
<g id="edge63" class="edge">
<title>Node36&#45;&gt;Node25</title>
<path fill="none" stroke="midnightblue" d="M1529.9,-467.62C1481.59,-455.69 1394,-425.08 1394,-360 1394,-360 1394,-360 1394,-300 1394,-267.95 1397.27,-256.44 1418,-232 1424.24,-224.65 1542.82,-161.78 1588.9,-137.51"/>
<polygon fill="midnightblue" stroke="midnightblue" points="1529.31,-471.08 1539.85,-469.95 1530.91,-464.26 1529.31,-471.08"/>
</g>
<!-- Node36&#45;&gt;Node29 -->
<g id="edge64" class="edge">
<title>Node36&#45;&gt;Node29</title>
<path fill="none" stroke="midnightblue" d="M1529.6,-473.4C1421.89,-471.08 1068.12,-461.06 960,-428 890.22,-406.67 563.48,-163.08 551,-138 546.64,-129.25 544.33,-123.15 551,-116 590.75,-73.42 1016.21,-87.32 1074,-80 1077.03,-79.62 1080.14,-79.17 1083.27,-78.69"/>
<polygon fill="midnightblue" stroke="midnightblue" points="1529.74,-476.91 1539.81,-473.62 1529.88,-469.91 1529.74,-476.91"/>
</g>
<!-- Node36&#45;&gt;Node30 -->
<g id="edge160" class="edge">
<title>Node36&#45;&gt;Node30</title>
<path fill="none" stroke="midnightblue" d="M1592.53,-470.28C1723.6,-454.02 2221.63,-384.16 2289,-254 2325.37,-183.72 2224.08,-106.18 2184.82,-79.57"/>
<polygon fill="midnightblue" stroke="midnightblue" points="1591.87,-466.83 1582.37,-471.52 1592.72,-473.78 1591.87,-466.83"/>
</g>
<!-- Node36&#45;&gt;Node32 -->
<g id="edge161" class="edge">
<title>Node36&#45;&gt;Node32</title>
<path fill="none" stroke="midnightblue" d="M1592.71,-473.55C1756.49,-470.85 2499,-453.41 2499,-360 2499,-360 2499,-360 2499,-300 2499,-251.87 2422.93,-116.6 2401.54,-79.51"/>
<polygon fill="midnightblue" stroke="midnightblue" points="1592.3,-470.06 1582.35,-473.72 1592.41,-477.06 1592.3,-470.06"/>
</g>
<!-- Node36&#45;&gt;Node33 -->
<g id="edge162" class="edge">
<title>Node36&#45;&gt;Node33</title>
<path fill="none" stroke="midnightblue" d="M1529.53,-472.24C1393.38,-464.24 862,-428.61 862,-360 862,-360 862,-360 862,-184 862,-166.87 1101.46,-102.02 1190.33,-78.55"/>
<polygon fill="midnightblue" stroke="midnightblue" points="1529.51,-475.75 1539.7,-472.83 1529.92,-468.76 1529.51,-475.75"/>
</g>
<!-- Node36&#45;&gt;Node34 -->
<g id="edge163" class="edge">
<title>Node36&#45;&gt;Node34</title>
<path fill="none" stroke="midnightblue" d="M1592.4,-474.25C1735.9,-475.08 2343.59,-475.47 2839,-428 3005.13,-412.08 3049.27,-414.94 3210,-370 3418.75,-311.63 3537.23,-329.39 3639,-138 3643.59,-129.37 3645.54,-123.27 3639,-116 3611.77,-85.71 3322.34,-73.75 3233.67,-70.78"/>
<polygon fill="midnightblue" stroke="midnightblue" points="1592.16,-470.74 1582.14,-474.18 1592.12,-477.74 1592.16,-470.74"/>
</g>
<!-- Node37 -->
<g id="node37" class="node">
<title>Node37</title>
<g id="a_node37"><a xlink:href="io_8c.html" target="_top" xlink:title=" ">
<polygon fill="white" stroke="black" points="1696.5,-232.5 1696.5,-253.5 1731.5,-253.5 1731.5,-232.5 1696.5,-232.5"/>
<text text-anchor="middle" x="1714" y="-239.9" font-family="DejaVuSans" font-size="12.00">io.c</text>
</a>
</g>
</g>
<!-- Node36&#45;&gt;Node37 -->
<g id="edge65" class="edge">
<title>Node36&#45;&gt;Node37</title>
<path fill="none" stroke="midnightblue" d="M1579.17,-457.42C1587.82,-449.05 1598,-438.47 1606,-428 1653.23,-366.2 1695.65,-281.97 1709.37,-253.7"/>
<polygon fill="midnightblue" stroke="midnightblue" points="1576.63,-455.01 1571.76,-464.42 1581.44,-460.1 1576.63,-455.01"/>
</g>
<!-- Node36&#45;&gt;Node38 -->
<g id="edge66" class="edge">
<title>Node36&#45;&gt;Node38</title>
<path fill="none" stroke="midnightblue" d="M1555.24,-454.53C1541.3,-407.37 1506.11,-288.33 1495.85,-253.63"/>
<polygon fill="midnightblue" stroke="midnightblue" points="1551.97,-455.81 1558.16,-464.41 1558.69,-453.83 1551.97,-455.81"/>
</g>
<!-- Node39 -->
<g id="node39" class="node">
<title>Node39</title>
<g id="a_node39"><a xlink:href="lexer_8h.html" target="_top" xlink:title=" ">
<polygon fill="white" stroke="black" points="2778,-406.5 2778,-427.5 2830,-427.5 2830,-406.5 2778,-406.5"/>
<text text-anchor="middle" x="2804" y="-413.9" font-family="DejaVuSans" font-size="12.00">lexer.h</text>
</a>
</g>
</g>
<!-- Node36&#45;&gt;Node39 -->
<g id="edge67" class="edge">
<title>Node36&#45;&gt;Node39</title>
<path fill="none" stroke="midnightblue" d="M1592.08,-472.6C1766.12,-464.76 2617.69,-426.39 2777.96,-419.17"/>
<polygon fill="midnightblue" stroke="midnightblue" points="1591.89,-469.1 1582.05,-473.05 1592.2,-476.1 1591.89,-469.1"/>
</g>
<!-- Node36&#45;&gt;Node45 -->
<g id="edge164" class="edge">
<title>Node36&#45;&gt;Node45</title>
<path fill="none" stroke="midnightblue" d="M1542.33,-457.53C1497.9,-416.35 1393.71,-306.87 1451,-232 1473.51,-202.59 1727.89,-149.45 1809.77,-132.99"/>
<polygon fill="midnightblue" stroke="midnightblue" points="1540.13,-460.26 1549.88,-464.4 1544.84,-455.08 1540.13,-460.26"/>
</g>
<!-- Node39&#45;&gt;Node8 -->
<g id="edge70" class="edge">
<title>Node39&#45;&gt;Node8</title>
<path fill="none" stroke="midnightblue" d="M2840.41,-415.24C2912.22,-413.01 3076.69,-404.26 3210,-370 3338.34,-337.02 3663.99,-163.41 3705,-138 3734.75,-119.57 3766.67,-93.44 3782.99,-79.55"/>
<polygon fill="midnightblue" stroke="midnightblue" points="2840,-411.75 2830.1,-415.54 2840.2,-418.75 2840,-411.75"/>
</g>
<!-- Node39&#45;&gt;Node9 -->
<g id="edge71" class="edge">
<title>Node39&#45;&gt;Node9</title>
<path fill="none" stroke="midnightblue" d="M2840.7,-414.71C2906.82,-411.65 3049.91,-401.64 3166,-370 3300.94,-333.22 3629.48,-153.6 3639,-138 3671.85,-84.13 3550.87,-72.93 3495.86,-70.6"/>
<polygon fill="midnightblue" stroke="midnightblue" points="2840.22,-411.23 2830.39,-415.16 2840.53,-418.22 2840.22,-411.23"/>
</g>
<!-- Node39&#45;&gt;Node10 -->
<g id="edge74" class="edge">
<title>Node39&#45;&gt;Node10</title>
<path fill="none" stroke="midnightblue" d="M2840.23,-414.96C2958.73,-409.27 3333.95,-372.7 3451,-138 3455.36,-129.25 3457.57,-123.24 3451,-116 3435.89,-99.34 3101.94,-77.52 3005.73,-71.56"/>
<polygon fill="midnightblue" stroke="midnightblue" points="2840.05,-411.46 2830.21,-415.39 2840.36,-418.45 2840.05,-411.46"/>
</g>
<!-- Node39&#45;&gt;Node11 -->
<g id="edge75" class="edge">
<title>Node39&#45;&gt;Node11</title>
<path fill="none" stroke="midnightblue" d="M2804,-396.15C2804,-373.41 2804,-335.02 2804,-302 2804,-302 2804,-302 2804,-242 2804,-167.68 2727.29,-103.07 2695.52,-79.51"/>
<polygon fill="midnightblue" stroke="midnightblue" points="2800.5,-396.24 2804,-406.24 2807.5,-396.24 2800.5,-396.24"/>
</g>
<!-- Node39&#45;&gt;Node16 -->
<g id="edge68" class="edge">
<title>Node39&#45;&gt;Node16</title>
<path fill="none" stroke="midnightblue" d="M2811.26,-396.7C2813.95,-388.58 2816.67,-378.96 2818,-370 2830.82,-283.84 2823.65,-260.93 2818,-174 2817.19,-161.46 2815.14,-147.12 2813.66,-137.83"/>
<polygon fill="midnightblue" stroke="midnightblue" points="2807.89,-395.73 2807.86,-406.32 2814.49,-398.06 2807.89,-395.73"/>
</g>
<!-- Node39&#45;&gt;Node18 -->
<g id="edge159" class="edge">
<title>Node39&#45;&gt;Node18</title>
<path fill="none" stroke="midnightblue" d="M2767.67,-416.37C2569.71,-417.95 1630,-419.25 1630,-302 1630,-302 1630,-302 1630,-242 1630,-175.08 1678.74,-105.04 1698.15,-79.79"/>
<polygon fill="midnightblue" stroke="midnightblue" points="2767.86,-419.87 2777.83,-416.29 2767.8,-412.87 2767.86,-419.87"/>
</g>
<!-- Node39&#45;&gt;Node21 -->
<g id="edge69" class="edge">
<title>Node39&#45;&gt;Node21</title>
<path fill="none" stroke="midnightblue" d="M2767.8,-415.34C2588.05,-411.94 1795.79,-395.63 1689,-370 1523.55,-330.29 1459.15,-324.82 1348,-196 1318.1,-161.35 1314.22,-102.93 1313.91,-79.83"/>
<polygon fill="midnightblue" stroke="midnightblue" points="2767.74,-418.84 2777.8,-415.53 2767.87,-411.84 2767.74,-418.84"/>
</g>
<!-- Node39&#45;&gt;Node27 -->
<g id="edge72" class="edge">
<title>Node39&#45;&gt;Node27</title>
<path fill="none" stroke="midnightblue" d="M2767.95,-413.72C2583.81,-401.71 1754.22,-342.87 1687,-254 1681.1,-246.2 1681.11,-239.81 1687,-232 1709.89,-201.65 1993.11,-168.35 2016,-138 2032.47,-116.16 1998.85,-92.41 1975.93,-79.56"/>
<polygon fill="midnightblue" stroke="midnightblue" points="2767.73,-417.22 2777.94,-414.37 2768.18,-410.23 2767.73,-417.22"/>
</g>
<!-- Node39&#45;&gt;Node37 -->
<g id="edge73" class="edge">
<title>Node39&#45;&gt;Node37</title>
<path fill="none" stroke="midnightblue" d="M2768.05,-403.96C2719.43,-388.24 2629.74,-361.16 2551,-348 2320.75,-309.52 2258.28,-343.67 2027,-312 1900.66,-294.7 1869.46,-285.95 1746,-254 1741.27,-252.78 1736.19,-251.28 1731.51,-249.82"/>
<polygon fill="midnightblue" stroke="midnightblue" points="2767.19,-407.36 2777.78,-407.14 2769.36,-400.71 2767.19,-407.36"/>
</g>
<!-- Node40 -->
<g id="node40" class="node">
<title>Node40</title>
<g id="a_node40"><a xlink:href="scan_8h.html" target="_top" xlink:title=" ">
<polygon fill="white" stroke="black" points="2870,-348.5 2870,-369.5 2922,-369.5 2922,-348.5 2870,-348.5"/>
<text text-anchor="middle" x="2896" y="-355.9" font-family="DejaVuSans" font-size="12.00">scan.h</text>
</a>
</g>
</g>
<!-- Node39&#45;&gt;Node40 -->
<g id="edge76" class="edge">
<title>Node39&#45;&gt;Node40</title>
<path fill="none" stroke="midnightblue" d="M2829.02,-400.77C2845.33,-390.85 2866.1,-378.2 2880.16,-369.64"/>
<polygon fill="midnightblue" stroke="midnightblue" points="2826.75,-398.06 2820.03,-406.25 2830.39,-404.04 2826.75,-398.06"/>
</g>
<!-- Node40&#45;&gt;Node8 -->
<g id="edge78" class="edge">
<title>Node40&#45;&gt;Node8</title>
<path fill="none" stroke="midnightblue" d="M2932.25,-352.3C2981.22,-344.4 3071.1,-329.11 3147,-312 3385.97,-258.11 3447.48,-240.44 3670,-138 3710.14,-119.52 3755.14,-93.41 3778.32,-79.53"/>
<polygon fill="midnightblue" stroke="midnightblue" points="2931.48,-348.88 2922.16,-353.92 2932.59,-355.8 2931.48,-348.88"/>
</g>
<!-- Node40&#45;&gt;Node12 -->
<g id="edge156" class="edge">
<title>Node40&#45;&gt;Node12</title>
<path fill="none" stroke="midnightblue" d="M2932.58,-353.34C2990.98,-345.74 3108.8,-329.72 3208,-312 3578.18,-245.88 3799.01,-429.96 4036,-138 4054.31,-115.44 4016.31,-92.14 3990.1,-79.52"/>
<polygon fill="midnightblue" stroke="midnightblue" points="2931.85,-349.9 2922.38,-354.66 2932.75,-356.85 2931.85,-349.9"/>
</g>
<!-- Node40&#45;&gt;Node13 -->
<g id="edge157" class="edge">
<title>Node40&#45;&gt;Node13</title>
<path fill="none" stroke="midnightblue" d="M2859.71,-357.32C2742.24,-354.86 2361.83,-344.71 2049,-312 1933.81,-299.96 1649.25,-243.48 1534,-232 1175.42,-196.29 1079.4,-255.57 724,-196 634.4,-180.98 582.36,-210.78 528,-138 461.11,-48.45 407.79,-151.9 695,-80 698.07,-79.23 701.27,-78.38 704.44,-77.51"/>
<polygon fill="midnightblue" stroke="midnightblue" points="2859.86,-360.83 2869.93,-357.53 2860.01,-353.83 2859.86,-360.83"/>
</g>
<!-- Node40&#45;&gt;Node17 -->
<g id="edge77" class="edge">
<title>Node40&#45;&gt;Node17</title>
<path fill="none" stroke="midnightblue" d="M2896.94,-337.97C2898.01,-293.84 2895.08,-186.56 2847,-116 2836.13,-100.05 2817.87,-87.49 2803.98,-79.55"/>
<polygon fill="midnightblue" stroke="midnightblue" points="2893.43,-338.1 2896.58,-348.21 2900.42,-338.34 2893.43,-338.1"/>
</g>
<!-- Node40&#45;&gt;Node18 -->
<g id="edge158" class="edge">
<title>Node40&#45;&gt;Node18</title>
<path fill="none" stroke="midnightblue" d="M2859.64,-356.4C2717.37,-350.08 2202.83,-326.42 2131,-312 2054.38,-296.62 2038.05,-281.76 1965,-254 1857.61,-213.19 1807.52,-226.28 1734,-138 1719.29,-120.34 1711.42,-93.9 1708.05,-79.75"/>
<polygon fill="midnightblue" stroke="midnightblue" points="2859.84,-359.92 2869.98,-356.86 2860.15,-352.92 2859.84,-359.92"/>
</g>
<!-- Node40&#45;&gt;Node23 -->
<g id="edge154" class="edge">
<title>Node40&#45;&gt;Node23</title>
<path fill="none" stroke="midnightblue" d="M2877.22,-341.02C2861.6,-327.05 2838.67,-306.87 2818,-290 2714.43,-205.44 2584.36,-109.68 2543.15,-79.57"/>
<polygon fill="midnightblue" stroke="midnightblue" points="2875.31,-344.01 2885.08,-348.09 2879.98,-338.8 2875.31,-344.01"/>
</g>
<!-- Node40&#45;&gt;Node34 -->
<g id="edge155" class="edge">
<title>Node40&#45;&gt;Node34</title>
<path fill="none" stroke="midnightblue" d="M2932.06,-349.73C3072.84,-317.12 3579.73,-196.3 3623,-138 3628.83,-130.15 3629.52,-123.28 3623,-116 3596.92,-86.87 3320.04,-74.17 3233.62,-70.89"/>
<polygon fill="midnightblue" stroke="midnightblue" points="2931.15,-346.35 2922.2,-352.01 2932.73,-353.17 2931.15,-346.35"/>
</g>
<!-- Node40&#45;&gt;Node41 -->
<g id="edge79" class="edge">
<title>Node40&#45;&gt;Node41</title>
<path fill="none" stroke="midnightblue" d="M2859.35,-355.18C2732.32,-345.39 2312.4,-313.05 2198,-304.23"/>
<polygon fill="midnightblue" stroke="midnightblue" points="2859.46,-358.7 2869.7,-355.97 2859.99,-351.72 2859.46,-358.7"/>
</g>
<!-- Node41&#45;&gt;Node7 -->
<g id="edge80" class="edge">
<title>Node41&#45;&gt;Node7</title>
<path fill="none" stroke="midnightblue" d="M2129.74,-298.05C2074.37,-294.3 1970.86,-283.64 1888,-254 1869.63,-247.43 1868.65,-237.75 1850,-232 1798.05,-215.97 1399,-235.83 1362,-196 1330.63,-162.23 1371.02,-102.79 1389.09,-79.62"/>
<polygon fill="midnightblue" stroke="midnightblue" points="2129.62,-301.55 2139.82,-298.69 2130.06,-294.56 2129.62,-301.55"/>
</g>
<!-- Node41&#45;&gt;Node8 -->
<g id="edge82" class="edge">
<title>Node41&#45;&gt;Node8</title>
<path fill="none" stroke="midnightblue" d="M2208.17,-296.97C2294.77,-290.19 2509.02,-272.85 2688,-254 3104.44,-210.13 3217.48,-242.39 3623,-138 3679.93,-123.34 3743.36,-94.63 3774.54,-79.63"/>
<polygon fill="midnightblue" stroke="midnightblue" points="2207.71,-293.5 2198.01,-297.77 2208.25,-300.48 2207.71,-293.5"/>
</g>
<!-- Node41&#45;&gt;Node9 -->
<g id="edge83" class="edge">
<title>Node41&#45;&gt;Node9</title>
<path fill="none" stroke="midnightblue" d="M2208.28,-295.64C2421.04,-271.94 3426.7,-158.97 3451,-138 3468.07,-123.26 3470.42,-94.58 3470.39,-79.61"/>
<polygon fill="midnightblue" stroke="midnightblue" points="2207.74,-292.18 2198.19,-296.76 2208.52,-299.13 2207.74,-292.18"/>
</g>
<!-- Node41&#45;&gt;Node10 -->
<g id="edge89" class="edge">
<title>Node41&#45;&gt;Node10</title>
<path fill="none" stroke="midnightblue" d="M2208.05,-290.34C2239.95,-282 2285.99,-268.97 2325,-254 2346.16,-245.88 2349.42,-238.91 2371,-232 2459.1,-203.78 2484.98,-212.53 2576,-196 2713.48,-171.03 2756.48,-192.85 2885,-138 2919.32,-123.35 2953.38,-94.63 2969.83,-79.63"/>
<polygon fill="midnightblue" stroke="midnightblue" points="2207.02,-286.99 2198.21,-292.88 2208.77,-293.77 2207.02,-286.99"/>
</g>
<!-- Node41&#45;&gt;Node13 -->
<g id="edge152" class="edge">
<title>Node41&#45;&gt;Node13</title>
<path fill="none" stroke="midnightblue" d="M2129.8,-299.95C2062.86,-298.78 1922.97,-291.57 1812,-254 1793.52,-247.74 1792.75,-237.41 1774,-232 1568.47,-172.65 1023.8,-226.1 812,-196 772.09,-190.33 763.3,-183 724,-174 647.44,-156.47 600.55,-198.93 551,-138 487,-59.31 464.65,-141.68 695,-80 698.05,-79.18 701.25,-78.3 704.41,-77.42"/>
<polygon fill="midnightblue" stroke="midnightblue" points="2129.86,-303.45 2139.91,-300.09 2129.96,-296.45 2129.86,-303.45"/>
</g>
<!-- Node41&#45;&gt;Node18 -->
<g id="edge153" class="edge">
<title>Node41&#45;&gt;Node18</title>
<path fill="none" stroke="midnightblue" d="M2130.2,-287.6C2040.46,-258.44 1821.5,-184.51 1760,-138 1738.12,-121.45 1720.06,-94.06 1711.44,-79.61"/>
<polygon fill="midnightblue" stroke="midnightblue" points="2129.14,-290.93 2139.74,-290.68 2131.3,-284.27 2129.14,-290.93"/>
</g>
<!-- Node41&#45;&gt;Node23 -->
<g id="edge84" class="edge">
<title>Node41&#45;&gt;Node23</title>
<path fill="none" stroke="midnightblue" d="M2205.89,-286.92C2229.82,-278.17 2261.54,-266.09 2289,-254 2309.01,-245.19 2312.19,-238.71 2333,-232 2380.78,-216.6 2523.46,-234.22 2556,-196 2585.4,-161.48 2551.82,-102.48 2536.66,-79.53"/>
<polygon fill="midnightblue" stroke="midnightblue" points="2204.68,-283.63 2196.47,-290.33 2207.07,-290.21 2204.68,-283.63"/>
</g>
<!-- Node41&#45;&gt;Node29 -->
<g id="edge85" class="edge">
<title>Node41&#45;&gt;Node29</title>
<path fill="none" stroke="midnightblue" d="M2129.97,-299.12C2068.7,-296.69 1946.94,-287.64 1850,-254 1831.56,-247.6 1830.64,-237.79 1812,-232 1614.46,-170.65 1550.7,-237.19 1348,-196 1268.53,-179.85 1239.82,-186.74 1175,-138 1154.12,-122.3 1139.18,-94.56 1132.28,-79.83"/>
<polygon fill="midnightblue" stroke="midnightblue" points="2129.86,-302.61 2139.98,-299.47 2130.11,-295.62 2129.86,-302.61"/>
</g>
<!-- Node41&#45;&gt;Node30 -->
<g id="edge90" class="edge">
<title>Node41&#45;&gt;Node30</title>
<path fill="none" stroke="midnightblue" d="M2169.09,-280.23C2169.29,-232.87 2169.81,-114.26 2169.96,-79.63"/>
<polygon fill="midnightblue" stroke="midnightblue" points="2165.59,-280.39 2169.04,-290.41 2172.59,-280.43 2165.59,-280.39"/>
</g>
<!-- Node41&#45;&gt;Node31 -->
<g id="edge87" class="edge">
<title>Node41&#45;&gt;Node31</title>
<path fill="none" stroke="midnightblue" d="M2129.78,-297.71C2043.33,-292.28 1838.94,-277.35 1774,-254 1757.06,-247.91 1757.17,-237.4 1740,-232 1523.65,-163.94 943.75,-233.1 720,-196 632.06,-181.42 607.98,-177.36 528,-138 494.88,-121.7 460.84,-94.21 443.92,-79.68"/>
<polygon fill="midnightblue" stroke="midnightblue" points="2129.76,-301.21 2139.96,-298.33 2130.19,-294.22 2129.76,-301.21"/>
</g>
<!-- Node41&#45;&gt;Node34 -->
<g id="edge150" class="edge">
<title>Node41&#45;&gt;Node34</title>
<path fill="none" stroke="midnightblue" d="M2208.32,-293.07C2247.8,-285.55 2310.06,-272.13 2362,-254 2383.78,-246.4 2386.86,-238.47 2409,-232 2526.9,-197.56 2561.91,-216.56 2683,-196 2807.44,-174.88 2838.32,-167.65 2961,-138 3042.28,-118.35 3137.39,-90.89 3182.18,-77.69"/>
<polygon fill="midnightblue" stroke="midnightblue" points="2207.49,-289.66 2198.3,-294.95 2208.78,-296.55 2207.49,-289.66"/>
</g>
<!-- Node41&#45;&gt;Node35 -->
<g id="edge151" class="edge">
<title>Node41&#45;&gt;Node35</title>
<path fill="none" stroke="midnightblue" d="M2129.93,-291.88C2088.75,-283.15 2022.07,-268.58 1965,-254 1930.52,-245.19 1923.05,-238.17 1888,-232 1831.72,-222.1 1413.96,-237.79 1375,-196 1337.54,-155.82 1417.03,-101.29 1453.26,-79.53"/>
<polygon fill="midnightblue" stroke="midnightblue" points="2129.32,-295.32 2139.82,-293.96 2130.76,-288.47 2129.32,-295.32"/>
</g>
<!-- Node41&#45;&gt;Node37 -->
<g id="edge86" class="edge">
<title>Node41&#45;&gt;Node37</title>
<path fill="none" stroke="midnightblue" d="M2129.91,-296.73C2039.66,-289.02 1818.95,-269.21 1746,-254 1741.33,-253.03 1736.37,-251.65 1731.78,-250.23"/>
<polygon fill="midnightblue" stroke="midnightblue" points="2129.73,-300.23 2140,-297.59 2130.33,-293.25 2129.73,-300.23"/>
</g>
<!-- Node41&#45;&gt;Node38 -->
<g id="edge88" class="edge">
<title>Node41&#45;&gt;Node38</title>
<path fill="none" stroke="midnightblue" d="M2129.98,-296.77C2008.48,-286.7 1638.4,-256.05 1525.83,-246.72"/>
<polygon fill="midnightblue" stroke="midnightblue" points="2129.7,-300.26 2139.95,-297.59 2130.28,-293.28 2129.7,-300.26"/>
</g>
<!-- Node42 -->
<g id="node42" class="node">
<title>Node42</title>
<g id="a_node42"><a xlink:href="error_8c.html" target="_top" xlink:title=" ">
<polygon fill="white" stroke="black" points="2050,-58.5 2050,-79.5 2100,-79.5 2100,-58.5 2050,-58.5"/>
<text text-anchor="middle" x="2075" y="-65.9" font-family="DejaVuSans" font-size="12.00">error.c</text>
</a>
</g>
</g>
<!-- Node41&#45;&gt;Node42 -->
<g id="edge81" class="edge">
<title>Node41&#45;&gt;Node42</title>
<path fill="none" stroke="midnightblue" d="M2161.29,-281.13C2142.18,-234.38 2093.18,-114.48 2078.94,-79.63"/>
<polygon fill="midnightblue" stroke="midnightblue" points="2158.06,-282.48 2165.08,-290.41 2164.54,-279.83 2158.06,-282.48"/>
</g>
<!-- Node43 -->
<g id="node43" class="node">
<title>Node43</title>
<g id="a_node43"><a xlink:href="mem_8h.html" target="_top" xlink:title=" ">
<polygon fill="white" stroke="black" points="2227.5,-232.5 2227.5,-253.5 2280.5,-253.5 2280.5,-232.5 2227.5,-232.5"/>
<text text-anchor="middle" x="2254" y="-239.9" font-family="DejaVuSans" font-size="12.00">mem.h</text>
</a>
</g>
</g>
<!-- Node41&#45;&gt;Node43 -->
<g id="edge91" class="edge">
<title>Node41&#45;&gt;Node43</title>
<path fill="none" stroke="midnightblue" d="M2192.54,-284.49C2207.54,-274.61 2226.5,-262.12 2239.36,-253.64"/>
<polygon fill="midnightblue" stroke="midnightblue" points="2190.23,-281.82 2183.81,-290.25 2194.08,-287.67 2190.23,-281.82"/>
</g>
<!-- Node43&#45;&gt;Node3 -->
<g id="edge93" class="edge">
<title>Node43&#45;&gt;Node3</title>
<path fill="none" stroke="midnightblue" d="M2217.32,-241.01C2020.09,-235.62 1089.58,-209.65 962,-196 825.74,-181.42 664.67,-146.59 605.91,-133.29"/>
<polygon fill="midnightblue" stroke="midnightblue" points="2217.37,-244.51 2227.46,-241.28 2217.56,-237.51 2217.37,-244.51"/>
</g>
<!-- Node43&#45;&gt;Node4 -->
<g id="edge94" class="edge">
<title>Node43&#45;&gt;Node4</title>
<path fill="none" stroke="midnightblue" d="M2290.8,-242.25C2420.49,-242.73 2868.12,-240.81 3234,-196 3345.15,-182.39 3474.26,-152.8 3536.95,-137.53"/>
<polygon fill="midnightblue" stroke="midnightblue" points="2290.64,-238.75 2280.63,-242.21 2290.61,-245.75 2290.64,-238.75"/>
</g>
<!-- Node43&#45;&gt;Node5 -->
<g id="edge95" class="edge">
<title>Node43&#45;&gt;Node5</title>
<path fill="none" stroke="midnightblue" d="M2290.64,-239.45C2322.04,-237.31 2368.48,-234.25 2409,-232 2753.29,-212.9 2844.66,-257.19 3184,-196 3220.42,-189.43 3320.98,-154.64 3369.34,-137.52"/>
<polygon fill="midnightblue" stroke="midnightblue" points="2290.33,-235.96 2280.6,-240.14 2290.81,-242.95 2290.33,-235.96"/>
</g>
<!-- Node43&#45;&gt;Node6 -->
<g id="edge96" class="edge">
<title>Node43&#45;&gt;Node6</title>
<path fill="none" stroke="midnightblue" d="M2217.18,-240.96C2016.4,-235.24 1060.35,-207.51 999,-196 865.6,-170.97 715.12,-104.34 661.92,-79.5"/>
<polygon fill="midnightblue" stroke="midnightblue" points="2217.13,-244.46 2227.23,-241.24 2217.33,-237.46 2217.13,-244.46"/>
</g>
<!-- Node43&#45;&gt;Node8 -->
<g id="edge99" class="edge">
<title>Node43&#45;&gt;Node8</title>
<path fill="none" stroke="midnightblue" d="M2290.89,-239.32C2398.95,-231.4 2713.55,-207.97 2816,-196 3050.87,-168.56 3107.41,-145.76 3342,-116 3498.7,-96.12 3686.82,-79.2 3761.32,-72.77"/>
<polygon fill="midnightblue" stroke="midnightblue" points="2290.52,-235.83 2280.8,-240.05 2291.03,-242.82 2290.52,-235.83"/>
</g>
<!-- Node43&#45;&gt;Node9 -->
<g id="edge100" class="edge">
<title>Node43&#45;&gt;Node9</title>
<path fill="none" stroke="midnightblue" d="M2290.63,-238.81C2386.8,-230.37 2644.93,-207.34 2730,-196 3011.29,-158.51 3349.44,-93.64 3444.22,-75.09"/>
<polygon fill="midnightblue" stroke="midnightblue" points="2290.17,-235.33 2280.51,-239.69 2290.78,-242.31 2290.17,-235.33"/>
</g>
<!-- Node43&#45;&gt;Node10 -->
<g id="edge105" class="edge">
<title>Node43&#45;&gt;Node10</title>
<path fill="none" stroke="midnightblue" d="M2290.89,-237.31C2304.16,-235.63 2319.25,-233.72 2333,-232 2462.31,-215.82 2496,-220.45 2624,-196 2636.57,-193.6 2835.04,-142.55 2847,-138 2891.11,-121.22 2939.73,-93.93 2964.14,-79.55"/>
<polygon fill="midnightblue" stroke="midnightblue" points="2290.17,-233.87 2280.69,-238.6 2291.05,-240.82 2290.17,-233.87"/>
</g>
<!-- Node43&#45;&gt;Node11 -->
<g id="edge108" class="edge">
<title>Node43&#45;&gt;Node11</title>
<path fill="none" stroke="midnightblue" d="M2290.9,-237C2368.88,-226.36 2544.25,-201.94 2556,-196 2612.59,-167.38 2659.35,-103.8 2675.73,-79.6"/>
<polygon fill="midnightblue" stroke="midnightblue" points="2290.01,-233.59 2280.57,-238.41 2290.95,-240.53 2290.01,-233.59"/>
</g>
<!-- Node43&#45;&gt;Node13 -->
<g id="edge111" class="edge">
<title>Node43&#45;&gt;Node13</title>
<path fill="none" stroke="midnightblue" d="M2217.45,-241.15C2032.38,-236.79 1203.08,-216.26 1090,-196 955.4,-171.89 803.71,-104.69 750.08,-79.61"/>
<polygon fill="midnightblue" stroke="midnightblue" points="2217.41,-244.65 2227.49,-241.39 2217.57,-237.66 2217.41,-244.65"/>
</g>
<!-- Node43&#45;&gt;Node17 -->
<g id="edge92" class="edge">
<title>Node43&#45;&gt;Node17</title>
<path fill="none" stroke="midnightblue" d="M2290.82,-237.34C2374.57,-226.69 2573.19,-201.07 2587,-196 2665.41,-167.2 2745.21,-103.73 2773.89,-79.58"/>
<polygon fill="midnightblue" stroke="midnightblue" points="2290.2,-233.89 2280.72,-238.62 2291.09,-240.84 2290.2,-233.89"/>
</g>
<!-- Node43&#45;&gt;Node18 -->
<g id="edge112" class="edge">
<title>Node43&#45;&gt;Node18</title>
<path fill="none" stroke="midnightblue" d="M2217.33,-238.53C2138.19,-229.99 1946.74,-203.69 1801,-138 1767.16,-122.75 1733.16,-94.55 1716.51,-79.71"/>
<polygon fill="midnightblue" stroke="midnightblue" points="2216.99,-242.01 2227.3,-239.57 2217.72,-235.05 2216.99,-242.01"/>
</g>
<!-- Node43&#45;&gt;Node20 -->
<g id="edge97" class="edge">
<title>Node43&#45;&gt;Node20</title>
<path fill="none" stroke="midnightblue" d="M2217.42,-241.02C2041.77,-236.24 1289.1,-214.81 1186,-196 1044.14,-170.12 882.59,-104.3 824.89,-79.58"/>
<polygon fill="midnightblue" stroke="midnightblue" points="2217.36,-244.52 2227.45,-241.29 2217.55,-237.52 2217.36,-244.52"/>
</g>
<!-- Node43&#45;&gt;Node21 -->
<g id="edge98" class="edge">
<title>Node43&#45;&gt;Node21</title>
<path fill="none" stroke="midnightblue" d="M2217.06,-241.11C2054.66,-237.07 1410.58,-219.63 1375,-196 1333.49,-168.44 1319.35,-104.22 1315.36,-79.73"/>
<polygon fill="midnightblue" stroke="midnightblue" points="2217.4,-244.62 2227.48,-241.37 2217.57,-237.62 2217.4,-244.62"/>
</g>
<!-- Node43&#45;&gt;Node26 -->
<g id="edge101" class="edge">
<title>Node43&#45;&gt;Node26</title>
<path fill="none" stroke="midnightblue" d="M2217.21,-241.11C2048.57,-236.91 1353.52,-218.38 1259,-196 1151.19,-170.47 1033.64,-104.44 991.83,-79.62"/>
<polygon fill="midnightblue" stroke="midnightblue" points="2217.24,-244.61 2227.33,-241.36 2217.41,-237.61 2217.24,-244.61"/>
</g>
<!-- Node43&#45;&gt;Node27 -->
<g id="edge102" class="edge">
<title>Node43&#45;&gt;Node27</title>
<path fill="none" stroke="midnightblue" d="M2230.79,-226.67C2193.38,-202.19 2117.12,-153.22 2050,-116 2025.58,-102.46 1996.64,-88.45 1977.6,-79.51"/>
<polygon fill="midnightblue" stroke="midnightblue" points="2229.16,-229.78 2239.44,-232.35 2233,-223.93 2229.16,-229.78"/>
</g>
<!-- Node43&#45;&gt;Node28 -->
<g id="edge103" class="edge">
<title>Node43&#45;&gt;Node28</title>
<path fill="none" stroke="midnightblue" d="M2266.01,-223.69C2270.69,-215.56 2275.51,-205.65 2278,-196 2288.87,-153.84 2284.65,-101.09 2282.24,-79.69"/>
<polygon fill="midnightblue" stroke="midnightblue" points="2262.98,-221.95 2260.74,-232.31 2268.95,-225.6 2262.98,-221.95"/>
</g>
<!-- Node43&#45;&gt;Node29 -->
<g id="edge104" class="edge">
<title>Node43&#45;&gt;Node29</title>
<path fill="none" stroke="midnightblue" d="M2216.99,-240.77C2047.61,-235.07 1352.67,-210.88 1309,-196 1234.34,-170.56 1162.64,-104.48 1137.47,-79.63"/>
<polygon fill="midnightblue" stroke="midnightblue" points="2217.04,-244.27 2227.15,-241.11 2217.27,-237.28 2217.04,-244.27"/>
</g>
<!-- Node43&#45;&gt;Node30 -->
<g id="edge106" class="edge">
<title>Node43&#45;&gt;Node30</title>
<path fill="none" stroke="midnightblue" d="M2247.5,-222.68C2238.68,-197.43 2221.74,-152.17 2202,-116 2194.82,-102.85 2184.7,-88.87 2177.77,-79.83"/>
<polygon fill="midnightblue" stroke="midnightblue" points="2244.21,-223.87 2250.77,-232.19 2250.83,-221.6 2244.21,-223.87"/>
</g>
<!-- Node43&#45;&gt;Node32 -->
<g id="edge107" class="edge">
<title>Node43&#45;&gt;Node32</title>
<path fill="none" stroke="midnightblue" d="M2269.75,-224.76C2277.47,-216.21 2286.83,-205.66 2295,-196 2331.02,-153.4 2372.07,-100.89 2388.57,-79.62"/>
<polygon fill="midnightblue" stroke="midnightblue" points="2267.07,-222.5 2262.95,-232.26 2272.26,-227.2 2267.07,-222.5"/>
</g>
<!-- Node43&#45;&gt;Node33 -->
<g id="edge109" class="edge">
<title>Node43&#45;&gt;Node33</title>
<path fill="none" stroke="midnightblue" d="M2217.13,-240.87C2052.2,-235.73 1388.28,-213.99 1348,-196 1290.04,-170.11 1244.42,-104.3 1228.81,-79.58"/>
<polygon fill="midnightblue" stroke="midnightblue" points="2217.16,-244.37 2227.27,-241.19 2217.38,-237.38 2217.16,-244.37"/>
</g>
<!-- Node43&#45;&gt;Node34 -->
<g id="edge110" class="edge">
<title>Node43&#45;&gt;Node34</title>
<path fill="none" stroke="midnightblue" d="M2290.76,-238.93C2379.91,-231.34 2605.77,-211.21 2680,-196 2712.78,-189.29 2719.67,-182.61 2752,-174 2914.61,-130.67 3112.8,-89.34 3182.38,-75.16"/>
<polygon fill="midnightblue" stroke="midnightblue" points="2290.25,-235.46 2280.58,-239.79 2290.84,-242.44 2290.25,-235.46"/>
</g>
<!-- Node44 -->
<g id="node44" class="node">
<title>Node44</title>
<g id="a_node44"><a xlink:href="texmac_8h.html" target="_top" xlink:title=" ">
<polygon fill="white" stroke="black" points="2482.5,-174.5 2482.5,-195.5 2547.5,-195.5 2547.5,-174.5 2482.5,-174.5"/>
<text text-anchor="middle" x="2515" y="-181.9" font-family="DejaVuSans" font-size="12.00">texmac.h</text>
</a>
</g>
</g>
<!-- Node43&#45;&gt;Node44 -->
<g id="edge113" class="edge">
<title>Node43&#45;&gt;Node44</title>
<path fill="none" stroke="midnightblue" d="M2290.64,-233C2292.11,-232.66 2293.57,-232.32 2295,-232 2361.41,-216.96 2439.5,-201.05 2482.5,-192.45"/>
<polygon fill="midnightblue" stroke="midnightblue" points="2289.8,-229.6 2280.88,-235.31 2291.41,-236.41 2289.8,-229.6"/>
</g>
<!-- Node44&#45;&gt;Node4 -->
<g id="edge114" class="edge">
<title>Node44&#45;&gt;Node4</title>
<path fill="none" stroke="midnightblue" d="M2557.93,-182.37C2690.75,-177.22 3106.79,-160.33 3451,-138 3479.66,-136.14 3512.01,-133.51 3536.48,-131.42"/>
<polygon fill="midnightblue" stroke="midnightblue" points="2557.62,-178.88 2547.77,-182.76 2557.89,-185.87 2557.62,-178.88"/>
</g>
<!-- Node44&#45;&gt;Node5 -->
<g id="edge115" class="edge">
<title>Node44&#45;&gt;Node5</title>
<path fill="none" stroke="midnightblue" d="M2557.94,-182.13C2676.11,-176.83 3016.04,-160.66 3298,-138 3315.05,-136.63 3333.73,-134.8 3350.17,-133.09"/>
<polygon fill="midnightblue" stroke="midnightblue" points="2557.69,-178.63 2547.86,-182.58 2558,-185.63 2557.69,-178.63"/>
</g>
<!-- Node44&#45;&gt;Node8 -->
<g id="edge116" class="edge">
<title>Node44&#45;&gt;Node8</title>
<path fill="none" stroke="midnightblue" d="M2557.91,-180.1C2673.13,-169.64 2998.91,-140.11 3270,-116 3456.02,-99.46 3679.22,-79.99 3761.5,-72.83"/>
<polygon fill="midnightblue" stroke="midnightblue" points="2557.39,-176.63 2547.74,-181.02 2558.02,-183.61 2557.39,-176.63"/>
</g>
<!-- Node44&#45;&gt;Node11 -->
<g id="edge120" class="edge">
<title>Node44&#45;&gt;Node11</title>
<path fill="none" stroke="midnightblue" d="M2537.52,-168.63C2572.44,-144.79 2638.68,-99.57 2667.73,-79.74"/>
<polygon fill="midnightblue" stroke="midnightblue" points="2535.24,-165.95 2528.95,-174.48 2539.18,-171.73 2535.24,-165.95"/>
</g>
<!-- Node44&#45;&gt;Node12 -->
<g id="edge147" class="edge">
<title>Node44&#45;&gt;Node12</title>
<path fill="none" stroke="midnightblue" d="M2557.88,-181.82C2662.48,-176.32 2939.03,-160.69 3169,-138 3246.13,-130.39 3264.88,-123.71 3342,-116 3561.05,-94.11 3616.47,-96.31 3836,-80 3869.92,-77.48 3908.74,-74.53 3935.45,-72.49"/>
<polygon fill="midnightblue" stroke="midnightblue" points="2557.52,-178.33 2547.72,-182.35 2557.89,-185.33 2557.52,-178.33"/>
</g>
<!-- Node44&#45;&gt;Node13 -->
<g id="edge148" class="edge">
<title>Node44&#45;&gt;Node13</title>
<path fill="none" stroke="midnightblue" d="M2472.1,-182.8C2237.52,-176.04 1108.12,-140.78 765,-80 762.01,-79.47 758.92,-78.79 755.85,-78.03"/>
<polygon fill="midnightblue" stroke="midnightblue" points="2472.18,-186.3 2482.27,-183.09 2472.38,-179.31 2472.18,-186.3"/>
</g>
<!-- Node44&#45;&gt;Node18 -->
<g id="edge149" class="edge">
<title>Node44&#45;&gt;Node18</title>
<path fill="none" stroke="midnightblue" d="M2472.37,-177.99C2332.65,-158.3 1889.44,-95.85 1749.07,-76.07"/>
<polygon fill="midnightblue" stroke="midnightblue" points="2471.89,-181.46 2482.28,-179.39 2472.87,-174.53 2471.89,-181.46"/>
</g>
<!-- Node44&#45;&gt;Node23 -->
<g id="edge117" class="edge">
<title>Node44&#45;&gt;Node23</title>
<path fill="none" stroke="midnightblue" d="M2517.6,-164.25C2520.84,-139.58 2526.27,-98.35 2528.72,-79.69"/>
<polygon fill="midnightblue" stroke="midnightblue" points="2514.11,-163.91 2516.28,-174.28 2521.05,-164.82 2514.11,-163.91"/>
</g>
<!-- Node44&#45;&gt;Node28 -->
<g id="edge118" class="edge">
<title>Node44&#45;&gt;Node28</title>
<path fill="none" stroke="midnightblue" d="M2486.19,-169.96C2437.92,-146.45 2341.96,-99.7 2300.66,-79.58"/>
<polygon fill="midnightblue" stroke="midnightblue" points="2484.93,-173.24 2495.45,-174.48 2487.99,-166.95 2484.93,-173.24"/>
</g>
<!-- Node44&#45;&gt;Node32 -->
<g id="edge119" class="edge">
<title>Node44&#45;&gt;Node32</title>
<path fill="none" stroke="midnightblue" d="M2504.82,-165.26C2496.29,-150.69 2483.11,-130.57 2468,-116 2452.2,-100.76 2430.6,-87.77 2415.19,-79.52"/>
<polygon fill="midnightblue" stroke="midnightblue" points="2501.98,-167.34 2509.95,-174.32 2508.07,-163.89 2501.98,-167.34"/>
</g>
<!-- Node44&#45;&gt;Node45 -->
<g id="edge121" class="edge">
<title>Node44&#45;&gt;Node45</title>
<path fill="none" stroke="midnightblue" d="M2472.14,-180.69C2377.18,-173.32 2141.88,-154.89 1945,-138 1915.96,-135.51 1882.63,-132.45 1860.33,-130.38"/>
<polygon fill="midnightblue" stroke="midnightblue" points="2471.98,-184.19 2482.22,-181.47 2472.52,-177.21 2471.98,-184.19"/>
</g>
<!-- Node45&#45;&gt;Node6 -->
<g id="edge123" class="edge">
<title>Node45&#45;&gt;Node6</title>
<path fill="none" stroke="midnightblue" d="M1799.36,-123.91C1761.92,-121.76 1701.34,-118.39 1649,-116 1225.14,-96.61 1116.64,-127.47 695,-80 692.3,-79.7 689.53,-79.33 686.75,-78.93"/>
<polygon fill="midnightblue" stroke="midnightblue" points="1799.55,-127.43 1809.74,-124.51 1799.95,-120.44 1799.55,-127.43"/>
</g>
<!-- Node45&#45;&gt;Node7 -->
<g id="edge125" class="edge">
<title>Node45&#45;&gt;Node7</title>
<path fill="none" stroke="midnightblue" d="M1799.58,-123.54C1729.63,-118.34 1569.05,-104.61 1436,-80 1431.33,-79.14 1426.38,-78.02 1421.64,-76.86"/>
<polygon fill="midnightblue" stroke="midnightblue" points="1799.38,-127.04 1809.61,-124.28 1799.9,-120.06 1799.38,-127.04"/>
</g>
<!-- Node45&#45;&gt;Node8 -->
<g id="edge128" class="edge">
<title>Node45&#45;&gt;Node8</title>
<path fill="none" stroke="midnightblue" d="M1870.31,-122.18C1891.87,-120 1919.99,-117.42 1945,-116 2637.4,-76.58 2811.77,-99.99 3505,-80 3598.09,-77.32 3708.01,-73.27 3761.5,-71.25"/>
<polygon fill="midnightblue" stroke="midnightblue" points="1869.89,-118.7 1860.3,-123.21 1870.61,-125.67 1869.89,-118.7"/>
</g>
<!-- Node45&#45;&gt;Node9 -->
<g id="edge129" class="edge">
<title>Node45&#45;&gt;Node9</title>
<path fill="none" stroke="midnightblue" d="M1870.32,-122.22C1891.87,-120.06 1920,-117.48 1945,-116 2521.1,-81.86 2666.26,-100.7 3243,-80 3316.13,-77.38 3402.47,-73.3 3444.47,-71.26"/>
<polygon fill="midnightblue" stroke="midnightblue" points="1869.9,-118.74 1860.31,-123.24 1870.61,-125.71 1869.9,-118.74"/>
</g>
<!-- Node45&#45;&gt;Node10 -->
<g id="edge135" class="edge">
<title>Node45&#45;&gt;Node10</title>
<path fill="none" stroke="midnightblue" d="M1870.32,-122.34C1891.88,-120.22 1920.01,-117.65 1945,-116 2333.37,-90.37 2431.3,-100.14 2820,-80 2867.39,-77.54 2922.63,-73.92 2954.24,-71.78"/>
<polygon fill="midnightblue" stroke="midnightblue" points="1869.92,-118.86 1860.31,-123.34 1870.61,-125.83 1869.92,-118.86"/>
</g>
<!-- Node45&#45;&gt;Node11 -->
<g id="edge138" class="edge">
<title>Node45&#45;&gt;Node11</title>
<path fill="none" stroke="midnightblue" d="M1870.33,-122.49C1891.89,-120.43 1920.02,-117.86 1945,-116 2220.26,-95.5 2289.69,-99.75 2565,-80 2596.31,-77.75 2632.29,-74.59 2655.99,-72.43"/>
<polygon fill="midnightblue" stroke="midnightblue" points="1869.94,-119.01 1860.32,-123.46 1870.61,-125.98 1869.94,-119.01"/>
</g>
<!-- Node45&#45;&gt;Node12 -->
<g id="edge142" class="edge">
<title>Node45&#45;&gt;Node12</title>
<path fill="none" stroke="midnightblue" d="M1870.31,-122.14C1891.86,-119.95 1919.99,-117.37 1945,-116 2784.33,-69.92 2996.34,-119.77 3836,-80 3869.98,-78.39 3908.79,-75.3 3935.48,-72.98"/>
<polygon fill="midnightblue" stroke="midnightblue" points="1869.89,-118.67 1860.3,-123.18 1870.61,-125.63 1869.89,-118.67"/>
</g>
<!-- Node45&#45;&gt;Node13 -->
<g id="edge143" class="edge">
<title>Node45&#45;&gt;Node13</title>
<path fill="none" stroke="midnightblue" d="M1799.35,-123.95C1761.92,-121.82 1701.33,-118.47 1649,-116 1256.22,-97.44 1153.22,-142.45 765,-80 762.01,-79.52 758.9,-78.87 755.84,-78.12"/>
<polygon fill="midnightblue" stroke="midnightblue" points="1799.55,-127.46 1809.73,-124.54 1799.95,-120.47 1799.55,-127.46"/>
</g>
<!-- Node45&#45;&gt;Node17 -->
<g id="edge122" class="edge">
<title>Node45&#45;&gt;Node17</title>
<path fill="none" stroke="midnightblue" d="M1870.33,-122.39C1891.88,-120.29 1920.01,-117.72 1945,-116 2287.68,-92.45 2375.11,-113.03 2717,-80 2731.02,-78.65 2746.56,-76.42 2759.24,-74.4"/>
<polygon fill="midnightblue" stroke="midnightblue" points="1869.92,-118.91 1860.32,-123.38 1870.61,-125.88 1869.92,-118.91"/>
</g>
<!-- Node45&#45;&gt;Node18 -->
<g id="edge145" class="edge">
<title>Node45&#45;&gt;Node18</title>
<path fill="none" stroke="midnightblue" d="M1803.63,-112.38C1780.17,-102.2 1748.68,-88.53 1727.89,-79.5"/>
<polygon fill="midnightblue" stroke="midnightblue" points="1802.26,-115.6 1812.82,-116.37 1805.04,-109.18 1802.26,-115.6"/>
</g>
<!-- Node45&#45;&gt;Node20 -->
<g id="edge124" class="edge">
<title>Node45&#45;&gt;Node20</title>
<path fill="none" stroke="midnightblue" d="M1799.35,-124.05C1761.91,-122 1701.32,-118.72 1649,-116 1331.25,-99.46 1251.54,-100.11 934,-80 898.94,-77.78 858.66,-74.61 832.12,-72.44"/>
<polygon fill="midnightblue" stroke="midnightblue" points="1799.55,-127.56 1809.73,-124.61 1799.94,-120.57 1799.55,-127.56"/>
</g>
<!-- Node45&#45;&gt;Node21 -->
<g id="edge126" class="edge">
<title>Node45&#45;&gt;Node21</title>
<path fill="none" stroke="midnightblue" d="M1799.48,-123.81C1720.62,-118.66 1525.13,-104.38 1363,-80 1360.25,-79.59 1357.43,-79.12 1354.58,-78.62"/>
<polygon fill="midnightblue" stroke="midnightblue" points="1799.61,-127.32 1809.81,-124.47 1800.06,-120.34 1799.61,-127.32"/>
</g>
<!-- Node45&#45;&gt;Node23 -->
<g id="edge130" class="edge">
<title>Node45&#45;&gt;Node23</title>
<path fill="none" stroke="midnightblue" d="M1870.34,-122.61C1891.91,-120.58 1920.03,-118.02 1945,-116 2171.05,-97.73 2228.36,-102.8 2454,-80 2470.55,-78.33 2489.06,-75.9 2503.67,-73.86"/>
<polygon fill="midnightblue" stroke="midnightblue" points="1869.95,-119.13 1860.33,-123.55 1870.61,-126.1 1869.95,-119.13"/>
</g>
<!-- Node45&#45;&gt;Node24 -->
<g id="edge144" class="edge">
<title>Node45&#45;&gt;Node24</title>
<path fill="none" stroke="midnightblue" d="M1799.63,-124C1652.02,-115.62 1092.01,-83.68 1074,-80 1071.07,-79.4 1068.03,-78.56 1065.08,-77.62"/>
<polygon fill="midnightblue" stroke="midnightblue" points="1799.74,-127.51 1809.92,-124.58 1800.13,-120.52 1799.74,-127.51"/>
</g>
<!-- Node45&#45;&gt;Node26 -->
<g id="edge131" class="edge">
<title>Node45&#45;&gt;Node26</title>
<path fill="none" stroke="midnightblue" d="M1799.56,-124.09C1645.11,-115.76 1037.63,-82.87 1018,-80 1015.03,-79.57 1011.97,-79.02 1008.91,-78.42"/>
<polygon fill="midnightblue" stroke="midnightblue" points="1799.71,-127.6 1809.88,-124.65 1800.09,-120.61 1799.71,-127.6"/>
</g>
<!-- Node45&#45;&gt;Node27 -->
<g id="edge132" class="edge">
<title>Node45&#45;&gt;Node27</title>
<path fill="none" stroke="midnightblue" d="M1865.26,-112.11C1887.38,-101.96 1916.81,-88.45 1936.3,-79.5"/>
<polygon fill="midnightblue" stroke="midnightblue" points="1863.6,-109.02 1855.97,-116.37 1866.52,-115.38 1863.6,-109.02"/>
</g>
<!-- Node45&#45;&gt;Node29 -->
<g id="edge133" class="edge">
<title>Node45&#45;&gt;Node29</title>
<path fill="none" stroke="midnightblue" d="M1799.45,-124.05C1681.29,-117.47 1302.37,-95.66 1181,-80 1178.31,-79.65 1175.54,-79.26 1172.76,-78.82"/>
<polygon fill="midnightblue" stroke="midnightblue" points="1799.56,-127.56 1809.73,-124.62 1799.94,-120.57 1799.56,-127.56"/>
</g>
<!-- Node45&#45;&gt;Node30 -->
<g id="edge136" class="edge">
<title>Node45&#45;&gt;Node30</title>
<path fill="none" stroke="midnightblue" d="M1870.13,-116.82C1871.44,-116.53 1872.73,-116.26 1874,-116 1977.52,-94.85 2004.64,-96.55 2109,-80 2116.74,-78.77 2125.02,-77.43 2132.91,-76.14"/>
<polygon fill="midnightblue" stroke="midnightblue" points="1869.03,-113.48 1860.09,-119.18 1870.63,-120.3 1869.03,-113.48"/>
</g>
<!-- Node45&#45;&gt;Node31 -->
<g id="edge134" class="edge">
<title>Node45&#45;&gt;Node31</title>
<path fill="none" stroke="midnightblue" d="M1799.36,-123.87C1761.93,-121.69 1701.34,-118.29 1649,-116 1177.63,-95.33 1059.26,-103.19 588,-80 547.87,-78.03 501.95,-74.96 470.57,-72.75"/>
<polygon fill="midnightblue" stroke="midnightblue" points="1799.55,-127.39 1809.74,-124.48 1799.96,-120.4 1799.55,-127.39"/>
</g>
<!-- Node45&#45;&gt;Node32 -->
<g id="edge137" class="edge">
<title>Node45&#45;&gt;Node32</title>
<path fill="none" stroke="midnightblue" d="M1870.31,-121.08C1883.39,-119.34 1898.36,-117.46 1912,-116 2100.48,-95.79 2148.94,-103.86 2337,-80 2340.2,-79.59 2343.48,-79.14 2346.79,-78.66"/>
<polygon fill="midnightblue" stroke="midnightblue" points="1869.73,-117.62 1860.28,-122.43 1870.66,-124.56 1869.73,-117.62"/>
</g>
<!-- Node45&#45;&gt;Node33 -->
<g id="edge139" class="edge">
<title>Node45&#45;&gt;Node33</title>
<path fill="none" stroke="midnightblue" d="M1799.7,-123.89C1691.93,-117.35 1368.17,-96.79 1264,-80 1261.25,-79.56 1258.42,-79.03 1255.58,-78.44"/>
<polygon fill="midnightblue" stroke="midnightblue" points="1799.54,-127.39 1809.73,-124.5 1799.96,-120.4 1799.54,-127.39"/>
</g>
<!-- Node45&#45;&gt;Node34 -->
<g id="edge140" class="edge">
<title>Node45&#45;&gt;Node34</title>
<path fill="none" stroke="midnightblue" d="M1870.32,-122.27C1891.87,-120.13 1920,-117.56 1945,-116 2419.91,-86.45 2539.61,-100.31 3015,-80 3075,-77.44 3145.45,-73.57 3182.41,-71.47"/>
<polygon fill="midnightblue" stroke="midnightblue" points="1869.91,-118.8 1860.31,-123.29 1870.61,-125.76 1869.91,-118.8"/>
</g>
<!-- Node45&#45;&gt;Node35 -->
<g id="edge141" class="edge">
<title>Node45&#45;&gt;Node35</title>
<path fill="none" stroke="midnightblue" d="M1799.78,-120.6C1726.28,-109.32 1558.15,-83.52 1494.78,-73.8"/>
<polygon fill="midnightblue" stroke="midnightblue" points="1799.5,-124.09 1809.91,-122.15 1800.56,-117.17 1799.5,-124.09"/>
</g>
<!-- Node45&#45;&gt;Node42 -->
<g id="edge127" class="edge">
<title>Node45&#45;&gt;Node42</title>
<path fill="none" stroke="midnightblue" d="M1870.16,-116.94C1871.46,-116.62 1872.74,-116.31 1874,-116 1937.14,-100.68 2011.79,-83.96 2049.88,-75.53"/>
<polygon fill="midnightblue" stroke="midnightblue" points="1869,-113.62 1860.15,-119.45 1870.7,-120.41 1869,-113.62"/>
</g>
<!-- Node46 -->
<g id="node46" class="node">
<title>Node46</title>
<g id="a_node46"><a xlink:href="texmath_8c.html" target="_top" xlink:title=" ">
<polygon fill="white" stroke="black" points="1801,-58.5 1801,-79.5 1869,-79.5 1869,-58.5 1801,-58.5"/>
<text text-anchor="middle" x="1835" y="-65.9" font-family="DejaVuSans" font-size="12.00">texmath.c</text>
</a>
</g>
</g>
<!-- Node45&#45;&gt;Node46 -->
<g id="edge146" class="edge">
<title>Node45&#45;&gt;Node46</title>
<path fill="none" stroke="midnightblue" d="M1835,-106.16C1835,-97.16 1835,-86.92 1835,-79.64"/>
<polygon fill="midnightblue" stroke="midnightblue" points="1831.5,-106.25 1835,-116.25 1838.5,-106.25 1831.5,-106.25"/>
</g>
</g>
</svg>
