<?xml version="1.0" encoding="UTF-8" standalone="no"?>
<!DOCTYPE svg PUBLIC "-//W3C//DTD SVG 1.1//EN"
 "http://www.w3.org/Graphics/SVG/1.1/DTD/svg11.dtd">
<!-- Generated by graphviz version 2.44.0 ()
 -->
<!-- Title: str.c Pages: 1 -->
<svg width="890pt" height="726pt"
 viewBox="0.00 0.00 890.35 726.00" xmlns="http://www.w3.org/2000/svg" xmlns:xlink="http://www.w3.org/1999/xlink">
<g id="graph0" class="graph" transform="scale(1 1) rotate(0) translate(4 722)">
<title>str.c</title>
<polygon fill="white" stroke="transparent" points="-4,4 -4,-722 886.35,-722 886.35,4 -4,4"/>
<!-- Node1 -->
<g id="node1" class="node">
<title>Node1</title>
<g id="a_node1"><a xlink:title=" ">
<polygon fill="#bfbfbf" stroke="black" points="292.85,-696.5 292.85,-717.5 330.85,-717.5 330.85,-696.5 292.85,-696.5"/>
<text text-anchor="middle" x="311.85" y="-703.9" font-family="DejaVuSans" font-size="12.00">str.c</text>
</a>
</g>
</g>
<!-- Node2 -->
<g id="node2" class="node">
<title>Node2</title>
<g id="a_node2"><a xlink:title=" ">
<polygon fill="white" stroke="#bfbfbf" points="245.85,-0.5 245.85,-21.5 297.85,-21.5 297.85,-0.5 245.85,-0.5"/>
<text text-anchor="middle" x="271.85" y="-7.9" font-family="DejaVuSans" font-size="12.00">stdio.h</text>
</a>
</g>
</g>
<!-- Node1&#45;&gt;Node2 -->
<g id="edge1" class="edge">
<title>Node1&#45;&gt;Node2</title>
<path fill="none" stroke="midnightblue" d="M292.68,-702.45C268.01,-697.04 225,-684.65 196.85,-660 148.49,-617.66 125.85,-598.28 125.85,-534 125.85,-534 125.85,-534 125.85,-474 125.85,-288.97 32.16,-207.01 141.85,-58 147.67,-50.09 199.43,-33.42 235.85,-22.48"/>
<polygon fill="midnightblue" stroke="midnightblue" points="237.09,-25.76 245.67,-19.55 235.09,-19.05 237.09,-25.76"/>
</g>
<!-- Node3 -->
<g id="node3" class="node">
<title>Node3</title>
<g id="a_node3"><a xlink:title=" ">
<polygon fill="white" stroke="#bfbfbf" points="60.85,-638.5 60.85,-659.5 116.85,-659.5 116.85,-638.5 60.85,-638.5"/>
<text text-anchor="middle" x="88.85" y="-645.9" font-family="DejaVuSans" font-size="12.00">string.h</text>
</a>
</g>
</g>
<!-- Node1&#45;&gt;Node3 -->
<g id="edge2" class="edge">
<title>Node1&#45;&gt;Node3</title>
<path fill="none" stroke="midnightblue" d="M292.84,-701.23C256.16,-692.01 175.01,-671.64 126.85,-659.54"/>
<polygon fill="midnightblue" stroke="midnightblue" points="127.66,-656.14 117.11,-657.1 125.95,-662.93 127.66,-656.14"/>
</g>
<!-- Node4 -->
<g id="node4" class="node">
<title>Node4</title>
<g id="a_node4"><a xlink:href="global__const_8h.html" target="_top" xlink:title=" ">
<polygon fill="white" stroke="black" points="150.35,-58.5 150.35,-79.5 243.35,-79.5 243.35,-58.5 150.35,-58.5"/>
<text text-anchor="middle" x="196.85" y="-65.9" font-family="DejaVuSans" font-size="12.00">global_const.h</text>
</a>
</g>
</g>
<!-- Node1&#45;&gt;Node4 -->
<g id="edge3" class="edge">
<title>Node1&#45;&gt;Node4</title>
<path fill="none" stroke="midnightblue" d="M292.68,-705.65C237.92,-704.21 82.78,-696.88 51.85,-660 -99.25,-479.82 122.79,-166.02 182.66,-87.97"/>
<polygon fill="midnightblue" stroke="midnightblue" points="185.75,-89.69 189.12,-79.64 180.23,-85.39 185.75,-89.69"/>
</g>
<!-- Node6 -->
<g id="node6" class="node">
<title>Node6</title>
<g id="a_node6"><a xlink:href="tex_8h.html" target="_top" xlink:title=" ">
<polygon fill="white" stroke="black" points="481.85,-290.5 481.85,-311.5 523.85,-311.5 523.85,-290.5 481.85,-290.5"/>
<text text-anchor="middle" x="502.85" y="-297.9" font-family="DejaVuSans" font-size="12.00">tex.h</text>
</a>
</g>
</g>
<!-- Node1&#45;&gt;Node6 -->
<g id="edge6" class="edge">
<title>Node1&#45;&gt;Node6</title>
<path fill="none" stroke="midnightblue" d="M331,-704.71C410.3,-698.87 708.85,-671.6 708.85,-592 708.85,-592 708.85,-592 708.85,-474 708.85,-383.9 591.29,-331.77 533.79,-311.66"/>
<polygon fill="midnightblue" stroke="midnightblue" points="534.72,-308.28 524.12,-308.39 532.47,-314.91 534.72,-308.28"/>
</g>
<!-- Node12 -->
<g id="node12" class="node">
<title>Node12</title>
<g id="a_node12"><a xlink:href="str_8h.html" target="_top" xlink:title=" ">
<polygon fill="white" stroke="black" points="304.35,-116.5 304.35,-137.5 343.35,-137.5 343.35,-116.5 304.35,-116.5"/>
<text text-anchor="middle" x="323.85" y="-123.9" font-family="DejaVuSans" font-size="12.00">str.h</text>
</a>
</g>
</g>
<!-- Node1&#45;&gt;Node12 -->
<g id="edge46" class="edge">
<title>Node1&#45;&gt;Node12</title>
<path fill="none" stroke="midnightblue" d="M292.82,-699.38C256.93,-685.55 182.85,-649.98 182.85,-592 182.85,-592 182.85,-592 182.85,-242 182.85,-185 253.39,-151.6 294.68,-136.93"/>
<polygon fill="midnightblue" stroke="midnightblue" points="295.9,-140.21 304.25,-133.68 293.65,-133.59 295.9,-140.21"/>
</g>
<!-- Node13 -->
<g id="node13" class="node">
<title>Node13</title>
<g id="a_node13"><a xlink:href="macros_8h.html" target="_top" xlink:title=" ">
<polygon fill="white" stroke="black" points="249.35,-638.5 249.35,-659.5 314.35,-659.5 314.35,-638.5 249.35,-638.5"/>
<text text-anchor="middle" x="281.85" y="-645.9" font-family="DejaVuSans" font-size="12.00">macros.h</text>
</a>
</g>
</g>
<!-- Node1&#45;&gt;Node13 -->
<g id="edge17" class="edge">
<title>Node1&#45;&gt;Node13</title>
<path fill="none" stroke="midnightblue" d="M306.63,-696.25C302.54,-688.62 296.74,-677.79 291.78,-668.53"/>
<polygon fill="midnightblue" stroke="midnightblue" points="294.83,-666.8 287.02,-659.64 288.65,-670.11 294.83,-666.8"/>
</g>
<!-- Node14 -->
<g id="node14" class="node">
<title>Node14</title>
<g id="a_node14"><a xlink:href="texfunc_8h.html" target="_top" xlink:title=" ">
<polygon fill="white" stroke="black" points="211.35,-580.5 211.35,-601.5 276.35,-601.5 276.35,-580.5 211.35,-580.5"/>
<text text-anchor="middle" x="243.85" y="-587.9" font-family="DejaVuSans" font-size="12.00">texfunc.h</text>
</a>
</g>
</g>
<!-- Node1&#45;&gt;Node14 -->
<g id="edge18" class="edge">
<title>Node1&#45;&gt;Node14</title>
<path fill="none" stroke="midnightblue" d="M292.82,-699.64C275.77,-692.81 251.8,-680.13 240.85,-660 232.85,-645.27 234.63,-625.99 237.82,-611.72"/>
<polygon fill="midnightblue" stroke="midnightblue" points="241.23,-612.51 240.39,-601.94 234.46,-610.73 241.23,-612.51"/>
</g>
<!-- Node15 -->
<g id="node15" class="node">
<title>Node15</title>
<g id="a_node15"><a xlink:href="error_8h.html" target="_top" xlink:title=" ">
<polygon fill="white" stroke="black" points="371.35,-638.5 371.35,-659.5 422.35,-659.5 422.35,-638.5 371.35,-638.5"/>
<text text-anchor="middle" x="396.85" y="-645.9" font-family="DejaVuSans" font-size="12.00">error.h</text>
</a>
</g>
</g>
<!-- Node1&#45;&gt;Node15 -->
<g id="edge20" class="edge">
<title>Node1&#45;&gt;Node15</title>
<path fill="none" stroke="midnightblue" d="M326.66,-696.25C339.58,-687.73 358.55,-675.24 373.51,-665.38"/>
<polygon fill="midnightblue" stroke="midnightblue" points="375.79,-668.07 382.22,-659.64 371.94,-662.22 375.79,-668.07"/>
</g>
<!-- Node16 -->
<g id="node16" class="node">
<title>Node16</title>
<g id="a_node16"><a xlink:href="hash_8h.html" target="_top" xlink:title=" ">
<polygon fill="white" stroke="black" points="316.35,-348.5 316.35,-369.5 369.35,-369.5 369.35,-348.5 316.35,-348.5"/>
<text text-anchor="middle" x="342.85" y="-355.9" font-family="DejaVuSans" font-size="12.00">hash.h</text>
</a>
</g>
</g>
<!-- Node1&#45;&gt;Node16 -->
<g id="edge21" class="edge">
<title>Node1&#45;&gt;Node16</title>
<path fill="none" stroke="midnightblue" d="M316.29,-696.48C324.87,-677.2 342.85,-632 342.85,-592 342.85,-592 342.85,-592 342.85,-474 342.85,-440.98 342.85,-402.59 342.85,-379.85"/>
<polygon fill="midnightblue" stroke="midnightblue" points="346.35,-379.76 342.85,-369.76 339.35,-379.76 346.35,-379.76"/>
</g>
<!-- Node19 -->
<g id="node19" class="node">
<title>Node19</title>
<g id="a_node19"><a xlink:href="print_8h.html" target="_top" xlink:title=" ">
<polygon fill="white" stroke="black" points="440.85,-638.5 440.85,-659.5 490.85,-659.5 490.85,-638.5 440.85,-638.5"/>
<text text-anchor="middle" x="465.85" y="-645.9" font-family="DejaVuSans" font-size="12.00">print.h</text>
</a>
</g>
</g>
<!-- Node1&#45;&gt;Node19 -->
<g id="edge30" class="edge">
<title>Node1&#45;&gt;Node19</title>
<path fill="none" stroke="midnightblue" d="M331.04,-699.02C356.07,-689.92 400.3,-673.84 431.25,-662.58"/>
<polygon fill="midnightblue" stroke="midnightblue" points="432.59,-665.82 440.79,-659.11 430.2,-659.24 432.59,-665.82"/>
</g>
<!-- Node26 -->
<g id="node26" class="node">
<title>Node26</title>
<g id="a_node26"><a xlink:href="io_8h.html" target="_top" xlink:title=" ">
<polygon fill="white" stroke="black" points="736.85,-638.5 736.85,-659.5 772.85,-659.5 772.85,-638.5 736.85,-638.5"/>
<text text-anchor="middle" x="754.85" y="-645.9" font-family="DejaVuSans" font-size="12.00">io.h</text>
</a>
</g>
</g>
<!-- Node1&#45;&gt;Node26 -->
<g id="edge44" class="edge">
<title>Node1&#45;&gt;Node26</title>
<path fill="none" stroke="midnightblue" d="M330.9,-705.17C389.79,-702.31 573.89,-691.31 722.85,-660 724.13,-659.73 725.44,-659.43 726.75,-659.11"/>
<polygon fill="midnightblue" stroke="midnightblue" points="728.04,-662.38 736.74,-656.32 726.16,-655.64 728.04,-662.38"/>
</g>
<!-- Node27 -->
<g id="node27" class="node">
<title>Node27</title>
<g id="a_node27"><a xlink:href="str__pool__init_8h.html" target="_top" xlink:title=" ">
<polygon fill="white" stroke="black" points="791.35,-638.5 791.35,-659.5 882.35,-659.5 882.35,-638.5 791.35,-638.5"/>
<text text-anchor="middle" x="836.85" y="-645.9" font-family="DejaVuSans" font-size="12.00">str_pool_init.h</text>
</a>
</g>
</g>
<!-- Node1&#45;&gt;Node27 -->
<g id="edge45" class="edge">
<title>Node1&#45;&gt;Node27</title>
<path fill="none" stroke="midnightblue" d="M331.17,-704.68C394.25,-700.26 600.06,-684.88 781.3,-659.97"/>
<polygon fill="midnightblue" stroke="midnightblue" points="781.86,-663.43 791.28,-658.58 780.89,-656.49 781.86,-663.43"/>
</g>
<!-- Node4&#45;&gt;Node2 -->
<g id="edge5" class="edge">
<title>Node4&#45;&gt;Node2</title>
<path fill="none" stroke="midnightblue" d="M209.92,-58.25C221.21,-49.81 237.74,-37.47 250.88,-27.66"/>
<polygon fill="midnightblue" stroke="midnightblue" points="253.02,-30.43 258.94,-21.64 248.83,-24.82 253.02,-30.43"/>
</g>
<!-- Node5 -->
<g id="node5" class="node">
<title>Node5</title>
<g id="a_node5"><a xlink:title=" ">
<polygon fill="white" stroke="#bfbfbf" points="167.35,-0.5 167.35,-21.5 226.35,-21.5 226.35,-0.5 167.35,-0.5"/>
<text text-anchor="middle" x="196.85" y="-7.9" font-family="DejaVuSans" font-size="12.00">assert.h</text>
</a>
</g>
</g>
<!-- Node4&#45;&gt;Node5 -->
<g id="edge4" class="edge">
<title>Node4&#45;&gt;Node5</title>
<path fill="none" stroke="midnightblue" d="M196.85,-58.25C196.85,-50.94 196.85,-40.69 196.85,-31.7"/>
<polygon fill="midnightblue" stroke="midnightblue" points="200.35,-31.64 196.85,-21.64 193.35,-31.64 200.35,-31.64"/>
</g>
<!-- Node7 -->
<g id="node7" class="node">
<title>Node7</title>
<g id="a_node7"><a xlink:href="tex__types_8h.html" target="_top" xlink:title=" ">
<polygon fill="white" stroke="black" points="535.35,-58.5 535.35,-79.5 612.35,-79.5 612.35,-58.5 535.35,-58.5"/>
<text text-anchor="middle" x="573.85" y="-65.9" font-family="DejaVuSans" font-size="12.00">tex_types.h</text>
</a>
</g>
</g>
<!-- Node6&#45;&gt;Node7 -->
<g id="edge7" class="edge">
<title>Node6&#45;&gt;Node7</title>
<path fill="none" stroke="midnightblue" d="M516.76,-290.37C527.62,-282.05 542.12,-269.03 549.85,-254 577.65,-199.95 577.51,-125.63 575.51,-90.27"/>
<polygon fill="midnightblue" stroke="midnightblue" points="578.98,-89.6 574.8,-79.86 571.99,-90.08 578.98,-89.6"/>
</g>
<!-- Node10 -->
<g id="node10" class="node">
<title>Node10</title>
<g id="a_node10"><a xlink:href="tex__constant_8h.html" target="_top" xlink:title=" ">
<polygon fill="white" stroke="black" points="413.85,-232.5 413.85,-253.5 507.85,-253.5 507.85,-232.5 413.85,-232.5"/>
<text text-anchor="middle" x="460.85" y="-239.9" font-family="DejaVuSans" font-size="12.00">tex_constant.h</text>
</a>
</g>
</g>
<!-- Node6&#45;&gt;Node10 -->
<g id="edge10" class="edge">
<title>Node6&#45;&gt;Node10</title>
<path fill="none" stroke="midnightblue" d="M495.54,-290.25C489.63,-282.38 481.18,-271.1 474.09,-261.65"/>
<polygon fill="midnightblue" stroke="midnightblue" points="476.88,-259.54 468.08,-253.64 471.28,-263.74 476.88,-259.54"/>
</g>
<!-- Node8 -->
<g id="node8" class="node">
<title>Node8</title>
<g id="a_node8"><a xlink:title=" ">
<polygon fill="white" stroke="#bfbfbf" points="541.35,-0.5 541.35,-21.5 606.35,-21.5 606.35,-0.5 541.35,-0.5"/>
<text text-anchor="middle" x="573.85" y="-7.9" font-family="DejaVuSans" font-size="12.00">stdbool.h</text>
</a>
</g>
</g>
<!-- Node7&#45;&gt;Node8 -->
<g id="edge8" class="edge">
<title>Node7&#45;&gt;Node8</title>
<path fill="none" stroke="midnightblue" d="M573.85,-58.25C573.85,-50.94 573.85,-40.69 573.85,-31.7"/>
<polygon fill="midnightblue" stroke="midnightblue" points="577.35,-31.64 573.85,-21.64 570.35,-31.64 577.35,-31.64"/>
</g>
<!-- Node9 -->
<g id="node9" class="node">
<title>Node9</title>
<g id="a_node9"><a xlink:title=" ">
<polygon fill="white" stroke="#bfbfbf" points="413.35,-0.5 413.35,-21.5 468.35,-21.5 468.35,-0.5 413.35,-0.5"/>
<text text-anchor="middle" x="440.85" y="-7.9" font-family="DejaVuSans" font-size="12.00">stdint.h</text>
</a>
</g>
</g>
<!-- Node7&#45;&gt;Node9 -->
<g id="edge9" class="edge">
<title>Node7&#45;&gt;Node9</title>
<path fill="none" stroke="midnightblue" d="M550.99,-58.37C529.45,-49.3 496.97,-35.63 472.86,-25.48"/>
<polygon fill="midnightblue" stroke="midnightblue" points="473.99,-22.16 463.42,-21.5 471.28,-28.61 473.99,-22.16"/>
</g>
<!-- Node11 -->
<g id="node11" class="node">
<title>Node11</title>
<g id="a_node11"><a xlink:href="box_8h.html" target="_top" xlink:title=" ">
<polygon fill="white" stroke="black" points="427.85,-174.5 427.85,-195.5 473.85,-195.5 473.85,-174.5 427.85,-174.5"/>
<text text-anchor="middle" x="450.85" y="-181.9" font-family="DejaVuSans" font-size="12.00">box.h</text>
</a>
</g>
</g>
<!-- Node10&#45;&gt;Node11 -->
<g id="edge11" class="edge">
<title>Node10&#45;&gt;Node11</title>
<path fill="none" stroke="midnightblue" d="M459.11,-232.25C457.81,-224.94 455.98,-214.69 454.37,-205.7"/>
<polygon fill="midnightblue" stroke="midnightblue" points="457.78,-204.87 452.57,-195.64 450.89,-206.1 457.78,-204.87"/>
</g>
<!-- Node11&#45;&gt;Node12 -->
<g id="edge12" class="edge">
<title>Node11&#45;&gt;Node12</title>
<path fill="none" stroke="midnightblue" d="M429.02,-174.37C408.05,-165.12 376.21,-151.09 353.06,-140.88"/>
<polygon fill="midnightblue" stroke="midnightblue" points="354.29,-137.6 343.73,-136.76 351.47,-144 354.29,-137.6"/>
</g>
<!-- Node12&#45;&gt;Node2 -->
<g id="edge13" class="edge">
<title>Node12&#45;&gt;Node2</title>
<path fill="none" stroke="midnightblue" d="M319.42,-116.28C310.82,-97.43 291.75,-55.62 280.54,-31.05"/>
<polygon fill="midnightblue" stroke="midnightblue" points="283.61,-29.34 276.27,-21.69 277.24,-32.25 283.61,-29.34"/>
</g>
<!-- Node12&#45;&gt;Node4 -->
<g id="edge15" class="edge">
<title>Node12&#45;&gt;Node4</title>
<path fill="none" stroke="midnightblue" d="M304.29,-117.37C283.98,-108.42 251.93,-94.29 228.11,-83.78"/>
<polygon fill="midnightblue" stroke="midnightblue" points="229.35,-80.5 218.79,-79.67 226.52,-86.91 229.35,-80.5"/>
</g>
<!-- Node12&#45;&gt;Node7 -->
<g id="edge16" class="edge">
<title>Node12&#45;&gt;Node7</title>
<path fill="none" stroke="midnightblue" d="M343.47,-121.61C382.26,-112.92 469.81,-93.31 525.11,-80.92"/>
<polygon fill="midnightblue" stroke="midnightblue" points="526.05,-84.29 535.05,-78.69 524.52,-77.46 526.05,-84.29"/>
</g>
<!-- Node12&#45;&gt;Node9 -->
<g id="edge14" class="edge">
<title>Node12&#45;&gt;Node9</title>
<path fill="none" stroke="midnightblue" d="M333.83,-116.28C353.77,-96.85 398.78,-52.99 423.61,-28.8"/>
<polygon fill="midnightblue" stroke="midnightblue" points="426.18,-31.18 430.9,-21.69 421.3,-26.17 426.18,-31.18"/>
</g>
<!-- Node14&#45;&gt;Node12 -->
<g id="edge19" class="edge">
<title>Node14&#45;&gt;Node12</title>
<path fill="none" stroke="midnightblue" d="M242.42,-580.27C239.65,-560.61 233.85,-514.74 233.85,-476 233.85,-476 233.85,-476 233.85,-300 233.85,-239.91 250.56,-224.67 282.85,-174 289.48,-163.61 298.44,-153.26 306.3,-145.01"/>
<polygon fill="midnightblue" stroke="midnightblue" points="308.86,-147.4 313.38,-137.82 303.87,-142.49 308.86,-147.4"/>
</g>
<!-- Node16&#45;&gt;Node6 -->
<g id="edge22" class="edge">
<title>Node16&#45;&gt;Node6</title>
<path fill="none" stroke="midnightblue" d="M369.63,-348.63C397.93,-338.72 442.47,-323.13 472.16,-312.74"/>
<polygon fill="midnightblue" stroke="midnightblue" points="473.34,-316.04 481.62,-309.43 471.02,-309.43 473.34,-316.04"/>
</g>
<!-- Node16&#45;&gt;Node12 -->
<g id="edge23" class="edge">
<title>Node16&#45;&gt;Node12</title>
<path fill="none" stroke="midnightblue" d="M342.06,-348.41C339.2,-313.85 329.41,-195.24 325.49,-147.82"/>
<polygon fill="midnightblue" stroke="midnightblue" points="328.96,-147.31 324.65,-137.63 321.98,-147.89 328.96,-147.31"/>
</g>
<!-- Node17 -->
<g id="node17" class="node">
<title>Node17</title>
<g id="a_node17"><a xlink:href="fonts_8h.html" target="_top" xlink:title=" ">
<polygon fill="white" stroke="black" points="194.85,-116.5 194.85,-137.5 246.85,-137.5 246.85,-116.5 194.85,-116.5"/>
<text text-anchor="middle" x="220.85" y="-123.9" font-family="DejaVuSans" font-size="12.00">fonts.h</text>
</a>
</g>
</g>
<!-- Node16&#45;&gt;Node17 -->
<g id="edge24" class="edge">
<title>Node16&#45;&gt;Node17</title>
<path fill="none" stroke="midnightblue" d="M337.77,-348.41C319.28,-313.56 255.45,-193.23 230.74,-146.63"/>
<polygon fill="midnightblue" stroke="midnightblue" points="233.74,-144.82 225.96,-137.63 227.55,-148.11 233.74,-144.82"/>
</g>
<!-- Node18 -->
<g id="node18" class="node">
<title>Node18</title>
<g id="a_node18"><a xlink:href="eqtb_8h.html" target="_top" xlink:title=" ">
<polygon fill="white" stroke="black" points="413.85,-290.5 413.85,-311.5 463.85,-311.5 463.85,-290.5 413.85,-290.5"/>
<text text-anchor="middle" x="438.85" y="-297.9" font-family="DejaVuSans" font-size="12.00">eqtb.h</text>
</a>
</g>
</g>
<!-- Node16&#45;&gt;Node18 -->
<g id="edge27" class="edge">
<title>Node16&#45;&gt;Node18</title>
<path fill="none" stroke="midnightblue" d="M359.57,-348.25C374.44,-339.57 396.4,-326.76 413.44,-316.82"/>
<polygon fill="midnightblue" stroke="midnightblue" points="415.45,-319.7 422.32,-311.64 411.92,-313.66 415.45,-319.7"/>
</g>
<!-- Node17&#45;&gt;Node2 -->
<g id="edge25" class="edge">
<title>Node17&#45;&gt;Node2</title>
<path fill="none" stroke="midnightblue" d="M228.69,-116.3C235.6,-107.34 245.54,-93.42 251.85,-80 259.21,-64.36 264.51,-45.41 267.8,-31.49"/>
<polygon fill="midnightblue" stroke="midnightblue" points="271.25,-32.09 270.01,-21.57 264.42,-30.57 271.25,-32.09"/>
</g>
<!-- Node17&#45;&gt;Node4 -->
<g id="edge26" class="edge">
<title>Node17&#45;&gt;Node4</title>
<path fill="none" stroke="midnightblue" d="M216.67,-116.25C213.47,-108.78 208.96,-98.24 205.04,-89.11"/>
<polygon fill="midnightblue" stroke="midnightblue" points="208.14,-87.46 200.98,-79.64 201.71,-90.21 208.14,-87.46"/>
</g>
<!-- Node18&#45;&gt;Node7 -->
<g id="edge28" class="edge">
<title>Node18&#45;&gt;Node7</title>
<path fill="none" stroke="midnightblue" d="M463.97,-290.86C481.15,-283.4 503.2,-271.26 516.85,-254 556.54,-203.82 568.74,-125.89 572.37,-89.7"/>
<polygon fill="midnightblue" stroke="midnightblue" points="575.88,-89.78 573.28,-79.51 568.91,-89.16 575.88,-89.78"/>
</g>
<!-- Node18&#45;&gt;Node10 -->
<g id="edge29" class="edge">
<title>Node18&#45;&gt;Node10</title>
<path fill="none" stroke="midnightblue" d="M442.68,-290.25C445.62,-282.78 449.76,-272.24 453.34,-263.11"/>
<polygon fill="midnightblue" stroke="midnightblue" points="456.66,-264.23 457.06,-253.64 450.15,-261.67 456.66,-264.23"/>
</g>
<!-- Node19&#45;&gt;Node6 -->
<g id="edge32" class="edge">
<title>Node19&#45;&gt;Node6</title>
<path fill="none" stroke="midnightblue" d="M462.84,-638.35C457.04,-618.85 444.85,-573.24 444.85,-534 444.85,-534 444.85,-534 444.85,-474 444.85,-415.42 475.43,-351.23 492.18,-320.46"/>
<polygon fill="midnightblue" stroke="midnightblue" points="495.26,-322.13 497.08,-311.69 489.15,-318.72 495.26,-322.13"/>
</g>
<!-- Node19&#45;&gt;Node7 -->
<g id="edge31" class="edge">
<title>Node19&#45;&gt;Node7</title>
<path fill="none" stroke="midnightblue" d="M491.2,-641.06C513.82,-633.96 546.97,-621.21 570.85,-602 674.48,-518.64 746.85,-492.99 746.85,-360 746.85,-360 746.85,-360 746.85,-184 746.85,-124.14 673.75,-93.94 622.59,-80.12"/>
<polygon fill="midnightblue" stroke="midnightblue" points="623.23,-76.67 612.68,-77.57 621.49,-83.45 623.23,-76.67"/>
</g>
<!-- Node19&#45;&gt;Node12 -->
<g id="edge43" class="edge">
<title>Node19&#45;&gt;Node12</title>
<path fill="none" stroke="midnightblue" d="M457.62,-638.28C429.44,-604.26 336.99,-486.32 307.85,-370 287.66,-289.39 308.11,-189.24 318.54,-147.59"/>
<polygon fill="midnightblue" stroke="midnightblue" points="321.94,-148.43 321.06,-137.88 315.16,-146.68 321.94,-148.43"/>
</g>
<!-- Node20 -->
<g id="node20" class="node">
<title>Node20</title>
<g id="a_node20"><a xlink:href="texmac_8h.html" target="_top" xlink:title=" ">
<polygon fill="white" stroke="black" points="496.35,-580.5 496.35,-601.5 561.35,-601.5 561.35,-580.5 496.35,-580.5"/>
<text text-anchor="middle" x="528.85" y="-587.9" font-family="DejaVuSans" font-size="12.00">texmac.h</text>
</a>
</g>
</g>
<!-- Node19&#45;&gt;Node20 -->
<g id="edge33" class="edge">
<title>Node19&#45;&gt;Node20</title>
<path fill="none" stroke="midnightblue" d="M476.83,-638.25C486.04,-630.05 499.41,-618.17 510.28,-608.51"/>
<polygon fill="midnightblue" stroke="midnightblue" points="512.86,-610.9 518,-601.64 508.2,-605.67 512.86,-610.9"/>
</g>
<!-- Node21 -->
<g id="node21" class="node">
<title>Node21</title>
<g id="a_node21"><a xlink:href="mem_8h.html" target="_top" xlink:title=" ">
<polygon fill="white" stroke="black" points="526.35,-522.5 526.35,-543.5 579.35,-543.5 579.35,-522.5 526.35,-522.5"/>
<text text-anchor="middle" x="552.85" y="-529.9" font-family="DejaVuSans" font-size="12.00">mem.h</text>
</a>
</g>
</g>
<!-- Node20&#45;&gt;Node21 -->
<g id="edge34" class="edge">
<title>Node20&#45;&gt;Node21</title>
<path fill="none" stroke="midnightblue" d="M533.03,-580.25C536.23,-572.78 540.75,-562.24 544.66,-553.11"/>
<polygon fill="midnightblue" stroke="midnightblue" points="548,-554.21 548.72,-543.64 541.56,-551.46 548,-554.21"/>
</g>
<!-- Node21&#45;&gt;Node7 -->
<g id="edge35" class="edge">
<title>Node21&#45;&gt;Node7</title>
<path fill="none" stroke="midnightblue" d="M565.53,-522.24C586.61,-505.34 628.83,-468.53 651.85,-428 667.35,-400.72 670.85,-391.38 670.85,-360 670.85,-360 670.85,-360 670.85,-184 670.85,-139.92 628.26,-104.2 599.52,-85.12"/>
<polygon fill="midnightblue" stroke="midnightblue" points="601.06,-81.95 590.75,-79.52 597.29,-87.85 601.06,-81.95"/>
</g>
<!-- Node22 -->
<g id="node22" class="node">
<title>Node22</title>
<g id="a_node22"><a xlink:href="global_8h.html" target="_top" xlink:title=" ">
<polygon fill="white" stroke="black" points="523.85,-464.5 523.85,-485.5 581.85,-485.5 581.85,-464.5 523.85,-464.5"/>
<text text-anchor="middle" x="552.85" y="-471.9" font-family="DejaVuSans" font-size="12.00">global.h</text>
</a>
</g>
</g>
<!-- Node21&#45;&gt;Node22 -->
<g id="edge36" class="edge">
<title>Node21&#45;&gt;Node22</title>
<path fill="none" stroke="midnightblue" d="M552.85,-522.25C552.85,-514.94 552.85,-504.69 552.85,-495.7"/>
<polygon fill="midnightblue" stroke="midnightblue" points="556.35,-495.64 552.85,-485.64 549.35,-495.64 556.35,-495.64"/>
</g>
<!-- Node22&#45;&gt;Node12 -->
<g id="edge38" class="edge">
<title>Node22&#45;&gt;Node12</title>
<path fill="none" stroke="midnightblue" d="M554.32,-464.27C560.16,-421.3 577.2,-247.39 482.85,-174 444.78,-144.39 388.29,-133.83 353.89,-130.07"/>
<polygon fill="midnightblue" stroke="midnightblue" points="353.84,-126.55 343.55,-129.08 353.17,-133.52 353.84,-126.55"/>
</g>
<!-- Node23 -->
<g id="node23" class="node">
<title>Node23</title>
<g id="a_node23"><a xlink:title=" ">
<polygon fill="white" stroke="#bfbfbf" points="580.85,-406.5 580.85,-427.5 642.85,-427.5 642.85,-406.5 580.85,-406.5"/>
<text text-anchor="middle" x="611.85" y="-413.9" font-family="DejaVuSans" font-size="12.00">setjmp.h</text>
</a>
</g>
</g>
<!-- Node22&#45;&gt;Node23 -->
<g id="edge37" class="edge">
<title>Node22&#45;&gt;Node23</title>
<path fill="none" stroke="midnightblue" d="M563.13,-464.25C571.67,-456.14 584.03,-444.41 594.16,-434.79"/>
<polygon fill="midnightblue" stroke="midnightblue" points="596.85,-437.07 601.69,-427.64 592.03,-431.99 596.85,-437.07"/>
</g>
<!-- Node24 -->
<g id="node24" class="node">
<title>Node24</title>
<g id="a_node24"><a xlink:href="scan_8h.html" target="_top" xlink:title=" ">
<polygon fill="white" stroke="black" points="472.85,-406.5 472.85,-427.5 524.85,-427.5 524.85,-406.5 472.85,-406.5"/>
<text text-anchor="middle" x="498.85" y="-413.9" font-family="DejaVuSans" font-size="12.00">scan.h</text>
</a>
</g>
</g>
<!-- Node22&#45;&gt;Node24 -->
<g id="edge39" class="edge">
<title>Node22&#45;&gt;Node24</title>
<path fill="none" stroke="midnightblue" d="M543.45,-464.25C535.7,-456.22 524.54,-444.64 515.32,-435.08"/>
<polygon fill="midnightblue" stroke="midnightblue" points="517.61,-432.41 508.15,-427.64 512.57,-437.27 517.61,-432.41"/>
</g>
<!-- Node25 -->
<g id="node25" class="node">
<title>Node25</title>
<g id="a_node25"><a xlink:href="lexer_8h.html" target="_top" xlink:title=" ">
<polygon fill="white" stroke="black" points="387.85,-348.5 387.85,-369.5 439.85,-369.5 439.85,-348.5 387.85,-348.5"/>
<text text-anchor="middle" x="413.85" y="-355.9" font-family="DejaVuSans" font-size="12.00">lexer.h</text>
</a>
</g>
</g>
<!-- Node24&#45;&gt;Node25 -->
<g id="edge40" class="edge">
<title>Node24&#45;&gt;Node25</title>
<path fill="none" stroke="midnightblue" d="M484.05,-406.25C471.13,-397.73 452.16,-385.24 437.2,-375.38"/>
<polygon fill="midnightblue" stroke="midnightblue" points="438.76,-372.22 428.49,-369.64 434.91,-378.07 438.76,-372.22"/>
</g>
<!-- Node25&#45;&gt;Node2 -->
<g id="edge41" class="edge">
<title>Node25&#45;&gt;Node2</title>
<path fill="none" stroke="midnightblue" d="M409.84,-348.44C402.1,-329.08 385.85,-283.74 385.85,-244 385.85,-244 385.85,-244 385.85,-126 385.85,-78.8 336.38,-44.31 302.62,-26.27"/>
<polygon fill="midnightblue" stroke="midnightblue" points="304.06,-23.08 293.56,-21.63 300.86,-29.31 304.06,-23.08"/>
</g>
<!-- Node25&#45;&gt;Node6 -->
<g id="edge42" class="edge">
<title>Node25&#45;&gt;Node6</title>
<path fill="none" stroke="midnightblue" d="M429.35,-348.25C443.01,-339.65 463.12,-327 478.85,-317.1"/>
<polygon fill="midnightblue" stroke="midnightblue" points="480.93,-319.93 487.53,-311.64 477.2,-314.01 480.93,-319.93"/>
</g>
</g>
</svg>
