<?xml version="1.0" encoding="UTF-8" standalone="no"?>
<!DOCTYPE svg PUBLIC "-//W3C//DTD SVG 1.1//EN"
 "http://www.w3.org/Graphics/SVG/1.1/DTD/svg11.dtd">
<!-- Generated by graphviz version 2.44.0 ()
 -->
<!-- Title: str.h Pages: 1 -->
<svg width="315pt" height="204pt"
 viewBox="0.00 0.00 314.50 204.00" xmlns="http://www.w3.org/2000/svg" xmlns:xlink="http://www.w3.org/1999/xlink">
<g id="graph0" class="graph" transform="scale(1 1) rotate(0) translate(4 200)">
<title>str.h</title>
<polygon fill="white" stroke="transparent" points="-4,4 -4,-200 310.5,-200 310.5,4 -4,4"/>
<!-- Node1 -->
<g id="node1" class="node">
<title>Node1</title>
<g id="a_node1"><a xlink:title=" ">
<polygon fill="#bfbfbf" stroke="black" points="155.5,-174.5 155.5,-195.5 194.5,-195.5 194.5,-174.5 155.5,-174.5"/>
<text text-anchor="middle" x="175" y="-181.9" font-family="DejaVuSans" font-size="12.00">str.h</text>
</a>
</g>
</g>
<!-- Node2 -->
<g id="node2" class="node">
<title>Node2</title>
<g id="a_node2"><a xlink:title=" ">
<polygon fill="white" stroke="#bfbfbf" points="0,-58.5 0,-79.5 52,-79.5 52,-58.5 0,-58.5"/>
<text text-anchor="middle" x="26" y="-65.9" font-family="DejaVuSans" font-size="12.00">stdio.h</text>
</a>
</g>
</g>
<!-- Node1&#45;&gt;Node2 -->
<g id="edge1" class="edge">
<title>Node1&#45;&gt;Node2</title>
<path fill="none" stroke="midnightblue" d="M155.48,-182.72C126.84,-179.77 73.61,-170.04 44,-138 31.98,-124.99 27.8,-104.9 26.44,-89.92"/>
<polygon fill="midnightblue" stroke="midnightblue" points="29.92,-89.46 25.86,-79.67 22.93,-89.85 29.92,-89.46"/>
</g>
<!-- Node3 -->
<g id="node3" class="node">
<title>Node3</title>
<g id="a_node3"><a xlink:title=" ">
<polygon fill="white" stroke="#bfbfbf" points="147.5,-0.5 147.5,-21.5 202.5,-21.5 202.5,-0.5 147.5,-0.5"/>
<text text-anchor="middle" x="175" y="-7.9" font-family="DejaVuSans" font-size="12.00">stdint.h</text>
</a>
</g>
</g>
<!-- Node1&#45;&gt;Node3 -->
<g id="edge2" class="edge">
<title>Node1&#45;&gt;Node3</title>
<path fill="none" stroke="midnightblue" d="M175,-174.26C175,-146.82 175,-68.51 175,-31.64"/>
<polygon fill="midnightblue" stroke="midnightblue" points="178.5,-31.63 175,-21.63 171.5,-31.63 178.5,-31.63"/>
</g>
<!-- Node4 -->
<g id="node4" class="node">
<title>Node4</title>
<g id="a_node4"><a xlink:href="global__const_8h.html" target="_top" xlink:title=" ">
<polygon fill="white" stroke="black" points="53.5,-116.5 53.5,-137.5 146.5,-137.5 146.5,-116.5 53.5,-116.5"/>
<text text-anchor="middle" x="100" y="-123.9" font-family="DejaVuSans" font-size="12.00">global_const.h</text>
</a>
</g>
</g>
<!-- Node1&#45;&gt;Node4 -->
<g id="edge3" class="edge">
<title>Node1&#45;&gt;Node4</title>
<path fill="none" stroke="midnightblue" d="M161.94,-174.25C150.64,-165.81 134.12,-153.47 120.97,-143.66"/>
<polygon fill="midnightblue" stroke="midnightblue" points="123.02,-140.82 112.91,-137.64 118.83,-146.43 123.02,-140.82"/>
</g>
<!-- Node6 -->
<g id="node6" class="node">
<title>Node6</title>
<g id="a_node6"><a xlink:href="charset_8h.html" target="_top" xlink:title=" ">
<polygon fill="white" stroke="black" points="241.5,-116.5 241.5,-137.5 306.5,-137.5 306.5,-116.5 241.5,-116.5"/>
<text text-anchor="middle" x="274" y="-123.9" font-family="DejaVuSans" font-size="12.00">charset.h</text>
</a>
</g>
</g>
<!-- Node1&#45;&gt;Node6 -->
<g id="edge6" class="edge">
<title>Node1&#45;&gt;Node6</title>
<path fill="none" stroke="midnightblue" d="M192.24,-174.25C207.58,-165.57 230.22,-152.76 247.79,-142.82"/>
<polygon fill="midnightblue" stroke="midnightblue" points="249.97,-145.61 256.95,-137.64 246.53,-139.52 249.97,-145.61"/>
</g>
<!-- Node7 -->
<g id="node7" class="node">
<title>Node7</title>
<g id="a_node7"><a xlink:href="tex__types_8h.html" target="_top" xlink:title=" ">
<polygon fill="white" stroke="black" points="208.5,-58.5 208.5,-79.5 285.5,-79.5 285.5,-58.5 208.5,-58.5"/>
<text text-anchor="middle" x="247" y="-65.9" font-family="DejaVuSans" font-size="12.00">tex_types.h</text>
</a>
</g>
</g>
<!-- Node1&#45;&gt;Node7 -->
<g id="edge10" class="edge">
<title>Node1&#45;&gt;Node7</title>
<path fill="none" stroke="midnightblue" d="M181.14,-174.28C193.15,-155.27 219.92,-112.88 235.38,-88.4"/>
<polygon fill="midnightblue" stroke="midnightblue" points="238.5,-90.02 240.88,-79.69 232.58,-86.28 238.5,-90.02"/>
</g>
<!-- Node4&#45;&gt;Node2 -->
<g id="edge5" class="edge">
<title>Node4&#45;&gt;Node2</title>
<path fill="none" stroke="midnightblue" d="M87.11,-116.25C76.07,-107.89 59.97,-95.71 47.06,-85.94"/>
<polygon fill="midnightblue" stroke="midnightblue" points="48.83,-82.89 38.74,-79.64 44.6,-88.47 48.83,-82.89"/>
</g>
<!-- Node5 -->
<g id="node5" class="node">
<title>Node5</title>
<g id="a_node5"><a xlink:title=" ">
<polygon fill="white" stroke="#bfbfbf" points="70.5,-58.5 70.5,-79.5 129.5,-79.5 129.5,-58.5 70.5,-58.5"/>
<text text-anchor="middle" x="100" y="-65.9" font-family="DejaVuSans" font-size="12.00">assert.h</text>
</a>
</g>
</g>
<!-- Node4&#45;&gt;Node5 -->
<g id="edge4" class="edge">
<title>Node4&#45;&gt;Node5</title>
<path fill="none" stroke="midnightblue" d="M100,-116.25C100,-108.94 100,-98.69 100,-89.7"/>
<polygon fill="midnightblue" stroke="midnightblue" points="103.5,-89.64 100,-79.64 96.5,-89.64 103.5,-89.64"/>
</g>
<!-- Node6&#45;&gt;Node7 -->
<g id="edge7" class="edge">
<title>Node6&#45;&gt;Node7</title>
<path fill="none" stroke="midnightblue" d="M269.3,-116.25C265.66,-108.7 260.51,-98.02 256.07,-88.82"/>
<polygon fill="midnightblue" stroke="midnightblue" points="259.14,-87.13 251.65,-79.64 252.84,-90.17 259.14,-87.13"/>
</g>
<!-- Node7&#45;&gt;Node3 -->
<g id="edge9" class="edge">
<title>Node7&#45;&gt;Node3</title>
<path fill="none" stroke="midnightblue" d="M234.46,-58.25C223.72,-49.89 208.05,-37.71 195.5,-27.94"/>
<polygon fill="midnightblue" stroke="midnightblue" points="197.44,-25.02 187.4,-21.64 193.14,-30.54 197.44,-25.02"/>
</g>
<!-- Node8 -->
<g id="node8" class="node">
<title>Node8</title>
<g id="a_node8"><a xlink:title=" ">
<polygon fill="white" stroke="#bfbfbf" points="220.5,-0.5 220.5,-21.5 285.5,-21.5 285.5,-0.5 220.5,-0.5"/>
<text text-anchor="middle" x="253" y="-7.9" font-family="DejaVuSans" font-size="12.00">stdbool.h</text>
</a>
</g>
</g>
<!-- Node7&#45;&gt;Node8 -->
<g id="edge8" class="edge">
<title>Node7&#45;&gt;Node8</title>
<path fill="none" stroke="midnightblue" d="M248.05,-58.25C248.83,-50.94 249.93,-40.69 250.89,-31.7"/>
<polygon fill="midnightblue" stroke="midnightblue" points="254.38,-31.96 251.97,-21.64 247.42,-31.21 254.38,-31.96"/>
</g>
</g>
</svg>
