<?xml version="1.0" encoding="UTF-8" standalone="no"?>
<!DOCTYPE svg PUBLIC "-//W3C//DTD SVG 1.1//EN"
 "http://www.w3.org/Graphics/SVG/1.1/DTD/svg11.dtd">
<!-- Generated by graphviz version 2.42.3 ()
 -->
<!-- Title: str.h Pages: 1 -->
<svg width="760pt" height="204pt"
 viewBox="0.00 0.00 760.00 204.00" xmlns="http://www.w3.org/2000/svg" xmlns:xlink="http://www.w3.org/1999/xlink">
<g id="graph0" class="graph" transform="scale(1 1) rotate(0) translate(4 200)">
<title>str.h</title>
<polygon fill="white" stroke="transparent" points="-4,4 -4,-200 756,-200 756,4 -4,4"/>
<!-- Node1 -->
<g id="node1" class="node">
<title>Node1</title>
<g id="a_node1"><a xlink:title=" ">
<polygon fill="#bfbfbf" stroke="black" points="403.5,-174.5 403.5,-195.5 442.5,-195.5 442.5,-174.5 403.5,-174.5"/>
<text text-anchor="middle" x="423" y="-181.9" font-family="DejaVuSans" font-size="12.00">str.h</text>
</a>
</g>
</g>
<!-- Node2 -->
<g id="node2" class="node">
<title>Node2</title>
<g id="a_node2"><a xlink:href="dviout_8c.html" target="_top" xlink:title=" ">
<polygon fill="white" stroke="black" points="103,-116.5 103,-137.5 161,-137.5 161,-116.5 103,-116.5"/>
<text text-anchor="middle" x="132" y="-123.9" font-family="DejaVuSans" font-size="12.00">dviout.c</text>
</a>
</g>
</g>
<!-- Node1&#45;&gt;Node2 -->
<g id="edge1" class="edge">
<title>Node1&#45;&gt;Node2</title>
<path fill="none" stroke="midnightblue" d="M393.31,-178.94C346.7,-170.89 253.54,-154.41 175,-138 170.5,-137.06 165.74,-136.01 161.1,-134.96"/>
<polygon fill="midnightblue" stroke="midnightblue" points="392.88,-182.42 403.33,-180.66 394.07,-175.52 392.88,-182.42"/>
</g>
<!-- Node3 -->
<g id="node3" class="node">
<title>Node3</title>
<g id="a_node3"><a xlink:href="global_8h.html" target="_top" xlink:title=" ">
<polygon fill="white" stroke="black" points="217,-116.5 217,-137.5 275,-137.5 275,-116.5 217,-116.5"/>
<text text-anchor="middle" x="246" y="-123.9" font-family="DejaVuSans" font-size="12.00">global.h</text>
</a>
</g>
</g>
<!-- Node1&#45;&gt;Node3 -->
<g id="edge2" class="edge">
<title>Node1&#45;&gt;Node3</title>
<path fill="none" stroke="midnightblue" d="M393.46,-174.65C360.58,-164.25 307.78,-147.54 275.08,-137.2"/>
<polygon fill="midnightblue" stroke="midnightblue" points="392.79,-178.11 403.38,-177.79 394.9,-171.44 392.79,-178.11"/>
</g>
<!-- Node5 -->
<g id="node5" class="node">
<title>Node5</title>
<g id="a_node5"><a xlink:href="funcs_8c.html" target="_top" xlink:title=" ">
<polygon fill="white" stroke="black" points="0,-58.5 0,-79.5 54,-79.5 54,-58.5 0,-58.5"/>
<text text-anchor="middle" x="27" y="-65.9" font-family="DejaVuSans" font-size="12.00">funcs.c</text>
</a>
</g>
</g>
<!-- Node1&#45;&gt;Node5 -->
<g id="edge25" class="edge">
<title>Node1&#45;&gt;Node5</title>
<path fill="none" stroke="midnightblue" d="M393.27,-180.64C350.99,-175.19 271.57,-162.49 208,-138 189.79,-130.98 187.83,-123.92 170,-116 149.03,-106.68 89.3,-88.44 54.02,-77.94"/>
<polygon fill="midnightblue" stroke="midnightblue" points="393.08,-184.14 403.44,-181.9 393.94,-177.19 393.08,-184.14"/>
</g>
<!-- Node9 -->
<g id="node9" class="node">
<title>Node9</title>
<g id="a_node9"><a xlink:href="tex__header_8h.html" target="_top" xlink:title=" ">
<polygon fill="white" stroke="black" points="371,-58.5 371,-79.5 457,-79.5 457,-58.5 371,-58.5"/>
<text text-anchor="middle" x="414" y="-65.9" font-family="DejaVuSans" font-size="12.00">tex_header.h</text>
</a>
</g>
</g>
<!-- Node1&#45;&gt;Node9 -->
<g id="edge29" class="edge">
<title>Node1&#45;&gt;Node9</title>
<path fill="none" stroke="midnightblue" d="M417.74,-164.28C415.84,-156.2 413.94,-146.72 413,-138 410.78,-117.34 412.09,-92.95 413.12,-79.72"/>
<polygon fill="midnightblue" stroke="midnightblue" points="414.41,-165.38 420.24,-174.23 421.2,-163.68 414.41,-165.38"/>
</g>
<!-- Node11 -->
<g id="node11" class="node">
<title>Node11</title>
<g id="a_node11"><a xlink:href="texfunc_8h.html" target="_top" xlink:title=" ">
<polygon fill="white" stroke="black" points="421.5,-116.5 421.5,-137.5 486.5,-137.5 486.5,-116.5 421.5,-116.5"/>
<text text-anchor="middle" x="454" y="-123.9" font-family="DejaVuSans" font-size="12.00">texfunc.h</text>
</a>
</g>
</g>
<!-- Node1&#45;&gt;Node11 -->
<g id="edge10" class="edge">
<title>Node1&#45;&gt;Node11</title>
<path fill="none" stroke="midnightblue" d="M433.33,-165.34C438.47,-156.06 444.46,-145.24 448.66,-137.64"/>
<polygon fill="midnightblue" stroke="midnightblue" points="430.18,-163.8 428.4,-174.25 436.31,-167.19 430.18,-163.8"/>
</g>
<!-- Node12 -->
<g id="node12" class="node">
<title>Node12</title>
<g id="a_node12"><a xlink:href="fonts_8c.html" target="_top" xlink:title=" ">
<polygon fill="white" stroke="black" points="561.5,-58.5 561.5,-79.5 612.5,-79.5 612.5,-58.5 561.5,-58.5"/>
<text text-anchor="middle" x="587" y="-65.9" font-family="DejaVuSans" font-size="12.00">fonts.c</text>
</a>
</g>
</g>
<!-- Node1&#45;&gt;Node12 -->
<g id="edge24" class="edge">
<title>Node1&#45;&gt;Node12</title>
<path fill="none" stroke="midnightblue" d="M447.66,-169.14C461.96,-160.35 480.2,-148.86 496,-138 524.93,-118.12 557.63,-93.01 574.86,-79.55"/>
<polygon fill="midnightblue" stroke="midnightblue" points="445.61,-166.29 438.9,-174.48 449.26,-172.26 445.61,-166.29"/>
</g>
<!-- Node13 -->
<g id="node13" class="node">
<title>Node13</title>
<g id="a_node13"><a xlink:href="printout_8c.html" target="_top" xlink:title=" ">
<polygon fill="white" stroke="black" points="630.5,-58.5 630.5,-79.5 695.5,-79.5 695.5,-58.5 630.5,-58.5"/>
<text text-anchor="middle" x="663" y="-65.9" font-family="DejaVuSans" font-size="12.00">printout.c</text>
</a>
</g>
</g>
<!-- Node1&#45;&gt;Node13 -->
<g id="edge27" class="edge">
<title>Node1&#45;&gt;Node13</title>
<path fill="none" stroke="midnightblue" d="M452.04,-171.22C472.52,-162.13 500.54,-149.54 525,-138 567.76,-117.83 617.36,-93.05 643.9,-79.67"/>
<polygon fill="midnightblue" stroke="midnightblue" points="450.37,-168.13 442.65,-175.38 453.21,-174.53 450.37,-168.13"/>
</g>
<!-- Node14 -->
<g id="node14" class="node">
<title>Node14</title>
<g id="a_node14"><a xlink:href="str_8c.html" target="_top" xlink:title=" ">
<polygon fill="white" stroke="black" points="714,-58.5 714,-79.5 752,-79.5 752,-58.5 714,-58.5"/>
<text text-anchor="middle" x="733" y="-65.9" font-family="DejaVuSans" font-size="12.00">str.c</text>
</a>
</g>
</g>
<!-- Node1&#45;&gt;Node14 -->
<g id="edge28" class="edge">
<title>Node1&#45;&gt;Node14</title>
<path fill="none" stroke="midnightblue" d="M452.37,-174.76C480.07,-165.88 522.64,-151.82 559,-138 582.46,-129.08 587.7,-125.32 611,-116 647.15,-101.54 689.8,-85.75 713.89,-76.94"/>
<polygon fill="midnightblue" stroke="midnightblue" points="450.99,-171.53 442.53,-177.9 453.12,-178.2 450.99,-171.53"/>
</g>
<!-- Node16 -->
<g id="node16" class="node">
<title>Node16</title>
<g id="a_node16"><a xlink:href="print_8h.html" target="_top" xlink:title=" ">
<polygon fill="white" stroke="black" points="295,-116.5 295,-137.5 345,-137.5 345,-116.5 295,-116.5"/>
<text text-anchor="middle" x="320" y="-123.9" font-family="DejaVuSans" font-size="12.00">print.h</text>
</a>
</g>
</g>
<!-- Node1&#45;&gt;Node16 -->
<g id="edge19" class="edge">
<title>Node1&#45;&gt;Node16</title>
<path fill="none" stroke="midnightblue" d="M396.26,-169.46C377.82,-159.44 353.84,-146.4 337.74,-137.64"/>
<polygon fill="midnightblue" stroke="midnightblue" points="394.6,-172.54 405.06,-174.25 397.95,-166.39 394.6,-172.54"/>
</g>
<!-- Node17 -->
<g id="node17" class="node">
<title>Node17</title>
<g id="a_node17"><a xlink:href="inipool_8c.html" target="_top" xlink:title=" ">
<polygon fill="white" stroke="black" points="619.5,-116.5 619.5,-137.5 680.5,-137.5 680.5,-116.5 619.5,-116.5"/>
<text text-anchor="middle" x="650" y="-123.9" font-family="DejaVuSans" font-size="12.00">inipool.c</text>
</a>
</g>
</g>
<!-- Node1&#45;&gt;Node17 -->
<g id="edge26" class="edge">
<title>Node1&#45;&gt;Node17</title>
<path fill="none" stroke="midnightblue" d="M452.65,-176.69C495.86,-166.03 575.75,-146.32 619.46,-135.53"/>
<polygon fill="midnightblue" stroke="midnightblue" points="451.62,-173.33 442.75,-179.13 453.29,-180.13 451.62,-173.33"/>
</g>
<!-- Node4 -->
<g id="node4" class="node">
<title>Node4</title>
<g id="a_node4"><a xlink:href="expand_8c.html" target="_top" xlink:title=" ">
<polygon fill="white" stroke="black" points="287.5,-58.5 287.5,-79.5 352.5,-79.5 352.5,-58.5 287.5,-58.5"/>
<text text-anchor="middle" x="320" y="-65.9" font-family="DejaVuSans" font-size="12.00">expand.c</text>
</a>
</g>
</g>
<!-- Node3&#45;&gt;Node4 -->
<g id="edge3" class="edge">
<title>Node3&#45;&gt;Node4</title>
<path fill="none" stroke="midnightblue" d="M266.87,-110.21C279.86,-100.37 296.16,-88.04 307.26,-79.64"/>
<polygon fill="midnightblue" stroke="midnightblue" points="264.75,-107.42 258.89,-116.25 268.98,-113 264.75,-107.42"/>
</g>
<!-- Node3&#45;&gt;Node5 -->
<g id="edge4" class="edge">
<title>Node3&#45;&gt;Node5</title>
<path fill="none" stroke="midnightblue" d="M206.88,-116.46C169.78,-107.35 112.5,-93.09 63,-80 60.12,-79.24 57.11,-78.43 54.11,-77.61"/>
<polygon fill="midnightblue" stroke="midnightblue" points="206.24,-119.91 216.78,-118.89 207.91,-113.11 206.24,-119.91"/>
</g>
<!-- Node6 -->
<g id="node6" class="node">
<title>Node6</title>
<g id="a_node6"><a xlink:href="inputln_8c.html" target="_top" xlink:title=" ">
<polygon fill="white" stroke="black" points="139.5,-58.5 139.5,-79.5 200.5,-79.5 200.5,-58.5 139.5,-58.5"/>
<text text-anchor="middle" x="170" y="-65.9" font-family="DejaVuSans" font-size="12.00">inputln.c</text>
</a>
</g>
</g>
<!-- Node3&#45;&gt;Node6 -->
<g id="edge5" class="edge">
<title>Node3&#45;&gt;Node6</title>
<path fill="none" stroke="midnightblue" d="M224.57,-110.21C211.22,-100.37 194.48,-88.04 183.09,-79.64"/>
<polygon fill="midnightblue" stroke="midnightblue" points="222.64,-113.13 232.76,-116.25 226.79,-107.5 222.64,-113.13"/>
</g>
<!-- Node7 -->
<g id="node7" class="node">
<title>Node7</title>
<g id="a_node7"><a xlink:href="lexer_8c.html" target="_top" xlink:title=" ">
<polygon fill="white" stroke="black" points="218.5,-58.5 218.5,-79.5 269.5,-79.5 269.5,-58.5 218.5,-58.5"/>
<text text-anchor="middle" x="244" y="-65.9" font-family="DejaVuSans" font-size="12.00">lexer.c</text>
</a>
</g>
</g>
<!-- Node3&#45;&gt;Node7 -->
<g id="edge6" class="edge">
<title>Node3&#45;&gt;Node7</title>
<path fill="none" stroke="midnightblue" d="M245.29,-106.16C244.97,-97.16 244.6,-86.92 244.34,-79.64"/>
<polygon fill="midnightblue" stroke="midnightblue" points="241.8,-106.38 245.65,-116.25 248.79,-106.13 241.8,-106.38"/>
</g>
<!-- Node8 -->
<g id="node8" class="node">
<title>Node8</title>
<g id="a_node8"><a xlink:href="print_8c.html" target="_top" xlink:title=" ">
<polygon fill="white" stroke="black" points="72.5,-58.5 72.5,-79.5 121.5,-79.5 121.5,-58.5 72.5,-58.5"/>
<text text-anchor="middle" x="97" y="-65.9" font-family="DejaVuSans" font-size="12.00">print.c</text>
</a>
</g>
</g>
<!-- Node3&#45;&gt;Node8 -->
<g id="edge7" class="edge">
<title>Node3&#45;&gt;Node8</title>
<path fill="none" stroke="midnightblue" d="M210.79,-112.77C183.4,-102.47 146.1,-88.45 121.78,-79.32"/>
<polygon fill="midnightblue" stroke="midnightblue" points="209.79,-116.13 220.39,-116.37 212.26,-109.58 209.79,-116.13"/>
</g>
<!-- Node3&#45;&gt;Node9 -->
<g id="edge8" class="edge">
<title>Node3&#45;&gt;Node9</title>
<path fill="none" stroke="midnightblue" d="M284.43,-113.19C315.21,-102.93 357.69,-88.77 385.5,-79.5"/>
<polygon fill="midnightblue" stroke="midnightblue" points="283.26,-109.89 274.88,-116.37 285.47,-116.53 283.26,-109.89"/>
</g>
<!-- Node10 -->
<g id="node10" class="node">
<title>Node10</title>
<g id="a_node10"><a xlink:href="tex_8c.html" target="_top" xlink:title=" ">
<polygon fill="white" stroke="black" points="393.5,-0.5 393.5,-21.5 434.5,-21.5 434.5,-0.5 393.5,-0.5"/>
<text text-anchor="middle" x="414" y="-7.9" font-family="DejaVuSans" font-size="12.00">tex.c</text>
</a>
</g>
</g>
<!-- Node9&#45;&gt;Node10 -->
<g id="edge9" class="edge">
<title>Node9&#45;&gt;Node10</title>
<path fill="none" stroke="midnightblue" d="M414,-48.16C414,-39.16 414,-28.92 414,-21.64"/>
<polygon fill="midnightblue" stroke="midnightblue" points="410.5,-48.25 414,-58.25 417.5,-48.25 410.5,-48.25"/>
</g>
<!-- Node11&#45;&gt;Node4 -->
<g id="edge11" class="edge">
<title>Node11&#45;&gt;Node4</title>
<path fill="none" stroke="midnightblue" d="M421.42,-112.38C397.05,-102.2 364.34,-88.53 342.73,-79.5"/>
<polygon fill="midnightblue" stroke="midnightblue" points="420.39,-115.75 430.96,-116.37 423.09,-109.29 420.39,-115.75"/>
</g>
<!-- Node11&#45;&gt;Node6 -->
<g id="edge13" class="edge">
<title>Node11&#45;&gt;Node6</title>
<path fill="none" stroke="midnightblue" d="M411.44,-118.88C362.43,-110.48 279.61,-95.66 209,-80 206.27,-79.39 203.44,-78.73 200.61,-78.05"/>
<polygon fill="midnightblue" stroke="midnightblue" points="410.92,-122.34 421.36,-120.57 412.1,-115.44 410.92,-122.34"/>
</g>
<!-- Node11&#45;&gt;Node7 -->
<g id="edge14" class="edge">
<title>Node11&#45;&gt;Node7</title>
<path fill="none" stroke="midnightblue" d="M411.42,-115.26C375.71,-106.16 323.42,-92.61 278,-80 275.27,-79.24 272.43,-78.43 269.6,-77.62"/>
<polygon fill="midnightblue" stroke="midnightblue" points="410.93,-118.74 421.48,-117.82 412.65,-111.96 410.93,-118.74"/>
</g>
<!-- Node11&#45;&gt;Node9 -->
<g id="edge17" class="edge">
<title>Node11&#45;&gt;Node9</title>
<path fill="none" stroke="midnightblue" d="M441.09,-107.92C434.37,-98.52 426.43,-87.4 420.89,-79.64"/>
<polygon fill="midnightblue" stroke="midnightblue" points="438.37,-110.14 447.03,-116.25 444.07,-106.07 438.37,-110.14"/>
</g>
<!-- Node11&#45;&gt;Node12 -->
<g id="edge12" class="edge">
<title>Node11&#45;&gt;Node12</title>
<path fill="none" stroke="midnightblue" d="M486.34,-112.38C510.53,-102.2 543,-88.53 564.43,-79.5"/>
<polygon fill="midnightblue" stroke="midnightblue" points="484.72,-109.27 476.86,-116.37 487.44,-115.72 484.72,-109.27"/>
</g>
<!-- Node11&#45;&gt;Node13 -->
<g id="edge15" class="edge">
<title>Node11&#45;&gt;Node13</title>
<path fill="none" stroke="midnightblue" d="M496.54,-114.6C536.08,-104.01 594.17,-88.44 630.23,-78.78"/>
<polygon fill="midnightblue" stroke="midnightblue" points="495.41,-111.28 486.66,-117.25 497.22,-118.04 495.41,-111.28"/>
</g>
<!-- Node11&#45;&gt;Node14 -->
<g id="edge16" class="edge">
<title>Node11&#45;&gt;Node14</title>
<path fill="none" stroke="midnightblue" d="M497.06,-120.27C547.43,-113.08 633.09,-99.29 705,-80 707.89,-79.22 710.91,-78.29 713.85,-77.3"/>
<polygon fill="midnightblue" stroke="midnightblue" points="496.28,-116.85 486.87,-121.71 497.26,-123.78 496.28,-116.85"/>
</g>
<!-- Node15 -->
<g id="node15" class="node">
<title>Node15</title>
<g id="a_node15"><a xlink:href="texmath_8c.html" target="_top" xlink:title=" ">
<polygon fill="white" stroke="black" points="475,-58.5 475,-79.5 543,-79.5 543,-58.5 475,-58.5"/>
<text text-anchor="middle" x="509" y="-65.9" font-family="DejaVuSans" font-size="12.00">texmath.c</text>
</a>
</g>
</g>
<!-- Node11&#45;&gt;Node15 -->
<g id="edge18" class="edge">
<title>Node11&#45;&gt;Node15</title>
<path fill="none" stroke="midnightblue" d="M470.62,-109.08C480.09,-99.44 491.6,-87.72 499.53,-79.64"/>
<polygon fill="midnightblue" stroke="midnightblue" points="468.09,-106.66 463.58,-116.25 473.08,-111.56 468.09,-106.66"/>
</g>
<!-- Node16&#45;&gt;Node4 -->
<g id="edge20" class="edge">
<title>Node16&#45;&gt;Node4</title>
<path fill="none" stroke="midnightblue" d="M320,-106.16C320,-97.16 320,-86.92 320,-79.64"/>
<polygon fill="midnightblue" stroke="midnightblue" points="316.5,-106.25 320,-116.25 323.5,-106.25 316.5,-106.25"/>
</g>
<!-- Node16&#45;&gt;Node7 -->
<g id="edge21" class="edge">
<title>Node16&#45;&gt;Node7</title>
<path fill="none" stroke="midnightblue" d="M298.57,-110.21C285.22,-100.37 268.48,-88.04 257.09,-79.64"/>
<polygon fill="midnightblue" stroke="midnightblue" points="296.64,-113.13 306.76,-116.25 300.79,-107.5 296.64,-113.13"/>
</g>
<!-- Node16&#45;&gt;Node8 -->
<g id="edge22" class="edge">
<title>Node16&#45;&gt;Node8</title>
<path fill="none" stroke="midnightblue" d="M284.99,-116.26C284.66,-116.17 284.33,-116.08 284,-116 215.9,-98.59 197.89,-98.2 130,-80 127.34,-79.29 124.57,-78.51 121.82,-77.71"/>
<polygon fill="midnightblue" stroke="midnightblue" points="284.3,-119.69 294.86,-118.87 286.09,-112.93 284.3,-119.69"/>
</g>
<!-- Node16&#45;&gt;Node9 -->
<g id="edge23" class="edge">
<title>Node16&#45;&gt;Node9</title>
<path fill="none" stroke="midnightblue" d="M345.1,-111.05C361.83,-101.08 383.32,-88.28 397.81,-79.64"/>
<polygon fill="midnightblue" stroke="midnightblue" points="343.17,-108.12 336.37,-116.25 346.76,-114.13 343.17,-108.12"/>
</g>
</g>
</svg>
