<?xml version="1.0" encoding="UTF-8" standalone="no"?>
<!DOCTYPE svg PUBLIC "-//W3C//DTD SVG 1.1//EN"
 "http://www.w3.org/Graphics/SVG/1.1/DTD/svg11.dtd">
<!-- Generated by graphviz version 2.44.0 ()
 -->
<!-- Title: str.c Pages: 1 -->
<svg width="548pt" height="262pt"
 viewBox="0.00 0.00 548.00 262.00" xmlns="http://www.w3.org/2000/svg" xmlns:xlink="http://www.w3.org/1999/xlink">
<g id="graph0" class="graph" transform="scale(1 1) rotate(0) translate(4 258)">
<title>str.c</title>
<polygon fill="white" stroke="transparent" points="-4,4 -4,-258 544,-258 544,4 -4,4"/>
<!-- Node1 -->
<g id="node1" class="node">
<title>Node1</title>
<g id="a_node1"><a xlink:title=" ">
<polygon fill="#bfbfbf" stroke="black" points="248.5,-232.5 248.5,-253.5 286.5,-253.5 286.5,-232.5 248.5,-232.5"/>
<text text-anchor="middle" x="267.5" y="-239.9" font-family="DejaVuSans" font-size="12.00">str.c</text>
</a>
</g>
</g>
<!-- Node2 -->
<g id="node2" class="node">
<title>Node2</title>
<g id="a_node2"><a xlink:title=" ">
<polygon fill="white" stroke="#bfbfbf" points="95.5,-0.5 95.5,-21.5 147.5,-21.5 147.5,-0.5 95.5,-0.5"/>
<text text-anchor="middle" x="121.5" y="-7.9" font-family="DejaVuSans" font-size="12.00">stdio.h</text>
</a>
</g>
</g>
<!-- Node1&#45;&gt;Node2 -->
<g id="edge1" class="edge">
<title>Node1&#45;&gt;Node2</title>
<path fill="none" stroke="midnightblue" d="M248.39,-241.12C219.88,-238.7 166.77,-229.64 140.5,-196 102.52,-147.38 110.85,-68.1 117.36,-31.57"/>
<polygon fill="midnightblue" stroke="midnightblue" points="120.81,-32.17 119.28,-21.68 113.94,-30.84 120.81,-32.17"/>
</g>
<!-- Node3 -->
<g id="node3" class="node">
<title>Node3</title>
<g id="a_node3"><a xlink:title=" ">
<polygon fill="white" stroke="#bfbfbf" points="331.5,-174.5 331.5,-195.5 387.5,-195.5 387.5,-174.5 331.5,-174.5"/>
<text text-anchor="middle" x="359.5" y="-181.9" font-family="DejaVuSans" font-size="12.00">string.h</text>
</a>
</g>
</g>
<!-- Node1&#45;&gt;Node3 -->
<g id="edge2" class="edge">
<title>Node1&#45;&gt;Node3</title>
<path fill="none" stroke="midnightblue" d="M283.53,-232.25C297.64,-223.65 318.43,-211 334.69,-201.1"/>
<polygon fill="midnightblue" stroke="midnightblue" points="336.94,-203.83 343.66,-195.64 333.3,-197.85 336.94,-203.83"/>
</g>
<!-- Node4 -->
<g id="node4" class="node">
<title>Node4</title>
<g id="a_node4"><a xlink:href="global__const_8h.html" target="_top" xlink:title=" ">
<polygon fill="white" stroke="black" points="0,-58.5 0,-79.5 93,-79.5 93,-58.5 0,-58.5"/>
<text text-anchor="middle" x="46.5" y="-65.9" font-family="DejaVuSans" font-size="12.00">global_const.h</text>
</a>
</g>
</g>
<!-- Node1&#45;&gt;Node4 -->
<g id="edge3" class="edge">
<title>Node1&#45;&gt;Node4</title>
<path fill="none" stroke="midnightblue" d="M248.43,-241.4C215.87,-239.4 149.06,-231 107.5,-196 74.17,-167.93 57.6,-117.37 50.67,-89.6"/>
<polygon fill="midnightblue" stroke="midnightblue" points="54,-88.48 48.33,-79.53 47.19,-90.06 54,-88.48"/>
</g>
<!-- Node6 -->
<g id="node6" class="node">
<title>Node6</title>
<g id="a_node6"><a xlink:href="tex_8h.html" target="_top" xlink:title=" ">
<polygon fill="white" stroke="black" points="271.5,-174.5 271.5,-195.5 313.5,-195.5 313.5,-174.5 271.5,-174.5"/>
<text text-anchor="middle" x="292.5" y="-181.9" font-family="DejaVuSans" font-size="12.00">tex.h</text>
</a>
</g>
</g>
<!-- Node1&#45;&gt;Node6 -->
<g id="edge6" class="edge">
<title>Node1&#45;&gt;Node6</title>
<path fill="none" stroke="midnightblue" d="M271.85,-232.25C275.22,-224.7 279.99,-214.02 284.1,-204.82"/>
<polygon fill="midnightblue" stroke="midnightblue" points="287.31,-206.2 288.2,-195.64 280.92,-203.35 287.31,-206.2"/>
</g>
<!-- Node11 -->
<g id="node11" class="node">
<title>Node11</title>
<g id="a_node11"><a xlink:href="macros_8h.html" target="_top" xlink:title=" ">
<polygon fill="white" stroke="black" points="406,-174.5 406,-195.5 471,-195.5 471,-174.5 406,-174.5"/>
<text text-anchor="middle" x="438.5" y="-181.9" font-family="DejaVuSans" font-size="12.00">macros.h</text>
</a>
</g>
</g>
<!-- Node1&#45;&gt;Node11 -->
<g id="edge11" class="edge">
<title>Node1&#45;&gt;Node11</title>
<path fill="none" stroke="midnightblue" d="M286.78,-235.68C313.97,-226.78 364.18,-210.34 399.36,-198.82"/>
<polygon fill="midnightblue" stroke="midnightblue" points="400.89,-202 409.31,-195.56 398.72,-195.35 400.89,-202"/>
</g>
<!-- Node12 -->
<g id="node12" class="node">
<title>Node12</title>
<g id="a_node12"><a xlink:href="texfunc_8h.html" target="_top" xlink:title=" ">
<polygon fill="white" stroke="black" points="150,-174.5 150,-195.5 215,-195.5 215,-174.5 150,-174.5"/>
<text text-anchor="middle" x="182.5" y="-181.9" font-family="DejaVuSans" font-size="12.00">texfunc.h</text>
</a>
</g>
</g>
<!-- Node1&#45;&gt;Node12 -->
<g id="edge12" class="edge">
<title>Node1&#45;&gt;Node12</title>
<path fill="none" stroke="midnightblue" d="M252.69,-232.25C239.77,-223.73 220.81,-211.24 205.84,-201.38"/>
<polygon fill="midnightblue" stroke="midnightblue" points="207.41,-198.22 197.14,-195.64 203.56,-204.07 207.41,-198.22"/>
</g>
<!-- Node13 -->
<g id="node13" class="node">
<title>Node13</title>
<g id="a_node13"><a xlink:href="str_8h.html" target="_top" xlink:title=" ">
<polygon fill="white" stroke="black" points="163,-116.5 163,-137.5 202,-137.5 202,-116.5 163,-116.5"/>
<text text-anchor="middle" x="182.5" y="-123.9" font-family="DejaVuSans" font-size="12.00">str.h</text>
</a>
</g>
</g>
<!-- Node1&#45;&gt;Node13 -->
<g id="edge19" class="edge">
<title>Node1&#45;&gt;Node13</title>
<path fill="none" stroke="midnightblue" d="M262.16,-232.41C254.48,-218.92 239.58,-193.76 224.5,-174 216.84,-163.97 207.44,-153.52 199.47,-145.13"/>
<polygon fill="midnightblue" stroke="midnightblue" points="201.84,-142.54 192.38,-137.78 196.81,-147.41 201.84,-142.54"/>
</g>
<!-- Node14 -->
<g id="node14" class="node">
<title>Node14</title>
<g id="a_node14"><a xlink:href="error_8h.html" target="_top" xlink:title=" ">
<polygon fill="white" stroke="black" points="489,-174.5 489,-195.5 540,-195.5 540,-174.5 489,-174.5"/>
<text text-anchor="middle" x="514.5" y="-181.9" font-family="DejaVuSans" font-size="12.00">error.h</text>
</a>
</g>
</g>
<!-- Node1&#45;&gt;Node14 -->
<g id="edge18" class="edge">
<title>Node1&#45;&gt;Node14</title>
<path fill="none" stroke="midnightblue" d="M286.7,-238.34C322.63,-231.4 402.64,-215.45 479.14,-196.22"/>
<polygon fill="midnightblue" stroke="midnightblue" points="480.1,-199.59 488.94,-193.74 478.38,-192.8 480.1,-199.59"/>
</g>
<!-- Node4&#45;&gt;Node2 -->
<g id="edge5" class="edge">
<title>Node4&#45;&gt;Node2</title>
<path fill="none" stroke="midnightblue" d="M59.56,-58.25C70.86,-49.81 87.38,-37.47 100.53,-27.66"/>
<polygon fill="midnightblue" stroke="midnightblue" points="102.67,-30.43 108.59,-21.64 98.48,-24.82 102.67,-30.43"/>
</g>
<!-- Node5 -->
<g id="node5" class="node">
<title>Node5</title>
<g id="a_node5"><a xlink:title=" ">
<polygon fill="white" stroke="#bfbfbf" points="17,-0.5 17,-21.5 76,-21.5 76,-0.5 17,-0.5"/>
<text text-anchor="middle" x="46.5" y="-7.9" font-family="DejaVuSans" font-size="12.00">assert.h</text>
</a>
</g>
</g>
<!-- Node4&#45;&gt;Node5 -->
<g id="edge4" class="edge">
<title>Node4&#45;&gt;Node5</title>
<path fill="none" stroke="midnightblue" d="M46.5,-58.25C46.5,-50.94 46.5,-40.69 46.5,-31.7"/>
<polygon fill="midnightblue" stroke="midnightblue" points="50,-31.64 46.5,-21.64 43,-31.64 50,-31.64"/>
</g>
<!-- Node7 -->
<g id="node7" class="node">
<title>Node7</title>
<g id="a_node7"><a xlink:href="tex__types_8h.html" target="_top" xlink:title=" ">
<polygon fill="white" stroke="black" points="231,-58.5 231,-79.5 308,-79.5 308,-58.5 231,-58.5"/>
<text text-anchor="middle" x="269.5" y="-65.9" font-family="DejaVuSans" font-size="12.00">tex_types.h</text>
</a>
</g>
</g>
<!-- Node6&#45;&gt;Node7 -->
<g id="edge7" class="edge">
<title>Node6&#45;&gt;Node7</title>
<path fill="none" stroke="midnightblue" d="M302.49,-174.3C314.83,-161.1 333.07,-136.73 323.5,-116 317.67,-103.38 306.49,-92.95 295.81,-85.23"/>
<polygon fill="midnightblue" stroke="midnightblue" points="297.71,-82.29 287.46,-79.63 293.81,-88.11 297.71,-82.29"/>
</g>
<!-- Node10 -->
<g id="node10" class="node">
<title>Node10</title>
<g id="a_node10"><a xlink:href="tex__constant_8h.html" target="_top" xlink:title=" ">
<polygon fill="white" stroke="black" points="220.5,-116.5 220.5,-137.5 314.5,-137.5 314.5,-116.5 220.5,-116.5"/>
<text text-anchor="middle" x="267.5" y="-123.9" font-family="DejaVuSans" font-size="12.00">tex_constant.h</text>
</a>
</g>
</g>
<!-- Node6&#45;&gt;Node10 -->
<g id="edge10" class="edge">
<title>Node6&#45;&gt;Node10</title>
<path fill="none" stroke="midnightblue" d="M288.15,-174.25C284.78,-166.7 280.01,-156.02 275.9,-146.82"/>
<polygon fill="midnightblue" stroke="midnightblue" points="279.08,-145.35 271.8,-137.64 272.69,-148.2 279.08,-145.35"/>
</g>
<!-- Node8 -->
<g id="node8" class="node">
<title>Node8</title>
<g id="a_node8"><a xlink:title=" ">
<polygon fill="white" stroke="#bfbfbf" points="243,-0.5 243,-21.5 308,-21.5 308,-0.5 243,-0.5"/>
<text text-anchor="middle" x="275.5" y="-7.9" font-family="DejaVuSans" font-size="12.00">stdbool.h</text>
</a>
</g>
</g>
<!-- Node7&#45;&gt;Node8 -->
<g id="edge8" class="edge">
<title>Node7&#45;&gt;Node8</title>
<path fill="none" stroke="midnightblue" d="M270.55,-58.25C271.33,-50.94 272.43,-40.69 273.39,-31.7"/>
<polygon fill="midnightblue" stroke="midnightblue" points="276.88,-31.96 274.47,-21.64 269.92,-31.21 276.88,-31.96"/>
</g>
<!-- Node9 -->
<g id="node9" class="node">
<title>Node9</title>
<g id="a_node9"><a xlink:title=" ">
<polygon fill="white" stroke="#bfbfbf" points="170,-0.5 170,-21.5 225,-21.5 225,-0.5 170,-0.5"/>
<text text-anchor="middle" x="197.5" y="-7.9" font-family="DejaVuSans" font-size="12.00">stdint.h</text>
</a>
</g>
</g>
<!-- Node7&#45;&gt;Node9 -->
<g id="edge9" class="edge">
<title>Node7&#45;&gt;Node9</title>
<path fill="none" stroke="midnightblue" d="M256.96,-58.25C246.22,-49.89 230.55,-37.71 218,-27.94"/>
<polygon fill="midnightblue" stroke="midnightblue" points="219.94,-25.02 209.9,-21.64 215.64,-30.54 219.94,-25.02"/>
</g>
<!-- Node12&#45;&gt;Node13 -->
<g id="edge13" class="edge">
<title>Node12&#45;&gt;Node13</title>
<path fill="none" stroke="midnightblue" d="M182.5,-174.25C182.5,-166.94 182.5,-156.69 182.5,-147.7"/>
<polygon fill="midnightblue" stroke="midnightblue" points="186,-147.64 182.5,-137.64 179,-147.64 186,-147.64"/>
</g>
<!-- Node13&#45;&gt;Node2 -->
<g id="edge14" class="edge">
<title>Node13&#45;&gt;Node2</title>
<path fill="none" stroke="midnightblue" d="M177.3,-116.28C167.17,-97.35 144.64,-55.25 131.52,-30.72"/>
<polygon fill="midnightblue" stroke="midnightblue" points="134.49,-28.86 126.69,-21.69 128.32,-32.16 134.49,-28.86"/>
</g>
<!-- Node13&#45;&gt;Node4 -->
<g id="edge16" class="edge">
<title>Node13&#45;&gt;Node4</title>
<path fill="none" stroke="midnightblue" d="M162.72,-117.86C140.91,-108.87 105.44,-94.27 79.42,-83.55"/>
<polygon fill="midnightblue" stroke="midnightblue" points="80.53,-80.23 69.95,-79.66 77.87,-86.7 80.53,-80.23"/>
</g>
<!-- Node13&#45;&gt;Node7 -->
<g id="edge17" class="edge">
<title>Node13&#45;&gt;Node7</title>
<path fill="none" stroke="midnightblue" d="M197.65,-116.25C211,-107.65 230.66,-95 246.04,-85.1"/>
<polygon fill="midnightblue" stroke="midnightblue" points="248.01,-88 254.52,-79.64 244.22,-82.11 248.01,-88"/>
</g>
<!-- Node13&#45;&gt;Node9 -->
<g id="edge15" class="edge">
<title>Node13&#45;&gt;Node9</title>
<path fill="none" stroke="midnightblue" d="M183.78,-116.28C186.24,-97.6 191.66,-56.37 194.91,-31.72"/>
<polygon fill="midnightblue" stroke="midnightblue" points="198.39,-32.07 196.22,-21.69 191.45,-31.15 198.39,-32.07"/>
</g>
</g>
</svg>
