<?xml version="1.0" encoding="UTF-8" standalone="no"?>
<!DOCTYPE svg PUBLIC "-//W3C//DTD SVG 1.1//EN"
 "http://www.w3.org/Graphics/SVG/1.1/DTD/svg11.dtd">
<!-- Generated by graphviz version 2.44.0 ()
 -->
<!-- Title: str.h Pages: 1 -->
<svg width="898pt" height="204pt"
 viewBox="0.00 0.00 898.00 204.00" xmlns="http://www.w3.org/2000/svg" xmlns:xlink="http://www.w3.org/1999/xlink">
<g id="graph0" class="graph" transform="scale(1 1) rotate(0) translate(4 200)">
<title>str.h</title>
<polygon fill="white" stroke="transparent" points="-4,4 -4,-200 894,-200 894,4 -4,4"/>
<!-- Node1 -->
<g id="node1" class="node">
<title>Node1</title>
<g id="a_node1"><a xlink:title=" ">
<polygon fill="#bfbfbf" stroke="black" points="501.5,-174.5 501.5,-195.5 540.5,-195.5 540.5,-174.5 501.5,-174.5"/>
<text text-anchor="middle" x="521" y="-181.9" font-family="DejaVuSans" font-size="12.00">str.h</text>
</a>
</g>
</g>
<!-- Node2 -->
<g id="node2" class="node">
<title>Node2</title>
<g id="a_node2"><a xlink:href="dviout_8c.html" target="_top" xlink:title=" ">
<polygon fill="white" stroke="black" points="185,-116.5 185,-137.5 243,-137.5 243,-116.5 185,-116.5"/>
<text text-anchor="middle" x="214" y="-123.9" font-family="DejaVuSans" font-size="12.00">dviout.c</text>
</a>
</g>
</g>
<!-- Node1&#45;&gt;Node2 -->
<g id="edge1" class="edge">
<title>Node1&#45;&gt;Node2</title>
<path fill="none" stroke="midnightblue" d="M491.49,-179.41C442.59,-171.68 341.74,-155.22 257,-138 252.49,-137.08 247.74,-136.05 243.1,-135"/>
<polygon fill="midnightblue" stroke="midnightblue" points="490.97,-182.87 501.39,-180.97 492.05,-175.96 490.97,-182.87"/>
</g>
<!-- Node3 -->
<g id="node3" class="node">
<title>Node3</title>
<g id="a_node3"><a xlink:href="global_8h.html" target="_top" xlink:title=" ">
<polygon fill="white" stroke="black" points="299,-116.5 299,-137.5 357,-137.5 357,-116.5 299,-116.5"/>
<text text-anchor="middle" x="328" y="-123.9" font-family="DejaVuSans" font-size="12.00">global.h</text>
</a>
</g>
</g>
<!-- Node1&#45;&gt;Node3 -->
<g id="edge2" class="edge">
<title>Node1&#45;&gt;Node3</title>
<path fill="none" stroke="midnightblue" d="M491.43,-175.42C455.04,-164.86 393.61,-147.04 357.32,-136.51"/>
<polygon fill="midnightblue" stroke="midnightblue" points="490.85,-178.9 501.43,-178.32 492.8,-172.17 490.85,-178.9"/>
</g>
<!-- Node6 -->
<g id="node6" class="node">
<title>Node6</title>
<g id="a_node6"><a xlink:href="funcs_8c.html" target="_top" xlink:title=" ">
<polygon fill="white" stroke="black" points="0,-58.5 0,-79.5 54,-79.5 54,-58.5 0,-58.5"/>
<text text-anchor="middle" x="27" y="-65.9" font-family="DejaVuSans" font-size="12.00">funcs.c</text>
</a>
</g>
</g>
<!-- Node1&#45;&gt;Node6 -->
<g id="edge31" class="edge">
<title>Node1&#45;&gt;Node6</title>
<path fill="none" stroke="midnightblue" d="M491.02,-181.2C446.12,-176.31 359.28,-164.13 290,-138 271.74,-131.11 270.29,-122.81 252,-116 171.87,-86.16 146.27,-99.46 63,-80 60.09,-79.32 57.07,-78.56 54.07,-77.78"/>
<polygon fill="midnightblue" stroke="midnightblue" points="490.93,-184.71 501.24,-182.27 491.66,-177.75 490.93,-184.71"/>
</g>
<!-- Node11 -->
<g id="node11" class="node">
<title>Node11</title>
<g id="a_node11"><a xlink:href="tex__header_8h.html" target="_top" xlink:title=" ">
<polygon fill="white" stroke="black" points="509,-58.5 509,-79.5 595,-79.5 595,-58.5 509,-58.5"/>
<text text-anchor="middle" x="552" y="-65.9" font-family="DejaVuSans" font-size="12.00">tex_header.h</text>
</a>
</g>
</g>
<!-- Node1&#45;&gt;Node11 -->
<g id="edge35" class="edge">
<title>Node1&#45;&gt;Node11</title>
<path fill="none" stroke="midnightblue" d="M526.28,-164.58C532.98,-139.96 544.27,-98.44 549.36,-79.69"/>
<polygon fill="midnightblue" stroke="midnightblue" points="522.89,-163.71 523.64,-174.28 529.64,-165.55 522.89,-163.71"/>
</g>
<!-- Node13 -->
<g id="node13" class="node">
<title>Node13</title>
<g id="a_node13"><a xlink:href="texfunc_8h.html" target="_top" xlink:title=" ">
<polygon fill="white" stroke="black" points="458.5,-116.5 458.5,-137.5 523.5,-137.5 523.5,-116.5 458.5,-116.5"/>
<text text-anchor="middle" x="491" y="-123.9" font-family="DejaVuSans" font-size="12.00">texfunc.h</text>
</a>
</g>
</g>
<!-- Node1&#45;&gt;Node13 -->
<g id="edge12" class="edge">
<title>Node1&#45;&gt;Node13</title>
<path fill="none" stroke="midnightblue" d="M511,-165.34C506.03,-156.06 500.24,-145.24 496.17,-137.64"/>
<polygon fill="midnightblue" stroke="midnightblue" points="507.97,-167.08 515.77,-174.25 514.14,-163.78 507.97,-167.08"/>
</g>
<!-- Node14 -->
<g id="node14" class="node">
<title>Node14</title>
<g id="a_node14"><a xlink:href="fonts_8c.html" target="_top" xlink:title=" ">
<polygon fill="white" stroke="black" points="699.5,-58.5 699.5,-79.5 750.5,-79.5 750.5,-58.5 699.5,-58.5"/>
<text text-anchor="middle" x="725" y="-65.9" font-family="DejaVuSans" font-size="12.00">fonts.c</text>
</a>
</g>
</g>
<!-- Node1&#45;&gt;Node14 -->
<g id="edge30" class="edge">
<title>Node1&#45;&gt;Node14</title>
<path fill="none" stroke="midnightblue" d="M540.19,-167.85C558.38,-153.07 586.88,-131.25 614,-116 641.82,-100.36 676.04,-86.98 699.06,-78.75"/>
<polygon fill="midnightblue" stroke="midnightblue" points="537.64,-165.42 532.14,-174.48 542.09,-170.82 537.64,-165.42"/>
</g>
<!-- Node15 -->
<g id="node15" class="node">
<title>Node15</title>
<g id="a_node15"><a xlink:href="printout_8c.html" target="_top" xlink:title=" ">
<polygon fill="white" stroke="black" points="768.5,-58.5 768.5,-79.5 833.5,-79.5 833.5,-58.5 768.5,-58.5"/>
<text text-anchor="middle" x="801" y="-65.9" font-family="DejaVuSans" font-size="12.00">printout.c</text>
</a>
</g>
</g>
<!-- Node1&#45;&gt;Node15 -->
<g id="edge33" class="edge">
<title>Node1&#45;&gt;Node15</title>
<path fill="none" stroke="midnightblue" d="M549.26,-169.74C567.03,-160.73 590.41,-148.79 611,-138 629.32,-128.4 632.92,-123.98 652,-116 690.97,-99.71 737.77,-86.19 768.39,-78.12"/>
<polygon fill="midnightblue" stroke="midnightblue" points="547.36,-166.78 540.02,-174.42 550.52,-173.02 547.36,-166.78"/>
</g>
<!-- Node16 -->
<g id="node16" class="node">
<title>Node16</title>
<g id="a_node16"><a xlink:href="str_8c.html" target="_top" xlink:title=" ">
<polygon fill="white" stroke="black" points="852,-58.5 852,-79.5 890,-79.5 890,-58.5 852,-58.5"/>
<text text-anchor="middle" x="871" y="-65.9" font-family="DejaVuSans" font-size="12.00">str.c</text>
</a>
</g>
</g>
<!-- Node1&#45;&gt;Node16 -->
<g id="edge34" class="edge">
<title>Node1&#45;&gt;Node16</title>
<path fill="none" stroke="midnightblue" d="M550.43,-174.36C575.85,-165.73 613.36,-152.28 645,-138 663.85,-129.49 666.64,-123.26 686,-116 753.03,-90.85 774.28,-100.07 843,-80 845.87,-79.16 848.88,-78.19 851.82,-77.19"/>
<polygon fill="midnightblue" stroke="midnightblue" points="549.03,-171.14 540.66,-177.64 551.26,-177.77 549.03,-171.14"/>
</g>
<!-- Node18 -->
<g id="node18" class="node">
<title>Node18</title>
<g id="a_node18"><a xlink:href="print_8h.html" target="_top" xlink:title=" ">
<polygon fill="white" stroke="black" points="390,-116.5 390,-137.5 440,-137.5 440,-116.5 390,-116.5"/>
<text text-anchor="middle" x="415" y="-123.9" font-family="DejaVuSans" font-size="12.00">print.h</text>
</a>
</g>
</g>
<!-- Node1&#45;&gt;Node18 -->
<g id="edge23" class="edge">
<title>Node1&#45;&gt;Node18</title>
<path fill="none" stroke="midnightblue" d="M493.48,-169.46C474.51,-159.44 449.83,-146.4 433.25,-137.64"/>
<polygon fill="midnightblue" stroke="midnightblue" points="492.06,-172.67 502.54,-174.25 495.33,-166.48 492.06,-172.67"/>
</g>
<!-- Node19 -->
<g id="node19" class="node">
<title>Node19</title>
<g id="a_node19"><a xlink:href="inipool_8c.html" target="_top" xlink:title=" ">
<polygon fill="white" stroke="black" points="694.5,-116.5 694.5,-137.5 755.5,-137.5 755.5,-116.5 694.5,-116.5"/>
<text text-anchor="middle" x="725" y="-123.9" font-family="DejaVuSans" font-size="12.00">inipool.c</text>
</a>
</g>
</g>
<!-- Node1&#45;&gt;Node19 -->
<g id="edge32" class="edge">
<title>Node1&#45;&gt;Node19</title>
<path fill="none" stroke="midnightblue" d="M550.58,-175.88C588.92,-165.36 655.44,-147.09 694.31,-136.42"/>
<polygon fill="midnightblue" stroke="midnightblue" points="549.28,-172.61 540.56,-178.63 551.13,-179.36 549.28,-172.61"/>
</g>
<!-- Node4 -->
<g id="node4" class="node">
<title>Node4</title>
<g id="a_node4"><a xlink:href="error_8c.html" target="_top" xlink:title=" ">
<polygon fill="white" stroke="black" points="357,-58.5 357,-79.5 407,-79.5 407,-58.5 357,-58.5"/>
<text text-anchor="middle" x="382" y="-65.9" font-family="DejaVuSans" font-size="12.00">error.c</text>
</a>
</g>
</g>
<!-- Node3&#45;&gt;Node4 -->
<g id="edge3" class="edge">
<title>Node3&#45;&gt;Node4</title>
<path fill="none" stroke="midnightblue" d="M344.6,-108.79C353.83,-99.21 364.99,-87.64 372.7,-79.64"/>
<polygon fill="midnightblue" stroke="midnightblue" points="341.83,-106.62 337.41,-116.25 346.87,-111.48 341.83,-106.62"/>
</g>
<!-- Node5 -->
<g id="node5" class="node">
<title>Node5</title>
<g id="a_node5"><a xlink:href="expand_8c.html" target="_top" xlink:title=" ">
<polygon fill="white" stroke="black" points="425.5,-58.5 425.5,-79.5 490.5,-79.5 490.5,-58.5 425.5,-58.5"/>
<text text-anchor="middle" x="458" y="-65.9" font-family="DejaVuSans" font-size="12.00">expand.c</text>
</a>
</g>
</g>
<!-- Node3&#45;&gt;Node5 -->
<g id="edge4" class="edge">
<title>Node3&#45;&gt;Node5</title>
<path fill="none" stroke="midnightblue" d="M359.61,-112.38C383.25,-102.2 414.99,-88.53 435.94,-79.5"/>
<polygon fill="midnightblue" stroke="midnightblue" points="358.15,-109.2 350.35,-116.37 360.92,-115.63 358.15,-109.2"/>
</g>
<!-- Node3&#45;&gt;Node6 -->
<g id="edge5" class="edge">
<title>Node3&#45;&gt;Node6</title>
<path fill="none" stroke="midnightblue" d="M288.86,-116.78C287.56,-116.51 286.27,-116.25 285,-116 186.93,-96.67 160.64,-101.41 63,-80 60.09,-79.36 57.06,-78.63 54.05,-77.86"/>
<polygon fill="midnightblue" stroke="midnightblue" points="288.4,-120.26 298.91,-118.95 289.88,-113.42 288.4,-120.26"/>
</g>
<!-- Node7 -->
<g id="node7" class="node">
<title>Node7</title>
<g id="a_node7"><a xlink:href="inputln_8c.html" target="_top" xlink:title=" ">
<polygon fill="white" stroke="black" points="139.5,-58.5 139.5,-79.5 200.5,-79.5 200.5,-58.5 139.5,-58.5"/>
<text text-anchor="middle" x="170" y="-65.9" font-family="DejaVuSans" font-size="12.00">inputln.c</text>
</a>
</g>
</g>
<!-- Node3&#45;&gt;Node7 -->
<g id="edge6" class="edge">
<title>Node3&#45;&gt;Node7</title>
<path fill="none" stroke="midnightblue" d="M291.1,-112.92C262.22,-102.69 222.73,-88.69 196.81,-79.5"/>
<polygon fill="midnightblue" stroke="midnightblue" points="290.24,-116.33 300.84,-116.37 292.58,-109.73 290.24,-116.33"/>
</g>
<!-- Node8 -->
<g id="node8" class="node">
<title>Node8</title>
<g id="a_node8"><a xlink:href="lexer_8c.html" target="_top" xlink:title=" ">
<polygon fill="white" stroke="black" points="287.5,-58.5 287.5,-79.5 338.5,-79.5 338.5,-58.5 287.5,-58.5"/>
<text text-anchor="middle" x="313" y="-65.9" font-family="DejaVuSans" font-size="12.00">lexer.c</text>
</a>
</g>
</g>
<!-- Node3&#45;&gt;Node8 -->
<g id="edge7" class="edge">
<title>Node3&#45;&gt;Node8</title>
<path fill="none" stroke="midnightblue" d="M322.76,-106.45C320.33,-97.38 317.55,-87 315.58,-79.64"/>
<polygon fill="midnightblue" stroke="midnightblue" points="319.42,-107.49 325.39,-116.25 326.18,-105.68 319.42,-107.49"/>
</g>
<!-- Node9 -->
<g id="node9" class="node">
<title>Node9</title>
<g id="a_node9"><a xlink:href="print_8c.html" target="_top" xlink:title=" ">
<polygon fill="white" stroke="black" points="72.5,-58.5 72.5,-79.5 121.5,-79.5 121.5,-58.5 72.5,-58.5"/>
<text text-anchor="middle" x="97" y="-65.9" font-family="DejaVuSans" font-size="12.00">print.c</text>
</a>
</g>
</g>
<!-- Node3&#45;&gt;Node9 -->
<g id="edge8" class="edge">
<title>Node3&#45;&gt;Node9</title>
<path fill="none" stroke="midnightblue" d="M288.83,-116.89C287.54,-116.59 286.26,-116.29 285,-116 216.11,-99.99 198.32,-98.26 130,-80 127.34,-79.29 124.57,-78.51 121.82,-77.71"/>
<polygon fill="midnightblue" stroke="midnightblue" points="288.32,-120.37 298.86,-119.22 289.91,-113.55 288.32,-120.37"/>
</g>
<!-- Node10 -->
<g id="node10" class="node">
<title>Node10</title>
<g id="a_node10"><a xlink:href="scan_8c.html" target="_top" xlink:title=" ">
<polygon fill="white" stroke="black" points="218.5,-58.5 218.5,-79.5 269.5,-79.5 269.5,-58.5 218.5,-58.5"/>
<text text-anchor="middle" x="244" y="-65.9" font-family="DejaVuSans" font-size="12.00">scan.c</text>
</a>
</g>
</g>
<!-- Node3&#45;&gt;Node10 -->
<g id="edge9" class="edge">
<title>Node3&#45;&gt;Node10</title>
<path fill="none" stroke="midnightblue" d="M304.74,-110.49C289.91,-100.61 271.18,-88.12 258.46,-79.64"/>
<polygon fill="midnightblue" stroke="midnightblue" points="303.11,-113.61 313.37,-116.25 306.99,-107.79 303.11,-113.61"/>
</g>
<!-- Node3&#45;&gt;Node11 -->
<g id="edge10" class="edge">
<title>Node3&#45;&gt;Node11</title>
<path fill="none" stroke="midnightblue" d="M367.23,-116.19C408.45,-105.89 472.85,-89.79 513.71,-79.57"/>
<polygon fill="midnightblue" stroke="midnightblue" points="366.14,-112.86 357.28,-118.68 367.83,-119.65 366.14,-112.86"/>
</g>
<!-- Node12 -->
<g id="node12" class="node">
<title>Node12</title>
<g id="a_node12"><a xlink:href="tex_8c.html" target="_top" xlink:title=" ">
<polygon fill="white" stroke="black" points="531.5,-0.5 531.5,-21.5 572.5,-21.5 572.5,-0.5 531.5,-0.5"/>
<text text-anchor="middle" x="552" y="-7.9" font-family="DejaVuSans" font-size="12.00">tex.c</text>
</a>
</g>
</g>
<!-- Node11&#45;&gt;Node12 -->
<g id="edge11" class="edge">
<title>Node11&#45;&gt;Node12</title>
<path fill="none" stroke="midnightblue" d="M552,-48.16C552,-39.16 552,-28.92 552,-21.64"/>
<polygon fill="midnightblue" stroke="midnightblue" points="548.5,-48.25 552,-58.25 555.5,-48.25 548.5,-48.25"/>
</g>
<!-- Node13&#45;&gt;Node4 -->
<g id="edge13" class="edge">
<title>Node13&#45;&gt;Node4</title>
<path fill="none" stroke="midnightblue" d="M462.97,-111.6C443.43,-101.56 417.89,-88.44 400.77,-79.64"/>
<polygon fill="midnightblue" stroke="midnightblue" points="461.52,-114.79 472.01,-116.25 464.72,-108.56 461.52,-114.79"/>
</g>
<!-- Node13&#45;&gt;Node5 -->
<g id="edge14" class="edge">
<title>Node13&#45;&gt;Node5</title>
<path fill="none" stroke="midnightblue" d="M480.17,-107.63C474.67,-98.29 468.21,-87.32 463.68,-79.64"/>
<polygon fill="midnightblue" stroke="midnightblue" points="477.16,-109.41 485.25,-116.25 483.19,-105.85 477.16,-109.41"/>
</g>
<!-- Node13&#45;&gt;Node7 -->
<g id="edge16" class="edge">
<title>Node13&#45;&gt;Node7</title>
<path fill="none" stroke="midnightblue" d="M448.58,-116.07C341.38,-95.81 311.61,-100.8 209,-80 206.26,-79.44 203.42,-78.82 200.59,-78.16"/>
<polygon fill="midnightblue" stroke="midnightblue" points="448.02,-119.53 458.5,-117.97 449.34,-112.65 448.02,-119.53"/>
</g>
<!-- Node13&#45;&gt;Node8 -->
<g id="edge17" class="edge">
<title>Node13&#45;&gt;Node8</title>
<path fill="none" stroke="midnightblue" d="M450.66,-113.31C416.27,-102.49 367.89,-87.27 338.59,-78.05"/>
<polygon fill="midnightblue" stroke="midnightblue" points="449.81,-116.71 460.4,-116.37 451.91,-110.03 449.81,-116.71"/>
</g>
<!-- Node13&#45;&gt;Node10 -->
<g id="edge19" class="edge">
<title>Node13&#45;&gt;Node10</title>
<path fill="none" stroke="midnightblue" d="M448.29,-115.9C371.49,-98.97 350.22,-98.19 278,-80 275.26,-79.31 272.4,-78.54 269.56,-77.75"/>
<polygon fill="midnightblue" stroke="midnightblue" points="447.94,-119.41 458.46,-118.16 449.46,-112.57 447.94,-119.41"/>
</g>
<!-- Node13&#45;&gt;Node11 -->
<g id="edge21" class="edge">
<title>Node13&#45;&gt;Node11</title>
<path fill="none" stroke="midnightblue" d="M509.12,-109.36C519.68,-99.67 532.61,-87.8 541.5,-79.64"/>
<polygon fill="midnightblue" stroke="midnightblue" points="506.62,-106.9 501.63,-116.25 511.36,-112.06 506.62,-106.9"/>
</g>
<!-- Node13&#45;&gt;Node14 -->
<g id="edge15" class="edge">
<title>Node13&#45;&gt;Node14</title>
<path fill="none" stroke="midnightblue" d="M533.3,-116.88C573.69,-108.02 636.19,-93.9 690,-80 693.06,-79.21 696.26,-78.35 699.43,-77.47"/>
<polygon fill="midnightblue" stroke="midnightblue" points="532.55,-113.46 523.52,-119.02 534.04,-120.3 532.55,-113.46"/>
</g>
<!-- Node13&#45;&gt;Node15 -->
<g id="edge18" class="edge">
<title>Node13&#45;&gt;Node15</title>
<path fill="none" stroke="midnightblue" d="M533.95,-119.6C587.19,-111.46 680.62,-96.45 760,-80 762.73,-79.44 765.55,-78.82 768.37,-78.18"/>
<polygon fill="midnightblue" stroke="midnightblue" points="533.21,-116.18 523.85,-121.14 534.26,-123.1 533.21,-116.18"/>
</g>
<!-- Node13&#45;&gt;Node16 -->
<g id="edge20" class="edge">
<title>Node13&#45;&gt;Node16</title>
<path fill="none" stroke="midnightblue" d="M534.1,-123.34C600.99,-118.54 733.52,-106.38 843,-80 845.91,-79.3 848.94,-78.4 851.88,-77.43"/>
<polygon fill="midnightblue" stroke="midnightblue" points="533.67,-119.86 523.94,-124.04 534.16,-126.84 533.67,-119.86"/>
</g>
<!-- Node17 -->
<g id="node17" class="node">
<title>Node17</title>
<g id="a_node17"><a xlink:href="texmath_8c.html" target="_top" xlink:title=" ">
<polygon fill="white" stroke="black" points="613,-58.5 613,-79.5 681,-79.5 681,-58.5 613,-58.5"/>
<text text-anchor="middle" x="647" y="-65.9" font-family="DejaVuSans" font-size="12.00">texmath.c</text>
</a>
</g>
</g>
<!-- Node13&#45;&gt;Node17 -->
<g id="edge22" class="edge">
<title>Node13&#45;&gt;Node17</title>
<path fill="none" stroke="midnightblue" d="M527.43,-112.92C555.95,-102.69 594.94,-88.69 620.53,-79.5"/>
<polygon fill="midnightblue" stroke="midnightblue" points="526.05,-109.7 517.82,-116.37 528.41,-116.29 526.05,-109.7"/>
</g>
<!-- Node18&#45;&gt;Node4 -->
<g id="edge24" class="edge">
<title>Node18&#45;&gt;Node4</title>
<path fill="none" stroke="midnightblue" d="M404.17,-107.63C398.67,-98.29 392.21,-87.32 387.68,-79.64"/>
<polygon fill="midnightblue" stroke="midnightblue" points="401.16,-109.41 409.25,-116.25 407.19,-105.85 401.16,-109.41"/>
</g>
<!-- Node18&#45;&gt;Node5 -->
<g id="edge25" class="edge">
<title>Node18&#45;&gt;Node5</title>
<path fill="none" stroke="midnightblue" d="M428.66,-108.21C435.93,-98.75 444.58,-87.48 450.6,-79.64"/>
<polygon fill="midnightblue" stroke="midnightblue" points="425.8,-106.18 422.49,-116.25 431.36,-110.45 425.8,-106.18"/>
</g>
<!-- Node18&#45;&gt;Node8 -->
<g id="edge27" class="edge">
<title>Node18&#45;&gt;Node8</title>
<path fill="none" stroke="midnightblue" d="M388.27,-111.32C370.05,-101.32 346.44,-88.36 330.56,-79.64"/>
<polygon fill="midnightblue" stroke="midnightblue" points="386.78,-114.5 397.23,-116.25 390.15,-108.36 386.78,-114.5"/>
</g>
<!-- Node18&#45;&gt;Node9 -->
<g id="edge28" class="edge">
<title>Node18&#45;&gt;Node9</title>
<path fill="none" stroke="midnightblue" d="M379.87,-118.61C375.21,-117.7 370.5,-116.8 366,-116 261.54,-97.39 233.48,-103.44 130,-80 127.31,-79.39 124.53,-78.68 121.76,-77.92"/>
<polygon fill="midnightblue" stroke="midnightblue" points="379.37,-122.08 389.87,-120.62 380.75,-115.22 379.37,-122.08"/>
</g>
<!-- Node18&#45;&gt;Node11 -->
<g id="edge29" class="edge">
<title>Node18&#45;&gt;Node11</title>
<path fill="none" stroke="midnightblue" d="M447.98,-112.52C472.93,-102.32 506.57,-88.57 528.76,-79.5"/>
<polygon fill="midnightblue" stroke="midnightblue" points="446.48,-109.35 438.55,-116.37 449.13,-115.83 446.48,-109.35"/>
</g>
<!-- Node18&#45;&gt;Node14 -->
<g id="edge26" class="edge">
<title>Node18&#45;&gt;Node14</title>
<path fill="none" stroke="midnightblue" d="M449.7,-116.07C449.8,-116.04 449.9,-116.02 450,-116 555.41,-93.14 584.59,-102.86 690,-80 693.09,-79.33 696.3,-78.54 699.48,-77.7"/>
<polygon fill="midnightblue" stroke="midnightblue" points="449.02,-112.63 440.14,-118.4 450.68,-119.43 449.02,-112.63"/>
</g>
</g>
</svg>
