<?xml version="1.0" encoding="UTF-8" standalone="no"?>
<!DOCTYPE svg PUBLIC "-//W3C//DTD SVG 1.1//EN"
 "http://www.w3.org/Graphics/SVG/1.1/DTD/svg11.dtd">
<!-- Generated by graphviz version 2.44.0 ()
 -->
<!-- Title: str.c Pages: 1 -->
<svg width="779pt" height="726pt"
 viewBox="0.00 0.00 779.14 726.00" xmlns="http://www.w3.org/2000/svg" xmlns:xlink="http://www.w3.org/1999/xlink">
<g id="graph0" class="graph" transform="scale(1 1) rotate(0) translate(4 722)">
<title>str.c</title>
<polygon fill="white" stroke="transparent" points="-4,4 -4,-722 775.14,-722 775.14,4 -4,4"/>
<!-- Node1 -->
<g id="node1" class="node">
<title>Node1</title>
<g id="a_node1"><a xlink:title=" ">
<polygon fill="#bfbfbf" stroke="black" points="229.14,-696.5 229.14,-717.5 267.14,-717.5 267.14,-696.5 229.14,-696.5"/>
<text text-anchor="middle" x="248.14" y="-703.9" font-family="DejaVuSans" font-size="12.00">str.c</text>
</a>
</g>
</g>
<!-- Node2 -->
<g id="node2" class="node">
<title>Node2</title>
<g id="a_node2"><a xlink:title=" ">
<polygon fill="white" stroke="#bfbfbf" points="251.14,-0.5 251.14,-21.5 303.14,-21.5 303.14,-0.5 251.14,-0.5"/>
<text text-anchor="middle" x="277.14" y="-7.9" font-family="DejaVuSans" font-size="12.00">stdio.h</text>
</a>
</g>
</g>
<!-- Node1&#45;&gt;Node2 -->
<g id="edge1" class="edge">
<title>Node1&#45;&gt;Node2</title>
<path fill="none" stroke="midnightblue" d="M230.54,-696.41C217.45,-688.38 200.17,-675.7 190.14,-660 175.86,-637.65 181.51,-627.97 176.14,-602 127.14,-364.89 7.38,-255.71 147.14,-58 152.81,-49.98 204.61,-33.35 241.08,-22.43"/>
<polygon fill="midnightblue" stroke="midnightblue" points="242.32,-25.72 250.91,-19.52 240.33,-19.01 242.32,-25.72"/>
</g>
<!-- Node3 -->
<g id="node3" class="node">
<title>Node3</title>
<g id="a_node3"><a xlink:title=" ">
<polygon fill="white" stroke="#bfbfbf" points="58.14,-638.5 58.14,-659.5 114.14,-659.5 114.14,-638.5 58.14,-638.5"/>
<text text-anchor="middle" x="86.14" y="-645.9" font-family="DejaVuSans" font-size="12.00">string.h</text>
</a>
</g>
</g>
<!-- Node1&#45;&gt;Node3 -->
<g id="edge2" class="edge">
<title>Node1&#45;&gt;Node3</title>
<path fill="none" stroke="midnightblue" d="M228.92,-699.36C203.02,-690.4 156.37,-674.28 123.45,-662.9"/>
<polygon fill="midnightblue" stroke="midnightblue" points="124.31,-659.49 113.72,-659.53 122.03,-666.11 124.31,-659.49"/>
</g>
<!-- Node4 -->
<g id="node4" class="node">
<title>Node4</title>
<g id="a_node4"><a xlink:href="global__const_8h.html" target="_top" xlink:title=" ">
<polygon fill="white" stroke="black" points="155.64,-58.5 155.64,-79.5 248.64,-79.5 248.64,-58.5 155.64,-58.5"/>
<text text-anchor="middle" x="202.14" y="-65.9" font-family="DejaVuSans" font-size="12.00">global_const.h</text>
</a>
</g>
</g>
<!-- Node1&#45;&gt;Node4 -->
<g id="edge3" class="edge">
<title>Node1&#45;&gt;Node4</title>
<path fill="none" stroke="midnightblue" d="M228.96,-704.52C183.55,-700.59 71.54,-688.17 49.14,-660 -97.69,-475.36 127.25,-164.86 187.8,-87.74"/>
<polygon fill="midnightblue" stroke="midnightblue" points="190.85,-89.52 194.33,-79.52 185.37,-85.17 190.85,-89.52"/>
</g>
<!-- Node6 -->
<g id="node6" class="node">
<title>Node6</title>
<g id="a_node6"><a xlink:href="tex_8h.html" target="_top" xlink:title=" ">
<polygon fill="white" stroke="black" points="487.14,-290.5 487.14,-311.5 529.14,-311.5 529.14,-290.5 487.14,-290.5"/>
<text text-anchor="middle" x="508.14" y="-297.9" font-family="DejaVuSans" font-size="12.00">tex.h</text>
</a>
</g>
</g>
<!-- Node1&#45;&gt;Node6 -->
<g id="edge6" class="edge">
<title>Node1&#45;&gt;Node6</title>
<path fill="none" stroke="midnightblue" d="M267.38,-706C361.73,-705.5 771.14,-697.24 771.14,-592 771.14,-592 771.14,-592 771.14,-532 771.14,-409.72 608.06,-337.4 538.74,-312.18"/>
<polygon fill="midnightblue" stroke="midnightblue" points="539.81,-308.85 529.22,-308.8 537.47,-315.45 539.81,-308.85"/>
</g>
<!-- Node12 -->
<g id="node12" class="node">
<title>Node12</title>
<g id="a_node12"><a xlink:href="str_8h.html" target="_top" xlink:title=" ">
<polygon fill="white" stroke="black" points="309.64,-116.5 309.64,-137.5 348.64,-137.5 348.64,-116.5 309.64,-116.5"/>
<text text-anchor="middle" x="329.14" y="-123.9" font-family="DejaVuSans" font-size="12.00">str.h</text>
</a>
</g>
</g>
<!-- Node1&#45;&gt;Node12 -->
<g id="edge44" class="edge">
<title>Node1&#45;&gt;Node12</title>
<path fill="none" stroke="midnightblue" d="M237.52,-696.48C218.39,-678.25 180.14,-636.25 180.14,-592 180.14,-592 180.14,-592 180.14,-242 180.14,-182.45 256.15,-149.81 299.59,-136.02"/>
<polygon fill="midnightblue" stroke="midnightblue" points="300.8,-139.31 309.36,-133.06 298.77,-132.61 300.8,-139.31"/>
</g>
<!-- Node13 -->
<g id="node13" class="node">
<title>Node13</title>
<g id="a_node13"><a xlink:href="macros_8h.html" target="_top" xlink:title=" ">
<polygon fill="white" stroke="black" points="246.64,-638.5 246.64,-659.5 311.64,-659.5 311.64,-638.5 246.64,-638.5"/>
<text text-anchor="middle" x="279.14" y="-645.9" font-family="DejaVuSans" font-size="12.00">macros.h</text>
</a>
</g>
</g>
<!-- Node1&#45;&gt;Node13 -->
<g id="edge17" class="edge">
<title>Node1&#45;&gt;Node13</title>
<path fill="none" stroke="midnightblue" d="M253.54,-696.25C257.76,-688.62 263.76,-677.79 268.89,-668.53"/>
<polygon fill="midnightblue" stroke="midnightblue" points="272.02,-670.09 273.8,-659.64 265.9,-666.7 272.02,-670.09"/>
</g>
<!-- Node14 -->
<g id="node14" class="node">
<title>Node14</title>
<g id="a_node14"><a xlink:href="texfunc_8h.html" target="_top" xlink:title=" ">
<polygon fill="white" stroke="black" points="208.64,-580.5 208.64,-601.5 273.64,-601.5 273.64,-580.5 208.64,-580.5"/>
<text text-anchor="middle" x="241.14" y="-587.9" font-family="DejaVuSans" font-size="12.00">texfunc.h</text>
</a>
</g>
</g>
<!-- Node1&#45;&gt;Node14 -->
<g id="edge18" class="edge">
<title>Node1&#45;&gt;Node14</title>
<path fill="none" stroke="midnightblue" d="M245.38,-696.23C242.92,-686.98 239.5,-672.68 238.14,-660 236.41,-643.84 237.4,-625.43 238.69,-611.84"/>
<polygon fill="midnightblue" stroke="midnightblue" points="242.19,-612.03 239.79,-601.71 235.23,-611.28 242.19,-612.03"/>
</g>
<!-- Node15 -->
<g id="node15" class="node">
<title>Node15</title>
<g id="a_node15"><a xlink:href="error_8h.html" target="_top" xlink:title=" ">
<polygon fill="white" stroke="black" points="368.64,-638.5 368.64,-659.5 419.64,-659.5 419.64,-638.5 368.64,-638.5"/>
<text text-anchor="middle" x="394.14" y="-645.9" font-family="DejaVuSans" font-size="12.00">error.h</text>
</a>
</g>
</g>
<!-- Node1&#45;&gt;Node15 -->
<g id="edge20" class="edge">
<title>Node1&#45;&gt;Node15</title>
<path fill="none" stroke="midnightblue" d="M267.23,-698.68C290.6,-689.72 330.62,-674.36 359.49,-663.29"/>
<polygon fill="midnightblue" stroke="midnightblue" points="361.1,-666.42 369.18,-659.57 358.59,-659.89 361.1,-666.42"/>
</g>
<!-- Node16 -->
<g id="node16" class="node">
<title>Node16</title>
<g id="a_node16"><a xlink:href="hash_8h.html" target="_top" xlink:title=" ">
<polygon fill="white" stroke="black" points="317.64,-348.5 317.64,-369.5 370.64,-369.5 370.64,-348.5 317.64,-348.5"/>
<text text-anchor="middle" x="344.14" y="-355.9" font-family="DejaVuSans" font-size="12.00">hash.h</text>
</a>
</g>
</g>
<!-- Node1&#45;&gt;Node16 -->
<g id="edge21" class="edge">
<title>Node1&#45;&gt;Node16</title>
<path fill="none" stroke="midnightblue" d="M267.43,-698.58C284.04,-691.22 307.44,-678.38 321.14,-660 339.89,-634.84 340.14,-623.38 340.14,-592 340.14,-592 340.14,-592 340.14,-474 340.14,-440.96 341.84,-402.58 343.02,-379.84"/>
<polygon fill="midnightblue" stroke="midnightblue" points="346.52,-379.93 343.57,-369.76 339.53,-379.55 346.52,-379.93"/>
</g>
<!-- Node19 -->
<g id="node19" class="node">
<title>Node19</title>
<g id="a_node19"><a xlink:href="print_8h.html" target="_top" xlink:title=" ">
<polygon fill="white" stroke="black" points="444.14,-638.5 444.14,-659.5 494.14,-659.5 494.14,-638.5 444.14,-638.5"/>
<text text-anchor="middle" x="469.14" y="-645.9" font-family="DejaVuSans" font-size="12.00">print.h</text>
</a>
</g>
</g>
<!-- Node1&#45;&gt;Node19 -->
<g id="edge30" class="edge">
<title>Node1&#45;&gt;Node19</title>
<path fill="none" stroke="midnightblue" d="M267.37,-701.13C304.64,-691.68 387.21,-670.76 434.36,-658.81"/>
<polygon fill="midnightblue" stroke="midnightblue" points="435.3,-662.19 444.13,-656.34 433.58,-655.4 435.3,-662.19"/>
</g>
<!-- Node4&#45;&gt;Node2 -->
<g id="edge5" class="edge">
<title>Node4&#45;&gt;Node2</title>
<path fill="none" stroke="midnightblue" d="M215.21,-58.25C226.5,-49.81 243.03,-37.47 256.17,-27.66"/>
<polygon fill="midnightblue" stroke="midnightblue" points="258.31,-30.43 264.23,-21.64 254.12,-24.82 258.31,-30.43"/>
</g>
<!-- Node5 -->
<g id="node5" class="node">
<title>Node5</title>
<g id="a_node5"><a xlink:title=" ">
<polygon fill="white" stroke="#bfbfbf" points="172.64,-0.5 172.64,-21.5 231.64,-21.5 231.64,-0.5 172.64,-0.5"/>
<text text-anchor="middle" x="202.14" y="-7.9" font-family="DejaVuSans" font-size="12.00">assert.h</text>
</a>
</g>
</g>
<!-- Node4&#45;&gt;Node5 -->
<g id="edge4" class="edge">
<title>Node4&#45;&gt;Node5</title>
<path fill="none" stroke="midnightblue" d="M202.14,-58.25C202.14,-50.94 202.14,-40.69 202.14,-31.7"/>
<polygon fill="midnightblue" stroke="midnightblue" points="205.64,-31.64 202.14,-21.64 198.64,-31.64 205.64,-31.64"/>
</g>
<!-- Node7 -->
<g id="node7" class="node">
<title>Node7</title>
<g id="a_node7"><a xlink:href="tex__types_8h.html" target="_top" xlink:title=" ">
<polygon fill="white" stroke="black" points="540.64,-58.5 540.64,-79.5 617.64,-79.5 617.64,-58.5 540.64,-58.5"/>
<text text-anchor="middle" x="579.14" y="-65.9" font-family="DejaVuSans" font-size="12.00">tex_types.h</text>
</a>
</g>
</g>
<!-- Node6&#45;&gt;Node7 -->
<g id="edge7" class="edge">
<title>Node6&#45;&gt;Node7</title>
<path fill="none" stroke="midnightblue" d="M522.05,-290.37C532.91,-282.05 547.41,-269.03 555.14,-254 582.94,-199.95 582.8,-125.63 580.8,-90.27"/>
<polygon fill="midnightblue" stroke="midnightblue" points="584.27,-89.6 580.09,-79.86 577.28,-90.08 584.27,-89.6"/>
</g>
<!-- Node10 -->
<g id="node10" class="node">
<title>Node10</title>
<g id="a_node10"><a xlink:href="tex__constant_8h.html" target="_top" xlink:title=" ">
<polygon fill="white" stroke="black" points="419.14,-232.5 419.14,-253.5 513.14,-253.5 513.14,-232.5 419.14,-232.5"/>
<text text-anchor="middle" x="466.14" y="-239.9" font-family="DejaVuSans" font-size="12.00">tex_constant.h</text>
</a>
</g>
</g>
<!-- Node6&#45;&gt;Node10 -->
<g id="edge10" class="edge">
<title>Node6&#45;&gt;Node10</title>
<path fill="none" stroke="midnightblue" d="M500.83,-290.25C494.92,-282.38 486.47,-271.1 479.38,-261.65"/>
<polygon fill="midnightblue" stroke="midnightblue" points="482.17,-259.54 473.37,-253.64 476.57,-263.74 482.17,-259.54"/>
</g>
<!-- Node8 -->
<g id="node8" class="node">
<title>Node8</title>
<g id="a_node8"><a xlink:title=" ">
<polygon fill="white" stroke="#bfbfbf" points="546.64,-0.5 546.64,-21.5 611.64,-21.5 611.64,-0.5 546.64,-0.5"/>
<text text-anchor="middle" x="579.14" y="-7.9" font-family="DejaVuSans" font-size="12.00">stdbool.h</text>
</a>
</g>
</g>
<!-- Node7&#45;&gt;Node8 -->
<g id="edge8" class="edge">
<title>Node7&#45;&gt;Node8</title>
<path fill="none" stroke="midnightblue" d="M579.14,-58.25C579.14,-50.94 579.14,-40.69 579.14,-31.7"/>
<polygon fill="midnightblue" stroke="midnightblue" points="582.64,-31.64 579.14,-21.64 575.64,-31.64 582.64,-31.64"/>
</g>
<!-- Node9 -->
<g id="node9" class="node">
<title>Node9</title>
<g id="a_node9"><a xlink:title=" ">
<polygon fill="white" stroke="#bfbfbf" points="418.64,-0.5 418.64,-21.5 473.64,-21.5 473.64,-0.5 418.64,-0.5"/>
<text text-anchor="middle" x="446.14" y="-7.9" font-family="DejaVuSans" font-size="12.00">stdint.h</text>
</a>
</g>
</g>
<!-- Node7&#45;&gt;Node9 -->
<g id="edge9" class="edge">
<title>Node7&#45;&gt;Node9</title>
<path fill="none" stroke="midnightblue" d="M556.28,-58.37C534.74,-49.3 502.26,-35.63 478.15,-25.48"/>
<polygon fill="midnightblue" stroke="midnightblue" points="479.28,-22.16 468.71,-21.5 476.56,-28.61 479.28,-22.16"/>
</g>
<!-- Node11 -->
<g id="node11" class="node">
<title>Node11</title>
<g id="a_node11"><a xlink:href="box_8h.html" target="_top" xlink:title=" ">
<polygon fill="white" stroke="black" points="433.14,-174.5 433.14,-195.5 479.14,-195.5 479.14,-174.5 433.14,-174.5"/>
<text text-anchor="middle" x="456.14" y="-181.9" font-family="DejaVuSans" font-size="12.00">box.h</text>
</a>
</g>
</g>
<!-- Node10&#45;&gt;Node11 -->
<g id="edge11" class="edge">
<title>Node10&#45;&gt;Node11</title>
<path fill="none" stroke="midnightblue" d="M464.4,-232.25C463.09,-224.94 461.27,-214.69 459.66,-205.7"/>
<polygon fill="midnightblue" stroke="midnightblue" points="463.07,-204.87 457.86,-195.64 456.18,-206.1 463.07,-204.87"/>
</g>
<!-- Node11&#45;&gt;Node12 -->
<g id="edge12" class="edge">
<title>Node11&#45;&gt;Node12</title>
<path fill="none" stroke="midnightblue" d="M434.31,-174.37C413.33,-165.12 381.5,-151.09 358.35,-140.88"/>
<polygon fill="midnightblue" stroke="midnightblue" points="359.58,-137.6 349.02,-136.76 356.76,-144 359.58,-137.6"/>
</g>
<!-- Node12&#45;&gt;Node2 -->
<g id="edge13" class="edge">
<title>Node12&#45;&gt;Node2</title>
<path fill="none" stroke="midnightblue" d="M324.71,-116.28C316.11,-97.43 297.04,-55.62 285.83,-31.05"/>
<polygon fill="midnightblue" stroke="midnightblue" points="288.9,-29.34 281.56,-21.69 282.53,-32.25 288.9,-29.34"/>
</g>
<!-- Node12&#45;&gt;Node4 -->
<g id="edge15" class="edge">
<title>Node12&#45;&gt;Node4</title>
<path fill="none" stroke="midnightblue" d="M309.58,-117.37C289.27,-108.42 257.22,-94.29 233.4,-83.78"/>
<polygon fill="midnightblue" stroke="midnightblue" points="234.64,-80.5 224.07,-79.67 231.81,-86.91 234.64,-80.5"/>
</g>
<!-- Node12&#45;&gt;Node7 -->
<g id="edge16" class="edge">
<title>Node12&#45;&gt;Node7</title>
<path fill="none" stroke="midnightblue" d="M348.76,-121.61C387.55,-112.92 475.1,-93.31 530.4,-80.92"/>
<polygon fill="midnightblue" stroke="midnightblue" points="531.34,-84.29 540.34,-78.69 529.81,-77.46 531.34,-84.29"/>
</g>
<!-- Node12&#45;&gt;Node9 -->
<g id="edge14" class="edge">
<title>Node12&#45;&gt;Node9</title>
<path fill="none" stroke="midnightblue" d="M339.12,-116.28C359.06,-96.85 404.07,-52.99 428.9,-28.8"/>
<polygon fill="midnightblue" stroke="midnightblue" points="431.47,-31.18 436.19,-21.69 426.59,-26.17 431.47,-31.18"/>
</g>
<!-- Node14&#45;&gt;Node12 -->
<g id="edge19" class="edge">
<title>Node14&#45;&gt;Node12</title>
<path fill="none" stroke="midnightblue" d="M240.85,-580.24C240.3,-560.54 239.14,-514.6 239.14,-476 239.14,-476 239.14,-476 239.14,-300 239.14,-241.11 248.57,-223.71 280.14,-174 287.4,-162.57 298.14,-152.06 307.72,-143.97"/>
<polygon fill="midnightblue" stroke="midnightblue" points="310.13,-146.53 315.72,-137.53 305.74,-141.07 310.13,-146.53"/>
</g>
<!-- Node16&#45;&gt;Node6 -->
<g id="edge22" class="edge">
<title>Node16&#45;&gt;Node6</title>
<path fill="none" stroke="midnightblue" d="M370.86,-348.88C399.89,-338.97 446.22,-323.14 476.91,-312.66"/>
<polygon fill="midnightblue" stroke="midnightblue" points="478.34,-315.87 486.67,-309.33 476.08,-309.25 478.34,-315.87"/>
</g>
<!-- Node16&#45;&gt;Node12 -->
<g id="edge23" class="edge">
<title>Node16&#45;&gt;Node12</title>
<path fill="none" stroke="midnightblue" d="M343.52,-348.41C341.26,-313.85 333.53,-195.24 330.43,-147.82"/>
<polygon fill="midnightblue" stroke="midnightblue" points="333.91,-147.38 329.77,-137.63 326.93,-147.84 333.91,-147.38"/>
</g>
<!-- Node17 -->
<g id="node17" class="node">
<title>Node17</title>
<g id="a_node17"><a xlink:href="fonts_8h.html" target="_top" xlink:title=" ">
<polygon fill="white" stroke="black" points="192.14,-116.5 192.14,-137.5 244.14,-137.5 244.14,-116.5 192.14,-116.5"/>
<text text-anchor="middle" x="218.14" y="-123.9" font-family="DejaVuSans" font-size="12.00">fonts.h</text>
</a>
</g>
</g>
<!-- Node16&#45;&gt;Node17 -->
<g id="edge24" class="edge">
<title>Node16&#45;&gt;Node17</title>
<path fill="none" stroke="midnightblue" d="M338.89,-348.41C319.8,-313.56 253.88,-193.23 228.35,-146.63"/>
<polygon fill="midnightblue" stroke="midnightblue" points="231.29,-144.72 223.42,-137.63 225.15,-148.08 231.29,-144.72"/>
</g>
<!-- Node18 -->
<g id="node18" class="node">
<title>Node18</title>
<g id="a_node18"><a xlink:href="eqtb_8h.html" target="_top" xlink:title=" ">
<polygon fill="white" stroke="black" points="419.14,-290.5 419.14,-311.5 469.14,-311.5 469.14,-290.5 419.14,-290.5"/>
<text text-anchor="middle" x="444.14" y="-297.9" font-family="DejaVuSans" font-size="12.00">eqtb.h</text>
</a>
</g>
</g>
<!-- Node16&#45;&gt;Node18 -->
<g id="edge27" class="edge">
<title>Node16&#45;&gt;Node18</title>
<path fill="none" stroke="midnightblue" d="M361.56,-348.25C377.19,-339.49 400.34,-326.53 418.16,-316.55"/>
<polygon fill="midnightblue" stroke="midnightblue" points="419.91,-319.58 426.92,-311.64 416.49,-313.47 419.91,-319.58"/>
</g>
<!-- Node17&#45;&gt;Node2 -->
<g id="edge25" class="edge">
<title>Node17&#45;&gt;Node2</title>
<path fill="none" stroke="midnightblue" d="M228.48,-116.33C237.25,-107.6 249.59,-94.01 257.14,-80 265.35,-64.79 270.57,-45.8 273.61,-31.76"/>
<polygon fill="midnightblue" stroke="midnightblue" points="277.09,-32.21 275.6,-21.72 270.22,-30.85 277.09,-32.21"/>
</g>
<!-- Node17&#45;&gt;Node4 -->
<g id="edge26" class="edge">
<title>Node17&#45;&gt;Node4</title>
<path fill="none" stroke="midnightblue" d="M215.35,-116.25C213.24,-108.86 210.28,-98.47 207.69,-89.41"/>
<polygon fill="midnightblue" stroke="midnightblue" points="211.01,-88.3 204.9,-79.64 204.28,-90.22 211.01,-88.3"/>
</g>
<!-- Node18&#45;&gt;Node7 -->
<g id="edge28" class="edge">
<title>Node18&#45;&gt;Node7</title>
<path fill="none" stroke="midnightblue" d="M469.26,-290.86C486.44,-283.4 508.49,-271.26 522.14,-254 561.83,-203.82 574.03,-125.89 577.66,-89.7"/>
<polygon fill="midnightblue" stroke="midnightblue" points="581.17,-89.78 578.57,-79.51 574.2,-89.16 581.17,-89.78"/>
</g>
<!-- Node18&#45;&gt;Node10 -->
<g id="edge29" class="edge">
<title>Node18&#45;&gt;Node10</title>
<path fill="none" stroke="midnightblue" d="M447.97,-290.25C450.91,-282.78 455.05,-272.24 458.63,-263.11"/>
<polygon fill="midnightblue" stroke="midnightblue" points="461.95,-264.23 462.35,-253.64 455.44,-261.67 461.95,-264.23"/>
</g>
<!-- Node19&#45;&gt;Node6 -->
<g id="edge32" class="edge">
<title>Node19&#45;&gt;Node6</title>
<path fill="none" stroke="midnightblue" d="M469.14,-638.24C469.14,-618.54 469.14,-572.59 469.14,-534 469.14,-534 469.14,-534 469.14,-416 469.14,-380.81 485.98,-342.64 497.53,-320.6"/>
<polygon fill="midnightblue" stroke="midnightblue" points="500.68,-322.14 502.39,-311.68 494.53,-318.79 500.68,-322.14"/>
</g>
<!-- Node19&#45;&gt;Node7 -->
<g id="edge31" class="edge">
<title>Node19&#45;&gt;Node7</title>
<path fill="none" stroke="midnightblue" d="M494.58,-643.31C521.81,-637.33 565.23,-624.89 596.14,-602 702.81,-523.01 771.14,-492.73 771.14,-360 771.14,-360 771.14,-360 771.14,-184 771.14,-117.44 684.78,-88.88 627.9,-77.29"/>
<polygon fill="midnightblue" stroke="midnightblue" points="628.48,-73.84 618,-75.38 627.15,-80.71 628.48,-73.84"/>
</g>
<!-- Node19&#45;&gt;Node12 -->
<g id="edge43" class="edge">
<title>Node19&#45;&gt;Node12</title>
<path fill="none" stroke="midnightblue" d="M460.55,-638.36C431.17,-604.61 335.14,-487.44 309.14,-370 291.16,-288.76 312.79,-188.95 323.64,-147.49"/>
<polygon fill="midnightblue" stroke="midnightblue" points="327.02,-148.39 326.26,-137.82 320.27,-146.56 327.02,-148.39"/>
</g>
<!-- Node20 -->
<g id="node20" class="node">
<title>Node20</title>
<g id="a_node20"><a xlink:href="texmac_8h.html" target="_top" xlink:title=" ">
<polygon fill="white" stroke="black" points="521.64,-580.5 521.64,-601.5 586.64,-601.5 586.64,-580.5 521.64,-580.5"/>
<text text-anchor="middle" x="554.14" y="-587.9" font-family="DejaVuSans" font-size="12.00">texmac.h</text>
</a>
</g>
</g>
<!-- Node19&#45;&gt;Node20 -->
<g id="edge33" class="edge">
<title>Node19&#45;&gt;Node20</title>
<path fill="none" stroke="midnightblue" d="M483.95,-638.25C496.87,-629.73 515.83,-617.24 530.8,-607.38"/>
<polygon fill="midnightblue" stroke="midnightblue" points="533.08,-610.07 539.5,-601.64 529.23,-604.22 533.08,-610.07"/>
</g>
<!-- Node21 -->
<g id="node21" class="node">
<title>Node21</title>
<g id="a_node21"><a xlink:href="mem_8h.html" target="_top" xlink:title=" ">
<polygon fill="white" stroke="black" points="550.64,-522.5 550.64,-543.5 603.64,-543.5 603.64,-522.5 550.64,-522.5"/>
<text text-anchor="middle" x="577.14" y="-529.9" font-family="DejaVuSans" font-size="12.00">mem.h</text>
</a>
</g>
</g>
<!-- Node20&#45;&gt;Node21 -->
<g id="edge34" class="edge">
<title>Node20&#45;&gt;Node21</title>
<path fill="none" stroke="midnightblue" d="M558.15,-580.25C561.21,-572.78 565.54,-562.24 569.29,-553.11"/>
<polygon fill="midnightblue" stroke="midnightblue" points="572.62,-554.22 573.18,-543.64 566.14,-551.56 572.62,-554.22"/>
</g>
<!-- Node21&#45;&gt;Node7 -->
<g id="edge35" class="edge">
<title>Node21&#45;&gt;Node7</title>
<path fill="none" stroke="midnightblue" d="M599.89,-522.46C634.18,-506.37 695.14,-470.41 695.14,-418 695.14,-418 695.14,-418 695.14,-184 695.14,-136.38 644.8,-102.03 610.44,-84.13"/>
<polygon fill="midnightblue" stroke="midnightblue" points="611.74,-80.86 601.23,-79.52 608.61,-87.12 611.74,-80.86"/>
</g>
<!-- Node22 -->
<g id="node22" class="node">
<title>Node22</title>
<g id="a_node22"><a xlink:href="global_8h.html" target="_top" xlink:title=" ">
<polygon fill="white" stroke="black" points="548.14,-464.5 548.14,-485.5 606.14,-485.5 606.14,-464.5 548.14,-464.5"/>
<text text-anchor="middle" x="577.14" y="-471.9" font-family="DejaVuSans" font-size="12.00">global.h</text>
</a>
</g>
</g>
<!-- Node21&#45;&gt;Node22 -->
<g id="edge36" class="edge">
<title>Node21&#45;&gt;Node22</title>
<path fill="none" stroke="midnightblue" d="M577.14,-522.25C577.14,-514.94 577.14,-504.69 577.14,-495.7"/>
<polygon fill="midnightblue" stroke="midnightblue" points="580.64,-495.64 577.14,-485.64 573.64,-495.64 580.64,-495.64"/>
</g>
<!-- Node22&#45;&gt;Node12 -->
<g id="edge38" class="edge">
<title>Node22&#45;&gt;Node12</title>
<path fill="none" stroke="midnightblue" d="M577.84,-464.33C580.31,-421.59 583.98,-248.55 488.14,-174 450.07,-144.39 393.58,-133.83 359.18,-130.07"/>
<polygon fill="midnightblue" stroke="midnightblue" points="359.13,-126.55 348.84,-129.08 358.46,-133.52 359.13,-126.55"/>
</g>
<!-- Node23 -->
<g id="node23" class="node">
<title>Node23</title>
<g id="a_node23"><a xlink:title=" ">
<polygon fill="white" stroke="#bfbfbf" points="605.14,-406.5 605.14,-427.5 667.14,-427.5 667.14,-406.5 605.14,-406.5"/>
<text text-anchor="middle" x="636.14" y="-413.9" font-family="DejaVuSans" font-size="12.00">setjmp.h</text>
</a>
</g>
</g>
<!-- Node22&#45;&gt;Node23 -->
<g id="edge37" class="edge">
<title>Node22&#45;&gt;Node23</title>
<path fill="none" stroke="midnightblue" d="M587.42,-464.25C595.96,-456.14 608.32,-444.41 618.45,-434.79"/>
<polygon fill="midnightblue" stroke="midnightblue" points="621.14,-437.07 625.98,-427.64 616.32,-431.99 621.14,-437.07"/>
</g>
<!-- Node24 -->
<g id="node24" class="node">
<title>Node24</title>
<g id="a_node24"><a xlink:href="scan_8h.html" target="_top" xlink:title=" ">
<polygon fill="white" stroke="black" points="497.14,-406.5 497.14,-427.5 549.14,-427.5 549.14,-406.5 497.14,-406.5"/>
<text text-anchor="middle" x="523.14" y="-413.9" font-family="DejaVuSans" font-size="12.00">scan.h</text>
</a>
</g>
</g>
<!-- Node22&#45;&gt;Node24 -->
<g id="edge39" class="edge">
<title>Node22&#45;&gt;Node24</title>
<path fill="none" stroke="midnightblue" d="M567.74,-464.25C559.99,-456.22 548.83,-444.64 539.61,-435.08"/>
<polygon fill="midnightblue" stroke="midnightblue" points="541.9,-432.41 532.44,-427.64 536.86,-437.27 541.9,-432.41"/>
</g>
<!-- Node25 -->
<g id="node25" class="node">
<title>Node25</title>
<g id="a_node25"><a xlink:href="lexer_8h.html" target="_top" xlink:title=" ">
<polygon fill="white" stroke="black" points="389.14,-348.5 389.14,-369.5 441.14,-369.5 441.14,-348.5 389.14,-348.5"/>
<text text-anchor="middle" x="415.14" y="-355.9" font-family="DejaVuSans" font-size="12.00">lexer.h</text>
</a>
</g>
</g>
<!-- Node24&#45;&gt;Node25 -->
<g id="edge40" class="edge">
<title>Node24&#45;&gt;Node25</title>
<path fill="none" stroke="midnightblue" d="M504.33,-406.25C487.29,-397.41 461.98,-384.29 442.67,-374.28"/>
<polygon fill="midnightblue" stroke="midnightblue" points="444.23,-371.14 433.74,-369.64 441,-377.35 444.23,-371.14"/>
</g>
<!-- Node25&#45;&gt;Node2 -->
<g id="edge41" class="edge">
<title>Node25&#45;&gt;Node2</title>
<path fill="none" stroke="midnightblue" d="M411.7,-348.38C405.07,-328.94 391.14,-283.44 391.14,-244 391.14,-244 391.14,-244 391.14,-126 391.14,-78.8 341.67,-44.31 307.9,-26.27"/>
<polygon fill="midnightblue" stroke="midnightblue" points="309.35,-23.08 298.85,-21.63 306.15,-29.31 309.35,-23.08"/>
</g>
<!-- Node25&#45;&gt;Node6 -->
<g id="edge42" class="edge">
<title>Node25&#45;&gt;Node6</title>
<path fill="none" stroke="midnightblue" d="M431.34,-348.25C445.74,-339.57 467.01,-326.76 483.52,-316.82"/>
<polygon fill="midnightblue" stroke="midnightblue" points="485.37,-319.8 492.13,-311.64 481.76,-313.8 485.37,-319.8"/>
</g>
</g>
</svg>
