<?xml version="1.0" encoding="UTF-8" standalone="no"?>
<!DOCTYPE svg PUBLIC "-//W3C//DTD SVG 1.1//EN"
 "http://www.w3.org/Graphics/SVG/1.1/DTD/svg11.dtd">
<!-- Generated by graphviz version 2.44.0 ()
 -->
<!-- Title: str.c Pages: 1 -->
<svg width="912pt" height="494pt"
 viewBox="0.00 0.00 911.50 494.00" xmlns="http://www.w3.org/2000/svg" xmlns:xlink="http://www.w3.org/1999/xlink">
<g id="graph0" class="graph" transform="scale(1 1) rotate(0) translate(4 490)">
<title>str.c</title>
<polygon fill="white" stroke="transparent" points="-4,4 -4,-490 907.5,-490 907.5,4 -4,4"/>
<!-- Node1 -->
<g id="node1" class="node">
<title>Node1</title>
<g id="a_node1"><a xlink:title=" ">
<polygon fill="#bfbfbf" stroke="black" points="453,-464.5 453,-485.5 491,-485.5 491,-464.5 453,-464.5"/>
<text text-anchor="middle" x="472" y="-471.9" font-family="DejaVuSans" font-size="12.00">str.c</text>
</a>
</g>
</g>
<!-- Node2 -->
<g id="node2" class="node">
<title>Node2</title>
<g id="a_node2"><a xlink:title=" ">
<polygon fill="white" stroke="#bfbfbf" points="97,-58.5 97,-79.5 149,-79.5 149,-58.5 97,-58.5"/>
<text text-anchor="middle" x="123" y="-65.9" font-family="DejaVuSans" font-size="12.00">stdio.h</text>
</a>
</g>
</g>
<!-- Node1&#45;&gt;Node2 -->
<g id="edge1" class="edge">
<title>Node1&#45;&gt;Node2</title>
<path fill="none" stroke="midnightblue" d="M452.91,-473.56C364.61,-471.03 0,-454.84 0,-360 0,-360 0,-360 0,-184 0,-135.09 52.96,-101.28 89.38,-83.82"/>
<polygon fill="midnightblue" stroke="midnightblue" points="91.08,-86.89 98.7,-79.53 88.15,-80.53 91.08,-86.89"/>
</g>
<!-- Node3 -->
<g id="node3" class="node">
<title>Node3</title>
<g id="a_node3"><a xlink:title=" ">
<polygon fill="white" stroke="#bfbfbf" points="669,-406.5 669,-427.5 725,-427.5 725,-406.5 669,-406.5"/>
<text text-anchor="middle" x="697" y="-413.9" font-family="DejaVuSans" font-size="12.00">string.h</text>
</a>
</g>
</g>
<!-- Node1&#45;&gt;Node3 -->
<g id="edge2" class="edge">
<title>Node1&#45;&gt;Node3</title>
<path fill="none" stroke="midnightblue" d="M491.18,-469.23C528.29,-459.99 610.51,-439.53 659.05,-427.45"/>
<polygon fill="midnightblue" stroke="midnightblue" points="660.01,-430.81 668.87,-425 658.32,-424.02 660.01,-430.81"/>
</g>
<!-- Node4 -->
<g id="node4" class="node">
<title>Node4</title>
<g id="a_node4"><a xlink:href="global__const_8h.html" target="_top" xlink:title=" ">
<polygon fill="white" stroke="black" points="151.5,-116.5 151.5,-137.5 244.5,-137.5 244.5,-116.5 151.5,-116.5"/>
<text text-anchor="middle" x="198" y="-123.9" font-family="DejaVuSans" font-size="12.00">global_const.h</text>
</a>
</g>
</g>
<!-- Node1&#45;&gt;Node4 -->
<g id="edge3" class="edge">
<title>Node1&#45;&gt;Node4</title>
<path fill="none" stroke="midnightblue" d="M452.75,-474.06C382.49,-473.1 139.68,-458.95 57,-312 18.54,-243.65 120.34,-172.74 171.14,-142.77"/>
<polygon fill="midnightblue" stroke="midnightblue" points="173.08,-145.69 179.99,-137.66 169.58,-139.63 173.08,-145.69"/>
</g>
<!-- Node6 -->
<g id="node6" class="node">
<title>Node6</title>
<g id="a_node6"><a xlink:href="tex_8h.html" target="_top" xlink:title=" ">
<polygon fill="white" stroke="black" points="378,-348.5 378,-369.5 420,-369.5 420,-348.5 378,-348.5"/>
<text text-anchor="middle" x="399" y="-355.9" font-family="DejaVuSans" font-size="12.00">tex.h</text>
</a>
</g>
</g>
<!-- Node1&#45;&gt;Node6 -->
<g id="edge6" class="edge">
<title>Node1&#45;&gt;Node6</title>
<path fill="none" stroke="midnightblue" d="M452.78,-467.43C435.84,-460.52 412.17,-447.84 401,-428 392.77,-413.38 393.06,-394.05 394.94,-379.74"/>
<polygon fill="midnightblue" stroke="midnightblue" points="398.46,-379.97 396.67,-369.52 391.55,-378.8 398.46,-379.97"/>
</g>
<!-- Node12 -->
<g id="node12" class="node">
<title>Node12</title>
<g id="a_node12"><a xlink:href="str_8h.html" target="_top" xlink:title=" ">
<polygon fill="white" stroke="black" points="330.5,-174.5 330.5,-195.5 369.5,-195.5 369.5,-174.5 330.5,-174.5"/>
<text text-anchor="middle" x="350" y="-181.9" font-family="DejaVuSans" font-size="12.00">str.h</text>
</a>
</g>
</g>
<!-- Node1&#45;&gt;Node12 -->
<g id="edge51" class="edge">
<title>Node1&#45;&gt;Node12</title>
<path fill="none" stroke="midnightblue" d="M452.7,-469.89C410.15,-459.58 312,-428.39 312,-360 312,-360 312,-360 312,-300 312,-264.9 328.41,-226.7 339.66,-204.63"/>
<polygon fill="midnightblue" stroke="midnightblue" points="342.81,-206.17 344.39,-195.7 336.62,-202.9 342.81,-206.17"/>
</g>
<!-- Node15 -->
<g id="node15" class="node">
<title>Node15</title>
<g id="a_node15"><a xlink:href="macros_8h.html" target="_top" xlink:title=" ">
<polygon fill="white" stroke="black" points="66.5,-290.5 66.5,-311.5 131.5,-311.5 131.5,-290.5 66.5,-290.5"/>
<text text-anchor="middle" x="99" y="-297.9" font-family="DejaVuSans" font-size="12.00">macros.h</text>
</a>
</g>
</g>
<!-- Node1&#45;&gt;Node15 -->
<g id="edge22" class="edge">
<title>Node1&#45;&gt;Node15</title>
<path fill="none" stroke="midnightblue" d="M452.97,-470.57C420.44,-464.35 352.37,-449.82 298,-428 248.52,-408.15 238.01,-398.57 193,-370 166.72,-353.32 137.92,-332 119.21,-317.72"/>
<polygon fill="midnightblue" stroke="midnightblue" points="121.2,-314.83 111.13,-311.51 116.93,-320.38 121.2,-314.83"/>
</g>
<!-- Node16 -->
<g id="node16" class="node">
<title>Node16</title>
<g id="a_node16"><a xlink:href="texfunc_8h.html" target="_top" xlink:title=" ">
<polygon fill="white" stroke="black" points="556.5,-232.5 556.5,-253.5 621.5,-253.5 621.5,-232.5 556.5,-232.5"/>
<text text-anchor="middle" x="589" y="-239.9" font-family="DejaVuSans" font-size="12.00">texfunc.h</text>
</a>
</g>
</g>
<!-- Node1&#45;&gt;Node16 -->
<g id="edge23" class="edge">
<title>Node1&#45;&gt;Node16</title>
<path fill="none" stroke="midnightblue" d="M491.06,-467.93C525.15,-455.83 594.95,-425.01 616,-370 629.98,-333.46 612.26,-288.03 599.62,-262.92"/>
<polygon fill="midnightblue" stroke="midnightblue" points="602.55,-260.98 594.79,-253.77 596.37,-264.25 602.55,-260.98"/>
</g>
<!-- Node17 -->
<g id="node17" class="node">
<title>Node17</title>
<g id="a_node17"><a xlink:href="error_8h.html" target="_top" xlink:title=" ">
<polygon fill="white" stroke="black" points="743.5,-406.5 743.5,-427.5 794.5,-427.5 794.5,-406.5 743.5,-406.5"/>
<text text-anchor="middle" x="769" y="-413.9" font-family="DejaVuSans" font-size="12.00">error.h</text>
</a>
</g>
</g>
<!-- Node1&#45;&gt;Node17 -->
<g id="edge26" class="edge">
<title>Node1&#45;&gt;Node17</title>
<path fill="none" stroke="midnightblue" d="M491.2,-471.33C533.26,-465.34 636.8,-449.78 733.53,-427.91"/>
<polygon fill="midnightblue" stroke="midnightblue" points="734.5,-431.27 743.47,-425.63 732.94,-424.45 734.5,-431.27"/>
</g>
<!-- Node18 -->
<g id="node18" class="node">
<title>Node18</title>
<g id="a_node18"><a xlink:href="hash_8h.html" target="_top" xlink:title=" ">
<polygon fill="white" stroke="black" points="410.5,-406.5 410.5,-427.5 463.5,-427.5 463.5,-406.5 410.5,-406.5"/>
<text text-anchor="middle" x="437" y="-413.9" font-family="DejaVuSans" font-size="12.00">hash.h</text>
</a>
</g>
</g>
<!-- Node1&#45;&gt;Node18 -->
<g id="edge27" class="edge">
<title>Node1&#45;&gt;Node18</title>
<path fill="none" stroke="midnightblue" d="M465.9,-464.25C461.09,-456.54 454.22,-445.56 448.4,-436.23"/>
<polygon fill="midnightblue" stroke="midnightblue" points="451.29,-434.27 443.03,-427.64 445.36,-437.98 451.29,-434.27"/>
</g>
<!-- Node21 -->
<g id="node21" class="node">
<title>Node21</title>
<g id="a_node21"><a xlink:href="print_8h.html" target="_top" xlink:title=" ">
<polygon fill="white" stroke="black" points="482,-406.5 482,-427.5 532,-427.5 532,-406.5 482,-406.5"/>
<text text-anchor="middle" x="507" y="-413.9" font-family="DejaVuSans" font-size="12.00">print.h</text>
</a>
</g>
</g>
<!-- Node1&#45;&gt;Node21 -->
<g id="edge40" class="edge">
<title>Node1&#45;&gt;Node21</title>
<path fill="none" stroke="midnightblue" d="M478.1,-464.25C482.91,-456.54 489.78,-445.56 495.6,-436.23"/>
<polygon fill="midnightblue" stroke="midnightblue" points="498.64,-437.98 500.97,-427.64 492.71,-434.27 498.64,-437.98"/>
</g>
<!-- Node22 -->
<g id="node22" class="node">
<title>Node22</title>
<g id="a_node22"><a xlink:href="io_8h.html" target="_top" xlink:title=" ">
<polygon fill="white" stroke="black" points="571,-348.5 571,-369.5 607,-369.5 607,-348.5 571,-348.5"/>
<text text-anchor="middle" x="589" y="-355.9" font-family="DejaVuSans" font-size="12.00">io.h</text>
</a>
</g>
</g>
<!-- Node1&#45;&gt;Node22 -->
<g id="edge46" class="edge">
<title>Node1&#45;&gt;Node22</title>
<path fill="none" stroke="midnightblue" d="M490.03,-464.45C504.78,-456.09 525.63,-442.97 541,-428 556.14,-413.26 569.65,-393.17 578.45,-378.65"/>
<polygon fill="midnightblue" stroke="midnightblue" points="581.7,-380.02 583.75,-369.62 575.67,-376.47 581.7,-380.02"/>
</g>
<!-- Node23 -->
<g id="node23" class="node">
<title>Node23</title>
<g id="a_node23"><a xlink:href="str__pool__init_8h.html" target="_top" xlink:title=" ">
<polygon fill="white" stroke="black" points="812.5,-406.5 812.5,-427.5 903.5,-427.5 903.5,-406.5 812.5,-406.5"/>
<text text-anchor="middle" x="858" y="-413.9" font-family="DejaVuSans" font-size="12.00">str_pool_init.h</text>
</a>
</g>
</g>
<!-- Node1&#45;&gt;Node23 -->
<g id="edge50" class="edge">
<title>Node1&#45;&gt;Node23</title>
<path fill="none" stroke="midnightblue" d="M491.13,-471.66C540.76,-465.52 677.89,-448.14 802.28,-428.23"/>
<polygon fill="midnightblue" stroke="midnightblue" points="803.04,-431.65 812.36,-426.6 801.93,-424.74 803.04,-431.65"/>
</g>
<!-- Node4&#45;&gt;Node2 -->
<g id="edge5" class="edge">
<title>Node4&#45;&gt;Node2</title>
<path fill="none" stroke="midnightblue" d="M184.94,-116.25C173.64,-107.81 157.12,-95.47 143.97,-85.66"/>
<polygon fill="midnightblue" stroke="midnightblue" points="146.02,-82.82 135.91,-79.64 141.83,-88.43 146.02,-82.82"/>
</g>
<!-- Node5 -->
<g id="node5" class="node">
<title>Node5</title>
<g id="a_node5"><a xlink:title=" ">
<polygon fill="white" stroke="#bfbfbf" points="168.5,-58.5 168.5,-79.5 227.5,-79.5 227.5,-58.5 168.5,-58.5"/>
<text text-anchor="middle" x="198" y="-65.9" font-family="DejaVuSans" font-size="12.00">assert.h</text>
</a>
</g>
</g>
<!-- Node4&#45;&gt;Node5 -->
<g id="edge4" class="edge">
<title>Node4&#45;&gt;Node5</title>
<path fill="none" stroke="midnightblue" d="M198,-116.25C198,-108.94 198,-98.69 198,-89.7"/>
<polygon fill="midnightblue" stroke="midnightblue" points="201.5,-89.64 198,-79.64 194.5,-89.64 201.5,-89.64"/>
</g>
<!-- Node6&#45;&gt;Node4 -->
<g id="edge7" class="edge">
<title>Node6&#45;&gt;Node4</title>
<path fill="none" stroke="midnightblue" d="M390.62,-348.41C359.84,-313.19 252.79,-190.7 213.03,-145.19"/>
<polygon fill="midnightblue" stroke="midnightblue" points="215.63,-142.86 206.42,-137.63 210.36,-147.46 215.63,-142.86"/>
</g>
<!-- Node7 -->
<g id="node7" class="node">
<title>Node7</title>
<g id="a_node7"><a xlink:href="tex__types_8h.html" target="_top" xlink:title=" ">
<polygon fill="white" stroke="black" points="528.5,-58.5 528.5,-79.5 605.5,-79.5 605.5,-58.5 528.5,-58.5"/>
<text text-anchor="middle" x="567" y="-65.9" font-family="DejaVuSans" font-size="12.00">tex_types.h</text>
</a>
</g>
</g>
<!-- Node6&#45;&gt;Node7 -->
<g id="edge8" class="edge">
<title>Node6&#45;&gt;Node7</title>
<path fill="none" stroke="midnightblue" d="M401.76,-348.28C410.05,-319.94 436.57,-235.57 475,-174 496.3,-139.88 528.91,-106.06 549.05,-86.64"/>
<polygon fill="midnightblue" stroke="midnightblue" points="551.51,-89.13 556.35,-79.7 546.69,-84.05 551.51,-89.13"/>
</g>
<!-- Node10 -->
<g id="node10" class="node">
<title>Node10</title>
<g id="a_node10"><a xlink:href="tex__constant_8h.html" target="_top" xlink:title=" ">
<polygon fill="white" stroke="black" points="454,-290.5 454,-311.5 548,-311.5 548,-290.5 454,-290.5"/>
<text text-anchor="middle" x="501" y="-297.9" font-family="DejaVuSans" font-size="12.00">tex_constant.h</text>
</a>
</g>
</g>
<!-- Node6&#45;&gt;Node10 -->
<g id="edge11" class="edge">
<title>Node6&#45;&gt;Node10</title>
<path fill="none" stroke="midnightblue" d="M416.77,-348.25C432.71,-339.49 456.33,-326.53 474.5,-316.55"/>
<polygon fill="midnightblue" stroke="midnightblue" points="476.36,-319.52 483.44,-311.64 472.99,-313.39 476.36,-319.52"/>
</g>
<!-- Node8 -->
<g id="node8" class="node">
<title>Node8</title>
<g id="a_node8"><a xlink:title=" ">
<polygon fill="white" stroke="#bfbfbf" points="534.5,-0.5 534.5,-21.5 599.5,-21.5 599.5,-0.5 534.5,-0.5"/>
<text text-anchor="middle" x="567" y="-7.9" font-family="DejaVuSans" font-size="12.00">stdbool.h</text>
</a>
</g>
</g>
<!-- Node7&#45;&gt;Node8 -->
<g id="edge9" class="edge">
<title>Node7&#45;&gt;Node8</title>
<path fill="none" stroke="midnightblue" d="M567,-58.25C567,-50.94 567,-40.69 567,-31.7"/>
<polygon fill="midnightblue" stroke="midnightblue" points="570.5,-31.64 567,-21.64 563.5,-31.64 570.5,-31.64"/>
</g>
<!-- Node9 -->
<g id="node9" class="node">
<title>Node9</title>
<g id="a_node9"><a xlink:title=" ">
<polygon fill="white" stroke="#bfbfbf" points="404.5,-0.5 404.5,-21.5 459.5,-21.5 459.5,-0.5 404.5,-0.5"/>
<text text-anchor="middle" x="432" y="-7.9" font-family="DejaVuSans" font-size="12.00">stdint.h</text>
</a>
</g>
</g>
<!-- Node7&#45;&gt;Node9 -->
<g id="edge10" class="edge">
<title>Node7&#45;&gt;Node9</title>
<path fill="none" stroke="midnightblue" d="M543.79,-58.37C521.83,-49.26 488.67,-35.51 464.16,-25.34"/>
<polygon fill="midnightblue" stroke="midnightblue" points="465.48,-22.1 454.9,-21.5 462.8,-28.57 465.48,-22.1"/>
</g>
<!-- Node11 -->
<g id="node11" class="node">
<title>Node11</title>
<g id="a_node11"><a xlink:href="box_8h.html" target="_top" xlink:title=" ">
<polygon fill="white" stroke="black" points="492,-232.5 492,-253.5 538,-253.5 538,-232.5 492,-232.5"/>
<text text-anchor="middle" x="515" y="-239.9" font-family="DejaVuSans" font-size="12.00">box.h</text>
</a>
</g>
</g>
<!-- Node10&#45;&gt;Node11 -->
<g id="edge12" class="edge">
<title>Node10&#45;&gt;Node11</title>
<path fill="none" stroke="midnightblue" d="M503.44,-290.25C505.29,-282.86 507.88,-272.47 510.15,-263.41"/>
<polygon fill="midnightblue" stroke="midnightblue" points="513.56,-264.19 512.59,-253.64 506.77,-262.5 513.56,-264.19"/>
</g>
<!-- Node11&#45;&gt;Node12 -->
<g id="edge13" class="edge">
<title>Node11&#45;&gt;Node12</title>
<path fill="none" stroke="midnightblue" d="M491.71,-234.1C462.21,-224.08 411.37,-206.83 379.28,-195.94"/>
<polygon fill="midnightblue" stroke="midnightblue" points="380.16,-192.54 369.57,-192.64 377.91,-199.17 380.16,-192.54"/>
</g>
<!-- Node14 -->
<g id="node14" class="node">
<title>Node14</title>
<g id="a_node14"><a xlink:href="texmath_8h.html" target="_top" xlink:title=" ">
<polygon fill="white" stroke="black" points="484,-174.5 484,-195.5 552,-195.5 552,-174.5 484,-174.5"/>
<text text-anchor="middle" x="518" y="-181.9" font-family="DejaVuSans" font-size="12.00">texmath.h</text>
</a>
</g>
</g>
<!-- Node11&#45;&gt;Node14 -->
<g id="edge20" class="edge">
<title>Node11&#45;&gt;Node14</title>
<path fill="none" stroke="midnightblue" d="M515.52,-232.25C515.91,-224.94 516.46,-214.69 516.94,-205.7"/>
<polygon fill="midnightblue" stroke="midnightblue" points="520.44,-205.82 517.48,-195.64 513.45,-205.44 520.44,-205.82"/>
</g>
<!-- Node12&#45;&gt;Node2 -->
<g id="edge14" class="edge">
<title>Node12&#45;&gt;Node2</title>
<path fill="none" stroke="midnightblue" d="M338.42,-174.3C320.88,-159.98 286.09,-133.05 253,-116 236.27,-107.38 191.05,-92 158.65,-81.41"/>
<polygon fill="midnightblue" stroke="midnightblue" points="159.64,-78.05 149.05,-78.29 157.48,-84.71 159.64,-78.05"/>
</g>
<!-- Node12&#45;&gt;Node4 -->
<g id="edge16" class="edge">
<title>Node12&#45;&gt;Node4</title>
<path fill="none" stroke="midnightblue" d="M330.44,-176.79C306.02,-167.8 263.79,-152.24 233.58,-141.11"/>
<polygon fill="midnightblue" stroke="midnightblue" points="234.43,-137.69 223.83,-137.52 232.01,-144.26 234.43,-137.69"/>
</g>
<!-- Node12&#45;&gt;Node7 -->
<g id="edge19" class="edge">
<title>Node12&#45;&gt;Node7</title>
<path fill="none" stroke="midnightblue" d="M352.06,-174.5C355.78,-159.68 365.07,-131.21 384,-116 422.18,-85.33 478.17,-74.8 518.15,-71.34"/>
<polygon fill="midnightblue" stroke="midnightblue" points="518.49,-74.82 528.21,-70.59 517.97,-67.84 518.49,-74.82"/>
</g>
<!-- Node12&#45;&gt;Node9 -->
<g id="edge15" class="edge">
<title>Node12&#45;&gt;Node9</title>
<path fill="none" stroke="midnightblue" d="M350.83,-174.43C352.25,-160.96 355.82,-135.83 364,-116 377.61,-82.99 402.04,-49.19 417.62,-29.42"/>
<polygon fill="midnightblue" stroke="midnightblue" points="420.35,-31.61 423.89,-21.62 414.9,-27.22 420.35,-31.61"/>
</g>
<!-- Node13 -->
<g id="node13" class="node">
<title>Node13</title>
<g id="a_node13"><a xlink:href="charset_8h.html" target="_top" xlink:title=" ">
<polygon fill="white" stroke="black" points="678.5,-116.5 678.5,-137.5 743.5,-137.5 743.5,-116.5 678.5,-116.5"/>
<text text-anchor="middle" x="711" y="-123.9" font-family="DejaVuSans" font-size="12.00">charset.h</text>
</a>
</g>
</g>
<!-- Node12&#45;&gt;Node13 -->
<g id="edge17" class="edge">
<title>Node12&#45;&gt;Node13</title>
<path fill="none" stroke="midnightblue" d="M369.67,-180.95C426.2,-172.18 590.13,-146.75 668.41,-134.61"/>
<polygon fill="midnightblue" stroke="midnightblue" points="669.08,-138.05 678.42,-133.05 668,-131.13 669.08,-138.05"/>
</g>
<!-- Node13&#45;&gt;Node7 -->
<g id="edge18" class="edge">
<title>Node13&#45;&gt;Node7</title>
<path fill="none" stroke="midnightblue" d="M686.25,-116.37C662.72,-107.22 627.13,-93.38 600.96,-83.21"/>
<polygon fill="midnightblue" stroke="midnightblue" points="602.02,-79.86 591.43,-79.5 599.48,-86.39 602.02,-79.86"/>
</g>
<!-- Node14&#45;&gt;Node7 -->
<g id="edge21" class="edge">
<title>Node14&#45;&gt;Node7</title>
<path fill="none" stroke="midnightblue" d="M522.18,-174.28C530.28,-155.43 548.25,-113.62 558.81,-89.05"/>
<polygon fill="midnightblue" stroke="midnightblue" points="562.1,-90.26 562.83,-79.69 555.67,-87.5 562.1,-90.26"/>
</g>
<!-- Node16&#45;&gt;Node7 -->
<g id="edge24" class="edge">
<title>Node16&#45;&gt;Node7</title>
<path fill="none" stroke="midnightblue" d="M587.75,-232.26C584.24,-204.82 574.23,-126.51 569.51,-89.64"/>
<polygon fill="midnightblue" stroke="midnightblue" points="572.97,-89.11 568.23,-79.63 566.03,-90 572.97,-89.11"/>
</g>
<!-- Node16&#45;&gt;Node12 -->
<g id="edge25" class="edge">
<title>Node16&#45;&gt;Node12</title>
<path fill="none" stroke="midnightblue" d="M556.44,-234.23C553.25,-233.48 550.06,-232.72 547,-232 487.63,-218 418.15,-201.83 379.6,-192.87"/>
<polygon fill="midnightblue" stroke="midnightblue" points="380.11,-189.4 369.58,-190.54 378.53,-196.21 380.11,-189.4"/>
</g>
<!-- Node18&#45;&gt;Node6 -->
<g id="edge29" class="edge">
<title>Node18&#45;&gt;Node6</title>
<path fill="none" stroke="midnightblue" d="M430.38,-406.25C425.1,-398.46 417.55,-387.33 411.18,-377.94"/>
<polygon fill="midnightblue" stroke="midnightblue" points="414.05,-375.95 405.54,-369.64 408.26,-379.88 414.05,-375.95"/>
</g>
<!-- Node18&#45;&gt;Node12 -->
<g id="edge30" class="edge">
<title>Node18&#45;&gt;Node12</title>
<path fill="none" stroke="midnightblue" d="M413.42,-406.45C398.07,-398.92 379.1,-386.88 369,-370 337.59,-317.54 342.39,-241.34 346.92,-205.72"/>
<polygon fill="midnightblue" stroke="midnightblue" points="350.4,-206.06 348.33,-195.67 343.47,-205.08 350.4,-206.06"/>
</g>
<!-- Node18&#45;&gt;Node13 -->
<g id="edge28" class="edge">
<title>Node18&#45;&gt;Node13</title>
<path fill="none" stroke="midnightblue" d="M463.72,-408.5C466.84,-407.65 469.99,-406.8 473,-406 591.32,-374.68 728,-424.4 728,-302 728,-302 728,-302 728,-242 728,-208.62 720.78,-170.34 715.75,-147.71"/>
<polygon fill="midnightblue" stroke="midnightblue" points="719.1,-146.64 713.44,-137.69 712.28,-148.22 719.1,-146.64"/>
</g>
<!-- Node19 -->
<g id="node19" class="node">
<title>Node19</title>
<g id="a_node19"><a xlink:href="fonts_8h.html" target="_top" xlink:title=" ">
<polygon fill="white" stroke="black" points="202,-348.5 202,-369.5 254,-369.5 254,-348.5 202,-348.5"/>
<text text-anchor="middle" x="228" y="-355.9" font-family="DejaVuSans" font-size="12.00">fonts.h</text>
</a>
</g>
</g>
<!-- Node18&#45;&gt;Node19 -->
<g id="edge31" class="edge">
<title>Node18&#45;&gt;Node19</title>
<path fill="none" stroke="midnightblue" d="M410.1,-408.79C372.83,-398.81 305.37,-380.73 263.84,-369.6"/>
<polygon fill="midnightblue" stroke="midnightblue" points="264.7,-366.21 254.13,-367 262.89,-372.97 264.7,-366.21"/>
</g>
<!-- Node20 -->
<g id="node20" class="node">
<title>Node20</title>
<g id="a_node20"><a xlink:href="eqtb_8h.html" target="_top" xlink:title=" ">
<polygon fill="white" stroke="black" points="480,-348.5 480,-369.5 530,-369.5 530,-348.5 480,-348.5"/>
<text text-anchor="middle" x="505" y="-355.9" font-family="DejaVuSans" font-size="12.00">eqtb.h</text>
</a>
</g>
</g>
<!-- Node18&#45;&gt;Node20 -->
<g id="edge37" class="edge">
<title>Node18&#45;&gt;Node20</title>
<path fill="none" stroke="midnightblue" d="M448.84,-406.25C458.89,-397.97 473.5,-385.94 485.3,-376.22"/>
<polygon fill="midnightblue" stroke="midnightblue" points="487.8,-378.7 493.29,-369.64 483.35,-373.3 487.8,-378.7"/>
</g>
<!-- Node19&#45;&gt;Node2 -->
<g id="edge32" class="edge">
<title>Node19&#45;&gt;Node2</title>
<path fill="none" stroke="midnightblue" d="M223.88,-348.48C210.84,-318.13 169.69,-220.84 142,-138 136.6,-121.85 131.47,-103.22 127.9,-89.54"/>
<polygon fill="midnightblue" stroke="midnightblue" points="131.28,-88.6 125.4,-79.78 124.49,-90.33 131.28,-88.6"/>
</g>
<!-- Node19&#45;&gt;Node4 -->
<g id="edge33" class="edge">
<title>Node19&#45;&gt;Node4</title>
<path fill="none" stroke="midnightblue" d="M226.75,-348.41C222.24,-313.85 206.77,-195.24 200.59,-147.82"/>
<polygon fill="midnightblue" stroke="midnightblue" points="204.02,-147.09 199.26,-137.63 197.08,-148 204.02,-147.09"/>
</g>
<!-- Node19&#45;&gt;Node10 -->
<g id="edge34" class="edge">
<title>Node19&#45;&gt;Node10</title>
<path fill="none" stroke="midnightblue" d="M254.18,-352.63C297.83,-343.68 386.44,-325.5 444.75,-313.54"/>
<polygon fill="midnightblue" stroke="midnightblue" points="445.46,-316.97 454.55,-311.53 444.05,-310.11 445.46,-316.97"/>
</g>
<!-- Node19&#45;&gt;Node12 -->
<g id="edge35" class="edge">
<title>Node19&#45;&gt;Node12</title>
<path fill="none" stroke="midnightblue" d="M231.94,-348.48C241.31,-326.52 266.5,-271.21 298,-232 306.96,-220.84 318.8,-210.14 328.92,-201.87"/>
<polygon fill="midnightblue" stroke="midnightblue" points="331.24,-204.49 336.91,-195.54 326.9,-199 331.24,-204.49"/>
</g>
<!-- Node19&#45;&gt;Node15 -->
<g id="edge36" class="edge">
<title>Node19&#45;&gt;Node15</title>
<path fill="none" stroke="midnightblue" d="M205.82,-348.37C185.02,-339.34 153.71,-325.75 130.35,-315.61"/>
<polygon fill="midnightblue" stroke="midnightblue" points="131.45,-312.27 120.89,-311.5 128.67,-318.69 131.45,-312.27"/>
</g>
<!-- Node20&#45;&gt;Node7 -->
<g id="edge38" class="edge">
<title>Node20&#45;&gt;Node7</title>
<path fill="none" stroke="midnightblue" d="M525.47,-348.41C555.19,-333.2 609.12,-300.44 631,-254 658.66,-195.3 608.92,-121.24 582.25,-87.81"/>
<polygon fill="midnightblue" stroke="midnightblue" points="584.78,-85.37 575.73,-79.86 579.37,-89.81 584.78,-85.37"/>
</g>
<!-- Node20&#45;&gt;Node10 -->
<g id="edge39" class="edge">
<title>Node20&#45;&gt;Node10</title>
<path fill="none" stroke="midnightblue" d="M504.3,-348.25C503.78,-340.94 503.05,-330.69 502.41,-321.7"/>
<polygon fill="midnightblue" stroke="midnightblue" points="505.89,-321.37 501.69,-311.64 498.91,-321.87 505.89,-321.37"/>
</g>
<!-- Node21&#45;&gt;Node6 -->
<g id="edge43" class="edge">
<title>Node21&#45;&gt;Node6</title>
<path fill="none" stroke="midnightblue" d="M488.19,-406.25C471.15,-397.41 445.84,-384.29 426.53,-374.28"/>
<polygon fill="midnightblue" stroke="midnightblue" points="428.09,-371.14 417.6,-369.64 424.86,-377.35 428.09,-371.14"/>
</g>
<!-- Node21&#45;&gt;Node7 -->
<g id="edge42" class="edge">
<title>Node21&#45;&gt;Node7</title>
<path fill="none" stroke="midnightblue" d="M532.31,-414.15C589.5,-409.54 726.61,-396.03 764,-370 792.78,-349.97 804,-337.06 804,-302 804,-302 804,-302 804,-184 804,-101.27 685.27,-78.54 615.88,-72.32"/>
<polygon fill="midnightblue" stroke="midnightblue" points="615.86,-68.81 605.61,-71.49 615.29,-75.78 615.86,-68.81"/>
</g>
<!-- Node21&#45;&gt;Node12 -->
<g id="edge45" class="edge">
<title>Node21&#45;&gt;Node12</title>
<path fill="none" stroke="midnightblue" d="M499.04,-406.31C491.58,-397.12 480.23,-382.85 471,-370 428.57,-310.93 382.39,-238.05 361.46,-204.5"/>
<polygon fill="midnightblue" stroke="midnightblue" points="364.28,-202.41 356.02,-195.77 358.33,-206.11 364.28,-202.41"/>
</g>
<!-- Node21&#45;&gt;Node13 -->
<g id="edge41" class="edge">
<title>Node21&#45;&gt;Node13</title>
<path fill="none" stroke="midnightblue" d="M532.11,-414.2C586.06,-409.84 710.7,-397.04 742,-370 766.25,-349.05 766,-334.05 766,-302 766,-302 766,-302 766,-242 766,-204.89 742.07,-167.13 725.78,-145.73"/>
<polygon fill="midnightblue" stroke="midnightblue" points="728.3,-143.28 719.35,-137.61 722.81,-147.62 728.3,-143.28"/>
</g>
<!-- Node21&#45;&gt;Node20 -->
<g id="edge44" class="edge">
<title>Node21&#45;&gt;Node20</title>
<path fill="none" stroke="midnightblue" d="M506.65,-406.25C506.39,-398.94 506.02,-388.69 505.7,-379.7"/>
<polygon fill="midnightblue" stroke="midnightblue" points="509.2,-379.51 505.34,-369.64 502.2,-379.76 509.2,-379.51"/>
</g>
<!-- Node22&#45;&gt;Node10 -->
<g id="edge47" class="edge">
<title>Node22&#45;&gt;Node10</title>
<path fill="none" stroke="midnightblue" d="M573.67,-348.25C560.17,-339.65 540.29,-327 524.73,-317.1"/>
<polygon fill="midnightblue" stroke="midnightblue" points="526.47,-314.06 516.15,-311.64 522.71,-319.96 526.47,-314.06"/>
</g>
<!-- Node22&#45;&gt;Node12 -->
<g id="edge49" class="edge">
<title>Node22&#45;&gt;Node12</title>
<path fill="none" stroke="midnightblue" d="M586.71,-348.48C582.82,-334.14 573.68,-306.9 557,-290 531.31,-263.97 515.73,-270.33 483,-254 463.79,-244.42 459.11,-241.77 440,-232 419.17,-221.35 395.63,-209.32 377.85,-200.23"/>
<polygon fill="midnightblue" stroke="midnightblue" points="379.11,-196.95 368.62,-195.51 375.93,-203.18 379.11,-196.95"/>
</g>
<!-- Node22&#45;&gt;Node13 -->
<g id="edge48" class="edge">
<title>Node22&#45;&gt;Node13</title>
<path fill="none" stroke="midnightblue" d="M597.41,-348.26C612.41,-330.52 644.06,-291.3 664,-254 683.18,-218.13 698.02,-172.73 705.55,-147.38"/>
<polygon fill="midnightblue" stroke="midnightblue" points="708.98,-148.12 708.4,-137.54 702.25,-146.17 708.98,-148.12"/>
</g>
</g>
</svg>
