<?xml version="1.0" encoding="UTF-8" standalone="no"?>
<!DOCTYPE svg PUBLIC "-//W3C//DTD SVG 1.1//EN"
 "http://www.w3.org/Graphics/SVG/1.1/DTD/svg11.dtd">
<!-- Generated by graphviz version 2.44.0 ()
 -->
<!-- Title: tex_constant.h Pages: 1 -->
<svg width="3377pt" height="378pt"
 viewBox="0.00 0.00 3377.31 378.00" xmlns="http://www.w3.org/2000/svg" xmlns:xlink="http://www.w3.org/1999/xlink">
<g id="graph0" class="graph" transform="scale(1 1) rotate(0) translate(4 374)">
<title>tex_constant.h</title>
<polygon fill="white" stroke="transparent" points="-4,4 -4,-374 3373.31,-374 3373.31,4 -4,4"/>
<!-- Node1 -->
<g id="node1" class="node">
<title>Node1</title>
<g id="a_node1"><a xlink:title=" ">
<polygon fill="#bfbfbf" stroke="black" points="1566.5,-348.5 1566.5,-369.5 1660.5,-369.5 1660.5,-348.5 1566.5,-348.5"/>
<text text-anchor="middle" x="1613.5" y="-355.9" font-family="DejaVuSans" font-size="12.00">tex_constant.h</text>
</a>
</g>
</g>
<!-- Node2 -->
<g id="node2" class="node">
<title>Node2</title>
<g id="a_node2"><a xlink:href="box_8c.html" target="_top" xlink:title=" ">
<polygon fill="white" stroke="black" points="0,-116.5 0,-137.5 45,-137.5 45,-116.5 0,-116.5"/>
<text text-anchor="middle" x="22.5" y="-123.9" font-family="DejaVuSans" font-size="12.00">box.c</text>
</a>
</g>
</g>
<!-- Node1&#45;&gt;Node2 -->
<g id="edge1" class="edge">
<title>Node1&#45;&gt;Node2</title>
<path fill="none" stroke="midnightblue" d="M1555.88,-356.34C1297.05,-348.58 248.83,-313.7 115.5,-254 64.13,-231 35.03,-162.81 25.77,-137.55"/>
<polygon fill="midnightblue" stroke="midnightblue" points="1556.08,-359.85 1566.18,-356.65 1556.29,-352.85 1556.08,-359.85"/>
</g>
<!-- Node3 -->
<g id="node3" class="node">
<title>Node3</title>
<g id="a_node3"><a xlink:href="box__copy_8c.html" target="_top" xlink:title=" ">
<polygon fill="white" stroke="black" points="102,-116.5 102,-137.5 179,-137.5 179,-116.5 102,-116.5"/>
<text text-anchor="middle" x="140.5" y="-123.9" font-family="DejaVuSans" font-size="12.00">box_copy.c</text>
</a>
</g>
</g>
<!-- Node1&#45;&gt;Node3 -->
<g id="edge2" class="edge">
<title>Node1&#45;&gt;Node3</title>
<path fill="none" stroke="midnightblue" d="M1556.17,-356.03C1402.56,-349.89 969.47,-326.92 617.5,-254 447.45,-218.77 247.56,-160.31 171.76,-137.51"/>
<polygon fill="midnightblue" stroke="midnightblue" points="1556.19,-359.53 1566.32,-356.43 1556.46,-352.54 1556.19,-359.53"/>
</g>
<!-- Node4 -->
<g id="node4" class="node">
<title>Node4</title>
<g id="a_node4"><a xlink:href="box__destroy_8c.html" target="_top" xlink:title=" ">
<polygon fill="white" stroke="black" points="512,-116.5 512,-137.5 603,-137.5 603,-116.5 512,-116.5"/>
<text text-anchor="middle" x="557.5" y="-123.9" font-family="DejaVuSans" font-size="12.00">box_destroy.c</text>
</a>
</g>
</g>
<!-- Node1&#45;&gt;Node4 -->
<g id="edge3" class="edge">
<title>Node1&#45;&gt;Node4</title>
<path fill="none" stroke="midnightblue" d="M1556.05,-355.73C1426.56,-349.45 1102.97,-327.1 843.5,-254 736.7,-223.91 618.03,-161.49 574.6,-137.59"/>
<polygon fill="midnightblue" stroke="midnightblue" points="1555.98,-359.24 1566.13,-356.21 1556.31,-352.24 1555.98,-359.24"/>
</g>
<!-- Node5 -->
<g id="node5" class="node">
<title>Node5</title>
<g id="a_node5"><a xlink:href="box__display_8c.html" target="_top" xlink:title=" ">
<polygon fill="white" stroke="black" points="1875,-116.5 1875,-137.5 1964,-137.5 1964,-116.5 1875,-116.5"/>
<text text-anchor="middle" x="1919.5" y="-123.9" font-family="DejaVuSans" font-size="12.00">box_display.c</text>
</a>
</g>
</g>
<!-- Node1&#45;&gt;Node5 -->
<g id="edge4" class="edge">
<title>Node1&#45;&gt;Node5</title>
<path fill="none" stroke="midnightblue" d="M1634.46,-342.25C1693.37,-297.97 1859.26,-173.28 1906.69,-137.63"/>
<polygon fill="midnightblue" stroke="midnightblue" points="1632.15,-339.6 1626.26,-348.41 1636.36,-345.2 1632.15,-339.6"/>
</g>
<!-- Node6 -->
<g id="node6" class="node">
<title>Node6</title>
<g id="a_node6"><a xlink:href="eqtb_8h.html" target="_top" xlink:title=" ">
<polygon fill="white" stroke="black" points="1455.5,-290.5 1455.5,-311.5 1505.5,-311.5 1505.5,-290.5 1455.5,-290.5"/>
<text text-anchor="middle" x="1480.5" y="-297.9" font-family="DejaVuSans" font-size="12.00">eqtb.h</text>
</a>
</g>
</g>
<!-- Node1&#45;&gt;Node6 -->
<g id="edge5" class="edge">
<title>Node1&#45;&gt;Node6</title>
<path fill="none" stroke="midnightblue" d="M1581.16,-344.38C1556.97,-334.2 1524.5,-320.53 1503.07,-311.5"/>
<polygon fill="midnightblue" stroke="midnightblue" points="1580.06,-347.72 1590.64,-348.37 1582.78,-341.27 1580.06,-347.72"/>
</g>
<!-- Node10 -->
<g id="node10" class="node">
<title>Node10</title>
<g id="a_node10"><a xlink:href="main__ctrl_8h.html" target="_top" xlink:title=" ">
<polygon fill="white" stroke="black" points="2685.5,-116.5 2685.5,-137.5 2759.5,-137.5 2759.5,-116.5 2685.5,-116.5"/>
<text text-anchor="middle" x="2722.5" y="-123.9" font-family="DejaVuSans" font-size="12.00">main_ctrl.h</text>
</a>
</g>
</g>
<!-- Node1&#45;&gt;Node10 -->
<g id="edge156" class="edge">
<title>Node1&#45;&gt;Node10</title>
<path fill="none" stroke="midnightblue" d="M1670.83,-357.31C1880.13,-354.57 2595.93,-342.99 2693.5,-312 2738.85,-297.6 2760.72,-295.78 2783.5,-254 2791.59,-239.17 2787.46,-194.43 2776.5,-174 2768.05,-158.27 2751.85,-145.6 2739.39,-137.57"/>
<polygon fill="midnightblue" stroke="midnightblue" points="1670.62,-353.82 1660.67,-357.45 1670.71,-360.82 1670.62,-353.82"/>
</g>
<!-- Node48 -->
<g id="node43" class="node">
<title>Node48</title>
<g id="a_node43"><a xlink:href="fonts_8h.html" target="_top" xlink:title=" ">
<polygon fill="white" stroke="black" points="2632.5,-290.5 2632.5,-311.5 2684.5,-311.5 2684.5,-290.5 2632.5,-290.5"/>
<text text-anchor="middle" x="2658.5" y="-297.9" font-family="DejaVuSans" font-size="12.00">fonts.h</text>
</a>
</g>
</g>
<!-- Node1&#45;&gt;Node48 -->
<g id="edge105" class="edge">
<title>Node1&#45;&gt;Node48</title>
<path fill="none" stroke="midnightblue" d="M1670.79,-354.93C1865.28,-344.51 2495.77,-310.72 2632.28,-303.41"/>
<polygon fill="midnightblue" stroke="midnightblue" points="1670.57,-351.44 1660.77,-355.47 1670.95,-358.43 1670.57,-351.44"/>
</g>
<!-- Node51 -->
<g id="node46" class="node">
<title>Node51</title>
<g id="a_node46"><a xlink:href="io_8h.html" target="_top" xlink:title=" ">
<polygon fill="white" stroke="black" points="2024.5,-174.5 2024.5,-195.5 2060.5,-195.5 2060.5,-174.5 2024.5,-174.5"/>
<text text-anchor="middle" x="2042.5" y="-181.9" font-family="DejaVuSans" font-size="12.00">io.h</text>
</a>
</g>
</g>
<!-- Node1&#45;&gt;Node51 -->
<g id="edge139" class="edge">
<title>Node1&#45;&gt;Node51</title>
<path fill="none" stroke="midnightblue" d="M1658.01,-345.55C1687.4,-336.96 1726.61,-324.83 1760.5,-312 1862.31,-273.48 1979.98,-216.82 2024.33,-195.01"/>
<polygon fill="midnightblue" stroke="midnightblue" points="1656.68,-342.29 1648.04,-348.43 1658.62,-349.01 1656.68,-342.29"/>
</g>
<!-- Node54 -->
<g id="node49" class="node">
<title>Node54</title>
<g id="a_node49"><a xlink:href="mem_8h.html" target="_top" xlink:title=" ">
<polygon fill="white" stroke="red" points="1287,-174.5 1287,-195.5 1340,-195.5 1340,-174.5 1287,-174.5"/>
<text text-anchor="middle" x="1313.5" y="-181.9" font-family="DejaVuSans" font-size="12.00">mem.h</text>
</a>
</g>
</g>
<!-- Node1&#45;&gt;Node54 -->
<g id="edge157" class="edge">
<title>Node1&#45;&gt;Node54</title>
<path fill="none" stroke="midnightblue" d="M1556.04,-349.36C1522.52,-342.62 1480.33,-331.08 1446.5,-312 1389.98,-280.12 1339.08,-219.04 1320.74,-195.54"/>
<polygon fill="midnightblue" stroke="midnightblue" points="1555.66,-352.86 1566.14,-351.31 1556.98,-345.98 1555.66,-352.86"/>
</g>
<!-- Node55 -->
<g id="node50" class="node">
<title>Node55</title>
<g id="a_node50"><a xlink:href="tex_8h.html" target="_top" xlink:title=" ">
<polygon fill="white" stroke="red" points="2200.5,-290.5 2200.5,-311.5 2242.5,-311.5 2242.5,-290.5 2200.5,-290.5"/>
<text text-anchor="middle" x="2221.5" y="-297.9" font-family="DejaVuSans" font-size="12.00">tex.h</text>
</a>
</g>
</g>
<!-- Node1&#45;&gt;Node55 -->
<g id="edge184" class="edge">
<title>Node1&#45;&gt;Node55</title>
<path fill="none" stroke="midnightblue" d="M1670.9,-352.71C1801.51,-340.68 2116.13,-311.71 2200.42,-303.94"/>
<polygon fill="midnightblue" stroke="midnightblue" points="1670.34,-349.25 1660.7,-353.65 1670.98,-356.22 1670.34,-349.25"/>
</g>
<!-- Node6&#45;&gt;Node2 -->
<g id="edge24" class="edge">
<title>Node6&#45;&gt;Node2</title>
<path fill="none" stroke="midnightblue" d="M1445.36,-300.05C1248.27,-300.14 284.47,-298.32 160.5,-254 97.26,-231.39 46.06,-162.96 28.78,-137.6"/>
<polygon fill="midnightblue" stroke="midnightblue" points="1445.46,-303.55 1455.45,-300.04 1445.45,-296.55 1445.46,-303.55"/>
</g>
<!-- Node7 -->
<g id="node7" class="node">
<title>Node7</title>
<g id="a_node7"><a xlink:href="align_8h.html" target="_top" xlink:title=" ">
<polygon fill="white" stroke="black" points="1666.5,-174.5 1666.5,-195.5 1718.5,-195.5 1718.5,-174.5 1666.5,-174.5"/>
<text text-anchor="middle" x="1692.5" y="-181.9" font-family="DejaVuSans" font-size="12.00">align.h</text>
</a>
</g>
</g>
<!-- Node6&#45;&gt;Node7 -->
<g id="edge6" class="edge">
<title>Node6&#45;&gt;Node7</title>
<path fill="none" stroke="midnightblue" d="M1515.59,-297.35C1551.44,-293.12 1607.27,-282.2 1646.5,-254 1667.56,-238.86 1681.93,-210.88 1688.47,-195.97"/>
<polygon fill="midnightblue" stroke="midnightblue" points="1515.17,-293.88 1505.59,-298.42 1515.91,-300.84 1515.17,-293.88"/>
</g>
<!-- Node6&#45;&gt;Node10 -->
<g id="edge65" class="edge">
<title>Node6&#45;&gt;Node10</title>
<path fill="none" stroke="midnightblue" d="M1515.74,-296.33C1619.03,-285.65 1930.03,-253.9 2188.5,-232 2297.29,-222.78 2584.57,-251.66 2678.5,-196 2700.76,-182.81 2713.75,-153.45 2719.3,-137.98"/>
<polygon fill="midnightblue" stroke="midnightblue" points="1515.15,-292.88 1505.56,-297.39 1515.87,-299.84 1515.15,-292.88"/>
</g>
<!-- Node16 -->
<g id="node16" class="node">
<title>Node16</title>
<g id="a_node16"><a xlink:href="page__builder_8c.html" target="_top" xlink:title=" ">
<polygon fill="white" stroke="black" points="2784,-58.5 2784,-79.5 2879,-79.5 2879,-58.5 2784,-58.5"/>
<text text-anchor="middle" x="2831.5" y="-65.9" font-family="DejaVuSans" font-size="12.00">page_builder.c</text>
</a>
</g>
</g>
<!-- Node6&#45;&gt;Node16 -->
<g id="edge70" class="edge">
<title>Node6&#45;&gt;Node16</title>
<path fill="none" stroke="midnightblue" d="M1515.98,-299.98C1765.18,-299.42 3246.27,-289.75 3364.5,-138 3370.51,-130.29 3371.11,-123.21 3364.5,-116 3332.01,-80.58 3003.57,-72.37 2879.04,-70.52"/>
<polygon fill="midnightblue" stroke="midnightblue" points="1515.68,-296.48 1505.69,-299.99 1515.7,-303.48 1515.68,-296.48"/>
</g>
<!-- Node17 -->
<g id="node17" class="node">
<title>Node17</title>
<g id="a_node17"><a xlink:href="tex__header_8h.html" target="_top" xlink:title=" ">
<polygon fill="white" stroke="red" points="1949.5,-58.5 1949.5,-79.5 2035.5,-79.5 2035.5,-58.5 1949.5,-58.5"/>
<text text-anchor="middle" x="1992.5" y="-65.9" font-family="DejaVuSans" font-size="12.00">tex_header.h</text>
</a>
</g>
</g>
<!-- Node6&#45;&gt;Node17 -->
<g id="edge104" class="edge">
<title>Node6&#45;&gt;Node17</title>
<path fill="none" stroke="midnightblue" d="M1445.04,-300.19C1326.96,-300.38 936.47,-297.44 617.5,-254 497.97,-237.72 8.24,-202.32 92.5,-116 126.03,-81.65 1669.14,-71.74 1949.16,-70.22"/>
<polygon fill="midnightblue" stroke="midnightblue" points="1445.3,-303.69 1455.29,-300.16 1445.29,-296.69 1445.3,-303.69"/>
</g>
<!-- Node19 -->
<g id="node18" class="node">
<title>Node19</title>
<g id="a_node18"><a xlink:href="mem_8c.html" target="_top" xlink:title=" ">
<polygon fill="white" stroke="black" points="720.5,-116.5 720.5,-137.5 772.5,-137.5 772.5,-116.5 720.5,-116.5"/>
<text text-anchor="middle" x="746.5" y="-123.9" font-family="DejaVuSans" font-size="12.00">mem.c</text>
</a>
</g>
</g>
<!-- Node6&#45;&gt;Node19 -->
<g id="edge67" class="edge">
<title>Node6&#45;&gt;Node19</title>
<path fill="none" stroke="midnightblue" d="M1445.23,-298.79C1344.5,-295.03 1057.03,-282.07 967.5,-254 881.11,-226.92 791.36,-162.41 759.03,-137.78"/>
<polygon fill="midnightblue" stroke="midnightblue" points="1445.36,-302.3 1455.48,-299.17 1445.61,-295.3 1445.36,-302.3"/>
</g>
<!-- Node20 -->
<g id="node19" class="node">
<title>Node20</title>
<g id="a_node19"><a xlink:href="printout_8c.html" target="_top" xlink:title=" ">
<polygon fill="white" stroke="black" points="2450,-116.5 2450,-137.5 2515,-137.5 2515,-116.5 2450,-116.5"/>
<text text-anchor="middle" x="2482.5" y="-123.9" font-family="DejaVuSans" font-size="12.00">printout.c</text>
</a>
</g>
</g>
<!-- Node6&#45;&gt;Node20 -->
<g id="edge102" class="edge">
<title>Node6&#45;&gt;Node20</title>
<path fill="none" stroke="midnightblue" d="M1515.72,-296.44C1582.53,-289.52 1732.23,-273.23 1857.5,-254 1997.34,-232.53 2031.77,-223.75 2170.5,-196 2290.85,-171.93 2320.79,-165.1 2440.5,-138 2443.57,-137.3 2446.76,-136.57 2449.96,-135.82"/>
<polygon fill="midnightblue" stroke="midnightblue" points="1515.31,-292.96 1505.72,-297.47 1516.03,-299.92 1515.31,-292.96"/>
</g>
<!-- Node21 -->
<g id="node20" class="node">
<title>Node21</title>
<g id="a_node20"><a xlink:href="debug_8c.html" target="_top" xlink:title=" ">
<polygon fill="white" stroke="black" points="1267,-116.5 1267,-137.5 1326,-137.5 1326,-116.5 1267,-116.5"/>
<text text-anchor="middle" x="1296.5" y="-123.9" font-family="DejaVuSans" font-size="12.00">debug.c</text>
</a>
</g>
</g>
<!-- Node6&#45;&gt;Node21 -->
<g id="edge25" class="edge">
<title>Node6&#45;&gt;Node21</title>
<path fill="none" stroke="midnightblue" d="M1467.82,-281.85C1446.16,-251.19 1402.47,-190.84 1382.5,-174 1363.73,-158.17 1338.63,-145.52 1320.4,-137.52"/>
<polygon fill="midnightblue" stroke="midnightblue" points="1465.17,-284.16 1473.78,-290.33 1470.89,-280.14 1465.17,-284.16"/>
</g>
<!-- Node22 -->
<g id="node21" class="node">
<title>Node22</title>
<g id="a_node21"><a xlink:href="dump_8c.html" target="_top" xlink:title=" ">
<polygon fill="white" stroke="black" points="1125.5,-116.5 1125.5,-137.5 1181.5,-137.5 1181.5,-116.5 1125.5,-116.5"/>
<text text-anchor="middle" x="1153.5" y="-123.9" font-family="DejaVuSans" font-size="12.00">dump.c</text>
</a>
</g>
</g>
<!-- Node6&#45;&gt;Node22 -->
<g id="edge26" class="edge">
<title>Node6&#45;&gt;Node22</title>
<path fill="none" stroke="midnightblue" d="M1452.13,-285.78C1412.76,-265.98 1339.42,-228.83 1277.5,-196 1239.11,-175.64 1194.53,-150.93 1170.67,-137.61"/>
<polygon fill="midnightblue" stroke="midnightblue" points="1450.87,-289.07 1461.38,-290.43 1454.01,-282.81 1450.87,-289.07"/>
</g>
<!-- Node23 -->
<g id="node22" class="node">
<title>Node23</title>
<g id="a_node22"><a xlink:href="dviout_8c.html" target="_top" xlink:title=" ">
<polygon fill="white" stroke="black" points="2304.5,-116.5 2304.5,-137.5 2362.5,-137.5 2362.5,-116.5 2304.5,-116.5"/>
<text text-anchor="middle" x="2333.5" y="-123.9" font-family="DejaVuSans" font-size="12.00">dviout.c</text>
</a>
</g>
</g>
<!-- Node6&#45;&gt;Node23 -->
<g id="edge27" class="edge">
<title>Node6&#45;&gt;Node23</title>
<path fill="none" stroke="midnightblue" d="M1515.66,-293.42C1600.91,-277.47 1814.03,-237.64 1846.5,-232 1945.42,-214.83 1971.37,-217.19 2069.5,-196 2105.96,-188.13 2114.41,-183.44 2150.5,-174 2204.7,-159.83 2268.14,-144.07 2304.3,-135.16"/>
<polygon fill="midnightblue" stroke="midnightblue" points="1514.87,-290.01 1505.68,-295.29 1516.15,-296.89 1514.87,-290.01"/>
</g>
<!-- Node24 -->
<g id="node23" class="node">
<title>Node24</title>
<g id="a_node23"><a xlink:href="eqtb_8c.html" target="_top" xlink:title=" ">
<polygon fill="white" stroke="black" points="1200,-116.5 1200,-137.5 1249,-137.5 1249,-116.5 1200,-116.5"/>
<text text-anchor="middle" x="1224.5" y="-123.9" font-family="DejaVuSans" font-size="12.00">eqtb.c</text>
</a>
</g>
</g>
<!-- Node6&#45;&gt;Node24 -->
<g id="edge28" class="edge">
<title>Node6&#45;&gt;Node24</title>
<path fill="none" stroke="midnightblue" d="M1461.45,-283.64C1451.5,-274.97 1439.2,-264.06 1428.5,-254 1391.87,-219.55 1390.82,-201.15 1348.5,-174 1331.64,-163.18 1280.15,-145.74 1249.07,-135.73"/>
<polygon fill="midnightblue" stroke="midnightblue" points="1459.31,-286.42 1469.16,-290.32 1463.9,-281.13 1459.31,-286.42"/>
</g>
<!-- Node25 -->
<g id="node24" class="node">
<title>Node25</title>
<g id="a_node24"><a xlink:href="eqtb__save_8c.html" target="_top" xlink:title=" ">
<polygon fill="white" stroke="black" points="621,-116.5 621,-137.5 702,-137.5 702,-116.5 621,-116.5"/>
<text text-anchor="middle" x="661.5" y="-123.9" font-family="DejaVuSans" font-size="12.00">eqtb_save.c</text>
</a>
</g>
</g>
<!-- Node6&#45;&gt;Node25 -->
<g id="edge29" class="edge">
<title>Node6&#45;&gt;Node25</title>
<path fill="none" stroke="midnightblue" d="M1445.28,-298.96C1337.01,-295.49 1010.31,-282.83 908.5,-254 813.32,-227.04 711.79,-162.17 675.43,-137.63"/>
<polygon fill="midnightblue" stroke="midnightblue" points="1445.24,-302.46 1455.35,-299.28 1445.46,-295.47 1445.24,-302.46"/>
</g>
<!-- Node26 -->
<g id="node25" class="node">
<title>Node26</title>
<g id="a_node25"><a xlink:href="extension_8h.html" target="_top" xlink:title=" ">
<polygon fill="white" stroke="black" points="962.5,-174.5 962.5,-195.5 1040.5,-195.5 1040.5,-174.5 962.5,-174.5"/>
<text text-anchor="middle" x="1001.5" y="-181.9" font-family="DejaVuSans" font-size="12.00">extension.h</text>
</a>
</g>
</g>
<!-- Node6&#45;&gt;Node26 -->
<g id="edge30" class="edge">
<title>Node6&#45;&gt;Node26</title>
<path fill="none" stroke="midnightblue" d="M1445.47,-299.87C1355.26,-298.97 1117.39,-292.88 1050.5,-254 1027.35,-240.55 1012.17,-211.3 1005.45,-195.92"/>
<polygon fill="midnightblue" stroke="midnightblue" points="1445.44,-303.37 1455.47,-299.95 1445.5,-296.37 1445.44,-303.37"/>
</g>
<!-- Node27 -->
<g id="node26" class="node">
<title>Node27</title>
<g id="a_node26"><a xlink:href="linebreak_8c.html" target="_top" xlink:title=" ">
<polygon fill="white" stroke="black" points="197.5,-116.5 197.5,-137.5 271.5,-137.5 271.5,-116.5 197.5,-116.5"/>
<text text-anchor="middle" x="234.5" y="-123.9" font-family="DejaVuSans" font-size="12.00">linebreak.c</text>
</a>
</g>
</g>
<!-- Node6&#45;&gt;Node27 -->
<g id="edge64" class="edge">
<title>Node6&#45;&gt;Node27</title>
<path fill="none" stroke="midnightblue" d="M1445.06,-300.05C1337.04,-299.71 1002.67,-295.18 729.5,-254 621.42,-237.71 596.44,-222.92 490.5,-196 411.39,-175.9 318.91,-150.98 269.64,-137.59"/>
<polygon fill="midnightblue" stroke="midnightblue" points="1445.37,-303.55 1455.37,-300.07 1445.38,-296.55 1445.37,-303.55"/>
</g>
<!-- Node28 -->
<g id="node27" class="node">
<title>Node28</title>
<g id="a_node27"><a xlink:href="print_8c.html" target="_top" xlink:title=" ">
<polygon fill="white" stroke="black" points="791,-116.5 791,-137.5 840,-137.5 840,-116.5 791,-116.5"/>
<text text-anchor="middle" x="815.5" y="-123.9" font-family="DejaVuSans" font-size="12.00">print.c</text>
</a>
</g>
</g>
<!-- Node6&#45;&gt;Node28 -->
<g id="edge72" class="edge">
<title>Node6&#45;&gt;Node28</title>
<path fill="none" stroke="midnightblue" d="M1445.31,-298.47C1352.32,-294.09 1101.79,-280.16 1023.5,-254 941.41,-226.57 857.41,-162.27 827.2,-137.74"/>
<polygon fill="midnightblue" stroke="midnightblue" points="1445.19,-301.96 1455.34,-298.93 1445.52,-294.97 1445.19,-301.96"/>
</g>
<!-- Node29 -->
<g id="node28" class="node">
<title>Node29</title>
<g id="a_node28"><a xlink:href="fonts_8c.html" target="_top" xlink:title=" ">
<polygon fill="white" stroke="black" points="2381,-116.5 2381,-137.5 2432,-137.5 2432,-116.5 2381,-116.5"/>
<text text-anchor="middle" x="2406.5" y="-123.9" font-family="DejaVuSans" font-size="12.00">fonts.c</text>
</a>
</g>
</g>
<!-- Node6&#45;&gt;Node29 -->
<g id="edge42" class="edge">
<title>Node6&#45;&gt;Node29</title>
<path fill="none" stroke="midnightblue" d="M1515.73,-296.37C1575.2,-289.93 1699.17,-275.16 1802.5,-254 1839.47,-246.43 1847.56,-239.7 1884.5,-232 1990.09,-209.99 2019.73,-221.64 2124.5,-196 2153.72,-188.85 2159.45,-181.81 2188.5,-174 2268.55,-152.48 2290.91,-157.4 2371.5,-138 2374.57,-137.26 2377.78,-136.43 2380.95,-135.57"/>
<polygon fill="midnightblue" stroke="midnightblue" points="1515.3,-292.9 1505.73,-297.44 1516.04,-299.86 1515.3,-292.9"/>
</g>
<!-- Node30 -->
<g id="node29" class="node">
<title>Node30</title>
<g id="a_node29"><a xlink:href="hash_8h.html" target="_top" xlink:title=" ">
<polygon fill="white" stroke="red" points="1915,-174.5 1915,-195.5 1968,-195.5 1968,-174.5 1915,-174.5"/>
<text text-anchor="middle" x="1941.5" y="-181.9" font-family="DejaVuSans" font-size="12.00">hash.h</text>
</a>
</g>
</g>
<!-- Node6&#45;&gt;Node30 -->
<g id="edge43" class="edge">
<title>Node6&#45;&gt;Node30</title>
<path fill="none" stroke="midnightblue" d="M1515.68,-291.64C1554.02,-282.51 1617.16,-267.39 1671.5,-254 1760.68,-232.03 1866.21,-205.22 1914.7,-192.85"/>
<polygon fill="midnightblue" stroke="midnightblue" points="1514.47,-288.33 1505.55,-294.05 1516.09,-295.14 1514.47,-288.33"/>
</g>
<!-- Node34 -->
<g id="node32" class="node">
<title>Node34</title>
<g id="a_node32"><a xlink:href="hyphen_8h.html" target="_top" xlink:title=" ">
<polygon fill="white" stroke="red" points="1059.5,-232.5 1059.5,-253.5 1125.5,-253.5 1125.5,-232.5 1059.5,-232.5"/>
<text text-anchor="middle" x="1092.5" y="-239.9" font-family="DejaVuSans" font-size="12.00">hyphen.h</text>
</a>
</g>
</g>
<!-- Node6&#45;&gt;Node34 -->
<g id="edge53" class="edge">
<title>Node6&#45;&gt;Node34</title>
<path fill="none" stroke="midnightblue" d="M1445.07,-294.89C1370.48,-284.12 1198.16,-259.25 1125.63,-248.78"/>
<polygon fill="midnightblue" stroke="midnightblue" points="1444.94,-298.4 1455.34,-296.37 1445.94,-291.48 1444.94,-298.4"/>
</g>
<!-- Node38 -->
<g id="node34" class="node">
<title>Node38</title>
<g id="a_node34"><a xlink:href="hyphen__pre_8c.html" target="_top" xlink:title=" ">
<polygon fill="white" stroke="black" points="290,-116.5 290,-137.5 379,-137.5 379,-116.5 290,-116.5"/>
<text text-anchor="middle" x="334.5" y="-123.9" font-family="DejaVuSans" font-size="12.00">hyphen_pre.c</text>
</a>
</g>
</g>
<!-- Node6&#45;&gt;Node38 -->
<g id="edge62" class="edge">
<title>Node6&#45;&gt;Node38</title>
<path fill="none" stroke="midnightblue" d="M1445.34,-299.56C1348.67,-297.9 1070.96,-290.1 843.5,-254 659.18,-224.75 443.67,-161.55 365.11,-137.53"/>
<polygon fill="midnightblue" stroke="midnightblue" points="1445.38,-303.06 1455.43,-299.72 1445.49,-296.06 1445.38,-303.06"/>
</g>
<!-- Node39 -->
<g id="node35" class="node">
<title>Node39</title>
<g id="a_node35"><a xlink:href="io__fname_8c.html" target="_top" xlink:title=" ">
<polygon fill="white" stroke="black" points="1629,-116.5 1629,-137.5 1704,-137.5 1704,-116.5 1629,-116.5"/>
<text text-anchor="middle" x="1666.5" y="-123.9" font-family="DejaVuSans" font-size="12.00">io_fname.c</text>
</a>
</g>
</g>
<!-- Node6&#45;&gt;Node39 -->
<g id="edge63" class="edge">
<title>Node6&#45;&gt;Node39</title>
<path fill="none" stroke="midnightblue" d="M1499.01,-283.44C1508.72,-274.72 1520.79,-263.82 1531.5,-254 1578.51,-210.87 1634.01,-158.66 1656.39,-137.54"/>
<polygon fill="midnightblue" stroke="midnightblue" points="1496.6,-280.9 1491.49,-290.18 1501.27,-286.11 1496.6,-280.9"/>
</g>
<!-- Node40 -->
<g id="node36" class="node">
<title>Node40</title>
<g id="a_node36"><a xlink:href="math__formula_8c.html" target="_top" xlink:title=" ">
<polygon fill="white" stroke="black" points="2899.5,-116.5 2899.5,-137.5 2997.5,-137.5 2997.5,-116.5 2899.5,-116.5"/>
<text text-anchor="middle" x="2948.5" y="-123.9" font-family="DejaVuSans" font-size="12.00">math_formula.c</text>
</a>
</g>
</g>
<!-- Node6&#45;&gt;Node40 -->
<g id="edge66" class="edge">
<title>Node6&#45;&gt;Node40</title>
<path fill="none" stroke="midnightblue" d="M1516.2,-299.91C1665.63,-298.91 2254.92,-288.96 2727.5,-196 2800.17,-181.7 2882.88,-152.69 2923.42,-137.6"/>
<polygon fill="midnightblue" stroke="midnightblue" points="1515.8,-296.41 1505.82,-299.96 1515.84,-303.41 1515.8,-296.41"/>
</g>
<!-- Node41 -->
<g id="node37" class="node">
<title>Node41</title>
<g id="a_node37"><a xlink:href="mmode_8c.html" target="_top" xlink:title=" ">
<polygon fill="white" stroke="black" points="2816,-116.5 2816,-137.5 2881,-137.5 2881,-116.5 2816,-116.5"/>
<text text-anchor="middle" x="2848.5" y="-123.9" font-family="DejaVuSans" font-size="12.00">mmode.c</text>
</a>
</g>
</g>
<!-- Node6&#45;&gt;Node41 -->
<g id="edge68" class="edge">
<title>Node6&#45;&gt;Node41</title>
<path fill="none" stroke="midnightblue" d="M1515.74,-296.33C1619.03,-285.65 1930.03,-253.9 2188.5,-232 2406.08,-213.56 2465.73,-245.13 2678.5,-196 2735.8,-182.77 2799.06,-153.15 2829.75,-137.74"/>
<polygon fill="midnightblue" stroke="midnightblue" points="1515.15,-292.88 1505.56,-297.39 1515.87,-299.84 1515.15,-292.88"/>
</g>
<!-- Node42 -->
<g id="node38" class="node">
<title>Node42</title>
<g id="a_node38"><a xlink:href="pack_8c.html" target="_top" xlink:title=" ">
<polygon fill="white" stroke="black" points="858,-116.5 858,-137.5 909,-137.5 909,-116.5 858,-116.5"/>
<text text-anchor="middle" x="883.5" y="-123.9" font-family="DejaVuSans" font-size="12.00">pack.c</text>
</a>
</g>
</g>
<!-- Node6&#45;&gt;Node42 -->
<g id="edge69" class="edge">
<title>Node6&#45;&gt;Node42</title>
<path fill="none" stroke="midnightblue" d="M1445.51,-293.21C1376.54,-279.28 1218.79,-244.61 1092.5,-196 1072.47,-188.29 1069.5,-181.8 1049.5,-174 1001.16,-155.16 942.09,-140.73 909.05,-133.38"/>
<polygon fill="midnightblue" stroke="midnightblue" points="1444.92,-296.67 1455.41,-295.2 1446.29,-289.8 1444.92,-296.67"/>
</g>
<!-- Node43 -->
<g id="node39" class="node">
<title>Node43</title>
<g id="a_node39"><a xlink:href="pagebreak_8c.html" target="_top" xlink:title=" ">
<polygon fill="white" stroke="black" points="1344,-116.5 1344,-137.5 1427,-137.5 1427,-116.5 1344,-116.5"/>
<text text-anchor="middle" x="1385.5" y="-123.9" font-family="DejaVuSans" font-size="12.00">pagebreak.c</text>
</a>
</g>
</g>
<!-- Node6&#45;&gt;Node43 -->
<g id="edge71" class="edge">
<title>Node6&#45;&gt;Node43</title>
<path fill="none" stroke="midnightblue" d="M1472.91,-281.01C1462.5,-255.79 1442.57,-210.2 1420.5,-174 1412.46,-160.8 1401.42,-146.84 1393.91,-137.8"/>
<polygon fill="midnightblue" stroke="midnightblue" points="1469.75,-282.55 1476.76,-290.49 1476.24,-279.91 1469.75,-282.55"/>
</g>
<!-- Node44 -->
<g id="node40" class="node">
<title>Node44</title>
<g id="a_node40"><a xlink:href="print_8h.html" target="_top" xlink:title=" ">
<polygon fill="white" stroke="red" points="1528.5,-174.5 1528.5,-195.5 1578.5,-195.5 1578.5,-174.5 1528.5,-174.5"/>
<text text-anchor="middle" x="1553.5" y="-181.9" font-family="DejaVuSans" font-size="12.00">print.h</text>
</a>
</g>
</g>
<!-- Node6&#45;&gt;Node44 -->
<g id="edge73" class="edge">
<title>Node6&#45;&gt;Node44</title>
<path fill="none" stroke="midnightblue" d="M1492.3,-281.57C1507.99,-257.08 1535.13,-214.69 1547.29,-195.69"/>
<polygon fill="midnightblue" stroke="midnightblue" points="1489.17,-279.97 1486.72,-290.28 1495.06,-283.75 1489.17,-279.97"/>
</g>
<!-- Node46 -->
<g id="node42" class="node">
<title>Node46</title>
<g id="a_node42"><a xlink:href="scan_8c.html" target="_top" xlink:title=" ">
<polygon fill="white" stroke="black" points="3168,-116.5 3168,-137.5 3219,-137.5 3219,-116.5 3168,-116.5"/>
<text text-anchor="middle" x="3193.5" y="-123.9" font-family="DejaVuSans" font-size="12.00">scan.c</text>
</a>
</g>
</g>
<!-- Node6&#45;&gt;Node46 -->
<g id="edge103" class="edge">
<title>Node6&#45;&gt;Node46</title>
<path fill="none" stroke="midnightblue" d="M1516,-299.84C1642.15,-298.96 2080.44,-293.08 2439.5,-254 2497.32,-247.71 2510.74,-238.84 2568.5,-232 2687.27,-217.93 2993.67,-238.4 3105.5,-196 3114.21,-192.7 3159.8,-155.72 3181.72,-137.73"/>
<polygon fill="midnightblue" stroke="midnightblue" points="1515.75,-296.35 1505.78,-299.91 1515.8,-303.35 1515.75,-296.35"/>
</g>
<!-- Node8 -->
<g id="node8" class="node">
<title>Node8</title>
<g id="a_node8"><a xlink:href="align_8c.html" target="_top" xlink:title=" ">
<polygon fill="white" stroke="black" points="2280,-58.5 2280,-79.5 2331,-79.5 2331,-58.5 2280,-58.5"/>
<text text-anchor="middle" x="2305.5" y="-65.9" font-family="DejaVuSans" font-size="12.00">align.c</text>
</a>
</g>
</g>
<!-- Node7&#45;&gt;Node8 -->
<g id="edge7" class="edge">
<title>Node7&#45;&gt;Node8</title>
<path fill="none" stroke="midnightblue" d="M1728.05,-172.61C1754.21,-163.93 1790.47,-151.23 1821.5,-138 1841.61,-129.42 1844.5,-122.07 1865.5,-116 2020.39,-71.2 2066.28,-98.13 2226.5,-80 2244.36,-77.98 2264.45,-75.43 2279.9,-73.41"/>
<polygon fill="midnightblue" stroke="midnightblue" points="1726.96,-169.29 1718.55,-175.74 1729.15,-175.94 1726.96,-169.29"/>
</g>
<!-- Node9 -->
<g id="node9" class="node">
<title>Node9</title>
<g id="a_node9"><a xlink:href="lexer_8c.html" target="_top" xlink:title=" ">
<polygon fill="white" stroke="black" points="1560,-116.5 1560,-137.5 1611,-137.5 1611,-116.5 1560,-116.5"/>
<text text-anchor="middle" x="1585.5" y="-123.9" font-family="DejaVuSans" font-size="12.00">lexer.c</text>
</a>
</g>
</g>
<!-- Node7&#45;&gt;Node9 -->
<g id="edge8" class="edge">
<title>Node7&#45;&gt;Node9</title>
<path fill="none" stroke="midnightblue" d="M1664.98,-169.6C1645.8,-159.56 1620.73,-146.44 1603.92,-137.64"/>
<polygon fill="midnightblue" stroke="midnightblue" points="1663.38,-172.71 1673.86,-174.25 1666.63,-166.51 1663.38,-172.71"/>
</g>
<!-- Node7&#45;&gt;Node10 -->
<g id="edge9" class="edge">
<title>Node7&#45;&gt;Node10</title>
<path fill="none" stroke="midnightblue" d="M1728.97,-182.02C1888.56,-173.34 2524.58,-138.76 2685.41,-130.02"/>
<polygon fill="midnightblue" stroke="midnightblue" points="1728.53,-178.54 1718.74,-182.57 1728.91,-185.53 1728.53,-178.54"/>
</g>
<!-- Node7&#45;&gt;Node17 -->
<g id="edge23" class="edge">
<title>Node7&#45;&gt;Node17</title>
<path fill="none" stroke="midnightblue" d="M1718.78,-169.54C1746.47,-154.71 1791.65,-131.66 1832.5,-116 1872.31,-100.74 1919.36,-87.79 1952.09,-79.56"/>
<polygon fill="midnightblue" stroke="midnightblue" points="1716.88,-166.59 1709.75,-174.42 1720.21,-172.75 1716.88,-166.59"/>
</g>
<!-- Node7&#45;&gt;Node19 -->
<g id="edge21" class="edge">
<title>Node7&#45;&gt;Node19</title>
<path fill="none" stroke="midnightblue" d="M1656.18,-180.09C1635.98,-178.02 1610.37,-175.6 1587.5,-174 1229.79,-148.99 1135.42,-195.65 781.5,-138 778.63,-137.53 775.66,-136.91 772.72,-136.2"/>
<polygon fill="midnightblue" stroke="midnightblue" points="1655.9,-183.58 1666.21,-181.13 1656.62,-176.61 1655.9,-183.58"/>
</g>
<!-- Node7&#45;&gt;Node20 -->
<g id="edge22" class="edge">
<title>Node7&#45;&gt;Node20</title>
<path fill="none" stroke="midnightblue" d="M1728.95,-182.13C1869.2,-174.88 2369.79,-148.51 2440.5,-138 2443.47,-137.56 2446.53,-137.01 2449.59,-136.4"/>
<polygon fill="midnightblue" stroke="midnightblue" points="1728.54,-178.65 1718.73,-182.66 1728.9,-185.64 1728.54,-178.65"/>
</g>
<!-- Node10&#45;&gt;Node8 -->
<g id="edge10" class="edge">
<title>Node10&#45;&gt;Node8</title>
<path fill="none" stroke="midnightblue" d="M2675.3,-116.63C2674.02,-116.41 2672.75,-116.2 2671.5,-116 2544.41,-95.58 2391.26,-78.87 2331.32,-72.63"/>
<polygon fill="midnightblue" stroke="midnightblue" points="2674.77,-120.09 2685.23,-118.39 2675.99,-113.19 2674.77,-120.09"/>
</g>
<!-- Node11 -->
<g id="node11" class="node">
<title>Node11</title>
<g id="a_node11"><a xlink:href="build__box_8c.html" target="_top" xlink:title=" ">
<polygon fill="white" stroke="black" points="2650,-58.5 2650,-79.5 2727,-79.5 2727,-58.5 2650,-58.5"/>
<text text-anchor="middle" x="2688.5" y="-65.9" font-family="DejaVuSans" font-size="12.00">build_box.c</text>
</a>
</g>
</g>
<!-- Node10&#45;&gt;Node11 -->
<g id="edge11" class="edge">
<title>Node10&#45;&gt;Node11</title>
<path fill="none" stroke="midnightblue" d="M2711.35,-107.63C2705.68,-98.29 2699.02,-87.32 2694.35,-79.64"/>
<polygon fill="midnightblue" stroke="midnightblue" points="2708.4,-109.51 2716.58,-116.25 2714.38,-105.88 2708.4,-109.51"/>
</g>
<!-- Node12 -->
<g id="node12" class="node">
<title>Node12</title>
<g id="a_node12"><a xlink:href="main__ctrl_8c.html" target="_top" xlink:title=" ">
<polygon fill="white" stroke="black" points="2596.5,-0.5 2596.5,-21.5 2670.5,-21.5 2670.5,-0.5 2596.5,-0.5"/>
<text text-anchor="middle" x="2633.5" y="-7.9" font-family="DejaVuSans" font-size="12.00">main_ctrl.c</text>
</a>
</g>
</g>
<!-- Node10&#45;&gt;Node12 -->
<g id="edge18" class="edge">
<title>Node10&#45;&gt;Node12</title>
<path fill="none" stroke="midnightblue" d="M2732.88,-107.36C2739.44,-92.85 2745.04,-72.77 2735.5,-58 2721.22,-35.89 2693.48,-24.3 2670.53,-18.28"/>
<polygon fill="midnightblue" stroke="midnightblue" points="2729.71,-105.88 2728.36,-116.38 2735.97,-109.01 2729.71,-105.88"/>
</g>
<!-- Node13 -->
<g id="node13" class="node">
<title>Node13</title>
<g id="a_node13"><a xlink:href="build__math_8c.html" target="_top" xlink:title=" ">
<polygon fill="white" stroke="black" points="2425.5,-58.5 2425.5,-79.5 2509.5,-79.5 2509.5,-58.5 2425.5,-58.5"/>
<text text-anchor="middle" x="2467.5" y="-65.9" font-family="DejaVuSans" font-size="12.00">build_math.c</text>
</a>
</g>
</g>
<!-- Node10&#45;&gt;Node13 -->
<g id="edge13" class="edge">
<title>Node10&#45;&gt;Node13</title>
<path fill="none" stroke="midnightblue" d="M2675.4,-115.66C2627.94,-105.23 2555.37,-89.3 2509.72,-79.27"/>
<polygon fill="midnightblue" stroke="midnightblue" points="2674.9,-119.13 2685.42,-117.86 2676.4,-112.29 2674.9,-119.13"/>
</g>
<!-- Node14 -->
<g id="node14" class="node">
<title>Node14</title>
<g id="a_node14"><a xlink:href="extension_8c.html" target="_top" xlink:title=" ">
<polygon fill="white" stroke="black" points="2141,-58.5 2141,-79.5 2218,-79.5 2218,-58.5 2141,-58.5"/>
<text text-anchor="middle" x="2179.5" y="-65.9" font-family="DejaVuSans" font-size="12.00">extension.c</text>
</a>
</g>
</g>
<!-- Node10&#45;&gt;Node14 -->
<g id="edge15" class="edge">
<title>Node10&#45;&gt;Node14</title>
<path fill="none" stroke="midnightblue" d="M2675.24,-120.57C2661.76,-119.06 2647.05,-117.43 2633.5,-116 2472.27,-98.95 2431.75,-96.85 2270.5,-80 2253.27,-78.2 2234.21,-76.12 2218.01,-74.32"/>
<polygon fill="midnightblue" stroke="midnightblue" points="2674.94,-124.06 2685.27,-121.71 2675.73,-117.11 2674.94,-124.06"/>
</g>
<!-- Node15 -->
<g id="node15" class="node">
<title>Node15</title>
<g id="a_node15"><a xlink:href="indep__process_8c.html" target="_top" xlink:title=" ">
<polygon fill="white" stroke="black" points="2527.5,-58.5 2527.5,-79.5 2631.5,-79.5 2631.5,-58.5 2527.5,-58.5"/>
<text text-anchor="middle" x="2579.5" y="-65.9" font-family="DejaVuSans" font-size="12.00">indep_process.c</text>
</a>
</g>
</g>
<!-- Node10&#45;&gt;Node15 -->
<g id="edge16" class="edge">
<title>Node10&#45;&gt;Node15</title>
<path fill="none" stroke="midnightblue" d="M2688.42,-112.65C2662.34,-102.44 2627.02,-88.61 2603.76,-79.5"/>
<polygon fill="midnightblue" stroke="midnightblue" points="2687.33,-115.99 2697.92,-116.37 2689.88,-109.47 2687.33,-115.99"/>
</g>
<!-- Node10&#45;&gt;Node16 -->
<g id="edge19" class="edge">
<title>Node10&#45;&gt;Node16</title>
<path fill="none" stroke="midnightblue" d="M2750.53,-111.6C2770.07,-101.56 2795.61,-88.44 2812.73,-79.64"/>
<polygon fill="midnightblue" stroke="midnightblue" points="2748.78,-108.56 2741.49,-116.25 2751.98,-114.79 2748.78,-108.56"/>
</g>
<!-- Node10&#45;&gt;Node17 -->
<g id="edge20" class="edge">
<title>Node10&#45;&gt;Node17</title>
<path fill="none" stroke="midnightblue" d="M2675.26,-120.33C2661.78,-118.81 2647.07,-117.25 2633.5,-116 2410.76,-95.51 2354.61,-96.03 2131.5,-80 2099.4,-77.69 2063.14,-75.09 2035.7,-73.11"/>
<polygon fill="midnightblue" stroke="midnightblue" points="2674.96,-123.82 2685.29,-121.48 2675.76,-116.87 2674.96,-123.82"/>
</g>
<!-- Node11&#45;&gt;Node12 -->
<g id="edge12" class="edge">
<title>Node11&#45;&gt;Node12</title>
<path fill="none" stroke="midnightblue" d="M2671.88,-51.08C2662.41,-41.44 2650.9,-29.72 2642.97,-21.64"/>
<polygon fill="midnightblue" stroke="midnightblue" points="2669.42,-53.56 2678.92,-58.25 2674.41,-48.66 2669.42,-53.56"/>
</g>
<!-- Node13&#45;&gt;Node12 -->
<g id="edge14" class="edge">
<title>Node13&#45;&gt;Node12</title>
<path fill="none" stroke="midnightblue" d="M2505.87,-55.06C2536.25,-44.81 2577.98,-30.73 2605.34,-21.5"/>
<polygon fill="midnightblue" stroke="midnightblue" points="2504.39,-51.86 2496.04,-58.37 2506.63,-58.49 2504.39,-51.86"/>
</g>
<!-- Node15&#45;&gt;Node12 -->
<g id="edge17" class="edge">
<title>Node15&#45;&gt;Node12</title>
<path fill="none" stroke="midnightblue" d="M2596.1,-50.79C2605.33,-41.21 2616.49,-29.64 2624.2,-21.64"/>
<polygon fill="midnightblue" stroke="midnightblue" points="2593.33,-48.62 2588.91,-58.25 2598.37,-53.48 2593.33,-48.62"/>
</g>
<!-- Node26&#45;&gt;Node3 -->
<g id="edge31" class="edge">
<title>Node26&#45;&gt;Node3</title>
<path fill="none" stroke="midnightblue" d="M952.2,-183.76C825.1,-182.59 476.15,-175.89 188.5,-138 185.46,-137.6 182.33,-137.11 179.19,-136.58"/>
<polygon fill="midnightblue" stroke="midnightblue" points="952.35,-187.26 962.38,-183.85 952.41,-180.26 952.35,-187.26"/>
</g>
<!-- Node26&#45;&gt;Node4 -->
<g id="edge32" class="edge">
<title>Node26&#45;&gt;Node4</title>
<path fill="none" stroke="midnightblue" d="M952.22,-178.6C862.57,-168.7 676.1,-147.78 611.5,-138 608.77,-137.59 605.96,-137.14 603.13,-136.67"/>
<polygon fill="midnightblue" stroke="midnightblue" points="952.08,-182.1 962.4,-179.72 952.85,-175.14 952.08,-182.1"/>
</g>
<!-- Node26&#45;&gt;Node5 -->
<g id="edge33" class="edge">
<title>Node26&#45;&gt;Node5</title>
<path fill="none" stroke="midnightblue" d="M1050.74,-181C1211.7,-171.18 1720.76,-140.12 1874.87,-130.72"/>
<polygon fill="midnightblue" stroke="midnightblue" points="1050.42,-177.51 1040.65,-181.61 1050.85,-184.5 1050.42,-177.51"/>
</g>
<!-- Node26&#45;&gt;Node10 -->
<g id="edge38" class="edge">
<title>Node26&#45;&gt;Node10</title>
<path fill="none" stroke="midnightblue" d="M1051.01,-182.1C1106.25,-180 1198.26,-176.58 1277.5,-174 1831.22,-155.97 1969.92,-159.9 2523.5,-138 2580.01,-135.76 2645.51,-132.31 2685.47,-130.1"/>
<polygon fill="midnightblue" stroke="midnightblue" points="1050.66,-178.61 1040.8,-182.49 1050.93,-185.6 1050.66,-178.61"/>
</g>
<!-- Node26&#45;&gt;Node14 -->
<g id="edge36" class="edge">
<title>Node26&#45;&gt;Node14</title>
<path fill="none" stroke="midnightblue" d="M952.06,-178.37C938.58,-176.89 923.99,-175.34 910.5,-174 819.37,-164.97 438.5,-181.51 502.5,-116 532.44,-85.35 2001.71,-82.08 2044.5,-80 2077.01,-78.42 2113.86,-75.62 2140.83,-73.39"/>
<polygon fill="midnightblue" stroke="midnightblue" points="951.78,-181.86 962.1,-179.48 952.55,-174.9 951.78,-181.86"/>
</g>
<!-- Node26&#45;&gt;Node17 -->
<g id="edge41" class="edge">
<title>Node26&#45;&gt;Node17</title>
<path fill="none" stroke="midnightblue" d="M952.06,-178.31C938.59,-176.83 923.99,-175.29 910.5,-174 812.11,-164.58 400.67,-186.94 469.5,-116 495.98,-88.71 1704.23,-73.33 1949.38,-70.48"/>
<polygon fill="midnightblue" stroke="midnightblue" points="951.78,-181.8 962.11,-179.43 952.55,-174.85 951.78,-181.8"/>
</g>
<!-- Node26&#45;&gt;Node20 -->
<g id="edge40" class="edge">
<title>Node26&#45;&gt;Node20</title>
<path fill="none" stroke="midnightblue" d="M1051.01,-182.13C1106.25,-180.06 1198.27,-176.66 1277.5,-174 1535.92,-165.32 2184.19,-172.12 2440.5,-138 2443.47,-137.6 2446.54,-137.09 2449.6,-136.5"/>
<polygon fill="midnightblue" stroke="midnightblue" points="1050.67,-178.64 1040.8,-182.51 1050.93,-185.63 1050.67,-178.64"/>
</g>
<!-- Node26&#45;&gt;Node22 -->
<g id="edge34" class="edge">
<title>Node26&#45;&gt;Node22</title>
<path fill="none" stroke="midnightblue" d="M1037.36,-170.79C1065.11,-160.56 1102.88,-146.65 1127.71,-137.5"/>
<polygon fill="midnightblue" stroke="midnightblue" points="1035.8,-167.63 1027.63,-174.37 1038.22,-174.2 1035.8,-167.63"/>
</g>
<!-- Node26&#45;&gt;Node23 -->
<g id="edge35" class="edge">
<title>Node26&#45;&gt;Node23</title>
<path fill="none" stroke="midnightblue" d="M1050.83,-182.21C1271.55,-174.17 2160.34,-141.71 2219.5,-138 2248.45,-136.18 2281.46,-133.19 2304.48,-130.95"/>
<polygon fill="midnightblue" stroke="midnightblue" points="1050.39,-178.72 1040.53,-182.58 1050.65,-185.71 1050.39,-178.72"/>
</g>
<!-- Node26&#45;&gt;Node27 -->
<g id="edge37" class="edge">
<title>Node26&#45;&gt;Node27</title>
<path fill="none" stroke="midnightblue" d="M951.63,-181.25C799.3,-172.81 346.46,-147.22 280.5,-138 277.59,-137.59 274.58,-137.1 271.57,-136.56"/>
<polygon fill="midnightblue" stroke="midnightblue" points="951.89,-184.77 962.07,-181.83 952.28,-177.78 951.89,-184.77"/>
</g>
<!-- Node26&#45;&gt;Node28 -->
<g id="edge39" class="edge">
<title>Node26&#45;&gt;Node28</title>
<path fill="none" stroke="midnightblue" d="M959.61,-171.43C928.86,-162.2 886.07,-149.34 848.5,-138 845.75,-137.17 842.87,-136.3 840.01,-135.43"/>
<polygon fill="midnightblue" stroke="midnightblue" points="958.97,-174.89 969.55,-174.42 960.98,-168.19 958.97,-174.89"/>
</g>
<!-- Node30&#45;&gt;Node5 -->
<g id="edge44" class="edge">
<title>Node30&#45;&gt;Node5</title>
<path fill="none" stroke="midnightblue" d="M1933.94,-164.75C1930.35,-155.61 1926.21,-145.08 1923.29,-137.64"/>
<polygon fill="midnightblue" stroke="midnightblue" points="1930.75,-166.22 1937.67,-174.25 1937.27,-163.66 1930.75,-166.22"/>
</g>
<!-- Node30&#45;&gt;Node9 -->
<g id="edge49" class="edge">
<title>Node30&#45;&gt;Node9</title>
<path fill="none" stroke="midnightblue" d="M1904.85,-180.5C1844.78,-174.38 1721.79,-160.23 1619.5,-138 1616.73,-137.4 1613.86,-136.69 1611.02,-135.93"/>
<polygon fill="midnightblue" stroke="midnightblue" points="1904.68,-184 1914.98,-181.52 1905.37,-177.04 1904.68,-184"/>
</g>
<!-- Node30&#45;&gt;Node10 -->
<g id="edge50" class="edge">
<title>Node30&#45;&gt;Node10</title>
<path fill="none" stroke="midnightblue" d="M1978.19,-178.53C1990.08,-176.9 2003.33,-175.22 2015.5,-174 2147.53,-160.8 2559.18,-137.18 2685.36,-130.07"/>
<polygon fill="midnightblue" stroke="midnightblue" points="1977.58,-175.08 1968.16,-179.94 1978.55,-182.01 1977.58,-175.08"/>
</g>
<!-- Node30&#45;&gt;Node17 -->
<g id="edge52" class="edge">
<title>Node30&#45;&gt;Node17</title>
<path fill="none" stroke="midnightblue" d="M1955.36,-166.21C1961.28,-157.98 1967.87,-147.86 1972.5,-138 1981.82,-118.18 1987.85,-93.05 1990.66,-79.57"/>
<polygon fill="midnightblue" stroke="midnightblue" points="1952.5,-164.19 1949.34,-174.3 1958.12,-168.38 1952.5,-164.19"/>
</g>
<!-- Node30&#45;&gt;Node22 -->
<g id="edge45" class="edge">
<title>Node30&#45;&gt;Node22</title>
<path fill="none" stroke="midnightblue" d="M1904.43,-182.17C1762.93,-175.13 1261.25,-149.6 1190.5,-138 1187.61,-137.53 1184.62,-136.92 1181.65,-136.24"/>
<polygon fill="midnightblue" stroke="midnightblue" points="1904.58,-185.68 1914.74,-182.68 1904.92,-178.69 1904.58,-185.68"/>
</g>
<!-- Node30&#45;&gt;Node24 -->
<g id="edge46" class="edge">
<title>Node30&#45;&gt;Node24</title>
<path fill="none" stroke="midnightblue" d="M1904.71,-182.02C1771.83,-174.78 1321.27,-149.65 1257.5,-138 1254.79,-137.51 1251.99,-136.87 1249.22,-136.15"/>
<polygon fill="midnightblue" stroke="midnightblue" points="1904.61,-185.52 1914.79,-182.56 1904.99,-178.53 1904.61,-185.52"/>
</g>
<!-- Node30&#45;&gt;Node29 -->
<g id="edge48" class="edge">
<title>Node30&#45;&gt;Node29</title>
<path fill="none" stroke="midnightblue" d="M1978.22,-178.79C1990.11,-177.17 2003.35,-175.43 2015.5,-174 2173.43,-155.35 2215.32,-167.96 2371.5,-138 2374.48,-137.43 2377.57,-136.72 2380.63,-135.95"/>
<polygon fill="midnightblue" stroke="midnightblue" points="1977.62,-175.34 1968.19,-180.17 1978.57,-182.27 1977.62,-175.34"/>
</g>
<!-- Node31 -->
<g id="node30" class="node">
<title>Node31</title>
<g id="a_node30"><a xlink:href="expand_8c.html" target="_top" xlink:title=" ">
<polygon fill="white" stroke="black" points="2089,-116.5 2089,-137.5 2154,-137.5 2154,-116.5 2089,-116.5"/>
<text text-anchor="middle" x="2121.5" y="-123.9" font-family="DejaVuSans" font-size="12.00">expand.c</text>
</a>
</g>
</g>
<!-- Node30&#45;&gt;Node31 -->
<g id="edge47" class="edge">
<title>Node30&#45;&gt;Node31</title>
<path fill="none" stroke="midnightblue" d="M1977.84,-172.69C2011.06,-162.36 2059.63,-147.25 2090.91,-137.52"/>
<polygon fill="midnightblue" stroke="midnightblue" points="1976.57,-169.42 1968.06,-175.74 1978.65,-176.11 1976.57,-169.42"/>
</g>
<!-- Node33 -->
<g id="node31" class="node">
<title>Node33</title>
<g id="a_node31"><a xlink:href="str_8c.html" target="_top" xlink:title=" ">
<polygon fill="white" stroke="black" points="2172.5,-116.5 2172.5,-137.5 2210.5,-137.5 2210.5,-116.5 2172.5,-116.5"/>
<text text-anchor="middle" x="2191.5" y="-123.9" font-family="DejaVuSans" font-size="12.00">str.c</text>
</a>
</g>
</g>
<!-- Node30&#45;&gt;Node33 -->
<g id="edge51" class="edge">
<title>Node30&#45;&gt;Node33</title>
<path fill="none" stroke="midnightblue" d="M1978.27,-177.82C2022.41,-170.07 2098.49,-155.62 2162.5,-138 2165.68,-137.12 2169.03,-136.09 2172.26,-135.01"/>
<polygon fill="midnightblue" stroke="midnightblue" points="1977.55,-174.39 1968.29,-179.56 1978.75,-181.29 1977.55,-174.39"/>
</g>
<!-- Node34&#45;&gt;Node10 -->
<g id="edge59" class="edge">
<title>Node34&#45;&gt;Node10</title>
<path fill="none" stroke="midnightblue" d="M1136.05,-241.56C1380.71,-238.99 2575.57,-224.98 2647.5,-196 2677.82,-183.78 2703.67,-153.42 2715.55,-137.73"/>
<polygon fill="midnightblue" stroke="midnightblue" points="1135.74,-238.06 1125.78,-241.67 1135.82,-245.06 1135.74,-238.06"/>
</g>
<!-- Node34&#45;&gt;Node17 -->
<g id="edge61" class="edge">
<title>Node34&#45;&gt;Node17</title>
<path fill="none" stroke="midnightblue" d="M1049.3,-232.63C1012.16,-224.21 957.34,-210.9 910.5,-196 884.62,-187.77 879.94,-180.18 853.5,-174 767.11,-153.81 396.71,-179.67 458.5,-116 485.19,-88.5 1703.47,-73.27 1949.47,-70.47"/>
<polygon fill="midnightblue" stroke="midnightblue" points="1048.76,-236.1 1059.28,-234.87 1050.29,-229.27 1048.76,-236.1"/>
</g>
<!-- Node34&#45;&gt;Node19 -->
<g id="edge60" class="edge">
<title>Node34&#45;&gt;Node19</title>
<path fill="none" stroke="midnightblue" d="M1049.59,-229.66C1021.8,-221.22 985.04,-209.19 953.5,-196 933.7,-187.71 930.49,-181.81 910.5,-174 855.06,-152.34 838.78,-154.18 781.5,-138 778.7,-137.21 775.78,-136.38 772.87,-135.55"/>
<polygon fill="midnightblue" stroke="midnightblue" points="1048.82,-233.09 1059.4,-232.61 1050.83,-226.38 1048.82,-233.09"/>
</g>
<!-- Node34&#45;&gt;Node22 -->
<g id="edge54" class="edge">
<title>Node34&#45;&gt;Node22</title>
<path fill="none" stroke="midnightblue" d="M1102.54,-223.24C1115.67,-198.7 1138.19,-156.6 1148.31,-137.69"/>
<polygon fill="midnightblue" stroke="midnightblue" points="1099.33,-221.81 1097.7,-232.28 1105.5,-225.11 1099.33,-221.81"/>
</g>
<!-- Node34&#45;&gt;Node26 -->
<g id="edge55" class="edge">
<title>Node34&#45;&gt;Node26</title>
<path fill="none" stroke="midnightblue" d="M1067.75,-226.77C1051.62,-216.85 1031.07,-204.2 1017.17,-195.64"/>
<polygon fill="midnightblue" stroke="midnightblue" points="1066.3,-229.99 1076.65,-232.25 1069.97,-224.02 1066.3,-229.99"/>
</g>
<!-- Node34&#45;&gt;Node27 -->
<g id="edge58" class="edge">
<title>Node34&#45;&gt;Node27</title>
<path fill="none" stroke="midnightblue" d="M1049.46,-235.14C967.23,-222.15 782.01,-193.55 625.5,-174 472.52,-154.89 432.72,-162.41 280.5,-138 277.59,-137.53 274.6,-137 271.59,-136.43"/>
<polygon fill="midnightblue" stroke="midnightblue" points="1049.01,-238.61 1059.44,-236.71 1050.11,-231.69 1049.01,-238.61"/>
</g>
<!-- Node35 -->
<g id="node33" class="node">
<title>Node35</title>
<g id="a_node33"><a xlink:href="hyphen_8c.html" target="_top" xlink:title=" ">
<polygon fill="white" stroke="black" points="1042,-116.5 1042,-137.5 1107,-137.5 1107,-116.5 1042,-116.5"/>
<text text-anchor="middle" x="1074.5" y="-123.9" font-family="DejaVuSans" font-size="12.00">hyphen.c</text>
</a>
</g>
</g>
<!-- Node34&#45;&gt;Node35 -->
<g id="edge56" class="edge">
<title>Node34&#45;&gt;Node35</title>
<path fill="none" stroke="midnightblue" d="M1089.38,-222.25C1085.49,-197.58 1078.98,-156.35 1076.03,-137.69"/>
<polygon fill="midnightblue" stroke="midnightblue" points="1085.95,-222.95 1090.97,-232.28 1092.86,-221.86 1085.95,-222.95"/>
</g>
<!-- Node34&#45;&gt;Node38 -->
<g id="edge57" class="edge">
<title>Node34&#45;&gt;Node38</title>
<path fill="none" stroke="midnightblue" d="M1049.31,-233C1006.79,-224.03 940.03,-209.66 882.5,-196 844.11,-186.89 835.39,-180.67 796.5,-174 619.26,-143.62 571.84,-161.04 393.5,-138 388.86,-137.4 384.03,-136.7 379.22,-135.96"/>
<polygon fill="midnightblue" stroke="midnightblue" points="1048.81,-236.47 1059.32,-235.1 1050.26,-229.62 1048.81,-236.47"/>
</g>
<!-- Node44&#45;&gt;Node5 -->
<g id="edge75" class="edge">
<title>Node44&#45;&gt;Node5</title>
<path fill="none" stroke="midnightblue" d="M1588.7,-178.61C1655.64,-168.37 1801.16,-146.11 1874.84,-134.83"/>
<polygon fill="midnightblue" stroke="midnightblue" points="1588.01,-175.18 1578.66,-180.15 1589.07,-182.1 1588.01,-175.18"/>
</g>
<!-- Node44&#45;&gt;Node8 -->
<g id="edge74" class="edge">
<title>Node44&#45;&gt;Node8</title>
<path fill="none" stroke="midnightblue" d="M1545.91,-164.64C1541.34,-149.4 1538.48,-128.68 1550.5,-116 1576.38,-88.71 2189.04,-83.36 2226.5,-80 2244.4,-78.39 2264.49,-75.84 2279.93,-73.71"/>
<polygon fill="midnightblue" stroke="midnightblue" points="1542.62,-165.83 1549.18,-174.15 1549.24,-163.56 1542.62,-165.83"/>
</g>
<!-- Node44&#45;&gt;Node9 -->
<g id="edge88" class="edge">
<title>Node44&#45;&gt;Node9</title>
<path fill="none" stroke="midnightblue" d="M1564.16,-165.34C1569.47,-156.06 1575.65,-145.24 1579.99,-137.64"/>
<polygon fill="midnightblue" stroke="midnightblue" points="1561,-163.83 1559.07,-174.25 1567.07,-167.3 1561,-163.83"/>
</g>
<!-- Node44&#45;&gt;Node10 -->
<g id="edge90" class="edge">
<title>Node44&#45;&gt;Node10</title>
<path fill="none" stroke="midnightblue" d="M1588.66,-180.14C1608.79,-178.05 1634.54,-175.58 1657.5,-174 2041.81,-147.56 2138.68,-155.67 2523.5,-138 2580,-135.41 2645.5,-132.05 2685.46,-129.96"/>
<polygon fill="midnightblue" stroke="midnightblue" points="1588.26,-176.66 1578.69,-181.19 1589,-183.62 1588.26,-176.66"/>
</g>
<!-- Node44&#45;&gt;Node14 -->
<g id="edge83" class="edge">
<title>Node44&#45;&gt;Node14</title>
<path fill="none" stroke="midnightblue" d="M1534.26,-167.41C1519.37,-152.62 1503.45,-131.05 1517.5,-116 1557.56,-73.11 1985.96,-84.17 2044.5,-80 2076.97,-77.69 2113.82,-74.95 2140.81,-72.93"/>
<polygon fill="midnightblue" stroke="midnightblue" points="1532.1,-170.18 1541.79,-174.46 1536.88,-165.07 1532.1,-170.18"/>
</g>
<!-- Node44&#45;&gt;Node16 -->
<g id="edge95" class="edge">
<title>Node44&#45;&gt;Node16</title>
<path fill="none" stroke="midnightblue" d="M1588.5,-177.8C1633.89,-169.59 1715.44,-154.23 1784.5,-138 1820.81,-129.46 1828.63,-121.7 1865.5,-116 2247.96,-56.91 2349.52,-108.06 2735.5,-80 2751.21,-78.86 2768.33,-77.21 2783.7,-75.57"/>
<polygon fill="midnightblue" stroke="midnightblue" points="1587.8,-174.37 1578.58,-179.59 1589.04,-181.26 1587.8,-174.37"/>
</g>
<!-- Node44&#45;&gt;Node17 -->
<g id="edge101" class="edge">
<title>Node44&#45;&gt;Node17</title>
<path fill="none" stroke="midnightblue" d="M1519.85,-170.08C1492.49,-156.85 1461.17,-136.04 1479.5,-116 1510.95,-81.6 1831.46,-72.72 1949.32,-70.61"/>
<polygon fill="midnightblue" stroke="midnightblue" points="1518.73,-173.42 1529.28,-174.44 1521.67,-167.07 1518.73,-173.42"/>
</g>
<!-- Node44&#45;&gt;Node19 -->
<g id="edge92" class="edge">
<title>Node44&#45;&gt;Node19</title>
<path fill="none" stroke="midnightblue" d="M1518.1,-182.11C1371.54,-174.24 818.22,-144.26 781.5,-138 778.63,-137.51 775.67,-136.88 772.73,-136.16"/>
<polygon fill="midnightblue" stroke="midnightblue" points="1518.15,-185.61 1528.33,-182.66 1518.53,-178.62 1518.15,-185.61"/>
</g>
<!-- Node44&#45;&gt;Node20 -->
<g id="edge98" class="edge">
<title>Node44&#45;&gt;Node20</title>
<path fill="none" stroke="midnightblue" d="M1588.66,-180.18C1608.79,-178.1 1634.54,-175.63 1657.5,-174 2004.99,-149.32 2095.53,-186.56 2440.5,-138 2443.47,-137.58 2446.54,-137.05 2449.6,-136.45"/>
<polygon fill="midnightblue" stroke="midnightblue" points="1588.27,-176.7 1578.69,-181.22 1589,-183.66 1588.27,-176.7"/>
</g>
<!-- Node44&#45;&gt;Node21 -->
<g id="edge76" class="edge">
<title>Node44&#45;&gt;Node21</title>
<path fill="none" stroke="midnightblue" d="M1518.41,-177.2C1475.07,-168.66 1399.12,-153.28 1334.5,-138 1331.84,-137.37 1329.09,-136.7 1326.34,-136"/>
<polygon fill="midnightblue" stroke="midnightblue" points="1517.96,-180.67 1528.45,-179.16 1519.31,-173.8 1517.96,-180.67"/>
</g>
<!-- Node44&#45;&gt;Node22 -->
<g id="edge77" class="edge">
<title>Node44&#45;&gt;Node22</title>
<path fill="none" stroke="midnightblue" d="M1518.07,-181.15C1452.82,-175.53 1309.45,-161.5 1190.5,-138 1187.63,-137.43 1184.65,-136.76 1181.69,-136.05"/>
<polygon fill="midnightblue" stroke="midnightblue" points="1517.96,-184.65 1528.22,-182.01 1518.55,-177.67 1517.96,-184.65"/>
</g>
<!-- Node44&#45;&gt;Node23 -->
<g id="edge78" class="edge">
<title>Node44&#45;&gt;Node23</title>
<path fill="none" stroke="midnightblue" d="M1588.67,-180.34C1608.81,-178.31 1634.56,-175.84 1657.5,-174 1906.99,-154.02 1969.93,-156.94 2219.5,-138 2248.42,-135.81 2281.44,-132.86 2304.46,-130.74"/>
<polygon fill="midnightblue" stroke="midnightblue" points="1588.29,-176.86 1578.7,-181.35 1589,-183.82 1588.29,-176.86"/>
</g>
<!-- Node44&#45;&gt;Node24 -->
<g id="edge79" class="edge">
<title>Node44&#45;&gt;Node24</title>
<path fill="none" stroke="midnightblue" d="M1518.26,-180.14C1462.48,-173.68 1350.62,-159.24 1257.5,-138 1254.82,-137.39 1252.03,-136.67 1249.27,-135.91"/>
<polygon fill="midnightblue" stroke="midnightblue" points="1517.99,-183.64 1528.33,-181.29 1518.79,-176.68 1517.99,-183.64"/>
</g>
<!-- Node44&#45;&gt;Node25 -->
<g id="edge80" class="edge">
<title>Node44&#45;&gt;Node25</title>
<path fill="none" stroke="midnightblue" d="M1517.96,-182.2C1362.97,-174.34 752.06,-143.14 711.5,-138 708.43,-137.61 705.26,-137.14 702.08,-136.62"/>
<polygon fill="midnightblue" stroke="midnightblue" points="1518.16,-185.72 1528.32,-182.73 1518.51,-178.72 1518.16,-185.72"/>
</g>
<!-- Node44&#45;&gt;Node27 -->
<g id="edge89" class="edge">
<title>Node44&#45;&gt;Node27</title>
<path fill="none" stroke="midnightblue" d="M1518.27,-182.12C1477.43,-179.98 1408.11,-176.46 1348.5,-174 873.97,-154.43 751.8,-196.68 280.5,-138 277.58,-137.64 274.57,-137.18 271.56,-136.66"/>
<polygon fill="midnightblue" stroke="midnightblue" points="1518.09,-185.62 1528.26,-182.65 1518.46,-178.62 1518.09,-185.62"/>
</g>
<!-- Node44&#45;&gt;Node28 -->
<g id="edge97" class="edge">
<title>Node44&#45;&gt;Node28</title>
<path fill="none" stroke="midnightblue" d="M1518.29,-182.18C1384.87,-175.2 914.67,-150.02 848.5,-138 845.79,-137.51 842.99,-136.87 840.22,-136.15"/>
<polygon fill="midnightblue" stroke="midnightblue" points="1518.2,-185.68 1528.37,-182.7 1518.57,-178.69 1518.2,-185.68"/>
</g>
<!-- Node44&#45;&gt;Node29 -->
<g id="edge84" class="edge">
<title>Node44&#45;&gt;Node29</title>
<path fill="none" stroke="midnightblue" d="M1588.66,-180.22C1608.8,-178.15 1634.55,-175.68 1657.5,-174 1974.39,-150.79 2058.04,-189.98 2371.5,-138 2374.49,-137.5 2377.59,-136.84 2380.66,-136.09"/>
<polygon fill="midnightblue" stroke="midnightblue" points="1588.28,-176.74 1578.69,-181.25 1589,-183.7 1588.28,-176.74"/>
</g>
<!-- Node44&#45;&gt;Node31 -->
<g id="edge82" class="edge">
<title>Node44&#45;&gt;Node31</title>
<path fill="none" stroke="midnightblue" d="M1588.69,-180.52C1608.83,-178.55 1634.58,-176.08 1657.5,-174 1844.97,-156.99 1893.65,-167.88 2079.5,-138 2082.46,-137.52 2085.52,-136.95 2088.58,-136.33"/>
<polygon fill="midnightblue" stroke="midnightblue" points="1588.32,-177.04 1578.71,-181.5 1589,-184.01 1588.32,-177.04"/>
</g>
<!-- Node44&#45;&gt;Node33 -->
<g id="edge100" class="edge">
<title>Node44&#45;&gt;Node33</title>
<path fill="none" stroke="midnightblue" d="M1588.68,-180.4C1608.82,-178.39 1634.57,-175.92 1657.5,-174 1881.73,-155.23 1942.04,-183.06 2162.5,-138 2165.74,-137.34 2169.1,-136.41 2172.35,-135.39"/>
<polygon fill="midnightblue" stroke="midnightblue" points="1588.3,-176.92 1578.7,-181.4 1589,-183.88 1588.3,-176.92"/>
</g>
<!-- Node44&#45;&gt;Node35 -->
<g id="edge85" class="edge">
<title>Node44&#45;&gt;Node35</title>
<path fill="none" stroke="midnightblue" d="M1517.97,-181.82C1443.24,-176.89 1264.5,-163.3 1116.5,-138 1113.54,-137.49 1110.49,-136.9 1107.43,-136.26"/>
<polygon fill="midnightblue" stroke="midnightblue" points="1518.01,-185.33 1528.22,-182.48 1518.47,-178.34 1518.01,-185.33"/>
</g>
<!-- Node44&#45;&gt;Node38 -->
<g id="edge86" class="edge">
<title>Node44&#45;&gt;Node38</title>
<path fill="none" stroke="midnightblue" d="M1518.26,-182.21C1477.42,-180.16 1408.1,-176.72 1348.5,-174 972.55,-156.83 878.35,-157.18 502.5,-138 460.63,-135.86 412.91,-132.98 379.06,-130.86"/>
<polygon fill="midnightblue" stroke="midnightblue" points="1518.09,-185.71 1528.25,-182.72 1518.44,-178.72 1518.09,-185.71"/>
</g>
<!-- Node44&#45;&gt;Node39 -->
<g id="edge87" class="edge">
<title>Node44&#45;&gt;Node39</title>
<path fill="none" stroke="midnightblue" d="M1582.08,-169.84C1602.51,-159.71 1629.44,-146.37 1647.33,-137.5"/>
<polygon fill="midnightblue" stroke="midnightblue" points="1580.33,-166.8 1572.93,-174.37 1583.44,-173.07 1580.33,-166.8"/>
</g>
<!-- Node44&#45;&gt;Node40 -->
<g id="edge91" class="edge">
<title>Node44&#45;&gt;Node40</title>
<path fill="none" stroke="midnightblue" d="M1588.65,-180.03C1608.78,-177.91 1634.53,-175.44 1657.5,-174 2204.66,-139.74 2345,-192.71 2890.5,-138 2893.35,-137.71 2896.26,-137.37 2899.2,-136.99"/>
<polygon fill="midnightblue" stroke="midnightblue" points="1588.25,-176.55 1578.68,-181.1 1589,-183.51 1588.25,-176.55"/>
</g>
<!-- Node44&#45;&gt;Node41 -->
<g id="edge93" class="edge">
<title>Node44&#45;&gt;Node41</title>
<path fill="none" stroke="midnightblue" d="M1588.65,-180.06C1608.78,-177.94 1634.53,-175.47 1657.5,-174 2150.52,-142.34 2275.98,-176.68 2768.5,-138 2784.13,-136.77 2801.39,-134.71 2815.87,-132.77"/>
<polygon fill="midnightblue" stroke="midnightblue" points="1588.25,-176.58 1578.68,-181.13 1589,-183.54 1588.25,-176.58"/>
</g>
<!-- Node44&#45;&gt;Node42 -->
<g id="edge94" class="edge">
<title>Node44&#45;&gt;Node42</title>
<path fill="none" stroke="midnightblue" d="M1518.42,-181.07C1399.36,-171.12 1012.31,-138.77 909.03,-130.13"/>
<polygon fill="midnightblue" stroke="midnightblue" points="1518.2,-184.56 1528.46,-181.91 1518.78,-177.59 1518.2,-184.56"/>
</g>
<!-- Node44&#45;&gt;Node43 -->
<g id="edge96" class="edge">
<title>Node44&#45;&gt;Node43</title>
<path fill="none" stroke="midnightblue" d="M1518.83,-172.44C1487.91,-162.14 1443.17,-147.22 1414.21,-137.57"/>
<polygon fill="midnightblue" stroke="midnightblue" points="1517.76,-175.77 1528.35,-175.62 1519.97,-169.13 1517.76,-175.77"/>
</g>
<!-- Node45 -->
<g id="node41" class="node">
<title>Node45</title>
<g id="a_node41"><a xlink:href="error_8c.html" target="_top" xlink:title=" ">
<polygon fill="white" stroke="black" points="2020.5,-116.5 2020.5,-137.5 2070.5,-137.5 2070.5,-116.5 2020.5,-116.5"/>
<text text-anchor="middle" x="2045.5" y="-123.9" font-family="DejaVuSans" font-size="12.00">error.c</text>
</a>
</g>
</g>
<!-- Node44&#45;&gt;Node45 -->
<g id="edge81" class="edge">
<title>Node44&#45;&gt;Node45</title>
<path fill="none" stroke="midnightblue" d="M1588.89,-180.44C1661.09,-173.1 1830.53,-155.51 1972.5,-138 1988.37,-136.04 2006.15,-133.61 2020.18,-131.64"/>
<polygon fill="midnightblue" stroke="midnightblue" points="1588.15,-176.99 1578.56,-181.49 1588.86,-183.96 1588.15,-176.99"/>
</g>
<!-- Node44&#45;&gt;Node46 -->
<g id="edge99" class="edge">
<title>Node44&#45;&gt;Node46</title>
<path fill="none" stroke="midnightblue" d="M1588.65,-180.01C1608.78,-177.88 1634.53,-175.41 1657.5,-174 2256.14,-137.28 2407.21,-162.02 3006.5,-138 3064.16,-135.69 3131.76,-131.78 3167.8,-129.59"/>
<polygon fill="midnightblue" stroke="midnightblue" points="1588.25,-176.53 1578.68,-181.09 1589,-183.49 1588.25,-176.53"/>
</g>
<!-- Node48&#45;&gt;Node10 -->
<g id="edge121" class="edge">
<title>Node48&#45;&gt;Node10</title>
<path fill="none" stroke="midnightblue" d="M2694.91,-294.79C2719.39,-289.18 2749.93,-277.64 2765.5,-254 2791.05,-215.2 2749.97,-159.65 2731.14,-137.58"/>
<polygon fill="midnightblue" stroke="midnightblue" points="2693.94,-291.41 2684.85,-296.84 2695.35,-298.27 2693.94,-291.41"/>
</g>
<!-- Node48&#45;&gt;Node17 -->
<g id="edge138" class="edge">
<title>Node48&#45;&gt;Node17</title>
<path fill="none" stroke="midnightblue" d="M2662.99,-280.12C2665.11,-265.47 2665.36,-245.79 2655.5,-232 2629.95,-196.29 2593.07,-228.46 2563.5,-196 2538.58,-168.65 2569.1,-139.47 2540.5,-116 2535.62,-111.99 2163.88,-83.14 2035.52,-73.29"/>
<polygon fill="midnightblue" stroke="midnightblue" points="2659.51,-279.68 2661.14,-290.15 2666.39,-280.96 2659.51,-279.68"/>
</g>
<!-- Node48&#45;&gt;Node20 -->
<g id="edge136" class="edge">
<title>Node48&#45;&gt;Node20</title>
<path fill="none" stroke="midnightblue" d="M2656.14,-279.96C2653.37,-264.92 2647.38,-244.8 2634.5,-232 2599.81,-197.52 2569.6,-225.39 2530.5,-196 2509.48,-180.2 2494.09,-152.49 2486.94,-137.8"/>
<polygon fill="midnightblue" stroke="midnightblue" points="2652.74,-280.9 2657.69,-290.27 2659.66,-279.86 2652.74,-280.9"/>
</g>
<!-- Node48&#45;&gt;Node21 -->
<g id="edge106" class="edge">
<title>Node48&#45;&gt;Node21</title>
<path fill="none" stroke="midnightblue" d="M2622.49,-296.38C2518.42,-285.96 2208.22,-255.14 1950.5,-232 1759.05,-214.81 1708.28,-232.24 1519.5,-196 1445.96,-181.88 1362.25,-152.66 1321.48,-137.53"/>
<polygon fill="midnightblue" stroke="midnightblue" points="2622.17,-299.87 2632.47,-297.38 2622.87,-292.9 2622.17,-299.87"/>
</g>
<!-- Node48&#45;&gt;Node23 -->
<g id="edge107" class="edge">
<title>Node48&#45;&gt;Node23</title>
<path fill="none" stroke="midnightblue" d="M2626.15,-286.3C2605.91,-277.52 2579.43,-265.62 2556.5,-254 2476.97,-213.7 2385.23,-159.24 2349.18,-137.52"/>
<polygon fill="midnightblue" stroke="midnightblue" points="2624.97,-289.61 2635.53,-290.35 2627.74,-283.18 2624.97,-289.61"/>
</g>
<!-- Node48&#45;&gt;Node29 -->
<g id="edge118" class="edge">
<title>Node48&#45;&gt;Node29</title>
<path fill="none" stroke="midnightblue" d="M2635.67,-284.53C2605.74,-264.24 2551.64,-227.53 2505.5,-196 2475.2,-175.3 2439.77,-150.92 2420.58,-137.71"/>
<polygon fill="midnightblue" stroke="midnightblue" points="2633.9,-287.56 2644.14,-290.27 2637.83,-281.77 2633.9,-287.56"/>
</g>
<!-- Node48&#45;&gt;Node30 -->
<g id="edge119" class="edge">
<title>Node48&#45;&gt;Node30</title>
<path fill="none" stroke="midnightblue" d="M2622.56,-295.1C2563.6,-287 2442.65,-270.09 2340.5,-254 2199.94,-231.86 2032.09,-202.2 1968.08,-190.77"/>
<polygon fill="midnightblue" stroke="midnightblue" points="2622.11,-298.57 2632.5,-296.46 2623.07,-291.64 2622.11,-298.57"/>
</g>
<!-- Node48&#45;&gt;Node31 -->
<g id="edge117" class="edge">
<title>Node48&#45;&gt;Node31</title>
<path fill="none" stroke="midnightblue" d="M2622.49,-288.62C2593.15,-279.33 2550.63,-265.86 2513.5,-254 2377.99,-210.73 2216.28,-158.59 2150.99,-137.52"/>
<polygon fill="midnightblue" stroke="midnightblue" points="2621.71,-292.04 2632.3,-291.72 2623.82,-285.37 2621.71,-292.04"/>
</g>
<!-- Node48&#45;&gt;Node34 -->
<g id="edge120" class="edge">
<title>Node48&#45;&gt;Node34</title>
<path fill="none" stroke="midnightblue" d="M2622.3,-298.71C2410.06,-291.12 1329.46,-252.47 1125.67,-245.19"/>
<polygon fill="midnightblue" stroke="midnightblue" points="2622.18,-302.2 2632.3,-299.06 2622.43,-295.21 2622.18,-302.2"/>
</g>
<!-- Node48&#45;&gt;Node40 -->
<g id="edge122" class="edge">
<title>Node48&#45;&gt;Node40</title>
<path fill="none" stroke="midnightblue" d="M2694.66,-293.39C2725.96,-286.64 2771.71,-274.22 2807.5,-254 2865.52,-221.21 2920.18,-161.2 2940.33,-137.75"/>
<polygon fill="midnightblue" stroke="midnightblue" points="2693.71,-290.02 2684.63,-295.47 2695.13,-296.87 2693.71,-290.02"/>
</g>
<!-- Node48&#45;&gt;Node41 -->
<g id="edge123" class="edge">
<title>Node48&#45;&gt;Node41</title>
<path fill="none" stroke="midnightblue" d="M2694.46,-294.07C2721.62,-288 2758.37,-276.2 2783.5,-254 2820.95,-220.92 2839.88,-161.07 2846.11,-137.71"/>
<polygon fill="midnightblue" stroke="midnightblue" points="2693.65,-290.67 2684.57,-296.13 2695.07,-297.52 2693.65,-290.67"/>
</g>
<!-- Node48&#45;&gt;Node42 -->
<g id="edge135" class="edge">
<title>Node48&#45;&gt;Node42</title>
<path fill="none" stroke="midnightblue" d="M2621.82,-298.67C2461.79,-292.59 1808.97,-264.64 1277.5,-196 1137.75,-177.95 971.89,-145.77 909.2,-133.22"/>
<polygon fill="midnightblue" stroke="midnightblue" points="2621.94,-302.18 2632.06,-299.06 2622.2,-295.19 2621.94,-302.18"/>
</g>
<!-- Node48&#45;&gt;Node46 -->
<g id="edge137" class="edge">
<title>Node48&#45;&gt;Node46</title>
<path fill="none" stroke="midnightblue" d="M2694.91,-299.57C2765.19,-297.9 2923.86,-290.08 3051.5,-254 3110.44,-237.34 3137.48,-243.21 3176.5,-196 3190.45,-179.12 3193.19,-152.36 3193.58,-137.96"/>
<polygon fill="midnightblue" stroke="midnightblue" points="2694.73,-296.07 2684.8,-299.78 2694.88,-303.07 2694.73,-296.07"/>
</g>
<!-- Node49 -->
<g id="node44" class="node">
<title>Node49</title>
<g id="a_node44"><a xlink:href="dviout_8h.html" target="_top" xlink:title=" ">
<polygon fill="white" stroke="black" points="3037,-174.5 3037,-195.5 3096,-195.5 3096,-174.5 3037,-174.5"/>
<text text-anchor="middle" x="3066.5" y="-181.9" font-family="DejaVuSans" font-size="12.00">dviout.h</text>
</a>
</g>
</g>
<!-- Node48&#45;&gt;Node49 -->
<g id="edge108" class="edge">
<title>Node48&#45;&gt;Node49</title>
<path fill="none" stroke="midnightblue" d="M2694.87,-299.52C2776.92,-297.8 2973.5,-289.93 3027.5,-254 3048.35,-240.13 3059.37,-211.07 3063.93,-195.82"/>
<polygon fill="midnightblue" stroke="midnightblue" points="2694.69,-296.02 2684.76,-299.71 2694.83,-303.02 2694.69,-296.02"/>
</g>
<!-- Node50 -->
<g id="node45" class="node">
<title>Node50</title>
<g id="a_node45"><a xlink:href="mmode_8h.html" target="_top" xlink:title=" ">
<polygon fill="white" stroke="black" points="2572.5,-174.5 2572.5,-195.5 2638.5,-195.5 2638.5,-174.5 2572.5,-174.5"/>
<text text-anchor="middle" x="2605.5" y="-181.9" font-family="DejaVuSans" font-size="12.00">mmode.h</text>
</a>
</g>
</g>
<!-- Node48&#45;&gt;Node50 -->
<g id="edge124" class="edge">
<title>Node48&#45;&gt;Node50</title>
<path fill="none" stroke="midnightblue" d="M2694.52,-289.26C2726.98,-277.66 2767,-257.39 2748.5,-232 2723.54,-197.75 2672.65,-188.45 2638.8,-186.22"/>
<polygon fill="midnightblue" stroke="midnightblue" points="2693.1,-286.04 2684.75,-292.57 2695.35,-292.67 2693.1,-286.04"/>
</g>
<!-- Node49&#45;&gt;Node8 -->
<g id="edge109" class="edge">
<title>Node49&#45;&gt;Node8</title>
<path fill="none" stroke="midnightblue" d="M3077.04,-165.16C3083.99,-149.93 3089.78,-128.96 3077.5,-116 3052.21,-89.3 2453.18,-82.65 2416.5,-80 2387.17,-77.88 2353.53,-74.75 2331.05,-72.56"/>
<polygon fill="midnightblue" stroke="midnightblue" points="3073.86,-163.7 3072.48,-174.2 3080.11,-166.85 3073.86,-163.7"/>
</g>
<!-- Node49&#45;&gt;Node10 -->
<g id="edge112" class="edge">
<title>Node49&#45;&gt;Node10</title>
<path fill="none" stroke="midnightblue" d="M3026.7,-177.52C2959.6,-166.6 2824.88,-144.67 2759.62,-134.04"/>
<polygon fill="midnightblue" stroke="midnightblue" points="3026.44,-181.02 3036.87,-179.18 3027.57,-174.12 3026.44,-181.02"/>
</g>
<!-- Node49&#45;&gt;Node14 -->
<g id="edge111" class="edge">
<title>Node49&#45;&gt;Node14</title>
<path fill="none" stroke="midnightblue" d="M3064.31,-163.75C3061.44,-147.96 3054.81,-126.92 3039.5,-116 2969.87,-66.31 2355.78,-86.68 2270.5,-80 2253.39,-78.66 2234.52,-76.67 2218.42,-74.82"/>
<polygon fill="midnightblue" stroke="midnightblue" points="3060.91,-164.71 3065.81,-174.11 3067.84,-163.71 3060.91,-164.71"/>
</g>
<!-- Node49&#45;&gt;Node16 -->
<g id="edge114" class="edge">
<title>Node49&#45;&gt;Node16</title>
<path fill="none" stroke="midnightblue" d="M3090.42,-168.44C3109.24,-154.31 3130.06,-133.11 3115.5,-116 3085.72,-81.01 2952.03,-72.55 2879.19,-70.56"/>
<polygon fill="midnightblue" stroke="midnightblue" points="3088.17,-165.75 3082.05,-174.4 3092.23,-171.46 3088.17,-165.75"/>
</g>
<!-- Node49&#45;&gt;Node17 -->
<g id="edge116" class="edge">
<title>Node49&#45;&gt;Node17</title>
<path fill="none" stroke="midnightblue" d="M3056.24,-165.65C3045.99,-149.35 3028.6,-126.53 3006.5,-116 2918.65,-74.16 2228.65,-85.49 2131.5,-80 2099.37,-78.18 2063.11,-75.56 2035.68,-73.45"/>
<polygon fill="midnightblue" stroke="midnightblue" points="3053.3,-167.56 3061.43,-174.35 3059.31,-163.97 3053.3,-167.56"/>
</g>
<!-- Node49&#45;&gt;Node23 -->
<g id="edge110" class="edge">
<title>Node49&#45;&gt;Node23</title>
<path fill="none" stroke="midnightblue" d="M3026.8,-184.02C2920.08,-183.5 2618.38,-178.27 2371.5,-138 2368.67,-137.54 2365.75,-136.96 2362.84,-136.31"/>
<polygon fill="midnightblue" stroke="midnightblue" points="3026.79,-187.52 3036.8,-184.06 3026.82,-180.52 3026.79,-187.52"/>
</g>
<!-- Node49&#45;&gt;Node40 -->
<g id="edge113" class="edge">
<title>Node49&#45;&gt;Node40</title>
<path fill="none" stroke="midnightblue" d="M3036.95,-169.97C3015.58,-159.83 2987.29,-146.41 2968.52,-137.5"/>
<polygon fill="midnightblue" stroke="midnightblue" points="3035.68,-173.25 3046.22,-174.37 3038.68,-166.92 3035.68,-173.25"/>
</g>
<!-- Node49&#45;&gt;Node46 -->
<g id="edge115" class="edge">
<title>Node49&#45;&gt;Node46</title>
<path fill="none" stroke="midnightblue" d="M3097.69,-170.25C3120.75,-160.08 3151.57,-146.49 3171.95,-137.5"/>
<polygon fill="midnightblue" stroke="midnightblue" points="3096.07,-167.14 3088.33,-174.37 3098.89,-173.54 3096.07,-167.14"/>
</g>
<!-- Node50&#45;&gt;Node4 -->
<g id="edge126" class="edge">
<title>Node50&#45;&gt;Node4</title>
<path fill="none" stroke="midnightblue" d="M2562.1,-183.2C2279.71,-177.94 711.77,-148.37 611.5,-138 608.75,-137.72 605.93,-137.37 603.09,-136.97"/>
<polygon fill="midnightblue" stroke="midnightblue" points="2562.29,-186.7 2572.35,-183.39 2562.42,-179.7 2562.29,-186.7"/>
</g>
<!-- Node50&#45;&gt;Node5 -->
<g id="edge127" class="edge">
<title>Node50&#45;&gt;Node5</title>
<path fill="none" stroke="midnightblue" d="M2562.18,-181.11C2464.07,-174.45 2217.44,-157.16 2011.5,-138 1996.14,-136.57 1979.37,-134.81 1964.39,-133.16"/>
<polygon fill="midnightblue" stroke="midnightblue" points="2562.09,-184.61 2572.3,-181.79 2562.56,-177.62 2562.09,-184.61"/>
</g>
<!-- Node50&#45;&gt;Node8 -->
<g id="edge125" class="edge">
<title>Node50&#45;&gt;Node8</title>
<path fill="none" stroke="midnightblue" d="M2622.28,-166.25C2634.22,-151.44 2646.11,-130.5 2633.5,-116 2623.54,-104.54 2406.67,-80.67 2331.15,-72.68"/>
<polygon fill="midnightblue" stroke="midnightblue" points="2619.33,-164.31 2615.43,-174.16 2624.62,-168.9 2619.33,-164.31"/>
</g>
<!-- Node50&#45;&gt;Node10 -->
<g id="edge128" class="edge">
<title>Node50&#45;&gt;Node10</title>
<path fill="none" stroke="midnightblue" d="M2634.8,-169.97C2655.99,-159.83 2684.04,-146.41 2702.65,-137.5"/>
<polygon fill="midnightblue" stroke="midnightblue" points="2633.12,-166.9 2625.61,-174.37 2636.14,-173.21 2633.12,-166.9"/>
</g>
<!-- Node50&#45;&gt;Node16 -->
<g id="edge131" class="edge">
<title>Node50&#45;&gt;Node16</title>
<path fill="none" stroke="midnightblue" d="M2648.75,-178.39C2683.19,-172.43 2731.57,-160.61 2768.5,-138 2793.48,-122.71 2814.78,-94.79 2825.01,-79.93"/>
<polygon fill="midnightblue" stroke="midnightblue" points="2647.84,-174.99 2638.54,-180.06 2648.97,-181.9 2647.84,-174.99"/>
</g>
<!-- Node50&#45;&gt;Node17 -->
<g id="edge134" class="edge">
<title>Node50&#45;&gt;Node17</title>
<path fill="none" stroke="midnightblue" d="M2608.56,-164.35C2609.74,-148.91 2608.42,-128.05 2595.5,-116 2592.93,-113.61 2173.29,-83.07 2035.66,-73.11"/>
<polygon fill="midnightblue" stroke="midnightblue" points="2605.06,-164.1 2607.38,-174.44 2612.02,-164.91 2605.06,-164.1"/>
</g>
<!-- Node50&#45;&gt;Node20 -->
<g id="edge133" class="edge">
<title>Node50&#45;&gt;Node20</title>
<path fill="none" stroke="midnightblue" d="M2574.99,-170.11C2552.69,-159.96 2523.02,-146.45 2503.37,-137.5"/>
<polygon fill="midnightblue" stroke="midnightblue" points="2573.8,-173.41 2584.36,-174.37 2576.7,-167.04 2573.8,-173.41"/>
</g>
<!-- Node50&#45;&gt;Node40 -->
<g id="edge129" class="edge">
<title>Node50&#45;&gt;Node40</title>
<path fill="none" stroke="midnightblue" d="M2648.77,-177.16C2704.64,-168.3 2804.87,-152.29 2890.5,-138 2893.42,-137.51 2896.43,-137.01 2899.46,-136.49"/>
<polygon fill="midnightblue" stroke="midnightblue" points="2648.19,-173.71 2638.87,-178.73 2649.29,-180.63 2648.19,-173.71"/>
</g>
<!-- Node50&#45;&gt;Node41 -->
<g id="edge130" class="edge">
<title>Node50&#45;&gt;Node41</title>
<path fill="none" stroke="midnightblue" d="M2648.28,-174.14C2696.16,-163.11 2772.68,-145.47 2815.94,-135.5"/>
<polygon fill="midnightblue" stroke="midnightblue" points="2647.48,-170.73 2638.52,-176.39 2649.06,-177.55 2647.48,-170.73"/>
</g>
<!-- Node50&#45;&gt;Node43 -->
<g id="edge132" class="edge">
<title>Node50&#45;&gt;Node43</title>
<path fill="none" stroke="midnightblue" d="M2562.04,-182.37C2417.99,-176.91 1943.01,-158.45 1550.5,-138 1508.51,-135.81 1460.55,-132.85 1427.19,-130.72"/>
<polygon fill="midnightblue" stroke="midnightblue" points="2562.11,-185.87 2572.23,-182.76 2562.37,-178.88 2562.11,-185.87"/>
</g>
<!-- Node51&#45;&gt;Node5 -->
<g id="edge140" class="edge">
<title>Node51&#45;&gt;Node5</title>
<path fill="none" stroke="midnightblue" d="M2015.01,-171.48C1992.52,-161.24 1961.17,-146.97 1940.61,-137.61"/>
<polygon fill="midnightblue" stroke="midnightblue" points="2013.8,-174.78 2024.35,-175.74 2016.7,-168.41 2013.8,-174.78"/>
</g>
<!-- Node51&#45;&gt;Node9 -->
<g id="edge151" class="edge">
<title>Node51&#45;&gt;Node9</title>
<path fill="none" stroke="midnightblue" d="M2014.26,-179.41C2002.59,-177.59 1988.91,-175.57 1976.5,-174 1818.28,-154.05 1776,-168.63 1619.5,-138 1616.84,-137.48 1614.1,-136.84 1611.37,-136.15"/>
<polygon fill="midnightblue" stroke="midnightblue" points="2013.9,-182.89 2024.32,-181 2014.99,-175.98 2013.9,-182.89"/>
</g>
<!-- Node51&#45;&gt;Node10 -->
<g id="edge152" class="edge">
<title>Node51&#45;&gt;Node10</title>
<path fill="none" stroke="midnightblue" d="M2070.79,-181.67C2178.58,-172.79 2563.59,-141.09 2685.32,-131.06"/>
<polygon fill="midnightblue" stroke="midnightblue" points="2070.37,-178.19 2060.69,-182.5 2070.94,-185.17 2070.37,-178.19"/>
</g>
<!-- Node51&#45;&gt;Node14 -->
<g id="edge146" class="edge">
<title>Node51&#45;&gt;Node14</title>
<path fill="none" stroke="midnightblue" d="M2070.64,-175.06C2071.94,-174.69 2073.23,-174.34 2074.5,-174 2146.63,-154.85 2191.73,-196.15 2238.5,-138 2255.64,-116.69 2221.78,-92.74 2198.63,-79.71"/>
<polygon fill="midnightblue" stroke="midnightblue" points="2069.28,-171.81 2060.7,-178.01 2071.28,-178.52 2069.28,-171.81"/>
</g>
<!-- Node51&#45;&gt;Node17 -->
<g id="edge155" class="edge">
<title>Node51&#45;&gt;Node17</title>
<path fill="none" stroke="midnightblue" d="M2070.65,-175.1C2071.95,-174.72 2073.24,-174.35 2074.5,-174 2141.34,-155.28 2263.44,-169.73 2219.5,-116 2196.72,-88.14 2094.81,-76.75 2035.57,-72.42"/>
<polygon fill="midnightblue" stroke="midnightblue" points="2069.28,-171.86 2060.72,-178.1 2071.31,-178.56 2069.28,-171.86"/>
</g>
<!-- Node51&#45;&gt;Node21 -->
<g id="edge141" class="edge">
<title>Node51&#45;&gt;Node21</title>
<path fill="none" stroke="midnightblue" d="M2014.3,-179.13C2002.63,-177.27 1988.94,-175.29 1976.5,-174 1692.24,-144.56 1616.78,-182.59 1334.5,-138 1331.8,-137.57 1329.02,-137.04 1326.25,-136.43"/>
<polygon fill="midnightblue" stroke="midnightblue" points="2013.92,-182.61 2024.35,-180.78 2015.05,-175.7 2013.92,-182.61"/>
</g>
<!-- Node51&#45;&gt;Node22 -->
<g id="edge142" class="edge">
<title>Node51&#45;&gt;Node22</title>
<path fill="none" stroke="midnightblue" d="M2014.3,-179.06C2002.64,-177.2 1988.95,-175.22 1976.5,-174 1628.48,-139.76 1536.01,-191.94 1190.5,-138 1187.61,-137.55 1184.62,-136.96 1181.65,-136.29"/>
<polygon fill="midnightblue" stroke="midnightblue" points="2013.92,-182.55 2024.36,-180.73 2015.06,-175.64 2013.92,-182.55"/>
</g>
<!-- Node51&#45;&gt;Node23 -->
<g id="edge143" class="edge">
<title>Node51&#45;&gt;Node23</title>
<path fill="none" stroke="midnightblue" d="M2070.62,-174.98C2071.93,-174.63 2073.23,-174.3 2074.5,-174 2169.17,-151.43 2195.05,-157.03 2290.5,-138 2295.01,-137.1 2299.77,-136.07 2304.41,-135.03"/>
<polygon fill="midnightblue" stroke="midnightblue" points="2069.29,-171.72 2060.66,-177.85 2071.23,-178.44 2069.29,-171.72"/>
</g>
<!-- Node51&#45;&gt;Node28 -->
<g id="edge153" class="edge">
<title>Node51&#45;&gt;Node28</title>
<path fill="none" stroke="midnightblue" d="M2014.31,-178.98C2002.65,-177.1 1988.96,-175.14 1976.5,-174 1476.99,-128.35 1343.43,-219.43 848.5,-138 845.78,-137.55 842.98,-136.94 840.2,-136.24"/>
<polygon fill="midnightblue" stroke="midnightblue" points="2013.92,-182.46 2024.36,-180.66 2015.08,-175.56 2013.92,-182.46"/>
</g>
<!-- Node51&#45;&gt;Node29 -->
<g id="edge147" class="edge">
<title>Node51&#45;&gt;Node29</title>
<path fill="none" stroke="midnightblue" d="M2070.95,-181.37C2128.26,-175.78 2261.51,-161.28 2371.5,-138 2374.59,-137.35 2377.81,-136.57 2380.99,-135.73"/>
<polygon fill="midnightblue" stroke="midnightblue" points="2070.46,-177.9 2060.84,-182.34 2071.13,-184.87 2070.46,-177.9"/>
</g>
<!-- Node51&#45;&gt;Node31 -->
<g id="edge145" class="edge">
<title>Node51&#45;&gt;Node31</title>
<path fill="none" stroke="midnightblue" d="M2064.78,-168.21C2078.65,-158.37 2096.05,-146.04 2107.9,-137.64"/>
<polygon fill="midnightblue" stroke="midnightblue" points="2062.39,-165.61 2056.26,-174.25 2066.44,-171.32 2062.39,-165.61"/>
</g>
<!-- Node51&#45;&gt;Node33 -->
<g id="edge154" class="edge">
<title>Node51&#45;&gt;Node33</title>
<path fill="none" stroke="midnightblue" d="M2070.14,-173.61C2099.79,-162.47 2146.14,-145.05 2172.14,-135.28"/>
<polygon fill="midnightblue" stroke="midnightblue" points="2068.9,-170.34 2060.77,-177.13 2071.36,-176.89 2068.9,-170.34"/>
</g>
<!-- Node51&#45;&gt;Node39 -->
<g id="edge149" class="edge">
<title>Node51&#45;&gt;Node39</title>
<path fill="none" stroke="midnightblue" d="M2014.22,-179.7C2002.55,-177.92 1988.87,-175.86 1976.5,-174 1878.3,-159.28 1762.57,-142.17 1704.2,-133.56"/>
<polygon fill="midnightblue" stroke="midnightblue" points="2013.88,-183.18 2024.29,-181.23 2014.93,-176.26 2013.88,-183.18"/>
</g>
<!-- Node51&#45;&gt;Node45 -->
<g id="edge144" class="edge">
<title>Node51&#45;&gt;Node45</title>
<path fill="none" stroke="midnightblue" d="M2043.56,-164.16C2044.05,-155.16 2044.59,-144.92 2044.98,-137.64"/>
<polygon fill="midnightblue" stroke="midnightblue" points="2040.06,-164.07 2043.02,-174.25 2047.05,-164.45 2040.06,-164.07"/>
</g>
<!-- Node52 -->
<g id="node47" class="node">
<title>Node52</title>
<g id="a_node47"><a xlink:href="io_8c.html" target="_top" xlink:title=" ">
<polygon fill="white" stroke="black" points="3320,-116.5 3320,-137.5 3355,-137.5 3355,-116.5 3320,-116.5"/>
<text text-anchor="middle" x="3337.5" y="-123.9" font-family="DejaVuSans" font-size="12.00">io.c</text>
</a>
</g>
</g>
<!-- Node51&#45;&gt;Node52 -->
<g id="edge148" class="edge">
<title>Node51&#45;&gt;Node52</title>
<path fill="none" stroke="midnightblue" d="M2070.8,-183.53C2246.65,-180.57 3186.28,-163.6 3311.5,-138 3314.25,-137.44 3317.09,-136.62 3319.83,-135.68"/>
<polygon fill="midnightblue" stroke="midnightblue" points="2070.72,-180.04 2060.78,-183.7 2070.84,-187.03 2070.72,-180.04"/>
</g>
<!-- Node53 -->
<g id="node48" class="node">
<title>Node53</title>
<g id="a_node48"><a xlink:href="io__unix_8c.html" target="_top" xlink:title=" ">
<polygon fill="white" stroke="black" points="3237,-116.5 3237,-137.5 3302,-137.5 3302,-116.5 3237,-116.5"/>
<text text-anchor="middle" x="3269.5" y="-123.9" font-family="DejaVuSans" font-size="12.00">io_unix.c</text>
</a>
</g>
</g>
<!-- Node51&#45;&gt;Node53 -->
<g id="edge150" class="edge">
<title>Node51&#45;&gt;Node53</title>
<path fill="none" stroke="midnightblue" d="M2071.01,-183.24C2240.34,-178.66 3110.69,-154.48 3228.5,-138 3231.26,-137.61 3234.1,-137.12 3236.94,-136.57"/>
<polygon fill="midnightblue" stroke="midnightblue" points="2070.78,-179.74 2060.88,-183.51 2070.97,-186.74 2070.78,-179.74"/>
</g>
<!-- Node54&#45;&gt;Node2 -->
<g id="edge159" class="edge">
<title>Node54&#45;&gt;Node2</title>
<path fill="none" stroke="midnightblue" d="M1276.7,-182.6C1225.68,-180.67 1130.59,-177.06 1049.5,-174 624.17,-157.94 516.42,-176.15 92.5,-138 76.61,-136.57 58.8,-134.01 45.13,-131.84"/>
<polygon fill="midnightblue" stroke="midnightblue" points="1276.77,-186.11 1286.89,-182.99 1277.03,-179.11 1276.77,-186.11"/>
</g>
<!-- Node54&#45;&gt;Node3 -->
<g id="edge160" class="edge">
<title>Node54&#45;&gt;Node3</title>
<path fill="none" stroke="midnightblue" d="M1276.91,-182.59C1086.46,-175.22 216.14,-141.42 188.5,-138 185.46,-137.62 182.32,-137.16 179.18,-136.63"/>
<polygon fill="midnightblue" stroke="midnightblue" points="1276.85,-186.09 1286.98,-182.98 1277.12,-179.09 1276.85,-186.09"/>
</g>
<!-- Node54&#45;&gt;Node4 -->
<g id="edge161" class="edge">
<title>Node54&#45;&gt;Node4</title>
<path fill="none" stroke="midnightblue" d="M1276.53,-182.15C1151.08,-175.8 742.22,-154.33 611.5,-138 608.76,-137.66 605.94,-137.26 603.11,-136.84"/>
<polygon fill="midnightblue" stroke="midnightblue" points="1276.6,-185.66 1286.76,-182.67 1276.95,-178.67 1276.6,-185.66"/>
</g>
<!-- Node54&#45;&gt;Node5 -->
<g id="edge162" class="edge">
<title>Node54&#45;&gt;Node5</title>
<path fill="none" stroke="midnightblue" d="M1350.51,-180.58C1456.35,-170.8 1760.02,-142.74 1874.82,-132.13"/>
<polygon fill="midnightblue" stroke="midnightblue" points="1349.96,-177.12 1340.32,-181.52 1350.6,-184.09 1349.96,-177.12"/>
</g>
<!-- Node54&#45;&gt;Node8 -->
<g id="edge158" class="edge">
<title>Node54&#45;&gt;Node8</title>
<path fill="none" stroke="midnightblue" d="M1276.87,-180.63C1204.36,-173.59 1048.17,-156.45 1032.5,-138 1026.17,-130.55 1025.69,-123.02 1032.5,-116 1078.71,-68.37 2160.34,-85.17 2226.5,-80 2244.42,-78.6 2264.51,-76.04 2279.95,-73.86"/>
<polygon fill="midnightblue" stroke="midnightblue" points="1276.64,-184.13 1286.93,-181.6 1277.31,-177.16 1276.64,-184.13"/>
</g>
<!-- Node54&#45;&gt;Node9 -->
<g id="edge173" class="edge">
<title>Node54&#45;&gt;Node9</title>
<path fill="none" stroke="midnightblue" d="M1349.89,-176.51C1405.67,-165.02 1510.94,-143.35 1559.61,-133.33"/>
<polygon fill="midnightblue" stroke="midnightblue" points="1349.16,-173.08 1340.08,-178.53 1350.58,-179.94 1349.16,-173.08"/>
</g>
<!-- Node54&#45;&gt;Node10 -->
<g id="edge175" class="edge">
<title>Node54&#45;&gt;Node10</title>
<path fill="none" stroke="midnightblue" d="M1350.27,-182.07C1391.47,-179.95 1460.26,-176.5 1519.5,-174 1965.61,-155.17 2077.4,-157.21 2523.5,-138 2580.01,-135.57 2645.51,-132.16 2685.46,-130.02"/>
<polygon fill="midnightblue" stroke="midnightblue" points="1349.97,-178.59 1340.16,-182.6 1350.33,-185.58 1349.97,-178.59"/>
</g>
<!-- Node54&#45;&gt;Node14 -->
<g id="edge169" class="edge">
<title>Node54&#45;&gt;Node14</title>
<path fill="none" stroke="midnightblue" d="M1276.76,-181.29C1197.77,-175.08 1017.45,-158.77 999.5,-138 993.11,-130.6 992.71,-123.03 999.5,-116 1039.86,-74.22 1986.5,-83.15 2044.5,-80 2077,-78.24 2113.85,-75.45 2140.83,-73.27"/>
<polygon fill="midnightblue" stroke="midnightblue" points="1276.52,-184.78 1286.76,-182.06 1277.06,-177.8 1276.52,-184.78"/>
</g>
<!-- Node54&#45;&gt;Node16 -->
<g id="edge180" class="edge">
<title>Node54&#45;&gt;Node16</title>
<path fill="none" stroke="midnightblue" d="M1350.59,-181.98C1421.52,-177.62 1581.02,-165.43 1712.5,-138 1745.26,-131.17 1751.51,-121.57 1784.5,-116 2201.57,-45.61 2313.59,-109.93 2735.5,-80 2751.21,-78.89 2768.33,-77.24 2783.7,-75.61"/>
<polygon fill="midnightblue" stroke="midnightblue" points="1350.16,-178.5 1340.38,-182.59 1350.57,-185.49 1350.16,-178.5"/>
</g>
<!-- Node54&#45;&gt;Node17 -->
<g id="edge183" class="edge">
<title>Node54&#45;&gt;Node17</title>
<path fill="none" stroke="midnightblue" d="M1276.87,-181.91C1190.95,-176.63 982.11,-161.48 961.5,-138 955.05,-130.65 954.74,-123.07 961.5,-116 996.14,-79.78 1757.82,-71.74 1949.19,-70.28"/>
<polygon fill="midnightblue" stroke="midnightblue" points="1276.77,-185.41 1286.96,-182.52 1277.19,-178.42 1276.77,-185.41"/>
</g>
<!-- Node54&#45;&gt;Node19 -->
<g id="edge177" class="edge">
<title>Node54&#45;&gt;Node19</title>
<path fill="none" stroke="midnightblue" d="M1276.84,-183.25C1190.05,-180.95 965.51,-171.92 781.5,-138 778.64,-137.47 775.68,-136.81 772.74,-136.08"/>
<polygon fill="midnightblue" stroke="midnightblue" points="1276.88,-186.75 1286.97,-183.5 1277.06,-179.75 1276.88,-186.75"/>
</g>
<!-- Node54&#45;&gt;Node21 -->
<g id="edge163" class="edge">
<title>Node54&#45;&gt;Node21</title>
<path fill="none" stroke="midnightblue" d="M1307.57,-164.45C1304.81,-155.38 1301.66,-145 1299.43,-137.64"/>
<polygon fill="midnightblue" stroke="midnightblue" points="1304.28,-165.69 1310.54,-174.25 1310.98,-163.66 1304.28,-165.69"/>
</g>
<!-- Node54&#45;&gt;Node22 -->
<g id="edge164" class="edge">
<title>Node54&#45;&gt;Node22</title>
<path fill="none" stroke="midnightblue" d="M1277.27,-171.32C1248.02,-161.08 1207.5,-146.9 1180.9,-137.59"/>
<polygon fill="midnightblue" stroke="midnightblue" points="1276.12,-174.63 1286.72,-174.63 1278.44,-168.02 1276.12,-174.63"/>
</g>
<!-- Node54&#45;&gt;Node23 -->
<g id="edge165" class="edge">
<title>Node54&#45;&gt;Node23</title>
<path fill="none" stroke="midnightblue" d="M1350.68,-182.19C1510.12,-174.44 2131.95,-144.06 2219.5,-138 2248.44,-136 2281.45,-133.03 2304.47,-130.84"/>
<polygon fill="midnightblue" stroke="midnightblue" points="1350.25,-178.71 1340.43,-182.69 1350.59,-185.7 1350.25,-178.71"/>
</g>
<!-- Node54&#45;&gt;Node24 -->
<g id="edge166" class="edge">
<title>Node54&#45;&gt;Node24</title>
<path fill="none" stroke="midnightblue" d="M1289.29,-168.77C1273.52,-158.85 1253.42,-146.2 1239.82,-137.64"/>
<polygon fill="midnightblue" stroke="midnightblue" points="1287.67,-171.88 1298,-174.25 1291.4,-165.96 1287.67,-171.88"/>
</g>
<!-- Node54&#45;&gt;Node25 -->
<g id="edge167" class="edge">
<title>Node54&#45;&gt;Node25</title>
<path fill="none" stroke="midnightblue" d="M1276.82,-182.75C1182.59,-179.19 924.47,-167.32 711.5,-138 708.43,-137.58 705.27,-137.08 702.09,-136.55"/>
<polygon fill="midnightblue" stroke="midnightblue" points="1276.85,-186.25 1286.97,-183.12 1277.11,-179.25 1276.85,-186.25"/>
</g>
<!-- Node54&#45;&gt;Node27 -->
<g id="edge174" class="edge">
<title>Node54&#45;&gt;Node27</title>
<path fill="none" stroke="midnightblue" d="M1276.65,-182.53C1098.25,-175.42 330.82,-144.54 280.5,-138 277.58,-137.62 274.58,-137.15 271.56,-136.62"/>
<polygon fill="midnightblue" stroke="midnightblue" points="1276.7,-186.04 1286.83,-182.94 1276.98,-179.04 1276.7,-186.04"/>
</g>
<!-- Node54&#45;&gt;Node29 -->
<g id="edge170" class="edge">
<title>Node54&#45;&gt;Node29</title>
<path fill="none" stroke="midnightblue" d="M1350.27,-182.15C1391.48,-180.08 1460.27,-176.69 1519.5,-174 1898.11,-156.81 1997.35,-198.48 2371.5,-138 2374.49,-137.52 2377.6,-136.86 2380.66,-136.12"/>
<polygon fill="midnightblue" stroke="midnightblue" points="1349.98,-178.66 1340.16,-182.65 1350.33,-185.65 1349.98,-178.66"/>
</g>
<!-- Node54&#45;&gt;Node31 -->
<g id="edge168" class="edge">
<title>Node54&#45;&gt;Node31</title>
<path fill="none" stroke="midnightblue" d="M1350.39,-182.16C1493.43,-174.99 2007.02,-148.72 2079.5,-138 2082.47,-137.56 2085.53,-137.02 2088.59,-136.41"/>
<polygon fill="midnightblue" stroke="midnightblue" points="1350.18,-178.67 1340.36,-182.66 1350.53,-185.66 1350.18,-178.67"/>
</g>
<!-- Node54&#45;&gt;Node35 -->
<g id="edge171" class="edge">
<title>Node54&#45;&gt;Node35</title>
<path fill="none" stroke="midnightblue" d="M1276.74,-175.47C1237.17,-166.27 1172.36,-151.17 1116.5,-138 1113.44,-137.28 1110.25,-136.52 1107.06,-135.77"/>
<polygon fill="midnightblue" stroke="midnightblue" points="1276.19,-178.93 1286.73,-177.79 1277.78,-172.11 1276.19,-178.93"/>
</g>
<!-- Node54&#45;&gt;Node38 -->
<g id="edge172" class="edge">
<title>Node54&#45;&gt;Node38</title>
<path fill="none" stroke="midnightblue" d="M1276.57,-181.94C1161.81,-175.54 801.19,-155.36 502.5,-138 460.64,-135.57 412.92,-132.72 379.07,-130.69"/>
<polygon fill="midnightblue" stroke="midnightblue" points="1276.72,-185.46 1286.9,-182.52 1277.11,-178.47 1276.72,-185.46"/>
</g>
<!-- Node54&#45;&gt;Node40 -->
<g id="edge176" class="edge">
<title>Node54&#45;&gt;Node40</title>
<path fill="none" stroke="midnightblue" d="M1350.27,-181.97C1391.46,-179.75 1460.25,-176.22 1519.5,-174 2128.62,-151.22 2283.91,-197.94 2890.5,-138 2893.35,-137.72 2896.27,-137.38 2899.21,-137"/>
<polygon fill="midnightblue" stroke="midnightblue" points="1349.95,-178.48 1340.16,-182.52 1350.33,-185.47 1349.95,-178.48"/>
</g>
<!-- Node54&#45;&gt;Node41 -->
<g id="edge178" class="edge">
<title>Node54&#45;&gt;Node41</title>
<path fill="none" stroke="midnightblue" d="M1350.27,-182C1391.47,-179.8 1460.25,-176.29 1519.5,-174 2074.43,-152.54 2214.79,-180.49 2768.5,-138 2784.13,-136.8 2801.4,-134.74 2815.88,-132.79"/>
<polygon fill="midnightblue" stroke="midnightblue" points="1349.96,-178.51 1340.16,-182.54 1350.33,-185.5 1349.96,-178.51"/>
</g>
<!-- Node54&#45;&gt;Node42 -->
<g id="edge179" class="edge">
<title>Node54&#45;&gt;Node42</title>
<path fill="none" stroke="midnightblue" d="M1276.85,-181.25C1207.47,-175.69 1052.35,-161.61 923.5,-138 918.85,-137.15 913.94,-136.07 909.22,-134.94"/>
<polygon fill="midnightblue" stroke="midnightblue" points="1276.6,-184.74 1286.84,-182.04 1277.15,-177.76 1276.6,-184.74"/>
</g>
<!-- Node54&#45;&gt;Node43 -->
<g id="edge181" class="edge">
<title>Node54&#45;&gt;Node43</title>
<path fill="none" stroke="midnightblue" d="M1334.16,-167.93C1346.75,-158.14 1362.41,-145.96 1373.1,-137.64"/>
<polygon fill="midnightblue" stroke="midnightblue" points="1331.79,-165.34 1326.04,-174.25 1336.08,-170.87 1331.79,-165.34"/>
</g>
<!-- Node54&#45;&gt;Node46 -->
<g id="edge182" class="edge">
<title>Node54&#45;&gt;Node46</title>
<path fill="none" stroke="midnightblue" d="M1350.26,-181.95C1391.46,-179.71 1460.25,-176.16 1519.5,-174 2180.15,-149.97 2345.92,-163.65 3006.5,-138 3064.16,-135.76 3131.76,-131.82 3167.8,-129.61"/>
<polygon fill="midnightblue" stroke="midnightblue" points="1349.95,-178.46 1340.16,-182.5 1350.33,-185.45 1349.95,-178.46"/>
</g>
<!-- Node55&#45;&gt;Node17 -->
<g id="edge201" class="edge">
<title>Node55&#45;&gt;Node17</title>
<path fill="none" stroke="midnightblue" d="M2252.13,-288.66C2337.13,-256.41 2566.96,-163.39 2523.5,-116 2519.38,-111.5 2161.32,-83.17 2035.57,-73.35"/>
<polygon fill="midnightblue" stroke="midnightblue" points="2250.86,-285.4 2242.74,-292.2 2253.33,-291.95 2250.86,-285.4"/>
</g>
<!-- Node55&#45;&gt;Node20 -->
<g id="edge198" class="edge">
<title>Node55&#45;&gt;Node20</title>
<path fill="none" stroke="midnightblue" d="M2246.99,-285.3C2262.11,-276.46 2281.56,-264.85 2298.5,-254 2363.39,-212.46 2438.58,-159.36 2468.85,-137.78"/>
<polygon fill="midnightblue" stroke="midnightblue" points="2245.08,-282.37 2238.2,-290.42 2248.61,-288.42 2245.08,-282.37"/>
</g>
<!-- Node55&#45;&gt;Node23 -->
<g id="edge185" class="edge">
<title>Node55&#45;&gt;Node23</title>
<path fill="none" stroke="midnightblue" d="M2233,-281.84C2248.59,-257.28 2277.38,-212.16 2302.5,-174 2310.76,-161.45 2320.46,-147.11 2326.79,-137.83"/>
<polygon fill="midnightblue" stroke="midnightblue" points="2229.93,-280.15 2227.53,-290.47 2235.84,-283.9 2229.93,-280.15"/>
</g>
<!-- Node55&#45;&gt;Node27 -->
<g id="edge193" class="edge">
<title>Node55&#45;&gt;Node27</title>
<path fill="none" stroke="midnightblue" d="M2190.28,-299.55C2016.11,-296.93 1162.98,-282.81 901.5,-254 866.61,-250.16 314.9,-144.95 280.5,-138 277.62,-137.42 274.63,-136.8 271.64,-136.17"/>
<polygon fill="midnightblue" stroke="midnightblue" points="2190.26,-303.05 2200.32,-299.7 2190.37,-296.05 2190.26,-303.05"/>
</g>
<!-- Node55&#45;&gt;Node29 -->
<g id="edge187" class="edge">
<title>Node55&#45;&gt;Node29</title>
<path fill="none" stroke="midnightblue" d="M2240.03,-283.46C2249.74,-274.74 2261.81,-263.84 2272.5,-254 2319.24,-210.95 2374.29,-158.69 2396.48,-137.56"/>
<polygon fill="midnightblue" stroke="midnightblue" points="2237.62,-280.92 2232.5,-290.19 2242.29,-286.13 2237.62,-280.92"/>
</g>
<!-- Node55&#45;&gt;Node30 -->
<g id="edge188" class="edge">
<title>Node55&#45;&gt;Node30</title>
<path fill="none" stroke="midnightblue" d="M2190.24,-291.88C2160.11,-283.66 2113.47,-269.93 2074.5,-254 2031.05,-236.24 1982.55,-209.6 1957.87,-195.52"/>
<polygon fill="midnightblue" stroke="midnightblue" points="2189.6,-295.33 2200.17,-294.55 2191.42,-288.57 2189.6,-295.33"/>
</g>
<!-- Node55&#45;&gt;Node31 -->
<g id="edge186" class="edge">
<title>Node55&#45;&gt;Node31</title>
<path fill="none" stroke="midnightblue" d="M2191.18,-286.81C2136.38,-262.68 2025.58,-212.38 2015.5,-196 2010.38,-187.67 2010.14,-182.18 2015.5,-174 2024.08,-160.92 2061.57,-146.7 2089.54,-137.58"/>
<polygon fill="midnightblue" stroke="midnightblue" points="2189.85,-290.05 2200.41,-290.86 2192.66,-283.64 2189.85,-290.05"/>
</g>
<!-- Node55&#45;&gt;Node33 -->
<g id="edge200" class="edge">
<title>Node55&#45;&gt;Node33</title>
<path fill="none" stroke="midnightblue" d="M2218.05,-280.21C2211.6,-243.24 2197.94,-164.94 2193.18,-137.63"/>
<polygon fill="midnightblue" stroke="midnightblue" points="2214.63,-281.01 2219.8,-290.26 2221.53,-279.81 2214.63,-281.01"/>
</g>
<!-- Node55&#45;&gt;Node34 -->
<g id="edge189" class="edge">
<title>Node55&#45;&gt;Node34</title>
<path fill="none" stroke="midnightblue" d="M2190.25,-298.45C2028.89,-290.45 1291.08,-253.85 1125.53,-245.64"/>
<polygon fill="midnightblue" stroke="midnightblue" points="2190.29,-301.96 2200.45,-298.96 2190.64,-294.96 2190.29,-301.96"/>
</g>
<!-- Node55&#45;&gt;Node38 -->
<g id="edge190" class="edge">
<title>Node55&#45;&gt;Node38</title>
<path fill="none" stroke="midnightblue" d="M2189.79,-299.38C2026.63,-296.12 1280.49,-280.02 1050.5,-254 859.51,-232.39 814.89,-206.79 625.5,-174 538.56,-158.95 436.66,-143.3 379.43,-134.69"/>
<polygon fill="midnightblue" stroke="midnightblue" points="2190.03,-302.89 2200.1,-299.59 2190.17,-295.89 2190.03,-302.89"/>
</g>
<!-- Node55&#45;&gt;Node40 -->
<g id="edge194" class="edge">
<title>Node55&#45;&gt;Node40</title>
<path fill="none" stroke="midnightblue" d="M2252.72,-299.28C2344.85,-296.2 2622.27,-280.07 2832.5,-196 2872.17,-180.14 2914.4,-152.21 2935.26,-137.57"/>
<polygon fill="midnightblue" stroke="midnightblue" points="2252.55,-295.78 2242.66,-299.59 2252.77,-302.78 2252.55,-295.78"/>
</g>
<!-- Node55&#45;&gt;Node41 -->
<g id="edge195" class="edge">
<title>Node55&#45;&gt;Node41</title>
<path fill="none" stroke="midnightblue" d="M2252.56,-295.8C2352.37,-282.03 2663.84,-236.74 2756.5,-196 2789.95,-181.29 2822.85,-152.6 2838.7,-137.62"/>
<polygon fill="midnightblue" stroke="midnightblue" points="2251.94,-292.35 2242.51,-297.18 2252.89,-299.29 2251.94,-292.35"/>
</g>
<!-- Node55&#45;&gt;Node42 -->
<g id="edge196" class="edge">
<title>Node55&#45;&gt;Node42</title>
<path fill="none" stroke="midnightblue" d="M2189.77,-298.51C2032.73,-290.91 1337.95,-254.5 1130.5,-196 1109.07,-189.96 1106.49,-181.41 1085.5,-174 1023.94,-152.27 948.13,-138.23 909.22,-131.9"/>
<polygon fill="midnightblue" stroke="midnightblue" points="2189.98,-302.03 2200.13,-299.01 2190.31,-295.03 2189.98,-302.03"/>
</g>
<!-- Node55&#45;&gt;Node44 -->
<g id="edge197" class="edge">
<title>Node55&#45;&gt;Node44</title>
<path fill="none" stroke="midnightblue" d="M2190.24,-294.67C2076.03,-275.17 1682.55,-208.02 1578.76,-190.31"/>
<polygon fill="midnightblue" stroke="midnightblue" points="2189.96,-298.17 2200.4,-296.4 2191.14,-291.27 2189.96,-298.17"/>
</g>
<!-- Node55&#45;&gt;Node46 -->
<g id="edge199" class="edge">
<title>Node55&#45;&gt;Node46</title>
<path fill="none" stroke="midnightblue" d="M2253.25,-297.31C2329.77,-290.75 2530.43,-273.05 2697.5,-254 2746.6,-248.4 3095.38,-220.16 3138.5,-196 3162.87,-182.34 3180.62,-153.19 3188.68,-137.87"/>
<polygon fill="midnightblue" stroke="midnightblue" points="2252.54,-293.86 2242.88,-298.2 2253.14,-300.83 2252.54,-293.86"/>
</g>
<!-- Node55&#45;&gt;Node52 -->
<g id="edge191" class="edge">
<title>Node55&#45;&gt;Node52</title>
<path fill="none" stroke="midnightblue" d="M2252.79,-299.93C2354.43,-299.28 2684.33,-294.02 2953.5,-254 3064.18,-237.54 3093.15,-233.71 3198.5,-196 3244.53,-179.52 3295.37,-152.11 3320.91,-137.63"/>
<polygon fill="midnightblue" stroke="midnightblue" points="2252.58,-296.43 2242.6,-299.98 2252.62,-303.43 2252.58,-296.43"/>
</g>
<!-- Node55&#45;&gt;Node53 -->
<g id="edge192" class="edge">
<title>Node55&#45;&gt;Node53</title>
<path fill="none" stroke="midnightblue" d="M2253.18,-298.7C2397.39,-292.44 2992.24,-262.94 3164.5,-196 3201.75,-181.53 3239.7,-152.73 3258.09,-137.68"/>
<polygon fill="midnightblue" stroke="midnightblue" points="2252.68,-295.22 2242.84,-299.14 2252.98,-302.21 2252.68,-295.22"/>
</g>
</g>
</svg>
