<?xml version="1.0" encoding="UTF-8" standalone="no"?>
<!DOCTYPE svg PUBLIC "-//W3C//DTD SVG 1.1//EN"
 "http://www.w3.org/Graphics/SVG/1.1/DTD/svg11.dtd">
<!-- Generated by graphviz version 2.42.3 ()
 -->
<!-- Title: tex_constant.h Pages: 1 -->
<svg width="642pt" height="262pt"
 viewBox="0.00 0.00 642.00 262.00" xmlns="http://www.w3.org/2000/svg" xmlns:xlink="http://www.w3.org/1999/xlink">
<g id="graph0" class="graph" transform="scale(1 1) rotate(0) translate(4 258)">
<title>tex_constant.h</title>
<polygon fill="white" stroke="transparent" points="-4,4 -4,-258 638,-258 638,4 -4,4"/>
<!-- Node1 -->
<g id="node1" class="node">
<title>Node1</title>
<g id="a_node1"><a xlink:title=" ">
<polygon fill="#bfbfbf" stroke="black" points="288,-232.5 288,-253.5 382,-253.5 382,-232.5 288,-232.5"/>
<text text-anchor="middle" x="335" y="-239.9" font-family="DejaVuSans" font-size="12.00">tex_constant.h</text>
</a>
</g>
</g>
<!-- Node2 -->
<g id="node2" class="node">
<title>Node2</title>
<g id="a_node2"><a xlink:href="tex_8h.html" target="_top" xlink:title=" ">
<polygon fill="white" stroke="black" points="314,-174.5 314,-195.5 356,-195.5 356,-174.5 314,-174.5"/>
<text text-anchor="middle" x="335" y="-181.9" font-family="DejaVuSans" font-size="12.00">tex.h</text>
</a>
</g>
</g>
<!-- Node1&#45;&gt;Node2 -->
<g id="edge1" class="edge">
<title>Node1&#45;&gt;Node2</title>
<path fill="none" stroke="midnightblue" d="M335,-222.16C335,-213.16 335,-202.92 335,-195.64"/>
<polygon fill="midnightblue" stroke="midnightblue" points="331.5,-222.25 335,-232.25 338.5,-222.25 331.5,-222.25"/>
</g>
<!-- Node3 -->
<g id="node3" class="node">
<title>Node3</title>
<g id="a_node3"><a xlink:href="dviout_8c.html" target="_top" xlink:title=" ">
<polygon fill="white" stroke="black" points="0,-116.5 0,-137.5 58,-137.5 58,-116.5 0,-116.5"/>
<text text-anchor="middle" x="29" y="-123.9" font-family="DejaVuSans" font-size="12.00">dviout.c</text>
</a>
</g>
</g>
<!-- Node2&#45;&gt;Node3 -->
<g id="edge2" class="edge">
<title>Node2&#45;&gt;Node3</title>
<path fill="none" stroke="midnightblue" d="M303.79,-179.55C253.62,-172.19 152.07,-156.46 67,-138 64.2,-137.39 61.3,-136.72 58.4,-136.01"/>
<polygon fill="midnightblue" stroke="midnightblue" points="303.29,-183.01 313.69,-180.99 304.29,-176.08 303.29,-183.01"/>
</g>
<!-- Node4 -->
<g id="node4" class="node">
<title>Node4</title>
<g id="a_node4"><a xlink:href="fonts_8c.html" target="_top" xlink:title=" ">
<polygon fill="white" stroke="black" points="76.5,-116.5 76.5,-137.5 127.5,-137.5 127.5,-116.5 76.5,-116.5"/>
<text text-anchor="middle" x="102" y="-123.9" font-family="DejaVuSans" font-size="12.00">fonts.c</text>
</a>
</g>
</g>
<!-- Node2&#45;&gt;Node4 -->
<g id="edge3" class="edge">
<title>Node2&#45;&gt;Node4</title>
<path fill="none" stroke="midnightblue" d="M303.85,-177.27C264.74,-168.7 195.68,-153.19 137,-138 133.94,-137.21 130.74,-136.34 127.57,-135.47"/>
<polygon fill="midnightblue" stroke="midnightblue" points="303.3,-180.73 313.82,-179.44 304.79,-173.89 303.3,-180.73"/>
</g>
<!-- Node5 -->
<g id="node5" class="node">
<title>Node5</title>
<g id="a_node5"><a xlink:href="funcs_8c.html" target="_top" xlink:title=" ">
<polygon fill="white" stroke="black" points="146,-116.5 146,-137.5 200,-137.5 200,-116.5 146,-116.5"/>
<text text-anchor="middle" x="173" y="-123.9" font-family="DejaVuSans" font-size="12.00">funcs.c</text>
</a>
</g>
</g>
<!-- Node2&#45;&gt;Node5 -->
<g id="edge4" class="edge">
<title>Node2&#45;&gt;Node5</title>
<path fill="none" stroke="midnightblue" d="M304.26,-173.37C274.2,-162.98 228.88,-147.32 200.13,-137.38"/>
<polygon fill="midnightblue" stroke="midnightblue" points="303.23,-176.72 313.82,-176.68 305.51,-170.1 303.23,-176.72"/>
</g>
<!-- Node6 -->
<g id="node6" class="node">
<title>Node6</title>
<g id="a_node6"><a xlink:href="inipool_8c.html" target="_top" xlink:title=" ">
<polygon fill="white" stroke="black" points="218.5,-116.5 218.5,-137.5 279.5,-137.5 279.5,-116.5 218.5,-116.5"/>
<text text-anchor="middle" x="249" y="-123.9" font-family="DejaVuSans" font-size="12.00">inipool.c</text>
</a>
</g>
</g>
<!-- Node2&#45;&gt;Node6 -->
<g id="edge5" class="edge">
<title>Node2&#45;&gt;Node6</title>
<path fill="none" stroke="midnightblue" d="M311.61,-168.77C296.37,-158.85 276.95,-146.2 263.81,-137.64"/>
<polygon fill="midnightblue" stroke="midnightblue" points="309.73,-171.72 320.02,-174.25 313.55,-165.86 309.73,-171.72"/>
</g>
<!-- Node7 -->
<g id="node7" class="node">
<title>Node7</title>
<g id="a_node7"><a xlink:href="inputln_8c.html" target="_top" xlink:title=" ">
<polygon fill="white" stroke="black" points="268.5,-58.5 268.5,-79.5 329.5,-79.5 329.5,-58.5 268.5,-58.5"/>
<text text-anchor="middle" x="299" y="-65.9" font-family="DejaVuSans" font-size="12.00">inputln.c</text>
</a>
</g>
</g>
<!-- Node2&#45;&gt;Node7 -->
<g id="edge6" class="edge">
<title>Node2&#45;&gt;Node7</title>
<path fill="none" stroke="midnightblue" d="M328.87,-164.58C321.09,-139.96 307.98,-98.44 302.06,-79.69"/>
<polygon fill="midnightblue" stroke="midnightblue" points="325.58,-165.8 331.93,-174.28 332.26,-163.69 325.58,-165.8"/>
</g>
<!-- Node8 -->
<g id="node8" class="node">
<title>Node8</title>
<g id="a_node8"><a xlink:href="lexer_8h.html" target="_top" xlink:title=" ">
<polygon fill="white" stroke="black" points="336,-116.5 336,-137.5 388,-137.5 388,-116.5 336,-116.5"/>
<text text-anchor="middle" x="362" y="-123.9" font-family="DejaVuSans" font-size="12.00">lexer.h</text>
</a>
</g>
</g>
<!-- Node2&#45;&gt;Node8 -->
<g id="edge7" class="edge">
<title>Node2&#45;&gt;Node8</title>
<path fill="none" stroke="midnightblue" d="M344.14,-165.04C348.58,-155.83 353.73,-145.16 357.35,-137.64"/>
<polygon fill="midnightblue" stroke="midnightblue" points="340.89,-163.72 339.7,-174.25 347.2,-166.76 340.89,-163.72"/>
</g>
<!-- Node10 -->
<g id="node10" class="node">
<title>Node10</title>
<g id="a_node10"><a xlink:href="tex__header_8h.html" target="_top" xlink:title=" ">
<polygon fill="white" stroke="black" points="348,-58.5 348,-79.5 434,-79.5 434,-58.5 348,-58.5"/>
<text text-anchor="middle" x="391" y="-65.9" font-family="DejaVuSans" font-size="12.00">tex_header.h</text>
</a>
</g>
</g>
<!-- Node2&#45;&gt;Node10 -->
<g id="edge18" class="edge">
<title>Node2&#45;&gt;Node10</title>
<path fill="none" stroke="midnightblue" d="M364.9,-169.73C377.21,-162.16 390.16,-151.58 397,-138 406.48,-119.16 399.88,-93.64 394.97,-79.84"/>
<polygon fill="midnightblue" stroke="midnightblue" points="363.11,-166.72 356.15,-174.71 366.57,-172.81 363.11,-166.72"/>
</g>
<!-- Node12 -->
<g id="node12" class="node">
<title>Node12</title>
<g id="a_node12"><a xlink:href="print_8h.html" target="_top" xlink:title=" ">
<polygon fill="white" stroke="black" points="444,-116.5 444,-137.5 494,-137.5 494,-116.5 444,-116.5"/>
<text text-anchor="middle" x="469" y="-123.9" font-family="DejaVuSans" font-size="12.00">print.h</text>
</a>
</g>
</g>
<!-- Node2&#45;&gt;Node12 -->
<g id="edge12" class="edge">
<title>Node2&#45;&gt;Node12</title>
<path fill="none" stroke="midnightblue" d="M365.77,-171.14C390.24,-160.92 423.93,-146.84 446.07,-137.58"/>
<polygon fill="midnightblue" stroke="midnightblue" points="364.11,-168.04 356.23,-175.13 366.81,-174.5 364.11,-168.04"/>
</g>
<!-- Node14 -->
<g id="node14" class="node">
<title>Node14</title>
<g id="a_node14"><a xlink:href="printout_8c.html" target="_top" xlink:title=" ">
<polygon fill="white" stroke="black" points="512.5,-116.5 512.5,-137.5 577.5,-137.5 577.5,-116.5 512.5,-116.5"/>
<text text-anchor="middle" x="545" y="-123.9" font-family="DejaVuSans" font-size="12.00">printout.c</text>
</a>
</g>
</g>
<!-- Node2&#45;&gt;Node14 -->
<g id="edge16" class="edge">
<title>Node2&#45;&gt;Node14</title>
<path fill="none" stroke="midnightblue" d="M366.1,-175.71C405.31,-165.25 472.42,-147.35 512.36,-136.71"/>
<polygon fill="midnightblue" stroke="midnightblue" points="365.05,-172.36 356.29,-178.32 366.86,-179.13 365.05,-172.36"/>
</g>
<!-- Node15 -->
<g id="node15" class="node">
<title>Node15</title>
<g id="a_node15"><a xlink:href="str_8c.html" target="_top" xlink:title=" ">
<polygon fill="white" stroke="black" points="596,-116.5 596,-137.5 634,-137.5 634,-116.5 596,-116.5"/>
<text text-anchor="middle" x="615" y="-123.9" font-family="DejaVuSans" font-size="12.00">str.c</text>
</a>
</g>
</g>
<!-- Node2&#45;&gt;Node15 -->
<g id="edge17" class="edge">
<title>Node2&#45;&gt;Node15</title>
<path fill="none" stroke="midnightblue" d="M366.22,-179.97C414.2,-173.4 508.72,-158.97 587,-138 589.89,-137.23 592.91,-136.29 595.85,-135.3"/>
<polygon fill="midnightblue" stroke="midnightblue" points="365.61,-176.52 356.16,-181.32 366.54,-183.45 365.61,-176.52"/>
</g>
<!-- Node8&#45;&gt;Node7 -->
<g id="edge8" class="edge">
<title>Node8&#45;&gt;Node7</title>
<path fill="none" stroke="midnightblue" d="M343.28,-109.36C332.38,-99.67 319.02,-87.8 309.85,-79.64"/>
<polygon fill="midnightblue" stroke="midnightblue" points="341.23,-112.22 351.03,-116.25 345.88,-106.99 341.23,-112.22"/>
</g>
<!-- Node9 -->
<g id="node9" class="node">
<title>Node9</title>
<g id="a_node9"><a xlink:href="lexer_8c.html" target="_top" xlink:title=" ">
<polygon fill="white" stroke="black" points="452.5,-58.5 452.5,-79.5 503.5,-79.5 503.5,-58.5 452.5,-58.5"/>
<text text-anchor="middle" x="478" y="-65.9" font-family="DejaVuSans" font-size="12.00">lexer.c</text>
</a>
</g>
</g>
<!-- Node8&#45;&gt;Node9 -->
<g id="edge9" class="edge">
<title>Node8&#45;&gt;Node9</title>
<path fill="none" stroke="midnightblue" d="M391.05,-111.97C412.06,-101.83 439.87,-88.41 458.32,-79.5"/>
<polygon fill="midnightblue" stroke="midnightblue" points="389.42,-108.87 381.94,-116.37 392.47,-115.18 389.42,-108.87"/>
</g>
<!-- Node8&#45;&gt;Node10 -->
<g id="edge10" class="edge">
<title>Node8&#45;&gt;Node10</title>
<path fill="none" stroke="midnightblue" d="M371.66,-107.34C376.47,-98.06 382.07,-87.24 386.01,-79.64"/>
<polygon fill="midnightblue" stroke="midnightblue" points="368.54,-105.76 367.05,-116.25 374.76,-108.98 368.54,-105.76"/>
</g>
<!-- Node11 -->
<g id="node11" class="node">
<title>Node11</title>
<g id="a_node11"><a xlink:href="tex_8c.html" target="_top" xlink:title=" ">
<polygon fill="white" stroke="black" points="370.5,-0.5 370.5,-21.5 411.5,-21.5 411.5,-0.5 370.5,-0.5"/>
<text text-anchor="middle" x="391" y="-7.9" font-family="DejaVuSans" font-size="12.00">tex.c</text>
</a>
</g>
</g>
<!-- Node10&#45;&gt;Node11 -->
<g id="edge11" class="edge">
<title>Node10&#45;&gt;Node11</title>
<path fill="none" stroke="midnightblue" d="M391,-48.16C391,-39.16 391,-28.92 391,-21.64"/>
<polygon fill="midnightblue" stroke="midnightblue" points="387.5,-48.25 391,-58.25 394.5,-48.25 387.5,-48.25"/>
</g>
<!-- Node12&#45;&gt;Node9 -->
<g id="edge13" class="edge">
<title>Node12&#45;&gt;Node9</title>
<path fill="none" stroke="midnightblue" d="M472.19,-106.16C473.64,-97.16 475.28,-86.92 476.45,-79.64"/>
<polygon fill="midnightblue" stroke="midnightblue" points="468.7,-105.82 470.57,-116.25 475.61,-106.93 468.7,-105.82"/>
</g>
<!-- Node12&#45;&gt;Node10 -->
<g id="edge15" class="edge">
<title>Node12&#45;&gt;Node10</title>
<path fill="none" stroke="midnightblue" d="M447.01,-110.21C433.31,-100.37 416.13,-88.04 404.43,-79.64"/>
<polygon fill="midnightblue" stroke="midnightblue" points="445.25,-113.26 455.41,-116.25 449.33,-107.57 445.25,-113.26"/>
</g>
<!-- Node13 -->
<g id="node13" class="node">
<title>Node13</title>
<g id="a_node13"><a xlink:href="print_8c.html" target="_top" xlink:title=" ">
<polygon fill="white" stroke="black" points="521.5,-58.5 521.5,-79.5 570.5,-79.5 570.5,-58.5 521.5,-58.5"/>
<text text-anchor="middle" x="546" y="-65.9" font-family="DejaVuSans" font-size="12.00">print.c</text>
</a>
</g>
</g>
<!-- Node12&#45;&gt;Node13 -->
<g id="edge14" class="edge">
<title>Node12&#45;&gt;Node13</title>
<path fill="none" stroke="midnightblue" d="M490.71,-110.21C504.24,-100.37 521.2,-88.04 532.74,-79.64"/>
<polygon fill="midnightblue" stroke="midnightblue" points="488.44,-107.53 482.41,-116.25 492.56,-113.19 488.44,-107.53"/>
</g>
</g>
</svg>
