<?xml version="1.0" encoding="UTF-8" standalone="no"?>
<!DOCTYPE svg PUBLIC "-//W3C//DTD SVG 1.1//EN"
 "http://www.w3.org/Graphics/SVG/1.1/DTD/svg11.dtd">
<!-- Generated by graphviz version 2.44.0 ()
 -->
<!-- Title: tex_header.h Pages: 1 -->
<svg width="1799pt" height="726pt"
 viewBox="0.00 0.00 1799.00 726.00" xmlns="http://www.w3.org/2000/svg" xmlns:xlink="http://www.w3.org/1999/xlink">
<g id="graph0" class="graph" transform="scale(1 1) rotate(0) translate(4 722)">
<title>tex_header.h</title>
<polygon fill="white" stroke="transparent" points="-4,4 -4,-722 1795,-722 1795,4 -4,4"/>
<!-- Node1 -->
<g id="node1" class="node">
<title>Node1</title>
<g id="a_node1"><a xlink:title=" ">
<polygon fill="#bfbfbf" stroke="black" points="768.5,-696.5 768.5,-717.5 854.5,-717.5 854.5,-696.5 768.5,-696.5"/>
<text text-anchor="middle" x="811.5" y="-703.9" font-family="DejaVuSans" font-size="12.00">tex_header.h</text>
</a>
</g>
</g>
<!-- Node2 -->
<g id="node2" class="node">
<title>Node2</title>
<g id="a_node2"><a xlink:title=" ">
<polygon fill="white" stroke="#bfbfbf" points="207.5,-0.5 207.5,-21.5 259.5,-21.5 259.5,-0.5 207.5,-0.5"/>
<text text-anchor="middle" x="233.5" y="-7.9" font-family="DejaVuSans" font-size="12.00">stdio.h</text>
</a>
</g>
</g>
<!-- Node1&#45;&gt;Node2 -->
<g id="edge1" class="edge">
<title>Node1&#45;&gt;Node2</title>
<path fill="none" stroke="midnightblue" d="M768.32,-704.85C649.56,-701.33 324.36,-689.1 286.5,-660 241.86,-625.69 211.5,-474.3 211.5,-418 211.5,-418 211.5,-418 211.5,-126 211.5,-92.22 220.93,-53.82 227.44,-31.32"/>
<polygon fill="midnightblue" stroke="midnightblue" points="230.82,-32.22 230.35,-21.64 224.12,-30.21 230.82,-32.22"/>
</g>
<!-- Node3 -->
<g id="node3" class="node">
<title>Node3</title>
<g id="a_node3"><a xlink:title=" ">
<polygon fill="white" stroke="#bfbfbf" points="1015,-638.5 1015,-659.5 1074,-659.5 1074,-638.5 1015,-638.5"/>
<text text-anchor="middle" x="1044.5" y="-645.9" font-family="DejaVuSans" font-size="12.00">stdarg.h</text>
</a>
</g>
</g>
<!-- Node1&#45;&gt;Node3 -->
<g id="edge2" class="edge">
<title>Node1&#45;&gt;Node3</title>
<path fill="none" stroke="midnightblue" d="M851.29,-696.44C894.25,-686.11 962.25,-669.77 1005.07,-659.48"/>
<polygon fill="midnightblue" stroke="midnightblue" points="1005.95,-662.86 1014.86,-657.12 1004.32,-656.06 1005.95,-662.86"/>
</g>
<!-- Node4 -->
<g id="node4" class="node">
<title>Node4</title>
<g id="a_node4"><a xlink:title=" ">
<polygon fill="white" stroke="#bfbfbf" points="1092.5,-638.5 1092.5,-659.5 1146.5,-659.5 1146.5,-638.5 1092.5,-638.5"/>
<text text-anchor="middle" x="1119.5" y="-645.9" font-family="DejaVuSans" font-size="12.00">stdlib.h</text>
</a>
</g>
</g>
<!-- Node1&#45;&gt;Node4 -->
<g id="edge3" class="edge">
<title>Node1&#45;&gt;Node4</title>
<path fill="none" stroke="midnightblue" d="M854.64,-700.11C906.5,-692.72 996.35,-678.94 1082.51,-660.04"/>
<polygon fill="midnightblue" stroke="midnightblue" points="1083.44,-663.42 1092.45,-657.84 1081.93,-656.59 1083.44,-663.42"/>
</g>
<!-- Node5 -->
<g id="node5" class="node">
<title>Node5</title>
<g id="a_node5"><a xlink:title=" ">
<polygon fill="white" stroke="#bfbfbf" points="1164.5,-638.5 1164.5,-659.5 1220.5,-659.5 1220.5,-638.5 1164.5,-638.5"/>
<text text-anchor="middle" x="1192.5" y="-645.9" font-family="DejaVuSans" font-size="12.00">string.h</text>
</a>
</g>
</g>
<!-- Node1&#45;&gt;Node5 -->
<g id="edge4" class="edge">
<title>Node1&#45;&gt;Node5</title>
<path fill="none" stroke="midnightblue" d="M854.7,-702.06C918.33,-695.85 1041.08,-682.35 1154.42,-660"/>
<polygon fill="midnightblue" stroke="midnightblue" points="1155.19,-663.42 1164.31,-658.03 1153.82,-656.56 1155.19,-663.42"/>
</g>
<!-- Node6 -->
<g id="node6" class="node">
<title>Node6</title>
<g id="a_node6"><a xlink:title=" ">
<polygon fill="white" stroke="#bfbfbf" points="1239,-638.5 1239,-659.5 1292,-659.5 1292,-638.5 1239,-638.5"/>
<text text-anchor="middle" x="1265.5" y="-645.9" font-family="DejaVuSans" font-size="12.00">math.h</text>
</a>
</g>
</g>
<!-- Node1&#45;&gt;Node6 -->
<g id="edge5" class="edge">
<title>Node1&#45;&gt;Node6</title>
<path fill="none" stroke="midnightblue" d="M854.57,-703.56C928.96,-698.85 1086.4,-686.69 1228.66,-659.87"/>
<polygon fill="midnightblue" stroke="midnightblue" points="1229.71,-663.23 1238.88,-657.91 1228.4,-656.35 1229.71,-663.23"/>
</g>
<!-- Node7 -->
<g id="node7" class="node">
<title>Node7</title>
<g id="a_node7"><a xlink:href="global__const_8h.html" target="_top" xlink:title=" ">
<polygon fill="white" stroke="black" points="52,-58.5 52,-79.5 145,-79.5 145,-58.5 52,-58.5"/>
<text text-anchor="middle" x="98.5" y="-65.9" font-family="DejaVuSans" font-size="12.00">global_const.h</text>
</a>
</g>
</g>
<!-- Node1&#45;&gt;Node7 -->
<g id="edge6" class="edge">
<title>Node1&#45;&gt;Node7</title>
<path fill="none" stroke="midnightblue" d="M768.21,-704.85C630.65,-700.93 209.39,-686.84 154.5,-660 118.03,-642.17 93.5,-632.6 93.5,-592 93.5,-592 93.5,-592 93.5,-184 93.5,-150.95 95.62,-112.57 97.1,-89.83"/>
<polygon fill="midnightblue" stroke="midnightblue" points="100.6,-89.97 97.78,-79.75 93.62,-89.49 100.6,-89.97"/>
</g>
<!-- Node9 -->
<g id="node9" class="node">
<title>Node9</title>
<g id="a_node9"><a xlink:href="tex__inc_8h.html" target="_top" xlink:title=" ">
<polygon fill="white" stroke="black" points="0,-580.5 0,-601.5 65,-601.5 65,-580.5 0,-580.5"/>
<text text-anchor="middle" x="32.5" y="-587.9" font-family="DejaVuSans" font-size="12.00">tex_inc.h</text>
</a>
</g>
</g>
<!-- Node1&#45;&gt;Node9 -->
<g id="edge9" class="edge">
<title>Node1&#45;&gt;Node9</title>
<path fill="none" stroke="midnightblue" d="M768.37,-705.47C620.44,-703.34 139.43,-693.87 79.5,-660 60.44,-649.23 47.4,-627.14 39.98,-611.05"/>
<polygon fill="midnightblue" stroke="midnightblue" points="43.06,-609.35 35.91,-601.53 36.62,-612.1 43.06,-609.35"/>
</g>
<!-- Node10 -->
<g id="node10" class="node">
<title>Node10</title>
<g id="a_node10"><a xlink:href="texmath_8h.html" target="_top" xlink:title=" ">
<polygon fill="white" stroke="black" points="952.5,-232.5 952.5,-253.5 1020.5,-253.5 1020.5,-232.5 952.5,-232.5"/>
<text text-anchor="middle" x="986.5" y="-239.9" font-family="DejaVuSans" font-size="12.00">texmath.h</text>
</a>
</g>
</g>
<!-- Node1&#45;&gt;Node10 -->
<g id="edge11" class="edge">
<title>Node1&#45;&gt;Node10</title>
<path fill="none" stroke="midnightblue" d="M854.53,-699.38C883.12,-693.18 920.11,-681.51 946.5,-660 973.68,-637.85 986.5,-627.06 986.5,-592 986.5,-592 986.5,-592 986.5,-358 986.5,-324.98 986.5,-286.59 986.5,-263.85"/>
<polygon fill="midnightblue" stroke="midnightblue" points="990,-263.76 986.5,-253.76 983,-263.76 990,-263.76"/>
</g>
<!-- Node14 -->
<g id="node14" class="node">
<title>Node14</title>
<g id="a_node14"><a xlink:href="tex_8h.html" target="_top" xlink:title=" ">
<polygon fill="white" stroke="black" points="680.5,-290.5 680.5,-311.5 722.5,-311.5 722.5,-290.5 680.5,-290.5"/>
<text text-anchor="middle" x="701.5" y="-297.9" font-family="DejaVuSans" font-size="12.00">tex.h</text>
</a>
</g>
</g>
<!-- Node1&#45;&gt;Node14 -->
<g id="edge15" class="edge">
<title>Node1&#45;&gt;Node14</title>
<path fill="none" stroke="midnightblue" d="M829.2,-696.3C857.68,-679.25 910.5,-641.02 910.5,-592 910.5,-592 910.5,-592 910.5,-474 910.5,-382.9 790.65,-331.14 732.46,-311.38"/>
<polygon fill="midnightblue" stroke="midnightblue" points="733.28,-307.96 722.69,-308.17 731.1,-314.61 733.28,-307.96"/>
</g>
<!-- Node16 -->
<g id="node16" class="node">
<title>Node16</title>
<g id="a_node16"><a xlink:href="box_8h.html" target="_top" xlink:title=" ">
<polygon fill="white" stroke="black" points="668.5,-174.5 668.5,-195.5 714.5,-195.5 714.5,-174.5 668.5,-174.5"/>
<text text-anchor="middle" x="691.5" y="-181.9" font-family="DejaVuSans" font-size="12.00">box.h</text>
</a>
</g>
</g>
<!-- Node1&#45;&gt;Node16 -->
<g id="edge65" class="edge">
<title>Node1&#45;&gt;Node16</title>
<path fill="none" stroke="midnightblue" d="M768.4,-702.07C706.16,-693.75 598.5,-668.34 598.5,-592 598.5,-592 598.5,-592 598.5,-474 598.5,-417.66 568.29,-401.96 584.5,-348 602.34,-288.61 649.8,-230.92 675.09,-203.15"/>
<polygon fill="midnightblue" stroke="midnightblue" points="677.93,-205.24 682.17,-195.53 672.8,-200.48 677.93,-205.24"/>
</g>
<!-- Node17 -->
<g id="node17" class="node">
<title>Node17</title>
<g id="a_node17"><a xlink:href="str_8h.html" target="_top" xlink:title=" ">
<polygon fill="white" stroke="black" points="499,-116.5 499,-137.5 538,-137.5 538,-116.5 499,-116.5"/>
<text text-anchor="middle" x="518.5" y="-123.9" font-family="DejaVuSans" font-size="12.00">str.h</text>
</a>
</g>
</g>
<!-- Node1&#45;&gt;Node17 -->
<g id="edge24" class="edge">
<title>Node1&#45;&gt;Node17</title>
<path fill="none" stroke="midnightblue" d="M768.39,-704.09C678.22,-699.62 472.79,-686.74 408.5,-660 363.83,-641.42 323.5,-640.38 323.5,-592 323.5,-592 323.5,-592 323.5,-532 323.5,-454.62 296.5,-437.38 296.5,-360 296.5,-360 296.5,-360 296.5,-300 296.5,-203.67 428.73,-153.58 489.08,-135.74"/>
<polygon fill="midnightblue" stroke="midnightblue" points="490.15,-139.07 498.8,-132.96 488.22,-132.34 490.15,-139.07"/>
</g>
<!-- Node18 -->
<g id="node18" class="node">
<title>Node18</title>
<g id="a_node18"><a xlink:href="texmac_8h.html" target="_top" xlink:title=" ">
<polygon fill="white" stroke="black" points="779,-580.5 779,-601.5 844,-601.5 844,-580.5 779,-580.5"/>
<text text-anchor="middle" x="811.5" y="-587.9" font-family="DejaVuSans" font-size="12.00">texmac.h</text>
</a>
</g>
</g>
<!-- Node1&#45;&gt;Node18 -->
<g id="edge25" class="edge">
<title>Node1&#45;&gt;Node18</title>
<path fill="none" stroke="midnightblue" d="M811.5,-696.28C811.5,-677.6 811.5,-636.37 811.5,-611.72"/>
<polygon fill="midnightblue" stroke="midnightblue" points="815,-611.69 811.5,-601.69 808,-611.7 815,-611.69"/>
</g>
<!-- Node19 -->
<g id="node19" class="node">
<title>Node19</title>
<g id="a_node19"><a xlink:href="mem_8h.html" target="_top" xlink:title=" ">
<polygon fill="white" stroke="black" points="807,-522.5 807,-543.5 860,-543.5 860,-522.5 807,-522.5"/>
<text text-anchor="middle" x="833.5" y="-529.9" font-family="DejaVuSans" font-size="12.00">mem.h</text>
</a>
</g>
</g>
<!-- Node1&#45;&gt;Node19 -->
<g id="edge64" class="edge">
<title>Node1&#45;&gt;Node19</title>
<path fill="none" stroke="midnightblue" d="M816.88,-696.35C826.52,-678.43 846.41,-638.51 853.5,-602 855.36,-592.4 855.49,-589.57 853.5,-580 851.56,-570.67 847.62,-560.9 843.75,-552.78"/>
<polygon fill="midnightblue" stroke="midnightblue" points="846.85,-551.16 839.19,-543.84 840.61,-554.34 846.85,-551.16"/>
</g>
<!-- Node20 -->
<g id="node20" class="node">
<title>Node20</title>
<g id="a_node20"><a xlink:href="global_8h.html" target="_top" xlink:title=" ">
<polygon fill="white" stroke="black" points="511.5,-464.5 511.5,-485.5 569.5,-485.5 569.5,-464.5 511.5,-464.5"/>
<text text-anchor="middle" x="540.5" y="-471.9" font-family="DejaVuSans" font-size="12.00">global.h</text>
</a>
</g>
</g>
<!-- Node1&#45;&gt;Node20 -->
<g id="edge38" class="edge">
<title>Node1&#45;&gt;Node20</title>
<path fill="none" stroke="midnightblue" d="M768.29,-702.72C709.93,-697.39 610.24,-684.86 584.5,-660 538.9,-615.96 537.05,-533.72 538.9,-495.93"/>
<polygon fill="midnightblue" stroke="midnightblue" points="542.41,-495.92 539.55,-485.72 535.42,-495.47 542.41,-495.92"/>
</g>
<!-- Node22 -->
<g id="node22" class="node">
<title>Node22</title>
<g id="a_node22"><a xlink:href="scan_8h.html" target="_top" xlink:title=" ">
<polygon fill="white" stroke="black" points="400.5,-406.5 400.5,-427.5 452.5,-427.5 452.5,-406.5 400.5,-406.5"/>
<text text-anchor="middle" x="426.5" y="-413.9" font-family="DejaVuSans" font-size="12.00">scan.h</text>
</a>
</g>
</g>
<!-- Node1&#45;&gt;Node22 -->
<g id="edge54" class="edge">
<title>Node1&#45;&gt;Node22</title>
<path fill="none" stroke="midnightblue" d="M768.44,-704.82C717.07,-701.92 629.7,-692.19 562.5,-660 520.72,-639.99 483.5,-638.33 483.5,-592 483.5,-592 483.5,-592 483.5,-532 483.5,-494.46 458.47,-456.62 441.59,-435.36"/>
<polygon fill="midnightblue" stroke="midnightblue" points="444.22,-433.05 435.16,-427.55 438.82,-437.5 444.22,-433.05"/>
</g>
<!-- Node23 -->
<g id="node23" class="node">
<title>Node23</title>
<g id="a_node23"><a xlink:href="lexer_8h.html" target="_top" xlink:title=" ">
<polygon fill="white" stroke="black" points="381.5,-348.5 381.5,-369.5 433.5,-369.5 433.5,-348.5 381.5,-348.5"/>
<text text-anchor="middle" x="407.5" y="-355.9" font-family="DejaVuSans" font-size="12.00">lexer.h</text>
</a>
</g>
</g>
<!-- Node1&#45;&gt;Node23 -->
<g id="edge52" class="edge">
<title>Node1&#45;&gt;Node23</title>
<path fill="none" stroke="midnightblue" d="M768.47,-704.26C694.96,-700.52 549.21,-689.51 508.5,-660 485.12,-643.06 398.18,-456.09 391.5,-428 387.56,-411.45 392.74,-392.63 398.23,-378.99"/>
<polygon fill="midnightblue" stroke="midnightblue" points="401.5,-380.25 402.34,-369.69 395.1,-377.42 401.5,-380.25"/>
</g>
<!-- Node24 -->
<g id="node24" class="node">
<title>Node24</title>
<g id="a_node24"><a xlink:href="macros_8h.html" target="_top" xlink:title=" ">
<polygon fill="white" stroke="black" points="1310,-638.5 1310,-659.5 1375,-659.5 1375,-638.5 1310,-638.5"/>
<text text-anchor="middle" x="1342.5" y="-645.9" font-family="DejaVuSans" font-size="12.00">macros.h</text>
</a>
</g>
</g>
<!-- Node1&#45;&gt;Node24 -->
<g id="edge35" class="edge">
<title>Node1&#45;&gt;Node24</title>
<path fill="none" stroke="midnightblue" d="M854.7,-704.06C938.74,-699.83 1130.15,-687.97 1299.8,-660.09"/>
<polygon fill="midnightblue" stroke="midnightblue" points="1300.63,-663.5 1309.92,-658.4 1299.48,-656.59 1300.63,-663.5"/>
</g>
<!-- Node25 -->
<g id="node25" class="node">
<title>Node25</title>
<g id="a_node25"><a xlink:href="funcs_8h.html" target="_top" xlink:title=" ">
<polygon fill="white" stroke="black" points="240,-464.5 240,-485.5 295,-485.5 295,-464.5 240,-464.5"/>
<text text-anchor="middle" x="267.5" y="-471.9" font-family="DejaVuSans" font-size="12.00">funcs.h</text>
</a>
</g>
</g>
<!-- Node1&#45;&gt;Node25 -->
<g id="edge36" class="edge">
<title>Node1&#45;&gt;Node25</title>
<path fill="none" stroke="midnightblue" d="M768.37,-704.9C653,-701.58 343.71,-689.93 309.5,-660 261.68,-618.15 262.21,-534.11 265.28,-495.82"/>
<polygon fill="midnightblue" stroke="midnightblue" points="268.8,-495.79 266.26,-485.5 261.83,-495.13 268.8,-495.79"/>
</g>
<!-- Node26 -->
<g id="node26" class="node">
<title>Node26</title>
<g id="a_node26"><a xlink:href="printout_8h.html" target="_top" xlink:title=" ">
<polygon fill="white" stroke="black" points="1393.5,-638.5 1393.5,-659.5 1459.5,-659.5 1459.5,-638.5 1393.5,-638.5"/>
<text text-anchor="middle" x="1426.5" y="-645.9" font-family="DejaVuSans" font-size="12.00">printout.h</text>
</a>
</g>
</g>
<!-- Node1&#45;&gt;Node26 -->
<g id="edge39" class="edge">
<title>Node1&#45;&gt;Node26</title>
<path fill="none" stroke="midnightblue" d="M854.54,-704.8C948.76,-701.7 1180.47,-691.42 1383.19,-660"/>
<polygon fill="midnightblue" stroke="midnightblue" points="1383.79,-663.45 1393.12,-658.44 1382.7,-656.53 1383.79,-663.45"/>
</g>
<!-- Node27 -->
<g id="node27" class="node">
<title>Node27</title>
<g id="a_node27"><a xlink:href="fonts_8h.html" target="_top" xlink:title=" ">
<polygon fill="white" stroke="black" points="131.5,-290.5 131.5,-311.5 183.5,-311.5 183.5,-290.5 131.5,-290.5"/>
<text text-anchor="middle" x="157.5" y="-297.9" font-family="DejaVuSans" font-size="12.00">fonts.h</text>
</a>
</g>
</g>
<!-- Node1&#45;&gt;Node27 -->
<g id="edge40" class="edge">
<title>Node1&#45;&gt;Node27</title>
<path fill="none" stroke="midnightblue" d="M768.21,-706.24C647.52,-706.34 309.57,-702.7 208.5,-660 166.44,-642.23 131.5,-637.66 131.5,-592 131.5,-592 131.5,-592 131.5,-416 131.5,-381.98 142.64,-343.65 150.34,-321.23"/>
<polygon fill="midnightblue" stroke="midnightblue" points="153.71,-322.19 153.77,-311.59 147.12,-319.83 153.71,-322.19"/>
</g>
<!-- Node28 -->
<g id="node28" class="node">
<title>Node28</title>
<g id="a_node28"><a xlink:href="inputln_8h.html" target="_top" xlink:title=" ">
<polygon fill="white" stroke="black" points="1477.5,-638.5 1477.5,-659.5 1539.5,-659.5 1539.5,-638.5 1477.5,-638.5"/>
<text text-anchor="middle" x="1508.5" y="-645.9" font-family="DejaVuSans" font-size="12.00">inputln.h</text>
</a>
</g>
</g>
<!-- Node1&#45;&gt;Node28 -->
<g id="edge43" class="edge">
<title>Node1&#45;&gt;Node28</title>
<path fill="none" stroke="midnightblue" d="M854.84,-705.58C958.96,-704.02 1231.4,-696.61 1467.03,-659.98"/>
<polygon fill="midnightblue" stroke="midnightblue" points="1467.83,-663.4 1477.16,-658.39 1466.74,-656.48 1467.83,-663.4"/>
</g>
<!-- Node29 -->
<g id="node29" class="node">
<title>Node29</title>
<g id="a_node29"><a xlink:href="dviout_8h.html" target="_top" xlink:title=" ">
<polygon fill="white" stroke="black" points="160,-580.5 160,-601.5 219,-601.5 219,-580.5 160,-580.5"/>
<text text-anchor="middle" x="189.5" y="-587.9" font-family="DejaVuSans" font-size="12.00">dviout.h</text>
</a>
</g>
</g>
<!-- Node1&#45;&gt;Node29 -->
<g id="edge44" class="edge">
<title>Node1&#45;&gt;Node29</title>
<path fill="none" stroke="midnightblue" d="M768.43,-704.76C642.19,-700.81 279.1,-687.21 233.5,-660 215.27,-649.13 203.24,-627.44 196.44,-611.46"/>
<polygon fill="midnightblue" stroke="midnightblue" points="199.62,-609.99 192.71,-601.97 193.11,-612.55 199.62,-609.99"/>
</g>
<!-- Node30 -->
<g id="node30" class="node">
<title>Node30</title>
<g id="a_node30"><a xlink:href="pure__func_8h.html" target="_top" xlink:title=" ">
<polygon fill="white" stroke="black" points="1557.5,-638.5 1557.5,-659.5 1637.5,-659.5 1637.5,-638.5 1557.5,-638.5"/>
<text text-anchor="middle" x="1597.5" y="-645.9" font-family="DejaVuSans" font-size="12.00">pure_func.h</text>
</a>
</g>
</g>
<!-- Node1&#45;&gt;Node30 -->
<g id="edge46" class="edge">
<title>Node1&#45;&gt;Node30</title>
<path fill="none" stroke="midnightblue" d="M854.9,-705.39C967.62,-703.37 1278.97,-694.92 1547.53,-659.95"/>
<polygon fill="midnightblue" stroke="midnightblue" points="1548.01,-663.42 1557.47,-658.64 1547.09,-656.48 1548.01,-663.42"/>
</g>
<!-- Node31 -->
<g id="node31" class="node">
<title>Node31</title>
<g id="a_node31"><a xlink:href="print_8h.html" target="_top" xlink:title=" ">
<polygon fill="white" stroke="black" points="725.5,-638.5 725.5,-659.5 775.5,-659.5 775.5,-638.5 725.5,-638.5"/>
<text text-anchor="middle" x="750.5" y="-645.9" font-family="DejaVuSans" font-size="12.00">print.h</text>
</a>
</g>
</g>
<!-- Node1&#45;&gt;Node31 -->
<g id="edge47" class="edge">
<title>Node1&#45;&gt;Node31</title>
<path fill="none" stroke="midnightblue" d="M800.87,-696.25C791.95,-688.05 779.01,-676.17 768.48,-666.51"/>
<polygon fill="midnightblue" stroke="midnightblue" points="770.74,-663.83 761,-659.64 766,-668.98 770.74,-663.83"/>
</g>
<!-- Node32 -->
<g id="node32" class="node">
<title>Node32</title>
<g id="a_node32"><a xlink:href="expand_8h.html" target="_top" xlink:title=" ">
<polygon fill="white" stroke="black" points="1655.5,-638.5 1655.5,-659.5 1721.5,-659.5 1721.5,-638.5 1655.5,-638.5"/>
<text text-anchor="middle" x="1688.5" y="-645.9" font-family="DejaVuSans" font-size="12.00">expand.h</text>
</a>
</g>
</g>
<!-- Node1&#45;&gt;Node32 -->
<g id="edge53" class="edge">
<title>Node1&#45;&gt;Node32</title>
<path fill="none" stroke="midnightblue" d="M854.79,-706.33C977.49,-706.69 1338,-703.78 1645.15,-659.95"/>
<polygon fill="midnightblue" stroke="midnightblue" points="1645.74,-663.41 1655.13,-658.51 1644.74,-656.48 1645.74,-663.41"/>
</g>
<!-- Node33 -->
<g id="node33" class="node">
<title>Node33</title>
<g id="a_node33"><a xlink:href="error_8h.html" target="_top" xlink:title=" ">
<polygon fill="white" stroke="black" points="1740,-638.5 1740,-659.5 1791,-659.5 1791,-638.5 1740,-638.5"/>
<text text-anchor="middle" x="1765.5" y="-645.9" font-family="DejaVuSans" font-size="12.00">error.h</text>
</a>
</g>
</g>
<!-- Node1&#45;&gt;Node33 -->
<g id="edge55" class="edge">
<title>Node1&#45;&gt;Node33</title>
<path fill="none" stroke="midnightblue" d="M854.61,-705.15C1009.68,-701.88 1539.54,-688.94 1729.78,-659.68"/>
<polygon fill="midnightblue" stroke="midnightblue" points="1730.34,-663.14 1739.66,-658.1 1729.23,-656.22 1730.34,-663.14"/>
</g>
<!-- Node34 -->
<g id="node34" class="node">
<title>Node34</title>
<g id="a_node34"><a xlink:href="hash_8h.html" target="_top" xlink:title=" ">
<polygon fill="white" stroke="black" points="593,-348.5 593,-369.5 646,-369.5 646,-348.5 593,-348.5"/>
<text text-anchor="middle" x="619.5" y="-355.9" font-family="DejaVuSans" font-size="12.00">hash.h</text>
</a>
</g>
</g>
<!-- Node1&#45;&gt;Node34 -->
<g id="edge56" class="edge">
<title>Node1&#45;&gt;Node34</title>
<path fill="none" stroke="midnightblue" d="M768.24,-697.6C716.42,-684.74 636.5,-654.73 636.5,-592 636.5,-592 636.5,-592 636.5,-474 636.5,-440.62 629.28,-402.34 624.25,-379.71"/>
<polygon fill="midnightblue" stroke="midnightblue" points="627.6,-378.64 621.94,-369.69 620.78,-380.22 627.6,-378.64"/>
</g>
<!-- Node35 -->
<g id="node35" class="node">
<title>Node35</title>
<g id="a_node35"><a xlink:href="eqtb_8h.html" target="_top" xlink:title=" ">
<polygon fill="white" stroke="black" points="752.5,-290.5 752.5,-311.5 802.5,-311.5 802.5,-290.5 752.5,-290.5"/>
<text text-anchor="middle" x="777.5" y="-297.9" font-family="DejaVuSans" font-size="12.00">eqtb.h</text>
</a>
</g>
</g>
<!-- Node1&#45;&gt;Node35 -->
<g id="edge63" class="edge">
<title>Node1&#45;&gt;Node35</title>
<path fill="none" stroke="midnightblue" d="M854.52,-697.56C877.98,-690.94 905.93,-679.47 924.5,-660 946.62,-636.81 948.5,-624.05 948.5,-592 948.5,-592 948.5,-592 948.5,-474 948.5,-395.84 858.59,-340.59 809.16,-316.13"/>
<polygon fill="midnightblue" stroke="midnightblue" points="810.38,-312.83 799.86,-311.65 807.35,-319.14 810.38,-312.83"/>
</g>
<!-- Node36 -->
<g id="node36" class="node">
<title>Node36</title>
<g id="a_node36"><a xlink:href="texfunc_8h.html" target="_top" xlink:title=" ">
<polygon fill="white" stroke="black" points="352,-522.5 352,-543.5 417,-543.5 417,-522.5 352,-522.5"/>
<text text-anchor="middle" x="384.5" y="-529.9" font-family="DejaVuSans" font-size="12.00">texfunc.h</text>
</a>
</g>
</g>
<!-- Node1&#45;&gt;Node36 -->
<g id="edge66" class="edge">
<title>Node1&#45;&gt;Node36</title>
<path fill="none" stroke="midnightblue" d="M768.45,-706.25C680.23,-705.91 482.92,-700.5 431.5,-660 398.47,-633.98 388.65,-582.21 385.73,-553.8"/>
<polygon fill="midnightblue" stroke="midnightblue" points="389.22,-553.51 384.9,-543.84 382.25,-554.09 389.22,-553.51"/>
</g>
<!-- Node7&#45;&gt;Node2 -->
<g id="edge8" class="edge">
<title>Node7&#45;&gt;Node2</title>
<path fill="none" stroke="midnightblue" d="M121.71,-58.37C143.67,-49.26 176.83,-35.51 201.34,-25.34"/>
<polygon fill="midnightblue" stroke="midnightblue" points="202.7,-28.57 210.6,-21.5 200.02,-22.1 202.7,-28.57"/>
</g>
<!-- Node8 -->
<g id="node8" class="node">
<title>Node8</title>
<g id="a_node8"><a xlink:title=" ">
<polygon fill="white" stroke="#bfbfbf" points="69,-0.5 69,-21.5 128,-21.5 128,-0.5 69,-0.5"/>
<text text-anchor="middle" x="98.5" y="-7.9" font-family="DejaVuSans" font-size="12.00">assert.h</text>
</a>
</g>
</g>
<!-- Node7&#45;&gt;Node8 -->
<g id="edge7" class="edge">
<title>Node7&#45;&gt;Node8</title>
<path fill="none" stroke="midnightblue" d="M98.5,-58.25C98.5,-50.94 98.5,-40.69 98.5,-31.7"/>
<polygon fill="midnightblue" stroke="midnightblue" points="102,-31.64 98.5,-21.64 95,-31.64 102,-31.64"/>
</g>
<!-- Node9&#45;&gt;Node7 -->
<g id="edge10" class="edge">
<title>Node9&#45;&gt;Node7</title>
<path fill="none" stroke="midnightblue" d="M34.22,-580.28C37.54,-560.64 44.5,-514.81 44.5,-476 44.5,-476 44.5,-476 44.5,-184 44.5,-147.02 68,-109.22 83.99,-87.77"/>
<polygon fill="midnightblue" stroke="midnightblue" points="86.94,-89.68 90.3,-79.63 81.41,-85.4 86.94,-89.68"/>
</g>
<!-- Node11 -->
<g id="node11" class="node">
<title>Node11</title>
<g id="a_node11"><a xlink:href="tex__types_8h.html" target="_top" xlink:title=" ">
<polygon fill="white" stroke="black" points="790,-58.5 790,-79.5 867,-79.5 867,-58.5 790,-58.5"/>
<text text-anchor="middle" x="828.5" y="-65.9" font-family="DejaVuSans" font-size="12.00">tex_types.h</text>
</a>
</g>
</g>
<!-- Node10&#45;&gt;Node11 -->
<g id="edge12" class="edge">
<title>Node10&#45;&gt;Node11</title>
<path fill="none" stroke="midnightblue" d="M985.43,-232.42C982.37,-209.36 971.56,-150.14 938.5,-116 921.89,-98.85 897.92,-87.82 876.59,-80.87"/>
<polygon fill="midnightblue" stroke="midnightblue" points="877.6,-77.52 867.02,-77.96 875.56,-84.21 877.6,-77.52"/>
</g>
<!-- Node12 -->
<g id="node12" class="node">
<title>Node12</title>
<g id="a_node12"><a xlink:title=" ">
<polygon fill="white" stroke="#bfbfbf" points="796,-0.5 796,-21.5 861,-21.5 861,-0.5 796,-0.5"/>
<text text-anchor="middle" x="828.5" y="-7.9" font-family="DejaVuSans" font-size="12.00">stdbool.h</text>
</a>
</g>
</g>
<!-- Node11&#45;&gt;Node12 -->
<g id="edge13" class="edge">
<title>Node11&#45;&gt;Node12</title>
<path fill="none" stroke="midnightblue" d="M828.5,-58.25C828.5,-50.94 828.5,-40.69 828.5,-31.7"/>
<polygon fill="midnightblue" stroke="midnightblue" points="832,-31.64 828.5,-21.64 825,-31.64 832,-31.64"/>
</g>
<!-- Node13 -->
<g id="node13" class="node">
<title>Node13</title>
<g id="a_node13"><a xlink:title=" ">
<polygon fill="white" stroke="#bfbfbf" points="607,-0.5 607,-21.5 662,-21.5 662,-0.5 607,-0.5"/>
<text text-anchor="middle" x="634.5" y="-7.9" font-family="DejaVuSans" font-size="12.00">stdint.h</text>
</a>
</g>
</g>
<!-- Node11&#45;&gt;Node13 -->
<g id="edge14" class="edge">
<title>Node11&#45;&gt;Node13</title>
<path fill="none" stroke="midnightblue" d="M795.15,-58.37C760.94,-48.5 707.8,-33.16 672.11,-22.86"/>
<polygon fill="midnightblue" stroke="midnightblue" points="672.67,-19.37 662.09,-19.96 670.72,-26.1 672.67,-19.37"/>
</g>
<!-- Node14&#45;&gt;Node11 -->
<g id="edge16" class="edge">
<title>Node14&#45;&gt;Node11</title>
<path fill="none" stroke="midnightblue" d="M698.66,-290.44C695.16,-276.97 690.48,-251.85 697.5,-232 700.54,-223.4 780.08,-127.83 813.71,-87.64"/>
<polygon fill="midnightblue" stroke="midnightblue" points="816.41,-89.87 820.14,-79.95 811.04,-85.37 816.41,-89.87"/>
</g>
<!-- Node15 -->
<g id="node15" class="node">
<title>Node15</title>
<g id="a_node15"><a xlink:href="tex__constant_8h.html" target="_top" xlink:title=" ">
<polygon fill="white" stroke="black" points="706.5,-232.5 706.5,-253.5 800.5,-253.5 800.5,-232.5 706.5,-232.5"/>
<text text-anchor="middle" x="753.5" y="-239.9" font-family="DejaVuSans" font-size="12.00">tex_constant.h</text>
</a>
</g>
</g>
<!-- Node14&#45;&gt;Node15 -->
<g id="edge17" class="edge">
<title>Node14&#45;&gt;Node15</title>
<path fill="none" stroke="midnightblue" d="M710.56,-290.25C718.01,-282.22 728.76,-270.64 737.64,-261.08"/>
<polygon fill="midnightblue" stroke="midnightblue" points="740.31,-263.35 744.55,-253.64 735.18,-258.59 740.31,-263.35"/>
</g>
<!-- Node15&#45;&gt;Node16 -->
<g id="edge18" class="edge">
<title>Node15&#45;&gt;Node16</title>
<path fill="none" stroke="midnightblue" d="M742.7,-232.25C733.63,-224.05 720.48,-212.17 709.78,-202.51"/>
<polygon fill="midnightblue" stroke="midnightblue" points="711.94,-199.75 702.18,-195.64 707.25,-204.94 711.94,-199.75"/>
</g>
<!-- Node16&#45;&gt;Node17 -->
<g id="edge19" class="edge">
<title>Node16&#45;&gt;Node17</title>
<path fill="none" stroke="midnightblue" d="M668.17,-176.45C637.08,-166.38 582.04,-148.57 548.07,-137.57"/>
<polygon fill="midnightblue" stroke="midnightblue" points="548.85,-134.14 538.26,-134.39 546.69,-140.8 548.85,-134.14"/>
</g>
<!-- Node17&#45;&gt;Node2 -->
<g id="edge20" class="edge">
<title>Node17&#45;&gt;Node2</title>
<path fill="none" stroke="midnightblue" d="M498.91,-118.16C450.9,-98.96 326.94,-49.37 266.97,-25.39"/>
<polygon fill="midnightblue" stroke="midnightblue" points="268.16,-22.09 257.57,-21.63 265.56,-28.59 268.16,-22.09"/>
</g>
<!-- Node17&#45;&gt;Node7 -->
<g id="edge22" class="edge">
<title>Node17&#45;&gt;Node7</title>
<path fill="none" stroke="midnightblue" d="M498.81,-123.37C437.78,-115.24 250.23,-90.23 155.1,-77.55"/>
<polygon fill="midnightblue" stroke="midnightblue" points="155.46,-74.06 145.08,-76.21 154.53,-81 155.46,-74.06"/>
</g>
<!-- Node17&#45;&gt;Node11 -->
<g id="edge23" class="edge">
<title>Node17&#45;&gt;Node11</title>
<path fill="none" stroke="midnightblue" d="M538.36,-122.41C586.47,-113.72 710.38,-91.34 779.7,-78.82"/>
<polygon fill="midnightblue" stroke="midnightblue" points="780.71,-82.19 789.93,-76.97 779.46,-75.3 780.71,-82.19"/>
</g>
<!-- Node17&#45;&gt;Node13 -->
<g id="edge21" class="edge">
<title>Node17&#45;&gt;Node13</title>
<path fill="none" stroke="midnightblue" d="M528.39,-116.28C548.17,-96.85 592.79,-52.99 617.4,-28.8"/>
<polygon fill="midnightblue" stroke="midnightblue" points="619.96,-31.2 624.63,-21.69 615.05,-26.21 619.96,-31.2"/>
</g>
<!-- Node18&#45;&gt;Node19 -->
<g id="edge26" class="edge">
<title>Node18&#45;&gt;Node19</title>
<path fill="none" stroke="midnightblue" d="M815.33,-580.25C818.27,-572.78 822.4,-562.24 825.99,-553.11"/>
<polygon fill="midnightblue" stroke="midnightblue" points="829.31,-554.23 829.71,-543.64 822.8,-551.67 829.31,-554.23"/>
</g>
<!-- Node19&#45;&gt;Node11 -->
<g id="edge27" class="edge">
<title>Node19&#45;&gt;Node11</title>
<path fill="none" stroke="midnightblue" d="M840.34,-522.45C861.5,-491.95 924.5,-393.47 924.5,-302 924.5,-302 924.5,-302 924.5,-184 924.5,-140.11 882.34,-104.33 853.9,-85.18"/>
<polygon fill="midnightblue" stroke="midnightblue" points="855.52,-82.06 845.22,-79.56 851.71,-87.93 855.52,-82.06"/>
</g>
<!-- Node19&#45;&gt;Node20 -->
<g id="edge28" class="edge">
<title>Node19&#45;&gt;Node20</title>
<path fill="none" stroke="midnightblue" d="M806.98,-526.93C755.18,-517.03 640.33,-495.08 579.71,-483.49"/>
<polygon fill="midnightblue" stroke="midnightblue" points="580.24,-480.03 569.76,-481.59 578.93,-486.91 580.24,-480.03"/>
</g>
<!-- Node20&#45;&gt;Node17 -->
<g id="edge30" class="edge">
<title>Node20&#45;&gt;Node17</title>
<path fill="none" stroke="midnightblue" d="M529.56,-464.46C520.29,-455.81 507.3,-442.27 499.5,-428 484.45,-400.47 480.5,-391.38 480.5,-360 480.5,-360 480.5,-360 480.5,-242 480.5,-206.9 496.91,-168.7 508.16,-146.63"/>
<polygon fill="midnightblue" stroke="midnightblue" points="511.31,-148.17 512.89,-137.7 505.12,-144.9 511.31,-148.17"/>
</g>
<!-- Node21 -->
<g id="node21" class="node">
<title>Node21</title>
<g id="a_node21"><a xlink:title=" ">
<polygon fill="white" stroke="#bfbfbf" points="508.5,-406.5 508.5,-427.5 570.5,-427.5 570.5,-406.5 508.5,-406.5"/>
<text text-anchor="middle" x="539.5" y="-413.9" font-family="DejaVuSans" font-size="12.00">setjmp.h</text>
</a>
</g>
</g>
<!-- Node20&#45;&gt;Node21 -->
<g id="edge29" class="edge">
<title>Node20&#45;&gt;Node21</title>
<path fill="none" stroke="midnightblue" d="M540.33,-464.25C540.2,-456.94 540.01,-446.69 539.85,-437.7"/>
<polygon fill="midnightblue" stroke="midnightblue" points="543.35,-437.58 539.67,-427.64 536.35,-437.7 543.35,-437.58"/>
</g>
<!-- Node20&#45;&gt;Node22 -->
<g id="edge31" class="edge">
<title>Node20&#45;&gt;Node22</title>
<path fill="none" stroke="midnightblue" d="M520.9,-464.37C502.77,-455.46 475.59,-442.11 455.04,-432.02"/>
<polygon fill="midnightblue" stroke="midnightblue" points="456.36,-428.77 445.84,-427.5 453.27,-435.05 456.36,-428.77"/>
</g>
<!-- Node22&#45;&gt;Node23 -->
<g id="edge32" class="edge">
<title>Node22&#45;&gt;Node23</title>
<path fill="none" stroke="midnightblue" d="M423.19,-406.25C420.66,-398.78 417.08,-388.24 413.99,-379.11"/>
<polygon fill="midnightblue" stroke="midnightblue" points="417.3,-377.99 410.77,-369.64 410.67,-380.24 417.3,-377.99"/>
</g>
<!-- Node23&#45;&gt;Node2 -->
<g id="edge33" class="edge">
<title>Node23&#45;&gt;Node2</title>
<path fill="none" stroke="midnightblue" d="M403.89,-348.29C389.48,-309.98 333.66,-166.18 268.5,-58 262.58,-48.18 254.97,-37.95 248.36,-29.65"/>
<polygon fill="midnightblue" stroke="midnightblue" points="250.98,-27.32 241.94,-21.78 245.55,-31.75 250.98,-27.32"/>
</g>
<!-- Node23&#45;&gt;Node14 -->
<g id="edge34" class="edge">
<title>Node23&#45;&gt;Node14</title>
<path fill="none" stroke="midnightblue" d="M433.59,-353.03C487.7,-342.72 611.94,-319.06 670.23,-307.96"/>
<polygon fill="midnightblue" stroke="midnightblue" points="671.15,-311.34 680.31,-306.04 669.84,-304.47 671.15,-311.34"/>
</g>
<!-- Node25&#45;&gt;Node2 -->
<g id="edge37" class="edge">
<title>Node25&#45;&gt;Node2</title>
<path fill="none" stroke="midnightblue" d="M265.64,-464.28C262.04,-444.66 254.5,-398.84 254.5,-360 254.5,-360 254.5,-360 254.5,-126 254.5,-92.28 245.5,-53.85 239.29,-31.34"/>
<polygon fill="midnightblue" stroke="midnightblue" points="242.63,-30.3 236.51,-21.65 235.9,-32.23 242.63,-30.3"/>
</g>
<!-- Node27&#45;&gt;Node2 -->
<g id="edge41" class="edge">
<title>Node27&#45;&gt;Node2</title>
<path fill="none" stroke="midnightblue" d="M159.79,-290.3C164.22,-270.72 173.5,-224.97 173.5,-186 173.5,-186 173.5,-186 173.5,-126 173.5,-88.26 199.57,-50.74 217.34,-29.55"/>
<polygon fill="midnightblue" stroke="midnightblue" points="220.2,-31.6 224.12,-21.76 214.92,-27 220.2,-31.6"/>
</g>
<!-- Node27&#45;&gt;Node7 -->
<g id="edge42" class="edge">
<title>Node27&#45;&gt;Node7</title>
<path fill="none" stroke="midnightblue" d="M155.04,-290.41C146.16,-255.78 115.62,-136.74 103.51,-89.52"/>
<polygon fill="midnightblue" stroke="midnightblue" points="106.85,-88.45 100.97,-79.63 100.07,-90.19 106.85,-88.45"/>
</g>
<!-- Node29&#45;&gt;Node27 -->
<g id="edge45" class="edge">
<title>Node29&#45;&gt;Node27</title>
<path fill="none" stroke="midnightblue" d="M186.92,-580.32C181.94,-560.76 171.5,-515.07 171.5,-476 171.5,-476 171.5,-476 171.5,-416 171.5,-382.74 165.56,-344.42 161.41,-321.76"/>
<polygon fill="midnightblue" stroke="midnightblue" points="164.81,-320.88 159.51,-311.71 157.93,-322.19 164.81,-320.88"/>
</g>
<!-- Node31&#45;&gt;Node11 -->
<g id="edge48" class="edge">
<title>Node31&#45;&gt;Node11</title>
<path fill="none" stroke="midnightblue" d="M752.9,-638.22C764.58,-590.27 815.78,-375.19 839.5,-196 844.17,-160.71 849.09,-151.16 843.5,-116 842.07,-107 839.16,-97.37 836.28,-89.26"/>
<polygon fill="midnightblue" stroke="midnightblue" points="839.45,-87.76 832.64,-79.65 832.91,-90.24 839.45,-87.76"/>
</g>
<!-- Node31&#45;&gt;Node14 -->
<g id="edge49" class="edge">
<title>Node31&#45;&gt;Node14</title>
<path fill="none" stroke="midnightblue" d="M744.89,-638.3C734.32,-619.07 712.5,-574.47 712.5,-534 712.5,-534 712.5,-534 712.5,-416 712.5,-382.83 707.83,-344.48 704.57,-321.79"/>
<polygon fill="midnightblue" stroke="midnightblue" points="708.01,-321.1 703.08,-311.73 701.09,-322.14 708.01,-321.1"/>
</g>
<!-- Node31&#45;&gt;Node17 -->
<g id="edge51" class="edge">
<title>Node31&#45;&gt;Node17</title>
<path fill="none" stroke="midnightblue" d="M738.29,-638.47C716.81,-620.53 674.5,-579.43 674.5,-534 674.5,-534 674.5,-534 674.5,-416 674.5,-300.61 576.48,-187.2 535.84,-145.13"/>
<polygon fill="midnightblue" stroke="midnightblue" points="538.24,-142.58 528.74,-137.9 533.25,-147.49 538.24,-142.58"/>
</g>
<!-- Node31&#45;&gt;Node18 -->
<g id="edge50" class="edge">
<title>Node31&#45;&gt;Node18</title>
<path fill="none" stroke="midnightblue" d="M761.13,-638.25C770.05,-630.05 782.99,-618.17 793.52,-608.51"/>
<polygon fill="midnightblue" stroke="midnightblue" points="796,-610.98 801,-601.64 791.26,-605.83 796,-610.98"/>
</g>
<!-- Node34&#45;&gt;Node14 -->
<g id="edge57" class="edge">
<title>Node34&#45;&gt;Node14</title>
<path fill="none" stroke="midnightblue" d="M633.78,-348.25C646.25,-339.73 664.55,-327.24 678.98,-317.38"/>
<polygon fill="midnightblue" stroke="midnightblue" points="681.1,-320.17 687.38,-311.64 677.15,-314.39 681.1,-320.17"/>
</g>
<!-- Node34&#45;&gt;Node17 -->
<g id="edge58" class="edge">
<title>Node34&#45;&gt;Node17</title>
<path fill="none" stroke="midnightblue" d="M615.29,-348.41C600.02,-313.63 547.37,-193.73 526.81,-146.93"/>
<polygon fill="midnightblue" stroke="midnightblue" points="529.95,-145.38 522.73,-137.63 523.55,-148.19 529.95,-145.38"/>
</g>
<!-- Node34&#45;&gt;Node27 -->
<g id="edge59" class="edge">
<title>Node34&#45;&gt;Node27</title>
<path fill="none" stroke="midnightblue" d="M592.66,-354.75C513.84,-345.19 282.95,-317.21 193.49,-306.36"/>
<polygon fill="midnightblue" stroke="midnightblue" points="193.9,-302.89 183.55,-305.16 193.05,-309.84 193.9,-302.89"/>
</g>
<!-- Node34&#45;&gt;Node35 -->
<g id="edge60" class="edge">
<title>Node34&#45;&gt;Node35</title>
<path fill="none" stroke="midnightblue" d="M646.3,-348.5C672.84,-339.09 713.61,-324.64 742.65,-314.35"/>
<polygon fill="midnightblue" stroke="midnightblue" points="744.14,-317.54 752.39,-310.9 741.8,-310.94 744.14,-317.54"/>
</g>
<!-- Node35&#45;&gt;Node11 -->
<g id="edge61" class="edge">
<title>Node35&#45;&gt;Node11</title>
<path fill="none" stroke="midnightblue" d="M786.51,-290.26C794.04,-281.48 804.36,-267.86 809.5,-254 830.58,-197.19 830.91,-124.18 829.62,-89.7"/>
<polygon fill="midnightblue" stroke="midnightblue" points="833.11,-89.39 829.15,-79.56 826.12,-89.71 833.11,-89.39"/>
</g>
<!-- Node35&#45;&gt;Node15 -->
<g id="edge62" class="edge">
<title>Node35&#45;&gt;Node15</title>
<path fill="none" stroke="midnightblue" d="M773.32,-290.25C770.12,-282.78 765.6,-272.24 761.69,-263.11"/>
<polygon fill="midnightblue" stroke="midnightblue" points="764.79,-261.46 757.63,-253.64 758.35,-264.21 764.79,-261.46"/>
</g>
<!-- Node36&#45;&gt;Node17 -->
<g id="edge67" class="edge">
<title>Node36&#45;&gt;Node17</title>
<path fill="none" stroke="midnightblue" d="M381.53,-522.16C373.57,-494.21 353.63,-412.19 372.5,-348 397.64,-262.5 468.8,-179.98 501.58,-145.23"/>
<polygon fill="midnightblue" stroke="midnightblue" points="504.29,-147.45 508.68,-137.81 499.24,-142.61 504.29,-147.45"/>
</g>
</g>
</svg>
