<?xml version="1.0" encoding="UTF-8" standalone="no"?>
<!DOCTYPE svg PUBLIC "-//W3C//DTD SVG 1.1//EN"
 "http://www.w3.org/Graphics/SVG/1.1/DTD/svg11.dtd">
<!-- Generated by graphviz version 2.44.0 ()
 -->
<!-- Title: tex.h Pages: 1 -->
<svg width="1538pt" height="494pt"
 viewBox="0.00 0.00 1537.50 494.00" xmlns="http://www.w3.org/2000/svg" xmlns:xlink="http://www.w3.org/1999/xlink">
<g id="graph0" class="graph" transform="scale(1 1) rotate(0) translate(4 490)">
<title>tex.h</title>
<polygon fill="white" stroke="transparent" points="-4,4 -4,-490 1533.5,-490 1533.5,4 -4,4"/>
<!-- Node1 -->
<g id="node1" class="node">
<title>Node1</title>
<g id="a_node1"><a xlink:title=" ">
<polygon fill="#bfbfbf" stroke="black" points="717,-464.5 717,-485.5 759,-485.5 759,-464.5 717,-464.5"/>
<text text-anchor="middle" x="738" y="-471.9" font-family="DejaVuSans" font-size="12.00">tex.h</text>
</a>
</g>
</g>
<!-- Node2 -->
<g id="node2" class="node">
<title>Node2</title>
<g id="a_node2"><a xlink:href="dviout_8c.html" target="_top" xlink:title=" ">
<polygon fill="white" stroke="black" points="0,-406.5 0,-427.5 58,-427.5 58,-406.5 0,-406.5"/>
<text text-anchor="middle" x="29" y="-413.9" font-family="DejaVuSans" font-size="12.00">dviout.c</text>
</a>
</g>
</g>
<!-- Node1&#45;&gt;Node2 -->
<g id="edge1" class="edge">
<title>Node1&#45;&gt;Node2</title>
<path fill="none" stroke="midnightblue" d="M706.73,-473.61C611.13,-472.03 314.53,-464.34 72,-428 67.45,-427.32 62.67,-426.41 58.02,-425.41"/>
<polygon fill="midnightblue" stroke="midnightblue" points="706.82,-477.11 716.87,-473.76 706.93,-470.11 706.82,-477.11"/>
</g>
<!-- Node3 -->
<g id="node3" class="node">
<title>Node3</title>
<g id="a_node3"><a xlink:href="expand_8c.html" target="_top" xlink:title=" ">
<polygon fill="white" stroke="black" points="1037.5,-58.5 1037.5,-79.5 1102.5,-79.5 1102.5,-58.5 1037.5,-58.5"/>
<text text-anchor="middle" x="1070" y="-65.9" font-family="DejaVuSans" font-size="12.00">expand.c</text>
</a>
</g>
</g>
<!-- Node1&#45;&gt;Node3 -->
<g id="edge2" class="edge">
<title>Node1&#45;&gt;Node3</title>
<path fill="none" stroke="midnightblue" d="M769.3,-474.55C889.66,-475.83 1316,-472.44 1316,-360 1316,-360 1316,-360 1316,-184 1316,-91.03 1169.58,-73.66 1102.67,-70.57"/>
<polygon fill="midnightblue" stroke="midnightblue" points="769.3,-471.05 759.26,-474.42 769.21,-478.05 769.3,-471.05"/>
</g>
<!-- Node4 -->
<g id="node4" class="node">
<title>Node4</title>
<g id="a_node4"><a xlink:href="fonts_8c.html" target="_top" xlink:title=" ">
<polygon fill="white" stroke="black" points="196.5,-58.5 196.5,-79.5 247.5,-79.5 247.5,-58.5 196.5,-58.5"/>
<text text-anchor="middle" x="222" y="-65.9" font-family="DejaVuSans" font-size="12.00">fonts.c</text>
</a>
</g>
</g>
<!-- Node1&#45;&gt;Node4 -->
<g id="edge3" class="edge">
<title>Node1&#45;&gt;Node4</title>
<path fill="none" stroke="midnightblue" d="M706.57,-471.88C576.35,-462.67 86,-423.78 86,-360 86,-360 86,-360 86,-184 86,-127 157.02,-92.85 196.42,-78.29"/>
<polygon fill="midnightblue" stroke="midnightblue" points="706.46,-475.38 716.68,-472.58 706.95,-468.4 706.46,-475.38"/>
</g>
<!-- Node5 -->
<g id="node5" class="node">
<title>Node5</title>
<g id="a_node5"><a xlink:href="funcs_8c.html" target="_top" xlink:title=" ">
<polygon fill="white" stroke="black" points="228,-232.5 228,-253.5 282,-253.5 282,-232.5 228,-232.5"/>
<text text-anchor="middle" x="255" y="-239.9" font-family="DejaVuSans" font-size="12.00">funcs.c</text>
</a>
</g>
</g>
<!-- Node1&#45;&gt;Node5 -->
<g id="edge4" class="edge">
<title>Node1&#45;&gt;Node5</title>
<path fill="none" stroke="midnightblue" d="M706.78,-472.45C635.05,-468.45 460.74,-456.05 410,-428 331.78,-384.75 276.02,-285.23 259.83,-253.74"/>
<polygon fill="midnightblue" stroke="midnightblue" points="706.82,-475.96 716.99,-473 707.19,-468.97 706.82,-475.96"/>
</g>
<!-- Node6 -->
<g id="node6" class="node">
<title>Node6</title>
<g id="a_node6"><a xlink:href="hash_8h.html" target="_top" xlink:title=" ">
<polygon fill="white" stroke="black" points="380.5,-116.5 380.5,-137.5 433.5,-137.5 433.5,-116.5 380.5,-116.5"/>
<text text-anchor="middle" x="407" y="-123.9" font-family="DejaVuSans" font-size="12.00">hash.h</text>
</a>
</g>
</g>
<!-- Node1&#45;&gt;Node6 -->
<g id="edge5" class="edge">
<title>Node1&#45;&gt;Node6</title>
<path fill="none" stroke="midnightblue" d="M706.63,-471.06C655.32,-465.72 550.59,-452.66 465,-428 335.96,-390.83 260.53,-423.71 186,-312 128.43,-225.72 309.84,-158.3 380.27,-135.95"/>
<polygon fill="midnightblue" stroke="midnightblue" points="706.44,-474.55 716.74,-472.08 707.15,-467.59 706.44,-474.55"/>
</g>
<!-- Node10 -->
<g id="node10" class="node">
<title>Node10</title>
<g id="a_node10"><a xlink:href="str_8c.html" target="_top" xlink:title=" ">
<polygon fill="white" stroke="black" points="1203,-58.5 1203,-79.5 1241,-79.5 1241,-58.5 1203,-58.5"/>
<text text-anchor="middle" x="1222" y="-65.9" font-family="DejaVuSans" font-size="12.00">str.c</text>
</a>
</g>
</g>
<!-- Node1&#45;&gt;Node10 -->
<g id="edge68" class="edge">
<title>Node1&#45;&gt;Node10</title>
<path fill="none" stroke="midnightblue" d="M769.16,-473.18C869.34,-470.26 1182.19,-458.84 1278,-428 1334.16,-409.92 1392,-419 1392,-360 1392,-360 1392,-360 1392,-184 1392,-112.04 1285.63,-82.59 1241.17,-73.43"/>
<polygon fill="midnightblue" stroke="midnightblue" points="768.98,-469.68 759.08,-473.47 769.17,-476.68 768.98,-469.68"/>
</g>
<!-- Node11 -->
<g id="node11" class="node">
<title>Node11</title>
<g id="a_node11"><a xlink:href="tex__header_8h.html" target="_top" xlink:title=" ">
<polygon fill="white" stroke="black" points="769,-58.5 769,-79.5 855,-79.5 855,-58.5 769,-58.5"/>
<text text-anchor="middle" x="812" y="-65.9" font-family="DejaVuSans" font-size="12.00">tex_header.h</text>
</a>
</g>
</g>
<!-- Node1&#45;&gt;Node11 -->
<g id="edge69" class="edge">
<title>Node1&#45;&gt;Node11</title>
<path fill="none" stroke="midnightblue" d="M727.66,-455.37C716.41,-433.3 700,-395.1 700,-360 700,-360 700,-360 700,-242 700,-204.05 777.53,-110.18 803.58,-79.72"/>
<polygon fill="midnightblue" stroke="midnightblue" points="724.62,-457.1 732.39,-464.3 730.81,-453.83 724.62,-457.1"/>
</g>
<!-- Node13 -->
<g id="node13" class="node">
<title>Node13</title>
<g id="a_node13"><a xlink:href="inputln_8c.html" target="_top" xlink:title=" ">
<polygon fill="white" stroke="black" points="998.5,-232.5 998.5,-253.5 1059.5,-253.5 1059.5,-232.5 998.5,-232.5"/>
<text text-anchor="middle" x="1029" y="-239.9" font-family="DejaVuSans" font-size="12.00">inputln.c</text>
</a>
</g>
</g>
<!-- Node1&#45;&gt;Node13 -->
<g id="edge14" class="edge">
<title>Node1&#45;&gt;Node13</title>
<path fill="none" stroke="midnightblue" d="M769.49,-471.02C824.42,-464.03 937.21,-441.31 993,-370 1021.32,-333.81 1027.36,-276.28 1028.65,-253.62"/>
<polygon fill="midnightblue" stroke="midnightblue" points="768.83,-467.58 759.31,-472.22 769.65,-474.53 768.83,-467.58"/>
</g>
<!-- Node14 -->
<g id="node14" class="node">
<title>Node14</title>
<g id="a_node14"><a xlink:href="lexer_8h.html" target="_top" xlink:title=" ">
<polygon fill="white" stroke="black" points="831,-406.5 831,-427.5 883,-427.5 883,-406.5 831,-406.5"/>
<text text-anchor="middle" x="857" y="-413.9" font-family="DejaVuSans" font-size="12.00">lexer.h</text>
</a>
</g>
</g>
<!-- Node1&#45;&gt;Node14 -->
<g id="edge15" class="edge">
<title>Node1&#45;&gt;Node14</title>
<path fill="none" stroke="midnightblue" d="M767.51,-460.11C789.09,-449.96 817.8,-436.45 836.81,-427.5"/>
<polygon fill="midnightblue" stroke="midnightblue" points="766.01,-456.95 758.46,-464.37 769,-463.28 766.01,-456.95"/>
</g>
<!-- Node20 -->
<g id="node20" class="node">
<title>Node20</title>
<g id="a_node20"><a xlink:href="scan_8c.html" target="_top" xlink:title=" ">
<polygon fill="white" stroke="black" points="970.5,-116.5 970.5,-137.5 1021.5,-137.5 1021.5,-116.5 970.5,-116.5"/>
<text text-anchor="middle" x="996" y="-123.9" font-family="DejaVuSans" font-size="12.00">scan.c</text>
</a>
</g>
</g>
<!-- Node1&#45;&gt;Node20 -->
<g id="edge67" class="edge">
<title>Node1&#45;&gt;Node20</title>
<path fill="none" stroke="midnightblue" d="M754.7,-456.62C794.57,-414.52 896.96,-302.64 964,-196 976.36,-176.34 987,-151.14 992.34,-137.62"/>
<polygon fill="midnightblue" stroke="midnightblue" points="751.95,-454.43 747.59,-464.09 757.02,-459.26 751.95,-454.43"/>
</g>
<!-- Node22 -->
<g id="node22" class="node">
<title>Node22</title>
<g id="a_node22"><a xlink:href="print_8h.html" target="_top" xlink:title=" ">
<polygon fill="white" stroke="black" points="604,-116.5 604,-137.5 654,-137.5 654,-116.5 604,-116.5"/>
<text text-anchor="middle" x="629" y="-123.9" font-family="DejaVuSans" font-size="12.00">print.h</text>
</a>
</g>
</g>
<!-- Node1&#45;&gt;Node22 -->
<g id="edge65" class="edge">
<title>Node1&#45;&gt;Node22</title>
<path fill="none" stroke="midnightblue" d="M707.02,-469.53C627.8,-457.24 424,-419.8 424,-360 424,-360 424,-360 424,-242 424,-160.55 549.12,-136.79 603.86,-130.29"/>
<polygon fill="midnightblue" stroke="midnightblue" points="706.5,-472.99 716.91,-471.04 707.55,-466.07 706.5,-472.99"/>
</g>
<!-- Node24 -->
<g id="node24" class="node">
<title>Node24</title>
<g id="a_node24"><a xlink:href="printout_8c.html" target="_top" xlink:title=" ">
<polygon fill="white" stroke="black" points="1300.5,-58.5 1300.5,-79.5 1365.5,-79.5 1365.5,-58.5 1300.5,-58.5"/>
<text text-anchor="middle" x="1333" y="-65.9" font-family="DejaVuSans" font-size="12.00">printout.c</text>
</a>
</g>
</g>
<!-- Node1&#45;&gt;Node24 -->
<g id="edge66" class="edge">
<title>Node1&#45;&gt;Node24</title>
<path fill="none" stroke="midnightblue" d="M769.27,-473.77C876.5,-472.65 1228.55,-466.1 1334,-428 1383.18,-410.24 1430,-412.29 1430,-360 1430,-360 1430,-360 1430,-184 1430,-135.15 1377.69,-96.56 1349.9,-79.52"/>
<polygon fill="midnightblue" stroke="midnightblue" points="769.07,-470.27 759.1,-473.87 769.14,-477.27 769.07,-470.27"/>
</g>
<!-- Node25 -->
<g id="node25" class="node">
<title>Node25</title>
<g id="a_node25"><a xlink:href="pool__init_8c.html" target="_top" xlink:title=" ">
<polygon fill="white" stroke="black" points="1458.5,-406.5 1458.5,-427.5 1529.5,-427.5 1529.5,-406.5 1458.5,-406.5"/>
<text text-anchor="middle" x="1494" y="-413.9" font-family="DejaVuSans" font-size="12.00">pool_init.c</text>
</a>
</g>
</g>
<!-- Node1&#45;&gt;Node25 -->
<g id="edge64" class="edge">
<title>Node1&#45;&gt;Node25</title>
<path fill="none" stroke="midnightblue" d="M769.43,-473.43C868.79,-471.33 1184.9,-462.2 1444,-428 1448.65,-427.39 1453.52,-426.6 1458.32,-425.73"/>
<polygon fill="midnightblue" stroke="midnightblue" points="769.11,-469.94 759.18,-473.64 769.25,-476.94 769.11,-469.94"/>
</g>
<!-- Node6&#45;&gt;Node3 -->
<g id="edge7" class="edge">
<title>Node6&#45;&gt;Node3</title>
<path fill="none" stroke="midnightblue" d="M444.1,-122.87C561.79,-112.93 925.56,-82.2 1037.13,-72.78"/>
<polygon fill="midnightblue" stroke="midnightblue" points="443.48,-119.41 433.81,-123.74 444.07,-126.38 443.48,-119.41"/>
</g>
<!-- Node6&#45;&gt;Node4 -->
<g id="edge8" class="edge">
<title>Node6&#45;&gt;Node4</title>
<path fill="none" stroke="midnightblue" d="M370.79,-115.04C334.49,-104.05 279.54,-87.42 247.56,-77.74"/>
<polygon fill="midnightblue" stroke="midnightblue" points="369.91,-118.43 380.49,-117.98 371.94,-111.73 369.91,-118.43"/>
</g>
<!-- Node7 -->
<g id="node7" class="node">
<title>Node7</title>
<g id="a_node7"><a xlink:href="eqtb_8c.html" target="_top" xlink:title=" ">
<polygon fill="white" stroke="black" points="389.5,-58.5 389.5,-79.5 438.5,-79.5 438.5,-58.5 389.5,-58.5"/>
<text text-anchor="middle" x="414" y="-65.9" font-family="DejaVuSans" font-size="12.00">eqtb.c</text>
</a>
</g>
</g>
<!-- Node6&#45;&gt;Node7 -->
<g id="edge6" class="edge">
<title>Node6&#45;&gt;Node7</title>
<path fill="none" stroke="midnightblue" d="M409.48,-106.16C410.61,-97.16 411.89,-86.92 412.79,-79.64"/>
<polygon fill="midnightblue" stroke="midnightblue" points="405.99,-105.89 408.22,-116.25 412.93,-106.76 405.99,-105.89"/>
</g>
<!-- Node8 -->
<g id="node8" class="node">
<title>Node8</title>
<g id="a_node8"><a xlink:href="hash_8c.html" target="_top" xlink:title=" ">
<polygon fill="white" stroke="black" points="474,-58.5 474,-79.5 526,-79.5 526,-58.5 474,-58.5"/>
<text text-anchor="middle" x="500" y="-65.9" font-family="DejaVuSans" font-size="12.00">hash.c</text>
</a>
</g>
</g>
<!-- Node6&#45;&gt;Node8 -->
<g id="edge9" class="edge">
<title>Node6&#45;&gt;Node8</title>
<path fill="none" stroke="midnightblue" d="M431.83,-111.05C448.38,-101.08 469.64,-88.28 483.99,-79.64"/>
<polygon fill="midnightblue" stroke="midnightblue" points="429.96,-108.09 423.2,-116.25 433.57,-114.09 429.96,-108.09"/>
</g>
<!-- Node9 -->
<g id="node9" class="node">
<title>Node9</title>
<g id="a_node9"><a xlink:href="lexer_8c.html" target="_top" xlink:title=" ">
<polygon fill="white" stroke="black" points="320.5,-58.5 320.5,-79.5 371.5,-79.5 371.5,-58.5 320.5,-58.5"/>
<text text-anchor="middle" x="346" y="-65.9" font-family="DejaVuSans" font-size="12.00">lexer.c</text>
</a>
</g>
</g>
<!-- Node6&#45;&gt;Node9 -->
<g id="edge10" class="edge">
<title>Node6&#45;&gt;Node9</title>
<path fill="none" stroke="midnightblue" d="M388.88,-109.36C378.32,-99.67 365.39,-87.8 356.5,-79.64"/>
<polygon fill="midnightblue" stroke="midnightblue" points="386.64,-112.06 396.37,-116.25 391.38,-106.9 386.64,-112.06"/>
</g>
<!-- Node6&#45;&gt;Node10 -->
<g id="edge11" class="edge">
<title>Node6&#45;&gt;Node10</title>
<path fill="none" stroke="midnightblue" d="M443.62,-123.94C548.05,-118 856.34,-99.96 1112,-80 1143.93,-77.51 1181.01,-74.01 1202.94,-71.88"/>
<polygon fill="midnightblue" stroke="midnightblue" points="443.37,-120.45 433.59,-124.51 443.77,-127.44 443.37,-120.45"/>
</g>
<!-- Node6&#45;&gt;Node11 -->
<g id="edge12" class="edge">
<title>Node6&#45;&gt;Node11</title>
<path fill="none" stroke="midnightblue" d="M443.93,-120.89C518.96,-110.52 688.84,-87.03 768.83,-75.97"/>
<polygon fill="midnightblue" stroke="midnightblue" points="443,-117.49 433.57,-122.33 443.96,-124.42 443,-117.49"/>
</g>
<!-- Node12 -->
<g id="node12" class="node">
<title>Node12</title>
<g id="a_node12"><a xlink:href="tex_8c.html" target="_top" xlink:title=" ">
<polygon fill="white" stroke="black" points="791.5,-0.5 791.5,-21.5 832.5,-21.5 832.5,-0.5 791.5,-0.5"/>
<text text-anchor="middle" x="812" y="-7.9" font-family="DejaVuSans" font-size="12.00">tex.c</text>
</a>
</g>
</g>
<!-- Node11&#45;&gt;Node12 -->
<g id="edge13" class="edge">
<title>Node11&#45;&gt;Node12</title>
<path fill="none" stroke="midnightblue" d="M812,-48.16C812,-39.16 812,-28.92 812,-21.64"/>
<polygon fill="midnightblue" stroke="midnightblue" points="808.5,-48.25 812,-58.25 815.5,-48.25 808.5,-48.25"/>
</g>
<!-- Node14&#45;&gt;Node3 -->
<g id="edge16" class="edge">
<title>Node14&#45;&gt;Node3</title>
<path fill="none" stroke="midnightblue" d="M893.15,-413.97C995.18,-407.24 1278,-381.44 1278,-302 1278,-302 1278,-302 1278,-184 1278,-105.14 1161.61,-80.47 1102.96,-73.05"/>
<polygon fill="midnightblue" stroke="midnightblue" points="892.78,-410.48 883.02,-414.61 893.22,-417.47 892.78,-410.48"/>
</g>
<!-- Node14&#45;&gt;Node4 -->
<g id="edge17" class="edge">
<title>Node14&#45;&gt;Node4</title>
<path fill="none" stroke="midnightblue" d="M820.57,-414.23C672.54,-406.55 124,-373.3 124,-302 124,-302 124,-302 124,-184 124,-135.19 176.29,-96.86 204.48,-79.74"/>
<polygon fill="midnightblue" stroke="midnightblue" points="820.75,-417.74 830.91,-414.76 821.1,-410.75 820.75,-417.74"/>
</g>
<!-- Node14&#45;&gt;Node9 -->
<g id="edge19" class="edge">
<title>Node14&#45;&gt;Node9</title>
<path fill="none" stroke="midnightblue" d="M820.8,-414.4C683.14,-407.36 200,-373.42 200,-244 200,-244 200,-244 200,-184 200,-123.7 278.32,-90.58 320.23,-77.17"/>
<polygon fill="midnightblue" stroke="midnightblue" points="820.68,-417.9 830.84,-414.9 821.02,-410.91 820.68,-417.9"/>
</g>
<!-- Node14&#45;&gt;Node11 -->
<g id="edge63" class="edge">
<title>Node14&#45;&gt;Node11</title>
<path fill="none" stroke="midnightblue" d="M893.4,-416.5C980.13,-415.87 1189.66,-402.82 1161,-290 1138.98,-203.34 1134.44,-165.53 1060,-116 1027.05,-94.08 917,-80.18 855.15,-73.9"/>
<polygon fill="midnightblue" stroke="midnightblue" points="893.21,-413 883.22,-416.52 893.22,-420 893.21,-413"/>
</g>
<!-- Node14&#45;&gt;Node13 -->
<g id="edge18" class="edge">
<title>Node14&#45;&gt;Node13</title>
<path fill="none" stroke="midnightblue" d="M873.4,-398.88C886.68,-385.06 905.93,-365.16 923,-348 957.91,-312.9 1000.08,-271.95 1018.98,-253.67"/>
<polygon fill="midnightblue" stroke="midnightblue" points="870.73,-396.6 866.33,-406.24 875.78,-401.45 870.73,-396.6"/>
</g>
<!-- Node15 -->
<g id="node15" class="node">
<title>Node15</title>
<g id="a_node15"><a xlink:href="mem_8c.html" target="_top" xlink:title=" ">
<polygon fill="white" stroke="black" points="786,-116.5 786,-137.5 838,-137.5 838,-116.5 786,-116.5"/>
<text text-anchor="middle" x="812" y="-123.9" font-family="DejaVuSans" font-size="12.00">mem.c</text>
</a>
</g>
</g>
<!-- Node14&#45;&gt;Node15 -->
<g id="edge20" class="edge">
<title>Node14&#45;&gt;Node15</title>
<path fill="none" stroke="midnightblue" d="M846.55,-397.03C830.92,-367.5 802.12,-308.29 791,-254 783.86,-219.17 782.13,-208.68 790,-174 793.02,-160.7 800.36,-146.76 805.74,-137.76"/>
<polygon fill="midnightblue" stroke="midnightblue" points="843.65,-399.03 851.48,-406.18 849.82,-395.71 843.65,-399.03"/>
</g>
<!-- Node16 -->
<g id="node16" class="node">
<title>Node16</title>
<g id="a_node16"><a xlink:href="scan_8h.html" target="_top" xlink:title=" ">
<polygon fill="white" stroke="black" points="932,-348.5 932,-369.5 984,-369.5 984,-348.5 932,-348.5"/>
<text text-anchor="middle" x="958" y="-355.9" font-family="DejaVuSans" font-size="12.00">scan.h</text>
</a>
</g>
</g>
<!-- Node14&#45;&gt;Node16 -->
<g id="edge21" class="edge">
<title>Node14&#45;&gt;Node16</title>
<path fill="none" stroke="midnightblue" d="M883.47,-401.32C901.51,-391.32 924.89,-378.36 940.61,-369.64"/>
<polygon fill="midnightblue" stroke="midnightblue" points="881.64,-398.34 874.59,-406.25 885.04,-404.46 881.64,-398.34"/>
</g>
<!-- Node16&#45;&gt;Node3 -->
<g id="edge22" class="edge">
<title>Node16&#45;&gt;Node3</title>
<path fill="none" stroke="midnightblue" d="M994.04,-348.95C1046.99,-335.64 1139.66,-312.32 1140,-312 1163.25,-290.3 1190.45,-203.27 1178,-174 1159.25,-129.93 1111.66,-95.48 1086.38,-79.59"/>
<polygon fill="midnightblue" stroke="midnightblue" points="992.86,-345.64 984.01,-351.47 994.57,-352.42 992.86,-345.64"/>
</g>
<!-- Node16&#45;&gt;Node8 -->
<g id="edge59" class="edge">
<title>Node16&#45;&gt;Node8</title>
<path fill="none" stroke="midnightblue" d="M921.67,-355.64C833.24,-349.6 612.08,-332.58 586,-312 509.18,-251.37 500.87,-116.8 500.06,-79.66"/>
<polygon fill="midnightblue" stroke="midnightblue" points="921.57,-359.14 931.78,-356.32 922.04,-352.16 921.57,-359.14"/>
</g>
<!-- Node16&#45;&gt;Node11 -->
<g id="edge62" class="edge">
<title>Node16&#45;&gt;Node11</title>
<path fill="none" stroke="midnightblue" d="M993.91,-345.36C1011.93,-337.73 1033.23,-326.63 1049,-312 1095.16,-269.18 1104.45,-232.43 1081,-174 1046.6,-88.26 922.06,-72.09 855.18,-69.74"/>
<polygon fill="midnightblue" stroke="midnightblue" points="992.25,-342.26 984.28,-349.25 994.87,-348.75 992.25,-342.26"/>
</g>
<!-- Node17 -->
<g id="node17" class="node">
<title>Node17</title>
<g id="a_node17"><a xlink:href="global_8h.html" target="_top" xlink:title=" ">
<polygon fill="white" stroke="black" points="595,-290.5 595,-311.5 653,-311.5 653,-290.5 595,-290.5"/>
<text text-anchor="middle" x="624" y="-297.9" font-family="DejaVuSans" font-size="12.00">global.h</text>
</a>
</g>
</g>
<!-- Node16&#45;&gt;Node17 -->
<g id="edge23" class="edge">
<title>Node16&#45;&gt;Node17</title>
<path fill="none" stroke="midnightblue" d="M921.76,-351.92C855.16,-340.76 714.51,-317.18 653.39,-306.93"/>
<polygon fill="midnightblue" stroke="midnightblue" points="921.35,-355.4 931.79,-353.61 922.51,-348.5 921.35,-355.4"/>
</g>
<!-- Node16&#45;&gt;Node20 -->
<g id="edge61" class="edge">
<title>Node16&#45;&gt;Node20</title>
<path fill="none" stroke="midnightblue" d="M983.83,-342.89C1010.86,-325.4 1051.73,-293.84 1069,-254 1075.77,-238.39 1074.4,-191.7 1064,-174 1054.11,-157.16 1035.33,-145.17 1020.01,-137.66"/>
<polygon fill="midnightblue" stroke="midnightblue" points="981.86,-339.99 975.24,-348.27 985.57,-345.92 981.86,-339.99"/>
</g>
<!-- Node16&#45;&gt;Node24 -->
<g id="edge60" class="edge">
<title>Node16&#45;&gt;Node24</title>
<path fill="none" stroke="midnightblue" d="M994.18,-348.91C995.47,-348.6 996.75,-348.3 998,-348 1070.22,-331 1099.15,-352.98 1161,-312 1255.32,-249.51 1314.35,-116.27 1329.26,-79.54"/>
<polygon fill="midnightblue" stroke="midnightblue" points="993.11,-345.57 984.22,-351.33 994.77,-352.37 993.11,-345.57"/>
</g>
<!-- Node17&#45;&gt;Node3 -->
<g id="edge26" class="edge">
<title>Node17&#45;&gt;Node3</title>
<path fill="none" stroke="midnightblue" d="M663.13,-298.31C716.87,-294.89 815.75,-284.63 894,-254 975.45,-222.11 1006.39,-212.02 1053,-138 1064.67,-119.46 1068.33,-93.38 1069.48,-79.52"/>
<polygon fill="midnightblue" stroke="midnightblue" points="662.78,-294.83 653.01,-298.91 663.2,-301.81 662.78,-294.83"/>
</g>
<!-- Node17&#45;&gt;Node4 -->
<g id="edge27" class="edge">
<title>Node17&#45;&gt;Node4</title>
<path fill="none" stroke="midnightblue" d="M584.64,-296.98C542.55,-292.43 474.87,-281.21 423,-254 333.76,-207.19 253.87,-110.9 229.55,-79.87"/>
<polygon fill="midnightblue" stroke="midnightblue" points="584.46,-300.48 594.76,-298 585.17,-293.52 584.46,-300.48"/>
</g>
<!-- Node17&#45;&gt;Node5 -->
<g id="edge28" class="edge">
<title>Node17&#45;&gt;Node5</title>
<path fill="none" stroke="midnightblue" d="M584.72,-294.04C509.5,-282.62 346.85,-257.94 282.25,-248.14"/>
<polygon fill="midnightblue" stroke="midnightblue" points="584.32,-297.52 594.74,-295.56 585.38,-290.6 584.32,-297.52"/>
</g>
<!-- Node17&#45;&gt;Node7 -->
<g id="edge24" class="edge">
<title>Node17&#45;&gt;Node7</title>
<path fill="none" stroke="midnightblue" d="M585.26,-288.35C526.69,-268.38 417.59,-221.5 372,-138 360.36,-116.69 384.26,-92.74 400.55,-79.71"/>
<polygon fill="midnightblue" stroke="midnightblue" points="584.3,-291.72 594.9,-291.54 586.51,-285.07 584.3,-291.72"/>
</g>
<!-- Node17&#45;&gt;Node8 -->
<g id="edge29" class="edge">
<title>Node17&#45;&gt;Node8</title>
<path fill="none" stroke="midnightblue" d="M613.98,-281.42C588.89,-234.88 524.02,-114.55 505.19,-79.63"/>
<polygon fill="midnightblue" stroke="midnightblue" points="611,-283.27 618.83,-290.41 617.16,-279.95 611,-283.27"/>
</g>
<!-- Node17&#45;&gt;Node9 -->
<g id="edge31" class="edge">
<title>Node17&#45;&gt;Node9</title>
<path fill="none" stroke="midnightblue" d="M584.62,-293.14C551.41,-286.31 503.3,-273.93 465,-254 428.55,-235.03 418.78,-228 393,-196 363.41,-159.27 351.25,-102.06 347.44,-79.55"/>
<polygon fill="midnightblue" stroke="midnightblue" points="584.36,-296.66 594.85,-295.16 585.72,-289.79 584.36,-296.66"/>
</g>
<!-- Node17&#45;&gt;Node11 -->
<g id="edge58" class="edge">
<title>Node17&#45;&gt;Node11</title>
<path fill="none" stroke="midnightblue" d="M633.25,-280.79C649.69,-246.7 682.61,-178.74 686,-174 707.22,-144.36 715.89,-139.21 744,-116 760.82,-102.12 781.82,-88.4 796,-79.61"/>
<polygon fill="midnightblue" stroke="midnightblue" points="629.92,-279.65 628.73,-290.17 636.22,-282.68 629.92,-279.65"/>
</g>
<!-- Node17&#45;&gt;Node13 -->
<g id="edge30" class="edge">
<title>Node17&#45;&gt;Node13</title>
<path fill="none" stroke="midnightblue" d="M663.34,-294.56C743.89,-283.42 926.08,-258.23 998.49,-248.22"/>
<polygon fill="midnightblue" stroke="midnightblue" points="662.55,-291.14 653.13,-295.97 663.51,-298.07 662.55,-291.14"/>
</g>
<!-- Node18 -->
<g id="node18" class="node">
<title>Node18</title>
<g id="a_node18"><a xlink:href="error_8c.html" target="_top" xlink:title=" ">
<polygon fill="white" stroke="black" points="556,-58.5 556,-79.5 606,-79.5 606,-58.5 556,-58.5"/>
<text text-anchor="middle" x="581" y="-65.9" font-family="DejaVuSans" font-size="12.00">error.c</text>
</a>
</g>
</g>
<!-- Node17&#45;&gt;Node18 -->
<g id="edge25" class="edge">
<title>Node17&#45;&gt;Node18</title>
<path fill="none" stroke="midnightblue" d="M617.43,-280.57C614.85,-272.43 612.03,-262.82 610,-254 594.86,-188.13 585.11,-107.17 582.04,-79.67"/>
<polygon fill="midnightblue" stroke="midnightblue" points="614.16,-281.82 620.6,-290.24 620.81,-279.64 614.16,-281.82"/>
</g>
<!-- Node19 -->
<g id="node19" class="node">
<title>Node19</title>
<g id="a_node19"><a xlink:href="mem_8h.html" target="_top" xlink:title=" ">
<polygon fill="white" stroke="black" points="799.5,-232.5 799.5,-253.5 852.5,-253.5 852.5,-232.5 799.5,-232.5"/>
<text text-anchor="middle" x="826" y="-239.9" font-family="DejaVuSans" font-size="12.00">mem.h</text>
</a>
</g>
</g>
<!-- Node17&#45;&gt;Node19 -->
<g id="edge32" class="edge">
<title>Node17&#45;&gt;Node19</title>
<path fill="none" stroke="midnightblue" d="M663.1,-289.16C703.26,-278.03 764.67,-261 799.49,-251.35"/>
<polygon fill="midnightblue" stroke="midnightblue" points="662.07,-285.81 653.37,-291.86 663.94,-292.56 662.07,-285.81"/>
</g>
<!-- Node17&#45;&gt;Node20 -->
<g id="edge57" class="edge">
<title>Node17&#45;&gt;Node20</title>
<path fill="none" stroke="midnightblue" d="M663.15,-297.78C711.66,-293.85 795.99,-283.1 862,-254 922.19,-227.47 972.28,-162.05 989.55,-137.51"/>
<polygon fill="midnightblue" stroke="midnightblue" points="662.78,-294.3 653.07,-298.54 663.31,-301.28 662.78,-294.3"/>
</g>
<!-- Node23 -->
<g id="node23" class="node">
<title>Node23</title>
<g id="a_node23"><a xlink:href="print_8c.html" target="_top" xlink:title=" ">
<polygon fill="white" stroke="black" points="646.5,-58.5 646.5,-79.5 695.5,-79.5 695.5,-58.5 646.5,-58.5"/>
<text text-anchor="middle" x="671" y="-65.9" font-family="DejaVuSans" font-size="12.00">print.c</text>
</a>
</g>
</g>
<!-- Node17&#45;&gt;Node23 -->
<g id="edge56" class="edge">
<title>Node17&#45;&gt;Node23</title>
<path fill="none" stroke="midnightblue" d="M626.47,-280.3C629.9,-255.25 636.96,-210.81 648,-174 652.98,-157.4 658.61,-154.77 663,-138 668.3,-117.76 670.09,-93.21 670.7,-79.84"/>
<polygon fill="midnightblue" stroke="midnightblue" points="622.98,-279.98 625.15,-290.35 629.92,-280.9 622.98,-279.98"/>
</g>
<!-- Node19&#45;&gt;Node3 -->
<g id="edge33" class="edge">
<title>Node19&#45;&gt;Node3</title>
<path fill="none" stroke="midnightblue" d="M862.43,-231.79C907.37,-217.53 983.61,-187.66 1031,-138 1047.91,-120.28 1060.32,-93.86 1066.2,-79.74"/>
<polygon fill="midnightblue" stroke="midnightblue" points="861.32,-228.47 852.8,-234.76 863.38,-235.16 861.32,-228.47"/>
</g>
<!-- Node19&#45;&gt;Node4 -->
<g id="edge34" class="edge">
<title>Node19&#45;&gt;Node4</title>
<path fill="none" stroke="midnightblue" d="M789.08,-238.94C730.21,-233.52 611.76,-220.45 514,-196 439.81,-177.44 422.05,-168.69 352,-138 310.01,-119.6 262.8,-93.46 238.47,-79.56"/>
<polygon fill="midnightblue" stroke="midnightblue" points="789.09,-242.45 799.36,-239.86 789.71,-235.48 789.09,-242.45"/>
</g>
<!-- Node19&#45;&gt;Node9 -->
<g id="edge35" class="edge">
<title>Node19&#45;&gt;Node9</title>
<path fill="none" stroke="midnightblue" d="M789.19,-234.05C682.48,-210.94 380.04,-144.99 372,-138 354.64,-122.91 348.82,-94.91 346.91,-79.98"/>
<polygon fill="midnightblue" stroke="midnightblue" points="788.66,-237.52 799.18,-236.21 790.15,-230.68 788.66,-237.52"/>
</g>
<!-- Node19&#45;&gt;Node11 -->
<g id="edge38" class="edge">
<title>Node19&#45;&gt;Node11</title>
<path fill="none" stroke="midnightblue" d="M851.93,-226.6C862.39,-218.86 873.31,-208.47 879,-196 883.06,-187.1 880.39,-183.68 879,-174 875.18,-147.41 876.18,-138.81 862,-116 852.79,-101.17 837.51,-88.12 826.27,-79.74"/>
<polygon fill="midnightblue" stroke="midnightblue" points="849.65,-223.92 843.38,-232.46 853.6,-229.69 849.65,-223.92"/>
</g>
<!-- Node19&#45;&gt;Node15 -->
<g id="edge36" class="edge">
<title>Node19&#45;&gt;Node15</title>
<path fill="none" stroke="midnightblue" d="M811.03,-224.34C805.12,-216.25 799.03,-206.2 796,-196 789.92,-175.54 799.76,-151.07 806.51,-137.78"/>
<polygon fill="midnightblue" stroke="midnightblue" points="808.3,-226.54 817.21,-232.27 813.82,-222.23 808.3,-226.54"/>
</g>
<!-- Node19&#45;&gt;Node20 -->
<g id="edge37" class="edge">
<title>Node19&#45;&gt;Node20</title>
<path fill="none" stroke="midnightblue" d="M855.83,-227.8C872.76,-219.31 894.07,-207.9 912,-196 939.99,-177.43 969.9,-151.58 985.37,-137.72"/>
<polygon fill="midnightblue" stroke="midnightblue" points="853.85,-224.87 846.43,-232.44 856.95,-231.15 853.85,-224.87"/>
</g>
<!-- Node21 -->
<g id="node21" class="node">
<title>Node21</title>
<g id="a_node21"><a xlink:href="texmac_8h.html" target="_top" xlink:title=" ">
<polygon fill="white" stroke="black" points="804.5,-174.5 804.5,-195.5 869.5,-195.5 869.5,-174.5 804.5,-174.5"/>
<text text-anchor="middle" x="837" y="-181.9" font-family="DejaVuSans" font-size="12.00">texmac.h</text>
</a>
</g>
</g>
<!-- Node19&#45;&gt;Node21 -->
<g id="edge39" class="edge">
<title>Node19&#45;&gt;Node21</title>
<path fill="none" stroke="midnightblue" d="M829.9,-222.16C831.67,-213.16 833.68,-202.92 835.11,-195.64"/>
<polygon fill="midnightblue" stroke="midnightblue" points="826.41,-221.76 827.92,-232.25 833.28,-223.11 826.41,-221.76"/>
</g>
<!-- Node21&#45;&gt;Node3 -->
<g id="edge40" class="edge">
<title>Node21&#45;&gt;Node3</title>
<path fill="none" stroke="midnightblue" d="M862.14,-169.4C887.12,-155.11 926.7,-133.07 962,-116 990.25,-102.34 1023.6,-88.47 1045.68,-79.58"/>
<polygon fill="midnightblue" stroke="midnightblue" points="860.24,-166.45 853.32,-174.47 863.73,-172.52 860.24,-166.45"/>
</g>
<!-- Node21&#45;&gt;Node8 -->
<g id="edge41" class="edge">
<title>Node21&#45;&gt;Node8</title>
<path fill="none" stroke="midnightblue" d="M794.33,-181.46C744.68,-177.26 661.07,-166.29 595,-138 560.69,-123.31 526.62,-94.61 510.18,-79.63"/>
<polygon fill="midnightblue" stroke="midnightblue" points="794.14,-184.95 804.39,-182.26 794.7,-177.98 794.14,-184.95"/>
</g>
<!-- Node21&#45;&gt;Node11 -->
<g id="edge55" class="edge">
<title>Node21&#45;&gt;Node11</title>
<path fill="none" stroke="midnightblue" d="M844.56,-164.59C848.83,-150.75 852.35,-131.86 847,-116 842.19,-101.74 831,-88.4 822.56,-79.79"/>
<polygon fill="midnightblue" stroke="midnightblue" points="841.25,-163.46 841.29,-174.06 847.87,-165.75 841.25,-163.46"/>
</g>
<!-- Node21&#45;&gt;Node15 -->
<g id="edge42" class="edge">
<title>Node21&#45;&gt;Node15</title>
<path fill="none" stroke="midnightblue" d="M828.54,-165.04C824.43,-155.83 819.66,-145.16 816.3,-137.64"/>
<polygon fill="midnightblue" stroke="midnightblue" points="825.37,-166.54 832.65,-174.25 831.76,-163.69 825.37,-166.54"/>
</g>
<!-- Node21&#45;&gt;Node20 -->
<g id="edge54" class="edge">
<title>Node21&#45;&gt;Node20</title>
<path fill="none" stroke="midnightblue" d="M873.9,-171C903.48,-160.59 944.22,-146.24 970.34,-137.04"/>
<polygon fill="midnightblue" stroke="midnightblue" points="872.6,-167.75 864.33,-174.37 874.93,-174.35 872.6,-167.75"/>
</g>
<!-- Node21&#45;&gt;Node22 -->
<g id="edge43" class="edge">
<title>Node21&#45;&gt;Node22</title>
<path fill="none" stroke="midnightblue" d="M794.33,-172.51C752.16,-161.16 689.06,-144.17 654.28,-134.81"/>
<polygon fill="midnightblue" stroke="midnightblue" points="793.48,-175.91 804.04,-175.13 795.3,-169.15 793.48,-175.91"/>
</g>
<!-- Node21&#45;&gt;Node24 -->
<g id="edge53" class="edge">
<title>Node21&#45;&gt;Node24</title>
<path fill="none" stroke="midnightblue" d="M879.31,-174.28C976.38,-151.97 1213.4,-97.49 1300.34,-77.51"/>
<polygon fill="midnightblue" stroke="midnightblue" points="878.51,-170.87 869.54,-176.52 880.07,-177.69 878.51,-170.87"/>
</g>
<!-- Node22&#45;&gt;Node3 -->
<g id="edge46" class="edge">
<title>Node22&#45;&gt;Node3</title>
<path fill="none" stroke="midnightblue" d="M664.3,-121.52C747.78,-110.92 956.39,-84.43 1037.25,-74.16"/>
<polygon fill="midnightblue" stroke="midnightblue" points="663.77,-118.06 654.29,-122.79 664.66,-125 663.77,-118.06"/>
</g>
<!-- Node22&#45;&gt;Node4 -->
<g id="edge47" class="edge">
<title>Node22&#45;&gt;Node4</title>
<path fill="none" stroke="midnightblue" d="M593.72,-121.15C513.24,-110.07 317.59,-83.15 247.51,-73.51"/>
<polygon fill="midnightblue" stroke="midnightblue" points="593.46,-124.64 603.85,-122.54 594.42,-117.71 593.46,-124.64"/>
</g>
<!-- Node22&#45;&gt;Node7 -->
<g id="edge44" class="edge">
<title>Node22&#45;&gt;Node7</title>
<path fill="none" stroke="midnightblue" d="M594.02,-116.89C550.35,-105.51 476.75,-86.34 438.59,-76.41"/>
<polygon fill="midnightblue" stroke="midnightblue" points="593.36,-120.33 603.92,-119.47 595.12,-113.56 593.36,-120.33"/>
</g>
<!-- Node22&#45;&gt;Node8 -->
<g id="edge48" class="edge">
<title>Node22&#45;&gt;Node8</title>
<path fill="none" stroke="midnightblue" d="M597.63,-112.38C574.17,-102.2 542.68,-88.53 521.89,-79.5"/>
<polygon fill="midnightblue" stroke="midnightblue" points="596.26,-115.6 606.82,-116.37 599.04,-109.18 596.26,-115.6"/>
</g>
<!-- Node22&#45;&gt;Node9 -->
<g id="edge49" class="edge">
<title>Node22&#45;&gt;Node9</title>
<path fill="none" stroke="midnightblue" d="M593.91,-120.57C545.66,-112.86 456.26,-97.69 381,-80 377.92,-79.28 374.71,-78.46 371.54,-77.6"/>
<polygon fill="midnightblue" stroke="midnightblue" points="593.42,-124.03 603.84,-122.14 594.51,-117.12 593.42,-124.03"/>
</g>
<!-- Node22&#45;&gt;Node11 -->
<g id="edge52" class="edge">
<title>Node22&#45;&gt;Node11</title>
<path fill="none" stroke="midnightblue" d="M663.96,-115.3C697.73,-104.97 748.39,-89.47 780.82,-79.54"/>
<polygon fill="midnightblue" stroke="midnightblue" points="662.6,-112.06 654.06,-118.33 664.65,-118.75 662.6,-112.06"/>
</g>
<!-- Node22&#45;&gt;Node18 -->
<g id="edge45" class="edge">
<title>Node22&#45;&gt;Node18</title>
<path fill="none" stroke="midnightblue" d="M614,-108.5C605.84,-98.98 596.05,-87.56 589.27,-79.64"/>
<polygon fill="midnightblue" stroke="midnightblue" points="611.47,-110.93 620.64,-116.25 616.79,-106.38 611.47,-110.93"/>
</g>
<!-- Node22&#45;&gt;Node23 -->
<g id="edge50" class="edge">
<title>Node22&#45;&gt;Node23</title>
<path fill="none" stroke="midnightblue" d="M642.34,-108.21C649.44,-98.75 657.89,-87.48 663.77,-79.64"/>
<polygon fill="midnightblue" stroke="midnightblue" points="639.52,-106.15 636.32,-116.25 645.12,-110.35 639.52,-106.15"/>
</g>
<!-- Node22&#45;&gt;Node24 -->
<g id="edge51" class="edge">
<title>Node22&#45;&gt;Node24</title>
<path fill="none" stroke="midnightblue" d="M664.6,-123.58C778.77,-115.78 1134.95,-91.19 1250,-80 1266.61,-78.38 1285.05,-76.2 1300.32,-74.29"/>
<polygon fill="midnightblue" stroke="midnightblue" points="664.06,-120.11 654.32,-124.28 664.54,-127.09 664.06,-120.11"/>
</g>
</g>
</svg>
