<?xml version="1.0" encoding="UTF-8" standalone="no"?>
<!DOCTYPE svg PUBLIC "-//W3C//DTD SVG 1.1//EN"
 "http://www.w3.org/Graphics/SVG/1.1/DTD/svg11.dtd">
<!-- Generated by graphviz version 2.44.0 ()
 -->
<!-- Title: tex_header.h Pages: 1 -->
<svg width="1554pt" height="378pt"
 viewBox="0.00 0.00 1554.00 378.00" xmlns="http://www.w3.org/2000/svg" xmlns:xlink="http://www.w3.org/1999/xlink">
<g id="graph0" class="graph" transform="scale(1 1) rotate(0) translate(4 374)">
<title>tex_header.h</title>
<polygon fill="white" stroke="transparent" points="-4,4 -4,-374 1550,-374 1550,4 -4,4"/>
<!-- Node1 -->
<g id="node1" class="node">
<title>Node1</title>
<g id="a_node1"><a xlink:title=" ">
<polygon fill="#bfbfbf" stroke="black" points="607.5,-348.5 607.5,-369.5 693.5,-369.5 693.5,-348.5 607.5,-348.5"/>
<text text-anchor="middle" x="650.5" y="-355.9" font-family="DejaVuSans" font-size="12.00">tex_header.h</text>
</a>
</g>
</g>
<!-- Node2 -->
<g id="node2" class="node">
<title>Node2</title>
<g id="a_node2"><a xlink:title=" ">
<polygon fill="white" stroke="#bfbfbf" points="231.5,-116.5 231.5,-137.5 283.5,-137.5 283.5,-116.5 231.5,-116.5"/>
<text text-anchor="middle" x="257.5" y="-123.9" font-family="DejaVuSans" font-size="12.00">stdio.h</text>
</a>
</g>
</g>
<!-- Node1&#45;&gt;Node2 -->
<g id="edge1" class="edge">
<title>Node1&#45;&gt;Node2</title>
<path fill="none" stroke="midnightblue" d="M607.32,-358.04C524.89,-357.22 349.41,-350.83 305.5,-312 293.02,-300.96 270.37,-192.9 261.35,-147.71"/>
<polygon fill="midnightblue" stroke="midnightblue" points="264.74,-146.8 259.37,-137.67 257.88,-148.16 264.74,-146.8"/>
</g>
<!-- Node3 -->
<g id="node3" class="node">
<title>Node3</title>
<g id="a_node3"><a xlink:title=" ">
<polygon fill="white" stroke="#bfbfbf" points="770,-290.5 770,-311.5 829,-311.5 829,-290.5 770,-290.5"/>
<text text-anchor="middle" x="799.5" y="-297.9" font-family="DejaVuSans" font-size="12.00">stdarg.h</text>
</a>
</g>
</g>
<!-- Node1&#45;&gt;Node3 -->
<g id="edge2" class="edge">
<title>Node1&#45;&gt;Node3</title>
<path fill="none" stroke="midnightblue" d="M676.11,-348.37C700.57,-339.18 737.61,-325.26 764.72,-315.07"/>
<polygon fill="midnightblue" stroke="midnightblue" points="766.09,-318.3 774.22,-311.5 763.63,-311.74 766.09,-318.3"/>
</g>
<!-- Node4 -->
<g id="node4" class="node">
<title>Node4</title>
<g id="a_node4"><a xlink:title=" ">
<polygon fill="white" stroke="#bfbfbf" points="847.5,-290.5 847.5,-311.5 901.5,-311.5 901.5,-290.5 847.5,-290.5"/>
<text text-anchor="middle" x="874.5" y="-297.9" font-family="DejaVuSans" font-size="12.00">stdlib.h</text>
</a>
</g>
</g>
<!-- Node1&#45;&gt;Node4 -->
<g id="edge3" class="edge">
<title>Node1&#45;&gt;Node4</title>
<path fill="none" stroke="midnightblue" d="M690.93,-348.49C726.98,-339.93 781.42,-326.78 837.63,-312.17"/>
<polygon fill="midnightblue" stroke="midnightblue" points="838.61,-315.54 847.4,-309.63 836.84,-308.76 838.61,-315.54"/>
</g>
<!-- Node5 -->
<g id="node5" class="node">
<title>Node5</title>
<g id="a_node5"><a xlink:title=" ">
<polygon fill="white" stroke="#bfbfbf" points="919.5,-290.5 919.5,-311.5 975.5,-311.5 975.5,-290.5 919.5,-290.5"/>
<text text-anchor="middle" x="947.5" y="-297.9" font-family="DejaVuSans" font-size="12.00">string.h</text>
</a>
</g>
</g>
<!-- Node1&#45;&gt;Node5 -->
<g id="edge4" class="edge">
<title>Node1&#45;&gt;Node5</title>
<path fill="none" stroke="midnightblue" d="M693.52,-351.59C743.25,-343.91 827.74,-330.06 909.35,-312.11"/>
<polygon fill="midnightblue" stroke="midnightblue" points="910.28,-315.49 919.28,-309.9 908.76,-308.66 910.28,-315.49"/>
</g>
<!-- Node6 -->
<g id="node6" class="node">
<title>Node6</title>
<g id="a_node6"><a xlink:title=" ">
<polygon fill="white" stroke="#bfbfbf" points="994,-290.5 994,-311.5 1047,-311.5 1047,-290.5 994,-290.5"/>
<text text-anchor="middle" x="1020.5" y="-297.9" font-family="DejaVuSans" font-size="12.00">math.h</text>
</a>
</g>
</g>
<!-- Node1&#45;&gt;Node6 -->
<g id="edge5" class="edge">
<title>Node1&#45;&gt;Node6</title>
<path fill="none" stroke="midnightblue" d="M693.52,-353.94C755.56,-347.68 873.84,-334.21 983.92,-311.88"/>
<polygon fill="midnightblue" stroke="midnightblue" points="984.77,-315.27 993.86,-309.83 983.36,-308.42 984.77,-315.27"/>
</g>
<!-- Node7 -->
<g id="node7" class="node">
<title>Node7</title>
<g id="a_node7"><a xlink:href="global__const_8h.html" target="_top" xlink:title=" ">
<polygon fill="white" stroke="black" points="52,-174.5 52,-195.5 145,-195.5 145,-174.5 52,-174.5"/>
<text text-anchor="middle" x="98.5" y="-181.9" font-family="DejaVuSans" font-size="12.00">global_const.h</text>
</a>
</g>
</g>
<!-- Node1&#45;&gt;Node7 -->
<g id="edge6" class="edge">
<title>Node1&#45;&gt;Node7</title>
<path fill="none" stroke="midnightblue" d="M607.16,-356.8C490.42,-353.19 175.72,-340.87 139.5,-312 107.09,-286.16 99.99,-234.28 98.63,-205.81"/>
<polygon fill="midnightblue" stroke="midnightblue" points="102.12,-205.41 98.34,-195.51 95.12,-205.6 102.12,-205.41"/>
</g>
<!-- Node9 -->
<g id="node9" class="node">
<title>Node9</title>
<g id="a_node9"><a xlink:href="tex__inc_8h.html" target="_top" xlink:title=" ">
<polygon fill="white" stroke="black" points="0,-232.5 0,-253.5 65,-253.5 65,-232.5 0,-232.5"/>
<text text-anchor="middle" x="32.5" y="-239.9" font-family="DejaVuSans" font-size="12.00">tex_inc.h</text>
</a>
</g>
</g>
<!-- Node1&#45;&gt;Node9 -->
<g id="edge9" class="edge">
<title>Node1&#45;&gt;Node9</title>
<path fill="none" stroke="midnightblue" d="M607.1,-356.64C481.68,-352.4 124.84,-338.15 79.5,-312 60.74,-301.18 47.76,-279.48 40.27,-263.49"/>
<polygon fill="midnightblue" stroke="midnightblue" points="43.33,-261.75 36.13,-253.98 36.91,-264.55 43.33,-261.75"/>
</g>
<!-- Node10 -->
<g id="node10" class="node">
<title>Node10</title>
<g id="a_node10"><a xlink:href="texmath_8h.html" target="_top" xlink:title=" ">
<polygon fill="white" stroke="black" points="539.5,-174.5 539.5,-195.5 607.5,-195.5 607.5,-174.5 539.5,-174.5"/>
<text text-anchor="middle" x="573.5" y="-181.9" font-family="DejaVuSans" font-size="12.00">texmath.h</text>
</a>
</g>
</g>
<!-- Node1&#45;&gt;Node10 -->
<g id="edge11" class="edge">
<title>Node1&#45;&gt;Node10</title>
<path fill="none" stroke="midnightblue" d="M641.99,-348.36C634.46,-339.44 623.6,-325.55 616.5,-312 597.81,-276.33 584.64,-230.86 578.14,-205.44"/>
<polygon fill="midnightblue" stroke="midnightblue" points="581.5,-204.44 575.69,-195.57 574.7,-206.12 581.5,-204.44"/>
</g>
<!-- Node14 -->
<g id="node14" class="node">
<title>Node14</title>
<g id="a_node14"><a xlink:href="tex_8h.html" target="_top" xlink:title=" ">
<polygon fill="white" stroke="black" points="663.5,-116.5 663.5,-137.5 705.5,-137.5 705.5,-116.5 663.5,-116.5"/>
<text text-anchor="middle" x="684.5" y="-123.9" font-family="DejaVuSans" font-size="12.00">tex.h</text>
</a>
</g>
</g>
<!-- Node1&#45;&gt;Node14 -->
<g id="edge15" class="edge">
<title>Node1&#45;&gt;Node14</title>
<path fill="none" stroke="midnightblue" d="M670.97,-348.41C700.69,-333.2 754.62,-300.44 776.5,-254 797.27,-209.92 743.4,-165.56 709.55,-143.09"/>
<polygon fill="midnightblue" stroke="midnightblue" points="711.33,-140.07 701.02,-137.61 707.54,-145.96 711.33,-140.07"/>
</g>
<!-- Node16 -->
<g id="node16" class="node">
<title>Node16</title>
<g id="a_node16"><a xlink:href="str_8h.html" target="_top" xlink:title=" ">
<polygon fill="white" stroke="black" points="342,-232.5 342,-253.5 381,-253.5 381,-232.5 342,-232.5"/>
<text text-anchor="middle" x="361.5" y="-239.9" font-family="DejaVuSans" font-size="12.00">str.h</text>
</a>
</g>
</g>
<!-- Node1&#45;&gt;Node16 -->
<g id="edge18" class="edge">
<title>Node1&#45;&gt;Node16</title>
<path fill="none" stroke="midnightblue" d="M607.44,-356.71C560.31,-353.65 483.82,-343.71 426.5,-312 404.52,-299.84 385.49,-277.75 373.8,-262.04"/>
<polygon fill="midnightblue" stroke="midnightblue" points="376.46,-259.75 367.79,-253.66 370.77,-263.83 376.46,-259.75"/>
</g>
<!-- Node17 -->
<g id="node17" class="node">
<title>Node17</title>
<g id="a_node17"><a xlink:href="texmac_8h.html" target="_top" xlink:title=" ">
<polygon fill="white" stroke="black" points="702,-232.5 702,-253.5 767,-253.5 767,-232.5 702,-232.5"/>
<text text-anchor="middle" x="734.5" y="-239.9" font-family="DejaVuSans" font-size="12.00">texmac.h</text>
</a>
</g>
</g>
<!-- Node1&#45;&gt;Node17 -->
<g id="edge23" class="edge">
<title>Node1&#45;&gt;Node17</title>
<path fill="none" stroke="midnightblue" d="M657.54,-348.49C664.42,-339.19 675.19,-324.63 684.5,-312 697.05,-294.97 711.35,-275.52 721.43,-261.8"/>
<polygon fill="midnightblue" stroke="midnightblue" points="724.29,-263.82 727.39,-253.69 718.65,-259.68 724.29,-263.82"/>
</g>
<!-- Node18 -->
<g id="node18" class="node">
<title>Node18</title>
<g id="a_node18"><a xlink:href="macros_8h.html" target="_top" xlink:title=" ">
<polygon fill="white" stroke="black" points="1065,-290.5 1065,-311.5 1130,-311.5 1130,-290.5 1065,-290.5"/>
<text text-anchor="middle" x="1097.5" y="-297.9" font-family="DejaVuSans" font-size="12.00">macros.h</text>
</a>
</g>
</g>
<!-- Node1&#45;&gt;Node18 -->
<g id="edge24" class="edge">
<title>Node1&#45;&gt;Node18</title>
<path fill="none" stroke="midnightblue" d="M693.72,-354.91C766.39,-349.32 917.75,-335.99 1054.66,-312.15"/>
<polygon fill="midnightblue" stroke="midnightblue" points="1055.67,-315.53 1064.91,-310.34 1054.45,-308.64 1055.67,-315.53"/>
</g>
<!-- Node19 -->
<g id="node19" class="node">
<title>Node19</title>
<g id="a_node19"><a xlink:href="funcs_8h.html" target="_top" xlink:title=" ">
<polygon fill="white" stroke="black" points="202,-174.5 202,-195.5 257,-195.5 257,-174.5 202,-174.5"/>
<text text-anchor="middle" x="229.5" y="-181.9" font-family="DejaVuSans" font-size="12.00">funcs.h</text>
</a>
</g>
</g>
<!-- Node1&#45;&gt;Node19 -->
<g id="edge25" class="edge">
<title>Node1&#45;&gt;Node19</title>
<path fill="none" stroke="midnightblue" d="M607.44,-358.38C519.24,-358.28 322.06,-353.3 271.5,-312 239.48,-285.85 231.71,-234.52 229.93,-206.11"/>
<polygon fill="midnightblue" stroke="midnightblue" points="233.41,-205.64 229.49,-195.8 226.42,-205.94 233.41,-205.64"/>
</g>
<!-- Node20 -->
<g id="node20" class="node">
<title>Node20</title>
<g id="a_node20"><a xlink:href="global_8h.html" target="_top" xlink:title=" ">
<polygon fill="white" stroke="black" points="435.5,-290.5 435.5,-311.5 493.5,-311.5 493.5,-290.5 435.5,-290.5"/>
<text text-anchor="middle" x="464.5" y="-297.9" font-family="DejaVuSans" font-size="12.00">global.h</text>
</a>
</g>
</g>
<!-- Node1&#45;&gt;Node20 -->
<g id="edge27" class="edge">
<title>Node1&#45;&gt;Node20</title>
<path fill="none" stroke="midnightblue" d="M618.53,-348.37C586.57,-338.75 537.41,-323.95 503.26,-313.67"/>
<polygon fill="midnightblue" stroke="midnightblue" points="504.2,-310.3 493.61,-310.76 502.18,-317 504.2,-310.3"/>
</g>
<!-- Node22 -->
<g id="node22" class="node">
<title>Node22</title>
<g id="a_node22"><a xlink:href="scan_8h.html" target="_top" xlink:title=" ">
<polygon fill="white" stroke="black" points="479.5,-232.5 479.5,-253.5 531.5,-253.5 531.5,-232.5 479.5,-232.5"/>
<text text-anchor="middle" x="505.5" y="-239.9" font-family="DejaVuSans" font-size="12.00">scan.h</text>
</a>
</g>
</g>
<!-- Node1&#45;&gt;Node22 -->
<g id="edge49" class="edge">
<title>Node1&#45;&gt;Node22</title>
<path fill="none" stroke="midnightblue" d="M614.29,-348.35C592.45,-341.13 565.15,-329.44 545.5,-312 530.35,-298.55 519.36,-277.95 512.77,-262.95"/>
<polygon fill="midnightblue" stroke="midnightblue" points="515.97,-261.52 508.92,-253.61 509.5,-264.19 515.97,-261.52"/>
</g>
<!-- Node23 -->
<g id="node23" class="node">
<title>Node23</title>
<g id="a_node23"><a xlink:href="lexer_8h.html" target="_top" xlink:title=" ">
<polygon fill="white" stroke="black" points="469.5,-174.5 469.5,-195.5 521.5,-195.5 521.5,-174.5 469.5,-174.5"/>
<text text-anchor="middle" x="495.5" y="-181.9" font-family="DejaVuSans" font-size="12.00">lexer.h</text>
</a>
</g>
</g>
<!-- Node1&#45;&gt;Node23 -->
<g id="edge47" class="edge">
<title>Node1&#45;&gt;Node23</title>
<path fill="none" stroke="midnightblue" d="M639.38,-348.2C629.35,-339.17 614.39,-325.21 602.5,-312 572.4,-278.57 570.06,-265.91 540.5,-232 531.73,-221.94 521.35,-211.25 512.77,-202.72"/>
<polygon fill="midnightblue" stroke="midnightblue" points="515.08,-200.08 505.49,-195.56 510.17,-205.07 515.08,-200.08"/>
</g>
<!-- Node24 -->
<g id="node24" class="node">
<title>Node24</title>
<g id="a_node24"><a xlink:href="printout_8h.html" target="_top" xlink:title=" ">
<polygon fill="white" stroke="black" points="1148.5,-290.5 1148.5,-311.5 1214.5,-311.5 1214.5,-290.5 1148.5,-290.5"/>
<text text-anchor="middle" x="1181.5" y="-297.9" font-family="DejaVuSans" font-size="12.00">printout.h</text>
</a>
</g>
</g>
<!-- Node1&#45;&gt;Node24 -->
<g id="edge34" class="edge">
<title>Node1&#45;&gt;Node24</title>
<path fill="none" stroke="midnightblue" d="M693.6,-355.98C777.44,-351.6 968.43,-339.49 1138.01,-312.05"/>
<polygon fill="midnightblue" stroke="midnightblue" points="1138.81,-315.47 1148.11,-310.39 1137.68,-308.56 1138.81,-315.47"/>
</g>
<!-- Node25 -->
<g id="node25" class="node">
<title>Node25</title>
<g id="a_node25"><a xlink:href="fonts_8h.html" target="_top" xlink:title=" ">
<polygon fill="white" stroke="black" points="134.5,-232.5 134.5,-253.5 186.5,-253.5 186.5,-232.5 134.5,-232.5"/>
<text text-anchor="middle" x="160.5" y="-239.9" font-family="DejaVuSans" font-size="12.00">fonts.h</text>
</a>
</g>
</g>
<!-- Node1&#45;&gt;Node25 -->
<g id="edge35" class="edge">
<title>Node1&#45;&gt;Node25</title>
<path fill="none" stroke="midnightblue" d="M607.16,-357.28C491.29,-354.9 181.01,-345.45 150.5,-312 138.61,-298.96 143.79,-278.3 150.29,-263.17"/>
<polygon fill="midnightblue" stroke="midnightblue" points="153.64,-264.27 154.81,-253.74 147.33,-261.25 153.64,-264.27"/>
</g>
<!-- Node26 -->
<g id="node26" class="node">
<title>Node26</title>
<g id="a_node26"><a xlink:href="inputln_8h.html" target="_top" xlink:title=" ">
<polygon fill="white" stroke="black" points="1232.5,-290.5 1232.5,-311.5 1294.5,-311.5 1294.5,-290.5 1232.5,-290.5"/>
<text text-anchor="middle" x="1263.5" y="-297.9" font-family="DejaVuSans" font-size="12.00">inputln.h</text>
</a>
</g>
</g>
<!-- Node1&#45;&gt;Node26 -->
<g id="edge38" class="edge">
<title>Node1&#45;&gt;Node26</title>
<path fill="none" stroke="midnightblue" d="M693.56,-356.96C787.84,-354.18 1019.64,-344.5 1222.23,-311.97"/>
<polygon fill="midnightblue" stroke="midnightblue" points="1222.85,-315.42 1232.16,-310.35 1221.73,-308.51 1222.85,-315.42"/>
</g>
<!-- Node27 -->
<g id="node27" class="node">
<title>Node27</title>
<g id="a_node27"><a xlink:href="dviout_8h.html" target="_top" xlink:title=" ">
<polygon fill="white" stroke="black" points="160,-290.5 160,-311.5 219,-311.5 219,-290.5 160,-290.5"/>
<text text-anchor="middle" x="189.5" y="-297.9" font-family="DejaVuSans" font-size="12.00">dviout.h</text>
</a>
</g>
</g>
<!-- Node1&#45;&gt;Node27 -->
<g id="edge39" class="edge">
<title>Node1&#45;&gt;Node27</title>
<path fill="none" stroke="midnightblue" d="M607.36,-354.87C531.42,-348.99 369.07,-334.81 233.5,-312 232.05,-311.76 230.58,-311.49 229.09,-311.22"/>
<polygon fill="midnightblue" stroke="midnightblue" points="229.72,-307.78 219.23,-309.24 228.35,-314.64 229.72,-307.78"/>
</g>
<!-- Node28 -->
<g id="node28" class="node">
<title>Node28</title>
<g id="a_node28"><a xlink:href="pure__func_8h.html" target="_top" xlink:title=" ">
<polygon fill="white" stroke="black" points="1312.5,-290.5 1312.5,-311.5 1392.5,-311.5 1392.5,-290.5 1312.5,-290.5"/>
<text text-anchor="middle" x="1352.5" y="-297.9" font-family="DejaVuSans" font-size="12.00">pure_func.h</text>
</a>
</g>
</g>
<!-- Node1&#45;&gt;Node28 -->
<g id="edge41" class="edge">
<title>Node1&#45;&gt;Node28</title>
<path fill="none" stroke="midnightblue" d="M693.87,-356.91C797.44,-353.88 1067.41,-343.5 1302.36,-311.99"/>
<polygon fill="midnightblue" stroke="midnightblue" points="1303.02,-315.43 1312.46,-310.62 1302.08,-308.49 1303.02,-315.43"/>
</g>
<!-- Node29 -->
<g id="node29" class="node">
<title>Node29</title>
<g id="a_node29"><a xlink:href="print_8h.html" target="_top" xlink:title=" ">
<polygon fill="white" stroke="black" points="625.5,-290.5 625.5,-311.5 675.5,-311.5 675.5,-290.5 625.5,-290.5"/>
<text text-anchor="middle" x="650.5" y="-297.9" font-family="DejaVuSans" font-size="12.00">print.h</text>
</a>
</g>
</g>
<!-- Node1&#45;&gt;Node29 -->
<g id="edge42" class="edge">
<title>Node1&#45;&gt;Node29</title>
<path fill="none" stroke="midnightblue" d="M650.5,-348.25C650.5,-340.94 650.5,-330.69 650.5,-321.7"/>
<polygon fill="midnightblue" stroke="midnightblue" points="654,-321.64 650.5,-311.64 647,-321.64 654,-321.64"/>
</g>
<!-- Node30 -->
<g id="node30" class="node">
<title>Node30</title>
<g id="a_node30"><a xlink:href="expand_8h.html" target="_top" xlink:title=" ">
<polygon fill="white" stroke="black" points="1410.5,-290.5 1410.5,-311.5 1476.5,-311.5 1476.5,-290.5 1410.5,-290.5"/>
<text text-anchor="middle" x="1443.5" y="-297.9" font-family="DejaVuSans" font-size="12.00">expand.h</text>
</a>
</g>
</g>
<!-- Node1&#45;&gt;Node30 -->
<g id="edge48" class="edge">
<title>Node1&#45;&gt;Node30</title>
<path fill="none" stroke="midnightblue" d="M693.53,-357.95C807.47,-357.28 1126.45,-351.82 1400.01,-311.99"/>
<polygon fill="midnightblue" stroke="midnightblue" points="1400.75,-315.42 1410.13,-310.49 1399.73,-308.49 1400.75,-315.42"/>
</g>
<!-- Node31 -->
<g id="node31" class="node">
<title>Node31</title>
<g id="a_node31"><a xlink:href="error_8h.html" target="_top" xlink:title=" ">
<polygon fill="white" stroke="black" points="1495,-290.5 1495,-311.5 1546,-311.5 1546,-290.5 1495,-290.5"/>
<text text-anchor="middle" x="1520.5" y="-297.9" font-family="DejaVuSans" font-size="12.00">error.h</text>
</a>
</g>
</g>
<!-- Node1&#45;&gt;Node31 -->
<g id="edge50" class="edge">
<title>Node1&#45;&gt;Node31</title>
<path fill="none" stroke="midnightblue" d="M693.7,-356.89C839.27,-352.97 1311.83,-338.6 1484.69,-311.7"/>
<polygon fill="midnightblue" stroke="midnightblue" points="1485.35,-315.14 1494.65,-310.08 1484.22,-308.23 1485.35,-315.14"/>
</g>
<!-- Node32 -->
<g id="node32" class="node">
<title>Node32</title>
<g id="a_node32"><a xlink:href="texfunc_8h.html" target="_top" xlink:title=" ">
<polygon fill="white" stroke="black" points="314,-290.5 314,-311.5 379,-311.5 379,-290.5 314,-290.5"/>
<text text-anchor="middle" x="346.5" y="-297.9" font-family="DejaVuSans" font-size="12.00">texfunc.h</text>
</a>
</g>
</g>
<!-- Node1&#45;&gt;Node32 -->
<g id="edge51" class="edge">
<title>Node1&#45;&gt;Node32</title>
<path fill="none" stroke="midnightblue" d="M607.22,-350.7C556.08,-341.96 468.45,-326.68 393.5,-312 392.04,-311.71 390.56,-311.42 389.06,-311.12"/>
<polygon fill="midnightblue" stroke="midnightblue" points="389.59,-307.65 379.09,-309.08 388.18,-314.51 389.59,-307.65"/>
</g>
<!-- Node7&#45;&gt;Node2 -->
<g id="edge8" class="edge">
<title>Node7&#45;&gt;Node2</title>
<path fill="none" stroke="midnightblue" d="M125.83,-174.37C152.28,-165.06 192.52,-150.89 221.55,-140.66"/>
<polygon fill="midnightblue" stroke="midnightblue" points="223.05,-143.85 231.31,-137.22 220.72,-137.24 223.05,-143.85"/>
</g>
<!-- Node8 -->
<g id="node8" class="node">
<title>Node8</title>
<g id="a_node8"><a xlink:title=" ">
<polygon fill="white" stroke="#bfbfbf" points="69,-116.5 69,-137.5 128,-137.5 128,-116.5 69,-116.5"/>
<text text-anchor="middle" x="98.5" y="-123.9" font-family="DejaVuSans" font-size="12.00">assert.h</text>
</a>
</g>
</g>
<!-- Node7&#45;&gt;Node8 -->
<g id="edge7" class="edge">
<title>Node7&#45;&gt;Node8</title>
<path fill="none" stroke="midnightblue" d="M98.5,-174.25C98.5,-166.94 98.5,-156.69 98.5,-147.7"/>
<polygon fill="midnightblue" stroke="midnightblue" points="102,-147.64 98.5,-137.64 95,-147.64 102,-147.64"/>
</g>
<!-- Node9&#45;&gt;Node7 -->
<g id="edge10" class="edge">
<title>Node9&#45;&gt;Node7</title>
<path fill="none" stroke="midnightblue" d="M44,-232.25C53.74,-223.97 67.93,-211.94 79.38,-202.22"/>
<polygon fill="midnightblue" stroke="midnightblue" points="81.77,-204.78 87.14,-195.64 77.25,-199.44 81.77,-204.78"/>
</g>
<!-- Node11 -->
<g id="node11" class="node">
<title>Node11</title>
<g id="a_node11"><a xlink:href="tex__types_8h.html" target="_top" xlink:title=" ">
<polygon fill="white" stroke="black" points="535,-58.5 535,-79.5 612,-79.5 612,-58.5 535,-58.5"/>
<text text-anchor="middle" x="573.5" y="-65.9" font-family="DejaVuSans" font-size="12.00">tex_types.h</text>
</a>
</g>
</g>
<!-- Node10&#45;&gt;Node11 -->
<g id="edge12" class="edge">
<title>Node10&#45;&gt;Node11</title>
<path fill="none" stroke="midnightblue" d="M573.5,-174.28C573.5,-155.6 573.5,-114.37 573.5,-89.72"/>
<polygon fill="midnightblue" stroke="midnightblue" points="577,-89.69 573.5,-79.69 570,-89.7 577,-89.69"/>
</g>
<!-- Node12 -->
<g id="node12" class="node">
<title>Node12</title>
<g id="a_node12"><a xlink:title=" ">
<polygon fill="white" stroke="#bfbfbf" points="541,-0.5 541,-21.5 606,-21.5 606,-0.5 541,-0.5"/>
<text text-anchor="middle" x="573.5" y="-7.9" font-family="DejaVuSans" font-size="12.00">stdbool.h</text>
</a>
</g>
</g>
<!-- Node11&#45;&gt;Node12 -->
<g id="edge13" class="edge">
<title>Node11&#45;&gt;Node12</title>
<path fill="none" stroke="midnightblue" d="M573.5,-58.25C573.5,-50.94 573.5,-40.69 573.5,-31.7"/>
<polygon fill="midnightblue" stroke="midnightblue" points="577,-31.64 573.5,-21.64 570,-31.64 577,-31.64"/>
</g>
<!-- Node13 -->
<g id="node13" class="node">
<title>Node13</title>
<g id="a_node13"><a xlink:title=" ">
<polygon fill="white" stroke="#bfbfbf" points="414,-0.5 414,-21.5 469,-21.5 469,-0.5 414,-0.5"/>
<text text-anchor="middle" x="441.5" y="-7.9" font-family="DejaVuSans" font-size="12.00">stdint.h</text>
</a>
</g>
</g>
<!-- Node11&#45;&gt;Node13 -->
<g id="edge14" class="edge">
<title>Node11&#45;&gt;Node13</title>
<path fill="none" stroke="midnightblue" d="M550.81,-58.37C529.43,-49.3 497.19,-35.63 473.26,-25.48"/>
<polygon fill="midnightblue" stroke="midnightblue" points="474.47,-22.18 463.9,-21.5 471.73,-28.63 474.47,-22.18"/>
</g>
<!-- Node14&#45;&gt;Node11 -->
<g id="edge16" class="edge">
<title>Node14&#45;&gt;Node11</title>
<path fill="none" stroke="midnightblue" d="M665.42,-116.37C647.76,-107.46 621.29,-94.11 601.29,-84.02"/>
<polygon fill="midnightblue" stroke="midnightblue" points="602.84,-80.88 592.33,-79.5 599.68,-87.13 602.84,-80.88"/>
</g>
<!-- Node15 -->
<g id="node15" class="node">
<title>Node15</title>
<g id="a_node15"><a xlink:href="tex__constant_8h.html" target="_top" xlink:title=" ">
<polygon fill="white" stroke="black" points="637.5,-58.5 637.5,-79.5 731.5,-79.5 731.5,-58.5 637.5,-58.5"/>
<text text-anchor="middle" x="684.5" y="-65.9" font-family="DejaVuSans" font-size="12.00">tex_constant.h</text>
</a>
</g>
</g>
<!-- Node14&#45;&gt;Node15 -->
<g id="edge17" class="edge">
<title>Node14&#45;&gt;Node15</title>
<path fill="none" stroke="midnightblue" d="M684.5,-116.25C684.5,-108.94 684.5,-98.69 684.5,-89.7"/>
<polygon fill="midnightblue" stroke="midnightblue" points="688,-89.64 684.5,-79.64 681,-89.64 688,-89.64"/>
</g>
<!-- Node16&#45;&gt;Node2 -->
<g id="edge19" class="edge">
<title>Node16&#45;&gt;Node2</title>
<path fill="none" stroke="midnightblue" d="M352.67,-232.31C340.65,-219.12 318.45,-194.77 299.5,-174 290.77,-164.43 281.02,-153.75 273.11,-145.09"/>
<polygon fill="midnightblue" stroke="midnightblue" points="275.52,-142.54 266.19,-137.51 270.35,-147.26 275.52,-142.54"/>
</g>
<!-- Node16&#45;&gt;Node7 -->
<g id="edge21" class="edge">
<title>Node16&#45;&gt;Node7</title>
<path fill="none" stroke="midnightblue" d="M341.73,-237.79C302.21,-229.38 212.19,-210.21 153.45,-197.7"/>
<polygon fill="midnightblue" stroke="midnightblue" points="154.09,-194.26 143.59,-195.6 152.64,-201.11 154.09,-194.26"/>
</g>
<!-- Node16&#45;&gt;Node11 -->
<g id="edge22" class="edge">
<title>Node16&#45;&gt;Node11</title>
<path fill="none" stroke="midnightblue" d="M373.51,-232.26C408.49,-203.88 510.58,-121.05 553.8,-85.98"/>
<polygon fill="midnightblue" stroke="midnightblue" points="556.07,-88.65 561.63,-79.63 551.66,-83.22 556.07,-88.65"/>
</g>
<!-- Node16&#45;&gt;Node13 -->
<g id="edge20" class="edge">
<title>Node16&#45;&gt;Node13</title>
<path fill="none" stroke="midnightblue" d="M364.84,-232.41C376.91,-197.71 418.46,-78.24 434.81,-31.22"/>
<polygon fill="midnightblue" stroke="midnightblue" points="438.17,-32.23 438.15,-21.63 431.56,-29.93 438.17,-32.23"/>
</g>
<!-- Node19&#45;&gt;Node2 -->
<g id="edge26" class="edge">
<title>Node19&#45;&gt;Node2</title>
<path fill="none" stroke="midnightblue" d="M234.38,-174.25C238.15,-166.7 243.49,-156.02 248.09,-146.82"/>
<polygon fill="midnightblue" stroke="midnightblue" points="251.34,-148.15 252.68,-137.64 245.08,-145.02 251.34,-148.15"/>
</g>
<!-- Node20&#45;&gt;Node16 -->
<g id="edge29" class="edge">
<title>Node20&#45;&gt;Node16</title>
<path fill="none" stroke="midnightblue" d="M446.56,-290.25C430.46,-281.49 406.61,-268.53 388.26,-258.55"/>
<polygon fill="midnightblue" stroke="midnightblue" points="389.69,-255.34 379.24,-253.64 386.35,-261.49 389.69,-255.34"/>
</g>
<!-- Node21 -->
<g id="node21" class="node">
<title>Node21</title>
<g id="a_node21"><a xlink:title=" ">
<polygon fill="white" stroke="#bfbfbf" points="399.5,-232.5 399.5,-253.5 461.5,-253.5 461.5,-232.5 399.5,-232.5"/>
<text text-anchor="middle" x="430.5" y="-239.9" font-family="DejaVuSans" font-size="12.00">setjmp.h</text>
</a>
</g>
</g>
<!-- Node20&#45;&gt;Node21 -->
<g id="edge28" class="edge">
<title>Node20&#45;&gt;Node21</title>
<path fill="none" stroke="midnightblue" d="M458.58,-290.25C453.9,-282.54 447.23,-271.56 441.57,-262.23"/>
<polygon fill="midnightblue" stroke="midnightblue" points="444.54,-260.37 436.35,-253.64 438.55,-264.01 444.54,-260.37"/>
</g>
<!-- Node20&#45;&gt;Node22 -->
<g id="edge30" class="edge">
<title>Node20&#45;&gt;Node22</title>
<path fill="none" stroke="midnightblue" d="M471.64,-290.25C477.34,-282.46 485.49,-271.33 492.36,-261.94"/>
<polygon fill="midnightblue" stroke="midnightblue" points="495.36,-263.78 498.44,-253.64 489.71,-259.64 495.36,-263.78"/>
</g>
<!-- Node22&#45;&gt;Node23 -->
<g id="edge31" class="edge">
<title>Node22&#45;&gt;Node23</title>
<path fill="none" stroke="midnightblue" d="M503.76,-232.25C502.45,-224.94 500.62,-214.69 499.02,-205.7"/>
<polygon fill="midnightblue" stroke="midnightblue" points="502.43,-204.87 497.22,-195.64 495.53,-206.1 502.43,-204.87"/>
</g>
<!-- Node23&#45;&gt;Node2 -->
<g id="edge32" class="edge">
<title>Node23&#45;&gt;Node2</title>
<path fill="none" stroke="midnightblue" d="M469.12,-177.79C426.39,-167.74 341.95,-147.87 293.65,-136.51"/>
<polygon fill="midnightblue" stroke="midnightblue" points="294.17,-133.03 283.63,-134.15 292.57,-139.85 294.17,-133.03"/>
</g>
<!-- Node23&#45;&gt;Node14 -->
<g id="edge33" class="edge">
<title>Node23&#45;&gt;Node14</title>
<path fill="none" stroke="midnightblue" d="M521.78,-176.21C556.36,-165.97 617.04,-147.99 653.73,-137.12"/>
<polygon fill="midnightblue" stroke="midnightblue" points="654.8,-140.45 663.4,-134.25 652.82,-133.74 654.8,-140.45"/>
</g>
<!-- Node25&#45;&gt;Node2 -->
<g id="edge36" class="edge">
<title>Node25&#45;&gt;Node2</title>
<path fill="none" stroke="midnightblue" d="M163.3,-232.34C167.72,-218.31 177.42,-192 192.5,-174 202.93,-161.55 217.48,-150.84 230.17,-142.89"/>
<polygon fill="midnightblue" stroke="midnightblue" points="232.21,-145.75 238.99,-137.61 228.61,-139.74 232.21,-145.75"/>
</g>
<!-- Node25&#45;&gt;Node7 -->
<g id="edge37" class="edge">
<title>Node25&#45;&gt;Node7</title>
<path fill="none" stroke="midnightblue" d="M149.7,-232.25C140.63,-224.05 127.48,-212.17 116.78,-202.51"/>
<polygon fill="midnightblue" stroke="midnightblue" points="118.94,-199.75 109.18,-195.64 114.25,-204.94 118.94,-199.75"/>
</g>
<!-- Node27&#45;&gt;Node25 -->
<g id="edge40" class="edge">
<title>Node27&#45;&gt;Node25</title>
<path fill="none" stroke="midnightblue" d="M184.45,-290.25C180.5,-282.62 174.89,-271.79 170.09,-262.53"/>
<polygon fill="midnightblue" stroke="midnightblue" points="173.2,-260.91 165.49,-253.64 166.98,-264.13 173.2,-260.91"/>
</g>
<!-- Node29&#45;&gt;Node11 -->
<g id="edge43" class="edge">
<title>Node29&#45;&gt;Node11</title>
<path fill="none" stroke="midnightblue" d="M648.35,-290.39C643.51,-269.15 631.02,-216.69 616.5,-174 606.17,-143.62 591.39,-109.41 582.13,-88.79"/>
<polygon fill="midnightblue" stroke="midnightblue" points="585.27,-87.25 577.95,-79.59 578.9,-90.14 585.27,-87.25"/>
</g>
<!-- Node29&#45;&gt;Node14 -->
<g id="edge44" class="edge">
<title>Node29&#45;&gt;Node14</title>
<path fill="none" stroke="midnightblue" d="M652.43,-290.26C657.85,-262.82 673.33,-184.51 680.62,-147.64"/>
<polygon fill="midnightblue" stroke="midnightblue" points="684.09,-148.12 682.6,-137.63 677.22,-146.76 684.09,-148.12"/>
</g>
<!-- Node29&#45;&gt;Node16 -->
<g id="edge46" class="edge">
<title>Node29&#45;&gt;Node16</title>
<path fill="none" stroke="midnightblue" d="M625.49,-296.91C580.4,-291.05 482.47,-277.03 390.74,-253.71"/>
<polygon fill="midnightblue" stroke="midnightblue" points="391.59,-250.31 381.03,-251.2 389.83,-257.09 391.59,-250.31"/>
</g>
<!-- Node29&#45;&gt;Node17 -->
<g id="edge45" class="edge">
<title>Node29&#45;&gt;Node17</title>
<path fill="none" stroke="midnightblue" d="M665.13,-290.25C677.9,-281.73 696.64,-269.24 711.43,-259.38"/>
<polygon fill="midnightblue" stroke="midnightblue" points="713.66,-262.1 720.04,-253.64 709.77,-256.28 713.66,-262.1"/>
</g>
<!-- Node32&#45;&gt;Node16 -->
<g id="edge52" class="edge">
<title>Node32&#45;&gt;Node16</title>
<path fill="none" stroke="midnightblue" d="M349.11,-290.25C351.09,-282.86 353.87,-272.47 356.3,-263.41"/>
<polygon fill="midnightblue" stroke="midnightblue" points="359.71,-264.21 358.92,-253.64 352.95,-262.4 359.71,-264.21"/>
</g>
</g>
</svg>
