<?xml version="1.0" encoding="UTF-8" standalone="no"?>
<!DOCTYPE svg PUBLIC "-//W3C//DTD SVG 1.1//EN"
 "http://www.w3.org/Graphics/SVG/1.1/DTD/svg11.dtd">
<!-- Generated by graphviz version 2.44.0 ()
 -->
<!-- Title: tex_constant.h Pages: 1 -->
<svg width="971pt" height="378pt"
 viewBox="0.00 0.00 970.50 378.00" xmlns="http://www.w3.org/2000/svg" xmlns:xlink="http://www.w3.org/1999/xlink">
<g id="graph0" class="graph" transform="scale(1 1) rotate(0) translate(4 374)">
<title>tex_constant.h</title>
<polygon fill="white" stroke="transparent" points="-4,4 -4,-374 966.5,-374 966.5,4 -4,4"/>
<!-- Node1 -->
<g id="node1" class="node">
<title>Node1</title>
<g id="a_node1"><a xlink:title=" ">
<polygon fill="#bfbfbf" stroke="black" points="343,-348.5 343,-369.5 437,-369.5 437,-348.5 343,-348.5"/>
<text text-anchor="middle" x="390" y="-355.9" font-family="DejaVuSans" font-size="12.00">tex_constant.h</text>
</a>
</g>
</g>
<!-- Node2 -->
<g id="node2" class="node">
<title>Node2</title>
<g id="a_node2"><a xlink:href="tex_8h.html" target="_top" xlink:title=" ">
<polygon fill="white" stroke="black" points="369,-290.5 369,-311.5 411,-311.5 411,-290.5 369,-290.5"/>
<text text-anchor="middle" x="390" y="-297.9" font-family="DejaVuSans" font-size="12.00">tex.h</text>
</a>
</g>
</g>
<!-- Node1&#45;&gt;Node2 -->
<g id="edge1" class="edge">
<title>Node1&#45;&gt;Node2</title>
<path fill="none" stroke="midnightblue" d="M390,-338.16C390,-329.16 390,-318.92 390,-311.64"/>
<polygon fill="midnightblue" stroke="midnightblue" points="386.5,-338.25 390,-348.25 393.5,-338.25 386.5,-338.25"/>
</g>
<!-- Node3 -->
<g id="node3" class="node">
<title>Node3</title>
<g id="a_node3"><a xlink:href="dviout_8c.html" target="_top" xlink:title=" ">
<polygon fill="white" stroke="black" points="0,-232.5 0,-253.5 58,-253.5 58,-232.5 0,-232.5"/>
<text text-anchor="middle" x="29" y="-239.9" font-family="DejaVuSans" font-size="12.00">dviout.c</text>
</a>
</g>
</g>
<!-- Node2&#45;&gt;Node3 -->
<g id="edge2" class="edge">
<title>Node2&#45;&gt;Node3</title>
<path fill="none" stroke="midnightblue" d="M358.47,-296.34C301.19,-289.49 176.29,-273.63 72,-254 67.48,-253.15 62.72,-252.15 58.07,-251.11"/>
<polygon fill="midnightblue" stroke="midnightblue" points="358.34,-299.85 368.68,-297.55 359.17,-292.9 358.34,-299.85"/>
</g>
<!-- Node4 -->
<g id="node4" class="node">
<title>Node4</title>
<g id="a_node4"><a xlink:href="expand_8c.html" target="_top" xlink:title=" ">
<polygon fill="white" stroke="black" points="365.5,-58.5 365.5,-79.5 430.5,-79.5 430.5,-58.5 365.5,-58.5"/>
<text text-anchor="middle" x="398" y="-65.9" font-family="DejaVuSans" font-size="12.00">expand.c</text>
</a>
</g>
</g>
<!-- Node2&#45;&gt;Node4 -->
<g id="edge3" class="edge">
<title>Node2&#45;&gt;Node4</title>
<path fill="none" stroke="midnightblue" d="M382.74,-280.7C380.05,-272.58 377.33,-262.96 376,-254 366.1,-187.49 387.03,-106.94 395.05,-79.6"/>
<polygon fill="midnightblue" stroke="midnightblue" points="379.51,-282.06 386.14,-290.32 386.11,-279.73 379.51,-282.06"/>
</g>
<!-- Node5 -->
<g id="node5" class="node">
<title>Node5</title>
<g id="a_node5"><a xlink:href="fonts_8c.html" target="_top" xlink:title=" ">
<polygon fill="white" stroke="black" points="448.5,-58.5 448.5,-79.5 499.5,-79.5 499.5,-58.5 448.5,-58.5"/>
<text text-anchor="middle" x="474" y="-65.9" font-family="DejaVuSans" font-size="12.00">fonts.c</text>
</a>
</g>
</g>
<!-- Node2&#45;&gt;Node5 -->
<g id="edge4" class="edge">
<title>Node2&#45;&gt;Node5</title>
<path fill="none" stroke="midnightblue" d="M397,-280.83C414.15,-233.88 457.78,-114.4 470.48,-79.63"/>
<polygon fill="midnightblue" stroke="midnightblue" points="393.65,-279.82 393.5,-290.41 400.22,-282.22 393.65,-279.82"/>
</g>
<!-- Node6 -->
<g id="node6" class="node">
<title>Node6</title>
<g id="a_node6"><a xlink:href="funcs_8c.html" target="_top" xlink:title=" ">
<polygon fill="white" stroke="black" points="153,-58.5 153,-79.5 207,-79.5 207,-58.5 153,-58.5"/>
<text text-anchor="middle" x="180" y="-65.9" font-family="DejaVuSans" font-size="12.00">funcs.c</text>
</a>
</g>
</g>
<!-- Node2&#45;&gt;Node6 -->
<g id="edge5" class="edge">
<title>Node2&#45;&gt;Node6</title>
<path fill="none" stroke="midnightblue" d="M372.02,-283.45C362.85,-274.85 351.64,-264.05 342,-254 280.44,-189.79 211.42,-107.78 188.15,-79.84"/>
<polygon fill="midnightblue" stroke="midnightblue" points="369.75,-286.12 379.45,-290.38 374.52,-281 369.75,-286.12"/>
</g>
<!-- Node7 -->
<g id="node7" class="node">
<title>Node7</title>
<g id="a_node7"><a xlink:href="hash_8h.html" target="_top" xlink:title=" ">
<polygon fill="white" stroke="black" points="608.5,-116.5 608.5,-137.5 661.5,-137.5 661.5,-116.5 608.5,-116.5"/>
<text text-anchor="middle" x="635" y="-123.9" font-family="DejaVuSans" font-size="12.00">hash.h</text>
</a>
</g>
</g>
<!-- Node2&#45;&gt;Node7 -->
<g id="edge6" class="edge">
<title>Node2&#45;&gt;Node7</title>
<path fill="none" stroke="midnightblue" d="M420.79,-290.61C443.92,-282.77 475.82,-270.27 501,-254 555.18,-218.99 607.29,-160.78 626.86,-137.78"/>
<polygon fill="midnightblue" stroke="midnightblue" points="419.56,-287.33 411.15,-293.78 421.74,-293.98 419.56,-287.33"/>
</g>
<!-- Node10 -->
<g id="node10" class="node">
<title>Node10</title>
<g id="a_node10"><a xlink:href="str_8c.html" target="_top" xlink:title=" ">
<polygon fill="white" stroke="black" points="304,-58.5 304,-79.5 342,-79.5 342,-58.5 304,-58.5"/>
<text text-anchor="middle" x="323" y="-65.9" font-family="DejaVuSans" font-size="12.00">str.c</text>
</a>
</g>
</g>
<!-- Node2&#45;&gt;Node10 -->
<g id="edge50" class="edge">
<title>Node2&#45;&gt;Node10</title>
<path fill="none" stroke="midnightblue" d="M381.03,-281.22C377.3,-272.99 373.13,-263.14 370,-254 347.66,-188.81 330.47,-107.42 324.91,-79.74"/>
<polygon fill="midnightblue" stroke="midnightblue" points="377.86,-282.71 385.24,-290.31 384.21,-279.77 377.86,-282.71"/>
</g>
<!-- Node11 -->
<g id="node11" class="node">
<title>Node11</title>
<g id="a_node11"><a xlink:href="tex__header_8h.html" target="_top" xlink:title=" ">
<polygon fill="white" stroke="black" points="793,-58.5 793,-79.5 879,-79.5 879,-58.5 793,-58.5"/>
<text text-anchor="middle" x="836" y="-65.9" font-family="DejaVuSans" font-size="12.00">tex_header.h</text>
</a>
</g>
</g>
<!-- Node2&#45;&gt;Node11 -->
<g id="edge51" class="edge">
<title>Node2&#45;&gt;Node11</title>
<path fill="none" stroke="midnightblue" d="M421.24,-294.77C482.92,-283.54 623.41,-253.33 728,-196 764.64,-175.91 775.57,-170.37 802,-138 817.03,-119.6 827.73,-93.46 832.76,-79.56"/>
<polygon fill="midnightblue" stroke="midnightblue" points="420.58,-291.34 411.35,-296.54 421.81,-298.23 420.58,-291.34"/>
</g>
<!-- Node13 -->
<g id="node13" class="node">
<title>Node13</title>
<g id="a_node13"><a xlink:href="inputln_8c.html" target="_top" xlink:title=" ">
<polygon fill="white" stroke="black" points="73.5,-58.5 73.5,-79.5 134.5,-79.5 134.5,-58.5 73.5,-58.5"/>
<text text-anchor="middle" x="104" y="-65.9" font-family="DejaVuSans" font-size="12.00">inputln.c</text>
</a>
</g>
</g>
<!-- Node2&#45;&gt;Node13 -->
<g id="edge14" class="edge">
<title>Node2&#45;&gt;Node13</title>
<path fill="none" stroke="midnightblue" d="M364.87,-285.16C350.77,-276.53 333.04,-265.18 318,-254 235.43,-192.61 144.32,-108.12 114.25,-79.74"/>
<polygon fill="midnightblue" stroke="midnightblue" points="363.18,-288.22 373.55,-290.4 366.8,-282.23 363.18,-288.22"/>
</g>
<!-- Node14 -->
<g id="node14" class="node">
<title>Node14</title>
<g id="a_node14"><a xlink:href="lexer_8h.html" target="_top" xlink:title=" ">
<polygon fill="white" stroke="black" points="440,-232.5 440,-253.5 492,-253.5 492,-232.5 440,-232.5"/>
<text text-anchor="middle" x="466" y="-239.9" font-family="DejaVuSans" font-size="12.00">lexer.h</text>
</a>
</g>
</g>
<!-- Node2&#45;&gt;Node14 -->
<g id="edge15" class="edge">
<title>Node2&#45;&gt;Node14</title>
<path fill="none" stroke="midnightblue" d="M411.43,-284.21C424.78,-274.37 441.52,-262.04 452.91,-253.64"/>
<polygon fill="midnightblue" stroke="midnightblue" points="409.21,-281.5 403.24,-290.25 413.36,-287.13 409.21,-281.5"/>
</g>
<!-- Node19 -->
<g id="node19" class="node">
<title>Node19</title>
<g id="a_node19"><a xlink:href="scan_8c.html" target="_top" xlink:title=" ">
<polygon fill="white" stroke="black" points="225.5,-58.5 225.5,-79.5 276.5,-79.5 276.5,-58.5 225.5,-58.5"/>
<text text-anchor="middle" x="251" y="-65.9" font-family="DejaVuSans" font-size="12.00">scan.c</text>
</a>
</g>
</g>
<!-- Node2&#45;&gt;Node19 -->
<g id="edge49" class="edge">
<title>Node2&#45;&gt;Node19</title>
<path fill="none" stroke="midnightblue" d="M377.45,-281.94C371.7,-273.53 364.88,-263.34 359,-254 317.75,-188.49 271.87,-107.31 256.41,-79.7"/>
<polygon fill="midnightblue" stroke="midnightblue" points="374.62,-283.99 383.17,-290.25 380.38,-280.02 374.62,-283.99"/>
</g>
<!-- Node20 -->
<g id="node20" class="node">
<title>Node20</title>
<g id="a_node20"><a xlink:href="printout_8c.html" target="_top" xlink:title=" ">
<polygon fill="white" stroke="black" points="897.5,-58.5 897.5,-79.5 962.5,-79.5 962.5,-58.5 897.5,-58.5"/>
<text text-anchor="middle" x="930" y="-65.9" font-family="DejaVuSans" font-size="12.00">printout.c</text>
</a>
</g>
</g>
<!-- Node2&#45;&gt;Node20 -->
<g id="edge48" class="edge">
<title>Node2&#45;&gt;Node20</title>
<path fill="none" stroke="midnightblue" d="M421.28,-299.73C531.11,-298.46 894.43,-291.44 929,-254 975.16,-204.01 945.2,-109.83 933.83,-79.6"/>
<polygon fill="midnightblue" stroke="midnightblue" points="421.13,-296.23 411.17,-299.84 421.2,-303.23 421.13,-296.23"/>
</g>
<!-- Node21 -->
<g id="node21" class="node">
<title>Node21</title>
<g id="a_node21"><a xlink:href="pool__init_8c.html" target="_top" xlink:title=" ">
<polygon fill="white" stroke="black" points="848.5,-232.5 848.5,-253.5 919.5,-253.5 919.5,-232.5 848.5,-232.5"/>
<text text-anchor="middle" x="884" y="-239.9" font-family="DejaVuSans" font-size="12.00">pool_init.c</text>
</a>
</g>
</g>
<!-- Node2&#45;&gt;Node21 -->
<g id="edge38" class="edge">
<title>Node2&#45;&gt;Node21</title>
<path fill="none" stroke="midnightblue" d="M421.68,-297.75C494.67,-292.34 680.22,-277.29 834,-254 838.64,-253.3 843.5,-252.46 848.29,-251.57"/>
<polygon fill="midnightblue" stroke="midnightblue" points="421.07,-294.28 411.35,-298.51 421.58,-301.26 421.07,-294.28"/>
</g>
<!-- Node22 -->
<g id="node22" class="node">
<title>Node22</title>
<g id="a_node22"><a xlink:href="print_8h.html" target="_top" xlink:title=" ">
<polygon fill="white" stroke="black" points="680,-116.5 680,-137.5 730,-137.5 730,-116.5 680,-116.5"/>
<text text-anchor="middle" x="705" y="-123.9" font-family="DejaVuSans" font-size="12.00">print.h</text>
</a>
</g>
</g>
<!-- Node2&#45;&gt;Node22 -->
<g id="edge39" class="edge">
<title>Node2&#45;&gt;Node22</title>
<path fill="none" stroke="midnightblue" d="M421.19,-292.69C450.3,-285.2 494.46,-272.09 530,-254 597.73,-219.53 668.09,-160.5 694.31,-137.53"/>
<polygon fill="midnightblue" stroke="midnightblue" points="420.04,-289.37 411.19,-295.2 421.74,-296.16 420.04,-289.37"/>
</g>
<!-- Node7&#45;&gt;Node4 -->
<g id="edge7" class="edge">
<title>Node7&#45;&gt;Node4</title>
<path fill="none" stroke="midnightblue" d="M598.42,-117.52C559.03,-108.36 494.54,-93.29 439,-80 436.29,-79.35 433.49,-78.68 430.67,-77.99"/>
<polygon fill="midnightblue" stroke="midnightblue" points="597.82,-120.97 608.35,-119.82 599.4,-114.15 597.82,-120.97"/>
</g>
<!-- Node7&#45;&gt;Node5 -->
<g id="edge8" class="edge">
<title>Node7&#45;&gt;Node5</title>
<path fill="none" stroke="midnightblue" d="M598.68,-113.37C568.49,-102.87 526.3,-88.19 499.56,-78.89"/>
<polygon fill="midnightblue" stroke="midnightblue" points="597.82,-116.77 608.41,-116.75 600.12,-110.16 597.82,-116.77"/>
</g>
<!-- Node8 -->
<g id="node8" class="node">
<title>Node8</title>
<g id="a_node8"><a xlink:href="hash_8c.html" target="_top" xlink:title=" ">
<polygon fill="white" stroke="black" points="518,-58.5 518,-79.5 570,-79.5 570,-58.5 518,-58.5"/>
<text text-anchor="middle" x="544" y="-65.9" font-family="DejaVuSans" font-size="12.00">hash.c</text>
</a>
</g>
</g>
<!-- Node7&#45;&gt;Node8 -->
<g id="edge9" class="edge">
<title>Node7&#45;&gt;Node8</title>
<path fill="none" stroke="midnightblue" d="M610.25,-110.77C594.12,-100.85 573.57,-88.2 559.67,-79.64"/>
<polygon fill="midnightblue" stroke="midnightblue" points="608.8,-113.99 619.15,-116.25 612.47,-108.02 608.8,-113.99"/>
</g>
<!-- Node9 -->
<g id="node9" class="node">
<title>Node9</title>
<g id="a_node9"><a xlink:href="lexer_8c.html" target="_top" xlink:title=" ">
<polygon fill="white" stroke="black" points="723.5,-58.5 723.5,-79.5 774.5,-79.5 774.5,-58.5 723.5,-58.5"/>
<text text-anchor="middle" x="749" y="-65.9" font-family="DejaVuSans" font-size="12.00">lexer.c</text>
</a>
</g>
</g>
<!-- Node7&#45;&gt;Node9 -->
<g id="edge10" class="edge">
<title>Node7&#45;&gt;Node9</title>
<path fill="none" stroke="midnightblue" d="M663.83,-111.84C684.44,-101.71 711.61,-88.37 729.66,-79.5"/>
<polygon fill="midnightblue" stroke="midnightblue" points="662.03,-108.82 654.6,-116.37 665.12,-115.11 662.03,-108.82"/>
</g>
<!-- Node7&#45;&gt;Node10 -->
<g id="edge11" class="edge">
<title>Node7&#45;&gt;Node10</title>
<path fill="none" stroke="midnightblue" d="M597.91,-120.5C533,-110.78 401.4,-90.57 356,-80 351.45,-78.94 346.61,-77.6 342.08,-76.24"/>
<polygon fill="midnightblue" stroke="midnightblue" points="597.7,-124.01 608.1,-122.03 598.73,-117.09 597.7,-124.01"/>
</g>
<!-- Node7&#45;&gt;Node11 -->
<g id="edge12" class="edge">
<title>Node7&#45;&gt;Node11</title>
<path fill="none" stroke="midnightblue" d="M671.59,-115.81C708.67,-105.47 765.59,-89.62 801.79,-79.53"/>
<polygon fill="midnightblue" stroke="midnightblue" points="670.38,-112.51 661.69,-118.56 672.26,-119.25 670.38,-112.51"/>
</g>
<!-- Node12 -->
<g id="node12" class="node">
<title>Node12</title>
<g id="a_node12"><a xlink:href="tex_8c.html" target="_top" xlink:title=" ">
<polygon fill="white" stroke="black" points="815.5,-0.5 815.5,-21.5 856.5,-21.5 856.5,-0.5 815.5,-0.5"/>
<text text-anchor="middle" x="836" y="-7.9" font-family="DejaVuSans" font-size="12.00">tex.c</text>
</a>
</g>
</g>
<!-- Node11&#45;&gt;Node12 -->
<g id="edge13" class="edge">
<title>Node11&#45;&gt;Node12</title>
<path fill="none" stroke="midnightblue" d="M836,-48.16C836,-39.16 836,-28.92 836,-21.64"/>
<polygon fill="midnightblue" stroke="midnightblue" points="832.5,-48.25 836,-58.25 839.5,-48.25 832.5,-48.25"/>
</g>
<!-- Node14&#45;&gt;Node4 -->
<g id="edge16" class="edge">
<title>Node14&#45;&gt;Node4</title>
<path fill="none" stroke="midnightblue" d="M458.37,-222.69C443.83,-185.92 412.65,-107.05 401.81,-79.63"/>
<polygon fill="midnightblue" stroke="midnightblue" points="455.22,-224.25 462.15,-232.26 461.73,-221.67 455.22,-224.25"/>
</g>
<!-- Node14&#45;&gt;Node5 -->
<g id="edge17" class="edge">
<title>Node14&#45;&gt;Node5</title>
<path fill="none" stroke="midnightblue" d="M466.92,-222.21C468.64,-185.24 472.28,-106.94 473.55,-79.63"/>
<polygon fill="midnightblue" stroke="midnightblue" points="463.42,-222.11 466.45,-232.26 470.41,-222.43 463.42,-222.11"/>
</g>
<!-- Node14&#45;&gt;Node9 -->
<g id="edge19" class="edge">
<title>Node14&#45;&gt;Node9</title>
<path fill="none" stroke="midnightblue" d="M502.07,-239.5C561.6,-233.31 679.7,-211.88 739,-138 752.59,-121.06 751.91,-93.84 750.38,-79.52"/>
<polygon fill="midnightblue" stroke="midnightblue" points="501.63,-236.03 492.01,-240.46 502.3,-243 501.63,-236.03"/>
</g>
<!-- Node14&#45;&gt;Node11 -->
<g id="edge37" class="edge">
<title>Node14&#45;&gt;Node11</title>
<path fill="none" stroke="midnightblue" d="M502.59,-239.78C549.32,-235.83 631.8,-225.03 696,-196 757.08,-168.38 810.11,-104.2 828.82,-79.72"/>
<polygon fill="midnightblue" stroke="midnightblue" points="502.05,-236.32 492.35,-240.59 502.59,-243.29 502.05,-236.32"/>
</g>
<!-- Node14&#45;&gt;Node13 -->
<g id="edge18" class="edge">
<title>Node14&#45;&gt;Node13</title>
<path fill="none" stroke="midnightblue" d="M436.44,-227.96C365.12,-194.07 185.01,-108.49 124.32,-79.65"/>
<polygon fill="midnightblue" stroke="midnightblue" points="435.23,-231.25 445.76,-232.38 438.23,-224.93 435.23,-231.25"/>
</g>
<!-- Node15 -->
<g id="node15" class="node">
<title>Node15</title>
<g id="a_node15"><a xlink:href="scan_8h.html" target="_top" xlink:title=" ">
<polygon fill="white" stroke="black" points="497,-174.5 497,-195.5 549,-195.5 549,-174.5 497,-174.5"/>
<text text-anchor="middle" x="523" y="-181.9" font-family="DejaVuSans" font-size="12.00">scan.h</text>
</a>
</g>
</g>
<!-- Node14&#45;&gt;Node15 -->
<g id="edge20" class="edge">
<title>Node14&#45;&gt;Node15</title>
<path fill="none" stroke="midnightblue" d="M483.23,-225.08C493.03,-215.44 504.96,-203.72 513.19,-195.64"/>
<polygon fill="midnightblue" stroke="midnightblue" points="480.61,-222.74 475.93,-232.25 485.51,-227.73 480.61,-222.74"/>
</g>
<!-- Node15&#45;&gt;Node4 -->
<g id="edge21" class="edge">
<title>Node15&#45;&gt;Node4</title>
<path fill="none" stroke="midnightblue" d="M504.89,-167.48C478.42,-143.34 430.01,-99.19 408.63,-79.69"/>
<polygon fill="midnightblue" stroke="midnightblue" points="502.6,-170.13 512.34,-174.28 507.31,-164.96 502.6,-170.13"/>
</g>
<!-- Node15&#45;&gt;Node8 -->
<g id="edge33" class="edge">
<title>Node15&#45;&gt;Node8</title>
<path fill="none" stroke="midnightblue" d="M541.72,-167.18C549.24,-159.18 557.06,-148.97 561,-138 568.25,-117.85 557.49,-93.26 550.07,-79.87"/>
<polygon fill="midnightblue" stroke="midnightblue" points="539.08,-164.86 534.45,-174.39 544.01,-169.83 539.08,-164.86"/>
</g>
<!-- Node15&#45;&gt;Node11 -->
<g id="edge36" class="edge">
<title>Node15&#45;&gt;Node11</title>
<path fill="none" stroke="midnightblue" d="M559.25,-180.75C603.29,-175.81 679.12,-164.07 739,-138 773.7,-122.89 808.63,-94.37 825.53,-79.53"/>
<polygon fill="midnightblue" stroke="midnightblue" points="558.87,-177.27 549.3,-181.81 559.61,-184.23 558.87,-177.27"/>
</g>
<!-- Node16 -->
<g id="node16" class="node">
<title>Node16</title>
<g id="a_node16"><a xlink:href="global_8h.html" target="_top" xlink:title=" ">
<polygon fill="white" stroke="black" points="494,-116.5 494,-137.5 552,-137.5 552,-116.5 494,-116.5"/>
<text text-anchor="middle" x="523" y="-123.9" font-family="DejaVuSans" font-size="12.00">global.h</text>
</a>
</g>
</g>
<!-- Node15&#45;&gt;Node16 -->
<g id="edge22" class="edge">
<title>Node15&#45;&gt;Node16</title>
<path fill="none" stroke="midnightblue" d="M523,-164.16C523,-155.16 523,-144.92 523,-137.64"/>
<polygon fill="midnightblue" stroke="midnightblue" points="519.5,-164.25 523,-174.25 526.5,-164.25 519.5,-164.25"/>
</g>
<!-- Node15&#45;&gt;Node19 -->
<g id="edge35" class="edge">
<title>Node15&#45;&gt;Node19</title>
<path fill="none" stroke="midnightblue" d="M490.9,-170.55C435.27,-147.23 322.26,-99.87 273.85,-79.58"/>
<polygon fill="midnightblue" stroke="midnightblue" points="489.7,-173.84 500.28,-174.48 492.41,-167.38 489.7,-173.84"/>
</g>
<!-- Node15&#45;&gt;Node20 -->
<g id="edge34" class="edge">
<title>Node15&#45;&gt;Node20</title>
<path fill="none" stroke="midnightblue" d="M559.38,-179.87C608.43,-173.72 698.12,-160.41 772,-138 824.3,-122.13 882.56,-94.2 911.54,-79.56"/>
<polygon fill="midnightblue" stroke="midnightblue" points="558.77,-176.42 549.27,-181.11 559.62,-183.37 558.77,-176.42"/>
</g>
<!-- Node16&#45;&gt;Node4 -->
<g id="edge24" class="edge">
<title>Node16&#45;&gt;Node4</title>
<path fill="none" stroke="midnightblue" d="M492.3,-112.25C469.6,-102.08 439.27,-88.49 419.21,-79.5"/>
<polygon fill="midnightblue" stroke="midnightblue" points="490.95,-115.48 501.51,-116.37 493.82,-109.09 490.95,-115.48"/>
</g>
<!-- Node16&#45;&gt;Node5 -->
<g id="edge25" class="edge">
<title>Node16&#45;&gt;Node5</title>
<path fill="none" stroke="midnightblue" d="M507.69,-108.5C499.36,-98.98 489.36,-87.56 482.44,-79.64"/>
<polygon fill="midnightblue" stroke="midnightblue" points="505.25,-111.02 514.46,-116.25 510.51,-106.41 505.25,-111.02"/>
</g>
<!-- Node16&#45;&gt;Node6 -->
<g id="edge26" class="edge">
<title>Node16&#45;&gt;Node6</title>
<path fill="none" stroke="midnightblue" d="M483.62,-121.66C424.93,-114.85 311.22,-100.28 216,-80 213.08,-79.38 210.05,-78.66 207.04,-77.89"/>
<polygon fill="midnightblue" stroke="midnightblue" points="483.24,-125.14 493.58,-122.81 484.04,-118.19 483.24,-125.14"/>
</g>
<!-- Node16&#45;&gt;Node8 -->
<g id="edge27" class="edge">
<title>Node16&#45;&gt;Node8</title>
<path fill="none" stroke="midnightblue" d="M530.22,-106.75C533.65,-97.61 537.6,-87.08 540.38,-79.64"/>
<polygon fill="midnightblue" stroke="midnightblue" points="526.89,-105.65 526.66,-116.25 533.45,-108.11 526.89,-105.65"/>
</g>
<!-- Node16&#45;&gt;Node9 -->
<g id="edge29" class="edge">
<title>Node16&#45;&gt;Node9</title>
<path fill="none" stroke="midnightblue" d="M562.04,-117.1C600.72,-108.17 661.62,-93.78 714,-80 717.06,-79.2 720.25,-78.32 723.42,-77.44"/>
<polygon fill="midnightblue" stroke="midnightblue" points="561.18,-113.71 552.22,-119.36 562.75,-120.53 561.18,-113.71"/>
</g>
<!-- Node16&#45;&gt;Node11 -->
<g id="edge32" class="edge">
<title>Node16&#45;&gt;Node11</title>
<path fill="none" stroke="midnightblue" d="M562.19,-119.21C613.1,-110.35 704.74,-94.3 783,-80 786.22,-79.41 789.56,-78.8 792.91,-78.17"/>
<polygon fill="midnightblue" stroke="midnightblue" points="561.52,-115.77 552.26,-120.93 562.71,-122.67 561.52,-115.77"/>
</g>
<!-- Node16&#45;&gt;Node13 -->
<g id="edge28" class="edge">
<title>Node16&#45;&gt;Node13</title>
<path fill="none" stroke="midnightblue" d="M483.81,-122.86C414.76,-116.97 267.06,-102.76 144,-80 141.04,-79.45 137.98,-78.82 134.93,-78.13"/>
<polygon fill="midnightblue" stroke="midnightblue" points="483.55,-126.35 493.81,-123.7 484.14,-119.38 483.55,-126.35"/>
</g>
<!-- Node17 -->
<g id="node17" class="node">
<title>Node17</title>
<g id="a_node17"><a xlink:href="error_8c.html" target="_top" xlink:title=" ">
<polygon fill="white" stroke="black" points="588,-58.5 588,-79.5 638,-79.5 638,-58.5 588,-58.5"/>
<text text-anchor="middle" x="613" y="-65.9" font-family="DejaVuSans" font-size="12.00">error.c</text>
</a>
</g>
</g>
<!-- Node16&#45;&gt;Node17 -->
<g id="edge23" class="edge">
<title>Node16&#45;&gt;Node17</title>
<path fill="none" stroke="midnightblue" d="M547.48,-110.77C563.43,-100.85 583.75,-88.2 597.5,-79.64"/>
<polygon fill="midnightblue" stroke="midnightblue" points="545.32,-107.99 538.68,-116.25 549.02,-113.93 545.32,-107.99"/>
</g>
<!-- Node18 -->
<g id="node18" class="node">
<title>Node18</title>
<g id="a_node18"><a xlink:href="print_8c.html" target="_top" xlink:title=" ">
<polygon fill="white" stroke="black" points="656.5,-58.5 656.5,-79.5 705.5,-79.5 705.5,-58.5 656.5,-58.5"/>
<text text-anchor="middle" x="681" y="-65.9" font-family="DejaVuSans" font-size="12.00">print.c</text>
</a>
</g>
</g>
<!-- Node16&#45;&gt;Node18 -->
<g id="edge30" class="edge">
<title>Node16&#45;&gt;Node18</title>
<path fill="none" stroke="midnightblue" d="M559.76,-112.97C589.43,-102.45 630.38,-87.94 656.27,-78.76"/>
<polygon fill="midnightblue" stroke="midnightblue" points="558.42,-109.73 550.16,-116.37 560.76,-116.33 558.42,-109.73"/>
</g>
<!-- Node16&#45;&gt;Node19 -->
<g id="edge31" class="edge">
<title>Node16&#45;&gt;Node19</title>
<path fill="none" stroke="midnightblue" d="M483.77,-118.39C438.29,-109.49 361.12,-94.18 295,-80 289.03,-78.72 282.61,-77.29 276.57,-75.92"/>
<polygon fill="midnightblue" stroke="midnightblue" points="483.31,-121.86 493.8,-120.35 484.66,-114.99 483.31,-121.86"/>
</g>
<!-- Node22&#45;&gt;Node4 -->
<g id="edge41" class="edge">
<title>Node22&#45;&gt;Node4</title>
<path fill="none" stroke="midnightblue" d="M670.3,-116.07C670.2,-116.04 670.1,-116.02 670,-116 568.52,-93.68 540.9,-100.33 439,-80 436.27,-79.46 433.45,-78.85 430.62,-78.22"/>
<polygon fill="midnightblue" stroke="midnightblue" points="669.31,-119.43 679.86,-118.41 670.98,-112.63 669.31,-119.43"/>
</g>
<!-- Node22&#45;&gt;Node5 -->
<g id="edge42" class="edge">
<title>Node22&#45;&gt;Node5</title>
<path fill="none" stroke="midnightblue" d="M670.3,-116.08C670.2,-116.05 670.1,-116.03 670,-116 598.94,-97.92 580.06,-98.08 509,-80 505.94,-79.22 502.74,-78.36 499.57,-77.49"/>
<polygon fill="midnightblue" stroke="midnightblue" points="669.25,-119.42 679.81,-118.61 671.05,-112.65 669.25,-119.42"/>
</g>
<!-- Node22&#45;&gt;Node8 -->
<g id="edge43" class="edge">
<title>Node22&#45;&gt;Node8</title>
<path fill="none" stroke="midnightblue" d="M670.17,-113.88C640.07,-103.42 597.25,-88.52 570.05,-79.06"/>
<polygon fill="midnightblue" stroke="midnightblue" points="669.25,-117.27 679.84,-117.25 671.55,-110.66 669.25,-117.27"/>
</g>
<!-- Node22&#45;&gt;Node9 -->
<g id="edge44" class="edge">
<title>Node22&#45;&gt;Node9</title>
<path fill="none" stroke="midnightblue" d="M718.98,-108.21C726.41,-98.75 735.27,-87.48 741.42,-79.64"/>
<polygon fill="midnightblue" stroke="midnightblue" points="716.09,-106.22 712.66,-116.25 721.59,-110.54 716.09,-106.22"/>
</g>
<!-- Node22&#45;&gt;Node11 -->
<g id="edge47" class="edge">
<title>Node22&#45;&gt;Node11</title>
<path fill="none" stroke="midnightblue" d="M736.85,-112.38C760.68,-102.2 792.66,-88.53 813.77,-79.5"/>
<polygon fill="midnightblue" stroke="midnightblue" points="735.34,-109.22 727.52,-116.37 738.09,-115.66 735.34,-109.22"/>
</g>
<!-- Node22&#45;&gt;Node17 -->
<g id="edge40" class="edge">
<title>Node22&#45;&gt;Node17</title>
<path fill="none" stroke="midnightblue" d="M679.98,-110.77C663.67,-100.85 642.9,-88.2 628.84,-79.64"/>
<polygon fill="midnightblue" stroke="midnightblue" points="678.61,-114.04 688.97,-116.25 682.25,-108.06 678.61,-114.04"/>
</g>
<!-- Node22&#45;&gt;Node18 -->
<g id="edge45" class="edge">
<title>Node22&#45;&gt;Node18</title>
<path fill="none" stroke="midnightblue" d="M696.88,-107.04C692.93,-97.83 688.35,-87.16 685.13,-79.64"/>
<polygon fill="midnightblue" stroke="midnightblue" points="693.66,-108.43 700.82,-116.25 700.1,-105.68 693.66,-108.43"/>
</g>
<!-- Node22&#45;&gt;Node20 -->
<g id="edge46" class="edge">
<title>Node22&#45;&gt;Node20</title>
<path fill="none" stroke="midnightblue" d="M740.14,-117.26C783.21,-106.53 855.62,-88.51 897.47,-78.1"/>
<polygon fill="midnightblue" stroke="midnightblue" points="739.23,-113.87 730.37,-119.68 740.92,-120.67 739.23,-113.87"/>
</g>
</g>
</svg>
