<?xml version="1.0" encoding="UTF-8" standalone="no"?>
<!DOCTYPE svg PUBLIC "-//W3C//DTD SVG 1.1//EN"
 "http://www.w3.org/Graphics/SVG/1.1/DTD/svg11.dtd">
<!-- Generated by graphviz version 2.44.0 ()
 -->
<!-- Title: tex.h Pages: 1 -->
<svg width="962pt" height="320pt"
 viewBox="0.00 0.00 962.00 320.00" xmlns="http://www.w3.org/2000/svg" xmlns:xlink="http://www.w3.org/1999/xlink">
<g id="graph0" class="graph" transform="scale(1 1) rotate(0) translate(4 316)">
<title>tex.h</title>
<polygon fill="white" stroke="transparent" points="-4,4 -4,-316 958,-316 958,4 -4,4"/>
<!-- Node1 -->
<g id="node1" class="node">
<title>Node1</title>
<g id="a_node1"><a xlink:title=" ">
<polygon fill="#bfbfbf" stroke="black" points="555,-290.5 555,-311.5 597,-311.5 597,-290.5 555,-290.5"/>
<text text-anchor="middle" x="576" y="-297.9" font-family="DejaVuSans" font-size="12.00">tex.h</text>
</a>
</g>
</g>
<!-- Node2 -->
<g id="node2" class="node">
<title>Node2</title>
<g id="a_node2"><a xlink:href="dviout_8c.html" target="_top" xlink:title=" ">
<polygon fill="white" stroke="black" points="0,-232.5 0,-253.5 58,-253.5 58,-232.5 0,-232.5"/>
<text text-anchor="middle" x="29" y="-239.9" font-family="DejaVuSans" font-size="12.00">dviout.c</text>
</a>
</g>
</g>
<!-- Node1&#45;&gt;Node2 -->
<g id="edge1" class="edge">
<title>Node1&#45;&gt;Node2</title>
<path fill="none" stroke="midnightblue" d="M544.42,-298.63C464.75,-294.84 249.29,-282.57 72,-254 67.46,-253.27 62.69,-252.33 58.04,-251.32"/>
<polygon fill="midnightblue" stroke="midnightblue" points="544.59,-302.14 554.74,-299.11 544.92,-295.15 544.59,-302.14"/>
</g>
<!-- Node3 -->
<g id="node3" class="node">
<title>Node3</title>
<g id="a_node3"><a xlink:href="lexer_8h.html" target="_top" xlink:title=" ">
<polygon fill="white" stroke="black" points="416,-232.5 416,-253.5 468,-253.5 468,-232.5 416,-232.5"/>
<text text-anchor="middle" x="442" y="-239.9" font-family="DejaVuSans" font-size="12.00">lexer.h</text>
</a>
</g>
</g>
<!-- Node1&#45;&gt;Node3 -->
<g id="edge2" class="edge">
<title>Node1&#45;&gt;Node3</title>
<path fill="none" stroke="midnightblue" d="M545.23,-287.14C520.76,-276.92 487.07,-262.84 464.93,-253.58"/>
<polygon fill="midnightblue" stroke="midnightblue" points="544.19,-290.5 554.77,-291.13 546.89,-284.04 544.19,-290.5"/>
</g>
<!-- Node7 -->
<g id="node7" class="node">
<title>Node7</title>
<g id="a_node7"><a xlink:href="expand_8c.html" target="_top" xlink:title=" ">
<polygon fill="white" stroke="black" points="91.5,-58.5 91.5,-79.5 156.5,-79.5 156.5,-58.5 91.5,-58.5"/>
<text text-anchor="middle" x="124" y="-65.9" font-family="DejaVuSans" font-size="12.00">expand.c</text>
</a>
</g>
</g>
<!-- Node1&#45;&gt;Node7 -->
<g id="edge31" class="edge">
<title>Node1&#45;&gt;Node7</title>
<path fill="none" stroke="midnightblue" d="M544.64,-299.04C496.25,-296.5 401.39,-287.3 329,-254 236.02,-211.23 155.24,-111.39 131.24,-79.78"/>
<polygon fill="midnightblue" stroke="midnightblue" points="544.64,-302.54 554.79,-299.51 544.97,-295.55 544.64,-302.54"/>
</g>
<!-- Node8 -->
<g id="node8" class="node">
<title>Node8</title>
<g id="a_node8"><a xlink:href="fonts_8c.html" target="_top" xlink:title=" ">
<polygon fill="white" stroke="black" points="174.5,-58.5 174.5,-79.5 225.5,-79.5 225.5,-58.5 174.5,-58.5"/>
<text text-anchor="middle" x="200" y="-65.9" font-family="DejaVuSans" font-size="12.00">fonts.c</text>
</a>
</g>
</g>
<!-- Node1&#45;&gt;Node8 -->
<g id="edge32" class="edge">
<title>Node1&#45;&gt;Node8</title>
<path fill="none" stroke="midnightblue" d="M544.72,-297.32C503.72,-292.84 430.41,-281.44 374,-254 300.41,-218.2 281.08,-202.73 231,-138 216.71,-119.53 207.19,-93.41 202.8,-79.54"/>
<polygon fill="midnightblue" stroke="midnightblue" points="544.59,-300.83 554.9,-298.36 545.31,-293.86 544.59,-300.83"/>
</g>
<!-- Node9 -->
<g id="node9" class="node">
<title>Node9</title>
<g id="a_node9"><a xlink:href="funcs_8c.html" target="_top" xlink:title=" ">
<polygon fill="white" stroke="black" points="741,-58.5 741,-79.5 795,-79.5 795,-58.5 741,-58.5"/>
<text text-anchor="middle" x="768" y="-65.9" font-family="DejaVuSans" font-size="12.00">funcs.c</text>
</a>
</g>
</g>
<!-- Node1&#45;&gt;Node9 -->
<g id="edge33" class="edge">
<title>Node1&#45;&gt;Node9</title>
<path fill="none" stroke="midnightblue" d="M607.25,-294.24C634.83,-287.96 675.04,-275.76 704,-254 761.86,-210.51 767.71,-111.15 768.07,-79.72"/>
<polygon fill="midnightblue" stroke="midnightblue" points="606.39,-290.85 597.34,-296.37 607.85,-297.69 606.39,-290.85"/>
</g>
<!-- Node10 -->
<g id="node10" class="node">
<title>Node10</title>
<g id="a_node10"><a xlink:href="inputln_8c.html" target="_top" xlink:title=" ">
<polygon fill="white" stroke="black" points="448.5,-58.5 448.5,-79.5 509.5,-79.5 509.5,-58.5 448.5,-58.5"/>
<text text-anchor="middle" x="479" y="-65.9" font-family="DejaVuSans" font-size="12.00">inputln.c</text>
</a>
</g>
</g>
<!-- Node1&#45;&gt;Node10 -->
<g id="edge35" class="edge">
<title>Node1&#45;&gt;Node10</title>
<path fill="none" stroke="midnightblue" d="M568.04,-281.13C548.32,-234.38 497.76,-114.48 483.06,-79.63"/>
<polygon fill="midnightblue" stroke="midnightblue" points="564.84,-282.56 571.96,-290.41 571.29,-279.84 564.84,-282.56"/>
</g>
<!-- Node13 -->
<g id="node13" class="node">
<title>Node13</title>
<g id="a_node13"><a xlink:href="scan_8c.html" target="_top" xlink:title=" ">
<polygon fill="white" stroke="black" points="632.5,-58.5 632.5,-79.5 683.5,-79.5 683.5,-58.5 632.5,-58.5"/>
<text text-anchor="middle" x="658" y="-65.9" font-family="DejaVuSans" font-size="12.00">scan.c</text>
</a>
</g>
</g>
<!-- Node1&#45;&gt;Node13 -->
<g id="edge37" class="edge">
<title>Node1&#45;&gt;Node13</title>
<path fill="none" stroke="midnightblue" d="M606.54,-290.3C644.11,-276.4 705.56,-246.73 727,-196 740.86,-163.21 748.2,-147.17 731,-116 720.94,-97.77 700.28,-85.77 683.5,-78.62"/>
<polygon fill="midnightblue" stroke="midnightblue" points="605.34,-287.01 597.09,-293.65 607.68,-293.61 605.34,-287.01"/>
</g>
<!-- Node14 -->
<g id="node14" class="node">
<title>Node14</title>
<g id="a_node14"><a xlink:href="tex__header_8h.html" target="_top" xlink:title=" ">
<polygon fill="white" stroke="black" points="528,-58.5 528,-79.5 614,-79.5 614,-58.5 528,-58.5"/>
<text text-anchor="middle" x="571" y="-65.9" font-family="DejaVuSans" font-size="12.00">tex_header.h</text>
</a>
</g>
</g>
<!-- Node1&#45;&gt;Node14 -->
<g id="edge39" class="edge">
<title>Node1&#45;&gt;Node14</title>
<path fill="none" stroke="midnightblue" d="M601.86,-285.16C652.91,-253.97 757.9,-179.26 712,-116 700.28,-99.85 651.06,-86.39 614.05,-78.29"/>
<polygon fill="midnightblue" stroke="midnightblue" points="599.78,-282.32 593,-290.47 603.38,-288.33 599.78,-282.32"/>
</g>
<!-- Node16 -->
<g id="node16" class="node">
<title>Node16</title>
<g id="a_node16"><a xlink:href="printout_8c.html" target="_top" xlink:title=" ">
<polygon fill="white" stroke="black" points="638.5,-116.5 638.5,-137.5 703.5,-137.5 703.5,-116.5 638.5,-116.5"/>
<text text-anchor="middle" x="671" y="-123.9" font-family="DejaVuSans" font-size="12.00">printout.c</text>
</a>
</g>
</g>
<!-- Node1&#45;&gt;Node16 -->
<g id="edge36" class="edge">
<title>Node1&#45;&gt;Node16</title>
<path fill="none" stroke="midnightblue" d="M586.41,-281.16C606.6,-244.59 650.47,-165.17 665.68,-137.63"/>
<polygon fill="midnightblue" stroke="midnightblue" points="583.15,-279.81 581.38,-290.26 589.28,-283.2 583.15,-279.81"/>
</g>
<!-- Node17 -->
<g id="node17" class="node">
<title>Node17</title>
<g id="a_node17"><a xlink:href="print_8h.html" target="_top" xlink:title=" ">
<polygon fill="white" stroke="black" points="266,-116.5 266,-137.5 316,-137.5 316,-116.5 266,-116.5"/>
<text text-anchor="middle" x="291" y="-123.9" font-family="DejaVuSans" font-size="12.00">print.h</text>
</a>
</g>
</g>
<!-- Node1&#45;&gt;Node17 -->
<g id="edge24" class="edge">
<title>Node1&#45;&gt;Node17</title>
<path fill="none" stroke="midnightblue" d="M544.5,-296.73C508.91,-291.88 450.33,-280.34 407,-254 355.17,-222.49 312.28,-161.19 297,-137.58"/>
<polygon fill="midnightblue" stroke="midnightblue" points="544.4,-300.24 554.76,-298.03 545.28,-293.3 544.4,-300.24"/>
</g>
<!-- Node18 -->
<g id="node18" class="node">
<title>Node18</title>
<g id="a_node18"><a xlink:href="inipool_8c.html" target="_top" xlink:title=" ">
<polygon fill="white" stroke="black" points="836.5,-232.5 836.5,-253.5 897.5,-253.5 897.5,-232.5 836.5,-232.5"/>
<text text-anchor="middle" x="867" y="-239.9" font-family="DejaVuSans" font-size="12.00">inipool.c</text>
</a>
</g>
</g>
<!-- Node1&#45;&gt;Node18 -->
<g id="edge34" class="edge">
<title>Node1&#45;&gt;Node18</title>
<path fill="none" stroke="midnightblue" d="M607.2,-294.51C653.97,-286.21 744.99,-269.75 822,-254 826.55,-253.07 831.34,-252.05 836.04,-251.02"/>
<polygon fill="midnightblue" stroke="midnightblue" points="606.34,-291.11 597.11,-296.3 607.56,-298 606.34,-291.11"/>
</g>
<!-- Node19 -->
<g id="node19" class="node">
<title>Node19</title>
<g id="a_node19"><a xlink:href="str_8c.html" target="_top" xlink:title=" ">
<polygon fill="white" stroke="black" points="916,-232.5 916,-253.5 954,-253.5 954,-232.5 916,-232.5"/>
<text text-anchor="middle" x="935" y="-239.9" font-family="DejaVuSans" font-size="12.00">str.c</text>
</a>
</g>
</g>
<!-- Node1&#45;&gt;Node19 -->
<g id="edge38" class="edge">
<title>Node1&#45;&gt;Node19</title>
<path fill="none" stroke="midnightblue" d="M607.39,-297.79C666.65,-293.15 798.79,-280.55 907,-254 909.91,-253.29 912.94,-252.38 915.88,-251.41"/>
<polygon fill="midnightblue" stroke="midnightblue" points="606.9,-294.32 597.19,-298.57 607.43,-301.3 606.9,-294.32"/>
</g>
<!-- Node4 -->
<g id="node4" class="node">
<title>Node4</title>
<g id="a_node4"><a xlink:href="scan_8h.html" target="_top" xlink:title=" ">
<polygon fill="white" stroke="black" points="562,-174.5 562,-195.5 614,-195.5 614,-174.5 562,-174.5"/>
<text text-anchor="middle" x="588" y="-181.9" font-family="DejaVuSans" font-size="12.00">scan.h</text>
</a>
</g>
</g>
<!-- Node3&#45;&gt;Node4 -->
<g id="edge3" class="edge">
<title>Node3&#45;&gt;Node4</title>
<path fill="none" stroke="midnightblue" d="M476.44,-228.79C503.1,-218.56 539.38,-204.65 563.23,-195.5"/>
<polygon fill="midnightblue" stroke="midnightblue" points="475.18,-225.52 467.1,-232.37 477.69,-232.06 475.18,-225.52"/>
</g>
<!-- Node3&#45;&gt;Node7 -->
<g id="edge19" class="edge">
<title>Node3&#45;&gt;Node7</title>
<path fill="none" stroke="midnightblue" d="M406,-233.08C377.47,-225.29 337.05,-212.63 304,-196 235.17,-161.36 162.89,-102.94 135.46,-79.83"/>
<polygon fill="midnightblue" stroke="midnightblue" points="405.37,-236.54 415.94,-235.73 407.17,-229.77 405.37,-236.54"/>
</g>
<!-- Node3&#45;&gt;Node8 -->
<g id="edge20" class="edge">
<title>Node3&#45;&gt;Node8</title>
<path fill="none" stroke="midnightblue" d="M410.09,-228.39C371.39,-210.95 305.36,-178.13 257,-138 235.66,-120.29 216.15,-93.87 206.45,-79.74"/>
<polygon fill="midnightblue" stroke="midnightblue" points="408.75,-231.62 419.31,-232.48 411.59,-225.22 408.75,-231.62"/>
</g>
<!-- Node3&#45;&gt;Node10 -->
<g id="edge21" class="edge">
<title>Node3&#45;&gt;Node10</title>
<path fill="none" stroke="midnightblue" d="M446.26,-222.21C454.21,-185.24 471.05,-106.94 476.93,-79.63"/>
<polygon fill="midnightblue" stroke="midnightblue" points="442.78,-221.75 444.1,-232.26 449.62,-223.22 442.78,-221.75"/>
</g>
<!-- Node11 -->
<g id="node11" class="node">
<title>Node11</title>
<g id="a_node11"><a xlink:href="lexer_8c.html" target="_top" xlink:title=" ">
<polygon fill="white" stroke="black" points="379.5,-58.5 379.5,-79.5 430.5,-79.5 430.5,-58.5 379.5,-58.5"/>
<text text-anchor="middle" x="405" y="-65.9" font-family="DejaVuSans" font-size="12.00">lexer.c</text>
</a>
</g>
</g>
<!-- Node3&#45;&gt;Node11 -->
<g id="edge22" class="edge">
<title>Node3&#45;&gt;Node11</title>
<path fill="none" stroke="midnightblue" d="M423.76,-225.44C404.39,-206.5 374.96,-173.51 363,-138 359.88,-128.73 359.46,-125.12 363,-116 368.79,-101.08 381.92,-88.04 391.97,-79.69"/>
<polygon fill="midnightblue" stroke="midnightblue" points="421.46,-228.08 431.12,-232.44 426.28,-223.01 421.46,-228.08"/>
</g>
<!-- Node3&#45;&gt;Node14 -->
<g id="edge23" class="edge">
<title>Node3&#45;&gt;Node14</title>
<path fill="none" stroke="midnightblue" d="M455.43,-224.09C482.53,-187.95 542.94,-107.41 563.77,-79.63"/>
<polygon fill="midnightblue" stroke="midnightblue" points="452.51,-222.16 449.31,-232.26 458.11,-226.36 452.51,-222.16"/>
</g>
<!-- Node5 -->
<g id="node5" class="node">
<title>Node5</title>
<g id="a_node5"><a xlink:href="global_8h.html" target="_top" xlink:title=" ">
<polygon fill="white" stroke="black" points="372,-116.5 372,-137.5 430,-137.5 430,-116.5 372,-116.5"/>
<text text-anchor="middle" x="401" y="-123.9" font-family="DejaVuSans" font-size="12.00">global.h</text>
</a>
</g>
</g>
<!-- Node4&#45;&gt;Node5 -->
<g id="edge4" class="edge">
<title>Node4&#45;&gt;Node5</title>
<path fill="none" stroke="midnightblue" d="M552.06,-173.24C516.6,-162.62 463.06,-146.59 430.16,-136.73"/>
<polygon fill="midnightblue" stroke="midnightblue" points="551.41,-176.7 562,-176.21 553.42,-169.99 551.41,-176.7"/>
</g>
<!-- Node4&#45;&gt;Node7 -->
<g id="edge15" class="edge">
<title>Node4&#45;&gt;Node7</title>
<path fill="none" stroke="midnightblue" d="M551.55,-182.89C489.63,-180.14 360.57,-170.65 257,-138 211.49,-123.65 162.69,-94.8 138.84,-79.71"/>
<polygon fill="midnightblue" stroke="midnightblue" points="551.46,-186.39 561.6,-183.3 551.75,-179.4 551.46,-186.39"/>
</g>
<!-- Node4&#45;&gt;Node13 -->
<g id="edge17" class="edge">
<title>Node4&#45;&gt;Node13</title>
<path fill="none" stroke="midnightblue" d="M599.1,-165.36C607.3,-151.66 618.75,-132.62 629,-116 636.73,-103.46 645.81,-89.12 651.72,-79.84"/>
<polygon fill="midnightblue" stroke="midnightblue" points="595.9,-163.9 593.78,-174.28 601.91,-167.49 595.9,-163.9"/>
</g>
<!-- Node4&#45;&gt;Node14 -->
<g id="edge18" class="edge">
<title>Node4&#45;&gt;Node14</title>
<path fill="none" stroke="midnightblue" d="M585.06,-164.25C581.38,-139.58 575.23,-98.35 572.45,-79.69"/>
<polygon fill="midnightblue" stroke="midnightblue" points="581.61,-164.91 586.55,-174.28 588.54,-163.87 581.61,-164.91"/>
</g>
<!-- Node4&#45;&gt;Node16 -->
<g id="edge16" class="edge">
<title>Node4&#45;&gt;Node16</title>
<path fill="none" stroke="midnightblue" d="M610.99,-168.49C625.63,-158.61 644.14,-146.12 656.71,-137.64"/>
<polygon fill="midnightblue" stroke="midnightblue" points="608.79,-165.75 602.46,-174.25 612.7,-171.55 608.79,-165.75"/>
</g>
<!-- Node6 -->
<g id="node6" class="node">
<title>Node6</title>
<g id="a_node6"><a xlink:href="error_8c.html" target="_top" xlink:title=" ">
<polygon fill="white" stroke="black" points="311,-58.5 311,-79.5 361,-79.5 361,-58.5 311,-58.5"/>
<text text-anchor="middle" x="336" y="-65.9" font-family="DejaVuSans" font-size="12.00">error.c</text>
</a>
</g>
</g>
<!-- Node5&#45;&gt;Node6 -->
<g id="edge5" class="edge">
<title>Node5&#45;&gt;Node6</title>
<path fill="none" stroke="midnightblue" d="M382.02,-109.65C370.71,-99.91 356.75,-87.88 347.19,-79.64"/>
<polygon fill="midnightblue" stroke="midnightblue" points="379.82,-112.37 389.68,-116.25 384.39,-107.07 379.82,-112.37"/>
</g>
<!-- Node5&#45;&gt;Node7 -->
<g id="edge6" class="edge">
<title>Node5&#45;&gt;Node7</title>
<path fill="none" stroke="midnightblue" d="M361.8,-118.94C314.88,-110.35 233.99,-95.13 165,-80 162.28,-79.4 159.46,-78.76 156.64,-78.11"/>
<polygon fill="midnightblue" stroke="midnightblue" points="361.38,-122.42 371.84,-120.77 362.63,-115.53 361.38,-122.42"/>
</g>
<!-- Node5&#45;&gt;Node8 -->
<g id="edge7" class="edge">
<title>Node5&#45;&gt;Node8</title>
<path fill="none" stroke="midnightblue" d="M362.04,-115.47C328.16,-106.27 277.77,-92.46 234,-80 231.28,-79.22 228.44,-78.41 225.61,-77.58"/>
<polygon fill="midnightblue" stroke="midnightblue" points="361.43,-118.93 372,-118.17 363.26,-112.18 361.43,-118.93"/>
</g>
<!-- Node5&#45;&gt;Node9 -->
<g id="edge8" class="edge">
<title>Node5&#45;&gt;Node9</title>
<path fill="none" stroke="midnightblue" d="M440.06,-120.04C514.88,-108.62 676.65,-83.94 740.9,-74.14"/>
<polygon fill="midnightblue" stroke="midnightblue" points="439.46,-116.59 430.1,-121.56 440.52,-123.51 439.46,-116.59"/>
</g>
<!-- Node5&#45;&gt;Node10 -->
<g id="edge9" class="edge">
<title>Node5&#45;&gt;Node10</title>
<path fill="none" stroke="midnightblue" d="M422.99,-110.21C436.69,-100.37 453.87,-88.04 465.57,-79.64"/>
<polygon fill="midnightblue" stroke="midnightblue" points="420.67,-107.57 414.59,-116.25 424.75,-113.26 420.67,-107.57"/>
</g>
<!-- Node5&#45;&gt;Node11 -->
<g id="edge10" class="edge">
<title>Node5&#45;&gt;Node11</title>
<path fill="none" stroke="midnightblue" d="M402.42,-106.16C403.06,-97.16 403.79,-86.92 404.31,-79.64"/>
<polygon fill="midnightblue" stroke="midnightblue" points="398.92,-106.02 401.7,-116.25 405.9,-106.52 398.92,-106.02"/>
</g>
<!-- Node12 -->
<g id="node12" class="node">
<title>Node12</title>
<g id="a_node12"><a xlink:href="print_8c.html" target="_top" xlink:title=" ">
<polygon fill="white" stroke="black" points="243.5,-58.5 243.5,-79.5 292.5,-79.5 292.5,-58.5 243.5,-58.5"/>
<text text-anchor="middle" x="268" y="-65.9" font-family="DejaVuSans" font-size="12.00">print.c</text>
</a>
</g>
</g>
<!-- Node5&#45;&gt;Node12 -->
<g id="edge11" class="edge">
<title>Node5&#45;&gt;Node12</title>
<path fill="none" stroke="midnightblue" d="M368.66,-112.38C344.47,-102.2 312,-88.53 290.57,-79.5"/>
<polygon fill="midnightblue" stroke="midnightblue" points="367.56,-115.72 378.14,-116.37 370.28,-109.27 367.56,-115.72"/>
</g>
<!-- Node5&#45;&gt;Node13 -->
<g id="edge12" class="edge">
<title>Node5&#45;&gt;Node13</title>
<path fill="none" stroke="midnightblue" d="M440.35,-118.76C484.89,-110.35 559.49,-95.63 623,-80 626.07,-79.24 629.27,-78.4 632.44,-77.54"/>
<polygon fill="midnightblue" stroke="midnightblue" points="439.43,-115.37 430.25,-120.65 440.72,-122.25 439.43,-115.37"/>
</g>
<!-- Node5&#45;&gt;Node14 -->
<g id="edge13" class="edge">
<title>Node5&#45;&gt;Node14</title>
<path fill="none" stroke="midnightblue" d="M439.89,-113.19C471.03,-102.93 514.02,-88.77 542.16,-79.5"/>
<polygon fill="midnightblue" stroke="midnightblue" points="438.63,-109.92 430.22,-116.37 440.82,-116.57 438.63,-109.92"/>
</g>
<!-- Node15 -->
<g id="node15" class="node">
<title>Node15</title>
<g id="a_node15"><a xlink:href="tex_8c.html" target="_top" xlink:title=" ">
<polygon fill="white" stroke="black" points="550.5,-0.5 550.5,-21.5 591.5,-21.5 591.5,-0.5 550.5,-0.5"/>
<text text-anchor="middle" x="571" y="-7.9" font-family="DejaVuSans" font-size="12.00">tex.c</text>
</a>
</g>
</g>
<!-- Node14&#45;&gt;Node15 -->
<g id="edge14" class="edge">
<title>Node14&#45;&gt;Node15</title>
<path fill="none" stroke="midnightblue" d="M571,-48.16C571,-39.16 571,-28.92 571,-21.64"/>
<polygon fill="midnightblue" stroke="midnightblue" points="567.5,-48.25 571,-58.25 574.5,-48.25 567.5,-48.25"/>
</g>
<!-- Node17&#45;&gt;Node6 -->
<g id="edge25" class="edge">
<title>Node17&#45;&gt;Node6</title>
<path fill="none" stroke="midnightblue" d="M305.29,-108.21C312.9,-98.75 321.95,-87.48 328.25,-79.64"/>
<polygon fill="midnightblue" stroke="midnightblue" points="302.37,-106.26 298.84,-116.25 307.83,-110.64 302.37,-106.26"/>
</g>
<!-- Node17&#45;&gt;Node7 -->
<g id="edge26" class="edge">
<title>Node17&#45;&gt;Node7</title>
<path fill="none" stroke="midnightblue" d="M256.14,-114.31C225.41,-104.01 181.2,-89.18 152.53,-79.57"/>
<polygon fill="midnightblue" stroke="midnightblue" points="255.4,-117.76 266,-117.62 257.63,-111.12 255.4,-117.76"/>
</g>
<!-- Node17&#45;&gt;Node8 -->
<g id="edge27" class="edge">
<title>Node17&#45;&gt;Node8</title>
<path fill="none" stroke="midnightblue" d="M266.25,-110.77C250.12,-100.85 229.57,-88.2 215.67,-79.64"/>
<polygon fill="midnightblue" stroke="midnightblue" points="264.8,-113.99 275.15,-116.25 268.47,-108.02 264.8,-113.99"/>
</g>
<!-- Node17&#45;&gt;Node11 -->
<g id="edge28" class="edge">
<title>Node17&#45;&gt;Node11</title>
<path fill="none" stroke="midnightblue" d="M319.83,-111.84C340.44,-101.71 367.61,-88.37 385.66,-79.5"/>
<polygon fill="midnightblue" stroke="midnightblue" points="318.03,-108.82 310.6,-116.37 321.12,-115.11 318.03,-108.82"/>
</g>
<!-- Node17&#45;&gt;Node12 -->
<g id="edge29" class="edge">
<title>Node17&#45;&gt;Node12</title>
<path fill="none" stroke="midnightblue" d="M283.09,-106.75C279.34,-97.61 275.01,-87.08 271.96,-79.64"/>
<polygon fill="midnightblue" stroke="midnightblue" points="279.96,-108.33 286.99,-116.25 286.43,-105.67 279.96,-108.33"/>
</g>
<!-- Node17&#45;&gt;Node14 -->
<g id="edge30" class="edge">
<title>Node17&#45;&gt;Node14</title>
<path fill="none" stroke="midnightblue" d="M326.29,-118.94C377.54,-108.69 472.48,-89.7 527.83,-78.63"/>
<polygon fill="midnightblue" stroke="midnightblue" points="325.46,-115.54 316.34,-120.93 326.83,-122.4 325.46,-115.54"/>
</g>
</g>
</svg>
