<?xml version="1.0" encoding="UTF-8" standalone="no"?>
<!DOCTYPE svg PUBLIC "-//W3C//DTD SVG 1.1//EN"
 "http://www.w3.org/Graphics/SVG/1.1/DTD/svg11.dtd">
<!-- Generated by graphviz version 2.44.0 ()
 -->
<!-- Title: tex_constant.h Pages: 1 -->
<svg width="309pt" height="320pt"
 viewBox="0.00 0.00 308.70 320.00" xmlns="http://www.w3.org/2000/svg" xmlns:xlink="http://www.w3.org/1999/xlink">
<g id="graph0" class="graph" transform="scale(1 1) rotate(0) translate(4 316)">
<title>tex_constant.h</title>
<polygon fill="white" stroke="transparent" points="-4,4 -4,-316 304.7,-316 304.7,4 -4,4"/>
<!-- Node1 -->
<g id="node1" class="node">
<title>Node1</title>
<g id="a_node1"><a xlink:title=" ">
<polygon fill="#bfbfbf" stroke="black" points="154.7,-290.5 154.7,-311.5 248.7,-311.5 248.7,-290.5 154.7,-290.5"/>
<text text-anchor="middle" x="201.7" y="-297.9" font-family="DejaVuSans" font-size="12.00">tex_constant.h</text>
</a>
</g>
</g>
<!-- Node2 -->
<g id="node2" class="node">
<title>Node2</title>
<g id="a_node2"><a xlink:href="box_8h.html" target="_top" xlink:title=" ">
<polygon fill="white" stroke="black" points="178.7,-232.5 178.7,-253.5 224.7,-253.5 224.7,-232.5 178.7,-232.5"/>
<text text-anchor="middle" x="201.7" y="-239.9" font-family="DejaVuSans" font-size="12.00">box.h</text>
</a>
</g>
</g>
<!-- Node1&#45;&gt;Node2 -->
<g id="edge1" class="edge">
<title>Node1&#45;&gt;Node2</title>
<path fill="none" stroke="midnightblue" d="M201.7,-290.25C201.7,-282.94 201.7,-272.69 201.7,-263.7"/>
<polygon fill="midnightblue" stroke="midnightblue" points="205.2,-263.64 201.7,-253.64 198.2,-263.64 205.2,-263.64"/>
</g>
<!-- Node3 -->
<g id="node3" class="node">
<title>Node3</title>
<g id="a_node3"><a xlink:href="str_8h.html" target="_top" xlink:title=" ">
<polygon fill="white" stroke="black" points="146.2,-174.5 146.2,-195.5 185.2,-195.5 185.2,-174.5 146.2,-174.5"/>
<text text-anchor="middle" x="165.7" y="-181.9" font-family="DejaVuSans" font-size="12.00">str.h</text>
</a>
</g>
</g>
<!-- Node2&#45;&gt;Node3 -->
<g id="edge2" class="edge">
<title>Node2&#45;&gt;Node3</title>
<path fill="none" stroke="midnightblue" d="M195.43,-232.25C190.47,-224.54 183.42,-213.56 177.42,-204.23"/>
<polygon fill="midnightblue" stroke="midnightblue" points="180.25,-202.16 171.9,-195.64 174.36,-205.95 180.25,-202.16"/>
</g>
<!-- Node11 -->
<g id="node11" class="node">
<title>Node11</title>
<g id="a_node11"><a xlink:href="texmath_8h.html" target="_top" xlink:title=" ">
<polygon fill="white" stroke="black" points="232.7,-174.5 232.7,-195.5 300.7,-195.5 300.7,-174.5 232.7,-174.5"/>
<text text-anchor="middle" x="266.7" y="-181.9" font-family="DejaVuSans" font-size="12.00">texmath.h</text>
</a>
</g>
</g>
<!-- Node2&#45;&gt;Node11 -->
<g id="edge13" class="edge">
<title>Node2&#45;&gt;Node11</title>
<path fill="none" stroke="midnightblue" d="M213.02,-232.25C222.62,-223.97 236.59,-211.94 247.87,-202.22"/>
<polygon fill="midnightblue" stroke="midnightblue" points="250.21,-204.82 255.51,-195.64 245.65,-199.52 250.21,-204.82"/>
</g>
<!-- Node4 -->
<g id="node4" class="node">
<title>Node4</title>
<g id="a_node4"><a xlink:title=" ">
<polygon fill="white" stroke="#bfbfbf" points="108.7,-58.5 108.7,-79.5 160.7,-79.5 160.7,-58.5 108.7,-58.5"/>
<text text-anchor="middle" x="134.7" y="-65.9" font-family="DejaVuSans" font-size="12.00">stdio.h</text>
</a>
</g>
</g>
<!-- Node3&#45;&gt;Node4 -->
<g id="edge3" class="edge">
<title>Node3&#45;&gt;Node4</title>
<path fill="none" stroke="midnightblue" d="M163.06,-174.28C157.95,-155.52 146.66,-114 139.97,-89.38"/>
<polygon fill="midnightblue" stroke="midnightblue" points="143.34,-88.43 137.33,-79.69 136.58,-90.26 143.34,-88.43"/>
</g>
<!-- Node5 -->
<g id="node5" class="node">
<title>Node5</title>
<g id="a_node5"><a xlink:title=" ">
<polygon fill="white" stroke="#bfbfbf" points="45.2,-0.5 45.2,-21.5 100.2,-21.5 100.2,-0.5 45.2,-0.5"/>
<text text-anchor="middle" x="72.7" y="-7.9" font-family="DejaVuSans" font-size="12.00">stdint.h</text>
</a>
</g>
</g>
<!-- Node3&#45;&gt;Node5 -->
<g id="edge4" class="edge">
<title>Node3&#45;&gt;Node5</title>
<path fill="none" stroke="midnightblue" d="M146.14,-181.35C107.12,-175.63 21.85,-160.74 4.7,-138 -8.79,-120.12 10.05,-76.53 21.7,-58 29.03,-46.33 40.15,-35.81 50.13,-27.8"/>
<polygon fill="midnightblue" stroke="midnightblue" points="52.32,-30.53 58.14,-21.68 48.07,-24.96 52.32,-30.53"/>
</g>
<!-- Node6 -->
<g id="node6" class="node">
<title>Node6</title>
<g id="a_node6"><a xlink:href="global__const_8h.html" target="_top" xlink:title=" ">
<polygon fill="white" stroke="black" points="14.2,-116.5 14.2,-137.5 107.2,-137.5 107.2,-116.5 14.2,-116.5"/>
<text text-anchor="middle" x="60.7" y="-123.9" font-family="DejaVuSans" font-size="12.00">global_const.h</text>
</a>
</g>
</g>
<!-- Node3&#45;&gt;Node6 -->
<g id="edge5" class="edge">
<title>Node3&#45;&gt;Node6</title>
<path fill="none" stroke="midnightblue" d="M147.41,-174.25C130.92,-165.45 106.46,-152.41 87.72,-142.41"/>
<polygon fill="midnightblue" stroke="midnightblue" points="89.25,-139.26 78.78,-137.64 85.96,-145.44 89.25,-139.26"/>
</g>
<!-- Node8 -->
<g id="node8" class="node">
<title>Node8</title>
<g id="a_node8"><a xlink:href="charset_8h.html" target="_top" xlink:title=" ">
<polygon fill="white" stroke="black" points="164.2,-116.5 164.2,-137.5 229.2,-137.5 229.2,-116.5 164.2,-116.5"/>
<text text-anchor="middle" x="196.7" y="-123.9" font-family="DejaVuSans" font-size="12.00">charset.h</text>
</a>
</g>
</g>
<!-- Node3&#45;&gt;Node8 -->
<g id="edge8" class="edge">
<title>Node3&#45;&gt;Node8</title>
<path fill="none" stroke="midnightblue" d="M171.1,-174.25C175.32,-166.62 181.32,-155.79 186.44,-146.53"/>
<polygon fill="midnightblue" stroke="midnightblue" points="189.58,-148.09 191.36,-137.64 183.46,-144.7 189.58,-148.09"/>
</g>
<!-- Node9 -->
<g id="node9" class="node">
<title>Node9</title>
<g id="a_node9"><a xlink:href="tex__types_8h.html" target="_top" xlink:title=" ">
<polygon fill="white" stroke="black" points="199.2,-58.5 199.2,-79.5 276.2,-79.5 276.2,-58.5 199.2,-58.5"/>
<text text-anchor="middle" x="237.7" y="-65.9" font-family="DejaVuSans" font-size="12.00">tex_types.h</text>
</a>
</g>
</g>
<!-- Node3&#45;&gt;Node9 -->
<g id="edge12" class="edge">
<title>Node3&#45;&gt;Node9</title>
<path fill="none" stroke="midnightblue" d="M185.32,-177.59C202.59,-170.77 226.65,-158.16 237.7,-138 245.66,-123.46 244.89,-104.4 242.57,-90.17"/>
<polygon fill="midnightblue" stroke="midnightblue" points="245.92,-89.07 240.51,-79.96 239.05,-90.45 245.92,-89.07"/>
</g>
<!-- Node6&#45;&gt;Node4 -->
<g id="edge7" class="edge">
<title>Node6&#45;&gt;Node4</title>
<path fill="none" stroke="midnightblue" d="M73.59,-116.25C84.62,-107.89 100.73,-95.71 113.63,-85.94"/>
<polygon fill="midnightblue" stroke="midnightblue" points="116.09,-88.47 121.96,-79.64 111.87,-82.89 116.09,-88.47"/>
</g>
<!-- Node7 -->
<g id="node7" class="node">
<title>Node7</title>
<g id="a_node7"><a xlink:title=" ">
<polygon fill="white" stroke="#bfbfbf" points="31.2,-58.5 31.2,-79.5 90.2,-79.5 90.2,-58.5 31.2,-58.5"/>
<text text-anchor="middle" x="60.7" y="-65.9" font-family="DejaVuSans" font-size="12.00">assert.h</text>
</a>
</g>
</g>
<!-- Node6&#45;&gt;Node7 -->
<g id="edge6" class="edge">
<title>Node6&#45;&gt;Node7</title>
<path fill="none" stroke="midnightblue" d="M60.7,-116.25C60.7,-108.94 60.7,-98.69 60.7,-89.7"/>
<polygon fill="midnightblue" stroke="midnightblue" points="64.2,-89.64 60.7,-79.64 57.2,-89.64 64.2,-89.64"/>
</g>
<!-- Node8&#45;&gt;Node9 -->
<g id="edge9" class="edge">
<title>Node8&#45;&gt;Node9</title>
<path fill="none" stroke="midnightblue" d="M203.84,-116.25C209.54,-108.46 217.69,-97.33 224.56,-87.94"/>
<polygon fill="midnightblue" stroke="midnightblue" points="227.56,-89.78 230.64,-79.64 221.91,-85.64 227.56,-89.78"/>
</g>
<!-- Node9&#45;&gt;Node5 -->
<g id="edge11" class="edge">
<title>Node9&#45;&gt;Node5</title>
<path fill="none" stroke="midnightblue" d="M209.33,-58.37C181.93,-49.07 140.27,-34.93 110.15,-24.71"/>
<polygon fill="midnightblue" stroke="midnightblue" points="111.01,-21.31 100.42,-21.41 108.76,-27.94 111.01,-21.31"/>
</g>
<!-- Node10 -->
<g id="node10" class="node">
<title>Node10</title>
<g id="a_node10"><a xlink:title=" ">
<polygon fill="white" stroke="#bfbfbf" points="205.2,-0.5 205.2,-21.5 270.2,-21.5 270.2,-0.5 205.2,-0.5"/>
<text text-anchor="middle" x="237.7" y="-7.9" font-family="DejaVuSans" font-size="12.00">stdbool.h</text>
</a>
</g>
</g>
<!-- Node9&#45;&gt;Node10 -->
<g id="edge10" class="edge">
<title>Node9&#45;&gt;Node10</title>
<path fill="none" stroke="midnightblue" d="M237.7,-58.25C237.7,-50.94 237.7,-40.69 237.7,-31.7"/>
<polygon fill="midnightblue" stroke="midnightblue" points="241.2,-31.64 237.7,-21.64 234.2,-31.64 241.2,-31.64"/>
</g>
<!-- Node11&#45;&gt;Node9 -->
<g id="edge14" class="edge">
<title>Node11&#45;&gt;Node9</title>
<path fill="none" stroke="midnightblue" d="M269.64,-174.48C273.3,-161.07 278.29,-136.01 271.7,-116 268.19,-105.36 261.17,-95.16 254.42,-87.09"/>
<polygon fill="midnightblue" stroke="midnightblue" points="256.91,-84.62 247.63,-79.51 251.7,-89.29 256.91,-84.62"/>
</g>
</g>
</svg>
