<?xml version="1.0" encoding="UTF-8" standalone="no"?>
<!DOCTYPE svg PUBLIC "-//W3C//DTD SVG 1.1//EN"
 "http://www.w3.org/Graphics/SVG/1.1/DTD/svg11.dtd">
<!-- Generated by graphviz version 2.44.0 ()
 -->
<!-- Title: tex.c Pages: 1 -->
<svg width="1603pt" height="784pt"
 viewBox="0.00 0.00 1602.99 784.00" xmlns="http://www.w3.org/2000/svg" xmlns:xlink="http://www.w3.org/1999/xlink">
<g id="graph0" class="graph" transform="scale(1 1) rotate(0) translate(4 780)">
<title>tex.c</title>
<polygon fill="white" stroke="transparent" points="-4,4 -4,-780 1598.99,-780 1598.99,4 -4,4"/>
<!-- Node1 -->
<g id="node1" class="node">
<title>Node1</title>
<g id="a_node1"><a xlink:title=" ">
<polygon fill="#bfbfbf" stroke="black" points="704.99,-754.5 704.99,-775.5 745.99,-775.5 745.99,-754.5 704.99,-754.5"/>
<text text-anchor="middle" x="725.49" y="-761.9" font-family="DejaVuSans" font-size="12.00">tex.c</text>
</a>
</g>
</g>
<!-- Node2 -->
<g id="node2" class="node">
<title>Node2</title>
<g id="a_node2"><a xlink:href="tex__header_8h.html" target="_top" xlink:title=" ">
<polygon fill="white" stroke="black" points="682.49,-696.5 682.49,-717.5 768.49,-717.5 768.49,-696.5 682.49,-696.5"/>
<text text-anchor="middle" x="725.49" y="-703.9" font-family="DejaVuSans" font-size="12.00">tex_header.h</text>
</a>
</g>
</g>
<!-- Node1&#45;&gt;Node2 -->
<g id="edge1" class="edge">
<title>Node1&#45;&gt;Node2</title>
<path fill="none" stroke="midnightblue" d="M725.49,-754.25C725.49,-746.94 725.49,-736.69 725.49,-727.7"/>
<polygon fill="midnightblue" stroke="midnightblue" points="728.99,-727.64 725.49,-717.64 721.99,-727.64 728.99,-727.64"/>
</g>
<!-- Node3 -->
<g id="node3" class="node">
<title>Node3</title>
<g id="a_node3"><a xlink:title=" ">
<polygon fill="white" stroke="#bfbfbf" points="1082.49,-0.5 1082.49,-21.5 1134.49,-21.5 1134.49,-0.5 1082.49,-0.5"/>
<text text-anchor="middle" x="1108.49" y="-7.9" font-family="DejaVuSans" font-size="12.00">stdio.h</text>
</a>
</g>
</g>
<!-- Node2&#45;&gt;Node3 -->
<g id="edge2" class="edge">
<title>Node2&#45;&gt;Node3</title>
<path fill="none" stroke="midnightblue" d="M768.64,-704.04C864.78,-699.25 1089.94,-685.39 1112.49,-660 1118.99,-652.69 1112.58,-647.78 1112.49,-638 1111.6,-540.21 1108.49,-515.79 1108.49,-418 1108.49,-418 1108.49,-418 1108.49,-126 1108.49,-92.98 1108.49,-54.59 1108.49,-31.85"/>
<polygon fill="midnightblue" stroke="midnightblue" points="1111.99,-31.76 1108.49,-21.76 1104.99,-31.76 1111.99,-31.76"/>
</g>
<!-- Node4 -->
<g id="node4" class="node">
<title>Node4</title>
<g id="a_node4"><a xlink:title=" ">
<polygon fill="white" stroke="#bfbfbf" points="19.49,-638.5 19.49,-659.5 73.49,-659.5 73.49,-638.5 19.49,-638.5"/>
<text text-anchor="middle" x="46.49" y="-645.9" font-family="DejaVuSans" font-size="12.00">stdlib.h</text>
</a>
</g>
</g>
<!-- Node2&#45;&gt;Node4 -->
<g id="edge3" class="edge">
<title>Node2&#45;&gt;Node4</title>
<path fill="none" stroke="midnightblue" d="M682.24,-705.87C579.64,-704.93 313.49,-698.78 83.76,-659.91"/>
<polygon fill="midnightblue" stroke="midnightblue" points="84.33,-656.46 73.88,-658.22 83.15,-663.36 84.33,-656.46"/>
</g>
<!-- Node5 -->
<g id="node5" class="node">
<title>Node5</title>
<g id="a_node5"><a xlink:title=" ">
<polygon fill="white" stroke="#bfbfbf" points="91.49,-638.5 91.49,-659.5 147.49,-659.5 147.49,-638.5 91.49,-638.5"/>
<text text-anchor="middle" x="119.49" y="-645.9" font-family="DejaVuSans" font-size="12.00">string.h</text>
</a>
</g>
</g>
<!-- Node2&#45;&gt;Node5 -->
<g id="edge4" class="edge">
<title>Node2&#45;&gt;Node5</title>
<path fill="none" stroke="midnightblue" d="M682.33,-705.2C588.43,-702.89 358.59,-694.11 157.8,-659.94"/>
<polygon fill="midnightblue" stroke="midnightblue" points="158.11,-656.44 147.66,-658.18 156.91,-663.33 158.11,-656.44"/>
</g>
<!-- Node6 -->
<g id="node6" class="node">
<title>Node6</title>
<g id="a_node6"><a xlink:title=" ">
<polygon fill="white" stroke="#bfbfbf" points="165.99,-638.5 165.99,-659.5 218.99,-659.5 218.99,-638.5 165.99,-638.5"/>
<text text-anchor="middle" x="192.49" y="-645.9" font-family="DejaVuSans" font-size="12.00">math.h</text>
</a>
</g>
</g>
<!-- Node2&#45;&gt;Node6 -->
<g id="edge5" class="edge">
<title>Node2&#45;&gt;Node6</title>
<path fill="none" stroke="midnightblue" d="M682.26,-704.6C597.2,-701.27 402.09,-690.89 229.15,-659.8"/>
<polygon fill="midnightblue" stroke="midnightblue" points="229.57,-656.32 219.11,-657.96 228.32,-663.2 229.57,-656.32"/>
</g>
<!-- Node7 -->
<g id="node7" class="node">
<title>Node7</title>
<g id="a_node7"><a xlink:href="global__const_8h.html" target="_top" xlink:title=" ">
<polygon fill="white" stroke="black" points="1174.99,-58.5 1174.99,-79.5 1267.99,-79.5 1267.99,-58.5 1174.99,-58.5"/>
<text text-anchor="middle" x="1221.49" y="-65.9" font-family="DejaVuSans" font-size="12.00">global_const.h</text>
</a>
</g>
</g>
<!-- Node2&#45;&gt;Node7 -->
<g id="edge6" class="edge">
<title>Node2&#45;&gt;Node7</title>
<path fill="none" stroke="midnightblue" d="M768.72,-706.25C921.06,-706.73 1426.9,-704.91 1482.49,-660 1506.9,-640.28 1501.49,-623.38 1501.49,-592 1501.49,-592 1501.49,-592 1501.49,-184 1501.49,-136.2 1359.74,-98.71 1277.95,-81.05"/>
<polygon fill="midnightblue" stroke="midnightblue" points="1278.55,-77.6 1268.04,-78.95 1277.1,-84.45 1278.55,-77.6"/>
</g>
<!-- Node9 -->
<g id="node9" class="node">
<title>Node9</title>
<g id="a_node9"><a xlink:href="texmath_8h.html" target="_top" xlink:title=" ">
<polygon fill="white" stroke="black" points="31.49,-522.5 31.49,-543.5 99.49,-543.5 99.49,-522.5 31.49,-522.5"/>
<text text-anchor="middle" x="65.49" y="-529.9" font-family="DejaVuSans" font-size="12.00">texmath.h</text>
</a>
</g>
</g>
<!-- Node2&#45;&gt;Node9 -->
<g id="edge9" class="edge">
<title>Node2&#45;&gt;Node9</title>
<path fill="none" stroke="midnightblue" d="M682.37,-704.84C531.27,-700.55 33.57,-684.61 10.49,-660 -19.39,-628.13 21.59,-577.41 47.37,-551.09"/>
<polygon fill="midnightblue" stroke="midnightblue" points="50.13,-553.28 54.78,-543.76 45.21,-548.3 50.13,-553.28"/>
</g>
<!-- Node13 -->
<g id="node13" class="node">
<title>Node13</title>
<g id="a_node13"><a xlink:href="tex_8h.html" target="_top" xlink:title=" ">
<polygon fill="white" stroke="black" points="418.49,-290.5 418.49,-311.5 460.49,-311.5 460.49,-290.5 418.49,-290.5"/>
<text text-anchor="middle" x="439.49" y="-297.9" font-family="DejaVuSans" font-size="12.00">tex.h</text>
</a>
</g>
</g>
<!-- Node2&#45;&gt;Node13 -->
<g id="edge13" class="edge">
<title>Node2&#45;&gt;Node13</title>
<path fill="none" stroke="midnightblue" d="M682.38,-704.74C643.09,-701.5 585.4,-691.24 546.49,-660 492.86,-616.95 509.67,-582.24 476.49,-522 453.04,-479.4 433.4,-474.89 420.49,-428 410.27,-390.86 422.74,-345.95 431.77,-321.02"/>
<polygon fill="midnightblue" stroke="midnightblue" points="435.05,-322.24 435.35,-311.65 428.51,-319.74 435.05,-322.24"/>
</g>
<!-- Node15 -->
<g id="node15" class="node">
<title>Node15</title>
<g id="a_node15"><a xlink:href="box_8h.html" target="_top" xlink:title=" ">
<polygon fill="white" stroke="black" points="561.49,-174.5 561.49,-195.5 607.49,-195.5 607.49,-174.5 561.49,-174.5"/>
<text text-anchor="middle" x="584.49" y="-181.9" font-family="DejaVuSans" font-size="12.00">box.h</text>
</a>
</g>
</g>
<!-- Node2&#45;&gt;Node15 -->
<g id="edge60" class="edge">
<title>Node2&#45;&gt;Node15</title>
<path fill="none" stroke="midnightblue" d="M693.18,-696.38C650.72,-681.52 581.49,-648.6 581.49,-592 581.49,-592 581.49,-592 581.49,-474 581.49,-373.28 583.35,-252.76 584.14,-205.95"/>
<polygon fill="midnightblue" stroke="midnightblue" points="587.65,-205.75 584.32,-195.7 580.65,-205.63 587.65,-205.75"/>
</g>
<!-- Node16 -->
<g id="node16" class="node">
<title>Node16</title>
<g id="a_node16"><a xlink:href="str_8h.html" target="_top" xlink:title=" ">
<polygon fill="white" stroke="black" points="615.99,-116.5 615.99,-137.5 654.99,-137.5 654.99,-116.5 615.99,-116.5"/>
<text text-anchor="middle" x="635.49" y="-123.9" font-family="DejaVuSans" font-size="12.00">str.h</text>
</a>
</g>
</g>
<!-- Node2&#45;&gt;Node16 -->
<g id="edge22" class="edge">
<title>Node2&#45;&gt;Node16</title>
<path fill="none" stroke="midnightblue" d="M768.52,-706.56C808.44,-704.67 866.76,-695.39 901.49,-660 969.07,-591.14 895.04,-329.7 886.49,-290 874.83,-235.78 883.69,-208.78 840.49,-174 813.76,-152.47 715.55,-137.74 665.4,-131.44"/>
<polygon fill="midnightblue" stroke="midnightblue" points="665.53,-127.93 655.18,-130.19 664.68,-134.88 665.53,-127.93"/>
</g>
<!-- Node17 -->
<g id="node17" class="node">
<title>Node17</title>
<g id="a_node17"><a xlink:href="texmac_8h.html" target="_top" xlink:title=" ">
<polygon fill="white" stroke="black" points="373.99,-580.5 373.99,-601.5 438.99,-601.5 438.99,-580.5 373.99,-580.5"/>
<text text-anchor="middle" x="406.49" y="-587.9" font-family="DejaVuSans" font-size="12.00">texmac.h</text>
</a>
</g>
</g>
<!-- Node2&#45;&gt;Node17 -->
<g id="edge23" class="edge">
<title>Node2&#45;&gt;Node17</title>
<path fill="none" stroke="midnightblue" d="M682.41,-702.79C615.59,-697.14 490.77,-683.72 453.49,-660 435.22,-648.37 422.16,-626.82 414.51,-611.08"/>
<polygon fill="midnightblue" stroke="midnightblue" points="417.59,-609.4 410.27,-601.75 411.22,-612.3 417.59,-609.4"/>
</g>
<!-- Node18 -->
<g id="node18" class="node">
<title>Node18</title>
<g id="a_node18"><a xlink:href="mem_8h.html" target="_top" xlink:title=" ">
<polygon fill="white" stroke="black" points="414.99,-522.5 414.99,-543.5 467.99,-543.5 467.99,-522.5 414.99,-522.5"/>
<text text-anchor="middle" x="441.49" y="-529.9" font-family="DejaVuSans" font-size="12.00">mem.h</text>
</a>
</g>
</g>
<!-- Node2&#45;&gt;Node18 -->
<g id="edge59" class="edge">
<title>Node2&#45;&gt;Node18</title>
<path fill="none" stroke="midnightblue" d="M682.45,-702.45C623.04,-696.74 519.99,-683.69 491.49,-660 459.05,-633.02 447.52,-582.03 443.53,-553.89"/>
<polygon fill="midnightblue" stroke="midnightblue" points="446.97,-553.18 442.27,-543.69 440.02,-554.04 446.97,-553.18"/>
</g>
<!-- Node19 -->
<g id="node19" class="node">
<title>Node19</title>
<g id="a_node19"><a xlink:href="global_8h.html" target="_top" xlink:title=" ">
<polygon fill="white" stroke="black" points="727.49,-464.5 727.49,-485.5 785.49,-485.5 785.49,-464.5 727.49,-464.5"/>
<text text-anchor="middle" x="756.49" y="-471.9" font-family="DejaVuSans" font-size="12.00">global.h</text>
</a>
</g>
</g>
<!-- Node2&#45;&gt;Node19 -->
<g id="edge37" class="edge">
<title>Node2&#45;&gt;Node19</title>
<path fill="none" stroke="midnightblue" d="M722.16,-696.35C718.03,-683.19 711.83,-658.88 714.49,-638 721.2,-585.38 739.71,-525.41 749.77,-495.35"/>
<polygon fill="midnightblue" stroke="midnightblue" points="753.14,-496.29 753.05,-485.69 746.52,-494.03 753.14,-496.29"/>
</g>
<!-- Node21 -->
<g id="node21" class="node">
<title>Node21</title>
<g id="a_node21"><a xlink:href="scan_8h.html" target="_top" xlink:title=" ">
<polygon fill="white" stroke="black" points="693.49,-406.5 693.49,-427.5 745.49,-427.5 745.49,-406.5 693.49,-406.5"/>
<text text-anchor="middle" x="719.49" y="-413.9" font-family="DejaVuSans" font-size="12.00">scan.h</text>
</a>
</g>
</g>
<!-- Node2&#45;&gt;Node21 -->
<g id="edge49" class="edge">
<title>Node2&#45;&gt;Node21</title>
<path fill="none" stroke="midnightblue" d="M714.87,-696.48C695.74,-678.25 657.49,-636.25 657.49,-592 657.49,-592 657.49,-592 657.49,-532 657.49,-493.81 684.67,-456.22 703.04,-435.17"/>
<polygon fill="midnightblue" stroke="midnightblue" points="705.69,-437.46 709.81,-427.7 700.5,-432.76 705.69,-437.46"/>
</g>
<!-- Node22 -->
<g id="node22" class="node">
<title>Node22</title>
<g id="a_node22"><a xlink:href="lexer_8h.html" target="_top" xlink:title=" ">
<polygon fill="white" stroke="black" points="693.49,-348.5 693.49,-369.5 745.49,-369.5 745.49,-348.5 693.49,-348.5"/>
<text text-anchor="middle" x="719.49" y="-355.9" font-family="DejaVuSans" font-size="12.00">lexer.h</text>
</a>
</g>
</g>
<!-- Node2&#45;&gt;Node22 -->
<g id="edge47" class="edge">
<title>Node2&#45;&gt;Node22</title>
<path fill="none" stroke="midnightblue" d="M768.65,-699.26C810.22,-691.78 868.79,-678.3 882.49,-660 893.6,-645.18 937.57,-529.09 834.49,-406 814.84,-382.53 781.47,-370.93 755.73,-365.27"/>
<polygon fill="midnightblue" stroke="midnightblue" points="756.07,-361.77 745.58,-363.25 754.7,-368.63 756.07,-361.77"/>
</g>
<!-- Node23 -->
<g id="node23" class="node">
<title>Node23</title>
<g id="a_node23"><a xlink:href="fonts_8h.html" target="_top" xlink:title=" ">
<polygon fill="white" stroke="black" points="1139.49,-348.5 1139.49,-369.5 1191.49,-369.5 1191.49,-348.5 1139.49,-348.5"/>
<text text-anchor="middle" x="1165.49" y="-355.9" font-family="DejaVuSans" font-size="12.00">fonts.h</text>
</a>
</g>
</g>
<!-- Node2&#45;&gt;Node23 -->
<g id="edge39" class="edge">
<title>Node2&#45;&gt;Node23</title>
<path fill="none" stroke="midnightblue" d="M768.75,-705.43C897.32,-703.33 1270.75,-694.33 1312.49,-660 1336.73,-640.07 1331.49,-623.38 1331.49,-592 1331.49,-592 1331.49,-592 1331.49,-474 1331.49,-411.5 1250.53,-380.69 1201.69,-367.8"/>
<polygon fill="midnightblue" stroke="midnightblue" points="1202.35,-364.35 1191.8,-365.31 1200.64,-371.14 1202.35,-364.35"/>
</g>
<!-- Node24 -->
<g id="node24" class="node">
<title>Node24</title>
<g id="a_node24"><a xlink:href="macros_8h.html" target="_top" xlink:title=" ">
<polygon fill="white" stroke="black" points="723.99,-638.5 723.99,-659.5 788.99,-659.5 788.99,-638.5 723.99,-638.5"/>
<text text-anchor="middle" x="756.49" y="-645.9" font-family="DejaVuSans" font-size="12.00">macros.h</text>
</a>
</g>
</g>
<!-- Node2&#45;&gt;Node24 -->
<g id="edge36" class="edge">
<title>Node2&#45;&gt;Node24</title>
<path fill="none" stroke="midnightblue" d="M730.89,-696.25C735.12,-688.62 741.11,-677.79 746.24,-668.53"/>
<polygon fill="midnightblue" stroke="midnightblue" points="749.37,-670.09 751.16,-659.64 743.25,-666.7 749.37,-670.09"/>
</g>
<!-- Node25 -->
<g id="node25" class="node">
<title>Node25</title>
<g id="a_node25"><a xlink:href="printout_8h.html" target="_top" xlink:title=" ">
<polygon fill="white" stroke="black" points="807.49,-638.5 807.49,-659.5 873.49,-659.5 873.49,-638.5 807.49,-638.5"/>
<text text-anchor="middle" x="840.49" y="-645.9" font-family="DejaVuSans" font-size="12.00">printout.h</text>
</a>
</g>
</g>
<!-- Node2&#45;&gt;Node25 -->
<g id="edge38" class="edge">
<title>Node2&#45;&gt;Node25</title>
<path fill="none" stroke="midnightblue" d="M745.26,-696.37C763.64,-687.42 791.22,-673.99 811.98,-663.88"/>
<polygon fill="midnightblue" stroke="midnightblue" points="813.52,-667.03 820.98,-659.5 810.46,-660.73 813.52,-667.03"/>
</g>
<!-- Node26 -->
<g id="node26" class="node">
<title>Node26</title>
<g id="a_node26"><a xlink:href="dviout_8h.html" target="_top" xlink:title=" ">
<polygon fill="white" stroke="black" points="1359.99,-580.5 1359.99,-601.5 1418.99,-601.5 1418.99,-580.5 1359.99,-580.5"/>
<text text-anchor="middle" x="1389.49" y="-587.9" font-family="DejaVuSans" font-size="12.00">dviout.h</text>
</a>
</g>
</g>
<!-- Node2&#45;&gt;Node26 -->
<g id="edge40" class="edge">
<title>Node2&#45;&gt;Node26</title>
<path fill="none" stroke="midnightblue" d="M768.84,-705C901.53,-701.64 1296.17,-689.25 1345.49,-660 1363.75,-649.17 1375.77,-627.48 1382.57,-611.49"/>
<polygon fill="midnightblue" stroke="midnightblue" points="1385.9,-612.57 1386.29,-601.98 1379.39,-610.02 1385.9,-612.57"/>
</g>
<!-- Node27 -->
<g id="node27" class="node">
<title>Node27</title>
<g id="a_node27"><a xlink:href="print_8h.html" target="_top" xlink:title=" ">
<polygon fill="white" stroke="black" points="237.49,-638.5 237.49,-659.5 287.49,-659.5 287.49,-638.5 237.49,-638.5"/>
<text text-anchor="middle" x="262.49" y="-645.9" font-family="DejaVuSans" font-size="12.00">print.h</text>
</a>
</g>
</g>
<!-- Node2&#45;&gt;Node27 -->
<g id="edge42" class="edge">
<title>Node2&#45;&gt;Node27</title>
<path fill="none" stroke="midnightblue" d="M682.47,-703.37C605.55,-698.22 439.55,-685.06 301.49,-660 300.22,-659.77 298.92,-659.52 297.61,-659.25"/>
<polygon fill="midnightblue" stroke="midnightblue" points="298.08,-655.77 287.55,-656.99 296.54,-662.6 298.08,-655.77"/>
</g>
<!-- Node28 -->
<g id="node28" class="node">
<title>Node28</title>
<g id="a_node28"><a xlink:href="expand_8h.html" target="_top" xlink:title=" ">
<polygon fill="white" stroke="black" points="967.49,-638.5 967.49,-659.5 1033.49,-659.5 1033.49,-638.5 967.49,-638.5"/>
<text text-anchor="middle" x="1000.49" y="-645.9" font-family="DejaVuSans" font-size="12.00">expand.h</text>
</a>
</g>
</g>
<!-- Node2&#45;&gt;Node28 -->
<g id="edge48" class="edge">
<title>Node2&#45;&gt;Node28</title>
<path fill="none" stroke="midnightblue" d="M768.81,-697.4C814.69,-688.26 889.24,-673.32 953.49,-660 954.76,-659.74 956.04,-659.47 957.33,-659.2"/>
<polygon fill="midnightblue" stroke="midnightblue" points="958.31,-662.57 967.38,-657.09 956.87,-655.72 958.31,-662.57"/>
</g>
<!-- Node29 -->
<g id="node29" class="node">
<title>Node29</title>
<g id="a_node29"><a xlink:href="error_8h.html" target="_top" xlink:title=" ">
<polygon fill="white" stroke="black" points="1051.99,-638.5 1051.99,-659.5 1102.99,-659.5 1102.99,-638.5 1051.99,-638.5"/>
<text text-anchor="middle" x="1077.49" y="-645.9" font-family="DejaVuSans" font-size="12.00">error.h</text>
</a>
</g>
</g>
<!-- Node2&#45;&gt;Node29 -->
<g id="edge50" class="edge">
<title>Node2&#45;&gt;Node29</title>
<path fill="none" stroke="midnightblue" d="M768.63,-701.6C828.02,-695.13 938.4,-681.66 1041.98,-659.85"/>
<polygon fill="midnightblue" stroke="midnightblue" points="1042.93,-663.23 1051.98,-657.72 1041.47,-656.38 1042.93,-663.23"/>
</g>
<!-- Node30 -->
<g id="node30" class="node">
<title>Node30</title>
<g id="a_node30"><a xlink:href="hash_8h.html" target="_top" xlink:title=" ">
<polygon fill="white" stroke="black" points="429.99,-406.5 429.99,-427.5 482.99,-427.5 482.99,-406.5 429.99,-406.5"/>
<text text-anchor="middle" x="456.49" y="-413.9" font-family="DejaVuSans" font-size="12.00">hash.h</text>
</a>
</g>
</g>
<!-- Node2&#45;&gt;Node30 -->
<g id="edge51" class="edge">
<title>Node2&#45;&gt;Node30</title>
<path fill="none" stroke="midnightblue" d="M682.4,-702.45C611.02,-696.07 471.71,-681.29 427.49,-660 393.2,-643.49 379.78,-636.85 364.49,-602 336.87,-539.02 402.86,-466.68 437.26,-434.69"/>
<polygon fill="midnightblue" stroke="midnightblue" points="439.8,-437.11 444.86,-427.81 435.1,-431.93 439.8,-437.11"/>
</g>
<!-- Node31 -->
<g id="node31" class="node">
<title>Node31</title>
<g id="a_node31"><a xlink:href="eqtb_8h.html" target="_top" xlink:title=" ">
<polygon fill="white" stroke="black" points="467.49,-348.5 467.49,-369.5 517.49,-369.5 517.49,-348.5 467.49,-348.5"/>
<text text-anchor="middle" x="492.49" y="-355.9" font-family="DejaVuSans" font-size="12.00">eqtb.h</text>
</a>
</g>
</g>
<!-- Node2&#45;&gt;Node31 -->
<g id="edge58" class="edge">
<title>Node2&#45;&gt;Node31</title>
<path fill="none" stroke="midnightblue" d="M682.39,-705.03C601.87,-702.44 432.48,-693.12 385.49,-660 334.41,-624 342.15,-582.32 358.49,-522 373.78,-465.58 380.51,-448.64 420.49,-406 432.56,-393.13 448.96,-382.29 463.06,-374.37"/>
<polygon fill="midnightblue" stroke="midnightblue" points="464.78,-377.42 471.92,-369.6 461.46,-371.26 464.78,-377.42"/>
</g>
<!-- Node32 -->
<g id="node32" class="node">
<title>Node32</title>
<g id="a_node32"><a xlink:href="io_8h.html" target="_top" xlink:title=" ">
<polygon fill="white" stroke="black" points="1197.49,-638.5 1197.49,-659.5 1233.49,-659.5 1233.49,-638.5 1197.49,-638.5"/>
<text text-anchor="middle" x="1215.49" y="-645.9" font-family="DejaVuSans" font-size="12.00">io.h</text>
</a>
</g>
</g>
<!-- Node2&#45;&gt;Node32 -->
<g id="edge61" class="edge">
<title>Node2&#45;&gt;Node32</title>
<path fill="none" stroke="midnightblue" d="M768.55,-704.58C850.23,-701.26 1032.97,-690.75 1183.49,-660 1184.78,-659.74 1186.08,-659.44 1187.39,-659.13"/>
<polygon fill="midnightblue" stroke="midnightblue" points="1188.68,-662.4 1197.38,-656.36 1186.81,-655.66 1188.68,-662.4"/>
</g>
<!-- Node33 -->
<g id="node33" class="node">
<title>Node33</title>
<g id="a_node33"><a xlink:href="pack_8h.html" target="_top" xlink:title=" ">
<polygon fill="white" stroke="black" points="1251.49,-638.5 1251.49,-659.5 1303.49,-659.5 1303.49,-638.5 1251.49,-638.5"/>
<text text-anchor="middle" x="1277.49" y="-645.9" font-family="DejaVuSans" font-size="12.00">pack.h</text>
</a>
</g>
</g>
<!-- Node2&#45;&gt;Node33 -->
<g id="edge62" class="edge">
<title>Node2&#45;&gt;Node33</title>
<path fill="none" stroke="midnightblue" d="M768.76,-704.92C856.43,-702.12 1061.26,-692.58 1241.33,-659.9"/>
<polygon fill="midnightblue" stroke="midnightblue" points="1242.05,-663.33 1251.25,-658.08 1240.78,-656.45 1242.05,-663.33"/>
</g>
<!-- Node34 -->
<g id="node34" class="node">
<title>Node34</title>
<g id="a_node34"><a xlink:href="mmode_8h.html" target="_top" xlink:title=" ">
<polygon fill="white" stroke="black" points="1136.49,-464.5 1136.49,-485.5 1202.49,-485.5 1202.49,-464.5 1136.49,-464.5"/>
<text text-anchor="middle" x="1169.49" y="-471.9" font-family="DejaVuSans" font-size="12.00">mmode.h</text>
</a>
</g>
</g>
<!-- Node2&#45;&gt;Node34 -->
<g id="edge63" class="edge">
<title>Node2&#45;&gt;Node34</title>
<path fill="none" stroke="midnightblue" d="M768.63,-704.25C870.39,-699.71 1118.9,-686.05 1145.49,-660 1189.92,-616.48 1180.99,-533.98 1173.91,-496.02"/>
<polygon fill="midnightblue" stroke="midnightblue" points="1177.25,-494.87 1171.84,-485.77 1170.39,-496.26 1177.25,-494.87"/>
</g>
<!-- Node35 -->
<g id="node35" class="node">
<title>Node35</title>
<g id="a_node35"><a xlink:href="align_8h.html" target="_top" xlink:title=" ">
<polygon fill="white" stroke="black" points="501.49,-406.5 501.49,-427.5 553.49,-427.5 553.49,-406.5 501.49,-406.5"/>
<text text-anchor="middle" x="527.49" y="-413.9" font-family="DejaVuSans" font-size="12.00">align.h</text>
</a>
</g>
</g>
<!-- Node2&#45;&gt;Node35 -->
<g id="edge65" class="edge">
<title>Node2&#45;&gt;Node35</title>
<path fill="none" stroke="midnightblue" d="M682.32,-703.98C647.2,-700.1 598.53,-689.34 567.49,-660 544.21,-637.98 543.49,-624.05 543.49,-592 543.49,-592 543.49,-592 543.49,-532 543.49,-498.66 536.7,-460.36 531.97,-437.73"/>
<polygon fill="midnightblue" stroke="midnightblue" points="535.33,-436.72 529.79,-427.7 528.49,-438.21 535.33,-436.72"/>
</g>
<!-- Node36 -->
<g id="node36" class="node">
<title>Node36</title>
<g id="a_node36"><a xlink:href="linebreak_8h.html" target="_top" xlink:title=" ">
<polygon fill="white" stroke="black" points="1397.99,-638.5 1397.99,-659.5 1472.99,-659.5 1472.99,-638.5 1397.99,-638.5"/>
<text text-anchor="middle" x="1435.49" y="-645.9" font-family="DejaVuSans" font-size="12.00">linebreak.h</text>
</a>
</g>
</g>
<!-- Node2&#45;&gt;Node36 -->
<g id="edge68" class="edge">
<title>Node2&#45;&gt;Node36</title>
<path fill="none" stroke="midnightblue" d="M768.79,-704.77C874.3,-701.39 1152.99,-690.11 1383.49,-660 1384.95,-659.81 1386.42,-659.61 1387.91,-659.39"/>
<polygon fill="midnightblue" stroke="midnightblue" points="1388.49,-662.84 1397.81,-657.8 1387.38,-655.93 1388.49,-662.84"/>
</g>
<!-- Node37 -->
<g id="node37" class="node">
<title>Node37</title>
<g id="a_node37"><a xlink:href="hyphen_8h.html" target="_top" xlink:title=" ">
<polygon fill="white" stroke="black" points="609.49,-406.5 609.49,-427.5 675.49,-427.5 675.49,-406.5 609.49,-406.5"/>
<text text-anchor="middle" x="642.49" y="-413.9" font-family="DejaVuSans" font-size="12.00">hyphen.h</text>
</a>
</g>
</g>
<!-- Node2&#45;&gt;Node37 -->
<g id="edge69" class="edge">
<title>Node2&#45;&gt;Node37</title>
<path fill="none" stroke="midnightblue" d="M706.05,-696.37C675.45,-679.67 619.49,-642.27 619.49,-592 619.49,-592 619.49,-592 619.49,-532 619.49,-498.17 629.35,-459.78 636.16,-437.3"/>
<polygon fill="midnightblue" stroke="midnightblue" points="639.54,-438.22 639.2,-427.63 632.86,-436.12 639.54,-438.22"/>
</g>
<!-- Node38 -->
<g id="node38" class="node">
<title>Node38</title>
<g id="a_node38"><a xlink:href="texfunc_8h.html" target="_top" xlink:title=" ">
<polygon fill="white" stroke="black" points="1529.99,-638.5 1529.99,-659.5 1594.99,-659.5 1594.99,-638.5 1529.99,-638.5"/>
<text text-anchor="middle" x="1562.49" y="-645.9" font-family="DejaVuSans" font-size="12.00">texfunc.h</text>
</a>
</g>
</g>
<!-- Node2&#45;&gt;Node38 -->
<g id="edge74" class="edge">
<title>Node2&#45;&gt;Node38</title>
<path fill="none" stroke="midnightblue" d="M768.53,-705.78C887.77,-704.67 1232.29,-698.15 1515.49,-660 1516.97,-659.8 1518.46,-659.58 1519.97,-659.35"/>
<polygon fill="midnightblue" stroke="midnightblue" points="1520.75,-662.76 1529.99,-657.58 1519.53,-655.87 1520.75,-662.76"/>
</g>
<!-- Node7&#45;&gt;Node3 -->
<g id="edge8" class="edge">
<title>Node7&#45;&gt;Node3</title>
<path fill="none" stroke="midnightblue" d="M1202.07,-58.37C1184.09,-49.46 1157.15,-36.11 1136.78,-26.02"/>
<polygon fill="midnightblue" stroke="midnightblue" points="1138.18,-22.81 1127.67,-21.5 1135.07,-29.08 1138.18,-22.81"/>
</g>
<!-- Node8 -->
<g id="node8" class="node">
<title>Node8</title>
<g id="a_node8"><a xlink:title=" ">
<polygon fill="white" stroke="#bfbfbf" points="1191.99,-0.5 1191.99,-21.5 1250.99,-21.5 1250.99,-0.5 1191.99,-0.5"/>
<text text-anchor="middle" x="1221.49" y="-7.9" font-family="DejaVuSans" font-size="12.00">assert.h</text>
</a>
</g>
</g>
<!-- Node7&#45;&gt;Node8 -->
<g id="edge7" class="edge">
<title>Node7&#45;&gt;Node8</title>
<path fill="none" stroke="midnightblue" d="M1221.49,-58.25C1221.49,-50.94 1221.49,-40.69 1221.49,-31.7"/>
<polygon fill="midnightblue" stroke="midnightblue" points="1224.99,-31.64 1221.49,-21.64 1217.99,-31.64 1224.99,-31.64"/>
</g>
<!-- Node10 -->
<g id="node10" class="node">
<title>Node10</title>
<g id="a_node10"><a xlink:href="tex__types_8h.html" target="_top" xlink:title=" ">
<polygon fill="white" stroke="black" points="346.99,-58.5 346.99,-79.5 423.99,-79.5 423.99,-58.5 346.99,-58.5"/>
<text text-anchor="middle" x="385.49" y="-65.9" font-family="DejaVuSans" font-size="12.00">tex_types.h</text>
</a>
</g>
</g>
<!-- Node9&#45;&gt;Node10 -->
<g id="edge10" class="edge">
<title>Node9&#45;&gt;Node10</title>
<path fill="none" stroke="midnightblue" d="M72.13,-522.44C84.65,-503.46 110.49,-459.28 110.49,-418 110.49,-418 110.49,-418 110.49,-184 110.49,-87.18 257.76,-71.01 336.76,-69.31"/>
<polygon fill="midnightblue" stroke="midnightblue" points="337.02,-72.8 346.97,-69.16 336.92,-65.81 337.02,-72.8"/>
</g>
<!-- Node11 -->
<g id="node11" class="node">
<title>Node11</title>
<g id="a_node11"><a xlink:title=" ">
<polygon fill="white" stroke="#bfbfbf" points="352.99,-0.5 352.99,-21.5 417.99,-21.5 417.99,-0.5 352.99,-0.5"/>
<text text-anchor="middle" x="385.49" y="-7.9" font-family="DejaVuSans" font-size="12.00">stdbool.h</text>
</a>
</g>
</g>
<!-- Node10&#45;&gt;Node11 -->
<g id="edge11" class="edge">
<title>Node10&#45;&gt;Node11</title>
<path fill="none" stroke="midnightblue" d="M385.49,-58.25C385.49,-50.94 385.49,-40.69 385.49,-31.7"/>
<polygon fill="midnightblue" stroke="midnightblue" points="388.99,-31.64 385.49,-21.64 381.99,-31.64 388.99,-31.64"/>
</g>
<!-- Node12 -->
<g id="node12" class="node">
<title>Node12</title>
<g id="a_node12"><a xlink:title=" ">
<polygon fill="white" stroke="#bfbfbf" points="490.99,-0.5 490.99,-21.5 545.99,-21.5 545.99,-0.5 490.99,-0.5"/>
<text text-anchor="middle" x="518.49" y="-7.9" font-family="DejaVuSans" font-size="12.00">stdint.h</text>
</a>
</g>
</g>
<!-- Node10&#45;&gt;Node12 -->
<g id="edge12" class="edge">
<title>Node10&#45;&gt;Node12</title>
<path fill="none" stroke="midnightblue" d="M408.36,-58.37C429.9,-49.3 462.38,-35.63 486.49,-25.48"/>
<polygon fill="midnightblue" stroke="midnightblue" points="488.07,-28.61 495.93,-21.5 485.35,-22.16 488.07,-28.61"/>
</g>
<!-- Node13&#45;&gt;Node10 -->
<g id="edge14" class="edge">
<title>Node13&#45;&gt;Node10</title>
<path fill="none" stroke="midnightblue" d="M437.69,-290.36C432.48,-262.92 416.71,-182.12 399.49,-116 397.21,-107.24 394.35,-97.64 391.81,-89.49"/>
<polygon fill="midnightblue" stroke="midnightblue" points="395.1,-88.27 388.73,-79.8 388.42,-90.4 395.1,-88.27"/>
</g>
<!-- Node14 -->
<g id="node14" class="node">
<title>Node14</title>
<g id="a_node14"><a xlink:href="tex__constant_8h.html" target="_top" xlink:title=" ">
<polygon fill="white" stroke="black" points="451.49,-232.5 451.49,-253.5 545.49,-253.5 545.49,-232.5 451.49,-232.5"/>
<text text-anchor="middle" x="498.49" y="-239.9" font-family="DejaVuSans" font-size="12.00">tex_constant.h</text>
</a>
</g>
</g>
<!-- Node13&#45;&gt;Node14 -->
<g id="edge15" class="edge">
<title>Node13&#45;&gt;Node14</title>
<path fill="none" stroke="midnightblue" d="M449.77,-290.25C458.32,-282.14 470.67,-270.41 480.8,-260.79"/>
<polygon fill="midnightblue" stroke="midnightblue" points="483.49,-263.07 488.33,-253.64 478.67,-257.99 483.49,-263.07"/>
</g>
<!-- Node14&#45;&gt;Node15 -->
<g id="edge16" class="edge">
<title>Node14&#45;&gt;Node15</title>
<path fill="none" stroke="midnightblue" d="M513.47,-232.25C526.67,-223.65 546.1,-211 561.3,-201.1"/>
<polygon fill="midnightblue" stroke="midnightblue" points="563.22,-204.03 569.69,-195.64 559.4,-198.17 563.22,-204.03"/>
</g>
<!-- Node15&#45;&gt;Node16 -->
<g id="edge17" class="edge">
<title>Node15&#45;&gt;Node16</title>
<path fill="none" stroke="midnightblue" d="M593.38,-174.25C600.69,-166.22 611.23,-154.64 619.94,-145.08"/>
<polygon fill="midnightblue" stroke="midnightblue" points="622.57,-147.39 626.71,-137.64 617.39,-142.68 622.57,-147.39"/>
</g>
<!-- Node16&#45;&gt;Node3 -->
<g id="edge18" class="edge">
<title>Node16&#45;&gt;Node3</title>
<path fill="none" stroke="midnightblue" d="M655,-120.32C697.2,-108.12 800.22,-78.84 887.49,-58 952.25,-42.54 1028.38,-27.34 1072.28,-18.87"/>
<polygon fill="midnightblue" stroke="midnightblue" points="1073.03,-22.28 1082.19,-16.96 1071.71,-15.41 1073.03,-22.28"/>
</g>
<!-- Node16&#45;&gt;Node7 -->
<g id="edge20" class="edge">
<title>Node16&#45;&gt;Node7</title>
<path fill="none" stroke="midnightblue" d="M655.33,-124.1C735.44,-116.45 1036.98,-87.63 1164.25,-75.47"/>
<polygon fill="midnightblue" stroke="midnightblue" points="1164.94,-78.92 1174.56,-74.48 1164.28,-71.95 1164.94,-78.92"/>
</g>
<!-- Node16&#45;&gt;Node10 -->
<g id="edge21" class="edge">
<title>Node16&#45;&gt;Node10</title>
<path fill="none" stroke="midnightblue" d="M615.88,-121.61C577.08,-112.92 489.54,-93.31 434.23,-80.92"/>
<polygon fill="midnightblue" stroke="midnightblue" points="434.82,-77.46 424.3,-78.69 433.29,-84.29 434.82,-77.46"/>
</g>
<!-- Node16&#45;&gt;Node12 -->
<g id="edge19" class="edge">
<title>Node16&#45;&gt;Node12</title>
<path fill="none" stroke="midnightblue" d="M625.52,-116.28C605.57,-96.85 560.56,-52.99 535.74,-28.8"/>
<polygon fill="midnightblue" stroke="midnightblue" points="538.05,-26.17 528.44,-21.69 533.16,-31.18 538.05,-26.17"/>
</g>
<!-- Node17&#45;&gt;Node18 -->
<g id="edge24" class="edge">
<title>Node17&#45;&gt;Node18</title>
<path fill="none" stroke="midnightblue" d="M412.59,-580.25C417.41,-572.54 424.27,-561.56 430.1,-552.23"/>
<polygon fill="midnightblue" stroke="midnightblue" points="433.14,-553.98 435.47,-543.64 427.2,-550.27 433.14,-553.98"/>
</g>
<!-- Node18&#45;&gt;Node10 -->
<g id="edge25" class="edge">
<title>Node18&#45;&gt;Node10</title>
<path fill="none" stroke="midnightblue" d="M426.53,-522.33C384.68,-493.98 269.49,-406.46 269.49,-302 269.49,-302 269.49,-302 269.49,-184 269.49,-136.38 319.83,-102.03 354.19,-84.13"/>
<polygon fill="midnightblue" stroke="midnightblue" points="356.03,-87.12 363.4,-79.52 352.89,-80.86 356.03,-87.12"/>
</g>
<!-- Node18&#45;&gt;Node19 -->
<g id="edge26" class="edge">
<title>Node18&#45;&gt;Node19</title>
<path fill="none" stroke="midnightblue" d="M468.08,-527.27C523.69,-517.39 652.52,-494.48 717.51,-482.93"/>
<polygon fill="midnightblue" stroke="midnightblue" points="718.14,-486.37 727.37,-481.18 716.91,-479.48 718.14,-486.37"/>
</g>
<!-- Node19&#45;&gt;Node16 -->
<g id="edge28" class="edge">
<title>Node19&#45;&gt;Node16</title>
<path fill="none" stroke="midnightblue" d="M782.88,-464.49C799.95,-457.05 821.37,-445.08 834.49,-428 853.61,-403.12 853.49,-391.38 853.49,-360 853.49,-360 853.49,-360 853.49,-242 853.49,-158.17 725.34,-135.87 665.55,-130.03"/>
<polygon fill="midnightblue" stroke="midnightblue" points="665.49,-126.51 655.22,-129.12 664.88,-133.49 665.49,-126.51"/>
</g>
<!-- Node20 -->
<g id="node20" class="node">
<title>Node20</title>
<g id="a_node20"><a xlink:title=" ">
<polygon fill="white" stroke="#bfbfbf" points="763.49,-406.5 763.49,-427.5 825.49,-427.5 825.49,-406.5 763.49,-406.5"/>
<text text-anchor="middle" x="794.49" y="-413.9" font-family="DejaVuSans" font-size="12.00">setjmp.h</text>
</a>
</g>
</g>
<!-- Node19&#45;&gt;Node20 -->
<g id="edge27" class="edge">
<title>Node19&#45;&gt;Node20</title>
<path fill="none" stroke="midnightblue" d="M763.11,-464.25C768.4,-456.46 775.95,-445.33 782.32,-435.94"/>
<polygon fill="midnightblue" stroke="midnightblue" points="785.23,-437.88 787.95,-427.64 779.44,-433.95 785.23,-437.88"/>
</g>
<!-- Node19&#45;&gt;Node21 -->
<g id="edge29" class="edge">
<title>Node19&#45;&gt;Node21</title>
<path fill="none" stroke="midnightblue" d="M750.05,-464.25C744.96,-456.54 737.7,-445.56 731.54,-436.23"/>
<polygon fill="midnightblue" stroke="midnightblue" points="734.3,-434.06 725.86,-427.64 728.46,-437.92 734.3,-434.06"/>
</g>
<!-- Node19&#45;&gt;Node23 -->
<g id="edge33" class="edge">
<title>Node19&#45;&gt;Node23</title>
<path fill="none" stroke="midnightblue" d="M785.58,-465.89C858.59,-445.54 1049.44,-392.35 1129.41,-370.06"/>
<polygon fill="midnightblue" stroke="midnightblue" points="1130.8,-373.3 1139.49,-367.25 1128.92,-366.56 1130.8,-373.3"/>
</g>
<!-- Node21&#45;&gt;Node22 -->
<g id="edge30" class="edge">
<title>Node21&#45;&gt;Node22</title>
<path fill="none" stroke="midnightblue" d="M719.49,-406.25C719.49,-398.94 719.49,-388.69 719.49,-379.7"/>
<polygon fill="midnightblue" stroke="midnightblue" points="722.99,-379.64 719.49,-369.64 715.99,-379.64 722.99,-379.64"/>
</g>
<!-- Node22&#45;&gt;Node3 -->
<g id="edge31" class="edge">
<title>Node22&#45;&gt;Node3</title>
<path fill="none" stroke="midnightblue" d="M745.57,-354.05C795.89,-344.79 901.49,-316.7 901.49,-244 901.49,-244 901.49,-244 901.49,-126 901.49,-48.98 1012.81,-23.62 1072.18,-15.57"/>
<polygon fill="midnightblue" stroke="midnightblue" points="1072.79,-19.02 1082.28,-14.3 1071.92,-12.07 1072.79,-19.02"/>
</g>
<!-- Node22&#45;&gt;Node13 -->
<g id="edge32" class="edge">
<title>Node22&#45;&gt;Node13</title>
<path fill="none" stroke="midnightblue" d="M693.4,-352.78C641.62,-342.43 526.08,-319.32 470.51,-308.2"/>
<polygon fill="midnightblue" stroke="midnightblue" points="471.04,-304.74 460.55,-306.21 469.67,-311.6 471.04,-304.74"/>
</g>
<!-- Node23&#45;&gt;Node3 -->
<g id="edge34" class="edge">
<title>Node23&#45;&gt;Node3</title>
<path fill="none" stroke="midnightblue" d="M1162.77,-348.33C1157.52,-328.79 1146.49,-283.13 1146.49,-244 1146.49,-244 1146.49,-244 1146.49,-126 1146.49,-90.9 1130.08,-52.7 1118.83,-30.63"/>
<polygon fill="midnightblue" stroke="midnightblue" points="1121.87,-28.9 1114.1,-21.7 1115.69,-32.17 1121.87,-28.9"/>
</g>
<!-- Node23&#45;&gt;Node7 -->
<g id="edge35" class="edge">
<title>Node23&#45;&gt;Node7</title>
<path fill="none" stroke="midnightblue" d="M1171.1,-348.3C1181.67,-329.07 1203.49,-284.47 1203.49,-244 1203.49,-244 1203.49,-244 1203.49,-184 1203.49,-150.58 1211.14,-112.31 1216.46,-89.7"/>
<polygon fill="midnightblue" stroke="midnightblue" points="1219.94,-90.22 1218.91,-79.68 1213.14,-88.56 1219.94,-90.22"/>
</g>
<!-- Node26&#45;&gt;Node23 -->
<g id="edge41" class="edge">
<title>Node26&#45;&gt;Node23</title>
<path fill="none" stroke="midnightblue" d="M1390.34,-580.39C1392.44,-550.13 1394.58,-455.85 1345.49,-406 1325.61,-385.81 1248.22,-371.66 1201.64,-364.78"/>
<polygon fill="midnightblue" stroke="midnightblue" points="1202.03,-361.3 1191.63,-363.34 1201.03,-368.23 1202.03,-361.3"/>
</g>
<!-- Node27&#45;&gt;Node10 -->
<g id="edge43" class="edge">
<title>Node27&#45;&gt;Node10</title>
<path fill="none" stroke="midnightblue" d="M251.41,-638.23C231.9,-619.9 193.49,-578.19 193.49,-534 193.49,-534 193.49,-534 193.49,-184 193.49,-117.44 279.85,-88.88 336.74,-77.29"/>
<polygon fill="midnightblue" stroke="midnightblue" points="337.48,-80.71 346.64,-75.38 336.16,-73.84 337.48,-80.71"/>
</g>
<!-- Node27&#45;&gt;Node13 -->
<g id="edge44" class="edge">
<title>Node27&#45;&gt;Node13</title>
<path fill="none" stroke="midnightblue" d="M263.5,-638.25C265.43,-618.57 269.49,-572.67 269.49,-534 269.49,-534 269.49,-534 269.49,-474 269.49,-395.47 360.23,-339.88 409.13,-315.63"/>
<polygon fill="midnightblue" stroke="midnightblue" points="410.82,-318.69 418.31,-311.2 407.78,-312.39 410.82,-318.69"/>
</g>
<!-- Node27&#45;&gt;Node16 -->
<g id="edge46" class="edge">
<title>Node27&#45;&gt;Node16</title>
<path fill="none" stroke="midnightblue" d="M258.05,-638.48C249.48,-619.2 231.49,-574 231.49,-534 231.49,-534 231.49,-534 231.49,-358 231.49,-185.84 511.97,-140.9 605.53,-130.69"/>
<polygon fill="midnightblue" stroke="midnightblue" points="606.15,-134.15 615.73,-129.64 605.43,-127.18 606.15,-134.15"/>
</g>
<!-- Node27&#45;&gt;Node17 -->
<g id="edge45" class="edge">
<title>Node27&#45;&gt;Node17</title>
<path fill="none" stroke="midnightblue" d="M287.25,-638.37C310.78,-629.22 346.36,-615.38 372.54,-605.21"/>
<polygon fill="midnightblue" stroke="midnightblue" points="374.01,-608.39 382.06,-601.5 371.47,-601.86 374.01,-608.39"/>
</g>
<!-- Node30&#45;&gt;Node13 -->
<g id="edge52" class="edge">
<title>Node30&#45;&gt;Node13</title>
<path fill="none" stroke="midnightblue" d="M455.04,-406.28C452.26,-387.6 446.11,-346.37 442.43,-321.72"/>
<polygon fill="midnightblue" stroke="midnightblue" points="445.88,-321.07 440.94,-311.69 438.95,-322.1 445.88,-321.07"/>
</g>
<!-- Node30&#45;&gt;Node16 -->
<g id="edge53" class="edge">
<title>Node30&#45;&gt;Node16</title>
<path fill="none" stroke="midnightblue" d="M476.6,-406.39C491.8,-398.34 512.38,-385.66 526.49,-370 588.2,-301.52 620.03,-192.29 630.99,-147.81"/>
<polygon fill="midnightblue" stroke="midnightblue" points="634.42,-148.5 633.34,-137.97 627.62,-146.88 634.42,-148.5"/>
</g>
<!-- Node30&#45;&gt;Node23 -->
<g id="edge54" class="edge">
<title>Node30&#45;&gt;Node23</title>
<path fill="none" stroke="midnightblue" d="M483.09,-407.96C486.24,-407.21 489.42,-406.53 492.49,-406 733.03,-364.81 1027.88,-360.2 1129.26,-359.91"/>
<polygon fill="midnightblue" stroke="midnightblue" points="1129.29,-363.41 1139.28,-359.89 1129.28,-356.41 1129.29,-363.41"/>
</g>
<!-- Node30&#45;&gt;Node31 -->
<g id="edge55" class="edge">
<title>Node30&#45;&gt;Node31</title>
<path fill="none" stroke="midnightblue" d="M462.76,-406.25C467.72,-398.54 474.78,-387.56 480.77,-378.23"/>
<polygon fill="midnightblue" stroke="midnightblue" points="483.83,-379.95 486.29,-369.64 477.94,-376.16 483.83,-379.95"/>
</g>
<!-- Node31&#45;&gt;Node10 -->
<g id="edge56" class="edge">
<title>Node31&#45;&gt;Node10</title>
<path fill="none" stroke="midnightblue" d="M467.15,-349.54C448.82,-342.23 424.71,-329.99 409.49,-312 388.8,-287.53 385.49,-276.05 385.49,-244 385.49,-244 385.49,-244 385.49,-184 385.49,-150.98 385.49,-112.59 385.49,-89.85"/>
<polygon fill="midnightblue" stroke="midnightblue" points="388.99,-89.76 385.49,-79.76 381.99,-89.76 388.99,-89.76"/>
</g>
<!-- Node31&#45;&gt;Node14 -->
<g id="edge57" class="edge">
<title>Node31&#45;&gt;Node14</title>
<path fill="none" stroke="midnightblue" d="M493.01,-348.28C493.99,-329.6 496.16,-288.37 497.46,-263.72"/>
<polygon fill="midnightblue" stroke="midnightblue" points="500.95,-263.87 497.98,-253.69 493.96,-263.5 500.95,-263.87"/>
</g>
<!-- Node34&#45;&gt;Node23 -->
<g id="edge64" class="edge">
<title>Node34&#45;&gt;Node23</title>
<path fill="none" stroke="midnightblue" d="M1169.15,-464.28C1168.5,-445.6 1167.05,-404.37 1166.19,-379.72"/>
<polygon fill="midnightblue" stroke="midnightblue" points="1169.68,-379.57 1165.83,-369.69 1162.69,-379.81 1169.68,-379.57"/>
</g>
<!-- Node35&#45;&gt;Node22 -->
<g id="edge66" class="edge">
<title>Node35&#45;&gt;Node22</title>
<path fill="none" stroke="midnightblue" d="M553.79,-408.33C587.3,-398.56 645.41,-381.61 683.14,-370.6"/>
<polygon fill="midnightblue" stroke="midnightblue" points="684.59,-373.83 693.21,-367.67 682.63,-367.11 684.59,-373.83"/>
</g>
<!-- Node35&#45;&gt;Node31 -->
<g id="edge67" class="edge">
<title>Node35&#45;&gt;Node31</title>
<path fill="none" stroke="midnightblue" d="M521.4,-406.25C516.58,-398.54 509.72,-387.56 503.89,-378.23"/>
<polygon fill="midnightblue" stroke="midnightblue" points="506.79,-376.27 498.52,-369.64 500.85,-379.98 506.79,-376.27"/>
</g>
<!-- Node37&#45;&gt;Node7 -->
<g id="edge70" class="edge">
<title>Node37&#45;&gt;Node7</title>
<path fill="none" stroke="midnightblue" d="M675.79,-407.02C762.12,-382.74 986.49,-313.03 986.49,-244 986.49,-244 986.49,-244 986.49,-184 986.49,-105.02 1095.29,-80.74 1164.83,-73.29"/>
<polygon fill="midnightblue" stroke="midnightblue" points="1165.18,-76.77 1174.78,-72.3 1164.49,-69.8 1165.18,-76.77"/>
</g>
<!-- Node37&#45;&gt;Node13 -->
<g id="edge71" class="edge">
<title>Node37&#45;&gt;Node13</title>
<path fill="none" stroke="midnightblue" d="M626.48,-406.31C604.22,-392.92 562.59,-368.11 526.49,-348 506.85,-337.06 484.41,-325.2 467.23,-316.27"/>
<polygon fill="midnightblue" stroke="midnightblue" points="468.78,-313.13 458.29,-311.64 465.56,-319.35 468.78,-313.13"/>
</g>
<!-- Node37&#45;&gt;Node23 -->
<g id="edge72" class="edge">
<title>Node37&#45;&gt;Node23</title>
<path fill="none" stroke="midnightblue" d="M675.88,-407.61C678.78,-407.01 681.68,-406.47 684.49,-406 849.23,-378.65 1048.6,-366.02 1129.14,-361.76"/>
<polygon fill="midnightblue" stroke="midnightblue" points="1129.45,-365.24 1139.26,-361.23 1129.09,-358.25 1129.45,-365.24"/>
</g>
<!-- Node37&#45;&gt;Node31 -->
<g id="edge73" class="edge">
<title>Node37&#45;&gt;Node31</title>
<path fill="none" stroke="midnightblue" d="M616.71,-406.37C592.09,-397.18 554.8,-383.26 527.51,-373.07"/>
<polygon fill="midnightblue" stroke="midnightblue" points="528.54,-369.72 517.94,-369.5 526.09,-376.28 528.54,-369.72"/>
</g>
</g>
</svg>
