<?xml version="1.0" encoding="UTF-8" standalone="no"?>
<!DOCTYPE svg PUBLIC "-//W3C//DTD SVG 1.1//EN"
 "http://www.w3.org/Graphics/SVG/1.1/DTD/svg11.dtd">
<!-- Generated by graphviz version 2.44.0 ()
 -->
<!-- Title: tex.h Pages: 1 -->
<svg width="2059pt" height="494pt"
 viewBox="0.00 0.00 2058.50 494.00" xmlns="http://www.w3.org/2000/svg" xmlns:xlink="http://www.w3.org/1999/xlink">
<g id="graph0" class="graph" transform="scale(1 1) rotate(0) translate(4 490)">
<title>tex.h</title>
<polygon fill="white" stroke="transparent" points="-4,4 -4,-490 2054.5,-490 2054.5,4 -4,4"/>
<!-- Node1 -->
<g id="node1" class="node">
<title>Node1</title>
<g id="a_node1"><a xlink:title=" ">
<polygon fill="#bfbfbf" stroke="black" points="715,-464.5 715,-485.5 757,-485.5 757,-464.5 715,-464.5"/>
<text text-anchor="middle" x="736" y="-471.9" font-family="DejaVuSans" font-size="12.00">tex.h</text>
</a>
</g>
</g>
<!-- Node2 -->
<g id="node2" class="node">
<title>Node2</title>
<g id="a_node2"><a xlink:href="dviout_8c.html" target="_top" xlink:title=" ">
<polygon fill="white" stroke="black" points="0,-406.5 0,-427.5 58,-427.5 58,-406.5 0,-406.5"/>
<text text-anchor="middle" x="29" y="-413.9" font-family="DejaVuSans" font-size="12.00">dviout.c</text>
</a>
</g>
</g>
<!-- Node1&#45;&gt;Node2 -->
<g id="edge1" class="edge">
<title>Node1&#45;&gt;Node2</title>
<path fill="none" stroke="midnightblue" d="M704.82,-473.6C609.51,-472 313.8,-464.26 72,-428 67.45,-427.32 62.67,-426.41 58.02,-425.41"/>
<polygon fill="midnightblue" stroke="midnightblue" points="704.88,-477.1 714.93,-473.76 704.99,-470.1 704.88,-477.1"/>
</g>
<!-- Node3 -->
<g id="node3" class="node">
<title>Node3</title>
<g id="a_node3"><a xlink:href="expand_8c.html" target="_top" xlink:title=" ">
<polygon fill="white" stroke="black" points="1399.5,-58.5 1399.5,-79.5 1464.5,-79.5 1464.5,-58.5 1399.5,-58.5"/>
<text text-anchor="middle" x="1432" y="-65.9" font-family="DejaVuSans" font-size="12.00">expand.c</text>
</a>
</g>
</g>
<!-- Node1&#45;&gt;Node3 -->
<g id="edge2" class="edge">
<title>Node1&#45;&gt;Node3</title>
<path fill="none" stroke="midnightblue" d="M767.46,-474.02C943.85,-473.74 1802,-466.88 1802,-360 1802,-360 1802,-360 1802,-242 1802,-167.89 1554.8,-100.02 1464.51,-77.7"/>
<polygon fill="midnightblue" stroke="midnightblue" points="767.29,-470.52 757.29,-474.03 767.3,-477.52 767.29,-470.52"/>
</g>
<!-- Node4 -->
<g id="node4" class="node">
<title>Node4</title>
<g id="a_node4"><a xlink:href="fonts_8c.html" target="_top" xlink:title=" ">
<polygon fill="white" stroke="black" points="212.5,-58.5 212.5,-79.5 263.5,-79.5 263.5,-58.5 212.5,-58.5"/>
<text text-anchor="middle" x="238" y="-65.9" font-family="DejaVuSans" font-size="12.00">fonts.c</text>
</a>
</g>
</g>
<!-- Node1&#45;&gt;Node4 -->
<g id="edge3" class="edge">
<title>Node1&#45;&gt;Node4</title>
<path fill="none" stroke="midnightblue" d="M704.59,-473.02C588.96,-469.22 191.09,-454.33 141,-428 106.59,-409.92 86,-398.87 86,-360 86,-360 86,-360 86,-184 86,-121.66 168.85,-89.23 212.22,-76.53"/>
<polygon fill="midnightblue" stroke="midnightblue" points="704.77,-476.53 714.88,-473.35 705,-469.53 704.77,-476.53"/>
</g>
<!-- Node5 -->
<g id="node5" class="node">
<title>Node5</title>
<g id="a_node5"><a xlink:href="hash_8h.html" target="_top" xlink:title=" ">
<polygon fill="white" stroke="black" points="494.5,-116.5 494.5,-137.5 547.5,-137.5 547.5,-116.5 494.5,-116.5"/>
<text text-anchor="middle" x="521" y="-123.9" font-family="DejaVuSans" font-size="12.00">hash.h</text>
</a>
</g>
</g>
<!-- Node1&#45;&gt;Node5 -->
<g id="edge4" class="edge">
<title>Node1&#45;&gt;Node5</title>
<path fill="none" stroke="midnightblue" d="M704.91,-468.23C656.4,-457.59 562.98,-430.2 512,-370 471.67,-322.37 475.91,-293.59 486,-232 491.88,-196.09 508.47,-155.87 516.51,-137.76"/>
<polygon fill="midnightblue" stroke="midnightblue" points="704.32,-471.69 714.83,-470.31 705.76,-464.84 704.32,-471.69"/>
</g>
<!-- Node10 -->
<g id="node10" class="node">
<title>Node10</title>
<g id="a_node10"><a xlink:href="str_8c.html" target="_top" xlink:title=" ">
<polygon fill="white" stroke="black" points="502,-58.5 502,-79.5 540,-79.5 540,-58.5 502,-58.5"/>
<text text-anchor="middle" x="521" y="-65.9" font-family="DejaVuSans" font-size="12.00">str.c</text>
</a>
</g>
</g>
<!-- Node1&#45;&gt;Node10 -->
<g id="edge85" class="edge">
<title>Node1&#45;&gt;Node10</title>
<path fill="none" stroke="midnightblue" d="M704.73,-471.93C609.89,-464.82 332,-437.37 332,-360 332,-360 332,-360 332,-300 332,-192.24 457.37,-107.44 503.89,-79.69"/>
<polygon fill="midnightblue" stroke="midnightblue" points="704.62,-475.43 714.85,-472.67 705.13,-468.45 704.62,-475.43"/>
</g>
<!-- Node11 -->
<g id="node11" class="node">
<title>Node11</title>
<g id="a_node11"><a xlink:href="tex__header_8h.html" target="_top" xlink:title=" ">
<polygon fill="white" stroke="black" points="366,-58.5 366,-79.5 452,-79.5 452,-58.5 366,-58.5"/>
<text text-anchor="middle" x="409" y="-65.9" font-family="DejaVuSans" font-size="12.00">tex_header.h</text>
</a>
</g>
</g>
<!-- Node1&#45;&gt;Node11 -->
<g id="edge86" class="edge">
<title>Node1&#45;&gt;Node11</title>
<path fill="none" stroke="midnightblue" d="M704.69,-473.45C632.63,-471.59 449.88,-463.45 302,-428 219.65,-408.26 124,-444.69 124,-360 124,-360 124,-360 124,-184 124,-132.57 285.99,-93.89 365.71,-77.97"/>
<polygon fill="midnightblue" stroke="midnightblue" points="704.82,-476.95 714.9,-473.69 704.98,-469.96 704.82,-476.95"/>
</g>
<!-- Node13 -->
<g id="node13" class="node">
<title>Node13</title>
<g id="a_node13"><a xlink:href="io_8c.html" target="_top" xlink:title=" ">
<polygon fill="white" stroke="black" points="360.5,-232.5 360.5,-253.5 395.5,-253.5 395.5,-232.5 360.5,-232.5"/>
<text text-anchor="middle" x="378" y="-239.9" font-family="DejaVuSans" font-size="12.00">io.c</text>
</a>
</g>
</g>
<!-- Node1&#45;&gt;Node13 -->
<g id="edge14" class="edge">
<title>Node1&#45;&gt;Node13</title>
<path fill="none" stroke="midnightblue" d="M704.68,-472.91C611.96,-469.38 343.75,-456.73 318,-428 270.47,-374.95 342.81,-283.58 369.08,-253.74"/>
<polygon fill="midnightblue" stroke="midnightblue" points="704.72,-476.42 714.84,-473.29 704.98,-469.42 704.72,-476.42"/>
</g>
<!-- Node14 -->
<g id="node14" class="node">
<title>Node14</title>
<g id="a_node14"><a xlink:href="io__unix_8c.html" target="_top" xlink:title=" ">
<polygon fill="white" stroke="black" points="1442.5,-232.5 1442.5,-253.5 1507.5,-253.5 1507.5,-232.5 1442.5,-232.5"/>
<text text-anchor="middle" x="1475" y="-239.9" font-family="DejaVuSans" font-size="12.00">io_unix.c</text>
</a>
</g>
</g>
<!-- Node1&#45;&gt;Node14 -->
<g id="edge15" class="edge">
<title>Node1&#45;&gt;Node14</title>
<path fill="none" stroke="midnightblue" d="M767.19,-474.36C870.77,-474.06 1209.11,-461.11 1428,-312 1449.82,-297.13 1464.56,-268.51 1471.12,-253.58"/>
<polygon fill="midnightblue" stroke="midnightblue" points="767.1,-470.86 757.09,-474.35 767.09,-477.86 767.1,-470.86"/>
</g>
<!-- Node15 -->
<g id="node15" class="node">
<title>Node15</title>
<g id="a_node15"><a xlink:href="lexer_8h.html" target="_top" xlink:title=" ">
<polygon fill="white" stroke="black" points="710,-406.5 710,-427.5 762,-427.5 762,-406.5 710,-406.5"/>
<text text-anchor="middle" x="736" y="-413.9" font-family="DejaVuSans" font-size="12.00">lexer.h</text>
</a>
</g>
</g>
<!-- Node1&#45;&gt;Node15 -->
<g id="edge16" class="edge">
<title>Node1&#45;&gt;Node15</title>
<path fill="none" stroke="midnightblue" d="M736,-454.16C736,-445.16 736,-434.92 736,-427.64"/>
<polygon fill="midnightblue" stroke="midnightblue" points="732.5,-454.25 736,-464.25 739.5,-454.25 732.5,-454.25"/>
</g>
<!-- Node26 -->
<g id="node26" class="node">
<title>Node26</title>
<g id="a_node26"><a xlink:href="scan_8c.html" target="_top" xlink:title=" ">
<polygon fill="white" stroke="black" points="1797.5,-58.5 1797.5,-79.5 1848.5,-79.5 1848.5,-58.5 1797.5,-58.5"/>
<text text-anchor="middle" x="1823" y="-65.9" font-family="DejaVuSans" font-size="12.00">scan.c</text>
</a>
</g>
</g>
<!-- Node1&#45;&gt;Node26 -->
<g id="edge84" class="edge">
<title>Node1&#45;&gt;Node26</title>
<path fill="none" stroke="midnightblue" d="M767.44,-473.95C918.77,-473.49 1572.9,-469.13 1772,-428 1855.34,-410.78 1951,-445.1 1951,-360 1951,-360 1951,-360 1951,-184 1951,-129.69 1885.95,-94.88 1848.6,-79.37"/>
<polygon fill="midnightblue" stroke="midnightblue" points="767.03,-470.45 757.04,-473.98 767.05,-477.45 767.03,-470.45"/>
</g>
<!-- Node28 -->
<g id="node28" class="node">
<title>Node28</title>
<g id="a_node28"><a xlink:href="print_8h.html" target="_top" xlink:title=" ">
<polygon fill="white" stroke="black" points="1075,-116.5 1075,-137.5 1125,-137.5 1125,-116.5 1075,-116.5"/>
<text text-anchor="middle" x="1100" y="-123.9" font-family="DejaVuSans" font-size="12.00">print.h</text>
</a>
</g>
</g>
<!-- Node1&#45;&gt;Node28 -->
<g id="edge82" class="edge">
<title>Node1&#45;&gt;Node28</title>
<path fill="none" stroke="midnightblue" d="M767.38,-473.84C843.82,-472.83 1045.33,-466.42 1208,-428 1277.97,-411.47 1294.57,-401.9 1359,-370 1437.07,-331.34 1481.7,-333.64 1517,-254 1520.96,-245.06 1523.02,-239.71 1517,-232 1467.68,-168.87 1207.66,-138.47 1125.15,-130.31"/>
<polygon fill="midnightblue" stroke="midnightblue" points="766.99,-470.35 757.03,-473.95 767.07,-477.35 766.99,-470.35"/>
</g>
<!-- Node30 -->
<g id="node30" class="node">
<title>Node30</title>
<g id="a_node30"><a xlink:href="printout_8c.html" target="_top" xlink:title=" ">
<polygon fill="white" stroke="black" points="1703.5,-58.5 1703.5,-79.5 1768.5,-79.5 1768.5,-58.5 1703.5,-58.5"/>
<text text-anchor="middle" x="1736" y="-65.9" font-family="DejaVuSans" font-size="12.00">printout.c</text>
</a>
</g>
</g>
<!-- Node1&#45;&gt;Node30 -->
<g id="edge83" class="edge">
<title>Node1&#45;&gt;Node30</title>
<path fill="none" stroke="midnightblue" d="M767.7,-474.22C913.4,-474.97 1519.4,-475.15 1702,-428 1768.2,-410.9 1840,-428.38 1840,-360 1840,-360 1840,-360 1840,-242 1840,-170.81 1773.96,-103.86 1747.13,-79.6"/>
<polygon fill="midnightblue" stroke="midnightblue" points="767.29,-470.72 757.27,-474.16 767.25,-477.72 767.29,-470.72"/>
</g>
<!-- Node32 -->
<g id="node32" class="node">
<title>Node32</title>
<g id="a_node32"><a xlink:href="pool__init_8c.html" target="_top" xlink:title=" ">
<polygon fill="white" stroke="black" points="1979.5,-406.5 1979.5,-427.5 2050.5,-427.5 2050.5,-406.5 1979.5,-406.5"/>
<text text-anchor="middle" x="2015" y="-413.9" font-family="DejaVuSans" font-size="12.00">pool_init.c</text>
</a>
</g>
</g>
<!-- Node1&#45;&gt;Node32 -->
<g id="edge81" class="edge">
<title>Node1&#45;&gt;Node32</title>
<path fill="none" stroke="midnightblue" d="M767.15,-473.51C933.93,-470.78 1722.75,-456.57 1965,-428 1969.66,-427.45 1974.53,-426.7 1979.33,-425.85"/>
<polygon fill="midnightblue" stroke="midnightblue" points="767.02,-470.01 757.08,-473.67 767.13,-477.01 767.02,-470.01"/>
</g>
<!-- Node5&#45;&gt;Node3 -->
<g id="edge7" class="edge">
<title>Node5&#45;&gt;Node3</title>
<path fill="none" stroke="midnightblue" d="M558.22,-124.44C699.81,-118.42 1204.93,-96.27 1365,-80 1376.23,-78.86 1388.46,-77.17 1399.36,-75.5"/>
<polygon fill="midnightblue" stroke="midnightblue" points="557.75,-120.95 547.91,-124.87 558.05,-127.95 557.75,-120.95"/>
</g>
<!-- Node5&#45;&gt;Node4 -->
<g id="edge8" class="edge">
<title>Node5&#45;&gt;Node4</title>
<path fill="none" stroke="midnightblue" d="M484.5,-118.78C426.31,-107.26 313.92,-85.02 263.53,-75.05"/>
<polygon fill="midnightblue" stroke="midnightblue" points="483.89,-122.22 494.38,-120.73 485.25,-115.36 483.89,-122.22"/>
</g>
<!-- Node6 -->
<g id="node6" class="node">
<title>Node6</title>
<g id="a_node6"><a xlink:href="box__display_8c.html" target="_top" xlink:title=" ">
<polygon fill="white" stroke="black" points="807.5,-58.5 807.5,-79.5 896.5,-79.5 896.5,-58.5 807.5,-58.5"/>
<text text-anchor="middle" x="852" y="-65.9" font-family="DejaVuSans" font-size="12.00">box_display.c</text>
</a>
</g>
</g>
<!-- Node5&#45;&gt;Node6 -->
<g id="edge5" class="edge">
<title>Node5&#45;&gt;Node6</title>
<path fill="none" stroke="midnightblue" d="M557.72,-120.12C610.8,-111.58 712.02,-95.1 798,-80 801.01,-79.47 804.1,-78.92 807.22,-78.36"/>
<polygon fill="midnightblue" stroke="midnightblue" points="557.09,-116.68 547.77,-121.72 558.2,-123.59 557.09,-116.68"/>
</g>
<!-- Node7 -->
<g id="node7" class="node">
<title>Node7</title>
<g id="a_node7"><a xlink:href="eqtb_8c.html" target="_top" xlink:title=" ">
<polygon fill="white" stroke="black" points="589.5,-58.5 589.5,-79.5 638.5,-79.5 638.5,-58.5 589.5,-58.5"/>
<text text-anchor="middle" x="614" y="-65.9" font-family="DejaVuSans" font-size="12.00">eqtb.c</text>
</a>
</g>
</g>
<!-- Node5&#45;&gt;Node7 -->
<g id="edge6" class="edge">
<title>Node5&#45;&gt;Node7</title>
<path fill="none" stroke="midnightblue" d="M545.83,-111.05C562.38,-101.08 583.64,-88.28 597.99,-79.64"/>
<polygon fill="midnightblue" stroke="midnightblue" points="543.96,-108.09 537.2,-116.25 547.57,-114.09 543.96,-108.09"/>
</g>
<!-- Node8 -->
<g id="node8" class="node">
<title>Node8</title>
<g id="a_node8"><a xlink:href="hash_8c.html" target="_top" xlink:title=" ">
<polygon fill="white" stroke="black" points="737,-58.5 737,-79.5 789,-79.5 789,-58.5 737,-58.5"/>
<text text-anchor="middle" x="763" y="-65.9" font-family="DejaVuSans" font-size="12.00">hash.c</text>
</a>
</g>
</g>
<!-- Node5&#45;&gt;Node8 -->
<g id="edge9" class="edge">
<title>Node5&#45;&gt;Node8</title>
<path fill="none" stroke="midnightblue" d="M557.59,-118.16C598.49,-109.3 666.64,-94.25 725,-80 728.84,-79.06 732.9,-78.03 736.87,-77.01"/>
<polygon fill="midnightblue" stroke="midnightblue" points="556.84,-114.74 547.8,-120.27 558.32,-121.58 556.84,-114.74"/>
</g>
<!-- Node9 -->
<g id="node9" class="node">
<title>Node9</title>
<g id="a_node9"><a xlink:href="lexer_8c.html" target="_top" xlink:title=" ">
<polygon fill="white" stroke="black" points="664.5,-58.5 664.5,-79.5 715.5,-79.5 715.5,-58.5 664.5,-58.5"/>
<text text-anchor="middle" x="690" y="-65.9" font-family="DejaVuSans" font-size="12.00">lexer.c</text>
</a>
</g>
</g>
<!-- Node5&#45;&gt;Node9 -->
<g id="edge10" class="edge">
<title>Node5&#45;&gt;Node9</title>
<path fill="none" stroke="midnightblue" d="M557.31,-113.97C589.58,-103.28 635.94,-87.91 664.45,-78.47"/>
<polygon fill="midnightblue" stroke="midnightblue" points="556.17,-110.66 547.78,-117.13 558.37,-117.3 556.17,-110.66"/>
</g>
<!-- Node5&#45;&gt;Node10 -->
<g id="edge11" class="edge">
<title>Node5&#45;&gt;Node10</title>
<path fill="none" stroke="midnightblue" d="M521,-106.16C521,-97.16 521,-86.92 521,-79.64"/>
<polygon fill="midnightblue" stroke="midnightblue" points="517.5,-106.25 521,-116.25 524.5,-106.25 517.5,-106.25"/>
</g>
<!-- Node5&#45;&gt;Node11 -->
<g id="edge12" class="edge">
<title>Node5&#45;&gt;Node11</title>
<path fill="none" stroke="midnightblue" d="M492.67,-111.84C472.43,-101.71 445.74,-88.37 428,-79.5"/>
<polygon fill="midnightblue" stroke="midnightblue" points="491.24,-115.03 501.75,-116.37 494.37,-108.77 491.24,-115.03"/>
</g>
<!-- Node12 -->
<g id="node12" class="node">
<title>Node12</title>
<g id="a_node12"><a xlink:href="tex_8c.html" target="_top" xlink:title=" ">
<polygon fill="white" stroke="black" points="388.5,-0.5 388.5,-21.5 429.5,-21.5 429.5,-0.5 388.5,-0.5"/>
<text text-anchor="middle" x="409" y="-7.9" font-family="DejaVuSans" font-size="12.00">tex.c</text>
</a>
</g>
</g>
<!-- Node11&#45;&gt;Node12 -->
<g id="edge13" class="edge">
<title>Node11&#45;&gt;Node12</title>
<path fill="none" stroke="midnightblue" d="M409,-48.16C409,-39.16 409,-28.92 409,-21.64"/>
<polygon fill="midnightblue" stroke="midnightblue" points="405.5,-48.25 409,-58.25 412.5,-48.25 405.5,-48.25"/>
</g>
<!-- Node15&#45;&gt;Node3 -->
<g id="edge18" class="edge">
<title>Node15&#45;&gt;Node3</title>
<path fill="none" stroke="midnightblue" d="M772.14,-415.42C858.7,-413.48 1084.42,-405.17 1269,-370 1357.4,-353.15 1383.22,-353.63 1463,-312 1499.74,-292.83 1517.99,-291.32 1536,-254 1543.01,-239.48 1539.57,-194.89 1530,-174 1510.79,-132.04 1467.76,-96.15 1445.67,-79.66"/>
<polygon fill="midnightblue" stroke="midnightblue" points="771.97,-411.92 762.05,-415.63 772.12,-418.92 771.97,-411.92"/>
</g>
<!-- Node15&#45;&gt;Node4 -->
<g id="edge19" class="edge">
<title>Node15&#45;&gt;Node4</title>
<path fill="none" stroke="midnightblue" d="M699.54,-416.55C573.23,-417.48 162,-412.07 162,-302 162,-302 162,-302 162,-184 162,-138.57 204.31,-97.47 225.79,-79.53"/>
<polygon fill="midnightblue" stroke="midnightblue" points="699.88,-420.05 709.84,-416.45 699.81,-413.05 699.88,-420.05"/>
</g>
<!-- Node15&#45;&gt;Node9 -->
<g id="edge21" class="edge">
<title>Node15&#45;&gt;Node9</title>
<path fill="none" stroke="midnightblue" d="M699.84,-414.62C633.71,-409.95 500,-389.68 500,-302 500,-302 500,-302 500,-242 500,-154.35 612.51,-99.74 664.38,-79.23"/>
<polygon fill="midnightblue" stroke="midnightblue" points="699.64,-418.11 709.84,-415.24 700.08,-411.13 699.64,-418.11"/>
</g>
<!-- Node15&#45;&gt;Node11 -->
<g id="edge80" class="edge">
<title>Node15&#45;&gt;Node11</title>
<path fill="none" stroke="midnightblue" d="M699.27,-413.52C630.32,-408.34 484.52,-394.75 441,-370 384.28,-337.74 371.12,-316.08 351,-254 329.42,-187.41 381.73,-106.91 401.67,-79.59"/>
<polygon fill="midnightblue" stroke="midnightblue" points="699.42,-417.04 709.65,-414.28 699.93,-410.06 699.42,-417.04"/>
</g>
<!-- Node15&#45;&gt;Node13 -->
<g id="edge20" class="edge">
<title>Node15&#45;&gt;Node13</title>
<path fill="none" stroke="midnightblue" d="M699.6,-414.59C649.5,-411.5 557.39,-401.62 486,-370 447.15,-352.79 436.7,-345.06 410,-312 395.24,-293.73 385.42,-267.53 380.88,-253.59"/>
<polygon fill="midnightblue" stroke="midnightblue" points="699.45,-418.09 709.63,-415.16 699.85,-411.1 699.45,-418.09"/>
</g>
<!-- Node16 -->
<g id="node16" class="node">
<title>Node16</title>
<g id="a_node16"><a xlink:href="eqtb__save_8c.html" target="_top" xlink:title=" ">
<polygon fill="white" stroke="black" points="1568.5,-58.5 1568.5,-79.5 1649.5,-79.5 1649.5,-58.5 1568.5,-58.5"/>
<text text-anchor="middle" x="1609" y="-65.9" font-family="DejaVuSans" font-size="12.00">eqtb_save.c</text>
</a>
</g>
</g>
<!-- Node15&#45;&gt;Node16 -->
<g id="edge17" class="edge">
<title>Node15&#45;&gt;Node16</title>
<path fill="none" stroke="midnightblue" d="M772.25,-415.19C885.15,-412.36 1229.3,-401.33 1336,-370 1440.18,-339.41 1481.83,-337.69 1551,-254 1596.24,-199.27 1606.33,-109 1608.46,-79.59"/>
<polygon fill="midnightblue" stroke="midnightblue" points="771.97,-411.7 762.06,-415.44 772.14,-418.69 771.97,-411.7"/>
</g>
<!-- Node17 -->
<g id="node17" class="node">
<title>Node17</title>
<g id="a_node17"><a xlink:href="mem_8c.html" target="_top" xlink:title=" ">
<polygon fill="white" stroke="black" points="1304,-58.5 1304,-79.5 1356,-79.5 1356,-58.5 1304,-58.5"/>
<text text-anchor="middle" x="1330" y="-65.9" font-family="DejaVuSans" font-size="12.00">mem.c</text>
</a>
</g>
</g>
<!-- Node15&#45;&gt;Node17 -->
<g id="edge22" class="edge">
<title>Node15&#45;&gt;Node17</title>
<path fill="none" stroke="midnightblue" d="M772.36,-414.39C913.6,-407.29 1422.67,-373.61 1517,-254 1575.38,-179.97 1417.08,-105.36 1354.35,-79.51"/>
<polygon fill="midnightblue" stroke="midnightblue" points="771.9,-410.91 762.08,-414.89 772.24,-417.9 771.9,-410.91"/>
</g>
<!-- Node18 -->
<g id="node18" class="node">
<title>Node18</title>
<g id="a_node18"><a xlink:href="scan_8h.html" target="_top" xlink:title=" ">
<polygon fill="white" stroke="black" points="972,-348.5 972,-369.5 1024,-369.5 1024,-348.5 972,-348.5"/>
<text text-anchor="middle" x="998" y="-355.9" font-family="DejaVuSans" font-size="12.00">scan.h</text>
</a>
</g>
</g>
<!-- Node15&#45;&gt;Node18 -->
<g id="edge23" class="edge">
<title>Node15&#45;&gt;Node18</title>
<path fill="none" stroke="midnightblue" d="M772.13,-408.28C825.58,-396.85 924.47,-375.72 971.64,-365.63"/>
<polygon fill="midnightblue" stroke="midnightblue" points="771.13,-404.91 762.08,-410.43 772.59,-411.76 771.13,-404.91"/>
</g>
<!-- Node18&#45;&gt;Node3 -->
<g id="edge24" class="edge">
<title>Node18&#45;&gt;Node3</title>
<path fill="none" stroke="midnightblue" d="M1032.01,-344.6C1102.73,-315.48 1268.1,-240.69 1377,-138 1396.66,-119.46 1415.57,-93.83 1425.27,-79.93"/>
<polygon fill="midnightblue" stroke="midnightblue" points="1030.62,-341.39 1022.68,-348.41 1033.26,-347.87 1030.62,-341.39"/>
</g>
<!-- Node18&#45;&gt;Node8 -->
<g id="edge76" class="edge">
<title>Node18&#45;&gt;Node8</title>
<path fill="none" stroke="midnightblue" d="M970.02,-343.71C937.69,-326.1 884.4,-293.6 849,-254 799.41,-198.53 773.14,-109.5 765.44,-79.92"/>
<polygon fill="midnightblue" stroke="midnightblue" points="968.48,-346.85 978.95,-348.48 971.78,-340.68 968.48,-346.85"/>
</g>
<!-- Node18&#45;&gt;Node11 -->
<g id="edge79" class="edge">
<title>Node18&#45;&gt;Node11</title>
<path fill="none" stroke="midnightblue" d="M961.88,-354.2C870.74,-343.2 626.74,-304.86 459,-196 430.45,-177.47 420.85,-169.9 409,-138 401.68,-118.3 404.54,-93.12 406.96,-79.61"/>
<polygon fill="midnightblue" stroke="midnightblue" points="961.64,-357.69 971.98,-355.38 962.45,-350.74 961.64,-357.69"/>
</g>
<!-- Node19 -->
<g id="node19" class="node">
<title>Node19</title>
<g id="a_node19"><a xlink:href="global_8h.html" target="_top" xlink:title=" ">
<polygon fill="white" stroke="black" points="969,-290.5 969,-311.5 1027,-311.5 1027,-290.5 969,-290.5"/>
<text text-anchor="middle" x="998" y="-297.9" font-family="DejaVuSans" font-size="12.00">global.h</text>
</a>
</g>
</g>
<!-- Node18&#45;&gt;Node19 -->
<g id="edge25" class="edge">
<title>Node18&#45;&gt;Node19</title>
<path fill="none" stroke="midnightblue" d="M998,-338.16C998,-329.16 998,-318.92 998,-311.64"/>
<polygon fill="midnightblue" stroke="midnightblue" points="994.5,-338.25 998,-348.25 1001.5,-338.25 994.5,-338.25"/>
</g>
<!-- Node18&#45;&gt;Node26 -->
<g id="edge78" class="edge">
<title>Node18&#45;&gt;Node26</title>
<path fill="none" stroke="midnightblue" d="M1034.22,-355.38C1172.79,-344.65 1667.04,-299.6 1778,-196 1812.47,-163.82 1820.57,-103.45 1822.44,-79.83"/>
<polygon fill="midnightblue" stroke="midnightblue" points="1033.84,-351.9 1024.13,-356.15 1034.37,-358.88 1033.84,-351.9"/>
</g>
<!-- Node18&#45;&gt;Node30 -->
<g id="edge77" class="edge">
<title>Node18&#45;&gt;Node30</title>
<path fill="none" stroke="midnightblue" d="M1034.14,-354.51C1120.06,-345.42 1342.39,-317.19 1517,-254 1567.86,-235.59 1581.62,-229.61 1624,-196 1670.32,-159.27 1713.28,-102.05 1729.34,-79.55"/>
<polygon fill="midnightblue" stroke="midnightblue" points="1033.71,-351.04 1024.12,-355.55 1034.43,-358 1033.71,-351.04"/>
</g>
<!-- Node19&#45;&gt;Node3 -->
<g id="edge28" class="edge">
<title>Node19&#45;&gt;Node3</title>
<path fill="none" stroke="midnightblue" d="M1037.3,-293.05C1071.99,-286.02 1123.38,-273.4 1165,-254 1273.69,-203.35 1386.35,-109.61 1421.13,-79.54"/>
<polygon fill="midnightblue" stroke="midnightblue" points="1036.23,-289.69 1027.1,-295.05 1037.58,-296.56 1036.23,-289.69"/>
</g>
<!-- Node19&#45;&gt;Node4 -->
<g id="edge29" class="edge">
<title>Node19&#45;&gt;Node4</title>
<path fill="none" stroke="midnightblue" d="M958.81,-298.14C867.57,-292.61 635.3,-271.59 459,-196 376.8,-160.76 286.36,-102.43 252.15,-79.59"/>
<polygon fill="midnightblue" stroke="midnightblue" points="958.79,-301.64 968.98,-298.72 959.2,-294.65 958.79,-301.64"/>
</g>
<!-- Node19&#45;&gt;Node7 -->
<g id="edge26" class="edge">
<title>Node19&#45;&gt;Node7</title>
<path fill="none" stroke="midnightblue" d="M959.01,-291.62C928.16,-284.13 884.52,-271.62 849,-254 750.12,-204.96 653.1,-110.15 623.29,-79.68"/>
<polygon fill="midnightblue" stroke="midnightblue" points="958.41,-295.07 968.95,-293.96 960.02,-288.26 958.41,-295.07"/>
</g>
<!-- Node19&#45;&gt;Node8 -->
<g id="edge30" class="edge">
<title>Node19&#45;&gt;Node8</title>
<path fill="none" stroke="midnightblue" d="M971.99,-285.19C941.14,-266.84 889.22,-233.37 852,-196 814.01,-157.86 780.81,-101.94 768.3,-79.67"/>
<polygon fill="midnightblue" stroke="midnightblue" points="970.45,-288.35 980.85,-290.39 974,-282.31 970.45,-288.35"/>
</g>
<!-- Node19&#45;&gt;Node9 -->
<g id="edge34" class="edge">
<title>Node19&#45;&gt;Node9</title>
<path fill="none" stroke="midnightblue" d="M961.19,-286.67C940.06,-278.41 913.37,-266.93 891,-254 816.51,-210.93 795.37,-200.28 736,-138 718.3,-119.43 702.75,-93.36 695.07,-79.51"/>
<polygon fill="midnightblue" stroke="midnightblue" points="960.18,-290.03 970.77,-290.34 962.69,-283.5 960.18,-290.03"/>
</g>
<!-- Node19&#45;&gt;Node11 -->
<g id="edge75" class="edge">
<title>Node19&#45;&gt;Node11</title>
<path fill="none" stroke="midnightblue" d="M958.84,-291.41C919.72,-282.65 857.95,-268.36 805,-254 634.16,-207.68 544.16,-267.97 424,-138 409.06,-121.84 407.78,-94.29 408.29,-79.71"/>
<polygon fill="midnightblue" stroke="midnightblue" points="958.24,-294.86 968.76,-293.62 959.76,-288.03 958.24,-294.86"/>
</g>
<!-- Node19&#45;&gt;Node13 -->
<g id="edge31" class="edge">
<title>Node19&#45;&gt;Node13</title>
<path fill="none" stroke="midnightblue" d="M958.73,-296.45C838.67,-285.61 479.65,-253.18 395.7,-245.6"/>
<polygon fill="midnightblue" stroke="midnightblue" points="958.65,-299.96 968.93,-297.37 959.28,-292.99 958.65,-299.96"/>
</g>
<!-- Node19&#45;&gt;Node14 -->
<g id="edge33" class="edge">
<title>Node19&#45;&gt;Node14</title>
<path fill="none" stroke="midnightblue" d="M1037.22,-295.4C1107.79,-287.13 1260.86,-269.17 1390,-254 1407.27,-251.97 1426.5,-249.71 1442.31,-247.85"/>
<polygon fill="midnightblue" stroke="midnightblue" points="1036.54,-291.96 1027.01,-296.6 1037.35,-298.91 1036.54,-291.96"/>
</g>
<!-- Node20 -->
<g id="node20" class="node">
<title>Node20</title>
<g id="a_node20"><a xlink:href="error_8c.html" target="_top" xlink:title=" ">
<polygon fill="white" stroke="black" points="1075,-58.5 1075,-79.5 1125,-79.5 1125,-58.5 1075,-58.5"/>
<text text-anchor="middle" x="1100" y="-65.9" font-family="DejaVuSans" font-size="12.00">error.c</text>
</a>
</g>
</g>
<!-- Node19&#45;&gt;Node20 -->
<g id="edge27" class="edge">
<title>Node19&#45;&gt;Node20</title>
<path fill="none" stroke="midnightblue" d="M1032.1,-286.36C1066.72,-270.45 1118.34,-240.51 1141,-196 1148.25,-181.76 1142.74,-138 1134,-116 1128.42,-101.97 1117.48,-88.39 1109.51,-79.66"/>
<polygon fill="midnightblue" stroke="midnightblue" points="1030.55,-283.22 1022.83,-290.48 1033.39,-289.62 1030.55,-283.22"/>
</g>
<!-- Node21 -->
<g id="node21" class="node">
<title>Node21</title>
<g id="a_node21"><a xlink:href="io__fname_8c.html" target="_top" xlink:title=" ">
<polygon fill="white" stroke="black" points="1143.5,-58.5 1143.5,-79.5 1218.5,-79.5 1218.5,-58.5 1143.5,-58.5"/>
<text text-anchor="middle" x="1181" y="-65.9" font-family="DejaVuSans" font-size="12.00">io_fname.c</text>
</a>
</g>
</g>
<!-- Node19&#45;&gt;Node21 -->
<g id="edge32" class="edge">
<title>Node19&#45;&gt;Node21</title>
<path fill="none" stroke="midnightblue" d="M1037.25,-290.75C1061.47,-283.63 1092.16,-271.91 1115,-254 1172.15,-209.18 1179.87,-110.72 1180.87,-79.61"/>
<polygon fill="midnightblue" stroke="midnightblue" points="1036,-287.47 1027.31,-293.53 1037.89,-294.21 1036,-287.47"/>
</g>
<!-- Node22 -->
<g id="node22" class="node">
<title>Node22</title>
<g id="a_node22"><a xlink:href="mem_8h.html" target="_top" xlink:title=" ">
<polygon fill="white" stroke="black" points="971.5,-232.5 971.5,-253.5 1024.5,-253.5 1024.5,-232.5 971.5,-232.5"/>
<text text-anchor="middle" x="998" y="-239.9" font-family="DejaVuSans" font-size="12.00">mem.h</text>
</a>
</g>
</g>
<!-- Node19&#45;&gt;Node22 -->
<g id="edge35" class="edge">
<title>Node19&#45;&gt;Node22</title>
<path fill="none" stroke="midnightblue" d="M998,-280.16C998,-271.16 998,-260.92 998,-253.64"/>
<polygon fill="midnightblue" stroke="midnightblue" points="994.5,-280.25 998,-290.25 1001.5,-280.25 994.5,-280.25"/>
</g>
<!-- Node19&#45;&gt;Node26 -->
<g id="edge74" class="edge">
<title>Node19&#45;&gt;Node26</title>
<path fill="none" stroke="midnightblue" d="M1037.4,-298.8C1142.55,-295.22 1427.82,-283.05 1517,-254 1643.43,-212.82 1772.82,-111.47 1811.45,-79.69"/>
<polygon fill="midnightblue" stroke="midnightblue" points="1037.1,-295.3 1027.22,-299.13 1037.33,-302.3 1037.1,-295.3"/>
</g>
<!-- Node29 -->
<g id="node29" class="node">
<title>Node29</title>
<g id="a_node29"><a xlink:href="print_8c.html" target="_top" xlink:title=" ">
<polygon fill="white" stroke="black" points="1236.5,-58.5 1236.5,-79.5 1285.5,-79.5 1285.5,-58.5 1236.5,-58.5"/>
<text text-anchor="middle" x="1261" y="-65.9" font-family="DejaVuSans" font-size="12.00">print.c</text>
</a>
</g>
</g>
<!-- Node19&#45;&gt;Node29 -->
<g id="edge73" class="edge">
<title>Node19&#45;&gt;Node29</title>
<path fill="none" stroke="midnightblue" d="M1037.27,-294.4C1067.54,-288.49 1109.12,-276.73 1139,-254 1203.98,-204.57 1245.29,-110.02 1257.33,-79.65"/>
<polygon fill="midnightblue" stroke="midnightblue" points="1036.29,-291.02 1027.08,-296.26 1037.54,-297.91 1036.29,-291.02"/>
</g>
<!-- Node22&#45;&gt;Node3 -->
<g id="edge41" class="edge">
<title>Node22&#45;&gt;Node3</title>
<path fill="none" stroke="midnightblue" d="M1034.81,-234.62C1070.87,-226.86 1127.1,-213.38 1174,-196 1268.65,-160.92 1374.99,-102.5 1415.31,-79.61"/>
<polygon fill="midnightblue" stroke="midnightblue" points="1033.8,-231.25 1024.74,-236.74 1035.25,-238.1 1033.8,-231.25"/>
</g>
<!-- Node22&#45;&gt;Node4 -->
<g id="edge42" class="edge">
<title>Node22&#45;&gt;Node4</title>
<path fill="none" stroke="midnightblue" d="M961.34,-240.12C891.23,-235.99 733.62,-224.17 604,-196 521.87,-178.15 503.49,-165.32 424,-138 366.12,-118.1 298.81,-93 263.16,-79.55"/>
<polygon fill="midnightblue" stroke="midnightblue" points="961.24,-243.62 971.42,-240.69 961.64,-236.63 961.24,-243.62"/>
</g>
<!-- Node22&#45;&gt;Node6 -->
<g id="edge39" class="edge">
<title>Node22&#45;&gt;Node6</title>
<path fill="none" stroke="midnightblue" d="M961.5,-232.12C919.66,-218.6 853.11,-189.89 824,-138 812.88,-118.18 830.76,-93.05 842.69,-79.57"/>
<polygon fill="midnightblue" stroke="midnightblue" points="960.72,-235.54 971.31,-235.15 962.79,-228.85 960.72,-235.54"/>
</g>
<!-- Node22&#45;&gt;Node9 -->
<g id="edge43" class="edge">
<title>Node22&#45;&gt;Node9</title>
<path fill="none" stroke="midnightblue" d="M961.54,-234.34C931.12,-227.06 887.2,-214.47 852,-196 787.95,-162.4 723.61,-102.86 699.72,-79.64"/>
<polygon fill="midnightblue" stroke="midnightblue" points="960.78,-237.75 971.31,-236.6 962.36,-230.93 960.78,-237.75"/>
</g>
<!-- Node22&#45;&gt;Node11 -->
<g id="edge46" class="edge">
<title>Node22&#45;&gt;Node11</title>
<path fill="none" stroke="midnightblue" d="M961.04,-235.89C841.1,-215.93 469.23,-153.11 448,-138 427.6,-123.48 416.38,-94.7 411.68,-79.67"/>
<polygon fill="midnightblue" stroke="midnightblue" points="960.76,-239.39 971.2,-237.57 961.9,-232.48 960.76,-239.39"/>
</g>
<!-- Node22&#45;&gt;Node16 -->
<g id="edge40" class="edge">
<title>Node22&#45;&gt;Node16</title>
<path fill="none" stroke="midnightblue" d="M1034.67,-235.28C1077.68,-227.14 1150.97,-212.46 1213,-196 1353.51,-158.71 1518.17,-102.06 1581.9,-79.63"/>
<polygon fill="midnightblue" stroke="midnightblue" points="1033.86,-231.87 1024.68,-237.16 1035.15,-238.75 1033.86,-231.87"/>
</g>
<!-- Node22&#45;&gt;Node17 -->
<g id="edge44" class="edge">
<title>Node22&#45;&gt;Node17</title>
<path fill="none" stroke="midnightblue" d="M1034.56,-233.24C1064.11,-225.46 1106.33,-212.73 1141,-196 1212.74,-161.38 1288.94,-102.94 1317.9,-79.83"/>
<polygon fill="midnightblue" stroke="midnightblue" points="1033.48,-229.9 1024.67,-235.78 1035.23,-236.68 1033.48,-229.9"/>
</g>
<!-- Node23 -->
<g id="node23" class="node">
<title>Node23</title>
<g id="a_node23"><a xlink:href="box_8c.html" target="_top" xlink:title=" ">
<polygon fill="white" stroke="black" points="1001.5,-174.5 1001.5,-195.5 1046.5,-195.5 1046.5,-174.5 1001.5,-174.5"/>
<text text-anchor="middle" x="1024" y="-181.9" font-family="DejaVuSans" font-size="12.00">box.c</text>
</a>
</g>
</g>
<!-- Node22&#45;&gt;Node23 -->
<g id="edge36" class="edge">
<title>Node22&#45;&gt;Node23</title>
<path fill="none" stroke="midnightblue" d="M1006.8,-223.04C1011.08,-213.83 1016.03,-203.16 1019.52,-195.64"/>
<polygon fill="midnightblue" stroke="midnightblue" points="1003.57,-221.7 1002.53,-232.25 1009.91,-224.65 1003.57,-221.7"/>
</g>
<!-- Node24 -->
<g id="node24" class="node">
<title>Node24</title>
<g id="a_node24"><a xlink:href="box__copy_8c.html" target="_top" xlink:title=" ">
<polygon fill="white" stroke="black" points="832.5,-116.5 832.5,-137.5 909.5,-137.5 909.5,-116.5 832.5,-116.5"/>
<text text-anchor="middle" x="871" y="-123.9" font-family="DejaVuSans" font-size="12.00">box_copy.c</text>
</a>
</g>
</g>
<!-- Node22&#45;&gt;Node24 -->
<g id="edge37" class="edge">
<title>Node22&#45;&gt;Node24</title>
<path fill="none" stroke="midnightblue" d="M979.6,-225.48C952.71,-201.34 903.52,-157.19 881.8,-137.69"/>
<polygon fill="midnightblue" stroke="midnightblue" points="977.39,-228.21 987.17,-232.28 982.07,-223 977.39,-228.21"/>
</g>
<!-- Node25 -->
<g id="node25" class="node">
<title>Node25</title>
<g id="a_node25"><a xlink:href="box__destroy_8c.html" target="_top" xlink:title=" ">
<polygon fill="white" stroke="black" points="927.5,-116.5 927.5,-137.5 1018.5,-137.5 1018.5,-116.5 927.5,-116.5"/>
<text text-anchor="middle" x="973" y="-123.9" font-family="DejaVuSans" font-size="12.00">box_destroy.c</text>
</a>
</g>
</g>
<!-- Node22&#45;&gt;Node25 -->
<g id="edge38" class="edge">
<title>Node22&#45;&gt;Node25</title>
<path fill="none" stroke="midnightblue" d="M993.67,-222.25C988.26,-197.58 979.22,-156.35 975.13,-137.69"/>
<polygon fill="midnightblue" stroke="midnightblue" points="990.31,-223.26 995.87,-232.28 997.15,-221.76 990.31,-223.26"/>
</g>
<!-- Node22&#45;&gt;Node26 -->
<g id="edge45" class="edge">
<title>Node22&#45;&gt;Node26</title>
<path fill="none" stroke="midnightblue" d="M1034.74,-236.31C1086.48,-228.17 1183.69,-212.34 1266,-196 1471.92,-155.12 1718.27,-95.66 1797.28,-76.33"/>
<polygon fill="midnightblue" stroke="midnightblue" points="1034.05,-232.88 1024.71,-237.89 1035.13,-239.8 1034.05,-232.88"/>
</g>
<!-- Node27 -->
<g id="node27" class="node">
<title>Node27</title>
<g id="a_node27"><a xlink:href="texmac_8h.html" target="_top" xlink:title=" ">
<polygon fill="white" stroke="black" points="1066.5,-174.5 1066.5,-195.5 1131.5,-195.5 1131.5,-174.5 1066.5,-174.5"/>
<text text-anchor="middle" x="1099" y="-181.9" font-family="DejaVuSans" font-size="12.00">texmac.h</text>
</a>
</g>
</g>
<!-- Node22&#45;&gt;Node27 -->
<g id="edge47" class="edge">
<title>Node22&#45;&gt;Node27</title>
<path fill="none" stroke="midnightblue" d="M1024.47,-227.32C1042.51,-217.32 1065.89,-204.36 1081.61,-195.64"/>
<polygon fill="midnightblue" stroke="midnightblue" points="1022.64,-224.34 1015.59,-232.25 1026.04,-230.46 1022.64,-224.34"/>
</g>
<!-- Node27&#45;&gt;Node3 -->
<g id="edge50" class="edge">
<title>Node27&#45;&gt;Node3</title>
<path fill="none" stroke="midnightblue" d="M1136.62,-171.12C1204.1,-148.02 1344.27,-100.04 1404.03,-79.58"/>
<polygon fill="midnightblue" stroke="midnightblue" points="1135.15,-167.93 1126.82,-174.48 1137.41,-174.55 1135.15,-167.93"/>
</g>
<!-- Node27&#45;&gt;Node8 -->
<g id="edge51" class="edge">
<title>Node27&#45;&gt;Node8</title>
<path fill="none" stroke="midnightblue" d="M1085.7,-166.16C1072.8,-150.27 1051.74,-127.76 1028,-116 935.68,-70.27 899.69,-101.82 799,-80 795.83,-79.31 792.53,-78.51 789.26,-77.67"/>
<polygon fill="midnightblue" stroke="midnightblue" points="1083.07,-168.48 1091.99,-174.2 1088.58,-164.16 1083.07,-168.48"/>
</g>
<!-- Node27&#45;&gt;Node11 -->
<g id="edge72" class="edge">
<title>Node27&#45;&gt;Node11</title>
<path fill="none" stroke="midnightblue" d="M1056.31,-174.05C1056.21,-174.03 1056.1,-174.02 1056,-174 930.43,-155.56 603.23,-186.63 486,-138 455.36,-125.29 428.6,-95.15 416.25,-79.62"/>
<polygon fill="midnightblue" stroke="midnightblue" points="1055.78,-177.51 1066.24,-175.79 1057,-170.61 1055.78,-177.51"/>
</g>
<!-- Node27&#45;&gt;Node17 -->
<g id="edge52" class="edge">
<title>Node27&#45;&gt;Node17</title>
<path fill="none" stroke="midnightblue" d="M1122.33,-168.92C1145.36,-154.38 1181.83,-132.24 1215,-116 1244.74,-101.44 1280.32,-87.75 1303.94,-79.15"/>
<polygon fill="midnightblue" stroke="midnightblue" points="1120.18,-166.14 1113.62,-174.47 1123.94,-172.05 1120.18,-166.14"/>
</g>
<!-- Node27&#45;&gt;Node24 -->
<g id="edge48" class="edge">
<title>Node27&#45;&gt;Node24</title>
<path fill="none" stroke="midnightblue" d="M1056.38,-173.53C1014.27,-163.19 950.41,-147.5 909.71,-137.51"/>
<polygon fill="midnightblue" stroke="midnightblue" points="1055.79,-176.99 1066.33,-175.98 1057.46,-170.19 1055.79,-176.99"/>
</g>
<!-- Node27&#45;&gt;Node25 -->
<g id="edge49" class="edge">
<title>Node27&#45;&gt;Node25</title>
<path fill="none" stroke="midnightblue" d="M1068.06,-170.25C1045.17,-160.08 1014.6,-146.49 994.38,-137.5"/>
<polygon fill="midnightblue" stroke="midnightblue" points="1066.78,-173.51 1077.34,-174.37 1069.62,-167.11 1066.78,-173.51"/>
</g>
<!-- Node27&#45;&gt;Node26 -->
<g id="edge71" class="edge">
<title>Node27&#45;&gt;Node26</title>
<path fill="none" stroke="midnightblue" d="M1141.79,-178.66C1249.25,-164.99 1538.96,-126.5 1778,-80 1784.28,-78.78 1791.04,-77.34 1797.35,-75.95"/>
<polygon fill="midnightblue" stroke="midnightblue" points="1141.15,-175.21 1131.67,-179.94 1142.03,-182.16 1141.15,-175.21"/>
</g>
<!-- Node27&#45;&gt;Node28 -->
<g id="edge53" class="edge">
<title>Node27&#45;&gt;Node28</title>
<path fill="none" stroke="midnightblue" d="M1099.35,-164.16C1099.52,-155.16 1099.7,-144.92 1099.83,-137.64"/>
<polygon fill="midnightblue" stroke="midnightblue" points="1095.85,-164.18 1099.17,-174.25 1102.85,-164.31 1095.85,-164.18"/>
</g>
<!-- Node27&#45;&gt;Node30 -->
<g id="edge70" class="edge">
<title>Node27&#45;&gt;Node30</title>
<path fill="none" stroke="midnightblue" d="M1141.8,-176.34C1261.34,-154.95 1597,-94.88 1703.29,-75.85"/>
<polygon fill="midnightblue" stroke="midnightblue" points="1141.13,-172.9 1131.91,-178.11 1142.37,-179.79 1141.13,-172.9"/>
</g>
<!-- Node28&#45;&gt;Node3 -->
<g id="edge58" class="edge">
<title>Node28&#45;&gt;Node3</title>
<path fill="none" stroke="midnightblue" d="M1135.34,-120.04C1200.07,-109.12 1336.72,-86.07 1399.37,-75.5"/>
<polygon fill="midnightblue" stroke="midnightblue" points="1134.51,-116.63 1125.23,-121.74 1135.67,-123.53 1134.51,-116.63"/>
</g>
<!-- Node28&#45;&gt;Node4 -->
<g id="edge59" class="edge">
<title>Node28&#45;&gt;Node4</title>
<path fill="none" stroke="midnightblue" d="M1064.52,-120.47C1052.91,-118.82 1039.93,-117.15 1028,-116 730.72,-87.43 654.95,-100.51 357,-80 324.73,-77.78 287.6,-74.55 263.52,-72.37"/>
<polygon fill="midnightblue" stroke="midnightblue" points="1064.34,-123.98 1074.74,-121.96 1065.35,-117.05 1064.34,-123.98"/>
</g>
<!-- Node28&#45;&gt;Node6 -->
<g id="edge54" class="edge">
<title>Node28&#45;&gt;Node6</title>
<path fill="none" stroke="midnightblue" d="M1064.84,-116.93C1063.55,-116.61 1062.26,-116.3 1061,-116 1004.44,-102.53 938.92,-88.34 896.54,-79.34"/>
<polygon fill="midnightblue" stroke="midnightblue" points="1064.31,-120.4 1074.86,-119.42 1066,-113.61 1064.31,-120.4"/>
</g>
<!-- Node28&#45;&gt;Node7 -->
<g id="edge55" class="edge">
<title>Node28&#45;&gt;Node7</title>
<path fill="none" stroke="midnightblue" d="M1064.49,-120.77C1052.87,-119.14 1039.9,-117.4 1028,-116 863.03,-96.57 819.85,-107.3 656,-80 650.38,-79.06 644.4,-77.8 638.76,-76.49"/>
<polygon fill="midnightblue" stroke="midnightblue" points="1064.32,-124.28 1074.71,-122.23 1065.3,-117.35 1064.32,-124.28"/>
</g>
<!-- Node28&#45;&gt;Node8 -->
<g id="edge60" class="edge">
<title>Node28&#45;&gt;Node8</title>
<path fill="none" stroke="midnightblue" d="M1064.87,-116.79C1063.57,-116.52 1062.27,-116.25 1061,-116 945.66,-93.37 914.11,-103.78 799,-80 795.82,-79.34 792.51,-78.56 789.25,-77.73"/>
<polygon fill="midnightblue" stroke="midnightblue" points="1064.39,-120.28 1074.92,-119.12 1065.97,-113.46 1064.39,-120.28"/>
</g>
<!-- Node28&#45;&gt;Node9 -->
<g id="edge62" class="edge">
<title>Node28&#45;&gt;Node9</title>
<path fill="none" stroke="midnightblue" d="M1064.47,-120.93C1052.85,-119.31 1039.88,-117.54 1028,-116 894.82,-98.76 859.91,-105.15 728,-80 723.98,-79.23 719.76,-78.28 715.65,-77.26"/>
<polygon fill="midnightblue" stroke="midnightblue" points="1064.3,-124.44 1074.69,-122.37 1065.28,-117.51 1064.3,-124.44"/>
</g>
<!-- Node28&#45;&gt;Node10 -->
<g id="edge67" class="edge">
<title>Node28&#45;&gt;Node10</title>
<path fill="none" stroke="midnightblue" d="M1064.5,-120.66C1052.89,-119.02 1039.91,-117.31 1028,-116 829.88,-94.28 778.81,-104.41 581,-80 567.27,-78.31 551.88,-75.73 540.13,-73.61"/>
<polygon fill="midnightblue" stroke="midnightblue" points="1064.32,-124.17 1074.72,-122.13 1065.32,-117.24 1064.32,-124.17"/>
</g>
<!-- Node28&#45;&gt;Node11 -->
<g id="edge68" class="edge">
<title>Node28&#45;&gt;Node11</title>
<path fill="none" stroke="midnightblue" d="M1064.51,-120.56C1052.9,-118.92 1039.92,-117.23 1028,-116 790.94,-91.59 730.29,-102.09 493,-80 479.69,-78.76 465.23,-77.14 452.12,-75.56"/>
<polygon fill="midnightblue" stroke="midnightblue" points="1064.33,-124.07 1074.73,-122.04 1065.33,-117.15 1064.33,-124.07"/>
</g>
<!-- Node28&#45;&gt;Node16 -->
<g id="edge56" class="edge">
<title>Node28&#45;&gt;Node16</title>
<path fill="none" stroke="midnightblue" d="M1135.38,-122.11C1226.97,-112.03 1471.43,-85.14 1568.47,-74.46"/>
<polygon fill="midnightblue" stroke="midnightblue" points="1134.8,-118.65 1125.24,-123.22 1135.56,-125.61 1134.8,-118.65"/>
</g>
<!-- Node28&#45;&gt;Node17 -->
<g id="edge63" class="edge">
<title>Node28&#45;&gt;Node17</title>
<path fill="none" stroke="midnightblue" d="M1135.16,-116.94C1136.46,-116.62 1137.74,-116.31 1139,-116 1208.13,-99.16 1226.1,-97.78 1295,-80 1297.81,-79.27 1300.75,-78.49 1303.67,-77.68"/>
<polygon fill="midnightblue" stroke="midnightblue" points="1134,-113.63 1125.15,-119.46 1135.7,-120.41 1134,-113.63"/>
</g>
<!-- Node28&#45;&gt;Node20 -->
<g id="edge57" class="edge">
<title>Node28&#45;&gt;Node20</title>
<path fill="none" stroke="midnightblue" d="M1100,-106.16C1100,-97.16 1100,-86.92 1100,-79.64"/>
<polygon fill="midnightblue" stroke="midnightblue" points="1096.5,-106.25 1100,-116.25 1103.5,-106.25 1096.5,-106.25"/>
</g>
<!-- Node28&#45;&gt;Node21 -->
<g id="edge61" class="edge">
<title>Node28&#45;&gt;Node21</title>
<path fill="none" stroke="midnightblue" d="M1122.43,-110.49C1136.73,-100.61 1154.79,-88.12 1167.05,-79.64"/>
<polygon fill="midnightblue" stroke="midnightblue" points="1120.34,-107.68 1114.11,-116.25 1124.33,-113.44 1120.34,-107.68"/>
</g>
<!-- Node28&#45;&gt;Node26 -->
<g id="edge66" class="edge">
<title>Node28&#45;&gt;Node26</title>
<path fill="none" stroke="midnightblue" d="M1135.3,-125.48C1236.12,-123.59 1533.8,-115.21 1778,-80 1784.34,-79.09 1791.11,-77.77 1797.42,-76.39"/>
<polygon fill="midnightblue" stroke="midnightblue" points="1135.01,-121.98 1125.08,-125.66 1135.14,-128.98 1135.01,-121.98"/>
</g>
<!-- Node28&#45;&gt;Node29 -->
<g id="edge64" class="edge">
<title>Node28&#45;&gt;Node29</title>
<path fill="none" stroke="midnightblue" d="M1134.98,-113.83C1165.57,-103.19 1209.21,-88.01 1236.28,-78.6"/>
<polygon fill="midnightblue" stroke="midnightblue" points="1133.45,-110.66 1125.16,-117.25 1135.75,-117.27 1133.45,-110.66"/>
</g>
<!-- Node28&#45;&gt;Node30 -->
<g id="edge65" class="edge">
<title>Node28&#45;&gt;Node30</title>
<path fill="none" stroke="midnightblue" d="M1135.11,-123.69C1223.31,-117.75 1461.27,-100.96 1659,-80 1673.61,-78.45 1689.74,-76.41 1703.44,-74.57"/>
<polygon fill="midnightblue" stroke="midnightblue" points="1134.86,-120.2 1125.11,-124.36 1135.32,-127.18 1134.86,-120.2"/>
</g>
<!-- Node31 -->
<g id="node31" class="node">
<title>Node31</title>
<g id="a_node31"><a xlink:href="texmath_8c.html" target="_top" xlink:title=" ">
<polygon fill="white" stroke="black" points="989,-58.5 989,-79.5 1057,-79.5 1057,-58.5 989,-58.5"/>
<text text-anchor="middle" x="1023" y="-65.9" font-family="DejaVuSans" font-size="12.00">texmath.c</text>
</a>
</g>
</g>
<!-- Node28&#45;&gt;Node31 -->
<g id="edge69" class="edge">
<title>Node28&#45;&gt;Node31</title>
<path fill="none" stroke="midnightblue" d="M1078.29,-110.21C1064.76,-100.37 1047.8,-88.04 1036.26,-79.64"/>
<polygon fill="midnightblue" stroke="midnightblue" points="1076.44,-113.19 1086.59,-116.25 1080.56,-107.53 1076.44,-113.19"/>
</g>
</g>
</svg>
