<?xml version="1.0" encoding="UTF-8" standalone="no"?>
<!DOCTYPE svg PUBLIC "-//W3C//DTD SVG 1.1//EN"
 "http://www.w3.org/Graphics/SVG/1.1/DTD/svg11.dtd">
<!-- Generated by graphviz version 2.44.0 ()
 -->
<!-- Title: tex_types.h Pages: 1 -->
<svg width="3578pt" height="726pt"
 viewBox="0.00 0.00 3578.28 726.00" xmlns="http://www.w3.org/2000/svg" xmlns:xlink="http://www.w3.org/1999/xlink">
<g id="graph0" class="graph" transform="scale(1 1) rotate(0) translate(4 722)">
<title>tex_types.h</title>
<polygon fill="white" stroke="transparent" points="-4,4 -4,-722 3574.28,-722 3574.28,4 -4,4"/>
<!-- Node1 -->
<g id="node1" class="node">
<title>Node1</title>
<g id="a_node1"><a xlink:title=" ">
<polygon fill="#bfbfbf" stroke="black" points="1178.78,-696.5 1178.78,-717.5 1255.78,-717.5 1255.78,-696.5 1178.78,-696.5"/>
<text text-anchor="middle" x="1217.28" y="-703.9" font-family="DejaVuSans" font-size="12.00">tex_types.h</text>
</a>
</g>
</g>
<!-- Node2 -->
<g id="node2" class="node">
<title>Node2</title>
<g id="a_node2"><a xlink:href="box_8c.html" target="_top" xlink:title=" ">
<polygon fill="white" stroke="black" points="1820.78,-116.5 1820.78,-137.5 1865.78,-137.5 1865.78,-116.5 1820.78,-116.5"/>
<text text-anchor="middle" x="1843.28" y="-123.9" font-family="DejaVuSans" font-size="12.00">box.c</text>
</a>
</g>
</g>
<!-- Node1&#45;&gt;Node2 -->
<g id="edge1" class="edge">
<title>Node1&#45;&gt;Node2</title>
<path fill="none" stroke="midnightblue" d="M1266.25,-703.62C1431.04,-694.96 1955.28,-661.93 1955.28,-592 1955.28,-592 1955.28,-592 1955.28,-416 1955.28,-299.58 1874.81,-173.6 1850.29,-137.91"/>
<polygon fill="midnightblue" stroke="midnightblue" points="1265.73,-700.14 1255.92,-704.15 1266.09,-707.13 1265.73,-700.14"/>
</g>
<!-- Node3 -->
<g id="node3" class="node">
<title>Node3</title>
<g id="a_node3"><a xlink:href="box__copy_8c.html" target="_top" xlink:title=" ">
<polygon fill="white" stroke="black" points="240.78,-116.5 240.78,-137.5 317.78,-137.5 317.78,-116.5 240.78,-116.5"/>
<text text-anchor="middle" x="279.28" y="-123.9" font-family="DejaVuSans" font-size="12.00">box_copy.c</text>
</a>
</g>
</g>
<!-- Node1&#45;&gt;Node3 -->
<g id="edge2" class="edge">
<title>Node1&#45;&gt;Node3</title>
<path fill="none" stroke="midnightblue" d="M1168.49,-705.85C962.71,-704.58 176.28,-693.13 176.28,-592 176.28,-592 176.28,-592 176.28,-474 176.28,-390.43 252.28,-385.57 252.28,-302 252.28,-302 252.28,-302 252.28,-242 252.28,-202.34 267.95,-156.95 275.42,-137.58"/>
<polygon fill="midnightblue" stroke="midnightblue" points="1168.67,-709.35 1178.69,-705.91 1168.71,-702.35 1168.67,-709.35"/>
</g>
<!-- Node4 -->
<g id="node4" class="node">
<title>Node4</title>
<g id="a_node4"><a xlink:href="box__destroy_8c.html" target="_top" xlink:title=" ">
<polygon fill="white" stroke="black" points="54.78,-116.5 54.78,-137.5 145.78,-137.5 145.78,-116.5 54.78,-116.5"/>
<text text-anchor="middle" x="100.28" y="-123.9" font-family="DejaVuSans" font-size="12.00">box_destroy.c</text>
</a>
</g>
</g>
<!-- Node1&#45;&gt;Node4 -->
<g id="edge3" class="edge">
<title>Node1&#45;&gt;Node4</title>
<path fill="none" stroke="midnightblue" d="M1168.46,-706.54C944.26,-708.41 24.28,-708.93 24.28,-592 24.28,-592 24.28,-592 24.28,-300 24.28,-233.08 73.02,-163.04 92.44,-137.79"/>
<polygon fill="midnightblue" stroke="midnightblue" points="1168.64,-710.04 1178.61,-706.45 1168.58,-703.04 1168.64,-710.04"/>
</g>
<!-- Node5 -->
<g id="node5" class="node">
<title>Node5</title>
<g id="a_node5"><a xlink:href="box__display_8c.html" target="_top" xlink:title=" ">
<polygon fill="white" stroke="black" points="1458.78,-58.5 1458.78,-79.5 1547.78,-79.5 1547.78,-58.5 1458.78,-58.5"/>
<text text-anchor="middle" x="1503.28" y="-65.9" font-family="DejaVuSans" font-size="12.00">box_display.c</text>
</a>
</g>
</g>
<!-- Node1&#45;&gt;Node5 -->
<g id="edge4" class="edge">
<title>Node1&#45;&gt;Node5</title>
<path fill="none" stroke="midnightblue" d="M1168.51,-696.66C1138.08,-689.5 1098.84,-677.78 1067.28,-660 1033.55,-641 1028.39,-630.59 1002.28,-602 906.31,-496.92 827.75,-388.69 930.28,-290 964.92,-256.66 987.36,-271.13 1032.28,-254 1119.81,-220.62 1140.38,-208.97 1227.28,-174 1292.44,-147.78 1308.53,-140.69 1374.28,-116 1409.01,-102.96 1449.32,-88.73 1475.51,-79.61"/>
<polygon fill="midnightblue" stroke="midnightblue" points="1167.95,-700.12 1178.47,-698.91 1169.49,-693.29 1167.95,-700.12"/>
</g>
<!-- Node6 -->
<g id="node6" class="node">
<title>Node6</title>
<g id="a_node6"><a xlink:href="eqtb_8h.html" target="_top" xlink:title=" ">
<polygon fill="white" stroke="black" points="1968.28,-174.5 1968.28,-195.5 2018.28,-195.5 2018.28,-174.5 1968.28,-174.5"/>
<text text-anchor="middle" x="1993.28" y="-181.9" font-family="DejaVuSans" font-size="12.00">eqtb.h</text>
</a>
</g>
</g>
<!-- Node1&#45;&gt;Node6 -->
<g id="edge5" class="edge">
<title>Node1&#45;&gt;Node6</title>
<path fill="none" stroke="midnightblue" d="M1266.29,-704.47C1410.77,-699.71 1833.43,-684.08 1969.28,-660 2251.05,-610.05 2586.28,-762.16 2586.28,-476 2586.28,-476 2586.28,-476 2586.28,-416 2586.28,-243.04 2370.77,-378.92 2211.28,-312 2129.46,-277.66 2040.32,-218.55 2006.92,-195.55"/>
<polygon fill="midnightblue" stroke="midnightblue" points="1265.85,-700.98 1255.97,-704.8 1266.08,-707.98 1265.85,-700.98"/>
</g>
<!-- Node18 -->
<g id="node18" class="node">
<title>Node18</title>
<g id="a_node18"><a xlink:href="io__fname_8c.html" target="_top" xlink:title=" ">
<polygon fill="white" stroke="black" points="3418.78,-58.5 3418.78,-79.5 3493.78,-79.5 3493.78,-58.5 3418.78,-58.5"/>
<text text-anchor="middle" x="3456.28" y="-65.9" font-family="DejaVuSans" font-size="12.00">io_fname.c</text>
</a>
</g>
</g>
<!-- Node1&#45;&gt;Node18 -->
<g id="edge30" class="edge">
<title>Node1&#45;&gt;Node18</title>
<path fill="none" stroke="midnightblue" d="M1266.61,-706.27C1605.01,-707.81 3570.28,-711.61 3570.28,-592 3570.28,-592 3570.28,-592 3570.28,-184 3570.28,-132.36 3511.07,-95.94 3477.99,-79.63"/>
<polygon fill="midnightblue" stroke="midnightblue" points="1266.18,-702.77 1256.16,-706.22 1266.14,-709.77 1266.18,-702.77"/>
</g>
<!-- Node25 -->
<g id="node25" class="node">
<title>Node25</title>
<g id="a_node25"><a xlink:href="error_8c.html" target="_top" xlink:title=" ">
<polygon fill="white" stroke="black" points="2394.28,-58.5 2394.28,-79.5 2444.28,-79.5 2444.28,-58.5 2394.28,-58.5"/>
<text text-anchor="middle" x="2419.28" y="-65.9" font-family="DejaVuSans" font-size="12.00">error.c</text>
</a>
</g>
</g>
<!-- Node1&#45;&gt;Node25 -->
<g id="edge29" class="edge">
<title>Node1&#45;&gt;Node25</title>
<path fill="none" stroke="midnightblue" d="M1266.26,-706.41C1466.74,-707.73 2244.36,-709.19 2881.28,-660 3113.91,-642.03 3305.89,-760.34 3393.28,-544 3475.17,-341.3 2604.93,-115.81 2444.47,-76.13"/>
<polygon fill="midnightblue" stroke="midnightblue" points="1266.08,-702.91 1256.06,-706.34 1266.03,-709.91 1266.08,-702.91"/>
</g>
<!-- Node26 -->
<g id="node26" class="node">
<title>Node26</title>
<g id="a_node26"><a xlink:href="mem_8h.html" target="_top" xlink:title=" ">
<polygon fill="white" stroke="black" points="970.78,-232.5 970.78,-253.5 1023.78,-253.5 1023.78,-232.5 970.78,-232.5"/>
<text text-anchor="middle" x="997.28" y="-239.9" font-family="DejaVuSans" font-size="12.00">mem.h</text>
</a>
</g>
</g>
<!-- Node1&#45;&gt;Node26 -->
<g id="edge31" class="edge">
<title>Node1&#45;&gt;Node26</title>
<path fill="none" stroke="midnightblue" d="M1168.46,-705.12C994.97,-701.74 417.14,-688.39 390.28,-660 288.83,-552.75 387.24,-437.98 504.28,-348 579.27,-290.35 879.36,-255.89 970.74,-246.57"/>
<polygon fill="midnightblue" stroke="midnightblue" points="1168.51,-708.62 1178.58,-705.31 1168.65,-701.62 1168.51,-708.62"/>
</g>
<!-- Node28 -->
<g id="node28" class="node">
<title>Node28</title>
<g id="a_node28"><a xlink:href="print_8h.html" target="_top" xlink:title=" ">
<polygon fill="white" stroke="black" points="1714.28,-116.5 1714.28,-137.5 1764.28,-137.5 1764.28,-116.5 1714.28,-116.5"/>
<text text-anchor="middle" x="1739.28" y="-123.9" font-family="DejaVuSans" font-size="12.00">print.h</text>
</a>
</g>
</g>
<!-- Node1&#45;&gt;Node28 -->
<g id="edge75" class="edge">
<title>Node1&#45;&gt;Node28</title>
<path fill="none" stroke="midnightblue" d="M1259.72,-693.19C1306.18,-677.53 1380.88,-647.38 1432.28,-602 1600.59,-453.4 1713.44,-191.37 1735.38,-137.75"/>
<polygon fill="midnightblue" stroke="midnightblue" points="1258.37,-689.95 1249.97,-696.4 1260.56,-696.6 1258.37,-689.95"/>
</g>
<!-- Node30 -->
<g id="node30" class="node">
<title>Node30</title>
<g id="a_node30"><a xlink:href="str_8h.html" target="_top" xlink:title=" ">
<polygon fill="white" stroke="black" points="2832.78,-638.5 2832.78,-659.5 2871.78,-659.5 2871.78,-638.5 2832.78,-638.5"/>
<text text-anchor="middle" x="2852.28" y="-645.9" font-family="DejaVuSans" font-size="12.00">str.h</text>
</a>
</g>
</g>
<!-- Node1&#45;&gt;Node30 -->
<g id="edge76" class="edge">
<title>Node1&#45;&gt;Node30</title>
<path fill="none" stroke="midnightblue" d="M1266.42,-704.32C1519.23,-695.66 2667.96,-656.31 2832.61,-650.67"/>
<polygon fill="midnightblue" stroke="midnightblue" points="1265.96,-700.83 1256.09,-704.67 1266.2,-707.83 1265.96,-700.83"/>
</g>
<!-- Node33 -->
<g id="node33" class="node">
<title>Node33</title>
<g id="a_node33"><a xlink:href="tex_8h.html" target="_top" xlink:title=" ">
<polygon fill="white" stroke="black" points="1014.28,-464.5 1014.28,-485.5 1056.28,-485.5 1056.28,-464.5 1014.28,-464.5"/>
<text text-anchor="middle" x="1035.28" y="-471.9" font-family="DejaVuSans" font-size="12.00">tex.h</text>
</a>
</g>
</g>
<!-- Node1&#45;&gt;Node33 -->
<g id="edge165" class="edge">
<title>Node1&#45;&gt;Node33</title>
<path fill="none" stroke="midnightblue" d="M1178.54,-692.9C1122.66,-671.66 1021.51,-623.82 979.28,-544 966.98,-520.75 996.49,-498.04 1017.18,-485.65"/>
<polygon fill="midnightblue" stroke="midnightblue" points="1177.5,-696.25 1188.1,-696.44 1179.93,-689.69 1177.5,-696.25"/>
</g>
<!-- Node40 -->
<g id="node40" class="node">
<title>Node40</title>
<g id="a_node40"><a xlink:href="texmath_8h.html" target="_top" xlink:title=" ">
<polygon fill="white" stroke="black" points="1438.28,-116.5 1438.28,-137.5 1506.28,-137.5 1506.28,-116.5 1438.28,-116.5"/>
<text text-anchor="middle" x="1472.28" y="-123.9" font-family="DejaVuSans" font-size="12.00">texmath.h</text>
</a>
</g>
</g>
<!-- Node1&#45;&gt;Node40 -->
<g id="edge166" class="edge">
<title>Node1&#45;&gt;Node40</title>
<path fill="none" stroke="midnightblue" d="M1168.42,-704.83C1005.59,-700.69 490.38,-685.62 466.28,-660 424.26,-615.32 434.04,-574.17 466.28,-522 587.5,-325.87 715.92,-374.89 930.28,-290 1026.96,-251.72 1334.53,-165.93 1437.97,-137.42"/>
<polygon fill="midnightblue" stroke="midnightblue" points="1168.54,-708.33 1178.62,-705.09 1168.71,-701.34 1168.54,-708.33"/>
</g>
<!-- Node6&#45;&gt;Node2 -->
<g id="edge6" class="edge">
<title>Node6&#45;&gt;Node2</title>
<path fill="none" stroke="midnightblue" d="M1958.61,-171.05C1930.13,-160.42 1890.61,-145.67 1866.01,-136.49"/>
<polygon fill="midnightblue" stroke="midnightblue" points="1957.58,-174.41 1968.18,-174.63 1960.03,-167.85 1957.58,-174.41"/>
</g>
<!-- Node7 -->
<g id="node7" class="node">
<title>Node7</title>
<g id="a_node7"><a xlink:href="dviout_8c.html" target="_top" xlink:title=" ">
<polygon fill="white" stroke="black" points="700.28,-58.5 700.28,-79.5 758.28,-79.5 758.28,-58.5 700.28,-58.5"/>
<text text-anchor="middle" x="729.28" y="-65.9" font-family="DejaVuSans" font-size="12.00">dviout.c</text>
</a>
</g>
</g>
<!-- Node6&#45;&gt;Node7 -->
<g id="edge7" class="edge">
<title>Node6&#45;&gt;Node7</title>
<path fill="none" stroke="midnightblue" d="M1957.94,-184.21C1833.32,-184.55 1402.91,-182.23 1051.28,-138 941.87,-124.24 814.42,-92.58 758.31,-77.83"/>
<polygon fill="midnightblue" stroke="midnightblue" points="1958.06,-187.71 1968.05,-184.18 1958.04,-180.71 1958.06,-187.71"/>
</g>
<!-- Node8 -->
<g id="node8" class="node">
<title>Node8</title>
<g id="a_node8"><a xlink:href="eqtb_8c.html" target="_top" xlink:title=" ">
<polygon fill="white" stroke="black" points="2325.78,-58.5 2325.78,-79.5 2374.78,-79.5 2374.78,-58.5 2325.78,-58.5"/>
<text text-anchor="middle" x="2350.28" y="-65.9" font-family="DejaVuSans" font-size="12.00">eqtb.c</text>
</a>
</g>
</g>
<!-- Node6&#45;&gt;Node8 -->
<g id="edge8" class="edge">
<title>Node6&#45;&gt;Node8</title>
<path fill="none" stroke="midnightblue" d="M2028.64,-180.28C2074.73,-174.69 2157.36,-162.1 2224.28,-138 2267.08,-122.58 2313.08,-94.46 2335.83,-79.67"/>
<polygon fill="midnightblue" stroke="midnightblue" points="2028.08,-176.82 2018.56,-181.46 2028.9,-183.78 2028.08,-176.82"/>
</g>
<!-- Node9 -->
<g id="node9" class="node">
<title>Node9</title>
<g id="a_node9"><a xlink:href="eqtb__save_8c.html" target="_top" xlink:title=" ">
<polygon fill="white" stroke="black" points="2008.78,-58.5 2008.78,-79.5 2089.78,-79.5 2089.78,-58.5 2008.78,-58.5"/>
<text text-anchor="middle" x="2049.28" y="-65.9" font-family="DejaVuSans" font-size="12.00">eqtb_save.c</text>
</a>
</g>
</g>
<!-- Node6&#45;&gt;Node9 -->
<g id="edge9" class="edge">
<title>Node6&#45;&gt;Node9</title>
<path fill="none" stroke="midnightblue" d="M2002.5,-165.24C2014.55,-140.7 2035.23,-98.6 2044.52,-79.69"/>
<polygon fill="midnightblue" stroke="midnightblue" points="1999.33,-163.76 1998.06,-174.28 2005.61,-166.85 1999.33,-163.76"/>
</g>
<!-- Node10 -->
<g id="node10" class="node">
<title>Node10</title>
<g id="a_node10"><a xlink:href="fonts_8c.html" target="_top" xlink:title=" ">
<polygon fill="white" stroke="black" points="3012.78,-58.5 3012.78,-79.5 3063.78,-79.5 3063.78,-58.5 3012.78,-58.5"/>
<text text-anchor="middle" x="3038.28" y="-65.9" font-family="DejaVuSans" font-size="12.00">fonts.c</text>
</a>
</g>
</g>
<!-- Node6&#45;&gt;Node10 -->
<g id="edge10" class="edge">
<title>Node6&#45;&gt;Node10</title>
<path fill="none" stroke="midnightblue" d="M2028.65,-181.49C2113.99,-175.31 2337.94,-158.39 2524.28,-138 2712.19,-117.44 2937.69,-84.85 3012.66,-73.81"/>
<polygon fill="midnightblue" stroke="midnightblue" points="2028.2,-178.01 2018.47,-182.22 2028.7,-185 2028.2,-178.01"/>
</g>
<!-- Node11 -->
<g id="node11" class="node">
<title>Node11</title>
<g id="a_node11"><a xlink:href="hash_8h.html" target="_top" xlink:title=" ">
<polygon fill="white" stroke="black" points="2424.78,-116.5 2424.78,-137.5 2477.78,-137.5 2477.78,-116.5 2424.78,-116.5"/>
<text text-anchor="middle" x="2451.28" y="-123.9" font-family="DejaVuSans" font-size="12.00">hash.h</text>
</a>
</g>
</g>
<!-- Node6&#45;&gt;Node11 -->
<g id="edge11" class="edge">
<title>Node6&#45;&gt;Node11</title>
<path fill="none" stroke="midnightblue" d="M2028.6,-179.78C2095.61,-171.74 2245.85,-153.68 2372.28,-138 2389.71,-135.84 2409.29,-133.36 2424.59,-131.41"/>
<polygon fill="midnightblue" stroke="midnightblue" points="2028.08,-176.31 2018.57,-180.98 2028.92,-183.26 2028.08,-176.31"/>
</g>
<!-- Node16 -->
<g id="node16" class="node">
<title>Node16</title>
<g id="a_node16"><a xlink:href="tex__header_8h.html" target="_top" xlink:title=" ">
<polygon fill="white" stroke="black" points="2558.28,-58.5 2558.28,-79.5 2644.28,-79.5 2644.28,-58.5 2558.28,-58.5"/>
<text text-anchor="middle" x="2601.28" y="-65.9" font-family="DejaVuSans" font-size="12.00">tex_header.h</text>
</a>
</g>
</g>
<!-- Node6&#45;&gt;Node16 -->
<g id="edge28" class="edge">
<title>Node6&#45;&gt;Node16</title>
<path fill="none" stroke="midnightblue" d="M2028.55,-182.71C2126.61,-178.82 2400.88,-165.69 2486.28,-138 2527.1,-124.77 2568.98,-95.15 2589.07,-79.74"/>
<polygon fill="midnightblue" stroke="midnightblue" points="2028.41,-179.22 2018.55,-183.1 2028.68,-186.21 2028.41,-179.22"/>
</g>
<!-- Node6&#45;&gt;Node18 -->
<g id="edge21" class="edge">
<title>Node6&#45;&gt;Node18</title>
<path fill="none" stroke="midnightblue" d="M2028.7,-181.58C2184.72,-170.88 2826.29,-126.21 3352.28,-80 3374.33,-78.06 3398.98,-75.7 3418.75,-73.76"/>
<polygon fill="midnightblue" stroke="midnightblue" points="2028.05,-178.12 2018.31,-182.3 2028.53,-185.1 2028.05,-178.12"/>
</g>
<!-- Node19 -->
<g id="node19" class="node">
<title>Node19</title>
<g id="a_node19"><a xlink:href="mem_8c.html" target="_top" xlink:title=" ">
<polygon fill="white" stroke="black" points="358.28,-58.5 358.28,-79.5 410.28,-79.5 410.28,-58.5 358.28,-58.5"/>
<text text-anchor="middle" x="384.28" y="-65.9" font-family="DejaVuSans" font-size="12.00">mem.c</text>
</a>
</g>
</g>
<!-- Node6&#45;&gt;Node19 -->
<g id="edge22" class="edge">
<title>Node6&#45;&gt;Node19</title>
<path fill="none" stroke="midnightblue" d="M1957.47,-184.15C1813.51,-184.4 1263.18,-182.27 813.28,-138 803.11,-137 501.94,-88.84 410.41,-74.18"/>
<polygon fill="midnightblue" stroke="midnightblue" points="1957.89,-187.64 1967.88,-184.12 1957.87,-180.64 1957.89,-187.64"/>
</g>
<!-- Node20 -->
<g id="node20" class="node">
<title>Node20</title>
<g id="a_node20"><a xlink:href="mmode_8c.html" target="_top" xlink:title=" ">
<polygon fill="white" stroke="black" points="616.78,-58.5 616.78,-79.5 681.78,-79.5 681.78,-58.5 616.78,-58.5"/>
<text text-anchor="middle" x="649.28" y="-65.9" font-family="DejaVuSans" font-size="12.00">mmode.c</text>
</a>
</g>
</g>
<!-- Node6&#45;&gt;Node20 -->
<g id="edge23" class="edge">
<title>Node6&#45;&gt;Node20</title>
<path fill="none" stroke="midnightblue" d="M1957.72,-183.43C1796.08,-180.68 1129.72,-167.75 923.28,-138 833.05,-125 729.3,-94.99 679.3,-79.56"/>
<polygon fill="midnightblue" stroke="midnightblue" points="1957.99,-186.93 1968.05,-183.6 1958.11,-179.93 1957.99,-186.93"/>
</g>
<!-- Node21 -->
<g id="node21" class="node">
<title>Node21</title>
<g id="a_node21"><a xlink:href="pack_8c.html" target="_top" xlink:title=" ">
<polygon fill="white" stroke="black" points="776.78,-58.5 776.78,-79.5 827.78,-79.5 827.78,-58.5 776.78,-58.5"/>
<text text-anchor="middle" x="802.28" y="-65.9" font-family="DejaVuSans" font-size="12.00">pack.c</text>
</a>
</g>
</g>
<!-- Node6&#45;&gt;Node21 -->
<g id="edge24" class="edge">
<title>Node6&#45;&gt;Node21</title>
<path fill="none" stroke="midnightblue" d="M1957.87,-183.62C1815.58,-181.51 1272.24,-167.82 836.28,-80 833.51,-79.44 830.63,-78.76 827.78,-78.02"/>
<polygon fill="midnightblue" stroke="midnightblue" points="1958.11,-187.12 1968.16,-183.76 1958.21,-180.13 1958.11,-187.12"/>
</g>
<!-- Node22 -->
<g id="node22" class="node">
<title>Node22</title>
<g id="a_node22"><a xlink:href="print_8c.html" target="_top" xlink:title=" ">
<polygon fill="white" stroke="black" points="1941.78,-58.5 1941.78,-79.5 1990.78,-79.5 1990.78,-58.5 1941.78,-58.5"/>
<text text-anchor="middle" x="1966.28" y="-65.9" font-family="DejaVuSans" font-size="12.00">print.c</text>
</a>
</g>
</g>
<!-- Node6&#45;&gt;Node22 -->
<g id="edge25" class="edge">
<title>Node6&#45;&gt;Node22</title>
<path fill="none" stroke="midnightblue" d="M1988.61,-164.25C1982.76,-139.58 1973,-98.35 1968.58,-79.69"/>
<polygon fill="midnightblue" stroke="midnightblue" points="1985.27,-165.36 1990.98,-174.28 1992.08,-163.74 1985.27,-165.36"/>
</g>
<!-- Node23 -->
<g id="node23" class="node">
<title>Node23</title>
<g id="a_node23"><a xlink:href="printout_8c.html" target="_top" xlink:title=" ">
<polygon fill="white" stroke="black" points="1621.78,-58.5 1621.78,-79.5 1686.78,-79.5 1686.78,-58.5 1621.78,-58.5"/>
<text text-anchor="middle" x="1654.28" y="-65.9" font-family="DejaVuSans" font-size="12.00">printout.c</text>
</a>
</g>
</g>
<!-- Node6&#45;&gt;Node23 -->
<g id="edge26" class="edge">
<title>Node6&#45;&gt;Node23</title>
<path fill="none" stroke="midnightblue" d="M1977.03,-166.71C1961.09,-150.87 1935.3,-128.11 1908.28,-116 1821.08,-76.9 1789.93,-99.08 1696.28,-80 1693.2,-79.37 1690,-78.68 1686.8,-77.96"/>
<polygon fill="midnightblue" stroke="midnightblue" points="1974.93,-169.56 1984.42,-174.26 1979.93,-164.67 1974.93,-169.56"/>
</g>
<!-- Node24 -->
<g id="node24" class="node">
<title>Node24</title>
<g id="a_node24"><a xlink:href="scan_8c.html" target="_top" xlink:title=" ">
<polygon fill="white" stroke="black" points="1194.78,-58.5 1194.78,-79.5 1245.78,-79.5 1245.78,-58.5 1194.78,-58.5"/>
<text text-anchor="middle" x="1220.28" y="-65.9" font-family="DejaVuSans" font-size="12.00">scan.c</text>
</a>
</g>
</g>
<!-- Node6&#45;&gt;Node24 -->
<g id="edge27" class="edge">
<title>Node6&#45;&gt;Node24</title>
<path fill="none" stroke="midnightblue" d="M1958.14,-183.96C1868.87,-183.26 1626.44,-177.55 1429.28,-138 1393.27,-130.78 1293.24,-95.97 1245.84,-79.14"/>
<polygon fill="midnightblue" stroke="midnightblue" points="1958.24,-187.46 1968.26,-184.03 1958.28,-180.46 1958.24,-187.46"/>
</g>
<!-- Node11&#45;&gt;Node5 -->
<g id="edge12" class="edge">
<title>Node11&#45;&gt;Node5</title>
<path fill="none" stroke="midnightblue" d="M2414.21,-124.45C2296.7,-119.45 1921.96,-102.69 1612.28,-80 1591.06,-78.44 1567.54,-76.34 1547.8,-74.46"/>
<polygon fill="midnightblue" stroke="midnightblue" points="2414.32,-127.96 2424.46,-124.89 2414.61,-120.97 2414.32,-127.96"/>
</g>
<!-- Node11&#45;&gt;Node8 -->
<g id="edge13" class="edge">
<title>Node11&#45;&gt;Node8</title>
<path fill="none" stroke="midnightblue" d="M2424.81,-111.32C2406.77,-101.32 2383.4,-88.36 2367.67,-79.64"/>
<polygon fill="midnightblue" stroke="midnightblue" points="2423.25,-114.46 2433.69,-116.25 2426.64,-108.34 2423.25,-114.46"/>
</g>
<!-- Node11&#45;&gt;Node10 -->
<g id="edge15" class="edge">
<title>Node11&#45;&gt;Node10</title>
<path fill="none" stroke="midnightblue" d="M2488.27,-122.47C2597.94,-112.01 2919.54,-81.33 3012.71,-72.44"/>
<polygon fill="midnightblue" stroke="midnightblue" points="2487.65,-119.01 2478.03,-123.45 2488.32,-125.98 2487.65,-119.01"/>
</g>
<!-- Node12 -->
<g id="node12" class="node">
<title>Node12</title>
<g id="a_node12"><a xlink:href="expand_8c.html" target="_top" xlink:title=" ">
<polygon fill="white" stroke="black" points="845.78,-58.5 845.78,-79.5 910.78,-79.5 910.78,-58.5 845.78,-58.5"/>
<text text-anchor="middle" x="878.28" y="-65.9" font-family="DejaVuSans" font-size="12.00">expand.c</text>
</a>
</g>
</g>
<!-- Node11&#45;&gt;Node12 -->
<g id="edge14" class="edge">
<title>Node11&#45;&gt;Node12</title>
<path fill="none" stroke="midnightblue" d="M2414.6,-124.27C2369.72,-122.19 2291.43,-118.63 2224.28,-116 1956.62,-105.53 1089.86,-76.95 910.82,-71.07"/>
<polygon fill="midnightblue" stroke="midnightblue" points="2414.57,-127.78 2424.73,-124.75 2414.9,-120.78 2414.57,-127.78"/>
</g>
<!-- Node13 -->
<g id="node13" class="node">
<title>Node13</title>
<g id="a_node13"><a xlink:href="hash_8c.html" target="_top" xlink:title=" ">
<polygon fill="white" stroke="black" points="1791.28,-58.5 1791.28,-79.5 1843.28,-79.5 1843.28,-58.5 1791.28,-58.5"/>
<text text-anchor="middle" x="1817.28" y="-65.9" font-family="DejaVuSans" font-size="12.00">hash.c</text>
</a>
</g>
</g>
<!-- Node11&#45;&gt;Node13 -->
<g id="edge16" class="edge">
<title>Node11&#45;&gt;Node13</title>
<path fill="none" stroke="midnightblue" d="M2414.29,-122.73C2298.19,-112.48 1942.92,-81.1 1843.42,-72.31"/>
<polygon fill="midnightblue" stroke="midnightblue" points="2414.18,-126.24 2424.45,-123.63 2414.79,-119.26 2414.18,-126.24"/>
</g>
<!-- Node14 -->
<g id="node14" class="node">
<title>Node14</title>
<g id="a_node14"><a xlink:href="lexer_8c.html" target="_top" xlink:title=" ">
<polygon fill="white" stroke="black" points="2256.78,-58.5 2256.78,-79.5 2307.78,-79.5 2307.78,-58.5 2256.78,-58.5"/>
<text text-anchor="middle" x="2282.28" y="-65.9" font-family="DejaVuSans" font-size="12.00">lexer.c</text>
</a>
</g>
</g>
<!-- Node11&#45;&gt;Node14 -->
<g id="edge17" class="edge">
<title>Node11&#45;&gt;Node14</title>
<path fill="none" stroke="midnightblue" d="M2414.98,-113.97C2382.7,-103.28 2336.34,-87.91 2307.83,-78.47"/>
<polygon fill="midnightblue" stroke="midnightblue" points="2413.91,-117.3 2424.51,-117.13 2416.11,-110.66 2413.91,-117.3"/>
</g>
<!-- Node15 -->
<g id="node15" class="node">
<title>Node15</title>
<g id="a_node15"><a xlink:href="str_8c.html" target="_top" xlink:title=" ">
<polygon fill="white" stroke="black" points="2662.28,-58.5 2662.28,-79.5 2700.28,-79.5 2700.28,-58.5 2662.28,-58.5"/>
<text text-anchor="middle" x="2681.28" y="-65.9" font-family="DejaVuSans" font-size="12.00">str.c</text>
</a>
</g>
</g>
<!-- Node11&#45;&gt;Node15 -->
<g id="edge18" class="edge">
<title>Node11&#45;&gt;Node15</title>
<path fill="none" stroke="midnightblue" d="M2488.02,-119.01C2528.76,-110.93 2596.26,-96.61 2653.28,-80 2656.16,-79.16 2659.17,-78.19 2662.1,-77.19"/>
<polygon fill="midnightblue" stroke="midnightblue" points="2487.15,-115.61 2478.01,-120.97 2488.5,-122.48 2487.15,-115.61"/>
</g>
<!-- Node11&#45;&gt;Node16 -->
<g id="edge19" class="edge">
<title>Node11&#45;&gt;Node16</title>
<path fill="none" stroke="midnightblue" d="M2486.67,-112.79C2514.06,-102.56 2551.33,-88.65 2575.83,-79.5"/>
<polygon fill="midnightblue" stroke="midnightblue" points="2485.21,-109.6 2477.07,-116.37 2487.66,-116.15 2485.21,-109.6"/>
</g>
<!-- Node17 -->
<g id="node17" class="node">
<title>Node17</title>
<g id="a_node17"><a xlink:href="tex_8c.html" target="_top" xlink:title=" ">
<polygon fill="white" stroke="black" points="2580.78,-0.5 2580.78,-21.5 2621.78,-21.5 2621.78,-0.5 2580.78,-0.5"/>
<text text-anchor="middle" x="2601.28" y="-7.9" font-family="DejaVuSans" font-size="12.00">tex.c</text>
</a>
</g>
</g>
<!-- Node16&#45;&gt;Node17 -->
<g id="edge20" class="edge">
<title>Node16&#45;&gt;Node17</title>
<path fill="none" stroke="midnightblue" d="M2601.28,-48.16C2601.28,-39.16 2601.28,-28.92 2601.28,-21.64"/>
<polygon fill="midnightblue" stroke="midnightblue" points="2597.78,-48.25 2601.28,-58.25 2604.78,-48.25 2597.78,-48.25"/>
</g>
<!-- Node26&#45;&gt;Node2 -->
<g id="edge32" class="edge">
<title>Node26&#45;&gt;Node2</title>
<path fill="none" stroke="midnightblue" d="M1034.05,-239.85C1117.32,-234.72 1326.61,-220.34 1500.28,-196 1637.36,-176.79 1671.37,-168.97 1806.28,-138 1810.95,-136.93 1815.92,-135.67 1820.65,-134.41"/>
<polygon fill="midnightblue" stroke="midnightblue" points="1033.61,-236.37 1023.84,-240.47 1034.03,-243.36 1033.61,-236.37"/>
</g>
<!-- Node26&#45;&gt;Node3 -->
<g id="edge33" class="edge">
<title>Node26&#45;&gt;Node3</title>
<path fill="none" stroke="midnightblue" d="M960.67,-236.69C860.14,-222.01 571.4,-179.25 332.28,-138 327.67,-137.2 322.84,-136.34 318.05,-135.46"/>
<polygon fill="midnightblue" stroke="midnightblue" points="960.23,-240.16 970.63,-238.14 961.24,-233.23 960.23,-240.16"/>
</g>
<!-- Node26&#45;&gt;Node4 -->
<g id="edge34" class="edge">
<title>Node26&#45;&gt;Node4</title>
<path fill="none" stroke="midnightblue" d="M960.56,-238.85C883.84,-232.12 701.04,-215.41 548.28,-196 400.79,-177.26 226.89,-149.13 145.97,-135.68"/>
<polygon fill="midnightblue" stroke="midnightblue" points="960.4,-242.35 970.66,-239.73 961,-235.37 960.4,-242.35"/>
</g>
<!-- Node26&#45;&gt;Node5 -->
<g id="edge35" class="edge">
<title>Node26&#45;&gt;Node5</title>
<path fill="none" stroke="midnightblue" d="M1020.74,-227.02C1063.46,-200.44 1157.55,-145.1 1244.28,-116 1317.24,-91.52 1406.36,-79.34 1458.76,-73.87"/>
<polygon fill="midnightblue" stroke="midnightblue" points="1018.8,-224.1 1012.19,-232.38 1022.52,-230.03 1018.8,-224.1"/>
</g>
<!-- Node26&#45;&gt;Node7 -->
<g id="edge36" class="edge">
<title>Node26&#45;&gt;Node7</title>
<path fill="none" stroke="midnightblue" d="M967.15,-227.94C949.38,-219.33 926.66,-207.73 907.28,-196 842.5,-156.79 770.3,-101.94 741.81,-79.82"/>
<polygon fill="midnightblue" stroke="midnightblue" points="965.92,-231.24 976.45,-232.4 968.95,-224.92 965.92,-231.24"/>
</g>
<!-- Node26&#45;&gt;Node9 -->
<g id="edge37" class="edge">
<title>Node26&#45;&gt;Node9</title>
<path fill="none" stroke="midnightblue" d="M1033.95,-237C1116.96,-225.69 1325.64,-197.32 1500.28,-174 1621.59,-157.8 1657.42,-177.42 1773.28,-138 1791.76,-131.71 1793,-122.82 1811.28,-116 1890.99,-86.27 1915.79,-96.34 1999.28,-80 2002.32,-79.4 2005.47,-78.79 2008.63,-78.16"/>
<polygon fill="midnightblue" stroke="midnightblue" points="1033.44,-233.54 1024,-238.36 1034.38,-240.48 1033.44,-233.54"/>
</g>
<!-- Node26&#45;&gt;Node10 -->
<g id="edge39" class="edge">
<title>Node26&#45;&gt;Node10</title>
<path fill="none" stroke="midnightblue" d="M1034.28,-242.41C1187.74,-243.76 1789.21,-245.41 2280.28,-196 2569.97,-166.85 2916.65,-95.82 3012.59,-75.51"/>
<polygon fill="midnightblue" stroke="midnightblue" points="1034.04,-238.91 1024.01,-242.32 1033.98,-245.91 1034.04,-238.91"/>
</g>
<!-- Node26&#45;&gt;Node12 -->
<g id="edge38" class="edge">
<title>Node26&#45;&gt;Node12</title>
<path fill="none" stroke="midnightblue" d="M980.8,-225.06C972.81,-216.58 963.24,-206.01 955.28,-196 935.79,-171.49 931.68,-164.68 915.28,-138 902.9,-117.85 890.05,-93.26 883.24,-79.87"/>
<polygon fill="midnightblue" stroke="midnightblue" points="978.43,-227.66 987.87,-232.47 983.49,-222.82 978.43,-227.66"/>
</g>
<!-- Node26&#45;&gt;Node14 -->
<g id="edge40" class="edge">
<title>Node26&#45;&gt;Node14</title>
<path fill="none" stroke="midnightblue" d="M1034.14,-241.55C1194.26,-239.39 1830.32,-228.89 2027.28,-196 2117.31,-180.97 2147.71,-187.67 2224.28,-138 2247.98,-122.63 2267.3,-94.75 2276.49,-79.91"/>
<polygon fill="midnightblue" stroke="midnightblue" points="1033.82,-238.05 1023.87,-241.68 1033.91,-245.05 1033.82,-238.05"/>
</g>
<!-- Node26&#45;&gt;Node16 -->
<g id="edge45" class="edge">
<title>Node26&#45;&gt;Node16</title>
<path fill="none" stroke="midnightblue" d="M1034.06,-241.75C1173.8,-240.52 1685.09,-233.57 2104.28,-196 2291.97,-179.18 2353.02,-216.61 2524.28,-138 2554.11,-124.31 2580.84,-95.17 2593.51,-79.86"/>
<polygon fill="midnightblue" stroke="midnightblue" points="1033.87,-238.25 1023.9,-241.83 1033.93,-245.25 1033.87,-238.25"/>
</g>
<!-- Node26&#45;&gt;Node19 -->
<g id="edge41" class="edge">
<title>Node26&#45;&gt;Node19</title>
<path fill="none" stroke="midnightblue" d="M960.57,-233.02C890.33,-215.69 732.15,-176 600.28,-138 531.34,-118.13 450.92,-92.03 410.43,-78.68"/>
<polygon fill="midnightblue" stroke="midnightblue" points="960.13,-236.52 970.68,-235.51 961.81,-229.72 960.13,-236.52"/>
</g>
<!-- Node26&#45;&gt;Node20 -->
<g id="edge42" class="edge">
<title>Node26&#45;&gt;Node20</title>
<path fill="none" stroke="midnightblue" d="M961.06,-230.56C935.53,-222.07 900.77,-209.63 871.28,-196 790.23,-158.52 699.24,-101.98 664.16,-79.6"/>
<polygon fill="midnightblue" stroke="midnightblue" points="960.12,-233.93 970.71,-233.73 962.3,-227.28 960.12,-233.93"/>
</g>
<!-- Node26&#45;&gt;Node21 -->
<g id="edge43" class="edge">
<title>Node26&#45;&gt;Node21</title>
<path fill="none" stroke="midnightblue" d="M974.96,-226.43C962.94,-217.8 948,-206.68 935.28,-196 886.56,-155.1 832.79,-101.2 811.6,-79.58"/>
<polygon fill="midnightblue" stroke="midnightblue" points="972.95,-229.29 983.13,-232.23 977,-223.59 972.95,-229.29"/>
</g>
<!-- Node26&#45;&gt;Node24 -->
<g id="edge44" class="edge">
<title>Node26&#45;&gt;Node24</title>
<path fill="none" stroke="midnightblue" d="M1016.43,-224.99C1024.34,-216.96 1032.91,-206.77 1038.28,-196 1054.47,-163.55 1029.6,-142.56 1054.28,-116 1090.93,-76.57 1158.11,-69.85 1194.77,-69.33"/>
<polygon fill="midnightblue" stroke="midnightblue" points="1013.65,-222.8 1008.87,-232.26 1018.5,-227.85 1013.65,-222.8"/>
</g>
<!-- Node27 -->
<g id="node27" class="node">
<title>Node27</title>
<g id="a_node27"><a xlink:href="texmac_8h.html" target="_top" xlink:title=" ">
<polygon fill="white" stroke="black" points="964.78,-174.5 964.78,-195.5 1029.78,-195.5 1029.78,-174.5 964.78,-174.5"/>
<text text-anchor="middle" x="997.28" y="-181.9" font-family="DejaVuSans" font-size="12.00">texmac.h</text>
</a>
</g>
</g>
<!-- Node26&#45;&gt;Node27 -->
<g id="edge46" class="edge">
<title>Node26&#45;&gt;Node27</title>
<path fill="none" stroke="midnightblue" d="M997.28,-222.16C997.28,-213.16 997.28,-202.92 997.28,-195.64"/>
<polygon fill="midnightblue" stroke="midnightblue" points="993.78,-222.25 997.28,-232.25 1000.78,-222.25 993.78,-222.25"/>
</g>
<!-- Node27&#45;&gt;Node3 -->
<g id="edge47" class="edge">
<title>Node27&#45;&gt;Node3</title>
<path fill="none" stroke="midnightblue" d="M954.45,-181.39C852.92,-175.1 589.68,-158.1 370.28,-138 353.19,-136.43 334.32,-134.41 318.22,-132.59"/>
<polygon fill="midnightblue" stroke="midnightblue" points="954.42,-184.9 964.61,-182.02 954.85,-177.91 954.42,-184.9"/>
</g>
<!-- Node27&#45;&gt;Node4 -->
<g id="edge48" class="edge">
<title>Node27&#45;&gt;Node4</title>
<path fill="none" stroke="midnightblue" d="M954.14,-181.65C837.56,-175.26 506.47,-156.76 231.28,-138 202.95,-136.07 171.19,-133.65 146.04,-131.68"/>
<polygon fill="midnightblue" stroke="midnightblue" points="954.25,-185.17 964.42,-182.22 954.63,-178.18 954.25,-185.17"/>
</g>
<!-- Node27&#45;&gt;Node12 -->
<g id="edge49" class="edge">
<title>Node27&#45;&gt;Node12</title>
<path fill="none" stroke="midnightblue" d="M975.93,-168.02C964.95,-159.49 951.53,-148.59 940.28,-138 919.58,-118.51 897.69,-93.25 886.28,-79.66"/>
<polygon fill="midnightblue" stroke="midnightblue" points="974.07,-171 984.14,-174.3 978.33,-165.45 974.07,-171"/>
</g>
<!-- Node27&#45;&gt;Node13 -->
<g id="edge50" class="edge">
<title>Node27&#45;&gt;Node13</title>
<path fill="none" stroke="midnightblue" d="M1039.84,-176.51C1117.18,-163.08 1286.07,-134.56 1429.28,-116 1585.68,-95.73 1627.42,-109.78 1782.28,-80 1785.14,-79.45 1788.1,-78.78 1791.03,-78.04"/>
<polygon fill="midnightblue" stroke="midnightblue" points="1039.23,-173.06 1029.98,-178.23 1040.44,-179.96 1039.23,-173.06"/>
</g>
<!-- Node27&#45;&gt;Node16 -->
<g id="edge74" class="edge">
<title>Node27&#45;&gt;Node16</title>
<path fill="none" stroke="midnightblue" d="M1040.08,-183.21C1228.75,-179.58 1987.43,-163.67 2224.28,-138 2347.1,-124.69 2490.17,-94.89 2559.44,-79.54"/>
<polygon fill="midnightblue" stroke="midnightblue" points="1039.93,-179.71 1029.99,-183.4 1040.06,-186.71 1039.93,-179.71"/>
</g>
<!-- Node27&#45;&gt;Node19 -->
<g id="edge51" class="edge">
<title>Node27&#45;&gt;Node19</title>
<path fill="none" stroke="midnightblue" d="M954.5,-177.7C898.66,-169.34 797.95,-153.79 712.28,-138 599.61,-117.24 466.12,-88.16 410.57,-75.86"/>
<polygon fill="midnightblue" stroke="midnightblue" points="954.31,-181.21 964.72,-179.23 955.35,-174.29 954.31,-181.21"/>
</g>
<!-- Node27&#45;&gt;Node23 -->
<g id="edge72" class="edge">
<title>Node27&#45;&gt;Node23</title>
<path fill="none" stroke="midnightblue" d="M1039.97,-176.59C1162.34,-155.36 1512.53,-94.6 1621.51,-75.69"/>
<polygon fill="midnightblue" stroke="midnightblue" points="1039.12,-173.19 1029.86,-178.35 1040.32,-180.09 1039.12,-173.19"/>
</g>
<!-- Node27&#45;&gt;Node24 -->
<g id="edge73" class="edge">
<title>Node27&#45;&gt;Node24</title>
<path fill="none" stroke="midnightblue" d="M997.6,-164.1C998.93,-148.84 1003.27,-128.37 1016.28,-116 1041.81,-91.74 1145.8,-77.83 1194.67,-72.52"/>
<polygon fill="midnightblue" stroke="midnightblue" points="994.1,-163.92 997.08,-174.09 1001.09,-164.29 994.1,-163.92"/>
</g>
<!-- Node27&#45;&gt;Node28 -->
<g id="edge52" class="edge">
<title>Node27&#45;&gt;Node28</title>
<path fill="none" stroke="midnightblue" d="M1040.28,-180.75C1177.98,-170.36 1605.32,-138.11 1713.96,-129.91"/>
<polygon fill="midnightblue" stroke="midnightblue" points="1039.83,-177.28 1030.12,-181.52 1040.36,-184.26 1039.83,-177.28"/>
</g>
<!-- Node28&#45;&gt;Node5 -->
<g id="edge53" class="edge">
<title>Node28&#45;&gt;Node5</title>
<path fill="none" stroke="midnightblue" d="M1704.04,-117.64C1661.13,-107.45 1588.8,-90.29 1543.68,-79.58"/>
<polygon fill="midnightblue" stroke="midnightblue" points="1703.49,-121.1 1714.03,-120.01 1705.11,-114.29 1703.49,-121.1"/>
</g>
<!-- Node28&#45;&gt;Node7 -->
<g id="edge54" class="edge">
<title>Node28&#45;&gt;Node7</title>
<path fill="none" stroke="midnightblue" d="M1703.94,-124.43C1532.07,-116.78 790.9,-83.62 767.28,-80 764.45,-79.57 761.53,-79 758.61,-78.37"/>
<polygon fill="midnightblue" stroke="midnightblue" points="1703.83,-127.93 1713.97,-124.88 1704.14,-120.93 1703.83,-127.93"/>
</g>
<!-- Node28&#45;&gt;Node8 -->
<g id="edge55" class="edge">
<title>Node28&#45;&gt;Node8</title>
<path fill="none" stroke="midnightblue" d="M1774.77,-120.59C1786.39,-118.95 1799.37,-117.25 1811.28,-116 2035.07,-92.51 2094.85,-119.98 2316.28,-80 2319.31,-79.45 2322.45,-78.74 2325.55,-77.94"/>
<polygon fill="midnightblue" stroke="midnightblue" points="1773.95,-117.17 1764.56,-122.07 1774.96,-124.1 1773.95,-117.17"/>
</g>
<!-- Node28&#45;&gt;Node9 -->
<g id="edge56" class="edge">
<title>Node28&#45;&gt;Node9</title>
<path fill="none" stroke="midnightblue" d="M1774.42,-116.84C1775.72,-116.55 1777.01,-116.27 1778.28,-116 1875.69,-95.62 1901.36,-97.76 1999.28,-80 2002.33,-79.45 2005.48,-78.86 2008.65,-78.25"/>
<polygon fill="midnightblue" stroke="midnightblue" points="1773.31,-113.5 1764.38,-119.21 1774.92,-120.31 1773.31,-113.5"/>
</g>
<!-- Node28&#45;&gt;Node10 -->
<g id="edge59" class="edge">
<title>Node28&#45;&gt;Node10</title>
<path fill="none" stroke="midnightblue" d="M1774.75,-120.35C1786.36,-118.7 1799.35,-117.05 1811.28,-116 1934.78,-105.14 2846.99,-76.03 3012.55,-70.81"/>
<polygon fill="midnightblue" stroke="midnightblue" points="1773.92,-116.94 1764.54,-121.86 1774.94,-123.86 1773.92,-116.94"/>
</g>
<!-- Node28&#45;&gt;Node12 -->
<g id="edge58" class="edge">
<title>Node28&#45;&gt;Node12</title>
<path fill="none" stroke="midnightblue" d="M1703.77,-123.69C1563.21,-114.55 1046.81,-80.96 911.12,-72.14"/>
<polygon fill="midnightblue" stroke="midnightblue" points="1703.78,-127.2 1713.98,-124.35 1704.23,-120.21 1703.78,-127.2"/>
</g>
<!-- Node28&#45;&gt;Node13 -->
<g id="edge60" class="edge">
<title>Node28&#45;&gt;Node13</title>
<path fill="none" stroke="midnightblue" d="M1761.28,-110.21C1774.98,-100.37 1792.16,-88.04 1803.85,-79.64"/>
<polygon fill="midnightblue" stroke="midnightblue" points="1758.95,-107.57 1752.87,-116.25 1763.03,-113.26 1758.95,-107.57"/>
</g>
<!-- Node28&#45;&gt;Node14 -->
<g id="edge62" class="edge">
<title>Node28&#45;&gt;Node14</title>
<path fill="none" stroke="midnightblue" d="M1774.79,-120.78C1786.41,-119.15 1799.39,-117.41 1811.28,-116 1980.99,-95.94 2185.86,-78.11 2256.72,-72.13"/>
<polygon fill="midnightblue" stroke="midnightblue" points="1773.98,-117.36 1764.58,-122.23 1774.97,-124.29 1773.98,-117.36"/>
</g>
<!-- Node28&#45;&gt;Node15 -->
<g id="edge69" class="edge">
<title>Node28&#45;&gt;Node15</title>
<path fill="none" stroke="midnightblue" d="M1774.75,-120.39C1786.37,-118.74 1799.35,-117.08 1811.28,-116 2184.32,-82.2 2285.67,-151.8 2653.28,-80 2656.22,-79.43 2659.27,-78.6 2662.22,-77.66"/>
<polygon fill="midnightblue" stroke="midnightblue" points="1773.92,-116.97 1764.54,-121.89 1774.94,-123.9 1773.92,-116.97"/>
</g>
<!-- Node28&#45;&gt;Node16 -->
<g id="edge70" class="edge">
<title>Node28&#45;&gt;Node16</title>
<path fill="none" stroke="midnightblue" d="M1774.76,-120.48C1786.38,-118.84 1799.36,-117.16 1811.28,-116 2095.72,-88.32 2168.05,-97.63 2453.28,-80 2488.63,-77.82 2528.7,-75.09 2558.23,-73.04"/>
<polygon fill="midnightblue" stroke="midnightblue" points="1773.94,-117.07 1764.55,-121.97 1774.95,-123.99 1773.94,-117.07"/>
</g>
<!-- Node28&#45;&gt;Node18 -->
<g id="edge61" class="edge">
<title>Node28&#45;&gt;Node18</title>
<path fill="none" stroke="midnightblue" d="M1774.74,-120.25C1786.35,-118.59 1799.34,-116.97 1811.28,-116 2494.13,-60.79 2668.42,-120.81 3352.28,-80 3374.19,-78.69 3398.62,-76.39 3418.3,-74.32"/>
<polygon fill="midnightblue" stroke="midnightblue" points="1773.91,-116.84 1764.53,-121.77 1774.94,-123.76 1773.91,-116.84"/>
</g>
<!-- Node28&#45;&gt;Node19 -->
<g id="edge63" class="edge">
<title>Node28&#45;&gt;Node19</title>
<path fill="none" stroke="midnightblue" d="M1703.88,-124.36C1659.73,-122.34 1581.93,-118.81 1515.28,-116 1111.77,-98.99 1010.8,-97.05 607.28,-80 536.04,-76.99 452.01,-73.14 410.37,-71.21"/>
<polygon fill="midnightblue" stroke="midnightblue" points="1703.94,-127.87 1714.09,-124.83 1704.26,-120.88 1703.94,-127.87"/>
</g>
<!-- Node28&#45;&gt;Node20 -->
<g id="edge64" class="edge">
<title>Node28&#45;&gt;Node20</title>
<path fill="none" stroke="midnightblue" d="M1703.88,-124.41C1659.73,-122.43 1581.93,-118.94 1515.28,-116 1149.07,-99.83 1054.33,-130.68 691.28,-80 688.31,-79.59 685.25,-79.06 682.19,-78.46"/>
<polygon fill="midnightblue" stroke="midnightblue" points="1703.94,-127.92 1714.09,-124.87 1704.26,-120.92 1703.94,-127.92"/>
</g>
<!-- Node28&#45;&gt;Node21 -->
<g id="edge65" class="edge">
<title>Node28&#45;&gt;Node21</title>
<path fill="none" stroke="midnightblue" d="M1703.8,-124.43C1541.95,-117.22 879.73,-87.39 836.28,-80 833.61,-79.55 830.86,-78.95 828.12,-78.28"/>
<polygon fill="midnightblue" stroke="midnightblue" points="1704,-127.94 1714.15,-124.89 1704.31,-120.95 1704,-127.94"/>
</g>
<!-- Node28&#45;&gt;Node22 -->
<g id="edge66" class="edge">
<title>Node28&#45;&gt;Node22</title>
<path fill="none" stroke="midnightblue" d="M1774.45,-116.96C1775.74,-116.64 1777.02,-116.32 1778.28,-116 1836.79,-101.34 1905.68,-84.62 1941.63,-75.94"/>
<polygon fill="midnightblue" stroke="midnightblue" points="1773.28,-113.65 1764.45,-119.5 1775,-120.43 1773.28,-113.65"/>
</g>
<!-- Node28&#45;&gt;Node23 -->
<g id="edge67" class="edge">
<title>Node28&#45;&gt;Node23</title>
<path fill="none" stroke="midnightblue" d="M1715.74,-110.49C1700.74,-100.61 1681.79,-88.12 1668.92,-79.64"/>
<polygon fill="midnightblue" stroke="midnightblue" points="1714.2,-113.67 1724.48,-116.25 1718.05,-107.82 1714.2,-113.67"/>
</g>
<!-- Node28&#45;&gt;Node24 -->
<g id="edge68" class="edge">
<title>Node28&#45;&gt;Node24</title>
<path fill="none" stroke="midnightblue" d="M1704.27,-122.22C1606.39,-111.66 1331.46,-82 1245.98,-72.77"/>
<polygon fill="midnightblue" stroke="midnightblue" points="1703.93,-125.71 1714.25,-123.3 1704.68,-118.75 1703.93,-125.71"/>
</g>
<!-- Node28&#45;&gt;Node25 -->
<g id="edge57" class="edge">
<title>Node28&#45;&gt;Node25</title>
<path fill="none" stroke="midnightblue" d="M1774.77,-120.53C1786.38,-118.89 1799.36,-117.2 1811.28,-116 2064.73,-90.46 2132.1,-122.32 2383.28,-80 2386.87,-79.4 2390.6,-78.58 2394.26,-77.67"/>
<polygon fill="midnightblue" stroke="midnightblue" points="1773.94,-117.11 1764.55,-122.02 1774.95,-124.04 1773.94,-117.11"/>
</g>
<!-- Node29 -->
<g id="node29" class="node">
<title>Node29</title>
<g id="a_node29"><a xlink:href="texmath_8c.html" target="_top" xlink:title=" ">
<polygon fill="white" stroke="black" points="1705.28,-58.5 1705.28,-79.5 1773.28,-79.5 1773.28,-58.5 1705.28,-58.5"/>
<text text-anchor="middle" x="1739.28" y="-65.9" font-family="DejaVuSans" font-size="12.00">texmath.c</text>
</a>
</g>
</g>
<!-- Node28&#45;&gt;Node29 -->
<g id="edge71" class="edge">
<title>Node28&#45;&gt;Node29</title>
<path fill="none" stroke="midnightblue" d="M1739.28,-106.16C1739.28,-97.16 1739.28,-86.92 1739.28,-79.64"/>
<polygon fill="midnightblue" stroke="midnightblue" points="1735.78,-106.25 1739.28,-116.25 1742.78,-106.25 1735.78,-106.25"/>
</g>
<!-- Node30&#45;&gt;Node7 -->
<g id="edge140" class="edge">
<title>Node30&#45;&gt;Node7</title>
<path fill="none" stroke="midnightblue" d="M2822.35,-648.23C2579.2,-649.92 924.68,-657.04 441.28,-544 314.51,-514.35 261.12,-523.18 172.28,-428 69.19,-317.54 -66.57,-225.74 37.28,-116 87.23,-63.22 618.47,-91.08 690.28,-80 693.46,-79.51 696.76,-78.87 700.02,-78.16"/>
<polygon fill="midnightblue" stroke="midnightblue" points="2822.58,-651.73 2832.55,-648.16 2822.52,-644.73 2822.58,-651.73"/>
</g>
<!-- Node30&#45;&gt;Node10 -->
<g id="edge141" class="edge">
<title>Node30&#45;&gt;Node10</title>
<path fill="none" stroke="midnightblue" d="M2882.25,-647.98C2994.02,-647.11 3380.28,-636.67 3380.28,-534 3380.28,-534 3380.28,-534 3380.28,-184 3380.28,-117.35 3143.53,-82.69 3063.99,-72.93"/>
<polygon fill="midnightblue" stroke="midnightblue" points="2882,-644.48 2872.02,-648.04 2882.04,-651.48 2882,-644.48"/>
</g>
<!-- Node30&#45;&gt;Node11 -->
<g id="edge143" class="edge">
<title>Node30&#45;&gt;Node11</title>
<path fill="none" stroke="midnightblue" d="M2881.75,-644.12C2924.86,-637.77 3001.81,-623.66 3018.28,-602 3071.02,-532.66 3053.38,-485.73 3018.28,-406 2921.77,-186.75 2576.96,-139.25 2478.01,-130.03"/>
<polygon fill="midnightblue" stroke="midnightblue" points="2881.24,-640.66 2871.83,-645.53 2882.22,-647.59 2881.24,-640.66"/>
</g>
<!-- Node30&#45;&gt;Node15 -->
<g id="edge148" class="edge">
<title>Node30&#45;&gt;Node15</title>
<path fill="none" stroke="midnightblue" d="M2882.1,-646.91C2982.84,-642.45 3304.28,-621.36 3304.28,-534 3304.28,-534 3304.28,-534 3304.28,-416 3304.28,-252.22 3246.99,-163.6 3090.28,-116 2945.34,-71.97 2759.97,-69.32 2700.53,-69.71"/>
<polygon fill="midnightblue" stroke="midnightblue" points="2881.84,-643.42 2872,-647.34 2882.13,-650.42 2881.84,-643.42"/>
</g>
<!-- Node30&#45;&gt;Node16 -->
<g id="edge149" class="edge">
<title>Node30&#45;&gt;Node16</title>
<path fill="none" stroke="midnightblue" d="M2882.24,-644.55C2965.63,-634.11 3194.28,-599.5 3194.28,-534 3194.28,-534 3194.28,-534 3194.28,-358 3194.28,-223.95 3130.92,-182.06 3014.28,-116 2944.13,-76.27 2733.06,-91.62 2653.28,-80 2650.37,-79.58 2647.38,-79.1 2644.36,-78.6"/>
<polygon fill="midnightblue" stroke="midnightblue" points="2881.65,-641.09 2872.15,-645.78 2882.5,-648.04 2881.65,-641.09"/>
</g>
<!-- Node30&#45;&gt;Node18 -->
<g id="edge144" class="edge">
<title>Node30&#45;&gt;Node18</title>
<path fill="none" stroke="midnightblue" d="M2882.1,-647.85C2974.73,-646.96 3256.19,-641.05 3337.28,-602 3410.79,-566.6 3532.28,-416.92 3532.28,-360 3532.28,-360 3532.28,-360 3532.28,-184 3532.28,-138.57 3489.98,-97.47 3468.49,-79.53"/>
<polygon fill="midnightblue" stroke="midnightblue" points="2881.98,-644.35 2872.01,-647.93 2882.04,-651.35 2881.98,-644.35"/>
</g>
<!-- Node30&#45;&gt;Node23 -->
<g id="edge147" class="edge">
<title>Node30&#45;&gt;Node23</title>
<path fill="none" stroke="midnightblue" d="M2822.91,-641.36C2686,-610.2 2114.36,-477.98 2050.28,-428 1924.75,-330.08 2003.08,-209.59 1874.28,-116 1808.99,-68.55 1775.11,-97.35 1696.28,-80 1693.21,-79.32 1690.01,-78.6 1686.82,-77.86"/>
<polygon fill="midnightblue" stroke="midnightblue" points="2822.19,-644.78 2832.71,-643.58 2823.74,-637.95 2822.19,-644.78"/>
</g>
<!-- Node30&#45;&gt;Node28 -->
<g id="edge146" class="edge">
<title>Node30&#45;&gt;Node28</title>
<path fill="none" stroke="midnightblue" d="M2822.77,-646.39C2709.72,-639.03 2296.64,-600.98 2017.28,-428 1882.66,-344.64 1771.63,-178.87 1745.24,-137.51"/>
<polygon fill="midnightblue" stroke="midnightblue" points="2822.56,-649.88 2832.76,-647.01 2822.99,-642.9 2822.56,-649.88"/>
</g>
<!-- Node31 -->
<g id="node31" class="node">
<title>Node31</title>
<g id="a_node31"><a xlink:href="box_8h.html" target="_top" xlink:title=" ">
<polygon fill="white" stroke="black" points="1377.28,-580.5 1377.28,-601.5 1423.28,-601.5 1423.28,-580.5 1377.28,-580.5"/>
<text text-anchor="middle" x="1400.28" y="-587.9" font-family="DejaVuSans" font-size="12.00">box.h</text>
</a>
</g>
</g>
<!-- Node30&#45;&gt;Node31 -->
<g id="edge77" class="edge">
<title>Node30&#45;&gt;Node31</title>
<path fill="none" stroke="midnightblue" d="M2822.49,-646.85C2632.38,-639.52 1591.68,-599.38 1423.3,-592.89"/>
<polygon fill="midnightblue" stroke="midnightblue" points="2822.46,-650.35 2832.58,-647.24 2822.73,-643.36 2822.46,-650.35"/>
</g>
<!-- Node35 -->
<g id="node35" class="node">
<title>Node35</title>
<g id="a_node35"><a xlink:href="io__unix_8c.html" target="_top" xlink:title=" ">
<polygon fill="white" stroke="black" points="546.78,-232.5 546.78,-253.5 611.78,-253.5 611.78,-232.5 546.78,-232.5"/>
<text text-anchor="middle" x="579.28" y="-239.9" font-family="DejaVuSans" font-size="12.00">io_unix.c</text>
</a>
</g>
</g>
<!-- Node30&#45;&gt;Node35 -->
<g id="edge145" class="edge">
<title>Node30&#45;&gt;Node35</title>
<path fill="none" stroke="midnightblue" d="M2822.19,-647.51C2567.76,-643.25 783.33,-611.03 694.28,-544 594.68,-469.02 581.34,-296.3 579.56,-253.65"/>
<polygon fill="midnightblue" stroke="midnightblue" points="2822.46,-651.01 2832.52,-647.68 2822.58,-644.02 2822.46,-651.01"/>
</g>
<!-- Node38 -->
<g id="node38" class="node">
<title>Node38</title>
<g id="a_node38"><a xlink:href="global_8h.html" target="_top" xlink:title=" ">
<polygon fill="white" stroke="black" points="2220.28,-290.5 2220.28,-311.5 2278.28,-311.5 2278.28,-290.5 2220.28,-290.5"/>
<text text-anchor="middle" x="2249.28" y="-297.9" font-family="DejaVuSans" font-size="12.00">global.h</text>
</a>
</g>
</g>
<!-- Node30&#45;&gt;Node38 -->
<g id="edge142" class="edge">
<title>Node30&#45;&gt;Node38</title>
<path fill="none" stroke="midnightblue" d="M2852.28,-628.15C2852.28,-605.41 2852.28,-567.02 2852.28,-534 2852.28,-534 2852.28,-534 2852.28,-416 2852.28,-356.87 2398.82,-314.56 2278.37,-304.37"/>
<polygon fill="midnightblue" stroke="midnightblue" points="2848.78,-628.24 2852.28,-638.24 2855.78,-628.24 2848.78,-628.24"/>
</g>
<!-- Node39 -->
<g id="node39" class="node">
<title>Node39</title>
<g id="a_node39"><a xlink:href="texfunc_8h.html" target="_top" xlink:title=" ">
<polygon fill="white" stroke="black" points="2150.78,-116.5 2150.78,-137.5 2215.78,-137.5 2215.78,-116.5 2150.78,-116.5"/>
<text text-anchor="middle" x="2183.28" y="-123.9" font-family="DejaVuSans" font-size="12.00">texfunc.h</text>
</a>
</g>
</g>
<!-- Node30&#45;&gt;Node39 -->
<g id="edge150" class="edge">
<title>Node30&#45;&gt;Node39</title>
<path fill="none" stroke="midnightblue" d="M2881.48,-640.46C2925.63,-627.09 3004.28,-594.75 3004.28,-534 3004.28,-534 3004.28,-534 3004.28,-474 3004.28,-299.8 2368.67,-164.28 2215.97,-134.24"/>
<polygon fill="midnightblue" stroke="midnightblue" points="2880.48,-637.1 2871.84,-643.24 2882.42,-643.83 2880.48,-637.1"/>
</g>
<!-- Node31&#45;&gt;Node2 -->
<g id="edge78" class="edge">
<title>Node31&#45;&gt;Node2</title>
<path fill="none" stroke="midnightblue" d="M1433.59,-588.91C1514.51,-585.78 1719.24,-574.97 1779.28,-544 1815.63,-525.25 1841.28,-516.9 1841.28,-476 1841.28,-476 1841.28,-476 1841.28,-242 1841.28,-203.4 1842.44,-157.46 1843,-137.76"/>
<polygon fill="midnightblue" stroke="midnightblue" points="1433.32,-585.41 1423.46,-589.28 1433.58,-592.41 1433.32,-585.41"/>
</g>
<!-- Node31&#45;&gt;Node3 -->
<g id="edge79" class="edge">
<title>Node31&#45;&gt;Node3</title>
<path fill="none" stroke="midnightblue" d="M1366.88,-590.14C1244.48,-590.28 821,-587.55 694.28,-544 564.18,-499.29 534.8,-468.04 438.28,-370 361.75,-292.26 300.72,-172.43 283.9,-137.73"/>
<polygon fill="midnightblue" stroke="midnightblue" points="1367.13,-593.64 1377.13,-590.12 1367.12,-586.64 1367.13,-593.64"/>
</g>
<!-- Node31&#45;&gt;Node4 -->
<g id="edge80" class="edge">
<title>Node31&#45;&gt;Node4</title>
<path fill="none" stroke="midnightblue" d="M1367.11,-590.04C1238.7,-589.86 774.48,-586.26 634.28,-544 420.24,-479.48 398.74,-392.55 223.28,-254 191.31,-228.75 180.63,-225.27 152.28,-196 133.88,-177 115.93,-151.54 106.7,-137.8"/>
<polygon fill="midnightblue" stroke="midnightblue" points="1367.13,-593.54 1377.13,-590.04 1367.13,-586.54 1367.13,-593.54"/>
</g>
<!-- Node31&#45;&gt;Node5 -->
<g id="edge81" class="edge">
<title>Node31&#45;&gt;Node5</title>
<path fill="none" stroke="midnightblue" d="M1367.09,-588.87C1272.22,-585.3 1005.07,-572.76 979.28,-544 972.76,-536.72 977.24,-531.56 979.28,-522 1034.1,-265.73 1230.77,-309.17 1455.28,-174 1481.93,-157.96 1499.96,-165.06 1515.28,-138 1525.8,-119.43 1515.89,-93.81 1508.87,-79.92"/>
<polygon fill="midnightblue" stroke="midnightblue" points="1367.15,-592.37 1377.27,-589.24 1367.4,-585.38 1367.15,-592.37"/>
</g>
<!-- Node31&#45;&gt;Node8 -->
<g id="edge82" class="edge">
<title>Node31&#45;&gt;Node8</title>
<path fill="none" stroke="midnightblue" d="M1433.48,-590.13C1622.05,-590.1 2555.71,-579.27 2722.28,-370 2765.63,-315.55 2982.17,-412.14 2502.28,-116 2496.74,-112.58 2416.53,-89.14 2374.93,-77.1"/>
<polygon fill="midnightblue" stroke="midnightblue" points="1433.36,-586.63 1423.35,-590.12 1433.35,-593.63 1433.36,-586.63"/>
</g>
<!-- Node31&#45;&gt;Node10 -->
<g id="edge84" class="edge">
<title>Node31&#45;&gt;Node10</title>
<path fill="none" stroke="midnightblue" d="M1433.62,-590.17C1637.22,-590.68 2713.64,-585.77 2994.28,-428 3115,-360.14 3152.79,-325.34 3202.28,-196 3227.63,-129.77 3116.25,-90.74 3064.03,-76.36"/>
<polygon fill="midnightblue" stroke="midnightblue" points="1433.55,-586.67 1423.54,-590.14 1433.53,-593.67 1433.55,-586.67"/>
</g>
<!-- Node31&#45;&gt;Node12 -->
<g id="edge83" class="edge">
<title>Node31&#45;&gt;Node12</title>
<path fill="none" stroke="midnightblue" d="M1367.04,-590.03C1231.87,-589.87 723.41,-586.39 569.28,-544 515.61,-529.24 504.64,-516.82 458.28,-486 391.75,-441.76 82.76,-218.77 45.28,-138 41.17,-129.13 38.53,-123.07 45.28,-116 75.67,-84.2 792.72,-86.12 836.28,-80 839.25,-79.58 842.32,-79.05 845.38,-78.45"/>
<polygon fill="midnightblue" stroke="midnightblue" points="1367.18,-593.53 1377.18,-590.04 1367.19,-586.53 1367.18,-593.53"/>
</g>
<!-- Node31&#45;&gt;Node14 -->
<g id="edge85" class="edge">
<title>Node31&#45;&gt;Node14</title>
<path fill="none" stroke="midnightblue" d="M1433.88,-587.93C1594.97,-577.27 2286.04,-523.07 2422.28,-370 2499.69,-283.04 2559.58,-206.45 2486.28,-116 2437.66,-56 2391.16,-98.91 2316.28,-80 2313.54,-79.31 2310.68,-78.54 2307.85,-77.75"/>
<polygon fill="midnightblue" stroke="midnightblue" points="1433.38,-584.45 1423.63,-588.6 1433.84,-591.44 1433.38,-584.45"/>
</g>
<!-- Node31&#45;&gt;Node16 -->
<g id="edge139" class="edge">
<title>Node31&#45;&gt;Node16</title>
<path fill="none" stroke="midnightblue" d="M1433.62,-590.3C1551.36,-590.91 1958.42,-589.4 2290.28,-544 2407.16,-528.01 2437.31,-523.1 2549.28,-486 2609.34,-466.1 2624.04,-458.84 2679.28,-428 2749.24,-388.94 2823.61,-364.95 2795.28,-290 2757.75,-190.68 2652.67,-107.21 2614.97,-79.65"/>
<polygon fill="midnightblue" stroke="midnightblue" points="1433.47,-586.79 1423.45,-590.23 1433.43,-593.79 1433.47,-586.79"/>
</g>
<!-- Node31&#45;&gt;Node19 -->
<g id="edge86" class="edge">
<title>Node31&#45;&gt;Node19</title>
<path fill="none" stroke="midnightblue" d="M1367.1,-589.35C1215.39,-586.21 591.72,-571.74 509.28,-544 257.15,-459.15 127.18,-440.47 22.28,-196 12.53,-173.26 33.16,-119.65 37.28,-116 84.77,-73.95 285.54,-69.89 358.04,-69.83"/>
<polygon fill="midnightblue" stroke="midnightblue" points="1367.12,-592.85 1377.19,-589.55 1367.26,-585.85 1367.12,-592.85"/>
</g>
<!-- Node31&#45;&gt;Node23 -->
<g id="edge87" class="edge">
<title>Node31&#45;&gt;Node23</title>
<path fill="none" stroke="midnightblue" d="M1413.13,-572.02C1439.1,-535.22 1498.89,-448.2 1540.28,-370 1592.81,-270.76 1606.57,-245.1 1640.28,-138 1646.65,-117.77 1650.88,-93.21 1652.9,-79.84"/>
<polygon fill="midnightblue" stroke="midnightblue" points="1410.22,-570.07 1407.29,-580.25 1415.93,-574.12 1410.22,-570.07"/>
</g>
<!-- Node31&#45;&gt;Node24 -->
<g id="edge88" class="edge">
<title>Node31&#45;&gt;Node24</title>
<path fill="none" stroke="midnightblue" d="M1367,-588.42C1271.81,-583.62 1003.3,-568.08 972.28,-544 907.08,-493.37 921.96,-451.24 907.28,-370 900.71,-333.59 903.63,-315.66 930.28,-290 964.92,-256.66 991.48,-279.41 1032.28,-254 1114.47,-202.82 1189.46,-110.22 1212.82,-79.9"/>
<polygon fill="midnightblue" stroke="midnightblue" points="1367.05,-591.93 1377.21,-588.93 1367.39,-584.93 1367.05,-591.93"/>
</g>
<!-- Node32 -->
<g id="node32" class="node">
<title>Node32</title>
<g id="a_node32"><a xlink:href="tex__constant_8h.html" target="_top" xlink:title=" ">
<polygon fill="white" stroke="black" points="988.28,-522.5 988.28,-543.5 1082.28,-543.5 1082.28,-522.5 988.28,-522.5"/>
<text text-anchor="middle" x="1035.28" y="-529.9" font-family="DejaVuSans" font-size="12.00">tex_constant.h</text>
</a>
</g>
</g>
<!-- Node31&#45;&gt;Node32 -->
<g id="edge89" class="edge">
<title>Node31&#45;&gt;Node32</title>
<path fill="none" stroke="midnightblue" d="M1367.06,-584.9C1301.93,-574.91 1157.32,-552.72 1082.36,-541.22"/>
<polygon fill="midnightblue" stroke="midnightblue" points="1366.76,-588.4 1377.17,-586.45 1367.82,-581.48 1366.76,-588.4"/>
</g>
<!-- Node32&#45;&gt;Node2 -->
<g id="edge90" class="edge">
<title>Node32&#45;&gt;Node2</title>
<path fill="none" stroke="midnightblue" d="M1092.68,-531.39C1270.97,-527.98 1803.28,-505.61 1803.28,-360 1803.28,-360 1803.28,-360 1803.28,-242 1803.28,-201.31 1826.25,-156.82 1837.38,-137.66"/>
<polygon fill="midnightblue" stroke="midnightblue" points="1092.39,-527.9 1082.46,-531.58 1092.52,-534.9 1092.39,-527.9"/>
</g>
<!-- Node32&#45;&gt;Node3 -->
<g id="edge91" class="edge">
<title>Node32&#45;&gt;Node3</title>
<path fill="none" stroke="midnightblue" d="M989.13,-519.86C849.69,-483.03 442.28,-374.22 442.28,-360 442.28,-360 442.28,-360 442.28,-242 442.28,-181.57 366.11,-150.49 317.91,-136.87"/>
<polygon fill="midnightblue" stroke="midnightblue" points="988.52,-523.32 999.08,-522.49 990.31,-516.55 988.52,-523.32"/>
</g>
<!-- Node32&#45;&gt;Node4 -->
<g id="edge92" class="edge">
<title>Node32&#45;&gt;Node4</title>
<path fill="none" stroke="midnightblue" d="M977.75,-525.04C851.67,-507.54 545.45,-452.64 334.28,-312 243.95,-251.84 144.36,-166.56 111.48,-137.86"/>
<polygon fill="midnightblue" stroke="midnightblue" points="977.57,-528.55 987.95,-526.43 978.51,-521.61 977.57,-528.55"/>
</g>
<!-- Node32&#45;&gt;Node5 -->
<g id="edge93" class="edge">
<title>Node32&#45;&gt;Node5</title>
<path fill="none" stroke="midnightblue" d="M1004.52,-517.73C970.76,-499.69 921.28,-465.2 921.28,-418 921.28,-418 921.28,-418 921.28,-358 921.28,-247.43 1047.92,-302.51 1147.28,-254 1278.26,-190.06 1433.28,-107.54 1485.28,-79.68"/>
<polygon fill="midnightblue" stroke="midnightblue" points="1003.08,-520.92 1013.57,-522.37 1006.28,-514.69 1003.08,-520.92"/>
</g>
<!-- Node32&#45;&gt;Node6 -->
<g id="edge94" class="edge">
<title>Node32&#45;&gt;Node6</title>
<path fill="none" stroke="midnightblue" d="M1092.84,-530.98C1233.03,-528.03 1589.06,-517.58 1703.28,-486 1758.08,-470.85 1774.04,-464.9 1817.28,-428 1903.44,-354.5 1970.49,-230.69 1988.5,-195.55"/>
<polygon fill="midnightblue" stroke="midnightblue" points="1092.65,-527.49 1082.72,-531.19 1092.79,-534.48 1092.65,-527.49"/>
</g>
<!-- Node32&#45;&gt;Node33 -->
<g id="edge95" class="edge">
<title>Node32&#45;&gt;Node33</title>
<path fill="none" stroke="midnightblue" d="M1035.28,-512.16C1035.28,-503.16 1035.28,-492.92 1035.28,-485.64"/>
<polygon fill="midnightblue" stroke="midnightblue" points="1031.78,-512.25 1035.28,-522.25 1038.78,-512.25 1031.78,-512.25"/>
</g>
<!-- Node33&#45;&gt;Node7 -->
<g id="edge96" class="edge">
<title>Node33&#45;&gt;Node7</title>
<path fill="none" stroke="midnightblue" d="M1003.87,-474.53C869.54,-474.83 344.73,-455.38 223.28,-138 219.79,-128.87 216.64,-123.17 223.28,-116 258.64,-77.81 638.94,-88.5 690.28,-80 693.46,-79.48 696.75,-78.82 700.01,-78.09"/>
<polygon fill="midnightblue" stroke="midnightblue" points="1004.28,-478.03 1014.26,-474.46 1004.24,-471.03 1004.28,-478.03"/>
</g>
<!-- Node33&#45;&gt;Node10 -->
<g id="edge98" class="edge">
<title>Node33&#45;&gt;Node10</title>
<path fill="none" stroke="midnightblue" d="M1066.31,-473.83C1248.91,-472.67 2185.21,-465.02 2470.28,-428 2584.25,-413.2 2610.63,-397.24 2722.28,-370 2822.61,-345.53 2870.45,-381 2947.28,-312 3020.42,-246.32 3035.02,-115.91 3037.71,-79.59"/>
<polygon fill="midnightblue" stroke="midnightblue" points="1066.29,-470.33 1056.31,-473.89 1066.33,-477.33 1066.29,-470.33"/>
</g>
<!-- Node33&#45;&gt;Node11 -->
<g id="edge99" class="edge">
<title>Node33&#45;&gt;Node11</title>
<path fill="none" stroke="midnightblue" d="M1066.65,-473.57C1221.89,-471.32 1909.07,-459.7 2120.28,-428 2257.56,-407.4 2338.68,-430.93 2410.28,-312 2445.9,-252.84 2450.66,-166.2 2451.23,-137.57"/>
<polygon fill="midnightblue" stroke="midnightblue" points="1066.35,-470.08 1056.4,-473.72 1066.45,-477.08 1066.35,-470.08"/>
</g>
<!-- Node33&#45;&gt;Node12 -->
<g id="edge97" class="edge">
<title>Node33&#45;&gt;Node12</title>
<path fill="none" stroke="midnightblue" d="M1004.25,-471.63C912.69,-462.75 643.49,-422.69 537.28,-254 499.52,-194.01 755.04,-108.09 846.55,-79.59"/>
<polygon fill="midnightblue" stroke="midnightblue" points="1003.99,-475.12 1014.27,-472.54 1004.63,-468.15 1003.99,-475.12"/>
</g>
<!-- Node33&#45;&gt;Node15 -->
<g id="edge137" class="edge">
<title>Node33&#45;&gt;Node15</title>
<path fill="none" stroke="midnightblue" d="M1066.84,-473.7C1235.77,-471.98 2034.76,-462.14 2279.28,-428 2493.66,-398.07 2618.69,-482.31 2752.28,-312 2810.92,-237.24 2719.14,-115.34 2689.81,-79.93"/>
<polygon fill="midnightblue" stroke="midnightblue" points="1066.6,-470.21 1056.63,-473.81 1066.67,-477.21 1066.6,-470.21"/>
</g>
<!-- Node33&#45;&gt;Node16 -->
<g id="edge138" class="edge">
<title>Node33&#45;&gt;Node16</title>
<path fill="none" stroke="midnightblue" d="M1066.94,-474.02C1231.42,-473.96 1989.84,-471.27 2220.28,-428 2375.19,-398.91 2415.49,-363.05 2529.28,-254 2575.62,-209.59 2598.47,-199.94 2615.28,-138 2620.84,-117.53 2612.14,-93.06 2606.16,-79.77"/>
<polygon fill="midnightblue" stroke="midnightblue" points="1066.55,-470.52 1056.55,-474.02 1066.55,-477.52 1066.55,-470.52"/>
</g>
<!-- Node33&#45;&gt;Node20 -->
<g id="edge132" class="edge">
<title>Node33&#45;&gt;Node20</title>
<path fill="none" stroke="midnightblue" d="M1003.55,-474.3C924.52,-474.34 713.06,-470.16 543.28,-428 347.59,-379.4 299,-354.67 124.28,-254 62.19,-218.22 31.93,-206.92 12.28,-138 9.6,-128.6 5.62,-123.16 12.28,-116 22.69,-104.81 487.75,-78.77 616.53,-71.76"/>
<polygon fill="midnightblue" stroke="midnightblue" points="1003.81,-477.8 1013.8,-474.27 1003.79,-470.8 1003.81,-477.8"/>
</g>
<!-- Node33&#45;&gt;Node21 -->
<g id="edge133" class="edge">
<title>Node33&#45;&gt;Node21</title>
<path fill="none" stroke="midnightblue" d="M1003.9,-472.81C948.07,-469.91 828.43,-460.16 733.28,-428 696.26,-415.49 251.21,-172.77 231.28,-138 226.42,-129.52 224.61,-123.14 231.28,-116 272.05,-72.4 708.48,-90.26 767.28,-80 770.27,-79.48 773.37,-78.8 776.43,-78.04"/>
<polygon fill="midnightblue" stroke="midnightblue" points="1004.03,-476.32 1014.19,-473.3 1004.37,-469.33 1004.03,-476.32"/>
</g>
<!-- Node33&#45;&gt;Node23 -->
<g id="edge135" class="edge">
<title>Node33&#45;&gt;Node23</title>
<path fill="none" stroke="midnightblue" d="M1055.57,-458.37C1074.02,-444.31 1102.12,-423.28 1127.28,-406 1310.14,-280.45 1361.38,-257.44 1548.28,-138 1580.71,-117.28 1618.65,-92.91 1639.2,-79.7"/>
<polygon fill="midnightblue" stroke="midnightblue" points="1053.4,-455.63 1047.58,-464.48 1057.65,-461.19 1053.4,-455.63"/>
</g>
<!-- Node33&#45;&gt;Node24 -->
<g id="edge136" class="edge">
<title>Node33&#45;&gt;Node24</title>
<path fill="none" stroke="midnightblue" d="M1022.92,-455.72C992.57,-408.47 919.42,-278.72 955.28,-174 987.71,-79.32 1134.65,-69.35 1194.65,-69.32"/>
<polygon fill="midnightblue" stroke="midnightblue" points="1020.12,-457.83 1028.53,-464.27 1025.97,-453.99 1020.12,-457.83"/>
</g>
<!-- Node33&#45;&gt;Node28 -->
<g id="edge134" class="edge">
<title>Node33&#45;&gt;Node28</title>
<path fill="none" stroke="midnightblue" d="M1063.94,-459.92C1181.04,-402.36 1621.65,-185.82 1719.81,-137.57"/>
<polygon fill="midnightblue" stroke="midnightblue" points="1062.28,-456.83 1054.85,-464.38 1065.37,-463.12 1062.28,-456.83"/>
</g>
<!-- Node34 -->
<g id="node34" class="node">
<title>Node34</title>
<g id="a_node34"><a xlink:href="io_8c.html" target="_top" xlink:title=" ">
<polygon fill="white" stroke="black" points="3307.78,-58.5 3307.78,-79.5 3342.78,-79.5 3342.78,-58.5 3307.78,-58.5"/>
<text text-anchor="middle" x="3325.28" y="-65.9" font-family="DejaVuSans" font-size="12.00">io.c</text>
</a>
</g>
</g>
<!-- Node33&#45;&gt;Node34 -->
<g id="edge100" class="edge">
<title>Node33&#45;&gt;Node34</title>
<path fill="none" stroke="midnightblue" d="M1066.39,-473.8C1254.53,-472.46 2242.54,-463.79 2543.28,-428 2668.18,-413.14 2699.61,-405.49 2820.28,-370 2958.62,-329.32 3000.52,-329.64 3123.28,-254 3208.9,-201.25 3291.25,-109.68 3317.02,-79.76"/>
<polygon fill="midnightblue" stroke="midnightblue" points="1066.32,-470.3 1056.34,-473.87 1066.37,-477.3 1066.32,-470.3"/>
</g>
<!-- Node33&#45;&gt;Node35 -->
<g id="edge101" class="edge">
<title>Node33&#45;&gt;Node35</title>
<path fill="none" stroke="midnightblue" d="M1007.23,-459.85C922.38,-417.05 669.93,-289.72 598.38,-253.63"/>
<polygon fill="midnightblue" stroke="midnightblue" points="1005.77,-463.03 1016.27,-464.41 1008.92,-456.78 1005.77,-463.03"/>
</g>
<!-- Node36 -->
<g id="node36" class="node">
<title>Node36</title>
<g id="a_node36"><a xlink:href="lexer_8h.html" target="_top" xlink:title=" ">
<polygon fill="white" stroke="black" points="2059.28,-406.5 2059.28,-427.5 2111.28,-427.5 2111.28,-406.5 2059.28,-406.5"/>
<text text-anchor="middle" x="2085.28" y="-413.9" font-family="DejaVuSans" font-size="12.00">lexer.h</text>
</a>
</g>
</g>
<!-- Node33&#45;&gt;Node36 -->
<g id="edge102" class="edge">
<title>Node33&#45;&gt;Node36</title>
<path fill="none" stroke="midnightblue" d="M1067.1,-472.3C1224.11,-463.93 1914.55,-427.11 2058.81,-419.41"/>
<polygon fill="midnightblue" stroke="midnightblue" points="1066.53,-468.83 1056.73,-472.86 1066.91,-475.82 1066.53,-468.83"/>
</g>
<!-- Node36&#45;&gt;Node9 -->
<g id="edge103" class="edge">
<title>Node36&#45;&gt;Node9</title>
<path fill="none" stroke="midnightblue" d="M2085,-396.15C2084.71,-373.41 2084.28,-335.02 2084.28,-302 2084.28,-302 2084.28,-302 2084.28,-184 2084.28,-143.84 2064.18,-99.08 2054.45,-79.75"/>
<polygon fill="midnightblue" stroke="midnightblue" points="2081.51,-396.29 2085.14,-406.24 2088.5,-396.19 2081.51,-396.29"/>
</g>
<!-- Node36&#45;&gt;Node10 -->
<g id="edge105" class="edge">
<title>Node36&#45;&gt;Node10</title>
<path fill="none" stroke="midnightblue" d="M2121.55,-412.39C2177.31,-406.38 2287.22,-392.68 2378.28,-370 2531.58,-331.82 2570.32,-319.06 2714.28,-254 2838.96,-197.66 2978.78,-108.82 3023.62,-79.64"/>
<polygon fill="midnightblue" stroke="midnightblue" points="2121.04,-408.93 2111.46,-413.46 2121.77,-415.89 2121.04,-408.93"/>
</g>
<!-- Node36&#45;&gt;Node12 -->
<g id="edge104" class="edge">
<title>Node36&#45;&gt;Node12</title>
<path fill="none" stroke="midnightblue" d="M2048.67,-414.36C1885.32,-406.72 1222.41,-372.52 1024.28,-312 969.16,-295.16 948.47,-295.32 908.28,-254 860.22,-204.58 871.37,-110.02 876.47,-79.65"/>
<polygon fill="midnightblue" stroke="midnightblue" points="2048.98,-417.87 2059.13,-414.84 2049.3,-410.88 2048.98,-417.87"/>
</g>
<!-- Node36&#45;&gt;Node14 -->
<g id="edge107" class="edge">
<title>Node36&#45;&gt;Node14</title>
<path fill="none" stroke="midnightblue" d="M2121.41,-410.6C2203.36,-397.34 2396.28,-359.97 2396.28,-302 2396.28,-302 2396.28,-302 2396.28,-184 2396.28,-132.36 2337.07,-95.94 2303.99,-79.63"/>
<polygon fill="midnightblue" stroke="midnightblue" points="2120.86,-407.15 2111.53,-412.17 2121.96,-414.06 2120.86,-407.15"/>
</g>
<!-- Node36&#45;&gt;Node16 -->
<g id="edge131" class="edge">
<title>Node36&#45;&gt;Node16</title>
<path fill="none" stroke="midnightblue" d="M2121.91,-414.9C2173.26,-412.17 2268.6,-402.7 2342.28,-370 2454.33,-320.27 2474.48,-287.29 2556.28,-196 2577.52,-172.3 2587.81,-168.05 2598.28,-138 2605.21,-118.14 2603.95,-93.02 2602.55,-79.56"/>
<polygon fill="midnightblue" stroke="midnightblue" points="2121.47,-411.42 2111.65,-415.39 2121.8,-418.41 2121.47,-411.42"/>
</g>
<!-- Node36&#45;&gt;Node19 -->
<g id="edge108" class="edge">
<title>Node36&#45;&gt;Node19</title>
<path fill="none" stroke="midnightblue" d="M2048.79,-416.3C1928.22,-416.84 1531.9,-414.81 1208.28,-370 942.39,-333.18 883.48,-284.78 620.28,-232 521.42,-212.17 495.8,-212.22 396.28,-196 240.23,-170.57 147.57,-258.57 45.28,-138 38.96,-130.54 38.85,-123.36 45.28,-116 86.07,-69.31 285.75,-68.18 358.07,-69.35"/>
<polygon fill="midnightblue" stroke="midnightblue" points="2048.96,-419.8 2058.94,-416.25 2048.92,-412.8 2048.96,-419.8"/>
</g>
<!-- Node36&#45;&gt;Node34 -->
<g id="edge106" class="edge">
<title>Node36&#45;&gt;Node34</title>
<path fill="none" stroke="midnightblue" d="M2121.44,-413.34C2185.35,-408.18 2322.21,-395.05 2435.28,-370 2796.66,-289.94 3216.94,-115.98 3307.52,-77.6"/>
<polygon fill="midnightblue" stroke="midnightblue" points="2121.15,-409.85 2111.46,-414.13 2121.7,-416.83 2121.15,-409.85"/>
</g>
<!-- Node37 -->
<g id="node37" class="node">
<title>Node37</title>
<g id="a_node37"><a xlink:href="scan_8h.html" target="_top" xlink:title=" ">
<polygon fill="white" stroke="black" points="1479.28,-348.5 1479.28,-369.5 1531.28,-369.5 1531.28,-348.5 1479.28,-348.5"/>
<text text-anchor="middle" x="1505.28" y="-355.9" font-family="DejaVuSans" font-size="12.00">scan.h</text>
</a>
</g>
</g>
<!-- Node36&#45;&gt;Node37 -->
<g id="edge109" class="edge">
<title>Node36&#45;&gt;Node37</title>
<path fill="none" stroke="midnightblue" d="M2049.21,-412.52C1941.69,-402.14 1625.12,-371.57 1531.59,-362.54"/>
<polygon fill="midnightblue" stroke="midnightblue" points="2048.95,-416.01 2059.24,-413.49 2049.62,-409.04 2048.95,-416.01"/>
</g>
<!-- Node37&#45;&gt;Node12 -->
<g id="edge110" class="edge">
<title>Node37&#45;&gt;Node12</title>
<path fill="none" stroke="midnightblue" d="M1469.22,-355.3C1357.85,-346.4 1021.62,-314.93 933.28,-254 874.28,-213.3 875.59,-111.18 877.52,-79.51"/>
<polygon fill="midnightblue" stroke="midnightblue" points="1469.03,-358.8 1479.28,-356.1 1469.58,-351.82 1469.03,-358.8"/>
</g>
<!-- Node37&#45;&gt;Node13 -->
<g id="edge126" class="edge">
<title>Node37&#45;&gt;Node13</title>
<path fill="none" stroke="midnightblue" d="M1509.26,-338.47C1515.47,-311.93 1529.63,-264.08 1556.28,-232 1609.92,-167.45 1632.69,-158.11 1705.28,-116 1733.1,-99.86 1767.68,-86.58 1790.99,-78.51"/>
<polygon fill="midnightblue" stroke="midnightblue" points="1505.79,-337.92 1507.07,-348.44 1512.63,-339.42 1505.79,-337.92"/>
</g>
<!-- Node37&#45;&gt;Node16 -->
<g id="edge130" class="edge">
<title>Node37&#45;&gt;Node16</title>
<path fill="none" stroke="midnightblue" d="M1541.69,-357.5C1675.92,-355.4 2142.71,-345.79 2287.28,-312 2434.02,-277.7 2490.03,-260.14 2578.28,-138 2591.42,-119.82 2597.45,-93.59 2599.88,-79.61"/>
<polygon fill="midnightblue" stroke="midnightblue" points="1541.48,-354 1531.53,-357.65 1541.59,-361 1541.48,-354"/>
</g>
<!-- Node37&#45;&gt;Node21 -->
<g id="edge127" class="edge">
<title>Node37&#45;&gt;Node21</title>
<path fill="none" stroke="midnightblue" d="M1469,-356.26C1371.92,-351.31 1107.93,-336.01 1024.28,-312 908.76,-278.84 868.6,-246.68 817.28,-138 808.1,-118.54 804.43,-93.27 803.05,-79.67"/>
<polygon fill="midnightblue" stroke="midnightblue" points="1469.03,-359.76 1479.2,-356.77 1469.39,-352.77 1469.03,-359.76"/>
</g>
<!-- Node37&#45;&gt;Node23 -->
<g id="edge128" class="edge">
<title>Node37&#45;&gt;Node23</title>
<path fill="none" stroke="midnightblue" d="M1514.93,-339.36C1543.65,-283.85 1627.93,-120.94 1649.31,-79.62"/>
<polygon fill="midnightblue" stroke="midnightblue" points="1511.73,-337.93 1510.24,-348.42 1517.94,-341.14 1511.73,-337.93"/>
</g>
<!-- Node37&#45;&gt;Node24 -->
<g id="edge129" class="edge">
<title>Node37&#45;&gt;Node24</title>
<path fill="none" stroke="midnightblue" d="M1479.08,-343.37C1465.14,-335.02 1448.07,-323.87 1434.28,-312 1342.05,-232.59 1252.42,-113.92 1227.25,-79.61"/>
<polygon fill="midnightblue" stroke="midnightblue" points="1477.33,-346.4 1487.73,-348.44 1480.87,-340.36 1477.33,-346.4"/>
</g>
<!-- Node37&#45;&gt;Node38 -->
<g id="edge111" class="edge">
<title>Node37&#45;&gt;Node38</title>
<path fill="none" stroke="midnightblue" d="M1541.42,-355.28C1669.86,-345.61 2102.81,-313.02 2219.89,-304.21"/>
<polygon fill="midnightblue" stroke="midnightblue" points="1541.04,-351.8 1531.33,-356.04 1541.56,-358.78 1541.04,-351.8"/>
</g>
<!-- Node38&#45;&gt;Node8 -->
<g id="edge112" class="edge">
<title>Node38&#45;&gt;Node8</title>
<path fill="none" stroke="midnightblue" d="M2287.87,-286.85C2343.53,-265.55 2444.26,-217.63 2486.28,-138 2490.85,-129.35 2491.98,-123.94 2486.28,-116 2482.92,-111.32 2413.4,-89.38 2375.09,-77.57"/>
<polygon fill="midnightblue" stroke="midnightblue" points="2286.5,-283.63 2278.35,-290.41 2288.95,-290.19 2286.5,-283.63"/>
</g>
<!-- Node38&#45;&gt;Node10 -->
<g id="edge115" class="edge">
<title>Node38&#45;&gt;Node10</title>
<path fill="none" stroke="midnightblue" d="M2288.44,-290.12C2323.97,-281.05 2377.77,-267.08 2424.28,-254 2653.53,-189.54 2928.56,-104.27 3012.64,-78.03"/>
<polygon fill="midnightblue" stroke="midnightblue" points="2287.3,-286.79 2278.47,-292.65 2289.03,-293.58 2287.3,-286.79"/>
</g>
<!-- Node38&#45;&gt;Node12 -->
<g id="edge114" class="edge">
<title>Node38&#45;&gt;Node12</title>
<path fill="none" stroke="midnightblue" d="M2209.84,-299.69C1999.31,-297.92 1015.51,-287.83 961.28,-254 897.36,-214.12 882.27,-111.44 879.07,-79.58"/>
<polygon fill="midnightblue" stroke="midnightblue" points="2210.08,-303.2 2220.11,-299.78 2210.14,-296.2 2210.08,-303.2"/>
</g>
<!-- Node38&#45;&gt;Node13 -->
<g id="edge116" class="edge">
<title>Node38&#45;&gt;Node13</title>
<path fill="none" stroke="midnightblue" d="M2221.66,-285.56C2204.93,-276.68 2183.23,-264.95 2164.28,-254 2063.05,-195.48 2045.32,-167.39 1940.28,-116 1907.93,-100.17 1868.66,-86.36 1843.33,-78.1"/>
<polygon fill="midnightblue" stroke="midnightblue" points="2220.4,-288.85 2230.88,-290.42 2223.67,-282.66 2220.4,-288.85"/>
</g>
<!-- Node38&#45;&gt;Node14 -->
<g id="edge120" class="edge">
<title>Node38&#45;&gt;Node14</title>
<path fill="none" stroke="midnightblue" d="M2252.12,-280.23C2258.92,-232.87 2275.93,-114.26 2280.9,-79.63"/>
<polygon fill="midnightblue" stroke="midnightblue" points="2248.62,-280.01 2250.66,-290.41 2255.54,-281.01 2248.62,-280.01"/>
</g>
<!-- Node38&#45;&gt;Node16 -->
<g id="edge125" class="edge">
<title>Node38&#45;&gt;Node16</title>
<path fill="none" stroke="midnightblue" d="M2288.14,-290.82C2317.4,-283.11 2358.02,-270.67 2391.28,-254 2471.11,-214.01 2492.82,-201.78 2555.28,-138 2573.23,-119.67 2588.68,-93.5 2596.27,-79.57"/>
<polygon fill="midnightblue" stroke="midnightblue" points="2287.11,-287.47 2278.3,-293.35 2288.86,-294.25 2287.11,-287.47"/>
</g>
<!-- Node38&#45;&gt;Node18 -->
<g id="edge118" class="edge">
<title>Node38&#45;&gt;Node18</title>
<path fill="none" stroke="midnightblue" d="M2288.55,-299.93C2472.92,-298.85 3251.3,-285.49 3432.28,-138 3450.14,-123.45 3454.73,-94.69 3455.89,-79.66"/>
<polygon fill="midnightblue" stroke="midnightblue" points="2288.47,-296.43 2278.49,-299.98 2288.51,-303.43 2288.47,-296.43"/>
</g>
<!-- Node38&#45;&gt;Node21 -->
<g id="edge122" class="edge">
<title>Node38&#45;&gt;Node21</title>
<path fill="none" stroke="midnightblue" d="M2210.06,-299.6C1997.48,-297.34 990.89,-284.99 933.28,-254 859.04,-214.06 817.1,-111.42 805.57,-79.57"/>
<polygon fill="midnightblue" stroke="midnightblue" points="2210.1,-303.1 2220.14,-299.71 2210.18,-296.1 2210.1,-303.1"/>
</g>
<!-- Node38&#45;&gt;Node22 -->
<g id="edge123" class="edge">
<title>Node38&#45;&gt;Node22</title>
<path fill="none" stroke="midnightblue" d="M2229.57,-283.98C2174.79,-239.45 2021.91,-115.21 1978.13,-79.63"/>
<polygon fill="midnightblue" stroke="midnightblue" points="2227.52,-286.82 2237.48,-290.41 2231.93,-281.39 2227.52,-286.82"/>
</g>
<!-- Node38&#45;&gt;Node24 -->
<g id="edge124" class="edge">
<title>Node38&#45;&gt;Node24</title>
<path fill="none" stroke="midnightblue" d="M2209.89,-296.97C2082.88,-286.35 1673.83,-245.43 1354.28,-138 1309.03,-122.79 1260,-94.58 1235.72,-79.72"/>
<polygon fill="midnightblue" stroke="midnightblue" points="2209.67,-300.46 2219.93,-297.8 2210.25,-293.49 2209.67,-300.46"/>
</g>
<!-- Node38&#45;&gt;Node25 -->
<g id="edge113" class="edge">
<title>Node38&#45;&gt;Node25</title>
<path fill="none" stroke="midnightblue" d="M2288.39,-291.29C2317.77,-283.82 2358.44,-271.48 2391.28,-254 2428.17,-234.37 2437.2,-226.94 2465.28,-196 2491.61,-166.99 2522.17,-149.75 2502.28,-116 2489.91,-94.99 2464.1,-82.9 2444.53,-76.44"/>
<polygon fill="midnightblue" stroke="midnightblue" points="2287.37,-287.94 2278.49,-293.73 2289.04,-294.73 2287.37,-287.94"/>
</g>
<!-- Node38&#45;&gt;Node26 -->
<g id="edge121" class="edge">
<title>Node38&#45;&gt;Node26</title>
<path fill="none" stroke="midnightblue" d="M2210,-298.24C2018.3,-289.67 1183.66,-252.34 1023.81,-245.19"/>
<polygon fill="midnightblue" stroke="midnightblue" points="2210.03,-301.75 2220.18,-298.7 2210.35,-294.75 2210.03,-301.75"/>
</g>
<!-- Node38&#45;&gt;Node34 -->
<g id="edge117" class="edge">
<title>Node38&#45;&gt;Node34</title>
<path fill="none" stroke="midnightblue" d="M2288.31,-292.26C2333.57,-283.24 2410.38,-267.82 2476.28,-254 2810.98,-183.82 3218.84,-93.61 3307.67,-73.91"/>
<polygon fill="midnightblue" stroke="midnightblue" points="2287.46,-288.86 2278.33,-294.24 2288.83,-295.72 2287.46,-288.86"/>
</g>
<!-- Node38&#45;&gt;Node35 -->
<g id="edge119" class="edge">
<title>Node38&#45;&gt;Node35</title>
<path fill="none" stroke="midnightblue" d="M2209.92,-298.88C2042.02,-294.08 1369.07,-274.53 816.28,-254 743.24,-251.29 657.55,-247.53 611.87,-245.48"/>
<polygon fill="midnightblue" stroke="midnightblue" points="2209.92,-302.38 2220.02,-299.17 2210.12,-295.39 2209.92,-302.38"/>
</g>
<!-- Node39&#45;&gt;Node5 -->
<g id="edge151" class="edge">
<title>Node39&#45;&gt;Node5</title>
<path fill="none" stroke="midnightblue" d="M2140.69,-122.73C2045.79,-115.41 1809.74,-97.01 1612.28,-80 1591.08,-78.17 1567.56,-76.03 1547.82,-74.2"/>
<polygon fill="midnightblue" stroke="midnightblue" points="2140.52,-126.23 2150.76,-123.51 2141.06,-119.25 2140.52,-126.23"/>
</g>
<!-- Node39&#45;&gt;Node7 -->
<g id="edge152" class="edge">
<title>Node39&#45;&gt;Node7</title>
<path fill="none" stroke="midnightblue" d="M2140.48,-124.61C1904.04,-116.95 768.37,-80.16 767.28,-80 764.45,-79.59 761.52,-79.04 758.61,-78.41"/>
<polygon fill="midnightblue" stroke="midnightblue" points="2140.63,-128.12 2150.73,-124.95 2140.85,-121.12 2140.63,-128.12"/>
</g>
<!-- Node39&#45;&gt;Node8 -->
<g id="edge153" class="edge">
<title>Node39&#45;&gt;Node8</title>
<path fill="none" stroke="midnightblue" d="M2221.49,-113.19C2253.52,-102.45 2298.31,-87.43 2325.75,-78.23"/>
<polygon fill="midnightblue" stroke="midnightblue" points="2220.36,-109.88 2211.99,-116.37 2222.59,-116.51 2220.36,-109.88"/>
</g>
<!-- Node39&#45;&gt;Node9 -->
<g id="edge154" class="edge">
<title>Node39&#45;&gt;Node9</title>
<path fill="none" stroke="midnightblue" d="M2150.7,-112.38C2126.33,-102.2 2093.62,-88.53 2072.02,-79.5"/>
<polygon fill="midnightblue" stroke="midnightblue" points="2149.67,-115.75 2160.25,-116.37 2152.37,-109.29 2149.67,-115.75"/>
</g>
<!-- Node39&#45;&gt;Node10 -->
<g id="edge157" class="edge">
<title>Node39&#45;&gt;Node10</title>
<path fill="none" stroke="midnightblue" d="M2226.38,-123.18C2379.16,-113.17 2892.16,-79.57 3012.75,-71.67"/>
<polygon fill="midnightblue" stroke="midnightblue" points="2225.77,-119.71 2216.02,-123.86 2226.22,-126.69 2225.77,-119.71"/>
</g>
<!-- Node39&#45;&gt;Node12 -->
<g id="edge156" class="edge">
<title>Node39&#45;&gt;Node12</title>
<path fill="none" stroke="midnightblue" d="M2140.53,-124.17C1939.24,-115.53 1088.41,-79.02 910.84,-71.4"/>
<polygon fill="midnightblue" stroke="midnightblue" points="2140.56,-127.67 2150.7,-124.6 2140.86,-120.68 2140.56,-127.67"/>
</g>
<!-- Node39&#45;&gt;Node14 -->
<g id="edge159" class="edge">
<title>Node39&#45;&gt;Node14</title>
<path fill="none" stroke="midnightblue" d="M2209.72,-111.05C2227.33,-101.08 2249.97,-88.28 2265.24,-79.64"/>
<polygon fill="midnightblue" stroke="midnightblue" points="2207.51,-108.28 2200.53,-116.25 2210.96,-114.37 2207.51,-108.28"/>
</g>
<!-- Node39&#45;&gt;Node15 -->
<g id="edge162" class="edge">
<title>Node39&#45;&gt;Node15</title>
<path fill="none" stroke="midnightblue" d="M2226,-125.31C2309.22,-123.21 2498.49,-114.66 2653.28,-80 2656.21,-79.35 2659.24,-78.47 2662.19,-77.52"/>
<polygon fill="midnightblue" stroke="midnightblue" points="2225.83,-121.81 2215.91,-125.55 2225.99,-128.81 2225.83,-121.81"/>
</g>
<!-- Node39&#45;&gt;Node16 -->
<g id="edge163" class="edge">
<title>Node39&#45;&gt;Node16</title>
<path fill="none" stroke="midnightblue" d="M2226.32,-120.23C2306.53,-109.49 2478.01,-86.51 2558.23,-75.77"/>
<polygon fill="midnightblue" stroke="midnightblue" points="2225.53,-116.81 2216.08,-121.61 2226.46,-123.75 2225.53,-116.81"/>
</g>
<!-- Node39&#45;&gt;Node23 -->
<g id="edge160" class="edge">
<title>Node39&#45;&gt;Node23</title>
<path fill="none" stroke="midnightblue" d="M2140.54,-123.97C2055.48,-119.49 1859.16,-106.95 1696.28,-80 1693.33,-79.51 1690.27,-78.93 1687.21,-78.3"/>
<polygon fill="midnightblue" stroke="midnightblue" points="2140.43,-127.47 2150.6,-124.49 2140.79,-120.48 2140.43,-127.47"/>
</g>
<!-- Node39&#45;&gt;Node24 -->
<g id="edge161" class="edge">
<title>Node39&#45;&gt;Node24</title>
<path fill="none" stroke="midnightblue" d="M2140.39,-123.51C1974.41,-113.85 1377.03,-79.11 1245.86,-71.49"/>
<polygon fill="midnightblue" stroke="midnightblue" points="2140.5,-127.02 2150.69,-124.1 2140.91,-120.03 2140.5,-127.02"/>
</g>
<!-- Node39&#45;&gt;Node25 -->
<g id="edge155" class="edge">
<title>Node39&#45;&gt;Node25</title>
<path fill="none" stroke="midnightblue" d="M2225.77,-116.81C2266.35,-107.89 2329.16,-93.73 2383.28,-80 2386.8,-79.11 2390.51,-78.13 2394.14,-77.14"/>
<polygon fill="midnightblue" stroke="midnightblue" points="2224.97,-113.4 2215.95,-118.96 2226.47,-120.24 2224.97,-113.4"/>
</g>
<!-- Node39&#45;&gt;Node29 -->
<g id="edge164" class="edge">
<title>Node39&#45;&gt;Node29</title>
<path fill="none" stroke="midnightblue" d="M2140.36,-122.7C2066.73,-116.67 1911.77,-102.41 1782.28,-80 1779.41,-79.5 1776.45,-78.93 1773.48,-78.32"/>
<polygon fill="midnightblue" stroke="midnightblue" points="2140.37,-126.21 2150.62,-123.53 2140.93,-119.23 2140.37,-126.21"/>
</g>
<!-- Node39&#45;&gt;Node34 -->
<g id="edge158" class="edge">
<title>Node39&#45;&gt;Node34</title>
<path fill="none" stroke="midnightblue" d="M2226.09,-123.9C2416.32,-114.57 3181.23,-77.06 3307.57,-70.87"/>
<polygon fill="midnightblue" stroke="midnightblue" points="2225.74,-120.41 2215.93,-124.4 2226.08,-127.41 2225.74,-120.41"/>
</g>
<!-- Node40&#45;&gt;Node5 -->
<g id="edge167" class="edge">
<title>Node40&#45;&gt;Node5</title>
<path fill="none" stroke="midnightblue" d="M1482.61,-107.34C1487.75,-98.06 1493.74,-87.24 1497.95,-79.64"/>
<polygon fill="midnightblue" stroke="midnightblue" points="1479.46,-105.8 1477.68,-116.25 1485.59,-109.19 1479.46,-105.8"/>
</g>
<!-- Node40&#45;&gt;Node8 -->
<g id="edge168" class="edge">
<title>Node40&#45;&gt;Node8</title>
<path fill="none" stroke="midnightblue" d="M1516.63,-123.87C1684.92,-115.74 2276.62,-86.82 2316.28,-80 2319.32,-79.48 2322.46,-78.78 2325.56,-77.99"/>
<polygon fill="midnightblue" stroke="midnightblue" points="1516.21,-120.38 1506.39,-124.36 1516.55,-127.38 1516.21,-120.38"/>
</g>
<!-- Node40&#45;&gt;Node10 -->
<g id="edge170" class="edge">
<title>Node40&#45;&gt;Node10</title>
<path fill="none" stroke="midnightblue" d="M1516.75,-123.98C1563.63,-121.88 1639.65,-118.54 1705.28,-116 2232.27,-95.6 2876.63,-75.09 3012.42,-70.81"/>
<polygon fill="midnightblue" stroke="midnightblue" points="1516.46,-120.49 1506.63,-124.44 1516.77,-127.48 1516.46,-120.49"/>
</g>
<!-- Node40&#45;&gt;Node12 -->
<g id="edge169" class="edge">
<title>Node40&#45;&gt;Node12</title>
<path fill="none" stroke="midnightblue" d="M1428.09,-121.83C1313.99,-111.08 1011.43,-82.55 911.12,-73.1"/>
<polygon fill="midnightblue" stroke="midnightblue" points="1427.93,-125.33 1438.21,-122.79 1428.59,-118.36 1427.93,-125.33"/>
</g>
<!-- Node40&#45;&gt;Node14 -->
<g id="edge171" class="edge">
<title>Node40&#45;&gt;Node14</title>
<path fill="none" stroke="midnightblue" d="M1516.39,-122.95C1664.33,-112.72 2140.14,-79.83 2256.45,-71.79"/>
<polygon fill="midnightblue" stroke="midnightblue" points="1516.05,-119.47 1506.31,-123.65 1516.53,-126.45 1516.05,-119.47"/>
</g>
<!-- Node40&#45;&gt;Node16 -->
<g id="edge177" class="edge">
<title>Node40&#45;&gt;Node16</title>
<path fill="none" stroke="midnightblue" d="M1516.84,-124.03C1683.1,-116.68 2267.15,-90.65 2453.28,-80 2488.64,-77.98 2528.71,-75.24 2558.23,-73.14"/>
<polygon fill="midnightblue" stroke="midnightblue" points="1516.34,-120.55 1506.5,-124.49 1516.65,-127.54 1516.34,-120.55"/>
</g>
<!-- Node40&#45;&gt;Node19 -->
<g id="edge172" class="edge">
<title>Node40&#45;&gt;Node19</title>
<path fill="none" stroke="midnightblue" d="M1428.2,-123.73C1245.95,-114.35 554.2,-78.75 410.51,-71.35"/>
<polygon fill="midnightblue" stroke="midnightblue" points="1428.06,-127.23 1438.23,-124.25 1428.42,-120.24 1428.06,-127.23"/>
</g>
<!-- Node40&#45;&gt;Node20 -->
<g id="edge173" class="edge">
<title>Node40&#45;&gt;Node20</title>
<path fill="none" stroke="midnightblue" d="M1427.97,-126.09C1308.41,-125.76 969.44,-120.98 691.28,-80 688.32,-79.56 685.25,-79.02 682.19,-78.41"/>
<polygon fill="midnightblue" stroke="midnightblue" points="1428.19,-129.59 1438.19,-126.11 1428.2,-122.59 1428.19,-129.59"/>
</g>
<!-- Node40&#45;&gt;Node21 -->
<g id="edge174" class="edge">
<title>Node40&#45;&gt;Node21</title>
<path fill="none" stroke="midnightblue" d="M1427.63,-124.01C1302.51,-118.25 950.2,-100.63 836.28,-80 833.62,-79.52 830.87,-78.91 828.13,-78.22"/>
<polygon fill="midnightblue" stroke="midnightblue" points="1427.83,-127.53 1437.98,-124.49 1428.15,-120.53 1427.83,-127.53"/>
</g>
<!-- Node40&#45;&gt;Node23 -->
<g id="edge175" class="edge">
<title>Node40&#45;&gt;Node23</title>
<path fill="none" stroke="midnightblue" d="M1513.48,-113.32C1546.86,-103.05 1593.15,-88.81 1623.4,-79.5"/>
<polygon fill="midnightblue" stroke="midnightblue" points="1512.1,-110.09 1503.57,-116.37 1514.16,-116.78 1512.1,-110.09"/>
</g>
<!-- Node40&#45;&gt;Node24 -->
<g id="edge176" class="edge">
<title>Node40&#45;&gt;Node24</title>
<path fill="none" stroke="midnightblue" d="M1427.95,-116.15C1375.19,-104.42 1288.87,-85.24 1246.04,-75.72"/>
<polygon fill="midnightblue" stroke="midnightblue" points="1427.51,-119.64 1438.04,-118.39 1429.03,-112.8 1427.51,-119.64"/>
</g>
<!-- Node40&#45;&gt;Node29 -->
<g id="edge178" class="edge">
<title>Node40&#45;&gt;Node29</title>
<path fill="none" stroke="midnightblue" d="M1516.34,-117.18C1561.37,-108.11 1633.28,-93.44 1695.28,-80 1698.5,-79.3 1701.84,-78.57 1705.19,-77.82"/>
<polygon fill="midnightblue" stroke="midnightblue" points="1515.44,-113.79 1506.33,-119.2 1516.82,-120.66 1515.44,-113.79"/>
</g>
</g>
</svg>
