<?xml version="1.0" encoding="UTF-8" standalone="no"?>
<!DOCTYPE svg PUBLIC "-//W3C//DTD SVG 1.1//EN"
 "http://www.w3.org/Graphics/SVG/1.1/DTD/svg11.dtd">
<!-- Generated by graphviz version 2.44.0 ()
 -->
<!-- Title: tex_constant.h Pages: 1 -->
<svg width="882pt" height="378pt"
 viewBox="0.00 0.00 882.00 378.00" xmlns="http://www.w3.org/2000/svg" xmlns:xlink="http://www.w3.org/1999/xlink">
<g id="graph0" class="graph" transform="scale(1 1) rotate(0) translate(4 374)">
<title>tex_constant.h</title>
<polygon fill="white" stroke="transparent" points="-4,4 -4,-374 878,-374 878,4 -4,4"/>
<!-- Node1 -->
<g id="node1" class="node">
<title>Node1</title>
<g id="a_node1"><a xlink:title=" ">
<polygon fill="#bfbfbf" stroke="black" points="368,-348.5 368,-369.5 462,-369.5 462,-348.5 368,-348.5"/>
<text text-anchor="middle" x="415" y="-355.9" font-family="DejaVuSans" font-size="12.00">tex_constant.h</text>
</a>
</g>
</g>
<!-- Node2 -->
<g id="node2" class="node">
<title>Node2</title>
<g id="a_node2"><a xlink:href="tex_8h.html" target="_top" xlink:title=" ">
<polygon fill="white" stroke="black" points="394,-290.5 394,-311.5 436,-311.5 436,-290.5 394,-290.5"/>
<text text-anchor="middle" x="415" y="-297.9" font-family="DejaVuSans" font-size="12.00">tex.h</text>
</a>
</g>
</g>
<!-- Node1&#45;&gt;Node2 -->
<g id="edge1" class="edge">
<title>Node1&#45;&gt;Node2</title>
<path fill="none" stroke="midnightblue" d="M415,-338.16C415,-329.16 415,-318.92 415,-311.64"/>
<polygon fill="midnightblue" stroke="midnightblue" points="411.5,-338.25 415,-348.25 418.5,-338.25 411.5,-338.25"/>
</g>
<!-- Node3 -->
<g id="node3" class="node">
<title>Node3</title>
<g id="a_node3"><a xlink:href="dviout_8c.html" target="_top" xlink:title=" ">
<polygon fill="white" stroke="black" points="0,-232.5 0,-253.5 58,-253.5 58,-232.5 0,-232.5"/>
<text text-anchor="middle" x="29" y="-239.9" font-family="DejaVuSans" font-size="12.00">dviout.c</text>
</a>
</g>
</g>
<!-- Node2&#45;&gt;Node3 -->
<g id="edge2" class="edge">
<title>Node2&#45;&gt;Node3</title>
<path fill="none" stroke="midnightblue" d="M383.55,-296.8C322.98,-290.4 186.02,-274.85 72,-254 67.48,-253.17 62.71,-252.18 58.07,-251.15"/>
<polygon fill="midnightblue" stroke="midnightblue" points="383.31,-300.29 393.62,-297.85 384.03,-293.33 383.31,-300.29"/>
</g>
<!-- Node4 -->
<g id="node4" class="node">
<title>Node4</title>
<g id="a_node4"><a xlink:href="expand_8c.html" target="_top" xlink:title=" ">
<polygon fill="white" stroke="black" points="207.5,-58.5 207.5,-79.5 272.5,-79.5 272.5,-58.5 207.5,-58.5"/>
<text text-anchor="middle" x="240" y="-65.9" font-family="DejaVuSans" font-size="12.00">expand.c</text>
</a>
</g>
</g>
<!-- Node2&#45;&gt;Node4 -->
<g id="edge3" class="edge">
<title>Node2&#45;&gt;Node4</title>
<path fill="none" stroke="midnightblue" d="M383.43,-298.8C350.79,-295.78 300.78,-285.84 273,-254 227.76,-202.16 234.82,-109.99 238.58,-79.84"/>
<polygon fill="midnightblue" stroke="midnightblue" points="383.54,-302.32 393.78,-299.58 384.07,-295.34 383.54,-302.32"/>
</g>
<!-- Node5 -->
<g id="node5" class="node">
<title>Node5</title>
<g id="a_node5"><a xlink:href="fonts_8c.html" target="_top" xlink:title=" ">
<polygon fill="white" stroke="black" points="706.5,-58.5 706.5,-79.5 757.5,-79.5 757.5,-58.5 706.5,-58.5"/>
<text text-anchor="middle" x="732" y="-65.9" font-family="DejaVuSans" font-size="12.00">fonts.c</text>
</a>
</g>
</g>
<!-- Node2&#45;&gt;Node5 -->
<g id="edge4" class="edge">
<title>Node2&#45;&gt;Node5</title>
<path fill="none" stroke="midnightblue" d="M446.08,-295.81C480.38,-290.18 536.38,-277.99 579,-254 656.47,-210.38 711.34,-111.11 727.25,-79.71"/>
<polygon fill="midnightblue" stroke="midnightblue" points="445.51,-292.35 436.16,-297.35 446.58,-299.27 445.51,-292.35"/>
</g>
<!-- Node6 -->
<g id="node6" class="node">
<title>Node6</title>
<g id="a_node6"><a xlink:href="funcs_8c.html" target="_top" xlink:title=" ">
<polygon fill="white" stroke="black" points="135,-58.5 135,-79.5 189,-79.5 189,-58.5 135,-58.5"/>
<text text-anchor="middle" x="162" y="-65.9" font-family="DejaVuSans" font-size="12.00">funcs.c</text>
</a>
</g>
</g>
<!-- Node2&#45;&gt;Node6 -->
<g id="edge5" class="edge">
<title>Node2&#45;&gt;Node6</title>
<path fill="none" stroke="midnightblue" d="M383.76,-298.33C348.77,-294.94 292.13,-284.73 255,-254 196.27,-205.39 170.89,-110.29 164.02,-79.72"/>
<polygon fill="midnightblue" stroke="midnightblue" points="383.62,-301.83 393.87,-299.18 384.2,-294.86 383.62,-301.83"/>
</g>
<!-- Node7 -->
<g id="node7" class="node">
<title>Node7</title>
<g id="a_node7"><a xlink:href="inipool_8c.html" target="_top" xlink:title=" ">
<polygon fill="white" stroke="black" points="282.5,-232.5 282.5,-253.5 343.5,-253.5 343.5,-232.5 282.5,-232.5"/>
<text text-anchor="middle" x="313" y="-239.9" font-family="DejaVuSans" font-size="12.00">inipool.c</text>
</a>
</g>
</g>
<!-- Node2&#45;&gt;Node7 -->
<g id="edge6" class="edge">
<title>Node2&#45;&gt;Node7</title>
<path fill="none" stroke="midnightblue" d="M388.27,-285.32C370.05,-275.32 346.44,-262.36 330.56,-253.64"/>
<polygon fill="midnightblue" stroke="midnightblue" points="386.78,-288.5 397.23,-290.25 390.15,-282.36 386.78,-288.5"/>
</g>
<!-- Node8 -->
<g id="node8" class="node">
<title>Node8</title>
<g id="a_node8"><a xlink:href="inputln_8c.html" target="_top" xlink:title=" ">
<polygon fill="white" stroke="black" points="55.5,-58.5 55.5,-79.5 116.5,-79.5 116.5,-58.5 55.5,-58.5"/>
<text text-anchor="middle" x="86" y="-65.9" font-family="DejaVuSans" font-size="12.00">inputln.c</text>
</a>
</g>
</g>
<!-- Node2&#45;&gt;Node8 -->
<g id="edge7" class="edge">
<title>Node2&#45;&gt;Node8</title>
<path fill="none" stroke="midnightblue" d="M383.64,-298.39C344.74,-295.07 277.72,-284.94 230,-254 157.5,-207 105.96,-110.83 90.69,-79.85"/>
<polygon fill="midnightblue" stroke="midnightblue" points="383.59,-301.89 393.83,-299.15 384.12,-294.91 383.59,-301.89"/>
</g>
<!-- Node9 -->
<g id="node9" class="node">
<title>Node9</title>
<g id="a_node9"><a xlink:href="lexer_8h.html" target="_top" xlink:title=" ">
<polygon fill="white" stroke="black" points="362,-232.5 362,-253.5 414,-253.5 414,-232.5 362,-232.5"/>
<text text-anchor="middle" x="388" y="-239.9" font-family="DejaVuSans" font-size="12.00">lexer.h</text>
</a>
</g>
</g>
<!-- Node2&#45;&gt;Node9 -->
<g id="edge8" class="edge">
<title>Node2&#45;&gt;Node9</title>
<path fill="none" stroke="midnightblue" d="M405.86,-281.04C401.42,-271.83 396.27,-261.16 392.65,-253.64"/>
<polygon fill="midnightblue" stroke="midnightblue" points="402.8,-282.76 410.3,-290.25 409.11,-279.72 402.8,-282.76"/>
</g>
<!-- Node15 -->
<g id="node15" class="node">
<title>Node15</title>
<g id="a_node15"><a xlink:href="scan_8c.html" target="_top" xlink:title=" ">
<polygon fill="white" stroke="black" points="495.5,-58.5 495.5,-79.5 546.5,-79.5 546.5,-58.5 495.5,-58.5"/>
<text text-anchor="middle" x="521" y="-65.9" font-family="DejaVuSans" font-size="12.00">scan.c</text>
</a>
</g>
</g>
<!-- Node2&#45;&gt;Node15 -->
<g id="edge38" class="edge">
<title>Node2&#45;&gt;Node15</title>
<path fill="none" stroke="midnightblue" d="M445.88,-288.74C497.24,-268.09 598.38,-218.7 637,-138 641.22,-129.18 642.49,-124.09 637,-116 631.66,-108.14 579.12,-89.44 546.61,-78.45"/>
<polygon fill="midnightblue" stroke="midnightblue" points="444.34,-285.59 436.31,-292.49 446.9,-292.11 444.34,-285.59"/>
</g>
<!-- Node16 -->
<g id="node16" class="node">
<title>Node16</title>
<g id="a_node16"><a xlink:href="tex__header_8h.html" target="_top" xlink:title=" ">
<polygon fill="white" stroke="black" points="565,-58.5 565,-79.5 651,-79.5 651,-58.5 565,-58.5"/>
<text text-anchor="middle" x="608" y="-65.9" font-family="DejaVuSans" font-size="12.00">tex_header.h</text>
</a>
</g>
</g>
<!-- Node2&#45;&gt;Node16 -->
<g id="edge40" class="edge">
<title>Node2&#45;&gt;Node16</title>
<path fill="none" stroke="midnightblue" d="M446.22,-292.61C474.06,-285.25 515.33,-272.38 548,-254 583.21,-234.19 591.83,-226.78 618,-196 643.02,-166.56 666.39,-151.85 652,-116 645.91,-100.82 632.15,-87.82 621.63,-79.55"/>
<polygon fill="midnightblue" stroke="midnightblue" points="445.08,-289.29 436.26,-295.16 446.82,-296.07 445.08,-289.29"/>
</g>
<!-- Node18 -->
<g id="node18" class="node">
<title>Node18</title>
<g id="a_node18"><a xlink:href="printout_8c.html" target="_top" xlink:title=" ">
<polygon fill="white" stroke="black" points="562.5,-116.5 562.5,-137.5 627.5,-137.5 627.5,-116.5 562.5,-116.5"/>
<text text-anchor="middle" x="595" y="-123.9" font-family="DejaVuSans" font-size="12.00">printout.c</text>
</a>
</g>
</g>
<!-- Node2&#45;&gt;Node18 -->
<g id="edge37" class="edge">
<title>Node2&#45;&gt;Node18</title>
<path fill="none" stroke="midnightblue" d="M434.29,-283.59C457.69,-263.49 498.07,-228.14 531,-196 551.42,-176.07 574.01,-151.4 586.14,-137.93"/>
<polygon fill="midnightblue" stroke="midnightblue" points="431.81,-281.11 426.49,-290.27 436.36,-286.43 431.81,-281.11"/>
</g>
<!-- Node19 -->
<g id="node19" class="node">
<title>Node19</title>
<g id="a_node19"><a xlink:href="print_8h.html" target="_top" xlink:title=" ">
<polygon fill="white" stroke="black" points="418,-116.5 418,-137.5 468,-137.5 468,-116.5 418,-116.5"/>
<text text-anchor="middle" x="443" y="-123.9" font-family="DejaVuSans" font-size="12.00">print.h</text>
</a>
</g>
</g>
<!-- Node2&#45;&gt;Node19 -->
<g id="edge30" class="edge">
<title>Node2&#45;&gt;Node19</title>
<path fill="none" stroke="midnightblue" d="M418.47,-280.45C419.9,-272.28 421.56,-262.69 423,-254 430.19,-210.74 438.22,-159.02 441.49,-137.81"/>
<polygon fill="midnightblue" stroke="midnightblue" points="414.98,-280.04 416.7,-290.49 421.88,-281.25 414.98,-280.04"/>
</g>
<!-- Node20 -->
<g id="node20" class="node">
<title>Node20</title>
<g id="a_node20"><a xlink:href="str_8c.html" target="_top" xlink:title=" ">
<polygon fill="white" stroke="black" points="836,-232.5 836,-253.5 874,-253.5 874,-232.5 836,-232.5"/>
<text text-anchor="middle" x="855" y="-239.9" font-family="DejaVuSans" font-size="12.00">str.c</text>
</a>
</g>
</g>
<!-- Node2&#45;&gt;Node20 -->
<g id="edge39" class="edge">
<title>Node2&#45;&gt;Node20</title>
<path fill="none" stroke="midnightblue" d="M446.57,-298.39C515.39,-294.45 683.84,-282.5 822,-254 826.57,-253.06 831.42,-251.76 835.96,-250.41"/>
<polygon fill="midnightblue" stroke="midnightblue" points="446.19,-294.9 436.4,-298.95 446.58,-301.89 446.19,-294.9"/>
</g>
<!-- Node9&#45;&gt;Node4 -->
<g id="edge9" class="edge">
<title>Node9&#45;&gt;Node4</title>
<path fill="none" stroke="midnightblue" d="M372.37,-224.66C364.68,-216.08 355.3,-205.54 347,-196 309.51,-152.91 265.65,-100.68 247.98,-79.55"/>
<polygon fill="midnightblue" stroke="midnightblue" points="369.85,-227.09 379.13,-232.19 375.05,-222.41 369.85,-227.09"/>
</g>
<!-- Node9&#45;&gt;Node5 -->
<g id="edge10" class="edge">
<title>Node9&#45;&gt;Node5</title>
<path fill="none" stroke="midnightblue" d="M424.01,-237.93C463.42,-232.43 527.67,-220.38 578,-196 641.42,-165.27 701.56,-103.51 723.37,-79.68"/>
<polygon fill="midnightblue" stroke="midnightblue" points="423.52,-234.46 414.07,-239.25 424.45,-241.4 423.52,-234.46"/>
</g>
<!-- Node9&#45;&gt;Node8 -->
<g id="edge11" class="edge">
<title>Node9&#45;&gt;Node8</title>
<path fill="none" stroke="midnightblue" d="M361.99,-227.18C301.58,-192.78 153.13,-108.23 102.91,-79.63"/>
<polygon fill="midnightblue" stroke="midnightblue" points="360.48,-230.35 370.9,-232.26 363.94,-224.27 360.48,-230.35"/>
</g>
<!-- Node10 -->
<g id="node10" class="node">
<title>Node10</title>
<g id="a_node10"><a xlink:href="lexer_8c.html" target="_top" xlink:title=" ">
<polygon fill="white" stroke="black" points="290.5,-58.5 290.5,-79.5 341.5,-79.5 341.5,-58.5 290.5,-58.5"/>
<text text-anchor="middle" x="316" y="-65.9" font-family="DejaVuSans" font-size="12.00">lexer.c</text>
</a>
</g>
</g>
<!-- Node9&#45;&gt;Node10 -->
<g id="edge12" class="edge">
<title>Node9&#45;&gt;Node10</title>
<path fill="none" stroke="midnightblue" d="M376.64,-223.81C364.39,-203.53 345.04,-169.45 333,-138 325.34,-118 320.18,-93.36 317.7,-79.91"/>
<polygon fill="midnightblue" stroke="midnightblue" points="373.65,-225.64 381.86,-232.34 379.62,-221.98 373.65,-225.64"/>
</g>
<!-- Node11 -->
<g id="node11" class="node">
<title>Node11</title>
<g id="a_node11"><a xlink:href="scan_8h.html" target="_top" xlink:title=" ">
<polygon fill="white" stroke="black" points="470,-174.5 470,-195.5 522,-195.5 522,-174.5 470,-174.5"/>
<text text-anchor="middle" x="496" y="-181.9" font-family="DejaVuSans" font-size="12.00">scan.h</text>
</a>
</g>
</g>
<!-- Node9&#45;&gt;Node11 -->
<g id="edge13" class="edge">
<title>Node9&#45;&gt;Node11</title>
<path fill="none" stroke="midnightblue" d="M415.78,-227.6C435.14,-217.56 460.44,-204.44 477.4,-195.64"/>
<polygon fill="midnightblue" stroke="midnightblue" points="414.08,-224.54 406.81,-232.25 417.3,-230.75 414.08,-224.54"/>
</g>
<!-- Node9&#45;&gt;Node16 -->
<g id="edge29" class="edge">
<title>Node9&#45;&gt;Node16</title>
<path fill="none" stroke="midnightblue" d="M424.19,-232.57C487.61,-215.19 614.26,-176.37 637,-138 648.65,-118.35 630.08,-93.15 617.68,-79.62"/>
<polygon fill="midnightblue" stroke="midnightblue" points="422.96,-229.28 414.22,-235.27 424.78,-236.04 422.96,-229.28"/>
</g>
<!-- Node11&#45;&gt;Node4 -->
<g id="edge14" class="edge">
<title>Node11&#45;&gt;Node4</title>
<path fill="none" stroke="midnightblue" d="M459.91,-177.66C425.96,-170.83 374.33,-158.13 333,-138 300.09,-121.97 266.71,-94.11 250.35,-79.53"/>
<polygon fill="midnightblue" stroke="midnightblue" points="459.36,-181.12 469.84,-179.6 460.7,-174.25 459.36,-181.12"/>
</g>
<!-- Node12 -->
<g id="node12" class="node">
<title>Node12</title>
<g id="a_node12"><a xlink:href="global_8h.html" target="_top" xlink:title=" ">
<polygon fill="white" stroke="black" points="342,-116.5 342,-137.5 400,-137.5 400,-116.5 342,-116.5"/>
<text text-anchor="middle" x="371" y="-123.9" font-family="DejaVuSans" font-size="12.00">global.h</text>
</a>
</g>
</g>
<!-- Node11&#45;&gt;Node12 -->
<g id="edge15" class="edge">
<title>Node11&#45;&gt;Node12</title>
<path fill="none" stroke="midnightblue" d="M465.3,-170.25C442.6,-160.08 412.27,-146.49 392.21,-137.5"/>
<polygon fill="midnightblue" stroke="midnightblue" points="463.95,-173.48 474.51,-174.37 466.82,-167.09 463.95,-173.48"/>
</g>
<!-- Node11&#45;&gt;Node15 -->
<g id="edge27" class="edge">
<title>Node11&#45;&gt;Node15</title>
<path fill="none" stroke="midnightblue" d="M500.33,-164.25C505.74,-139.58 514.78,-98.35 518.87,-79.69"/>
<polygon fill="midnightblue" stroke="midnightblue" points="496.85,-163.76 498.13,-174.28 503.69,-165.26 496.85,-163.76"/>
</g>
<!-- Node11&#45;&gt;Node16 -->
<g id="edge28" class="edge">
<title>Node11&#45;&gt;Node16</title>
<path fill="none" stroke="midnightblue" d="M509.72,-166.4C521.04,-152.26 537.82,-132.17 554,-116 567.41,-102.59 584.23,-88.67 595.5,-79.7"/>
<polygon fill="midnightblue" stroke="midnightblue" points="506.89,-164.33 503.43,-174.35 512.38,-168.68 506.89,-164.33"/>
</g>
<!-- Node11&#45;&gt;Node18 -->
<g id="edge26" class="edge">
<title>Node11&#45;&gt;Node18</title>
<path fill="none" stroke="midnightblue" d="M522.44,-169.05C540.05,-159.08 562.68,-146.28 577.95,-137.64"/>
<polygon fill="midnightblue" stroke="midnightblue" points="520.23,-166.28 513.24,-174.25 523.67,-172.37 520.23,-166.28"/>
</g>
<!-- Node12&#45;&gt;Node4 -->
<g id="edge17" class="edge">
<title>Node12&#45;&gt;Node4</title>
<path fill="none" stroke="midnightblue" d="M339.15,-112.38C315.32,-102.2 283.34,-88.53 262.23,-79.5"/>
<polygon fill="midnightblue" stroke="midnightblue" points="337.91,-115.66 348.48,-116.37 340.66,-109.22 337.91,-115.66"/>
</g>
<!-- Node12&#45;&gt;Node5 -->
<g id="edge18" class="edge">
<title>Node12&#45;&gt;Node5</title>
<path fill="none" stroke="midnightblue" d="M410.28,-116.14C458.53,-108.17 638.92,-82.97 706.4,-73.56"/>
<polygon fill="midnightblue" stroke="midnightblue" points="409.61,-112.71 400.38,-117.91 410.84,-119.6 409.61,-112.71"/>
</g>
<!-- Node12&#45;&gt;Node6 -->
<g id="edge19" class="edge">
<title>Node12&#45;&gt;Node6</title>
<path fill="none" stroke="midnightblue" d="M332.05,-115.78C296.97,-106.53 243.99,-92.5 198,-80 195.12,-79.22 192.11,-78.39 189.12,-77.57"/>
<polygon fill="midnightblue" stroke="midnightblue" points="331.33,-119.21 341.89,-118.37 333.11,-112.44 331.33,-119.21"/>
</g>
<!-- Node12&#45;&gt;Node8 -->
<g id="edge20" class="edge">
<title>Node12&#45;&gt;Node8</title>
<path fill="none" stroke="midnightblue" d="M331.78,-119.38C283.28,-111.02 198.28,-95.81 126,-80 122.92,-79.33 119.72,-78.59 116.53,-77.83"/>
<polygon fill="midnightblue" stroke="midnightblue" points="331.4,-122.86 341.85,-121.1 332.58,-115.96 331.4,-122.86"/>
</g>
<!-- Node12&#45;&gt;Node10 -->
<g id="edge21" class="edge">
<title>Node12&#45;&gt;Node10</title>
<path fill="none" stroke="midnightblue" d="M354.38,-109.08C344.91,-99.44 333.4,-87.72 325.47,-79.64"/>
<polygon fill="midnightblue" stroke="midnightblue" points="351.92,-111.56 361.42,-116.25 356.91,-106.66 351.92,-111.56"/>
</g>
<!-- Node13 -->
<g id="node13" class="node">
<title>Node13</title>
<g id="a_node13"><a xlink:href="error_8c.html" target="_top" xlink:title=" ">
<polygon fill="white" stroke="black" points="360,-58.5 360,-79.5 410,-79.5 410,-58.5 360,-58.5"/>
<text text-anchor="middle" x="385" y="-65.9" font-family="DejaVuSans" font-size="12.00">error.c</text>
</a>
</g>
</g>
<!-- Node12&#45;&gt;Node13 -->
<g id="edge16" class="edge">
<title>Node12&#45;&gt;Node13</title>
<path fill="none" stroke="midnightblue" d="M375.89,-106.45C378.15,-97.38 380.75,-87 382.59,-79.64"/>
<polygon fill="midnightblue" stroke="midnightblue" points="372.47,-105.7 373.44,-116.25 379.26,-107.39 372.47,-105.7"/>
</g>
<!-- Node14 -->
<g id="node14" class="node">
<title>Node14</title>
<g id="a_node14"><a xlink:href="print_8c.html" target="_top" xlink:title=" ">
<polygon fill="white" stroke="black" points="428.5,-58.5 428.5,-79.5 477.5,-79.5 477.5,-58.5 428.5,-58.5"/>
<text text-anchor="middle" x="453" y="-65.9" font-family="DejaVuSans" font-size="12.00">print.c</text>
</a>
</g>
</g>
<!-- Node12&#45;&gt;Node14 -->
<g id="edge22" class="edge">
<title>Node12&#45;&gt;Node14</title>
<path fill="none" stroke="midnightblue" d="M393.71,-110.49C408.18,-100.61 426.47,-88.12 438.88,-79.64"/>
<polygon fill="midnightblue" stroke="midnightblue" points="391.57,-107.72 385.28,-116.25 395.52,-113.5 391.57,-107.72"/>
</g>
<!-- Node12&#45;&gt;Node15 -->
<g id="edge23" class="edge">
<title>Node12&#45;&gt;Node15</title>
<path fill="none" stroke="midnightblue" d="M406.39,-112.79C433.78,-102.56 471.05,-88.65 495.55,-79.5"/>
<polygon fill="midnightblue" stroke="midnightblue" points="404.93,-109.6 396.79,-116.37 407.38,-116.15 404.93,-109.6"/>
</g>
<!-- Node12&#45;&gt;Node16 -->
<g id="edge24" class="edge">
<title>Node12&#45;&gt;Node16</title>
<path fill="none" stroke="midnightblue" d="M409.9,-115.83C469,-101.3 526.58,-88.16 564.82,-79.59"/>
<polygon fill="midnightblue" stroke="midnightblue" points="408.89,-112.47 400.02,-118.27 410.57,-119.27 408.89,-112.47"/>
</g>
<!-- Node17 -->
<g id="node17" class="node">
<title>Node17</title>
<g id="a_node17"><a xlink:href="tex_8c.html" target="_top" xlink:title=" ">
<polygon fill="white" stroke="black" points="587.5,-0.5 587.5,-21.5 628.5,-21.5 628.5,-0.5 587.5,-0.5"/>
<text text-anchor="middle" x="608" y="-7.9" font-family="DejaVuSans" font-size="12.00">tex.c</text>
</a>
</g>
</g>
<!-- Node16&#45;&gt;Node17 -->
<g id="edge25" class="edge">
<title>Node16&#45;&gt;Node17</title>
<path fill="none" stroke="midnightblue" d="M608,-48.16C608,-39.16 608,-28.92 608,-21.64"/>
<polygon fill="midnightblue" stroke="midnightblue" points="604.5,-48.25 608,-58.25 611.5,-48.25 604.5,-48.25"/>
</g>
<!-- Node19&#45;&gt;Node4 -->
<g id="edge32" class="edge">
<title>Node19&#45;&gt;Node4</title>
<path fill="none" stroke="midnightblue" d="M407.93,-115.73C355.39,-100.91 304.86,-87.28 272.77,-78.71"/>
<polygon fill="midnightblue" stroke="midnightblue" points="407.19,-119.16 417.77,-118.52 409.1,-112.43 407.19,-119.16"/>
</g>
<!-- Node19&#45;&gt;Node5 -->
<g id="edge33" class="edge">
<title>Node19&#45;&gt;Node5</title>
<path fill="none" stroke="midnightblue" d="M478.09,-119.2C536.99,-107.79 654.39,-85.04 706.3,-74.98"/>
<polygon fill="midnightblue" stroke="midnightblue" points="477.29,-115.79 468.14,-121.13 478.62,-122.66 477.29,-115.79"/>
</g>
<!-- Node19&#45;&gt;Node10 -->
<g id="edge34" class="edge">
<title>Node19&#45;&gt;Node10</title>
<path fill="none" stroke="midnightblue" d="M411.81,-112.25C388.75,-102.08 357.93,-88.49 337.55,-79.5"/>
<polygon fill="midnightblue" stroke="midnightblue" points="410.61,-115.54 421.17,-116.37 413.43,-109.14 410.61,-115.54"/>
</g>
<!-- Node19&#45;&gt;Node13 -->
<g id="edge31" class="edge">
<title>Node19&#45;&gt;Node13</title>
<path fill="none" stroke="midnightblue" d="M425.47,-109.08C415.49,-99.44 403.35,-87.72 394.99,-79.64"/>
<polygon fill="midnightblue" stroke="midnightblue" points="423.27,-111.82 432.9,-116.25 428.13,-106.78 423.27,-111.82"/>
</g>
<!-- Node19&#45;&gt;Node14 -->
<g id="edge35" class="edge">
<title>Node19&#45;&gt;Node14</title>
<path fill="none" stroke="midnightblue" d="M446.54,-106.16C448.15,-97.16 449.98,-86.92 451.28,-79.64"/>
<polygon fill="midnightblue" stroke="midnightblue" points="443.05,-105.79 444.74,-116.25 449.95,-107.02 443.05,-105.79"/>
</g>
<!-- Node19&#45;&gt;Node16 -->
<g id="edge36" class="edge">
<title>Node19&#45;&gt;Node16</title>
<path fill="none" stroke="midnightblue" d="M477.82,-114.18C508.21,-103.87 551.74,-89.1 579.94,-79.52"/>
<polygon fill="midnightblue" stroke="midnightblue" points="476.4,-110.97 468.06,-117.49 478.65,-117.6 476.4,-110.97"/>
</g>
</g>
</svg>
