<?xml version="1.0" encoding="UTF-8" standalone="no"?>
<!DOCTYPE svg PUBLIC "-//W3C//DTD SVG 1.1//EN"
 "http://www.w3.org/Graphics/SVG/1.1/DTD/svg11.dtd">
<!-- Generated by graphviz version 2.44.0 ()
 -->
<!-- Title: tex_types.h Pages: 1 -->
<svg width="1208pt" height="378pt"
 viewBox="0.00 0.00 1208.00 378.00" xmlns="http://www.w3.org/2000/svg" xmlns:xlink="http://www.w3.org/1999/xlink">
<g id="graph0" class="graph" transform="scale(1 1) rotate(0) translate(4 374)">
<title>tex_types.h</title>
<polygon fill="white" stroke="transparent" points="-4,4 -4,-374 1204,-374 1204,4 -4,4"/>
<!-- Node1 -->
<g id="node1" class="node">
<title>Node1</title>
<g id="a_node1"><a xlink:title=" ">
<polygon fill="#bfbfbf" stroke="black" points="238.5,-348.5 238.5,-369.5 315.5,-369.5 315.5,-348.5 238.5,-348.5"/>
<text text-anchor="middle" x="277" y="-355.9" font-family="DejaVuSans" font-size="12.00">tex_types.h</text>
</a>
</g>
</g>
<!-- Node2 -->
<g id="node2" class="node">
<title>Node2</title>
<g id="a_node2"><a xlink:href="error_8c.html" target="_top" xlink:title=" ">
<polygon fill="white" stroke="black" points="537,-58.5 537,-79.5 587,-79.5 587,-58.5 537,-58.5"/>
<text text-anchor="middle" x="562" y="-65.9" font-family="DejaVuSans" font-size="12.00">error.c</text>
</a>
</g>
</g>
<!-- Node1&#45;&gt;Node2 -->
<g id="edge1" class="edge">
<title>Node1&#45;&gt;Node2</title>
<path fill="none" stroke="midnightblue" d="M252.66,-342.69C191.96,-302.72 43.66,-193.03 114,-116 143.79,-83.38 466.25,-86.18 510,-80 518.83,-78.75 528.43,-77.02 536.96,-75.34"/>
<polygon fill="midnightblue" stroke="midnightblue" points="250.98,-345.77 261.27,-348.28 254.79,-339.9 250.98,-345.77"/>
</g>
<!-- Node3 -->
<g id="node3" class="node">
<title>Node3</title>
<g id="a_node3"><a xlink:href="print_8h.html" target="_top" xlink:title=" ">
<polygon fill="white" stroke="black" points="639,-116.5 639,-137.5 689,-137.5 689,-116.5 639,-116.5"/>
<text text-anchor="middle" x="664" y="-123.9" font-family="DejaVuSans" font-size="12.00">print.h</text>
</a>
</g>
</g>
<!-- Node1&#45;&gt;Node3 -->
<g id="edge2" class="edge">
<title>Node1&#45;&gt;Node3</title>
<path fill="none" stroke="midnightblue" d="M302.14,-343.06C375.42,-299.51 587.44,-173.5 647.79,-137.63"/>
<polygon fill="midnightblue" stroke="midnightblue" points="299.94,-340.29 293.14,-348.41 303.52,-346.31 299.94,-340.29"/>
</g>
<!-- Node10 -->
<g id="node10" class="node">
<title>Node10</title>
<g id="a_node10"><a xlink:href="str_8h.html" target="_top" xlink:title=" ">
<polygon fill="white" stroke="black" points="391.5,-174.5 391.5,-195.5 430.5,-195.5 430.5,-174.5 391.5,-174.5"/>
<text text-anchor="middle" x="411" y="-181.9" font-family="DejaVuSans" font-size="12.00">str.h</text>
</a>
</g>
</g>
<!-- Node1&#45;&gt;Node10 -->
<g id="edge10" class="edge">
<title>Node1&#45;&gt;Node10</title>
<path fill="none" stroke="midnightblue" d="M275.35,-338.04C274.21,-310.99 276.21,-262.57 301,-232 323.69,-204.03 366.35,-192.83 391.36,-188.53"/>
<polygon fill="midnightblue" stroke="midnightblue" points="271.87,-338.44 275.97,-348.21 278.85,-338.01 271.87,-338.44"/>
</g>
<!-- Node21 -->
<g id="node21" class="node">
<title>Node21</title>
<g id="a_node21"><a xlink:href="tex_8h.html" target="_top" xlink:title=" ">
<polygon fill="white" stroke="black" points="643,-290.5 643,-311.5 685,-311.5 685,-290.5 643,-290.5"/>
<text text-anchor="middle" x="664" y="-297.9" font-family="DejaVuSans" font-size="12.00">tex.h</text>
</a>
</g>
</g>
<!-- Node1&#45;&gt;Node21 -->
<g id="edge40" class="edge">
<title>Node1&#45;&gt;Node21</title>
<path fill="none" stroke="midnightblue" d="M325.44,-350.99C410.42,-338.69 583.06,-313.71 642.96,-305.04"/>
<polygon fill="midnightblue" stroke="midnightblue" points="324.92,-347.53 315.52,-352.43 325.92,-354.46 324.92,-347.53"/>
</g>
<!-- Node24 -->
<g id="node24" class="node">
<title>Node24</title>
<g id="a_node24"><a xlink:href="texmath_8h.html" target="_top" xlink:title=" ">
<polygon fill="white" stroke="black" points="351,-116.5 351,-137.5 419,-137.5 419,-116.5 351,-116.5"/>
<text text-anchor="middle" x="385" y="-123.9" font-family="DejaVuSans" font-size="12.00">texmath.h</text>
</a>
</g>
</g>
<!-- Node1&#45;&gt;Node24 -->
<g id="edge64" class="edge">
<title>Node1&#45;&gt;Node24</title>
<path fill="none" stroke="midnightblue" d="M273.45,-338.33C269.77,-312.31 266.83,-265.81 285,-232 307.17,-190.74 350.31,-154.27 371.95,-137.6"/>
<polygon fill="midnightblue" stroke="midnightblue" points="270.03,-339.1 275.06,-348.43 276.94,-338 270.03,-339.1"/>
</g>
<!-- Node3&#45;&gt;Node2 -->
<g id="edge3" class="edge">
<title>Node3&#45;&gt;Node2</title>
<path fill="none" stroke="midnightblue" d="M637.27,-111.32C619.05,-101.32 595.44,-88.36 579.56,-79.64"/>
<polygon fill="midnightblue" stroke="midnightblue" points="635.78,-114.5 646.23,-116.25 639.15,-108.36 635.78,-114.5"/>
</g>
<!-- Node4 -->
<g id="node4" class="node">
<title>Node4</title>
<g id="a_node4"><a xlink:href="expand_8c.html" target="_top" xlink:title=" ">
<polygon fill="white" stroke="black" points="931.5,-58.5 931.5,-79.5 996.5,-79.5 996.5,-58.5 931.5,-58.5"/>
<text text-anchor="middle" x="964" y="-65.9" font-family="DejaVuSans" font-size="12.00">expand.c</text>
</a>
</g>
</g>
<!-- Node3&#45;&gt;Node4 -->
<g id="edge4" class="edge">
<title>Node3&#45;&gt;Node4</title>
<path fill="none" stroke="midnightblue" d="M699.06,-120.5C748.98,-112.5 843.31,-96.78 923,-80 925.72,-79.43 928.54,-78.8 931.37,-78.16"/>
<polygon fill="midnightblue" stroke="midnightblue" points="698.43,-117.05 689.1,-122.08 699.53,-123.97 698.43,-117.05"/>
</g>
<!-- Node5 -->
<g id="node5" class="node">
<title>Node5</title>
<g id="a_node5"><a xlink:href="fonts_8c.html" target="_top" xlink:title=" ">
<polygon fill="white" stroke="black" points="359.5,-58.5 359.5,-79.5 410.5,-79.5 410.5,-58.5 359.5,-58.5"/>
<text text-anchor="middle" x="385" y="-65.9" font-family="DejaVuSans" font-size="12.00">fonts.c</text>
</a>
</g>
</g>
<!-- Node3&#45;&gt;Node5 -->
<g id="edge5" class="edge">
<title>Node3&#45;&gt;Node5</title>
<path fill="none" stroke="midnightblue" d="M628.9,-115.95C537.73,-95.15 511.76,-98.89 424,-80 419.63,-79.06 415,-77.96 410.53,-76.85"/>
<polygon fill="midnightblue" stroke="midnightblue" points="628.3,-119.4 638.83,-118.25 629.88,-112.58 628.3,-119.4"/>
</g>
<!-- Node6 -->
<g id="node6" class="node">
<title>Node6</title>
<g id="a_node6"><a xlink:href="lexer_8c.html" target="_top" xlink:title=" ">
<polygon fill="white" stroke="black" points="726.5,-58.5 726.5,-79.5 777.5,-79.5 777.5,-58.5 726.5,-58.5"/>
<text text-anchor="middle" x="752" y="-65.9" font-family="DejaVuSans" font-size="12.00">lexer.c</text>
</a>
</g>
</g>
<!-- Node3&#45;&gt;Node6 -->
<g id="edge6" class="edge">
<title>Node3&#45;&gt;Node6</title>
<path fill="none" stroke="midnightblue" d="M687.93,-110.77C703.53,-100.85 723.4,-88.2 736.85,-79.64"/>
<polygon fill="midnightblue" stroke="midnightblue" points="685.89,-107.92 679.33,-116.25 689.64,-113.83 685.89,-107.92"/>
</g>
<!-- Node7 -->
<g id="node7" class="node">
<title>Node7</title>
<g id="a_node7"><a xlink:href="print_8c.html" target="_top" xlink:title=" ">
<polygon fill="white" stroke="black" points="795.5,-58.5 795.5,-79.5 844.5,-79.5 844.5,-58.5 795.5,-58.5"/>
<text text-anchor="middle" x="820" y="-65.9" font-family="DejaVuSans" font-size="12.00">print.c</text>
</a>
</g>
</g>
<!-- Node3&#45;&gt;Node7 -->
<g id="edge7" class="edge">
<title>Node3&#45;&gt;Node7</title>
<path fill="none" stroke="midnightblue" d="M698.5,-113.62C727.8,-103.1 769.15,-88.25 795.26,-78.88"/>
<polygon fill="midnightblue" stroke="midnightblue" points="697.29,-110.33 689.06,-117 699.66,-116.92 697.29,-110.33"/>
</g>
<!-- Node8 -->
<g id="node8" class="node">
<title>Node8</title>
<g id="a_node8"><a xlink:href="tex__header_8h.html" target="_top" xlink:title=" ">
<polygon fill="white" stroke="black" points="622,-58.5 622,-79.5 708,-79.5 708,-58.5 622,-58.5"/>
<text text-anchor="middle" x="665" y="-65.9" font-family="DejaVuSans" font-size="12.00">tex_header.h</text>
</a>
</g>
</g>
<!-- Node3&#45;&gt;Node8 -->
<g id="edge8" class="edge">
<title>Node3&#45;&gt;Node8</title>
<path fill="none" stroke="midnightblue" d="M664.35,-106.16C664.52,-97.16 664.7,-86.92 664.83,-79.64"/>
<polygon fill="midnightblue" stroke="midnightblue" points="660.85,-106.18 664.17,-116.25 667.85,-106.31 660.85,-106.18"/>
</g>
<!-- Node9 -->
<g id="node9" class="node">
<title>Node9</title>
<g id="a_node9"><a xlink:href="tex_8c.html" target="_top" xlink:title=" ">
<polygon fill="white" stroke="black" points="644.5,-0.5 644.5,-21.5 685.5,-21.5 685.5,-0.5 644.5,-0.5"/>
<text text-anchor="middle" x="665" y="-7.9" font-family="DejaVuSans" font-size="12.00">tex.c</text>
</a>
</g>
</g>
<!-- Node8&#45;&gt;Node9 -->
<g id="edge9" class="edge">
<title>Node8&#45;&gt;Node9</title>
<path fill="none" stroke="midnightblue" d="M665,-48.16C665,-39.16 665,-28.92 665,-21.64"/>
<polygon fill="midnightblue" stroke="midnightblue" points="661.5,-48.25 665,-58.25 668.5,-48.25 661.5,-48.25"/>
</g>
<!-- Node10&#45;&gt;Node3 -->
<g id="edge25" class="edge">
<title>Node10&#45;&gt;Node3</title>
<path fill="none" stroke="midnightblue" d="M440.65,-178.54C482.91,-170.59 562.79,-154.91 630,-138 632.86,-137.28 635.85,-136.48 638.81,-135.65"/>
<polygon fill="midnightblue" stroke="midnightblue" points="439.94,-175.12 430.75,-180.39 441.22,-182 439.94,-175.12"/>
</g>
<!-- Node10&#45;&gt;Node5 -->
<g id="edge12" class="edge">
<title>Node10&#45;&gt;Node5</title>
<path fill="none" stroke="midnightblue" d="M381.85,-172.6C367.06,-165.15 350.47,-153.83 342,-138 330.47,-116.45 354.8,-92.59 371.35,-79.64"/>
<polygon fill="midnightblue" stroke="midnightblue" points="380.66,-175.91 391.2,-176.95 383.61,-169.56 380.66,-175.91"/>
</g>
<!-- Node10&#45;&gt;Node8 -->
<g id="edge28" class="edge">
<title>Node10&#45;&gt;Node8</title>
<path fill="none" stroke="midnightblue" d="M439.95,-171.61C460.32,-162.7 488.09,-150.16 512,-138 529.74,-128.98 533.07,-124.63 551,-116 580.23,-101.93 614.94,-88.35 638.32,-79.64"/>
<polygon fill="midnightblue" stroke="midnightblue" points="438.37,-168.48 430.6,-175.67 441.17,-174.9 438.37,-168.48"/>
</g>
<!-- Node11 -->
<g id="node11" class="node">
<title>Node11</title>
<g id="a_node11"><a xlink:href="dviout_8c.html" target="_top" xlink:title=" ">
<polygon fill="white" stroke="black" points="123,-116.5 123,-137.5 181,-137.5 181,-116.5 123,-116.5"/>
<text text-anchor="middle" x="152" y="-123.9" font-family="DejaVuSans" font-size="12.00">dviout.c</text>
</a>
</g>
</g>
<!-- Node10&#45;&gt;Node11 -->
<g id="edge11" class="edge">
<title>Node10&#45;&gt;Node11</title>
<path fill="none" stroke="midnightblue" d="M381.3,-177.86C339.62,-169.2 261.44,-152.8 195,-138 190.51,-137 185.76,-135.92 181.13,-134.85"/>
<polygon fill="midnightblue" stroke="midnightblue" points="380.81,-181.33 391.32,-179.94 382.24,-174.48 380.81,-181.33"/>
</g>
<!-- Node12 -->
<g id="node12" class="node">
<title>Node12</title>
<g id="a_node12"><a xlink:href="funcs_8c.html" target="_top" xlink:title=" ">
<polygon fill="white" stroke="black" points="1146,-58.5 1146,-79.5 1200,-79.5 1200,-58.5 1146,-58.5"/>
<text text-anchor="middle" x="1173" y="-65.9" font-family="DejaVuSans" font-size="12.00">funcs.c</text>
</a>
</g>
</g>
<!-- Node10&#45;&gt;Node12 -->
<g id="edge13" class="edge">
<title>Node10&#45;&gt;Node12</title>
<path fill="none" stroke="midnightblue" d="M441.09,-183.2C520.8,-180.67 743.77,-170.95 926,-138 1007.41,-123.28 1100.91,-94.05 1145.96,-79.17"/>
<polygon fill="midnightblue" stroke="midnightblue" points="440.71,-179.71 430.82,-183.51 440.92,-186.7 440.71,-179.71"/>
</g>
<!-- Node13 -->
<g id="node13" class="node">
<title>Node13</title>
<g id="a_node13"><a xlink:href="global_8h.html" target="_top" xlink:title=" ">
<polygon fill="white" stroke="black" points="859,-116.5 859,-137.5 917,-137.5 917,-116.5 859,-116.5"/>
<text text-anchor="middle" x="888" y="-123.9" font-family="DejaVuSans" font-size="12.00">global.h</text>
</a>
</g>
</g>
<!-- Node10&#45;&gt;Node13 -->
<g id="edge14" class="edge">
<title>Node10&#45;&gt;Node13</title>
<path fill="none" stroke="midnightblue" d="M440.67,-180.52C526.35,-170.46 773.47,-141.45 858.7,-131.44"/>
<polygon fill="midnightblue" stroke="midnightblue" points="440.11,-177.06 430.59,-181.7 440.93,-184.01 440.11,-177.06"/>
</g>
<!-- Node16 -->
<g id="node16" class="node">
<title>Node16</title>
<g id="a_node16"><a xlink:href="inipool_8c.html" target="_top" xlink:title=" ">
<polygon fill="white" stroke="black" points="559.5,-116.5 559.5,-137.5 620.5,-137.5 620.5,-116.5 559.5,-116.5"/>
<text text-anchor="middle" x="590" y="-123.9" font-family="DejaVuSans" font-size="12.00">inipool.c</text>
</a>
</g>
</g>
<!-- Node10&#45;&gt;Node16 -->
<g id="edge24" class="edge">
<title>Node10&#45;&gt;Node16</title>
<path fill="none" stroke="midnightblue" d="M440.78,-174.68C473.71,-164.38 526.47,-147.88 559.63,-137.5"/>
<polygon fill="midnightblue" stroke="midnightblue" points="439.34,-171.47 430.84,-177.79 441.43,-178.15 439.34,-171.47"/>
</g>
<!-- Node17 -->
<g id="node17" class="node">
<title>Node17</title>
<g id="a_node17"><a xlink:href="printout_8c.html" target="_top" xlink:title=" ">
<polygon fill="white" stroke="black" points="252.5,-58.5 252.5,-79.5 317.5,-79.5 317.5,-58.5 252.5,-58.5"/>
<text text-anchor="middle" x="285" y="-65.9" font-family="DejaVuSans" font-size="12.00">printout.c</text>
</a>
</g>
</g>
<!-- Node10&#45;&gt;Node17 -->
<g id="edge26" class="edge">
<title>Node10&#45;&gt;Node17</title>
<path fill="none" stroke="midnightblue" d="M381.32,-183.75C348.24,-181.68 296.11,-172.69 271,-138 258.28,-120.43 270.37,-93.95 278.67,-79.77"/>
<polygon fill="midnightblue" stroke="midnightblue" points="381.18,-187.25 391.33,-184.2 381.5,-180.25 381.18,-187.25"/>
</g>
<!-- Node18 -->
<g id="node18" class="node">
<title>Node18</title>
<g id="a_node18"><a xlink:href="str_8c.html" target="_top" xlink:title=" ">
<polygon fill="white" stroke="black" points="0,-58.5 0,-79.5 38,-79.5 38,-58.5 0,-58.5"/>
<text text-anchor="middle" x="19" y="-65.9" font-family="DejaVuSans" font-size="12.00">str.c</text>
</a>
</g>
</g>
<!-- Node10&#45;&gt;Node18 -->
<g id="edge27" class="edge">
<title>Node10&#45;&gt;Node18</title>
<path fill="none" stroke="midnightblue" d="M381.34,-183.9C326.5,-182.75 206.39,-175.7 114,-138 79.26,-123.82 45.12,-94.62 28.85,-79.52"/>
<polygon fill="midnightblue" stroke="midnightblue" points="381.36,-187.4 391.41,-184.06 381.47,-180.4 381.36,-187.4"/>
</g>
<!-- Node19 -->
<g id="node19" class="node">
<title>Node19</title>
<g id="a_node19"><a xlink:href="texfunc_8h.html" target="_top" xlink:title=" ">
<polygon fill="white" stroke="black" points="437.5,-116.5 437.5,-137.5 502.5,-137.5 502.5,-116.5 437.5,-116.5"/>
<text text-anchor="middle" x="470" y="-123.9" font-family="DejaVuSans" font-size="12.00">texfunc.h</text>
</a>
</g>
</g>
<!-- Node10&#45;&gt;Node19 -->
<g id="edge29" class="edge">
<title>Node10&#45;&gt;Node19</title>
<path fill="none" stroke="midnightblue" d="M428.53,-167.36C438.74,-157.67 451.25,-145.8 459.84,-137.64"/>
<polygon fill="midnightblue" stroke="midnightblue" points="426.12,-164.82 421.28,-174.25 430.94,-169.9 426.12,-164.82"/>
</g>
<!-- Node13&#45;&gt;Node2 -->
<g id="edge15" class="edge">
<title>Node13&#45;&gt;Node2</title>
<path fill="none" stroke="midnightblue" d="M848.58,-119.76C795.13,-111.22 696.72,-95.21 613,-80 604.57,-78.47 595.37,-76.7 587.14,-75.07"/>
<polygon fill="midnightblue" stroke="midnightblue" points="848.22,-123.25 858.65,-121.37 849.33,-116.33 848.22,-123.25"/>
</g>
<!-- Node13&#45;&gt;Node4 -->
<g id="edge16" class="edge">
<title>Node13&#45;&gt;Node4</title>
<path fill="none" stroke="midnightblue" d="M909.43,-110.21C922.78,-100.37 939.52,-88.04 950.91,-79.64"/>
<polygon fill="midnightblue" stroke="midnightblue" points="907.21,-107.5 901.24,-116.25 911.36,-113.13 907.21,-107.5"/>
</g>
<!-- Node13&#45;&gt;Node5 -->
<g id="edge17" class="edge">
<title>Node13&#45;&gt;Node5</title>
<path fill="none" stroke="midnightblue" d="M848.58,-124.12C768.21,-119.84 579.82,-107.54 424,-80 419.73,-79.25 415.24,-78.27 410.89,-77.23"/>
<polygon fill="midnightblue" stroke="midnightblue" points="848.58,-127.62 858.74,-124.65 848.94,-120.63 848.58,-127.62"/>
</g>
<!-- Node13&#45;&gt;Node6 -->
<g id="edge20" class="edge">
<title>Node13&#45;&gt;Node6</title>
<path fill="none" stroke="midnightblue" d="M855.26,-112.52C830.49,-102.32 797.09,-88.57 775.07,-79.5"/>
<polygon fill="midnightblue" stroke="midnightblue" points="854.04,-115.8 864.62,-116.37 856.71,-109.33 854.04,-115.8"/>
</g>
<!-- Node13&#45;&gt;Node7 -->
<g id="edge21" class="edge">
<title>Node13&#45;&gt;Node7</title>
<path fill="none" stroke="midnightblue" d="M868.14,-109.65C856.31,-99.91 841.71,-87.88 831.71,-79.64"/>
<polygon fill="midnightblue" stroke="midnightblue" points="866.21,-112.59 876.16,-116.25 870.66,-107.19 866.21,-112.59"/>
</g>
<!-- Node13&#45;&gt;Node8 -->
<g id="edge23" class="edge">
<title>Node13&#45;&gt;Node8</title>
<path fill="none" stroke="midnightblue" d="M848.94,-116.19C807.91,-105.89 743.8,-89.79 703.12,-79.57"/>
<polygon fill="midnightblue" stroke="midnightblue" points="848.3,-119.64 858.85,-118.68 850,-112.85 848.3,-119.64"/>
</g>
<!-- Node13&#45;&gt;Node12 -->
<g id="edge18" class="edge">
<title>Node13&#45;&gt;Node12</title>
<path fill="none" stroke="midnightblue" d="M927.16,-118.31C985.81,-106.78 1095.02,-85.32 1145.77,-75.35"/>
<polygon fill="midnightblue" stroke="midnightblue" points="926.3,-114.91 917.16,-120.27 927.65,-121.78 926.3,-114.91"/>
</g>
<!-- Node14 -->
<g id="node14" class="node">
<title>Node14</title>
<g id="a_node14"><a xlink:href="inputln_8c.html" target="_top" xlink:title=" ">
<polygon fill="white" stroke="black" points="1040.5,-58.5 1040.5,-79.5 1101.5,-79.5 1101.5,-58.5 1040.5,-58.5"/>
<text text-anchor="middle" x="1071" y="-65.9" font-family="DejaVuSans" font-size="12.00">inputln.c</text>
</a>
</g>
</g>
<!-- Node13&#45;&gt;Node14 -->
<g id="edge19" class="edge">
<title>Node13&#45;&gt;Node14</title>
<path fill="none" stroke="midnightblue" d="M926.98,-114.07C960.88,-103.7 1009.3,-88.88 1040.45,-79.35"/>
<polygon fill="midnightblue" stroke="midnightblue" points="925.94,-110.73 917.4,-117 927.99,-117.42 925.94,-110.73"/>
</g>
<!-- Node15 -->
<g id="node15" class="node">
<title>Node15</title>
<g id="a_node15"><a xlink:href="scan_8c.html" target="_top" xlink:title=" ">
<polygon fill="white" stroke="black" points="862.5,-58.5 862.5,-79.5 913.5,-79.5 913.5,-58.5 862.5,-58.5"/>
<text text-anchor="middle" x="888" y="-65.9" font-family="DejaVuSans" font-size="12.00">scan.c</text>
</a>
</g>
</g>
<!-- Node13&#45;&gt;Node15 -->
<g id="edge22" class="edge">
<title>Node13&#45;&gt;Node15</title>
<path fill="none" stroke="midnightblue" d="M888,-106.16C888,-97.16 888,-86.92 888,-79.64"/>
<polygon fill="midnightblue" stroke="midnightblue" points="884.5,-106.25 888,-116.25 891.5,-106.25 884.5,-106.25"/>
</g>
<!-- Node19&#45;&gt;Node2 -->
<g id="edge30" class="edge">
<title>Node19&#45;&gt;Node2</title>
<path fill="none" stroke="midnightblue" d="M495.02,-110.77C511.33,-100.85 532.1,-88.2 546.16,-79.64"/>
<polygon fill="midnightblue" stroke="midnightblue" points="492.75,-108.06 486.03,-116.25 496.39,-114.04 492.75,-108.06"/>
</g>
<!-- Node19&#45;&gt;Node4 -->
<g id="edge31" class="edge">
<title>Node19&#45;&gt;Node4</title>
<path fill="none" stroke="midnightblue" d="M512.74,-120.51C525.08,-118.98 538.57,-117.37 551,-116 716.11,-97.82 759.23,-107.75 923,-80 925.75,-79.53 928.58,-78.99 931.41,-78.39"/>
<polygon fill="midnightblue" stroke="midnightblue" points="512.18,-117.05 502.69,-121.77 513.05,-124 512.18,-117.05"/>
</g>
<!-- Node19&#45;&gt;Node5 -->
<g id="edge32" class="edge">
<title>Node19&#45;&gt;Node5</title>
<path fill="none" stroke="midnightblue" d="M446.46,-110.49C431.46,-100.61 412.5,-88.12 399.64,-79.64"/>
<polygon fill="midnightblue" stroke="midnightblue" points="444.92,-113.67 455.19,-116.25 448.77,-107.82 444.92,-113.67"/>
</g>
<!-- Node19&#45;&gt;Node6 -->
<g id="edge34" class="edge">
<title>Node19&#45;&gt;Node6</title>
<path fill="none" stroke="midnightblue" d="M512.58,-119.32C562.01,-111.28 645.85,-96.75 717,-80 720.08,-79.28 723.29,-78.45 726.46,-77.6"/>
<polygon fill="midnightblue" stroke="midnightblue" points="511.89,-115.89 502.57,-120.94 513,-122.8 511.89,-115.89"/>
</g>
<!-- Node19&#45;&gt;Node8 -->
<g id="edge38" class="edge">
<title>Node19&#45;&gt;Node8</title>
<path fill="none" stroke="midnightblue" d="M512.31,-113.85C548.08,-103.58 598.62,-89.06 631.6,-79.59"/>
<polygon fill="midnightblue" stroke="midnightblue" points="511.28,-110.5 502.64,-116.63 513.22,-117.23 511.28,-110.5"/>
</g>
<!-- Node19&#45;&gt;Node14 -->
<g id="edge33" class="edge">
<title>Node19&#45;&gt;Node14</title>
<path fill="none" stroke="midnightblue" d="M512.72,-120.37C525.06,-118.84 538.55,-117.26 551,-116 752.82,-95.57 804.5,-103.44 1006,-80 1017.23,-78.69 1029.49,-76.9 1040.31,-75.2"/>
<polygon fill="midnightblue" stroke="midnightblue" points="512.16,-116.91 502.67,-121.63 513.03,-123.86 512.16,-116.91"/>
</g>
<!-- Node19&#45;&gt;Node15 -->
<g id="edge36" class="edge">
<title>Node19&#45;&gt;Node15</title>
<path fill="none" stroke="midnightblue" d="M512.76,-120.68C525.1,-119.16 538.58,-117.5 551,-116 685.63,-99.69 721.15,-107.23 854,-80 856.77,-79.43 859.65,-78.74 862.5,-78"/>
<polygon fill="midnightblue" stroke="midnightblue" points="512.2,-117.23 502.71,-121.93 513.06,-124.17 512.2,-117.23"/>
</g>
<!-- Node19&#45;&gt;Node17 -->
<g id="edge35" class="edge">
<title>Node19&#45;&gt;Node17</title>
<path fill="none" stroke="midnightblue" d="M428.56,-113.46C394.6,-103.18 347.27,-88.85 316.39,-79.5"/>
<polygon fill="midnightblue" stroke="midnightblue" points="427.61,-116.83 438.2,-116.37 429.64,-110.13 427.61,-116.83"/>
</g>
<!-- Node19&#45;&gt;Node18 -->
<g id="edge37" class="edge">
<title>Node19&#45;&gt;Node18</title>
<path fill="none" stroke="midnightblue" d="M426.85,-115.99C271.36,-89.39 95.81,-75.47 38.28,-71.33"/>
<polygon fill="midnightblue" stroke="midnightblue" points="426.61,-119.5 437.06,-117.76 427.81,-112.6 426.61,-119.5"/>
</g>
<!-- Node20 -->
<g id="node20" class="node">
<title>Node20</title>
<g id="a_node20"><a xlink:href="texmath_8c.html" target="_top" xlink:title=" ">
<polygon fill="white" stroke="black" points="433,-58.5 433,-79.5 501,-79.5 501,-58.5 433,-58.5"/>
<text text-anchor="middle" x="467" y="-65.9" font-family="DejaVuSans" font-size="12.00">texmath.c</text>
</a>
</g>
</g>
<!-- Node19&#45;&gt;Node20 -->
<g id="edge39" class="edge">
<title>Node19&#45;&gt;Node20</title>
<path fill="none" stroke="midnightblue" d="M468.94,-106.16C468.45,-97.16 467.91,-86.92 467.52,-79.64"/>
<polygon fill="midnightblue" stroke="midnightblue" points="465.45,-106.45 469.48,-116.25 472.44,-106.07 465.45,-106.45"/>
</g>
<!-- Node21&#45;&gt;Node3 -->
<g id="edge59" class="edge">
<title>Node21&#45;&gt;Node3</title>
<path fill="none" stroke="midnightblue" d="M664,-280.21C664,-243.24 664,-164.94 664,-137.63"/>
<polygon fill="midnightblue" stroke="midnightblue" points="660.5,-280.26 664,-290.26 667.5,-280.26 660.5,-280.26"/>
</g>
<!-- Node21&#45;&gt;Node4 -->
<g id="edge42" class="edge">
<title>Node21&#45;&gt;Node4</title>
<path fill="none" stroke="midnightblue" d="M695.15,-297.4C735.23,-293.03 806.09,-281.77 860,-254 924.81,-220.61 950.61,-206.35 976,-138 983.43,-118 974.73,-92.94 968.73,-79.52"/>
<polygon fill="midnightblue" stroke="midnightblue" points="694.78,-293.92 685.18,-298.41 695.48,-300.88 694.78,-293.92"/>
</g>
<!-- Node21&#45;&gt;Node5 -->
<g id="edge43" class="edge">
<title>Node21&#45;&gt;Node5</title>
<path fill="none" stroke="midnightblue" d="M632.59,-295.8C525.28,-280.75 176.34,-225.64 114,-138 108.33,-130.03 107.69,-123.47 114,-116 114,-116 291.19,-85.92 359.02,-74.41"/>
<polygon fill="midnightblue" stroke="midnightblue" points="632.39,-299.31 642.78,-297.21 633.35,-292.37 632.39,-299.31"/>
</g>
<!-- Node21&#45;&gt;Node8 -->
<g id="edge63" class="edge">
<title>Node21&#45;&gt;Node8</title>
<path fill="none" stroke="midnightblue" d="M673.53,-281.02C689.19,-247.2 716.84,-174.57 698,-116 693.43,-101.78 682.65,-88.23 674.65,-79.57"/>
<polygon fill="midnightblue" stroke="midnightblue" points="670.29,-279.68 669.12,-290.21 676.6,-282.71 670.29,-279.68"/>
</g>
<!-- Node21&#45;&gt;Node11 -->
<g id="edge41" class="edge">
<title>Node21&#45;&gt;Node11</title>
<path fill="none" stroke="midnightblue" d="M632.9,-290.07C575.9,-271.81 450.88,-231.53 346,-196 286,-175.68 215.94,-150.84 178.61,-137.53"/>
<polygon fill="midnightblue" stroke="midnightblue" points="632.15,-293.5 642.74,-293.22 634.28,-286.84 632.15,-293.5"/>
</g>
<!-- Node21&#45;&gt;Node12 -->
<g id="edge44" class="edge">
<title>Node21&#45;&gt;Node12</title>
<path fill="none" stroke="midnightblue" d="M695.49,-299.09C745.91,-296.63 847.04,-287.55 925,-254 1030.39,-208.65 1132.88,-110.54 1163.67,-79.57"/>
<polygon fill="midnightblue" stroke="midnightblue" points="695.08,-295.61 685.23,-299.53 695.38,-302.6 695.08,-295.61"/>
</g>
<!-- Node21&#45;&gt;Node14 -->
<g id="edge46" class="edge">
<title>Node21&#45;&gt;Node14</title>
<path fill="none" stroke="midnightblue" d="M695.36,-298.35C740.86,-294.95 826.95,-284.68 893,-254 979.67,-213.75 1046.31,-111.32 1065.43,-79.55"/>
<polygon fill="midnightblue" stroke="midnightblue" points="694.97,-294.87 685.23,-299.04 695.45,-301.85 694.97,-294.87"/>
</g>
<!-- Node21&#45;&gt;Node15 -->
<g id="edge61" class="edge">
<title>Node21&#45;&gt;Node15</title>
<path fill="none" stroke="midnightblue" d="M695.42,-294.97C729.45,-288.67 784.68,-275.96 828,-254 865.27,-235.11 873.55,-226.6 902,-196 928.93,-167.03 957.42,-151.99 941,-116 933.72,-100.04 917.86,-87.48 905.38,-79.54"/>
<polygon fill="midnightblue" stroke="midnightblue" points="694.39,-291.6 685.15,-296.79 695.61,-298.49 694.39,-291.6"/>
</g>
<!-- Node21&#45;&gt;Node16 -->
<g id="edge45" class="edge">
<title>Node21&#45;&gt;Node16</title>
<path fill="none" stroke="midnightblue" d="M655.69,-280.69C639.87,-243.92 605.94,-165.05 594.14,-137.63"/>
<polygon fill="midnightblue" stroke="midnightblue" points="652.64,-282.46 659.81,-290.26 659.07,-279.69 652.64,-282.46"/>
</g>
<!-- Node21&#45;&gt;Node17 -->
<g id="edge60" class="edge">
<title>Node21&#45;&gt;Node17</title>
<path fill="none" stroke="midnightblue" d="M632.26,-298.25C569.9,-294.3 427.33,-282.68 311,-254 238.78,-236.19 214.69,-239.02 154,-196 120.17,-172.02 80.59,-148.77 106,-116 123.8,-93.05 205.91,-79.56 252.49,-73.62"/>
<polygon fill="midnightblue" stroke="midnightblue" points="632.41,-301.77 642.61,-298.89 632.84,-294.78 632.41,-301.77"/>
</g>
<!-- Node21&#45;&gt;Node18 -->
<g id="edge62" class="edge">
<title>Node21&#45;&gt;Node18</title>
<path fill="none" stroke="midnightblue" d="M632.8,-298.55C544.56,-294.17 294.56,-279.76 217,-254 169.33,-238.16 157.86,-229.01 120,-196 77.52,-158.97 39.48,-102.41 25.1,-79.82"/>
<polygon fill="midnightblue" stroke="midnightblue" points="632.82,-302.05 642.98,-299.05 633.16,-295.06 632.82,-302.05"/>
</g>
<!-- Node22 -->
<g id="node22" class="node">
<title>Node22</title>
<g id="a_node22"><a xlink:href="lexer_8h.html" target="_top" xlink:title=" ">
<polygon fill="white" stroke="black" points="767,-232.5 767,-253.5 819,-253.5 819,-232.5 767,-232.5"/>
<text text-anchor="middle" x="793" y="-239.9" font-family="DejaVuSans" font-size="12.00">lexer.h</text>
</a>
</g>
</g>
<!-- Node21&#45;&gt;Node22 -->
<g id="edge47" class="edge">
<title>Node21&#45;&gt;Node22</title>
<path fill="none" stroke="midnightblue" d="M694.47,-286.77C717.87,-276.62 749.63,-262.83 770.7,-253.68"/>
<polygon fill="midnightblue" stroke="midnightblue" points="692.79,-283.69 685.01,-290.88 695.58,-290.11 692.79,-283.69"/>
</g>
<!-- Node22&#45;&gt;Node4 -->
<g id="edge48" class="edge">
<title>Node22&#45;&gt;Node4</title>
<path fill="none" stroke="midnightblue" d="M828.84,-232.6C870.39,-219.44 936.22,-190.96 960,-138 968.62,-118.8 967.19,-93.42 965.51,-79.74"/>
<polygon fill="midnightblue" stroke="midnightblue" points="827.65,-229.31 819.09,-235.55 829.67,-236.01 827.65,-229.31"/>
</g>
<!-- Node22&#45;&gt;Node5 -->
<g id="edge49" class="edge">
<title>Node22&#45;&gt;Node5</title>
<path fill="none" stroke="midnightblue" d="M756.89,-241.47C668.93,-239.62 446.05,-231.48 382,-196 346.12,-176.13 319.71,-153.64 336,-116 342.77,-100.37 357.75,-87.6 369.38,-79.52"/>
<polygon fill="midnightblue" stroke="midnightblue" points="756.87,-244.97 766.93,-241.66 757,-237.97 756.87,-244.97"/>
</g>
<!-- Node22&#45;&gt;Node6 -->
<g id="edge51" class="edge">
<title>Node22&#45;&gt;Node6</title>
<path fill="none" stroke="midnightblue" d="M790.29,-222.37C786.61,-197.39 779.29,-153.02 769,-116 765.44,-103.2 759.91,-88.92 756.13,-79.72"/>
<polygon fill="midnightblue" stroke="midnightblue" points="786.85,-222.99 791.73,-232.39 793.78,-222 786.85,-222.99"/>
</g>
<!-- Node22&#45;&gt;Node8 -->
<g id="edge58" class="edge">
<title>Node22&#45;&gt;Node8</title>
<path fill="none" stroke="midnightblue" d="M786.91,-222.61C777.92,-196.25 759.06,-148.67 731,-116 717.71,-100.53 698.11,-87.75 683.73,-79.61"/>
<polygon fill="midnightblue" stroke="midnightblue" points="783.62,-223.79 790.07,-232.2 790.27,-221.61 783.62,-223.79"/>
</g>
<!-- Node22&#45;&gt;Node14 -->
<g id="edge50" class="edge">
<title>Node22&#45;&gt;Node14</title>
<path fill="none" stroke="midnightblue" d="M828.99,-234.9C858.83,-227.97 901.6,-215.58 935,-196 991.37,-162.95 1043.86,-103.09 1063.17,-79.72"/>
<polygon fill="midnightblue" stroke="midnightblue" points="828.02,-231.53 819.02,-237.12 829.54,-238.36 828.02,-231.53"/>
</g>
<!-- Node23 -->
<g id="node23" class="node">
<title>Node23</title>
<g id="a_node23"><a xlink:href="scan_8h.html" target="_top" xlink:title=" ">
<polygon fill="white" stroke="black" points="841,-174.5 841,-195.5 893,-195.5 893,-174.5 841,-174.5"/>
<text text-anchor="middle" x="867" y="-181.9" font-family="DejaVuSans" font-size="12.00">scan.h</text>
</a>
</g>
</g>
<!-- Node22&#45;&gt;Node23 -->
<g id="edge52" class="edge">
<title>Node22&#45;&gt;Node23</title>
<path fill="none" stroke="midnightblue" d="M813.87,-226.21C826.86,-216.37 843.16,-204.04 854.26,-195.64"/>
<polygon fill="midnightblue" stroke="midnightblue" points="811.75,-223.42 805.89,-232.25 815.98,-229 811.75,-223.42"/>
</g>
<!-- Node23&#45;&gt;Node4 -->
<g id="edge53" class="edge">
<title>Node23&#45;&gt;Node4</title>
<path fill="none" stroke="midnightblue" d="M899.84,-169.88C914.2,-162.27 930.21,-151.61 941,-138 954.94,-120.42 960.65,-93.95 962.81,-79.77"/>
<polygon fill="midnightblue" stroke="midnightblue" points="898.09,-166.85 890.71,-174.45 901.22,-173.11 898.09,-166.85"/>
</g>
<!-- Node23&#45;&gt;Node8 -->
<g id="edge57" class="edge">
<title>Node23&#45;&gt;Node8</title>
<path fill="none" stroke="midnightblue" d="M846.75,-168.24C827.44,-153.63 797.19,-131.82 769,-116 743,-101.41 711.49,-88.03 690.02,-79.5"/>
<polygon fill="midnightblue" stroke="midnightblue" points="844.74,-171.11 854.81,-174.4 848.99,-165.55 844.74,-171.11"/>
</g>
<!-- Node23&#45;&gt;Node13 -->
<g id="edge54" class="edge">
<title>Node23&#45;&gt;Node13</title>
<path fill="none" stroke="midnightblue" d="M874.22,-164.75C877.65,-155.61 881.6,-145.08 884.38,-137.64"/>
<polygon fill="midnightblue" stroke="midnightblue" points="870.89,-163.65 870.66,-174.25 877.45,-166.11 870.89,-163.65"/>
</g>
<!-- Node23&#45;&gt;Node15 -->
<g id="edge56" class="edge">
<title>Node23&#45;&gt;Node15</title>
<path fill="none" stroke="midnightblue" d="M895.83,-169.19C907.45,-161.58 919.6,-151.11 926,-138 936.44,-116.61 914.57,-92.49 899.87,-79.51"/>
<polygon fill="midnightblue" stroke="midnightblue" points="893.89,-166.27 887.16,-174.45 897.52,-172.26 893.89,-166.27"/>
</g>
<!-- Node23&#45;&gt;Node17 -->
<g id="edge55" class="edge">
<title>Node23&#45;&gt;Node17</title>
<path fill="none" stroke="midnightblue" d="M830.91,-184.38C726.69,-184.91 427.31,-182.45 342,-138 316.59,-124.76 298.01,-94.86 289.75,-79.5"/>
<polygon fill="midnightblue" stroke="midnightblue" points="830.96,-187.88 840.94,-184.31 830.91,-180.88 830.96,-187.88"/>
</g>
<!-- Node24&#45;&gt;Node4 -->
<g id="edge65" class="edge">
<title>Node24&#45;&gt;Node4</title>
<path fill="none" stroke="midnightblue" d="M428.69,-116.05C428.8,-116.03 428.9,-116.02 429,-116 646.73,-83.51 705.54,-114.2 923,-80 925.75,-79.57 928.59,-79.04 931.43,-78.46"/>
<polygon fill="midnightblue" stroke="midnightblue" points="428.26,-112.57 419.01,-117.74 429.47,-119.46 428.26,-112.57"/>
</g>
<!-- Node24&#45;&gt;Node5 -->
<g id="edge66" class="edge">
<title>Node24&#45;&gt;Node5</title>
<path fill="none" stroke="midnightblue" d="M385,-106.16C385,-97.16 385,-86.92 385,-79.64"/>
<polygon fill="midnightblue" stroke="midnightblue" points="381.5,-106.25 385,-116.25 388.5,-106.25 381.5,-106.25"/>
</g>
<!-- Node24&#45;&gt;Node8 -->
<g id="edge69" class="edge">
<title>Node24&#45;&gt;Node8</title>
<path fill="none" stroke="midnightblue" d="M428.7,-116.06C428.8,-116.04 428.9,-116.02 429,-116 496.19,-101.82 574.47,-86.87 621.85,-77.99"/>
<polygon fill="midnightblue" stroke="midnightblue" points="428.12,-112.61 419.09,-118.14 429.6,-119.45 428.12,-112.61"/>
</g>
<!-- Node24&#45;&gt;Node15 -->
<g id="edge68" class="edge">
<title>Node24&#45;&gt;Node15</title>
<path fill="none" stroke="midnightblue" d="M428.69,-116.05C428.8,-116.03 428.9,-116.02 429,-116 616.32,-86.92 667.68,-114.92 854,-80 856.66,-79.5 859.41,-78.88 862.14,-78.19"/>
<polygon fill="midnightblue" stroke="midnightblue" points="428.25,-112.57 419.02,-117.78 429.48,-119.46 428.25,-112.57"/>
</g>
<!-- Node24&#45;&gt;Node17 -->
<g id="edge67" class="edge">
<title>Node24&#45;&gt;Node17</title>
<path fill="none" stroke="midnightblue" d="M358.79,-111.32C340.93,-101.32 317.78,-88.36 302.22,-79.64"/>
<polygon fill="midnightblue" stroke="midnightblue" points="357.15,-114.41 367.58,-116.25 360.57,-108.31 357.15,-114.41"/>
</g>
<!-- Node24&#45;&gt;Node20 -->
<g id="edge70" class="edge">
<title>Node24&#45;&gt;Node20</title>
<path fill="none" stroke="midnightblue" d="M407.71,-110.49C422.18,-100.61 440.47,-88.12 452.88,-79.64"/>
<polygon fill="midnightblue" stroke="midnightblue" points="405.57,-107.72 399.28,-116.25 409.52,-113.5 405.57,-107.72"/>
</g>
</g>
</svg>
