<?xml version="1.0" encoding="UTF-8" standalone="no"?>
<!DOCTYPE svg PUBLIC "-//W3C//DTD SVG 1.1//EN"
 "http://www.w3.org/Graphics/SVG/1.1/DTD/svg11.dtd">
<!-- Generated by graphviz version 2.44.0 ()
 -->
<!-- Title: tex.h Pages: 1 -->
<svg width="924pt" height="320pt"
 viewBox="0.00 0.00 924.00 320.00" xmlns="http://www.w3.org/2000/svg" xmlns:xlink="http://www.w3.org/1999/xlink">
<g id="graph0" class="graph" transform="scale(1 1) rotate(0) translate(4 316)">
<title>tex.h</title>
<polygon fill="white" stroke="transparent" points="-4,4 -4,-316 920,-316 920,4 -4,4"/>
<!-- Node1 -->
<g id="node1" class="node">
<title>Node1</title>
<g id="a_node1"><a xlink:title=" ">
<polygon fill="#bfbfbf" stroke="black" points="596,-290.5 596,-311.5 638,-311.5 638,-290.5 596,-290.5"/>
<text text-anchor="middle" x="617" y="-297.9" font-family="DejaVuSans" font-size="12.00">tex.h</text>
</a>
</g>
</g>
<!-- Node2 -->
<g id="node2" class="node">
<title>Node2</title>
<g id="a_node2"><a xlink:href="dviout_8c.html" target="_top" xlink:title=" ">
<polygon fill="white" stroke="black" points="0,-232.5 0,-253.5 58,-253.5 58,-232.5 0,-232.5"/>
<text text-anchor="middle" x="29" y="-239.9" font-family="DejaVuSans" font-size="12.00">dviout.c</text>
</a>
</g>
</g>
<!-- Node1&#45;&gt;Node2 -->
<g id="edge1" class="edge">
<title>Node1&#45;&gt;Node2</title>
<path fill="none" stroke="midnightblue" d="M585.71,-298.94C501.95,-295.76 265.87,-284.56 72,-254 67.46,-253.28 62.68,-252.35 58.03,-251.35"/>
<polygon fill="midnightblue" stroke="midnightblue" points="585.7,-302.44 595.83,-299.31 585.96,-295.45 585.7,-302.44"/>
</g>
<!-- Node3 -->
<g id="node3" class="node">
<title>Node3</title>
<g id="a_node3"><a xlink:href="lexer_8h.html" target="_top" xlink:title=" ">
<polygon fill="white" stroke="black" points="325,-232.5 325,-253.5 377,-253.5 377,-232.5 325,-232.5"/>
<text text-anchor="middle" x="351" y="-239.9" font-family="DejaVuSans" font-size="12.00">lexer.h</text>
</a>
</g>
</g>
<!-- Node1&#45;&gt;Node3 -->
<g id="edge2" class="edge">
<title>Node1&#45;&gt;Node3</title>
<path fill="none" stroke="midnightblue" d="M585.84,-293.44C532.89,-282.29 426.32,-259.86 377.06,-249.49"/>
<polygon fill="midnightblue" stroke="midnightblue" points="585.18,-296.88 595.68,-295.51 586.62,-290.03 585.18,-296.88"/>
</g>
<!-- Node7 -->
<g id="node7" class="node">
<title>Node7</title>
<g id="a_node7"><a xlink:href="expand_8c.html" target="_top" xlink:title=" ">
<polygon fill="white" stroke="black" points="588.5,-58.5 588.5,-79.5 653.5,-79.5 653.5,-58.5 588.5,-58.5"/>
<text text-anchor="middle" x="621" y="-65.9" font-family="DejaVuSans" font-size="12.00">expand.c</text>
</a>
</g>
</g>
<!-- Node1&#45;&gt;Node7 -->
<g id="edge29" class="edge">
<title>Node1&#45;&gt;Node7</title>
<path fill="none" stroke="midnightblue" d="M622.94,-280.42C632.37,-246.67 648.63,-175.43 638,-116 635.66,-102.93 629.86,-88.7 625.68,-79.59"/>
<polygon fill="midnightblue" stroke="midnightblue" points="619.49,-279.78 620.06,-290.36 626.21,-281.73 619.49,-279.78"/>
</g>
<!-- Node8 -->
<g id="node8" class="node">
<title>Node8</title>
<g id="a_node8"><a xlink:href="funcs_8c.html" target="_top" xlink:title=" ">
<polygon fill="white" stroke="black" points="672,-58.5 672,-79.5 726,-79.5 726,-58.5 672,-58.5"/>
<text text-anchor="middle" x="699" y="-65.9" font-family="DejaVuSans" font-size="12.00">funcs.c</text>
</a>
</g>
</g>
<!-- Node1&#45;&gt;Node8 -->
<g id="edge31" class="edge">
<title>Node1&#45;&gt;Node8</title>
<path fill="none" stroke="midnightblue" d="M630.11,-281.84C635.59,-273.64 641.68,-263.64 646,-254 674.56,-190.3 691.93,-107.29 697.25,-79.52"/>
<polygon fill="midnightblue" stroke="midnightblue" points="627.12,-280.02 624.31,-290.23 632.88,-284 627.12,-280.02"/>
</g>
<!-- Node9 -->
<g id="node9" class="node">
<title>Node9</title>
<g id="a_node9"><a xlink:href="inputln_8c.html" target="_top" xlink:title=" ">
<polygon fill="white" stroke="black" points="130.5,-58.5 130.5,-79.5 191.5,-79.5 191.5,-58.5 130.5,-58.5"/>
<text text-anchor="middle" x="161" y="-65.9" font-family="DejaVuSans" font-size="12.00">inputln.c</text>
</a>
</g>
</g>
<!-- Node1&#45;&gt;Node9 -->
<g id="edge33" class="edge">
<title>Node1&#45;&gt;Node9</title>
<path fill="none" stroke="midnightblue" d="M585.51,-299.34C509.75,-297.21 319.75,-288.47 268,-254 202.18,-210.16 171.63,-111.04 163.38,-79.69"/>
<polygon fill="midnightblue" stroke="midnightblue" points="585.74,-302.85 595.83,-299.61 585.92,-295.85 585.74,-302.85"/>
</g>
<!-- Node12 -->
<g id="node12" class="node">
<title>Node12</title>
<g id="a_node12"><a xlink:href="scan_8c.html" target="_top" xlink:title=" ">
<polygon fill="white" stroke="black" points="209.5,-58.5 209.5,-79.5 260.5,-79.5 260.5,-58.5 209.5,-58.5"/>
<text text-anchor="middle" x="235" y="-65.9" font-family="DejaVuSans" font-size="12.00">scan.c</text>
</a>
</g>
</g>
<!-- Node1&#45;&gt;Node12 -->
<g id="edge35" class="edge">
<title>Node1&#45;&gt;Node12</title>
<path fill="none" stroke="midnightblue" d="M585.48,-299.76C512.34,-298.57 333.94,-291.77 290,-254 236.15,-207.71 233.83,-111.07 234.58,-79.91"/>
<polygon fill="midnightblue" stroke="midnightblue" points="585.84,-303.27 595.89,-299.91 585.93,-296.27 585.84,-303.27"/>
</g>
<!-- Node13 -->
<g id="node13" class="node">
<title>Node13</title>
<g id="a_node13"><a xlink:href="tex__header_8h.html" target="_top" xlink:title=" ">
<polygon fill="white" stroke="black" points="279,-58.5 279,-79.5 365,-79.5 365,-58.5 279,-58.5"/>
<text text-anchor="middle" x="322" y="-65.9" font-family="DejaVuSans" font-size="12.00">tex_header.h</text>
</a>
</g>
</g>
<!-- Node1&#45;&gt;Node13 -->
<g id="edge37" class="edge">
<title>Node1&#45;&gt;Node13</title>
<path fill="none" stroke="midnightblue" d="M585.48,-298.88C517.16,-295.88 358.15,-285.61 316,-254 266.13,-216.61 271.76,-175.29 291,-116 295.52,-102.08 305.6,-88.47 313.04,-79.71"/>
<polygon fill="midnightblue" stroke="midnightblue" points="585.5,-302.39 595.64,-299.3 585.79,-295.39 585.5,-302.39"/>
</g>
<!-- Node15 -->
<g id="node15" class="node">
<title>Node15</title>
<g id="a_node15"><a xlink:href="printout_8c.html" target="_top" xlink:title=" ">
<polygon fill="white" stroke="black" points="456.5,-116.5 456.5,-137.5 521.5,-137.5 521.5,-116.5 456.5,-116.5"/>
<text text-anchor="middle" x="489" y="-123.9" font-family="DejaVuSans" font-size="12.00">printout.c</text>
</a>
</g>
</g>
<!-- Node1&#45;&gt;Node15 -->
<g id="edge34" class="edge">
<title>Node1&#45;&gt;Node15</title>
<path fill="none" stroke="midnightblue" d="M603.67,-282.09C576.78,-245.95 516.84,-165.41 496.17,-137.63"/>
<polygon fill="midnightblue" stroke="midnightblue" points="600.97,-284.33 609.75,-290.26 606.59,-280.15 600.97,-284.33"/>
</g>
<!-- Node16 -->
<g id="node16" class="node">
<title>Node16</title>
<g id="a_node16"><a xlink:href="print_8h.html" target="_top" xlink:title=" ">
<polygon fill="white" stroke="black" points="540,-116.5 540,-137.5 590,-137.5 590,-116.5 540,-116.5"/>
<text text-anchor="middle" x="565" y="-123.9" font-family="DejaVuSans" font-size="12.00">print.h</text>
</a>
</g>
</g>
<!-- Node1&#45;&gt;Node16 -->
<g id="edge22" class="edge">
<title>Node1&#45;&gt;Node16</title>
<path fill="none" stroke="midnightblue" d="M611.02,-280.21C599.84,-243.24 576.17,-164.94 567.91,-137.63"/>
<polygon fill="midnightblue" stroke="midnightblue" points="607.81,-281.7 614.06,-290.26 614.51,-279.67 607.81,-281.7"/>
</g>
<!-- Node17 -->
<g id="node17" class="node">
<title>Node17</title>
<g id="a_node17"><a xlink:href="fonts_8c.html" target="_top" xlink:title=" ">
<polygon fill="white" stroke="black" points="744.5,-58.5 744.5,-79.5 795.5,-79.5 795.5,-58.5 744.5,-58.5"/>
<text text-anchor="middle" x="770" y="-65.9" font-family="DejaVuSans" font-size="12.00">fonts.c</text>
</a>
</g>
</g>
<!-- Node1&#45;&gt;Node17 -->
<g id="edge30" class="edge">
<title>Node1&#45;&gt;Node17</title>
<path fill="none" stroke="midnightblue" d="M636.61,-283.58C645.85,-275.27 656.65,-264.7 665,-254 712.52,-193.11 752.73,-108.3 765.65,-79.79"/>
<polygon fill="midnightblue" stroke="midnightblue" points="634.21,-281.02 628.99,-290.24 638.82,-286.29 634.21,-281.02"/>
</g>
<!-- Node18 -->
<g id="node18" class="node">
<title>Node18</title>
<g id="a_node18"><a xlink:href="inipool_8c.html" target="_top" xlink:title=" ">
<polygon fill="white" stroke="black" points="798.5,-232.5 798.5,-253.5 859.5,-253.5 859.5,-232.5 798.5,-232.5"/>
<text text-anchor="middle" x="829" y="-239.9" font-family="DejaVuSans" font-size="12.00">inipool.c</text>
</a>
</g>
</g>
<!-- Node1&#45;&gt;Node18 -->
<g id="edge32" class="edge">
<title>Node1&#45;&gt;Node18</title>
<path fill="none" stroke="midnightblue" d="M647.92,-291.83C688.24,-281.18 758.36,-262.66 798.48,-252.06"/>
<polygon fill="midnightblue" stroke="midnightblue" points="646.88,-288.49 638.1,-294.43 648.66,-295.26 646.88,-288.49"/>
</g>
<!-- Node19 -->
<g id="node19" class="node">
<title>Node19</title>
<g id="a_node19"><a xlink:href="str_8c.html" target="_top" xlink:title=" ">
<polygon fill="white" stroke="black" points="878,-232.5 878,-253.5 916,-253.5 916,-232.5 878,-232.5"/>
<text text-anchor="middle" x="897" y="-239.9" font-family="DejaVuSans" font-size="12.00">str.c</text>
</a>
</g>
</g>
<!-- Node1&#45;&gt;Node19 -->
<g id="edge36" class="edge">
<title>Node1&#45;&gt;Node19</title>
<path fill="none" stroke="midnightblue" d="M648.22,-295.97C696.2,-289.4 790.72,-274.97 869,-254 871.89,-253.23 874.91,-252.29 877.85,-251.3"/>
<polygon fill="midnightblue" stroke="midnightblue" points="647.61,-292.52 638.16,-297.32 648.54,-299.45 647.61,-292.52"/>
</g>
<!-- Node4 -->
<g id="node4" class="node">
<title>Node4</title>
<g id="a_node4"><a xlink:href="scan_8h.html" target="_top" xlink:title=" ">
<polygon fill="white" stroke="black" points="363,-174.5 363,-195.5 415,-195.5 415,-174.5 363,-174.5"/>
<text text-anchor="middle" x="389" y="-181.9" font-family="DejaVuSans" font-size="12.00">scan.h</text>
</a>
</g>
</g>
<!-- Node3&#45;&gt;Node4 -->
<g id="edge3" class="edge">
<title>Node3&#45;&gt;Node4</title>
<path fill="none" stroke="midnightblue" d="M363.27,-223.92C369.65,-214.52 377.19,-203.4 382.46,-195.64"/>
<polygon fill="midnightblue" stroke="midnightblue" points="360.34,-222.01 357.62,-232.25 366.13,-225.94 360.34,-222.01"/>
</g>
<!-- Node3&#45;&gt;Node7 -->
<g id="edge18" class="edge">
<title>Node3&#45;&gt;Node7</title>
<path fill="none" stroke="midnightblue" d="M387.18,-240.17C447.3,-234.97 566.42,-214.94 620,-138 632.14,-120.56 627.71,-94.03 624,-79.81"/>
<polygon fill="midnightblue" stroke="midnightblue" points="386.72,-236.7 377.02,-240.96 387.26,-243.68 386.72,-236.7"/>
</g>
<!-- Node3&#45;&gt;Node9 -->
<g id="edge19" class="edge">
<title>Node3&#45;&gt;Node9</title>
<path fill="none" stroke="midnightblue" d="M328.6,-226.53C316.55,-217.92 301.62,-206.8 289,-196 241.62,-155.45 190.15,-101.35 169.89,-79.63"/>
<polygon fill="midnightblue" stroke="midnightblue" points="326.59,-229.4 336.78,-232.3 330.63,-223.68 326.59,-229.4"/>
</g>
<!-- Node10 -->
<g id="node10" class="node">
<title>Node10</title>
<g id="a_node10"><a xlink:href="lexer_8c.html" target="_top" xlink:title=" ">
<polygon fill="white" stroke="black" points="383.5,-58.5 383.5,-79.5 434.5,-79.5 434.5,-58.5 383.5,-58.5"/>
<text text-anchor="middle" x="409" y="-65.9" font-family="DejaVuSans" font-size="12.00">lexer.c</text>
</a>
</g>
</g>
<!-- Node3&#45;&gt;Node10 -->
<g id="edge20" class="edge">
<title>Node3&#45;&gt;Node10</title>
<path fill="none" stroke="midnightblue" d="M350.28,-222.46C350.16,-196.59 352.82,-150.26 371,-116 378.38,-102.09 390.39,-88.48 398.93,-79.72"/>
<polygon fill="midnightblue" stroke="midnightblue" points="346.79,-222.57 350.48,-232.5 353.78,-222.43 346.79,-222.57"/>
</g>
<!-- Node3&#45;&gt;Node13 -->
<g id="edge21" class="edge">
<title>Node3&#45;&gt;Node13</title>
<path fill="none" stroke="midnightblue" d="M326.03,-226.4C315.96,-218.62 305.45,-208.26 300,-196 285.55,-163.51 292.13,-150.67 300,-116 303.02,-102.7 310.36,-88.76 315.74,-79.76"/>
<polygon fill="midnightblue" stroke="midnightblue" points="324.1,-229.32 334.26,-232.3 328.17,-223.63 324.1,-229.32"/>
</g>
<!-- Node5 -->
<g id="node5" class="node">
<title>Node5</title>
<g id="a_node5"><a xlink:href="global_8h.html" target="_top" xlink:title=" ">
<polygon fill="white" stroke="black" points="380,-116.5 380,-137.5 438,-137.5 438,-116.5 380,-116.5"/>
<text text-anchor="middle" x="409" y="-123.9" font-family="DejaVuSans" font-size="12.00">global.h</text>
</a>
</g>
</g>
<!-- Node4&#45;&gt;Node5 -->
<g id="edge4" class="edge">
<title>Node4&#45;&gt;Node5</title>
<path fill="none" stroke="midnightblue" d="M395.88,-164.75C399.14,-155.61 402.9,-145.08 405.56,-137.64"/>
<polygon fill="midnightblue" stroke="midnightblue" points="392.55,-163.65 392.48,-174.25 399.14,-166.01 392.55,-163.65"/>
</g>
<!-- Node4&#45;&gt;Node7 -->
<g id="edge14" class="edge">
<title>Node4&#45;&gt;Node7</title>
<path fill="none" stroke="midnightblue" d="M425.3,-180.4C478.45,-174.42 573.86,-160.8 599,-138 615.73,-122.83 619.79,-94.86 620.74,-79.96"/>
<polygon fill="midnightblue" stroke="midnightblue" points="424.83,-176.93 415.27,-181.49 425.59,-183.89 424.83,-176.93"/>
</g>
<!-- Node4&#45;&gt;Node12 -->
<g id="edge16" class="edge">
<title>Node4&#45;&gt;Node12</title>
<path fill="none" stroke="midnightblue" d="M367.82,-168.32C335.51,-144.4 274.83,-99.49 248.15,-79.74"/>
<polygon fill="midnightblue" stroke="midnightblue" points="366.02,-171.34 376.13,-174.48 370.18,-165.71 366.02,-171.34"/>
</g>
<!-- Node4&#45;&gt;Node13 -->
<g id="edge17" class="edge">
<title>Node4&#45;&gt;Node13</title>
<path fill="none" stroke="midnightblue" d="M378.17,-165.57C363.77,-141.08 338.86,-98.69 327.7,-79.69"/>
<polygon fill="midnightblue" stroke="midnightblue" points="375.2,-167.43 383.29,-174.28 381.24,-163.89 375.2,-167.43"/>
</g>
<!-- Node4&#45;&gt;Node15 -->
<g id="edge15" class="edge">
<title>Node4&#45;&gt;Node15</title>
<path fill="none" stroke="midnightblue" d="M415.21,-169.32C433.07,-159.32 456.22,-146.36 471.78,-137.64"/>
<polygon fill="midnightblue" stroke="midnightblue" points="413.43,-166.31 406.42,-174.25 416.85,-172.41 413.43,-166.31"/>
</g>
<!-- Node6 -->
<g id="node6" class="node">
<title>Node6</title>
<g id="a_node6"><a xlink:href="error_8c.html" target="_top" xlink:title=" ">
<polygon fill="white" stroke="black" points="520,-58.5 520,-79.5 570,-79.5 570,-58.5 520,-58.5"/>
<text text-anchor="middle" x="545" y="-65.9" font-family="DejaVuSans" font-size="12.00">error.c</text>
</a>
</g>
</g>
<!-- Node5&#45;&gt;Node6 -->
<g id="edge5" class="edge">
<title>Node5&#45;&gt;Node6</title>
<path fill="none" stroke="midnightblue" d="M441.74,-112.52C466.51,-102.32 499.91,-88.57 521.93,-79.5"/>
<polygon fill="midnightblue" stroke="midnightblue" points="440.29,-109.33 432.38,-116.37 442.96,-115.8 440.29,-109.33"/>
</g>
<!-- Node5&#45;&gt;Node7 -->
<g id="edge6" class="edge">
<title>Node5&#45;&gt;Node7</title>
<path fill="none" stroke="midnightblue" d="M447.76,-115.76C488,-105.13 550.25,-88.69 588.15,-78.68"/>
<polygon fill="midnightblue" stroke="midnightblue" points="446.81,-112.39 438.03,-118.33 448.6,-119.16 446.81,-112.39"/>
</g>
<!-- Node5&#45;&gt;Node8 -->
<g id="edge7" class="edge">
<title>Node5&#45;&gt;Node8</title>
<path fill="none" stroke="midnightblue" d="M448.44,-115.84C543.5,-95.95 570.49,-99.98 662,-80 665.25,-79.29 668.64,-78.48 672,-77.63"/>
<polygon fill="midnightblue" stroke="midnightblue" points="447.45,-112.48 438.39,-117.98 448.9,-119.32 447.45,-112.48"/>
</g>
<!-- Node5&#45;&gt;Node9 -->
<g id="edge8" class="edge">
<title>Node5&#45;&gt;Node9</title>
<path fill="none" stroke="midnightblue" d="M370.02,-117.84C327.97,-108.94 259.1,-94.08 200,-80 197.28,-79.35 194.46,-78.66 191.63,-77.96"/>
<polygon fill="midnightblue" stroke="midnightblue" points="369.34,-121.27 379.85,-119.91 370.79,-114.42 369.34,-121.27"/>
</g>
<!-- Node5&#45;&gt;Node10 -->
<g id="edge9" class="edge">
<title>Node5&#45;&gt;Node10</title>
<path fill="none" stroke="midnightblue" d="M409,-106.16C409,-97.16 409,-86.92 409,-79.64"/>
<polygon fill="midnightblue" stroke="midnightblue" points="405.5,-106.25 409,-116.25 412.5,-106.25 405.5,-106.25"/>
</g>
<!-- Node11 -->
<g id="node11" class="node">
<title>Node11</title>
<g id="a_node11"><a xlink:href="print_8c.html" target="_top" xlink:title=" ">
<polygon fill="white" stroke="black" points="452.5,-58.5 452.5,-79.5 501.5,-79.5 501.5,-58.5 452.5,-58.5"/>
<text text-anchor="middle" x="477" y="-65.9" font-family="DejaVuSans" font-size="12.00">print.c</text>
</a>
</g>
</g>
<!-- Node5&#45;&gt;Node11 -->
<g id="edge10" class="edge">
<title>Node5&#45;&gt;Node11</title>
<path fill="none" stroke="midnightblue" d="M428.86,-109.65C440.69,-99.91 455.29,-87.88 465.29,-79.64"/>
<polygon fill="midnightblue" stroke="midnightblue" points="426.34,-107.19 420.84,-116.25 430.79,-112.59 426.34,-107.19"/>
</g>
<!-- Node5&#45;&gt;Node12 -->
<g id="edge11" class="edge">
<title>Node5&#45;&gt;Node12</title>
<path fill="none" stroke="midnightblue" d="M369.98,-113.44C336.54,-102.68 289.34,-87.49 260.53,-78.22"/>
<polygon fill="midnightblue" stroke="midnightblue" points="369.28,-116.89 379.88,-116.63 371.43,-110.23 369.28,-116.89"/>
</g>
<!-- Node5&#45;&gt;Node13 -->
<g id="edge12" class="edge">
<title>Node5&#45;&gt;Node13</title>
<path fill="none" stroke="midnightblue" d="M385.34,-110.77C369.92,-100.85 350.27,-88.2 336.98,-79.64"/>
<polygon fill="midnightblue" stroke="midnightblue" points="383.54,-113.78 393.85,-116.25 387.33,-107.89 383.54,-113.78"/>
</g>
<!-- Node14 -->
<g id="node14" class="node">
<title>Node14</title>
<g id="a_node14"><a xlink:href="tex_8c.html" target="_top" xlink:title=" ">
<polygon fill="white" stroke="black" points="301.5,-0.5 301.5,-21.5 342.5,-21.5 342.5,-0.5 301.5,-0.5"/>
<text text-anchor="middle" x="322" y="-7.9" font-family="DejaVuSans" font-size="12.00">tex.c</text>
</a>
</g>
</g>
<!-- Node13&#45;&gt;Node14 -->
<g id="edge13" class="edge">
<title>Node13&#45;&gt;Node14</title>
<path fill="none" stroke="midnightblue" d="M322,-48.16C322,-39.16 322,-28.92 322,-21.64"/>
<polygon fill="midnightblue" stroke="midnightblue" points="318.5,-48.25 322,-58.25 325.5,-48.25 318.5,-48.25"/>
</g>
<!-- Node16&#45;&gt;Node6 -->
<g id="edge23" class="edge">
<title>Node16&#45;&gt;Node6</title>
<path fill="none" stroke="midnightblue" d="M558.12,-106.75C554.86,-97.61 551.1,-87.08 548.44,-79.64"/>
<polygon fill="midnightblue" stroke="midnightblue" points="554.86,-108.01 561.52,-116.25 561.45,-105.65 554.86,-108.01"/>
</g>
<!-- Node16&#45;&gt;Node7 -->
<g id="edge24" class="edge">
<title>Node16&#45;&gt;Node7</title>
<path fill="none" stroke="midnightblue" d="M581.92,-109.08C591.56,-99.44 603.28,-87.72 611.36,-79.64"/>
<polygon fill="midnightblue" stroke="midnightblue" points="579.35,-106.7 574.75,-116.25 584.3,-111.65 579.35,-106.7"/>
</g>
<!-- Node16&#45;&gt;Node10 -->
<g id="edge26" class="edge">
<title>Node16&#45;&gt;Node10</title>
<path fill="none" stroke="midnightblue" d="M530.21,-113.51C501.21,-103.1 460.58,-88.52 434.52,-79.16"/>
<polygon fill="midnightblue" stroke="midnightblue" points="529.34,-116.92 539.94,-117 531.71,-110.33 529.34,-116.92"/>
</g>
<!-- Node16&#45;&gt;Node11 -->
<g id="edge27" class="edge">
<title>Node16&#45;&gt;Node11</title>
<path fill="none" stroke="midnightblue" d="M541.07,-110.77C525.47,-100.85 505.6,-88.2 492.15,-79.64"/>
<polygon fill="midnightblue" stroke="midnightblue" points="539.36,-113.83 549.67,-116.25 543.11,-107.92 539.36,-113.83"/>
</g>
<!-- Node16&#45;&gt;Node13 -->
<g id="edge28" class="edge">
<title>Node16&#45;&gt;Node13</title>
<path fill="none" stroke="midnightblue" d="M530.3,-116.08C530.2,-116.05 530.1,-116.03 530,-116 473.35,-101.66 407.4,-87.5 365.2,-78.76"/>
<polygon fill="midnightblue" stroke="midnightblue" points="529.25,-119.42 539.81,-118.61 531.05,-112.65 529.25,-119.42"/>
</g>
<!-- Node16&#45;&gt;Node17 -->
<g id="edge25" class="edge">
<title>Node16&#45;&gt;Node17</title>
<path fill="none" stroke="midnightblue" d="M600.11,-116.65C634.51,-107.46 688.42,-92.96 735,-80 738.04,-79.15 741.23,-78.26 744.4,-77.36"/>
<polygon fill="midnightblue" stroke="midnightblue" points="598.85,-113.37 590.09,-119.33 600.65,-120.13 598.85,-113.37"/>
</g>
</g>
</svg>
