<?xml version="1.0" encoding="UTF-8" standalone="no"?>
<!DOCTYPE svg PUBLIC "-//W3C//DTD SVG 1.1//EN"
 "http://www.w3.org/Graphics/SVG/1.1/DTD/svg11.dtd">
<!-- Generated by graphviz version 2.44.0 ()
 -->
<!-- Title: texfunc.h Pages: 1 -->
<svg width="294pt" height="204pt"
 viewBox="0.00 0.00 293.50 204.00" xmlns="http://www.w3.org/2000/svg" xmlns:xlink="http://www.w3.org/1999/xlink">
<g id="graph0" class="graph" transform="scale(1 1) rotate(0) translate(4 200)">
<title>texfunc.h</title>
<polygon fill="white" stroke="transparent" points="-4,4 -4,-200 289.5,-200 289.5,4 -4,4"/>
<!-- Node1 -->
<g id="node1" class="node">
<title>Node1</title>
<g id="a_node1"><a xlink:title=" ">
<polygon fill="#bfbfbf" stroke="black" points="104.5,-174.5 104.5,-195.5 169.5,-195.5 169.5,-174.5 104.5,-174.5"/>
<text text-anchor="middle" x="137" y="-181.9" font-family="DejaVuSans" font-size="12.00">texfunc.h</text>
</a>
</g>
</g>
<!-- Node2 -->
<g id="node2" class="node">
<title>Node2</title>
<g id="a_node2"><a xlink:href="str_8h.html" target="_top" xlink:title=" ">
<polygon fill="white" stroke="black" points="117.5,-116.5 117.5,-137.5 156.5,-137.5 156.5,-116.5 117.5,-116.5"/>
<text text-anchor="middle" x="137" y="-123.9" font-family="DejaVuSans" font-size="12.00">str.h</text>
</a>
</g>
</g>
<!-- Node1&#45;&gt;Node2 -->
<g id="edge1" class="edge">
<title>Node1&#45;&gt;Node2</title>
<path fill="none" stroke="midnightblue" d="M137,-174.25C137,-166.94 137,-156.69 137,-147.7"/>
<polygon fill="midnightblue" stroke="midnightblue" points="140.5,-147.64 137,-137.64 133.5,-147.64 140.5,-147.64"/>
</g>
<!-- Node3 -->
<g id="node3" class="node">
<title>Node3</title>
<g id="a_node3"><a xlink:title=" ">
<polygon fill="white" stroke="#bfbfbf" points="0,-0.5 0,-21.5 52,-21.5 52,-0.5 0,-0.5"/>
<text text-anchor="middle" x="26" y="-7.9" font-family="DejaVuSans" font-size="12.00">stdio.h</text>
</a>
</g>
</g>
<!-- Node2&#45;&gt;Node3 -->
<g id="edge2" class="edge">
<title>Node2&#45;&gt;Node3</title>
<path fill="none" stroke="midnightblue" d="M117.23,-121.42C96,-115.47 62.81,-103.01 44,-80 32.92,-66.44 28.6,-46.72 26.95,-32.01"/>
<polygon fill="midnightblue" stroke="midnightblue" points="30.43,-31.61 26.14,-21.92 23.45,-32.17 30.43,-31.61"/>
</g>
<!-- Node4 -->
<g id="node4" class="node">
<title>Node4</title>
<g id="a_node4"><a xlink:title=" ">
<polygon fill="white" stroke="#bfbfbf" points="147.5,-0.5 147.5,-21.5 202.5,-21.5 202.5,-0.5 147.5,-0.5"/>
<text text-anchor="middle" x="175" y="-7.9" font-family="DejaVuSans" font-size="12.00">stdint.h</text>
</a>
</g>
</g>
<!-- Node2&#45;&gt;Node4 -->
<g id="edge3" class="edge">
<title>Node2&#45;&gt;Node4</title>
<path fill="none" stroke="midnightblue" d="M141.11,-116.22C144.93,-106.97 150.67,-92.66 155,-80 160.53,-63.83 165.95,-45.19 169.74,-31.52"/>
<polygon fill="midnightblue" stroke="midnightblue" points="173.15,-32.34 172.41,-21.77 166.4,-30.49 173.15,-32.34"/>
</g>
<!-- Node5 -->
<g id="node5" class="node">
<title>Node5</title>
<g id="a_node5"><a xlink:href="global__const_8h.html" target="_top" xlink:title=" ">
<polygon fill="white" stroke="black" points="53.5,-58.5 53.5,-79.5 146.5,-79.5 146.5,-58.5 53.5,-58.5"/>
<text text-anchor="middle" x="100" y="-65.9" font-family="DejaVuSans" font-size="12.00">global_const.h</text>
</a>
</g>
</g>
<!-- Node2&#45;&gt;Node5 -->
<g id="edge4" class="edge">
<title>Node2&#45;&gt;Node5</title>
<path fill="none" stroke="midnightblue" d="M130.56,-116.25C125.46,-108.54 118.21,-97.56 112.05,-88.23"/>
<polygon fill="midnightblue" stroke="midnightblue" points="114.8,-86.06 106.37,-79.64 108.96,-89.92 114.8,-86.06"/>
</g>
<!-- Node7 -->
<g id="node7" class="node">
<title>Node7</title>
<g id="a_node7"><a xlink:href="tex__types_8h.html" target="_top" xlink:title=" ">
<polygon fill="white" stroke="black" points="203.5,-58.5 203.5,-79.5 280.5,-79.5 280.5,-58.5 203.5,-58.5"/>
<text text-anchor="middle" x="242" y="-65.9" font-family="DejaVuSans" font-size="12.00">tex_types.h</text>
</a>
</g>
</g>
<!-- Node2&#45;&gt;Node7 -->
<g id="edge7" class="edge">
<title>Node2&#45;&gt;Node7</title>
<path fill="none" stroke="midnightblue" d="M155.29,-116.25C171.78,-107.45 196.24,-94.41 214.98,-84.41"/>
<polygon fill="midnightblue" stroke="midnightblue" points="216.74,-87.44 223.92,-79.64 213.45,-81.26 216.74,-87.44"/>
</g>
<!-- Node5&#45;&gt;Node3 -->
<g id="edge6" class="edge">
<title>Node5&#45;&gt;Node3</title>
<path fill="none" stroke="midnightblue" d="M87.11,-58.25C76.07,-49.89 59.97,-37.71 47.06,-27.94"/>
<polygon fill="midnightblue" stroke="midnightblue" points="48.83,-24.89 38.74,-21.64 44.6,-30.47 48.83,-24.89"/>
</g>
<!-- Node6 -->
<g id="node6" class="node">
<title>Node6</title>
<g id="a_node6"><a xlink:title=" ">
<polygon fill="white" stroke="#bfbfbf" points="70.5,-0.5 70.5,-21.5 129.5,-21.5 129.5,-0.5 70.5,-0.5"/>
<text text-anchor="middle" x="100" y="-7.9" font-family="DejaVuSans" font-size="12.00">assert.h</text>
</a>
</g>
</g>
<!-- Node5&#45;&gt;Node6 -->
<g id="edge5" class="edge">
<title>Node5&#45;&gt;Node6</title>
<path fill="none" stroke="midnightblue" d="M100,-58.25C100,-50.94 100,-40.69 100,-31.7"/>
<polygon fill="midnightblue" stroke="midnightblue" points="103.5,-31.64 100,-21.64 96.5,-31.64 103.5,-31.64"/>
</g>
<!-- Node7&#45;&gt;Node4 -->
<g id="edge9" class="edge">
<title>Node7&#45;&gt;Node4</title>
<path fill="none" stroke="midnightblue" d="M230.33,-58.25C220.43,-49.97 206.04,-37.94 194.41,-28.22"/>
<polygon fill="midnightblue" stroke="midnightblue" points="196.45,-25.37 186.54,-21.64 191.97,-30.74 196.45,-25.37"/>
</g>
<!-- Node8 -->
<g id="node8" class="node">
<title>Node8</title>
<g id="a_node8"><a xlink:title=" ">
<polygon fill="white" stroke="#bfbfbf" points="220.5,-0.5 220.5,-21.5 285.5,-21.5 285.5,-0.5 220.5,-0.5"/>
<text text-anchor="middle" x="253" y="-7.9" font-family="DejaVuSans" font-size="12.00">stdbool.h</text>
</a>
</g>
</g>
<!-- Node7&#45;&gt;Node8 -->
<g id="edge8" class="edge">
<title>Node7&#45;&gt;Node8</title>
<path fill="none" stroke="midnightblue" d="M243.92,-58.25C245.35,-50.94 247.36,-40.69 249.13,-31.7"/>
<polygon fill="midnightblue" stroke="midnightblue" points="252.61,-32.13 251.11,-21.64 245.74,-30.78 252.61,-32.13"/>
</g>
</g>
</svg>
