<?xml version="1.0" encoding="UTF-8" standalone="no"?>
<!DOCTYPE svg PUBLIC "-//W3C//DTD SVG 1.1//EN"
 "http://www.w3.org/Graphics/SVG/1.1/DTD/svg11.dtd">
<!-- Generated by graphviz version 2.44.0 ()
 -->
<!-- Title: texfunc.h Pages: 1 -->
<svg width="1081pt" height="146pt"
 viewBox="0.00 0.00 1080.50 146.00" xmlns="http://www.w3.org/2000/svg" xmlns:xlink="http://www.w3.org/1999/xlink">
<g id="graph0" class="graph" transform="scale(1 1) rotate(0) translate(4 142)">
<title>texfunc.h</title>
<polygon fill="white" stroke="transparent" points="-4,4 -4,-142 1076.5,-142 1076.5,4 -4,4"/>
<!-- Node1 -->
<g id="node1" class="node">
<title>Node1</title>
<g id="a_node1"><a xlink:title=" ">
<polygon fill="#bfbfbf" stroke="black" points="524,-116.5 524,-137.5 589,-137.5 589,-116.5 524,-116.5"/>
<text text-anchor="middle" x="556.5" y="-123.9" font-family="DejaVuSans" font-size="12.00">texfunc.h</text>
</a>
</g>
</g>
<!-- Node2 -->
<g id="node2" class="node">
<title>Node2</title>
<g id="a_node2"><a xlink:href="box__display_8c.html" target="_top" xlink:title=" ">
<polygon fill="white" stroke="black" points="0,-58.5 0,-79.5 89,-79.5 89,-58.5 0,-58.5"/>
<text text-anchor="middle" x="44.5" y="-65.9" font-family="DejaVuSans" font-size="12.00">box_display.c</text>
</a>
</g>
</g>
<!-- Node1&#45;&gt;Node2 -->
<g id="edge1" class="edge">
<title>Node1&#45;&gt;Node2</title>
<path fill="none" stroke="midnightblue" d="M513.48,-122.94C432.02,-116.87 249.79,-101.96 97.5,-80 94.81,-79.61 92.05,-79.18 89.27,-78.73"/>
<polygon fill="midnightblue" stroke="midnightblue" points="513.6,-126.46 523.83,-123.7 514.11,-119.48 513.6,-126.46"/>
</g>
<!-- Node3 -->
<g id="node3" class="node">
<title>Node3</title>
<g id="a_node3"><a xlink:href="dviout_8c.html" target="_top" xlink:title=" ">
<polygon fill="white" stroke="black" points="106.5,-58.5 106.5,-79.5 164.5,-79.5 164.5,-58.5 106.5,-58.5"/>
<text text-anchor="middle" x="135.5" y="-65.9" font-family="DejaVuSans" font-size="12.00">dviout.c</text>
</a>
</g>
</g>
<!-- Node1&#45;&gt;Node3 -->
<g id="edge2" class="edge">
<title>Node1&#45;&gt;Node3</title>
<path fill="none" stroke="midnightblue" d="M513.5,-122.67C442.49,-116.77 296.43,-102.87 174.5,-80 171.34,-79.41 168.06,-78.7 164.8,-77.95"/>
<polygon fill="midnightblue" stroke="midnightblue" points="513.58,-126.19 523.83,-123.52 514.15,-119.22 513.58,-126.19"/>
</g>
<!-- Node4 -->
<g id="node4" class="node">
<title>Node4</title>
<g id="a_node4"><a xlink:href="eqtb_8c.html" target="_top" xlink:title=" ">
<polygon fill="white" stroke="black" points="183,-58.5 183,-79.5 232,-79.5 232,-58.5 183,-58.5"/>
<text text-anchor="middle" x="207.5" y="-65.9" font-family="DejaVuSans" font-size="12.00">eqtb.c</text>
</a>
</g>
</g>
<!-- Node1&#45;&gt;Node4 -->
<g id="edge3" class="edge">
<title>Node1&#45;&gt;Node4</title>
<path fill="none" stroke="midnightblue" d="M513.55,-121.67C452.6,-115.09 337.7,-101.06 241.5,-80 238.49,-79.34 235.37,-78.56 232.28,-77.73"/>
<polygon fill="midnightblue" stroke="midnightblue" points="513.26,-125.16 523.58,-122.74 514,-118.2 513.26,-125.16"/>
</g>
<!-- Node5 -->
<g id="node5" class="node">
<title>Node5</title>
<g id="a_node5"><a xlink:href="eqtb__save_8c.html" target="_top" xlink:title=" ">
<polygon fill="white" stroke="black" points="250,-58.5 250,-79.5 331,-79.5 331,-58.5 250,-58.5"/>
<text text-anchor="middle" x="290.5" y="-65.9" font-family="DejaVuSans" font-size="12.00">eqtb_save.c</text>
</a>
</g>
</g>
<!-- Node1&#45;&gt;Node5 -->
<g id="edge4" class="edge">
<title>Node1&#45;&gt;Node5</title>
<path fill="none" stroke="midnightblue" d="M513.98,-117.05C463.73,-106.47 380.69,-88.99 331.23,-78.57"/>
<polygon fill="midnightblue" stroke="midnightblue" points="513.38,-120.5 523.88,-119.13 514.82,-113.65 513.38,-120.5"/>
</g>
<!-- Node6 -->
<g id="node6" class="node">
<title>Node6</title>
<g id="a_node6"><a xlink:href="error_8c.html" target="_top" xlink:title=" ">
<polygon fill="white" stroke="black" points="349.5,-58.5 349.5,-79.5 399.5,-79.5 399.5,-58.5 349.5,-58.5"/>
<text text-anchor="middle" x="374.5" y="-65.9" font-family="DejaVuSans" font-size="12.00">error.c</text>
</a>
</g>
</g>
<!-- Node1&#45;&gt;Node6 -->
<g id="edge5" class="edge">
<title>Node1&#45;&gt;Node6</title>
<path fill="none" stroke="midnightblue" d="M515.59,-113.41C479.96,-102.45 429.46,-86.91 399.53,-77.7"/>
<polygon fill="midnightblue" stroke="midnightblue" points="514.63,-116.78 525.21,-116.37 516.68,-110.09 514.63,-116.78"/>
</g>
<!-- Node7 -->
<g id="node7" class="node">
<title>Node7</title>
<g id="a_node7"><a xlink:href="expand_8c.html" target="_top" xlink:title=" ">
<polygon fill="white" stroke="black" points="418,-58.5 418,-79.5 483,-79.5 483,-58.5 418,-58.5"/>
<text text-anchor="middle" x="450.5" y="-65.9" font-family="DejaVuSans" font-size="12.00">expand.c</text>
</a>
</g>
</g>
<!-- Node1&#45;&gt;Node7 -->
<g id="edge6" class="edge">
<title>Node1&#45;&gt;Node7</title>
<path fill="none" stroke="midnightblue" d="M528.98,-111.46C510.01,-101.44 485.33,-88.4 468.75,-79.64"/>
<polygon fill="midnightblue" stroke="midnightblue" points="527.56,-114.67 538.04,-116.25 530.83,-108.48 527.56,-114.67"/>
</g>
<!-- Node8 -->
<g id="node8" class="node">
<title>Node8</title>
<g id="a_node8"><a xlink:href="fonts_8c.html" target="_top" xlink:title=" ">
<polygon fill="white" stroke="black" points="501,-58.5 501,-79.5 552,-79.5 552,-58.5 501,-58.5"/>
<text text-anchor="middle" x="526.5" y="-65.9" font-family="DejaVuSans" font-size="12.00">fonts.c</text>
</a>
</g>
</g>
<!-- Node1&#45;&gt;Node8 -->
<g id="edge7" class="edge">
<title>Node1&#45;&gt;Node8</title>
<path fill="none" stroke="midnightblue" d="M546.5,-107.34C541.53,-98.06 535.74,-87.24 531.67,-79.64"/>
<polygon fill="midnightblue" stroke="midnightblue" points="543.47,-109.08 551.27,-116.25 549.64,-105.78 543.47,-109.08"/>
</g>
<!-- Node9 -->
<g id="node9" class="node">
<title>Node9</title>
<g id="a_node9"><a xlink:href="io_8c.html" target="_top" xlink:title=" ">
<polygon fill="white" stroke="black" points="570,-58.5 570,-79.5 605,-79.5 605,-58.5 570,-58.5"/>
<text text-anchor="middle" x="587.5" y="-65.9" font-family="DejaVuSans" font-size="12.00">io.c</text>
</a>
</g>
</g>
<!-- Node1&#45;&gt;Node9 -->
<g id="edge8" class="edge">
<title>Node1&#45;&gt;Node9</title>
<path fill="none" stroke="midnightblue" d="M566.83,-107.34C571.97,-98.06 577.96,-87.24 582.16,-79.64"/>
<polygon fill="midnightblue" stroke="midnightblue" points="563.68,-105.8 561.9,-116.25 569.81,-109.19 563.68,-105.8"/>
</g>
<!-- Node10 -->
<g id="node10" class="node">
<title>Node10</title>
<g id="a_node10"><a xlink:href="lexer_8c.html" target="_top" xlink:title=" ">
<polygon fill="white" stroke="black" points="623,-58.5 623,-79.5 674,-79.5 674,-58.5 623,-58.5"/>
<text text-anchor="middle" x="648.5" y="-65.9" font-family="DejaVuSans" font-size="12.00">lexer.c</text>
</a>
</g>
</g>
<!-- Node1&#45;&gt;Node10 -->
<g id="edge9" class="edge">
<title>Node1&#45;&gt;Node10</title>
<path fill="none" stroke="midnightblue" d="M581.52,-110.77C597.83,-100.85 618.6,-88.2 632.66,-79.64"/>
<polygon fill="midnightblue" stroke="midnightblue" points="579.25,-108.06 572.53,-116.25 582.89,-114.04 579.25,-108.06"/>
</g>
<!-- Node11 -->
<g id="node11" class="node">
<title>Node11</title>
<g id="a_node11"><a xlink:href="printout_8c.html" target="_top" xlink:title=" ">
<polygon fill="white" stroke="black" points="692,-58.5 692,-79.5 757,-79.5 757,-58.5 692,-58.5"/>
<text text-anchor="middle" x="724.5" y="-65.9" font-family="DejaVuSans" font-size="12.00">printout.c</text>
</a>
</g>
</g>
<!-- Node1&#45;&gt;Node11 -->
<g id="edge10" class="edge">
<title>Node1&#45;&gt;Node11</title>
<path fill="none" stroke="midnightblue" d="M594.93,-113.19C625.71,-102.93 668.19,-88.77 696,-79.5"/>
<polygon fill="midnightblue" stroke="midnightblue" points="593.76,-109.89 585.38,-116.37 595.97,-116.53 593.76,-109.89"/>
</g>
<!-- Node12 -->
<g id="node12" class="node">
<title>Node12</title>
<g id="a_node12"><a xlink:href="scan_8c.html" target="_top" xlink:title=" ">
<polygon fill="white" stroke="black" points="775,-58.5 775,-79.5 826,-79.5 826,-58.5 775,-58.5"/>
<text text-anchor="middle" x="800.5" y="-65.9" font-family="DejaVuSans" font-size="12.00">scan.c</text>
</a>
</g>
</g>
<!-- Node1&#45;&gt;Node12 -->
<g id="edge11" class="edge">
<title>Node1&#45;&gt;Node12</title>
<path fill="none" stroke="midnightblue" d="M599.05,-117.6C641.62,-108.97 708.88,-94.76 766.5,-80 769.24,-79.3 772.1,-78.52 774.93,-77.73"/>
<polygon fill="midnightblue" stroke="midnightblue" points="598.16,-114.21 589.04,-119.61 599.54,-121.07 598.16,-114.21"/>
</g>
<!-- Node13 -->
<g id="node13" class="node">
<title>Node13</title>
<g id="a_node13"><a xlink:href="str_8c.html" target="_top" xlink:title=" ">
<polygon fill="white" stroke="black" points="844.5,-58.5 844.5,-79.5 882.5,-79.5 882.5,-58.5 844.5,-58.5"/>
<text text-anchor="middle" x="863.5" y="-65.9" font-family="DejaVuSans" font-size="12.00">str.c</text>
</a>
</g>
</g>
<!-- Node1&#45;&gt;Node13 -->
<g id="edge12" class="edge">
<title>Node1&#45;&gt;Node13</title>
<path fill="none" stroke="midnightblue" d="M599.22,-121.38C654.4,-114.85 753.12,-101.32 835.5,-80 838.4,-79.25 841.42,-78.33 844.36,-77.35"/>
<polygon fill="midnightblue" stroke="midnightblue" points="598.64,-117.92 589.11,-122.55 599.45,-124.87 598.64,-117.92"/>
</g>
<!-- Node14 -->
<g id="node14" class="node">
<title>Node14</title>
<g id="a_node14"><a xlink:href="tex__header_8h.html" target="_top" xlink:title=" ">
<polygon fill="white" stroke="black" points="900.5,-58.5 900.5,-79.5 986.5,-79.5 986.5,-58.5 900.5,-58.5"/>
<text text-anchor="middle" x="943.5" y="-65.9" font-family="DejaVuSans" font-size="12.00">tex_header.h</text>
</a>
</g>
</g>
<!-- Node1&#45;&gt;Node14 -->
<g id="edge13" class="edge">
<title>Node1&#45;&gt;Node14</title>
<path fill="none" stroke="midnightblue" d="M599.49,-120.84C663.35,-113.02 786.97,-97.21 891.5,-80 894.4,-79.52 897.39,-79.01 900.4,-78.47"/>
<polygon fill="midnightblue" stroke="midnightblue" points="598.9,-117.39 589.4,-122.08 599.75,-124.34 598.9,-117.39"/>
</g>
<!-- Node16 -->
<g id="node16" class="node">
<title>Node16</title>
<g id="a_node16"><a xlink:href="texmath_8c.html" target="_top" xlink:title=" ">
<polygon fill="white" stroke="black" points="1004.5,-58.5 1004.5,-79.5 1072.5,-79.5 1072.5,-58.5 1004.5,-58.5"/>
<text text-anchor="middle" x="1038.5" y="-65.9" font-family="DejaVuSans" font-size="12.00">texmath.c</text>
</a>
</g>
</g>
<!-- Node1&#45;&gt;Node16 -->
<g id="edge15" class="edge">
<title>Node1&#45;&gt;Node16</title>
<path fill="none" stroke="midnightblue" d="M599.21,-123.29C677.96,-117.91 851.21,-104.24 995.5,-80 998.37,-79.52 1001.34,-78.96 1004.31,-78.35"/>
<polygon fill="midnightblue" stroke="midnightblue" points="598.92,-119.8 589.18,-123.97 599.39,-126.79 598.92,-119.8"/>
</g>
<!-- Node15 -->
<g id="node15" class="node">
<title>Node15</title>
<g id="a_node15"><a xlink:href="tex_8c.html" target="_top" xlink:title=" ">
<polygon fill="white" stroke="black" points="923,-0.5 923,-21.5 964,-21.5 964,-0.5 923,-0.5"/>
<text text-anchor="middle" x="943.5" y="-7.9" font-family="DejaVuSans" font-size="12.00">tex.c</text>
</a>
</g>
</g>
<!-- Node14&#45;&gt;Node15 -->
<g id="edge14" class="edge">
<title>Node14&#45;&gt;Node15</title>
<path fill="none" stroke="midnightblue" d="M943.5,-48.16C943.5,-39.16 943.5,-28.92 943.5,-21.64"/>
<polygon fill="midnightblue" stroke="midnightblue" points="940,-48.25 943.5,-58.25 947,-48.25 940,-48.25"/>
</g>
</g>
</svg>
