<?xml version="1.0" encoding="UTF-8" standalone="no"?>
<!DOCTYPE svg PUBLIC "-//W3C//DTD SVG 1.1//EN"
 "http://www.w3.org/Graphics/SVG/1.1/DTD/svg11.dtd">
<!-- Generated by graphviz version 2.44.0 ()
 -->
<!-- Title: texfunc.h Pages: 1 -->
<svg width="1898pt" height="204pt"
 viewBox="0.00 0.00 1897.50 204.00" xmlns="http://www.w3.org/2000/svg" xmlns:xlink="http://www.w3.org/1999/xlink">
<g id="graph0" class="graph" transform="scale(1 1) rotate(0) translate(4 200)">
<title>texfunc.h</title>
<polygon fill="white" stroke="transparent" points="-4,4 -4,-200 1893.5,-200 1893.5,4 -4,4"/>
<!-- Node1 -->
<g id="node1" class="node">
<title>Node1</title>
<g id="a_node1"><a xlink:title=" ">
<polygon fill="#bfbfbf" stroke="black" points="918,-174.5 918,-195.5 983,-195.5 983,-174.5 918,-174.5"/>
<text text-anchor="middle" x="950.5" y="-181.9" font-family="DejaVuSans" font-size="12.00">texfunc.h</text>
</a>
</g>
</g>
<!-- Node2 -->
<g id="node2" class="node">
<title>Node2</title>
<g id="a_node2"><a xlink:href="align_8c.html" target="_top" xlink:title=" ">
<polygon fill="white" stroke="black" points="0,-58.5 0,-79.5 51,-79.5 51,-58.5 0,-58.5"/>
<text text-anchor="middle" x="25.5" y="-65.9" font-family="DejaVuSans" font-size="12.00">align.c</text>
</a>
</g>
</g>
<!-- Node1&#45;&gt;Node2 -->
<g id="edge1" class="edge">
<title>Node1&#45;&gt;Node2</title>
<path fill="none" stroke="midnightblue" d="M907.55,-183.32C767.51,-180.82 325.21,-170.46 186.5,-138 131.55,-125.14 71.46,-95.07 42.7,-79.59"/>
<polygon fill="midnightblue" stroke="midnightblue" points="907.81,-186.83 917.87,-183.5 907.93,-179.83 907.81,-186.83"/>
</g>
<!-- Node3 -->
<g id="node3" class="node">
<title>Node3</title>
<g id="a_node3"><a xlink:href="box__display_8c.html" target="_top" xlink:title=" ">
<polygon fill="white" stroke="black" points="422,-116.5 422,-137.5 511,-137.5 511,-116.5 422,-116.5"/>
<text text-anchor="middle" x="466.5" y="-123.9" font-family="DejaVuSans" font-size="12.00">box_display.c</text>
</a>
</g>
</g>
<!-- Node1&#45;&gt;Node3 -->
<g id="edge2" class="edge">
<title>Node1&#45;&gt;Node3</title>
<path fill="none" stroke="midnightblue" d="M907.42,-180.49C829.83,-173.93 661.52,-158.57 520.5,-138 517.48,-137.56 514.37,-137.07 511.25,-136.56"/>
<polygon fill="midnightblue" stroke="midnightblue" points="907.5,-184.01 917.76,-181.36 908.08,-177.03 907.5,-184.01"/>
</g>
<!-- Node4 -->
<g id="node4" class="node">
<title>Node4</title>
<g id="a_node4"><a xlink:href="debug_8c.html" target="_top" xlink:title=" ">
<polygon fill="white" stroke="black" points="529,-116.5 529,-137.5 588,-137.5 588,-116.5 529,-116.5"/>
<text text-anchor="middle" x="558.5" y="-123.9" font-family="DejaVuSans" font-size="12.00">debug.c</text>
</a>
</g>
</g>
<!-- Node1&#45;&gt;Node4 -->
<g id="edge3" class="edge">
<title>Node1&#45;&gt;Node4</title>
<path fill="none" stroke="midnightblue" d="M907.55,-180.1C840.82,-173.66 708.39,-159.36 597.5,-138 594.48,-137.42 591.35,-136.74 588.23,-136.02"/>
<polygon fill="midnightblue" stroke="midnightblue" points="907.39,-183.6 917.68,-181.07 908.06,-176.63 907.39,-183.6"/>
</g>
<!-- Node5 -->
<g id="node5" class="node">
<title>Node5</title>
<g id="a_node5"><a xlink:href="dviout_8c.html" target="_top" xlink:title=" ">
<polygon fill="white" stroke="black" points="606.5,-116.5 606.5,-137.5 664.5,-137.5 664.5,-116.5 606.5,-116.5"/>
<text text-anchor="middle" x="635.5" y="-123.9" font-family="DejaVuSans" font-size="12.00">dviout.c</text>
</a>
</g>
</g>
<!-- Node1&#45;&gt;Node5 -->
<g id="edge4" class="edge">
<title>Node1&#45;&gt;Node5</title>
<path fill="none" stroke="midnightblue" d="M907.63,-178.02C853.18,-170.16 756.44,-155.3 674.5,-138 671.35,-137.34 668.08,-136.59 664.82,-135.81"/>
<polygon fill="midnightblue" stroke="midnightblue" points="907.22,-181.5 917.61,-179.45 908.21,-174.57 907.22,-181.5"/>
</g>
<!-- Node6 -->
<g id="node6" class="node">
<title>Node6</title>
<g id="a_node6"><a xlink:href="eqtb_8c.html" target="_top" xlink:title=" ">
<polygon fill="white" stroke="black" points="683,-116.5 683,-137.5 732,-137.5 732,-116.5 683,-116.5"/>
<text text-anchor="middle" x="707.5" y="-123.9" font-family="DejaVuSans" font-size="12.00">eqtb.c</text>
</a>
</g>
</g>
<!-- Node1&#45;&gt;Node6 -->
<g id="edge5" class="edge">
<title>Node1&#45;&gt;Node6</title>
<path fill="none" stroke="midnightblue" d="M907.78,-175.5C865.4,-166.86 798.68,-152.68 741.5,-138 738.52,-137.23 735.41,-136.39 732.33,-135.52"/>
<polygon fill="midnightblue" stroke="midnightblue" points="907.26,-178.97 917.75,-177.53 908.65,-172.11 907.26,-178.97"/>
</g>
<!-- Node7 -->
<g id="node7" class="node">
<title>Node7</title>
<g id="a_node7"><a xlink:href="eqtb__save_8c.html" target="_top" xlink:title=" ">
<polygon fill="white" stroke="black" points="750,-116.5 750,-137.5 831,-137.5 831,-116.5 750,-116.5"/>
<text text-anchor="middle" x="790.5" y="-123.9" font-family="DejaVuSans" font-size="12.00">eqtb_save.c</text>
</a>
</g>
</g>
<!-- Node1&#45;&gt;Node7 -->
<g id="edge6" class="edge">
<title>Node1&#45;&gt;Node7</title>
<path fill="none" stroke="midnightblue" d="M913.52,-171.06C884.24,-160.81 844.01,-146.73 817.65,-137.5"/>
<polygon fill="midnightblue" stroke="midnightblue" points="912.4,-174.37 923,-174.37 914.71,-167.77 912.4,-174.37"/>
</g>
<!-- Node8 -->
<g id="node8" class="node">
<title>Node8</title>
<g id="a_node8"><a xlink:href="error_8c.html" target="_top" xlink:title=" ">
<polygon fill="white" stroke="black" points="849.5,-116.5 849.5,-137.5 899.5,-137.5 899.5,-116.5 849.5,-116.5"/>
<text text-anchor="middle" x="874.5" y="-123.9" font-family="DejaVuSans" font-size="12.00">error.c</text>
</a>
</g>
</g>
<!-- Node1&#45;&gt;Node8 -->
<g id="edge7" class="edge">
<title>Node1&#45;&gt;Node8</title>
<path fill="none" stroke="midnightblue" d="M929.07,-168.21C915.72,-158.37 898.98,-146.04 887.59,-137.64"/>
<polygon fill="midnightblue" stroke="midnightblue" points="927.14,-171.13 937.26,-174.25 931.29,-165.5 927.14,-171.13"/>
</g>
<!-- Node9 -->
<g id="node9" class="node">
<title>Node9</title>
<g id="a_node9"><a xlink:href="expand_8c.html" target="_top" xlink:title=" ">
<polygon fill="white" stroke="black" points="918,-116.5 918,-137.5 983,-137.5 983,-116.5 918,-116.5"/>
<text text-anchor="middle" x="950.5" y="-123.9" font-family="DejaVuSans" font-size="12.00">expand.c</text>
</a>
</g>
</g>
<!-- Node1&#45;&gt;Node9 -->
<g id="edge8" class="edge">
<title>Node1&#45;&gt;Node9</title>
<path fill="none" stroke="midnightblue" d="M950.5,-164.16C950.5,-155.16 950.5,-144.92 950.5,-137.64"/>
<polygon fill="midnightblue" stroke="midnightblue" points="947,-164.25 950.5,-174.25 954,-164.25 947,-164.25"/>
</g>
<!-- Node10 -->
<g id="node10" class="node">
<title>Node10</title>
<g id="a_node10"><a xlink:href="extension_8c.html" target="_top" xlink:title=" ">
<polygon fill="white" stroke="black" points="69,-58.5 69,-79.5 146,-79.5 146,-58.5 69,-58.5"/>
<text text-anchor="middle" x="107.5" y="-65.9" font-family="DejaVuSans" font-size="12.00">extension.c</text>
</a>
</g>
</g>
<!-- Node1&#45;&gt;Node10 -->
<g id="edge9" class="edge">
<title>Node1&#45;&gt;Node10</title>
<path fill="none" stroke="midnightblue" d="M907.64,-183.41C774.69,-181.24 370.66,-171.95 244.5,-138 196.81,-125.16 146.1,-95.08 121.93,-79.59"/>
<polygon fill="midnightblue" stroke="midnightblue" points="907.78,-186.91 917.83,-183.57 907.89,-179.92 907.78,-186.91"/>
</g>
<!-- Node11 -->
<g id="node11" class="node">
<title>Node11</title>
<g id="a_node11"><a xlink:href="fonts_8c.html" target="_top" xlink:title=" ">
<polygon fill="white" stroke="black" points="1001,-116.5 1001,-137.5 1052,-137.5 1052,-116.5 1001,-116.5"/>
<text text-anchor="middle" x="1026.5" y="-123.9" font-family="DejaVuSans" font-size="12.00">fonts.c</text>
</a>
</g>
</g>
<!-- Node1&#45;&gt;Node11 -->
<g id="edge10" class="edge">
<title>Node1&#45;&gt;Node11</title>
<path fill="none" stroke="midnightblue" d="M971.93,-168.21C985.28,-158.37 1002.02,-146.04 1013.41,-137.64"/>
<polygon fill="midnightblue" stroke="midnightblue" points="969.71,-165.5 963.74,-174.25 973.86,-171.13 969.71,-165.5"/>
</g>
<!-- Node12 -->
<g id="node12" class="node">
<title>Node12</title>
<g id="a_node12"><a xlink:href="hyphen__init_8c.html" target="_top" xlink:title=" ">
<polygon fill="white" stroke="black" points="1069.5,-116.5 1069.5,-137.5 1157.5,-137.5 1157.5,-116.5 1069.5,-116.5"/>
<text text-anchor="middle" x="1113.5" y="-123.9" font-family="DejaVuSans" font-size="12.00">hyphen_init.c</text>
</a>
</g>
</g>
<!-- Node1&#45;&gt;Node12 -->
<g id="edge11" class="edge">
<title>Node1&#45;&gt;Node12</title>
<path fill="none" stroke="midnightblue" d="M988.17,-171.06C1018,-160.81 1058.99,-146.73 1085.84,-137.5"/>
<polygon fill="midnightblue" stroke="midnightblue" points="986.84,-167.81 978.52,-174.37 989.12,-174.43 986.84,-167.81"/>
</g>
<!-- Node13 -->
<g id="node13" class="node">
<title>Node13</title>
<g id="a_node13"><a xlink:href="hyphen__pre_8c.html" target="_top" xlink:title=" ">
<polygon fill="white" stroke="black" points="1175,-116.5 1175,-137.5 1264,-137.5 1264,-116.5 1175,-116.5"/>
<text text-anchor="middle" x="1219.5" y="-123.9" font-family="DejaVuSans" font-size="12.00">hyphen_pre.c</text>
</a>
</g>
</g>
<!-- Node1&#45;&gt;Node13 -->
<g id="edge12" class="edge">
<title>Node1&#45;&gt;Node13</title>
<path fill="none" stroke="midnightblue" d="M993.31,-175.09C1043,-164.74 1124.55,-147.77 1174.96,-137.27"/>
<polygon fill="midnightblue" stroke="midnightblue" points="992.29,-171.72 983.22,-177.19 993.72,-178.58 992.29,-171.72"/>
</g>
<!-- Node14 -->
<g id="node14" class="node">
<title>Node14</title>
<g id="a_node14"><a xlink:href="io_8c.html" target="_top" xlink:title=" ">
<polygon fill="white" stroke="black" points="1282,-116.5 1282,-137.5 1317,-137.5 1317,-116.5 1282,-116.5"/>
<text text-anchor="middle" x="1299.5" y="-123.9" font-family="DejaVuSans" font-size="12.00">io.c</text>
</a>
</g>
</g>
<!-- Node1&#45;&gt;Node14 -->
<g id="edge13" class="edge">
<title>Node1&#45;&gt;Node14</title>
<path fill="none" stroke="midnightblue" d="M993.32,-180.99C1055.74,-175.92 1175.04,-163.6 1273.5,-138 1276.21,-137.29 1279.03,-136.4 1281.77,-135.43"/>
<polygon fill="midnightblue" stroke="midnightblue" points="992.76,-177.53 983.07,-181.8 993.31,-184.5 992.76,-177.53"/>
</g>
<!-- Node15 -->
<g id="node15" class="node">
<title>Node15</title>
<g id="a_node15"><a xlink:href="lexer_8c.html" target="_top" xlink:title=" ">
<polygon fill="white" stroke="black" points="1335,-116.5 1335,-137.5 1386,-137.5 1386,-116.5 1335,-116.5"/>
<text text-anchor="middle" x="1360.5" y="-123.9" font-family="DejaVuSans" font-size="12.00">lexer.c</text>
</a>
</g>
</g>
<!-- Node1&#45;&gt;Node15 -->
<g id="edge14" class="edge">
<title>Node1&#45;&gt;Node15</title>
<path fill="none" stroke="midnightblue" d="M993.46,-181.05C1063.68,-175.72 1207.2,-162.67 1326.5,-138 1329.27,-137.43 1332.15,-136.74 1334.99,-135.99"/>
<polygon fill="midnightblue" stroke="midnightblue" points="992.95,-177.58 983.23,-181.81 993.46,-184.56 992.95,-177.58"/>
</g>
<!-- Node16 -->
<g id="node16" class="node">
<title>Node16</title>
<g id="a_node16"><a xlink:href="linebreak_8c.html" target="_top" xlink:title=" ">
<polygon fill="white" stroke="black" points="1404.5,-116.5 1404.5,-137.5 1478.5,-137.5 1478.5,-116.5 1404.5,-116.5"/>
<text text-anchor="middle" x="1441.5" y="-123.9" font-family="DejaVuSans" font-size="12.00">linebreak.c</text>
</a>
</g>
</g>
<!-- Node1&#45;&gt;Node16 -->
<g id="edge15" class="edge">
<title>Node1&#45;&gt;Node16</title>
<path fill="none" stroke="midnightblue" d="M993.16,-181.17C1072.65,-175.56 1248.7,-161.47 1395.5,-138 1398.41,-137.54 1401.4,-137 1404.41,-136.43"/>
<polygon fill="midnightblue" stroke="midnightblue" points="992.78,-177.69 983.05,-181.88 993.27,-184.68 992.78,-177.69"/>
</g>
<!-- Node17 -->
<g id="node17" class="node">
<title>Node17</title>
<g id="a_node17"><a xlink:href="main__ctrl_8h.html" target="_top" xlink:title=" ">
<polygon fill="white" stroke="black" points="253.5,-116.5 253.5,-137.5 327.5,-137.5 327.5,-116.5 253.5,-116.5"/>
<text text-anchor="middle" x="290.5" y="-123.9" font-family="DejaVuSans" font-size="12.00">main_ctrl.h</text>
</a>
</g>
</g>
<!-- Node1&#45;&gt;Node17 -->
<g id="edge16" class="edge">
<title>Node1&#45;&gt;Node17</title>
<path fill="none" stroke="midnightblue" d="M907.39,-182.5C807.5,-178.63 552.62,-166.57 341.5,-138 337.03,-137.4 332.36,-136.64 327.74,-135.83"/>
<polygon fill="midnightblue" stroke="midnightblue" points="907.55,-186 917.68,-182.89 907.82,-179.01 907.55,-186"/>
</g>
<!-- Node22 -->
<g id="node22" class="node">
<title>Node22</title>
<g id="a_node22"><a xlink:href="page__builder_8c.html" target="_top" xlink:title=" ">
<polygon fill="white" stroke="black" points="523,-58.5 523,-79.5 618,-79.5 618,-58.5 523,-58.5"/>
<text text-anchor="middle" x="570.5" y="-65.9" font-family="DejaVuSans" font-size="12.00">page_builder.c</text>
</a>
</g>
</g>
<!-- Node1&#45;&gt;Node22 -->
<g id="edge30" class="edge">
<title>Node1&#45;&gt;Node22</title>
<path fill="none" stroke="midnightblue" d="M907.48,-183.83C780.39,-182.87 413.26,-176.74 377.5,-138 370.87,-130.81 371.44,-123.67 377.5,-116 382.12,-110.15 468.63,-91.2 524.25,-79.53"/>
<polygon fill="midnightblue" stroke="midnightblue" points="907.59,-187.33 917.62,-183.9 907.64,-180.33 907.59,-187.33"/>
</g>
<!-- Node23 -->
<g id="node23" class="node">
<title>Node23</title>
<g id="a_node23"><a xlink:href="tex__header_8h.html" target="_top" xlink:title=" ">
<polygon fill="white" stroke="black" points="636.5,-58.5 636.5,-79.5 722.5,-79.5 722.5,-58.5 636.5,-58.5"/>
<text text-anchor="middle" x="679.5" y="-65.9" font-family="DejaVuSans" font-size="12.00">tex_header.h</text>
</a>
</g>
</g>
<!-- Node1&#45;&gt;Node23 -->
<g id="edge34" class="edge">
<title>Node1&#45;&gt;Node23</title>
<path fill="none" stroke="midnightblue" d="M907.73,-183.58C786.41,-181.95 446.7,-174.17 413.5,-138 363.82,-83.88 284.96,-141.74 627.5,-80 630.4,-79.48 633.38,-78.93 636.38,-78.37"/>
<polygon fill="midnightblue" stroke="midnightblue" points="907.72,-187.08 917.77,-183.71 907.81,-180.08 907.72,-187.08"/>
</g>
<!-- Node25 -->
<g id="node25" class="node">
<title>Node25</title>
<g id="a_node25"><a xlink:href="math__formula_8c.html" target="_top" xlink:title=" ">
<polygon fill="white" stroke="black" points="1496.5,-116.5 1496.5,-137.5 1594.5,-137.5 1594.5,-116.5 1496.5,-116.5"/>
<text text-anchor="middle" x="1545.5" y="-123.9" font-family="DejaVuSans" font-size="12.00">math_formula.c</text>
</a>
</g>
</g>
<!-- Node1&#45;&gt;Node25 -->
<g id="edge29" class="edge">
<title>Node1&#45;&gt;Node25</title>
<path fill="none" stroke="midnightblue" d="M993.52,-181.56C1084.8,-176.12 1304.5,-161.57 1487.5,-138 1490.44,-137.62 1493.46,-137.2 1496.5,-136.75"/>
<polygon fill="midnightblue" stroke="midnightblue" points="993.07,-178.08 983.29,-182.17 993.48,-185.07 993.07,-178.08"/>
</g>
<!-- Node26 -->
<g id="node26" class="node">
<title>Node26</title>
<g id="a_node26"><a xlink:href="printout_8c.html" target="_top" xlink:title=" ">
<polygon fill="white" stroke="black" points="1613,-116.5 1613,-137.5 1678,-137.5 1678,-116.5 1613,-116.5"/>
<text text-anchor="middle" x="1645.5" y="-123.9" font-family="DejaVuSans" font-size="12.00">printout.c</text>
</a>
</g>
</g>
<!-- Node1&#45;&gt;Node26 -->
<g id="edge31" class="edge">
<title>Node1&#45;&gt;Node26</title>
<path fill="none" stroke="midnightblue" d="M993.51,-183.4C1098.39,-181.39 1375.42,-172.95 1603.5,-138 1606.46,-137.55 1609.53,-136.99 1612.59,-136.37"/>
<polygon fill="midnightblue" stroke="midnightblue" points="993.26,-179.9 983.32,-183.58 993.39,-186.9 993.26,-179.9"/>
</g>
<!-- Node27 -->
<g id="node27" class="node">
<title>Node27</title>
<g id="a_node27"><a xlink:href="scan_8c.html" target="_top" xlink:title=" ">
<polygon fill="white" stroke="black" points="1696,-116.5 1696,-137.5 1747,-137.5 1747,-116.5 1696,-116.5"/>
<text text-anchor="middle" x="1721.5" y="-123.9" font-family="DejaVuSans" font-size="12.00">scan.c</text>
</a>
</g>
</g>
<!-- Node1&#45;&gt;Node27 -->
<g id="edge32" class="edge">
<title>Node1&#45;&gt;Node27</title>
<path fill="none" stroke="midnightblue" d="M993.18,-184.65C1106.97,-185.68 1426.71,-183.89 1687.5,-138 1690.17,-137.53 1692.92,-136.93 1695.65,-136.25"/>
<polygon fill="midnightblue" stroke="midnightblue" points="993.17,-181.15 983.13,-184.55 993.1,-188.15 993.17,-181.15"/>
</g>
<!-- Node28 -->
<g id="node28" class="node">
<title>Node28</title>
<g id="a_node28"><a xlink:href="str_8c.html" target="_top" xlink:title=" ">
<polygon fill="white" stroke="black" points="1765.5,-116.5 1765.5,-137.5 1803.5,-137.5 1803.5,-116.5 1765.5,-116.5"/>
<text text-anchor="middle" x="1784.5" y="-123.9" font-family="DejaVuSans" font-size="12.00">str.c</text>
</a>
</g>
</g>
<!-- Node1&#45;&gt;Node28 -->
<g id="edge33" class="edge">
<title>Node1&#45;&gt;Node28</title>
<path fill="none" stroke="midnightblue" d="M993.31,-183.17C1138.06,-180.1 1608.42,-168.02 1756.5,-138 1759.43,-137.41 1762.48,-136.57 1765.43,-135.63"/>
<polygon fill="midnightblue" stroke="midnightblue" points="992.99,-179.67 983.07,-183.38 993.14,-186.67 992.99,-179.67"/>
</g>
<!-- Node29 -->
<g id="node29" class="node">
<title>Node29</title>
<g id="a_node29"><a xlink:href="texmath_8c.html" target="_top" xlink:title=" ">
<polygon fill="white" stroke="black" points="1821.5,-116.5 1821.5,-137.5 1889.5,-137.5 1889.5,-116.5 1821.5,-116.5"/>
<text text-anchor="middle" x="1855.5" y="-123.9" font-family="DejaVuSans" font-size="12.00">texmath.c</text>
</a>
</g>
</g>
<!-- Node1&#45;&gt;Node29 -->
<g id="edge35" class="edge">
<title>Node1&#45;&gt;Node29</title>
<path fill="none" stroke="midnightblue" d="M993.2,-184.36C1119.25,-184.85 1500.4,-182.27 1812.5,-138 1815.38,-137.59 1818.36,-137.08 1821.33,-136.51"/>
<polygon fill="midnightblue" stroke="midnightblue" points="993.2,-180.86 983.19,-184.31 993.17,-187.86 993.2,-180.86"/>
</g>
<!-- Node17&#45;&gt;Node2 -->
<g id="edge17" class="edge">
<title>Node17&#45;&gt;Node2</title>
<path fill="none" stroke="midnightblue" d="M243.61,-117.93C196.74,-109.57 122.76,-95.57 59.5,-80 56.75,-79.32 53.89,-78.57 51.05,-77.78"/>
<polygon fill="midnightblue" stroke="midnightblue" points="243.01,-121.38 253.47,-119.68 244.23,-114.49 243.01,-121.38"/>
</g>
<!-- Node17&#45;&gt;Node10 -->
<g id="edge22" class="edge">
<title>Node17&#45;&gt;Node10</title>
<path fill="none" stroke="midnightblue" d="M249.08,-113.32C215.51,-103.05 168.97,-88.81 138.55,-79.5"/>
<polygon fill="midnightblue" stroke="midnightblue" points="248.45,-116.79 259.04,-116.37 250.5,-110.1 248.45,-116.79"/>
</g>
<!-- Node18 -->
<g id="node18" class="node">
<title>Node18</title>
<g id="a_node18"><a xlink:href="build__box_8c.html" target="_top" xlink:title=" ">
<polygon fill="white" stroke="black" points="203,-58.5 203,-79.5 280,-79.5 280,-58.5 203,-58.5"/>
<text text-anchor="middle" x="241.5" y="-65.9" font-family="DejaVuSans" font-size="12.00">build_box.c</text>
</a>
</g>
</g>
<!-- Node17&#45;&gt;Node18 -->
<g id="edge18" class="edge">
<title>Node17&#45;&gt;Node18</title>
<path fill="none" stroke="midnightblue" d="M275.19,-108.5C266.86,-98.98 256.86,-87.56 249.94,-79.64"/>
<polygon fill="midnightblue" stroke="midnightblue" points="272.75,-111.02 281.96,-116.25 278.01,-106.41 272.75,-111.02"/>
</g>
<!-- Node19 -->
<g id="node19" class="node">
<title>Node19</title>
<g id="a_node19"><a xlink:href="main__ctrl_8c.html" target="_top" xlink:title=" ">
<polygon fill="white" stroke="black" points="254.5,-0.5 254.5,-21.5 328.5,-21.5 328.5,-0.5 254.5,-0.5"/>
<text text-anchor="middle" x="291.5" y="-7.9" font-family="DejaVuSans" font-size="12.00">main_ctrl.c</text>
</a>
</g>
</g>
<!-- Node17&#45;&gt;Node19 -->
<g id="edge25" class="edge">
<title>Node17&#45;&gt;Node19</title>
<path fill="none" stroke="midnightblue" d="M243.48,-113.25C211.38,-101.99 177.36,-83.41 193.5,-58 206.8,-37.06 232.44,-25.48 254.16,-19.18"/>
<polygon fill="midnightblue" stroke="midnightblue" points="242.73,-116.68 253.32,-116.5 244.93,-110.04 242.73,-116.68"/>
</g>
<!-- Node20 -->
<g id="node20" class="node">
<title>Node20</title>
<g id="a_node20"><a xlink:href="build__math_8c.html" target="_top" xlink:title=" ">
<polygon fill="white" stroke="black" points="298.5,-58.5 298.5,-79.5 382.5,-79.5 382.5,-58.5 298.5,-58.5"/>
<text text-anchor="middle" x="340.5" y="-65.9" font-family="DejaVuSans" font-size="12.00">build_math.c</text>
</a>
</g>
</g>
<!-- Node17&#45;&gt;Node20 -->
<g id="edge20" class="edge">
<title>Node17&#45;&gt;Node20</title>
<path fill="none" stroke="midnightblue" d="M306.12,-108.5C314.63,-98.98 324.82,-87.56 331.89,-79.64"/>
<polygon fill="midnightblue" stroke="midnightblue" points="303.26,-106.46 299.21,-116.25 308.48,-111.12 303.26,-106.46"/>
</g>
<!-- Node21 -->
<g id="node21" class="node">
<title>Node21</title>
<g id="a_node21"><a xlink:href="indep__process_8c.html" target="_top" xlink:title=" ">
<polygon fill="white" stroke="black" points="400.5,-58.5 400.5,-79.5 504.5,-79.5 504.5,-58.5 400.5,-58.5"/>
<text text-anchor="middle" x="452.5" y="-65.9" font-family="DejaVuSans" font-size="12.00">indep_process.c</text>
</a>
</g>
</g>
<!-- Node17&#45;&gt;Node21 -->
<g id="edge23" class="edge">
<title>Node17&#45;&gt;Node21</title>
<path fill="none" stroke="midnightblue" d="M327.94,-113.06C357.59,-102.81 398.32,-88.73 425.01,-79.5"/>
<polygon fill="midnightblue" stroke="midnightblue" points="326.66,-109.8 318.35,-116.37 328.94,-116.41 326.66,-109.8"/>
</g>
<!-- Node17&#45;&gt;Node22 -->
<g id="edge26" class="edge">
<title>Node17&#45;&gt;Node22</title>
<path fill="none" stroke="midnightblue" d="M337.55,-116.59C389.04,-106.29 471.13,-89.87 522.85,-79.53"/>
<polygon fill="midnightblue" stroke="midnightblue" points="336.8,-113.17 327.68,-118.56 338.17,-120.03 336.8,-113.17"/>
</g>
<!-- Node17&#45;&gt;Node23 -->
<g id="edge27" class="edge">
<title>Node17&#45;&gt;Node23</title>
<path fill="none" stroke="midnightblue" d="M338,-120.34C403.36,-112.37 524.62,-96.9 627.5,-80 630.4,-79.52 633.39,-79.01 636.4,-78.47"/>
<polygon fill="midnightblue" stroke="midnightblue" points="337.51,-116.88 328,-121.56 338.35,-123.83 337.51,-116.88"/>
</g>
<!-- Node18&#45;&gt;Node19 -->
<g id="edge19" class="edge">
<title>Node18&#45;&gt;Node19</title>
<path fill="none" stroke="midnightblue" d="M257.12,-50.5C265.63,-40.98 275.82,-29.56 282.89,-21.64"/>
<polygon fill="midnightblue" stroke="midnightblue" points="254.26,-48.46 250.21,-58.25 259.48,-53.12 254.26,-48.46"/>
</g>
<!-- Node20&#45;&gt;Node19 -->
<g id="edge21" class="edge">
<title>Node20&#45;&gt;Node19</title>
<path fill="none" stroke="midnightblue" d="M325.19,-50.5C316.86,-40.98 306.86,-29.56 299.94,-21.64"/>
<polygon fill="midnightblue" stroke="midnightblue" points="322.75,-53.02 331.96,-58.25 328.01,-48.41 322.75,-53.02"/>
</g>
<!-- Node21&#45;&gt;Node19 -->
<g id="edge24" class="edge">
<title>Node21&#45;&gt;Node19</title>
<path fill="none" stroke="midnightblue" d="M415.29,-55.06C385.82,-44.81 345.35,-30.73 318.82,-21.5"/>
<polygon fill="midnightblue" stroke="midnightblue" points="414.23,-58.39 424.82,-58.37 416.53,-51.78 414.23,-58.39"/>
</g>
<!-- Node24 -->
<g id="node24" class="node">
<title>Node24</title>
<g id="a_node24"><a xlink:href="tex_8c.html" target="_top" xlink:title=" ">
<polygon fill="white" stroke="black" points="659,-0.5 659,-21.5 700,-21.5 700,-0.5 659,-0.5"/>
<text text-anchor="middle" x="679.5" y="-7.9" font-family="DejaVuSans" font-size="12.00">tex.c</text>
</a>
</g>
</g>
<!-- Node23&#45;&gt;Node24 -->
<g id="edge28" class="edge">
<title>Node23&#45;&gt;Node24</title>
<path fill="none" stroke="midnightblue" d="M679.5,-48.16C679.5,-39.16 679.5,-28.92 679.5,-21.64"/>
<polygon fill="midnightblue" stroke="midnightblue" points="676,-48.25 679.5,-58.25 683,-48.25 676,-48.25"/>
</g>
</g>
</svg>
