<?xml version="1.0" encoding="UTF-8" standalone="no"?>
<!DOCTYPE svg PUBLIC "-//W3C//DTD SVG 1.1//EN"
 "http://www.w3.org/Graphics/SVG/1.1/DTD/svg11.dtd">
<!-- Generated by graphviz version 2.44.0 ()
 -->
<!-- Title: texfunc.h Pages: 1 -->
<svg width="1005pt" height="146pt"
 viewBox="0.00 0.00 1004.50 146.00" xmlns="http://www.w3.org/2000/svg" xmlns:xlink="http://www.w3.org/1999/xlink">
<g id="graph0" class="graph" transform="scale(1 1) rotate(0) translate(4 142)">
<title>texfunc.h</title>
<polygon fill="white" stroke="transparent" points="-4,4 -4,-142 1000.5,-142 1000.5,4 -4,4"/>
<!-- Node1 -->
<g id="node1" class="node">
<title>Node1</title>
<g id="a_node1"><a xlink:title=" ">
<polygon fill="#bfbfbf" stroke="black" points="479,-116.5 479,-137.5 544,-137.5 544,-116.5 479,-116.5"/>
<text text-anchor="middle" x="511.5" y="-123.9" font-family="DejaVuSans" font-size="12.00">texfunc.h</text>
</a>
</g>
</g>
<!-- Node2 -->
<g id="node2" class="node">
<title>Node2</title>
<g id="a_node2"><a xlink:href="box__display_8c.html" target="_top" xlink:title=" ">
<polygon fill="white" stroke="black" points="0,-58.5 0,-79.5 89,-79.5 89,-58.5 0,-58.5"/>
<text text-anchor="middle" x="44.5" y="-65.9" font-family="DejaVuSans" font-size="12.00">box_display.c</text>
</a>
</g>
</g>
<!-- Node1&#45;&gt;Node2 -->
<g id="edge1" class="edge">
<title>Node1&#45;&gt;Node2</title>
<path fill="none" stroke="midnightblue" d="M468.71,-122.26C393.58,-115.47 233.12,-99.93 98.5,-80 95.48,-79.55 92.37,-79.06 89.25,-78.54"/>
<polygon fill="midnightblue" stroke="midnightblue" points="468.46,-125.75 478.74,-123.16 469.09,-118.78 468.46,-125.75"/>
</g>
<!-- Node3 -->
<g id="node3" class="node">
<title>Node3</title>
<g id="a_node3"><a xlink:href="eqtb_8c.html" target="_top" xlink:title=" ">
<polygon fill="white" stroke="black" points="107,-58.5 107,-79.5 156,-79.5 156,-58.5 107,-58.5"/>
<text text-anchor="middle" x="131.5" y="-65.9" font-family="DejaVuSans" font-size="12.00">eqtb.c</text>
</a>
</g>
</g>
<!-- Node1&#45;&gt;Node3 -->
<g id="edge2" class="edge">
<title>Node1&#45;&gt;Node3</title>
<path fill="none" stroke="midnightblue" d="M468.8,-122.45C403.11,-116.52 273.53,-102.93 165.5,-80 162.49,-79.36 159.36,-78.59 156.27,-77.76"/>
<polygon fill="midnightblue" stroke="midnightblue" points="468.51,-125.94 478.78,-123.34 469.13,-118.97 468.51,-125.94"/>
</g>
<!-- Node4 -->
<g id="node4" class="node">
<title>Node4</title>
<g id="a_node4"><a xlink:href="eqtb__save_8c.html" target="_top" xlink:title=" ">
<polygon fill="white" stroke="black" points="174,-58.5 174,-79.5 255,-79.5 255,-58.5 174,-58.5"/>
<text text-anchor="middle" x="214.5" y="-65.9" font-family="DejaVuSans" font-size="12.00">eqtb_save.c</text>
</a>
</g>
</g>
<!-- Node1&#45;&gt;Node4 -->
<g id="edge3" class="edge">
<title>Node1&#45;&gt;Node4</title>
<path fill="none" stroke="midnightblue" d="M468.73,-118.21C419.46,-109.2 336.07,-93.82 264.5,-80 261.46,-79.41 258.31,-78.8 255.15,-78.18"/>
<polygon fill="midnightblue" stroke="midnightblue" points="468.25,-121.68 478.71,-120.04 469.5,-114.8 468.25,-121.68"/>
</g>
<!-- Node5 -->
<g id="node5" class="node">
<title>Node5</title>
<g id="a_node5"><a xlink:href="error_8c.html" target="_top" xlink:title=" ">
<polygon fill="white" stroke="black" points="273.5,-58.5 273.5,-79.5 323.5,-79.5 323.5,-58.5 273.5,-58.5"/>
<text text-anchor="middle" x="298.5" y="-65.9" font-family="DejaVuSans" font-size="12.00">error.c</text>
</a>
</g>
</g>
<!-- Node1&#45;&gt;Node5 -->
<g id="edge4" class="edge">
<title>Node1&#45;&gt;Node5</title>
<path fill="none" stroke="midnightblue" d="M469.24,-115.4C433.13,-106.27 379.81,-92.6 333.5,-80 330.33,-79.14 327,-78.21 323.71,-77.29"/>
<polygon fill="midnightblue" stroke="midnightblue" points="468.4,-118.8 478.95,-117.85 470.11,-112.01 468.4,-118.8"/>
</g>
<!-- Node6 -->
<g id="node6" class="node">
<title>Node6</title>
<g id="a_node6"><a xlink:href="expand_8c.html" target="_top" xlink:title=" ">
<polygon fill="white" stroke="black" points="342,-58.5 342,-79.5 407,-79.5 407,-58.5 342,-58.5"/>
<text text-anchor="middle" x="374.5" y="-65.9" font-family="DejaVuSans" font-size="12.00">expand.c</text>
</a>
</g>
</g>
<!-- Node1&#45;&gt;Node6 -->
<g id="edge5" class="edge">
<title>Node1&#45;&gt;Node6</title>
<path fill="none" stroke="midnightblue" d="M478.52,-112.52C453.57,-102.32 419.93,-88.57 397.74,-79.5"/>
<polygon fill="midnightblue" stroke="midnightblue" points="477.37,-115.83 487.95,-116.37 480.02,-109.35 477.37,-115.83"/>
</g>
<!-- Node7 -->
<g id="node7" class="node">
<title>Node7</title>
<g id="a_node7"><a xlink:href="fonts_8c.html" target="_top" xlink:title=" ">
<polygon fill="white" stroke="black" points="425,-58.5 425,-79.5 476,-79.5 476,-58.5 425,-58.5"/>
<text text-anchor="middle" x="450.5" y="-65.9" font-family="DejaVuSans" font-size="12.00">fonts.c</text>
</a>
</g>
</g>
<!-- Node1&#45;&gt;Node7 -->
<g id="edge6" class="edge">
<title>Node1&#45;&gt;Node7</title>
<path fill="none" stroke="midnightblue" d="M493.38,-109.36C482.82,-99.67 469.89,-87.8 461,-79.64"/>
<polygon fill="midnightblue" stroke="midnightblue" points="491.14,-112.06 500.87,-116.25 495.88,-106.9 491.14,-112.06"/>
</g>
<!-- Node8 -->
<g id="node8" class="node">
<title>Node8</title>
<g id="a_node8"><a xlink:href="io_8c.html" target="_top" xlink:title=" ">
<polygon fill="white" stroke="black" points="494,-58.5 494,-79.5 529,-79.5 529,-58.5 494,-58.5"/>
<text text-anchor="middle" x="511.5" y="-65.9" font-family="DejaVuSans" font-size="12.00">io.c</text>
</a>
</g>
</g>
<!-- Node1&#45;&gt;Node8 -->
<g id="edge7" class="edge">
<title>Node1&#45;&gt;Node8</title>
<path fill="none" stroke="midnightblue" d="M511.5,-106.16C511.5,-97.16 511.5,-86.92 511.5,-79.64"/>
<polygon fill="midnightblue" stroke="midnightblue" points="508,-106.25 511.5,-116.25 515,-106.25 508,-106.25"/>
</g>
<!-- Node9 -->
<g id="node9" class="node">
<title>Node9</title>
<g id="a_node9"><a xlink:href="lexer_8c.html" target="_top" xlink:title=" ">
<polygon fill="white" stroke="black" points="547,-58.5 547,-79.5 598,-79.5 598,-58.5 547,-58.5"/>
<text text-anchor="middle" x="572.5" y="-65.9" font-family="DejaVuSans" font-size="12.00">lexer.c</text>
</a>
</g>
</g>
<!-- Node1&#45;&gt;Node9 -->
<g id="edge8" class="edge">
<title>Node1&#45;&gt;Node9</title>
<path fill="none" stroke="midnightblue" d="M529.62,-109.36C540.18,-99.67 553.11,-87.8 562,-79.64"/>
<polygon fill="midnightblue" stroke="midnightblue" points="527.12,-106.9 522.13,-116.25 531.86,-112.06 527.12,-106.9"/>
</g>
<!-- Node10 -->
<g id="node10" class="node">
<title>Node10</title>
<g id="a_node10"><a xlink:href="printout_8c.html" target="_top" xlink:title=" ">
<polygon fill="white" stroke="black" points="616,-58.5 616,-79.5 681,-79.5 681,-58.5 616,-58.5"/>
<text text-anchor="middle" x="648.5" y="-65.9" font-family="DejaVuSans" font-size="12.00">printout.c</text>
</a>
</g>
</g>
<!-- Node1&#45;&gt;Node10 -->
<g id="edge9" class="edge">
<title>Node1&#45;&gt;Node10</title>
<path fill="none" stroke="midnightblue" d="M544.48,-112.52C569.43,-102.32 603.07,-88.57 625.26,-79.5"/>
<polygon fill="midnightblue" stroke="midnightblue" points="542.98,-109.35 535.05,-116.37 545.63,-115.83 542.98,-109.35"/>
</g>
<!-- Node11 -->
<g id="node11" class="node">
<title>Node11</title>
<g id="a_node11"><a xlink:href="scan_8c.html" target="_top" xlink:title=" ">
<polygon fill="white" stroke="black" points="699,-58.5 699,-79.5 750,-79.5 750,-58.5 699,-58.5"/>
<text text-anchor="middle" x="724.5" y="-65.9" font-family="DejaVuSans" font-size="12.00">scan.c</text>
</a>
</g>
</g>
<!-- Node1&#45;&gt;Node11 -->
<g id="edge10" class="edge">
<title>Node1&#45;&gt;Node11</title>
<path fill="none" stroke="midnightblue" d="M554.02,-115.51C590.36,-106.44 643.99,-92.81 690.5,-80 693.23,-79.25 696.07,-78.44 698.91,-77.63"/>
<polygon fill="midnightblue" stroke="midnightblue" points="553.11,-112.13 544.25,-117.94 554.8,-118.92 553.11,-112.13"/>
</g>
<!-- Node12 -->
<g id="node12" class="node">
<title>Node12</title>
<g id="a_node12"><a xlink:href="str_8c.html" target="_top" xlink:title=" ">
<polygon fill="white" stroke="black" points="768.5,-58.5 768.5,-79.5 806.5,-79.5 806.5,-58.5 768.5,-58.5"/>
<text text-anchor="middle" x="787.5" y="-65.9" font-family="DejaVuSans" font-size="12.00">str.c</text>
</a>
</g>
</g>
<!-- Node1&#45;&gt;Node12 -->
<g id="edge11" class="edge">
<title>Node1&#45;&gt;Node12</title>
<path fill="none" stroke="midnightblue" d="M554.46,-120.16C604.28,-112.9 688.64,-99.09 759.5,-80 762.39,-79.22 765.41,-78.28 768.35,-77.29"/>
<polygon fill="midnightblue" stroke="midnightblue" points="553.77,-116.72 544.37,-121.61 554.77,-123.65 553.77,-116.72"/>
</g>
<!-- Node13 -->
<g id="node13" class="node">
<title>Node13</title>
<g id="a_node13"><a xlink:href="tex__header_8h.html" target="_top" xlink:title=" ">
<polygon fill="white" stroke="black" points="824.5,-58.5 824.5,-79.5 910.5,-79.5 910.5,-58.5 824.5,-58.5"/>
<text text-anchor="middle" x="867.5" y="-65.9" font-family="DejaVuSans" font-size="12.00">tex_header.h</text>
</a>
</g>
</g>
<!-- Node1&#45;&gt;Node13 -->
<g id="edge12" class="edge">
<title>Node1&#45;&gt;Node13</title>
<path fill="none" stroke="midnightblue" d="M554.47,-120.05C613.44,-111.75 722.69,-95.94 815.5,-80 818.4,-79.5 821.39,-78.97 824.39,-78.43"/>
<polygon fill="midnightblue" stroke="midnightblue" points="553.83,-116.6 544.41,-121.46 554.8,-123.54 553.83,-116.6"/>
</g>
<!-- Node15 -->
<g id="node15" class="node">
<title>Node15</title>
<g id="a_node15"><a xlink:href="texmath_8c.html" target="_top" xlink:title=" ">
<polygon fill="white" stroke="black" points="928.5,-58.5 928.5,-79.5 996.5,-79.5 996.5,-58.5 928.5,-58.5"/>
<text text-anchor="middle" x="962.5" y="-65.9" font-family="DejaVuSans" font-size="12.00">texmath.c</text>
</a>
</g>
</g>
<!-- Node1&#45;&gt;Node15 -->
<g id="edge14" class="edge">
<title>Node1&#45;&gt;Node15</title>
<path fill="none" stroke="midnightblue" d="M554.61,-122.8C629.29,-116.88 787.43,-102.72 919.5,-80 922.37,-79.51 925.34,-78.94 928.31,-78.33"/>
<polygon fill="midnightblue" stroke="midnightblue" points="553.9,-119.34 544.21,-123.61 554.45,-126.32 553.9,-119.34"/>
</g>
<!-- Node14 -->
<g id="node14" class="node">
<title>Node14</title>
<g id="a_node14"><a xlink:href="tex_8c.html" target="_top" xlink:title=" ">
<polygon fill="white" stroke="black" points="847,-0.5 847,-21.5 888,-21.5 888,-0.5 847,-0.5"/>
<text text-anchor="middle" x="867.5" y="-7.9" font-family="DejaVuSans" font-size="12.00">tex.c</text>
</a>
</g>
</g>
<!-- Node13&#45;&gt;Node14 -->
<g id="edge13" class="edge">
<title>Node13&#45;&gt;Node14</title>
<path fill="none" stroke="midnightblue" d="M867.5,-48.16C867.5,-39.16 867.5,-28.92 867.5,-21.64"/>
<polygon fill="midnightblue" stroke="midnightblue" points="864,-48.25 867.5,-58.25 871,-48.25 864,-48.25"/>
</g>
</g>
</svg>
