<?xml version="1.0" encoding="UTF-8" standalone="no"?>
<!DOCTYPE svg PUBLIC "-//W3C//DTD SVG 1.1//EN"
 "http://www.w3.org/Graphics/SVG/1.1/DTD/svg11.dtd">
<!-- Generated by graphviz version 2.42.3 ()
 -->
<!-- Title: texfunc.h Pages: 1 -->
<svg width="620pt" height="146pt"
 viewBox="0.00 0.00 619.50 146.00" xmlns="http://www.w3.org/2000/svg" xmlns:xlink="http://www.w3.org/1999/xlink">
<g id="graph0" class="graph" transform="scale(1 1) rotate(0) translate(4 142)">
<title>texfunc.h</title>
<polygon fill="white" stroke="transparent" points="-4,4 -4,-142 615.5,-142 615.5,4 -4,4"/>
<!-- Node1 -->
<g id="node1" class="node">
<title>Node1</title>
<g id="a_node1"><a xlink:title=" ">
<polygon fill="#bfbfbf" stroke="black" points="262,-116.5 262,-137.5 327,-137.5 327,-116.5 262,-116.5"/>
<text text-anchor="middle" x="294.5" y="-123.9" font-family="DejaVuSans" font-size="12.00">texfunc.h</text>
</a>
</g>
</g>
<!-- Node2 -->
<g id="node2" class="node">
<title>Node2</title>
<g id="a_node2"><a xlink:href="expand_8c.html" target="_top" xlink:title=" ">
<polygon fill="white" stroke="black" points="0,-58.5 0,-79.5 65,-79.5 65,-58.5 0,-58.5"/>
<text text-anchor="middle" x="32.5" y="-65.9" font-family="DejaVuSans" font-size="12.00">expand.c</text>
</a>
</g>
</g>
<!-- Node1&#45;&gt;Node2 -->
<g id="edge1" class="edge">
<title>Node1&#45;&gt;Node2</title>
<path fill="none" stroke="midnightblue" d="M251.78,-117.43C207.4,-108.44 135.97,-93.74 74.5,-80 71.43,-79.31 68.23,-78.58 65.04,-77.84"/>
<polygon fill="midnightblue" stroke="midnightblue" points="251.14,-120.87 261.64,-119.42 252.53,-114.01 251.14,-120.87"/>
</g>
<!-- Node3 -->
<g id="node3" class="node">
<title>Node3</title>
<g id="a_node3"><a xlink:href="fonts_8c.html" target="_top" xlink:title=" ">
<polygon fill="white" stroke="black" points="83,-58.5 83,-79.5 134,-79.5 134,-58.5 83,-58.5"/>
<text text-anchor="middle" x="108.5" y="-65.9" font-family="DejaVuSans" font-size="12.00">fonts.c</text>
</a>
</g>
</g>
<!-- Node1&#45;&gt;Node3 -->
<g id="edge2" class="edge">
<title>Node1&#45;&gt;Node3</title>
<path fill="none" stroke="midnightblue" d="M252.69,-113.41C216.28,-102.45 164.67,-86.91 134.08,-77.7"/>
<polygon fill="midnightblue" stroke="midnightblue" points="251.94,-116.84 262.53,-116.37 253.96,-110.14 251.94,-116.84"/>
</g>
<!-- Node4 -->
<g id="node4" class="node">
<title>Node4</title>
<g id="a_node4"><a xlink:href="inputln_8c.html" target="_top" xlink:title=" ">
<polygon fill="white" stroke="black" points="152,-58.5 152,-79.5 213,-79.5 213,-58.5 152,-58.5"/>
<text text-anchor="middle" x="182.5" y="-65.9" font-family="DejaVuSans" font-size="12.00">inputln.c</text>
</a>
</g>
</g>
<!-- Node1&#45;&gt;Node4 -->
<g id="edge3" class="edge">
<title>Node1&#45;&gt;Node4</title>
<path fill="none" stroke="midnightblue" d="M266.17,-111.84C245.93,-101.71 219.24,-88.37 201.5,-79.5"/>
<polygon fill="midnightblue" stroke="midnightblue" points="264.74,-115.03 275.25,-116.37 267.87,-108.77 264.74,-115.03"/>
</g>
<!-- Node5 -->
<g id="node5" class="node">
<title>Node5</title>
<g id="a_node5"><a xlink:href="lexer_8c.html" target="_top" xlink:title=" ">
<polygon fill="white" stroke="black" points="231,-58.5 231,-79.5 282,-79.5 282,-58.5 231,-58.5"/>
<text text-anchor="middle" x="256.5" y="-65.9" font-family="DejaVuSans" font-size="12.00">lexer.c</text>
</a>
</g>
</g>
<!-- Node1&#45;&gt;Node5 -->
<g id="edge4" class="edge">
<title>Node1&#45;&gt;Node5</title>
<path fill="none" stroke="midnightblue" d="M282.23,-107.92C275.85,-98.52 268.31,-87.4 263.04,-79.64"/>
<polygon fill="midnightblue" stroke="midnightblue" points="279.37,-109.94 287.88,-116.25 285.16,-106.01 279.37,-109.94"/>
</g>
<!-- Node6 -->
<g id="node6" class="node">
<title>Node6</title>
<g id="a_node6"><a xlink:href="printout_8c.html" target="_top" xlink:title=" ">
<polygon fill="white" stroke="black" points="300,-58.5 300,-79.5 365,-79.5 365,-58.5 300,-58.5"/>
<text text-anchor="middle" x="332.5" y="-65.9" font-family="DejaVuSans" font-size="12.00">printout.c</text>
</a>
</g>
</g>
<!-- Node1&#45;&gt;Node6 -->
<g id="edge5" class="edge">
<title>Node1&#45;&gt;Node6</title>
<path fill="none" stroke="midnightblue" d="M306.77,-107.92C313.15,-98.52 320.69,-87.4 325.96,-79.64"/>
<polygon fill="midnightblue" stroke="midnightblue" points="303.84,-106.01 301.12,-116.25 309.63,-109.94 303.84,-106.01"/>
</g>
<!-- Node7 -->
<g id="node7" class="node">
<title>Node7</title>
<g id="a_node7"><a xlink:href="str_8c.html" target="_top" xlink:title=" ">
<polygon fill="white" stroke="black" points="383.5,-58.5 383.5,-79.5 421.5,-79.5 421.5,-58.5 383.5,-58.5"/>
<text text-anchor="middle" x="402.5" y="-65.9" font-family="DejaVuSans" font-size="12.00">str.c</text>
</a>
</g>
</g>
<!-- Node1&#45;&gt;Node7 -->
<g id="edge6" class="edge">
<title>Node1&#45;&gt;Node7</title>
<path fill="none" stroke="midnightblue" d="M322.28,-111.6C341.64,-101.56 366.94,-88.44 383.9,-79.64"/>
<polygon fill="midnightblue" stroke="midnightblue" points="320.58,-108.54 313.31,-116.25 323.8,-114.75 320.58,-108.54"/>
</g>
<!-- Node8 -->
<g id="node8" class="node">
<title>Node8</title>
<g id="a_node8"><a xlink:href="tex__header_8h.html" target="_top" xlink:title=" ">
<polygon fill="white" stroke="black" points="439.5,-58.5 439.5,-79.5 525.5,-79.5 525.5,-58.5 439.5,-58.5"/>
<text text-anchor="middle" x="482.5" y="-65.9" font-family="DejaVuSans" font-size="12.00">tex_header.h</text>
</a>
</g>
</g>
<!-- Node1&#45;&gt;Node8 -->
<g id="edge7" class="edge">
<title>Node1&#45;&gt;Node8</title>
<path fill="none" stroke="midnightblue" d="M336.61,-113.46C371.12,-103.18 419.22,-88.85 450.6,-79.5"/>
<polygon fill="midnightblue" stroke="midnightblue" points="335.4,-110.16 326.82,-116.37 337.4,-116.87 335.4,-110.16"/>
</g>
<!-- Node10 -->
<g id="node10" class="node">
<title>Node10</title>
<g id="a_node10"><a xlink:href="texmath_8c.html" target="_top" xlink:title=" ">
<polygon fill="white" stroke="black" points="543.5,-58.5 543.5,-79.5 611.5,-79.5 611.5,-58.5 543.5,-58.5"/>
<text text-anchor="middle" x="577.5" y="-65.9" font-family="DejaVuSans" font-size="12.00">texmath.c</text>
</a>
</g>
</g>
<!-- Node1&#45;&gt;Node10 -->
<g id="edge9" class="edge">
<title>Node1&#45;&gt;Node10</title>
<path fill="none" stroke="midnightblue" d="M337.23,-118.33C385.31,-109.58 465.68,-94.59 534.5,-80 537.35,-79.4 540.3,-78.75 543.26,-78.09"/>
<polygon fill="midnightblue" stroke="midnightblue" points="336.4,-114.92 327.19,-120.15 337.65,-121.81 336.4,-114.92"/>
</g>
<!-- Node9 -->
<g id="node9" class="node">
<title>Node9</title>
<g id="a_node9"><a xlink:href="tex_8c.html" target="_top" xlink:title=" ">
<polygon fill="white" stroke="black" points="462,-0.5 462,-21.5 503,-21.5 503,-0.5 462,-0.5"/>
<text text-anchor="middle" x="482.5" y="-7.9" font-family="DejaVuSans" font-size="12.00">tex.c</text>
</a>
</g>
</g>
<!-- Node8&#45;&gt;Node9 -->
<g id="edge8" class="edge">
<title>Node8&#45;&gt;Node9</title>
<path fill="none" stroke="midnightblue" d="M482.5,-48.16C482.5,-39.16 482.5,-28.92 482.5,-21.64"/>
<polygon fill="midnightblue" stroke="midnightblue" points="479,-48.25 482.5,-58.25 486,-48.25 479,-48.25"/>
</g>
</g>
</svg>
