<?xml version="1.0" encoding="UTF-8" standalone="no"?>
<!DOCTYPE svg PUBLIC "-//W3C//DTD SVG 1.1//EN"
 "http://www.w3.org/Graphics/SVG/1.1/DTD/svg11.dtd">
<!-- Generated by graphviz version 2.44.0 ()
 -->
<!-- Title: texmath.h Pages: 1 -->
<svg width="1266pt" height="146pt"
 viewBox="0.00 0.00 1265.50 146.00" xmlns="http://www.w3.org/2000/svg" xmlns:xlink="http://www.w3.org/1999/xlink">
<g id="graph0" class="graph" transform="scale(1 1) rotate(0) translate(4 142)">
<title>texmath.h</title>
<polygon fill="white" stroke="transparent" points="-4,4 -4,-142 1261.5,-142 1261.5,4 -4,4"/>
<!-- Node1 -->
<g id="node1" class="node">
<title>Node1</title>
<g id="a_node1"><a xlink:title=" ">
<polygon fill="#bfbfbf" stroke="black" points="609.5,-116.5 609.5,-137.5 677.5,-137.5 677.5,-116.5 609.5,-116.5"/>
<text text-anchor="middle" x="643.5" y="-123.9" font-family="DejaVuSans" font-size="12.00">texmath.h</text>
</a>
</g>
</g>
<!-- Node2 -->
<g id="node2" class="node">
<title>Node2</title>
<g id="a_node2"><a xlink:href="box__display_8c.html" target="_top" xlink:title=" ">
<polygon fill="white" stroke="black" points="0,-58.5 0,-79.5 89,-79.5 89,-58.5 0,-58.5"/>
<text text-anchor="middle" x="44.5" y="-65.9" font-family="DejaVuSans" font-size="12.00">box_display.c</text>
</a>
</g>
</g>
<!-- Node1&#45;&gt;Node2 -->
<g id="edge1" class="edge">
<title>Node1&#45;&gt;Node2</title>
<path fill="none" stroke="midnightblue" d="M599.07,-123.74C505.95,-118.68 283.58,-104.89 98.5,-80 95.48,-79.59 92.36,-79.13 89.23,-78.64"/>
<polygon fill="midnightblue" stroke="midnightblue" points="599.08,-127.25 609.26,-124.29 599.46,-120.26 599.08,-127.25"/>
</g>
<!-- Node3 -->
<g id="node3" class="node">
<title>Node3</title>
<g id="a_node3"><a xlink:href="eqtb_8c.html" target="_top" xlink:title=" ">
<polygon fill="white" stroke="black" points="107,-58.5 107,-79.5 156,-79.5 156,-58.5 107,-58.5"/>
<text text-anchor="middle" x="131.5" y="-65.9" font-family="DejaVuSans" font-size="12.00">eqtb.c</text>
</a>
</g>
</g>
<!-- Node1&#45;&gt;Node3 -->
<g id="edge2" class="edge">
<title>Node1&#45;&gt;Node3</title>
<path fill="none" stroke="midnightblue" d="M599.22,-124.55C514.37,-121.15 323.24,-110.5 165.5,-80 162.48,-79.42 159.34,-78.68 156.25,-77.87"/>
<polygon fill="midnightblue" stroke="midnightblue" points="599.15,-128.05 609.28,-124.94 599.42,-121.05 599.15,-128.05"/>
</g>
<!-- Node4 -->
<g id="node4" class="node">
<title>Node4</title>
<g id="a_node4"><a xlink:href="expand_8c.html" target="_top" xlink:title=" ">
<polygon fill="white" stroke="black" points="174,-58.5 174,-79.5 239,-79.5 239,-58.5 174,-58.5"/>
<text text-anchor="middle" x="206.5" y="-65.9" font-family="DejaVuSans" font-size="12.00">expand.c</text>
</a>
</g>
</g>
<!-- Node1&#45;&gt;Node4 -->
<g id="edge3" class="edge">
<title>Node1&#45;&gt;Node4</title>
<path fill="none" stroke="midnightblue" d="M599.25,-122.56C525.94,-116.48 374.86,-102.32 248.5,-80 245.55,-79.48 242.49,-78.88 239.44,-78.23"/>
<polygon fill="midnightblue" stroke="midnightblue" points="599.24,-126.07 609.49,-123.4 599.81,-119.09 599.24,-126.07"/>
</g>
<!-- Node5 -->
<g id="node5" class="node">
<title>Node5</title>
<g id="a_node5"><a xlink:href="fonts_8c.html" target="_top" xlink:title=" ">
<polygon fill="white" stroke="black" points="257,-58.5 257,-79.5 308,-79.5 308,-58.5 257,-58.5"/>
<text text-anchor="middle" x="282.5" y="-65.9" font-family="DejaVuSans" font-size="12.00">fonts.c</text>
</a>
</g>
</g>
<!-- Node1&#45;&gt;Node5 -->
<g id="edge4" class="edge">
<title>Node1&#45;&gt;Node5</title>
<path fill="none" stroke="midnightblue" d="M599.46,-121.74C536.5,-115.21 417.33,-101.2 317.5,-80 314.41,-79.34 311.19,-78.56 308.01,-77.73"/>
<polygon fill="midnightblue" stroke="midnightblue" points="599.14,-125.22 609.44,-122.76 599.85,-118.26 599.14,-125.22"/>
</g>
<!-- Node6 -->
<g id="node6" class="node">
<title>Node6</title>
<g id="a_node6"><a xlink:href="hyphen__pre_8c.html" target="_top" xlink:title=" ">
<polygon fill="white" stroke="black" points="326,-58.5 326,-79.5 415,-79.5 415,-58.5 326,-58.5"/>
<text text-anchor="middle" x="370.5" y="-65.9" font-family="DejaVuSans" font-size="12.00">hyphen_pre.c</text>
</a>
</g>
</g>
<!-- Node1&#45;&gt;Node6 -->
<g id="edge5" class="edge">
<title>Node1&#45;&gt;Node6</title>
<path fill="none" stroke="midnightblue" d="M599.5,-116.97C548.92,-106.6 466.35,-89.66 415.4,-79.21"/>
<polygon fill="midnightblue" stroke="midnightblue" points="598.98,-120.44 609.48,-119.02 600.38,-113.58 598.98,-120.44"/>
</g>
<!-- Node7 -->
<g id="node7" class="node">
<title>Node7</title>
<g id="a_node7"><a xlink:href="lexer_8c.html" target="_top" xlink:title=" ">
<polygon fill="white" stroke="black" points="433,-58.5 433,-79.5 484,-79.5 484,-58.5 433,-58.5"/>
<text text-anchor="middle" x="458.5" y="-65.9" font-family="DejaVuSans" font-size="12.00">lexer.c</text>
</a>
</g>
</g>
<!-- Node1&#45;&gt;Node7 -->
<g id="edge6" class="edge">
<title>Node1&#45;&gt;Node7</title>
<path fill="none" stroke="midnightblue" d="M601.94,-113.42C565.84,-102.49 514.7,-87.01 484.23,-77.79"/>
<polygon fill="midnightblue" stroke="midnightblue" points="601.11,-116.83 611.7,-116.37 603.14,-110.13 601.11,-116.83"/>
</g>
<!-- Node8 -->
<g id="node8" class="node">
<title>Node8</title>
<g id="a_node8"><a xlink:href="linebreak_8c.html" target="_top" xlink:title=" ">
<polygon fill="white" stroke="black" points="502.5,-58.5 502.5,-79.5 576.5,-79.5 576.5,-58.5 502.5,-58.5"/>
<text text-anchor="middle" x="539.5" y="-65.9" font-family="DejaVuSans" font-size="12.00">linebreak.c</text>
</a>
</g>
</g>
<!-- Node1&#45;&gt;Node8 -->
<g id="edge7" class="edge">
<title>Node1&#45;&gt;Node8</title>
<path fill="none" stroke="midnightblue" d="M616.5,-111.46C597.89,-101.44 573.67,-88.4 557.41,-79.64"/>
<polygon fill="midnightblue" stroke="midnightblue" points="614.92,-114.59 625.38,-116.25 618.24,-108.42 614.92,-114.59"/>
</g>
<!-- Node9 -->
<g id="node9" class="node">
<title>Node9</title>
<g id="a_node9"><a xlink:href="math__formula_8c.html" target="_top" xlink:title=" ">
<polygon fill="white" stroke="black" points="594.5,-58.5 594.5,-79.5 692.5,-79.5 692.5,-58.5 594.5,-58.5"/>
<text text-anchor="middle" x="643.5" y="-65.9" font-family="DejaVuSans" font-size="12.00">math_formula.c</text>
</a>
</g>
</g>
<!-- Node1&#45;&gt;Node9 -->
<g id="edge8" class="edge">
<title>Node1&#45;&gt;Node9</title>
<path fill="none" stroke="midnightblue" d="M643.5,-106.16C643.5,-97.16 643.5,-86.92 643.5,-79.64"/>
<polygon fill="midnightblue" stroke="midnightblue" points="640,-106.25 643.5,-116.25 647,-106.25 640,-106.25"/>
</g>
<!-- Node10 -->
<g id="node10" class="node">
<title>Node10</title>
<g id="a_node10"><a xlink:href="mem_8c.html" target="_top" xlink:title=" ">
<polygon fill="white" stroke="black" points="710.5,-58.5 710.5,-79.5 762.5,-79.5 762.5,-58.5 710.5,-58.5"/>
<text text-anchor="middle" x="736.5" y="-65.9" font-family="DejaVuSans" font-size="12.00">mem.c</text>
</a>
</g>
</g>
<!-- Node1&#45;&gt;Node10 -->
<g id="edge9" class="edge">
<title>Node1&#45;&gt;Node10</title>
<path fill="none" stroke="midnightblue" d="M668.33,-111.05C684.88,-101.08 706.14,-88.28 720.49,-79.64"/>
<polygon fill="midnightblue" stroke="midnightblue" points="666.46,-108.09 659.7,-116.25 670.07,-114.09 666.46,-108.09"/>
</g>
<!-- Node11 -->
<g id="node11" class="node">
<title>Node11</title>
<g id="a_node11"><a xlink:href="mmode_8c.html" target="_top" xlink:title=" ">
<polygon fill="white" stroke="black" points="781,-58.5 781,-79.5 846,-79.5 846,-58.5 781,-58.5"/>
<text text-anchor="middle" x="813.5" y="-65.9" font-family="DejaVuSans" font-size="12.00">mmode.c</text>
</a>
</g>
</g>
<!-- Node1&#45;&gt;Node11 -->
<g id="edge10" class="edge">
<title>Node1&#45;&gt;Node11</title>
<path fill="none" stroke="midnightblue" d="M682.39,-113.19C713.53,-102.93 756.52,-88.77 784.66,-79.5"/>
<polygon fill="midnightblue" stroke="midnightblue" points="681.13,-109.92 672.72,-116.37 683.32,-116.57 681.13,-109.92"/>
</g>
<!-- Node12 -->
<g id="node12" class="node">
<title>Node12</title>
<g id="a_node12"><a xlink:href="pack_8c.html" target="_top" xlink:title=" ">
<polygon fill="white" stroke="black" points="864,-58.5 864,-79.5 915,-79.5 915,-58.5 864,-58.5"/>
<text text-anchor="middle" x="889.5" y="-65.9" font-family="DejaVuSans" font-size="12.00">pack.c</text>
</a>
</g>
</g>
<!-- Node1&#45;&gt;Node12 -->
<g id="edge11" class="edge">
<title>Node1&#45;&gt;Node12</title>
<path fill="none" stroke="midnightblue" d="M687.69,-117.38C730.73,-108.76 797.9,-94.7 855.5,-80 858.24,-79.3 861.1,-78.53 863.93,-77.73"/>
<polygon fill="midnightblue" stroke="midnightblue" points="686.95,-113.96 677.83,-119.35 688.32,-120.83 686.95,-113.96"/>
</g>
<!-- Node13 -->
<g id="node13" class="node">
<title>Node13</title>
<g id="a_node13"><a xlink:href="printout_8c.html" target="_top" xlink:title=" ">
<polygon fill="white" stroke="black" points="933,-58.5 933,-79.5 998,-79.5 998,-58.5 933,-58.5"/>
<text text-anchor="middle" x="965.5" y="-65.9" font-family="DejaVuSans" font-size="12.00">printout.c</text>
</a>
</g>
</g>
<!-- Node1&#45;&gt;Node13 -->
<g id="edge12" class="edge">
<title>Node1&#45;&gt;Node13</title>
<path fill="none" stroke="midnightblue" d="M688.03,-119.79C743.6,-111.8 841.45,-96.9 924.5,-80 927.23,-79.44 930.05,-78.83 932.88,-78.2"/>
<polygon fill="midnightblue" stroke="midnightblue" points="687.23,-116.37 677.83,-121.25 688.22,-123.3 687.23,-116.37"/>
</g>
<!-- Node14 -->
<g id="node14" class="node">
<title>Node14</title>
<g id="a_node14"><a xlink:href="scan_8c.html" target="_top" xlink:title=" ">
<polygon fill="white" stroke="black" points="1016,-58.5 1016,-79.5 1067,-79.5 1067,-58.5 1016,-58.5"/>
<text text-anchor="middle" x="1041.5" y="-65.9" font-family="DejaVuSans" font-size="12.00">scan.c</text>
</a>
</g>
</g>
<!-- Node1&#45;&gt;Node14 -->
<g id="edge13" class="edge">
<title>Node1&#45;&gt;Node14</title>
<path fill="none" stroke="midnightblue" d="M687.73,-122.71C756.63,-117.08 893.48,-103.81 1007.5,-80 1010.27,-79.42 1013.14,-78.73 1015.99,-77.98"/>
<polygon fill="midnightblue" stroke="midnightblue" points="687.36,-119.23 677.67,-123.52 687.92,-126.21 687.36,-119.23"/>
</g>
<!-- Node15 -->
<g id="node15" class="node">
<title>Node15</title>
<g id="a_node15"><a xlink:href="tex__header_8h.html" target="_top" xlink:title=" ">
<polygon fill="white" stroke="black" points="1085.5,-58.5 1085.5,-79.5 1171.5,-79.5 1171.5,-58.5 1085.5,-58.5"/>
<text text-anchor="middle" x="1128.5" y="-65.9" font-family="DejaVuSans" font-size="12.00">tex_header.h</text>
</a>
</g>
</g>
<!-- Node1&#45;&gt;Node15 -->
<g id="edge14" class="edge">
<title>Node1&#45;&gt;Node15</title>
<path fill="none" stroke="midnightblue" d="M687.6,-122.55C766.07,-116.13 934.99,-101.08 1076.5,-80 1079.41,-79.57 1082.4,-79.09 1085.42,-78.57"/>
<polygon fill="midnightblue" stroke="midnightblue" points="687.27,-119.06 677.59,-123.36 687.84,-126.04 687.27,-119.06"/>
</g>
<!-- Node17 -->
<g id="node17" class="node">
<title>Node17</title>
<g id="a_node17"><a xlink:href="texmath_8c.html" target="_top" xlink:title=" ">
<polygon fill="white" stroke="black" points="1189.5,-58.5 1189.5,-79.5 1257.5,-79.5 1257.5,-58.5 1189.5,-58.5"/>
<text text-anchor="middle" x="1223.5" y="-65.9" font-family="DejaVuSans" font-size="12.00">texmath.c</text>
</a>
</g>
</g>
<!-- Node1&#45;&gt;Node17 -->
<g id="edge16" class="edge">
<title>Node1&#45;&gt;Node17</title>
<path fill="none" stroke="midnightblue" d="M687.71,-124.35C779.85,-120.46 998.96,-108.73 1180.5,-80 1183.38,-79.54 1186.35,-79 1189.32,-78.41"/>
<polygon fill="midnightblue" stroke="midnightblue" points="687.48,-120.86 677.63,-124.77 687.77,-127.85 687.48,-120.86"/>
</g>
<!-- Node16 -->
<g id="node16" class="node">
<title>Node16</title>
<g id="a_node16"><a xlink:href="tex_8c.html" target="_top" xlink:title=" ">
<polygon fill="white" stroke="black" points="1108,-0.5 1108,-21.5 1149,-21.5 1149,-0.5 1108,-0.5"/>
<text text-anchor="middle" x="1128.5" y="-7.9" font-family="DejaVuSans" font-size="12.00">tex.c</text>
</a>
</g>
</g>
<!-- Node15&#45;&gt;Node16 -->
<g id="edge15" class="edge">
<title>Node15&#45;&gt;Node16</title>
<path fill="none" stroke="midnightblue" d="M1128.5,-48.16C1128.5,-39.16 1128.5,-28.92 1128.5,-21.64"/>
<polygon fill="midnightblue" stroke="midnightblue" points="1125,-48.25 1128.5,-58.25 1132,-48.25 1125,-48.25"/>
</g>
</g>
</svg>
