<?xml version="1.0" encoding="UTF-8" standalone="no"?>
<!DOCTYPE svg PUBLIC "-//W3C//DTD SVG 1.1//EN"
 "http://www.w3.org/Graphics/SVG/1.1/DTD/svg11.dtd">
<!-- Generated by graphviz version 2.44.0 ()
 -->
<!-- Title: texmath.h Pages: 1 -->
<svg width="552pt" height="146pt"
 viewBox="0.00 0.00 551.50 146.00" xmlns="http://www.w3.org/2000/svg" xmlns:xlink="http://www.w3.org/1999/xlink">
<g id="graph0" class="graph" transform="scale(1 1) rotate(0) translate(4 142)">
<title>texmath.h</title>
<polygon fill="white" stroke="transparent" points="-4,4 -4,-142 547.5,-142 547.5,4 -4,4"/>
<!-- Node1 -->
<g id="node1" class="node">
<title>Node1</title>
<g id="a_node1"><a xlink:title=" ">
<polygon fill="#bfbfbf" stroke="black" points="217.5,-116.5 217.5,-137.5 285.5,-137.5 285.5,-116.5 217.5,-116.5"/>
<text text-anchor="middle" x="251.5" y="-123.9" font-family="DejaVuSans" font-size="12.00">texmath.h</text>
</a>
</g>
</g>
<!-- Node2 -->
<g id="node2" class="node">
<title>Node2</title>
<g id="a_node2"><a xlink:href="eqtb_8c.html" target="_top" xlink:title=" ">
<polygon fill="white" stroke="black" points="0,-58.5 0,-79.5 49,-79.5 49,-58.5 0,-58.5"/>
<text text-anchor="middle" x="24.5" y="-65.9" font-family="DejaVuSans" font-size="12.00">eqtb.c</text>
</a>
</g>
</g>
<!-- Node1&#45;&gt;Node2 -->
<g id="edge1" class="edge">
<title>Node1&#45;&gt;Node2</title>
<path fill="none" stroke="midnightblue" d="M207.42,-116.18C168.2,-107.28 109.33,-93.52 58.5,-80 55.53,-79.21 52.42,-78.35 49.34,-77.47"/>
<polygon fill="midnightblue" stroke="midnightblue" points="206.67,-119.6 217.2,-118.39 208.22,-112.77 206.67,-119.6"/>
</g>
<!-- Node3 -->
<g id="node3" class="node">
<title>Node3</title>
<g id="a_node3"><a xlink:href="expand_8c.html" target="_top" xlink:title=" ">
<polygon fill="white" stroke="black" points="67,-58.5 67,-79.5 132,-79.5 132,-58.5 67,-58.5"/>
<text text-anchor="middle" x="99.5" y="-65.9" font-family="DejaVuSans" font-size="12.00">expand.c</text>
</a>
</g>
</g>
<!-- Node1&#45;&gt;Node3 -->
<g id="edge2" class="edge">
<title>Node1&#45;&gt;Node3</title>
<path fill="none" stroke="midnightblue" d="M215.64,-112.79C187.89,-102.56 150.12,-88.65 125.29,-79.5"/>
<polygon fill="midnightblue" stroke="midnightblue" points="214.78,-116.2 225.37,-116.37 217.2,-109.63 214.78,-116.2"/>
</g>
<!-- Node4 -->
<g id="node4" class="node">
<title>Node4</title>
<g id="a_node4"><a xlink:href="fonts_8c.html" target="_top" xlink:title=" ">
<polygon fill="white" stroke="black" points="150,-58.5 150,-79.5 201,-79.5 201,-58.5 150,-58.5"/>
<text text-anchor="middle" x="175.5" y="-65.9" font-family="DejaVuSans" font-size="12.00">fonts.c</text>
</a>
</g>
</g>
<!-- Node1&#45;&gt;Node4 -->
<g id="edge3" class="edge">
<title>Node1&#45;&gt;Node4</title>
<path fill="none" stroke="midnightblue" d="M230.07,-110.21C216.72,-100.37 199.98,-88.04 188.59,-79.64"/>
<polygon fill="midnightblue" stroke="midnightblue" points="228.14,-113.13 238.26,-116.25 232.29,-107.5 228.14,-113.13"/>
</g>
<!-- Node5 -->
<g id="node5" class="node">
<title>Node5</title>
<g id="a_node5"><a xlink:href="printout_8c.html" target="_top" xlink:title=" ">
<polygon fill="white" stroke="black" points="219,-58.5 219,-79.5 284,-79.5 284,-58.5 219,-58.5"/>
<text text-anchor="middle" x="251.5" y="-65.9" font-family="DejaVuSans" font-size="12.00">printout.c</text>
</a>
</g>
</g>
<!-- Node1&#45;&gt;Node5 -->
<g id="edge4" class="edge">
<title>Node1&#45;&gt;Node5</title>
<path fill="none" stroke="midnightblue" d="M251.5,-106.16C251.5,-97.16 251.5,-86.92 251.5,-79.64"/>
<polygon fill="midnightblue" stroke="midnightblue" points="248,-106.25 251.5,-116.25 255,-106.25 248,-106.25"/>
</g>
<!-- Node6 -->
<g id="node6" class="node">
<title>Node6</title>
<g id="a_node6"><a xlink:href="scan_8c.html" target="_top" xlink:title=" ">
<polygon fill="white" stroke="black" points="302,-58.5 302,-79.5 353,-79.5 353,-58.5 302,-58.5"/>
<text text-anchor="middle" x="327.5" y="-65.9" font-family="DejaVuSans" font-size="12.00">scan.c</text>
</a>
</g>
</g>
<!-- Node1&#45;&gt;Node6 -->
<g id="edge5" class="edge">
<title>Node1&#45;&gt;Node6</title>
<path fill="none" stroke="midnightblue" d="M272.93,-110.21C286.28,-100.37 303.02,-88.04 314.41,-79.64"/>
<polygon fill="midnightblue" stroke="midnightblue" points="270.71,-107.5 264.74,-116.25 274.86,-113.13 270.71,-107.5"/>
</g>
<!-- Node7 -->
<g id="node7" class="node">
<title>Node7</title>
<g id="a_node7"><a xlink:href="tex__header_8h.html" target="_top" xlink:title=" ">
<polygon fill="white" stroke="black" points="371.5,-58.5 371.5,-79.5 457.5,-79.5 457.5,-58.5 371.5,-58.5"/>
<text text-anchor="middle" x="414.5" y="-65.9" font-family="DejaVuSans" font-size="12.00">tex_header.h</text>
</a>
</g>
</g>
<!-- Node1&#45;&gt;Node7 -->
<g id="edge6" class="edge">
<title>Node1&#45;&gt;Node7</title>
<path fill="none" stroke="midnightblue" d="M289.17,-113.06C319,-102.81 359.99,-88.73 386.84,-79.5"/>
<polygon fill="midnightblue" stroke="midnightblue" points="287.84,-109.81 279.52,-116.37 290.12,-116.43 287.84,-109.81"/>
</g>
<!-- Node9 -->
<g id="node9" class="node">
<title>Node9</title>
<g id="a_node9"><a xlink:href="texmath_8c.html" target="_top" xlink:title=" ">
<polygon fill="white" stroke="black" points="475.5,-58.5 475.5,-79.5 543.5,-79.5 543.5,-58.5 475.5,-58.5"/>
<text text-anchor="middle" x="509.5" y="-65.9" font-family="DejaVuSans" font-size="12.00">texmath.c</text>
</a>
</g>
</g>
<!-- Node1&#45;&gt;Node9 -->
<g id="edge8" class="edge">
<title>Node1&#45;&gt;Node9</title>
<path fill="none" stroke="midnightblue" d="M295.77,-116.77C339.27,-107.64 407.52,-93.17 466.5,-80 469.34,-79.37 472.29,-78.7 475.24,-78.02"/>
<polygon fill="midnightblue" stroke="midnightblue" points="294.87,-113.38 285.8,-118.86 296.3,-120.23 294.87,-113.38"/>
</g>
<!-- Node8 -->
<g id="node8" class="node">
<title>Node8</title>
<g id="a_node8"><a xlink:href="tex_8c.html" target="_top" xlink:title=" ">
<polygon fill="white" stroke="black" points="394,-0.5 394,-21.5 435,-21.5 435,-0.5 394,-0.5"/>
<text text-anchor="middle" x="414.5" y="-7.9" font-family="DejaVuSans" font-size="12.00">tex.c</text>
</a>
</g>
</g>
<!-- Node7&#45;&gt;Node8 -->
<g id="edge7" class="edge">
<title>Node7&#45;&gt;Node8</title>
<path fill="none" stroke="midnightblue" d="M414.5,-48.16C414.5,-39.16 414.5,-28.92 414.5,-21.64"/>
<polygon fill="midnightblue" stroke="midnightblue" points="411,-48.25 414.5,-58.25 418,-48.25 411,-48.25"/>
</g>
</g>
</svg>
