<?xml version="1.0" encoding="UTF-8" standalone="no"?>
<!DOCTYPE svg PUBLIC "-//W3C//DTD SVG 1.1//EN"
 "http://www.w3.org/Graphics/SVG/1.1/DTD/svg11.dtd">
<!-- Generated by graphviz version 2.44.0 ()
 -->
<!-- Title: texmath.h Pages: 1 -->
<svg width="951pt" height="146pt"
 viewBox="0.00 0.00 950.50 146.00" xmlns="http://www.w3.org/2000/svg" xmlns:xlink="http://www.w3.org/1999/xlink">
<g id="graph0" class="graph" transform="scale(1 1) rotate(0) translate(4 142)">
<title>texmath.h</title>
<polygon fill="white" stroke="transparent" points="-4,4 -4,-142 946.5,-142 946.5,4 -4,4"/>
<!-- Node1 -->
<g id="node1" class="node">
<title>Node1</title>
<g id="a_node1"><a xlink:title=" ">
<polygon fill="#bfbfbf" stroke="black" points="425.5,-116.5 425.5,-137.5 493.5,-137.5 493.5,-116.5 425.5,-116.5"/>
<text text-anchor="middle" x="459.5" y="-123.9" font-family="DejaVuSans" font-size="12.00">texmath.h</text>
</a>
</g>
</g>
<!-- Node2 -->
<g id="node2" class="node">
<title>Node2</title>
<g id="a_node2"><a xlink:href="box__display_8c.html" target="_top" xlink:title=" ">
<polygon fill="white" stroke="black" points="0,-58.5 0,-79.5 89,-79.5 89,-58.5 0,-58.5"/>
<text text-anchor="middle" x="44.5" y="-65.9" font-family="DejaVuSans" font-size="12.00">box_display.c</text>
</a>
</g>
</g>
<!-- Node1&#45;&gt;Node2 -->
<g id="edge1" class="edge">
<title>Node1&#45;&gt;Node2</title>
<path fill="none" stroke="midnightblue" d="M415.36,-121.19C347.21,-113.57 212.35,-97.78 98.5,-80 95.49,-79.53 92.38,-79.02 89.26,-78.49"/>
<polygon fill="midnightblue" stroke="midnightblue" points="414.99,-124.67 425.32,-122.29 415.76,-117.71 414.99,-124.67"/>
</g>
<!-- Node3 -->
<g id="node3" class="node">
<title>Node3</title>
<g id="a_node3"><a xlink:href="eqtb_8c.html" target="_top" xlink:title=" ">
<polygon fill="white" stroke="black" points="107,-58.5 107,-79.5 156,-79.5 156,-58.5 107,-58.5"/>
<text text-anchor="middle" x="131.5" y="-65.9" font-family="DejaVuSans" font-size="12.00">eqtb.c</text>
</a>
</g>
</g>
<!-- Node1&#45;&gt;Node3 -->
<g id="edge2" class="edge">
<title>Node1&#45;&gt;Node3</title>
<path fill="none" stroke="midnightblue" d="M415.02,-120.88C357.14,-113.8 253.06,-99.64 165.5,-80 162.5,-79.33 159.37,-78.54 156.28,-77.7"/>
<polygon fill="midnightblue" stroke="midnightblue" points="414.93,-124.4 425.27,-122.12 415.77,-117.45 414.93,-124.4"/>
</g>
<!-- Node4 -->
<g id="node4" class="node">
<title>Node4</title>
<g id="a_node4"><a xlink:href="expand_8c.html" target="_top" xlink:title=" ">
<polygon fill="white" stroke="black" points="174,-58.5 174,-79.5 239,-79.5 239,-58.5 174,-58.5"/>
<text text-anchor="middle" x="206.5" y="-65.9" font-family="DejaVuSans" font-size="12.00">expand.c</text>
</a>
</g>
</g>
<!-- Node1&#45;&gt;Node4 -->
<g id="edge3" class="edge">
<title>Node1&#45;&gt;Node4</title>
<path fill="none" stroke="midnightblue" d="M415.68,-116.7C372.96,-107.58 306.2,-93.16 248.5,-80 245.43,-79.3 242.24,-78.56 239.05,-77.81"/>
<polygon fill="midnightblue" stroke="midnightblue" points="414.96,-120.13 425.47,-118.79 416.42,-113.28 414.96,-120.13"/>
</g>
<!-- Node5 -->
<g id="node5" class="node">
<title>Node5</title>
<g id="a_node5"><a xlink:href="fonts_8c.html" target="_top" xlink:title=" ">
<polygon fill="white" stroke="black" points="257,-58.5 257,-79.5 308,-79.5 308,-58.5 257,-58.5"/>
<text text-anchor="middle" x="282.5" y="-65.9" font-family="DejaVuSans" font-size="12.00">fonts.c</text>
</a>
</g>
</g>
<!-- Node1&#45;&gt;Node5 -->
<g id="edge4" class="edge">
<title>Node1&#45;&gt;Node5</title>
<path fill="none" stroke="midnightblue" d="M419.41,-113.32C385.33,-102.53 337.4,-87.37 308.22,-78.14"/>
<polygon fill="midnightblue" stroke="midnightblue" points="418.48,-116.69 429.07,-116.37 420.59,-110.02 418.48,-116.69"/>
</g>
<!-- Node6 -->
<g id="node6" class="node">
<title>Node6</title>
<g id="a_node6"><a xlink:href="lexer_8c.html" target="_top" xlink:title=" ">
<polygon fill="white" stroke="black" points="326,-58.5 326,-79.5 377,-79.5 377,-58.5 326,-58.5"/>
<text text-anchor="middle" x="351.5" y="-65.9" font-family="DejaVuSans" font-size="12.00">lexer.c</text>
</a>
</g>
</g>
<!-- Node1&#45;&gt;Node6 -->
<g id="edge5" class="edge">
<title>Node1&#45;&gt;Node6</title>
<path fill="none" stroke="midnightblue" d="M431.72,-111.6C412.36,-101.56 387.06,-88.44 370.1,-79.64"/>
<polygon fill="midnightblue" stroke="midnightblue" points="430.2,-114.75 440.69,-116.25 433.42,-108.54 430.2,-114.75"/>
</g>
<!-- Node7 -->
<g id="node7" class="node">
<title>Node7</title>
<g id="a_node7"><a xlink:href="mem_8c.html" target="_top" xlink:title=" ">
<polygon fill="white" stroke="black" points="395.5,-58.5 395.5,-79.5 447.5,-79.5 447.5,-58.5 395.5,-58.5"/>
<text text-anchor="middle" x="421.5" y="-65.9" font-family="DejaVuSans" font-size="12.00">mem.c</text>
</a>
</g>
</g>
<!-- Node1&#45;&gt;Node7 -->
<g id="edge6" class="edge">
<title>Node1&#45;&gt;Node7</title>
<path fill="none" stroke="midnightblue" d="M447.23,-107.92C440.85,-98.52 433.31,-87.4 428.04,-79.64"/>
<polygon fill="midnightblue" stroke="midnightblue" points="444.37,-109.94 452.88,-116.25 450.16,-106.01 444.37,-109.94"/>
</g>
<!-- Node8 -->
<g id="node8" class="node">
<title>Node8</title>
<g id="a_node8"><a xlink:href="mmode_8c.html" target="_top" xlink:title=" ">
<polygon fill="white" stroke="black" points="466,-58.5 466,-79.5 531,-79.5 531,-58.5 466,-58.5"/>
<text text-anchor="middle" x="498.5" y="-65.9" font-family="DejaVuSans" font-size="12.00">mmode.c</text>
</a>
</g>
</g>
<!-- Node1&#45;&gt;Node8 -->
<g id="edge7" class="edge">
<title>Node1&#45;&gt;Node8</title>
<path fill="none" stroke="midnightblue" d="M472.09,-107.92C478.64,-98.52 486.38,-87.4 491.78,-79.64"/>
<polygon fill="midnightblue" stroke="midnightblue" points="469.14,-106.04 466.29,-116.25 474.88,-110.04 469.14,-106.04"/>
</g>
<!-- Node9 -->
<g id="node9" class="node">
<title>Node9</title>
<g id="a_node9"><a xlink:href="pack_8c.html" target="_top" xlink:title=" ">
<polygon fill="white" stroke="black" points="549,-58.5 549,-79.5 600,-79.5 600,-58.5 549,-58.5"/>
<text text-anchor="middle" x="574.5" y="-65.9" font-family="DejaVuSans" font-size="12.00">pack.c</text>
</a>
</g>
</g>
<!-- Node1&#45;&gt;Node9 -->
<g id="edge8" class="edge">
<title>Node1&#45;&gt;Node9</title>
<path fill="none" stroke="midnightblue" d="M488.3,-111.97C509.12,-101.83 536.7,-88.41 554.99,-79.5"/>
<polygon fill="midnightblue" stroke="midnightblue" points="486.73,-108.85 479.27,-116.37 489.79,-115.14 486.73,-108.85"/>
</g>
<!-- Node10 -->
<g id="node10" class="node">
<title>Node10</title>
<g id="a_node10"><a xlink:href="printout_8c.html" target="_top" xlink:title=" ">
<polygon fill="white" stroke="black" points="618,-58.5 618,-79.5 683,-79.5 683,-58.5 618,-58.5"/>
<text text-anchor="middle" x="650.5" y="-65.9" font-family="DejaVuSans" font-size="12.00">printout.c</text>
</a>
</g>
</g>
<!-- Node1&#45;&gt;Node10 -->
<g id="edge9" class="edge">
<title>Node1&#45;&gt;Node10</title>
<path fill="none" stroke="midnightblue" d="M502.28,-113.46C537.34,-103.18 586.21,-88.85 618.09,-79.5"/>
<polygon fill="midnightblue" stroke="midnightblue" points="500.95,-110.2 492.33,-116.37 502.91,-116.92 500.95,-110.2"/>
</g>
<!-- Node11 -->
<g id="node11" class="node">
<title>Node11</title>
<g id="a_node11"><a xlink:href="scan_8c.html" target="_top" xlink:title=" ">
<polygon fill="white" stroke="black" points="701,-58.5 701,-79.5 752,-79.5 752,-58.5 701,-58.5"/>
<text text-anchor="middle" x="726.5" y="-65.9" font-family="DejaVuSans" font-size="12.00">scan.c</text>
</a>
</g>
</g>
<!-- Node1&#45;&gt;Node11 -->
<g id="edge10" class="edge">
<title>Node1&#45;&gt;Node11</title>
<path fill="none" stroke="midnightblue" d="M503.53,-118.54C550.58,-110.29 627.21,-96.01 692.5,-80 695.25,-79.33 698.11,-78.57 700.95,-77.79"/>
<polygon fill="midnightblue" stroke="midnightblue" points="502.92,-115.1 493.67,-120.26 504.12,-121.99 502.92,-115.1"/>
</g>
<!-- Node12 -->
<g id="node12" class="node">
<title>Node12</title>
<g id="a_node12"><a xlink:href="tex__header_8h.html" target="_top" xlink:title=" ">
<polygon fill="white" stroke="black" points="770.5,-58.5 770.5,-79.5 856.5,-79.5 856.5,-58.5 770.5,-58.5"/>
<text text-anchor="middle" x="813.5" y="-65.9" font-family="DejaVuSans" font-size="12.00">tex_header.h</text>
</a>
</g>
</g>
<!-- Node1&#45;&gt;Node12 -->
<g id="edge11" class="edge">
<title>Node1&#45;&gt;Node12</title>
<path fill="none" stroke="midnightblue" d="M503.61,-119.83C562.5,-111.46 670.04,-95.75 761.5,-80 764.4,-79.5 767.39,-78.97 770.39,-78.42"/>
<polygon fill="midnightblue" stroke="midnightblue" points="502.95,-116.39 493.54,-121.26 503.93,-123.32 502.95,-116.39"/>
</g>
<!-- Node14 -->
<g id="node14" class="node">
<title>Node14</title>
<g id="a_node14"><a xlink:href="texmath_8c.html" target="_top" xlink:title=" ">
<polygon fill="white" stroke="black" points="874.5,-58.5 874.5,-79.5 942.5,-79.5 942.5,-58.5 874.5,-58.5"/>
<text text-anchor="middle" x="908.5" y="-65.9" font-family="DejaVuSans" font-size="12.00">texmath.c</text>
</a>
</g>
</g>
<!-- Node1&#45;&gt;Node14 -->
<g id="edge13" class="edge">
<title>Node1&#45;&gt;Node14</title>
<path fill="none" stroke="midnightblue" d="M503.65,-122.68C578.47,-116.68 734.81,-102.52 865.5,-80 868.37,-79.51 871.34,-78.94 874.31,-78.33"/>
<polygon fill="midnightblue" stroke="midnightblue" points="503.33,-119.2 493.64,-123.47 503.89,-126.17 503.33,-119.2"/>
</g>
<!-- Node13 -->
<g id="node13" class="node">
<title>Node13</title>
<g id="a_node13"><a xlink:href="tex_8c.html" target="_top" xlink:title=" ">
<polygon fill="white" stroke="black" points="793,-0.5 793,-21.5 834,-21.5 834,-0.5 793,-0.5"/>
<text text-anchor="middle" x="813.5" y="-7.9" font-family="DejaVuSans" font-size="12.00">tex.c</text>
</a>
</g>
</g>
<!-- Node12&#45;&gt;Node13 -->
<g id="edge12" class="edge">
<title>Node12&#45;&gt;Node13</title>
<path fill="none" stroke="midnightblue" d="M813.5,-48.16C813.5,-39.16 813.5,-28.92 813.5,-21.64"/>
<polygon fill="midnightblue" stroke="midnightblue" points="810,-48.25 813.5,-58.25 817,-48.25 810,-48.25"/>
</g>
</g>
</svg>
