<?xml version="1.0" encoding="UTF-8" standalone="no"?>
<!DOCTYPE svg PUBLIC "-//W3C//DTD SVG 1.1//EN"
 "http://www.w3.org/Graphics/SVG/1.1/DTD/svg11.dtd">
<!-- Generated by graphviz version 2.44.0 ()
 -->
<!-- Title: texmac.h Pages: 1 -->
<svg width="673pt" height="204pt"
 viewBox="0.00 0.00 672.50 204.00" xmlns="http://www.w3.org/2000/svg" xmlns:xlink="http://www.w3.org/1999/xlink">
<g id="graph0" class="graph" transform="scale(1 1) rotate(0) translate(4 200)">
<title>texmac.h</title>
<polygon fill="white" stroke="transparent" points="-4,4 -4,-200 668.5,-200 668.5,4 -4,4"/>
<!-- Node1 -->
<g id="node1" class="node">
<title>Node1</title>
<g id="a_node1"><a xlink:title=" ">
<polygon fill="#bfbfbf" stroke="black" points="310,-174.5 310,-195.5 375,-195.5 375,-174.5 310,-174.5"/>
<text text-anchor="middle" x="342.5" y="-181.9" font-family="DejaVuSans" font-size="12.00">texmac.h</text>
</a>
</g>
</g>
<!-- Node2 -->
<g id="node2" class="node">
<title>Node2</title>
<g id="a_node2"><a xlink:href="expand_8c.html" target="_top" xlink:title=" ">
<polygon fill="white" stroke="black" points="0,-58.5 0,-79.5 65,-79.5 65,-58.5 0,-58.5"/>
<text text-anchor="middle" x="32.5" y="-65.9" font-family="DejaVuSans" font-size="12.00">expand.c</text>
</a>
</g>
</g>
<!-- Node1&#45;&gt;Node2 -->
<g id="edge1" class="edge">
<title>Node1&#45;&gt;Node2</title>
<path fill="none" stroke="midnightblue" d="M301.65,-171.47C273.37,-162.6 234.94,-150.17 201.5,-138 148.3,-118.64 86.87,-93.11 54.73,-79.5"/>
<polygon fill="midnightblue" stroke="midnightblue" points="300.62,-174.82 311.21,-174.46 302.71,-168.14 300.62,-174.82"/>
</g>
<!-- Node3 -->
<g id="node3" class="node">
<title>Node3</title>
<g id="a_node3"><a xlink:href="hash_8c.html" target="_top" xlink:title=" ">
<polygon fill="white" stroke="black" points="83.5,-58.5 83.5,-79.5 135.5,-79.5 135.5,-58.5 83.5,-58.5"/>
<text text-anchor="middle" x="109.5" y="-65.9" font-family="DejaVuSans" font-size="12.00">hash.c</text>
</a>
</g>
</g>
<!-- Node1&#45;&gt;Node3 -->
<g id="edge2" class="edge">
<title>Node1&#45;&gt;Node3</title>
<path fill="none" stroke="midnightblue" d="M313.81,-169.96C265.75,-146.45 170.2,-99.7 129.07,-79.58"/>
<polygon fill="midnightblue" stroke="midnightblue" points="312.51,-173.23 323.04,-174.48 315.59,-166.94 312.51,-173.23"/>
</g>
<!-- Node4 -->
<g id="node4" class="node">
<title>Node4</title>
<g id="a_node4"><a xlink:href="print_8h.html" target="_top" xlink:title=" ">
<polygon fill="white" stroke="black" points="291.5,-116.5 291.5,-137.5 341.5,-137.5 341.5,-116.5 291.5,-116.5"/>
<text text-anchor="middle" x="316.5" y="-123.9" font-family="DejaVuSans" font-size="12.00">print.h</text>
</a>
</g>
</g>
<!-- Node1&#45;&gt;Node4 -->
<g id="edge3" class="edge">
<title>Node1&#45;&gt;Node4</title>
<path fill="none" stroke="midnightblue" d="M333.7,-165.04C329.42,-155.83 324.47,-145.16 320.98,-137.64"/>
<polygon fill="midnightblue" stroke="midnightblue" points="330.59,-166.65 337.97,-174.25 336.93,-163.7 330.59,-166.65"/>
</g>
<!-- Node10 -->
<g id="node10" class="node">
<title>Node10</title>
<g id="a_node10"><a xlink:href="printout_8c.html" target="_top" xlink:title=" ">
<polygon fill="white" stroke="black" points="495,-58.5 495,-79.5 560,-79.5 560,-58.5 495,-58.5"/>
<text text-anchor="middle" x="527.5" y="-65.9" font-family="DejaVuSans" font-size="12.00">printout.c</text>
</a>
</g>
</g>
<!-- Node1&#45;&gt;Node10 -->
<g id="edge14" class="edge">
<title>Node1&#45;&gt;Node10</title>
<path fill="none" stroke="midnightblue" d="M352.41,-165.16C361.3,-149.93 375.68,-128.96 393.5,-116 409.91,-104.06 460.83,-88.4 494.96,-78.78"/>
<polygon fill="midnightblue" stroke="midnightblue" points="349.18,-163.76 347.38,-174.2 355.3,-167.17 349.18,-163.76"/>
</g>
<!-- Node11 -->
<g id="node11" class="node">
<title>Node11</title>
<g id="a_node11"><a xlink:href="tex__header_8h.html" target="_top" xlink:title=" ">
<polygon fill="white" stroke="black" points="578.5,-58.5 578.5,-79.5 664.5,-79.5 664.5,-58.5 578.5,-58.5"/>
<text text-anchor="middle" x="621.5" y="-65.9" font-family="DejaVuSans" font-size="12.00">tex_header.h</text>
</a>
</g>
</g>
<!-- Node1&#45;&gt;Node11 -->
<g id="edge16" class="edge">
<title>Node1&#45;&gt;Node11</title>
<path fill="none" stroke="midnightblue" d="M360.8,-167.56C380.98,-149.73 412.44,-122.9 426.5,-116 440.08,-109.34 525.29,-90.48 578.48,-79.08"/>
<polygon fill="midnightblue" stroke="midnightblue" points="358.33,-165.08 353.18,-174.34 362.98,-170.31 358.33,-165.08"/>
</g>
<!-- Node13 -->
<g id="node13" class="node">
<title>Node13</title>
<g id="a_node13"><a xlink:href="scan_8c.html" target="_top" xlink:title=" ">
<polygon fill="white" stroke="black" points="436,-116.5 436,-137.5 487,-137.5 487,-116.5 436,-116.5"/>
<text text-anchor="middle" x="461.5" y="-123.9" font-family="DejaVuSans" font-size="12.00">scan.c</text>
</a>
</g>
</g>
<!-- Node1&#45;&gt;Node13 -->
<g id="edge15" class="edge">
<title>Node1&#45;&gt;Node13</title>
<path fill="none" stroke="midnightblue" d="M372.01,-170.11C393.59,-159.96 422.3,-146.45 441.31,-137.5"/>
<polygon fill="midnightblue" stroke="midnightblue" points="370.51,-166.95 362.96,-174.37 373.5,-173.28 370.51,-166.95"/>
</g>
<!-- Node4&#45;&gt;Node2 -->
<g id="edge6" class="edge">
<title>Node4&#45;&gt;Node2</title>
<path fill="none" stroke="midnightblue" d="M281.33,-119.84C234.14,-111.45 147.79,-95.68 74.5,-80 71.42,-79.34 68.22,-78.63 65.03,-77.9"/>
<polygon fill="midnightblue" stroke="midnightblue" points="280.88,-123.31 291.34,-121.61 282.1,-116.42 280.88,-123.31"/>
</g>
<!-- Node4&#45;&gt;Node3 -->
<g id="edge8" class="edge">
<title>Node4&#45;&gt;Node3</title>
<path fill="none" stroke="midnightblue" d="M281.72,-116.88C246.94,-107.72 191.95,-93.12 144.5,-80 141.7,-79.23 138.77,-78.41 135.86,-77.58"/>
<polygon fill="midnightblue" stroke="midnightblue" points="280.84,-120.27 291.4,-119.43 282.62,-113.5 280.84,-120.27"/>
</g>
<!-- Node5 -->
<g id="node5" class="node">
<title>Node5</title>
<g id="a_node5"><a xlink:href="eqtb_8c.html" target="_top" xlink:title=" ">
<polygon fill="white" stroke="black" points="359,-58.5 359,-79.5 408,-79.5 408,-58.5 359,-58.5"/>
<text text-anchor="middle" x="383.5" y="-65.9" font-family="DejaVuSans" font-size="12.00">eqtb.c</text>
</a>
</g>
</g>
<!-- Node4&#45;&gt;Node5 -->
<g id="edge4" class="edge">
<title>Node4&#45;&gt;Node5</title>
<path fill="none" stroke="midnightblue" d="M336.07,-109.65C347.72,-99.91 362.11,-87.88 371.96,-79.64"/>
<polygon fill="midnightblue" stroke="midnightblue" points="333.6,-107.15 328.17,-116.25 338.09,-112.52 333.6,-107.15"/>
</g>
<!-- Node6 -->
<g id="node6" class="node">
<title>Node6</title>
<g id="a_node6"><a xlink:href="error_8c.html" target="_top" xlink:title=" ">
<polygon fill="white" stroke="black" points="426.5,-58.5 426.5,-79.5 476.5,-79.5 476.5,-58.5 426.5,-58.5"/>
<text text-anchor="middle" x="451.5" y="-65.9" font-family="DejaVuSans" font-size="12.00">error.c</text>
</a>
</g>
</g>
<!-- Node4&#45;&gt;Node6 -->
<g id="edge5" class="edge">
<title>Node4&#45;&gt;Node6</title>
<path fill="none" stroke="midnightblue" d="M349,-112.52C373.59,-102.32 406.74,-88.57 428.6,-79.5"/>
<polygon fill="midnightblue" stroke="midnightblue" points="347.6,-109.31 339.71,-116.37 350.29,-115.77 347.6,-109.31"/>
</g>
<!-- Node7 -->
<g id="node7" class="node">
<title>Node7</title>
<g id="a_node7"><a xlink:href="fonts_8c.html" target="_top" xlink:title=" ">
<polygon fill="white" stroke="black" points="154,-58.5 154,-79.5 205,-79.5 205,-58.5 154,-58.5"/>
<text text-anchor="middle" x="179.5" y="-65.9" font-family="DejaVuSans" font-size="12.00">fonts.c</text>
</a>
</g>
</g>
<!-- Node4&#45;&gt;Node7 -->
<g id="edge7" class="edge">
<title>Node4&#45;&gt;Node7</title>
<path fill="none" stroke="midnightblue" d="M283.52,-112.52C258.57,-102.32 224.93,-88.57 202.74,-79.5"/>
<polygon fill="midnightblue" stroke="midnightblue" points="282.37,-115.83 292.95,-116.37 285.02,-109.35 282.37,-115.83"/>
</g>
<!-- Node8 -->
<g id="node8" class="node">
<title>Node8</title>
<g id="a_node8"><a xlink:href="lexer_8c.html" target="_top" xlink:title=" ">
<polygon fill="white" stroke="black" points="223,-58.5 223,-79.5 274,-79.5 274,-58.5 223,-58.5"/>
<text text-anchor="middle" x="248.5" y="-65.9" font-family="DejaVuSans" font-size="12.00">lexer.c</text>
</a>
</g>
</g>
<!-- Node4&#45;&gt;Node8 -->
<g id="edge9" class="edge">
<title>Node4&#45;&gt;Node8</title>
<path fill="none" stroke="midnightblue" d="M296.64,-109.65C284.81,-99.91 270.21,-87.88 260.21,-79.64"/>
<polygon fill="midnightblue" stroke="midnightblue" points="294.71,-112.59 304.66,-116.25 299.16,-107.19 294.71,-112.59"/>
</g>
<!-- Node9 -->
<g id="node9" class="node">
<title>Node9</title>
<g id="a_node9"><a xlink:href="print_8c.html" target="_top" xlink:title=" ">
<polygon fill="white" stroke="black" points="292,-58.5 292,-79.5 341,-79.5 341,-58.5 292,-58.5"/>
<text text-anchor="middle" x="316.5" y="-65.9" font-family="DejaVuSans" font-size="12.00">print.c</text>
</a>
</g>
</g>
<!-- Node4&#45;&gt;Node9 -->
<g id="edge10" class="edge">
<title>Node4&#45;&gt;Node9</title>
<path fill="none" stroke="midnightblue" d="M316.5,-106.16C316.5,-97.16 316.5,-86.92 316.5,-79.64"/>
<polygon fill="midnightblue" stroke="midnightblue" points="313,-106.25 316.5,-116.25 320,-106.25 313,-106.25"/>
</g>
<!-- Node4&#45;&gt;Node10 -->
<g id="edge11" class="edge">
<title>Node4&#45;&gt;Node10</title>
<path fill="none" stroke="midnightblue" d="M351.35,-116.75C391.22,-106.17 456,-88.98 494.9,-78.65"/>
<polygon fill="midnightblue" stroke="midnightblue" points="350.3,-113.41 341.53,-119.36 352.1,-120.17 350.3,-113.41"/>
</g>
<!-- Node4&#45;&gt;Node11 -->
<g id="edge12" class="edge">
<title>Node4&#45;&gt;Node11</title>
<path fill="none" stroke="midnightblue" d="M351.56,-119.67C400.25,-110.86 491.1,-94.37 568.5,-80 571.72,-79.4 575.05,-78.78 578.41,-78.15"/>
<polygon fill="midnightblue" stroke="midnightblue" points="350.76,-116.26 341.55,-121.48 352.01,-123.14 350.76,-116.26"/>
</g>
<!-- Node12 -->
<g id="node12" class="node">
<title>Node12</title>
<g id="a_node12"><a xlink:href="tex_8c.html" target="_top" xlink:title=" ">
<polygon fill="white" stroke="black" points="601,-0.5 601,-21.5 642,-21.5 642,-0.5 601,-0.5"/>
<text text-anchor="middle" x="621.5" y="-7.9" font-family="DejaVuSans" font-size="12.00">tex.c</text>
</a>
</g>
</g>
<!-- Node11&#45;&gt;Node12 -->
<g id="edge13" class="edge">
<title>Node11&#45;&gt;Node12</title>
<path fill="none" stroke="midnightblue" d="M621.5,-48.16C621.5,-39.16 621.5,-28.92 621.5,-21.64"/>
<polygon fill="midnightblue" stroke="midnightblue" points="618,-48.25 621.5,-58.25 625,-48.25 618,-48.25"/>
</g>
</g>
</svg>
