<?xml version="1.0" encoding="UTF-8" standalone="no"?>
<!DOCTYPE svg PUBLIC "-//W3C//DTD SVG 1.1//EN"
 "http://www.w3.org/Graphics/SVG/1.1/DTD/svg11.dtd">
<!-- Generated by graphviz version 2.42.3 ()
 -->
<!-- Title: texmath.h Pages: 1 -->
<svg width="416pt" height="146pt"
 viewBox="0.00 0.00 415.50 146.00" xmlns="http://www.w3.org/2000/svg" xmlns:xlink="http://www.w3.org/1999/xlink">
<g id="graph0" class="graph" transform="scale(1 1) rotate(0) translate(4 142)">
<title>texmath.h</title>
<polygon fill="white" stroke="transparent" points="-4,4 -4,-142 411.5,-142 411.5,4 -4,4"/>
<!-- Node1 -->
<g id="node1" class="node">
<title>Node1</title>
<g id="a_node1"><a xlink:title=" ">
<polygon fill="#bfbfbf" stroke="black" points="150.5,-116.5 150.5,-137.5 218.5,-137.5 218.5,-116.5 150.5,-116.5"/>
<text text-anchor="middle" x="184.5" y="-123.9" font-family="DejaVuSans" font-size="12.00">texmath.h</text>
</a>
</g>
</g>
<!-- Node2 -->
<g id="node2" class="node">
<title>Node2</title>
<g id="a_node2"><a xlink:href="expand_8c.html" target="_top" xlink:title=" ">
<polygon fill="white" stroke="black" points="0,-58.5 0,-79.5 65,-79.5 65,-58.5 0,-58.5"/>
<text text-anchor="middle" x="32.5" y="-65.9" font-family="DejaVuSans" font-size="12.00">expand.c</text>
</a>
</g>
</g>
<!-- Node1&#45;&gt;Node2 -->
<g id="edge1" class="edge">
<title>Node1&#45;&gt;Node2</title>
<path fill="none" stroke="midnightblue" d="M148.64,-112.79C120.89,-102.56 83.12,-88.65 58.29,-79.5"/>
<polygon fill="midnightblue" stroke="midnightblue" points="147.78,-116.2 158.37,-116.37 150.2,-109.63 147.78,-116.2"/>
</g>
<!-- Node3 -->
<g id="node3" class="node">
<title>Node3</title>
<g id="a_node3"><a xlink:href="fonts_8c.html" target="_top" xlink:title=" ">
<polygon fill="white" stroke="black" points="83,-58.5 83,-79.5 134,-79.5 134,-58.5 83,-58.5"/>
<text text-anchor="middle" x="108.5" y="-65.9" font-family="DejaVuSans" font-size="12.00">fonts.c</text>
</a>
</g>
</g>
<!-- Node1&#45;&gt;Node3 -->
<g id="edge2" class="edge">
<title>Node1&#45;&gt;Node3</title>
<path fill="none" stroke="midnightblue" d="M163.07,-110.21C149.72,-100.37 132.98,-88.04 121.59,-79.64"/>
<polygon fill="midnightblue" stroke="midnightblue" points="161.14,-113.13 171.26,-116.25 165.29,-107.5 161.14,-113.13"/>
</g>
<!-- Node4 -->
<g id="node4" class="node">
<title>Node4</title>
<g id="a_node4"><a xlink:href="printout_8c.html" target="_top" xlink:title=" ">
<polygon fill="white" stroke="black" points="152,-58.5 152,-79.5 217,-79.5 217,-58.5 152,-58.5"/>
<text text-anchor="middle" x="184.5" y="-65.9" font-family="DejaVuSans" font-size="12.00">printout.c</text>
</a>
</g>
</g>
<!-- Node1&#45;&gt;Node4 -->
<g id="edge3" class="edge">
<title>Node1&#45;&gt;Node4</title>
<path fill="none" stroke="midnightblue" d="M184.5,-106.16C184.5,-97.16 184.5,-86.92 184.5,-79.64"/>
<polygon fill="midnightblue" stroke="midnightblue" points="181,-106.25 184.5,-116.25 188,-106.25 181,-106.25"/>
</g>
<!-- Node5 -->
<g id="node5" class="node">
<title>Node5</title>
<g id="a_node5"><a xlink:href="tex__header_8h.html" target="_top" xlink:title=" ">
<polygon fill="white" stroke="black" points="235.5,-58.5 235.5,-79.5 321.5,-79.5 321.5,-58.5 235.5,-58.5"/>
<text text-anchor="middle" x="278.5" y="-65.9" font-family="DejaVuSans" font-size="12.00">tex_header.h</text>
</a>
</g>
</g>
<!-- Node1&#45;&gt;Node5 -->
<g id="edge4" class="edge">
<title>Node1&#45;&gt;Node5</title>
<path fill="none" stroke="midnightblue" d="M209.6,-111.05C226.33,-101.08 247.82,-88.28 262.31,-79.64"/>
<polygon fill="midnightblue" stroke="midnightblue" points="207.67,-108.12 200.87,-116.25 211.26,-114.13 207.67,-108.12"/>
</g>
<!-- Node7 -->
<g id="node7" class="node">
<title>Node7</title>
<g id="a_node7"><a xlink:href="texmath_8c.html" target="_top" xlink:title=" ">
<polygon fill="white" stroke="black" points="339.5,-58.5 339.5,-79.5 407.5,-79.5 407.5,-58.5 339.5,-58.5"/>
<text text-anchor="middle" x="373.5" y="-65.9" font-family="DejaVuSans" font-size="12.00">texmath.c</text>
</a>
</g>
</g>
<!-- Node1&#45;&gt;Node7 -->
<g id="edge6" class="edge">
<title>Node1&#45;&gt;Node7</title>
<path fill="none" stroke="midnightblue" d="M226.84,-113.46C261.53,-103.18 309.88,-88.85 341.43,-79.5"/>
<polygon fill="midnightblue" stroke="midnightblue" points="225.58,-110.18 216.99,-116.37 227.57,-116.89 225.58,-110.18"/>
</g>
<!-- Node6 -->
<g id="node6" class="node">
<title>Node6</title>
<g id="a_node6"><a xlink:href="tex_8c.html" target="_top" xlink:title=" ">
<polygon fill="white" stroke="black" points="258,-0.5 258,-21.5 299,-21.5 299,-0.5 258,-0.5"/>
<text text-anchor="middle" x="278.5" y="-7.9" font-family="DejaVuSans" font-size="12.00">tex.c</text>
</a>
</g>
</g>
<!-- Node5&#45;&gt;Node6 -->
<g id="edge5" class="edge">
<title>Node5&#45;&gt;Node6</title>
<path fill="none" stroke="midnightblue" d="M278.5,-48.16C278.5,-39.16 278.5,-28.92 278.5,-21.64"/>
<polygon fill="midnightblue" stroke="midnightblue" points="275,-48.25 278.5,-58.25 282,-48.25 275,-48.25"/>
</g>
</g>
</svg>
