<?xml version="1.0" encoding="UTF-8" standalone="no"?>
<!DOCTYPE svg PUBLIC "-//W3C//DTD SVG 1.1//EN"
 "http://www.w3.org/Graphics/SVG/1.1/DTD/svg11.dtd">
<!-- Generated by graphviz version 2.44.0 ()
 -->
<!-- Title: texmac.h Pages: 1 -->
<svg width="1253pt" height="204pt"
 viewBox="0.00 0.00 1252.50 204.00" xmlns="http://www.w3.org/2000/svg" xmlns:xlink="http://www.w3.org/1999/xlink">
<g id="graph0" class="graph" transform="scale(1 1) rotate(0) translate(4 200)">
<title>texmac.h</title>
<polygon fill="white" stroke="transparent" points="-4,4 -4,-200 1248.5,-200 1248.5,4 -4,4"/>
<!-- Node1 -->
<g id="node1" class="node">
<title>Node1</title>
<g id="a_node1"><a xlink:title=" ">
<polygon fill="#bfbfbf" stroke="black" points="537,-174.5 537,-195.5 602,-195.5 602,-174.5 537,-174.5"/>
<text text-anchor="middle" x="569.5" y="-181.9" font-family="DejaVuSans" font-size="12.00">texmac.h</text>
</a>
</g>
</g>
<!-- Node2 -->
<g id="node2" class="node">
<title>Node2</title>
<g id="a_node2"><a xlink:href="box__copy_8c.html" target="_top" xlink:title=" ">
<polygon fill="white" stroke="black" points="279,-116.5 279,-137.5 356,-137.5 356,-116.5 279,-116.5"/>
<text text-anchor="middle" x="317.5" y="-123.9" font-family="DejaVuSans" font-size="12.00">box_copy.c</text>
</a>
</g>
</g>
<!-- Node1&#45;&gt;Node2 -->
<g id="edge1" class="edge">
<title>Node1&#45;&gt;Node2</title>
<path fill="none" stroke="midnightblue" d="M526.8,-174.51C479.06,-163.9 402.42,-146.87 356.32,-136.63"/>
<polygon fill="midnightblue" stroke="midnightblue" points="526.29,-177.98 536.81,-176.74 527.81,-171.15 526.29,-177.98"/>
</g>
<!-- Node3 -->
<g id="node3" class="node">
<title>Node3</title>
<g id="a_node3"><a xlink:href="box__destroy_8c.html" target="_top" xlink:title=" ">
<polygon fill="white" stroke="black" points="374,-116.5 374,-137.5 465,-137.5 465,-116.5 374,-116.5"/>
<text text-anchor="middle" x="419.5" y="-123.9" font-family="DejaVuSans" font-size="12.00">box_destroy.c</text>
</a>
</g>
</g>
<!-- Node1&#45;&gt;Node3 -->
<g id="edge2" class="edge">
<title>Node1&#45;&gt;Node3</title>
<path fill="none" stroke="midnightblue" d="M534.11,-170.79C506.72,-160.56 469.45,-146.65 444.95,-137.5"/>
<polygon fill="midnightblue" stroke="midnightblue" points="533.12,-174.15 543.71,-174.37 535.57,-167.6 533.12,-174.15"/>
</g>
<!-- Node4 -->
<g id="node4" class="node">
<title>Node4</title>
<g id="a_node4"><a xlink:href="expand_8c.html" target="_top" xlink:title=" ">
<polygon fill="white" stroke="black" points="0,-58.5 0,-79.5 65,-79.5 65,-58.5 0,-58.5"/>
<text text-anchor="middle" x="32.5" y="-65.9" font-family="DejaVuSans" font-size="12.00">expand.c</text>
</a>
</g>
</g>
<!-- Node1&#45;&gt;Node4 -->
<g id="edge3" class="edge">
<title>Node1&#45;&gt;Node4</title>
<path fill="none" stroke="midnightblue" d="M548.56,-168.29C522.9,-149.17 481.81,-119.06 473.5,-116 306.43,-54.42 250.23,-108.69 74.5,-80 71.54,-79.52 68.48,-78.94 65.42,-78.31"/>
<polygon fill="midnightblue" stroke="midnightblue" points="546.49,-171.11 556.6,-174.29 550.68,-165.5 546.49,-171.11"/>
</g>
<!-- Node5 -->
<g id="node5" class="node">
<title>Node5</title>
<g id="a_node5"><a xlink:href="hash_8c.html" target="_top" xlink:title=" ">
<polygon fill="white" stroke="black" points="83.5,-58.5 83.5,-79.5 135.5,-79.5 135.5,-58.5 83.5,-58.5"/>
<text text-anchor="middle" x="109.5" y="-65.9" font-family="DejaVuSans" font-size="12.00">hash.c</text>
</a>
</g>
</g>
<!-- Node1&#45;&gt;Node5 -->
<g id="edge4" class="edge">
<title>Node1&#45;&gt;Node5</title>
<path fill="none" stroke="midnightblue" d="M558.25,-165.41C547.41,-149.35 529.46,-127.02 507.5,-116 362.6,-43.27 303.75,-110.39 144.5,-80 141.64,-79.46 138.69,-78.78 135.75,-78.05"/>
<polygon fill="midnightblue" stroke="midnightblue" points="555.43,-167.5 563.78,-174.02 561.32,-163.71 555.43,-167.5"/>
</g>
<!-- Node6 -->
<g id="node6" class="node">
<title>Node6</title>
<g id="a_node6"><a xlink:href="mem_8c.html" target="_top" xlink:title=" ">
<polygon fill="white" stroke="black" points="153.5,-58.5 153.5,-79.5 205.5,-79.5 205.5,-58.5 153.5,-58.5"/>
<text text-anchor="middle" x="179.5" y="-65.9" font-family="DejaVuSans" font-size="12.00">mem.c</text>
</a>
</g>
</g>
<!-- Node1&#45;&gt;Node6 -->
<g id="edge5" class="edge">
<title>Node1&#45;&gt;Node6</title>
<path fill="none" stroke="midnightblue" d="M568.05,-164.07C565.78,-148.45 560.03,-127.51 545.5,-116 487.5,-70.06 287.11,-94.21 214.5,-80 211.65,-79.44 208.69,-78.76 205.76,-78.02"/>
<polygon fill="midnightblue" stroke="midnightblue" points="564.6,-164.72 569.16,-174.28 571.56,-163.96 564.6,-164.72"/>
</g>
<!-- Node7 -->
<g id="node7" class="node">
<title>Node7</title>
<g id="a_node7"><a xlink:href="print_8h.html" target="_top" xlink:title=" ">
<polygon fill="white" stroke="black" points="597.5,-116.5 597.5,-137.5 647.5,-137.5 647.5,-116.5 597.5,-116.5"/>
<text text-anchor="middle" x="622.5" y="-123.9" font-family="DejaVuSans" font-size="12.00">print.h</text>
</a>
</g>
</g>
<!-- Node1&#45;&gt;Node7 -->
<g id="edge6" class="edge">
<title>Node1&#45;&gt;Node7</title>
<path fill="none" stroke="midnightblue" d="M585.79,-166.79C594.86,-157.21 605.81,-145.64 613.37,-137.64"/>
<polygon fill="midnightblue" stroke="midnightblue" points="583.06,-164.58 578.73,-174.25 588.15,-169.39 583.06,-164.58"/>
</g>
<!-- Node16 -->
<g id="node16" class="node">
<title>Node16</title>
<g id="a_node16"><a xlink:href="printout_8c.html" target="_top" xlink:title=" ">
<polygon fill="white" stroke="black" points="1006,-58.5 1006,-79.5 1071,-79.5 1071,-58.5 1006,-58.5"/>
<text text-anchor="middle" x="1038.5" y="-65.9" font-family="DejaVuSans" font-size="12.00">printout.c</text>
</a>
</g>
</g>
<!-- Node1&#45;&gt;Node16 -->
<g id="edge24" class="edge">
<title>Node1&#45;&gt;Node16</title>
<path fill="none" stroke="midnightblue" d="M611.98,-173.68C704.56,-151.17 922.9,-98.1 1005.8,-77.95"/>
<polygon fill="midnightblue" stroke="midnightblue" points="611,-170.31 602.11,-176.07 612.65,-177.11 611,-170.31"/>
</g>
<!-- Node17 -->
<g id="node17" class="node">
<title>Node17</title>
<g id="a_node17"><a xlink:href="scan_8c.html" target="_top" xlink:title=" ">
<polygon fill="white" stroke="black" points="1089,-58.5 1089,-79.5 1140,-79.5 1140,-58.5 1089,-58.5"/>
<text text-anchor="middle" x="1114.5" y="-65.9" font-family="DejaVuSans" font-size="12.00">scan.c</text>
</a>
</g>
</g>
<!-- Node1&#45;&gt;Node17 -->
<g id="edge25" class="edge">
<title>Node1&#45;&gt;Node17</title>
<path fill="none" stroke="midnightblue" d="M612.14,-176.72C700.1,-161.38 907.84,-123.56 1079.5,-80 1082.56,-79.22 1085.76,-78.37 1088.93,-77.5"/>
<polygon fill="midnightblue" stroke="midnightblue" points="611.51,-173.27 602.26,-178.43 612.71,-180.17 611.51,-173.27"/>
</g>
<!-- Node19 -->
<g id="node19" class="node">
<title>Node19</title>
<g id="a_node19"><a xlink:href="tex__header_8h.html" target="_top" xlink:title=" ">
<polygon fill="white" stroke="black" points="1158.5,-58.5 1158.5,-79.5 1244.5,-79.5 1244.5,-58.5 1158.5,-58.5"/>
<text text-anchor="middle" x="1201.5" y="-65.9" font-family="DejaVuSans" font-size="12.00">tex_header.h</text>
</a>
</g>
</g>
<!-- Node1&#45;&gt;Node19 -->
<g id="edge26" class="edge">
<title>Node1&#45;&gt;Node19</title>
<path fill="none" stroke="midnightblue" d="M612.39,-178.69C673.3,-170.93 788.28,-155.52 885.5,-138 985.19,-120.04 1101.39,-93.6 1161.27,-79.57"/>
<polygon fill="midnightblue" stroke="midnightblue" points="611.85,-175.23 602.37,-179.96 612.73,-182.17 611.85,-175.23"/>
</g>
<!-- Node7&#45;&gt;Node4 -->
<g id="edge11" class="edge">
<title>Node7&#45;&gt;Node4</title>
<path fill="none" stroke="midnightblue" d="M587.17,-122.89C564.43,-120.9 534.22,-118.27 507.5,-116 315.09,-99.64 265.19,-110.45 74.5,-80 71.54,-79.53 68.48,-78.96 65.42,-78.33"/>
<polygon fill="midnightblue" stroke="midnightblue" points="587.11,-126.4 597.38,-123.79 587.72,-119.43 587.11,-126.4"/>
</g>
<!-- Node7&#45;&gt;Node5 -->
<g id="edge13" class="edge">
<title>Node7&#45;&gt;Node5</title>
<path fill="none" stroke="midnightblue" d="M587.19,-121.12C574.11,-119.38 559.14,-117.5 545.5,-116 367.63,-96.47 320.42,-112.72 144.5,-80 141.64,-79.47 138.68,-78.8 135.75,-78.07"/>
<polygon fill="midnightblue" stroke="midnightblue" points="586.84,-124.6 597.21,-122.46 587.77,-117.66 586.84,-124.6"/>
</g>
<!-- Node7&#45;&gt;Node6 -->
<g id="edge16" class="edge">
<title>Node7&#45;&gt;Node6</title>
<path fill="none" stroke="midnightblue" d="M587.38,-116.73C586.08,-116.47 584.78,-116.22 583.5,-116 421.21,-87.45 376.38,-110.76 214.5,-80 211.64,-79.46 208.68,-78.79 205.75,-78.05"/>
<polygon fill="midnightblue" stroke="midnightblue" points="586.93,-120.21 597.45,-118.97 588.45,-113.38 586.93,-120.21"/>
</g>
<!-- Node8 -->
<g id="node8" class="node">
<title>Node8</title>
<g id="a_node8"><a xlink:href="box__display_8c.html" target="_top" xlink:title=" ">
<polygon fill="white" stroke="black" points="366,-58.5 366,-79.5 455,-79.5 455,-58.5 366,-58.5"/>
<text text-anchor="middle" x="410.5" y="-65.9" font-family="DejaVuSans" font-size="12.00">box_display.c</text>
</a>
</g>
</g>
<!-- Node7&#45;&gt;Node8 -->
<g id="edge7" class="edge">
<title>Node7&#45;&gt;Node8</title>
<path fill="none" stroke="midnightblue" d="M587.51,-116.76C548.57,-106.47 485.97,-89.93 446.59,-79.53"/>
<polygon fill="midnightblue" stroke="midnightblue" points="586.79,-120.19 597.35,-119.36 588.57,-113.42 586.79,-120.19"/>
</g>
<!-- Node9 -->
<g id="node9" class="node">
<title>Node9</title>
<g id="a_node9"><a xlink:href="eqtb_8c.html" target="_top" xlink:title=" ">
<polygon fill="white" stroke="black" points="473,-58.5 473,-79.5 522,-79.5 522,-58.5 473,-58.5"/>
<text text-anchor="middle" x="497.5" y="-65.9" font-family="DejaVuSans" font-size="12.00">eqtb.c</text>
</a>
</g>
</g>
<!-- Node7&#45;&gt;Node9 -->
<g id="edge8" class="edge">
<title>Node7&#45;&gt;Node9</title>
<path fill="none" stroke="midnightblue" d="M591.8,-112.25C569.1,-102.08 538.77,-88.49 518.71,-79.5"/>
<polygon fill="midnightblue" stroke="midnightblue" points="590.45,-115.48 601.01,-116.37 593.32,-109.09 590.45,-115.48"/>
</g>
<!-- Node10 -->
<g id="node10" class="node">
<title>Node10</title>
<g id="a_node10"><a xlink:href="eqtb__save_8c.html" target="_top" xlink:title=" ">
<polygon fill="white" stroke="black" points="540,-58.5 540,-79.5 621,-79.5 621,-58.5 540,-58.5"/>
<text text-anchor="middle" x="580.5" y="-65.9" font-family="DejaVuSans" font-size="12.00">eqtb_save.c</text>
</a>
</g>
</g>
<!-- Node7&#45;&gt;Node10 -->
<g id="edge9" class="edge">
<title>Node7&#45;&gt;Node10</title>
<path fill="none" stroke="midnightblue" d="M609.16,-108.21C602.06,-98.75 593.61,-87.48 587.73,-79.64"/>
<polygon fill="midnightblue" stroke="midnightblue" points="606.38,-110.35 615.18,-116.25 611.98,-106.15 606.38,-110.35"/>
</g>
<!-- Node11 -->
<g id="node11" class="node">
<title>Node11</title>
<g id="a_node11"><a xlink:href="error_8c.html" target="_top" xlink:title=" ">
<polygon fill="white" stroke="black" points="639.5,-58.5 639.5,-79.5 689.5,-79.5 689.5,-58.5 639.5,-58.5"/>
<text text-anchor="middle" x="664.5" y="-65.9" font-family="DejaVuSans" font-size="12.00">error.c</text>
</a>
</g>
</g>
<!-- Node7&#45;&gt;Node11 -->
<g id="edge10" class="edge">
<title>Node7&#45;&gt;Node11</title>
<path fill="none" stroke="midnightblue" d="M635.84,-108.21C642.94,-98.75 651.39,-87.48 657.27,-79.64"/>
<polygon fill="midnightblue" stroke="midnightblue" points="633.02,-106.15 629.82,-116.25 638.62,-110.35 633.02,-106.15"/>
</g>
<!-- Node12 -->
<g id="node12" class="node">
<title>Node12</title>
<g id="a_node12"><a xlink:href="fonts_8c.html" target="_top" xlink:title=" ">
<polygon fill="white" stroke="black" points="708,-58.5 708,-79.5 759,-79.5 759,-58.5 708,-58.5"/>
<text text-anchor="middle" x="733.5" y="-65.9" font-family="DejaVuSans" font-size="12.00">fonts.c</text>
</a>
</g>
</g>
<!-- Node7&#45;&gt;Node12 -->
<g id="edge12" class="edge">
<title>Node7&#45;&gt;Node12</title>
<path fill="none" stroke="midnightblue" d="M650.57,-111.84C670.64,-101.71 697.09,-88.37 714.67,-79.5"/>
<polygon fill="midnightblue" stroke="midnightblue" points="648.93,-108.74 641.58,-116.37 652.09,-114.99 648.93,-108.74"/>
</g>
<!-- Node13 -->
<g id="node13" class="node">
<title>Node13</title>
<g id="a_node13"><a xlink:href="io__fname_8c.html" target="_top" xlink:title=" ">
<polygon fill="white" stroke="black" points="777,-58.5 777,-79.5 852,-79.5 852,-58.5 777,-58.5"/>
<text text-anchor="middle" x="814.5" y="-65.9" font-family="DejaVuSans" font-size="12.00">io_fname.c</text>
</a>
</g>
</g>
<!-- Node7&#45;&gt;Node13 -->
<g id="edge14" class="edge">
<title>Node7&#45;&gt;Node13</title>
<path fill="none" stroke="midnightblue" d="M657.49,-115.8C692.86,-105.48 747.1,-89.66 781.68,-79.57"/>
<polygon fill="midnightblue" stroke="midnightblue" points="656.22,-112.52 647.6,-118.68 658.18,-119.24 656.22,-112.52"/>
</g>
<!-- Node14 -->
<g id="node14" class="node">
<title>Node14</title>
<g id="a_node14"><a xlink:href="lexer_8c.html" target="_top" xlink:title=" ">
<polygon fill="white" stroke="black" points="870,-58.5 870,-79.5 921,-79.5 921,-58.5 870,-58.5"/>
<text text-anchor="middle" x="895.5" y="-65.9" font-family="DejaVuSans" font-size="12.00">lexer.c</text>
</a>
</g>
</g>
<!-- Node7&#45;&gt;Node14 -->
<g id="edge15" class="edge">
<title>Node7&#45;&gt;Node14</title>
<path fill="none" stroke="midnightblue" d="M657.56,-120.21C704.17,-112.29 788.96,-97.1 860.5,-80 863.57,-79.27 866.78,-78.44 869.95,-77.58"/>
<polygon fill="midnightblue" stroke="midnightblue" points="656.95,-116.77 647.67,-121.88 658.11,-123.67 656.95,-116.77"/>
</g>
<!-- Node15 -->
<g id="node15" class="node">
<title>Node15</title>
<g id="a_node15"><a xlink:href="print_8c.html" target="_top" xlink:title=" ">
<polygon fill="white" stroke="black" points="939,-58.5 939,-79.5 988,-79.5 988,-58.5 939,-58.5"/>
<text text-anchor="middle" x="963.5" y="-65.9" font-family="DejaVuSans" font-size="12.00">print.c</text>
</a>
</g>
</g>
<!-- Node7&#45;&gt;Node15 -->
<g id="edge17" class="edge">
<title>Node7&#45;&gt;Node15</title>
<path fill="none" stroke="midnightblue" d="M657.79,-122.31C715.19,-115.95 832.15,-101.5 929.5,-80 932.5,-79.34 935.63,-78.55 938.72,-77.72"/>
<polygon fill="midnightblue" stroke="midnightblue" points="657.35,-118.84 647.78,-123.4 658.11,-125.79 657.35,-118.84"/>
</g>
<!-- Node7&#45;&gt;Node16 -->
<g id="edge18" class="edge">
<title>Node7&#45;&gt;Node16</title>
<path fill="none" stroke="midnightblue" d="M657.94,-122.97C724.59,-116.97 872.99,-102.23 996.5,-80 999.45,-79.47 1002.5,-78.86 1005.56,-78.21"/>
<polygon fill="midnightblue" stroke="midnightblue" points="657.24,-119.52 647.59,-123.89 657.86,-126.49 657.24,-119.52"/>
</g>
<!-- Node7&#45;&gt;Node17 -->
<g id="edge19" class="edge">
<title>Node7&#45;&gt;Node17</title>
<path fill="none" stroke="midnightblue" d="M657.88,-124.58C735.06,-121.03 924.11,-109.77 1079.5,-80 1082.48,-79.43 1085.57,-78.72 1088.63,-77.95"/>
<polygon fill="midnightblue" stroke="midnightblue" points="657.58,-121.09 647.74,-125.04 657.89,-128.09 657.58,-121.09"/>
</g>
<!-- Node18 -->
<g id="node18" class="node">
<title>Node18</title>
<g id="a_node18"><a xlink:href="str_8c.html" target="_top" xlink:title=" ">
<polygon fill="white" stroke="black" points="223.5,-58.5 223.5,-79.5 261.5,-79.5 261.5,-58.5 223.5,-58.5"/>
<text text-anchor="middle" x="242.5" y="-65.9" font-family="DejaVuSans" font-size="12.00">str.c</text>
</a>
</g>
</g>
<!-- Node7&#45;&gt;Node18 -->
<g id="edge20" class="edge">
<title>Node7&#45;&gt;Node18</title>
<path fill="none" stroke="midnightblue" d="M587.38,-116.76C586.07,-116.49 584.78,-116.24 583.5,-116 445.8,-90.55 406.88,-111.76 270.5,-80 267.58,-79.32 264.55,-78.44 261.61,-77.47"/>
<polygon fill="midnightblue" stroke="midnightblue" points="586.91,-120.24 597.44,-119.04 588.46,-113.41 586.91,-120.24"/>
</g>
<!-- Node7&#45;&gt;Node19 -->
<g id="edge21" class="edge">
<title>Node7&#45;&gt;Node19</title>
<path fill="none" stroke="midnightblue" d="M657.61,-124.14C742.33,-119.38 964.53,-105.34 1148.5,-80 1151.75,-79.55 1155.1,-79.04 1158.46,-78.49"/>
<polygon fill="midnightblue" stroke="midnightblue" points="657.3,-120.65 647.51,-124.7 657.69,-127.64 657.3,-120.65"/>
</g>
<!-- Node21 -->
<g id="node21" class="node">
<title>Node21</title>
<g id="a_node21"><a xlink:href="texmath_8c.html" target="_top" xlink:title=" ">
<polygon fill="white" stroke="black" points="279.5,-58.5 279.5,-79.5 347.5,-79.5 347.5,-58.5 279.5,-58.5"/>
<text text-anchor="middle" x="313.5" y="-65.9" font-family="DejaVuSans" font-size="12.00">texmath.c</text>
</a>
</g>
</g>
<!-- Node7&#45;&gt;Node21 -->
<g id="edge23" class="edge">
<title>Node7&#45;&gt;Node21</title>
<path fill="none" stroke="midnightblue" d="M587.36,-116.83C586.06,-116.54 584.77,-116.26 583.5,-116 483.47,-95.29 456.76,-99.58 356.5,-80 353.64,-79.44 350.68,-78.83 347.72,-78.19"/>
<polygon fill="midnightblue" stroke="midnightblue" points="586.87,-120.31 597.41,-119.2 588.48,-113.49 586.87,-120.31"/>
</g>
<!-- Node20 -->
<g id="node20" class="node">
<title>Node20</title>
<g id="a_node20"><a xlink:href="tex_8c.html" target="_top" xlink:title=" ">
<polygon fill="white" stroke="black" points="1181,-0.5 1181,-21.5 1222,-21.5 1222,-0.5 1181,-0.5"/>
<text text-anchor="middle" x="1201.5" y="-7.9" font-family="DejaVuSans" font-size="12.00">tex.c</text>
</a>
</g>
</g>
<!-- Node19&#45;&gt;Node20 -->
<g id="edge22" class="edge">
<title>Node19&#45;&gt;Node20</title>
<path fill="none" stroke="midnightblue" d="M1201.5,-48.16C1201.5,-39.16 1201.5,-28.92 1201.5,-21.64"/>
<polygon fill="midnightblue" stroke="midnightblue" points="1198,-48.25 1201.5,-58.25 1205,-48.25 1198,-48.25"/>
</g>
</g>
</svg>
