<?xml version="1.0" encoding="UTF-8" standalone="no"?>
<!DOCTYPE svg PUBLIC "-//W3C//DTD SVG 1.1//EN"
 "http://www.w3.org/Graphics/SVG/1.1/DTD/svg11.dtd">
<!-- Generated by graphviz version 2.44.0 ()
 -->
<!-- Title: texmath.h Pages: 1 -->
<svg width="623pt" height="146pt"
 viewBox="0.00 0.00 622.50 146.00" xmlns="http://www.w3.org/2000/svg" xmlns:xlink="http://www.w3.org/1999/xlink">
<g id="graph0" class="graph" transform="scale(1 1) rotate(0) translate(4 142)">
<title>texmath.h</title>
<polygon fill="white" stroke="transparent" points="-4,4 -4,-142 618.5,-142 618.5,4 -4,4"/>
<!-- Node1 -->
<g id="node1" class="node">
<title>Node1</title>
<g id="a_node1"><a xlink:title=" ">
<polygon fill="#bfbfbf" stroke="black" points="249.5,-116.5 249.5,-137.5 317.5,-137.5 317.5,-116.5 249.5,-116.5"/>
<text text-anchor="middle" x="283.5" y="-123.9" font-family="DejaVuSans" font-size="12.00">texmath.h</text>
</a>
</g>
</g>
<!-- Node2 -->
<g id="node2" class="node">
<title>Node2</title>
<g id="a_node2"><a xlink:href="eqtb_8c.html" target="_top" xlink:title=" ">
<polygon fill="white" stroke="black" points="0,-58.5 0,-79.5 49,-79.5 49,-58.5 0,-58.5"/>
<text text-anchor="middle" x="24.5" y="-65.9" font-family="DejaVuSans" font-size="12.00">eqtb.c</text>
</a>
</g>
</g>
<!-- Node1&#45;&gt;Node2 -->
<g id="edge1" class="edge">
<title>Node1&#45;&gt;Node2</title>
<path fill="none" stroke="midnightblue" d="M239.53,-118.15C194,-109.75 120.91,-95.53 58.5,-80 55.51,-79.26 52.4,-78.42 49.32,-77.56"/>
<polygon fill="midnightblue" stroke="midnightblue" points="238.91,-121.59 249.37,-119.95 240.17,-114.71 238.91,-121.59"/>
</g>
<!-- Node3 -->
<g id="node3" class="node">
<title>Node3</title>
<g id="a_node3"><a xlink:href="expand_8c.html" target="_top" xlink:title=" ">
<polygon fill="white" stroke="black" points="67,-58.5 67,-79.5 132,-79.5 132,-58.5 67,-58.5"/>
<text text-anchor="middle" x="99.5" y="-65.9" font-family="DejaVuSans" font-size="12.00">expand.c</text>
</a>
</g>
</g>
<!-- Node1&#45;&gt;Node3 -->
<g id="edge2" class="edge">
<title>Node1&#45;&gt;Node3</title>
<path fill="none" stroke="midnightblue" d="M242.28,-113.46C208.51,-103.18 161.43,-88.85 130.72,-79.5"/>
<polygon fill="midnightblue" stroke="midnightblue" points="241.28,-116.81 251.87,-116.37 243.32,-110.11 241.28,-116.81"/>
</g>
<!-- Node4 -->
<g id="node4" class="node">
<title>Node4</title>
<g id="a_node4"><a xlink:href="fonts_8c.html" target="_top" xlink:title=" ">
<polygon fill="white" stroke="black" points="150,-58.5 150,-79.5 201,-79.5 201,-58.5 150,-58.5"/>
<text text-anchor="middle" x="175.5" y="-65.9" font-family="DejaVuSans" font-size="12.00">fonts.c</text>
</a>
</g>
</g>
<!-- Node1&#45;&gt;Node4 -->
<g id="edge3" class="edge">
<title>Node1&#45;&gt;Node4</title>
<path fill="none" stroke="midnightblue" d="M255.72,-111.6C236.36,-101.56 211.06,-88.44 194.1,-79.64"/>
<polygon fill="midnightblue" stroke="midnightblue" points="254.2,-114.75 264.69,-116.25 257.42,-108.54 254.2,-114.75"/>
</g>
<!-- Node5 -->
<g id="node5" class="node">
<title>Node5</title>
<g id="a_node5"><a xlink:href="mem_8c.html" target="_top" xlink:title=" ">
<polygon fill="white" stroke="black" points="219.5,-58.5 219.5,-79.5 271.5,-79.5 271.5,-58.5 219.5,-58.5"/>
<text text-anchor="middle" x="245.5" y="-65.9" font-family="DejaVuSans" font-size="12.00">mem.c</text>
</a>
</g>
</g>
<!-- Node1&#45;&gt;Node5 -->
<g id="edge4" class="edge">
<title>Node1&#45;&gt;Node5</title>
<path fill="none" stroke="midnightblue" d="M271.23,-107.92C264.85,-98.52 257.31,-87.4 252.04,-79.64"/>
<polygon fill="midnightblue" stroke="midnightblue" points="268.37,-109.94 276.88,-116.25 274.16,-106.01 268.37,-109.94"/>
</g>
<!-- Node6 -->
<g id="node6" class="node">
<title>Node6</title>
<g id="a_node6"><a xlink:href="printout_8c.html" target="_top" xlink:title=" ">
<polygon fill="white" stroke="black" points="290,-58.5 290,-79.5 355,-79.5 355,-58.5 290,-58.5"/>
<text text-anchor="middle" x="322.5" y="-65.9" font-family="DejaVuSans" font-size="12.00">printout.c</text>
</a>
</g>
</g>
<!-- Node1&#45;&gt;Node6 -->
<g id="edge5" class="edge">
<title>Node1&#45;&gt;Node6</title>
<path fill="none" stroke="midnightblue" d="M296.09,-107.92C302.64,-98.52 310.38,-87.4 315.78,-79.64"/>
<polygon fill="midnightblue" stroke="midnightblue" points="293.14,-106.04 290.29,-116.25 298.88,-110.04 293.14,-106.04"/>
</g>
<!-- Node7 -->
<g id="node7" class="node">
<title>Node7</title>
<g id="a_node7"><a xlink:href="scan_8c.html" target="_top" xlink:title=" ">
<polygon fill="white" stroke="black" points="373,-58.5 373,-79.5 424,-79.5 424,-58.5 373,-58.5"/>
<text text-anchor="middle" x="398.5" y="-65.9" font-family="DejaVuSans" font-size="12.00">scan.c</text>
</a>
</g>
</g>
<!-- Node1&#45;&gt;Node7 -->
<g id="edge6" class="edge">
<title>Node1&#45;&gt;Node7</title>
<path fill="none" stroke="midnightblue" d="M312.3,-111.97C333.12,-101.83 360.7,-88.41 378.99,-79.5"/>
<polygon fill="midnightblue" stroke="midnightblue" points="310.73,-108.85 303.27,-116.37 313.79,-115.14 310.73,-108.85"/>
</g>
<!-- Node8 -->
<g id="node8" class="node">
<title>Node8</title>
<g id="a_node8"><a xlink:href="tex__header_8h.html" target="_top" xlink:title=" ">
<polygon fill="white" stroke="black" points="442.5,-58.5 442.5,-79.5 528.5,-79.5 528.5,-58.5 442.5,-58.5"/>
<text text-anchor="middle" x="485.5" y="-65.9" font-family="DejaVuSans" font-size="12.00">tex_header.h</text>
</a>
</g>
</g>
<!-- Node1&#45;&gt;Node8 -->
<g id="edge7" class="edge">
<title>Node1&#45;&gt;Node8</title>
<path fill="none" stroke="midnightblue" d="M327.8,-113.72C364.88,-103.44 417.05,-88.98 451.07,-79.55"/>
<polygon fill="midnightblue" stroke="midnightblue" points="326.47,-110.46 317.77,-116.5 328.34,-117.2 326.47,-110.46"/>
</g>
<!-- Node10 -->
<g id="node10" class="node">
<title>Node10</title>
<g id="a_node10"><a xlink:href="texmath_8c.html" target="_top" xlink:title=" ">
<polygon fill="white" stroke="black" points="546.5,-58.5 546.5,-79.5 614.5,-79.5 614.5,-58.5 546.5,-58.5"/>
<text text-anchor="middle" x="580.5" y="-65.9" font-family="DejaVuSans" font-size="12.00">texmath.c</text>
</a>
</g>
</g>
<!-- Node1&#45;&gt;Node10 -->
<g id="edge9" class="edge">
<title>Node1&#45;&gt;Node10</title>
<path fill="none" stroke="midnightblue" d="M327.68,-118.68C378.45,-110.11 464.21,-95.15 537.5,-80 540.35,-79.41 543.31,-78.78 546.27,-78.12"/>
<polygon fill="midnightblue" stroke="midnightblue" points="326.98,-115.25 317.7,-120.36 328.14,-122.15 326.98,-115.25"/>
</g>
<!-- Node9 -->
<g id="node9" class="node">
<title>Node9</title>
<g id="a_node9"><a xlink:href="tex_8c.html" target="_top" xlink:title=" ">
<polygon fill="white" stroke="black" points="465,-0.5 465,-21.5 506,-21.5 506,-0.5 465,-0.5"/>
<text text-anchor="middle" x="485.5" y="-7.9" font-family="DejaVuSans" font-size="12.00">tex.c</text>
</a>
</g>
</g>
<!-- Node8&#45;&gt;Node9 -->
<g id="edge8" class="edge">
<title>Node8&#45;&gt;Node9</title>
<path fill="none" stroke="midnightblue" d="M485.5,-48.16C485.5,-39.16 485.5,-28.92 485.5,-21.64"/>
<polygon fill="midnightblue" stroke="midnightblue" points="482,-48.25 485.5,-58.25 489,-48.25 482,-48.25"/>
</g>
</g>
</svg>
