<?xml version="1.0" encoding="UTF-8" standalone="no"?>
<!DOCTYPE svg PUBLIC "-//W3C//DTD SVG 1.1//EN"
 "http://www.w3.org/Graphics/SVG/1.1/DTD/svg11.dtd">
<!-- Generated by graphviz version 2.44.0 ()
 -->
<!-- Title: texmac.h Pages: 1 -->
<svg width="2056pt" height="204pt"
 viewBox="0.00 0.00 2055.50 204.00" xmlns="http://www.w3.org/2000/svg" xmlns:xlink="http://www.w3.org/1999/xlink">
<g id="graph0" class="graph" transform="scale(1 1) rotate(0) translate(4 200)">
<title>texmac.h</title>
<polygon fill="white" stroke="transparent" points="-4,4 -4,-200 2051.5,-200 2051.5,4 -4,4"/>
<!-- Node1 -->
<g id="node1" class="node">
<title>Node1</title>
<g id="a_node1"><a xlink:title=" ">
<polygon fill="#bfbfbf" stroke="black" points="932,-174.5 932,-195.5 997,-195.5 997,-174.5 932,-174.5"/>
<text text-anchor="middle" x="964.5" y="-181.9" font-family="DejaVuSans" font-size="12.00">texmac.h</text>
</a>
</g>
</g>
<!-- Node2 -->
<g id="node2" class="node">
<title>Node2</title>
<g id="a_node2"><a xlink:href="box__copy_8c.html" target="_top" xlink:title=" ">
<polygon fill="white" stroke="black" points="636,-116.5 636,-137.5 713,-137.5 713,-116.5 636,-116.5"/>
<text text-anchor="middle" x="674.5" y="-123.9" font-family="DejaVuSans" font-size="12.00">box_copy.c</text>
</a>
</g>
</g>
<!-- Node1&#45;&gt;Node2 -->
<g id="edge1" class="edge">
<title>Node1&#45;&gt;Node2</title>
<path fill="none" stroke="midnightblue" d="M921.99,-176.25C873.44,-167.34 791.65,-152.1 721.5,-138 718.8,-137.46 716.02,-136.89 713.21,-136.31"/>
<polygon fill="midnightblue" stroke="midnightblue" points="921.36,-179.7 931.83,-178.06 922.63,-172.81 921.36,-179.7"/>
</g>
<!-- Node3 -->
<g id="node3" class="node">
<title>Node3</title>
<g id="a_node3"><a xlink:href="box__destroy_8c.html" target="_top" xlink:title=" ">
<polygon fill="white" stroke="black" points="731,-116.5 731,-137.5 822,-137.5 822,-116.5 731,-116.5"/>
<text text-anchor="middle" x="776.5" y="-123.9" font-family="DejaVuSans" font-size="12.00">box_destroy.c</text>
</a>
</g>
</g>
<!-- Node1&#45;&gt;Node3 -->
<g id="edge2" class="edge">
<title>Node1&#45;&gt;Node3</title>
<path fill="none" stroke="midnightblue" d="M922.39,-171.46C887.88,-161.18 839.78,-146.85 808.4,-137.5"/>
<polygon fill="midnightblue" stroke="midnightblue" points="921.6,-174.87 932.18,-174.37 923.6,-168.16 921.6,-174.87"/>
</g>
<!-- Node4 -->
<g id="node4" class="node">
<title>Node4</title>
<g id="a_node4"><a xlink:href="expand_8c.html" target="_top" xlink:title=" ">
<polygon fill="white" stroke="black" points="0,-58.5 0,-79.5 65,-79.5 65,-58.5 0,-58.5"/>
<text text-anchor="middle" x="32.5" y="-65.9" font-family="DejaVuSans" font-size="12.00">expand.c</text>
</a>
</g>
</g>
<!-- Node1&#45;&gt;Node4 -->
<g id="edge3" class="edge">
<title>Node1&#45;&gt;Node4</title>
<path fill="none" stroke="midnightblue" d="M932.17,-170.53C912.3,-161.91 886.52,-150.11 864.5,-138 848.73,-129.33 847.64,-121.51 830.5,-116 670.38,-64.54 241.03,-103.58 74.5,-80 71.53,-79.58 68.47,-79.05 65.4,-78.45"/>
<polygon fill="midnightblue" stroke="midnightblue" points="930.83,-173.77 941.4,-174.49 933.59,-167.33 930.83,-173.77"/>
</g>
<!-- Node5 -->
<g id="node5" class="node">
<title>Node5</title>
<g id="a_node5"><a xlink:href="hash_8c.html" target="_top" xlink:title=" ">
<polygon fill="white" stroke="black" points="83.5,-58.5 83.5,-79.5 135.5,-79.5 135.5,-58.5 83.5,-58.5"/>
<text text-anchor="middle" x="109.5" y="-65.9" font-family="DejaVuSans" font-size="12.00">hash.c</text>
</a>
</g>
</g>
<!-- Node1&#45;&gt;Node5 -->
<g id="edge4" class="edge">
<title>Node1&#45;&gt;Node5</title>
<path fill="none" stroke="midnightblue" d="M942.68,-168.23C915.95,-149.06 873.13,-118.89 864.5,-116 712.61,-65.06 302.55,-106.18 144.5,-80 141.63,-79.53 138.66,-78.9 135.73,-78.19"/>
<polygon fill="midnightblue" stroke="midnightblue" points="940.89,-171.26 951.06,-174.26 944.98,-165.58 940.89,-171.26"/>
</g>
<!-- Node6 -->
<g id="node6" class="node">
<title>Node6</title>
<g id="a_node6"><a xlink:href="hyphen__post_8c.html" target="_top" xlink:title=" ">
<polygon fill="white" stroke="black" points="1175,-116.5 1175,-137.5 1270,-137.5 1270,-116.5 1175,-116.5"/>
<text text-anchor="middle" x="1222.5" y="-123.9" font-family="DejaVuSans" font-size="12.00">hyphen_post.c</text>
</a>
</g>
</g>
<!-- Node1&#45;&gt;Node6 -->
<g id="edge5" class="edge">
<title>Node1&#45;&gt;Node6</title>
<path fill="none" stroke="midnightblue" d="M1007.11,-174.75C1054.46,-164.47 1130.53,-147.96 1178.45,-137.56"/>
<polygon fill="midnightblue" stroke="midnightblue" points="1006.21,-171.37 997.18,-176.91 1007.69,-178.21 1006.21,-171.37"/>
</g>
<!-- Node7 -->
<g id="node7" class="node">
<title>Node7</title>
<g id="a_node7"><a xlink:href="math__formula_8c.html" target="_top" xlink:title=" ">
<polygon fill="white" stroke="black" points="153.5,-58.5 153.5,-79.5 251.5,-79.5 251.5,-58.5 153.5,-58.5"/>
<text text-anchor="middle" x="202.5" y="-65.9" font-family="DejaVuSans" font-size="12.00">math_formula.c</text>
</a>
</g>
</g>
<!-- Node1&#45;&gt;Node7 -->
<g id="edge6" class="edge">
<title>Node1&#45;&gt;Node7</title>
<path fill="none" stroke="midnightblue" d="M953.71,-165.72C942.99,-149.46 924.93,-126.67 902.5,-116 773.45,-54.65 402.47,-96.17 260.5,-80 257.66,-79.68 254.74,-79.3 251.81,-78.9"/>
<polygon fill="midnightblue" stroke="midnightblue" points="950.87,-167.78 959.15,-174.39 956.8,-164.06 950.87,-167.78"/>
</g>
<!-- Node8 -->
<g id="node8" class="node">
<title>Node8</title>
<g id="a_node8"><a xlink:href="mem_8c.html" target="_top" xlink:title=" ">
<polygon fill="white" stroke="black" points="269.5,-58.5 269.5,-79.5 321.5,-79.5 321.5,-58.5 269.5,-58.5"/>
<text text-anchor="middle" x="295.5" y="-65.9" font-family="DejaVuSans" font-size="12.00">mem.c</text>
</a>
</g>
</g>
<!-- Node1&#45;&gt;Node8 -->
<g id="edge7" class="edge">
<title>Node1&#45;&gt;Node8</title>
<path fill="none" stroke="midnightblue" d="M963.2,-163.87C961.02,-148.15 955.31,-127.15 940.5,-116 886.25,-75.17 397.43,-91.39 330.5,-80 327.63,-79.51 324.67,-78.88 321.73,-78.16"/>
<polygon fill="midnightblue" stroke="midnightblue" points="959.75,-164.58 964.24,-174.18 966.71,-163.87 959.75,-164.58"/>
</g>
<!-- Node9 -->
<g id="node9" class="node">
<title>Node9</title>
<g id="a_node9"><a xlink:href="print_8h.html" target="_top" xlink:title=" ">
<polygon fill="white" stroke="black" points="992.5,-116.5 992.5,-137.5 1042.5,-137.5 1042.5,-116.5 992.5,-116.5"/>
<text text-anchor="middle" x="1017.5" y="-123.9" font-family="DejaVuSans" font-size="12.00">print.h</text>
</a>
</g>
</g>
<!-- Node1&#45;&gt;Node9 -->
<g id="edge8" class="edge">
<title>Node1&#45;&gt;Node9</title>
<path fill="none" stroke="midnightblue" d="M980.79,-166.79C989.86,-157.21 1000.81,-145.64 1008.37,-137.64"/>
<polygon fill="midnightblue" stroke="midnightblue" points="978.06,-164.58 973.73,-174.25 983.15,-169.39 978.06,-164.58"/>
</g>
<!-- Node26 -->
<g id="node26" class="node">
<title>Node26</title>
<g id="a_node26"><a xlink:href="printout_8c.html" target="_top" xlink:title=" ">
<polygon fill="white" stroke="black" points="1809,-58.5 1809,-79.5 1874,-79.5 1874,-58.5 1809,-58.5"/>
<text text-anchor="middle" x="1841.5" y="-65.9" font-family="DejaVuSans" font-size="12.00">printout.c</text>
</a>
</g>
</g>
<!-- Node1&#45;&gt;Node26 -->
<g id="edge35" class="edge">
<title>Node1&#45;&gt;Node26</title>
<path fill="none" stroke="midnightblue" d="M991.48,-169.7C1028.75,-149.98 1091.74,-116.75 1094.5,-116 1245.83,-74.69 1644.22,-102.26 1799.5,-80 1802.47,-79.57 1805.53,-79.04 1808.59,-78.44"/>
<polygon fill="midnightblue" stroke="midnightblue" points="989.82,-166.62 982.62,-174.4 993.09,-172.81 989.82,-166.62"/>
</g>
<!-- Node27 -->
<g id="node27" class="node">
<title>Node27</title>
<g id="a_node27"><a xlink:href="scan_8c.html" target="_top" xlink:title=" ">
<polygon fill="white" stroke="black" points="1892,-58.5 1892,-79.5 1943,-79.5 1943,-58.5 1892,-58.5"/>
<text text-anchor="middle" x="1917.5" y="-65.9" font-family="DejaVuSans" font-size="12.00">scan.c</text>
</a>
</g>
</g>
<!-- Node1&#45;&gt;Node27 -->
<g id="edge36" class="edge">
<title>Node1&#45;&gt;Node27</title>
<path fill="none" stroke="midnightblue" d="M1002.65,-171.05C1027.39,-162.36 1060.18,-150.29 1088.5,-138 1108.56,-129.3 1111.35,-121.53 1132.5,-116 1455.36,-31.56 1553.21,-134.2 1882.5,-80 1885.49,-79.51 1888.59,-78.85 1891.66,-78.1"/>
<polygon fill="midnightblue" stroke="midnightblue" points="1001.21,-167.85 992.92,-174.44 1003.51,-174.46 1001.21,-167.85"/>
</g>
<!-- Node29 -->
<g id="node29" class="node">
<title>Node29</title>
<g id="a_node29"><a xlink:href="tex__header_8h.html" target="_top" xlink:title=" ">
<polygon fill="white" stroke="black" points="1961.5,-58.5 1961.5,-79.5 2047.5,-79.5 2047.5,-58.5 1961.5,-58.5"/>
<text text-anchor="middle" x="2004.5" y="-65.9" font-family="DejaVuSans" font-size="12.00">tex_header.h</text>
</a>
</g>
</g>
<!-- Node1&#45;&gt;Node29 -->
<g id="edge37" class="edge">
<title>Node1&#45;&gt;Node29</title>
<path fill="none" stroke="midnightblue" d="M1007.18,-174.36C1039.9,-166.34 1085.85,-153.72 1124.5,-138 1143.66,-130.21 1145.56,-121.5 1165.5,-116 1334.06,-69.51 1777.83,-100.26 1951.5,-80 1954.76,-79.62 1958.11,-79.16 1961.48,-78.64"/>
<polygon fill="midnightblue" stroke="midnightblue" points="1005.96,-171.05 997.05,-176.79 1007.59,-177.86 1005.96,-171.05"/>
</g>
<!-- Node9&#45;&gt;Node4 -->
<g id="edge15" class="edge">
<title>Node9&#45;&gt;Node4</title>
<path fill="none" stroke="midnightblue" d="M982.03,-123.48C951.03,-121.33 904.8,-118.23 864.5,-116 513.56,-96.54 422.55,-128.92 74.5,-80 71.53,-79.58 68.46,-79.05 65.4,-78.45"/>
<polygon fill="midnightblue" stroke="midnightblue" points="982.11,-127 992.33,-124.2 982.6,-120.01 982.11,-127"/>
</g>
<!-- Node9&#45;&gt;Node5 -->
<g id="edge17" class="edge">
<title>Node9&#45;&gt;Node5</title>
<path fill="none" stroke="midnightblue" d="M982.2,-122.57C959.46,-120.45 929.26,-117.8 902.5,-116 565.99,-93.39 477.3,-134.69 144.5,-80 141.63,-79.53 138.66,-78.9 135.73,-78.2"/>
<polygon fill="midnightblue" stroke="midnightblue" points="982.11,-126.08 992.4,-123.53 982.77,-119.11 982.11,-126.08"/>
</g>
<!-- Node9&#45;&gt;Node7 -->
<g id="edge24" class="edge">
<title>Node9&#45;&gt;Node7</title>
<path fill="none" stroke="midnightblue" d="M982.22,-120.84C969.14,-119.08 954.16,-117.25 940.5,-116 639.11,-88.49 561.26,-113.77 260.5,-80 257.66,-79.68 254.74,-79.31 251.8,-78.91"/>
<polygon fill="midnightblue" stroke="midnightblue" points="981.85,-124.33 992.24,-122.23 982.81,-117.39 981.85,-124.33"/>
</g>
<!-- Node9&#45;&gt;Node8 -->
<g id="edge25" class="edge">
<title>Node9&#45;&gt;Node8</title>
<path fill="none" stroke="midnightblue" d="M982.39,-116.66C981.08,-116.42 979.78,-116.2 978.5,-116 693.44,-71.97 614.94,-127.92 330.5,-80 327.63,-79.52 324.67,-78.88 321.73,-78.17"/>
<polygon fill="midnightblue" stroke="midnightblue" points="981.96,-120.15 992.47,-118.82 983.43,-113.3 981.96,-120.15"/>
</g>
<!-- Node10 -->
<g id="node10" class="node">
<title>Node10</title>
<g id="a_node10"><a xlink:href="align_8c.html" target="_top" xlink:title=" ">
<polygon fill="white" stroke="black" points="1557,-58.5 1557,-79.5 1608,-79.5 1608,-58.5 1557,-58.5"/>
<text text-anchor="middle" x="1582.5" y="-65.9" font-family="DejaVuSans" font-size="12.00">align.c</text>
</a>
</g>
</g>
<!-- Node9&#45;&gt;Node10 -->
<g id="edge9" class="edge">
<title>Node9&#45;&gt;Node10</title>
<path fill="none" stroke="midnightblue" d="M1052.61,-116.69C1053.92,-116.44 1055.22,-116.21 1056.5,-116 1272.44,-80.69 1332.06,-118.26 1547.5,-80 1550.49,-79.47 1553.58,-78.79 1556.64,-78.03"/>
<polygon fill="midnightblue" stroke="midnightblue" points="1051.56,-113.34 1042.54,-118.88 1053.05,-120.18 1051.56,-113.34"/>
</g>
<!-- Node11 -->
<g id="node11" class="node">
<title>Node11</title>
<g id="a_node11"><a xlink:href="box__display_8c.html" target="_top" xlink:title=" ">
<polygon fill="white" stroke="black" points="1626,-58.5 1626,-79.5 1715,-79.5 1715,-58.5 1626,-58.5"/>
<text text-anchor="middle" x="1670.5" y="-65.9" font-family="DejaVuSans" font-size="12.00">box_display.c</text>
</a>
</g>
</g>
<!-- Node9&#45;&gt;Node11 -->
<g id="edge10" class="edge">
<title>Node9&#45;&gt;Node11</title>
<path fill="none" stroke="midnightblue" d="M1052.61,-116.68C1053.92,-116.43 1055.22,-116.2 1056.5,-116 1302.81,-76.86 1369,-110.76 1616.5,-80 1619.53,-79.62 1622.64,-79.19 1625.77,-78.71"/>
<polygon fill="midnightblue" stroke="midnightblue" points="1051.57,-113.32 1042.53,-118.85 1053.04,-120.16 1051.57,-113.32"/>
</g>
<!-- Node12 -->
<g id="node12" class="node">
<title>Node12</title>
<g id="a_node12"><a xlink:href="dviout_8c.html" target="_top" xlink:title=" ">
<polygon fill="white" stroke="black" points="1732.5,-58.5 1732.5,-79.5 1790.5,-79.5 1790.5,-58.5 1732.5,-58.5"/>
<text text-anchor="middle" x="1761.5" y="-65.9" font-family="DejaVuSans" font-size="12.00">dviout.c</text>
</a>
</g>
</g>
<!-- Node9&#45;&gt;Node12 -->
<g id="edge11" class="edge">
<title>Node9&#45;&gt;Node12</title>
<path fill="none" stroke="midnightblue" d="M1052.6,-116.66C1053.92,-116.42 1055.22,-116.2 1056.5,-116 1349.93,-70.91 1430.21,-126.01 1723.5,-80 1726.33,-79.56 1729.26,-78.99 1732.17,-78.35"/>
<polygon fill="midnightblue" stroke="midnightblue" points="1051.57,-113.3 1042.52,-118.81 1053.03,-120.15 1051.57,-113.3"/>
</g>
<!-- Node13 -->
<g id="node13" class="node">
<title>Node13</title>
<g id="a_node13"><a xlink:href="eqtb_8c.html" target="_top" xlink:title=" ">
<polygon fill="white" stroke="black" points="340,-58.5 340,-79.5 389,-79.5 389,-58.5 340,-58.5"/>
<text text-anchor="middle" x="364.5" y="-65.9" font-family="DejaVuSans" font-size="12.00">eqtb.c</text>
</a>
</g>
</g>
<!-- Node9&#45;&gt;Node13 -->
<g id="edge12" class="edge">
<title>Node9&#45;&gt;Node13</title>
<path fill="none" stroke="midnightblue" d="M982.39,-116.67C981.08,-116.43 979.78,-116.2 978.5,-116 722.94,-75.69 652.13,-125.82 397.5,-80 394.79,-79.51 391.99,-78.88 389.22,-78.16"/>
<polygon fill="midnightblue" stroke="midnightblue" points="981.96,-120.16 992.47,-118.84 983.43,-113.31 981.96,-120.16"/>
</g>
<!-- Node14 -->
<g id="node14" class="node">
<title>Node14</title>
<g id="a_node14"><a xlink:href="eqtb__save_8c.html" target="_top" xlink:title=" ">
<polygon fill="white" stroke="black" points="407,-58.5 407,-79.5 488,-79.5 488,-58.5 407,-58.5"/>
<text text-anchor="middle" x="447.5" y="-65.9" font-family="DejaVuSans" font-size="12.00">eqtb_save.c</text>
</a>
</g>
</g>
<!-- Node9&#45;&gt;Node14 -->
<g id="edge13" class="edge">
<title>Node9&#45;&gt;Node14</title>
<path fill="none" stroke="midnightblue" d="M982.39,-116.69C981.08,-116.44 979.78,-116.21 978.5,-116 766.96,-81.24 709.89,-109.08 497.5,-80 494.43,-79.58 491.27,-79.09 488.09,-78.55"/>
<polygon fill="midnightblue" stroke="midnightblue" points="981.95,-120.18 992.46,-118.89 983.44,-113.34 981.95,-120.18"/>
</g>
<!-- Node15 -->
<g id="node15" class="node">
<title>Node15</title>
<g id="a_node15"><a xlink:href="error_8c.html" target="_top" xlink:title=" ">
<polygon fill="white" stroke="black" points="506.5,-58.5 506.5,-79.5 556.5,-79.5 556.5,-58.5 506.5,-58.5"/>
<text text-anchor="middle" x="531.5" y="-65.9" font-family="DejaVuSans" font-size="12.00">error.c</text>
</a>
</g>
</g>
<!-- Node9&#45;&gt;Node15 -->
<g id="edge14" class="edge">
<title>Node9&#45;&gt;Node15</title>
<path fill="none" stroke="midnightblue" d="M982.39,-116.71C981.08,-116.46 979.78,-116.22 978.5,-116 796.87,-85.01 746.56,-114.16 565.5,-80 562.6,-79.45 559.59,-78.76 556.61,-77.99"/>
<polygon fill="midnightblue" stroke="midnightblue" points="981.94,-120.2 992.46,-118.93 983.44,-113.36 981.94,-120.2"/>
</g>
<!-- Node16 -->
<g id="node16" class="node">
<title>Node16</title>
<g id="a_node16"><a xlink:href="fonts_8c.html" target="_top" xlink:title=" ">
<polygon fill="white" stroke="black" points="575,-58.5 575,-79.5 626,-79.5 626,-58.5 575,-58.5"/>
<text text-anchor="middle" x="600.5" y="-65.9" font-family="DejaVuSans" font-size="12.00">fonts.c</text>
</a>
</g>
</g>
<!-- Node9&#45;&gt;Node16 -->
<g id="edge16" class="edge">
<title>Node9&#45;&gt;Node16</title>
<path fill="none" stroke="midnightblue" d="M982.38,-116.74C981.07,-116.48 979.78,-116.23 978.5,-116 827.2,-88.84 785.31,-109.81 634.5,-80 631.84,-79.48 629.1,-78.84 626.37,-78.14"/>
<polygon fill="midnightblue" stroke="midnightblue" points="981.92,-120.23 992.44,-119 983.45,-113.39 981.92,-120.23"/>
</g>
<!-- Node17 -->
<g id="node17" class="node">
<title>Node17</title>
<g id="a_node17"><a xlink:href="hyphen_8c.html" target="_top" xlink:title=" ">
<polygon fill="white" stroke="black" points="644,-58.5 644,-79.5 709,-79.5 709,-58.5 644,-58.5"/>
<text text-anchor="middle" x="676.5" y="-65.9" font-family="DejaVuSans" font-size="12.00">hyphen.c</text>
</a>
</g>
</g>
<!-- Node9&#45;&gt;Node17 -->
<g id="edge18" class="edge">
<title>Node9&#45;&gt;Node17</title>
<path fill="none" stroke="midnightblue" d="M982.37,-116.8C981.07,-116.52 979.77,-116.25 978.5,-116 864.04,-93.48 833.15,-101.54 718.5,-80 715.55,-79.45 712.5,-78.82 709.45,-78.16"/>
<polygon fill="midnightblue" stroke="midnightblue" points="981.89,-120.28 992.42,-119.12 983.47,-113.46 981.89,-120.28"/>
</g>
<!-- Node18 -->
<g id="node18" class="node">
<title>Node18</title>
<g id="a_node18"><a xlink:href="hyphen__init_8c.html" target="_top" xlink:title=" ">
<polygon fill="white" stroke="black" points="727.5,-58.5 727.5,-79.5 815.5,-79.5 815.5,-58.5 727.5,-58.5"/>
<text text-anchor="middle" x="771.5" y="-65.9" font-family="DejaVuSans" font-size="12.00">hyphen_init.c</text>
</a>
</g>
</g>
<!-- Node9&#45;&gt;Node18 -->
<g id="edge19" class="edge">
<title>Node9&#45;&gt;Node18</title>
<path fill="none" stroke="midnightblue" d="M982.34,-116.93C981.05,-116.61 979.76,-116.3 978.5,-116 922.47,-102.59 857.58,-88.39 815.61,-79.37"/>
<polygon fill="midnightblue" stroke="midnightblue" points="981.8,-120.4 992.35,-119.43 983.5,-113.61 981.8,-120.4"/>
</g>
<!-- Node19 -->
<g id="node19" class="node">
<title>Node19</title>
<g id="a_node19"><a xlink:href="hyphen__pre_8c.html" target="_top" xlink:title=" ">
<polygon fill="white" stroke="black" points="833,-58.5 833,-79.5 922,-79.5 922,-58.5 833,-58.5"/>
<text text-anchor="middle" x="877.5" y="-65.9" font-family="DejaVuSans" font-size="12.00">hyphen_pre.c</text>
</a>
</g>
</g>
<!-- Node9&#45;&gt;Node19 -->
<g id="edge20" class="edge">
<title>Node9&#45;&gt;Node19</title>
<path fill="none" stroke="midnightblue" d="M984.14,-112.65C958.6,-102.44 924.02,-88.61 901.25,-79.5"/>
<polygon fill="midnightblue" stroke="midnightblue" points="982.85,-115.91 993.43,-116.37 985.45,-109.41 982.85,-115.91"/>
</g>
<!-- Node20 -->
<g id="node20" class="node">
<title>Node20</title>
<g id="a_node20"><a xlink:href="io__fname_8c.html" target="_top" xlink:title=" ">
<polygon fill="white" stroke="black" points="940,-58.5 940,-79.5 1015,-79.5 1015,-58.5 940,-58.5"/>
<text text-anchor="middle" x="977.5" y="-65.9" font-family="DejaVuSans" font-size="12.00">io_fname.c</text>
</a>
</g>
</g>
<!-- Node9&#45;&gt;Node20 -->
<g id="edge21" class="edge">
<title>Node9&#45;&gt;Node20</title>
<path fill="none" stroke="midnightblue" d="M1004.59,-107.92C997.87,-98.52 989.93,-87.4 984.39,-79.64"/>
<polygon fill="midnightblue" stroke="midnightblue" points="1001.87,-110.14 1010.53,-116.25 1007.57,-106.07 1001.87,-110.14"/>
</g>
<!-- Node21 -->
<g id="node21" class="node">
<title>Node21</title>
<g id="a_node21"><a xlink:href="lexer_8c.html" target="_top" xlink:title=" ">
<polygon fill="white" stroke="black" points="1033,-58.5 1033,-79.5 1084,-79.5 1084,-58.5 1033,-58.5"/>
<text text-anchor="middle" x="1058.5" y="-65.9" font-family="DejaVuSans" font-size="12.00">lexer.c</text>
</a>
</g>
</g>
<!-- Node9&#45;&gt;Node21 -->
<g id="edge22" class="edge">
<title>Node9&#45;&gt;Node21</title>
<path fill="none" stroke="midnightblue" d="M1030.74,-107.92C1037.62,-98.52 1045.76,-87.4 1051.44,-79.64"/>
<polygon fill="midnightblue" stroke="midnightblue" points="1027.73,-106.11 1024.64,-116.25 1033.37,-110.24 1027.73,-106.11"/>
</g>
<!-- Node22 -->
<g id="node22" class="node">
<title>Node22</title>
<g id="a_node22"><a xlink:href="linebreak_8c.html" target="_top" xlink:title=" ">
<polygon fill="white" stroke="black" points="1102.5,-58.5 1102.5,-79.5 1176.5,-79.5 1176.5,-58.5 1102.5,-58.5"/>
<text text-anchor="middle" x="1139.5" y="-65.9" font-family="DejaVuSans" font-size="12.00">linebreak.c</text>
</a>
</g>
</g>
<!-- Node9&#45;&gt;Node22 -->
<g id="edge23" class="edge">
<title>Node9&#45;&gt;Node22</title>
<path fill="none" stroke="midnightblue" d="M1047.76,-112.11C1069.88,-101.96 1099.31,-88.45 1118.8,-79.5"/>
<polygon fill="midnightblue" stroke="midnightblue" points="1046.1,-109.02 1038.47,-116.37 1049.02,-115.38 1046.1,-109.02"/>
</g>
<!-- Node23 -->
<g id="node23" class="node">
<title>Node23</title>
<g id="a_node23"><a xlink:href="mmode_8c.html" target="_top" xlink:title=" ">
<polygon fill="white" stroke="black" points="1195,-58.5 1195,-79.5 1260,-79.5 1260,-58.5 1195,-58.5"/>
<text text-anchor="middle" x="1227.5" y="-65.9" font-family="DejaVuSans" font-size="12.00">mmode.c</text>
</a>
</g>
</g>
<!-- Node9&#45;&gt;Node23 -->
<g id="edge26" class="edge">
<title>Node9&#45;&gt;Node23</title>
<path fill="none" stroke="midnightblue" d="M1052.6,-116.64C1092.24,-106.07 1156.24,-89 1194.84,-78.71"/>
<polygon fill="midnightblue" stroke="midnightblue" points="1051.59,-113.29 1042.83,-119.25 1053.4,-120.05 1051.59,-113.29"/>
</g>
<!-- Node24 -->
<g id="node24" class="node">
<title>Node24</title>
<g id="a_node24"><a xlink:href="pack_8c.html" target="_top" xlink:title=" ">
<polygon fill="white" stroke="black" points="1278,-58.5 1278,-79.5 1329,-79.5 1329,-58.5 1278,-58.5"/>
<text text-anchor="middle" x="1303.5" y="-65.9" font-family="DejaVuSans" font-size="12.00">pack.c</text>
</a>
</g>
</g>
<!-- Node9&#45;&gt;Node24 -->
<g id="edge27" class="edge">
<title>Node9&#45;&gt;Node24</title>
<path fill="none" stroke="midnightblue" d="M1052.64,-116.85C1053.94,-116.55 1055.23,-116.27 1056.5,-116 1149.98,-96.11 1175.3,-101.16 1268.5,-80 1271.58,-79.3 1274.79,-78.49 1277.97,-77.65"/>
<polygon fill="midnightblue" stroke="midnightblue" points="1051.52,-113.52 1042.6,-119.24 1053.14,-120.32 1051.52,-113.52"/>
</g>
<!-- Node25 -->
<g id="node25" class="node">
<title>Node25</title>
<g id="a_node25"><a xlink:href="print_8c.html" target="_top" xlink:title=" ">
<polygon fill="white" stroke="black" points="1347,-58.5 1347,-79.5 1396,-79.5 1396,-58.5 1347,-58.5"/>
<text text-anchor="middle" x="1371.5" y="-65.9" font-family="DejaVuSans" font-size="12.00">print.c</text>
</a>
</g>
</g>
<!-- Node9&#45;&gt;Node25 -->
<g id="edge28" class="edge">
<title>Node9&#45;&gt;Node25</title>
<path fill="none" stroke="midnightblue" d="M1052.63,-116.78C1053.93,-116.51 1055.23,-116.24 1056.5,-116 1180.16,-92.32 1214.27,-105.84 1337.5,-80 1340.51,-79.37 1343.64,-78.6 1346.73,-77.78"/>
<polygon fill="midnightblue" stroke="midnightblue" points="1051.54,-113.44 1042.57,-119.09 1053.1,-120.26 1051.54,-113.44"/>
</g>
<!-- Node9&#45;&gt;Node26 -->
<g id="edge29" class="edge">
<title>Node9&#45;&gt;Node26</title>
<path fill="none" stroke="midnightblue" d="M1052.6,-116.65C1053.92,-116.41 1055.22,-116.19 1056.5,-116 1383.41,-66.69 1472.18,-126.49 1799.5,-80 1802.47,-79.58 1805.53,-79.04 1808.6,-78.44"/>
<polygon fill="midnightblue" stroke="midnightblue" points="1051.58,-113.29 1042.52,-118.79 1053.03,-120.14 1051.58,-113.29"/>
</g>
<!-- Node9&#45;&gt;Node27 -->
<g id="edge30" class="edge">
<title>Node9&#45;&gt;Node27</title>
<path fill="none" stroke="midnightblue" d="M1052.78,-120.79C1065.86,-119.02 1080.83,-117.2 1094.5,-116 1443.75,-85.4 1536.5,-136.54 1882.5,-80 1885.49,-79.51 1888.6,-78.85 1891.66,-78.11"/>
<polygon fill="midnightblue" stroke="midnightblue" points="1052.18,-117.34 1042.76,-122.18 1053.14,-124.27 1052.18,-117.34"/>
</g>
<!-- Node28 -->
<g id="node28" class="node">
<title>Node28</title>
<g id="a_node28"><a xlink:href="str_8c.html" target="_top" xlink:title=" ">
<polygon fill="white" stroke="black" points="1414.5,-58.5 1414.5,-79.5 1452.5,-79.5 1452.5,-58.5 1414.5,-58.5"/>
<text text-anchor="middle" x="1433.5" y="-65.9" font-family="DejaVuSans" font-size="12.00">str.c</text>
</a>
</g>
</g>
<!-- Node9&#45;&gt;Node28 -->
<g id="edge31" class="edge">
<title>Node9&#45;&gt;Node28</title>
<path fill="none" stroke="midnightblue" d="M1052.62,-116.74C1053.93,-116.48 1055.22,-116.23 1056.5,-116 1209.56,-88.61 1252.67,-113.56 1404.5,-80 1407.72,-79.29 1411.09,-78.33 1414.33,-77.3"/>
<polygon fill="midnightblue" stroke="midnightblue" points="1051.55,-113.39 1042.56,-118.99 1053.08,-120.22 1051.55,-113.39"/>
</g>
<!-- Node9&#45;&gt;Node29 -->
<g id="edge32" class="edge">
<title>Node9&#45;&gt;Node29</title>
<path fill="none" stroke="midnightblue" d="M1052.8,-122.54C1075.54,-120.4 1105.74,-117.75 1132.5,-116 1496.07,-92.21 1589.56,-121.88 1951.5,-80 1954.76,-79.62 1958.11,-79.16 1961.48,-78.65"/>
<polygon fill="midnightblue" stroke="midnightblue" points="1052.23,-119.08 1042.6,-123.51 1052.89,-126.04 1052.23,-119.08"/>
</g>
<!-- Node31 -->
<g id="node31" class="node">
<title>Node31</title>
<g id="a_node31"><a xlink:href="texmath_8c.html" target="_top" xlink:title=" ">
<polygon fill="white" stroke="black" points="1470.5,-58.5 1470.5,-79.5 1538.5,-79.5 1538.5,-58.5 1470.5,-58.5"/>
<text text-anchor="middle" x="1504.5" y="-65.9" font-family="DejaVuSans" font-size="12.00">texmath.c</text>
</a>
</g>
</g>
<!-- Node9&#45;&gt;Node31 -->
<g id="edge34" class="edge">
<title>Node9&#45;&gt;Node31</title>
<path fill="none" stroke="midnightblue" d="M1052.61,-116.72C1053.92,-116.46 1055.22,-116.22 1056.5,-116 1234.61,-85.46 1283.06,-108.54 1461.5,-80 1464.38,-79.54 1467.35,-79 1470.32,-78.4"/>
<polygon fill="midnightblue" stroke="midnightblue" points="1051.56,-113.37 1042.55,-118.94 1053.07,-120.2 1051.56,-113.37"/>
</g>
<!-- Node30 -->
<g id="node30" class="node">
<title>Node30</title>
<g id="a_node30"><a xlink:href="tex_8c.html" target="_top" xlink:title=" ">
<polygon fill="white" stroke="black" points="1984,-0.5 1984,-21.5 2025,-21.5 2025,-0.5 1984,-0.5"/>
<text text-anchor="middle" x="2004.5" y="-7.9" font-family="DejaVuSans" font-size="12.00">tex.c</text>
</a>
</g>
</g>
<!-- Node29&#45;&gt;Node30 -->
<g id="edge33" class="edge">
<title>Node29&#45;&gt;Node30</title>
<path fill="none" stroke="midnightblue" d="M2004.5,-48.16C2004.5,-39.16 2004.5,-28.92 2004.5,-21.64"/>
<polygon fill="midnightblue" stroke="midnightblue" points="2001,-48.25 2004.5,-58.25 2008,-48.25 2001,-48.25"/>
</g>
</g>
</svg>
