<?xml version="1.0" encoding="UTF-8" standalone="no"?>
<!DOCTYPE svg PUBLIC "-//W3C//DTD SVG 1.1//EN"
 "http://www.w3.org/Graphics/SVG/1.1/DTD/svg11.dtd">
<!-- Generated by graphviz version 2.44.0 ()
 -->
<!-- Title: texmac.h Pages: 1 -->
<svg width="1598pt" height="204pt"
 viewBox="0.00 0.00 1597.50 204.00" xmlns="http://www.w3.org/2000/svg" xmlns:xlink="http://www.w3.org/1999/xlink">
<g id="graph0" class="graph" transform="scale(1 1) rotate(0) translate(4 200)">
<title>texmac.h</title>
<polygon fill="white" stroke="transparent" points="-4,4 -4,-200 1593.5,-200 1593.5,4 -4,4"/>
<!-- Node1 -->
<g id="node1" class="node">
<title>Node1</title>
<g id="a_node1"><a xlink:title=" ">
<polygon fill="#bfbfbf" stroke="black" points="443,-174.5 443,-195.5 508,-195.5 508,-174.5 443,-174.5"/>
<text text-anchor="middle" x="475.5" y="-181.9" font-family="DejaVuSans" font-size="12.00">texmac.h</text>
</a>
</g>
</g>
<!-- Node2 -->
<g id="node2" class="node">
<title>Node2</title>
<g id="a_node2"><a xlink:href="box__copy_8c.html" target="_top" xlink:title=" ">
<polygon fill="white" stroke="black" points="166,-116.5 166,-137.5 243,-137.5 243,-116.5 166,-116.5"/>
<text text-anchor="middle" x="204.5" y="-123.9" font-family="DejaVuSans" font-size="12.00">box_copy.c</text>
</a>
</g>
</g>
<!-- Node1&#45;&gt;Node2 -->
<g id="edge1" class="edge">
<title>Node1&#45;&gt;Node2</title>
<path fill="none" stroke="midnightblue" d="M432.83,-175.33C387.75,-166.15 314.59,-151.19 251.5,-138 248.81,-137.44 246.02,-136.85 243.22,-136.26"/>
<polygon fill="midnightblue" stroke="midnightblue" points="432.34,-178.8 442.84,-177.37 433.74,-171.94 432.34,-178.8"/>
</g>
<!-- Node3 -->
<g id="node3" class="node">
<title>Node3</title>
<g id="a_node3"><a xlink:href="box__destroy_8c.html" target="_top" xlink:title=" ">
<polygon fill="white" stroke="black" points="261,-116.5 261,-137.5 352,-137.5 352,-116.5 261,-116.5"/>
<text text-anchor="middle" x="306.5" y="-123.9" font-family="DejaVuSans" font-size="12.00">box_destroy.c</text>
</a>
</g>
</g>
<!-- Node1&#45;&gt;Node3 -->
<g id="edge2" class="edge">
<title>Node1&#45;&gt;Node3</title>
<path fill="none" stroke="midnightblue" d="M436.84,-171.19C405.88,-160.93 363.14,-146.77 335.17,-137.5"/>
<polygon fill="midnightblue" stroke="midnightblue" points="435.85,-174.55 446.45,-174.37 438.06,-167.91 435.85,-174.55"/>
</g>
<!-- Node4 -->
<g id="node4" class="node">
<title>Node4</title>
<g id="a_node4"><a xlink:href="expand_8c.html" target="_top" xlink:title=" ">
<polygon fill="white" stroke="black" points="0,-58.5 0,-79.5 65,-79.5 65,-58.5 0,-58.5"/>
<text text-anchor="middle" x="32.5" y="-65.9" font-family="DejaVuSans" font-size="12.00">expand.c</text>
</a>
</g>
</g>
<!-- Node1&#45;&gt;Node4 -->
<g id="edge3" class="edge">
<title>Node1&#45;&gt;Node4</title>
<path fill="none" stroke="midnightblue" d="M449.16,-169.55C433.21,-160.67 412.53,-148.94 394.5,-138 379.11,-128.66 377.41,-122.17 360.5,-116 240.14,-72.1 200.56,-102.87 74.5,-80 71.55,-79.46 68.5,-78.85 65.44,-78.2"/>
<polygon fill="midnightblue" stroke="midnightblue" points="447.51,-172.63 457.95,-174.42 450.9,-166.51 447.51,-172.63"/>
</g>
<!-- Node5 -->
<g id="node5" class="node">
<title>Node5</title>
<g id="a_node5"><a xlink:href="hash_8c.html" target="_top" xlink:title=" ">
<polygon fill="white" stroke="black" points="83.5,-58.5 83.5,-79.5 135.5,-79.5 135.5,-58.5 83.5,-58.5"/>
<text text-anchor="middle" x="109.5" y="-65.9" font-family="DejaVuSans" font-size="12.00">hash.c</text>
</a>
</g>
</g>
<!-- Node1&#45;&gt;Node5 -->
<g id="edge4" class="edge">
<title>Node1&#45;&gt;Node5</title>
<path fill="none" stroke="midnightblue" d="M460.24,-166.54C445.22,-150.59 420.76,-127.75 394.5,-116 292.03,-70.15 254.28,-103.47 144.5,-80 141.66,-79.39 138.71,-78.68 135.78,-77.92"/>
<polygon fill="midnightblue" stroke="midnightblue" points="457.87,-169.14 467.2,-174.16 463.04,-164.42 457.87,-169.14"/>
</g>
<!-- Node6 -->
<g id="node6" class="node">
<title>Node6</title>
<g id="a_node6"><a xlink:href="math__formula_8c.html" target="_top" xlink:title=" ">
<polygon fill="white" stroke="black" points="153.5,-58.5 153.5,-79.5 251.5,-79.5 251.5,-58.5 153.5,-58.5"/>
<text text-anchor="middle" x="202.5" y="-65.9" font-family="DejaVuSans" font-size="12.00">math_formula.c</text>
</a>
</g>
</g>
<!-- Node1&#45;&gt;Node6 -->
<g id="edge5" class="edge">
<title>Node1&#45;&gt;Node6</title>
<path fill="none" stroke="midnightblue" d="M468.3,-164.63C461.48,-149.03 449.71,-127.83 432.5,-116 425.04,-110.88 317.06,-90.69 251.74,-78.83"/>
<polygon fill="midnightblue" stroke="midnightblue" points="465.24,-166.39 472.24,-174.34 471.73,-163.76 465.24,-166.39"/>
</g>
<!-- Node7 -->
<g id="node7" class="node">
<title>Node7</title>
<g id="a_node7"><a xlink:href="mem_8c.html" target="_top" xlink:title=" ">
<polygon fill="white" stroke="black" points="269.5,-58.5 269.5,-79.5 321.5,-79.5 321.5,-58.5 269.5,-58.5"/>
<text text-anchor="middle" x="295.5" y="-65.9" font-family="DejaVuSans" font-size="12.00">mem.c</text>
</a>
</g>
</g>
<!-- Node1&#45;&gt;Node7 -->
<g id="edge6" class="edge">
<title>Node1&#45;&gt;Node7</title>
<path fill="none" stroke="midnightblue" d="M479.7,-164.17C481.65,-149.24 481.51,-129.17 470.5,-116 429.3,-66.71 392.5,-96.83 330.5,-80 327.69,-79.24 324.77,-78.43 321.85,-77.61"/>
<polygon fill="midnightblue" stroke="midnightblue" points="476.19,-163.94 477.95,-174.38 483.09,-165.12 476.19,-163.94"/>
</g>
<!-- Node8 -->
<g id="node8" class="node">
<title>Node8</title>
<g id="a_node8"><a xlink:href="print_8h.html" target="_top" xlink:title=" ">
<polygon fill="white" stroke="black" points="721.5,-116.5 721.5,-137.5 771.5,-137.5 771.5,-116.5 721.5,-116.5"/>
<text text-anchor="middle" x="746.5" y="-123.9" font-family="DejaVuSans" font-size="12.00">print.h</text>
</a>
</g>
</g>
<!-- Node1&#45;&gt;Node8 -->
<g id="edge7" class="edge">
<title>Node1&#45;&gt;Node8</title>
<path fill="none" stroke="midnightblue" d="M518,-175.22C575.12,-163.41 674.85,-142.8 721.33,-133.2"/>
<polygon fill="midnightblue" stroke="midnightblue" points="517.27,-171.79 508.19,-177.25 518.69,-178.65 517.27,-171.79"/>
</g>
<!-- Node20 -->
<g id="node20" class="node">
<title>Node20</title>
<g id="a_node20"><a xlink:href="printout_8c.html" target="_top" xlink:title=" ">
<polygon fill="white" stroke="black" points="1351,-58.5 1351,-79.5 1416,-79.5 1416,-58.5 1351,-58.5"/>
<text text-anchor="middle" x="1383.5" y="-65.9" font-family="DejaVuSans" font-size="12.00">printout.c</text>
</a>
</g>
</g>
<!-- Node1&#45;&gt;Node20 -->
<g id="edge29" class="edge">
<title>Node1&#45;&gt;Node20</title>
<path fill="none" stroke="midnightblue" d="M518.4,-180.6C645.03,-170.17 1027.95,-135.97 1341.5,-80 1344.45,-79.47 1347.51,-78.87 1350.56,-78.22"/>
<polygon fill="midnightblue" stroke="midnightblue" points="518.02,-177.12 508.34,-181.42 518.59,-184.09 518.02,-177.12"/>
</g>
<!-- Node21 -->
<g id="node21" class="node">
<title>Node21</title>
<g id="a_node21"><a xlink:href="scan_8c.html" target="_top" xlink:title=" ">
<polygon fill="white" stroke="black" points="1434,-58.5 1434,-79.5 1485,-79.5 1485,-58.5 1434,-58.5"/>
<text text-anchor="middle" x="1459.5" y="-65.9" font-family="DejaVuSans" font-size="12.00">scan.c</text>
</a>
</g>
</g>
<!-- Node1&#45;&gt;Node21 -->
<g id="edge30" class="edge">
<title>Node1&#45;&gt;Node21</title>
<path fill="none" stroke="midnightblue" d="M518.33,-181.63C613.75,-176.12 850.97,-161.13 1048.5,-138 1216.44,-118.33 1259.33,-116.19 1424.5,-80 1427.59,-79.32 1430.8,-78.53 1433.98,-77.69"/>
<polygon fill="midnightblue" stroke="midnightblue" points="517.99,-178.15 508.21,-182.21 518.39,-185.14 517.99,-178.15"/>
</g>
<!-- Node23 -->
<g id="node23" class="node">
<title>Node23</title>
<g id="a_node23"><a xlink:href="tex__header_8h.html" target="_top" xlink:title=" ">
<polygon fill="white" stroke="black" points="1503.5,-58.5 1503.5,-79.5 1589.5,-79.5 1589.5,-58.5 1503.5,-58.5"/>
<text text-anchor="middle" x="1546.5" y="-65.9" font-family="DejaVuSans" font-size="12.00">tex_header.h</text>
</a>
</g>
</g>
<!-- Node1&#45;&gt;Node23 -->
<g id="edge31" class="edge">
<title>Node1&#45;&gt;Node23</title>
<path fill="none" stroke="midnightblue" d="M518.22,-182.62C625.53,-178.82 914.93,-166.53 1154.5,-138 1282.07,-122.81 1431.2,-93.79 1503.22,-79.06"/>
<polygon fill="midnightblue" stroke="midnightblue" points="517.99,-179.12 508.12,-182.97 518.23,-186.12 517.99,-179.12"/>
</g>
<!-- Node8&#45;&gt;Node4 -->
<g id="edge13" class="edge">
<title>Node8&#45;&gt;Node4</title>
<path fill="none" stroke="midnightblue" d="M711.14,-125.63C610.81,-124.16 315.99,-116.76 74.5,-80 71.54,-79.55 68.47,-78.99 65.41,-78.38"/>
<polygon fill="midnightblue" stroke="midnightblue" points="711.27,-129.14 721.32,-125.77 711.37,-122.14 711.27,-129.14"/>
</g>
<!-- Node8&#45;&gt;Node5 -->
<g id="edge15" class="edge">
<title>Node8&#45;&gt;Node5</title>
<path fill="none" stroke="midnightblue" d="M711.31,-125.78C618.09,-124.68 357.35,-118.13 144.5,-80 141.64,-79.49 138.68,-78.84 135.74,-78.11"/>
<polygon fill="midnightblue" stroke="midnightblue" points="711.29,-129.28 721.33,-125.89 711.36,-122.28 711.29,-129.28"/>
</g>
<!-- Node8&#45;&gt;Node6 -->
<g id="edge18" class="edge">
<title>Node8&#45;&gt;Node6</title>
<path fill="none" stroke="midnightblue" d="M711.34,-123.6C631.16,-117.92 428.73,-102.43 260.5,-80 257.56,-79.61 254.55,-79.18 251.51,-78.72"/>
<polygon fill="midnightblue" stroke="midnightblue" points="711.16,-127.09 721.38,-124.3 711.65,-120.11 711.16,-127.09"/>
</g>
<!-- Node8&#45;&gt;Node7 -->
<g id="edge19" class="edge">
<title>Node8&#45;&gt;Node7</title>
<path fill="none" stroke="midnightblue" d="M711.1,-124.1C638.93,-119.78 469.86,-107.41 330.5,-80 327.65,-79.44 324.69,-78.76 321.76,-78.01"/>
<polygon fill="midnightblue" stroke="midnightblue" points="711.24,-127.61 721.43,-124.7 711.65,-120.62 711.24,-127.61"/>
</g>
<!-- Node9 -->
<g id="node9" class="node">
<title>Node9</title>
<g id="a_node9"><a xlink:href="box__display_8c.html" target="_top" xlink:title=" ">
<polygon fill="white" stroke="black" points="702,-58.5 702,-79.5 791,-79.5 791,-58.5 702,-58.5"/>
<text text-anchor="middle" x="746.5" y="-65.9" font-family="DejaVuSans" font-size="12.00">box_display.c</text>
</a>
</g>
</g>
<!-- Node8&#45;&gt;Node9 -->
<g id="edge8" class="edge">
<title>Node8&#45;&gt;Node9</title>
<path fill="none" stroke="midnightblue" d="M746.5,-106.16C746.5,-97.16 746.5,-86.92 746.5,-79.64"/>
<polygon fill="midnightblue" stroke="midnightblue" points="743,-106.25 746.5,-116.25 750,-106.25 743,-106.25"/>
</g>
<!-- Node10 -->
<g id="node10" class="node">
<title>Node10</title>
<g id="a_node10"><a xlink:href="dviout_8c.html" target="_top" xlink:title=" ">
<polygon fill="white" stroke="black" points="808.5,-58.5 808.5,-79.5 866.5,-79.5 866.5,-58.5 808.5,-58.5"/>
<text text-anchor="middle" x="837.5" y="-65.9" font-family="DejaVuSans" font-size="12.00">dviout.c</text>
</a>
</g>
</g>
<!-- Node8&#45;&gt;Node10 -->
<g id="edge9" class="edge">
<title>Node8&#45;&gt;Node10</title>
<path fill="none" stroke="midnightblue" d="M771.25,-110.77C787.38,-100.85 807.93,-88.2 821.83,-79.64"/>
<polygon fill="midnightblue" stroke="midnightblue" points="769.03,-108.02 762.35,-116.25 772.7,-113.99 769.03,-108.02"/>
</g>
<!-- Node11 -->
<g id="node11" class="node">
<title>Node11</title>
<g id="a_node11"><a xlink:href="eqtb_8c.html" target="_top" xlink:title=" ">
<polygon fill="white" stroke="black" points="885,-58.5 885,-79.5 934,-79.5 934,-58.5 885,-58.5"/>
<text text-anchor="middle" x="909.5" y="-65.9" font-family="DejaVuSans" font-size="12.00">eqtb.c</text>
</a>
</g>
</g>
<!-- Node8&#45;&gt;Node11 -->
<g id="edge10" class="edge">
<title>Node8&#45;&gt;Node11</title>
<path fill="none" stroke="midnightblue" d="M781.2,-114.08C812.35,-103.38 857.3,-87.93 884.89,-78.45"/>
<polygon fill="midnightblue" stroke="midnightblue" points="779.93,-110.81 771.61,-117.37 782.21,-117.43 779.93,-110.81"/>
</g>
<!-- Node12 -->
<g id="node12" class="node">
<title>Node12</title>
<g id="a_node12"><a xlink:href="eqtb__save_8c.html" target="_top" xlink:title=" ">
<polygon fill="white" stroke="black" points="952,-58.5 952,-79.5 1033,-79.5 1033,-58.5 952,-58.5"/>
<text text-anchor="middle" x="992.5" y="-65.9" font-family="DejaVuSans" font-size="12.00">eqtb_save.c</text>
</a>
</g>
</g>
<!-- Node8&#45;&gt;Node12 -->
<g id="edge11" class="edge">
<title>Node8&#45;&gt;Node12</title>
<path fill="none" stroke="midnightblue" d="M781.79,-117.97C826.77,-107.73 904.38,-90.06 951.81,-79.26"/>
<polygon fill="midnightblue" stroke="midnightblue" points="780.87,-114.59 771.9,-120.22 782.43,-121.41 780.87,-114.59"/>
</g>
<!-- Node13 -->
<g id="node13" class="node">
<title>Node13</title>
<g id="a_node13"><a xlink:href="error_8c.html" target="_top" xlink:title=" ">
<polygon fill="white" stroke="black" points="1051.5,-58.5 1051.5,-79.5 1101.5,-79.5 1101.5,-58.5 1051.5,-58.5"/>
<text text-anchor="middle" x="1076.5" y="-65.9" font-family="DejaVuSans" font-size="12.00">error.c</text>
</a>
</g>
</g>
<!-- Node8&#45;&gt;Node13 -->
<g id="edge12" class="edge">
<title>Node8&#45;&gt;Node13</title>
<path fill="none" stroke="midnightblue" d="M781.58,-121.96C837.12,-115.23 948.52,-100.45 1041.5,-80 1044.71,-79.29 1048.06,-78.46 1051.36,-77.59"/>
<polygon fill="midnightblue" stroke="midnightblue" points="781.07,-118.49 771.56,-123.15 781.9,-125.44 781.07,-118.49"/>
</g>
<!-- Node14 -->
<g id="node14" class="node">
<title>Node14</title>
<g id="a_node14"><a xlink:href="fonts_8c.html" target="_top" xlink:title=" ">
<polygon fill="white" stroke="black" points="1120,-58.5 1120,-79.5 1171,-79.5 1171,-58.5 1120,-58.5"/>
<text text-anchor="middle" x="1145.5" y="-65.9" font-family="DejaVuSans" font-size="12.00">fonts.c</text>
</a>
</g>
</g>
<!-- Node8&#45;&gt;Node14 -->
<g id="edge14" class="edge">
<title>Node8&#45;&gt;Node14</title>
<path fill="none" stroke="midnightblue" d="M782.06,-123.32C847.54,-117.98 991.39,-104.39 1110.5,-80 1113.6,-79.37 1116.82,-78.6 1120,-77.77"/>
<polygon fill="midnightblue" stroke="midnightblue" points="781.56,-119.85 771.87,-124.13 782.12,-126.83 781.56,-119.85"/>
</g>
<!-- Node15 -->
<g id="node15" class="node">
<title>Node15</title>
<g id="a_node15"><a xlink:href="io__fname_8c.html" target="_top" xlink:title=" ">
<polygon fill="white" stroke="black" points="1189,-58.5 1189,-79.5 1264,-79.5 1264,-58.5 1189,-58.5"/>
<text text-anchor="middle" x="1226.5" y="-65.9" font-family="DejaVuSans" font-size="12.00">io_fname.c</text>
</a>
</g>
</g>
<!-- Node8&#45;&gt;Node15 -->
<g id="edge16" class="edge">
<title>Node8&#45;&gt;Node15</title>
<path fill="none" stroke="midnightblue" d="M781.66,-123.51C855.62,-118 1032.56,-103.37 1179.5,-80 1182.55,-79.52 1185.7,-78.96 1188.85,-78.37"/>
<polygon fill="midnightblue" stroke="midnightblue" points="781.23,-120.03 771.51,-124.26 781.74,-127.01 781.23,-120.03"/>
</g>
<!-- Node16 -->
<g id="node16" class="node">
<title>Node16</title>
<g id="a_node16"><a xlink:href="lexer_8c.html" target="_top" xlink:title=" ">
<polygon fill="white" stroke="black" points="1282,-58.5 1282,-79.5 1333,-79.5 1333,-58.5 1282,-58.5"/>
<text text-anchor="middle" x="1307.5" y="-65.9" font-family="DejaVuSans" font-size="12.00">lexer.c</text>
</a>
</g>
</g>
<!-- Node8&#45;&gt;Node16 -->
<g id="edge17" class="edge">
<title>Node8&#45;&gt;Node16</title>
<path fill="none" stroke="midnightblue" d="M781.79,-125.24C866.9,-122.89 1089.89,-113.75 1272.5,-80 1275.48,-79.45 1278.58,-78.75 1281.64,-77.99"/>
<polygon fill="midnightblue" stroke="midnightblue" points="781.55,-121.74 771.64,-125.5 781.73,-128.74 781.55,-121.74"/>
</g>
<!-- Node17 -->
<g id="node17" class="node">
<title>Node17</title>
<g id="a_node17"><a xlink:href="mmode_8c.html" target="_top" xlink:title=" ">
<polygon fill="white" stroke="black" points="340,-58.5 340,-79.5 405,-79.5 405,-58.5 340,-58.5"/>
<text text-anchor="middle" x="372.5" y="-65.9" font-family="DejaVuSans" font-size="12.00">mmode.c</text>
</a>
</g>
</g>
<!-- Node8&#45;&gt;Node17 -->
<g id="edge20" class="edge">
<title>Node8&#45;&gt;Node17</title>
<path fill="none" stroke="midnightblue" d="M711.05,-122.3C649.98,-115.67 521.13,-100.5 413.5,-80 410.77,-79.48 407.94,-78.89 405.11,-78.27"/>
<polygon fill="midnightblue" stroke="midnightblue" points="710.98,-125.82 721.29,-123.41 711.72,-118.86 710.98,-125.82"/>
</g>
<!-- Node18 -->
<g id="node18" class="node">
<title>Node18</title>
<g id="a_node18"><a xlink:href="pack_8c.html" target="_top" xlink:title=" ">
<polygon fill="white" stroke="black" points="423,-58.5 423,-79.5 474,-79.5 474,-58.5 423,-58.5"/>
<text text-anchor="middle" x="448.5" y="-65.9" font-family="DejaVuSans" font-size="12.00">pack.c</text>
</a>
</g>
</g>
<!-- Node8&#45;&gt;Node18 -->
<g id="edge21" class="edge">
<title>Node8&#45;&gt;Node18</title>
<path fill="none" stroke="midnightblue" d="M711.04,-121.13C660.12,-113.84 563.5,-98.9 482.5,-80 479.74,-79.36 476.88,-78.62 474.04,-77.85"/>
<polygon fill="midnightblue" stroke="midnightblue" points="710.8,-124.63 721.19,-122.57 711.78,-117.7 710.8,-124.63"/>
</g>
<!-- Node19 -->
<g id="node19" class="node">
<title>Node19</title>
<g id="a_node19"><a xlink:href="print_8c.html" target="_top" xlink:title=" ">
<polygon fill="white" stroke="black" points="492,-58.5 492,-79.5 541,-79.5 541,-58.5 492,-58.5"/>
<text text-anchor="middle" x="516.5" y="-65.9" font-family="DejaVuSans" font-size="12.00">print.c</text>
</a>
</g>
</g>
<!-- Node8&#45;&gt;Node19 -->
<g id="edge22" class="edge">
<title>Node8&#45;&gt;Node19</title>
<path fill="none" stroke="midnightblue" d="M711.44,-118.39C672.11,-109.71 606.49,-94.79 550.5,-80 547.53,-79.21 544.42,-78.35 541.34,-77.48"/>
<polygon fill="midnightblue" stroke="midnightblue" points="710.81,-121.83 721.33,-120.56 712.31,-115 710.81,-121.83"/>
</g>
<!-- Node8&#45;&gt;Node20 -->
<g id="edge23" class="edge">
<title>Node8&#45;&gt;Node20</title>
<path fill="none" stroke="midnightblue" d="M781.8,-125.2C874.23,-122.68 1130.8,-113.02 1341.5,-80 1344.46,-79.54 1347.52,-78.97 1350.58,-78.35"/>
<polygon fill="midnightblue" stroke="midnightblue" points="781.51,-121.7 771.6,-125.46 781.69,-128.7 781.51,-121.7"/>
</g>
<!-- Node8&#45;&gt;Node21 -->
<g id="edge24" class="edge">
<title>Node8&#45;&gt;Node21</title>
<path fill="none" stroke="midnightblue" d="M781.92,-126.21C883.04,-126.25 1181.45,-122.48 1424.5,-80 1427.49,-79.48 1430.59,-78.8 1433.65,-78.04"/>
<polygon fill="midnightblue" stroke="midnightblue" points="781.67,-122.71 771.66,-126.19 781.66,-129.71 781.67,-122.71"/>
</g>
<!-- Node22 -->
<g id="node22" class="node">
<title>Node22</title>
<g id="a_node22"><a xlink:href="str_8c.html" target="_top" xlink:title=" ">
<polygon fill="white" stroke="black" points="559.5,-58.5 559.5,-79.5 597.5,-79.5 597.5,-58.5 559.5,-58.5"/>
<text text-anchor="middle" x="578.5" y="-65.9" font-family="DejaVuSans" font-size="12.00">str.c</text>
</a>
</g>
</g>
<!-- Node8&#45;&gt;Node22 -->
<g id="edge25" class="edge">
<title>Node8&#45;&gt;Node22</title>
<path fill="none" stroke="midnightblue" d="M711.55,-114.79C683.18,-105.62 642.17,-92.23 606.5,-80 603.67,-79.03 600.68,-77.98 597.76,-76.95"/>
<polygon fill="midnightblue" stroke="midnightblue" points="710.81,-118.23 721.4,-117.97 712.96,-111.57 710.81,-118.23"/>
</g>
<!-- Node8&#45;&gt;Node23 -->
<g id="edge26" class="edge">
<title>Node8&#45;&gt;Node23</title>
<path fill="none" stroke="midnightblue" d="M782.04,-125.39C889.62,-123.19 1221.13,-113.95 1493.5,-80 1496.75,-79.59 1500.11,-79.11 1503.47,-78.58"/>
<polygon fill="midnightblue" stroke="midnightblue" points="781.68,-121.89 771.76,-125.59 781.82,-128.89 781.68,-121.89"/>
</g>
<!-- Node25 -->
<g id="node25" class="node">
<title>Node25</title>
<g id="a_node25"><a xlink:href="texmath_8c.html" target="_top" xlink:title=" ">
<polygon fill="white" stroke="black" points="615.5,-58.5 615.5,-79.5 683.5,-79.5 683.5,-58.5 615.5,-58.5"/>
<text text-anchor="middle" x="649.5" y="-65.9" font-family="DejaVuSans" font-size="12.00">texmath.c</text>
</a>
</g>
</g>
<!-- Node8&#45;&gt;Node25 -->
<g id="edge28" class="edge">
<title>Node8&#45;&gt;Node25</title>
<path fill="none" stroke="midnightblue" d="M720.6,-111.05C703.34,-101.08 681.16,-88.28 666.2,-79.64"/>
<polygon fill="midnightblue" stroke="midnightblue" points="719.19,-114.28 729.6,-116.25 722.69,-108.21 719.19,-114.28"/>
</g>
<!-- Node24 -->
<g id="node24" class="node">
<title>Node24</title>
<g id="a_node24"><a xlink:href="tex_8c.html" target="_top" xlink:title=" ">
<polygon fill="white" stroke="black" points="1526,-0.5 1526,-21.5 1567,-21.5 1567,-0.5 1526,-0.5"/>
<text text-anchor="middle" x="1546.5" y="-7.9" font-family="DejaVuSans" font-size="12.00">tex.c</text>
</a>
</g>
</g>
<!-- Node23&#45;&gt;Node24 -->
<g id="edge27" class="edge">
<title>Node23&#45;&gt;Node24</title>
<path fill="none" stroke="midnightblue" d="M1546.5,-48.16C1546.5,-39.16 1546.5,-28.92 1546.5,-21.64"/>
<polygon fill="midnightblue" stroke="midnightblue" points="1543,-48.25 1546.5,-58.25 1550,-48.25 1543,-48.25"/>
</g>
</g>
</svg>
