<?xml version="1.0" encoding="UTF-8" standalone="no"?>
<!DOCTYPE svg PUBLIC "-//W3C//DTD SVG 1.1//EN"
 "http://www.w3.org/Graphics/SVG/1.1/DTD/svg11.dtd">
<!-- Generated by graphviz version 2.44.0 ()
 -->
<!-- Title: texmath.c Pages: 1 -->
<svg width="474pt" height="494pt"
 viewBox="0.00 0.00 473.69 494.00" xmlns="http://www.w3.org/2000/svg" xmlns:xlink="http://www.w3.org/1999/xlink">
<g id="graph0" class="graph" transform="scale(1 1) rotate(0) translate(4 490)">
<title>texmath.c</title>
<polygon fill="white" stroke="transparent" points="-4,4 -4,-490 469.69,-490 469.69,4 -4,4"/>
<!-- Node1 -->
<g id="node1" class="node">
<title>Node1</title>
<g id="a_node1"><a xlink:title=" ">
<polygon fill="#bfbfbf" stroke="black" points="204.43,-464.5 204.43,-485.5 272.43,-485.5 272.43,-464.5 204.43,-464.5"/>
<text text-anchor="middle" x="238.43" y="-471.9" font-family="DejaVuSans" font-size="12.00">texmath.c</text>
</a>
</g>
</g>
<!-- Node2 -->
<g id="node2" class="node">
<title>Node2</title>
<g id="a_node2"><a xlink:href="print_8h.html" target="_top" xlink:title=" ">
<polygon fill="white" stroke="black" points="213.43,-406.5 213.43,-427.5 263.43,-427.5 263.43,-406.5 213.43,-406.5"/>
<text text-anchor="middle" x="238.43" y="-413.9" font-family="DejaVuSans" font-size="12.00">print.h</text>
</a>
</g>
</g>
<!-- Node1&#45;&gt;Node2 -->
<g id="edge1" class="edge">
<title>Node1&#45;&gt;Node2</title>
<path fill="none" stroke="midnightblue" d="M238.43,-464.25C238.43,-456.94 238.43,-446.69 238.43,-437.7"/>
<polygon fill="midnightblue" stroke="midnightblue" points="241.93,-437.64 238.43,-427.64 234.93,-437.64 241.93,-437.64"/>
</g>
<!-- Node14 -->
<g id="node14" class="node">
<title>Node14</title>
<g id="a_node14"><a xlink:href="texmath_8h.html" target="_top" xlink:title=" ">
<polygon fill="white" stroke="black" points="12.43,-174.5 12.43,-195.5 80.43,-195.5 80.43,-174.5 12.43,-174.5"/>
<text text-anchor="middle" x="46.43" y="-181.9" font-family="DejaVuSans" font-size="12.00">texmath.h</text>
</a>
</g>
</g>
<!-- Node1&#45;&gt;Node14 -->
<g id="edge29" class="edge">
<title>Node1&#45;&gt;Node14</title>
<path fill="none" stroke="midnightblue" d="M225.63,-464.26C203.74,-447.1 158.65,-409.55 129.43,-370 89.79,-316.33 63.2,-240.72 52.18,-205.49"/>
<polygon fill="midnightblue" stroke="midnightblue" points="55.41,-204.09 49.15,-195.54 48.72,-206.13 55.41,-204.09"/>
</g>
<!-- Node16 -->
<g id="node16" class="node">
<title>Node16</title>
<g id="a_node16"><a xlink:href="texfunc_8h.html" target="_top" xlink:title=" ">
<polygon fill="white" stroke="black" points="380.93,-232.5 380.93,-253.5 445.93,-253.5 445.93,-232.5 380.93,-232.5"/>
<text text-anchor="middle" x="413.43" y="-239.9" font-family="DejaVuSans" font-size="12.00">texfunc.h</text>
</a>
</g>
</g>
<!-- Node1&#45;&gt;Node16 -->
<g id="edge26" class="edge">
<title>Node1&#45;&gt;Node16</title>
<path fill="none" stroke="midnightblue" d="M251.31,-464.24C273.33,-447.07 318.73,-409.49 348.43,-370 374.44,-335.42 395.38,-288.92 405.95,-263.18"/>
<polygon fill="midnightblue" stroke="midnightblue" points="409.23,-264.39 409.71,-253.8 402.74,-261.78 409.23,-264.39"/>
</g>
<!-- Node3 -->
<g id="node3" class="node">
<title>Node3</title>
<g id="a_node3"><a xlink:href="charset_8h.html" target="_top" xlink:title=" ">
<polygon fill="white" stroke="black" points="183.93,-116.5 183.93,-137.5 248.93,-137.5 248.93,-116.5 183.93,-116.5"/>
<text text-anchor="middle" x="216.43" y="-123.9" font-family="DejaVuSans" font-size="12.00">charset.h</text>
</a>
</g>
</g>
<!-- Node2&#45;&gt;Node3 -->
<g id="edge2" class="edge">
<title>Node2&#45;&gt;Node3</title>
<path fill="none" stroke="midnightblue" d="M247.22,-406.27C254.5,-397.5 264.3,-383.89 268.43,-370 271.22,-360.63 269.56,-357.71 268.43,-348 259.62,-272.43 234.34,-185.15 222.58,-147.23"/>
<polygon fill="midnightblue" stroke="midnightblue" points="225.86,-146 219.52,-137.51 219.18,-148.1 225.86,-146"/>
</g>
<!-- Node4 -->
<g id="node4" class="node">
<title>Node4</title>
<g id="a_node4"><a xlink:href="tex__types_8h.html" target="_top" xlink:title=" ">
<polygon fill="white" stroke="black" points="147.93,-58.5 147.93,-79.5 224.93,-79.5 224.93,-58.5 147.93,-58.5"/>
<text text-anchor="middle" x="186.43" y="-65.9" font-family="DejaVuSans" font-size="12.00">tex_types.h</text>
</a>
</g>
</g>
<!-- Node2&#45;&gt;Node4 -->
<g id="edge6" class="edge">
<title>Node2&#45;&gt;Node4</title>
<path fill="none" stroke="midnightblue" d="M213.01,-409.55C189.5,-402.66 154.51,-389.94 129.43,-370 54.69,-310.58 32.87,-286.83 3.43,-196 -17.52,-131.35 77.05,-96 138.06,-80.25"/>
<polygon fill="midnightblue" stroke="midnightblue" points="139.05,-83.61 147.91,-77.8 137.36,-76.82 139.05,-83.61"/>
</g>
<!-- Node7 -->
<g id="node7" class="node">
<title>Node7</title>
<g id="a_node7"><a xlink:href="tex_8h.html" target="_top" xlink:title=" ">
<polygon fill="white" stroke="black" points="217.43,-348.5 217.43,-369.5 259.43,-369.5 259.43,-348.5 217.43,-348.5"/>
<text text-anchor="middle" x="238.43" y="-355.9" font-family="DejaVuSans" font-size="12.00">tex.h</text>
</a>
</g>
</g>
<!-- Node2&#45;&gt;Node7 -->
<g id="edge7" class="edge">
<title>Node2&#45;&gt;Node7</title>
<path fill="none" stroke="midnightblue" d="M238.43,-406.25C238.43,-398.94 238.43,-388.69 238.43,-379.7"/>
<polygon fill="midnightblue" stroke="midnightblue" points="241.93,-379.64 238.43,-369.64 234.93,-379.64 241.93,-379.64"/>
</g>
<!-- Node13 -->
<g id="node13" class="node">
<title>Node13</title>
<g id="a_node13"><a xlink:href="str_8h.html" target="_top" xlink:title=" ">
<polygon fill="white" stroke="black" points="332.93,-174.5 332.93,-195.5 371.93,-195.5 371.93,-174.5 332.93,-174.5"/>
<text text-anchor="middle" x="352.43" y="-181.9" font-family="DejaVuSans" font-size="12.00">str.h</text>
</a>
</g>
</g>
<!-- Node2&#45;&gt;Node13 -->
<g id="edge25" class="edge">
<title>Node2&#45;&gt;Node13</title>
<path fill="none" stroke="midnightblue" d="M263.73,-410.06C284.6,-403.77 313.17,-391.66 328.43,-370 363.77,-319.87 359.82,-242.53 355.47,-206.18"/>
<polygon fill="midnightblue" stroke="midnightblue" points="358.89,-205.35 354.1,-195.91 351.96,-206.28 358.89,-205.35"/>
</g>
<!-- Node15 -->
<g id="node15" class="node">
<title>Node15</title>
<g id="a_node15"><a xlink:href="eqtb_8h.html" target="_top" xlink:title=" ">
<polygon fill="white" stroke="black" points="138.43,-348.5 138.43,-369.5 188.43,-369.5 188.43,-348.5 138.43,-348.5"/>
<text text-anchor="middle" x="163.43" y="-355.9" font-family="DejaVuSans" font-size="12.00">eqtb.h</text>
</a>
</g>
</g>
<!-- Node2&#45;&gt;Node15 -->
<g id="edge22" class="edge">
<title>Node2&#45;&gt;Node15</title>
<path fill="none" stroke="midnightblue" d="M225.37,-406.25C214.08,-397.81 197.55,-385.47 184.41,-375.66"/>
<polygon fill="midnightblue" stroke="midnightblue" points="186.45,-372.82 176.35,-369.64 182.27,-378.43 186.45,-372.82"/>
</g>
<!-- Node3&#45;&gt;Node4 -->
<g id="edge3" class="edge">
<title>Node3&#45;&gt;Node4</title>
<path fill="none" stroke="midnightblue" d="M211.21,-116.25C207.12,-108.62 201.32,-97.79 196.36,-88.53"/>
<polygon fill="midnightblue" stroke="midnightblue" points="199.41,-86.8 191.6,-79.64 193.24,-90.11 199.41,-86.8"/>
</g>
<!-- Node5 -->
<g id="node5" class="node">
<title>Node5</title>
<g id="a_node5"><a xlink:title=" ">
<polygon fill="white" stroke="#bfbfbf" points="153.93,-0.5 153.93,-21.5 218.93,-21.5 218.93,-0.5 153.93,-0.5"/>
<text text-anchor="middle" x="186.43" y="-7.9" font-family="DejaVuSans" font-size="12.00">stdbool.h</text>
</a>
</g>
</g>
<!-- Node4&#45;&gt;Node5 -->
<g id="edge4" class="edge">
<title>Node4&#45;&gt;Node5</title>
<path fill="none" stroke="midnightblue" d="M186.43,-58.25C186.43,-50.94 186.43,-40.69 186.43,-31.7"/>
<polygon fill="midnightblue" stroke="midnightblue" points="189.93,-31.64 186.43,-21.64 182.93,-31.64 189.93,-31.64"/>
</g>
<!-- Node6 -->
<g id="node6" class="node">
<title>Node6</title>
<g id="a_node6"><a xlink:title=" ">
<polygon fill="white" stroke="#bfbfbf" points="340.93,-0.5 340.93,-21.5 395.93,-21.5 395.93,-0.5 340.93,-0.5"/>
<text text-anchor="middle" x="368.43" y="-7.9" font-family="DejaVuSans" font-size="12.00">stdint.h</text>
</a>
</g>
</g>
<!-- Node4&#45;&gt;Node6 -->
<g id="edge5" class="edge">
<title>Node4&#45;&gt;Node6</title>
<path fill="none" stroke="midnightblue" d="M217.72,-58.37C249.13,-48.71 297.53,-33.82 330.96,-23.53"/>
<polygon fill="midnightblue" stroke="midnightblue" points="332.3,-26.78 340.83,-20.49 330.24,-20.09 332.3,-26.78"/>
</g>
<!-- Node7&#45;&gt;Node4 -->
<g id="edge11" class="edge">
<title>Node7&#45;&gt;Node4</title>
<path fill="none" stroke="midnightblue" d="M235.76,-348.31C232.1,-335.11 225.33,-310.75 219.43,-290 200.19,-222.35 185.31,-207.63 175.43,-138 173.1,-121.56 176.54,-102.94 180.17,-89.35"/>
<polygon fill="midnightblue" stroke="midnightblue" points="183.55,-90.25 183.02,-79.67 176.84,-88.27 183.55,-90.25"/>
</g>
<!-- Node8 -->
<g id="node8" class="node">
<title>Node8</title>
<g id="a_node8"><a xlink:href="global__const_8h.html" target="_top" xlink:title=" ">
<polygon fill="white" stroke="black" points="305.93,-116.5 305.93,-137.5 398.93,-137.5 398.93,-116.5 305.93,-116.5"/>
<text text-anchor="middle" x="352.43" y="-123.9" font-family="DejaVuSans" font-size="12.00">global_const.h</text>
</a>
</g>
</g>
<!-- Node7&#45;&gt;Node8 -->
<g id="edge8" class="edge">
<title>Node7&#45;&gt;Node8</title>
<path fill="none" stroke="midnightblue" d="M242.54,-348.24C254.33,-320.49 289.62,-238.96 324.43,-174 329.44,-164.66 335.5,-154.57 340.7,-146.23"/>
<polygon fill="midnightblue" stroke="midnightblue" points="343.72,-148.01 346.11,-137.69 337.8,-144.27 343.72,-148.01"/>
</g>
<!-- Node11 -->
<g id="node11" class="node">
<title>Node11</title>
<g id="a_node11"><a xlink:href="tex__constant_8h.html" target="_top" xlink:title=" ">
<polygon fill="white" stroke="black" points="116.43,-290.5 116.43,-311.5 210.43,-311.5 210.43,-290.5 116.43,-290.5"/>
<text text-anchor="middle" x="163.43" y="-297.9" font-family="DejaVuSans" font-size="12.00">tex_constant.h</text>
</a>
</g>
</g>
<!-- Node7&#45;&gt;Node11 -->
<g id="edge12" class="edge">
<title>Node7&#45;&gt;Node11</title>
<path fill="none" stroke="midnightblue" d="M225.37,-348.25C214.08,-339.81 197.55,-327.47 184.41,-317.66"/>
<polygon fill="midnightblue" stroke="midnightblue" points="186.45,-314.82 176.35,-311.64 182.27,-320.43 186.45,-314.82"/>
</g>
<!-- Node9 -->
<g id="node9" class="node">
<title>Node9</title>
<g id="a_node9"><a xlink:title=" ">
<polygon fill="white" stroke="#bfbfbf" points="322.93,-58.5 322.93,-79.5 381.93,-79.5 381.93,-58.5 322.93,-58.5"/>
<text text-anchor="middle" x="352.43" y="-65.9" font-family="DejaVuSans" font-size="12.00">assert.h</text>
</a>
</g>
</g>
<!-- Node8&#45;&gt;Node9 -->
<g id="edge9" class="edge">
<title>Node8&#45;&gt;Node9</title>
<path fill="none" stroke="midnightblue" d="M352.43,-116.25C352.43,-108.94 352.43,-98.69 352.43,-89.7"/>
<polygon fill="midnightblue" stroke="midnightblue" points="355.93,-89.64 352.43,-79.64 348.93,-89.64 355.93,-89.64"/>
</g>
<!-- Node10 -->
<g id="node10" class="node">
<title>Node10</title>
<g id="a_node10"><a xlink:title=" ">
<polygon fill="white" stroke="#bfbfbf" points="401.43,-58.5 401.43,-79.5 453.43,-79.5 453.43,-58.5 401.43,-58.5"/>
<text text-anchor="middle" x="427.43" y="-65.9" font-family="DejaVuSans" font-size="12.00">stdio.h</text>
</a>
</g>
</g>
<!-- Node8&#45;&gt;Node10 -->
<g id="edge10" class="edge">
<title>Node8&#45;&gt;Node10</title>
<path fill="none" stroke="midnightblue" d="M365.5,-116.25C376.79,-107.81 393.32,-95.47 406.46,-85.66"/>
<polygon fill="midnightblue" stroke="midnightblue" points="408.6,-88.43 414.52,-79.64 404.41,-82.82 408.6,-88.43"/>
</g>
<!-- Node12 -->
<g id="node12" class="node">
<title>Node12</title>
<g id="a_node12"><a xlink:href="box_8h.html" target="_top" xlink:title=" ">
<polygon fill="white" stroke="black" points="140.43,-232.5 140.43,-253.5 186.43,-253.5 186.43,-232.5 140.43,-232.5"/>
<text text-anchor="middle" x="163.43" y="-239.9" font-family="DejaVuSans" font-size="12.00">box.h</text>
</a>
</g>
</g>
<!-- Node11&#45;&gt;Node12 -->
<g id="edge13" class="edge">
<title>Node11&#45;&gt;Node12</title>
<path fill="none" stroke="midnightblue" d="M163.43,-290.25C163.43,-282.94 163.43,-272.69 163.43,-263.7"/>
<polygon fill="midnightblue" stroke="midnightblue" points="166.93,-263.64 163.43,-253.64 159.93,-263.64 166.93,-263.64"/>
</g>
<!-- Node12&#45;&gt;Node13 -->
<g id="edge14" class="edge">
<title>Node12&#45;&gt;Node13</title>
<path fill="none" stroke="midnightblue" d="M186.61,-235.13C220.94,-224.96 285.29,-205.9 322.93,-194.74"/>
<polygon fill="midnightblue" stroke="midnightblue" points="324.2,-198.01 332.8,-191.82 322.21,-191.3 324.2,-198.01"/>
</g>
<!-- Node12&#45;&gt;Node14 -->
<g id="edge20" class="edge">
<title>Node12&#45;&gt;Node14</title>
<path fill="none" stroke="midnightblue" d="M143.32,-232.37C124.62,-223.42 96.56,-209.99 75.44,-199.88"/>
<polygon fill="midnightblue" stroke="midnightblue" points="76.81,-196.66 66.28,-195.5 73.79,-202.98 76.81,-196.66"/>
</g>
<!-- Node13&#45;&gt;Node3 -->
<g id="edge18" class="edge">
<title>Node13&#45;&gt;Node3</title>
<path fill="none" stroke="midnightblue" d="M332.66,-175.86C310.84,-166.87 275.37,-152.27 249.35,-141.55"/>
<polygon fill="midnightblue" stroke="midnightblue" points="250.47,-138.23 239.89,-137.66 247.8,-144.7 250.47,-138.23"/>
</g>
<!-- Node13&#45;&gt;Node4 -->
<g id="edge19" class="edge">
<title>Node13&#45;&gt;Node4</title>
<path fill="none" stroke="midnightblue" d="M339.52,-174.3C321.56,-160.88 287.91,-136.05 258.43,-116 242.74,-105.32 224.74,-93.83 210.67,-85"/>
<polygon fill="midnightblue" stroke="midnightblue" points="212.39,-81.94 202.05,-79.62 208.68,-87.88 212.39,-81.94"/>
</g>
<!-- Node13&#45;&gt;Node6 -->
<g id="edge16" class="edge">
<title>Node13&#45;&gt;Node6</title>
<path fill="none" stroke="midnightblue" d="M372.06,-174.97C388.05,-166.91 410.5,-153.94 426.43,-138 447.88,-116.54 454.11,-109.18 462.43,-80 465.11,-70.6 467.61,-66.3 462.43,-58 450.03,-38.13 426.29,-26.61 405.77,-20.06"/>
<polygon fill="midnightblue" stroke="midnightblue" points="406.59,-16.66 396.01,-17.24 404.64,-23.38 406.59,-16.66"/>
</g>
<!-- Node13&#45;&gt;Node8 -->
<g id="edge17" class="edge">
<title>Node13&#45;&gt;Node8</title>
<path fill="none" stroke="midnightblue" d="M352.43,-174.25C352.43,-166.94 352.43,-156.69 352.43,-147.7"/>
<polygon fill="midnightblue" stroke="midnightblue" points="355.93,-147.64 352.43,-137.64 348.93,-147.64 355.93,-147.64"/>
</g>
<!-- Node13&#45;&gt;Node10 -->
<g id="edge15" class="edge">
<title>Node13&#45;&gt;Node10</title>
<path fill="none" stroke="midnightblue" d="M369.01,-174.34C381.6,-166.19 398.4,-153.39 408.43,-138 417.94,-123.42 422.75,-104.08 425.14,-89.76"/>
<polygon fill="midnightblue" stroke="midnightblue" points="428.65,-89.93 426.59,-79.53 421.72,-88.95 428.65,-89.93"/>
</g>
<!-- Node14&#45;&gt;Node4 -->
<g id="edge21" class="edge">
<title>Node14&#45;&gt;Node4</title>
<path fill="none" stroke="midnightblue" d="M51.4,-174.06C58.99,-159.68 74.71,-132.95 94.43,-116 110.55,-102.15 131.55,-91.24 149.42,-83.53"/>
<polygon fill="midnightblue" stroke="midnightblue" points="151.08,-86.63 158.98,-79.57 148.4,-80.16 151.08,-86.63"/>
</g>
<!-- Node15&#45;&gt;Node4 -->
<g id="edge23" class="edge">
<title>Node15&#45;&gt;Node4</title>
<path fill="none" stroke="midnightblue" d="M144.55,-348.37C131.46,-340.54 115.07,-328.15 107.43,-312 103.25,-303.16 106.49,-299.73 107.43,-290 115.02,-211.57 104.79,-185.76 141.43,-116 147.32,-104.79 156.81,-94.49 165.56,-86.5"/>
<polygon fill="midnightblue" stroke="midnightblue" points="167.99,-89.02 173.27,-79.84 163.41,-83.73 167.99,-89.02"/>
</g>
<!-- Node15&#45;&gt;Node11 -->
<g id="edge24" class="edge">
<title>Node15&#45;&gt;Node11</title>
<path fill="none" stroke="midnightblue" d="M163.43,-348.25C163.43,-340.94 163.43,-330.69 163.43,-321.7"/>
<polygon fill="midnightblue" stroke="midnightblue" points="166.93,-321.64 163.43,-311.64 159.93,-321.64 166.93,-321.64"/>
</g>
<!-- Node16&#45;&gt;Node4 -->
<g id="edge27" class="edge">
<title>Node16&#45;&gt;Node4</title>
<path fill="none" stroke="midnightblue" d="M416.57,-232.39C423.47,-209.27 437.17,-149.9 408.43,-116 386.53,-90.15 293.68,-78.27 235.22,-73.25"/>
<polygon fill="midnightblue" stroke="midnightblue" points="235.33,-69.75 225.08,-72.42 234.76,-76.73 235.33,-69.75"/>
</g>
<!-- Node16&#45;&gt;Node13 -->
<g id="edge28" class="edge">
<title>Node16&#45;&gt;Node13</title>
<path fill="none" stroke="midnightblue" d="M402.81,-232.25C393.89,-224.05 380.94,-212.17 370.41,-202.51"/>
<polygon fill="midnightblue" stroke="midnightblue" points="372.67,-199.83 362.94,-195.64 367.94,-204.98 372.67,-199.83"/>
</g>
</g>
</svg>
