<?xml version="1.0" encoding="UTF-8" standalone="no"?>
<!DOCTYPE svg PUBLIC "-//W3C//DTD SVG 1.1//EN"
 "http://www.w3.org/Graphics/SVG/1.1/DTD/svg11.dtd">
<!-- Generated by graphviz version 2.44.0 ()
 -->
<!-- Title: texmath.c Pages: 1 -->
<svg width="294pt" height="262pt"
 viewBox="0.00 0.00 294.00 262.00" xmlns="http://www.w3.org/2000/svg" xmlns:xlink="http://www.w3.org/1999/xlink">
<g id="graph0" class="graph" transform="scale(1 1) rotate(0) translate(4 258)">
<title>texmath.c</title>
<polygon fill="white" stroke="transparent" points="-4,4 -4,-258 290,-258 290,4 -4,4"/>
<!-- Node1 -->
<g id="node1" class="node">
<title>Node1</title>
<g id="a_node1"><a xlink:title=" ">
<polygon fill="#bfbfbf" stroke="black" points="60.5,-232.5 60.5,-253.5 128.5,-253.5 128.5,-232.5 60.5,-232.5"/>
<text text-anchor="middle" x="94.5" y="-239.9" font-family="DejaVuSans" font-size="12.00">texmath.c</text>
</a>
</g>
</g>
<!-- Node2 -->
<g id="node2" class="node">
<title>Node2</title>
<g id="a_node2"><a xlink:href="texmath_8h.html" target="_top" xlink:title=" ">
<polygon fill="white" stroke="black" points="25.5,-116.5 25.5,-137.5 93.5,-137.5 93.5,-116.5 25.5,-116.5"/>
<text text-anchor="middle" x="59.5" y="-123.9" font-family="DejaVuSans" font-size="12.00">texmath.h</text>
</a>
</g>
</g>
<!-- Node1&#45;&gt;Node2 -->
<g id="edge1" class="edge">
<title>Node1&#45;&gt;Node2</title>
<path fill="none" stroke="midnightblue" d="M91.52,-232.28C85.76,-213.52 73.01,-172 65.45,-147.38"/>
<polygon fill="midnightblue" stroke="midnightblue" points="68.76,-146.23 62.48,-137.69 62.07,-148.28 68.76,-146.23"/>
</g>
<!-- Node6 -->
<g id="node6" class="node">
<title>Node6</title>
<g id="a_node6"><a xlink:href="texfunc_8h.html" target="_top" xlink:title=" ">
<polygon fill="white" stroke="black" points="96,-174.5 96,-195.5 161,-195.5 161,-174.5 96,-174.5"/>
<text text-anchor="middle" x="128.5" y="-181.9" font-family="DejaVuSans" font-size="12.00">texfunc.h</text>
</a>
</g>
</g>
<!-- Node1&#45;&gt;Node6 -->
<g id="edge5" class="edge">
<title>Node1&#45;&gt;Node6</title>
<path fill="none" stroke="midnightblue" d="M100.42,-232.25C105.1,-224.54 111.77,-213.56 117.43,-204.23"/>
<polygon fill="midnightblue" stroke="midnightblue" points="120.45,-206.01 122.65,-195.64 114.46,-202.37 120.45,-206.01"/>
</g>
<!-- Node3 -->
<g id="node3" class="node">
<title>Node3</title>
<g id="a_node3"><a xlink:href="tex__types_8h.html" target="_top" xlink:title=" ">
<polygon fill="white" stroke="black" points="21,-58.5 21,-79.5 98,-79.5 98,-58.5 21,-58.5"/>
<text text-anchor="middle" x="59.5" y="-65.9" font-family="DejaVuSans" font-size="12.00">tex_types.h</text>
</a>
</g>
</g>
<!-- Node2&#45;&gt;Node3 -->
<g id="edge2" class="edge">
<title>Node2&#45;&gt;Node3</title>
<path fill="none" stroke="midnightblue" d="M59.5,-116.25C59.5,-108.94 59.5,-98.69 59.5,-89.7"/>
<polygon fill="midnightblue" stroke="midnightblue" points="63,-89.64 59.5,-79.64 56,-89.64 63,-89.64"/>
</g>
<!-- Node4 -->
<g id="node4" class="node">
<title>Node4</title>
<g id="a_node4"><a xlink:title=" ">
<polygon fill="white" stroke="#bfbfbf" points="0,-0.5 0,-21.5 65,-21.5 65,-0.5 0,-0.5"/>
<text text-anchor="middle" x="32.5" y="-7.9" font-family="DejaVuSans" font-size="12.00">stdbool.h</text>
</a>
</g>
</g>
<!-- Node3&#45;&gt;Node4 -->
<g id="edge3" class="edge">
<title>Node3&#45;&gt;Node4</title>
<path fill="none" stroke="midnightblue" d="M54.8,-58.25C51.16,-50.7 46.01,-40.02 41.57,-30.82"/>
<polygon fill="midnightblue" stroke="midnightblue" points="44.64,-29.13 37.15,-21.64 38.34,-32.17 44.64,-29.13"/>
</g>
<!-- Node5 -->
<g id="node5" class="node">
<title>Node5</title>
<g id="a_node5"><a xlink:title=" ">
<polygon fill="white" stroke="#bfbfbf" points="83,-0.5 83,-21.5 138,-21.5 138,-0.5 83,-0.5"/>
<text text-anchor="middle" x="110.5" y="-7.9" font-family="DejaVuSans" font-size="12.00">stdint.h</text>
</a>
</g>
</g>
<!-- Node3&#45;&gt;Node5 -->
<g id="edge4" class="edge">
<title>Node3&#45;&gt;Node5</title>
<path fill="none" stroke="midnightblue" d="M68.38,-58.25C75.7,-50.22 86.24,-38.64 94.95,-29.08"/>
<polygon fill="midnightblue" stroke="midnightblue" points="97.57,-31.39 101.72,-21.64 92.4,-26.68 97.57,-31.39"/>
</g>
<!-- Node7 -->
<g id="node7" class="node">
<title>Node7</title>
<g id="a_node7"><a xlink:href="str_8h.html" target="_top" xlink:title=" ">
<polygon fill="white" stroke="black" points="112,-116.5 112,-137.5 151,-137.5 151,-116.5 112,-116.5"/>
<text text-anchor="middle" x="131.5" y="-123.9" font-family="DejaVuSans" font-size="12.00">str.h</text>
</a>
</g>
</g>
<!-- Node6&#45;&gt;Node7 -->
<g id="edge6" class="edge">
<title>Node6&#45;&gt;Node7</title>
<path fill="none" stroke="midnightblue" d="M129.02,-174.25C129.41,-166.94 129.96,-156.69 130.44,-147.7"/>
<polygon fill="midnightblue" stroke="midnightblue" points="133.94,-147.82 130.98,-137.64 126.95,-147.44 133.94,-147.82"/>
</g>
<!-- Node7&#45;&gt;Node3 -->
<g id="edge12" class="edge">
<title>Node7&#45;&gt;Node3</title>
<path fill="none" stroke="midnightblue" d="M118.96,-116.25C108.22,-107.89 92.55,-95.71 80,-85.94"/>
<polygon fill="midnightblue" stroke="midnightblue" points="81.94,-83.02 71.9,-79.64 77.64,-88.54 81.94,-83.02"/>
</g>
<!-- Node7&#45;&gt;Node5 -->
<g id="edge8" class="edge">
<title>Node7&#45;&gt;Node5</title>
<path fill="none" stroke="midnightblue" d="M129.71,-116.28C126.27,-97.6 118.67,-56.37 114.13,-31.72"/>
<polygon fill="midnightblue" stroke="midnightblue" points="117.54,-30.9 112.29,-21.69 110.66,-32.16 117.54,-30.9"/>
</g>
<!-- Node8 -->
<g id="node8" class="node">
<title>Node8</title>
<g id="a_node8"><a xlink:title=" ">
<polygon fill="white" stroke="#bfbfbf" points="156.5,-0.5 156.5,-21.5 208.5,-21.5 208.5,-0.5 156.5,-0.5"/>
<text text-anchor="middle" x="182.5" y="-7.9" font-family="DejaVuSans" font-size="12.00">stdio.h</text>
</a>
</g>
</g>
<!-- Node7&#45;&gt;Node8 -->
<g id="edge7" class="edge">
<title>Node7&#45;&gt;Node8</title>
<path fill="none" stroke="midnightblue" d="M135.85,-116.28C144.28,-97.43 162.98,-55.62 173.98,-31.05"/>
<polygon fill="midnightblue" stroke="midnightblue" points="177.27,-32.25 178.16,-21.69 170.88,-29.39 177.27,-32.25"/>
</g>
<!-- Node9 -->
<g id="node9" class="node">
<title>Node9</title>
<g id="a_node9"><a xlink:href="global__const_8h.html" target="_top" xlink:title=" ">
<polygon fill="white" stroke="black" points="193,-58.5 193,-79.5 286,-79.5 286,-58.5 193,-58.5"/>
<text text-anchor="middle" x="239.5" y="-65.9" font-family="DejaVuSans" font-size="12.00">global_const.h</text>
</a>
</g>
</g>
<!-- Node7&#45;&gt;Node9 -->
<g id="edge9" class="edge">
<title>Node7&#45;&gt;Node9</title>
<path fill="none" stroke="midnightblue" d="M150.31,-116.25C167.35,-107.41 192.66,-94.29 211.97,-84.28"/>
<polygon fill="midnightblue" stroke="midnightblue" points="213.64,-87.35 220.9,-79.64 210.41,-81.14 213.64,-87.35"/>
</g>
<!-- Node9&#45;&gt;Node8 -->
<g id="edge11" class="edge">
<title>Node9&#45;&gt;Node8</title>
<path fill="none" stroke="midnightblue" d="M229.57,-58.25C221.32,-50.14 209.38,-38.41 199.59,-28.79"/>
<polygon fill="midnightblue" stroke="midnightblue" points="201.9,-26.15 192.31,-21.64 197,-31.15 201.9,-26.15"/>
</g>
<!-- Node10 -->
<g id="node10" class="node">
<title>Node10</title>
<g id="a_node10"><a xlink:title=" ">
<polygon fill="white" stroke="#bfbfbf" points="227,-0.5 227,-21.5 286,-21.5 286,-0.5 227,-0.5"/>
<text text-anchor="middle" x="256.5" y="-7.9" font-family="DejaVuSans" font-size="12.00">assert.h</text>
</a>
</g>
</g>
<!-- Node9&#45;&gt;Node10 -->
<g id="edge10" class="edge">
<title>Node9&#45;&gt;Node10</title>
<path fill="none" stroke="midnightblue" d="M242.46,-58.25C244.7,-50.86 247.86,-40.47 250.61,-31.41"/>
<polygon fill="midnightblue" stroke="midnightblue" points="254.02,-32.23 253.57,-21.64 247.32,-30.19 254.02,-32.23"/>
</g>
</g>
</svg>
