<?xml version="1.0" encoding="UTF-8" standalone="no"?>
<!DOCTYPE svg PUBLIC "-//W3C//DTD SVG 1.1//EN"
 "http://www.w3.org/Graphics/SVG/1.1/DTD/svg11.dtd">
<!-- Generated by graphviz version 2.42.3 ()
 -->
<!-- Title: texmath.c Pages: 1 -->
<svg width="328pt" height="262pt"
 viewBox="0.00 0.00 328.00 262.00" xmlns="http://www.w3.org/2000/svg" xmlns:xlink="http://www.w3.org/1999/xlink">
<g id="graph0" class="graph" transform="scale(1 1) rotate(0) translate(4 258)">
<title>texmath.c</title>
<polygon fill="white" stroke="transparent" points="-4,4 -4,-258 324,-258 324,4 -4,4"/>
<!-- Node1 -->
<g id="node1" class="node">
<title>Node1</title>
<g id="a_node1"><a xlink:title=" ">
<polygon fill="#bfbfbf" stroke="black" points="105.5,-232.5 105.5,-253.5 173.5,-253.5 173.5,-232.5 105.5,-232.5"/>
<text text-anchor="middle" x="139.5" y="-239.9" font-family="DejaVuSans" font-size="12.00">texmath.c</text>
</a>
</g>
</g>
<!-- Node2 -->
<g id="node2" class="node">
<title>Node2</title>
<g id="a_node2"><a xlink:href="texmath_8h.html" target="_top" xlink:title=" ">
<polygon fill="white" stroke="black" points="63.5,-174.5 63.5,-195.5 131.5,-195.5 131.5,-174.5 63.5,-174.5"/>
<text text-anchor="middle" x="97.5" y="-181.9" font-family="DejaVuSans" font-size="12.00">texmath.h</text>
</a>
</g>
</g>
<!-- Node1&#45;&gt;Node2 -->
<g id="edge1" class="edge">
<title>Node1&#45;&gt;Node2</title>
<path fill="none" stroke="midnightblue" d="M132.18,-232.25C126.28,-224.38 117.83,-213.1 110.74,-203.65"/>
<polygon fill="midnightblue" stroke="midnightblue" points="113.53,-201.54 104.73,-195.64 107.93,-205.74 113.53,-201.54"/>
</g>
<!-- Node6 -->
<g id="node6" class="node">
<title>Node6</title>
<g id="a_node6"><a xlink:href="texfunc_8h.html" target="_top" xlink:title=" ">
<polygon fill="white" stroke="black" points="150,-174.5 150,-195.5 215,-195.5 215,-174.5 150,-174.5"/>
<text text-anchor="middle" x="182.5" y="-181.9" font-family="DejaVuSans" font-size="12.00">texfunc.h</text>
</a>
</g>
</g>
<!-- Node1&#45;&gt;Node6 -->
<g id="edge5" class="edge">
<title>Node1&#45;&gt;Node6</title>
<path fill="none" stroke="midnightblue" d="M146.99,-232.25C153.03,-224.38 161.69,-213.1 168.94,-203.65"/>
<polygon fill="midnightblue" stroke="midnightblue" points="171.78,-205.71 175.1,-195.64 166.23,-201.44 171.78,-205.71"/>
</g>
<!-- Node3 -->
<g id="node3" class="node">
<title>Node3</title>
<g id="a_node3"><a xlink:href="tex__types_8h.html" target="_top" xlink:title=" ">
<polygon fill="white" stroke="black" points="59,-116.5 59,-137.5 136,-137.5 136,-116.5 59,-116.5"/>
<text text-anchor="middle" x="97.5" y="-123.9" font-family="DejaVuSans" font-size="12.00">tex_types.h</text>
</a>
</g>
</g>
<!-- Node2&#45;&gt;Node3 -->
<g id="edge2" class="edge">
<title>Node2&#45;&gt;Node3</title>
<path fill="none" stroke="midnightblue" d="M97.5,-174.25C97.5,-166.94 97.5,-156.69 97.5,-147.7"/>
<polygon fill="midnightblue" stroke="midnightblue" points="101,-147.64 97.5,-137.64 94,-147.64 101,-147.64"/>
</g>
<!-- Node4 -->
<g id="node4" class="node">
<title>Node4</title>
<g id="a_node4"><a xlink:title=" ">
<polygon fill="white" stroke="#bfbfbf" points="0,-58.5 0,-79.5 65,-79.5 65,-58.5 0,-58.5"/>
<text text-anchor="middle" x="32.5" y="-65.9" font-family="DejaVuSans" font-size="12.00">stdbool.h</text>
</a>
</g>
</g>
<!-- Node3&#45;&gt;Node4 -->
<g id="edge3" class="edge">
<title>Node3&#45;&gt;Node4</title>
<path fill="none" stroke="midnightblue" d="M86.18,-116.25C76.58,-107.97 62.61,-95.94 51.33,-86.22"/>
<polygon fill="midnightblue" stroke="midnightblue" points="53.55,-83.52 43.69,-79.64 48.98,-88.82 53.55,-83.52"/>
</g>
<!-- Node5 -->
<g id="node5" class="node">
<title>Node5</title>
<g id="a_node5"><a xlink:title=" ">
<polygon fill="white" stroke="#bfbfbf" points="83,-58.5 83,-79.5 138,-79.5 138,-58.5 83,-58.5"/>
<text text-anchor="middle" x="110.5" y="-65.9" font-family="DejaVuSans" font-size="12.00">stdint.h</text>
</a>
</g>
</g>
<!-- Node3&#45;&gt;Node5 -->
<g id="edge4" class="edge">
<title>Node3&#45;&gt;Node5</title>
<path fill="none" stroke="midnightblue" d="M99.76,-116.25C101.48,-108.86 103.89,-98.47 105.99,-89.41"/>
<polygon fill="midnightblue" stroke="midnightblue" points="109.41,-90.18 108.26,-79.64 102.59,-88.59 109.41,-90.18"/>
</g>
<!-- Node7 -->
<g id="node7" class="node">
<title>Node7</title>
<g id="a_node7"><a xlink:href="str_8h.html" target="_top" xlink:title=" ">
<polygon fill="white" stroke="black" points="163,-116.5 163,-137.5 202,-137.5 202,-116.5 163,-116.5"/>
<text text-anchor="middle" x="182.5" y="-123.9" font-family="DejaVuSans" font-size="12.00">str.h</text>
</a>
</g>
</g>
<!-- Node6&#45;&gt;Node7 -->
<g id="edge6" class="edge">
<title>Node6&#45;&gt;Node7</title>
<path fill="none" stroke="midnightblue" d="M182.5,-174.25C182.5,-166.94 182.5,-156.69 182.5,-147.7"/>
<polygon fill="midnightblue" stroke="midnightblue" points="186,-147.64 182.5,-137.64 179,-147.64 186,-147.64"/>
</g>
<!-- Node7&#45;&gt;Node5 -->
<g id="edge8" class="edge">
<title>Node7&#45;&gt;Node5</title>
<path fill="none" stroke="midnightblue" d="M169.96,-116.25C159.22,-107.89 143.55,-95.71 131,-85.94"/>
<polygon fill="midnightblue" stroke="midnightblue" points="132.94,-83.02 122.9,-79.64 128.64,-88.54 132.94,-83.02"/>
</g>
<!-- Node8 -->
<g id="node8" class="node">
<title>Node8</title>
<g id="a_node8"><a xlink:title=" ">
<polygon fill="white" stroke="#bfbfbf" points="156.5,-58.5 156.5,-79.5 208.5,-79.5 208.5,-58.5 156.5,-58.5"/>
<text text-anchor="middle" x="182.5" y="-65.9" font-family="DejaVuSans" font-size="12.00">stdio.h</text>
</a>
</g>
</g>
<!-- Node7&#45;&gt;Node8 -->
<g id="edge7" class="edge">
<title>Node7&#45;&gt;Node8</title>
<path fill="none" stroke="midnightblue" d="M182.5,-116.25C182.5,-108.94 182.5,-98.69 182.5,-89.7"/>
<polygon fill="midnightblue" stroke="midnightblue" points="186,-89.64 182.5,-79.64 179,-89.64 186,-89.64"/>
</g>
<!-- Node9 -->
<g id="node9" class="node">
<title>Node9</title>
<g id="a_node9"><a xlink:href="global__const_8h.html" target="_top" xlink:title=" ">
<polygon fill="white" stroke="black" points="227,-58.5 227,-79.5 320,-79.5 320,-58.5 227,-58.5"/>
<text text-anchor="middle" x="273.5" y="-65.9" font-family="DejaVuSans" font-size="12.00">global_const.h</text>
</a>
</g>
</g>
<!-- Node7&#45;&gt;Node9 -->
<g id="edge9" class="edge">
<title>Node7&#45;&gt;Node9</title>
<path fill="none" stroke="midnightblue" d="M198.35,-116.25C212.31,-107.65 232.87,-95 248.96,-85.1"/>
<polygon fill="midnightblue" stroke="midnightblue" points="251.15,-87.86 257.83,-79.64 247.48,-81.9 251.15,-87.86"/>
</g>
<!-- Node10 -->
<g id="node10" class="node">
<title>Node10</title>
<g id="a_node10"><a xlink:title=" ">
<polygon fill="white" stroke="#bfbfbf" points="244,-0.5 244,-21.5 303,-21.5 303,-0.5 244,-0.5"/>
<text text-anchor="middle" x="273.5" y="-7.9" font-family="DejaVuSans" font-size="12.00">assert.h</text>
</a>
</g>
</g>
<!-- Node9&#45;&gt;Node10 -->
<g id="edge10" class="edge">
<title>Node9&#45;&gt;Node10</title>
<path fill="none" stroke="midnightblue" d="M273.5,-58.25C273.5,-50.94 273.5,-40.69 273.5,-31.7"/>
<polygon fill="midnightblue" stroke="midnightblue" points="277,-31.64 273.5,-21.64 270,-31.64 277,-31.64"/>
</g>
</g>
</svg>
