<?xml version="1.0" encoding="UTF-8" standalone="no"?>
<!DOCTYPE svg PUBLIC "-//W3C//DTD SVG 1.1//EN"
 "http://www.w3.org/Graphics/SVG/1.1/DTD/svg11.dtd">
<!-- Generated by graphviz version 2.44.0 ()
 -->
<!-- Title: texmac.h Pages: 1 -->
<svg width="1482pt" height="204pt"
 viewBox="0.00 0.00 1481.50 204.00" xmlns="http://www.w3.org/2000/svg" xmlns:xlink="http://www.w3.org/1999/xlink">
<g id="graph0" class="graph" transform="scale(1 1) rotate(0) translate(4 200)">
<title>texmac.h</title>
<polygon fill="white" stroke="transparent" points="-4,4 -4,-200 1477.5,-200 1477.5,4 -4,4"/>
<!-- Node1 -->
<g id="node1" class="node">
<title>Node1</title>
<g id="a_node1"><a xlink:title=" ">
<polygon fill="#bfbfbf" stroke="black" points="608,-174.5 608,-195.5 673,-195.5 673,-174.5 608,-174.5"/>
<text text-anchor="middle" x="640.5" y="-181.9" font-family="DejaVuSans" font-size="12.00">texmac.h</text>
</a>
</g>
</g>
<!-- Node2 -->
<g id="node2" class="node">
<title>Node2</title>
<g id="a_node2"><a xlink:href="box__copy_8c.html" target="_top" xlink:title=" ">
<polygon fill="white" stroke="black" points="350,-116.5 350,-137.5 427,-137.5 427,-116.5 350,-116.5"/>
<text text-anchor="middle" x="388.5" y="-123.9" font-family="DejaVuSans" font-size="12.00">box_copy.c</text>
</a>
</g>
</g>
<!-- Node1&#45;&gt;Node2 -->
<g id="edge1" class="edge">
<title>Node1&#45;&gt;Node2</title>
<path fill="none" stroke="midnightblue" d="M597.8,-174.51C550.06,-163.9 473.42,-146.87 427.32,-136.63"/>
<polygon fill="midnightblue" stroke="midnightblue" points="597.29,-177.98 607.81,-176.74 598.81,-171.15 597.29,-177.98"/>
</g>
<!-- Node3 -->
<g id="node3" class="node">
<title>Node3</title>
<g id="a_node3"><a xlink:href="box__destroy_8c.html" target="_top" xlink:title=" ">
<polygon fill="white" stroke="black" points="445,-116.5 445,-137.5 536,-137.5 536,-116.5 445,-116.5"/>
<text text-anchor="middle" x="490.5" y="-123.9" font-family="DejaVuSans" font-size="12.00">box_destroy.c</text>
</a>
</g>
</g>
<!-- Node1&#45;&gt;Node3 -->
<g id="edge2" class="edge">
<title>Node1&#45;&gt;Node3</title>
<path fill="none" stroke="midnightblue" d="M605.11,-170.79C577.72,-160.56 540.45,-146.65 515.95,-137.5"/>
<polygon fill="midnightblue" stroke="midnightblue" points="604.12,-174.15 614.71,-174.37 606.57,-167.6 604.12,-174.15"/>
</g>
<!-- Node4 -->
<g id="node4" class="node">
<title>Node4</title>
<g id="a_node4"><a xlink:href="expand_8c.html" target="_top" xlink:title=" ">
<polygon fill="white" stroke="black" points="0,-58.5 0,-79.5 65,-79.5 65,-58.5 0,-58.5"/>
<text text-anchor="middle" x="32.5" y="-65.9" font-family="DejaVuSans" font-size="12.00">expand.c</text>
</a>
</g>
</g>
<!-- Node1&#45;&gt;Node4 -->
<g id="edge3" class="edge">
<title>Node1&#45;&gt;Node4</title>
<path fill="none" stroke="midnightblue" d="M619.57,-168.27C593.92,-149.14 552.83,-119.01 544.5,-116 347.44,-44.88 281.49,-112.36 74.5,-80 71.54,-79.54 68.48,-78.97 65.42,-78.35"/>
<polygon fill="midnightblue" stroke="midnightblue" points="617.5,-171.09 627.6,-174.28 621.69,-165.49 617.5,-171.09"/>
</g>
<!-- Node5 -->
<g id="node5" class="node">
<title>Node5</title>
<g id="a_node5"><a xlink:href="hash_8c.html" target="_top" xlink:title=" ">
<polygon fill="white" stroke="black" points="83.5,-58.5 83.5,-79.5 135.5,-79.5 135.5,-58.5 83.5,-58.5"/>
<text text-anchor="middle" x="109.5" y="-65.9" font-family="DejaVuSans" font-size="12.00">hash.c</text>
</a>
</g>
</g>
<!-- Node1&#45;&gt;Node5 -->
<g id="edge4" class="edge">
<title>Node1&#45;&gt;Node5</title>
<path fill="none" stroke="midnightblue" d="M629.64,-165.85C618.87,-149.69 600.79,-126.96 578.5,-116 491.66,-73.28 239.7,-97.38 144.5,-80 141.64,-79.48 138.68,-78.82 135.74,-78.09"/>
<polygon fill="midnightblue" stroke="midnightblue" points="626.8,-167.9 635.11,-174.47 632.71,-164.15 626.8,-167.9"/>
</g>
<!-- Node6 -->
<g id="node6" class="node">
<title>Node6</title>
<g id="a_node6"><a xlink:href="mem_8c.html" target="_top" xlink:title=" ">
<polygon fill="white" stroke="black" points="153.5,-58.5 153.5,-79.5 205.5,-79.5 205.5,-58.5 153.5,-58.5"/>
<text text-anchor="middle" x="179.5" y="-65.9" font-family="DejaVuSans" font-size="12.00">mem.c</text>
</a>
</g>
</g>
<!-- Node1&#45;&gt;Node6 -->
<g id="edge5" class="edge">
<title>Node1&#45;&gt;Node6</title>
<path fill="none" stroke="midnightblue" d="M639.11,-163.99C636.87,-148.34 631.14,-127.37 616.5,-116 545.67,-60.98 302.68,-96.39 214.5,-80 211.64,-79.47 208.68,-78.81 205.75,-78.07"/>
<polygon fill="midnightblue" stroke="midnightblue" points="635.66,-164.67 640.19,-174.24 642.62,-163.93 635.66,-164.67"/>
</g>
<!-- Node7 -->
<g id="node7" class="node">
<title>Node7</title>
<g id="a_node7"><a xlink:href="print_8h.html" target="_top" xlink:title=" ">
<polygon fill="white" stroke="black" points="668.5,-116.5 668.5,-137.5 718.5,-137.5 718.5,-116.5 668.5,-116.5"/>
<text text-anchor="middle" x="693.5" y="-123.9" font-family="DejaVuSans" font-size="12.00">print.h</text>
</a>
</g>
</g>
<!-- Node1&#45;&gt;Node7 -->
<g id="edge6" class="edge">
<title>Node1&#45;&gt;Node7</title>
<path fill="none" stroke="midnightblue" d="M656.79,-166.79C665.86,-157.21 676.81,-145.64 684.37,-137.64"/>
<polygon fill="midnightblue" stroke="midnightblue" points="654.06,-164.58 649.73,-174.25 659.15,-169.39 654.06,-164.58"/>
</g>
<!-- Node19 -->
<g id="node19" class="node">
<title>Node19</title>
<g id="a_node19"><a xlink:href="printout_8c.html" target="_top" xlink:title=" ">
<polygon fill="white" stroke="black" points="1235,-58.5 1235,-79.5 1300,-79.5 1300,-58.5 1235,-58.5"/>
<text text-anchor="middle" x="1267.5" y="-65.9" font-family="DejaVuSans" font-size="12.00">printout.c</text>
</a>
</g>
</g>
<!-- Node1&#45;&gt;Node19 -->
<g id="edge27" class="edge">
<title>Node1&#45;&gt;Node19</title>
<path fill="none" stroke="midnightblue" d="M683.29,-177.26C780.16,-161.82 1023.54,-121.96 1225.5,-80 1228.58,-79.36 1231.78,-78.66 1234.98,-77.94"/>
<polygon fill="midnightblue" stroke="midnightblue" points="682.62,-173.83 673.29,-178.85 683.72,-180.74 682.62,-173.83"/>
</g>
<!-- Node20 -->
<g id="node20" class="node">
<title>Node20</title>
<g id="a_node20"><a xlink:href="scan_8c.html" target="_top" xlink:title=" ">
<polygon fill="white" stroke="black" points="1318,-58.5 1318,-79.5 1369,-79.5 1369,-58.5 1318,-58.5"/>
<text text-anchor="middle" x="1343.5" y="-65.9" font-family="DejaVuSans" font-size="12.00">scan.c</text>
</a>
</g>
</g>
<!-- Node1&#45;&gt;Node20 -->
<g id="edge28" class="edge">
<title>Node1&#45;&gt;Node20</title>
<path fill="none" stroke="midnightblue" d="M683.2,-179.62C789.72,-168.19 1075.41,-134.55 1308.5,-80 1311.58,-79.28 1314.79,-78.46 1317.96,-77.61"/>
<polygon fill="midnightblue" stroke="midnightblue" points="682.73,-176.15 673.16,-180.68 683.47,-183.11 682.73,-176.15"/>
</g>
<!-- Node22 -->
<g id="node22" class="node">
<title>Node22</title>
<g id="a_node22"><a xlink:href="tex__header_8h.html" target="_top" xlink:title=" ">
<polygon fill="white" stroke="black" points="1387.5,-58.5 1387.5,-79.5 1473.5,-79.5 1473.5,-58.5 1387.5,-58.5"/>
<text text-anchor="middle" x="1430.5" y="-65.9" font-family="DejaVuSans" font-size="12.00">tex_header.h</text>
</a>
</g>
</g>
<!-- Node1&#45;&gt;Node22 -->
<g id="edge29" class="edge">
<title>Node1&#45;&gt;Node22</title>
<path fill="none" stroke="midnightblue" d="M683.21,-180.92C762.82,-174.87 939.16,-160.11 1086.5,-138 1196.37,-121.51 1324.42,-93.97 1388.88,-79.52"/>
<polygon fill="midnightblue" stroke="midnightblue" points="682.8,-177.44 673.09,-181.68 683.32,-184.42 682.8,-177.44"/>
</g>
<!-- Node7&#45;&gt;Node4 -->
<g id="edge12" class="edge">
<title>Node7&#45;&gt;Node4</title>
<path fill="none" stroke="midnightblue" d="M658.18,-122.79C635.44,-120.75 605.23,-118.12 578.5,-116 354.63,-98.27 296.46,-114.12 74.5,-80 71.54,-79.54 68.47,-78.99 65.42,-78.37"/>
<polygon fill="midnightblue" stroke="midnightblue" points="658.11,-126.29 668.38,-123.7 658.74,-119.32 658.11,-126.29"/>
</g>
<!-- Node7&#45;&gt;Node5 -->
<g id="edge14" class="edge">
<title>Node7&#45;&gt;Node5</title>
<path fill="none" stroke="midnightblue" d="M658.2,-121.02C645.12,-119.27 630.15,-117.41 616.5,-116 407.22,-94.44 351.59,-117.09 144.5,-80 141.64,-79.49 138.68,-78.84 135.74,-78.11"/>
<polygon fill="midnightblue" stroke="midnightblue" points="657.84,-124.5 668.22,-122.37 658.78,-117.56 657.84,-124.5"/>
</g>
<!-- Node7&#45;&gt;Node6 -->
<g id="edge17" class="edge">
<title>Node7&#45;&gt;Node6</title>
<path fill="none" stroke="midnightblue" d="M658.39,-116.7C657.08,-116.45 655.78,-116.21 654.5,-116 461,-83.52 407.54,-115.12 214.5,-80 211.64,-79.48 208.68,-78.82 205.74,-78.1"/>
<polygon fill="midnightblue" stroke="midnightblue" points="657.94,-120.19 668.46,-118.91 659.44,-113.35 657.94,-120.19"/>
</g>
<!-- Node8 -->
<g id="node8" class="node">
<title>Node8</title>
<g id="a_node8"><a xlink:href="box__display_8c.html" target="_top" xlink:title=" ">
<polygon fill="white" stroke="black" points="817,-58.5 817,-79.5 906,-79.5 906,-58.5 817,-58.5"/>
<text text-anchor="middle" x="861.5" y="-65.9" font-family="DejaVuSans" font-size="12.00">box_display.c</text>
</a>
</g>
</g>
<!-- Node7&#45;&gt;Node8 -->
<g id="edge7" class="edge">
<title>Node7&#45;&gt;Node8</title>
<path fill="none" stroke="midnightblue" d="M728.17,-114.44C759.09,-104.14 803.83,-89.22 832.79,-79.57"/>
<polygon fill="midnightblue" stroke="midnightblue" points="727.03,-111.13 718.65,-117.62 729.24,-117.77 727.03,-111.13"/>
</g>
<!-- Node9 -->
<g id="node9" class="node">
<title>Node9</title>
<g id="a_node9"><a xlink:href="dviout_8c.html" target="_top" xlink:title=" ">
<polygon fill="white" stroke="black" points="923.5,-58.5 923.5,-79.5 981.5,-79.5 981.5,-58.5 923.5,-58.5"/>
<text text-anchor="middle" x="952.5" y="-65.9" font-family="DejaVuSans" font-size="12.00">dviout.c</text>
</a>
</g>
</g>
<!-- Node7&#45;&gt;Node9 -->
<g id="edge8" class="edge">
<title>Node7&#45;&gt;Node9</title>
<path fill="none" stroke="midnightblue" d="M728.63,-119.27C772.33,-110.77 849.17,-95.39 914.5,-80 917.42,-79.31 920.46,-78.57 923.49,-77.8"/>
<polygon fill="midnightblue" stroke="midnightblue" points="727.93,-115.84 718.78,-121.18 729.27,-122.72 727.93,-115.84"/>
</g>
<!-- Node10 -->
<g id="node10" class="node">
<title>Node10</title>
<g id="a_node10"><a xlink:href="eqtb_8c.html" target="_top" xlink:title=" ">
<polygon fill="white" stroke="black" points="1000,-58.5 1000,-79.5 1049,-79.5 1049,-58.5 1000,-58.5"/>
<text text-anchor="middle" x="1024.5" y="-65.9" font-family="DejaVuSans" font-size="12.00">eqtb.c</text>
</a>
</g>
</g>
<!-- Node7&#45;&gt;Node10 -->
<g id="edge9" class="edge">
<title>Node7&#45;&gt;Node10</title>
<path fill="none" stroke="midnightblue" d="M728.84,-122.06C784.78,-115.49 896.98,-100.9 990.5,-80 993.5,-79.33 996.63,-78.54 999.72,-77.7"/>
<polygon fill="midnightblue" stroke="midnightblue" points="728.27,-118.61 718.74,-123.23 729.08,-125.56 728.27,-118.61"/>
</g>
<!-- Node11 -->
<g id="node11" class="node">
<title>Node11</title>
<g id="a_node11"><a xlink:href="eqtb__save_8c.html" target="_top" xlink:title=" ">
<polygon fill="white" stroke="black" points="1067,-58.5 1067,-79.5 1148,-79.5 1148,-58.5 1067,-58.5"/>
<text text-anchor="middle" x="1107.5" y="-65.9" font-family="DejaVuSans" font-size="12.00">eqtb_save.c</text>
</a>
</g>
</g>
<!-- Node7&#45;&gt;Node11 -->
<g id="edge10" class="edge">
<title>Node7&#45;&gt;Node11</title>
<path fill="none" stroke="midnightblue" d="M728.89,-122.38C794.09,-115.52 937.5,-99.56 1057.5,-80 1060.56,-79.5 1063.71,-78.95 1066.89,-78.38"/>
<polygon fill="midnightblue" stroke="midnightblue" points="728.33,-118.92 718.74,-123.44 729.05,-125.88 728.33,-118.92"/>
</g>
<!-- Node12 -->
<g id="node12" class="node">
<title>Node12</title>
<g id="a_node12"><a xlink:href="error_8c.html" target="_top" xlink:title=" ">
<polygon fill="white" stroke="black" points="1166.5,-58.5 1166.5,-79.5 1216.5,-79.5 1216.5,-58.5 1166.5,-58.5"/>
<text text-anchor="middle" x="1191.5" y="-65.9" font-family="DejaVuSans" font-size="12.00">error.c</text>
</a>
</g>
</g>
<!-- Node7&#45;&gt;Node12 -->
<g id="edge11" class="edge">
<title>Node7&#45;&gt;Node12</title>
<path fill="none" stroke="midnightblue" d="M729.06,-124.64C807.08,-121.18 998.88,-110.1 1156.5,-80 1159.73,-79.38 1163.09,-78.61 1166.39,-77.76"/>
<polygon fill="midnightblue" stroke="midnightblue" points="728.66,-121.15 718.82,-125.08 728.96,-128.15 728.66,-121.15"/>
</g>
<!-- Node13 -->
<g id="node13" class="node">
<title>Node13</title>
<g id="a_node13"><a xlink:href="fonts_8c.html" target="_top" xlink:title=" ">
<polygon fill="white" stroke="black" points="224,-58.5 224,-79.5 275,-79.5 275,-58.5 224,-58.5"/>
<text text-anchor="middle" x="249.5" y="-65.9" font-family="DejaVuSans" font-size="12.00">fonts.c</text>
</a>
</g>
</g>
<!-- Node7&#45;&gt;Node13 -->
<g id="edge13" class="edge">
<title>Node7&#45;&gt;Node13</title>
<path fill="none" stroke="midnightblue" d="M658.38,-116.73C657.08,-116.47 655.78,-116.22 654.5,-116 491.33,-87.34 446.14,-111.51 283.5,-80 280.84,-79.49 278.09,-78.85 275.36,-78.16"/>
<polygon fill="midnightblue" stroke="midnightblue" points="657.93,-120.21 668.45,-118.97 659.45,-113.38 657.93,-120.21"/>
</g>
<!-- Node14 -->
<g id="node14" class="node">
<title>Node14</title>
<g id="a_node14"><a xlink:href="io__fname_8c.html" target="_top" xlink:title=" ">
<polygon fill="white" stroke="black" points="293,-58.5 293,-79.5 368,-79.5 368,-58.5 293,-58.5"/>
<text text-anchor="middle" x="330.5" y="-65.9" font-family="DejaVuSans" font-size="12.00">io_fname.c</text>
</a>
</g>
</g>
<!-- Node7&#45;&gt;Node14 -->
<g id="edge15" class="edge">
<title>Node7&#45;&gt;Node14</title>
<path fill="none" stroke="midnightblue" d="M658.37,-116.78C657.07,-116.51 655.77,-116.24 654.5,-116 532.15,-92.48 499.26,-101.25 376.5,-80 373.76,-79.53 370.94,-79 368.1,-78.45"/>
<polygon fill="midnightblue" stroke="midnightblue" points="657.9,-120.26 668.43,-119.09 659.46,-113.44 657.9,-120.26"/>
</g>
<!-- Node15 -->
<g id="node15" class="node">
<title>Node15</title>
<g id="a_node15"><a xlink:href="lexer_8c.html" target="_top" xlink:title=" ">
<polygon fill="white" stroke="black" points="386,-58.5 386,-79.5 437,-79.5 437,-58.5 386,-58.5"/>
<text text-anchor="middle" x="411.5" y="-65.9" font-family="DejaVuSans" font-size="12.00">lexer.c</text>
</a>
</g>
</g>
<!-- Node7&#45;&gt;Node15 -->
<g id="edge16" class="edge">
<title>Node7&#45;&gt;Node15</title>
<path fill="none" stroke="midnightblue" d="M658.36,-116.85C657.06,-116.56 655.77,-116.27 654.5,-116 562.33,-96.28 537.31,-101.33 445.5,-80 442.74,-79.36 439.88,-78.63 437.04,-77.85"/>
<polygon fill="midnightblue" stroke="midnightblue" points="657.86,-120.33 668.39,-119.25 659.48,-113.52 657.86,-120.33"/>
</g>
<!-- Node16 -->
<g id="node16" class="node">
<title>Node16</title>
<g id="a_node16"><a xlink:href="mmode_8c.html" target="_top" xlink:title=" ">
<polygon fill="white" stroke="black" points="455,-58.5 455,-79.5 520,-79.5 520,-58.5 455,-58.5"/>
<text text-anchor="middle" x="487.5" y="-65.9" font-family="DejaVuSans" font-size="12.00">mmode.c</text>
</a>
</g>
</g>
<!-- Node7&#45;&gt;Node16 -->
<g id="edge18" class="edge">
<title>Node7&#45;&gt;Node16</title>
<path fill="none" stroke="midnightblue" d="M658.44,-116.47C619.71,-105.94 557.82,-89.12 520.1,-78.86"/>
<polygon fill="midnightblue" stroke="midnightblue" points="657.67,-119.89 668.24,-119.13 659.51,-113.13 657.67,-119.89"/>
</g>
<!-- Node17 -->
<g id="node17" class="node">
<title>Node17</title>
<g id="a_node17"><a xlink:href="pack_8c.html" target="_top" xlink:title=" ">
<polygon fill="white" stroke="black" points="538,-58.5 538,-79.5 589,-79.5 589,-58.5 538,-58.5"/>
<text text-anchor="middle" x="563.5" y="-65.9" font-family="DejaVuSans" font-size="12.00">pack.c</text>
</a>
</g>
</g>
<!-- Node7&#45;&gt;Node17 -->
<g id="edge19" class="edge">
<title>Node7&#45;&gt;Node17</title>
<path fill="none" stroke="midnightblue" d="M661.89,-112.38C638.25,-102.2 606.51,-88.53 585.56,-79.5"/>
<polygon fill="midnightblue" stroke="midnightblue" points="660.58,-115.63 671.15,-116.37 663.35,-109.2 660.58,-115.63"/>
</g>
<!-- Node18 -->
<g id="node18" class="node">
<title>Node18</title>
<g id="a_node18"><a xlink:href="print_8c.html" target="_top" xlink:title=" ">
<polygon fill="white" stroke="black" points="607,-58.5 607,-79.5 656,-79.5 656,-58.5 607,-58.5"/>
<text text-anchor="middle" x="631.5" y="-65.9" font-family="DejaVuSans" font-size="12.00">print.c</text>
</a>
</g>
</g>
<!-- Node7&#45;&gt;Node18 -->
<g id="edge20" class="edge">
<title>Node7&#45;&gt;Node18</title>
<path fill="none" stroke="midnightblue" d="M675.08,-109.36C664.35,-99.67 651.21,-87.8 642.18,-79.64"/>
<polygon fill="midnightblue" stroke="midnightblue" points="672.93,-112.14 682.7,-116.25 677.63,-106.95 672.93,-112.14"/>
</g>
<!-- Node7&#45;&gt;Node19 -->
<g id="edge21" class="edge">
<title>Node7&#45;&gt;Node19</title>
<path fill="none" stroke="midnightblue" d="M728.8,-124.75C814.44,-121.32 1039.87,-109.96 1225.5,-80 1228.46,-79.52 1231.52,-78.95 1234.58,-78.32"/>
<polygon fill="midnightblue" stroke="midnightblue" points="728.45,-121.26 718.59,-125.15 728.72,-128.25 728.45,-121.26"/>
</g>
<!-- Node7&#45;&gt;Node20 -->
<g id="edge22" class="edge">
<title>Node7&#45;&gt;Node20</title>
<path fill="none" stroke="midnightblue" d="M728.79,-125.86C823.44,-124.96 1090.54,-118.87 1308.5,-80 1311.49,-79.47 1314.58,-78.78 1317.64,-78.02"/>
<polygon fill="midnightblue" stroke="midnightblue" points="728.6,-122.36 718.63,-125.95 728.65,-129.36 728.6,-122.36"/>
</g>
<!-- Node21 -->
<g id="node21" class="node">
<title>Node21</title>
<g id="a_node21"><a xlink:href="str_8c.html" target="_top" xlink:title=" ">
<polygon fill="white" stroke="black" points="674.5,-58.5 674.5,-79.5 712.5,-79.5 712.5,-58.5 674.5,-58.5"/>
<text text-anchor="middle" x="693.5" y="-65.9" font-family="DejaVuSans" font-size="12.00">str.c</text>
</a>
</g>
</g>
<!-- Node7&#45;&gt;Node21 -->
<g id="edge23" class="edge">
<title>Node7&#45;&gt;Node21</title>
<path fill="none" stroke="midnightblue" d="M693.5,-106.16C693.5,-97.16 693.5,-86.92 693.5,-79.64"/>
<polygon fill="midnightblue" stroke="midnightblue" points="690,-106.25 693.5,-116.25 697,-106.25 690,-106.25"/>
</g>
<!-- Node7&#45;&gt;Node22 -->
<g id="edge24" class="edge">
<title>Node7&#45;&gt;Node22</title>
<path fill="none" stroke="midnightblue" d="M729.06,-125.1C830.62,-122.23 1130.6,-111.48 1377.5,-80 1380.75,-79.59 1384.1,-79.1 1387.47,-78.56"/>
<polygon fill="midnightblue" stroke="midnightblue" points="728.66,-121.61 718.76,-125.39 728.85,-128.61 728.66,-121.61"/>
</g>
<!-- Node24 -->
<g id="node24" class="node">
<title>Node24</title>
<g id="a_node24"><a xlink:href="texmath_8c.html" target="_top" xlink:title=" ">
<polygon fill="white" stroke="black" points="730.5,-58.5 730.5,-79.5 798.5,-79.5 798.5,-58.5 730.5,-58.5"/>
<text text-anchor="middle" x="764.5" y="-65.9" font-family="DejaVuSans" font-size="12.00">texmath.c</text>
</a>
</g>
</g>
<!-- Node7&#45;&gt;Node24 -->
<g id="edge26" class="edge">
<title>Node7&#45;&gt;Node24</title>
<path fill="none" stroke="midnightblue" d="M713.88,-109.93C726.29,-100.14 741.73,-87.96 752.27,-79.64"/>
<polygon fill="midnightblue" stroke="midnightblue" points="711.55,-107.3 705.87,-116.25 715.89,-112.8 711.55,-107.3"/>
</g>
<!-- Node23 -->
<g id="node23" class="node">
<title>Node23</title>
<g id="a_node23"><a xlink:href="tex_8c.html" target="_top" xlink:title=" ">
<polygon fill="white" stroke="black" points="1410,-0.5 1410,-21.5 1451,-21.5 1451,-0.5 1410,-0.5"/>
<text text-anchor="middle" x="1430.5" y="-7.9" font-family="DejaVuSans" font-size="12.00">tex.c</text>
</a>
</g>
</g>
<!-- Node22&#45;&gt;Node23 -->
<g id="edge25" class="edge">
<title>Node22&#45;&gt;Node23</title>
<path fill="none" stroke="midnightblue" d="M1430.5,-48.16C1430.5,-39.16 1430.5,-28.92 1430.5,-21.64"/>
<polygon fill="midnightblue" stroke="midnightblue" points="1427,-48.25 1430.5,-58.25 1434,-48.25 1427,-48.25"/>
</g>
</g>
</svg>
