<?xml version="1.0" encoding="UTF-8" standalone="no"?>
<!DOCTYPE svg PUBLIC "-//W3C//DTD SVG 1.1//EN"
 "http://www.w3.org/Graphics/SVG/1.1/DTD/svg11.dtd">
<!-- Generated by graphviz version 2.44.0 ()
 -->
<!-- Title: texmath.c Pages: 1 -->
<svg width="310pt" height="262pt"
 viewBox="0.00 0.00 310.00 262.00" xmlns="http://www.w3.org/2000/svg" xmlns:xlink="http://www.w3.org/1999/xlink">
<g id="graph0" class="graph" transform="scale(1 1) rotate(0) translate(4 258)">
<title>texmath.c</title>
<polygon fill="white" stroke="transparent" points="-4,4 -4,-258 306,-258 306,4 -4,4"/>
<!-- Node1 -->
<g id="node1" class="node">
<title>Node1</title>
<g id="a_node1"><a xlink:title=" ">
<polygon fill="#bfbfbf" stroke="black" points="44.5,-232.5 44.5,-253.5 112.5,-253.5 112.5,-232.5 44.5,-232.5"/>
<text text-anchor="middle" x="78.5" y="-239.9" font-family="DejaVuSans" font-size="12.00">texmath.c</text>
</a>
</g>
</g>
<!-- Node2 -->
<g id="node2" class="node">
<title>Node2</title>
<g id="a_node2"><a xlink:href="texmath_8h.html" target="_top" xlink:title=" ">
<polygon fill="white" stroke="black" points="9.5,-116.5 9.5,-137.5 77.5,-137.5 77.5,-116.5 9.5,-116.5"/>
<text text-anchor="middle" x="43.5" y="-123.9" font-family="DejaVuSans" font-size="12.00">texmath.h</text>
</a>
</g>
</g>
<!-- Node1&#45;&gt;Node2 -->
<g id="edge1" class="edge">
<title>Node1&#45;&gt;Node2</title>
<path fill="none" stroke="midnightblue" d="M75.52,-232.28C69.76,-213.52 57.01,-172 49.45,-147.38"/>
<polygon fill="midnightblue" stroke="midnightblue" points="52.76,-146.23 46.48,-137.69 46.07,-148.28 52.76,-146.23"/>
</g>
<!-- Node6 -->
<g id="node6" class="node">
<title>Node6</title>
<g id="a_node6"><a xlink:href="texfunc_8h.html" target="_top" xlink:title=" ">
<polygon fill="white" stroke="black" points="80,-174.5 80,-195.5 145,-195.5 145,-174.5 80,-174.5"/>
<text text-anchor="middle" x="112.5" y="-181.9" font-family="DejaVuSans" font-size="12.00">texfunc.h</text>
</a>
</g>
</g>
<!-- Node1&#45;&gt;Node6 -->
<g id="edge5" class="edge">
<title>Node1&#45;&gt;Node6</title>
<path fill="none" stroke="midnightblue" d="M84.42,-232.25C89.1,-224.54 95.77,-213.56 101.43,-204.23"/>
<polygon fill="midnightblue" stroke="midnightblue" points="104.45,-206.01 106.65,-195.64 98.46,-202.37 104.45,-206.01"/>
</g>
<!-- Node3 -->
<g id="node3" class="node">
<title>Node3</title>
<g id="a_node3"><a xlink:href="tex__types_8h.html" target="_top" xlink:title=" ">
<polygon fill="white" stroke="black" points="5,-58.5 5,-79.5 82,-79.5 82,-58.5 5,-58.5"/>
<text text-anchor="middle" x="43.5" y="-65.9" font-family="DejaVuSans" font-size="12.00">tex_types.h</text>
</a>
</g>
</g>
<!-- Node2&#45;&gt;Node3 -->
<g id="edge2" class="edge">
<title>Node2&#45;&gt;Node3</title>
<path fill="none" stroke="midnightblue" d="M43.5,-116.25C43.5,-108.94 43.5,-98.69 43.5,-89.7"/>
<polygon fill="midnightblue" stroke="midnightblue" points="47,-89.64 43.5,-79.64 40,-89.64 47,-89.64"/>
</g>
<!-- Node4 -->
<g id="node4" class="node">
<title>Node4</title>
<g id="a_node4"><a xlink:title=" ">
<polygon fill="white" stroke="#bfbfbf" points="0,-0.5 0,-21.5 65,-21.5 65,-0.5 0,-0.5"/>
<text text-anchor="middle" x="32.5" y="-7.9" font-family="DejaVuSans" font-size="12.00">stdbool.h</text>
</a>
</g>
</g>
<!-- Node3&#45;&gt;Node4 -->
<g id="edge3" class="edge">
<title>Node3&#45;&gt;Node4</title>
<path fill="none" stroke="midnightblue" d="M41.58,-58.25C40.15,-50.94 38.14,-40.69 36.37,-31.7"/>
<polygon fill="midnightblue" stroke="midnightblue" points="39.76,-30.78 34.39,-21.64 32.89,-32.13 39.76,-30.78"/>
</g>
<!-- Node5 -->
<g id="node5" class="node">
<title>Node5</title>
<g id="a_node5"><a xlink:title=" ">
<polygon fill="white" stroke="#bfbfbf" points="83,-0.5 83,-21.5 138,-21.5 138,-0.5 83,-0.5"/>
<text text-anchor="middle" x="110.5" y="-7.9" font-family="DejaVuSans" font-size="12.00">stdint.h</text>
</a>
</g>
</g>
<!-- Node3&#45;&gt;Node5 -->
<g id="edge4" class="edge">
<title>Node3&#45;&gt;Node5</title>
<path fill="none" stroke="midnightblue" d="M55.17,-58.25C65.07,-49.97 79.46,-37.94 91.09,-28.22"/>
<polygon fill="midnightblue" stroke="midnightblue" points="93.53,-30.74 98.96,-21.64 89.05,-25.37 93.53,-30.74"/>
</g>
<!-- Node7 -->
<g id="node7" class="node">
<title>Node7</title>
<g id="a_node7"><a xlink:href="str_8h.html" target="_top" xlink:title=" ">
<polygon fill="white" stroke="black" points="96,-116.5 96,-137.5 135,-137.5 135,-116.5 96,-116.5"/>
<text text-anchor="middle" x="115.5" y="-123.9" font-family="DejaVuSans" font-size="12.00">str.h</text>
</a>
</g>
</g>
<!-- Node6&#45;&gt;Node7 -->
<g id="edge6" class="edge">
<title>Node6&#45;&gt;Node7</title>
<path fill="none" stroke="midnightblue" d="M113.02,-174.25C113.41,-166.94 113.96,-156.69 114.44,-147.7"/>
<polygon fill="midnightblue" stroke="midnightblue" points="117.94,-147.82 114.98,-137.64 110.95,-147.44 117.94,-147.82"/>
</g>
<!-- Node7&#45;&gt;Node3 -->
<g id="edge11" class="edge">
<title>Node7&#45;&gt;Node3</title>
<path fill="none" stroke="midnightblue" d="M102.96,-116.25C92.22,-107.89 76.55,-95.71 64,-85.94"/>
<polygon fill="midnightblue" stroke="midnightblue" points="65.94,-83.02 55.9,-79.64 61.64,-88.54 65.94,-83.02"/>
</g>
<!-- Node7&#45;&gt;Node5 -->
<g id="edge8" class="edge">
<title>Node7&#45;&gt;Node5</title>
<path fill="none" stroke="midnightblue" d="M115.07,-116.28C114.25,-97.6 112.45,-56.37 111.36,-31.72"/>
<polygon fill="midnightblue" stroke="midnightblue" points="114.86,-31.53 110.93,-21.69 107.87,-31.84 114.86,-31.53"/>
</g>
<!-- Node8 -->
<g id="node8" class="node">
<title>Node8</title>
<g id="a_node8"><a xlink:title=" ">
<polygon fill="white" stroke="#bfbfbf" points="138.5,-58.5 138.5,-79.5 190.5,-79.5 190.5,-58.5 138.5,-58.5"/>
<text text-anchor="middle" x="164.5" y="-65.9" font-family="DejaVuSans" font-size="12.00">stdio.h</text>
</a>
</g>
</g>
<!-- Node7&#45;&gt;Node8 -->
<g id="edge7" class="edge">
<title>Node7&#45;&gt;Node8</title>
<path fill="none" stroke="midnightblue" d="M124.04,-116.25C130.99,-108.3 140.99,-96.87 149.31,-87.37"/>
<polygon fill="midnightblue" stroke="midnightblue" points="152.11,-89.47 156.06,-79.64 146.84,-84.86 152.11,-89.47"/>
</g>
<!-- Node9 -->
<g id="node9" class="node">
<title>Node9</title>
<g id="a_node9"><a xlink:href="global__const_8h.html" target="_top" xlink:title=" ">
<polygon fill="white" stroke="black" points="209,-58.5 209,-79.5 302,-79.5 302,-58.5 209,-58.5"/>
<text text-anchor="middle" x="255.5" y="-65.9" font-family="DejaVuSans" font-size="12.00">global_const.h</text>
</a>
</g>
</g>
<!-- Node7&#45;&gt;Node9 -->
<g id="edge9" class="edge">
<title>Node7&#45;&gt;Node9</title>
<path fill="none" stroke="midnightblue" d="M135.26,-118.1C157.82,-109.07 195.08,-94.17 222.15,-83.34"/>
<polygon fill="midnightblue" stroke="midnightblue" points="223.64,-86.51 231.62,-79.55 221.04,-80.02 223.64,-86.51"/>
</g>
<!-- Node10 -->
<g id="node10" class="node">
<title>Node10</title>
<g id="a_node10"><a xlink:title=" ">
<polygon fill="white" stroke="#bfbfbf" points="226,-0.5 226,-21.5 285,-21.5 285,-0.5 226,-0.5"/>
<text text-anchor="middle" x="255.5" y="-7.9" font-family="DejaVuSans" font-size="12.00">assert.h</text>
</a>
</g>
</g>
<!-- Node9&#45;&gt;Node10 -->
<g id="edge10" class="edge">
<title>Node9&#45;&gt;Node10</title>
<path fill="none" stroke="midnightblue" d="M255.5,-58.25C255.5,-50.94 255.5,-40.69 255.5,-31.7"/>
<polygon fill="midnightblue" stroke="midnightblue" points="259,-31.64 255.5,-21.64 252,-31.64 259,-31.64"/>
</g>
</g>
</svg>
