<?xml version="1.0" encoding="UTF-8" standalone="no"?>
<!DOCTYPE svg PUBLIC "-//W3C//DTD SVG 1.1//EN"
 "http://www.w3.org/Graphics/SVG/1.1/DTD/svg11.dtd">
<!-- Generated by graphviz version 2.44.0 ()
 -->
<!-- Title: texmac.h Pages: 1 -->
<svg width="366pt" height="204pt"
 viewBox="0.00 0.00 366.00 204.00" xmlns="http://www.w3.org/2000/svg" xmlns:xlink="http://www.w3.org/1999/xlink">
<g id="graph0" class="graph" transform="scale(1 1) rotate(0) translate(4 200)">
<title>texmac.h</title>
<polygon fill="white" stroke="transparent" points="-4,4 -4,-200 362,-200 362,4 -4,4"/>
<!-- Node1 -->
<g id="node1" class="node">
<title>Node1</title>
<g id="a_node1"><a xlink:title=" ">
<polygon fill="#bfbfbf" stroke="black" points="163,-174.5 163,-195.5 228,-195.5 228,-174.5 163,-174.5"/>
<text text-anchor="middle" x="195.5" y="-181.9" font-family="DejaVuSans" font-size="12.00">texmac.h</text>
</a>
</g>
</g>
<!-- Node2 -->
<g id="node2" class="node">
<title>Node2</title>
<g id="a_node2"><a xlink:href="expand_8c.html" target="_top" xlink:title=" ">
<polygon fill="white" stroke="black" points="0,-58.5 0,-79.5 65,-79.5 65,-58.5 0,-58.5"/>
<text text-anchor="middle" x="32.5" y="-65.9" font-family="DejaVuSans" font-size="12.00">expand.c</text>
</a>
</g>
</g>
<!-- Node1&#45;&gt;Node2 -->
<g id="edge1" class="edge">
<title>Node1&#45;&gt;Node2</title>
<path fill="none" stroke="midnightblue" d="M164.88,-170.09C147.71,-161.74 126.25,-150.35 108.5,-138 82.34,-119.79 55.4,-93.57 41.7,-79.61"/>
<polygon fill="midnightblue" stroke="midnightblue" points="163.39,-173.26 173.92,-174.4 166.4,-166.94 163.39,-173.26"/>
</g>
<!-- Node3 -->
<g id="node3" class="node">
<title>Node3</title>
<g id="a_node3"><a xlink:href="print_8h.html" target="_top" xlink:title=" ">
<polygon fill="white" stroke="black" points="117.5,-116.5 117.5,-137.5 167.5,-137.5 167.5,-116.5 117.5,-116.5"/>
<text text-anchor="middle" x="142.5" y="-123.9" font-family="DejaVuSans" font-size="12.00">print.h</text>
</a>
</g>
</g>
<!-- Node1&#45;&gt;Node3 -->
<g id="edge2" class="edge">
<title>Node1&#45;&gt;Node3</title>
<path fill="none" stroke="midnightblue" d="M179.21,-166.79C170.14,-157.21 159.19,-145.64 151.63,-137.64"/>
<polygon fill="midnightblue" stroke="midnightblue" points="176.85,-169.39 186.27,-174.25 181.94,-164.58 176.85,-169.39"/>
</g>
<!-- Node6 -->
<g id="node6" class="node">
<title>Node6</title>
<g id="a_node6"><a xlink:href="tex__header_8h.html" target="_top" xlink:title=" ">
<polygon fill="white" stroke="black" points="219.5,-58.5 219.5,-79.5 305.5,-79.5 305.5,-58.5 219.5,-58.5"/>
<text text-anchor="middle" x="262.5" y="-65.9" font-family="DejaVuSans" font-size="12.00">tex_header.h</text>
</a>
</g>
</g>
<!-- Node1&#45;&gt;Node6 -->
<g id="edge10" class="edge">
<title>Node1&#45;&gt;Node6</title>
<path fill="none" stroke="midnightblue" d="M198.21,-163.97C200.8,-149.8 205.65,-130.77 214.5,-116 223.28,-101.34 237.95,-88.26 248.77,-79.83"/>
<polygon fill="midnightblue" stroke="midnightblue" points="194.71,-163.7 196.59,-174.12 201.63,-164.8 194.71,-163.7"/>
</g>
<!-- Node8 -->
<g id="node8" class="node">
<title>Node8</title>
<g id="a_node8"><a xlink:href="printout_8c.html" target="_top" xlink:title=" ">
<polygon fill="white" stroke="black" points="224,-116.5 224,-137.5 289,-137.5 289,-116.5 224,-116.5"/>
<text text-anchor="middle" x="256.5" y="-123.9" font-family="DejaVuSans" font-size="12.00">printout.c</text>
</a>
</g>
</g>
<!-- Node1&#45;&gt;Node8 -->
<g id="edge8" class="edge">
<title>Node1&#45;&gt;Node8</title>
<path fill="none" stroke="midnightblue" d="M213.62,-167.36C224.18,-157.67 237.11,-145.8 246,-137.64"/>
<polygon fill="midnightblue" stroke="midnightblue" points="211.12,-164.9 206.13,-174.25 215.86,-170.06 211.12,-164.9"/>
</g>
<!-- Node9 -->
<g id="node9" class="node">
<title>Node9</title>
<g id="a_node9"><a xlink:href="scan_8c.html" target="_top" xlink:title=" ">
<polygon fill="white" stroke="black" points="307,-116.5 307,-137.5 358,-137.5 358,-116.5 307,-116.5"/>
<text text-anchor="middle" x="332.5" y="-123.9" font-family="DejaVuSans" font-size="12.00">scan.c</text>
</a>
</g>
</g>
<!-- Node1&#45;&gt;Node9 -->
<g id="edge9" class="edge">
<title>Node1&#45;&gt;Node9</title>
<path fill="none" stroke="midnightblue" d="M228.48,-170.52C253.43,-160.32 287.07,-146.57 309.26,-137.5"/>
<polygon fill="midnightblue" stroke="midnightblue" points="226.98,-167.35 219.05,-174.37 229.63,-173.83 226.98,-167.35"/>
</g>
<!-- Node3&#45;&gt;Node2 -->
<g id="edge3" class="edge">
<title>Node3&#45;&gt;Node2</title>
<path fill="none" stroke="midnightblue" d="M114.21,-111.6C94.49,-101.56 68.72,-88.44 51.44,-79.64"/>
<polygon fill="midnightblue" stroke="midnightblue" points="112.84,-114.83 123.34,-116.25 116.02,-108.59 112.84,-114.83"/>
</g>
<!-- Node4 -->
<g id="node4" class="node">
<title>Node4</title>
<g id="a_node4"><a xlink:href="lexer_8c.html" target="_top" xlink:title=" ">
<polygon fill="white" stroke="black" points="83,-58.5 83,-79.5 134,-79.5 134,-58.5 83,-58.5"/>
<text text-anchor="middle" x="108.5" y="-65.9" font-family="DejaVuSans" font-size="12.00">lexer.c</text>
</a>
</g>
</g>
<!-- Node3&#45;&gt;Node4 -->
<g id="edge4" class="edge">
<title>Node3&#45;&gt;Node4</title>
<path fill="none" stroke="midnightblue" d="M131.35,-107.63C125.68,-98.29 119.02,-87.32 114.35,-79.64"/>
<polygon fill="midnightblue" stroke="midnightblue" points="128.4,-109.51 136.58,-116.25 134.38,-105.88 128.4,-109.51"/>
</g>
<!-- Node5 -->
<g id="node5" class="node">
<title>Node5</title>
<g id="a_node5"><a xlink:href="print_8c.html" target="_top" xlink:title=" ">
<polygon fill="white" stroke="black" points="152,-58.5 152,-79.5 201,-79.5 201,-58.5 152,-58.5"/>
<text text-anchor="middle" x="176.5" y="-65.9" font-family="DejaVuSans" font-size="12.00">print.c</text>
</a>
</g>
</g>
<!-- Node3&#45;&gt;Node5 -->
<g id="edge5" class="edge">
<title>Node3&#45;&gt;Node5</title>
<path fill="none" stroke="midnightblue" d="M153.65,-107.63C159.32,-98.29 165.98,-87.32 170.65,-79.64"/>
<polygon fill="midnightblue" stroke="midnightblue" points="150.62,-105.88 148.42,-116.25 156.6,-109.51 150.62,-105.88"/>
</g>
<!-- Node3&#45;&gt;Node6 -->
<g id="edge6" class="edge">
<title>Node3&#45;&gt;Node6</title>
<path fill="none" stroke="midnightblue" d="M172.26,-112.11C194.02,-101.96 222.97,-88.45 242.14,-79.5"/>
<polygon fill="midnightblue" stroke="midnightblue" points="170.71,-108.97 163.13,-116.37 173.67,-115.32 170.71,-108.97"/>
</g>
<!-- Node7 -->
<g id="node7" class="node">
<title>Node7</title>
<g id="a_node7"><a xlink:href="tex_8c.html" target="_top" xlink:title=" ">
<polygon fill="white" stroke="black" points="242,-0.5 242,-21.5 283,-21.5 283,-0.5 242,-0.5"/>
<text text-anchor="middle" x="262.5" y="-7.9" font-family="DejaVuSans" font-size="12.00">tex.c</text>
</a>
</g>
</g>
<!-- Node6&#45;&gt;Node7 -->
<g id="edge7" class="edge">
<title>Node6&#45;&gt;Node7</title>
<path fill="none" stroke="midnightblue" d="M262.5,-48.16C262.5,-39.16 262.5,-28.92 262.5,-21.64"/>
<polygon fill="midnightblue" stroke="midnightblue" points="259,-48.25 262.5,-58.25 266,-48.25 259,-48.25"/>
</g>
</g>
</svg>
