<?xml version="1.0" encoding="UTF-8" standalone="no"?>
<!DOCTYPE svg PUBLIC "-//W3C//DTD SVG 1.1//EN"
 "http://www.w3.org/Graphics/SVG/1.1/DTD/svg11.dtd">
<!-- Generated by graphviz version 2.44.0 ()
 -->
<!-- Title: texmath.c Pages: 1 -->
<svg width="535pt" height="494pt"
 viewBox="0.00 0.00 534.50 494.00" xmlns="http://www.w3.org/2000/svg" xmlns:xlink="http://www.w3.org/1999/xlink">
<g id="graph0" class="graph" transform="scale(1 1) rotate(0) translate(4 490)">
<title>texmath.c</title>
<polygon fill="white" stroke="transparent" points="-4,4 -4,-490 530.5,-490 530.5,4 -4,4"/>
<!-- Node1 -->
<g id="node1" class="node">
<title>Node1</title>
<g id="a_node1"><a xlink:title=" ">
<polygon fill="#bfbfbf" stroke="black" points="384.5,-464.5 384.5,-485.5 452.5,-485.5 452.5,-464.5 384.5,-464.5"/>
<text text-anchor="middle" x="418.5" y="-471.9" font-family="DejaVuSans" font-size="12.00">texmath.c</text>
</a>
</g>
</g>
<!-- Node2 -->
<g id="node2" class="node">
<title>Node2</title>
<g id="a_node2"><a xlink:href="print_8h.html" target="_top" xlink:title=" ">
<polygon fill="white" stroke="black" points="318.5,-406.5 318.5,-427.5 368.5,-427.5 368.5,-406.5 318.5,-406.5"/>
<text text-anchor="middle" x="343.5" y="-413.9" font-family="DejaVuSans" font-size="12.00">print.h</text>
</a>
</g>
</g>
<!-- Node1&#45;&gt;Node2 -->
<g id="edge1" class="edge">
<title>Node1&#45;&gt;Node2</title>
<path fill="none" stroke="midnightblue" d="M405.44,-464.25C394.14,-455.81 377.62,-443.47 364.47,-433.66"/>
<polygon fill="midnightblue" stroke="midnightblue" points="366.52,-430.82 356.41,-427.64 362.33,-436.43 366.52,-430.82"/>
</g>
<!-- Node14 -->
<g id="node14" class="node">
<title>Node14</title>
<g id="a_node14"><a xlink:href="texmath_8h.html" target="_top" xlink:title=" ">
<polygon fill="white" stroke="black" points="392.5,-174.5 392.5,-195.5 460.5,-195.5 460.5,-174.5 392.5,-174.5"/>
<text text-anchor="middle" x="426.5" y="-181.9" font-family="DejaVuSans" font-size="12.00">texmath.h</text>
</a>
</g>
</g>
<!-- Node1&#45;&gt;Node14 -->
<g id="edge26" class="edge">
<title>Node1&#45;&gt;Node14</title>
<path fill="none" stroke="midnightblue" d="M438.31,-464.46C469.49,-447.91 526.5,-410.71 526.5,-360 526.5,-360 526.5,-360 526.5,-300 526.5,-255.38 482.68,-219.88 453.05,-200.98"/>
<polygon fill="midnightblue" stroke="midnightblue" points="454.73,-197.9 444.38,-195.65 451.07,-203.87 454.73,-197.9"/>
</g>
<!-- Node3 -->
<g id="node3" class="node">
<title>Node3</title>
<g id="a_node3"><a xlink:href="charset_8h.html" target="_top" xlink:title=" ">
<polygon fill="white" stroke="black" points="226,-116.5 226,-137.5 291,-137.5 291,-116.5 226,-116.5"/>
<text text-anchor="middle" x="258.5" y="-123.9" font-family="DejaVuSans" font-size="12.00">charset.h</text>
</a>
</g>
</g>
<!-- Node2&#45;&gt;Node3 -->
<g id="edge2" class="edge">
<title>Node2&#45;&gt;Node3</title>
<path fill="none" stroke="midnightblue" d="M320.1,-406.45C304.91,-398.93 286.2,-386.88 276.5,-370 234.68,-297.24 247.04,-191.19 254.59,-147.71"/>
<polygon fill="midnightblue" stroke="midnightblue" points="258.08,-148.09 256.45,-137.62 251.19,-146.82 258.08,-148.09"/>
</g>
<!-- Node4 -->
<g id="node4" class="node">
<title>Node4</title>
<g id="a_node4"><a xlink:href="tex__types_8h.html" target="_top" xlink:title=" ">
<polygon fill="white" stroke="black" points="281,-58.5 281,-79.5 358,-79.5 358,-58.5 281,-58.5"/>
<text text-anchor="middle" x="319.5" y="-65.9" font-family="DejaVuSans" font-size="12.00">tex_types.h</text>
</a>
</g>
</g>
<!-- Node2&#45;&gt;Node4 -->
<g id="edge6" class="edge">
<title>Node2&#45;&gt;Node4</title>
<path fill="none" stroke="midnightblue" d="M363.24,-406.4C377.8,-398.43 397.13,-385.86 409.5,-370 432.18,-340.92 438.69,-326.17 431.5,-290 426.06,-262.64 420.63,-256.61 407.5,-232 398.45,-215.03 393.2,-212.6 383.5,-196 361.84,-158.95 339.91,-113.71 328.18,-88.77"/>
<polygon fill="midnightblue" stroke="midnightblue" points="331.34,-87.27 323.94,-79.69 325,-90.23 331.34,-87.27"/>
</g>
<!-- Node7 -->
<g id="node7" class="node">
<title>Node7</title>
<g id="a_node7"><a xlink:href="tex_8h.html" target="_top" xlink:title=" ">
<polygon fill="white" stroke="black" points="285.5,-348.5 285.5,-369.5 327.5,-369.5 327.5,-348.5 285.5,-348.5"/>
<text text-anchor="middle" x="306.5" y="-355.9" font-family="DejaVuSans" font-size="12.00">tex.h</text>
</a>
</g>
</g>
<!-- Node2&#45;&gt;Node7 -->
<g id="edge7" class="edge">
<title>Node2&#45;&gt;Node7</title>
<path fill="none" stroke="midnightblue" d="M337.06,-406.25C331.96,-398.54 324.71,-387.56 318.55,-378.23"/>
<polygon fill="midnightblue" stroke="midnightblue" points="321.3,-376.06 312.87,-369.64 315.46,-379.92 321.3,-376.06"/>
</g>
<!-- Node13 -->
<g id="node13" class="node">
<title>Node13</title>
<g id="a_node13"><a xlink:href="str_8h.html" target="_top" xlink:title=" ">
<polygon fill="white" stroke="black" points="167,-174.5 167,-195.5 206,-195.5 206,-174.5 167,-174.5"/>
<text text-anchor="middle" x="186.5" y="-181.9" font-family="DejaVuSans" font-size="12.00">str.h</text>
</a>
</g>
</g>
<!-- Node2&#45;&gt;Node13 -->
<g id="edge25" class="edge">
<title>Node2&#45;&gt;Node13</title>
<path fill="none" stroke="midnightblue" d="M318.25,-414.89C287.66,-412.09 236.97,-402.48 210.5,-370 171.4,-322.02 177.47,-242.42 182.93,-205.69"/>
<polygon fill="midnightblue" stroke="midnightblue" points="186.4,-206.18 184.56,-195.75 179.49,-205.05 186.4,-206.18"/>
</g>
<!-- Node15 -->
<g id="node15" class="node">
<title>Node15</title>
<g id="a_node15"><a xlink:href="eqtb_8h.html" target="_top" xlink:title=" ">
<polygon fill="white" stroke="black" points="350.5,-348.5 350.5,-369.5 400.5,-369.5 400.5,-348.5 350.5,-348.5"/>
<text text-anchor="middle" x="375.5" y="-355.9" font-family="DejaVuSans" font-size="12.00">eqtb.h</text>
</a>
</g>
</g>
<!-- Node2&#45;&gt;Node15 -->
<g id="edge22" class="edge">
<title>Node2&#45;&gt;Node15</title>
<path fill="none" stroke="midnightblue" d="M349.07,-406.25C353.43,-398.62 359.62,-387.79 364.91,-378.53"/>
<polygon fill="midnightblue" stroke="midnightblue" points="368.07,-380.06 369.99,-369.64 361.99,-376.59 368.07,-380.06"/>
</g>
<!-- Node3&#45;&gt;Node4 -->
<g id="edge3" class="edge">
<title>Node3&#45;&gt;Node4</title>
<path fill="none" stroke="midnightblue" d="M269.13,-116.25C278.05,-108.05 290.99,-96.17 301.52,-86.51"/>
<polygon fill="midnightblue" stroke="midnightblue" points="304,-88.98 309,-79.64 299.26,-83.83 304,-88.98"/>
</g>
<!-- Node5 -->
<g id="node5" class="node">
<title>Node5</title>
<g id="a_node5"><a xlink:title=" ">
<polygon fill="white" stroke="#bfbfbf" points="287,-0.5 287,-21.5 352,-21.5 352,-0.5 287,-0.5"/>
<text text-anchor="middle" x="319.5" y="-7.9" font-family="DejaVuSans" font-size="12.00">stdbool.h</text>
</a>
</g>
</g>
<!-- Node4&#45;&gt;Node5 -->
<g id="edge4" class="edge">
<title>Node4&#45;&gt;Node5</title>
<path fill="none" stroke="midnightblue" d="M319.5,-58.25C319.5,-50.94 319.5,-40.69 319.5,-31.7"/>
<polygon fill="midnightblue" stroke="midnightblue" points="323,-31.64 319.5,-21.64 316,-31.64 323,-31.64"/>
</g>
<!-- Node6 -->
<g id="node6" class="node">
<title>Node6</title>
<g id="a_node6"><a xlink:title=" ">
<polygon fill="white" stroke="#bfbfbf" points="173,-0.5 173,-21.5 228,-21.5 228,-0.5 173,-0.5"/>
<text text-anchor="middle" x="200.5" y="-7.9" font-family="DejaVuSans" font-size="12.00">stdint.h</text>
</a>
</g>
</g>
<!-- Node4&#45;&gt;Node6 -->
<g id="edge5" class="edge">
<title>Node4&#45;&gt;Node6</title>
<path fill="none" stroke="midnightblue" d="M299.04,-58.37C280.03,-49.42 251.48,-35.99 230,-25.88"/>
<polygon fill="midnightblue" stroke="midnightblue" points="231.23,-22.59 220.69,-21.5 228.25,-28.93 231.23,-22.59"/>
</g>
<!-- Node7&#45;&gt;Node4 -->
<g id="edge11" class="edge">
<title>Node7&#45;&gt;Node4</title>
<path fill="none" stroke="midnightblue" d="M306.93,-348.42C308.78,-307.42 316.06,-146.29 318.61,-89.74"/>
<polygon fill="midnightblue" stroke="midnightblue" points="322.11,-89.77 319.07,-79.62 315.12,-89.45 322.11,-89.77"/>
</g>
<!-- Node8 -->
<g id="node8" class="node">
<title>Node8</title>
<g id="a_node8"><a xlink:href="global__const_8h.html" target="_top" xlink:title=" ">
<polygon fill="white" stroke="black" points="0,-116.5 0,-137.5 93,-137.5 93,-116.5 0,-116.5"/>
<text text-anchor="middle" x="46.5" y="-123.9" font-family="DejaVuSans" font-size="12.00">global_const.h</text>
</a>
</g>
</g>
<!-- Node7&#45;&gt;Node8 -->
<g id="edge8" class="edge">
<title>Node7&#45;&gt;Node8</title>
<path fill="none" stroke="midnightblue" d="M295.66,-348.41C255.6,-312.97 115.65,-189.17 64.99,-144.35"/>
<polygon fill="midnightblue" stroke="midnightblue" points="67.2,-141.64 57.39,-137.63 62.56,-146.88 67.2,-141.64"/>
</g>
<!-- Node11 -->
<g id="node11" class="node">
<title>Node11</title>
<g id="a_node11"><a xlink:href="tex__constant_8h.html" target="_top" xlink:title=" ">
<polygon fill="white" stroke="black" points="328.5,-290.5 328.5,-311.5 422.5,-311.5 422.5,-290.5 328.5,-290.5"/>
<text text-anchor="middle" x="375.5" y="-297.9" font-family="DejaVuSans" font-size="12.00">tex_constant.h</text>
</a>
</g>
</g>
<!-- Node7&#45;&gt;Node11 -->
<g id="edge12" class="edge">
<title>Node7&#45;&gt;Node11</title>
<path fill="none" stroke="midnightblue" d="M318.52,-348.25C328.71,-339.97 343.54,-327.94 355.51,-318.22"/>
<polygon fill="midnightblue" stroke="midnightblue" points="358.06,-320.66 363.62,-311.64 353.65,-315.23 358.06,-320.66"/>
</g>
<!-- Node9 -->
<g id="node9" class="node">
<title>Node9</title>
<g id="a_node9"><a xlink:title=" ">
<polygon fill="white" stroke="#bfbfbf" points="2,-58.5 2,-79.5 61,-79.5 61,-58.5 2,-58.5"/>
<text text-anchor="middle" x="31.5" y="-65.9" font-family="DejaVuSans" font-size="12.00">assert.h</text>
</a>
</g>
</g>
<!-- Node8&#45;&gt;Node9 -->
<g id="edge9" class="edge">
<title>Node8&#45;&gt;Node9</title>
<path fill="none" stroke="midnightblue" d="M43.89,-116.25C41.91,-108.86 39.13,-98.47 36.7,-89.41"/>
<polygon fill="midnightblue" stroke="midnightblue" points="40.05,-88.4 34.08,-79.64 33.29,-90.21 40.05,-88.4"/>
</g>
<!-- Node10 -->
<g id="node10" class="node">
<title>Node10</title>
<g id="a_node10"><a xlink:title=" ">
<polygon fill="white" stroke="#bfbfbf" points="79.5,-58.5 79.5,-79.5 131.5,-79.5 131.5,-58.5 79.5,-58.5"/>
<text text-anchor="middle" x="105.5" y="-65.9" font-family="DejaVuSans" font-size="12.00">stdio.h</text>
</a>
</g>
</g>
<!-- Node8&#45;&gt;Node10 -->
<g id="edge10" class="edge">
<title>Node8&#45;&gt;Node10</title>
<path fill="none" stroke="midnightblue" d="M56.78,-116.25C65.32,-108.14 77.68,-96.41 87.81,-86.79"/>
<polygon fill="midnightblue" stroke="midnightblue" points="90.5,-89.07 95.34,-79.64 85.68,-83.99 90.5,-89.07"/>
</g>
<!-- Node12 -->
<g id="node12" class="node">
<title>Node12</title>
<g id="a_node12"><a xlink:href="box_8h.html" target="_top" xlink:title=" ">
<polygon fill="white" stroke="black" points="352.5,-232.5 352.5,-253.5 398.5,-253.5 398.5,-232.5 352.5,-232.5"/>
<text text-anchor="middle" x="375.5" y="-239.9" font-family="DejaVuSans" font-size="12.00">box.h</text>
</a>
</g>
</g>
<!-- Node11&#45;&gt;Node12 -->
<g id="edge13" class="edge">
<title>Node11&#45;&gt;Node12</title>
<path fill="none" stroke="midnightblue" d="M375.5,-290.25C375.5,-282.94 375.5,-272.69 375.5,-263.7"/>
<polygon fill="midnightblue" stroke="midnightblue" points="379,-263.64 375.5,-253.64 372,-263.64 379,-263.64"/>
</g>
<!-- Node12&#45;&gt;Node13 -->
<g id="edge14" class="edge">
<title>Node12&#45;&gt;Node13</title>
<path fill="none" stroke="midnightblue" d="M352.32,-235.13C318,-224.96 253.65,-205.9 216,-194.74"/>
<polygon fill="midnightblue" stroke="midnightblue" points="216.72,-191.3 206.14,-191.82 214.73,-198.01 216.72,-191.3"/>
</g>
<!-- Node12&#45;&gt;Node14 -->
<g id="edge20" class="edge">
<title>Node12&#45;&gt;Node14</title>
<path fill="none" stroke="midnightblue" d="M384.38,-232.25C391.7,-224.22 402.24,-212.64 410.95,-203.08"/>
<polygon fill="midnightblue" stroke="midnightblue" points="413.57,-205.39 417.72,-195.64 408.4,-200.68 413.57,-205.39"/>
</g>
<!-- Node13&#45;&gt;Node3 -->
<g id="edge18" class="edge">
<title>Node13&#45;&gt;Node3</title>
<path fill="none" stroke="midnightblue" d="M199.04,-174.25C209.78,-165.89 225.45,-153.71 238,-143.94"/>
<polygon fill="midnightblue" stroke="midnightblue" points="240.36,-146.54 246.1,-137.64 236.06,-141.02 240.36,-146.54"/>
</g>
<!-- Node13&#45;&gt;Node4 -->
<g id="edge19" class="edge">
<title>Node13&#45;&gt;Node4</title>
<path fill="none" stroke="midnightblue" d="M188.42,-174.41C191.76,-159.99 199.93,-132.64 216.5,-116 231.75,-100.68 252.99,-90.02 272.22,-82.85"/>
<polygon fill="midnightblue" stroke="midnightblue" points="273.48,-86.12 281.76,-79.51 271.17,-79.51 273.48,-86.12"/>
</g>
<!-- Node13&#45;&gt;Node6 -->
<g id="edge16" class="edge">
<title>Node13&#45;&gt;Node6</title>
<path fill="none" stroke="midnightblue" d="M187.29,-174.26C189.53,-146.82 195.9,-68.51 198.9,-31.64"/>
<polygon fill="midnightblue" stroke="midnightblue" points="202.39,-31.88 199.72,-21.63 195.42,-31.32 202.39,-31.88"/>
</g>
<!-- Node13&#45;&gt;Node8 -->
<g id="edge17" class="edge">
<title>Node13&#45;&gt;Node8</title>
<path fill="none" stroke="midnightblue" d="M166.74,-176.1C144.18,-167.07 106.92,-152.17 79.85,-141.34"/>
<polygon fill="midnightblue" stroke="midnightblue" points="80.96,-138.02 70.38,-137.55 78.36,-144.51 80.96,-138.02"/>
</g>
<!-- Node13&#45;&gt;Node10 -->
<g id="edge15" class="edge">
<title>Node13&#45;&gt;Node10</title>
<path fill="none" stroke="midnightblue" d="M176.78,-174.25C168.07,-165.26 155.2,-151.31 145.5,-138 133.94,-122.15 122.8,-102.75 115.22,-88.73"/>
<polygon fill="midnightblue" stroke="midnightblue" points="118.16,-86.8 110.38,-79.6 111.97,-90.08 118.16,-86.8"/>
</g>
<!-- Node14&#45;&gt;Node4 -->
<g id="edge21" class="edge">
<title>Node14&#45;&gt;Node4</title>
<path fill="none" stroke="midnightblue" d="M420.79,-174.09C412.52,-160.22 396.25,-134.62 378.5,-116 367.64,-104.61 353.85,-93.7 342.33,-85.37"/>
<polygon fill="midnightblue" stroke="midnightblue" points="344.24,-82.43 334.05,-79.53 340.21,-88.16 344.24,-82.43"/>
</g>
<!-- Node15&#45;&gt;Node4 -->
<g id="edge23" class="edge">
<title>Node15&#45;&gt;Node4</title>
<path fill="none" stroke="midnightblue" d="M396.75,-348.45C429.49,-332.13 488.5,-295.55 488.5,-244 488.5,-244 488.5,-244 488.5,-184 488.5,-125.44 417.89,-94.95 367.96,-80.72"/>
<polygon fill="midnightblue" stroke="midnightblue" points="368.84,-77.33 358.27,-78.08 367,-84.08 368.84,-77.33"/>
</g>
<!-- Node15&#45;&gt;Node11 -->
<g id="edge24" class="edge">
<title>Node15&#45;&gt;Node11</title>
<path fill="none" stroke="midnightblue" d="M375.5,-348.25C375.5,-340.94 375.5,-330.69 375.5,-321.7"/>
<polygon fill="midnightblue" stroke="midnightblue" points="379,-321.64 375.5,-311.64 372,-321.64 379,-321.64"/>
</g>
</g>
</svg>
