<?xml version="1.0" encoding="UTF-8" standalone="no"?>
<!DOCTYPE svg PUBLIC "-//W3C//DTD SVG 1.1//EN"
 "http://www.w3.org/Graphics/SVG/1.1/DTD/svg11.dtd">
<!-- Generated by graphviz version 2.47.3 (20210711.2253)
 -->
<!-- Title: MemoryWord Pages: 1 -->
<svg width="192pt" height="101pt"
 viewBox="0.00 0.00 191.50 101.00" xmlns="http://www.w3.org/2000/svg" xmlns:xlink="http://www.w3.org/1999/xlink">
<g id="graph0" class="graph" transform="scale(1 1) rotate(0) translate(4 97)">
<title>MemoryWord</title>
<polygon fill="white" stroke="transparent" points="-4,4 -4,-97 187.5,-97 187.5,4 -4,4"/>
<!-- Node1 -->
<g id="node1" class="node">
<title>Node1</title>
<g id="a_node1"><a xlink:title="[p43#113]: MemoryWord(64) .">
<polygon fill="#bfbfbf" stroke="black" points="49.5,-0.5 49.5,-21.5 138.5,-21.5 138.5,-0.5 49.5,-0.5"/>
<text text-anchor="middle" x="94" y="-7.9" font-family="DejaVuSans" font-size="12.00">MemoryWord</text>
</a>
</g>
</g>
<!-- Node2 -->
<g id="node2" class="node">
<title>Node2</title>
<g id="a_node2"><a xlink:href="struct_four_quarters.html" target="_top" xlink:title="[p43#113]: FourQuarters(64) .">
<polygon fill="white" stroke="black" points="0,-71.5 0,-92.5 88,-92.5 88,-71.5 0,-71.5"/>
<text text-anchor="middle" x="44" y="-78.9" font-family="DejaVuSans" font-size="12.00">FourQuarters</text>
</a>
</g>
</g>
<!-- Node2&#45;&gt;Node1 -->
<g id="edge1" class="edge">
<title>Node2&#45;&gt;Node1</title>
<path fill="none" stroke="#9a32cd" stroke-dasharray="5,2" d="M57.02,-63.03C66.64,-49.75 79.37,-32.19 87.11,-21.51"/>
<polygon fill="#9a32cd" stroke="#9a32cd" points="53.99,-61.25 50.95,-71.41 59.65,-65.36 53.99,-61.25"/>
<text text-anchor="middle" x="89.5" y="-43.4" font-family="DejaVuSans" font-size="12.00"> qqqq</text>
</g>
<!-- Node3 -->
<g id="node3" class="node">
<title>Node3</title>
<g id="a_node3"><a xlink:href="struct_two_halves.html" target="_top" xlink:title="[p43#113]: TwoHalves(64) .">
<polygon fill="white" stroke="black" points="106.5,-71.5 106.5,-92.5 183.5,-92.5 183.5,-71.5 106.5,-71.5"/>
<text text-anchor="middle" x="145" y="-78.9" font-family="DejaVuSans" font-size="12.00">TwoHalves</text>
</a>
</g>
</g>
<!-- Node3&#45;&gt;Node1 -->
<g id="edge2" class="edge">
<title>Node3&#45;&gt;Node1</title>
<path fill="none" stroke="#9a32cd" stroke-dasharray="5,2" d="M131.72,-63.03C121.9,-49.75 108.92,-32.19 101.03,-21.51"/>
<polygon fill="#9a32cd" stroke="#9a32cd" points="129.15,-65.44 137.91,-71.41 134.78,-61.28 129.15,-65.44"/>
<text text-anchor="middle" x="132.5" y="-43.4" font-family="DejaVuSans" font-size="12.00"> hh</text>
</g>
</g>
</svg>
